<?xml version="1.0" encoding="UTF-8" standalone="no"?>
<!DOCTYPE svg PUBLIC "-//W3C//DTD SVG 1.1//EN"
 "http://www.w3.org/Graphics/SVG/1.1/DTD/svg11.dtd">
<!-- Generated by graphviz version 2.43.0 (0)
 -->
<!-- Title: %3 Pages: 1 -->
<svg width="827pt" height="803pt"
 viewBox="0.00 0.00 827.38 803.00" xmlns="http://www.w3.org/2000/svg" xmlns:xlink="http://www.w3.org/1999/xlink">
<g id="graph0" class="graph" transform="scale(1 1) rotate(0) translate(4 799)">
<title>%3</title>
<polygon fill="white" stroke="transparent" points="-4,4 -4,-799 823.38,-799 823.38,4 -4,4"/>
<text text-anchor="middle" x="409.69" y="-767" font-family="Times,serif" font-size="30.00">Dependencies</text>
<text text-anchor="middle" x="409.69" y="-734" font-family="Times,serif" font-size="30.00"> </text>
<!-- :shared:feature:listens -->
<g id="node1" class="node">
<title>:shared:feature:listens</title>
<polygon fill="#b59aff" stroke="black" points="575.54,-721 397.54,-721 397.54,-685 575.54,-685 575.54,-721"/>
<text text-anchor="middle" x="486.54" y="-699.3" font-family="Times,serif" font-size="14.00">:shared:feature:listens</text>
</g>
<!-- :test&#45;data -->
<g id="node2" class="node">
<title>:test&#45;data</title>
<ellipse fill="#b59aff" stroke="black" cx="392.54" cy="-429" rx="55.49" ry="18"/>
<text text-anchor="middle" x="392.54" y="-425.3" font-family="Times,serif" font-size="14.00">:test&#45;data</text>
</g>
<!-- :shared:feature:listens&#45;&gt;:test&#45;data -->
<g id="edge1" class="edge">
<title>:shared:feature:listens&#45;&gt;:test&#45;data</title>
<path fill="none" stroke="#ff9ab1" stroke-dasharray="1,5" d="M414.29,-684.6C414.29,-684.6 414.29,-455.57 414.29,-455.57"/>
<polygon fill="#ff9ab1" stroke="#ff9ab1" points="417.79,-455.57 414.29,-445.57 410.79,-455.57 417.79,-455.57"/>
</g>
<!-- :ui:test:screenshot -->
<g id="node3" class="node">
<title>:ui:test:screenshot</title>
<ellipse fill="#9affb5" stroke="black" cx="722.54" cy="-429" rx="96.68" ry="18"/>
<text text-anchor="middle" x="722.54" y="-425.3" font-family="Times,serif" font-size="14.00">:ui:test:screenshot</text>
</g>
<!-- :shared:feature:listens&#45;&gt;:ui:test:screenshot -->
<g id="edge2" class="edge">
<title>:shared:feature:listens&#45;&gt;:ui:test:screenshot</title>
<path fill="none" stroke="#ff9ab1" stroke-dasharray="1,5" d="M575.76,-703C642.6,-703 722.54,-703 722.54,-703 722.54,-703 722.54,-457.4 722.54,-457.4"/>
<polygon fill="#ff9ab1" stroke="#ff9ab1" points="726.04,-457.4 722.54,-447.4 719.04,-457.4 726.04,-457.4"/>
</g>
<!-- :ui:common -->
<g id="node4" class="node">
<title>:ui:common</title>
<ellipse fill="#b59aff" stroke="black" cx="550.54" cy="-566" rx="64.19" ry="18"/>
<text text-anchor="middle" x="550.54" y="-562.3" font-family="Times,serif" font-size="14.00">:ui:common</text>
</g>
<!-- :shared:feature:listens&#45;&gt;:ui:common -->
<g id="edge3" class="edge">
<title>:shared:feature:listens&#45;&gt;:ui:common</title>
<path fill="none" stroke="black" stroke-dasharray="1,5" d="M530.87,-684.81C530.87,-684.81 530.87,-593.4 530.87,-593.4"/>
<polygon fill="black" stroke="black" points="534.37,-593.4 530.87,-583.4 527.37,-593.4 534.37,-593.4"/>
</g>
<!-- :shared:domain -->
<g id="node5" class="node">
<title>:shared:domain</title>
<ellipse fill="#b59aff" stroke="black" cx="82.54" cy="-18" rx="82.59" ry="18"/>
<text text-anchor="middle" x="82.54" y="-14.3" font-family="Times,serif" font-size="14.00">:shared:domain</text>
</g>
<!-- :shared:feature:listens&#45;&gt;:shared:domain -->
<g id="edge4" class="edge">
<title>:shared:feature:listens&#45;&gt;:shared:domain</title>
<path fill="none" stroke="black" stroke-dasharray="1,5" d="M397.29,-703C262.4,-703 22.19,-703 22.19,-703 22.19,-703 22.19,-40.47 22.19,-40.47"/>
<polygon fill="black" stroke="black" points="25.69,-40.47 22.19,-30.47 18.69,-40.47 25.69,-40.47"/>
</g>
<!-- :test&#45;data&#45;&gt;:shared:domain -->
<g id="edge5" class="edge">
<title>:test&#45;data&#45;&gt;:shared:domain</title>
<path fill="none" stroke="black" stroke-dasharray="1,5" d="M340.17,-435C248.02,-435 66.57,-435 66.57,-435 66.57,-435 66.57,-45.92 66.57,-45.92"/>
<polygon fill="black" stroke="black" points="70.07,-45.92 66.57,-35.92 63.07,-45.92 70.07,-45.92"/>
</g>
<!-- :data:database -->
<g id="node6" class="node">
<title>:data:database</title>
<ellipse fill="#b59aff" stroke="black" cx="204.54" cy="-292" rx="79.09" ry="18"/>
<text text-anchor="middle" x="204.54" y="-288.3" font-family="Times,serif" font-size="14.00">:data:database</text>
</g>
<!-- :test&#45;data&#45;&gt;:data:database -->
<g id="edge6" class="edge">
<title>:test&#45;data&#45;&gt;:data:database</title>
<path fill="none" stroke="black" stroke-dasharray="1,5" d="M374.13,-411.75C374.13,-373.72 374.13,-286 374.13,-286 374.13,-286 289.42,-286 289.42,-286"/>
<polygon fill="black" stroke="black" points="289.42,-282.5 279.42,-286 289.42,-289.5 289.42,-282.5"/>
</g>
<!-- :data:musicbrainz -->
<g id="node7" class="node">
<title>:data:musicbrainz</title>
<ellipse fill="#b59aff" stroke="black" cx="204.54" cy="-155" rx="93.68" ry="18"/>
<text text-anchor="middle" x="204.54" y="-151.3" font-family="Times,serif" font-size="14.00">:data:musicbrainz</text>
</g>
<!-- :test&#45;data&#45;&gt;:data:musicbrainz -->
<g id="edge7" class="edge">
<title>:test&#45;data&#45;&gt;:data:musicbrainz</title>
<path fill="none" stroke="black" stroke-dasharray="1,5" d="M340.28,-423C315.39,-423 290.99,-423 290.99,-423 290.99,-423 290.99,-172.17 290.99,-172.17"/>
<polygon fill="black" stroke="black" points="294.49,-172.17 290.99,-162.17 287.49,-172.17 294.49,-172.17"/>
</g>
<!-- :data:coverart -->
<g id="node8" class="node">
<title>:data:coverart</title>
<ellipse fill="#b59aff" stroke="black" cx="392.54" cy="-155" rx="76.09" ry="18"/>
<text text-anchor="middle" x="392.54" y="-151.3" font-family="Times,serif" font-size="14.00">:data:coverart</text>
</g>
<!-- :test&#45;data&#45;&gt;:data:coverart -->
<g id="edge8" class="edge">
<title>:test&#45;data&#45;&gt;:data:coverart</title>
<path fill="none" stroke="black" stroke-dasharray="1,5" d="M410.96,-411.86C410.96,-411.86 410.96,-182.49 410.96,-182.49"/>
<polygon fill="black" stroke="black" points="414.46,-182.49 410.96,-172.49 407.46,-182.49 414.46,-182.49"/>
</g>
<!-- :data:spotify -->
<g id="node9" class="node">
<title>:data:spotify</title>
<ellipse fill="#b59aff" stroke="black" cx="555.54" cy="-155" rx="68.79" ry="18"/>
<text text-anchor="middle" x="555.54" y="-151.3" font-family="Times,serif" font-size="14.00">:data:spotify</text>
</g>
<!-- :test&#45;data&#45;&gt;:data:spotify -->
<g id="edge9" class="edge">
<title>:test&#45;data&#45;&gt;:data:spotify</title>
<path fill="none" stroke="black" stroke-dasharray="1,5" d="M444.95,-423C479.62,-423 518.71,-423 518.71,-423 518.71,-423 518.71,-180.57 518.71,-180.57"/>
<polygon fill="black" stroke="black" points="522.21,-180.57 518.71,-170.57 515.21,-180.57 522.21,-180.57"/>
</g>
<!-- :test:image -->
<g id="node10" class="node">
<title>:test:image</title>
<ellipse fill="#9affb5" stroke="black" cx="701.54" cy="-292" rx="63.09" ry="18"/>
<text text-anchor="middle" x="701.54" y="-288.3" font-family="Times,serif" font-size="14.00">:test:image</text>
</g>
<!-- :ui:test:screenshot&#45;&gt;:test:image -->
<g id="edge10" class="edge">
<title>:ui:test:screenshot&#45;&gt;:test:image</title>
<path fill="none" stroke="black" stroke-dasharray="1,5" d="M701.54,-411.37C701.54,-411.37 701.54,-320.44 701.54,-320.44"/>
<polygon fill="black" stroke="black" points="705.04,-320.44 701.54,-310.44 698.04,-320.44 705.04,-320.44"/>
</g>
<!-- :ui:common&#45;&gt;:test&#45;data -->
<g id="edge12" class="edge">
<title>:ui:common&#45;&gt;:test&#45;data</title>
<path fill="none" stroke="#ff9ab1" stroke-dasharray="1,5" d="M494.64,-557C463.54,-557 431.04,-557 431.04,-557 431.04,-557 431.04,-452.22 431.04,-452.22"/>
<polygon fill="#ff9ab1" stroke="#ff9ab1" points="434.54,-452.22 431.04,-442.22 427.54,-452.22 434.54,-452.22"/>
</g>
<!-- :ui:common&#45;&gt;:ui:test:screenshot -->
<g id="edge13" class="edge">
<title>:ui:common&#45;&gt;:ui:test:screenshot</title>
<path fill="none" stroke="#ff9ab1" stroke-dasharray="1,5" d="M582.83,-550.2C582.83,-515.36 582.83,-435 582.83,-435 582.83,-435 620.91,-435 620.91,-435"/>
<polygon fill="#ff9ab1" stroke="#ff9ab1" points="620.91,-438.5 630.91,-435 620.91,-431.5 620.91,-438.5"/>
</g>
<!-- :ui:common&#45;&gt;:shared:domain -->
<g id="edge14" class="edge">
<title>:ui:common&#45;&gt;:shared:domain</title>
<path fill="none" stroke="black" d="M494.44,-575C362.65,-575 44.38,-575 44.38,-575 44.38,-575 44.38,-44.07 44.38,-44.07"/>
<polygon fill="black" stroke="black" points="47.88,-44.07 44.38,-34.07 40.88,-44.07 47.88,-44.07"/>
</g>
<!-- :ui:common&#45;&gt;:test:image -->
<g id="edge11" class="edge">
<title>:ui:common&#45;&gt;:test:image</title>
<path fill="none" stroke="black" stroke-dasharray="1,5" d="M550.77,-548C550.77,-487.91 550.77,-298 550.77,-298 550.77,-298 631.95,-298 631.95,-298"/>
<polygon fill="black" stroke="black" points="631.95,-301.5 641.95,-298 631.95,-294.5 631.95,-301.5"/>
</g>
<!-- :core:logging:api -->
<g id="node11" class="node">
<title>:core:logging:api</title>
<ellipse fill="#b59aff" stroke="black" cx="473.54" cy="-18" rx="88.28" ry="18"/>
<text text-anchor="middle" x="473.54" y="-14.3" font-family="Times,serif" font-size="14.00">:core:logging:api</text>
</g>
<!-- :ui:common&#45;&gt;:core:logging:api -->
<g id="edge15" class="edge">
<title>:ui:common&#45;&gt;:core:logging:api</title>
<path fill="none" stroke="black" stroke-dasharray="1,5" d="M486.07,-566C480.77,-566 477.39,-566 477.39,-566 477.39,-566 477.39,-46.23 477.39,-46.23"/>
<polygon fill="black" stroke="black" points="480.89,-46.23 477.39,-36.23 473.89,-46.23 480.89,-46.23"/>
</g>
<!-- :data:database&#45;&gt;:shared:domain -->
<g id="edge16" class="edge">
<title>:data:database&#45;&gt;:shared:domain</title>
<path fill="none" stroke="black" stroke-dasharray="1,5" d="M125.08,-292C104.87,-292 88.76,-292 88.76,-292 88.76,-292 88.76,-45.98 88.76,-45.98"/>
<polygon fill="black" stroke="black" points="92.26,-45.98 88.76,-35.98 85.26,-45.98 92.26,-45.98"/>
</g>
<!-- :data:database&#45;&gt;:data:musicbrainz -->
<g id="edge17" class="edge">
<title>:data:database&#45;&gt;:data:musicbrainz</title>
<path fill="none" stroke="black" stroke-dasharray="1,5" d="M204.54,-273.81C204.54,-273.81 204.54,-183.27 204.54,-183.27"/>
<polygon fill="black" stroke="black" points="208.04,-183.27 204.54,-173.27 201.04,-183.27 208.04,-183.27"/>
</g>
<!-- :data:musicbrainz&#45;&gt;:shared:domain -->
<g id="edge18" class="edge">
<title>:data:musicbrainz&#45;&gt;:shared:domain</title>
<path fill="none" stroke="black" stroke-dasharray="1,5" d="M129,-144.25C129,-144.25 129,-43.18 129,-43.18"/>
<polygon fill="black" stroke="black" points="132.5,-43.18 129,-33.18 125.5,-43.18 132.5,-43.18"/>
</g>
<!-- :data:musicbrainz&#45;&gt;:core:logging:api -->
<g id="edge19" class="edge">
<title>:data:musicbrainz&#45;&gt;:core:logging:api</title>
<path fill="none" stroke="black" stroke-dasharray="1,5" d="M231.61,-137.75C231.61,-99.72 231.61,-12 231.61,-12 231.61,-12 379.94,-12 379.94,-12"/>
<polygon fill="black" stroke="black" points="379.94,-15.5 389.94,-12 379.94,-8.5 379.94,-15.5"/>
</g>
<!-- :data:coverart&#45;&gt;:shared:domain -->
<g id="edge20" class="edge">
<title>:data:coverart&#45;&gt;:shared:domain</title>
<path fill="none" stroke="black" stroke-dasharray="1,5" d="M350.82,-139.72C350.82,-105.16 350.82,-24 350.82,-24 350.82,-24 170.5,-24 170.5,-24"/>
<polygon fill="black" stroke="black" points="170.5,-20.5 160.5,-24 170.5,-27.5 170.5,-20.5"/>
</g>
<!-- :data:coverart&#45;&gt;:core:logging:api -->
<g id="edge21" class="edge">
<title>:data:coverart&#45;&gt;:core:logging:api</title>
<path fill="none" stroke="black" stroke-dasharray="1,5" d="M426.87,-138.75C426.87,-138.75 426.87,-43.39 426.87,-43.39"/>
<polygon fill="black" stroke="black" points="430.37,-43.39 426.87,-33.39 423.37,-43.39 430.37,-43.39"/>
</g>
<!-- :data:spotify&#45;&gt;:shared:domain -->
<g id="edge22" class="edge">
<title>:data:spotify&#45;&gt;:shared:domain</title>
<path fill="none" stroke="black" stroke-dasharray="1,5" d="M511.74,-141.04C511.74,-120.87 511.74,-86 511.74,-86 511.74,-86 147.04,-86 147.04,-86 147.04,-86 147.04,-39.54 147.04,-39.54"/>
<polygon fill="black" stroke="black" points="150.54,-39.54 147.04,-29.54 143.54,-39.54 150.54,-39.54"/>
</g>
<!-- :data:spotify&#45;&gt;:core:logging:api -->
<g id="edge23" class="edge">
<title>:data:spotify&#45;&gt;:core:logging:api</title>
<path fill="none" stroke="black" stroke-dasharray="1,5" d="M536.84,-137.65C536.84,-137.65 536.84,-40.74 536.84,-40.74"/>
<polygon fill="black" stroke="black" points="540.34,-40.74 536.84,-30.74 533.34,-40.74 540.34,-40.74"/>
</g>
</g>
</svg>
