<?xml version="1.0" encoding="UTF-8" standalone="no"?>
<!DOCTYPE svg PUBLIC "-//W3C//DTD SVG 1.1//EN"
 "http://www.w3.org/Graphics/SVG/1.1/DTD/svg11.dtd">
<!-- Generated by graphviz version 2.43.0 (0)
 -->
<!-- Title: %3 Pages: 1 -->
<svg width="519pt" height="820pt"
 viewBox="0.00 0.00 519.37 820.00" xmlns="http://www.w3.org/2000/svg" xmlns:xlink="http://www.w3.org/1999/xlink">
<g id="graph0" class="graph" transform="scale(1 1) rotate(0) translate(4 816)">
<title>%3</title>
<polygon fill="white" stroke="transparent" points="-4,4 -4,-816 515.37,-816 515.37,4 -4,4"/>
<text text-anchor="middle" x="255.69" y="-784" font-family="Times,serif" font-size="30.00">Dependents</text>
<text text-anchor="middle" x="255.69" y="-751" font-family="Times,serif" font-size="30.00"> </text>
<!-- :shared:domain -->
<g id="node1" class="node">
<title>:shared:domain</title>
<polygon fill="#b59aff" stroke="black" points="127,-387 0,-387 0,-351 127,-351 127,-387"/>
<text text-anchor="middle" x="63.5" y="-365.3" font-family="Times,serif" font-size="14.00">:shared:domain</text>
</g>
<!-- :shared -->
<g id="node2" class="node">
<title>:shared</title>
<ellipse fill="#b59aff" stroke="black" cx="369.69" cy="-720" rx="45.49" ry="18"/>
<text text-anchor="middle" x="369.69" y="-716.3" font-family="Times,serif" font-size="14.00">:shared</text>
</g>
<!-- :shared&#45;&gt;:shared:domain -->
<g id="edge1" class="edge">
<title>:shared&#45;&gt;:shared:domain</title>
<path fill="none" stroke="black" stroke-dasharray="1,5" d="M324.07,-720C228.91,-720 18,-720 18,-720 18,-720 18,-397.38 18,-397.38"/>
<polygon fill="black" stroke="black" points="21.5,-397.38 18,-387.38 14.5,-397.38 21.5,-397.38"/>
</g>
<!-- :test&#45;data -->
<g id="node3" class="node">
<title>:test&#45;data</title>
<ellipse fill="#b59aff" stroke="black" cx="369.69" cy="-666" rx="55.49" ry="18"/>
<text text-anchor="middle" x="369.69" y="-662.3" font-family="Times,serif" font-size="14.00">:test&#45;data</text>
</g>
<!-- :test&#45;data&#45;&gt;:shared:domain -->
<g id="edge2" class="edge">
<title>:test&#45;data&#45;&gt;:shared:domain</title>
<path fill="none" stroke="black" stroke-dasharray="1,5" d="M314.21,-666C219.33,-666 36,-666 36,-666 36,-666 36,-397.13 36,-397.13"/>
<polygon fill="black" stroke="black" points="39.5,-397.13 36,-387.13 32.5,-397.13 39.5,-397.13"/>
</g>
<!-- :data:coverart -->
<g id="node4" class="node">
<title>:data:coverart</title>
<ellipse fill="#b59aff" stroke="black" cx="369.69" cy="-612" rx="76.09" ry="18"/>
<text text-anchor="middle" x="369.69" y="-608.3" font-family="Times,serif" font-size="14.00">:data:coverart</text>
</g>
<!-- :data:coverart&#45;&gt;:shared:domain -->
<g id="edge3" class="edge">
<title>:data:coverart&#45;&gt;:shared:domain</title>
<path fill="none" stroke="black" stroke-dasharray="1,5" d="M293.27,-612C199.84,-612 54,-612 54,-612 54,-612 54,-397.26 54,-397.26"/>
<polygon fill="black" stroke="black" points="57.5,-397.26 54,-387.26 50.5,-397.26 57.5,-397.26"/>
</g>
<!-- :data:repository -->
<g id="node5" class="node">
<title>:data:repository</title>
<ellipse fill="#b59aff" stroke="black" cx="369.69" cy="-558" rx="85.29" ry="18"/>
<text text-anchor="middle" x="369.69" y="-554.3" font-family="Times,serif" font-size="14.00">:data:repository</text>
</g>
<!-- :data:repository&#45;&gt;:shared:domain -->
<g id="edge4" class="edge">
<title>:data:repository&#45;&gt;:shared:domain</title>
<path fill="none" stroke="black" stroke-dasharray="1,5" d="M284.38,-558C196.42,-558 72,-558 72,-558 72,-558 72,-397.12 72,-397.12"/>
<polygon fill="black" stroke="black" points="75.5,-397.12 72,-387.12 68.5,-397.12 75.5,-397.12"/>
</g>
<!-- :ui:common -->
<g id="node6" class="node">
<title>:ui:common</title>
<ellipse fill="#b59aff" stroke="black" cx="369.69" cy="-504" rx="64.19" ry="18"/>
<text text-anchor="middle" x="369.69" y="-500.3" font-family="Times,serif" font-size="14.00">:ui:common</text>
</g>
<!-- :ui:common&#45;&gt;:shared:domain -->
<g id="edge5" class="edge">
<title>:ui:common&#45;&gt;:shared:domain</title>
<path fill="none" stroke="black" stroke-dasharray="1,5" d="M305.17,-504C222.57,-504 90,-504 90,-504 90,-504 90,-397.21 90,-397.21"/>
<polygon fill="black" stroke="black" points="93.5,-397.21 90,-387.21 86.5,-397.21 93.5,-397.21"/>
</g>
<!-- :shared:feature:settings -->
<g id="node7" class="node">
<title>:shared:feature:settings</title>
<ellipse fill="#b59aff" stroke="black" cx="369.69" cy="-450" rx="122.38" ry="18"/>
<text text-anchor="middle" x="369.69" y="-446.3" font-family="Times,serif" font-size="14.00">:shared:feature:settings</text>
</g>
<!-- :shared:feature:settings&#45;&gt;:shared:domain -->
<g id="edge6" class="edge">
<title>:shared:feature:settings&#45;&gt;:shared:domain</title>
<path fill="none" stroke="black" stroke-dasharray="1,5" d="M247.27,-450C179.16,-450 108,-450 108,-450 108,-450 108,-397.38 108,-397.38"/>
<polygon fill="black" stroke="black" points="111.5,-397.38 108,-387.38 104.5,-397.38 111.5,-397.38"/>
</g>
<!-- :shared:feature:images -->
<g id="node8" class="node">
<title>:shared:feature:images</title>
<ellipse fill="#b59aff" stroke="black" cx="369.69" cy="-396" rx="118.08" ry="18"/>
<text text-anchor="middle" x="369.69" y="-392.3" font-family="Times,serif" font-size="14.00">:shared:feature:images</text>
</g>
<!-- :shared:feature:images&#45;&gt;:shared:domain -->
<g id="edge7" class="edge">
<title>:shared:feature:images&#45;&gt;:shared:domain</title>
<path fill="none" stroke="black" stroke-dasharray="1,5" d="M291.23,-382.5C291.23,-382.5 137.32,-382.5 137.32,-382.5"/>
<polygon fill="black" stroke="black" points="137.32,-379 127.32,-382.5 137.32,-386 137.32,-379"/>
</g>
<!-- :shared:feature:search -->
<g id="node9" class="node">
<title>:shared:feature:search</title>
<ellipse fill="#b59aff" stroke="black" cx="369.69" cy="-342" rx="115.88" ry="18"/>
<text text-anchor="middle" x="369.69" y="-338.3" font-family="Times,serif" font-size="14.00">:shared:feature:search</text>
</g>
<!-- :shared:feature:search&#45;&gt;:shared:domain -->
<g id="edge8" class="edge">
<title>:shared:feature:search&#45;&gt;:shared:domain</title>
<path fill="none" stroke="black" stroke-dasharray="1,5" d="M313.53,-357.75C313.53,-357.75 137.24,-357.75 137.24,-357.75"/>
<polygon fill="black" stroke="black" points="137.24,-354.25 127.24,-357.75 137.24,-361.25 137.24,-354.25"/>
</g>
<!-- :shared:feature:collections -->
<g id="node10" class="node">
<title>:shared:feature:collections</title>
<ellipse fill="#b59aff" stroke="black" cx="369.69" cy="-288" rx="133.78" ry="18"/>
<text text-anchor="middle" x="369.69" y="-284.3" font-family="Times,serif" font-size="14.00">:shared:feature:collections</text>
</g>
<!-- :shared:feature:collections&#45;&gt;:shared:domain -->
<g id="edge9" class="edge">
<title>:shared:feature:collections&#45;&gt;:shared:domain</title>
<path fill="none" stroke="black" stroke-dasharray="1,5" d="M241,-293.3C241,-309.21 241,-355.5 241,-355.5 241,-355.5 137.08,-355.5 137.08,-355.5"/>
<polygon fill="black" stroke="black" points="137.08,-352 127.08,-355.5 137.08,-359 137.08,-352"/>
</g>
<!-- :shared:feature:stats -->
<g id="node11" class="node">
<title>:shared:feature:stats</title>
<ellipse fill="#b59aff" stroke="black" cx="369.69" cy="-234" rx="107.78" ry="18"/>
<text text-anchor="middle" x="369.69" y="-230.3" font-family="Times,serif" font-size="14.00">:shared:feature:stats</text>
</g>
<!-- :shared:feature:stats&#45;&gt;:shared:domain -->
<g id="edge10" class="edge">
<title>:shared:feature:stats&#45;&gt;:shared:domain</title>
<path fill="none" stroke="black" stroke-dasharray="1,5" d="M261.56,-234C186.9,-234 101,-234 101,-234 101,-234 101,-340.79 101,-340.79"/>
<polygon fill="black" stroke="black" points="97.5,-340.79 101,-350.79 104.5,-340.79 97.5,-340.79"/>
</g>
<!-- :shared:feature:details -->
<g id="node12" class="node">
<title>:shared:feature:details</title>
<ellipse fill="#b59aff" stroke="black" cx="369.69" cy="-180" rx="116.18" ry="18"/>
<text text-anchor="middle" x="369.69" y="-176.3" font-family="Times,serif" font-size="14.00">:shared:feature:details</text>
</g>
<!-- :shared:feature:details&#45;&gt;:shared:domain -->
<g id="edge11" class="edge">
<title>:shared:feature:details&#45;&gt;:shared:domain</title>
<path fill="none" stroke="black" stroke-dasharray="1,5" d="M253.19,-180C171.2,-180 76,-180 76,-180 76,-180 76,-340.88 76,-340.88"/>
<polygon fill="black" stroke="black" points="72.5,-340.88 76,-350.88 79.5,-340.88 72.5,-340.88"/>
</g>
<!-- :shared:feature:history -->
<g id="node13" class="node">
<title>:shared:feature:history</title>
<ellipse fill="#b59aff" stroke="black" cx="369.69" cy="-126" rx="117.78" ry="18"/>
<text text-anchor="middle" x="369.69" y="-122.3" font-family="Times,serif" font-size="14.00">:shared:feature:history</text>
</g>
<!-- :shared:feature:history&#45;&gt;:shared:domain -->
<g id="edge12" class="edge">
<title>:shared:feature:history&#45;&gt;:shared:domain</title>
<path fill="none" stroke="black" stroke-dasharray="1,5" d="M252.01,-126C160.86,-126 50,-126 50,-126 50,-126 50,-340.74 50,-340.74"/>
<polygon fill="black" stroke="black" points="46.5,-340.74 50,-350.74 53.5,-340.74 46.5,-340.74"/>
</g>
<!-- :android:feature:nowplaying -->
<g id="node14" class="node">
<title>:android:feature:nowplaying</title>
<ellipse fill="#9affb5" stroke="black" cx="369.69" cy="-72" rx="141.88" ry="18"/>
<text text-anchor="middle" x="369.69" y="-68.3" font-family="Times,serif" font-size="14.00">:android:feature:nowplaying</text>
</g>
<!-- :android:feature:nowplaying&#45;&gt;:shared:domain -->
<g id="edge13" class="edge">
<title>:android:feature:nowplaying&#45;&gt;:shared:domain</title>
<path fill="none" stroke="black" stroke-dasharray="1,5" d="M231,-75.98C231,-110.16 231,-353.25 231,-353.25 231,-353.25 137.3,-353.25 137.3,-353.25"/>
<polygon fill="black" stroke="black" points="137.3,-349.75 127.3,-353.25 137.3,-356.75 137.3,-349.75"/>
</g>
<!-- :android:feature:spotify -->
<g id="node15" class="node">
<title>:android:feature:spotify</title>
<ellipse fill="#9affb5" stroke="black" cx="369.69" cy="-18" rx="120.48" ry="18"/>
<text text-anchor="middle" x="369.69" y="-14.3" font-family="Times,serif" font-size="14.00">:android:feature:spotify</text>
</g>
<!-- :android:feature:spotify&#45;&gt;:shared:domain -->
<g id="edge14" class="edge">
<title>:android:feature:spotify&#45;&gt;:shared:domain</title>
<path fill="none" stroke="black" stroke-dasharray="1,5" d="M249.13,-18C149.73,-18 25,-18 25,-18 25,-18 25,-340.62 25,-340.62"/>
<polygon fill="black" stroke="black" points="21.5,-340.62 25,-350.62 28.5,-340.62 21.5,-340.62"/>
</g>
</g>
</svg>
