<?xml version="1.0" encoding="UTF-8" standalone="no"?>
<!DOCTYPE svg PUBLIC "-//W3C//DTD SVG 1.1//EN"
 "http://www.w3.org/Graphics/SVG/1.1/DTD/svg11.dtd">
<!-- Generated by graphviz version 2.43.0 (0)
 -->
<!-- Title: %3 Pages: 1 -->
<svg width="519pt" height="874pt"
 viewBox="0.00 0.00 519.37 874.00" xmlns="http://www.w3.org/2000/svg" xmlns:xlink="http://www.w3.org/1999/xlink">
<g id="graph0" class="graph" transform="scale(1 1) rotate(0) translate(4 870)">
<title>%3</title>
<polygon fill="white" stroke="transparent" points="-4,4 -4,-870 515.37,-870 515.37,4 -4,4"/>
<text text-anchor="middle" x="255.69" y="-838" font-family="Times,serif" font-size="30.00">Dependents</text>
<text text-anchor="middle" x="255.69" y="-805" font-family="Times,serif" font-size="30.00"> </text>
<!-- :shared:domain -->
<g id="node1" class="node">
<title>:shared:domain</title>
<polygon fill="#b59aff" stroke="black" points="127,-414 0,-414 0,-378 127,-378 127,-414"/>
<text text-anchor="middle" x="63.5" y="-392.3" font-family="Times,serif" font-size="14.00">:shared:domain</text>
</g>
<!-- :shared -->
<g id="node2" class="node">
<title>:shared</title>
<ellipse fill="#b59aff" stroke="black" cx="369.69" cy="-774" rx="45.49" ry="18"/>
<text text-anchor="middle" x="369.69" y="-770.3" font-family="Times,serif" font-size="14.00">:shared</text>
</g>
<!-- :shared&#45;&gt;:shared:domain -->
<g id="edge1" class="edge">
<title>:shared&#45;&gt;:shared:domain</title>
<path fill="none" stroke="black" stroke-dasharray="1,5" d="M324.04,-774C228.25,-774 15,-774 15,-774 15,-774 15,-424.23 15,-424.23"/>
<polygon fill="black" stroke="black" points="18.5,-424.23 15,-414.23 11.5,-424.23 18.5,-424.23"/>
</g>
<!-- :test&#45;data -->
<g id="node3" class="node">
<title>:test&#45;data</title>
<ellipse fill="#b59aff" stroke="black" cx="369.69" cy="-720" rx="55.49" ry="18"/>
<text text-anchor="middle" x="369.69" y="-716.3" font-family="Times,serif" font-size="14.00">:test&#45;data</text>
</g>
<!-- :test&#45;data&#45;&gt;:shared:domain -->
<g id="edge2" class="edge">
<title>:test&#45;data&#45;&gt;:shared:domain</title>
<path fill="none" stroke="black" stroke-dasharray="1,5" d="M314.14,-720C218.05,-720 31,-720 31,-720 31,-720 31,-424.35 31,-424.35"/>
<polygon fill="black" stroke="black" points="34.5,-424.35 31,-414.35 27.5,-424.35 34.5,-424.35"/>
</g>
<!-- :data:coverart -->
<g id="node4" class="node">
<title>:data:coverart</title>
<ellipse fill="#b59aff" stroke="black" cx="369.69" cy="-666" rx="76.09" ry="18"/>
<text text-anchor="middle" x="369.69" y="-662.3" font-family="Times,serif" font-size="14.00">:data:coverart</text>
</g>
<!-- :data:coverart&#45;&gt;:shared:domain -->
<g id="edge3" class="edge">
<title>:data:coverart&#45;&gt;:shared:domain</title>
<path fill="none" stroke="black" stroke-dasharray="1,5" d="M293.62,-666C198.22,-666 47,-666 47,-666 47,-666 47,-424.13 47,-424.13"/>
<polygon fill="black" stroke="black" points="50.5,-424.13 47,-414.13 43.5,-424.13 50.5,-424.13"/>
</g>
<!-- :data:spotify -->
<g id="node5" class="node">
<title>:data:spotify</title>
<ellipse fill="#b59aff" stroke="black" cx="369.69" cy="-612" rx="68.79" ry="18"/>
<text text-anchor="middle" x="369.69" y="-608.3" font-family="Times,serif" font-size="14.00">:data:spotify</text>
</g>
<!-- :data:spotify&#45;&gt;:shared:domain -->
<g id="edge4" class="edge">
<title>:data:spotify&#45;&gt;:shared:domain</title>
<path fill="none" stroke="black" stroke-dasharray="1,5" d="M300.48,-612C210.02,-612 63,-612 63,-612 63,-612 63,-424.04 63,-424.04"/>
<polygon fill="black" stroke="black" points="66.5,-424.04 63,-414.04 59.5,-424.04 66.5,-424.04"/>
</g>
<!-- :data:repository -->
<g id="node6" class="node">
<title>:data:repository</title>
<ellipse fill="#b59aff" stroke="black" cx="369.69" cy="-558" rx="85.29" ry="18"/>
<text text-anchor="middle" x="369.69" y="-554.3" font-family="Times,serif" font-size="14.00">:data:repository</text>
</g>
<!-- :data:repository&#45;&gt;:shared:domain -->
<g id="edge5" class="edge">
<title>:data:repository&#45;&gt;:shared:domain</title>
<path fill="none" stroke="black" stroke-dasharray="1,5" d="M284.44,-558C198.66,-558 79,-558 79,-558 79,-558 79,-424.27 79,-424.27"/>
<polygon fill="black" stroke="black" points="82.5,-424.27 79,-414.27 75.5,-424.27 82.5,-424.27"/>
</g>
<!-- :ui:common -->
<g id="node7" class="node">
<title>:ui:common</title>
<ellipse fill="#b59aff" stroke="black" cx="369.69" cy="-504" rx="64.19" ry="18"/>
<text text-anchor="middle" x="369.69" y="-500.3" font-family="Times,serif" font-size="14.00">:ui:common</text>
</g>
<!-- :ui:common&#45;&gt;:shared:domain -->
<g id="edge6" class="edge">
<title>:ui:common&#45;&gt;:shared:domain</title>
<path fill="none" stroke="black" stroke-dasharray="1,5" d="M305.29,-504C224.1,-504 95,-504 95,-504 95,-504 95,-424.32 95,-424.32"/>
<polygon fill="black" stroke="black" points="98.5,-424.32 95,-414.32 91.5,-424.32 98.5,-424.32"/>
</g>
<!-- :shared:feature:settings -->
<g id="node8" class="node">
<title>:shared:feature:settings</title>
<ellipse fill="#b59aff" stroke="black" cx="369.69" cy="-450" rx="122.38" ry="18"/>
<text text-anchor="middle" x="369.69" y="-446.3" font-family="Times,serif" font-size="14.00">:shared:feature:settings</text>
</g>
<!-- :shared:feature:settings&#45;&gt;:shared:domain -->
<g id="edge7" class="edge">
<title>:shared:feature:settings&#45;&gt;:shared:domain</title>
<path fill="none" stroke="black" stroke-dasharray="1,5" d="M247.16,-450C180.3,-450 111,-450 111,-450 111,-450 111,-424.28 111,-424.28"/>
<polygon fill="black" stroke="black" points="114.5,-424.28 111,-414.28 107.5,-424.28 114.5,-424.28"/>
</g>
<!-- :shared:feature:images -->
<g id="node9" class="node">
<title>:shared:feature:images</title>
<ellipse fill="#b59aff" stroke="black" cx="369.69" cy="-396" rx="118.08" ry="18"/>
<text text-anchor="middle" x="369.69" y="-392.3" font-family="Times,serif" font-size="14.00">:shared:feature:images</text>
</g>
<!-- :shared:feature:images&#45;&gt;:shared:domain -->
<g id="edge8" class="edge">
<title>:shared:feature:images&#45;&gt;:shared:domain</title>
<path fill="none" stroke="black" stroke-dasharray="1,5" d="M266.88,-405C266.88,-405 137.23,-405 137.23,-405"/>
<polygon fill="black" stroke="black" points="137.23,-401.5 127.23,-405 137.23,-408.5 137.23,-401.5"/>
</g>
<!-- :shared:feature:search -->
<g id="node10" class="node">
<title>:shared:feature:search</title>
<ellipse fill="#b59aff" stroke="black" cx="369.69" cy="-342" rx="115.88" ry="18"/>
<text text-anchor="middle" x="369.69" y="-338.3" font-family="Times,serif" font-size="14.00">:shared:feature:search</text>
</g>
<!-- :shared:feature:search&#45;&gt;:shared:domain -->
<g id="edge9" class="edge">
<title>:shared:feature:search&#45;&gt;:shared:domain</title>
<path fill="none" stroke="black" stroke-dasharray="1,5" d="M253.98,-342C182.75,-342 105,-342 105,-342 105,-342 105,-367.72 105,-367.72"/>
<polygon fill="black" stroke="black" points="101.5,-367.72 105,-377.72 108.5,-367.72 101.5,-367.72"/>
</g>
<!-- :shared:feature:collections -->
<g id="node11" class="node">
<title>:shared:feature:collections</title>
<ellipse fill="#b59aff" stroke="black" cx="369.69" cy="-288" rx="133.78" ry="18"/>
<text text-anchor="middle" x="369.69" y="-284.3" font-family="Times,serif" font-size="14.00">:shared:feature:collections</text>
</g>
<!-- :shared:feature:collections&#45;&gt;:shared:domain -->
<g id="edge10" class="edge">
<title>:shared:feature:collections&#45;&gt;:shared:domain</title>
<path fill="none" stroke="black" stroke-dasharray="1,5" d="M241,-293.21C241,-314.78 241,-396 241,-396 241,-396 137.08,-396 137.08,-396"/>
<polygon fill="black" stroke="black" points="137.08,-392.5 127.08,-396 137.08,-399.5 137.08,-392.5"/>
</g>
<!-- :shared:feature:stats -->
<g id="node12" class="node">
<title>:shared:feature:stats</title>
<ellipse fill="#b59aff" stroke="black" cx="369.69" cy="-234" rx="107.78" ry="18"/>
<text text-anchor="middle" x="369.69" y="-230.3" font-family="Times,serif" font-size="14.00">:shared:feature:stats</text>
</g>
<!-- :shared:feature:stats&#45;&gt;:shared:domain -->
<g id="edge11" class="edge">
<title>:shared:feature:stats&#45;&gt;:shared:domain</title>
<path fill="none" stroke="black" stroke-dasharray="1,5" d="M261.68,-234C180.78,-234 84,-234 84,-234 84,-234 84,-367.73 84,-367.73"/>
<polygon fill="black" stroke="black" points="80.5,-367.73 84,-377.73 87.5,-367.73 80.5,-367.73"/>
</g>
<!-- :shared:feature:details -->
<g id="node13" class="node">
<title>:shared:feature:details</title>
<ellipse fill="#b59aff" stroke="black" cx="369.69" cy="-180" rx="116.18" ry="18"/>
<text text-anchor="middle" x="369.69" y="-176.3" font-family="Times,serif" font-size="14.00">:shared:feature:details</text>
</g>
<!-- :shared:feature:details&#45;&gt;:shared:domain -->
<g id="edge12" class="edge">
<title>:shared:feature:details&#45;&gt;:shared:domain</title>
<path fill="none" stroke="black" stroke-dasharray="1,5" d="M253.3,-180C166.55,-180 63,-180 63,-180 63,-180 63,-367.96 63,-367.96"/>
<polygon fill="black" stroke="black" points="59.5,-367.96 63,-377.96 66.5,-367.96 59.5,-367.96"/>
</g>
<!-- :shared:feature:history -->
<g id="node14" class="node">
<title>:shared:feature:history</title>
<ellipse fill="#b59aff" stroke="black" cx="369.69" cy="-126" rx="117.78" ry="18"/>
<text text-anchor="middle" x="369.69" y="-122.3" font-family="Times,serif" font-size="14.00">:shared:feature:history</text>
</g>
<!-- :shared:feature:history&#45;&gt;:shared:domain -->
<g id="edge13" class="edge">
<title>:shared:feature:history&#45;&gt;:shared:domain</title>
<path fill="none" stroke="black" stroke-dasharray="1,5" d="M251.85,-126C157.9,-126 42,-126 42,-126 42,-126 42,-367.87 42,-367.87"/>
<polygon fill="black" stroke="black" points="38.5,-367.87 42,-377.87 45.5,-367.87 38.5,-367.87"/>
</g>
<!-- :android:feature:nowplaying -->
<g id="node15" class="node">
<title>:android:feature:nowplaying</title>
<ellipse fill="#9affb5" stroke="black" cx="369.69" cy="-72" rx="141.88" ry="18"/>
<text text-anchor="middle" x="369.69" y="-68.3" font-family="Times,serif" font-size="14.00">:android:feature:nowplaying</text>
</g>
<!-- :android:feature:nowplaying&#45;&gt;:shared:domain -->
<g id="edge14" class="edge">
<title>:android:feature:nowplaying&#45;&gt;:shared:domain</title>
<path fill="none" stroke="black" stroke-dasharray="1,5" d="M231,-75.98C231,-112.45 231,-387 231,-387 231,-387 137.3,-387 137.3,-387"/>
<polygon fill="black" stroke="black" points="137.3,-383.5 127.3,-387 137.3,-390.5 137.3,-383.5"/>
</g>
<!-- :android:feature:spotify -->
<g id="node16" class="node">
<title>:android:feature:spotify</title>
<ellipse fill="#9affb5" stroke="black" cx="369.69" cy="-18" rx="120.48" ry="18"/>
<text text-anchor="middle" x="369.69" y="-14.3" font-family="Times,serif" font-size="14.00">:android:feature:spotify</text>
</g>
<!-- :android:feature:spotify&#45;&gt;:shared:domain -->
<g id="edge15" class="edge">
<title>:android:feature:spotify&#45;&gt;:shared:domain</title>
<path fill="none" stroke="black" stroke-dasharray="1,5" d="M249.2,-18C148.41,-18 21,-18 21,-18 21,-18 21,-367.77 21,-367.77"/>
<polygon fill="black" stroke="black" points="17.5,-367.77 21,-377.77 24.5,-367.77 17.5,-367.77"/>
</g>
</g>
</svg>
