<?xml version="1.0" encoding="UTF-8" standalone="no"?>
<!DOCTYPE svg PUBLIC "-//W3C//DTD SVG 1.1//EN"
 "http://www.w3.org/Graphics/SVG/1.1/DTD/svg11.dtd">
<!-- Generated by graphviz version 2.43.0 (0)
 -->
<!-- Title: %3 Pages: 1 -->
<svg width="512pt" height="1414pt"
 viewBox="0.00 0.00 511.58 1414.00" xmlns="http://www.w3.org/2000/svg" xmlns:xlink="http://www.w3.org/1999/xlink">
<g id="graph0" class="graph" transform="scale(1 1) rotate(0) translate(4 1410)">
<title>%3</title>
<polygon fill="white" stroke="transparent" points="-4,4 -4,-1410 507.58,-1410 507.58,4 -4,4"/>
<text text-anchor="middle" x="251.79" y="-1378" font-family="Times,serif" font-size="30.00">Dependents</text>
<text text-anchor="middle" x="251.79" y="-1345" font-family="Times,serif" font-size="30.00"> </text>
<!-- :shared:domain -->
<g id="node1" class="node">
<title>:shared:domain</title>
<polygon fill="#b59aff" stroke="black" points="127,-684 0,-684 0,-648 127,-648 127,-684"/>
<text text-anchor="middle" x="63.5" y="-662.3" font-family="Times,serif" font-size="14.00">:shared:domain</text>
</g>
<!-- :shared -->
<g id="node2" class="node">
<title>:shared</title>
<ellipse fill="#b59aff" stroke="black" cx="365.79" cy="-1314" rx="45.49" ry="18"/>
<text text-anchor="middle" x="365.79" y="-1310.3" font-family="Times,serif" font-size="14.00">:shared</text>
</g>
<!-- :shared&#45;&gt;:shared:domain -->
<g id="edge1" class="edge">
<title>:shared&#45;&gt;:shared:domain</title>
<path fill="none" stroke="black" stroke-dasharray="1,5" d="M320.24,-1314C224.05,-1314 9,-1314 9,-1314 9,-1314 9,-694.01 9,-694.01"/>
<polygon fill="black" stroke="black" points="12.5,-694.01 9,-684.01 5.5,-694.01 12.5,-694.01"/>
</g>
<!-- :test&#45;data -->
<g id="node3" class="node">
<title>:test&#45;data</title>
<ellipse fill="#b59aff" stroke="black" cx="365.79" cy="-1260" rx="55.49" ry="18"/>
<text text-anchor="middle" x="365.79" y="-1256.3" font-family="Times,serif" font-size="14.00">:test&#45;data</text>
</g>
<!-- :test&#45;data&#45;&gt;:shared:domain -->
<g id="edge2" class="edge">
<title>:test&#45;data&#45;&gt;:shared:domain</title>
<path fill="none" stroke="black" stroke-dasharray="1,5" d="M310.45,-1260C212.55,-1260 19,-1260 19,-1260 19,-1260 19,-694.1 19,-694.1"/>
<polygon fill="black" stroke="black" points="22.5,-694.1 19,-684.1 15.5,-694.1 22.5,-694.1"/>
</g>
<!-- :core:preferences -->
<g id="node4" class="node">
<title>:core:preferences</title>
<ellipse fill="#b59aff" stroke="black" cx="365.79" cy="-1206" rx="91.78" ry="18"/>
<text text-anchor="middle" x="365.79" y="-1202.3" font-family="Times,serif" font-size="14.00">:core:preferences</text>
</g>
<!-- :core:preferences&#45;&gt;:shared:domain -->
<g id="edge3" class="edge">
<title>:core:preferences&#45;&gt;:shared:domain</title>
<path fill="none" stroke="black" stroke-dasharray="1,5" d="M273.76,-1206C174.04,-1206 29,-1206 29,-1206 29,-1206 29,-694.28 29,-694.28"/>
<polygon fill="black" stroke="black" points="32.5,-694.28 29,-684.28 25.5,-694.28 32.5,-694.28"/>
</g>
<!-- :data:database -->
<g id="node5" class="node">
<title>:data:database</title>
<ellipse fill="#b59aff" stroke="black" cx="365.79" cy="-1152" rx="79.09" ry="18"/>
<text text-anchor="middle" x="365.79" y="-1148.3" font-family="Times,serif" font-size="14.00">:data:database</text>
</g>
<!-- :data:database&#45;&gt;:shared:domain -->
<g id="edge4" class="edge">
<title>:data:database&#45;&gt;:shared:domain</title>
<path fill="none" stroke="black" stroke-dasharray="1,5" d="M286.26,-1152C189.53,-1152 39,-1152 39,-1152 39,-1152 39,-694.16 39,-694.16"/>
<polygon fill="black" stroke="black" points="42.5,-694.16 39,-684.16 35.5,-694.16 42.5,-694.16"/>
</g>
<!-- :data:coverart -->
<g id="node6" class="node">
<title>:data:coverart</title>
<ellipse fill="#b59aff" stroke="black" cx="365.79" cy="-1098" rx="76.09" ry="18"/>
<text text-anchor="middle" x="365.79" y="-1094.3" font-family="Times,serif" font-size="14.00">:data:coverart</text>
</g>
<!-- :data:coverart&#45;&gt;:shared:domain -->
<g id="edge5" class="edge">
<title>:data:coverart&#45;&gt;:shared:domain</title>
<path fill="none" stroke="black" stroke-dasharray="1,5" d="M289.67,-1098C195.65,-1098 48,-1098 48,-1098 48,-1098 48,-694.01 48,-694.01"/>
<polygon fill="black" stroke="black" points="51.5,-694.01 48,-684.01 44.5,-694.01 51.5,-694.01"/>
</g>
<!-- :data:wikimedia -->
<g id="node7" class="node">
<title>:data:wikimedia</title>
<ellipse fill="#b59aff" stroke="black" cx="365.79" cy="-1044" rx="84.49" ry="18"/>
<text text-anchor="middle" x="365.79" y="-1040.3" font-family="Times,serif" font-size="14.00">:data:wikimedia</text>
</g>
<!-- :data:wikimedia&#45;&gt;:shared:domain -->
<g id="edge6" class="edge">
<title>:data:wikimedia&#45;&gt;:shared:domain</title>
<path fill="none" stroke="black" stroke-dasharray="1,5" d="M281.28,-1044C190.16,-1044 58,-1044 58,-1044 58,-1044 58,-694.23 58,-694.23"/>
<polygon fill="black" stroke="black" points="61.5,-694.23 58,-684.23 54.5,-694.23 61.5,-694.23"/>
</g>
<!-- :data:spotify -->
<g id="node8" class="node">
<title>:data:spotify</title>
<ellipse fill="#b59aff" stroke="black" cx="365.79" cy="-990" rx="68.79" ry="18"/>
<text text-anchor="middle" x="365.79" y="-986.3" font-family="Times,serif" font-size="14.00">:data:spotify</text>
</g>
<!-- :data:spotify&#45;&gt;:shared:domain -->
<g id="edge7" class="edge">
<title>:data:spotify&#45;&gt;:shared:domain</title>
<path fill="none" stroke="black" stroke-dasharray="1,5" d="M296.72,-990C208.75,-990 68,-990 68,-990 68,-990 68,-694.35 68,-694.35"/>
<polygon fill="black" stroke="black" points="71.5,-694.35 68,-684.35 64.5,-694.35 71.5,-694.35"/>
</g>
<!-- :data:listenbrainz -->
<g id="node9" class="node">
<title>:data:listenbrainz</title>
<ellipse fill="#b59aff" stroke="black" cx="365.79" cy="-936" rx="92.08" ry="18"/>
<text text-anchor="middle" x="365.79" y="-932.3" font-family="Times,serif" font-size="14.00">:data:listenbrainz</text>
</g>
<!-- :data:listenbrainz&#45;&gt;:shared:domain -->
<g id="edge8" class="edge">
<title>:data:listenbrainz&#45;&gt;:shared:domain</title>
<path fill="none" stroke="black" stroke-dasharray="1,5" d="M273.15,-936C189.02,-936 78,-936 78,-936 78,-936 78,-694.13 78,-694.13"/>
<polygon fill="black" stroke="black" points="81.5,-694.13 78,-684.13 74.5,-694.13 81.5,-694.13"/>
</g>
<!-- :data:musicbrainz -->
<g id="node10" class="node">
<title>:data:musicbrainz</title>
<ellipse fill="#b59aff" stroke="black" cx="365.79" cy="-882" rx="93.68" ry="18"/>
<text text-anchor="middle" x="365.79" y="-878.3" font-family="Times,serif" font-size="14.00">:data:musicbrainz</text>
</g>
<!-- :data:musicbrainz&#45;&gt;:shared:domain -->
<g id="edge9" class="edge">
<title>:data:musicbrainz&#45;&gt;:shared:domain</title>
<path fill="none" stroke="black" stroke-dasharray="1,5" d="M272.18,-882C191.19,-882 87,-882 87,-882 87,-882 87,-694.04 87,-694.04"/>
<polygon fill="black" stroke="black" points="90.5,-694.04 87,-684.04 83.5,-694.04 90.5,-694.04"/>
</g>
<!-- :data:repository -->
<g id="node11" class="node">
<title>:data:repository</title>
<ellipse fill="#b59aff" stroke="black" cx="365.79" cy="-828" rx="85.29" ry="18"/>
<text text-anchor="middle" x="365.79" y="-824.3" font-family="Times,serif" font-size="14.00">:data:repository</text>
</g>
<!-- :data:repository&#45;&gt;:shared:domain -->
<g id="edge10" class="edge">
<title>:data:repository&#45;&gt;:shared:domain</title>
<path fill="none" stroke="black" stroke-dasharray="1,5" d="M280.37,-828C201.67,-828 97,-828 97,-828 97,-828 97,-694.27 97,-694.27"/>
<polygon fill="black" stroke="black" points="100.5,-694.27 97,-684.27 93.5,-694.27 100.5,-694.27"/>
</g>
<!-- :ui:common -->
<g id="node12" class="node">
<title>:ui:common</title>
<ellipse fill="#b59aff" stroke="black" cx="365.79" cy="-774" rx="64.19" ry="18"/>
<text text-anchor="middle" x="365.79" y="-770.3" font-family="Times,serif" font-size="14.00">:ui:common</text>
</g>
<!-- :ui:common&#45;&gt;:shared:domain -->
<g id="edge11" class="edge">
<title>:ui:common&#45;&gt;:shared:domain</title>
<path fill="none" stroke="black" d="M301.15,-774C224.5,-774 107,-774 107,-774 107,-774 107,-694.32 107,-694.32"/>
<polygon fill="black" stroke="black" points="110.5,-694.32 107,-684.32 103.5,-694.32 110.5,-694.32"/>
</g>
<!-- :android:app -->
<g id="node13" class="node">
<title>:android:app</title>
<ellipse fill="#9affb5" stroke="black" cx="365.79" cy="-720" rx="69.59" ry="18"/>
<text text-anchor="middle" x="365.79" y="-716.3" font-family="Times,serif" font-size="14.00">:android:app</text>
</g>
<!-- :android:app&#45;&gt;:shared:domain -->
<g id="edge12" class="edge">
<title>:android:app&#45;&gt;:shared:domain</title>
<path fill="none" stroke="black" stroke-dasharray="1,5" d="M296.16,-720C222.56,-720 117,-720 117,-720 117,-720 117,-694.28 117,-694.28"/>
<polygon fill="black" stroke="black" points="120.5,-694.28 117,-684.28 113.5,-694.28 120.5,-694.28"/>
</g>
<!-- :shared:feature:settings -->
<g id="node14" class="node">
<title>:shared:feature:settings</title>
<ellipse fill="#b59aff" stroke="black" cx="365.79" cy="-666" rx="122.38" ry="18"/>
<text text-anchor="middle" x="365.79" y="-662.3" font-family="Times,serif" font-size="14.00">:shared:feature:settings</text>
</g>
<!-- :shared:feature:settings&#45;&gt;:shared:domain -->
<g id="edge13" class="edge">
<title>:shared:feature:settings&#45;&gt;:shared:domain</title>
<path fill="none" stroke="black" stroke-dasharray="1,5" d="M250.21,-672C250.21,-672 137.4,-672 137.4,-672"/>
<polygon fill="black" stroke="black" points="137.4,-668.5 127.4,-672 137.4,-675.5 137.4,-668.5"/>
</g>
<!-- :shared:feature:images -->
<g id="node15" class="node">
<title>:shared:feature:images</title>
<ellipse fill="#b59aff" stroke="black" cx="365.79" cy="-612" rx="118.08" ry="18"/>
<text text-anchor="middle" x="365.79" y="-608.3" font-family="Times,serif" font-size="14.00">:shared:feature:images</text>
</g>
<!-- :shared:feature:images&#45;&gt;:shared:domain -->
<g id="edge14" class="edge">
<title>:shared:feature:images&#45;&gt;:shared:domain</title>
<path fill="none" stroke="black" stroke-dasharray="1,5" d="M247.48,-612C182.91,-612 116,-612 116,-612 116,-612 116,-637.72 116,-637.72"/>
<polygon fill="black" stroke="black" points="112.5,-637.72 116,-647.72 119.5,-637.72 112.5,-637.72"/>
</g>
<!-- :shared:feature:nowplaying -->
<g id="node16" class="node">
<title>:shared:feature:nowplaying</title>
<ellipse fill="#b59aff" stroke="black" cx="365.79" cy="-558" rx="137.58" ry="18"/>
<text text-anchor="middle" x="365.79" y="-554.3" font-family="Times,serif" font-size="14.00">:shared:feature:nowplaying</text>
</g>
<!-- :shared:feature:nowplaying&#45;&gt;:shared:domain -->
<g id="edge15" class="edge">
<title>:shared:feature:nowplaying&#45;&gt;:shared:domain</title>
<path fill="none" stroke="black" stroke-dasharray="1,5" d="M235,-563.78C235,-585.35 235,-660 235,-660 235,-660 137.36,-660 137.36,-660"/>
<polygon fill="black" stroke="black" points="137.36,-656.5 127.36,-660 137.36,-663.5 137.36,-656.5"/>
</g>
<!-- :shared:feature:spotify -->
<g id="node17" class="node">
<title>:shared:feature:spotify</title>
<ellipse fill="#b59aff" stroke="black" cx="365.79" cy="-504" rx="116.18" ry="18"/>
<text text-anchor="middle" x="365.79" y="-500.3" font-family="Times,serif" font-size="14.00">:shared:feature:spotify</text>
</g>
<!-- :shared:feature:spotify&#45;&gt;:shared:domain -->
<g id="edge16" class="edge">
<title>:shared:feature:spotify&#45;&gt;:shared:domain</title>
<path fill="none" stroke="black" stroke-dasharray="1,5" d="M249.12,-504C179.69,-504 105,-504 105,-504 105,-504 105,-637.73 105,-637.73"/>
<polygon fill="black" stroke="black" points="101.5,-637.73 105,-647.73 108.5,-637.73 101.5,-637.73"/>
</g>
<!-- :shared:feature:history -->
<g id="node18" class="node">
<title>:shared:feature:history</title>
<ellipse fill="#b59aff" stroke="black" cx="365.79" cy="-450" rx="117.78" ry="18"/>
<text text-anchor="middle" x="365.79" y="-446.3" font-family="Times,serif" font-size="14.00">:shared:feature:history</text>
</g>
<!-- :shared:feature:history&#45;&gt;:shared:domain -->
<g id="edge17" class="edge">
<title>:shared:feature:history&#45;&gt;:shared:domain</title>
<path fill="none" stroke="black" stroke-dasharray="1,5" d="M247.8,-450C174.83,-450 95,-450 95,-450 95,-450 95,-637.96 95,-637.96"/>
<polygon fill="black" stroke="black" points="91.5,-637.96 95,-647.96 98.5,-637.96 91.5,-637.96"/>
</g>
<!-- :shared:feature:graph -->
<g id="node19" class="node">
<title>:shared:feature:graph</title>
<ellipse fill="#b59aff" stroke="black" cx="365.79" cy="-396" rx="112.38" ry="18"/>
<text text-anchor="middle" x="365.79" y="-392.3" font-family="Times,serif" font-size="14.00">:shared:feature:graph</text>
</g>
<!-- :shared:feature:graph&#45;&gt;:shared:domain -->
<g id="edge18" class="edge">
<title>:shared:feature:graph&#45;&gt;:shared:domain</title>
<path fill="none" stroke="black" stroke-dasharray="1,5" d="M253.2,-396C174.71,-396 84,-396 84,-396 84,-396 84,-637.87 84,-637.87"/>
<polygon fill="black" stroke="black" points="80.5,-637.87 84,-647.87 87.5,-637.87 80.5,-637.87"/>
</g>
<!-- :shared:feature:database -->
<g id="node20" class="node">
<title>:shared:feature:database</title>
<ellipse fill="#b59aff" stroke="black" cx="365.79" cy="-342" rx="126.98" ry="18"/>
<text text-anchor="middle" x="365.79" y="-338.3" font-family="Times,serif" font-size="14.00">:shared:feature:database</text>
</g>
<!-- :shared:feature:database&#45;&gt;:shared:domain -->
<g id="edge19" class="edge">
<title>:shared:feature:database&#45;&gt;:shared:domain</title>
<path fill="none" stroke="black" stroke-dasharray="1,5" d="M238.65,-342C160.02,-342 74,-342 74,-342 74,-342 74,-637.65 74,-637.65"/>
<polygon fill="black" stroke="black" points="70.5,-637.65 74,-647.65 77.5,-637.65 70.5,-637.65"/>
</g>
<!-- :shared:feature:search -->
<g id="node21" class="node">
<title>:shared:feature:search</title>
<ellipse fill="#b59aff" stroke="black" cx="365.79" cy="-288" rx="115.88" ry="18"/>
<text text-anchor="middle" x="365.79" y="-284.3" font-family="Times,serif" font-size="14.00">:shared:feature:search</text>
</g>
<!-- :shared:feature:search&#45;&gt;:shared:domain -->
<g id="edge20" class="edge">
<title>:shared:feature:search&#45;&gt;:shared:domain</title>
<path fill="none" stroke="black" stroke-dasharray="1,5" d="M250.02,-288C164.54,-288 63,-288 63,-288 63,-288 63,-637.77 63,-637.77"/>
<polygon fill="black" stroke="black" points="59.5,-637.77 63,-647.77 66.5,-637.77 59.5,-637.77"/>
</g>
<!-- :shared:feature:listens -->
<g id="node22" class="node">
<title>:shared:feature:listens</title>
<ellipse fill="#b59aff" stroke="black" cx="365.79" cy="-234" rx="115.88" ry="18"/>
<text text-anchor="middle" x="365.79" y="-230.3" font-family="Times,serif" font-size="14.00">:shared:feature:listens</text>
</g>
<!-- :shared:feature:listens&#45;&gt;:shared:domain -->
<g id="edge21" class="edge">
<title>:shared:feature:listens&#45;&gt;:shared:domain</title>
<path fill="none" stroke="black" stroke-dasharray="1,5" d="M249.84,-234C160.45,-234 52,-234 52,-234 52,-234 52,-637.99 52,-637.99"/>
<polygon fill="black" stroke="black" points="48.5,-637.99 52,-647.99 55.5,-637.99 48.5,-637.99"/>
</g>
<!-- :shared:feature:collections -->
<g id="node23" class="node">
<title>:shared:feature:collections</title>
<ellipse fill="#b59aff" stroke="black" cx="365.79" cy="-180" rx="133.78" ry="18"/>
<text text-anchor="middle" x="365.79" y="-176.3" font-family="Times,serif" font-size="14.00">:shared:feature:collections</text>
</g>
<!-- :shared:feature:collections&#45;&gt;:shared:domain -->
<g id="edge22" class="edge">
<title>:shared:feature:collections&#45;&gt;:shared:domain</title>
<path fill="none" stroke="black" stroke-dasharray="1,5" d="M231.75,-180C142.68,-180 42,-180 42,-180 42,-180 42,-637.84 42,-637.84"/>
<polygon fill="black" stroke="black" points="38.5,-637.84 42,-647.84 45.5,-637.84 38.5,-637.84"/>
</g>
<!-- :shared:feature:stats -->
<g id="node24" class="node">
<title>:shared:feature:stats</title>
<ellipse fill="#b59aff" stroke="black" cx="365.79" cy="-126" rx="107.78" ry="18"/>
<text text-anchor="middle" x="365.79" y="-122.3" font-family="Times,serif" font-size="14.00">:shared:feature:stats</text>
</g>
<!-- :shared:feature:stats&#45;&gt;:shared:domain -->
<g id="edge23" class="edge">
<title>:shared:feature:stats&#45;&gt;:shared:domain</title>
<path fill="none" stroke="black" stroke-dasharray="1,5" d="M257.55,-126C159.74,-126 31,-126 31,-126 31,-126 31,-637.72 31,-637.72"/>
<polygon fill="black" stroke="black" points="27.5,-637.72 31,-647.72 34.5,-637.72 27.5,-637.72"/>
</g>
<!-- :shared:feature:details -->
<g id="node25" class="node">
<title>:shared:feature:details</title>
<ellipse fill="#b59aff" stroke="black" cx="365.79" cy="-72" rx="116.18" ry="18"/>
<text text-anchor="middle" x="365.79" y="-68.3" font-family="Times,serif" font-size="14.00">:shared:feature:details</text>
</g>
<!-- :shared:feature:details&#45;&gt;:shared:domain -->
<g id="edge24" class="edge">
<title>:shared:feature:details&#45;&gt;:shared:domain</title>
<path fill="none" stroke="black" stroke-dasharray="1,5" d="M249.06,-72C149.03,-72 21,-72 21,-72 21,-72 21,-637.9 21,-637.9"/>
<polygon fill="black" stroke="black" points="17.5,-637.9 21,-647.9 24.5,-637.9 17.5,-637.9"/>
</g>
<!-- :data:common:network -->
<g id="node26" class="node">
<title>:data:common:network</title>
<ellipse fill="#b59aff" stroke="black" cx="365.79" cy="-18" rx="116.98" ry="18"/>
<text text-anchor="middle" x="365.79" y="-14.3" font-family="Times,serif" font-size="14.00">:data:common:network</text>
</g>
<!-- :data:common:network&#45;&gt;:shared:domain -->
<g id="edge25" class="edge">
<title>:data:common:network&#45;&gt;:shared:domain</title>
<path fill="none" stroke="black" stroke-dasharray="1,5" d="M248.8,-18C145.1,-18 10,-18 10,-18 10,-18 10,-637.99 10,-637.99"/>
<polygon fill="black" stroke="black" points="6.5,-637.99 10,-647.99 13.5,-637.99 6.5,-637.99"/>
</g>
</g>
</svg>
