<?xml version="1.0" encoding="UTF-8" standalone="no"?>
<!DOCTYPE svg PUBLIC "-//W3C//DTD SVG 1.1//EN"
 "http://www.w3.org/Graphics/SVG/1.1/DTD/svg11.dtd">
<!-- Generated by graphviz version 2.43.0 (0)
 -->
<!-- Title: %3 Pages: 1 -->
<svg width="466pt" height="766pt"
 viewBox="0.00 0.00 466.37 766.00" xmlns="http://www.w3.org/2000/svg" xmlns:xlink="http://www.w3.org/1999/xlink">
<g id="graph0" class="graph" transform="scale(1 1) rotate(0) translate(4 762)">
<title>%3</title>
<polygon fill="white" stroke="transparent" points="-4,4 -4,-762 462.37,-762 462.37,4 -4,4"/>
<text text-anchor="middle" x="229.19" y="-730" font-family="Times,serif" font-size="30.00">Dependents</text>
<text text-anchor="middle" x="229.19" y="-697" font-family="Times,serif" font-size="30.00"> </text>
<!-- :domain -->
<g id="node1" class="node">
<title>:domain</title>
<polygon fill="#b59aff" stroke="black" points="74,-360 0,-360 0,-324 74,-324 74,-360"/>
<text text-anchor="middle" x="37" y="-338.3" font-family="Times,serif" font-size="14.00">:domain</text>
</g>
<!-- :shared -->
<g id="node2" class="node">
<title>:shared</title>
<ellipse fill="#b59aff" stroke="black" cx="316.69" cy="-666" rx="45.49" ry="18"/>
<text text-anchor="middle" x="316.69" y="-662.3" font-family="Times,serif" font-size="14.00">:shared</text>
</g>
<!-- :shared&#45;&gt;:domain -->
<g id="edge1" class="edge">
<title>:shared&#45;&gt;:domain</title>
<path fill="none" stroke="black" stroke-dasharray="1,5" d="M271.1,-666C185.67,-666 10,-666 10,-666 10,-666 10,-370.35 10,-370.35"/>
<polygon fill="black" stroke="black" points="13.5,-370.35 10,-360.35 6.5,-370.35 13.5,-370.35"/>
</g>
<!-- :test&#45;data -->
<g id="node3" class="node">
<title>:test&#45;data</title>
<ellipse fill="#b59aff" stroke="black" cx="316.69" cy="-612" rx="55.49" ry="18"/>
<text text-anchor="middle" x="316.69" y="-608.3" font-family="Times,serif" font-size="14.00">:test&#45;data</text>
</g>
<!-- :test&#45;data&#45;&gt;:domain -->
<g id="edge2" class="edge">
<title>:test&#45;data&#45;&gt;:domain</title>
<path fill="none" stroke="black" stroke-dasharray="1,5" d="M261.42,-612C175.84,-612 21,-612 21,-612 21,-612 21,-370.13 21,-370.13"/>
<polygon fill="black" stroke="black" points="24.5,-370.13 21,-360.13 17.5,-370.13 24.5,-370.13"/>
</g>
<!-- :data:coverart -->
<g id="node4" class="node">
<title>:data:coverart</title>
<ellipse fill="#b59aff" stroke="black" cx="316.69" cy="-558" rx="76.09" ry="18"/>
<text text-anchor="middle" x="316.69" y="-554.3" font-family="Times,serif" font-size="14.00">:data:coverart</text>
</g>
<!-- :data:coverart&#45;&gt;:domain -->
<g id="edge3" class="edge">
<title>:data:coverart&#45;&gt;:domain</title>
<path fill="none" stroke="black" stroke-dasharray="1,5" d="M240.5,-558C155.87,-558 31,-558 31,-558 31,-558 31,-370.04 31,-370.04"/>
<polygon fill="black" stroke="black" points="34.5,-370.04 31,-360.04 27.5,-370.04 34.5,-370.04"/>
</g>
<!-- :data:repository -->
<g id="node5" class="node">
<title>:data:repository</title>
<ellipse fill="#b59aff" stroke="black" cx="316.69" cy="-504" rx="85.29" ry="18"/>
<text text-anchor="middle" x="316.69" y="-500.3" font-family="Times,serif" font-size="14.00">:data:repository</text>
</g>
<!-- :data:repository&#45;&gt;:domain -->
<g id="edge4" class="edge">
<title>:data:repository&#45;&gt;:domain</title>
<path fill="none" stroke="black" stroke-dasharray="1,5" d="M231.28,-504C150.65,-504 42,-504 42,-504 42,-504 42,-370.27 42,-370.27"/>
<polygon fill="black" stroke="black" points="45.5,-370.27 42,-360.27 38.5,-370.27 45.5,-370.27"/>
</g>
<!-- :ui:common -->
<g id="node6" class="node">
<title>:ui:common</title>
<ellipse fill="#b59aff" stroke="black" cx="316.69" cy="-450" rx="64.19" ry="18"/>
<text text-anchor="middle" x="316.69" y="-446.3" font-family="Times,serif" font-size="14.00">:ui:common</text>
</g>
<!-- :ui:common&#45;&gt;:domain -->
<g id="edge5" class="edge">
<title>:ui:common&#45;&gt;:domain</title>
<path fill="none" stroke="black" stroke-dasharray="1,5" d="M252.28,-450C173.93,-450 52,-450 52,-450 52,-450 52,-370.32 52,-370.32"/>
<polygon fill="black" stroke="black" points="55.5,-370.32 52,-360.32 48.5,-370.32 55.5,-370.32"/>
</g>
<!-- :shared:feature:settings -->
<g id="node7" class="node">
<title>:shared:feature:settings</title>
<ellipse fill="#b59aff" stroke="black" cx="316.69" cy="-396" rx="122.38" ry="18"/>
<text text-anchor="middle" x="316.69" y="-392.3" font-family="Times,serif" font-size="14.00">:shared:feature:settings</text>
</g>
<!-- :shared:feature:settings&#45;&gt;:domain -->
<g id="edge6" class="edge">
<title>:shared:feature:settings&#45;&gt;:domain</title>
<path fill="none" stroke="black" stroke-dasharray="1,5" d="M194.3,-396C129.43,-396 63,-396 63,-396 63,-396 63,-370.28 63,-370.28"/>
<polygon fill="black" stroke="black" points="66.5,-370.28 63,-360.28 59.5,-370.28 66.5,-370.28"/>
</g>
<!-- :shared:feature:search -->
<g id="node8" class="node">
<title>:shared:feature:search</title>
<ellipse fill="#b59aff" stroke="black" cx="316.69" cy="-342" rx="115.88" ry="18"/>
<text text-anchor="middle" x="316.69" y="-338.3" font-family="Times,serif" font-size="14.00">:shared:feature:search</text>
</g>
<!-- :shared:feature:search&#45;&gt;:domain -->
<g id="edge7" class="edge">
<title>:shared:feature:search&#45;&gt;:domain</title>
<path fill="none" stroke="black" stroke-dasharray="1,5" d="M216.11,-351C216.11,-351 84.23,-351 84.23,-351"/>
<polygon fill="black" stroke="black" points="84.23,-347.5 74.23,-351 84.23,-354.5 84.23,-347.5"/>
</g>
<!-- :shared:feature:collections -->
<g id="node9" class="node">
<title>:shared:feature:collections</title>
<ellipse fill="#b59aff" stroke="black" cx="316.69" cy="-288" rx="133.78" ry="18"/>
<text text-anchor="middle" x="316.69" y="-284.3" font-family="Times,serif" font-size="14.00">:shared:feature:collections</text>
</g>
<!-- :shared:feature:collections&#45;&gt;:domain -->
<g id="edge8" class="edge">
<title>:shared:feature:collections&#45;&gt;:domain</title>
<path fill="none" stroke="black" stroke-dasharray="1,5" d="M188,-292.98C188,-306.35 188,-342 188,-342 188,-342 84.33,-342 84.33,-342"/>
<polygon fill="black" stroke="black" points="84.33,-338.5 74.33,-342 84.33,-345.5 84.33,-338.5"/>
</g>
<!-- :shared:feature:stats -->
<g id="node10" class="node">
<title>:shared:feature:stats</title>
<ellipse fill="#b59aff" stroke="black" cx="316.69" cy="-234" rx="107.78" ry="18"/>
<text text-anchor="middle" x="316.69" y="-230.3" font-family="Times,serif" font-size="14.00">:shared:feature:stats</text>
</g>
<!-- :shared:feature:stats&#45;&gt;:domain -->
<g id="edge9" class="edge">
<title>:shared:feature:stats&#45;&gt;:domain</title>
<path fill="none" stroke="black" stroke-dasharray="1,5" d="M208.52,-234C138.01,-234 59,-234 59,-234 59,-234 59,-313.68 59,-313.68"/>
<polygon fill="black" stroke="black" points="55.5,-313.68 59,-323.68 62.5,-313.68 55.5,-313.68"/>
</g>
<!-- :shared:feature:details -->
<g id="node11" class="node">
<title>:shared:feature:details</title>
<ellipse fill="#b59aff" stroke="black" cx="316.69" cy="-180" rx="116.18" ry="18"/>
<text text-anchor="middle" x="316.69" y="-176.3" font-family="Times,serif" font-size="14.00">:shared:feature:details</text>
</g>
<!-- :shared:feature:details&#45;&gt;:domain -->
<g id="edge10" class="edge">
<title>:shared:feature:details&#45;&gt;:domain</title>
<path fill="none" stroke="black" stroke-dasharray="1,5" d="M200.25,-180C126.14,-180 44,-180 44,-180 44,-180 44,-313.73 44,-313.73"/>
<polygon fill="black" stroke="black" points="40.5,-313.73 44,-323.73 47.5,-313.73 40.5,-313.73"/>
</g>
<!-- :shared:feature:history -->
<g id="node12" class="node">
<title>:shared:feature:history</title>
<ellipse fill="#b59aff" stroke="black" cx="316.69" cy="-126" rx="117.78" ry="18"/>
<text text-anchor="middle" x="316.69" y="-122.3" font-family="Times,serif" font-size="14.00">:shared:feature:history</text>
</g>
<!-- :shared:feature:history&#45;&gt;:domain -->
<g id="edge11" class="edge">
<title>:shared:feature:history&#45;&gt;:domain</title>
<path fill="none" stroke="black" stroke-dasharray="1,5" d="M198.84,-126C119.4,-126 29,-126 29,-126 29,-126 29,-313.96 29,-313.96"/>
<polygon fill="black" stroke="black" points="25.5,-313.96 29,-323.96 32.5,-313.96 25.5,-313.96"/>
</g>
<!-- :android:feature:nowplaying -->
<g id="node13" class="node">
<title>:android:feature:nowplaying</title>
<ellipse fill="#9affb5" stroke="black" cx="316.69" cy="-72" rx="141.88" ry="18"/>
<text text-anchor="middle" x="316.69" y="-68.3" font-family="Times,serif" font-size="14.00">:android:feature:nowplaying</text>
</g>
<!-- :android:feature:nowplaying&#45;&gt;:domain -->
<g id="edge12" class="edge">
<title>:android:feature:nowplaying&#45;&gt;:domain</title>
<path fill="none" stroke="black" stroke-dasharray="1,5" d="M178,-75.69C178,-107.41 178,-333 178,-333 178,-333 84.05,-333 84.05,-333"/>
<polygon fill="black" stroke="black" points="84.05,-329.5 74.05,-333 84.05,-336.5 84.05,-329.5"/>
</g>
<!-- :android:feature:spotify -->
<g id="node14" class="node">
<title>:android:feature:spotify</title>
<ellipse fill="#9affb5" stroke="black" cx="316.69" cy="-18" rx="120.48" ry="18"/>
<text text-anchor="middle" x="316.69" y="-14.3" font-family="Times,serif" font-size="14.00">:android:feature:spotify</text>
</g>
<!-- :android:feature:spotify&#45;&gt;:domain -->
<g id="edge13" class="edge">
<title>:android:feature:spotify&#45;&gt;:domain</title>
<path fill="none" stroke="black" stroke-dasharray="1,5" d="M196.19,-18C111.78,-18 14,-18 14,-18 14,-18 14,-313.65 14,-313.65"/>
<polygon fill="black" stroke="black" points="10.5,-313.65 14,-323.65 17.5,-313.65 10.5,-313.65"/>
</g>
</g>
</svg>
