<?xml version="1.0" encoding="UTF-8" standalone="no"?>
<!DOCTYPE svg PUBLIC "-//W3C//DTD SVG 1.1//EN"
 "http://www.w3.org/Graphics/SVG/1.1/DTD/svg11.dtd">
<!-- Generated by graphviz version 2.43.0 (0)
 -->
<!-- Title: %3 Pages: 1 -->
<svg width="519pt" height="1252pt"
 viewBox="0.00 0.00 519.37 1252.00" xmlns="http://www.w3.org/2000/svg" xmlns:xlink="http://www.w3.org/1999/xlink">
<g id="graph0" class="graph" transform="scale(1 1) rotate(0) translate(4 1248)">
<title>%3</title>
<polygon fill="white" stroke="transparent" points="-4,4 -4,-1248 515.37,-1248 515.37,4 -4,4"/>
<text text-anchor="middle" x="255.69" y="-1216" font-family="Times,serif" font-size="30.00">Dependents</text>
<text text-anchor="middle" x="255.69" y="-1183" font-family="Times,serif" font-size="30.00"> </text>
<!-- :shared:domain -->
<g id="node1" class="node">
<title>:shared:domain</title>
<polygon fill="#b59aff" stroke="black" points="127,-603 0,-603 0,-567 127,-567 127,-603"/>
<text text-anchor="middle" x="63.5" y="-581.3" font-family="Times,serif" font-size="14.00">:shared:domain</text>
</g>
<!-- :shared -->
<g id="node2" class="node">
<title>:shared</title>
<ellipse fill="#b59aff" stroke="black" cx="369.69" cy="-1152" rx="45.49" ry="18"/>
<text text-anchor="middle" x="369.69" y="-1148.3" font-family="Times,serif" font-size="14.00">:shared</text>
</g>
<!-- :shared&#45;&gt;:shared:domain -->
<g id="edge1" class="edge">
<title>:shared&#45;&gt;:shared:domain</title>
<path fill="none" stroke="black" stroke-dasharray="1,5" d="M323.92,-1152C227.85,-1152 14,-1152 14,-1152 14,-1152 14,-613.22 14,-613.22"/>
<polygon fill="black" stroke="black" points="17.5,-613.22 14,-603.22 10.5,-613.22 17.5,-613.22"/>
</g>
<!-- :test&#45;data -->
<g id="node3" class="node">
<title>:test&#45;data</title>
<ellipse fill="#b59aff" stroke="black" cx="369.69" cy="-1098" rx="55.49" ry="18"/>
<text text-anchor="middle" x="369.69" y="-1094.3" font-family="Times,serif" font-size="14.00">:test&#45;data</text>
</g>
<!-- :test&#45;data&#45;&gt;:shared:domain -->
<g id="edge2" class="edge">
<title>:test&#45;data&#45;&gt;:shared:domain</title>
<path fill="none" stroke="black" stroke-dasharray="1,5" d="M314.41,-1098C217.7,-1098 28,-1098 28,-1098 28,-1098 28,-613.26 28,-613.26"/>
<polygon fill="black" stroke="black" points="31.5,-613.26 28,-603.26 24.5,-613.26 31.5,-613.26"/>
</g>
<!-- :core:preferences -->
<g id="node4" class="node">
<title>:core:preferences</title>
<ellipse fill="#b59aff" stroke="black" cx="369.69" cy="-1044" rx="91.78" ry="18"/>
<text text-anchor="middle" x="369.69" y="-1040.3" font-family="Times,serif" font-size="14.00">:core:preferences</text>
</g>
<!-- :core:preferences&#45;&gt;:shared:domain -->
<g id="edge3" class="edge">
<title>:core:preferences&#45;&gt;:shared:domain</title>
<path fill="none" stroke="black" stroke-dasharray="1,5" d="M277.97,-1044C181.03,-1044 42,-1044 42,-1044 42,-1044 42,-613.28 42,-613.28"/>
<polygon fill="black" stroke="black" points="45.5,-613.28 42,-603.28 38.5,-613.28 45.5,-613.28"/>
</g>
<!-- :data:database -->
<g id="node5" class="node">
<title>:data:database</title>
<ellipse fill="#b59aff" stroke="black" cx="369.69" cy="-990" rx="79.09" ry="18"/>
<text text-anchor="middle" x="369.69" y="-986.3" font-family="Times,serif" font-size="14.00">:data:database</text>
</g>
<!-- :data:database&#45;&gt;:shared:domain -->
<g id="edge4" class="edge">
<title>:data:database&#45;&gt;:shared:domain</title>
<path fill="none" stroke="black" stroke-dasharray="1,5" d="M290.13,-990C197.19,-990 56,-990 56,-990 56,-990 56,-613.19 56,-613.19"/>
<polygon fill="black" stroke="black" points="59.5,-613.19 56,-603.19 52.5,-613.19 59.5,-613.19"/>
</g>
<!-- :data:coverart -->
<g id="node6" class="node">
<title>:data:coverart</title>
<ellipse fill="#b59aff" stroke="black" cx="369.69" cy="-936" rx="76.09" ry="18"/>
<text text-anchor="middle" x="369.69" y="-932.3" font-family="Times,serif" font-size="14.00">:data:coverart</text>
</g>
<!-- :data:coverart&#45;&gt;:shared:domain -->
<g id="edge5" class="edge">
<title>:data:coverart&#45;&gt;:shared:domain</title>
<path fill="none" stroke="black" stroke-dasharray="1,5" d="M293.29,-936C204.5,-936 70,-936 70,-936 70,-936 70,-613.38 70,-613.38"/>
<polygon fill="black" stroke="black" points="73.5,-613.38 70,-603.38 66.5,-613.38 73.5,-613.38"/>
</g>
<!-- :data:wikimedia -->
<g id="node7" class="node">
<title>:data:wikimedia</title>
<ellipse fill="#b59aff" stroke="black" cx="369.69" cy="-882" rx="84.49" ry="18"/>
<text text-anchor="middle" x="369.69" y="-878.3" font-family="Times,serif" font-size="14.00">:data:wikimedia</text>
</g>
<!-- :data:wikimedia&#45;&gt;:shared:domain -->
<g id="edge6" class="edge">
<title>:data:wikimedia&#45;&gt;:shared:domain</title>
<path fill="none" stroke="black" stroke-dasharray="1,5" d="M285.13,-882C200.89,-882 84,-882 84,-882 84,-882 84,-613.13 84,-613.13"/>
<polygon fill="black" stroke="black" points="87.5,-613.13 84,-603.13 80.5,-613.13 87.5,-613.13"/>
</g>
<!-- :data:spotify -->
<g id="node8" class="node">
<title>:data:spotify</title>
<ellipse fill="#b59aff" stroke="black" cx="369.69" cy="-828" rx="68.79" ry="18"/>
<text text-anchor="middle" x="369.69" y="-824.3" font-family="Times,serif" font-size="14.00">:data:spotify</text>
</g>
<!-- :data:spotify&#45;&gt;:shared:domain -->
<g id="edge7" class="edge">
<title>:data:spotify&#45;&gt;:shared:domain</title>
<path fill="none" stroke="black" stroke-dasharray="1,5" d="M300.78,-828C220.29,-828 98,-828 98,-828 98,-828 98,-613.26 98,-613.26"/>
<polygon fill="black" stroke="black" points="101.5,-613.26 98,-603.26 94.5,-613.26 101.5,-613.26"/>
</g>
<!-- :data:musicbrainz -->
<g id="node9" class="node">
<title>:data:musicbrainz</title>
<ellipse fill="#b59aff" stroke="black" cx="369.69" cy="-774" rx="93.68" ry="18"/>
<text text-anchor="middle" x="369.69" y="-770.3" font-family="Times,serif" font-size="14.00">:data:musicbrainz</text>
</g>
<!-- :data:musicbrainz&#45;&gt;:shared:domain -->
<g id="edge8" class="edge">
<title>:data:musicbrainz&#45;&gt;:shared:domain</title>
<path fill="none" stroke="black" stroke-dasharray="1,5" d="M280,-768.62C280,-739.38 280,-600.75 280,-600.75 280,-600.75 137.29,-600.75 137.29,-600.75"/>
<polygon fill="black" stroke="black" points="137.29,-597.25 127.29,-600.75 137.29,-604.25 137.29,-597.25"/>
</g>
<!-- :data:repository -->
<g id="node10" class="node">
<title>:data:repository</title>
<ellipse fill="#b59aff" stroke="black" cx="369.69" cy="-720" rx="85.29" ry="18"/>
<text text-anchor="middle" x="369.69" y="-716.3" font-family="Times,serif" font-size="14.00">:data:repository</text>
</g>
<!-- :data:repository&#45;&gt;:shared:domain -->
<g id="edge9" class="edge">
<title>:data:repository&#45;&gt;:shared:domain</title>
<path fill="none" stroke="black" stroke-dasharray="1,5" d="M292,-712.4C292,-685.8 292,-598.5 292,-598.5 292,-598.5 137.15,-598.5 137.15,-598.5"/>
<polygon fill="black" stroke="black" points="137.15,-595 127.15,-598.5 137.15,-602 137.15,-595"/>
</g>
<!-- :ui:image -->
<g id="node11" class="node">
<title>:ui:image</title>
<ellipse fill="#b59aff" stroke="black" cx="369.69" cy="-666" rx="53.89" ry="18"/>
<text text-anchor="middle" x="369.69" y="-662.3" font-family="Times,serif" font-size="14.00">:ui:image</text>
</g>
<!-- :ui:image&#45;&gt;:shared:domain -->
<g id="edge10" class="edge">
<title>:ui:image&#45;&gt;:shared:domain</title>
<path fill="none" stroke="black" stroke-dasharray="1,5" d="M315.67,-666C240.11,-666 112,-666 112,-666 112,-666 112,-613.38 112,-613.38"/>
<polygon fill="black" stroke="black" points="115.5,-613.38 112,-603.38 108.5,-613.38 115.5,-613.38"/>
</g>
<!-- :ui:common -->
<g id="node12" class="node">
<title>:ui:common</title>
<ellipse fill="#b59aff" stroke="black" cx="369.69" cy="-612" rx="64.19" ry="18"/>
<text text-anchor="middle" x="369.69" y="-608.3" font-family="Times,serif" font-size="14.00">:ui:common</text>
</g>
<!-- :ui:common&#45;&gt;:shared:domain -->
<g id="edge11" class="edge">
<title>:ui:common&#45;&gt;:shared:domain</title>
<path fill="none" stroke="black" d="M338.36,-596.25C338.36,-596.25 137.19,-596.25 137.19,-596.25"/>
<polygon fill="black" stroke="black" points="137.19,-592.75 127.19,-596.25 137.19,-599.75 137.19,-592.75"/>
</g>
<!-- :android:app -->
<g id="node13" class="node">
<title>:android:app</title>
<ellipse fill="#9affb5" stroke="black" cx="369.69" cy="-558" rx="69.59" ry="18"/>
<text text-anchor="middle" x="369.69" y="-554.3" font-family="Times,serif" font-size="14.00">:android:app</text>
</g>
<!-- :android:app&#45;&gt;:shared:domain -->
<g id="edge12" class="edge">
<title>:android:app&#45;&gt;:shared:domain</title>
<path fill="none" stroke="black" stroke-dasharray="1,5" d="M335.75,-573.75C335.75,-573.75 137.14,-573.75 137.14,-573.75"/>
<polygon fill="black" stroke="black" points="137.14,-570.25 127.14,-573.75 137.14,-577.25 137.14,-570.25"/>
</g>
<!-- :shared:feature:settings -->
<g id="node14" class="node">
<title>:shared:feature:settings</title>
<ellipse fill="#b59aff" stroke="black" cx="369.69" cy="-504" rx="122.38" ry="18"/>
<text text-anchor="middle" x="369.69" y="-500.3" font-family="Times,serif" font-size="14.00">:shared:feature:settings</text>
</g>
<!-- :shared:feature:settings&#45;&gt;:shared:domain -->
<g id="edge13" class="edge">
<title>:shared:feature:settings&#45;&gt;:shared:domain</title>
<path fill="none" stroke="black" stroke-dasharray="1,5" d="M261,-512.28C261,-530.3 261,-571.5 261,-571.5 261,-571.5 137.08,-571.5 137.08,-571.5"/>
<polygon fill="black" stroke="black" points="137.08,-568 127.08,-571.5 137.08,-575 137.08,-568"/>
</g>
<!-- :shared:feature:images -->
<g id="node15" class="node">
<title>:shared:feature:images</title>
<ellipse fill="#b59aff" stroke="black" cx="369.69" cy="-450" rx="118.08" ry="18"/>
<text text-anchor="middle" x="369.69" y="-446.3" font-family="Times,serif" font-size="14.00">:shared:feature:images</text>
</g>
<!-- :shared:feature:images&#45;&gt;:shared:domain -->
<g id="edge14" class="edge">
<title>:shared:feature:images&#45;&gt;:shared:domain</title>
<path fill="none" stroke="black" stroke-dasharray="1,5" d="M251.32,-450C183.21,-450 111,-450 111,-450 111,-450 111,-556.79 111,-556.79"/>
<polygon fill="black" stroke="black" points="107.5,-556.79 111,-566.79 114.5,-556.79 107.5,-556.79"/>
</g>
<!-- :shared:feature:search -->
<g id="node16" class="node">
<title>:shared:feature:search</title>
<ellipse fill="#b59aff" stroke="black" cx="369.69" cy="-396" rx="115.88" ry="18"/>
<text text-anchor="middle" x="369.69" y="-392.3" font-family="Times,serif" font-size="14.00">:shared:feature:search</text>
</g>
<!-- :shared:feature:search&#45;&gt;:shared:domain -->
<g id="edge15" class="edge">
<title>:shared:feature:search&#45;&gt;:shared:domain</title>
<path fill="none" stroke="black" stroke-dasharray="1,5" d="M253.99,-396C178.92,-396 95,-396 95,-396 95,-396 95,-556.88 95,-556.88"/>
<polygon fill="black" stroke="black" points="91.5,-556.88 95,-566.88 98.5,-556.88 91.5,-556.88"/>
</g>
<!-- :shared:feature:collections -->
<g id="node17" class="node">
<title>:shared:feature:collections</title>
<ellipse fill="#b59aff" stroke="black" cx="369.69" cy="-342" rx="133.78" ry="18"/>
<text text-anchor="middle" x="369.69" y="-338.3" font-family="Times,serif" font-size="14.00">:shared:feature:collections</text>
</g>
<!-- :shared:feature:collections&#45;&gt;:shared:domain -->
<g id="edge16" class="edge">
<title>:shared:feature:collections&#45;&gt;:shared:domain</title>
<path fill="none" stroke="black" stroke-dasharray="1,5" d="M241,-347.17C241,-381 241,-569.25 241,-569.25 241,-569.25 137.08,-569.25 137.08,-569.25"/>
<polygon fill="black" stroke="black" points="137.08,-565.75 127.08,-569.25 137.08,-572.75 137.08,-565.75"/>
</g>
<!-- :shared:feature:stats -->
<g id="node18" class="node">
<title>:shared:feature:stats</title>
<ellipse fill="#b59aff" stroke="black" cx="369.69" cy="-288" rx="107.78" ry="18"/>
<text text-anchor="middle" x="369.69" y="-284.3" font-family="Times,serif" font-size="14.00">:shared:feature:stats</text>
</g>
<!-- :shared:feature:stats&#45;&gt;:shared:domain -->
<g id="edge17" class="edge">
<title>:shared:feature:stats&#45;&gt;:shared:domain</title>
<path fill="none" stroke="black" stroke-dasharray="1,5" d="M261.45,-288C178.8,-288 79,-288 79,-288 79,-288 79,-556.87 79,-556.87"/>
<polygon fill="black" stroke="black" points="75.5,-556.87 79,-566.87 82.5,-556.87 75.5,-556.87"/>
</g>
<!-- :shared:feature:details -->
<g id="node19" class="node">
<title>:shared:feature:details</title>
<ellipse fill="#b59aff" stroke="black" cx="369.69" cy="-234" rx="116.18" ry="18"/>
<text text-anchor="middle" x="369.69" y="-230.3" font-family="Times,serif" font-size="14.00">:shared:feature:details</text>
</g>
<!-- :shared:feature:details&#45;&gt;:shared:domain -->
<g id="edge18" class="edge">
<title>:shared:feature:details&#45;&gt;:shared:domain</title>
<path fill="none" stroke="black" stroke-dasharray="1,5" d="M253.3,-234C166.55,-234 63,-234 63,-234 63,-234 63,-556.62 63,-556.62"/>
<polygon fill="black" stroke="black" points="59.5,-556.62 63,-566.62 66.5,-556.62 59.5,-556.62"/>
</g>
<!-- :shared:feature:history -->
<g id="node20" class="node">
<title>:shared:feature:history</title>
<ellipse fill="#b59aff" stroke="black" cx="369.69" cy="-180" rx="117.78" ry="18"/>
<text text-anchor="middle" x="369.69" y="-176.3" font-family="Times,serif" font-size="14.00">:shared:feature:history</text>
</g>
<!-- :shared:feature:history&#45;&gt;:shared:domain -->
<g id="edge19" class="edge">
<title>:shared:feature:history&#45;&gt;:shared:domain</title>
<path fill="none" stroke="black" stroke-dasharray="1,5" d="M251.82,-180C159.64,-180 47,-180 47,-180 47,-180 47,-556.81 47,-556.81"/>
<polygon fill="black" stroke="black" points="43.5,-556.81 47,-566.81 50.5,-556.81 43.5,-556.81"/>
</g>
<!-- :shared:feature:graph -->
<g id="node21" class="node">
<title>:shared:feature:graph</title>
<ellipse fill="#b59aff" stroke="black" cx="369.69" cy="-126" rx="112.38" ry="18"/>
<text text-anchor="middle" x="369.69" y="-122.3" font-family="Times,serif" font-size="14.00">:shared:feature:graph</text>
</g>
<!-- :shared:feature:graph&#45;&gt;:shared:domain -->
<g id="edge20" class="edge">
<title>:shared:feature:graph&#45;&gt;:shared:domain</title>
<path fill="none" stroke="black" stroke-dasharray="1,5" d="M256.91,-126C158.39,-126 31,-126 31,-126 31,-126 31,-556.72 31,-556.72"/>
<polygon fill="black" stroke="black" points="27.5,-556.72 31,-566.72 34.5,-556.72 27.5,-556.72"/>
</g>
<!-- :android:feature:nowplaying -->
<g id="node22" class="node">
<title>:android:feature:nowplaying</title>
<ellipse fill="#9affb5" stroke="black" cx="369.69" cy="-72" rx="141.88" ry="18"/>
<text text-anchor="middle" x="369.69" y="-68.3" font-family="Times,serif" font-size="14.00">:android:feature:nowplaying</text>
</g>
<!-- :android:feature:nowplaying&#45;&gt;:shared:domain -->
<g id="edge21" class="edge">
<title>:android:feature:nowplaying&#45;&gt;:shared:domain</title>
<path fill="none" stroke="black" stroke-dasharray="1,5" d="M231,-75.83C231,-122.78 231,-585 231,-585 231,-585 137.3,-585 137.3,-585"/>
<polygon fill="black" stroke="black" points="137.3,-581.5 127.3,-585 137.3,-588.5 137.3,-581.5"/>
</g>
<!-- :android:feature:spotify -->
<g id="node23" class="node">
<title>:android:feature:spotify</title>
<ellipse fill="#9affb5" stroke="black" cx="369.69" cy="-18" rx="120.48" ry="18"/>
<text text-anchor="middle" x="369.69" y="-14.3" font-family="Times,serif" font-size="14.00">:android:feature:spotify</text>
</g>
<!-- :android:feature:spotify&#45;&gt;:shared:domain -->
<g id="edge22" class="edge">
<title>:android:feature:spotify&#45;&gt;:shared:domain</title>
<path fill="none" stroke="black" stroke-dasharray="1,5" d="M249.11,-18C146.29,-18 15,-18 15,-18 15,-18 15,-556.78 15,-556.78"/>
<polygon fill="black" stroke="black" points="11.5,-556.78 15,-566.78 18.5,-556.78 11.5,-556.78"/>
</g>
</g>
</svg>
