<?xml version="1.0" encoding="UTF-8" standalone="no"?>
<!DOCTYPE svg PUBLIC "-//W3C//DTD SVG 1.1//EN"
 "http://www.w3.org/Graphics/SVG/1.1/DTD/svg11.dtd">
<!-- Generated by graphviz version 14.1.2 (0)
 -->
<!-- Pages: 1 -->
<svg width="532pt" height="1420pt"
 viewBox="0.00 0.00 532.00 1420.00" xmlns="http://www.w3.org/2000/svg" xmlns:xlink="http://www.w3.org/1999/xlink">
<g id="graph0" class="graph" transform="scale(1 1) rotate(0) translate(4 1416)">
<polygon fill="white" stroke="none" points="-4,4 -4,-1416 528.33,-1416 528.33,4 -4,4"/>
<text xml:space="preserve" text-anchor="middle" x="262.16" y="-1379.5" font-family="Times,serif" font-size="30.00">Dependents</text>
<text xml:space="preserve" text-anchor="middle" x="262.16" y="-1343.5" font-family="Times,serif" font-size="30.00"> </text>
<!-- :shared:domain -->
<g id="node1" class="node">
<title>:shared:domain</title>
<polygon fill="#b59aff" stroke="black" points="126.25,-684 0,-684 0,-648 126.25,-648 126.25,-684"/>
<text xml:space="preserve" text-anchor="middle" x="63.12" y="-661.33" font-family="Times,serif" font-size="14.00">:shared:domain</text>
</g>
<!-- :shared -->
<g id="node2" class="node">
<title>:shared</title>
<ellipse fill="#b59aff" stroke="black" cx="375.79" cy="-1314" rx="48.58" ry="18"/>
<text xml:space="preserve" text-anchor="middle" x="375.79" y="-1309.33" font-family="Times,serif" font-size="14.00">:shared</text>
</g>
<!-- :shared&#45;&gt;:shared:domain -->
<g id="edge1" class="edge">
<title>:shared&#45;&gt;:shared:domain</title>
<path fill="none" stroke="black" stroke-dasharray="1,5" d="M326.84,-1314C227.16,-1314 10,-1314 10,-1314 10,-1314 10,-695.86 10,-695.86"/>
<polygon fill="black" stroke="black" points="13.5,-695.86 10,-685.86 6.5,-695.86 13.5,-695.86"/>
</g>
<!-- :test&#45;data -->
<g id="node3" class="node">
<title>:test&#45;data</title>
<ellipse fill="#b59aff" stroke="black" cx="375.79" cy="-1260" rx="59.1" ry="18"/>
<text xml:space="preserve" text-anchor="middle" x="375.79" y="-1255.33" font-family="Times,serif" font-size="14.00">:test&#45;data</text>
</g>
<!-- :test&#45;data&#45;&gt;:shared:domain -->
<g id="edge2" class="edge">
<title>:test&#45;data&#45;&gt;:shared:domain</title>
<path fill="none" stroke="black" stroke-dasharray="1,5" d="M316.47,-1260C215.02,-1260 19,-1260 19,-1260 19,-1260 19,-695.94 19,-695.94"/>
<polygon fill="black" stroke="black" points="22.5,-695.94 19,-685.94 15.5,-695.94 22.5,-695.94"/>
</g>
<!-- :core:preferences -->
<g id="node4" class="node">
<title>:core:preferences</title>
<ellipse fill="#b59aff" stroke="black" cx="375.79" cy="-1206" rx="98.56" ry="18"/>
<text xml:space="preserve" text-anchor="middle" x="375.79" y="-1201.33" font-family="Times,serif" font-size="14.00">:core:preferences</text>
</g>
<!-- :core:preferences&#45;&gt;:shared:domain -->
<g id="edge3" class="edge">
<title>:core:preferences&#45;&gt;:shared:domain</title>
<path fill="none" stroke="black" stroke-dasharray="1,5" d="M276.88,-1206C174.38,-1206 29,-1206 29,-1206 29,-1206 29,-695.79 29,-695.79"/>
<polygon fill="black" stroke="black" points="32.5,-695.79 29,-685.79 25.5,-695.79 32.5,-695.79"/>
</g>
<!-- :data:database -->
<g id="node5" class="node">
<title>:data:database</title>
<ellipse fill="#b59aff" stroke="black" cx="375.79" cy="-1152" rx="84.88" ry="18"/>
<text xml:space="preserve" text-anchor="middle" x="375.79" y="-1147.33" font-family="Times,serif" font-size="14.00">:data:database</text>
</g>
<!-- :data:database&#45;&gt;:shared:domain -->
<g id="edge4" class="edge">
<title>:data:database&#45;&gt;:shared:domain</title>
<path fill="none" stroke="black" stroke-dasharray="1,5" d="M290.8,-1152C191.03,-1152 39,-1152 39,-1152 39,-1152 39,-695.97 39,-695.97"/>
<polygon fill="black" stroke="black" points="42.5,-695.97 39,-685.97 35.5,-695.97 42.5,-695.97"/>
</g>
<!-- :data:coverart -->
<g id="node6" class="node">
<title>:data:coverart</title>
<ellipse fill="#b59aff" stroke="black" cx="375.79" cy="-1098" rx="81.72" ry="18"/>
<text xml:space="preserve" text-anchor="middle" x="375.79" y="-1093.33" font-family="Times,serif" font-size="14.00">:data:coverart</text>
</g>
<!-- :data:coverart&#45;&gt;:shared:domain -->
<g id="edge5" class="edge">
<title>:data:coverart&#45;&gt;:shared:domain</title>
<path fill="none" stroke="black" stroke-dasharray="1,5" d="M293.75,-1098C196.95,-1098 49,-1098 49,-1098 49,-1098 49,-695.8 49,-695.8"/>
<polygon fill="black" stroke="black" points="52.5,-695.8 49,-685.8 45.5,-695.8 52.5,-695.8"/>
</g>
<!-- :data:wikimedia -->
<g id="node7" class="node">
<title>:data:wikimedia</title>
<ellipse fill="#b59aff" stroke="black" cx="375.79" cy="-1044" rx="90.67" ry="18"/>
<text xml:space="preserve" text-anchor="middle" x="375.79" y="-1039.33" font-family="Times,serif" font-size="14.00">:data:wikimedia</text>
</g>
<!-- :data:wikimedia&#45;&gt;:shared:domain -->
<g id="edge6" class="edge">
<title>:data:wikimedia&#45;&gt;:shared:domain</title>
<path fill="none" stroke="black" stroke-dasharray="1,5" d="M284.72,-1044C190.82,-1044 58,-1044 58,-1044 58,-1044 58,-696 58,-696"/>
<polygon fill="black" stroke="black" points="61.5,-696 58,-686 54.5,-696 61.5,-696"/>
</g>
<!-- :data:spotify -->
<g id="node8" class="node">
<title>:data:spotify</title>
<ellipse fill="#b59aff" stroke="black" cx="375.79" cy="-990" rx="73.83" ry="18"/>
<text xml:space="preserve" text-anchor="middle" x="375.79" y="-985.33" font-family="Times,serif" font-size="14.00">:data:spotify</text>
</g>
<!-- :data:spotify&#45;&gt;:shared:domain -->
<g id="edge7" class="edge">
<title>:data:spotify&#45;&gt;:shared:domain</title>
<path fill="none" stroke="black" stroke-dasharray="1,5" d="M301.67,-990C210.6,-990 68,-990 68,-990 68,-990 68,-695.86 68,-695.86"/>
<polygon fill="black" stroke="black" points="71.5,-695.86 68,-685.86 64.5,-695.86 71.5,-695.86"/>
</g>
<!-- :data:listenbrainz -->
<g id="node9" class="node">
<title>:data:listenbrainz</title>
<ellipse fill="#b59aff" stroke="black" cx="375.79" cy="-936" rx="99.08" ry="18"/>
<text xml:space="preserve" text-anchor="middle" x="375.79" y="-931.33" font-family="Times,serif" font-size="14.00">:data:listenbrainz</text>
</g>
<!-- :data:listenbrainz&#45;&gt;:shared:domain -->
<g id="edge8" class="edge">
<title>:data:listenbrainz&#45;&gt;:shared:domain</title>
<path fill="none" stroke="black" stroke-dasharray="1,5" d="M276.22,-936C189.65,-936 78,-936 78,-936 78,-936 78,-695.65 78,-695.65"/>
<polygon fill="black" stroke="black" points="81.5,-695.65 78,-685.65 74.5,-695.65 81.5,-695.65"/>
</g>
<!-- :data:musicbrainz -->
<g id="node10" class="node">
<title>:data:musicbrainz</title>
<ellipse fill="#b59aff" stroke="black" cx="375.79" cy="-882" rx="100.66" ry="18"/>
<text xml:space="preserve" text-anchor="middle" x="375.79" y="-877.33" font-family="Times,serif" font-size="14.00">:data:musicbrainz</text>
</g>
<!-- :data:musicbrainz&#45;&gt;:shared:domain -->
<g id="edge9" class="edge">
<title>:data:musicbrainz&#45;&gt;:shared:domain</title>
<path fill="none" stroke="black" stroke-dasharray="1,5" d="M274.78,-882C191.51,-882 87,-882 87,-882 87,-882 87,-695.93 87,-695.93"/>
<polygon fill="black" stroke="black" points="90.5,-695.93 87,-685.93 83.5,-695.93 90.5,-695.93"/>
</g>
<!-- :data:repository -->
<g id="node11" class="node">
<title>:data:repository</title>
<ellipse fill="#b59aff" stroke="black" cx="375.79" cy="-828" rx="91.19" ry="18"/>
<text xml:space="preserve" text-anchor="middle" x="375.79" y="-823.33" font-family="Times,serif" font-size="14.00">:data:repository</text>
</g>
<!-- :data:repository&#45;&gt;:shared:domain -->
<g id="edge10" class="edge">
<title>:data:repository&#45;&gt;:shared:domain</title>
<path fill="none" stroke="black" stroke-dasharray="1,5" d="M284.12,-828C202.86,-828 97,-828 97,-828 97,-828 97,-695.78 97,-695.78"/>
<polygon fill="black" stroke="black" points="100.5,-695.78 97,-685.78 93.5,-695.78 100.5,-695.78"/>
</g>
<!-- :ui:common -->
<g id="node12" class="node">
<title>:ui:common</title>
<ellipse fill="#b59aff" stroke="black" cx="375.79" cy="-774" rx="69.1" ry="18"/>
<text xml:space="preserve" text-anchor="middle" x="375.79" y="-769.33" font-family="Times,serif" font-size="14.00">:ui:common</text>
</g>
<!-- :ui:common&#45;&gt;:shared:domain -->
<g id="edge11" class="edge">
<title>:ui:common&#45;&gt;:shared:domain</title>
<path fill="none" stroke="black" d="M306.22,-774C226.58,-774 107,-774 107,-774 107,-774 107,-695.83 107,-695.83"/>
<polygon fill="black" stroke="black" points="110.5,-695.83 107,-685.83 103.5,-695.83 110.5,-695.83"/>
</g>
<!-- :android:app -->
<g id="node13" class="node">
<title>:android:app</title>
<ellipse fill="#9affb5" stroke="black" cx="375.79" cy="-720" rx="74.36" ry="18"/>
<text xml:space="preserve" text-anchor="middle" x="375.79" y="-715.33" font-family="Times,serif" font-size="14.00">:android:app</text>
</g>
<!-- :android:app&#45;&gt;:shared:domain -->
<g id="edge12" class="edge">
<title>:android:app&#45;&gt;:shared:domain</title>
<path fill="none" stroke="black" stroke-dasharray="1,5" d="M300.94,-720C224.51,-720 117,-720 117,-720 117,-720 117,-695.8 117,-695.8"/>
<polygon fill="black" stroke="black" points="120.5,-695.8 117,-685.8 113.5,-695.8 120.5,-695.8"/>
</g>
<!-- :shared:feature:settings -->
<g id="node14" class="node">
<title>:shared:feature:settings</title>
<ellipse fill="#b59aff" stroke="black" cx="375.79" cy="-666" rx="131.7" ry="18"/>
<text xml:space="preserve" text-anchor="middle" x="375.79" y="-661.33" font-family="Times,serif" font-size="14.00">:shared:feature:settings</text>
</g>
<!-- :shared:feature:settings&#45;&gt;:shared:domain -->
<g id="edge13" class="edge">
<title>:shared:feature:settings&#45;&gt;:shared:domain</title>
<path fill="none" stroke="black" stroke-dasharray="1,5" d="M250.87,-672C250.87,-672 137.98,-672 137.98,-672"/>
<polygon fill="black" stroke="black" points="137.98,-668.5 127.98,-672 137.98,-675.5 137.98,-668.5"/>
</g>
<!-- :shared:feature:images -->
<g id="node15" class="node">
<title>:shared:feature:images</title>
<ellipse fill="#b59aff" stroke="black" cx="375.79" cy="-612" rx="126.97" ry="18"/>
<text xml:space="preserve" text-anchor="middle" x="375.79" y="-607.33" font-family="Times,serif" font-size="14.00">:shared:feature:images</text>
</g>
<!-- :shared:feature:images&#45;&gt;:shared:domain -->
<g id="edge14" class="edge">
<title>:shared:feature:images&#45;&gt;:shared:domain</title>
<path fill="none" stroke="black" stroke-dasharray="1,5" d="M248.56,-612C182.74,-612 116,-612 116,-612 116,-612 116,-636.2 116,-636.2"/>
<polygon fill="black" stroke="black" points="112.5,-636.2 116,-646.2 119.5,-636.2 112.5,-636.2"/>
</g>
<!-- :shared:feature:nowplaying -->
<g id="node16" class="node">
<title>:shared:feature:nowplaying</title>
<ellipse fill="#b59aff" stroke="black" cx="375.79" cy="-558" rx="148.54" ry="18"/>
<text xml:space="preserve" text-anchor="middle" x="375.79" y="-553.33" font-family="Times,serif" font-size="14.00">:shared:feature:nowplaying</text>
</g>
<!-- :shared:feature:nowplaying&#45;&gt;:shared:domain -->
<g id="edge15" class="edge">
<title>:shared:feature:nowplaying&#45;&gt;:shared:domain</title>
<path fill="none" stroke="black" stroke-dasharray="1,5" d="M236,-564.38C236,-586.71 236,-660 236,-660 236,-660 138.03,-660 138.03,-660"/>
<polygon fill="black" stroke="black" points="138.03,-656.5 128.03,-660 138.03,-663.5 138.03,-656.5"/>
</g>
<!-- :shared:feature:spotify -->
<g id="node17" class="node">
<title>:shared:feature:spotify</title>
<ellipse fill="#b59aff" stroke="black" cx="375.79" cy="-504" rx="125.39" ry="18"/>
<text xml:space="preserve" text-anchor="middle" x="375.79" y="-499.32" font-family="Times,serif" font-size="14.00">:shared:feature:spotify</text>
</g>
<!-- :shared:feature:spotify&#45;&gt;:shared:domain -->
<g id="edge16" class="edge">
<title>:shared:feature:spotify&#45;&gt;:shared:domain</title>
<path fill="none" stroke="black" stroke-dasharray="1,5" d="M249.91,-504C179.19,-504 105,-504 105,-504 105,-504 105,-636.22 105,-636.22"/>
<polygon fill="black" stroke="black" points="101.5,-636.22 105,-646.22 108.5,-636.22 101.5,-636.22"/>
</g>
<!-- :shared:feature:history -->
<g id="node18" class="node">
<title>:shared:feature:history</title>
<ellipse fill="#b59aff" stroke="black" cx="375.79" cy="-450" rx="126.44" ry="18"/>
<text xml:space="preserve" text-anchor="middle" x="375.79" y="-445.32" font-family="Times,serif" font-size="14.00">:shared:feature:history</text>
</g>
<!-- :shared:feature:history&#45;&gt;:shared:domain -->
<g id="edge17" class="edge">
<title>:shared:feature:history&#45;&gt;:shared:domain</title>
<path fill="none" stroke="black" stroke-dasharray="1,5" d="M248.95,-450C174.54,-450 95,-450 95,-450 95,-450 95,-636.07 95,-636.07"/>
<polygon fill="black" stroke="black" points="91.5,-636.07 95,-646.07 98.5,-636.07 91.5,-636.07"/>
</g>
<!-- :shared:feature:graph -->
<g id="node19" class="node">
<title>:shared:feature:graph</title>
<ellipse fill="#b59aff" stroke="black" cx="375.79" cy="-396" rx="120.65" ry="18"/>
<text xml:space="preserve" text-anchor="middle" x="375.79" y="-391.32" font-family="Times,serif" font-size="14.00">:shared:feature:graph</text>
</g>
<!-- :shared:feature:graph&#45;&gt;:shared:domain -->
<g id="edge18" class="edge">
<title>:shared:feature:graph&#45;&gt;:shared:domain</title>
<path fill="none" stroke="black" stroke-dasharray="1,5" d="M255,-396C174.73,-396 84,-396 84,-396 84,-396 84,-636.35 84,-636.35"/>
<polygon fill="black" stroke="black" points="80.5,-636.35 84,-646.35 87.5,-636.35 80.5,-636.35"/>
</g>
<!-- :shared:feature:database -->
<g id="node20" class="node">
<title>:shared:feature:database</title>
<ellipse fill="#b59aff" stroke="black" cx="375.79" cy="-342" rx="136.44" ry="18"/>
<text xml:space="preserve" text-anchor="middle" x="375.79" y="-337.32" font-family="Times,serif" font-size="14.00">:shared:feature:database</text>
</g>
<!-- :shared:feature:database&#45;&gt;:shared:domain -->
<g id="edge19" class="edge">
<title>:shared:feature:database&#45;&gt;:shared:domain</title>
<path fill="none" stroke="black" stroke-dasharray="1,5" d="M239.02,-342C159.17,-342 74,-342 74,-342 74,-342 74,-636.14 74,-636.14"/>
<polygon fill="black" stroke="black" points="70.5,-636.14 74,-646.14 77.5,-636.14 70.5,-636.14"/>
</g>
<!-- :shared:feature:search -->
<g id="node21" class="node">
<title>:shared:feature:search</title>
<ellipse fill="#b59aff" stroke="black" cx="375.79" cy="-288" rx="124.34" ry="18"/>
<text xml:space="preserve" text-anchor="middle" x="375.79" y="-283.32" font-family="Times,serif" font-size="14.00">:shared:feature:search</text>
</g>
<!-- :shared:feature:search&#45;&gt;:shared:domain -->
<g id="edge20" class="edge">
<title>:shared:feature:search&#45;&gt;:shared:domain</title>
<path fill="none" stroke="black" stroke-dasharray="1,5" d="M251.27,-288C164.04,-288 63,-288 63,-288 63,-288 63,-636 63,-636"/>
<polygon fill="black" stroke="black" points="59.5,-636 63,-646 66.5,-636 59.5,-636"/>
</g>
<!-- :shared:feature:listens -->
<g id="node22" class="node">
<title>:shared:feature:listens</title>
<ellipse fill="#b59aff" stroke="black" cx="375.79" cy="-234" rx="124.34" ry="18"/>
<text xml:space="preserve" text-anchor="middle" x="375.79" y="-229.32" font-family="Times,serif" font-size="14.00">:shared:feature:listens</text>
</g>
<!-- :shared:feature:listens&#45;&gt;:shared:domain -->
<g id="edge21" class="edge">
<title>:shared:feature:listens&#45;&gt;:shared:domain</title>
<path fill="none" stroke="black" stroke-dasharray="1,5" d="M250.99,-234C160.16,-234 53,-234 53,-234 53,-234 53,-636.2 53,-636.2"/>
<polygon fill="black" stroke="black" points="49.5,-636.2 53,-646.2 56.5,-636.2 49.5,-636.2"/>
</g>
<!-- :shared:feature:collections -->
<g id="node23" class="node">
<title>:shared:feature:collections</title>
<ellipse fill="#b59aff" stroke="black" cx="375.79" cy="-180" rx="144.33" ry="18"/>
<text xml:space="preserve" text-anchor="middle" x="375.79" y="-175.32" font-family="Times,serif" font-size="14.00">:shared:feature:collections</text>
</g>
<!-- :shared:feature:collections&#45;&gt;:shared:domain -->
<g id="edge22" class="edge">
<title>:shared:feature:collections&#45;&gt;:shared:domain</title>
<path fill="none" stroke="black" stroke-dasharray="1,5" d="M231.33,-180C141.12,-180 42,-180 42,-180 42,-180 42,-636.03 42,-636.03"/>
<polygon fill="black" stroke="black" points="38.5,-636.03 42,-646.03 45.5,-636.03 38.5,-636.03"/>
</g>
<!-- :shared:feature:stats -->
<g id="node24" class="node">
<title>:shared:feature:stats</title>
<ellipse fill="#b59aff" stroke="black" cx="375.79" cy="-126" rx="115.92" ry="18"/>
<text xml:space="preserve" text-anchor="middle" x="375.79" y="-121.33" font-family="Times,serif" font-size="14.00">:shared:feature:stats</text>
</g>
<!-- :shared:feature:stats&#45;&gt;:shared:domain -->
<g id="edge23" class="edge">
<title>:shared:feature:stats&#45;&gt;:shared:domain</title>
<path fill="none" stroke="black" stroke-dasharray="1,5" d="M259.4,-126C159.66,-126 32,-126 32,-126 32,-126 32,-636.21 32,-636.21"/>
<polygon fill="black" stroke="black" points="28.5,-636.21 32,-646.21 35.5,-636.21 28.5,-636.21"/>
</g>
<!-- :shared:feature:details -->
<g id="node25" class="node">
<title>:shared:feature:details</title>
<ellipse fill="#b59aff" stroke="black" cx="375.79" cy="-72" rx="124.86" ry="18"/>
<text xml:space="preserve" text-anchor="middle" x="375.79" y="-67.33" font-family="Times,serif" font-size="14.00">:shared:feature:details</text>
</g>
<!-- :shared:feature:details&#45;&gt;:shared:domain -->
<g id="edge24" class="edge">
<title>:shared:feature:details&#45;&gt;:shared:domain</title>
<path fill="none" stroke="black" stroke-dasharray="1,5" d="M250.7,-72C148.56,-72 21,-72 21,-72 21,-72 21,-636.06 21,-636.06"/>
<polygon fill="black" stroke="black" points="17.5,-636.06 21,-646.06 24.5,-636.06 17.5,-636.06"/>
</g>
<!-- :data:common:network -->
<g id="node26" class="node">
<title>:data:common:network</title>
<ellipse fill="#b59aff" stroke="black" cx="375.79" cy="-18" rx="125.92" ry="18"/>
<text xml:space="preserve" text-anchor="middle" x="375.79" y="-13.32" font-family="Times,serif" font-size="14.00">:data:common:network</text>
</g>
<!-- :data:common:network&#45;&gt;:shared:domain -->
<g id="edge25" class="edge">
<title>:data:common:network&#45;&gt;:shared:domain</title>
<path fill="none" stroke="black" stroke-dasharray="1,5" d="M249.48,-18C144.08,-18 11,-18 11,-18 11,-18 11,-636.14 11,-636.14"/>
<polygon fill="black" stroke="black" points="7.5,-636.14 11,-646.14 14.5,-636.14 7.5,-636.14"/>
</g>
</g>
</svg>
