<?xml version="1.0" encoding="UTF-8" standalone="no"?>
<!DOCTYPE svg PUBLIC "-//W3C//DTD SVG 1.1//EN"
 "http://www.w3.org/Graphics/SVG/1.1/DTD/svg11.dtd">
<!-- Generated by graphviz version 2.43.0 (0)
 -->
<!-- Title: %3 Pages: 1 -->
<svg width="519pt" height="1360pt"
 viewBox="0.00 0.00 519.37 1360.00" xmlns="http://www.w3.org/2000/svg" xmlns:xlink="http://www.w3.org/1999/xlink">
<g id="graph0" class="graph" transform="scale(1 1) rotate(0) translate(4 1356)">
<title>%3</title>
<polygon fill="white" stroke="transparent" points="-4,4 -4,-1356 515.37,-1356 515.37,4 -4,4"/>
<text text-anchor="middle" x="255.69" y="-1324" font-family="Times,serif" font-size="30.00">Dependents</text>
<text text-anchor="middle" x="255.69" y="-1291" font-family="Times,serif" font-size="30.00"> </text>
<!-- :shared:domain -->
<g id="node1" class="node">
<title>:shared:domain</title>
<polygon fill="#b59aff" stroke="black" points="127,-657 0,-657 0,-621 127,-621 127,-657"/>
<text text-anchor="middle" x="63.5" y="-635.3" font-family="Times,serif" font-size="14.00">:shared:domain</text>
</g>
<!-- :shared -->
<g id="node2" class="node">
<title>:shared</title>
<ellipse fill="#b59aff" stroke="black" cx="369.69" cy="-1260" rx="45.49" ry="18"/>
<text text-anchor="middle" x="369.69" y="-1256.3" font-family="Times,serif" font-size="14.00">:shared</text>
</g>
<!-- :shared&#45;&gt;:shared:domain -->
<g id="edge1" class="edge">
<title>:shared&#45;&gt;:shared:domain</title>
<path fill="none" stroke="black" stroke-dasharray="1,5" d="M324.02,-1260C227.59,-1260 12,-1260 12,-1260 12,-1260 12,-667.25 12,-667.25"/>
<polygon fill="black" stroke="black" points="15.5,-667.25 12,-657.25 8.5,-667.25 15.5,-667.25"/>
</g>
<!-- :test&#45;data -->
<g id="node3" class="node">
<title>:test&#45;data</title>
<ellipse fill="#b59aff" stroke="black" cx="369.69" cy="-1206" rx="55.49" ry="18"/>
<text text-anchor="middle" x="369.69" y="-1202.3" font-family="Times,serif" font-size="14.00">:test&#45;data</text>
</g>
<!-- :test&#45;data&#45;&gt;:shared:domain -->
<g id="edge2" class="edge">
<title>:test&#45;data&#45;&gt;:shared:domain</title>
<path fill="none" stroke="black" stroke-dasharray="1,5" d="M314.31,-1206C216.87,-1206 25,-1206 25,-1206 25,-1206 25,-667.22 25,-667.22"/>
<polygon fill="black" stroke="black" points="28.5,-667.22 25,-657.22 21.5,-667.22 28.5,-667.22"/>
</g>
<!-- :core:preferences -->
<g id="node4" class="node">
<title>:core:preferences</title>
<ellipse fill="#b59aff" stroke="black" cx="369.69" cy="-1152" rx="91.78" ry="18"/>
<text text-anchor="middle" x="369.69" y="-1148.3" font-family="Times,serif" font-size="14.00">:core:preferences</text>
</g>
<!-- :core:preferences&#45;&gt;:shared:domain -->
<g id="edge3" class="edge">
<title>:core:preferences&#45;&gt;:shared:domain</title>
<path fill="none" stroke="black" stroke-dasharray="1,5" d="M277.73,-1152C179.57,-1152 38,-1152 38,-1152 38,-1152 38,-667.26 38,-667.26"/>
<polygon fill="black" stroke="black" points="41.5,-667.26 38,-657.26 34.5,-667.26 41.5,-667.26"/>
</g>
<!-- :data:database -->
<g id="node5" class="node">
<title>:data:database</title>
<ellipse fill="#b59aff" stroke="black" cx="369.69" cy="-1098" rx="79.09" ry="18"/>
<text text-anchor="middle" x="369.69" y="-1094.3" font-family="Times,serif" font-size="14.00">:data:database</text>
</g>
<!-- :data:database&#45;&gt;:shared:domain -->
<g id="edge4" class="edge">
<title>:data:database&#45;&gt;:shared:domain</title>
<path fill="none" stroke="black" stroke-dasharray="1,5" d="M290.25,-1098C195.57,-1098 50,-1098 50,-1098 50,-1098 50,-667.28 50,-667.28"/>
<polygon fill="black" stroke="black" points="53.5,-667.28 50,-657.28 46.5,-667.28 53.5,-667.28"/>
</g>
<!-- :data:coverart -->
<g id="node6" class="node">
<title>:data:coverart</title>
<ellipse fill="#b59aff" stroke="black" cx="369.69" cy="-1044" rx="76.09" ry="18"/>
<text text-anchor="middle" x="369.69" y="-1040.3" font-family="Times,serif" font-size="14.00">:data:coverart</text>
</g>
<!-- :data:coverart&#45;&gt;:shared:domain -->
<g id="edge5" class="edge">
<title>:data:coverart&#45;&gt;:shared:domain</title>
<path fill="none" stroke="black" stroke-dasharray="1,5" d="M293.48,-1044C202.65,-1044 63,-1044 63,-1044 63,-1044 63,-667.19 63,-667.19"/>
<polygon fill="black" stroke="black" points="66.5,-667.19 63,-657.19 59.5,-667.19 66.5,-667.19"/>
</g>
<!-- :data:wikimedia -->
<g id="node7" class="node">
<title>:data:wikimedia</title>
<ellipse fill="#b59aff" stroke="black" cx="369.69" cy="-990" rx="84.49" ry="18"/>
<text text-anchor="middle" x="369.69" y="-986.3" font-family="Times,serif" font-size="14.00">:data:wikimedia</text>
</g>
<!-- :data:wikimedia&#45;&gt;:shared:domain -->
<g id="edge6" class="edge">
<title>:data:wikimedia&#45;&gt;:shared:domain</title>
<path fill="none" stroke="black" stroke-dasharray="1,5" d="M285.13,-990C198.37,-990 76,-990 76,-990 76,-990 76,-667.38 76,-667.38"/>
<polygon fill="black" stroke="black" points="79.5,-667.38 76,-657.38 72.5,-667.38 79.5,-667.38"/>
</g>
<!-- :data:spotify -->
<g id="node8" class="node">
<title>:data:spotify</title>
<ellipse fill="#b59aff" stroke="black" cx="369.69" cy="-936" rx="68.79" ry="18"/>
<text text-anchor="middle" x="369.69" y="-932.3" font-family="Times,serif" font-size="14.00">:data:spotify</text>
</g>
<!-- :data:spotify&#45;&gt;:shared:domain -->
<g id="edge7" class="edge">
<title>:data:spotify&#45;&gt;:shared:domain</title>
<path fill="none" stroke="black" stroke-dasharray="1,5" d="M300.78,-936C217.39,-936 88,-936 88,-936 88,-936 88,-667.13 88,-667.13"/>
<polygon fill="black" stroke="black" points="91.5,-667.13 88,-657.13 84.5,-667.13 91.5,-667.13"/>
</g>
<!-- :data:musicbrainz -->
<g id="node9" class="node">
<title>:data:musicbrainz</title>
<ellipse fill="#b59aff" stroke="black" cx="369.69" cy="-882" rx="93.68" ry="18"/>
<text text-anchor="middle" x="369.69" y="-878.3" font-family="Times,serif" font-size="14.00">:data:musicbrainz</text>
</g>
<!-- :data:musicbrainz&#45;&gt;:shared:domain -->
<g id="edge8" class="edge">
<title>:data:musicbrainz&#45;&gt;:shared:domain</title>
<path fill="none" stroke="black" stroke-dasharray="1,5" d="M280,-876.83C280,-843 280,-654.75 280,-654.75 280,-654.75 137.29,-654.75 137.29,-654.75"/>
<polygon fill="black" stroke="black" points="137.29,-651.25 127.29,-654.75 137.29,-658.25 137.29,-651.25"/>
</g>
<!-- :data:repository -->
<g id="node10" class="node">
<title>:data:repository</title>
<ellipse fill="#b59aff" stroke="black" cx="369.69" cy="-828" rx="85.29" ry="18"/>
<text text-anchor="middle" x="369.69" y="-824.3" font-family="Times,serif" font-size="14.00">:data:repository</text>
</g>
<!-- :data:repository&#45;&gt;:shared:domain -->
<g id="edge9" class="edge">
<title>:data:repository&#45;&gt;:shared:domain</title>
<path fill="none" stroke="black" stroke-dasharray="1,5" d="M292,-820.46C292,-786.87 292,-652.5 292,-652.5 292,-652.5 137.15,-652.5 137.15,-652.5"/>
<polygon fill="black" stroke="black" points="137.15,-649 127.15,-652.5 137.15,-656 137.15,-649"/>
</g>
<!-- :ui:core -->
<g id="node11" class="node">
<title>:ui:core</title>
<ellipse fill="#b59aff" stroke="black" cx="369.69" cy="-774" rx="45.49" ry="18"/>
<text text-anchor="middle" x="369.69" y="-770.3" font-family="Times,serif" font-size="14.00">:ui:core</text>
</g>
<!-- :ui:core&#45;&gt;:shared:domain -->
<g id="edge10" class="edge">
<title>:ui:core&#45;&gt;:shared:domain</title>
<path fill="none" stroke="black" stroke-dasharray="1,5" d="M324.11,-774C247.45,-774 101,-774 101,-774 101,-774 101,-667.21 101,-667.21"/>
<polygon fill="black" stroke="black" points="104.5,-667.21 101,-657.21 97.5,-667.21 104.5,-667.21"/>
</g>
<!-- :ui:common -->
<g id="node12" class="node">
<title>:ui:common</title>
<ellipse fill="#b59aff" stroke="black" cx="369.69" cy="-720" rx="64.19" ry="18"/>
<text text-anchor="middle" x="369.69" y="-716.3" font-family="Times,serif" font-size="14.00">:ui:common</text>
</g>
<!-- :ui:common&#45;&gt;:shared:domain -->
<g id="edge11" class="edge">
<title>:ui:common&#45;&gt;:shared:domain</title>
<path fill="none" stroke="black" d="M305.17,-720C229.42,-720 114,-720 114,-720 114,-720 114,-667.38 114,-667.38"/>
<polygon fill="black" stroke="black" points="117.5,-667.38 114,-657.38 110.5,-667.38 117.5,-667.38"/>
</g>
<!-- :android:app -->
<g id="node13" class="node">
<title>:android:app</title>
<ellipse fill="#9affb5" stroke="black" cx="369.69" cy="-666" rx="69.59" ry="18"/>
<text text-anchor="middle" x="369.69" y="-662.3" font-family="Times,serif" font-size="14.00">:android:app</text>
</g>
<!-- :android:app&#45;&gt;:shared:domain -->
<g id="edge12" class="edge">
<title>:android:app&#45;&gt;:shared:domain</title>
<path fill="none" stroke="black" stroke-dasharray="1,5" d="M335.75,-650.25C335.75,-650.25 137.14,-650.25 137.14,-650.25"/>
<polygon fill="black" stroke="black" points="137.14,-646.75 127.14,-650.25 137.14,-653.75 137.14,-646.75"/>
</g>
<!-- :shared:feature:settings -->
<g id="node14" class="node">
<title>:shared:feature:settings</title>
<ellipse fill="#b59aff" stroke="black" cx="369.69" cy="-612" rx="122.38" ry="18"/>
<text text-anchor="middle" x="369.69" y="-608.3" font-family="Times,serif" font-size="14.00">:shared:feature:settings</text>
</g>
<!-- :shared:feature:settings&#45;&gt;:shared:domain -->
<g id="edge13" class="edge">
<title>:shared:feature:settings&#45;&gt;:shared:domain</title>
<path fill="none" stroke="black" stroke-dasharray="1,5" d="M310.29,-627.75C310.29,-627.75 137.22,-627.75 137.22,-627.75"/>
<polygon fill="black" stroke="black" points="137.22,-624.25 127.22,-627.75 137.22,-631.25 137.22,-624.25"/>
</g>
<!-- :shared:feature:database -->
<g id="node15" class="node">
<title>:shared:feature:database</title>
<ellipse fill="#b59aff" stroke="black" cx="369.69" cy="-558" rx="126.98" ry="18"/>
<text text-anchor="middle" x="369.69" y="-554.3" font-family="Times,serif" font-size="14.00">:shared:feature:database</text>
</g>
<!-- :shared:feature:database&#45;&gt;:shared:domain -->
<g id="edge14" class="edge">
<title>:shared:feature:database&#45;&gt;:shared:domain</title>
<path fill="none" stroke="black" stroke-dasharray="1,5" d="M242.59,-558C178.42,-558 114,-558 114,-558 114,-558 114,-610.62 114,-610.62"/>
<polygon fill="black" stroke="black" points="110.5,-610.62 114,-620.62 117.5,-610.62 110.5,-610.62"/>
</g>
<!-- :shared:feature:images -->
<g id="node16" class="node">
<title>:shared:feature:images</title>
<ellipse fill="#b59aff" stroke="black" cx="369.69" cy="-504" rx="118.08" ry="18"/>
<text text-anchor="middle" x="369.69" y="-500.3" font-family="Times,serif" font-size="14.00">:shared:feature:images</text>
</g>
<!-- :shared:feature:images&#45;&gt;:shared:domain -->
<g id="edge15" class="edge">
<title>:shared:feature:images&#45;&gt;:shared:domain</title>
<path fill="none" stroke="black" stroke-dasharray="1,5" d="M251.06,-504C179.08,-504 101,-504 101,-504 101,-504 101,-610.79 101,-610.79"/>
<polygon fill="black" stroke="black" points="97.5,-610.79 101,-620.79 104.5,-610.79 97.5,-610.79"/>
</g>
<!-- :shared:feature:search -->
<g id="node17" class="node">
<title>:shared:feature:search</title>
<ellipse fill="#b59aff" stroke="black" cx="369.69" cy="-450" rx="115.88" ry="18"/>
<text text-anchor="middle" x="369.69" y="-446.3" font-family="Times,serif" font-size="14.00">:shared:feature:search</text>
</g>
<!-- :shared:feature:search&#45;&gt;:shared:domain -->
<g id="edge16" class="edge">
<title>:shared:feature:search&#45;&gt;:shared:domain</title>
<path fill="none" stroke="black" stroke-dasharray="1,5" d="M253.89,-450C176.2,-450 88,-450 88,-450 88,-450 88,-610.88 88,-610.88"/>
<polygon fill="black" stroke="black" points="84.5,-610.88 88,-620.88 91.5,-610.88 84.5,-610.88"/>
</g>
<!-- :shared:feature:collections -->
<g id="node18" class="node">
<title>:shared:feature:collections</title>
<ellipse fill="#b59aff" stroke="black" cx="369.69" cy="-396" rx="133.78" ry="18"/>
<text text-anchor="middle" x="369.69" y="-392.3" font-family="Times,serif" font-size="14.00">:shared:feature:collections</text>
</g>
<!-- :shared:feature:collections&#45;&gt;:shared:domain -->
<g id="edge17" class="edge">
<title>:shared:feature:collections&#45;&gt;:shared:domain</title>
<path fill="none" stroke="black" stroke-dasharray="1,5" d="M239,-399.98C239,-430.46 239,-625.5 239,-625.5 239,-625.5 137.36,-625.5 137.36,-625.5"/>
<polygon fill="black" stroke="black" points="137.36,-622 127.36,-625.5 137.36,-629 137.36,-622"/>
</g>
<!-- :shared:feature:stats -->
<g id="node19" class="node">
<title>:shared:feature:stats</title>
<ellipse fill="#b59aff" stroke="black" cx="369.69" cy="-342" rx="107.78" ry="18"/>
<text text-anchor="middle" x="369.69" y="-338.3" font-family="Times,serif" font-size="14.00">:shared:feature:stats</text>
</g>
<!-- :shared:feature:stats&#45;&gt;:shared:domain -->
<g id="edge18" class="edge">
<title>:shared:feature:stats&#45;&gt;:shared:domain</title>
<path fill="none" stroke="black" stroke-dasharray="1,5" d="M261.58,-342C177.84,-342 76,-342 76,-342 76,-342 76,-610.87 76,-610.87"/>
<polygon fill="black" stroke="black" points="72.5,-610.87 76,-620.87 79.5,-610.87 72.5,-610.87"/>
</g>
<!-- :shared:feature:details -->
<g id="node20" class="node">
<title>:shared:feature:details</title>
<ellipse fill="#b59aff" stroke="black" cx="369.69" cy="-288" rx="116.18" ry="18"/>
<text text-anchor="middle" x="369.69" y="-284.3" font-family="Times,serif" font-size="14.00">:shared:feature:details</text>
</g>
<!-- :shared:feature:details&#45;&gt;:shared:domain -->
<g id="edge19" class="edge">
<title>:shared:feature:details&#45;&gt;:shared:domain</title>
<path fill="none" stroke="black" stroke-dasharray="1,5" d="M253.3,-288C166.55,-288 63,-288 63,-288 63,-288 63,-610.62 63,-610.62"/>
<polygon fill="black" stroke="black" points="59.5,-610.62 63,-620.62 66.5,-610.62 59.5,-610.62"/>
</g>
<!-- :shared:feature:history -->
<g id="node21" class="node">
<title>:shared:feature:history</title>
<ellipse fill="#b59aff" stroke="black" cx="369.69" cy="-234" rx="117.78" ry="18"/>
<text text-anchor="middle" x="369.69" y="-230.3" font-family="Times,serif" font-size="14.00">:shared:feature:history</text>
</g>
<!-- :shared:feature:history&#45;&gt;:shared:domain -->
<g id="edge20" class="edge">
<title>:shared:feature:history&#45;&gt;:shared:domain</title>
<path fill="none" stroke="black" stroke-dasharray="1,5" d="M252.01,-234C160.86,-234 50,-234 50,-234 50,-234 50,-610.81 50,-610.81"/>
<polygon fill="black" stroke="black" points="46.5,-610.81 50,-620.81 53.5,-610.81 46.5,-610.81"/>
</g>
<!-- :shared:feature:graph -->
<g id="node22" class="node">
<title>:shared:feature:graph</title>
<ellipse fill="#b59aff" stroke="black" cx="369.69" cy="-180" rx="112.38" ry="18"/>
<text text-anchor="middle" x="369.69" y="-176.3" font-family="Times,serif" font-size="14.00">:shared:feature:graph</text>
</g>
<!-- :shared:feature:graph&#45;&gt;:shared:domain -->
<g id="edge21" class="edge">
<title>:shared:feature:graph&#45;&gt;:shared:domain</title>
<path fill="none" stroke="black" stroke-dasharray="1,5" d="M256.93,-180C160.77,-180 38,-180 38,-180 38,-180 38,-610.72 38,-610.72"/>
<polygon fill="black" stroke="black" points="34.5,-610.72 38,-620.72 41.5,-610.72 34.5,-610.72"/>
</g>
<!-- :data:common:network -->
<g id="node23" class="node">
<title>:data:common:network</title>
<ellipse fill="#b59aff" stroke="black" cx="369.69" cy="-126" rx="116.98" ry="18"/>
<text text-anchor="middle" x="369.69" y="-122.3" font-family="Times,serif" font-size="14.00">:data:common:network</text>
</g>
<!-- :data:common:network&#45;&gt;:shared:domain -->
<g id="edge22" class="edge">
<title>:data:common:network&#45;&gt;:shared:domain</title>
<path fill="none" stroke="black" stroke-dasharray="1,5" d="M252.51,-126C152.59,-126 25,-126 25,-126 25,-126 25,-610.74 25,-610.74"/>
<polygon fill="black" stroke="black" points="21.5,-610.74 25,-620.74 28.5,-610.74 21.5,-610.74"/>
</g>
<!-- :android:feature:nowplaying -->
<g id="node24" class="node">
<title>:android:feature:nowplaying</title>
<ellipse fill="#9affb5" stroke="black" cx="369.69" cy="-72" rx="141.88" ry="18"/>
<text text-anchor="middle" x="369.69" y="-68.3" font-family="Times,serif" font-size="14.00">:android:feature:nowplaying</text>
</g>
<!-- :android:feature:nowplaying&#45;&gt;:shared:domain -->
<g id="edge23" class="edge">
<title>:android:feature:nowplaying&#45;&gt;:shared:domain</title>
<path fill="none" stroke="black" stroke-dasharray="1,5" d="M231,-75.81C231,-124.52 231,-623.25 231,-623.25 231,-623.25 137.3,-623.25 137.3,-623.25"/>
<polygon fill="black" stroke="black" points="137.3,-619.75 127.3,-623.25 137.3,-626.75 137.3,-619.75"/>
</g>
<!-- :android:feature:spotify -->
<g id="node25" class="node">
<title>:android:feature:spotify</title>
<ellipse fill="#9affb5" stroke="black" cx="369.69" cy="-18" rx="120.48" ry="18"/>
<text text-anchor="middle" x="369.69" y="-14.3" font-family="Times,serif" font-size="14.00">:android:feature:spotify</text>
</g>
<!-- :android:feature:spotify&#45;&gt;:shared:domain -->
<g id="edge24" class="edge">
<title>:android:feature:spotify&#45;&gt;:shared:domain</title>
<path fill="none" stroke="black" stroke-dasharray="1,5" d="M249.09,-18C145.25,-18 12,-18 12,-18 12,-18 12,-610.75 12,-610.75"/>
<polygon fill="black" stroke="black" points="8.5,-610.75 12,-620.75 15.5,-610.75 8.5,-610.75"/>
</g>
</g>
</svg>
