<?xml version="1.0" encoding="UTF-8" standalone="no"?>
<!DOCTYPE svg PUBLIC "-//W3C//DTD SVG 1.1//EN"
 "http://www.w3.org/Graphics/SVG/1.1/DTD/svg11.dtd">
<!-- Generated by graphviz version 2.43.0 (0)
 -->
<!-- Title: %3 Pages: 1 -->
<svg width="519pt" height="1306pt"
 viewBox="0.00 0.00 519.37 1306.00" xmlns="http://www.w3.org/2000/svg" xmlns:xlink="http://www.w3.org/1999/xlink">
<g id="graph0" class="graph" transform="scale(1 1) rotate(0) translate(4 1302)">
<title>%3</title>
<polygon fill="white" stroke="transparent" points="-4,4 -4,-1302 515.37,-1302 515.37,4 -4,4"/>
<text text-anchor="middle" x="255.69" y="-1270" font-family="Times,serif" font-size="30.00">Dependents</text>
<text text-anchor="middle" x="255.69" y="-1237" font-family="Times,serif" font-size="30.00"> </text>
<!-- :shared:domain -->
<g id="node1" class="node">
<title>:shared:domain</title>
<polygon fill="#b59aff" stroke="black" points="127,-630 0,-630 0,-594 127,-594 127,-630"/>
<text text-anchor="middle" x="63.5" y="-608.3" font-family="Times,serif" font-size="14.00">:shared:domain</text>
</g>
<!-- :shared -->
<g id="node2" class="node">
<title>:shared</title>
<ellipse fill="#b59aff" stroke="black" cx="369.69" cy="-1206" rx="45.49" ry="18"/>
<text text-anchor="middle" x="369.69" y="-1202.3" font-family="Times,serif" font-size="14.00">:shared</text>
</g>
<!-- :shared&#45;&gt;:shared:domain -->
<g id="edge1" class="edge">
<title>:shared&#45;&gt;:shared:domain</title>
<path fill="none" stroke="black" stroke-dasharray="1,5" d="M324.02,-1206C227.59,-1206 12,-1206 12,-1206 12,-1206 12,-640.1 12,-640.1"/>
<polygon fill="black" stroke="black" points="15.5,-640.1 12,-630.1 8.5,-640.1 15.5,-640.1"/>
</g>
<!-- :test&#45;data -->
<g id="node3" class="node">
<title>:test&#45;data</title>
<ellipse fill="#b59aff" stroke="black" cx="369.69" cy="-1152" rx="55.49" ry="18"/>
<text text-anchor="middle" x="369.69" y="-1148.3" font-family="Times,serif" font-size="14.00">:test&#45;data</text>
</g>
<!-- :test&#45;data&#45;&gt;:shared:domain -->
<g id="edge2" class="edge">
<title>:test&#45;data&#45;&gt;:shared:domain</title>
<path fill="none" stroke="black" stroke-dasharray="1,5" d="M314.31,-1152C216.87,-1152 25,-1152 25,-1152 25,-1152 25,-640.28 25,-640.28"/>
<polygon fill="black" stroke="black" points="28.5,-640.28 25,-630.28 21.5,-640.28 28.5,-640.28"/>
</g>
<!-- :core:preferences -->
<g id="node4" class="node">
<title>:core:preferences</title>
<ellipse fill="#b59aff" stroke="black" cx="369.69" cy="-1098" rx="91.78" ry="18"/>
<text text-anchor="middle" x="369.69" y="-1094.3" font-family="Times,serif" font-size="14.00">:core:preferences</text>
</g>
<!-- :core:preferences&#45;&gt;:shared:domain -->
<g id="edge3" class="edge">
<title>:core:preferences&#45;&gt;:shared:domain</title>
<path fill="none" stroke="black" stroke-dasharray="1,5" d="M277.73,-1098C179.57,-1098 38,-1098 38,-1098 38,-1098 38,-640.16 38,-640.16"/>
<polygon fill="black" stroke="black" points="41.5,-640.16 38,-630.16 34.5,-640.16 41.5,-640.16"/>
</g>
<!-- :data:database -->
<g id="node5" class="node">
<title>:data:database</title>
<ellipse fill="#b59aff" stroke="black" cx="369.69" cy="-1044" rx="79.09" ry="18"/>
<text text-anchor="middle" x="369.69" y="-1040.3" font-family="Times,serif" font-size="14.00">:data:database</text>
</g>
<!-- :data:database&#45;&gt;:shared:domain -->
<g id="edge4" class="edge">
<title>:data:database&#45;&gt;:shared:domain</title>
<path fill="none" stroke="black" stroke-dasharray="1,5" d="M290.25,-1044C195.57,-1044 50,-1044 50,-1044 50,-1044 50,-640.01 50,-640.01"/>
<polygon fill="black" stroke="black" points="53.5,-640.01 50,-630.01 46.5,-640.01 53.5,-640.01"/>
</g>
<!-- :data:coverart -->
<g id="node6" class="node">
<title>:data:coverart</title>
<ellipse fill="#b59aff" stroke="black" cx="369.69" cy="-990" rx="76.09" ry="18"/>
<text text-anchor="middle" x="369.69" y="-986.3" font-family="Times,serif" font-size="14.00">:data:coverart</text>
</g>
<!-- :data:coverart&#45;&gt;:shared:domain -->
<g id="edge5" class="edge">
<title>:data:coverart&#45;&gt;:shared:domain</title>
<path fill="none" stroke="black" stroke-dasharray="1,5" d="M293.48,-990C202.65,-990 63,-990 63,-990 63,-990 63,-640.23 63,-640.23"/>
<polygon fill="black" stroke="black" points="66.5,-640.23 63,-630.23 59.5,-640.23 66.5,-640.23"/>
</g>
<!-- :data:wikimedia -->
<g id="node7" class="node">
<title>:data:wikimedia</title>
<ellipse fill="#b59aff" stroke="black" cx="369.69" cy="-936" rx="84.49" ry="18"/>
<text text-anchor="middle" x="369.69" y="-932.3" font-family="Times,serif" font-size="14.00">:data:wikimedia</text>
</g>
<!-- :data:wikimedia&#45;&gt;:shared:domain -->
<g id="edge6" class="edge">
<title>:data:wikimedia&#45;&gt;:shared:domain</title>
<path fill="none" stroke="black" stroke-dasharray="1,5" d="M285.13,-936C198.37,-936 76,-936 76,-936 76,-936 76,-640.35 76,-640.35"/>
<polygon fill="black" stroke="black" points="79.5,-640.35 76,-630.35 72.5,-640.35 79.5,-640.35"/>
</g>
<!-- :data:spotify -->
<g id="node8" class="node">
<title>:data:spotify</title>
<ellipse fill="#b59aff" stroke="black" cx="369.69" cy="-882" rx="68.79" ry="18"/>
<text text-anchor="middle" x="369.69" y="-878.3" font-family="Times,serif" font-size="14.00">:data:spotify</text>
</g>
<!-- :data:spotify&#45;&gt;:shared:domain -->
<g id="edge7" class="edge">
<title>:data:spotify&#45;&gt;:shared:domain</title>
<path fill="none" stroke="black" stroke-dasharray="1,5" d="M300.78,-882C217.39,-882 88,-882 88,-882 88,-882 88,-640.13 88,-640.13"/>
<polygon fill="black" stroke="black" points="91.5,-640.13 88,-630.13 84.5,-640.13 91.5,-640.13"/>
</g>
<!-- :data:musicbrainz -->
<g id="node9" class="node">
<title>:data:musicbrainz</title>
<ellipse fill="#b59aff" stroke="black" cx="369.69" cy="-828" rx="93.68" ry="18"/>
<text text-anchor="middle" x="369.69" y="-824.3" font-family="Times,serif" font-size="14.00">:data:musicbrainz</text>
</g>
<!-- :data:musicbrainz&#45;&gt;:shared:domain -->
<g id="edge8" class="edge">
<title>:data:musicbrainz&#45;&gt;:shared:domain</title>
<path fill="none" stroke="black" stroke-dasharray="1,5" d="M280,-822.54C280,-790.1 280,-624 280,-624 280,-624 137.29,-624 137.29,-624"/>
<polygon fill="black" stroke="black" points="137.29,-620.5 127.29,-624 137.29,-627.5 137.29,-620.5"/>
</g>
<!-- :data:repository -->
<g id="node10" class="node">
<title>:data:repository</title>
<ellipse fill="#b59aff" stroke="black" cx="369.69" cy="-774" rx="85.29" ry="18"/>
<text text-anchor="middle" x="369.69" y="-770.3" font-family="Times,serif" font-size="14.00">:data:repository</text>
</g>
<!-- :data:repository&#45;&gt;:shared:domain -->
<g id="edge9" class="edge">
<title>:data:repository&#45;&gt;:shared:domain</title>
<path fill="none" stroke="black" stroke-dasharray="1,5" d="M292,-766.48C292,-735.31 292,-618 292,-618 292,-618 137.15,-618 137.15,-618"/>
<polygon fill="black" stroke="black" points="137.15,-614.5 127.15,-618 137.15,-621.5 137.15,-614.5"/>
</g>
<!-- :ui:image -->
<g id="node11" class="node">
<title>:ui:image</title>
<ellipse fill="#b59aff" stroke="black" cx="369.69" cy="-720" rx="53.89" ry="18"/>
<text text-anchor="middle" x="369.69" y="-716.3" font-family="Times,serif" font-size="14.00">:ui:image</text>
</g>
<!-- :ui:image&#45;&gt;:shared:domain -->
<g id="edge10" class="edge">
<title>:ui:image&#45;&gt;:shared:domain</title>
<path fill="none" stroke="black" stroke-dasharray="1,5" d="M315.64,-720C237.18,-720 101,-720 101,-720 101,-720 101,-640.32 101,-640.32"/>
<polygon fill="black" stroke="black" points="104.5,-640.32 101,-630.32 97.5,-640.32 104.5,-640.32"/>
</g>
<!-- :ui:common -->
<g id="node12" class="node">
<title>:ui:common</title>
<ellipse fill="#b59aff" stroke="black" cx="369.69" cy="-666" rx="64.19" ry="18"/>
<text text-anchor="middle" x="369.69" y="-662.3" font-family="Times,serif" font-size="14.00">:ui:common</text>
</g>
<!-- :ui:common&#45;&gt;:shared:domain -->
<g id="edge11" class="edge">
<title>:ui:common&#45;&gt;:shared:domain</title>
<path fill="none" stroke="black" d="M305.17,-666C229.42,-666 114,-666 114,-666 114,-666 114,-640.28 114,-640.28"/>
<polygon fill="black" stroke="black" points="117.5,-640.28 114,-630.28 110.5,-640.28 117.5,-640.28"/>
</g>
<!-- :android:app -->
<g id="node13" class="node">
<title>:android:app</title>
<ellipse fill="#9affb5" stroke="black" cx="369.69" cy="-612" rx="69.59" ry="18"/>
<text text-anchor="middle" x="369.69" y="-608.3" font-family="Times,serif" font-size="14.00">:android:app</text>
</g>
<!-- :android:app&#45;&gt;:shared:domain -->
<g id="edge12" class="edge">
<title>:android:app&#45;&gt;:shared:domain</title>
<path fill="none" stroke="black" stroke-dasharray="1,5" d="M299.83,-612C299.83,-612 137.07,-612 137.07,-612"/>
<polygon fill="black" stroke="black" points="137.07,-608.5 127.07,-612 137.07,-615.5 137.07,-608.5"/>
</g>
<!-- :shared:feature:settings -->
<g id="node14" class="node">
<title>:shared:feature:settings</title>
<ellipse fill="#b59aff" stroke="black" cx="369.69" cy="-558" rx="122.38" ry="18"/>
<text text-anchor="middle" x="369.69" y="-554.3" font-family="Times,serif" font-size="14.00">:shared:feature:settings</text>
</g>
<!-- :shared:feature:settings&#45;&gt;:shared:domain -->
<g id="edge13" class="edge">
<title>:shared:feature:settings&#45;&gt;:shared:domain</title>
<path fill="none" stroke="black" stroke-dasharray="1,5" d="M261,-566.36C261,-580.11 261,-606 261,-606 261,-606 137.08,-606 137.08,-606"/>
<polygon fill="black" stroke="black" points="137.08,-602.5 127.08,-606 137.08,-609.5 137.08,-602.5"/>
</g>
<!-- :shared:feature:images -->
<g id="node15" class="node">
<title>:shared:feature:images</title>
<ellipse fill="#b59aff" stroke="black" cx="369.69" cy="-504" rx="118.08" ry="18"/>
<text text-anchor="middle" x="369.69" y="-500.3" font-family="Times,serif" font-size="14.00">:shared:feature:images</text>
</g>
<!-- :shared:feature:images&#45;&gt;:shared:domain -->
<g id="edge14" class="edge">
<title>:shared:feature:images&#45;&gt;:shared:domain</title>
<path fill="none" stroke="black" stroke-dasharray="1,5" d="M251.2,-504C184.32,-504 114,-504 114,-504 114,-504 114,-583.68 114,-583.68"/>
<polygon fill="black" stroke="black" points="110.5,-583.68 114,-593.68 117.5,-583.68 110.5,-583.68"/>
</g>
<!-- :shared:feature:search -->
<g id="node16" class="node">
<title>:shared:feature:search</title>
<ellipse fill="#b59aff" stroke="black" cx="369.69" cy="-450" rx="115.88" ry="18"/>
<text text-anchor="middle" x="369.69" y="-446.3" font-family="Times,serif" font-size="14.00">:shared:feature:search</text>
</g>
<!-- :shared:feature:search&#45;&gt;:shared:domain -->
<g id="edge15" class="edge">
<title>:shared:feature:search&#45;&gt;:shared:domain</title>
<path fill="none" stroke="black" stroke-dasharray="1,5" d="M253.79,-450C181.07,-450 101,-450 101,-450 101,-450 101,-583.73 101,-583.73"/>
<polygon fill="black" stroke="black" points="97.5,-583.73 101,-593.73 104.5,-583.73 97.5,-583.73"/>
</g>
<!-- :shared:feature:collections -->
<g id="node17" class="node">
<title>:shared:feature:collections</title>
<ellipse fill="#b59aff" stroke="black" cx="369.69" cy="-396" rx="133.78" ry="18"/>
<text text-anchor="middle" x="369.69" y="-392.3" font-family="Times,serif" font-size="14.00">:shared:feature:collections</text>
</g>
<!-- :shared:feature:collections&#45;&gt;:shared:domain -->
<g id="edge16" class="edge">
<title>:shared:feature:collections&#45;&gt;:shared:domain</title>
<path fill="none" stroke="black" stroke-dasharray="1,5" d="M241,-401.04C241,-432.46 241,-600 241,-600 241,-600 137.08,-600 137.08,-600"/>
<polygon fill="black" stroke="black" points="137.08,-596.5 127.08,-600 137.08,-603.5 137.08,-596.5"/>
</g>
<!-- :shared:feature:stats -->
<g id="node18" class="node">
<title>:shared:feature:stats</title>
<ellipse fill="#b59aff" stroke="black" cx="369.69" cy="-342" rx="107.78" ry="18"/>
<text text-anchor="middle" x="369.69" y="-338.3" font-family="Times,serif" font-size="14.00">:shared:feature:stats</text>
</g>
<!-- :shared:feature:stats&#45;&gt;:shared:domain -->
<g id="edge17" class="edge">
<title>:shared:feature:stats&#45;&gt;:shared:domain</title>
<path fill="none" stroke="black" stroke-dasharray="1,5" d="M261.59,-342C182.15,-342 88,-342 88,-342 88,-342 88,-583.87 88,-583.87"/>
<polygon fill="black" stroke="black" points="84.5,-583.87 88,-593.87 91.5,-583.87 84.5,-583.87"/>
</g>
<!-- :shared:feature:details -->
<g id="node19" class="node">
<title>:shared:feature:details</title>
<ellipse fill="#b59aff" stroke="black" cx="369.69" cy="-288" rx="116.18" ry="18"/>
<text text-anchor="middle" x="369.69" y="-284.3" font-family="Times,serif" font-size="14.00">:shared:feature:details</text>
</g>
<!-- :shared:feature:details&#45;&gt;:shared:domain -->
<g id="edge18" class="edge">
<title>:shared:feature:details&#45;&gt;:shared:domain</title>
<path fill="none" stroke="black" stroke-dasharray="1,5" d="M253.19,-288C171.2,-288 76,-288 76,-288 76,-288 76,-583.65 76,-583.65"/>
<polygon fill="black" stroke="black" points="72.5,-583.65 76,-593.65 79.5,-583.65 72.5,-583.65"/>
</g>
<!-- :shared:feature:history -->
<g id="node20" class="node">
<title>:shared:feature:history</title>
<ellipse fill="#b59aff" stroke="black" cx="369.69" cy="-234" rx="117.78" ry="18"/>
<text text-anchor="middle" x="369.69" y="-230.3" font-family="Times,serif" font-size="14.00">:shared:feature:history</text>
</g>
<!-- :shared:feature:history&#45;&gt;:shared:domain -->
<g id="edge19" class="edge">
<title>:shared:feature:history&#45;&gt;:shared:domain</title>
<path fill="none" stroke="black" stroke-dasharray="1,5" d="M251.99,-234C165.5,-234 63,-234 63,-234 63,-234 63,-583.77 63,-583.77"/>
<polygon fill="black" stroke="black" points="59.5,-583.77 63,-593.77 66.5,-583.77 59.5,-583.77"/>
</g>
<!-- :shared:feature:graph -->
<g id="node21" class="node">
<title>:shared:feature:graph</title>
<ellipse fill="#b59aff" stroke="black" cx="369.69" cy="-180" rx="112.38" ry="18"/>
<text text-anchor="middle" x="369.69" y="-176.3" font-family="Times,serif" font-size="14.00">:shared:feature:graph</text>
</g>
<!-- :shared:feature:graph&#45;&gt;:shared:domain -->
<g id="edge20" class="edge">
<title>:shared:feature:graph&#45;&gt;:shared:domain</title>
<path fill="none" stroke="black" stroke-dasharray="1,5" d="M256.98,-180C164.94,-180 50,-180 50,-180 50,-180 50,-583.99 50,-583.99"/>
<polygon fill="black" stroke="black" points="46.5,-583.99 50,-593.99 53.5,-583.99 46.5,-583.99"/>
</g>
<!-- :data:common:network -->
<g id="node22" class="node">
<title>:data:common:network</title>
<ellipse fill="#b59aff" stroke="black" cx="369.69" cy="-126" rx="116.98" ry="18"/>
<text text-anchor="middle" x="369.69" y="-122.3" font-family="Times,serif" font-size="14.00">:data:common:network</text>
</g>
<!-- :data:common:network&#45;&gt;:shared:domain -->
<g id="edge21" class="edge">
<title>:data:common:network&#45;&gt;:shared:domain</title>
<path fill="none" stroke="black" stroke-dasharray="1,5" d="M252.28,-126C156.86,-126 38,-126 38,-126 38,-126 38,-583.84 38,-583.84"/>
<polygon fill="black" stroke="black" points="34.5,-583.84 38,-593.84 41.5,-583.84 34.5,-583.84"/>
</g>
<!-- :android:feature:nowplaying -->
<g id="node23" class="node">
<title>:android:feature:nowplaying</title>
<ellipse fill="#9affb5" stroke="black" cx="369.69" cy="-72" rx="141.88" ry="18"/>
<text text-anchor="middle" x="369.69" y="-68.3" font-family="Times,serif" font-size="14.00">:android:feature:nowplaying</text>
</g>
<!-- :android:feature:nowplaying&#45;&gt;:shared:domain -->
<g id="edge22" class="edge">
<title>:android:feature:nowplaying&#45;&gt;:shared:domain</title>
<path fill="none" stroke="black" stroke-dasharray="1,5" d="M228,-72C132.93,-72 25,-72 25,-72 25,-72 25,-583.72 25,-583.72"/>
<polygon fill="black" stroke="black" points="21.5,-583.72 25,-593.72 28.5,-583.72 21.5,-583.72"/>
</g>
<!-- :android:feature:spotify -->
<g id="node24" class="node">
<title>:android:feature:spotify</title>
<ellipse fill="#9affb5" stroke="black" cx="369.69" cy="-18" rx="120.48" ry="18"/>
<text text-anchor="middle" x="369.69" y="-14.3" font-family="Times,serif" font-size="14.00">:android:feature:spotify</text>
</g>
<!-- :android:feature:spotify&#45;&gt;:shared:domain -->
<g id="edge23" class="edge">
<title>:android:feature:spotify&#45;&gt;:shared:domain</title>
<path fill="none" stroke="black" stroke-dasharray="1,5" d="M249.09,-18C145.25,-18 12,-18 12,-18 12,-18 12,-583.9 12,-583.9"/>
<polygon fill="black" stroke="black" points="8.5,-583.9 12,-593.9 15.5,-583.9 8.5,-583.9"/>
</g>
</g>
</svg>
