<?xml version="1.0" encoding="UTF-8" standalone="no"?>
<!DOCTYPE svg PUBLIC "-//W3C//DTD SVG 1.1//EN"
 "http://www.w3.org/Graphics/SVG/1.1/DTD/svg11.dtd">
<!-- Generated by graphviz version 2.43.0 (0)
 -->
<!-- Title: %3 Pages: 1 -->
<svg width="557pt" height="928pt"
 viewBox="0.00 0.00 557.46 928.00" xmlns="http://www.w3.org/2000/svg" xmlns:xlink="http://www.w3.org/1999/xlink">
<g id="graph0" class="graph" transform="scale(1 1) rotate(0) translate(4 924)">
<title>%3</title>
<polygon fill="white" stroke="transparent" points="-4,4 -4,-924 553.46,-924 553.46,4 -4,4"/>
<text text-anchor="middle" x="274.73" y="-892" font-family="Times,serif" font-size="30.00">Dependents</text>
<text text-anchor="middle" x="274.73" y="-859" font-family="Times,serif" font-size="30.00"> </text>
<!-- :shared:domain -->
<g id="node1" class="node">
<title>:shared:domain</title>
<ellipse fill="#b59aff" stroke="black" cx="82.54" cy="-423" rx="82.59" ry="18"/>
<text text-anchor="middle" x="82.54" y="-419.3" font-family="Times,serif" font-size="14.00">:shared:domain</text>
</g>
<!-- :shared -->
<g id="node2" class="node">
<title>:shared</title>
<ellipse fill="#b59aff" stroke="black" cx="407.77" cy="-828" rx="45.49" ry="18"/>
<text text-anchor="middle" x="407.77" y="-824.3" font-family="Times,serif" font-size="14.00">:shared</text>
</g>
<!-- :shared&#45;&gt;:shared:domain -->
<g id="edge1" class="edge">
<title>:shared&#45;&gt;:shared:domain</title>
<path fill="none" stroke="black" stroke-dasharray="1,5" d="M362.15,-828C259.65,-828 20,-828 20,-828 20,-828 20,-445.12 20,-445.12"/>
<polygon fill="black" stroke="black" points="23.5,-445.12 20,-435.12 16.5,-445.12 23.5,-445.12"/>
</g>
<!-- :test&#45;data -->
<g id="node3" class="node">
<title>:test&#45;data</title>
<ellipse fill="#b59aff" stroke="black" cx="407.77" cy="-774" rx="55.49" ry="18"/>
<text text-anchor="middle" x="407.77" y="-770.3" font-family="Times,serif" font-size="14.00">:test&#45;data</text>
</g>
<!-- :test&#45;data&#45;&gt;:shared:domain -->
<g id="edge2" class="edge">
<title>:test&#45;data&#45;&gt;:shared:domain</title>
<path fill="none" stroke="black" stroke-dasharray="1,5" d="M352.47,-774C250,-774 41,-774 41,-774 41,-774 41,-448.99 41,-448.99"/>
<polygon fill="black" stroke="black" points="44.5,-448.99 41,-438.99 37.5,-448.99 44.5,-448.99"/>
</g>
<!-- :data:coverart -->
<g id="node4" class="node">
<title>:data:coverart</title>
<ellipse fill="#b59aff" stroke="black" cx="407.77" cy="-720" rx="76.09" ry="18"/>
<text text-anchor="middle" x="407.77" y="-716.3" font-family="Times,serif" font-size="14.00">:data:coverart</text>
</g>
<!-- :data:coverart&#45;&gt;:shared:domain -->
<g id="edge3" class="edge">
<title>:data:coverart&#45;&gt;:shared:domain</title>
<path fill="none" stroke="black" stroke-dasharray="1,5" d="M331.67,-720C229.59,-720 61,-720 61,-720 61,-720 61,-450.69 61,-450.69"/>
<polygon fill="black" stroke="black" points="64.5,-450.69 61,-440.69 57.5,-450.69 64.5,-450.69"/>
</g>
<!-- :data:spotify -->
<g id="node5" class="node">
<title>:data:spotify</title>
<ellipse fill="#b59aff" stroke="black" cx="407.77" cy="-666" rx="68.79" ry="18"/>
<text text-anchor="middle" x="407.77" y="-662.3" font-family="Times,serif" font-size="14.00">:data:spotify</text>
</g>
<!-- :data:spotify&#45;&gt;:shared:domain -->
<g id="edge4" class="edge">
<title>:data:spotify&#45;&gt;:shared:domain</title>
<path fill="none" stroke="black" stroke-dasharray="1,5" d="M338.68,-666C243.06,-666 82,-666 82,-666 82,-666 82,-451.26 82,-451.26"/>
<polygon fill="black" stroke="black" points="85.5,-451.26 82,-441.26 78.5,-451.26 85.5,-451.26"/>
</g>
<!-- :data:repository -->
<g id="node6" class="node">
<title>:data:repository</title>
<ellipse fill="#b59aff" stroke="black" cx="407.77" cy="-612" rx="85.29" ry="18"/>
<text text-anchor="middle" x="407.77" y="-608.3" font-family="Times,serif" font-size="14.00">:data:repository</text>
</g>
<!-- :data:repository&#45;&gt;:shared:domain -->
<g id="edge5" class="edge">
<title>:data:repository&#45;&gt;:shared:domain</title>
<path fill="none" stroke="black" stroke-dasharray="1,5" d="M322.47,-612C232.31,-612 103,-612 103,-612 103,-612 103,-450.44 103,-450.44"/>
<polygon fill="black" stroke="black" points="106.5,-450.44 103,-440.44 99.5,-450.44 106.5,-450.44"/>
</g>
<!-- :ui:common -->
<g id="node7" class="node">
<title>:ui:common</title>
<ellipse fill="#b59aff" stroke="black" cx="407.77" cy="-558" rx="64.19" ry="18"/>
<text text-anchor="middle" x="407.77" y="-554.3" font-family="Times,serif" font-size="14.00">:ui:common</text>
</g>
<!-- :ui:common&#45;&gt;:shared:domain -->
<g id="edge6" class="edge">
<title>:ui:common&#45;&gt;:shared:domain</title>
<path fill="none" stroke="black" stroke-dasharray="1,5" d="M343.15,-558C259.13,-558 123,-558 123,-558 123,-558 123,-448.75 123,-448.75"/>
<polygon fill="black" stroke="black" points="126.5,-448.75 123,-438.75 119.5,-448.75 126.5,-448.75"/>
</g>
<!-- :shared:feature:settings -->
<g id="node8" class="node">
<title>:shared:feature:settings</title>
<ellipse fill="#b59aff" stroke="black" cx="407.77" cy="-504" rx="122.38" ry="18"/>
<text text-anchor="middle" x="407.77" y="-500.3" font-family="Times,serif" font-size="14.00">:shared:feature:settings</text>
</g>
<!-- :shared:feature:settings&#45;&gt;:shared:domain -->
<g id="edge7" class="edge">
<title>:shared:feature:settings&#45;&gt;:shared:domain</title>
<path fill="none" stroke="black" stroke-dasharray="1,5" d="M285.54,-504C216.54,-504 144,-504 144,-504 144,-504 144,-445.3 144,-445.3"/>
<polygon fill="black" stroke="black" points="147.5,-445.3 144,-435.3 140.5,-445.3 147.5,-445.3"/>
</g>
<!-- :shared:feature:images -->
<g id="node9" class="node">
<title>:shared:feature:images</title>
<ellipse fill="#b59aff" stroke="black" cx="407.77" cy="-450" rx="118.08" ry="18"/>
<text text-anchor="middle" x="407.77" y="-446.3" font-family="Times,serif" font-size="14.00">:shared:feature:images</text>
</g>
<!-- :shared:feature:images&#45;&gt;:shared:domain -->
<g id="edge8" class="edge">
<title>:shared:feature:images&#45;&gt;:shared:domain</title>
<path fill="none" stroke="black" stroke-dasharray="1,5" d="M329.46,-436.5C329.46,-436.5 147.28,-436.5 147.28,-436.5"/>
<polygon fill="black" stroke="black" points="147.28,-433 137.28,-436.5 147.28,-440 147.28,-433"/>
</g>
<!-- :shared:feature:search -->
<g id="node10" class="node">
<title>:shared:feature:search</title>
<ellipse fill="#b59aff" stroke="black" cx="407.77" cy="-396" rx="115.88" ry="18"/>
<text text-anchor="middle" x="407.77" y="-392.3" font-family="Times,serif" font-size="14.00">:shared:feature:search</text>
</g>
<!-- :shared:feature:search&#45;&gt;:shared:domain -->
<g id="edge9" class="edge">
<title>:shared:feature:search&#45;&gt;:shared:domain</title>
<path fill="none" stroke="black" stroke-dasharray="1,5" d="M351.49,-411.75C351.49,-411.75 157.06,-411.75 157.06,-411.75"/>
<polygon fill="black" stroke="black" points="157.06,-408.25 147.06,-411.75 157.06,-415.25 157.06,-408.25"/>
</g>
<!-- :shared:feature:collections -->
<g id="node11" class="node">
<title>:shared:feature:collections</title>
<ellipse fill="#b59aff" stroke="black" cx="407.77" cy="-342" rx="133.78" ry="18"/>
<text text-anchor="middle" x="407.77" y="-338.3" font-family="Times,serif" font-size="14.00">:shared:feature:collections</text>
</g>
<!-- :shared:feature:collections&#45;&gt;:shared:domain -->
<g id="edge10" class="edge">
<title>:shared:feature:collections&#45;&gt;:shared:domain</title>
<path fill="none" stroke="black" stroke-dasharray="1,5" d="M279,-347.3C279,-363.21 279,-409.5 279,-409.5 279,-409.5 147.27,-409.5 147.27,-409.5"/>
<polygon fill="black" stroke="black" points="147.27,-406 137.27,-409.5 147.27,-413 147.27,-406"/>
</g>
<!-- :shared:feature:stats -->
<g id="node12" class="node">
<title>:shared:feature:stats</title>
<ellipse fill="#b59aff" stroke="black" cx="407.77" cy="-288" rx="107.78" ry="18"/>
<text text-anchor="middle" x="407.77" y="-284.3" font-family="Times,serif" font-size="14.00">:shared:feature:stats</text>
</g>
<!-- :shared:feature:stats&#45;&gt;:shared:domain -->
<g id="edge11" class="edge">
<title>:shared:feature:stats&#45;&gt;:shared:domain</title>
<path fill="none" stroke="black" stroke-dasharray="1,5" d="M299.59,-288C224.17,-288 137,-288 137,-288 137,-288 137,-399.31 137,-399.31"/>
<polygon fill="black" stroke="black" points="133.5,-399.31 137,-409.31 140.5,-399.31 133.5,-399.31"/>
</g>
<!-- :shared:feature:details -->
<g id="node13" class="node">
<title>:shared:feature:details</title>
<ellipse fill="#b59aff" stroke="black" cx="407.77" cy="-234" rx="116.18" ry="18"/>
<text text-anchor="middle" x="407.77" y="-230.3" font-family="Times,serif" font-size="14.00">:shared:feature:details</text>
</g>
<!-- :shared:feature:details&#45;&gt;:shared:domain -->
<g id="edge12" class="edge">
<title>:shared:feature:details&#45;&gt;:shared:domain</title>
<path fill="none" stroke="black" stroke-dasharray="1,5" d="M291.37,-234C207.85,-234 110,-234 110,-234 110,-234 110,-395.89 110,-395.89"/>
<polygon fill="black" stroke="black" points="106.5,-395.89 110,-405.89 113.5,-395.89 106.5,-395.89"/>
</g>
<!-- :shared:feature:history -->
<g id="node14" class="node">
<title>:shared:feature:history</title>
<ellipse fill="#b59aff" stroke="black" cx="407.77" cy="-180" rx="117.78" ry="18"/>
<text text-anchor="middle" x="407.77" y="-176.3" font-family="Times,serif" font-size="14.00">:shared:feature:history</text>
</g>
<!-- :shared:feature:history&#45;&gt;:shared:domain -->
<g id="edge13" class="edge">
<title>:shared:feature:history&#45;&gt;:shared:domain</title>
<path fill="none" stroke="black" stroke-dasharray="1,5" d="M289.7,-180C196.47,-180 82,-180 82,-180 82,-180 82,-394.74 82,-394.74"/>
<polygon fill="black" stroke="black" points="78.5,-394.74 82,-404.74 85.5,-394.74 78.5,-394.74"/>
</g>
<!-- :shared:feature:graph -->
<g id="node15" class="node">
<title>:shared:feature:graph</title>
<ellipse fill="#b59aff" stroke="black" cx="407.77" cy="-126" rx="112.38" ry="18"/>
<text text-anchor="middle" x="407.77" y="-122.3" font-family="Times,serif" font-size="14.00">:shared:feature:graph</text>
</g>
<!-- :shared:feature:graph&#45;&gt;:shared:domain -->
<g id="edge14" class="edge">
<title>:shared:feature:graph&#45;&gt;:shared:domain</title>
<path fill="none" stroke="black" stroke-dasharray="1,5" d="M295.18,-126C191.94,-126 55,-126 55,-126 55,-126 55,-395.75 55,-395.75"/>
<polygon fill="black" stroke="black" points="51.5,-395.75 55,-405.75 58.5,-395.75 51.5,-395.75"/>
</g>
<!-- :android:feature:nowplaying -->
<g id="node16" class="node">
<title>:android:feature:nowplaying</title>
<ellipse fill="#9affb5" stroke="black" cx="407.77" cy="-72" rx="141.88" ry="18"/>
<text text-anchor="middle" x="407.77" y="-68.3" font-family="Times,serif" font-size="14.00">:android:feature:nowplaying</text>
</g>
<!-- :android:feature:nowplaying&#45;&gt;:shared:domain -->
<g id="edge15" class="edge">
<title>:android:feature:nowplaying&#45;&gt;:shared:domain</title>
<path fill="none" stroke="black" stroke-dasharray="1,5" d="M269,-75.77C269,-112.6 269,-407.25 269,-407.25 269,-407.25 132.54,-407.25 132.54,-407.25"/>
<polygon fill="black" stroke="black" points="132.54,-403.75 122.54,-407.25 132.54,-410.75 132.54,-403.75"/>
</g>
<!-- :android:feature:spotify -->
<g id="node17" class="node">
<title>:android:feature:spotify</title>
<ellipse fill="#9affb5" stroke="black" cx="407.77" cy="-18" rx="120.48" ry="18"/>
<text text-anchor="middle" x="407.77" y="-14.3" font-family="Times,serif" font-size="14.00">:android:feature:spotify</text>
</g>
<!-- :android:feature:spotify&#45;&gt;:shared:domain -->
<g id="edge16" class="edge">
<title>:android:feature:spotify&#45;&gt;:shared:domain</title>
<path fill="none" stroke="black" stroke-dasharray="1,5" d="M287.29,-18C175.74,-18 27,-18 27,-18 27,-18 27,-399.52 27,-399.52"/>
<polygon fill="black" stroke="black" points="23.5,-399.52 27,-409.52 30.5,-399.52 23.5,-399.52"/>
</g>
</g>
</svg>
