<?xml version="1.0" encoding="UTF-8" standalone="no"?>
<!DOCTYPE svg PUBLIC "-//W3C//DTD SVG 1.1//EN"
 "http://www.w3.org/Graphics/SVG/1.1/DTD/svg11.dtd">
<!-- Generated by graphviz version 2.43.0 (0)
 -->
<!-- Title: %3 Pages: 1 -->
<svg width="512pt" height="1306pt"
 viewBox="0.00 0.00 511.58 1306.00" xmlns="http://www.w3.org/2000/svg" xmlns:xlink="http://www.w3.org/1999/xlink">
<g id="graph0" class="graph" transform="scale(1 1) rotate(0) translate(4 1302)">
<title>%3</title>
<polygon fill="white" stroke="transparent" points="-4,4 -4,-1302 507.58,-1302 507.58,4 -4,4"/>
<text text-anchor="middle" x="251.79" y="-1270" font-family="Times,serif" font-size="30.00">Dependents</text>
<text text-anchor="middle" x="251.79" y="-1237" font-family="Times,serif" font-size="30.00"> </text>
<!-- :shared:domain -->
<g id="node1" class="node">
<title>:shared:domain</title>
<polygon fill="#b59aff" stroke="black" points="127,-630 0,-630 0,-594 127,-594 127,-630"/>
<text text-anchor="middle" x="63.5" y="-608.3" font-family="Times,serif" font-size="14.00">:shared:domain</text>
</g>
<!-- :shared -->
<g id="node2" class="node">
<title>:shared</title>
<ellipse fill="#b59aff" stroke="black" cx="365.79" cy="-1206" rx="45.49" ry="18"/>
<text text-anchor="middle" x="365.79" y="-1202.3" font-family="Times,serif" font-size="14.00">:shared</text>
</g>
<!-- :shared&#45;&gt;:shared:domain -->
<g id="edge1" class="edge">
<title>:shared&#45;&gt;:shared:domain</title>
<path fill="none" stroke="black" stroke-dasharray="1,5" d="M320,-1206C223.91,-1206 10,-1206 10,-1206 10,-1206 10,-640.1 10,-640.1"/>
<polygon fill="black" stroke="black" points="13.5,-640.1 10,-630.1 6.5,-640.1 13.5,-640.1"/>
</g>
<!-- :test&#45;data -->
<g id="node3" class="node">
<title>:test&#45;data</title>
<ellipse fill="#b59aff" stroke="black" cx="365.79" cy="-1152" rx="55.49" ry="18"/>
<text text-anchor="middle" x="365.79" y="-1148.3" font-family="Times,serif" font-size="14.00">:test&#45;data</text>
</g>
<!-- :test&#45;data&#45;&gt;:shared:domain -->
<g id="edge2" class="edge">
<title>:test&#45;data&#45;&gt;:shared:domain</title>
<path fill="none" stroke="black" stroke-dasharray="1,5" d="M310.39,-1152C212.93,-1152 21,-1152 21,-1152 21,-1152 21,-640.28 21,-640.28"/>
<polygon fill="black" stroke="black" points="24.5,-640.28 21,-630.28 17.5,-640.28 24.5,-640.28"/>
</g>
<!-- :core:preferences -->
<g id="node4" class="node">
<title>:core:preferences</title>
<ellipse fill="#b59aff" stroke="black" cx="365.79" cy="-1098" rx="91.78" ry="18"/>
<text text-anchor="middle" x="365.79" y="-1094.3" font-family="Times,serif" font-size="14.00">:core:preferences</text>
</g>
<!-- :core:preferences&#45;&gt;:shared:domain -->
<g id="edge3" class="edge">
<title>:core:preferences&#45;&gt;:shared:domain</title>
<path fill="none" stroke="black" stroke-dasharray="1,5" d="M273.86,-1098C174.75,-1098 31,-1098 31,-1098 31,-1098 31,-640.16 31,-640.16"/>
<polygon fill="black" stroke="black" points="34.5,-640.16 31,-630.16 27.5,-640.16 34.5,-640.16"/>
</g>
<!-- :data:database -->
<g id="node5" class="node">
<title>:data:database</title>
<ellipse fill="#b59aff" stroke="black" cx="365.79" cy="-1044" rx="79.09" ry="18"/>
<text text-anchor="middle" x="365.79" y="-1040.3" font-family="Times,serif" font-size="14.00">:data:database</text>
</g>
<!-- :data:database&#45;&gt;:shared:domain -->
<g id="edge4" class="edge">
<title>:data:database&#45;&gt;:shared:domain</title>
<path fill="none" stroke="black" stroke-dasharray="1,5" d="M286.17,-1044C190.3,-1044 42,-1044 42,-1044 42,-1044 42,-640.01 42,-640.01"/>
<polygon fill="black" stroke="black" points="45.5,-640.01 42,-630.01 38.5,-640.01 45.5,-640.01"/>
</g>
<!-- :data:coverart -->
<g id="node6" class="node">
<title>:data:coverart</title>
<ellipse fill="#b59aff" stroke="black" cx="365.79" cy="-990" rx="76.09" ry="18"/>
<text text-anchor="middle" x="365.79" y="-986.3" font-family="Times,serif" font-size="14.00">:data:coverart</text>
</g>
<!-- :data:coverart&#45;&gt;:shared:domain -->
<g id="edge5" class="edge">
<title>:data:coverart&#45;&gt;:shared:domain</title>
<path fill="none" stroke="black" stroke-dasharray="1,5" d="M289.43,-990C196.55,-990 52,-990 52,-990 52,-990 52,-640.23 52,-640.23"/>
<polygon fill="black" stroke="black" points="55.5,-640.23 52,-630.23 48.5,-640.23 55.5,-640.23"/>
</g>
<!-- :data:wikimedia -->
<g id="node7" class="node">
<title>:data:wikimedia</title>
<ellipse fill="#b59aff" stroke="black" cx="365.79" cy="-936" rx="84.49" ry="18"/>
<text text-anchor="middle" x="365.79" y="-932.3" font-family="Times,serif" font-size="14.00">:data:wikimedia</text>
</g>
<!-- :data:wikimedia&#45;&gt;:shared:domain -->
<g id="edge6" class="edge">
<title>:data:wikimedia&#45;&gt;:shared:domain</title>
<path fill="none" stroke="black" stroke-dasharray="1,5" d="M281.04,-936C191.47,-936 63,-936 63,-936 63,-936 63,-640.35 63,-640.35"/>
<polygon fill="black" stroke="black" points="66.5,-640.35 63,-630.35 59.5,-640.35 66.5,-640.35"/>
</g>
<!-- :data:spotify -->
<g id="node8" class="node">
<title>:data:spotify</title>
<ellipse fill="#b59aff" stroke="black" cx="365.79" cy="-882" rx="68.79" ry="18"/>
<text text-anchor="middle" x="365.79" y="-878.3" font-family="Times,serif" font-size="14.00">:data:spotify</text>
</g>
<!-- :data:spotify&#45;&gt;:shared:domain -->
<g id="edge7" class="edge">
<title>:data:spotify&#45;&gt;:shared:domain</title>
<path fill="none" stroke="black" stroke-dasharray="1,5" d="M296.64,-882C210.35,-882 74,-882 74,-882 74,-882 74,-640.13 74,-640.13"/>
<polygon fill="black" stroke="black" points="77.5,-640.13 74,-630.13 70.5,-640.13 77.5,-640.13"/>
</g>
<!-- :data:musicbrainz -->
<g id="node9" class="node">
<title>:data:musicbrainz</title>
<ellipse fill="#b59aff" stroke="black" cx="365.79" cy="-828" rx="93.68" ry="18"/>
<text text-anchor="middle" x="365.79" y="-824.3" font-family="Times,serif" font-size="14.00">:data:musicbrainz</text>
</g>
<!-- :data:musicbrainz&#45;&gt;:shared:domain -->
<g id="edge8" class="edge">
<title>:data:musicbrainz&#45;&gt;:shared:domain</title>
<path fill="none" stroke="black" stroke-dasharray="1,5" d="M271.96,-828C189.98,-828 84,-828 84,-828 84,-828 84,-640.04 84,-640.04"/>
<polygon fill="black" stroke="black" points="87.5,-640.04 84,-630.04 80.5,-640.04 87.5,-640.04"/>
</g>
<!-- :data:repository -->
<g id="node10" class="node">
<title>:data:repository</title>
<ellipse fill="#b59aff" stroke="black" cx="365.79" cy="-774" rx="85.29" ry="18"/>
<text text-anchor="middle" x="365.79" y="-770.3" font-family="Times,serif" font-size="14.00">:data:repository</text>
</g>
<!-- :data:repository&#45;&gt;:shared:domain -->
<g id="edge9" class="edge">
<title>:data:repository&#45;&gt;:shared:domain</title>
<path fill="none" stroke="black" stroke-dasharray="1,5" d="M280.48,-774C201.11,-774 95,-774 95,-774 95,-774 95,-640.27 95,-640.27"/>
<polygon fill="black" stroke="black" points="98.5,-640.27 95,-630.27 91.5,-640.27 98.5,-640.27"/>
</g>
<!-- :ui:common -->
<g id="node11" class="node">
<title>:ui:common</title>
<ellipse fill="#b59aff" stroke="black" cx="365.79" cy="-720" rx="64.19" ry="18"/>
<text text-anchor="middle" x="365.79" y="-716.3" font-family="Times,serif" font-size="14.00">:ui:common</text>
</g>
<!-- :ui:common&#45;&gt;:shared:domain -->
<g id="edge10" class="edge">
<title>:ui:common&#45;&gt;:shared:domain</title>
<path fill="none" stroke="black" d="M301.32,-720C224.1,-720 105,-720 105,-720 105,-720 105,-640.32 105,-640.32"/>
<polygon fill="black" stroke="black" points="108.5,-640.32 105,-630.32 101.5,-640.32 108.5,-640.32"/>
</g>
<!-- :android:app -->
<g id="node12" class="node">
<title>:android:app</title>
<ellipse fill="#9affb5" stroke="black" cx="365.79" cy="-666" rx="69.59" ry="18"/>
<text text-anchor="middle" x="365.79" y="-662.3" font-family="Times,serif" font-size="14.00">:android:app</text>
</g>
<!-- :android:app&#45;&gt;:shared:domain -->
<g id="edge11" class="edge">
<title>:android:app&#45;&gt;:shared:domain</title>
<path fill="none" stroke="black" stroke-dasharray="1,5" d="M296.21,-666C222.3,-666 116,-666 116,-666 116,-666 116,-640.28 116,-640.28"/>
<polygon fill="black" stroke="black" points="119.5,-640.28 116,-630.28 112.5,-640.28 119.5,-640.28"/>
</g>
<!-- :shared:feature:settings -->
<g id="node13" class="node">
<title>:shared:feature:settings</title>
<ellipse fill="#b59aff" stroke="black" cx="365.79" cy="-612" rx="122.38" ry="18"/>
<text text-anchor="middle" x="365.79" y="-608.3" font-family="Times,serif" font-size="14.00">:shared:feature:settings</text>
</g>
<!-- :shared:feature:settings&#45;&gt;:shared:domain -->
<g id="edge12" class="edge">
<title>:shared:feature:settings&#45;&gt;:shared:domain</title>
<path fill="none" stroke="black" stroke-dasharray="1,5" d="M250.21,-618C250.21,-618 137.4,-618 137.4,-618"/>
<polygon fill="black" stroke="black" points="137.4,-614.5 127.4,-618 137.4,-621.5 137.4,-614.5"/>
</g>
<!-- :shared:feature:database -->
<g id="node14" class="node">
<title>:shared:feature:database</title>
<ellipse fill="#b59aff" stroke="black" cx="365.79" cy="-558" rx="126.98" ry="18"/>
<text text-anchor="middle" x="365.79" y="-554.3" font-family="Times,serif" font-size="14.00">:shared:feature:database</text>
</g>
<!-- :shared:feature:database&#45;&gt;:shared:domain -->
<g id="edge13" class="edge">
<title>:shared:feature:database&#45;&gt;:shared:domain</title>
<path fill="none" stroke="black" stroke-dasharray="1,5" d="M238.92,-558C176.72,-558 115,-558 115,-558 115,-558 115,-583.72 115,-583.72"/>
<polygon fill="black" stroke="black" points="111.5,-583.72 115,-593.72 118.5,-583.72 111.5,-583.72"/>
</g>
<!-- :shared:feature:images -->
<g id="node15" class="node">
<title>:shared:feature:images</title>
<ellipse fill="#b59aff" stroke="black" cx="365.79" cy="-504" rx="118.08" ry="18"/>
<text text-anchor="middle" x="365.79" y="-500.3" font-family="Times,serif" font-size="14.00">:shared:feature:images</text>
</g>
<!-- :shared:feature:images&#45;&gt;:shared:domain -->
<g id="edge14" class="edge">
<title>:shared:feature:images&#45;&gt;:shared:domain</title>
<path fill="none" stroke="black" stroke-dasharray="1,5" d="M247.46,-504C177.71,-504 103,-504 103,-504 103,-504 103,-583.68 103,-583.68"/>
<polygon fill="black" stroke="black" points="99.5,-583.68 103,-593.68 106.5,-583.68 99.5,-583.68"/>
</g>
<!-- :shared:feature:search -->
<g id="node16" class="node">
<title>:shared:feature:search</title>
<ellipse fill="#b59aff" stroke="black" cx="365.79" cy="-450" rx="115.88" ry="18"/>
<text text-anchor="middle" x="365.79" y="-446.3" font-family="Times,serif" font-size="14.00">:shared:feature:search</text>
</g>
<!-- :shared:feature:search&#45;&gt;:shared:domain -->
<g id="edge15" class="edge">
<title>:shared:feature:search&#45;&gt;:shared:domain</title>
<path fill="none" stroke="black" stroke-dasharray="1,5" d="M250.07,-450C175.35,-450 92,-450 92,-450 92,-450 92,-583.73 92,-583.73"/>
<polygon fill="black" stroke="black" points="88.5,-583.73 92,-593.73 95.5,-583.73 88.5,-583.73"/>
</g>
<!-- :shared:feature:nowplaying -->
<g id="node17" class="node">
<title>:shared:feature:nowplaying</title>
<ellipse fill="#b59aff" stroke="black" cx="365.79" cy="-396" rx="137.58" ry="18"/>
<text text-anchor="middle" x="365.79" y="-392.3" font-family="Times,serif" font-size="14.00">:shared:feature:nowplaying</text>
</g>
<!-- :shared:feature:nowplaying&#45;&gt;:shared:domain -->
<g id="edge16" class="edge">
<title>:shared:feature:nowplaying&#45;&gt;:shared:domain</title>
<path fill="none" stroke="black" stroke-dasharray="1,5" d="M233,-401.19C233,-433.53 233,-606 233,-606 233,-606 137.1,-606 137.1,-606"/>
<polygon fill="black" stroke="black" points="137.1,-602.5 127.1,-606 137.1,-609.5 137.1,-602.5"/>
</g>
<!-- :shared:feature:collections -->
<g id="node18" class="node">
<title>:shared:feature:collections</title>
<ellipse fill="#b59aff" stroke="black" cx="365.79" cy="-342" rx="133.78" ry="18"/>
<text text-anchor="middle" x="365.79" y="-338.3" font-family="Times,serif" font-size="14.00">:shared:feature:collections</text>
</g>
<!-- :shared:feature:collections&#45;&gt;:shared:domain -->
<g id="edge17" class="edge">
<title>:shared:feature:collections&#45;&gt;:shared:domain</title>
<path fill="none" stroke="black" stroke-dasharray="1,5" d="M231.68,-342C157.43,-342 80,-342 80,-342 80,-342 80,-583.87 80,-583.87"/>
<polygon fill="black" stroke="black" points="76.5,-583.87 80,-593.87 83.5,-583.87 76.5,-583.87"/>
</g>
<!-- :shared:feature:stats -->
<g id="node19" class="node">
<title>:shared:feature:stats</title>
<ellipse fill="#b59aff" stroke="black" cx="365.79" cy="-288" rx="107.78" ry="18"/>
<text text-anchor="middle" x="365.79" y="-284.3" font-family="Times,serif" font-size="14.00">:shared:feature:stats</text>
</g>
<!-- :shared:feature:stats&#45;&gt;:shared:domain -->
<g id="edge18" class="edge">
<title>:shared:feature:stats&#45;&gt;:shared:domain</title>
<path fill="none" stroke="black" stroke-dasharray="1,5" d="M257.8,-288C172.94,-288 69,-288 69,-288 69,-288 69,-583.65 69,-583.65"/>
<polygon fill="black" stroke="black" points="65.5,-583.65 69,-593.65 72.5,-583.65 65.5,-583.65"/>
</g>
<!-- :shared:feature:spotify -->
<g id="node20" class="node">
<title>:shared:feature:spotify</title>
<ellipse fill="#b59aff" stroke="black" cx="365.79" cy="-234" rx="116.18" ry="18"/>
<text text-anchor="middle" x="365.79" y="-230.3" font-family="Times,serif" font-size="14.00">:shared:feature:spotify</text>
</g>
<!-- :shared:feature:spotify&#45;&gt;:shared:domain -->
<g id="edge19" class="edge">
<title>:shared:feature:spotify&#45;&gt;:shared:domain</title>
<path fill="none" stroke="black" stroke-dasharray="1,5" d="M249.05,-234C161.61,-234 57,-234 57,-234 57,-234 57,-583.77 57,-583.77"/>
<polygon fill="black" stroke="black" points="53.5,-583.77 57,-593.77 60.5,-583.77 53.5,-583.77"/>
</g>
<!-- :shared:feature:details -->
<g id="node21" class="node">
<title>:shared:feature:details</title>
<ellipse fill="#b59aff" stroke="black" cx="365.79" cy="-180" rx="116.18" ry="18"/>
<text text-anchor="middle" x="365.79" y="-176.3" font-family="Times,serif" font-size="14.00">:shared:feature:details</text>
</g>
<!-- :shared:feature:details&#45;&gt;:shared:domain -->
<g id="edge20" class="edge">
<title>:shared:feature:details&#45;&gt;:shared:domain</title>
<path fill="none" stroke="black" stroke-dasharray="1,5" d="M249.43,-180C158,-180 46,-180 46,-180 46,-180 46,-583.99 46,-583.99"/>
<polygon fill="black" stroke="black" points="42.5,-583.99 46,-593.99 49.5,-583.99 42.5,-583.99"/>
</g>
<!-- :shared:feature:history -->
<g id="node22" class="node">
<title>:shared:feature:history</title>
<ellipse fill="#b59aff" stroke="black" cx="365.79" cy="-126" rx="117.78" ry="18"/>
<text text-anchor="middle" x="365.79" y="-122.3" font-family="Times,serif" font-size="14.00">:shared:feature:history</text>
</g>
<!-- :shared:feature:history&#45;&gt;:shared:domain -->
<g id="edge21" class="edge">
<title>:shared:feature:history&#45;&gt;:shared:domain</title>
<path fill="none" stroke="black" stroke-dasharray="1,5" d="M247.88,-126C152.51,-126 34,-126 34,-126 34,-126 34,-583.84 34,-583.84"/>
<polygon fill="black" stroke="black" points="30.5,-583.84 34,-593.84 37.5,-583.84 30.5,-583.84"/>
</g>
<!-- :shared:feature:graph -->
<g id="node23" class="node">
<title>:shared:feature:graph</title>
<ellipse fill="#b59aff" stroke="black" cx="365.79" cy="-72" rx="112.38" ry="18"/>
<text text-anchor="middle" x="365.79" y="-68.3" font-family="Times,serif" font-size="14.00">:shared:feature:graph</text>
</g>
<!-- :shared:feature:graph&#45;&gt;:shared:domain -->
<g id="edge22" class="edge">
<title>:shared:feature:graph&#45;&gt;:shared:domain</title>
<path fill="none" stroke="black" stroke-dasharray="1,5" d="M253.07,-72C153.16,-72 23,-72 23,-72 23,-72 23,-583.72 23,-583.72"/>
<polygon fill="black" stroke="black" points="19.5,-583.72 23,-593.72 26.5,-583.72 19.5,-583.72"/>
</g>
<!-- :data:common:network -->
<g id="node24" class="node">
<title>:data:common:network</title>
<ellipse fill="#b59aff" stroke="black" cx="365.79" cy="-18" rx="116.98" ry="18"/>
<text text-anchor="middle" x="365.79" y="-14.3" font-family="Times,serif" font-size="14.00">:data:common:network</text>
</g>
<!-- :data:common:network&#45;&gt;:shared:domain -->
<g id="edge23" class="edge">
<title>:data:common:network&#45;&gt;:shared:domain</title>
<path fill="none" stroke="black" stroke-dasharray="1,5" d="M248.63,-18C145.29,-18 11,-18 11,-18 11,-18 11,-583.9 11,-583.9"/>
<polygon fill="black" stroke="black" points="7.5,-583.9 11,-593.9 14.5,-583.9 7.5,-583.9"/>
</g>
</g>
</svg>
