<?xml version="1.0" encoding="UTF-8" standalone="no"?>
<!DOCTYPE svg PUBLIC "-//W3C//DTD SVG 1.1//EN"
 "http://www.w3.org/Graphics/SVG/1.1/DTD/svg11.dtd">
<!-- Generated by graphviz version 2.43.0 (0)
 -->
<!-- Title: %3 Pages: 1 -->
<svg width="875pt" height="803pt"
 viewBox="0.00 0.00 875.09 803.00" xmlns="http://www.w3.org/2000/svg" xmlns:xlink="http://www.w3.org/1999/xlink">
<g id="graph0" class="graph" transform="scale(1 1) rotate(0) translate(4 799)">
<title>%3</title>
<polygon fill="white" stroke="transparent" points="-4,4 -4,-799 871.09,-799 871.09,4 -4,4"/>
<text text-anchor="middle" x="433.54" y="-767" font-family="Times,serif" font-size="30.00">Dependencies</text>
<text text-anchor="middle" x="433.54" y="-734" font-family="Times,serif" font-size="30.00"> </text>
<!-- :shared:feature:licenses -->
<g id="node1" class="node">
<title>:shared:feature:licenses</title>
<polygon fill="#b59aff" stroke="black" points="344.04,-721 156.04,-721 156.04,-685 344.04,-685 344.04,-721"/>
<text text-anchor="middle" x="250.04" y="-699.3" font-family="Times,serif" font-size="14.00">:shared:feature:licenses</text>
</g>
<!-- :ui:common -->
<g id="node2" class="node">
<title>:ui:common</title>
<ellipse fill="#b59aff" stroke="black" cx="250.04" cy="-566" rx="64.19" ry="18"/>
<text text-anchor="middle" x="250.04" y="-562.3" font-family="Times,serif" font-size="14.00">:ui:common</text>
</g>
<!-- :shared:feature:licenses&#45;&gt;:ui:common -->
<g id="edge1" class="edge">
<title>:shared:feature:licenses&#45;&gt;:ui:common</title>
<path fill="none" stroke="black" stroke-dasharray="1,5" d="M250.04,-684.81C250.04,-684.81 250.04,-594.27 250.04,-594.27"/>
<polygon fill="black" stroke="black" points="253.54,-594.27 250.04,-584.27 246.54,-594.27 253.54,-594.27"/>
</g>
<!-- :test:image -->
<g id="node3" class="node">
<title>:test:image</title>
<ellipse fill="#9affb5" stroke="black" cx="63.04" cy="-292" rx="63.09" ry="18"/>
<text text-anchor="middle" x="63.04" y="-288.3" font-family="Times,serif" font-size="14.00">:test:image</text>
</g>
<!-- :ui:common&#45;&gt;:test:image -->
<g id="edge2" class="edge">
<title>:ui:common&#45;&gt;:test:image</title>
<path fill="none" stroke="black" stroke-dasharray="1,5" d="M252.72,-547.6C252.72,-486.16 252.72,-292 252.72,-292 252.72,-292 136.2,-292 136.2,-292"/>
<polygon fill="black" stroke="black" points="136.2,-288.5 126.2,-292 136.2,-295.5 136.2,-288.5"/>
</g>
<!-- :test&#45;data -->
<g id="node4" class="node">
<title>:test&#45;data</title>
<ellipse fill="#b59aff" stroke="black" cx="529.04" cy="-429" rx="55.49" ry="18"/>
<text text-anchor="middle" x="529.04" y="-425.3" font-family="Times,serif" font-size="14.00">:test&#45;data</text>
</g>
<!-- :ui:common&#45;&gt;:test&#45;data -->
<g id="edge3" class="edge">
<title>:ui:common&#45;&gt;:test&#45;data</title>
<path fill="none" stroke="#ff9ab1" stroke-dasharray="1,5" d="M283.55,-550.55C283.55,-514.72 283.55,-429 283.55,-429 283.55,-429 463.65,-429 463.65,-429"/>
<polygon fill="#ff9ab1" stroke="#ff9ab1" points="463.65,-432.5 473.65,-429 463.65,-425.5 463.65,-432.5"/>
</g>
<!-- :ui:test:screenshot -->
<g id="node5" class="node">
<title>:ui:test:screenshot</title>
<ellipse fill="#9affb5" stroke="black" cx="125.04" cy="-429" rx="96.68" ry="18"/>
<text text-anchor="middle" x="125.04" y="-425.3" font-family="Times,serif" font-size="14.00">:ui:test:screenshot</text>
</g>
<!-- :ui:common&#45;&gt;:ui:test:screenshot -->
<g id="edge4" class="edge">
<title>:ui:common&#45;&gt;:ui:test:screenshot</title>
<path fill="none" stroke="#ff9ab1" stroke-dasharray="1,5" d="M203.79,-553.36C203.79,-553.36 203.79,-449.69 203.79,-449.69"/>
<polygon fill="#ff9ab1" stroke="#ff9ab1" points="207.29,-449.69 203.79,-439.69 200.29,-449.69 207.29,-449.69"/>
</g>
<!-- :shared:domain -->
<g id="node6" class="node">
<title>:shared:domain</title>
<ellipse fill="#b59aff" stroke="black" cx="415.04" cy="-18" rx="82.59" ry="18"/>
<text text-anchor="middle" x="415.04" y="-14.3" font-family="Times,serif" font-size="14.00">:shared:domain</text>
</g>
<!-- :ui:common&#45;&gt;:shared:domain -->
<g id="edge5" class="edge">
<title>:ui:common&#45;&gt;:shared:domain</title>
<path fill="none" stroke="black" d="M310.87,-560C325.82,-560 337.63,-560 337.63,-560 337.63,-560 337.63,-34.46 337.63,-34.46"/>
<polygon fill="black" stroke="black" points="341.13,-34.46 337.63,-24.46 334.13,-34.46 341.13,-34.46"/>
</g>
<!-- :core:logging:api -->
<g id="node7" class="node">
<title>:core:logging:api</title>
<ellipse fill="#b59aff" stroke="black" cx="660.04" cy="-18" rx="88.28" ry="18"/>
<text text-anchor="middle" x="660.04" y="-14.3" font-family="Times,serif" font-size="14.00">:core:logging:api</text>
</g>
<!-- :ui:common&#45;&gt;:core:logging:api -->
<g id="edge6" class="edge">
<title>:ui:common&#45;&gt;:core:logging:api</title>
<path fill="none" stroke="black" stroke-dasharray="1,5" d="M311.06,-572C435.29,-572 705.97,-572 705.97,-572 705.97,-572 705.97,-43.4 705.97,-43.4"/>
<polygon fill="black" stroke="black" points="709.47,-43.4 705.97,-33.4 702.47,-43.4 709.47,-43.4"/>
</g>
<!-- :test&#45;data&#45;&gt;:shared:domain -->
<g id="edge7" class="edge">
<title>:test&#45;data&#45;&gt;:shared:domain</title>
<path fill="none" stroke="black" stroke-dasharray="1,5" d="M550.39,-412.24C550.39,-336.16 550.39,-27 550.39,-27 550.39,-27 496.68,-27 496.68,-27"/>
<polygon fill="black" stroke="black" points="496.68,-23.5 486.68,-27 496.68,-30.5 496.68,-23.5"/>
</g>
<!-- :data:database -->
<g id="node8" class="node">
<title>:data:database</title>
<ellipse fill="#b59aff" stroke="black" cx="422.04" cy="-292" rx="79.09" ry="18"/>
<text text-anchor="middle" x="422.04" y="-288.3" font-family="Times,serif" font-size="14.00">:data:database</text>
</g>
<!-- :test&#45;data&#45;&gt;:data:database -->
<g id="edge8" class="edge">
<title>:test&#45;data&#45;&gt;:data:database</title>
<path fill="none" stroke="black" stroke-dasharray="1,5" d="M487.57,-416.84C487.57,-416.84 487.57,-312.42 487.57,-312.42"/>
<polygon fill="black" stroke="black" points="491.07,-312.42 487.57,-302.42 484.07,-312.42 491.07,-312.42"/>
</g>
<!-- :data:musicbrainz -->
<g id="node9" class="node">
<title>:data:musicbrainz</title>
<ellipse fill="#b59aff" stroke="black" cx="448.04" cy="-155" rx="93.68" ry="18"/>
<text text-anchor="middle" x="448.04" y="-151.3" font-family="Times,serif" font-size="14.00">:data:musicbrainz</text>
</g>
<!-- :test&#45;data&#45;&gt;:data:musicbrainz -->
<g id="edge9" class="edge">
<title>:test&#45;data&#45;&gt;:data:musicbrainz</title>
<path fill="none" stroke="black" stroke-dasharray="1,5" d="M521.49,-411.02C521.49,-411.02 521.49,-176.23 521.49,-176.23"/>
<polygon fill="black" stroke="black" points="524.99,-176.23 521.49,-166.23 517.99,-176.23 524.99,-176.23"/>
</g>
<!-- :data:coverart -->
<g id="node10" class="node">
<title>:data:coverart</title>
<ellipse fill="#b59aff" stroke="black" cx="791.04" cy="-155" rx="76.09" ry="18"/>
<text text-anchor="middle" x="791.04" y="-151.3" font-family="Times,serif" font-size="14.00">:data:coverart</text>
</g>
<!-- :test&#45;data&#45;&gt;:data:coverart -->
<g id="edge10" class="edge">
<title>:test&#45;data&#45;&gt;:data:coverart</title>
<path fill="none" stroke="black" stroke-dasharray="1,5" d="M584.61,-429C661.52,-429 791.04,-429 791.04,-429 791.04,-429 791.04,-183.4 791.04,-183.4"/>
<polygon fill="black" stroke="black" points="794.54,-183.4 791.04,-173.4 787.54,-183.4 794.54,-183.4"/>
</g>
<!-- :data:spotify -->
<g id="node11" class="node">
<title>:data:spotify</title>
<ellipse fill="#b59aff" stroke="black" cx="628.04" cy="-155" rx="68.79" ry="18"/>
<text text-anchor="middle" x="628.04" y="-151.3" font-family="Times,serif" font-size="14.00">:data:spotify</text>
</g>
<!-- :test&#45;data&#45;&gt;:data:spotify -->
<g id="edge11" class="edge">
<title>:test&#45;data&#45;&gt;:data:spotify</title>
<path fill="none" stroke="black" stroke-dasharray="1,5" d="M567.53,-415.78C567.53,-415.78 567.53,-173.69 567.53,-173.69"/>
<polygon fill="black" stroke="black" points="571.03,-173.69 567.53,-163.69 564.03,-173.69 571.03,-173.69"/>
</g>
<!-- :ui:test:screenshot&#45;&gt;:test:image -->
<g id="edge12" class="edge">
<title>:ui:test:screenshot&#45;&gt;:test:image</title>
<path fill="none" stroke="black" stroke-dasharray="1,5" d="M77.15,-413.28C77.15,-413.28 77.15,-319.69 77.15,-319.69"/>
<polygon fill="black" stroke="black" points="80.65,-319.69 77.15,-309.69 73.65,-319.69 80.65,-319.69"/>
</g>
<!-- :data:database&#45;&gt;:shared:domain -->
<g id="edge13" class="edge">
<title>:data:database&#45;&gt;:shared:domain</title>
<path fill="none" stroke="black" stroke-dasharray="1,5" d="M348.6,-284.95C348.6,-284.95 348.6,-38.91 348.6,-38.91"/>
<polygon fill="black" stroke="black" points="352.1,-38.91 348.6,-28.91 345.1,-38.91 352.1,-38.91"/>
</g>
<!-- :data:database&#45;&gt;:data:musicbrainz -->
<g id="edge14" class="edge">
<title>:data:database&#45;&gt;:data:musicbrainz</title>
<path fill="none" stroke="black" stroke-dasharray="1,5" d="M427.9,-273.81C427.9,-273.81 427.9,-182.83 427.9,-182.83"/>
<polygon fill="black" stroke="black" points="431.4,-182.83 427.9,-172.83 424.4,-182.83 431.4,-182.83"/>
</g>
<!-- :data:musicbrainz&#45;&gt;:shared:domain -->
<g id="edge15" class="edge">
<title>:data:musicbrainz&#45;&gt;:shared:domain</title>
<path fill="none" stroke="black" stroke-dasharray="1,5" d="M402.16,-139.28C402.16,-139.28 402.16,-46.13 402.16,-46.13"/>
<polygon fill="black" stroke="black" points="405.66,-46.13 402.16,-36.13 398.66,-46.13 405.66,-46.13"/>
</g>
<!-- :data:musicbrainz&#45;&gt;:core:logging:api -->
<g id="edge16" class="edge">
<title>:data:musicbrainz&#45;&gt;:core:logging:api</title>
<path fill="none" stroke="black" stroke-dasharray="1,5" d="M519.61,-143.3C519.61,-108.65 519.61,-9 519.61,-9 519.61,-9 573.25,-9 573.25,-9"/>
<polygon fill="black" stroke="black" points="573.25,-12.5 583.25,-9 573.25,-5.5 573.25,-12.5"/>
</g>
<!-- :data:coverart&#45;&gt;:shared:domain -->
<g id="edge17" class="edge">
<title>:data:coverart&#45;&gt;:shared:domain</title>
<path fill="none" stroke="black" stroke-dasharray="1,5" d="M726.15,-145.41C726.15,-126.45 726.15,-86 726.15,-86 726.15,-86 449.88,-86 449.88,-86 449.88,-86 449.88,-44.46 449.88,-44.46"/>
<polygon fill="black" stroke="black" points="453.38,-44.46 449.88,-34.46 446.38,-44.46 453.38,-44.46"/>
</g>
<!-- :data:coverart&#45;&gt;:core:logging:api -->
<g id="edge18" class="edge">
<title>:data:coverart&#45;&gt;:core:logging:api</title>
<path fill="none" stroke="black" stroke-dasharray="1,5" d="M737.29,-142.11C737.29,-142.11 737.29,-36.87 737.29,-36.87"/>
<polygon fill="black" stroke="black" points="740.79,-36.87 737.29,-26.87 733.79,-36.87 740.79,-36.87"/>
</g>
<!-- :data:spotify&#45;&gt;:test&#45;data -->
<g id="edge21" class="edge">
<title>:data:spotify&#45;&gt;:test&#45;data</title>
<path fill="none" stroke="#ff9ab1" stroke-dasharray="1,5" d="M575.91,-166.77C575.91,-166.77 575.91,-409.33 575.91,-409.33"/>
<polygon fill="#ff9ab1" stroke="#ff9ab1" points="572.41,-409.33 575.91,-419.33 579.41,-409.33 572.41,-409.33"/>
</g>
<!-- :data:spotify&#45;&gt;:shared:domain -->
<g id="edge19" class="edge">
<title>:data:spotify&#45;&gt;:shared:domain</title>
<path fill="none" stroke="black" stroke-dasharray="1,5" d="M565.4,-147.24C565.4,-118.26 565.4,-18 565.4,-18 565.4,-18 507.7,-18 507.7,-18"/>
<polygon fill="black" stroke="black" points="507.7,-14.5 497.7,-18 507.7,-21.5 507.7,-14.5"/>
</g>
<!-- :data:spotify&#45;&gt;:core:logging:api -->
<g id="edge20" class="edge">
<title>:data:spotify&#45;&gt;:core:logging:api</title>
<path fill="none" stroke="black" stroke-dasharray="1,5" d="M634.3,-136.81C634.3,-136.81 634.3,-45.4 634.3,-45.4"/>
<polygon fill="black" stroke="black" points="637.8,-45.4 634.3,-35.4 630.8,-45.4 637.8,-45.4"/>
</g>
</g>
</svg>
