<?xml version="1.0" encoding="UTF-8" standalone="no"?>
<!DOCTYPE svg PUBLIC "-//W3C//DTD SVG 1.1//EN"
 "http://www.w3.org/Graphics/SVG/1.1/DTD/svg11.dtd">
<!-- Generated by graphviz version 2.43.0 (0)
 -->
<!-- Title: %3 Pages: 1 -->
<svg width="790pt" height="1077pt"
 viewBox="0.00 0.00 789.63 1077.00" xmlns="http://www.w3.org/2000/svg" xmlns:xlink="http://www.w3.org/1999/xlink">
<g id="graph0" class="graph" transform="scale(1 1) rotate(0) translate(4 1073)">
<title>%3</title>
<polygon fill="white" stroke="transparent" points="-4,4 -4,-1073 785.63,-1073 785.63,4 -4,4"/>
<text text-anchor="middle" x="390.82" y="-1041" font-family="Times,serif" font-size="30.00">Dependencies</text>
<text text-anchor="middle" x="390.82" y="-1008" font-family="Times,serif" font-size="30.00"> </text>
<!-- :shared:feature:licenses -->
<g id="node1" class="node">
<title>:shared:feature:licenses</title>
<polygon fill="#b59aff" stroke="black" points="456.24,-995 268.24,-995 268.24,-959 456.24,-959 456.24,-995"/>
<text text-anchor="middle" x="362.24" y="-973.3" font-family="Times,serif" font-size="14.00">:shared:feature:licenses</text>
</g>
<!-- :ui:common -->
<g id="node2" class="node">
<title>:ui:common</title>
<ellipse fill="#b59aff" stroke="black" cx="362.24" cy="-840" rx="64.19" ry="18"/>
<text text-anchor="middle" x="362.24" y="-836.3" font-family="Times,serif" font-size="14.00">:ui:common</text>
</g>
<!-- :shared:feature:licenses&#45;&gt;:ui:common -->
<g id="edge1" class="edge">
<title>:shared:feature:licenses&#45;&gt;:ui:common</title>
<path fill="none" stroke="black" stroke-dasharray="1,5" d="M362.24,-958.81C362.24,-958.81 362.24,-868.27 362.24,-868.27"/>
<polygon fill="black" stroke="black" points="365.74,-868.27 362.24,-858.27 358.74,-868.27 365.74,-868.27"/>
</g>
<!-- :test:image -->
<g id="node3" class="node">
<title>:test:image</title>
<ellipse fill="#9affb5" stroke="black" cx="111.24" cy="-566" rx="63.09" ry="18"/>
<text text-anchor="middle" x="111.24" y="-562.3" font-family="Times,serif" font-size="14.00">:test:image</text>
</g>
<!-- :ui:common&#45;&gt;:test:image -->
<g id="edge2" class="edge">
<title>:ui:common&#45;&gt;:test:image</title>
<path fill="none" stroke="black" stroke-dasharray="1,5" d="M297.72,-840C218.44,-840 94.3,-840 94.3,-840 94.3,-840 94.3,-593.56 94.3,-593.56"/>
<polygon fill="black" stroke="black" points="97.8,-593.56 94.3,-583.56 90.8,-593.56 97.8,-593.56"/>
</g>
<!-- :test&#45;data -->
<g id="node4" class="node">
<title>:test&#45;data</title>
<ellipse fill="#b59aff" stroke="black" cx="488.24" cy="-703" rx="55.49" ry="18"/>
<text text-anchor="middle" x="488.24" y="-699.3" font-family="Times,serif" font-size="14.00">:test&#45;data</text>
</g>
<!-- :ui:common&#45;&gt;:test&#45;data -->
<g id="edge3" class="edge">
<title>:ui:common&#45;&gt;:test&#45;data</title>
<path fill="none" stroke="#ff9ab1" stroke-dasharray="1,5" d="M418.1,-831C432.79,-831 444.62,-831 444.62,-831 444.62,-831 444.62,-724.36 444.62,-724.36"/>
<polygon fill="#ff9ab1" stroke="#ff9ab1" points="448.12,-724.36 444.62,-714.36 441.12,-724.36 448.12,-724.36"/>
</g>
<!-- :ui:test:screenshot -->
<g id="node5" class="node">
<title>:ui:test:screenshot</title>
<ellipse fill="#9affb5" stroke="black" cx="237.24" cy="-703" rx="96.68" ry="18"/>
<text text-anchor="middle" x="237.24" y="-699.3" font-family="Times,serif" font-size="14.00">:ui:test:screenshot</text>
</g>
<!-- :ui:common&#45;&gt;:ui:test:screenshot -->
<g id="edge4" class="edge">
<title>:ui:common&#45;&gt;:ui:test:screenshot</title>
<path fill="none" stroke="#ff9ab1" stroke-dasharray="1,5" d="M315.99,-827.36C315.99,-827.36 315.99,-723.69 315.99,-723.69"/>
<polygon fill="#ff9ab1" stroke="#ff9ab1" points="319.49,-723.69 315.99,-713.69 312.49,-723.69 319.49,-723.69"/>
</g>
<!-- :core:coroutines -->
<g id="node6" class="node">
<title>:core:coroutines</title>
<ellipse fill="#b59aff" stroke="black" cx="693.24" cy="-18" rx="85.29" ry="18"/>
<text text-anchor="middle" x="693.24" y="-14.3" font-family="Times,serif" font-size="14.00">:core:coroutines</text>
</g>
<!-- :ui:common&#45;&gt;:core:coroutines -->
<g id="edge5" class="edge">
<title>:ui:common&#45;&gt;:core:coroutines</title>
<path fill="none" stroke="#ff9ab1" stroke-dasharray="1,5" d="M426.6,-840C492.63,-840 585.78,-840 585.78,-840 585.78,-840 585.78,-28 585.78,-28 585.78,-28 612.16,-28 612.16,-28"/>
<polygon fill="#ff9ab1" stroke="#ff9ab1" points="612.16,-31.5 622.16,-28 612.16,-24.5 612.16,-31.5"/>
</g>
<!-- :shared:domain -->
<g id="node7" class="node">
<title>:shared:domain</title>
<ellipse fill="#b59aff" stroke="black" cx="324.24" cy="-155" rx="82.59" ry="18"/>
<text text-anchor="middle" x="324.24" y="-151.3" font-family="Times,serif" font-size="14.00">:shared:domain</text>
</g>
<!-- :ui:common&#45;&gt;:shared:domain -->
<g id="edge6" class="edge">
<title>:ui:common&#45;&gt;:shared:domain</title>
<path fill="none" stroke="black" d="M342.14,-822.47C342.14,-754.76 342.14,-514 342.14,-514 342.14,-514 248.82,-514 248.82,-514 248.82,-514 248.82,-172.5 248.82,-172.5"/>
<polygon fill="black" stroke="black" points="252.33,-172.5 248.82,-162.5 245.33,-172.5 252.33,-172.5"/>
</g>
<!-- :ui:core -->
<g id="node8" class="node">
<title>:ui:core</title>
<ellipse fill="#b59aff" stroke="black" cx="238.24" cy="-566" rx="45.49" ry="18"/>
<text text-anchor="middle" x="238.24" y="-562.3" font-family="Times,serif" font-size="14.00">:ui:core</text>
</g>
<!-- :ui:common&#45;&gt;:ui:core -->
<g id="edge7" class="edge">
<title>:ui:common&#45;&gt;:ui:core</title>
<path fill="none" stroke="black" d="M338.11,-823.27C338.11,-763.78 338.11,-566 338.11,-566 338.11,-566 293.79,-566 293.79,-566"/>
<polygon fill="black" stroke="black" points="293.79,-562.5 283.79,-566 293.79,-569.5 293.79,-562.5"/>
</g>
<!-- :core:logging:api -->
<g id="node9" class="node">
<title>:core:logging:api</title>
<ellipse fill="#b59aff" stroke="black" cx="693.24" cy="-155" rx="88.28" ry="18"/>
<text text-anchor="middle" x="693.24" y="-151.3" font-family="Times,serif" font-size="14.00">:core:logging:api</text>
</g>
<!-- :ui:common&#45;&gt;:core:logging:api -->
<g id="edge8" class="edge">
<title>:ui:common&#45;&gt;:core:logging:api</title>
<path fill="none" stroke="black" stroke-dasharray="1,5" d="M418.36,-849C529.24,-849 765.8,-849 765.8,-849 765.8,-849 765.8,-175.35 765.8,-175.35"/>
<polygon fill="black" stroke="black" points="769.3,-175.35 765.8,-165.35 762.3,-175.35 769.3,-175.35"/>
</g>
<!-- :test&#45;data&#45;&gt;:core:coroutines -->
<g id="edge10" class="edge">
<title>:test&#45;data&#45;&gt;:core:coroutines</title>
<path fill="none" stroke="black" stroke-dasharray="1,5" d="M540.33,-709C558.86,-709 575.2,-709 575.2,-709 575.2,-709 575.2,-21 575.2,-21 575.2,-21 599.03,-21 599.03,-21"/>
<polygon fill="black" stroke="black" points="599.03,-24.5 609.03,-21 599.03,-17.5 599.03,-24.5"/>
</g>
<!-- :test&#45;data&#45;&gt;:shared:domain -->
<g id="edge9" class="edge">
<title>:test&#45;data&#45;&gt;:shared:domain</title>
<path fill="none" stroke="black" stroke-dasharray="1,5" d="M514.8,-686.92C514.8,-619.1 514.8,-360 514.8,-360 514.8,-360 320.42,-360 320.42,-360 320.42,-360 320.42,-183.19 320.42,-183.19"/>
<polygon fill="black" stroke="black" points="323.92,-183.19 320.42,-173.19 316.92,-183.19 323.92,-183.19"/>
</g>
<!-- :data:database -->
<g id="node10" class="node">
<title>:data:database</title>
<ellipse fill="#b59aff" stroke="black" cx="335.24" cy="-429" rx="79.09" ry="18"/>
<text text-anchor="middle" x="335.24" y="-425.3" font-family="Times,serif" font-size="14.00">:data:database</text>
</g>
<!-- :test&#45;data&#45;&gt;:data:database -->
<g id="edge11" class="edge">
<title>:test&#45;data&#45;&gt;:data:database</title>
<path fill="none" stroke="black" stroke-dasharray="1,5" d="M432.91,-703C393.02,-703 346.17,-703 346.17,-703 346.17,-703 346.17,-456.98 346.17,-456.98"/>
<polygon fill="black" stroke="black" points="349.67,-456.98 346.17,-446.98 342.67,-456.98 349.67,-456.98"/>
</g>
<!-- :data:musicbrainz -->
<g id="node11" class="node">
<title>:data:musicbrainz</title>
<ellipse fill="#b59aff" stroke="black" cx="446.24" cy="-292" rx="93.68" ry="18"/>
<text text-anchor="middle" x="446.24" y="-288.3" font-family="Times,serif" font-size="14.00">:data:musicbrainz</text>
</g>
<!-- :test&#45;data&#45;&gt;:data:musicbrainz -->
<g id="edge12" class="edge">
<title>:test&#45;data&#45;&gt;:data:musicbrainz</title>
<path fill="none" stroke="black" stroke-dasharray="1,5" d="M527.32,-690.25C527.32,-690.25 527.32,-311.21 527.32,-311.21"/>
<polygon fill="black" stroke="black" points="530.82,-311.21 527.32,-301.21 523.82,-311.21 530.82,-311.21"/>
</g>
<!-- :data:coverart -->
<g id="node12" class="node">
<title>:data:coverart</title>
<ellipse fill="#b59aff" stroke="black" cx="426.24" cy="-566" rx="76.09" ry="18"/>
<text text-anchor="middle" x="426.24" y="-562.3" font-family="Times,serif" font-size="14.00">:data:coverart</text>
</g>
<!-- :test&#45;data&#45;&gt;:data:coverart -->
<g id="edge13" class="edge">
<title>:test&#45;data&#45;&gt;:data:coverart</title>
<path fill="none" stroke="black" stroke-dasharray="1,5" d="M456.09,-688.34C456.09,-688.34 456.09,-592.68 456.09,-592.68"/>
<polygon fill="black" stroke="black" points="459.59,-592.68 456.09,-582.68 452.59,-592.68 459.59,-592.68"/>
</g>
<!-- :data:spotify -->
<g id="node13" class="node">
<title>:data:spotify</title>
<ellipse fill="#b59aff" stroke="black" cx="665.24" cy="-292" rx="68.79" ry="18"/>
<text text-anchor="middle" x="665.24" y="-288.3" font-family="Times,serif" font-size="14.00">:data:spotify</text>
</g>
<!-- :test&#45;data&#45;&gt;:data:spotify -->
<g id="edge14" class="edge">
<title>:test&#45;data&#45;&gt;:data:spotify</title>
<path fill="none" stroke="black" stroke-dasharray="1,5" d="M540.39,-697C592.6,-697 665.24,-697 665.24,-697 665.24,-697 665.24,-320.19 665.24,-320.19"/>
<polygon fill="black" stroke="black" points="668.74,-320.19 665.24,-310.19 661.74,-320.19 668.74,-320.19"/>
</g>
<!-- :ui:test:screenshot&#45;&gt;:test:image -->
<g id="edge16" class="edge">
<title>:ui:test:screenshot&#45;&gt;:test:image</title>
<path fill="none" stroke="black" stroke-dasharray="1,5" d="M157.34,-692.7C157.34,-692.7 157.34,-588.36 157.34,-588.36"/>
<polygon fill="black" stroke="black" points="160.84,-588.36 157.34,-578.36 153.84,-588.36 160.84,-588.36"/>
</g>
<!-- :ui:test:screenshot&#45;&gt;:ui:core -->
<g id="edge15" class="edge">
<title>:ui:test:screenshot&#45;&gt;:ui:core</title>
<path fill="none" stroke="black" stroke-dasharray="1,5" d="M238.24,-684.81C238.24,-684.81 238.24,-594.27 238.24,-594.27"/>
<polygon fill="black" stroke="black" points="241.74,-594.27 238.24,-584.27 234.74,-594.27 241.74,-594.27"/>
</g>
<!-- :ui:core&#45;&gt;:shared:domain -->
<g id="edge18" class="edge">
<title>:ui:core&#45;&gt;:shared:domain</title>
<path fill="none" stroke="black" stroke-dasharray="1,5" d="M245.26,-548.08C245.26,-548.08 245.26,-170.49 245.26,-170.49"/>
<polygon fill="black" stroke="black" points="248.76,-170.49 245.26,-160.49 241.76,-170.49 248.76,-170.49"/>
</g>
<!-- :shared:strings -->
<g id="node14" class="node">
<title>:shared:strings</title>
<ellipse fill="#b59aff" stroke="black" cx="81.24" cy="-429" rx="81.49" ry="18"/>
<text text-anchor="middle" x="81.24" y="-425.3" font-family="Times,serif" font-size="14.00">:shared:strings</text>
</g>
<!-- :ui:core&#45;&gt;:shared:strings -->
<g id="edge17" class="edge">
<title>:ui:core&#45;&gt;:shared:strings</title>
<path fill="none" stroke="black" d="M217.22,-550.02C217.22,-513.88 217.22,-429 217.22,-429 217.22,-429 172.7,-429 172.7,-429"/>
<polygon fill="black" stroke="black" points="172.7,-425.5 162.7,-429 172.7,-432.5 172.7,-425.5"/>
</g>
<!-- :core:logging:api&#45;&gt;:core:coroutines -->
<g id="edge19" class="edge">
<title>:core:logging:api&#45;&gt;:core:coroutines</title>
<path fill="none" stroke="black" d="M693.24,-136.81C693.24,-136.81 693.24,-46.27 693.24,-46.27"/>
<polygon fill="black" stroke="black" points="696.74,-46.27 693.24,-36.27 689.74,-46.27 696.74,-46.27"/>
</g>
<!-- :data:database&#45;&gt;:core:coroutines -->
<g id="edge21" class="edge">
<title>:data:database&#45;&gt;:core:coroutines</title>
<path fill="none" stroke="black" stroke-dasharray="1,5" d="M414.55,-429C477.17,-429 554.06,-429 554.06,-429 554.06,-429 554.06,-7 554.06,-7 554.06,-7 615.69,-7 615.69,-7"/>
<polygon fill="black" stroke="black" points="615.69,-10.5 625.69,-7 615.69,-3.5 615.69,-10.5"/>
</g>
<!-- :data:database&#45;&gt;:shared:domain -->
<g id="edge20" class="edge">
<title>:data:database&#45;&gt;:shared:domain</title>
<path fill="none" stroke="black" stroke-dasharray="1,5" d="M288.18,-414.27C288.18,-414.27 288.18,-181.52 288.18,-181.52"/>
<polygon fill="black" stroke="black" points="291.68,-181.52 288.18,-171.52 284.68,-181.52 291.68,-181.52"/>
</g>
<!-- :data:database&#45;&gt;:data:musicbrainz -->
<g id="edge22" class="edge">
<title>:data:database&#45;&gt;:data:musicbrainz</title>
<path fill="none" stroke="black" stroke-dasharray="1,5" d="M383.59,-414.6C383.59,-414.6 383.59,-315.4 383.59,-315.4"/>
<polygon fill="black" stroke="black" points="387.09,-315.4 383.59,-305.4 380.09,-315.4 387.09,-315.4"/>
</g>
<!-- :data:musicbrainz&#45;&gt;:shared:domain -->
<g id="edge23" class="edge">
<title>:data:musicbrainz&#45;&gt;:shared:domain</title>
<path fill="none" stroke="black" stroke-dasharray="1,5" d="M379.72,-279.11C379.72,-279.11 379.72,-178.36 379.72,-178.36"/>
<polygon fill="black" stroke="black" points="383.22,-178.36 379.72,-168.36 376.22,-178.36 383.22,-178.36"/>
</g>
<!-- :data:musicbrainz&#45;&gt;:core:logging:api -->
<g id="edge24" class="edge">
<title>:data:musicbrainz&#45;&gt;:core:logging:api</title>
<path fill="none" stroke="black" stroke-dasharray="1,5" d="M473.31,-274.75C473.31,-236.72 473.31,-149 473.31,-149 473.31,-149 599.78,-149 599.78,-149"/>
<polygon fill="black" stroke="black" points="599.78,-152.5 609.78,-149 599.78,-145.5 599.78,-152.5"/>
</g>
<!-- :data:coverart&#45;&gt;:test&#45;data -->
<g id="edge28" class="edge">
<title>:data:coverart&#45;&gt;:test&#45;data</title>
<path fill="none" stroke="#ff9ab1" stroke-dasharray="1,5" d="M479.19,-579.14C479.19,-579.14 479.19,-674.97 479.19,-674.97"/>
<polygon fill="#ff9ab1" stroke="#ff9ab1" points="475.69,-674.97 479.19,-684.97 482.69,-674.97 475.69,-674.97"/>
</g>
<!-- :data:coverart&#45;&gt;:core:coroutines -->
<g id="edge27" class="edge">
<title>:data:coverart&#45;&gt;:core:coroutines</title>
<path fill="none" stroke="black" stroke-dasharray="1,5" d="M498.27,-560C531.9,-560 564.63,-560 564.63,-560 564.63,-560 564.63,-14 564.63,-14 564.63,-14 599.98,-14 599.98,-14"/>
<polygon fill="black" stroke="black" points="599.98,-17.5 609.98,-14 599.98,-10.5 599.98,-17.5"/>
</g>
<!-- :data:coverart&#45;&gt;:shared:domain -->
<g id="edge25" class="edge">
<title>:data:coverart&#45;&gt;:shared:domain</title>
<path fill="none" stroke="black" stroke-dasharray="1,5" d="M371.64,-553.31C371.64,-529.39 371.64,-480 371.64,-480 371.64,-480 252.39,-480 252.39,-480 252.39,-480 252.39,-174.03 252.39,-174.03"/>
<polygon fill="black" stroke="black" points="255.89,-174.03 252.39,-164.03 248.89,-174.03 255.89,-174.03"/>
</g>
<!-- :data:coverart&#45;&gt;:core:logging:api -->
<g id="edge26" class="edge">
<title>:data:coverart&#45;&gt;:core:logging:api</title>
<path fill="none" stroke="black" stroke-dasharray="1,5" d="M498.09,-572C593.46,-572 749.97,-572 749.97,-572 749.97,-572 749.97,-178.87 749.97,-178.87"/>
<polygon fill="black" stroke="black" points="753.47,-178.87 749.97,-168.87 746.47,-178.87 753.47,-178.87"/>
</g>
<!-- :data:coverart&#45;&gt;:data:database -->
<g id="edge30" class="edge">
<title>:data:coverart&#45;&gt;:data:database</title>
<path fill="none" stroke="#ff9ab1" stroke-dasharray="1,5" d="M393.09,-549.75C393.09,-549.75 393.09,-451.59 393.09,-451.59"/>
<polygon fill="#ff9ab1" stroke="#ff9ab1" points="396.59,-451.59 393.09,-441.59 389.59,-451.59 396.59,-451.59"/>
</g>
<!-- :data:coverart&#45;&gt;:data:musicbrainz -->
<g id="edge29" class="edge">
<title>:data:coverart&#45;&gt;:data:musicbrainz</title>
<path fill="none" stroke="#ff9ab1" stroke-dasharray="1,5" d="M458.41,-549.68C458.41,-549.68 458.41,-320 458.41,-320"/>
<polygon fill="#ff9ab1" stroke="#ff9ab1" points="461.91,-320 458.41,-310 454.91,-320 461.91,-320"/>
</g>
<!-- :data:spotify&#45;&gt;:shared:domain -->
<g id="edge31" class="edge">
<title>:data:spotify&#45;&gt;:shared:domain</title>
<path fill="none" stroke="black" stroke-dasharray="1,5" d="M600.6,-285.68C600.6,-259.51 600.6,-161 600.6,-161 600.6,-161 412.33,-161 412.33,-161"/>
<polygon fill="black" stroke="black" points="412.33,-157.5 402.33,-161 412.33,-164.5 412.33,-157.5"/>
</g>
<!-- :data:spotify&#45;&gt;:core:logging:api -->
<g id="edge32" class="edge">
<title>:data:spotify&#45;&gt;:core:logging:api</title>
<path fill="none" stroke="black" stroke-dasharray="1,5" d="M669.49,-273.81C669.49,-273.81 669.49,-182.4 669.49,-182.4"/>
<polygon fill="black" stroke="black" points="672.99,-182.4 669.49,-172.4 665.99,-182.4 672.99,-182.4"/>
</g>
</g>
</svg>
