<?xml version="1.0" encoding="UTF-8" standalone="no"?>
<!DOCTYPE svg PUBLIC "-//W3C//DTD SVG 1.1//EN"
 "http://www.w3.org/Graphics/SVG/1.1/DTD/svg11.dtd">
<!-- Generated by graphviz version 2.43.0 (0)
 -->
<!-- Title: %3 Pages: 1 -->
<svg width="1043pt" height="940pt"
 viewBox="0.00 0.00 1043.29 940.00" xmlns="http://www.w3.org/2000/svg" xmlns:xlink="http://www.w3.org/1999/xlink">
<g id="graph0" class="graph" transform="scale(1 1) rotate(0) translate(4 936)">
<title>%3</title>
<polygon fill="white" stroke="transparent" points="-4,4 -4,-936 1039.29,-936 1039.29,4 -4,4"/>
<text text-anchor="middle" x="517.64" y="-904" font-family="Times,serif" font-size="30.00">Dependencies</text>
<text text-anchor="middle" x="517.64" y="-871" font-family="Times,serif" font-size="30.00"> </text>
<!-- :shared:feature:licenses -->
<g id="node1" class="node">
<title>:shared:feature:licenses</title>
<polygon fill="#b59aff" stroke="black" points="468.04,-858 280.04,-858 280.04,-822 468.04,-822 468.04,-858"/>
<text text-anchor="middle" x="374.04" y="-836.3" font-family="Times,serif" font-size="14.00">:shared:feature:licenses</text>
</g>
<!-- :ui:common -->
<g id="node2" class="node">
<title>:ui:common</title>
<ellipse fill="#b59aff" stroke="black" cx="374.04" cy="-703" rx="64.19" ry="18"/>
<text text-anchor="middle" x="374.04" y="-699.3" font-family="Times,serif" font-size="14.00">:ui:common</text>
</g>
<!-- :shared:feature:licenses&#45;&gt;:ui:common -->
<g id="edge1" class="edge">
<title>:shared:feature:licenses&#45;&gt;:ui:common</title>
<path fill="none" stroke="black" stroke-dasharray="1,5" d="M374.04,-821.81C374.04,-821.81 374.04,-731.27 374.04,-731.27"/>
<polygon fill="black" stroke="black" points="377.54,-731.27 374.04,-721.27 370.54,-731.27 377.54,-731.27"/>
</g>
<!-- :test:image -->
<g id="node3" class="node">
<title>:test:image</title>
<ellipse fill="#9affb5" stroke="black" cx="63.04" cy="-429" rx="63.09" ry="18"/>
<text text-anchor="middle" x="63.04" y="-425.3" font-family="Times,serif" font-size="14.00">:test:image</text>
</g>
<!-- :ui:common&#45;&gt;:test:image -->
<g id="edge2" class="edge">
<title>:ui:common&#45;&gt;:test:image</title>
<path fill="none" stroke="black" stroke-dasharray="1,5" d="M369.38,-685.02C369.38,-624.06 369.38,-429 369.38,-429 369.38,-429 136.15,-429 136.15,-429"/>
<polygon fill="black" stroke="black" points="136.15,-425.5 126.15,-429 136.15,-432.5 136.15,-425.5"/>
</g>
<!-- :test&#45;data -->
<g id="node4" class="node">
<title>:test&#45;data</title>
<ellipse fill="#b59aff" stroke="black" cx="499.04" cy="-566" rx="55.49" ry="18"/>
<text text-anchor="middle" x="499.04" y="-562.3" font-family="Times,serif" font-size="14.00">:test&#45;data</text>
</g>
<!-- :ui:common&#45;&gt;:test&#45;data -->
<g id="edge3" class="edge">
<title>:ui:common&#45;&gt;:test&#45;data</title>
<path fill="none" stroke="#ff9ab1" stroke-dasharray="1,5" d="M430.69,-694.21C430.69,-664.4 430.69,-569 430.69,-569 430.69,-569 434.53,-569 434.53,-569"/>
<polygon fill="#ff9ab1" stroke="#ff9ab1" points="434.53,-572.5 444.53,-569 434.53,-565.5 434.53,-572.5"/>
</g>
<!-- :ui:test:screenshot -->
<g id="node5" class="node">
<title>:ui:test:screenshot</title>
<ellipse fill="#9affb5" stroke="black" cx="125.04" cy="-566" rx="96.68" ry="18"/>
<text text-anchor="middle" x="125.04" y="-562.3" font-family="Times,serif" font-size="14.00">:ui:test:screenshot</text>
</g>
<!-- :ui:common&#45;&gt;:ui:test:screenshot -->
<g id="edge4" class="edge">
<title>:ui:common&#45;&gt;:ui:test:screenshot</title>
<path fill="none" stroke="#ff9ab1" stroke-dasharray="1,5" d="M342.56,-687.17C342.56,-653.13 342.56,-576 342.56,-576 342.56,-576 215.73,-576 215.73,-576"/>
<polygon fill="#ff9ab1" stroke="#ff9ab1" points="215.73,-572.5 205.73,-576 215.73,-579.5 215.73,-572.5"/>
</g>
<!-- :shared:domain -->
<g id="node6" class="node">
<title>:shared:domain</title>
<ellipse fill="#b59aff" stroke="black" cx="388.04" cy="-18" rx="82.59" ry="18"/>
<text text-anchor="middle" x="388.04" y="-14.3" font-family="Times,serif" font-size="14.00">:shared:domain</text>
</g>
<!-- :ui:common&#45;&gt;:shared:domain -->
<g id="edge5" class="edge">
<title>:ui:common&#45;&gt;:shared:domain</title>
<path fill="none" stroke="black" d="M309.67,-703C297.52,-703 288.53,-703 288.53,-703 288.53,-703 288.53,-12 288.53,-12 288.53,-12 300.12,-12 300.12,-12"/>
<polygon fill="black" stroke="black" points="300.12,-15.5 310.12,-12 300.12,-8.5 300.12,-15.5"/>
</g>
<!-- :shared:strings -->
<g id="node7" class="node">
<title>:shared:strings</title>
<ellipse fill="#b59aff" stroke="black" cx="954.04" cy="-566" rx="81.49" ry="18"/>
<text text-anchor="middle" x="954.04" y="-562.3" font-family="Times,serif" font-size="14.00">:shared:strings</text>
</g>
<!-- :ui:common&#45;&gt;:shared:strings -->
<g id="edge6" class="edge">
<title>:ui:common&#45;&gt;:shared:strings</title>
<path fill="none" stroke="black" d="M434.75,-709C583.48,-709 954.04,-709 954.04,-709 954.04,-709 954.04,-594.11 954.04,-594.11"/>
<polygon fill="black" stroke="black" points="957.54,-594.11 954.04,-584.11 950.54,-594.11 957.54,-594.11"/>
</g>
<!-- :core:logging:api -->
<g id="node8" class="node">
<title>:core:logging:api</title>
<ellipse fill="#b59aff" stroke="black" cx="699.04" cy="-18" rx="88.28" ry="18"/>
<text text-anchor="middle" x="699.04" y="-14.3" font-family="Times,serif" font-size="14.00">:core:logging:api</text>
</g>
<!-- :ui:common&#45;&gt;:core:logging:api -->
<g id="edge7" class="edge">
<title>:ui:common&#45;&gt;:core:logging:api</title>
<path fill="none" stroke="black" stroke-dasharray="1,5" d="M434.75,-697C518.79,-697 660.31,-697 660.31,-697 660.31,-697 660.31,-44.45 660.31,-44.45"/>
<polygon fill="black" stroke="black" points="663.81,-44.45 660.31,-34.45 656.81,-44.45 663.81,-44.45"/>
</g>
<!-- :test&#45;data&#45;&gt;:shared:domain -->
<g id="edge8" class="edge">
<title>:test&#45;data&#45;&gt;:shared:domain</title>
<path fill="none" stroke="black" stroke-dasharray="1,5" d="M445.17,-562C385.32,-562 297.02,-562 297.02,-562 297.02,-562 297.02,-24 297.02,-24 297.02,-24 300.06,-24 300.06,-24"/>
<polygon fill="black" stroke="black" points="300.06,-27.5 310.06,-24 300.06,-20.5 300.06,-27.5"/>
</g>
<!-- :data:database -->
<g id="node9" class="node">
<title>:data:database</title>
<ellipse fill="#b59aff" stroke="black" cx="395.04" cy="-292" rx="79.09" ry="18"/>
<text text-anchor="middle" x="395.04" y="-288.3" font-family="Times,serif" font-size="14.00">:data:database</text>
</g>
<!-- :test&#45;data&#45;&gt;:data:database -->
<g id="edge9" class="edge">
<title>:test&#45;data&#45;&gt;:data:database</title>
<path fill="none" stroke="black" stroke-dasharray="1,5" d="M455.13,-555C427.17,-555 396.19,-555 396.19,-555 396.19,-555 396.19,-320.08 396.19,-320.08"/>
<polygon fill="black" stroke="black" points="399.69,-320.08 396.19,-310.08 392.69,-320.08 399.69,-320.08"/>
</g>
<!-- :data:musicbrainz -->
<g id="node10" class="node">
<title>:data:musicbrainz</title>
<ellipse fill="#b59aff" stroke="black" cx="529.04" cy="-155" rx="93.68" ry="18"/>
<text text-anchor="middle" x="529.04" y="-151.3" font-family="Times,serif" font-size="14.00">:data:musicbrainz</text>
</g>
<!-- :test&#45;data&#45;&gt;:data:musicbrainz -->
<g id="edge10" class="edge">
<title>:test&#45;data&#45;&gt;:data:musicbrainz</title>
<path fill="none" stroke="black" stroke-dasharray="1,5" d="M551.29,-560C575.44,-560 598.86,-560 598.86,-560 598.86,-560 598.86,-177.12 598.86,-177.12"/>
<polygon fill="black" stroke="black" points="602.36,-177.12 598.86,-167.12 595.36,-177.12 602.36,-177.12"/>
</g>
<!-- :data:coverart -->
<g id="node11" class="node">
<title>:data:coverart</title>
<ellipse fill="#b59aff" stroke="black" cx="499.04" cy="-429" rx="76.09" ry="18"/>
<text text-anchor="middle" x="499.04" y="-425.3" font-family="Times,serif" font-size="14.00">:data:coverart</text>
</g>
<!-- :test&#45;data&#45;&gt;:data:coverart -->
<g id="edge11" class="edge">
<title>:test&#45;data&#45;&gt;:data:coverart</title>
<path fill="none" stroke="black" stroke-dasharray="1,5" d="M480.63,-548.93C480.63,-548.93 480.63,-456.72 480.63,-456.72"/>
<polygon fill="black" stroke="black" points="484.13,-456.72 480.63,-446.72 477.13,-456.72 484.13,-456.72"/>
</g>
<!-- :data:spotify -->
<g id="node12" class="node">
<title>:data:spotify</title>
<ellipse fill="#b59aff" stroke="black" cx="748.04" cy="-155" rx="68.79" ry="18"/>
<text text-anchor="middle" x="748.04" y="-151.3" font-family="Times,serif" font-size="14.00">:data:spotify</text>
</g>
<!-- :test&#45;data&#45;&gt;:data:spotify -->
<g id="edge12" class="edge">
<title>:test&#45;data&#45;&gt;:data:spotify</title>
<path fill="none" stroke="black" stroke-dasharray="1,5" d="M551.24,-572C624.26,-572 748.04,-572 748.04,-572 748.04,-572 748.04,-183.19 748.04,-183.19"/>
<polygon fill="black" stroke="black" points="751.54,-183.19 748.04,-173.19 744.54,-183.19 751.54,-183.19"/>
</g>
<!-- :ui:test:screenshot&#45;&gt;:test:image -->
<g id="edge13" class="edge">
<title>:ui:test:screenshot&#45;&gt;:test:image</title>
<path fill="none" stroke="black" stroke-dasharray="1,5" d="M77.15,-550.28C77.15,-550.28 77.15,-456.69 77.15,-456.69"/>
<polygon fill="black" stroke="black" points="80.65,-456.69 77.15,-446.69 73.65,-456.69 80.65,-456.69"/>
</g>
<!-- :data:database&#45;&gt;:shared:domain -->
<g id="edge14" class="edge">
<title>:data:database&#45;&gt;:shared:domain</title>
<path fill="none" stroke="black" stroke-dasharray="1,5" d="M355.65,-276.08C355.65,-276.08 355.65,-44.65 355.65,-44.65"/>
<polygon fill="black" stroke="black" points="359.15,-44.65 355.65,-34.65 352.15,-44.65 359.15,-44.65"/>
</g>
<!-- :data:database&#45;&gt;:data:musicbrainz -->
<g id="edge15" class="edge">
<title>:data:database&#45;&gt;:data:musicbrainz</title>
<path fill="none" stroke="black" stroke-dasharray="1,5" d="M454.9,-279.84C454.9,-279.84 454.9,-176.17 454.9,-176.17"/>
<polygon fill="black" stroke="black" points="458.4,-176.17 454.9,-166.17 451.4,-176.17 458.4,-176.17"/>
</g>
<!-- :data:musicbrainz&#45;&gt;:shared:domain -->
<g id="edge16" class="edge">
<title>:data:musicbrainz&#45;&gt;:shared:domain</title>
<path fill="none" stroke="black" stroke-dasharray="1,5" d="M447.16,-146.01C447.16,-146.01 447.16,-40.69 447.16,-40.69"/>
<polygon fill="black" stroke="black" points="450.66,-40.69 447.16,-30.69 443.66,-40.69 450.66,-40.69"/>
</g>
<!-- :data:musicbrainz&#45;&gt;:core:logging:api -->
<g id="edge17" class="edge">
<title>:data:musicbrainz&#45;&gt;:core:logging:api</title>
<path fill="none" stroke="black" stroke-dasharray="1,5" d="M616.64,-148.39C616.64,-148.39 616.64,-34.54 616.64,-34.54"/>
<polygon fill="black" stroke="black" points="620.14,-34.54 616.64,-24.54 613.14,-34.54 620.14,-34.54"/>
</g>
<!-- :data:coverart&#45;&gt;:test&#45;data -->
<g id="edge20" class="edge">
<title>:data:coverart&#45;&gt;:test&#45;data</title>
<path fill="none" stroke="#ff9ab1" stroke-dasharray="1,5" d="M517.46,-446.63C517.46,-446.63 517.46,-538.87 517.46,-538.87"/>
<polygon fill="#ff9ab1" stroke="#ff9ab1" points="513.96,-538.87 517.46,-548.87 520.96,-538.87 513.96,-538.87"/>
</g>
<!-- :data:coverart&#45;&gt;:shared:domain -->
<g id="edge18" class="edge">
<title>:data:coverart&#45;&gt;:shared:domain</title>
<path fill="none" stroke="black" stroke-dasharray="1,5" d="M507.92,-411.08C507.92,-360.96 507.92,-223 507.92,-223 507.92,-223 395.55,-223 395.55,-223 395.55,-223 395.55,-46.19 395.55,-46.19"/>
<polygon fill="black" stroke="black" points="399.05,-46.19 395.55,-36.19 392.05,-46.19 399.05,-46.19"/>
</g>
<!-- :data:coverart&#45;&gt;:core:logging:api -->
<g id="edge19" class="edge">
<title>:data:coverart&#45;&gt;:core:logging:api</title>
<path fill="none" stroke="black" stroke-dasharray="1,5" d="M575.26,-429C609.13,-429 641.47,-429 641.47,-429 641.47,-429 641.47,-41.67 641.47,-41.67"/>
<polygon fill="black" stroke="black" points="644.97,-41.67 641.47,-31.67 637.97,-41.67 644.97,-41.67"/>
</g>
<!-- :data:coverart&#45;&gt;:data:database -->
<g id="edge22" class="edge">
<title>:data:coverart&#45;&gt;:data:database</title>
<path fill="none" stroke="#ff9ab1" stroke-dasharray="1,5" d="M448.67,-415.36C448.67,-415.36 448.67,-315.58 448.67,-315.58"/>
<polygon fill="#ff9ab1" stroke="#ff9ab1" points="452.17,-315.58 448.67,-305.58 445.17,-315.58 452.17,-315.58"/>
</g>
<!-- :data:coverart&#45;&gt;:data:musicbrainz -->
<g id="edge21" class="edge">
<title>:data:coverart&#45;&gt;:data:musicbrainz</title>
<path fill="none" stroke="#ff9ab1" stroke-dasharray="1,5" d="M541.5,-413.88C541.5,-413.88 541.5,-182.87 541.5,-182.87"/>
<polygon fill="#ff9ab1" stroke="#ff9ab1" points="545,-182.87 541.5,-172.87 538,-182.87 545,-182.87"/>
</g>
<!-- :data:spotify&#45;&gt;:shared:domain -->
<g id="edge23" class="edge">
<title>:data:spotify&#45;&gt;:shared:domain</title>
<path fill="none" stroke="black" stroke-dasharray="1,5" d="M715.25,-139C715.25,-118.61 715.25,-86 715.25,-86 715.25,-86 458.88,-86 458.88,-86 458.88,-86 458.88,-37.46 458.88,-37.46"/>
<polygon fill="black" stroke="black" points="462.38,-37.46 458.88,-27.46 455.38,-37.46 462.38,-37.46"/>
</g>
<!-- :data:spotify&#45;&gt;:core:logging:api -->
<g id="edge24" class="edge">
<title>:data:spotify&#45;&gt;:core:logging:api</title>
<path fill="none" stroke="black" stroke-dasharray="1,5" d="M751.34,-136.81C751.34,-136.81 751.34,-42.9 751.34,-42.9"/>
<polygon fill="black" stroke="black" points="754.84,-42.9 751.34,-32.9 747.84,-42.9 754.84,-42.9"/>
</g>
</g>
</svg>
