<?xml version="1.0" encoding="UTF-8" standalone="no"?>
<!DOCTYPE svg PUBLIC "-//W3C//DTD SVG 1.1//EN"
 "http://www.w3.org/Graphics/SVG/1.1/DTD/svg11.dtd">
<!-- Generated by graphviz version 2.43.0 (0)
 -->
<!-- Title: %3 Pages: 1 -->
<svg width="1015pt" height="1077pt"
 viewBox="0.00 0.00 1015.08 1077.00" xmlns="http://www.w3.org/2000/svg" xmlns:xlink="http://www.w3.org/1999/xlink">
<g id="graph0" class="graph" transform="scale(1 1) rotate(0) translate(4 1073)">
<title>%3</title>
<polygon fill="white" stroke="transparent" points="-4,4 -4,-1073 1011.08,-1073 1011.08,4 -4,4"/>
<text text-anchor="middle" x="503.54" y="-1041" font-family="Times,serif" font-size="30.00">Dependencies</text>
<text text-anchor="middle" x="503.54" y="-1008" font-family="Times,serif" font-size="30.00"> </text>
<!-- :shared:feature:licenses -->
<g id="node1" class="node">
<title>:shared:feature:licenses</title>
<polygon fill="#b59aff" stroke="black" points="730.84,-995 542.84,-995 542.84,-959 730.84,-959 730.84,-995"/>
<text text-anchor="middle" x="636.84" y="-973.3" font-family="Times,serif" font-size="14.00">:shared:feature:licenses</text>
</g>
<!-- :ui:common -->
<g id="node2" class="node">
<title>:ui:common</title>
<ellipse fill="#b59aff" stroke="black" cx="636.84" cy="-840" rx="64.19" ry="18"/>
<text text-anchor="middle" x="636.84" y="-836.3" font-family="Times,serif" font-size="14.00">:ui:common</text>
</g>
<!-- :shared:feature:licenses&#45;&gt;:ui:common -->
<g id="edge1" class="edge">
<title>:shared:feature:licenses&#45;&gt;:ui:common</title>
<path fill="none" stroke="black" stroke-dasharray="1,5" d="M636.84,-958.81C636.84,-958.81 636.84,-868.27 636.84,-868.27"/>
<polygon fill="black" stroke="black" points="640.34,-868.27 636.84,-858.27 633.34,-868.27 640.34,-868.27"/>
</g>
<!-- :test:image -->
<g id="node3" class="node">
<title>:test:image</title>
<ellipse fill="#9affb5" stroke="black" cx="132.84" cy="-566" rx="63.09" ry="18"/>
<text text-anchor="middle" x="132.84" y="-562.3" font-family="Times,serif" font-size="14.00">:test:image</text>
</g>
<!-- :ui:common&#45;&gt;:test:image -->
<g id="edge2" class="edge">
<title>:ui:common&#45;&gt;:test:image</title>
<path fill="none" stroke="black" stroke-dasharray="1,5" d="M575.71,-834C560.69,-834 548.83,-834 548.83,-834 548.83,-834 548.83,-572 548.83,-572 548.83,-572 202.44,-572 202.44,-572"/>
<polygon fill="black" stroke="black" points="202.44,-568.5 192.44,-572 202.44,-575.5 202.44,-568.5"/>
</g>
<!-- :test&#45;data -->
<g id="node4" class="node">
<title>:test&#45;data</title>
<ellipse fill="#b59aff" stroke="black" cx="636.84" cy="-703" rx="55.49" ry="18"/>
<text text-anchor="middle" x="636.84" y="-699.3" font-family="Times,serif" font-size="14.00">:test&#45;data</text>
</g>
<!-- :ui:common&#45;&gt;:test&#45;data -->
<g id="edge3" class="edge">
<title>:ui:common&#45;&gt;:test&#45;data</title>
<path fill="none" stroke="#ff9ab1" stroke-dasharray="1,5" d="M636.84,-821.81C636.84,-821.81 636.84,-731.27 636.84,-731.27"/>
<polygon fill="#ff9ab1" stroke="#ff9ab1" points="640.34,-731.27 636.84,-721.27 633.34,-731.27 640.34,-731.27"/>
</g>
<!-- :ui:test:screenshot -->
<g id="node5" class="node">
<title>:ui:test:screenshot</title>
<ellipse fill="#9affb5" stroke="black" cx="96.84" cy="-703" rx="96.68" ry="18"/>
<text text-anchor="middle" x="96.84" y="-699.3" font-family="Times,serif" font-size="14.00">:ui:test:screenshot</text>
</g>
<!-- :ui:common&#45;&gt;:ui:test:screenshot -->
<g id="edge4" class="edge">
<title>:ui:common&#45;&gt;:ui:test:screenshot</title>
<path fill="none" stroke="#ff9ab1" stroke-dasharray="1,5" d="M577.05,-833.12C577.05,-806.53 577.05,-712 577.05,-712 577.05,-712 190.76,-712 190.76,-712"/>
<polygon fill="#ff9ab1" stroke="#ff9ab1" points="190.76,-708.5 180.76,-712 190.76,-715.5 190.76,-708.5"/>
</g>
<!-- :core:coroutines -->
<g id="node6" class="node">
<title>:core:coroutines</title>
<ellipse fill="#b59aff" stroke="black" cx="811.84" cy="-18" rx="85.29" ry="18"/>
<text text-anchor="middle" x="811.84" y="-14.3" font-family="Times,serif" font-size="14.00">:core:coroutines</text>
</g>
<!-- :ui:common&#45;&gt;:core:coroutines -->
<g id="edge5" class="edge">
<title>:ui:common&#45;&gt;:core:coroutines</title>
<path fill="none" stroke="#ff9ab1" stroke-dasharray="1,5" d="M697.78,-846C757.89,-846 840.85,-846 840.85,-846 840.85,-846 840.85,-45.29 840.85,-45.29"/>
<polygon fill="#ff9ab1" stroke="#ff9ab1" points="844.35,-45.29 840.85,-35.29 837.35,-45.29 844.35,-45.29"/>
</g>
<!-- :shared:domain -->
<g id="node7" class="node">
<title>:shared:domain</title>
<ellipse fill="#b59aff" stroke="black" cx="700.84" cy="-155" rx="82.59" ry="18"/>
<text text-anchor="middle" x="700.84" y="-151.3" font-family="Times,serif" font-size="14.00">:shared:domain</text>
</g>
<!-- :ui:common&#45;&gt;:shared:domain -->
<g id="edge6" class="edge">
<title>:ui:common&#45;&gt;:shared:domain</title>
<path fill="none" stroke="black" d="M697.74,-834C756.66,-834 837.11,-834 837.11,-834 837.11,-834 837.11,-149 837.11,-149 837.11,-149 788.92,-149 788.92,-149"/>
<polygon fill="black" stroke="black" points="788.92,-145.5 778.92,-149 788.92,-152.5 788.92,-145.5"/>
</g>
<!-- :shared:strings -->
<g id="node8" class="node">
<title>:shared:strings</title>
<ellipse fill="#b59aff" stroke="black" cx="925.84" cy="-703" rx="81.49" ry="18"/>
<text text-anchor="middle" x="925.84" y="-699.3" font-family="Times,serif" font-size="14.00">:shared:strings</text>
</g>
<!-- :ui:common&#45;&gt;:shared:strings -->
<g id="edge7" class="edge">
<title>:ui:common&#45;&gt;:shared:strings</title>
<path fill="none" stroke="black" d="M696.64,-833.17C696.64,-806.79 696.64,-713 696.64,-713 696.64,-713 848,-713 848,-713"/>
<polygon fill="black" stroke="black" points="848,-716.5 858,-713 848,-709.5 848,-716.5"/>
</g>
<!-- :core:logging:api -->
<g id="node9" class="node">
<title>:core:logging:api</title>
<ellipse fill="#b59aff" stroke="black" cx="375.84" cy="-155" rx="88.28" ry="18"/>
<text text-anchor="middle" x="375.84" y="-151.3" font-family="Times,serif" font-size="14.00">:core:logging:api</text>
</g>
<!-- :ui:common&#45;&gt;:core:logging:api -->
<g id="edge8" class="edge">
<title>:ui:common&#45;&gt;:core:logging:api</title>
<path fill="none" stroke="black" stroke-dasharray="1,5" d="M575.89,-846C478.91,-846 300.28,-846 300.28,-846 300.28,-846 300.28,-174.51 300.28,-174.51"/>
<polygon fill="black" stroke="black" points="303.78,-174.51 300.28,-164.51 296.78,-174.51 303.78,-174.51"/>
</g>
<!-- :test&#45;data&#45;&gt;:core:coroutines -->
<g id="edge10" class="edge">
<title>:test&#45;data&#45;&gt;:core:coroutines</title>
<path fill="none" stroke="black" stroke-dasharray="1,5" d="M691.32,-706C749.48,-706 833.37,-706 833.37,-706 833.37,-706 833.37,-45.7 833.37,-45.7"/>
<polygon fill="black" stroke="black" points="836.87,-45.7 833.37,-35.7 829.87,-45.7 836.87,-45.7"/>
</g>
<!-- :test&#45;data&#45;&gt;:shared:domain -->
<g id="edge9" class="edge">
<title>:test&#45;data&#45;&gt;:shared:domain</title>
<path fill="none" stroke="black" stroke-dasharray="1,5" d="M690.8,-699C747.83,-699 829.62,-699 829.62,-699 829.62,-699 829.62,-161 829.62,-161 829.62,-161 788.72,-161 788.72,-161"/>
<polygon fill="black" stroke="black" points="788.72,-157.5 778.72,-161 788.72,-164.5 788.72,-157.5"/>
</g>
<!-- :data:database -->
<g id="node10" class="node">
<title>:data:database</title>
<ellipse fill="#b59aff" stroke="black" cx="742.84" cy="-429" rx="79.09" ry="18"/>
<text text-anchor="middle" x="742.84" y="-425.3" font-family="Times,serif" font-size="14.00">:data:database</text>
</g>
<!-- :test&#45;data&#45;&gt;:data:database -->
<g id="edge11" class="edge">
<title>:test&#45;data&#45;&gt;:data:database</title>
<path fill="none" stroke="black" stroke-dasharray="1,5" d="M680.85,-692C701.59,-692 721.86,-692 721.86,-692 721.86,-692 721.86,-456.66 721.86,-456.66"/>
<polygon fill="black" stroke="black" points="725.36,-456.66 721.86,-446.66 718.36,-456.66 725.36,-456.66"/>
</g>
<!-- :data:musicbrainz -->
<g id="node11" class="node">
<title>:data:musicbrainz</title>
<ellipse fill="#b59aff" stroke="black" cx="613.84" cy="-292" rx="93.68" ry="18"/>
<text text-anchor="middle" x="613.84" y="-288.3" font-family="Times,serif" font-size="14.00">:data:musicbrainz</text>
</g>
<!-- :test&#45;data&#45;&gt;:data:musicbrainz -->
<g id="edge12" class="edge">
<title>:test&#45;data&#45;&gt;:data:musicbrainz</title>
<path fill="none" stroke="black" stroke-dasharray="1,5" d="M588.65,-694C570.8,-694 554.81,-694 554.81,-694 554.81,-694 554.81,-316.31 554.81,-316.31"/>
<polygon fill="black" stroke="black" points="558.31,-316.31 554.81,-306.31 551.31,-316.31 558.31,-316.31"/>
</g>
<!-- :data:coverart -->
<g id="node12" class="node">
<title>:data:coverart</title>
<ellipse fill="#b59aff" stroke="black" cx="636.84" cy="-566" rx="76.09" ry="18"/>
<text text-anchor="middle" x="636.84" y="-562.3" font-family="Times,serif" font-size="14.00">:data:coverart</text>
</g>
<!-- :test&#45;data&#45;&gt;:data:coverart -->
<g id="edge13" class="edge">
<title>:test&#45;data&#45;&gt;:data:coverart</title>
<path fill="none" stroke="black" stroke-dasharray="1,5" d="M618.43,-685.93C618.43,-685.93 618.43,-593.72 618.43,-593.72"/>
<polygon fill="black" stroke="black" points="621.93,-593.72 618.43,-583.72 614.93,-593.72 621.93,-593.72"/>
</g>
<!-- :data:spotify -->
<g id="node13" class="node">
<title>:data:spotify</title>
<ellipse fill="#b59aff" stroke="black" cx="394.84" cy="-292" rx="68.79" ry="18"/>
<text text-anchor="middle" x="394.84" y="-288.3" font-family="Times,serif" font-size="14.00">:data:spotify</text>
</g>
<!-- :test&#45;data&#45;&gt;:data:spotify -->
<g id="edge14" class="edge">
<title>:test&#45;data&#45;&gt;:data:spotify</title>
<path fill="none" stroke="black" stroke-dasharray="1,5" d="M581.32,-703C509.88,-703 394.84,-703 394.84,-703 394.84,-703 394.84,-320.19 394.84,-320.19"/>
<polygon fill="black" stroke="black" points="398.34,-320.19 394.84,-310.19 391.34,-320.19 398.34,-320.19"/>
</g>
<!-- :ui:test:screenshot&#45;&gt;:test:image -->
<g id="edge15" class="edge">
<title>:ui:test:screenshot&#45;&gt;:test:image</title>
<path fill="none" stroke="black" stroke-dasharray="1,5" d="M131.74,-686.2C131.74,-686.2 131.74,-594.25 131.74,-594.25"/>
<polygon fill="black" stroke="black" points="135.24,-594.25 131.74,-584.25 128.24,-594.25 135.24,-594.25"/>
</g>
<!-- :core:logging:api&#45;&gt;:core:coroutines -->
<g id="edge16" class="edge">
<title>:core:logging:api&#45;&gt;:core:coroutines</title>
<path fill="none" stroke="black" d="M375.84,-136.81C375.84,-99.54 375.84,-18 375.84,-18 375.84,-18 716.48,-18 716.48,-18"/>
<polygon fill="black" stroke="black" points="716.48,-21.5 726.48,-18 716.48,-14.5 716.48,-21.5"/>
</g>
<!-- :data:database&#45;&gt;:core:coroutines -->
<g id="edge18" class="edge">
<title>:data:database&#45;&gt;:core:coroutines</title>
<path fill="none" stroke="black" stroke-dasharray="1,5" d="M802.76,-417.14C802.76,-417.14 802.76,-46.02 802.76,-46.02"/>
<polygon fill="black" stroke="black" points="806.26,-46.02 802.76,-36.02 799.26,-46.02 806.26,-46.02"/>
</g>
<!-- :data:database&#45;&gt;:shared:domain -->
<g id="edge17" class="edge">
<title>:data:database&#45;&gt;:shared:domain</title>
<path fill="none" stroke="black" stroke-dasharray="1,5" d="M758.07,-411.02C758.07,-411.02 758.07,-178.03 758.07,-178.03"/>
<polygon fill="black" stroke="black" points="761.57,-178.03 758.07,-168.03 754.57,-178.03 761.57,-178.03"/>
</g>
<!-- :data:database&#45;&gt;:data:musicbrainz -->
<g id="edge19" class="edge">
<title>:data:database&#45;&gt;:data:musicbrainz</title>
<path fill="none" stroke="black" stroke-dasharray="1,5" d="M685.49,-416.36C685.49,-416.36 685.49,-313.83 685.49,-313.83"/>
<polygon fill="black" stroke="black" points="688.99,-313.83 685.49,-303.83 681.99,-313.83 688.99,-313.83"/>
</g>
<!-- :data:musicbrainz&#45;&gt;:shared:domain -->
<g id="edge20" class="edge">
<title>:data:musicbrainz&#45;&gt;:shared:domain</title>
<path fill="none" stroke="black" stroke-dasharray="1,5" d="M662.87,-276.55C662.87,-276.55 662.87,-181.03 662.87,-181.03"/>
<polygon fill="black" stroke="black" points="666.37,-181.03 662.87,-171.03 659.37,-181.03 666.37,-181.03"/>
</g>
<!-- :data:musicbrainz&#45;&gt;:core:logging:api -->
<g id="edge21" class="edge">
<title>:data:musicbrainz&#45;&gt;:core:logging:api</title>
<path fill="none" stroke="black" stroke-dasharray="1,5" d="M569.27,-276.15C569.27,-238.92 569.27,-149 569.27,-149 569.27,-149 469.28,-149 469.28,-149"/>
<polygon fill="black" stroke="black" points="469.28,-145.5 459.28,-149 469.28,-152.5 469.28,-145.5"/>
</g>
<!-- :data:coverart&#45;&gt;:test&#45;data -->
<g id="edge25" class="edge">
<title>:data:coverart&#45;&gt;:test&#45;data</title>
<path fill="none" stroke="#ff9ab1" stroke-dasharray="1,5" d="M655.26,-583.63C655.26,-583.63 655.26,-675.87 655.26,-675.87"/>
<polygon fill="#ff9ab1" stroke="#ff9ab1" points="651.76,-675.87 655.26,-685.87 658.76,-675.87 651.76,-675.87"/>
</g>
<!-- :data:coverart&#45;&gt;:core:coroutines -->
<g id="edge24" class="edge">
<title>:data:coverart&#45;&gt;:core:coroutines</title>
<path fill="none" stroke="black" stroke-dasharray="1,5" d="M712.91,-566C765.44,-566 825.88,-566 825.88,-566 825.88,-566 825.88,-45.92 825.88,-45.92"/>
<polygon fill="black" stroke="black" points="829.38,-45.92 825.88,-35.92 822.38,-45.92 829.38,-45.92"/>
</g>
<!-- :data:coverart&#45;&gt;:shared:domain -->
<g id="edge22" class="edge">
<title>:data:coverart&#45;&gt;:shared:domain</title>
<path fill="none" stroke="black" stroke-dasharray="1,5" d="M629.3,-548.08C629.3,-497.96 629.3,-360 629.3,-360 629.3,-360 732.75,-360 732.75,-360 732.75,-360 732.75,-181.78 732.75,-181.78"/>
<polygon fill="black" stroke="black" points="736.25,-181.78 732.75,-171.78 729.25,-181.78 736.25,-181.78"/>
</g>
<!-- :data:coverart&#45;&gt;:core:logging:api -->
<g id="edge23" class="edge">
<title>:data:coverart&#45;&gt;:core:logging:api</title>
<path fill="none" stroke="black" stroke-dasharray="1,5" d="M565,-560C469.62,-560 313.11,-560 313.11,-560 313.11,-560 313.11,-178.02 313.11,-178.02"/>
<polygon fill="black" stroke="black" points="316.61,-178.02 313.11,-168.02 309.61,-178.02 316.61,-178.02"/>
</g>
<!-- :data:coverart&#45;&gt;:data:database -->
<g id="edge27" class="edge">
<title>:data:coverart&#45;&gt;:data:database</title>
<path fill="none" stroke="#ff9ab1" stroke-dasharray="1,5" d="M688.22,-552.61C688.22,-552.61 688.22,-452.24 688.22,-452.24"/>
<polygon fill="#ff9ab1" stroke="#ff9ab1" points="691.72,-452.24 688.22,-442.24 684.72,-452.24 691.72,-452.24"/>
</g>
<!-- :data:coverart&#45;&gt;:data:musicbrainz -->
<g id="edge26" class="edge">
<title>:data:coverart&#45;&gt;:data:musicbrainz</title>
<path fill="none" stroke="#ff9ab1" stroke-dasharray="1,5" d="M595.05,-550.88C595.05,-550.88 595.05,-319.87 595.05,-319.87"/>
<polygon fill="#ff9ab1" stroke="#ff9ab1" points="598.55,-319.87 595.05,-309.87 591.55,-319.87 598.55,-319.87"/>
</g>
<!-- :data:spotify&#45;&gt;:shared:domain -->
<g id="edge28" class="edge">
<title>:data:spotify&#45;&gt;:shared:domain</title>
<path fill="none" stroke="black" stroke-dasharray="1,5" d="M463.81,-292C479.8,-292 492.24,-292 492.24,-292 492.24,-292 492.24,-161 492.24,-161 492.24,-161 612.87,-161 612.87,-161"/>
<polygon fill="black" stroke="black" points="612.87,-164.5 622.87,-161 612.87,-157.5 612.87,-164.5"/>
</g>
<!-- :data:spotify&#45;&gt;:core:logging:api -->
<g id="edge29" class="edge">
<title>:data:spotify&#45;&gt;:core:logging:api</title>
<path fill="none" stroke="black" stroke-dasharray="1,5" d="M394.84,-273.81C394.84,-273.81 394.84,-182.83 394.84,-182.83"/>
<polygon fill="black" stroke="black" points="398.34,-182.83 394.84,-172.83 391.34,-182.83 398.34,-182.83"/>
</g>
</g>
</svg>
