<?xml version="1.0" encoding="UTF-8" standalone="no"?>
<!DOCTYPE svg PUBLIC "-//W3C//DTD SVG 1.1//EN"
 "http://www.w3.org/Graphics/SVG/1.1/DTD/svg11.dtd">
<!-- Generated by graphviz version 14.1.2 (0)
 -->
<!-- Pages: 1 -->
<svg width="882pt" height="809pt"
 viewBox="0.00 0.00 882.00 809.00" xmlns="http://www.w3.org/2000/svg" xmlns:xlink="http://www.w3.org/1999/xlink">
<g id="graph0" class="graph" transform="scale(1 1) rotate(0) translate(4 805)">
<polygon fill="white" stroke="none" points="-4,4 -4,-805 877.91,-805 877.91,4 -4,4"/>
<text xml:space="preserve" text-anchor="middle" x="436.95" y="-768.5" font-family="Times,serif" font-size="30.00">Dependencies</text>
<text xml:space="preserve" text-anchor="middle" x="436.95" y="-732.5" font-family="Times,serif" font-size="30.00"> </text>
<!-- :shared:feature:licenses -->
<g id="node1" class="node">
<title>:shared:feature:licenses</title>
<polygon fill="#b59aff" stroke="black" points="693.06,-721 506.06,-721 506.06,-685 693.06,-685 693.06,-721"/>
<text xml:space="preserve" text-anchor="middle" x="599.56" y="-698.33" font-family="Times,serif" font-size="14.00">:shared:feature:licenses</text>
</g>
<!-- :ui:common -->
<g id="node2" class="node">
<title>:ui:common</title>
<ellipse fill="#b59aff" stroke="black" cx="599.56" cy="-566" rx="69.1" ry="18"/>
<text xml:space="preserve" text-anchor="middle" x="599.56" y="-561.33" font-family="Times,serif" font-size="14.00">:ui:common</text>
</g>
<!-- :shared:feature:licenses&#45;&gt;:ui:common -->
<g id="edge1" class="edge">
<title>:shared:feature:licenses&#45;&gt;:ui:common</title>
<path fill="none" stroke="black" stroke-dasharray="1,5" d="M599.56,-684.52C599.56,-684.52 599.56,-595.7 599.56,-595.7"/>
<polygon fill="black" stroke="black" points="603.06,-595.7 599.56,-585.7 596.06,-595.7 603.06,-595.7"/>
</g>
<!-- :test&#45;data -->
<g id="node3" class="node">
<title>:test&#45;data</title>
<ellipse fill="#b59aff" stroke="black" cx="315.56" cy="-429" rx="59.1" ry="18"/>
<text xml:space="preserve" text-anchor="middle" x="315.56" y="-424.32" font-family="Times,serif" font-size="14.00">:test&#45;data</text>
</g>
<!-- :ui:common&#45;&gt;:test&#45;data -->
<g id="edge2" class="edge">
<title>:ui:common&#45;&gt;:test&#45;data</title>
<path fill="none" stroke="#ff9ab1" stroke-dasharray="1,5" d="M550.88,-552.96C550.88,-519.83 550.88,-435 550.88,-435 550.88,-435 383.44,-435 383.44,-435"/>
<polygon fill="#ff9ab1" stroke="#ff9ab1" points="383.44,-431.5 373.44,-435 383.44,-438.5 383.44,-431.5"/>
</g>
<!-- :ui:test:screenshot -->
<g id="node4" class="node">
<title>:ui:test:screenshot</title>
<ellipse fill="#b59aff" stroke="black" cx="769.56" cy="-429" rx="104.35" ry="18"/>
<text xml:space="preserve" text-anchor="middle" x="769.56" y="-424.32" font-family="Times,serif" font-size="14.00">:ui:test:screenshot</text>
</g>
<!-- :ui:common&#45;&gt;:ui:test:screenshot -->
<g id="edge3" class="edge">
<title>:ui:common&#45;&gt;:ui:test:screenshot</title>
<path fill="none" stroke="#ff9ab1" stroke-dasharray="1,5" d="M668.86,-566C676.09,-566 680.86,-566 680.86,-566 680.86,-566 680.86,-450.37 680.86,-450.37"/>
<polygon fill="#ff9ab1" stroke="#ff9ab1" points="684.36,-450.37 680.86,-440.37 677.36,-450.37 684.36,-450.37"/>
</g>
<!-- :test:image -->
<g id="node5" class="node">
<title>:test:image</title>
<ellipse fill="#b59aff" stroke="black" cx="732.56" cy="-292" rx="67.52" ry="18"/>
<text xml:space="preserve" text-anchor="middle" x="732.56" y="-287.32" font-family="Times,serif" font-size="14.00">:test:image</text>
</g>
<!-- :ui:common&#45;&gt;:test:image -->
<g id="edge4" class="edge">
<title>:ui:common&#45;&gt;:test:image</title>
<path fill="none" stroke="black" stroke-dasharray="1,5" d="M618.16,-548.42C618.16,-488.79 618.16,-298 618.16,-298 618.16,-298 656.83,-298 656.83,-298"/>
<polygon fill="black" stroke="black" points="656.83,-301.5 666.83,-298 656.83,-294.5 656.83,-301.5"/>
</g>
<!-- :shared:domain -->
<g id="node6" class="node">
<title>:shared:domain</title>
<ellipse fill="#b59aff" stroke="black" cx="88.56" cy="-18" rx="88.56" ry="18"/>
<text xml:space="preserve" text-anchor="middle" x="88.56" y="-13.32" font-family="Times,serif" font-size="14.00">:shared:domain</text>
</g>
<!-- :ui:common&#45;&gt;:shared:domain -->
<g id="edge5" class="edge">
<title>:ui:common&#45;&gt;:shared:domain</title>
<path fill="none" stroke="black" d="M533.74,-572C379.13,-572 5.72,-572 5.72,-572 5.72,-572 5.72,-36.12 5.72,-36.12"/>
<polygon fill="black" stroke="black" points="9.22,-36.12 5.72,-26.12 2.22,-36.12 9.22,-36.12"/>
</g>
<!-- :core:logging:api -->
<g id="node7" class="node">
<title>:core:logging:api</title>
<ellipse fill="#b59aff" stroke="black" cx="349.56" cy="-18" rx="94.88" ry="18"/>
<text xml:space="preserve" text-anchor="middle" x="349.56" y="-13.32" font-family="Times,serif" font-size="14.00">:core:logging:api</text>
</g>
<!-- :ui:common&#45;&gt;:core:logging:api -->
<g id="edge6" class="edge">
<title>:ui:common&#45;&gt;:core:logging:api</title>
<path fill="none" stroke="black" stroke-dasharray="1,5" d="M533.76,-560C475.16,-560 398.62,-560 398.62,-560 398.62,-560 398.62,-45.15 398.62,-45.15"/>
<polygon fill="black" stroke="black" points="402.12,-45.15 398.62,-35.15 395.12,-45.15 402.12,-45.15"/>
</g>
<!-- :test&#45;data&#45;&gt;:shared:domain -->
<g id="edge7" class="edge">
<title>:test&#45;data&#45;&gt;:shared:domain</title>
<path fill="none" stroke="black" stroke-dasharray="1,5" d="M259.43,-435C171.56,-435 11.45,-435 11.45,-435 11.45,-435 11.45,-38.61 11.45,-38.61"/>
<polygon fill="black" stroke="black" points="14.95,-38.61 11.45,-28.61 7.95,-38.61 14.95,-38.61"/>
</g>
<!-- :data:database -->
<g id="node8" class="node">
<title>:data:database</title>
<ellipse fill="#b59aff" stroke="black" cx="123.56" cy="-292" rx="84.88" ry="18"/>
<text xml:space="preserve" text-anchor="middle" x="123.56" y="-287.32" font-family="Times,serif" font-size="14.00">:data:database</text>
</g>
<!-- :test&#45;data&#45;&gt;:data:database -->
<g id="edge8" class="edge">
<title>:test&#45;data&#45;&gt;:data:database</title>
<path fill="none" stroke="black" stroke-dasharray="1,5" d="M286.01,-413.15C286.01,-375.92 286.01,-286 286.01,-286 286.01,-286 215.82,-286 215.82,-286"/>
<polygon fill="black" stroke="black" points="215.82,-282.5 205.82,-286 215.82,-289.5 215.82,-282.5"/>
</g>
<!-- :data:musicbrainz -->
<g id="node9" class="node">
<title>:data:musicbrainz</title>
<ellipse fill="#b59aff" stroke="black" cx="123.56" cy="-155" rx="100.66" ry="18"/>
<text xml:space="preserve" text-anchor="middle" x="123.56" y="-150.32" font-family="Times,serif" font-size="14.00">:data:musicbrainz</text>
</g>
<!-- :test&#45;data&#45;&gt;:data:musicbrainz -->
<g id="edge9" class="edge">
<title>:test&#45;data&#45;&gt;:data:musicbrainz</title>
<path fill="none" stroke="black" stroke-dasharray="1,5" d="M259.28,-423C236.88,-423 216.33,-423 216.33,-423 216.33,-423 216.33,-173.68 216.33,-173.68"/>
<polygon fill="black" stroke="black" points="219.83,-173.68 216.33,-163.68 212.83,-173.68 219.83,-173.68"/>
</g>
<!-- :data:coverart -->
<g id="node10" class="node">
<title>:data:coverart</title>
<ellipse fill="#b59aff" stroke="black" cx="489.56" cy="-155" rx="81.72" ry="18"/>
<text xml:space="preserve" text-anchor="middle" x="489.56" y="-150.32" font-family="Times,serif" font-size="14.00">:data:coverart</text>
</g>
<!-- :test&#45;data&#45;&gt;:data:coverart -->
<g id="edge10" class="edge">
<title>:test&#45;data&#45;&gt;:data:coverart</title>
<path fill="none" stroke="black" stroke-dasharray="1,5" d="M371.85,-423C411.28,-423 456.95,-423 456.95,-423 456.95,-423 456.95,-183.28 456.95,-183.28"/>
<polygon fill="black" stroke="black" points="460.45,-183.28 456.95,-173.28 453.45,-183.28 460.45,-183.28"/>
</g>
<!-- :data:spotify -->
<g id="node11" class="node">
<title>:data:spotify</title>
<ellipse fill="#b59aff" stroke="black" cx="315.56" cy="-155" rx="73.83" ry="18"/>
<text xml:space="preserve" text-anchor="middle" x="315.56" y="-150.32" font-family="Times,serif" font-size="14.00">:data:spotify</text>
</g>
<!-- :test&#45;data&#45;&gt;:data:spotify -->
<g id="edge11" class="edge">
<title>:test&#45;data&#45;&gt;:data:spotify</title>
<path fill="none" stroke="black" stroke-dasharray="1,5" d="M315.56,-410.6C315.56,-410.6 315.56,-184.84 315.56,-184.84"/>
<polygon fill="black" stroke="black" points="319.06,-184.84 315.56,-174.84 312.06,-184.84 319.06,-184.84"/>
</g>
<!-- :ui:test:screenshot&#45;&gt;:test:image -->
<g id="edge12" class="edge">
<title>:ui:test:screenshot&#45;&gt;:test:image</title>
<path fill="none" stroke="black" stroke-dasharray="1,5" d="M732.65,-411.93C732.65,-411.93 732.65,-321.68 732.65,-321.68"/>
<polygon fill="black" stroke="black" points="736.15,-321.68 732.65,-311.68 729.15,-321.68 736.15,-321.68"/>
</g>
<!-- :data:database&#45;&gt;:shared:domain -->
<g id="edge13" class="edge">
<title>:data:database&#45;&gt;:shared:domain</title>
<path fill="none" stroke="black" stroke-dasharray="1,5" d="M38.19,-292C25.83,-292 17.17,-292 17.17,-292 17.17,-292 17.17,-40.25 17.17,-40.25"/>
<polygon fill="black" stroke="black" points="20.67,-40.25 17.17,-30.25 13.67,-40.25 20.67,-40.25"/>
</g>
<!-- :data:database&#45;&gt;:data:musicbrainz -->
<g id="edge14" class="edge">
<title>:data:database&#45;&gt;:data:musicbrainz</title>
<path fill="none" stroke="black" stroke-dasharray="1,5" d="M123.56,-273.52C123.56,-273.52 123.56,-184.7 123.56,-184.7"/>
<polygon fill="black" stroke="black" points="127.06,-184.7 123.56,-174.7 120.06,-184.7 127.06,-184.7"/>
</g>
<!-- :data:musicbrainz&#45;&gt;:shared:domain -->
<g id="edge15" class="edge">
<title>:data:musicbrainz&#45;&gt;:shared:domain</title>
<path fill="none" stroke="black" stroke-dasharray="1,5" d="M74.31,-139.02C74.31,-139.02 74.31,-47.56 74.31,-47.56"/>
<polygon fill="black" stroke="black" points="77.81,-47.56 74.31,-37.56 70.81,-47.56 77.81,-47.56"/>
</g>
<!-- :data:musicbrainz&#45;&gt;:core:logging:api -->
<g id="edge16" class="edge">
<title>:data:musicbrainz&#45;&gt;:core:logging:api</title>
<path fill="none" stroke="black" stroke-dasharray="1,5" d="M200.67,-143.3C200.67,-109.15 200.67,-12 200.67,-12 200.67,-12 248,-12 248,-12"/>
<polygon fill="black" stroke="black" points="248,-15.5 258,-12 248,-8.5 248,-15.5"/>
</g>
<!-- :data:coverart&#45;&gt;:shared:domain -->
<g id="edge17" class="edge">
<title>:data:coverart&#45;&gt;:shared:domain</title>
<path fill="none" stroke="black" stroke-dasharray="1,5" d="M420.04,-145.26C420.04,-126.45 420.04,-87 420.04,-87 420.04,-87 125.72,-87 125.72,-87 125.72,-87 125.72,-46.22 125.72,-46.22"/>
<polygon fill="black" stroke="black" points="129.22,-46.22 125.72,-36.22 122.22,-46.22 129.22,-46.22"/>
</g>
<!-- :data:coverart&#45;&gt;:core:logging:api -->
<g id="edge18" class="edge">
<title>:data:coverart&#45;&gt;:core:logging:api</title>
<path fill="none" stroke="black" stroke-dasharray="1,5" d="M432.24,-141.86C432.24,-141.86 432.24,-38.69 432.24,-38.69"/>
<polygon fill="black" stroke="black" points="435.74,-38.69 432.24,-28.69 428.74,-38.69 435.74,-38.69"/>
</g>
<!-- :data:spotify&#45;&gt;:test&#45;data -->
<g id="edge21" class="edge">
<title>:data:spotify&#45;&gt;:test&#45;data</title>
<path fill="none" stroke="#ff9ab1" stroke-dasharray="1,5" d="M345.11,-171.73C345.11,-171.73 345.11,-401.66 345.11,-401.66"/>
<polygon fill="#ff9ab1" stroke="#ff9ab1" points="341.61,-401.66 345.11,-411.66 348.61,-401.66 341.61,-401.66"/>
</g>
<!-- :data:spotify&#45;&gt;:shared:domain -->
<g id="edge19" class="edge">
<title>:data:spotify&#45;&gt;:shared:domain</title>
<path fill="none" stroke="black" stroke-dasharray="1,5" d="M248.21,-147.2C248.21,-119 248.21,-24 248.21,-24 248.21,-24 184.11,-24 184.11,-24"/>
<polygon fill="black" stroke="black" points="184.11,-20.5 174.11,-24 184.11,-27.5 184.11,-20.5"/>
</g>
<!-- :data:spotify&#45;&gt;:core:logging:api -->
<g id="edge20" class="edge">
<title>:data:spotify&#45;&gt;:core:logging:api</title>
<path fill="none" stroke="black" stroke-dasharray="1,5" d="M322.04,-136.81C322.04,-136.81 322.04,-46.91 322.04,-46.91"/>
<polygon fill="black" stroke="black" points="325.54,-46.91 322.04,-36.91 318.54,-46.91 325.54,-46.91"/>
</g>
</g>
</svg>
