<?xml version="1.0" encoding="UTF-8" standalone="no"?>
<!DOCTYPE svg PUBLIC "-//W3C//DTD SVG 1.1//EN"
 "http://www.w3.org/Graphics/SVG/1.1/DTD/svg11.dtd">
<!-- Generated by graphviz version 2.43.0 (0)
 -->
<!-- Title: %3 Pages: 1 -->
<svg width="1114pt" height="1077pt"
 viewBox="0.00 0.00 1113.98 1077.00" xmlns="http://www.w3.org/2000/svg" xmlns:xlink="http://www.w3.org/1999/xlink">
<g id="graph0" class="graph" transform="scale(1 1) rotate(0) translate(4 1073)">
<title>%3</title>
<polygon fill="white" stroke="transparent" points="-4,4 -4,-1073 1109.98,-1073 1109.98,4 -4,4"/>
<text text-anchor="middle" x="552.99" y="-1041" font-family="Times,serif" font-size="30.00">Dependencies</text>
<text text-anchor="middle" x="552.99" y="-1008" font-family="Times,serif" font-size="30.00"> </text>
<!-- :shared:feature:licenses -->
<g id="node1" class="node">
<title>:shared:feature:licenses</title>
<polygon fill="#b59aff" stroke="black" points="767.14,-995 579.14,-995 579.14,-959 767.14,-959 767.14,-995"/>
<text text-anchor="middle" x="673.14" y="-973.3" font-family="Times,serif" font-size="14.00">:shared:feature:licenses</text>
</g>
<!-- :ui:common -->
<g id="node2" class="node">
<title>:ui:common</title>
<ellipse fill="#b59aff" stroke="black" cx="673.14" cy="-840" rx="64.19" ry="18"/>
<text text-anchor="middle" x="673.14" y="-836.3" font-family="Times,serif" font-size="14.00">:ui:common</text>
</g>
<!-- :shared:feature:licenses&#45;&gt;:ui:common -->
<g id="edge1" class="edge">
<title>:shared:feature:licenses&#45;&gt;:ui:common</title>
<path fill="none" stroke="black" stroke-dasharray="1,5" d="M673.14,-958.81C673.14,-958.81 673.14,-868.27 673.14,-868.27"/>
<polygon fill="black" stroke="black" points="676.64,-868.27 673.14,-858.27 669.64,-868.27 676.64,-868.27"/>
</g>
<!-- :test&#45;data -->
<g id="node3" class="node">
<title>:test&#45;data</title>
<ellipse fill="#b59aff" stroke="black" cx="509.14" cy="-566" rx="55.49" ry="18"/>
<text text-anchor="middle" x="509.14" y="-562.3" font-family="Times,serif" font-size="14.00">:test&#45;data</text>
</g>
<!-- :ui:common&#45;&gt;:test&#45;data -->
<g id="edge2" class="edge">
<title>:ui:common&#45;&gt;:test&#45;data</title>
<path fill="none" stroke="#ff9ab1" stroke-dasharray="1,5" d="M617.16,-831C569.65,-831 509.14,-831 509.14,-831 509.14,-831 509.14,-594.21 509.14,-594.21"/>
<polygon fill="#ff9ab1" stroke="#ff9ab1" points="512.64,-594.21 509.14,-584.21 505.64,-594.21 512.64,-594.21"/>
</g>
<!-- :ui:test:screenshot -->
<g id="node4" class="node">
<title>:ui:test:screenshot</title>
<ellipse fill="#9affb5" stroke="black" cx="1009.14" cy="-703" rx="96.68" ry="18"/>
<text text-anchor="middle" x="1009.14" y="-699.3" font-family="Times,serif" font-size="14.00">:ui:test:screenshot</text>
</g>
<!-- :ui:common&#45;&gt;:ui:test:screenshot -->
<g id="edge3" class="edge">
<title>:ui:common&#45;&gt;:ui:test:screenshot</title>
<path fill="none" stroke="#ff9ab1" stroke-dasharray="1,5" d="M729,-849C824.55,-849 1009.14,-849 1009.14,-849 1009.14,-849 1009.14,-731.2 1009.14,-731.2"/>
<polygon fill="#ff9ab1" stroke="#ff9ab1" points="1012.64,-731.2 1009.14,-721.2 1005.64,-731.2 1012.64,-731.2"/>
</g>
<!-- :core:coroutines -->
<g id="node5" class="node">
<title>:core:coroutines</title>
<ellipse fill="#b59aff" stroke="black" cx="85.14" cy="-155" rx="85.29" ry="18"/>
<text text-anchor="middle" x="85.14" y="-151.3" font-family="Times,serif" font-size="14.00">:core:coroutines</text>
</g>
<!-- :ui:common&#45;&gt;:core:coroutines -->
<g id="edge4" class="edge">
<title>:ui:common&#45;&gt;:core:coroutines</title>
<path fill="none" stroke="#ff9ab1" stroke-dasharray="1,5" d="M617.27,-849C461.55,-849 34.06,-849 34.06,-849 34.06,-849 34.06,-179.5 34.06,-179.5"/>
<polygon fill="#ff9ab1" stroke="#ff9ab1" points="37.56,-179.5 34.06,-169.5 30.56,-179.5 37.56,-179.5"/>
</g>
<!-- :shared:domain -->
<g id="node6" class="node">
<title>:shared:domain</title>
<ellipse fill="#b59aff" stroke="black" cx="654.14" cy="-18" rx="82.59" ry="18"/>
<text text-anchor="middle" x="654.14" y="-14.3" font-family="Times,serif" font-size="14.00">:shared:domain</text>
</g>
<!-- :ui:common&#45;&gt;:shared:domain -->
<g id="edge5" class="edge">
<title>:ui:common&#45;&gt;:shared:domain</title>
<path fill="none" stroke="black" d="M718.42,-827.09C718.42,-827.09 718.42,-39.4 718.42,-39.4"/>
<polygon fill="black" stroke="black" points="721.92,-39.4 718.42,-29.4 714.92,-39.4 721.92,-39.4"/>
</g>
<!-- :ui:core -->
<g id="node7" class="node">
<title>:ui:core</title>
<ellipse fill="#b59aff" stroke="black" cx="884.14" cy="-566" rx="45.49" ry="18"/>
<text text-anchor="middle" x="884.14" y="-562.3" font-family="Times,serif" font-size="14.00">:ui:core</text>
</g>
<!-- :ui:common&#45;&gt;:ui:core -->
<g id="edge6" class="edge">
<title>:ui:common&#45;&gt;:ui:core</title>
<path fill="none" stroke="black" d="M737.61,-840C799.68,-840 884.19,-840 884.19,-840 884.19,-840 884.19,-594.4 884.19,-594.4"/>
<polygon fill="black" stroke="black" points="887.69,-594.4 884.19,-584.4 880.69,-594.4 887.69,-594.4"/>
</g>
<!-- :data:repository -->
<g id="node8" class="node">
<title>:data:repository</title>
<ellipse fill="#b59aff" stroke="black" cx="337.14" cy="-703" rx="85.29" ry="18"/>
<text text-anchor="middle" x="337.14" y="-699.3" font-family="Times,serif" font-size="14.00">:data:repository</text>
</g>
<!-- :ui:common&#45;&gt;:data:repository -->
<g id="edge7" class="edge">
<title>:ui:common&#45;&gt;:data:repository</title>
<path fill="none" stroke="black" stroke-dasharray="1,5" d="M681.88,-822.06C681.88,-786.18 681.88,-709 681.88,-709 681.88,-709 427.53,-709 427.53,-709"/>
<polygon fill="black" stroke="black" points="427.53,-705.5 417.53,-709 427.53,-712.5 427.53,-705.5"/>
</g>
<!-- :data:musicbrainz -->
<g id="node9" class="node">
<title>:data:musicbrainz</title>
<ellipse fill="#b59aff" stroke="black" cx="358.14" cy="-155" rx="93.68" ry="18"/>
<text text-anchor="middle" x="358.14" y="-151.3" font-family="Times,serif" font-size="14.00">:data:musicbrainz</text>
</g>
<!-- :ui:common&#45;&gt;:data:musicbrainz -->
<g id="edge8" class="edge">
<title>:ui:common&#45;&gt;:data:musicbrainz</title>
<path fill="none" stroke="black" stroke-dasharray="1,5" d="M700.15,-823.6C700.15,-732.42 700.15,-292 700.15,-292 700.15,-292 444.63,-292 444.63,-292 444.63,-292 444.63,-171.98 444.63,-171.98"/>
<polygon fill="black" stroke="black" points="448.13,-171.98 444.63,-161.98 441.13,-171.98 448.13,-171.98"/>
</g>
<!-- :core:logging:api -->
<g id="node10" class="node">
<title>:core:logging:api</title>
<ellipse fill="#b59aff" stroke="black" cx="198.14" cy="-18" rx="88.28" ry="18"/>
<text text-anchor="middle" x="198.14" y="-14.3" font-family="Times,serif" font-size="14.00">:core:logging:api</text>
</g>
<!-- :ui:common&#45;&gt;:core:logging:api -->
<g id="edge9" class="edge">
<title>:ui:common&#45;&gt;:core:logging:api</title>
<path fill="none" stroke="black" stroke-dasharray="1,5" d="M608.42,-840C481.27,-840 211.14,-840 211.14,-840 211.14,-840 211.14,-45.93 211.14,-45.93"/>
<polygon fill="black" stroke="black" points="214.64,-45.93 211.14,-35.93 207.64,-45.93 214.64,-45.93"/>
</g>
<!-- :ui:image -->
<g id="node11" class="node">
<title>:ui:image</title>
<ellipse fill="#b59aff" stroke="black" cx="802.14" cy="-703" rx="53.89" ry="18"/>
<text text-anchor="middle" x="802.14" y="-699.3" font-family="Times,serif" font-size="14.00">:ui:image</text>
</g>
<!-- :ui:common&#45;&gt;:ui:image -->
<g id="edge10" class="edge">
<title>:ui:common&#45;&gt;:ui:image</title>
<path fill="none" stroke="black" stroke-dasharray="1,5" d="M729.05,-831C744.77,-831 757.67,-831 757.67,-831 757.67,-831 757.67,-723.47 757.67,-723.47"/>
<polygon fill="black" stroke="black" points="761.17,-723.47 757.67,-713.47 754.17,-723.47 761.17,-723.47"/>
</g>
<!-- :test&#45;data&#45;&gt;:core:coroutines -->
<g id="edge12" class="edge">
<title>:test&#45;data&#45;&gt;:core:coroutines</title>
<path fill="none" stroke="black" stroke-dasharray="1,5" d="M453.73,-566C335.28,-566 68.11,-566 68.11,-566 68.11,-566 68.11,-182.66 68.11,-182.66"/>
<polygon fill="black" stroke="black" points="71.61,-182.66 68.11,-172.66 64.61,-182.66 71.61,-182.66"/>
</g>
<!-- :test&#45;data&#45;&gt;:shared:domain -->
<g id="edge11" class="edge">
<title>:test&#45;data&#45;&gt;:shared:domain</title>
<path fill="none" stroke="black" stroke-dasharray="1,5" d="M564.54,-566C602.24,-566 645.34,-566 645.34,-566 645.34,-566 645.34,-45.92 645.34,-45.92"/>
<polygon fill="black" stroke="black" points="648.84,-45.92 645.34,-35.92 641.84,-45.92 648.84,-45.92"/>
</g>
<!-- :test&#45;data&#45;&gt;:data:musicbrainz -->
<g id="edge14" class="edge">
<title>:test&#45;data&#45;&gt;:data:musicbrainz</title>
<path fill="none" stroke="black" stroke-dasharray="1,5" d="M461.21,-557C391.25,-557 269.42,-557 269.42,-557 269.42,-557 269.42,-170.99 269.42,-170.99"/>
<polygon fill="black" stroke="black" points="272.92,-170.99 269.42,-160.99 265.92,-170.99 272.92,-170.99"/>
</g>
<!-- :data:database -->
<g id="node12" class="node">
<title>:data:database</title>
<ellipse fill="#b59aff" stroke="black" cx="351.14" cy="-292" rx="79.09" ry="18"/>
<text text-anchor="middle" x="351.14" y="-288.3" font-family="Times,serif" font-size="14.00">:data:database</text>
</g>
<!-- :test&#45;data&#45;&gt;:data:database -->
<g id="edge13" class="edge">
<title>:test&#45;data&#45;&gt;:data:database</title>
<path fill="none" stroke="black" stroke-dasharray="1,5" d="M508.92,-547.79C508.92,-487.91 508.92,-301 508.92,-301 508.92,-301 429.89,-301 429.89,-301"/>
<polygon fill="black" stroke="black" points="429.89,-297.5 419.89,-301 429.89,-304.5 429.89,-297.5"/>
</g>
<!-- :data:coverart -->
<g id="node13" class="node">
<title>:data:coverart</title>
<ellipse fill="#b59aff" stroke="black" cx="405.14" cy="-429" rx="76.09" ry="18"/>
<text text-anchor="middle" x="405.14" y="-425.3" font-family="Times,serif" font-size="14.00">:data:coverart</text>
</g>
<!-- :test&#45;data&#45;&gt;:data:coverart -->
<g id="edge15" class="edge">
<title>:test&#45;data&#45;&gt;:data:coverart</title>
<path fill="none" stroke="black" stroke-dasharray="1,5" d="M462.99,-555.7C462.99,-555.7 462.99,-450.96 462.99,-450.96"/>
<polygon fill="black" stroke="black" points="466.49,-450.96 462.99,-440.96 459.49,-450.96 466.49,-450.96"/>
</g>
<!-- :data:spotify -->
<g id="node14" class="node">
<title>:data:spotify</title>
<ellipse fill="#b59aff" stroke="black" cx="538.14" cy="-155" rx="68.79" ry="18"/>
<text text-anchor="middle" x="538.14" y="-151.3" font-family="Times,serif" font-size="14.00">:data:spotify</text>
</g>
<!-- :test&#45;data&#45;&gt;:data:spotify -->
<g id="edge16" class="edge">
<title>:test&#45;data&#45;&gt;:data:spotify</title>
<path fill="none" stroke="black" stroke-dasharray="1,5" d="M536.65,-550.39C536.65,-550.39 536.65,-183.37 536.65,-183.37"/>
<polygon fill="black" stroke="black" points="540.15,-183.37 536.65,-173.37 533.15,-183.37 540.15,-183.37"/>
</g>
<!-- :ui:test:screenshot&#45;&gt;:ui:core -->
<g id="edge17" class="edge">
<title>:ui:test:screenshot&#45;&gt;:ui:core</title>
<path fill="none" stroke="black" stroke-dasharray="1,5" d="M920.97,-695.24C920.97,-695.24 920.97,-586.58 920.97,-586.58"/>
<polygon fill="black" stroke="black" points="924.47,-586.58 920.97,-576.58 917.47,-586.58 924.47,-586.58"/>
</g>
<!-- :test:image -->
<g id="node15" class="node">
<title>:test:image</title>
<ellipse fill="#9affb5" stroke="black" cx="1011.14" cy="-566" rx="63.09" ry="18"/>
<text text-anchor="middle" x="1011.14" y="-562.3" font-family="Times,serif" font-size="14.00">:test:image</text>
</g>
<!-- :ui:test:screenshot&#45;&gt;:test:image -->
<g id="edge18" class="edge">
<title>:ui:test:screenshot&#45;&gt;:test:image</title>
<path fill="none" stroke="black" stroke-dasharray="1,5" d="M1011.14,-684.81C1011.14,-684.81 1011.14,-594.27 1011.14,-594.27"/>
<polygon fill="black" stroke="black" points="1014.64,-594.27 1011.14,-584.27 1007.64,-594.27 1014.64,-594.27"/>
</g>
<!-- :shared:strings -->
<g id="node16" class="node">
<title>:shared:strings</title>
<ellipse fill="#b59aff" stroke="black" cx="896.14" cy="-429" rx="81.49" ry="18"/>
<text text-anchor="middle" x="896.14" y="-425.3" font-family="Times,serif" font-size="14.00">:shared:strings</text>
</g>
<!-- :ui:core&#45;&gt;:shared:strings -->
<g id="edge19" class="edge">
<title>:ui:core&#45;&gt;:shared:strings</title>
<path fill="none" stroke="black" d="M884.14,-547.81C884.14,-547.81 884.14,-456.83 884.14,-456.83"/>
<polygon fill="black" stroke="black" points="887.64,-456.83 884.14,-446.83 880.64,-456.83 887.64,-456.83"/>
</g>
<!-- :data:repository&#45;&gt;:test&#45;data -->
<g id="edge25" class="edge">
<title>:data:repository&#45;&gt;:test&#45;data</title>
<path fill="none" stroke="#ff9ab1" stroke-dasharray="1,5" d="M391.22,-688.81C391.22,-655.49 391.22,-575 391.22,-575 391.22,-575 451.18,-575 451.18,-575"/>
<polygon fill="#ff9ab1" stroke="#ff9ab1" points="451.18,-578.5 461.18,-575 451.18,-571.5 451.18,-578.5"/>
</g>
<!-- :data:repository&#45;&gt;:core:coroutines -->
<g id="edge26" class="edge">
<title>:data:repository&#45;&gt;:core:coroutines</title>
<path fill="none" stroke="#ff9ab1" stroke-dasharray="1,5" d="M255.14,-697.92C255.14,-642.68 255.14,-155 255.14,-155 255.14,-155 180.64,-155 180.64,-155"/>
<polygon fill="#ff9ab1" stroke="#ff9ab1" points="180.64,-151.5 170.64,-155 180.64,-158.5 180.64,-151.5"/>
</g>
<!-- :data:repository&#45;&gt;:shared:domain -->
<g id="edge20" class="edge">
<title>:data:repository&#45;&gt;:shared:domain</title>
<path fill="none" stroke="black" stroke-dasharray="1,5" d="M417.42,-697C514.09,-697 663.61,-697 663.61,-697 663.61,-697 663.61,-46.16 663.61,-46.16"/>
<polygon fill="black" stroke="black" points="667.11,-46.16 663.61,-36.16 660.11,-46.16 667.11,-46.16"/>
</g>
<!-- :data:repository&#45;&gt;:data:musicbrainz -->
<g id="edge22" class="edge">
<title>:data:repository&#45;&gt;:data:musicbrainz</title>
<path fill="none" stroke="black" stroke-dasharray="1,5" d="M266.98,-692.54C266.98,-692.54 266.98,-169.29 266.98,-169.29"/>
<polygon fill="black" stroke="black" points="270.48,-169.29 266.98,-159.29 263.48,-169.29 270.48,-169.29"/>
</g>
<!-- :data:repository&#45;&gt;:core:logging:api -->
<g id="edge24" class="edge">
<title>:data:repository&#45;&gt;:core:logging:api</title>
<path fill="none" stroke="black" stroke-dasharray="1,5" d="M258.28,-695.77C258.28,-695.77 258.28,-41.24 258.28,-41.24"/>
<polygon fill="black" stroke="black" points="261.78,-41.24 258.28,-31.24 254.78,-41.24 261.78,-41.24"/>
</g>
<!-- :data:repository&#45;&gt;:data:database -->
<g id="edge21" class="edge">
<title>:data:repository&#45;&gt;:data:database</title>
<path fill="none" stroke="black" stroke-dasharray="1,5" d="M300.47,-686.63C300.47,-686.63 300.47,-316.24 300.47,-316.24"/>
<polygon fill="black" stroke="black" points="303.97,-316.24 300.47,-306.24 296.97,-316.24 303.97,-316.24"/>
</g>
<!-- :data:repository&#45;&gt;:data:coverart -->
<g id="edge23" class="edge">
<title>:data:repository&#45;&gt;:data:coverart</title>
<path fill="none" stroke="black" stroke-dasharray="1,5" d="M360.16,-685.44C360.16,-685.44 360.16,-453.69 360.16,-453.69"/>
<polygon fill="black" stroke="black" points="363.66,-453.69 360.16,-443.69 356.66,-453.69 363.66,-453.69"/>
</g>
<!-- :data:musicbrainz&#45;&gt;:shared:domain -->
<g id="edge27" class="edge">
<title>:data:musicbrainz&#45;&gt;:shared:domain</title>
<path fill="none" stroke="black" stroke-dasharray="1,5" d="M369.13,-137.1C369.13,-98.11 369.13,-9 369.13,-9 369.13,-9 572.59,-9 572.59,-9"/>
<polygon fill="black" stroke="black" points="572.59,-12.5 582.59,-9 572.59,-5.5 572.59,-12.5"/>
</g>
<!-- :data:musicbrainz&#45;&gt;:core:logging:api -->
<g id="edge28" class="edge">
<title>:data:musicbrainz&#45;&gt;:core:logging:api</title>
<path fill="none" stroke="black" stroke-dasharray="1,5" d="M275.54,-146.43C275.54,-146.43 275.54,-36.92 275.54,-36.92"/>
<polygon fill="black" stroke="black" points="279.04,-36.92 275.54,-26.92 272.04,-36.92 279.04,-36.92"/>
</g>
<!-- :ui:image&#45;&gt;:shared:domain -->
<g id="edge29" class="edge">
<title>:ui:image&#45;&gt;:shared:domain</title>
<path fill="none" stroke="black" stroke-dasharray="1,5" d="M781.55,-686.07C781.55,-580.58 781.55,-18 781.55,-18 781.55,-18 746.99,-18 746.99,-18"/>
<polygon fill="black" stroke="black" points="746.99,-14.5 736.99,-18 746.99,-21.5 746.99,-14.5"/>
</g>
<!-- :ui:image&#45;&gt;:ui:core -->
<g id="edge30" class="edge">
<title>:ui:image&#45;&gt;:ui:core</title>
<path fill="none" stroke="black" stroke-dasharray="1,5" d="M847.37,-693.15C847.37,-693.15 847.37,-586.89 847.37,-586.89"/>
<polygon fill="black" stroke="black" points="850.87,-586.89 847.37,-576.89 843.87,-586.89 850.87,-586.89"/>
</g>
<!-- :data:database&#45;&gt;:core:coroutines -->
<g id="edge32" class="edge">
<title>:data:database&#45;&gt;:core:coroutines</title>
<path fill="none" stroke="black" stroke-dasharray="1,5" d="M271.73,-292C210.51,-292 136.23,-292 136.23,-292 136.23,-292 136.23,-179.4 136.23,-179.4"/>
<polygon fill="black" stroke="black" points="139.73,-179.4 136.23,-169.4 132.73,-179.4 139.73,-179.4"/>
</g>
<!-- :data:database&#45;&gt;:shared:domain -->
<g id="edge31" class="edge">
<title>:data:database&#45;&gt;:shared:domain</title>
<path fill="none" stroke="black" stroke-dasharray="1,5" d="M420.06,-283C501.79,-283 627.07,-283 627.07,-283 627.07,-283 627.07,-45.39 627.07,-45.39"/>
<polygon fill="black" stroke="black" points="630.57,-45.39 627.07,-35.39 623.57,-45.39 630.57,-45.39"/>
</g>
<!-- :data:database&#45;&gt;:data:musicbrainz -->
<g id="edge33" class="edge">
<title>:data:database&#45;&gt;:data:musicbrainz</title>
<path fill="none" stroke="black" stroke-dasharray="1,5" d="M351.14,-273.81C351.14,-273.81 351.14,-183.27 351.14,-183.27"/>
<polygon fill="black" stroke="black" points="354.64,-183.27 351.14,-173.27 347.64,-183.27 354.64,-183.27"/>
</g>
<!-- :data:coverart&#45;&gt;:test&#45;data -->
<g id="edge37" class="edge">
<title>:data:coverart&#45;&gt;:test&#45;data</title>
<path fill="none" stroke="#ff9ab1" stroke-dasharray="1,5" d="M472.09,-437.57C472.09,-437.57 472.09,-542.36 472.09,-542.36"/>
<polygon fill="#ff9ab1" stroke="#ff9ab1" points="468.59,-542.36 472.09,-552.36 475.59,-542.36 468.59,-542.36"/>
</g>
<!-- :data:coverart&#45;&gt;:core:coroutines -->
<g id="edge36" class="edge">
<title>:data:coverart&#45;&gt;:core:coroutines</title>
<path fill="none" stroke="black" stroke-dasharray="1,5" d="M333.34,-435C243.75,-435 102.17,-435 102.17,-435 102.17,-435 102.17,-182.94 102.17,-182.94"/>
<polygon fill="black" stroke="black" points="105.67,-182.94 102.17,-172.94 98.67,-182.94 105.67,-182.94"/>
</g>
<!-- :data:coverart&#45;&gt;:shared:domain -->
<g id="edge34" class="edge">
<title>:data:coverart&#45;&gt;:shared:domain</title>
<path fill="none" stroke="black" stroke-dasharray="1,5" d="M460.49,-416.53C460.49,-348.67 460.49,-27 460.49,-27 460.49,-27 572.58,-27 572.58,-27"/>
<polygon fill="black" stroke="black" points="572.58,-30.5 582.58,-27 572.58,-23.5 572.58,-30.5"/>
</g>
<!-- :data:coverart&#45;&gt;:data:musicbrainz -->
<g id="edge38" class="edge">
<title>:data:coverart&#45;&gt;:data:musicbrainz</title>
<path fill="none" stroke="#ff9ab1" stroke-dasharray="1,5" d="M437.53,-412.68C437.53,-412.68 437.53,-174.72 437.53,-174.72"/>
<polygon fill="#ff9ab1" stroke="#ff9ab1" points="441.04,-174.72 437.53,-164.72 434.04,-174.72 441.04,-174.72"/>
</g>
<!-- :data:coverart&#45;&gt;:core:logging:api -->
<g id="edge35" class="edge">
<title>:data:coverart&#45;&gt;:core:logging:api</title>
<path fill="none" stroke="black" stroke-dasharray="1,5" d="M333.28,-423C297.35,-423 261.41,-423 261.41,-423 261.41,-423 261.41,-41.02 261.41,-41.02"/>
<polygon fill="black" stroke="black" points="264.91,-41.02 261.41,-31.02 257.91,-41.02 264.91,-41.02"/>
</g>
<!-- :data:coverart&#45;&gt;:data:database -->
<g id="edge39" class="edge">
<title>:data:coverart&#45;&gt;:data:database</title>
<path fill="none" stroke="#ff9ab1" stroke-dasharray="1,5" d="M379.77,-411.93C379.77,-411.93 379.77,-318.86 379.77,-318.86"/>
<polygon fill="#ff9ab1" stroke="#ff9ab1" points="383.27,-318.86 379.77,-308.86 376.27,-318.86 383.27,-318.86"/>
</g>
<!-- :data:spotify&#45;&gt;:shared:domain -->
<g id="edge40" class="edge">
<title>:data:spotify&#45;&gt;:shared:domain</title>
<path fill="none" stroke="black" stroke-dasharray="1,5" d="M589.32,-142.84C589.32,-142.84 589.32,-39.17 589.32,-39.17"/>
<polygon fill="black" stroke="black" points="592.82,-39.17 589.32,-29.17 585.82,-39.17 592.82,-39.17"/>
</g>
<!-- :data:spotify&#45;&gt;:core:logging:api -->
<g id="edge41" class="edge">
<title>:data:spotify&#45;&gt;:core:logging:api</title>
<path fill="none" stroke="black" stroke-dasharray="1,5" d="M520.42,-137.37C520.42,-100.37 520.42,-18 520.42,-18 520.42,-18 296.63,-18 296.63,-18"/>
<polygon fill="black" stroke="black" points="296.63,-14.5 286.63,-18 296.63,-21.5 296.63,-14.5"/>
</g>
</g>
</svg>
