<?xml version="1.0" encoding="UTF-8" standalone="no"?>
<!DOCTYPE svg PUBLIC "-//W3C//DTD SVG 1.1//EN"
 "http://www.w3.org/Graphics/SVG/1.1/DTD/svg11.dtd">
<!-- Generated by graphviz version 11.0.0 (20240428.1522)
 -->
<!-- Pages: 1 -->
<svg width="1301pt" height="668pt"
 viewBox="0.00 0.00 1300.63 667.50" xmlns="http://www.w3.org/2000/svg" xmlns:xlink="http://www.w3.org/1999/xlink">
<g id="graph0" class="graph" transform="scale(1 1) rotate(0) translate(4 663.5)">
<polygon fill="white" stroke="none" points="-4,4 -4,-663.5 1296.63,-663.5 1296.63,4 -4,4"/>
<text text-anchor="middle" x="646.31" y="-627" font-family="Times,serif" font-size="30.00">licenses</text>
<text text-anchor="middle" x="646.31" y="-593.25" font-family="Times,serif" font-size="30.00"> </text>
<!-- :shared:feature:licenses -->
<g id="node1" class="node">
<title>:shared:feature:licenses</title>
<polygon fill="#b59aff" stroke="black" points="360,-584 0,-584 0,-548 360,-548 360,-584"/>
<text text-anchor="middle" x="180" y="-560.95" font-family="Times,serif" font-size="14.00">:shared:feature:licenses</text>
</g>
<!-- :ui:common -->
<g id="node2" class="node">
<title>:ui:common</title>
<ellipse fill="#b59aff" stroke="black" cx="673" cy="-429" rx="56.47" ry="18"/>
<text text-anchor="middle" x="673" y="-423.95" font-family="Times,serif" font-size="14.00">:ui:common</text>
</g>
<!-- :shared:feature:licenses&#45;&gt;:ui:common -->
<g id="edge1" class="edge">
<title>:shared:feature:licenses&#45;&gt;:ui:common</title>
<path fill="none" stroke="black" stroke-dasharray="1,5" d="M360.43,-566C501.19,-566 673,-566 673,-566 673,-566 673,-458.99 673,-458.99"/>
<polygon fill="black" stroke="black" points="676.5,-458.99 673,-448.99 669.5,-458.99 676.5,-458.99"/>
</g>
<!-- :ui:core -->
<g id="node3" class="node">
<title>:ui:core</title>
<ellipse fill="#b59aff" stroke="black" cx="323" cy="-155" rx="39.07" ry="18"/>
<text text-anchor="middle" x="323" y="-149.95" font-family="Times,serif" font-size="14.00">:ui:core</text>
</g>
<!-- :shared:feature:licenses&#45;&gt;:ui:core -->
<g id="edge2" class="edge">
<title>:shared:feature:licenses&#45;&gt;:ui:core</title>
<path fill="none" stroke="black" stroke-dasharray="1,5" d="M229.15,-547.55C229.15,-468.32 229.15,-161 229.15,-161 229.15,-161 274.12,-161 274.12,-161"/>
<polygon fill="black" stroke="black" points="274.12,-164.5 284.12,-161 274.12,-157.5 274.12,-164.5"/>
</g>
<!-- :strings -->
<g id="node4" class="node">
<title>:strings</title>
<ellipse fill="#b59aff" stroke="black" cx="218" cy="-18" rx="38.04" ry="18"/>
<text text-anchor="middle" x="218" y="-12.95" font-family="Times,serif" font-size="14.00">:strings</text>
</g>
<!-- :shared:feature:licenses&#45;&gt;:strings -->
<g id="edge3" class="edge">
<title>:shared:feature:licenses&#45;&gt;:strings</title>
<path fill="none" stroke="black" stroke-dasharray="1,5" d="M196.35,-547.77C196.35,-547.77 196.35,-44.61 196.35,-44.61"/>
<polygon fill="black" stroke="black" points="199.85,-44.61 196.35,-34.61 192.85,-44.61 199.85,-44.61"/>
</g>
<!-- :ui:common&#45;&gt;:ui:core -->
<g id="edge13" class="edge">
<title>:ui:common&#45;&gt;:ui:core</title>
<path fill="none" stroke="red" d="M702.88,-413.55C702.88,-354.85 702.88,-149 702.88,-149 702.88,-149 371.63,-149 371.63,-149"/>
<polygon fill="red" stroke="red" points="371.63,-145.5 361.63,-149 371.63,-152.5 371.63,-145.5"/>
</g>
<!-- :ui:common&#45;&gt;:strings -->
<g id="edge12" class="edge">
<title>:ui:common&#45;&gt;:strings</title>
<path fill="none" stroke="black" stroke-dasharray="1,5" d="M623.31,-438C504.3,-438 212.75,-438 212.75,-438 212.75,-438 212.75,-47.83 212.75,-47.83"/>
<polygon fill="black" stroke="black" points="216.25,-47.83 212.75,-37.83 209.25,-47.83 216.25,-47.83"/>
</g>
<!-- :ui:test:image -->
<g id="node5" class="node">
<title>:ui:test:image</title>
<ellipse fill="#9affb5" stroke="black" cx="628" cy="-292" rx="61.59" ry="18"/>
<text text-anchor="middle" x="628" y="-286.95" font-family="Times,serif" font-size="14.00">:ui:test:image</text>
</g>
<!-- :ui:common&#45;&gt;:ui:test:image -->
<g id="edge4" class="edge">
<title>:ui:common&#45;&gt;:ui:test:image</title>
<path fill="none" stroke="#ff9ab1" d="M653.06,-411.93C653.06,-411.93 653.06,-320.37 653.06,-320.37"/>
<polygon fill="#ff9ab1" stroke="#ff9ab1" points="656.56,-320.37 653.06,-310.37 649.56,-320.37 656.56,-320.37"/>
</g>
<!-- :ui:test:screenshot -->
<g id="node6" class="node">
<title>:ui:test:screenshot</title>
<ellipse fill="#9affb5" stroke="black" cx="323" cy="-292" rx="77.45" ry="18"/>
<text text-anchor="middle" x="323" y="-286.95" font-family="Times,serif" font-size="14.00">:ui:test:screenshot</text>
</g>
<!-- :ui:common&#45;&gt;:ui:test:screenshot -->
<g id="edge5" class="edge">
<title>:ui:common&#45;&gt;:ui:test:screenshot</title>
<path fill="none" stroke="#ff9ab1" d="M616.2,-429C531.06,-429 380.23,-429 380.23,-429 380.23,-429 380.23,-315.67 380.23,-315.67"/>
<polygon fill="#ff9ab1" stroke="#ff9ab1" points="383.73,-315.67 380.23,-305.67 376.73,-315.67 383.73,-315.67"/>
</g>
<!-- :core:models -->
<g id="node7" class="node">
<title>:core:models</title>
<ellipse fill="#b59aff" stroke="black" cx="952" cy="-18" rx="59.03" ry="18"/>
<text text-anchor="middle" x="952" y="-12.95" font-family="Times,serif" font-size="14.00">:core:models</text>
</g>
<!-- :ui:common&#45;&gt;:core:models -->
<g id="edge6" class="edge">
<title>:ui:common&#45;&gt;:core:models</title>
<path fill="none" stroke="black" d="M716.31,-417C783.74,-417 906.17,-417 906.17,-417 906.17,-417 906.17,-41.02 906.17,-41.02"/>
<polygon fill="black" stroke="black" points="909.67,-41.02 906.17,-31.02 902.67,-41.02 909.67,-41.02"/>
</g>
<!-- :data:coverart -->
<g id="node8" class="node">
<title>:data:coverart</title>
<ellipse fill="#b59aff" stroke="black" cx="1184" cy="-292" rx="61.59" ry="18"/>
<text text-anchor="middle" x="1184" y="-286.95" font-family="Times,serif" font-size="14.00">:data:coverart</text>
</g>
<!-- :ui:common&#45;&gt;:data:coverart -->
<g id="edge7" class="edge">
<title>:ui:common&#45;&gt;:data:coverart</title>
<path fill="none" stroke="orange" d="M726.72,-435C857.92,-435 1184,-435 1184,-435 1184,-435 1184,-321.92 1184,-321.92"/>
<polygon fill="orange" stroke="orange" points="1187.5,-321.92 1184,-311.92 1180.5,-321.92 1187.5,-321.92"/>
</g>
<!-- :data:musicbrainz -->
<g id="node9" class="node">
<title>:data:musicbrainz</title>
<ellipse fill="#b59aff" stroke="black" cx="989" cy="-292" rx="76.94" ry="18"/>
<text text-anchor="middle" x="989" y="-286.95" font-family="Times,serif" font-size="14.00">:data:musicbrainz</text>
</g>
<!-- :ui:common&#45;&gt;:data:musicbrainz -->
<g id="edge8" class="edge">
<title>:ui:common&#45;&gt;:data:musicbrainz</title>
<path fill="none" stroke="orange" d="M726.61,-423C816.76,-423 989,-423 989,-423 989,-423 989,-322 989,-322"/>
<polygon fill="orange" stroke="orange" points="992.5,-322 989,-312 985.5,-322 992.5,-322"/>
</g>
<!-- :core:preferences -->
<g id="node10" class="node">
<title>:core:preferences</title>
<ellipse fill="#b59aff" stroke="black" cx="820" cy="-292" rx="74.38" ry="18"/>
<text text-anchor="middle" x="820" y="-286.95" font-family="Times,serif" font-size="14.00">:core:preferences</text>
</g>
<!-- :ui:common&#45;&gt;:core:preferences -->
<g id="edge9" class="edge">
<title>:ui:common&#45;&gt;:core:preferences</title>
<path fill="none" stroke="black" stroke-dasharray="1,5" d="M716.18,-417.32C716.18,-384.19 716.18,-292 716.18,-292 716.18,-292 733.86,-292 733.86,-292"/>
<polygon fill="black" stroke="black" points="733.86,-295.5 743.86,-292 733.86,-288.5 733.86,-295.5"/>
</g>
<!-- :core:logging:api -->
<g id="node11" class="node">
<title>:core:logging:api</title>
<ellipse fill="#b59aff" stroke="black" cx="1079" cy="-155" rx="73.87" ry="18"/>
<text text-anchor="middle" x="1079" y="-149.95" font-family="Times,serif" font-size="14.00">:core:logging:api</text>
</g>
<!-- :ui:common&#45;&gt;:core:logging:api -->
<g id="edge10" class="edge">
<title>:ui:common&#45;&gt;:core:logging:api</title>
<path fill="none" stroke="black" stroke-dasharray="1,5" d="M729.8,-429C844.77,-429 1094.18,-429 1094.18,-429 1094.18,-429 1094.18,-184.49 1094.18,-184.49"/>
<polygon fill="black" stroke="black" points="1097.68,-184.49 1094.18,-174.49 1090.68,-184.49 1097.68,-184.49"/>
</g>
<!-- :domain -->
<g id="node12" class="node">
<title>:domain</title>
<ellipse fill="#b59aff" stroke="black" cx="1251" cy="-155" rx="41.63" ry="18"/>
<text text-anchor="middle" x="1251" y="-149.95" font-family="Times,serif" font-size="14.00">:domain</text>
</g>
<!-- :ui:common&#45;&gt;:domain -->
<g id="edge11" class="edge">
<title>:ui:common&#45;&gt;:domain</title>
<path fill="none" stroke="black" stroke-dasharray="1,5" d="M716.35,-441C853.53,-441 1269.11,-441 1269.11,-441 1269.11,-441 1269.11,-183.13 1269.11,-183.13"/>
<polygon fill="black" stroke="black" points="1272.61,-183.13 1269.11,-173.13 1265.61,-183.13 1272.61,-183.13"/>
</g>
<!-- :ui:image -->
<g id="node13" class="node">
<title>:ui:image</title>
<ellipse fill="#b59aff" stroke="black" cx="502" cy="-292" rx="46.23" ry="18"/>
<text text-anchor="middle" x="502" y="-286.95" font-family="Times,serif" font-size="14.00">:ui:image</text>
</g>
<!-- :ui:common&#45;&gt;:ui:image -->
<g id="edge14" class="edge">
<title>:ui:common&#45;&gt;:ui:image</title>
<path fill="none" stroke="red" d="M623.54,-420C573.04,-420 502,-420 502,-420 502,-420 502,-321.85 502,-321.85"/>
<polygon fill="red" stroke="red" points="505.5,-321.85 502,-311.85 498.5,-321.85 505.5,-321.85"/>
</g>
<!-- :ui:core&#45;&gt;:strings -->
<g id="edge15" class="edge">
<title>:ui:core&#45;&gt;:strings</title>
<path fill="none" stroke="black" d="M285.63,-149C268.01,-149 250.8,-149 250.8,-149 250.8,-149 250.8,-38.93 250.8,-38.93"/>
<polygon fill="black" stroke="black" points="254.3,-38.93 250.8,-28.93 247.3,-38.93 254.3,-38.93"/>
</g>
<!-- :ui:test:screenshot&#45;&gt;:ui:core -->
<g id="edge16" class="edge">
<title>:ui:test:screenshot&#45;&gt;:ui:core</title>
<path fill="none" stroke="red" d="M323,-273.52C323,-273.52 323,-184.7 323,-184.7"/>
<polygon fill="red" stroke="red" points="326.5,-184.7 323,-174.7 319.5,-184.7 326.5,-184.7"/>
</g>
<!-- :data:coverart&#45;&gt;:core:models -->
<g id="edge18" class="edge">
<title>:data:coverart&#45;&gt;:core:models</title>
<path fill="none" stroke="black" stroke-dasharray="1,5" d="M1181.12,-273.58C1181.12,-213.03 1181.12,-24 1181.12,-24 1181.12,-24 1019.56,-24 1019.56,-24"/>
<polygon fill="black" stroke="black" points="1019.56,-20.5 1009.56,-24 1019.56,-27.5 1019.56,-20.5"/>
</g>
<!-- :data:coverart&#45;&gt;:core:logging:api -->
<g id="edge17" class="edge">
<title>:data:coverart&#45;&gt;:core:logging:api</title>
<path fill="none" stroke="black" stroke-dasharray="1,5" d="M1137.64,-279.84C1137.64,-279.84 1137.64,-177.68 1137.64,-177.68"/>
<polygon fill="black" stroke="black" points="1141.14,-177.68 1137.64,-167.68 1134.14,-177.68 1141.14,-177.68"/>
</g>
<!-- :data:coverart&#45;&gt;:domain -->
<g id="edge19" class="edge">
<title>:data:coverart&#45;&gt;:domain</title>
<path fill="none" stroke="black" stroke-dasharray="1,5" d="M1227.48,-278.86C1227.48,-278.86 1227.48,-181.47 1227.48,-181.47"/>
<polygon fill="black" stroke="black" points="1230.98,-181.47 1227.48,-171.47 1223.98,-181.47 1230.98,-181.47"/>
</g>
<!-- :data:musicbrainz&#45;&gt;:core:models -->
<g id="edge21" class="edge">
<title>:data:musicbrainz&#45;&gt;:core:models</title>
<path fill="none" stroke="black" stroke-dasharray="1,5" d="M958.59,-275.27C958.59,-275.27 958.59,-47.79 958.59,-47.79"/>
<polygon fill="black" stroke="black" points="962.09,-47.79 958.59,-37.79 955.09,-47.79 962.09,-47.79"/>
</g>
<!-- :data:musicbrainz&#45;&gt;:core:logging:api -->
<g id="edge20" class="edge">
<title>:data:musicbrainz&#45;&gt;:core:logging:api</title>
<path fill="none" stroke="black" stroke-dasharray="1,5" d="M1035.54,-277.34C1035.54,-277.34 1035.54,-181.48 1035.54,-181.48"/>
<polygon fill="black" stroke="black" points="1039.04,-181.48 1035.54,-171.48 1032.04,-181.48 1039.04,-181.48"/>
</g>
<!-- :core:preferences&#45;&gt;:core:models -->
<g id="edge23" class="edge">
<title>:core:preferences&#45;&gt;:core:models</title>
<path fill="none" stroke="black" stroke-dasharray="1,5" d="M894.76,-292C898.22,-292 900.27,-292 900.27,-292 900.27,-292 900.27,-38.63 900.27,-38.63"/>
<polygon fill="black" stroke="black" points="903.77,-38.63 900.27,-28.63 896.77,-38.63 903.77,-38.63"/>
</g>
<!-- :core:coroutines -->
<g id="node14" class="node">
<title>:core:coroutines</title>
<ellipse fill="#b59aff" stroke="black" cx="820" cy="-155" rx="70.29" ry="18"/>
<text text-anchor="middle" x="820" y="-149.95" font-family="Times,serif" font-size="14.00">:core:coroutines</text>
</g>
<!-- :core:preferences&#45;&gt;:core:coroutines -->
<g id="edge22" class="edge">
<title>:core:preferences&#45;&gt;:core:coroutines</title>
<path fill="none" stroke="black" stroke-dasharray="1,5" d="M820,-273.52C820,-273.52 820,-184.7 820,-184.7"/>
<polygon fill="black" stroke="black" points="823.5,-184.7 820,-174.7 816.5,-184.7 823.5,-184.7"/>
</g>
<!-- :domain&#45;&gt;:core:models -->
<g id="edge24" class="edge">
<title>:domain&#45;&gt;:core:models</title>
<path fill="none" stroke="black" stroke-dasharray="1,5" d="M1251,-136.6C1251,-97.98 1251,-12 1251,-12 1251,-12 1019.75,-12 1019.75,-12"/>
<polygon fill="black" stroke="black" points="1019.75,-8.5 1009.75,-12 1019.75,-15.5 1019.75,-8.5"/>
</g>
<!-- :ui:image&#45;&gt;:ui:core -->
<g id="edge26" class="edge">
<title>:ui:image&#45;&gt;:ui:core</title>
<path fill="none" stroke="red" d="M486.59,-274.6C486.59,-238.97 486.59,-161 486.59,-161 486.59,-161 371.63,-161 371.63,-161"/>
<polygon fill="red" stroke="red" points="371.63,-157.5 361.63,-161 371.63,-164.5 371.63,-157.5"/>
</g>
<!-- :ui:image&#45;&gt;:core:models -->
<g id="edge25" class="edge">
<title>:ui:image&#45;&gt;:core:models</title>
<path fill="none" stroke="black" stroke-dasharray="1,5" d="M517.41,-274.86C517.41,-214.87 517.41,-18 517.41,-18 517.41,-18 880.97,-18 880.97,-18"/>
<polygon fill="black" stroke="black" points="880.97,-21.5 890.97,-18 880.97,-14.5 880.97,-21.5"/>
</g>
</g>
</svg>
