<?xml version="1.0" encoding="UTF-8" standalone="no"?>
<!DOCTYPE svg PUBLIC "-//W3C//DTD SVG 1.1//EN"
 "http://www.w3.org/Graphics/SVG/1.1/DTD/svg11.dtd">
<!-- Generated by graphviz version 2.43.0 (0)
 -->
<!-- Title: %3 Pages: 1 -->
<svg width="1128pt" height="940pt"
 viewBox="0.00 0.00 1127.84 940.00" xmlns="http://www.w3.org/2000/svg" xmlns:xlink="http://www.w3.org/1999/xlink">
<g id="graph0" class="graph" transform="scale(1 1) rotate(0) translate(4 936)">
<title>%3</title>
<polygon fill="white" stroke="transparent" points="-4,4 -4,-936 1123.84,-936 1123.84,4 -4,4"/>
<text text-anchor="middle" x="559.92" y="-904" font-family="Times,serif" font-size="30.00">Dependencies</text>
<text text-anchor="middle" x="559.92" y="-871" font-family="Times,serif" font-size="30.00"> </text>
<!-- :shared:feature:licenses -->
<g id="node1" class="node">
<title>:shared:feature:licenses</title>
<polygon fill="#b59aff" stroke="black" points="805.89,-858 617.89,-858 617.89,-822 805.89,-822 805.89,-858"/>
<text text-anchor="middle" x="711.89" y="-836.3" font-family="Times,serif" font-size="14.00">:shared:feature:licenses</text>
</g>
<!-- :ui:common -->
<g id="node2" class="node">
<title>:ui:common</title>
<ellipse fill="#b59aff" stroke="black" cx="711.89" cy="-703" rx="64.19" ry="18"/>
<text text-anchor="middle" x="711.89" y="-699.3" font-family="Times,serif" font-size="14.00">:ui:common</text>
</g>
<!-- :shared:feature:licenses&#45;&gt;:ui:common -->
<g id="edge1" class="edge">
<title>:shared:feature:licenses&#45;&gt;:ui:common</title>
<path fill="none" stroke="black" stroke-dasharray="1,5" d="M711.89,-821.81C711.89,-821.81 711.89,-731.27 711.89,-731.27"/>
<polygon fill="black" stroke="black" points="715.39,-731.27 711.89,-721.27 708.39,-731.27 715.39,-731.27"/>
</g>
<!-- :test&#45;data -->
<g id="node3" class="node">
<title>:test&#45;data</title>
<ellipse fill="#b59aff" stroke="black" cx="455.89" cy="-566" rx="55.49" ry="18"/>
<text text-anchor="middle" x="455.89" y="-562.3" font-family="Times,serif" font-size="14.00">:test&#45;data</text>
</g>
<!-- :ui:common&#45;&gt;:test&#45;data -->
<g id="edge2" class="edge">
<title>:ui:common&#45;&gt;:test&#45;data</title>
<path fill="none" stroke="#ff9ab1" stroke-dasharray="1,5" d="M665.38,-690.44C665.38,-657.65 665.38,-572 665.38,-572 665.38,-572 518.22,-572 518.22,-572"/>
<polygon fill="#ff9ab1" stroke="#ff9ab1" points="518.22,-568.5 508.22,-572 518.22,-575.5 518.22,-568.5"/>
</g>
<!-- :ui:test:screenshot -->
<g id="node4" class="node">
<title>:ui:test:screenshot</title>
<ellipse fill="#9affb5" stroke="black" cx="858.89" cy="-566" rx="96.68" ry="18"/>
<text text-anchor="middle" x="858.89" y="-562.3" font-family="Times,serif" font-size="14.00">:ui:test:screenshot</text>
</g>
<!-- :ui:common&#45;&gt;:ui:test:screenshot -->
<g id="edge3" class="edge">
<title>:ui:common&#45;&gt;:ui:test:screenshot</title>
<path fill="none" stroke="#ff9ab1" stroke-dasharray="1,5" d="M769.15,-694.43C769.15,-694.43 769.15,-582.89 769.15,-582.89"/>
<polygon fill="#ff9ab1" stroke="#ff9ab1" points="772.65,-582.89 769.15,-572.89 765.65,-582.89 772.65,-582.89"/>
</g>
<!-- :core:coroutines -->
<g id="node5" class="node">
<title>:core:coroutines</title>
<ellipse fill="#b59aff" stroke="black" cx="615.89" cy="-155" rx="85.29" ry="18"/>
<text text-anchor="middle" x="615.89" y="-151.3" font-family="Times,serif" font-size="14.00">:core:coroutines</text>
</g>
<!-- :ui:common&#45;&gt;:core:coroutines -->
<g id="edge4" class="edge">
<title>:ui:common&#45;&gt;:core:coroutines</title>
<path fill="none" stroke="#ff9ab1" stroke-dasharray="1,5" d="M683.21,-686.6C683.21,-686.6 683.21,-176.41 683.21,-176.41"/>
<polygon fill="#ff9ab1" stroke="#ff9ab1" points="686.71,-176.41 683.21,-166.41 679.71,-176.41 686.71,-176.41"/>
</g>
<!-- :shared:domain -->
<g id="node6" class="node">
<title>:shared:domain</title>
<ellipse fill="#b59aff" stroke="black" cx="502.89" cy="-18" rx="82.59" ry="18"/>
<text text-anchor="middle" x="502.89" y="-14.3" font-family="Times,serif" font-size="14.00">:shared:domain</text>
</g>
<!-- :ui:common&#45;&gt;:shared:domain -->
<g id="edge5" class="edge">
<title>:ui:common&#45;&gt;:shared:domain</title>
<path fill="none" stroke="black" d="M731.54,-685.53C731.54,-579.25 731.54,-24 731.54,-24 731.54,-24 590.94,-24 590.94,-24"/>
<polygon fill="black" stroke="black" points="590.94,-20.5 580.94,-24 590.94,-27.5 590.94,-20.5"/>
</g>
<!-- :ui:core -->
<g id="node7" class="node">
<title>:ui:core</title>
<ellipse fill="#b59aff" stroke="black" cx="984.89" cy="-429" rx="45.49" ry="18"/>
<text text-anchor="middle" x="984.89" y="-425.3" font-family="Times,serif" font-size="14.00">:ui:core</text>
</g>
<!-- :ui:common&#45;&gt;:ui:core -->
<g id="edge6" class="edge">
<title>:ui:common&#45;&gt;:ui:core</title>
<path fill="none" stroke="black" d="M772.59,-697C852.74,-697 983.84,-697 983.84,-697 983.84,-697 983.84,-457 983.84,-457"/>
<polygon fill="black" stroke="black" points="987.34,-457 983.84,-447 980.34,-457 987.34,-457"/>
</g>
<!-- :core:logging:api -->
<g id="node8" class="node">
<title>:core:logging:api</title>
<ellipse fill="#b59aff" stroke="black" cx="158.89" cy="-18" rx="88.28" ry="18"/>
<text text-anchor="middle" x="158.89" y="-14.3" font-family="Times,serif" font-size="14.00">:core:logging:api</text>
</g>
<!-- :ui:common&#45;&gt;:core:logging:api -->
<g id="edge7" class="edge">
<title>:ui:common&#45;&gt;:core:logging:api</title>
<path fill="none" stroke="black" stroke-dasharray="1,5" d="M651.12,-709C505.11,-709 146.54,-709 146.54,-709 146.54,-709 146.54,-46.13 146.54,-46.13"/>
<polygon fill="black" stroke="black" points="150.04,-46.13 146.54,-36.13 143.04,-46.13 150.04,-46.13"/>
</g>
<!-- :ui:image -->
<g id="node9" class="node">
<title>:ui:image</title>
<ellipse fill="#b59aff" stroke="black" cx="1065.89" cy="-566" rx="53.89" ry="18"/>
<text text-anchor="middle" x="1065.89" y="-562.3" font-family="Times,serif" font-size="14.00">:ui:image</text>
</g>
<!-- :ui:common&#45;&gt;:ui:image -->
<g id="edge8" class="edge">
<title>:ui:common&#45;&gt;:ui:image</title>
<path fill="none" stroke="black" stroke-dasharray="1,5" d="M772.75,-709C873.96,-709 1065.89,-709 1065.89,-709 1065.89,-709 1065.89,-594.11 1065.89,-594.11"/>
<polygon fill="black" stroke="black" points="1069.39,-594.11 1065.89,-584.11 1062.39,-594.11 1069.39,-594.11"/>
</g>
<!-- :data:musicbrainz -->
<g id="node10" class="node">
<title>:data:musicbrainz</title>
<ellipse fill="#b59aff" stroke="black" cx="248.89" cy="-155" rx="93.68" ry="18"/>
<text text-anchor="middle" x="248.89" y="-151.3" font-family="Times,serif" font-size="14.00">:data:musicbrainz</text>
</g>
<!-- :ui:common&#45;&gt;:data:musicbrainz -->
<g id="edge9" class="edge">
<title>:ui:common&#45;&gt;:data:musicbrainz</title>
<path fill="none" stroke="black" stroke-dasharray="1,5" d="M651.2,-697C518.19,-697 212.82,-697 212.82,-697 212.82,-697 212.82,-181.82 212.82,-181.82"/>
<polygon fill="black" stroke="black" points="216.32,-181.82 212.82,-171.82 209.32,-181.82 216.32,-181.82"/>
</g>
<!-- :test&#45;data&#45;&gt;:core:coroutines -->
<g id="edge11" class="edge">
<title>:test&#45;data&#45;&gt;:core:coroutines</title>
<path fill="none" stroke="black" stroke-dasharray="1,5" d="M508.01,-560C550.16,-560 602.54,-560 602.54,-560 602.54,-560 602.54,-182.92 602.54,-182.92"/>
<polygon fill="black" stroke="black" points="606.04,-182.92 602.54,-172.92 599.04,-182.92 606.04,-182.92"/>
</g>
<!-- :test&#45;data&#45;&gt;:shared:domain -->
<g id="edge10" class="edge">
<title>:test&#45;data&#45;&gt;:shared:domain</title>
<path fill="none" stroke="black" stroke-dasharray="1,5" d="M490.34,-551.84C490.34,-505.3 490.34,-360 490.34,-360 490.34,-360 425.85,-360 425.85,-360 425.85,-360 425.85,-34.53 425.85,-34.53"/>
<polygon fill="black" stroke="black" points="429.35,-34.53 425.85,-24.53 422.35,-34.53 429.35,-34.53"/>
</g>
<!-- :test&#45;data&#45;&gt;:data:musicbrainz -->
<g id="edge13" class="edge">
<title>:test&#45;data&#45;&gt;:data:musicbrainz</title>
<path fill="none" stroke="black" stroke-dasharray="1,5" d="M403.71,-560C348.83,-560 270.33,-560 270.33,-560 270.33,-560 270.33,-182.66 270.33,-182.66"/>
<polygon fill="black" stroke="black" points="273.83,-182.66 270.33,-172.66 266.83,-182.66 273.83,-182.66"/>
</g>
<!-- :data:database -->
<g id="node11" class="node">
<title>:data:database</title>
<ellipse fill="#b59aff" stroke="black" cx="507.89" cy="-292" rx="79.09" ry="18"/>
<text text-anchor="middle" x="507.89" y="-288.3" font-family="Times,serif" font-size="14.00">:data:database</text>
</g>
<!-- :test&#45;data&#45;&gt;:data:database -->
<g id="edge12" class="edge">
<title>:test&#45;data&#45;&gt;:data:database</title>
<path fill="none" stroke="black" stroke-dasharray="1,5" d="M500.74,-555.26C500.74,-555.26 500.74,-320.04 500.74,-320.04"/>
<polygon fill="black" stroke="black" points="504.24,-320.04 500.74,-310.04 497.24,-320.04 504.24,-320.04"/>
</g>
<!-- :data:coverart -->
<g id="node12" class="node">
<title>:data:coverart</title>
<ellipse fill="#b59aff" stroke="black" cx="403.89" cy="-429" rx="76.09" ry="18"/>
<text text-anchor="middle" x="403.89" y="-425.3" font-family="Times,serif" font-size="14.00">:data:coverart</text>
</g>
<!-- :test&#45;data&#45;&gt;:data:coverart -->
<g id="edge14" class="edge">
<title>:test&#45;data&#45;&gt;:data:coverart</title>
<path fill="none" stroke="black" stroke-dasharray="1,5" d="M427.08,-550.55C427.08,-550.55 427.08,-456.33 427.08,-456.33"/>
<polygon fill="black" stroke="black" points="430.58,-456.33 427.08,-446.33 423.58,-456.33 430.58,-456.33"/>
</g>
<!-- :data:spotify -->
<g id="node13" class="node">
<title>:data:spotify</title>
<ellipse fill="#b59aff" stroke="black" cx="68.89" cy="-155" rx="68.79" ry="18"/>
<text text-anchor="middle" x="68.89" y="-151.3" font-family="Times,serif" font-size="14.00">:data:spotify</text>
</g>
<!-- :test&#45;data&#45;&gt;:data:spotify -->
<g id="edge15" class="edge">
<title>:test&#45;data&#45;&gt;:data:spotify</title>
<path fill="none" stroke="black" stroke-dasharray="1,5" d="M403.7,-572C298.07,-572 68.89,-572 68.89,-572 68.89,-572 68.89,-183.19 68.89,-183.19"/>
<polygon fill="black" stroke="black" points="72.39,-183.19 68.89,-173.19 65.39,-183.19 72.39,-183.19"/>
</g>
<!-- :ui:test:screenshot&#45;&gt;:ui:core -->
<g id="edge16" class="edge">
<title>:ui:test:screenshot&#45;&gt;:ui:core</title>
<path fill="none" stroke="black" stroke-dasharray="1,5" d="M947.57,-558.63C947.57,-558.63 947.57,-449.67 947.57,-449.67"/>
<polygon fill="black" stroke="black" points="951.07,-449.67 947.57,-439.67 944.07,-449.67 951.07,-449.67"/>
</g>
<!-- :test:image -->
<g id="node14" class="node">
<title>:test:image</title>
<ellipse fill="#9affb5" stroke="black" cx="857.89" cy="-429" rx="63.09" ry="18"/>
<text text-anchor="middle" x="857.89" y="-425.3" font-family="Times,serif" font-size="14.00">:test:image</text>
</g>
<!-- :ui:test:screenshot&#45;&gt;:test:image -->
<g id="edge17" class="edge">
<title>:ui:test:screenshot&#45;&gt;:test:image</title>
<path fill="none" stroke="black" stroke-dasharray="1,5" d="M857.89,-547.81C857.89,-547.81 857.89,-457.27 857.89,-457.27"/>
<polygon fill="black" stroke="black" points="861.39,-457.27 857.89,-447.27 854.39,-457.27 861.39,-457.27"/>
</g>
<!-- :shared:strings -->
<g id="node15" class="node">
<title>:shared:strings</title>
<ellipse fill="#b59aff" stroke="black" cx="956.89" cy="-292" rx="81.49" ry="18"/>
<text text-anchor="middle" x="956.89" y="-288.3" font-family="Times,serif" font-size="14.00">:shared:strings</text>
</g>
<!-- :ui:core&#45;&gt;:shared:strings -->
<g id="edge18" class="edge">
<title>:ui:core&#45;&gt;:shared:strings</title>
<path fill="none" stroke="black" d="M984.89,-410.81C984.89,-410.81 984.89,-318.97 984.89,-318.97"/>
<polygon fill="black" stroke="black" points="988.39,-318.97 984.89,-308.97 981.39,-318.97 988.39,-318.97"/>
</g>
<!-- :ui:image&#45;&gt;:shared:domain -->
<g id="edge19" class="edge">
<title>:ui:image&#45;&gt;:shared:domain</title>
<path fill="none" stroke="black" stroke-dasharray="1,5" d="M1078.99,-548.5C1078.99,-454.34 1078.99,-12 1078.99,-12 1078.99,-12 590.89,-12 590.89,-12"/>
<polygon fill="black" stroke="black" points="590.89,-8.5 580.89,-12 590.89,-15.5 590.89,-8.5"/>
</g>
<!-- :ui:image&#45;&gt;:ui:core -->
<g id="edge20" class="edge">
<title>:ui:image&#45;&gt;:ui:core</title>
<path fill="none" stroke="black" stroke-dasharray="1,5" d="M1021.17,-555.7C1021.17,-555.7 1021.17,-450.18 1021.17,-450.18"/>
<polygon fill="black" stroke="black" points="1024.67,-450.18 1021.17,-440.18 1017.67,-450.18 1024.67,-450.18"/>
</g>
<!-- :data:musicbrainz&#45;&gt;:shared:domain -->
<g id="edge21" class="edge">
<title>:data:musicbrainz&#45;&gt;:shared:domain</title>
<path fill="none" stroke="black" stroke-dasharray="1,5" d="M337.27,-149C380.4,-149 423.1,-149 423.1,-149 423.1,-149 423.1,-32.66 423.1,-32.66"/>
<polygon fill="black" stroke="black" points="426.6,-32.66 423.1,-22.66 419.6,-32.66 426.6,-32.66"/>
</g>
<!-- :data:musicbrainz&#45;&gt;:core:logging:api -->
<g id="edge22" class="edge">
<title>:data:musicbrainz&#45;&gt;:core:logging:api</title>
<path fill="none" stroke="black" stroke-dasharray="1,5" d="M201.29,-139.28C201.29,-139.28 201.29,-43.95 201.29,-43.95"/>
<polygon fill="black" stroke="black" points="204.79,-43.95 201.29,-33.95 197.79,-43.95 204.79,-43.95"/>
</g>
<!-- :data:database&#45;&gt;:core:coroutines -->
<g id="edge24" class="edge">
<title>:data:database&#45;&gt;:core:coroutines</title>
<path fill="none" stroke="black" stroke-dasharray="1,5" d="M558.97,-278.11C558.97,-278.11 558.97,-178.52 558.97,-178.52"/>
<polygon fill="black" stroke="black" points="562.47,-178.52 558.97,-168.52 555.47,-178.52 562.47,-178.52"/>
</g>
<!-- :data:database&#45;&gt;:shared:domain -->
<g id="edge23" class="edge">
<title>:data:database&#45;&gt;:shared:domain</title>
<path fill="none" stroke="black" stroke-dasharray="1,5" d="M479.68,-274.86C479.68,-274.86 479.68,-45.49 479.68,-45.49"/>
<polygon fill="black" stroke="black" points="483.18,-45.49 479.68,-35.49 476.18,-45.49 483.18,-45.49"/>
</g>
<!-- :data:database&#45;&gt;:data:musicbrainz -->
<g id="edge25" class="edge">
<title>:data:database&#45;&gt;:data:musicbrainz</title>
<path fill="none" stroke="black" stroke-dasharray="1,5" d="M428.23,-292C383.92,-292 337.61,-292 337.61,-292 337.61,-292 337.61,-170.89 337.61,-170.89"/>
<polygon fill="black" stroke="black" points="341.11,-170.89 337.61,-160.89 334.11,-170.89 341.11,-170.89"/>
</g>
<!-- :data:coverart&#45;&gt;:test&#45;data -->
<g id="edge29" class="edge">
<title>:data:coverart&#45;&gt;:test&#45;data</title>
<path fill="none" stroke="#ff9ab1" stroke-dasharray="1,5" d="M453.51,-442.89C453.51,-442.89 453.51,-537.75 453.51,-537.75"/>
<polygon fill="#ff9ab1" stroke="#ff9ab1" points="450.01,-537.75 453.51,-547.75 457.01,-537.75 450.01,-537.75"/>
</g>
<!-- :data:coverart&#45;&gt;:core:coroutines -->
<g id="edge28" class="edge">
<title>:data:coverart&#45;&gt;:core:coroutines</title>
<path fill="none" stroke="black" stroke-dasharray="1,5" d="M427.23,-411.83C427.23,-352.68 427.23,-161 427.23,-161 427.23,-161 525.61,-161 525.61,-161"/>
<polygon fill="black" stroke="black" points="525.61,-164.5 535.61,-161 525.61,-157.5 525.61,-164.5"/>
</g>
<!-- :data:coverart&#45;&gt;:shared:domain -->
<g id="edge26" class="edge">
<title>:data:coverart&#45;&gt;:shared:domain</title>
<path fill="none" stroke="black" stroke-dasharray="1,5" d="M424.48,-411.6C424.48,-411.6 424.48,-33.78 424.48,-33.78"/>
<polygon fill="black" stroke="black" points="427.98,-33.78 424.48,-23.78 420.98,-33.78 427.98,-33.78"/>
</g>
<!-- :data:coverart&#45;&gt;:core:logging:api -->
<g id="edge27" class="edge">
<title>:data:coverart&#45;&gt;:core:logging:api</title>
<path fill="none" stroke="black" stroke-dasharray="1,5" d="M381.42,-411.6C381.42,-333.37 381.42,-18 381.42,-18 381.42,-18 257.48,-18 257.48,-18"/>
<polygon fill="black" stroke="black" points="257.48,-14.5 247.48,-18 257.48,-21.5 257.48,-14.5"/>
</g>
<!-- :data:coverart&#45;&gt;:data:musicbrainz -->
<g id="edge30" class="edge">
<title>:data:coverart&#45;&gt;:data:musicbrainz</title>
<path fill="none" stroke="#ff9ab1" stroke-dasharray="1,5" d="M332.73,-422.5C332.73,-422.5 332.73,-173.1 332.73,-173.1"/>
<polygon fill="#ff9ab1" stroke="#ff9ab1" points="336.23,-173.1 332.73,-163.1 329.23,-173.1 336.23,-173.1"/>
</g>
<!-- :data:coverart&#45;&gt;:data:database -->
<g id="edge31" class="edge">
<title>:data:coverart&#45;&gt;:data:database</title>
<path fill="none" stroke="#ff9ab1" stroke-dasharray="1,5" d="M454.27,-415.36C454.27,-415.36 454.27,-315.58 454.27,-315.58"/>
<polygon fill="#ff9ab1" stroke="#ff9ab1" points="457.77,-315.58 454.27,-305.58 450.77,-315.58 457.77,-315.58"/>
</g>
<!-- :data:spotify&#45;&gt;:shared:domain -->
<g id="edge32" class="edge">
<title>:data:spotify&#45;&gt;:shared:domain</title>
<path fill="none" stroke="black" stroke-dasharray="1,5" d="M115.36,-141.7C115.36,-121.65 115.36,-86 115.36,-86 115.36,-86 421.73,-86 421.73,-86 421.73,-86 421.73,-31.28 421.73,-31.28"/>
<polygon fill="black" stroke="black" points="425.23,-31.28 421.73,-21.28 418.23,-31.28 425.23,-31.28"/>
</g>
<!-- :data:spotify&#45;&gt;:core:logging:api -->
<g id="edge33" class="edge">
<title>:data:spotify&#45;&gt;:core:logging:api</title>
<path fill="none" stroke="black" stroke-dasharray="1,5" d="M92.93,-137.93C92.93,-137.93 92.93,-40.04 92.93,-40.04"/>
<polygon fill="black" stroke="black" points="96.43,-40.04 92.93,-30.04 89.43,-40.04 96.43,-40.04"/>
</g>
</g>
</svg>
