<?xml version="1.0" encoding="UTF-8" standalone="no"?>
<!DOCTYPE svg PUBLIC "-//W3C//DTD SVG 1.1//EN"
 "http://www.w3.org/Graphics/SVG/1.1/DTD/svg11.dtd">
<!-- Generated by graphviz version 2.43.0 (0)
 -->
<!-- Title: %3 Pages: 1 -->
<svg width="927pt" height="1077pt"
 viewBox="0.00 0.00 927.44 1077.00" xmlns="http://www.w3.org/2000/svg" xmlns:xlink="http://www.w3.org/1999/xlink">
<g id="graph0" class="graph" transform="scale(1 1) rotate(0) translate(4 1073)">
<title>%3</title>
<polygon fill="white" stroke="transparent" points="-4,4 -4,-1073 923.44,-1073 923.44,4 -4,4"/>
<text text-anchor="middle" x="459.72" y="-1041" font-family="Times,serif" font-size="30.00">Dependencies</text>
<text text-anchor="middle" x="459.72" y="-1008" font-family="Times,serif" font-size="30.00"> </text>
<!-- :shared:feature:licenses -->
<g id="node1" class="node">
<title>:shared:feature:licenses</title>
<polygon fill="#b59aff" stroke="black" points="713.39,-995 525.39,-995 525.39,-959 713.39,-959 713.39,-995"/>
<text text-anchor="middle" x="619.39" y="-973.3" font-family="Times,serif" font-size="14.00">:shared:feature:licenses</text>
</g>
<!-- :ui:common -->
<g id="node2" class="node">
<title>:ui:common</title>
<ellipse fill="#b59aff" stroke="black" cx="619.39" cy="-840" rx="64.19" ry="18"/>
<text text-anchor="middle" x="619.39" y="-836.3" font-family="Times,serif" font-size="14.00">:ui:common</text>
</g>
<!-- :shared:feature:licenses&#45;&gt;:ui:common -->
<g id="edge1" class="edge">
<title>:shared:feature:licenses&#45;&gt;:ui:common</title>
<path fill="none" stroke="black" stroke-dasharray="1,5" d="M619.39,-958.81C619.39,-958.81 619.39,-868.27 619.39,-868.27"/>
<polygon fill="black" stroke="black" points="622.89,-868.27 619.39,-858.27 615.89,-868.27 622.89,-868.27"/>
</g>
<!-- :test&#45;data -->
<g id="node3" class="node">
<title>:test&#45;data</title>
<ellipse fill="#b59aff" stroke="black" cx="347.39" cy="-703" rx="55.49" ry="18"/>
<text text-anchor="middle" x="347.39" y="-699.3" font-family="Times,serif" font-size="14.00">:test&#45;data</text>
</g>
<!-- :ui:common&#45;&gt;:test&#45;data -->
<g id="edge2" class="edge">
<title>:ui:common&#45;&gt;:test&#45;data</title>
<path fill="none" stroke="#ff9ab1" stroke-dasharray="1,5" d="M558.69,-834C478.52,-834 347.39,-834 347.39,-834 347.39,-834 347.39,-731.21 347.39,-731.21"/>
<polygon fill="#ff9ab1" stroke="#ff9ab1" points="350.89,-731.21 347.39,-721.21 343.89,-731.22 350.89,-731.21"/>
</g>
<!-- :ui:test:screenshot -->
<g id="node4" class="node">
<title>:ui:test:screenshot</title>
<ellipse fill="#9affb5" stroke="black" cx="801.39" cy="-703" rx="96.68" ry="18"/>
<text text-anchor="middle" x="801.39" y="-699.3" font-family="Times,serif" font-size="14.00">:ui:test:screenshot</text>
</g>
<!-- :ui:common&#45;&gt;:ui:test:screenshot -->
<g id="edge3" class="edge">
<title>:ui:common&#45;&gt;:ui:test:screenshot</title>
<path fill="none" stroke="#ff9ab1" stroke-dasharray="1,5" d="M684.02,-840C698.14,-840 708.97,-840 708.97,-840 708.97,-840 708.97,-718.54 708.97,-718.54"/>
<polygon fill="#ff9ab1" stroke="#ff9ab1" points="712.47,-718.54 708.97,-708.54 705.47,-718.54 712.47,-718.54"/>
</g>
<!-- :core:coroutines -->
<g id="node5" class="node">
<title>:core:coroutines</title>
<ellipse fill="#b59aff" stroke="black" cx="204.39" cy="-18" rx="85.29" ry="18"/>
<text text-anchor="middle" x="204.39" y="-14.3" font-family="Times,serif" font-size="14.00">:core:coroutines</text>
</g>
<!-- :ui:common&#45;&gt;:core:coroutines -->
<g id="edge4" class="edge">
<title>:ui:common&#45;&gt;:core:coroutines</title>
<path fill="none" stroke="#ff9ab1" stroke-dasharray="1,5" d="M629.12,-822.07C629.12,-701.86 629.12,-18 629.12,-18 629.12,-18 299.58,-18 299.58,-18"/>
<polygon fill="#ff9ab1" stroke="#ff9ab1" points="299.58,-14.5 289.58,-18 299.58,-21.5 299.58,-14.5"/>
</g>
<!-- :shared:domain -->
<g id="node6" class="node">
<title>:shared:domain</title>
<ellipse fill="#b59aff" stroke="black" cx="449.39" cy="-155" rx="82.59" ry="18"/>
<text text-anchor="middle" x="449.39" y="-151.3" font-family="Times,serif" font-size="14.00">:shared:domain</text>
</g>
<!-- :ui:common&#45;&gt;:shared:domain -->
<g id="edge5" class="edge">
<title>:ui:common&#45;&gt;:shared:domain</title>
<path fill="none" stroke="black" d="M592.08,-823.6C592.08,-718.96 592.08,-149 592.08,-149 592.08,-149 537.42,-149 537.42,-149"/>
<polygon fill="black" stroke="black" points="537.42,-145.5 527.42,-149 537.42,-152.5 537.42,-145.5"/>
</g>
<!-- :ui:core -->
<g id="node7" class="node">
<title>:ui:core</title>
<ellipse fill="#b59aff" stroke="black" cx="729.39" cy="-566" rx="45.49" ry="18"/>
<text text-anchor="middle" x="729.39" y="-562.3" font-family="Times,serif" font-size="14.00">:ui:core</text>
</g>
<!-- :ui:common&#45;&gt;:ui:core -->
<g id="edge6" class="edge">
<title>:ui:common&#45;&gt;:ui:core</title>
<path fill="none" stroke="black" d="M674.94,-830.88C674.94,-783.34 674.94,-566 674.94,-566 674.94,-566 675.79,-566 675.79,-566"/>
<polygon fill="black" stroke="black" points="673.45,-569.5 683.45,-566 673.45,-562.5 673.45,-569.5"/>
</g>
<!-- :core:logging:api -->
<g id="node8" class="node">
<title>:core:logging:api</title>
<ellipse fill="#b59aff" stroke="black" cx="88.39" cy="-155" rx="88.28" ry="18"/>
<text text-anchor="middle" x="88.39" y="-151.3" font-family="Times,serif" font-size="14.00">:core:logging:api</text>
</g>
<!-- :ui:common&#45;&gt;:core:logging:api -->
<g id="edge7" class="edge">
<title>:ui:common&#45;&gt;:core:logging:api</title>
<path fill="none" stroke="black" stroke-dasharray="1,5" d="M558.46,-846C404.64,-846 12.83,-846 12.83,-846 12.83,-846 12.83,-174.51 12.83,-174.51"/>
<polygon fill="black" stroke="black" points="16.33,-174.51 12.83,-164.51 9.33,-174.51 16.33,-174.51"/>
</g>
<!-- :test&#45;data&#45;&gt;:core:coroutines -->
<g id="edge9" class="edge">
<title>:test&#45;data&#45;&gt;:core:coroutines</title>
<path fill="none" stroke="black" stroke-dasharray="1,5" d="M292.09,-703C246.05,-703 187.99,-703 187.99,-703 187.99,-703 187.99,-45.97 187.99,-45.97"/>
<polygon fill="black" stroke="black" points="191.49,-45.97 187.99,-35.97 184.49,-45.97 191.49,-45.97"/>
</g>
<!-- :test&#45;data&#45;&gt;:shared:domain -->
<g id="edge8" class="edge">
<title>:test&#45;data&#45;&gt;:shared:domain</title>
<path fill="none" stroke="black" stroke-dasharray="1,5" d="M399.66,-709C458.02,-709 544.37,-709 544.37,-709 544.37,-709 544.37,-161 544.37,-161 544.37,-161 537.39,-161 537.39,-161"/>
<polygon fill="black" stroke="black" points="537.39,-157.5 527.39,-161 537.39,-164.5 537.39,-157.5"/>
</g>
<!-- :data:database -->
<g id="node9" class="node">
<title>:data:database</title>
<ellipse fill="#b59aff" stroke="black" cx="454.39" cy="-429" rx="79.09" ry="18"/>
<text text-anchor="middle" x="454.39" y="-425.3" font-family="Times,serif" font-size="14.00">:data:database</text>
</g>
<!-- :test&#45;data&#45;&gt;:data:database -->
<g id="edge10" class="edge">
<title>:test&#45;data&#45;&gt;:data:database</title>
<path fill="none" stroke="black" stroke-dasharray="1,5" d="M399.79,-697C434.78,-697 474.41,-697 474.41,-697 474.41,-697 474.41,-456.58 474.41,-456.58"/>
<polygon fill="black" stroke="black" points="477.91,-456.58 474.41,-446.58 470.91,-456.58 477.91,-456.58"/>
</g>
<!-- :data:musicbrainz -->
<g id="node10" class="node">
<title>:data:musicbrainz</title>
<ellipse fill="#b59aff" stroke="black" cx="326.39" cy="-292" rx="93.68" ry="18"/>
<text text-anchor="middle" x="326.39" y="-288.3" font-family="Times,serif" font-size="14.00">:data:musicbrainz</text>
</g>
<!-- :test&#45;data&#45;&gt;:data:musicbrainz -->
<g id="edge11" class="edge">
<title>:test&#45;data&#45;&gt;:data:musicbrainz</title>
<path fill="none" stroke="black" stroke-dasharray="1,5" d="M299.45,-694C275.72,-694 252.07,-694 252.07,-694 252.07,-694 252.07,-313.17 252.07,-313.17"/>
<polygon fill="black" stroke="black" points="255.57,-313.17 252.07,-303.17 248.57,-313.17 255.57,-313.17"/>
</g>
<!-- :data:coverart -->
<g id="node11" class="node">
<title>:data:coverart</title>
<ellipse fill="#b59aff" stroke="black" cx="347.39" cy="-566" rx="76.09" ry="18"/>
<text text-anchor="middle" x="347.39" y="-562.3" font-family="Times,serif" font-size="14.00">:data:coverart</text>
</g>
<!-- :test&#45;data&#45;&gt;:data:coverart -->
<g id="edge12" class="edge">
<title>:test&#45;data&#45;&gt;:data:coverart</title>
<path fill="none" stroke="black" stroke-dasharray="1,5" d="M328.98,-685.93C328.98,-685.93 328.98,-593.72 328.98,-593.72"/>
<polygon fill="black" stroke="black" points="332.48,-593.72 328.98,-583.72 325.48,-593.72 332.48,-593.72"/>
</g>
<!-- :data:spotify -->
<g id="node12" class="node">
<title>:data:spotify</title>
<ellipse fill="#b59aff" stroke="black" cx="107.39" cy="-292" rx="68.79" ry="18"/>
<text text-anchor="middle" x="107.39" y="-288.3" font-family="Times,serif" font-size="14.00">:data:spotify</text>
</g>
<!-- :test&#45;data&#45;&gt;:data:spotify -->
<g id="edge13" class="edge">
<title>:test&#45;data&#45;&gt;:data:spotify</title>
<path fill="none" stroke="black" stroke-dasharray="1,5" d="M299.4,-712C229.36,-712 107.39,-712 107.39,-712 107.39,-712 107.39,-320.05 107.39,-320.05"/>
<polygon fill="black" stroke="black" points="110.89,-320.05 107.39,-310.05 103.89,-320.05 110.89,-320.05"/>
</g>
<!-- :ui:test:screenshot&#45;&gt;:ui:core -->
<g id="edge14" class="edge">
<title>:ui:test:screenshot&#45;&gt;:ui:core</title>
<path fill="none" stroke="black" stroke-dasharray="1,5" d="M739.72,-689.11C739.72,-689.11 739.72,-593.8 739.72,-593.8"/>
<polygon fill="black" stroke="black" points="743.22,-593.8 739.72,-583.8 736.22,-593.8 743.22,-593.8"/>
</g>
<!-- :test:image -->
<g id="node13" class="node">
<title>:test:image</title>
<ellipse fill="#9affb5" stroke="black" cx="856.39" cy="-566" rx="63.09" ry="18"/>
<text text-anchor="middle" x="856.39" y="-562.3" font-family="Times,serif" font-size="14.00">:test:image</text>
</g>
<!-- :ui:test:screenshot&#45;&gt;:test:image -->
<g id="edge15" class="edge">
<title>:ui:test:screenshot&#45;&gt;:test:image</title>
<path fill="none" stroke="black" stroke-dasharray="1,5" d="M845.79,-686.75C845.79,-686.75 845.79,-593.97 845.79,-593.97"/>
<polygon fill="black" stroke="black" points="849.29,-593.97 845.79,-583.97 842.29,-593.97 849.29,-593.97"/>
</g>
<!-- :shared:strings -->
<g id="node14" class="node">
<title>:shared:strings</title>
<ellipse fill="#b59aff" stroke="black" cx="747.39" cy="-429" rx="81.49" ry="18"/>
<text text-anchor="middle" x="747.39" y="-425.3" font-family="Times,serif" font-size="14.00">:shared:strings</text>
</g>
<!-- :ui:core&#45;&gt;:shared:strings -->
<g id="edge16" class="edge">
<title>:ui:core&#45;&gt;:shared:strings</title>
<path fill="none" stroke="black" d="M729.39,-547.81C729.39,-547.81 729.39,-456.83 729.39,-456.83"/>
<polygon fill="black" stroke="black" points="732.89,-456.83 729.39,-446.83 725.89,-456.83 732.89,-456.83"/>
</g>
<!-- :core:logging:api&#45;&gt;:core:coroutines -->
<g id="edge17" class="edge">
<title>:core:logging:api&#45;&gt;:core:coroutines</title>
<path fill="none" stroke="black" d="M148.02,-141.61C148.02,-141.61 148.02,-41.64 148.02,-41.64"/>
<polygon fill="black" stroke="black" points="151.52,-41.64 148.02,-31.64 144.52,-41.64 151.52,-41.64"/>
</g>
<!-- :data:database&#45;&gt;:core:coroutines -->
<g id="edge19" class="edge">
<title>:data:database&#45;&gt;:core:coroutines</title>
<path fill="none" stroke="black" stroke-dasharray="1,5" d="M374.84,-429C303.63,-429 210.39,-429 210.39,-429 210.39,-429 210.39,-46.19 210.39,-46.19"/>
<polygon fill="black" stroke="black" points="213.89,-46.19 210.39,-36.19 206.89,-46.19 213.89,-46.19"/>
</g>
<!-- :data:database&#45;&gt;:shared:domain -->
<g id="edge18" class="edge">
<title>:data:database&#45;&gt;:shared:domain</title>
<path fill="none" stroke="black" stroke-dasharray="1,5" d="M494.62,-413.48C494.62,-413.48 494.62,-180.35 494.62,-180.35"/>
<polygon fill="black" stroke="black" points="498.12,-180.35 494.62,-170.35 491.12,-180.35 498.12,-180.35"/>
</g>
<!-- :data:database&#45;&gt;:data:musicbrainz -->
<g id="edge20" class="edge">
<title>:data:database&#45;&gt;:data:musicbrainz</title>
<path fill="none" stroke="black" stroke-dasharray="1,5" d="M397.54,-416.36C397.54,-416.36 397.54,-313.83 397.54,-313.83"/>
<polygon fill="black" stroke="black" points="401.04,-313.83 397.54,-303.83 394.04,-313.83 401.04,-313.83"/>
</g>
<!-- :data:musicbrainz&#45;&gt;:shared:domain -->
<g id="edge21" class="edge">
<title>:data:musicbrainz&#45;&gt;:shared:domain</title>
<path fill="none" stroke="black" stroke-dasharray="1,5" d="M393.42,-279.36C393.42,-279.36 393.42,-178.42 393.42,-178.42"/>
<polygon fill="black" stroke="black" points="396.92,-178.42 393.42,-168.42 389.92,-178.42 396.92,-178.42"/>
</g>
<!-- :data:musicbrainz&#45;&gt;:core:logging:api -->
<g id="edge22" class="edge">
<title>:data:musicbrainz&#45;&gt;:core:logging:api</title>
<path fill="none" stroke="black" stroke-dasharray="1,5" d="M261.17,-278.96C261.17,-245.83 261.17,-161 261.17,-161 261.17,-161 181.74,-161 181.74,-161"/>
<polygon fill="black" stroke="black" points="181.74,-157.5 171.74,-161 181.74,-164.5 181.74,-157.5"/>
</g>
<!-- :data:coverart&#45;&gt;:test&#45;data -->
<g id="edge26" class="edge">
<title>:data:coverart&#45;&gt;:test&#45;data</title>
<path fill="none" stroke="#ff9ab1" stroke-dasharray="1,5" d="M365.81,-583.63C365.81,-583.63 365.81,-675.87 365.81,-675.87"/>
<polygon fill="#ff9ab1" stroke="#ff9ab1" points="362.31,-675.87 365.81,-685.87 369.31,-675.87 362.31,-675.87"/>
</g>
<!-- :data:coverart&#45;&gt;:core:coroutines -->
<g id="edge25" class="edge">
<title>:data:coverart&#45;&gt;:core:coroutines</title>
<path fill="none" stroke="black" stroke-dasharray="1,5" d="M275.46,-560C237.7,-560 199.19,-560 199.19,-560 199.19,-560 199.19,-46.03 199.19,-46.03"/>
<polygon fill="black" stroke="black" points="202.69,-46.03 199.19,-36.03 195.69,-46.03 202.69,-46.03"/>
</g>
<!-- :data:coverart&#45;&gt;:shared:domain -->
<g id="edge23" class="edge">
<title>:data:coverart&#45;&gt;:shared:domain</title>
<path fill="none" stroke="black" stroke-dasharray="1,5" d="M340.52,-547.72C340.52,-497.3 340.52,-360 340.52,-360 340.52,-360 457.3,-360 457.3,-360 457.3,-360 457.3,-183.19 457.3,-183.19"/>
<polygon fill="black" stroke="black" points="460.8,-183.19 457.3,-173.19 453.8,-183.19 460.8,-183.19"/>
</g>
<!-- :data:coverart&#45;&gt;:core:logging:api -->
<g id="edge24" class="edge">
<title>:data:coverart&#45;&gt;:core:logging:api</title>
<path fill="none" stroke="black" stroke-dasharray="1,5" d="M275.59,-572C180.77,-572 25.67,-572 25.67,-572 25.67,-572 25.67,-177.94 25.67,-177.94"/>
<polygon fill="black" stroke="black" points="29.17,-177.94 25.67,-167.94 22.17,-177.94 29.17,-177.94"/>
</g>
<!-- :data:coverart&#45;&gt;:data:database -->
<g id="edge28" class="edge">
<title>:data:coverart&#45;&gt;:data:database</title>
<path fill="none" stroke="#ff9ab1" stroke-dasharray="1,5" d="M399.27,-552.61C399.27,-552.61 399.27,-452.24 399.27,-452.24"/>
<polygon fill="#ff9ab1" stroke="#ff9ab1" points="402.77,-452.24 399.27,-442.24 395.77,-452.24 402.77,-452.24"/>
</g>
<!-- :data:coverart&#45;&gt;:data:musicbrainz -->
<g id="edge27" class="edge">
<title>:data:coverart&#45;&gt;:data:musicbrainz</title>
<path fill="none" stroke="#ff9ab1" stroke-dasharray="1,5" d="M305.93,-550.88C305.93,-550.88 305.93,-319.87 305.93,-319.87"/>
<polygon fill="#ff9ab1" stroke="#ff9ab1" points="309.43,-319.87 305.93,-309.87 302.43,-319.87 309.43,-319.87"/>
</g>
<!-- :data:spotify&#45;&gt;:shared:domain -->
<g id="edge29" class="edge">
<title>:data:spotify&#45;&gt;:shared:domain</title>
<path fill="none" stroke="black" stroke-dasharray="1,5" d="M176.46,-292C200.51,-292 221.6,-292 221.6,-292 221.6,-292 221.6,-149 221.6,-149 221.6,-149 361.32,-149 361.32,-149"/>
<polygon fill="black" stroke="black" points="361.32,-152.5 371.32,-149 361.32,-145.5 361.32,-152.5"/>
</g>
<!-- :data:spotify&#45;&gt;:core:logging:api -->
<g id="edge30" class="edge">
<title>:data:spotify&#45;&gt;:core:logging:api</title>
<path fill="none" stroke="black" stroke-dasharray="1,5" d="M107.39,-273.81C107.39,-273.81 107.39,-182.83 107.39,-182.83"/>
<polygon fill="black" stroke="black" points="110.89,-182.83 107.39,-172.83 103.89,-182.83 110.89,-182.83"/>
</g>
</g>
</svg>
