<?xml version="1.0" encoding="UTF-8" standalone="no"?>
<!DOCTYPE svg PUBLIC "-//W3C//DTD SVG 1.1//EN"
 "http://www.w3.org/Graphics/SVG/1.1/DTD/svg11.dtd">
<!-- Generated by graphviz version 2.43.0 (0)
 -->
<!-- Title: %3 Pages: 1 -->
<svg width="1162pt" height="1077pt"
 viewBox="0.00 0.00 1162.08 1077.00" xmlns="http://www.w3.org/2000/svg" xmlns:xlink="http://www.w3.org/1999/xlink">
<g id="graph0" class="graph" transform="scale(1 1) rotate(0) translate(4 1073)">
<title>%3</title>
<polygon fill="white" stroke="transparent" points="-4,4 -4,-1073 1158.08,-1073 1158.08,4 -4,4"/>
<text text-anchor="middle" x="577.04" y="-1041" font-family="Times,serif" font-size="30.00">Dependencies</text>
<text text-anchor="middle" x="577.04" y="-1008" font-family="Times,serif" font-size="30.00"> </text>
<!-- :shared:feature:licenses -->
<g id="node1" class="node">
<title>:shared:feature:licenses</title>
<polygon fill="#b59aff" stroke="black" points="729.84,-995 541.84,-995 541.84,-959 729.84,-959 729.84,-995"/>
<text text-anchor="middle" x="635.84" y="-973.3" font-family="Times,serif" font-size="14.00">:shared:feature:licenses</text>
</g>
<!-- :ui:common -->
<g id="node2" class="node">
<title>:ui:common</title>
<ellipse fill="#b59aff" stroke="black" cx="635.84" cy="-840" rx="64.19" ry="18"/>
<text text-anchor="middle" x="635.84" y="-836.3" font-family="Times,serif" font-size="14.00">:ui:common</text>
</g>
<!-- :shared:feature:licenses&#45;&gt;:ui:common -->
<g id="edge1" class="edge">
<title>:shared:feature:licenses&#45;&gt;:ui:common</title>
<path fill="none" stroke="black" stroke-dasharray="1,5" d="M635.84,-958.81C635.84,-958.81 635.84,-868.27 635.84,-868.27"/>
<polygon fill="black" stroke="black" points="639.34,-868.27 635.84,-858.27 632.34,-868.27 639.34,-868.27"/>
</g>
<!-- :test:image -->
<g id="node3" class="node">
<title>:test:image</title>
<ellipse fill="#9affb5" stroke="black" cx="132.84" cy="-566" rx="63.09" ry="18"/>
<text text-anchor="middle" x="132.84" y="-562.3" font-family="Times,serif" font-size="14.00">:test:image</text>
</g>
<!-- :ui:common&#45;&gt;:test:image -->
<g id="edge2" class="edge">
<title>:ui:common&#45;&gt;:test:image</title>
<path fill="none" stroke="black" stroke-dasharray="1,5" d="M579.95,-831C501.77,-831 369.23,-831 369.23,-831 369.23,-831 369.23,-566 369.23,-566 369.23,-566 206.19,-566 206.19,-566"/>
<polygon fill="black" stroke="black" points="206.19,-562.5 196.19,-566 206.19,-569.5 206.19,-562.5"/>
</g>
<!-- :test&#45;data -->
<g id="node4" class="node">
<title>:test&#45;data</title>
<ellipse fill="#b59aff" stroke="black" cx="635.84" cy="-703" rx="55.49" ry="18"/>
<text text-anchor="middle" x="635.84" y="-699.3" font-family="Times,serif" font-size="14.00">:test&#45;data</text>
</g>
<!-- :ui:common&#45;&gt;:test&#45;data -->
<g id="edge3" class="edge">
<title>:ui:common&#45;&gt;:test&#45;data</title>
<path fill="none" stroke="#ff9ab1" stroke-dasharray="1,5" d="M635.84,-821.81C635.84,-821.81 635.84,-731.27 635.84,-731.27"/>
<polygon fill="#ff9ab1" stroke="#ff9ab1" points="639.34,-731.27 635.84,-721.27 632.34,-731.27 639.34,-731.27"/>
</g>
<!-- :ui:test:screenshot -->
<g id="node5" class="node">
<title>:ui:test:screenshot</title>
<ellipse fill="#9affb5" stroke="black" cx="96.84" cy="-703" rx="96.68" ry="18"/>
<text text-anchor="middle" x="96.84" y="-699.3" font-family="Times,serif" font-size="14.00">:ui:test:screenshot</text>
</g>
<!-- :ui:common&#45;&gt;:ui:test:screenshot -->
<g id="edge4" class="edge">
<title>:ui:common&#45;&gt;:ui:test:screenshot</title>
<path fill="none" stroke="#ff9ab1" stroke-dasharray="1,5" d="M576.05,-833.32C576.05,-806.63 576.05,-709 576.05,-709 576.05,-709 198.39,-709 198.39,-709"/>
<polygon fill="#ff9ab1" stroke="#ff9ab1" points="198.39,-705.5 188.39,-709 198.39,-712.5 198.39,-705.5"/>
</g>
<!-- :core:coroutines -->
<g id="node6" class="node">
<title>:core:coroutines</title>
<ellipse fill="#b59aff" stroke="black" cx="741.84" cy="-18" rx="85.29" ry="18"/>
<text text-anchor="middle" x="741.84" y="-14.3" font-family="Times,serif" font-size="14.00">:core:coroutines</text>
</g>
<!-- :ui:common&#45;&gt;:core:coroutines -->
<g id="edge5" class="edge">
<title>:ui:common&#45;&gt;:core:coroutines</title>
<path fill="none" stroke="#ff9ab1" stroke-dasharray="1,5" d="M579.78,-849C470.96,-849 241.67,-849 241.67,-849 241.67,-849 241.67,-12 241.67,-12 241.67,-12 651.48,-12 651.48,-12"/>
<polygon fill="#ff9ab1" stroke="#ff9ab1" points="651.48,-15.5 661.48,-12 651.48,-8.5 651.48,-15.5"/>
</g>
<!-- :shared:domain -->
<g id="node7" class="node">
<title>:shared:domain</title>
<ellipse fill="#b59aff" stroke="black" cx="852.84" cy="-155" rx="82.59" ry="18"/>
<text text-anchor="middle" x="852.84" y="-151.3" font-family="Times,serif" font-size="14.00">:shared:domain</text>
</g>
<!-- :ui:common&#45;&gt;:shared:domain -->
<g id="edge6" class="edge">
<title>:ui:common&#45;&gt;:shared:domain</title>
<path fill="none" stroke="black" d="M700.47,-840C774.08,-840 884.28,-840 884.28,-840 884.28,-840 884.28,-181.93 884.28,-181.93"/>
<polygon fill="black" stroke="black" points="887.78,-181.93 884.28,-171.93 880.78,-181.93 887.78,-181.93"/>
</g>
<!-- :ui:core -->
<g id="node8" class="node">
<title>:ui:core</title>
<ellipse fill="#b59aff" stroke="black" cx="960.84" cy="-703" rx="45.49" ry="18"/>
<text text-anchor="middle" x="960.84" y="-699.3" font-family="Times,serif" font-size="14.00">:ui:core</text>
</g>
<!-- :ui:common&#45;&gt;:ui:core -->
<g id="edge7" class="edge">
<title>:ui:common&#45;&gt;:ui:core</title>
<path fill="none" stroke="black" d="M695.64,-833.32C695.64,-806.63 695.64,-709 695.64,-709 695.64,-709 907.94,-709 907.94,-709"/>
<polygon fill="black" stroke="black" points="907.94,-712.5 917.94,-709 907.94,-705.5 907.94,-712.5"/>
</g>
<!-- :core:logging:api -->
<g id="node9" class="node">
<title>:core:logging:api</title>
<ellipse fill="#b59aff" stroke="black" cx="375.84" cy="-155" rx="88.28" ry="18"/>
<text text-anchor="middle" x="375.84" y="-151.3" font-family="Times,serif" font-size="14.00">:core:logging:api</text>
</g>
<!-- :ui:common&#45;&gt;:core:logging:api -->
<g id="edge8" class="edge">
<title>:ui:common&#45;&gt;:core:logging:api</title>
<path fill="none" stroke="black" stroke-dasharray="1,5" d="M571.21,-840C475.35,-840 306.7,-840 306.7,-840 306.7,-840 306.7,-176.32 306.7,-176.32"/>
<polygon fill="black" stroke="black" points="310.2,-176.32 306.7,-166.32 303.2,-176.32 310.2,-176.32"/>
</g>
<!-- :test&#45;data&#45;&gt;:core:coroutines -->
<g id="edge10" class="edge">
<title>:test&#45;data&#45;&gt;:core:coroutines</title>
<path fill="none" stroke="black" stroke-dasharray="1,5" d="M644.99,-685.04C644.99,-614.47 644.99,-360 644.99,-360 644.99,-360 753.72,-360 753.72,-360 753.72,-360 753.72,-45.91 753.72,-45.91"/>
<polygon fill="black" stroke="black" points="757.22,-45.91 753.72,-35.91 750.22,-45.91 757.22,-45.91"/>
</g>
<!-- :test&#45;data&#45;&gt;:shared:domain -->
<g id="edge9" class="edge">
<title>:test&#45;data&#45;&gt;:shared:domain</title>
<path fill="none" stroke="black" stroke-dasharray="1,5" d="M688.18,-697C752.5,-697 853.2,-697 853.2,-697 853.2,-697 853.2,-183.03 853.2,-183.03"/>
<polygon fill="black" stroke="black" points="856.7,-183.03 853.2,-173.03 849.7,-183.03 856.7,-183.03"/>
</g>
<!-- :data:database -->
<g id="node10" class="node">
<title>:data:database</title>
<ellipse fill="#b59aff" stroke="black" cx="742.84" cy="-429" rx="79.09" ry="18"/>
<text text-anchor="middle" x="742.84" y="-425.3" font-family="Times,serif" font-size="14.00">:data:database</text>
</g>
<!-- :test&#45;data&#45;&gt;:data:database -->
<g id="edge11" class="edge">
<title>:test&#45;data&#45;&gt;:data:database</title>
<path fill="none" stroke="black" stroke-dasharray="1,5" d="M681.91,-692.92C681.91,-692.92 681.91,-450.67 681.91,-450.67"/>
<polygon fill="black" stroke="black" points="685.41,-450.67 681.91,-440.67 678.41,-450.67 685.41,-450.67"/>
</g>
<!-- :data:musicbrainz -->
<g id="node11" class="node">
<title>:data:musicbrainz</title>
<ellipse fill="#b59aff" stroke="black" cx="651.84" cy="-292" rx="93.68" ry="18"/>
<text text-anchor="middle" x="651.84" y="-288.3" font-family="Times,serif" font-size="14.00">:data:musicbrainz</text>
</g>
<!-- :test&#45;data&#45;&gt;:data:musicbrainz -->
<g id="edge12" class="edge">
<title>:test&#45;data&#45;&gt;:data:musicbrainz</title>
<path fill="none" stroke="black" stroke-dasharray="1,5" d="M626.44,-685.08C626.44,-685.08 626.44,-319.56 626.44,-319.56"/>
<polygon fill="black" stroke="black" points="629.94,-319.56 626.44,-309.56 622.94,-319.56 629.94,-319.56"/>
</g>
<!-- :data:coverart -->
<g id="node12" class="node">
<title>:data:coverart</title>
<ellipse fill="#b59aff" stroke="black" cx="531.84" cy="-566" rx="76.09" ry="18"/>
<text text-anchor="middle" x="531.84" y="-562.3" font-family="Times,serif" font-size="14.00">:data:coverart</text>
</g>
<!-- :test&#45;data&#45;&gt;:data:coverart -->
<g id="edge13" class="edge">
<title>:test&#45;data&#45;&gt;:data:coverart</title>
<path fill="none" stroke="black" stroke-dasharray="1,5" d="M589.69,-692.7C589.69,-692.7 589.69,-587.96 589.69,-587.96"/>
<polygon fill="black" stroke="black" points="593.19,-587.96 589.69,-577.96 586.19,-587.96 593.19,-587.96"/>
</g>
<!-- :data:spotify -->
<g id="node13" class="node">
<title>:data:spotify</title>
<ellipse fill="#b59aff" stroke="black" cx="394.84" cy="-292" rx="68.79" ry="18"/>
<text text-anchor="middle" x="394.84" y="-288.3" font-family="Times,serif" font-size="14.00">:data:spotify</text>
</g>
<!-- :test&#45;data&#45;&gt;:data:spotify -->
<g id="edge14" class="edge">
<title>:test&#45;data&#45;&gt;:data:spotify</title>
<path fill="none" stroke="black" stroke-dasharray="1,5" d="M583.48,-697C517.47,-697 412.51,-697 412.51,-697 412.51,-697 412.51,-319.4 412.51,-319.4"/>
<polygon fill="black" stroke="black" points="416.01,-319.4 412.51,-309.4 409.01,-319.4 416.01,-319.4"/>
</g>
<!-- :ui:test:screenshot&#45;&gt;:test:image -->
<g id="edge15" class="edge">
<title>:ui:test:screenshot&#45;&gt;:test:image</title>
<path fill="none" stroke="black" stroke-dasharray="1,5" d="M131.74,-686.2C131.74,-686.2 131.74,-594.25 131.74,-594.25"/>
<polygon fill="black" stroke="black" points="135.24,-594.25 131.74,-584.25 128.24,-594.25 135.24,-594.25"/>
</g>
<!-- :ui:core&#45;&gt;:shared:domain -->
<g id="edge17" class="edge">
<title>:ui:core&#45;&gt;:shared:domain</title>
<path fill="none" stroke="black" stroke-dasharray="1,5" d="M925.36,-691.55C925.36,-691.55 925.36,-173.78 925.36,-173.78"/>
<polygon fill="black" stroke="black" points="928.86,-173.78 925.36,-163.78 921.86,-173.78 928.86,-173.78"/>
</g>
<!-- :shared:strings -->
<g id="node14" class="node">
<title>:shared:strings</title>
<ellipse fill="#b59aff" stroke="black" cx="1072.84" cy="-566" rx="81.49" ry="18"/>
<text text-anchor="middle" x="1072.84" y="-562.3" font-family="Times,serif" font-size="14.00">:shared:strings</text>
</g>
<!-- :ui:core&#45;&gt;:shared:strings -->
<g id="edge16" class="edge">
<title>:ui:core&#45;&gt;:shared:strings</title>
<path fill="none" stroke="black" d="M998.97,-693.15C998.97,-693.15 998.97,-583.67 998.97,-583.67"/>
<polygon fill="black" stroke="black" points="1002.47,-583.67 998.97,-573.67 995.47,-583.67 1002.47,-583.67"/>
</g>
<!-- :core:logging:api&#45;&gt;:core:coroutines -->
<g id="edge18" class="edge">
<title>:core:logging:api&#45;&gt;:core:coroutines</title>
<path fill="none" stroke="black" d="M442.05,-143C537.14,-143 701.07,-143 701.07,-143 701.07,-143 701.07,-43.83 701.07,-43.83"/>
<polygon fill="black" stroke="black" points="704.57,-43.83 701.07,-33.83 697.57,-43.83 704.57,-43.83"/>
</g>
<!-- :data:database&#45;&gt;:core:coroutines -->
<g id="edge20" class="edge">
<title>:data:database&#45;&gt;:core:coroutines</title>
<path fill="none" stroke="black" stroke-dasharray="1,5" d="M762.01,-411.34C762.01,-411.34 762.01,-45.59 762.01,-45.59"/>
<polygon fill="black" stroke="black" points="765.51,-45.59 762.01,-35.59 758.51,-45.59 765.51,-45.59"/>
</g>
<!-- :data:database&#45;&gt;:shared:domain -->
<g id="edge19" class="edge">
<title>:data:database&#45;&gt;:shared:domain</title>
<path fill="none" stroke="black" stroke-dasharray="1,5" d="M804.86,-417.58C804.86,-417.58 804.86,-179.7 804.86,-179.7"/>
<polygon fill="black" stroke="black" points="808.36,-179.7 804.86,-169.7 801.36,-179.7 808.36,-179.7"/>
</g>
<!-- :data:database&#45;&gt;:data:musicbrainz -->
<g id="edge21" class="edge">
<title>:data:database&#45;&gt;:data:musicbrainz</title>
<path fill="none" stroke="black" stroke-dasharray="1,5" d="M704.49,-413.02C704.49,-413.02 704.49,-317.05 704.49,-317.05"/>
<polygon fill="black" stroke="black" points="707.99,-317.05 704.49,-307.05 700.99,-317.05 707.99,-317.05"/>
</g>
<!-- :data:musicbrainz&#45;&gt;:shared:domain -->
<g id="edge22" class="edge">
<title>:data:musicbrainz&#45;&gt;:shared:domain</title>
<path fill="none" stroke="black" stroke-dasharray="1,5" d="M745.74,-292C769.08,-292 787.58,-292 787.58,-292 787.58,-292 787.58,-176.21 787.58,-176.21"/>
<polygon fill="black" stroke="black" points="791.08,-176.21 787.58,-166.21 784.08,-176.21 791.08,-176.21"/>
</g>
<!-- :data:musicbrainz&#45;&gt;:core:logging:api -->
<g id="edge23" class="edge">
<title>:data:musicbrainz&#45;&gt;:core:logging:api</title>
<path fill="none" stroke="black" stroke-dasharray="1,5" d="M607.47,-275.94C607.47,-240.96 607.47,-161 607.47,-161 607.47,-161 469.47,-161 469.47,-161"/>
<polygon fill="black" stroke="black" points="469.47,-157.5 459.47,-161 469.47,-164.5 469.47,-157.5"/>
</g>
<!-- :data:coverart&#45;&gt;:test&#45;data -->
<g id="edge27" class="edge">
<title>:data:coverart&#45;&gt;:test&#45;data</title>
<path fill="none" stroke="#ff9ab1" stroke-dasharray="1,5" d="M598.79,-574.57C598.79,-574.57 598.79,-679.36 598.79,-679.36"/>
<polygon fill="#ff9ab1" stroke="#ff9ab1" points="595.29,-679.36 598.79,-689.36 602.29,-679.36 595.29,-679.36"/>
</g>
<!-- :data:coverart&#45;&gt;:core:coroutines -->
<g id="edge26" class="edge">
<title>:data:coverart&#45;&gt;:core:coroutines</title>
<path fill="none" stroke="black" stroke-dasharray="1,5" d="M520.64,-547.97C520.64,-453.92 520.64,-24 520.64,-24 520.64,-24 651.36,-24 651.36,-24"/>
<polygon fill="black" stroke="black" points="651.36,-27.5 661.36,-24 651.36,-20.5 651.36,-27.5"/>
</g>
<!-- :data:coverart&#45;&gt;:shared:domain -->
<g id="edge24" class="edge">
<title>:data:coverart&#45;&gt;:shared:domain</title>
<path fill="none" stroke="black" stroke-dasharray="1,5" d="M539.45,-548.08C539.45,-468.97 539.45,-155 539.45,-155 539.45,-155 760.09,-155 760.09,-155"/>
<polygon fill="black" stroke="black" points="760.09,-158.5 770.09,-155 760.09,-151.5 760.09,-158.5"/>
</g>
<!-- :data:coverart&#45;&gt;:core:logging:api -->
<g id="edge25" class="edge">
<title>:data:coverart&#45;&gt;:core:logging:api</title>
<path fill="none" stroke="black" stroke-dasharray="1,5" d="M501.84,-549.36C501.84,-473.85 501.84,-167 501.84,-167 501.84,-167 451.79,-167 451.79,-167"/>
<polygon fill="black" stroke="black" points="451.79,-163.5 441.79,-167 451.79,-170.5 451.79,-163.5"/>
</g>
<!-- :data:coverart&#45;&gt;:data:database -->
<g id="edge29" class="edge">
<title>:data:coverart&#45;&gt;:data:database</title>
<path fill="none" stroke="#ff9ab1" stroke-dasharray="1,5" d="M608.06,-566C641.25,-566 672.73,-566 672.73,-566 672.73,-566 672.73,-447.57 672.73,-447.57"/>
<polygon fill="#ff9ab1" stroke="#ff9ab1" points="676.23,-447.57 672.73,-437.57 669.23,-447.57 676.23,-447.57"/>
</g>
<!-- :data:coverart&#45;&gt;:data:musicbrainz -->
<g id="edge28" class="edge">
<title>:data:coverart&#45;&gt;:data:musicbrainz</title>
<path fill="none" stroke="#ff9ab1" stroke-dasharray="1,5" d="M583.07,-552.41C583.07,-552.41 583.07,-314.4 583.07,-314.4"/>
<polygon fill="#ff9ab1" stroke="#ff9ab1" points="586.57,-314.4 583.07,-304.4 579.57,-314.4 586.57,-314.4"/>
</g>
<!-- :data:spotify&#45;&gt;:shared:domain -->
<g id="edge30" class="edge">
<title>:data:spotify&#45;&gt;:shared:domain</title>
<path fill="none" stroke="black" stroke-dasharray="1,5" d="M463.9,-292C475.06,-292 483.04,-292 483.04,-292 483.04,-292 483.04,-149 483.04,-149 483.04,-149 764.87,-149 764.87,-149"/>
<polygon fill="black" stroke="black" points="764.87,-152.5 774.87,-149 764.87,-145.5 764.87,-152.5"/>
</g>
<!-- :data:spotify&#45;&gt;:core:logging:api -->
<g id="edge31" class="edge">
<title>:data:spotify&#45;&gt;:core:logging:api</title>
<path fill="none" stroke="black" stroke-dasharray="1,5" d="M394.84,-273.81C394.84,-273.81 394.84,-182.83 394.84,-182.83"/>
<polygon fill="black" stroke="black" points="398.34,-182.83 394.84,-172.83 391.34,-182.83 398.34,-182.83"/>
</g>
</g>
</svg>
