<?xml version="1.0" encoding="UTF-8" standalone="no"?>
<!DOCTYPE svg PUBLIC "-//W3C//DTD SVG 1.1//EN"
 "http://www.w3.org/Graphics/SVG/1.1/DTD/svg11.dtd">
<!-- Generated by graphviz version 2.43.0 (0)
 -->
<!-- Title: %3 Pages: 1 -->
<svg width="1389pt" height="666pt"
 viewBox="0.00 0.00 1389.10 666.00" xmlns="http://www.w3.org/2000/svg" xmlns:xlink="http://www.w3.org/1999/xlink">
<g id="graph0" class="graph" transform="scale(1 1) rotate(0) translate(4 662)">
<title>%3</title>
<polygon fill="white" stroke="transparent" points="-4,4 -4,-662 1385.1,-662 1385.1,4 -4,4"/>
<text text-anchor="middle" x="690.55" y="-630" font-family="Times,serif" font-size="30.00">Dependencies</text>
<text text-anchor="middle" x="690.55" y="-597" font-family="Times,serif" font-size="30.00"> </text>
<!-- :shared:feature:licenses -->
<g id="node1" class="node">
<title>:shared:feature:licenses</title>
<polygon fill="#b59aff" stroke="black" points="188,-584 0,-584 0,-548 188,-548 188,-584"/>
<text text-anchor="middle" x="94" y="-562.3" font-family="Times,serif" font-size="14.00">:shared:feature:licenses</text>
</g>
<!-- :ui:common -->
<g id="node2" class="node">
<title>:ui:common</title>
<ellipse fill="#b59aff" stroke="black" cx="662" cy="-429" rx="64.19" ry="18"/>
<text text-anchor="middle" x="662" y="-425.3" font-family="Times,serif" font-size="14.00">:ui:common</text>
</g>
<!-- :shared:feature:licenses&#45;&gt;:ui:common -->
<g id="edge1" class="edge">
<title>:shared:feature:licenses&#45;&gt;:ui:common</title>
<path fill="none" stroke="black" stroke-dasharray="1,5" d="M174.08,-547.8C174.08,-512.69 174.08,-439 174.08,-439 174.08,-439 598.39,-439 598.39,-439"/>
<polygon fill="black" stroke="black" points="598.39,-442.5 608.39,-439 598.39,-435.5 598.39,-442.5"/>
</g>
<!-- :ui:core -->
<g id="node3" class="node">
<title>:ui:core</title>
<ellipse fill="#b59aff" stroke="black" cx="257" cy="-155" rx="45.49" ry="18"/>
<text text-anchor="middle" x="257" y="-151.3" font-family="Times,serif" font-size="14.00">:ui:core</text>
</g>
<!-- :shared:feature:licenses&#45;&gt;:ui:core -->
<g id="edge2" class="edge">
<title>:shared:feature:licenses&#45;&gt;:ui:core</title>
<path fill="none" stroke="black" stroke-dasharray="1,5" d="M141.58,-547.81C141.58,-469.01 141.58,-161 141.58,-161 141.58,-161 204.02,-161 204.02,-161"/>
<polygon fill="black" stroke="black" points="204.02,-164.5 214.02,-161 204.02,-157.5 204.02,-164.5"/>
</g>
<!-- :strings -->
<g id="node4" class="node">
<title>:strings</title>
<ellipse fill="#b59aff" stroke="black" cx="132" cy="-18" rx="46.29" ry="18"/>
<text text-anchor="middle" x="132" y="-14.3" font-family="Times,serif" font-size="14.00">:strings</text>
</g>
<!-- :shared:feature:licenses&#45;&gt;:strings -->
<g id="edge3" class="edge">
<title>:shared:feature:licenses&#45;&gt;:strings</title>
<path fill="none" stroke="black" stroke-dasharray="1,5" d="M104.43,-547.77C104.43,-547.77 104.43,-42.59 104.43,-42.59"/>
<polygon fill="black" stroke="black" points="107.93,-42.59 104.43,-32.59 100.93,-42.59 107.93,-42.59"/>
</g>
<!-- :ui:common&#45;&gt;:ui:core -->
<g id="edge13" class="edge">
<title>:ui:common&#45;&gt;:ui:core</title>
<path fill="none" stroke="black" stroke-dasharray="1,5" d="M699.28,-413.95C699.28,-355.79 699.28,-149 699.28,-149 699.28,-149 310.21,-149 310.21,-149"/>
<polygon fill="black" stroke="black" points="310.21,-145.5 300.21,-149 310.21,-152.5 310.21,-145.5"/>
</g>
<!-- :ui:common&#45;&gt;:strings -->
<g id="edge12" class="edge">
<title>:ui:common&#45;&gt;:strings</title>
<path fill="none" stroke="black" stroke-dasharray="1,5" d="M598.32,-432C455.69,-432 123.01,-432 123.01,-432 123.01,-432 123.01,-45.79 123.01,-45.79"/>
<polygon fill="black" stroke="black" points="126.51,-45.79 123.01,-35.79 119.51,-45.79 126.51,-45.79"/>
</g>
<!-- :ui:test:image -->
<g id="node5" class="node">
<title>:ui:test:image</title>
<ellipse fill="#9affb5" stroke="black" cx="611" cy="-292" rx="74.99" ry="18"/>
<text text-anchor="middle" x="611" y="-288.3" font-family="Times,serif" font-size="14.00">:ui:test:image</text>
</g>
<!-- :ui:common&#45;&gt;:ui:test:image -->
<g id="edge4" class="edge">
<title>:ui:common&#45;&gt;:ui:test:image</title>
<path fill="none" stroke="#ff9ab1" stroke-dasharray="1,5" d="M641.7,-411.65C641.7,-411.65 641.7,-318.78 641.7,-318.78"/>
<polygon fill="#ff9ab1" stroke="#ff9ab1" points="645.2,-318.78 641.7,-308.78 638.2,-318.78 645.2,-318.78"/>
</g>
<!-- :ui:test:screenshot -->
<g id="node6" class="node">
<title>:ui:test:screenshot</title>
<ellipse fill="#9affb5" stroke="black" cx="257" cy="-292" rx="96.68" ry="18"/>
<text text-anchor="middle" x="257" y="-288.3" font-family="Times,serif" font-size="14.00">:ui:test:screenshot</text>
</g>
<!-- :ui:common&#45;&gt;:ui:test:screenshot -->
<g id="edge5" class="edge">
<title>:ui:common&#45;&gt;:ui:test:screenshot</title>
<path fill="none" stroke="#ff9ab1" stroke-dasharray="1,5" d="M599.17,-425C488.62,-425 270.92,-425 270.92,-425 270.92,-425 270.92,-319.94 270.92,-319.94"/>
<polygon fill="#ff9ab1" stroke="#ff9ab1" points="274.42,-319.94 270.92,-309.94 267.42,-319.94 274.42,-319.94"/>
</g>
<!-- :core:models -->
<g id="node7" class="node">
<title>:core:models</title>
<ellipse fill="#b59aff" stroke="black" cx="994" cy="-18" rx="69.59" ry="18"/>
<text text-anchor="middle" x="994" y="-14.3" font-family="Times,serif" font-size="14.00">:core:models</text>
</g>
<!-- :ui:common&#45;&gt;:core:models -->
<g id="edge6" class="edge">
<title>:ui:common&#45;&gt;:core:models</title>
<path fill="none" stroke="black" d="M709.99,-417C788.91,-417 937.49,-417 937.49,-417 937.49,-417 937.49,-38.67 937.49,-38.67"/>
<polygon fill="black" stroke="black" points="940.99,-38.67 937.49,-28.67 933.99,-38.67 940.99,-38.67"/>
</g>
<!-- :data:coverart -->
<g id="node8" class="node">
<title>:data:coverart</title>
<ellipse fill="#b59aff" stroke="black" cx="1263" cy="-292" rx="76.09" ry="18"/>
<text text-anchor="middle" x="1263" y="-288.3" font-family="Times,serif" font-size="14.00">:data:coverart</text>
</g>
<!-- :ui:common&#45;&gt;:data:coverart -->
<g id="edge7" class="edge">
<title>:ui:common&#45;&gt;:data:coverart</title>
<path fill="none" stroke="black" stroke-dasharray="1,5" d="M722.93,-435C875.73,-435 1263,-435 1263,-435 1263,-435 1263,-320.11 1263,-320.11"/>
<polygon fill="black" stroke="black" points="1266.5,-320.11 1263,-310.11 1259.5,-320.11 1266.5,-320.11"/>
</g>
<!-- :data:musicbrainz -->
<g id="node9" class="node">
<title>:data:musicbrainz</title>
<ellipse fill="#b59aff" stroke="black" cx="1037" cy="-292" rx="93.68" ry="18"/>
<text text-anchor="middle" x="1037" y="-288.3" font-family="Times,serif" font-size="14.00">:data:musicbrainz</text>
</g>
<!-- :ui:common&#45;&gt;:data:musicbrainz -->
<g id="edge8" class="edge">
<title>:ui:common&#45;&gt;:data:musicbrainz</title>
<path fill="none" stroke="black" stroke-dasharray="1,5" d="M722.67,-423C828.8,-423 1037,-423 1037,-423 1037,-423 1037,-320.21 1037,-320.21"/>
<polygon fill="black" stroke="black" points="1040.5,-320.21 1037,-310.21 1033.5,-320.22 1040.5,-320.21"/>
</g>
<!-- :core:preferences -->
<g id="node10" class="node">
<title>:core:preferences</title>
<ellipse fill="#b59aff" stroke="black" cx="834" cy="-292" rx="91.78" ry="18"/>
<text text-anchor="middle" x="834" y="-288.3" font-family="Times,serif" font-size="14.00">:core:preferences</text>
</g>
<!-- :ui:common&#45;&gt;:core:preferences -->
<g id="edge9" class="edge">
<title>:ui:common&#45;&gt;:core:preferences</title>
<path fill="none" stroke="black" stroke-dasharray="1,5" d="M712.81,-417.79C712.81,-385.07 712.81,-292 712.81,-292 712.81,-292 732.15,-292 732.15,-292"/>
<polygon fill="black" stroke="black" points="732.15,-295.5 742.15,-292 732.15,-288.5 732.15,-295.5"/>
</g>
<!-- :core:logging:api -->
<g id="node11" class="node">
<title>:core:logging:api</title>
<ellipse fill="#b59aff" stroke="black" cx="1141" cy="-155" rx="88.28" ry="18"/>
<text text-anchor="middle" x="1141" y="-151.3" font-family="Times,serif" font-size="14.00">:core:logging:api</text>
</g>
<!-- :ui:common&#45;&gt;:core:logging:api -->
<g id="edge10" class="edge">
<title>:ui:common&#45;&gt;:core:logging:api</title>
<path fill="none" stroke="black" stroke-dasharray="1,5" d="M726.44,-429C860.85,-429 1158.77,-429 1158.77,-429 1158.77,-429 1158.77,-182.98 1158.77,-182.98"/>
<polygon fill="black" stroke="black" points="1162.27,-182.98 1158.77,-172.98 1155.27,-182.98 1162.27,-182.98"/>
</g>
<!-- :domain -->
<g id="node12" class="node">
<title>:domain</title>
<ellipse fill="#b59aff" stroke="black" cx="1333" cy="-155" rx="48.19" ry="18"/>
<text text-anchor="middle" x="1333" y="-151.3" font-family="Times,serif" font-size="14.00">:domain</text>
</g>
<!-- :ui:common&#45;&gt;:domain -->
<g id="edge11" class="edge">
<title>:ui:common&#45;&gt;:domain</title>
<path fill="none" stroke="black" stroke-dasharray="1,5" d="M709.98,-441C867.69,-441 1360.07,-441 1360.07,-441 1360.07,-441 1360.07,-179.97 1360.07,-179.97"/>
<polygon fill="black" stroke="black" points="1363.57,-179.97 1360.07,-169.97 1356.57,-179.97 1363.57,-179.97"/>
</g>
<!-- :ui:image -->
<g id="node13" class="node">
<title>:ui:image</title>
<ellipse fill="#b59aff" stroke="black" cx="464" cy="-292" rx="53.89" ry="18"/>
<text text-anchor="middle" x="464" y="-288.3" font-family="Times,serif" font-size="14.00">:ui:image</text>
</g>
<!-- :ui:common&#45;&gt;:ui:image -->
<g id="edge14" class="edge">
<title>:ui:common&#45;&gt;:ui:image</title>
<path fill="none" stroke="black" stroke-dasharray="1,5" d="M611.01,-418C552.34,-418 464,-418 464,-418 464,-418 464,-320.05 464,-320.05"/>
<polygon fill="black" stroke="black" points="467.5,-320.05 464,-310.05 460.5,-320.05 467.5,-320.05"/>
</g>
<!-- :ui:core&#45;&gt;:strings -->
<g id="edge15" class="edge">
<title>:ui:core&#45;&gt;:strings</title>
<path fill="none" stroke="black" d="M214.11,-149C191.81,-149 169.15,-149 169.15,-149 169.15,-149 169.15,-38.72 169.15,-38.72"/>
<polygon fill="black" stroke="black" points="172.65,-38.72 169.15,-28.72 165.65,-38.72 172.65,-38.72"/>
</g>
<!-- :ui:test:screenshot&#45;&gt;:ui:core -->
<g id="edge16" class="edge">
<title>:ui:test:screenshot&#45;&gt;:ui:core</title>
<path fill="none" stroke="black" stroke-dasharray="1,5" d="M257,-273.81C257,-273.81 257,-183.27 257,-183.27"/>
<polygon fill="black" stroke="black" points="260.5,-183.27 257,-173.27 253.5,-183.27 260.5,-183.27"/>
</g>
<!-- :data:coverart&#45;&gt;:core:models -->
<g id="edge18" class="edge">
<title>:data:coverart&#45;&gt;:core:models</title>
<path fill="none" stroke="black" stroke-dasharray="1,5" d="M1257.15,-274C1257.15,-213.91 1257.15,-24 1257.15,-24 1257.15,-24 1069.72,-24 1069.72,-24"/>
<polygon fill="black" stroke="black" points="1069.72,-20.5 1059.72,-24 1069.72,-27.5 1069.72,-20.5"/>
</g>
<!-- :data:coverart&#45;&gt;:core:logging:api -->
<g id="edge17" class="edge">
<title>:data:coverart&#45;&gt;:core:logging:api</title>
<path fill="none" stroke="black" stroke-dasharray="1,5" d="M1208.17,-279.36C1208.17,-279.36 1208.17,-176.83 1208.17,-176.83"/>
<polygon fill="black" stroke="black" points="1211.67,-176.83 1208.17,-166.83 1204.67,-176.83 1211.67,-176.83"/>
</g>
<!-- :data:coverart&#45;&gt;:domain -->
<g id="edge19" class="edge">
<title>:data:coverart&#45;&gt;:domain</title>
<path fill="none" stroke="black" stroke-dasharray="1,5" d="M1311.97,-278.11C1311.97,-278.11 1311.97,-181.46 1311.97,-181.46"/>
<polygon fill="black" stroke="black" points="1315.47,-181.46 1311.97,-171.46 1308.47,-181.46 1315.47,-181.46"/>
</g>
<!-- :data:musicbrainz&#45;&gt;:core:models -->
<g id="edge21" class="edge">
<title>:data:musicbrainz&#45;&gt;:core:models</title>
<path fill="none" stroke="black" stroke-dasharray="1,5" d="M998.01,-275.27C998.01,-275.27 998.01,-46.28 998.01,-46.28"/>
<polygon fill="black" stroke="black" points="1001.51,-46.28 998.01,-36.28 994.51,-46.28 1001.51,-46.28"/>
</g>
<!-- :data:musicbrainz&#45;&gt;:core:logging:api -->
<g id="edge20" class="edge">
<title>:data:musicbrainz&#45;&gt;:core:logging:api</title>
<path fill="none" stroke="black" stroke-dasharray="1,5" d="M1091.6,-277.34C1091.6,-277.34 1091.6,-179.97 1091.6,-179.97"/>
<polygon fill="black" stroke="black" points="1095.1,-179.97 1091.6,-169.97 1088.1,-179.97 1095.1,-179.97"/>
</g>
<!-- :core:preferences&#45;&gt;:core:models -->
<g id="edge23" class="edge">
<title>:core:preferences&#45;&gt;:core:models</title>
<path fill="none" stroke="black" stroke-dasharray="1,5" d="M925.75,-292C929.41,-292 931.56,-292 931.56,-292 931.56,-292 931.56,-36.2 931.56,-36.2"/>
<polygon fill="black" stroke="black" points="935.06,-36.2 931.56,-26.2 928.06,-36.2 935.06,-36.2"/>
</g>
<!-- :core:coroutines -->
<g id="node14" class="node">
<title>:core:coroutines</title>
<ellipse fill="#b59aff" stroke="black" cx="834" cy="-155" rx="85.29" ry="18"/>
<text text-anchor="middle" x="834" y="-151.3" font-family="Times,serif" font-size="14.00">:core:coroutines</text>
</g>
<!-- :core:preferences&#45;&gt;:core:coroutines -->
<g id="edge22" class="edge">
<title>:core:preferences&#45;&gt;:core:coroutines</title>
<path fill="none" stroke="black" stroke-dasharray="1,5" d="M834,-273.81C834,-273.81 834,-183.27 834,-183.27"/>
<polygon fill="black" stroke="black" points="837.5,-183.27 834,-173.27 830.5,-183.27 837.5,-183.27"/>
</g>
<!-- :domain&#45;&gt;:core:models -->
<g id="edge24" class="edge">
<title>:domain&#45;&gt;:core:models</title>
<path fill="none" stroke="black" stroke-dasharray="1,5" d="M1333,-136.89C1333,-98.41 1333,-12 1333,-12 1333,-12 1069.76,-12 1069.76,-12"/>
<polygon fill="black" stroke="black" points="1069.76,-8.5 1059.76,-12 1069.76,-15.5 1069.76,-8.5"/>
</g>
<!-- :ui:image&#45;&gt;:ui:core -->
<g id="edge26" class="edge">
<title>:ui:image&#45;&gt;:ui:core</title>
<path fill="none" stroke="black" stroke-dasharray="1,5" d="M446.02,-274.87C446.02,-239.36 446.02,-161 446.02,-161 446.02,-161 310.36,-161 310.36,-161"/>
<polygon fill="black" stroke="black" points="310.36,-157.5 300.36,-161 310.36,-164.5 310.36,-157.5"/>
</g>
<!-- :ui:image&#45;&gt;:core:models -->
<g id="edge25" class="edge">
<title>:ui:image&#45;&gt;:core:models</title>
<path fill="none" stroke="black" stroke-dasharray="1,5" d="M481.98,-274.86C481.98,-214.87 481.98,-18 481.98,-18 481.98,-18 914.41,-18 914.41,-18"/>
<polygon fill="black" stroke="black" points="914.41,-21.5 924.41,-18 914.41,-14.5 914.41,-21.5"/>
</g>
</g>
</svg>
