<?xml version="1.0" encoding="UTF-8" standalone="no"?>
<!DOCTYPE svg PUBLIC "-//W3C//DTD SVG 1.1//EN"
 "http://www.w3.org/Graphics/SVG/1.1/DTD/svg11.dtd">
<!-- Generated by graphviz version 2.43.0 (0)
 -->
<!-- Title: %3 Pages: 1 -->
<svg width="1112pt" height="666pt"
 viewBox="0.00 0.00 1112.38 666.00" xmlns="http://www.w3.org/2000/svg" xmlns:xlink="http://www.w3.org/1999/xlink">
<g id="graph0" class="graph" transform="scale(1 1) rotate(0) translate(4 662)">
<title>%3</title>
<polygon fill="white" stroke="transparent" points="-4,4 -4,-662 1108.38,-662 1108.38,4 -4,4"/>
<text text-anchor="middle" x="552.19" y="-630" font-family="Times,serif" font-size="30.00">Dependencies</text>
<text text-anchor="middle" x="552.19" y="-597" font-family="Times,serif" font-size="30.00"> </text>
<!-- :shared:feature:licenses -->
<g id="node1" class="node">
<title>:shared:feature:licenses</title>
<polygon fill="#b59aff" stroke="black" points="681.84,-584 493.84,-584 493.84,-548 681.84,-548 681.84,-584"/>
<text text-anchor="middle" x="587.84" y="-562.3" font-family="Times,serif" font-size="14.00">:shared:feature:licenses</text>
</g>
<!-- :ui:common -->
<g id="node2" class="node">
<title>:ui:common</title>
<ellipse fill="#b59aff" stroke="black" cx="587.84" cy="-429" rx="64.19" ry="18"/>
<text text-anchor="middle" x="587.84" y="-425.3" font-family="Times,serif" font-size="14.00">:ui:common</text>
</g>
<!-- :shared:feature:licenses&#45;&gt;:ui:common -->
<g id="edge1" class="edge">
<title>:shared:feature:licenses&#45;&gt;:ui:common</title>
<path fill="none" stroke="black" stroke-dasharray="1,5" d="M587.84,-547.81C587.84,-547.81 587.84,-457.27 587.84,-457.27"/>
<polygon fill="black" stroke="black" points="591.34,-457.27 587.84,-447.27 584.34,-457.27 591.34,-457.27"/>
</g>
<!-- :ui:test:screenshot -->
<g id="node3" class="node">
<title>:ui:test:screenshot</title>
<ellipse fill="#9affb5" stroke="black" cx="96.84" cy="-292" rx="96.68" ry="18"/>
<text text-anchor="middle" x="96.84" y="-288.3" font-family="Times,serif" font-size="14.00">:ui:test:screenshot</text>
</g>
<!-- :ui:common&#45;&gt;:ui:test:screenshot -->
<g id="edge2" class="edge">
<title>:ui:common&#45;&gt;:ui:test:screenshot</title>
<path fill="none" stroke="#ff9ab1" stroke-dasharray="1,5" d="M532,-438C403.3,-438 96.84,-438 96.84,-438 96.84,-438 96.84,-320.2 96.84,-320.2"/>
<polygon fill="#ff9ab1" stroke="#ff9ab1" points="100.34,-320.2 96.84,-310.2 93.34,-320.2 100.34,-320.2"/>
</g>
<!-- :core:models -->
<g id="node4" class="node">
<title>:core:models</title>
<ellipse fill="#b59aff" stroke="black" cx="623.84" cy="-18" rx="69.59" ry="18"/>
<text text-anchor="middle" x="623.84" y="-14.3" font-family="Times,serif" font-size="14.00">:core:models</text>
</g>
<!-- :ui:common&#45;&gt;:core:models -->
<g id="edge3" class="edge">
<title>:ui:common&#45;&gt;:core:models</title>
<path fill="none" stroke="black" d="M588.12,-410.81C588.12,-410.81 588.12,-43.73 588.12,-43.73"/>
<polygon fill="black" stroke="black" points="591.62,-43.73 588.12,-33.73 584.62,-43.73 591.62,-43.73"/>
</g>
<!-- :ui:core -->
<g id="node5" class="node">
<title>:ui:core</title>
<ellipse fill="#b59aff" stroke="black" cx="222.84" cy="-155" rx="45.49" ry="18"/>
<text text-anchor="middle" x="222.84" y="-151.3" font-family="Times,serif" font-size="14.00">:ui:core</text>
</g>
<!-- :ui:common&#45;&gt;:ui:core -->
<g id="edge4" class="edge">
<title>:ui:common&#45;&gt;:ui:core</title>
<path fill="none" stroke="black" d="M523.24,-429C418.16,-429 221.79,-429 221.79,-429 221.79,-429 221.79,-183.4 221.79,-183.4"/>
<polygon fill="black" stroke="black" points="225.29,-183.4 221.79,-173.4 218.29,-183.4 225.29,-183.4"/>
</g>
<!-- :data:coverart -->
<g id="node6" class="node">
<title>:data:coverart</title>
<ellipse fill="#b59aff" stroke="black" cx="935.84" cy="-292" rx="76.09" ry="18"/>
<text text-anchor="middle" x="935.84" y="-288.3" font-family="Times,serif" font-size="14.00">:data:coverart</text>
</g>
<!-- :ui:common&#45;&gt;:data:coverart -->
<g id="edge5" class="edge">
<title>:ui:common&#45;&gt;:data:coverart</title>
<path fill="none" stroke="black" stroke-dasharray="1,5" d="M648.86,-423C748.66,-423 935.84,-423 935.84,-423 935.84,-423 935.84,-320.21 935.84,-320.21"/>
<polygon fill="black" stroke="black" points="939.34,-320.21 935.84,-310.21 932.34,-320.22 939.34,-320.21"/>
</g>
<!-- :data:musicbrainz -->
<g id="node7" class="node">
<title>:data:musicbrainz</title>
<ellipse fill="#b59aff" stroke="black" cx="709.84" cy="-292" rx="93.68" ry="18"/>
<text text-anchor="middle" x="709.84" y="-288.3" font-family="Times,serif" font-size="14.00">:data:musicbrainz</text>
</g>
<!-- :ui:common&#45;&gt;:data:musicbrainz -->
<g id="edge6" class="edge">
<title>:ui:common&#45;&gt;:data:musicbrainz</title>
<path fill="none" stroke="black" stroke-dasharray="1,5" d="M634.22,-416.36C634.22,-416.36 634.22,-312.69 634.22,-312.69"/>
<polygon fill="black" stroke="black" points="637.72,-312.69 634.22,-302.69 630.72,-312.69 637.72,-312.69"/>
</g>
<!-- :core:preferences -->
<g id="node8" class="node">
<title>:core:preferences</title>
<ellipse fill="#b59aff" stroke="black" cx="467.84" cy="-292" rx="91.78" ry="18"/>
<text text-anchor="middle" x="467.84" y="-288.3" font-family="Times,serif" font-size="14.00">:core:preferences</text>
</g>
<!-- :ui:common&#45;&gt;:core:preferences -->
<g id="edge7" class="edge">
<title>:ui:common&#45;&gt;:core:preferences</title>
<path fill="none" stroke="black" stroke-dasharray="1,5" d="M541.49,-416.36C541.49,-416.36 541.49,-313.07 541.49,-313.07"/>
<polygon fill="black" stroke="black" points="544.99,-313.07 541.49,-303.07 537.99,-313.07 544.99,-313.07"/>
</g>
<!-- :core:logging:api -->
<g id="node9" class="node">
<title>:core:logging:api</title>
<ellipse fill="#b59aff" stroke="black" cx="794.84" cy="-155" rx="88.28" ry="18"/>
<text text-anchor="middle" x="794.84" y="-151.3" font-family="Times,serif" font-size="14.00">:core:logging:api</text>
</g>
<!-- :ui:common&#45;&gt;:core:logging:api -->
<g id="edge8" class="edge">
<title>:ui:common&#45;&gt;:core:logging:api</title>
<path fill="none" stroke="black" stroke-dasharray="1,5" d="M602.18,-411.44C602.18,-350.97 602.18,-155 602.18,-155 602.18,-155 696.41,-155 696.41,-155"/>
<polygon fill="black" stroke="black" points="696.41,-158.5 706.41,-155 696.41,-151.5 696.41,-158.5"/>
</g>
<!-- :shared:domain -->
<g id="node10" class="node">
<title>:shared:domain</title>
<ellipse fill="#b59aff" stroke="black" cx="1021.84" cy="-155" rx="82.59" ry="18"/>
<text text-anchor="middle" x="1021.84" y="-151.3" font-family="Times,serif" font-size="14.00">:shared:domain</text>
</g>
<!-- :ui:common&#45;&gt;:shared:domain -->
<g id="edge9" class="edge">
<title>:ui:common&#45;&gt;:shared:domain</title>
<path fill="none" stroke="black" stroke-dasharray="1,5" d="M648.84,-435C776.09,-435 1058.13,-435 1058.13,-435 1058.13,-435 1058.13,-181.26 1058.13,-181.26"/>
<polygon fill="black" stroke="black" points="1061.63,-181.26 1058.13,-171.26 1054.63,-181.26 1061.63,-181.26"/>
</g>
<!-- :ui:image -->
<g id="node11" class="node">
<title>:ui:image</title>
<ellipse fill="#b59aff" stroke="black" cx="303.84" cy="-292" rx="53.89" ry="18"/>
<text text-anchor="middle" x="303.84" y="-288.3" font-family="Times,serif" font-size="14.00">:ui:image</text>
</g>
<!-- :ui:common&#45;&gt;:ui:image -->
<g id="edge10" class="edge">
<title>:ui:common&#45;&gt;:ui:image</title>
<path fill="none" stroke="black" stroke-dasharray="1,5" d="M532.07,-420C449.36,-420 303.84,-420 303.84,-420 303.84,-420 303.84,-320.07 303.84,-320.07"/>
<polygon fill="black" stroke="black" points="307.34,-320.07 303.84,-310.07 300.34,-320.07 307.34,-320.07"/>
</g>
<!-- :ui:test:screenshot&#45;&gt;:ui:core -->
<g id="edge11" class="edge">
<title>:ui:test:screenshot&#45;&gt;:ui:core</title>
<path fill="none" stroke="black" stroke-dasharray="1,5" d="M185.51,-284.63C185.51,-284.63 185.51,-175.67 185.51,-175.67"/>
<polygon fill="black" stroke="black" points="189.01,-175.67 185.51,-165.67 182.01,-175.67 189.01,-175.67"/>
</g>
<!-- :test:image -->
<g id="node12" class="node">
<title>:test:image</title>
<ellipse fill="#9affb5" stroke="black" cx="95.84" cy="-155" rx="63.09" ry="18"/>
<text text-anchor="middle" x="95.84" y="-151.3" font-family="Times,serif" font-size="14.00">:test:image</text>
</g>
<!-- :ui:test:screenshot&#45;&gt;:test:image -->
<g id="edge12" class="edge">
<title>:ui:test:screenshot&#45;&gt;:test:image</title>
<path fill="none" stroke="black" stroke-dasharray="1,5" d="M95.84,-273.81C95.84,-273.81 95.84,-183.27 95.84,-183.27"/>
<polygon fill="black" stroke="black" points="99.34,-183.27 95.84,-173.27 92.34,-183.27 99.34,-183.27"/>
</g>
<!-- :shared:strings -->
<g id="node13" class="node">
<title>:shared:strings</title>
<ellipse fill="#b59aff" stroke="black" cx="222.84" cy="-18" rx="81.49" ry="18"/>
<text text-anchor="middle" x="222.84" y="-14.3" font-family="Times,serif" font-size="14.00">:shared:strings</text>
</g>
<!-- :ui:core&#45;&gt;:shared:strings -->
<g id="edge13" class="edge">
<title>:ui:core&#45;&gt;:shared:strings</title>
<path fill="none" stroke="black" d="M222.84,-136.81C222.84,-136.81 222.84,-46.27 222.84,-46.27"/>
<polygon fill="black" stroke="black" points="226.34,-46.27 222.84,-36.27 219.34,-46.27 226.34,-46.27"/>
</g>
<!-- :data:coverart&#45;&gt;:core:models -->
<g id="edge15" class="edge">
<title>:data:coverart&#45;&gt;:core:models</title>
<path fill="none" stroke="black" stroke-dasharray="1,5" d="M911.27,-274.83C911.27,-215.68 911.27,-24 911.27,-24 911.27,-24 699.42,-24 699.42,-24"/>
<polygon fill="black" stroke="black" points="699.42,-20.5 689.42,-24 699.42,-27.5 699.42,-20.5"/>
</g>
<!-- :data:coverart&#45;&gt;:core:logging:api -->
<g id="edge14" class="edge">
<title>:data:coverart&#45;&gt;:core:logging:api</title>
<path fill="none" stroke="black" stroke-dasharray="1,5" d="M871.52,-282.15C871.52,-282.15 871.52,-174.04 871.52,-174.04"/>
<polygon fill="black" stroke="black" points="875.02,-174.04 871.52,-164.04 868.02,-174.04 875.02,-174.04"/>
</g>
<!-- :data:coverart&#45;&gt;:shared:domain -->
<g id="edge16" class="edge">
<title>:data:coverart&#45;&gt;:shared:domain</title>
<path fill="none" stroke="black" stroke-dasharray="1,5" d="M975.59,-276.55C975.59,-276.55 975.59,-180.18 975.59,-180.18"/>
<polygon fill="black" stroke="black" points="979.09,-180.18 975.59,-170.18 972.09,-180.18 979.09,-180.18"/>
</g>
<!-- :data:musicbrainz&#45;&gt;:core:models -->
<g id="edge18" class="edge">
<title>:data:musicbrainz&#45;&gt;:core:models</title>
<path fill="none" stroke="black" stroke-dasharray="1,5" d="M654.82,-277.27C654.82,-277.27 654.82,-44.17 654.82,-44.17"/>
<polygon fill="black" stroke="black" points="658.32,-44.17 654.82,-34.17 651.32,-44.17 658.32,-44.17"/>
</g>
<!-- :data:musicbrainz&#45;&gt;:core:logging:api -->
<g id="edge17" class="edge">
<title>:data:musicbrainz&#45;&gt;:core:logging:api</title>
<path fill="none" stroke="black" stroke-dasharray="1,5" d="M754.94,-276.02C754.94,-276.02 754.94,-181.31 754.94,-181.31"/>
<polygon fill="black" stroke="black" points="758.44,-181.31 754.94,-171.31 751.44,-181.31 758.44,-181.31"/>
</g>
<!-- :core:preferences&#45;&gt;:core:models -->
<g id="edge20" class="edge">
<title>:core:preferences&#45;&gt;:core:models</title>
<path fill="none" stroke="black" stroke-dasharray="1,5" d="M559.73,-292C568.41,-292 574.05,-292 574.05,-292 574.05,-292 574.05,-40.85 574.05,-40.85"/>
<polygon fill="black" stroke="black" points="577.55,-40.85 574.05,-30.85 570.55,-40.85 577.55,-40.85"/>
</g>
<!-- :core:coroutines -->
<g id="node14" class="node">
<title>:core:coroutines</title>
<ellipse fill="#b59aff" stroke="black" cx="474.84" cy="-155" rx="85.29" ry="18"/>
<text text-anchor="middle" x="474.84" y="-151.3" font-family="Times,serif" font-size="14.00">:core:coroutines</text>
</g>
<!-- :core:preferences&#45;&gt;:core:coroutines -->
<g id="edge19" class="edge">
<title>:core:preferences&#45;&gt;:core:coroutines</title>
<path fill="none" stroke="black" stroke-dasharray="1,5" d="M474.59,-273.81C474.59,-273.81 474.59,-183.27 474.59,-183.27"/>
<polygon fill="black" stroke="black" points="478.09,-183.27 474.59,-173.27 471.09,-183.27 478.09,-183.27"/>
</g>
<!-- :shared:domain&#45;&gt;:core:models -->
<g id="edge21" class="edge">
<title>:shared:domain&#45;&gt;:core:models</title>
<path fill="none" stroke="black" stroke-dasharray="1,5" d="M1021.84,-136.89C1021.84,-98.41 1021.84,-12 1021.84,-12 1021.84,-12 699.56,-12 699.56,-12"/>
<polygon fill="black" stroke="black" points="699.56,-8.5 689.56,-12 699.56,-15.5 699.56,-8.5"/>
</g>
<!-- :ui:image&#45;&gt;:core:models -->
<g id="edge22" class="edge">
<title>:ui:image&#45;&gt;:core:models</title>
<path fill="none" stroke="black" stroke-dasharray="1,5" d="M330.94,-276.08C330.94,-217.61 330.94,-18 330.94,-18 330.94,-18 544.06,-18 544.06,-18"/>
<polygon fill="black" stroke="black" points="544.06,-21.5 554.06,-18 544.06,-14.5 544.06,-21.5"/>
</g>
<!-- :ui:image&#45;&gt;:ui:core -->
<g id="edge23" class="edge">
<title>:ui:image&#45;&gt;:ui:core</title>
<path fill="none" stroke="black" stroke-dasharray="1,5" d="M259.12,-281.7C259.12,-281.7 259.12,-176.18 259.12,-176.18"/>
<polygon fill="black" stroke="black" points="262.62,-176.18 259.12,-166.18 255.62,-176.18 262.62,-176.18"/>
</g>
</g>
</svg>
