<?xml version="1.0" encoding="UTF-8" standalone="no"?>
<!DOCTYPE svg PUBLIC "-//W3C//DTD SVG 1.1//EN"
 "http://www.w3.org/Graphics/SVG/1.1/DTD/svg11.dtd">
<!-- Generated by graphviz version 2.43.0 (0)
 -->
<!-- Title: %3 Pages: 1 -->
<svg width="830pt" height="803pt"
 viewBox="0.00 0.00 830.38 803.00" xmlns="http://www.w3.org/2000/svg" xmlns:xlink="http://www.w3.org/1999/xlink">
<g id="graph0" class="graph" transform="scale(1 1) rotate(0) translate(4 799)">
<title>%3</title>
<polygon fill="white" stroke="transparent" points="-4,4 -4,-799 826.38,-799 826.38,4 -4,4"/>
<text text-anchor="middle" x="411.19" y="-767" font-family="Times,serif" font-size="30.00">Dependencies</text>
<text text-anchor="middle" x="411.19" y="-734" font-family="Times,serif" font-size="30.00"> </text>
<!-- :shared:feature:licenses -->
<g id="node1" class="node">
<title>:shared:feature:licenses</title>
<polygon fill="#b59aff" stroke="black" points="656.54,-721 468.54,-721 468.54,-685 656.54,-685 656.54,-721"/>
<text text-anchor="middle" x="562.54" y="-699.3" font-family="Times,serif" font-size="14.00">:shared:feature:licenses</text>
</g>
<!-- :ui:common -->
<g id="node2" class="node">
<title>:ui:common</title>
<ellipse fill="#b59aff" stroke="black" cx="562.54" cy="-566" rx="64.19" ry="18"/>
<text text-anchor="middle" x="562.54" y="-562.3" font-family="Times,serif" font-size="14.00">:ui:common</text>
</g>
<!-- :shared:feature:licenses&#45;&gt;:ui:common -->
<g id="edge1" class="edge">
<title>:shared:feature:licenses&#45;&gt;:ui:common</title>
<path fill="none" stroke="black" stroke-dasharray="1,5" d="M562.54,-684.81C562.54,-684.81 562.54,-594.27 562.54,-594.27"/>
<polygon fill="black" stroke="black" points="566.04,-594.27 562.54,-584.27 559.04,-594.27 566.04,-594.27"/>
</g>
<!-- :test&#45;data -->
<g id="node3" class="node">
<title>:test&#45;data</title>
<ellipse fill="#b59aff" stroke="black" cx="295.54" cy="-429" rx="55.49" ry="18"/>
<text text-anchor="middle" x="295.54" y="-425.3" font-family="Times,serif" font-size="14.00">:test&#45;data</text>
</g>
<!-- :ui:common&#45;&gt;:test&#45;data -->
<g id="edge2" class="edge">
<title>:ui:common&#45;&gt;:test&#45;data</title>
<path fill="none" stroke="#ff9ab1" stroke-dasharray="1,5" d="M516.39,-553.44C516.39,-520.65 516.39,-435 516.39,-435 516.39,-435 357.88,-435 357.88,-435"/>
<polygon fill="#ff9ab1" stroke="#ff9ab1" points="357.88,-431.5 347.88,-435 357.88,-438.5 357.88,-431.5"/>
</g>
<!-- :ui:test:screenshot -->
<g id="node4" class="node">
<title>:ui:test:screenshot</title>
<ellipse fill="#b59aff" stroke="black" cx="725.54" cy="-429" rx="96.68" ry="18"/>
<text text-anchor="middle" x="725.54" y="-425.3" font-family="Times,serif" font-size="14.00">:ui:test:screenshot</text>
</g>
<!-- :ui:common&#45;&gt;:ui:test:screenshot -->
<g id="edge3" class="edge">
<title>:ui:common&#45;&gt;:ui:test:screenshot</title>
<path fill="none" stroke="#ff9ab1" stroke-dasharray="1,5" d="M627.18,-566C636.29,-566 642.62,-566 642.62,-566 642.62,-566 642.62,-448.42 642.62,-448.42"/>
<polygon fill="#ff9ab1" stroke="#ff9ab1" points="646.12,-448.42 642.62,-438.42 639.12,-448.42 646.12,-448.42"/>
</g>
<!-- :test:image -->
<g id="node5" class="node">
<title>:test:image</title>
<ellipse fill="#b59aff" stroke="black" cx="689.54" cy="-292" rx="63.09" ry="18"/>
<text text-anchor="middle" x="689.54" y="-288.3" font-family="Times,serif" font-size="14.00">:test:image</text>
</g>
<!-- :ui:common&#45;&gt;:test:image -->
<g id="edge4" class="edge">
<title>:ui:common&#45;&gt;:test:image</title>
<path fill="none" stroke="black" stroke-dasharray="1,5" d="M580.54,-548.42C580.54,-488.79 580.54,-298 580.54,-298 580.54,-298 619.94,-298 619.94,-298"/>
<polygon fill="black" stroke="black" points="619.94,-301.5 629.94,-298 619.94,-294.5 619.94,-301.5"/>
</g>
<!-- :shared:domain -->
<g id="node6" class="node">
<title>:shared:domain</title>
<ellipse fill="#b59aff" stroke="black" cx="82.54" cy="-18" rx="82.59" ry="18"/>
<text text-anchor="middle" x="82.54" y="-14.3" font-family="Times,serif" font-size="14.00">:shared:domain</text>
</g>
<!-- :ui:common&#45;&gt;:shared:domain -->
<g id="edge5" class="edge">
<title>:ui:common&#45;&gt;:shared:domain</title>
<path fill="none" stroke="black" d="M501.87,-572C357.49,-572 5.49,-572 5.49,-572 5.49,-572 5.49,-34.61 5.49,-34.61"/>
<polygon fill="black" stroke="black" points="8.99,-34.61 5.49,-24.61 1.99,-34.61 8.99,-34.61"/>
</g>
<!-- :core:logging:api -->
<g id="node7" class="node">
<title>:core:logging:api</title>
<ellipse fill="#b59aff" stroke="black" cx="327.54" cy="-18" rx="88.28" ry="18"/>
<text text-anchor="middle" x="327.54" y="-14.3" font-family="Times,serif" font-size="14.00">:core:logging:api</text>
</g>
<!-- :ui:common&#45;&gt;:core:logging:api -->
<g id="edge6" class="edge">
<title>:ui:common&#45;&gt;:core:logging:api</title>
<path fill="none" stroke="black" stroke-dasharray="1,5" d="M501.68,-560C446.4,-560 373.47,-560 373.47,-560 373.47,-560 373.47,-43.64 373.47,-43.64"/>
<polygon fill="black" stroke="black" points="376.97,-43.64 373.47,-33.64 369.97,-43.64 376.97,-43.64"/>
</g>
<!-- :test&#45;data&#45;&gt;:shared:domain -->
<g id="edge7" class="edge">
<title>:test&#45;data&#45;&gt;:shared:domain</title>
<path fill="none" stroke="black" stroke-dasharray="1,5" d="M243.35,-435C161.2,-435 10.98,-435 10.98,-435 10.98,-435 10.98,-37.1 10.98,-37.1"/>
<polygon fill="black" stroke="black" points="14.48,-37.1 10.98,-27.1 7.48,-37.1 14.48,-37.1"/>
</g>
<!-- :data:database -->
<g id="node8" class="node">
<title>:data:database</title>
<ellipse fill="#b59aff" stroke="black" cx="115.54" cy="-292" rx="79.09" ry="18"/>
<text text-anchor="middle" x="115.54" y="-288.3" font-family="Times,serif" font-size="14.00">:data:database</text>
</g>
<!-- :test&#45;data&#45;&gt;:data:database -->
<g id="edge8" class="edge">
<title>:test&#45;data&#45;&gt;:data:database</title>
<path fill="none" stroke="black" stroke-dasharray="1,5" d="M267.92,-413.15C267.92,-375.92 267.92,-286 267.92,-286 267.92,-286 200.39,-286 200.39,-286"/>
<polygon fill="black" stroke="black" points="200.39,-282.5 190.39,-286 200.39,-289.5 200.39,-282.5"/>
</g>
<!-- :data:musicbrainz -->
<g id="node9" class="node">
<title>:data:musicbrainz</title>
<ellipse fill="#b59aff" stroke="black" cx="115.54" cy="-155" rx="93.68" ry="18"/>
<text text-anchor="middle" x="115.54" y="-151.3" font-family="Times,serif" font-size="14.00">:data:musicbrainz</text>
</g>
<!-- :test&#45;data&#45;&gt;:data:musicbrainz -->
<g id="edge9" class="edge">
<title>:test&#45;data&#45;&gt;:data:musicbrainz</title>
<path fill="none" stroke="black" stroke-dasharray="1,5" d="M243.29,-423C221.86,-423 201.99,-423 201.99,-423 201.99,-423 201.99,-172.17 201.99,-172.17"/>
<polygon fill="black" stroke="black" points="205.49,-172.17 201.99,-162.17 198.49,-172.17 205.49,-172.17"/>
</g>
<!-- :data:coverart -->
<g id="node10" class="node">
<title>:data:coverart</title>
<ellipse fill="#b59aff" stroke="black" cx="458.54" cy="-155" rx="76.09" ry="18"/>
<text text-anchor="middle" x="458.54" y="-151.3" font-family="Times,serif" font-size="14.00">:data:coverart</text>
</g>
<!-- :test&#45;data&#45;&gt;:data:coverart -->
<g id="edge10" class="edge">
<title>:test&#45;data&#45;&gt;:data:coverart</title>
<path fill="none" stroke="black" stroke-dasharray="1,5" d="M347.66,-423C383.82,-423 425.52,-423 425.52,-423 425.52,-423 425.52,-181.36 425.52,-181.36"/>
<polygon fill="black" stroke="black" points="429.02,-181.36 425.52,-171.36 422.02,-181.36 429.02,-181.36"/>
</g>
<!-- :data:spotify -->
<g id="node11" class="node">
<title>:data:spotify</title>
<ellipse fill="#b59aff" stroke="black" cx="295.54" cy="-155" rx="68.79" ry="18"/>
<text text-anchor="middle" x="295.54" y="-151.3" font-family="Times,serif" font-size="14.00">:data:spotify</text>
</g>
<!-- :test&#45;data&#45;&gt;:data:spotify -->
<g id="edge11" class="edge">
<title>:test&#45;data&#45;&gt;:data:spotify</title>
<path fill="none" stroke="black" stroke-dasharray="1,5" d="M295.54,-410.6C295.54,-410.6 295.54,-183.32 295.54,-183.32"/>
<polygon fill="black" stroke="black" points="299.04,-183.32 295.54,-173.32 292.04,-183.32 299.04,-183.32"/>
</g>
<!-- :ui:test:screenshot&#45;&gt;:test:image -->
<g id="edge12" class="edge">
<title>:ui:test:screenshot&#45;&gt;:test:image</title>
<path fill="none" stroke="black" stroke-dasharray="1,5" d="M690.64,-412.2C690.64,-412.2 690.64,-320.25 690.64,-320.25"/>
<polygon fill="black" stroke="black" points="694.14,-320.25 690.64,-310.25 687.14,-320.25 694.14,-320.25"/>
</g>
<!-- :data:database&#45;&gt;:shared:domain -->
<g id="edge13" class="edge">
<title>:data:database&#45;&gt;:shared:domain</title>
<path fill="none" stroke="black" stroke-dasharray="1,5" d="M36.04,-292C24.52,-292 16.46,-292 16.46,-292 16.46,-292 16.46,-39.08 16.46,-39.08"/>
<polygon fill="black" stroke="black" points="19.96,-39.08 16.46,-29.08 12.96,-39.08 19.96,-39.08"/>
</g>
<!-- :data:database&#45;&gt;:data:musicbrainz -->
<g id="edge14" class="edge">
<title>:data:database&#45;&gt;:data:musicbrainz</title>
<path fill="none" stroke="black" stroke-dasharray="1,5" d="M115.54,-273.81C115.54,-273.81 115.54,-183.27 115.54,-183.27"/>
<polygon fill="black" stroke="black" points="119.04,-183.27 115.54,-173.27 112.04,-183.27 119.04,-183.27"/>
</g>
<!-- :data:musicbrainz&#45;&gt;:shared:domain -->
<g id="edge15" class="edge">
<title>:data:musicbrainz&#45;&gt;:shared:domain</title>
<path fill="none" stroke="black" stroke-dasharray="1,5" d="M69.66,-139.28C69.66,-139.28 69.66,-46.13 69.66,-46.13"/>
<polygon fill="black" stroke="black" points="73.16,-46.13 69.66,-36.13 66.16,-46.13 73.16,-46.13"/>
</g>
<!-- :data:musicbrainz&#45;&gt;:core:logging:api -->
<g id="edge16" class="edge">
<title>:data:musicbrainz&#45;&gt;:core:logging:api</title>
<path fill="none" stroke="black" stroke-dasharray="1,5" d="M187.11,-143.3C187.11,-109.15 187.11,-12 187.11,-12 187.11,-12 233.82,-12 233.82,-12"/>
<polygon fill="black" stroke="black" points="233.82,-15.5 243.82,-12 233.82,-8.5 233.82,-15.5"/>
</g>
<!-- :data:coverart&#45;&gt;:shared:domain -->
<g id="edge17" class="edge">
<title>:data:coverart&#45;&gt;:shared:domain</title>
<path fill="none" stroke="black" stroke-dasharray="1,5" d="M393.64,-145.41C393.64,-126.45 393.64,-86 393.64,-86 393.64,-86 117.37,-86 117.37,-86 117.37,-86 117.37,-44.46 117.37,-44.46"/>
<polygon fill="black" stroke="black" points="120.87,-44.46 117.37,-34.46 113.87,-44.46 120.87,-44.46"/>
</g>
<!-- :data:coverart&#45;&gt;:core:logging:api -->
<g id="edge18" class="edge">
<title>:data:coverart&#45;&gt;:core:logging:api</title>
<path fill="none" stroke="black" stroke-dasharray="1,5" d="M404.79,-142.11C404.79,-142.11 404.79,-36.87 404.79,-36.87"/>
<polygon fill="black" stroke="black" points="408.29,-36.87 404.79,-26.87 401.29,-36.87 408.29,-36.87"/>
</g>
<!-- :data:spotify&#45;&gt;:test&#45;data -->
<g id="edge21" class="edge">
<title>:data:spotify&#45;&gt;:test&#45;data</title>
<path fill="none" stroke="#ff9ab1" stroke-dasharray="1,5" d="M323.17,-171.73C323.17,-171.73 323.17,-403.18 323.17,-403.18"/>
<polygon fill="#ff9ab1" stroke="#ff9ab1" points="319.67,-403.18 323.17,-413.18 326.67,-403.18 319.67,-403.18"/>
</g>
<!-- :data:spotify&#45;&gt;:shared:domain -->
<g id="edge19" class="edge">
<title>:data:spotify&#45;&gt;:shared:domain</title>
<path fill="none" stroke="black" stroke-dasharray="1,5" d="M232.9,-147.2C232.9,-119 232.9,-24 232.9,-24 232.9,-24 170.8,-24 170.8,-24"/>
<polygon fill="black" stroke="black" points="170.8,-20.5 160.8,-24 170.8,-27.5 170.8,-20.5"/>
</g>
<!-- :data:spotify&#45;&gt;:core:logging:api -->
<g id="edge20" class="edge">
<title>:data:spotify&#45;&gt;:core:logging:api</title>
<path fill="none" stroke="black" stroke-dasharray="1,5" d="M301.79,-136.81C301.79,-136.81 301.79,-45.4 301.79,-45.4"/>
<polygon fill="black" stroke="black" points="305.29,-45.4 301.79,-35.4 298.29,-45.4 305.29,-45.4"/>
</g>
</g>
</svg>
