<?xml version="1.0" encoding="UTF-8" standalone="no"?>
<!DOCTYPE svg PUBLIC "-//W3C//DTD SVG 1.1//EN"
 "http://www.w3.org/Graphics/SVG/1.1/DTD/svg11.dtd">
<!-- Generated by graphviz version 2.43.0 (0)
 -->
<!-- Title: %3 Pages: 1 -->
<svg width="1234pt" height="666pt"
 viewBox="0.00 0.00 1233.83 666.00" xmlns="http://www.w3.org/2000/svg" xmlns:xlink="http://www.w3.org/1999/xlink">
<g id="graph0" class="graph" transform="scale(1 1) rotate(0) translate(4 662)">
<title>%3</title>
<polygon fill="white" stroke="transparent" points="-4,4 -4,-662 1229.83,-662 1229.83,4 -4,4"/>
<text text-anchor="middle" x="612.92" y="-630" font-family="Times,serif" font-size="30.00">Dependencies</text>
<text text-anchor="middle" x="612.92" y="-597" font-family="Times,serif" font-size="30.00"> </text>
<!-- :shared:feature:licenses -->
<g id="node1" class="node">
<title>:shared:feature:licenses</title>
<polygon fill="#b59aff" stroke="black" points="341.24,-584 153.24,-584 153.24,-548 341.24,-548 341.24,-584"/>
<text text-anchor="middle" x="247.24" y="-562.3" font-family="Times,serif" font-size="14.00">:shared:feature:licenses</text>
</g>
<!-- :ui:common -->
<g id="node2" class="node">
<title>:ui:common</title>
<ellipse fill="#b59aff" stroke="black" cx="514.24" cy="-429" rx="64.19" ry="18"/>
<text text-anchor="middle" x="514.24" y="-425.3" font-family="Times,serif" font-size="14.00">:ui:common</text>
</g>
<!-- :shared:feature:licenses&#45;&gt;:ui:common -->
<g id="edge1" class="edge">
<title>:shared:feature:licenses&#45;&gt;:ui:common</title>
<path fill="none" stroke="black" stroke-dasharray="1,5" d="M299.77,-547.8C299.77,-512.69 299.77,-439 299.77,-439 299.77,-439 450.68,-439 450.68,-439"/>
<polygon fill="black" stroke="black" points="450.68,-442.5 460.68,-439 450.68,-435.5 450.68,-442.5"/>
</g>
<!-- :ui:core -->
<g id="node3" class="node">
<title>:ui:core</title>
<ellipse fill="#b59aff" stroke="black" cx="81.24" cy="-155" rx="45.49" ry="18"/>
<text text-anchor="middle" x="81.24" y="-151.3" font-family="Times,serif" font-size="14.00">:ui:core</text>
</g>
<!-- :shared:feature:licenses&#45;&gt;:ui:core -->
<g id="edge2" class="edge">
<title>:shared:feature:licenses&#45;&gt;:ui:core</title>
<path fill="none" stroke="black" stroke-dasharray="1,5" d="M153.01,-566C97.99,-566 39.3,-566 39.3,-566 39.3,-566 39.3,-172.13 39.3,-172.13"/>
<polygon fill="black" stroke="black" points="42.8,-172.13 39.3,-162.13 35.8,-172.13 42.8,-172.13"/>
</g>
<!-- :ui:common&#45;&gt;:ui:core -->
<g id="edge11" class="edge">
<title>:ui:common&#45;&gt;:ui:core</title>
<path fill="none" stroke="black" stroke-dasharray="1,5" d="M450.67,-432C322,-432 42.85,-432 42.85,-432 42.85,-432 42.85,-174.86 42.85,-174.86"/>
<polygon fill="black" stroke="black" points="46.35,-174.86 42.85,-164.86 39.35,-174.86 46.35,-174.86"/>
</g>
<!-- :ui:test:image -->
<g id="node4" class="node">
<title>:ui:test:image</title>
<ellipse fill="#9affb5" stroke="black" cx="907.24" cy="-292" rx="74.99" ry="18"/>
<text text-anchor="middle" x="907.24" y="-288.3" font-family="Times,serif" font-size="14.00">:ui:test:image</text>
</g>
<!-- :ui:common&#45;&gt;:ui:test:image -->
<g id="edge3" class="edge">
<title>:ui:common&#45;&gt;:ui:test:image</title>
<path fill="none" stroke="#ff9ab1" stroke-dasharray="1,5" d="M578.26,-431C689.62,-431 907.24,-431 907.24,-431 907.24,-431 907.24,-320.17 907.24,-320.17"/>
<polygon fill="#ff9ab1" stroke="#ff9ab1" points="910.74,-320.17 907.24,-310.17 903.74,-320.17 910.74,-320.17"/>
</g>
<!-- :ui:test:screenshot -->
<g id="node5" class="node">
<title>:ui:test:screenshot</title>
<ellipse fill="#9affb5" stroke="black" cx="143.24" cy="-292" rx="96.68" ry="18"/>
<text text-anchor="middle" x="143.24" y="-288.3" font-family="Times,serif" font-size="14.00">:ui:test:screenshot</text>
</g>
<!-- :ui:common&#45;&gt;:ui:test:screenshot -->
<g id="edge4" class="edge">
<title>:ui:common&#45;&gt;:ui:test:screenshot</title>
<path fill="none" stroke="#ff9ab1" stroke-dasharray="1,5" d="M451.5,-425C358.95,-425 196.66,-425 196.66,-425 196.66,-425 196.66,-317.26 196.66,-317.26"/>
<polygon fill="#ff9ab1" stroke="#ff9ab1" points="200.16,-317.26 196.66,-307.26 193.16,-317.26 200.16,-317.26"/>
</g>
<!-- :core:models -->
<g id="node6" class="node">
<title>:core:models</title>
<ellipse fill="#b59aff" stroke="black" cx="581.24" cy="-18" rx="69.59" ry="18"/>
<text text-anchor="middle" x="581.24" y="-14.3" font-family="Times,serif" font-size="14.00">:core:models</text>
</g>
<!-- :ui:common&#45;&gt;:core:models -->
<g id="edge5" class="edge">
<title>:ui:common&#45;&gt;:core:models</title>
<path fill="none" stroke="black" d="M558.82,-416C594.18,-416 637.71,-416 637.71,-416 637.71,-416 637.71,-38.65 637.71,-38.65"/>
<polygon fill="black" stroke="black" points="641.21,-38.65 637.71,-28.65 634.21,-38.65 641.21,-38.65"/>
</g>
<!-- :data:coverart -->
<g id="node7" class="node">
<title>:data:coverart</title>
<ellipse fill="#b59aff" stroke="black" cx="738.24" cy="-292" rx="76.09" ry="18"/>
<text text-anchor="middle" x="738.24" y="-288.3" font-family="Times,serif" font-size="14.00">:data:coverart</text>
</g>
<!-- :ui:common&#45;&gt;:data:coverart -->
<g id="edge6" class="edge">
<title>:ui:common&#45;&gt;:data:coverart</title>
<path fill="none" stroke="black" stroke-dasharray="1,5" d="M577.83,-426C644.06,-426 738.24,-426 738.24,-426 738.24,-426 738.24,-320.07 738.24,-320.07"/>
<polygon fill="black" stroke="black" points="741.74,-320.07 738.24,-310.07 734.74,-320.07 741.74,-320.07"/>
</g>
<!-- :data:musicbrainz -->
<g id="node8" class="node">
<title>:data:musicbrainz</title>
<ellipse fill="#b59aff" stroke="black" cx="1132.24" cy="-292" rx="93.68" ry="18"/>
<text text-anchor="middle" x="1132.24" y="-288.3" font-family="Times,serif" font-size="14.00">:data:musicbrainz</text>
</g>
<!-- :ui:common&#45;&gt;:data:musicbrainz -->
<g id="edge7" class="edge">
<title>:ui:common&#45;&gt;:data:musicbrainz</title>
<path fill="none" stroke="black" stroke-dasharray="1,5" d="M562.22,-441C707.42,-441 1132.24,-441 1132.24,-441 1132.24,-441 1132.24,-320.27 1132.24,-320.27"/>
<polygon fill="black" stroke="black" points="1135.74,-320.27 1132.24,-310.27 1128.74,-320.27 1135.74,-320.27"/>
</g>
<!-- :core:preferences -->
<g id="node9" class="node">
<title>:core:preferences</title>
<ellipse fill="#b59aff" stroke="black" cx="514.24" cy="-292" rx="91.78" ry="18"/>
<text text-anchor="middle" x="514.24" y="-288.3" font-family="Times,serif" font-size="14.00">:core:preferences</text>
</g>
<!-- :ui:common&#45;&gt;:core:preferences -->
<g id="edge8" class="edge">
<title>:ui:common&#45;&gt;:core:preferences</title>
<path fill="none" stroke="black" stroke-dasharray="1,5" d="M514.24,-410.81C514.24,-410.81 514.24,-320.27 514.24,-320.27"/>
<polygon fill="black" stroke="black" points="517.74,-320.27 514.24,-310.27 510.74,-320.27 517.74,-320.27"/>
</g>
<!-- :core:logging:api -->
<g id="node10" class="node">
<title>:core:logging:api</title>
<ellipse fill="#b59aff" stroke="black" cx="1010.24" cy="-155" rx="88.28" ry="18"/>
<text text-anchor="middle" x="1010.24" y="-151.3" font-family="Times,serif" font-size="14.00">:core:logging:api</text>
</g>
<!-- :ui:common&#45;&gt;:core:logging:api -->
<g id="edge9" class="edge">
<title>:ui:common&#45;&gt;:core:logging:api</title>
<path fill="none" stroke="black" stroke-dasharray="1,5" d="M573.59,-436C705.26,-436 1010.32,-436 1010.32,-436 1010.32,-436 1010.32,-183.01 1010.32,-183.01"/>
<polygon fill="black" stroke="black" points="1013.82,-183.01 1010.32,-173.01 1006.82,-183.01 1013.82,-183.01"/>
</g>
<!-- :shared:domain -->
<g id="node11" class="node">
<title>:shared:domain</title>
<ellipse fill="#b59aff" stroke="black" cx="731.24" cy="-155" rx="82.59" ry="18"/>
<text text-anchor="middle" x="731.24" y="-151.3" font-family="Times,serif" font-size="14.00">:shared:domain</text>
</g>
<!-- :ui:common&#45;&gt;:shared:domain -->
<g id="edge10" class="edge">
<title>:ui:common&#45;&gt;:shared:domain</title>
<path fill="none" stroke="black" stroke-dasharray="1,5" d="M572.08,-421C611.08,-421 655.45,-421 655.45,-421 655.45,-421 655.45,-172.39 655.45,-172.39"/>
<polygon fill="black" stroke="black" points="658.95,-172.39 655.45,-162.39 651.95,-172.39 658.95,-172.39"/>
</g>
<!-- :ui:image -->
<g id="node12" class="node">
<title>:ui:image</title>
<ellipse fill="#b59aff" stroke="black" cx="312.24" cy="-292" rx="53.89" ry="18"/>
<text text-anchor="middle" x="312.24" y="-288.3" font-family="Times,serif" font-size="14.00">:ui:image</text>
</g>
<!-- :ui:common&#45;&gt;:ui:image -->
<g id="edge12" class="edge">
<title>:ui:common&#45;&gt;:ui:image</title>
<path fill="none" stroke="black" stroke-dasharray="1,5" d="M463.01,-418C416.03,-418 353.72,-418 353.72,-418 353.72,-418 353.72,-313.63 353.72,-313.63"/>
<polygon fill="black" stroke="black" points="357.22,-313.63 353.72,-303.63 350.22,-313.63 357.22,-313.63"/>
</g>
<!-- :shared:strings -->
<g id="node13" class="node">
<title>:shared:strings</title>
<ellipse fill="#b59aff" stroke="black" cx="81.24" cy="-18" rx="81.49" ry="18"/>
<text text-anchor="middle" x="81.24" y="-14.3" font-family="Times,serif" font-size="14.00">:shared:strings</text>
</g>
<!-- :ui:core&#45;&gt;:shared:strings -->
<g id="edge13" class="edge">
<title>:ui:core&#45;&gt;:shared:strings</title>
<path fill="none" stroke="black" d="M81.24,-136.81C81.24,-136.81 81.24,-46.27 81.24,-46.27"/>
<polygon fill="black" stroke="black" points="84.74,-46.27 81.24,-36.27 77.74,-46.27 84.74,-46.27"/>
</g>
<!-- :ui:test:screenshot&#45;&gt;:ui:core -->
<g id="edge14" class="edge">
<title>:ui:test:screenshot&#45;&gt;:ui:core</title>
<path fill="none" stroke="black" stroke-dasharray="1,5" d="M86.57,-277.34C86.57,-277.34 86.57,-183.01 86.57,-183.01"/>
<polygon fill="black" stroke="black" points="90.07,-183.01 86.57,-173.01 83.07,-183.01 90.07,-183.01"/>
</g>
<!-- :data:coverart&#45;&gt;:core:models -->
<g id="edge16" class="edge">
<title>:data:coverart&#45;&gt;:core:models</title>
<path fill="none" stroke="black" stroke-dasharray="1,5" d="M666.32,-298C652.05,-298 641.37,-298 641.37,-298 641.37,-298 641.37,-37.32 641.37,-37.32"/>
<polygon fill="black" stroke="black" points="644.87,-37.32 641.37,-27.32 637.87,-37.32 644.87,-37.32"/>
</g>
<!-- :data:coverart&#45;&gt;:core:logging:api -->
<g id="edge15" class="edge">
<title>:data:coverart&#45;&gt;:core:logging:api</title>
<path fill="none" stroke="black" stroke-dasharray="1,5" d="M814.6,-292C820.01,-292 823.39,-292 823.39,-292 823.39,-292 823.39,-155 823.39,-155 823.39,-155 911.74,-155 911.74,-155"/>
<polygon fill="black" stroke="black" points="911.74,-158.5 921.74,-155 911.74,-151.5 911.74,-158.5"/>
</g>
<!-- :data:coverart&#45;&gt;:shared:domain -->
<g id="edge17" class="edge">
<title>:data:coverart&#45;&gt;:shared:domain</title>
<path fill="none" stroke="black" stroke-dasharray="1,5" d="M737.99,-273.81C737.99,-273.81 737.99,-183.27 737.99,-183.27"/>
<polygon fill="black" stroke="black" points="741.49,-183.27 737.99,-173.27 734.49,-183.27 741.49,-183.27"/>
</g>
<!-- :data:musicbrainz&#45;&gt;:core:models -->
<g id="edge19" class="edge">
<title>:data:musicbrainz&#45;&gt;:core:models</title>
<path fill="none" stroke="black" stroke-dasharray="1,5" d="M1162.23,-274.86C1162.23,-214.87 1162.23,-18 1162.23,-18 1162.23,-18 661.04,-18 661.04,-18"/>
<polygon fill="black" stroke="black" points="661.04,-14.5 651.04,-18 661.04,-21.5 661.04,-14.5"/>
</g>
<!-- :data:musicbrainz&#45;&gt;:core:logging:api -->
<g id="edge18" class="edge">
<title>:data:musicbrainz&#45;&gt;:core:logging:api</title>
<path fill="none" stroke="black" stroke-dasharray="1,5" d="M1068.64,-278.61C1068.64,-278.61 1068.64,-178.64 1068.64,-178.64"/>
<polygon fill="black" stroke="black" points="1072.14,-178.64 1068.64,-168.64 1065.14,-178.64 1072.14,-178.64"/>
</g>
<!-- :core:preferences&#45;&gt;:core:models -->
<g id="edge21" class="edge">
<title>:core:preferences&#45;&gt;:core:models</title>
<path fill="none" stroke="black" stroke-dasharray="1,5" d="M600.68,-286C619.57,-286 634.05,-286 634.05,-286 634.05,-286 634.05,-39.86 634.05,-39.86"/>
<polygon fill="black" stroke="black" points="637.55,-39.86 634.05,-29.86 630.55,-39.86 637.55,-39.86"/>
</g>
<!-- :core:coroutines -->
<g id="node14" class="node">
<title>:core:coroutines</title>
<ellipse fill="#b59aff" stroke="black" cx="545.24" cy="-155" rx="85.29" ry="18"/>
<text text-anchor="middle" x="545.24" y="-151.3" font-family="Times,serif" font-size="14.00">:core:coroutines</text>
</g>
<!-- :core:preferences&#45;&gt;:core:coroutines -->
<g id="edge20" class="edge">
<title>:core:preferences&#45;&gt;:core:coroutines</title>
<path fill="none" stroke="black" stroke-dasharray="1,5" d="M532.99,-274.37C532.99,-274.37 532.99,-183 532.99,-183"/>
<polygon fill="black" stroke="black" points="536.49,-183 532.99,-173 529.49,-183 536.49,-183"/>
</g>
<!-- :shared:domain&#45;&gt;:core:models -->
<g id="edge22" class="edge">
<title>:shared:domain&#45;&gt;:core:models</title>
<path fill="none" stroke="black" stroke-dasharray="1,5" d="M648.31,-155C646.22,-155 645.04,-155 645.04,-155 645.04,-155 645.04,-35.37 645.04,-35.37"/>
<polygon fill="black" stroke="black" points="648.54,-35.37 645.04,-25.37 641.54,-35.37 648.54,-35.37"/>
</g>
<!-- :ui:image&#45;&gt;:ui:core -->
<g id="edge24" class="edge">
<title>:ui:image&#45;&gt;:ui:core</title>
<path fill="none" stroke="black" stroke-dasharray="1,5" d="M294.26,-274.93C294.26,-238.2 294.26,-155 294.26,-155 294.26,-155 136.94,-155 136.94,-155"/>
<polygon fill="black" stroke="black" points="136.94,-151.5 126.94,-155 136.94,-158.5 136.94,-151.5"/>
</g>
<!-- :ui:image&#45;&gt;:core:models -->
<g id="edge23" class="edge">
<title>:ui:image&#45;&gt;:core:models</title>
<path fill="none" stroke="black" stroke-dasharray="1,5" d="M330.22,-274.86C330.22,-214.87 330.22,-18 330.22,-18 330.22,-18 501.65,-18 501.65,-18"/>
<polygon fill="black" stroke="black" points="501.65,-21.5 511.65,-18 501.65,-14.5 501.65,-21.5"/>
</g>
</g>
</svg>
