<?xml version="1.0" encoding="UTF-8" standalone="no"?>
<!DOCTYPE svg PUBLIC "-//W3C//DTD SVG 1.1//EN"
 "http://www.w3.org/Graphics/SVG/1.1/DTD/svg11.dtd">
<!-- Generated by graphviz version 2.43.0 (0)
 -->
<!-- Title: %3 Pages: 1 -->
<svg width="1475pt" height="666pt"
 viewBox="0.00 0.00 1475.10 666.00" xmlns="http://www.w3.org/2000/svg" xmlns:xlink="http://www.w3.org/1999/xlink">
<g id="graph0" class="graph" transform="scale(1 1) rotate(0) translate(4 662)">
<title>%3</title>
<polygon fill="white" stroke="transparent" points="-4,4 -4,-662 1471.1,-662 1471.1,4 -4,4"/>
<text text-anchor="middle" x="733.55" y="-630" font-family="Times,serif" font-size="30.00">Dependencies</text>
<text text-anchor="middle" x="733.55" y="-597" font-family="Times,serif" font-size="30.00"> </text>
<!-- :shared:feature:licenses -->
<g id="node1" class="node">
<title>:shared:feature:licenses</title>
<polygon fill="#b59aff" stroke="black" points="360,-584 0,-584 0,-548 360,-548 360,-584"/>
<text text-anchor="middle" x="180" y="-562.3" font-family="Times,serif" font-size="14.00">:shared:feature:licenses</text>
</g>
<!-- :ui:common -->
<g id="node2" class="node">
<title>:ui:common</title>
<ellipse fill="#b59aff" stroke="black" cx="748" cy="-429" rx="64.19" ry="18"/>
<text text-anchor="middle" x="748" y="-425.3" font-family="Times,serif" font-size="14.00">:ui:common</text>
</g>
<!-- :shared:feature:licenses&#45;&gt;:ui:common -->
<g id="edge1" class="edge">
<title>:shared:feature:licenses&#45;&gt;:ui:common</title>
<path fill="none" stroke="black" stroke-dasharray="1,5" d="M303.08,-547.8C303.08,-512.69 303.08,-439 303.08,-439 303.08,-439 684.33,-439 684.33,-439"/>
<polygon fill="black" stroke="black" points="684.33,-442.5 694.33,-439 684.33,-435.5 684.33,-442.5"/>
</g>
<!-- :ui:core -->
<g id="node3" class="node">
<title>:ui:core</title>
<ellipse fill="#b59aff" stroke="black" cx="343" cy="-155" rx="45.49" ry="18"/>
<text text-anchor="middle" x="343" y="-151.3" font-family="Times,serif" font-size="14.00">:ui:core</text>
</g>
<!-- :shared:feature:licenses&#45;&gt;:ui:core -->
<g id="edge2" class="edge">
<title>:shared:feature:licenses&#45;&gt;:ui:core</title>
<path fill="none" stroke="black" stroke-dasharray="1,5" d="M227.58,-547.81C227.58,-469.01 227.58,-161 227.58,-161 227.58,-161 290.02,-161 290.02,-161"/>
<polygon fill="black" stroke="black" points="290.02,-164.5 300.02,-161 290.02,-157.5 290.02,-164.5"/>
</g>
<!-- :strings -->
<g id="node4" class="node">
<title>:strings</title>
<ellipse fill="#b59aff" stroke="black" cx="218" cy="-18" rx="46.29" ry="18"/>
<text text-anchor="middle" x="218" y="-14.3" font-family="Times,serif" font-size="14.00">:strings</text>
</g>
<!-- :shared:feature:licenses&#45;&gt;:strings -->
<g id="edge3" class="edge">
<title>:shared:feature:licenses&#45;&gt;:strings</title>
<path fill="none" stroke="black" stroke-dasharray="1,5" d="M190.43,-547.77C190.43,-547.77 190.43,-42.59 190.43,-42.59"/>
<polygon fill="black" stroke="black" points="193.93,-42.59 190.43,-32.59 186.93,-42.59 193.93,-42.59"/>
</g>
<!-- :ui:common&#45;&gt;:ui:core -->
<g id="edge13" class="edge">
<title>:ui:common&#45;&gt;:ui:core</title>
<path fill="none" stroke="red" d="M785.28,-413.95C785.28,-355.79 785.28,-149 785.28,-149 785.28,-149 396.21,-149 396.21,-149"/>
<polygon fill="red" stroke="red" points="396.21,-145.5 386.21,-149 396.21,-152.5 396.21,-145.5"/>
</g>
<!-- :ui:common&#45;&gt;:strings -->
<g id="edge12" class="edge">
<title>:ui:common&#45;&gt;:strings</title>
<path fill="none" stroke="black" stroke-dasharray="1,5" d="M684.32,-432C541.69,-432 209.01,-432 209.01,-432 209.01,-432 209.01,-45.79 209.01,-45.79"/>
<polygon fill="black" stroke="black" points="212.51,-45.79 209.01,-35.79 205.51,-45.79 212.51,-45.79"/>
</g>
<!-- :ui:test:image -->
<g id="node5" class="node">
<title>:ui:test:image</title>
<ellipse fill="#9affb5" stroke="black" cx="697" cy="-292" rx="74.99" ry="18"/>
<text text-anchor="middle" x="697" y="-288.3" font-family="Times,serif" font-size="14.00">:ui:test:image</text>
</g>
<!-- :ui:common&#45;&gt;:ui:test:image -->
<g id="edge4" class="edge">
<title>:ui:common&#45;&gt;:ui:test:image</title>
<path fill="none" stroke="#ff9ab1" d="M727.7,-411.65C727.7,-411.65 727.7,-318.78 727.7,-318.78"/>
<polygon fill="#ff9ab1" stroke="#ff9ab1" points="731.2,-318.78 727.7,-308.78 724.2,-318.78 731.2,-318.78"/>
</g>
<!-- :ui:test:screenshot -->
<g id="node6" class="node">
<title>:ui:test:screenshot</title>
<ellipse fill="#9affb5" stroke="black" cx="343" cy="-292" rx="96.68" ry="18"/>
<text text-anchor="middle" x="343" y="-288.3" font-family="Times,serif" font-size="14.00">:ui:test:screenshot</text>
</g>
<!-- :ui:common&#45;&gt;:ui:test:screenshot -->
<g id="edge5" class="edge">
<title>:ui:common&#45;&gt;:ui:test:screenshot</title>
<path fill="none" stroke="#ff9ab1" d="M684.97,-425C584.66,-425 399.92,-425 399.92,-425 399.92,-425 399.92,-316.74 399.92,-316.74"/>
<polygon fill="#ff9ab1" stroke="#ff9ab1" points="403.42,-316.74 399.92,-306.74 396.42,-316.74 403.42,-316.74"/>
</g>
<!-- :core:models -->
<g id="node7" class="node">
<title>:core:models</title>
<ellipse fill="#b59aff" stroke="black" cx="1080" cy="-18" rx="69.59" ry="18"/>
<text text-anchor="middle" x="1080" y="-14.3" font-family="Times,serif" font-size="14.00">:core:models</text>
</g>
<!-- :ui:common&#45;&gt;:core:models -->
<g id="edge6" class="edge">
<title>:ui:common&#45;&gt;:core:models</title>
<path fill="none" stroke="black" d="M795.99,-417C874.91,-417 1023.49,-417 1023.49,-417 1023.49,-417 1023.49,-38.67 1023.49,-38.67"/>
<polygon fill="black" stroke="black" points="1026.99,-38.67 1023.49,-28.67 1019.99,-38.67 1026.99,-38.67"/>
</g>
<!-- :data:coverart -->
<g id="node8" class="node">
<title>:data:coverart</title>
<ellipse fill="#b59aff" stroke="black" cx="1349" cy="-292" rx="76.09" ry="18"/>
<text text-anchor="middle" x="1349" y="-288.3" font-family="Times,serif" font-size="14.00">:data:coverart</text>
</g>
<!-- :ui:common&#45;&gt;:data:coverart -->
<g id="edge7" class="edge">
<title>:ui:common&#45;&gt;:data:coverart</title>
<path fill="none" stroke="orange" d="M808.93,-435C961.73,-435 1349,-435 1349,-435 1349,-435 1349,-320.11 1349,-320.11"/>
<polygon fill="orange" stroke="orange" points="1352.5,-320.11 1349,-310.11 1345.5,-320.11 1352.5,-320.11"/>
</g>
<!-- :data:musicbrainz -->
<g id="node9" class="node">
<title>:data:musicbrainz</title>
<ellipse fill="#b59aff" stroke="black" cx="1123" cy="-292" rx="93.68" ry="18"/>
<text text-anchor="middle" x="1123" y="-288.3" font-family="Times,serif" font-size="14.00">:data:musicbrainz</text>
</g>
<!-- :ui:common&#45;&gt;:data:musicbrainz -->
<g id="edge8" class="edge">
<title>:ui:common&#45;&gt;:data:musicbrainz</title>
<path fill="none" stroke="orange" d="M808.67,-423C914.8,-423 1123,-423 1123,-423 1123,-423 1123,-320.21 1123,-320.21"/>
<polygon fill="orange" stroke="orange" points="1126.5,-320.21 1123,-310.21 1119.5,-320.22 1126.5,-320.21"/>
</g>
<!-- :core:preferences -->
<g id="node10" class="node">
<title>:core:preferences</title>
<ellipse fill="#b59aff" stroke="black" cx="920" cy="-292" rx="91.78" ry="18"/>
<text text-anchor="middle" x="920" y="-288.3" font-family="Times,serif" font-size="14.00">:core:preferences</text>
</g>
<!-- :ui:common&#45;&gt;:core:preferences -->
<g id="edge9" class="edge">
<title>:ui:common&#45;&gt;:core:preferences</title>
<path fill="none" stroke="black" stroke-dasharray="1,5" d="M798.81,-417.79C798.81,-385.07 798.81,-292 798.81,-292 798.81,-292 818.15,-292 818.15,-292"/>
<polygon fill="black" stroke="black" points="818.15,-295.5 828.15,-292 818.15,-288.5 818.15,-295.5"/>
</g>
<!-- :core:logging:api -->
<g id="node11" class="node">
<title>:core:logging:api</title>
<ellipse fill="#b59aff" stroke="black" cx="1227" cy="-155" rx="88.28" ry="18"/>
<text text-anchor="middle" x="1227" y="-151.3" font-family="Times,serif" font-size="14.00">:core:logging:api</text>
</g>
<!-- :ui:common&#45;&gt;:core:logging:api -->
<g id="edge10" class="edge">
<title>:ui:common&#45;&gt;:core:logging:api</title>
<path fill="none" stroke="black" stroke-dasharray="1,5" d="M812.44,-429C946.85,-429 1244.77,-429 1244.77,-429 1244.77,-429 1244.77,-182.98 1244.77,-182.98"/>
<polygon fill="black" stroke="black" points="1248.27,-182.98 1244.77,-172.98 1241.27,-182.98 1248.27,-182.98"/>
</g>
<!-- :domain -->
<g id="node12" class="node">
<title>:domain</title>
<ellipse fill="#b59aff" stroke="black" cx="1419" cy="-155" rx="48.19" ry="18"/>
<text text-anchor="middle" x="1419" y="-151.3" font-family="Times,serif" font-size="14.00">:domain</text>
</g>
<!-- :ui:common&#45;&gt;:domain -->
<g id="edge11" class="edge">
<title>:ui:common&#45;&gt;:domain</title>
<path fill="none" stroke="black" stroke-dasharray="1,5" d="M795.98,-441C953.69,-441 1446.07,-441 1446.07,-441 1446.07,-441 1446.07,-179.97 1446.07,-179.97"/>
<polygon fill="black" stroke="black" points="1449.57,-179.97 1446.07,-169.97 1442.57,-179.97 1449.57,-179.97"/>
</g>
<!-- :ui:image -->
<g id="node13" class="node">
<title>:ui:image</title>
<ellipse fill="#b59aff" stroke="black" cx="550" cy="-292" rx="53.89" ry="18"/>
<text text-anchor="middle" x="550" y="-288.3" font-family="Times,serif" font-size="14.00">:ui:image</text>
</g>
<!-- :ui:common&#45;&gt;:ui:image -->
<g id="edge14" class="edge">
<title>:ui:common&#45;&gt;:ui:image</title>
<path fill="none" stroke="red" d="M697.01,-418C638.34,-418 550,-418 550,-418 550,-418 550,-320.05 550,-320.05"/>
<polygon fill="red" stroke="red" points="553.5,-320.05 550,-310.05 546.5,-320.05 553.5,-320.05"/>
</g>
<!-- :ui:core&#45;&gt;:strings -->
<g id="edge15" class="edge">
<title>:ui:core&#45;&gt;:strings</title>
<path fill="none" stroke="black" d="M300.11,-149C277.81,-149 255.15,-149 255.15,-149 255.15,-149 255.15,-38.72 255.15,-38.72"/>
<polygon fill="black" stroke="black" points="258.65,-38.72 255.15,-28.72 251.65,-38.72 258.65,-38.72"/>
</g>
<!-- :ui:test:screenshot&#45;&gt;:ui:core -->
<g id="edge16" class="edge">
<title>:ui:test:screenshot&#45;&gt;:ui:core</title>
<path fill="none" stroke="red" d="M343,-273.81C343,-273.81 343,-183.27 343,-183.27"/>
<polygon fill="red" stroke="red" points="346.5,-183.27 343,-173.27 339.5,-183.27 346.5,-183.27"/>
</g>
<!-- :data:coverart&#45;&gt;:core:models -->
<g id="edge18" class="edge">
<title>:data:coverart&#45;&gt;:core:models</title>
<path fill="none" stroke="black" stroke-dasharray="1,5" d="M1343.15,-274C1343.15,-213.91 1343.15,-24 1343.15,-24 1343.15,-24 1155.72,-24 1155.72,-24"/>
<polygon fill="black" stroke="black" points="1155.72,-20.5 1145.72,-24 1155.72,-27.5 1155.72,-20.5"/>
</g>
<!-- :data:coverart&#45;&gt;:core:logging:api -->
<g id="edge17" class="edge">
<title>:data:coverart&#45;&gt;:core:logging:api</title>
<path fill="none" stroke="black" stroke-dasharray="1,5" d="M1294.17,-279.36C1294.17,-279.36 1294.17,-176.83 1294.17,-176.83"/>
<polygon fill="black" stroke="black" points="1297.67,-176.83 1294.17,-166.83 1290.67,-176.83 1297.67,-176.83"/>
</g>
<!-- :data:coverart&#45;&gt;:domain -->
<g id="edge19" class="edge">
<title>:data:coverart&#45;&gt;:domain</title>
<path fill="none" stroke="black" stroke-dasharray="1,5" d="M1397.97,-278.11C1397.97,-278.11 1397.97,-181.46 1397.97,-181.46"/>
<polygon fill="black" stroke="black" points="1401.47,-181.46 1397.97,-171.46 1394.47,-181.46 1401.47,-181.46"/>
</g>
<!-- :data:musicbrainz&#45;&gt;:core:models -->
<g id="edge21" class="edge">
<title>:data:musicbrainz&#45;&gt;:core:models</title>
<path fill="none" stroke="black" stroke-dasharray="1,5" d="M1084.01,-275.27C1084.01,-275.27 1084.01,-46.28 1084.01,-46.28"/>
<polygon fill="black" stroke="black" points="1087.51,-46.28 1084.01,-36.28 1080.51,-46.28 1087.51,-46.28"/>
</g>
<!-- :data:musicbrainz&#45;&gt;:core:logging:api -->
<g id="edge20" class="edge">
<title>:data:musicbrainz&#45;&gt;:core:logging:api</title>
<path fill="none" stroke="black" stroke-dasharray="1,5" d="M1177.6,-277.34C1177.6,-277.34 1177.6,-179.97 1177.6,-179.97"/>
<polygon fill="black" stroke="black" points="1181.1,-179.97 1177.6,-169.97 1174.1,-179.97 1181.1,-179.97"/>
</g>
<!-- :core:preferences&#45;&gt;:core:models -->
<g id="edge23" class="edge">
<title>:core:preferences&#45;&gt;:core:models</title>
<path fill="none" stroke="black" stroke-dasharray="1,5" d="M1011.75,-292C1015.41,-292 1017.56,-292 1017.56,-292 1017.56,-292 1017.56,-36.2 1017.56,-36.2"/>
<polygon fill="black" stroke="black" points="1021.06,-36.2 1017.56,-26.2 1014.06,-36.2 1021.06,-36.2"/>
</g>
<!-- :core:coroutines -->
<g id="node14" class="node">
<title>:core:coroutines</title>
<ellipse fill="#b59aff" stroke="black" cx="920" cy="-155" rx="85.29" ry="18"/>
<text text-anchor="middle" x="920" y="-151.3" font-family="Times,serif" font-size="14.00">:core:coroutines</text>
</g>
<!-- :core:preferences&#45;&gt;:core:coroutines -->
<g id="edge22" class="edge">
<title>:core:preferences&#45;&gt;:core:coroutines</title>
<path fill="none" stroke="black" stroke-dasharray="1,5" d="M920,-273.81C920,-273.81 920,-183.27 920,-183.27"/>
<polygon fill="black" stroke="black" points="923.5,-183.27 920,-173.27 916.5,-183.27 923.5,-183.27"/>
</g>
<!-- :domain&#45;&gt;:core:models -->
<g id="edge24" class="edge">
<title>:domain&#45;&gt;:core:models</title>
<path fill="none" stroke="black" stroke-dasharray="1,5" d="M1419,-136.89C1419,-98.41 1419,-12 1419,-12 1419,-12 1155.76,-12 1155.76,-12"/>
<polygon fill="black" stroke="black" points="1155.76,-8.5 1145.76,-12 1155.76,-15.5 1155.76,-8.5"/>
</g>
<!-- :ui:image&#45;&gt;:ui:core -->
<g id="edge26" class="edge">
<title>:ui:image&#45;&gt;:ui:core</title>
<path fill="none" stroke="red" d="M532.02,-274.87C532.02,-239.36 532.02,-161 532.02,-161 532.02,-161 396.36,-161 396.36,-161"/>
<polygon fill="red" stroke="red" points="396.36,-157.5 386.36,-161 396.36,-164.5 396.36,-157.5"/>
</g>
<!-- :ui:image&#45;&gt;:core:models -->
<g id="edge25" class="edge">
<title>:ui:image&#45;&gt;:core:models</title>
<path fill="none" stroke="black" stroke-dasharray="1,5" d="M567.98,-274.86C567.98,-214.87 567.98,-18 567.98,-18 567.98,-18 1000.41,-18 1000.41,-18"/>
<polygon fill="black" stroke="black" points="1000.41,-21.5 1010.41,-18 1000.41,-14.5 1000.41,-21.5"/>
</g>
</g>
</svg>
