<?xml version="1.0" encoding="UTF-8" standalone="no"?>
<!DOCTYPE svg PUBLIC "-//W3C//DTD SVG 1.1//EN"
 "http://www.w3.org/Graphics/SVG/1.1/DTD/svg11.dtd">
<!-- Generated by graphviz version 2.43.0 (0)
 -->
<!-- Title: %3 Pages: 1 -->
<svg width="1156pt" height="940pt"
 viewBox="0.00 0.00 1156.34 940.00" xmlns="http://www.w3.org/2000/svg" xmlns:xlink="http://www.w3.org/1999/xlink">
<g id="graph0" class="graph" transform="scale(1 1) rotate(0) translate(4 936)">
<title>%3</title>
<polygon fill="white" stroke="transparent" points="-4,4 -4,-936 1152.34,-936 1152.34,4 -4,4"/>
<text text-anchor="middle" x="574.17" y="-904" font-family="Times,serif" font-size="30.00">Dependencies</text>
<text text-anchor="middle" x="574.17" y="-871" font-family="Times,serif" font-size="30.00"> </text>
<!-- :shared:feature:database -->
<g id="node1" class="node">
<title>:shared:feature:database</title>
<polygon fill="#b59aff" stroke="black" points="875.89,-858 680.89,-858 680.89,-822 875.89,-822 875.89,-858"/>
<text text-anchor="middle" x="778.39" y="-836.3" font-family="Times,serif" font-size="14.00">:shared:feature:database</text>
</g>
<!-- :test&#45;data -->
<g id="node2" class="node">
<title>:test&#45;data</title>
<ellipse fill="#b59aff" stroke="black" cx="546.39" cy="-566" rx="55.49" ry="18"/>
<text text-anchor="middle" x="546.39" y="-562.3" font-family="Times,serif" font-size="14.00">:test&#45;data</text>
</g>
<!-- :shared:feature:database&#45;&gt;:test&#45;data -->
<g id="edge1" class="edge">
<title>:shared:feature:database&#45;&gt;:test&#45;data</title>
<path fill="none" stroke="#ff9ab1" stroke-dasharray="1,5" d="M700.79,-821.79C700.79,-761.91 700.79,-575 700.79,-575 700.79,-575 604.4,-575 604.4,-575"/>
<polygon fill="#ff9ab1" stroke="#ff9ab1" points="604.4,-571.5 594.4,-575 604.4,-578.5 604.4,-571.5"/>
</g>
<!-- :ui:test:screenshot -->
<g id="node3" class="node">
<title>:ui:test:screenshot</title>
<ellipse fill="#9affb5" stroke="black" cx="887.39" cy="-566" rx="96.68" ry="18"/>
<text text-anchor="middle" x="887.39" y="-562.3" font-family="Times,serif" font-size="14.00">:ui:test:screenshot</text>
</g>
<!-- :shared:feature:database&#45;&gt;:ui:test:screenshot -->
<g id="edge2" class="edge">
<title>:shared:feature:database&#45;&gt;:ui:test:screenshot</title>
<path fill="none" stroke="#ff9ab1" stroke-dasharray="1,5" d="M859.31,-821.6C859.31,-821.6 859.31,-593.26 859.31,-593.26"/>
<polygon fill="#ff9ab1" stroke="#ff9ab1" points="862.81,-593.26 859.31,-583.26 855.81,-593.26 862.81,-593.26"/>
</g>
<!-- :ui:common -->
<g id="node4" class="node">
<title>:ui:common</title>
<ellipse fill="#b59aff" stroke="black" cx="778.39" cy="-703" rx="64.19" ry="18"/>
<text text-anchor="middle" x="778.39" y="-699.3" font-family="Times,serif" font-size="14.00">:ui:common</text>
</g>
<!-- :shared:feature:database&#45;&gt;:ui:common -->
<g id="edge3" class="edge">
<title>:shared:feature:database&#45;&gt;:ui:common</title>
<path fill="none" stroke="black" stroke-dasharray="1,5" d="M778.39,-821.81C778.39,-821.81 778.39,-731.27 778.39,-731.27"/>
<polygon fill="black" stroke="black" points="781.89,-731.27 778.39,-721.27 774.89,-731.27 781.89,-731.27"/>
</g>
<!-- :shared:domain -->
<g id="node5" class="node">
<title>:shared:domain</title>
<ellipse fill="#b59aff" stroke="black" cx="589.39" cy="-18" rx="82.59" ry="18"/>
<text text-anchor="middle" x="589.39" y="-14.3" font-family="Times,serif" font-size="14.00">:shared:domain</text>
</g>
<!-- :shared:feature:database&#45;&gt;:shared:domain -->
<g id="edge4" class="edge">
<title>:shared:feature:database&#45;&gt;:shared:domain</title>
<path fill="none" stroke="black" stroke-dasharray="1,5" d="M707.42,-821.68C707.42,-700.39 707.42,-18 707.42,-18 707.42,-18 682.01,-18 682.01,-18"/>
<polygon fill="black" stroke="black" points="682.01,-14.5 672.01,-18 682.01,-21.5 682.01,-14.5"/>
</g>
<!-- :ui:image -->
<g id="node6" class="node">
<title>:ui:image</title>
<ellipse fill="#b59aff" stroke="black" cx="1094.39" cy="-566" rx="53.89" ry="18"/>
<text text-anchor="middle" x="1094.39" y="-562.3" font-family="Times,serif" font-size="14.00">:ui:image</text>
</g>
<!-- :shared:feature:database&#45;&gt;:ui:image -->
<g id="edge5" class="edge">
<title>:shared:feature:database&#45;&gt;:ui:image</title>
<path fill="none" stroke="black" stroke-dasharray="1,5" d="M876.34,-840C974.89,-840 1112.37,-840 1112.37,-840 1112.37,-840 1112.37,-593.14 1112.37,-593.14"/>
<polygon fill="black" stroke="black" points="1115.87,-593.14 1112.37,-583.14 1108.87,-593.14 1115.87,-593.14"/>
</g>
<!-- :test&#45;data&#45;&gt;:shared:domain -->
<g id="edge6" class="edge">
<title>:test&#45;data&#45;&gt;:shared:domain</title>
<path fill="none" stroke="black" stroke-dasharray="1,5" d="M594.37,-557C637.51,-557 694.15,-557 694.15,-557 694.15,-557 694.15,-24 694.15,-24 694.15,-24 677.45,-24 677.45,-24"/>
<polygon fill="black" stroke="black" points="677.45,-20.5 667.45,-24 677.45,-27.5 677.45,-20.5"/>
</g>
<!-- :core:coroutines -->
<g id="node7" class="node">
<title>:core:coroutines</title>
<ellipse fill="#b59aff" stroke="black" cx="589.39" cy="-155" rx="85.29" ry="18"/>
<text text-anchor="middle" x="589.39" y="-151.3" font-family="Times,serif" font-size="14.00">:core:coroutines</text>
</g>
<!-- :test&#45;data&#45;&gt;:core:coroutines -->
<g id="edge7" class="edge">
<title>:test&#45;data&#45;&gt;:core:coroutines</title>
<path fill="none" stroke="black" stroke-dasharray="1,5" d="M587.99,-554.14C587.99,-554.14 587.99,-183.02 587.99,-183.02"/>
<polygon fill="black" stroke="black" points="591.49,-183.02 587.99,-173.02 584.49,-183.02 591.49,-183.02"/>
</g>
<!-- :data:database -->
<g id="node8" class="node">
<title>:data:database</title>
<ellipse fill="#b59aff" stroke="black" cx="481.39" cy="-292" rx="79.09" ry="18"/>
<text text-anchor="middle" x="481.39" y="-288.3" font-family="Times,serif" font-size="14.00">:data:database</text>
</g>
<!-- :test&#45;data&#45;&gt;:data:database -->
<g id="edge8" class="edge">
<title>:test&#45;data&#45;&gt;:data:database</title>
<path fill="none" stroke="black" stroke-dasharray="1,5" d="M539.56,-548.02C539.56,-548.02 539.56,-314.42 539.56,-314.42"/>
<polygon fill="black" stroke="black" points="543.06,-314.42 539.56,-304.42 536.06,-314.42 543.06,-314.42"/>
</g>
<!-- :data:musicbrainz -->
<g id="node9" class="node">
<title>:data:musicbrainz</title>
<ellipse fill="#b59aff" stroke="black" cx="316.39" cy="-155" rx="93.68" ry="18"/>
<text text-anchor="middle" x="316.39" y="-151.3" font-family="Times,serif" font-size="14.00">:data:musicbrainz</text>
</g>
<!-- :test&#45;data&#45;&gt;:data:musicbrainz -->
<g id="edge9" class="edge">
<title>:test&#45;data&#45;&gt;:data:musicbrainz</title>
<path fill="none" stroke="black" stroke-dasharray="1,5" d="M494.22,-560C420.46,-560 294.57,-560 294.57,-560 294.57,-560 294.57,-182.66 294.57,-182.66"/>
<polygon fill="black" stroke="black" points="298.07,-182.66 294.57,-172.66 291.07,-182.66 298.07,-182.66"/>
</g>
<!-- :data:coverart -->
<g id="node10" class="node">
<title>:data:coverart</title>
<ellipse fill="#b59aff" stroke="black" cx="442.39" cy="-429" rx="76.09" ry="18"/>
<text text-anchor="middle" x="442.39" y="-425.3" font-family="Times,serif" font-size="14.00">:data:coverart</text>
</g>
<!-- :test&#45;data&#45;&gt;:data:coverart -->
<g id="edge10" class="edge">
<title>:test&#45;data&#45;&gt;:data:coverart</title>
<path fill="none" stroke="black" stroke-dasharray="1,5" d="M500.24,-555.7C500.24,-555.7 500.24,-450.96 500.24,-450.96"/>
<polygon fill="black" stroke="black" points="503.74,-450.96 500.24,-440.96 496.74,-450.96 503.74,-450.96"/>
</g>
<!-- :data:spotify -->
<g id="node11" class="node">
<title>:data:spotify</title>
<ellipse fill="#b59aff" stroke="black" cx="136.39" cy="-155" rx="68.79" ry="18"/>
<text text-anchor="middle" x="136.39" y="-151.3" font-family="Times,serif" font-size="14.00">:data:spotify</text>
</g>
<!-- :test&#45;data&#45;&gt;:data:spotify -->
<g id="edge11" class="edge">
<title>:test&#45;data&#45;&gt;:data:spotify</title>
<path fill="none" stroke="black" stroke-dasharray="1,5" d="M494.05,-572C383.52,-572 136.39,-572 136.39,-572 136.39,-572 136.39,-183.19 136.39,-183.19"/>
<polygon fill="black" stroke="black" points="139.89,-183.19 136.39,-173.19 132.89,-183.19 139.89,-183.19"/>
</g>
<!-- :ui:core -->
<g id="node12" class="node">
<title>:ui:core</title>
<ellipse fill="#b59aff" stroke="black" cx="1012.39" cy="-429" rx="45.49" ry="18"/>
<text text-anchor="middle" x="1012.39" y="-425.3" font-family="Times,serif" font-size="14.00">:ui:core</text>
</g>
<!-- :ui:test:screenshot&#45;&gt;:ui:core -->
<g id="edge12" class="edge">
<title>:ui:test:screenshot&#45;&gt;:ui:core</title>
<path fill="none" stroke="black" stroke-dasharray="1,5" d="M975.56,-558.24C975.56,-558.24 975.56,-449.58 975.56,-449.58"/>
<polygon fill="black" stroke="black" points="979.06,-449.58 975.56,-439.58 972.06,-449.58 979.06,-449.58"/>
</g>
<!-- :test:image -->
<g id="node13" class="node">
<title>:test:image</title>
<ellipse fill="#9affb5" stroke="black" cx="885.39" cy="-429" rx="63.09" ry="18"/>
<text text-anchor="middle" x="885.39" y="-425.3" font-family="Times,serif" font-size="14.00">:test:image</text>
</g>
<!-- :ui:test:screenshot&#45;&gt;:test:image -->
<g id="edge13" class="edge">
<title>:ui:test:screenshot&#45;&gt;:test:image</title>
<path fill="none" stroke="black" stroke-dasharray="1,5" d="M885.39,-547.81C885.39,-547.81 885.39,-457.27 885.39,-457.27"/>
<polygon fill="black" stroke="black" points="888.89,-457.27 885.39,-447.27 881.89,-457.27 888.89,-457.27"/>
</g>
<!-- :ui:common&#45;&gt;:test&#45;data -->
<g id="edge14" class="edge">
<title>:ui:common&#45;&gt;:test&#45;data</title>
<path fill="none" stroke="#ff9ab1" stroke-dasharray="1,5" d="M739.55,-688.6C739.55,-653.42 739.55,-566 739.55,-566 739.55,-566 611.74,-566 611.74,-566"/>
<polygon fill="#ff9ab1" stroke="#ff9ab1" points="611.74,-562.5 601.74,-566 611.74,-569.5 611.74,-562.5"/>
</g>
<!-- :ui:common&#45;&gt;:ui:test:screenshot -->
<g id="edge15" class="edge">
<title>:ui:common&#45;&gt;:ui:test:screenshot</title>
<path fill="none" stroke="#ff9ab1" stroke-dasharray="1,5" d="M816.64,-688.34C816.64,-688.34 816.64,-588.55 816.64,-588.55"/>
<polygon fill="#ff9ab1" stroke="#ff9ab1" points="820.14,-588.55 816.64,-578.55 813.14,-588.55 820.14,-588.55"/>
</g>
<!-- :ui:common&#45;&gt;:shared:domain -->
<g id="edge17" class="edge">
<title>:ui:common&#45;&gt;:shared:domain</title>
<path fill="none" stroke="black" d="M765.05,-685.22C765.05,-577.07 765.05,-12 765.05,-12 765.05,-12 677.46,-12 677.46,-12"/>
<polygon fill="black" stroke="black" points="677.46,-8.5 667.46,-12 677.46,-15.5 677.46,-8.5"/>
</g>
<!-- :ui:common&#45;&gt;:ui:image -->
<g id="edge20" class="edge">
<title>:ui:common&#45;&gt;:ui:image</title>
<path fill="none" stroke="black" stroke-dasharray="1,5" d="M839.06,-709C926.2,-709 1076.41,-709 1076.41,-709 1076.41,-709 1076.41,-593.25 1076.41,-593.25"/>
<polygon fill="black" stroke="black" points="1079.91,-593.25 1076.41,-583.25 1072.91,-593.25 1079.91,-593.25"/>
</g>
<!-- :ui:common&#45;&gt;:core:coroutines -->
<g id="edge16" class="edge">
<title>:ui:common&#45;&gt;:core:coroutines</title>
<path fill="none" stroke="#ff9ab1" stroke-dasharray="1,5" d="M717.67,-697C679.75,-697 638.09,-697 638.09,-697 638.09,-697 638.09,-179.78 638.09,-179.78"/>
<polygon fill="#ff9ab1" stroke="#ff9ab1" points="641.59,-179.78 638.09,-169.78 634.59,-179.78 641.59,-179.78"/>
</g>
<!-- :ui:common&#45;&gt;:ui:core -->
<g id="edge18" class="edge">
<title>:ui:common&#45;&gt;:ui:core</title>
<path fill="none" stroke="black" d="M839.25,-697C908.57,-697 1012.34,-697 1012.34,-697 1012.34,-697 1012.34,-457 1012.34,-457"/>
<polygon fill="black" stroke="black" points="1015.84,-457 1012.34,-447 1008.84,-457 1015.84,-457"/>
</g>
<!-- :core:logging:api -->
<g id="node14" class="node">
<title>:core:logging:api</title>
<ellipse fill="#b59aff" stroke="black" cx="88.39" cy="-18" rx="88.28" ry="18"/>
<text text-anchor="middle" x="88.39" y="-14.3" font-family="Times,serif" font-size="14.00">:core:logging:api</text>
</g>
<!-- :ui:common&#45;&gt;:core:logging:api -->
<g id="edge19" class="edge">
<title>:ui:common&#45;&gt;:core:logging:api</title>
<path fill="none" stroke="black" stroke-dasharray="1,5" d="M717.49,-709C537.83,-709 22.5,-709 22.5,-709 22.5,-709 22.5,-40.29 22.5,-40.29"/>
<polygon fill="black" stroke="black" points="26,-40.29 22.5,-30.29 19,-40.29 26,-40.29"/>
</g>
<!-- :ui:image&#45;&gt;:shared:domain -->
<g id="edge21" class="edge">
<title>:ui:image&#45;&gt;:shared:domain</title>
<path fill="none" stroke="black" stroke-dasharray="1,5" d="M1107.49,-548.28C1107.49,-452.92 1107.49,-5 1107.49,-5 1107.49,-5 656.82,-5 656.82,-5"/>
<polygon fill="black" stroke="black" points="656.82,-1.5 646.82,-5 656.82,-8.5 656.82,-1.5"/>
</g>
<!-- :ui:image&#45;&gt;:ui:core -->
<g id="edge22" class="edge">
<title>:ui:image&#45;&gt;:ui:core</title>
<path fill="none" stroke="black" stroke-dasharray="1,5" d="M1049.17,-556.15C1049.17,-556.15 1049.17,-449.89 1049.17,-449.89"/>
<polygon fill="black" stroke="black" points="1052.67,-449.89 1049.17,-439.89 1045.67,-449.89 1052.67,-449.89"/>
</g>
<!-- :data:database&#45;&gt;:shared:domain -->
<g id="edge23" class="edge">
<title>:data:database&#45;&gt;:shared:domain</title>
<path fill="none" stroke="black" stroke-dasharray="1,5" d="M457.12,-274.68C457.12,-215.95 457.12,-28 457.12,-28 457.12,-28 510.54,-28 510.54,-28"/>
<polygon fill="black" stroke="black" points="510.54,-31.5 520.54,-28 510.54,-24.5 510.54,-31.5"/>
</g>
<!-- :data:database&#45;&gt;:core:coroutines -->
<g id="edge24" class="edge">
<title>:data:database&#45;&gt;:core:coroutines</title>
<path fill="none" stroke="black" stroke-dasharray="1,5" d="M532.47,-278.11C532.47,-278.11 532.47,-178.52 532.47,-178.52"/>
<polygon fill="black" stroke="black" points="535.97,-178.52 532.47,-168.52 528.97,-178.52 535.97,-178.52"/>
</g>
<!-- :data:database&#45;&gt;:data:musicbrainz -->
<g id="edge25" class="edge">
<title>:data:database&#45;&gt;:data:musicbrainz</title>
<path fill="none" stroke="black" stroke-dasharray="1,5" d="M406.04,-286.11C406.04,-286.11 406.04,-170.41 406.04,-170.41"/>
<polygon fill="black" stroke="black" points="409.54,-170.41 406.04,-160.41 402.54,-170.41 409.54,-170.41"/>
</g>
<!-- :data:musicbrainz&#45;&gt;:shared:domain -->
<g id="edge26" class="edge">
<title>:data:musicbrainz&#45;&gt;:shared:domain</title>
<path fill="none" stroke="black" stroke-dasharray="1,5" d="M347.59,-138.03C347.59,-101.97 347.59,-21 347.59,-21 347.59,-21 497.87,-21 497.87,-21"/>
<polygon fill="black" stroke="black" points="497.87,-24.5 507.87,-21 497.87,-17.5 497.87,-24.5"/>
</g>
<!-- :data:musicbrainz&#45;&gt;:core:logging:api -->
<g id="edge27" class="edge">
<title>:data:musicbrainz&#45;&gt;:core:logging:api</title>
<path fill="none" stroke="black" stroke-dasharray="1,5" d="M285.19,-137.99C285.19,-100.49 285.19,-14 285.19,-14 285.19,-14 184.71,-14 184.71,-14"/>
<polygon fill="black" stroke="black" points="184.71,-10.5 174.71,-14 184.71,-17.5 184.71,-10.5"/>
</g>
<!-- :data:coverart&#45;&gt;:test&#45;data -->
<g id="edge31" class="edge">
<title>:data:coverart&#45;&gt;:test&#45;data</title>
<path fill="none" stroke="#ff9ab1" stroke-dasharray="1,5" d="M509.34,-437.57C509.34,-437.57 509.34,-542.36 509.34,-542.36"/>
<polygon fill="#ff9ab1" stroke="#ff9ab1" points="505.84,-542.36 509.34,-552.36 512.84,-542.36 505.84,-542.36"/>
</g>
<!-- :data:coverart&#45;&gt;:shared:domain -->
<g id="edge28" class="edge">
<title>:data:coverart&#45;&gt;:shared:domain</title>
<path fill="none" stroke="black" stroke-dasharray="1,5" d="M514.28,-435C586.61,-435 687.52,-435 687.52,-435 687.52,-435 687.52,-30 687.52,-30 687.52,-30 660.98,-30 660.98,-30"/>
<polygon fill="black" stroke="black" points="660.98,-26.5 650.98,-30 660.98,-33.5 660.98,-26.5"/>
</g>
<!-- :data:coverart&#45;&gt;:core:coroutines -->
<g id="edge30" class="edge">
<title>:data:coverart&#45;&gt;:core:coroutines</title>
<path fill="none" stroke="black" stroke-dasharray="1,5" d="M514.16,-423C545.1,-423 574.34,-423 574.34,-423 574.34,-423 574.34,-183 574.34,-183"/>
<polygon fill="black" stroke="black" points="577.84,-183 574.34,-173 570.84,-183 577.84,-183"/>
</g>
<!-- :data:coverart&#45;&gt;:data:database -->
<g id="edge33" class="edge">
<title>:data:coverart&#45;&gt;:data:database</title>
<path fill="none" stroke="#ff9ab1" stroke-dasharray="1,5" d="M460.27,-411.37C460.27,-411.37 460.27,-319.56 460.27,-319.56"/>
<polygon fill="#ff9ab1" stroke="#ff9ab1" points="463.77,-319.56 460.27,-309.56 456.77,-319.56 463.77,-319.56"/>
</g>
<!-- :data:coverart&#45;&gt;:data:musicbrainz -->
<g id="edge32" class="edge">
<title>:data:coverart&#45;&gt;:data:musicbrainz</title>
<path fill="none" stroke="#ff9ab1" stroke-dasharray="1,5" d="M384.22,-417.23C384.22,-417.23 384.22,-177.67 384.22,-177.67"/>
<polygon fill="#ff9ab1" stroke="#ff9ab1" points="387.72,-177.67 384.22,-167.67 380.72,-177.67 387.72,-177.67"/>
</g>
<!-- :data:coverart&#45;&gt;:core:logging:api -->
<g id="edge29" class="edge">
<title>:data:coverart&#45;&gt;:core:logging:api</title>
<path fill="none" stroke="black" stroke-dasharray="1,5" d="M366.24,-429C250.85,-429 45,-429 45,-429 45,-429 45,-43.86 45,-43.86"/>
<polygon fill="black" stroke="black" points="48.5,-43.86 45,-33.86 41.5,-43.86 48.5,-43.86"/>
</g>
<!-- :data:spotify&#45;&gt;:shared:domain -->
<g id="edge34" class="edge">
<title>:data:spotify&#45;&gt;:shared:domain</title>
<path fill="none" stroke="black" stroke-dasharray="1,5" d="M191.04,-143.88C191.04,-109.46 191.04,-7 191.04,-7 191.04,-7 513.61,-7 513.61,-7"/>
<polygon fill="black" stroke="black" points="513.61,-10.5 523.61,-7 513.61,-3.5 513.61,-10.5"/>
</g>
<!-- :data:spotify&#45;&gt;:core:logging:api -->
<g id="edge35" class="edge">
<title>:data:spotify&#45;&gt;:core:logging:api</title>
<path fill="none" stroke="black" stroke-dasharray="1,5" d="M122.14,-137.37C122.14,-137.37 122.14,-44.7 122.14,-44.7"/>
<polygon fill="black" stroke="black" points="125.64,-44.7 122.14,-34.7 118.64,-44.7 125.64,-44.7"/>
</g>
<!-- :shared:strings -->
<g id="node15" class="node">
<title>:shared:strings</title>
<ellipse fill="#b59aff" stroke="black" cx="985.39" cy="-292" rx="81.49" ry="18"/>
<text text-anchor="middle" x="985.39" y="-288.3" font-family="Times,serif" font-size="14.00">:shared:strings</text>
</g>
<!-- :ui:core&#45;&gt;:shared:strings -->
<g id="edge36" class="edge">
<title>:ui:core&#45;&gt;:shared:strings</title>
<path fill="none" stroke="black" d="M1012.39,-410.81C1012.39,-410.81 1012.39,-319.4 1012.39,-319.4"/>
<polygon fill="black" stroke="black" points="1015.89,-319.4 1012.39,-309.4 1008.89,-319.4 1015.89,-319.4"/>
</g>
</g>
</svg>
