<?xml version="1.0" encoding="UTF-8" standalone="no"?>
<!DOCTYPE svg PUBLIC "-//W3C//DTD SVG 1.1//EN"
 "http://www.w3.org/Graphics/SVG/1.1/DTD/svg11.dtd">
<!-- Generated by graphviz version 2.43.0 (0)
 -->
<!-- Title: %3 Pages: 1 -->
<svg width="1031pt" height="1077pt"
 viewBox="0.00 0.00 1031.43 1077.00" xmlns="http://www.w3.org/2000/svg" xmlns:xlink="http://www.w3.org/1999/xlink">
<g id="graph0" class="graph" transform="scale(1 1) rotate(0) translate(4 1073)">
<title>%3</title>
<polygon fill="white" stroke="transparent" points="-4,4 -4,-1073 1027.43,-1073 1027.43,4 -4,4"/>
<text text-anchor="middle" x="511.72" y="-1041" font-family="Times,serif" font-size="30.00">Dependencies</text>
<text text-anchor="middle" x="511.72" y="-1008" font-family="Times,serif" font-size="30.00"> </text>
<!-- :shared:feature:database -->
<g id="node1" class="node">
<title>:shared:feature:database</title>
<polygon fill="#b59aff" stroke="black" points="751.09,-995 556.09,-995 556.09,-959 751.09,-959 751.09,-995"/>
<text text-anchor="middle" x="653.59" y="-973.3" font-family="Times,serif" font-size="14.00">:shared:feature:database</text>
</g>
<!-- :test&#45;data -->
<g id="node2" class="node">
<title>:test&#45;data</title>
<ellipse fill="#b59aff" stroke="black" cx="447.59" cy="-703" rx="55.49" ry="18"/>
<text text-anchor="middle" x="447.59" y="-699.3" font-family="Times,serif" font-size="14.00">:test&#45;data</text>
</g>
<!-- :shared:feature:database&#45;&gt;:test&#45;data -->
<g id="edge1" class="edge">
<title>:shared:feature:database&#45;&gt;:test&#45;data</title>
<path fill="none" stroke="#ff9ab1" stroke-dasharray="1,5" d="M567.14,-959C567.14,-898.91 567.14,-709 567.14,-709 567.14,-709 509.68,-709 509.68,-709"/>
<polygon fill="#ff9ab1" stroke="#ff9ab1" points="509.68,-705.5 499.68,-709 509.68,-712.5 509.68,-705.5"/>
</g>
<!-- :ui:test:screenshot -->
<g id="node3" class="node">
<title>:ui:test:screenshot</title>
<ellipse fill="#9affb5" stroke="black" cx="926.59" cy="-703" rx="96.68" ry="18"/>
<text text-anchor="middle" x="926.59" y="-699.3" font-family="Times,serif" font-size="14.00">:ui:test:screenshot</text>
</g>
<!-- :shared:feature:database&#45;&gt;:ui:test:screenshot -->
<g id="edge2" class="edge">
<title>:shared:feature:database&#45;&gt;:ui:test:screenshot</title>
<path fill="none" stroke="#ff9ab1" stroke-dasharray="1,5" d="M751.44,-977C840.74,-977 958.87,-977 958.87,-977 958.87,-977 958.87,-730.14 958.87,-730.14"/>
<polygon fill="#ff9ab1" stroke="#ff9ab1" points="962.37,-730.14 958.87,-720.14 955.37,-730.14 962.37,-730.14"/>
</g>
<!-- :ui:common -->
<g id="node4" class="node">
<title>:ui:common</title>
<ellipse fill="#b59aff" stroke="black" cx="653.59" cy="-840" rx="64.19" ry="18"/>
<text text-anchor="middle" x="653.59" y="-836.3" font-family="Times,serif" font-size="14.00">:ui:common</text>
</g>
<!-- :shared:feature:database&#45;&gt;:ui:common -->
<g id="edge3" class="edge">
<title>:shared:feature:database&#45;&gt;:ui:common</title>
<path fill="none" stroke="black" stroke-dasharray="1,5" d="M653.59,-958.81C653.59,-958.81 653.59,-868.27 653.59,-868.27"/>
<polygon fill="black" stroke="black" points="657.09,-868.27 653.59,-858.27 650.09,-868.27 657.09,-868.27"/>
</g>
<!-- :shared:domain -->
<g id="node5" class="node">
<title>:shared:domain</title>
<ellipse fill="#b59aff" stroke="black" cx="412.59" cy="-155" rx="82.59" ry="18"/>
<text text-anchor="middle" x="412.59" y="-151.3" font-family="Times,serif" font-size="14.00">:shared:domain</text>
</g>
<!-- :shared:feature:database&#45;&gt;:shared:domain -->
<g id="edge4" class="edge">
<title>:shared:feature:database&#45;&gt;:shared:domain</title>
<path fill="none" stroke="black" stroke-dasharray="1,5" d="M578.2,-958.88C578.2,-838.92 578.2,-164 578.2,-164 578.2,-164 494.26,-164 494.26,-164"/>
<polygon fill="black" stroke="black" points="494.26,-160.5 484.26,-164 494.26,-167.5 494.26,-160.5"/>
</g>
<!-- :ui:image -->
<g id="node6" class="node">
<title>:ui:image</title>
<ellipse fill="#b59aff" stroke="black" cx="719.59" cy="-703" rx="53.89" ry="18"/>
<text text-anchor="middle" x="719.59" y="-699.3" font-family="Times,serif" font-size="14.00">:ui:image</text>
</g>
<!-- :shared:feature:database&#45;&gt;:ui:image -->
<g id="edge5" class="edge">
<title>:shared:feature:database&#45;&gt;:ui:image</title>
<path fill="none" stroke="black" stroke-dasharray="1,5" d="M734.51,-958.6C734.51,-958.6 734.51,-730.61 734.51,-730.61"/>
<polygon fill="black" stroke="black" points="738.01,-730.61 734.51,-720.61 731.01,-730.61 738.01,-730.61"/>
</g>
<!-- :test&#45;data&#45;&gt;:shared:domain -->
<g id="edge6" class="edge">
<title>:test&#45;data&#45;&gt;:shared:domain</title>
<path fill="none" stroke="black" stroke-dasharray="1,5" d="M470.05,-686.3C470.05,-686.3 470.05,-178.25 470.05,-178.25"/>
<polygon fill="black" stroke="black" points="473.55,-178.25 470.05,-168.25 466.55,-178.25 473.55,-178.25"/>
</g>
<!-- :core:coroutines -->
<g id="node7" class="node">
<title>:core:coroutines</title>
<ellipse fill="#b59aff" stroke="black" cx="215.59" cy="-18" rx="85.29" ry="18"/>
<text text-anchor="middle" x="215.59" y="-14.3" font-family="Times,serif" font-size="14.00">:core:coroutines</text>
</g>
<!-- :test&#45;data&#45;&gt;:core:coroutines -->
<g id="edge7" class="edge">
<title>:test&#45;data&#45;&gt;:core:coroutines</title>
<path fill="none" stroke="black" stroke-dasharray="1,5" d="M498.99,-696.28C498.99,-625.76 498.99,-24 498.99,-24 498.99,-24 306.04,-24 306.04,-24"/>
<polygon fill="black" stroke="black" points="306.04,-20.5 296.04,-24 306.04,-27.5 306.04,-20.5"/>
</g>
<!-- :data:database -->
<g id="node8" class="node">
<title>:data:database</title>
<ellipse fill="#b59aff" stroke="black" cx="340.59" cy="-429" rx="79.09" ry="18"/>
<text text-anchor="middle" x="340.59" y="-425.3" font-family="Times,serif" font-size="14.00">:data:database</text>
</g>
<!-- :test&#45;data&#45;&gt;:data:database -->
<g id="edge8" class="edge">
<title>:test&#45;data&#45;&gt;:data:database</title>
<path fill="none" stroke="black" stroke-dasharray="1,5" d="M413,-688.65C413,-688.65 413,-446.81 413,-446.81"/>
<polygon fill="black" stroke="black" points="416.5,-446.81 413,-436.81 409.5,-446.81 416.5,-446.81"/>
</g>
<!-- :data:musicbrainz -->
<g id="node9" class="node">
<title>:data:musicbrainz</title>
<ellipse fill="#b59aff" stroke="black" cx="93.59" cy="-292" rx="93.68" ry="18"/>
<text text-anchor="middle" x="93.59" y="-288.3" font-family="Times,serif" font-size="14.00">:data:musicbrainz</text>
</g>
<!-- :test&#45;data&#45;&gt;:data:musicbrainz -->
<g id="edge9" class="edge">
<title>:test&#45;data&#45;&gt;:data:musicbrainz</title>
<path fill="none" stroke="black" stroke-dasharray="1,5" d="M391.98,-703C288.94,-703 78.77,-703 78.77,-703 78.77,-703 78.77,-319.92 78.77,-319.92"/>
<polygon fill="black" stroke="black" points="82.27,-319.92 78.77,-309.92 75.27,-319.92 82.27,-319.92"/>
</g>
<!-- :data:coverart -->
<g id="node10" class="node">
<title>:data:coverart</title>
<ellipse fill="#b59aff" stroke="black" cx="233.59" cy="-566" rx="76.09" ry="18"/>
<text text-anchor="middle" x="233.59" y="-562.3" font-family="Times,serif" font-size="14.00">:data:coverart</text>
</g>
<!-- :test&#45;data&#45;&gt;:data:coverart -->
<g id="edge10" class="edge">
<title>:test&#45;data&#45;&gt;:data:coverart</title>
<path fill="none" stroke="black" stroke-dasharray="1,5" d="M399.23,-694C399.23,-664.4 399.23,-572 399.23,-572 399.23,-572 315.76,-572 315.76,-572"/>
<polygon fill="black" stroke="black" points="315.76,-568.5 305.76,-572 315.76,-575.5 315.76,-568.5"/>
</g>
<!-- :data:spotify -->
<g id="node11" class="node">
<title>:data:spotify</title>
<ellipse fill="#b59aff" stroke="black" cx="312.59" cy="-292" rx="68.79" ry="18"/>
<text text-anchor="middle" x="312.59" y="-288.3" font-family="Times,serif" font-size="14.00">:data:spotify</text>
</g>
<!-- :test&#45;data&#45;&gt;:data:spotify -->
<g id="edge11" class="edge">
<title>:test&#45;data&#45;&gt;:data:spotify</title>
<path fill="none" stroke="black" stroke-dasharray="1,5" d="M444.97,-684.81C444.97,-605.27 444.97,-292 444.97,-292 444.97,-292 391.49,-292 391.49,-292"/>
<polygon fill="black" stroke="black" points="391.49,-288.5 381.49,-292 391.49,-295.5 391.49,-288.5"/>
</g>
<!-- :ui:core -->
<g id="node12" class="node">
<title>:ui:core</title>
<ellipse fill="#b59aff" stroke="black" cx="800.59" cy="-566" rx="45.49" ry="18"/>
<text text-anchor="middle" x="800.59" y="-562.3" font-family="Times,serif" font-size="14.00">:ui:core</text>
</g>
<!-- :ui:test:screenshot&#45;&gt;:ui:core -->
<g id="edge12" class="edge">
<title>:ui:test:screenshot&#45;&gt;:ui:core</title>
<path fill="none" stroke="black" stroke-dasharray="1,5" d="M837.92,-695.63C837.92,-695.63 837.92,-586.67 837.92,-586.67"/>
<polygon fill="black" stroke="black" points="841.42,-586.67 837.92,-576.67 834.42,-586.67 841.42,-586.67"/>
</g>
<!-- :test:image -->
<g id="node13" class="node">
<title>:test:image</title>
<ellipse fill="#9affb5" stroke="black" cx="927.59" cy="-566" rx="63.09" ry="18"/>
<text text-anchor="middle" x="927.59" y="-562.3" font-family="Times,serif" font-size="14.00">:test:image</text>
</g>
<!-- :ui:test:screenshot&#45;&gt;:test:image -->
<g id="edge13" class="edge">
<title>:ui:test:screenshot&#45;&gt;:test:image</title>
<path fill="none" stroke="black" stroke-dasharray="1,5" d="M927.59,-684.81C927.59,-684.81 927.59,-594.27 927.59,-594.27"/>
<polygon fill="black" stroke="black" points="931.09,-594.27 927.59,-584.27 924.09,-594.27 931.09,-594.27"/>
</g>
<!-- :ui:common&#45;&gt;:test&#45;data -->
<g id="edge14" class="edge">
<title>:ui:common&#45;&gt;:test&#45;data</title>
<path fill="none" stroke="#ff9ab1" stroke-dasharray="1,5" d="M604.53,-828.3C604.53,-794.15 604.53,-697 604.53,-697 604.53,-697 509.85,-697 509.85,-697"/>
<polygon fill="#ff9ab1" stroke="#ff9ab1" points="509.85,-693.5 499.85,-697 509.85,-700.5 509.85,-693.5"/>
</g>
<!-- :ui:common&#45;&gt;:ui:test:screenshot -->
<g id="edge15" class="edge">
<title>:ui:common&#45;&gt;:ui:test:screenshot</title>
<path fill="none" stroke="#ff9ab1" stroke-dasharray="1,5" d="M714.34,-846C785.65,-846 894.31,-846 894.31,-846 894.31,-846 894.31,-730.25 894.31,-730.25"/>
<polygon fill="#ff9ab1" stroke="#ff9ab1" points="897.81,-730.25 894.31,-720.25 890.81,-730.25 897.81,-730.25"/>
</g>
<!-- :ui:common&#45;&gt;:shared:domain -->
<g id="edge17" class="edge">
<title>:ui:common&#45;&gt;:shared:domain</title>
<path fill="none" stroke="black" d="M635.09,-822.72C635.09,-716.37 635.09,-155 635.09,-155 635.09,-155 505.44,-155 505.44,-155"/>
<polygon fill="black" stroke="black" points="505.44,-151.5 495.44,-155 505.44,-158.5 505.44,-151.5"/>
</g>
<!-- :ui:common&#45;&gt;:ui:image -->
<g id="edge20" class="edge">
<title>:ui:common&#45;&gt;:ui:image</title>
<path fill="none" stroke="black" stroke-dasharray="1,5" d="M691.79,-825.34C691.79,-825.34 691.79,-728.82 691.79,-728.82"/>
<polygon fill="black" stroke="black" points="695.29,-728.82 691.79,-718.82 688.29,-728.82 695.29,-728.82"/>
</g>
<!-- :ui:common&#45;&gt;:core:coroutines -->
<g id="edge16" class="edge">
<title>:ui:common&#45;&gt;:core:coroutines</title>
<path fill="none" stroke="#ff9ab1" stroke-dasharray="1,5" d="M650.37,-821.94C650.37,-700.85 650.37,-12 650.37,-12 650.37,-12 306.1,-12 306.1,-12"/>
<polygon fill="#ff9ab1" stroke="#ff9ab1" points="306.1,-8.5 296.1,-12 306.1,-15.5 306.1,-8.5"/>
</g>
<!-- :ui:common&#45;&gt;:ui:core -->
<g id="edge18" class="edge">
<title>:ui:common&#45;&gt;:ui:core</title>
<path fill="none" stroke="black" d="M714.66,-834C755.45,-834 801.64,-834 801.64,-834 801.64,-834 801.64,-594 801.64,-594"/>
<polygon fill="black" stroke="black" points="805.14,-594 801.64,-584 798.14,-594 805.14,-594"/>
</g>
<!-- :core:logging:api -->
<g id="node14" class="node">
<title>:core:logging:api</title>
<ellipse fill="#b59aff" stroke="black" cx="93.59" cy="-155" rx="88.28" ry="18"/>
<text text-anchor="middle" x="93.59" y="-151.3" font-family="Times,serif" font-size="14.00">:core:logging:api</text>
</g>
<!-- :ui:common&#45;&gt;:core:logging:api -->
<g id="edge19" class="edge">
<title>:ui:common&#45;&gt;:core:logging:api</title>
<path fill="none" stroke="black" stroke-dasharray="1,5" d="M619.81,-824.44C619.81,-728.64 619.81,-223 619.81,-223 619.81,-223 123.06,-223 123.06,-223 123.06,-223 123.06,-182.16 123.06,-182.16"/>
<polygon fill="black" stroke="black" points="126.56,-182.16 123.06,-172.16 119.56,-182.16 126.56,-182.16"/>
</g>
<!-- :ui:image&#45;&gt;:shared:domain -->
<g id="edge21" class="edge">
<title>:ui:image&#45;&gt;:shared:domain</title>
<path fill="none" stroke="black" stroke-dasharray="1,5" d="M692.5,-687.23C692.5,-596.58 692.5,-146 692.5,-146 692.5,-146 494.31,-146 494.31,-146"/>
<polygon fill="black" stroke="black" points="494.31,-142.5 484.31,-146 494.31,-149.5 494.31,-142.5"/>
</g>
<!-- :ui:image&#45;&gt;:ui:core -->
<g id="edge22" class="edge">
<title>:ui:image&#45;&gt;:ui:core</title>
<path fill="none" stroke="black" stroke-dasharray="1,5" d="M764.32,-692.7C764.32,-692.7 764.32,-587.18 764.32,-587.18"/>
<polygon fill="black" stroke="black" points="767.82,-587.18 764.32,-577.18 760.82,-587.18 767.82,-587.18"/>
</g>
<!-- :data:database&#45;&gt;:shared:domain -->
<g id="edge23" class="edge">
<title>:data:database&#45;&gt;:shared:domain</title>
<path fill="none" stroke="black" stroke-dasharray="1,5" d="M400.69,-417.23C400.69,-417.23 400.69,-182.82 400.69,-182.82"/>
<polygon fill="black" stroke="black" points="404.19,-182.82 400.69,-172.82 397.19,-182.82 404.19,-182.82"/>
</g>
<!-- :data:database&#45;&gt;:core:coroutines -->
<g id="edge24" class="edge">
<title>:data:database&#45;&gt;:core:coroutines</title>
<path fill="none" stroke="black" stroke-dasharray="1,5" d="M265.6,-423C248.01,-423 234.28,-423 234.28,-423 234.28,-423 234.28,-45.66 234.28,-45.66"/>
<polygon fill="black" stroke="black" points="237.78,-45.66 234.28,-35.66 230.78,-45.66 237.78,-45.66"/>
</g>
<!-- :data:database&#45;&gt;:data:musicbrainz -->
<g id="edge25" class="edge">
<title>:data:database&#45;&gt;:data:musicbrainz</title>
<path fill="none" stroke="black" stroke-dasharray="1,5" d="M265.64,-435C222.71,-435 177.31,-435 177.31,-435 177.31,-435 177.31,-310.1 177.31,-310.1"/>
<polygon fill="black" stroke="black" points="180.81,-310.1 177.31,-300.1 173.81,-310.1 180.81,-310.1"/>
</g>
<!-- :data:musicbrainz&#45;&gt;:shared:domain -->
<g id="edge26" class="edge">
<title>:data:musicbrainz&#45;&gt;:shared:domain</title>
<path fill="none" stroke="black" stroke-dasharray="1,5" d="M187.46,-292C193.13,-292 196.6,-292 196.6,-292 196.6,-292 196.6,-151 196.6,-151 196.6,-151 321.86,-151 321.86,-151"/>
<polygon fill="black" stroke="black" points="321.86,-154.5 331.86,-151 321.86,-147.5 321.86,-154.5"/>
</g>
<!-- :data:musicbrainz&#45;&gt;:core:logging:api -->
<g id="edge27" class="edge">
<title>:data:musicbrainz&#45;&gt;:core:logging:api</title>
<path fill="none" stroke="black" stroke-dasharray="1,5" d="M64.13,-274.65C64.13,-274.65 64.13,-182.21 64.13,-182.21"/>
<polygon fill="black" stroke="black" points="67.63,-182.21 64.13,-172.21 60.63,-182.21 67.63,-182.21"/>
</g>
<!-- :data:coverart&#45;&gt;:test&#45;data -->
<g id="edge31" class="edge">
<title>:data:coverart&#45;&gt;:test&#45;data</title>
<path fill="none" stroke="#ff9ab1" stroke-dasharray="1,5" d="M305.76,-560C353.03,-560 406.12,-560 406.12,-560 406.12,-560 406.12,-680.81 406.12,-680.81"/>
<polygon fill="#ff9ab1" stroke="#ff9ab1" points="402.62,-680.81 406.12,-690.81 409.62,-680.81 402.62,-680.81"/>
</g>
<!-- :data:coverart&#45;&gt;:shared:domain -->
<g id="edge28" class="edge">
<title>:data:coverart&#45;&gt;:shared:domain</title>
<path fill="none" stroke="black" stroke-dasharray="1,5" d="M224.86,-547.99C224.86,-469.96 224.86,-165 224.86,-165 224.86,-165 333.75,-165 333.75,-165"/>
<polygon fill="black" stroke="black" points="333.75,-168.5 343.75,-165 333.75,-161.5 333.75,-168.5"/>
</g>
<!-- :data:coverart&#45;&gt;:core:coroutines -->
<g id="edge30" class="edge">
<title>:data:coverart&#45;&gt;:core:coroutines</title>
<path fill="none" stroke="black" stroke-dasharray="1,5" d="M215.44,-548.39C215.44,-548.39 215.44,-46.1 215.44,-46.1"/>
<polygon fill="black" stroke="black" points="218.94,-46.1 215.44,-36.1 211.94,-46.1 218.94,-46.1"/>
</g>
<!-- :data:coverart&#45;&gt;:data:database -->
<g id="edge33" class="edge">
<title>:data:coverart&#45;&gt;:data:database</title>
<path fill="none" stroke="#ff9ab1" stroke-dasharray="1,5" d="M285.47,-552.61C285.47,-552.61 285.47,-452.24 285.47,-452.24"/>
<polygon fill="#ff9ab1" stroke="#ff9ab1" points="288.97,-452.24 285.47,-442.24 281.97,-452.24 288.97,-452.24"/>
</g>
<!-- :data:coverart&#45;&gt;:data:musicbrainz -->
<g id="edge32" class="edge">
<title>:data:coverart&#45;&gt;:data:musicbrainz</title>
<path fill="none" stroke="#ff9ab1" stroke-dasharray="1,5" d="M167.43,-556.88C167.43,-556.88 167.43,-313.2 167.43,-313.2"/>
<polygon fill="#ff9ab1" stroke="#ff9ab1" points="170.93,-313.2 167.43,-303.2 163.93,-313.2 170.93,-313.2"/>
</g>
<!-- :data:coverart&#45;&gt;:core:logging:api -->
<g id="edge29" class="edge">
<title>:data:coverart&#45;&gt;:core:logging:api</title>
<path fill="none" stroke="black" stroke-dasharray="1,5" d="M206.02,-548.99C206.02,-471.77 206.02,-158 206.02,-158 206.02,-158 190.79,-158 190.79,-158"/>
<polygon fill="black" stroke="black" points="190.79,-154.5 180.79,-158 190.79,-161.5 190.79,-154.5"/>
</g>
<!-- :data:spotify&#45;&gt;:shared:domain -->
<g id="edge34" class="edge">
<title>:data:spotify&#45;&gt;:shared:domain</title>
<path fill="none" stroke="black" stroke-dasharray="1,5" d="M355.77,-277.85C355.77,-277.85 355.77,-178.06 355.77,-178.06"/>
<polygon fill="black" stroke="black" points="359.27,-178.06 355.77,-168.06 352.27,-178.06 359.27,-178.06"/>
</g>
<!-- :data:spotify&#45;&gt;:core:logging:api -->
<g id="edge35" class="edge">
<title>:data:spotify&#45;&gt;:core:logging:api</title>
<path fill="none" stroke="black" stroke-dasharray="1,5" d="M272.22,-277.27C272.22,-239.83 272.22,-144 272.22,-144 272.22,-144 173.68,-144 173.68,-144"/>
<polygon fill="black" stroke="black" points="173.68,-140.5 163.68,-144 173.68,-147.5 173.68,-140.5"/>
</g>
<!-- :shared:strings -->
<g id="node15" class="node">
<title>:shared:strings</title>
<ellipse fill="#b59aff" stroke="black" cx="800.59" cy="-429" rx="81.49" ry="18"/>
<text text-anchor="middle" x="800.59" y="-425.3" font-family="Times,serif" font-size="14.00">:shared:strings</text>
</g>
<!-- :ui:core&#45;&gt;:shared:strings -->
<g id="edge36" class="edge">
<title>:ui:core&#45;&gt;:shared:strings</title>
<path fill="none" stroke="black" d="M800.59,-547.81C800.59,-547.81 800.59,-457.27 800.59,-457.27"/>
<polygon fill="black" stroke="black" points="804.09,-457.27 800.59,-447.27 797.09,-457.27 804.09,-457.27"/>
</g>
<!-- :core:logging:api&#45;&gt;:core:coroutines -->
<g id="edge37" class="edge">
<title>:core:logging:api&#45;&gt;:core:coroutines</title>
<path fill="none" stroke="black" d="M156.22,-142.11C156.22,-142.11 156.22,-40.95 156.22,-40.95"/>
<polygon fill="black" stroke="black" points="159.72,-40.95 156.22,-30.95 152.72,-40.95 159.72,-40.95"/>
</g>
</g>
</svg>
