<?xml version="1.0" encoding="UTF-8" standalone="no"?>
<!DOCTYPE svg PUBLIC "-//W3C//DTD SVG 1.1//EN"
 "http://www.w3.org/Graphics/SVG/1.1/DTD/svg11.dtd">
<!-- Generated by graphviz version 2.43.0 (0)
 -->
<!-- Title: %3 Pages: 1 -->
<svg width="1144pt" height="940pt"
 viewBox="0.00 0.00 1143.74 940.00" xmlns="http://www.w3.org/2000/svg" xmlns:xlink="http://www.w3.org/1999/xlink">
<g id="graph0" class="graph" transform="scale(1 1) rotate(0) translate(4 936)">
<title>%3</title>
<polygon fill="white" stroke="transparent" points="-4,4 -4,-936 1139.74,-936 1139.74,4 -4,4"/>
<text text-anchor="middle" x="567.87" y="-904" font-family="Times,serif" font-size="30.00">Dependencies</text>
<text text-anchor="middle" x="567.87" y="-871" font-family="Times,serif" font-size="30.00"> </text>
<!-- :shared:feature:database -->
<g id="node1" class="node">
<title>:shared:feature:database</title>
<polygon fill="#b59aff" stroke="black" points="934.39,-858 739.39,-858 739.39,-822 934.39,-822 934.39,-858"/>
<text text-anchor="middle" x="836.89" y="-836.3" font-family="Times,serif" font-size="14.00">:shared:feature:database</text>
</g>
<!-- :test&#45;data -->
<g id="node2" class="node">
<title>:test&#45;data</title>
<ellipse fill="#b59aff" stroke="black" cx="493.89" cy="-566" rx="55.49" ry="18"/>
<text text-anchor="middle" x="493.89" y="-562.3" font-family="Times,serif" font-size="14.00">:test&#45;data</text>
</g>
<!-- :shared:feature:database&#45;&gt;:test&#45;data -->
<g id="edge1" class="edge">
<title>:shared:feature:database&#45;&gt;:test&#45;data</title>
<path fill="none" stroke="#ff9ab1" stroke-dasharray="1,5" d="M739.06,-846C637.68,-846 493.89,-846 493.89,-846 493.89,-846 493.89,-594.37 493.89,-594.37"/>
<polygon fill="#ff9ab1" stroke="#ff9ab1" points="497.39,-594.37 493.89,-584.37 490.39,-594.37 497.39,-594.37"/>
</g>
<!-- :ui:test:screenshot -->
<g id="node3" class="node">
<title>:ui:test:screenshot</title>
<ellipse fill="#9affb5" stroke="black" cx="1038.89" cy="-566" rx="96.68" ry="18"/>
<text text-anchor="middle" x="1038.89" y="-562.3" font-family="Times,serif" font-size="14.00">:ui:test:screenshot</text>
</g>
<!-- :shared:feature:database&#45;&gt;:ui:test:screenshot -->
<g id="edge2" class="edge">
<title>:shared:feature:database&#45;&gt;:ui:test:screenshot</title>
<path fill="none" stroke="#ff9ab1" stroke-dasharray="1,5" d="M918.21,-821.6C918.21,-760.16 918.21,-566 918.21,-566 918.21,-566 932.05,-566 932.05,-566"/>
<polygon fill="#ff9ab1" stroke="#ff9ab1" points="932.05,-569.5 942.05,-566 932.05,-562.5 932.05,-569.5"/>
</g>
<!-- :ui:common -->
<g id="node4" class="node">
<title>:ui:common</title>
<ellipse fill="#b59aff" stroke="black" cx="744.89" cy="-703" rx="64.19" ry="18"/>
<text text-anchor="middle" x="744.89" y="-699.3" font-family="Times,serif" font-size="14.00">:ui:common</text>
</g>
<!-- :shared:feature:database&#45;&gt;:ui:common -->
<g id="edge3" class="edge">
<title>:shared:feature:database&#45;&gt;:ui:common</title>
<path fill="none" stroke="black" stroke-dasharray="1,5" d="M774.32,-821.81C774.32,-821.81 774.32,-729.13 774.32,-729.13"/>
<polygon fill="black" stroke="black" points="777.82,-729.13 774.32,-719.13 770.82,-729.13 777.82,-729.13"/>
</g>
<!-- :shared:domain -->
<g id="node5" class="node">
<title>:shared:domain</title>
<ellipse fill="#b59aff" stroke="black" cx="654.89" cy="-18" rx="82.59" ry="18"/>
<text text-anchor="middle" x="654.89" y="-14.3" font-family="Times,serif" font-size="14.00">:shared:domain</text>
</g>
<!-- :shared:feature:database&#45;&gt;:shared:domain -->
<g id="edge4" class="edge">
<title>:shared:feature:database&#45;&gt;:shared:domain</title>
<path fill="none" stroke="black" stroke-dasharray="1,5" d="M738.93,-834C700.74,-834 665.94,-834 665.94,-834 665.94,-834 665.94,-46.19 665.94,-46.19"/>
<polygon fill="black" stroke="black" points="669.44,-46.19 665.94,-36.19 662.44,-46.19 669.44,-46.19"/>
</g>
<!-- :ui:image -->
<g id="node6" class="node">
<title>:ui:image</title>
<ellipse fill="#b59aff" stroke="black" cx="831.89" cy="-566" rx="53.89" ry="18"/>
<text text-anchor="middle" x="831.89" y="-562.3" font-family="Times,serif" font-size="14.00">:ui:image</text>
</g>
<!-- :shared:feature:database&#45;&gt;:ui:image -->
<g id="edge5" class="edge">
<title>:shared:feature:database&#45;&gt;:ui:image</title>
<path fill="none" stroke="black" stroke-dasharray="1,5" d="M847.54,-821.6C847.54,-821.6 847.54,-593.26 847.54,-593.26"/>
<polygon fill="black" stroke="black" points="851.04,-593.26 847.54,-583.26 844.04,-593.26 851.04,-593.26"/>
</g>
<!-- :test&#45;data&#45;&gt;:shared:domain -->
<g id="edge6" class="edge">
<title>:test&#45;data&#45;&gt;:shared:domain</title>
<path fill="none" stroke="black" stroke-dasharray="1,5" d="M549.4,-566C594.72,-566 651.32,-566 651.32,-566 651.32,-566 651.32,-46.23 651.32,-46.23"/>
<polygon fill="black" stroke="black" points="654.82,-46.23 651.32,-36.23 647.82,-46.23 654.82,-46.23"/>
</g>
<!-- :core:coroutines -->
<g id="node7" class="node">
<title>:core:coroutines</title>
<ellipse fill="#b59aff" stroke="black" cx="240.89" cy="-155" rx="85.29" ry="18"/>
<text text-anchor="middle" x="240.89" y="-151.3" font-family="Times,serif" font-size="14.00">:core:coroutines</text>
</g>
<!-- :test&#45;data&#45;&gt;:core:coroutines -->
<g id="edge7" class="edge">
<title>:test&#45;data&#45;&gt;:core:coroutines</title>
<path fill="none" stroke="black" stroke-dasharray="1,5" d="M438.37,-566C363.9,-566 240.89,-566 240.89,-566 240.89,-566 240.89,-183.19 240.89,-183.19"/>
<polygon fill="black" stroke="black" points="244.39,-183.19 240.89,-173.19 237.39,-183.19 244.39,-183.19"/>
</g>
<!-- :data:database -->
<g id="node8" class="node">
<title>:data:database</title>
<ellipse fill="#b59aff" stroke="black" cx="452.89" cy="-292" rx="79.09" ry="18"/>
<text text-anchor="middle" x="452.89" y="-288.3" font-family="Times,serif" font-size="14.00">:data:database</text>
</g>
<!-- :test&#45;data&#45;&gt;:data:database -->
<g id="edge8" class="edge">
<title>:test&#45;data&#45;&gt;:data:database</title>
<path fill="none" stroke="black" stroke-dasharray="1,5" d="M445.96,-557C421.04,-557 395.73,-557 395.73,-557 395.73,-557 395.73,-314.78 395.73,-314.78"/>
<polygon fill="black" stroke="black" points="399.23,-314.78 395.73,-304.78 392.23,-314.78 399.23,-314.78"/>
</g>
<!-- :data:musicbrainz -->
<g id="node9" class="node">
<title>:data:musicbrainz</title>
<ellipse fill="#b59aff" stroke="black" cx="513.89" cy="-155" rx="93.68" ry="18"/>
<text text-anchor="middle" x="513.89" y="-151.3" font-family="Times,serif" font-size="14.00">:data:musicbrainz</text>
</g>
<!-- :test&#45;data&#45;&gt;:data:musicbrainz -->
<g id="edge9" class="edge">
<title>:test&#45;data&#45;&gt;:data:musicbrainz</title>
<path fill="none" stroke="black" stroke-dasharray="1,5" d="M541.8,-557C562.67,-557 582.45,-557 582.45,-557 582.45,-557 582.45,-177.47 582.45,-177.47"/>
<polygon fill="black" stroke="black" points="585.95,-177.47 582.45,-167.47 578.95,-177.47 585.95,-177.47"/>
</g>
<!-- :data:coverart -->
<g id="node10" class="node">
<title>:data:coverart</title>
<ellipse fill="#b59aff" stroke="black" cx="493.89" cy="-429" rx="76.09" ry="18"/>
<text text-anchor="middle" x="493.89" y="-425.3" font-family="Times,serif" font-size="14.00">:data:coverart</text>
</g>
<!-- :test&#45;data&#45;&gt;:data:coverart -->
<g id="edge10" class="edge">
<title>:test&#45;data&#45;&gt;:data:coverart</title>
<path fill="none" stroke="black" stroke-dasharray="1,5" d="M475.48,-548.93C475.48,-548.93 475.48,-456.72 475.48,-456.72"/>
<polygon fill="black" stroke="black" points="478.98,-456.72 475.48,-446.72 471.98,-456.72 478.98,-456.72"/>
</g>
<!-- :data:spotify -->
<g id="node11" class="node">
<title>:data:spotify</title>
<ellipse fill="#b59aff" stroke="black" cx="68.89" cy="-155" rx="68.79" ry="18"/>
<text text-anchor="middle" x="68.89" y="-151.3" font-family="Times,serif" font-size="14.00">:data:spotify</text>
</g>
<!-- :test&#45;data&#45;&gt;:data:spotify -->
<g id="edge11" class="edge">
<title>:test&#45;data&#45;&gt;:data:spotify</title>
<path fill="none" stroke="black" stroke-dasharray="1,5" d="M445.97,-575C334.82,-575 68.89,-575 68.89,-575 68.89,-575 68.89,-183.05 68.89,-183.05"/>
<polygon fill="black" stroke="black" points="72.39,-183.05 68.89,-173.05 65.39,-183.05 72.39,-183.05"/>
</g>
<!-- :ui:core -->
<g id="node12" class="node">
<title>:ui:core</title>
<ellipse fill="#b59aff" stroke="black" cx="912.89" cy="-429" rx="45.49" ry="18"/>
<text text-anchor="middle" x="912.89" y="-425.3" font-family="Times,serif" font-size="14.00">:ui:core</text>
</g>
<!-- :ui:test:screenshot&#45;&gt;:ui:core -->
<g id="edge12" class="edge">
<title>:ui:test:screenshot&#45;&gt;:ui:core</title>
<path fill="none" stroke="black" stroke-dasharray="1,5" d="M950.22,-558.63C950.22,-558.63 950.22,-449.67 950.22,-449.67"/>
<polygon fill="black" stroke="black" points="953.72,-449.67 950.22,-439.67 946.72,-449.67 953.72,-449.67"/>
</g>
<!-- :test:image -->
<g id="node13" class="node">
<title>:test:image</title>
<ellipse fill="#9affb5" stroke="black" cx="1039.89" cy="-429" rx="63.09" ry="18"/>
<text text-anchor="middle" x="1039.89" y="-425.3" font-family="Times,serif" font-size="14.00">:test:image</text>
</g>
<!-- :ui:test:screenshot&#45;&gt;:test:image -->
<g id="edge13" class="edge">
<title>:ui:test:screenshot&#45;&gt;:test:image</title>
<path fill="none" stroke="black" stroke-dasharray="1,5" d="M1039.89,-547.81C1039.89,-547.81 1039.89,-457.27 1039.89,-457.27"/>
<polygon fill="black" stroke="black" points="1043.39,-457.27 1039.89,-447.27 1036.39,-457.27 1043.39,-457.27"/>
</g>
<!-- :ui:common&#45;&gt;:test&#45;data -->
<g id="edge14" class="edge">
<title>:ui:common&#45;&gt;:test&#45;data</title>
<path fill="none" stroke="#ff9ab1" stroke-dasharray="1,5" d="M699.51,-689.78C699.51,-657.08 699.51,-575 699.51,-575 699.51,-575 551.84,-575 551.84,-575"/>
<polygon fill="#ff9ab1" stroke="#ff9ab1" points="551.84,-571.5 541.84,-575 551.84,-578.5 551.84,-571.5"/>
</g>
<!-- :ui:common&#45;&gt;:ui:test:screenshot -->
<g id="edge15" class="edge">
<title>:ui:common&#45;&gt;:ui:test:screenshot</title>
<path fill="none" stroke="#ff9ab1" stroke-dasharray="1,5" d="M805.81,-709C891.93,-709 1038.89,-709 1038.89,-709 1038.89,-709 1038.89,-594.11 1038.89,-594.11"/>
<polygon fill="#ff9ab1" stroke="#ff9ab1" points="1042.39,-594.11 1038.89,-584.11 1035.39,-594.11 1042.39,-594.11"/>
</g>
<!-- :ui:common&#45;&gt;:shared:domain -->
<g id="edge17" class="edge">
<title>:ui:common&#45;&gt;:shared:domain</title>
<path fill="none" stroke="black" d="M718.47,-686.41C718.47,-686.41 718.47,-39.58 718.47,-39.58"/>
<polygon fill="black" stroke="black" points="721.97,-39.58 718.47,-29.58 714.97,-39.58 721.97,-39.58"/>
</g>
<!-- :ui:common&#45;&gt;:ui:image -->
<g id="edge20" class="edge">
<title>:ui:common&#45;&gt;:ui:image</title>
<path fill="none" stroke="black" stroke-dasharray="1,5" d="M793.59,-690.84C793.59,-690.84 793.59,-588.73 793.59,-588.73"/>
<polygon fill="black" stroke="black" points="797.09,-588.73 793.59,-578.73 790.09,-588.73 797.09,-588.73"/>
</g>
<!-- :ui:common&#45;&gt;:core:coroutines -->
<g id="edge16" class="edge">
<title>:ui:common&#45;&gt;:core:coroutines</title>
<path fill="none" stroke="#ff9ab1" stroke-dasharray="1,5" d="M680.32,-703C535.69,-703 198.32,-703 198.32,-703 198.32,-703 198.32,-180.81 198.32,-180.81"/>
<polygon fill="#ff9ab1" stroke="#ff9ab1" points="201.82,-180.81 198.32,-170.81 194.82,-180.81 201.82,-180.81"/>
</g>
<!-- :ui:common&#45;&gt;:data:musicbrainz -->
<g id="edge21" class="edge">
<title>:ui:common&#45;&gt;:data:musicbrainz</title>
<path fill="none" stroke="black" stroke-dasharray="1,5" d="M689.07,-694C646.44,-694 594.97,-694 594.97,-694 594.97,-694 594.97,-174.36 594.97,-174.36"/>
<polygon fill="black" stroke="black" points="598.47,-174.36 594.97,-164.36 591.47,-174.36 598.47,-174.36"/>
</g>
<!-- :ui:common&#45;&gt;:ui:core -->
<g id="edge18" class="edge">
<title>:ui:common&#45;&gt;:ui:core</title>
<path fill="none" stroke="black" d="M805.64,-697C849.86,-697 902.02,-697 902.02,-697 902.02,-697 902.02,-456.58 902.02,-456.58"/>
<polygon fill="black" stroke="black" points="905.52,-456.58 902.02,-446.58 898.52,-456.58 905.52,-456.58"/>
</g>
<!-- :core:logging:api -->
<g id="node14" class="node">
<title>:core:logging:api</title>
<ellipse fill="#b59aff" stroke="black" cx="211.89" cy="-18" rx="88.28" ry="18"/>
<text text-anchor="middle" x="211.89" y="-14.3" font-family="Times,serif" font-size="14.00">:core:logging:api</text>
</g>
<!-- :ui:common&#45;&gt;:core:logging:api -->
<g id="edge19" class="edge">
<title>:ui:common&#45;&gt;:core:logging:api</title>
<path fill="none" stroke="black" stroke-dasharray="1,5" d="M689.15,-712C540.13,-712 143.78,-712 143.78,-712 143.78,-712 143.78,-39.75 143.78,-39.75"/>
<polygon fill="black" stroke="black" points="147.28,-39.75 143.78,-29.75 140.28,-39.75 147.28,-39.75"/>
</g>
<!-- :ui:image&#45;&gt;:shared:domain -->
<g id="edge22" class="edge">
<title>:ui:image&#45;&gt;:shared:domain</title>
<path fill="none" stroke="black" stroke-dasharray="1,5" d="M804.8,-550.19C804.8,-460.34 804.8,-18 804.8,-18 804.8,-18 747.74,-18 747.74,-18"/>
<polygon fill="black" stroke="black" points="747.74,-14.5 737.74,-18 747.74,-21.5 747.74,-14.5"/>
</g>
<!-- :ui:image&#45;&gt;:ui:core -->
<g id="edge23" class="edge">
<title>:ui:image&#45;&gt;:ui:core</title>
<path fill="none" stroke="black" stroke-dasharray="1,5" d="M876.62,-555.7C876.62,-555.7 876.62,-450.18 876.62,-450.18"/>
<polygon fill="black" stroke="black" points="880.12,-450.18 876.62,-440.18 873.12,-450.18 880.12,-450.18"/>
</g>
<!-- :data:database&#45;&gt;:shared:domain -->
<g id="edge24" class="edge">
<title>:data:database&#45;&gt;:shared:domain</title>
<path fill="none" stroke="black" stroke-dasharray="1,5" d="M532.54,-292C576.43,-292 622.1,-292 622.1,-292 622.1,-292 622.1,-44.73 622.1,-44.73"/>
<polygon fill="black" stroke="black" points="625.6,-44.73 622.1,-34.73 618.6,-44.73 625.6,-44.73"/>
</g>
<!-- :data:database&#45;&gt;:core:coroutines -->
<g id="edge25" class="edge">
<title>:data:database&#45;&gt;:core:coroutines</title>
<path fill="none" stroke="black" stroke-dasharray="1,5" d="M396.95,-279.11C396.95,-245.01 396.95,-155 396.95,-155 396.95,-155 336.23,-155 336.23,-155"/>
<polygon fill="black" stroke="black" points="336.23,-151.5 326.23,-155 336.23,-158.5 336.23,-151.5"/>
</g>
<!-- :data:database&#45;&gt;:data:musicbrainz -->
<g id="edge26" class="edge">
<title>:data:database&#45;&gt;:data:musicbrainz</title>
<path fill="none" stroke="black" stroke-dasharray="1,5" d="M476.24,-274.65C476.24,-274.65 476.24,-181.78 476.24,-181.78"/>
<polygon fill="black" stroke="black" points="479.74,-181.78 476.24,-171.78 472.74,-181.78 479.74,-181.78"/>
</g>
<!-- :data:musicbrainz&#45;&gt;:shared:domain -->
<g id="edge27" class="edge">
<title>:data:musicbrainz&#45;&gt;:shared:domain</title>
<path fill="none" stroke="black" stroke-dasharray="1,5" d="M595.77,-146.01C595.77,-146.01 595.77,-40.69 595.77,-40.69"/>
<polygon fill="black" stroke="black" points="599.27,-40.69 595.77,-30.69 592.27,-40.69 599.27,-40.69"/>
</g>
<!-- :data:musicbrainz&#45;&gt;:core:logging:api -->
<g id="edge28" class="edge">
<title>:data:musicbrainz&#45;&gt;:core:logging:api</title>
<path fill="none" stroke="black" stroke-dasharray="1,5" d="M496.33,-137.09C496.33,-99.95 496.33,-18 496.33,-18 496.33,-18 310.33,-18 310.33,-18"/>
<polygon fill="black" stroke="black" points="310.33,-14.5 300.33,-18 310.33,-21.5 310.33,-14.5"/>
</g>
<!-- :data:coverart&#45;&gt;:test&#45;data -->
<g id="edge32" class="edge">
<title>:data:coverart&#45;&gt;:test&#45;data</title>
<path fill="none" stroke="#ff9ab1" stroke-dasharray="1,5" d="M512.31,-446.63C512.31,-446.63 512.31,-538.87 512.31,-538.87"/>
<polygon fill="#ff9ab1" stroke="#ff9ab1" points="508.81,-538.87 512.31,-548.87 515.81,-538.87 508.81,-538.87"/>
</g>
<!-- :data:coverart&#45;&gt;:shared:domain -->
<g id="edge29" class="edge">
<title>:data:coverart&#45;&gt;:shared:domain</title>
<path fill="none" stroke="black" stroke-dasharray="1,5" d="M570.32,-429C604.28,-429 636.71,-429 636.71,-429 636.71,-429 636.71,-45.66 636.71,-45.66"/>
<polygon fill="black" stroke="black" points="640.21,-45.66 636.71,-35.66 633.21,-45.66 640.21,-45.66"/>
</g>
<!-- :data:coverart&#45;&gt;:core:coroutines -->
<g id="edge31" class="edge">
<title>:data:coverart&#45;&gt;:core:coroutines</title>
<path fill="none" stroke="black" stroke-dasharray="1,5" d="M422.06,-423C361.11,-423 283.47,-423 283.47,-423 283.47,-423 283.47,-180.96 283.47,-180.96"/>
<polygon fill="black" stroke="black" points="286.97,-180.96 283.47,-170.96 279.97,-180.96 286.97,-180.96"/>
</g>
<!-- :data:coverart&#45;&gt;:data:database -->
<g id="edge34" class="edge">
<title>:data:coverart&#45;&gt;:data:database</title>
<path fill="none" stroke="#ff9ab1" stroke-dasharray="1,5" d="M475.02,-411.37C475.02,-411.37 475.02,-319.56 475.02,-319.56"/>
<polygon fill="#ff9ab1" stroke="#ff9ab1" points="478.52,-319.56 475.02,-309.56 471.52,-319.56 478.52,-319.56"/>
</g>
<!-- :data:coverart&#45;&gt;:data:musicbrainz -->
<g id="edge33" class="edge">
<title>:data:coverart&#45;&gt;:data:musicbrainz</title>
<path fill="none" stroke="#ff9ab1" stroke-dasharray="1,5" d="M551.06,-416.87C551.06,-416.87 551.06,-181.66 551.06,-181.66"/>
<polygon fill="#ff9ab1" stroke="#ff9ab1" points="554.56,-181.66 551.06,-171.66 547.56,-181.66 554.56,-181.66"/>
</g>
<!-- :data:coverart&#45;&gt;:core:logging:api -->
<g id="edge30" class="edge">
<title>:data:coverart&#45;&gt;:core:logging:api</title>
<path fill="none" stroke="black" stroke-dasharray="1,5" d="M422.17,-435C321.32,-435 149.76,-435 149.76,-435 149.76,-435 149.76,-40.94 149.76,-40.94"/>
<polygon fill="black" stroke="black" points="153.26,-40.94 149.76,-30.94 146.26,-40.94 153.26,-40.94"/>
</g>
<!-- :data:spotify&#45;&gt;:shared:domain -->
<g id="edge35" class="edge">
<title>:data:spotify&#45;&gt;:shared:domain</title>
<path fill="none" stroke="black" stroke-dasharray="1,5" d="M133.03,-148.38C133.03,-131.11 133.03,-86 133.03,-86 133.03,-86 584.06,-86 584.06,-86 584.06,-86 584.06,-37.46 584.06,-37.46"/>
<polygon fill="black" stroke="black" points="587.56,-37.46 584.06,-27.46 580.56,-37.46 587.56,-37.46"/>
</g>
<!-- :data:spotify&#45;&gt;:core:logging:api -->
<g id="edge36" class="edge">
<title>:data:spotify&#45;&gt;:core:logging:api</title>
<path fill="none" stroke="black" stroke-dasharray="1,5" d="M128.26,-145.58C128.26,-145.58 128.26,-33.86 128.26,-33.86"/>
<polygon fill="black" stroke="black" points="131.76,-33.86 128.26,-23.86 124.76,-33.86 131.76,-33.86"/>
</g>
<!-- :shared:strings -->
<g id="node15" class="node">
<title>:shared:strings</title>
<ellipse fill="#b59aff" stroke="black" cx="912.89" cy="-292" rx="81.49" ry="18"/>
<text text-anchor="middle" x="912.89" y="-288.3" font-family="Times,serif" font-size="14.00">:shared:strings</text>
</g>
<!-- :ui:core&#45;&gt;:shared:strings -->
<g id="edge37" class="edge">
<title>:ui:core&#45;&gt;:shared:strings</title>
<path fill="none" stroke="black" d="M912.89,-410.81C912.89,-410.81 912.89,-320.27 912.89,-320.27"/>
<polygon fill="black" stroke="black" points="916.39,-320.27 912.89,-310.27 909.39,-320.27 916.39,-320.27"/>
</g>
</g>
</svg>
