<?xml version="1.0" encoding="UTF-8" standalone="no"?>
<!DOCTYPE svg PUBLIC "-//W3C//DTD SVG 1.1//EN"
 "http://www.w3.org/Graphics/SVG/1.1/DTD/svg11.dtd">
<!-- Generated by graphviz version 2.43.0 (0)
 -->
<!-- Title: %3 Pages: 1 -->
<svg width="892pt" height="1077pt"
 viewBox="0.00 0.00 892.43 1077.00" xmlns="http://www.w3.org/2000/svg" xmlns:xlink="http://www.w3.org/1999/xlink">
<g id="graph0" class="graph" transform="scale(1 1) rotate(0) translate(4 1073)">
<title>%3</title>
<polygon fill="white" stroke="transparent" points="-4,4 -4,-1073 888.43,-1073 888.43,4 -4,4"/>
<text text-anchor="middle" x="442.22" y="-1041" font-family="Times,serif" font-size="30.00">Dependencies</text>
<text text-anchor="middle" x="442.22" y="-1008" font-family="Times,serif" font-size="30.00"> </text>
<!-- :shared:feature:database -->
<g id="node1" class="node">
<title>:shared:feature:database</title>
<polygon fill="#b59aff" stroke="black" points="665.09,-995 470.09,-995 470.09,-959 665.09,-959 665.09,-995"/>
<text text-anchor="middle" x="567.59" y="-973.3" font-family="Times,serif" font-size="14.00">:shared:feature:database</text>
</g>
<!-- :test&#45;data -->
<g id="node2" class="node">
<title>:test&#45;data</title>
<ellipse fill="#b59aff" stroke="black" cx="384.59" cy="-703" rx="55.49" ry="18"/>
<text text-anchor="middle" x="384.59" y="-699.3" font-family="Times,serif" font-size="14.00">:test&#45;data</text>
</g>
<!-- :shared:feature:database&#45;&gt;:test&#45;data -->
<g id="edge1" class="edge">
<title>:shared:feature:database&#45;&gt;:test&#45;data</title>
<path fill="none" stroke="#ff9ab1" stroke-dasharray="1,5" d="M492.44,-958.79C492.44,-898.91 492.44,-712 492.44,-712 492.44,-712 442.52,-712 442.52,-712"/>
<polygon fill="#ff9ab1" stroke="#ff9ab1" points="442.52,-708.5 432.52,-712 442.52,-715.5 442.52,-708.5"/>
</g>
<!-- :ui:test:screenshot -->
<g id="node3" class="node">
<title>:ui:test:screenshot</title>
<ellipse fill="#9affb5" stroke="black" cx="787.59" cy="-703" rx="96.68" ry="18"/>
<text text-anchor="middle" x="787.59" y="-699.3" font-family="Times,serif" font-size="14.00">:ui:test:screenshot</text>
</g>
<!-- :shared:feature:database&#45;&gt;:ui:test:screenshot -->
<g id="edge2" class="edge">
<title>:shared:feature:database&#45;&gt;:ui:test:screenshot</title>
<path fill="none" stroke="#ff9ab1" stroke-dasharray="1,5" d="M665.37,-977C724.12,-977 787.59,-977 787.59,-977 787.59,-977 787.59,-731.4 787.59,-731.4"/>
<polygon fill="#ff9ab1" stroke="#ff9ab1" points="791.09,-731.4 787.59,-721.4 784.09,-731.4 791.09,-731.4"/>
</g>
<!-- :ui:common -->
<g id="node4" class="node">
<title>:ui:common</title>
<ellipse fill="#b59aff" stroke="black" cx="614.59" cy="-840" rx="64.19" ry="18"/>
<text text-anchor="middle" x="614.59" y="-836.3" font-family="Times,serif" font-size="14.00">:ui:common</text>
</g>
<!-- :shared:feature:database&#45;&gt;:ui:common -->
<g id="edge3" class="edge">
<title>:shared:feature:database&#45;&gt;:ui:common</title>
<path fill="none" stroke="black" stroke-dasharray="1,5" d="M607.67,-958.81C607.67,-958.81 607.67,-868.27 607.67,-868.27"/>
<polygon fill="black" stroke="black" points="611.17,-868.27 607.67,-858.27 604.17,-868.27 611.17,-868.27"/>
</g>
<!-- :shared:domain -->
<g id="node5" class="node">
<title>:shared:domain</title>
<ellipse fill="#b59aff" stroke="black" cx="454.59" cy="-155" rx="82.59" ry="18"/>
<text text-anchor="middle" x="454.59" y="-151.3" font-family="Times,serif" font-size="14.00">:shared:domain</text>
</g>
<!-- :shared:feature:database&#45;&gt;:shared:domain -->
<g id="edge4" class="edge">
<title>:shared:feature:database&#45;&gt;:shared:domain</title>
<path fill="none" stroke="black" stroke-dasharray="1,5" d="M514.79,-958.68C514.79,-958.68 514.79,-177.49 514.79,-177.49"/>
<polygon fill="black" stroke="black" points="518.29,-177.49 514.79,-167.49 511.29,-177.49 518.29,-177.49"/>
</g>
<!-- :test&#45;data&#45;&gt;:shared:domain -->
<g id="edge5" class="edge">
<title>:test&#45;data&#45;&gt;:shared:domain</title>
<path fill="none" stroke="black" stroke-dasharray="1,5" d="M426.28,-691.04C426.28,-691.04 426.28,-182.17 426.28,-182.17"/>
<polygon fill="black" stroke="black" points="429.78,-182.17 426.28,-172.17 422.78,-182.17 429.78,-182.17"/>
</g>
<!-- :core:coroutines -->
<g id="node6" class="node">
<title>:core:coroutines</title>
<ellipse fill="#b59aff" stroke="black" cx="117.59" cy="-18" rx="85.29" ry="18"/>
<text text-anchor="middle" x="117.59" y="-14.3" font-family="Times,serif" font-size="14.00">:core:coroutines</text>
</g>
<!-- :test&#45;data&#45;&gt;:core:coroutines -->
<g id="edge6" class="edge">
<title>:test&#45;data&#45;&gt;:core:coroutines</title>
<path fill="none" stroke="black" stroke-dasharray="1,5" d="M336.66,-712C233.56,-712 0,-712 0,-712 0,-712 0,-12 0,-12 0,-12 27.21,-12 27.21,-12"/>
<polygon fill="black" stroke="black" points="27.21,-15.5 37.21,-12 27.21,-8.5 27.21,-15.5"/>
</g>
<!-- :data:database -->
<g id="node7" class="node">
<title>:data:database</title>
<ellipse fill="#b59aff" stroke="black" cx="227.59" cy="-429" rx="79.09" ry="18"/>
<text text-anchor="middle" x="227.59" y="-425.3" font-family="Times,serif" font-size="14.00">:data:database</text>
</g>
<!-- :test&#45;data&#45;&gt;:data:database -->
<g id="edge7" class="edge">
<title>:test&#45;data&#45;&gt;:data:database</title>
<path fill="none" stroke="black" stroke-dasharray="1,5" d="M336.52,-694C314.73,-694 293.76,-694 293.76,-694 293.76,-694 293.76,-449.06 293.76,-449.06"/>
<polygon fill="black" stroke="black" points="297.26,-449.06 293.76,-439.06 290.26,-449.06 297.26,-449.06"/>
</g>
<!-- :data:musicbrainz -->
<g id="node8" class="node">
<title>:data:musicbrainz</title>
<ellipse fill="#b59aff" stroke="black" cx="120.59" cy="-292" rx="93.68" ry="18"/>
<text text-anchor="middle" x="120.59" y="-288.3" font-family="Times,serif" font-size="14.00">:data:musicbrainz</text>
</g>
<!-- :test&#45;data&#45;&gt;:data:musicbrainz -->
<g id="edge8" class="edge">
<title>:test&#45;data&#45;&gt;:data:musicbrainz</title>
<path fill="none" stroke="black" stroke-dasharray="1,5" d="M329.03,-703C240.61,-703 77.77,-703 77.77,-703 77.77,-703 77.77,-318.11 77.77,-318.11"/>
<polygon fill="black" stroke="black" points="81.27,-318.11 77.77,-308.11 74.27,-318.11 81.27,-318.11"/>
</g>
<!-- :data:coverart -->
<g id="node9" class="node">
<title>:data:coverart</title>
<ellipse fill="#b59aff" stroke="black" cx="204.59" cy="-566" rx="76.09" ry="18"/>
<text text-anchor="middle" x="204.59" y="-562.3" font-family="Times,serif" font-size="14.00">:data:coverart</text>
</g>
<!-- :test&#45;data&#45;&gt;:data:coverart -->
<g id="edge9" class="edge">
<title>:test&#45;data&#45;&gt;:data:coverart</title>
<path fill="none" stroke="black" stroke-dasharray="1,5" d="M339.38,-692.53C339.38,-661.96 339.38,-575 339.38,-575 339.38,-575 280.8,-575 280.8,-575"/>
<polygon fill="black" stroke="black" points="280.8,-571.5 270.8,-575 280.8,-578.5 280.8,-571.5"/>
</g>
<!-- :data:spotify -->
<g id="node10" class="node">
<title>:data:spotify</title>
<ellipse fill="#b59aff" stroke="black" cx="300.59" cy="-292" rx="68.79" ry="18"/>
<text text-anchor="middle" x="300.59" y="-288.3" font-family="Times,serif" font-size="14.00">:data:spotify</text>
</g>
<!-- :test&#45;data&#45;&gt;:data:spotify -->
<g id="edge10" class="edge">
<title>:test&#45;data&#45;&gt;:data:spotify</title>
<path fill="none" stroke="black" stroke-dasharray="1,5" d="M359.45,-686.89C359.45,-686.89 359.45,-311.63 359.45,-311.63"/>
<polygon fill="black" stroke="black" points="362.95,-311.63 359.45,-301.63 355.95,-311.63 362.95,-311.63"/>
</g>
<!-- :ui:core -->
<g id="node11" class="node">
<title>:ui:core</title>
<ellipse fill="#b59aff" stroke="black" cx="660.59" cy="-566" rx="45.49" ry="18"/>
<text text-anchor="middle" x="660.59" y="-562.3" font-family="Times,serif" font-size="14.00">:ui:core</text>
</g>
<!-- :ui:test:screenshot&#45;&gt;:ui:core -->
<g id="edge11" class="edge">
<title>:ui:test:screenshot&#45;&gt;:ui:core</title>
<path fill="none" stroke="black" stroke-dasharray="1,5" d="M698.42,-695.63C698.42,-695.63 698.42,-586.28 698.42,-586.28"/>
<polygon fill="black" stroke="black" points="701.92,-586.28 698.42,-576.28 694.92,-586.28 701.92,-586.28"/>
</g>
<!-- :test:image -->
<g id="node12" class="node">
<title>:test:image</title>
<ellipse fill="#9affb5" stroke="black" cx="787.59" cy="-566" rx="63.09" ry="18"/>
<text text-anchor="middle" x="787.59" y="-562.3" font-family="Times,serif" font-size="14.00">:test:image</text>
</g>
<!-- :ui:test:screenshot&#45;&gt;:test:image -->
<g id="edge12" class="edge">
<title>:ui:test:screenshot&#45;&gt;:test:image</title>
<path fill="none" stroke="black" stroke-dasharray="1,5" d="M808.61,-685.37C808.61,-685.37 808.61,-593.13 808.61,-593.13"/>
<polygon fill="black" stroke="black" points="812.11,-593.13 808.61,-583.13 805.11,-593.13 812.11,-593.13"/>
</g>
<!-- :ui:common&#45;&gt;:test&#45;data -->
<g id="edge14" class="edge">
<title>:ui:common&#45;&gt;:test&#45;data</title>
<path fill="none" stroke="#ff9ab1" stroke-dasharray="1,5" d="M563.22,-828.79C563.22,-796.07 563.22,-703 563.22,-703 563.22,-703 450.13,-703 450.13,-703"/>
<polygon fill="#ff9ab1" stroke="#ff9ab1" points="450.13,-699.5 440.13,-703 450.13,-706.5 450.13,-699.5"/>
</g>
<!-- :ui:common&#45;&gt;:ui:test:screenshot -->
<g id="edge15" class="edge">
<title>:ui:common&#45;&gt;:ui:test:screenshot</title>
<path fill="none" stroke="#ff9ab1" stroke-dasharray="1,5" d="M662.98,-828.05C662.98,-793.18 662.98,-694 662.98,-694 662.98,-694 693.44,-694 693.44,-694"/>
<polygon fill="#ff9ab1" stroke="#ff9ab1" points="693.44,-697.5 703.44,-694 693.44,-690.5 693.44,-697.5"/>
</g>
<!-- :ui:common&#45;&gt;:shared:domain -->
<g id="edge17" class="edge">
<title>:ui:common&#45;&gt;:shared:domain</title>
<path fill="none" stroke="black" d="M589.16,-823.22C589.16,-718.66 589.16,-161 589.16,-161 589.16,-161 542.48,-161 542.48,-161"/>
<polygon fill="black" stroke="black" points="542.48,-157.5 532.48,-161 542.48,-164.5 542.48,-157.5"/>
</g>
<!-- :ui:common&#45;&gt;:core:coroutines -->
<g id="edge16" class="edge">
<title>:ui:common&#45;&gt;:core:coroutines</title>
<path fill="none" stroke="#ff9ab1" stroke-dasharray="1,5" d="M602.13,-822.32C602.13,-702.33 602.13,-12 602.13,-12 602.13,-12 207.87,-12 207.87,-12"/>
<polygon fill="#ff9ab1" stroke="#ff9ab1" points="207.87,-8.5 197.87,-12 207.87,-15.5 207.87,-8.5"/>
</g>
<!-- :ui:common&#45;&gt;:ui:core -->
<g id="edge18" class="edge">
<title>:ui:common&#45;&gt;:ui:core</title>
<path fill="none" stroke="black" d="M631.06,-822.44C631.06,-822.44 631.06,-589.72 631.06,-589.72"/>
<polygon fill="black" stroke="black" points="634.56,-589.72 631.06,-579.72 627.56,-589.72 634.56,-589.72"/>
</g>
<!-- :ui:common&#45;&gt;:test:image -->
<g id="edge13" class="edge">
<title>:ui:common&#45;&gt;:test:image</title>
<path fill="none" stroke="black" stroke-dasharray="1,5" d="M647.02,-824.18C647.02,-775.94 647.02,-634 647.02,-634 647.02,-634 766.58,-634 766.58,-634 766.58,-634 766.58,-593.16 766.58,-593.16"/>
<polygon fill="black" stroke="black" points="770.08,-593.16 766.58,-583.16 763.08,-593.16 770.08,-593.16"/>
</g>
<!-- :core:logging:api -->
<g id="node13" class="node">
<title>:core:logging:api</title>
<ellipse fill="#b59aff" stroke="black" cx="117.59" cy="-155" rx="88.28" ry="18"/>
<text text-anchor="middle" x="117.59" y="-151.3" font-family="Times,serif" font-size="14.00">:core:logging:api</text>
</g>
<!-- :ui:common&#45;&gt;:core:logging:api -->
<g id="edge19" class="edge">
<title>:ui:common&#45;&gt;:core:logging:api</title>
<path fill="none" stroke="black" stroke-dasharray="1,5" d="M576.19,-825.36C576.19,-731.92 576.19,-223 576.19,-223 576.19,-223 147.06,-223 147.06,-223 147.06,-223 147.06,-182.16 147.06,-182.16"/>
<polygon fill="black" stroke="black" points="150.56,-182.16 147.06,-172.16 143.56,-182.16 150.56,-182.16"/>
</g>
<!-- :data:database&#45;&gt;:shared:domain -->
<g id="edge20" class="edge">
<title>:data:database&#45;&gt;:shared:domain</title>
<path fill="none" stroke="black" stroke-dasharray="1,5" d="M307.1,-429C351.98,-429 399.16,-429 399.16,-429 399.16,-429 399.16,-178.59 399.16,-178.59"/>
<polygon fill="black" stroke="black" points="402.66,-178.59 399.16,-168.59 395.66,-178.59 402.66,-178.59"/>
</g>
<!-- :data:database&#45;&gt;:core:coroutines -->
<g id="edge21" class="edge">
<title>:data:database&#45;&gt;:core:coroutines</title>
<path fill="none" stroke="black" stroke-dasharray="1,5" d="M222.94,-410.81C222.94,-332.01 222.94,-24 222.94,-24 222.94,-24 207.97,-24 207.97,-24"/>
<polygon fill="black" stroke="black" points="207.97,-20.5 197.97,-24 207.97,-27.5 207.97,-20.5"/>
</g>
<!-- :data:database&#45;&gt;:data:musicbrainz -->
<g id="edge22" class="edge">
<title>:data:database&#45;&gt;:data:musicbrainz</title>
<path fill="none" stroke="black" stroke-dasharray="1,5" d="M181.24,-414.34C181.24,-414.34 181.24,-315.74 181.24,-315.74"/>
<polygon fill="black" stroke="black" points="184.74,-315.74 181.24,-305.74 177.74,-315.74 184.74,-315.74"/>
</g>
<!-- :data:musicbrainz&#45;&gt;:shared:domain -->
<g id="edge23" class="edge">
<title>:data:musicbrainz&#45;&gt;:shared:domain</title>
<path fill="none" stroke="black" stroke-dasharray="1,5" d="M210.08,-286.57C210.08,-260.45 210.08,-149 210.08,-149 210.08,-149 366.56,-149 366.56,-149"/>
<polygon fill="black" stroke="black" points="366.56,-152.5 376.56,-149 366.56,-145.5 366.56,-152.5"/>
</g>
<!-- :data:musicbrainz&#45;&gt;:core:logging:api -->
<g id="edge24" class="edge">
<title>:data:musicbrainz&#45;&gt;:core:logging:api</title>
<path fill="none" stroke="black" stroke-dasharray="1,5" d="M88.13,-274.93C88.13,-274.93 88.13,-182.29 88.13,-182.29"/>
<polygon fill="black" stroke="black" points="91.63,-182.29 88.13,-172.29 84.63,-182.29 91.63,-182.29"/>
</g>
<!-- :data:coverart&#45;&gt;:test&#45;data -->
<g id="edge28" class="edge">
<title>:data:coverart&#45;&gt;:test&#45;data</title>
<path fill="none" stroke="#ff9ab1" stroke-dasharray="1,5" d="M280.82,-566C315.71,-566 349.42,-566 349.42,-566 349.42,-566 349.42,-679.11 349.42,-679.11"/>
<polygon fill="#ff9ab1" stroke="#ff9ab1" points="345.92,-679.11 349.42,-689.11 352.92,-679.11 345.92,-679.11"/>
</g>
<!-- :data:coverart&#45;&gt;:shared:domain -->
<g id="edge25" class="edge">
<title>:data:coverart&#45;&gt;:shared:domain</title>
<path fill="none" stroke="black" stroke-dasharray="1,5" d="M270.73,-557C331.67,-557 412.72,-557 412.72,-557 412.72,-557 412.72,-180.76 412.72,-180.76"/>
<polygon fill="black" stroke="black" points="416.22,-180.76 412.72,-170.76 409.22,-180.76 416.22,-180.76"/>
</g>
<!-- :data:coverart&#45;&gt;:core:coroutines -->
<g id="edge27" class="edge">
<title>:data:coverart&#45;&gt;:core:coroutines</title>
<path fill="none" stroke="black" stroke-dasharray="1,5" d="M132.87,-572C77.05,-572 9,-572 9,-572 9,-572 9,-24 9,-24 9,-24 27.25,-24 27.25,-24"/>
<polygon fill="black" stroke="black" points="27.25,-27.5 37.25,-24 27.25,-20.5 27.25,-27.5"/>
</g>
<!-- :data:coverart&#45;&gt;:data:database -->
<g id="edge30" class="edge">
<title>:data:coverart&#45;&gt;:data:database</title>
<path fill="none" stroke="#ff9ab1" stroke-dasharray="1,5" d="M214.47,-548.09C214.47,-548.09 214.47,-456.91 214.47,-456.91"/>
<polygon fill="#ff9ab1" stroke="#ff9ab1" points="217.97,-456.91 214.47,-446.91 210.97,-456.91 217.97,-456.91"/>
</g>
<!-- :data:coverart&#45;&gt;:data:musicbrainz -->
<g id="edge29" class="edge">
<title>:data:coverart&#45;&gt;:data:musicbrainz</title>
<path fill="none" stroke="#ff9ab1" stroke-dasharray="1,5" d="M138.42,-556.88C138.42,-556.88 138.42,-320.04 138.42,-320.04"/>
<polygon fill="#ff9ab1" stroke="#ff9ab1" points="141.92,-320.04 138.42,-310.04 134.92,-320.04 141.92,-320.04"/>
</g>
<!-- :data:coverart&#45;&gt;:core:logging:api -->
<g id="edge26" class="edge">
<title>:data:coverart&#45;&gt;:core:logging:api</title>
<path fill="none" stroke="black" stroke-dasharray="1,5" d="M132.72,-560C80.15,-560 18,-560 18,-560 18,-560 18,-155 18,-155 18,-155 19.1,-155 19.1,-155"/>
<polygon fill="black" stroke="black" points="19.04,-158.5 29.04,-155 19.04,-151.5 19.04,-158.5"/>
</g>
<!-- :data:spotify&#45;&gt;:shared:domain -->
<g id="edge31" class="edge">
<title>:data:spotify&#45;&gt;:shared:domain</title>
<path fill="none" stroke="black" stroke-dasharray="1,5" d="M369.62,-292C379.07,-292 385.61,-292 385.61,-292 385.61,-292 385.61,-175.3 385.61,-175.3"/>
<polygon fill="black" stroke="black" points="389.11,-175.3 385.61,-165.3 382.11,-175.3 389.11,-175.3"/>
</g>
<!-- :data:spotify&#45;&gt;:core:logging:api -->
<g id="edge32" class="edge">
<title>:data:spotify&#45;&gt;:core:logging:api</title>
<path fill="none" stroke="black" stroke-dasharray="1,5" d="M300.59,-273.79C300.59,-237.79 300.59,-161 300.59,-161 300.59,-161 211.06,-161 211.06,-161"/>
<polygon fill="black" stroke="black" points="211.06,-157.5 201.06,-161 211.06,-164.5 211.06,-157.5"/>
</g>
<!-- :ui:core&#45;&gt;:shared:domain -->
<g id="edge34" class="edge">
<title>:ui:core&#45;&gt;:shared:domain</title>
<path fill="none" stroke="black" stroke-dasharray="1,5" d="M634.22,-551.16C634.22,-476.87 634.22,-149 634.22,-149 634.22,-149 542.6,-149 542.6,-149"/>
<polygon fill="black" stroke="black" points="542.6,-145.5 532.6,-149 542.6,-152.5 542.6,-145.5"/>
</g>
<!-- :shared:strings -->
<g id="node14" class="node">
<title>:shared:strings</title>
<ellipse fill="#b59aff" stroke="black" cx="734.59" cy="-429" rx="81.49" ry="18"/>
<text text-anchor="middle" x="734.59" y="-425.3" font-family="Times,serif" font-size="14.00">:shared:strings</text>
</g>
<!-- :ui:core&#45;&gt;:shared:strings -->
<g id="edge33" class="edge">
<title>:ui:core&#45;&gt;:shared:strings</title>
<path fill="none" stroke="black" d="M679.72,-549.47C679.72,-549.47 679.72,-452.31 679.72,-452.31"/>
<polygon fill="black" stroke="black" points="683.22,-452.31 679.72,-442.31 676.22,-452.31 683.22,-452.31"/>
</g>
<!-- :core:logging:api&#45;&gt;:core:coroutines -->
<g id="edge35" class="edge">
<title>:core:logging:api&#45;&gt;:core:coroutines</title>
<path fill="none" stroke="black" d="M117.59,-136.81C117.59,-136.81 117.59,-46.27 117.59,-46.27"/>
<polygon fill="black" stroke="black" points="121.09,-46.27 117.59,-36.27 114.09,-46.27 121.09,-46.27"/>
</g>
</g>
</svg>
