<?xml version="1.0" encoding="UTF-8" standalone="no"?>
<!DOCTYPE svg PUBLIC "-//W3C//DTD SVG 1.1//EN"
 "http://www.w3.org/Graphics/SVG/1.1/DTD/svg11.dtd">
<!-- Generated by graphviz version 2.43.0 (0)
 -->
<!-- Title: %3 Pages: 1 -->
<svg width="997pt" height="940pt"
 viewBox="0.00 0.00 997.23 940.00" xmlns="http://www.w3.org/2000/svg" xmlns:xlink="http://www.w3.org/1999/xlink">
<g id="graph0" class="graph" transform="scale(1 1) rotate(0) translate(4 936)">
<title>%3</title>
<polygon fill="white" stroke="transparent" points="-4,4 -4,-936 993.23,-936 993.23,4 -4,4"/>
<text text-anchor="middle" x="494.62" y="-904" font-family="Times,serif" font-size="30.00">Dependencies</text>
<text text-anchor="middle" x="494.62" y="-871" font-family="Times,serif" font-size="30.00"> </text>
<!-- :shared:feature:database -->
<g id="node1" class="node">
<title>:shared:feature:database</title>
<polygon fill="#b59aff" stroke="black" points="836.89,-858 641.89,-858 641.89,-822 836.89,-822 836.89,-858"/>
<text text-anchor="middle" x="739.39" y="-836.3" font-family="Times,serif" font-size="14.00">:shared:feature:database</text>
</g>
<!-- :test&#45;data -->
<g id="node2" class="node">
<title>:test&#45;data</title>
<ellipse fill="#b59aff" stroke="black" cx="383.39" cy="-566" rx="55.49" ry="18"/>
<text text-anchor="middle" x="383.39" y="-562.3" font-family="Times,serif" font-size="14.00">:test&#45;data</text>
</g>
<!-- :shared:feature:database&#45;&gt;:test&#45;data -->
<g id="edge1" class="edge">
<title>:shared:feature:database&#45;&gt;:test&#45;data</title>
<path fill="none" stroke="#ff9ab1" stroke-dasharray="1,5" d="M641.64,-846C536.25,-846 383.39,-846 383.39,-846 383.39,-846 383.39,-594.37 383.39,-594.37"/>
<polygon fill="#ff9ab1" stroke="#ff9ab1" points="386.89,-594.37 383.39,-584.37 379.89,-594.37 386.89,-594.37"/>
</g>
<!-- :ui:test:screenshot -->
<g id="node3" class="node">
<title>:ui:test:screenshot</title>
<ellipse fill="#9affb5" stroke="black" cx="892.39" cy="-566" rx="96.68" ry="18"/>
<text text-anchor="middle" x="892.39" y="-562.3" font-family="Times,serif" font-size="14.00">:ui:test:screenshot</text>
</g>
<!-- :shared:feature:database&#45;&gt;:ui:test:screenshot -->
<g id="edge2" class="edge">
<title>:shared:feature:database&#45;&gt;:ui:test:screenshot</title>
<path fill="none" stroke="#ff9ab1" stroke-dasharray="1,5" d="M823.11,-821.6C823.11,-821.6 823.11,-588.67 823.11,-588.67"/>
<polygon fill="#ff9ab1" stroke="#ff9ab1" points="826.61,-588.67 823.11,-578.67 819.61,-588.67 826.61,-588.67"/>
</g>
<!-- :ui:common -->
<g id="node4" class="node">
<title>:ui:common</title>
<ellipse fill="#b59aff" stroke="black" cx="587.39" cy="-703" rx="64.19" ry="18"/>
<text text-anchor="middle" x="587.39" y="-699.3" font-family="Times,serif" font-size="14.00">:ui:common</text>
</g>
<!-- :shared:feature:database&#45;&gt;:ui:common -->
<g id="edge3" class="edge">
<title>:shared:feature:database&#45;&gt;:ui:common</title>
<path fill="none" stroke="black" stroke-dasharray="1,5" d="M646.81,-821.81C646.81,-821.81 646.81,-720.17 646.81,-720.17"/>
<polygon fill="black" stroke="black" points="650.31,-720.17 646.81,-710.17 643.31,-720.17 650.31,-720.17"/>
</g>
<!-- :shared:domain -->
<g id="node5" class="node">
<title>:shared:domain</title>
<ellipse fill="#b59aff" stroke="black" cx="476.39" cy="-18" rx="82.59" ry="18"/>
<text text-anchor="middle" x="476.39" y="-14.3" font-family="Times,serif" font-size="14.00">:shared:domain</text>
</g>
<!-- :shared:feature:database&#45;&gt;:shared:domain -->
<g id="edge4" class="edge">
<title>:shared:feature:database&#45;&gt;:shared:domain</title>
<path fill="none" stroke="black" stroke-dasharray="1,5" d="M641.88,-834C583.57,-834 520.71,-834 520.71,-834 520.71,-834 520.71,-43.21 520.71,-43.21"/>
<polygon fill="black" stroke="black" points="524.21,-43.21 520.71,-33.21 517.21,-43.21 524.21,-43.21"/>
</g>
<!-- :test&#45;data&#45;&gt;:shared:domain -->
<g id="edge5" class="edge">
<title>:test&#45;data&#45;&gt;:shared:domain</title>
<path fill="none" stroke="black" stroke-dasharray="1,5" d="M435.58,-560C473.56,-560 518.37,-560 518.37,-560 518.37,-560 518.37,-43.64 518.37,-43.64"/>
<polygon fill="black" stroke="black" points="521.87,-43.64 518.37,-33.64 514.87,-43.64 521.87,-43.64"/>
</g>
<!-- :data:database -->
<g id="node6" class="node">
<title>:data:database</title>
<ellipse fill="#b59aff" stroke="black" cx="434.39" cy="-292" rx="79.09" ry="18"/>
<text text-anchor="middle" x="434.39" y="-288.3" font-family="Times,serif" font-size="14.00">:data:database</text>
</g>
<!-- :test&#45;data&#45;&gt;:data:database -->
<g id="edge6" class="edge">
<title>:test&#45;data&#45;&gt;:data:database</title>
<path fill="none" stroke="black" stroke-dasharray="1,5" d="M428.54,-555.59C428.54,-555.59 428.54,-320.12 428.54,-320.12"/>
<polygon fill="black" stroke="black" points="432.04,-320.12 428.54,-310.12 425.04,-320.12 432.04,-320.12"/>
</g>
<!-- :data:musicbrainz -->
<g id="node7" class="node">
<title>:data:musicbrainz</title>
<ellipse fill="#b59aff" stroke="black" cx="316.39" cy="-155" rx="93.68" ry="18"/>
<text text-anchor="middle" x="316.39" y="-151.3" font-family="Times,serif" font-size="14.00">:data:musicbrainz</text>
</g>
<!-- :test&#45;data&#45;&gt;:data:musicbrainz -->
<g id="edge7" class="edge">
<title>:test&#45;data&#45;&gt;:data:musicbrainz</title>
<path fill="none" stroke="black" stroke-dasharray="1,5" d="M330.91,-560C291.6,-560 244.57,-560 244.57,-560 244.57,-560 244.57,-176.68 244.57,-176.68"/>
<polygon fill="black" stroke="black" points="248.07,-176.68 244.57,-166.68 241.07,-176.68 248.07,-176.68"/>
</g>
<!-- :data:coverart -->
<g id="node8" class="node">
<title>:data:coverart</title>
<ellipse fill="#b59aff" stroke="black" cx="342.39" cy="-429" rx="76.09" ry="18"/>
<text text-anchor="middle" x="342.39" y="-425.3" font-family="Times,serif" font-size="14.00">:data:coverart</text>
</g>
<!-- :test&#45;data&#45;&gt;:data:coverart -->
<g id="edge8" class="edge">
<title>:test&#45;data&#45;&gt;:data:coverart</title>
<path fill="none" stroke="black" stroke-dasharray="1,5" d="M358.24,-549.75C358.24,-549.75 358.24,-456.97 358.24,-456.97"/>
<polygon fill="black" stroke="black" points="361.74,-456.97 358.24,-446.97 354.74,-456.97 361.74,-456.97"/>
</g>
<!-- :data:spotify -->
<g id="node9" class="node">
<title>:data:spotify</title>
<ellipse fill="#b59aff" stroke="black" cx="136.39" cy="-155" rx="68.79" ry="18"/>
<text text-anchor="middle" x="136.39" y="-151.3" font-family="Times,serif" font-size="14.00">:data:spotify</text>
</g>
<!-- :test&#45;data&#45;&gt;:data:spotify -->
<g id="edge9" class="edge">
<title>:test&#45;data&#45;&gt;:data:spotify</title>
<path fill="none" stroke="black" stroke-dasharray="1,5" d="M331.01,-572C258.51,-572 136.39,-572 136.39,-572 136.39,-572 136.39,-183.19 136.39,-183.19"/>
<polygon fill="black" stroke="black" points="139.89,-183.19 136.39,-173.19 132.89,-183.19 139.89,-183.19"/>
</g>
<!-- :test:image -->
<g id="node10" class="node">
<title>:test:image</title>
<ellipse fill="#9affb5" stroke="black" cx="808.39" cy="-429" rx="63.09" ry="18"/>
<text text-anchor="middle" x="808.39" y="-425.3" font-family="Times,serif" font-size="14.00">:test:image</text>
</g>
<!-- :ui:test:screenshot&#45;&gt;:test:image -->
<g id="edge10" class="edge">
<title>:ui:test:screenshot&#45;&gt;:test:image</title>
<path fill="none" stroke="black" stroke-dasharray="1,5" d="M833.49,-551.6C833.49,-551.6 833.49,-455.75 833.49,-455.75"/>
<polygon fill="black" stroke="black" points="836.99,-455.75 833.49,-445.75 829.99,-455.75 836.99,-455.75"/>
</g>
<!-- :ui:common&#45;&gt;:test&#45;data -->
<g id="edge12" class="edge">
<title>:ui:common&#45;&gt;:test&#45;data</title>
<path fill="none" stroke="#ff9ab1" stroke-dasharray="1,5" d="M535.01,-692.28C535.01,-660.99 535.01,-572 535.01,-572 535.01,-572 445.57,-572 445.57,-572"/>
<polygon fill="#ff9ab1" stroke="#ff9ab1" points="445.57,-568.5 435.57,-572 445.57,-575.5 445.57,-568.5"/>
</g>
<!-- :ui:common&#45;&gt;:ui:test:screenshot -->
<g id="edge13" class="edge">
<title>:ui:common&#45;&gt;:ui:test:screenshot</title>
<path fill="none" stroke="#ff9ab1" stroke-dasharray="1,5" d="M648.33,-709C714.03,-709 809.33,-709 809.33,-709 809.33,-709 809.33,-585.38 809.33,-585.38"/>
<polygon fill="#ff9ab1" stroke="#ff9ab1" points="812.83,-585.38 809.33,-575.38 805.83,-585.38 812.83,-585.38"/>
</g>
<!-- :ui:common&#45;&gt;:shared:domain -->
<g id="edge14" class="edge">
<title>:ui:common&#45;&gt;:shared:domain</title>
<path fill="none" stroke="black" d="M546.97,-688.69C546.97,-688.69 546.97,-37.5 546.97,-37.5"/>
<polygon fill="black" stroke="black" points="550.47,-37.5 546.97,-27.5 543.47,-37.5 550.47,-37.5"/>
</g>
<!-- :ui:common&#45;&gt;:test:image -->
<g id="edge11" class="edge">
<title>:ui:common&#45;&gt;:test:image</title>
<path fill="none" stroke="black" stroke-dasharray="1,5" d="M648.24,-697C706.82,-697 786.59,-697 786.59,-697 786.59,-697 786.59,-456.17 786.59,-456.17"/>
<polygon fill="black" stroke="black" points="790.09,-456.17 786.59,-446.17 783.09,-456.17 790.09,-456.17"/>
</g>
<!-- :shared:strings -->
<g id="node11" class="node">
<title>:shared:strings</title>
<ellipse fill="#b59aff" stroke="black" cx="696.39" cy="-566" rx="81.49" ry="18"/>
<text text-anchor="middle" x="696.39" y="-562.3" font-family="Times,serif" font-size="14.00">:shared:strings</text>
</g>
<!-- :ui:common&#45;&gt;:shared:strings -->
<g id="edge15" class="edge">
<title>:ui:common&#45;&gt;:shared:strings</title>
<path fill="none" stroke="black" d="M633.44,-690.36C633.44,-690.36 633.44,-587.44 633.44,-587.44"/>
<polygon fill="black" stroke="black" points="636.94,-587.44 633.44,-577.44 629.94,-587.44 636.94,-587.44"/>
</g>
<!-- :core:logging:api -->
<g id="node12" class="node">
<title>:core:logging:api</title>
<ellipse fill="#b59aff" stroke="black" cx="88.39" cy="-18" rx="88.28" ry="18"/>
<text text-anchor="middle" x="88.39" y="-14.3" font-family="Times,serif" font-size="14.00">:core:logging:api</text>
</g>
<!-- :ui:common&#45;&gt;:core:logging:api -->
<g id="edge16" class="edge">
<title>:ui:common&#45;&gt;:core:logging:api</title>
<path fill="none" stroke="black" stroke-dasharray="1,5" d="M522.87,-703C374.65,-703 22.5,-703 22.5,-703 22.5,-703 22.5,-40.18 22.5,-40.18"/>
<polygon fill="black" stroke="black" points="26,-40.18 22.5,-30.18 19,-40.18 26,-40.18"/>
</g>
<!-- :data:database&#45;&gt;:shared:domain -->
<g id="edge17" class="edge">
<title>:data:database&#45;&gt;:shared:domain</title>
<path fill="none" stroke="black" stroke-dasharray="1,5" d="M461.83,-274.86C461.83,-274.86 461.83,-45.84 461.83,-45.84"/>
<polygon fill="black" stroke="black" points="465.33,-45.84 461.83,-35.84 458.33,-45.84 465.33,-45.84"/>
</g>
<!-- :data:database&#45;&gt;:data:musicbrainz -->
<g id="edge18" class="edge">
<title>:data:database&#45;&gt;:data:musicbrainz</title>
<path fill="none" stroke="black" stroke-dasharray="1,5" d="M382.54,-278.36C382.54,-278.36 382.54,-177.78 382.54,-177.78"/>
<polygon fill="black" stroke="black" points="386.04,-177.78 382.54,-167.78 379.04,-177.78 386.04,-177.78"/>
</g>
<!-- :data:musicbrainz&#45;&gt;:shared:domain -->
<g id="edge19" class="edge">
<title>:data:musicbrainz&#45;&gt;:shared:domain</title>
<path fill="none" stroke="black" stroke-dasharray="1,5" d="M401.92,-147.63C401.92,-147.63 401.92,-36.08 401.92,-36.08"/>
<polygon fill="black" stroke="black" points="405.42,-36.08 401.92,-26.08 398.42,-36.08 405.42,-36.08"/>
</g>
<!-- :data:musicbrainz&#45;&gt;:core:logging:api -->
<g id="edge20" class="edge">
<title>:data:musicbrainz&#45;&gt;:core:logging:api</title>
<path fill="none" stroke="black" stroke-dasharray="1,5" d="M308.32,-136.89C308.32,-98.41 308.32,-12 308.32,-12 308.32,-12 181.85,-12 181.85,-12"/>
<polygon fill="black" stroke="black" points="181.85,-8.5 171.85,-12 181.85,-15.5 181.85,-8.5"/>
</g>
<!-- :data:coverart&#45;&gt;:test&#45;data -->
<g id="edge23" class="edge">
<title>:data:coverart&#45;&gt;:test&#45;data</title>
<path fill="none" stroke="#ff9ab1" stroke-dasharray="1,5" d="M388.34,-443.4C388.34,-443.4 388.34,-537.91 388.34,-537.91"/>
<polygon fill="#ff9ab1" stroke="#ff9ab1" points="384.84,-537.91 388.34,-547.91 391.84,-537.91 384.84,-537.91"/>
</g>
<!-- :data:coverart&#45;&gt;:shared:domain -->
<g id="edge21" class="edge">
<title>:data:coverart&#45;&gt;:shared:domain</title>
<path fill="none" stroke="black" stroke-dasharray="1,5" d="M418.55,-429C465.2,-429 516.03,-429 516.03,-429 516.03,-429 516.03,-43.86 516.03,-43.86"/>
<polygon fill="black" stroke="black" points="519.53,-43.86 516.03,-33.86 512.53,-43.86 519.53,-43.86"/>
</g>
<!-- :data:coverart&#45;&gt;:data:database -->
<g id="edge25" class="edge">
<title>:data:coverart&#45;&gt;:data:database</title>
<path fill="none" stroke="#ff9ab1" stroke-dasharray="1,5" d="M386.77,-414.34C386.77,-414.34 386.77,-316.56 386.77,-316.56"/>
<polygon fill="#ff9ab1" stroke="#ff9ab1" points="390.27,-316.56 386.77,-306.56 383.27,-316.56 390.27,-316.56"/>
</g>
<!-- :data:coverart&#45;&gt;:data:musicbrainz -->
<g id="edge24" class="edge">
<title>:data:coverart&#45;&gt;:data:musicbrainz</title>
<path fill="none" stroke="#ff9ab1" stroke-dasharray="1,5" d="M310.72,-412.27C310.72,-412.27 310.72,-183.28 310.72,-183.28"/>
<polygon fill="#ff9ab1" stroke="#ff9ab1" points="314.22,-183.28 310.72,-173.28 307.22,-183.28 314.22,-183.28"/>
</g>
<!-- :data:coverart&#45;&gt;:core:logging:api -->
<g id="edge22" class="edge">
<title>:data:coverart&#45;&gt;:core:logging:api</title>
<path fill="none" stroke="black" stroke-dasharray="1,5" d="M266.19,-429C178.08,-429 45,-429 45,-429 45,-429 45,-43.86 45,-43.86"/>
<polygon fill="black" stroke="black" points="48.5,-43.86 45,-33.86 41.5,-43.86 48.5,-43.86"/>
</g>
<!-- :data:spotify&#45;&gt;:shared:domain -->
<g id="edge26" class="edge">
<title>:data:spotify&#45;&gt;:shared:domain</title>
<path fill="none" stroke="black" stroke-dasharray="1,5" d="M191.04,-143.83C191.04,-112.15 191.04,-24 191.04,-24 191.04,-24 388.42,-24 388.42,-24"/>
<polygon fill="black" stroke="black" points="388.42,-27.5 398.42,-24 388.42,-20.5 388.42,-27.5"/>
</g>
<!-- :data:spotify&#45;&gt;:core:logging:api -->
<g id="edge27" class="edge">
<title>:data:spotify&#45;&gt;:core:logging:api</title>
<path fill="none" stroke="black" stroke-dasharray="1,5" d="M122.14,-137.37C122.14,-137.37 122.14,-44.7 122.14,-44.7"/>
<polygon fill="black" stroke="black" points="125.64,-44.7 122.14,-34.7 118.64,-44.7 125.64,-44.7"/>
</g>
</g>
</svg>
