<?xml version="1.0" encoding="UTF-8" standalone="no"?>
<!DOCTYPE svg PUBLIC "-//W3C//DTD SVG 1.1//EN"
 "http://www.w3.org/Graphics/SVG/1.1/DTD/svg11.dtd">
<!-- Generated by graphviz version 2.43.0 (0)
 -->
<!-- Title: %3 Pages: 1 -->
<svg width="1021pt" height="940pt"
 viewBox="0.00 0.00 1021.19 940.00" xmlns="http://www.w3.org/2000/svg" xmlns:xlink="http://www.w3.org/1999/xlink">
<g id="graph0" class="graph" transform="scale(1 1) rotate(0) translate(4 936)">
<title>%3</title>
<polygon fill="white" stroke="transparent" points="-4,4 -4,-936 1017.19,-936 1017.19,4 -4,4"/>
<text text-anchor="middle" x="506.59" y="-904" font-family="Times,serif" font-size="30.00">Dependencies</text>
<text text-anchor="middle" x="506.59" y="-871" font-family="Times,serif" font-size="30.00"> </text>
<!-- :shared:feature:database -->
<g id="node1" class="node">
<title>:shared:feature:database</title>
<polygon fill="#b59aff" stroke="black" points="586.54,-858 391.54,-858 391.54,-822 586.54,-822 586.54,-858"/>
<text text-anchor="middle" x="489.04" y="-836.3" font-family="Times,serif" font-size="14.00">:shared:feature:database</text>
</g>
<!-- :test&#45;data -->
<g id="node2" class="node">
<title>:test&#45;data</title>
<ellipse fill="#b59aff" stroke="black" cx="707.04" cy="-566" rx="55.49" ry="18"/>
<text text-anchor="middle" x="707.04" y="-562.3" font-family="Times,serif" font-size="14.00">:test&#45;data</text>
</g>
<!-- :shared:feature:database&#45;&gt;:test&#45;data -->
<g id="edge1" class="edge">
<title>:shared:feature:database&#45;&gt;:test&#45;data</title>
<path fill="none" stroke="#ff9ab1" stroke-dasharray="1,5" d="M578.18,-821.72C578.18,-762.54 578.18,-580 578.18,-580 578.18,-580 662.17,-580 662.17,-580"/>
<polygon fill="#ff9ab1" stroke="#ff9ab1" points="662.17,-583.5 672.17,-580 662.17,-576.5 662.17,-583.5"/>
</g>
<!-- :ui:test:screenshot -->
<g id="node3" class="node">
<title>:ui:test:screenshot</title>
<ellipse fill="#9affb5" stroke="black" cx="132.04" cy="-566" rx="96.68" ry="18"/>
<text text-anchor="middle" x="132.04" y="-562.3" font-family="Times,serif" font-size="14.00">:ui:test:screenshot</text>
</g>
<!-- :shared:feature:database&#45;&gt;:ui:test:screenshot -->
<g id="edge2" class="edge">
<title>:shared:feature:database&#45;&gt;:ui:test:screenshot</title>
<path fill="none" stroke="#ff9ab1" stroke-dasharray="1,5" d="M391.31,-840C276,-840 99.76,-840 99.76,-840 99.76,-840 99.76,-593.14 99.76,-593.14"/>
<polygon fill="#ff9ab1" stroke="#ff9ab1" points="103.26,-593.14 99.76,-583.14 96.26,-593.14 103.26,-593.14"/>
</g>
<!-- :ui:common -->
<g id="node4" class="node">
<title>:ui:common</title>
<ellipse fill="#b59aff" stroke="black" cx="489.04" cy="-703" rx="64.19" ry="18"/>
<text text-anchor="middle" x="489.04" y="-699.3" font-family="Times,serif" font-size="14.00">:ui:common</text>
</g>
<!-- :shared:feature:database&#45;&gt;:ui:common -->
<g id="edge3" class="edge">
<title>:shared:feature:database&#45;&gt;:ui:common</title>
<path fill="none" stroke="black" stroke-dasharray="1,5" d="M489.04,-821.81C489.04,-821.81 489.04,-731.27 489.04,-731.27"/>
<polygon fill="black" stroke="black" points="492.54,-731.27 489.04,-721.27 485.54,-731.27 492.54,-731.27"/>
</g>
<!-- :shared:domain -->
<g id="node5" class="node">
<title>:shared:domain</title>
<ellipse fill="#b59aff" stroke="black" cx="716.04" cy="-18" rx="82.59" ry="18"/>
<text text-anchor="middle" x="716.04" y="-14.3" font-family="Times,serif" font-size="14.00">:shared:domain</text>
</g>
<!-- :shared:feature:database&#45;&gt;:shared:domain -->
<g id="edge4" class="edge">
<title>:shared:feature:database&#45;&gt;:shared:domain</title>
<path fill="none" stroke="black" stroke-dasharray="1,5" d="M556.08,-821.74C556.08,-706.59 556.08,-86 556.08,-86 556.08,-86 671.88,-86 671.88,-86 671.88,-86 671.88,-43.43 671.88,-43.43"/>
<polygon fill="black" stroke="black" points="675.38,-43.43 671.88,-33.43 668.38,-43.43 675.38,-43.43"/>
</g>
<!-- :ui:image -->
<g id="node6" class="node">
<title>:ui:image</title>
<ellipse fill="#b59aff" stroke="black" cx="301.04" cy="-566" rx="53.89" ry="18"/>
<text text-anchor="middle" x="301.04" y="-562.3" font-family="Times,serif" font-size="14.00">:ui:image</text>
</g>
<!-- :shared:feature:database&#45;&gt;:ui:image -->
<g id="edge5" class="edge">
<title>:shared:feature:database&#45;&gt;:ui:image</title>
<path fill="none" stroke="black" stroke-dasharray="1,5" d="M408.12,-821.85C408.12,-762.21 408.12,-576 408.12,-576 408.12,-576 356.14,-576 356.14,-576"/>
<polygon fill="black" stroke="black" points="356.14,-572.5 346.14,-576 356.14,-579.5 356.14,-572.5"/>
</g>
<!-- :test&#45;data&#45;&gt;:shared:domain -->
<g id="edge6" class="edge">
<title>:test&#45;data&#45;&gt;:shared:domain</title>
<path fill="none" stroke="black" stroke-dasharray="1,5" d="M660.94,-556C617.41,-556 558.76,-556 558.76,-556 558.76,-556 558.76,-25 558.76,-25 558.76,-25 629.71,-25 629.71,-25"/>
<polygon fill="black" stroke="black" points="629.71,-28.5 639.71,-25 629.71,-21.5 629.71,-28.5"/>
</g>
<!-- :core:coroutines -->
<g id="node7" class="node">
<title>:core:coroutines</title>
<ellipse fill="#b59aff" stroke="black" cx="928.04" cy="-155" rx="85.29" ry="18"/>
<text text-anchor="middle" x="928.04" y="-151.3" font-family="Times,serif" font-size="14.00">:core:coroutines</text>
</g>
<!-- :test&#45;data&#45;&gt;:core:coroutines -->
<g id="edge7" class="edge">
<title>:test&#45;data&#45;&gt;:core:coroutines</title>
<path fill="none" stroke="black" stroke-dasharray="1,5" d="M759.15,-572C831.28,-572 952.76,-572 952.76,-572 952.76,-572 952.76,-182.39 952.76,-182.39"/>
<polygon fill="black" stroke="black" points="956.26,-182.39 952.76,-172.39 949.26,-182.39 956.26,-182.39"/>
</g>
<!-- :data:database -->
<g id="node8" class="node">
<title>:data:database</title>
<ellipse fill="#b59aff" stroke="black" cx="813.04" cy="-292" rx="79.09" ry="18"/>
<text text-anchor="middle" x="813.04" y="-288.3" font-family="Times,serif" font-size="14.00">:data:database</text>
</g>
<!-- :test&#45;data&#45;&gt;:data:database -->
<g id="edge8" class="edge">
<title>:test&#45;data&#45;&gt;:data:database</title>
<path fill="none" stroke="black" stroke-dasharray="1,5" d="M759.44,-560C795.79,-560 837.71,-560 837.71,-560 837.71,-560 837.71,-319.17 837.71,-319.17"/>
<polygon fill="black" stroke="black" points="841.21,-319.17 837.71,-309.17 834.21,-319.17 841.21,-319.17"/>
</g>
<!-- :data:musicbrainz -->
<g id="node9" class="node">
<title>:data:musicbrainz</title>
<ellipse fill="#b59aff" stroke="black" cx="655.04" cy="-155" rx="93.68" ry="18"/>
<text text-anchor="middle" x="655.04" y="-151.3" font-family="Times,serif" font-size="14.00">:data:musicbrainz</text>
</g>
<!-- :test&#45;data&#45;&gt;:data:musicbrainz -->
<g id="edge9" class="edge">
<title>:test&#45;data&#45;&gt;:data:musicbrainz</title>
<path fill="none" stroke="black" stroke-dasharray="1,5" d="M672.12,-552C643.87,-552 608.77,-552 608.77,-552 608.77,-552 608.77,-181.05 608.77,-181.05"/>
<polygon fill="black" stroke="black" points="612.27,-181.05 608.77,-171.05 605.27,-181.05 612.27,-181.05"/>
</g>
<!-- :data:coverart -->
<g id="node10" class="node">
<title>:data:coverart</title>
<ellipse fill="#b59aff" stroke="black" cx="707.04" cy="-429" rx="76.09" ry="18"/>
<text text-anchor="middle" x="707.04" y="-425.3" font-family="Times,serif" font-size="14.00">:data:coverart</text>
</g>
<!-- :test&#45;data&#45;&gt;:data:coverart -->
<g id="edge10" class="edge">
<title>:test&#45;data&#45;&gt;:data:coverart</title>
<path fill="none" stroke="black" stroke-dasharray="1,5" d="M688.63,-548.93C688.63,-548.93 688.63,-456.72 688.63,-456.72"/>
<polygon fill="black" stroke="black" points="692.13,-456.72 688.63,-446.72 685.13,-456.72 692.13,-456.72"/>
</g>
<!-- :data:spotify -->
<g id="node11" class="node">
<title>:data:spotify</title>
<ellipse fill="#b59aff" stroke="black" cx="436.04" cy="-155" rx="68.79" ry="18"/>
<text text-anchor="middle" x="436.04" y="-151.3" font-family="Times,serif" font-size="14.00">:data:spotify</text>
</g>
<!-- :test&#45;data&#45;&gt;:data:spotify -->
<g id="edge11" class="edge">
<title>:test&#45;data&#45;&gt;:data:spotify</title>
<path fill="none" stroke="black" stroke-dasharray="1,5" d="M654.96,-560C589.29,-560 484.88,-560 484.88,-560 484.88,-560 484.88,-178.02 484.88,-178.02"/>
<polygon fill="black" stroke="black" points="488.38,-178.02 484.88,-168.02 481.38,-178.02 488.38,-178.02"/>
</g>
<!-- :ui:core -->
<g id="node12" class="node">
<title>:ui:core</title>
<ellipse fill="#b59aff" stroke="black" cx="190.04" cy="-429" rx="45.49" ry="18"/>
<text text-anchor="middle" x="190.04" y="-425.3" font-family="Times,serif" font-size="14.00">:ui:core</text>
</g>
<!-- :ui:test:screenshot&#45;&gt;:ui:core -->
<g id="edge12" class="edge">
<title>:ui:test:screenshot&#45;&gt;:ui:core</title>
<path fill="none" stroke="black" stroke-dasharray="1,5" d="M186.72,-551.08C186.72,-551.08 186.72,-457.38 186.72,-457.38"/>
<polygon fill="black" stroke="black" points="190.22,-457.38 186.72,-447.38 183.22,-457.38 190.22,-457.38"/>
</g>
<!-- :test:image -->
<g id="node13" class="node">
<title>:test:image</title>
<ellipse fill="#9affb5" stroke="black" cx="63.04" cy="-429" rx="63.09" ry="18"/>
<text text-anchor="middle" x="63.04" y="-425.3" font-family="Times,serif" font-size="14.00">:test:image</text>
</g>
<!-- :ui:test:screenshot&#45;&gt;:test:image -->
<g id="edge13" class="edge">
<title>:ui:test:screenshot&#45;&gt;:test:image</title>
<path fill="none" stroke="black" stroke-dasharray="1,5" d="M80.65,-550.55C80.65,-550.55 80.65,-456.33 80.65,-456.33"/>
<polygon fill="black" stroke="black" points="84.15,-456.33 80.65,-446.33 77.15,-456.33 84.15,-456.33"/>
</g>
<!-- :ui:common&#45;&gt;:test&#45;data -->
<g id="edge14" class="edge">
<title>:ui:common&#45;&gt;:test&#45;data</title>
<path fill="none" stroke="#ff9ab1" stroke-dasharray="1,5" d="M543.7,-693.15C543.7,-662.69 543.7,-572 543.7,-572 543.7,-572 644.91,-572 644.91,-572"/>
<polygon fill="#ff9ab1" stroke="#ff9ab1" points="644.91,-575.5 654.91,-572 644.91,-568.5 644.91,-575.5"/>
</g>
<!-- :ui:common&#45;&gt;:ui:test:screenshot -->
<g id="edge15" class="edge">
<title>:ui:common&#45;&gt;:ui:test:screenshot</title>
<path fill="none" stroke="#ff9ab1" stroke-dasharray="1,5" d="M424.5,-703C329.8,-703 164.32,-703 164.32,-703 164.32,-703 164.32,-593.07 164.32,-593.07"/>
<polygon fill="#ff9ab1" stroke="#ff9ab1" points="167.82,-593.07 164.32,-583.07 160.82,-593.07 167.82,-593.07"/>
</g>
<!-- :ui:common&#45;&gt;:shared:domain -->
<g id="edge17" class="edge">
<title>:ui:common&#45;&gt;:shared:domain</title>
<path fill="none" stroke="black" d="M534.01,-689.97C534.01,-595.54 534.01,-20 534.01,-20 534.01,-20 623.81,-20 623.81,-20"/>
<polygon fill="black" stroke="black" points="623.81,-23.5 633.81,-20 623.81,-16.5 623.81,-23.5"/>
</g>
<!-- :ui:common&#45;&gt;:ui:image -->
<g id="edge22" class="edge">
<title>:ui:common&#45;&gt;:ui:image</title>
<path fill="none" stroke="black" stroke-dasharray="1,5" d="M444.76,-689.56C444.76,-655.42 444.76,-568 444.76,-568 444.76,-568 364.97,-568 364.97,-568"/>
<polygon fill="black" stroke="black" points="364.97,-564.5 354.97,-568 364.97,-571.5 364.97,-564.5"/>
</g>
<!-- :ui:common&#45;&gt;:core:coroutines -->
<g id="edge16" class="edge">
<title>:ui:common&#45;&gt;:core:coroutines</title>
<path fill="none" stroke="#ff9ab1" stroke-dasharray="1,5" d="M545.22,-712C674.68,-712 982.97,-712 982.97,-712 982.97,-712 982.97,-178.77 982.97,-178.77"/>
<polygon fill="#ff9ab1" stroke="#ff9ab1" points="986.47,-178.77 982.97,-168.77 979.47,-178.77 986.47,-178.77"/>
</g>
<!-- :ui:common&#45;&gt;:data:musicbrainz -->
<g id="edge20" class="edge">
<title>:ui:common&#45;&gt;:data:musicbrainz</title>
<path fill="none" stroke="black" stroke-dasharray="1,5" d="M545.14,-694C558.93,-694 569.82,-694 569.82,-694 569.82,-694 569.82,-172.62 569.82,-172.62"/>
<polygon fill="black" stroke="black" points="573.32,-172.62 569.82,-162.62 566.32,-172.62 573.32,-172.62"/>
</g>
<!-- :ui:common&#45;&gt;:data:coverart -->
<g id="edge19" class="edge">
<title>:ui:common&#45;&gt;:data:coverart</title>
<path fill="none" stroke="black" stroke-dasharray="1,5" d="M553.66,-703C595.18,-703 641.4,-703 641.4,-703 641.4,-703 641.4,-448.12 641.4,-448.12"/>
<polygon fill="black" stroke="black" points="644.9,-448.12 641.4,-438.12 637.9,-448.12 644.9,-448.12"/>
</g>
<!-- :ui:common&#45;&gt;:ui:core -->
<g id="edge18" class="edge">
<title>:ui:common&#45;&gt;:ui:core</title>
<path fill="none" stroke="black" d="M464.82,-686.27C464.82,-626.78 464.82,-429 464.82,-429 464.82,-429 245.73,-429 245.73,-429"/>
<polygon fill="black" stroke="black" points="245.73,-425.5 235.73,-429 245.73,-432.5 245.73,-425.5"/>
</g>
<!-- :core:logging:api -->
<g id="node14" class="node">
<title>:core:logging:api</title>
<ellipse fill="#b59aff" stroke="black" cx="388.04" cy="-18" rx="88.28" ry="18"/>
<text text-anchor="middle" x="388.04" y="-14.3" font-family="Times,serif" font-size="14.00">:core:logging:api</text>
</g>
<!-- :ui:common&#45;&gt;:core:logging:api -->
<g id="edge21" class="edge">
<title>:ui:common&#45;&gt;:core:logging:api</title>
<path fill="none" stroke="black" stroke-dasharray="1,5" d="M524.32,-687.68C524.32,-587.5 524.32,-30 524.32,-30 524.32,-30 464.19,-30 464.19,-30"/>
<polygon fill="black" stroke="black" points="464.19,-26.5 454.19,-30 464.19,-33.5 464.19,-26.5"/>
</g>
<!-- :ui:image&#45;&gt;:shared:domain -->
<g id="edge23" class="edge">
<title>:ui:image&#45;&gt;:shared:domain</title>
<path fill="none" stroke="black" stroke-dasharray="1,5" d="M354.66,-564C417.93,-564 514.63,-564 514.63,-564 514.63,-564 514.63,-15 514.63,-15 514.63,-15 624.41,-15 624.41,-15"/>
<polygon fill="black" stroke="black" points="624.41,-18.5 634.41,-15 624.41,-11.5 624.41,-18.5"/>
</g>
<!-- :ui:image&#45;&gt;:ui:core -->
<g id="edge24" class="edge">
<title>:ui:image&#45;&gt;:ui:core</title>
<path fill="none" stroke="black" stroke-dasharray="1,5" d="M273.38,-550.3C273.38,-516.12 273.38,-438 273.38,-438 273.38,-438 239.76,-438 239.76,-438"/>
<polygon fill="black" stroke="black" points="239.76,-434.5 229.76,-438 239.76,-441.5 239.76,-434.5"/>
</g>
<!-- :data:database&#45;&gt;:shared:domain -->
<g id="edge25" class="edge">
<title>:data:database&#45;&gt;:shared:domain</title>
<path fill="none" stroke="black" stroke-dasharray="1,5" d="M781.94,-275.27C781.94,-275.27 781.94,-39.09 781.94,-39.09"/>
<polygon fill="black" stroke="black" points="785.44,-39.09 781.94,-29.09 778.44,-39.09 785.44,-39.09"/>
</g>
<!-- :data:database&#45;&gt;:core:coroutines -->
<g id="edge26" class="edge">
<title>:data:database&#45;&gt;:core:coroutines</title>
<path fill="none" stroke="black" stroke-dasharray="1,5" d="M867.62,-278.86C867.62,-278.86 867.62,-177.9 867.62,-177.9"/>
<polygon fill="black" stroke="black" points="871.12,-177.9 867.62,-167.9 864.12,-177.9 871.12,-177.9"/>
</g>
<!-- :data:database&#45;&gt;:data:musicbrainz -->
<g id="edge27" class="edge">
<title>:data:database&#45;&gt;:data:musicbrainz</title>
<path fill="none" stroke="black" stroke-dasharray="1,5" d="M741.19,-284.24C741.19,-284.24 741.19,-172.34 741.19,-172.34"/>
<polygon fill="black" stroke="black" points="744.69,-172.34 741.19,-162.34 737.69,-172.34 744.69,-172.34"/>
</g>
<!-- :data:musicbrainz&#45;&gt;:shared:domain -->
<g id="edge28" class="edge">
<title>:data:musicbrainz&#45;&gt;:shared:domain</title>
<path fill="none" stroke="black" stroke-dasharray="1,5" d="M710.26,-140.34C710.26,-140.34 710.26,-46.01 710.26,-46.01"/>
<polygon fill="black" stroke="black" points="713.76,-46.01 710.26,-36.01 706.76,-46.01 713.76,-46.01"/>
</g>
<!-- :data:musicbrainz&#45;&gt;:core:logging:api -->
<g id="edge29" class="edge">
<title>:data:musicbrainz&#45;&gt;:core:logging:api</title>
<path fill="none" stroke="black" stroke-dasharray="1,5" d="M597.48,-140.62C597.48,-103.07 597.48,-5 597.48,-5 597.48,-5 459.18,-5 459.18,-5"/>
<polygon fill="black" stroke="black" points="459.18,-1.5 449.18,-5 459.18,-8.5 459.18,-1.5"/>
</g>
<!-- :data:coverart&#45;&gt;:test&#45;data -->
<g id="edge33" class="edge">
<title>:data:coverart&#45;&gt;:test&#45;data</title>
<path fill="none" stroke="#ff9ab1" stroke-dasharray="1,5" d="M725.46,-446.63C725.46,-446.63 725.46,-538.87 725.46,-538.87"/>
<polygon fill="#ff9ab1" stroke="#ff9ab1" points="721.96,-538.87 725.46,-548.87 728.96,-538.87 721.96,-538.87"/>
</g>
<!-- :data:coverart&#45;&gt;:shared:domain -->
<g id="edge30" class="edge">
<title>:data:coverart&#45;&gt;:shared:domain</title>
<path fill="none" stroke="black" stroke-dasharray="1,5" d="M699.5,-411.08C699.5,-360.96 699.5,-223 699.5,-223 699.5,-223 765.29,-223 765.29,-223 765.29,-223 765.29,-42.74 765.29,-42.74"/>
<polygon fill="black" stroke="black" points="768.79,-42.74 765.29,-32.74 761.79,-42.74 768.79,-42.74"/>
</g>
<!-- :data:coverart&#45;&gt;:core:coroutines -->
<g id="edge32" class="edge">
<title>:data:coverart&#45;&gt;:core:coroutines</title>
<path fill="none" stroke="black" stroke-dasharray="1,5" d="M783.33,-429C845.32,-429 922.55,-429 922.55,-429 922.55,-429 922.55,-182.98 922.55,-182.98"/>
<polygon fill="black" stroke="black" points="926.05,-182.98 922.55,-172.98 919.05,-182.98 926.05,-182.98"/>
</g>
<!-- :data:coverart&#45;&gt;:data:database -->
<g id="edge35" class="edge">
<title>:data:coverart&#45;&gt;:data:database</title>
<path fill="none" stroke="#ff9ab1" stroke-dasharray="1,5" d="M758.42,-415.61C758.42,-415.61 758.42,-315.24 758.42,-315.24"/>
<polygon fill="#ff9ab1" stroke="#ff9ab1" points="761.92,-315.24 758.42,-305.24 754.92,-315.24 761.92,-315.24"/>
</g>
<!-- :data:coverart&#45;&gt;:data:musicbrainz -->
<g id="edge34" class="edge">
<title>:data:coverart&#45;&gt;:data:musicbrainz</title>
<path fill="none" stroke="#ff9ab1" stroke-dasharray="1,5" d="M665.25,-413.88C665.25,-413.88 665.25,-183.23 665.25,-183.23"/>
<polygon fill="#ff9ab1" stroke="#ff9ab1" points="668.75,-183.23 665.25,-173.23 661.75,-183.23 668.75,-183.23"/>
</g>
<!-- :data:coverart&#45;&gt;:core:logging:api -->
<g id="edge31" class="edge">
<title>:data:coverart&#45;&gt;:core:logging:api</title>
<path fill="none" stroke="black" stroke-dasharray="1,5" d="M641.15,-420C540.77,-420 361.07,-420 361.07,-420 361.07,-420 361.07,-45.27 361.07,-45.27"/>
<polygon fill="black" stroke="black" points="364.57,-45.27 361.07,-35.27 357.57,-45.27 364.57,-45.27"/>
</g>
<!-- :data:spotify&#45;&gt;:shared:domain -->
<g id="edge36" class="edge">
<title>:data:spotify&#45;&gt;:shared:domain</title>
<path fill="none" stroke="black" stroke-dasharray="1,5" d="M490.69,-143.62C490.69,-109.44 490.69,-10 490.69,-10 490.69,-10 631.94,-10 631.94,-10"/>
<polygon fill="black" stroke="black" points="631.94,-13.5 641.94,-10 631.94,-6.5 631.94,-13.5"/>
</g>
<!-- :data:spotify&#45;&gt;:core:logging:api -->
<g id="edge37" class="edge">
<title>:data:spotify&#45;&gt;:core:logging:api</title>
<path fill="none" stroke="black" stroke-dasharray="1,5" d="M421.79,-137.37C421.79,-137.37 421.79,-44.7 421.79,-44.7"/>
<polygon fill="black" stroke="black" points="425.29,-44.7 421.79,-34.7 418.29,-44.7 425.29,-44.7"/>
</g>
<!-- :shared:strings -->
<g id="node15" class="node">
<title>:shared:strings</title>
<ellipse fill="#b59aff" stroke="black" cx="154.04" cy="-292" rx="81.49" ry="18"/>
<text text-anchor="middle" x="154.04" y="-288.3" font-family="Times,serif" font-size="14.00">:shared:strings</text>
</g>
<!-- :ui:core&#45;&gt;:shared:strings -->
<g id="edge38" class="edge">
<title>:ui:core&#45;&gt;:shared:strings</title>
<path fill="none" stroke="black" d="M189.92,-410.81C189.92,-410.81 189.92,-318.55 189.92,-318.55"/>
<polygon fill="black" stroke="black" points="193.42,-318.55 189.92,-308.55 186.42,-318.55 193.42,-318.55"/>
</g>
</g>
</svg>
