<?xml version="1.0" encoding="UTF-8" standalone="no"?>
<!DOCTYPE svg PUBLIC "-//W3C//DTD SVG 1.1//EN"
 "http://www.w3.org/Graphics/SVG/1.1/DTD/svg11.dtd">
<!-- Generated by graphviz version 2.43.0 (0)
 -->
<!-- Title: %3 Pages: 1 -->
<svg width="1101pt" height="1077pt"
 viewBox="0.00 0.00 1101.38 1077.00" xmlns="http://www.w3.org/2000/svg" xmlns:xlink="http://www.w3.org/1999/xlink">
<g id="graph0" class="graph" transform="scale(1 1) rotate(0) translate(4 1073)">
<title>%3</title>
<polygon fill="white" stroke="transparent" points="-4,4 -4,-1073 1097.38,-1073 1097.38,4 -4,4"/>
<text text-anchor="middle" x="546.69" y="-1041" font-family="Times,serif" font-size="30.00">Dependencies</text>
<text text-anchor="middle" x="546.69" y="-1008" font-family="Times,serif" font-size="30.00"> </text>
<!-- :shared:feature:database -->
<g id="node1" class="node">
<title>:shared:feature:database</title>
<polygon fill="#b59aff" stroke="black" points="731.04,-995 536.04,-995 536.04,-959 731.04,-959 731.04,-995"/>
<text text-anchor="middle" x="633.54" y="-973.3" font-family="Times,serif" font-size="14.00">:shared:feature:database</text>
</g>
<!-- :test&#45;data -->
<g id="node2" class="node">
<title>:test&#45;data</title>
<ellipse fill="#b59aff" stroke="black" cx="470.54" cy="-703" rx="55.49" ry="18"/>
<text text-anchor="middle" x="470.54" y="-699.3" font-family="Times,serif" font-size="14.00">:test&#45;data</text>
</g>
<!-- :shared:feature:database&#45;&gt;:test&#45;data -->
<g id="edge1" class="edge">
<title>:shared:feature:database&#45;&gt;:test&#45;data</title>
<path fill="none" stroke="#ff9ab1" stroke-dasharray="1,5" d="M541.31,-958.8C541.31,-898.04 541.31,-706 541.31,-706 541.31,-706 535.26,-706 535.26,-706"/>
<polygon fill="#ff9ab1" stroke="#ff9ab1" points="535.26,-702.5 525.26,-706 535.26,-709.5 535.26,-702.5"/>
</g>
<!-- :ui:test:screenshot -->
<g id="node3" class="node">
<title>:ui:test:screenshot</title>
<ellipse fill="#9affb5" stroke="black" cx="996.54" cy="-703" rx="96.68" ry="18"/>
<text text-anchor="middle" x="996.54" y="-699.3" font-family="Times,serif" font-size="14.00">:ui:test:screenshot</text>
</g>
<!-- :shared:feature:database&#45;&gt;:ui:test:screenshot -->
<g id="edge2" class="edge">
<title>:shared:feature:database&#45;&gt;:ui:test:screenshot</title>
<path fill="none" stroke="#ff9ab1" stroke-dasharray="1,5" d="M731.3,-977C838.81,-977 996.54,-977 996.54,-977 996.54,-977 996.54,-731.4 996.54,-731.4"/>
<polygon fill="#ff9ab1" stroke="#ff9ab1" points="1000.04,-731.4 996.54,-721.4 993.04,-731.4 1000.04,-731.4"/>
</g>
<!-- :ui:common -->
<g id="node4" class="node">
<title>:ui:common</title>
<ellipse fill="#b59aff" stroke="black" cx="688.54" cy="-840" rx="64.19" ry="18"/>
<text text-anchor="middle" x="688.54" y="-836.3" font-family="Times,serif" font-size="14.00">:ui:common</text>
</g>
<!-- :shared:feature:database&#45;&gt;:ui:common -->
<g id="edge3" class="edge">
<title>:shared:feature:database&#45;&gt;:ui:common</title>
<path fill="none" stroke="black" stroke-dasharray="1,5" d="M677.62,-958.81C677.62,-958.81 677.62,-867.83 677.62,-867.83"/>
<polygon fill="black" stroke="black" points="681.12,-867.83 677.62,-857.83 674.12,-867.83 681.12,-867.83"/>
</g>
<!-- :shared:domain -->
<g id="node5" class="node">
<title>:shared:domain</title>
<ellipse fill="#b59aff" stroke="black" cx="82.54" cy="-155" rx="82.59" ry="18"/>
<text text-anchor="middle" x="82.54" y="-151.3" font-family="Times,serif" font-size="14.00">:shared:domain</text>
</g>
<!-- :shared:feature:database&#45;&gt;:shared:domain -->
<g id="edge4" class="edge">
<title>:shared:feature:database&#45;&gt;:shared:domain</title>
<path fill="none" stroke="black" stroke-dasharray="1,5" d="M535.72,-977C365.56,-977 33.02,-977 33.02,-977 33.02,-977 33.02,-179.62 33.02,-179.62"/>
<polygon fill="black" stroke="black" points="36.52,-179.62 33.02,-169.62 29.52,-179.62 36.52,-179.62"/>
</g>
<!-- :test&#45;data&#45;&gt;:shared:domain -->
<g id="edge5" class="edge">
<title>:test&#45;data&#45;&gt;:shared:domain</title>
<path fill="none" stroke="black" stroke-dasharray="1,5" d="M424.24,-713C324.66,-713 99.05,-713 99.05,-713 99.05,-713 99.05,-182.93 99.05,-182.93"/>
<polygon fill="black" stroke="black" points="102.55,-182.93 99.05,-172.93 95.55,-182.93 102.55,-182.93"/>
</g>
<!-- :core:coroutines -->
<g id="node6" class="node">
<title>:core:coroutines</title>
<ellipse fill="#b59aff" stroke="black" cx="668.54" cy="-18" rx="85.29" ry="18"/>
<text text-anchor="middle" x="668.54" y="-14.3" font-family="Times,serif" font-size="14.00">:core:coroutines</text>
</g>
<!-- :test&#45;data&#45;&gt;:core:coroutines -->
<g id="edge6" class="edge">
<title>:test&#45;data&#45;&gt;:core:coroutines</title>
<path fill="none" stroke="black" stroke-dasharray="1,5" d="M514.43,-692C577.48,-692 686.15,-692 686.15,-692 686.15,-692 686.15,-45.68 686.15,-45.68"/>
<polygon fill="black" stroke="black" points="689.65,-45.68 686.15,-35.68 682.65,-45.68 689.65,-45.68"/>
</g>
<!-- :data:database -->
<g id="node7" class="node">
<title>:data:database</title>
<ellipse fill="#b59aff" stroke="black" cx="259.54" cy="-429" rx="79.09" ry="18"/>
<text text-anchor="middle" x="259.54" y="-425.3" font-family="Times,serif" font-size="14.00">:data:database</text>
</g>
<!-- :test&#45;data&#45;&gt;:data:database -->
<g id="edge7" class="edge">
<title>:test&#45;data&#45;&gt;:data:database</title>
<path fill="none" stroke="black" stroke-dasharray="1,5" d="M415.93,-706C353.41,-706 259.54,-706 259.54,-706 259.54,-706 259.54,-457.17 259.54,-457.17"/>
<polygon fill="black" stroke="black" points="263.04,-457.17 259.54,-447.17 256.04,-457.17 263.04,-457.17"/>
</g>
<!-- :data:musicbrainz -->
<g id="node8" class="node">
<title>:data:musicbrainz</title>
<ellipse fill="#b59aff" stroke="black" cx="470.54" cy="-292" rx="93.68" ry="18"/>
<text text-anchor="middle" x="470.54" y="-288.3" font-family="Times,serif" font-size="14.00">:data:musicbrainz</text>
</g>
<!-- :test&#45;data&#45;&gt;:data:musicbrainz -->
<g id="edge8" class="edge">
<title>:test&#45;data&#45;&gt;:data:musicbrainz</title>
<path fill="none" stroke="black" stroke-dasharray="1,5" d="M426.72,-692C407.25,-692 388.65,-692 388.65,-692 388.65,-692 388.65,-310.73 388.65,-310.73"/>
<polygon fill="black" stroke="black" points="392.15,-310.73 388.65,-300.73 385.15,-310.73 392.15,-310.73"/>
</g>
<!-- :data:coverart -->
<g id="node9" class="node">
<title>:data:coverart</title>
<ellipse fill="#b59aff" stroke="black" cx="470.54" cy="-566" rx="76.09" ry="18"/>
<text text-anchor="middle" x="470.54" y="-562.3" font-family="Times,serif" font-size="14.00">:data:coverart</text>
</g>
<!-- :test&#45;data&#45;&gt;:data:coverart -->
<g id="edge9" class="edge">
<title>:test&#45;data&#45;&gt;:data:coverart</title>
<path fill="none" stroke="black" stroke-dasharray="1,5" d="M452.13,-685.93C452.13,-685.93 452.13,-593.72 452.13,-593.72"/>
<polygon fill="black" stroke="black" points="455.63,-593.72 452.13,-583.72 448.63,-593.72 455.63,-593.72"/>
</g>
<!-- :data:spotify -->
<g id="node10" class="node">
<title>:data:spotify</title>
<ellipse fill="#b59aff" stroke="black" cx="290.54" cy="-292" rx="68.79" ry="18"/>
<text text-anchor="middle" x="290.54" y="-288.3" font-family="Times,serif" font-size="14.00">:data:spotify</text>
</g>
<!-- :test&#45;data&#45;&gt;:data:spotify -->
<g id="edge10" class="edge">
<title>:test&#45;data&#45;&gt;:data:spotify</title>
<path fill="none" stroke="black" stroke-dasharray="1,5" d="M416.58,-699C384.16,-699 349.14,-699 349.14,-699 349.14,-699 349.14,-311.66 349.14,-311.66"/>
<polygon fill="black" stroke="black" points="352.64,-311.66 349.14,-301.66 345.64,-311.66 352.64,-311.66"/>
</g>
<!-- :ui:core -->
<g id="node11" class="node">
<title>:ui:core</title>
<ellipse fill="#b59aff" stroke="black" cx="797.54" cy="-566" rx="45.49" ry="18"/>
<text text-anchor="middle" x="797.54" y="-562.3" font-family="Times,serif" font-size="14.00">:ui:core</text>
</g>
<!-- :ui:test:screenshot&#45;&gt;:ui:core -->
<g id="edge11" class="edge">
<title>:ui:test:screenshot&#45;&gt;:ui:core</title>
<path fill="none" stroke="black" stroke-dasharray="1,5" d="M916.6,-692.7C916.6,-660.84 916.6,-566 916.6,-566 916.6,-566 853.23,-566 853.23,-566"/>
<polygon fill="black" stroke="black" points="853.23,-562.5 843.23,-566 853.23,-569.5 853.23,-562.5"/>
</g>
<!-- :test:image -->
<g id="node12" class="node">
<title>:test:image</title>
<ellipse fill="#9affb5" stroke="black" cx="996.54" cy="-566" rx="63.09" ry="18"/>
<text text-anchor="middle" x="996.54" y="-562.3" font-family="Times,serif" font-size="14.00">:test:image</text>
</g>
<!-- :ui:test:screenshot&#45;&gt;:test:image -->
<g id="edge12" class="edge">
<title>:ui:test:screenshot&#45;&gt;:test:image</title>
<path fill="none" stroke="black" stroke-dasharray="1,5" d="M996.54,-684.81C996.54,-684.81 996.54,-594.27 996.54,-594.27"/>
<polygon fill="black" stroke="black" points="1000.04,-594.27 996.54,-584.27 993.04,-594.27 1000.04,-594.27"/>
</g>
<!-- :ui:common&#45;&gt;:test&#45;data -->
<g id="edge13" class="edge">
<title>:ui:common&#45;&gt;:test&#45;data</title>
<path fill="none" stroke="#ff9ab1" stroke-dasharray="1,5" d="M629.78,-832.42C629.78,-803.13 629.78,-699 629.78,-699 629.78,-699 534.45,-699 534.45,-699"/>
<polygon fill="#ff9ab1" stroke="#ff9ab1" points="534.45,-695.5 524.45,-699 534.45,-702.5 534.45,-695.5"/>
</g>
<!-- :ui:common&#45;&gt;:ui:test:screenshot -->
<g id="edge14" class="edge">
<title>:ui:common&#45;&gt;:ui:test:screenshot</title>
<path fill="none" stroke="#ff9ab1" stroke-dasharray="1,5" d="M740.13,-829.17C740.13,-798.46 740.13,-713 740.13,-713 740.13,-713 905.76,-713 905.76,-713"/>
<polygon fill="#ff9ab1" stroke="#ff9ab1" points="905.76,-716.5 915.76,-713 905.76,-709.5 905.76,-716.5"/>
</g>
<!-- :ui:common&#45;&gt;:shared:domain -->
<g id="edge16" class="edge">
<title>:ui:common&#45;&gt;:shared:domain</title>
<path fill="none" stroke="black" d="M623.98,-840C464.73,-840 66.03,-840 66.03,-840 66.03,-840 66.03,-182.97 66.03,-182.97"/>
<polygon fill="black" stroke="black" points="69.53,-182.97 66.03,-172.97 62.53,-182.97 69.53,-182.97"/>
</g>
<!-- :ui:common&#45;&gt;:core:coroutines -->
<g id="edge15" class="edge">
<title>:ui:common&#45;&gt;:core:coroutines</title>
<path fill="none" stroke="#ff9ab1" stroke-dasharray="1,5" d="M701.23,-822.07C701.23,-822.07 701.23,-44.66 701.23,-44.66"/>
<polygon fill="#ff9ab1" stroke="#ff9ab1" points="704.73,-44.66 701.23,-34.66 697.73,-44.66 704.73,-44.66"/>
</g>
<!-- :ui:common&#45;&gt;:ui:core -->
<g id="edge17" class="edge">
<title>:ui:common&#45;&gt;:ui:core</title>
<path fill="none" stroke="black" d="M728.22,-825.58C728.22,-767.91 728.22,-557 728.22,-557 728.22,-557 748.02,-557 748.02,-557"/>
<polygon fill="black" stroke="black" points="748.02,-560.5 758.02,-557 748.02,-553.5 748.02,-560.5"/>
</g>
<!-- :core:logging:api -->
<g id="node13" class="node">
<title>:core:logging:api</title>
<ellipse fill="#b59aff" stroke="black" cx="552.54" cy="-155" rx="88.28" ry="18"/>
<text text-anchor="middle" x="552.54" y="-151.3" font-family="Times,serif" font-size="14.00">:core:logging:api</text>
</g>
<!-- :ui:common&#45;&gt;:core:logging:api -->
<g id="edge18" class="edge">
<title>:ui:common&#45;&gt;:core:logging:api</title>
<path fill="none" stroke="black" stroke-dasharray="1,5" d="M635.36,-829.79C635.36,-829.79 635.36,-171.64 635.36,-171.64"/>
<polygon fill="black" stroke="black" points="638.86,-171.64 635.36,-161.64 631.86,-171.64 638.86,-171.64"/>
</g>
<!-- :data:database&#45;&gt;:shared:domain -->
<g id="edge19" class="edge">
<title>:data:database&#45;&gt;:shared:domain</title>
<path fill="none" stroke="black" stroke-dasharray="1,5" d="M200.95,-416.62C200.95,-364.43 200.95,-165 200.95,-165 200.95,-165 161.42,-165 161.42,-165"/>
<polygon fill="black" stroke="black" points="161.42,-161.5 151.42,-165 161.42,-168.5 161.42,-161.5"/>
</g>
<!-- :data:database&#45;&gt;:core:coroutines -->
<g id="edge20" class="edge">
<title>:data:database&#45;&gt;:core:coroutines</title>
<path fill="none" stroke="black" stroke-dasharray="1,5" d="M339.3,-429C455.07,-429 656.01,-429 656.01,-429 656.01,-429 656.01,-45.92 656.01,-45.92"/>
<polygon fill="black" stroke="black" points="659.51,-45.92 656.01,-35.92 652.51,-45.92 659.51,-45.92"/>
</g>
<!-- :data:database&#45;&gt;:data:musicbrainz -->
<g id="edge21" class="edge">
<title>:data:database&#45;&gt;:data:musicbrainz</title>
<path fill="none" stroke="black" stroke-dasharray="1,5" d="M328.38,-420C356.61,-420 382.8,-420 382.8,-420 382.8,-420 382.8,-308.52 382.8,-308.52"/>
<polygon fill="black" stroke="black" points="386.3,-308.52 382.8,-298.52 379.3,-308.52 386.3,-308.52"/>
</g>
<!-- :data:musicbrainz&#45;&gt;:shared:domain -->
<g id="edge22" class="edge">
<title>:data:musicbrainz&#45;&gt;:shared:domain</title>
<path fill="none" stroke="black" stroke-dasharray="1,5" d="M420.55,-276.72C420.55,-238.91 420.55,-144 420.55,-144 420.55,-144 158.11,-144 158.11,-144"/>
<polygon fill="black" stroke="black" points="158.11,-140.5 148.11,-144 158.11,-147.5 158.11,-140.5"/>
</g>
<!-- :data:musicbrainz&#45;&gt;:core:logging:api -->
<g id="edge23" class="edge">
<title>:data:musicbrainz&#45;&gt;:core:logging:api</title>
<path fill="none" stroke="black" stroke-dasharray="1,5" d="M514.14,-276.02C514.14,-276.02 514.14,-181.31 514.14,-181.31"/>
<polygon fill="black" stroke="black" points="517.64,-181.31 514.14,-171.31 510.64,-181.31 517.64,-181.31"/>
</g>
<!-- :data:coverart&#45;&gt;:test&#45;data -->
<g id="edge27" class="edge">
<title>:data:coverart&#45;&gt;:test&#45;data</title>
<path fill="none" stroke="#ff9ab1" stroke-dasharray="1,5" d="M488.96,-583.63C488.96,-583.63 488.96,-675.87 488.96,-675.87"/>
<polygon fill="#ff9ab1" stroke="#ff9ab1" points="485.46,-675.87 488.96,-685.87 492.46,-675.87 485.46,-675.87"/>
</g>
<!-- :data:coverart&#45;&gt;:shared:domain -->
<g id="edge24" class="edge">
<title>:data:coverart&#45;&gt;:shared:domain</title>
<path fill="none" stroke="black" stroke-dasharray="1,5" d="M394.16,-566C294.33,-566 132.07,-566 132.07,-566 132.07,-566 132.07,-179.63 132.07,-179.63"/>
<polygon fill="black" stroke="black" points="135.57,-179.63 132.07,-169.63 128.57,-179.63 135.57,-179.63"/>
</g>
<!-- :data:coverart&#45;&gt;:core:coroutines -->
<g id="edge26" class="edge">
<title>:data:coverart&#45;&gt;:core:coroutines</title>
<path fill="none" stroke="black" stroke-dasharray="1,5" d="M536.48,-575C594.93,-575 671.08,-575 671.08,-575 671.08,-575 671.08,-46.22 671.08,-46.22"/>
<polygon fill="black" stroke="black" points="674.58,-46.22 671.08,-36.22 667.58,-46.22 674.58,-46.22"/>
</g>
<!-- :data:coverart&#45;&gt;:data:database -->
<g id="edge29" class="edge">
<title>:data:coverart&#45;&gt;:data:database</title>
<path fill="none" stroke="#ff9ab1" stroke-dasharray="1,5" d="M445.19,-549C445.19,-514.18 445.19,-438 445.19,-438 445.19,-438 338.41,-438 338.41,-438"/>
<polygon fill="#ff9ab1" stroke="#ff9ab1" points="338.41,-434.5 328.41,-438 338.41,-441.5 338.41,-434.5"/>
</g>
<!-- :data:coverart&#45;&gt;:data:musicbrainz -->
<g id="edge28" class="edge">
<title>:data:coverart&#45;&gt;:data:musicbrainz</title>
<path fill="none" stroke="#ff9ab1" stroke-dasharray="1,5" d="M495.89,-548.86C495.89,-548.86 495.89,-319.49 495.89,-319.49"/>
<polygon fill="#ff9ab1" stroke="#ff9ab1" points="499.39,-319.49 495.89,-309.49 492.39,-319.49 499.39,-319.49"/>
</g>
<!-- :data:coverart&#45;&gt;:core:logging:api -->
<g id="edge25" class="edge">
<title>:data:coverart&#45;&gt;:core:logging:api</title>
<path fill="none" stroke="black" stroke-dasharray="1,5" d="M546.72,-566C572.16,-566 594.17,-566 594.17,-566 594.17,-566 594.17,-181.11 594.17,-181.11"/>
<polygon fill="black" stroke="black" points="597.67,-181.11 594.17,-171.11 590.67,-181.11 597.67,-181.11"/>
</g>
<!-- :data:spotify&#45;&gt;:shared:domain -->
<g id="edge30" class="edge">
<title>:data:spotify&#45;&gt;:shared:domain</title>
<path fill="none" stroke="black" stroke-dasharray="1,5" d="M267.58,-274.99C267.58,-237.49 267.58,-151 267.58,-151 267.58,-151 173.16,-151 173.16,-151"/>
<polygon fill="black" stroke="black" points="173.16,-147.5 163.16,-151 173.16,-154.5 173.16,-147.5"/>
</g>
<!-- :data:spotify&#45;&gt;:core:logging:api -->
<g id="edge31" class="edge">
<title>:data:spotify&#45;&gt;:core:logging:api</title>
<path fill="none" stroke="black" stroke-dasharray="1,5" d="M313.51,-275.03C313.51,-238.97 313.51,-158 313.51,-158 313.51,-158 455.23,-158 455.23,-158"/>
<polygon fill="black" stroke="black" points="455.23,-161.5 465.23,-158 455.23,-154.5 455.23,-161.5"/>
</g>
<!-- :shared:strings -->
<g id="node14" class="node">
<title>:shared:strings</title>
<ellipse fill="#b59aff" stroke="black" cx="797.54" cy="-429" rx="81.49" ry="18"/>
<text text-anchor="middle" x="797.54" y="-425.3" font-family="Times,serif" font-size="14.00">:shared:strings</text>
</g>
<!-- :ui:core&#45;&gt;:shared:strings -->
<g id="edge32" class="edge">
<title>:ui:core&#45;&gt;:shared:strings</title>
<path fill="none" stroke="black" d="M797.54,-547.81C797.54,-547.81 797.54,-457.27 797.54,-457.27"/>
<polygon fill="black" stroke="black" points="801.04,-457.27 797.54,-447.27 794.04,-457.27 801.04,-457.27"/>
</g>
<!-- :core:logging:api&#45;&gt;:core:coroutines -->
<g id="edge33" class="edge">
<title>:core:logging:api&#45;&gt;:core:coroutines</title>
<path fill="none" stroke="black" d="M612.17,-141.61C612.17,-141.61 612.17,-41.64 612.17,-41.64"/>
<polygon fill="black" stroke="black" points="615.67,-41.64 612.17,-31.64 608.67,-41.64 615.67,-41.64"/>
</g>
</g>
</svg>
