<?xml version="1.0" encoding="UTF-8" standalone="no"?>
<!DOCTYPE svg PUBLIC "-//W3C//DTD SVG 1.1//EN"
 "http://www.w3.org/Graphics/SVG/1.1/DTD/svg11.dtd">
<!-- Generated by graphviz version 2.43.0 (0)
 -->
<!-- Title: %3 Pages: 1 -->
<svg width="874pt" height="803pt"
 viewBox="0.00 0.00 874.38 803.00" xmlns="http://www.w3.org/2000/svg" xmlns:xlink="http://www.w3.org/1999/xlink">
<g id="graph0" class="graph" transform="scale(1 1) rotate(0) translate(4 799)">
<title>%3</title>
<polygon fill="white" stroke="transparent" points="-4,4 -4,-799 870.38,-799 870.38,4 -4,4"/>
<text text-anchor="middle" x="433.19" y="-767" font-family="Times,serif" font-size="30.00">Dependencies</text>
<text text-anchor="middle" x="433.19" y="-734" font-family="Times,serif" font-size="30.00"> </text>
<!-- :shared:feature:database -->
<g id="node1" class="node">
<title>:shared:feature:database</title>
<polygon fill="#b59aff" stroke="black" points="624.04,-721 429.04,-721 429.04,-685 624.04,-685 624.04,-721"/>
<text text-anchor="middle" x="526.54" y="-699.3" font-family="Times,serif" font-size="14.00">:shared:feature:database</text>
</g>
<!-- :test&#45;data -->
<g id="node2" class="node">
<title>:test&#45;data</title>
<ellipse fill="#b59aff" stroke="black" cx="436.54" cy="-429" rx="55.49" ry="18"/>
<text text-anchor="middle" x="436.54" y="-425.3" font-family="Times,serif" font-size="14.00">:test&#45;data</text>
</g>
<!-- :shared:feature:database&#45;&gt;:test&#45;data -->
<g id="edge1" class="edge">
<title>:shared:feature:database&#45;&gt;:test&#45;data</title>
<path fill="none" stroke="#ff9ab1" stroke-dasharray="1,5" d="M449.96,-684.6C449.96,-684.6 449.96,-456.61 449.96,-456.61"/>
<polygon fill="#ff9ab1" stroke="#ff9ab1" points="453.46,-456.61 449.96,-446.61 446.46,-456.61 453.46,-456.61"/>
</g>
<!-- :ui:test:screenshot -->
<g id="node3" class="node">
<title>:ui:test:screenshot</title>
<ellipse fill="#9affb5" stroke="black" cx="769.54" cy="-429" rx="96.68" ry="18"/>
<text text-anchor="middle" x="769.54" y="-425.3" font-family="Times,serif" font-size="14.00">:ui:test:screenshot</text>
</g>
<!-- :shared:feature:database&#45;&gt;:ui:test:screenshot -->
<g id="edge2" class="edge">
<title>:shared:feature:database&#45;&gt;:ui:test:screenshot</title>
<path fill="none" stroke="#ff9ab1" stroke-dasharray="1,5" d="M624.33,-703C691.85,-703 769.54,-703 769.54,-703 769.54,-703 769.54,-457.4 769.54,-457.4"/>
<polygon fill="#ff9ab1" stroke="#ff9ab1" points="773.04,-457.4 769.54,-447.4 766.04,-457.4 773.04,-457.4"/>
</g>
<!-- :ui:common -->
<g id="node4" class="node">
<title>:ui:common</title>
<ellipse fill="#b59aff" stroke="black" cx="595.54" cy="-566" rx="64.19" ry="18"/>
<text text-anchor="middle" x="595.54" y="-562.3" font-family="Times,serif" font-size="14.00">:ui:common</text>
</g>
<!-- :shared:feature:database&#45;&gt;:ui:common -->
<g id="edge3" class="edge">
<title>:shared:feature:database&#45;&gt;:ui:common</title>
<path fill="none" stroke="black" stroke-dasharray="1,5" d="M577.62,-684.81C577.62,-684.81 577.62,-593.4 577.62,-593.4"/>
<polygon fill="black" stroke="black" points="581.12,-593.4 577.62,-583.4 574.12,-593.4 581.12,-593.4"/>
</g>
<!-- :shared:domain -->
<g id="node5" class="node">
<title>:shared:domain</title>
<ellipse fill="#b59aff" stroke="black" cx="82.54" cy="-18" rx="82.59" ry="18"/>
<text text-anchor="middle" x="82.54" y="-14.3" font-family="Times,serif" font-size="14.00">:shared:domain</text>
</g>
<!-- :shared:feature:database&#45;&gt;:shared:domain -->
<g id="edge4" class="edge">
<title>:shared:feature:database&#45;&gt;:shared:domain</title>
<path fill="none" stroke="black" stroke-dasharray="1,5" d="M429,-703C282.39,-703 22.19,-703 22.19,-703 22.19,-703 22.19,-40.47 22.19,-40.47"/>
<polygon fill="black" stroke="black" points="25.69,-40.47 22.19,-30.47 18.69,-40.47 25.69,-40.47"/>
</g>
<!-- :test&#45;data&#45;&gt;:shared:domain -->
<g id="edge5" class="edge">
<title>:test&#45;data&#45;&gt;:shared:domain</title>
<path fill="none" stroke="black" stroke-dasharray="1,5" d="M384.32,-435C282.34,-435 66.57,-435 66.57,-435 66.57,-435 66.57,-45.92 66.57,-45.92"/>
<polygon fill="black" stroke="black" points="70.07,-45.92 66.57,-35.92 63.07,-45.92 70.07,-45.92"/>
</g>
<!-- :data:database -->
<g id="node6" class="node">
<title>:data:database</title>
<ellipse fill="#b59aff" stroke="black" cx="204.54" cy="-292" rx="79.09" ry="18"/>
<text text-anchor="middle" x="204.54" y="-288.3" font-family="Times,serif" font-size="14.00">:data:database</text>
</g>
<!-- :test&#45;data&#45;&gt;:data:database -->
<g id="edge6" class="edge">
<title>:test&#45;data&#45;&gt;:data:database</title>
<path fill="none" stroke="black" stroke-dasharray="1,5" d="M410.39,-412.87C410.39,-375.48 410.39,-286 410.39,-286 410.39,-286 289.44,-286 289.44,-286"/>
<polygon fill="black" stroke="black" points="289.44,-282.5 279.44,-286 289.44,-289.5 289.44,-282.5"/>
</g>
<!-- :data:musicbrainz -->
<g id="node7" class="node">
<title>:data:musicbrainz</title>
<ellipse fill="#b59aff" stroke="black" cx="204.54" cy="-155" rx="93.68" ry="18"/>
<text text-anchor="middle" x="204.54" y="-151.3" font-family="Times,serif" font-size="14.00">:data:musicbrainz</text>
</g>
<!-- :test&#45;data&#45;&gt;:data:musicbrainz -->
<g id="edge7" class="edge">
<title>:test&#45;data&#45;&gt;:data:musicbrainz</title>
<path fill="none" stroke="black" stroke-dasharray="1,5" d="M384.4,-423C342.64,-423 290.99,-423 290.99,-423 290.99,-423 290.99,-172.17 290.99,-172.17"/>
<polygon fill="black" stroke="black" points="294.49,-172.17 290.99,-162.17 287.49,-172.17 294.49,-172.17"/>
</g>
<!-- :data:coverart -->
<g id="node8" class="node">
<title>:data:coverart</title>
<ellipse fill="#b59aff" stroke="black" cx="392.54" cy="-155" rx="76.09" ry="18"/>
<text text-anchor="middle" x="392.54" y="-151.3" font-family="Times,serif" font-size="14.00">:data:coverart</text>
</g>
<!-- :test&#45;data&#45;&gt;:data:coverart -->
<g id="edge8" class="edge">
<title>:test&#45;data&#45;&gt;:data:coverart</title>
<path fill="none" stroke="black" stroke-dasharray="1,5" d="M439.49,-411.02C439.49,-411.02 439.49,-179.3 439.49,-179.3"/>
<polygon fill="black" stroke="black" points="442.99,-179.3 439.49,-169.3 435.99,-179.3 442.99,-179.3"/>
</g>
<!-- :data:spotify -->
<g id="node9" class="node">
<title>:data:spotify</title>
<ellipse fill="#b59aff" stroke="black" cx="555.54" cy="-155" rx="68.79" ry="18"/>
<text text-anchor="middle" x="555.54" y="-151.3" font-family="Times,serif" font-size="14.00">:data:spotify</text>
</g>
<!-- :test&#45;data&#45;&gt;:data:spotify -->
<g id="edge9" class="edge">
<title>:test&#45;data&#45;&gt;:data:spotify</title>
<path fill="none" stroke="black" stroke-dasharray="1,5" d="M474.61,-415.87C474.61,-360.51 474.61,-149 474.61,-149 474.61,-149 480.21,-149 480.21,-149"/>
<polygon fill="black" stroke="black" points="480.21,-152.5 490.21,-149 480.21,-145.5 480.21,-152.5"/>
</g>
<!-- :test:image -->
<g id="node10" class="node">
<title>:test:image</title>
<ellipse fill="#9affb5" stroke="black" cx="746.54" cy="-292" rx="63.09" ry="18"/>
<text text-anchor="middle" x="746.54" y="-288.3" font-family="Times,serif" font-size="14.00">:test:image</text>
</g>
<!-- :ui:test:screenshot&#45;&gt;:test:image -->
<g id="edge10" class="edge">
<title>:ui:test:screenshot&#45;&gt;:test:image</title>
<path fill="none" stroke="black" stroke-dasharray="1,5" d="M746.54,-411.37C746.54,-411.37 746.54,-320.44 746.54,-320.44"/>
<polygon fill="black" stroke="black" points="750.04,-320.44 746.54,-310.44 743.04,-320.44 750.04,-320.44"/>
</g>
<!-- :ui:common&#45;&gt;:test&#45;data -->
<g id="edge12" class="edge">
<title>:ui:common&#45;&gt;:test&#45;data</title>
<path fill="none" stroke="#ff9ab1" stroke-dasharray="1,5" d="M534.67,-560C503.02,-560 470.87,-560 470.87,-560 470.87,-560 470.87,-453.27 470.87,-453.27"/>
<polygon fill="#ff9ab1" stroke="#ff9ab1" points="474.37,-453.27 470.87,-443.27 467.37,-453.27 474.37,-453.27"/>
</g>
<!-- :ui:common&#45;&gt;:ui:test:screenshot -->
<g id="edge13" class="edge">
<title>:ui:common&#45;&gt;:ui:test:screenshot</title>
<path fill="none" stroke="#ff9ab1" stroke-dasharray="1,5" d="M651.02,-556.58C651.02,-525.63 651.02,-429 651.02,-429 651.02,-429 662.49,-429 662.49,-429"/>
<polygon fill="#ff9ab1" stroke="#ff9ab1" points="662.49,-432.5 672.49,-429 662.49,-425.5 662.49,-432.5"/>
</g>
<!-- :ui:common&#45;&gt;:shared:domain -->
<g id="edge14" class="edge">
<title>:ui:common&#45;&gt;:shared:domain</title>
<path fill="none" stroke="black" d="M534.72,-572C391.38,-572 44.38,-572 44.38,-572 44.38,-572 44.38,-43.98 44.38,-43.98"/>
<polygon fill="black" stroke="black" points="47.88,-43.98 44.38,-33.98 40.88,-43.98 47.88,-43.98"/>
</g>
<!-- :ui:common&#45;&gt;:test:image -->
<g id="edge11" class="edge">
<title>:ui:common&#45;&gt;:test:image</title>
<path fill="none" stroke="black" stroke-dasharray="1,5" d="M642.16,-553.43C642.16,-500.45 642.16,-298 642.16,-298 642.16,-298 677.03,-298 677.03,-298"/>
<polygon fill="black" stroke="black" points="677.03,-301.5 687.03,-298 677.03,-294.5 677.03,-301.5"/>
</g>
<!-- :core:logging:api -->
<g id="node11" class="node">
<title>:core:logging:api</title>
<ellipse fill="#b59aff" stroke="black" cx="473.54" cy="-18" rx="88.28" ry="18"/>
<text text-anchor="middle" x="473.54" y="-14.3" font-family="Times,serif" font-size="14.00">:core:logging:api</text>
</g>
<!-- :ui:common&#45;&gt;:core:logging:api -->
<g id="edge15" class="edge">
<title>:ui:common&#45;&gt;:core:logging:api</title>
<path fill="none" stroke="black" stroke-dasharray="1,5" d="M633.3,-551.34C633.3,-464.19 633.3,-18 633.3,-18 633.3,-18 572.3,-18 572.3,-18"/>
<polygon fill="black" stroke="black" points="572.3,-14.5 562.3,-18 572.3,-21.5 572.3,-14.5"/>
</g>
<!-- :data:database&#45;&gt;:shared:domain -->
<g id="edge16" class="edge">
<title>:data:database&#45;&gt;:shared:domain</title>
<path fill="none" stroke="black" stroke-dasharray="1,5" d="M125.08,-292C104.87,-292 88.76,-292 88.76,-292 88.76,-292 88.76,-45.98 88.76,-45.98"/>
<polygon fill="black" stroke="black" points="92.26,-45.98 88.76,-35.98 85.26,-45.98 92.26,-45.98"/>
</g>
<!-- :data:database&#45;&gt;:data:musicbrainz -->
<g id="edge17" class="edge">
<title>:data:database&#45;&gt;:data:musicbrainz</title>
<path fill="none" stroke="black" stroke-dasharray="1,5" d="M204.54,-273.81C204.54,-273.81 204.54,-183.27 204.54,-183.27"/>
<polygon fill="black" stroke="black" points="208.04,-183.27 204.54,-173.27 201.04,-183.27 208.04,-183.27"/>
</g>
<!-- :data:musicbrainz&#45;&gt;:shared:domain -->
<g id="edge18" class="edge">
<title>:data:musicbrainz&#45;&gt;:shared:domain</title>
<path fill="none" stroke="black" stroke-dasharray="1,5" d="M129,-144.25C129,-144.25 129,-43.18 129,-43.18"/>
<polygon fill="black" stroke="black" points="132.5,-43.18 129,-33.18 125.5,-43.18 132.5,-43.18"/>
</g>
<!-- :data:musicbrainz&#45;&gt;:core:logging:api -->
<g id="edge19" class="edge">
<title>:data:musicbrainz&#45;&gt;:core:logging:api</title>
<path fill="none" stroke="black" stroke-dasharray="1,5" d="M231.61,-137.75C231.61,-99.72 231.61,-12 231.61,-12 231.61,-12 379.94,-12 379.94,-12"/>
<polygon fill="black" stroke="black" points="379.94,-15.5 389.94,-12 379.94,-8.5 379.94,-15.5"/>
</g>
<!-- :data:coverart&#45;&gt;:shared:domain -->
<g id="edge20" class="edge">
<title>:data:coverart&#45;&gt;:shared:domain</title>
<path fill="none" stroke="black" stroke-dasharray="1,5" d="M350.82,-139.72C350.82,-105.16 350.82,-24 350.82,-24 350.82,-24 170.5,-24 170.5,-24"/>
<polygon fill="black" stroke="black" points="170.5,-20.5 160.5,-24 170.5,-27.5 170.5,-20.5"/>
</g>
<!-- :data:coverart&#45;&gt;:core:logging:api -->
<g id="edge21" class="edge">
<title>:data:coverart&#45;&gt;:core:logging:api</title>
<path fill="none" stroke="black" stroke-dasharray="1,5" d="M426.87,-138.75C426.87,-138.75 426.87,-43.39 426.87,-43.39"/>
<polygon fill="black" stroke="black" points="430.37,-43.39 426.87,-33.39 423.37,-43.39 430.37,-43.39"/>
</g>
<!-- :data:spotify&#45;&gt;:test&#45;data -->
<g id="edge24" class="edge">
<title>:data:spotify&#45;&gt;:test&#45;data</title>
<path fill="none" stroke="#ff9ab1" stroke-dasharray="1,5" d="M490.42,-161C484.47,-161 480.63,-161 480.63,-161 480.63,-161 480.63,-407.83 480.63,-407.83"/>
<polygon fill="#ff9ab1" stroke="#ff9ab1" points="477.13,-407.83 480.63,-417.83 484.13,-407.83 477.13,-407.83"/>
</g>
<!-- :data:spotify&#45;&gt;:shared:domain -->
<g id="edge22" class="edge">
<title>:data:spotify&#45;&gt;:shared:domain</title>
<path fill="none" stroke="black" stroke-dasharray="1,5" d="M511.74,-141.04C511.74,-120.87 511.74,-86 511.74,-86 511.74,-86 147.04,-86 147.04,-86 147.04,-86 147.04,-39.54 147.04,-39.54"/>
<polygon fill="black" stroke="black" points="150.54,-39.54 147.04,-29.54 143.54,-39.54 150.54,-39.54"/>
</g>
<!-- :data:spotify&#45;&gt;:core:logging:api -->
<g id="edge23" class="edge">
<title>:data:spotify&#45;&gt;:core:logging:api</title>
<path fill="none" stroke="black" stroke-dasharray="1,5" d="M536.84,-137.65C536.84,-137.65 536.84,-40.74 536.84,-40.74"/>
<polygon fill="black" stroke="black" points="540.34,-40.74 536.84,-30.74 533.34,-40.74 540.34,-40.74"/>
</g>
</g>
</svg>
