<?xml version="1.0" encoding="UTF-8" standalone="no"?>
<!DOCTYPE svg PUBLIC "-//W3C//DTD SVG 1.1//EN"
 "http://www.w3.org/Graphics/SVG/1.1/DTD/svg11.dtd">
<!-- Generated by graphviz version 2.43.0 (0)
 -->
<!-- Title: %3 Pages: 1 -->
<svg width="1181pt" height="1077pt"
 viewBox="0.00 0.00 1180.98 1077.00" xmlns="http://www.w3.org/2000/svg" xmlns:xlink="http://www.w3.org/1999/xlink">
<g id="graph0" class="graph" transform="scale(1 1) rotate(0) translate(4 1073)">
<title>%3</title>
<polygon fill="white" stroke="transparent" points="-4,4 -4,-1073 1176.98,-1073 1176.98,4 -4,4"/>
<text text-anchor="middle" x="586.49" y="-1041" font-family="Times,serif" font-size="30.00">Dependencies</text>
<text text-anchor="middle" x="586.49" y="-1008" font-family="Times,serif" font-size="30.00"> </text>
<!-- :shared:feature:database -->
<g id="node1" class="node">
<title>:shared:feature:database</title>
<polygon fill="#b59aff" stroke="black" points="521.34,-995 326.34,-995 326.34,-959 521.34,-959 521.34,-995"/>
<text text-anchor="middle" x="423.84" y="-973.3" font-family="Times,serif" font-size="14.00">:shared:feature:database</text>
</g>
<!-- :test&#45;data -->
<g id="node2" class="node">
<title>:test&#45;data</title>
<ellipse fill="#b59aff" stroke="black" cx="779.84" cy="-566" rx="55.49" ry="18"/>
<text text-anchor="middle" x="779.84" y="-562.3" font-family="Times,serif" font-size="14.00">:test&#45;data</text>
</g>
<!-- :shared:feature:database&#45;&gt;:test&#45;data -->
<g id="edge1" class="edge">
<title>:shared:feature:database&#45;&gt;:test&#45;data</title>
<path fill="none" stroke="#ff9ab1" stroke-dasharray="1,5" d="M510.98,-958.81C510.98,-880.01 510.98,-572 510.98,-572 510.98,-572 717.68,-572 717.68,-572"/>
<polygon fill="#ff9ab1" stroke="#ff9ab1" points="717.68,-575.5 727.68,-572 717.68,-568.5 717.68,-575.5"/>
</g>
<!-- :ui:test:screenshot -->
<g id="node3" class="node">
<title>:ui:test:screenshot</title>
<ellipse fill="#9affb5" stroke="black" cx="96.84" cy="-703" rx="96.68" ry="18"/>
<text text-anchor="middle" x="96.84" y="-699.3" font-family="Times,serif" font-size="14.00">:ui:test:screenshot</text>
</g>
<!-- :shared:feature:database&#45;&gt;:ui:test:screenshot -->
<g id="edge2" class="edge">
<title>:shared:feature:database&#45;&gt;:ui:test:screenshot</title>
<path fill="none" stroke="#ff9ab1" stroke-dasharray="1,5" d="M326.14,-977C219.75,-977 64.56,-977 64.56,-977 64.56,-977 64.56,-730.14 64.56,-730.14"/>
<polygon fill="#ff9ab1" stroke="#ff9ab1" points="68.06,-730.14 64.56,-720.14 61.06,-730.14 68.06,-730.14"/>
</g>
<!-- :ui:common -->
<g id="node4" class="node">
<title>:ui:common</title>
<ellipse fill="#b59aff" stroke="black" cx="423.84" cy="-840" rx="64.19" ry="18"/>
<text text-anchor="middle" x="423.84" y="-836.3" font-family="Times,serif" font-size="14.00">:ui:common</text>
</g>
<!-- :shared:feature:database&#45;&gt;:ui:common -->
<g id="edge3" class="edge">
<title>:shared:feature:database&#45;&gt;:ui:common</title>
<path fill="none" stroke="black" stroke-dasharray="1,5" d="M423.84,-958.81C423.84,-958.81 423.84,-868.27 423.84,-868.27"/>
<polygon fill="black" stroke="black" points="427.34,-868.27 423.84,-858.27 420.34,-868.27 427.34,-868.27"/>
</g>
<!-- :shared:domain -->
<g id="node5" class="node">
<title>:shared:domain</title>
<ellipse fill="#b59aff" stroke="black" cx="936.84" cy="-18" rx="82.59" ry="18"/>
<text text-anchor="middle" x="936.84" y="-14.3" font-family="Times,serif" font-size="14.00">:shared:domain</text>
</g>
<!-- :shared:feature:database&#45;&gt;:shared:domain -->
<g id="edge4" class="edge">
<title>:shared:feature:database&#45;&gt;:shared:domain</title>
<path fill="none" stroke="black" stroke-dasharray="1,5" d="M521.56,-977C685.92,-977 999.9,-977 999.9,-977 999.9,-977 999.9,-39.78 999.9,-39.78"/>
<polygon fill="black" stroke="black" points="1003.4,-39.78 999.9,-29.78 996.4,-39.78 1003.4,-39.78"/>
</g>
<!-- :ui:image -->
<g id="node6" class="node">
<title>:ui:image</title>
<ellipse fill="#b59aff" stroke="black" cx="303.84" cy="-703" rx="53.89" ry="18"/>
<text text-anchor="middle" x="303.84" y="-699.3" font-family="Times,serif" font-size="14.00">:ui:image</text>
</g>
<!-- :shared:feature:database&#45;&gt;:ui:image -->
<g id="edge5" class="edge">
<title>:shared:feature:database&#45;&gt;:ui:image</title>
<path fill="none" stroke="black" stroke-dasharray="1,5" d="M336.82,-958.6C336.82,-958.6 336.82,-727.56 336.82,-727.56"/>
<polygon fill="black" stroke="black" points="340.32,-727.56 336.82,-717.56 333.32,-727.56 340.32,-727.56"/>
</g>
<!-- :test&#45;data&#45;&gt;:shared:domain -->
<g id="edge6" class="edge">
<title>:test&#45;data&#45;&gt;:shared:domain</title>
<path fill="none" stroke="black" stroke-dasharray="1,5" d="M832.01,-560C893.88,-560 988.72,-560 988.72,-560 988.72,-560 988.72,-42.22 988.72,-42.22"/>
<polygon fill="black" stroke="black" points="992.22,-42.22 988.72,-32.22 985.22,-42.22 992.22,-42.22"/>
</g>
<!-- :core:coroutines -->
<g id="node7" class="node">
<title>:core:coroutines</title>
<ellipse fill="#b59aff" stroke="black" cx="1087.84" cy="-155" rx="85.29" ry="18"/>
<text text-anchor="middle" x="1087.84" y="-151.3" font-family="Times,serif" font-size="14.00">:core:coroutines</text>
</g>
<!-- :test&#45;data&#45;&gt;:core:coroutines -->
<g id="edge7" class="edge">
<title>:test&#45;data&#45;&gt;:core:coroutines</title>
<path fill="none" stroke="black" stroke-dasharray="1,5" d="M832.2,-572C915.97,-572 1070.81,-572 1070.81,-572 1070.81,-572 1070.81,-182.65 1070.81,-182.65"/>
<polygon fill="black" stroke="black" points="1074.31,-182.65 1070.81,-172.65 1067.31,-182.65 1074.31,-182.65"/>
</g>
<!-- :data:database -->
<g id="node8" class="node">
<title>:data:database</title>
<ellipse fill="#b59aff" stroke="black" cx="903.84" cy="-292" rx="79.09" ry="18"/>
<text text-anchor="middle" x="903.84" y="-288.3" font-family="Times,serif" font-size="14.00">:data:database</text>
</g>
<!-- :test&#45;data&#45;&gt;:data:database -->
<g id="edge8" class="edge">
<title>:test&#45;data&#45;&gt;:data:database</title>
<path fill="none" stroke="black" stroke-dasharray="1,5" d="M791.23,-548.06C791.23,-486.26 791.23,-286 791.23,-286 791.23,-286 819.04,-286 819.04,-286"/>
<polygon fill="black" stroke="black" points="819.04,-289.5 829.04,-286 819.04,-282.5 819.04,-289.5"/>
</g>
<!-- :data:musicbrainz -->
<g id="node9" class="node">
<title>:data:musicbrainz</title>
<ellipse fill="#b59aff" stroke="black" cx="583.84" cy="-155" rx="93.68" ry="18"/>
<text text-anchor="middle" x="583.84" y="-151.3" font-family="Times,serif" font-size="14.00">:data:musicbrainz</text>
</g>
<!-- :test&#45;data&#45;&gt;:data:musicbrainz -->
<g id="edge9" class="edge">
<title>:test&#45;data&#45;&gt;:data:musicbrainz</title>
<path fill="none" stroke="black" stroke-dasharray="1,5" d="M727.56,-560C669.48,-560 583.78,-560 583.78,-560 583.78,-560 583.78,-183.19 583.78,-183.19"/>
<polygon fill="black" stroke="black" points="587.28,-183.19 583.78,-173.19 580.28,-183.19 587.28,-183.19"/>
</g>
<!-- :data:coverart -->
<g id="node10" class="node">
<title>:data:coverart</title>
<ellipse fill="#b59aff" stroke="black" cx="900.84" cy="-429" rx="76.09" ry="18"/>
<text text-anchor="middle" x="900.84" y="-425.3" font-family="Times,serif" font-size="14.00">:data:coverart</text>
</g>
<!-- :test&#45;data&#45;&gt;:data:coverart -->
<g id="edge10" class="edge">
<title>:test&#45;data&#45;&gt;:data:coverart</title>
<path fill="none" stroke="black" stroke-dasharray="1,5" d="M828.23,-557.01C828.23,-557.01 828.23,-444.62 828.23,-444.62"/>
<polygon fill="black" stroke="black" points="831.73,-444.62 828.23,-434.62 824.73,-444.62 831.73,-444.62"/>
</g>
<!-- :data:spotify -->
<g id="node11" class="node">
<title>:data:spotify</title>
<ellipse fill="#b59aff" stroke="black" cx="763.84" cy="-155" rx="68.79" ry="18"/>
<text text-anchor="middle" x="763.84" y="-151.3" font-family="Times,serif" font-size="14.00">:data:spotify</text>
</g>
<!-- :test&#45;data&#45;&gt;:data:spotify -->
<g id="edge11" class="edge">
<title>:test&#45;data&#45;&gt;:data:spotify</title>
<path fill="none" stroke="black" stroke-dasharray="1,5" d="M757.91,-549.38C757.91,-549.38 757.91,-183.21 757.91,-183.21"/>
<polygon fill="black" stroke="black" points="761.41,-183.21 757.91,-173.21 754.41,-183.21 761.41,-183.21"/>
</g>
<!-- :ui:core -->
<g id="node12" class="node">
<title>:ui:core</title>
<ellipse fill="#b59aff" stroke="black" cx="222.84" cy="-566" rx="45.49" ry="18"/>
<text text-anchor="middle" x="222.84" y="-562.3" font-family="Times,serif" font-size="14.00">:ui:core</text>
</g>
<!-- :ui:test:screenshot&#45;&gt;:ui:core -->
<g id="edge12" class="edge">
<title>:ui:test:screenshot&#45;&gt;:ui:core</title>
<path fill="none" stroke="black" stroke-dasharray="1,5" d="M185.51,-695.63C185.51,-695.63 185.51,-586.67 185.51,-586.67"/>
<polygon fill="black" stroke="black" points="189.01,-586.67 185.51,-576.67 182.01,-586.67 189.01,-586.67"/>
</g>
<!-- :test:image -->
<g id="node13" class="node">
<title>:test:image</title>
<ellipse fill="#9affb5" stroke="black" cx="95.84" cy="-566" rx="63.09" ry="18"/>
<text text-anchor="middle" x="95.84" y="-562.3" font-family="Times,serif" font-size="14.00">:test:image</text>
</g>
<!-- :ui:test:screenshot&#45;&gt;:test:image -->
<g id="edge13" class="edge">
<title>:ui:test:screenshot&#45;&gt;:test:image</title>
<path fill="none" stroke="black" stroke-dasharray="1,5" d="M95.84,-684.81C95.84,-684.81 95.84,-594.27 95.84,-594.27"/>
<polygon fill="black" stroke="black" points="99.34,-594.27 95.84,-584.27 92.34,-594.27 99.34,-594.27"/>
</g>
<!-- :ui:common&#45;&gt;:test&#45;data -->
<g id="edge14" class="edge">
<title>:ui:common&#45;&gt;:test&#45;data</title>
<path fill="none" stroke="#ff9ab1" stroke-dasharray="1,5" d="M486.61,-836C583.8,-836 759.65,-836 759.65,-836 759.65,-836 759.65,-592.89 759.65,-592.89"/>
<polygon fill="#ff9ab1" stroke="#ff9ab1" points="763.15,-592.89 759.65,-582.89 756.15,-592.89 763.15,-592.89"/>
</g>
<!-- :ui:common&#45;&gt;:ui:test:screenshot -->
<g id="edge15" class="edge">
<title>:ui:common&#45;&gt;:ui:test:screenshot</title>
<path fill="none" stroke="#ff9ab1" stroke-dasharray="1,5" d="M368.06,-849C282.62,-849 129.12,-849 129.12,-849 129.12,-849 129.12,-730.03 129.12,-730.03"/>
<polygon fill="#ff9ab1" stroke="#ff9ab1" points="132.62,-730.03 129.12,-720.03 125.62,-730.03 132.62,-730.03"/>
</g>
<!-- :ui:common&#45;&gt;:shared:domain -->
<g id="edge17" class="edge">
<title>:ui:common&#45;&gt;:shared:domain</title>
<path fill="none" stroke="black" d="M487.38,-843C636.64,-843 997.11,-843 997.11,-843 997.11,-843 997.11,-40.3 997.11,-40.3"/>
<polygon fill="black" stroke="black" points="1000.61,-40.3 997.11,-30.3 993.61,-40.3 1000.61,-40.3"/>
</g>
<!-- :ui:common&#45;&gt;:ui:image -->
<g id="edge22" class="edge">
<title>:ui:common&#45;&gt;:ui:image</title>
<path fill="none" stroke="black" stroke-dasharray="1,5" d="M367.82,-831C356.14,-831 347.3,-831 347.3,-831 347.3,-831 347.3,-723.91 347.3,-723.91"/>
<polygon fill="black" stroke="black" points="350.8,-723.91 347.3,-713.91 343.8,-723.91 350.8,-723.91"/>
</g>
<!-- :ui:common&#45;&gt;:core:coroutines -->
<g id="edge16" class="edge">
<title>:ui:common&#45;&gt;:core:coroutines</title>
<path fill="none" stroke="#ff9ab1" stroke-dasharray="1,5" d="M477.59,-850C643.89,-850 1138.93,-850 1138.93,-850 1138.93,-850 1138.93,-179.52 1138.93,-179.52"/>
<polygon fill="#ff9ab1" stroke="#ff9ab1" points="1142.43,-179.52 1138.93,-169.52 1135.43,-179.52 1142.43,-179.52"/>
</g>
<!-- :ui:common&#45;&gt;:data:musicbrainz -->
<g id="edge20" class="edge">
<title>:ui:common&#45;&gt;:data:musicbrainz</title>
<path fill="none" stroke="black" stroke-dasharray="1,5" d="M475.05,-829C489.13,-829 500.61,-829 500.61,-829 500.61,-829 500.61,-173.52 500.61,-173.52"/>
<polygon fill="black" stroke="black" points="504.11,-173.52 500.61,-163.52 497.11,-173.52 504.11,-173.52"/>
</g>
<!-- :ui:common&#45;&gt;:ui:core -->
<g id="edge18" class="edge">
<title>:ui:common&#45;&gt;:ui:core</title>
<path fill="none" stroke="black" d="M359.36,-840C300.22,-840 221.79,-840 221.79,-840 221.79,-840 221.79,-594.4 221.79,-594.4"/>
<polygon fill="black" stroke="black" points="225.29,-594.4 221.79,-584.4 218.29,-594.4 225.29,-594.4"/>
</g>
<!-- :data:repository -->
<g id="node14" class="node">
<title>:data:repository</title>
<ellipse fill="#b59aff" stroke="black" cx="879.84" cy="-703" rx="85.29" ry="18"/>
<text text-anchor="middle" x="879.84" y="-699.3" font-family="Times,serif" font-size="14.00">:data:repository</text>
</g>
<!-- :ui:common&#45;&gt;:data:repository -->
<g id="edge19" class="edge">
<title>:ui:common&#45;&gt;:data:repository</title>
<path fill="none" stroke="black" stroke-dasharray="1,5" d="M445.29,-822.87C445.29,-788.21 445.29,-713 445.29,-713 445.29,-713 798.57,-713 798.57,-713"/>
<polygon fill="black" stroke="black" points="798.57,-716.5 808.57,-713 798.57,-709.5 798.57,-716.5"/>
</g>
<!-- :core:logging:api -->
<g id="node15" class="node">
<title>:core:logging:api</title>
<ellipse fill="#b59aff" stroke="black" cx="583.84" cy="-18" rx="88.28" ry="18"/>
<text text-anchor="middle" x="583.84" y="-14.3" font-family="Times,serif" font-size="14.00">:core:logging:api</text>
</g>
<!-- :ui:common&#45;&gt;:core:logging:api -->
<g id="edge21" class="edge">
<title>:ui:common&#45;&gt;:core:logging:api</title>
<path fill="none" stroke="black" stroke-dasharray="1,5" d="M402.39,-822.83C402.39,-704.79 402.39,-18 402.39,-18 402.39,-18 485.24,-18 485.24,-18"/>
<polygon fill="black" stroke="black" points="485.24,-21.5 495.24,-18 485.24,-14.5 485.24,-21.5"/>
</g>
<!-- :ui:image&#45;&gt;:shared:domain -->
<g id="edge23" class="edge">
<title>:ui:image&#45;&gt;:shared:domain</title>
<path fill="none" stroke="black" stroke-dasharray="1,5" d="M357.16,-706C461.91,-706 684.44,-706 684.44,-706 684.44,-706 684.44,-30 684.44,-30 684.44,-30 865.1,-30 865.1,-30"/>
<polygon fill="black" stroke="black" points="865.1,-33.5 875.1,-30 865.1,-26.5 865.1,-33.5"/>
</g>
<!-- :ui:image&#45;&gt;:ui:core -->
<g id="edge24" class="edge">
<title>:ui:image&#45;&gt;:ui:core</title>
<path fill="none" stroke="black" stroke-dasharray="1,5" d="M259.12,-692.7C259.12,-692.7 259.12,-587.18 259.12,-587.18"/>
<polygon fill="black" stroke="black" points="262.62,-587.18 259.12,-577.18 255.62,-587.18 262.62,-587.18"/>
</g>
<!-- :data:database&#45;&gt;:shared:domain -->
<g id="edge25" class="edge">
<title>:data:database&#45;&gt;:shared:domain</title>
<path fill="none" stroke="black" stroke-dasharray="1,5" d="M918.72,-274.02C918.72,-274.02 918.72,-45.69 918.72,-45.69"/>
<polygon fill="black" stroke="black" points="922.22,-45.69 918.72,-35.69 915.22,-45.69 922.22,-45.69"/>
</g>
<!-- :data:database&#45;&gt;:core:coroutines -->
<g id="edge26" class="edge">
<title>:data:database&#45;&gt;:core:coroutines</title>
<path fill="none" stroke="black" stroke-dasharray="1,5" d="M950.93,-277.48C950.93,-243.37 950.93,-161 950.93,-161 950.93,-161 997.4,-161 997.4,-161"/>
<polygon fill="black" stroke="black" points="997.4,-164.5 1007.4,-161 997.4,-157.5 997.4,-164.5"/>
</g>
<!-- :data:database&#45;&gt;:data:musicbrainz -->
<g id="edge27" class="edge">
<title>:data:database&#45;&gt;:data:musicbrainz</title>
<path fill="none" stroke="black" stroke-dasharray="1,5" d="M828.98,-298C752.91,-298 646.21,-298 646.21,-298 646.21,-298 646.21,-178.45 646.21,-178.45"/>
<polygon fill="black" stroke="black" points="649.71,-178.45 646.21,-168.45 642.71,-178.45 649.71,-178.45"/>
</g>
<!-- :data:musicbrainz&#45;&gt;:shared:domain -->
<g id="edge28" class="edge">
<title>:data:musicbrainz&#45;&gt;:shared:domain</title>
<path fill="none" stroke="black" stroke-dasharray="1,5" d="M677.71,-155C679.77,-155 680.94,-155 680.94,-155 680.94,-155 680.94,-12 680.94,-12 680.94,-12 849.02,-12 849.02,-12"/>
<polygon fill="black" stroke="black" points="849.02,-15.5 859.02,-12 849.02,-8.5 849.02,-15.5"/>
</g>
<!-- :data:musicbrainz&#45;&gt;:core:logging:api -->
<g id="edge29" class="edge">
<title>:data:musicbrainz&#45;&gt;:core:logging:api</title>
<path fill="none" stroke="black" stroke-dasharray="1,5" d="M583.84,-136.81C583.84,-136.81 583.84,-46.27 583.84,-46.27"/>
<polygon fill="black" stroke="black" points="587.34,-46.27 583.84,-36.27 580.34,-46.27 587.34,-46.27"/>
</g>
<!-- :data:coverart&#45;&gt;:test&#45;data -->
<g id="edge33" class="edge">
<title>:data:coverart&#45;&gt;:test&#45;data</title>
<path fill="none" stroke="#ff9ab1" stroke-dasharray="1,5" d="M831.66,-436.76C831.66,-436.76 831.66,-549.63 831.66,-549.63"/>
<polygon fill="#ff9ab1" stroke="#ff9ab1" points="828.16,-549.63 831.66,-559.63 835.16,-549.63 828.16,-549.63"/>
</g>
<!-- :data:coverart&#45;&gt;:shared:domain -->
<g id="edge30" class="edge">
<title>:data:coverart&#45;&gt;:shared:domain</title>
<path fill="none" stroke="black" stroke-dasharray="1,5" d="M972.63,-423C980.61,-423 985.93,-423 985.93,-423 985.93,-423 985.93,-42.89 985.93,-42.89"/>
<polygon fill="black" stroke="black" points="989.43,-42.89 985.93,-32.89 982.43,-42.89 989.43,-42.89"/>
</g>
<!-- :data:coverart&#45;&gt;:core:coroutines -->
<g id="edge32" class="edge">
<title>:data:coverart&#45;&gt;:core:coroutines</title>
<path fill="none" stroke="black" stroke-dasharray="1,5" d="M972.78,-435C1005.38,-435 1036.76,-435 1036.76,-435 1036.76,-435 1036.76,-179.66 1036.76,-179.66"/>
<polygon fill="black" stroke="black" points="1040.26,-179.66 1036.76,-169.66 1033.26,-179.66 1040.26,-179.66"/>
</g>
<!-- :data:coverart&#45;&gt;:data:database -->
<g id="edge35" class="edge">
<title>:data:coverart&#45;&gt;:data:database</title>
<path fill="none" stroke="#ff9ab1" stroke-dasharray="1,5" d="M900.84,-410.81C900.84,-410.81 900.84,-320.27 900.84,-320.27"/>
<polygon fill="#ff9ab1" stroke="#ff9ab1" points="904.34,-320.27 900.84,-310.27 897.34,-320.27 904.34,-320.27"/>
</g>
<!-- :data:coverart&#45;&gt;:data:musicbrainz -->
<g id="edge34" class="edge">
<title>:data:coverart&#45;&gt;:data:musicbrainz</title>
<path fill="none" stroke="#ff9ab1" stroke-dasharray="1,5" d="M829.08,-435C744.41,-435 615,-435 615,-435 615,-435 615,-182.09 615,-182.09"/>
<polygon fill="#ff9ab1" stroke="#ff9ab1" points="618.5,-182.09 615,-172.09 611.5,-182.09 618.5,-182.09"/>
</g>
<!-- :data:coverart&#45;&gt;:core:logging:api -->
<g id="edge31" class="edge">
<title>:data:coverart&#45;&gt;:core:logging:api</title>
<path fill="none" stroke="black" stroke-dasharray="1,5" d="M829.07,-423C768.46,-423 691.44,-423 691.44,-423 691.44,-423 691.44,-18 691.44,-18 691.44,-18 682.7,-18 682.7,-18"/>
<polygon fill="black" stroke="black" points="682.7,-14.5 672.7,-18 682.7,-21.5 682.7,-14.5"/>
</g>
<!-- :data:spotify&#45;&gt;:shared:domain -->
<g id="edge36" class="edge">
<title>:data:spotify&#45;&gt;:shared:domain</title>
<path fill="none" stroke="black" stroke-dasharray="1,5" d="M829.13,-149C858.42,-149 886.51,-149 886.51,-149 886.51,-149 886.51,-42.27 886.51,-42.27"/>
<polygon fill="black" stroke="black" points="890.01,-42.27 886.51,-32.27 883.01,-42.27 890.01,-42.27"/>
</g>
<!-- :data:spotify&#45;&gt;:core:logging:api -->
<g id="edge37" class="edge">
<title>:data:spotify&#45;&gt;:core:logging:api</title>
<path fill="none" stroke="black" stroke-dasharray="1,5" d="M763.84,-136.91C763.84,-97.01 763.84,-5 763.84,-5 763.84,-5 655.03,-5 655.03,-5"/>
<polygon fill="black" stroke="black" points="655.03,-1.5 645.03,-5 655.03,-8.5 655.03,-1.5"/>
</g>
<!-- :shared:strings -->
<g id="node16" class="node">
<title>:shared:strings</title>
<ellipse fill="#b59aff" stroke="black" cx="222.84" cy="-429" rx="81.49" ry="18"/>
<text text-anchor="middle" x="222.84" y="-425.3" font-family="Times,serif" font-size="14.00">:shared:strings</text>
</g>
<!-- :ui:core&#45;&gt;:shared:strings -->
<g id="edge38" class="edge">
<title>:ui:core&#45;&gt;:shared:strings</title>
<path fill="none" stroke="black" d="M222.84,-547.81C222.84,-547.81 222.84,-457.27 222.84,-457.27"/>
<polygon fill="black" stroke="black" points="226.34,-457.27 222.84,-447.27 219.34,-457.27 226.34,-457.27"/>
</g>
<!-- :data:repository&#45;&gt;:test&#45;data -->
<g id="edge44" class="edge">
<title>:data:repository&#45;&gt;:test&#45;data</title>
<path fill="none" stroke="#ff9ab1" stroke-dasharray="1,5" d="M814.89,-691.32C814.89,-691.32 814.89,-590.07 814.89,-590.07"/>
<polygon fill="#ff9ab1" stroke="#ff9ab1" points="818.39,-590.07 814.89,-580.07 811.39,-590.07 818.39,-590.07"/>
</g>
<!-- :data:repository&#45;&gt;:shared:domain -->
<g id="edge39" class="edge">
<title>:data:repository&#45;&gt;:shared:domain</title>
<path fill="none" stroke="black" stroke-dasharray="1,5" d="M965.13,-703C981.84,-703 994.31,-703 994.31,-703 994.31,-703 994.31,-41.07 994.31,-41.07"/>
<polygon fill="black" stroke="black" points="997.81,-41.07 994.31,-31.07 990.81,-41.07 997.81,-41.07"/>
</g>
<!-- :data:repository&#45;&gt;:core:coroutines -->
<g id="edge45" class="edge">
<title>:data:repository&#45;&gt;:core:coroutines</title>
<path fill="none" stroke="#ff9ab1" stroke-dasharray="1,5" d="M953.84,-712C1019.42,-712 1104.87,-712 1104.87,-712 1104.87,-712 1104.87,-182.9 1104.87,-182.9"/>
<polygon fill="#ff9ab1" stroke="#ff9ab1" points="1108.37,-182.9 1104.87,-172.9 1101.37,-182.9 1108.37,-182.9"/>
</g>
<!-- :data:repository&#45;&gt;:data:database -->
<g id="edge40" class="edge">
<title>:data:repository&#45;&gt;:data:database</title>
<path fill="none" stroke="black" stroke-dasharray="1,5" d="M953.71,-694C974.48,-694 991.52,-694 991.52,-694 991.52,-694 991.52,-292 991.52,-292 991.52,-292 990.71,-292 990.71,-292"/>
<polygon fill="black" stroke="black" points="993.43,-288.5 983.43,-292 993.43,-295.5 993.43,-288.5"/>
</g>
<!-- :data:repository&#45;&gt;:data:musicbrainz -->
<g id="edge41" class="edge">
<title>:data:repository&#45;&gt;:data:musicbrainz</title>
<path fill="none" stroke="black" stroke-dasharray="1,5" d="M796.41,-699C699.44,-699 552.56,-699 552.56,-699 552.56,-699 552.56,-182.18 552.56,-182.18"/>
<polygon fill="black" stroke="black" points="556.06,-182.18 552.56,-172.18 549.06,-182.18 556.06,-182.18"/>
</g>
<!-- :data:repository&#45;&gt;:data:coverart -->
<g id="edge42" class="edge">
<title>:data:repository&#45;&gt;:data:coverart</title>
<path fill="none" stroke="black" stroke-dasharray="1,5" d="M900.04,-685.44C900.04,-685.44 900.04,-457.12 900.04,-457.12"/>
<polygon fill="black" stroke="black" points="903.54,-457.12 900.04,-447.12 896.54,-457.12 903.54,-457.12"/>
</g>
<!-- :data:repository&#45;&gt;:core:logging:api -->
<g id="edge43" class="edge">
<title>:data:repository&#45;&gt;:core:logging:api</title>
<path fill="none" stroke="black" stroke-dasharray="1,5" d="M812.18,-692C756.94,-692 687.94,-692 687.94,-692 687.94,-692 687.94,-24 687.94,-24 687.94,-24 677.37,-24 677.37,-24"/>
<polygon fill="black" stroke="black" points="677.37,-20.5 667.37,-24 677.37,-27.5 677.37,-20.5"/>
</g>
</g>
</svg>
