<?xml version="1.0" encoding="UTF-8" standalone="no"?>
<!DOCTYPE svg PUBLIC "-//W3C//DTD SVG 1.1//EN"
 "http://www.w3.org/Graphics/SVG/1.1/DTD/svg11.dtd">
<!-- Generated by graphviz version 2.43.0 (0)
 -->
<!-- Title: %3 Pages: 1 -->
<svg width="406pt" height="392pt"
 viewBox="0.00 0.00 405.93 392.00" xmlns="http://www.w3.org/2000/svg" xmlns:xlink="http://www.w3.org/1999/xlink">
<g id="graph0" class="graph" transform="scale(1 1) rotate(0) translate(4 388)">
<title>%3</title>
<polygon fill="white" stroke="transparent" points="-4,4 -4,-388 401.93,-388 401.93,4 -4,4"/>
<text text-anchor="middle" x="198.97" y="-356" font-family="Times,serif" font-size="30.00">Dependencies</text>
<text text-anchor="middle" x="198.97" y="-323" font-family="Times,serif" font-size="30.00"> </text>
<!-- :core:preferences -->
<g id="node1" class="node">
<title>:core:preferences</title>
<polygon fill="#b59aff" stroke="black" points="264.04,-310 123.04,-310 123.04,-274 264.04,-274 264.04,-310"/>
<text text-anchor="middle" x="193.54" y="-288.3" font-family="Times,serif" font-size="14.00">:core:preferences</text>
</g>
<!-- :shared:domain -->
<g id="node2" class="node">
<title>:shared:domain</title>
<ellipse fill="#b59aff" stroke="black" cx="82.54" cy="-155" rx="82.59" ry="18"/>
<text text-anchor="middle" x="82.54" y="-151.3" font-family="Times,serif" font-size="14.00">:shared:domain</text>
</g>
<!-- :core:preferences&#45;&gt;:shared:domain -->
<g id="edge1" class="edge">
<title>:core:preferences&#45;&gt;:shared:domain</title>
<path fill="none" stroke="black" stroke-dasharray="1,5" d="M144.06,-273.81C144.06,-273.81 144.06,-177.19 144.06,-177.19"/>
<polygon fill="black" stroke="black" points="147.56,-177.19 144.06,-167.19 140.56,-177.19 147.56,-177.19"/>
</g>
<!-- :core:coroutines -->
<g id="node3" class="node">
<title>:core:coroutines</title>
<ellipse fill="#b59aff" stroke="black" cx="251.54" cy="-18" rx="85.29" ry="18"/>
<text text-anchor="middle" x="251.54" y="-14.3" font-family="Times,serif" font-size="14.00">:core:coroutines</text>
</g>
<!-- :core:preferences&#45;&gt;:core:coroutines -->
<g id="edge2" class="edge">
<title>:core:preferences&#45;&gt;:core:coroutines</title>
<path fill="none" stroke="black" stroke-dasharray="1,5" d="M193.78,-273.6C193.78,-273.6 193.78,-41.28 193.78,-41.28"/>
<polygon fill="black" stroke="black" points="197.28,-41.28 193.78,-31.28 190.28,-41.28 197.28,-41.28"/>
</g>
<!-- :core:logging:api -->
<g id="node4" class="node">
<title>:core:logging:api</title>
<ellipse fill="#b59aff" stroke="black" cx="309.54" cy="-155" rx="88.28" ry="18"/>
<text text-anchor="middle" x="309.54" y="-151.3" font-family="Times,serif" font-size="14.00">:core:logging:api</text>
</g>
<!-- :core:preferences&#45;&gt;:core:logging:api -->
<g id="edge3" class="edge">
<title>:core:preferences&#45;&gt;:core:logging:api</title>
<path fill="none" stroke="black" stroke-dasharray="1,5" d="M242.6,-273.81C242.6,-273.81 242.6,-176.82 242.6,-176.82"/>
<polygon fill="black" stroke="black" points="246.1,-176.82 242.6,-166.82 239.1,-176.82 246.1,-176.82"/>
</g>
<!-- :core:logging:api&#45;&gt;:core:coroutines -->
<g id="edge4" class="edge">
<title>:core:logging:api&#45;&gt;:core:coroutines</title>
<path fill="none" stroke="black" d="M278.92,-137.93C278.92,-137.93 278.92,-45.29 278.92,-45.29"/>
<polygon fill="black" stroke="black" points="282.42,-45.29 278.92,-35.29 275.42,-45.29 282.42,-45.29"/>
</g>
</g>
</svg>
