<?xml version="1.0" encoding="UTF-8" standalone="no"?>
<!DOCTYPE svg PUBLIC "-//W3C//DTD SVG 1.1//EN"
 "http://www.w3.org/Graphics/SVG/1.1/DTD/svg11.dtd">
<!-- Generated by graphviz version 2.43.0 (0)
 -->
<!-- Title: %3 Pages: 1 -->
<svg width="560pt" height="550pt"
 viewBox="0.00 0.00 560.06 550.00" xmlns="http://www.w3.org/2000/svg" xmlns:xlink="http://www.w3.org/1999/xlink">
<g id="graph0" class="graph" transform="scale(1 1) rotate(0) translate(4 546)">
<title>%3</title>
<polygon fill="white" stroke="transparent" points="-4,4 -4,-546 556.06,-546 556.06,4 -4,4"/>
<text text-anchor="middle" x="276.03" y="-514" font-family="Times,serif" font-size="30.00">Dependents</text>
<text text-anchor="middle" x="276.03" y="-481" font-family="Times,serif" font-size="30.00"> </text>
<!-- :core:preferences -->
<g id="node1" class="node">
<title>:core:preferences</title>
<ellipse fill="#b59aff" stroke="black" cx="91.64" cy="-234" rx="91.78" ry="18"/>
<text text-anchor="middle" x="91.64" y="-230.3" font-family="Times,serif" font-size="14.00">:core:preferences</text>
</g>
<!-- :shared -->
<g id="node2" class="node">
<title>:shared</title>
<ellipse fill="#b59aff" stroke="black" cx="418.17" cy="-450" rx="45.49" ry="18"/>
<text text-anchor="middle" x="418.17" y="-446.3" font-family="Times,serif" font-size="14.00">:shared</text>
</g>
<!-- :shared&#45;&gt;:core:preferences -->
<g id="edge1" class="edge">
<title>:shared&#45;&gt;:core:preferences</title>
<path fill="none" stroke="black" stroke-dasharray="1,5" d="M372.45,-450C271.01,-450 36,-450 36,-450 36,-450 36,-258.51 36,-258.51"/>
<polygon fill="black" stroke="black" points="39.5,-258.51 36,-248.51 32.5,-258.51 39.5,-258.51"/>
</g>
<!-- :desktop:app -->
<g id="node3" class="node">
<title>:desktop:app</title>
<ellipse fill="#9affb5" stroke="black" cx="418.17" cy="-396" rx="70.39" ry="18"/>
<text text-anchor="middle" x="418.17" y="-392.3" font-family="Times,serif" font-size="14.00">:desktop:app</text>
</g>
<!-- :desktop:app&#45;&gt;:core:preferences -->
<g id="edge2" class="edge">
<title>:desktop:app&#45;&gt;:core:preferences</title>
<path fill="none" stroke="black" stroke-dasharray="1,5" d="M347.91,-396C246.98,-396 73,-396 73,-396 73,-396 73,-261.65 73,-261.65"/>
<polygon fill="black" stroke="black" points="76.5,-261.65 73,-251.65 69.5,-261.65 76.5,-261.65"/>
</g>
<!-- :ui:common -->
<g id="node4" class="node">
<title>:ui:common</title>
<ellipse fill="#b59aff" stroke="black" cx="418.17" cy="-342" rx="64.19" ry="18"/>
<text text-anchor="middle" x="418.17" y="-338.3" font-family="Times,serif" font-size="14.00">:ui:common</text>
</g>
<!-- :ui:common&#45;&gt;:core:preferences -->
<g id="edge3" class="edge">
<title>:ui:common&#45;&gt;:core:preferences</title>
<path fill="none" stroke="black" stroke-dasharray="1,5" d="M353.74,-342C263.13,-342 109,-342 109,-342 109,-342 109,-261.83 109,-261.83"/>
<polygon fill="black" stroke="black" points="112.5,-261.83 109,-251.83 105.5,-261.83 112.5,-261.83"/>
</g>
<!-- :android:app -->
<g id="node5" class="node">
<title>:android:app</title>
<ellipse fill="#9affb5" stroke="black" cx="418.17" cy="-288" rx="69.59" ry="18"/>
<text text-anchor="middle" x="418.17" y="-284.3" font-family="Times,serif" font-size="14.00">:android:app</text>
</g>
<!-- :android:app&#45;&gt;:core:preferences -->
<g id="edge4" class="edge">
<title>:android:app&#45;&gt;:core:preferences</title>
<path fill="none" stroke="black" stroke-dasharray="1,5" d="M348.43,-288C267.79,-288 146,-288 146,-288 146,-288 146,-258.76 146,-258.76"/>
<polygon fill="black" stroke="black" points="149.5,-258.76 146,-248.76 142.5,-258.76 149.5,-258.76"/>
</g>
<!-- :shared:feature:settings -->
<g id="node6" class="node">
<title>:shared:feature:settings</title>
<ellipse fill="#b59aff" stroke="black" cx="418.17" cy="-234" rx="122.38" ry="18"/>
<text text-anchor="middle" x="418.17" y="-230.3" font-family="Times,serif" font-size="14.00">:shared:feature:settings</text>
</g>
<!-- :shared:feature:settings&#45;&gt;:core:preferences -->
<g id="edge5" class="edge">
<title>:shared:feature:settings&#45;&gt;:core:preferences</title>
<path fill="none" stroke="black" stroke-dasharray="1,5" d="M302.59,-240C302.59,-240 188.29,-240 188.29,-240"/>
<polygon fill="black" stroke="black" points="188.29,-236.5 178.29,-240 188.29,-243.5 188.29,-236.5"/>
</g>
<!-- :shared:feature:collections -->
<g id="node7" class="node">
<title>:shared:feature:collections</title>
<ellipse fill="#b59aff" stroke="black" cx="418.17" cy="-180" rx="133.78" ry="18"/>
<text text-anchor="middle" x="418.17" y="-176.3" font-family="Times,serif" font-size="14.00">:shared:feature:collections</text>
</g>
<!-- :shared:feature:collections&#45;&gt;:core:preferences -->
<g id="edge6" class="edge">
<title>:shared:feature:collections&#45;&gt;:core:preferences</title>
<path fill="none" stroke="black" stroke-dasharray="1,5" d="M290,-185.51C290,-198.11 290,-228 290,-228 290,-228 188.07,-228 188.07,-228"/>
<polygon fill="black" stroke="black" points="188.07,-224.5 178.07,-228 188.07,-231.5 188.07,-224.5"/>
</g>
<!-- :shared:feature:details -->
<g id="node8" class="node">
<title>:shared:feature:details</title>
<ellipse fill="#b59aff" stroke="black" cx="418.17" cy="-126" rx="116.18" ry="18"/>
<text text-anchor="middle" x="418.17" y="-122.3" font-family="Times,serif" font-size="14.00">:shared:feature:details</text>
</g>
<!-- :shared:feature:details&#45;&gt;:core:preferences -->
<g id="edge7" class="edge">
<title>:shared:feature:details&#45;&gt;:core:preferences</title>
<path fill="none" stroke="black" stroke-dasharray="1,5" d="M301.78,-126C224.43,-126 137,-126 137,-126 137,-126 137,-208.06 137,-208.06"/>
<polygon fill="black" stroke="black" points="133.5,-208.06 137,-218.06 140.5,-208.06 133.5,-208.06"/>
</g>
<!-- :shared:feature:history -->
<g id="node9" class="node">
<title>:shared:feature:history</title>
<ellipse fill="#b59aff" stroke="black" cx="418.17" cy="-72" rx="117.78" ry="18"/>
<text text-anchor="middle" x="418.17" y="-68.3" font-family="Times,serif" font-size="14.00">:shared:feature:history</text>
</g>
<!-- :shared:feature:history&#45;&gt;:core:preferences -->
<g id="edge8" class="edge">
<title>:shared:feature:history&#45;&gt;:core:preferences</title>
<path fill="none" stroke="black" stroke-dasharray="1,5" d="M300.52,-72C206.72,-72 91,-72 91,-72 91,-72 91,-205.73 91,-205.73"/>
<polygon fill="black" stroke="black" points="87.5,-205.73 91,-215.73 94.5,-205.73 87.5,-205.73"/>
</g>
<!-- :shared:feature:graph -->
<g id="node10" class="node">
<title>:shared:feature:graph</title>
<ellipse fill="#b59aff" stroke="black" cx="418.17" cy="-18" rx="112.38" ry="18"/>
<text text-anchor="middle" x="418.17" y="-14.3" font-family="Times,serif" font-size="14.00">:shared:feature:graph</text>
</g>
<!-- :shared:feature:graph&#45;&gt;:core:preferences -->
<g id="edge9" class="edge">
<title>:shared:feature:graph&#45;&gt;:core:preferences</title>
<path fill="none" stroke="black" stroke-dasharray="1,5" d="M305.7,-18C195.82,-18 45,-18 45,-18 45,-18 45,-208.47 45,-208.47"/>
<polygon fill="black" stroke="black" points="41.5,-208.47 45,-218.47 48.5,-208.47 41.5,-208.47"/>
</g>
</g>
</svg>
