<?xml version="1.0" encoding="UTF-8" standalone="no"?>
<!DOCTYPE svg PUBLIC "-//W3C//DTD SVG 1.1//EN"
 "http://www.w3.org/Graphics/SVG/1.1/DTD/svg11.dtd">
<!-- Generated by graphviz version 2.43.0 (0)
 -->
<!-- Title: %3 Pages: 1 -->
<svg width="518pt" height="550pt"
 viewBox="0.00 0.00 517.78 550.00" xmlns="http://www.w3.org/2000/svg" xmlns:xlink="http://www.w3.org/1999/xlink">
<g id="graph0" class="graph" transform="scale(1 1) rotate(0) translate(4 546)">
<title>%3</title>
<polygon fill="white" stroke="transparent" points="-4,4 -4,-546 513.78,-546 513.78,4 -4,4"/>
<text text-anchor="middle" x="254.89" y="-514" font-family="Times,serif" font-size="30.00">Dependents</text>
<text text-anchor="middle" x="254.89" y="-481" font-family="Times,serif" font-size="30.00"> </text>
<!-- :core:preferences -->
<g id="node1" class="node">
<title>:core:preferences</title>
<polygon fill="#b59aff" stroke="black" points="141,-252 0,-252 0,-216 141,-216 141,-252"/>
<text text-anchor="middle" x="70.5" y="-230.3" font-family="Times,serif" font-size="14.00">:core:preferences</text>
</g>
<!-- :shared -->
<g id="node2" class="node">
<title>:shared</title>
<ellipse fill="#b59aff" stroke="black" cx="375.89" cy="-450" rx="45.49" ry="18"/>
<text text-anchor="middle" x="375.89" y="-446.3" font-family="Times,serif" font-size="14.00">:shared</text>
</g>
<!-- :shared&#45;&gt;:core:preferences -->
<g id="edge1" class="edge">
<title>:shared&#45;&gt;:core:preferences</title>
<path fill="none" stroke="black" stroke-dasharray="1,5" d="M330.05,-450C235.58,-450 28,-450 28,-450 28,-450 28,-262.04 28,-262.04"/>
<polygon fill="black" stroke="black" points="31.5,-262.04 28,-252.04 24.5,-262.04 31.5,-262.04"/>
</g>
<!-- :desktop:app -->
<g id="node3" class="node">
<title>:desktop:app</title>
<ellipse fill="#9affb5" stroke="black" cx="375.89" cy="-396" rx="70.39" ry="18"/>
<text text-anchor="middle" x="375.89" y="-392.3" font-family="Times,serif" font-size="14.00">:desktop:app</text>
</g>
<!-- :desktop:app&#45;&gt;:core:preferences -->
<g id="edge2" class="edge">
<title>:desktop:app&#45;&gt;:core:preferences</title>
<path fill="none" stroke="black" stroke-dasharray="1,5" d="M305.69,-396C211.52,-396 56,-396 56,-396 56,-396 56,-262.27 56,-262.27"/>
<polygon fill="black" stroke="black" points="59.5,-262.27 56,-252.27 52.5,-262.27 59.5,-262.27"/>
</g>
<!-- :ui:common -->
<g id="node4" class="node">
<title>:ui:common</title>
<ellipse fill="#b59aff" stroke="black" cx="375.89" cy="-342" rx="64.19" ry="18"/>
<text text-anchor="middle" x="375.89" y="-338.3" font-family="Times,serif" font-size="14.00">:ui:common</text>
</g>
<!-- :ui:common&#45;&gt;:core:preferences -->
<g id="edge3" class="edge">
<title>:ui:common&#45;&gt;:core:preferences</title>
<path fill="none" stroke="black" stroke-dasharray="1,5" d="M311.47,-342C225.51,-342 84,-342 84,-342 84,-342 84,-262.32 84,-262.32"/>
<polygon fill="black" stroke="black" points="87.5,-262.32 84,-252.32 80.5,-262.32 87.5,-262.32"/>
</g>
<!-- :android:app -->
<g id="node5" class="node">
<title>:android:app</title>
<ellipse fill="#9affb5" stroke="black" cx="375.89" cy="-288" rx="69.59" ry="18"/>
<text text-anchor="middle" x="375.89" y="-284.3" font-family="Times,serif" font-size="14.00">:android:app</text>
</g>
<!-- :android:app&#45;&gt;:core:preferences -->
<g id="edge4" class="edge">
<title>:android:app&#45;&gt;:core:preferences</title>
<path fill="none" stroke="black" stroke-dasharray="1,5" d="M306.21,-288C228.03,-288 112,-288 112,-288 112,-288 112,-262.28 112,-262.28"/>
<polygon fill="black" stroke="black" points="115.5,-262.28 112,-252.28 108.5,-262.28 115.5,-262.28"/>
</g>
<!-- :shared:feature:settings -->
<g id="node6" class="node">
<title>:shared:feature:settings</title>
<ellipse fill="#b59aff" stroke="black" cx="375.89" cy="-234" rx="122.38" ry="18"/>
<text text-anchor="middle" x="375.89" y="-230.3" font-family="Times,serif" font-size="14.00">:shared:feature:settings</text>
</g>
<!-- :shared:feature:settings&#45;&gt;:core:preferences -->
<g id="edge5" class="edge">
<title>:shared:feature:settings&#45;&gt;:core:preferences</title>
<path fill="none" stroke="black" stroke-dasharray="1,5" d="M260.43,-240C260.43,-240 151.37,-240 151.37,-240"/>
<polygon fill="black" stroke="black" points="151.37,-236.5 141.37,-240 151.37,-243.5 151.37,-236.5"/>
</g>
<!-- :shared:feature:collections -->
<g id="node7" class="node">
<title>:shared:feature:collections</title>
<ellipse fill="#b59aff" stroke="black" cx="375.89" cy="-180" rx="133.78" ry="18"/>
<text text-anchor="middle" x="375.89" y="-176.3" font-family="Times,serif" font-size="14.00">:shared:feature:collections</text>
</g>
<!-- :shared:feature:collections&#45;&gt;:core:preferences -->
<g id="edge6" class="edge">
<title>:shared:feature:collections&#45;&gt;:core:preferences</title>
<path fill="none" stroke="black" stroke-dasharray="1,5" d="M247,-185.14C247,-197.52 247,-228 247,-228 247,-228 151.02,-228 151.02,-228"/>
<polygon fill="black" stroke="black" points="151.02,-224.5 141.02,-228 151.02,-231.5 151.02,-224.5"/>
</g>
<!-- :shared:feature:details -->
<g id="node8" class="node">
<title>:shared:feature:details</title>
<ellipse fill="#b59aff" stroke="black" cx="375.89" cy="-126" rx="116.18" ry="18"/>
<text text-anchor="middle" x="375.89" y="-122.3" font-family="Times,serif" font-size="14.00">:shared:feature:details</text>
</g>
<!-- :shared:feature:details&#45;&gt;:core:preferences -->
<g id="edge7" class="edge">
<title>:shared:feature:details&#45;&gt;:core:preferences</title>
<path fill="none" stroke="black" stroke-dasharray="1,5" d="M259.44,-126C186.02,-126 105,-126 105,-126 105,-126 105,-205.68 105,-205.68"/>
<polygon fill="black" stroke="black" points="101.5,-205.68 105,-215.68 108.5,-205.68 101.5,-205.68"/>
</g>
<!-- :shared:feature:history -->
<g id="node9" class="node">
<title>:shared:feature:history</title>
<ellipse fill="#b59aff" stroke="black" cx="375.89" cy="-72" rx="117.78" ry="18"/>
<text text-anchor="middle" x="375.89" y="-68.3" font-family="Times,serif" font-size="14.00">:shared:feature:history</text>
</g>
<!-- :shared:feature:history&#45;&gt;:core:preferences -->
<g id="edge8" class="edge">
<title>:shared:feature:history&#45;&gt;:core:preferences</title>
<path fill="none" stroke="black" stroke-dasharray="1,5" d="M258.06,-72C171.89,-72 70,-72 70,-72 70,-72 70,-205.73 70,-205.73"/>
<polygon fill="black" stroke="black" points="66.5,-205.73 70,-215.73 73.5,-205.73 66.5,-205.73"/>
</g>
<!-- :shared:feature:graph -->
<g id="node10" class="node">
<title>:shared:feature:graph</title>
<ellipse fill="#b59aff" stroke="black" cx="375.89" cy="-18" rx="112.38" ry="18"/>
<text text-anchor="middle" x="375.89" y="-14.3" font-family="Times,serif" font-size="14.00">:shared:feature:graph</text>
</g>
<!-- :shared:feature:graph&#45;&gt;:core:preferences -->
<g id="edge9" class="edge">
<title>:shared:feature:graph&#45;&gt;:core:preferences</title>
<path fill="none" stroke="black" stroke-dasharray="1,5" d="M263.32,-18C164.03,-18 35,-18 35,-18 35,-18 35,-205.96 35,-205.96"/>
<polygon fill="black" stroke="black" points="31.5,-205.96 35,-215.96 38.5,-205.96 31.5,-205.96"/>
</g>
</g>
</svg>
