<?xml version="1.0" encoding="UTF-8" standalone="no"?>
<!DOCTYPE svg PUBLIC "-//W3C//DTD SVG 1.1//EN"
 "http://www.w3.org/Graphics/SVG/1.1/DTD/svg11.dtd">
<!-- Generated by graphviz version 2.43.0 (0)
 -->
<!-- Title: %3 Pages: 1 -->
<svg width="336pt" height="255pt"
 viewBox="0.00 0.00 335.69 255.00" xmlns="http://www.w3.org/2000/svg" xmlns:xlink="http://www.w3.org/1999/xlink">
<g id="graph0" class="graph" transform="scale(1 1) rotate(0) translate(4 251)">
<title>%3</title>
<polygon fill="white" stroke="transparent" points="-4,4 -4,-251 331.69,-251 331.69,4 -4,4"/>
<text text-anchor="middle" x="163.84" y="-219" font-family="Times,serif" font-size="30.00">Dependencies</text>
<text text-anchor="middle" x="163.84" y="-186" font-family="Times,serif" font-size="30.00"> </text>
<!-- :core:preferences -->
<g id="node1" class="node">
<title>:core:preferences</title>
<polygon fill="#b59aff" stroke="black" points="241.64,-173 100.64,-173 100.64,-137 241.64,-137 241.64,-173"/>
<text text-anchor="middle" x="171.14" y="-151.3" font-family="Times,serif" font-size="14.00">:core:preferences</text>
</g>
<!-- :core:coroutines -->
<g id="node2" class="node">
<title>:core:coroutines</title>
<ellipse fill="#b59aff" stroke="black" cx="85.14" cy="-18" rx="85.29" ry="18"/>
<text text-anchor="middle" x="85.14" y="-14.3" font-family="Times,serif" font-size="14.00">:core:coroutines</text>
</g>
<!-- :core:preferences&#45;&gt;:core:coroutines -->
<g id="edge1" class="edge">
<title>:core:preferences&#45;&gt;:core:coroutines</title>
<path fill="none" stroke="black" stroke-dasharray="1,5" d="M135.46,-136.81C135.46,-136.81 135.46,-42.9 135.46,-42.9"/>
<polygon fill="black" stroke="black" points="138.96,-42.9 135.46,-32.9 131.96,-42.9 138.96,-42.9"/>
</g>
<!-- :core:models -->
<g id="node3" class="node">
<title>:core:models</title>
<ellipse fill="#b59aff" stroke="black" cx="258.14" cy="-18" rx="69.59" ry="18"/>
<text text-anchor="middle" x="258.14" y="-14.3" font-family="Times,serif" font-size="14.00">:core:models</text>
</g>
<!-- :core:preferences&#45;&gt;:core:models -->
<g id="edge2" class="edge">
<title>:core:preferences&#45;&gt;:core:models</title>
<path fill="none" stroke="black" stroke-dasharray="1,5" d="M215.12,-136.81C215.12,-136.81 215.12,-42.5 215.12,-42.5"/>
<polygon fill="black" stroke="black" points="218.62,-42.5 215.12,-32.5 211.62,-42.5 218.62,-42.5"/>
</g>
</g>
</svg>
