<?xml version="1.0" encoding="UTF-8" standalone="no"?>
<!DOCTYPE svg PUBLIC "-//W3C//DTD SVG 1.1//EN"
 "http://www.w3.org/Graphics/SVG/1.1/DTD/svg11.dtd">
<!-- Generated by graphviz version 2.43.0 (0)
 -->
<!-- Title: %3 Pages: 1 -->
<svg width="362pt" height="255pt"
 viewBox="0.00 0.00 361.69 255.00" xmlns="http://www.w3.org/2000/svg" xmlns:xlink="http://www.w3.org/1999/xlink">
<g id="graph0" class="graph" transform="scale(1 1) rotate(0) translate(4 251)">
<title>%3</title>
<polygon fill="white" stroke="transparent" points="-4,4 -4,-251 357.69,-251 357.69,4 -4,4"/>
<text text-anchor="middle" x="176.84" y="-219" font-family="Times,serif" font-size="30.00">Dependencies</text>
<text text-anchor="middle" x="176.84" y="-186" font-family="Times,serif" font-size="30.00"> </text>
<!-- :core:preferences -->
<g id="node1" class="node">
<title>:core:preferences</title>
<polygon fill="#b59aff" stroke="black" points="246.04,-173 105.04,-173 105.04,-137 246.04,-137 246.04,-173"/>
<text text-anchor="middle" x="175.54" y="-151.3" font-family="Times,serif" font-size="14.00">:core:preferences</text>
</g>
<!-- :shared:domain -->
<g id="node2" class="node">
<title>:shared:domain</title>
<ellipse fill="#b59aff" stroke="black" cx="82.54" cy="-18" rx="82.59" ry="18"/>
<text text-anchor="middle" x="82.54" y="-14.3" font-family="Times,serif" font-size="14.00">:shared:domain</text>
</g>
<!-- :core:preferences&#45;&gt;:shared:domain -->
<g id="edge1" class="edge">
<title>:core:preferences&#45;&gt;:shared:domain</title>
<path fill="none" stroke="black" stroke-dasharray="1,5" d="M135.06,-136.81C135.06,-136.81 135.06,-42.1 135.06,-42.1"/>
<polygon fill="black" stroke="black" points="138.56,-42.1 135.06,-32.1 131.56,-42.1 138.56,-42.1"/>
</g>
<!-- :core:coroutines -->
<g id="node3" class="node">
<title>:core:coroutines</title>
<ellipse fill="#b59aff" stroke="black" cx="268.54" cy="-18" rx="85.29" ry="18"/>
<text text-anchor="middle" x="268.54" y="-14.3" font-family="Times,serif" font-size="14.00">:core:coroutines</text>
</g>
<!-- :core:preferences&#45;&gt;:core:coroutines -->
<g id="edge2" class="edge">
<title>:core:preferences&#45;&gt;:core:coroutines</title>
<path fill="none" stroke="black" stroke-dasharray="1,5" d="M214.72,-136.81C214.72,-136.81 214.72,-42.1 214.72,-42.1"/>
<polygon fill="black" stroke="black" points="218.22,-42.1 214.72,-32.1 211.22,-42.1 218.22,-42.1"/>
</g>
</g>
</svg>
