<?xml version="1.0" encoding="UTF-8" standalone="no"?>
<!DOCTYPE svg PUBLIC "-//W3C//DTD SVG 1.1//EN"
 "http://www.w3.org/Graphics/SVG/1.1/DTD/svg11.dtd">
<!-- Generated by graphviz version 11.0.0 (20240428.1522)
 -->
<!-- Pages: 1 -->
<svg width="368pt" height="257pt"
 viewBox="0.00 0.00 368.00 256.50" xmlns="http://www.w3.org/2000/svg" xmlns:xlink="http://www.w3.org/1999/xlink">
<g id="graph0" class="graph" transform="scale(1 1) rotate(0) translate(4 252.5)">
<polygon fill="white" stroke="none" points="-4,4 -4,-252.5 364,-252.5 364,4 -4,4"/>
<text text-anchor="middle" x="180" y="-216" font-family="Times,serif" font-size="30.00">preferences</text>
<text text-anchor="middle" x="180" y="-182.25" font-family="Times,serif" font-size="30.00"> </text>
<!-- :core:preferences -->
<g id="node1" class="node">
<title>:core:preferences</title>
<polygon fill="#b59aff" stroke="black" points="360,-173 0,-173 0,-137 360,-137 360,-173"/>
<text text-anchor="middle" x="180" y="-149.95" font-family="Times,serif" font-size="14.00">:core:preferences</text>
</g>
<!-- :core:coroutines -->
<g id="node2" class="node">
<title>:core:coroutines</title>
<ellipse fill="#b59aff" stroke="black" cx="107" cy="-18" rx="70.29" ry="18"/>
<text text-anchor="middle" x="107" y="-12.95" font-family="Times,serif" font-size="14.00">:core:coroutines</text>
</g>
<!-- :core:preferences&#45;&gt;:core:coroutines -->
<g id="edge1" class="edge">
<title>:core:preferences&#45;&gt;:core:coroutines</title>
<path fill="none" stroke="black" stroke-dasharray="1,5" d="M107,-136.52C107,-136.52 107,-47.7 107,-47.7"/>
<polygon fill="black" stroke="black" points="110.5,-47.7 107,-37.7 103.5,-47.7 110.5,-47.7"/>
</g>
<!-- :core:models -->
<g id="node3" class="node">
<title>:core:models</title>
<ellipse fill="#b59aff" stroke="black" cx="254" cy="-18" rx="59.03" ry="18"/>
<text text-anchor="middle" x="254" y="-12.95" font-family="Times,serif" font-size="14.00">:core:models</text>
</g>
<!-- :core:preferences&#45;&gt;:core:models -->
<g id="edge2" class="edge">
<title>:core:preferences&#45;&gt;:core:models</title>
<path fill="none" stroke="black" stroke-dasharray="1,5" d="M254,-136.52C254,-136.52 254,-47.7 254,-47.7"/>
<polygon fill="black" stroke="black" points="257.5,-47.7 254,-37.7 250.5,-47.7 257.5,-47.7"/>
</g>
</g>
</svg>
