<?xml version="1.0" encoding="UTF-8" standalone="no"?>
<!DOCTYPE svg PUBLIC "-//W3C//DTD SVG 1.1//EN"
 "http://www.w3.org/Graphics/SVG/1.1/DTD/svg11.dtd">
<!-- Generated by graphviz version 2.43.0 (0)
 -->
<!-- Title: %3 Pages: 1 -->
<svg width="518pt" height="496pt"
 viewBox="0.00 0.00 517.78 496.00" xmlns="http://www.w3.org/2000/svg" xmlns:xlink="http://www.w3.org/1999/xlink">
<g id="graph0" class="graph" transform="scale(1 1) rotate(0) translate(4 492)">
<title>%3</title>
<polygon fill="white" stroke="transparent" points="-4,4 -4,-492 513.78,-492 513.78,4 -4,4"/>
<text text-anchor="middle" x="254.89" y="-460" font-family="Times,serif" font-size="30.00">Dependents</text>
<text text-anchor="middle" x="254.89" y="-427" font-family="Times,serif" font-size="30.00"> </text>
<!-- :core:preferences -->
<g id="node1" class="node">
<title>:core:preferences</title>
<polygon fill="#b59aff" stroke="black" points="141,-225 0,-225 0,-189 141,-189 141,-225"/>
<text text-anchor="middle" x="70.5" y="-203.3" font-family="Times,serif" font-size="14.00">:core:preferences</text>
</g>
<!-- :shared -->
<g id="node2" class="node">
<title>:shared</title>
<ellipse fill="#b59aff" stroke="black" cx="375.89" cy="-396" rx="45.49" ry="18"/>
<text text-anchor="middle" x="375.89" y="-392.3" font-family="Times,serif" font-size="14.00">:shared</text>
</g>
<!-- :shared&#45;&gt;:core:preferences -->
<g id="edge1" class="edge">
<title>:shared&#45;&gt;:core:preferences</title>
<path fill="none" stroke="black" stroke-dasharray="1,5" d="M330.27,-396C237.38,-396 35,-396 35,-396 35,-396 35,-235.12 35,-235.12"/>
<polygon fill="black" stroke="black" points="38.5,-235.12 35,-225.12 31.5,-235.12 38.5,-235.12"/>
</g>
<!-- :desktop:app -->
<g id="node3" class="node">
<title>:desktop:app</title>
<ellipse fill="#9affb5" stroke="black" cx="375.89" cy="-342" rx="70.39" ry="18"/>
<text text-anchor="middle" x="375.89" y="-338.3" font-family="Times,serif" font-size="14.00">:desktop:app</text>
</g>
<!-- :desktop:app&#45;&gt;:core:preferences -->
<g id="edge2" class="edge">
<title>:desktop:app&#45;&gt;:core:preferences</title>
<path fill="none" stroke="black" stroke-dasharray="1,5" d="M305.33,-342C214.99,-342 70,-342 70,-342 70,-342 70,-235.21 70,-235.21"/>
<polygon fill="black" stroke="black" points="73.5,-235.21 70,-225.21 66.5,-235.21 73.5,-235.21"/>
</g>
<!-- :ui:common -->
<g id="node4" class="node">
<title>:ui:common</title>
<ellipse fill="#b59aff" stroke="black" cx="375.89" cy="-288" rx="64.19" ry="18"/>
<text text-anchor="middle" x="375.89" y="-284.3" font-family="Times,serif" font-size="14.00">:ui:common</text>
</g>
<!-- :ui:common&#45;&gt;:core:preferences -->
<g id="edge3" class="edge">
<title>:ui:common&#45;&gt;:core:preferences</title>
<path fill="none" stroke="black" stroke-dasharray="1,5" d="M311.35,-288C231.22,-288 105,-288 105,-288 105,-288 105,-235.38 105,-235.38"/>
<polygon fill="black" stroke="black" points="108.5,-235.38 105,-225.38 101.5,-235.38 108.5,-235.38"/>
</g>
<!-- :android:app -->
<g id="node5" class="node">
<title>:android:app</title>
<ellipse fill="#9affb5" stroke="black" cx="375.89" cy="-234" rx="69.59" ry="18"/>
<text text-anchor="middle" x="375.89" y="-230.3" font-family="Times,serif" font-size="14.00">:android:app</text>
</g>
<!-- :android:app&#45;&gt;:core:preferences -->
<g id="edge4" class="edge">
<title>:android:app&#45;&gt;:core:preferences</title>
<path fill="none" stroke="black" stroke-dasharray="1,5" d="M329.84,-220.5C329.84,-220.5 151.07,-220.5 151.07,-220.5"/>
<polygon fill="black" stroke="black" points="151.07,-217 141.07,-220.5 151.07,-224 151.07,-217"/>
</g>
<!-- :shared:feature:settings -->
<g id="node6" class="node">
<title>:shared:feature:settings</title>
<ellipse fill="#b59aff" stroke="black" cx="375.89" cy="-180" rx="122.38" ry="18"/>
<text text-anchor="middle" x="375.89" y="-176.3" font-family="Times,serif" font-size="14.00">:shared:feature:settings</text>
</g>
<!-- :shared:feature:settings&#45;&gt;:core:preferences -->
<g id="edge5" class="edge">
<title>:shared:feature:settings&#45;&gt;:core:preferences</title>
<path fill="none" stroke="black" stroke-dasharray="1,5" d="M308.11,-195C308.11,-195 151,-195 151,-195"/>
<polygon fill="black" stroke="black" points="151,-191.5 141,-195 151,-198.5 151,-191.5"/>
</g>
<!-- :shared:feature:collections -->
<g id="node7" class="node">
<title>:shared:feature:collections</title>
<ellipse fill="#b59aff" stroke="black" cx="375.89" cy="-126" rx="133.78" ry="18"/>
<text text-anchor="middle" x="375.89" y="-122.3" font-family="Times,serif" font-size="14.00">:shared:feature:collections</text>
</g>
<!-- :shared:feature:collections&#45;&gt;:core:preferences -->
<g id="edge6" class="edge">
<title>:shared:feature:collections&#45;&gt;:core:preferences</title>
<path fill="none" stroke="black" stroke-dasharray="1,5" d="M247,-131.18C247,-146.74 247,-192 247,-192 247,-192 151.02,-192 151.02,-192"/>
<polygon fill="black" stroke="black" points="151.02,-188.5 141.02,-192 151.02,-195.5 151.02,-188.5"/>
</g>
<!-- :shared:feature:details -->
<g id="node8" class="node">
<title>:shared:feature:details</title>
<ellipse fill="#b59aff" stroke="black" cx="375.89" cy="-72" rx="116.18" ry="18"/>
<text text-anchor="middle" x="375.89" y="-68.3" font-family="Times,serif" font-size="14.00">:shared:feature:details</text>
</g>
<!-- :shared:feature:details&#45;&gt;:core:preferences -->
<g id="edge7" class="edge">
<title>:shared:feature:details&#45;&gt;:core:preferences</title>
<path fill="none" stroke="black" stroke-dasharray="1,5" d="M259.2,-72C181.65,-72 94,-72 94,-72 94,-72 94,-178.79 94,-178.79"/>
<polygon fill="black" stroke="black" points="90.5,-178.79 94,-188.79 97.5,-178.79 90.5,-178.79"/>
</g>
<!-- :shared:feature:history -->
<g id="node9" class="node">
<title>:shared:feature:history</title>
<ellipse fill="#b59aff" stroke="black" cx="375.89" cy="-18" rx="117.78" ry="18"/>
<text text-anchor="middle" x="375.89" y="-14.3" font-family="Times,serif" font-size="14.00">:shared:feature:history</text>
</g>
<!-- :shared:feature:history&#45;&gt;:core:preferences -->
<g id="edge8" class="edge">
<title>:shared:feature:history&#45;&gt;:core:preferences</title>
<path fill="none" stroke="black" stroke-dasharray="1,5" d="M258.08,-18C163.71,-18 47,-18 47,-18 47,-18 47,-178.88 47,-178.88"/>
<polygon fill="black" stroke="black" points="43.5,-178.88 47,-188.88 50.5,-178.88 43.5,-178.88"/>
</g>
</g>
</svg>
