<?xml version="1.0" encoding="UTF-8" standalone="no"?>
<!DOCTYPE svg PUBLIC "-//W3C//DTD SVG 1.1//EN"
 "http://www.w3.org/Graphics/SVG/1.1/DTD/svg11.dtd">
<!-- Generated by graphviz version 2.43.0 (0)
 -->
<!-- Title: %3 Pages: 1 -->
<svg width="1122pt" height="666pt"
 viewBox="0.00 0.00 1122.24 666.00" xmlns="http://www.w3.org/2000/svg" xmlns:xlink="http://www.w3.org/1999/xlink">
<g id="graph0" class="graph" transform="scale(1 1) rotate(0) translate(4 662)">
<title>%3</title>
<polygon fill="white" stroke="transparent" points="-4,4 -4,-662 1118.24,-662 1118.24,4 -4,4"/>
<text text-anchor="middle" x="557.12" y="-630" font-family="Times,serif" font-size="30.00">Dependencies</text>
<text text-anchor="middle" x="557.12" y="-597" font-family="Times,serif" font-size="30.00"> </text>
<!-- :data:repository -->
<g id="node1" class="node">
<title>:data:repository</title>
<polygon fill="#b59aff" stroke="black" points="767.14,-584 407.14,-584 407.14,-548 767.14,-548 767.14,-584"/>
<text text-anchor="middle" x="587.14" y="-562.3" font-family="Times,serif" font-size="14.00">:data:repository</text>
</g>
<!-- :core:models -->
<g id="node2" class="node">
<title>:core:models</title>
<ellipse fill="#b59aff" stroke="black" cx="888.14" cy="-18" rx="69.59" ry="18"/>
<text text-anchor="middle" x="888.14" y="-14.3" font-family="Times,serif" font-size="14.00">:core:models</text>
</g>
<!-- :data:repository&#45;&gt;:core:models -->
<g id="edge1" class="edge">
<title>:data:repository&#45;&gt;:core:models</title>
<path fill="none" stroke="black" stroke-dasharray="1,5" d="M713.19,-547.76C713.19,-453.6 713.19,-27 713.19,-27 713.19,-27 817.44,-27 817.44,-27"/>
<polygon fill="black" stroke="black" points="817.44,-30.5 827.44,-27 817.44,-23.5 817.44,-30.5"/>
</g>
<!-- :data:database -->
<g id="node3" class="node">
<title>:data:database</title>
<ellipse fill="#b59aff" stroke="black" cx="223.14" cy="-429" rx="79.09" ry="18"/>
<text text-anchor="middle" x="223.14" y="-425.3" font-family="Times,serif" font-size="14.00">:data:database</text>
</g>
<!-- :data:repository&#45;&gt;:data:database -->
<g id="edge2" class="edge">
<title>:data:repository&#45;&gt;:data:database</title>
<path fill="none" stroke="black" stroke-dasharray="1,5" d="M432.54,-547.93C432.54,-512.65 432.54,-438 432.54,-438 432.54,-438 302,-438 302,-438"/>
<polygon fill="black" stroke="black" points="302,-434.5 292,-438 302,-441.5 302,-434.5"/>
</g>
<!-- :data:musicbrainz -->
<g id="node4" class="node">
<title>:data:musicbrainz</title>
<ellipse fill="#b59aff" stroke="black" cx="320.14" cy="-292" rx="93.68" ry="18"/>
<text text-anchor="middle" x="320.14" y="-288.3" font-family="Times,serif" font-size="14.00">:data:musicbrainz</text>
</g>
<!-- :data:repository&#45;&gt;:data:musicbrainz -->
<g id="edge3" class="edge">
<title>:data:repository&#45;&gt;:data:musicbrainz</title>
<path fill="none" stroke="black" stroke-dasharray="1,5" d="M451.35,-547.6C451.35,-486.16 451.35,-292 451.35,-292 451.35,-292 423.75,-292 423.75,-292"/>
<polygon fill="black" stroke="black" points="423.75,-288.5 413.75,-292 423.75,-295.5 423.75,-288.5"/>
</g>
<!-- :data:common:network -->
<g id="node5" class="node">
<title>:data:common:network</title>
<ellipse fill="#b59aff" stroke="black" cx="587.14" cy="-292" rx="116.98" ry="18"/>
<text text-anchor="middle" x="587.14" y="-288.3" font-family="Times,serif" font-size="14.00">:data:common:network</text>
</g>
<!-- :data:repository&#45;&gt;:data:common:network -->
<g id="edge4" class="edge">
<title>:data:repository&#45;&gt;:data:common:network</title>
<path fill="none" stroke="black" stroke-dasharray="1,5" d="M548.15,-547.6C548.15,-547.6 548.15,-319.26 548.15,-319.26"/>
<polygon fill="black" stroke="black" points="551.65,-319.26 548.15,-309.26 544.65,-319.26 551.65,-319.26"/>
</g>
<!-- :core:logging:api -->
<g id="node6" class="node">
<title>:core:logging:api</title>
<ellipse fill="#b59aff" stroke="black" cx="587.14" cy="-155" rx="88.28" ry="18"/>
<text text-anchor="middle" x="587.14" y="-151.3" font-family="Times,serif" font-size="14.00">:core:logging:api</text>
</g>
<!-- :data:repository&#45;&gt;:core:logging:api -->
<g id="edge5" class="edge">
<title>:data:repository&#45;&gt;:core:logging:api</title>
<path fill="none" stroke="black" stroke-dasharray="1,5" d="M708.66,-547.81C708.66,-469.01 708.66,-161 708.66,-161 708.66,-161 680.55,-161 680.55,-161"/>
<polygon fill="black" stroke="black" points="680.55,-157.5 670.55,-161 680.55,-164.5 680.55,-157.5"/>
</g>
<!-- :domain -->
<g id="node7" class="node">
<title>:domain</title>
<ellipse fill="#b59aff" stroke="black" cx="1066.14" cy="-155" rx="48.19" ry="18"/>
<text text-anchor="middle" x="1066.14" y="-151.3" font-family="Times,serif" font-size="14.00">:domain</text>
</g>
<!-- :data:repository&#45;&gt;:domain -->
<g id="edge6" class="edge">
<title>:data:repository&#45;&gt;:domain</title>
<path fill="none" stroke="black" stroke-dasharray="1,5" d="M717.72,-547.82C717.72,-469.76 717.72,-167 717.72,-167 717.72,-167 1020.17,-167 1020.17,-167"/>
<polygon fill="black" stroke="black" points="1020.17,-170.5 1030.17,-167 1020.17,-163.5 1020.17,-170.5"/>
</g>
<!-- :test&#45;data -->
<g id="node8" class="node">
<title>:test&#45;data</title>
<ellipse fill="#b59aff" stroke="black" cx="791.14" cy="-429" rx="55.49" ry="18"/>
<text text-anchor="middle" x="791.14" y="-425.3" font-family="Times,serif" font-size="14.00">:test&#45;data</text>
</g>
<!-- :data:repository&#45;&gt;:test&#45;data -->
<g id="edge7" class="edge">
<title>:data:repository&#45;&gt;:test&#45;data</title>
<path fill="none" stroke="#ff9ab1" stroke-dasharray="1,5" d="M751.52,-547.81C751.52,-547.81 751.52,-451.56 751.52,-451.56"/>
<polygon fill="#ff9ab1" stroke="#ff9ab1" points="755.02,-451.56 751.52,-441.56 748.02,-451.56 755.02,-451.56"/>
</g>
<!-- :data:database&#45;&gt;:core:models -->
<g id="edge9" class="edge">
<title>:data:database&#45;&gt;:core:models</title>
<path fill="none" stroke="black" stroke-dasharray="1,5" d="M198.42,-411.75C198.42,-332.72 198.42,-9 198.42,-9 198.42,-9 817.84,-9 817.84,-9"/>
<polygon fill="black" stroke="black" points="817.84,-12.5 827.84,-9 817.84,-5.5 817.84,-12.5"/>
</g>
<!-- :data:database&#45;&gt;:data:musicbrainz -->
<g id="edge10" class="edge">
<title>:data:database&#45;&gt;:data:musicbrainz</title>
<path fill="none" stroke="black" stroke-dasharray="1,5" d="M264.49,-413.55C264.49,-413.55 264.49,-316.77 264.49,-316.77"/>
<polygon fill="black" stroke="black" points="267.99,-316.77 264.49,-306.77 260.99,-316.77 267.99,-316.77"/>
</g>
<!-- :core:coroutines -->
<g id="node9" class="node">
<title>:core:coroutines</title>
<ellipse fill="#b59aff" stroke="black" cx="85.14" cy="-292" rx="85.29" ry="18"/>
<text text-anchor="middle" x="85.14" y="-288.3" font-family="Times,serif" font-size="14.00">:core:coroutines</text>
</g>
<!-- :data:database&#45;&gt;:core:coroutines -->
<g id="edge8" class="edge">
<title>:data:database&#45;&gt;:core:coroutines</title>
<path fill="none" stroke="black" stroke-dasharray="1,5" d="M157.07,-418.7C157.07,-418.7 157.07,-311.68 157.07,-311.68"/>
<polygon fill="black" stroke="black" points="160.57,-311.68 157.07,-301.68 153.57,-311.68 160.57,-311.68"/>
</g>
<!-- :data:musicbrainz&#45;&gt;:core:models -->
<g id="edge12" class="edge">
<title>:data:musicbrainz&#45;&gt;:core:models</title>
<path fill="none" stroke="black" stroke-dasharray="1,5" d="M288.95,-274.86C288.95,-214.87 288.95,-18 288.95,-18 288.95,-18 808.53,-18 808.53,-18"/>
<polygon fill="black" stroke="black" points="808.53,-21.5 818.53,-18 808.53,-14.5 808.53,-21.5"/>
</g>
<!-- :data:musicbrainz&#45;&gt;:core:logging:api -->
<g id="edge11" class="edge">
<title>:data:musicbrainz&#45;&gt;:core:logging:api</title>
<path fill="none" stroke="black" stroke-dasharray="1,5" d="M351.34,-274.93C351.34,-238.2 351.34,-155 351.34,-155 351.34,-155 488.67,-155 488.67,-155"/>
<polygon fill="black" stroke="black" points="488.67,-158.5 498.67,-155 488.67,-151.5 488.67,-158.5"/>
</g>
<!-- :data:common:network&#45;&gt;:core:logging:api -->
<g id="edge13" class="edge">
<title>:data:common:network&#45;&gt;:core:logging:api</title>
<path fill="none" stroke="black" stroke-dasharray="1,5" d="M587.14,-273.81C587.14,-273.81 587.14,-183.27 587.14,-183.27"/>
<polygon fill="black" stroke="black" points="590.64,-183.27 587.14,-173.27 583.64,-183.27 590.64,-183.27"/>
</g>
<!-- :domain&#45;&gt;:core:models -->
<g id="edge14" class="edge">
<title>:domain&#45;&gt;:core:models</title>
<path fill="none" stroke="black" stroke-dasharray="1,5" d="M1030.16,-143C995.18,-143 947.29,-143 947.29,-143 947.29,-143 947.29,-37.81 947.29,-37.81"/>
<polygon fill="black" stroke="black" points="950.79,-37.81 947.29,-27.81 943.79,-37.81 950.79,-37.81"/>
</g>
<!-- :test&#45;data&#45;&gt;:core:models -->
<g id="edge15" class="edge">
<title>:test&#45;data&#45;&gt;:core:models</title>
<path fill="none" stroke="black" stroke-dasharray="1,5" d="M839.04,-420C863.46,-420 888.07,-420 888.07,-420 888.07,-420 888.07,-46.05 888.07,-46.05"/>
<polygon fill="black" stroke="black" points="891.57,-46.05 888.07,-36.05 884.57,-46.05 891.57,-46.05"/>
</g>
<!-- :test&#45;data&#45;&gt;:data:musicbrainz -->
<g id="edge17" class="edge">
<title>:test&#45;data&#45;&gt;:data:musicbrainz</title>
<path fill="none" stroke="black" stroke-dasharray="1,5" d="M735.88,-429C618.46,-429 354.79,-429 354.79,-429 354.79,-429 354.79,-318.8 354.79,-318.8"/>
<polygon fill="black" stroke="black" points="358.29,-318.8 354.79,-308.8 351.29,-318.8 358.29,-318.8"/>
</g>
<!-- :test&#45;data&#45;&gt;:data:common:network -->
<g id="edge16" class="edge">
<title>:test&#45;data&#45;&gt;:data:common:network</title>
<path fill="none" stroke="black" stroke-dasharray="1,5" d="M742.97,-420C694.27,-420 626.14,-420 626.14,-420 626.14,-420 626.14,-319 626.14,-319"/>
<polygon fill="black" stroke="black" points="629.64,-319 626.14,-309 622.64,-319 629.64,-319"/>
</g>
<!-- :test&#45;data&#45;&gt;:domain -->
<g id="edge20" class="edge">
<title>:test&#45;data&#45;&gt;:domain</title>
<path fill="none" stroke="black" stroke-dasharray="1,5" d="M839.02,-438C923.74,-438 1091.21,-438 1091.21,-438 1091.21,-438 1091.21,-180.62 1091.21,-180.62"/>
<polygon fill="black" stroke="black" points="1094.71,-180.62 1091.21,-170.62 1087.71,-180.62 1094.71,-180.62"/>
</g>
<!-- :data:coverart -->
<g id="node10" class="node">
<title>:data:coverart</title>
<ellipse fill="#b59aff" stroke="black" cx="992.14" cy="-292" rx="76.09" ry="18"/>
<text text-anchor="middle" x="992.14" y="-288.3" font-family="Times,serif" font-size="14.00">:data:coverart</text>
</g>
<!-- :test&#45;data&#45;&gt;:data:coverart -->
<g id="edge18" class="edge">
<title>:test&#45;data&#45;&gt;:data:coverart</title>
<path fill="none" stroke="black" stroke-dasharray="1,5" d="M846.6,-429C906.09,-429 992.14,-429 992.14,-429 992.14,-429 992.14,-320.19 992.14,-320.19"/>
<polygon fill="black" stroke="black" points="995.64,-320.19 992.14,-310.19 988.64,-320.19 995.64,-320.19"/>
</g>
<!-- :data:spotify -->
<g id="node11" class="node">
<title>:data:spotify</title>
<ellipse fill="#b59aff" stroke="black" cx="791.14" cy="-292" rx="68.79" ry="18"/>
<text text-anchor="middle" x="791.14" y="-288.3" font-family="Times,serif" font-size="14.00">:data:spotify</text>
</g>
<!-- :test&#45;data&#45;&gt;:data:spotify -->
<g id="edge19" class="edge">
<title>:test&#45;data&#45;&gt;:data:spotify</title>
<path fill="none" stroke="black" stroke-dasharray="1,5" d="M791.14,-410.81C791.14,-410.81 791.14,-320.27 791.14,-320.27"/>
<polygon fill="black" stroke="black" points="794.64,-320.27 791.14,-310.27 787.64,-320.27 794.64,-320.27"/>
</g>
<!-- :data:coverart&#45;&gt;:core:models -->
<g id="edge22" class="edge">
<title>:data:coverart&#45;&gt;:core:models</title>
<path fill="none" stroke="black" stroke-dasharray="1,5" d="M936.89,-279.51C936.89,-279.51 936.89,-40.88 936.89,-40.88"/>
<polygon fill="black" stroke="black" points="940.39,-40.88 936.89,-30.88 933.39,-40.88 940.39,-40.88"/>
</g>
<!-- :data:coverart&#45;&gt;:core:logging:api -->
<g id="edge21" class="edge">
<title>:data:coverart&#45;&gt;:core:logging:api</title>
<path fill="none" stroke="black" stroke-dasharray="1,5" d="M926.5,-282.62C926.5,-250.8 926.5,-149 926.5,-149 926.5,-149 680.59,-149 680.59,-149"/>
<polygon fill="black" stroke="black" points="680.59,-145.5 670.59,-149 680.59,-152.5 680.59,-145.5"/>
</g>
<!-- :data:coverart&#45;&gt;:domain -->
<g id="edge23" class="edge">
<title>:data:coverart&#45;&gt;:domain</title>
<path fill="none" stroke="black" stroke-dasharray="1,5" d="M1043.12,-278.61C1043.12,-278.61 1043.12,-181.17 1043.12,-181.17"/>
<polygon fill="black" stroke="black" points="1046.62,-181.17 1043.12,-171.17 1039.62,-181.17 1046.62,-181.17"/>
</g>
<!-- :data:spotify&#45;&gt;:core:models -->
<g id="edge25" class="edge">
<title>:data:spotify&#45;&gt;:core:models</title>
<path fill="none" stroke="black" stroke-dasharray="1,5" d="M839.32,-278.78C839.32,-278.78 839.32,-41.08 839.32,-41.08"/>
<polygon fill="black" stroke="black" points="842.82,-41.08 839.32,-31.08 835.82,-41.08 842.82,-41.08"/>
</g>
<!-- :data:spotify&#45;&gt;:core:logging:api -->
<g id="edge24" class="edge">
<title>:data:spotify&#45;&gt;:core:logging:api</title>
<path fill="none" stroke="black" stroke-dasharray="1,5" d="M770.42,-274.65C770.42,-237.78 770.42,-155 770.42,-155 770.42,-155 685.56,-155 685.56,-155"/>
<polygon fill="black" stroke="black" points="685.56,-151.5 675.56,-155 685.56,-158.5 685.56,-151.5"/>
</g>
</g>
</svg>
