<?xml version="1.0" encoding="UTF-8" standalone="no"?>
<!DOCTYPE svg PUBLIC "-//W3C//DTD SVG 1.1//EN"
 "http://www.w3.org/Graphics/SVG/1.1/DTD/svg11.dtd">
<!-- Generated by graphviz version 2.43.0 (0)
 -->
<!-- Title: %3 Pages: 1 -->
<svg width="786pt" height="529pt"
 viewBox="0.00 0.00 786.04 529.00" xmlns="http://www.w3.org/2000/svg" xmlns:xlink="http://www.w3.org/1999/xlink">
<g id="graph0" class="graph" transform="scale(1 1) rotate(0) translate(4 525)">
<title>%3</title>
<polygon fill="white" stroke="transparent" points="-4,4 -4,-525 782.04,-525 782.04,4 -4,4"/>
<text text-anchor="middle" x="389.02" y="-493" font-family="Times,serif" font-size="30.00">Dependencies</text>
<text text-anchor="middle" x="389.02" y="-460" font-family="Times,serif" font-size="30.00"> </text>
<!-- :data:repository -->
<g id="node1" class="node">
<title>:data:repository</title>
<polygon fill="#b59aff" stroke="black" points="328.64,-447 197.64,-447 197.64,-411 328.64,-411 328.64,-447"/>
<text text-anchor="middle" x="263.14" y="-425.3" font-family="Times,serif" font-size="14.00">:data:repository</text>
</g>
<!-- :shared:domain -->
<g id="node2" class="node">
<title>:shared:domain</title>
<ellipse fill="#b59aff" stroke="black" cx="390.14" cy="-18" rx="82.59" ry="18"/>
<text text-anchor="middle" x="390.14" y="-14.3" font-family="Times,serif" font-size="14.00">:shared:domain</text>
</g>
<!-- :data:repository&#45;&gt;:shared:domain -->
<g id="edge1" class="edge">
<title>:data:repository&#45;&gt;:shared:domain</title>
<path fill="none" stroke="black" stroke-dasharray="1,5" d="M305.04,-410.72C305.04,-360.3 305.04,-223 305.04,-223 305.04,-223 427.83,-223 427.83,-223 427.83,-223 427.83,-44.09 427.83,-44.09"/>
<polygon fill="black" stroke="black" points="431.33,-44.09 427.83,-34.09 424.33,-44.09 431.33,-44.09"/>
</g>
<!-- :data:database -->
<g id="node3" class="node">
<title>:data:database</title>
<ellipse fill="#b59aff" stroke="black" cx="202.14" cy="-292" rx="79.09" ry="18"/>
<text text-anchor="middle" x="202.14" y="-288.3" font-family="Times,serif" font-size="14.00">:data:database</text>
</g>
<!-- :data:repository&#45;&gt;:data:database -->
<g id="edge2" class="edge">
<title>:data:repository&#45;&gt;:data:database</title>
<path fill="none" stroke="black" stroke-dasharray="1,5" d="M239.54,-410.81C239.54,-410.81 239.54,-318.13 239.54,-318.13"/>
<polygon fill="black" stroke="black" points="243.04,-318.13 239.54,-308.13 236.04,-318.13 243.04,-318.13"/>
</g>
<!-- :data:musicbrainz -->
<g id="node4" class="node">
<title>:data:musicbrainz</title>
<ellipse fill="#b59aff" stroke="black" cx="320.14" cy="-155" rx="93.68" ry="18"/>
<text text-anchor="middle" x="320.14" y="-151.3" font-family="Times,serif" font-size="14.00">:data:musicbrainz</text>
</g>
<!-- :data:repository&#45;&gt;:data:musicbrainz -->
<g id="edge3" class="edge">
<title>:data:repository&#45;&gt;:data:musicbrainz</title>
<path fill="none" stroke="black" stroke-dasharray="1,5" d="M293.24,-410.6C293.24,-410.6 293.24,-182.26 293.24,-182.26"/>
<polygon fill="black" stroke="black" points="296.74,-182.26 293.24,-172.26 289.74,-182.26 296.74,-182.26"/>
</g>
<!-- :core:logging:api -->
<g id="node5" class="node">
<title>:core:logging:api</title>
<ellipse fill="#b59aff" stroke="black" cx="597.14" cy="-18" rx="88.28" ry="18"/>
<text text-anchor="middle" x="597.14" y="-14.3" font-family="Times,serif" font-size="14.00">:core:logging:api</text>
</g>
<!-- :data:repository&#45;&gt;:core:logging:api -->
<g id="edge4" class="edge">
<title>:data:repository&#45;&gt;:core:logging:api</title>
<path fill="none" stroke="black" stroke-dasharray="1,5" d="M328.95,-429C434.82,-429 631.22,-429 631.22,-429 631.22,-429 631.22,-44.62 631.22,-44.62"/>
<polygon fill="black" stroke="black" points="634.72,-44.62 631.22,-34.62 627.72,-44.62 634.72,-44.62"/>
</g>
<!-- :test&#45;data -->
<g id="node6" class="node">
<title>:test&#45;data</title>
<ellipse fill="#b59aff" stroke="black" cx="442.14" cy="-292" rx="55.49" ry="18"/>
<text text-anchor="middle" x="442.14" y="-288.3" font-family="Times,serif" font-size="14.00">:test&#45;data</text>
</g>
<!-- :data:repository&#45;&gt;:test&#45;data -->
<g id="edge5" class="edge">
<title>:data:repository&#45;&gt;:test&#45;data</title>
<path fill="none" stroke="#ff9ab1" stroke-dasharray="1,5" d="M316.84,-410.81C316.84,-373.54 316.84,-292 316.84,-292 316.84,-292 376.82,-292 376.82,-292"/>
<polygon fill="#ff9ab1" stroke="#ff9ab1" points="376.82,-295.5 386.82,-292 376.82,-288.5 376.82,-295.5"/>
</g>
<!-- :core:coroutines -->
<g id="node7" class="node">
<title>:core:coroutines</title>
<ellipse fill="#b59aff" stroke="black" cx="85.14" cy="-155" rx="85.29" ry="18"/>
<text text-anchor="middle" x="85.14" y="-151.3" font-family="Times,serif" font-size="14.00">:core:coroutines</text>
</g>
<!-- :data:repository&#45;&gt;:core:coroutines -->
<g id="edge6" class="edge">
<title>:data:repository&#45;&gt;:core:coroutines</title>
<path fill="none" stroke="#ff9ab1" stroke-dasharray="1,5" d="M197.37,-429C138.51,-429 61.42,-429 61.42,-429 61.42,-429 61.42,-182.56 61.42,-182.56"/>
<polygon fill="#ff9ab1" stroke="#ff9ab1" points="64.92,-182.56 61.42,-172.56 57.92,-182.56 64.92,-182.56"/>
</g>
<!-- :data:database&#45;&gt;:shared:domain -->
<g id="edge7" class="edge">
<title>:data:database&#45;&gt;:shared:domain</title>
<path fill="none" stroke="black" stroke-dasharray="1,5" d="M198.42,-273.6C198.42,-212.16 198.42,-18 198.42,-18 198.42,-18 297.44,-18 297.44,-18"/>
<polygon fill="black" stroke="black" points="297.44,-21.5 307.44,-18 297.44,-14.5 297.44,-21.5"/>
</g>
<!-- :data:database&#45;&gt;:data:musicbrainz -->
<g id="edge9" class="edge">
<title>:data:database&#45;&gt;:data:musicbrainz</title>
<path fill="none" stroke="black" stroke-dasharray="1,5" d="M253.99,-278.36C253.99,-278.36 253.99,-177.78 253.99,-177.78"/>
<polygon fill="black" stroke="black" points="257.49,-177.78 253.99,-167.78 250.49,-177.78 257.49,-177.78"/>
</g>
<!-- :data:database&#45;&gt;:core:coroutines -->
<g id="edge8" class="edge">
<title>:data:database&#45;&gt;:core:coroutines</title>
<path fill="none" stroke="black" stroke-dasharray="1,5" d="M146.57,-279.11C146.57,-279.11 146.57,-177.56 146.57,-177.56"/>
<polygon fill="black" stroke="black" points="150.07,-177.56 146.57,-167.56 143.07,-177.56 150.07,-177.56"/>
</g>
<!-- :data:musicbrainz&#45;&gt;:shared:domain -->
<g id="edge10" class="edge">
<title>:data:musicbrainz&#45;&gt;:shared:domain</title>
<path fill="none" stroke="black" stroke-dasharray="1,5" d="M342.98,-137.37C342.98,-137.37 342.98,-43.04 342.98,-43.04"/>
<polygon fill="black" stroke="black" points="346.48,-43.04 342.98,-33.04 339.48,-43.04 346.48,-43.04"/>
</g>
<!-- :data:musicbrainz&#45;&gt;:core:logging:api -->
<g id="edge11" class="edge">
<title>:data:musicbrainz&#45;&gt;:core:logging:api</title>
<path fill="none" stroke="black" stroke-dasharray="1,5" d="M378.36,-140.8C378.36,-116.37 378.36,-69 378.36,-69 378.36,-69 546.56,-69 546.56,-69 546.56,-69 546.56,-43.03 546.56,-43.03"/>
<polygon fill="black" stroke="black" points="550.06,-43.03 546.56,-33.03 543.06,-43.03 550.06,-43.03"/>
</g>
<!-- :test&#45;data&#45;&gt;:shared:domain -->
<g id="edge12" class="edge">
<title>:test&#45;data&#45;&gt;:shared:domain</title>
<path fill="none" stroke="black" stroke-dasharray="1,5" d="M441.92,-273.6C441.92,-273.6 441.92,-42.23 441.92,-42.23"/>
<polygon fill="black" stroke="black" points="445.42,-42.23 441.92,-32.23 438.42,-42.24 445.42,-42.23"/>
</g>
<!-- :test&#45;data&#45;&gt;:data:musicbrainz -->
<g id="edge13" class="edge">
<title>:test&#45;data&#45;&gt;:data:musicbrainz</title>
<path fill="none" stroke="black" stroke-dasharray="1,5" d="M400.32,-279.84C400.32,-279.84 400.32,-174.34 400.32,-174.34"/>
<polygon fill="black" stroke="black" points="403.82,-174.34 400.32,-164.34 396.82,-174.34 403.82,-174.34"/>
</g>
<!-- :data:coverart -->
<g id="node8" class="node">
<title>:data:coverart</title>
<ellipse fill="#b59aff" stroke="black" cx="546.14" cy="-155" rx="76.09" ry="18"/>
<text text-anchor="middle" x="546.14" y="-151.3" font-family="Times,serif" font-size="14.00">:data:coverart</text>
</g>
<!-- :test&#45;data&#45;&gt;:data:coverart -->
<g id="edge14" class="edge">
<title>:test&#45;data&#45;&gt;:data:coverart</title>
<path fill="none" stroke="black" stroke-dasharray="1,5" d="M483.74,-279.84C483.74,-279.84 483.74,-175.42 483.74,-175.42"/>
<polygon fill="black" stroke="black" points="487.24,-175.42 483.74,-165.42 480.24,-175.42 487.24,-175.42"/>
</g>
<!-- :data:spotify -->
<g id="node9" class="node">
<title>:data:spotify</title>
<ellipse fill="#b59aff" stroke="black" cx="709.14" cy="-155" rx="68.79" ry="18"/>
<text text-anchor="middle" x="709.14" y="-151.3" font-family="Times,serif" font-size="14.00">:data:spotify</text>
</g>
<!-- :test&#45;data&#45;&gt;:data:spotify -->
<g id="edge15" class="edge">
<title>:test&#45;data&#45;&gt;:data:spotify</title>
<path fill="none" stroke="black" stroke-dasharray="1,5" d="M497.47,-292C575.67,-292 709.14,-292 709.14,-292 709.14,-292 709.14,-183.19 709.14,-183.19"/>
<polygon fill="black" stroke="black" points="712.64,-183.19 709.14,-173.19 705.64,-183.19 712.64,-183.19"/>
</g>
<!-- :data:coverart&#45;&gt;:shared:domain -->
<g id="edge16" class="edge">
<title>:data:coverart&#45;&gt;:shared:domain</title>
<path fill="none" stroke="black" stroke-dasharray="1,5" d="M490.72,-142.36C490.72,-108.44 490.72,-18 490.72,-18 490.72,-18 482.74,-18 482.74,-18"/>
<polygon fill="black" stroke="black" points="482.74,-14.5 472.74,-18 482.74,-21.5 482.74,-14.5"/>
</g>
<!-- :data:coverart&#45;&gt;:core:logging:api -->
<g id="edge17" class="edge">
<title>:data:coverart&#45;&gt;:core:logging:api</title>
<path fill="none" stroke="black" stroke-dasharray="1,5" d="M584.37,-139.28C584.37,-139.28 584.37,-46.13 584.37,-46.13"/>
<polygon fill="black" stroke="black" points="587.87,-46.13 584.37,-36.13 580.87,-46.13 587.87,-46.13"/>
</g>
<!-- :data:spotify&#45;&gt;:shared:domain -->
<g id="edge18" class="edge">
<title>:data:spotify&#45;&gt;:shared:domain</title>
<path fill="none" stroke="black" stroke-dasharray="1,5" d="M655.34,-143.72C655.34,-128.42 655.34,-103 655.34,-103 655.34,-103 456.01,-103 456.01,-103 456.01,-103 456.01,-39.11 456.01,-39.11"/>
<polygon fill="black" stroke="black" points="459.51,-39.11 456.01,-29.11 452.51,-39.11 459.51,-39.11"/>
</g>
<!-- :data:spotify&#45;&gt;:core:logging:api -->
<g id="edge19" class="edge">
<title>:data:spotify&#45;&gt;:core:logging:api</title>
<path fill="none" stroke="black" stroke-dasharray="1,5" d="M670.44,-140.08C670.44,-140.08 670.44,-38.26 670.44,-38.26"/>
<polygon fill="black" stroke="black" points="673.94,-38.26 670.44,-28.26 666.94,-38.26 673.94,-38.26"/>
</g>
</g>
</svg>
