<?xml version="1.0" encoding="UTF-8" standalone="no"?>
<!DOCTYPE svg PUBLIC "-//W3C//DTD SVG 1.1//EN"
 "http://www.w3.org/Graphics/SVG/1.1/DTD/svg11.dtd">
<!-- Generated by graphviz version 2.43.0 (0)
 -->
<!-- Title: %3 Pages: 1 -->
<svg width="628pt" height="803pt"
 viewBox="0.00 0.00 627.69 803.00" xmlns="http://www.w3.org/2000/svg" xmlns:xlink="http://www.w3.org/1999/xlink">
<g id="graph0" class="graph" transform="scale(1 1) rotate(0) translate(4 799)">
<title>%3</title>
<polygon fill="white" stroke="transparent" points="-4,4 -4,-799 623.69,-799 623.69,4 -4,4"/>
<text text-anchor="middle" x="309.84" y="-767" font-family="Times,serif" font-size="30.00">Dependencies</text>
<text text-anchor="middle" x="309.84" y="-734" font-family="Times,serif" font-size="30.00"> </text>
<!-- :data:repository -->
<g id="node1" class="node">
<title>:data:repository</title>
<polygon fill="#b59aff" stroke="black" points="309.04,-721 178.04,-721 178.04,-685 309.04,-685 309.04,-721"/>
<text text-anchor="middle" x="243.54" y="-699.3" font-family="Times,serif" font-size="14.00">:data:repository</text>
</g>
<!-- :shared:domain -->
<g id="node2" class="node">
<title>:shared:domain</title>
<ellipse fill="#b59aff" stroke="black" cx="82.54" cy="-18" rx="82.59" ry="18"/>
<text text-anchor="middle" x="82.54" y="-14.3" font-family="Times,serif" font-size="14.00">:shared:domain</text>
</g>
<!-- :data:repository&#45;&gt;:shared:domain -->
<g id="edge1" class="edge">
<title>:data:repository&#45;&gt;:shared:domain</title>
<path fill="none" stroke="black" stroke-dasharray="1,5" d="M177.92,-712C110.91,-712 16.65,-712 16.65,-712 16.65,-712 16.65,-38.9 16.65,-38.9"/>
<polygon fill="black" stroke="black" points="20.15,-38.9 16.65,-28.9 13.15,-38.9 20.15,-38.9"/>
</g>
<!-- :data:database -->
<g id="node3" class="node">
<title>:data:database</title>
<ellipse fill="#b59aff" stroke="black" cx="331.54" cy="-292" rx="79.09" ry="18"/>
<text text-anchor="middle" x="331.54" y="-288.3" font-family="Times,serif" font-size="14.00">:data:database</text>
</g>
<!-- :data:repository&#45;&gt;:data:database -->
<g id="edge2" class="edge">
<title>:data:repository&#45;&gt;:data:database</title>
<path fill="none" stroke="black" stroke-dasharray="1,5" d="M309.36,-694C338.03,-694 365.21,-694 365.21,-694 365.21,-694 365.21,-318.51 365.21,-318.51"/>
<polygon fill="black" stroke="black" points="368.71,-318.51 365.21,-308.51 361.71,-318.51 368.71,-318.51"/>
</g>
<!-- :data:musicbrainz -->
<g id="node4" class="node">
<title>:data:musicbrainz</title>
<ellipse fill="#b59aff" stroke="black" cx="143.54" cy="-155" rx="93.68" ry="18"/>
<text text-anchor="middle" x="143.54" y="-151.3" font-family="Times,serif" font-size="14.00">:data:musicbrainz</text>
</g>
<!-- :data:repository&#45;&gt;:data:musicbrainz -->
<g id="edge3" class="edge">
<title>:data:repository&#45;&gt;:data:musicbrainz</title>
<path fill="none" stroke="black" stroke-dasharray="1,5" d="M177.7,-703C132.02,-703 79.34,-703 79.34,-703 79.34,-703 79.34,-178.27 79.34,-178.27"/>
<polygon fill="black" stroke="black" points="82.84,-178.27 79.34,-168.27 75.84,-178.27 82.84,-178.27"/>
</g>
<!-- :data:coverart -->
<g id="node5" class="node">
<title>:data:coverart</title>
<ellipse fill="#b59aff" stroke="black" cx="243.54" cy="-566" rx="76.09" ry="18"/>
<text text-anchor="middle" x="243.54" y="-562.3" font-family="Times,serif" font-size="14.00">:data:coverart</text>
</g>
<!-- :data:repository&#45;&gt;:data:coverart -->
<g id="edge4" class="edge">
<title>:data:repository&#45;&gt;:data:coverart</title>
<path fill="none" stroke="black" stroke-dasharray="1,5" d="M243.54,-684.81C243.54,-684.81 243.54,-594.27 243.54,-594.27"/>
<polygon fill="black" stroke="black" points="247.04,-594.27 243.54,-584.27 240.04,-594.27 247.04,-594.27"/>
</g>
<!-- :core:logging:api -->
<g id="node6" class="node">
<title>:core:logging:api</title>
<ellipse fill="#b59aff" stroke="black" cx="504.54" cy="-18" rx="88.28" ry="18"/>
<text text-anchor="middle" x="504.54" y="-14.3" font-family="Times,serif" font-size="14.00">:core:logging:api</text>
</g>
<!-- :data:repository&#45;&gt;:core:logging:api -->
<g id="edge5" class="edge">
<title>:data:repository&#45;&gt;:core:logging:api</title>
<path fill="none" stroke="black" stroke-dasharray="1,5" d="M309.26,-703C367.52,-703 443.41,-703 443.41,-703 443.41,-703 443.41,-41.07 443.41,-41.07"/>
<polygon fill="black" stroke="black" points="446.91,-41.07 443.41,-31.07 439.91,-41.07 446.91,-41.07"/>
</g>
<!-- :test&#45;data -->
<g id="node7" class="node">
<title>:test&#45;data</title>
<ellipse fill="#b59aff" stroke="black" cx="226.54" cy="-429" rx="55.49" ry="18"/>
<text text-anchor="middle" x="226.54" y="-425.3" font-family="Times,serif" font-size="14.00">:test&#45;data</text>
</g>
<!-- :data:repository&#45;&gt;:test&#45;data -->
<g id="edge6" class="edge">
<title>:data:repository&#45;&gt;:test&#45;data</title>
<path fill="none" stroke="#ff9ab1" stroke-dasharray="1,5" d="M177.97,-694C156.53,-694 138.11,-694 138.11,-694 138.11,-694 138.11,-429 138.11,-429 138.11,-429 161.29,-429 161.29,-429"/>
<polygon fill="#ff9ab1" stroke="#ff9ab1" points="161.29,-432.5 171.29,-429 161.29,-425.5 161.29,-432.5"/>
</g>
<!-- :core:coroutines -->
<g id="node8" class="node">
<title>:core:coroutines</title>
<ellipse fill="#b59aff" stroke="black" cx="534.54" cy="-155" rx="85.29" ry="18"/>
<text text-anchor="middle" x="534.54" y="-151.3" font-family="Times,serif" font-size="14.00">:core:coroutines</text>
</g>
<!-- :data:repository&#45;&gt;:core:coroutines -->
<g id="edge7" class="edge">
<title>:data:repository&#45;&gt;:core:coroutines</title>
<path fill="none" stroke="#ff9ab1" stroke-dasharray="1,5" d="M309.1,-712C408.43,-712 585.63,-712 585.63,-712 585.63,-712 585.63,-179.61 585.63,-179.61"/>
<polygon fill="#ff9ab1" stroke="#ff9ab1" points="589.13,-179.61 585.63,-169.61 582.13,-179.61 589.13,-179.61"/>
</g>
<!-- :data:database&#45;&gt;:shared:domain -->
<g id="edge8" class="edge">
<title>:data:database&#45;&gt;:shared:domain</title>
<path fill="none" stroke="black" stroke-dasharray="1,5" d="M279.85,-278.19C279.85,-222.96 279.85,-21 279.85,-21 279.85,-21 173.93,-21 173.93,-21"/>
<polygon fill="black" stroke="black" points="173.93,-17.5 163.93,-21 173.93,-24.5 173.93,-17.5"/>
</g>
<!-- :data:database&#45;&gt;:data:musicbrainz -->
<g id="edge10" class="edge">
<title>:data:database&#45;&gt;:data:musicbrainz</title>
<path fill="none" stroke="black" stroke-dasharray="1,5" d="M266.05,-281.72C266.05,-248.93 266.05,-149 266.05,-149 266.05,-149 241.92,-149 241.92,-149"/>
<polygon fill="black" stroke="black" points="241.92,-145.5 231.92,-149 241.92,-152.5 241.92,-145.5"/>
</g>
<!-- :data:database&#45;&gt;:core:coroutines -->
<g id="edge9" class="edge">
<title>:data:database&#45;&gt;:core:coroutines</title>
<path fill="none" stroke="black" stroke-dasharray="1,5" d="M411.06,-292C447.82,-292 483.46,-292 483.46,-292 483.46,-292 483.46,-179.4 483.46,-179.4"/>
<polygon fill="black" stroke="black" points="486.96,-179.4 483.46,-169.4 479.96,-179.4 486.96,-179.4"/>
</g>
<!-- :data:musicbrainz&#45;&gt;:shared:domain -->
<g id="edge11" class="edge">
<title>:data:musicbrainz&#45;&gt;:shared:domain</title>
<path fill="none" stroke="black" stroke-dasharray="1,5" d="M107.52,-138.2C107.52,-138.2 107.52,-45.37 107.52,-45.37"/>
<polygon fill="black" stroke="black" points="111.02,-45.37 107.52,-35.37 104.02,-45.37 111.02,-45.37"/>
</g>
<!-- :data:musicbrainz&#45;&gt;:core:logging:api -->
<g id="edge12" class="edge">
<title>:data:musicbrainz&#45;&gt;:core:logging:api</title>
<path fill="none" stroke="black" stroke-dasharray="1,5" d="M201.11,-140.7C201.11,-104.86 201.11,-14 201.11,-14 201.11,-14 408,-14 408,-14"/>
<polygon fill="black" stroke="black" points="408,-17.5 418,-14 408,-10.5 408,-17.5"/>
</g>
<!-- :data:coverart&#45;&gt;:shared:domain -->
<g id="edge13" class="edge">
<title>:data:coverart&#45;&gt;:shared:domain</title>
<path fill="none" stroke="black" stroke-dasharray="1,5" d="M171.78,-572C110.87,-572 33.3,-572 33.3,-572 33.3,-572 33.3,-42.53 33.3,-42.53"/>
<polygon fill="black" stroke="black" points="36.8,-42.53 33.3,-32.53 29.8,-42.53 36.8,-42.53"/>
</g>
<!-- :data:coverart&#45;&gt;:data:database -->
<g id="edge18" class="edge">
<title>:data:coverart&#45;&gt;:data:database</title>
<path fill="none" stroke="#ff9ab1" stroke-dasharray="1,5" d="M300.69,-553.87C300.69,-553.87 300.69,-318.66 300.69,-318.66"/>
<polygon fill="#ff9ab1" stroke="#ff9ab1" points="304.19,-318.66 300.69,-308.66 297.19,-318.66 304.19,-318.66"/>
</g>
<!-- :data:coverart&#45;&gt;:data:musicbrainz -->
<g id="edge17" class="edge">
<title>:data:coverart&#45;&gt;:data:musicbrainz</title>
<path fill="none" stroke="#ff9ab1" stroke-dasharray="1,5" d="M171.79,-560C139.6,-560 108.73,-560 108.73,-560 108.73,-560 108.73,-181.89 108.73,-181.89"/>
<polygon fill="#ff9ab1" stroke="#ff9ab1" points="112.23,-181.89 108.73,-171.89 105.23,-181.89 112.23,-181.89"/>
</g>
<!-- :data:coverart&#45;&gt;:core:logging:api -->
<g id="edge14" class="edge">
<title>:data:coverart&#45;&gt;:core:logging:api</title>
<path fill="none" stroke="black" stroke-dasharray="1,5" d="M315.46,-560C370.64,-560 437.42,-560 437.42,-560 437.42,-560 437.42,-39.82 437.42,-39.82"/>
<polygon fill="black" stroke="black" points="440.92,-39.82 437.42,-29.82 433.92,-39.82 440.92,-39.82"/>
</g>
<!-- :data:coverart&#45;&gt;:test&#45;data -->
<g id="edge16" class="edge">
<title>:data:coverart&#45;&gt;:test&#45;data</title>
<path fill="none" stroke="#ff9ab1" stroke-dasharray="1,5" d="M208.13,-550.02C208.13,-550.02 208.13,-456.17 208.13,-456.17"/>
<polygon fill="#ff9ab1" stroke="#ff9ab1" points="211.63,-456.17 208.13,-446.17 204.63,-456.17 211.63,-456.17"/>
</g>
<!-- :data:coverart&#45;&gt;:core:coroutines -->
<g id="edge15" class="edge">
<title>:data:coverart&#45;&gt;:core:coroutines</title>
<path fill="none" stroke="black" stroke-dasharray="1,5" d="M315.37,-572C406.39,-572 551.57,-572 551.57,-572 551.57,-572 551.57,-182.65 551.57,-182.65"/>
<polygon fill="black" stroke="black" points="555.07,-182.65 551.57,-172.65 548.07,-182.65 555.07,-182.65"/>
</g>
<!-- :test&#45;data&#45;&gt;:shared:domain -->
<g id="edge19" class="edge">
<title>:test&#45;data&#45;&gt;:shared:domain</title>
<path fill="none" stroke="black" stroke-dasharray="1,5" d="M242.17,-411.51C242.17,-334.33 242.17,-28 242.17,-28 242.17,-28 161.63,-28 161.63,-28"/>
<polygon fill="black" stroke="black" points="161.63,-24.5 151.63,-28 161.63,-31.5 161.63,-24.5"/>
</g>
<!-- :test&#45;data&#45;&gt;:data:database -->
<g id="edge21" class="edge">
<title>:test&#45;data&#45;&gt;:data:database</title>
<path fill="none" stroke="black" stroke-dasharray="1,5" d="M267.02,-416.36C267.02,-416.36 267.02,-312.69 267.02,-312.69"/>
<polygon fill="black" stroke="black" points="270.52,-312.69 267.02,-302.69 263.52,-312.69 270.52,-312.69"/>
</g>
<!-- :test&#45;data&#45;&gt;:data:musicbrainz -->
<g id="edge22" class="edge">
<title>:test&#45;data&#45;&gt;:data:musicbrainz</title>
<path fill="none" stroke="black" stroke-dasharray="1,5" d="M204.22,-412.27C204.22,-412.27 204.22,-178.84 204.22,-178.84"/>
<polygon fill="black" stroke="black" points="207.72,-178.84 204.22,-168.84 200.72,-178.84 207.72,-178.84"/>
</g>
<!-- :test&#45;data&#45;&gt;:data:coverart -->
<g id="edge23" class="edge">
<title>:test&#45;data&#45;&gt;:data:coverart</title>
<path fill="none" stroke="black" stroke-dasharray="1,5" d="M244.96,-446.07C244.96,-446.07 244.96,-537.84 244.96,-537.84"/>
<polygon fill="black" stroke="black" points="241.46,-537.84 244.96,-547.84 248.46,-537.84 241.46,-537.84"/>
</g>
<!-- :test&#45;data&#45;&gt;:core:coroutines -->
<g id="edge20" class="edge">
<title>:test&#45;data&#45;&gt;:core:coroutines</title>
<path fill="none" stroke="black" stroke-dasharray="1,5" d="M281.96,-429C366.38,-429 517.51,-429 517.51,-429 517.51,-429 517.51,-182.98 517.51,-182.98"/>
<polygon fill="black" stroke="black" points="521.01,-182.98 517.51,-172.98 514.01,-182.98 521.01,-182.98"/>
</g>
<!-- :data:spotify -->
<g id="node9" class="node">
<title>:data:spotify</title>
<ellipse fill="#b59aff" stroke="black" cx="362.54" cy="-155" rx="68.79" ry="18"/>
<text text-anchor="middle" x="362.54" y="-151.3" font-family="Times,serif" font-size="14.00">:data:spotify</text>
</g>
<!-- :test&#45;data&#45;&gt;:data:spotify -->
<g id="edge24" class="edge">
<title>:test&#45;data&#45;&gt;:data:spotify</title>
<path fill="none" stroke="black" stroke-dasharray="1,5" d="M247.21,-412.24C247.21,-353.56 247.21,-161 247.21,-161 247.21,-161 287.46,-161 287.46,-161"/>
<polygon fill="black" stroke="black" points="287.46,-164.5 297.46,-161 287.46,-157.5 287.46,-164.5"/>
</g>
<!-- :data:spotify&#45;&gt;:shared:domain -->
<g id="edge25" class="edge">
<title>:data:spotify&#45;&gt;:shared:domain</title>
<path fill="none" stroke="black" stroke-dasharray="1,5" d="M354.9,-136.85C354.9,-97.33 354.9,-7 354.9,-7 354.9,-7 158.13,-7 158.13,-7"/>
<polygon fill="black" stroke="black" points="158.13,-3.5 148.13,-7 158.13,-10.5 158.13,-3.5"/>
</g>
<!-- :data:spotify&#45;&gt;:core:logging:api -->
<g id="edge26" class="edge">
<title>:data:spotify&#45;&gt;:core:logging:api</title>
<path fill="none" stroke="black" stroke-dasharray="1,5" d="M423.79,-146.43C423.79,-146.43 423.79,-35.54 423.79,-35.54"/>
<polygon fill="black" stroke="black" points="427.29,-35.54 423.79,-25.54 420.29,-35.54 427.29,-35.54"/>
</g>
</g>
</svg>
