<?xml version="1.0" encoding="UTF-8" standalone="no"?>
<!DOCTYPE svg PUBLIC "-//W3C//DTD SVG 1.1//EN"
 "http://www.w3.org/Graphics/SVG/1.1/DTD/svg11.dtd">
<!-- Generated by graphviz version 2.43.0 (0)
 -->
<!-- Title: %3 Pages: 1 -->
<svg width="1146pt" height="666pt"
 viewBox="0.00 0.00 1145.69 666.00" xmlns="http://www.w3.org/2000/svg" xmlns:xlink="http://www.w3.org/1999/xlink">
<g id="graph0" class="graph" transform="scale(1 1) rotate(0) translate(4 662)">
<title>%3</title>
<polygon fill="white" stroke="transparent" points="-4,4 -4,-662 1141.69,-662 1141.69,4 -4,4"/>
<text text-anchor="middle" x="568.84" y="-630" font-family="Times,serif" font-size="30.00">Dependencies</text>
<text text-anchor="middle" x="568.84" y="-597" font-family="Times,serif" font-size="30.00"> </text>
<!-- :data:repository -->
<g id="node1" class="node">
<title>:data:repository</title>
<polygon fill="#b59aff" stroke="black" points="652.64,-584 521.64,-584 521.64,-548 652.64,-548 652.64,-584"/>
<text text-anchor="middle" x="587.14" y="-562.3" font-family="Times,serif" font-size="14.00">:data:repository</text>
</g>
<!-- :core:models -->
<g id="node2" class="node">
<title>:core:models</title>
<ellipse fill="#b59aff" stroke="black" cx="888.14" cy="-18" rx="69.59" ry="18"/>
<text text-anchor="middle" x="888.14" y="-14.3" font-family="Times,serif" font-size="14.00">:core:models</text>
</g>
<!-- :data:repository&#45;&gt;:core:models -->
<g id="edge1" class="edge">
<title>:data:repository&#45;&gt;:core:models</title>
<path fill="none" stroke="black" stroke-dasharray="1,5" d="M652.94,-569C744.02,-569 897.41,-569 897.41,-569 897.41,-569 897.41,-46.02 897.41,-46.02"/>
<polygon fill="black" stroke="black" points="900.91,-46.02 897.41,-36.02 893.91,-46.02 900.91,-46.02"/>
</g>
<!-- :data:database -->
<g id="node3" class="node">
<title>:data:database</title>
<ellipse fill="#b59aff" stroke="black" cx="223.14" cy="-429" rx="79.09" ry="18"/>
<text text-anchor="middle" x="223.14" y="-425.3" font-family="Times,serif" font-size="14.00">:data:database</text>
</g>
<!-- :data:repository&#45;&gt;:data:database -->
<g id="edge2" class="edge">
<title>:data:repository&#45;&gt;:data:database</title>
<path fill="none" stroke="black" stroke-dasharray="1,5" d="M565.31,-547.93C565.31,-512.65 565.31,-438 565.31,-438 565.31,-438 301.97,-438 301.97,-438"/>
<polygon fill="black" stroke="black" points="301.97,-434.5 291.97,-438 301.97,-441.5 301.97,-434.5"/>
</g>
<!-- :data:musicbrainz -->
<g id="node4" class="node">
<title>:data:musicbrainz</title>
<ellipse fill="#b59aff" stroke="black" cx="320.14" cy="-292" rx="93.68" ry="18"/>
<text text-anchor="middle" x="320.14" y="-288.3" font-family="Times,serif" font-size="14.00">:data:musicbrainz</text>
</g>
<!-- :data:repository&#45;&gt;:data:musicbrainz -->
<g id="edge3" class="edge">
<title>:data:repository&#45;&gt;:data:musicbrainz</title>
<path fill="none" stroke="black" stroke-dasharray="1,5" d="M521.44,-566C448.08,-566 339.53,-566 339.53,-566 339.53,-566 339.53,-319.98 339.53,-319.98"/>
<polygon fill="black" stroke="black" points="343.04,-319.98 339.53,-309.98 336.04,-319.98 343.04,-319.98"/>
</g>
<!-- :data:common:network -->
<g id="node5" class="node">
<title>:data:common:network</title>
<ellipse fill="#b59aff" stroke="black" cx="587.14" cy="-292" rx="116.98" ry="18"/>
<text text-anchor="middle" x="587.14" y="-288.3" font-family="Times,serif" font-size="14.00">:data:common:network</text>
</g>
<!-- :data:repository&#45;&gt;:data:common:network -->
<g id="edge4" class="edge">
<title>:data:repository&#45;&gt;:data:common:network</title>
<path fill="none" stroke="black" stroke-dasharray="1,5" d="M608.98,-547.6C608.98,-547.6 608.98,-319.97 608.98,-319.97"/>
<polygon fill="black" stroke="black" points="612.48,-319.97 608.98,-309.97 605.48,-319.97 612.48,-319.97"/>
</g>
<!-- :core:logging:api -->
<g id="node6" class="node">
<title>:core:logging:api</title>
<ellipse fill="#b59aff" stroke="black" cx="587.14" cy="-155" rx="88.28" ry="18"/>
<text text-anchor="middle" x="587.14" y="-151.3" font-family="Times,serif" font-size="14.00">:core:logging:api</text>
</g>
<!-- :data:repository&#45;&gt;:core:logging:api -->
<g id="edge5" class="edge">
<title>:data:repository&#45;&gt;:core:logging:api</title>
<path fill="none" stroke="black" stroke-dasharray="1,5" d="M652.75,-555C683.38,-555 713.19,-555 713.19,-555 713.19,-555 713.19,-165 713.19,-165 713.19,-165 670.83,-165 670.83,-165"/>
<polygon fill="black" stroke="black" points="670.83,-161.5 660.83,-165 670.83,-168.5 670.83,-161.5"/>
</g>
<!-- :shared:domain -->
<g id="node7" class="node">
<title>:shared:domain</title>
<ellipse fill="#b59aff" stroke="black" cx="1055.14" cy="-155" rx="82.59" ry="18"/>
<text text-anchor="middle" x="1055.14" y="-151.3" font-family="Times,serif" font-size="14.00">:shared:domain</text>
</g>
<!-- :data:repository&#45;&gt;:shared:domain -->
<g id="edge6" class="edge">
<title>:data:repository&#45;&gt;:shared:domain</title>
<path fill="none" stroke="black" stroke-dasharray="1,5" d="M652.87,-576C794.24,-576 1114.52,-576 1114.52,-576 1114.52,-576 1114.52,-177.6 1114.52,-177.6"/>
<polygon fill="black" stroke="black" points="1118.02,-177.6 1114.52,-167.6 1111.02,-177.6 1118.02,-177.6"/>
</g>
<!-- :test&#45;data -->
<g id="node8" class="node">
<title>:test&#45;data</title>
<ellipse fill="#b59aff" stroke="black" cx="791.14" cy="-429" rx="55.49" ry="18"/>
<text text-anchor="middle" x="791.14" y="-425.3" font-family="Times,serif" font-size="14.00">:test&#45;data</text>
</g>
<!-- :data:repository&#45;&gt;:test&#45;data -->
<g id="edge7" class="edge">
<title>:data:repository&#45;&gt;:test&#45;data</title>
<path fill="none" stroke="#ff9ab1" stroke-dasharray="1,5" d="M652.81,-562C712.45,-562 791.14,-562 791.14,-562 791.14,-562 791.14,-457.21 791.14,-457.21"/>
<polygon fill="#ff9ab1" stroke="#ff9ab1" points="794.64,-457.21 791.14,-447.21 787.64,-457.21 794.64,-457.21"/>
</g>
<!-- :data:database&#45;&gt;:core:models -->
<g id="edge9" class="edge">
<title>:data:database&#45;&gt;:core:models</title>
<path fill="none" stroke="black" stroke-dasharray="1,5" d="M198.42,-411.88C198.42,-333.41 198.42,-12 198.42,-12 198.42,-12 812.32,-12 812.32,-12"/>
<polygon fill="black" stroke="black" points="812.32,-15.5 822.32,-12 812.32,-8.5 812.32,-15.5"/>
</g>
<!-- :data:database&#45;&gt;:data:musicbrainz -->
<g id="edge10" class="edge">
<title>:data:database&#45;&gt;:data:musicbrainz</title>
<path fill="none" stroke="black" stroke-dasharray="1,5" d="M264.49,-413.55C264.49,-413.55 264.49,-316.77 264.49,-316.77"/>
<polygon fill="black" stroke="black" points="267.99,-316.77 264.49,-306.77 260.99,-316.77 267.99,-316.77"/>
</g>
<!-- :core:coroutines -->
<g id="node9" class="node">
<title>:core:coroutines</title>
<ellipse fill="#b59aff" stroke="black" cx="85.14" cy="-292" rx="85.29" ry="18"/>
<text text-anchor="middle" x="85.14" y="-288.3" font-family="Times,serif" font-size="14.00">:core:coroutines</text>
</g>
<!-- :data:database&#45;&gt;:core:coroutines -->
<g id="edge8" class="edge">
<title>:data:database&#45;&gt;:core:coroutines</title>
<path fill="none" stroke="black" stroke-dasharray="1,5" d="M157.07,-418.7C157.07,-418.7 157.07,-311.68 157.07,-311.68"/>
<polygon fill="black" stroke="black" points="160.57,-311.68 157.07,-301.68 153.57,-311.68 160.57,-311.68"/>
</g>
<!-- :data:musicbrainz&#45;&gt;:core:models -->
<g id="edge12" class="edge">
<title>:data:musicbrainz&#45;&gt;:core:models</title>
<path fill="none" stroke="black" stroke-dasharray="1,5" d="M288.95,-274.83C288.95,-215.68 288.95,-24 288.95,-24 288.95,-24 812.3,-24 812.3,-24"/>
<polygon fill="black" stroke="black" points="812.3,-27.5 822.3,-24 812.3,-20.5 812.3,-27.5"/>
</g>
<!-- :data:musicbrainz&#45;&gt;:core:logging:api -->
<g id="edge11" class="edge">
<title>:data:musicbrainz&#45;&gt;:core:logging:api</title>
<path fill="none" stroke="black" stroke-dasharray="1,5" d="M351.34,-274.93C351.34,-238.2 351.34,-155 351.34,-155 351.34,-155 488.67,-155 488.67,-155"/>
<polygon fill="black" stroke="black" points="488.67,-158.5 498.67,-155 488.67,-151.5 488.67,-158.5"/>
</g>
<!-- :data:common:network&#45;&gt;:core:logging:api -->
<g id="edge13" class="edge">
<title>:data:common:network&#45;&gt;:core:logging:api</title>
<path fill="none" stroke="black" stroke-dasharray="1,5" d="M587.14,-273.81C587.14,-273.81 587.14,-183.27 587.14,-183.27"/>
<polygon fill="black" stroke="black" points="590.64,-183.27 587.14,-173.27 583.64,-183.27 590.64,-183.27"/>
</g>
<!-- :shared:domain&#45;&gt;:core:models -->
<g id="edge14" class="edge">
<title>:shared:domain&#45;&gt;:core:models</title>
<path fill="none" stroke="black" stroke-dasharray="1,5" d="M989.61,-144C967.02,-144 947.29,-144 947.29,-144 947.29,-144 947.29,-37.47 947.29,-37.47"/>
<polygon fill="black" stroke="black" points="950.79,-37.47 947.29,-27.47 943.79,-37.47 950.79,-37.47"/>
</g>
<!-- :test&#45;data&#45;&gt;:core:models -->
<g id="edge15" class="edge">
<title>:test&#45;data&#45;&gt;:core:models</title>
<path fill="none" stroke="black" stroke-dasharray="1,5" d="M839.03,-420C859.48,-420 878.72,-420 878.72,-420 878.72,-420 878.72,-46.05 878.72,-46.05"/>
<polygon fill="black" stroke="black" points="882.22,-46.05 878.72,-36.05 875.22,-46.05 882.22,-46.05"/>
</g>
<!-- :test&#45;data&#45;&gt;:data:musicbrainz -->
<g id="edge17" class="edge">
<title>:test&#45;data&#45;&gt;:data:musicbrainz</title>
<path fill="none" stroke="black" stroke-dasharray="1,5" d="M735.67,-429C622.72,-429 376.63,-429 376.63,-429 376.63,-429 376.63,-316.4 376.63,-316.4"/>
<polygon fill="black" stroke="black" points="380.13,-316.4 376.63,-306.4 373.13,-316.4 380.13,-316.4"/>
</g>
<!-- :test&#45;data&#45;&gt;:data:common:network -->
<g id="edge16" class="edge">
<title>:test&#45;data&#45;&gt;:data:common:network</title>
<path fill="none" stroke="black" stroke-dasharray="1,5" d="M743,-420C712.35,-420 678.39,-420 678.39,-420 678.39,-420 678.39,-313.36 678.39,-313.36"/>
<polygon fill="black" stroke="black" points="681.89,-313.36 678.39,-303.36 674.89,-313.36 681.89,-313.36"/>
</g>
<!-- :test&#45;data&#45;&gt;:shared:domain -->
<g id="edge20" class="edge">
<title>:test&#45;data&#45;&gt;:shared:domain</title>
<path fill="none" stroke="black" stroke-dasharray="1,5" d="M839.04,-438C923.8,-438 1091.35,-438 1091.35,-438 1091.35,-438 1091.35,-181.44 1091.35,-181.44"/>
<polygon fill="black" stroke="black" points="1094.85,-181.44 1091.35,-171.44 1087.85,-181.44 1094.85,-181.44"/>
</g>
<!-- :data:coverart -->
<g id="node10" class="node">
<title>:data:coverart</title>
<ellipse fill="#b59aff" stroke="black" cx="992.14" cy="-292" rx="76.09" ry="18"/>
<text text-anchor="middle" x="992.14" y="-288.3" font-family="Times,serif" font-size="14.00">:data:coverart</text>
</g>
<!-- :test&#45;data&#45;&gt;:data:coverart -->
<g id="edge18" class="edge">
<title>:test&#45;data&#45;&gt;:data:coverart</title>
<path fill="none" stroke="black" stroke-dasharray="1,5" d="M846.6,-429C906.09,-429 992.14,-429 992.14,-429 992.14,-429 992.14,-320.19 992.14,-320.19"/>
<polygon fill="black" stroke="black" points="995.64,-320.19 992.14,-310.19 988.64,-320.19 995.64,-320.19"/>
</g>
<!-- :data:spotify -->
<g id="node11" class="node">
<title>:data:spotify</title>
<ellipse fill="#b59aff" stroke="black" cx="791.14" cy="-292" rx="68.79" ry="18"/>
<text text-anchor="middle" x="791.14" y="-288.3" font-family="Times,serif" font-size="14.00">:data:spotify</text>
</g>
<!-- :test&#45;data&#45;&gt;:data:spotify -->
<g id="edge19" class="edge">
<title>:test&#45;data&#45;&gt;:data:spotify</title>
<path fill="none" stroke="black" stroke-dasharray="1,5" d="M791.14,-410.81C791.14,-410.81 791.14,-320.27 791.14,-320.27"/>
<polygon fill="black" stroke="black" points="794.64,-320.27 791.14,-310.27 787.64,-320.27 794.64,-320.27"/>
</g>
<!-- :data:coverart&#45;&gt;:core:models -->
<g id="edge22" class="edge">
<title>:data:coverart&#45;&gt;:core:models</title>
<path fill="none" stroke="black" stroke-dasharray="1,5" d="M936.89,-279.51C936.89,-279.51 936.89,-40.88 936.89,-40.88"/>
<polygon fill="black" stroke="black" points="940.39,-40.88 936.89,-30.88 933.39,-40.88 940.39,-40.88"/>
</g>
<!-- :data:coverart&#45;&gt;:core:logging:api -->
<g id="edge21" class="edge">
<title>:data:coverart&#45;&gt;:core:logging:api</title>
<path fill="none" stroke="black" stroke-dasharray="1,5" d="M926.5,-282.75C926.5,-251.38 926.5,-151 926.5,-151 926.5,-151 683.65,-151 683.65,-151"/>
<polygon fill="black" stroke="black" points="683.65,-147.5 673.65,-151 683.65,-154.5 683.65,-147.5"/>
</g>
<!-- :data:coverart&#45;&gt;:shared:domain -->
<g id="edge23" class="edge">
<title>:data:coverart&#45;&gt;:shared:domain</title>
<path fill="none" stroke="black" stroke-dasharray="1,5" d="M1020.39,-275.2C1020.39,-275.2 1020.39,-181.51 1020.39,-181.51"/>
<polygon fill="black" stroke="black" points="1023.89,-181.51 1020.39,-171.51 1016.89,-181.51 1023.89,-181.51"/>
</g>
<!-- :data:spotify&#45;&gt;:core:models -->
<g id="edge25" class="edge">
<title>:data:spotify&#45;&gt;:core:models</title>
<path fill="none" stroke="black" stroke-dasharray="1,5" d="M839.32,-278.78C839.32,-278.78 839.32,-41.08 839.32,-41.08"/>
<polygon fill="black" stroke="black" points="842.82,-41.08 839.32,-31.08 835.82,-41.08 842.82,-41.08"/>
</g>
<!-- :data:spotify&#45;&gt;:core:logging:api -->
<g id="edge24" class="edge">
<title>:data:spotify&#45;&gt;:core:logging:api</title>
<path fill="none" stroke="black" stroke-dasharray="1,5" d="M770.42,-274.76C770.42,-238.56 770.42,-158 770.42,-158 770.42,-158 684.49,-158 684.49,-158"/>
<polygon fill="black" stroke="black" points="684.49,-154.5 674.49,-158 684.49,-161.5 684.49,-154.5"/>
</g>
</g>
</svg>
