<?xml version="1.0" encoding="UTF-8" standalone="no"?>
<!DOCTYPE svg PUBLIC "-//W3C//DTD SVG 1.1//EN"
 "http://www.w3.org/Graphics/SVG/1.1/DTD/svg11.dtd">
<!-- Generated by graphviz version 11.0.0 (20240428.1522)
 -->
<!-- Pages: 1 -->
<svg width="967pt" height="668pt"
 viewBox="0.00 0.00 966.92 667.50" xmlns="http://www.w3.org/2000/svg" xmlns:xlink="http://www.w3.org/1999/xlink">
<g id="graph0" class="graph" transform="scale(1 1) rotate(0) translate(4 663.5)">
<polygon fill="white" stroke="none" points="-4,4 -4,-663.5 962.92,-663.5 962.92,4 -4,4"/>
<text text-anchor="middle" x="479.46" y="-627" font-family="Times,serif" font-size="30.00">repository</text>
<text text-anchor="middle" x="479.46" y="-593.25" font-family="Times,serif" font-size="30.00"> </text>
<!-- :data:repository -->
<g id="node1" class="node">
<title>:data:repository</title>
<polygon fill="#b59aff" stroke="black" points="683.29,-584 323.29,-584 323.29,-548 683.29,-548 683.29,-584"/>
<text text-anchor="middle" x="503.29" y="-560.95" font-family="Times,serif" font-size="14.00">:data:repository</text>
</g>
<!-- :core:models -->
<g id="node2" class="node">
<title>:core:models</title>
<ellipse fill="#b59aff" stroke="black" cx="760.29" cy="-18" rx="59.03" ry="18"/>
<text text-anchor="middle" x="760.29" y="-12.95" font-family="Times,serif" font-size="14.00">:core:models</text>
</g>
<!-- :data:repository&#45;&gt;:core:models -->
<g id="edge1" class="edge">
<title>:data:repository&#45;&gt;:core:models</title>
<path fill="none" stroke="black" stroke-dasharray="1,5" d="M683.7,-560C731.42,-560 769.89,-560 769.89,-560 769.89,-560 769.89,-47.55 769.89,-47.55"/>
<polygon fill="black" stroke="black" points="773.39,-47.55 769.89,-37.55 766.39,-47.55 773.39,-47.55"/>
</g>
<!-- :data:database -->
<g id="node3" class="node">
<title>:data:database</title>
<ellipse fill="#b59aff" stroke="black" cx="189.29" cy="-429" rx="63.12" ry="18"/>
<text text-anchor="middle" x="189.29" y="-423.95" font-family="Times,serif" font-size="14.00">:data:database</text>
</g>
<!-- :data:repository&#45;&gt;:data:database -->
<g id="edge2" class="edge">
<title>:data:repository&#45;&gt;:data:database</title>
<path fill="none" stroke="black" stroke-dasharray="1,5" d="M330.02,-547.66C330.02,-512.27 330.02,-438 330.02,-438 330.02,-438 256.02,-438 256.02,-438"/>
<polygon fill="black" stroke="black" points="256.02,-434.5 246.02,-438 256.02,-441.5 256.02,-434.5"/>
</g>
<!-- :data:musicbrainz -->
<g id="node4" class="node">
<title>:data:musicbrainz</title>
<ellipse fill="#b59aff" stroke="black" cx="273.29" cy="-292" rx="76.94" ry="18"/>
<text text-anchor="middle" x="273.29" y="-286.95" font-family="Times,serif" font-size="14.00">:data:musicbrainz</text>
</g>
<!-- :data:repository&#45;&gt;:data:musicbrainz -->
<g id="edge3" class="edge">
<title>:data:repository&#45;&gt;:data:musicbrainz</title>
<path fill="none" stroke="black" stroke-dasharray="1,5" d="M336.76,-547.6C336.76,-547.6 336.76,-313.84 336.76,-313.84"/>
<polygon fill="black" stroke="black" points="340.26,-313.84 336.76,-303.84 333.26,-313.84 340.26,-313.84"/>
</g>
<!-- :data:common:network -->
<g id="node5" class="node">
<title>:data:common:network</title>
<ellipse fill="#b59aff" stroke="black" cx="503.29" cy="-292" rx="97.41" ry="18"/>
<text text-anchor="middle" x="503.29" y="-286.95" font-family="Times,serif" font-size="14.00">:data:common:network</text>
</g>
<!-- :data:repository&#45;&gt;:data:common:network -->
<g id="edge4" class="edge">
<title>:data:repository&#45;&gt;:data:common:network</title>
<path fill="none" stroke="black" stroke-dasharray="1,5" d="M470.82,-547.6C470.82,-547.6 470.82,-320.77 470.82,-320.77"/>
<polygon fill="black" stroke="black" points="474.32,-320.77 470.82,-310.77 467.32,-320.77 474.32,-320.77"/>
</g>
<!-- :core:logging:api -->
<g id="node6" class="node">
<title>:core:logging:api</title>
<ellipse fill="#b59aff" stroke="black" cx="503.29" cy="-155" rx="73.87" ry="18"/>
<text text-anchor="middle" x="503.29" y="-149.95" font-family="Times,serif" font-size="14.00">:core:logging:api</text>
</g>
<!-- :data:repository&#45;&gt;:core:logging:api -->
<g id="edge5" class="edge">
<title>:data:repository&#45;&gt;:core:logging:api</title>
<path fill="none" stroke="black" stroke-dasharray="1,5" d="M609.5,-547.73C609.5,-469.28 609.5,-165 609.5,-165 609.5,-165 577.2,-165 577.2,-165"/>
<polygon fill="black" stroke="black" points="577.2,-161.5 567.2,-165 577.2,-168.5 577.2,-161.5"/>
</g>
<!-- :domain -->
<g id="node7" class="node">
<title>:domain</title>
<ellipse fill="#b59aff" stroke="black" cx="917.29" cy="-155" rx="41.63" ry="18"/>
<text text-anchor="middle" x="917.29" y="-149.95" font-family="Times,serif" font-size="14.00">:domain</text>
</g>
<!-- :data:repository&#45;&gt;:domain -->
<g id="edge6" class="edge">
<title>:data:repository&#45;&gt;:domain</title>
<path fill="none" stroke="black" stroke-dasharray="1,5" d="M683.5,-572C805,-572 943.24,-572 943.24,-572 943.24,-572 943.24,-180.87 943.24,-180.87"/>
<polygon fill="black" stroke="black" points="946.74,-180.87 943.24,-170.87 939.74,-180.87 946.74,-180.87"/>
</g>
<!-- :test&#45;data -->
<g id="node8" class="node">
<title>:test&#45;data</title>
<ellipse fill="#b59aff" stroke="black" cx="675.29" cy="-429" rx="44.7" ry="18"/>
<text text-anchor="middle" x="675.29" y="-423.95" font-family="Times,serif" font-size="14.00">:test&#45;data</text>
</g>
<!-- :data:repository&#45;&gt;:test&#45;data -->
<g id="edge7" class="edge">
<title>:data:repository&#45;&gt;:test&#45;data</title>
<path fill="none" stroke="#ff9ab1" stroke-dasharray="1,5" d="M656.94,-547.52C656.94,-547.52 656.94,-457.41 656.94,-457.41"/>
<polygon fill="#ff9ab1" stroke="#ff9ab1" points="660.44,-457.41 656.94,-447.41 653.44,-457.41 660.44,-457.41"/>
</g>
<!-- :data:database&#45;&gt;:core:models -->
<g id="edge9" class="edge">
<title>:data:database&#45;&gt;:core:models</title>
<path fill="none" stroke="black" stroke-dasharray="1,5" d="M168.46,-411.61C168.46,-332.69 168.46,-12 168.46,-12 168.46,-12 692.56,-12 692.56,-12"/>
<polygon fill="black" stroke="black" points="692.56,-15.5 702.56,-12 692.56,-8.5 692.56,-15.5"/>
</g>
<!-- :data:database&#45;&gt;:data:musicbrainz -->
<g id="edge10" class="edge">
<title>:data:database&#45;&gt;:data:musicbrainz</title>
<path fill="none" stroke="black" stroke-dasharray="1,5" d="M224.38,-413.82C224.38,-413.82 224.38,-317.53 224.38,-317.53"/>
<polygon fill="black" stroke="black" points="227.88,-317.53 224.38,-307.53 220.88,-317.53 227.88,-317.53"/>
</g>
<!-- :core:coroutines -->
<g id="node9" class="node">
<title>:core:coroutines</title>
<ellipse fill="#b59aff" stroke="black" cx="70.29" cy="-292" rx="70.29" ry="18"/>
<text text-anchor="middle" x="70.29" y="-286.95" font-family="Times,serif" font-size="14.00">:core:coroutines</text>
</g>
<!-- :data:database&#45;&gt;:core:coroutines -->
<g id="edge8" class="edge">
<title>:data:database&#45;&gt;:core:coroutines</title>
<path fill="none" stroke="black" stroke-dasharray="1,5" d="M133.37,-420.43C133.37,-420.43 133.37,-311.73 133.37,-311.73"/>
<polygon fill="black" stroke="black" points="136.87,-311.73 133.37,-301.73 129.87,-311.73 136.87,-311.73"/>
</g>
<!-- :data:musicbrainz&#45;&gt;:core:models -->
<g id="edge12" class="edge">
<title>:data:musicbrainz&#45;&gt;:core:models</title>
<path fill="none" stroke="black" stroke-dasharray="1,5" d="M247.64,-274.83C247.64,-215.68 247.64,-24 247.64,-24 247.64,-24 692.94,-24 692.94,-24"/>
<polygon fill="black" stroke="black" points="692.94,-27.5 702.94,-24 692.94,-20.5 692.94,-27.5"/>
</g>
<!-- :data:musicbrainz&#45;&gt;:core:logging:api -->
<g id="edge11" class="edge">
<title>:data:musicbrainz&#45;&gt;:core:logging:api</title>
<path fill="none" stroke="black" stroke-dasharray="1,5" d="M298.94,-274.65C298.94,-237.78 298.94,-155 298.94,-155 298.94,-155 417.42,-155 417.42,-155"/>
<polygon fill="black" stroke="black" points="417.42,-158.5 427.42,-155 417.42,-151.5 417.42,-158.5"/>
</g>
<!-- :data:common:network&#45;&gt;:core:logging:api -->
<g id="edge13" class="edge">
<title>:data:common:network&#45;&gt;:core:logging:api</title>
<path fill="none" stroke="black" stroke-dasharray="1,5" d="M503.29,-273.52C503.29,-273.52 503.29,-184.7 503.29,-184.7"/>
<polygon fill="black" stroke="black" points="506.79,-184.7 503.29,-174.7 499.79,-184.7 506.79,-184.7"/>
</g>
<!-- :domain&#45;&gt;:core:models -->
<g id="edge14" class="edge">
<title>:domain&#45;&gt;:core:models</title>
<path fill="none" stroke="black" stroke-dasharray="1,5" d="M883.58,-144C852.67,-144 811.66,-144 811.66,-144 811.66,-144 811.66,-38.58 811.66,-38.58"/>
<polygon fill="black" stroke="black" points="815.16,-38.58 811.66,-28.58 808.16,-38.58 815.16,-38.58"/>
</g>
<!-- :test&#45;data&#45;&gt;:core:models -->
<g id="edge15" class="edge">
<title>:test&#45;data&#45;&gt;:core:models</title>
<path fill="none" stroke="black" stroke-dasharray="1,5" d="M714.52,-420C733.01,-420 751.08,-420 751.08,-420 751.08,-420 751.08,-47.57 751.08,-47.57"/>
<polygon fill="black" stroke="black" points="754.58,-47.57 751.08,-37.57 747.58,-47.57 754.58,-47.57"/>
</g>
<!-- :test&#45;data&#45;&gt;:data:musicbrainz -->
<g id="edge17" class="edge">
<title>:test&#45;data&#45;&gt;:data:musicbrainz</title>
<path fill="none" stroke="black" stroke-dasharray="1,5" d="M630.2,-429C539.48,-429 343.49,-429 343.49,-429 343.49,-429 343.49,-311.27 343.49,-311.27"/>
<polygon fill="black" stroke="black" points="346.99,-311.27 343.49,-301.27 339.99,-311.27 346.99,-311.27"/>
</g>
<!-- :test&#45;data&#45;&gt;:data:common:network -->
<g id="edge16" class="edge">
<title>:test&#45;data&#45;&gt;:data:common:network</title>
<path fill="none" stroke="black" stroke-dasharray="1,5" d="M636.05,-420C594.78,-420 535.76,-420 535.76,-420 535.76,-420 535.76,-320.78 535.76,-320.78"/>
<polygon fill="black" stroke="black" points="539.26,-320.78 535.76,-310.78 532.26,-320.78 539.26,-320.78"/>
</g>
<!-- :test&#45;data&#45;&gt;:domain -->
<g id="edge20" class="edge">
<title>:test&#45;data&#45;&gt;:domain</title>
<path fill="none" stroke="black" stroke-dasharray="1,5" d="M714.71,-438C785.66,-438 927.56,-438 927.56,-438 927.56,-438 927.56,-184.22 927.56,-184.22"/>
<polygon fill="black" stroke="black" points="931.06,-184.22 927.56,-174.22 924.06,-184.22 931.06,-184.22"/>
</g>
<!-- :data:coverart -->
<g id="node10" class="node">
<title>:data:coverart</title>
<ellipse fill="#b59aff" stroke="black" cx="850.29" cy="-292" rx="61.59" ry="18"/>
<text text-anchor="middle" x="850.29" y="-286.95" font-family="Times,serif" font-size="14.00">:data:coverart</text>
</g>
<!-- :test&#45;data&#45;&gt;:data:coverart -->
<g id="edge18" class="edge">
<title>:test&#45;data&#45;&gt;:data:coverart</title>
<path fill="none" stroke="black" stroke-dasharray="1,5" d="M720.36,-429C772.21,-429 850.29,-429 850.29,-429 850.29,-429 850.29,-321.99 850.29,-321.99"/>
<polygon fill="black" stroke="black" points="853.79,-321.99 850.29,-311.99 846.79,-321.99 853.79,-321.99"/>
</g>
<!-- :data:spotify -->
<g id="node11" class="node">
<title>:data:spotify</title>
<ellipse fill="#b59aff" stroke="black" cx="675.29" cy="-292" rx="56.98" ry="18"/>
<text text-anchor="middle" x="675.29" y="-286.95" font-family="Times,serif" font-size="14.00">:data:spotify</text>
</g>
<!-- :test&#45;data&#45;&gt;:data:spotify -->
<g id="edge19" class="edge">
<title>:test&#45;data&#45;&gt;:data:spotify</title>
<path fill="none" stroke="black" stroke-dasharray="1,5" d="M675.29,-410.52C675.29,-410.52 675.29,-321.7 675.29,-321.7"/>
<polygon fill="black" stroke="black" points="678.79,-321.7 675.29,-311.7 671.79,-321.7 678.79,-321.7"/>
</g>
<!-- :data:coverart&#45;&gt;:core:models -->
<g id="edge22" class="edge">
<title>:data:coverart&#45;&gt;:core:models</title>
<path fill="none" stroke="black" stroke-dasharray="1,5" d="M804.01,-279.87C804.01,-279.87 804.01,-41.81 804.01,-41.81"/>
<polygon fill="black" stroke="black" points="807.51,-41.81 804.01,-31.81 800.51,-41.81 807.51,-41.81"/>
</g>
<!-- :data:coverart&#45;&gt;:core:logging:api -->
<g id="edge21" class="edge">
<title>:data:coverart&#45;&gt;:core:logging:api</title>
<path fill="none" stroke="black" stroke-dasharray="1,5" d="M796.35,-283.18C796.35,-252.31 796.35,-151 796.35,-151 796.35,-151 587.25,-151 587.25,-151"/>
<polygon fill="black" stroke="black" points="587.25,-147.5 577.25,-151 587.25,-154.5 587.25,-147.5"/>
</g>
<!-- :data:coverart&#45;&gt;:domain -->
<g id="edge23" class="edge">
<title>:data:coverart&#45;&gt;:domain</title>
<path fill="none" stroke="black" stroke-dasharray="1,5" d="M893.77,-278.86C893.77,-278.86 893.77,-181.47 893.77,-181.47"/>
<polygon fill="black" stroke="black" points="897.27,-181.47 893.77,-171.47 890.27,-181.47 897.27,-181.47"/>
</g>
<!-- :data:spotify&#45;&gt;:core:models -->
<g id="edge25" class="edge">
<title>:data:spotify&#45;&gt;:core:models</title>
<path fill="none" stroke="black" stroke-dasharray="1,5" d="M716.76,-279.51C716.76,-279.51 716.76,-42.07 716.76,-42.07"/>
<polygon fill="black" stroke="black" points="720.26,-42.07 716.76,-32.07 713.26,-42.07 720.26,-42.07"/>
</g>
<!-- :data:spotify&#45;&gt;:core:logging:api -->
<g id="edge24" class="edge">
<title>:data:spotify&#45;&gt;:core:logging:api</title>
<path fill="none" stroke="black" stroke-dasharray="1,5" d="M659.78,-274.21C659.78,-237.76 659.78,-158 659.78,-158 659.78,-158 588.01,-158 588.01,-158"/>
<polygon fill="black" stroke="black" points="588.01,-154.5 578.01,-158 588.01,-161.5 588.01,-154.5"/>
</g>
</g>
</svg>
