<?xml version="1.0" encoding="UTF-8" standalone="no"?>
<!DOCTYPE svg PUBLIC "-//W3C//DTD SVG 1.1//EN"
 "http://www.w3.org/Graphics/SVG/1.1/DTD/svg11.dtd">
<!-- Generated by graphviz version 14.1.2 (0)
 -->
<!-- Pages: 1 -->
<svg width="822pt" height="672pt"
 viewBox="0.00 0.00 822.00 672.00" xmlns="http://www.w3.org/2000/svg" xmlns:xlink="http://www.w3.org/1999/xlink">
<g id="graph0" class="graph" transform="scale(1 1) rotate(0) translate(4 668)">
<polygon fill="white" stroke="none" points="-4,4 -4,-668 817.96,-668 817.96,4 -4,4"/>
<text xml:space="preserve" text-anchor="middle" x="406.98" y="-631.5" font-family="Times,serif" font-size="30.00">Dependencies</text>
<text xml:space="preserve" text-anchor="middle" x="406.98" y="-595.5" font-family="Times,serif" font-size="30.00"> </text>
<!-- :data:repository -->
<g id="node1" class="node">
<title>:data:repository</title>
<polygon fill="#b59aff" stroke="black" points="402.88,-584 272.88,-584 272.88,-548 402.88,-548 402.88,-584"/>
<text xml:space="preserve" text-anchor="middle" x="337.88" y="-561.33" font-family="Times,serif" font-size="14.00">:data:repository</text>
</g>
<!-- :shared:domain -->
<g id="node2" class="node">
<title>:shared:domain</title>
<ellipse fill="#b59aff" stroke="black" cx="321.88" cy="-18" rx="88.56" ry="18"/>
<text xml:space="preserve" text-anchor="middle" x="321.88" y="-13.32" font-family="Times,serif" font-size="14.00">:shared:domain</text>
</g>
<!-- :data:repository&#45;&gt;:shared:domain -->
<g id="edge1" class="edge">
<title>:data:repository&#45;&gt;:shared:domain</title>
<path fill="none" stroke="black" stroke-dasharray="1,5" d="M403.27,-555C413.01,-555 419.86,-555 419.86,-555 419.86,-555 419.86,-18 419.86,-18 419.86,-18 418.95,-18 418.95,-18"/>
<polygon fill="black" stroke="black" points="422.33,-14.5 412.33,-18 422.33,-21.5 422.33,-14.5"/>
</g>
<!-- :data:database -->
<g id="node3" class="node">
<title>:data:database</title>
<ellipse fill="#b59aff" stroke="black" cx="84.88" cy="-292" rx="84.88" ry="18"/>
<text xml:space="preserve" text-anchor="middle" x="84.88" y="-287.32" font-family="Times,serif" font-size="14.00">:data:database</text>
</g>
<!-- :data:repository&#45;&gt;:data:database -->
<g id="edge2" class="edge">
<title>:data:repository&#45;&gt;:data:database</title>
<path fill="none" stroke="black" stroke-dasharray="1,5" d="M272.64,-572C189.54,-572 56.59,-572 56.59,-572 56.59,-572 56.59,-320.61 56.59,-320.61"/>
<polygon fill="black" stroke="black" points="60.09,-320.61 56.59,-310.61 53.09,-320.61 60.09,-320.61"/>
</g>
<!-- :data:listenbrainz -->
<g id="node4" class="node">
<title>:data:listenbrainz</title>
<ellipse fill="#b59aff" stroke="black" cx="714.88" cy="-155" rx="99.08" ry="18"/>
<text xml:space="preserve" text-anchor="middle" x="714.88" y="-150.32" font-family="Times,serif" font-size="14.00">:data:listenbrainz</text>
</g>
<!-- :data:repository&#45;&gt;:data:listenbrainz -->
<g id="edge3" class="edge">
<title>:data:repository&#45;&gt;:data:listenbrainz</title>
<path fill="none" stroke="black" stroke-dasharray="1,5" d="M403.12,-577C511.02,-577 714.88,-577 714.88,-577 714.88,-577 714.88,-184.92 714.88,-184.92"/>
<polygon fill="black" stroke="black" points="718.38,-184.92 714.88,-174.92 711.38,-184.92 718.38,-184.92"/>
</g>
<!-- :data:musicbrainz -->
<g id="node5" class="node">
<title>:data:musicbrainz</title>
<ellipse fill="#b59aff" stroke="black" cx="200.88" cy="-155" rx="100.66" ry="18"/>
<text xml:space="preserve" text-anchor="middle" x="200.88" y="-150.32" font-family="Times,serif" font-size="14.00">:data:musicbrainz</text>
</g>
<!-- :data:repository&#45;&gt;:data:musicbrainz -->
<g id="edge4" class="edge">
<title>:data:repository&#45;&gt;:data:musicbrainz</title>
<path fill="none" stroke="black" stroke-dasharray="1,5" d="M272.74,-560C237.53,-560 201.19,-560 201.19,-560 201.19,-560 201.19,-184.97 201.19,-184.97"/>
<polygon fill="black" stroke="black" points="204.69,-184.97 201.19,-174.97 197.69,-184.97 204.69,-184.97"/>
</g>
<!-- :data:coverart -->
<g id="node6" class="node">
<title>:data:coverart</title>
<ellipse fill="#b59aff" stroke="black" cx="515.88" cy="-155" rx="81.72" ry="18"/>
<text xml:space="preserve" text-anchor="middle" x="515.88" y="-150.32" font-family="Times,serif" font-size="14.00">:data:coverart</text>
</g>
<!-- :data:repository&#45;&gt;:data:coverart -->
<g id="edge5" class="edge">
<title>:data:repository&#45;&gt;:data:coverart</title>
<path fill="none" stroke="black" stroke-dasharray="1,5" d="M403.1,-562C463.2,-562 543.12,-562 543.12,-562 543.12,-562 543.12,-183.74 543.12,-183.74"/>
<polygon fill="black" stroke="black" points="546.62,-183.74 543.12,-173.74 539.62,-183.74 546.62,-183.74"/>
</g>
<!-- :core:logging:api -->
<g id="node7" class="node">
<title>:core:logging:api</title>
<ellipse fill="#b59aff" stroke="black" cx="522.88" cy="-18" rx="94.88" ry="18"/>
<text xml:space="preserve" text-anchor="middle" x="522.88" y="-13.32" font-family="Times,serif" font-size="14.00">:core:logging:api</text>
</g>
<!-- :data:repository&#45;&gt;:core:logging:api -->
<g id="edge6" class="edge">
<title>:data:repository&#45;&gt;:core:logging:api</title>
<path fill="none" stroke="black" stroke-dasharray="1,5" d="M403.3,-570C482.87,-570 606.7,-570 606.7,-570 606.7,-570 606.7,-38.18 606.7,-38.18"/>
<polygon fill="black" stroke="black" points="610.2,-38.18 606.7,-28.18 603.2,-38.18 610.2,-38.18"/>
</g>
<!-- :test&#45;data -->
<g id="node8" class="node">
<title>:test&#45;data</title>
<ellipse fill="#b59aff" stroke="black" cx="337.88" cy="-429" rx="59.1" ry="18"/>
<text xml:space="preserve" text-anchor="middle" x="337.88" y="-424.32" font-family="Times,serif" font-size="14.00">:test&#45;data</text>
</g>
<!-- :data:repository&#45;&gt;:test&#45;data -->
<g id="edge7" class="edge">
<title>:data:repository&#45;&gt;:test&#45;data</title>
<path fill="none" stroke="#ff9ab1" stroke-dasharray="1,5" d="M337.88,-547.52C337.88,-547.52 337.88,-458.7 337.88,-458.7"/>
<polygon fill="#ff9ab1" stroke="#ff9ab1" points="341.38,-458.7 337.88,-448.7 334.38,-458.7 341.38,-458.7"/>
</g>
<!-- :data:database&#45;&gt;:shared:domain -->
<g id="edge8" class="edge">
<title>:data:database&#45;&gt;:shared:domain</title>
<path fill="none" stroke="black" stroke-dasharray="1,5" d="M50.11,-275.27C50.11,-215.78 50.11,-18 50.11,-18 50.11,-18 221.38,-18 221.38,-18"/>
<polygon fill="black" stroke="black" points="221.38,-21.5 231.38,-18 221.38,-14.5 221.38,-21.5"/>
</g>
<!-- :data:database&#45;&gt;:data:musicbrainz -->
<g id="edge9" class="edge">
<title>:data:database&#45;&gt;:data:musicbrainz</title>
<path fill="none" stroke="black" stroke-dasharray="1,5" d="M134.99,-277.08C134.99,-277.08 134.99,-180.19 134.99,-180.19"/>
<polygon fill="black" stroke="black" points="138.49,-180.19 134.99,-170.19 131.49,-180.19 138.49,-180.19"/>
</g>
<!-- :data:listenbrainz&#45;&gt;:shared:domain -->
<g id="edge10" class="edge">
<title>:data:listenbrainz&#45;&gt;:shared:domain</title>
<path fill="none" stroke="black" stroke-dasharray="1,5" d="M715.86,-136.78C715.86,-116.63 715.86,-87 715.86,-87 715.86,-87 383.22,-87 383.22,-87 383.22,-87 383.22,-42.82 383.22,-42.82"/>
<polygon fill="black" stroke="black" points="386.72,-42.82 383.22,-32.82 379.72,-42.82 386.72,-42.82"/>
</g>
<!-- :data:listenbrainz&#45;&gt;:core:logging:api -->
<g id="edge11" class="edge">
<title>:data:listenbrainz&#45;&gt;:core:logging:api</title>
<path fill="none" stroke="black" stroke-dasharray="1,5" d="M615.7,-155C612.87,-155 611.25,-155 611.25,-155 611.25,-155 611.25,-36.12 611.25,-36.12"/>
<polygon fill="black" stroke="black" points="614.75,-36.12 611.25,-26.12 607.75,-36.12 614.75,-36.12"/>
</g>
<!-- :data:musicbrainz&#45;&gt;:shared:domain -->
<g id="edge12" class="edge">
<title>:data:musicbrainz&#45;&gt;:shared:domain</title>
<path fill="none" stroke="black" stroke-dasharray="1,5" d="M267.43,-141.11C267.43,-141.11 267.43,-43.85 267.43,-43.85"/>
<polygon fill="black" stroke="black" points="270.93,-43.85 267.43,-33.85 263.93,-43.85 270.93,-43.85"/>
</g>
<!-- :data:musicbrainz&#45;&gt;:core:logging:api -->
<g id="edge13" class="edge">
<title>:data:musicbrainz&#45;&gt;:core:logging:api</title>
<path fill="none" stroke="black" stroke-dasharray="1,5" d="M296.44,-149C356.98,-149 423.93,-149 423.93,-149 423.93,-149 423.93,-9 423.93,-9 423.93,-9 428.31,-9 428.31,-9"/>
<polygon fill="black" stroke="black" points="428.31,-12.5 438.31,-9 428.31,-5.5 428.31,-12.5"/>
</g>
<!-- :data:coverart&#45;&gt;:shared:domain -->
<g id="edge14" class="edge">
<title>:data:coverart&#45;&gt;:shared:domain</title>
<path fill="none" stroke="black" stroke-dasharray="1,5" d="M438.28,-161C397.54,-161 355.99,-161 355.99,-161 355.99,-161 355.99,-46.48 355.99,-46.48"/>
<polygon fill="black" stroke="black" points="359.49,-46.48 355.99,-36.48 352.49,-46.48 359.49,-46.48"/>
</g>
<!-- :data:coverart&#45;&gt;:core:logging:api -->
<g id="edge15" class="edge">
<title>:data:coverart&#45;&gt;:core:logging:api</title>
<path fill="none" stroke="black" stroke-dasharray="1,5" d="M515.88,-136.52C515.88,-136.52 515.88,-47.7 515.88,-47.7"/>
<polygon fill="black" stroke="black" points="519.38,-47.7 515.88,-37.7 512.38,-47.7 519.38,-47.7"/>
</g>
<!-- :test&#45;data&#45;&gt;:shared:domain -->
<g id="edge16" class="edge">
<title>:test&#45;data&#45;&gt;:shared:domain</title>
<path fill="none" stroke="black" stroke-dasharray="1,5" d="M394.08,-423C406.37,-423 415.78,-423 415.78,-423 415.78,-423 415.78,-27 415.78,-27 415.78,-27 410.94,-27 410.94,-27"/>
<polygon fill="black" stroke="black" points="410.94,-23.5 400.94,-27 410.94,-30.5 410.94,-23.5"/>
</g>
<!-- :test&#45;data&#45;&gt;:data:database -->
<g id="edge17" class="edge">
<title>:test&#45;data&#45;&gt;:data:database</title>
<path fill="none" stroke="black" stroke-dasharray="1,5" d="M281.76,-435C215.2,-435 113.17,-435 113.17,-435 113.17,-435 113.17,-320.76 113.17,-320.76"/>
<polygon fill="black" stroke="black" points="116.67,-320.76 113.17,-310.76 109.67,-320.76 116.67,-320.76"/>
</g>
<!-- :test&#45;data&#45;&gt;:data:musicbrainz -->
<g id="edge18" class="edge">
<title>:test&#45;data&#45;&gt;:data:musicbrainz</title>
<path fill="none" stroke="black" stroke-dasharray="1,5" d="M281.55,-423C256.52,-423 232.62,-423 232.62,-423 232.62,-423 232.62,-183.69 232.62,-183.69"/>
<polygon fill="black" stroke="black" points="236.12,-183.69 232.62,-173.69 229.12,-183.69 236.12,-183.69"/>
</g>
<!-- :test&#45;data&#45;&gt;:data:coverart -->
<g id="edge19" class="edge">
<title>:test&#45;data&#45;&gt;:data:coverart</title>
<path fill="none" stroke="black" stroke-dasharray="1,5" d="M394.02,-435C436.88,-435 488.64,-435 488.64,-435 488.64,-435 488.64,-183.61 488.64,-183.61"/>
<polygon fill="black" stroke="black" points="492.14,-183.61 488.64,-173.61 485.14,-183.61 492.14,-183.61"/>
</g>
<!-- :data:spotify -->
<g id="node9" class="node">
<title>:data:spotify</title>
<ellipse fill="#b59aff" stroke="black" cx="337.88" cy="-292" rx="73.83" ry="18"/>
<text xml:space="preserve" text-anchor="middle" x="337.88" y="-287.32" font-family="Times,serif" font-size="14.00">:data:spotify</text>
</g>
<!-- :test&#45;data&#45;&gt;:data:spotify -->
<g id="edge20" class="edge">
<title>:test&#45;data&#45;&gt;:data:spotify</title>
<path fill="none" stroke="black" stroke-dasharray="1,5" d="M318.18,-411.65C318.18,-411.65 318.18,-321.16 318.18,-321.16"/>
<polygon fill="black" stroke="black" points="321.68,-321.16 318.18,-311.16 314.68,-321.16 321.68,-321.16"/>
</g>
<!-- :data:spotify&#45;&gt;:shared:domain -->
<g id="edge21" class="edge">
<title>:data:spotify&#45;&gt;:shared:domain</title>
<path fill="none" stroke="black" stroke-dasharray="1,5" d="M328.77,-274.02C328.77,-274.02 328.77,-47.92 328.77,-47.92"/>
<polygon fill="black" stroke="black" points="332.27,-47.92 328.77,-37.92 325.27,-47.92 332.27,-47.92"/>
</g>
<!-- :data:spotify&#45;&gt;:core:logging:api -->
<g id="edge22" class="edge">
<title>:data:spotify&#45;&gt;:core:logging:api</title>
<path fill="none" stroke="black" stroke-dasharray="1,5" d="M412.2,-292C490.36,-292 602.15,-292 602.15,-292 602.15,-292 602.15,-39.59 602.15,-39.59"/>
<polygon fill="black" stroke="black" points="605.65,-39.59 602.15,-29.59 598.65,-39.59 605.65,-39.59"/>
</g>
<!-- :data:spotify&#45;&gt;:test&#45;data -->
<g id="edge23" class="edge">
<title>:data:spotify&#45;&gt;:test&#45;data</title>
<path fill="none" stroke="#ff9ab1" stroke-dasharray="1,5" d="M357.58,-309.63C357.58,-309.63 357.58,-400.36 357.58,-400.36"/>
<polygon fill="#ff9ab1" stroke="#ff9ab1" points="354.08,-400.36 357.58,-410.36 361.08,-400.36 354.08,-400.36"/>
</g>
</g>
</svg>
