<?xml version="1.0" encoding="UTF-8" standalone="no"?>
<!DOCTYPE svg PUBLIC "-//W3C//DTD SVG 1.1//EN"
 "http://www.w3.org/Graphics/SVG/1.1/DTD/svg11.dtd">
<!-- Generated by graphviz version 2.43.0 (0)
 -->
<!-- Title: %3 Pages: 1 -->
<svg width="1076pt" height="666pt"
 viewBox="0.00 0.00 1076.04 666.00" xmlns="http://www.w3.org/2000/svg" xmlns:xlink="http://www.w3.org/1999/xlink">
<g id="graph0" class="graph" transform="scale(1 1) rotate(0) translate(4 662)">
<title>%3</title>
<polygon fill="white" stroke="transparent" points="-4,4 -4,-662 1072.04,-662 1072.04,4 -4,4"/>
<text text-anchor="middle" x="534.02" y="-630" font-family="Times,serif" font-size="30.00">Dependencies</text>
<text text-anchor="middle" x="534.02" y="-597" font-family="Times,serif" font-size="30.00"> </text>
<!-- :data:repository -->
<g id="node1" class="node">
<title>:data:repository</title>
<ellipse fill="#b59aff" stroke="black" cx="514.14" cy="-566" rx="85.29" ry="18"/>
<text text-anchor="middle" x="514.14" y="-562.3" font-family="Times,serif" font-size="14.00">:data:repository</text>
</g>
<!-- :core:models -->
<g id="node2" class="node">
<title>:core:models</title>
<ellipse fill="#b59aff" stroke="black" cx="822.14" cy="-18" rx="69.59" ry="18"/>
<text text-anchor="middle" x="822.14" y="-14.3" font-family="Times,serif" font-size="14.00">:core:models</text>
</g>
<!-- :data:repository&#45;&gt;:core:models -->
<g id="edge1" class="edge">
<title>:data:repository&#45;&gt;:core:models</title>
<path fill="none" stroke="black" stroke-dasharray="1,5" d="M451.05,-553.8C451.05,-474.01 451.05,-30 451.05,-30 451.05,-30 760.15,-30 760.15,-30"/>
<polygon fill="black" stroke="black" points="760.15,-33.5 770.15,-30 760.15,-26.5 760.15,-33.5"/>
</g>
<!-- :data:database -->
<g id="node3" class="node">
<title>:data:database</title>
<ellipse fill="#b59aff" stroke="black" cx="258.14" cy="-429" rx="79.09" ry="18"/>
<text text-anchor="middle" x="258.14" y="-425.3" font-family="Times,serif" font-size="14.00">:data:database</text>
</g>
<!-- :data:repository&#45;&gt;:data:database -->
<g id="edge2" class="edge">
<title>:data:repository&#45;&gt;:data:database</title>
<path fill="none" stroke="black" stroke-dasharray="1,5" d="M436.35,-558.58C436.35,-530.87 436.35,-435 436.35,-435 436.35,-435 342.94,-435 342.94,-435"/>
<polygon fill="black" stroke="black" points="342.94,-431.5 332.94,-435 342.94,-438.5 342.94,-431.5"/>
</g>
<!-- :data:musicbrainz -->
<g id="node4" class="node">
<title>:data:musicbrainz</title>
<ellipse fill="#b59aff" stroke="black" cx="320.14" cy="-292" rx="93.68" ry="18"/>
<text text-anchor="middle" x="320.14" y="-288.3" font-family="Times,serif" font-size="14.00">:data:musicbrainz</text>
</g>
<!-- :data:repository&#45;&gt;:data:musicbrainz -->
<g id="edge3" class="edge">
<title>:data:repository&#45;&gt;:data:musicbrainz</title>
<path fill="none" stroke="black" stroke-dasharray="1,5" d="M443.7,-555.59C443.7,-505.54 443.7,-292 443.7,-292 443.7,-292 423.79,-292 423.79,-292"/>
<polygon fill="black" stroke="black" points="423.79,-288.5 413.79,-292 423.79,-295.5 423.79,-288.5"/>
</g>
<!-- :data:common:network -->
<g id="node5" class="node">
<title>:data:common:network</title>
<ellipse fill="#b59aff" stroke="black" cx="587.14" cy="-292" rx="116.98" ry="18"/>
<text text-anchor="middle" x="587.14" y="-288.3" font-family="Times,serif" font-size="14.00">:data:common:network</text>
</g>
<!-- :data:repository&#45;&gt;:data:common:network -->
<g id="edge4" class="edge">
<title>:data:repository&#45;&gt;:data:common:network</title>
<path fill="none" stroke="black" stroke-dasharray="1,5" d="M534.72,-548.44C534.72,-548.44 534.72,-318.37 534.72,-318.37"/>
<polygon fill="black" stroke="black" points="538.22,-318.37 534.72,-308.37 531.22,-318.37 538.22,-318.37"/>
</g>
<!-- :core:logging:api -->
<g id="node6" class="node">
<title>:core:logging:api</title>
<ellipse fill="#b59aff" stroke="black" cx="554.14" cy="-155" rx="88.28" ry="18"/>
<text text-anchor="middle" x="554.14" y="-151.3" font-family="Times,serif" font-size="14.00">:core:logging:api</text>
</g>
<!-- :data:repository&#45;&gt;:core:logging:api -->
<g id="edge5" class="edge">
<title>:data:repository&#45;&gt;:core:logging:api</title>
<path fill="none" stroke="black" stroke-dasharray="1,5" d="M458.4,-552.2C458.4,-481.68 458.4,-165 458.4,-165 458.4,-165 470.61,-165 470.61,-165"/>
<polygon fill="black" stroke="black" points="470.61,-168.5 480.61,-165 470.61,-161.5 470.61,-168.5"/>
</g>
<!-- :shared:domain -->
<g id="node7" class="node">
<title>:shared:domain</title>
<ellipse fill="#b59aff" stroke="black" cx="952.14" cy="-155" rx="82.59" ry="18"/>
<text text-anchor="middle" x="952.14" y="-151.3" font-family="Times,serif" font-size="14.00">:shared:domain</text>
</g>
<!-- :data:repository&#45;&gt;:shared:domain -->
<g id="edge6" class="edge">
<title>:data:repository&#45;&gt;:shared:domain</title>
<path fill="none" stroke="black" stroke-dasharray="1,5" d="M594.57,-572C713.2,-572 921.22,-572 921.22,-572 921.22,-572 921.22,-181.86 921.22,-181.86"/>
<polygon fill="black" stroke="black" points="924.72,-181.86 921.22,-171.86 917.72,-181.86 924.72,-181.86"/>
</g>
<!-- :test&#45;data -->
<g id="node8" class="node">
<title>:test&#45;data</title>
<ellipse fill="#b59aff" stroke="black" cx="732.14" cy="-429" rx="55.49" ry="18"/>
<text text-anchor="middle" x="732.14" y="-425.3" font-family="Times,serif" font-size="14.00">:test&#45;data</text>
</g>
<!-- :data:repository&#45;&gt;:test&#45;data -->
<g id="edge7" class="edge">
<title>:data:repository&#45;&gt;:test&#45;data</title>
<path fill="none" stroke="#ff9ab1" stroke-dasharray="1,5" d="M594.7,-560C656.8,-560 732.14,-560 732.14,-560 732.14,-560 732.14,-457.21 732.14,-457.21"/>
<polygon fill="#ff9ab1" stroke="#ff9ab1" points="735.64,-457.21 732.14,-447.21 728.64,-457.22 735.64,-457.21"/>
</g>
<!-- :core:coroutines -->
<g id="node9" class="node">
<title>:core:coroutines</title>
<ellipse fill="#b59aff" stroke="black" cx="85.14" cy="-292" rx="85.29" ry="18"/>
<text text-anchor="middle" x="85.14" y="-288.3" font-family="Times,serif" font-size="14.00">:core:coroutines</text>
</g>
<!-- :data:repository&#45;&gt;:core:coroutines -->
<g id="edge8" class="edge">
<title>:data:repository&#45;&gt;:core:coroutines</title>
<path fill="none" stroke="#ff9ab1" stroke-dasharray="1,5" d="M428.87,-566C303.76,-566 85.14,-566 85.14,-566 85.14,-566 85.14,-320.4 85.14,-320.4"/>
<polygon fill="#ff9ab1" stroke="#ff9ab1" points="88.64,-320.4 85.14,-310.4 81.64,-320.4 88.64,-320.4"/>
</g>
<!-- :data:database&#45;&gt;:core:models -->
<g id="edge10" class="edge">
<title>:data:database&#45;&gt;:core:models</title>
<path fill="none" stroke="black" stroke-dasharray="1,5" d="M210.65,-414.4C210.65,-339.85 210.65,-5 210.65,-5 210.65,-5 763.9,-5 763.9,-5"/>
<polygon fill="black" stroke="black" points="763.9,-8.5 773.9,-5 763.9,-1.5 763.9,-8.5"/>
</g>
<!-- :data:database&#45;&gt;:data:musicbrainz -->
<g id="edge11" class="edge">
<title>:data:database&#45;&gt;:data:musicbrainz</title>
<path fill="none" stroke="black" stroke-dasharray="1,5" d="M281.99,-411.65C281.99,-411.65 281.99,-318.78 281.99,-318.78"/>
<polygon fill="black" stroke="black" points="285.49,-318.78 281.99,-308.78 278.49,-318.78 285.49,-318.78"/>
</g>
<!-- :data:database&#45;&gt;:core:coroutines -->
<g id="edge9" class="edge">
<title>:data:database&#45;&gt;:core:coroutines</title>
<path fill="none" stroke="black" stroke-dasharray="1,5" d="M194.75,-417.79C194.75,-385.07 194.75,-292 194.75,-292 194.75,-292 180.42,-292 180.42,-292"/>
<polygon fill="black" stroke="black" points="180.42,-288.5 170.42,-292 180.42,-295.5 180.42,-288.5"/>
</g>
<!-- :data:musicbrainz&#45;&gt;:core:models -->
<g id="edge13" class="edge">
<title>:data:musicbrainz&#45;&gt;:core:models</title>
<path fill="none" stroke="black" stroke-dasharray="1,5" d="M306.77,-274C306.77,-213.91 306.77,-24 306.77,-24 306.77,-24 746.35,-24 746.35,-24"/>
<polygon fill="black" stroke="black" points="746.35,-27.5 756.35,-24 746.35,-20.5 746.35,-27.5"/>
</g>
<!-- :data:musicbrainz&#45;&gt;:core:models -->
<g id="edge23" class="edge">
<title>:data:musicbrainz&#45;&gt;:core:models</title>
<path fill="none" stroke="black" stroke-dasharray="1,5" d="M280.03,-275.68C280.03,-216.69 280.03,-18 280.03,-18 280.03,-18 742.38,-18 742.38,-18"/>
<polygon fill="black" stroke="black" points="742.38,-21.5 752.38,-18 742.38,-14.5 742.38,-21.5"/>
</g>
<!-- :data:musicbrainz&#45;&gt;:core:models -->
<g id="edge26" class="edge">
<title>:data:musicbrainz&#45;&gt;:core:models</title>
<path fill="none" stroke="black" stroke-dasharray="1,5" d="M253.29,-279.24C253.29,-224.47 253.29,-12 253.29,-12 253.29,-12 746.33,-12 746.33,-12"/>
<polygon fill="black" stroke="black" points="746.33,-15.5 756.33,-12 746.33,-8.5 746.33,-15.5"/>
</g>
<!-- :data:musicbrainz&#45;&gt;:core:logging:api -->
<g id="edge12" class="edge">
<title>:data:musicbrainz&#45;&gt;:core:logging:api</title>
<path fill="none" stroke="black" stroke-dasharray="1,5" d="M386.99,-279.15C386.99,-245.61 386.99,-158 386.99,-158 386.99,-158 456.65,-158 456.65,-158"/>
<polygon fill="black" stroke="black" points="456.65,-161.5 466.65,-158 456.65,-154.5 456.65,-161.5"/>
</g>
<!-- :data:musicbrainz&#45;&gt;:core:logging:api -->
<g id="edge22" class="edge">
<title>:data:musicbrainz&#45;&gt;:core:logging:api</title>
<path fill="none" stroke="black" stroke-dasharray="1,5" d="M360.25,-275.55C360.25,-238.36 360.25,-151 360.25,-151 360.25,-151 457.69,-151 457.69,-151"/>
<polygon fill="black" stroke="black" points="457.69,-154.5 467.69,-151 457.69,-147.5 457.69,-154.5"/>
</g>
<!-- :data:musicbrainz&#45;&gt;:core:logging:api -->
<g id="edge25" class="edge">
<title>:data:musicbrainz&#45;&gt;:core:logging:api</title>
<path fill="none" stroke="black" stroke-dasharray="1,5" d="M333.51,-274.15C333.51,-234.78 333.51,-144 333.51,-144 333.51,-144 474.03,-144 474.03,-144"/>
<polygon fill="black" stroke="black" points="474.03,-147.5 484.03,-144 474.03,-140.5 474.03,-147.5"/>
</g>
<!-- :data:common:network&#45;&gt;:core:logging:api -->
<g id="edge14" class="edge">
<title>:data:common:network&#45;&gt;:core:logging:api</title>
<path fill="none" stroke="black" stroke-dasharray="1,5" d="M513.25,-277.85C513.25,-277.85 513.25,-180.96 513.25,-180.96"/>
<polygon fill="black" stroke="black" points="516.75,-180.96 513.25,-170.96 509.75,-180.96 516.75,-180.96"/>
</g>
<!-- :data:common:network&#45;&gt;:core:logging:api -->
<g id="edge24" class="edge">
<title>:data:common:network&#45;&gt;:core:logging:api</title>
<path fill="none" stroke="black" stroke-dasharray="1,5" d="M556.34,-274.37C556.34,-274.37 556.34,-183 556.34,-183"/>
<polygon fill="black" stroke="black" points="559.84,-183 556.34,-173 552.84,-183 559.84,-183"/>
</g>
<!-- :shared:domain&#45;&gt;:core:models -->
<g id="edge15" class="edge">
<title>:shared:domain&#45;&gt;:core:models</title>
<path fill="none" stroke="black" stroke-dasharray="1,5" d="M874.02,-149.11C874.02,-149.11 874.02,-40.28 874.02,-40.28"/>
<polygon fill="black" stroke="black" points="877.52,-40.28 874.02,-30.28 870.52,-40.28 877.52,-40.28"/>
</g>
<!-- :shared:domain&#45;&gt;:core:models -->
<g id="edge33" class="edge">
<title>:shared:domain&#45;&gt;:core:models</title>
<path fill="none" stroke="black" stroke-dasharray="1,5" d="M878.43,-146.84C878.43,-146.84 878.43,-38.88 878.43,-38.88"/>
<polygon fill="black" stroke="black" points="881.93,-38.88 878.43,-28.88 874.93,-38.88 881.93,-38.88"/>
</g>
<!-- :shared:domain&#45;&gt;:core:models -->
<g id="edge34" class="edge">
<title>:shared:domain&#45;&gt;:core:models</title>
<path fill="none" stroke="black" stroke-dasharray="1,5" d="M882.85,-145.15C882.85,-145.15 882.85,-37.04 882.85,-37.04"/>
<polygon fill="black" stroke="black" points="886.35,-37.04 882.85,-27.04 879.35,-37.04 886.35,-37.04"/>
</g>
<!-- :shared:domain&#45;&gt;:core:models -->
<g id="edge35" class="edge">
<title>:shared:domain&#45;&gt;:core:models</title>
<path fill="none" stroke="black" stroke-dasharray="1,5" d="M887.27,-143.79C887.27,-143.79 887.27,-34.53 887.27,-34.53"/>
<polygon fill="black" stroke="black" points="890.77,-34.53 887.27,-24.53 883.77,-34.53 890.77,-34.53"/>
</g>
<!-- :test&#45;data&#45;&gt;:core:models -->
<g id="edge16" class="edge">
<title>:test&#45;data&#45;&gt;:core:models</title>
<path fill="none" stroke="black" stroke-dasharray="1,5" d="M755.1,-412.38C755.1,-412.38 755.1,-33.02 755.1,-33.02"/>
<polygon fill="black" stroke="black" points="758.6,-33.02 755.1,-23.02 751.6,-33.02 758.6,-33.02"/>
</g>
<!-- :test&#45;data&#45;&gt;:data:musicbrainz -->
<g id="edge18" class="edge">
<title>:test&#45;data&#45;&gt;:data:musicbrainz</title>
<path fill="none" stroke="black" stroke-dasharray="1,5" d="M679.91,-423C580.88,-423 375.58,-423 375.58,-423 375.58,-423 375.58,-316.52 375.58,-316.52"/>
<polygon fill="black" stroke="black" points="379.08,-316.52 375.58,-306.52 372.08,-316.52 379.08,-316.52"/>
</g>
<!-- :test&#45;data&#45;&gt;:data:common:network -->
<g id="edge17" class="edge">
<title>:test&#45;data&#45;&gt;:data:common:network</title>
<path fill="none" stroke="black" stroke-dasharray="1,5" d="M690.51,-416.84C690.51,-416.84 690.51,-310.65 690.51,-310.65"/>
<polygon fill="black" stroke="black" points="694.01,-310.65 690.51,-300.65 687.01,-310.65 694.01,-310.65"/>
</g>
<!-- :test&#45;data&#45;&gt;:shared:domain -->
<g id="edge21" class="edge">
<title>:test&#45;data&#45;&gt;:shared:domain</title>
<path fill="none" stroke="black" stroke-dasharray="1,5" d="M757.6,-412.64C757.6,-354.45 757.6,-161 757.6,-161 757.6,-161 864.14,-161 864.14,-161"/>
<polygon fill="black" stroke="black" points="864.14,-164.5 874.14,-161 864.14,-157.5 864.14,-164.5"/>
</g>
<!-- :data:coverart -->
<g id="node10" class="node">
<title>:data:coverart</title>
<ellipse fill="#b59aff" stroke="black" cx="836.14" cy="-292" rx="76.09" ry="18"/>
<text text-anchor="middle" x="836.14" y="-288.3" font-family="Times,serif" font-size="14.00">:data:coverart</text>
</g>
<!-- :test&#45;data&#45;&gt;:data:coverart -->
<g id="edge19" class="edge">
<title>:test&#45;data&#45;&gt;:data:coverart</title>
<path fill="none" stroke="black" stroke-dasharray="1,5" d="M773.74,-416.84C773.74,-416.84 773.74,-312.42 773.74,-312.42"/>
<polygon fill="black" stroke="black" points="777.24,-312.42 773.74,-302.42 770.24,-312.42 777.24,-312.42"/>
</g>
<!-- :data:spotify -->
<g id="node11" class="node">
<title>:data:spotify</title>
<ellipse fill="#b59aff" stroke="black" cx="999.14" cy="-292" rx="68.79" ry="18"/>
<text text-anchor="middle" x="999.14" y="-288.3" font-family="Times,serif" font-size="14.00">:data:spotify</text>
</g>
<!-- :test&#45;data&#45;&gt;:data:spotify -->
<g id="edge20" class="edge">
<title>:test&#45;data&#45;&gt;:data:spotify</title>
<path fill="none" stroke="black" stroke-dasharray="1,5" d="M787.47,-429C865.67,-429 999.14,-429 999.14,-429 999.14,-429 999.14,-320.19 999.14,-320.19"/>
<polygon fill="black" stroke="black" points="1002.64,-320.19 999.14,-310.19 995.64,-320.19 1002.64,-320.19"/>
</g>
<!-- :data:coverart&#45;&gt;:core:models -->
<g id="edge28" class="edge">
<title>:data:coverart&#45;&gt;:core:models</title>
<path fill="none" stroke="black" stroke-dasharray="1,5" d="M833.1,-273.6C833.1,-273.6 833.1,-45.97 833.1,-45.97"/>
<polygon fill="black" stroke="black" points="836.6,-45.97 833.1,-35.97 829.6,-45.97 836.6,-45.97"/>
</g>
<!-- :data:coverart&#45;&gt;:core:logging:api -->
<g id="edge27" class="edge">
<title>:data:coverart&#45;&gt;:core:logging:api</title>
<path fill="none" stroke="black" stroke-dasharray="1,5" d="M796.6,-276.42C796.6,-239.36 796.6,-149 796.6,-149 796.6,-149 647.58,-149 647.58,-149"/>
<polygon fill="black" stroke="black" points="647.58,-145.5 637.58,-149 647.58,-152.5 647.58,-145.5"/>
</g>
<!-- :data:coverart&#45;&gt;:shared:domain -->
<g id="edge29" class="edge">
<title>:data:coverart&#45;&gt;:shared:domain</title>
<path fill="none" stroke="black" stroke-dasharray="1,5" d="M890.89,-279.36C890.89,-279.36 890.89,-177.22 890.89,-177.22"/>
<polygon fill="black" stroke="black" points="894.39,-177.22 890.89,-167.22 887.39,-177.22 894.39,-177.22"/>
</g>
<!-- :data:spotify&#45;&gt;:core:models -->
<g id="edge31" class="edge">
<title>:data:spotify&#45;&gt;:core:models</title>
<path fill="none" stroke="black" stroke-dasharray="1,5" d="M1051.36,-280.23C1051.36,-227.78 1051.36,-18 1051.36,-18 1051.36,-18 901.85,-18 901.85,-18"/>
<polygon fill="black" stroke="black" points="901.85,-14.5 891.85,-18 901.85,-21.5 901.85,-14.5"/>
</g>
<!-- :data:spotify&#45;&gt;:core:logging:api -->
<g id="edge30" class="edge">
<title>:data:spotify&#45;&gt;:core:logging:api</title>
<path fill="none" stroke="black" stroke-dasharray="1,5" d="M965.06,-276.34C965.06,-255.98 965.06,-223 965.06,-223 965.06,-223 599.44,-223 599.44,-223 599.44,-223 599.44,-180.77 599.44,-180.77"/>
<polygon fill="black" stroke="black" points="602.94,-180.77 599.44,-170.77 595.94,-180.77 602.94,-180.77"/>
</g>
<!-- :data:spotify&#45;&gt;:shared:domain -->
<g id="edge32" class="edge">
<title>:data:spotify&#45;&gt;:shared:domain</title>
<path fill="none" stroke="black" stroke-dasharray="1,5" d="M999.87,-273.81C999.87,-273.81 999.87,-179.9 999.87,-179.9"/>
<polygon fill="black" stroke="black" points="1003.37,-179.9 999.87,-169.9 996.37,-179.9 1003.37,-179.9"/>
</g>
</g>
</svg>
