<?xml version="1.0" encoding="UTF-8" standalone="no"?>
<!DOCTYPE svg PUBLIC "-//W3C//DTD SVG 1.1//EN"
 "http://www.w3.org/Graphics/SVG/1.1/DTD/svg11.dtd">
<!-- Generated by graphviz version 2.43.0 (0)
 -->
<!-- Title: %3 Pages: 1 -->
<svg width="1146pt" height="666pt"
 viewBox="0.00 0.00 1145.69 666.00" xmlns="http://www.w3.org/2000/svg" xmlns:xlink="http://www.w3.org/1999/xlink">
<g id="graph0" class="graph" transform="scale(1 1) rotate(0) translate(4 662)">
<title>%3</title>
<polygon fill="white" stroke="transparent" points="-4,4 -4,-662 1141.69,-662 1141.69,4 -4,4"/>
<text text-anchor="middle" x="568.84" y="-630" font-family="Times,serif" font-size="30.00">Dependencies</text>
<text text-anchor="middle" x="568.84" y="-597" font-family="Times,serif" font-size="30.00"> </text>
<!-- :data:repository -->
<g id="node1" class="node">
<title>:data:repository</title>
<polygon fill="#b59aff" stroke="black" points="579.64,-584 448.64,-584 448.64,-548 579.64,-548 579.64,-584"/>
<text text-anchor="middle" x="514.14" y="-562.3" font-family="Times,serif" font-size="14.00">:data:repository</text>
</g>
<!-- :core:models -->
<g id="node2" class="node">
<title>:core:models</title>
<ellipse fill="#b59aff" stroke="black" cx="888.14" cy="-18" rx="69.59" ry="18"/>
<text text-anchor="middle" x="888.14" y="-14.3" font-family="Times,serif" font-size="14.00">:core:models</text>
</g>
<!-- :data:repository&#45;&gt;:core:models -->
<g id="edge1" class="edge">
<title>:data:repository&#45;&gt;:core:models</title>
<path fill="none" stroke="black" stroke-dasharray="1,5" d="M580.03,-560C689.61,-560 897.41,-560 897.41,-560 897.41,-560 897.41,-46.03 897.41,-46.03"/>
<polygon fill="black" stroke="black" points="900.91,-46.03 897.41,-36.03 893.91,-46.03 900.91,-46.03"/>
</g>
<!-- :data:database -->
<g id="node3" class="node">
<title>:data:database</title>
<ellipse fill="#b59aff" stroke="black" cx="258.14" cy="-429" rx="79.09" ry="18"/>
<text text-anchor="middle" x="258.14" y="-425.3" font-family="Times,serif" font-size="14.00">:data:database</text>
</g>
<!-- :data:repository&#45;&gt;:data:database -->
<g id="edge2" class="edge">
<title>:data:repository&#45;&gt;:data:database</title>
<path fill="none" stroke="black" stroke-dasharray="1,5" d="M454.02,-547.93C454.02,-511.35 454.02,-432 454.02,-432 454.02,-432 346.4,-432 346.4,-432"/>
<polygon fill="black" stroke="black" points="346.4,-428.5 336.4,-432 346.4,-435.5 346.4,-428.5"/>
</g>
<!-- :data:musicbrainz -->
<g id="node4" class="node">
<title>:data:musicbrainz</title>
<ellipse fill="#b59aff" stroke="black" cx="320.14" cy="-292" rx="93.68" ry="18"/>
<text text-anchor="middle" x="320.14" y="-288.3" font-family="Times,serif" font-size="14.00">:data:musicbrainz</text>
</g>
<!-- :data:repository&#45;&gt;:data:musicbrainz -->
<g id="edge3" class="edge">
<title>:data:repository&#45;&gt;:data:musicbrainz</title>
<path fill="none" stroke="black" stroke-dasharray="1,5" d="M459.4,-547.6C459.4,-486.16 459.4,-292 459.4,-292 459.4,-292 423.8,-292 423.8,-292"/>
<polygon fill="black" stroke="black" points="423.8,-288.5 413.8,-292 423.8,-295.5 423.8,-288.5"/>
</g>
<!-- :data:common:network -->
<g id="node5" class="node">
<title>:data:common:network</title>
<ellipse fill="#b59aff" stroke="black" cx="587.14" cy="-292" rx="116.98" ry="18"/>
<text text-anchor="middle" x="587.14" y="-288.3" font-family="Times,serif" font-size="14.00">:data:common:network</text>
</g>
<!-- :data:repository&#45;&gt;:data:common:network -->
<g id="edge4" class="edge">
<title>:data:repository&#45;&gt;:data:common:network</title>
<path fill="none" stroke="black" stroke-dasharray="1,5" d="M506.65,-547.6C506.65,-547.6 506.65,-315.28 506.65,-315.28"/>
<polygon fill="black" stroke="black" points="510.15,-315.28 506.65,-305.28 503.15,-315.28 510.15,-315.28"/>
</g>
<!-- :core:logging:api -->
<g id="node6" class="node">
<title>:core:logging:api</title>
<ellipse fill="#b59aff" stroke="black" cx="587.14" cy="-155" rx="88.28" ry="18"/>
<text text-anchor="middle" x="587.14" y="-151.3" font-family="Times,serif" font-size="14.00">:core:logging:api</text>
</g>
<!-- :data:repository&#45;&gt;:core:logging:api -->
<g id="edge5" class="edge">
<title>:data:repository&#45;&gt;:core:logging:api</title>
<path fill="none" stroke="black" stroke-dasharray="1,5" d="M464.78,-547.81C464.78,-469.01 464.78,-161 464.78,-161 464.78,-161 493.49,-161 493.49,-161"/>
<polygon fill="black" stroke="black" points="493.49,-164.5 503.49,-161 493.49,-157.5 493.49,-164.5"/>
</g>
<!-- :shared:domain -->
<g id="node7" class="node">
<title>:shared:domain</title>
<ellipse fill="#b59aff" stroke="black" cx="1055.14" cy="-155" rx="82.59" ry="18"/>
<text text-anchor="middle" x="1055.14" y="-151.3" font-family="Times,serif" font-size="14.00">:shared:domain</text>
</g>
<!-- :data:repository&#45;&gt;:shared:domain -->
<g id="edge6" class="edge">
<title>:data:repository&#45;&gt;:shared:domain</title>
<path fill="none" stroke="black" stroke-dasharray="1,5" d="M579.82,-572C735.61,-572 1114.52,-572 1114.52,-572 1114.52,-572 1114.52,-177.94 1114.52,-177.94"/>
<polygon fill="black" stroke="black" points="1118.02,-177.94 1114.52,-167.94 1111.02,-177.94 1118.02,-177.94"/>
</g>
<!-- :test&#45;data -->
<g id="node8" class="node">
<title>:test&#45;data</title>
<ellipse fill="#b59aff" stroke="black" cx="791.14" cy="-429" rx="55.49" ry="18"/>
<text text-anchor="middle" x="791.14" y="-425.3" font-family="Times,serif" font-size="14.00">:test&#45;data</text>
</g>
<!-- :data:repository&#45;&gt;:test&#45;data -->
<g id="edge7" class="edge">
<title>:data:repository&#45;&gt;:test&#45;data</title>
<path fill="none" stroke="#ff9ab1" stroke-dasharray="1,5" d="M543.15,-547.8C543.15,-512.69 543.15,-439 543.15,-439 543.15,-439 735.08,-439 735.08,-439"/>
<polygon fill="#ff9ab1" stroke="#ff9ab1" points="735.08,-442.5 745.08,-439 735.08,-435.5 735.08,-442.5"/>
</g>
<!-- :core:coroutines -->
<g id="node9" class="node">
<title>:core:coroutines</title>
<ellipse fill="#b59aff" stroke="black" cx="85.14" cy="-292" rx="85.29" ry="18"/>
<text text-anchor="middle" x="85.14" y="-288.3" font-family="Times,serif" font-size="14.00">:core:coroutines</text>
</g>
<!-- :data:repository&#45;&gt;:core:coroutines -->
<g id="edge8" class="edge">
<title>:data:repository&#45;&gt;:core:coroutines</title>
<path fill="none" stroke="#ff9ab1" stroke-dasharray="1,5" d="M448.52,-566C328.34,-566 85.14,-566 85.14,-566 85.14,-566 85.14,-320.4 85.14,-320.4"/>
<polygon fill="#ff9ab1" stroke="#ff9ab1" points="88.64,-320.4 85.14,-310.4 81.64,-320.4 88.64,-320.4"/>
</g>
<!-- :data:database&#45;&gt;:core:models -->
<g id="edge10" class="edge">
<title>:data:database&#45;&gt;:core:models</title>
<path fill="none" stroke="black" stroke-dasharray="1,5" d="M210.65,-414.16C210.65,-339.87 210.65,-12 210.65,-12 210.65,-12 812.57,-12 812.57,-12"/>
<polygon fill="black" stroke="black" points="812.57,-15.5 822.57,-12 812.57,-8.5 812.57,-15.5"/>
</g>
<!-- :data:database&#45;&gt;:data:musicbrainz -->
<g id="edge11" class="edge">
<title>:data:database&#45;&gt;:data:musicbrainz</title>
<path fill="none" stroke="black" stroke-dasharray="1,5" d="M281.99,-411.65C281.99,-411.65 281.99,-318.78 281.99,-318.78"/>
<polygon fill="black" stroke="black" points="285.49,-318.78 281.99,-308.78 278.49,-318.78 285.49,-318.78"/>
</g>
<!-- :data:database&#45;&gt;:core:coroutines -->
<g id="edge9" class="edge">
<title>:data:database&#45;&gt;:core:coroutines</title>
<path fill="none" stroke="black" stroke-dasharray="1,5" d="M194.75,-417.79C194.75,-385.07 194.75,-292 194.75,-292 194.75,-292 180.42,-292 180.42,-292"/>
<polygon fill="black" stroke="black" points="180.42,-288.5 170.42,-292 180.42,-295.5 180.42,-288.5"/>
</g>
<!-- :data:musicbrainz&#45;&gt;:core:models -->
<g id="edge13" class="edge">
<title>:data:musicbrainz&#45;&gt;:core:models</title>
<path fill="none" stroke="black" stroke-dasharray="1,5" d="M288.95,-274.83C288.95,-215.68 288.95,-24 288.95,-24 288.95,-24 812.3,-24 812.3,-24"/>
<polygon fill="black" stroke="black" points="812.3,-27.5 822.3,-24 812.3,-20.5 812.3,-27.5"/>
</g>
<!-- :data:musicbrainz&#45;&gt;:core:logging:api -->
<g id="edge12" class="edge">
<title>:data:musicbrainz&#45;&gt;:core:logging:api</title>
<path fill="none" stroke="black" stroke-dasharray="1,5" d="M351.34,-274.75C351.34,-236.72 351.34,-149 351.34,-149 351.34,-149 493.68,-149 493.68,-149"/>
<polygon fill="black" stroke="black" points="493.68,-152.5 503.68,-149 493.68,-145.5 493.68,-152.5"/>
</g>
<!-- :data:common:network&#45;&gt;:core:logging:api -->
<g id="edge14" class="edge">
<title>:data:common:network&#45;&gt;:core:logging:api</title>
<path fill="none" stroke="black" stroke-dasharray="1,5" d="M587.14,-273.81C587.14,-273.81 587.14,-183.27 587.14,-183.27"/>
<polygon fill="black" stroke="black" points="590.64,-183.27 587.14,-173.27 583.64,-183.27 590.64,-183.27"/>
</g>
<!-- :shared:domain&#45;&gt;:core:models -->
<g id="edge15" class="edge">
<title>:shared:domain&#45;&gt;:core:models</title>
<path fill="none" stroke="black" stroke-dasharray="1,5" d="M983.5,-146C963.58,-146 947.29,-146 947.29,-146 947.29,-146 947.29,-37.62 947.29,-37.62"/>
<polygon fill="black" stroke="black" points="950.79,-37.62 947.29,-27.62 943.79,-37.62 950.79,-37.62"/>
</g>
<!-- :test&#45;data&#45;&gt;:core:models -->
<g id="edge16" class="edge">
<title>:test&#45;data&#45;&gt;:core:models</title>
<path fill="none" stroke="black" stroke-dasharray="1,5" d="M839.03,-420C859.48,-420 878.72,-420 878.72,-420 878.72,-420 878.72,-46.05 878.72,-46.05"/>
<polygon fill="black" stroke="black" points="882.22,-46.05 878.72,-36.05 875.22,-46.05 882.22,-46.05"/>
</g>
<!-- :test&#45;data&#45;&gt;:data:musicbrainz -->
<g id="edge18" class="edge">
<title>:test&#45;data&#45;&gt;:data:musicbrainz</title>
<path fill="none" stroke="black" stroke-dasharray="1,5" d="M737.24,-425C624.8,-425 375.58,-425 375.58,-425 375.58,-425 375.58,-316.74 375.58,-316.74"/>
<polygon fill="black" stroke="black" points="379.08,-316.74 375.58,-306.74 372.08,-316.74 379.08,-316.74"/>
</g>
<!-- :test&#45;data&#45;&gt;:data:common:network -->
<g id="edge17" class="edge">
<title>:test&#45;data&#45;&gt;:data:common:network</title>
<path fill="none" stroke="black" stroke-dasharray="1,5" d="M747.17,-418C703.14,-418 641.89,-418 641.89,-418 641.89,-418 641.89,-317.96 641.89,-317.96"/>
<polygon fill="black" stroke="black" points="645.39,-317.96 641.89,-307.96 638.39,-317.96 645.39,-317.96"/>
</g>
<!-- :test&#45;data&#45;&gt;:shared:domain -->
<g id="edge21" class="edge">
<title>:test&#45;data&#45;&gt;:shared:domain</title>
<path fill="none" stroke="black" stroke-dasharray="1,5" d="M839.04,-438C923.8,-438 1091.35,-438 1091.35,-438 1091.35,-438 1091.35,-181.44 1091.35,-181.44"/>
<polygon fill="black" stroke="black" points="1094.85,-181.44 1091.35,-171.44 1087.85,-181.44 1094.85,-181.44"/>
</g>
<!-- :data:coverart -->
<g id="node10" class="node">
<title>:data:coverart</title>
<ellipse fill="#b59aff" stroke="black" cx="992.14" cy="-292" rx="76.09" ry="18"/>
<text text-anchor="middle" x="992.14" y="-288.3" font-family="Times,serif" font-size="14.00">:data:coverart</text>
</g>
<!-- :test&#45;data&#45;&gt;:data:coverart -->
<g id="edge19" class="edge">
<title>:test&#45;data&#45;&gt;:data:coverart</title>
<path fill="none" stroke="black" stroke-dasharray="1,5" d="M846.6,-429C906.09,-429 992.14,-429 992.14,-429 992.14,-429 992.14,-320.19 992.14,-320.19"/>
<polygon fill="black" stroke="black" points="995.64,-320.19 992.14,-310.19 988.64,-320.19 995.64,-320.19"/>
</g>
<!-- :data:spotify -->
<g id="node11" class="node">
<title>:data:spotify</title>
<ellipse fill="#b59aff" stroke="black" cx="791.14" cy="-292" rx="68.79" ry="18"/>
<text text-anchor="middle" x="791.14" y="-288.3" font-family="Times,serif" font-size="14.00">:data:spotify</text>
</g>
<!-- :test&#45;data&#45;&gt;:data:spotify -->
<g id="edge20" class="edge">
<title>:test&#45;data&#45;&gt;:data:spotify</title>
<path fill="none" stroke="black" stroke-dasharray="1,5" d="M791.14,-410.81C791.14,-410.81 791.14,-320.27 791.14,-320.27"/>
<polygon fill="black" stroke="black" points="794.64,-320.27 791.14,-310.27 787.64,-320.27 794.64,-320.27"/>
</g>
<!-- :data:coverart&#45;&gt;:core:models -->
<g id="edge23" class="edge">
<title>:data:coverart&#45;&gt;:core:models</title>
<path fill="none" stroke="black" stroke-dasharray="1,5" d="M936.89,-279.51C936.89,-279.51 936.89,-40.88 936.89,-40.88"/>
<polygon fill="black" stroke="black" points="940.39,-40.88 936.89,-30.88 933.39,-40.88 940.39,-40.88"/>
</g>
<!-- :data:coverart&#45;&gt;:core:logging:api -->
<g id="edge22" class="edge">
<title>:data:coverart&#45;&gt;:core:logging:api</title>
<path fill="none" stroke="black" stroke-dasharray="1,5" d="M926.5,-282.58C926.5,-251.63 926.5,-155 926.5,-155 926.5,-155 685.86,-155 685.86,-155"/>
<polygon fill="black" stroke="black" points="685.86,-151.5 675.86,-155 685.86,-158.5 685.86,-151.5"/>
</g>
<!-- :data:coverart&#45;&gt;:shared:domain -->
<g id="edge24" class="edge">
<title>:data:coverart&#45;&gt;:shared:domain</title>
<path fill="none" stroke="black" stroke-dasharray="1,5" d="M1020.39,-275.2C1020.39,-275.2 1020.39,-181.51 1020.39,-181.51"/>
<polygon fill="black" stroke="black" points="1023.89,-181.51 1020.39,-171.51 1016.89,-181.51 1023.89,-181.51"/>
</g>
<!-- :data:spotify&#45;&gt;:core:models -->
<g id="edge26" class="edge">
<title>:data:spotify&#45;&gt;:core:models</title>
<path fill="none" stroke="black" stroke-dasharray="1,5" d="M839.32,-278.78C839.32,-278.78 839.32,-41.08 839.32,-41.08"/>
<polygon fill="black" stroke="black" points="842.82,-41.08 839.32,-31.08 835.82,-41.08 842.82,-41.08"/>
</g>
<!-- :data:spotify&#45;&gt;:core:logging:api -->
<g id="edge25" class="edge">
<title>:data:spotify&#45;&gt;:core:logging:api</title>
<path fill="none" stroke="black" stroke-dasharray="1,5" d="M770.42,-274.74C770.42,-239.8 770.42,-164 770.42,-164 770.42,-164 673.81,-164 673.81,-164"/>
<polygon fill="black" stroke="black" points="673.81,-160.5 663.81,-164 673.81,-167.5 673.81,-160.5"/>
</g>
</g>
</svg>
