<?xml version="1.0" encoding="UTF-8" standalone="no"?>
<!DOCTYPE svg PUBLIC "-//W3C//DTD SVG 1.1//EN"
 "http://www.w3.org/Graphics/SVG/1.1/DTD/svg11.dtd">
<!-- Generated by graphviz version 2.43.0 (0)
 -->
<!-- Title: %3 Pages: 1 -->
<svg width="1038pt" height="529pt"
 viewBox="0.00 0.00 1038.13 529.00" xmlns="http://www.w3.org/2000/svg" xmlns:xlink="http://www.w3.org/1999/xlink">
<g id="graph0" class="graph" transform="scale(1 1) rotate(0) translate(4 525)">
<title>%3</title>
<polygon fill="white" stroke="transparent" points="-4,4 -4,-525 1034.13,-525 1034.13,4 -4,4"/>
<text text-anchor="middle" x="515.07" y="-493" font-family="Times,serif" font-size="30.00">Dependencies</text>
<text text-anchor="middle" x="515.07" y="-460" font-family="Times,serif" font-size="30.00"> </text>
<!-- :data:repository -->
<g id="node1" class="node">
<title>:data:repository</title>
<polygon fill="#b59aff" stroke="black" points="385.64,-447 254.64,-447 254.64,-411 385.64,-411 385.64,-447"/>
<text text-anchor="middle" x="320.14" y="-425.3" font-family="Times,serif" font-size="14.00">:data:repository</text>
</g>
<!-- :shared:domain -->
<g id="node2" class="node">
<title>:shared:domain</title>
<ellipse fill="#b59aff" stroke="black" cx="381.14" cy="-18" rx="82.59" ry="18"/>
<text text-anchor="middle" x="381.14" y="-14.3" font-family="Times,serif" font-size="14.00">:shared:domain</text>
</g>
<!-- :data:repository&#45;&gt;:shared:domain -->
<g id="edge1" class="edge">
<title>:data:repository&#45;&gt;:shared:domain</title>
<path fill="none" stroke="black" stroke-dasharray="1,5" d="M385.87,-420C407.59,-420 426.32,-420 426.32,-420 426.32,-420 426.32,-43.27 426.32,-43.27"/>
<polygon fill="black" stroke="black" points="429.82,-43.27 426.32,-33.27 422.82,-43.27 429.82,-43.27"/>
</g>
<!-- :data:database -->
<g id="node3" class="node">
<title>:data:database</title>
<ellipse fill="#b59aff" stroke="black" cx="205.14" cy="-292" rx="79.09" ry="18"/>
<text text-anchor="middle" x="205.14" y="-288.3" font-family="Times,serif" font-size="14.00">:data:database</text>
</g>
<!-- :data:repository&#45;&gt;:data:database -->
<g id="edge2" class="edge">
<title>:data:repository&#45;&gt;:data:database</title>
<path fill="none" stroke="black" stroke-dasharray="1,5" d="M269.54,-410.81C269.54,-410.81 269.54,-312.74 269.54,-312.74"/>
<polygon fill="black" stroke="black" points="273.04,-312.74 269.54,-302.74 266.04,-312.74 273.04,-312.74"/>
</g>
<!-- :data:musicbrainz -->
<g id="node4" class="node">
<title>:data:musicbrainz</title>
<ellipse fill="#b59aff" stroke="black" cx="320.14" cy="-155" rx="93.68" ry="18"/>
<text text-anchor="middle" x="320.14" y="-151.3" font-family="Times,serif" font-size="14.00">:data:musicbrainz</text>
</g>
<!-- :data:repository&#45;&gt;:data:musicbrainz -->
<g id="edge3" class="edge">
<title>:data:repository&#45;&gt;:data:musicbrainz</title>
<path fill="none" stroke="black" stroke-dasharray="1,5" d="M318.17,-410.6C318.17,-410.6 318.17,-183.32 318.17,-183.32"/>
<polygon fill="black" stroke="black" points="321.67,-183.32 318.17,-173.32 314.67,-183.32 321.67,-183.32"/>
</g>
<!-- :data:common:network -->
<g id="node5" class="node">
<title>:data:common:network</title>
<ellipse fill="#b59aff" stroke="black" cx="913.14" cy="-155" rx="116.98" ry="18"/>
<text text-anchor="middle" x="913.14" y="-151.3" font-family="Times,serif" font-size="14.00">:data:common:network</text>
</g>
<!-- :data:repository&#45;&gt;:data:common:network -->
<g id="edge4" class="edge">
<title>:data:repository&#45;&gt;:data:common:network</title>
<path fill="none" stroke="black" stroke-dasharray="1,5" d="M385.69,-438C547.36,-438 952.14,-438 952.14,-438 952.14,-438 952.14,-182.28 952.14,-182.28"/>
<polygon fill="black" stroke="black" points="955.64,-182.28 952.14,-172.28 948.64,-182.28 955.64,-182.28"/>
</g>
<!-- :core:logging:api -->
<g id="node6" class="node">
<title>:core:logging:api</title>
<ellipse fill="#b59aff" stroke="black" cx="709.14" cy="-18" rx="88.28" ry="18"/>
<text text-anchor="middle" x="709.14" y="-14.3" font-family="Times,serif" font-size="14.00">:core:logging:api</text>
</g>
<!-- :data:repository&#45;&gt;:core:logging:api -->
<g id="edge5" class="edge">
<title>:data:repository&#45;&gt;:core:logging:api</title>
<path fill="none" stroke="black" stroke-dasharray="1,5" d="M385.92,-429C478.41,-429 635.73,-429 635.73,-429 635.73,-429 635.73,-38.16 635.73,-38.16"/>
<polygon fill="black" stroke="black" points="639.23,-38.16 635.73,-28.16 632.23,-38.16 639.23,-38.16"/>
</g>
<!-- :test&#45;data -->
<g id="node7" class="node">
<title>:test&#45;data</title>
<ellipse fill="#b59aff" stroke="black" cx="494.14" cy="-292" rx="55.49" ry="18"/>
<text text-anchor="middle" x="494.14" y="-288.3" font-family="Times,serif" font-size="14.00">:test&#45;data</text>
</g>
<!-- :data:repository&#45;&gt;:test&#45;data -->
<g id="edge6" class="edge">
<title>:data:repository&#45;&gt;:test&#45;data</title>
<path fill="none" stroke="#ff9ab1" stroke-dasharray="1,5" d="M351.91,-410.81C351.91,-373.54 351.91,-292 351.91,-292 351.91,-292 428.74,-292 428.74,-292"/>
<polygon fill="#ff9ab1" stroke="#ff9ab1" points="428.74,-295.5 438.74,-292 428.74,-288.5 428.74,-295.5"/>
</g>
<!-- :core:coroutines -->
<g id="node8" class="node">
<title>:core:coroutines</title>
<ellipse fill="#b59aff" stroke="black" cx="85.14" cy="-155" rx="85.29" ry="18"/>
<text text-anchor="middle" x="85.14" y="-151.3" font-family="Times,serif" font-size="14.00">:core:coroutines</text>
</g>
<!-- :data:repository&#45;&gt;:core:coroutines -->
<g id="edge7" class="edge">
<title>:data:repository&#45;&gt;:core:coroutines</title>
<path fill="none" stroke="#ff9ab1" stroke-dasharray="1,5" d="M254.57,-429C178.36,-429 62.92,-429 62.92,-429 62.92,-429 62.92,-182.56 62.92,-182.56"/>
<polygon fill="#ff9ab1" stroke="#ff9ab1" points="66.42,-182.56 62.92,-172.56 59.42,-182.56 66.42,-182.56"/>
</g>
<!-- :data:database&#45;&gt;:shared:domain -->
<g id="edge8" class="edge">
<title>:data:database&#45;&gt;:shared:domain</title>
<path fill="none" stroke="black" stroke-dasharray="1,5" d="M198.42,-274.02C198.42,-213.06 198.42,-18 198.42,-18 198.42,-18 288.33,-18 288.33,-18"/>
<polygon fill="black" stroke="black" points="288.33,-21.5 298.33,-18 288.33,-14.5 288.33,-21.5"/>
</g>
<!-- :data:database&#45;&gt;:data:musicbrainz -->
<g id="edge10" class="edge">
<title>:data:database&#45;&gt;:data:musicbrainz</title>
<path fill="none" stroke="black" stroke-dasharray="1,5" d="M255.49,-277.85C255.49,-277.85 255.49,-178.06 255.49,-178.06"/>
<polygon fill="black" stroke="black" points="258.99,-178.06 255.49,-168.06 251.99,-178.06 258.99,-178.06"/>
</g>
<!-- :data:database&#45;&gt;:core:coroutines -->
<g id="edge9" class="edge">
<title>:data:database&#45;&gt;:core:coroutines</title>
<path fill="none" stroke="black" stroke-dasharray="1,5" d="M148.07,-279.36C148.07,-279.36 148.07,-177.22 148.07,-177.22"/>
<polygon fill="black" stroke="black" points="151.57,-177.22 148.07,-167.22 144.57,-177.22 151.57,-177.22"/>
</g>
<!-- :data:musicbrainz&#45;&gt;:shared:domain -->
<g id="edge11" class="edge">
<title>:data:musicbrainz&#45;&gt;:shared:domain</title>
<path fill="none" stroke="black" stroke-dasharray="1,5" d="M336.98,-137.09C336.98,-137.09 336.98,-43.38 336.98,-43.38"/>
<polygon fill="black" stroke="black" points="340.48,-43.38 336.98,-33.38 333.48,-43.38 340.48,-43.38"/>
</g>
<!-- :data:musicbrainz&#45;&gt;:core:logging:api -->
<g id="edge12" class="edge">
<title>:data:musicbrainz&#45;&gt;:core:logging:api</title>
<path fill="none" stroke="black" stroke-dasharray="1,5" d="M375.36,-140.24C375.36,-124.86 375.36,-103 375.36,-103 375.36,-103 626.7,-103 626.7,-103 626.7,-103 626.7,-34.67 626.7,-34.67"/>
<polygon fill="black" stroke="black" points="630.2,-34.67 626.7,-24.67 623.2,-34.67 630.2,-34.67"/>
</g>
<!-- :data:common:network&#45;&gt;:core:logging:api -->
<g id="edge13" class="edge">
<title>:data:common:network&#45;&gt;:core:logging:api</title>
<path fill="none" stroke="black" stroke-dasharray="1,5" d="M795.76,-155C790.33,-155 787.09,-155 787.09,-155 787.09,-155 787.09,-36.57 787.09,-36.57"/>
<polygon fill="black" stroke="black" points="790.59,-36.57 787.09,-26.57 783.59,-36.57 790.59,-36.57"/>
</g>
<!-- :test&#45;data&#45;&gt;:shared:domain -->
<g id="edge14" class="edge">
<title>:test&#45;data&#45;&gt;:shared:domain</title>
<path fill="none" stroke="black" stroke-dasharray="1,5" d="M448.81,-281.59C448.81,-281.59 448.81,-38.42 448.81,-38.42"/>
<polygon fill="black" stroke="black" points="452.31,-38.42 448.81,-28.42 445.31,-38.42 452.31,-38.42"/>
</g>
<!-- :test&#45;data&#45;&gt;:data:musicbrainz -->
<g id="edge16" class="edge">
<title>:test&#45;data&#45;&gt;:data:musicbrainz</title>
<path fill="none" stroke="black" stroke-dasharray="1,5" d="M443.85,-284.2C443.85,-256 443.85,-161 443.85,-161 443.85,-161 418.4,-161 418.4,-161"/>
<polygon fill="black" stroke="black" points="418.4,-157.5 408.4,-161 418.4,-164.5 418.4,-157.5"/>
</g>
<!-- :test&#45;data&#45;&gt;:data:common:network -->
<g id="edge15" class="edge">
<title>:test&#45;data&#45;&gt;:data:common:network</title>
<path fill="none" stroke="black" stroke-dasharray="1,5" d="M546.58,-298C650.83,-298 874.15,-298 874.15,-298 874.15,-298 874.15,-182.25 874.15,-182.25"/>
<polygon fill="black" stroke="black" points="877.65,-182.25 874.15,-172.25 870.65,-182.25 877.65,-182.25"/>
</g>
<!-- :data:coverart -->
<g id="node9" class="node">
<title>:data:coverart</title>
<ellipse fill="#b59aff" stroke="black" cx="546.14" cy="-155" rx="76.09" ry="18"/>
<text text-anchor="middle" x="546.14" y="-151.3" font-family="Times,serif" font-size="14.00">:data:coverart</text>
</g>
<!-- :test&#45;data&#45;&gt;:data:coverart -->
<g id="edge17" class="edge">
<title>:test&#45;data&#45;&gt;:data:coverart</title>
<path fill="none" stroke="black" stroke-dasharray="1,5" d="M509.74,-274.65C509.74,-274.65 509.74,-180.94 509.74,-180.94"/>
<polygon fill="black" stroke="black" points="513.24,-180.94 509.74,-170.94 506.24,-180.94 513.24,-180.94"/>
</g>
<!-- :data:spotify -->
<g id="node10" class="node">
<title>:data:spotify</title>
<ellipse fill="#b59aff" stroke="black" cx="709.14" cy="-155" rx="68.79" ry="18"/>
<text text-anchor="middle" x="709.14" y="-151.3" font-family="Times,serif" font-size="14.00">:data:spotify</text>
</g>
<!-- :test&#45;data&#45;&gt;:data:spotify -->
<g id="edge18" class="edge">
<title>:test&#45;data&#45;&gt;:data:spotify</title>
<path fill="none" stroke="black" stroke-dasharray="1,5" d="M546.46,-286C610.1,-286 709.14,-286 709.14,-286 709.14,-286 709.14,-183.21 709.14,-183.21"/>
<polygon fill="black" stroke="black" points="712.64,-183.21 709.14,-173.21 705.64,-183.22 712.64,-183.21"/>
</g>
<!-- :data:coverart&#45;&gt;:shared:domain -->
<g id="edge19" class="edge">
<title>:data:coverart&#45;&gt;:shared:domain</title>
<path fill="none" stroke="black" stroke-dasharray="1,5" d="M474.27,-149C462.35,-149 453.77,-149 453.77,-149 453.77,-149 453.77,-36.6 453.77,-36.6"/>
<polygon fill="black" stroke="black" points="457.27,-36.6 453.77,-26.6 450.27,-36.6 457.27,-36.6"/>
</g>
<!-- :data:coverart&#45;&gt;:core:logging:api -->
<g id="edge20" class="edge">
<title>:data:coverart&#45;&gt;:core:logging:api</title>
<path fill="none" stroke="black" stroke-dasharray="1,5" d="M622.43,-155C627.84,-155 631.22,-155 631.22,-155 631.22,-155 631.22,-36.57 631.22,-36.57"/>
<polygon fill="black" stroke="black" points="634.72,-36.57 631.22,-26.57 627.72,-36.57 634.72,-36.57"/>
</g>
<!-- :data:spotify&#45;&gt;:shared:domain -->
<g id="edge21" class="edge">
<title>:data:spotify&#45;&gt;:shared:domain</title>
<path fill="none" stroke="black" stroke-dasharray="1,5" d="M686.18,-138.01C686.18,-112.95 686.18,-69 686.18,-69 686.18,-69 458.73,-69 458.73,-69 458.73,-69 458.73,-34.25 458.73,-34.25"/>
<polygon fill="black" stroke="black" points="462.23,-34.25 458.73,-24.25 455.23,-34.25 462.23,-34.25"/>
</g>
<!-- :data:spotify&#45;&gt;:core:logging:api -->
<g id="edge22" class="edge">
<title>:data:spotify&#45;&gt;:core:logging:api</title>
<path fill="none" stroke="black" stroke-dasharray="1,5" d="M732.11,-137.93C732.11,-137.93 732.11,-45.72 732.11,-45.72"/>
<polygon fill="black" stroke="black" points="735.61,-45.72 732.11,-35.72 728.61,-45.72 735.61,-45.72"/>
</g>
</g>
</svg>
