<?xml version="1.0" encoding="UTF-8" standalone="no"?>
<!DOCTYPE svg PUBLIC "-//W3C//DTD SVG 1.1//EN"
 "http://www.w3.org/Graphics/SVG/1.1/DTD/svg11.dtd">
<!-- Generated by graphviz version 2.43.0 (0)
 -->
<!-- Title: %3 Pages: 1 -->
<svg width="577pt" height="940pt"
 viewBox="0.00 0.00 576.69 940.00" xmlns="http://www.w3.org/2000/svg" xmlns:xlink="http://www.w3.org/1999/xlink">
<g id="graph0" class="graph" transform="scale(1 1) rotate(0) translate(4 936)">
<title>%3</title>
<polygon fill="white" stroke="transparent" points="-4,4 -4,-936 572.69,-936 572.69,4 -4,4"/>
<text text-anchor="middle" x="284.34" y="-904" font-family="Times,serif" font-size="30.00">Dependencies</text>
<text text-anchor="middle" x="284.34" y="-871" font-family="Times,serif" font-size="30.00"> </text>
<!-- :data:repository -->
<g id="node1" class="node">
<title>:data:repository</title>
<polygon fill="#b59aff" stroke="black" points="404.79,-858 273.79,-858 273.79,-822 404.79,-822 404.79,-858"/>
<text text-anchor="middle" x="339.29" y="-836.3" font-family="Times,serif" font-size="14.00">:data:repository</text>
</g>
<!-- :shared:domain -->
<g id="node2" class="node">
<title>:shared:domain</title>
<ellipse fill="#b59aff" stroke="black" cx="190.29" cy="-155" rx="82.59" ry="18"/>
<text text-anchor="middle" x="190.29" y="-151.3" font-family="Times,serif" font-size="14.00">:shared:domain</text>
</g>
<!-- :data:repository&#45;&gt;:shared:domain -->
<g id="edge1" class="edge">
<title>:data:repository&#45;&gt;:shared:domain</title>
<path fill="none" stroke="black" stroke-dasharray="1,5" d="M273.47,-849C174.8,-849 0,-849 0,-849 0,-849 0,-155 0,-155 0,-155 97.66,-155 97.66,-155"/>
<polygon fill="black" stroke="black" points="97.66,-158.5 107.66,-155 97.66,-151.5 97.66,-158.5"/>
</g>
<!-- :data:database -->
<g id="node3" class="node">
<title>:data:database</title>
<ellipse fill="#b59aff" stroke="black" cx="97.29" cy="-429" rx="79.09" ry="18"/>
<text text-anchor="middle" x="97.29" y="-425.3" font-family="Times,serif" font-size="14.00">:data:database</text>
</g>
<!-- :data:repository&#45;&gt;:data:database -->
<g id="edge2" class="edge">
<title>:data:repository&#45;&gt;:data:database</title>
<path fill="none" stroke="black" stroke-dasharray="1,5" d="M273.49,-840C201.82,-840 97.29,-840 97.29,-840 97.29,-840 97.29,-457.19 97.29,-457.19"/>
<polygon fill="black" stroke="black" points="100.79,-457.19 97.29,-447.19 93.79,-457.19 100.79,-457.19"/>
</g>
<!-- :data:musicbrainz -->
<g id="node4" class="node">
<title>:data:musicbrainz</title>
<ellipse fill="#b59aff" stroke="black" cx="440.29" cy="-292" rx="93.68" ry="18"/>
<text text-anchor="middle" x="440.29" y="-288.3" font-family="Times,serif" font-size="14.00">:data:musicbrainz</text>
</g>
<!-- :data:repository&#45;&gt;:data:musicbrainz -->
<g id="edge3" class="edge">
<title>:data:repository&#45;&gt;:data:musicbrainz</title>
<path fill="none" stroke="black" stroke-dasharray="1,5" d="M404.97,-831C439.45,-831 474.61,-831 474.61,-831 474.61,-831 474.61,-319.02 474.61,-319.02"/>
<polygon fill="black" stroke="black" points="478.11,-319.02 474.61,-309.02 471.11,-319.02 478.11,-319.02"/>
</g>
<!-- :data:coverart -->
<g id="node5" class="node">
<title>:data:coverart</title>
<ellipse fill="#b59aff" stroke="black" cx="339.29" cy="-703" rx="76.09" ry="18"/>
<text text-anchor="middle" x="339.29" y="-699.3" font-family="Times,serif" font-size="14.00">:data:coverart</text>
</g>
<!-- :data:repository&#45;&gt;:data:coverart -->
<g id="edge4" class="edge">
<title>:data:repository&#45;&gt;:data:coverart</title>
<path fill="none" stroke="black" stroke-dasharray="1,5" d="M339.29,-821.81C339.29,-821.81 339.29,-731.27 339.29,-731.27"/>
<polygon fill="black" stroke="black" points="342.79,-731.27 339.29,-721.27 335.79,-731.27 342.79,-731.27"/>
</g>
<!-- :core:logging:api -->
<g id="node6" class="node">
<title>:core:logging:api</title>
<ellipse fill="#b59aff" stroke="black" cx="462.29" cy="-155" rx="88.28" ry="18"/>
<text text-anchor="middle" x="462.29" y="-151.3" font-family="Times,serif" font-size="14.00">:core:logging:api</text>
</g>
<!-- :data:repository&#45;&gt;:core:logging:api -->
<g id="edge5" class="edge">
<title>:data:repository&#45;&gt;:core:logging:api</title>
<path fill="none" stroke="black" stroke-dasharray="1,5" d="M404.92,-840C464.23,-840 542.28,-840 542.28,-840 542.28,-840 542.28,-172.69 542.28,-172.69"/>
<polygon fill="black" stroke="black" points="545.78,-172.69 542.28,-162.69 538.78,-172.69 545.78,-172.69"/>
</g>
<!-- :test&#45;data -->
<g id="node7" class="node">
<title>:test&#45;data</title>
<ellipse fill="#b59aff" stroke="black" cx="235.29" cy="-566" rx="55.49" ry="18"/>
<text text-anchor="middle" x="235.29" y="-562.3" font-family="Times,serif" font-size="14.00">:test&#45;data</text>
</g>
<!-- :data:repository&#45;&gt;:test&#45;data -->
<g id="edge6" class="edge">
<title>:data:repository&#45;&gt;:test&#45;data</title>
<path fill="none" stroke="#ff9ab1" stroke-dasharray="1,5" d="M273.59,-831C246.64,-831 221.65,-831 221.65,-831 221.65,-831 221.65,-593.8 221.65,-593.8"/>
<polygon fill="#ff9ab1" stroke="#ff9ab1" points="225.15,-593.8 221.65,-583.8 218.15,-593.8 225.15,-593.8"/>
</g>
<!-- :core:coroutines -->
<g id="node8" class="node">
<title>:core:coroutines</title>
<ellipse fill="#b59aff" stroke="black" cx="462.29" cy="-18" rx="85.29" ry="18"/>
<text text-anchor="middle" x="462.29" y="-14.3" font-family="Times,serif" font-size="14.00">:core:coroutines</text>
</g>
<!-- :data:repository&#45;&gt;:core:coroutines -->
<g id="edge7" class="edge">
<title>:data:repository&#45;&gt;:core:coroutines</title>
<path fill="none" stroke="#ff9ab1" stroke-dasharray="1,5" d="M405.03,-849C472.81,-849 568.69,-849 568.69,-849 568.69,-849 568.69,-18 568.69,-18 568.69,-18 557.67,-18 557.67,-18"/>
<polygon fill="#ff9ab1" stroke="#ff9ab1" points="557.67,-14.5 547.67,-18 557.67,-21.5 557.67,-14.5"/>
</g>
<!-- :data:database&#45;&gt;:shared:domain -->
<g id="edge8" class="edge">
<title>:data:database&#45;&gt;:shared:domain</title>
<path fill="none" stroke="black" stroke-dasharray="1,5" d="M122.63,-411.86C122.63,-411.86 122.63,-175.47 122.63,-175.47"/>
<polygon fill="black" stroke="black" points="126.13,-175.47 122.63,-165.47 119.13,-175.47 126.13,-175.47"/>
</g>
<!-- :data:database&#45;&gt;:data:musicbrainz -->
<g id="edge10" class="edge">
<title>:data:database&#45;&gt;:data:musicbrainz</title>
<path fill="none" stroke="black" stroke-dasharray="1,5" d="M166.29,-420C245.27,-420 363.86,-420 363.86,-420 363.86,-420 363.86,-312.47 363.86,-312.47"/>
<polygon fill="black" stroke="black" points="367.36,-312.47 363.86,-302.47 360.36,-312.47 367.36,-312.47"/>
</g>
<!-- :data:database&#45;&gt;:core:coroutines -->
<g id="edge9" class="edge">
<title>:data:database&#45;&gt;:core:coroutines</title>
<path fill="none" stroke="black" stroke-dasharray="1,5" d="M62.88,-412.54C62.88,-334.88 62.88,-9 62.88,-9 62.88,-9 378.1,-9 378.1,-9"/>
<polygon fill="black" stroke="black" points="378.1,-12.5 388.1,-9 378.1,-5.5 378.1,-12.5"/>
</g>
<!-- :data:musicbrainz&#45;&gt;:shared:domain -->
<g id="edge11" class="edge">
<title>:data:musicbrainz&#45;&gt;:shared:domain</title>
<path fill="none" stroke="black" stroke-dasharray="1,5" d="M360.3,-282.31C360.3,-250.45 360.3,-151 360.3,-151 360.3,-151 280.82,-151 280.82,-151"/>
<polygon fill="black" stroke="black" points="280.82,-147.5 270.82,-151 280.82,-154.5 280.82,-147.5"/>
</g>
<!-- :data:musicbrainz&#45;&gt;:core:logging:api -->
<g id="edge12" class="edge">
<title>:data:musicbrainz&#45;&gt;:core:logging:api</title>
<path fill="none" stroke="black" stroke-dasharray="1,5" d="M453.89,-274.09C453.89,-274.09 453.89,-183.35 453.89,-183.35"/>
<polygon fill="black" stroke="black" points="457.39,-183.35 453.89,-173.35 450.39,-183.35 457.39,-183.35"/>
</g>
<!-- :data:coverart&#45;&gt;:shared:domain -->
<g id="edge13" class="edge">
<title>:data:coverart&#45;&gt;:shared:domain</title>
<path fill="none" stroke="black" stroke-dasharray="1,5" d="M318.62,-685.41C318.62,-592.68 318.62,-165 318.62,-165 318.62,-165 268.96,-165 268.96,-165"/>
<polygon fill="black" stroke="black" points="268.96,-161.5 258.96,-165 268.96,-168.5 268.96,-161.5"/>
</g>
<!-- :data:coverart&#45;&gt;:data:database -->
<g id="edge18" class="edge">
<title>:data:coverart&#45;&gt;:data:database</title>
<path fill="none" stroke="#ff9ab1" stroke-dasharray="1,5" d="M309.26,-686.27C309.26,-626.78 309.26,-429 309.26,-429 309.26,-429 186.82,-429 186.82,-429"/>
<polygon fill="#ff9ab1" stroke="#ff9ab1" points="186.82,-425.5 176.82,-429 186.82,-432.5 186.82,-425.5"/>
</g>
<!-- :data:coverart&#45;&gt;:data:musicbrainz -->
<g id="edge17" class="edge">
<title>:data:coverart&#45;&gt;:data:musicbrainz</title>
<path fill="none" stroke="#ff9ab1" stroke-dasharray="1,5" d="M398.18,-691.58C398.18,-691.58 398.18,-318.23 398.18,-318.23"/>
<polygon fill="#ff9ab1" stroke="#ff9ab1" points="401.68,-318.23 398.18,-308.23 394.68,-318.23 401.68,-318.23"/>
</g>
<!-- :data:coverart&#45;&gt;:core:logging:api -->
<g id="edge14" class="edge">
<title>:data:coverart&#45;&gt;:core:logging:api</title>
<path fill="none" stroke="black" stroke-dasharray="1,5" d="M337.34,-684.87C337.34,-590.3 337.34,-158 337.34,-158 337.34,-158 364.83,-158 364.83,-158"/>
<polygon fill="black" stroke="black" points="364.83,-161.5 374.83,-158 364.83,-154.5 364.83,-161.5"/>
</g>
<!-- :data:coverart&#45;&gt;:test&#45;data -->
<g id="edge16" class="edge">
<title>:data:coverart&#45;&gt;:test&#45;data</title>
<path fill="none" stroke="#ff9ab1" stroke-dasharray="1,5" d="M272.35,-694.43C272.35,-694.43 272.35,-589.64 272.35,-589.64"/>
<polygon fill="#ff9ab1" stroke="#ff9ab1" points="275.85,-589.64 272.35,-579.64 268.85,-589.64 275.85,-589.64"/>
</g>
<!-- :data:coverart&#45;&gt;:core:coroutines -->
<g id="edge15" class="edge">
<title>:data:coverart&#45;&gt;:core:coroutines</title>
<path fill="none" stroke="black" stroke-dasharray="1,5" d="M327.98,-684.92C327.98,-577.42 327.98,-27 327.98,-27 327.98,-27 378.46,-27 378.46,-27"/>
<polygon fill="black" stroke="black" points="378.46,-30.5 388.46,-27 378.46,-23.5 378.46,-30.5"/>
</g>
<!-- :core:logging:api&#45;&gt;:core:coroutines -->
<g id="edge19" class="edge">
<title>:core:logging:api&#45;&gt;:core:coroutines</title>
<path fill="none" stroke="black" d="M462.29,-136.81C462.29,-136.81 462.29,-46.27 462.29,-46.27"/>
<polygon fill="black" stroke="black" points="465.79,-46.27 462.29,-36.27 458.79,-46.27 465.79,-46.27"/>
</g>
<!-- :test&#45;data&#45;&gt;:shared:domain -->
<g id="edge20" class="edge">
<title>:test&#45;data&#45;&gt;:shared:domain</title>
<path fill="none" stroke="black" stroke-dasharray="1,5" d="M235.12,-547.72C235.12,-497.3 235.12,-360 235.12,-360 235.12,-360 137.52,-360 137.52,-360 137.52,-360 137.52,-179.09 137.52,-179.09"/>
<polygon fill="black" stroke="black" points="141.02,-179.09 137.52,-169.09 134.02,-179.09 141.02,-179.09"/>
</g>
<!-- :test&#45;data&#45;&gt;:data:database -->
<g id="edge22" class="edge">
<title>:test&#45;data&#45;&gt;:data:database</title>
<path fill="none" stroke="black" stroke-dasharray="1,5" d="M207.58,-550.3C207.58,-516.12 207.58,-438 207.58,-438 207.58,-438 176.2,-438 176.2,-438"/>
<polygon fill="black" stroke="black" points="176.2,-434.5 166.2,-438 176.2,-441.5 176.2,-434.5"/>
</g>
<!-- :test&#45;data&#45;&gt;:data:musicbrainz -->
<g id="edge23" class="edge">
<title>:test&#45;data&#45;&gt;:data:musicbrainz</title>
<path fill="none" stroke="black" stroke-dasharray="1,5" d="M287.49,-560C329.31,-560 381.02,-560 381.02,-560 381.02,-560 381.02,-316.03 381.02,-316.03"/>
<polygon fill="black" stroke="black" points="384.52,-316.03 381.02,-306.03 377.52,-316.03 384.52,-316.03"/>
</g>
<!-- :test&#45;data&#45;&gt;:data:coverart -->
<g id="edge24" class="edge">
<title>:test&#45;data&#45;&gt;:data:coverart</title>
<path fill="none" stroke="black" stroke-dasharray="1,5" d="M281.44,-576.3C281.44,-576.3 281.44,-681.04 281.44,-681.04"/>
<polygon fill="black" stroke="black" points="277.94,-681.04 281.44,-691.04 284.94,-681.04 277.94,-681.04"/>
</g>
<!-- :test&#45;data&#45;&gt;:core:coroutines -->
<g id="edge21" class="edge">
<title>:test&#45;data&#45;&gt;:core:coroutines</title>
<path fill="none" stroke="black" stroke-dasharray="1,5" d="M287.44,-572C294.79,-572 299.9,-572 299.9,-572 299.9,-572 299.9,-18 299.9,-18 299.9,-18 366.82,-18 366.82,-18"/>
<polygon fill="black" stroke="black" points="366.82,-21.5 376.82,-18 366.82,-14.5 366.82,-21.5"/>
</g>
<!-- :data:spotify -->
<g id="node9" class="node">
<title>:data:spotify</title>
<ellipse fill="#b59aff" stroke="black" cx="221.29" cy="-292" rx="68.79" ry="18"/>
<text text-anchor="middle" x="221.29" y="-288.3" font-family="Times,serif" font-size="14.00">:data:spotify</text>
</g>
<!-- :test&#45;data&#45;&gt;:data:spotify -->
<g id="edge25" class="edge">
<title>:test&#45;data&#45;&gt;:data:spotify</title>
<path fill="none" stroke="black" stroke-dasharray="1,5" d="M262.65,-550.08C262.65,-550.08 262.65,-316.61 262.65,-316.61"/>
<polygon fill="black" stroke="black" points="266.15,-316.61 262.65,-306.61 259.15,-316.61 266.15,-316.61"/>
</g>
<!-- :data:spotify&#45;&gt;:shared:domain -->
<g id="edge26" class="edge">
<title>:data:spotify&#45;&gt;:shared:domain</title>
<path fill="none" stroke="black" stroke-dasharray="1,5" d="M212.62,-274.09C212.62,-274.09 212.62,-182.48 212.62,-182.48"/>
<polygon fill="black" stroke="black" points="216.12,-182.48 212.62,-172.48 209.12,-182.48 216.12,-182.48"/>
</g>
<!-- :data:spotify&#45;&gt;:core:logging:api -->
<g id="edge27" class="edge">
<title>:data:spotify&#45;&gt;:core:logging:api</title>
<path fill="none" stroke="black" stroke-dasharray="1,5" d="M281.51,-283.19C281.51,-251.32 281.51,-144 281.51,-144 281.51,-144 382.14,-144 382.14,-144"/>
<polygon fill="black" stroke="black" points="382.14,-147.5 392.14,-144 382.14,-140.5 382.14,-147.5"/>
</g>
</g>
</svg>
