<?xml version="1.0" encoding="UTF-8" standalone="no"?>
<!DOCTYPE svg PUBLIC "-//W3C//DTD SVG 1.1//EN"
 "http://www.w3.org/Graphics/SVG/1.1/DTD/svg11.dtd">
<!-- Generated by graphviz version 2.43.0 (0)
 -->
<!-- Title: %3 Pages: 1 -->
<svg width="748pt" height="666pt"
 viewBox="0.00 0.00 747.58 666.00" xmlns="http://www.w3.org/2000/svg" xmlns:xlink="http://www.w3.org/1999/xlink">
<g id="graph0" class="graph" transform="scale(1 1) rotate(0) translate(4 662)">
<title>%3</title>
<polygon fill="white" stroke="transparent" points="-4,4 -4,-662 743.58,-662 743.58,4 -4,4"/>
<text text-anchor="middle" x="369.79" y="-630" font-family="Times,serif" font-size="30.00">Dependencies</text>
<text text-anchor="middle" x="369.79" y="-597" font-family="Times,serif" font-size="30.00"> </text>
<!-- :data:repository -->
<g id="node1" class="node">
<title>:data:repository</title>
<polygon fill="#b59aff" stroke="black" points="383.79,-584 252.79,-584 252.79,-548 383.79,-548 383.79,-584"/>
<text text-anchor="middle" x="318.29" y="-562.3" font-family="Times,serif" font-size="14.00">:data:repository</text>
</g>
<!-- :shared:domain -->
<g id="node2" class="node">
<title>:shared:domain</title>
<ellipse fill="#b59aff" stroke="black" cx="249.29" cy="-18" rx="82.59" ry="18"/>
<text text-anchor="middle" x="249.29" y="-14.3" font-family="Times,serif" font-size="14.00">:shared:domain</text>
</g>
<!-- :data:repository&#45;&gt;:shared:domain -->
<g id="edge1" class="edge">
<title>:data:repository&#45;&gt;:shared:domain</title>
<path fill="none" stroke="black" stroke-dasharray="1,5" d="M383.8,-557C449.7,-557 541.64,-557 541.64,-557 541.64,-557 541.64,-20 541.64,-20 541.64,-20 341.51,-20 341.51,-20"/>
<polygon fill="black" stroke="black" points="341.51,-16.5 331.51,-20 341.51,-23.5 341.51,-16.5"/>
</g>
<!-- :data:database -->
<g id="node3" class="node">
<title>:data:database</title>
<ellipse fill="#b59aff" stroke="black" cx="97.29" cy="-292" rx="79.09" ry="18"/>
<text text-anchor="middle" x="97.29" y="-288.3" font-family="Times,serif" font-size="14.00">:data:database</text>
</g>
<!-- :data:repository&#45;&gt;:data:database -->
<g id="edge2" class="edge">
<title>:data:repository&#45;&gt;:data:database</title>
<path fill="none" stroke="black" stroke-dasharray="1,5" d="M307.99,-547.63C307.99,-485.34 307.99,-286 307.99,-286 307.99,-286 182.17,-286 182.17,-286"/>
<polygon fill="black" stroke="black" points="182.17,-282.5 172.17,-286 182.17,-289.5 182.17,-282.5"/>
</g>
<!-- :data:listenbrainz -->
<g id="node4" class="node">
<title>:data:listenbrainz</title>
<ellipse fill="#b59aff" stroke="black" cx="647.29" cy="-155" rx="92.08" ry="18"/>
<text text-anchor="middle" x="647.29" y="-151.3" font-family="Times,serif" font-size="14.00">:data:listenbrainz</text>
</g>
<!-- :data:repository&#45;&gt;:data:listenbrainz -->
<g id="edge3" class="edge">
<title>:data:repository&#45;&gt;:data:listenbrainz</title>
<path fill="none" stroke="black" stroke-dasharray="1,5" d="M384.08,-575C480.09,-575 647.29,-575 647.29,-575 647.29,-575 647.29,-183.05 647.29,-183.05"/>
<polygon fill="black" stroke="black" points="650.79,-183.05 647.29,-173.05 643.79,-183.05 650.79,-183.05"/>
</g>
<!-- :data:musicbrainz -->
<g id="node5" class="node">
<title>:data:musicbrainz</title>
<ellipse fill="#b59aff" stroke="black" cx="249.29" cy="-155" rx="93.68" ry="18"/>
<text text-anchor="middle" x="249.29" y="-151.3" font-family="Times,serif" font-size="14.00">:data:musicbrainz</text>
</g>
<!-- :data:repository&#45;&gt;:data:musicbrainz -->
<g id="edge4" class="edge">
<title>:data:repository&#45;&gt;:data:musicbrainz</title>
<path fill="none" stroke="black" stroke-dasharray="1,5" d="M325.44,-547.81C325.44,-547.81 325.44,-175.53 325.44,-175.53"/>
<polygon fill="black" stroke="black" points="328.94,-175.53 325.44,-165.53 321.94,-175.53 328.94,-175.53"/>
</g>
<!-- :data:coverart -->
<g id="node6" class="node">
<title>:data:coverart</title>
<ellipse fill="#b59aff" stroke="black" cx="422.29" cy="-292" rx="76.09" ry="18"/>
<text text-anchor="middle" x="422.29" y="-288.3" font-family="Times,serif" font-size="14.00">:data:coverart</text>
</g>
<!-- :data:repository&#45;&gt;:data:coverart -->
<g id="edge5" class="edge">
<title>:data:repository&#45;&gt;:data:coverart</title>
<path fill="none" stroke="black" stroke-dasharray="1,5" d="M371.28,-547.6C371.28,-547.6 371.28,-315.6 371.28,-315.6"/>
<polygon fill="black" stroke="black" points="374.78,-315.6 371.28,-305.6 367.78,-315.6 374.78,-315.6"/>
</g>
<!-- :core:logging:api -->
<g id="node7" class="node">
<title>:core:logging:api</title>
<ellipse fill="#b59aff" stroke="black" cx="647.29" cy="-18" rx="88.28" ry="18"/>
<text text-anchor="middle" x="647.29" y="-14.3" font-family="Times,serif" font-size="14.00">:core:logging:api</text>
</g>
<!-- :data:repository&#45;&gt;:core:logging:api -->
<g id="edge6" class="edge">
<title>:data:repository&#45;&gt;:core:logging:api</title>
<path fill="none" stroke="black" stroke-dasharray="1,5" d="M383.88,-566C451.17,-566 546.09,-566 546.09,-566 546.09,-566 546.09,-32 546.09,-32 546.09,-32 581.66,-32 581.66,-32"/>
<polygon fill="black" stroke="black" points="581.66,-35.5 591.66,-32 581.66,-28.5 581.66,-35.5"/>
</g>
<!-- :test&#45;data -->
<g id="node8" class="node">
<title>:test&#45;data</title>
<ellipse fill="#b59aff" stroke="black" cx="235.29" cy="-429" rx="55.49" ry="18"/>
<text text-anchor="middle" x="235.29" y="-425.3" font-family="Times,serif" font-size="14.00">:test&#45;data</text>
</g>
<!-- :data:repository&#45;&gt;:test&#45;data -->
<g id="edge7" class="edge">
<title>:data:repository&#45;&gt;:test&#45;data</title>
<path fill="none" stroke="#ff9ab1" stroke-dasharray="1,5" d="M271.67,-547.81C271.67,-547.81 271.67,-452.71 271.67,-452.71"/>
<polygon fill="#ff9ab1" stroke="#ff9ab1" points="275.17,-452.71 271.67,-442.71 268.17,-452.71 275.17,-452.71"/>
</g>
<!-- :data:database&#45;&gt;:shared:domain -->
<g id="edge8" class="edge">
<title>:data:database&#45;&gt;:shared:domain</title>
<path fill="none" stroke="black" stroke-dasharray="1,5" d="M86.85,-274C86.85,-213.91 86.85,-24 86.85,-24 86.85,-24 161.4,-24 161.4,-24"/>
<polygon fill="black" stroke="black" points="161.4,-27.5 171.4,-24 161.4,-20.5 161.4,-27.5"/>
</g>
<!-- :data:database&#45;&gt;:data:musicbrainz -->
<g id="edge9" class="edge">
<title>:data:database&#45;&gt;:data:musicbrainz</title>
<path fill="none" stroke="black" stroke-dasharray="1,5" d="M166.14,-283.01C166.14,-283.01 166.14,-173.49 166.14,-173.49"/>
<polygon fill="black" stroke="black" points="169.64,-173.49 166.14,-163.49 162.64,-173.49 169.64,-173.49"/>
</g>
<!-- :data:listenbrainz&#45;&gt;:shared:domain -->
<g id="edge10" class="edge">
<title>:data:listenbrainz&#45;&gt;:shared:domain</title>
<path fill="none" stroke="black" stroke-dasharray="1,5" d="M554.96,-155C552.16,-155 550.55,-155 550.55,-155 550.55,-155 550.55,-16 550.55,-16 550.55,-16 341.61,-16 341.61,-16"/>
<polygon fill="black" stroke="black" points="341.61,-12.5 331.61,-16 341.61,-19.5 341.61,-12.5"/>
</g>
<!-- :data:listenbrainz&#45;&gt;:core:logging:api -->
<g id="edge11" class="edge">
<title>:data:listenbrainz&#45;&gt;:core:logging:api</title>
<path fill="none" stroke="black" stroke-dasharray="1,5" d="M647.29,-136.81C647.29,-136.81 647.29,-46.27 647.29,-46.27"/>
<polygon fill="black" stroke="black" points="650.79,-46.27 647.29,-36.27 643.79,-46.27 650.79,-46.27"/>
</g>
<!-- :data:musicbrainz&#45;&gt;:shared:domain -->
<g id="edge12" class="edge">
<title>:data:musicbrainz&#45;&gt;:shared:domain</title>
<path fill="none" stroke="black" stroke-dasharray="1,5" d="M249.29,-136.81C249.29,-136.81 249.29,-46.27 249.29,-46.27"/>
<polygon fill="black" stroke="black" points="252.79,-46.27 249.29,-36.27 245.79,-46.27 252.79,-46.27"/>
</g>
<!-- :data:musicbrainz&#45;&gt;:core:logging:api -->
<g id="edge13" class="edge">
<title>:data:musicbrainz&#45;&gt;:core:logging:api</title>
<path fill="none" stroke="black" stroke-dasharray="1,5" d="M337.36,-148.89C337.36,-120.64 337.36,-4 337.36,-4 337.36,-4 581.53,-4 581.53,-4"/>
<polygon fill="black" stroke="black" points="581.53,-7.5 591.53,-4 581.53,-0.5 581.53,-7.5"/>
</g>
<!-- :data:coverart&#45;&gt;:shared:domain -->
<g id="edge14" class="edge">
<title>:data:coverart&#45;&gt;:shared:domain</title>
<path fill="none" stroke="black" stroke-dasharray="1,5" d="M363.97,-280.32C363.97,-229.22 363.97,-28 363.97,-28 363.97,-28 327.98,-28 327.98,-28"/>
<polygon fill="black" stroke="black" points="327.98,-24.5 317.98,-28 327.98,-31.5 327.98,-24.5"/>
</g>
<!-- :data:coverart&#45;&gt;:core:logging:api -->
<g id="edge15" class="edge">
<title>:data:coverart&#45;&gt;:core:logging:api</title>
<path fill="none" stroke="black" stroke-dasharray="1,5" d="M381.68,-276.73C381.68,-217.74 381.68,-8 381.68,-8 381.68,-8 563.66,-8 563.66,-8"/>
<polygon fill="black" stroke="black" points="563.66,-11.5 573.66,-8 563.66,-4.5 563.66,-11.5"/>
</g>
<!-- :test&#45;data&#45;&gt;:shared:domain -->
<g id="edge16" class="edge">
<title>:test&#45;data&#45;&gt;:shared:domain</title>
<path fill="none" stroke="black" stroke-dasharray="1,5" d="M179.83,-429C110.27,-429 0,-429 0,-429 0,-429 0,-12 0,-12 0,-12 161.44,-12 161.44,-12"/>
<polygon fill="black" stroke="black" points="161.44,-15.5 171.44,-12 161.44,-8.5 161.44,-15.5"/>
</g>
<!-- :test&#45;data&#45;&gt;:data:database -->
<g id="edge17" class="edge">
<title>:test&#45;data&#45;&gt;:data:database</title>
<path fill="none" stroke="black" stroke-dasharray="1,5" d="M216.88,-411.87C216.88,-376.36 216.88,-298 216.88,-298 216.88,-298 182.35,-298 182.35,-298"/>
<polygon fill="black" stroke="black" points="182.35,-294.5 172.35,-298 182.35,-301.5 182.35,-294.5"/>
</g>
<!-- :test&#45;data&#45;&gt;:data:musicbrainz -->
<g id="edge18" class="edge">
<title>:test&#45;data&#45;&gt;:data:musicbrainz</title>
<path fill="none" stroke="black" stroke-dasharray="1,5" d="M253.71,-411.86C253.71,-411.86 253.71,-183.2 253.71,-183.2"/>
<polygon fill="black" stroke="black" points="257.21,-183.2 253.71,-173.2 250.21,-183.2 257.21,-183.2"/>
</g>
<!-- :test&#45;data&#45;&gt;:data:coverart -->
<g id="edge19" class="edge">
<title>:test&#45;data&#45;&gt;:data:coverart</title>
<path fill="none" stroke="black" stroke-dasharray="1,5" d="M287.66,-423C321.31,-423 358.76,-423 358.76,-423 358.76,-423 358.76,-312.28 358.76,-312.28"/>
<polygon fill="black" stroke="black" points="362.26,-312.28 358.76,-302.28 355.26,-312.28 362.26,-312.28"/>
</g>
<!-- :data:spotify -->
<g id="node9" class="node">
<title>:data:spotify</title>
<ellipse fill="#b59aff" stroke="black" cx="468.29" cy="-155" rx="68.79" ry="18"/>
<text text-anchor="middle" x="468.29" y="-151.3" font-family="Times,serif" font-size="14.00">:data:spotify</text>
</g>
<!-- :test&#45;data&#45;&gt;:data:spotify -->
<g id="edge20" class="edge">
<title>:test&#45;data&#45;&gt;:data:spotify</title>
<path fill="none" stroke="black" stroke-dasharray="1,5" d="M287.43,-435C369.05,-435 517.76,-435 517.76,-435 517.76,-435 517.76,-177.76 517.76,-177.76"/>
<polygon fill="black" stroke="black" points="521.26,-177.76 517.76,-167.76 514.26,-177.76 521.26,-177.76"/>
</g>
<!-- :data:spotify&#45;&gt;:shared:domain -->
<g id="edge21" class="edge">
<title>:data:spotify&#45;&gt;:shared:domain</title>
<path fill="none" stroke="black" stroke-dasharray="1,5" d="M445.33,-137.87C445.33,-102.36 445.33,-24 445.33,-24 445.33,-24 337.33,-24 337.33,-24"/>
<polygon fill="black" stroke="black" points="337.33,-20.5 327.33,-24 337.33,-27.5 337.33,-20.5"/>
</g>
<!-- :data:spotify&#45;&gt;:core:logging:api -->
<g id="edge22" class="edge">
<title>:data:spotify&#45;&gt;:core:logging:api</title>
<path fill="none" stroke="black" stroke-dasharray="1,5" d="M491.26,-137.75C491.26,-99.72 491.26,-12 491.26,-12 491.26,-12 553.79,-12 553.79,-12"/>
<polygon fill="black" stroke="black" points="553.79,-15.5 563.79,-12 553.79,-8.5 553.79,-15.5"/>
</g>
</g>
</svg>
