<?xml version="1.0" encoding="UTF-8" standalone="no"?>
<!DOCTYPE svg PUBLIC "-//W3C//DTD SVG 1.1//EN"
 "http://www.w3.org/Graphics/SVG/1.1/DTD/svg11.dtd">
<!-- Generated by graphviz version 2.43.0 (0)
 -->
<!-- Title: %3 Pages: 1 -->
<svg width="369pt" height="172pt"
 viewBox="0.00 0.00 368.69 172.00" xmlns="http://www.w3.org/2000/svg" xmlns:xlink="http://www.w3.org/1999/xlink">
<g id="graph0" class="graph" transform="scale(1 1) rotate(0) translate(4 168)">
<title>%3</title>
<polygon fill="white" stroke="transparent" points="-4,4 -4,-168 364.69,-168 364.69,4 -4,4"/>
<text text-anchor="middle" x="180.34" y="-136" font-family="Times,serif" font-size="30.00">Dependents</text>
<text text-anchor="middle" x="180.34" y="-103" font-family="Times,serif" font-size="30.00"> </text>
<!-- :data:repository -->
<g id="node1" class="node">
<title>:data:repository</title>
<polygon fill="#b59aff" stroke="black" points="131,-63 0,-63 0,-27 131,-27 131,-63"/>
<text text-anchor="middle" x="65.5" y="-41.3" font-family="Times,serif" font-size="14.00">:data:repository</text>
</g>
<!-- :shared -->
<g id="node2" class="node">
<title>:shared</title>
<ellipse fill="#b59aff" stroke="black" cx="296.34" cy="-72" rx="45.49" ry="18"/>
<text text-anchor="middle" x="296.34" y="-68.3" font-family="Times,serif" font-size="14.00">:shared</text>
</g>
<!-- :shared&#45;&gt;:data:repository -->
<g id="edge1" class="edge">
<title>:shared&#45;&gt;:data:repository</title>
<path fill="none" stroke="black" stroke-dasharray="1,5" d="M266.17,-58.5C266.17,-58.5 141.16,-58.5 141.16,-58.5"/>
<polygon fill="black" stroke="black" points="141.16,-55 131.16,-58.5 141.16,-62 141.16,-55"/>
</g>
<!-- :ui:common -->
<g id="node3" class="node">
<title>:ui:common</title>
<ellipse fill="#b59aff" stroke="black" cx="296.34" cy="-18" rx="64.19" ry="18"/>
<text text-anchor="middle" x="296.34" y="-14.3" font-family="Times,serif" font-size="14.00">:ui:common</text>
</g>
<!-- :ui:common&#45;&gt;:data:repository -->
<g id="edge2" class="edge">
<title>:ui:common&#45;&gt;:data:repository</title>
<path fill="none" stroke="black" stroke-dasharray="1,5" d="M253.73,-31.5C253.73,-31.5 141.45,-31.5 141.45,-31.5"/>
<polygon fill="black" stroke="black" points="141.45,-28 131.45,-31.5 141.45,-35 141.45,-28"/>
</g>
</g>
</svg>
