<?xml version="1.0" encoding="UTF-8" standalone="no"?>
<!DOCTYPE svg PUBLIC "-//W3C//DTD SVG 1.1//EN"
 "http://www.w3.org/Graphics/SVG/1.1/DTD/svg11.dtd">
<!-- Generated by graphviz version 2.43.0 (0)
 -->
<!-- Title: %3 Pages: 1 -->
<svg width="536pt" height="803pt"
 viewBox="0.00 0.00 535.93 803.00" xmlns="http://www.w3.org/2000/svg" xmlns:xlink="http://www.w3.org/1999/xlink">
<g id="graph0" class="graph" transform="scale(1 1) rotate(0) translate(4 799)">
<title>%3</title>
<polygon fill="white" stroke="transparent" points="-4,4 -4,-799 531.93,-799 531.93,4 -4,4"/>
<text text-anchor="middle" x="263.97" y="-767" font-family="Times,serif" font-size="30.00">Dependencies</text>
<text text-anchor="middle" x="263.97" y="-734" font-family="Times,serif" font-size="30.00"> </text>
<!-- :data:repository -->
<g id="node1" class="node">
<title>:data:repository</title>
<polygon fill="#b59aff" stroke="black" points="356.04,-721 225.04,-721 225.04,-685 356.04,-685 356.04,-721"/>
<text text-anchor="middle" x="290.54" y="-699.3" font-family="Times,serif" font-size="14.00">:data:repository</text>
</g>
<!-- :shared:domain -->
<g id="node2" class="node">
<title>:shared:domain</title>
<ellipse fill="#b59aff" stroke="black" cx="82.54" cy="-18" rx="82.59" ry="18"/>
<text text-anchor="middle" x="82.54" y="-14.3" font-family="Times,serif" font-size="14.00">:shared:domain</text>
</g>
<!-- :data:repository&#45;&gt;:shared:domain -->
<g id="edge1" class="edge">
<title>:data:repository&#45;&gt;:shared:domain</title>
<path fill="none" stroke="black" stroke-dasharray="1,5" d="M224.72,-709C143.43,-709 15.75,-709 15.75,-709 15.75,-709 15.75,-38.58 15.75,-38.58"/>
<polygon fill="black" stroke="black" points="19.25,-38.58 15.75,-28.58 12.25,-38.58 19.25,-38.58"/>
</g>
<!-- :data:database -->
<g id="node3" class="node">
<title>:data:database</title>
<ellipse fill="#b59aff" stroke="black" cx="126.54" cy="-292" rx="79.09" ry="18"/>
<text text-anchor="middle" x="126.54" y="-288.3" font-family="Times,serif" font-size="14.00">:data:database</text>
</g>
<!-- :data:repository&#45;&gt;:data:database -->
<g id="edge2" class="edge">
<title>:data:repository&#45;&gt;:data:database</title>
<path fill="none" stroke="black" stroke-dasharray="1,5" d="M224.82,-697C171.41,-697 104.87,-697 104.87,-697 104.87,-697 104.87,-319.4 104.87,-319.4"/>
<polygon fill="black" stroke="black" points="108.37,-319.4 104.87,-309.4 101.37,-319.4 108.37,-319.4"/>
</g>
<!-- :data:musicbrainz -->
<g id="node4" class="node">
<title>:data:musicbrainz</title>
<ellipse fill="#b59aff" stroke="black" cx="378.54" cy="-155" rx="93.68" ry="18"/>
<text text-anchor="middle" x="378.54" y="-151.3" font-family="Times,serif" font-size="14.00">:data:musicbrainz</text>
</g>
<!-- :data:repository&#45;&gt;:data:musicbrainz -->
<g id="edge3" class="edge">
<title>:data:repository&#45;&gt;:data:musicbrainz</title>
<path fill="none" stroke="black" stroke-dasharray="1,5" d="M342.22,-684.77C342.22,-684.77 342.22,-181.66 342.22,-181.66"/>
<polygon fill="black" stroke="black" points="345.72,-181.66 342.22,-171.66 338.72,-181.66 345.72,-181.66"/>
</g>
<!-- :data:coverart -->
<g id="node5" class="node">
<title>:data:coverart</title>
<ellipse fill="#b59aff" stroke="black" cx="238.54" cy="-566" rx="76.09" ry="18"/>
<text text-anchor="middle" x="238.54" y="-562.3" font-family="Times,serif" font-size="14.00">:data:coverart</text>
</g>
<!-- :data:repository&#45;&gt;:data:coverart -->
<g id="edge4" class="edge">
<title>:data:repository&#45;&gt;:data:coverart</title>
<path fill="none" stroke="black" stroke-dasharray="1,5" d="M269.81,-684.81C269.81,-684.81 269.81,-592.55 269.81,-592.55"/>
<polygon fill="black" stroke="black" points="273.31,-592.55 269.81,-582.55 266.31,-592.55 273.31,-592.55"/>
</g>
<!-- :core:logging:api -->
<g id="node6" class="node">
<title>:core:logging:api</title>
<ellipse fill="#b59aff" stroke="black" cx="439.54" cy="-18" rx="88.28" ry="18"/>
<text text-anchor="middle" x="439.54" y="-14.3" font-family="Times,serif" font-size="14.00">:core:logging:api</text>
</g>
<!-- :data:repository&#45;&gt;:core:logging:api -->
<g id="edge5" class="edge">
<title>:data:repository&#45;&gt;:core:logging:api</title>
<path fill="none" stroke="black" stroke-dasharray="1,5" d="M356.19,-703C420.63,-703 509.33,-703 509.33,-703 509.33,-703 509.33,-39.32 509.33,-39.32"/>
<polygon fill="black" stroke="black" points="512.83,-39.32 509.33,-29.32 505.83,-39.32 512.83,-39.32"/>
</g>
<!-- :test&#45;data -->
<g id="node7" class="node">
<title>:test&#45;data</title>
<ellipse fill="#b59aff" stroke="black" cx="238.54" cy="-429" rx="55.49" ry="18"/>
<text text-anchor="middle" x="238.54" y="-425.3" font-family="Times,serif" font-size="14.00">:test&#45;data</text>
</g>
<!-- :data:repository&#45;&gt;:test&#45;data -->
<g id="edge6" class="edge">
<title>:data:repository&#45;&gt;:test&#45;data</title>
<path fill="none" stroke="#ff9ab1" stroke-dasharray="1,5" d="M328.4,-684.6C328.4,-623.16 328.4,-429 328.4,-429 328.4,-429 303.92,-429 303.92,-429"/>
<polygon fill="#ff9ab1" stroke="#ff9ab1" points="303.92,-425.5 293.92,-429 303.92,-432.5 303.92,-425.5"/>
</g>
<!-- :data:database&#45;&gt;:shared:domain -->
<g id="edge7" class="edge">
<title>:data:database&#45;&gt;:shared:domain</title>
<path fill="none" stroke="black" stroke-dasharray="1,5" d="M88.45,-276.08C88.45,-276.08 88.45,-46.08 88.45,-46.08"/>
<polygon fill="black" stroke="black" points="91.95,-46.08 88.45,-36.08 84.95,-46.08 91.95,-46.08"/>
</g>
<!-- :data:database&#45;&gt;:data:musicbrainz -->
<g id="edge8" class="edge">
<title>:data:database&#45;&gt;:data:musicbrainz</title>
<path fill="none" stroke="black" stroke-dasharray="1,5" d="M206.27,-292C246.93,-292 287.9,-292 287.9,-292 287.9,-292 287.9,-169.56 287.9,-169.56"/>
<polygon fill="black" stroke="black" points="291.4,-169.56 287.9,-159.56 284.4,-169.56 291.4,-169.56"/>
</g>
<!-- :data:musicbrainz&#45;&gt;:shared:domain -->
<g id="edge9" class="edge">
<title>:data:musicbrainz&#45;&gt;:shared:domain</title>
<path fill="none" stroke="black" stroke-dasharray="1,5" d="M318.05,-141.11C318.05,-106.28 318.05,-18 318.05,-18 318.05,-18 175.24,-18 175.24,-18"/>
<polygon fill="black" stroke="black" points="175.24,-14.5 165.24,-18 175.24,-21.5 175.24,-14.5"/>
</g>
<!-- :data:musicbrainz&#45;&gt;:core:logging:api -->
<g id="edge10" class="edge">
<title>:data:musicbrainz&#45;&gt;:core:logging:api</title>
<path fill="none" stroke="black" stroke-dasharray="1,5" d="M411.64,-137.93C411.64,-137.93 411.64,-45.29 411.64,-45.29"/>
<polygon fill="black" stroke="black" points="415.14,-45.29 411.64,-35.29 408.14,-45.29 415.14,-45.29"/>
</g>
<!-- :data:coverart&#45;&gt;:shared:domain -->
<g id="edge11" class="edge">
<title>:data:coverart&#45;&gt;:shared:domain</title>
<path fill="none" stroke="black" stroke-dasharray="1,5" d="M162.33,-566C103.29,-566 31.5,-566 31.5,-566 31.5,-566 31.5,-42.38 31.5,-42.38"/>
<polygon fill="black" stroke="black" points="35,-42.38 31.5,-32.38 28,-42.38 35,-42.38"/>
</g>
<!-- :data:coverart&#45;&gt;:data:database -->
<g id="edge15" class="edge">
<title>:data:coverart&#45;&gt;:data:database</title>
<path fill="none" stroke="#ff9ab1" stroke-dasharray="1,5" d="M172.9,-556.88C172.9,-556.88 172.9,-316.79 172.9,-316.79"/>
<polygon fill="#ff9ab1" stroke="#ff9ab1" points="176.4,-316.79 172.9,-306.79 169.4,-316.79 176.4,-316.79"/>
</g>
<!-- :data:coverart&#45;&gt;:data:musicbrainz -->
<g id="edge14" class="edge">
<title>:data:coverart&#45;&gt;:data:musicbrainz</title>
<path fill="none" stroke="#ff9ab1" stroke-dasharray="1,5" d="M304.19,-556.64C304.19,-556.64 304.19,-176.02 304.19,-176.02"/>
<polygon fill="#ff9ab1" stroke="#ff9ab1" points="307.69,-176.02 304.19,-166.02 300.69,-176.02 307.69,-176.02"/>
</g>
<!-- :data:coverart&#45;&gt;:core:logging:api -->
<g id="edge12" class="edge">
<title>:data:coverart&#45;&gt;:core:logging:api</title>
<path fill="none" stroke="black" stroke-dasharray="1,5" d="M314.89,-566C389.12,-566 490.73,-566 490.73,-566 490.73,-566 490.73,-42.94 490.73,-42.94"/>
<polygon fill="black" stroke="black" points="494.23,-42.94 490.73,-32.94 487.23,-42.94 494.23,-42.94"/>
</g>
<!-- :data:coverart&#45;&gt;:test&#45;data -->
<g id="edge13" class="edge">
<title>:data:coverart&#45;&gt;:test&#45;data</title>
<path fill="none" stroke="#ff9ab1" stroke-dasharray="1,5" d="M220.13,-548.37C220.13,-548.37 220.13,-456.13 220.13,-456.13"/>
<polygon fill="#ff9ab1" stroke="#ff9ab1" points="223.63,-456.13 220.13,-446.13 216.63,-456.13 223.63,-456.13"/>
</g>
<!-- :test&#45;data&#45;&gt;:shared:domain -->
<g id="edge16" class="edge">
<title>:test&#45;data&#45;&gt;:shared:domain</title>
<path fill="none" stroke="black" stroke-dasharray="1,5" d="M276.19,-415.62C276.19,-345.87 276.19,-27 276.19,-27 276.19,-27 164.1,-27 164.1,-27"/>
<polygon fill="black" stroke="black" points="164.1,-23.5 154.1,-27 164.1,-30.5 164.1,-23.5"/>
</g>
<!-- :test&#45;data&#45;&gt;:data:database -->
<g id="edge17" class="edge">
<title>:test&#45;data&#45;&gt;:data:database</title>
<path fill="none" stroke="black" stroke-dasharray="1,5" d="M194.57,-417.79C194.57,-417.79 194.57,-311.51 194.57,-311.51"/>
<polygon fill="black" stroke="black" points="198.07,-311.51 194.57,-301.51 191.07,-311.51 198.07,-311.51"/>
</g>
<!-- :test&#45;data&#45;&gt;:data:musicbrainz -->
<g id="edge18" class="edge">
<title>:test&#45;data&#45;&gt;:data:musicbrainz</title>
<path fill="none" stroke="black" stroke-dasharray="1,5" d="M290.84,-423.02C290.84,-423.02 290.84,-171.62 290.84,-171.62"/>
<polygon fill="black" stroke="black" points="294.34,-171.62 290.84,-161.62 287.34,-171.62 294.34,-171.62"/>
</g>
<!-- :test&#45;data&#45;&gt;:data:coverart -->
<g id="edge19" class="edge">
<title>:test&#45;data&#45;&gt;:data:coverart</title>
<path fill="none" stroke="black" stroke-dasharray="1,5" d="M256.96,-446.07C256.96,-446.07 256.96,-538.28 256.96,-538.28"/>
<polygon fill="black" stroke="black" points="253.46,-538.28 256.96,-548.28 260.46,-538.28 253.46,-538.28"/>
</g>
<!-- :data:spotify -->
<g id="node8" class="node">
<title>:data:spotify</title>
<ellipse fill="#b59aff" stroke="black" cx="198.54" cy="-155" rx="68.79" ry="18"/>
<text text-anchor="middle" x="198.54" y="-151.3" font-family="Times,serif" font-size="14.00">:data:spotify</text>
</g>
<!-- :test&#45;data&#45;&gt;:data:spotify -->
<g id="edge20" class="edge">
<title>:test&#45;data&#45;&gt;:data:spotify</title>
<path fill="none" stroke="black" stroke-dasharray="1,5" d="M236.64,-410.6C236.64,-410.6 236.64,-180.21 236.64,-180.21"/>
<polygon fill="black" stroke="black" points="240.14,-180.21 236.64,-170.21 233.14,-180.21 240.14,-180.21"/>
</g>
<!-- :data:spotify&#45;&gt;:shared:domain -->
<g id="edge21" class="edge">
<title>:data:spotify&#45;&gt;:shared:domain</title>
<path fill="none" stroke="black" stroke-dasharray="1,5" d="M147.37,-142.84C147.37,-142.84 147.37,-39.17 147.37,-39.17"/>
<polygon fill="black" stroke="black" points="150.87,-39.17 147.37,-29.17 143.87,-39.17 150.87,-39.17"/>
</g>
<!-- :data:spotify&#45;&gt;:core:logging:api -->
<g id="edge22" class="edge">
<title>:data:spotify&#45;&gt;:core:logging:api</title>
<path fill="none" stroke="black" stroke-dasharray="1,5" d="M216.26,-137.39C216.26,-98.56 216.26,-9 216.26,-9 216.26,-9 352.7,-9 352.7,-9"/>
<polygon fill="black" stroke="black" points="352.7,-12.5 362.7,-9 352.7,-5.5 352.7,-12.5"/>
</g>
</g>
</svg>
