<?xml version="1.0" encoding="UTF-8" standalone="no"?>
<!DOCTYPE svg PUBLIC "-//W3C//DTD SVG 1.1//EN"
 "http://www.w3.org/Graphics/SVG/1.1/DTD/svg11.dtd">
<!-- Generated by graphviz version 2.43.0 (0)
 -->
<!-- Title: %3 Pages: 1 -->
<svg width="683pt" height="803pt"
 viewBox="0.00 0.00 682.53 803.00" xmlns="http://www.w3.org/2000/svg" xmlns:xlink="http://www.w3.org/1999/xlink">
<g id="graph0" class="graph" transform="scale(1 1) rotate(0) translate(4 799)">
<title>%3</title>
<polygon fill="white" stroke="transparent" points="-4,4 -4,-799 678.53,-799 678.53,4 -4,4"/>
<text text-anchor="middle" x="337.27" y="-767" font-family="Times,serif" font-size="30.00">Dependencies</text>
<text text-anchor="middle" x="337.27" y="-734" font-family="Times,serif" font-size="30.00"> </text>
<!-- :data:repository -->
<g id="node1" class="node">
<title>:data:repository</title>
<polygon fill="#b59aff" stroke="black" points="140.64,-721 9.64,-721 9.64,-685 140.64,-685 140.64,-721"/>
<text text-anchor="middle" x="75.14" y="-699.3" font-family="Times,serif" font-size="14.00">:data:repository</text>
</g>
<!-- :shared:domain -->
<g id="node2" class="node">
<title>:shared:domain</title>
<ellipse fill="#b59aff" stroke="black" cx="217.14" cy="-18" rx="82.59" ry="18"/>
<text text-anchor="middle" x="217.14" y="-14.3" font-family="Times,serif" font-size="14.00">:shared:domain</text>
</g>
<!-- :data:repository&#45;&gt;:shared:domain -->
<g id="edge1" class="edge">
<title>:data:repository&#45;&gt;:shared:domain</title>
<path fill="none" stroke="black" stroke-dasharray="1,5" d="M96.87,-684.65C96.87,-611.29 96.87,-343 96.87,-343 96.87,-343 235.68,-343 235.68,-343 235.68,-343 235.68,-45.94 235.68,-45.94"/>
<polygon fill="black" stroke="black" points="239.18,-45.94 235.68,-35.94 232.18,-45.94 239.18,-45.94"/>
</g>
<!-- :data:database -->
<g id="node3" class="node">
<title>:data:database</title>
<ellipse fill="#b59aff" stroke="black" cx="137.14" cy="-292" rx="79.09" ry="18"/>
<text text-anchor="middle" x="137.14" y="-288.3" font-family="Times,serif" font-size="14.00">:data:database</text>
</g>
<!-- :data:repository&#45;&gt;:data:database -->
<g id="edge2" class="edge">
<title>:data:repository&#45;&gt;:data:database</title>
<path fill="none" stroke="black" stroke-dasharray="1,5" d="M77.36,-684.81C77.36,-684.81 77.36,-314.03 77.36,-314.03"/>
<polygon fill="black" stroke="black" points="80.86,-314.03 77.36,-304.03 73.86,-314.03 80.86,-314.03"/>
</g>
<!-- :data:musicbrainz -->
<g id="node4" class="node">
<title>:data:musicbrainz</title>
<ellipse fill="#b59aff" stroke="black" cx="358.14" cy="-155" rx="93.68" ry="18"/>
<text text-anchor="middle" x="358.14" y="-151.3" font-family="Times,serif" font-size="14.00">:data:musicbrainz</text>
</g>
<!-- :data:repository&#45;&gt;:data:musicbrainz -->
<g id="edge3" class="edge">
<title>:data:repository&#45;&gt;:data:musicbrainz</title>
<path fill="none" stroke="black" stroke-dasharray="1,5" d="M140.88,-697C237.85,-697 407.88,-697 407.88,-697 407.88,-697 407.88,-180.35 407.88,-180.35"/>
<polygon fill="black" stroke="black" points="411.38,-180.35 407.88,-170.35 404.38,-180.35 411.38,-180.35"/>
</g>
<!-- :core:logging:api -->
<g id="node5" class="node">
<title>:core:logging:api</title>
<ellipse fill="#b59aff" stroke="black" cx="586.14" cy="-18" rx="88.28" ry="18"/>
<text text-anchor="middle" x="586.14" y="-14.3" font-family="Times,serif" font-size="14.00">:core:logging:api</text>
</g>
<!-- :data:repository&#45;&gt;:core:logging:api -->
<g id="edge4" class="edge">
<title>:data:repository&#45;&gt;:core:logging:api</title>
<path fill="none" stroke="black" stroke-dasharray="1,5" d="M140.76,-709C291.96,-709 652.04,-709 652.04,-709 652.04,-709 652.04,-40.29 652.04,-40.29"/>
<polygon fill="black" stroke="black" points="655.54,-40.29 652.04,-30.29 648.54,-40.29 655.54,-40.29"/>
</g>
<!-- :test&#45;data -->
<g id="node6" class="node">
<title>:test&#45;data</title>
<ellipse fill="#b59aff" stroke="black" cx="191.14" cy="-566" rx="55.49" ry="18"/>
<text text-anchor="middle" x="191.14" y="-562.3" font-family="Times,serif" font-size="14.00">:test&#45;data</text>
</g>
<!-- :data:repository&#45;&gt;:test&#45;data -->
<g id="edge5" class="edge">
<title>:data:repository&#45;&gt;:test&#45;data</title>
<path fill="none" stroke="#ff9ab1" stroke-dasharray="1,5" d="M116.39,-684.89C116.39,-646.41 116.39,-560 116.39,-560 116.39,-560 128.81,-560 128.81,-560"/>
<polygon fill="#ff9ab1" stroke="#ff9ab1" points="128.82,-563.5 138.81,-560 128.81,-556.5 128.82,-563.5"/>
</g>
<!-- :core:coroutines -->
<g id="node7" class="node">
<title>:core:coroutines</title>
<ellipse fill="#b59aff" stroke="black" cx="85.14" cy="-155" rx="85.29" ry="18"/>
<text text-anchor="middle" x="85.14" y="-151.3" font-family="Times,serif" font-size="14.00">:core:coroutines</text>
</g>
<!-- :data:repository&#45;&gt;:core:coroutines -->
<g id="edge6" class="edge">
<title>:data:repository&#45;&gt;:core:coroutines</title>
<path fill="none" stroke="#ff9ab1" stroke-dasharray="1,5" d="M25.71,-684.77C25.71,-684.77 25.71,-178.11 25.71,-178.11"/>
<polygon fill="#ff9ab1" stroke="#ff9ab1" points="29.21,-178.11 25.71,-168.11 22.21,-178.11 29.21,-178.11"/>
</g>
<!-- :data:database&#45;&gt;:shared:domain -->
<g id="edge7" class="edge">
<title>:data:database&#45;&gt;:shared:domain</title>
<path fill="none" stroke="black" stroke-dasharray="1,5" d="M185.67,-277.65C185.67,-277.65 185.67,-44.94 185.67,-44.94"/>
<polygon fill="black" stroke="black" points="189.17,-44.94 185.67,-34.94 182.17,-44.94 189.17,-44.94"/>
</g>
<!-- :data:database&#45;&gt;:data:musicbrainz -->
<g id="edge9" class="edge">
<title>:data:database&#45;&gt;:data:musicbrainz</title>
<path fill="none" stroke="black" stroke-dasharray="1,5" d="M201.05,-281.25C201.05,-248 201.05,-149 201.05,-149 201.05,-149 259.5,-149 259.5,-149"/>
<polygon fill="black" stroke="black" points="259.5,-152.5 269.5,-149 259.5,-145.5 259.5,-152.5"/>
</g>
<!-- :data:database&#45;&gt;:core:coroutines -->
<g id="edge8" class="edge">
<title>:data:database&#45;&gt;:core:coroutines</title>
<path fill="none" stroke="black" stroke-dasharray="1,5" d="M114.07,-274.65C114.07,-274.65 114.07,-182.21 114.07,-182.21"/>
<polygon fill="black" stroke="black" points="117.57,-182.21 114.07,-172.21 110.57,-182.21 117.57,-182.21"/>
</g>
<!-- :data:musicbrainz&#45;&gt;:shared:domain -->
<g id="edge10" class="edge">
<title>:data:musicbrainz&#45;&gt;:shared:domain</title>
<path fill="none" stroke="black" stroke-dasharray="1,5" d="M282.12,-144.25C282.12,-144.25 282.12,-39.47 282.12,-39.47"/>
<polygon fill="black" stroke="black" points="285.62,-39.47 282.12,-29.47 278.62,-39.47 285.62,-39.47"/>
</g>
<!-- :data:musicbrainz&#45;&gt;:core:logging:api -->
<g id="edge11" class="edge">
<title>:data:musicbrainz&#45;&gt;:core:logging:api</title>
<path fill="none" stroke="black" stroke-dasharray="1,5" d="M375.71,-137.18C375.71,-98.84 375.71,-12 375.71,-12 375.71,-12 492.67,-12 492.67,-12"/>
<polygon fill="black" stroke="black" points="492.67,-15.5 502.67,-12 492.67,-8.5 492.67,-15.5"/>
</g>
<!-- :test&#45;data&#45;&gt;:shared:domain -->
<g id="edge12" class="edge">
<title>:test&#45;data&#45;&gt;:shared:domain</title>
<path fill="none" stroke="black" stroke-dasharray="1,5" d="M157.37,-551.48C157.37,-507.23 157.37,-377 157.37,-377 157.37,-377 245.3,-377 245.3,-377 245.3,-377 245.3,-45.32 245.3,-45.32"/>
<polygon fill="black" stroke="black" points="248.8,-45.32 245.3,-35.32 241.8,-45.32 248.8,-45.32"/>
</g>
<!-- :test&#45;data&#45;&gt;:data:database -->
<g id="edge16" class="edge">
<title>:test&#45;data&#45;&gt;:data:database</title>
<path fill="none" stroke="black" stroke-dasharray="1,5" d="M146.63,-555.26C146.63,-555.26 146.63,-320.04 146.63,-320.04"/>
<polygon fill="black" stroke="black" points="150.13,-320.04 146.63,-310.04 143.13,-320.04 150.13,-320.04"/>
</g>
<!-- :test&#45;data&#45;&gt;:data:musicbrainz -->
<g id="edge13" class="edge">
<title>:test&#45;data&#45;&gt;:data:musicbrainz</title>
<path fill="none" stroke="black" stroke-dasharray="1,5" d="M243.49,-560C294.37,-560 364.04,-560 364.04,-560 364.04,-560 364.04,-183.19 364.04,-183.19"/>
<polygon fill="black" stroke="black" points="367.54,-183.19 364.04,-173.19 360.54,-183.19 367.54,-183.19"/>
</g>
<!-- :test&#45;data&#45;&gt;:core:coroutines -->
<g id="edge17" class="edge">
<title>:test&#45;data&#45;&gt;:core:coroutines</title>
<path fill="none" stroke="black" stroke-dasharray="1,5" d="M138.9,-572C95.83,-572 41.78,-572 41.78,-572 41.78,-572 41.78,-180.84 41.78,-180.84"/>
<polygon fill="black" stroke="black" points="45.28,-180.84 41.78,-170.84 38.28,-180.84 45.28,-180.84"/>
</g>
<!-- :data:coverart -->
<g id="node8" class="node">
<title>:data:coverart</title>
<ellipse fill="#b59aff" stroke="black" cx="244.14" cy="-429" rx="76.09" ry="18"/>
<text text-anchor="middle" x="244.14" y="-425.3" font-family="Times,serif" font-size="14.00">:data:coverart</text>
</g>
<!-- :test&#45;data&#45;&gt;:data:coverart -->
<g id="edge14" class="edge">
<title>:test&#45;data&#45;&gt;:data:coverart</title>
<path fill="none" stroke="black" stroke-dasharray="1,5" d="M194.2,-547.81C194.2,-547.81 194.2,-452.71 194.2,-452.71"/>
<polygon fill="black" stroke="black" points="197.7,-452.71 194.2,-442.71 190.7,-452.71 197.7,-452.71"/>
</g>
<!-- :data:spotify -->
<g id="node9" class="node">
<title>:data:spotify</title>
<ellipse fill="#b59aff" stroke="black" cx="538.14" cy="-155" rx="68.79" ry="18"/>
<text text-anchor="middle" x="538.14" y="-151.3" font-family="Times,serif" font-size="14.00">:data:spotify</text>
</g>
<!-- :test&#45;data&#45;&gt;:data:spotify -->
<g id="edge15" class="edge">
<title>:test&#45;data&#45;&gt;:data:spotify</title>
<path fill="none" stroke="black" stroke-dasharray="1,5" d="M243.47,-572C340.41,-572 538.14,-572 538.14,-572 538.14,-572 538.14,-183.19 538.14,-183.19"/>
<polygon fill="black" stroke="black" points="541.64,-183.19 538.14,-173.19 534.64,-183.19 541.64,-183.19"/>
</g>
<!-- :data:coverart&#45;&gt;:shared:domain -->
<g id="edge18" class="edge">
<title>:data:coverart&#45;&gt;:shared:domain</title>
<path fill="none" stroke="black" stroke-dasharray="1,5" d="M254.93,-411.08C254.93,-411.08 254.93,-44.2 254.93,-44.2"/>
<polygon fill="black" stroke="black" points="258.43,-44.2 254.93,-34.2 251.43,-44.2 258.43,-44.2"/>
</g>
<!-- :data:coverart&#45;&gt;:data:database -->
<g id="edge23" class="edge">
<title>:data:coverart&#45;&gt;:data:database</title>
<path fill="none" stroke="#ff9ab1" stroke-dasharray="1,5" d="M192.27,-415.61C192.27,-415.61 192.27,-315.24 192.27,-315.24"/>
<polygon fill="#ff9ab1" stroke="#ff9ab1" points="195.77,-315.24 192.27,-305.24 188.77,-315.24 195.77,-315.24"/>
</g>
<!-- :data:coverart&#45;&gt;:data:musicbrainz -->
<g id="edge22" class="edge">
<title>:data:coverart&#45;&gt;:data:musicbrainz</title>
<path fill="none" stroke="#ff9ab1" stroke-dasharray="1,5" d="M292.37,-415.04C292.37,-415.04 292.37,-177.97 292.37,-177.97"/>
<polygon fill="#ff9ab1" stroke="#ff9ab1" points="295.87,-177.97 292.37,-167.97 288.87,-177.97 295.87,-177.97"/>
</g>
<!-- :data:coverart&#45;&gt;:core:logging:api -->
<g id="edge19" class="edge">
<title>:data:coverart&#45;&gt;:core:logging:api</title>
<path fill="none" stroke="black" stroke-dasharray="1,5" d="M320.28,-429C432.6,-429 629.54,-429 629.54,-429 629.54,-429 629.54,-43.86 629.54,-43.86"/>
<polygon fill="black" stroke="black" points="633.04,-43.86 629.54,-33.86 626.04,-43.86 633.04,-43.86"/>
</g>
<!-- :data:coverart&#45;&gt;:test&#45;data -->
<g id="edge21" class="edge">
<title>:data:coverart&#45;&gt;:test&#45;data</title>
<path fill="none" stroke="#ff9ab1" stroke-dasharray="1,5" d="M220.29,-446.35C220.29,-446.35 220.29,-540.48 220.29,-540.48"/>
<polygon fill="#ff9ab1" stroke="#ff9ab1" points="216.79,-540.48 220.29,-550.48 223.79,-540.48 216.79,-540.48"/>
</g>
<!-- :data:coverart&#45;&gt;:core:coroutines -->
<g id="edge20" class="edge">
<title>:data:coverart&#45;&gt;:core:coroutines</title>
<path fill="none" stroke="black" stroke-dasharray="1,5" d="M226.06,-411.42C226.06,-351.79 226.06,-161 226.06,-161 226.06,-161 175.48,-161 175.48,-161"/>
<polygon fill="black" stroke="black" points="175.48,-157.5 165.48,-161 175.48,-164.5 175.48,-157.5"/>
</g>
<!-- :data:spotify&#45;&gt;:shared:domain -->
<g id="edge24" class="edge">
<title>:data:spotify&#45;&gt;:shared:domain</title>
<path fill="none" stroke="black" stroke-dasharray="1,5" d="M483.5,-143.83C483.5,-112.15 483.5,-24 483.5,-24 483.5,-24 305.26,-24 305.26,-24"/>
<polygon fill="black" stroke="black" points="305.26,-20.5 295.26,-24 305.26,-27.5 305.26,-20.5"/>
</g>
<!-- :data:spotify&#45;&gt;:core:logging:api -->
<g id="edge25" class="edge">
<title>:data:spotify&#45;&gt;:core:logging:api</title>
<path fill="none" stroke="black" stroke-dasharray="1,5" d="M552.39,-137.37C552.39,-137.37 552.39,-44.7 552.39,-44.7"/>
<polygon fill="black" stroke="black" points="555.89,-44.7 552.39,-34.7 548.89,-44.7 555.89,-44.7"/>
</g>
</g>
</svg>
