<?xml version="1.0" encoding="UTF-8" standalone="no"?>
<!DOCTYPE svg PUBLIC "-//W3C//DTD SVG 1.1//EN"
 "http://www.w3.org/Graphics/SVG/1.1/DTD/svg11.dtd">
<!-- Generated by graphviz version 2.43.0 (0)
 -->
<!-- Title: %3 Pages: 1 -->
<svg width="781pt" height="666pt"
 viewBox="0.00 0.00 780.58 666.00" xmlns="http://www.w3.org/2000/svg" xmlns:xlink="http://www.w3.org/1999/xlink">
<g id="graph0" class="graph" transform="scale(1 1) rotate(0) translate(4 662)">
<title>%3</title>
<polygon fill="white" stroke="transparent" points="-4,4 -4,-662 776.58,-662 776.58,4 -4,4"/>
<text text-anchor="middle" x="386.29" y="-630" font-family="Times,serif" font-size="30.00">Dependencies</text>
<text text-anchor="middle" x="386.29" y="-597" font-family="Times,serif" font-size="30.00"> </text>
<!-- :data:repository -->
<g id="node1" class="node">
<title>:data:repository</title>
<polygon fill="#b59aff" stroke="black" points="386.79,-584 255.79,-584 255.79,-548 386.79,-548 386.79,-584"/>
<text text-anchor="middle" x="321.29" y="-562.3" font-family="Times,serif" font-size="14.00">:data:repository</text>
</g>
<!-- :shared:domain -->
<g id="node2" class="node">
<title>:shared:domain</title>
<ellipse fill="#b59aff" stroke="black" cx="309.29" cy="-18" rx="82.59" ry="18"/>
<text text-anchor="middle" x="309.29" y="-14.3" font-family="Times,serif" font-size="14.00">:shared:domain</text>
</g>
<!-- :data:repository&#45;&gt;:shared:domain -->
<g id="edge1" class="edge">
<title>:data:repository&#45;&gt;:shared:domain</title>
<path fill="none" stroke="black" stroke-dasharray="1,5" d="M387.17,-555C396.98,-555 403.88,-555 403.88,-555 403.88,-555 403.88,-12 403.88,-12 403.88,-12 397.4,-12 397.4,-12"/>
<polygon fill="black" stroke="black" points="397.4,-8.5 387.4,-12 397.4,-15.5 397.4,-8.5"/>
</g>
<!-- :data:database -->
<g id="node3" class="node">
<title>:data:database</title>
<ellipse fill="#b59aff" stroke="black" cx="79.29" cy="-292" rx="79.09" ry="18"/>
<text text-anchor="middle" x="79.29" y="-288.3" font-family="Times,serif" font-size="14.00">:data:database</text>
</g>
<!-- :data:repository&#45;&gt;:data:database -->
<g id="edge2" class="edge">
<title>:data:repository&#45;&gt;:data:database</title>
<path fill="none" stroke="black" stroke-dasharray="1,5" d="M255.63,-572C176.16,-572 52.86,-572 52.86,-572 52.86,-572 52.86,-319.09 52.86,-319.09"/>
<polygon fill="black" stroke="black" points="56.36,-319.09 52.86,-309.09 49.36,-319.09 56.36,-319.09"/>
</g>
<!-- :data:listenbrainz -->
<g id="node4" class="node">
<title>:data:listenbrainz</title>
<ellipse fill="#b59aff" stroke="black" cx="680.29" cy="-155" rx="92.08" ry="18"/>
<text text-anchor="middle" x="680.29" y="-151.3" font-family="Times,serif" font-size="14.00">:data:listenbrainz</text>
</g>
<!-- :data:repository&#45;&gt;:data:listenbrainz -->
<g id="edge3" class="edge">
<title>:data:repository&#45;&gt;:data:listenbrainz</title>
<path fill="none" stroke="black" stroke-dasharray="1,5" d="M387.14,-576C490.78,-576 680.29,-576 680.29,-576 680.29,-576 680.29,-183.09 680.29,-183.09"/>
<polygon fill="black" stroke="black" points="683.79,-183.09 680.29,-173.09 676.79,-183.09 683.79,-183.09"/>
</g>
<!-- :data:musicbrainz -->
<g id="node5" class="node">
<title>:data:musicbrainz</title>
<ellipse fill="#b59aff" stroke="black" cx="192.29" cy="-155" rx="93.68" ry="18"/>
<text text-anchor="middle" x="192.29" y="-151.3" font-family="Times,serif" font-size="14.00">:data:musicbrainz</text>
</g>
<!-- :data:repository&#45;&gt;:data:musicbrainz -->
<g id="edge4" class="edge">
<title>:data:repository&#45;&gt;:data:musicbrainz</title>
<path fill="none" stroke="black" stroke-dasharray="1,5" d="M255.57,-560C222.72,-560 189.86,-560 189.86,-560 189.86,-560 189.86,-183.19 189.86,-183.19"/>
<polygon fill="black" stroke="black" points="193.36,-183.19 189.86,-173.19 186.36,-183.19 193.36,-183.19"/>
</g>
<!-- :data:coverart -->
<g id="node6" class="node">
<title>:data:coverart</title>
<ellipse fill="#b59aff" stroke="black" cx="494.29" cy="-155" rx="76.09" ry="18"/>
<text text-anchor="middle" x="494.29" y="-151.3" font-family="Times,serif" font-size="14.00">:data:coverart</text>
</g>
<!-- :data:repository&#45;&gt;:data:coverart -->
<g id="edge5" class="edge">
<title>:data:repository&#45;&gt;:data:coverart</title>
<path fill="none" stroke="black" stroke-dasharray="1,5" d="M387.06,-569C444.8,-569 519.64,-569 519.64,-569 519.64,-569 519.64,-182 519.64,-182"/>
<polygon fill="black" stroke="black" points="523.14,-182 519.64,-172 516.14,-182 523.14,-182"/>
</g>
<!-- :core:logging:api -->
<g id="node7" class="node">
<title>:core:logging:api</title>
<ellipse fill="#b59aff" stroke="black" cx="498.29" cy="-18" rx="88.28" ry="18"/>
<text text-anchor="middle" x="498.29" y="-14.3" font-family="Times,serif" font-size="14.00">:core:logging:api</text>
</g>
<!-- :data:repository&#45;&gt;:core:logging:api -->
<g id="edge6" class="edge">
<title>:data:repository&#45;&gt;:core:logging:api</title>
<path fill="none" stroke="black" stroke-dasharray="1,5" d="M386.92,-562C403.24,-562 416.16,-562 416.16,-562 416.16,-562 416.16,-34.88 416.16,-34.88"/>
<polygon fill="black" stroke="black" points="419.66,-34.88 416.16,-24.88 412.66,-34.88 419.66,-34.88"/>
</g>
<!-- :test&#45;data -->
<g id="node8" class="node">
<title>:test&#45;data</title>
<ellipse fill="#b59aff" stroke="black" cx="321.29" cy="-429" rx="55.49" ry="18"/>
<text text-anchor="middle" x="321.29" y="-425.3" font-family="Times,serif" font-size="14.00">:test&#45;data</text>
</g>
<!-- :data:repository&#45;&gt;:test&#45;data -->
<g id="edge7" class="edge">
<title>:data:repository&#45;&gt;:test&#45;data</title>
<path fill="none" stroke="#ff9ab1" stroke-dasharray="1,5" d="M321.29,-547.81C321.29,-547.81 321.29,-457.27 321.29,-457.27"/>
<polygon fill="#ff9ab1" stroke="#ff9ab1" points="324.79,-457.27 321.29,-447.27 317.79,-457.27 324.79,-457.27"/>
</g>
<!-- :data:database&#45;&gt;:shared:domain -->
<g id="edge8" class="edge">
<title>:data:database&#45;&gt;:shared:domain</title>
<path fill="none" stroke="black" stroke-dasharray="1,5" d="M49.35,-275.27C49.35,-215.78 49.35,-18 49.35,-18 49.35,-18 216.69,-18 216.69,-18"/>
<polygon fill="black" stroke="black" points="216.69,-21.5 226.69,-18 216.69,-14.5 216.69,-21.5"/>
</g>
<!-- :data:database&#45;&gt;:data:musicbrainz -->
<g id="edge9" class="edge">
<title>:data:database&#45;&gt;:data:musicbrainz</title>
<path fill="none" stroke="black" stroke-dasharray="1,5" d="M128.64,-277.85C128.64,-277.85 128.64,-178.46 128.64,-178.46"/>
<polygon fill="black" stroke="black" points="132.14,-178.46 128.64,-168.46 125.14,-178.46 132.14,-178.46"/>
</g>
<!-- :data:listenbrainz&#45;&gt;:shared:domain -->
<g id="edge10" class="edge">
<title>:data:listenbrainz&#45;&gt;:shared:domain</title>
<path fill="none" stroke="black" stroke-dasharray="1,5" d="M680.29,-136.87C680.29,-116.43 680.29,-86 680.29,-86 680.29,-86 364.11,-86 364.11,-86 364.11,-86 364.11,-41.76 364.11,-41.76"/>
<polygon fill="black" stroke="black" points="367.61,-41.76 364.11,-31.76 360.61,-41.76 367.61,-41.76"/>
</g>
<!-- :data:listenbrainz&#45;&gt;:core:logging:api -->
<g id="edge11" class="edge">
<title>:data:listenbrainz&#45;&gt;:core:logging:api</title>
<path fill="none" stroke="black" stroke-dasharray="1,5" d="M587.9,-155C582.09,-155 578.51,-155 578.51,-155 578.51,-155 578.51,-35.76 578.51,-35.76"/>
<polygon fill="black" stroke="black" points="582.01,-35.76 578.51,-25.76 575.01,-35.76 582.01,-35.76"/>
</g>
<!-- :data:musicbrainz&#45;&gt;:shared:domain -->
<g id="edge12" class="edge">
<title>:data:musicbrainz&#45;&gt;:shared:domain</title>
<path fill="none" stroke="black" stroke-dasharray="1,5" d="M256.32,-141.86C256.32,-141.86 256.32,-42.12 256.32,-42.12"/>
<polygon fill="black" stroke="black" points="259.82,-42.12 256.32,-32.12 252.82,-42.12 259.82,-42.12"/>
</g>
<!-- :data:musicbrainz&#45;&gt;:core:logging:api -->
<g id="edge13" class="edge">
<title>:data:musicbrainz&#45;&gt;:core:logging:api</title>
<path fill="none" stroke="black" stroke-dasharray="1,5" d="M280.7,-161C341.75,-161 411.99,-161 411.99,-161 411.99,-161 411.99,-32.13 411.99,-32.13"/>
<polygon fill="black" stroke="black" points="415.49,-32.13 411.99,-22.13 408.49,-32.13 415.49,-32.13"/>
</g>
<!-- :data:coverart&#45;&gt;:shared:domain -->
<g id="edge14" class="edge">
<title>:data:coverart&#45;&gt;:shared:domain</title>
<path fill="none" stroke="black" stroke-dasharray="1,5" d="M422.57,-149C381.49,-149 338.04,-149 338.04,-149 338.04,-149 338.04,-45.13 338.04,-45.13"/>
<polygon fill="black" stroke="black" points="341.54,-45.13 338.04,-35.13 334.54,-45.13 341.54,-45.13"/>
</g>
<!-- :data:coverart&#45;&gt;:core:logging:api -->
<g id="edge15" class="edge">
<title>:data:coverart&#45;&gt;:core:logging:api</title>
<path fill="none" stroke="black" stroke-dasharray="1,5" d="M494.29,-136.81C494.29,-136.81 494.29,-46.27 494.29,-46.27"/>
<polygon fill="black" stroke="black" points="497.79,-46.27 494.29,-36.27 490.79,-46.27 497.79,-46.27"/>
</g>
<!-- :test&#45;data&#45;&gt;:shared:domain -->
<g id="edge16" class="edge">
<title>:test&#45;data&#45;&gt;:shared:domain</title>
<path fill="none" stroke="black" stroke-dasharray="1,5" d="M373.63,-423C387.09,-423 397.86,-423 397.86,-423 397.86,-423 397.86,-24 397.86,-24 397.86,-24 396.81,-24 396.81,-24"/>
<polygon fill="black" stroke="black" points="397.35,-20.5 387.35,-24 397.35,-27.5 397.35,-20.5"/>
</g>
<!-- :test&#45;data&#45;&gt;:data:database -->
<g id="edge17" class="edge">
<title>:test&#45;data&#45;&gt;:data:database</title>
<path fill="none" stroke="black" stroke-dasharray="1,5" d="M269.11,-435C205.31,-435 105.72,-435 105.72,-435 105.72,-435 105.72,-319.25 105.72,-319.25"/>
<polygon fill="black" stroke="black" points="109.22,-319.25 105.72,-309.25 102.22,-319.25 109.22,-319.25"/>
</g>
<!-- :test&#45;data&#45;&gt;:data:musicbrainz -->
<g id="edge18" class="edge">
<title>:test&#45;data&#45;&gt;:data:musicbrainz</title>
<path fill="none" stroke="black" stroke-dasharray="1,5" d="M269.16,-423C244.82,-423 221.13,-423 221.13,-423 221.13,-423 221.13,-182.17 221.13,-182.17"/>
<polygon fill="black" stroke="black" points="224.63,-182.17 221.13,-172.17 217.63,-182.17 224.63,-182.17"/>
</g>
<!-- :test&#45;data&#45;&gt;:data:coverart -->
<g id="edge19" class="edge">
<title>:test&#45;data&#45;&gt;:data:coverart</title>
<path fill="none" stroke="black" stroke-dasharray="1,5" d="M373.77,-435C416.2,-435 468.95,-435 468.95,-435 468.95,-435 468.95,-182.09 468.95,-182.09"/>
<polygon fill="black" stroke="black" points="472.45,-182.09 468.95,-172.09 465.45,-182.09 472.45,-182.09"/>
</g>
<!-- :data:spotify -->
<g id="node9" class="node">
<title>:data:spotify</title>
<ellipse fill="#b59aff" stroke="black" cx="321.29" cy="-292" rx="68.79" ry="18"/>
<text text-anchor="middle" x="321.29" y="-288.3" font-family="Times,serif" font-size="14.00">:data:spotify</text>
</g>
<!-- :test&#45;data&#45;&gt;:data:spotify -->
<g id="edge20" class="edge">
<title>:test&#45;data&#45;&gt;:data:spotify</title>
<path fill="none" stroke="black" stroke-dasharray="1,5" d="M302.88,-411.93C302.88,-411.93 302.88,-319.72 302.88,-319.72"/>
<polygon fill="black" stroke="black" points="306.38,-319.72 302.88,-309.72 299.38,-319.72 306.38,-319.72"/>
</g>
<!-- :data:spotify&#45;&gt;:shared:domain -->
<g id="edge21" class="edge">
<title>:data:spotify&#45;&gt;:shared:domain</title>
<path fill="none" stroke="black" stroke-dasharray="1,5" d="M311.96,-274.02C311.96,-274.02 311.96,-46.04 311.96,-46.04"/>
<polygon fill="black" stroke="black" points="315.46,-46.04 311.96,-36.04 308.46,-46.04 315.46,-46.04"/>
</g>
<!-- :data:spotify&#45;&gt;:core:logging:api -->
<g id="edge22" class="edge">
<title>:data:spotify&#45;&gt;:core:logging:api</title>
<path fill="none" stroke="black" stroke-dasharray="1,5" d="M390.66,-292C404.09,-292 414.08,-292 414.08,-292 414.08,-292 414.08,-33.72 414.08,-33.72"/>
<polygon fill="black" stroke="black" points="417.58,-33.72 414.08,-23.72 410.58,-33.72 417.58,-33.72"/>
</g>
<!-- :data:spotify&#45;&gt;:test&#45;data -->
<g id="edge23" class="edge">
<title>:data:spotify&#45;&gt;:test&#45;data</title>
<path fill="none" stroke="#ff9ab1" stroke-dasharray="1,5" d="M339.71,-309.35C339.71,-309.35 339.71,-401.79 339.71,-401.79"/>
<polygon fill="#ff9ab1" stroke="#ff9ab1" points="336.21,-401.79 339.71,-411.79 343.21,-401.79 336.21,-401.79"/>
</g>
</g>
</svg>
