<?xml version="1.0" encoding="UTF-8" standalone="no"?>
<!DOCTYPE svg PUBLIC "-//W3C//DTD SVG 1.1//EN"
 "http://www.w3.org/Graphics/SVG/1.1/DTD/svg11.dtd">
<!-- Generated by graphviz version 2.43.0 (0)
 -->
<!-- Title: %3 Pages: 1 -->
<svg width="3885pt" height="1077pt"
 viewBox="0.00 0.00 3885.32 1077.00" xmlns="http://www.w3.org/2000/svg" xmlns:xlink="http://www.w3.org/1999/xlink">
<g id="graph0" class="graph" transform="scale(1 1) rotate(0) translate(4 1073)">
<title>%3</title>
<polygon fill="white" stroke="transparent" points="-4,4 -4,-1073 3881.32,-1073 3881.32,4 -4,4"/>
<text text-anchor="middle" x="1938.66" y="-1041" font-family="Times,serif" font-size="30.00">Dependencies</text>
<text text-anchor="middle" x="1938.66" y="-1008" font-family="Times,serif" font-size="30.00"> </text>
<!-- :shared -->
<g id="node1" class="node">
<title>:shared</title>
<polygon fill="#b59aff" stroke="black" points="1422.54,-995 1352.54,-995 1352.54,-959 1422.54,-959 1422.54,-995"/>
<text text-anchor="middle" x="1387.54" y="-973.3" font-family="Times,serif" font-size="14.00">:shared</text>
</g>
<!-- :shared:feature:nowplaying -->
<g id="node2" class="node">
<title>:shared:feature:nowplaying</title>
<ellipse fill="#b59aff" stroke="black" cx="3739.54" cy="-840" rx="137.58" ry="18"/>
<text text-anchor="middle" x="3739.54" y="-836.3" font-family="Times,serif" font-size="14.00">:shared:feature:nowplaying</text>
</g>
<!-- :shared&#45;&gt;:shared:feature:nowplaying -->
<g id="edge1" class="edge">
<title>:shared&#45;&gt;:shared:feature:nowplaying</title>
<path fill="none" stroke="black" stroke-dasharray="1,5" d="M1422.61,-992C1715.19,-992 3739.54,-992 3739.54,-992 3739.54,-992 3739.54,-868.03 3739.54,-868.03"/>
<polygon fill="black" stroke="black" points="3743.04,-868.03 3739.54,-858.03 3736.04,-868.03 3743.04,-868.03"/>
</g>
<!-- :shared:feature:spotify -->
<g id="node3" class="node">
<title>:shared:feature:spotify</title>
<ellipse fill="#b59aff" stroke="black" cx="2720.54" cy="-840" rx="116.18" ry="18"/>
<text text-anchor="middle" x="2720.54" y="-836.3" font-family="Times,serif" font-size="14.00">:shared:feature:spotify</text>
</g>
<!-- :shared&#45;&gt;:shared:feature:spotify -->
<g id="edge2" class="edge">
<title>:shared&#45;&gt;:shared:feature:spotify</title>
<path fill="none" stroke="black" stroke-dasharray="1,5" d="M1422.85,-980C1634,-980 2720.54,-980 2720.54,-980 2720.54,-980 2720.54,-868.02 2720.54,-868.02"/>
<polygon fill="black" stroke="black" points="2724.04,-868.02 2720.54,-858.02 2717.04,-868.02 2724.04,-868.02"/>
</g>
<!-- :core:logging:implementation -->
<g id="node4" class="node">
<title>:core:logging:implementation</title>
<ellipse fill="#b59aff" stroke="black" cx="147.54" cy="-292" rx="147.57" ry="18"/>
<text text-anchor="middle" x="147.54" y="-288.3" font-family="Times,serif" font-size="14.00">:core:logging:implementation</text>
</g>
<!-- :shared&#45;&gt;:core:logging:implementation -->
<g id="edge3" class="edge">
<title>:shared&#45;&gt;:core:logging:implementation</title>
<path fill="none" stroke="black" stroke-dasharray="1,5" d="M1352.42,-992C1150.63,-992 147.54,-992 147.54,-992 147.54,-992 147.54,-320.01 147.54,-320.01"/>
<polygon fill="black" stroke="black" points="151.04,-320.01 147.54,-310.01 144.04,-320.01 151.04,-320.01"/>
</g>
<!-- :shared:domain -->
<g id="node5" class="node">
<title>:shared:domain</title>
<ellipse fill="#b59aff" stroke="black" cx="1449.54" cy="-18" rx="82.59" ry="18"/>
<text text-anchor="middle" x="1449.54" y="-14.3" font-family="Times,serif" font-size="14.00">:shared:domain</text>
</g>
<!-- :shared&#45;&gt;:shared:domain -->
<g id="edge4" class="edge">
<title>:shared&#45;&gt;:shared:domain</title>
<path fill="none" stroke="black" stroke-dasharray="1,5" d="M1422.57,-962C1458.7,-962 1509.8,-962 1509.8,-962 1509.8,-962 1509.8,-40.63 1509.8,-40.63"/>
<polygon fill="black" stroke="black" points="1513.3,-40.63 1509.8,-30.63 1506.3,-40.63 1513.3,-40.63"/>
</g>
<!-- :core:preferences -->
<g id="node6" class="node">
<title>:core:preferences</title>
<ellipse fill="#b59aff" stroke="black" cx="763.54" cy="-155" rx="91.78" ry="18"/>
<text text-anchor="middle" x="763.54" y="-151.3" font-family="Times,serif" font-size="14.00">:core:preferences</text>
</g>
<!-- :shared&#45;&gt;:core:preferences -->
<g id="edge5" class="edge">
<title>:shared&#45;&gt;:core:preferences</title>
<path fill="none" stroke="black" stroke-dasharray="1,5" d="M1352.4,-983C1210.68,-983 688.64,-983 688.64,-983 688.64,-983 688.64,-175.47 688.64,-175.47"/>
<polygon fill="black" stroke="black" points="692.14,-175.47 688.64,-165.47 685.14,-175.47 692.14,-175.47"/>
</g>
<!-- :data:common:network -->
<g id="node7" class="node">
<title>:data:common:network</title>
<ellipse fill="#b59aff" stroke="black" cx="460.54" cy="-155" rx="116.98" ry="18"/>
<text text-anchor="middle" x="460.54" y="-151.3" font-family="Times,serif" font-size="14.00">:data:common:network</text>
</g>
<!-- :shared&#45;&gt;:data:common:network -->
<g id="edge6" class="edge">
<title>:shared&#45;&gt;:data:common:network</title>
<path fill="none" stroke="black" stroke-dasharray="1,5" d="M1352.33,-986C1183,-986 460.54,-986 460.54,-986 460.54,-986 460.54,-183.13 460.54,-183.13"/>
<polygon fill="black" stroke="black" points="464.04,-183.13 460.54,-173.13 457.04,-183.13 464.04,-183.13"/>
</g>
<!-- :data:coverart -->
<g id="node8" class="node">
<title>:data:coverart</title>
<ellipse fill="#b59aff" stroke="black" cx="790.54" cy="-429" rx="76.09" ry="18"/>
<text text-anchor="middle" x="790.54" y="-425.3" font-family="Times,serif" font-size="14.00">:data:coverart</text>
</g>
<!-- :shared&#45;&gt;:data:coverart -->
<g id="edge7" class="edge">
<title>:shared&#45;&gt;:data:coverart</title>
<path fill="none" stroke="black" stroke-dasharray="1,5" d="M1352.46,-968C1314.82,-968 1260.38,-968 1260.38,-968 1260.38,-968 1260.38,-429 1260.38,-429 1260.38,-429 876.81,-429 876.81,-429"/>
<polygon fill="black" stroke="black" points="876.81,-425.5 866.81,-429 876.81,-432.5 876.81,-425.5"/>
</g>
<!-- :data:database -->
<g id="node9" class="node">
<title>:data:database</title>
<ellipse fill="#b59aff" stroke="black" cx="939.54" cy="-292" rx="79.09" ry="18"/>
<text text-anchor="middle" x="939.54" y="-288.3" font-family="Times,serif" font-size="14.00">:data:database</text>
</g>
<!-- :shared&#45;&gt;:data:database -->
<g id="edge8" class="edge">
<title>:shared&#45;&gt;:data:database</title>
<path fill="none" stroke="black" stroke-dasharray="1,5" d="M1352.34,-974C1257.92,-974 1006.15,-974 1006.15,-974 1006.15,-974 1006.15,-311.9 1006.15,-311.9"/>
<polygon fill="black" stroke="black" points="1009.65,-311.9 1006.15,-301.9 1002.65,-311.9 1009.65,-311.9"/>
</g>
<!-- :data:musicbrainz -->
<g id="node10" class="node">
<title>:data:musicbrainz</title>
<ellipse fill="#b59aff" stroke="black" cx="966.54" cy="-155" rx="93.68" ry="18"/>
<text text-anchor="middle" x="966.54" y="-151.3" font-family="Times,serif" font-size="14.00">:data:musicbrainz</text>
</g>
<!-- :shared&#45;&gt;:data:musicbrainz -->
<g id="edge9" class="edge">
<title>:shared&#45;&gt;:data:musicbrainz</title>
<path fill="none" stroke="black" stroke-dasharray="1,5" d="M1352.52,-962C1317.12,-962 1267.59,-962 1267.59,-962 1267.59,-962 1267.59,-161 1267.59,-161 1267.59,-161 1064.83,-161 1064.83,-161"/>
<polygon fill="black" stroke="black" points="1064.83,-157.5 1054.83,-161 1064.83,-164.5 1064.83,-157.5"/>
</g>
<!-- :data:repository -->
<g id="node11" class="node">
<title>:data:repository</title>
<ellipse fill="#b59aff" stroke="black" cx="790.54" cy="-703" rx="85.29" ry="18"/>
<text text-anchor="middle" x="790.54" y="-699.3" font-family="Times,serif" font-size="14.00">:data:repository</text>
</g>
<!-- :shared&#45;&gt;:data:repository -->
<g id="edge10" class="edge">
<title>:shared&#45;&gt;:data:repository</title>
<path fill="none" stroke="black" stroke-dasharray="1,5" d="M1352.44,-980C1215.7,-980 726.1,-980 726.1,-980 726.1,-980 726.1,-724.9 726.1,-724.9"/>
<polygon fill="black" stroke="black" points="729.6,-724.9 726.1,-714.9 722.6,-724.9 729.6,-724.9"/>
</g>
<!-- :data:spotify -->
<g id="node12" class="node">
<title>:data:spotify</title>
<ellipse fill="#b59aff" stroke="black" cx="1181.54" cy="-292" rx="68.79" ry="18"/>
<text text-anchor="middle" x="1181.54" y="-288.3" font-family="Times,serif" font-size="14.00">:data:spotify</text>
</g>
<!-- :shared&#45;&gt;:data:spotify -->
<g id="edge11" class="edge">
<title>:shared&#45;&gt;:data:spotify</title>
<path fill="none" stroke="black" stroke-dasharray="1,5" d="M1352.46,-965C1315.94,-965 1263.99,-965 1263.99,-965 1263.99,-965 1263.99,-292 1263.99,-292 1263.99,-292 1260.74,-292 1260.74,-292"/>
<polygon fill="black" stroke="black" points="1260.74,-288.5 1250.74,-292 1260.74,-295.5 1260.74,-288.5"/>
</g>
<!-- :data:wikimedia -->
<g id="node13" class="node">
<title>:data:wikimedia</title>
<ellipse fill="#b59aff" stroke="black" cx="241.54" cy="-155" rx="84.49" ry="18"/>
<text text-anchor="middle" x="241.54" y="-151.3" font-family="Times,serif" font-size="14.00">:data:wikimedia</text>
</g>
<!-- :shared&#45;&gt;:data:wikimedia -->
<g id="edge12" class="edge">
<title>:shared&#45;&gt;:data:wikimedia</title>
<path fill="none" stroke="black" stroke-dasharray="1,5" d="M1352.32,-989C1166.7,-989 310.55,-989 310.55,-989 310.55,-989 310.55,-175.54 310.55,-175.54"/>
<polygon fill="black" stroke="black" points="314.05,-175.54 310.55,-165.54 307.05,-175.54 314.05,-175.54"/>
</g>
<!-- :shared:feature:collections -->
<g id="node14" class="node">
<title>:shared:feature:collections</title>
<ellipse fill="#b59aff" stroke="black" cx="2151.54" cy="-840" rx="133.78" ry="18"/>
<text text-anchor="middle" x="2151.54" y="-836.3" font-family="Times,serif" font-size="14.00">:shared:feature:collections</text>
</g>
<!-- :shared&#45;&gt;:shared:feature:collections -->
<g id="edge13" class="edge">
<title>:shared&#45;&gt;:shared:feature:collections</title>
<path fill="none" stroke="black" stroke-dasharray="1,5" d="M1422.6,-974C1572.46,-974 2151.54,-974 2151.54,-974 2151.54,-974 2151.54,-868.07 2151.54,-868.07"/>
<polygon fill="black" stroke="black" points="2155.04,-868.07 2151.54,-858.07 2148.04,-868.07 2155.04,-868.07"/>
</g>
<!-- :shared:feature:database -->
<g id="node15" class="node">
<title>:shared:feature:database</title>
<ellipse fill="#b59aff" stroke="black" cx="873.54" cy="-840" rx="126.98" ry="18"/>
<text text-anchor="middle" x="873.54" y="-836.3" font-family="Times,serif" font-size="14.00">:shared:feature:database</text>
</g>
<!-- :shared&#45;&gt;:shared:feature:database -->
<g id="edge14" class="edge">
<title>:shared&#45;&gt;:shared:feature:database</title>
<path fill="none" stroke="black" stroke-dasharray="1,5" d="M1352.21,-977C1236.08,-977 873.54,-977 873.54,-977 873.54,-977 873.54,-868.19 873.54,-868.19"/>
<polygon fill="black" stroke="black" points="877.04,-868.19 873.54,-858.19 870.04,-868.19 877.04,-868.19"/>
</g>
<!-- :shared:feature:graph -->
<g id="node16" class="node">
<title>:shared:feature:graph</title>
<ellipse fill="#b59aff" stroke="black" cx="3471.54" cy="-840" rx="112.38" ry="18"/>
<text text-anchor="middle" x="3471.54" y="-836.3" font-family="Times,serif" font-size="14.00">:shared:feature:graph</text>
</g>
<!-- :shared&#45;&gt;:shared:feature:graph -->
<g id="edge15" class="edge">
<title>:shared&#45;&gt;:shared:feature:graph</title>
<path fill="none" stroke="black" stroke-dasharray="1,5" d="M1422.83,-989C1696.69,-989 3471.54,-989 3471.54,-989 3471.54,-989 3471.54,-868.27 3471.54,-868.27"/>
<polygon fill="black" stroke="black" points="3475.04,-868.27 3471.54,-858.27 3468.04,-868.27 3475.04,-868.27"/>
</g>
<!-- :shared:feature:history -->
<g id="node17" class="node">
<title>:shared:feature:history</title>
<ellipse fill="#b59aff" stroke="black" cx="1135.54" cy="-840" rx="117.78" ry="18"/>
<text text-anchor="middle" x="1135.54" y="-836.3" font-family="Times,serif" font-size="14.00">:shared:feature:history</text>
</g>
<!-- :shared&#45;&gt;:shared:feature:history -->
<g id="edge16" class="edge">
<title>:shared&#45;&gt;:shared:feature:history</title>
<path fill="none" stroke="black" stroke-dasharray="1,5" d="M1352.5,-971C1283.25,-971 1135.54,-971 1135.54,-971 1135.54,-971 1135.54,-868.21 1135.54,-868.21"/>
<polygon fill="black" stroke="black" points="1139.04,-868.21 1135.54,-858.21 1132.04,-868.22 1139.04,-868.21"/>
</g>
<!-- :shared:feature:images -->
<g id="node18" class="node">
<title>:shared:feature:images</title>
<ellipse fill="#b59aff" stroke="black" cx="2973.54" cy="-840" rx="118.08" ry="18"/>
<text text-anchor="middle" x="2973.54" y="-836.3" font-family="Times,serif" font-size="14.00">:shared:feature:images</text>
</g>
<!-- :shared&#45;&gt;:shared:feature:images -->
<g id="edge17" class="edge">
<title>:shared&#45;&gt;:shared:feature:images</title>
<path fill="none" stroke="black" stroke-dasharray="1,5" d="M1422.89,-983C1656.9,-983 2973.54,-983 2973.54,-983 2973.54,-983 2973.54,-868.11 2973.54,-868.11"/>
<polygon fill="black" stroke="black" points="2977.04,-868.11 2973.54,-858.11 2970.04,-868.11 2977.04,-868.11"/>
</g>
<!-- :shared:feature:search -->
<g id="node19" class="node">
<title>:shared:feature:search</title>
<ellipse fill="#b59aff" stroke="black" cx="3225.54" cy="-840" rx="115.88" ry="18"/>
<text text-anchor="middle" x="3225.54" y="-836.3" font-family="Times,serif" font-size="14.00">:shared:feature:search</text>
</g>
<!-- :shared&#45;&gt;:shared:feature:search -->
<g id="edge18" class="edge">
<title>:shared&#45;&gt;:shared:feature:search</title>
<path fill="none" stroke="black" stroke-dasharray="1,5" d="M1422.61,-986C1676.72,-986 3225.54,-986 3225.54,-986 3225.54,-986 3225.54,-868.2 3225.54,-868.2"/>
<polygon fill="black" stroke="black" points="3229.04,-868.2 3225.54,-858.2 3222.04,-868.2 3229.04,-868.2"/>
</g>
<!-- :shared:feature:settings -->
<g id="node20" class="node">
<title>:shared:feature:settings</title>
<ellipse fill="#b59aff" stroke="black" cx="2463.54" cy="-840" rx="122.38" ry="18"/>
<text text-anchor="middle" x="2463.54" y="-836.3" font-family="Times,serif" font-size="14.00">:shared:feature:settings</text>
</g>
<!-- :shared&#45;&gt;:shared:feature:settings -->
<g id="edge19" class="edge">
<title>:shared&#45;&gt;:shared:feature:settings</title>
<path fill="none" stroke="black" stroke-dasharray="1,5" d="M1422.73,-977C1608.17,-977 2463.54,-977 2463.54,-977 2463.54,-977 2463.54,-868.19 2463.54,-868.19"/>
<polygon fill="black" stroke="black" points="2467.04,-868.19 2463.54,-858.19 2460.04,-868.19 2467.04,-868.19"/>
</g>
<!-- :shared:feature:licenses -->
<g id="node21" class="node">
<title>:shared:feature:licenses</title>
<ellipse fill="#b59aff" stroke="black" cx="1877.54" cy="-840" rx="122.38" ry="18"/>
<text text-anchor="middle" x="1877.54" y="-836.3" font-family="Times,serif" font-size="14.00">:shared:feature:licenses</text>
</g>
<!-- :shared&#45;&gt;:shared:feature:licenses -->
<g id="edge20" class="edge">
<title>:shared&#45;&gt;:shared:feature:licenses</title>
<path fill="none" stroke="black" stroke-dasharray="1,5" d="M1422.78,-971C1535.13,-971 1877.54,-971 1877.54,-971 1877.54,-971 1877.54,-868.21 1877.54,-868.21"/>
<polygon fill="black" stroke="black" points="1881.04,-868.21 1877.54,-858.21 1874.04,-868.22 1881.04,-868.21"/>
</g>
<!-- :shared:feature:details -->
<g id="node22" class="node">
<title>:shared:feature:details</title>
<ellipse fill="#b59aff" stroke="black" cx="1387.54" cy="-840" rx="116.18" ry="18"/>
<text text-anchor="middle" x="1387.54" y="-836.3" font-family="Times,serif" font-size="14.00">:shared:feature:details</text>
</g>
<!-- :shared&#45;&gt;:shared:feature:details -->
<g id="edge21" class="edge">
<title>:shared&#45;&gt;:shared:feature:details</title>
<path fill="none" stroke="black" stroke-dasharray="1,5" d="M1387.54,-958.81C1387.54,-958.81 1387.54,-868.27 1387.54,-868.27"/>
<polygon fill="black" stroke="black" points="1391.04,-868.27 1387.54,-858.27 1384.04,-868.27 1391.04,-868.27"/>
</g>
<!-- :shared:feature:stats -->
<g id="node23" class="node">
<title>:shared:feature:stats</title>
<ellipse fill="#b59aff" stroke="black" cx="1629.54" cy="-840" rx="107.78" ry="18"/>
<text text-anchor="middle" x="1629.54" y="-836.3" font-family="Times,serif" font-size="14.00">:shared:feature:stats</text>
</g>
<!-- :shared&#45;&gt;:shared:feature:stats -->
<g id="edge22" class="edge">
<title>:shared&#45;&gt;:shared:feature:stats</title>
<path fill="none" stroke="black" stroke-dasharray="1,5" d="M1422.73,-968C1489.84,-968 1629.54,-968 1629.54,-968 1629.54,-968 1629.54,-868.07 1629.54,-868.07"/>
<polygon fill="black" stroke="black" points="1633.04,-868.07 1629.54,-858.07 1626.04,-868.07 1633.04,-868.07"/>
</g>
<!-- :ui:common -->
<g id="node24" class="node">
<title>:ui:common</title>
<ellipse fill="#b59aff" stroke="black" cx="2151.54" cy="-703" rx="64.19" ry="18"/>
<text text-anchor="middle" x="2151.54" y="-699.3" font-family="Times,serif" font-size="14.00">:ui:common</text>
</g>
<!-- :shared&#45;&gt;:ui:common -->
<g id="edge23" class="edge">
<title>:shared&#45;&gt;:ui:common</title>
<path fill="none" stroke="black" stroke-dasharray="1,5" d="M1422.56,-965C1460.52,-965 1515.72,-965 1515.72,-965 1515.72,-965 1515.72,-712 1515.72,-712 1515.72,-712 2085.67,-712 2085.67,-712"/>
<polygon fill="black" stroke="black" points="2085.67,-715.5 2095.67,-712 2085.67,-708.5 2085.67,-715.5"/>
</g>
<!-- :shared:feature:nowplaying&#45;&gt;:shared:domain -->
<g id="edge26" class="edge">
<title>:shared:feature:nowplaying&#45;&gt;:shared:domain</title>
<path fill="none" stroke="black" stroke-dasharray="1,5" d="M3808.43,-824.05C3808.43,-708.47 3808.43,-4 3808.43,-4 3808.43,-4 1511.55,-4 1511.55,-4"/>
<polygon fill="black" stroke="black" points="1511.55,-0.5 1501.55,-4 1511.55,-7.5 1511.55,-0.5"/>
</g>
<!-- :shared:feature:nowplaying&#45;&gt;:ui:common -->
<g id="edge25" class="edge">
<title>:shared:feature:nowplaying&#45;&gt;:ui:common</title>
<path fill="none" stroke="black" stroke-dasharray="1,5" d="M3670.64,-824.15C3670.64,-786.92 3670.64,-697 3670.64,-697 3670.64,-697 2222.5,-697 2222.5,-697"/>
<polygon fill="black" stroke="black" points="2222.5,-693.5 2212.5,-697 2222.5,-700.5 2222.5,-693.5"/>
</g>
<!-- :ui:test:screenshot -->
<g id="node25" class="node">
<title>:ui:test:screenshot</title>
<ellipse fill="#9affb5" stroke="black" cx="2423.54" cy="-566" rx="96.68" ry="18"/>
<text text-anchor="middle" x="2423.54" y="-562.3" font-family="Times,serif" font-size="14.00">:ui:test:screenshot</text>
</g>
<!-- :shared:feature:nowplaying&#45;&gt;:ui:test:screenshot -->
<g id="edge24" class="edge">
<title>:shared:feature:nowplaying&#45;&gt;:ui:test:screenshot</title>
<path fill="none" stroke="#ff9ab1" stroke-dasharray="1,5" d="M3739.54,-821.67C3739.54,-758.55 3739.54,-554 3739.54,-554 3739.54,-554 2506.17,-554 2506.17,-554"/>
<polygon fill="#ff9ab1" stroke="#ff9ab1" points="2506.17,-550.5 2496.17,-554 2506.17,-557.5 2506.17,-550.5"/>
</g>
<!-- :shared:feature:spotify&#45;&gt;:shared:domain -->
<g id="edge29" class="edge">
<title>:shared:feature:spotify&#45;&gt;:shared:domain</title>
<path fill="none" stroke="black" stroke-dasharray="1,5" d="M2778.71,-824.39C2778.71,-711.3 2778.71,-22 2778.71,-22 2778.71,-22 1540.18,-22 1540.18,-22"/>
<polygon fill="black" stroke="black" points="1540.18,-18.5 1530.18,-22 1540.18,-25.5 1540.18,-18.5"/>
</g>
<!-- :shared:feature:spotify&#45;&gt;:ui:common -->
<g id="edge28" class="edge">
<title>:shared:feature:spotify&#45;&gt;:ui:common</title>
<path fill="none" stroke="black" stroke-dasharray="1,5" d="M2662.37,-824.17C2662.37,-790.13 2662.37,-713 2662.37,-713 2662.37,-713 2215.24,-713 2215.24,-713"/>
<polygon fill="black" stroke="black" points="2215.24,-709.5 2205.24,-713 2215.24,-716.5 2215.24,-709.5"/>
</g>
<!-- :shared:feature:spotify&#45;&gt;:ui:test:screenshot -->
<g id="edge27" class="edge">
<title>:shared:feature:spotify&#45;&gt;:ui:test:screenshot</title>
<path fill="none" stroke="#ff9ab1" stroke-dasharray="1,5" d="M2720.54,-821.99C2720.54,-762.8 2720.54,-578 2720.54,-578 2720.54,-578 2505.81,-578 2505.81,-578"/>
<polygon fill="#ff9ab1" stroke="#ff9ab1" points="2505.81,-574.5 2495.81,-578 2505.81,-581.5 2505.81,-574.5"/>
</g>
<!-- :core:logging:api -->
<g id="node26" class="node">
<title>:core:logging:api</title>
<ellipse fill="#b59aff" stroke="black" cx="703.54" cy="-18" rx="88.28" ry="18"/>
<text text-anchor="middle" x="703.54" y="-14.3" font-family="Times,serif" font-size="14.00">:core:logging:api</text>
</g>
<!-- :core:logging:implementation&#45;&gt;:core:logging:api -->
<g id="edge30" class="edge">
<title>:core:logging:implementation&#45;&gt;:core:logging:api</title>
<path fill="none" stroke="black" stroke-dasharray="1,5" d="M295.31,-292C439.68,-292 637.84,-292 637.84,-292 637.84,-292 637.84,-40.13 637.84,-40.13"/>
<polygon fill="black" stroke="black" points="641.34,-40.13 637.84,-30.13 634.34,-40.13 641.34,-40.13"/>
</g>
<!-- :core:preferences&#45;&gt;:shared:domain -->
<g id="edge31" class="edge">
<title>:core:preferences&#45;&gt;:shared:domain</title>
<path fill="none" stroke="black" stroke-dasharray="1,5" d="M823.55,-141.33C823.55,-104.16 823.55,-4 823.55,-4 823.55,-4 1387.51,-4 1387.51,-4"/>
<polygon fill="black" stroke="black" points="1387.51,-7.5 1397.51,-4 1387.51,-0.5 1387.51,-7.5"/>
</g>
<!-- :core:preferences&#45;&gt;:core:logging:api -->
<g id="edge32" class="edge">
<title>:core:preferences&#45;&gt;:core:logging:api</title>
<path fill="none" stroke="black" stroke-dasharray="1,5" d="M731.91,-137.93C731.91,-137.93 731.91,-45.29 731.91,-45.29"/>
<polygon fill="black" stroke="black" points="735.41,-45.29 731.91,-35.29 728.41,-45.29 735.41,-45.29"/>
</g>
<!-- :data:common:network&#45;&gt;:shared:domain -->
<g id="edge34" class="edge">
<title>:data:common:network&#45;&gt;:shared:domain</title>
<path fill="none" stroke="black" stroke-dasharray="1,5" d="M460.54,-136.81C460.54,-121.82 460.54,-103 460.54,-103 460.54,-103 1404.33,-103 1404.33,-103 1404.33,-103 1404.33,-43.2 1404.33,-43.2"/>
<polygon fill="black" stroke="black" points="1407.83,-43.2 1404.33,-33.2 1400.83,-43.2 1407.83,-43.2"/>
</g>
<!-- :data:common:network&#45;&gt;:core:logging:api -->
<g id="edge33" class="edge">
<title>:data:common:network&#45;&gt;:core:logging:api</title>
<path fill="none" stroke="black" stroke-dasharray="1,5" d="M577.6,-155C605.06,-155 626.49,-155 626.49,-155 626.49,-155 626.49,-36.99 626.49,-36.99"/>
<polygon fill="black" stroke="black" points="629.99,-36.99 626.49,-26.99 622.99,-36.99 629.99,-36.99"/>
</g>
<!-- :data:coverart&#45;&gt;:shared:domain -->
<g id="edge35" class="edge">
<title>:data:coverart&#45;&gt;:shared:domain</title>
<path fill="none" stroke="black" stroke-dasharray="1,5" d="M863.8,-424C1031.56,-424 1429.21,-424 1429.21,-424 1429.21,-424 1429.21,-45.71 1429.21,-45.71"/>
<polygon fill="black" stroke="black" points="1432.71,-45.71 1429.21,-35.71 1425.71,-45.71 1432.71,-45.71"/>
</g>
<!-- :data:coverart&#45;&gt;:data:database -->
<g id="edge39" class="edge">
<title>:data:coverart&#45;&gt;:data:database</title>
<path fill="none" stroke="#ff9ab1" stroke-dasharray="1,5" d="M838.35,-415C854.66,-415 868.85,-415 868.85,-415 868.85,-415 868.85,-310.45 868.85,-310.45"/>
<polygon fill="#ff9ab1" stroke="#ff9ab1" points="872.36,-310.45 868.85,-300.45 865.36,-310.45 872.36,-310.45"/>
</g>
<!-- :data:coverart&#45;&gt;:data:musicbrainz -->
<g id="edge38" class="edge">
<title>:data:coverart&#45;&gt;:data:musicbrainz</title>
<path fill="none" stroke="#ff9ab1" stroke-dasharray="1,5" d="M856.67,-420C926.92,-420 1027.95,-420 1027.95,-420 1027.95,-420 1027.95,-178.87 1027.95,-178.87"/>
<polygon fill="#ff9ab1" stroke="#ff9ab1" points="1031.45,-178.87 1027.95,-168.87 1024.45,-178.87 1031.45,-178.87"/>
</g>
<!-- :data:coverart&#45;&gt;:core:logging:api -->
<g id="edge36" class="edge">
<title>:data:coverart&#45;&gt;:core:logging:api</title>
<path fill="none" stroke="black" stroke-dasharray="1,5" d="M714.17,-429C685.87,-429 660.54,-429 660.54,-429 660.54,-429 660.54,-43.86 660.54,-43.86"/>
<polygon fill="black" stroke="black" points="664.05,-43.86 660.54,-33.86 657.05,-43.86 664.05,-43.86"/>
</g>
<!-- :test&#45;data -->
<g id="node27" class="node">
<title>:test&#45;data</title>
<ellipse fill="#b59aff" stroke="black" cx="1110.54" cy="-566" rx="55.49" ry="18"/>
<text text-anchor="middle" x="1110.54" y="-562.3" font-family="Times,serif" font-size="14.00">:test&#45;data</text>
</g>
<!-- :data:coverart&#45;&gt;:test&#45;data -->
<g id="edge37" class="edge">
<title>:data:coverart&#45;&gt;:test&#45;data</title>
<path fill="none" stroke="#ff9ab1" stroke-dasharray="1,5" d="M856.4,-438C941.16,-438 1077.63,-438 1077.63,-438 1077.63,-438 1077.63,-541.32 1077.63,-541.32"/>
<polygon fill="#ff9ab1" stroke="#ff9ab1" points="1074.13,-541.32 1077.63,-551.32 1081.13,-541.32 1074.13,-541.32"/>
</g>
<!-- :data:database&#45;&gt;:shared:domain -->
<g id="edge40" class="edge">
<title>:data:database&#45;&gt;:shared:domain</title>
<path fill="none" stroke="black" stroke-dasharray="1,5" d="M866.59,-284.83C866.59,-242.21 866.59,-24 866.59,-24 866.59,-24 1361.52,-24 1361.52,-24"/>
<polygon fill="black" stroke="black" points="1361.52,-27.5 1371.52,-24 1361.52,-20.5 1361.52,-27.5"/>
</g>
<!-- :data:database&#45;&gt;:data:musicbrainz -->
<g id="edge41" class="edge">
<title>:data:database&#45;&gt;:data:musicbrainz</title>
<path fill="none" stroke="black" stroke-dasharray="1,5" d="M945.89,-273.81C945.89,-273.81 945.89,-182.83 945.89,-182.83"/>
<polygon fill="black" stroke="black" points="949.39,-182.83 945.89,-172.83 942.39,-182.83 949.39,-182.83"/>
</g>
<!-- :data:musicbrainz&#45;&gt;:shared:domain -->
<g id="edge42" class="edge">
<title>:data:musicbrainz&#45;&gt;:shared:domain</title>
<path fill="none" stroke="black" stroke-dasharray="1,5" d="M1054.95,-149C1186.07,-149 1416.77,-149 1416.77,-149 1416.77,-149 1416.77,-44.59 1416.77,-44.59"/>
<polygon fill="black" stroke="black" points="1420.27,-44.59 1416.77,-34.59 1413.27,-44.59 1420.27,-44.59"/>
</g>
<!-- :data:musicbrainz&#45;&gt;:core:logging:api -->
<g id="edge43" class="edge">
<title>:data:musicbrainz&#45;&gt;:core:logging:api</title>
<path fill="none" stroke="black" stroke-dasharray="1,5" d="M966.54,-136.79C966.54,-99.94 966.54,-20 966.54,-20 966.54,-20 801.48,-20 801.48,-20"/>
<polygon fill="black" stroke="black" points="801.48,-16.5 791.48,-20 801.48,-23.5 801.48,-16.5"/>
</g>
<!-- :data:repository&#45;&gt;:shared:domain -->
<g id="edge44" class="edge">
<title>:data:repository&#45;&gt;:shared:domain</title>
<path fill="none" stroke="black" stroke-dasharray="1,5" d="M854.13,-691C1022.42,-691 1466.55,-691 1466.55,-691 1466.55,-691 1466.55,-45.66 1466.55,-45.66"/>
<polygon fill="black" stroke="black" points="1470.05,-45.66 1466.55,-35.66 1463.05,-45.66 1470.05,-45.66"/>
</g>
<!-- :data:repository&#45;&gt;:data:coverart -->
<g id="edge47" class="edge">
<title>:data:repository&#45;&gt;:data:coverart</title>
<path fill="none" stroke="black" stroke-dasharray="1,5" d="M790.54,-684.6C790.54,-684.6 790.54,-457.32 790.54,-457.32"/>
<polygon fill="black" stroke="black" points="794.04,-457.32 790.54,-447.32 787.04,-457.32 794.04,-457.32"/>
</g>
<!-- :data:repository&#45;&gt;:data:database -->
<g id="edge45" class="edge">
<title>:data:repository&#45;&gt;:data:database</title>
<path fill="none" stroke="black" stroke-dasharray="1,5" d="M871.13,-697.19C871.13,-697.19 871.13,-311.18 871.13,-311.18"/>
<polygon fill="black" stroke="black" points="874.63,-311.18 871.13,-301.18 867.63,-311.18 874.63,-311.18"/>
</g>
<!-- :data:repository&#45;&gt;:data:musicbrainz -->
<g id="edge46" class="edge">
<title>:data:repository&#45;&gt;:data:musicbrainz</title>
<path fill="none" stroke="black" stroke-dasharray="1,5" d="M837.78,-688C909.36,-688 1037.06,-688 1037.06,-688 1037.06,-688 1037.06,-176.88 1037.06,-176.88"/>
<polygon fill="black" stroke="black" points="1040.56,-176.88 1037.06,-166.88 1033.56,-176.88 1040.56,-176.88"/>
</g>
<!-- :data:repository&#45;&gt;:core:logging:api -->
<g id="edge48" class="edge">
<title>:data:repository&#45;&gt;:core:logging:api</title>
<path fill="none" stroke="black" stroke-dasharray="1,5" d="M705.06,-703C675.29,-703 649.19,-703 649.19,-703 649.19,-703 649.19,-42.31 649.19,-42.31"/>
<polygon fill="black" stroke="black" points="652.7,-42.31 649.19,-32.31 645.7,-42.31 652.7,-42.31"/>
</g>
<!-- :data:repository&#45;&gt;:test&#45;data -->
<g id="edge49" class="edge">
<title>:data:repository&#45;&gt;:test&#45;data</title>
<path fill="none" stroke="#ff9ab1" stroke-dasharray="1,5" d="M873.4,-698.63C873.4,-674.83 873.4,-562 873.4,-562 873.4,-562 1046.43,-562 1046.43,-562"/>
<polygon fill="#ff9ab1" stroke="#ff9ab1" points="1046.43,-565.5 1056.43,-562 1046.43,-558.5 1046.43,-565.5"/>
</g>
<!-- :data:spotify&#45;&gt;:shared:domain -->
<g id="edge50" class="edge">
<title>:data:spotify&#45;&gt;:shared:domain</title>
<path fill="none" stroke="black" stroke-dasharray="1,5" d="M1204.5,-274.68C1204.5,-215.95 1204.5,-28 1204.5,-28 1204.5,-28 1370.63,-28 1370.63,-28"/>
<polygon fill="black" stroke="black" points="1370.63,-31.5 1380.63,-28 1370.63,-24.5 1370.63,-31.5"/>
</g>
<!-- :data:spotify&#45;&gt;:core:logging:api -->
<g id="edge51" class="edge">
<title>:data:spotify&#45;&gt;:core:logging:api</title>
<path fill="none" stroke="black" stroke-dasharray="1,5" d="M1158.57,-274.73C1158.57,-214.31 1158.57,-16 1158.57,-16 1158.57,-16 801.54,-16 801.54,-16"/>
<polygon fill="black" stroke="black" points="801.54,-12.5 791.54,-16 801.54,-19.5 801.54,-12.5"/>
</g>
<!-- :data:wikimedia&#45;&gt;:shared:domain -->
<g id="edge52" class="edge">
<title>:data:wikimedia&#45;&gt;:shared:domain</title>
<path fill="none" stroke="black" stroke-dasharray="1,5" d="M213.37,-138.01C213.37,-112.95 213.37,-69 213.37,-69 213.37,-69 1379.44,-69 1379.44,-69 1379.44,-69 1379.44,-37.83 1379.44,-37.83"/>
<polygon fill="black" stroke="black" points="1382.94,-37.83 1379.44,-27.83 1375.94,-37.83 1382.94,-37.83"/>
</g>
<!-- :data:wikimedia&#45;&gt;:core:logging:api -->
<g id="edge53" class="edge">
<title>:data:wikimedia&#45;&gt;:core:logging:api</title>
<path fill="none" stroke="black" stroke-dasharray="1,5" d="M269.7,-137.93C269.7,-101.2 269.7,-18 269.7,-18 269.7,-18 604.96,-18 604.96,-18"/>
<polygon fill="black" stroke="black" points="604.96,-21.5 614.96,-18 604.96,-14.5 604.96,-21.5"/>
</g>
<!-- :shared:feature:collections&#45;&gt;:shared:domain -->
<g id="edge56" class="edge">
<title>:shared:feature:collections&#45;&gt;:shared:domain</title>
<path fill="none" stroke="black" stroke-dasharray="1,5" d="M2043.97,-829.18C2043.97,-733.17 2043.97,-31 2043.97,-31 2043.97,-31 1516.8,-31 1516.8,-31"/>
<polygon fill="black" stroke="black" points="1516.8,-27.5 1506.8,-31 1516.8,-34.5 1516.8,-27.5"/>
</g>
<!-- :shared:feature:collections&#45;&gt;:ui:common -->
<g id="edge55" class="edge">
<title>:shared:feature:collections&#45;&gt;:ui:common</title>
<path fill="none" stroke="black" stroke-dasharray="1,5" d="M2151.54,-821.81C2151.54,-821.81 2151.54,-731.27 2151.54,-731.27"/>
<polygon fill="black" stroke="black" points="2155.04,-731.27 2151.54,-721.27 2148.04,-731.27 2155.04,-731.27"/>
</g>
<!-- :shared:feature:collections&#45;&gt;:ui:test:screenshot -->
<g id="edge54" class="edge">
<title>:shared:feature:collections&#45;&gt;:ui:test:screenshot</title>
<path fill="none" stroke="#ff9ab1" stroke-dasharray="1,5" d="M2285.46,-840C2315.79,-840 2339.25,-840 2339.25,-840 2339.25,-840 2339.25,-585.12 2339.25,-585.12"/>
<polygon fill="#ff9ab1" stroke="#ff9ab1" points="2342.75,-585.12 2339.25,-575.12 2335.75,-585.12 2342.75,-585.12"/>
</g>
<!-- :shared:feature:database&#45;&gt;:shared:domain -->
<g id="edge60" class="edge">
<title>:shared:feature:database&#45;&gt;:shared:domain</title>
<path fill="none" stroke="black" stroke-dasharray="1,5" d="M925.52,-823.46C925.52,-754.94 925.52,-497 925.52,-497 925.52,-497 1441.66,-497 1441.66,-497 1441.66,-497 1441.66,-46.19 1441.66,-46.19"/>
<polygon fill="black" stroke="black" points="1445.16,-46.19 1441.66,-36.19 1438.16,-46.19 1445.16,-46.19"/>
</g>
<!-- :shared:feature:database&#45;&gt;:ui:common -->
<g id="edge59" class="edge">
<title>:shared:feature:database&#45;&gt;:ui:common</title>
<path fill="none" stroke="black" stroke-dasharray="1,5" d="M975.36,-829.25C975.36,-796.95 975.36,-703 975.36,-703 975.36,-703 2077.05,-703 2077.05,-703"/>
<polygon fill="black" stroke="black" points="2077.05,-706.5 2087.05,-703 2077.05,-699.5 2077.05,-706.5"/>
</g>
<!-- :shared:feature:database&#45;&gt;:ui:test:screenshot -->
<g id="edge58" class="edge">
<title>:shared:feature:database&#45;&gt;:ui:test:screenshot</title>
<path fill="none" stroke="#ff9ab1" stroke-dasharray="1,5" d="M900.6,-822.06C900.6,-792.55 900.6,-737 900.6,-737 900.6,-737 2330.88,-737 2330.88,-737 2330.88,-737 2330.88,-581.31 2330.88,-581.31"/>
<polygon fill="#ff9ab1" stroke="#ff9ab1" points="2334.38,-581.31 2330.88,-571.31 2327.38,-581.31 2334.38,-581.31"/>
</g>
<!-- :shared:feature:database&#45;&gt;:test&#45;data -->
<g id="edge57" class="edge">
<title>:shared:feature:database&#45;&gt;:test&#45;data</title>
<path fill="none" stroke="#ff9ab1" stroke-dasharray="1,5" d="M950.44,-825.43C950.44,-769.14 950.44,-569 950.44,-569 950.44,-569 1045.89,-569 1045.89,-569"/>
<polygon fill="#ff9ab1" stroke="#ff9ab1" points="1045.89,-572.5 1055.89,-569 1045.89,-565.5 1045.89,-572.5"/>
</g>
<!-- :shared:feature:graph&#45;&gt;:shared:domain -->
<g id="edge63" class="edge">
<title>:shared:feature:graph&#45;&gt;:shared:domain</title>
<path fill="none" stroke="black" stroke-dasharray="1,5" d="M3527.76,-824.14C3527.76,-709.26 3527.76,-9 3527.76,-9 3527.76,-9 1531.07,-9 1531.07,-9"/>
<polygon fill="black" stroke="black" points="1531.07,-5.5 1521.07,-9 1531.07,-12.5 1531.07,-5.5"/>
</g>
<!-- :shared:feature:graph&#45;&gt;:ui:common -->
<g id="edge62" class="edge">
<title>:shared:feature:graph&#45;&gt;:ui:common</title>
<path fill="none" stroke="black" stroke-dasharray="1,5" d="M3415.32,-824.33C3415.32,-787.97 3415.32,-701 3415.32,-701 3415.32,-701 2225.51,-701 2225.51,-701"/>
<polygon fill="black" stroke="black" points="2225.51,-697.5 2215.51,-701 2225.51,-704.5 2225.51,-697.5"/>
</g>
<!-- :shared:feature:graph&#45;&gt;:ui:test:screenshot -->
<g id="edge61" class="edge">
<title>:shared:feature:graph&#45;&gt;:ui:test:screenshot</title>
<path fill="none" stroke="#ff9ab1" stroke-dasharray="1,5" d="M3471.54,-821.63C3471.54,-759.34 3471.54,-560 3471.54,-560 3471.54,-560 2525.16,-560 2525.16,-560"/>
<polygon fill="#ff9ab1" stroke="#ff9ab1" points="2525.16,-556.5 2515.16,-560 2525.16,-563.5 2525.16,-556.5"/>
</g>
<!-- :shared:feature:history&#45;&gt;:shared:domain -->
<g id="edge67" class="edge">
<title>:shared:feature:history&#45;&gt;:shared:domain</title>
<path fill="none" stroke="black" stroke-dasharray="1,5" d="M1253.28,-840C1255.53,-840 1256.78,-840 1256.78,-840 1256.78,-840 1256.78,-32 1256.78,-32 1256.78,-32 1387.63,-32 1387.63,-32"/>
<polygon fill="black" stroke="black" points="1387.63,-35.5 1397.63,-32 1387.63,-28.5 1387.63,-35.5"/>
</g>
<!-- :shared:feature:history&#45;&gt;:ui:common -->
<g id="edge66" class="edge">
<title>:shared:feature:history&#45;&gt;:ui:common</title>
<path fill="none" stroke="black" stroke-dasharray="1,5" d="M1222.21,-827.63C1222.21,-794.46 1222.21,-706 1222.21,-706 1222.21,-706 2078.03,-706 2078.03,-706"/>
<polygon fill="black" stroke="black" points="2078.03,-709.5 2088.03,-706 2078.03,-702.5 2078.03,-709.5"/>
</g>
<!-- :shared:feature:history&#45;&gt;:ui:test:screenshot -->
<g id="edge65" class="edge">
<title>:shared:feature:history&#45;&gt;:ui:test:screenshot</title>
<path fill="none" stroke="#ff9ab1" stroke-dasharray="1,5" d="M1194,-824.23C1194,-799.4 1194,-754 1194,-754 1194,-754 2332.98,-754 2332.98,-754 2332.98,-754 2332.98,-582.69 2332.98,-582.69"/>
<polygon fill="#ff9ab1" stroke="#ff9ab1" points="2336.48,-582.69 2332.98,-572.69 2329.48,-582.69 2336.48,-582.69"/>
</g>
<!-- :shared:feature:history&#45;&gt;:test&#45;data -->
<g id="edge64" class="edge">
<title>:shared:feature:history&#45;&gt;:test&#45;data</title>
<path fill="none" stroke="#ff9ab1" stroke-dasharray="1,5" d="M1082.91,-823.68C1082.91,-823.68 1082.91,-591.89 1082.91,-591.89"/>
<polygon fill="#ff9ab1" stroke="#ff9ab1" points="1086.41,-591.89 1082.91,-581.89 1079.41,-591.89 1086.41,-591.89"/>
</g>
<!-- :shared:feature:images&#45;&gt;:shared:domain -->
<g id="edge71" class="edge">
<title>:shared:feature:images&#45;&gt;:shared:domain</title>
<path fill="none" stroke="black" stroke-dasharray="1,5" d="M3052.4,-826.42C3052.4,-719.54 3052.4,-18 3052.4,-18 3052.4,-18 1542.34,-18 1542.34,-18"/>
<polygon fill="black" stroke="black" points="1542.34,-14.5 1532.34,-18 1542.34,-21.5 1542.34,-14.5"/>
</g>
<!-- :shared:feature:images&#45;&gt;:ui:common -->
<g id="edge72" class="edge">
<title>:shared:feature:images&#45;&gt;:ui:common</title>
<path fill="none" stroke="black" stroke-dasharray="1,5" d="M2934.11,-822.87C2934.11,-787.36 2934.11,-709 2934.11,-709 2934.11,-709 2222.29,-709 2222.29,-709"/>
<polygon fill="black" stroke="black" points="2222.29,-705.5 2212.29,-709 2222.29,-712.5 2222.29,-705.5"/>
</g>
<!-- :shared:feature:images&#45;&gt;:ui:test:screenshot -->
<g id="edge70" class="edge">
<title>:shared:feature:images&#45;&gt;:ui:test:screenshot</title>
<path fill="none" stroke="#ff9ab1" stroke-dasharray="1,5" d="M2973.54,-822C2973.54,-761.91 2973.54,-572 2973.54,-572 2973.54,-572 2524.98,-572 2524.98,-572"/>
<polygon fill="#ff9ab1" stroke="#ff9ab1" points="2524.98,-568.5 2514.98,-572 2524.98,-575.5 2524.98,-568.5"/>
</g>
<!-- :shared:feature:images&#45;&gt;:test&#45;data -->
<g id="edge69" class="edge">
<title>:shared:feature:images&#45;&gt;:test&#45;data</title>
<path fill="none" stroke="#ff9ab1" stroke-dasharray="1,5" d="M2894.68,-826.57C2894.68,-816.7 2894.68,-805 2894.68,-805 2894.68,-805 1110.54,-805 1110.54,-805 1110.54,-805 1110.54,-594.36 1110.54,-594.36"/>
<polygon fill="#ff9ab1" stroke="#ff9ab1" points="1114.04,-594.36 1110.54,-584.36 1107.04,-594.36 1114.04,-594.36"/>
</g>
<!-- :test:image -->
<g id="node28" class="node">
<title>:test:image</title>
<ellipse fill="#9affb5" stroke="black" cx="2423.54" cy="-429" rx="63.09" ry="18"/>
<text text-anchor="middle" x="2423.54" y="-425.3" font-family="Times,serif" font-size="14.00">:test:image</text>
</g>
<!-- :shared:feature:images&#45;&gt;:test:image -->
<g id="edge68" class="edge">
<title>:shared:feature:images&#45;&gt;:test:image</title>
<path fill="none" stroke="black" stroke-dasharray="1,5" d="M3012.97,-822.86C3012.97,-745.08 3012.97,-429 3012.97,-429 3012.97,-429 2496.62,-429 2496.62,-429"/>
<polygon fill="black" stroke="black" points="2496.62,-425.5 2486.62,-429 2496.62,-432.5 2496.62,-425.5"/>
</g>
<!-- :shared:feature:search&#45;&gt;:shared:domain -->
<g id="edge75" class="edge">
<title>:shared:feature:search&#45;&gt;:shared:domain</title>
<path fill="none" stroke="black" stroke-dasharray="1,5" d="M3283.38,-824.22C3283.38,-709.89 3283.38,-13 3283.38,-13 3283.38,-13 1538.92,-13 1538.92,-13"/>
<polygon fill="black" stroke="black" points="1538.92,-9.5 1528.92,-13 1538.92,-16.5 1538.92,-9.5"/>
</g>
<!-- :shared:feature:search&#45;&gt;:ui:common -->
<g id="edge74" class="edge">
<title>:shared:feature:search&#45;&gt;:ui:common</title>
<path fill="none" stroke="black" stroke-dasharray="1,5" d="M3167.69,-824.25C3167.69,-788.64 3167.69,-705 3167.69,-705 3167.69,-705 2225.49,-705 2225.49,-705"/>
<polygon fill="black" stroke="black" points="2225.49,-701.5 2215.49,-705 2225.49,-708.5 2225.49,-701.5"/>
</g>
<!-- :shared:feature:search&#45;&gt;:ui:test:screenshot -->
<g id="edge73" class="edge">
<title>:shared:feature:search&#45;&gt;:ui:test:screenshot</title>
<path fill="none" stroke="#ff9ab1" stroke-dasharray="1,5" d="M3225.54,-821.6C3225.54,-760.16 3225.54,-566 3225.54,-566 3225.54,-566 2530.68,-566 2530.68,-566"/>
<polygon fill="#ff9ab1" stroke="#ff9ab1" points="2530.68,-562.5 2520.68,-566 2530.68,-569.5 2530.68,-562.5"/>
</g>
<!-- :shared:feature:settings&#45;&gt;:shared:domain -->
<g id="edge78" class="edge">
<title>:shared:feature:settings&#45;&gt;:shared:domain</title>
<path fill="none" stroke="black" stroke-dasharray="1,5" d="M2553.05,-827.56C2553.05,-725.27 2553.05,-27 2553.05,-27 2553.05,-27 1531.09,-27 1531.09,-27"/>
<polygon fill="black" stroke="black" points="1531.09,-23.5 1521.09,-27 1531.09,-30.5 1531.09,-23.5"/>
</g>
<!-- :shared:feature:settings&#45;&gt;:ui:common -->
<g id="edge77" class="edge">
<title>:shared:feature:settings&#45;&gt;:ui:common</title>
<path fill="none" stroke="black" stroke-dasharray="1,5" d="M2401.02,-824.42C2401.02,-791.32 2401.02,-717 2401.02,-717 2401.02,-717 2202.18,-717 2202.18,-717"/>
<polygon fill="black" stroke="black" points="2202.18,-713.5 2192.18,-717 2202.18,-720.5 2202.18,-713.5"/>
</g>
<!-- :shared:feature:settings&#45;&gt;:ui:test:screenshot -->
<g id="edge76" class="edge">
<title>:shared:feature:settings&#45;&gt;:ui:test:screenshot</title>
<path fill="none" stroke="#ff9ab1" stroke-dasharray="1,5" d="M2460.7,-821.6C2460.7,-821.6 2460.7,-592.91 2460.7,-592.91"/>
<polygon fill="#ff9ab1" stroke="#ff9ab1" points="2464.2,-592.91 2460.7,-582.91 2457.2,-592.91 2464.2,-592.91"/>
</g>
<!-- :shared:feature:licenses&#45;&gt;:ui:common -->
<g id="edge79" class="edge">
<title>:shared:feature:licenses&#45;&gt;:ui:common</title>
<path fill="none" stroke="black" stroke-dasharray="1,5" d="M1877.54,-822C1877.54,-788.06 1877.54,-718 1877.54,-718 1877.54,-718 2105.72,-718 2105.72,-718"/>
<polygon fill="black" stroke="black" points="2105.72,-721.5 2115.72,-718 2105.72,-714.5 2105.72,-721.5"/>
</g>
<!-- :shared:feature:details&#45;&gt;:shared:domain -->
<g id="edge83" class="edge">
<title>:shared:feature:details&#45;&gt;:shared:domain</title>
<path fill="none" stroke="black" stroke-dasharray="1,5" d="M1478.99,-828.69C1478.99,-828.69 1478.99,-44.97 1478.99,-44.97"/>
<polygon fill="black" stroke="black" points="1482.49,-44.97 1478.99,-34.97 1475.49,-44.97 1482.49,-44.97"/>
</g>
<!-- :shared:feature:details&#45;&gt;:ui:common -->
<g id="edge82" class="edge">
<title>:shared:feature:details&#45;&gt;:ui:common</title>
<path fill="none" stroke="black" stroke-dasharray="1,5" d="M1491.43,-831.81C1491.43,-803.13 1491.43,-709 1491.43,-709 1491.43,-709 2080.62,-709 2080.62,-709"/>
<polygon fill="black" stroke="black" points="2080.62,-712.5 2090.62,-709 2080.62,-705.5 2080.62,-712.5"/>
</g>
<!-- :shared:feature:details&#45;&gt;:ui:test:screenshot -->
<g id="edge81" class="edge">
<title>:shared:feature:details&#45;&gt;:ui:test:screenshot</title>
<path fill="none" stroke="#ff9ab1" stroke-dasharray="1,5" d="M1391.88,-821.87C1391.88,-801.43 1391.88,-771 1391.88,-771 1391.88,-771 2335.07,-771 2335.07,-771 2335.07,-771 2335.07,-583.79 2335.07,-583.79"/>
<polygon fill="#ff9ab1" stroke="#ff9ab1" points="2338.57,-583.79 2335.07,-573.79 2331.57,-583.79 2338.57,-583.79"/>
</g>
<!-- :shared:feature:details&#45;&gt;:core:logging:api -->
<g id="edge84" class="edge">
<title>:shared:feature:details&#45;&gt;:core:logging:api</title>
<path fill="none" stroke="black" stroke-dasharray="1,5" d="M1319.1,-825.28C1319.1,-714.19 1319.1,-12 1319.1,-12 1319.1,-12 796.87,-12 796.87,-12"/>
<polygon fill="black" stroke="black" points="796.87,-8.5 786.87,-12 796.87,-15.5 796.87,-8.5"/>
</g>
<!-- :shared:feature:details&#45;&gt;:test&#45;data -->
<g id="edge80" class="edge">
<title>:shared:feature:details&#45;&gt;:test&#45;data</title>
<path fill="none" stroke="#ff9ab1" stroke-dasharray="1,5" d="M1295.15,-828.83C1295.15,-778.1 1295.15,-572 1295.15,-572 1295.15,-572 1172.94,-572 1172.94,-572"/>
<polygon fill="#ff9ab1" stroke="#ff9ab1" points="1172.94,-568.5 1162.94,-572 1172.94,-575.5 1172.94,-568.5"/>
</g>
<!-- :shared:feature:stats&#45;&gt;:shared:domain -->
<g id="edge87" class="edge">
<title>:shared:feature:stats&#45;&gt;:shared:domain</title>
<path fill="none" stroke="black" stroke-dasharray="1,5" d="M1525.12,-835.17C1525.12,-835.17 1525.12,-35.43 1525.12,-35.43"/>
<polygon fill="black" stroke="black" points="1528.62,-35.43 1525.12,-25.43 1521.62,-35.43 1528.62,-35.43"/>
</g>
<!-- :shared:feature:stats&#45;&gt;:ui:common -->
<g id="edge86" class="edge">
<title>:shared:feature:stats&#45;&gt;:ui:common</title>
<path fill="none" stroke="black" stroke-dasharray="1,5" d="M1668.98,-823.14C1668.98,-789.02 1668.98,-715 1668.98,-715 1668.98,-715 2093.5,-715 2093.5,-715"/>
<polygon fill="black" stroke="black" points="2093.5,-718.5 2103.5,-715 2093.5,-711.5 2093.5,-718.5"/>
</g>
<!-- :shared:feature:stats&#45;&gt;:ui:test:screenshot -->
<g id="edge85" class="edge">
<title>:shared:feature:stats&#45;&gt;:ui:test:screenshot</title>
<path fill="none" stroke="#ff9ab1" stroke-dasharray="1,5" d="M1600.53,-822.4C1600.53,-807.31 1600.53,-788 1600.53,-788 1600.53,-788 2337.16,-788 2337.16,-788 2337.16,-788 2337.16,-584.16 2337.16,-584.16"/>
<polygon fill="#ff9ab1" stroke="#ff9ab1" points="2340.66,-584.16 2337.16,-574.16 2333.66,-584.16 2340.66,-584.16"/>
</g>
<!-- :ui:common&#45;&gt;:shared:domain -->
<g id="edge91" class="edge">
<title>:ui:common&#45;&gt;:shared:domain</title>
<path fill="none" stroke="black" d="M2095.71,-694C1942.81,-694 1528.6,-694 1528.6,-694 1528.6,-694 1528.6,-33.44 1528.6,-33.44"/>
<polygon fill="black" stroke="black" points="1532.1,-33.44 1528.6,-23.44 1525.1,-33.44 1532.1,-33.44"/>
</g>
<!-- :ui:common&#45;&gt;:ui:test:screenshot -->
<g id="edge90" class="edge">
<title>:ui:common&#45;&gt;:ui:test:screenshot</title>
<path fill="none" stroke="#ff9ab1" stroke-dasharray="1,5" d="M2205.2,-693C2257.37,-693 2328.79,-693 2328.79,-693 2328.79,-693 2328.79,-579.94 2328.79,-579.94"/>
<polygon fill="#ff9ab1" stroke="#ff9ab1" points="2332.29,-579.94 2328.79,-569.94 2325.29,-579.94 2332.29,-579.94"/>
</g>
<!-- :ui:common&#45;&gt;:core:logging:api -->
<g id="edge93" class="edge">
<title>:ui:common&#45;&gt;:core:logging:api</title>
<path fill="none" stroke="black" stroke-dasharray="1,5" d="M2090.77,-697C1902.74,-697 1343.04,-697 1343.04,-697 1343.04,-697 1343.04,-8 1343.04,-8 1343.04,-8 787.21,-8 787.21,-8"/>
<polygon fill="black" stroke="black" points="787.21,-4.5 777.21,-8 787.21,-11.5 787.21,-4.5"/>
</g>
<!-- :ui:common&#45;&gt;:test&#45;data -->
<g id="edge89" class="edge">
<title>:ui:common&#45;&gt;:test&#45;data</title>
<path fill="none" stroke="#ff9ab1" stroke-dasharray="1,5" d="M2087.76,-700C1865.45,-700 1138.16,-700 1138.16,-700 1138.16,-700 1138.16,-591.63 1138.16,-591.63"/>
<polygon fill="#ff9ab1" stroke="#ff9ab1" points="1141.66,-591.63 1138.16,-581.63 1134.66,-591.63 1141.66,-591.63"/>
</g>
<!-- :ui:common&#45;&gt;:test:image -->
<g id="edge88" class="edge">
<title>:ui:common&#45;&gt;:test:image</title>
<path fill="none" stroke="black" stroke-dasharray="1,5" d="M2192.14,-689C2237.92,-689 2306.06,-689 2306.06,-689 2306.06,-689 2306.06,-442 2306.06,-442 2306.06,-442 2369.79,-442 2369.79,-442"/>
<polygon fill="black" stroke="black" points="2369.79,-445.5 2379.79,-442 2369.79,-438.5 2369.79,-445.5"/>
</g>
<!-- :shared:strings -->
<g id="node29" class="node">
<title>:shared:strings</title>
<ellipse fill="#b59aff" stroke="black" cx="2151.54" cy="-566" rx="81.49" ry="18"/>
<text text-anchor="middle" x="2151.54" y="-562.3" font-family="Times,serif" font-size="14.00">:shared:strings</text>
</g>
<!-- :ui:common&#45;&gt;:shared:strings -->
<g id="edge92" class="edge">
<title>:ui:common&#45;&gt;:shared:strings</title>
<path fill="none" stroke="black" d="M2151.54,-684.81C2151.54,-684.81 2151.54,-594.27 2151.54,-594.27"/>
<polygon fill="black" stroke="black" points="2155.04,-594.27 2151.54,-584.27 2148.04,-594.27 2155.04,-594.27"/>
</g>
<!-- :ui:test:screenshot&#45;&gt;:test:image -->
<g id="edge94" class="edge">
<title>:ui:test:screenshot&#45;&gt;:test:image</title>
<path fill="none" stroke="black" stroke-dasharray="1,5" d="M2423.54,-547.81C2423.54,-547.81 2423.54,-457.27 2423.54,-457.27"/>
<polygon fill="black" stroke="black" points="2427.04,-457.27 2423.54,-447.27 2420.04,-457.27 2427.04,-457.27"/>
</g>
<!-- :test&#45;data&#45;&gt;:shared:domain -->
<g id="edge95" class="edge">
<title>:test&#45;data&#45;&gt;:shared:domain</title>
<path fill="none" stroke="black" stroke-dasharray="1,5" d="M1162.72,-560C1258.83,-560 1454.1,-560 1454.1,-560 1454.1,-560 1454.1,-46.03 1454.1,-46.03"/>
<polygon fill="black" stroke="black" points="1457.6,-46.03 1454.1,-36.03 1450.6,-46.03 1457.6,-46.03"/>
</g>
<!-- :test&#45;data&#45;&gt;:data:coverart -->
<g id="edge98" class="edge">
<title>:test&#45;data&#45;&gt;:data:coverart</title>
<path fill="none" stroke="black" stroke-dasharray="1,5" d="M1095.14,-548.61C1095.14,-512.56 1095.14,-433 1095.14,-433 1095.14,-433 875.05,-433 875.05,-433"/>
<polygon fill="black" stroke="black" points="875.05,-429.5 865.05,-433 875.05,-436.5 875.05,-429.5"/>
</g>
<!-- :test&#45;data&#45;&gt;:data:database -->
<g id="edge96" class="edge">
<title>:test&#45;data&#45;&gt;:data:database</title>
<path fill="none" stroke="black" stroke-dasharray="1,5" d="M1066.75,-555C1040.44,-555 1012.02,-555 1012.02,-555 1012.02,-555 1012.02,-309.31 1012.02,-309.31"/>
<polygon fill="black" stroke="black" points="1015.52,-309.31 1012.02,-299.31 1008.52,-309.31 1015.52,-309.31"/>
</g>
<!-- :test&#45;data&#45;&gt;:data:musicbrainz -->
<g id="edge97" class="edge">
<title>:test&#45;data&#45;&gt;:data:musicbrainz</title>
<path fill="none" stroke="black" stroke-dasharray="1,5" d="M1064.45,-576C1054.13,-576 1046.18,-576 1046.18,-576 1046.18,-576 1046.18,-174.58 1046.18,-174.58"/>
<polygon fill="black" stroke="black" points="1049.68,-174.58 1046.18,-164.58 1042.68,-174.58 1049.68,-174.58"/>
</g>
<!-- :test&#45;data&#45;&gt;:data:spotify -->
<g id="edge99" class="edge">
<title>:test&#45;data&#45;&gt;:data:spotify</title>
<path fill="none" stroke="black" stroke-dasharray="1,5" d="M1139.21,-550.48C1139.21,-550.48 1139.21,-316.35 1139.21,-316.35"/>
<polygon fill="black" stroke="black" points="1142.71,-316.35 1139.21,-306.35 1135.71,-316.35 1142.71,-316.35"/>
</g>
</g>
</svg>
