<?xml version="1.0" encoding="UTF-8" standalone="no"?>
<!DOCTYPE svg PUBLIC "-//W3C//DTD SVG 1.1//EN"
 "http://www.w3.org/Graphics/SVG/1.1/DTD/svg11.dtd">
<!-- Generated by graphviz version 2.43.0 (0)
 -->
<!-- Title: %3 Pages: 1 -->
<svg width="340pt" height="172pt"
 viewBox="0.00 0.00 340.38 172.00" xmlns="http://www.w3.org/2000/svg" xmlns:xlink="http://www.w3.org/1999/xlink">
<g id="graph0" class="graph" transform="scale(1 1) rotate(0) translate(4 168)">
<title>%3</title>
<polygon fill="white" stroke="transparent" points="-4,4 -4,-168 336.38,-168 336.38,4 -4,4"/>
<text text-anchor="middle" x="166.19" y="-136" font-family="Times,serif" font-size="30.00">Dependents</text>
<text text-anchor="middle" x="166.19" y="-103" font-family="Times,serif" font-size="30.00"> </text>
<!-- :shared -->
<g id="node1" class="node">
<title>:shared</title>
<ellipse fill="#b59aff" stroke="black" cx="45.5" cy="-45" rx="45.49" ry="18"/>
<text text-anchor="middle" x="45.5" y="-41.3" font-family="Times,serif" font-size="14.00">:shared</text>
</g>
<!-- :desktop:app -->
<g id="node2" class="node">
<title>:desktop:app</title>
<ellipse fill="#9affb5" stroke="black" cx="262.19" cy="-72" rx="70.39" ry="18"/>
<text text-anchor="middle" x="262.19" y="-68.3" font-family="Times,serif" font-size="14.00">:desktop:app</text>
</g>
<!-- :desktop:app&#45;&gt;:shared -->
<g id="edge1" class="edge">
<title>:desktop:app&#45;&gt;:shared</title>
<path fill="none" stroke="black" stroke-dasharray="1,5" d="M215.7,-58.5C215.7,-58.5 85.9,-58.5 85.9,-58.5"/>
<polygon fill="black" stroke="black" points="85.9,-55 75.9,-58.5 85.9,-62 85.9,-55"/>
</g>
<!-- :android:app -->
<g id="node3" class="node">
<title>:android:app</title>
<ellipse fill="#9affb5" stroke="black" cx="262.19" cy="-18" rx="69.59" ry="18"/>
<text text-anchor="middle" x="262.19" y="-14.3" font-family="Times,serif" font-size="14.00">:android:app</text>
</g>
<!-- :android:app&#45;&gt;:shared -->
<g id="edge2" class="edge">
<title>:android:app&#45;&gt;:shared</title>
<path fill="none" stroke="black" stroke-dasharray="1,5" d="M215.97,-31.5C215.97,-31.5 85.66,-31.5 85.66,-31.5"/>
<polygon fill="black" stroke="black" points="85.66,-28 75.66,-31.5 85.66,-35 85.66,-28"/>
</g>
</g>
</svg>
