<?xml version="1.0" encoding="UTF-8" standalone="no"?>
<!DOCTYPE svg PUBLIC "-//W3C//DTD SVG 1.1//EN"
 "http://www.w3.org/Graphics/SVG/1.1/DTD/svg11.dtd">
<!-- Generated by graphviz version 2.43.0 (0)
 -->
<!-- Title: %3 Pages: 1 -->
<svg width="466pt" height="172pt"
 viewBox="0.00 0.00 466.09 172.00" xmlns="http://www.w3.org/2000/svg" xmlns:xlink="http://www.w3.org/1999/xlink">
<g id="graph0" class="graph" transform="scale(1 1) rotate(0) translate(4 168)">
<title>%3</title>
<polygon fill="white" stroke="transparent" points="-4,4 -4,-168 462.09,-168 462.09,4 -4,4"/>
<text text-anchor="middle" x="229.04" y="-136" font-family="Times,serif" font-size="30.00">Dependents</text>
<text text-anchor="middle" x="229.04" y="-103" font-family="Times,serif" font-size="30.00"> </text>
<!-- :android:feature:nowplaying -->
<g id="node1" class="node">
<title>:android:feature:nowplaying</title>
<polygon fill="#9affb5" stroke="black" points="218,-63 0,-63 0,-27 218,-27 218,-63"/>
<text text-anchor="middle" x="109" y="-41.3" font-family="Times,serif" font-size="14.00">:android:feature:nowplaying</text>
</g>
<!-- :shared -->
<g id="node2" class="node">
<title>:shared</title>
<ellipse fill="#b59aff" stroke="black" cx="388.54" cy="-72" rx="45.49" ry="18"/>
<text text-anchor="middle" x="388.54" y="-68.3" font-family="Times,serif" font-size="14.00">:shared</text>
</g>
<!-- :shared&#45;&gt;:android:feature:nowplaying -->
<g id="edge1" class="edge">
<title>:shared&#45;&gt;:android:feature:nowplaying</title>
<path fill="none" stroke="black" stroke-dasharray="1,5" d="M358.36,-58.5C358.36,-58.5 228.26,-58.5 228.26,-58.5"/>
<polygon fill="black" stroke="black" points="228.26,-55 218.26,-58.5 228.26,-62 228.26,-55"/>
</g>
<!-- :android:app -->
<g id="node3" class="node">
<title>:android:app</title>
<ellipse fill="#9affb5" stroke="black" cx="388.54" cy="-18" rx="69.59" ry="18"/>
<text text-anchor="middle" x="388.54" y="-14.3" font-family="Times,serif" font-size="14.00">:android:app</text>
</g>
<!-- :android:app&#45;&gt;:android:feature:nowplaying -->
<g id="edge2" class="edge">
<title>:android:app&#45;&gt;:android:feature:nowplaying</title>
<path fill="none" stroke="black" stroke-dasharray="1,5" d="M342.38,-31.5C342.38,-31.5 228.04,-31.5 228.04,-31.5"/>
<polygon fill="black" stroke="black" points="228.04,-28 218.04,-31.5 228.04,-35 228.04,-28"/>
</g>
</g>
</svg>
