<?xml version="1.0" encoding="UTF-8" standalone="no"?>
<!DOCTYPE svg PUBLIC "-//W3C//DTD SVG 1.1//EN"
 "http://www.w3.org/Graphics/SVG/1.1/DTD/svg11.dtd">
<!-- Generated by graphviz version 2.43.0 (0)
 -->
<!-- Title: %3 Pages: 1 -->
<svg width="1112pt" height="666pt"
 viewBox="0.00 0.00 1112.38 666.00" xmlns="http://www.w3.org/2000/svg" xmlns:xlink="http://www.w3.org/1999/xlink">
<g id="graph0" class="graph" transform="scale(1 1) rotate(0) translate(4 662)">
<title>%3</title>
<polygon fill="white" stroke="transparent" points="-4,4 -4,-662 1108.38,-662 1108.38,4 -4,4"/>
<text text-anchor="middle" x="552.19" y="-630" font-family="Times,serif" font-size="30.00">Dependencies</text>
<text text-anchor="middle" x="552.19" y="-597" font-family="Times,serif" font-size="30.00"> </text>
<!-- :android:feature:nowplaying -->
<g id="node1" class="node">
<title>:android:feature:nowplaying</title>
<polygon fill="#9affb5" stroke="black" points="319.54,-584 101.54,-584 101.54,-548 319.54,-548 319.54,-584"/>
<text text-anchor="middle" x="210.54" y="-562.3" font-family="Times,serif" font-size="14.00">:android:feature:nowplaying</text>
</g>
<!-- :core:models -->
<g id="node2" class="node">
<title>:core:models</title>
<ellipse fill="#b59aff" stroke="black" cx="425.54" cy="-18" rx="69.59" ry="18"/>
<text text-anchor="middle" x="425.54" y="-14.3" font-family="Times,serif" font-size="14.00">:core:models</text>
</g>
<!-- :android:feature:nowplaying&#45;&gt;:core:models -->
<g id="edge1" class="edge">
<title>:android:feature:nowplaying&#45;&gt;:core:models</title>
<path fill="none" stroke="black" stroke-dasharray="1,5" d="M272.77,-547.56C272.77,-476.31 272.77,-223 272.77,-223 272.77,-223 428,-223 428,-223 428,-223 428,-46.19 428,-46.19"/>
<polygon fill="black" stroke="black" points="431.5,-46.19 428,-36.19 424.5,-46.19 431.5,-46.19"/>
</g>
<!-- :shared:domain -->
<g id="node3" class="node">
<title>:shared:domain</title>
<ellipse fill="#b59aff" stroke="black" cx="82.54" cy="-155" rx="82.59" ry="18"/>
<text text-anchor="middle" x="82.54" y="-151.3" font-family="Times,serif" font-size="14.00">:shared:domain</text>
</g>
<!-- :android:feature:nowplaying&#45;&gt;:shared:domain -->
<g id="edge2" class="edge">
<title>:android:feature:nowplaying&#45;&gt;:shared:domain</title>
<path fill="none" stroke="black" stroke-dasharray="1,5" d="M101.34,-566C63.71,-566 30.83,-566 30.83,-566 30.83,-566 30.83,-179.15 30.83,-179.15"/>
<polygon fill="black" stroke="black" points="34.33,-179.15 30.83,-169.15 27.33,-179.15 34.33,-179.15"/>
</g>
<!-- :ui:common -->
<g id="node4" class="node">
<title>:ui:common</title>
<ellipse fill="#b59aff" stroke="black" cx="455.54" cy="-429" rx="64.19" ry="18"/>
<text text-anchor="middle" x="455.54" y="-425.3" font-family="Times,serif" font-size="14.00">:ui:common</text>
</g>
<!-- :android:feature:nowplaying&#45;&gt;:ui:common -->
<g id="edge3" class="edge">
<title>:android:feature:nowplaying&#45;&gt;:ui:common</title>
<path fill="none" stroke="black" stroke-dasharray="1,5" d="M310.25,-547.93C310.25,-512.65 310.25,-438 310.25,-438 310.25,-438 389.78,-438 389.78,-438"/>
<polygon fill="black" stroke="black" points="389.78,-441.5 399.78,-438 389.78,-434.5 389.78,-441.5"/>
</g>
<!-- :ui:test:screenshot -->
<g id="node5" class="node">
<title>:ui:test:screenshot</title>
<ellipse fill="#9affb5" stroke="black" cx="1007.54" cy="-292" rx="96.68" ry="18"/>
<text text-anchor="middle" x="1007.54" y="-288.3" font-family="Times,serif" font-size="14.00">:ui:test:screenshot</text>
</g>
<!-- :android:feature:nowplaying&#45;&gt;:ui:test:screenshot -->
<g id="edge4" class="edge">
<title>:android:feature:nowplaying&#45;&gt;:ui:test:screenshot</title>
<path fill="none" stroke="#ff9ab1" stroke-dasharray="1,5" d="M319.81,-566C544.99,-566 1039.82,-566 1039.82,-566 1039.82,-566 1039.82,-319.14 1039.82,-319.14"/>
<polygon fill="#ff9ab1" stroke="#ff9ab1" points="1043.32,-319.14 1039.82,-309.14 1036.32,-319.14 1043.32,-319.14"/>
</g>
<!-- :shared:domain&#45;&gt;:core:models -->
<g id="edge5" class="edge">
<title>:shared:domain&#45;&gt;:core:models</title>
<path fill="none" stroke="black" stroke-dasharray="1,5" d="M82.54,-136.89C82.54,-98.41 82.54,-12 82.54,-12 82.54,-12 349.81,-12 349.81,-12"/>
<polygon fill="black" stroke="black" points="349.81,-15.5 359.81,-12 349.81,-8.5 349.81,-15.5"/>
</g>
<!-- :ui:common&#45;&gt;:core:models -->
<g id="edge7" class="edge">
<title>:ui:common&#45;&gt;:core:models</title>
<path fill="none" stroke="black" d="M507.49,-418.25C507.49,-354.32 507.49,-27 507.49,-27 507.49,-27 495.96,-27 495.96,-27"/>
<polygon fill="black" stroke="black" points="495.96,-23.5 485.96,-27 495.96,-30.5 495.96,-23.5"/>
</g>
<!-- :ui:common&#45;&gt;:shared:domain -->
<g id="edge13" class="edge">
<title>:ui:common&#45;&gt;:shared:domain</title>
<path fill="none" stroke="black" stroke-dasharray="1,5" d="M390.94,-429C279.2,-429 61.67,-429 61.67,-429 61.67,-429 61.67,-182.56 61.67,-182.56"/>
<polygon fill="black" stroke="black" points="65.17,-182.56 61.67,-172.56 58.17,-182.56 65.17,-182.56"/>
</g>
<!-- :ui:common&#45;&gt;:ui:test:screenshot -->
<g id="edge6" class="edge">
<title>:ui:common&#45;&gt;:ui:test:screenshot</title>
<path fill="none" stroke="#ff9ab1" stroke-dasharray="1,5" d="M511.66,-438C646.04,-438 975.26,-438 975.26,-438 975.26,-438 975.26,-319.03 975.26,-319.03"/>
<polygon fill="#ff9ab1" stroke="#ff9ab1" points="978.76,-319.03 975.26,-309.03 971.76,-319.03 978.76,-319.03"/>
</g>
<!-- :ui:core -->
<g id="node6" class="node">
<title>:ui:core</title>
<ellipse fill="#b59aff" stroke="black" cx="881.54" cy="-155" rx="45.49" ry="18"/>
<text text-anchor="middle" x="881.54" y="-151.3" font-family="Times,serif" font-size="14.00">:ui:core</text>
</g>
<!-- :ui:common&#45;&gt;:ui:core -->
<g id="edge8" class="edge">
<title>:ui:common&#45;&gt;:ui:core</title>
<path fill="none" stroke="black" d="M519.94,-429C639.24,-429 882.59,-429 882.59,-429 882.59,-429 882.59,-183.4 882.59,-183.4"/>
<polygon fill="black" stroke="black" points="886.09,-183.4 882.59,-173.4 879.09,-183.4 886.09,-183.4"/>
</g>
<!-- :data:coverart -->
<g id="node7" class="node">
<title>:data:coverart</title>
<ellipse fill="#b59aff" stroke="black" cx="168.54" cy="-292" rx="76.09" ry="18"/>
<text text-anchor="middle" x="168.54" y="-288.3" font-family="Times,serif" font-size="14.00">:data:coverart</text>
</g>
<!-- :ui:common&#45;&gt;:data:coverart -->
<g id="edge9" class="edge">
<title>:ui:common&#45;&gt;:data:coverart</title>
<path fill="none" stroke="black" stroke-dasharray="1,5" d="M399.73,-420C317.41,-420 173.06,-420 173.06,-420 173.06,-420 173.06,-320.07 173.06,-320.07"/>
<polygon fill="black" stroke="black" points="176.56,-320.07 173.06,-310.07 169.56,-320.07 176.56,-320.07"/>
</g>
<!-- :data:musicbrainz -->
<g id="node8" class="node">
<title>:data:musicbrainz</title>
<ellipse fill="#b59aff" stroke="black" cx="394.54" cy="-292" rx="93.68" ry="18"/>
<text text-anchor="middle" x="394.54" y="-288.3" font-family="Times,serif" font-size="14.00">:data:musicbrainz</text>
</g>
<!-- :ui:common&#45;&gt;:data:musicbrainz -->
<g id="edge10" class="edge">
<title>:ui:common&#45;&gt;:data:musicbrainz</title>
<path fill="none" stroke="black" stroke-dasharray="1,5" d="M439.67,-411.37C439.67,-411.37 439.67,-317.86 439.67,-317.86"/>
<polygon fill="black" stroke="black" points="443.17,-317.86 439.67,-307.86 436.17,-317.86 443.17,-317.86"/>
</g>
<!-- :core:preferences -->
<g id="node9" class="node">
<title>:core:preferences</title>
<ellipse fill="#b59aff" stroke="black" cx="636.54" cy="-292" rx="91.78" ry="18"/>
<text text-anchor="middle" x="636.54" y="-288.3" font-family="Times,serif" font-size="14.00">:core:preferences</text>
</g>
<!-- :ui:common&#45;&gt;:core:preferences -->
<g id="edge11" class="edge">
<title>:ui:common&#45;&gt;:core:preferences</title>
<path fill="none" stroke="black" stroke-dasharray="1,5" d="M513.69,-421.24C513.69,-392.26 513.69,-292 513.69,-292 513.69,-292 534.69,-292 534.69,-292"/>
<polygon fill="black" stroke="black" points="534.69,-295.5 544.69,-292 534.69,-288.5 534.69,-295.5"/>
</g>
<!-- :core:logging:api -->
<g id="node10" class="node">
<title>:core:logging:api</title>
<ellipse fill="#b59aff" stroke="black" cx="309.54" cy="-155" rx="88.28" ry="18"/>
<text text-anchor="middle" x="309.54" y="-151.3" font-family="Times,serif" font-size="14.00">:core:logging:api</text>
</g>
<!-- :ui:common&#45;&gt;:core:logging:api -->
<g id="edge12" class="edge">
<title>:ui:common&#45;&gt;:core:logging:api</title>
<path fill="none" stroke="black" stroke-dasharray="1,5" d="M501.29,-416.15C501.29,-361.98 501.29,-155 501.29,-155 501.29,-155 408.12,-155 408.12,-155"/>
<polygon fill="black" stroke="black" points="408.12,-151.5 398.12,-155 408.12,-158.5 408.12,-151.5"/>
</g>
<!-- :ui:image -->
<g id="node11" class="node">
<title>:ui:image</title>
<ellipse fill="#b59aff" stroke="black" cx="800.54" cy="-292" rx="53.89" ry="18"/>
<text text-anchor="middle" x="800.54" y="-288.3" font-family="Times,serif" font-size="14.00">:ui:image</text>
</g>
<!-- :ui:common&#45;&gt;:ui:image -->
<g id="edge14" class="edge">
<title>:ui:common&#45;&gt;:ui:image</title>
<path fill="none" stroke="black" stroke-dasharray="1,5" d="M511.36,-420C609,-420 800.54,-420 800.54,-420 800.54,-420 800.54,-320.07 800.54,-320.07"/>
<polygon fill="black" stroke="black" points="804.04,-320.07 800.54,-310.07 797.04,-320.07 804.04,-320.07"/>
</g>
<!-- :ui:test:screenshot&#45;&gt;:ui:core -->
<g id="edge15" class="edge">
<title>:ui:test:screenshot&#45;&gt;:ui:core</title>
<path fill="none" stroke="black" stroke-dasharray="1,5" d="M918.87,-284.63C918.87,-284.63 918.87,-175.67 918.87,-175.67"/>
<polygon fill="black" stroke="black" points="922.37,-175.67 918.87,-165.67 915.37,-175.67 922.37,-175.67"/>
</g>
<!-- :test:image -->
<g id="node12" class="node">
<title>:test:image</title>
<ellipse fill="#9affb5" stroke="black" cx="1008.54" cy="-155" rx="63.09" ry="18"/>
<text text-anchor="middle" x="1008.54" y="-151.3" font-family="Times,serif" font-size="14.00">:test:image</text>
</g>
<!-- :ui:test:screenshot&#45;&gt;:test:image -->
<g id="edge16" class="edge">
<title>:ui:test:screenshot&#45;&gt;:test:image</title>
<path fill="none" stroke="black" stroke-dasharray="1,5" d="M1008.54,-273.81C1008.54,-273.81 1008.54,-183.27 1008.54,-183.27"/>
<polygon fill="black" stroke="black" points="1012.04,-183.27 1008.54,-173.27 1005.04,-183.27 1012.04,-183.27"/>
</g>
<!-- :shared:strings -->
<g id="node13" class="node">
<title>:shared:strings</title>
<ellipse fill="#b59aff" stroke="black" cx="881.54" cy="-18" rx="81.49" ry="18"/>
<text text-anchor="middle" x="881.54" y="-14.3" font-family="Times,serif" font-size="14.00">:shared:strings</text>
</g>
<!-- :ui:core&#45;&gt;:shared:strings -->
<g id="edge17" class="edge">
<title>:ui:core&#45;&gt;:shared:strings</title>
<path fill="none" stroke="black" d="M881.54,-136.81C881.54,-136.81 881.54,-46.27 881.54,-46.27"/>
<polygon fill="black" stroke="black" points="885.04,-46.27 881.54,-36.27 878.04,-46.27 885.04,-46.27"/>
</g>
<!-- :data:coverart&#45;&gt;:core:models -->
<g id="edge19" class="edge">
<title>:data:coverart&#45;&gt;:core:models</title>
<path fill="none" stroke="black" stroke-dasharray="1,5" d="M193.12,-274.83C193.12,-215.68 193.12,-24 193.12,-24 193.12,-24 349.87,-24 349.87,-24"/>
<polygon fill="black" stroke="black" points="349.87,-27.5 359.87,-24 349.87,-20.5 349.87,-27.5"/>
</g>
<!-- :data:coverart&#45;&gt;:shared:domain -->
<g id="edge20" class="edge">
<title>:data:coverart&#45;&gt;:shared:domain</title>
<path fill="none" stroke="black" stroke-dasharray="1,5" d="M128.79,-276.55C128.79,-276.55 128.79,-180.18 128.79,-180.18"/>
<polygon fill="black" stroke="black" points="132.29,-180.18 128.79,-170.18 125.29,-180.18 132.29,-180.18"/>
</g>
<!-- :data:coverart&#45;&gt;:core:logging:api -->
<g id="edge18" class="edge">
<title>:data:coverart&#45;&gt;:core:logging:api</title>
<path fill="none" stroke="black" stroke-dasharray="1,5" d="M232.87,-282.15C232.87,-282.15 232.87,-174.04 232.87,-174.04"/>
<polygon fill="black" stroke="black" points="236.37,-174.04 232.87,-164.04 229.37,-174.04 236.37,-174.04"/>
</g>
<!-- :data:musicbrainz&#45;&gt;:core:models -->
<g id="edge22" class="edge">
<title>:data:musicbrainz&#45;&gt;:core:models</title>
<path fill="none" stroke="black" stroke-dasharray="1,5" d="M458.07,-278.41C458.07,-278.41 458.07,-44.03 458.07,-44.03"/>
<polygon fill="black" stroke="black" points="461.57,-44.03 458.07,-34.03 454.57,-44.03 461.57,-44.03"/>
</g>
<!-- :data:musicbrainz&#45;&gt;:core:logging:api -->
<g id="edge21" class="edge">
<title>:data:musicbrainz&#45;&gt;:core:logging:api</title>
<path fill="none" stroke="black" stroke-dasharray="1,5" d="M349.44,-276.02C349.44,-276.02 349.44,-181.31 349.44,-181.31"/>
<polygon fill="black" stroke="black" points="352.94,-181.31 349.44,-171.31 345.94,-181.31 352.94,-181.31"/>
</g>
<!-- :core:preferences&#45;&gt;:core:models -->
<g id="edge24" class="edge">
<title>:core:preferences&#45;&gt;:core:models</title>
<path fill="none" stroke="black" stroke-dasharray="1,5" d="M721.43,-284.95C721.43,-242.06 721.43,-18 721.43,-18 721.43,-18 505.29,-18 505.29,-18"/>
<polygon fill="black" stroke="black" points="505.29,-14.5 495.29,-18 505.29,-21.5 505.29,-14.5"/>
</g>
<!-- :core:coroutines -->
<g id="node14" class="node">
<title>:core:coroutines</title>
<ellipse fill="#b59aff" stroke="black" cx="629.54" cy="-155" rx="85.29" ry="18"/>
<text text-anchor="middle" x="629.54" y="-151.3" font-family="Times,serif" font-size="14.00">:core:coroutines</text>
</g>
<!-- :core:preferences&#45;&gt;:core:coroutines -->
<g id="edge23" class="edge">
<title>:core:preferences&#45;&gt;:core:coroutines</title>
<path fill="none" stroke="black" stroke-dasharray="1,5" d="M629.79,-273.81C629.79,-273.81 629.79,-183.27 629.79,-183.27"/>
<polygon fill="black" stroke="black" points="633.29,-183.27 629.79,-173.27 626.29,-183.27 633.29,-183.27"/>
</g>
<!-- :ui:image&#45;&gt;:core:models -->
<g id="edge25" class="edge">
<title>:ui:image&#45;&gt;:core:models</title>
<path fill="none" stroke="black" stroke-dasharray="1,5" d="M773.45,-276.38C773.45,-217.05 773.45,-9 773.45,-9 773.45,-9 496.14,-9 496.14,-9"/>
<polygon fill="black" stroke="black" points="496.14,-5.5 486.14,-9 496.14,-12.5 496.14,-5.5"/>
</g>
<!-- :ui:image&#45;&gt;:ui:core -->
<g id="edge26" class="edge">
<title>:ui:image&#45;&gt;:ui:core</title>
<path fill="none" stroke="black" stroke-dasharray="1,5" d="M845.27,-281.7C845.27,-281.7 845.27,-176.18 845.27,-176.18"/>
<polygon fill="black" stroke="black" points="848.77,-176.18 845.27,-166.18 841.77,-176.18 848.77,-176.18"/>
</g>
</g>
</svg>
