<?xml version="1.0" encoding="UTF-8" standalone="no"?>
<!DOCTYPE svg PUBLIC "-//W3C//DTD SVG 1.1//EN"
 "http://www.w3.org/Graphics/SVG/1.1/DTD/svg11.dtd">
<!-- Generated by graphviz version 2.43.0 (0)
 -->
<!-- Title: %3 Pages: 1 -->
<svg width="940pt" height="1077pt"
 viewBox="0.00 0.00 940.04 1077.00" xmlns="http://www.w3.org/2000/svg" xmlns:xlink="http://www.w3.org/1999/xlink">
<g id="graph0" class="graph" transform="scale(1 1) rotate(0) translate(4 1073)">
<title>%3</title>
<polygon fill="white" stroke="transparent" points="-4,4 -4,-1073 936.04,-1073 936.04,4 -4,4"/>
<text text-anchor="middle" x="466.02" y="-1041" font-family="Times,serif" font-size="30.00">Dependencies</text>
<text text-anchor="middle" x="466.02" y="-1008" font-family="Times,serif" font-size="30.00"> </text>
<!-- :android:feature:nowplaying -->
<g id="node1" class="node">
<title>:android:feature:nowplaying</title>
<polygon fill="#9affb5" stroke="black" points="932.04,-995 714.04,-995 714.04,-959 932.04,-959 932.04,-995"/>
<text text-anchor="middle" x="823.04" y="-973.3" font-family="Times,serif" font-size="14.00">:android:feature:nowplaying</text>
</g>
<!-- :shared:domain -->
<g id="node2" class="node">
<title>:shared:domain</title>
<ellipse fill="#b59aff" stroke="black" cx="504.04" cy="-155" rx="82.59" ry="18"/>
<text text-anchor="middle" x="504.04" y="-151.3" font-family="Times,serif" font-size="14.00">:shared:domain</text>
</g>
<!-- :android:feature:nowplaying&#45;&gt;:shared:domain -->
<g id="edge1" class="edge">
<title>:android:feature:nowplaying&#45;&gt;:shared:domain</title>
<path fill="none" stroke="black" stroke-dasharray="1,5" d="M925.96,-958.94C925.96,-837.85 925.96,-149 925.96,-149 925.96,-149 591.92,-149 591.92,-149"/>
<polygon fill="black" stroke="black" points="591.92,-145.5 581.92,-149 591.92,-152.5 591.92,-145.5"/>
</g>
<!-- :ui:common -->
<g id="node3" class="node">
<title>:ui:common</title>
<ellipse fill="#b59aff" stroke="black" cx="660.04" cy="-840" rx="64.19" ry="18"/>
<text text-anchor="middle" x="660.04" y="-836.3" font-family="Times,serif" font-size="14.00">:ui:common</text>
</g>
<!-- :android:feature:nowplaying&#45;&gt;:ui:common -->
<g id="edge2" class="edge">
<title>:android:feature:nowplaying&#45;&gt;:ui:common</title>
<path fill="none" stroke="black" stroke-dasharray="1,5" d="M719.22,-958.81C719.22,-958.81 719.22,-857.17 719.22,-857.17"/>
<polygon fill="black" stroke="black" points="722.72,-857.17 719.22,-847.17 715.72,-857.17 722.72,-857.17"/>
</g>
<!-- :ui:test:screenshot -->
<g id="node4" class="node">
<title>:ui:test:screenshot</title>
<ellipse fill="#9affb5" stroke="black" cx="823.04" cy="-703" rx="96.68" ry="18"/>
<text text-anchor="middle" x="823.04" y="-699.3" font-family="Times,serif" font-size="14.00">:ui:test:screenshot</text>
</g>
<!-- :android:feature:nowplaying&#45;&gt;:ui:test:screenshot -->
<g id="edge3" class="edge">
<title>:android:feature:nowplaying&#45;&gt;:ui:test:screenshot</title>
<path fill="none" stroke="#ff9ab1" stroke-dasharray="1,5" d="M823.04,-958.6C823.04,-958.6 823.04,-731.32 823.04,-731.32"/>
<polygon fill="#ff9ab1" stroke="#ff9ab1" points="826.54,-731.32 823.04,-721.32 819.54,-731.32 826.54,-731.32"/>
</g>
<!-- :ui:common&#45;&gt;:shared:domain -->
<g id="edge7" class="edge">
<title>:ui:common&#45;&gt;:shared:domain</title>
<path fill="none" stroke="black" d="M669.28,-821.84C669.28,-713.86 669.28,-161 669.28,-161 669.28,-161 592.31,-161 592.31,-161"/>
<polygon fill="black" stroke="black" points="592.31,-157.5 582.31,-161 592.31,-164.5 592.31,-157.5"/>
</g>
<!-- :ui:common&#45;&gt;:ui:test:screenshot -->
<g id="edge5" class="edge">
<title>:ui:common&#45;&gt;:ui:test:screenshot</title>
<path fill="none" stroke="#ff9ab1" stroke-dasharray="1,5" d="M706.02,-827.3C706.02,-791.78 706.02,-694 706.02,-694 706.02,-694 728.93,-694 728.93,-694"/>
<polygon fill="#ff9ab1" stroke="#ff9ab1" points="728.93,-697.5 738.93,-694 728.93,-690.5 728.93,-697.5"/>
</g>
<!-- :test&#45;data -->
<g id="node5" class="node">
<title>:test&#45;data</title>
<ellipse fill="#b59aff" stroke="black" cx="232.04" cy="-703" rx="55.49" ry="18"/>
<text text-anchor="middle" x="232.04" y="-699.3" font-family="Times,serif" font-size="14.00">:test&#45;data</text>
</g>
<!-- :ui:common&#45;&gt;:test&#45;data -->
<g id="edge4" class="edge">
<title>:ui:common&#45;&gt;:test&#45;data</title>
<path fill="none" stroke="#ff9ab1" stroke-dasharray="1,5" d="M607.98,-829.09C607.98,-798.13 607.98,-712 607.98,-712 607.98,-712 290.04,-712 290.04,-712"/>
<polygon fill="#ff9ab1" stroke="#ff9ab1" points="290.04,-708.5 280.04,-712 290.04,-715.5 290.04,-708.5"/>
</g>
<!-- :core:coroutines -->
<g id="node6" class="node">
<title>:core:coroutines</title>
<ellipse fill="#b59aff" stroke="black" cx="128.04" cy="-18" rx="85.29" ry="18"/>
<text text-anchor="middle" x="128.04" y="-14.3" font-family="Times,serif" font-size="14.00">:core:coroutines</text>
</g>
<!-- :ui:common&#45;&gt;:core:coroutines -->
<g id="edge6" class="edge">
<title>:ui:common&#45;&gt;:core:coroutines</title>
<path fill="none" stroke="#ff9ab1" stroke-dasharray="1,5" d="M687.65,-823.46C687.65,-706.76 687.65,-12 687.65,-12 687.65,-12 218.52,-12 218.52,-12"/>
<polygon fill="#ff9ab1" stroke="#ff9ab1" points="218.52,-8.5 208.52,-12 218.52,-15.5 218.52,-8.5"/>
</g>
<!-- :ui:core -->
<g id="node7" class="node">
<title>:ui:core</title>
<ellipse fill="#b59aff" stroke="black" cx="587.04" cy="-566" rx="45.49" ry="18"/>
<text text-anchor="middle" x="587.04" y="-562.3" font-family="Times,serif" font-size="14.00">:ui:core</text>
</g>
<!-- :ui:common&#45;&gt;:ui:core -->
<g id="edge8" class="edge">
<title>:ui:common&#45;&gt;:ui:core</title>
<path fill="none" stroke="black" d="M620.26,-825.65C620.26,-825.65 620.26,-588.6 620.26,-588.6"/>
<polygon fill="black" stroke="black" points="623.76,-588.6 620.26,-578.6 616.76,-588.6 623.76,-588.6"/>
</g>
<!-- :core:logging:api -->
<g id="node8" class="node">
<title>:core:logging:api</title>
<ellipse fill="#b59aff" stroke="black" cx="128.04" cy="-155" rx="88.28" ry="18"/>
<text text-anchor="middle" x="128.04" y="-151.3" font-family="Times,serif" font-size="14.00">:core:logging:api</text>
</g>
<!-- :ui:common&#45;&gt;:core:logging:api -->
<g id="edge9" class="edge">
<title>:ui:common&#45;&gt;:core:logging:api</title>
<path fill="none" stroke="black" stroke-dasharray="1,5" d="M650.91,-822.04C650.91,-722.21 650.91,-240 650.91,-240 650.91,-240 175.77,-240 175.77,-240 175.77,-240 175.77,-180.2 175.77,-180.2"/>
<polygon fill="black" stroke="black" points="179.27,-180.2 175.77,-170.2 172.27,-180.2 179.27,-180.2"/>
</g>
<!-- :ui:test:screenshot&#45;&gt;:ui:core -->
<g id="edge10" class="edge">
<title>:ui:test:screenshot&#45;&gt;:ui:core</title>
<path fill="none" stroke="black" stroke-dasharray="1,5" d="M743.1,-692.7C743.1,-660.84 743.1,-566 743.1,-566 743.1,-566 642.6,-566 642.6,-566"/>
<polygon fill="black" stroke="black" points="642.6,-562.5 632.6,-566 642.6,-569.5 642.6,-562.5"/>
</g>
<!-- :test:image -->
<g id="node9" class="node">
<title>:test:image</title>
<ellipse fill="#9affb5" stroke="black" cx="823.04" cy="-566" rx="63.09" ry="18"/>
<text text-anchor="middle" x="823.04" y="-562.3" font-family="Times,serif" font-size="14.00">:test:image</text>
</g>
<!-- :ui:test:screenshot&#45;&gt;:test:image -->
<g id="edge11" class="edge">
<title>:ui:test:screenshot&#45;&gt;:test:image</title>
<path fill="none" stroke="black" stroke-dasharray="1,5" d="M823.04,-684.81C823.04,-684.81 823.04,-594.27 823.04,-594.27"/>
<polygon fill="black" stroke="black" points="826.54,-594.27 823.04,-584.27 819.54,-594.27 826.54,-594.27"/>
</g>
<!-- :test&#45;data&#45;&gt;:shared:domain -->
<g id="edge12" class="edge">
<title>:test&#45;data&#45;&gt;:shared:domain</title>
<path fill="none" stroke="black" stroke-dasharray="1,5" d="M209.56,-686.46C209.56,-617.94 209.56,-360 209.56,-360 209.56,-360 531.26,-360 531.26,-360 531.26,-360 531.26,-182.13 531.26,-182.13"/>
<polygon fill="black" stroke="black" points="534.76,-182.13 531.26,-172.13 527.76,-182.13 534.76,-182.13"/>
</g>
<!-- :test&#45;data&#45;&gt;:core:coroutines -->
<g id="edge13" class="edge">
<title>:test&#45;data&#45;&gt;:core:coroutines</title>
<path fill="none" stroke="black" stroke-dasharray="1,5" d="M176.76,-703C108.12,-703 0,-703 0,-703 0,-703 0,-12 0,-12 0,-12 37.68,-12 37.68,-12"/>
<polygon fill="black" stroke="black" points="37.68,-15.5 47.68,-12 37.68,-8.5 37.68,-15.5"/>
</g>
<!-- :data:database -->
<g id="node10" class="node">
<title>:data:database</title>
<ellipse fill="#b59aff" stroke="black" cx="297.04" cy="-429" rx="79.09" ry="18"/>
<text text-anchor="middle" x="297.04" y="-425.3" font-family="Times,serif" font-size="14.00">:data:database</text>
</g>
<!-- :test&#45;data&#45;&gt;:data:database -->
<g id="edge14" class="edge">
<title>:test&#45;data&#45;&gt;:data:database</title>
<path fill="none" stroke="black" stroke-dasharray="1,5" d="M264.11,-688.27C264.11,-688.27 264.11,-455.52 264.11,-455.52"/>
<polygon fill="black" stroke="black" points="267.61,-455.52 264.11,-445.52 260.61,-455.52 267.61,-455.52"/>
</g>
<!-- :data:musicbrainz -->
<g id="node11" class="node">
<title>:data:musicbrainz</title>
<ellipse fill="#b59aff" stroke="black" cx="188.04" cy="-292" rx="93.68" ry="18"/>
<text text-anchor="middle" x="188.04" y="-288.3" font-family="Times,serif" font-size="14.00">:data:musicbrainz</text>
</g>
<!-- :test&#45;data&#45;&gt;:data:musicbrainz -->
<g id="edge15" class="edge">
<title>:test&#45;data&#45;&gt;:data:musicbrainz</title>
<path fill="none" stroke="black" stroke-dasharray="1,5" d="M201.37,-687.88C201.37,-687.88 201.37,-319.97 201.37,-319.97"/>
<polygon fill="black" stroke="black" points="204.87,-319.97 201.37,-309.97 197.87,-319.97 204.87,-319.97"/>
</g>
<!-- :data:coverart -->
<g id="node12" class="node">
<title>:data:coverart</title>
<ellipse fill="#b59aff" stroke="black" cx="94.04" cy="-566" rx="76.09" ry="18"/>
<text text-anchor="middle" x="94.04" y="-562.3" font-family="Times,serif" font-size="14.00">:data:coverart</text>
</g>
<!-- :test&#45;data&#45;&gt;:data:coverart -->
<g id="edge16" class="edge">
<title>:test&#45;data&#45;&gt;:data:coverart</title>
<path fill="none" stroke="black" stroke-dasharray="1,5" d="M184.99,-693.38C184.99,-663.61 184.99,-575 184.99,-575 184.99,-575 170.14,-575 170.14,-575"/>
<polygon fill="black" stroke="black" points="170.14,-571.5 160.14,-575 170.14,-578.5 170.14,-571.5"/>
</g>
<!-- :data:spotify -->
<g id="node13" class="node">
<title>:data:spotify</title>
<ellipse fill="#b59aff" stroke="black" cx="407.04" cy="-292" rx="68.79" ry="18"/>
<text text-anchor="middle" x="407.04" y="-288.3" font-family="Times,serif" font-size="14.00">:data:spotify</text>
</g>
<!-- :test&#45;data&#45;&gt;:data:spotify -->
<g id="edge17" class="edge">
<title>:test&#45;data&#45;&gt;:data:spotify</title>
<path fill="none" stroke="black" stroke-dasharray="1,5" d="M287.3,-703C343.71,-703 423.07,-703 423.07,-703 423.07,-703 423.07,-319.66 423.07,-319.66"/>
<polygon fill="black" stroke="black" points="426.57,-319.66 423.07,-309.66 419.57,-319.66 426.57,-319.66"/>
</g>
<!-- :shared:strings -->
<g id="node14" class="node">
<title>:shared:strings</title>
<ellipse fill="#b59aff" stroke="black" cx="551.04" cy="-429" rx="81.49" ry="18"/>
<text text-anchor="middle" x="551.04" y="-425.3" font-family="Times,serif" font-size="14.00">:shared:strings</text>
</g>
<!-- :ui:core&#45;&gt;:shared:strings -->
<g id="edge18" class="edge">
<title>:ui:core&#45;&gt;:shared:strings</title>
<path fill="none" stroke="black" d="M586.92,-547.81C586.92,-547.81 586.92,-455.55 586.92,-455.55"/>
<polygon fill="black" stroke="black" points="590.42,-455.55 586.92,-445.55 583.42,-455.55 590.42,-455.55"/>
</g>
<!-- :core:logging:api&#45;&gt;:core:coroutines -->
<g id="edge19" class="edge">
<title>:core:logging:api&#45;&gt;:core:coroutines</title>
<path fill="none" stroke="black" d="M128.04,-136.81C128.04,-136.81 128.04,-46.27 128.04,-46.27"/>
<polygon fill="black" stroke="black" points="131.54,-46.27 128.04,-36.27 124.54,-46.27 131.54,-46.27"/>
</g>
<!-- :data:database&#45;&gt;:shared:domain -->
<g id="edge20" class="edge">
<title>:data:database&#45;&gt;:shared:domain</title>
<path fill="none" stroke="black" stroke-dasharray="1,5" d="M319.31,-411.61C319.31,-352.66 319.31,-164 319.31,-164 319.31,-164 422.36,-164 422.36,-164"/>
<polygon fill="black" stroke="black" points="422.36,-167.5 432.36,-164 422.36,-160.5 422.36,-167.5"/>
</g>
<!-- :data:database&#45;&gt;:core:coroutines -->
<g id="edge21" class="edge">
<title>:data:database&#45;&gt;:core:coroutines</title>
<path fill="none" stroke="black" stroke-dasharray="1,5" d="M300.47,-410.81C300.47,-332.01 300.47,-24 300.47,-24 300.47,-24 218.45,-24 218.45,-24"/>
<polygon fill="black" stroke="black" points="218.45,-20.5 208.45,-24 218.45,-27.5 218.45,-20.5"/>
</g>
<!-- :data:database&#45;&gt;:data:musicbrainz -->
<g id="edge22" class="edge">
<title>:data:database&#45;&gt;:data:musicbrainz</title>
<path fill="none" stroke="black" stroke-dasharray="1,5" d="M249.69,-414.34C249.69,-414.34 249.69,-315.74 249.69,-315.74"/>
<polygon fill="black" stroke="black" points="253.19,-315.74 249.69,-305.74 246.19,-315.74 253.19,-315.74"/>
</g>
<!-- :data:musicbrainz&#45;&gt;:shared:domain -->
<g id="edge23" class="edge">
<title>:data:musicbrainz&#45;&gt;:shared:domain</title>
<path fill="none" stroke="black" stroke-dasharray="1,5" d="M249.04,-278.11C249.04,-243.28 249.04,-155 249.04,-155 249.04,-155 411.25,-155 411.25,-155"/>
<polygon fill="black" stroke="black" points="411.25,-158.5 421.25,-155 411.25,-151.5 411.25,-158.5"/>
</g>
<!-- :data:musicbrainz&#45;&gt;:core:logging:api -->
<g id="edge24" class="edge">
<title>:data:musicbrainz&#45;&gt;:core:logging:api</title>
<path fill="none" stroke="black" stroke-dasharray="1,5" d="M135.11,-277.08C135.11,-277.08 135.11,-183.38 135.11,-183.38"/>
<polygon fill="black" stroke="black" points="138.61,-183.38 135.11,-173.38 131.61,-183.38 138.61,-183.38"/>
</g>
<!-- :data:coverart&#45;&gt;:shared:domain -->
<g id="edge25" class="edge">
<title>:data:coverart&#45;&gt;:shared:domain</title>
<path fill="none" stroke="black" stroke-dasharray="1,5" d="M76.18,-548.15C76.18,-475.51 76.18,-206 76.18,-206 76.18,-206 439.65,-206 439.65,-206 439.65,-206 439.65,-176.32 439.65,-176.32"/>
<polygon fill="black" stroke="black" points="443.15,-176.32 439.65,-166.32 436.15,-176.32 443.15,-176.32"/>
</g>
<!-- :data:coverart&#45;&gt;:test&#45;data -->
<g id="edge28" class="edge">
<title>:data:coverart&#45;&gt;:test&#45;data</title>
<path fill="none" stroke="#ff9ab1" stroke-dasharray="1,5" d="M170.19,-566C183.5,-566 193.18,-566 193.18,-566 193.18,-566 193.18,-680.11 193.18,-680.11"/>
<polygon fill="#ff9ab1" stroke="#ff9ab1" points="189.68,-680.11 193.18,-690.11 196.68,-680.11 189.68,-680.11"/>
</g>
<!-- :data:coverart&#45;&gt;:core:coroutines -->
<g id="edge27" class="edge">
<title>:data:coverart&#45;&gt;:core:coroutines</title>
<path fill="none" stroke="black" stroke-dasharray="1,5" d="M28.83,-556.59C28.83,-484.62 28.83,-24 28.83,-24 28.83,-24 37.49,-24 37.49,-24"/>
<polygon fill="black" stroke="black" points="37.49,-27.5 47.49,-24 37.49,-20.5 37.49,-27.5"/>
</g>
<!-- :data:coverart&#45;&gt;:core:logging:api -->
<g id="edge26" class="edge">
<title>:data:coverart&#45;&gt;:core:logging:api</title>
<path fill="none" stroke="black" stroke-dasharray="1,5" d="M57.92,-550.14C57.92,-550.14 57.92,-176.11 57.92,-176.11"/>
<polygon fill="black" stroke="black" points="61.42,-176.11 57.92,-166.11 54.42,-176.11 61.42,-176.11"/>
</g>
<!-- :data:coverart&#45;&gt;:data:database -->
<g id="edge30" class="edge">
<title>:data:coverart&#45;&gt;:data:database</title>
<path fill="none" stroke="#ff9ab1" stroke-dasharray="1,5" d="M160.18,-557C199.17,-557 240.93,-557 240.93,-557 240.93,-557 240.93,-451.74 240.93,-451.74"/>
<polygon fill="#ff9ab1" stroke="#ff9ab1" points="244.43,-451.74 240.93,-441.74 237.43,-451.74 244.43,-451.74"/>
</g>
<!-- :data:coverart&#45;&gt;:data:musicbrainz -->
<g id="edge29" class="edge">
<title>:data:coverart&#45;&gt;:data:musicbrainz</title>
<path fill="none" stroke="#ff9ab1" stroke-dasharray="1,5" d="M132.27,-550.08C132.27,-550.08 132.27,-316.61 132.27,-316.61"/>
<polygon fill="#ff9ab1" stroke="#ff9ab1" points="135.77,-316.61 132.27,-306.61 128.77,-316.61 135.77,-316.61"/>
</g>
<!-- :data:spotify&#45;&gt;:shared:domain -->
<g id="edge31" class="edge">
<title>:data:spotify&#45;&gt;:shared:domain</title>
<path fill="none" stroke="black" stroke-dasharray="1,5" d="M457.79,-279.36C457.79,-279.36 457.79,-180.09 457.79,-180.09"/>
<polygon fill="black" stroke="black" points="461.29,-180.09 457.79,-170.09 454.29,-180.09 461.29,-180.09"/>
</g>
<!-- :data:spotify&#45;&gt;:core:logging:api -->
<g id="edge32" class="edge">
<title>:data:spotify&#45;&gt;:core:logging:api</title>
<path fill="none" stroke="black" stroke-dasharray="1,5" d="M379.82,-275.25C379.82,-236.9 379.82,-146 379.82,-146 379.82,-146 214.61,-146 214.61,-146"/>
<polygon fill="black" stroke="black" points="214.61,-142.5 204.61,-146 214.61,-149.5 214.61,-142.5"/>
</g>
</g>
</svg>
