<?xml version="1.0" encoding="UTF-8" standalone="no"?>
<!DOCTYPE svg PUBLIC "-//W3C//DTD SVG 1.1//EN"
 "http://www.w3.org/Graphics/SVG/1.1/DTD/svg11.dtd">
<!-- Generated by graphviz version 2.43.0 (0)
 -->
<!-- Title: %3 Pages: 1 -->
<svg width="920pt" height="1077pt"
 viewBox="0.00 0.00 920.39 1077.00" xmlns="http://www.w3.org/2000/svg" xmlns:xlink="http://www.w3.org/1999/xlink">
<g id="graph0" class="graph" transform="scale(1 1) rotate(0) translate(4 1073)">
<title>%3</title>
<polygon fill="white" stroke="transparent" points="-4,4 -4,-1073 916.39,-1073 916.39,4 -4,4"/>
<text text-anchor="middle" x="456.2" y="-1041" font-family="Times,serif" font-size="30.00">Dependencies</text>
<text text-anchor="middle" x="456.2" y="-1008" font-family="Times,serif" font-size="30.00"> </text>
<!-- :android:feature:nowplaying -->
<g id="node1" class="node">
<title>:android:feature:nowplaying</title>
<polygon fill="#9affb5" stroke="black" points="912.39,-995 694.39,-995 694.39,-959 912.39,-959 912.39,-995"/>
<text text-anchor="middle" x="803.39" y="-973.3" font-family="Times,serif" font-size="14.00">:android:feature:nowplaying</text>
</g>
<!-- :shared:domain -->
<g id="node2" class="node">
<title>:shared:domain</title>
<ellipse fill="#b59aff" stroke="black" cx="561.39" cy="-155" rx="82.59" ry="18"/>
<text text-anchor="middle" x="561.39" y="-151.3" font-family="Times,serif" font-size="14.00">:shared:domain</text>
</g>
<!-- :android:feature:nowplaying&#45;&gt;:shared:domain -->
<g id="edge1" class="edge">
<title>:android:feature:nowplaying&#45;&gt;:shared:domain</title>
<path fill="none" stroke="black" stroke-dasharray="1,5" d="M694.09,-977C633.57,-977 570.46,-977 570.46,-977 570.46,-977 570.46,-182.93 570.46,-182.93"/>
<polygon fill="black" stroke="black" points="573.96,-182.93 570.46,-172.93 566.96,-182.93 573.96,-182.93"/>
</g>
<!-- :ui:common -->
<g id="node3" class="node">
<title>:ui:common</title>
<ellipse fill="#b59aff" stroke="black" cx="659.39" cy="-840" rx="64.19" ry="18"/>
<text text-anchor="middle" x="659.39" y="-836.3" font-family="Times,serif" font-size="14.00">:ui:common</text>
</g>
<!-- :android:feature:nowplaying&#45;&gt;:ui:common -->
<g id="edge2" class="edge">
<title>:android:feature:nowplaying&#45;&gt;:ui:common</title>
<path fill="none" stroke="black" stroke-dasharray="1,5" d="M709.06,-958.81C709.06,-958.81 709.06,-861.45 709.06,-861.45"/>
<polygon fill="black" stroke="black" points="712.56,-861.45 709.06,-851.45 705.56,-861.45 712.56,-861.45"/>
</g>
<!-- :ui:test:screenshot -->
<g id="node4" class="node">
<title>:ui:test:screenshot</title>
<ellipse fill="#9affb5" stroke="black" cx="803.39" cy="-703" rx="96.68" ry="18"/>
<text text-anchor="middle" x="803.39" y="-699.3" font-family="Times,serif" font-size="14.00">:ui:test:screenshot</text>
</g>
<!-- :android:feature:nowplaying&#45;&gt;:ui:test:screenshot -->
<g id="edge3" class="edge">
<title>:android:feature:nowplaying&#45;&gt;:ui:test:screenshot</title>
<path fill="none" stroke="#ff9ab1" stroke-dasharray="1,5" d="M811.99,-958.6C811.99,-958.6 811.99,-730.97 811.99,-730.97"/>
<polygon fill="#ff9ab1" stroke="#ff9ab1" points="815.49,-730.97 811.99,-720.97 808.49,-730.97 815.49,-730.97"/>
</g>
<!-- :ui:common&#45;&gt;:shared:domain -->
<g id="edge8" class="edge">
<title>:ui:common&#45;&gt;:shared:domain</title>
<path fill="none" stroke="black" d="M621.93,-825.06C621.93,-825.06 621.93,-177.5 621.93,-177.5"/>
<polygon fill="black" stroke="black" points="625.43,-177.5 621.93,-167.5 618.43,-177.5 625.43,-177.5"/>
</g>
<!-- :ui:common&#45;&gt;:ui:test:screenshot -->
<g id="edge6" class="edge">
<title>:ui:common&#45;&gt;:ui:test:screenshot</title>
<path fill="none" stroke="#ff9ab1" stroke-dasharray="1,5" d="M715.14,-831.01C715.14,-831.01 715.14,-720.48 715.14,-720.48"/>
<polygon fill="#ff9ab1" stroke="#ff9ab1" points="718.64,-720.48 715.14,-710.48 711.64,-720.48 718.64,-720.48"/>
</g>
<!-- :test:image -->
<g id="node5" class="node">
<title>:test:image</title>
<ellipse fill="#9affb5" stroke="black" cx="803.39" cy="-566" rx="63.09" ry="18"/>
<text text-anchor="middle" x="803.39" y="-562.3" font-family="Times,serif" font-size="14.00">:test:image</text>
</g>
<!-- :ui:common&#45;&gt;:test:image -->
<g id="edge4" class="edge">
<title>:ui:common&#45;&gt;:test:image</title>
<path fill="none" stroke="black" stroke-dasharray="1,5" d="M681.33,-822.79C681.33,-773.28 681.33,-634 681.33,-634 681.33,-634 782.38,-634 782.38,-634 782.38,-634 782.38,-593.16 782.38,-593.16"/>
<polygon fill="black" stroke="black" points="785.88,-593.16 782.38,-583.16 778.88,-593.16 785.88,-593.16"/>
</g>
<!-- :test&#45;data -->
<g id="node6" class="node">
<title>:test&#45;data</title>
<ellipse fill="#b59aff" stroke="black" cx="365.39" cy="-703" rx="55.49" ry="18"/>
<text text-anchor="middle" x="365.39" y="-699.3" font-family="Times,serif" font-size="14.00">:test&#45;data</text>
</g>
<!-- :ui:common&#45;&gt;:test&#45;data -->
<g id="edge5" class="edge">
<title>:ui:common&#45;&gt;:test&#45;data</title>
<path fill="none" stroke="#ff9ab1" stroke-dasharray="1,5" d="M604.01,-830.58C604.01,-800.54 604.01,-709 604.01,-709 604.01,-709 427.76,-709 427.76,-709"/>
<polygon fill="#ff9ab1" stroke="#ff9ab1" points="427.76,-705.5 417.76,-709 427.76,-712.5 427.76,-705.5"/>
</g>
<!-- :core:coroutines -->
<g id="node7" class="node">
<title>:core:coroutines</title>
<ellipse fill="#b59aff" stroke="black" cx="448.39" cy="-18" rx="85.29" ry="18"/>
<text text-anchor="middle" x="448.39" y="-14.3" font-family="Times,serif" font-size="14.00">:core:coroutines</text>
</g>
<!-- :ui:common&#45;&gt;:core:coroutines -->
<g id="edge7" class="edge">
<title>:ui:common&#45;&gt;:core:coroutines</title>
<path fill="none" stroke="#ff9ab1" stroke-dasharray="1,5" d="M612.97,-827.13C612.97,-752.36 612.97,-377 612.97,-377 612.97,-377 464.13,-377 464.13,-377 464.13,-377 464.13,-45.8 464.13,-45.8"/>
<polygon fill="#ff9ab1" stroke="#ff9ab1" points="467.63,-45.8 464.13,-35.8 460.63,-45.8 467.63,-45.8"/>
</g>
<!-- :ui:core -->
<g id="node8" class="node">
<title>:ui:core</title>
<ellipse fill="#b59aff" stroke="black" cx="676.39" cy="-566" rx="45.49" ry="18"/>
<text text-anchor="middle" x="676.39" y="-562.3" font-family="Times,serif" font-size="14.00">:ui:core</text>
</g>
<!-- :ui:common&#45;&gt;:ui:core -->
<g id="edge9" class="edge">
<title>:ui:common&#45;&gt;:ui:core</title>
<path fill="none" stroke="black" d="M656.11,-822.02C656.11,-822.02 656.11,-592.29 656.11,-592.29"/>
<polygon fill="black" stroke="black" points="659.61,-592.29 656.11,-582.29 652.61,-592.29 659.61,-592.29"/>
</g>
<!-- :core:logging:api -->
<g id="node9" class="node">
<title>:core:logging:api</title>
<ellipse fill="#b59aff" stroke="black" cx="88.39" cy="-155" rx="88.28" ry="18"/>
<text text-anchor="middle" x="88.39" y="-151.3" font-family="Times,serif" font-size="14.00">:core:logging:api</text>
</g>
<!-- :ui:common&#45;&gt;:core:logging:api -->
<g id="edge10" class="edge">
<title>:ui:common&#45;&gt;:core:logging:api</title>
<path fill="none" stroke="black" stroke-dasharray="1,5" d="M595.03,-840C431.49,-840 12.83,-840 12.83,-840 12.83,-840 12.83,-174.42 12.83,-174.42"/>
<polygon fill="black" stroke="black" points="16.33,-174.42 12.83,-164.42 9.33,-174.42 16.33,-174.42"/>
</g>
<!-- :ui:test:screenshot&#45;&gt;:test:image -->
<g id="edge12" class="edge">
<title>:ui:test:screenshot&#45;&gt;:test:image</title>
<path fill="none" stroke="black" stroke-dasharray="1,5" d="M824.41,-685.37C824.41,-685.37 824.41,-593.13 824.41,-593.13"/>
<polygon fill="black" stroke="black" points="827.91,-593.13 824.41,-583.13 820.91,-593.13 827.91,-593.13"/>
</g>
<!-- :ui:test:screenshot&#45;&gt;:ui:core -->
<g id="edge11" class="edge">
<title>:ui:test:screenshot&#45;&gt;:ui:core</title>
<path fill="none" stroke="black" stroke-dasharray="1,5" d="M714.22,-695.63C714.22,-695.63 714.22,-586.28 714.22,-586.28"/>
<polygon fill="black" stroke="black" points="717.72,-586.28 714.22,-576.28 710.72,-586.28 717.72,-586.28"/>
</g>
<!-- :test&#45;data&#45;&gt;:shared:domain -->
<g id="edge13" class="edge">
<title>:test&#45;data&#45;&gt;:shared:domain</title>
<path fill="none" stroke="black" stroke-dasharray="1,5" d="M417.59,-697C470.89,-697 545.87,-697 545.87,-697 545.87,-697 545.87,-182.73 545.87,-182.73"/>
<polygon fill="black" stroke="black" points="549.37,-182.73 545.87,-172.73 542.37,-182.73 549.37,-182.73"/>
</g>
<!-- :test&#45;data&#45;&gt;:core:coroutines -->
<g id="edge14" class="edge">
<title>:test&#45;data&#45;&gt;:core:coroutines</title>
<path fill="none" stroke="black" stroke-dasharray="1,5" d="M313.02,-697C263.09,-697 195.46,-697 195.46,-697 195.46,-697 195.46,-18 195.46,-18 195.46,-18 353.11,-18 353.11,-18"/>
<polygon fill="black" stroke="black" points="353.11,-21.5 363.11,-18 353.11,-14.5 353.11,-21.5"/>
</g>
<!-- :data:database -->
<g id="node10" class="node">
<title>:data:database</title>
<ellipse fill="#b59aff" stroke="black" cx="417.39" cy="-429" rx="79.09" ry="18"/>
<text text-anchor="middle" x="417.39" y="-425.3" font-family="Times,serif" font-size="14.00">:data:database</text>
</g>
<!-- :test&#45;data&#45;&gt;:data:database -->
<g id="edge15" class="edge">
<title>:test&#45;data&#45;&gt;:data:database</title>
<path fill="none" stroke="black" stroke-dasharray="1,5" d="M410.24,-692.26C410.24,-692.26 410.24,-457.04 410.24,-457.04"/>
<polygon fill="black" stroke="black" points="413.74,-457.04 410.24,-447.04 406.74,-457.04 413.74,-457.04"/>
</g>
<!-- :data:musicbrainz -->
<g id="node11" class="node">
<title>:data:musicbrainz</title>
<ellipse fill="#b59aff" stroke="black" cx="326.39" cy="-292" rx="93.68" ry="18"/>
<text text-anchor="middle" x="326.39" y="-288.3" font-family="Times,serif" font-size="14.00">:data:musicbrainz</text>
</g>
<!-- :test&#45;data&#45;&gt;:data:musicbrainz -->
<g id="edge16" class="edge">
<title>:test&#45;data&#45;&gt;:data:musicbrainz</title>
<path fill="none" stroke="black" stroke-dasharray="1,5" d="M399.84,-688.84C399.84,-642.3 399.84,-497 399.84,-497 399.84,-497 312.91,-497 312.91,-497 312.91,-497 312.91,-319.83 312.91,-319.83"/>
<polygon fill="black" stroke="black" points="316.41,-319.83 312.91,-309.83 309.41,-319.83 316.41,-319.83"/>
</g>
<!-- :data:coverart -->
<g id="node12" class="node">
<title>:data:coverart</title>
<ellipse fill="#b59aff" stroke="black" cx="313.39" cy="-566" rx="76.09" ry="18"/>
<text text-anchor="middle" x="313.39" y="-562.3" font-family="Times,serif" font-size="14.00">:data:coverart</text>
</g>
<!-- :test&#45;data&#45;&gt;:data:coverart -->
<g id="edge17" class="edge">
<title>:test&#45;data&#45;&gt;:data:coverart</title>
<path fill="none" stroke="black" stroke-dasharray="1,5" d="M336.58,-687.55C336.58,-687.55 336.58,-593.33 336.58,-593.33"/>
<polygon fill="black" stroke="black" points="340.08,-593.33 336.58,-583.33 333.08,-593.33 340.08,-593.33"/>
</g>
<!-- :data:spotify -->
<g id="node13" class="node">
<title>:data:spotify</title>
<ellipse fill="#b59aff" stroke="black" cx="107.39" cy="-292" rx="68.79" ry="18"/>
<text text-anchor="middle" x="107.39" y="-288.3" font-family="Times,serif" font-size="14.00">:data:spotify</text>
</g>
<!-- :test&#45;data&#45;&gt;:data:spotify -->
<g id="edge18" class="edge">
<title>:test&#45;data&#45;&gt;:data:spotify</title>
<path fill="none" stroke="black" stroke-dasharray="1,5" d="M313.18,-709C237.79,-709 107.39,-709 107.39,-709 107.39,-709 107.39,-320.19 107.39,-320.19"/>
<polygon fill="black" stroke="black" points="110.89,-320.19 107.39,-310.19 103.89,-320.19 110.89,-320.19"/>
</g>
<!-- :ui:core&#45;&gt;:shared:domain -->
<g id="edge20" class="edge">
<title>:ui:core&#45;&gt;:shared:domain</title>
<path fill="none" stroke="black" stroke-dasharray="1,5" d="M637.42,-556.64C637.42,-556.64 637.42,-172.15 637.42,-172.15"/>
<polygon fill="black" stroke="black" points="640.92,-172.15 637.42,-162.15 633.92,-172.15 640.92,-172.15"/>
</g>
<!-- :shared:strings -->
<g id="node14" class="node">
<title>:shared:strings</title>
<ellipse fill="#b59aff" stroke="black" cx="785.39" cy="-429" rx="81.49" ry="18"/>
<text text-anchor="middle" x="785.39" y="-425.3" font-family="Times,serif" font-size="14.00">:shared:strings</text>
</g>
<!-- :ui:core&#45;&gt;:shared:strings -->
<g id="edge19" class="edge">
<title>:ui:core&#45;&gt;:shared:strings</title>
<path fill="none" stroke="black" d="M713.02,-555.25C713.02,-555.25 713.02,-447.2 713.02,-447.2"/>
<polygon fill="black" stroke="black" points="716.52,-447.2 713.02,-437.2 709.52,-447.2 716.52,-447.2"/>
</g>
<!-- :core:logging:api&#45;&gt;:core:coroutines -->
<g id="edge21" class="edge">
<title>:core:logging:api&#45;&gt;:core:coroutines</title>
<path fill="none" stroke="black" d="M165.3,-146C255.13,-146 391.62,-146 391.62,-146 391.62,-146 391.62,-41.7 391.62,-41.7"/>
<polygon fill="black" stroke="black" points="395.12,-41.7 391.62,-31.7 388.12,-41.7 395.12,-41.7"/>
</g>
<!-- :data:database&#45;&gt;:shared:domain -->
<g id="edge22" class="edge">
<title>:data:database&#45;&gt;:shared:domain</title>
<path fill="none" stroke="black" stroke-dasharray="1,5" d="M490.74,-421.95C490.74,-421.95 490.74,-174.42 490.74,-174.42"/>
<polygon fill="black" stroke="black" points="494.24,-174.42 490.74,-164.42 487.24,-174.42 494.24,-174.42"/>
</g>
<!-- :data:database&#45;&gt;:core:coroutines -->
<g id="edge23" class="edge">
<title>:data:database&#45;&gt;:core:coroutines</title>
<path fill="none" stroke="black" stroke-dasharray="1,5" d="M449.42,-412.38C449.42,-412.38 449.42,-46.21 449.42,-46.21"/>
<polygon fill="black" stroke="black" points="452.92,-46.21 449.42,-36.21 445.92,-46.21 452.92,-46.21"/>
</g>
<!-- :data:database&#45;&gt;:data:musicbrainz -->
<g id="edge24" class="edge">
<title>:data:database&#45;&gt;:data:musicbrainz</title>
<path fill="none" stroke="black" stroke-dasharray="1,5" d="M379.04,-413.02C379.04,-413.02 379.04,-317.05 379.04,-317.05"/>
<polygon fill="black" stroke="black" points="382.54,-317.05 379.04,-307.05 375.54,-317.05 382.54,-317.05"/>
</g>
<!-- :data:musicbrainz&#45;&gt;:shared:domain -->
<g id="edge25" class="edge">
<title>:data:musicbrainz&#45;&gt;:shared:domain</title>
<path fill="none" stroke="black" stroke-dasharray="1,5" d="M420.37,-292C454.48,-292 484.79,-292 484.79,-292 484.79,-292 484.79,-171.98 484.79,-171.98"/>
<polygon fill="black" stroke="black" points="488.29,-171.98 484.79,-161.98 481.29,-171.98 488.29,-171.98"/>
</g>
<!-- :data:musicbrainz&#45;&gt;:core:logging:api -->
<g id="edge26" class="edge">
<title>:data:musicbrainz&#45;&gt;:core:logging:api</title>
<path fill="none" stroke="black" stroke-dasharray="1,5" d="M298.03,-274.74C298.03,-239.8 298.03,-164 298.03,-164 298.03,-164 174.96,-164 174.96,-164"/>
<polygon fill="black" stroke="black" points="174.96,-160.5 164.96,-164 174.96,-167.5 174.96,-160.5"/>
</g>
<!-- :data:coverart&#45;&gt;:shared:domain -->
<g id="edge27" class="edge">
<title>:data:coverart&#45;&gt;:shared:domain</title>
<path fill="none" stroke="black" stroke-dasharray="1,5" d="M389.62,-566C448.95,-566 521.28,-566 521.28,-566 521.28,-566 521.28,-180.86 521.28,-180.86"/>
<polygon fill="black" stroke="black" points="524.78,-180.86 521.28,-170.86 517.78,-180.86 524.78,-180.86"/>
</g>
<!-- :data:coverart&#45;&gt;:test&#45;data -->
<g id="edge30" class="edge">
<title>:data:coverart&#45;&gt;:test&#45;data</title>
<path fill="none" stroke="#ff9ab1" stroke-dasharray="1,5" d="M363.01,-579.89C363.01,-579.89 363.01,-674.75 363.01,-674.75"/>
<polygon fill="#ff9ab1" stroke="#ff9ab1" points="359.51,-674.75 363.01,-684.75 366.51,-674.75 359.51,-674.75"/>
</g>
<!-- :data:coverart&#45;&gt;:core:coroutines -->
<g id="edge29" class="edge">
<title>:data:coverart&#45;&gt;:core:coroutines</title>
<path fill="none" stroke="black" stroke-dasharray="1,5" d="M287.72,-548.87C287.72,-496.65 287.72,-343 287.72,-343 287.72,-343 434.7,-343 434.7,-343 434.7,-343 434.7,-45.94 434.7,-45.94"/>
<polygon fill="black" stroke="black" points="438.2,-45.94 434.7,-35.94 431.2,-45.94 438.2,-45.94"/>
</g>
<!-- :data:coverart&#45;&gt;:core:logging:api -->
<g id="edge28" class="edge">
<title>:data:coverart&#45;&gt;:core:logging:api</title>
<path fill="none" stroke="black" stroke-dasharray="1,5" d="M237.04,-566C151.8,-566 25.67,-566 25.67,-566 25.67,-566 25.67,-177.75 25.67,-177.75"/>
<polygon fill="black" stroke="black" points="29.17,-177.75 25.67,-167.75 22.17,-177.75 29.17,-177.75"/>
</g>
<!-- :data:coverart&#45;&gt;:data:database -->
<g id="edge32" class="edge">
<title>:data:coverart&#45;&gt;:data:database</title>
<path fill="none" stroke="#ff9ab1" stroke-dasharray="1,5" d="M363.77,-552.36C363.77,-552.36 363.77,-452.58 363.77,-452.58"/>
<polygon fill="#ff9ab1" stroke="#ff9ab1" points="367.27,-452.58 363.77,-442.58 360.27,-452.58 367.27,-452.58"/>
</g>
<!-- :data:coverart&#45;&gt;:data:musicbrainz -->
<g id="edge31" class="edge">
<title>:data:coverart&#45;&gt;:data:musicbrainz</title>
<path fill="none" stroke="#ff9ab1" stroke-dasharray="1,5" d="M262.54,-552.41C262.54,-552.41 262.54,-315.35 262.54,-315.35"/>
<polygon fill="#ff9ab1" stroke="#ff9ab1" points="266.04,-315.35 262.54,-305.35 259.04,-315.35 266.04,-315.35"/>
</g>
<!-- :data:spotify&#45;&gt;:shared:domain -->
<g id="edge33" class="edge">
<title>:data:spotify&#45;&gt;:shared:domain</title>
<path fill="none" stroke="black" stroke-dasharray="1,5" d="M176.5,-292C197.02,-292 214.13,-292 214.13,-292 214.13,-292 214.13,-155 214.13,-155 214.13,-155 468.66,-155 468.66,-155"/>
<polygon fill="black" stroke="black" points="468.66,-158.5 478.66,-155 468.65,-151.5 468.66,-158.5"/>
</g>
<!-- :data:spotify&#45;&gt;:core:logging:api -->
<g id="edge34" class="edge">
<title>:data:spotify&#45;&gt;:core:logging:api</title>
<path fill="none" stroke="black" stroke-dasharray="1,5" d="M107.39,-273.81C107.39,-273.81 107.39,-182.83 107.39,-182.83"/>
<polygon fill="black" stroke="black" points="110.89,-182.83 107.39,-172.83 103.89,-182.83 110.89,-182.83"/>
</g>
</g>
</svg>
