<?xml version="1.0" encoding="UTF-8" standalone="no"?>
<!DOCTYPE svg PUBLIC "-//W3C//DTD SVG 1.1//EN"
 "http://www.w3.org/Graphics/SVG/1.1/DTD/svg11.dtd">
<!-- Generated by graphviz version 2.43.0 (0)
 -->
<!-- Title: %3 Pages: 1 -->
<svg width="1019pt" height="666pt"
 viewBox="0.00 0.00 1019.48 666.00" xmlns="http://www.w3.org/2000/svg" xmlns:xlink="http://www.w3.org/1999/xlink">
<g id="graph0" class="graph" transform="scale(1 1) rotate(0) translate(4 662)">
<title>%3</title>
<polygon fill="white" stroke="transparent" points="-4,4 -4,-662 1015.48,-662 1015.48,4 -4,4"/>
<text text-anchor="middle" x="505.74" y="-630" font-family="Times,serif" font-size="30.00">Dependencies</text>
<text text-anchor="middle" x="505.74" y="-597" font-family="Times,serif" font-size="30.00"> </text>
<!-- :android:feature:nowplaying -->
<g id="node1" class="node">
<title>:android:feature:nowplaying</title>
<polygon fill="#9affb5" stroke="black" points="673.64,-584 455.64,-584 455.64,-548 673.64,-548 673.64,-584"/>
<text text-anchor="middle" x="564.64" y="-562.3" font-family="Times,serif" font-size="14.00">:android:feature:nowplaying</text>
</g>
<!-- :shared:domain -->
<g id="node2" class="node">
<title>:shared:domain</title>
<ellipse fill="#b59aff" stroke="black" cx="296.64" cy="-155" rx="82.59" ry="18"/>
<text text-anchor="middle" x="296.64" y="-151.3" font-family="Times,serif" font-size="14.00">:shared:domain</text>
</g>
<!-- :android:feature:nowplaying&#45;&gt;:shared:domain -->
<g id="edge1" class="edge">
<title>:android:feature:nowplaying&#45;&gt;:shared:domain</title>
<path fill="none" stroke="black" stroke-dasharray="1,5" d="M455.44,-566C356.75,-566 226.85,-566 226.85,-566 226.85,-566 226.85,-174.75 226.85,-174.75"/>
<polygon fill="black" stroke="black" points="230.35,-174.75 226.85,-164.75 223.35,-174.75 230.35,-174.75"/>
</g>
<!-- :ui:common -->
<g id="node3" class="node">
<title>:ui:common</title>
<ellipse fill="#b59aff" stroke="black" cx="564.64" cy="-429" rx="64.19" ry="18"/>
<text text-anchor="middle" x="564.64" y="-425.3" font-family="Times,serif" font-size="14.00">:ui:common</text>
</g>
<!-- :android:feature:nowplaying&#45;&gt;:ui:common -->
<g id="edge2" class="edge">
<title>:android:feature:nowplaying&#45;&gt;:ui:common</title>
<path fill="none" stroke="black" stroke-dasharray="1,5" d="M564.64,-547.81C564.64,-547.81 564.64,-457.27 564.64,-457.27"/>
<polygon fill="black" stroke="black" points="568.14,-457.27 564.64,-447.27 561.14,-457.27 568.14,-457.27"/>
</g>
<!-- :ui:test:screenshot -->
<g id="node4" class="node">
<title>:ui:test:screenshot</title>
<ellipse fill="#9affb5" stroke="black" cx="914.64" cy="-292" rx="96.68" ry="18"/>
<text text-anchor="middle" x="914.64" y="-288.3" font-family="Times,serif" font-size="14.00">:ui:test:screenshot</text>
</g>
<!-- :android:feature:nowplaying&#45;&gt;:ui:test:screenshot -->
<g id="edge3" class="edge">
<title>:android:feature:nowplaying&#45;&gt;:ui:test:screenshot</title>
<path fill="none" stroke="#ff9ab1" stroke-dasharray="1,5" d="M673.68,-566C786.67,-566 946.92,-566 946.92,-566 946.92,-566 946.92,-319.14 946.92,-319.14"/>
<polygon fill="#ff9ab1" stroke="#ff9ab1" points="950.42,-319.14 946.92,-309.14 943.42,-319.14 950.42,-319.14"/>
</g>
<!-- :ui:common&#45;&gt;:shared:domain -->
<g id="edge5" class="edge">
<title>:ui:common&#45;&gt;:shared:domain</title>
<path fill="none" stroke="black" d="M499.95,-429C403.51,-429 233.22,-429 233.22,-429 233.22,-429 233.22,-176.77 233.22,-176.77"/>
<polygon fill="black" stroke="black" points="236.72,-176.77 233.22,-166.77 229.72,-176.77 236.72,-176.77"/>
</g>
<!-- :ui:common&#45;&gt;:ui:test:screenshot -->
<g id="edge4" class="edge">
<title>:ui:common&#45;&gt;:ui:test:screenshot</title>
<path fill="none" stroke="#ff9ab1" stroke-dasharray="1,5" d="M625.53,-435C717.78,-435 882.36,-435 882.36,-435 882.36,-435 882.36,-319.25 882.36,-319.25"/>
<polygon fill="#ff9ab1" stroke="#ff9ab1" points="885.86,-319.25 882.36,-309.25 878.86,-319.25 885.86,-319.25"/>
</g>
<!-- :ui:core -->
<g id="node5" class="node">
<title>:ui:core</title>
<ellipse fill="#b59aff" stroke="black" cx="788.64" cy="-155" rx="45.49" ry="18"/>
<text text-anchor="middle" x="788.64" y="-151.3" font-family="Times,serif" font-size="14.00">:ui:core</text>
</g>
<!-- :ui:common&#45;&gt;:ui:core -->
<g id="edge6" class="edge">
<title>:ui:common&#45;&gt;:ui:core</title>
<path fill="none" stroke="black" d="M618.4,-418.82C618.4,-369.87 618.4,-161 618.4,-161 618.4,-161 735.68,-161 735.68,-161"/>
<polygon fill="black" stroke="black" points="735.68,-164.5 745.68,-161 735.68,-157.5 735.68,-164.5"/>
</g>
<!-- :data:coverart -->
<g id="node6" class="node">
<title>:data:coverart</title>
<ellipse fill="#b59aff" stroke="black" cx="315.64" cy="-292" rx="76.09" ry="18"/>
<text text-anchor="middle" x="315.64" y="-288.3" font-family="Times,serif" font-size="14.00">:data:coverart</text>
</g>
<!-- :ui:common&#45;&gt;:data:coverart -->
<g id="edge7" class="edge">
<title>:ui:common&#45;&gt;:data:coverart</title>
<path fill="none" stroke="black" stroke-dasharray="1,5" d="M508.76,-420C435.35,-420 315.64,-420 315.64,-420 315.64,-420 315.64,-320.07 315.64,-320.07"/>
<polygon fill="black" stroke="black" points="319.14,-320.07 315.64,-310.07 312.14,-320.07 319.14,-320.07"/>
</g>
<!-- :data:musicbrainz -->
<g id="node7" class="node">
<title>:data:musicbrainz</title>
<ellipse fill="#b59aff" stroke="black" cx="503.64" cy="-292" rx="93.68" ry="18"/>
<text text-anchor="middle" x="503.64" y="-288.3" font-family="Times,serif" font-size="14.00">:data:musicbrainz</text>
</g>
<!-- :ui:common&#45;&gt;:data:musicbrainz -->
<g id="edge8" class="edge">
<title>:ui:common&#45;&gt;:data:musicbrainz</title>
<path fill="none" stroke="black" stroke-dasharray="1,5" d="M548.77,-411.37C548.77,-411.37 548.77,-317.86 548.77,-317.86"/>
<polygon fill="black" stroke="black" points="552.27,-317.86 548.77,-307.86 545.27,-317.86 552.27,-317.86"/>
</g>
<!-- :core:preferences -->
<g id="node8" class="node">
<title>:core:preferences</title>
<ellipse fill="#b59aff" stroke="black" cx="91.64" cy="-292" rx="91.78" ry="18"/>
<text text-anchor="middle" x="91.64" y="-288.3" font-family="Times,serif" font-size="14.00">:core:preferences</text>
</g>
<!-- :ui:common&#45;&gt;:core:preferences -->
<g id="edge9" class="edge">
<title>:ui:common&#45;&gt;:core:preferences</title>
<path fill="none" stroke="black" stroke-dasharray="1,5" d="M508.53,-438C383.23,-438 91.64,-438 91.64,-438 91.64,-438 91.64,-320.2 91.64,-320.2"/>
<polygon fill="black" stroke="black" points="95.14,-320.2 91.64,-310.2 88.14,-320.2 95.14,-320.2"/>
</g>
<!-- :core:logging:api -->
<g id="node9" class="node">
<title>:core:logging:api</title>
<ellipse fill="#b59aff" stroke="black" cx="503.64" cy="-155" rx="88.28" ry="18"/>
<text text-anchor="middle" x="503.64" y="-151.3" font-family="Times,serif" font-size="14.00">:core:logging:api</text>
</g>
<!-- :ui:common&#45;&gt;:core:logging:api -->
<g id="edge10" class="edge">
<title>:ui:common&#45;&gt;:core:logging:api</title>
<path fill="none" stroke="black" stroke-dasharray="1,5" d="M607.82,-415.5C607.82,-359.56 607.82,-149 607.82,-149 607.82,-149 597.24,-149 597.24,-149"/>
<polygon fill="black" stroke="black" points="597.24,-145.5 587.24,-149 597.24,-152.5 597.24,-145.5"/>
</g>
<!-- :ui:image -->
<g id="node10" class="node">
<title>:ui:image</title>
<ellipse fill="#b59aff" stroke="black" cx="707.64" cy="-292" rx="53.89" ry="18"/>
<text text-anchor="middle" x="707.64" y="-288.3" font-family="Times,serif" font-size="14.00">:ui:image</text>
</g>
<!-- :ui:common&#45;&gt;:ui:image -->
<g id="edge11" class="edge">
<title>:ui:common&#45;&gt;:ui:image</title>
<path fill="none" stroke="black" stroke-dasharray="1,5" d="M625.38,-423C645.88,-423 663.67,-423 663.67,-423 663.67,-423 663.67,-312.72 663.67,-312.72"/>
<polygon fill="black" stroke="black" points="667.17,-312.72 663.67,-302.72 660.17,-312.72 667.17,-312.72"/>
</g>
<!-- :ui:test:screenshot&#45;&gt;:ui:core -->
<g id="edge12" class="edge">
<title>:ui:test:screenshot&#45;&gt;:ui:core</title>
<path fill="none" stroke="black" stroke-dasharray="1,5" d="M825.97,-284.63C825.97,-284.63 825.97,-175.67 825.97,-175.67"/>
<polygon fill="black" stroke="black" points="829.47,-175.67 825.97,-165.67 822.47,-175.67 829.47,-175.67"/>
</g>
<!-- :test:image -->
<g id="node11" class="node">
<title>:test:image</title>
<ellipse fill="#9affb5" stroke="black" cx="915.64" cy="-155" rx="63.09" ry="18"/>
<text text-anchor="middle" x="915.64" y="-151.3" font-family="Times,serif" font-size="14.00">:test:image</text>
</g>
<!-- :ui:test:screenshot&#45;&gt;:test:image -->
<g id="edge13" class="edge">
<title>:ui:test:screenshot&#45;&gt;:test:image</title>
<path fill="none" stroke="black" stroke-dasharray="1,5" d="M915.64,-273.81C915.64,-273.81 915.64,-183.27 915.64,-183.27"/>
<polygon fill="black" stroke="black" points="919.14,-183.27 915.64,-173.27 912.14,-183.27 919.14,-183.27"/>
</g>
<!-- :shared:strings -->
<g id="node12" class="node">
<title>:shared:strings</title>
<ellipse fill="#b59aff" stroke="black" cx="788.64" cy="-18" rx="81.49" ry="18"/>
<text text-anchor="middle" x="788.64" y="-14.3" font-family="Times,serif" font-size="14.00">:shared:strings</text>
</g>
<!-- :ui:core&#45;&gt;:shared:strings -->
<g id="edge14" class="edge">
<title>:ui:core&#45;&gt;:shared:strings</title>
<path fill="none" stroke="black" d="M788.64,-136.81C788.64,-136.81 788.64,-46.27 788.64,-46.27"/>
<polygon fill="black" stroke="black" points="792.14,-46.27 788.64,-36.27 785.14,-46.27 792.14,-46.27"/>
</g>
<!-- :data:coverart&#45;&gt;:shared:domain -->
<g id="edge15" class="edge">
<title>:data:coverart&#45;&gt;:shared:domain</title>
<path fill="none" stroke="black" stroke-dasharray="1,5" d="M286.13,-275.2C286.13,-275.2 286.13,-183.25 286.13,-183.25"/>
<polygon fill="black" stroke="black" points="289.63,-183.25 286.13,-173.25 282.63,-183.25 289.63,-183.25"/>
</g>
<!-- :data:coverart&#45;&gt;:core:logging:api -->
<g id="edge16" class="edge">
<title>:data:coverart&#45;&gt;:core:logging:api</title>
<path fill="none" stroke="black" stroke-dasharray="1,5" d="M385.43,-284.71C385.43,-255.57 385.43,-149 385.43,-149 385.43,-149 410.26,-149 410.26,-149"/>
<polygon fill="black" stroke="black" points="410.26,-152.5 420.26,-149 410.26,-145.5 410.26,-152.5"/>
</g>
<!-- :data:musicbrainz&#45;&gt;:shared:domain -->
<g id="edge17" class="edge">
<title>:data:musicbrainz&#45;&gt;:shared:domain</title>
<path fill="none" stroke="black" stroke-dasharray="1,5" d="M409.99,-292C404.33,-292 400.87,-292 400.87,-292 400.87,-292 400.87,-161 400.87,-161 400.87,-161 384.57,-161 384.57,-161"/>
<polygon fill="black" stroke="black" points="384.57,-157.5 374.57,-161 384.57,-164.5 384.57,-157.5"/>
</g>
<!-- :data:musicbrainz&#45;&gt;:core:logging:api -->
<g id="edge18" class="edge">
<title>:data:musicbrainz&#45;&gt;:core:logging:api</title>
<path fill="none" stroke="black" stroke-dasharray="1,5" d="M503.64,-273.81C503.64,-273.81 503.64,-183.27 503.64,-183.27"/>
<polygon fill="black" stroke="black" points="507.14,-183.27 503.64,-173.27 500.14,-183.27 507.14,-183.27"/>
</g>
<!-- :core:preferences&#45;&gt;:shared:domain -->
<g id="edge19" class="edge">
<title>:core:preferences&#45;&gt;:shared:domain</title>
<path fill="none" stroke="black" stroke-dasharray="1,5" d="M183.56,-292C204.37,-292 220.47,-292 220.47,-292 220.47,-292 220.47,-171.98 220.47,-171.98"/>
<polygon fill="black" stroke="black" points="223.97,-171.98 220.47,-161.98 216.97,-171.98 223.97,-171.98"/>
</g>
<!-- :core:coroutines -->
<g id="node13" class="node">
<title>:core:coroutines</title>
<ellipse fill="#b59aff" stroke="black" cx="91.64" cy="-155" rx="85.29" ry="18"/>
<text text-anchor="middle" x="91.64" y="-151.3" font-family="Times,serif" font-size="14.00">:core:coroutines</text>
</g>
<!-- :core:preferences&#45;&gt;:core:coroutines -->
<g id="edge20" class="edge">
<title>:core:preferences&#45;&gt;:core:coroutines</title>
<path fill="none" stroke="black" stroke-dasharray="1,5" d="M91.64,-273.81C91.64,-273.81 91.64,-183.27 91.64,-183.27"/>
<polygon fill="black" stroke="black" points="95.14,-183.27 91.64,-173.27 88.14,-183.27 95.14,-183.27"/>
</g>
<!-- :ui:image&#45;&gt;:shared:domain -->
<g id="edge21" class="edge">
<title>:ui:image&#45;&gt;:shared:domain</title>
<path fill="none" stroke="black" stroke-dasharray="1,5" d="M680.55,-276.34C680.55,-255.98 680.55,-223 680.55,-223 680.55,-223 332.66,-223 332.66,-223 332.66,-223 332.66,-181.46 332.66,-181.46"/>
<polygon fill="black" stroke="black" points="336.16,-181.46 332.66,-171.46 329.16,-181.46 336.16,-181.46"/>
</g>
<!-- :ui:image&#45;&gt;:ui:core -->
<g id="edge22" class="edge">
<title>:ui:image&#45;&gt;:ui:core</title>
<path fill="none" stroke="black" stroke-dasharray="1,5" d="M752.37,-281.7C752.37,-281.7 752.37,-176.18 752.37,-176.18"/>
<polygon fill="black" stroke="black" points="755.87,-176.18 752.37,-166.18 748.87,-176.18 755.87,-176.18"/>
</g>
</g>
</svg>
