<?xml version="1.0" encoding="UTF-8" standalone="no"?>
<!DOCTYPE svg PUBLIC "-//W3C//DTD SVG 1.1//EN"
 "http://www.w3.org/Graphics/SVG/1.1/DTD/svg11.dtd">
<!-- Generated by graphviz version 2.43.0 (0)
 -->
<!-- Title: %3 Pages: 1 -->
<svg width="967pt" height="1077pt"
 viewBox="0.00 0.00 967.38 1077.00" xmlns="http://www.w3.org/2000/svg" xmlns:xlink="http://www.w3.org/1999/xlink">
<g id="graph0" class="graph" transform="scale(1 1) rotate(0) translate(4 1073)">
<title>%3</title>
<polygon fill="white" stroke="transparent" points="-4,4 -4,-1073 963.38,-1073 963.38,4 -4,4"/>
<text text-anchor="middle" x="479.69" y="-1041" font-family="Times,serif" font-size="30.00">Dependencies</text>
<text text-anchor="middle" x="479.69" y="-1008" font-family="Times,serif" font-size="30.00"> </text>
<!-- :android:feature:nowplaying -->
<g id="node1" class="node">
<title>:android:feature:nowplaying</title>
<polygon fill="#9affb5" stroke="black" points="682.54,-995 464.54,-995 464.54,-959 682.54,-959 682.54,-995"/>
<text text-anchor="middle" x="573.54" y="-973.3" font-family="Times,serif" font-size="14.00">:android:feature:nowplaying</text>
</g>
<!-- :shared:domain -->
<g id="node2" class="node">
<title>:shared:domain</title>
<ellipse fill="#b59aff" stroke="black" cx="82.54" cy="-155" rx="82.59" ry="18"/>
<text text-anchor="middle" x="82.54" y="-151.3" font-family="Times,serif" font-size="14.00">:shared:domain</text>
</g>
<!-- :android:feature:nowplaying&#45;&gt;:shared:domain -->
<g id="edge1" class="edge">
<title>:android:feature:nowplaying&#45;&gt;:shared:domain</title>
<path fill="none" stroke="black" stroke-dasharray="1,5" d="M464.51,-977C298.86,-977 2.81,-977 2.81,-977 2.81,-977 2.81,-169.83 2.81,-169.83"/>
<polygon fill="black" stroke="black" points="6.31,-169.83 2.81,-159.83 -0.69,-169.83 6.31,-169.83"/>
</g>
<!-- :ui:common -->
<g id="node3" class="node">
<title>:ui:common</title>
<ellipse fill="#b59aff" stroke="black" cx="573.54" cy="-840" rx="64.19" ry="18"/>
<text text-anchor="middle" x="573.54" y="-836.3" font-family="Times,serif" font-size="14.00">:ui:common</text>
</g>
<!-- :android:feature:nowplaying&#45;&gt;:ui:common -->
<g id="edge2" class="edge">
<title>:android:feature:nowplaying&#45;&gt;:ui:common</title>
<path fill="none" stroke="black" stroke-dasharray="1,5" d="M573.54,-958.81C573.54,-958.81 573.54,-868.27 573.54,-868.27"/>
<polygon fill="black" stroke="black" points="577.04,-868.27 573.54,-858.27 570.04,-868.27 577.04,-868.27"/>
</g>
<!-- :ui:test:screenshot -->
<g id="node4" class="node">
<title>:ui:test:screenshot</title>
<ellipse fill="#9affb5" stroke="black" cx="862.54" cy="-703" rx="96.68" ry="18"/>
<text text-anchor="middle" x="862.54" y="-699.3" font-family="Times,serif" font-size="14.00">:ui:test:screenshot</text>
</g>
<!-- :android:feature:nowplaying&#45;&gt;:ui:test:screenshot -->
<g id="edge3" class="edge">
<title>:android:feature:nowplaying&#45;&gt;:ui:test:screenshot</title>
<path fill="none" stroke="#ff9ab1" stroke-dasharray="1,5" d="M682.76,-977C775.9,-977 894.82,-977 894.82,-977 894.82,-977 894.82,-730.14 894.82,-730.14"/>
<polygon fill="#ff9ab1" stroke="#ff9ab1" points="898.32,-730.14 894.82,-720.14 891.32,-730.14 898.32,-730.14"/>
</g>
<!-- :ui:common&#45;&gt;:shared:domain -->
<g id="edge7" class="edge">
<title>:ui:common&#45;&gt;:shared:domain</title>
<path fill="none" stroke="black" d="M508.95,-840C360.1,-840 5.62,-840 5.62,-840 5.62,-840 5.62,-171.78 5.62,-171.78"/>
<polygon fill="black" stroke="black" points="9.12,-171.78 5.62,-161.78 2.12,-171.78 9.12,-171.78"/>
</g>
<!-- :ui:common&#45;&gt;:ui:test:screenshot -->
<g id="edge5" class="edge">
<title>:ui:common&#45;&gt;:ui:test:screenshot</title>
<path fill="none" stroke="#ff9ab1" stroke-dasharray="1,5" d="M634.38,-846C710.3,-846 830.26,-846 830.26,-846 830.26,-846 830.26,-730.25 830.26,-730.25"/>
<polygon fill="#ff9ab1" stroke="#ff9ab1" points="833.76,-730.25 830.26,-720.25 826.76,-730.25 833.76,-730.25"/>
</g>
<!-- :test&#45;data -->
<g id="node5" class="node">
<title>:test&#45;data</title>
<ellipse fill="#b59aff" stroke="black" cx="301.54" cy="-703" rx="55.49" ry="18"/>
<text text-anchor="middle" x="301.54" y="-699.3" font-family="Times,serif" font-size="14.00">:test&#45;data</text>
</g>
<!-- :ui:common&#45;&gt;:test&#45;data -->
<g id="edge4" class="edge">
<title>:ui:common&#45;&gt;:test&#45;data</title>
<path fill="none" stroke="#ff9ab1" stroke-dasharray="1,5" d="M521.44,-829.09C521.44,-798.13 521.44,-712 521.44,-712 521.44,-712 359.53,-712 359.53,-712"/>
<polygon fill="#ff9ab1" stroke="#ff9ab1" points="359.53,-708.5 349.53,-712 359.53,-715.5 359.53,-708.5"/>
</g>
<!-- :core:coroutines -->
<g id="node6" class="node">
<title>:core:coroutines</title>
<ellipse fill="#b59aff" stroke="black" cx="573.54" cy="-18" rx="85.29" ry="18"/>
<text text-anchor="middle" x="573.54" y="-14.3" font-family="Times,serif" font-size="14.00">:core:coroutines</text>
</g>
<!-- :ui:common&#45;&gt;:core:coroutines -->
<g id="edge6" class="edge">
<title>:ui:common&#45;&gt;:core:coroutines</title>
<path fill="none" stroke="#ff9ab1" stroke-dasharray="1,5" d="M590.46,-822.45C590.46,-822.45 590.46,-45.73 590.46,-45.73"/>
<polygon fill="#ff9ab1" stroke="#ff9ab1" points="593.97,-45.73 590.46,-35.73 586.97,-45.73 593.97,-45.73"/>
</g>
<!-- :ui:core -->
<g id="node7" class="node">
<title>:ui:core</title>
<ellipse fill="#b59aff" stroke="black" cx="737.54" cy="-566" rx="45.49" ry="18"/>
<text text-anchor="middle" x="737.54" y="-562.3" font-family="Times,serif" font-size="14.00">:ui:core</text>
</g>
<!-- :ui:common&#45;&gt;:ui:core -->
<g id="edge8" class="edge">
<title>:ui:common&#45;&gt;:ui:core</title>
<path fill="none" stroke="black" d="M634.63,-834C681.27,-834 737.59,-834 737.59,-834 737.59,-834 737.59,-594 737.59,-594"/>
<polygon fill="black" stroke="black" points="741.09,-594 737.59,-584 734.09,-594 741.09,-594"/>
</g>
<!-- :core:logging:api -->
<g id="node8" class="node">
<title>:core:logging:api</title>
<ellipse fill="#b59aff" stroke="black" cx="457.54" cy="-155" rx="88.28" ry="18"/>
<text text-anchor="middle" x="457.54" y="-151.3" font-family="Times,serif" font-size="14.00">:core:logging:api</text>
</g>
<!-- :ui:common&#45;&gt;:core:logging:api -->
<g id="edge9" class="edge">
<title>:ui:common&#45;&gt;:core:logging:api</title>
<path fill="none" stroke="black" stroke-dasharray="1,5" d="M533.69,-825.69C533.69,-825.69 533.69,-174.5 533.69,-174.5"/>
<polygon fill="black" stroke="black" points="537.19,-174.5 533.69,-164.5 530.19,-174.5 537.19,-174.5"/>
</g>
<!-- :ui:image -->
<g id="node9" class="node">
<title>:ui:image</title>
<ellipse fill="#b59aff" stroke="black" cx="655.54" cy="-703" rx="53.89" ry="18"/>
<text text-anchor="middle" x="655.54" y="-699.3" font-family="Times,serif" font-size="14.00">:ui:image</text>
</g>
<!-- :ui:common&#45;&gt;:ui:image -->
<g id="edge10" class="edge">
<title>:ui:common&#45;&gt;:ui:image</title>
<path fill="none" stroke="black" stroke-dasharray="1,5" d="M619.74,-827.36C619.74,-827.36 619.74,-726.83 619.74,-726.83"/>
<polygon fill="black" stroke="black" points="623.24,-726.83 619.74,-716.83 616.24,-726.83 623.24,-726.83"/>
</g>
<!-- :ui:test:screenshot&#45;&gt;:ui:core -->
<g id="edge11" class="edge">
<title>:ui:test:screenshot&#45;&gt;:ui:core</title>
<path fill="none" stroke="black" stroke-dasharray="1,5" d="M774.37,-695.24C774.37,-695.24 774.37,-586.58 774.37,-586.58"/>
<polygon fill="black" stroke="black" points="777.87,-586.58 774.37,-576.58 770.87,-586.58 777.87,-586.58"/>
</g>
<!-- :test:image -->
<g id="node10" class="node">
<title>:test:image</title>
<ellipse fill="#9affb5" stroke="black" cx="864.54" cy="-566" rx="63.09" ry="18"/>
<text text-anchor="middle" x="864.54" y="-562.3" font-family="Times,serif" font-size="14.00">:test:image</text>
</g>
<!-- :ui:test:screenshot&#45;&gt;:test:image -->
<g id="edge12" class="edge">
<title>:ui:test:screenshot&#45;&gt;:test:image</title>
<path fill="none" stroke="black" stroke-dasharray="1,5" d="M864.54,-684.81C864.54,-684.81 864.54,-594.27 864.54,-594.27"/>
<polygon fill="black" stroke="black" points="868.04,-594.27 864.54,-584.27 861.04,-594.27 868.04,-594.27"/>
</g>
<!-- :test&#45;data&#45;&gt;:shared:domain -->
<g id="edge13" class="edge">
<title>:test&#45;data&#45;&gt;:shared:domain</title>
<path fill="none" stroke="black" stroke-dasharray="1,5" d="M253.47,-712C170.32,-712 8.44,-712 8.44,-712 8.44,-712 8.44,-173.31 8.44,-173.31"/>
<polygon fill="black" stroke="black" points="11.94,-173.31 8.44,-163.31 4.94,-173.31 11.94,-173.31"/>
</g>
<!-- :test&#45;data&#45;&gt;:core:coroutines -->
<g id="edge14" class="edge">
<title>:test&#45;data&#45;&gt;:core:coroutines</title>
<path fill="none" stroke="black" stroke-dasharray="1,5" d="M357.09,-703C438.16,-703 579.33,-703 579.33,-703 579.33,-703 579.33,-45.97 579.33,-45.97"/>
<polygon fill="black" stroke="black" points="582.83,-45.97 579.33,-35.97 575.83,-45.97 582.83,-45.97"/>
</g>
<!-- :data:database -->
<g id="node11" class="node">
<title>:data:database</title>
<ellipse fill="#b59aff" stroke="black" cx="90.54" cy="-429" rx="79.09" ry="18"/>
<text text-anchor="middle" x="90.54" y="-425.3" font-family="Times,serif" font-size="14.00">:data:database</text>
</g>
<!-- :test&#45;data&#45;&gt;:data:database -->
<g id="edge15" class="edge">
<title>:test&#45;data&#45;&gt;:data:database</title>
<path fill="none" stroke="black" stroke-dasharray="1,5" d="M246.1,-703C183.59,-703 90.54,-703 90.54,-703 90.54,-703 90.54,-457.4 90.54,-457.4"/>
<polygon fill="black" stroke="black" points="94.04,-457.4 90.54,-447.4 87.04,-457.4 94.04,-457.4"/>
</g>
<!-- :data:musicbrainz -->
<g id="node12" class="node">
<title>:data:musicbrainz</title>
<ellipse fill="#b59aff" stroke="black" cx="143.54" cy="-292" rx="93.68" ry="18"/>
<text text-anchor="middle" x="143.54" y="-288.3" font-family="Times,serif" font-size="14.00">:data:musicbrainz</text>
</g>
<!-- :test&#45;data&#45;&gt;:data:musicbrainz -->
<g id="edge16" class="edge">
<title>:test&#45;data&#45;&gt;:data:musicbrainz</title>
<path fill="none" stroke="black" stroke-dasharray="1,5" d="M253.56,-694C226.34,-694 197.67,-694 197.67,-694 197.67,-694 197.67,-316.78 197.67,-316.78"/>
<polygon fill="black" stroke="black" points="201.17,-316.78 197.67,-306.78 194.17,-316.78 201.17,-316.78"/>
</g>
<!-- :data:coverart -->
<g id="node13" class="node">
<title>:data:coverart</title>
<ellipse fill="#b59aff" stroke="black" cx="301.54" cy="-566" rx="76.09" ry="18"/>
<text text-anchor="middle" x="301.54" y="-562.3" font-family="Times,serif" font-size="14.00">:data:coverart</text>
</g>
<!-- :test&#45;data&#45;&gt;:data:coverart -->
<g id="edge17" class="edge">
<title>:test&#45;data&#45;&gt;:data:coverart</title>
<path fill="none" stroke="black" stroke-dasharray="1,5" d="M283.13,-685.93C283.13,-685.93 283.13,-593.72 283.13,-593.72"/>
<polygon fill="black" stroke="black" points="286.63,-593.72 283.13,-583.72 279.63,-593.72 286.63,-593.72"/>
</g>
<!-- :data:spotify -->
<g id="node14" class="node">
<title>:data:spotify</title>
<ellipse fill="#b59aff" stroke="black" cx="362.54" cy="-292" rx="68.79" ry="18"/>
<text text-anchor="middle" x="362.54" y="-288.3" font-family="Times,serif" font-size="14.00">:data:spotify</text>
</g>
<!-- :test&#45;data&#45;&gt;:data:spotify -->
<g id="edge18" class="edge">
<title>:test&#45;data&#45;&gt;:data:spotify</title>
<path fill="none" stroke="black" stroke-dasharray="1,5" d="M349.41,-694C376.3,-694 404.51,-694 404.51,-694 404.51,-694 404.51,-316.31 404.51,-316.31"/>
<polygon fill="black" stroke="black" points="408.01,-316.31 404.51,-306.31 401.01,-316.31 408.01,-316.31"/>
</g>
<!-- :shared:strings -->
<g id="node15" class="node">
<title>:shared:strings</title>
<ellipse fill="#b59aff" stroke="black" cx="758.54" cy="-429" rx="81.49" ry="18"/>
<text text-anchor="middle" x="758.54" y="-425.3" font-family="Times,serif" font-size="14.00">:shared:strings</text>
</g>
<!-- :ui:core&#45;&gt;:shared:strings -->
<g id="edge19" class="edge">
<title>:ui:core&#45;&gt;:shared:strings</title>
<path fill="none" stroke="black" d="M737.54,-547.81C737.54,-547.81 737.54,-456.4 737.54,-456.4"/>
<polygon fill="black" stroke="black" points="741.04,-456.4 737.54,-446.4 734.04,-456.4 741.04,-456.4"/>
</g>
<!-- :core:logging:api&#45;&gt;:core:coroutines -->
<g id="edge20" class="edge">
<title>:core:logging:api&#45;&gt;:core:coroutines</title>
<path fill="none" stroke="black" d="M517.17,-141.61C517.17,-141.61 517.17,-41.64 517.17,-41.64"/>
<polygon fill="black" stroke="black" points="520.67,-41.64 517.17,-31.64 513.67,-41.64 520.67,-41.64"/>
</g>
<!-- :ui:image&#45;&gt;:shared:domain -->
<g id="edge21" class="edge">
<title>:ui:image&#45;&gt;:shared:domain</title>
<path fill="none" stroke="black" stroke-dasharray="1,5" d="M630.14,-687.03C630.14,-603.74 630.14,-223 630.14,-223 630.14,-223 126.71,-223 126.71,-223 126.71,-223 126.71,-180.43 126.71,-180.43"/>
<polygon fill="black" stroke="black" points="130.21,-180.43 126.71,-170.43 123.21,-180.43 130.21,-180.43"/>
</g>
<!-- :ui:image&#45;&gt;:ui:core -->
<g id="edge22" class="edge">
<title>:ui:image&#45;&gt;:ui:core</title>
<path fill="none" stroke="black" stroke-dasharray="1,5" d="M700.77,-693.15C700.77,-693.15 700.77,-586.89 700.77,-586.89"/>
<polygon fill="black" stroke="black" points="704.27,-586.89 700.77,-576.89 697.27,-586.89 704.27,-586.89"/>
</g>
<!-- :data:database&#45;&gt;:shared:domain -->
<g id="edge23" class="edge">
<title>:data:database&#45;&gt;:shared:domain</title>
<path fill="none" stroke="black" stroke-dasharray="1,5" d="M30.6,-416.87C30.6,-416.87 30.6,-179.24 30.6,-179.24"/>
<polygon fill="black" stroke="black" points="34.1,-179.24 30.6,-169.24 27.1,-179.24 34.1,-179.24"/>
</g>
<!-- :data:database&#45;&gt;:core:coroutines -->
<g id="edge24" class="edge">
<title>:data:database&#45;&gt;:core:coroutines</title>
<path fill="none" stroke="black" stroke-dasharray="1,5" d="M165.5,-423C297.37,-423 557.07,-423 557.07,-423 557.07,-423 557.07,-45.66 557.07,-45.66"/>
<polygon fill="black" stroke="black" points="560.57,-45.66 557.07,-35.66 553.57,-45.66 560.57,-45.66"/>
</g>
<!-- :data:database&#45;&gt;:data:musicbrainz -->
<g id="edge25" class="edge">
<title>:data:database&#45;&gt;:data:musicbrainz</title>
<path fill="none" stroke="black" stroke-dasharray="1,5" d="M109.89,-411.37C109.89,-411.37 109.89,-319.13 109.89,-319.13"/>
<polygon fill="black" stroke="black" points="113.39,-319.13 109.89,-309.13 106.39,-319.13 113.39,-319.13"/>
</g>
<!-- :data:musicbrainz&#45;&gt;:shared:domain -->
<g id="edge26" class="edge">
<title>:data:musicbrainz&#45;&gt;:shared:domain</title>
<path fill="none" stroke="black" stroke-dasharray="1,5" d="M88.33,-277.34C88.33,-277.34 88.33,-183.01 88.33,-183.01"/>
<polygon fill="black" stroke="black" points="91.83,-183.01 88.33,-173.01 84.83,-183.01 91.83,-183.01"/>
</g>
<!-- :data:musicbrainz&#45;&gt;:core:logging:api -->
<g id="edge27" class="edge">
<title>:data:musicbrainz&#45;&gt;:core:logging:api</title>
<path fill="none" stroke="black" stroke-dasharray="1,5" d="M201.11,-277.6C201.11,-242.42 201.11,-155 201.11,-155 201.11,-155 358.93,-155 358.93,-155"/>
<polygon fill="black" stroke="black" points="358.93,-158.5 368.93,-155 358.93,-151.5 358.93,-158.5"/>
</g>
<!-- :data:coverart&#45;&gt;:shared:domain -->
<g id="edge28" class="edge">
<title>:data:coverart&#45;&gt;:shared:domain</title>
<path fill="none" stroke="black" stroke-dasharray="1,5" d="M265.39,-549.74C265.39,-474.54 265.39,-164 265.39,-164 265.39,-164 164.28,-164 164.28,-164"/>
<polygon fill="black" stroke="black" points="164.28,-160.5 154.28,-164 164.28,-167.5 164.28,-160.5"/>
</g>
<!-- :data:coverart&#45;&gt;:test&#45;data -->
<g id="edge31" class="edge">
<title>:data:coverart&#45;&gt;:test&#45;data</title>
<path fill="none" stroke="#ff9ab1" stroke-dasharray="1,5" d="M319.96,-583.63C319.96,-583.63 319.96,-675.87 319.96,-675.87"/>
<polygon fill="#ff9ab1" stroke="#ff9ab1" points="316.46,-675.87 319.96,-685.87 323.46,-675.87 316.46,-675.87"/>
</g>
<!-- :data:coverart&#45;&gt;:core:coroutines -->
<g id="edge30" class="edge">
<title>:data:coverart&#45;&gt;:core:coroutines</title>
<path fill="none" stroke="black" stroke-dasharray="1,5" d="M373.35,-572C452.33,-572 568.2,-572 568.2,-572 568.2,-572 568.2,-46.12 568.2,-46.12"/>
<polygon fill="black" stroke="black" points="571.7,-46.12 568.2,-36.12 564.7,-46.12 571.7,-46.12"/>
</g>
<!-- :data:coverart&#45;&gt;:core:logging:api -->
<g id="edge29" class="edge">
<title>:data:coverart&#45;&gt;:core:logging:api</title>
<path fill="none" stroke="black" stroke-dasharray="1,5" d="M373.48,-560C410.51,-560 447.99,-560 447.99,-560 447.99,-560 447.99,-182.92 447.99,-182.92"/>
<polygon fill="black" stroke="black" points="451.49,-182.92 447.99,-172.92 444.49,-182.92 451.49,-182.92"/>
</g>
<!-- :data:coverart&#45;&gt;:data:database -->
<g id="edge33" class="edge">
<title>:data:coverart&#45;&gt;:data:database</title>
<path fill="none" stroke="#ff9ab1" stroke-dasharray="1,5" d="M229.38,-560.03C229.38,-534.4 229.38,-435 229.38,-435 229.38,-435 175.65,-435 175.65,-435"/>
<polygon fill="#ff9ab1" stroke="#ff9ab1" points="175.65,-431.5 165.65,-435 175.65,-438.5 175.65,-431.5"/>
</g>
<!-- :data:coverart&#45;&gt;:data:musicbrainz -->
<g id="edge32" class="edge">
<title>:data:coverart&#45;&gt;:data:musicbrainz</title>
<path fill="none" stroke="#ff9ab1" stroke-dasharray="1,5" d="M233.26,-557.8C233.26,-557.8 233.26,-307.48 233.26,-307.48"/>
<polygon fill="#ff9ab1" stroke="#ff9ab1" points="236.76,-307.48 233.26,-297.48 229.76,-307.48 236.76,-307.48"/>
</g>
<!-- :data:spotify&#45;&gt;:shared:domain -->
<g id="edge34" class="edge">
<title>:data:spotify&#45;&gt;:shared:domain</title>
<path fill="none" stroke="black" stroke-dasharray="1,5" d="M331.4,-275.82C331.4,-237.8 331.4,-146 331.4,-146 331.4,-146 164.19,-146 164.19,-146"/>
<polygon fill="black" stroke="black" points="164.19,-142.5 154.19,-146 164.19,-149.5 164.19,-142.5"/>
</g>
<!-- :data:spotify&#45;&gt;:core:logging:api -->
<g id="edge35" class="edge">
<title>:data:spotify&#45;&gt;:core:logging:api</title>
<path fill="none" stroke="black" stroke-dasharray="1,5" d="M400.29,-276.82C400.29,-276.82 400.29,-179.02 400.29,-179.02"/>
<polygon fill="black" stroke="black" points="403.79,-179.02 400.29,-169.02 396.79,-179.02 403.79,-179.02"/>
</g>
</g>
</svg>
