<?xml version="1.0" encoding="UTF-8" standalone="no"?>
<!DOCTYPE svg PUBLIC "-//W3C//DTD SVG 1.1//EN"
 "http://www.w3.org/Graphics/SVG/1.1/DTD/svg11.dtd">
<!-- Generated by graphviz version 2.43.0 (0)
 -->
<!-- Title: %3 Pages: 1 -->
<svg width="1099pt" height="940pt"
 viewBox="0.00 0.00 1099.39 940.00" xmlns="http://www.w3.org/2000/svg" xmlns:xlink="http://www.w3.org/1999/xlink">
<g id="graph0" class="graph" transform="scale(1 1) rotate(0) translate(4 936)">
<title>%3</title>
<polygon fill="white" stroke="transparent" points="-4,4 -4,-936 1095.39,-936 1095.39,4 -4,4"/>
<text text-anchor="middle" x="545.7" y="-904" font-family="Times,serif" font-size="30.00">Dependencies</text>
<text text-anchor="middle" x="545.7" y="-871" font-family="Times,serif" font-size="30.00"> </text>
<!-- :android:feature:nowplaying -->
<g id="node1" class="node">
<title>:android:feature:nowplaying</title>
<polygon fill="#9affb5" stroke="black" points="218,-858 0,-858 0,-822 218,-822 218,-858"/>
<text text-anchor="middle" x="109" y="-836.3" font-family="Times,serif" font-size="14.00">:android:feature:nowplaying</text>
</g>
<!-- :shared:domain -->
<g id="node2" class="node">
<title>:shared:domain</title>
<ellipse fill="#b59aff" stroke="black" cx="608" cy="-18" rx="82.59" ry="18"/>
<text text-anchor="middle" x="608" y="-14.3" font-family="Times,serif" font-size="14.00">:shared:domain</text>
</g>
<!-- :android:feature:nowplaying&#45;&gt;:shared:domain -->
<g id="edge1" class="edge">
<title>:android:feature:nowplaying&#45;&gt;:shared:domain</title>
<path fill="none" stroke="black" stroke-dasharray="1,5" d="M209.89,-821.87C209.89,-700.35 209.89,-9 209.89,-9 209.89,-9 526.37,-9 526.37,-9"/>
<polygon fill="black" stroke="black" points="526.37,-12.5 536.37,-9 526.37,-5.5 526.37,-12.5"/>
</g>
<!-- :ui:common -->
<g id="node3" class="node">
<title>:ui:common</title>
<ellipse fill="#b59aff" stroke="black" cx="357" cy="-703" rx="64.19" ry="18"/>
<text text-anchor="middle" x="357" y="-699.3" font-family="Times,serif" font-size="14.00">:ui:common</text>
</g>
<!-- :android:feature:nowplaying&#45;&gt;:ui:common -->
<g id="edge2" class="edge">
<title>:android:feature:nowplaying&#45;&gt;:ui:common</title>
<path fill="none" stroke="black" stroke-dasharray="1,5" d="M213.95,-821.93C213.95,-786.65 213.95,-712 213.95,-712 213.95,-712 290.87,-712 290.87,-712"/>
<polygon fill="black" stroke="black" points="290.87,-715.5 300.87,-712 290.87,-708.5 290.87,-715.5"/>
</g>
<!-- :ui:test:screenshot -->
<g id="node4" class="node">
<title>:ui:test:screenshot</title>
<ellipse fill="#9affb5" stroke="black" cx="109" cy="-566" rx="96.68" ry="18"/>
<text text-anchor="middle" x="109" y="-562.3" font-family="Times,serif" font-size="14.00">:ui:test:screenshot</text>
</g>
<!-- :android:feature:nowplaying&#45;&gt;:ui:test:screenshot -->
<g id="edge3" class="edge">
<title>:android:feature:nowplaying&#45;&gt;:ui:test:screenshot</title>
<path fill="none" stroke="#ff9ab1" stroke-dasharray="1,5" d="M76.72,-821.6C76.72,-821.6 76.72,-593.26 76.72,-593.26"/>
<polygon fill="#ff9ab1" stroke="#ff9ab1" points="80.22,-593.26 76.72,-583.26 73.22,-593.26 80.22,-593.26"/>
</g>
<!-- :ui:common&#45;&gt;:shared:domain -->
<g id="edge5" class="edge">
<title>:ui:common&#45;&gt;:shared:domain</title>
<path fill="none" stroke="black" d="M301.02,-694C268.03,-694 232.68,-694 232.68,-694 232.68,-694 232.68,-18 232.68,-18 232.68,-18 515.17,-18 515.17,-18"/>
<polygon fill="black" stroke="black" points="515.17,-21.5 525.17,-18 515.17,-14.5 515.17,-21.5"/>
</g>
<!-- :ui:common&#45;&gt;:ui:test:screenshot -->
<g id="edge4" class="edge">
<title>:ui:common&#45;&gt;:ui:test:screenshot</title>
<path fill="none" stroke="#ff9ab1" stroke-dasharray="1,5" d="M292.57,-703C229,-703 141.28,-703 141.28,-703 141.28,-703 141.28,-593.07 141.28,-593.07"/>
<polygon fill="#ff9ab1" stroke="#ff9ab1" points="144.78,-593.07 141.28,-583.07 137.78,-593.07 144.78,-593.07"/>
</g>
<!-- :ui:core -->
<g id="node5" class="node">
<title>:ui:core</title>
<ellipse fill="#b59aff" stroke="black" cx="332" cy="-429" rx="45.49" ry="18"/>
<text text-anchor="middle" x="332" y="-425.3" font-family="Times,serif" font-size="14.00">:ui:core</text>
</g>
<!-- :ui:common&#45;&gt;:ui:core -->
<g id="edge6" class="edge">
<title>:ui:common&#45;&gt;:ui:core</title>
<path fill="none" stroke="black" d="M373.72,-685.44C373.72,-685.44 373.72,-446.54 373.72,-446.54"/>
<polygon fill="black" stroke="black" points="377.22,-446.54 373.72,-436.54 370.22,-446.54 377.22,-446.54"/>
</g>
<!-- :data:coverart -->
<g id="node6" class="node">
<title>:data:coverart</title>
<ellipse fill="#b59aff" stroke="black" cx="703" cy="-566" rx="76.09" ry="18"/>
<text text-anchor="middle" x="703" y="-562.3" font-family="Times,serif" font-size="14.00">:data:coverart</text>
</g>
<!-- :ui:common&#45;&gt;:data:coverart -->
<g id="edge7" class="edge">
<title>:ui:common&#45;&gt;:data:coverart</title>
<path fill="none" stroke="black" stroke-dasharray="1,5" d="M399.42,-688.98C399.42,-655.19 399.42,-572 399.42,-572 399.42,-572 621.06,-572 621.06,-572"/>
<polygon fill="black" stroke="black" points="621.06,-575.5 631.06,-572 621.06,-568.5 621.06,-575.5"/>
</g>
<!-- :data:musicbrainz -->
<g id="node7" class="node">
<title>:data:musicbrainz</title>
<ellipse fill="#b59aff" stroke="black" cx="942" cy="-155" rx="93.68" ry="18"/>
<text text-anchor="middle" x="942" y="-151.3" font-family="Times,serif" font-size="14.00">:data:musicbrainz</text>
</g>
<!-- :ui:common&#45;&gt;:data:musicbrainz -->
<g id="edge8" class="edge">
<title>:ui:common&#45;&gt;:data:musicbrainz</title>
<path fill="none" stroke="black" stroke-dasharray="1,5" d="M417.9,-697C577.94,-697 998.16,-697 998.16,-697 998.16,-697 998.16,-179.5 998.16,-179.5"/>
<polygon fill="black" stroke="black" points="1001.66,-179.5 998.16,-169.5 994.66,-179.5 1001.66,-179.5"/>
</g>
<!-- :core:logging:api -->
<g id="node8" class="node">
<title>:core:logging:api</title>
<ellipse fill="#b59aff" stroke="black" cx="1003" cy="-18" rx="88.28" ry="18"/>
<text text-anchor="middle" x="1003" y="-14.3" font-family="Times,serif" font-size="14.00">:core:logging:api</text>
</g>
<!-- :ui:common&#45;&gt;:core:logging:api -->
<g id="edge9" class="edge">
<title>:ui:common&#45;&gt;:core:logging:api</title>
<path fill="none" stroke="black" stroke-dasharray="1,5" d="M417.72,-709C590.55,-709 1072.79,-709 1072.79,-709 1072.79,-709 1072.79,-39.13 1072.79,-39.13"/>
<polygon fill="black" stroke="black" points="1076.29,-39.13 1072.79,-29.13 1069.29,-39.13 1076.29,-39.13"/>
</g>
<!-- :ui:image -->
<g id="node9" class="node">
<title>:ui:image</title>
<ellipse fill="#b59aff" stroke="black" cx="316" cy="-566" rx="53.89" ry="18"/>
<text text-anchor="middle" x="316" y="-562.3" font-family="Times,serif" font-size="14.00">:ui:image</text>
</g>
<!-- :ui:common&#45;&gt;:ui:image -->
<g id="edge10" class="edge">
<title>:ui:common&#45;&gt;:ui:image</title>
<path fill="none" stroke="black" stroke-dasharray="1,5" d="M331.3,-686.47C331.3,-686.47 331.3,-593.45 331.3,-593.45"/>
<polygon fill="black" stroke="black" points="334.8,-593.45 331.3,-583.45 327.8,-593.45 334.8,-593.45"/>
</g>
<!-- :ui:test:screenshot&#45;&gt;:ui:core -->
<g id="edge11" class="edge">
<title>:ui:test:screenshot&#45;&gt;:ui:core</title>
<path fill="none" stroke="black" stroke-dasharray="1,5" d="M188.94,-555.7C188.94,-523.84 188.94,-429 188.94,-429 188.94,-429 276.34,-429 276.34,-429"/>
<polygon fill="black" stroke="black" points="276.34,-432.5 286.34,-429 276.34,-425.5 276.34,-432.5"/>
</g>
<!-- :test:image -->
<g id="node10" class="node">
<title>:test:image</title>
<ellipse fill="#9affb5" stroke="black" cx="109" cy="-429" rx="63.09" ry="18"/>
<text text-anchor="middle" x="109" y="-425.3" font-family="Times,serif" font-size="14.00">:test:image</text>
</g>
<!-- :ui:test:screenshot&#45;&gt;:test:image -->
<g id="edge12" class="edge">
<title>:ui:test:screenshot&#45;&gt;:test:image</title>
<path fill="none" stroke="black" stroke-dasharray="1,5" d="M109,-547.81C109,-547.81 109,-457.27 109,-457.27"/>
<polygon fill="black" stroke="black" points="112.5,-457.27 109,-447.27 105.5,-457.27 112.5,-457.27"/>
</g>
<!-- :shared:strings -->
<g id="node11" class="node">
<title>:shared:strings</title>
<ellipse fill="#b59aff" stroke="black" cx="349" cy="-292" rx="81.49" ry="18"/>
<text text-anchor="middle" x="349" y="-288.3" font-family="Times,serif" font-size="14.00">:shared:strings</text>
</g>
<!-- :ui:core&#45;&gt;:shared:strings -->
<g id="edge13" class="edge">
<title>:ui:core&#45;&gt;:shared:strings</title>
<path fill="none" stroke="black" d="M332,-410.81C332,-410.81 332,-319.83 332,-319.83"/>
<polygon fill="black" stroke="black" points="335.5,-319.83 332,-309.83 328.5,-319.83 335.5,-319.83"/>
</g>
<!-- :data:coverart&#45;&gt;:shared:domain -->
<g id="edge14" class="edge">
<title>:data:coverart&#45;&gt;:shared:domain</title>
<path fill="none" stroke="black" stroke-dasharray="1,5" d="M640.82,-555.5C640.82,-513.52 640.82,-360 640.82,-360 640.82,-360 685.59,-360 685.59,-360 685.59,-360 685.59,-34.23 685.59,-34.23"/>
<polygon fill="black" stroke="black" points="689.09,-34.23 685.59,-24.23 682.09,-34.23 689.09,-34.23"/>
</g>
<!-- :data:coverart&#45;&gt;:data:musicbrainz -->
<g id="edge18" class="edge">
<title>:data:coverart&#45;&gt;:data:musicbrainz</title>
<path fill="none" stroke="#ff9ab1" stroke-dasharray="1,5" d="M774.79,-560C851.05,-560 960.72,-560 960.72,-560 960.72,-560 960.72,-182.66 960.72,-182.66"/>
<polygon fill="#ff9ab1" stroke="#ff9ab1" points="964.22,-182.66 960.72,-172.66 957.22,-182.66 964.22,-182.66"/>
</g>
<!-- :data:coverart&#45;&gt;:core:logging:api -->
<g id="edge15" class="edge">
<title>:data:coverart&#45;&gt;:core:logging:api</title>
<path fill="none" stroke="black" stroke-dasharray="1,5" d="M774.92,-572C877.66,-572 1054.19,-572 1054.19,-572 1054.19,-572 1054.19,-42.82 1054.19,-42.82"/>
<polygon fill="black" stroke="black" points="1057.69,-42.82 1054.19,-32.82 1050.69,-42.82 1057.69,-42.82"/>
</g>
<!-- :core:coroutines -->
<g id="node12" class="node">
<title>:core:coroutines</title>
<ellipse fill="#b59aff" stroke="black" cx="476" cy="-155" rx="85.29" ry="18"/>
<text text-anchor="middle" x="476" y="-151.3" font-family="Times,serif" font-size="14.00">:core:coroutines</text>
</g>
<!-- :data:coverart&#45;&gt;:core:coroutines -->
<g id="edge16" class="edge">
<title>:data:coverart&#45;&gt;:core:coroutines</title>
<path fill="none" stroke="black" stroke-dasharray="1,5" d="M631.17,-560C564.99,-560 476.97,-560 476.97,-560 476.97,-560 476.97,-183.19 476.97,-183.19"/>
<polygon fill="black" stroke="black" points="480.48,-183.19 476.97,-173.19 473.48,-183.19 480.48,-183.19"/>
</g>
<!-- :test&#45;data -->
<g id="node13" class="node">
<title>:test&#45;data</title>
<ellipse fill="#b59aff" stroke="black" cx="703" cy="-429" rx="55.49" ry="18"/>
<text text-anchor="middle" x="703" y="-425.3" font-family="Times,serif" font-size="14.00">:test&#45;data</text>
</g>
<!-- :data:coverart&#45;&gt;:test&#45;data -->
<g id="edge17" class="edge">
<title>:data:coverart&#45;&gt;:test&#45;data</title>
<path fill="none" stroke="#ff9ab1" stroke-dasharray="1,5" d="M684.58,-548.37C684.58,-548.37 684.58,-456.13 684.58,-456.13"/>
<polygon fill="#ff9ab1" stroke="#ff9ab1" points="688.09,-456.13 684.58,-446.13 681.09,-456.13 688.09,-456.13"/>
</g>
<!-- :data:database -->
<g id="node14" class="node">
<title>:data:database</title>
<ellipse fill="#b59aff" stroke="black" cx="603" cy="-292" rx="79.09" ry="18"/>
<text text-anchor="middle" x="603" y="-288.3" font-family="Times,serif" font-size="14.00">:data:database</text>
</g>
<!-- :data:coverart&#45;&gt;:data:database -->
<g id="edge19" class="edge">
<title>:data:coverart&#45;&gt;:data:database</title>
<path fill="none" stroke="#ff9ab1" stroke-dasharray="1,5" d="M633.89,-558.39C633.89,-558.39 633.89,-318.91 633.89,-318.91"/>
<polygon fill="#ff9ab1" stroke="#ff9ab1" points="637.39,-318.91 633.89,-308.91 630.39,-318.91 637.39,-318.91"/>
</g>
<!-- :data:musicbrainz&#45;&gt;:shared:domain -->
<g id="edge20" class="edge">
<title>:data:musicbrainz&#45;&gt;:shared:domain</title>
<path fill="none" stroke="black" stroke-dasharray="1,5" d="M881.51,-141.03C881.51,-105.05 881.51,-12 881.51,-12 881.51,-12 696.01,-12 696.01,-12"/>
<polygon fill="black" stroke="black" points="696.01,-8.5 686.01,-12 696.01,-15.5 696.01,-8.5"/>
</g>
<!-- :data:musicbrainz&#45;&gt;:core:logging:api -->
<g id="edge21" class="edge">
<title>:data:musicbrainz&#45;&gt;:core:logging:api</title>
<path fill="none" stroke="black" stroke-dasharray="1,5" d="M975.1,-137.93C975.1,-137.93 975.1,-45.29 975.1,-45.29"/>
<polygon fill="black" stroke="black" points="978.6,-45.29 975.1,-35.29 971.6,-45.29 978.6,-45.29"/>
</g>
<!-- :ui:image&#45;&gt;:shared:domain -->
<g id="edge22" class="edge">
<title>:ui:image&#45;&gt;:shared:domain</title>
<path fill="none" stroke="black" stroke-dasharray="1,5" d="M261.92,-566C253.42,-566 247.37,-566 247.37,-566 247.37,-566 247.37,-27 247.37,-27 247.37,-27 526.32,-27 526.32,-27"/>
<polygon fill="black" stroke="black" points="526.32,-30.5 536.32,-27 526.32,-23.5 526.32,-30.5"/>
</g>
<!-- :ui:image&#45;&gt;:ui:core -->
<g id="edge23" class="edge">
<title>:ui:image&#45;&gt;:ui:core</title>
<path fill="none" stroke="black" stroke-dasharray="1,5" d="M328.22,-548.37C328.22,-548.37 328.22,-457 328.22,-457"/>
<polygon fill="black" stroke="black" points="331.72,-457 328.22,-447 324.72,-457 331.72,-457"/>
</g>
<!-- :test&#45;data&#45;&gt;:shared:domain -->
<g id="edge24" class="edge">
<title>:test&#45;data&#45;&gt;:shared:domain</title>
<path fill="none" stroke="black" stroke-dasharray="1,5" d="M687.24,-411.6C687.24,-411.6 687.24,-33.25 687.24,-33.25"/>
<polygon fill="black" stroke="black" points="690.74,-33.25 687.24,-23.25 683.74,-33.25 690.74,-33.25"/>
</g>
<!-- :test&#45;data&#45;&gt;:data:coverart -->
<g id="edge26" class="edge">
<title>:test&#45;data&#45;&gt;:data:coverart</title>
<path fill="none" stroke="black" stroke-dasharray="1,5" d="M721.42,-446.07C721.42,-446.07 721.42,-538.28 721.42,-538.28"/>
<polygon fill="black" stroke="black" points="717.92,-538.28 721.42,-548.28 724.92,-538.28 717.92,-538.28"/>
</g>
<!-- :test&#45;data&#45;&gt;:data:musicbrainz -->
<g id="edge25" class="edge">
<title>:test&#45;data&#45;&gt;:data:musicbrainz</title>
<path fill="none" stroke="black" stroke-dasharray="1,5" d="M758.3,-429C823.55,-429 923.28,-429 923.28,-429 923.28,-429 923.28,-182.98 923.28,-182.98"/>
<polygon fill="black" stroke="black" points="926.78,-182.98 923.28,-172.98 919.78,-182.98 926.78,-182.98"/>
</g>
<!-- :test&#45;data&#45;&gt;:core:coroutines -->
<g id="edge29" class="edge">
<title>:test&#45;data&#45;&gt;:core:coroutines</title>
<path fill="none" stroke="black" stroke-dasharray="1,5" d="M683.94,-411.83C683.94,-352.68 683.94,-161 683.94,-161 683.94,-161 566.4,-161 566.4,-161"/>
<polygon fill="black" stroke="black" points="566.4,-157.5 556.4,-161 566.4,-164.5 566.4,-157.5"/>
</g>
<!-- :test&#45;data&#45;&gt;:data:database -->
<g id="edge28" class="edge">
<title>:test&#45;data&#45;&gt;:data:database</title>
<path fill="none" stroke="black" stroke-dasharray="1,5" d="M665.02,-415.86C665.02,-415.86 665.02,-313.34 665.02,-313.34"/>
<polygon fill="black" stroke="black" points="668.52,-313.34 665.02,-303.34 661.52,-313.34 668.52,-313.34"/>
</g>
<!-- :data:spotify -->
<g id="node15" class="node">
<title>:data:spotify</title>
<ellipse fill="#b59aff" stroke="black" cx="762" cy="-155" rx="68.79" ry="18"/>
<text text-anchor="middle" x="762" y="-151.3" font-family="Times,serif" font-size="14.00">:data:spotify</text>
</g>
<!-- :test&#45;data&#45;&gt;:data:spotify -->
<g id="edge27" class="edge">
<title>:test&#45;data&#45;&gt;:data:spotify</title>
<path fill="none" stroke="black" stroke-dasharray="1,5" d="M725.68,-412.27C725.68,-412.27 725.68,-180.48 725.68,-180.48"/>
<polygon fill="black" stroke="black" points="729.18,-180.48 725.68,-170.48 722.18,-180.48 729.18,-180.48"/>
</g>
<!-- :data:database&#45;&gt;:shared:domain -->
<g id="edge30" class="edge">
<title>:data:database&#45;&gt;:shared:domain</title>
<path fill="none" stroke="black" stroke-dasharray="1,5" d="M621.72,-274.44C621.72,-274.44 621.72,-45.77 621.72,-45.77"/>
<polygon fill="black" stroke="black" points="625.22,-45.77 621.72,-35.77 618.22,-45.77 625.22,-45.77"/>
</g>
<!-- :data:database&#45;&gt;:data:musicbrainz -->
<g id="edge32" class="edge">
<title>:data:database&#45;&gt;:data:musicbrainz</title>
<path fill="none" stroke="black" stroke-dasharray="1,5" d="M682.54,-292C766.2,-292 885.84,-292 885.84,-292 885.84,-292 885.84,-179.4 885.84,-179.4"/>
<polygon fill="black" stroke="black" points="889.35,-179.4 885.84,-169.4 882.35,-179.4 889.35,-179.4"/>
</g>
<!-- :data:database&#45;&gt;:core:coroutines -->
<g id="edge31" class="edge">
<title>:data:database&#45;&gt;:core:coroutines</title>
<path fill="none" stroke="black" stroke-dasharray="1,5" d="M542.42,-280.32C542.42,-280.32 542.42,-176.27 542.42,-176.27"/>
<polygon fill="black" stroke="black" points="545.92,-176.27 542.42,-166.27 538.92,-176.27 545.92,-176.27"/>
</g>
<!-- :data:spotify&#45;&gt;:shared:domain -->
<g id="edge33" class="edge">
<title>:data:spotify&#45;&gt;:shared:domain</title>
<path fill="none" stroke="black" stroke-dasharray="1,5" d="M697,-149C692.03,-149 688.89,-149 688.89,-149 688.89,-149 688.89,-31.78 688.89,-31.78"/>
<polygon fill="black" stroke="black" points="692.39,-31.78 688.89,-21.78 685.39,-31.78 692.39,-31.78"/>
</g>
<!-- :data:spotify&#45;&gt;:core:logging:api -->
<g id="edge34" class="edge">
<title>:data:spotify&#45;&gt;:core:logging:api</title>
<path fill="none" stroke="black" stroke-dasharray="1,5" d="M762,-136.79C762,-100.79 762,-24 762,-24 762,-24 909.39,-24 909.39,-24"/>
<polygon fill="black" stroke="black" points="909.39,-27.5 919.39,-24 909.39,-20.5 909.39,-27.5"/>
</g>
</g>
</svg>
