<?xml version="1.0" encoding="UTF-8" standalone="no"?>
<!DOCTYPE svg PUBLIC "-//W3C//DTD SVG 1.1//EN"
 "http://www.w3.org/Graphics/SVG/1.1/DTD/svg11.dtd">
<!-- Generated by graphviz version 2.43.0 (0)
 -->
<!-- Title: %3 Pages: 1 -->
<svg width="1006pt" height="940pt"
 viewBox="0.00 0.00 1005.98 940.00" xmlns="http://www.w3.org/2000/svg" xmlns:xlink="http://www.w3.org/1999/xlink">
<g id="graph0" class="graph" transform="scale(1 1) rotate(0) translate(4 936)">
<title>%3</title>
<polygon fill="white" stroke="transparent" points="-4,4 -4,-936 1001.98,-936 1001.98,4 -4,4"/>
<text text-anchor="middle" x="498.99" y="-904" font-family="Times,serif" font-size="30.00">Dependencies</text>
<text text-anchor="middle" x="498.99" y="-871" font-family="Times,serif" font-size="30.00"> </text>
<!-- :android:feature:nowplaying -->
<g id="node1" class="node">
<title>:android:feature:nowplaying</title>
<polygon fill="#9affb5" stroke="black" points="688.14,-858 470.14,-858 470.14,-822 688.14,-822 688.14,-858"/>
<text text-anchor="middle" x="579.14" y="-836.3" font-family="Times,serif" font-size="14.00">:android:feature:nowplaying</text>
</g>
<!-- :shared:domain -->
<g id="node2" class="node">
<title>:shared:domain</title>
<ellipse fill="#b59aff" stroke="black" cx="297.14" cy="-18" rx="82.59" ry="18"/>
<text text-anchor="middle" x="297.14" y="-14.3" font-family="Times,serif" font-size="14.00">:shared:domain</text>
</g>
<!-- :android:feature:nowplaying&#45;&gt;:shared:domain -->
<g id="edge1" class="edge">
<title>:android:feature:nowplaying&#45;&gt;:shared:domain</title>
<path fill="none" stroke="black" stroke-dasharray="1,5" d="M477.76,-821.81C477.76,-701.41 477.76,-24 477.76,-24 477.76,-24 385.05,-24 385.05,-24"/>
<polygon fill="black" stroke="black" points="385.05,-20.5 375.05,-24 385.05,-27.5 385.05,-20.5"/>
</g>
<!-- :ui:common -->
<g id="node3" class="node">
<title>:ui:common</title>
<ellipse fill="#b59aff" stroke="black" cx="579.14" cy="-703" rx="64.19" ry="18"/>
<text text-anchor="middle" x="579.14" y="-699.3" font-family="Times,serif" font-size="14.00">:ui:common</text>
</g>
<!-- :android:feature:nowplaying&#45;&gt;:ui:common -->
<g id="edge2" class="edge">
<title>:android:feature:nowplaying&#45;&gt;:ui:common</title>
<path fill="none" stroke="black" stroke-dasharray="1,5" d="M579.14,-821.81C579.14,-821.81 579.14,-731.27 579.14,-731.27"/>
<polygon fill="black" stroke="black" points="582.64,-731.27 579.14,-721.27 575.64,-731.27 582.64,-731.27"/>
</g>
<!-- :ui:test:screenshot -->
<g id="node4" class="node">
<title>:ui:test:screenshot</title>
<ellipse fill="#9affb5" stroke="black" cx="901.14" cy="-566" rx="96.68" ry="18"/>
<text text-anchor="middle" x="901.14" y="-562.3" font-family="Times,serif" font-size="14.00">:ui:test:screenshot</text>
</g>
<!-- :android:feature:nowplaying&#45;&gt;:ui:test:screenshot -->
<g id="edge3" class="edge">
<title>:android:feature:nowplaying&#45;&gt;:ui:test:screenshot</title>
<path fill="none" stroke="#ff9ab1" stroke-dasharray="1,5" d="M683.46,-821.6C683.46,-760.16 683.46,-566 683.46,-566 683.46,-566 794.08,-566 794.08,-566"/>
<polygon fill="#ff9ab1" stroke="#ff9ab1" points="794.08,-569.5 804.08,-566 794.08,-562.5 794.08,-569.5"/>
</g>
<!-- :ui:common&#45;&gt;:shared:domain -->
<g id="edge7" class="edge">
<title>:ui:common&#45;&gt;:shared:domain</title>
<path fill="none" stroke="black" d="M516.34,-699C499.27,-699 485.38,-699 485.38,-699 485.38,-699 485.38,-20 485.38,-20 485.38,-20 389.43,-20 389.43,-20"/>
<polygon fill="black" stroke="black" points="389.43,-16.5 379.43,-20 389.43,-23.5 389.43,-16.5"/>
</g>
<!-- :ui:common&#45;&gt;:ui:test:screenshot -->
<g id="edge5" class="edge">
<title>:ui:common&#45;&gt;:ui:test:screenshot</title>
<path fill="none" stroke="#ff9ab1" stroke-dasharray="1,5" d="M640.09,-709C733.44,-709 901.14,-709 901.14,-709 901.14,-709 901.14,-594.11 901.14,-594.11"/>
<polygon fill="#ff9ab1" stroke="#ff9ab1" points="904.64,-594.11 901.14,-584.11 897.64,-594.11 904.64,-594.11"/>
</g>
<!-- :test&#45;data -->
<g id="node5" class="node">
<title>:test&#45;data</title>
<ellipse fill="#b59aff" stroke="black" cx="272.14" cy="-566" rx="55.49" ry="18"/>
<text text-anchor="middle" x="272.14" y="-562.3" font-family="Times,serif" font-size="14.00">:test&#45;data</text>
</g>
<!-- :ui:common&#45;&gt;:test&#45;data -->
<g id="edge4" class="edge">
<title>:ui:common&#45;&gt;:test&#45;data</title>
<path fill="none" stroke="#ff9ab1" stroke-dasharray="1,5" d="M549.06,-686.91C549.06,-653.15 549.06,-578 549.06,-578 549.06,-578 323.6,-578 323.6,-578"/>
<polygon fill="#ff9ab1" stroke="#ff9ab1" points="323.6,-574.5 313.6,-578 323.6,-581.5 323.6,-574.5"/>
</g>
<!-- :core:coroutines -->
<g id="node6" class="node">
<title>:core:coroutines</title>
<ellipse fill="#b59aff" stroke="black" cx="85.14" cy="-155" rx="85.29" ry="18"/>
<text text-anchor="middle" x="85.14" y="-151.3" font-family="Times,serif" font-size="14.00">:core:coroutines</text>
</g>
<!-- :ui:common&#45;&gt;:core:coroutines -->
<g id="edge6" class="edge">
<title>:ui:common&#45;&gt;:core:coroutines</title>
<path fill="none" stroke="#ff9ab1" stroke-dasharray="1,5" d="M525.59,-713C387.21,-713 28.46,-713 28.46,-713 28.46,-713 28.46,-178.52 28.46,-178.52"/>
<polygon fill="#ff9ab1" stroke="#ff9ab1" points="31.96,-178.52 28.46,-168.52 24.96,-178.52 31.96,-178.52"/>
</g>
<!-- :ui:core -->
<g id="node7" class="node">
<title>:ui:core</title>
<ellipse fill="#b59aff" stroke="black" cx="702.14" cy="-429" rx="45.49" ry="18"/>
<text text-anchor="middle" x="702.14" y="-425.3" font-family="Times,serif" font-size="14.00">:ui:core</text>
</g>
<!-- :ui:common&#45;&gt;:ui:core -->
<g id="edge8" class="edge">
<title>:ui:common&#45;&gt;:ui:core</title>
<path fill="none" stroke="black" d="M639.97,-697C660.71,-697 678.77,-697 678.77,-697 678.77,-697 678.77,-454.57 678.77,-454.57"/>
<polygon fill="black" stroke="black" points="682.27,-454.57 678.77,-444.57 675.27,-454.57 682.27,-454.57"/>
</g>
<!-- :core:logging:api -->
<g id="node8" class="node">
<title>:core:logging:api</title>
<ellipse fill="#b59aff" stroke="black" cx="625.14" cy="-18" rx="88.28" ry="18"/>
<text text-anchor="middle" x="625.14" y="-14.3" font-family="Times,serif" font-size="14.00">:core:logging:api</text>
</g>
<!-- :ui:common&#45;&gt;:core:logging:api -->
<g id="edge9" class="edge">
<title>:ui:common&#45;&gt;:core:logging:api</title>
<path fill="none" stroke="black" stroke-dasharray="1,5" d="M528.04,-692C509.49,-692 493.01,-692 493.01,-692 493.01,-692 493.01,-32 493.01,-32 493.01,-32 559.49,-32 559.49,-32"/>
<polygon fill="black" stroke="black" points="559.49,-35.5 569.49,-32 559.49,-28.5 559.49,-35.5"/>
</g>
<!-- :ui:image -->
<g id="node9" class="node">
<title>:ui:image</title>
<ellipse fill="#b59aff" stroke="black" cx="620.14" cy="-566" rx="53.89" ry="18"/>
<text text-anchor="middle" x="620.14" y="-562.3" font-family="Times,serif" font-size="14.00">:ui:image</text>
</g>
<!-- :ui:common&#45;&gt;:ui:image -->
<g id="edge10" class="edge">
<title>:ui:common&#45;&gt;:ui:image</title>
<path fill="none" stroke="black" stroke-dasharray="1,5" d="M604.84,-686.47C604.84,-686.47 604.84,-593.45 604.84,-593.45"/>
<polygon fill="black" stroke="black" points="608.34,-593.45 604.84,-583.45 601.34,-593.45 608.34,-593.45"/>
</g>
<!-- :data:musicbrainz -->
<g id="node10" class="node">
<title>:data:musicbrainz</title>
<ellipse fill="#b59aff" stroke="black" cx="358.14" cy="-155" rx="93.68" ry="18"/>
<text text-anchor="middle" x="358.14" y="-151.3" font-family="Times,serif" font-size="14.00">:data:musicbrainz</text>
</g>
<!-- :ui:common&#45;&gt;:data:musicbrainz -->
<g id="edge11" class="edge">
<title>:ui:common&#45;&gt;:data:musicbrainz</title>
<path fill="none" stroke="black" stroke-dasharray="1,5" d="M515.61,-706C470.25,-706 417.22,-706 417.22,-706 417.22,-706 417.22,-179.17 417.22,-179.17"/>
<polygon fill="black" stroke="black" points="420.72,-179.17 417.22,-169.17 413.72,-179.17 420.72,-179.17"/>
</g>
<!-- :ui:test:screenshot&#45;&gt;:ui:core -->
<g id="edge12" class="edge">
<title>:ui:test:screenshot&#45;&gt;:ui:core</title>
<path fill="none" stroke="black" stroke-dasharray="1,5" d="M821.2,-555.7C821.2,-523.84 821.2,-429 821.2,-429 821.2,-429 757.83,-429 757.83,-429"/>
<polygon fill="black" stroke="black" points="757.83,-425.5 747.83,-429 757.83,-432.5 757.83,-425.5"/>
</g>
<!-- :test:image -->
<g id="node11" class="node">
<title>:test:image</title>
<ellipse fill="#9affb5" stroke="black" cx="901.14" cy="-429" rx="63.09" ry="18"/>
<text text-anchor="middle" x="901.14" y="-425.3" font-family="Times,serif" font-size="14.00">:test:image</text>
</g>
<!-- :ui:test:screenshot&#45;&gt;:test:image -->
<g id="edge13" class="edge">
<title>:ui:test:screenshot&#45;&gt;:test:image</title>
<path fill="none" stroke="black" stroke-dasharray="1,5" d="M901.14,-547.81C901.14,-547.81 901.14,-457.27 901.14,-457.27"/>
<polygon fill="black" stroke="black" points="904.64,-457.27 901.14,-447.27 897.64,-457.27 904.64,-457.27"/>
</g>
<!-- :test&#45;data&#45;&gt;:shared:domain -->
<g id="edge14" class="edge">
<title>:test&#45;data&#45;&gt;:shared:domain</title>
<path fill="none" stroke="black" stroke-dasharray="1,5" d="M324.32,-560C381.13,-560 464.01,-560 464.01,-560 464.01,-560 464.01,-28 464.01,-28 464.01,-28 375.98,-28 375.98,-28"/>
<polygon fill="black" stroke="black" points="375.98,-24.5 365.98,-28 375.98,-31.5 375.98,-24.5"/>
</g>
<!-- :test&#45;data&#45;&gt;:core:coroutines -->
<g id="edge15" class="edge">
<title>:test&#45;data&#45;&gt;:core:coroutines</title>
<path fill="none" stroke="black" stroke-dasharray="1,5" d="M220.04,-572C156.35,-572 56.92,-572 56.92,-572 56.92,-572 56.92,-182.12 56.92,-182.12"/>
<polygon fill="black" stroke="black" points="60.42,-182.12 56.92,-172.12 53.42,-182.12 60.42,-182.12"/>
</g>
<!-- :test&#45;data&#45;&gt;:data:musicbrainz -->
<g id="edge17" class="edge">
<title>:test&#45;data&#45;&gt;:data:musicbrainz</title>
<path fill="none" stroke="black" stroke-dasharray="1,5" d="M313.63,-554C345,-554 382.7,-554 382.7,-554 382.7,-554 382.7,-182.4 382.7,-182.4"/>
<polygon fill="black" stroke="black" points="386.2,-182.4 382.7,-172.4 379.2,-182.4 386.2,-182.4"/>
</g>
<!-- :data:database -->
<g id="node12" class="node">
<title>:data:database</title>
<ellipse fill="#b59aff" stroke="black" cx="193.14" cy="-292" rx="79.09" ry="18"/>
<text text-anchor="middle" x="193.14" y="-288.3" font-family="Times,serif" font-size="14.00">:data:database</text>
</g>
<!-- :test&#45;data&#45;&gt;:data:database -->
<g id="edge16" class="edge">
<title>:test&#45;data&#45;&gt;:data:database</title>
<path fill="none" stroke="black" stroke-dasharray="1,5" d="M219.73,-560C188.53,-560 154.97,-560 154.97,-560 154.97,-560 154.97,-317.96 154.97,-317.96"/>
<polygon fill="black" stroke="black" points="158.47,-317.96 154.97,-307.96 151.47,-317.96 158.47,-317.96"/>
</g>
<!-- :data:coverart -->
<g id="node13" class="node">
<title>:data:coverart</title>
<ellipse fill="#b59aff" stroke="black" cx="272.14" cy="-429" rx="76.09" ry="18"/>
<text text-anchor="middle" x="272.14" y="-425.3" font-family="Times,serif" font-size="14.00">:data:coverart</text>
</g>
<!-- :test&#45;data&#45;&gt;:data:coverart -->
<g id="edge18" class="edge">
<title>:test&#45;data&#45;&gt;:data:coverart</title>
<path fill="none" stroke="black" stroke-dasharray="1,5" d="M253.73,-548.93C253.73,-548.93 253.73,-456.72 253.73,-456.72"/>
<polygon fill="black" stroke="black" points="257.23,-456.72 253.73,-446.72 250.23,-456.72 257.23,-456.72"/>
</g>
<!-- :data:spotify -->
<g id="node14" class="node">
<title>:data:spotify</title>
<ellipse fill="#b59aff" stroke="black" cx="577.14" cy="-155" rx="68.79" ry="18"/>
<text text-anchor="middle" x="577.14" y="-151.3" font-family="Times,serif" font-size="14.00">:data:spotify</text>
</g>
<!-- :test&#45;data&#45;&gt;:data:spotify -->
<g id="edge19" class="edge">
<title>:test&#45;data&#45;&gt;:data:spotify</title>
<path fill="none" stroke="black" stroke-dasharray="1,5" d="M327.55,-566C403.85,-566 531.93,-566 531.93,-566 531.93,-566 531.93,-178.67 531.93,-178.67"/>
<polygon fill="black" stroke="black" points="535.43,-178.67 531.93,-168.67 528.43,-178.67 535.43,-178.67"/>
</g>
<!-- :shared:strings -->
<g id="node15" class="node">
<title>:shared:strings</title>
<ellipse fill="#b59aff" stroke="black" cx="702.14" cy="-292" rx="81.49" ry="18"/>
<text text-anchor="middle" x="702.14" y="-288.3" font-family="Times,serif" font-size="14.00">:shared:strings</text>
</g>
<!-- :ui:core&#45;&gt;:shared:strings -->
<g id="edge20" class="edge">
<title>:ui:core&#45;&gt;:shared:strings</title>
<path fill="none" stroke="black" d="M702.14,-410.81C702.14,-410.81 702.14,-320.27 702.14,-320.27"/>
<polygon fill="black" stroke="black" points="705.64,-320.27 702.14,-310.27 698.64,-320.27 705.64,-320.27"/>
</g>
<!-- :ui:image&#45;&gt;:shared:domain -->
<g id="edge21" class="edge">
<title>:ui:image&#45;&gt;:shared:domain</title>
<path fill="none" stroke="black" stroke-dasharray="1,5" d="M569.11,-572C536.63,-572 500.63,-572 500.63,-572 500.63,-572 500.63,-16 500.63,-16 500.63,-16 389.32,-16 389.32,-16"/>
<polygon fill="black" stroke="black" points="389.32,-12.5 379.32,-16 389.32,-19.5 389.32,-12.5"/>
</g>
<!-- :ui:image&#45;&gt;:ui:core -->
<g id="edge22" class="edge">
<title>:ui:image&#45;&gt;:ui:core</title>
<path fill="none" stroke="black" stroke-dasharray="1,5" d="M665.37,-556.15C665.37,-556.15 665.37,-449.89 665.37,-449.89"/>
<polygon fill="black" stroke="black" points="668.87,-449.89 665.37,-439.89 661.87,-449.89 668.87,-449.89"/>
</g>
<!-- :data:musicbrainz&#45;&gt;:shared:domain -->
<g id="edge23" class="edge">
<title>:data:musicbrainz&#45;&gt;:shared:domain</title>
<path fill="none" stroke="black" stroke-dasharray="1,5" d="M322.12,-138.2C322.12,-138.2 322.12,-45.37 322.12,-45.37"/>
<polygon fill="black" stroke="black" points="325.62,-45.37 322.12,-35.37 318.62,-45.37 325.62,-45.37"/>
</g>
<!-- :data:musicbrainz&#45;&gt;:core:logging:api -->
<g id="edge24" class="edge">
<title>:data:musicbrainz&#45;&gt;:core:logging:api</title>
<path fill="none" stroke="black" stroke-dasharray="1,5" d="M415.71,-140.79C415.71,-103.2 415.71,-4 415.71,-4 415.71,-4 559.57,-4 559.57,-4"/>
<polygon fill="black" stroke="black" points="559.57,-7.5 569.57,-4 559.57,-0.5 559.57,-7.5"/>
</g>
<!-- :data:database&#45;&gt;:shared:domain -->
<g id="edge25" class="edge">
<title>:data:database&#45;&gt;:shared:domain</title>
<path fill="none" stroke="black" stroke-dasharray="1,5" d="M231.25,-276.08C231.25,-276.08 231.25,-38.89 231.25,-38.89"/>
<polygon fill="black" stroke="black" points="234.75,-38.89 231.25,-28.89 227.75,-38.89 234.75,-38.89"/>
</g>
<!-- :data:database&#45;&gt;:core:coroutines -->
<g id="edge26" class="edge">
<title>:data:database&#45;&gt;:core:coroutines</title>
<path fill="none" stroke="black" stroke-dasharray="1,5" d="M142.07,-278.11C142.07,-278.11 142.07,-178.52 142.07,-178.52"/>
<polygon fill="black" stroke="black" points="145.57,-178.52 142.07,-168.52 138.57,-178.52 145.57,-178.52"/>
</g>
<!-- :data:database&#45;&gt;:data:musicbrainz -->
<g id="edge27" class="edge">
<title>:data:database&#45;&gt;:data:musicbrainz</title>
<path fill="none" stroke="black" stroke-dasharray="1,5" d="M268.49,-286.11C268.49,-286.11 268.49,-170.41 268.49,-170.41"/>
<polygon fill="black" stroke="black" points="271.99,-170.41 268.49,-160.41 264.99,-170.41 271.99,-170.41"/>
</g>
<!-- :data:coverart&#45;&gt;:shared:domain -->
<g id="edge28" class="edge">
<title>:data:coverart&#45;&gt;:shared:domain</title>
<path fill="none" stroke="black" stroke-dasharray="1,5" d="M297.69,-411.79C297.69,-362.28 297.69,-223 297.69,-223 297.69,-223 247.9,-223 247.9,-223 247.9,-223 247.9,-42.74 247.9,-42.74"/>
<polygon fill="black" stroke="black" points="251.4,-42.74 247.9,-32.74 244.4,-42.74 251.4,-42.74"/>
</g>
<!-- :data:coverart&#45;&gt;:test&#45;data -->
<g id="edge31" class="edge">
<title>:data:coverart&#45;&gt;:test&#45;data</title>
<path fill="none" stroke="#ff9ab1" stroke-dasharray="1,5" d="M290.56,-446.63C290.56,-446.63 290.56,-538.87 290.56,-538.87"/>
<polygon fill="#ff9ab1" stroke="#ff9ab1" points="287.06,-538.87 290.56,-548.87 294.06,-538.87 287.06,-538.87"/>
</g>
<!-- :data:coverart&#45;&gt;:core:coroutines -->
<g id="edge30" class="edge">
<title>:data:coverart&#45;&gt;:core:coroutines</title>
<path fill="none" stroke="black" stroke-dasharray="1,5" d="M195.91,-429C144.27,-429 85.39,-429 85.39,-429 85.39,-429 85.39,-183.4 85.39,-183.4"/>
<polygon fill="black" stroke="black" points="88.89,-183.4 85.39,-173.4 81.89,-183.4 88.89,-183.4"/>
</g>
<!-- :data:coverart&#45;&gt;:core:logging:api -->
<g id="edge29" class="edge">
<title>:data:coverart&#45;&gt;:core:logging:api</title>
<path fill="none" stroke="black" stroke-dasharray="1,5" d="M348.22,-429C399.51,-429 457.87,-429 457.87,-429 457.87,-429 457.87,-12 457.87,-12 457.87,-12 531.51,-12 531.51,-12"/>
<polygon fill="black" stroke="black" points="531.51,-15.5 541.51,-12 531.51,-8.5 531.51,-15.5"/>
</g>
<!-- :data:coverart&#45;&gt;:data:musicbrainz -->
<g id="edge32" class="edge">
<title>:data:coverart&#45;&gt;:data:musicbrainz</title>
<path fill="none" stroke="#ff9ab1" stroke-dasharray="1,5" d="M322.94,-415.41C322.94,-415.41 322.94,-181.73 322.94,-181.73"/>
<polygon fill="#ff9ab1" stroke="#ff9ab1" points="326.44,-181.73 322.94,-171.73 319.44,-181.73 326.44,-181.73"/>
</g>
<!-- :data:coverart&#45;&gt;:data:database -->
<g id="edge33" class="edge">
<title>:data:coverart&#45;&gt;:data:database</title>
<path fill="none" stroke="#ff9ab1" stroke-dasharray="1,5" d="M234.27,-413.28C234.27,-413.28 234.27,-317.53 234.27,-317.53"/>
<polygon fill="#ff9ab1" stroke="#ff9ab1" points="237.77,-317.53 234.27,-307.53 230.77,-317.53 237.77,-317.53"/>
</g>
<!-- :data:spotify&#45;&gt;:shared:domain -->
<g id="edge34" class="edge">
<title>:data:spotify&#45;&gt;:shared:domain</title>
<path fill="none" stroke="black" stroke-dasharray="1,5" d="M522.5,-143.95C522.5,-109.76 522.5,-8 522.5,-8 522.5,-8 375.98,-8 375.98,-8"/>
<polygon fill="black" stroke="black" points="375.98,-4.5 365.98,-8 375.98,-11.5 375.98,-4.5"/>
</g>
<!-- :data:spotify&#45;&gt;:core:logging:api -->
<g id="edge35" class="edge">
<title>:data:spotify&#45;&gt;:core:logging:api</title>
<path fill="none" stroke="black" stroke-dasharray="1,5" d="M591.39,-137.37C591.39,-137.37 591.39,-44.7 591.39,-44.7"/>
<polygon fill="black" stroke="black" points="594.89,-44.7 591.39,-34.7 587.89,-44.7 594.89,-44.7"/>
</g>
</g>
</svg>
