<?xml version="1.0" encoding="UTF-8" standalone="no"?>
<!DOCTYPE svg PUBLIC "-//W3C//DTD SVG 1.1//EN"
 "http://www.w3.org/Graphics/SVG/1.1/DTD/svg11.dtd">
<!-- Generated by graphviz version 2.43.0 (0)
 -->
<!-- Title: %3 Pages: 1 -->
<svg width="1015pt" height="940pt"
 viewBox="0.00 0.00 1014.98 940.00" xmlns="http://www.w3.org/2000/svg" xmlns:xlink="http://www.w3.org/1999/xlink">
<g id="graph0" class="graph" transform="scale(1 1) rotate(0) translate(4 936)">
<title>%3</title>
<polygon fill="white" stroke="transparent" points="-4,4 -4,-936 1010.98,-936 1010.98,4 -4,4"/>
<text text-anchor="middle" x="503.49" y="-904" font-family="Times,serif" font-size="30.00">Dependencies</text>
<text text-anchor="middle" x="503.49" y="-871" font-family="Times,serif" font-size="30.00"> </text>
<!-- :android:feature:nowplaying -->
<g id="node1" class="node">
<title>:android:feature:nowplaying</title>
<polygon fill="#9affb5" stroke="black" points="730.14,-858 512.14,-858 512.14,-822 730.14,-822 730.14,-858"/>
<text text-anchor="middle" x="621.14" y="-836.3" font-family="Times,serif" font-size="14.00">:android:feature:nowplaying</text>
</g>
<!-- :shared:domain -->
<g id="node2" class="node">
<title>:shared:domain</title>
<ellipse fill="#b59aff" stroke="black" cx="235.14" cy="-18" rx="82.59" ry="18"/>
<text text-anchor="middle" x="235.14" y="-14.3" font-family="Times,serif" font-size="14.00">:shared:domain</text>
</g>
<!-- :android:feature:nowplaying&#45;&gt;:shared:domain -->
<g id="edge1" class="edge">
<title>:android:feature:nowplaying&#45;&gt;:shared:domain</title>
<path fill="none" stroke="black" stroke-dasharray="1,5" d="M516.84,-821.98C516.84,-709.72 516.84,-111 516.84,-111 516.84,-111 296.6,-111 296.6,-111 296.6,-111 296.6,-40.16 296.6,-40.16"/>
<polygon fill="black" stroke="black" points="300.1,-40.16 296.6,-30.16 293.1,-40.16 300.1,-40.16"/>
</g>
<!-- :ui:common -->
<g id="node3" class="node">
<title>:ui:common</title>
<ellipse fill="#b59aff" stroke="black" cx="621.14" cy="-703" rx="64.19" ry="18"/>
<text text-anchor="middle" x="621.14" y="-699.3" font-family="Times,serif" font-size="14.00">:ui:common</text>
</g>
<!-- :android:feature:nowplaying&#45;&gt;:ui:common -->
<g id="edge2" class="edge">
<title>:android:feature:nowplaying&#45;&gt;:ui:common</title>
<path fill="none" stroke="black" stroke-dasharray="1,5" d="M621.14,-821.81C621.14,-821.81 621.14,-731.27 621.14,-731.27"/>
<polygon fill="black" stroke="black" points="624.64,-731.27 621.14,-721.27 617.64,-731.27 624.64,-731.27"/>
</g>
<!-- :ui:test:screenshot -->
<g id="node4" class="node">
<title>:ui:test:screenshot</title>
<ellipse fill="#9affb5" stroke="black" cx="910.14" cy="-566" rx="96.68" ry="18"/>
<text text-anchor="middle" x="910.14" y="-562.3" font-family="Times,serif" font-size="14.00">:ui:test:screenshot</text>
</g>
<!-- :android:feature:nowplaying&#45;&gt;:ui:test:screenshot -->
<g id="edge3" class="edge">
<title>:android:feature:nowplaying&#45;&gt;:ui:test:screenshot</title>
<path fill="none" stroke="#ff9ab1" stroke-dasharray="1,5" d="M730.36,-840C823.5,-840 942.42,-840 942.42,-840 942.42,-840 942.42,-593.14 942.42,-593.14"/>
<polygon fill="#ff9ab1" stroke="#ff9ab1" points="945.92,-593.14 942.42,-583.14 938.92,-593.14 945.92,-593.14"/>
</g>
<!-- :ui:common&#45;&gt;:shared:domain -->
<g id="edge7" class="edge">
<title>:ui:common&#45;&gt;:shared:domain</title>
<path fill="none" stroke="black" d="M618.4,-684.72C618.4,-595.06 618.4,-206 618.4,-206 618.4,-206 258.98,-206 258.98,-206 258.98,-206 258.98,-45.35 258.98,-45.35"/>
<polygon fill="black" stroke="black" points="262.48,-45.35 258.98,-35.35 255.48,-45.35 262.48,-45.35"/>
</g>
<!-- :ui:common&#45;&gt;:ui:test:screenshot -->
<g id="edge5" class="edge">
<title>:ui:common&#45;&gt;:ui:test:screenshot</title>
<path fill="none" stroke="#ff9ab1" stroke-dasharray="1,5" d="M681.98,-709C757.9,-709 877.86,-709 877.86,-709 877.86,-709 877.86,-593.25 877.86,-593.25"/>
<polygon fill="#ff9ab1" stroke="#ff9ab1" points="881.36,-593.25 877.86,-583.25 874.36,-593.25 881.36,-593.25"/>
</g>
<!-- :test&#45;data -->
<g id="node5" class="node">
<title>:test&#45;data</title>
<ellipse fill="#b59aff" stroke="black" cx="320.14" cy="-566" rx="55.49" ry="18"/>
<text text-anchor="middle" x="320.14" y="-562.3" font-family="Times,serif" font-size="14.00">:test&#45;data</text>
</g>
<!-- :ui:common&#45;&gt;:test&#45;data -->
<g id="edge4" class="edge">
<title>:ui:common&#45;&gt;:test&#45;data</title>
<path fill="none" stroke="#ff9ab1" stroke-dasharray="1,5" d="M587.6,-687.56C587.6,-653.52 587.6,-575 587.6,-575 587.6,-575 378.27,-575 378.27,-575"/>
<polygon fill="#ff9ab1" stroke="#ff9ab1" points="378.27,-571.5 368.27,-575 378.27,-578.5 378.27,-571.5"/>
</g>
<!-- :core:coroutines -->
<g id="node6" class="node">
<title>:core:coroutines</title>
<ellipse fill="#b59aff" stroke="black" cx="103.14" cy="-155" rx="85.29" ry="18"/>
<text text-anchor="middle" x="103.14" y="-151.3" font-family="Times,serif" font-size="14.00">:core:coroutines</text>
</g>
<!-- :ui:common&#45;&gt;:core:coroutines -->
<g id="edge6" class="edge">
<title>:ui:common&#45;&gt;:core:coroutines</title>
<path fill="none" stroke="#ff9ab1" stroke-dasharray="1,5" d="M560.32,-709C412.74,-709 47.71,-709 47.71,-709 47.71,-709 47.71,-178.69 47.71,-178.69"/>
<polygon fill="#ff9ab1" stroke="#ff9ab1" points="51.21,-178.69 47.71,-168.69 44.21,-178.69 51.21,-178.69"/>
</g>
<!-- :ui:core -->
<g id="node7" class="node">
<title>:ui:core</title>
<ellipse fill="#b59aff" stroke="black" cx="785.14" cy="-429" rx="45.49" ry="18"/>
<text text-anchor="middle" x="785.14" y="-425.3" font-family="Times,serif" font-size="14.00">:ui:core</text>
</g>
<!-- :ui:common&#45;&gt;:ui:core -->
<g id="edge8" class="edge">
<title>:ui:common&#45;&gt;:ui:core</title>
<path fill="none" stroke="black" d="M682.23,-697C728.87,-697 785.19,-697 785.19,-697 785.19,-697 785.19,-457 785.19,-457"/>
<polygon fill="black" stroke="black" points="788.69,-457 785.19,-447 781.69,-457 788.69,-457"/>
</g>
<!-- :core:logging:api -->
<g id="node8" class="node">
<title>:core:logging:api</title>
<ellipse fill="#b59aff" stroke="black" cx="546.14" cy="-18" rx="88.28" ry="18"/>
<text text-anchor="middle" x="546.14" y="-14.3" font-family="Times,serif" font-size="14.00">:core:logging:api</text>
</g>
<!-- :ui:common&#45;&gt;:core:logging:api -->
<g id="edge9" class="edge">
<title>:ui:common&#45;&gt;:core:logging:api</title>
<path fill="none" stroke="black" stroke-dasharray="1,5" d="M560.34,-697C539.6,-697 521.55,-697 521.55,-697 521.55,-697 521.55,-45.47 521.55,-45.47"/>
<polygon fill="black" stroke="black" points="525.05,-45.47 521.55,-35.47 518.05,-45.47 525.05,-45.47"/>
</g>
<!-- :ui:image -->
<g id="node9" class="node">
<title>:ui:image</title>
<ellipse fill="#b59aff" stroke="black" cx="703.14" cy="-566" rx="53.89" ry="18"/>
<text text-anchor="middle" x="703.14" y="-562.3" font-family="Times,serif" font-size="14.00">:ui:image</text>
</g>
<!-- :ui:common&#45;&gt;:ui:image -->
<g id="edge10" class="edge">
<title>:ui:common&#45;&gt;:ui:image</title>
<path fill="none" stroke="black" stroke-dasharray="1,5" d="M667.34,-690.36C667.34,-690.36 667.34,-589.83 667.34,-589.83"/>
<polygon fill="black" stroke="black" points="670.84,-589.83 667.34,-579.83 663.84,-589.83 670.84,-589.83"/>
</g>
<!-- :ui:test:screenshot&#45;&gt;:ui:core -->
<g id="edge11" class="edge">
<title>:ui:test:screenshot&#45;&gt;:ui:core</title>
<path fill="none" stroke="black" stroke-dasharray="1,5" d="M821.97,-558.24C821.97,-558.24 821.97,-449.58 821.97,-449.58"/>
<polygon fill="black" stroke="black" points="825.47,-449.58 821.97,-439.58 818.47,-449.58 825.47,-449.58"/>
</g>
<!-- :test:image -->
<g id="node10" class="node">
<title>:test:image</title>
<ellipse fill="#9affb5" stroke="black" cx="912.14" cy="-429" rx="63.09" ry="18"/>
<text text-anchor="middle" x="912.14" y="-425.3" font-family="Times,serif" font-size="14.00">:test:image</text>
</g>
<!-- :ui:test:screenshot&#45;&gt;:test:image -->
<g id="edge12" class="edge">
<title>:ui:test:screenshot&#45;&gt;:test:image</title>
<path fill="none" stroke="black" stroke-dasharray="1,5" d="M912.14,-547.81C912.14,-547.81 912.14,-457.27 912.14,-457.27"/>
<polygon fill="black" stroke="black" points="915.64,-457.27 912.14,-447.27 908.64,-457.27 915.64,-457.27"/>
</g>
<!-- :test&#45;data&#45;&gt;:shared:domain -->
<g id="edge13" class="edge">
<title>:test&#45;data&#45;&gt;:shared:domain</title>
<path fill="none" stroke="black" stroke-dasharray="1,5" d="M272.21,-575C182.9,-575 0,-575 0,-575 0,-575 0,-18 0,-18 0,-18 142.57,-18 142.57,-18"/>
<polygon fill="black" stroke="black" points="142.57,-21.5 152.57,-18 142.57,-14.5 142.57,-21.5"/>
</g>
<!-- :test&#45;data&#45;&gt;:core:coroutines -->
<g id="edge14" class="edge">
<title>:test&#45;data&#45;&gt;:core:coroutines</title>
<path fill="none" stroke="black" stroke-dasharray="1,5" d="M264.76,-566C193.13,-566 77.42,-566 77.42,-566 77.42,-566 77.42,-182.4 77.42,-182.4"/>
<polygon fill="black" stroke="black" points="80.92,-182.4 77.42,-172.4 73.92,-182.4 80.92,-182.4"/>
</g>
<!-- :data:database -->
<g id="node11" class="node">
<title>:data:database</title>
<ellipse fill="#b59aff" stroke="black" cx="216.14" cy="-292" rx="79.09" ry="18"/>
<text text-anchor="middle" x="216.14" y="-288.3" font-family="Times,serif" font-size="14.00">:data:database</text>
</g>
<!-- :test&#45;data&#45;&gt;:data:database -->
<g id="edge15" class="edge">
<title>:test&#45;data&#45;&gt;:data:database</title>
<path fill="none" stroke="black" stroke-dasharray="1,5" d="M272.23,-557C235.29,-557 190.47,-557 190.47,-557 190.47,-557 190.47,-319.39 190.47,-319.39"/>
<polygon fill="black" stroke="black" points="193.97,-319.39 190.47,-309.39 186.97,-319.39 193.97,-319.39"/>
</g>
<!-- :data:musicbrainz -->
<g id="node12" class="node">
<title>:data:musicbrainz</title>
<ellipse fill="#b59aff" stroke="black" cx="376.14" cy="-155" rx="93.68" ry="18"/>
<text text-anchor="middle" x="376.14" y="-151.3" font-family="Times,serif" font-size="14.00">:data:musicbrainz</text>
</g>
<!-- :test&#45;data&#45;&gt;:data:musicbrainz -->
<g id="edge16" class="edge">
<title>:test&#45;data&#45;&gt;:data:musicbrainz</title>
<path fill="none" stroke="black" stroke-dasharray="1,5" d="M367.99,-557C398.74,-557 432.96,-557 432.96,-557 432.96,-557 432.96,-179.31 432.96,-179.31"/>
<polygon fill="black" stroke="black" points="436.46,-179.31 432.96,-169.31 429.46,-179.31 436.46,-179.31"/>
</g>
<!-- :data:coverart -->
<g id="node13" class="node">
<title>:data:coverart</title>
<ellipse fill="#b59aff" stroke="black" cx="320.14" cy="-429" rx="76.09" ry="18"/>
<text text-anchor="middle" x="320.14" y="-425.3" font-family="Times,serif" font-size="14.00">:data:coverart</text>
</g>
<!-- :test&#45;data&#45;&gt;:data:coverart -->
<g id="edge17" class="edge">
<title>:test&#45;data&#45;&gt;:data:coverart</title>
<path fill="none" stroke="black" stroke-dasharray="1,5" d="M301.73,-548.93C301.73,-548.93 301.73,-456.72 301.73,-456.72"/>
<polygon fill="black" stroke="black" points="305.23,-456.72 301.73,-446.72 298.23,-456.72 305.23,-456.72"/>
</g>
<!-- :data:spotify -->
<g id="node14" class="node">
<title>:data:spotify</title>
<ellipse fill="#b59aff" stroke="black" cx="595.14" cy="-155" rx="68.79" ry="18"/>
<text text-anchor="middle" x="595.14" y="-151.3" font-family="Times,serif" font-size="14.00">:data:spotify</text>
</g>
<!-- :test&#45;data&#45;&gt;:data:spotify -->
<g id="edge18" class="edge">
<title>:test&#45;data&#45;&gt;:data:spotify</title>
<path fill="none" stroke="black" stroke-dasharray="1,5" d="M375.44,-566C441.01,-566 541.52,-566 541.52,-566 541.52,-566 541.52,-176.42 541.52,-176.42"/>
<polygon fill="black" stroke="black" points="545.02,-176.42 541.52,-166.42 538.02,-176.42 545.02,-176.42"/>
</g>
<!-- :shared:strings -->
<g id="node15" class="node">
<title>:shared:strings</title>
<ellipse fill="#b59aff" stroke="black" cx="801.14" cy="-292" rx="81.49" ry="18"/>
<text text-anchor="middle" x="801.14" y="-288.3" font-family="Times,serif" font-size="14.00">:shared:strings</text>
</g>
<!-- :ui:core&#45;&gt;:shared:strings -->
<g id="edge19" class="edge">
<title>:ui:core&#45;&gt;:shared:strings</title>
<path fill="none" stroke="black" d="M785.14,-410.81C785.14,-410.81 785.14,-319.83 785.14,-319.83"/>
<polygon fill="black" stroke="black" points="788.64,-319.83 785.14,-309.83 781.64,-319.83 788.64,-319.83"/>
</g>
<!-- :ui:image&#45;&gt;:shared:domain -->
<g id="edge20" class="edge">
<title>:ui:image&#45;&gt;:shared:domain</title>
<path fill="none" stroke="black" stroke-dasharray="1,5" d="M691.97,-548.32C691.97,-458.94 691.97,-61 691.97,-61 691.97,-61 310.66,-61 310.66,-61 310.66,-61 310.66,-35.49 310.66,-35.49"/>
<polygon fill="black" stroke="black" points="314.16,-35.49 310.66,-25.49 307.16,-35.49 314.16,-35.49"/>
</g>
<!-- :ui:image&#45;&gt;:ui:core -->
<g id="edge21" class="edge">
<title>:ui:image&#45;&gt;:ui:core</title>
<path fill="none" stroke="black" stroke-dasharray="1,5" d="M748.37,-556.15C748.37,-556.15 748.37,-449.89 748.37,-449.89"/>
<polygon fill="black" stroke="black" points="751.87,-449.89 748.37,-439.89 744.87,-449.89 751.87,-449.89"/>
</g>
<!-- :data:database&#45;&gt;:shared:domain -->
<g id="edge22" class="edge">
<title>:data:database&#45;&gt;:shared:domain</title>
<path fill="none" stroke="black" stroke-dasharray="1,5" d="M211.85,-274.02C211.85,-274.02 211.85,-45.33 211.85,-45.33"/>
<polygon fill="black" stroke="black" points="215.35,-45.33 211.85,-35.33 208.35,-45.33 215.35,-45.33"/>
</g>
<!-- :data:database&#45;&gt;:core:coroutines -->
<g id="edge23" class="edge">
<title>:data:database&#45;&gt;:core:coroutines</title>
<path fill="none" stroke="black" stroke-dasharray="1,5" d="M162.57,-278.61C162.57,-278.61 162.57,-178.24 162.57,-178.24"/>
<polygon fill="black" stroke="black" points="166.07,-178.24 162.57,-168.24 159.07,-178.24 166.07,-178.24"/>
</g>
<!-- :data:database&#45;&gt;:data:musicbrainz -->
<g id="edge24" class="edge">
<title>:data:database&#45;&gt;:data:musicbrainz</title>
<path fill="none" stroke="black" stroke-dasharray="1,5" d="M288.99,-284.63C288.99,-284.63 288.99,-171.75 288.99,-171.75"/>
<polygon fill="black" stroke="black" points="292.49,-171.75 288.99,-161.75 285.49,-171.75 292.49,-171.75"/>
</g>
<!-- :data:musicbrainz&#45;&gt;:shared:domain -->
<g id="edge25" class="edge">
<title>:data:musicbrainz&#45;&gt;:shared:domain</title>
<path fill="none" stroke="black" stroke-dasharray="1,5" d="M289.58,-148.02C289.58,-148.02 289.58,-41.67 289.58,-41.67"/>
<polygon fill="black" stroke="black" points="293.08,-41.67 289.58,-31.67 286.08,-41.67 293.08,-41.67"/>
</g>
<!-- :data:musicbrainz&#45;&gt;:core:logging:api -->
<g id="edge26" class="edge">
<title>:data:musicbrainz&#45;&gt;:core:logging:api</title>
<path fill="none" stroke="black" stroke-dasharray="1,5" d="M463.74,-148.39C463.74,-148.39 463.74,-34.54 463.74,-34.54"/>
<polygon fill="black" stroke="black" points="467.24,-34.54 463.74,-24.54 460.24,-34.54 467.24,-34.54"/>
</g>
<!-- :data:coverart&#45;&gt;:shared:domain -->
<g id="edge27" class="edge">
<title>:data:coverart&#45;&gt;:shared:domain</title>
<path fill="none" stroke="black" stroke-dasharray="1,5" d="M329.02,-410.88C329.02,-363.57 329.02,-240 329.02,-240 329.02,-240 235.42,-240 235.42,-240 235.42,-240 235.42,-46.17 235.42,-46.17"/>
<polygon fill="black" stroke="black" points="238.92,-46.17 235.42,-36.17 231.92,-46.17 238.92,-46.17"/>
</g>
<!-- :data:coverart&#45;&gt;:test&#45;data -->
<g id="edge30" class="edge">
<title>:data:coverart&#45;&gt;:test&#45;data</title>
<path fill="none" stroke="#ff9ab1" stroke-dasharray="1,5" d="M338.56,-446.63C338.56,-446.63 338.56,-538.87 338.56,-538.87"/>
<polygon fill="#ff9ab1" stroke="#ff9ab1" points="335.06,-538.87 338.56,-548.87 342.06,-538.87 335.06,-538.87"/>
</g>
<!-- :data:coverart&#45;&gt;:core:coroutines -->
<g id="edge29" class="edge">
<title>:data:coverart&#45;&gt;:core:coroutines</title>
<path fill="none" stroke="black" stroke-dasharray="1,5" d="M243.84,-429C182.72,-429 107.14,-429 107.14,-429 107.14,-429 107.14,-183.4 107.14,-183.4"/>
<polygon fill="black" stroke="black" points="110.64,-183.4 107.14,-173.4 103.64,-183.4 110.64,-183.4"/>
</g>
<!-- :data:coverart&#45;&gt;:core:logging:api -->
<g id="edge28" class="edge">
<title>:data:coverart&#45;&gt;:core:logging:api</title>
<path fill="none" stroke="black" stroke-dasharray="1,5" d="M396.55,-429C442.02,-429 490.94,-429 490.94,-429 490.94,-429 490.94,-42.15 490.94,-42.15"/>
<polygon fill="black" stroke="black" points="494.44,-42.15 490.94,-32.15 487.44,-42.15 494.44,-42.15"/>
</g>
<!-- :data:coverart&#45;&gt;:data:database -->
<g id="edge32" class="edge">
<title>:data:coverart&#45;&gt;:data:database</title>
<path fill="none" stroke="#ff9ab1" stroke-dasharray="1,5" d="M269.77,-415.36C269.77,-415.36 269.77,-315.58 269.77,-315.58"/>
<polygon fill="#ff9ab1" stroke="#ff9ab1" points="273.27,-315.58 269.77,-305.58 266.27,-315.58 273.27,-315.58"/>
</g>
<!-- :data:coverart&#45;&gt;:data:musicbrainz -->
<g id="edge31" class="edge">
<title>:data:coverart&#45;&gt;:data:musicbrainz</title>
<path fill="none" stroke="#ff9ab1" stroke-dasharray="1,5" d="M362.6,-413.88C362.6,-413.88 362.6,-182.87 362.6,-182.87"/>
<polygon fill="#ff9ab1" stroke="#ff9ab1" points="366.1,-182.87 362.6,-172.87 359.1,-182.87 366.1,-182.87"/>
</g>
<!-- :data:spotify&#45;&gt;:shared:domain -->
<g id="edge33" class="edge">
<title>:data:spotify&#45;&gt;:shared:domain</title>
<path fill="none" stroke="black" stroke-dasharray="1,5" d="M562.34,-139C562.34,-118.61 562.34,-86 562.34,-86 562.34,-86 303.63,-86 303.63,-86 303.63,-86 303.63,-38.33 303.63,-38.33"/>
<polygon fill="black" stroke="black" points="307.13,-38.33 303.63,-28.33 300.13,-38.33 307.13,-38.33"/>
</g>
<!-- :data:spotify&#45;&gt;:core:logging:api -->
<g id="edge34" class="edge">
<title>:data:spotify&#45;&gt;:core:logging:api</title>
<path fill="none" stroke="black" stroke-dasharray="1,5" d="M598.44,-136.81C598.44,-136.81 598.44,-42.9 598.44,-42.9"/>
<polygon fill="black" stroke="black" points="601.94,-42.9 598.44,-32.9 594.94,-42.9 601.94,-42.9"/>
</g>
</g>
</svg>
