<?xml version="1.0" encoding="UTF-8" standalone="no"?>
<!DOCTYPE svg PUBLIC "-//W3C//DTD SVG 1.1//EN"
 "http://www.w3.org/Graphics/SVG/1.1/DTD/svg11.dtd">
<!-- Generated by graphviz version 11.0.0 (20240428.1522)
 -->
<!-- Pages: 1 -->
<svg width="1116pt" height="668pt"
 viewBox="0.00 0.00 1116.08 667.50" xmlns="http://www.w3.org/2000/svg" xmlns:xlink="http://www.w3.org/1999/xlink">
<g id="graph0" class="graph" transform="scale(1 1) rotate(0) translate(4 663.5)">
<polygon fill="white" stroke="none" points="-4,4 -4,-663.5 1112.08,-663.5 1112.08,4 -4,4"/>
<text text-anchor="middle" x="554.04" y="-627" font-family="Times,serif" font-size="30.00">nowplaying</text>
<text text-anchor="middle" x="554.04" y="-593.25" font-family="Times,serif" font-size="30.00"> </text>
<!-- :android:feature:nowplaying -->
<g id="node1" class="node">
<title>:android:feature:nowplaying</title>
<polygon fill="#9affb5" stroke="black" points="1061.63,-584 701.63,-584 701.63,-548 1061.63,-548 1061.63,-584"/>
<text text-anchor="middle" x="881.63" y="-560.95" font-family="Times,serif" font-size="14.00">:android:feature:nowplaying</text>
</g>
<!-- :core:models -->
<g id="node2" class="node">
<title>:core:models</title>
<ellipse fill="#b59aff" stroke="black" cx="307.63" cy="-18" rx="59.03" ry="18"/>
<text text-anchor="middle" x="307.63" y="-12.95" font-family="Times,serif" font-size="14.00">:core:models</text>
</g>
<!-- :android:feature:nowplaying&#45;&gt;:core:models -->
<g id="edge1" class="edge">
<title>:android:feature:nowplaying&#45;&gt;:core:models</title>
<path fill="none" stroke="black" stroke-dasharray="1,5" d="M753.75,-547.5C753.75,-451.03 753.75,-10 753.75,-10 753.75,-10 372.51,-10 372.51,-10"/>
<polygon fill="black" stroke="black" points="372.51,-6.5 362.51,-10 372.51,-13.5 372.51,-6.5"/>
</g>
<!-- :domain -->
<g id="node3" class="node">
<title>:domain</title>
<ellipse fill="#b59aff" stroke="black" cx="41.63" cy="-155" rx="41.63" ry="18"/>
<text text-anchor="middle" x="41.63" y="-149.95" font-family="Times,serif" font-size="14.00">:domain</text>
</g>
<!-- :android:feature:nowplaying&#45;&gt;:domain -->
<g id="edge2" class="edge">
<title>:android:feature:nowplaying&#45;&gt;:domain</title>
<path fill="none" stroke="black" stroke-dasharray="1,5" d="M701.39,-566C449.6,-566 23.08,-566 23.08,-566 23.08,-566 23.08,-182.88 23.08,-182.88"/>
<polygon fill="black" stroke="black" points="26.58,-182.88 23.08,-172.88 19.58,-182.88 26.58,-182.88"/>
</g>
<!-- :strings -->
<g id="node4" class="node">
<title>:strings</title>
<ellipse fill="#b59aff" stroke="black" cx="992.63" cy="-18" rx="38.04" ry="18"/>
<text text-anchor="middle" x="992.63" y="-12.95" font-family="Times,serif" font-size="14.00">:strings</text>
</g>
<!-- :android:feature:nowplaying&#45;&gt;:strings -->
<g id="edge3" class="edge">
<title>:android:feature:nowplaying&#45;&gt;:strings</title>
<path fill="none" stroke="black" stroke-dasharray="1,5" d="M890.96,-547.55C890.96,-453.3 890.96,-30 890.96,-30 890.96,-30 951.98,-30 951.98,-30"/>
<polygon fill="black" stroke="black" points="951.98,-33.5 961.98,-30 951.98,-26.5 951.98,-33.5"/>
</g>
<!-- :ui:common -->
<g id="node5" class="node">
<title>:ui:common</title>
<ellipse fill="#b59aff" stroke="black" cx="683.63" cy="-429" rx="56.47" ry="18"/>
<text text-anchor="middle" x="683.63" y="-423.95" font-family="Times,serif" font-size="14.00">:ui:common</text>
</g>
<!-- :android:feature:nowplaying&#45;&gt;:ui:common -->
<g id="edge4" class="edge">
<title>:android:feature:nowplaying&#45;&gt;:ui:common</title>
<path fill="none" stroke="black" stroke-dasharray="1,5" d="M720.86,-547.52C720.86,-547.52 720.86,-454.16 720.86,-454.16"/>
<polygon fill="black" stroke="black" points="724.36,-454.16 720.86,-444.16 717.36,-454.16 724.36,-454.16"/>
</g>
<!-- :ui:core -->
<g id="node6" class="node">
<title>:ui:core</title>
<ellipse fill="#b59aff" stroke="black" cx="992.63" cy="-155" rx="39.07" ry="18"/>
<text text-anchor="middle" x="992.63" y="-149.95" font-family="Times,serif" font-size="14.00">:ui:core</text>
</g>
<!-- :android:feature:nowplaying&#45;&gt;:ui:core -->
<g id="edge5" class="edge">
<title>:android:feature:nowplaying&#45;&gt;:ui:core</title>
<path fill="none" stroke="black" stroke-dasharray="1,5" d="M922.07,-547.73C922.07,-469.28 922.07,-165 922.07,-165 922.07,-165 947.9,-165 947.9,-165"/>
<polygon fill="black" stroke="black" points="947.9,-168.5 957.9,-165 947.9,-161.5 947.9,-168.5"/>
</g>
<!-- :ui:test:screenshot -->
<g id="node7" class="node">
<title>:ui:test:screenshot</title>
<ellipse fill="#9affb5" stroke="black" cx="1030.63" cy="-292" rx="77.45" ry="18"/>
<text text-anchor="middle" x="1030.63" y="-286.95" font-family="Times,serif" font-size="14.00">:ui:test:screenshot</text>
</g>
<!-- :android:feature:nowplaying&#45;&gt;:ui:test:screenshot -->
<g id="edge6" class="edge">
<title>:android:feature:nowplaying&#45;&gt;:ui:test:screenshot</title>
<path fill="none" stroke="#ff9ab1" stroke-dasharray="1,5" d="M1025.48,-547.6C1025.48,-547.6 1025.48,-321.84 1025.48,-321.84"/>
<polygon fill="#ff9ab1" stroke="#ff9ab1" points="1028.98,-321.84 1025.48,-311.84 1021.98,-321.84 1028.98,-321.84"/>
</g>
<!-- :domain&#45;&gt;:core:models -->
<g id="edge7" class="edge">
<title>:domain&#45;&gt;:core:models</title>
<path fill="none" stroke="black" stroke-dasharray="1,5" d="M41.63,-136.6C41.63,-97.98 41.63,-12 41.63,-12 41.63,-12 240.03,-12 240.03,-12"/>
<polygon fill="black" stroke="black" points="240.03,-15.5 250.03,-12 240.03,-8.5 240.03,-15.5"/>
</g>
<!-- :ui:common&#45;&gt;:core:models -->
<g id="edge10" class="edge">
<title>:ui:common&#45;&gt;:core:models</title>
<path fill="none" stroke="black" d="M717.27,-414.27C717.27,-340.52 717.27,-15 717.27,-15 717.27,-15 377.83,-15 377.83,-15"/>
<polygon fill="black" stroke="black" points="377.83,-11.5 367.83,-15 377.83,-18.5 377.83,-11.5"/>
</g>
<!-- :ui:common&#45;&gt;:domain -->
<g id="edge15" class="edge">
<title>:ui:common&#45;&gt;:domain</title>
<path fill="none" stroke="black" stroke-dasharray="1,5" d="M640.31,-441C496.84,-441 46.16,-441 46.16,-441 46.16,-441 46.16,-184.84 46.16,-184.84"/>
<polygon fill="black" stroke="black" points="49.66,-184.84 46.16,-174.84 42.66,-184.84 49.66,-184.84"/>
</g>
<!-- :ui:common&#45;&gt;:strings -->
<g id="edge16" class="edge">
<title>:ui:common&#45;&gt;:strings</title>
<path fill="none" stroke="black" stroke-dasharray="1,5" d="M722.98,-416.02C722.98,-346.87 722.98,-25 722.98,-25 722.98,-25 945.58,-25 945.58,-25"/>
<polygon fill="black" stroke="black" points="945.58,-28.5 955.58,-25 945.58,-21.5 945.58,-28.5"/>
</g>
<!-- :ui:common&#45;&gt;:ui:core -->
<g id="edge17" class="edge">
<title>:ui:common&#45;&gt;:ui:core</title>
<path fill="none" stroke="red" d="M728.69,-417.83C728.69,-365.14 728.69,-144 728.69,-144 728.69,-144 949.54,-144 949.54,-144"/>
<polygon fill="red" stroke="red" points="949.54,-147.5 959.54,-144 949.54,-140.5 949.54,-147.5"/>
</g>
<!-- :ui:common&#45;&gt;:ui:test:screenshot -->
<g id="edge9" class="edge">
<title>:ui:common&#45;&gt;:ui:test:screenshot</title>
<path fill="none" stroke="#ff9ab1" d="M740.41,-429C828.82,-429 989.32,-429 989.32,-429 989.32,-429 989.32,-318.96 989.32,-318.96"/>
<polygon fill="#ff9ab1" stroke="#ff9ab1" points="992.82,-318.96 989.32,-308.96 985.82,-318.96 992.82,-318.96"/>
</g>
<!-- :ui:test:image -->
<g id="node8" class="node">
<title>:ui:test:image</title>
<ellipse fill="#9affb5" stroke="black" cx="477.63" cy="-292" rx="61.59" ry="18"/>
<text text-anchor="middle" x="477.63" y="-286.95" font-family="Times,serif" font-size="14.00">:ui:test:image</text>
</g>
<!-- :ui:common&#45;&gt;:ui:test:image -->
<g id="edge8" class="edge">
<title>:ui:common&#45;&gt;:ui:test:image</title>
<path fill="none" stroke="#ff9ab1" d="M640.44,-417C580.04,-417 477.63,-417 477.63,-417 477.63,-417 477.63,-321.96 477.63,-321.96"/>
<polygon fill="#ff9ab1" stroke="#ff9ab1" points="481.13,-321.96 477.63,-311.96 474.13,-321.96 481.13,-321.96"/>
</g>
<!-- :data:coverart -->
<g id="node9" class="node">
<title>:data:coverart</title>
<ellipse fill="#b59aff" stroke="black" cx="297.63" cy="-292" rx="61.59" ry="18"/>
<text text-anchor="middle" x="297.63" y="-286.95" font-family="Times,serif" font-size="14.00">:data:coverart</text>
</g>
<!-- :ui:common&#45;&gt;:data:coverart -->
<g id="edge11" class="edge">
<title>:ui:common&#45;&gt;:data:coverart</title>
<path fill="none" stroke="orange" d="M626.67,-429C519.3,-429 297.63,-429 297.63,-429 297.63,-429 297.63,-321.99 297.63,-321.99"/>
<polygon fill="orange" stroke="orange" points="301.13,-321.99 297.63,-311.99 294.13,-321.99 301.13,-321.99"/>
</g>
<!-- :data:musicbrainz -->
<g id="node10" class="node">
<title>:data:musicbrainz</title>
<ellipse fill="#b59aff" stroke="black" cx="634.63" cy="-292" rx="76.94" ry="18"/>
<text text-anchor="middle" x="634.63" y="-286.95" font-family="Times,serif" font-size="14.00">:data:musicbrainz</text>
</g>
<!-- :ui:common&#45;&gt;:data:musicbrainz -->
<g id="edge12" class="edge">
<title>:ui:common&#45;&gt;:data:musicbrainz</title>
<path fill="none" stroke="orange" d="M669.36,-411.09C669.36,-411.09 669.36,-319.72 669.36,-319.72"/>
<polygon fill="orange" stroke="orange" points="672.86,-319.72 669.36,-309.72 665.86,-319.72 672.86,-319.72"/>
</g>
<!-- :core:preferences -->
<g id="node11" class="node">
<title>:core:preferences</title>
<ellipse fill="#b59aff" stroke="black" cx="143.63" cy="-292" rx="74.38" ry="18"/>
<text text-anchor="middle" x="143.63" y="-286.95" font-family="Times,serif" font-size="14.00">:core:preferences</text>
</g>
<!-- :ui:common&#45;&gt;:core:preferences -->
<g id="edge13" class="edge">
<title>:ui:common&#45;&gt;:core:preferences</title>
<path fill="none" stroke="black" stroke-dasharray="1,5" d="M629.88,-435C493.29,-435 143.63,-435 143.63,-435 143.63,-435 143.63,-321.92 143.63,-321.92"/>
<polygon fill="black" stroke="black" points="147.13,-321.92 143.63,-311.92 140.13,-321.92 147.13,-321.92"/>
</g>
<!-- :core:logging:api -->
<g id="node12" class="node">
<title>:core:logging:api</title>
<ellipse fill="#b59aff" stroke="black" cx="409.63" cy="-155" rx="73.87" ry="18"/>
<text text-anchor="middle" x="409.63" y="-149.95" font-family="Times,serif" font-size="14.00">:core:logging:api</text>
</g>
<!-- :ui:common&#45;&gt;:core:logging:api -->
<g id="edge14" class="edge">
<title>:ui:common&#45;&gt;:core:logging:api</title>
<path fill="none" stroke="black" stroke-dasharray="1,5" d="M630.02,-423C544.72,-423 387.63,-423 387.63,-423 387.63,-423 387.63,-184.1 387.63,-184.1"/>
<polygon fill="black" stroke="black" points="391.13,-184.1 387.63,-174.1 384.13,-184.1 391.13,-184.1"/>
</g>
<!-- :ui:image -->
<g id="node13" class="node">
<title>:ui:image</title>
<ellipse fill="#b59aff" stroke="black" cx="813.63" cy="-292" rx="46.23" ry="18"/>
<text text-anchor="middle" x="813.63" y="-286.95" font-family="Times,serif" font-size="14.00">:ui:image</text>
</g>
<!-- :ui:common&#45;&gt;:ui:image -->
<g id="edge18" class="edge">
<title>:ui:common&#45;&gt;:ui:image</title>
<path fill="none" stroke="red" d="M734.39,-420.84C734.39,-391.35 734.39,-292 734.39,-292 734.39,-292 755.56,-292 755.56,-292"/>
<polygon fill="red" stroke="red" points="755.56,-295.5 765.56,-292 755.56,-288.5 755.56,-295.5"/>
</g>
<!-- :ui:core&#45;&gt;:strings -->
<g id="edge19" class="edge">
<title>:ui:core&#45;&gt;:strings</title>
<path fill="none" stroke="black" d="M992.63,-136.52C992.63,-136.52 992.63,-47.7 992.63,-47.7"/>
<polygon fill="black" stroke="black" points="996.13,-47.7 992.63,-37.7 989.13,-47.7 996.13,-47.7"/>
</g>
<!-- :ui:test:screenshot&#45;&gt;:ui:core -->
<g id="edge20" class="edge">
<title>:ui:test:screenshot&#45;&gt;:ui:core</title>
<path fill="none" stroke="red" d="M992.63,-276.02C992.63,-276.02 992.63,-185.01 992.63,-185.01"/>
<polygon fill="red" stroke="red" points="996.13,-185.01 992.63,-175.01 989.13,-185.01 996.13,-185.01"/>
</g>
<!-- :data:coverart&#45;&gt;:core:models -->
<g id="edge22" class="edge">
<title>:data:coverart&#45;&gt;:core:models</title>
<path fill="none" stroke="black" stroke-dasharray="1,5" d="M307.84,-274.02C307.84,-274.02 307.84,-47.92 307.84,-47.92"/>
<polygon fill="black" stroke="black" points="311.34,-47.92 307.84,-37.92 304.34,-47.92 311.34,-47.92"/>
</g>
<!-- :data:coverart&#45;&gt;:domain -->
<g id="edge23" class="edge">
<title>:data:coverart&#45;&gt;:domain</title>
<path fill="none" stroke="black" stroke-dasharray="1,5" d="M257.98,-278.04C257.98,-257.87 257.98,-223 257.98,-223 257.98,-223 76.25,-223 76.25,-223 76.25,-223 76.25,-176.84 76.25,-176.84"/>
<polygon fill="black" stroke="black" points="79.75,-176.84 76.25,-166.84 72.75,-176.84 79.75,-176.84"/>
</g>
<!-- :data:coverart&#45;&gt;:core:logging:api -->
<g id="edge21" class="edge">
<title>:data:coverart&#45;&gt;:core:logging:api</title>
<path fill="none" stroke="black" stroke-dasharray="1,5" d="M347.49,-281.25C347.49,-281.25 347.49,-176.47 347.49,-176.47"/>
<polygon fill="black" stroke="black" points="350.99,-176.47 347.49,-166.47 343.99,-176.47 350.99,-176.47"/>
</g>
<!-- :data:musicbrainz&#45;&gt;:core:models -->
<g id="edge25" class="edge">
<title>:data:musicbrainz&#45;&gt;:core:models</title>
<path fill="none" stroke="black" stroke-dasharray="1,5" d="M660.27,-274.57C660.27,-214.54 660.27,-20 660.27,-20 660.27,-20 378.17,-20 378.17,-20"/>
<polygon fill="black" stroke="black" points="378.17,-16.5 368.17,-20 378.17,-23.5 378.17,-16.5"/>
</g>
<!-- :data:musicbrainz&#45;&gt;:core:logging:api -->
<g id="edge24" class="edge">
<title>:data:musicbrainz&#45;&gt;:core:logging:api</title>
<path fill="none" stroke="black" stroke-dasharray="1,5" d="M608.98,-274.76C608.98,-238.56 608.98,-158 608.98,-158 608.98,-158 494.52,-158 494.52,-158"/>
<polygon fill="black" stroke="black" points="494.52,-154.5 484.52,-158 494.52,-161.5 494.52,-154.5"/>
</g>
<!-- :core:preferences&#45;&gt;:core:models -->
<g id="edge27" class="edge">
<title>:core:preferences&#45;&gt;:core:models</title>
<path fill="none" stroke="black" stroke-dasharray="1,5" d="M111.3,-275.64C111.3,-217.45 111.3,-24 111.3,-24 111.3,-24 239.85,-24 239.85,-24"/>
<polygon fill="black" stroke="black" points="239.85,-27.5 249.85,-24 239.85,-20.5 239.85,-27.5"/>
</g>
<!-- :core:coroutines -->
<g id="node14" class="node">
<title>:core:coroutines</title>
<ellipse fill="#b59aff" stroke="black" cx="209.63" cy="-155" rx="70.29" ry="18"/>
<text text-anchor="middle" x="209.63" y="-149.95" font-family="Times,serif" font-size="14.00">:core:coroutines</text>
</g>
<!-- :core:preferences&#45;&gt;:core:coroutines -->
<g id="edge26" class="edge">
<title>:core:preferences&#45;&gt;:core:coroutines</title>
<path fill="none" stroke="black" stroke-dasharray="1,5" d="M178.67,-275.75C178.67,-275.75 178.67,-182.75 178.67,-182.75"/>
<polygon fill="black" stroke="black" points="182.17,-182.75 178.67,-172.75 175.17,-182.75 182.17,-182.75"/>
</g>
<!-- :ui:image&#45;&gt;:core:models -->
<g id="edge28" class="edge">
<title>:ui:image&#45;&gt;:core:models</title>
<path fill="none" stroke="black" stroke-dasharray="1,5" d="M798.22,-274.91C798.22,-213.12 798.22,-5 798.22,-5 798.22,-5 361.39,-5 361.39,-5"/>
<polygon fill="black" stroke="black" points="361.39,-1.5 351.39,-5 361.39,-8.5 361.39,-1.5"/>
</g>
<!-- :ui:image&#45;&gt;:ui:core -->
<g id="edge29" class="edge">
<title>:ui:image&#45;&gt;:ui:core</title>
<path fill="none" stroke="red" d="M829.04,-274.71C829.04,-237.06 829.04,-151 829.04,-151 829.04,-151 942.76,-151 942.76,-151"/>
<polygon fill="red" stroke="red" points="942.76,-154.5 952.76,-151 942.76,-147.5 942.76,-154.5"/>
</g>
</g>
</svg>
