<?xml version="1.0" encoding="UTF-8" standalone="no"?>
<!DOCTYPE svg PUBLIC "-//W3C//DTD SVG 1.1//EN"
 "http://www.w3.org/Graphics/SVG/1.1/DTD/svg11.dtd">
<!-- Generated by graphviz version 2.43.0 (0)
 -->
<!-- Title: %3 Pages: 1 -->
<svg width="1335pt" height="666pt"
 viewBox="0.00 0.00 1335.38 666.00" xmlns="http://www.w3.org/2000/svg" xmlns:xlink="http://www.w3.org/1999/xlink">
<g id="graph0" class="graph" transform="scale(1 1) rotate(0) translate(4 662)">
<title>%3</title>
<polygon fill="white" stroke="transparent" points="-4,4 -4,-662 1331.38,-662 1331.38,4 -4,4"/>
<text text-anchor="middle" x="663.69" y="-630" font-family="Times,serif" font-size="30.00">Dependencies</text>
<text text-anchor="middle" x="663.69" y="-597" font-family="Times,serif" font-size="30.00"> </text>
<!-- :android:feature:nowplaying -->
<g id="node1" class="node">
<title>:android:feature:nowplaying</title>
<polygon fill="#9affb5" stroke="black" points="792.54,-584 574.54,-584 574.54,-548 792.54,-548 792.54,-584"/>
<text text-anchor="middle" x="683.54" y="-562.3" font-family="Times,serif" font-size="14.00">:android:feature:nowplaying</text>
</g>
<!-- :core:models -->
<g id="node2" class="node">
<title>:core:models</title>
<ellipse fill="#b59aff" stroke="black" cx="419.54" cy="-18" rx="69.59" ry="18"/>
<text text-anchor="middle" x="419.54" y="-14.3" font-family="Times,serif" font-size="14.00">:core:models</text>
</g>
<!-- :android:feature:nowplaying&#45;&gt;:core:models -->
<g id="edge1" class="edge">
<title>:android:feature:nowplaying&#45;&gt;:core:models</title>
<path fill="none" stroke="black" stroke-dasharray="1,5" d="M574.47,-560C556.37,-560 543.36,-560 543.36,-560 543.36,-560 543.36,-30 543.36,-30 543.36,-30 481.69,-30 481.69,-30"/>
<polygon fill="black" stroke="black" points="481.69,-26.5 471.69,-30 481.69,-33.5 481.69,-26.5"/>
</g>
<!-- :shared:domain -->
<g id="node3" class="node">
<title>:shared:domain</title>
<ellipse fill="#b59aff" stroke="black" cx="82.54" cy="-155" rx="82.59" ry="18"/>
<text text-anchor="middle" x="82.54" y="-151.3" font-family="Times,serif" font-size="14.00">:shared:domain</text>
</g>
<!-- :android:feature:nowplaying&#45;&gt;:shared:domain -->
<g id="edge2" class="edge">
<title>:android:feature:nowplaying&#45;&gt;:shared:domain</title>
<path fill="none" stroke="black" stroke-dasharray="1,5" d="M574.23,-572C390.88,-572 41.27,-572 41.27,-572 41.27,-572 41.27,-180.84 41.27,-180.84"/>
<polygon fill="black" stroke="black" points="44.77,-180.84 41.27,-170.84 37.77,-180.84 44.77,-180.84"/>
</g>
<!-- :ui:common -->
<g id="node4" class="node">
<title>:ui:common</title>
<ellipse fill="#b59aff" stroke="black" cx="683.54" cy="-429" rx="64.19" ry="18"/>
<text text-anchor="middle" x="683.54" y="-425.3" font-family="Times,serif" font-size="14.00">:ui:common</text>
</g>
<!-- :android:feature:nowplaying&#45;&gt;:ui:common -->
<g id="edge3" class="edge">
<title>:android:feature:nowplaying&#45;&gt;:ui:common</title>
<path fill="none" stroke="black" stroke-dasharray="1,5" d="M683.54,-547.81C683.54,-547.81 683.54,-457.27 683.54,-457.27"/>
<polygon fill="black" stroke="black" points="687.04,-457.27 683.54,-447.27 680.04,-457.27 687.04,-457.27"/>
</g>
<!-- :ui:core -->
<g id="node5" class="node">
<title>:ui:core</title>
<ellipse fill="#b59aff" stroke="black" cx="1167.54" cy="-155" rx="45.49" ry="18"/>
<text text-anchor="middle" x="1167.54" y="-151.3" font-family="Times,serif" font-size="14.00">:ui:core</text>
</g>
<!-- :android:feature:nowplaying&#45;&gt;:ui:core -->
<g id="edge4" class="edge">
<title>:android:feature:nowplaying&#45;&gt;:ui:core</title>
<path fill="none" stroke="black" stroke-dasharray="1,5" d="M792.67,-560C925.06,-560 1130.79,-560 1130.79,-560 1130.79,-560 1130.79,-175.83 1130.79,-175.83"/>
<polygon fill="black" stroke="black" points="1134.29,-175.83 1130.79,-165.83 1127.29,-175.83 1134.29,-175.83"/>
</g>
<!-- :ui:test:screenshot -->
<g id="node6" class="node">
<title>:ui:test:screenshot</title>
<ellipse fill="#9affb5" stroke="black" cx="1230.54" cy="-292" rx="96.68" ry="18"/>
<text text-anchor="middle" x="1230.54" y="-288.3" font-family="Times,serif" font-size="14.00">:ui:test:screenshot</text>
</g>
<!-- :android:feature:nowplaying&#45;&gt;:ui:test:screenshot -->
<g id="edge5" class="edge">
<title>:android:feature:nowplaying&#45;&gt;:ui:test:screenshot</title>
<path fill="none" stroke="#ff9ab1" stroke-dasharray="1,5" d="M792.84,-572C960.71,-572 1262.82,-572 1262.82,-572 1262.82,-572 1262.82,-319.09 1262.82,-319.09"/>
<polygon fill="#ff9ab1" stroke="#ff9ab1" points="1266.32,-319.09 1262.82,-309.09 1259.32,-319.09 1266.32,-319.09"/>
</g>
<!-- :shared:domain&#45;&gt;:core:models -->
<g id="edge6" class="edge">
<title>:shared:domain&#45;&gt;:core:models</title>
<path fill="none" stroke="black" stroke-dasharray="1,5" d="M82.54,-136.89C82.54,-98.41 82.54,-12 82.54,-12 82.54,-12 343.77,-12 343.77,-12"/>
<polygon fill="black" stroke="black" points="343.77,-15.5 353.77,-12 343.77,-8.5 343.77,-15.5"/>
</g>
<!-- :ui:common&#45;&gt;:core:models -->
<g id="edge9" class="edge">
<title>:ui:common&#45;&gt;:core:models</title>
<path fill="none" stroke="black" d="M632.46,-418C594.56,-418 549.43,-418 549.43,-418 549.43,-418 549.43,-24 549.43,-24 549.43,-24 495.25,-24 495.25,-24"/>
<polygon fill="black" stroke="black" points="495.25,-20.5 485.25,-24 495.25,-27.5 495.25,-20.5"/>
</g>
<!-- :ui:common&#45;&gt;:shared:domain -->
<g id="edge14" class="edge">
<title>:ui:common&#45;&gt;:shared:domain</title>
<path fill="none" stroke="black" stroke-dasharray="1,5" d="M629.94,-439C482.64,-439 82.54,-439 82.54,-439 82.54,-439 82.54,-183.2 82.54,-183.2"/>
<polygon fill="black" stroke="black" points="86.04,-183.2 82.54,-173.2 79.04,-183.2 86.04,-183.2"/>
</g>
<!-- :ui:common&#45;&gt;:ui:core -->
<g id="edge15" class="edge">
<title>:ui:common&#45;&gt;:ui:core</title>
<path fill="none" stroke="black" stroke-dasharray="1,5" d="M747.2,-432C870.07,-432 1127.87,-432 1127.87,-432 1127.87,-432 1127.87,-173.9 1127.87,-173.9"/>
<polygon fill="black" stroke="black" points="1131.37,-173.9 1127.87,-163.9 1124.37,-173.9 1131.37,-173.9"/>
</g>
<!-- :ui:common&#45;&gt;:ui:test:screenshot -->
<g id="edge8" class="edge">
<title>:ui:common&#45;&gt;:ui:test:screenshot</title>
<path fill="none" stroke="#ff9ab1" stroke-dasharray="1,5" d="M737.17,-439C869,-439 1198.26,-439 1198.26,-439 1198.26,-439 1198.26,-319.15 1198.26,-319.15"/>
<polygon fill="#ff9ab1" stroke="#ff9ab1" points="1201.76,-319.15 1198.26,-309.15 1194.76,-319.15 1201.76,-319.15"/>
</g>
<!-- :ui:test:image -->
<g id="node7" class="node">
<title>:ui:test:image</title>
<ellipse fill="#9affb5" stroke="black" cx="462.54" cy="-292" rx="74.99" ry="18"/>
<text text-anchor="middle" x="462.54" y="-288.3" font-family="Times,serif" font-size="14.00">:ui:test:image</text>
</g>
<!-- :ui:common&#45;&gt;:ui:test:image -->
<g id="edge7" class="edge">
<title>:ui:common&#45;&gt;:ui:test:image</title>
<path fill="none" stroke="#ff9ab1" stroke-dasharray="1,5" d="M620.8,-425C555.47,-425 462.54,-425 462.54,-425 462.54,-425 462.54,-320.21 462.54,-320.21"/>
<polygon fill="#ff9ab1" stroke="#ff9ab1" points="466.04,-320.21 462.54,-310.21 459.04,-320.21 466.04,-320.21"/>
</g>
<!-- :data:coverart -->
<g id="node8" class="node">
<title>:data:coverart</title>
<ellipse fill="#b59aff" stroke="black" cx="631.54" cy="-292" rx="76.09" ry="18"/>
<text text-anchor="middle" x="631.54" y="-288.3" font-family="Times,serif" font-size="14.00">:data:coverart</text>
</g>
<!-- :ui:common&#45;&gt;:data:coverart -->
<g id="edge10" class="edge">
<title>:ui:common&#45;&gt;:data:coverart</title>
<path fill="none" stroke="black" stroke-dasharray="1,5" d="M663.39,-411.65C663.39,-411.65 663.39,-318.36 663.39,-318.36"/>
<polygon fill="black" stroke="black" points="666.89,-318.36 663.39,-308.36 659.89,-318.36 666.89,-318.36"/>
</g>
<!-- :data:musicbrainz -->
<g id="node9" class="node">
<title>:data:musicbrainz</title>
<ellipse fill="#b59aff" stroke="black" cx="857.54" cy="-292" rx="93.68" ry="18"/>
<text text-anchor="middle" x="857.54" y="-288.3" font-family="Times,serif" font-size="14.00">:data:musicbrainz</text>
</g>
<!-- :ui:common&#45;&gt;:data:musicbrainz -->
<g id="edge11" class="edge">
<title>:ui:common&#45;&gt;:data:musicbrainz</title>
<path fill="none" stroke="black" stroke-dasharray="1,5" d="M734.5,-418C756.91,-418 778.25,-418 778.25,-418 778.25,-418 778.25,-311.89 778.25,-311.89"/>
<polygon fill="black" stroke="black" points="781.75,-311.89 778.25,-301.89 774.75,-311.89 781.75,-311.89"/>
</g>
<!-- :core:preferences -->
<g id="node10" class="node">
<title>:core:preferences</title>
<ellipse fill="#b59aff" stroke="black" cx="278.54" cy="-292" rx="91.78" ry="18"/>
<text text-anchor="middle" x="278.54" y="-288.3" font-family="Times,serif" font-size="14.00">:core:preferences</text>
</g>
<!-- :ui:common&#45;&gt;:core:preferences -->
<g id="edge12" class="edge">
<title>:ui:common&#45;&gt;:core:preferences</title>
<path fill="none" stroke="black" stroke-dasharray="1,5" d="M619.82,-432C505.76,-432 278.54,-432 278.54,-432 278.54,-432 278.54,-320.02 278.54,-320.02"/>
<polygon fill="black" stroke="black" points="282.04,-320.02 278.54,-310.02 275.04,-320.02 282.04,-320.02"/>
</g>
<!-- :core:logging:api -->
<g id="node11" class="node">
<title>:core:logging:api</title>
<ellipse fill="#b59aff" stroke="black" cx="735.54" cy="-155" rx="88.28" ry="18"/>
<text text-anchor="middle" x="735.54" y="-151.3" font-family="Times,serif" font-size="14.00">:core:logging:api</text>
</g>
<!-- :ui:common&#45;&gt;:core:logging:api -->
<g id="edge13" class="edge">
<title>:ui:common&#45;&gt;:core:logging:api</title>
<path fill="none" stroke="black" stroke-dasharray="1,5" d="M727.74,-415.78C727.74,-415.78 727.74,-183.25 727.74,-183.25"/>
<polygon fill="black" stroke="black" points="731.24,-183.25 727.74,-173.25 724.24,-183.25 731.24,-183.25"/>
</g>
<!-- :ui:image -->
<g id="node12" class="node">
<title>:ui:image</title>
<ellipse fill="#b59aff" stroke="black" cx="1023.54" cy="-292" rx="53.89" ry="18"/>
<text text-anchor="middle" x="1023.54" y="-288.3" font-family="Times,serif" font-size="14.00">:ui:image</text>
</g>
<!-- :ui:common&#45;&gt;:ui:image -->
<g id="edge16" class="edge">
<title>:ui:common&#45;&gt;:ui:image</title>
<path fill="none" stroke="black" stroke-dasharray="1,5" d="M746.3,-425C844.54,-425 1023.54,-425 1023.54,-425 1023.54,-425 1023.54,-320.21 1023.54,-320.21"/>
<polygon fill="black" stroke="black" points="1027.04,-320.21 1023.54,-310.21 1020.04,-320.21 1027.04,-320.21"/>
</g>
<!-- :shared:strings -->
<g id="node13" class="node">
<title>:shared:strings</title>
<ellipse fill="#b59aff" stroke="black" cx="1167.54" cy="-18" rx="81.49" ry="18"/>
<text text-anchor="middle" x="1167.54" y="-14.3" font-family="Times,serif" font-size="14.00">:shared:strings</text>
</g>
<!-- :ui:core&#45;&gt;:shared:strings -->
<g id="edge17" class="edge">
<title>:ui:core&#45;&gt;:shared:strings</title>
<path fill="none" stroke="black" d="M1167.54,-136.81C1167.54,-136.81 1167.54,-46.27 1167.54,-46.27"/>
<polygon fill="black" stroke="black" points="1171.04,-46.27 1167.54,-36.27 1164.04,-46.27 1171.04,-46.27"/>
</g>
<!-- :ui:test:screenshot&#45;&gt;:ui:core -->
<g id="edge18" class="edge">
<title>:ui:test:screenshot&#45;&gt;:ui:core</title>
<path fill="none" stroke="black" stroke-dasharray="1,5" d="M1173.37,-277.34C1173.37,-277.34 1173.37,-183.01 1173.37,-183.01"/>
<polygon fill="black" stroke="black" points="1176.87,-183.01 1173.37,-173.01 1169.87,-183.01 1176.87,-183.01"/>
</g>
<!-- :data:coverart&#45;&gt;:core:models -->
<g id="edge20" class="edge">
<title>:data:coverart&#45;&gt;:core:models</title>
<path fill="none" stroke="black" stroke-dasharray="1,5" d="M616.6,-274.02C616.6,-213.06 616.6,-18 616.6,-18 616.6,-18 499.3,-18 499.3,-18"/>
<polygon fill="black" stroke="black" points="499.3,-14.5 489.3,-18 499.3,-21.5 499.3,-14.5"/>
</g>
<!-- :data:coverart&#45;&gt;:shared:domain -->
<g id="edge21" class="edge">
<title>:data:coverart&#45;&gt;:shared:domain</title>
<path fill="none" stroke="black" stroke-dasharray="1,5" d="M586.05,-277.37C586.05,-257.11 586.05,-223 586.05,-223 586.05,-223 123.81,-223 123.81,-223 123.81,-223 123.81,-180.77 123.81,-180.77"/>
<polygon fill="black" stroke="black" points="127.31,-180.77 123.81,-170.77 120.31,-180.77 127.31,-180.77"/>
</g>
<!-- :data:coverart&#45;&gt;:core:logging:api -->
<g id="edge19" class="edge">
<title>:data:coverart&#45;&gt;:core:logging:api</title>
<path fill="none" stroke="black" stroke-dasharray="1,5" d="M677.37,-277.6C677.37,-277.6 677.37,-178.8 677.37,-178.8"/>
<polygon fill="black" stroke="black" points="680.87,-178.8 677.37,-168.8 673.87,-178.8 680.87,-178.8"/>
</g>
<!-- :data:musicbrainz&#45;&gt;:core:models -->
<g id="edge23" class="edge">
<title>:data:musicbrainz&#45;&gt;:core:models</title>
<path fill="none" stroke="black" stroke-dasharray="1,5" d="M887.53,-274.91C887.53,-214.11 887.53,-12 887.53,-12 887.53,-12 495.6,-12 495.6,-12"/>
<polygon fill="black" stroke="black" points="495.6,-8.5 485.6,-12 495.6,-15.5 495.6,-8.5"/>
</g>
<!-- :data:musicbrainz&#45;&gt;:core:logging:api -->
<g id="edge22" class="edge">
<title>:data:musicbrainz&#45;&gt;:core:logging:api</title>
<path fill="none" stroke="black" stroke-dasharray="1,5" d="M793.94,-278.61C793.94,-278.61 793.94,-178.64 793.94,-178.64"/>
<polygon fill="black" stroke="black" points="797.44,-178.64 793.94,-168.64 790.44,-178.64 797.44,-178.64"/>
</g>
<!-- :core:preferences&#45;&gt;:core:models -->
<g id="edge25" class="edge">
<title>:core:preferences&#45;&gt;:core:models</title>
<path fill="none" stroke="black" stroke-dasharray="1,5" d="M204.15,-281.16C204.15,-231.02 204.15,-24 204.15,-24 204.15,-24 343.75,-24 343.75,-24"/>
<polygon fill="black" stroke="black" points="343.75,-27.5 353.75,-24 343.75,-20.5 343.75,-27.5"/>
</g>
<!-- :core:coroutines -->
<g id="node14" class="node">
<title>:core:coroutines</title>
<ellipse fill="#b59aff" stroke="black" cx="306.54" cy="-155" rx="85.29" ry="18"/>
<text text-anchor="middle" x="306.54" y="-151.3" font-family="Times,serif" font-size="14.00">:core:coroutines</text>
</g>
<!-- :core:preferences&#45;&gt;:core:coroutines -->
<g id="edge24" class="edge">
<title>:core:preferences&#45;&gt;:core:coroutines</title>
<path fill="none" stroke="black" stroke-dasharray="1,5" d="M295.79,-274.09C295.79,-274.09 295.79,-182.91 295.79,-182.91"/>
<polygon fill="black" stroke="black" points="299.29,-182.91 295.79,-172.91 292.29,-182.91 299.29,-182.91"/>
</g>
<!-- :ui:image&#45;&gt;:core:models -->
<g id="edge26" class="edge">
<title>:ui:image&#45;&gt;:core:models</title>
<path fill="none" stroke="black" stroke-dasharray="1,5" d="M1023.54,-273.61C1023.54,-210.27 1023.54,-5 1023.54,-5 1023.54,-5 477.7,-5 477.7,-5"/>
<polygon fill="black" stroke="black" points="477.7,-1.5 467.7,-5 477.7,-8.5 477.7,-1.5"/>
</g>
<!-- :ui:image&#45;&gt;:ui:core -->
<g id="edge27" class="edge">
<title>:ui:image&#45;&gt;:ui:core</title>
<path fill="none" stroke="black" stroke-dasharray="1,5" d="M1077.52,-292C1101.74,-292 1124.96,-292 1124.96,-292 1124.96,-292 1124.96,-171.61 1124.96,-171.61"/>
<polygon fill="black" stroke="black" points="1128.46,-171.61 1124.96,-161.61 1121.46,-171.61 1128.46,-171.61"/>
</g>
</g>
</svg>
