<?xml version="1.0" encoding="UTF-8" standalone="no"?>
<!DOCTYPE svg PUBLIC "-//W3C//DTD SVG 1.1//EN"
 "http://www.w3.org/Graphics/SVG/1.1/DTD/svg11.dtd">
<!-- Generated by graphviz version 2.43.0 (0)
 -->
<!-- Title: %3 Pages: 1 -->
<svg width="972pt" height="940pt"
 viewBox="0.00 0.00 972.38 940.00" xmlns="http://www.w3.org/2000/svg" xmlns:xlink="http://www.w3.org/1999/xlink">
<g id="graph0" class="graph" transform="scale(1 1) rotate(0) translate(4 936)">
<title>%3</title>
<polygon fill="white" stroke="transparent" points="-4,4 -4,-936 968.38,-936 968.38,4 -4,4"/>
<text text-anchor="middle" x="482.19" y="-904" font-family="Times,serif" font-size="30.00">Dependencies</text>
<text text-anchor="middle" x="482.19" y="-871" font-family="Times,serif" font-size="30.00"> </text>
<!-- :android:feature:nowplaying -->
<g id="node1" class="node">
<title>:android:feature:nowplaying</title>
<polygon fill="#9affb5" stroke="black" points="649.54,-858 431.54,-858 431.54,-822 649.54,-822 649.54,-858"/>
<text text-anchor="middle" x="540.54" y="-836.3" font-family="Times,serif" font-size="14.00">:android:feature:nowplaying</text>
</g>
<!-- :shared:domain -->
<g id="node2" class="node">
<title>:shared:domain</title>
<ellipse fill="#b59aff" stroke="black" cx="82.54" cy="-18" rx="82.59" ry="18"/>
<text text-anchor="middle" x="82.54" y="-14.3" font-family="Times,serif" font-size="14.00">:shared:domain</text>
</g>
<!-- :android:feature:nowplaying&#45;&gt;:shared:domain -->
<g id="edge1" class="edge">
<title>:android:feature:nowplaying&#45;&gt;:shared:domain</title>
<path fill="none" stroke="black" stroke-dasharray="1,5" d="M431.38,-840C282.25,-840 33.12,-840 33.12,-840 33.12,-840 33.12,-42.62 33.12,-42.62"/>
<polygon fill="black" stroke="black" points="36.62,-42.62 33.12,-32.62 29.62,-42.62 36.62,-42.62"/>
</g>
<!-- :ui:common -->
<g id="node3" class="node">
<title>:ui:common</title>
<ellipse fill="#b59aff" stroke="black" cx="540.54" cy="-703" rx="64.19" ry="18"/>
<text text-anchor="middle" x="540.54" y="-699.3" font-family="Times,serif" font-size="14.00">:ui:common</text>
</g>
<!-- :android:feature:nowplaying&#45;&gt;:ui:common -->
<g id="edge2" class="edge">
<title>:android:feature:nowplaying&#45;&gt;:ui:common</title>
<path fill="none" stroke="black" stroke-dasharray="1,5" d="M540.54,-821.81C540.54,-821.81 540.54,-731.27 540.54,-731.27"/>
<polygon fill="black" stroke="black" points="544.04,-731.27 540.54,-721.27 537.04,-731.27 544.04,-731.27"/>
</g>
<!-- :ui:test:screenshot -->
<g id="node4" class="node">
<title>:ui:test:screenshot</title>
<ellipse fill="#9affb5" stroke="black" cx="867.54" cy="-566" rx="96.68" ry="18"/>
<text text-anchor="middle" x="867.54" y="-562.3" font-family="Times,serif" font-size="14.00">:ui:test:screenshot</text>
</g>
<!-- :android:feature:nowplaying&#45;&gt;:ui:test:screenshot -->
<g id="edge3" class="edge">
<title>:android:feature:nowplaying&#45;&gt;:ui:test:screenshot</title>
<path fill="none" stroke="#ff9ab1" stroke-dasharray="1,5" d="M649.8,-840C755.5,-840 899.82,-840 899.82,-840 899.82,-840 899.82,-593.14 899.82,-593.14"/>
<polygon fill="#ff9ab1" stroke="#ff9ab1" points="903.32,-593.14 899.82,-583.14 896.32,-593.14 903.32,-593.14"/>
</g>
<!-- :ui:common&#45;&gt;:shared:domain -->
<g id="edge7" class="edge">
<title>:ui:common&#45;&gt;:shared:domain</title>
<path fill="none" stroke="black" d="M476.08,-703C346.4,-703 66.25,-703 66.25,-703 66.25,-703 66.25,-45.97 66.25,-45.97"/>
<polygon fill="black" stroke="black" points="69.75,-45.97 66.25,-35.97 62.75,-45.97 69.75,-45.97"/>
</g>
<!-- :ui:common&#45;&gt;:ui:test:screenshot -->
<g id="edge5" class="edge">
<title>:ui:common&#45;&gt;:ui:test:screenshot</title>
<path fill="none" stroke="#ff9ab1" stroke-dasharray="1,5" d="M605.22,-703C691.98,-703 835.26,-703 835.26,-703 835.26,-703 835.26,-593.07 835.26,-593.07"/>
<polygon fill="#ff9ab1" stroke="#ff9ab1" points="838.76,-593.07 835.26,-583.07 831.76,-593.07 838.76,-593.07"/>
</g>
<!-- :test&#45;data -->
<g id="node5" class="node">
<title>:test&#45;data</title>
<ellipse fill="#b59aff" stroke="black" cx="340.54" cy="-566" rx="55.49" ry="18"/>
<text text-anchor="middle" x="340.54" y="-562.3" font-family="Times,serif" font-size="14.00">:test&#45;data</text>
</g>
<!-- :ui:common&#45;&gt;:test&#45;data -->
<g id="edge4" class="edge">
<title>:ui:common&#45;&gt;:test&#45;data</title>
<path fill="none" stroke="#ff9ab1" stroke-dasharray="1,5" d="M490.3,-691.37C490.3,-659.31 490.3,-572 490.3,-572 490.3,-572 402.92,-572 402.92,-572"/>
<polygon fill="#ff9ab1" stroke="#ff9ab1" points="402.92,-568.5 392.92,-572 402.92,-575.5 402.92,-568.5"/>
</g>
<!-- :core:coroutines -->
<g id="node6" class="node">
<title>:core:coroutines</title>
<ellipse fill="#b59aff" stroke="black" cx="461.54" cy="-155" rx="85.29" ry="18"/>
<text text-anchor="middle" x="461.54" y="-151.3" font-family="Times,serif" font-size="14.00">:core:coroutines</text>
</g>
<!-- :ui:common&#45;&gt;:core:coroutines -->
<g id="edge6" class="edge">
<title>:ui:common&#45;&gt;:core:coroutines</title>
<path fill="none" stroke="#ff9ab1" stroke-dasharray="1,5" d="M532.59,-685.08C532.59,-685.08 532.59,-174.99 532.59,-174.99"/>
<polygon fill="#ff9ab1" stroke="#ff9ab1" points="536.09,-174.99 532.59,-164.99 529.09,-174.99 536.09,-174.99"/>
</g>
<!-- :ui:core -->
<g id="node7" class="node">
<title>:ui:core</title>
<ellipse fill="#b59aff" stroke="black" cx="691.54" cy="-429" rx="45.49" ry="18"/>
<text text-anchor="middle" x="691.54" y="-425.3" font-family="Times,serif" font-size="14.00">:ui:core</text>
</g>
<!-- :ui:common&#45;&gt;:ui:core -->
<g id="edge8" class="edge">
<title>:ui:common&#45;&gt;:ui:core</title>
<path fill="none" stroke="black" d="M563.12,-685.81C563.12,-627.52 563.12,-441 563.12,-441 563.12,-441 647.46,-441 647.46,-441"/>
<polygon fill="black" stroke="black" points="647.46,-444.5 657.46,-441 647.46,-437.5 647.46,-444.5"/>
</g>
<!-- :data:coverart -->
<g id="node8" class="node">
<title>:data:coverart</title>
<ellipse fill="#b59aff" stroke="black" cx="208.54" cy="-429" rx="76.09" ry="18"/>
<text text-anchor="middle" x="208.54" y="-425.3" font-family="Times,serif" font-size="14.00">:data:coverart</text>
</g>
<!-- :ui:common&#45;&gt;:data:coverart -->
<g id="edge9" class="edge">
<title>:ui:common&#45;&gt;:data:coverart</title>
<path fill="none" stroke="black" stroke-dasharray="1,5" d="M518.49,-686.09C518.49,-625.95 518.49,-426 518.49,-426 518.49,-426 293.57,-426 293.57,-426"/>
<polygon fill="black" stroke="black" points="293.57,-422.5 283.57,-426 293.57,-429.5 293.57,-422.5"/>
</g>
<!-- :data:musicbrainz -->
<g id="node9" class="node">
<title>:data:musicbrainz</title>
<ellipse fill="#b59aff" stroke="black" cx="262.54" cy="-155" rx="93.68" ry="18"/>
<text text-anchor="middle" x="262.54" y="-151.3" font-family="Times,serif" font-size="14.00">:data:musicbrainz</text>
</g>
<!-- :ui:common&#45;&gt;:data:musicbrainz -->
<g id="edge10" class="edge">
<title>:ui:common&#45;&gt;:data:musicbrainz</title>
<path fill="none" stroke="black" stroke-dasharray="1,5" d="M504.39,-687.85C504.39,-640.28 504.39,-497 504.39,-497 504.39,-497 345.03,-497 345.03,-497 345.03,-497 345.03,-173.8 345.03,-173.8"/>
<polygon fill="black" stroke="black" points="348.53,-173.8 345.03,-163.8 341.53,-173.8 348.53,-173.8"/>
</g>
<!-- :core:logging:api -->
<g id="node10" class="node">
<title>:core:logging:api</title>
<ellipse fill="#b59aff" stroke="black" cx="277.54" cy="-18" rx="88.28" ry="18"/>
<text text-anchor="middle" x="277.54" y="-14.3" font-family="Times,serif" font-size="14.00">:core:logging:api</text>
</g>
<!-- :ui:common&#45;&gt;:core:logging:api -->
<g id="edge11" class="edge">
<title>:ui:common&#45;&gt;:core:logging:api</title>
<path fill="none" stroke="black" stroke-dasharray="1,5" d="M552.16,-685.19C552.16,-578.06 552.16,-24 552.16,-24 552.16,-24 371.06,-24 371.06,-24"/>
<polygon fill="black" stroke="black" points="371.06,-20.5 361.06,-24 371.06,-27.5 371.06,-20.5"/>
</g>
<!-- :ui:image -->
<g id="node11" class="node">
<title>:ui:image</title>
<ellipse fill="#b59aff" stroke="black" cx="622.54" cy="-566" rx="53.89" ry="18"/>
<text text-anchor="middle" x="622.54" y="-562.3" font-family="Times,serif" font-size="14.00">:ui:image</text>
</g>
<!-- :ui:common&#45;&gt;:ui:image -->
<g id="edge12" class="edge">
<title>:ui:common&#45;&gt;:ui:image</title>
<path fill="none" stroke="black" stroke-dasharray="1,5" d="M586.74,-690.36C586.74,-690.36 586.74,-589.83 586.74,-589.83"/>
<polygon fill="black" stroke="black" points="590.24,-589.83 586.74,-579.83 583.24,-589.83 590.24,-589.83"/>
</g>
<!-- :ui:test:screenshot&#45;&gt;:ui:core -->
<g id="edge13" class="edge">
<title>:ui:test:screenshot&#45;&gt;:ui:core</title>
<path fill="none" stroke="black" stroke-dasharray="1,5" d="M787.6,-555.7C787.6,-523.84 787.6,-429 787.6,-429 787.6,-429 747.04,-429 747.04,-429"/>
<polygon fill="black" stroke="black" points="747.04,-425.5 737.04,-429 747.04,-432.5 747.04,-425.5"/>
</g>
<!-- :test:image -->
<g id="node12" class="node">
<title>:test:image</title>
<ellipse fill="#9affb5" stroke="black" cx="867.54" cy="-429" rx="63.09" ry="18"/>
<text text-anchor="middle" x="867.54" y="-425.3" font-family="Times,serif" font-size="14.00">:test:image</text>
</g>
<!-- :ui:test:screenshot&#45;&gt;:test:image -->
<g id="edge14" class="edge">
<title>:ui:test:screenshot&#45;&gt;:test:image</title>
<path fill="none" stroke="black" stroke-dasharray="1,5" d="M867.54,-547.81C867.54,-547.81 867.54,-457.27 867.54,-457.27"/>
<polygon fill="black" stroke="black" points="871.04,-457.27 867.54,-447.27 864.04,-457.27 871.04,-457.27"/>
</g>
<!-- :test&#45;data&#45;&gt;:shared:domain -->
<g id="edge15" class="edge">
<title>:test&#45;data&#45;&gt;:shared:domain</title>
<path fill="none" stroke="black" stroke-dasharray="1,5" d="M285.21,-566C214.01,-566 99.37,-566 99.37,-566 99.37,-566 99.37,-45.92 99.37,-45.92"/>
<polygon fill="black" stroke="black" points="102.87,-45.92 99.37,-35.92 95.87,-45.92 102.87,-45.92"/>
</g>
<!-- :test&#45;data&#45;&gt;:core:coroutines -->
<g id="edge16" class="edge">
<title>:test&#45;data&#45;&gt;:core:coroutines</title>
<path fill="none" stroke="black" stroke-dasharray="1,5" d="M390.94,-558.52C390.94,-558.52 390.94,-175.09 390.94,-175.09"/>
<polygon fill="black" stroke="black" points="394.44,-175.09 390.94,-165.09 387.44,-175.09 394.44,-175.09"/>
</g>
<!-- :test&#45;data&#45;&gt;:data:coverart -->
<g id="edge19" class="edge">
<title>:test&#45;data&#45;&gt;:data:coverart</title>
<path fill="none" stroke="black" stroke-dasharray="1,5" d="M294.68,-555.8C294.68,-525.15 294.68,-436 294.68,-436 294.68,-436 288.88,-436 288.88,-436"/>
<polygon fill="black" stroke="black" points="288.88,-432.5 278.88,-436 288.88,-439.5 288.88,-432.5"/>
</g>
<!-- :test&#45;data&#45;&gt;:data:musicbrainz -->
<g id="edge18" class="edge">
<title>:test&#45;data&#45;&gt;:data:musicbrainz</title>
<path fill="none" stroke="black" stroke-dasharray="1,5" d="M333.94,-548.08C333.94,-548.08 333.94,-176.67 333.94,-176.67"/>
<polygon fill="black" stroke="black" points="337.44,-176.67 333.94,-166.67 330.44,-176.67 337.44,-176.67"/>
</g>
<!-- :data:database -->
<g id="node13" class="node">
<title>:data:database</title>
<ellipse fill="#b59aff" stroke="black" cx="243.54" cy="-292" rx="79.09" ry="18"/>
<text text-anchor="middle" x="243.54" y="-288.3" font-family="Times,serif" font-size="14.00">:data:database</text>
</g>
<!-- :test&#45;data&#45;&gt;:data:database -->
<g id="edge17" class="edge">
<title>:test&#45;data&#45;&gt;:data:database</title>
<path fill="none" stroke="black" stroke-dasharray="1,5" d="M313.45,-550.08C313.45,-550.08 313.45,-310.69 313.45,-310.69"/>
<polygon fill="black" stroke="black" points="316.95,-310.69 313.45,-300.69 309.95,-310.69 316.95,-310.69"/>
</g>
<!-- :data:spotify -->
<g id="node14" class="node">
<title>:data:spotify</title>
<ellipse fill="#b59aff" stroke="black" cx="673.54" cy="-155" rx="68.79" ry="18"/>
<text text-anchor="middle" x="673.54" y="-151.3" font-family="Times,serif" font-size="14.00">:data:spotify</text>
</g>
<!-- :test&#45;data&#45;&gt;:data:spotify -->
<g id="edge20" class="edge">
<title>:test&#45;data&#45;&gt;:data:spotify</title>
<path fill="none" stroke="black" stroke-dasharray="1,5" d="M392.82,-560C457.06,-560 557.64,-560 557.64,-560 557.64,-560 557.64,-155 557.64,-155 557.64,-155 594.45,-155 594.45,-155"/>
<polygon fill="black" stroke="black" points="594.45,-158.5 604.45,-155 594.45,-151.5 594.45,-158.5"/>
</g>
<!-- :shared:strings -->
<g id="node15" class="node">
<title>:shared:strings</title>
<ellipse fill="#b59aff" stroke="black" cx="687.54" cy="-292" rx="81.49" ry="18"/>
<text text-anchor="middle" x="687.54" y="-288.3" font-family="Times,serif" font-size="14.00">:shared:strings</text>
</g>
<!-- :ui:core&#45;&gt;:shared:strings -->
<g id="edge21" class="edge">
<title>:ui:core&#45;&gt;:shared:strings</title>
<path fill="none" stroke="black" d="M691.54,-410.81C691.54,-410.81 691.54,-320.27 691.54,-320.27"/>
<polygon fill="black" stroke="black" points="695.04,-320.27 691.54,-310.27 688.04,-320.27 695.04,-320.27"/>
</g>
<!-- :data:coverart&#45;&gt;:shared:domain -->
<g id="edge22" class="edge">
<title>:data:coverart&#45;&gt;:shared:domain</title>
<path fill="none" stroke="black" stroke-dasharray="1,5" d="M137.79,-422.21C137.79,-422.21 137.79,-41.41 137.79,-41.41"/>
<polygon fill="black" stroke="black" points="141.29,-41.41 137.79,-31.41 134.29,-41.41 141.29,-41.41"/>
</g>
<!-- :data:coverart&#45;&gt;:test&#45;data -->
<g id="edge25" class="edge">
<title>:data:coverart&#45;&gt;:test&#45;data</title>
<path fill="none" stroke="#ff9ab1" stroke-dasharray="1,5" d="M284.27,-431C295.87,-431 304.07,-431 304.07,-431 304.07,-431 304.07,-542.31 304.07,-542.31"/>
<polygon fill="#ff9ab1" stroke="#ff9ab1" points="300.57,-542.31 304.07,-552.31 307.57,-542.31 300.57,-542.31"/>
</g>
<!-- :data:coverart&#45;&gt;:core:coroutines -->
<g id="edge24" class="edge">
<title>:data:coverart&#45;&gt;:core:coroutines</title>
<path fill="none" stroke="black" stroke-dasharray="1,5" d="M276.68,-421C326.75,-421 386.09,-421 386.09,-421 386.09,-421 386.09,-173.55 386.09,-173.55"/>
<polygon fill="black" stroke="black" points="389.59,-173.55 386.09,-163.55 382.59,-173.55 389.59,-173.55"/>
</g>
<!-- :data:coverart&#45;&gt;:data:musicbrainz -->
<g id="edge26" class="edge">
<title>:data:coverart&#45;&gt;:data:musicbrainz</title>
<path fill="none" stroke="#ff9ab1" stroke-dasharray="1,5" d="M158.96,-415.04C158.96,-359.2 158.96,-155 158.96,-155 158.96,-155 159.95,-155 159.95,-155"/>
<polygon fill="#ff9ab1" stroke="#ff9ab1" points="158.89,-158.5 168.89,-155 158.89,-151.5 158.89,-158.5"/>
</g>
<!-- :data:coverart&#45;&gt;:core:logging:api -->
<g id="edge23" class="edge">
<title>:data:coverart&#45;&gt;:core:logging:api</title>
<path fill="none" stroke="black" stroke-dasharray="1,5" d="M261.45,-416C305.49,-416 361.03,-416 361.03,-416 361.03,-416 361.03,-33.94 361.03,-33.94"/>
<polygon fill="black" stroke="black" points="364.53,-33.94 361.03,-23.94 357.53,-33.94 364.53,-33.94"/>
</g>
<!-- :data:coverart&#45;&gt;:data:database -->
<g id="edge27" class="edge">
<title>:data:coverart&#45;&gt;:data:database</title>
<path fill="none" stroke="#ff9ab1" stroke-dasharray="1,5" d="M224.42,-411.37C224.42,-411.37 224.42,-319.56 224.42,-319.56"/>
<polygon fill="#ff9ab1" stroke="#ff9ab1" points="227.92,-319.56 224.42,-309.56 220.92,-319.56 227.92,-319.56"/>
</g>
<!-- :data:musicbrainz&#45;&gt;:shared:domain -->
<g id="edge28" class="edge">
<title>:data:musicbrainz&#45;&gt;:shared:domain</title>
<path fill="none" stroke="black" stroke-dasharray="1,5" d="M179.05,-146.84C179.05,-117.35 179.05,-18 179.05,-18 179.05,-18 175.22,-18 175.22,-18"/>
<polygon fill="black" stroke="black" points="175.22,-14.5 165.22,-18 175.22,-21.5 175.22,-14.5"/>
</g>
<!-- :data:musicbrainz&#45;&gt;:core:logging:api -->
<g id="edge29" class="edge">
<title>:data:musicbrainz&#45;&gt;:core:logging:api</title>
<path fill="none" stroke="black" stroke-dasharray="1,5" d="M272.64,-137.09C272.64,-137.09 272.64,-46.35 272.64,-46.35"/>
<polygon fill="black" stroke="black" points="276.14,-46.35 272.64,-36.35 269.14,-46.35 276.14,-46.35"/>
</g>
<!-- :ui:image&#45;&gt;:shared:domain -->
<g id="edge30" class="edge">
<title>:ui:image&#45;&gt;:shared:domain</title>
<path fill="none" stroke="black" stroke-dasharray="1,5" d="M586.62,-552.55C586.62,-489.14 586.62,-223 586.62,-223 586.62,-223 148.37,-223 148.37,-223 148.37,-223 148.37,-39.02 148.37,-39.02"/>
<polygon fill="black" stroke="black" points="151.87,-39.02 148.37,-29.02 144.87,-39.02 151.87,-39.02"/>
</g>
<!-- :ui:image&#45;&gt;:ui:core -->
<g id="edge31" class="edge">
<title>:ui:image&#45;&gt;:ui:core</title>
<path fill="none" stroke="black" stroke-dasharray="1,5" d="M661.27,-553.36C661.27,-553.36 661.27,-452.83 661.27,-452.83"/>
<polygon fill="black" stroke="black" points="664.77,-452.83 661.27,-442.83 657.77,-452.83 664.77,-452.83"/>
</g>
<!-- :data:database&#45;&gt;:shared:domain -->
<g id="edge32" class="edge">
<title>:data:database&#45;&gt;:shared:domain</title>
<path fill="none" stroke="black" stroke-dasharray="1,5" d="M163.9,-292C151.71,-292 143.08,-292 143.08,-292 143.08,-292 143.08,-40.49 143.08,-40.49"/>
<polygon fill="black" stroke="black" points="146.58,-40.49 143.08,-30.49 139.58,-40.49 146.58,-40.49"/>
</g>
<!-- :data:database&#45;&gt;:core:coroutines -->
<g id="edge33" class="edge">
<title>:data:database&#45;&gt;:core:coroutines</title>
<path fill="none" stroke="black" stroke-dasharray="1,5" d="M322.85,-292C353.46,-292 381.25,-292 381.25,-292 381.25,-292 381.25,-171.24 381.25,-171.24"/>
<polygon fill="black" stroke="black" points="384.75,-171.24 381.25,-161.24 377.75,-171.24 384.75,-171.24"/>
</g>
<!-- :data:database&#45;&gt;:data:musicbrainz -->
<g id="edge34" class="edge">
<title>:data:database&#45;&gt;:data:musicbrainz</title>
<path fill="none" stroke="black" stroke-dasharray="1,5" d="M245.89,-273.81C245.89,-273.81 245.89,-182.83 245.89,-182.83"/>
<polygon fill="black" stroke="black" points="249.39,-182.83 245.89,-172.83 242.39,-182.83 249.39,-182.83"/>
</g>
<!-- :data:spotify&#45;&gt;:shared:domain -->
<g id="edge35" class="edge">
<title>:data:spotify&#45;&gt;:shared:domain</title>
<path fill="none" stroke="black" stroke-dasharray="1,5" d="M650.58,-137.94C650.58,-117.51 650.58,-86 650.58,-86 650.58,-86 153.67,-86 153.67,-86 153.67,-86 153.67,-37.17 153.67,-37.17"/>
<polygon fill="black" stroke="black" points="157.17,-37.17 153.67,-27.17 150.17,-37.17 157.17,-37.17"/>
</g>
<!-- :data:spotify&#45;&gt;:core:logging:api -->
<g id="edge36" class="edge">
<title>:data:spotify&#45;&gt;:core:logging:api</title>
<path fill="none" stroke="black" stroke-dasharray="1,5" d="M696.51,-137.75C696.51,-99.72 696.51,-12 696.51,-12 696.51,-12 371.07,-12 371.07,-12"/>
<polygon fill="black" stroke="black" points="371.07,-8.5 361.07,-12 371.07,-15.5 371.07,-8.5"/>
</g>
</g>
</svg>
