<?xml version="1.0" encoding="UTF-8" standalone="no"?>
<!DOCTYPE svg PUBLIC "-//W3C//DTD SVG 1.1//EN"
 "http://www.w3.org/Graphics/SVG/1.1/DTD/svg11.dtd">
<!-- Generated by graphviz version 2.43.0 (0)
 -->
<!-- Title: %3 Pages: 1 -->
<svg width="1139pt" height="1077pt"
 viewBox="0.00 0.00 1139.14 1077.00" xmlns="http://www.w3.org/2000/svg" xmlns:xlink="http://www.w3.org/1999/xlink">
<g id="graph0" class="graph" transform="scale(1 1) rotate(0) translate(4 1073)">
<title>%3</title>
<polygon fill="white" stroke="transparent" points="-4,4 -4,-1073 1135.14,-1073 1135.14,4 -4,4"/>
<text text-anchor="middle" x="565.57" y="-1041" font-family="Times,serif" font-size="30.00">Dependencies</text>
<text text-anchor="middle" x="565.57" y="-1008" font-family="Times,serif" font-size="30.00"> </text>
<!-- :android:feature:nowplaying -->
<g id="node1" class="node">
<title>:android:feature:nowplaying</title>
<polygon fill="#9affb5" stroke="black" points="1131.14,-995 913.14,-995 913.14,-959 1131.14,-959 1131.14,-995"/>
<text text-anchor="middle" x="1022.14" y="-973.3" font-family="Times,serif" font-size="14.00">:android:feature:nowplaying</text>
</g>
<!-- :shared:domain -->
<g id="node2" class="node">
<title>:shared:domain</title>
<ellipse fill="#b59aff" stroke="black" cx="673.14" cy="-18" rx="82.59" ry="18"/>
<text text-anchor="middle" x="673.14" y="-14.3" font-family="Times,serif" font-size="14.00">:shared:domain</text>
</g>
<!-- :android:feature:nowplaying&#45;&gt;:shared:domain -->
<g id="edge1" class="edge">
<title>:android:feature:nowplaying&#45;&gt;:shared:domain</title>
<path fill="none" stroke="black" stroke-dasharray="1,5" d="M912.99,-977C800.44,-977 641.25,-977 641.25,-977 641.25,-977 641.25,-44.65 641.25,-44.65"/>
<polygon fill="black" stroke="black" points="644.75,-44.65 641.25,-34.65 637.75,-44.65 644.75,-44.65"/>
</g>
<!-- :ui:common -->
<g id="node3" class="node">
<title>:ui:common</title>
<ellipse fill="#b59aff" stroke="black" cx="714.14" cy="-840" rx="64.19" ry="18"/>
<text text-anchor="middle" x="714.14" y="-836.3" font-family="Times,serif" font-size="14.00">:ui:common</text>
</g>
<!-- :android:feature:nowplaying&#45;&gt;:ui:common -->
<g id="edge2" class="edge">
<title>:android:feature:nowplaying&#45;&gt;:ui:common</title>
<path fill="none" stroke="black" stroke-dasharray="1,5" d="M919.22,-958.79C919.22,-922.79 919.22,-846 919.22,-846 919.22,-846 784.84,-846 784.84,-846"/>
<polygon fill="black" stroke="black" points="784.84,-842.5 774.84,-846 784.84,-849.5 784.84,-842.5"/>
</g>
<!-- :ui:test:screenshot -->
<g id="node4" class="node">
<title>:ui:test:screenshot</title>
<ellipse fill="#9affb5" stroke="black" cx="1022.14" cy="-703" rx="96.68" ry="18"/>
<text text-anchor="middle" x="1022.14" y="-699.3" font-family="Times,serif" font-size="14.00">:ui:test:screenshot</text>
</g>
<!-- :android:feature:nowplaying&#45;&gt;:ui:test:screenshot -->
<g id="edge3" class="edge">
<title>:android:feature:nowplaying&#45;&gt;:ui:test:screenshot</title>
<path fill="none" stroke="#ff9ab1" stroke-dasharray="1,5" d="M1054.42,-958.6C1054.42,-958.6 1054.42,-730.26 1054.42,-730.26"/>
<polygon fill="#ff9ab1" stroke="#ff9ab1" points="1057.92,-730.26 1054.42,-720.26 1050.92,-730.26 1057.92,-730.26"/>
</g>
<!-- :ui:common&#45;&gt;:shared:domain -->
<g id="edge7" class="edge">
<title>:ui:common&#45;&gt;:shared:domain</title>
<path fill="none" stroke="black" d="M720.39,-822.07C720.39,-822.07 720.39,-43 720.39,-43"/>
<polygon fill="black" stroke="black" points="723.89,-43 720.39,-33 716.89,-43 723.89,-43"/>
</g>
<!-- :ui:common&#45;&gt;:ui:test:screenshot -->
<g id="edge5" class="edge">
<title>:ui:common&#45;&gt;:ui:test:screenshot</title>
<path fill="none" stroke="#ff9ab1" stroke-dasharray="1,5" d="M774.99,-834C856.19,-834 989.86,-834 989.86,-834 989.86,-834 989.86,-730.13 989.86,-730.13"/>
<polygon fill="#ff9ab1" stroke="#ff9ab1" points="993.36,-730.13 989.86,-720.13 986.36,-730.13 993.36,-730.13"/>
</g>
<!-- :test&#45;data -->
<g id="node5" class="node">
<title>:test&#45;data</title>
<ellipse fill="#b59aff" stroke="black" cx="500.14" cy="-566" rx="55.49" ry="18"/>
<text text-anchor="middle" x="500.14" y="-562.3" font-family="Times,serif" font-size="14.00">:test&#45;data</text>
</g>
<!-- :ui:common&#45;&gt;:test&#45;data -->
<g id="edge4" class="edge">
<title>:ui:common&#45;&gt;:test&#45;data</title>
<path fill="none" stroke="#ff9ab1" stroke-dasharray="1,5" d="M685.09,-823.82C685.09,-766.29 685.09,-575 685.09,-575 685.09,-575 558.25,-575 558.25,-575"/>
<polygon fill="#ff9ab1" stroke="#ff9ab1" points="558.25,-571.5 548.25,-575 558.25,-578.5 558.25,-571.5"/>
</g>
<!-- :core:coroutines -->
<g id="node6" class="node">
<title>:core:coroutines</title>
<ellipse fill="#b59aff" stroke="black" cx="85.14" cy="-155" rx="85.29" ry="18"/>
<text text-anchor="middle" x="85.14" y="-151.3" font-family="Times,serif" font-size="14.00">:core:coroutines</text>
</g>
<!-- :ui:common&#45;&gt;:core:coroutines -->
<g id="edge6" class="edge">
<title>:ui:common&#45;&gt;:core:coroutines</title>
<path fill="none" stroke="#ff9ab1" stroke-dasharray="1,5" d="M653.19,-846C486.26,-846 34.06,-846 34.06,-846 34.06,-846 34.06,-179.43 34.06,-179.43"/>
<polygon fill="#ff9ab1" stroke="#ff9ab1" points="37.56,-179.43 34.06,-169.43 30.56,-179.43 37.56,-179.43"/>
</g>
<!-- :ui:core -->
<g id="node7" class="node">
<title>:ui:core</title>
<ellipse fill="#b59aff" stroke="black" cx="853.14" cy="-566" rx="45.49" ry="18"/>
<text text-anchor="middle" x="853.14" y="-562.3" font-family="Times,serif" font-size="14.00">:ui:core</text>
</g>
<!-- :ui:common&#45;&gt;:ui:core -->
<g id="edge8" class="edge">
<title>:ui:common&#45;&gt;:ui:core</title>
<path fill="none" stroke="black" d="M761.09,-827.47C761.09,-772.71 761.09,-557 761.09,-557 761.09,-557 803.57,-557 803.57,-557"/>
<polygon fill="black" stroke="black" points="803.57,-560.5 813.57,-557 803.57,-553.5 803.57,-560.5"/>
</g>
<!-- :data:repository -->
<g id="node8" class="node">
<title>:data:repository</title>
<ellipse fill="#b59aff" stroke="black" cx="327.14" cy="-703" rx="85.29" ry="18"/>
<text text-anchor="middle" x="327.14" y="-699.3" font-family="Times,serif" font-size="14.00">:data:repository</text>
</g>
<!-- :ui:common&#45;&gt;:data:repository -->
<g id="edge9" class="edge">
<title>:ui:common&#45;&gt;:data:repository</title>
<path fill="none" stroke="black" stroke-dasharray="1,5" d="M667.45,-827.36C667.45,-795.24 667.45,-713 667.45,-713 667.45,-713 408.07,-713 408.07,-713"/>
<polygon fill="black" stroke="black" points="408.07,-709.5 398.07,-713 408.07,-716.5 408.07,-709.5"/>
</g>
<!-- :data:musicbrainz -->
<g id="node9" class="node">
<title>:data:musicbrainz</title>
<ellipse fill="#b59aff" stroke="black" cx="358.14" cy="-155" rx="93.68" ry="18"/>
<text text-anchor="middle" x="358.14" y="-151.3" font-family="Times,serif" font-size="14.00">:data:musicbrainz</text>
</g>
<!-- :ui:common&#45;&gt;:data:musicbrainz -->
<g id="edge10" class="edge">
<title>:ui:common&#45;&gt;:data:musicbrainz</title>
<path fill="none" stroke="black" stroke-dasharray="1,5" d="M702.74,-822.08C702.74,-727.63 702.74,-292 702.74,-292 702.74,-292 444.63,-292 444.63,-292 444.63,-292 444.63,-171.98 444.63,-171.98"/>
<polygon fill="black" stroke="black" points="448.13,-171.98 444.63,-161.98 441.13,-171.98 448.13,-171.98"/>
</g>
<!-- :core:logging:api -->
<g id="node10" class="node">
<title>:core:logging:api</title>
<ellipse fill="#b59aff" stroke="black" cx="198.14" cy="-18" rx="88.28" ry="18"/>
<text text-anchor="middle" x="198.14" y="-14.3" font-family="Times,serif" font-size="14.00">:core:logging:api</text>
</g>
<!-- :ui:common&#45;&gt;:core:logging:api -->
<g id="edge11" class="edge">
<title>:ui:common&#45;&gt;:core:logging:api</title>
<path fill="none" stroke="black" stroke-dasharray="1,5" d="M653.37,-834C518.53,-834 206.14,-834 206.14,-834 206.14,-834 206.14,-46.19 206.14,-46.19"/>
<polygon fill="black" stroke="black" points="209.64,-46.19 206.14,-36.19 202.64,-46.19 209.64,-46.19"/>
</g>
<!-- :ui:image -->
<g id="node11" class="node">
<title>:ui:image</title>
<ellipse fill="#b59aff" stroke="black" cx="853.14" cy="-703" rx="53.89" ry="18"/>
<text text-anchor="middle" x="853.14" y="-699.3" font-family="Times,serif" font-size="14.00">:ui:image</text>
</g>
<!-- :ui:common&#45;&gt;:ui:image -->
<g id="edge12" class="edge">
<title>:ui:common&#45;&gt;:ui:image</title>
<path fill="none" stroke="black" stroke-dasharray="1,5" d="M766.49,-829.4C766.49,-796.61 766.49,-699 766.49,-699 766.49,-699 790.24,-699 790.24,-699"/>
<polygon fill="black" stroke="black" points="790.24,-702.5 800.24,-699 790.24,-695.5 790.24,-702.5"/>
</g>
<!-- :ui:test:screenshot&#45;&gt;:ui:core -->
<g id="edge13" class="edge">
<title>:ui:test:screenshot&#45;&gt;:ui:core</title>
<path fill="none" stroke="black" stroke-dasharray="1,5" d="M929.84,-697.46C929.84,-671.83 929.84,-566 929.84,-566 929.84,-566 908.65,-566 908.65,-566"/>
<polygon fill="black" stroke="black" points="908.65,-562.5 898.65,-566 908.65,-569.5 908.65,-562.5"/>
</g>
<!-- :test:image -->
<g id="node12" class="node">
<title>:test:image</title>
<ellipse fill="#9affb5" stroke="black" cx="1053.14" cy="-566" rx="63.09" ry="18"/>
<text text-anchor="middle" x="1053.14" y="-562.3" font-family="Times,serif" font-size="14.00">:test:image</text>
</g>
<!-- :ui:test:screenshot&#45;&gt;:test:image -->
<g id="edge14" class="edge">
<title>:ui:test:screenshot&#45;&gt;:test:image</title>
<path fill="none" stroke="black" stroke-dasharray="1,5" d="M1053.14,-685.93C1053.14,-685.93 1053.14,-594.16 1053.14,-594.16"/>
<polygon fill="black" stroke="black" points="1056.64,-594.16 1053.14,-584.16 1049.64,-594.16 1056.64,-594.16"/>
</g>
<!-- :test&#45;data&#45;&gt;:shared:domain -->
<g id="edge15" class="edge">
<title>:test&#45;data&#45;&gt;:shared:domain</title>
<path fill="none" stroke="black" stroke-dasharray="1,5" d="M555.61,-566C588.63,-566 624.14,-566 624.14,-566 624.14,-566 624.14,-42.66 624.14,-42.66"/>
<polygon fill="black" stroke="black" points="627.64,-42.66 624.14,-32.66 620.64,-42.66 627.64,-42.66"/>
</g>
<!-- :test&#45;data&#45;&gt;:core:coroutines -->
<g id="edge16" class="edge">
<title>:test&#45;data&#45;&gt;:core:coroutines</title>
<path fill="none" stroke="black" stroke-dasharray="1,5" d="M444.55,-566C327.86,-566 68.11,-566 68.11,-566 68.11,-566 68.11,-182.66 68.11,-182.66"/>
<polygon fill="black" stroke="black" points="71.61,-182.66 68.11,-172.66 64.61,-182.66 71.61,-182.66"/>
</g>
<!-- :test&#45;data&#45;&gt;:data:musicbrainz -->
<g id="edge18" class="edge">
<title>:test&#45;data&#45;&gt;:data:musicbrainz</title>
<path fill="none" stroke="black" stroke-dasharray="1,5" d="M452.06,-557C384.44,-557 269.42,-557 269.42,-557 269.42,-557 269.42,-170.99 269.42,-170.99"/>
<polygon fill="black" stroke="black" points="272.92,-170.99 269.42,-160.99 265.92,-170.99 272.92,-170.99"/>
</g>
<!-- :data:database -->
<g id="node13" class="node">
<title>:data:database</title>
<ellipse fill="#b59aff" stroke="black" cx="351.14" cy="-292" rx="79.09" ry="18"/>
<text text-anchor="middle" x="351.14" y="-288.3" font-family="Times,serif" font-size="14.00">:data:database</text>
</g>
<!-- :test&#45;data&#45;&gt;:data:database -->
<g id="edge17" class="edge">
<title>:test&#45;data&#45;&gt;:data:database</title>
<path fill="none" stroke="black" stroke-dasharray="1,5" d="M499.92,-547.79C499.92,-487.91 499.92,-301 499.92,-301 499.92,-301 429.87,-301 429.87,-301"/>
<polygon fill="black" stroke="black" points="429.87,-297.5 419.87,-301 429.87,-304.5 429.87,-297.5"/>
</g>
<!-- :data:coverart -->
<g id="node14" class="node">
<title>:data:coverart</title>
<ellipse fill="#b59aff" stroke="black" cx="396.14" cy="-429" rx="76.09" ry="18"/>
<text text-anchor="middle" x="396.14" y="-425.3" font-family="Times,serif" font-size="14.00">:data:coverart</text>
</g>
<!-- :test&#45;data&#45;&gt;:data:coverart -->
<g id="edge19" class="edge">
<title>:test&#45;data&#45;&gt;:data:coverart</title>
<path fill="none" stroke="black" stroke-dasharray="1,5" d="M453.99,-555.7C453.99,-555.7 453.99,-450.96 453.99,-450.96"/>
<polygon fill="black" stroke="black" points="457.49,-450.96 453.99,-440.96 450.49,-450.96 457.49,-450.96"/>
</g>
<!-- :data:spotify -->
<g id="node15" class="node">
<title>:data:spotify</title>
<ellipse fill="#b59aff" stroke="black" cx="538.14" cy="-155" rx="68.79" ry="18"/>
<text text-anchor="middle" x="538.14" y="-151.3" font-family="Times,serif" font-size="14.00">:data:spotify</text>
</g>
<!-- :test&#45;data&#45;&gt;:data:spotify -->
<g id="edge20" class="edge">
<title>:test&#45;data&#45;&gt;:data:spotify</title>
<path fill="none" stroke="black" stroke-dasharray="1,5" d="M527.65,-550.39C527.65,-550.39 527.65,-182.9 527.65,-182.9"/>
<polygon fill="black" stroke="black" points="531.15,-182.9 527.65,-172.9 524.15,-182.9 531.15,-182.9"/>
</g>
<!-- :shared:strings -->
<g id="node16" class="node">
<title>:shared:strings</title>
<ellipse fill="#b59aff" stroke="black" cx="853.14" cy="-429" rx="81.49" ry="18"/>
<text text-anchor="middle" x="853.14" y="-425.3" font-family="Times,serif" font-size="14.00">:shared:strings</text>
</g>
<!-- :ui:core&#45;&gt;:shared:strings -->
<g id="edge21" class="edge">
<title>:ui:core&#45;&gt;:shared:strings</title>
<path fill="none" stroke="black" d="M853.14,-547.81C853.14,-547.81 853.14,-457.27 853.14,-457.27"/>
<polygon fill="black" stroke="black" points="856.64,-457.27 853.14,-447.27 849.64,-457.27 856.64,-457.27"/>
</g>
<!-- :data:repository&#45;&gt;:shared:domain -->
<g id="edge22" class="edge">
<title>:data:repository&#45;&gt;:shared:domain</title>
<path fill="none" stroke="black" stroke-dasharray="1,5" d="M411.44,-706C501.89,-706 632.69,-706 632.69,-706 632.69,-706 632.69,-43.99 632.69,-43.99"/>
<polygon fill="black" stroke="black" points="636.19,-43.99 632.69,-33.99 629.19,-43.99 636.19,-43.99"/>
</g>
<!-- :data:repository&#45;&gt;:test&#45;data -->
<g id="edge27" class="edge">
<title>:data:repository&#45;&gt;:test&#45;data</title>
<path fill="none" stroke="#ff9ab1" stroke-dasharray="1,5" d="M381.56,-688.81C381.56,-655.49 381.56,-575 381.56,-575 381.56,-575 442.25,-575 442.25,-575"/>
<polygon fill="#ff9ab1" stroke="#ff9ab1" points="442.25,-578.5 452.25,-575 442.25,-571.5 442.25,-578.5"/>
</g>
<!-- :data:repository&#45;&gt;:core:coroutines -->
<g id="edge28" class="edge">
<title>:data:repository&#45;&gt;:core:coroutines</title>
<path fill="none" stroke="#ff9ab1" stroke-dasharray="1,5" d="M247.64,-696.46C247.64,-634.64 247.64,-155 247.64,-155 247.64,-155 180.67,-155 180.67,-155"/>
<polygon fill="#ff9ab1" stroke="#ff9ab1" points="180.67,-151.5 170.67,-155 180.67,-158.5 180.67,-151.5"/>
</g>
<!-- :data:repository&#45;&gt;:data:musicbrainz -->
<g id="edge24" class="edge">
<title>:data:repository&#45;&gt;:data:musicbrainz</title>
<path fill="none" stroke="black" stroke-dasharray="1,5" d="M266.98,-690.26C266.98,-690.26 266.98,-169.21 266.98,-169.21"/>
<polygon fill="black" stroke="black" points="270.48,-169.21 266.98,-159.21 263.48,-169.21 270.48,-169.21"/>
</g>
<!-- :data:repository&#45;&gt;:core:logging:api -->
<g id="edge26" class="edge">
<title>:data:repository&#45;&gt;:core:logging:api</title>
<path fill="none" stroke="black" stroke-dasharray="1,5" d="M253.28,-693.83C253.28,-693.83 253.28,-42.17 253.28,-42.17"/>
<polygon fill="black" stroke="black" points="256.78,-42.17 253.28,-32.17 249.78,-42.17 256.78,-42.17"/>
</g>
<!-- :data:repository&#45;&gt;:data:database -->
<g id="edge23" class="edge">
<title>:data:repository&#45;&gt;:data:database</title>
<path fill="none" stroke="black" stroke-dasharray="1,5" d="M295.97,-686.12C295.97,-686.12 295.97,-314.95 295.97,-314.95"/>
<polygon fill="black" stroke="black" points="299.47,-314.95 295.97,-304.95 292.47,-314.95 299.47,-314.95"/>
</g>
<!-- :data:repository&#45;&gt;:data:coverart -->
<g id="edge25" class="edge">
<title>:data:repository&#45;&gt;:data:coverart</title>
<path fill="none" stroke="black" stroke-dasharray="1,5" d="M350.83,-685.44C350.83,-685.44 350.83,-453.69 350.83,-453.69"/>
<polygon fill="black" stroke="black" points="354.33,-453.69 350.83,-443.69 347.33,-453.69 354.33,-453.69"/>
</g>
<!-- :data:musicbrainz&#45;&gt;:shared:domain -->
<g id="edge29" class="edge">
<title>:data:musicbrainz&#45;&gt;:shared:domain</title>
<path fill="none" stroke="black" stroke-dasharray="1,5" d="M369.13,-137.1C369.13,-98.11 369.13,-9 369.13,-9 369.13,-9 591.48,-9 591.48,-9"/>
<polygon fill="black" stroke="black" points="591.48,-12.5 601.48,-9 591.48,-5.5 591.48,-12.5"/>
</g>
<!-- :data:musicbrainz&#45;&gt;:core:logging:api -->
<g id="edge30" class="edge">
<title>:data:musicbrainz&#45;&gt;:core:logging:api</title>
<path fill="none" stroke="black" stroke-dasharray="1,5" d="M275.54,-146.43C275.54,-146.43 275.54,-36.92 275.54,-36.92"/>
<polygon fill="black" stroke="black" points="279.04,-36.92 275.54,-26.92 272.04,-36.92 279.04,-36.92"/>
</g>
<!-- :ui:image&#45;&gt;:shared:domain -->
<g id="edge31" class="edge">
<title>:ui:image&#45;&gt;:shared:domain</title>
<path fill="none" stroke="black" stroke-dasharray="1,5" d="M810.28,-692C777.56,-692 738.04,-692 738.04,-692 738.04,-692 738.04,-39.14 738.04,-39.14"/>
<polygon fill="black" stroke="black" points="741.54,-39.14 738.04,-29.14 734.54,-39.14 741.54,-39.14"/>
</g>
<!-- :ui:image&#45;&gt;:ui:core -->
<g id="edge32" class="edge">
<title>:ui:image&#45;&gt;:ui:core</title>
<path fill="none" stroke="black" stroke-dasharray="1,5" d="M853.14,-684.81C853.14,-684.81 853.14,-594.27 853.14,-594.27"/>
<polygon fill="black" stroke="black" points="856.64,-594.27 853.14,-584.27 849.64,-594.27 856.64,-594.27"/>
</g>
<!-- :data:database&#45;&gt;:shared:domain -->
<g id="edge33" class="edge">
<title>:data:database&#45;&gt;:shared:domain</title>
<path fill="none" stroke="black" stroke-dasharray="1,5" d="M419.93,-283C498.29,-283 615.59,-283 615.59,-283 615.59,-283 615.59,-41.14 615.59,-41.14"/>
<polygon fill="black" stroke="black" points="619.09,-41.14 615.59,-31.14 612.09,-41.14 619.09,-41.14"/>
</g>
<!-- :data:database&#45;&gt;:core:coroutines -->
<g id="edge34" class="edge">
<title>:data:database&#45;&gt;:core:coroutines</title>
<path fill="none" stroke="black" stroke-dasharray="1,5" d="M271.73,-292C210.51,-292 136.23,-292 136.23,-292 136.23,-292 136.23,-179.4 136.23,-179.4"/>
<polygon fill="black" stroke="black" points="139.73,-179.4 136.23,-169.4 132.73,-179.4 139.73,-179.4"/>
</g>
<!-- :data:database&#45;&gt;:data:musicbrainz -->
<g id="edge35" class="edge">
<title>:data:database&#45;&gt;:data:musicbrainz</title>
<path fill="none" stroke="black" stroke-dasharray="1,5" d="M351.14,-273.81C351.14,-273.81 351.14,-183.27 351.14,-183.27"/>
<polygon fill="black" stroke="black" points="354.64,-183.27 351.14,-173.27 347.64,-183.27 354.64,-183.27"/>
</g>
<!-- :data:coverart&#45;&gt;:shared:domain -->
<g id="edge36" class="edge">
<title>:data:coverart&#45;&gt;:shared:domain</title>
<path fill="none" stroke="black" stroke-dasharray="1,5" d="M460.49,-419.06C460.49,-357.16 460.49,-27 460.49,-27 460.49,-27 591.44,-27 591.44,-27"/>
<polygon fill="black" stroke="black" points="591.44,-30.5 601.44,-27 591.44,-23.5 591.44,-30.5"/>
</g>
<!-- :data:coverart&#45;&gt;:test&#45;data -->
<g id="edge39" class="edge">
<title>:data:coverart&#45;&gt;:test&#45;data</title>
<path fill="none" stroke="#ff9ab1" stroke-dasharray="1,5" d="M463.09,-437.57C463.09,-437.57 463.09,-542.36 463.09,-542.36"/>
<polygon fill="#ff9ab1" stroke="#ff9ab1" points="459.59,-542.36 463.09,-552.36 466.59,-542.36 459.59,-542.36"/>
</g>
<!-- :data:coverart&#45;&gt;:core:coroutines -->
<g id="edge38" class="edge">
<title>:data:coverart&#45;&gt;:core:coroutines</title>
<path fill="none" stroke="black" stroke-dasharray="1,5" d="M324.23,-435C237.2,-435 102.17,-435 102.17,-435 102.17,-435 102.17,-182.94 102.17,-182.94"/>
<polygon fill="black" stroke="black" points="105.67,-182.94 102.17,-172.94 98.67,-182.94 105.67,-182.94"/>
</g>
<!-- :data:coverart&#45;&gt;:data:musicbrainz -->
<g id="edge40" class="edge">
<title>:data:coverart&#45;&gt;:data:musicbrainz</title>
<path fill="none" stroke="#ff9ab1" stroke-dasharray="1,5" d="M437.53,-413.88C437.53,-413.88 437.53,-174.57 437.53,-174.57"/>
<polygon fill="#ff9ab1" stroke="#ff9ab1" points="441.04,-174.57 437.53,-164.57 434.04,-174.57 441.04,-174.57"/>
</g>
<!-- :data:coverart&#45;&gt;:core:logging:api -->
<g id="edge37" class="edge">
<title>:data:coverart&#45;&gt;:core:logging:api</title>
<path fill="none" stroke="black" stroke-dasharray="1,5" d="M324.31,-423C291.11,-423 258.91,-423 258.91,-423 258.91,-423 258.91,-41.48 258.91,-41.48"/>
<polygon fill="black" stroke="black" points="262.41,-41.48 258.91,-31.48 255.41,-41.48 262.41,-41.48"/>
</g>
<!-- :data:coverart&#45;&gt;:data:database -->
<g id="edge41" class="edge">
<title>:data:coverart&#45;&gt;:data:database</title>
<path fill="none" stroke="#ff9ab1" stroke-dasharray="1,5" d="M375.27,-411.65C375.27,-411.65 375.27,-319.21 375.27,-319.21"/>
<polygon fill="#ff9ab1" stroke="#ff9ab1" points="378.77,-319.21 375.27,-309.21 371.77,-319.21 378.77,-319.21"/>
</g>
<!-- :data:spotify&#45;&gt;:shared:domain -->
<g id="edge42" class="edge">
<title>:data:spotify&#45;&gt;:shared:domain</title>
<path fill="none" stroke="black" stroke-dasharray="1,5" d="M598.82,-146.43C598.82,-146.43 598.82,-35.88 598.82,-35.88"/>
<polygon fill="black" stroke="black" points="602.32,-35.88 598.82,-25.88 595.32,-35.88 602.32,-35.88"/>
</g>
<!-- :data:spotify&#45;&gt;:core:logging:api -->
<g id="edge43" class="edge">
<title>:data:spotify&#45;&gt;:core:logging:api</title>
<path fill="none" stroke="black" stroke-dasharray="1,5" d="M529.92,-137.09C529.92,-99.95 529.92,-18 529.92,-18 529.92,-18 296.62,-18 296.62,-18"/>
<polygon fill="black" stroke="black" points="296.62,-14.5 286.62,-18 296.62,-21.5 296.62,-14.5"/>
</g>
</g>
</svg>
