<?xml version="1.0" encoding="UTF-8" standalone="no"?>
<!DOCTYPE svg PUBLIC "-//W3C//DTD SVG 1.1//EN"
 "http://www.w3.org/Graphics/SVG/1.1/DTD/svg11.dtd">
<!-- Generated by graphviz version 2.43.0 (0)
 -->
<!-- Title: %3 Pages: 1 -->
<svg width="797pt" height="666pt"
 viewBox="0.00 0.00 797.43 666.00" xmlns="http://www.w3.org/2000/svg" xmlns:xlink="http://www.w3.org/1999/xlink">
<g id="graph0" class="graph" transform="scale(1 1) rotate(0) translate(4 662)">
<title>%3</title>
<polygon fill="white" stroke="transparent" points="-4,4 -4,-662 793.43,-662 793.43,4 -4,4"/>
<text text-anchor="middle" x="394.72" y="-630" font-family="Times,serif" font-size="30.00">Dependencies</text>
<text text-anchor="middle" x="394.72" y="-597" font-family="Times,serif" font-size="30.00"> </text>
<!-- :android:feature:nowplaying -->
<g id="node1" class="node">
<title>:android:feature:nowplaying</title>
<polygon fill="#9affb5" stroke="black" points="556.59,-584 338.59,-584 338.59,-548 556.59,-548 556.59,-584"/>
<text text-anchor="middle" x="447.59" y="-562.3" font-family="Times,serif" font-size="14.00">:android:feature:nowplaying</text>
</g>
<!-- :shared:domain -->
<g id="node2" class="node">
<title>:shared:domain</title>
<ellipse fill="#b59aff" stroke="black" cx="110.59" cy="-155" rx="82.59" ry="18"/>
<text text-anchor="middle" x="110.59" y="-151.3" font-family="Times,serif" font-size="14.00">:shared:domain</text>
</g>
<!-- :android:feature:nowplaying&#45;&gt;:shared:domain -->
<g id="edge1" class="edge">
<title>:android:feature:nowplaying&#45;&gt;:shared:domain</title>
<path fill="none" stroke="black" stroke-dasharray="1,5" d="M338.38,-566C205.89,-566 0,-566 0,-566 0,-566 0,-155 0,-155 0,-155 17.91,-155 17.91,-155"/>
<polygon fill="black" stroke="black" points="17.91,-158.5 27.91,-155 17.91,-151.5 17.91,-158.5"/>
</g>
<!-- :ui:common -->
<g id="node3" class="node">
<title>:ui:common</title>
<ellipse fill="#b59aff" stroke="black" cx="447.59" cy="-429" rx="64.19" ry="18"/>
<text text-anchor="middle" x="447.59" y="-425.3" font-family="Times,serif" font-size="14.00">:ui:common</text>
</g>
<!-- :android:feature:nowplaying&#45;&gt;:ui:common -->
<g id="edge2" class="edge">
<title>:android:feature:nowplaying&#45;&gt;:ui:common</title>
<path fill="none" stroke="black" stroke-dasharray="1,5" d="M447.59,-547.81C447.59,-547.81 447.59,-457.27 447.59,-457.27"/>
<polygon fill="black" stroke="black" points="451.09,-457.27 447.59,-447.27 444.09,-457.27 451.09,-457.27"/>
</g>
<!-- :ui:test:screenshot -->
<g id="node4" class="node">
<title>:ui:test:screenshot</title>
<ellipse fill="#9affb5" stroke="black" cx="692.59" cy="-292" rx="96.68" ry="18"/>
<text text-anchor="middle" x="692.59" y="-288.3" font-family="Times,serif" font-size="14.00">:ui:test:screenshot</text>
</g>
<!-- :android:feature:nowplaying&#45;&gt;:ui:test:screenshot -->
<g id="edge3" class="edge">
<title>:android:feature:nowplaying&#45;&gt;:ui:test:screenshot</title>
<path fill="none" stroke="#ff9ab1" stroke-dasharray="1,5" d="M538.84,-548C538.84,-487.91 538.84,-298 538.84,-298 538.84,-298 590.94,-298 590.94,-298"/>
<polygon fill="#ff9ab1" stroke="#ff9ab1" points="590.94,-301.5 600.94,-298 590.94,-294.5 590.94,-301.5"/>
</g>
<!-- :ui:common&#45;&gt;:shared:domain -->
<g id="edge5" class="edge">
<title>:ui:common&#45;&gt;:shared:domain</title>
<path fill="none" stroke="black" d="M504.14,-420.23C504.14,-378.03 504.14,-198 504.14,-198 504.14,-198 160.12,-198 160.12,-198 160.12,-198 160.12,-179.56 160.12,-179.56"/>
<polygon fill="black" stroke="black" points="163.62,-179.56 160.12,-169.56 156.62,-179.56 163.62,-179.56"/>
</g>
<!-- :ui:common&#45;&gt;:ui:test:screenshot -->
<g id="edge4" class="edge">
<title>:ui:common&#45;&gt;:ui:test:screenshot</title>
<path fill="none" stroke="#ff9ab1" stroke-dasharray="1,5" d="M509.34,-423.91C509.34,-398.44 509.34,-286 509.34,-286 509.34,-286 591.23,-286 591.23,-286"/>
<polygon fill="#ff9ab1" stroke="#ff9ab1" points="591.23,-289.5 601.23,-286 591.23,-282.5 591.23,-289.5"/>
</g>
<!-- :ui:core -->
<g id="node5" class="node">
<title>:ui:core</title>
<ellipse fill="#b59aff" stroke="black" cx="566.59" cy="-155" rx="45.49" ry="18"/>
<text text-anchor="middle" x="566.59" y="-151.3" font-family="Times,serif" font-size="14.00">:ui:core</text>
</g>
<!-- :ui:common&#45;&gt;:ui:core -->
<g id="edge6" class="edge">
<title>:ui:common&#45;&gt;:ui:core</title>
<path fill="none" stroke="black" d="M506.74,-421.83C506.74,-379.21 506.74,-161 506.74,-161 506.74,-161 513.41,-161 513.41,-161"/>
<polygon fill="black" stroke="black" points="513.41,-164.5 523.41,-161 513.41,-157.5 513.41,-164.5"/>
</g>
<!-- :data:coverart -->
<g id="node6" class="node">
<title>:data:coverart</title>
<ellipse fill="#b59aff" stroke="black" cx="299.59" cy="-292" rx="76.09" ry="18"/>
<text text-anchor="middle" x="299.59" y="-288.3" font-family="Times,serif" font-size="14.00">:data:coverart</text>
</g>
<!-- :ui:common&#45;&gt;:data:coverart -->
<g id="edge7" class="edge">
<title>:ui:common&#45;&gt;:data:coverart</title>
<path fill="none" stroke="black" stroke-dasharray="1,5" d="M391.84,-420C373.22,-420 357.11,-420 357.11,-420 357.11,-420 357.11,-313.81 357.11,-313.81"/>
<polygon fill="black" stroke="black" points="360.61,-313.81 357.11,-303.81 353.61,-313.81 360.61,-313.81"/>
</g>
<!-- :data:musicbrainz -->
<g id="node7" class="node">
<title>:data:musicbrainz</title>
<ellipse fill="#b59aff" stroke="black" cx="111.59" cy="-292" rx="93.68" ry="18"/>
<text text-anchor="middle" x="111.59" y="-288.3" font-family="Times,serif" font-size="14.00">:data:musicbrainz</text>
</g>
<!-- :ui:common&#45;&gt;:data:musicbrainz -->
<g id="edge8" class="edge">
<title>:ui:common&#45;&gt;:data:musicbrainz</title>
<path fill="none" stroke="black" stroke-dasharray="1,5" d="M391.73,-438C296.19,-438 111.59,-438 111.59,-438 111.59,-438 111.59,-320.2 111.59,-320.2"/>
<polygon fill="black" stroke="black" points="115.09,-320.2 111.59,-310.2 108.09,-320.2 115.09,-320.2"/>
</g>
<!-- :core:logging:api -->
<g id="node8" class="node">
<title>:core:logging:api</title>
<ellipse fill="#b59aff" stroke="black" cx="299.59" cy="-155" rx="88.28" ry="18"/>
<text text-anchor="middle" x="299.59" y="-151.3" font-family="Times,serif" font-size="14.00">:core:logging:api</text>
</g>
<!-- :ui:common&#45;&gt;:core:logging:api -->
<g id="edge9" class="edge">
<title>:ui:common&#45;&gt;:core:logging:api</title>
<path fill="none" stroke="black" stroke-dasharray="1,5" d="M383.11,-429C380.79,-429 379.44,-429 379.44,-429 379.44,-429 379.44,-172.9 379.44,-172.9"/>
<polygon fill="black" stroke="black" points="382.94,-172.9 379.44,-162.9 375.94,-172.9 382.94,-172.9"/>
</g>
<!-- :ui:image -->
<g id="node9" class="node">
<title>:ui:image</title>
<ellipse fill="#b59aff" stroke="black" cx="447.59" cy="-292" rx="53.89" ry="18"/>
<text text-anchor="middle" x="447.59" y="-288.3" font-family="Times,serif" font-size="14.00">:ui:image</text>
</g>
<!-- :ui:common&#45;&gt;:ui:image -->
<g id="edge10" class="edge">
<title>:ui:common&#45;&gt;:ui:image</title>
<path fill="none" stroke="black" stroke-dasharray="1,5" d="M447.59,-410.81C447.59,-410.81 447.59,-320.27 447.59,-320.27"/>
<polygon fill="black" stroke="black" points="451.09,-320.27 447.59,-310.27 444.09,-320.27 451.09,-320.27"/>
</g>
<!-- :ui:test:screenshot&#45;&gt;:ui:core -->
<g id="edge11" class="edge">
<title>:ui:test:screenshot&#45;&gt;:ui:core</title>
<path fill="none" stroke="black" stroke-dasharray="1,5" d="M603.92,-284.63C603.92,-284.63 603.92,-175.67 603.92,-175.67"/>
<polygon fill="black" stroke="black" points="607.42,-175.67 603.92,-165.67 600.42,-175.67 607.42,-175.67"/>
</g>
<!-- :test:image -->
<g id="node10" class="node">
<title>:test:image</title>
<ellipse fill="#9affb5" stroke="black" cx="693.59" cy="-155" rx="63.09" ry="18"/>
<text text-anchor="middle" x="693.59" y="-151.3" font-family="Times,serif" font-size="14.00">:test:image</text>
</g>
<!-- :ui:test:screenshot&#45;&gt;:test:image -->
<g id="edge12" class="edge">
<title>:ui:test:screenshot&#45;&gt;:test:image</title>
<path fill="none" stroke="black" stroke-dasharray="1,5" d="M693.59,-273.81C693.59,-273.81 693.59,-183.27 693.59,-183.27"/>
<polygon fill="black" stroke="black" points="697.09,-183.27 693.59,-173.27 690.09,-183.27 697.09,-183.27"/>
</g>
<!-- :shared:strings -->
<g id="node11" class="node">
<title>:shared:strings</title>
<ellipse fill="#b59aff" stroke="black" cx="566.59" cy="-18" rx="81.49" ry="18"/>
<text text-anchor="middle" x="566.59" y="-14.3" font-family="Times,serif" font-size="14.00">:shared:strings</text>
</g>
<!-- :ui:core&#45;&gt;:shared:strings -->
<g id="edge13" class="edge">
<title>:ui:core&#45;&gt;:shared:strings</title>
<path fill="none" stroke="black" d="M566.59,-136.81C566.59,-136.81 566.59,-46.27 566.59,-46.27"/>
<polygon fill="black" stroke="black" points="570.09,-46.27 566.59,-36.27 563.09,-46.27 570.09,-46.27"/>
</g>
<!-- :data:coverart&#45;&gt;:shared:domain -->
<g id="edge14" class="edge">
<title>:data:coverart&#45;&gt;:shared:domain</title>
<path fill="none" stroke="black" stroke-dasharray="1,5" d="M274.24,-274.86C274.24,-262.51 274.24,-248 274.24,-248 274.24,-248 94.08,-248 94.08,-248 94.08,-248 94.08,-182.93 94.08,-182.93"/>
<polygon fill="black" stroke="black" points="97.58,-182.93 94.08,-172.93 90.58,-182.93 97.58,-182.93"/>
</g>
<!-- :data:coverart&#45;&gt;:core:logging:api -->
<g id="edge15" class="edge">
<title>:data:coverart&#45;&gt;:core:logging:api</title>
<path fill="none" stroke="black" stroke-dasharray="1,5" d="M324.94,-274.93C324.94,-274.93 324.94,-182.29 324.94,-182.29"/>
<polygon fill="black" stroke="black" points="328.44,-182.29 324.94,-172.29 321.44,-182.29 328.44,-182.29"/>
</g>
<!-- :data:musicbrainz&#45;&gt;:shared:domain -->
<g id="edge16" class="edge">
<title>:data:musicbrainz&#45;&gt;:shared:domain</title>
<path fill="none" stroke="black" stroke-dasharray="1,5" d="M61.07,-276.82C61.07,-276.82 61.07,-179.42 61.07,-179.42"/>
<polygon fill="black" stroke="black" points="64.57,-179.42 61.07,-169.42 57.57,-179.42 64.57,-179.42"/>
</g>
<!-- :data:musicbrainz&#45;&gt;:core:logging:api -->
<g id="edge17" class="edge">
<title>:data:musicbrainz&#45;&gt;:core:logging:api</title>
<path fill="none" stroke="black" stroke-dasharray="1,5" d="M199.16,-285.39C199.16,-258.03 199.16,-155 199.16,-155 199.16,-155 201.07,-155 201.07,-155"/>
<polygon fill="black" stroke="black" points="201.07,-158.5 211.07,-155 201.07,-151.5 201.07,-158.5"/>
</g>
<!-- :ui:image&#45;&gt;:shared:domain -->
<g id="edge18" class="edge">
<title>:ui:image&#45;&gt;:shared:domain</title>
<path fill="none" stroke="black" stroke-dasharray="1,5" d="M439.5,-273.87C439.5,-253.43 439.5,-223 439.5,-223 439.5,-223 127.1,-223 127.1,-223 127.1,-223 127.1,-182.87 127.1,-182.87"/>
<polygon fill="black" stroke="black" points="130.6,-182.87 127.1,-172.87 123.6,-182.87 130.6,-182.87"/>
</g>
<!-- :ui:image&#45;&gt;:ui:core -->
<g id="edge19" class="edge">
<title>:ui:image&#45;&gt;:ui:core</title>
<path fill="none" stroke="black" stroke-dasharray="1,5" d="M493.44,-282.17C493.44,-249.86 493.44,-149 493.44,-149 493.44,-149 513.62,-149 513.62,-149"/>
<polygon fill="black" stroke="black" points="513.62,-152.5 523.62,-149 513.62,-145.5 513.62,-152.5"/>
</g>
</g>
</svg>
