<?xml version="1.0" encoding="UTF-8" standalone="no"?>
<!DOCTYPE svg PUBLIC "-//W3C//DTD SVG 1.1//EN"
 "http://www.w3.org/Graphics/SVG/1.1/DTD/svg11.dtd">
<!-- Generated by graphviz version 2.43.0 (0)
 -->
<!-- Title: %3 Pages: 1 -->
<svg width="871pt" height="1077pt"
 viewBox="0.00 0.00 871.44 1077.00" xmlns="http://www.w3.org/2000/svg" xmlns:xlink="http://www.w3.org/1999/xlink">
<g id="graph0" class="graph" transform="scale(1 1) rotate(0) translate(4 1073)">
<title>%3</title>
<polygon fill="white" stroke="transparent" points="-4,4 -4,-1073 867.44,-1073 867.44,4 -4,4"/>
<text text-anchor="middle" x="431.72" y="-1041" font-family="Times,serif" font-size="30.00">Dependencies</text>
<text text-anchor="middle" x="431.72" y="-1008" font-family="Times,serif" font-size="30.00"> </text>
<!-- :android:feature:nowplaying -->
<g id="node1" class="node">
<title>:android:feature:nowplaying</title>
<polygon fill="#9affb5" stroke="black" points="252.04,-995 34.04,-995 34.04,-959 252.04,-959 252.04,-995"/>
<text text-anchor="middle" x="143.04" y="-973.3" font-family="Times,serif" font-size="14.00">:android:feature:nowplaying</text>
</g>
<!-- :shared:domain -->
<g id="node2" class="node">
<title>:shared:domain</title>
<ellipse fill="#b59aff" stroke="black" cx="190.04" cy="-155" rx="82.59" ry="18"/>
<text text-anchor="middle" x="190.04" y="-151.3" font-family="Times,serif" font-size="14.00">:shared:domain</text>
</g>
<!-- :android:feature:nowplaying&#45;&gt;:shared:domain -->
<g id="edge1" class="edge">
<title>:android:feature:nowplaying&#45;&gt;:shared:domain</title>
<path fill="none" stroke="black" stroke-dasharray="1,5" d="M151.2,-958.72C151.2,-908.3 151.2,-771 151.2,-771 151.2,-771 250.79,-771 250.79,-771 250.79,-771 250.79,-177.3 250.79,-177.3"/>
<polygon fill="black" stroke="black" points="254.29,-177.3 250.79,-167.3 247.29,-177.3 254.29,-177.3"/>
</g>
<!-- :ui:common -->
<g id="node3" class="node">
<title>:ui:common</title>
<ellipse fill="#b59aff" stroke="black" cx="268.04" cy="-840" rx="64.19" ry="18"/>
<text text-anchor="middle" x="268.04" y="-836.3" font-family="Times,serif" font-size="14.00">:ui:common</text>
</g>
<!-- :android:feature:nowplaying&#45;&gt;:ui:common -->
<g id="edge2" class="edge">
<title>:android:feature:nowplaying&#45;&gt;:ui:common</title>
<path fill="none" stroke="black" stroke-dasharray="1,5" d="M227.87,-958.81C227.87,-958.81 227.87,-864.1 227.87,-864.1"/>
<polygon fill="black" stroke="black" points="231.37,-864.1 227.87,-854.1 224.37,-864.1 231.37,-864.1"/>
</g>
<!-- :ui:test:screenshot -->
<g id="node4" class="node">
<title>:ui:test:screenshot</title>
<ellipse fill="#9affb5" stroke="black" cx="143.04" cy="-703" rx="96.68" ry="18"/>
<text text-anchor="middle" x="143.04" y="-699.3" font-family="Times,serif" font-size="14.00">:ui:test:screenshot</text>
</g>
<!-- :android:feature:nowplaying&#45;&gt;:ui:test:screenshot -->
<g id="edge3" class="edge">
<title>:android:feature:nowplaying&#45;&gt;:ui:test:screenshot</title>
<path fill="none" stroke="#ff9ab1" stroke-dasharray="1,5" d="M98.7,-958.6C98.7,-958.6 98.7,-729.22 98.7,-729.22"/>
<polygon fill="#ff9ab1" stroke="#ff9ab1" points="102.2,-729.22 98.7,-719.22 95.2,-729.22 102.2,-729.22"/>
</g>
<!-- :ui:common&#45;&gt;:shared:domain -->
<g id="edge7" class="edge">
<title>:ui:common&#45;&gt;:shared:domain</title>
<path fill="none" stroke="black" d="M254.42,-822.38C254.42,-822.38 254.42,-176.51 254.42,-176.51"/>
<polygon fill="black" stroke="black" points="257.92,-176.51 254.42,-166.51 250.92,-176.51 257.92,-176.51"/>
</g>
<!-- :ui:common&#45;&gt;:ui:test:screenshot -->
<g id="edge5" class="edge">
<title>:ui:common&#45;&gt;:ui:test:screenshot</title>
<path fill="none" stroke="#ff9ab1" stroke-dasharray="1,5" d="M221.79,-827.36C221.79,-827.36 221.79,-723.69 221.79,-723.69"/>
<polygon fill="#ff9ab1" stroke="#ff9ab1" points="225.29,-723.69 221.79,-713.69 218.29,-723.69 225.29,-723.69"/>
</g>
<!-- :test&#45;data -->
<g id="node5" class="node">
<title>:test&#45;data</title>
<ellipse fill="#b59aff" stroke="black" cx="479.04" cy="-703" rx="55.49" ry="18"/>
<text text-anchor="middle" x="479.04" y="-699.3" font-family="Times,serif" font-size="14.00">:test&#45;data</text>
</g>
<!-- :ui:common&#45;&gt;:test&#45;data -->
<g id="edge4" class="edge">
<title>:ui:common&#45;&gt;:test&#45;data</title>
<path fill="none" stroke="#ff9ab1" stroke-dasharray="1,5" d="M310.03,-825.98C310.03,-792.19 310.03,-709 310.03,-709 310.03,-709 416.96,-709 416.96,-709"/>
<polygon fill="#ff9ab1" stroke="#ff9ab1" points="416.96,-712.5 426.96,-709 416.96,-705.5 416.96,-712.5"/>
</g>
<!-- :core:coroutines -->
<g id="node6" class="node">
<title>:core:coroutines</title>
<ellipse fill="#b59aff" stroke="black" cx="659.04" cy="-18" rx="85.29" ry="18"/>
<text text-anchor="middle" x="659.04" y="-14.3" font-family="Times,serif" font-size="14.00">:core:coroutines</text>
</g>
<!-- :ui:common&#45;&gt;:core:coroutines -->
<g id="edge6" class="edge">
<title>:ui:common&#45;&gt;:core:coroutines</title>
<path fill="none" stroke="#ff9ab1" stroke-dasharray="1,5" d="M291.31,-823.21C291.31,-706.26 291.31,-18 291.31,-18 291.31,-18 563.75,-18 563.75,-18"/>
<polygon fill="#ff9ab1" stroke="#ff9ab1" points="563.75,-21.5 573.75,-18 563.75,-14.5 563.75,-21.5"/>
</g>
<!-- :ui:core -->
<g id="node7" class="node">
<title>:ui:core</title>
<ellipse fill="#b59aff" stroke="black" cx="190.04" cy="-566" rx="45.49" ry="18"/>
<text text-anchor="middle" x="190.04" y="-562.3" font-family="Times,serif" font-size="14.00">:ui:core</text>
</g>
<!-- :ui:common&#45;&gt;:ui:core -->
<g id="edge8" class="edge">
<title>:ui:common&#45;&gt;:ui:core</title>
<path fill="none" stroke="black" d="M247.15,-822.81C247.15,-764.52 247.15,-578 247.15,-578 247.15,-578 234.25,-578 234.25,-578"/>
<polygon fill="black" stroke="black" points="234.25,-574.5 224.25,-578 234.25,-581.5 234.25,-574.5"/>
</g>
<!-- :core:logging:api -->
<g id="node8" class="node">
<title>:core:logging:api</title>
<ellipse fill="#b59aff" stroke="black" cx="775.04" cy="-155" rx="88.28" ry="18"/>
<text text-anchor="middle" x="775.04" y="-151.3" font-family="Times,serif" font-size="14.00">:core:logging:api</text>
</g>
<!-- :ui:common&#45;&gt;:core:logging:api -->
<g id="edge9" class="edge">
<title>:ui:common&#45;&gt;:core:logging:api</title>
<path fill="none" stroke="black" stroke-dasharray="1,5" d="M332.8,-840C455.59,-840 710.12,-840 710.12,-840 710.12,-840 710.12,-177.47 710.12,-177.47"/>
<polygon fill="black" stroke="black" points="713.62,-177.47 710.12,-167.47 706.62,-177.47 713.62,-177.47"/>
</g>
<!-- :ui:test:screenshot&#45;&gt;:ui:core -->
<g id="edge10" class="edge">
<title>:ui:test:screenshot&#45;&gt;:ui:core</title>
<path fill="none" stroke="black" stroke-dasharray="1,5" d="M190.04,-687.02C190.04,-687.02 190.04,-594.05 190.04,-594.05"/>
<polygon fill="black" stroke="black" points="193.54,-594.05 190.04,-584.05 186.54,-594.05 193.54,-594.05"/>
</g>
<!-- :test:image -->
<g id="node9" class="node">
<title>:test:image</title>
<ellipse fill="#9affb5" stroke="black" cx="63.04" cy="-566" rx="63.09" ry="18"/>
<text text-anchor="middle" x="63.04" y="-562.3" font-family="Times,serif" font-size="14.00">:test:image</text>
</g>
<!-- :ui:test:screenshot&#45;&gt;:test:image -->
<g id="edge11" class="edge">
<title>:ui:test:screenshot&#45;&gt;:test:image</title>
<path fill="none" stroke="black" stroke-dasharray="1,5" d="M86.15,-688.34C86.15,-688.34 86.15,-593.12 86.15,-593.12"/>
<polygon fill="black" stroke="black" points="89.65,-593.12 86.15,-583.12 82.65,-593.12 89.65,-593.12"/>
</g>
<!-- :test&#45;data&#45;&gt;:shared:domain -->
<g id="edge12" class="edge">
<title>:test&#45;data&#45;&gt;:shared:domain</title>
<path fill="none" stroke="black" stroke-dasharray="1,5" d="M426.95,-697C361.62,-697 258.05,-697 258.05,-697 258.05,-697 258.05,-175.34 258.05,-175.34"/>
<polygon fill="black" stroke="black" points="261.55,-175.34 258.05,-165.34 254.55,-175.34 261.55,-175.34"/>
</g>
<!-- :test&#45;data&#45;&gt;:core:coroutines -->
<g id="edge13" class="edge">
<title>:test&#45;data&#45;&gt;:core:coroutines</title>
<path fill="none" stroke="black" stroke-dasharray="1,5" d="M506.12,-687.18C506.12,-638.94 506.12,-497 506.12,-497 506.12,-497 649.05,-497 649.05,-497 649.05,-497 649.05,-45.9 649.05,-45.9"/>
<polygon fill="black" stroke="black" points="652.55,-45.9 649.05,-35.9 645.55,-45.9 652.55,-45.9"/>
</g>
<!-- :data:database -->
<g id="node10" class="node">
<title>:data:database</title>
<ellipse fill="#b59aff" stroke="black" cx="408.04" cy="-429" rx="79.09" ry="18"/>
<text text-anchor="middle" x="408.04" y="-425.3" font-family="Times,serif" font-size="14.00">:data:database</text>
</g>
<!-- :test&#45;data&#45;&gt;:data:database -->
<g id="edge14" class="edge">
<title>:test&#45;data&#45;&gt;:data:database</title>
<path fill="none" stroke="black" stroke-dasharray="1,5" d="M455.57,-686.68C455.57,-686.68 455.57,-453.55 455.57,-453.55"/>
<polygon fill="black" stroke="black" points="459.07,-453.55 455.57,-443.55 452.07,-453.55 459.07,-453.55"/>
</g>
<!-- :data:musicbrainz -->
<g id="node11" class="node">
<title>:data:musicbrainz</title>
<ellipse fill="#b59aff" stroke="black" cx="499.04" cy="-292" rx="93.68" ry="18"/>
<text text-anchor="middle" x="499.04" y="-288.3" font-family="Times,serif" font-size="14.00">:data:musicbrainz</text>
</g>
<!-- :test&#45;data&#45;&gt;:data:musicbrainz -->
<g id="edge15" class="edge">
<title>:test&#45;data&#45;&gt;:data:musicbrainz</title>
<path fill="none" stroke="black" stroke-dasharray="1,5" d="M496.73,-685.86C496.73,-685.86 496.73,-320.13 496.73,-320.13"/>
<polygon fill="black" stroke="black" points="500.23,-320.13 496.73,-310.13 493.23,-320.13 500.23,-320.13"/>
</g>
<!-- :data:coverart -->
<g id="node12" class="node">
<title>:data:coverart</title>
<ellipse fill="#b59aff" stroke="black" cx="619.04" cy="-566" rx="76.09" ry="18"/>
<text text-anchor="middle" x="619.04" y="-562.3" font-family="Times,serif" font-size="14.00">:data:coverart</text>
</g>
<!-- :test&#45;data&#45;&gt;:data:coverart -->
<g id="edge16" class="edge">
<title>:test&#45;data&#45;&gt;:data:coverart</title>
<path fill="none" stroke="black" stroke-dasharray="1,5" d="M524.9,-692.7C524.9,-660.84 524.9,-566 524.9,-566 524.9,-566 532.61,-566 532.61,-566"/>
<polygon fill="black" stroke="black" points="532.61,-569.5 542.61,-566 532.61,-562.5 532.61,-569.5"/>
</g>
<!-- :data:spotify -->
<g id="node13" class="node">
<title>:data:spotify</title>
<ellipse fill="#b59aff" stroke="black" cx="794.04" cy="-292" rx="68.79" ry="18"/>
<text text-anchor="middle" x="794.04" y="-288.3" font-family="Times,serif" font-size="14.00">:data:spotify</text>
</g>
<!-- :test&#45;data&#45;&gt;:data:spotify -->
<g id="edge17" class="edge">
<title>:test&#45;data&#45;&gt;:data:spotify</title>
<path fill="none" stroke="black" stroke-dasharray="1,5" d="M534.63,-703C625.07,-703 794.04,-703 794.04,-703 794.04,-703 794.04,-320.19 794.04,-320.19"/>
<polygon fill="black" stroke="black" points="797.54,-320.19 794.04,-310.19 790.54,-320.19 797.54,-320.19"/>
</g>
<!-- :ui:core&#45;&gt;:shared:domain -->
<g id="edge19" class="edge">
<title>:ui:core&#45;&gt;:shared:domain</title>
<path fill="none" stroke="black" stroke-dasharray="1,5" d="M232.95,-572C239.17,-572 243.52,-572 243.52,-572 243.52,-572 243.52,-178.87 243.52,-178.87"/>
<polygon fill="black" stroke="black" points="247.02,-178.87 243.52,-168.87 240.02,-178.87 247.02,-178.87"/>
</g>
<!-- :shared:strings -->
<g id="node14" class="node">
<title>:shared:strings</title>
<ellipse fill="#b59aff" stroke="black" cx="154.04" cy="-429" rx="81.49" ry="18"/>
<text text-anchor="middle" x="154.04" y="-425.3" font-family="Times,serif" font-size="14.00">:shared:strings</text>
</g>
<!-- :ui:core&#45;&gt;:shared:strings -->
<g id="edge18" class="edge">
<title>:ui:core&#45;&gt;:shared:strings</title>
<path fill="none" stroke="black" d="M189.92,-547.81C189.92,-547.81 189.92,-455.55 189.92,-455.55"/>
<polygon fill="black" stroke="black" points="193.42,-455.55 189.92,-445.55 186.42,-455.55 193.42,-455.55"/>
</g>
<!-- :core:logging:api&#45;&gt;:core:coroutines -->
<g id="edge20" class="edge">
<title>:core:logging:api&#45;&gt;:core:coroutines</title>
<path fill="none" stroke="black" d="M715.42,-141.61C715.42,-141.61 715.42,-41.64 715.42,-41.64"/>
<polygon fill="black" stroke="black" points="718.92,-41.64 715.42,-31.64 711.92,-41.64 718.92,-41.64"/>
</g>
<!-- :data:database&#45;&gt;:shared:domain -->
<g id="edge21" class="edge">
<title>:data:database&#45;&gt;:shared:domain</title>
<path fill="none" stroke="black" stroke-dasharray="1,5" d="M328.34,-429C295.64,-429 265.32,-429 265.32,-429 265.32,-429 265.32,-172.61 265.32,-172.61"/>
<polygon fill="black" stroke="black" points="268.82,-172.61 265.32,-162.61 261.82,-172.61 268.82,-172.61"/>
</g>
<!-- :data:database&#45;&gt;:core:coroutines -->
<g id="edge22" class="edge">
<title>:data:database&#45;&gt;:core:coroutines</title>
<path fill="none" stroke="black" stroke-dasharray="1,5" d="M482.96,-423C547.47,-423 630.24,-423 630.24,-423 630.24,-423 630.24,-45.14 630.24,-45.14"/>
<polygon fill="black" stroke="black" points="633.74,-45.14 630.24,-35.14 626.74,-45.14 633.74,-45.14"/>
</g>
<!-- :data:database&#45;&gt;:data:musicbrainz -->
<g id="edge23" class="edge">
<title>:data:database&#45;&gt;:data:musicbrainz</title>
<path fill="none" stroke="black" stroke-dasharray="1,5" d="M446.4,-413.02C446.4,-413.02 446.4,-317.05 446.4,-317.05"/>
<polygon fill="black" stroke="black" points="449.9,-317.05 446.4,-307.05 442.9,-317.05 449.9,-317.05"/>
</g>
<!-- :data:musicbrainz&#45;&gt;:shared:domain -->
<g id="edge24" class="edge">
<title>:data:musicbrainz&#45;&gt;:shared:domain</title>
<path fill="none" stroke="black" stroke-dasharray="1,5" d="M405.13,-292C341.5,-292 268.95,-292 268.95,-292 268.95,-292 268.95,-170.54 268.95,-170.54"/>
<polygon fill="black" stroke="black" points="272.45,-170.54 268.95,-160.54 265.45,-170.54 272.45,-170.54"/>
</g>
<!-- :data:musicbrainz&#45;&gt;:core:logging:api -->
<g id="edge25" class="edge">
<title>:data:musicbrainz&#45;&gt;:core:logging:api</title>
<path fill="none" stroke="black" stroke-dasharray="1,5" d="M587.29,-286C637.1,-286 689.46,-286 689.46,-286 689.46,-286 689.46,-169.66 689.46,-169.66"/>
<polygon fill="black" stroke="black" points="692.96,-169.66 689.46,-159.66 685.96,-169.66 692.96,-169.66"/>
</g>
<!-- :data:coverart&#45;&gt;:shared:domain -->
<g id="edge26" class="edge">
<title>:data:coverart&#45;&gt;:shared:domain</title>
<path fill="none" stroke="black" stroke-dasharray="1,5" d="M562.02,-554C461.13,-554 261.69,-554 261.69,-554 261.69,-554 261.69,-174.08 261.69,-174.08"/>
<polygon fill="black" stroke="black" points="265.19,-174.08 261.69,-164.08 258.19,-174.08 265.19,-174.08"/>
</g>
<!-- :data:coverart&#45;&gt;:test&#45;data -->
<g id="edge29" class="edge">
<title>:data:coverart&#45;&gt;:test&#45;data</title>
<path fill="none" stroke="#ff9ab1" stroke-dasharray="1,5" d="M547.14,-560C529.47,-560 515.51,-560 515.51,-560 515.51,-560 515.51,-679.29 515.51,-679.29"/>
<polygon fill="#ff9ab1" stroke="#ff9ab1" points="512.01,-679.29 515.51,-689.29 519.01,-679.29 512.01,-679.29"/>
</g>
<!-- :data:coverart&#45;&gt;:core:coroutines -->
<g id="edge28" class="edge">
<title>:data:coverart&#45;&gt;:core:coroutines</title>
<path fill="none" stroke="black" stroke-dasharray="1,5" d="M667.85,-552.18C667.85,-552.18 667.85,-46.03 667.85,-46.03"/>
<polygon fill="black" stroke="black" points="671.35,-46.03 667.85,-36.03 664.35,-46.03 671.35,-46.03"/>
</g>
<!-- :data:coverart&#45;&gt;:core:logging:api -->
<g id="edge27" class="edge">
<title>:data:coverart&#45;&gt;:core:logging:api</title>
<path fill="none" stroke="black" stroke-dasharray="1,5" d="M692.28,-561.1C692.28,-561.1 692.28,-171.57 692.28,-171.57"/>
<polygon fill="black" stroke="black" points="695.78,-171.57 692.28,-161.57 688.78,-171.57 695.78,-171.57"/>
</g>
<!-- :data:coverart&#45;&gt;:data:database -->
<g id="edge31" class="edge">
<title>:data:coverart&#45;&gt;:data:database</title>
<path fill="none" stroke="#ff9ab1" stroke-dasharray="1,5" d="M559.55,-554.37C559.55,-522.31 559.55,-435 559.55,-435 559.55,-435 492.91,-435 492.91,-435"/>
<polygon fill="#ff9ab1" stroke="#ff9ab1" points="492.91,-431.5 482.91,-435 492.91,-438.5 492.91,-431.5"/>
</g>
<!-- :data:coverart&#45;&gt;:data:musicbrainz -->
<g id="edge30" class="edge">
<title>:data:coverart&#45;&gt;:data:musicbrainz</title>
<path fill="none" stroke="#ff9ab1" stroke-dasharray="1,5" d="M576.09,-550.88C576.09,-550.88 576.09,-312.41 576.09,-312.41"/>
<polygon fill="#ff9ab1" stroke="#ff9ab1" points="579.59,-312.41 576.09,-302.41 572.59,-312.41 579.59,-312.41"/>
</g>
<!-- :data:spotify&#45;&gt;:shared:domain -->
<g id="edge32" class="edge">
<title>:data:spotify&#45;&gt;:shared:domain</title>
<path fill="none" stroke="black" stroke-dasharray="1,5" d="M728.89,-298C676.45,-298 611.44,-298 611.44,-298 611.44,-298 611.44,-155 611.44,-155 611.44,-155 282.8,-155 282.8,-155"/>
<polygon fill="black" stroke="black" points="282.8,-151.5 272.8,-155 282.8,-158.5 282.8,-151.5"/>
</g>
<!-- :data:spotify&#45;&gt;:core:logging:api -->
<g id="edge33" class="edge">
<title>:data:spotify&#45;&gt;:core:logging:api</title>
<path fill="none" stroke="black" stroke-dasharray="1,5" d="M794.04,-273.81C794.04,-273.81 794.04,-182.83 794.04,-182.83"/>
<polygon fill="black" stroke="black" points="797.54,-182.83 794.04,-172.83 790.54,-182.83 797.54,-182.83"/>
</g>
</g>
</svg>
