<?xml version="1.0" encoding="UTF-8" standalone="no"?>
<!DOCTYPE svg PUBLIC "-//W3C//DTD SVG 1.1//EN"
 "http://www.w3.org/Graphics/SVG/1.1/DTD/svg11.dtd">
<!-- Generated by graphviz version 2.43.0 (0)
 -->
<!-- Title: %3 Pages: 1 -->
<svg width="752pt" height="1077pt"
 viewBox="0.00 0.00 752.24 1077.00" xmlns="http://www.w3.org/2000/svg" xmlns:xlink="http://www.w3.org/1999/xlink">
<g id="graph0" class="graph" transform="scale(1 1) rotate(0) translate(4 1073)">
<title>%3</title>
<polygon fill="white" stroke="transparent" points="-4,4 -4,-1073 748.24,-1073 748.24,4 -4,4"/>
<text text-anchor="middle" x="372.12" y="-1041" font-family="Times,serif" font-size="30.00">Dependencies</text>
<text text-anchor="middle" x="372.12" y="-1008" font-family="Times,serif" font-size="30.00"> </text>
<!-- :android:feature:nowplaying -->
<g id="node1" class="node">
<title>:android:feature:nowplaying</title>
<polygon fill="#9affb5" stroke="black" points="218,-995 0,-995 0,-959 218,-959 218,-995"/>
<text text-anchor="middle" x="109" y="-973.3" font-family="Times,serif" font-size="14.00">:android:feature:nowplaying</text>
</g>
<!-- :shared:domain -->
<g id="node2" class="node">
<title>:shared:domain</title>
<ellipse fill="#b59aff" stroke="black" cx="410" cy="-155" rx="82.59" ry="18"/>
<text text-anchor="middle" x="410" y="-151.3" font-family="Times,serif" font-size="14.00">:shared:domain</text>
</g>
<!-- :android:feature:nowplaying&#45;&gt;:shared:domain -->
<g id="edge1" class="edge">
<title>:android:feature:nowplaying&#45;&gt;:shared:domain</title>
<path fill="none" stroke="black" stroke-dasharray="1,5" d="M209.89,-958.74C209.89,-843.59 209.89,-223 209.89,-223 209.89,-223 370.84,-223 370.84,-223 370.84,-223 370.84,-181.12 370.84,-181.12"/>
<polygon fill="black" stroke="black" points="374.34,-181.12 370.84,-171.12 367.34,-181.12 374.34,-181.12"/>
</g>
<!-- :ui:common -->
<g id="node3" class="node">
<title>:ui:common</title>
<ellipse fill="#b59aff" stroke="black" cx="323" cy="-840" rx="64.19" ry="18"/>
<text text-anchor="middle" x="323" y="-836.3" font-family="Times,serif" font-size="14.00">:ui:common</text>
</g>
<!-- :android:feature:nowplaying&#45;&gt;:ui:common -->
<g id="edge2" class="edge">
<title>:android:feature:nowplaying&#45;&gt;:ui:common</title>
<path fill="none" stroke="black" stroke-dasharray="1,5" d="M213.95,-958.81C213.95,-921.54 213.95,-840 213.95,-840 213.95,-840 248.62,-840 248.62,-840"/>
<polygon fill="black" stroke="black" points="248.62,-843.5 258.62,-840 248.62,-836.5 248.62,-843.5"/>
</g>
<!-- :ui:test:screenshot -->
<g id="node4" class="node">
<title>:ui:test:screenshot</title>
<ellipse fill="#9affb5" stroke="black" cx="109" cy="-703" rx="96.68" ry="18"/>
<text text-anchor="middle" x="109" y="-699.3" font-family="Times,serif" font-size="14.00">:ui:test:screenshot</text>
</g>
<!-- :android:feature:nowplaying&#45;&gt;:ui:test:screenshot -->
<g id="edge3" class="edge">
<title>:android:feature:nowplaying&#45;&gt;:ui:test:screenshot</title>
<path fill="none" stroke="#ff9ab1" stroke-dasharray="1,5" d="M109,-958.6C109,-958.6 109,-731.32 109,-731.32"/>
<polygon fill="#ff9ab1" stroke="#ff9ab1" points="112.5,-731.32 109,-721.32 105.5,-731.32 112.5,-731.32"/>
</g>
<!-- :ui:common&#45;&gt;:shared:domain -->
<g id="edge8" class="edge">
<title>:ui:common&#45;&gt;:shared:domain</title>
<path fill="none" stroke="black" d="M266.49,-831.29C266.49,-751.53 266.49,-151 266.49,-151 266.49,-151 319.44,-151 319.44,-151"/>
<polygon fill="black" stroke="black" points="319.44,-154.5 329.44,-151 319.44,-147.5 319.44,-154.5"/>
</g>
<!-- :ui:common&#45;&gt;:ui:test:screenshot -->
<g id="edge6" class="edge">
<title>:ui:common&#45;&gt;:ui:test:screenshot</title>
<path fill="none" stroke="#ff9ab1" stroke-dasharray="1,5" d="M261.27,-834.86C261.27,-811.1 261.27,-713 261.27,-713 261.27,-713 199.59,-713 199.59,-713"/>
<polygon fill="#ff9ab1" stroke="#ff9ab1" points="199.59,-709.5 189.59,-713 199.59,-716.5 199.59,-709.5"/>
</g>
<!-- :test:image -->
<g id="node5" class="node">
<title>:test:image</title>
<ellipse fill="#9affb5" stroke="black" cx="75" cy="-566" rx="63.09" ry="18"/>
<text text-anchor="middle" x="75" y="-562.3" font-family="Times,serif" font-size="14.00">:test:image</text>
</g>
<!-- :ui:common&#45;&gt;:test:image -->
<g id="edge4" class="edge">
<title>:ui:common&#45;&gt;:test:image</title>
<path fill="none" stroke="black" stroke-dasharray="1,5" d="M262.57,-833.64C262.57,-793.06 262.57,-572 262.57,-572 262.57,-572 144.61,-572 144.61,-572"/>
<polygon fill="black" stroke="black" points="144.61,-568.5 134.61,-572 144.61,-575.5 144.61,-568.5"/>
</g>
<!-- :test&#45;data -->
<g id="node6" class="node">
<title>:test&#45;data</title>
<ellipse fill="#b59aff" stroke="black" cx="375" cy="-703" rx="55.49" ry="18"/>
<text text-anchor="middle" x="375" y="-699.3" font-family="Times,serif" font-size="14.00">:test&#45;data</text>
</g>
<!-- :ui:common&#45;&gt;:test&#45;data -->
<g id="edge5" class="edge">
<title>:ui:common&#45;&gt;:test&#45;data</title>
<path fill="none" stroke="#ff9ab1" stroke-dasharray="1,5" d="M353.55,-824.02C353.55,-824.02 353.55,-729.74 353.55,-729.74"/>
<polygon fill="#ff9ab1" stroke="#ff9ab1" points="357.05,-729.74 353.55,-719.74 350.05,-729.74 357.05,-729.74"/>
</g>
<!-- :core:coroutines -->
<g id="node7" class="node">
<title>:core:coroutines</title>
<ellipse fill="#b59aff" stroke="black" cx="608" cy="-18" rx="85.29" ry="18"/>
<text text-anchor="middle" x="608" y="-14.3" font-family="Times,serif" font-size="14.00">:core:coroutines</text>
</g>
<!-- :ui:common&#45;&gt;:core:coroutines -->
<g id="edge7" class="edge">
<title>:ui:common&#45;&gt;:core:coroutines</title>
<path fill="none" stroke="#ff9ab1" stroke-dasharray="1,5" d="M265.18,-831.92C265.18,-747.18 265.18,-24 265.18,-24 265.18,-24 517.63,-24 517.63,-24"/>
<polygon fill="#ff9ab1" stroke="#ff9ab1" points="517.63,-27.5 527.63,-24 517.63,-20.5 517.63,-27.5"/>
</g>
<!-- :ui:core -->
<g id="node8" class="node">
<title>:ui:core</title>
<ellipse fill="#b59aff" stroke="black" cx="645" cy="-703" rx="45.49" ry="18"/>
<text text-anchor="middle" x="645" y="-699.3" font-family="Times,serif" font-size="14.00">:ui:core</text>
</g>
<!-- :ui:common&#45;&gt;:ui:core -->
<g id="edge9" class="edge">
<title>:ui:common&#45;&gt;:ui:core</title>
<path fill="none" stroke="black" d="M387.39,-840C481.36,-840 645,-840 645,-840 645,-840 645,-731.19 645,-731.19"/>
<polygon fill="black" stroke="black" points="648.5,-731.19 645,-721.19 641.5,-731.19 648.5,-731.19"/>
</g>
<!-- :core:logging:api -->
<g id="node9" class="node">
<title>:core:logging:api</title>
<ellipse fill="#b59aff" stroke="black" cx="166" cy="-155" rx="88.28" ry="18"/>
<text text-anchor="middle" x="166" y="-151.3" font-family="Times,serif" font-size="14.00">:core:logging:api</text>
</g>
<!-- :ui:common&#45;&gt;:core:logging:api -->
<g id="edge10" class="edge">
<title>:ui:common&#45;&gt;:core:logging:api</title>
<path fill="none" stroke="black" stroke-dasharray="1,5" d="M263.88,-832.88C263.88,-760.74 263.88,-165 263.88,-165 263.88,-165 249.68,-165 249.68,-165"/>
<polygon fill="black" stroke="black" points="249.68,-161.5 239.68,-165 249.68,-168.5 249.68,-161.5"/>
</g>
<!-- :ui:test:screenshot&#45;&gt;:test:image -->
<g id="edge11" class="edge">
<title>:ui:test:screenshot&#45;&gt;:test:image</title>
<path fill="none" stroke="black" stroke-dasharray="1,5" d="M75.1,-685.93C75.1,-685.93 75.1,-594.16 75.1,-594.16"/>
<polygon fill="black" stroke="black" points="78.6,-594.16 75.1,-584.16 71.6,-594.16 78.6,-594.16"/>
</g>
<!-- :test&#45;data&#45;&gt;:shared:domain -->
<g id="edge12" class="edge">
<title>:test&#45;data&#45;&gt;:shared:domain</title>
<path fill="none" stroke="black" stroke-dasharray="1,5" d="M321.12,-699C294.96,-699 269.1,-699 269.1,-699 269.1,-699 269.1,-158 269.1,-158 269.1,-158 318.45,-158 318.45,-158"/>
<polygon fill="black" stroke="black" points="318.45,-161.5 328.45,-158 318.45,-154.5 318.45,-161.5"/>
</g>
<!-- :test&#45;data&#45;&gt;:core:coroutines -->
<g id="edge13" class="edge">
<title>:test&#45;data&#45;&gt;:core:coroutines</title>
<path fill="none" stroke="black" stroke-dasharray="1,5" d="M427.45,-709C473.27,-709 532.52,-709 532.52,-709 532.52,-709 532.52,-497 532.52,-497 532.52,-497 636.72,-497 636.72,-497 636.72,-497 636.72,-45.05 636.72,-45.05"/>
<polygon fill="black" stroke="black" points="640.22,-45.05 636.72,-35.05 633.22,-45.05 640.22,-45.05"/>
</g>
<!-- :data:database -->
<g id="node10" class="node">
<title>:data:database</title>
<ellipse fill="#b59aff" stroke="black" cx="501" cy="-429" rx="79.09" ry="18"/>
<text text-anchor="middle" x="501" y="-425.3" font-family="Times,serif" font-size="14.00">:data:database</text>
</g>
<!-- :test&#45;data&#45;&gt;:data:database -->
<g id="edge14" class="edge">
<title>:test&#45;data&#45;&gt;:data:database</title>
<path fill="none" stroke="black" stroke-dasharray="1,5" d="M427.09,-697C461.88,-697 501.28,-697 501.28,-697 501.28,-697 501.28,-457 501.28,-457"/>
<polygon fill="black" stroke="black" points="504.78,-457 501.28,-447 497.78,-457 504.78,-457"/>
</g>
<!-- :data:musicbrainz -->
<g id="node11" class="node">
<title>:data:musicbrainz</title>
<ellipse fill="#b59aff" stroke="black" cx="364" cy="-292" rx="93.68" ry="18"/>
<text text-anchor="middle" x="364" y="-288.3" font-family="Times,serif" font-size="14.00">:data:musicbrainz</text>
</g>
<!-- :test&#45;data&#45;&gt;:data:musicbrainz -->
<g id="edge15" class="edge">
<title>:test&#45;data&#45;&gt;:data:musicbrainz</title>
<path fill="none" stroke="black" stroke-dasharray="1,5" d="M330.81,-692C311.94,-692 294.18,-692 294.18,-692 294.18,-692 294.18,-314.41 294.18,-314.41"/>
<polygon fill="black" stroke="black" points="297.68,-314.41 294.18,-304.41 290.68,-314.41 297.68,-314.41"/>
</g>
<!-- :data:coverart -->
<g id="node12" class="node">
<title>:data:coverart</title>
<ellipse fill="#b59aff" stroke="black" cx="394" cy="-566" rx="76.09" ry="18"/>
<text text-anchor="middle" x="394" y="-562.3" font-family="Times,serif" font-size="14.00">:data:coverart</text>
</g>
<!-- :test&#45;data&#45;&gt;:data:coverart -->
<g id="edge16" class="edge">
<title>:test&#45;data&#45;&gt;:data:coverart</title>
<path fill="none" stroke="black" stroke-dasharray="1,5" d="M356.58,-685.93C356.58,-685.93 356.58,-592.01 356.58,-592.01"/>
<polygon fill="black" stroke="black" points="360.09,-592.01 356.58,-582.01 353.09,-592.01 360.09,-592.01"/>
</g>
<!-- :data:spotify -->
<g id="node13" class="node">
<title>:data:spotify</title>
<ellipse fill="#b59aff" stroke="black" cx="69" cy="-292" rx="68.79" ry="18"/>
<text text-anchor="middle" x="69" y="-288.3" font-family="Times,serif" font-size="14.00">:data:spotify</text>
</g>
<!-- :test&#45;data&#45;&gt;:data:spotify -->
<g id="edge17" class="edge">
<title>:test&#45;data&#45;&gt;:data:spotify</title>
<path fill="none" stroke="black" stroke-dasharray="1,5" d="M320.46,-706C293.97,-706 267.8,-706 267.8,-706 267.8,-706 267.8,-301 267.8,-301 267.8,-301 138.92,-301 138.92,-301"/>
<polygon fill="black" stroke="black" points="138.92,-297.5 128.92,-301 138.92,-304.5 138.92,-297.5"/>
</g>
<!-- :ui:core&#45;&gt;:shared:domain -->
<g id="edge19" class="edge">
<title>:ui:core&#45;&gt;:shared:domain</title>
<path fill="none" stroke="black" stroke-dasharray="1,5" d="M690.55,-703C716.64,-703 744.24,-703 744.24,-703 744.24,-703 744.24,-155 744.24,-155 744.24,-155 502.62,-155 502.62,-155"/>
<polygon fill="black" stroke="black" points="502.62,-151.5 492.62,-155 502.62,-158.5 502.62,-151.5"/>
</g>
<!-- :shared:strings -->
<g id="node14" class="node">
<title>:shared:strings</title>
<ellipse fill="#b59aff" stroke="black" cx="645" cy="-566" rx="81.49" ry="18"/>
<text text-anchor="middle" x="645" y="-562.3" font-family="Times,serif" font-size="14.00">:shared:strings</text>
</g>
<!-- :ui:core&#45;&gt;:shared:strings -->
<g id="edge18" class="edge">
<title>:ui:core&#45;&gt;:shared:strings</title>
<path fill="none" stroke="black" d="M645,-684.81C645,-684.81 645,-594.27 645,-594.27"/>
<polygon fill="black" stroke="black" points="648.5,-594.27 645,-584.27 641.5,-594.27 648.5,-594.27"/>
</g>
<!-- :core:logging:api&#45;&gt;:core:coroutines -->
<g id="edge20" class="edge">
<title>:core:logging:api&#45;&gt;:core:coroutines</title>
<path fill="none" stroke="black" d="M166,-136.89C166,-98.41 166,-12 166,-12 166,-12 517.7,-12 517.7,-12"/>
<polygon fill="black" stroke="black" points="517.7,-15.5 527.7,-12 517.7,-8.5 517.7,-15.5"/>
</g>
<!-- :data:database&#45;&gt;:shared:domain -->
<g id="edge21" class="edge">
<title>:data:database&#45;&gt;:shared:domain</title>
<path fill="none" stroke="black" stroke-dasharray="1,5" d="M480.89,-411.44C480.89,-411.44 480.89,-174.32 480.89,-174.32"/>
<polygon fill="black" stroke="black" points="484.39,-174.32 480.89,-164.32 477.39,-174.32 484.39,-174.32"/>
</g>
<!-- :data:database&#45;&gt;:core:coroutines -->
<g id="edge22" class="edge">
<title>:data:database&#45;&gt;:core:coroutines</title>
<path fill="none" stroke="black" stroke-dasharray="1,5" d="M561.15,-417.14C561.15,-417.14 561.15,-43.26 561.15,-43.26"/>
<polygon fill="black" stroke="black" points="564.65,-43.26 561.15,-33.26 557.65,-43.26 564.65,-43.26"/>
</g>
<!-- :data:database&#45;&gt;:data:musicbrainz -->
<g id="edge23" class="edge">
<title>:data:database&#45;&gt;:data:musicbrainz</title>
<path fill="none" stroke="black" stroke-dasharray="1,5" d="M439.65,-417.32C439.65,-417.32 439.65,-312.89 439.65,-312.89"/>
<polygon fill="black" stroke="black" points="443.15,-312.89 439.65,-302.89 436.15,-312.89 443.15,-312.89"/>
</g>
<!-- :data:musicbrainz&#45;&gt;:shared:domain -->
<g id="edge24" class="edge">
<title>:data:musicbrainz&#45;&gt;:shared:domain</title>
<path fill="none" stroke="black" stroke-dasharray="1,5" d="M414.21,-276.55C414.21,-276.55 414.21,-183.21 414.21,-183.21"/>
<polygon fill="black" stroke="black" points="417.71,-183.21 414.21,-173.21 410.71,-183.21 417.71,-183.21"/>
</g>
<!-- :data:musicbrainz&#45;&gt;:core:logging:api -->
<g id="edge25" class="edge">
<title>:data:musicbrainz&#45;&gt;:core:logging:api</title>
<path fill="none" stroke="black" stroke-dasharray="1,5" d="M282.8,-283C260.47,-283 242.26,-283 242.26,-283 242.26,-283 242.26,-174.21 242.26,-174.21"/>
<polygon fill="black" stroke="black" points="245.76,-174.21 242.26,-164.21 238.76,-174.21 245.76,-174.21"/>
</g>
<!-- :data:coverart&#45;&gt;:shared:domain -->
<g id="edge26" class="edge">
<title>:data:coverart&#45;&gt;:shared:domain</title>
<path fill="none" stroke="black" stroke-dasharray="1,5" d="M369.83,-548.87C369.83,-496.65 369.83,-343 369.83,-343 369.83,-343 469.24,-343 469.24,-343 469.24,-343 469.24,-177.63 469.24,-177.63"/>
<polygon fill="black" stroke="black" points="472.74,-177.63 469.24,-167.63 465.74,-177.63 472.74,-177.63"/>
</g>
<!-- :data:coverart&#45;&gt;:test&#45;data -->
<g id="edge29" class="edge">
<title>:data:coverart&#45;&gt;:test&#45;data</title>
<path fill="none" stroke="#ff9ab1" stroke-dasharray="1,5" d="M393.42,-584.19C393.42,-584.19 393.42,-676.03 393.42,-676.03"/>
<polygon fill="#ff9ab1" stroke="#ff9ab1" points="389.92,-676.03 393.42,-686.03 396.92,-676.03 389.92,-676.03"/>
</g>
<!-- :data:coverart&#45;&gt;:core:coroutines -->
<g id="edge28" class="edge">
<title>:data:coverart&#45;&gt;:core:coroutines</title>
<path fill="none" stroke="black" stroke-dasharray="1,5" d="M395.77,-547.88C395.77,-500.57 395.77,-377 395.77,-377 395.77,-377 542,-377 542,-377 542,-377 542,-39.54 542,-39.54"/>
<polygon fill="black" stroke="black" points="545.5,-39.54 542,-29.54 538.5,-39.54 545.5,-39.54"/>
</g>
<!-- :data:coverart&#45;&gt;:core:logging:api -->
<g id="edge27" class="edge">
<title>:data:coverart&#45;&gt;:core:logging:api</title>
<path fill="none" stroke="black" stroke-dasharray="1,5" d="M322.12,-560C278.09,-560 230.13,-560 230.13,-560 230.13,-560 230.13,-177.56 230.13,-177.56"/>
<polygon fill="black" stroke="black" points="233.63,-177.56 230.13,-167.56 226.63,-177.56 233.63,-177.56"/>
</g>
<!-- :data:coverart&#45;&gt;:data:database -->
<g id="edge31" class="edge">
<title>:data:coverart&#45;&gt;:data:database</title>
<path fill="none" stroke="#ff9ab1" stroke-dasharray="1,5" d="M445.88,-552.61C445.88,-552.61 445.88,-452.24 445.88,-452.24"/>
<polygon fill="#ff9ab1" stroke="#ff9ab1" points="449.38,-452.24 445.88,-442.24 442.38,-452.24 449.38,-452.24"/>
</g>
<!-- :data:coverart&#45;&gt;:data:musicbrainz -->
<g id="edge30" class="edge">
<title>:data:coverart&#45;&gt;:data:musicbrainz</title>
<path fill="none" stroke="#ff9ab1" stroke-dasharray="1,5" d="M343.89,-552.41C343.89,-552.41 343.89,-319.81 343.89,-319.81"/>
<polygon fill="#ff9ab1" stroke="#ff9ab1" points="347.39,-319.81 343.89,-309.81 340.39,-319.81 347.39,-319.81"/>
</g>
<!-- :data:spotify&#45;&gt;:shared:domain -->
<g id="edge32" class="edge">
<title>:data:spotify&#45;&gt;:shared:domain</title>
<path fill="none" stroke="black" stroke-dasharray="1,5" d="M137.94,-292C192.64,-292 259.96,-292 259.96,-292 259.96,-292 259.96,-144 259.96,-144 259.96,-144 334.63,-144 334.63,-144"/>
<polygon fill="black" stroke="black" points="334.63,-147.5 344.63,-144 334.63,-140.5 334.63,-147.5"/>
</g>
<!-- :data:spotify&#45;&gt;:core:logging:api -->
<g id="edge33" class="edge">
<title>:data:spotify&#45;&gt;:core:logging:api</title>
<path fill="none" stroke="black" stroke-dasharray="1,5" d="M107.75,-277.08C107.75,-277.08 107.75,-178.68 107.75,-178.68"/>
<polygon fill="black" stroke="black" points="111.25,-178.68 107.75,-168.68 104.25,-178.68 111.25,-178.68"/>
</g>
</g>
</svg>
