<?xml version="1.0" encoding="UTF-8" standalone="no"?>
<!DOCTYPE svg PUBLIC "-//W3C//DTD SVG 1.1//EN"
 "http://www.w3.org/Graphics/SVG/1.1/DTD/svg11.dtd">
<!-- Generated by graphviz version 2.43.0 (0)
 -->
<!-- Title: %3 Pages: 1 -->
<svg width="1129pt" height="666pt"
 viewBox="0.00 0.00 1129.38 666.00" xmlns="http://www.w3.org/2000/svg" xmlns:xlink="http://www.w3.org/1999/xlink">
<g id="graph0" class="graph" transform="scale(1 1) rotate(0) translate(4 662)">
<title>%3</title>
<polygon fill="white" stroke="transparent" points="-4,4 -4,-662 1125.38,-662 1125.38,4 -4,4"/>
<text text-anchor="middle" x="560.69" y="-630" font-family="Times,serif" font-size="30.00">Dependencies</text>
<text text-anchor="middle" x="560.69" y="-597" font-family="Times,serif" font-size="30.00"> </text>
<!-- :android:feature:nowplaying -->
<g id="node1" class="node">
<title>:android:feature:nowplaying</title>
<ellipse fill="#9affb5" stroke="black" cx="228.54" cy="-566" rx="141.88" ry="18"/>
<text text-anchor="middle" x="228.54" y="-562.3" font-family="Times,serif" font-size="14.00">:android:feature:nowplaying</text>
</g>
<!-- :core:models -->
<g id="node2" class="node">
<title>:core:models</title>
<ellipse fill="#b59aff" stroke="black" cx="193.54" cy="-18" rx="69.59" ry="18"/>
<text text-anchor="middle" x="193.54" y="-14.3" font-family="Times,serif" font-size="14.00">:core:models</text>
</g>
<!-- :android:feature:nowplaying&#45;&gt;:core:models -->
<g id="edge1" class="edge">
<title>:android:feature:nowplaying&#45;&gt;:core:models</title>
<path fill="none" stroke="black" stroke-dasharray="1,5" d="M98.68,-558.58C98.68,-510.05 98.68,-240 98.68,-240 98.68,-240 179.1,-240 179.1,-240 179.1,-240 179.1,-45.79 179.1,-45.79"/>
<polygon fill="black" stroke="black" points="182.6,-45.79 179.1,-35.79 175.6,-45.79 182.6,-45.79"/>
</g>
<!-- :shared:domain -->
<g id="node3" class="node">
<title>:shared:domain</title>
<ellipse fill="#b59aff" stroke="black" cx="82.54" cy="-155" rx="82.59" ry="18"/>
<text text-anchor="middle" x="82.54" y="-151.3" font-family="Times,serif" font-size="14.00">:shared:domain</text>
</g>
<!-- :android:feature:nowplaying&#45;&gt;:shared:domain -->
<g id="edge2" class="edge">
<title>:android:feature:nowplaying&#45;&gt;:shared:domain</title>
<path fill="none" stroke="black" stroke-dasharray="1,5" d="M92.77,-560.8C92.77,-560.8 92.77,-182.88 92.77,-182.88"/>
<polygon fill="black" stroke="black" points="96.27,-182.88 92.77,-172.88 89.27,-182.88 96.27,-182.88"/>
</g>
<!-- :ui:common -->
<g id="node4" class="node">
<title>:ui:common</title>
<ellipse fill="#b59aff" stroke="black" cx="513.54" cy="-429" rx="64.19" ry="18"/>
<text text-anchor="middle" x="513.54" y="-425.3" font-family="Times,serif" font-size="14.00">:ui:common</text>
</g>
<!-- :android:feature:nowplaying&#45;&gt;:ui:common -->
<g id="edge3" class="edge">
<title>:android:feature:nowplaying&#45;&gt;:ui:common</title>
<path fill="none" stroke="black" stroke-dasharray="1,5" d="M344.59,-555.61C344.59,-525.28 344.59,-439 344.59,-439 344.59,-439 449.62,-439 449.62,-439"/>
<polygon fill="black" stroke="black" points="449.62,-442.5 459.62,-439 449.62,-435.5 449.62,-442.5"/>
</g>
<!-- :ui:test:screenshot -->
<g id="node5" class="node">
<title>:ui:test:screenshot</title>
<ellipse fill="#9affb5" stroke="black" cx="1024.54" cy="-292" rx="96.68" ry="18"/>
<text text-anchor="middle" x="1024.54" y="-288.3" font-family="Times,serif" font-size="14.00">:ui:test:screenshot</text>
</g>
<!-- :android:feature:nowplaying&#45;&gt;:ui:test:screenshot -->
<g id="edge4" class="edge">
<title>:android:feature:nowplaying&#45;&gt;:ui:test:screenshot</title>
<path fill="none" stroke="#ff9ab1" stroke-dasharray="1,5" d="M370.46,-566C607.15,-566 1056.82,-566 1056.82,-566 1056.82,-566 1056.82,-319.14 1056.82,-319.14"/>
<polygon fill="#ff9ab1" stroke="#ff9ab1" points="1060.32,-319.14 1056.82,-309.14 1053.32,-319.14 1060.32,-319.14"/>
</g>
<!-- :shared:domain&#45;&gt;:core:models -->
<g id="edge5" class="edge">
<title>:shared:domain&#45;&gt;:core:models</title>
<path fill="none" stroke="black" stroke-dasharray="1,5" d="M134.27,-140.85C134.27,-140.85 134.27,-37.69 134.27,-37.69"/>
<polygon fill="black" stroke="black" points="137.77,-37.69 134.27,-27.69 130.77,-37.7 137.77,-37.69"/>
</g>
<!-- :shared:domain&#45;&gt;:core:models -->
<g id="edge27" class="edge">
<title>:shared:domain&#45;&gt;:core:models</title>
<path fill="none" stroke="black" stroke-dasharray="1,5" d="M144.54,-142.84C144.54,-142.84 144.54,-41.13 144.54,-41.13"/>
<polygon fill="black" stroke="black" points="148.04,-41.13 144.54,-31.13 141.04,-41.13 148.04,-41.13"/>
</g>
<!-- :shared:domain&#45;&gt;:core:models -->
<g id="edge31" class="edge">
<title>:shared:domain&#45;&gt;:core:models</title>
<path fill="none" stroke="black" stroke-dasharray="1,5" d="M154.81,-146.01C154.81,-146.01 154.81,-43.27 154.81,-43.27"/>
<polygon fill="black" stroke="black" points="158.31,-43.27 154.81,-33.27 151.31,-43.27 158.31,-43.27"/>
</g>
<!-- :ui:common&#45;&gt;:core:models -->
<g id="edge7" class="edge">
<title>:ui:common&#45;&gt;:core:models</title>
<path fill="none" stroke="black" d="M515.02,-410.75C515.02,-357.49 515.02,-206 515.02,-206 515.02,-206 207.13,-206 207.13,-206 207.13,-206 207.13,-45.69 207.13,-45.69"/>
<polygon fill="black" stroke="black" points="210.63,-45.69 207.13,-35.69 203.63,-45.69 210.63,-45.69"/>
</g>
<!-- :ui:common&#45;&gt;:shared:domain -->
<g id="edge13" class="edge">
<title>:ui:common&#45;&gt;:shared:domain</title>
<path fill="none" stroke="black" stroke-dasharray="1,5" d="M450.09,-432C335.22,-432 104.59,-432 104.59,-432 104.59,-432 104.59,-182.75 104.59,-182.75"/>
<polygon fill="black" stroke="black" points="108.09,-182.75 104.59,-172.75 101.09,-182.75 108.09,-182.75"/>
</g>
<!-- :ui:common&#45;&gt;:ui:test:screenshot -->
<g id="edge6" class="edge">
<title>:ui:common&#45;&gt;:ui:test:screenshot</title>
<path fill="none" stroke="#ff9ab1" stroke-dasharray="1,5" d="M569.39,-438C695.68,-438 992.26,-438 992.26,-438 992.26,-438 992.26,-319.03 992.26,-319.03"/>
<polygon fill="#ff9ab1" stroke="#ff9ab1" points="995.76,-319.03 992.26,-309.03 988.76,-319.03 995.76,-319.03"/>
</g>
<!-- :ui:core -->
<g id="node6" class="node">
<title>:ui:core</title>
<ellipse fill="#b59aff" stroke="black" cx="898.54" cy="-155" rx="45.49" ry="18"/>
<text text-anchor="middle" x="898.54" y="-151.3" font-family="Times,serif" font-size="14.00">:ui:core</text>
</g>
<!-- :ui:common&#45;&gt;:ui:core -->
<g id="edge8" class="edge">
<title>:ui:common&#45;&gt;:ui:core</title>
<path fill="none" stroke="black" d="M578.16,-429C688.06,-429 899.59,-429 899.59,-429 899.59,-429 899.59,-183.4 899.59,-183.4"/>
<polygon fill="black" stroke="black" points="903.09,-183.4 899.59,-173.4 896.09,-183.4 903.09,-183.4"/>
</g>
<!-- :data:coverart -->
<g id="node7" class="node">
<title>:data:coverart</title>
<ellipse fill="#b59aff" stroke="black" cx="186.54" cy="-292" rx="76.09" ry="18"/>
<text text-anchor="middle" x="186.54" y="-288.3" font-family="Times,serif" font-size="14.00">:data:coverart</text>
</g>
<!-- :ui:common&#45;&gt;:data:coverart -->
<g id="edge9" class="edge">
<title>:ui:common&#45;&gt;:data:coverart</title>
<path fill="none" stroke="black" stroke-dasharray="1,5" d="M450.49,-425C355.47,-425 186.54,-425 186.54,-425 186.54,-425 186.54,-320.21 186.54,-320.21"/>
<polygon fill="black" stroke="black" points="190.04,-320.21 186.54,-310.21 183.04,-320.21 190.04,-320.21"/>
</g>
<!-- :data:musicbrainz -->
<g id="node8" class="node">
<title>:data:musicbrainz</title>
<ellipse fill="#b59aff" stroke="black" cx="412.54" cy="-292" rx="93.68" ry="18"/>
<text text-anchor="middle" x="412.54" y="-288.3" font-family="Times,serif" font-size="14.00">:data:musicbrainz</text>
</g>
<!-- :ui:common&#45;&gt;:data:musicbrainz -->
<g id="edge10" class="edge">
<title>:ui:common&#45;&gt;:data:musicbrainz</title>
<path fill="none" stroke="black" stroke-dasharray="1,5" d="M477.67,-413.82C477.67,-413.82 477.67,-315.22 477.67,-315.22"/>
<polygon fill="black" stroke="black" points="481.17,-315.22 477.67,-305.22 474.17,-315.22 481.17,-315.22"/>
</g>
<!-- :core:preferences -->
<g id="node9" class="node">
<title>:core:preferences</title>
<ellipse fill="#b59aff" stroke="black" cx="615.54" cy="-292" rx="91.78" ry="18"/>
<text text-anchor="middle" x="615.54" y="-288.3" font-family="Times,serif" font-size="14.00">:core:preferences</text>
</g>
<!-- :ui:common&#45;&gt;:core:preferences -->
<g id="edge11" class="edge">
<title>:ui:common&#45;&gt;:core:preferences</title>
<path fill="none" stroke="black" stroke-dasharray="1,5" d="M550.89,-414.34C550.89,-414.34 550.89,-314.94 550.89,-314.94"/>
<polygon fill="black" stroke="black" points="554.39,-314.94 550.89,-304.94 547.39,-314.94 554.39,-314.94"/>
</g>
<!-- :core:logging:api -->
<g id="node10" class="node">
<title>:core:logging:api</title>
<ellipse fill="#b59aff" stroke="black" cx="309.54" cy="-155" rx="88.28" ry="18"/>
<text text-anchor="middle" x="309.54" y="-151.3" font-family="Times,serif" font-size="14.00">:core:logging:api</text>
</g>
<!-- :ui:common&#45;&gt;:core:logging:api -->
<g id="edge12" class="edge">
<title>:ui:common&#45;&gt;:core:logging:api</title>
<path fill="none" stroke="black" stroke-dasharray="1,5" d="M462.43,-418C396.66,-418 290.77,-418 290.77,-418 290.77,-418 290.77,-182.66 290.77,-182.66"/>
<polygon fill="black" stroke="black" points="294.27,-182.66 290.77,-172.66 287.27,-182.66 294.27,-182.66"/>
</g>
<!-- :ui:image -->
<g id="node11" class="node">
<title>:ui:image</title>
<ellipse fill="#b59aff" stroke="black" cx="817.54" cy="-292" rx="53.89" ry="18"/>
<text text-anchor="middle" x="817.54" y="-288.3" font-family="Times,serif" font-size="14.00">:ui:image</text>
</g>
<!-- :ui:common&#45;&gt;:ui:image -->
<g id="edge14" class="edge">
<title>:ui:common&#45;&gt;:ui:image</title>
<path fill="none" stroke="black" stroke-dasharray="1,5" d="M569.3,-420C657.06,-420 817.54,-420 817.54,-420 817.54,-420 817.54,-320.07 817.54,-320.07"/>
<polygon fill="black" stroke="black" points="821.04,-320.07 817.54,-310.07 814.04,-320.07 821.04,-320.07"/>
</g>
<!-- :ui:test:screenshot&#45;&gt;:ui:core -->
<g id="edge15" class="edge">
<title>:ui:test:screenshot&#45;&gt;:ui:core</title>
<path fill="none" stroke="black" stroke-dasharray="1,5" d="M933.15,-285.76C933.15,-285.76 933.15,-176.76 933.15,-176.76"/>
<polygon fill="black" stroke="black" points="936.65,-176.76 933.15,-166.76 929.65,-176.76 936.65,-176.76"/>
</g>
<!-- :ui:test:screenshot&#45;&gt;:ui:core -->
<g id="edge17" class="edge">
<title>:ui:test:screenshot&#45;&gt;:ui:core</title>
<path fill="none" stroke="black" stroke-dasharray="1,5" d="M938.59,-283.43C938.59,-283.43 938.59,-173.57 938.59,-173.57"/>
<polygon fill="black" stroke="black" points="942.09,-173.57 938.59,-163.57 935.09,-173.57 942.09,-173.57"/>
</g>
<!-- :test:image -->
<g id="node12" class="node">
<title>:test:image</title>
<ellipse fill="#9affb5" stroke="black" cx="1025.54" cy="-155" rx="63.09" ry="18"/>
<text text-anchor="middle" x="1025.54" y="-151.3" font-family="Times,serif" font-size="14.00">:test:image</text>
</g>
<!-- :ui:test:screenshot&#45;&gt;:test:image -->
<g id="edge16" class="edge">
<title>:ui:test:screenshot&#45;&gt;:test:image</title>
<path fill="none" stroke="black" stroke-dasharray="1,5" d="M1004.53,-274.37C1004.53,-274.37 1004.53,-182.13 1004.53,-182.13"/>
<polygon fill="black" stroke="black" points="1008.03,-182.13 1004.53,-172.13 1001.03,-182.13 1008.03,-182.13"/>
</g>
<!-- :ui:test:screenshot&#45;&gt;:test:image -->
<g id="edge18" class="edge">
<title>:ui:test:screenshot&#45;&gt;:test:image</title>
<path fill="none" stroke="black" stroke-dasharray="1,5" d="M1046.56,-274.37C1046.56,-274.37 1046.56,-182.13 1046.56,-182.13"/>
<polygon fill="black" stroke="black" points="1050.06,-182.13 1046.56,-172.13 1043.06,-182.13 1050.06,-182.13"/>
</g>
<!-- :shared:strings -->
<g id="node13" class="node">
<title>:shared:strings</title>
<ellipse fill="#b59aff" stroke="black" cx="898.54" cy="-18" rx="81.49" ry="18"/>
<text text-anchor="middle" x="898.54" y="-14.3" font-family="Times,serif" font-size="14.00">:shared:strings</text>
</g>
<!-- :ui:core&#45;&gt;:shared:strings -->
<g id="edge19" class="edge">
<title>:ui:core&#45;&gt;:shared:strings</title>
<path fill="none" stroke="black" d="M875.79,-139.28C875.79,-139.28 875.79,-45.69 875.79,-45.69"/>
<polygon fill="black" stroke="black" points="879.29,-45.69 875.79,-35.69 872.29,-45.69 879.29,-45.69"/>
</g>
<!-- :ui:core&#45;&gt;:shared:strings -->
<g id="edge30" class="edge">
<title>:ui:core&#45;&gt;:shared:strings</title>
<path fill="none" stroke="black" d="M898.54,-136.81C898.54,-136.81 898.54,-46.27 898.54,-46.27"/>
<polygon fill="black" stroke="black" points="902.04,-46.27 898.54,-36.27 895.04,-46.27 902.04,-46.27"/>
</g>
<!-- :ui:core&#45;&gt;:shared:strings -->
<g id="edge32" class="edge">
<title>:ui:core&#45;&gt;:shared:strings</title>
<path fill="none" stroke="black" d="M921.29,-139.28C921.29,-139.28 921.29,-45.69 921.29,-45.69"/>
<polygon fill="black" stroke="black" points="924.79,-45.69 921.29,-35.69 917.79,-45.69 924.79,-45.69"/>
</g>
<!-- :data:coverart&#45;&gt;:core:models -->
<g id="edge21" class="edge">
<title>:data:coverart&#45;&gt;:core:models</title>
<path fill="none" stroke="black" stroke-dasharray="1,5" d="M193.12,-274.02C193.12,-274.02 193.12,-46.04 193.12,-46.04"/>
<polygon fill="black" stroke="black" points="196.62,-46.04 193.12,-36.04 189.62,-46.04 196.62,-46.04"/>
</g>
<!-- :data:coverart&#45;&gt;:shared:domain -->
<g id="edge22" class="edge">
<title>:data:coverart&#45;&gt;:shared:domain</title>
<path fill="none" stroke="black" stroke-dasharray="1,5" d="M137.79,-278.11C137.79,-278.11 137.79,-178.52 137.79,-178.52"/>
<polygon fill="black" stroke="black" points="141.29,-178.52 137.79,-168.52 134.29,-178.52 141.29,-178.52"/>
</g>
<!-- :data:coverart&#45;&gt;:core:logging:api -->
<g id="edge20" class="edge">
<title>:data:coverart&#45;&gt;:core:logging:api</title>
<path fill="none" stroke="black" stroke-dasharray="1,5" d="M241.87,-279.36C241.87,-279.36 241.87,-176.83 241.87,-176.83"/>
<polygon fill="black" stroke="black" points="245.37,-176.83 241.87,-166.83 238.37,-176.83 245.37,-176.83"/>
</g>
<!-- :data:musicbrainz&#45;&gt;:core:models -->
<g id="edge24" class="edge">
<title>:data:musicbrainz&#45;&gt;:core:models</title>
<path fill="none" stroke="black" stroke-dasharray="1,5" d="M425.67,-273.79C425.67,-213.91 425.67,-27 425.67,-27 425.67,-27 263.92,-27 263.92,-27"/>
<polygon fill="black" stroke="black" points="263.92,-23.5 253.92,-27 263.92,-30.5 263.92,-23.5"/>
</g>
<!-- :data:musicbrainz&#45;&gt;:core:logging:api -->
<g id="edge23" class="edge">
<title>:data:musicbrainz&#45;&gt;:core:logging:api</title>
<path fill="none" stroke="black" stroke-dasharray="1,5" d="M358.44,-277.08C358.44,-277.08 358.44,-180.32 358.44,-180.32"/>
<polygon fill="black" stroke="black" points="361.94,-180.32 358.44,-170.32 354.94,-180.32 361.94,-180.32"/>
</g>
<!-- :core:preferences&#45;&gt;:core:models -->
<g id="edge26" class="edge">
<title>:core:preferences&#45;&gt;:core:models</title>
<path fill="none" stroke="black" stroke-dasharray="1,5" d="M665.43,-276.88C665.43,-219.44 665.43,-18 665.43,-18 665.43,-18 273.17,-18 273.17,-18"/>
<polygon fill="black" stroke="black" points="273.17,-14.5 263.17,-18 273.17,-21.5 273.17,-14.5"/>
</g>
<!-- :core:coroutines -->
<g id="node14" class="node">
<title>:core:coroutines</title>
<ellipse fill="#b59aff" stroke="black" cx="538.54" cy="-155" rx="85.29" ry="18"/>
<text text-anchor="middle" x="538.54" y="-151.3" font-family="Times,serif" font-size="14.00">:core:coroutines</text>
</g>
<!-- :core:preferences&#45;&gt;:core:coroutines -->
<g id="edge25" class="edge">
<title>:core:preferences&#45;&gt;:core:coroutines</title>
<path fill="none" stroke="black" stroke-dasharray="1,5" d="M573.79,-275.75C573.79,-275.75 573.79,-181.66 573.79,-181.66"/>
<polygon fill="black" stroke="black" points="577.29,-181.66 573.79,-171.66 570.29,-181.66 577.29,-181.66"/>
</g>
<!-- :ui:image&#45;&gt;:core:models -->
<g id="edge28" class="edge">
<title>:ui:image&#45;&gt;:core:models</title>
<path fill="none" stroke="black" stroke-dasharray="1,5" d="M790.45,-276.38C790.45,-217.05 790.45,-9 790.45,-9 790.45,-9 263.79,-9 263.79,-9"/>
<polygon fill="black" stroke="black" points="263.79,-5.5 253.79,-9 263.79,-12.5 263.79,-5.5"/>
</g>
<!-- :ui:image&#45;&gt;:ui:core -->
<g id="edge29" class="edge">
<title>:ui:image&#45;&gt;:ui:core</title>
<path fill="none" stroke="black" stroke-dasharray="1,5" d="M862.27,-281.7C862.27,-281.7 862.27,-176.18 862.27,-176.18"/>
<polygon fill="black" stroke="black" points="865.77,-176.18 862.27,-166.18 858.77,-176.18 865.77,-176.18"/>
</g>
</g>
</svg>
