<?xml version="1.0" encoding="UTF-8" standalone="no"?>
<!DOCTYPE svg PUBLIC "-//W3C//DTD SVG 1.1//EN"
 "http://www.w3.org/Graphics/SVG/1.1/DTD/svg11.dtd">
<!-- Generated by graphviz version 2.43.0 (0)
 -->
<!-- Title: %3 Pages: 1 -->
<svg width="1299pt" height="666pt"
 viewBox="0.00 0.00 1298.94 666.00" xmlns="http://www.w3.org/2000/svg" xmlns:xlink="http://www.w3.org/1999/xlink">
<g id="graph0" class="graph" transform="scale(1 1) rotate(0) translate(4 662)">
<title>%3</title>
<polygon fill="white" stroke="transparent" points="-4,4 -4,-662 1294.94,-662 1294.94,4 -4,4"/>
<text text-anchor="middle" x="645.47" y="-630" font-family="Times,serif" font-size="30.00">Dependencies</text>
<text text-anchor="middle" x="645.47" y="-597" font-family="Times,serif" font-size="30.00"> </text>
<!-- :android:feature:nowplaying -->
<g id="node1" class="node">
<title>:android:feature:nowplaying</title>
<polygon fill="#9affb5" stroke="black" points="1134.1,-584 916.1,-584 916.1,-548 1134.1,-548 1134.1,-584"/>
<text text-anchor="middle" x="1025.1" y="-562.3" font-family="Times,serif" font-size="14.00">:android:feature:nowplaying</text>
</g>
<!-- :core:models -->
<g id="node2" class="node">
<title>:core:models</title>
<ellipse fill="#b59aff" stroke="black" cx="352.1" cy="-18" rx="69.59" ry="18"/>
<text text-anchor="middle" x="352.1" y="-14.3" font-family="Times,serif" font-size="14.00">:core:models</text>
</g>
<!-- :android:feature:nowplaying&#45;&gt;:core:models -->
<g id="edge1" class="edge">
<title>:android:feature:nowplaying&#45;&gt;:core:models</title>
<path fill="none" stroke="black" stroke-dasharray="1,5" d="M1026.59,-547.97C1026.59,-451.95 1026.59,-5 1026.59,-5 1026.59,-5 410.33,-5 410.33,-5"/>
<polygon fill="black" stroke="black" points="410.33,-1.5 400.33,-5 410.33,-8.5 410.33,-1.5"/>
</g>
<!-- :domain -->
<g id="node3" class="node">
<title>:domain</title>
<ellipse fill="#b59aff" stroke="black" cx="48.1" cy="-155" rx="48.19" ry="18"/>
<text text-anchor="middle" x="48.1" y="-151.3" font-family="Times,serif" font-size="14.00">:domain</text>
</g>
<!-- :android:feature:nowplaying&#45;&gt;:domain -->
<g id="edge2" class="edge">
<title>:android:feature:nowplaying&#45;&gt;:domain</title>
<path fill="none" stroke="black" stroke-dasharray="1,5" d="M915.67,-566C656.12,-566 24.82,-566 24.82,-566 24.82,-566 24.82,-180.86 24.82,-180.86"/>
<polygon fill="black" stroke="black" points="28.32,-180.86 24.82,-170.86 21.32,-180.86 28.32,-180.86"/>
</g>
<!-- :strings -->
<g id="node4" class="node">
<title>:strings</title>
<ellipse fill="#b59aff" stroke="black" cx="1149.1" cy="-18" rx="46.29" ry="18"/>
<text text-anchor="middle" x="1149.1" y="-14.3" font-family="Times,serif" font-size="14.00">:strings</text>
</g>
<!-- :android:feature:nowplaying&#45;&gt;:strings -->
<g id="edge3" class="edge">
<title>:android:feature:nowplaying&#45;&gt;:strings</title>
<path fill="none" stroke="black" stroke-dasharray="1,5" d="M1050.15,-547.86C1050.15,-454.23 1050.15,-30 1050.15,-30 1050.15,-30 1104.49,-30 1104.49,-30"/>
<polygon fill="black" stroke="black" points="1104.49,-33.5 1114.49,-30 1104.49,-26.5 1104.49,-33.5"/>
</g>
<!-- :ui:common -->
<g id="node5" class="node">
<title>:ui:common</title>
<ellipse fill="#b59aff" stroke="black" cx="801.1" cy="-429" rx="64.19" ry="18"/>
<text text-anchor="middle" x="801.1" y="-425.3" font-family="Times,serif" font-size="14.00">:ui:common</text>
</g>
<!-- :android:feature:nowplaying&#45;&gt;:ui:common -->
<g id="edge4" class="edge">
<title>:android:feature:nowplaying&#45;&gt;:ui:common</title>
<path fill="none" stroke="black" stroke-dasharray="1,5" d="M959.57,-547.93C959.57,-512.65 959.57,-438 959.57,-438 959.57,-438 866.97,-438 866.97,-438"/>
<polygon fill="black" stroke="black" points="866.97,-434.5 856.97,-438 866.97,-441.5 866.97,-434.5"/>
</g>
<!-- :ui:core -->
<g id="node6" class="node">
<title>:ui:core</title>
<ellipse fill="#b59aff" stroke="black" cx="1149.1" cy="-155" rx="45.49" ry="18"/>
<text text-anchor="middle" x="1149.1" y="-151.3" font-family="Times,serif" font-size="14.00">:ui:core</text>
</g>
<!-- :android:feature:nowplaying&#45;&gt;:ui:core -->
<g id="edge5" class="edge">
<title>:android:feature:nowplaying&#45;&gt;:ui:core</title>
<path fill="none" stroke="black" stroke-dasharray="1,5" d="M1073.7,-547.99C1073.7,-469.96 1073.7,-165 1073.7,-165 1073.7,-165 1100.96,-165 1100.96,-165"/>
<polygon fill="black" stroke="black" points="1100.96,-168.5 1110.96,-165 1100.96,-161.5 1100.96,-168.5"/>
</g>
<!-- :ui:test:screenshot -->
<g id="node7" class="node">
<title>:ui:test:screenshot</title>
<ellipse fill="#9affb5" stroke="black" cx="1194.1" cy="-292" rx="96.68" ry="18"/>
<text text-anchor="middle" x="1194.1" y="-288.3" font-family="Times,serif" font-size="14.00">:ui:test:screenshot</text>
</g>
<!-- :android:feature:nowplaying&#45;&gt;:ui:test:screenshot -->
<g id="edge6" class="edge">
<title>:android:feature:nowplaying&#45;&gt;:ui:test:screenshot</title>
<path fill="none" stroke="#ff9ab1" stroke-dasharray="1,5" d="M1121.82,-547.6C1121.82,-547.6 1121.82,-314.06 1121.82,-314.06"/>
<polygon fill="#ff9ab1" stroke="#ff9ab1" points="1125.32,-314.06 1121.82,-304.06 1118.32,-314.06 1125.32,-314.06"/>
</g>
<!-- :domain&#45;&gt;:core:models -->
<g id="edge7" class="edge">
<title>:domain&#45;&gt;:core:models</title>
<path fill="none" stroke="black" stroke-dasharray="1,5" d="M48.1,-136.89C48.1,-98.41 48.1,-12 48.1,-12 48.1,-12 276.51,-12 276.51,-12"/>
<polygon fill="black" stroke="black" points="276.51,-15.5 286.51,-12 276.51,-8.5 276.51,-15.5"/>
</g>
<!-- :ui:common&#45;&gt;:core:models -->
<g id="edge10" class="edge">
<title>:ui:common&#45;&gt;:core:models</title>
<path fill="none" stroke="black" d="M845.38,-415.69C845.38,-344.83 845.38,-15 845.38,-15 845.38,-15 430.68,-15 430.68,-15"/>
<polygon fill="black" stroke="black" points="430.68,-11.5 420.68,-15 430.68,-18.5 430.68,-11.5"/>
</g>
<!-- :ui:common&#45;&gt;:domain -->
<g id="edge15" class="edge">
<title>:ui:common&#45;&gt;:domain</title>
<path fill="none" stroke="black" stroke-dasharray="1,5" d="M752.95,-441C587.09,-441 49.64,-441 49.64,-441 49.64,-441 49.64,-183.33 49.64,-183.33"/>
<polygon fill="black" stroke="black" points="53.14,-183.33 49.64,-173.33 46.14,-183.33 53.14,-183.33"/>
</g>
<!-- :ui:common&#45;&gt;:strings -->
<g id="edge16" class="edge">
<title>:ui:common&#45;&gt;:strings</title>
<path fill="none" stroke="black" stroke-dasharray="1,5" d="M852.06,-417.77C852.06,-352.52 852.06,-25 852.06,-25 852.06,-25 1096.54,-25 1096.54,-25"/>
<polygon fill="black" stroke="black" points="1096.54,-28.5 1106.54,-25 1096.54,-21.5 1096.54,-28.5"/>
</g>
<!-- :ui:common&#45;&gt;:ui:core -->
<g id="edge17" class="edge">
<title>:ui:common&#45;&gt;:ui:core</title>
<path fill="none" stroke="black" stroke-dasharray="1,5" d="M858.75,-420.78C858.75,-374.05 858.75,-144 858.75,-144 858.75,-144 1102.91,-144 1102.91,-144"/>
<polygon fill="black" stroke="black" points="1102.91,-147.5 1112.91,-144 1102.91,-140.5 1102.91,-147.5"/>
</g>
<!-- :ui:common&#45;&gt;:ui:test:screenshot -->
<g id="edge9" class="edge">
<title>:ui:common&#45;&gt;:ui:test:screenshot</title>
<path fill="none" stroke="#ff9ab1" stroke-dasharray="1,5" d="M865.75,-429C956.2,-429 1109.53,-429 1109.53,-429 1109.53,-429 1109.53,-310.99 1109.53,-310.99"/>
<polygon fill="#ff9ab1" stroke="#ff9ab1" points="1113.03,-310.99 1109.53,-300.99 1106.03,-310.99 1113.03,-310.99"/>
</g>
<!-- :ui:test:image -->
<g id="node8" class="node">
<title>:ui:test:image</title>
<ellipse fill="#9affb5" stroke="black" cx="559.1" cy="-292" rx="74.99" ry="18"/>
<text text-anchor="middle" x="559.1" y="-288.3" font-family="Times,serif" font-size="14.00">:ui:test:image</text>
</g>
<!-- :ui:common&#45;&gt;:ui:test:image -->
<g id="edge8" class="edge">
<title>:ui:common&#45;&gt;:ui:test:image</title>
<path fill="none" stroke="#ff9ab1" stroke-dasharray="1,5" d="M752.99,-417C682.42,-417 559.1,-417 559.1,-417 559.1,-417 559.1,-320.18 559.1,-320.18"/>
<polygon fill="#ff9ab1" stroke="#ff9ab1" points="562.6,-320.18 559.1,-310.18 555.6,-320.18 562.6,-320.18"/>
</g>
<!-- :data:coverart -->
<g id="node9" class="node">
<title>:data:coverart</title>
<ellipse fill="#b59aff" stroke="black" cx="352.1" cy="-292" rx="76.09" ry="18"/>
<text text-anchor="middle" x="352.1" y="-288.3" font-family="Times,serif" font-size="14.00">:data:coverart</text>
</g>
<!-- :ui:common&#45;&gt;:data:coverart -->
<g id="edge11" class="edge">
<title>:ui:common&#45;&gt;:data:coverart</title>
<path fill="none" stroke="black" stroke-dasharray="1,5" d="M736.29,-429C611.94,-429 352.1,-429 352.1,-429 352.1,-429 352.1,-320.19 352.1,-320.19"/>
<polygon fill="black" stroke="black" points="355.6,-320.19 352.1,-310.19 348.6,-320.19 355.6,-320.19"/>
</g>
<!-- :data:musicbrainz -->
<g id="node10" class="node">
<title>:data:musicbrainz</title>
<ellipse fill="#b59aff" stroke="black" cx="745.1" cy="-292" rx="93.68" ry="18"/>
<text text-anchor="middle" x="745.1" y="-288.3" font-family="Times,serif" font-size="14.00">:data:musicbrainz</text>
</g>
<!-- :ui:common&#45;&gt;:data:musicbrainz -->
<g id="edge12" class="edge">
<title>:ui:common&#45;&gt;:data:musicbrainz</title>
<path fill="none" stroke="black" stroke-dasharray="1,5" d="M787.72,-411.37C787.72,-411.37 787.72,-318.28 787.72,-318.28"/>
<polygon fill="black" stroke="black" points="791.22,-318.28 787.72,-308.28 784.22,-318.28 791.22,-318.28"/>
</g>
<!-- :core:preferences -->
<g id="node11" class="node">
<title>:core:preferences</title>
<ellipse fill="#b59aff" stroke="black" cx="166.1" cy="-292" rx="91.78" ry="18"/>
<text text-anchor="middle" x="166.1" y="-288.3" font-family="Times,serif" font-size="14.00">:core:preferences</text>
</g>
<!-- :ui:common&#45;&gt;:core:preferences -->
<g id="edge13" class="edge">
<title>:ui:common&#45;&gt;:core:preferences</title>
<path fill="none" stroke="black" stroke-dasharray="1,5" d="M740.21,-435C581.27,-435 166.1,-435 166.1,-435 166.1,-435 166.1,-320.11 166.1,-320.11"/>
<polygon fill="black" stroke="black" points="169.6,-320.11 166.1,-310.11 162.6,-320.11 169.6,-320.11"/>
</g>
<!-- :core:logging:api -->
<g id="node12" class="node">
<title>:core:logging:api</title>
<ellipse fill="#b59aff" stroke="black" cx="468.1" cy="-155" rx="88.28" ry="18"/>
<text text-anchor="middle" x="468.1" y="-151.3" font-family="Times,serif" font-size="14.00">:core:logging:api</text>
</g>
<!-- :ui:common&#45;&gt;:core:logging:api -->
<g id="edge14" class="edge">
<title>:ui:common&#45;&gt;:core:logging:api</title>
<path fill="none" stroke="black" stroke-dasharray="1,5" d="M740.24,-423C641.24,-423 456.25,-423 456.25,-423 456.25,-423 456.25,-183 456.25,-183"/>
<polygon fill="black" stroke="black" points="459.75,-183 456.25,-173 452.75,-183 459.75,-183"/>
</g>
<!-- :ui:image -->
<g id="node13" class="node">
<title>:ui:image</title>
<ellipse fill="#b59aff" stroke="black" cx="949.1" cy="-292" rx="53.89" ry="18"/>
<text text-anchor="middle" x="949.1" y="-288.3" font-family="Times,serif" font-size="14.00">:ui:image</text>
</g>
<!-- :ui:common&#45;&gt;:ui:image -->
<g id="edge18" class="edge">
<title>:ui:common&#45;&gt;:ui:image</title>
<path fill="none" stroke="black" stroke-dasharray="1,5" d="M857.03,-420C881.88,-420 905.62,-420 905.62,-420 905.62,-420 905.62,-312.91 905.62,-312.91"/>
<polygon fill="black" stroke="black" points="909.12,-312.91 905.62,-302.91 902.12,-312.91 909.12,-312.91"/>
</g>
<!-- :ui:core&#45;&gt;:strings -->
<g id="edge19" class="edge">
<title>:ui:core&#45;&gt;:strings</title>
<path fill="none" stroke="black" d="M1149.1,-136.81C1149.1,-136.81 1149.1,-46.27 1149.1,-46.27"/>
<polygon fill="black" stroke="black" points="1152.6,-46.27 1149.1,-36.27 1145.6,-46.27 1152.6,-46.27"/>
</g>
<!-- :ui:test:screenshot&#45;&gt;:ui:core -->
<g id="edge20" class="edge">
<title>:ui:test:screenshot&#45;&gt;:ui:core</title>
<path fill="none" stroke="black" stroke-dasharray="1,5" d="M1149.1,-276.02C1149.1,-276.02 1149.1,-183.05 1149.1,-183.05"/>
<polygon fill="black" stroke="black" points="1152.6,-183.05 1149.1,-173.05 1145.6,-183.05 1152.6,-183.05"/>
</g>
<!-- :data:coverart&#45;&gt;:core:models -->
<g id="edge22" class="edge">
<title>:data:coverart&#45;&gt;:core:models</title>
<path fill="none" stroke="black" stroke-dasharray="1,5" d="M351.97,-273.6C351.97,-273.6 351.97,-46.32 351.97,-46.32"/>
<polygon fill="black" stroke="black" points="355.47,-46.32 351.97,-36.32 348.47,-46.32 355.47,-46.32"/>
</g>
<!-- :data:coverart&#45;&gt;:domain -->
<g id="edge23" class="edge">
<title>:data:coverart&#45;&gt;:domain</title>
<path fill="none" stroke="black" stroke-dasharray="1,5" d="M300.15,-278.7C300.15,-258.65 300.15,-223 300.15,-223 300.15,-223 85.32,-223 85.32,-223 85.32,-223 85.32,-176.54 85.32,-176.54"/>
<polygon fill="black" stroke="black" points="88.82,-176.54 85.32,-166.54 81.82,-176.54 88.82,-176.54"/>
</g>
<!-- :data:coverart&#45;&gt;:core:logging:api -->
<g id="edge21" class="edge">
<title>:data:coverart&#45;&gt;:core:logging:api</title>
<path fill="none" stroke="black" stroke-dasharray="1,5" d="M403.92,-278.61C403.92,-278.61 403.92,-177.44 403.92,-177.44"/>
<polygon fill="black" stroke="black" points="407.42,-177.44 403.92,-167.44 400.42,-177.44 407.42,-177.44"/>
</g>
<!-- :data:musicbrainz&#45;&gt;:core:models -->
<g id="edge25" class="edge">
<title>:data:musicbrainz&#45;&gt;:core:models</title>
<path fill="none" stroke="black" stroke-dasharray="1,5" d="M776.29,-274.99C776.29,-215.44 776.29,-20 776.29,-20 776.29,-20 431.67,-20 431.67,-20"/>
<polygon fill="black" stroke="black" points="431.67,-16.5 421.67,-20 431.67,-23.5 431.67,-16.5"/>
</g>
<!-- :data:musicbrainz&#45;&gt;:core:logging:api -->
<g id="edge24" class="edge">
<title>:data:musicbrainz&#45;&gt;:core:logging:api</title>
<path fill="none" stroke="black" stroke-dasharray="1,5" d="M713.9,-275.03C713.9,-238.97 713.9,-158 713.9,-158 713.9,-158 565.45,-158 565.45,-158"/>
<polygon fill="black" stroke="black" points="565.45,-154.5 555.45,-158 565.45,-161.5 565.45,-154.5"/>
</g>
<!-- :core:preferences&#45;&gt;:core:models -->
<g id="edge27" class="edge">
<title>:core:preferences&#45;&gt;:core:models</title>
<path fill="none" stroke="black" stroke-dasharray="1,5" d="M125.07,-275.64C125.07,-217.45 125.07,-24 125.07,-24 125.07,-24 276.43,-24 276.43,-24"/>
<polygon fill="black" stroke="black" points="276.43,-27.5 286.43,-24 276.43,-20.5 276.43,-27.5"/>
</g>
<!-- :core:coroutines -->
<g id="node14" class="node">
<title>:core:coroutines</title>
<ellipse fill="#b59aff" stroke="black" cx="239.1" cy="-155" rx="85.29" ry="18"/>
<text text-anchor="middle" x="239.1" y="-151.3" font-family="Times,serif" font-size="14.00">:core:coroutines</text>
</g>
<!-- :core:preferences&#45;&gt;:core:coroutines -->
<g id="edge26" class="edge">
<title>:core:preferences&#45;&gt;:core:coroutines</title>
<path fill="none" stroke="black" stroke-dasharray="1,5" d="M205.85,-275.75C205.85,-275.75 205.85,-181.66 205.85,-181.66"/>
<polygon fill="black" stroke="black" points="209.35,-181.66 205.85,-171.66 202.35,-181.66 209.35,-181.66"/>
</g>
<!-- :ui:image&#45;&gt;:core:models -->
<g id="edge28" class="edge">
<title>:ui:image&#45;&gt;:core:models</title>
<path fill="none" stroke="black" stroke-dasharray="1,5" d="M931.11,-274.78C931.11,-213.56 931.11,-10 931.11,-10 931.11,-10 424.61,-10 424.61,-10"/>
<polygon fill="black" stroke="black" points="424.61,-6.5 414.61,-10 424.61,-13.5 424.61,-6.5"/>
</g>
<!-- :ui:image&#45;&gt;:ui:core -->
<g id="edge29" class="edge">
<title>:ui:image&#45;&gt;:ui:core</title>
<path fill="none" stroke="black" stroke-dasharray="1,5" d="M967.08,-274.99C967.08,-237.49 967.08,-151 967.08,-151 967.08,-151 1094.57,-151 1094.57,-151"/>
<polygon fill="black" stroke="black" points="1094.57,-154.5 1104.57,-151 1094.57,-147.5 1094.57,-154.5"/>
</g>
</g>
</svg>
