<?xml version="1.0" encoding="UTF-8" standalone="no"?>
<!DOCTYPE svg PUBLIC "-//W3C//DTD SVG 1.1//EN"
 "http://www.w3.org/Graphics/SVG/1.1/DTD/svg11.dtd">
<!-- Generated by graphviz version 2.43.0 (0)
 -->
<!-- Title: %3 Pages: 1 -->
<svg width="499pt" height="1144pt"
 viewBox="0.00 0.00 499.37 1144.00" xmlns="http://www.w3.org/2000/svg" xmlns:xlink="http://www.w3.org/1999/xlink">
<g id="graph0" class="graph" transform="scale(1 1) rotate(0) translate(4 1140)">
<title>%3</title>
<polygon fill="white" stroke="transparent" points="-4,4 -4,-1140 495.37,-1140 495.37,4 -4,4"/>
<text text-anchor="middle" x="245.69" y="-1108" font-family="Times,serif" font-size="30.00">Dependents</text>
<text text-anchor="middle" x="245.69" y="-1075" font-family="Times,serif" font-size="30.00"> </text>
<!-- :core:models -->
<g id="node1" class="node">
<title>:core:models</title>
<polygon fill="#b59aff" stroke="black" points="107,-549 0,-549 0,-513 107,-513 107,-549"/>
<text text-anchor="middle" x="53.5" y="-527.3" font-family="Times,serif" font-size="14.00">:core:models</text>
</g>
<!-- :shared -->
<g id="node2" class="node">
<title>:shared</title>
<ellipse fill="#b59aff" stroke="black" cx="349.69" cy="-1044" rx="45.49" ry="18"/>
<text text-anchor="middle" x="349.69" y="-1040.3" font-family="Times,serif" font-size="14.00">:shared</text>
</g>
<!-- :shared&#45;&gt;:core:models -->
<g id="edge1" class="edge">
<title>:shared&#45;&gt;:core:models</title>
<path fill="none" stroke="black" stroke-dasharray="1,5" d="M303.93,-1044C211.87,-1044 13,-1044 13,-1044 13,-1044 13,-559.26 13,-559.26"/>
<polygon fill="black" stroke="black" points="16.5,-559.26 13,-549.26 9.5,-559.26 16.5,-559.26"/>
</g>
<!-- :test&#45;data -->
<g id="node3" class="node">
<title>:test&#45;data</title>
<ellipse fill="#b59aff" stroke="black" cx="349.69" cy="-990" rx="55.49" ry="18"/>
<text text-anchor="middle" x="349.69" y="-986.3" font-family="Times,serif" font-size="14.00">:test&#45;data</text>
</g>
<!-- :test&#45;data&#45;&gt;:core:models -->
<g id="edge2" class="edge">
<title>:test&#45;data&#45;&gt;:core:models</title>
<path fill="none" stroke="black" stroke-dasharray="1,5" d="M294.41,-990C201.96,-990 26,-990 26,-990 26,-990 26,-559.28 26,-559.28"/>
<polygon fill="black" stroke="black" points="29.5,-559.28 26,-549.28 22.5,-559.28 29.5,-559.28"/>
</g>
<!-- :domain -->
<g id="node4" class="node">
<title>:domain</title>
<ellipse fill="#b59aff" stroke="black" cx="349.69" cy="-936" rx="48.19" ry="18"/>
<text text-anchor="middle" x="349.69" y="-932.3" font-family="Times,serif" font-size="14.00">:domain</text>
</g>
<!-- :domain&#45;&gt;:core:models -->
<g id="edge3" class="edge">
<title>:domain&#45;&gt;:core:models</title>
<path fill="none" stroke="black" stroke-dasharray="1,5" d="M301.3,-936C214.2,-936 40,-936 40,-936 40,-936 40,-559.19 40,-559.19"/>
<polygon fill="black" stroke="black" points="43.5,-559.19 40,-549.19 36.5,-559.19 43.5,-559.19"/>
</g>
<!-- :core:preferences -->
<g id="node5" class="node">
<title>:core:preferences</title>
<ellipse fill="#b59aff" stroke="black" cx="349.69" cy="-882" rx="91.78" ry="18"/>
<text text-anchor="middle" x="349.69" y="-878.3" font-family="Times,serif" font-size="14.00">:core:preferences</text>
</g>
<!-- :core:preferences&#45;&gt;:core:models -->
<g id="edge4" class="edge">
<title>:core:preferences&#45;&gt;:core:models</title>
<path fill="none" stroke="black" stroke-dasharray="1,5" d="M257.85,-882C170.71,-882 53,-882 53,-882 53,-882 53,-559.38 53,-559.38"/>
<polygon fill="black" stroke="black" points="56.5,-559.38 53,-549.38 49.5,-559.38 56.5,-559.38"/>
</g>
<!-- :data:database -->
<g id="node6" class="node">
<title>:data:database</title>
<ellipse fill="#b59aff" stroke="black" cx="349.69" cy="-828" rx="79.09" ry="18"/>
<text text-anchor="middle" x="349.69" y="-824.3" font-family="Times,serif" font-size="14.00">:data:database</text>
</g>
<!-- :data:database&#45;&gt;:core:models -->
<g id="edge5" class="edge">
<title>:data:database&#45;&gt;:core:models</title>
<path fill="none" stroke="black" stroke-dasharray="1,5" d="M270.29,-828C186.36,-828 66,-828 66,-828 66,-828 66,-559.13 66,-559.13"/>
<polygon fill="black" stroke="black" points="69.5,-559.13 66,-549.13 62.5,-559.13 69.5,-559.13"/>
</g>
<!-- :data:coverart -->
<g id="node7" class="node">
<title>:data:coverart</title>
<ellipse fill="#b59aff" stroke="black" cx="349.69" cy="-774" rx="76.09" ry="18"/>
<text text-anchor="middle" x="349.69" y="-770.3" font-family="Times,serif" font-size="14.00">:data:coverart</text>
</g>
<!-- :data:coverart&#45;&gt;:core:models -->
<g id="edge6" class="edge">
<title>:data:coverart&#45;&gt;:core:models</title>
<path fill="none" stroke="black" stroke-dasharray="1,5" d="M273.49,-774C193.74,-774 80,-774 80,-774 80,-774 80,-559.26 80,-559.26"/>
<polygon fill="black" stroke="black" points="83.5,-559.26 80,-549.26 76.5,-559.26 83.5,-559.26"/>
</g>
<!-- :data:spotify -->
<g id="node8" class="node">
<title>:data:spotify</title>
<ellipse fill="#b59aff" stroke="black" cx="349.69" cy="-720" rx="68.79" ry="18"/>
<text text-anchor="middle" x="349.69" y="-716.3" font-family="Times,serif" font-size="14.00">:data:spotify</text>
</g>
<!-- :data:spotify&#45;&gt;:core:models -->
<g id="edge7" class="edge">
<title>:data:spotify&#45;&gt;:core:models</title>
<path fill="none" stroke="black" stroke-dasharray="1,5" d="M280.56,-720C204.54,-720 93,-720 93,-720 93,-720 93,-559.12 93,-559.12"/>
<polygon fill="black" stroke="black" points="96.5,-559.12 93,-549.12 89.5,-559.12 96.5,-559.12"/>
</g>
<!-- :data:musicbrainz -->
<g id="node9" class="node">
<title>:data:musicbrainz</title>
<ellipse fill="#b59aff" stroke="black" cx="349.69" cy="-666" rx="93.68" ry="18"/>
<text text-anchor="middle" x="349.69" y="-662.3" font-family="Times,serif" font-size="14.00">:data:musicbrainz</text>
</g>
<!-- :data:musicbrainz&#45;&gt;:core:models -->
<g id="edge8" class="edge">
<title>:data:musicbrainz&#45;&gt;:core:models</title>
<path fill="none" stroke="black" stroke-dasharray="1,5" d="M260,-660.57C260,-637.24 260,-546.75 260,-546.75 260,-546.75 117.22,-546.75 117.22,-546.75"/>
<polygon fill="black" stroke="black" points="117.22,-543.25 107.22,-546.75 117.22,-550.25 117.22,-543.25"/>
</g>
<!-- :data:repository -->
<g id="node10" class="node">
<title>:data:repository</title>
<ellipse fill="#b59aff" stroke="black" cx="349.69" cy="-612" rx="85.29" ry="18"/>
<text text-anchor="middle" x="349.69" y="-608.3" font-family="Times,serif" font-size="14.00">:data:repository</text>
</g>
<!-- :data:repository&#45;&gt;:core:models -->
<g id="edge9" class="edge">
<title>:data:repository&#45;&gt;:core:models</title>
<path fill="none" stroke="black" stroke-dasharray="1,5" d="M272,-604.52C272,-586.94 272,-544.5 272,-544.5 272,-544.5 117.23,-544.5 117.23,-544.5"/>
<polygon fill="black" stroke="black" points="117.23,-541 107.23,-544.5 117.23,-548 117.23,-541"/>
</g>
<!-- :ui:image -->
<g id="node11" class="node">
<title>:ui:image</title>
<ellipse fill="#b59aff" stroke="black" cx="349.69" cy="-558" rx="53.89" ry="18"/>
<text text-anchor="middle" x="349.69" y="-554.3" font-family="Times,serif" font-size="14.00">:ui:image</text>
</g>
<!-- :ui:image&#45;&gt;:core:models -->
<g id="edge10" class="edge">
<title>:ui:image&#45;&gt;:core:models</title>
<path fill="none" stroke="black" stroke-dasharray="1,5" d="M323.4,-542.25C323.4,-542.25 117.27,-542.25 117.27,-542.25"/>
<polygon fill="black" stroke="black" points="117.27,-538.75 107.27,-542.25 117.27,-545.75 117.27,-538.75"/>
</g>
<!-- :ui:common -->
<g id="node12" class="node">
<title>:ui:common</title>
<ellipse fill="#b59aff" stroke="black" cx="349.69" cy="-504" rx="64.19" ry="18"/>
<text text-anchor="middle" x="349.69" y="-500.3" font-family="Times,serif" font-size="14.00">:ui:common</text>
</g>
<!-- :ui:common&#45;&gt;:core:models -->
<g id="edge11" class="edge">
<title>:ui:common&#45;&gt;:core:models</title>
<path fill="none" stroke="black" d="M318.27,-519.75C318.27,-519.75 117.02,-519.75 117.02,-519.75"/>
<polygon fill="black" stroke="black" points="117.02,-516.25 107.02,-519.75 117.02,-523.25 117.02,-516.25"/>
</g>
<!-- :android:app -->
<g id="node13" class="node">
<title>:android:app</title>
<ellipse fill="#9affb5" stroke="black" cx="349.69" cy="-450" rx="69.59" ry="18"/>
<text text-anchor="middle" x="349.69" y="-446.3" font-family="Times,serif" font-size="14.00">:android:app</text>
</g>
<!-- :android:app&#45;&gt;:core:models -->
<g id="edge12" class="edge">
<title>:android:app&#45;&gt;:core:models</title>
<path fill="none" stroke="black" stroke-dasharray="1,5" d="M280.02,-450C203.4,-450 91,-450 91,-450 91,-450 91,-502.62 91,-502.62"/>
<polygon fill="black" stroke="black" points="87.5,-502.62 91,-512.62 94.5,-502.62 87.5,-502.62"/>
</g>
<!-- :shared:feature:settings -->
<g id="node14" class="node">
<title>:shared:feature:settings</title>
<ellipse fill="#b59aff" stroke="black" cx="349.69" cy="-396" rx="122.38" ry="18"/>
<text text-anchor="middle" x="349.69" y="-392.3" font-family="Times,serif" font-size="14.00">:shared:feature:settings</text>
</g>
<!-- :shared:feature:settings&#45;&gt;:core:models -->
<g id="edge13" class="edge">
<title>:shared:feature:settings&#45;&gt;:core:models</title>
<path fill="none" stroke="black" stroke-dasharray="1,5" d="M241,-404.35C241,-431.8 241,-517.5 241,-517.5 241,-517.5 117.23,-517.5 117.23,-517.5"/>
<polygon fill="black" stroke="black" points="117.23,-514 107.23,-517.5 117.23,-521 117.23,-514"/>
</g>
<!-- :shared:feature:search -->
<g id="node15" class="node">
<title>:shared:feature:search</title>
<ellipse fill="#b59aff" stroke="black" cx="349.69" cy="-342" rx="115.88" ry="18"/>
<text text-anchor="middle" x="349.69" y="-338.3" font-family="Times,serif" font-size="14.00">:shared:feature:search</text>
</g>
<!-- :shared:feature:search&#45;&gt;:core:models -->
<g id="edge14" class="edge">
<title>:shared:feature:search&#45;&gt;:core:models</title>
<path fill="none" stroke="black" stroke-dasharray="1,5" d="M233.62,-342C159.03,-342 76,-342 76,-342 76,-342 76,-502.88 76,-502.88"/>
<polygon fill="black" stroke="black" points="72.5,-502.88 76,-512.88 79.5,-502.88 72.5,-502.88"/>
</g>
<!-- :shared:feature:collections -->
<g id="node16" class="node">
<title>:shared:feature:collections</title>
<ellipse fill="#b59aff" stroke="black" cx="349.69" cy="-288" rx="133.78" ry="18"/>
<text text-anchor="middle" x="349.69" y="-284.3" font-family="Times,serif" font-size="14.00">:shared:feature:collections</text>
</g>
<!-- :shared:feature:collections&#45;&gt;:core:models -->
<g id="edge15" class="edge">
<title>:shared:feature:collections&#45;&gt;:core:models</title>
<path fill="none" stroke="black" stroke-dasharray="1,5" d="M221,-293.17C221,-327 221,-515.25 221,-515.25 221,-515.25 117.42,-515.25 117.42,-515.25"/>
<polygon fill="black" stroke="black" points="117.42,-511.75 107.42,-515.25 117.42,-518.75 117.42,-511.75"/>
</g>
<!-- :shared:feature:stats -->
<g id="node17" class="node">
<title>:shared:feature:stats</title>
<ellipse fill="#b59aff" stroke="black" cx="349.69" cy="-234" rx="107.78" ry="18"/>
<text text-anchor="middle" x="349.69" y="-230.3" font-family="Times,serif" font-size="14.00">:shared:feature:stats</text>
</g>
<!-- :shared:feature:stats&#45;&gt;:core:models -->
<g id="edge16" class="edge">
<title>:shared:feature:stats&#45;&gt;:core:models</title>
<path fill="none" stroke="black" stroke-dasharray="1,5" d="M241.78,-234C159.78,-234 61,-234 61,-234 61,-234 61,-502.87 61,-502.87"/>
<polygon fill="black" stroke="black" points="57.5,-502.87 61,-512.87 64.5,-502.87 57.5,-502.87"/>
</g>
<!-- :shared:feature:details -->
<g id="node18" class="node">
<title>:shared:feature:details</title>
<ellipse fill="#b59aff" stroke="black" cx="349.69" cy="-180" rx="116.18" ry="18"/>
<text text-anchor="middle" x="349.69" y="-176.3" font-family="Times,serif" font-size="14.00">:shared:feature:details</text>
</g>
<!-- :shared:feature:details&#45;&gt;:core:models -->
<g id="edge17" class="edge">
<title>:shared:feature:details&#45;&gt;:core:models</title>
<path fill="none" stroke="black" stroke-dasharray="1,5" d="M233.19,-180C147.18,-180 45,-180 45,-180 45,-180 45,-502.62 45,-502.62"/>
<polygon fill="black" stroke="black" points="41.5,-502.62 45,-512.62 48.5,-502.62 41.5,-502.62"/>
</g>
<!-- :shared:feature:history -->
<g id="node19" class="node">
<title>:shared:feature:history</title>
<ellipse fill="#b59aff" stroke="black" cx="349.69" cy="-126" rx="117.78" ry="18"/>
<text text-anchor="middle" x="349.69" y="-122.3" font-family="Times,serif" font-size="14.00">:shared:feature:history</text>
</g>
<!-- :shared:feature:history&#45;&gt;:core:models -->
<g id="edge18" class="edge">
<title>:shared:feature:history&#45;&gt;:core:models</title>
<path fill="none" stroke="black" stroke-dasharray="1,5" d="M232.01,-126C140.86,-126 30,-126 30,-126 30,-126 30,-502.81 30,-502.81"/>
<polygon fill="black" stroke="black" points="26.5,-502.81 30,-512.81 33.5,-502.81 26.5,-502.81"/>
</g>
<!-- :android:feature:nowplaying -->
<g id="node20" class="node">
<title>:android:feature:nowplaying</title>
<ellipse fill="#9affb5" stroke="black" cx="349.69" cy="-72" rx="141.88" ry="18"/>
<text text-anchor="middle" x="349.69" y="-68.3" font-family="Times,serif" font-size="14.00">:android:feature:nowplaying</text>
</g>
<!-- :android:feature:nowplaying&#45;&gt;:core:models -->
<g id="edge19" class="edge">
<title>:android:feature:nowplaying&#45;&gt;:core:models</title>
<path fill="none" stroke="black" stroke-dasharray="1,5" d="M211,-75.69C211,-119.13 211,-531 211,-531 211,-531 117.26,-531 117.26,-531"/>
<polygon fill="black" stroke="black" points="117.26,-527.5 107.26,-531 117.26,-534.5 117.26,-527.5"/>
</g>
<!-- :android:feature:spotify -->
<g id="node21" class="node">
<title>:android:feature:spotify</title>
<ellipse fill="#9affb5" stroke="black" cx="349.69" cy="-18" rx="120.48" ry="18"/>
<text text-anchor="middle" x="349.69" y="-14.3" font-family="Times,serif" font-size="14.00">:android:feature:spotify</text>
</g>
<!-- :android:feature:spotify&#45;&gt;:core:models -->
<g id="edge20" class="edge">
<title>:android:feature:spotify&#45;&gt;:core:models</title>
<path fill="none" stroke="black" stroke-dasharray="1,5" d="M229.33,-18C133.38,-18 15,-18 15,-18 15,-18 15,-502.74 15,-502.74"/>
<polygon fill="black" stroke="black" points="11.5,-502.74 15,-512.74 18.5,-502.74 11.5,-502.74"/>
</g>
</g>
</svg>
