<?xml version="1.0" encoding="UTF-8" standalone="no"?>
<!DOCTYPE svg PUBLIC "-//W3C//DTD SVG 1.1//EN"
 "http://www.w3.org/Graphics/SVG/1.1/DTD/svg11.dtd">
<!-- Generated by graphviz version 2.43.0 (0)
 -->
<!-- Title: %3 Pages: 1 -->
<svg width="499pt" height="1198pt"
 viewBox="0.00 0.00 499.37 1198.00" xmlns="http://www.w3.org/2000/svg" xmlns:xlink="http://www.w3.org/1999/xlink">
<g id="graph0" class="graph" transform="scale(1 1) rotate(0) translate(4 1194)">
<title>%3</title>
<polygon fill="white" stroke="transparent" points="-4,4 -4,-1194 495.37,-1194 495.37,4 -4,4"/>
<text text-anchor="middle" x="245.69" y="-1162" font-family="Times,serif" font-size="30.00">Dependents</text>
<text text-anchor="middle" x="245.69" y="-1129" font-family="Times,serif" font-size="30.00"> </text>
<!-- :core:models -->
<g id="node1" class="node">
<title>:core:models</title>
<polygon fill="#b59aff" stroke="black" points="107,-576 0,-576 0,-540 107,-540 107,-576"/>
<text text-anchor="middle" x="53.5" y="-554.3" font-family="Times,serif" font-size="14.00">:core:models</text>
</g>
<!-- :shared -->
<g id="node2" class="node">
<title>:shared</title>
<ellipse fill="#b59aff" stroke="black" cx="349.69" cy="-1098" rx="45.49" ry="18"/>
<text text-anchor="middle" x="349.69" y="-1094.3" font-family="Times,serif" font-size="14.00">:shared</text>
</g>
<!-- :shared&#45;&gt;:core:models -->
<g id="edge1" class="edge">
<title>:shared&#45;&gt;:core:models</title>
<path fill="none" stroke="black" stroke-dasharray="1,5" d="M304.01,-1098C211.56,-1098 11,-1098 11,-1098 11,-1098 11,-586.28 11,-586.28"/>
<polygon fill="black" stroke="black" points="14.5,-586.28 11,-576.28 7.5,-586.28 14.5,-586.28"/>
</g>
<!-- :test&#45;data -->
<g id="node3" class="node">
<title>:test&#45;data</title>
<ellipse fill="#b59aff" stroke="black" cx="349.69" cy="-1044" rx="55.49" ry="18"/>
<text text-anchor="middle" x="349.69" y="-1040.3" font-family="Times,serif" font-size="14.00">:test&#45;data</text>
</g>
<!-- :test&#45;data&#45;&gt;:core:models -->
<g id="edge2" class="edge">
<title>:test&#45;data&#45;&gt;:core:models</title>
<path fill="none" stroke="black" stroke-dasharray="1,5" d="M294.27,-1044C201.06,-1044 23,-1044 23,-1044 23,-1044 23,-586.16 23,-586.16"/>
<polygon fill="black" stroke="black" points="26.5,-586.16 23,-576.16 19.5,-586.16 26.5,-586.16"/>
</g>
<!-- :core:preferences -->
<g id="node4" class="node">
<title>:core:preferences</title>
<ellipse fill="#b59aff" stroke="black" cx="349.69" cy="-990" rx="91.78" ry="18"/>
<text text-anchor="middle" x="349.69" y="-986.3" font-family="Times,serif" font-size="14.00">:core:preferences</text>
</g>
<!-- :core:preferences&#45;&gt;:core:models -->
<g id="edge3" class="edge">
<title>:core:preferences&#45;&gt;:core:models</title>
<path fill="none" stroke="black" stroke-dasharray="1,5" d="M257.82,-990C164.94,-990 35,-990 35,-990 35,-990 35,-586.01 35,-586.01"/>
<polygon fill="black" stroke="black" points="38.5,-586.01 35,-576.01 31.5,-586.01 38.5,-586.01"/>
</g>
<!-- :shared:domain -->
<g id="node5" class="node">
<title>:shared:domain</title>
<ellipse fill="#b59aff" stroke="black" cx="349.69" cy="-936" rx="82.59" ry="18"/>
<text text-anchor="middle" x="349.69" y="-932.3" font-family="Times,serif" font-size="14.00">:shared:domain</text>
</g>
<!-- :shared:domain&#45;&gt;:core:models -->
<g id="edge4" class="edge">
<title>:shared:domain&#45;&gt;:core:models</title>
<path fill="none" stroke="black" stroke-dasharray="1,5" d="M266.98,-936C177.36,-936 47,-936 47,-936 47,-936 47,-586.23 47,-586.23"/>
<polygon fill="black" stroke="black" points="50.5,-586.23 47,-576.23 43.5,-586.23 50.5,-586.23"/>
</g>
<!-- :data:database -->
<g id="node6" class="node">
<title>:data:database</title>
<ellipse fill="#b59aff" stroke="black" cx="349.69" cy="-882" rx="79.09" ry="18"/>
<text text-anchor="middle" x="349.69" y="-878.3" font-family="Times,serif" font-size="14.00">:data:database</text>
</g>
<!-- :data:database&#45;&gt;:core:models -->
<g id="edge5" class="edge">
<title>:data:database&#45;&gt;:core:models</title>
<path fill="none" stroke="black" stroke-dasharray="1,5" d="M270.26,-882C184.19,-882 59,-882 59,-882 59,-882 59,-586.35 59,-586.35"/>
<polygon fill="black" stroke="black" points="62.5,-586.35 59,-576.35 55.5,-586.35 62.5,-586.35"/>
</g>
<!-- :data:coverart -->
<g id="node7" class="node">
<title>:data:coverart</title>
<ellipse fill="#b59aff" stroke="black" cx="349.69" cy="-828" rx="76.09" ry="18"/>
<text text-anchor="middle" x="349.69" y="-824.3" font-family="Times,serif" font-size="14.00">:data:coverart</text>
</g>
<!-- :data:coverart&#45;&gt;:core:models -->
<g id="edge6" class="edge">
<title>:data:coverart&#45;&gt;:core:models</title>
<path fill="none" stroke="black" stroke-dasharray="1,5" d="M273.53,-828C191.02,-828 71,-828 71,-828 71,-828 71,-586.13 71,-586.13"/>
<polygon fill="black" stroke="black" points="74.5,-586.13 71,-576.13 67.5,-586.13 74.5,-586.13"/>
</g>
<!-- :data:spotify -->
<g id="node8" class="node">
<title>:data:spotify</title>
<ellipse fill="#b59aff" stroke="black" cx="349.69" cy="-774" rx="68.79" ry="18"/>
<text text-anchor="middle" x="349.69" y="-770.3" font-family="Times,serif" font-size="14.00">:data:spotify</text>
</g>
<!-- :data:spotify&#45;&gt;:core:models -->
<g id="edge7" class="edge">
<title>:data:spotify&#45;&gt;:core:models</title>
<path fill="none" stroke="black" stroke-dasharray="1,5" d="M280.66,-774C201.64,-774 83,-774 83,-774 83,-774 83,-586.04 83,-586.04"/>
<polygon fill="black" stroke="black" points="86.5,-586.04 83,-576.04 79.5,-586.04 86.5,-586.04"/>
</g>
<!-- :data:musicbrainz -->
<g id="node9" class="node">
<title>:data:musicbrainz</title>
<ellipse fill="#b59aff" stroke="black" cx="349.69" cy="-720" rx="93.68" ry="18"/>
<text text-anchor="middle" x="349.69" y="-716.3" font-family="Times,serif" font-size="14.00">:data:musicbrainz</text>
</g>
<!-- :data:musicbrainz&#45;&gt;:core:models -->
<g id="edge8" class="edge">
<title>:data:musicbrainz&#45;&gt;:core:models</title>
<path fill="none" stroke="black" stroke-dasharray="1,5" d="M260,-714.66C260,-687.94 260,-570 260,-570 260,-570 117.22,-570 117.22,-570"/>
<polygon fill="black" stroke="black" points="117.22,-566.5 107.22,-570 117.22,-573.5 117.22,-566.5"/>
</g>
<!-- :data:repository -->
<g id="node10" class="node">
<title>:data:repository</title>
<ellipse fill="#b59aff" stroke="black" cx="349.69" cy="-666" rx="85.29" ry="18"/>
<text text-anchor="middle" x="349.69" y="-662.3" font-family="Times,serif" font-size="14.00">:data:repository</text>
</g>
<!-- :data:repository&#45;&gt;:core:models -->
<g id="edge9" class="edge">
<title>:data:repository&#45;&gt;:core:models</title>
<path fill="none" stroke="black" stroke-dasharray="1,5" d="M272,-658.33C272,-634.61 272,-564 272,-564 272,-564 117.23,-564 117.23,-564"/>
<polygon fill="black" stroke="black" points="117.23,-560.5 107.23,-564 117.23,-567.5 117.23,-560.5"/>
</g>
<!-- :ui:image -->
<g id="node11" class="node">
<title>:ui:image</title>
<ellipse fill="#b59aff" stroke="black" cx="349.69" cy="-612" rx="53.89" ry="18"/>
<text text-anchor="middle" x="349.69" y="-608.3" font-family="Times,serif" font-size="14.00">:ui:image</text>
</g>
<!-- :ui:image&#45;&gt;:core:models -->
<g id="edge10" class="edge">
<title>:ui:image&#45;&gt;:core:models</title>
<path fill="none" stroke="black" stroke-dasharray="1,5" d="M295.67,-612C220.91,-612 95,-612 95,-612 95,-612 95,-586.28 95,-586.28"/>
<polygon fill="black" stroke="black" points="98.5,-586.28 95,-576.28 91.5,-586.28 98.5,-586.28"/>
</g>
<!-- :ui:common -->
<g id="node12" class="node">
<title>:ui:common</title>
<ellipse fill="#b59aff" stroke="black" cx="349.69" cy="-558" rx="64.19" ry="18"/>
<text text-anchor="middle" x="349.69" y="-554.3" font-family="Times,serif" font-size="14.00">:ui:common</text>
</g>
<!-- :ui:common&#45;&gt;:core:models -->
<g id="edge11" class="edge">
<title>:ui:common&#45;&gt;:core:models</title>
<path fill="none" stroke="black" d="M285.05,-558C285.05,-558 117.1,-558 117.1,-558"/>
<polygon fill="black" stroke="black" points="117.1,-554.5 107.1,-558 117.1,-561.5 117.1,-554.5"/>
</g>
<!-- :android:app -->
<g id="node13" class="node">
<title>:android:app</title>
<ellipse fill="#9affb5" stroke="black" cx="349.69" cy="-504" rx="69.59" ry="18"/>
<text text-anchor="middle" x="349.69" y="-500.3" font-family="Times,serif" font-size="14.00">:android:app</text>
</g>
<!-- :android:app&#45;&gt;:core:models -->
<g id="edge12" class="edge">
<title>:android:app&#45;&gt;:core:models</title>
<path fill="none" stroke="black" stroke-dasharray="1,5" d="M280.09,-504C204.68,-504 95,-504 95,-504 95,-504 95,-529.72 95,-529.72"/>
<polygon fill="black" stroke="black" points="91.5,-529.72 95,-539.72 98.5,-529.72 91.5,-529.72"/>
</g>
<!-- :shared:feature:settings -->
<g id="node14" class="node">
<title>:shared:feature:settings</title>
<ellipse fill="#b59aff" stroke="black" cx="349.69" cy="-450" rx="122.38" ry="18"/>
<text text-anchor="middle" x="349.69" y="-446.3" font-family="Times,serif" font-size="14.00">:shared:feature:settings</text>
</g>
<!-- :shared:feature:settings&#45;&gt;:core:models -->
<g id="edge13" class="edge">
<title>:shared:feature:settings&#45;&gt;:core:models</title>
<path fill="none" stroke="black" stroke-dasharray="1,5" d="M241,-458.35C241,-482.71 241,-552 241,-552 241,-552 117.23,-552 117.23,-552"/>
<polygon fill="black" stroke="black" points="117.23,-548.5 107.23,-552 117.23,-555.5 117.23,-548.5"/>
</g>
<!-- :shared:feature:search -->
<g id="node15" class="node">
<title>:shared:feature:search</title>
<ellipse fill="#b59aff" stroke="black" cx="349.69" cy="-396" rx="115.88" ry="18"/>
<text text-anchor="middle" x="349.69" y="-392.3" font-family="Times,serif" font-size="14.00">:shared:feature:search</text>
</g>
<!-- :shared:feature:search&#45;&gt;:core:models -->
<g id="edge14" class="edge">
<title>:shared:feature:search&#45;&gt;:core:models</title>
<path fill="none" stroke="black" stroke-dasharray="1,5" d="M233.88,-396C161.91,-396 83,-396 83,-396 83,-396 83,-529.73 83,-529.73"/>
<polygon fill="black" stroke="black" points="79.5,-529.73 83,-539.73 86.5,-529.73 79.5,-529.73"/>
</g>
<!-- :shared:feature:collections -->
<g id="node16" class="node">
<title>:shared:feature:collections</title>
<ellipse fill="#b59aff" stroke="black" cx="349.69" cy="-342" rx="133.78" ry="18"/>
<text text-anchor="middle" x="349.69" y="-338.3" font-family="Times,serif" font-size="14.00">:shared:feature:collections</text>
</g>
<!-- :shared:feature:collections&#45;&gt;:core:models -->
<g id="edge15" class="edge">
<title>:shared:feature:collections&#45;&gt;:core:models</title>
<path fill="none" stroke="black" stroke-dasharray="1,5" d="M221,-347.04C221,-378.46 221,-546 221,-546 221,-546 117.42,-546 117.42,-546"/>
<polygon fill="black" stroke="black" points="117.42,-542.5 107.42,-546 117.42,-549.5 117.42,-542.5"/>
</g>
<!-- :shared:feature:stats -->
<g id="node17" class="node">
<title>:shared:feature:stats</title>
<ellipse fill="#b59aff" stroke="black" cx="349.69" cy="-288" rx="107.78" ry="18"/>
<text text-anchor="middle" x="349.69" y="-284.3" font-family="Times,serif" font-size="14.00">:shared:feature:stats</text>
</g>
<!-- :shared:feature:stats&#45;&gt;:core:models -->
<g id="edge16" class="edge">
<title>:shared:feature:stats&#45;&gt;:core:models</title>
<path fill="none" stroke="black" stroke-dasharray="1,5" d="M241.54,-288C163.2,-288 71,-288 71,-288 71,-288 71,-529.87 71,-529.87"/>
<polygon fill="black" stroke="black" points="67.5,-529.87 71,-539.87 74.5,-529.87 67.5,-529.87"/>
</g>
<!-- :shared:feature:details -->
<g id="node18" class="node">
<title>:shared:feature:details</title>
<ellipse fill="#b59aff" stroke="black" cx="349.69" cy="-234" rx="116.18" ry="18"/>
<text text-anchor="middle" x="349.69" y="-230.3" font-family="Times,serif" font-size="14.00">:shared:feature:details</text>
</g>
<!-- :shared:feature:details&#45;&gt;:core:models -->
<g id="edge17" class="edge">
<title>:shared:feature:details&#45;&gt;:core:models</title>
<path fill="none" stroke="black" stroke-dasharray="1,5" d="M233.13,-234C152.26,-234 59,-234 59,-234 59,-234 59,-529.65 59,-529.65"/>
<polygon fill="black" stroke="black" points="55.5,-529.65 59,-539.65 62.5,-529.65 55.5,-529.65"/>
</g>
<!-- :shared:feature:history -->
<g id="node19" class="node">
<title>:shared:feature:history</title>
<ellipse fill="#b59aff" stroke="black" cx="349.69" cy="-180" rx="117.78" ry="18"/>
<text text-anchor="middle" x="349.69" y="-176.3" font-family="Times,serif" font-size="14.00">:shared:feature:history</text>
</g>
<!-- :shared:feature:history&#45;&gt;:core:models -->
<g id="edge18" class="edge">
<title>:shared:feature:history&#45;&gt;:core:models</title>
<path fill="none" stroke="black" stroke-dasharray="1,5" d="M231.79,-180C146.8,-180 47,-180 47,-180 47,-180 47,-529.77 47,-529.77"/>
<polygon fill="black" stroke="black" points="43.5,-529.77 47,-539.77 50.5,-529.77 43.5,-529.77"/>
</g>
<!-- :shared:feature:graph -->
<g id="node20" class="node">
<title>:shared:feature:graph</title>
<ellipse fill="#b59aff" stroke="black" cx="349.69" cy="-126" rx="112.38" ry="18"/>
<text text-anchor="middle" x="349.69" y="-122.3" font-family="Times,serif" font-size="14.00">:shared:feature:graph</text>
</g>
<!-- :shared:feature:graph&#45;&gt;:core:models -->
<g id="edge19" class="edge">
<title>:shared:feature:graph&#45;&gt;:core:models</title>
<path fill="none" stroke="black" stroke-dasharray="1,5" d="M236.97,-126C146.67,-126 35,-126 35,-126 35,-126 35,-529.99 35,-529.99"/>
<polygon fill="black" stroke="black" points="31.5,-529.99 35,-539.99 38.5,-529.99 31.5,-529.99"/>
</g>
<!-- :android:feature:nowplaying -->
<g id="node21" class="node">
<title>:android:feature:nowplaying</title>
<ellipse fill="#9affb5" stroke="black" cx="349.69" cy="-72" rx="141.88" ry="18"/>
<text text-anchor="middle" x="349.69" y="-68.3" font-family="Times,serif" font-size="14.00">:android:feature:nowplaying</text>
</g>
<!-- :android:feature:nowplaying&#45;&gt;:core:models -->
<g id="edge20" class="edge">
<title>:android:feature:nowplaying&#45;&gt;:core:models</title>
<path fill="none" stroke="black" stroke-dasharray="1,5" d="M207.82,-72C119.66,-72 23,-72 23,-72 23,-72 23,-529.84 23,-529.84"/>
<polygon fill="black" stroke="black" points="19.5,-529.84 23,-539.84 26.5,-529.84 19.5,-529.84"/>
</g>
<!-- :android:feature:spotify -->
<g id="node22" class="node">
<title>:android:feature:spotify</title>
<ellipse fill="#9affb5" stroke="black" cx="349.69" cy="-18" rx="120.48" ry="18"/>
<text text-anchor="middle" x="349.69" y="-14.3" font-family="Times,serif" font-size="14.00">:android:feature:spotify</text>
</g>
<!-- :android:feature:spotify&#45;&gt;:core:models -->
<g id="edge21" class="edge">
<title>:android:feature:spotify&#45;&gt;:core:models</title>
<path fill="none" stroke="black" stroke-dasharray="1,5" d="M229.33,-18C131.98,-18 11,-18 11,-18 11,-18 11,-529.72 11,-529.72"/>
<polygon fill="black" stroke="black" points="7.5,-529.72 11,-539.72 14.5,-529.72 7.5,-529.72"/>
</g>
</g>
</svg>
