<?xml version="1.0" encoding="UTF-8" standalone="no"?>
<!DOCTYPE svg PUBLIC "-//W3C//DTD SVG 1.1//EN"
 "http://www.w3.org/Graphics/SVG/1.1/DTD/svg11.dtd">
<!-- Generated by graphviz version 2.43.0 (0)
 -->
<!-- Title: %3 Pages: 1 -->
<svg width="531pt" height="1198pt"
 viewBox="0.00 0.00 531.46 1198.00" xmlns="http://www.w3.org/2000/svg" xmlns:xlink="http://www.w3.org/1999/xlink">
<g id="graph0" class="graph" transform="scale(1 1) rotate(0) translate(4 1194)">
<title>%3</title>
<polygon fill="white" stroke="transparent" points="-4,4 -4,-1194 527.46,-1194 527.46,4 -4,4"/>
<text text-anchor="middle" x="261.73" y="-1162" font-family="Times,serif" font-size="30.00">Dependents</text>
<text text-anchor="middle" x="261.73" y="-1129" font-family="Times,serif" font-size="30.00"> </text>
<!-- :core:models -->
<g id="node1" class="node">
<title>:core:models</title>
<ellipse fill="#b59aff" stroke="black" cx="69.54" cy="-558" rx="69.59" ry="18"/>
<text text-anchor="middle" x="69.54" y="-554.3" font-family="Times,serif" font-size="14.00">:core:models</text>
</g>
<!-- :shared -->
<g id="node2" class="node">
<title>:shared</title>
<ellipse fill="#b59aff" stroke="black" cx="381.78" cy="-1098" rx="45.49" ry="18"/>
<text text-anchor="middle" x="381.78" y="-1094.3" font-family="Times,serif" font-size="14.00">:shared</text>
</g>
<!-- :shared&#45;&gt;:core:models -->
<g id="edge1" class="edge">
<title>:shared&#45;&gt;:core:models</title>
<path fill="none" stroke="black" stroke-dasharray="1,5" d="M336.06,-1098C237.74,-1098 15,-1098 15,-1098 15,-1098 15,-579.28 15,-579.28"/>
<polygon fill="black" stroke="black" points="18.5,-579.28 15,-569.28 11.5,-579.28 18.5,-579.28"/>
</g>
<!-- :test&#45;data -->
<g id="node3" class="node">
<title>:test&#45;data</title>
<ellipse fill="#b59aff" stroke="black" cx="381.78" cy="-1044" rx="55.49" ry="18"/>
<text text-anchor="middle" x="381.78" y="-1040.3" font-family="Times,serif" font-size="14.00">:test&#45;data</text>
</g>
<!-- :test&#45;data&#45;&gt;:core:models -->
<g id="edge2" class="edge">
<title>:test&#45;data&#45;&gt;:core:models</title>
<path fill="none" stroke="black" stroke-dasharray="1,5" d="M326.42,-1044C227.36,-1044 30,-1044 30,-1044 30,-1044 30,-582.81 30,-582.81"/>
<polygon fill="black" stroke="black" points="33.5,-582.81 30,-572.81 26.5,-582.81 33.5,-582.81"/>
</g>
<!-- :core:preferences -->
<g id="node4" class="node">
<title>:core:preferences</title>
<ellipse fill="#b59aff" stroke="black" cx="381.78" cy="-990" rx="91.78" ry="18"/>
<text text-anchor="middle" x="381.78" y="-986.3" font-family="Times,serif" font-size="14.00">:core:preferences</text>
</g>
<!-- :core:preferences&#45;&gt;:core:models -->
<g id="edge3" class="edge">
<title>:core:preferences&#45;&gt;:core:models</title>
<path fill="none" stroke="black" stroke-dasharray="1,5" d="M290.02,-990C190.61,-990 46,-990 46,-990 46,-990 46,-585.2 46,-585.2"/>
<polygon fill="black" stroke="black" points="49.5,-585.2 46,-575.2 42.5,-585.2 49.5,-585.2"/>
</g>
<!-- :shared:domain -->
<g id="node5" class="node">
<title>:shared:domain</title>
<ellipse fill="#b59aff" stroke="black" cx="381.78" cy="-936" rx="82.59" ry="18"/>
<text text-anchor="middle" x="381.78" y="-932.3" font-family="Times,serif" font-size="14.00">:shared:domain</text>
</g>
<!-- :shared:domain&#45;&gt;:core:models -->
<g id="edge4" class="edge">
<title>:shared:domain&#45;&gt;:core:models</title>
<path fill="none" stroke="black" stroke-dasharray="1,5" d="M299.17,-936C204.12,-936 61,-936 61,-936 61,-936 61,-585.98 61,-585.98"/>
<polygon fill="black" stroke="black" points="64.5,-585.98 61,-575.98 57.5,-585.98 64.5,-585.98"/>
</g>
<!-- :data:database -->
<g id="node6" class="node">
<title>:data:database</title>
<ellipse fill="#b59aff" stroke="black" cx="381.78" cy="-882" rx="79.09" ry="18"/>
<text text-anchor="middle" x="381.78" y="-878.3" font-family="Times,serif" font-size="14.00">:data:database</text>
</g>
<!-- :data:database&#45;&gt;:core:models -->
<g id="edge5" class="edge">
<title>:data:database&#45;&gt;:core:models</title>
<path fill="none" stroke="black" stroke-dasharray="1,5" d="M302.1,-882C211.79,-882 77,-882 77,-882 77,-882 77,-586.35 77,-586.35"/>
<polygon fill="black" stroke="black" points="80.5,-586.35 77,-576.35 73.5,-586.35 80.5,-586.35"/>
</g>
<!-- :data:coverart -->
<g id="node7" class="node">
<title>:data:coverart</title>
<ellipse fill="#b59aff" stroke="black" cx="381.78" cy="-828" rx="76.09" ry="18"/>
<text text-anchor="middle" x="381.78" y="-824.3" font-family="Times,serif" font-size="14.00">:data:coverart</text>
</g>
<!-- :data:coverart&#45;&gt;:core:models -->
<g id="edge6" class="edge">
<title>:data:coverart&#45;&gt;:core:models</title>
<path fill="none" stroke="black" stroke-dasharray="1,5" d="M305.64,-828C219.78,-828 92,-828 92,-828 92,-828 92,-585.3 92,-585.3"/>
<polygon fill="black" stroke="black" points="95.5,-585.3 92,-575.3 88.5,-585.3 95.5,-585.3"/>
</g>
<!-- :data:spotify -->
<g id="node8" class="node">
<title>:data:spotify</title>
<ellipse fill="#b59aff" stroke="black" cx="381.78" cy="-774" rx="68.79" ry="18"/>
<text text-anchor="middle" x="381.78" y="-770.3" font-family="Times,serif" font-size="14.00">:data:spotify</text>
</g>
<!-- :data:spotify&#45;&gt;:core:models -->
<g id="edge7" class="edge">
<title>:data:spotify&#45;&gt;:core:models</title>
<path fill="none" stroke="black" stroke-dasharray="1,5" d="M312.69,-774C231.59,-774 108,-774 108,-774 108,-774 108,-583.19 108,-583.19"/>
<polygon fill="black" stroke="black" points="111.5,-583.19 108,-573.19 104.5,-583.19 111.5,-583.19"/>
</g>
<!-- :data:musicbrainz -->
<g id="node9" class="node">
<title>:data:musicbrainz</title>
<ellipse fill="#b59aff" stroke="black" cx="381.78" cy="-720" rx="93.68" ry="18"/>
<text text-anchor="middle" x="381.78" y="-716.3" font-family="Times,serif" font-size="14.00">:data:musicbrainz</text>
</g>
<!-- :data:musicbrainz&#45;&gt;:core:models -->
<g id="edge8" class="edge">
<title>:data:musicbrainz&#45;&gt;:core:models</title>
<path fill="none" stroke="black" stroke-dasharray="1,5" d="M292,-714.66C292,-687.94 292,-570 292,-570 292,-570 131.42,-570 131.42,-570"/>
<polygon fill="black" stroke="black" points="131.42,-566.5 121.42,-570 131.42,-573.5 131.42,-566.5"/>
</g>
<!-- :data:repository -->
<g id="node10" class="node">
<title>:data:repository</title>
<ellipse fill="#b59aff" stroke="black" cx="381.78" cy="-666" rx="85.29" ry="18"/>
<text text-anchor="middle" x="381.78" y="-662.3" font-family="Times,serif" font-size="14.00">:data:repository</text>
</g>
<!-- :data:repository&#45;&gt;:core:models -->
<g id="edge9" class="edge">
<title>:data:repository&#45;&gt;:core:models</title>
<path fill="none" stroke="black" stroke-dasharray="1,5" d="M304,-658.66C304,-635.28 304,-564 304,-564 304,-564 145.16,-564 145.16,-564"/>
<polygon fill="black" stroke="black" points="145.16,-560.5 135.16,-564 145.16,-567.5 145.16,-560.5"/>
</g>
<!-- :ui:image -->
<g id="node11" class="node">
<title>:ui:image</title>
<ellipse fill="#b59aff" stroke="black" cx="381.78" cy="-612" rx="53.89" ry="18"/>
<text text-anchor="middle" x="381.78" y="-608.3" font-family="Times,serif" font-size="14.00">:ui:image</text>
</g>
<!-- :ui:image&#45;&gt;:core:models -->
<g id="edge10" class="edge">
<title>:ui:image&#45;&gt;:core:models</title>
<path fill="none" stroke="black" stroke-dasharray="1,5" d="M327.53,-612C251.65,-612 123,-612 123,-612 123,-612 123,-579.72 123,-579.72"/>
<polygon fill="black" stroke="black" points="126.5,-579.72 123,-569.72 119.5,-579.72 126.5,-579.72"/>
</g>
<!-- :ui:common -->
<g id="node12" class="node">
<title>:ui:common</title>
<ellipse fill="#b59aff" stroke="black" cx="381.78" cy="-558" rx="64.19" ry="18"/>
<text text-anchor="middle" x="381.78" y="-554.3" font-family="Times,serif" font-size="14.00">:ui:common</text>
</g>
<!-- :ui:common&#45;&gt;:core:models -->
<g id="edge11" class="edge">
<title>:ui:common&#45;&gt;:core:models</title>
<path fill="none" stroke="black" d="M317.08,-558C317.08,-558 149.31,-558 149.31,-558"/>
<polygon fill="black" stroke="black" points="149.31,-554.5 139.31,-558 149.31,-561.5 149.31,-554.5"/>
</g>
<!-- :android:app -->
<g id="node13" class="node">
<title>:android:app</title>
<ellipse fill="#9affb5" stroke="black" cx="381.78" cy="-504" rx="69.59" ry="18"/>
<text text-anchor="middle" x="381.78" y="-500.3" font-family="Times,serif" font-size="14.00">:android:app</text>
</g>
<!-- :android:app&#45;&gt;:core:models -->
<g id="edge12" class="edge">
<title>:android:app&#45;&gt;:core:models</title>
<path fill="none" stroke="black" stroke-dasharray="1,5" d="M312.09,-504C235.44,-504 123,-504 123,-504 123,-504 123,-536.28 123,-536.28"/>
<polygon fill="black" stroke="black" points="119.5,-536.28 123,-546.28 126.5,-536.28 119.5,-536.28"/>
</g>
<!-- :shared:feature:settings -->
<g id="node14" class="node">
<title>:shared:feature:settings</title>
<ellipse fill="#b59aff" stroke="black" cx="381.78" cy="-450" rx="122.38" ry="18"/>
<text text-anchor="middle" x="381.78" y="-446.3" font-family="Times,serif" font-size="14.00">:shared:feature:settings</text>
</g>
<!-- :shared:feature:settings&#45;&gt;:core:models -->
<g id="edge13" class="edge">
<title>:shared:feature:settings&#45;&gt;:core:models</title>
<path fill="none" stroke="black" stroke-dasharray="1,5" d="M273,-458.35C273,-482.71 273,-552 273,-552 273,-552 145.32,-552 145.32,-552"/>
<polygon fill="black" stroke="black" points="145.32,-548.5 135.32,-552 145.32,-555.5 145.32,-548.5"/>
</g>
<!-- :shared:feature:search -->
<g id="node15" class="node">
<title>:shared:feature:search</title>
<ellipse fill="#b59aff" stroke="black" cx="381.78" cy="-396" rx="115.88" ry="18"/>
<text text-anchor="middle" x="381.78" y="-392.3" font-family="Times,serif" font-size="14.00">:shared:feature:search</text>
</g>
<!-- :shared:feature:search&#45;&gt;:core:models -->
<g id="edge14" class="edge">
<title>:shared:feature:search&#45;&gt;:core:models</title>
<path fill="none" stroke="black" stroke-dasharray="1,5" d="M266.07,-396C191.35,-396 108,-396 108,-396 108,-396 108,-532.76 108,-532.76"/>
<polygon fill="black" stroke="black" points="104.5,-532.76 108,-542.76 111.5,-532.76 104.5,-532.76"/>
</g>
<!-- :shared:feature:collections -->
<g id="node16" class="node">
<title>:shared:feature:collections</title>
<ellipse fill="#b59aff" stroke="black" cx="381.78" cy="-342" rx="133.78" ry="18"/>
<text text-anchor="middle" x="381.78" y="-338.3" font-family="Times,serif" font-size="14.00">:shared:feature:collections</text>
</g>
<!-- :shared:feature:collections&#45;&gt;:core:models -->
<g id="edge15" class="edge">
<title>:shared:feature:collections&#45;&gt;:core:models</title>
<path fill="none" stroke="black" stroke-dasharray="1,5" d="M253,-347.04C253,-378.46 253,-546 253,-546 253,-546 131.62,-546 131.62,-546"/>
<polygon fill="black" stroke="black" points="131.62,-542.5 121.62,-546 131.62,-549.5 131.62,-542.5"/>
</g>
<!-- :shared:feature:stats -->
<g id="node17" class="node">
<title>:shared:feature:stats</title>
<ellipse fill="#b59aff" stroke="black" cx="381.78" cy="-288" rx="107.78" ry="18"/>
<text text-anchor="middle" x="381.78" y="-284.3" font-family="Times,serif" font-size="14.00">:shared:feature:stats</text>
</g>
<!-- :shared:feature:stats&#45;&gt;:core:models -->
<g id="edge16" class="edge">
<title>:shared:feature:stats&#45;&gt;:core:models</title>
<path fill="none" stroke="black" stroke-dasharray="1,5" d="M273.87,-288C191.49,-288 92,-288 92,-288 92,-288 92,-530.7 92,-530.7"/>
<polygon fill="black" stroke="black" points="88.5,-530.7 92,-540.7 95.5,-530.7 88.5,-530.7"/>
</g>
<!-- :shared:feature:details -->
<g id="node18" class="node">
<title>:shared:feature:details</title>
<ellipse fill="#b59aff" stroke="black" cx="381.78" cy="-234" rx="116.18" ry="18"/>
<text text-anchor="middle" x="381.78" y="-230.3" font-family="Times,serif" font-size="14.00">:shared:feature:details</text>
</g>
<!-- :shared:feature:details&#45;&gt;:core:models -->
<g id="edge17" class="edge">
<title>:shared:feature:details&#45;&gt;:core:models</title>
<path fill="none" stroke="black" stroke-dasharray="1,5" d="M265.25,-234C179.21,-234 77,-234 77,-234 77,-234 77,-529.65 77,-529.65"/>
<polygon fill="black" stroke="black" points="73.5,-529.65 77,-539.65 80.5,-529.65 73.5,-529.65"/>
</g>
<!-- :shared:feature:history -->
<g id="node19" class="node">
<title>:shared:feature:history</title>
<ellipse fill="#b59aff" stroke="black" cx="381.78" cy="-180" rx="117.78" ry="18"/>
<text text-anchor="middle" x="381.78" y="-176.3" font-family="Times,serif" font-size="14.00">:shared:feature:history</text>
</g>
<!-- :shared:feature:history&#45;&gt;:core:models -->
<g id="edge18" class="edge">
<title>:shared:feature:history&#45;&gt;:core:models</title>
<path fill="none" stroke="black" stroke-dasharray="1,5" d="M263.7,-180C172.23,-180 61,-180 61,-180 61,-180 61,-530.02 61,-530.02"/>
<polygon fill="black" stroke="black" points="57.5,-530.02 61,-540.02 64.5,-530.02 57.5,-530.02"/>
</g>
<!-- :shared:feature:graph -->
<g id="node20" class="node">
<title>:shared:feature:graph</title>
<ellipse fill="#b59aff" stroke="black" cx="381.78" cy="-126" rx="112.38" ry="18"/>
<text text-anchor="middle" x="381.78" y="-122.3" font-family="Times,serif" font-size="14.00">:shared:feature:graph</text>
</g>
<!-- :shared:feature:graph&#45;&gt;:core:models -->
<g id="edge19" class="edge">
<title>:shared:feature:graph&#45;&gt;:core:models</title>
<path fill="none" stroke="black" stroke-dasharray="1,5" d="M269.03,-126C171.49,-126 46,-126 46,-126 46,-126 46,-530.8 46,-530.8"/>
<polygon fill="black" stroke="black" points="42.5,-530.8 46,-540.8 49.5,-530.8 42.5,-530.8"/>
</g>
<!-- :android:feature:nowplaying -->
<g id="node21" class="node">
<title>:android:feature:nowplaying</title>
<ellipse fill="#9affb5" stroke="black" cx="381.78" cy="-72" rx="141.88" ry="18"/>
<text text-anchor="middle" x="381.78" y="-68.3" font-family="Times,serif" font-size="14.00">:android:feature:nowplaying</text>
</g>
<!-- :android:feature:nowplaying&#45;&gt;:core:models -->
<g id="edge20" class="edge">
<title>:android:feature:nowplaying&#45;&gt;:core:models</title>
<path fill="none" stroke="black" stroke-dasharray="1,5" d="M239.96,-72C142.27,-72 30,-72 30,-72 30,-72 30,-533.19 30,-533.19"/>
<polygon fill="black" stroke="black" points="26.5,-533.19 30,-543.19 33.5,-533.19 26.5,-533.19"/>
</g>
<!-- :android:feature:spotify -->
<g id="node22" class="node">
<title>:android:feature:spotify</title>
<ellipse fill="#9affb5" stroke="black" cx="381.78" cy="-18" rx="120.48" ry="18"/>
<text text-anchor="middle" x="381.78" y="-14.3" font-family="Times,serif" font-size="14.00">:android:feature:spotify</text>
</g>
<!-- :android:feature:spotify&#45;&gt;:core:models -->
<g id="edge21" class="edge">
<title>:android:feature:spotify&#45;&gt;:core:models</title>
<path fill="none" stroke="black" stroke-dasharray="1,5" d="M261.43,-18C154.49,-18 15,-18 15,-18 15,-18 15,-536.72 15,-536.72"/>
<polygon fill="black" stroke="black" points="11.5,-536.72 15,-546.72 18.5,-536.72 11.5,-536.72"/>
</g>
</g>
</svg>
