<?xml version="1.0" encoding="UTF-8" standalone="no"?>
<!DOCTYPE svg PUBLIC "-//W3C//DTD SVG 1.1//EN"
 "http://www.w3.org/Graphics/SVG/1.1/DTD/svg11.dtd">
<!-- Generated by graphviz version 2.43.0 (0)
 -->
<!-- Title: %3 Pages: 1 -->
<svg width="373pt" height="280pt"
 viewBox="0.00 0.00 372.68 280.00" xmlns="http://www.w3.org/2000/svg" xmlns:xlink="http://www.w3.org/1999/xlink">
<g id="graph0" class="graph" transform="scale(1 1) rotate(0) translate(4 276)">
<title>%3</title>
<polygon fill="white" stroke="transparent" points="-4,4 -4,-276 368.68,-276 368.68,4 -4,4"/>
<text text-anchor="middle" x="182.34" y="-244" font-family="Times,serif" font-size="30.00">Dependents</text>
<text text-anchor="middle" x="182.34" y="-211" font-family="Times,serif" font-size="30.00"> </text>
<!-- :ui:core -->
<g id="node1" class="node">
<title>:ui:core</title>
<polygon fill="#b59aff" stroke="black" points="70,-117 0,-117 0,-81 70,-81 70,-117"/>
<text text-anchor="middle" x="35" y="-95.3" font-family="Times,serif" font-size="14.00">:ui:core</text>
</g>
<!-- :shared -->
<g id="node2" class="node">
<title>:shared</title>
<ellipse fill="#b59aff" stroke="black" cx="267.84" cy="-180" rx="45.49" ry="18"/>
<text text-anchor="middle" x="267.84" y="-176.3" font-family="Times,serif" font-size="14.00">:shared</text>
</g>
<!-- :shared&#45;&gt;:ui:core -->
<g id="edge1" class="edge">
<title>:shared&#45;&gt;:ui:core</title>
<path fill="none" stroke="black" stroke-dasharray="1,5" d="M222.12,-180C154.31,-180 35,-180 35,-180 35,-180 35,-127.38 35,-127.38"/>
<polygon fill="black" stroke="black" points="38.5,-127.38 35,-117.38 31.5,-127.38 38.5,-127.38"/>
</g>
<!-- :konsist&#45;test -->
<g id="node3" class="node">
<title>:konsist&#45;test</title>
<ellipse fill="#b59aff" stroke="black" cx="267.84" cy="-126" rx="67.69" ry="18"/>
<text text-anchor="middle" x="267.84" y="-122.3" font-family="Times,serif" font-size="14.00">:konsist&#45;test</text>
</g>
<!-- :konsist&#45;test&#45;&gt;:ui:core -->
<g id="edge2" class="edge">
<title>:konsist&#45;test&#45;&gt;:ui:core</title>
<path fill="none" stroke="#ff9ab1" stroke-dasharray="1,5" d="M222.95,-112.5C222.95,-112.5 80.25,-112.5 80.25,-112.5"/>
<polygon fill="#ff9ab1" stroke="#ff9ab1" points="80.25,-109 70.25,-112.5 80.25,-116 80.25,-109"/>
</g>
<!-- :ui:common -->
<g id="node4" class="node">
<title>:ui:common</title>
<ellipse fill="#b59aff" stroke="black" cx="267.84" cy="-72" rx="64.19" ry="18"/>
<text text-anchor="middle" x="267.84" y="-68.3" font-family="Times,serif" font-size="14.00">:ui:common</text>
</g>
<!-- :ui:common&#45;&gt;:ui:core -->
<g id="edge3" class="edge">
<title>:ui:common&#45;&gt;:ui:core</title>
<path fill="none" stroke="black" d="M232.22,-87C232.22,-87 80.23,-87 80.23,-87"/>
<polygon fill="black" stroke="black" points="80.23,-83.5 70.23,-87 80.23,-90.5 80.23,-83.5"/>
</g>
<!-- :ui:test:screenshot -->
<g id="node5" class="node">
<title>:ui:test:screenshot</title>
<ellipse fill="#9affb5" stroke="black" cx="267.84" cy="-18" rx="96.68" ry="18"/>
<text text-anchor="middle" x="267.84" y="-14.3" font-family="Times,serif" font-size="14.00">:ui:test:screenshot</text>
</g>
<!-- :ui:test:screenshot&#45;&gt;:ui:core -->
<g id="edge4" class="edge">
<title>:ui:test:screenshot&#45;&gt;:ui:core</title>
<path fill="none" stroke="black" stroke-dasharray="1,5" d="M185,-27.46C185,-45.71 185,-84 185,-84 185,-84 80.17,-84 80.17,-84"/>
<polygon fill="black" stroke="black" points="80.17,-80.5 70.17,-84 80.17,-87.5 80.17,-80.5"/>
</g>
</g>
</svg>
