<?xml version="1.0" encoding="UTF-8" standalone="no"?>
<!DOCTYPE svg PUBLIC "-//W3C//DTD SVG 1.1//EN"
 "http://www.w3.org/Graphics/SVG/1.1/DTD/svg11.dtd">
<!-- Generated by graphviz version 2.43.0 (0)
 -->
<!-- Title: %3 Pages: 1 -->
<svg width="394pt" height="334pt"
 viewBox="0.00 0.00 393.67 334.00" xmlns="http://www.w3.org/2000/svg" xmlns:xlink="http://www.w3.org/1999/xlink">
<g id="graph0" class="graph" transform="scale(1 1) rotate(0) translate(4 330)">
<title>%3</title>
<polygon fill="white" stroke="transparent" points="-4,4 -4,-330 389.67,-330 389.67,4 -4,4"/>
<text text-anchor="middle" x="192.84" y="-298" font-family="Times,serif" font-size="30.00">Dependents</text>
<text text-anchor="middle" x="192.84" y="-265" font-family="Times,serif" font-size="30.00"> </text>
<!-- :ui:core -->
<g id="node1" class="node">
<title>:ui:core</title>
<ellipse fill="#b59aff" stroke="black" cx="45.5" cy="-126" rx="45.49" ry="18"/>
<text text-anchor="middle" x="45.5" y="-122.3" font-family="Times,serif" font-size="14.00">:ui:core</text>
</g>
<!-- :shared -->
<g id="node2" class="node">
<title>:shared</title>
<ellipse fill="#b59aff" stroke="black" cx="288.83" cy="-234" rx="45.49" ry="18"/>
<text text-anchor="middle" x="288.83" y="-230.3" font-family="Times,serif" font-size="14.00">:shared</text>
</g>
<!-- :shared&#45;&gt;:ui:core -->
<g id="edge1" class="edge">
<title>:shared&#45;&gt;:ui:core</title>
<path fill="none" stroke="black" stroke-dasharray="1,5" d="M243.26,-234C172.68,-234 45,-234 45,-234 45,-234 45,-154.32 45,-154.32"/>
<polygon fill="black" stroke="black" points="48.5,-154.32 45,-144.32 41.5,-154.32 48.5,-154.32"/>
</g>
<!-- :konsist&#45;test -->
<g id="node3" class="node">
<title>:konsist&#45;test</title>
<ellipse fill="#b59aff" stroke="black" cx="288.83" cy="-180" rx="67.69" ry="18"/>
<text text-anchor="middle" x="288.83" y="-176.3" font-family="Times,serif" font-size="14.00">:konsist&#45;test</text>
</g>
<!-- :konsist&#45;test&#45;&gt;:ui:core -->
<g id="edge2" class="edge">
<title>:konsist&#45;test&#45;&gt;:ui:core</title>
<path fill="none" stroke="#ff9ab1" stroke-dasharray="1,5" d="M227,-172.48C227,-160.1 227,-136.8 227,-136.8 227,-136.8 92.23,-136.8 92.23,-136.8"/>
<polygon fill="#ff9ab1" stroke="#ff9ab1" points="92.23,-133.3 82.23,-136.8 92.23,-140.3 92.23,-133.3"/>
</g>
<!-- :ui:image -->
<g id="node4" class="node">
<title>:ui:image</title>
<ellipse fill="#b59aff" stroke="black" cx="288.83" cy="-126" rx="53.89" ry="18"/>
<text text-anchor="middle" x="288.83" y="-122.3" font-family="Times,serif" font-size="14.00">:ui:image</text>
</g>
<!-- :ui:image&#45;&gt;:ui:core -->
<g id="edge3" class="edge">
<title>:ui:image&#45;&gt;:ui:core</title>
<path fill="none" stroke="black" stroke-dasharray="1,5" d="M235.73,-129.6C235.73,-129.6 100.32,-129.6 100.32,-129.6"/>
<polygon fill="black" stroke="black" points="100.32,-126.1 90.32,-129.6 100.32,-133.1 100.32,-126.1"/>
</g>
<!-- :ui:common -->
<g id="node5" class="node">
<title>:ui:common</title>
<ellipse fill="#b59aff" stroke="black" cx="288.83" cy="-72" rx="64.19" ry="18"/>
<text text-anchor="middle" x="288.83" y="-68.3" font-family="Times,serif" font-size="14.00">:ui:common</text>
</g>
<!-- :ui:common&#45;&gt;:ui:core -->
<g id="edge4" class="edge">
<title>:ui:common&#45;&gt;:ui:core</title>
<path fill="none" stroke="black" d="M231,-80.32C231,-94.64 231,-122.4 231,-122.4 231,-122.4 100.4,-122.4 100.4,-122.4"/>
<polygon fill="black" stroke="black" points="100.4,-118.9 90.4,-122.4 100.4,-125.9 100.4,-118.9"/>
</g>
<!-- :ui:test:screenshot -->
<g id="node6" class="node">
<title>:ui:test:screenshot</title>
<ellipse fill="#9affb5" stroke="black" cx="288.83" cy="-18" rx="96.68" ry="18"/>
<text text-anchor="middle" x="288.83" y="-14.3" font-family="Times,serif" font-size="14.00">:ui:test:screenshot</text>
</g>
<!-- :ui:test:screenshot&#45;&gt;:ui:core -->
<g id="edge5" class="edge">
<title>:ui:test:screenshot&#45;&gt;:ui:core</title>
<path fill="none" stroke="black" stroke-dasharray="1,5" d="M206,-27.68C206,-52.26 206,-115.2 206,-115.2 206,-115.2 91.92,-115.2 91.92,-115.2"/>
<polygon fill="black" stroke="black" points="91.92,-111.7 81.92,-115.2 91.92,-118.7 91.92,-111.7"/>
</g>
</g>
</svg>
