<?xml version="1.0" encoding="UTF-8" standalone="no"?>
<!DOCTYPE svg PUBLIC "-//W3C//DTD SVG 1.1//EN"
 "http://www.w3.org/Graphics/SVG/1.1/DTD/svg11.dtd">
<!-- Generated by graphviz version 2.43.0 (0)
 -->
<!-- Title: %3 Pages: 1 -->
<svg width="462pt" height="874pt"
 viewBox="0.00 0.00 462.37 874.00" xmlns="http://www.w3.org/2000/svg" xmlns:xlink="http://www.w3.org/1999/xlink">
<g id="graph0" class="graph" transform="scale(1 1) rotate(0) translate(4 870)">
<title>%3</title>
<polygon fill="white" stroke="transparent" points="-4,4 -4,-870 458.37,-870 458.37,4 -4,4"/>
<text text-anchor="middle" x="227.19" y="-838" font-family="Times,serif" font-size="30.00">Dependents</text>
<text text-anchor="middle" x="227.19" y="-805" font-family="Times,serif" font-size="30.00"> </text>
<!-- :ui:core -->
<g id="node1" class="node">
<title>:ui:core</title>
<polygon fill="#b59aff" stroke="black" points="70,-414 0,-414 0,-378 70,-378 70,-414"/>
<text text-anchor="middle" x="35" y="-392.3" font-family="Times,serif" font-size="14.00">:ui:core</text>
</g>
<!-- :shared -->
<g id="node2" class="node">
<title>:shared</title>
<ellipse fill="#b59aff" stroke="black" cx="312.69" cy="-774" rx="45.49" ry="18"/>
<text text-anchor="middle" x="312.69" y="-770.3" font-family="Times,serif" font-size="14.00">:shared</text>
</g>
<!-- :shared&#45;&gt;:ui:core -->
<g id="edge1" class="edge">
<title>:shared&#45;&gt;:ui:core</title>
<path fill="none" stroke="black" stroke-dasharray="1,5" d="M267.07,-774C182.08,-774 8,-774 8,-774 8,-774 8,-424.23 8,-424.23"/>
<polygon fill="black" stroke="black" points="11.5,-424.23 8,-414.23 4.5,-424.23 11.5,-424.23"/>
</g>
<!-- :desktop:app -->
<g id="node3" class="node">
<title>:desktop:app</title>
<ellipse fill="#9affb5" stroke="black" cx="312.69" cy="-720" rx="70.39" ry="18"/>
<text text-anchor="middle" x="312.69" y="-716.3" font-family="Times,serif" font-size="14.00">:desktop:app</text>
</g>
<!-- :desktop:app&#45;&gt;:ui:core -->
<g id="edge2" class="edge">
<title>:desktop:app&#45;&gt;:ui:core</title>
<path fill="none" stroke="black" stroke-dasharray="1,5" d="M242.24,-720C154.78,-720 17,-720 17,-720 17,-720 17,-424.35 17,-424.35"/>
<polygon fill="black" stroke="black" points="20.5,-424.35 17,-414.35 13.5,-424.35 20.5,-424.35"/>
</g>
<!-- :ui:image -->
<g id="node4" class="node">
<title>:ui:image</title>
<ellipse fill="#b59aff" stroke="black" cx="312.69" cy="-666" rx="53.89" ry="18"/>
<text text-anchor="middle" x="312.69" y="-662.3" font-family="Times,serif" font-size="14.00">:ui:image</text>
</g>
<!-- :ui:image&#45;&gt;:ui:core -->
<g id="edge3" class="edge">
<title>:ui:image&#45;&gt;:ui:core</title>
<path fill="none" stroke="black" stroke-dasharray="1,5" d="M258.43,-666C175.31,-666 26,-666 26,-666 26,-666 26,-424.13 26,-424.13"/>
<polygon fill="black" stroke="black" points="29.5,-424.13 26,-414.13 22.5,-424.13 29.5,-424.13"/>
</g>
<!-- :ui:common -->
<g id="node5" class="node">
<title>:ui:common</title>
<ellipse fill="#b59aff" stroke="black" cx="312.69" cy="-612" rx="64.19" ry="18"/>
<text text-anchor="middle" x="312.69" y="-608.3" font-family="Times,serif" font-size="14.00">:ui:common</text>
</g>
<!-- :ui:common&#45;&gt;:ui:core -->
<g id="edge4" class="edge">
<title>:ui:common&#45;&gt;:ui:core</title>
<path fill="none" stroke="black" stroke-dasharray="1,5" d="M248.28,-612C166.25,-612 35,-612 35,-612 35,-612 35,-424.04 35,-424.04"/>
<polygon fill="black" stroke="black" points="38.5,-424.04 35,-414.04 31.5,-424.04 38.5,-424.04"/>
</g>
<!-- :android:app -->
<g id="node6" class="node">
<title>:android:app</title>
<ellipse fill="#9affb5" stroke="black" cx="312.69" cy="-558" rx="69.59" ry="18"/>
<text text-anchor="middle" x="312.69" y="-554.3" font-family="Times,serif" font-size="14.00">:android:app</text>
</g>
<!-- :android:app&#45;&gt;:ui:core -->
<g id="edge5" class="edge">
<title>:android:app&#45;&gt;:ui:core</title>
<path fill="none" stroke="black" stroke-dasharray="1,5" d="M242.89,-558C162.98,-558 43,-558 43,-558 43,-558 43,-424.27 43,-424.27"/>
<polygon fill="black" stroke="black" points="46.5,-424.27 43,-414.27 39.5,-424.27 46.5,-424.27"/>
</g>
<!-- :shared:feature:settings -->
<g id="node7" class="node">
<title>:shared:feature:settings</title>
<ellipse fill="#b59aff" stroke="black" cx="312.69" cy="-504" rx="122.38" ry="18"/>
<text text-anchor="middle" x="312.69" y="-500.3" font-family="Times,serif" font-size="14.00">:shared:feature:settings</text>
</g>
<!-- :shared:feature:settings&#45;&gt;:ui:core -->
<g id="edge6" class="edge">
<title>:shared:feature:settings&#45;&gt;:ui:core</title>
<path fill="none" stroke="black" stroke-dasharray="1,5" d="M190.36,-504C122.63,-504 52,-504 52,-504 52,-504 52,-424.32 52,-424.32"/>
<polygon fill="black" stroke="black" points="55.5,-424.32 52,-414.32 48.5,-424.32 55.5,-424.32"/>
</g>
<!-- :shared:feature:licenses -->
<g id="node8" class="node">
<title>:shared:feature:licenses</title>
<ellipse fill="#b59aff" stroke="black" cx="312.69" cy="-450" rx="122.38" ry="18"/>
<text text-anchor="middle" x="312.69" y="-446.3" font-family="Times,serif" font-size="14.00">:shared:feature:licenses</text>
</g>
<!-- :shared:feature:licenses&#45;&gt;:ui:core -->
<g id="edge7" class="edge">
<title>:shared:feature:licenses&#45;&gt;:ui:core</title>
<path fill="none" stroke="black" stroke-dasharray="1,5" d="M190.16,-450C126.15,-450 61,-450 61,-450 61,-450 61,-424.28 61,-424.28"/>
<polygon fill="black" stroke="black" points="64.5,-424.28 61,-414.28 57.5,-424.28 64.5,-424.28"/>
</g>
<!-- :shared:feature:search -->
<g id="node9" class="node">
<title>:shared:feature:search</title>
<ellipse fill="#b59aff" stroke="black" cx="312.69" cy="-396" rx="115.88" ry="18"/>
<text text-anchor="middle" x="312.69" y="-392.3" font-family="Times,serif" font-size="14.00">:shared:feature:search</text>
</g>
<!-- :shared:feature:search&#45;&gt;:ui:core -->
<g id="edge8" class="edge">
<title>:shared:feature:search&#45;&gt;:ui:core</title>
<path fill="none" stroke="black" stroke-dasharray="1,5" d="M212.44,-405C212.44,-405 80.17,-405 80.17,-405"/>
<polygon fill="black" stroke="black" points="80.17,-401.5 70.17,-405 80.17,-408.5 80.17,-401.5"/>
</g>
<!-- :shared:feature:collections -->
<g id="node10" class="node">
<title>:shared:feature:collections</title>
<ellipse fill="#b59aff" stroke="black" cx="312.69" cy="-342" rx="133.78" ry="18"/>
<text text-anchor="middle" x="312.69" y="-338.3" font-family="Times,serif" font-size="14.00">:shared:feature:collections</text>
</g>
<!-- :shared:feature:collections&#45;&gt;:ui:core -->
<g id="edge9" class="edge">
<title>:shared:feature:collections&#45;&gt;:ui:core</title>
<path fill="none" stroke="black" stroke-dasharray="1,5" d="M184,-346.98C184,-360.35 184,-396 184,-396 184,-396 80.31,-396 80.31,-396"/>
<polygon fill="black" stroke="black" points="80.31,-392.5 70.31,-396 80.31,-399.5 80.31,-392.5"/>
</g>
<!-- :shared:feature:stats -->
<g id="node11" class="node">
<title>:shared:feature:stats</title>
<ellipse fill="#b59aff" stroke="black" cx="312.69" cy="-288" rx="107.78" ry="18"/>
<text text-anchor="middle" x="312.69" y="-284.3" font-family="Times,serif" font-size="14.00">:shared:feature:stats</text>
</g>
<!-- :shared:feature:stats&#45;&gt;:ui:core -->
<g id="edge10" class="edge">
<title>:shared:feature:stats&#45;&gt;:ui:core</title>
<path fill="none" stroke="black" stroke-dasharray="1,5" d="M204.68,-288C135.26,-288 58,-288 58,-288 58,-288 58,-367.68 58,-367.68"/>
<polygon fill="black" stroke="black" points="54.5,-367.68 58,-377.68 61.5,-367.68 54.5,-367.68"/>
</g>
<!-- :shared:feature:details -->
<g id="node12" class="node">
<title>:shared:feature:details</title>
<ellipse fill="#b59aff" stroke="black" cx="312.69" cy="-234" rx="116.18" ry="18"/>
<text text-anchor="middle" x="312.69" y="-230.3" font-family="Times,serif" font-size="14.00">:shared:feature:details</text>
</g>
<!-- :shared:feature:details&#45;&gt;:ui:core -->
<g id="edge11" class="edge">
<title>:shared:feature:details&#45;&gt;:ui:core</title>
<path fill="none" stroke="black" stroke-dasharray="1,5" d="M196.1,-234C124.34,-234 46,-234 46,-234 46,-234 46,-367.73 46,-367.73"/>
<polygon fill="black" stroke="black" points="42.5,-367.73 46,-377.73 49.5,-367.73 42.5,-367.73"/>
</g>
<!-- :shared:feature:history -->
<g id="node13" class="node">
<title>:shared:feature:history</title>
<ellipse fill="#b59aff" stroke="black" cx="312.69" cy="-180" rx="117.78" ry="18"/>
<text text-anchor="middle" x="312.69" y="-176.3" font-family="Times,serif" font-size="14.00">:shared:feature:history</text>
</g>
<!-- :shared:feature:history&#45;&gt;:ui:core -->
<g id="edge12" class="edge">
<title>:shared:feature:history&#45;&gt;:ui:core</title>
<path fill="none" stroke="black" stroke-dasharray="1,5" d="M194.92,-180C119.24,-180 35,-180 35,-180 35,-180 35,-367.96 35,-367.96"/>
<polygon fill="black" stroke="black" points="31.5,-367.96 35,-377.96 38.5,-367.96 31.5,-367.96"/>
</g>
<!-- :ui:test:screenshot -->
<g id="node14" class="node">
<title>:ui:test:screenshot</title>
<ellipse fill="#9affb5" stroke="black" cx="312.69" cy="-126" rx="96.68" ry="18"/>
<text text-anchor="middle" x="312.69" y="-122.3" font-family="Times,serif" font-size="14.00">:ui:test:screenshot</text>
</g>
<!-- :ui:test:screenshot&#45;&gt;:ui:core -->
<g id="edge13" class="edge">
<title>:ui:test:screenshot&#45;&gt;:ui:core</title>
<path fill="none" stroke="black" stroke-dasharray="1,5" d="M215.82,-126C131.61,-126 23,-126 23,-126 23,-126 23,-367.87 23,-367.87"/>
<polygon fill="black" stroke="black" points="19.5,-367.87 23,-377.87 26.5,-367.87 19.5,-367.87"/>
</g>
<!-- :android:feature:nowplaying -->
<g id="node15" class="node">
<title>:android:feature:nowplaying</title>
<ellipse fill="#9affb5" stroke="black" cx="312.69" cy="-72" rx="141.88" ry="18"/>
<text text-anchor="middle" x="312.69" y="-68.3" font-family="Times,serif" font-size="14.00">:android:feature:nowplaying</text>
</g>
<!-- :android:feature:nowplaying&#45;&gt;:ui:core -->
<g id="edge14" class="edge">
<title>:android:feature:nowplaying&#45;&gt;:ui:core</title>
<path fill="none" stroke="black" stroke-dasharray="1,5" d="M174,-75.98C174,-112.45 174,-387 174,-387 174,-387 80.08,-387 80.08,-387"/>
<polygon fill="black" stroke="black" points="80.08,-383.5 70.08,-387 80.08,-390.5 80.08,-383.5"/>
</g>
<!-- :android:feature:spotify -->
<g id="node16" class="node">
<title>:android:feature:spotify</title>
<ellipse fill="#9affb5" stroke="black" cx="312.69" cy="-18" rx="120.48" ry="18"/>
<text text-anchor="middle" x="312.69" y="-14.3" font-family="Times,serif" font-size="14.00">:android:feature:spotify</text>
</g>
<!-- :android:feature:spotify&#45;&gt;:ui:core -->
<g id="edge15" class="edge">
<title>:android:feature:spotify&#45;&gt;:ui:core</title>
<path fill="none" stroke="black" stroke-dasharray="1,5" d="M192.15,-18C108.12,-18 11,-18 11,-18 11,-18 11,-367.77 11,-367.77"/>
<polygon fill="black" stroke="black" points="7.5,-367.77 11,-377.77 14.5,-367.77 7.5,-367.77"/>
</g>
</g>
</svg>
