<?xml version="1.0" encoding="UTF-8" standalone="no"?>
<!DOCTYPE svg PUBLIC "-//W3C//DTD SVG 1.1//EN"
 "http://www.w3.org/Graphics/SVG/1.1/DTD/svg11.dtd">
<!-- Generated by graphviz version 2.43.0 (0)
 -->
<!-- Title: %3 Pages: 1 -->
<svg width="373pt" height="334pt"
 viewBox="0.00 0.00 372.68 334.00" xmlns="http://www.w3.org/2000/svg" xmlns:xlink="http://www.w3.org/1999/xlink">
<g id="graph0" class="graph" transform="scale(1 1) rotate(0) translate(4 330)">
<title>%3</title>
<polygon fill="white" stroke="transparent" points="-4,4 -4,-330 368.68,-330 368.68,4 -4,4"/>
<text text-anchor="middle" x="182.34" y="-298" font-family="Times,serif" font-size="30.00">Dependents</text>
<text text-anchor="middle" x="182.34" y="-265" font-family="Times,serif" font-size="30.00"> </text>
<!-- :ui:core -->
<g id="node1" class="node">
<title>:ui:core</title>
<polygon fill="#b59aff" stroke="black" points="70,-144 0,-144 0,-108 70,-108 70,-144"/>
<text text-anchor="middle" x="35" y="-122.3" font-family="Times,serif" font-size="14.00">:ui:core</text>
</g>
<!-- :shared -->
<g id="node2" class="node">
<title>:shared</title>
<ellipse fill="#b59aff" stroke="black" cx="267.84" cy="-234" rx="45.49" ry="18"/>
<text text-anchor="middle" x="267.84" y="-230.3" font-family="Times,serif" font-size="14.00">:shared</text>
</g>
<!-- :shared&#45;&gt;:ui:core -->
<g id="edge1" class="edge">
<title>:shared&#45;&gt;:ui:core</title>
<path fill="none" stroke="black" stroke-dasharray="1,5" d="M222.12,-234C154.31,-234 35,-234 35,-234 35,-234 35,-154.32 35,-154.32"/>
<polygon fill="black" stroke="black" points="38.5,-154.32 35,-144.32 31.5,-154.32 38.5,-154.32"/>
</g>
<!-- :konsist&#45;test -->
<g id="node3" class="node">
<title>:konsist&#45;test</title>
<ellipse fill="#b59aff" stroke="black" cx="267.84" cy="-180" rx="67.69" ry="18"/>
<text text-anchor="middle" x="267.84" y="-176.3" font-family="Times,serif" font-size="14.00">:konsist&#45;test</text>
</g>
<!-- :konsist&#45;test&#45;&gt;:ui:core -->
<g id="edge2" class="edge">
<title>:konsist&#45;test&#45;&gt;:ui:core</title>
<path fill="none" stroke="#ff9ab1" stroke-dasharray="1,5" d="M206,-172.48C206,-160.1 206,-136.8 206,-136.8 206,-136.8 80.02,-136.8 80.02,-136.8"/>
<polygon fill="#ff9ab1" stroke="#ff9ab1" points="80.02,-133.3 70.02,-136.8 80.02,-140.3 80.02,-133.3"/>
</g>
<!-- :ui:image -->
<g id="node4" class="node">
<title>:ui:image</title>
<ellipse fill="#b59aff" stroke="black" cx="267.84" cy="-126" rx="53.89" ry="18"/>
<text text-anchor="middle" x="267.84" y="-122.3" font-family="Times,serif" font-size="14.00">:ui:image</text>
</g>
<!-- :ui:image&#45;&gt;:ui:core -->
<g id="edge3" class="edge">
<title>:ui:image&#45;&gt;:ui:core</title>
<path fill="none" stroke="black" stroke-dasharray="1,5" d="M214.71,-129.6C214.71,-129.6 80.19,-129.6 80.19,-129.6"/>
<polygon fill="black" stroke="black" points="80.19,-126.1 70.19,-129.6 80.19,-133.1 80.19,-126.1"/>
</g>
<!-- :ui:common -->
<g id="node5" class="node">
<title>:ui:common</title>
<ellipse fill="#b59aff" stroke="black" cx="267.84" cy="-72" rx="64.19" ry="18"/>
<text text-anchor="middle" x="267.84" y="-68.3" font-family="Times,serif" font-size="14.00">:ui:common</text>
</g>
<!-- :ui:common&#45;&gt;:ui:core -->
<g id="edge4" class="edge">
<title>:ui:common&#45;&gt;:ui:core</title>
<path fill="none" stroke="black" d="M210,-80.32C210,-94.64 210,-122.4 210,-122.4 210,-122.4 80.41,-122.4 80.41,-122.4"/>
<polygon fill="black" stroke="black" points="80.41,-118.9 70.41,-122.4 80.41,-125.9 80.41,-118.9"/>
</g>
<!-- :ui:test:screenshot -->
<g id="node6" class="node">
<title>:ui:test:screenshot</title>
<ellipse fill="#9affb5" stroke="black" cx="267.84" cy="-18" rx="96.68" ry="18"/>
<text text-anchor="middle" x="267.84" y="-14.3" font-family="Times,serif" font-size="14.00">:ui:test:screenshot</text>
</g>
<!-- :ui:test:screenshot&#45;&gt;:ui:core -->
<g id="edge5" class="edge">
<title>:ui:test:screenshot&#45;&gt;:ui:core</title>
<path fill="none" stroke="black" stroke-dasharray="1,5" d="M185,-27.68C185,-52.26 185,-115.2 185,-115.2 185,-115.2 80.17,-115.2 80.17,-115.2"/>
<polygon fill="black" stroke="black" points="80.17,-111.7 70.17,-115.2 80.17,-118.7 80.17,-111.7"/>
</g>
</g>
</svg>
