<?xml version="1.0" encoding="UTF-8" standalone="no"?>
<!DOCTYPE svg PUBLIC "-//W3C//DTD SVG 1.1//EN"
 "http://www.w3.org/Graphics/SVG/1.1/DTD/svg11.dtd">
<!-- Generated by graphviz version 2.43.0 (0)
 -->
<!-- Title: %3 Pages: 1 -->
<svg width="462pt" height="928pt"
 viewBox="0.00 0.00 462.37 928.00" xmlns="http://www.w3.org/2000/svg" xmlns:xlink="http://www.w3.org/1999/xlink">
<g id="graph0" class="graph" transform="scale(1 1) rotate(0) translate(4 924)">
<title>%3</title>
<polygon fill="white" stroke="transparent" points="-4,4 -4,-924 458.37,-924 458.37,4 -4,4"/>
<text text-anchor="middle" x="227.19" y="-892" font-family="Times,serif" font-size="30.00">Dependents</text>
<text text-anchor="middle" x="227.19" y="-859" font-family="Times,serif" font-size="30.00"> </text>
<!-- :ui:core -->
<g id="node1" class="node">
<title>:ui:core</title>
<polygon fill="#b59aff" stroke="black" points="70,-441 0,-441 0,-405 70,-405 70,-441"/>
<text text-anchor="middle" x="35" y="-419.3" font-family="Times,serif" font-size="14.00">:ui:core</text>
</g>
<!-- :shared -->
<g id="node2" class="node">
<title>:shared</title>
<ellipse fill="#b59aff" stroke="black" cx="312.69" cy="-828" rx="45.49" ry="18"/>
<text text-anchor="middle" x="312.69" y="-824.3" font-family="Times,serif" font-size="14.00">:shared</text>
</g>
<!-- :shared&#45;&gt;:ui:core -->
<g id="edge1" class="edge">
<title>:shared&#45;&gt;:ui:core</title>
<path fill="none" stroke="black" stroke-dasharray="1,5" d="M267.07,-828C182.08,-828 8,-828 8,-828 8,-828 8,-451.19 8,-451.19"/>
<polygon fill="black" stroke="black" points="11.5,-451.19 8,-441.19 4.5,-451.19 11.5,-451.19"/>
</g>
<!-- :konsist&#45;test -->
<g id="node3" class="node">
<title>:konsist&#45;test</title>
<ellipse fill="#b59aff" stroke="black" cx="312.69" cy="-774" rx="67.69" ry="18"/>
<text text-anchor="middle" x="312.69" y="-770.3" font-family="Times,serif" font-size="14.00">:konsist&#45;test</text>
</g>
<!-- :konsist&#45;test&#45;&gt;:ui:core -->
<g id="edge2" class="edge">
<title>:konsist&#45;test&#45;&gt;:ui:core</title>
<path fill="none" stroke="#ff9ab1" stroke-dasharray="1,5" d="M244.85,-774C157.55,-774 17,-774 17,-774 17,-774 17,-451.38 17,-451.38"/>
<polygon fill="#ff9ab1" stroke="#ff9ab1" points="20.5,-451.38 17,-441.38 13.5,-451.38 20.5,-451.38"/>
</g>
<!-- :desktop:app -->
<g id="node4" class="node">
<title>:desktop:app</title>
<ellipse fill="#9affb5" stroke="black" cx="312.69" cy="-720" rx="70.39" ry="18"/>
<text text-anchor="middle" x="312.69" y="-716.3" font-family="Times,serif" font-size="14.00">:desktop:app</text>
</g>
<!-- :desktop:app&#45;&gt;:ui:core -->
<g id="edge3" class="edge">
<title>:desktop:app&#45;&gt;:ui:core</title>
<path fill="none" stroke="black" stroke-dasharray="1,5" d="M242.19,-720C157.3,-720 26,-720 26,-720 26,-720 26,-451.13 26,-451.13"/>
<polygon fill="black" stroke="black" points="29.5,-451.13 26,-441.13 22.5,-451.13 29.5,-451.13"/>
</g>
<!-- :ui:image -->
<g id="node5" class="node">
<title>:ui:image</title>
<ellipse fill="#b59aff" stroke="black" cx="312.69" cy="-666" rx="53.89" ry="18"/>
<text text-anchor="middle" x="312.69" y="-662.3" font-family="Times,serif" font-size="14.00">:ui:image</text>
</g>
<!-- :ui:image&#45;&gt;:ui:core -->
<g id="edge4" class="edge">
<title>:ui:image&#45;&gt;:ui:core</title>
<path fill="none" stroke="black" stroke-dasharray="1,5" d="M258.49,-666C177.68,-666 35,-666 35,-666 35,-666 35,-451.26 35,-451.26"/>
<polygon fill="black" stroke="black" points="38.5,-451.26 35,-441.26 31.5,-451.26 38.5,-451.26"/>
</g>
<!-- :ui:common -->
<g id="node6" class="node">
<title>:ui:common</title>
<ellipse fill="#b59aff" stroke="black" cx="312.69" cy="-612" rx="64.19" ry="18"/>
<text text-anchor="middle" x="312.69" y="-608.3" font-family="Times,serif" font-size="14.00">:ui:common</text>
</g>
<!-- :ui:common&#45;&gt;:ui:core -->
<g id="edge5" class="edge">
<title>:ui:common&#45;&gt;:ui:core</title>
<path fill="none" stroke="black" stroke-dasharray="1,5" d="M248.09,-612C168.31,-612 43,-612 43,-612 43,-612 43,-451.12 43,-451.12"/>
<polygon fill="black" stroke="black" points="46.5,-451.12 43,-441.12 39.5,-451.12 46.5,-451.12"/>
</g>
<!-- :android:app -->
<g id="node7" class="node">
<title>:android:app</title>
<ellipse fill="#9affb5" stroke="black" cx="312.69" cy="-558" rx="69.59" ry="18"/>
<text text-anchor="middle" x="312.69" y="-554.3" font-family="Times,serif" font-size="14.00">:android:app</text>
</g>
<!-- :android:app&#45;&gt;:ui:core -->
<g id="edge6" class="edge">
<title>:android:app&#45;&gt;:ui:core</title>
<path fill="none" stroke="black" stroke-dasharray="1,5" d="M242.83,-558C165.61,-558 52,-558 52,-558 52,-558 52,-451.21 52,-451.21"/>
<polygon fill="black" stroke="black" points="55.5,-451.21 52,-441.21 48.5,-451.21 55.5,-451.21"/>
</g>
<!-- :shared:feature:settings -->
<g id="node8" class="node">
<title>:shared:feature:settings</title>
<ellipse fill="#b59aff" stroke="black" cx="312.69" cy="-504" rx="122.38" ry="18"/>
<text text-anchor="middle" x="312.69" y="-500.3" font-family="Times,serif" font-size="14.00">:shared:feature:settings</text>
</g>
<!-- :shared:feature:settings&#45;&gt;:ui:core -->
<g id="edge7" class="edge">
<title>:shared:feature:settings&#45;&gt;:ui:core</title>
<path fill="none" stroke="black" stroke-dasharray="1,5" d="M190.16,-504C126.15,-504 61,-504 61,-504 61,-504 61,-451.38 61,-451.38"/>
<polygon fill="black" stroke="black" points="64.5,-451.38 61,-441.38 57.5,-451.38 64.5,-451.38"/>
</g>
<!-- :shared:feature:licenses -->
<g id="node9" class="node">
<title>:shared:feature:licenses</title>
<ellipse fill="#b59aff" stroke="black" cx="312.69" cy="-450" rx="122.38" ry="18"/>
<text text-anchor="middle" x="312.69" y="-446.3" font-family="Times,serif" font-size="14.00">:shared:feature:licenses</text>
</g>
<!-- :shared:feature:licenses&#45;&gt;:ui:core -->
<g id="edge8" class="edge">
<title>:shared:feature:licenses&#45;&gt;:ui:core</title>
<path fill="none" stroke="black" stroke-dasharray="1,5" d="M231.62,-436.5C231.62,-436.5 80.02,-436.5 80.02,-436.5"/>
<polygon fill="black" stroke="black" points="80.02,-433 70.02,-436.5 80.02,-440 80.02,-433"/>
</g>
<!-- :shared:feature:search -->
<g id="node10" class="node">
<title>:shared:feature:search</title>
<ellipse fill="#b59aff" stroke="black" cx="312.69" cy="-396" rx="115.88" ry="18"/>
<text text-anchor="middle" x="312.69" y="-392.3" font-family="Times,serif" font-size="14.00">:shared:feature:search</text>
</g>
<!-- :shared:feature:search&#45;&gt;:ui:core -->
<g id="edge9" class="edge">
<title>:shared:feature:search&#45;&gt;:ui:core</title>
<path fill="none" stroke="black" stroke-dasharray="1,5" d="M256.49,-411.75C256.49,-411.75 80.03,-411.75 80.03,-411.75"/>
<polygon fill="black" stroke="black" points="80.03,-408.25 70.03,-411.75 80.03,-415.25 80.03,-408.25"/>
</g>
<!-- :shared:feature:collections -->
<g id="node11" class="node">
<title>:shared:feature:collections</title>
<ellipse fill="#b59aff" stroke="black" cx="312.69" cy="-342" rx="133.78" ry="18"/>
<text text-anchor="middle" x="312.69" y="-338.3" font-family="Times,serif" font-size="14.00">:shared:feature:collections</text>
</g>
<!-- :shared:feature:collections&#45;&gt;:ui:core -->
<g id="edge10" class="edge">
<title>:shared:feature:collections&#45;&gt;:ui:core</title>
<path fill="none" stroke="black" stroke-dasharray="1,5" d="M184,-347.3C184,-363.21 184,-409.5 184,-409.5 184,-409.5 80.31,-409.5 80.31,-409.5"/>
<polygon fill="black" stroke="black" points="80.31,-406 70.31,-409.5 80.31,-413 80.31,-406"/>
</g>
<!-- :shared:feature:stats -->
<g id="node12" class="node">
<title>:shared:feature:stats</title>
<ellipse fill="#b59aff" stroke="black" cx="312.69" cy="-288" rx="107.78" ry="18"/>
<text text-anchor="middle" x="312.69" y="-284.3" font-family="Times,serif" font-size="14.00">:shared:feature:stats</text>
</g>
<!-- :shared:feature:stats&#45;&gt;:ui:core -->
<g id="edge11" class="edge">
<title>:shared:feature:stats&#45;&gt;:ui:core</title>
<path fill="none" stroke="black" stroke-dasharray="1,5" d="M204.68,-288C135.26,-288 58,-288 58,-288 58,-288 58,-394.79 58,-394.79"/>
<polygon fill="black" stroke="black" points="54.5,-394.79 58,-404.79 61.5,-394.79 54.5,-394.79"/>
</g>
<!-- :shared:feature:details -->
<g id="node13" class="node">
<title>:shared:feature:details</title>
<ellipse fill="#b59aff" stroke="black" cx="312.69" cy="-234" rx="116.18" ry="18"/>
<text text-anchor="middle" x="312.69" y="-230.3" font-family="Times,serif" font-size="14.00">:shared:feature:details</text>
</g>
<!-- :shared:feature:details&#45;&gt;:ui:core -->
<g id="edge12" class="edge">
<title>:shared:feature:details&#45;&gt;:ui:core</title>
<path fill="none" stroke="black" stroke-dasharray="1,5" d="M196.1,-234C124.34,-234 46,-234 46,-234 46,-234 46,-394.88 46,-394.88"/>
<polygon fill="black" stroke="black" points="42.5,-394.88 46,-404.88 49.5,-394.88 42.5,-394.88"/>
</g>
<!-- :shared:feature:history -->
<g id="node14" class="node">
<title>:shared:feature:history</title>
<ellipse fill="#b59aff" stroke="black" cx="312.69" cy="-180" rx="117.78" ry="18"/>
<text text-anchor="middle" x="312.69" y="-176.3" font-family="Times,serif" font-size="14.00">:shared:feature:history</text>
</g>
<!-- :shared:feature:history&#45;&gt;:ui:core -->
<g id="edge13" class="edge">
<title>:shared:feature:history&#45;&gt;:ui:core</title>
<path fill="none" stroke="black" stroke-dasharray="1,5" d="M194.92,-180C119.24,-180 35,-180 35,-180 35,-180 35,-394.74 35,-394.74"/>
<polygon fill="black" stroke="black" points="31.5,-394.74 35,-404.74 38.5,-394.74 31.5,-394.74"/>
</g>
<!-- :ui:test:screenshot -->
<g id="node15" class="node">
<title>:ui:test:screenshot</title>
<ellipse fill="#9affb5" stroke="black" cx="312.69" cy="-126" rx="96.68" ry="18"/>
<text text-anchor="middle" x="312.69" y="-122.3" font-family="Times,serif" font-size="14.00">:ui:test:screenshot</text>
</g>
<!-- :ui:test:screenshot&#45;&gt;:ui:core -->
<g id="edge14" class="edge">
<title>:ui:test:screenshot&#45;&gt;:ui:core</title>
<path fill="none" stroke="black" stroke-dasharray="1,5" d="M215.82,-126C131.61,-126 23,-126 23,-126 23,-126 23,-394.87 23,-394.87"/>
<polygon fill="black" stroke="black" points="19.5,-394.87 23,-404.87 26.5,-394.87 19.5,-394.87"/>
</g>
<!-- :android:feature:nowplaying -->
<g id="node16" class="node">
<title>:android:feature:nowplaying</title>
<ellipse fill="#9affb5" stroke="black" cx="312.69" cy="-72" rx="141.88" ry="18"/>
<text text-anchor="middle" x="312.69" y="-68.3" font-family="Times,serif" font-size="14.00">:android:feature:nowplaying</text>
</g>
<!-- :android:feature:nowplaying&#45;&gt;:ui:core -->
<g id="edge15" class="edge">
<title>:android:feature:nowplaying&#45;&gt;:ui:core</title>
<path fill="none" stroke="black" stroke-dasharray="1,5" d="M174,-75.77C174,-112.6 174,-407.25 174,-407.25 174,-407.25 80.08,-407.25 80.08,-407.25"/>
<polygon fill="black" stroke="black" points="80.08,-403.75 70.08,-407.25 80.08,-410.75 80.08,-403.75"/>
</g>
<!-- :android:feature:spotify -->
<g id="node17" class="node">
<title>:android:feature:spotify</title>
<ellipse fill="#9affb5" stroke="black" cx="312.69" cy="-18" rx="120.48" ry="18"/>
<text text-anchor="middle" x="312.69" y="-14.3" font-family="Times,serif" font-size="14.00">:android:feature:spotify</text>
</g>
<!-- :android:feature:spotify&#45;&gt;:ui:core -->
<g id="edge16" class="edge">
<title>:android:feature:spotify&#45;&gt;:ui:core</title>
<path fill="none" stroke="black" stroke-dasharray="1,5" d="M192.15,-18C108.12,-18 11,-18 11,-18 11,-18 11,-394.81 11,-394.81"/>
<polygon fill="black" stroke="black" points="7.5,-394.81 11,-404.81 14.5,-394.81 7.5,-394.81"/>
</g>
</g>
</svg>
