<?xml version="1.0" encoding="UTF-8" standalone="no"?>
<!DOCTYPE svg PUBLIC "-//W3C//DTD SVG 1.1//EN"
 "http://www.w3.org/Graphics/SVG/1.1/DTD/svg11.dtd">
<!-- Generated by graphviz version 2.43.0 (0)
 -->
<!-- Title: %3 Pages: 1 -->
<svg width="314pt" height="226pt"
 viewBox="0.00 0.00 314.19 226.00" xmlns="http://www.w3.org/2000/svg" xmlns:xlink="http://www.w3.org/1999/xlink">
<g id="graph0" class="graph" transform="scale(1 1) rotate(0) translate(4 222)">
<title>%3</title>
<polygon fill="white" stroke="transparent" points="-4,4 -4,-222 310.19,-222 310.19,4 -4,4"/>
<text text-anchor="middle" x="153.09" y="-190" font-family="Times,serif" font-size="30.00">Dependents</text>
<text text-anchor="middle" x="153.09" y="-157" font-family="Times,serif" font-size="30.00"> </text>
<!-- :ui:core -->
<g id="node1" class="node">
<title>:ui:core</title>
<polygon fill="#b59aff" stroke="black" points="70,-90 0,-90 0,-54 70,-54 70,-90"/>
<text text-anchor="middle" x="35" y="-68.3" font-family="Times,serif" font-size="14.00">:ui:core</text>
</g>
<!-- :shared -->
<g id="node2" class="node">
<title>:shared</title>
<ellipse fill="#b59aff" stroke="black" cx="238.59" cy="-126" rx="45.49" ry="18"/>
<text text-anchor="middle" x="238.59" y="-122.3" font-family="Times,serif" font-size="14.00">:shared</text>
</g>
<!-- :shared&#45;&gt;:ui:core -->
<g id="edge1" class="edge">
<title>:shared&#45;&gt;:ui:core</title>
<path fill="none" stroke="black" stroke-dasharray="1,5" d="M192.9,-126C132.88,-126 35,-126 35,-126 35,-126 35,-100.28 35,-100.28"/>
<polygon fill="black" stroke="black" points="38.5,-100.28 35,-90.28 31.5,-100.28 38.5,-100.28"/>
</g>
<!-- :konsist&#45;test -->
<g id="node3" class="node">
<title>:konsist&#45;test</title>
<ellipse fill="#b59aff" stroke="black" cx="238.59" cy="-72" rx="67.69" ry="18"/>
<text text-anchor="middle" x="238.59" y="-68.3" font-family="Times,serif" font-size="14.00">:konsist&#45;test</text>
</g>
<!-- :konsist&#45;test&#45;&gt;:ui:core -->
<g id="edge2" class="edge">
<title>:konsist&#45;test&#45;&gt;:ui:core</title>
<path fill="none" stroke="#ff9ab1" stroke-dasharray="1,5" d="M170.8,-72C170.8,-72 80.25,-72 80.25,-72"/>
<polygon fill="#ff9ab1" stroke="#ff9ab1" points="80.25,-68.5 70.25,-72 80.25,-75.5 80.25,-68.5"/>
</g>
<!-- :ui:common -->
<g id="node4" class="node">
<title>:ui:common</title>
<ellipse fill="#b59aff" stroke="black" cx="238.59" cy="-18" rx="64.19" ry="18"/>
<text text-anchor="middle" x="238.59" y="-14.3" font-family="Times,serif" font-size="14.00">:ui:common</text>
</g>
<!-- :ui:common&#45;&gt;:ui:core -->
<g id="edge3" class="edge">
<title>:ui:common&#45;&gt;:ui:core</title>
<path fill="none" stroke="black" d="M174.18,-18C114.53,-18 35,-18 35,-18 35,-18 35,-43.72 35,-43.72"/>
<polygon fill="black" stroke="black" points="31.5,-43.72 35,-53.72 38.5,-43.72 31.5,-43.72"/>
</g>
</g>
</svg>
