<?xml version="1.0" encoding="UTF-8" standalone="no"?>
<!DOCTYPE svg PUBLIC "-//W3C//DTD SVG 1.1//EN"
 "http://www.w3.org/Graphics/SVG/1.1/DTD/svg11.dtd">
<!-- Generated by graphviz version 2.43.0 (0)
 -->
<!-- Title: %3 Pages: 1 -->
<svg width="241pt" height="392pt"
 viewBox="0.00 0.00 241.00 392.00" xmlns="http://www.w3.org/2000/svg" xmlns:xlink="http://www.w3.org/1999/xlink">
<g id="graph0" class="graph" transform="scale(1 1) rotate(0) translate(4 388)">
<title>%3</title>
<polygon fill="white" stroke="transparent" points="-4,4 -4,-388 237,-388 237,4 -4,4"/>
<text text-anchor="middle" x="116.5" y="-356" font-family="Times,serif" font-size="30.00">Dependencies</text>
<text text-anchor="middle" x="116.5" y="-323" font-family="Times,serif" font-size="30.00"> </text>
<!-- :core:logging:implementation -->
<g id="node1" class="node">
<title>:core:logging:implementation</title>
<polygon fill="#b59aff" stroke="black" points="230,-310 3,-310 3,-274 230,-274 230,-310"/>
<text text-anchor="middle" x="116.5" y="-288.3" font-family="Times,serif" font-size="14.00">:core:logging:implementation</text>
</g>
<!-- :core:logging:api -->
<g id="node2" class="node">
<title>:core:logging:api</title>
<ellipse fill="#b59aff" stroke="black" cx="116.5" cy="-155" rx="88.28" ry="18"/>
<text text-anchor="middle" x="116.5" y="-151.3" font-family="Times,serif" font-size="14.00">:core:logging:api</text>
</g>
<!-- :core:logging:implementation&#45;&gt;:core:logging:api -->
<g id="edge1" class="edge">
<title>:core:logging:implementation&#45;&gt;:core:logging:api</title>
<path fill="none" stroke="black" stroke-dasharray="1,5" d="M116.5,-273.81C116.5,-273.81 116.5,-183.27 116.5,-183.27"/>
<polygon fill="black" stroke="black" points="120,-183.27 116.5,-173.27 113,-183.27 120,-183.27"/>
</g>
<!-- :core:coroutines -->
<g id="node3" class="node">
<title>:core:coroutines</title>
<ellipse fill="#b59aff" stroke="black" cx="116.5" cy="-18" rx="85.29" ry="18"/>
<text text-anchor="middle" x="116.5" y="-14.3" font-family="Times,serif" font-size="14.00">:core:coroutines</text>
</g>
<!-- :core:logging:api&#45;&gt;:core:coroutines -->
<g id="edge2" class="edge">
<title>:core:logging:api&#45;&gt;:core:coroutines</title>
<path fill="none" stroke="black" d="M116.5,-136.81C116.5,-136.81 116.5,-46.27 116.5,-46.27"/>
<polygon fill="black" stroke="black" points="120,-46.27 116.5,-36.27 113,-46.27 120,-46.27"/>
</g>
</g>
</svg>
