<?xml version="1.0" encoding="UTF-8" standalone="no"?>
<!DOCTYPE svg PUBLIC "-//W3C//DTD SVG 1.1//EN"
 "http://www.w3.org/Graphics/SVG/1.1/DTD/svg11.dtd">
<!-- Generated by graphviz version 2.43.0 (0)
 -->
<!-- Title: %3 Pages: 1 -->
<svg width="489pt" height="172pt"
 viewBox="0.00 0.00 488.57 172.00" xmlns="http://www.w3.org/2000/svg" xmlns:xlink="http://www.w3.org/1999/xlink">
<g id="graph0" class="graph" transform="scale(1 1) rotate(0) translate(4 168)">
<title>%3</title>
<polygon fill="white" stroke="transparent" points="-4,4 -4,-168 484.57,-168 484.57,4 -4,4"/>
<text text-anchor="middle" x="240.28" y="-136" font-family="Times,serif" font-size="30.00">Dependents</text>
<text text-anchor="middle" x="240.28" y="-103" font-family="Times,serif" font-size="30.00"> </text>
<!-- :android:feature:spotify -->
<g id="node1" class="node">
<title>:android:feature:spotify</title>
<ellipse fill="#9affb5" stroke="black" cx="120.24" cy="-45" rx="120.48" ry="18"/>
<text text-anchor="middle" x="120.24" y="-41.3" font-family="Times,serif" font-size="14.00">:android:feature:spotify</text>
</g>
<!-- :shared -->
<g id="node2" class="node">
<title>:shared</title>
<ellipse fill="#b59aff" stroke="black" cx="411.02" cy="-72" rx="45.49" ry="18"/>
<text text-anchor="middle" x="411.02" y="-68.3" font-family="Times,serif" font-size="14.00">:shared</text>
</g>
<!-- :shared&#45;&gt;:android:feature:spotify -->
<g id="edge1" class="edge">
<title>:shared&#45;&gt;:android:feature:spotify</title>
<path fill="none" stroke="black" stroke-dasharray="1,5" d="M380.73,-58.5C380.73,-58.5 209.97,-58.5 209.97,-58.5"/>
<polygon fill="black" stroke="black" points="209.97,-55 199.97,-58.5 209.97,-62 209.97,-55"/>
</g>
<!-- :android:app -->
<g id="node3" class="node">
<title>:android:app</title>
<ellipse fill="#9affb5" stroke="black" cx="411.02" cy="-18" rx="69.59" ry="18"/>
<text text-anchor="middle" x="411.02" y="-14.3" font-family="Times,serif" font-size="14.00">:android:app</text>
</g>
<!-- :android:app&#45;&gt;:android:feature:spotify -->
<g id="edge2" class="edge">
<title>:android:app&#45;&gt;:android:feature:spotify</title>
<path fill="none" stroke="black" stroke-dasharray="1,5" d="M364.95,-31.5C364.95,-31.5 209.82,-31.5 209.82,-31.5"/>
<polygon fill="black" stroke="black" points="209.82,-28 199.82,-31.5 209.82,-35 209.82,-28"/>
</g>
</g>
</svg>
