<?xml version="1.0" encoding="UTF-8" standalone="no"?>
<!DOCTYPE svg PUBLIC "-//W3C//DTD SVG 1.1//EN"
 "http://www.w3.org/Graphics/SVG/1.1/DTD/svg11.dtd">
<!-- Generated by graphviz version 2.43.0 (0)
 -->
<!-- Title: %3 Pages: 1 -->
<svg width="1129pt" height="1077pt"
 viewBox="0.00 0.00 1129.43 1077.00" xmlns="http://www.w3.org/2000/svg" xmlns:xlink="http://www.w3.org/1999/xlink">
<g id="graph0" class="graph" transform="scale(1 1) rotate(0) translate(4 1073)">
<title>%3</title>
<polygon fill="white" stroke="transparent" points="-4,4 -4,-1073 1125.43,-1073 1125.43,4 -4,4"/>
<text text-anchor="middle" x="560.72" y="-1041" font-family="Times,serif" font-size="30.00">Dependencies</text>
<text text-anchor="middle" x="560.72" y="-1008" font-family="Times,serif" font-size="30.00"> </text>
<!-- :android:feature:spotify -->
<g id="node1" class="node">
<title>:android:feature:spotify</title>
<polygon fill="#9affb5" stroke="black" points="189.34,-995 4.34,-995 4.34,-959 189.34,-959 189.34,-995"/>
<text text-anchor="middle" x="96.84" y="-973.3" font-family="Times,serif" font-size="14.00">:android:feature:spotify</text>
</g>
<!-- :ui:common -->
<g id="node2" class="node">
<title>:ui:common</title>
<ellipse fill="#b59aff" stroke="black" cx="435.84" cy="-840" rx="64.19" ry="18"/>
<text text-anchor="middle" x="435.84" y="-836.3" font-family="Times,serif" font-size="14.00">:ui:common</text>
</g>
<!-- :android:feature:spotify&#45;&gt;:ui:common -->
<g id="edge1" class="edge">
<title>:android:feature:spotify&#45;&gt;:ui:common</title>
<path fill="none" stroke="black" stroke-dasharray="1,5" d="M189.47,-983C289.85,-983 435.84,-983 435.84,-983 435.84,-983 435.84,-868.11 435.84,-868.11"/>
<polygon fill="black" stroke="black" points="439.34,-868.11 435.84,-858.11 432.34,-868.11 439.34,-868.11"/>
</g>
<!-- :shared:domain -->
<g id="node3" class="node">
<title>:shared:domain</title>
<ellipse fill="#b59aff" stroke="black" cx="429.84" cy="-18" rx="82.59" ry="18"/>
<text text-anchor="middle" x="429.84" y="-14.3" font-family="Times,serif" font-size="14.00">:shared:domain</text>
</g>
<!-- :android:feature:spotify&#45;&gt;:shared:domain -->
<g id="edge2" class="edge">
<title>:android:feature:spotify&#45;&gt;:shared:domain</title>
<path fill="none" stroke="black" stroke-dasharray="1,5" d="M189.57,-971C204.75,-971 215.64,-971 215.64,-971 215.64,-971 215.64,-18 215.64,-18 215.64,-18 337.03,-18 337.03,-18"/>
<polygon fill="black" stroke="black" points="337.03,-21.5 347.03,-18 337.03,-14.5 337.03,-21.5"/>
</g>
<!-- :ui:test:screenshot -->
<g id="node4" class="node">
<title>:ui:test:screenshot</title>
<ellipse fill="#9affb5" stroke="black" cx="96.84" cy="-703" rx="96.68" ry="18"/>
<text text-anchor="middle" x="96.84" y="-699.3" font-family="Times,serif" font-size="14.00">:ui:test:screenshot</text>
</g>
<!-- :android:feature:spotify&#45;&gt;:ui:test:screenshot -->
<g id="edge3" class="edge">
<title>:android:feature:spotify&#45;&gt;:ui:test:screenshot</title>
<path fill="none" stroke="#ff9ab1" stroke-dasharray="1,5" d="M66.01,-958.6C66.01,-958.6 66.01,-730.26 66.01,-730.26"/>
<polygon fill="#ff9ab1" stroke="#ff9ab1" points="69.51,-730.26 66.01,-720.26 62.51,-730.26 69.51,-730.26"/>
</g>
<!-- :ui:common&#45;&gt;:shared:domain -->
<g id="edge7" class="edge">
<title>:ui:common&#45;&gt;:shared:domain</title>
<path fill="none" stroke="black" d="M419.29,-822.45C419.29,-822.45 419.29,-46.09 419.29,-46.09"/>
<polygon fill="black" stroke="black" points="422.79,-46.09 419.29,-36.09 415.79,-46.09 422.79,-46.09"/>
</g>
<!-- :ui:common&#45;&gt;:ui:test:screenshot -->
<g id="edge5" class="edge">
<title>:ui:common&#45;&gt;:ui:test:screenshot</title>
<path fill="none" stroke="#ff9ab1" stroke-dasharray="1,5" d="M371.24,-840C280.88,-840 127.67,-840 127.67,-840 127.67,-840 127.67,-730.07 127.67,-730.07"/>
<polygon fill="#ff9ab1" stroke="#ff9ab1" points="131.17,-730.07 127.67,-720.07 124.17,-730.07 131.17,-730.07"/>
</g>
<!-- :test&#45;data -->
<g id="node5" class="node">
<title>:test&#45;data</title>
<ellipse fill="#b59aff" stroke="black" cx="731.84" cy="-566" rx="55.49" ry="18"/>
<text text-anchor="middle" x="731.84" y="-562.3" font-family="Times,serif" font-size="14.00">:test&#45;data</text>
</g>
<!-- :ui:common&#45;&gt;:test&#45;data -->
<g id="edge4" class="edge">
<title>:ui:common&#45;&gt;:test&#45;data</title>
<path fill="none" stroke="#ff9ab1" stroke-dasharray="1,5" d="M500.36,-840C573.49,-840 682.65,-840 682.65,-840 682.65,-840 682.65,-584.2 682.65,-584.2"/>
<polygon fill="#ff9ab1" stroke="#ff9ab1" points="686.15,-584.2 682.65,-574.2 679.15,-584.2 686.15,-584.2"/>
</g>
<!-- :core:coroutines -->
<g id="node6" class="node">
<title>:core:coroutines</title>
<ellipse fill="#b59aff" stroke="black" cx="542.84" cy="-155" rx="85.29" ry="18"/>
<text text-anchor="middle" x="542.84" y="-151.3" font-family="Times,serif" font-size="14.00">:core:coroutines</text>
</g>
<!-- :ui:common&#45;&gt;:core:coroutines -->
<g id="edge6" class="edge">
<title>:ui:common&#45;&gt;:core:coroutines</title>
<path fill="none" stroke="#ff9ab1" stroke-dasharray="1,5" d="M471.86,-825.06C471.86,-825.06 471.86,-175.18 471.86,-175.18"/>
<polygon fill="#ff9ab1" stroke="#ff9ab1" points="475.36,-175.18 471.86,-165.18 468.36,-175.18 475.36,-175.18"/>
</g>
<!-- :ui:core -->
<g id="node7" class="node">
<title>:ui:core</title>
<ellipse fill="#b59aff" stroke="black" cx="318.84" cy="-566" rx="45.49" ry="18"/>
<text text-anchor="middle" x="318.84" y="-562.3" font-family="Times,serif" font-size="14.00">:ui:core</text>
</g>
<!-- :ui:common&#45;&gt;:ui:core -->
<g id="edge8" class="edge">
<title>:ui:common&#45;&gt;:ui:core</title>
<path fill="none" stroke="black" d="M390.99,-826.78C390.99,-772.05 390.99,-566 390.99,-566 390.99,-566 374.53,-566 374.53,-566"/>
<polygon fill="black" stroke="black" points="374.53,-562.5 364.53,-566 374.53,-569.5 374.53,-562.5"/>
</g>
<!-- :data:repository -->
<g id="node8" class="node">
<title>:data:repository</title>
<ellipse fill="#b59aff" stroke="black" cx="773.84" cy="-703" rx="85.29" ry="18"/>
<text text-anchor="middle" x="773.84" y="-699.3" font-family="Times,serif" font-size="14.00">:data:repository</text>
</g>
<!-- :ui:common&#45;&gt;:data:repository -->
<g id="edge9" class="edge">
<title>:ui:common&#45;&gt;:data:repository</title>
<path fill="none" stroke="black" stroke-dasharray="1,5" d="M486.02,-828.46C486.02,-797.52 486.02,-715 486.02,-715 486.02,-715 700.32,-715 700.32,-715"/>
<polygon fill="black" stroke="black" points="700.32,-718.5 710.32,-715 700.32,-711.5 700.32,-718.5"/>
</g>
<!-- :data:musicbrainz -->
<g id="node9" class="node">
<title>:data:musicbrainz</title>
<ellipse fill="#b59aff" stroke="black" cx="1009.84" cy="-155" rx="93.68" ry="18"/>
<text text-anchor="middle" x="1009.84" y="-151.3" font-family="Times,serif" font-size="14.00">:data:musicbrainz</text>
</g>
<!-- :ui:common&#45;&gt;:data:musicbrainz -->
<g id="edge10" class="edge">
<title>:ui:common&#45;&gt;:data:musicbrainz</title>
<path fill="none" stroke="black" stroke-dasharray="1,5" d="M491.75,-849C644.35,-849 1056.64,-849 1056.64,-849 1056.64,-849 1056.64,-180.8 1056.64,-180.8"/>
<polygon fill="black" stroke="black" points="1060.14,-180.8 1056.64,-170.8 1053.14,-180.8 1060.14,-180.8"/>
</g>
<!-- :core:logging:api -->
<g id="node10" class="node">
<title>:core:logging:api</title>
<ellipse fill="#b59aff" stroke="black" cx="1009.84" cy="-18" rx="88.28" ry="18"/>
<text text-anchor="middle" x="1009.84" y="-14.3" font-family="Times,serif" font-size="14.00">:core:logging:api</text>
</g>
<!-- :ui:common&#45;&gt;:core:logging:api -->
<g id="edge11" class="edge">
<title>:ui:common&#45;&gt;:core:logging:api</title>
<path fill="none" stroke="black" stroke-dasharray="1,5" d="M491.58,-831C555.71,-831 652.29,-831 652.29,-831 652.29,-831 652.29,-5 652.29,-5 652.29,-5 938.38,-5 938.38,-5"/>
<polygon fill="black" stroke="black" points="938.38,-8.5 948.38,-5 938.38,-1.5 938.38,-8.5"/>
</g>
<!-- :ui:image -->
<g id="node11" class="node">
<title>:ui:image</title>
<ellipse fill="#b59aff" stroke="black" cx="318.84" cy="-703" rx="53.89" ry="18"/>
<text text-anchor="middle" x="318.84" y="-699.3" font-family="Times,serif" font-size="14.00">:ui:image</text>
</g>
<!-- :ui:common&#45;&gt;:ui:image -->
<g id="edge12" class="edge">
<title>:ui:common&#45;&gt;:ui:image</title>
<path fill="none" stroke="black" stroke-dasharray="1,5" d="M381.89,-830.17C381.89,-797.86 381.89,-697 381.89,-697 381.89,-697 379.73,-697 379.73,-697"/>
<polygon fill="black" stroke="black" points="379.73,-693.5 369.73,-697 379.73,-700.5 379.73,-693.5"/>
</g>
<!-- :ui:test:screenshot&#45;&gt;:ui:core -->
<g id="edge13" class="edge">
<title>:ui:test:screenshot&#45;&gt;:ui:core</title>
<path fill="none" stroke="black" stroke-dasharray="1,5" d="M168.78,-690.84C168.78,-657.31 168.78,-566 168.78,-566 168.78,-566 263,-566 263,-566"/>
<polygon fill="black" stroke="black" points="263,-569.5 273,-566 263,-562.5 263,-569.5"/>
</g>
<!-- :test:image -->
<g id="node12" class="node">
<title>:test:image</title>
<ellipse fill="#9affb5" stroke="black" cx="80.84" cy="-566" rx="63.09" ry="18"/>
<text text-anchor="middle" x="80.84" y="-562.3" font-family="Times,serif" font-size="14.00">:test:image</text>
</g>
<!-- :ui:test:screenshot&#45;&gt;:test:image -->
<g id="edge14" class="edge">
<title>:ui:test:screenshot&#45;&gt;:test:image</title>
<path fill="none" stroke="black" stroke-dasharray="1,5" d="M80.84,-685.09C80.84,-685.09 80.84,-594.35 80.84,-594.35"/>
<polygon fill="black" stroke="black" points="84.34,-594.35 80.84,-584.35 77.34,-594.35 84.34,-594.35"/>
</g>
<!-- :test&#45;data&#45;&gt;:shared:domain -->
<g id="edge15" class="edge">
<title>:test&#45;data&#45;&gt;:shared:domain</title>
<path fill="none" stroke="black" stroke-dasharray="1,5" d="M681.5,-558.42C681.5,-493.27 681.5,-30 681.5,-30 681.5,-30 501.4,-30 501.4,-30"/>
<polygon fill="black" stroke="black" points="501.4,-26.5 491.4,-30 501.4,-33.5 501.4,-26.5"/>
</g>
<!-- :test&#45;data&#45;&gt;:core:coroutines -->
<g id="edge16" class="edge">
<title>:test&#45;data&#45;&gt;:core:coroutines</title>
<path fill="none" stroke="black" stroke-dasharray="1,5" d="M679.05,-560.5C679.05,-511.73 679.05,-155 679.05,-155 679.05,-155 638.33,-155 638.33,-155"/>
<polygon fill="black" stroke="black" points="638.33,-151.5 628.33,-155 638.33,-158.5 638.33,-151.5"/>
</g>
<!-- :test&#45;data&#45;&gt;:data:musicbrainz -->
<g id="edge18" class="edge">
<title>:test&#45;data&#45;&gt;:data:musicbrainz</title>
<path fill="none" stroke="black" stroke-dasharray="1,5" d="M787.22,-566C855.62,-566 963.05,-566 963.05,-566 963.05,-566 963.05,-180.61 963.05,-180.61"/>
<polygon fill="black" stroke="black" points="966.55,-180.61 963.05,-170.61 959.55,-180.61 966.55,-180.61"/>
</g>
<!-- :data:database -->
<g id="node13" class="node">
<title>:data:database</title>
<ellipse fill="#b59aff" stroke="black" cx="800.84" cy="-292" rx="79.09" ry="18"/>
<text text-anchor="middle" x="800.84" y="-288.3" font-family="Times,serif" font-size="14.00">:data:database</text>
</g>
<!-- :test&#45;data&#45;&gt;:data:database -->
<g id="edge17" class="edge">
<title>:test&#45;data&#45;&gt;:data:database</title>
<path fill="none" stroke="black" stroke-dasharray="1,5" d="M734.3,-547.6C734.3,-547.6 734.3,-312.05 734.3,-312.05"/>
<polygon fill="black" stroke="black" points="737.8,-312.05 734.3,-302.05 730.8,-312.05 737.8,-312.05"/>
</g>
<!-- :data:coverart -->
<g id="node14" class="node">
<title>:data:coverart</title>
<ellipse fill="#b59aff" stroke="black" cx="835.84" cy="-429" rx="76.09" ry="18"/>
<text text-anchor="middle" x="835.84" y="-425.3" font-family="Times,serif" font-size="14.00">:data:coverart</text>
</g>
<!-- :test&#45;data&#45;&gt;:data:coverart -->
<g id="edge19" class="edge">
<title>:test&#45;data&#45;&gt;:data:coverart</title>
<path fill="none" stroke="black" stroke-dasharray="1,5" d="M768.89,-552.61C768.89,-552.61 768.89,-447.79 768.89,-447.79"/>
<polygon fill="black" stroke="black" points="772.39,-447.79 768.89,-437.79 765.39,-447.79 772.39,-447.79"/>
</g>
<!-- :data:spotify -->
<g id="node15" class="node">
<title>:data:spotify</title>
<ellipse fill="#b59aff" stroke="black" cx="752.84" cy="-155" rx="68.79" ry="18"/>
<text text-anchor="middle" x="752.84" y="-151.3" font-family="Times,serif" font-size="14.00">:data:spotify</text>
</g>
<!-- :test&#45;data&#45;&gt;:data:spotify -->
<g id="edge20" class="edge">
<title>:test&#45;data&#45;&gt;:data:spotify</title>
<path fill="none" stroke="black" stroke-dasharray="1,5" d="M702.75,-550.39C702.75,-550.39 702.75,-177.68 702.75,-177.68"/>
<polygon fill="black" stroke="black" points="706.25,-177.68 702.75,-167.68 699.25,-177.68 706.25,-177.68"/>
</g>
<!-- :shared:strings -->
<g id="node16" class="node">
<title>:shared:strings</title>
<ellipse fill="#b59aff" stroke="black" cx="318.84" cy="-429" rx="81.49" ry="18"/>
<text text-anchor="middle" x="318.84" y="-425.3" font-family="Times,serif" font-size="14.00">:shared:strings</text>
</g>
<!-- :ui:core&#45;&gt;:shared:strings -->
<g id="edge21" class="edge">
<title>:ui:core&#45;&gt;:shared:strings</title>
<path fill="none" stroke="black" d="M318.84,-547.81C318.84,-547.81 318.84,-457.27 318.84,-457.27"/>
<polygon fill="black" stroke="black" points="322.34,-457.27 318.84,-447.27 315.34,-457.27 322.34,-457.27"/>
</g>
<!-- :data:repository&#45;&gt;:shared:domain -->
<g id="edge22" class="edge">
<title>:data:repository&#45;&gt;:shared:domain</title>
<path fill="none" stroke="black" stroke-dasharray="1,5" d="M693.4,-709C591.47,-709 428.89,-709 428.89,-709 428.89,-709 428.89,-46.13 428.89,-46.13"/>
<polygon fill="black" stroke="black" points="432.39,-46.13 428.89,-36.13 425.39,-46.13 432.39,-46.13"/>
</g>
<!-- :data:repository&#45;&gt;:test&#45;data -->
<g id="edge27" class="edge">
<title>:data:repository&#45;&gt;:test&#45;data</title>
<path fill="none" stroke="#ff9ab1" stroke-dasharray="1,5" d="M737.89,-686.47C737.89,-686.47 737.89,-594.33 737.89,-594.33"/>
<polygon fill="#ff9ab1" stroke="#ff9ab1" points="741.39,-594.33 737.89,-584.33 734.39,-594.33 741.39,-594.33"/>
</g>
<!-- :data:repository&#45;&gt;:core:coroutines -->
<g id="edge28" class="edge">
<title>:data:repository&#45;&gt;:core:coroutines</title>
<path fill="none" stroke="#ff9ab1" stroke-dasharray="1,5" d="M688.62,-703C619.04,-703 532.14,-703 532.14,-703 532.14,-703 532.14,-182.92 532.14,-182.92"/>
<polygon fill="#ff9ab1" stroke="#ff9ab1" points="535.64,-182.92 532.14,-172.92 528.64,-182.92 535.64,-182.92"/>
</g>
<!-- :data:repository&#45;&gt;:data:musicbrainz -->
<g id="edge24" class="edge">
<title>:data:repository&#45;&gt;:data:musicbrainz</title>
<path fill="none" stroke="black" stroke-dasharray="1,5" d="M854.4,-697C922.77,-697 1009.84,-697 1009.84,-697 1009.84,-697 1009.84,-183.03 1009.84,-183.03"/>
<polygon fill="black" stroke="black" points="1013.34,-183.03 1009.84,-173.03 1006.34,-183.03 1013.34,-183.03"/>
</g>
<!-- :data:repository&#45;&gt;:core:logging:api -->
<g id="edge26" class="edge">
<title>:data:repository&#45;&gt;:core:logging:api</title>
<path fill="none" stroke="black" stroke-dasharray="1,5" d="M854.46,-709C957.14,-709 1121.43,-709 1121.43,-709 1121.43,-709 1121.43,-18 1121.43,-18 1121.43,-18 1108.31,-18 1108.31,-18"/>
<polygon fill="black" stroke="black" points="1108.31,-14.5 1098.31,-18 1108.31,-21.5 1108.31,-14.5"/>
</g>
<!-- :data:repository&#45;&gt;:data:database -->
<g id="edge23" class="edge">
<title>:data:repository&#45;&gt;:data:database</title>
<path fill="none" stroke="black" stroke-dasharray="1,5" d="M811.05,-686.49C811.05,-637.61 811.05,-497 811.05,-497 811.05,-497 747.05,-497 747.05,-497 747.05,-497 747.05,-315.45 747.05,-315.45"/>
<polygon fill="black" stroke="black" points="750.55,-315.45 747.05,-305.45 743.55,-315.45 750.55,-315.45"/>
</g>
<!-- :data:repository&#45;&gt;:data:coverart -->
<g id="edge25" class="edge">
<title>:data:repository&#45;&gt;:data:coverart</title>
<path fill="none" stroke="black" stroke-dasharray="1,5" d="M835.02,-690.15C835.02,-690.15 835.02,-457.33 835.02,-457.33"/>
<polygon fill="black" stroke="black" points="838.52,-457.33 835.02,-447.33 831.52,-457.33 838.52,-457.33"/>
</g>
<!-- :data:musicbrainz&#45;&gt;:shared:domain -->
<g id="edge29" class="edge">
<title>:data:musicbrainz&#45;&gt;:shared:domain</title>
<path fill="none" stroke="black" stroke-dasharray="1,5" d="M928.63,-146C910.24,-146 896.01,-146 896.01,-146 896.01,-146 896.01,-15 896.01,-15 896.01,-15 521.31,-15 521.31,-15"/>
<polygon fill="black" stroke="black" points="521.31,-11.5 511.31,-15 521.31,-18.5 521.31,-11.5"/>
</g>
<!-- :data:musicbrainz&#45;&gt;:core:logging:api -->
<g id="edge30" class="edge">
<title>:data:musicbrainz&#45;&gt;:core:logging:api</title>
<path fill="none" stroke="black" stroke-dasharray="1,5" d="M1009.84,-136.81C1009.84,-136.81 1009.84,-46.27 1009.84,-46.27"/>
<polygon fill="black" stroke="black" points="1013.34,-46.27 1009.84,-36.27 1006.34,-46.27 1013.34,-46.27"/>
</g>
<!-- :ui:image&#45;&gt;:shared:domain -->
<g id="edge31" class="edge">
<title>:ui:image&#45;&gt;:shared:domain</title>
<path fill="none" stroke="black" stroke-dasharray="1,5" d="M359.22,-691C383.48,-691 409.69,-691 409.69,-691 409.69,-691 409.69,-45.66 409.69,-45.66"/>
<polygon fill="black" stroke="black" points="413.19,-45.66 409.69,-35.66 406.19,-45.66 413.19,-45.66"/>
</g>
<!-- :ui:image&#45;&gt;:ui:core -->
<g id="edge32" class="edge">
<title>:ui:image&#45;&gt;:ui:core</title>
<path fill="none" stroke="black" stroke-dasharray="1,5" d="M318.84,-684.81C318.84,-684.81 318.84,-594.27 318.84,-594.27"/>
<polygon fill="black" stroke="black" points="322.34,-594.27 318.84,-584.27 315.34,-594.27 322.34,-594.27"/>
</g>
<!-- :data:database&#45;&gt;:shared:domain -->
<g id="edge33" class="edge">
<title>:data:database&#45;&gt;:shared:domain</title>
<path fill="none" stroke="black" stroke-dasharray="1,5" d="M726.03,-298C622.49,-298 448.1,-298 448.1,-298 448.1,-298 448.1,-45.94 448.1,-45.94"/>
<polygon fill="black" stroke="black" points="451.6,-45.94 448.1,-35.94 444.6,-45.94 451.6,-45.94"/>
</g>
<!-- :data:database&#45;&gt;:core:coroutines -->
<g id="edge34" class="edge">
<title>:data:database&#45;&gt;:core:coroutines</title>
<path fill="none" stroke="black" stroke-dasharray="1,5" d="M726.03,-286C667.53,-286 596.03,-286 596.03,-286 596.03,-286 596.03,-179.27 596.03,-179.27"/>
<polygon fill="black" stroke="black" points="599.53,-179.27 596.03,-169.27 592.53,-179.27 599.53,-179.27"/>
</g>
<!-- :data:database&#45;&gt;:data:musicbrainz -->
<g id="edge35" class="edge">
<title>:data:database&#45;&gt;:data:musicbrainz</title>
<path fill="none" stroke="black" stroke-dasharray="1,5" d="M850.93,-277.85C850.93,-242.85 850.93,-155 850.93,-155 850.93,-155 906.03,-155 906.03,-155"/>
<polygon fill="black" stroke="black" points="906.03,-158.5 916.03,-155 906.03,-151.5 906.03,-158.5"/>
</g>
<!-- :data:coverart&#45;&gt;:shared:domain -->
<g id="edge36" class="edge">
<title>:data:coverart&#45;&gt;:shared:domain</title>
<path fill="none" stroke="black" stroke-dasharray="1,5" d="M763.88,-435C649.38,-435 438.49,-435 438.49,-435 438.49,-435 438.49,-45.92 438.49,-45.92"/>
<polygon fill="black" stroke="black" points="441.99,-45.92 438.49,-35.92 434.99,-45.92 441.99,-45.92"/>
</g>
<!-- :data:coverart&#45;&gt;:test&#45;data -->
<g id="edge39" class="edge">
<title>:data:coverart&#45;&gt;:test&#45;data</title>
<path fill="none" stroke="#ff9ab1" stroke-dasharray="1,5" d="M777.99,-441.16C777.99,-441.16 777.99,-545.95 777.99,-545.95"/>
<polygon fill="#ff9ab1" stroke="#ff9ab1" points="774.49,-545.95 777.99,-555.95 781.49,-545.95 774.49,-545.95"/>
</g>
<!-- :data:coverart&#45;&gt;:core:coroutines -->
<g id="edge38" class="edge">
<title>:data:coverart&#45;&gt;:core:coroutines</title>
<path fill="none" stroke="black" stroke-dasharray="1,5" d="M764.09,-423C683.57,-423 564.08,-423 564.08,-423 564.08,-423 564.08,-182.58 564.08,-182.58"/>
<polygon fill="black" stroke="black" points="567.58,-182.58 564.08,-172.58 560.58,-182.58 567.58,-182.58"/>
</g>
<!-- :data:coverart&#45;&gt;:data:musicbrainz -->
<g id="edge40" class="edge">
<title>:data:coverart&#45;&gt;:data:musicbrainz</title>
<path fill="none" stroke="#ff9ab1" stroke-dasharray="1,5" d="M903.95,-420.78C903.95,-376.05 903.95,-164 903.95,-164 903.95,-164 918.77,-164 918.77,-164"/>
<polygon fill="#ff9ab1" stroke="#ff9ab1" points="918.77,-167.5 928.77,-164 918.77,-160.5 918.77,-167.5"/>
</g>
<!-- :data:coverart&#45;&gt;:core:logging:api -->
<g id="edge37" class="edge">
<title>:data:coverart&#45;&gt;:core:logging:api</title>
<path fill="none" stroke="black" stroke-dasharray="1,5" d="M888.07,-415.56C888.07,-345.46 888.07,-25 888.07,-25 888.07,-25 918.28,-25 918.28,-25"/>
<polygon fill="black" stroke="black" points="918.28,-28.5 928.28,-25 918.28,-21.5 918.28,-28.5"/>
</g>
<!-- :data:coverart&#45;&gt;:data:database -->
<g id="edge41" class="edge">
<title>:data:coverart&#45;&gt;:data:database</title>
<path fill="none" stroke="#ff9ab1" stroke-dasharray="1,5" d="M819.97,-411.37C819.97,-411.37 819.97,-319.56 819.97,-319.56"/>
<polygon fill="#ff9ab1" stroke="#ff9ab1" points="823.47,-319.56 819.97,-309.56 816.47,-319.56 823.47,-319.56"/>
</g>
<!-- :data:spotify&#45;&gt;:shared:domain -->
<g id="edge42" class="edge">
<title>:data:spotify&#45;&gt;:shared:domain</title>
<path fill="none" stroke="black" stroke-dasharray="1,5" d="M729.88,-137.9C729.88,-101.58 729.88,-20 729.88,-20 729.88,-20 522.22,-20 522.22,-20"/>
<polygon fill="black" stroke="black" points="522.22,-16.5 512.22,-20 522.22,-23.5 522.22,-16.5"/>
</g>
<!-- :data:spotify&#45;&gt;:core:logging:api -->
<g id="edge43" class="edge">
<title>:data:spotify&#45;&gt;:core:logging:api</title>
<path fill="none" stroke="black" stroke-dasharray="1,5" d="M775.81,-137.8C775.81,-99.39 775.81,-10 775.81,-10 775.81,-10 920.61,-10 920.61,-10"/>
<polygon fill="black" stroke="black" points="920.61,-13.5 930.61,-10 920.61,-6.5 920.61,-13.5"/>
</g>
</g>
</svg>
