<?xml version="1.0" encoding="UTF-8" standalone="no"?>
<!DOCTYPE svg PUBLIC "-//W3C//DTD SVG 1.1//EN"
 "http://www.w3.org/Graphics/SVG/1.1/DTD/svg11.dtd">
<!-- Generated by graphviz version 2.43.0 (0)
 -->
<!-- Title: %3 Pages: 1 -->
<svg width="943pt" height="1077pt"
 viewBox="0.00 0.00 942.74 1077.00" xmlns="http://www.w3.org/2000/svg" xmlns:xlink="http://www.w3.org/1999/xlink">
<g id="graph0" class="graph" transform="scale(1 1) rotate(0) translate(4 1073)">
<title>%3</title>
<polygon fill="white" stroke="transparent" points="-4,4 -4,-1073 938.74,-1073 938.74,4 -4,4"/>
<text text-anchor="middle" x="467.37" y="-1041" font-family="Times,serif" font-size="30.00">Dependencies</text>
<text text-anchor="middle" x="467.37" y="-1008" font-family="Times,serif" font-size="30.00"> </text>
<!-- :android:feature:spotify -->
<g id="node1" class="node">
<title>:android:feature:spotify</title>
<polygon fill="#9affb5" stroke="black" points="930.39,-995 745.39,-995 745.39,-959 930.39,-959 930.39,-995"/>
<text text-anchor="middle" x="837.89" y="-973.3" font-family="Times,serif" font-size="14.00">:android:feature:spotify</text>
</g>
<!-- :ui:common -->
<g id="node2" class="node">
<title>:ui:common</title>
<ellipse fill="#b59aff" stroke="black" cx="693.89" cy="-840" rx="64.19" ry="18"/>
<text text-anchor="middle" x="693.89" y="-836.3" font-family="Times,serif" font-size="14.00">:ui:common</text>
</g>
<!-- :android:feature:spotify&#45;&gt;:ui:common -->
<g id="edge1" class="edge">
<title>:android:feature:spotify&#45;&gt;:ui:common</title>
<path fill="none" stroke="black" stroke-dasharray="1,5" d="M751.82,-958.81C751.82,-958.81 751.82,-858.08 751.82,-858.08"/>
<polygon fill="black" stroke="black" points="755.32,-858.08 751.82,-848.08 748.32,-858.08 755.32,-858.08"/>
</g>
<!-- :shared:domain -->
<g id="node3" class="node">
<title>:shared:domain</title>
<ellipse fill="#b59aff" stroke="black" cx="521.89" cy="-155" rx="82.59" ry="18"/>
<text text-anchor="middle" x="521.89" y="-151.3" font-family="Times,serif" font-size="14.00">:shared:domain</text>
</g>
<!-- :android:feature:spotify&#45;&gt;:shared:domain -->
<g id="edge2" class="edge">
<title>:android:feature:spotify&#45;&gt;:shared:domain</title>
<path fill="none" stroke="black" stroke-dasharray="1,5" d="M745.36,-977C645.59,-977 500.88,-977 500.88,-977 500.88,-977 500.88,-182.55 500.88,-182.55"/>
<polygon fill="black" stroke="black" points="504.38,-182.55 500.88,-172.55 497.38,-182.55 504.38,-182.55"/>
</g>
<!-- :ui:test:screenshot -->
<g id="node4" class="node">
<title>:ui:test:screenshot</title>
<ellipse fill="#9affb5" stroke="black" cx="837.89" cy="-703" rx="96.68" ry="18"/>
<text text-anchor="middle" x="837.89" y="-699.3" font-family="Times,serif" font-size="14.00">:ui:test:screenshot</text>
</g>
<!-- :android:feature:spotify&#45;&gt;:ui:test:screenshot -->
<g id="edge3" class="edge">
<title>:android:feature:spotify&#45;&gt;:ui:test:screenshot</title>
<path fill="none" stroke="#ff9ab1" stroke-dasharray="1,5" d="M844.32,-958.6C844.32,-958.6 844.32,-730.97 844.32,-730.97"/>
<polygon fill="#ff9ab1" stroke="#ff9ab1" points="847.82,-730.97 844.32,-720.97 840.82,-730.97 847.82,-730.97"/>
</g>
<!-- :ui:common&#45;&gt;:shared:domain -->
<g id="edge8" class="edge">
<title>:ui:common&#45;&gt;:shared:domain</title>
<path fill="none" stroke="black" d="M705.87,-822.03C705.87,-713.95 705.87,-155 705.87,-155 705.87,-155 614.46,-155 614.46,-155"/>
<polygon fill="black" stroke="black" points="614.46,-151.5 604.46,-155 614.46,-158.5 614.46,-151.5"/>
</g>
<!-- :ui:common&#45;&gt;:ui:test:screenshot -->
<g id="edge6" class="edge">
<title>:ui:common&#45;&gt;:ui:test:screenshot</title>
<path fill="none" stroke="#ff9ab1" stroke-dasharray="1,5" d="M749.65,-831.01C749.65,-831.01 749.65,-720.48 749.65,-720.48"/>
<polygon fill="#ff9ab1" stroke="#ff9ab1" points="753.15,-720.48 749.65,-710.48 746.15,-720.48 753.15,-720.48"/>
</g>
<!-- :test:image -->
<g id="node5" class="node">
<title>:test:image</title>
<ellipse fill="#9affb5" stroke="black" cx="829.89" cy="-566" rx="63.09" ry="18"/>
<text text-anchor="middle" x="829.89" y="-562.3" font-family="Times,serif" font-size="14.00">:test:image</text>
</g>
<!-- :ui:common&#45;&gt;:test:image -->
<g id="edge4" class="edge">
<title>:ui:common&#45;&gt;:test:image</title>
<path fill="none" stroke="black" stroke-dasharray="1,5" d="M729.32,-824.82C729.32,-768.13 729.32,-572 729.32,-572 729.32,-572 760.23,-572 760.23,-572"/>
<polygon fill="black" stroke="black" points="760.23,-575.5 770.23,-572 760.23,-568.5 760.23,-575.5"/>
</g>
<!-- :test&#45;data -->
<g id="node6" class="node">
<title>:test&#45;data</title>
<ellipse fill="#b59aff" stroke="black" cx="280.89" cy="-703" rx="55.49" ry="18"/>
<text text-anchor="middle" x="280.89" y="-699.3" font-family="Times,serif" font-size="14.00">:test&#45;data</text>
</g>
<!-- :ui:common&#45;&gt;:test&#45;data -->
<g id="edge5" class="edge">
<title>:ui:common&#45;&gt;:test&#45;data</title>
<path fill="none" stroke="#ff9ab1" stroke-dasharray="1,5" d="M648.83,-826.78C648.83,-794.08 648.83,-712 648.83,-712 648.83,-712 339,-712 339,-712"/>
<polygon fill="#ff9ab1" stroke="#ff9ab1" points="339,-708.5 329,-712 339,-715.5 339,-708.5"/>
</g>
<!-- :core:coroutines -->
<g id="node7" class="node">
<title>:core:coroutines</title>
<ellipse fill="#b59aff" stroke="black" cx="167.89" cy="-18" rx="85.29" ry="18"/>
<text text-anchor="middle" x="167.89" y="-14.3" font-family="Times,serif" font-size="14.00">:core:coroutines</text>
</g>
<!-- :ui:common&#45;&gt;:core:coroutines -->
<g id="edge7" class="edge">
<title>:ui:common&#45;&gt;:core:coroutines</title>
<path fill="none" stroke="#ff9ab1" stroke-dasharray="1,5" d="M717.59,-822.98C717.59,-704.47 717.59,-7 717.59,-7 717.59,-7 245.3,-7 245.3,-7"/>
<polygon fill="#ff9ab1" stroke="#ff9ab1" points="245.3,-3.5 235.3,-7 245.3,-10.5 245.3,-3.5"/>
</g>
<!-- :ui:core -->
<g id="node8" class="node">
<title>:ui:core</title>
<ellipse fill="#b59aff" stroke="black" cx="641.89" cy="-566" rx="45.49" ry="18"/>
<text text-anchor="middle" x="641.89" y="-562.3" font-family="Times,serif" font-size="14.00">:ui:core</text>
</g>
<!-- :ui:common&#45;&gt;:ui:core -->
<g id="edge9" class="edge">
<title>:ui:common&#45;&gt;:ui:core</title>
<path fill="none" stroke="black" d="M668.11,-823.27C668.11,-823.27 668.11,-590.82 668.11,-590.82"/>
<polygon fill="black" stroke="black" points="671.61,-590.82 668.11,-580.82 664.61,-590.82 671.61,-590.82"/>
</g>
<!-- :core:logging:api -->
<g id="node9" class="node">
<title>:core:logging:api</title>
<ellipse fill="#b59aff" stroke="black" cx="167.89" cy="-155" rx="88.28" ry="18"/>
<text text-anchor="middle" x="167.89" y="-151.3" font-family="Times,serif" font-size="14.00">:core:logging:api</text>
</g>
<!-- :ui:common&#45;&gt;:core:logging:api -->
<g id="edge10" class="edge">
<title>:ui:common&#45;&gt;:core:logging:api</title>
<path fill="none" stroke="black" stroke-dasharray="1,5" d="M629.36,-840C483.44,-840 140.73,-840 140.73,-840 140.73,-840 140.73,-182.28 140.73,-182.28"/>
<polygon fill="black" stroke="black" points="144.23,-182.28 140.73,-172.28 137.23,-182.28 144.23,-182.28"/>
</g>
<!-- :ui:test:screenshot&#45;&gt;:test:image -->
<g id="edge12" class="edge">
<title>:ui:test:screenshot&#45;&gt;:test:image</title>
<path fill="none" stroke="black" stroke-dasharray="1,5" d="M829.89,-684.81C829.89,-684.81 829.89,-594.27 829.89,-594.27"/>
<polygon fill="black" stroke="black" points="833.39,-594.27 829.89,-584.27 826.39,-594.27 833.39,-594.27"/>
</g>
<!-- :ui:test:screenshot&#45;&gt;:ui:core -->
<g id="edge11" class="edge">
<title>:ui:test:screenshot&#45;&gt;:ui:core</title>
<path fill="none" stroke="black" stroke-dasharray="1,5" d="M753.95,-693.62C753.95,-661.8 753.95,-560 753.95,-560 753.95,-560 694.9,-560 694.9,-560"/>
<polygon fill="black" stroke="black" points="694.9,-556.5 684.9,-560 694.9,-563.5 694.9,-556.5"/>
</g>
<!-- :test&#45;data&#45;&gt;:shared:domain -->
<g id="edge13" class="edge">
<title>:test&#45;data&#45;&gt;:shared:domain</title>
<path fill="none" stroke="black" stroke-dasharray="1,5" d="M336.26,-703C396.86,-703 485.5,-703 485.5,-703 485.5,-703 485.5,-181.4 485.5,-181.4"/>
<polygon fill="black" stroke="black" points="489,-181.4 485.5,-171.4 482,-181.4 489,-181.4"/>
</g>
<!-- :test&#45;data&#45;&gt;:core:coroutines -->
<g id="edge14" class="edge">
<title>:test&#45;data&#45;&gt;:core:coroutines</title>
<path fill="none" stroke="black" stroke-dasharray="1,5" d="M328.99,-694C370.61,-694 424.14,-694 424.14,-694 424.14,-694 424.14,-14 424.14,-14 424.14,-14 261.09,-14 261.09,-14"/>
<polygon fill="black" stroke="black" points="261.09,-10.5 251.09,-14 261.09,-17.5 261.09,-10.5"/>
</g>
<!-- :data:database -->
<g id="node10" class="node">
<title>:data:database</title>
<ellipse fill="#b59aff" stroke="black" cx="225.89" cy="-429" rx="79.09" ry="18"/>
<text text-anchor="middle" x="225.89" y="-425.3" font-family="Times,serif" font-size="14.00">:data:database</text>
</g>
<!-- :test&#45;data&#45;&gt;:data:database -->
<g id="edge15" class="edge">
<title>:test&#45;data&#45;&gt;:data:database</title>
<path fill="none" stroke="black" stroke-dasharray="1,5" d="M236.05,-692.26C236.05,-692.26 236.05,-457.04 236.05,-457.04"/>
<polygon fill="black" stroke="black" points="239.55,-457.04 236.05,-447.04 232.55,-457.04 239.55,-457.04"/>
</g>
<!-- :data:musicbrainz -->
<g id="node11" class="node">
<title>:data:musicbrainz</title>
<ellipse fill="#b59aff" stroke="black" cx="248.89" cy="-292" rx="93.68" ry="18"/>
<text text-anchor="middle" x="248.89" y="-288.3" font-family="Times,serif" font-size="14.00">:data:musicbrainz</text>
</g>
<!-- :test&#45;data&#45;&gt;:data:musicbrainz -->
<g id="edge16" class="edge">
<title>:test&#45;data&#45;&gt;:data:musicbrainz</title>
<path fill="none" stroke="black" stroke-dasharray="1,5" d="M246.45,-688.84C246.45,-642.3 246.45,-497 246.45,-497 246.45,-497 317.62,-497 317.62,-497 317.62,-497 317.62,-314.52 317.62,-314.52"/>
<polygon fill="black" stroke="black" points="321.12,-314.52 317.62,-304.52 314.12,-314.52 321.12,-314.52"/>
</g>
<!-- :data:coverart -->
<g id="node12" class="node">
<title>:data:coverart</title>
<ellipse fill="#b59aff" stroke="black" cx="332.89" cy="-566" rx="76.09" ry="18"/>
<text text-anchor="middle" x="332.89" y="-562.3" font-family="Times,serif" font-size="14.00">:data:coverart</text>
</g>
<!-- :test&#45;data&#45;&gt;:data:coverart -->
<g id="edge17" class="edge">
<title>:test&#45;data&#45;&gt;:data:coverart</title>
<path fill="none" stroke="black" stroke-dasharray="1,5" d="M283.28,-684.81C283.28,-684.81 283.28,-589.71 283.28,-589.71"/>
<polygon fill="black" stroke="black" points="286.78,-589.71 283.28,-579.71 279.78,-589.71 286.78,-589.71"/>
</g>
<!-- :data:spotify -->
<g id="node13" class="node">
<title>:data:spotify</title>
<ellipse fill="#b59aff" stroke="black" cx="68.89" cy="-292" rx="68.79" ry="18"/>
<text text-anchor="middle" x="68.89" y="-288.3" font-family="Times,serif" font-size="14.00">:data:spotify</text>
</g>
<!-- :test&#45;data&#45;&gt;:data:spotify -->
<g id="edge18" class="edge">
<title>:test&#45;data&#45;&gt;:data:spotify</title>
<path fill="none" stroke="black" stroke-dasharray="1,5" d="M225.47,-703C162.66,-703 68.89,-703 68.89,-703 68.89,-703 68.89,-320.19 68.89,-320.19"/>
<polygon fill="black" stroke="black" points="72.39,-320.19 68.89,-310.19 65.39,-320.19 72.39,-320.19"/>
</g>
<!-- :ui:core&#45;&gt;:shared:domain -->
<g id="edge20" class="edge">
<title>:ui:core&#45;&gt;:shared:domain</title>
<path fill="none" stroke="black" stroke-dasharray="1,5" d="M596.18,-566C560.27,-566 516.27,-566 516.27,-566 516.27,-566 516.27,-183.19 516.27,-183.19"/>
<polygon fill="black" stroke="black" points="519.77,-183.19 516.27,-173.19 512.77,-183.19 519.77,-183.19"/>
</g>
<!-- :shared:strings -->
<g id="node14" class="node">
<title>:shared:strings</title>
<ellipse fill="#b59aff" stroke="black" cx="612.89" cy="-429" rx="81.49" ry="18"/>
<text text-anchor="middle" x="612.89" y="-425.3" font-family="Times,serif" font-size="14.00">:shared:strings</text>
</g>
<!-- :ui:core&#45;&gt;:shared:strings -->
<g id="edge19" class="edge">
<title>:ui:core&#45;&gt;:shared:strings</title>
<path fill="none" stroke="black" d="M641.89,-547.81C641.89,-547.81 641.89,-455.97 641.89,-455.97"/>
<polygon fill="black" stroke="black" points="645.39,-455.97 641.89,-445.97 638.39,-455.97 645.39,-455.97"/>
</g>
<!-- :core:logging:api&#45;&gt;:core:coroutines -->
<g id="edge21" class="edge">
<title>:core:logging:api&#45;&gt;:core:coroutines</title>
<path fill="none" stroke="black" d="M167.89,-136.81C167.89,-136.81 167.89,-46.27 167.89,-46.27"/>
<polygon fill="black" stroke="black" points="171.39,-46.27 167.89,-36.27 164.39,-46.27 171.39,-46.27"/>
</g>
<!-- :data:database&#45;&gt;:shared:domain -->
<g id="edge22" class="edge">
<title>:data:database&#45;&gt;:shared:domain</title>
<path fill="none" stroke="black" stroke-dasharray="1,5" d="M300.83,-435C372.62,-435 470.12,-435 470.12,-435 470.12,-435 470.12,-179.27 470.12,-179.27"/>
<polygon fill="black" stroke="black" points="473.62,-179.27 470.12,-169.27 466.62,-179.27 473.62,-179.27"/>
</g>
<!-- :data:database&#45;&gt;:core:coroutines -->
<g id="edge23" class="edge">
<title>:data:database&#45;&gt;:core:coroutines</title>
<path fill="none" stroke="black" stroke-dasharray="1,5" d="M300.67,-423C331.04,-423 359.1,-423 359.1,-423 359.1,-423 359.1,-28 359.1,-28 359.1,-28 248.82,-28 248.82,-28"/>
<polygon fill="black" stroke="black" points="248.82,-24.5 238.82,-28 248.82,-31.5 248.82,-24.5"/>
</g>
<!-- :data:database&#45;&gt;:data:musicbrainz -->
<g id="edge24" class="edge">
<title>:data:database&#45;&gt;:data:musicbrainz</title>
<path fill="none" stroke="black" stroke-dasharray="1,5" d="M230.24,-410.81C230.24,-410.81 230.24,-319.83 230.24,-319.83"/>
<polygon fill="black" stroke="black" points="233.74,-319.83 230.24,-309.83 226.74,-319.83 233.74,-319.83"/>
</g>
<!-- :data:musicbrainz&#45;&gt;:shared:domain -->
<g id="edge25" class="edge">
<title>:data:musicbrainz&#45;&gt;:shared:domain</title>
<path fill="none" stroke="black" stroke-dasharray="1,5" d="M299.39,-276.7C299.39,-239.81 299.39,-149 299.39,-149 299.39,-149 434.07,-149 434.07,-149"/>
<polygon fill="black" stroke="black" points="434.07,-152.5 444.07,-149 434.07,-145.5 434.07,-152.5"/>
</g>
<!-- :data:musicbrainz&#45;&gt;:core:logging:api -->
<g id="edge26" class="edge">
<title>:data:musicbrainz&#45;&gt;:core:logging:api</title>
<path fill="none" stroke="black" stroke-dasharray="1,5" d="M205.79,-276.02C205.79,-276.02 205.79,-181.31 205.79,-181.31"/>
<polygon fill="black" stroke="black" points="209.29,-181.31 205.79,-171.31 202.29,-181.31 209.29,-181.31"/>
</g>
<!-- :data:coverart&#45;&gt;:shared:domain -->
<g id="edge27" class="edge">
<title>:data:coverart&#45;&gt;:shared:domain</title>
<path fill="none" stroke="black" stroke-dasharray="1,5" d="M392.32,-554.75C392.32,-489.33 392.32,-161 392.32,-161 392.32,-161 433.91,-161 433.91,-161"/>
<polygon fill="black" stroke="black" points="433.91,-164.5 443.91,-161 433.91,-157.5 433.91,-164.5"/>
</g>
<!-- :data:coverart&#45;&gt;:test&#45;data -->
<g id="edge30" class="edge">
<title>:data:coverart&#45;&gt;:test&#45;data</title>
<path fill="none" stroke="#ff9ab1" stroke-dasharray="1,5" d="M309.71,-583.35C309.71,-583.35 309.71,-677.48 309.71,-677.48"/>
<polygon fill="#ff9ab1" stroke="#ff9ab1" points="306.21,-677.48 309.71,-687.48 313.21,-677.48 306.21,-677.48"/>
</g>
<!-- :data:coverart&#45;&gt;:core:coroutines -->
<g id="edge29" class="edge">
<title>:data:coverart&#45;&gt;:core:coroutines</title>
<path fill="none" stroke="black" stroke-dasharray="1,5" d="M375.71,-550.85C375.71,-462.83 375.71,-21 375.71,-21 375.71,-21 262.12,-21 262.12,-21"/>
<polygon fill="black" stroke="black" points="262.12,-17.5 252.12,-21 262.12,-24.5 262.12,-17.5"/>
</g>
<!-- :data:coverart&#45;&gt;:core:logging:api -->
<g id="edge28" class="edge">
<title>:data:coverart&#45;&gt;:core:logging:api</title>
<path fill="none" stroke="black" stroke-dasharray="1,5" d="M256.74,-566C204.16,-566 143.66,-566 143.66,-566 143.66,-566 143.66,-182.4 143.66,-182.4"/>
<polygon fill="black" stroke="black" points="147.16,-182.4 143.66,-172.4 140.16,-182.4 147.16,-182.4"/>
</g>
<!-- :data:coverart&#45;&gt;:data:database -->
<g id="edge32" class="edge">
<title>:data:coverart&#45;&gt;:data:database</title>
<path fill="none" stroke="#ff9ab1" stroke-dasharray="1,5" d="M281.02,-552.61C281.02,-552.61 281.02,-452.24 281.02,-452.24"/>
<polygon fill="#ff9ab1" stroke="#ff9ab1" points="284.52,-452.24 281.02,-442.24 277.52,-452.24 284.52,-452.24"/>
</g>
<!-- :data:coverart&#45;&gt;:data:musicbrainz -->
<g id="edge31" class="edge">
<title>:data:coverart&#45;&gt;:data:musicbrainz</title>
<path fill="none" stroke="#ff9ab1" stroke-dasharray="1,5" d="M330.05,-547.6C330.05,-547.6 330.05,-310.98 330.05,-310.98"/>
<polygon fill="#ff9ab1" stroke="#ff9ab1" points="333.55,-310.98 330.05,-300.98 326.55,-310.98 333.55,-310.98"/>
</g>
<!-- :data:spotify&#45;&gt;:shared:domain -->
<g id="edge33" class="edge">
<title>:data:spotify&#45;&gt;:shared:domain</title>
<path fill="none" stroke="black" stroke-dasharray="1,5" d="M118.36,-279.34C118.36,-259.42 118.36,-223 118.36,-223 118.36,-223 454.73,-223 454.73,-223 454.73,-223 454.73,-175.62 454.73,-175.62"/>
<polygon fill="black" stroke="black" points="458.23,-175.62 454.73,-165.62 451.23,-175.63 458.23,-175.62"/>
</g>
<!-- :data:spotify&#45;&gt;:core:logging:api -->
<g id="edge34" class="edge">
<title>:data:spotify&#45;&gt;:core:logging:api</title>
<path fill="none" stroke="black" stroke-dasharray="1,5" d="M98.93,-275.75C98.93,-275.75 98.93,-176.46 98.93,-176.46"/>
<polygon fill="black" stroke="black" points="102.43,-176.46 98.93,-166.46 95.43,-176.46 102.43,-176.46"/>
</g>
</g>
</svg>
