<?xml version="1.0" encoding="UTF-8" standalone="no"?>
<!DOCTYPE svg PUBLIC "-//W3C//DTD SVG 1.1//EN"
 "http://www.w3.org/Graphics/SVG/1.1/DTD/svg11.dtd">
<!-- Generated by graphviz version 2.43.0 (0)
 -->
<!-- Title: %3 Pages: 1 -->
<svg width="1187pt" height="666pt"
 viewBox="0.00 0.00 1187.38 666.00" xmlns="http://www.w3.org/2000/svg" xmlns:xlink="http://www.w3.org/1999/xlink">
<g id="graph0" class="graph" transform="scale(1 1) rotate(0) translate(4 662)">
<title>%3</title>
<polygon fill="white" stroke="transparent" points="-4,4 -4,-662 1183.38,-662 1183.38,4 -4,4"/>
<text text-anchor="middle" x="589.69" y="-630" font-family="Times,serif" font-size="30.00">Dependencies</text>
<text text-anchor="middle" x="589.69" y="-597" font-family="Times,serif" font-size="30.00"> </text>
<!-- :android:feature:spotify -->
<g id="node1" class="node">
<title>:android:feature:spotify</title>
<polygon fill="#9affb5" stroke="black" points="628.04,-584 443.04,-584 443.04,-548 628.04,-548 628.04,-584"/>
<text text-anchor="middle" x="535.54" y="-562.3" font-family="Times,serif" font-size="14.00">:android:feature:spotify</text>
</g>
<!-- :core:models -->
<g id="node2" class="node">
<title>:core:models</title>
<ellipse fill="#b59aff" stroke="black" cx="381.54" cy="-18" rx="69.59" ry="18"/>
<text text-anchor="middle" x="381.54" y="-14.3" font-family="Times,serif" font-size="14.00">:core:models</text>
</g>
<!-- :android:feature:spotify&#45;&gt;:core:models -->
<g id="edge1" class="edge">
<title>:android:feature:spotify&#45;&gt;:core:models</title>
<path fill="none" stroke="black" stroke-dasharray="1,5" d="M442.81,-560C417.86,-560 397.66,-560 397.66,-560 397.66,-560 397.66,-45.73 397.66,-45.73"/>
<polygon fill="black" stroke="black" points="401.16,-45.73 397.66,-35.73 394.16,-45.73 401.16,-45.73"/>
</g>
<!-- :ui:core -->
<g id="node3" class="node">
<title>:ui:core</title>
<ellipse fill="#b59aff" stroke="black" cx="1019.54" cy="-155" rx="45.49" ry="18"/>
<text text-anchor="middle" x="1019.54" y="-151.3" font-family="Times,serif" font-size="14.00">:ui:core</text>
</g>
<!-- :android:feature:spotify&#45;&gt;:ui:core -->
<g id="edge2" class="edge">
<title>:android:feature:spotify&#45;&gt;:ui:core</title>
<path fill="none" stroke="black" stroke-dasharray="1,5" d="M628.21,-560C759.21,-560 982.79,-560 982.79,-560 982.79,-560 982.79,-175.83 982.79,-175.83"/>
<polygon fill="black" stroke="black" points="986.29,-175.83 982.79,-165.83 979.29,-175.83 986.29,-175.83"/>
</g>
<!-- :ui:common -->
<g id="node4" class="node">
<title>:ui:common</title>
<ellipse fill="#b59aff" stroke="black" cx="535.54" cy="-429" rx="64.19" ry="18"/>
<text text-anchor="middle" x="535.54" y="-425.3" font-family="Times,serif" font-size="14.00">:ui:common</text>
</g>
<!-- :android:feature:spotify&#45;&gt;:ui:common -->
<g id="edge3" class="edge">
<title>:android:feature:spotify&#45;&gt;:ui:common</title>
<path fill="none" stroke="black" stroke-dasharray="1,5" d="M535.54,-547.81C535.54,-547.81 535.54,-457.27 535.54,-457.27"/>
<polygon fill="black" stroke="black" points="539.04,-457.27 535.54,-447.27 532.04,-457.27 539.04,-457.27"/>
</g>
<!-- :shared:domain -->
<g id="node5" class="node">
<title>:shared:domain</title>
<ellipse fill="#b59aff" stroke="black" cx="82.54" cy="-155" rx="82.59" ry="18"/>
<text text-anchor="middle" x="82.54" y="-151.3" font-family="Times,serif" font-size="14.00">:shared:domain</text>
</g>
<!-- :android:feature:spotify&#45;&gt;:shared:domain -->
<g id="edge4" class="edge">
<title>:android:feature:spotify&#45;&gt;:shared:domain</title>
<path fill="none" stroke="black" stroke-dasharray="1,5" d="M442.96,-572C292.77,-572 12.63,-572 12.63,-572 12.63,-572 12.63,-174.9 12.63,-174.9"/>
<polygon fill="black" stroke="black" points="16.13,-174.9 12.63,-164.9 9.13,-174.9 16.13,-174.9"/>
</g>
<!-- :ui:test:screenshot -->
<g id="node6" class="node">
<title>:ui:test:screenshot</title>
<ellipse fill="#9affb5" stroke="black" cx="1082.54" cy="-292" rx="96.68" ry="18"/>
<text text-anchor="middle" x="1082.54" y="-288.3" font-family="Times,serif" font-size="14.00">:ui:test:screenshot</text>
</g>
<!-- :android:feature:spotify&#45;&gt;:ui:test:screenshot -->
<g id="edge5" class="edge">
<title>:android:feature:spotify&#45;&gt;:ui:test:screenshot</title>
<path fill="none" stroke="#ff9ab1" stroke-dasharray="1,5" d="M628.29,-572C791.94,-572 1114.82,-572 1114.82,-572 1114.82,-572 1114.82,-319.09 1114.82,-319.09"/>
<polygon fill="#ff9ab1" stroke="#ff9ab1" points="1118.32,-319.09 1114.82,-309.09 1111.32,-319.09 1118.32,-319.09"/>
</g>
<!-- :shared:strings -->
<g id="node7" class="node">
<title>:shared:strings</title>
<ellipse fill="#b59aff" stroke="black" cx="1019.54" cy="-18" rx="81.49" ry="18"/>
<text text-anchor="middle" x="1019.54" y="-14.3" font-family="Times,serif" font-size="14.00">:shared:strings</text>
</g>
<!-- :ui:core&#45;&gt;:shared:strings -->
<g id="edge6" class="edge">
<title>:ui:core&#45;&gt;:shared:strings</title>
<path fill="none" stroke="black" d="M1019.54,-136.81C1019.54,-136.81 1019.54,-46.27 1019.54,-46.27"/>
<polygon fill="black" stroke="black" points="1023.04,-46.27 1019.54,-36.27 1016.04,-46.27 1023.04,-46.27"/>
</g>
<!-- :ui:common&#45;&gt;:core:models -->
<g id="edge9" class="edge">
<title>:ui:common&#45;&gt;:core:models</title>
<path fill="none" stroke="black" d="M484.58,-418C447.49,-418 403.73,-418 403.73,-418 403.73,-418 403.73,-45.19 403.73,-45.19"/>
<polygon fill="black" stroke="black" points="407.23,-45.19 403.73,-35.19 400.23,-45.19 407.23,-45.19"/>
</g>
<!-- :ui:common&#45;&gt;:ui:core -->
<g id="edge15" class="edge">
<title>:ui:common&#45;&gt;:ui:core</title>
<path fill="none" stroke="black" stroke-dasharray="1,5" d="M599.2,-432C722.07,-432 979.87,-432 979.87,-432 979.87,-432 979.87,-173.9 979.87,-173.9"/>
<polygon fill="black" stroke="black" points="983.37,-173.9 979.87,-163.9 976.37,-173.9 983.37,-173.9"/>
</g>
<!-- :ui:common&#45;&gt;:shared:domain -->
<g id="edge14" class="edge">
<title>:ui:common&#45;&gt;:shared:domain</title>
<path fill="none" stroke="black" stroke-dasharray="1,5" d="M481.9,-439C350.89,-439 25.27,-439 25.27,-439 25.27,-439 25.27,-178.32 25.27,-178.32"/>
<polygon fill="black" stroke="black" points="28.77,-178.32 25.27,-168.32 21.77,-178.32 28.77,-178.32"/>
</g>
<!-- :ui:common&#45;&gt;:ui:test:screenshot -->
<g id="edge8" class="edge">
<title>:ui:common&#45;&gt;:ui:test:screenshot</title>
<path fill="none" stroke="#ff9ab1" stroke-dasharray="1,5" d="M589.17,-439C721,-439 1050.26,-439 1050.26,-439 1050.26,-439 1050.26,-319.15 1050.26,-319.15"/>
<polygon fill="#ff9ab1" stroke="#ff9ab1" points="1053.76,-319.15 1050.26,-309.15 1046.76,-319.15 1053.76,-319.15"/>
</g>
<!-- :ui:test:image -->
<g id="node8" class="node">
<title>:ui:test:image</title>
<ellipse fill="#9affb5" stroke="black" cx="484.54" cy="-292" rx="74.99" ry="18"/>
<text text-anchor="middle" x="484.54" y="-288.3" font-family="Times,serif" font-size="14.00">:ui:test:image</text>
</g>
<!-- :ui:common&#45;&gt;:ui:test:image -->
<g id="edge7" class="edge">
<title>:ui:common&#45;&gt;:ui:test:image</title>
<path fill="none" stroke="#ff9ab1" stroke-dasharray="1,5" d="M515.24,-411.65C515.24,-411.65 515.24,-318.78 515.24,-318.78"/>
<polygon fill="#ff9ab1" stroke="#ff9ab1" points="518.74,-318.78 515.24,-308.78 511.74,-318.78 518.74,-318.78"/>
</g>
<!-- :data:coverart -->
<g id="node9" class="node">
<title>:data:coverart</title>
<ellipse fill="#b59aff" stroke="black" cx="315.54" cy="-292" rx="76.09" ry="18"/>
<text text-anchor="middle" x="315.54" y="-288.3" font-family="Times,serif" font-size="14.00">:data:coverart</text>
</g>
<!-- :ui:common&#45;&gt;:data:coverart -->
<g id="edge10" class="edge">
<title>:ui:common&#45;&gt;:data:coverart</title>
<path fill="none" stroke="black" stroke-dasharray="1,5" d="M472.79,-425C407.77,-425 315.54,-425 315.54,-425 315.54,-425 315.54,-320.21 315.54,-320.21"/>
<polygon fill="black" stroke="black" points="319.04,-320.21 315.54,-310.21 312.04,-320.21 319.04,-320.21"/>
</g>
<!-- :data:musicbrainz -->
<g id="node10" class="node">
<title>:data:musicbrainz</title>
<ellipse fill="#b59aff" stroke="black" cx="709.54" cy="-292" rx="93.68" ry="18"/>
<text text-anchor="middle" x="709.54" y="-288.3" font-family="Times,serif" font-size="14.00">:data:musicbrainz</text>
</g>
<!-- :ui:common&#45;&gt;:data:musicbrainz -->
<g id="edge11" class="edge">
<title>:ui:common&#45;&gt;:data:musicbrainz</title>
<path fill="none" stroke="black" stroke-dasharray="1,5" d="M586.58,-418C605.3,-418 622,-418 622,-418 622,-418 622,-308.42 622,-308.42"/>
<polygon fill="black" stroke="black" points="625.5,-308.42 622,-298.42 618.5,-308.42 625.5,-308.42"/>
</g>
<!-- :core:preferences -->
<g id="node11" class="node">
<title>:core:preferences</title>
<ellipse fill="#b59aff" stroke="black" cx="129.54" cy="-292" rx="91.78" ry="18"/>
<text text-anchor="middle" x="129.54" y="-288.3" font-family="Times,serif" font-size="14.00">:core:preferences</text>
</g>
<!-- :ui:common&#45;&gt;:core:preferences -->
<g id="edge12" class="edge">
<title>:ui:common&#45;&gt;:core:preferences</title>
<path fill="none" stroke="black" stroke-dasharray="1,5" d="M471.66,-432C357.32,-432 129.54,-432 129.54,-432 129.54,-432 129.54,-320.02 129.54,-320.02"/>
<polygon fill="black" stroke="black" points="133.04,-320.02 129.54,-310.02 126.04,-320.02 133.04,-320.02"/>
</g>
<!-- :core:logging:api -->
<g id="node12" class="node">
<title>:core:logging:api</title>
<ellipse fill="#b59aff" stroke="black" cx="587.54" cy="-155" rx="88.28" ry="18"/>
<text text-anchor="middle" x="587.54" y="-151.3" font-family="Times,serif" font-size="14.00">:core:logging:api</text>
</g>
<!-- :ui:common&#45;&gt;:core:logging:api -->
<g id="edge13" class="edge">
<title>:ui:common&#45;&gt;:core:logging:api</title>
<path fill="none" stroke="black" stroke-dasharray="1,5" d="M579.59,-415.78C579.59,-415.78 579.59,-183.25 579.59,-183.25"/>
<polygon fill="black" stroke="black" points="583.09,-183.25 579.59,-173.25 576.09,-183.25 583.09,-183.25"/>
</g>
<!-- :ui:image -->
<g id="node13" class="node">
<title>:ui:image</title>
<ellipse fill="#b59aff" stroke="black" cx="875.54" cy="-292" rx="53.89" ry="18"/>
<text text-anchor="middle" x="875.54" y="-288.3" font-family="Times,serif" font-size="14.00">:ui:image</text>
</g>
<!-- :ui:common&#45;&gt;:ui:image -->
<g id="edge16" class="edge">
<title>:ui:common&#45;&gt;:ui:image</title>
<path fill="none" stroke="black" stroke-dasharray="1,5" d="M598.3,-425C696.54,-425 875.54,-425 875.54,-425 875.54,-425 875.54,-320.21 875.54,-320.21"/>
<polygon fill="black" stroke="black" points="879.04,-320.21 875.54,-310.21 872.04,-320.21 879.04,-320.21"/>
</g>
<!-- :shared:domain&#45;&gt;:core:models -->
<g id="edge17" class="edge">
<title>:shared:domain&#45;&gt;:core:models</title>
<path fill="none" stroke="black" stroke-dasharray="1,5" d="M82.54,-136.89C82.54,-98.41 82.54,-12 82.54,-12 82.54,-12 305.93,-12 305.93,-12"/>
<polygon fill="black" stroke="black" points="305.93,-15.5 315.93,-12 305.93,-8.5 305.93,-15.5"/>
</g>
<!-- :ui:test:screenshot&#45;&gt;:ui:core -->
<g id="edge18" class="edge">
<title>:ui:test:screenshot&#45;&gt;:ui:core</title>
<path fill="none" stroke="black" stroke-dasharray="1,5" d="M1025.37,-277.34C1025.37,-277.34 1025.37,-183.01 1025.37,-183.01"/>
<polygon fill="black" stroke="black" points="1028.87,-183.01 1025.37,-173.01 1021.87,-183.01 1028.87,-183.01"/>
</g>
<!-- :data:coverart&#45;&gt;:core:models -->
<g id="edge20" class="edge">
<title>:data:coverart&#45;&gt;:core:models</title>
<path fill="none" stroke="black" stroke-dasharray="1,5" d="M366.32,-278.41C366.32,-278.41 366.32,-45.81 366.32,-45.81"/>
<polygon fill="black" stroke="black" points="369.82,-45.81 366.32,-35.81 362.82,-45.81 369.82,-45.81"/>
</g>
<!-- :data:coverart&#45;&gt;:shared:domain -->
<g id="edge21" class="edge">
<title>:data:coverart&#45;&gt;:shared:domain</title>
<path fill="none" stroke="black" stroke-dasharray="1,5" d="M296.59,-274.23C296.59,-253.79 296.59,-223 296.59,-223 296.59,-223 101.49,-223 101.49,-223 101.49,-223 101.49,-182.87 101.49,-182.87"/>
<polygon fill="black" stroke="black" points="104.99,-182.87 101.49,-172.87 97.99,-182.87 104.99,-182.87"/>
</g>
<!-- :data:coverart&#45;&gt;:core:logging:api -->
<g id="edge19" class="edge">
<title>:data:coverart&#45;&gt;:core:logging:api</title>
<path fill="none" stroke="black" stroke-dasharray="1,5" d="M378.95,-281.7C378.95,-249.84 378.95,-155 378.95,-155 378.95,-155 489.08,-155 489.08,-155"/>
<polygon fill="black" stroke="black" points="489.08,-158.5 499.08,-155 489.08,-151.5 489.08,-158.5"/>
</g>
<!-- :data:musicbrainz&#45;&gt;:core:models -->
<g id="edge23" class="edge">
<title>:data:musicbrainz&#45;&gt;:core:models</title>
<path fill="none" stroke="black" stroke-dasharray="1,5" d="M739.53,-274.83C739.53,-215.68 739.53,-24 739.53,-24 739.53,-24 457.2,-24 457.2,-24"/>
<polygon fill="black" stroke="black" points="457.2,-20.5 447.2,-24 457.2,-27.5 457.2,-20.5"/>
</g>
<!-- :data:musicbrainz&#45;&gt;:core:logging:api -->
<g id="edge22" class="edge">
<title>:data:musicbrainz&#45;&gt;:core:logging:api</title>
<path fill="none" stroke="black" stroke-dasharray="1,5" d="M645.94,-278.61C645.94,-278.61 645.94,-178.64 645.94,-178.64"/>
<polygon fill="black" stroke="black" points="649.44,-178.64 645.94,-168.64 642.44,-178.64 649.44,-178.64"/>
</g>
<!-- :core:preferences&#45;&gt;:core:models -->
<g id="edge25" class="edge">
<title>:core:preferences&#45;&gt;:core:models</title>
<path fill="none" stroke="black" stroke-dasharray="1,5" d="M174.24,-276.04C174.24,-218.34 174.24,-24 174.24,-24 174.24,-24 305.95,-24 305.95,-24"/>
<polygon fill="black" stroke="black" points="305.95,-27.5 315.95,-24 305.95,-20.5 305.95,-27.5"/>
</g>
<!-- :core:coroutines -->
<g id="node14" class="node">
<title>:core:coroutines</title>
<ellipse fill="#b59aff" stroke="black" cx="268.54" cy="-155" rx="85.29" ry="18"/>
<text text-anchor="middle" x="268.54" y="-151.3" font-family="Times,serif" font-size="14.00">:core:coroutines</text>
</g>
<!-- :core:preferences&#45;&gt;:core:coroutines -->
<g id="edge24" class="edge">
<title>:core:preferences&#45;&gt;:core:coroutines</title>
<path fill="none" stroke="black" stroke-dasharray="1,5" d="M202.29,-280.79C202.29,-280.79 202.29,-176.37 202.29,-176.37"/>
<polygon fill="black" stroke="black" points="205.79,-176.37 202.29,-166.37 198.79,-176.37 205.79,-176.37"/>
</g>
<!-- :ui:image&#45;&gt;:core:models -->
<g id="edge26" class="edge">
<title>:ui:image&#45;&gt;:core:models</title>
<path fill="none" stroke="black" stroke-dasharray="1,5" d="M875.54,-273.63C875.54,-211.34 875.54,-12 875.54,-12 875.54,-12 457.14,-12 457.14,-12"/>
<polygon fill="black" stroke="black" points="457.14,-8.5 447.14,-12 457.14,-15.5 457.14,-8.5"/>
</g>
<!-- :ui:image&#45;&gt;:ui:core -->
<g id="edge27" class="edge">
<title>:ui:image&#45;&gt;:ui:core</title>
<path fill="none" stroke="black" stroke-dasharray="1,5" d="M929.52,-292C953.74,-292 976.96,-292 976.96,-292 976.96,-292 976.96,-171.61 976.96,-171.61"/>
<polygon fill="black" stroke="black" points="980.46,-171.61 976.96,-161.61 973.46,-171.61 980.46,-171.61"/>
</g>
</g>
</svg>
