<?xml version="1.0" encoding="UTF-8" standalone="no"?>
<!DOCTYPE svg PUBLIC "-//W3C//DTD SVG 1.1//EN"
 "http://www.w3.org/Graphics/SVG/1.1/DTD/svg11.dtd">
<!-- Generated by graphviz version 2.43.0 (0)
 -->
<!-- Title: %3 Pages: 1 -->
<svg width="433pt" height="172pt"
 viewBox="0.00 0.00 433.09 172.00" xmlns="http://www.w3.org/2000/svg" xmlns:xlink="http://www.w3.org/1999/xlink">
<g id="graph0" class="graph" transform="scale(1 1) rotate(0) translate(4 168)">
<title>%3</title>
<polygon fill="white" stroke="transparent" points="-4,4 -4,-168 429.09,-168 429.09,4 -4,4"/>
<text text-anchor="middle" x="212.54" y="-136" font-family="Times,serif" font-size="30.00">Dependents</text>
<text text-anchor="middle" x="212.54" y="-103" font-family="Times,serif" font-size="30.00"> </text>
<!-- :android:feature:spotify -->
<g id="node1" class="node">
<title>:android:feature:spotify</title>
<polygon fill="#9affb5" stroke="black" points="185,-63 0,-63 0,-27 185,-27 185,-63"/>
<text text-anchor="middle" x="92.5" y="-41.3" font-family="Times,serif" font-size="14.00">:android:feature:spotify</text>
</g>
<!-- :shared -->
<g id="node2" class="node">
<title>:shared</title>
<ellipse fill="#b59aff" stroke="black" cx="355.54" cy="-72" rx="45.49" ry="18"/>
<text text-anchor="middle" x="355.54" y="-68.3" font-family="Times,serif" font-size="14.00">:shared</text>
</g>
<!-- :shared&#45;&gt;:android:feature:spotify -->
<g id="edge1" class="edge">
<title>:shared&#45;&gt;:android:feature:spotify</title>
<path fill="none" stroke="black" stroke-dasharray="1,5" d="M325.37,-58.5C325.37,-58.5 195.06,-58.5 195.06,-58.5"/>
<polygon fill="black" stroke="black" points="195.06,-55 185.06,-58.5 195.06,-62 195.06,-55"/>
</g>
<!-- :android:app -->
<g id="node3" class="node">
<title>:android:app</title>
<ellipse fill="#9affb5" stroke="black" cx="355.54" cy="-18" rx="69.59" ry="18"/>
<text text-anchor="middle" x="355.54" y="-14.3" font-family="Times,serif" font-size="14.00">:android:app</text>
</g>
<!-- :android:app&#45;&gt;:android:feature:spotify -->
<g id="edge2" class="edge">
<title>:android:app&#45;&gt;:android:feature:spotify</title>
<path fill="none" stroke="black" stroke-dasharray="1,5" d="M309.42,-31.5C309.42,-31.5 195.23,-31.5 195.23,-31.5"/>
<polygon fill="black" stroke="black" points="195.23,-28 185.23,-31.5 195.23,-35 195.23,-28"/>
</g>
</g>
</svg>
