<?xml version="1.0" encoding="UTF-8" standalone="no"?>
<!DOCTYPE svg PUBLIC "-//W3C//DTD SVG 1.1//EN"
 "http://www.w3.org/Graphics/SVG/1.1/DTD/svg11.dtd">
<!-- Generated by graphviz version 2.43.0 (0)
 -->
<!-- Title: %3 Pages: 1 -->
<svg width="1095pt" height="666pt"
 viewBox="0.00 0.00 1095.48 666.00" xmlns="http://www.w3.org/2000/svg" xmlns:xlink="http://www.w3.org/1999/xlink">
<g id="graph0" class="graph" transform="scale(1 1) rotate(0) translate(4 662)">
<title>%3</title>
<polygon fill="white" stroke="transparent" points="-4,4 -4,-662 1091.48,-662 1091.48,4 -4,4"/>
<text text-anchor="middle" x="543.74" y="-630" font-family="Times,serif" font-size="30.00">Dependencies</text>
<text text-anchor="middle" x="543.74" y="-597" font-family="Times,serif" font-size="30.00"> </text>
<!-- :android:feature:spotify -->
<g id="node1" class="node">
<title>:android:feature:spotify</title>
<polygon fill="#9affb5" stroke="black" points="394.14,-584 209.14,-584 209.14,-548 394.14,-548 394.14,-584"/>
<text text-anchor="middle" x="301.64" y="-562.3" font-family="Times,serif" font-size="14.00">:android:feature:spotify</text>
</g>
<!-- :core:models -->
<g id="node2" class="node">
<title>:core:models</title>
<ellipse fill="#b59aff" stroke="black" cx="353.64" cy="-18" rx="69.59" ry="18"/>
<text text-anchor="middle" x="353.64" y="-14.3" font-family="Times,serif" font-size="14.00">:core:models</text>
</g>
<!-- :android:feature:spotify&#45;&gt;:core:models -->
<g id="edge1" class="edge">
<title>:android:feature:spotify&#45;&gt;:core:models</title>
<path fill="none" stroke="black" stroke-dasharray="1,5" d="M242.94,-547.97C242.94,-453.92 242.94,-24 242.94,-24 242.94,-24 277.97,-24 277.97,-24"/>
<polygon fill="black" stroke="black" points="277.97,-27.5 287.97,-24 277.97,-20.5 277.97,-27.5"/>
</g>
<!-- :ui:common -->
<g id="node3" class="node">
<title>:ui:common</title>
<ellipse fill="#b59aff" stroke="black" cx="443.64" cy="-429" rx="64.19" ry="18"/>
<text text-anchor="middle" x="443.64" y="-425.3" font-family="Times,serif" font-size="14.00">:ui:common</text>
</g>
<!-- :android:feature:spotify&#45;&gt;:ui:common -->
<g id="edge2" class="edge">
<title>:android:feature:spotify&#45;&gt;:ui:common</title>
<path fill="none" stroke="black" stroke-dasharray="1,5" d="M386.72,-547.81C386.72,-547.81 386.72,-447.39 386.72,-447.39"/>
<polygon fill="black" stroke="black" points="390.22,-447.39 386.72,-437.39 383.22,-447.39 390.22,-447.39"/>
</g>
<!-- :shared:domain -->
<g id="node4" class="node">
<title>:shared:domain</title>
<ellipse fill="#b59aff" stroke="black" cx="353.64" cy="-155" rx="82.59" ry="18"/>
<text text-anchor="middle" x="353.64" y="-151.3" font-family="Times,serif" font-size="14.00">:shared:domain</text>
</g>
<!-- :android:feature:spotify&#45;&gt;:shared:domain -->
<g id="edge3" class="edge">
<title>:android:feature:spotify&#45;&gt;:shared:domain</title>
<path fill="none" stroke="black" stroke-dasharray="1,5" d="M293.35,-547.81C293.35,-547.81 293.35,-177.42 293.35,-177.42"/>
<polygon fill="black" stroke="black" points="296.85,-177.41 293.35,-167.42 289.85,-177.42 296.85,-177.41"/>
</g>
<!-- :ui:test:screenshot -->
<g id="node5" class="node">
<title>:ui:test:screenshot</title>
<ellipse fill="#9affb5" stroke="black" cx="990.64" cy="-292" rx="96.68" ry="18"/>
<text text-anchor="middle" x="990.64" y="-288.3" font-family="Times,serif" font-size="14.00">:ui:test:screenshot</text>
</g>
<!-- :android:feature:spotify&#45;&gt;:ui:test:screenshot -->
<g id="edge4" class="edge">
<title>:android:feature:spotify&#45;&gt;:ui:test:screenshot</title>
<path fill="none" stroke="#ff9ab1" stroke-dasharray="1,5" d="M394.46,-566C589.27,-566 1022.92,-566 1022.92,-566 1022.92,-566 1022.92,-319.14 1022.92,-319.14"/>
<polygon fill="#ff9ab1" stroke="#ff9ab1" points="1026.42,-319.14 1022.92,-309.14 1019.42,-319.14 1026.42,-319.14"/>
</g>
<!-- :ui:common&#45;&gt;:core:models -->
<g id="edge6" class="edge">
<title>:ui:common&#45;&gt;:core:models</title>
<path fill="none" stroke="black" d="M484.06,-414.96C484.06,-343.21 484.06,-21 484.06,-21 484.06,-21 432.29,-21 432.29,-21"/>
<polygon fill="black" stroke="black" points="432.29,-17.5 422.29,-21 432.29,-24.5 432.29,-17.5"/>
</g>
<!-- :ui:common&#45;&gt;:shared:domain -->
<g id="edge12" class="edge">
<title>:ui:common&#45;&gt;:shared:domain</title>
<path fill="none" stroke="black" stroke-dasharray="1,5" d="M475.87,-413.08C475.87,-354.61 475.87,-155 475.87,-155 475.87,-155 446.19,-155 446.19,-155"/>
<polygon fill="black" stroke="black" points="446.19,-151.5 436.19,-155 446.19,-158.5 446.19,-151.5"/>
</g>
<!-- :ui:common&#45;&gt;:ui:test:screenshot -->
<g id="edge5" class="edge">
<title>:ui:common&#45;&gt;:ui:test:screenshot</title>
<path fill="none" stroke="#ff9ab1" stroke-dasharray="1,5" d="M499.71,-438C633.11,-438 958.36,-438 958.36,-438 958.36,-438 958.36,-319.03 958.36,-319.03"/>
<polygon fill="#ff9ab1" stroke="#ff9ab1" points="961.86,-319.03 958.36,-309.03 954.86,-319.03 961.86,-319.03"/>
</g>
<!-- :ui:core -->
<g id="node6" class="node">
<title>:ui:core</title>
<ellipse fill="#b59aff" stroke="black" cx="865.64" cy="-155" rx="45.49" ry="18"/>
<text text-anchor="middle" x="865.64" y="-151.3" font-family="Times,serif" font-size="14.00">:ui:core</text>
</g>
<!-- :ui:common&#45;&gt;:ui:core -->
<g id="edge7" class="edge">
<title>:ui:common&#45;&gt;:ui:core</title>
<path fill="none" stroke="black" d="M508.2,-429C626.43,-429 865.69,-429 865.69,-429 865.69,-429 865.69,-183.4 865.69,-183.4"/>
<polygon fill="black" stroke="black" points="869.19,-183.4 865.69,-173.4 862.19,-183.4 869.19,-183.4"/>
</g>
<!-- :data:coverart -->
<g id="node7" class="node">
<title>:data:coverart</title>
<ellipse fill="#b59aff" stroke="black" cx="391.64" cy="-292" rx="76.09" ry="18"/>
<text text-anchor="middle" x="391.64" y="-288.3" font-family="Times,serif" font-size="14.00">:data:coverart</text>
</g>
<!-- :ui:common&#45;&gt;:data:coverart -->
<g id="edge8" class="edge">
<title>:ui:common&#45;&gt;:data:coverart</title>
<path fill="none" stroke="black" stroke-dasharray="1,5" d="M423.49,-411.65C423.49,-411.65 423.49,-318.36 423.49,-318.36"/>
<polygon fill="black" stroke="black" points="426.99,-318.36 423.49,-308.36 419.99,-318.36 426.99,-318.36"/>
</g>
<!-- :data:musicbrainz -->
<g id="node8" class="node">
<title>:data:musicbrainz</title>
<ellipse fill="#b59aff" stroke="black" cx="617.64" cy="-292" rx="93.68" ry="18"/>
<text text-anchor="middle" x="617.64" y="-288.3" font-family="Times,serif" font-size="14.00">:data:musicbrainz</text>
</g>
<!-- :ui:common&#45;&gt;:data:musicbrainz -->
<g id="edge9" class="edge">
<title>:ui:common&#45;&gt;:data:musicbrainz</title>
<path fill="none" stroke="black" stroke-dasharray="1,5" d="M504.05,-422.68C504.05,-396.51 504.05,-298 504.05,-298 504.05,-298 519.26,-298 519.26,-298"/>
<polygon fill="black" stroke="black" points="519.26,-301.5 529.26,-298 519.26,-294.5 519.26,-301.5"/>
</g>
<!-- :core:preferences -->
<g id="node9" class="node">
<title>:core:preferences</title>
<ellipse fill="#b59aff" stroke="black" cx="91.64" cy="-292" rx="91.78" ry="18"/>
<text text-anchor="middle" x="91.64" y="-288.3" font-family="Times,serif" font-size="14.00">:core:preferences</text>
</g>
<!-- :ui:common&#45;&gt;:core:preferences -->
<g id="edge10" class="edge">
<title>:ui:common&#45;&gt;:core:preferences</title>
<path fill="none" stroke="black" stroke-dasharray="1,5" d="M379.08,-429C277.46,-429 91.64,-429 91.64,-429 91.64,-429 91.64,-320.19 91.64,-320.19"/>
<polygon fill="black" stroke="black" points="95.14,-320.19 91.64,-310.19 88.14,-320.19 95.14,-320.19"/>
</g>
<!-- :core:logging:api -->
<g id="node10" class="node">
<title>:core:logging:api</title>
<ellipse fill="#b59aff" stroke="black" cx="580.64" cy="-155" rx="88.28" ry="18"/>
<text text-anchor="middle" x="580.64" y="-151.3" font-family="Times,serif" font-size="14.00">:core:logging:api</text>
</g>
<!-- :ui:common&#45;&gt;:core:logging:api -->
<g id="edge11" class="edge">
<title>:ui:common&#45;&gt;:core:logging:api</title>
<path fill="none" stroke="black" stroke-dasharray="1,5" d="M500.12,-420.19C500.12,-420.19 500.12,-172.58 500.12,-172.58"/>
<polygon fill="black" stroke="black" points="503.62,-172.58 500.12,-162.58 496.62,-172.58 503.62,-172.58"/>
</g>
<!-- :ui:image -->
<g id="node11" class="node">
<title>:ui:image</title>
<ellipse fill="#b59aff" stroke="black" cx="783.64" cy="-292" rx="53.89" ry="18"/>
<text text-anchor="middle" x="783.64" y="-288.3" font-family="Times,serif" font-size="14.00">:ui:image</text>
</g>
<!-- :ui:common&#45;&gt;:ui:image -->
<g id="edge13" class="edge">
<title>:ui:common&#45;&gt;:ui:image</title>
<path fill="none" stroke="black" stroke-dasharray="1,5" d="M499.41,-420C595.86,-420 783.64,-420 783.64,-420 783.64,-420 783.64,-320.07 783.64,-320.07"/>
<polygon fill="black" stroke="black" points="787.14,-320.07 783.64,-310.07 780.14,-320.07 787.14,-320.07"/>
</g>
<!-- :shared:domain&#45;&gt;:core:models -->
<g id="edge14" class="edge">
<title>:shared:domain&#45;&gt;:core:models</title>
<path fill="none" stroke="black" stroke-dasharray="1,5" d="M353.64,-136.81C353.64,-136.81 353.64,-46.27 353.64,-46.27"/>
<polygon fill="black" stroke="black" points="357.14,-46.27 353.64,-36.27 350.14,-46.27 357.14,-46.27"/>
</g>
<!-- :ui:test:screenshot&#45;&gt;:ui:core -->
<g id="edge15" class="edge">
<title>:ui:test:screenshot&#45;&gt;:ui:core</title>
<path fill="none" stroke="black" stroke-dasharray="1,5" d="M902.47,-284.24C902.47,-284.24 902.47,-175.58 902.47,-175.58"/>
<polygon fill="black" stroke="black" points="905.97,-175.58 902.47,-165.58 898.97,-175.58 905.97,-175.58"/>
</g>
<!-- :shared:strings -->
<g id="node12" class="node">
<title>:shared:strings</title>
<ellipse fill="#b59aff" stroke="black" cx="865.64" cy="-18" rx="81.49" ry="18"/>
<text text-anchor="middle" x="865.64" y="-14.3" font-family="Times,serif" font-size="14.00">:shared:strings</text>
</g>
<!-- :ui:core&#45;&gt;:shared:strings -->
<g id="edge16" class="edge">
<title>:ui:core&#45;&gt;:shared:strings</title>
<path fill="none" stroke="black" d="M865.64,-136.81C865.64,-136.81 865.64,-46.27 865.64,-46.27"/>
<polygon fill="black" stroke="black" points="869.14,-46.27 865.64,-36.27 862.14,-46.27 869.14,-46.27"/>
</g>
<!-- :data:coverart&#45;&gt;:core:models -->
<g id="edge18" class="edge">
<title>:data:coverart&#45;&gt;:core:models</title>
<path fill="none" stroke="black" stroke-dasharray="1,5" d="M451.93,-280.99C451.93,-231.03 451.93,-28 451.93,-28 451.93,-28 421.67,-28 421.67,-28"/>
<polygon fill="black" stroke="black" points="421.67,-24.5 411.67,-28 421.67,-31.5 421.67,-24.5"/>
</g>
<!-- :data:coverart&#45;&gt;:shared:domain -->
<g id="edge19" class="edge">
<title>:data:coverart&#45;&gt;:shared:domain</title>
<path fill="none" stroke="black" stroke-dasharray="1,5" d="M375.89,-274.37C375.89,-274.37 375.89,-182.56 375.89,-182.56"/>
<polygon fill="black" stroke="black" points="379.39,-182.56 375.89,-172.56 372.39,-182.56 379.39,-182.56"/>
</g>
<!-- :data:coverart&#45;&gt;:core:logging:api -->
<g id="edge17" class="edge">
<title>:data:coverart&#45;&gt;:core:logging:api</title>
<path fill="none" stroke="black" stroke-dasharray="1,5" d="M463.39,-286C481.64,-286 496.18,-286 496.18,-286 496.18,-286 496.18,-170.63 496.18,-170.63"/>
<polygon fill="black" stroke="black" points="499.68,-170.63 496.18,-160.63 492.68,-170.63 499.68,-170.63"/>
</g>
<!-- :data:musicbrainz&#45;&gt;:core:models -->
<g id="edge21" class="edge">
<title>:data:musicbrainz&#45;&gt;:core:models</title>
<path fill="none" stroke="black" stroke-dasharray="1,5" d="M690.13,-280.41C690.13,-227.8 690.13,-14 690.13,-14 690.13,-14 431.74,-14 431.74,-14"/>
<polygon fill="black" stroke="black" points="431.74,-10.5 421.74,-14 431.74,-17.5 431.74,-10.5"/>
</g>
<!-- :data:musicbrainz&#45;&gt;:core:logging:api -->
<g id="edge20" class="edge">
<title>:data:musicbrainz&#45;&gt;:core:logging:api</title>
<path fill="none" stroke="black" stroke-dasharray="1,5" d="M596.54,-274.37C596.54,-274.37 596.54,-183 596.54,-183"/>
<polygon fill="black" stroke="black" points="600.04,-183 596.54,-173 593.04,-183 600.04,-183"/>
</g>
<!-- :core:preferences&#45;&gt;:core:models -->
<g id="edge23" class="edge">
<title>:core:preferences&#45;&gt;:core:models</title>
<path fill="none" stroke="black" stroke-dasharray="1,5" d="M22.25,-279.97C22.25,-226.38 22.25,-12 22.25,-12 22.25,-12 277.77,-12 277.77,-12"/>
<polygon fill="black" stroke="black" points="277.77,-15.5 287.77,-12 277.77,-8.5 277.77,-15.5"/>
</g>
<!-- :core:coroutines -->
<g id="node13" class="node">
<title>:core:coroutines</title>
<ellipse fill="#b59aff" stroke="black" cx="129.64" cy="-155" rx="85.29" ry="18"/>
<text text-anchor="middle" x="129.64" y="-151.3" font-family="Times,serif" font-size="14.00">:core:coroutines</text>
</g>
<!-- :core:preferences&#45;&gt;:core:coroutines -->
<g id="edge22" class="edge">
<title>:core:preferences&#45;&gt;:core:coroutines</title>
<path fill="none" stroke="black" stroke-dasharray="1,5" d="M113.89,-274.37C113.89,-274.37 113.89,-183 113.89,-183"/>
<polygon fill="black" stroke="black" points="117.39,-183 113.89,-173 110.39,-183 117.39,-183"/>
</g>
<!-- :ui:image&#45;&gt;:core:models -->
<g id="edge24" class="edge">
<title>:ui:image&#45;&gt;:core:models</title>
<path fill="none" stroke="black" stroke-dasharray="1,5" d="M757.05,-276.27C757.05,-216.52 757.05,-7 757.05,-7 757.05,-7 418.89,-7 418.89,-7"/>
<polygon fill="black" stroke="black" points="418.89,-3.5 408.89,-7 418.89,-10.5 418.89,-3.5"/>
</g>
<!-- :ui:image&#45;&gt;:ui:core -->
<g id="edge25" class="edge">
<title>:ui:image&#45;&gt;:ui:core</title>
<path fill="none" stroke="black" stroke-dasharray="1,5" d="M828.87,-282.15C828.87,-282.15 828.87,-175.89 828.87,-175.89"/>
<polygon fill="black" stroke="black" points="832.37,-175.89 828.87,-165.89 825.37,-175.89 832.37,-175.89"/>
</g>
</g>
</svg>
