<?xml version="1.0" encoding="UTF-8" standalone="no"?>
<!DOCTYPE svg PUBLIC "-//W3C//DTD SVG 1.1//EN"
 "http://www.w3.org/Graphics/SVG/1.1/DTD/svg11.dtd">
<!-- Generated by graphviz version 2.43.0 (0)
 -->
<!-- Title: %3 Pages: 1 -->
<svg width="1272pt" height="666pt"
 viewBox="0.00 0.00 1271.88 666.00" xmlns="http://www.w3.org/2000/svg" xmlns:xlink="http://www.w3.org/1999/xlink">
<g id="graph0" class="graph" transform="scale(1 1) rotate(0) translate(4 662)">
<title>%3</title>
<polygon fill="white" stroke="transparent" points="-4,4 -4,-662 1267.88,-662 1267.88,4 -4,4"/>
<text text-anchor="middle" x="631.94" y="-630" font-family="Times,serif" font-size="30.00">Dependencies</text>
<text text-anchor="middle" x="631.94" y="-597" font-family="Times,serif" font-size="30.00"> </text>
<!-- :android:feature:spotify -->
<g id="node1" class="node">
<title>:android:feature:spotify</title>
<polygon fill="#9affb5" stroke="black" points="768.54,-584 583.54,-584 583.54,-548 768.54,-548 768.54,-584"/>
<text text-anchor="middle" x="676.04" y="-562.3" font-family="Times,serif" font-size="14.00">:android:feature:spotify</text>
</g>
<!-- :ui:common -->
<g id="node2" class="node">
<title>:ui:common</title>
<ellipse fill="#b59aff" stroke="black" cx="676.04" cy="-429" rx="64.19" ry="18"/>
<text text-anchor="middle" x="676.04" y="-425.3" font-family="Times,serif" font-size="14.00">:ui:common</text>
</g>
<!-- :android:feature:spotify&#45;&gt;:ui:common -->
<g id="edge1" class="edge">
<title>:android:feature:spotify&#45;&gt;:ui:common</title>
<path fill="none" stroke="black" stroke-dasharray="1,5" d="M676.04,-547.81C676.04,-547.81 676.04,-457.27 676.04,-457.27"/>
<polygon fill="black" stroke="black" points="679.54,-457.27 676.04,-447.27 672.54,-457.27 679.54,-457.27"/>
</g>
<!-- :shared:domain -->
<g id="node3" class="node">
<title>:shared:domain</title>
<ellipse fill="#b59aff" stroke="black" cx="531.04" cy="-155" rx="82.59" ry="18"/>
<text text-anchor="middle" x="531.04" y="-151.3" font-family="Times,serif" font-size="14.00">:shared:domain</text>
</g>
<!-- :android:feature:spotify&#45;&gt;:shared:domain -->
<g id="edge2" class="edge">
<title>:android:feature:spotify&#45;&gt;:shared:domain</title>
<path fill="none" stroke="black" stroke-dasharray="1,5" d="M583.42,-566C498.5,-566 385.84,-566 385.84,-566 385.84,-566 385.84,-164 385.84,-164 385.84,-164 449.29,-164 449.29,-164"/>
<polygon fill="black" stroke="black" points="449.29,-167.5 459.29,-164 449.29,-160.5 449.29,-167.5"/>
</g>
<!-- :ui:test:screenshot -->
<g id="node4" class="node">
<title>:ui:test:screenshot</title>
<ellipse fill="#9affb5" stroke="black" cx="1167.04" cy="-292" rx="96.68" ry="18"/>
<text text-anchor="middle" x="1167.04" y="-288.3" font-family="Times,serif" font-size="14.00">:ui:test:screenshot</text>
</g>
<!-- :android:feature:spotify&#45;&gt;:ui:test:screenshot -->
<g id="edge3" class="edge">
<title>:android:feature:spotify&#45;&gt;:ui:test:screenshot</title>
<path fill="none" stroke="#ff9ab1" stroke-dasharray="1,5" d="M768.69,-566C918.99,-566 1199.32,-566 1199.32,-566 1199.32,-566 1199.32,-319.14 1199.32,-319.14"/>
<polygon fill="#ff9ab1" stroke="#ff9ab1" points="1202.82,-319.14 1199.32,-309.14 1195.82,-319.14 1202.82,-319.14"/>
</g>
<!-- :ui:common&#45;&gt;:shared:domain -->
<g id="edge5" class="edge">
<title>:ui:common&#45;&gt;:shared:domain</title>
<path fill="none" stroke="black" d="M666.82,-411C666.82,-350.91 666.82,-161 666.82,-161 666.82,-161 619.24,-161 619.24,-161"/>
<polygon fill="black" stroke="black" points="619.24,-157.5 609.24,-161 619.24,-164.5 619.24,-157.5"/>
</g>
<!-- :ui:common&#45;&gt;:ui:test:screenshot -->
<g id="edge4" class="edge">
<title>:ui:common&#45;&gt;:ui:test:screenshot</title>
<path fill="none" stroke="#ff9ab1" stroke-dasharray="1,5" d="M731.83,-438C854.08,-438 1134.76,-438 1134.76,-438 1134.76,-438 1134.76,-319.03 1134.76,-319.03"/>
<polygon fill="#ff9ab1" stroke="#ff9ab1" points="1138.26,-319.03 1134.76,-309.03 1131.26,-319.03 1138.26,-319.03"/>
</g>
<!-- :ui:core -->
<g id="node5" class="node">
<title>:ui:core</title>
<ellipse fill="#b59aff" stroke="black" cx="1041.04" cy="-155" rx="45.49" ry="18"/>
<text text-anchor="middle" x="1041.04" y="-151.3" font-family="Times,serif" font-size="14.00">:ui:core</text>
</g>
<!-- :ui:common&#45;&gt;:ui:core -->
<g id="edge6" class="edge">
<title>:ui:common&#45;&gt;:ui:core</title>
<path fill="none" stroke="black" d="M740.64,-429C845.73,-429 1042.1,-429 1042.1,-429 1042.1,-429 1042.1,-183.4 1042.1,-183.4"/>
<polygon fill="black" stroke="black" points="1045.6,-183.4 1042.1,-173.4 1038.6,-183.4 1045.6,-183.4"/>
</g>
<!-- :data:coverart -->
<g id="node6" class="node">
<title>:data:coverart</title>
<ellipse fill="#b59aff" stroke="black" cx="76.04" cy="-292" rx="76.09" ry="18"/>
<text text-anchor="middle" x="76.04" y="-288.3" font-family="Times,serif" font-size="14.00">:data:coverart</text>
</g>
<!-- :ui:common&#45;&gt;:data:coverart -->
<g id="edge7" class="edge">
<title>:ui:common&#45;&gt;:data:coverart</title>
<path fill="none" stroke="black" stroke-dasharray="1,5" d="M620.14,-438C471.19,-438 76.04,-438 76.04,-438 76.04,-438 76.04,-320.2 76.04,-320.2"/>
<polygon fill="black" stroke="black" points="79.54,-320.2 76.04,-310.2 72.54,-320.2 79.54,-320.2"/>
</g>
<!-- :data:musicbrainz -->
<g id="node7" class="node">
<title>:data:musicbrainz</title>
<ellipse fill="#b59aff" stroke="black" cx="264.04" cy="-292" rx="93.68" ry="18"/>
<text text-anchor="middle" x="264.04" y="-288.3" font-family="Times,serif" font-size="14.00">:data:musicbrainz</text>
</g>
<!-- :ui:common&#45;&gt;:data:musicbrainz -->
<g id="edge8" class="edge">
<title>:ui:common&#45;&gt;:data:musicbrainz</title>
<path fill="none" stroke="black" stroke-dasharray="1,5" d="M620.05,-420C507.4,-420 264.04,-420 264.04,-420 264.04,-420 264.04,-320.07 264.04,-320.07"/>
<polygon fill="black" stroke="black" points="267.54,-320.07 264.04,-310.07 260.54,-320.07 267.54,-320.07"/>
</g>
<!-- :data:common:network -->
<g id="node8" class="node">
<title>:data:common:network</title>
<ellipse fill="#b59aff" stroke="black" cx="531.04" cy="-292" rx="116.98" ry="18"/>
<text text-anchor="middle" x="531.04" y="-288.3" font-family="Times,serif" font-size="14.00">:data:common:network</text>
</g>
<!-- :ui:common&#45;&gt;:data:common:network -->
<g id="edge9" class="edge">
<title>:ui:common&#45;&gt;:data:common:network</title>
<path fill="none" stroke="black" stroke-dasharray="1,5" d="M629.87,-416.36C629.87,-416.36 629.87,-311.96 629.87,-311.96"/>
<polygon fill="black" stroke="black" points="633.37,-311.96 629.87,-301.96 626.37,-311.96 633.37,-311.96"/>
</g>
<!-- :core:preferences -->
<g id="node9" class="node">
<title>:core:preferences</title>
<ellipse fill="#b59aff" stroke="black" cx="796.04" cy="-292" rx="91.78" ry="18"/>
<text text-anchor="middle" x="796.04" y="-288.3" font-family="Times,serif" font-size="14.00">:core:preferences</text>
</g>
<!-- :ui:common&#45;&gt;:core:preferences -->
<g id="edge10" class="edge">
<title>:ui:common&#45;&gt;:core:preferences</title>
<path fill="none" stroke="black" stroke-dasharray="1,5" d="M722.39,-416.36C722.39,-416.36 722.39,-313.07 722.39,-313.07"/>
<polygon fill="black" stroke="black" points="725.89,-313.07 722.39,-303.07 718.89,-313.07 725.89,-313.07"/>
</g>
<!-- :core:logging:api -->
<g id="node10" class="node">
<title>:core:logging:api</title>
<ellipse fill="#b59aff" stroke="black" cx="170.04" cy="-155" rx="88.28" ry="18"/>
<text text-anchor="middle" x="170.04" y="-151.3" font-family="Times,serif" font-size="14.00">:core:logging:api</text>
</g>
<!-- :ui:common&#45;&gt;:core:logging:api -->
<g id="edge11" class="edge">
<title>:ui:common&#45;&gt;:core:logging:api</title>
<path fill="none" stroke="black" stroke-dasharray="1,5" d="M611.63,-429C473.5,-429 161.27,-429 161.27,-429 161.27,-429 161.27,-182.98 161.27,-182.98"/>
<polygon fill="black" stroke="black" points="164.77,-182.98 161.27,-172.98 157.77,-182.98 164.77,-182.98"/>
</g>
<!-- :ui:image -->
<g id="node11" class="node">
<title>:ui:image</title>
<ellipse fill="#b59aff" stroke="black" cx="960.04" cy="-292" rx="53.89" ry="18"/>
<text text-anchor="middle" x="960.04" y="-288.3" font-family="Times,serif" font-size="14.00">:ui:image</text>
</g>
<!-- :ui:common&#45;&gt;:ui:image -->
<g id="edge12" class="edge">
<title>:ui:common&#45;&gt;:ui:image</title>
<path fill="none" stroke="black" stroke-dasharray="1,5" d="M731.81,-420C814.52,-420 960.04,-420 960.04,-420 960.04,-420 960.04,-320.07 960.04,-320.07"/>
<polygon fill="black" stroke="black" points="963.54,-320.07 960.04,-310.07 956.54,-320.07 963.54,-320.07"/>
</g>
<!-- :ui:test:screenshot&#45;&gt;:ui:core -->
<g id="edge13" class="edge">
<title>:ui:test:screenshot&#45;&gt;:ui:core</title>
<path fill="none" stroke="black" stroke-dasharray="1,5" d="M1078.37,-284.63C1078.37,-284.63 1078.37,-175.67 1078.37,-175.67"/>
<polygon fill="black" stroke="black" points="1081.87,-175.67 1078.37,-165.67 1074.87,-175.67 1081.87,-175.67"/>
</g>
<!-- :test:image -->
<g id="node12" class="node">
<title>:test:image</title>
<ellipse fill="#9affb5" stroke="black" cx="1168.04" cy="-155" rx="63.09" ry="18"/>
<text text-anchor="middle" x="1168.04" y="-151.3" font-family="Times,serif" font-size="14.00">:test:image</text>
</g>
<!-- :ui:test:screenshot&#45;&gt;:test:image -->
<g id="edge14" class="edge">
<title>:ui:test:screenshot&#45;&gt;:test:image</title>
<path fill="none" stroke="black" stroke-dasharray="1,5" d="M1168.04,-273.81C1168.04,-273.81 1168.04,-183.27 1168.04,-183.27"/>
<polygon fill="black" stroke="black" points="1171.54,-183.27 1168.04,-173.27 1164.54,-183.27 1171.54,-183.27"/>
</g>
<!-- :shared:strings -->
<g id="node13" class="node">
<title>:shared:strings</title>
<ellipse fill="#b59aff" stroke="black" cx="1041.04" cy="-18" rx="81.49" ry="18"/>
<text text-anchor="middle" x="1041.04" y="-14.3" font-family="Times,serif" font-size="14.00">:shared:strings</text>
</g>
<!-- :ui:core&#45;&gt;:shared:strings -->
<g id="edge15" class="edge">
<title>:ui:core&#45;&gt;:shared:strings</title>
<path fill="none" stroke="black" d="M1041.04,-136.81C1041.04,-136.81 1041.04,-46.27 1041.04,-46.27"/>
<polygon fill="black" stroke="black" points="1044.54,-46.27 1041.04,-36.27 1037.54,-46.27 1044.54,-46.27"/>
</g>
<!-- :data:coverart&#45;&gt;:shared:domain -->
<g id="edge16" class="edge">
<title>:data:coverart&#45;&gt;:shared:domain</title>
<path fill="none" stroke="black" stroke-dasharray="1,5" d="M128.61,-278.88C128.61,-263.47 128.61,-240 128.61,-240 128.61,-240 489.77,-240 489.77,-240 489.77,-240 489.77,-180.59 489.77,-180.59"/>
<polygon fill="black" stroke="black" points="493.27,-180.59 489.77,-170.59 486.27,-180.59 493.27,-180.59"/>
</g>
<!-- :data:coverart&#45;&gt;:core:logging:api -->
<g id="edge17" class="edge">
<title>:data:coverart&#45;&gt;:core:logging:api</title>
<path fill="none" stroke="black" stroke-dasharray="1,5" d="M105.13,-275.2C105.13,-275.2 105.13,-177.48 105.13,-177.48"/>
<polygon fill="black" stroke="black" points="108.63,-177.48 105.13,-167.48 101.63,-177.48 108.63,-177.48"/>
</g>
<!-- :data:musicbrainz&#45;&gt;:shared:domain -->
<g id="edge18" class="edge">
<title>:data:musicbrainz&#45;&gt;:shared:domain</title>
<path fill="none" stroke="black" stroke-dasharray="1,5" d="M308.04,-276.1C308.04,-238.26 308.04,-146 308.04,-146 308.04,-146 449.25,-146 449.25,-146"/>
<polygon fill="black" stroke="black" points="449.25,-149.5 459.25,-146 449.25,-142.5 449.25,-149.5"/>
</g>
<!-- :data:musicbrainz&#45;&gt;:core:logging:api -->
<g id="edge19" class="edge">
<title>:data:musicbrainz&#45;&gt;:core:logging:api</title>
<path fill="none" stroke="black" stroke-dasharray="1,5" d="M214.44,-276.55C214.44,-276.55 214.44,-180.6 214.44,-180.6"/>
<polygon fill="black" stroke="black" points="217.94,-180.6 214.44,-170.6 210.94,-180.6 217.94,-180.6"/>
</g>
<!-- :data:common:network&#45;&gt;:shared:domain -->
<g id="edge21" class="edge">
<title>:data:common:network&#45;&gt;:shared:domain</title>
<path fill="none" stroke="black" stroke-dasharray="1,5" d="M531.04,-273.81C531.04,-273.81 531.04,-183.27 531.04,-183.27"/>
<polygon fill="black" stroke="black" points="534.54,-183.27 531.04,-173.27 527.54,-183.27 534.54,-183.27"/>
</g>
<!-- :data:common:network&#45;&gt;:core:logging:api -->
<g id="edge20" class="edge">
<title>:data:common:network&#45;&gt;:core:logging:api</title>
<path fill="none" stroke="black" stroke-dasharray="1,5" d="M431.28,-282.58C431.28,-251.63 431.28,-155 431.28,-155 431.28,-155 268.49,-155 268.49,-155"/>
<polygon fill="black" stroke="black" points="268.49,-151.5 258.49,-155 268.49,-158.5 268.49,-151.5"/>
</g>
<!-- :core:preferences&#45;&gt;:shared:domain -->
<g id="edge22" class="edge">
<title>:core:preferences&#45;&gt;:shared:domain</title>
<path fill="none" stroke="black" stroke-dasharray="1,5" d="M704.35,-292C693.18,-292 685.61,-292 685.61,-292 685.61,-292 685.61,-149 685.61,-149 685.61,-149 619.23,-149 619.23,-149"/>
<polygon fill="black" stroke="black" points="619.23,-145.5 609.23,-149 619.23,-152.5 619.23,-145.5"/>
</g>
<!-- :core:coroutines -->
<g id="node14" class="node">
<title>:core:coroutines</title>
<ellipse fill="#b59aff" stroke="black" cx="796.04" cy="-155" rx="85.29" ry="18"/>
<text text-anchor="middle" x="796.04" y="-151.3" font-family="Times,serif" font-size="14.00">:core:coroutines</text>
</g>
<!-- :core:preferences&#45;&gt;:core:coroutines -->
<g id="edge23" class="edge">
<title>:core:preferences&#45;&gt;:core:coroutines</title>
<path fill="none" stroke="black" stroke-dasharray="1,5" d="M796.04,-273.81C796.04,-273.81 796.04,-183.27 796.04,-183.27"/>
<polygon fill="black" stroke="black" points="799.54,-183.27 796.04,-173.27 792.54,-183.27 799.54,-183.27"/>
</g>
<!-- :ui:image&#45;&gt;:shared:domain -->
<g id="edge24" class="edge">
<title>:ui:image&#45;&gt;:shared:domain</title>
<path fill="none" stroke="black" stroke-dasharray="1,5" d="M932.95,-276.23C932.95,-251.4 932.95,-206 932.95,-206 932.95,-206 572.31,-206 572.31,-206 572.31,-206 572.31,-180.86 572.31,-180.86"/>
<polygon fill="black" stroke="black" points="575.81,-180.86 572.31,-170.86 568.81,-180.86 575.81,-180.86"/>
</g>
<!-- :ui:image&#45;&gt;:ui:core -->
<g id="edge25" class="edge">
<title>:ui:image&#45;&gt;:ui:core</title>
<path fill="none" stroke="black" stroke-dasharray="1,5" d="M1004.77,-281.7C1004.77,-281.7 1004.77,-176.18 1004.77,-176.18"/>
<polygon fill="black" stroke="black" points="1008.27,-176.18 1004.77,-166.18 1001.27,-176.18 1008.27,-176.18"/>
</g>
</g>
</svg>
