<?xml version="1.0" encoding="UTF-8" standalone="no"?>
<!DOCTYPE svg PUBLIC "-//W3C//DTD SVG 1.1//EN"
 "http://www.w3.org/Graphics/SVG/1.1/DTD/svg11.dtd">
<!-- Generated by graphviz version 2.43.0 (0)
 -->
<!-- Title: %3 Pages: 1 -->
<svg width="1037pt" height="666pt"
 viewBox="0.00 0.00 1037.38 666.00" xmlns="http://www.w3.org/2000/svg" xmlns:xlink="http://www.w3.org/1999/xlink">
<g id="graph0" class="graph" transform="scale(1 1) rotate(0) translate(4 662)">
<title>%3</title>
<polygon fill="white" stroke="transparent" points="-4,4 -4,-662 1033.38,-662 1033.38,4 -4,4"/>
<text text-anchor="middle" x="514.69" y="-630" font-family="Times,serif" font-size="30.00">Dependencies</text>
<text text-anchor="middle" x="514.69" y="-597" font-family="Times,serif" font-size="30.00"> </text>
<!-- :android:feature:spotify -->
<g id="node1" class="node">
<title>:android:feature:spotify</title>
<polygon fill="#9affb5" stroke="black" points="187.04,-584 2.04,-584 2.04,-548 187.04,-548 187.04,-584"/>
<text text-anchor="middle" x="94.54" y="-562.3" font-family="Times,serif" font-size="14.00">:android:feature:spotify</text>
</g>
<!-- :core:models -->
<g id="node2" class="node">
<title>:core:models</title>
<ellipse fill="#b59aff" stroke="black" cx="193.54" cy="-18" rx="69.59" ry="18"/>
<text text-anchor="middle" x="193.54" y="-14.3" font-family="Times,serif" font-size="14.00">:core:models</text>
</g>
<!-- :android:feature:spotify&#45;&gt;:core:models -->
<g id="edge1" class="edge">
<title>:android:feature:spotify&#45;&gt;:core:models</title>
<path fill="none" stroke="black" stroke-dasharray="1,5" d="M187.16,-557C201.53,-557 211.73,-557 211.73,-557 211.73,-557 211.73,-45.63 211.73,-45.63"/>
<polygon fill="black" stroke="black" points="215.23,-45.63 211.73,-35.63 208.23,-45.63 215.23,-45.63"/>
</g>
<!-- :ui:common -->
<g id="node3" class="node">
<title>:ui:common</title>
<ellipse fill="#b59aff" stroke="black" cx="297.54" cy="-429" rx="64.19" ry="18"/>
<text text-anchor="middle" x="297.54" y="-425.3" font-family="Times,serif" font-size="14.00">:ui:common</text>
</g>
<!-- :android:feature:spotify&#45;&gt;:ui:common -->
<g id="edge2" class="edge">
<title>:android:feature:spotify&#45;&gt;:ui:common</title>
<path fill="none" stroke="black" stroke-dasharray="1,5" d="M187.13,-566C240.67,-566 297.54,-566 297.54,-566 297.54,-566 297.54,-457.19 297.54,-457.19"/>
<polygon fill="black" stroke="black" points="301.04,-457.19 297.54,-447.19 294.04,-457.19 301.04,-457.19"/>
</g>
<!-- :shared:domain -->
<g id="node4" class="node">
<title>:shared:domain</title>
<ellipse fill="#b59aff" stroke="black" cx="82.54" cy="-155" rx="82.59" ry="18"/>
<text text-anchor="middle" x="82.54" y="-151.3" font-family="Times,serif" font-size="14.00">:shared:domain</text>
</g>
<!-- :android:feature:spotify&#45;&gt;:shared:domain -->
<g id="edge3" class="edge">
<title>:android:feature:spotify&#45;&gt;:shared:domain</title>
<path fill="none" stroke="black" stroke-dasharray="1,5" d="M20.19,-547.81C20.19,-547.81 20.19,-177.03 20.19,-177.03"/>
<polygon fill="black" stroke="black" points="23.7,-177.03 20.19,-167.03 16.7,-177.03 23.7,-177.03"/>
</g>
<!-- :ui:test:screenshot -->
<g id="node5" class="node">
<title>:ui:test:screenshot</title>
<ellipse fill="#9affb5" stroke="black" cx="932.54" cy="-292" rx="96.68" ry="18"/>
<text text-anchor="middle" x="932.54" y="-288.3" font-family="Times,serif" font-size="14.00">:ui:test:screenshot</text>
</g>
<!-- :android:feature:spotify&#45;&gt;:ui:test:screenshot -->
<g id="edge4" class="edge">
<title>:android:feature:spotify&#45;&gt;:ui:test:screenshot</title>
<path fill="none" stroke="#ff9ab1" stroke-dasharray="1,5" d="M187.27,-575C411.51,-575 964.82,-575 964.82,-575 964.82,-575 964.82,-319.28 964.82,-319.28"/>
<polygon fill="#ff9ab1" stroke="#ff9ab1" points="968.32,-319.28 964.82,-309.28 961.32,-319.28 968.32,-319.28"/>
</g>
<!-- :ui:common&#45;&gt;:core:models -->
<g id="edge6" class="edge">
<title>:ui:common&#45;&gt;:core:models</title>
<path fill="none" stroke="black" d="M241.48,-420C226.74,-420 214.87,-420 214.87,-420 214.87,-420 214.87,-45.27 214.87,-45.27"/>
<polygon fill="black" stroke="black" points="218.37,-45.27 214.87,-35.27 211.37,-45.27 218.37,-45.27"/>
</g>
<!-- :ui:common&#45;&gt;:shared:domain -->
<g id="edge12" class="edge">
<title>:ui:common&#45;&gt;:shared:domain</title>
<path fill="none" stroke="black" stroke-dasharray="1,5" d="M241.62,-438C165.42,-438 38.35,-438 38.35,-438 38.35,-438 38.35,-180.22 38.35,-180.22"/>
<polygon fill="black" stroke="black" points="41.85,-180.22 38.35,-170.22 34.85,-180.22 41.85,-180.22"/>
</g>
<!-- :ui:common&#45;&gt;:ui:test:screenshot -->
<g id="edge5" class="edge">
<title>:ui:common&#45;&gt;:ui:test:screenshot</title>
<path fill="none" stroke="#ff9ab1" stroke-dasharray="1,5" d="M351.29,-439C499.02,-439 900.26,-439 900.26,-439 900.26,-439 900.26,-319.15 900.26,-319.15"/>
<polygon fill="#ff9ab1" stroke="#ff9ab1" points="903.76,-319.15 900.26,-309.15 896.76,-319.15 903.76,-319.15"/>
</g>
<!-- :ui:core -->
<g id="node6" class="node">
<title>:ui:core</title>
<ellipse fill="#b59aff" stroke="black" cx="806.54" cy="-155" rx="45.49" ry="18"/>
<text text-anchor="middle" x="806.54" y="-151.3" font-family="Times,serif" font-size="14.00">:ui:core</text>
</g>
<!-- :ui:common&#45;&gt;:ui:core -->
<g id="edge7" class="edge">
<title>:ui:common&#45;&gt;:ui:core</title>
<path fill="none" stroke="black" d="M361.11,-432C497.84,-432 807.59,-432 807.59,-432 807.59,-432 807.59,-183.17 807.59,-183.17"/>
<polygon fill="black" stroke="black" points="811.09,-183.17 807.59,-173.17 804.09,-183.17 811.09,-183.17"/>
</g>
<!-- :data:coverart -->
<g id="node7" class="node">
<title>:data:coverart</title>
<ellipse fill="#b59aff" stroke="black" cx="132.54" cy="-292" rx="76.09" ry="18"/>
<text text-anchor="middle" x="132.54" y="-288.3" font-family="Times,serif" font-size="14.00">:data:coverart</text>
</g>
<!-- :ui:common&#45;&gt;:data:coverart -->
<g id="edge8" class="edge">
<title>:ui:common&#45;&gt;:data:coverart</title>
<path fill="none" stroke="black" stroke-dasharray="1,5" d="M232.97,-429C213.8,-429 197.81,-429 197.81,-429 197.81,-429 197.81,-311.42 197.81,-311.42"/>
<polygon fill="black" stroke="black" points="201.31,-311.42 197.81,-301.42 194.31,-311.42 201.31,-311.42"/>
</g>
<!-- :data:musicbrainz -->
<g id="node8" class="node">
<title>:data:musicbrainz</title>
<ellipse fill="#b59aff" stroke="black" cx="358.54" cy="-292" rx="93.68" ry="18"/>
<text text-anchor="middle" x="358.54" y="-288.3" font-family="Times,serif" font-size="14.00">:data:musicbrainz</text>
</g>
<!-- :ui:common&#45;&gt;:data:musicbrainz -->
<g id="edge9" class="edge">
<title>:ui:common&#45;&gt;:data:musicbrainz</title>
<path fill="none" stroke="black" stroke-dasharray="1,5" d="M313.42,-411.37C313.42,-411.37 313.42,-317.86 313.42,-317.86"/>
<polygon fill="black" stroke="black" points="316.92,-317.86 313.42,-307.86 309.92,-317.86 316.92,-317.86"/>
</g>
<!-- :core:preferences -->
<g id="node9" class="node">
<title>:core:preferences</title>
<ellipse fill="#b59aff" stroke="black" cx="561.54" cy="-292" rx="91.78" ry="18"/>
<text text-anchor="middle" x="561.54" y="-288.3" font-family="Times,serif" font-size="14.00">:core:preferences</text>
</g>
<!-- :ui:common&#45;&gt;:core:preferences -->
<g id="edge10" class="edge">
<title>:ui:common&#45;&gt;:core:preferences</title>
<path fill="none" stroke="black" stroke-dasharray="1,5" d="M348.76,-418C425.53,-418 561.54,-418 561.54,-418 561.54,-418 561.54,-320.05 561.54,-320.05"/>
<polygon fill="black" stroke="black" points="565.04,-320.05 561.54,-310.05 558.04,-320.05 565.04,-320.05"/>
</g>
<!-- :core:logging:api -->
<g id="node10" class="node">
<title>:core:logging:api</title>
<ellipse fill="#b59aff" stroke="black" cx="309.54" cy="-155" rx="88.28" ry="18"/>
<text text-anchor="middle" x="309.54" y="-151.3" font-family="Times,serif" font-size="14.00">:core:logging:api</text>
</g>
<!-- :ui:common&#45;&gt;:core:logging:api -->
<g id="edge11" class="edge">
<title>:ui:common&#45;&gt;:core:logging:api</title>
<path fill="none" stroke="black" stroke-dasharray="1,5" d="M249.07,-416.87C249.07,-416.87 249.07,-178.25 249.07,-178.25"/>
<polygon fill="black" stroke="black" points="252.57,-178.25 249.07,-168.25 245.57,-178.25 252.57,-178.25"/>
</g>
<!-- :ui:image -->
<g id="node11" class="node">
<title>:ui:image</title>
<ellipse fill="#b59aff" stroke="black" cx="725.54" cy="-292" rx="53.89" ry="18"/>
<text text-anchor="middle" x="725.54" y="-288.3" font-family="Times,serif" font-size="14.00">:ui:image</text>
</g>
<!-- :ui:common&#45;&gt;:ui:image -->
<g id="edge13" class="edge">
<title>:ui:common&#45;&gt;:ui:image</title>
<path fill="none" stroke="black" stroke-dasharray="1,5" d="M360.7,-425C479.75,-425 725.54,-425 725.54,-425 725.54,-425 725.54,-320.21 725.54,-320.21"/>
<polygon fill="black" stroke="black" points="729.04,-320.21 725.54,-310.21 722.04,-320.21 729.04,-320.21"/>
</g>
<!-- :shared:domain&#45;&gt;:core:models -->
<g id="edge14" class="edge">
<title>:shared:domain&#45;&gt;:core:models</title>
<path fill="none" stroke="black" stroke-dasharray="1,5" d="M144.54,-142.84C144.54,-142.84 144.54,-41.13 144.54,-41.13"/>
<polygon fill="black" stroke="black" points="148.04,-41.13 144.54,-31.13 141.04,-41.13 148.04,-41.13"/>
</g>
<!-- :ui:test:screenshot&#45;&gt;:ui:core -->
<g id="edge15" class="edge">
<title>:ui:test:screenshot&#45;&gt;:ui:core</title>
<path fill="none" stroke="black" stroke-dasharray="1,5" d="M843.87,-284.63C843.87,-284.63 843.87,-175.67 843.87,-175.67"/>
<polygon fill="black" stroke="black" points="847.37,-175.67 843.87,-165.67 840.37,-175.67 847.37,-175.67"/>
</g>
<!-- :test:image -->
<g id="node12" class="node">
<title>:test:image</title>
<ellipse fill="#9affb5" stroke="black" cx="933.54" cy="-155" rx="63.09" ry="18"/>
<text text-anchor="middle" x="933.54" y="-151.3" font-family="Times,serif" font-size="14.00">:test:image</text>
</g>
<!-- :ui:test:screenshot&#45;&gt;:test:image -->
<g id="edge16" class="edge">
<title>:ui:test:screenshot&#45;&gt;:test:image</title>
<path fill="none" stroke="black" stroke-dasharray="1,5" d="M933.54,-273.81C933.54,-273.81 933.54,-183.27 933.54,-183.27"/>
<polygon fill="black" stroke="black" points="937.04,-183.27 933.54,-173.27 930.04,-183.27 937.04,-183.27"/>
</g>
<!-- :shared:strings -->
<g id="node13" class="node">
<title>:shared:strings</title>
<ellipse fill="#b59aff" stroke="black" cx="806.54" cy="-18" rx="81.49" ry="18"/>
<text text-anchor="middle" x="806.54" y="-14.3" font-family="Times,serif" font-size="14.00">:shared:strings</text>
</g>
<!-- :ui:core&#45;&gt;:shared:strings -->
<g id="edge17" class="edge">
<title>:ui:core&#45;&gt;:shared:strings</title>
<path fill="none" stroke="black" d="M806.54,-136.81C806.54,-136.81 806.54,-46.27 806.54,-46.27"/>
<polygon fill="black" stroke="black" points="810.04,-46.27 806.54,-36.27 803.04,-46.27 810.04,-46.27"/>
</g>
<!-- :data:coverart&#45;&gt;:core:models -->
<g id="edge19" class="edge">
<title>:data:coverart&#45;&gt;:core:models</title>
<path fill="none" stroke="black" stroke-dasharray="1,5" d="M186.84,-279.15C186.84,-279.15 186.84,-45.96 186.84,-45.96"/>
<polygon fill="black" stroke="black" points="190.34,-45.96 186.84,-35.96 183.34,-45.96 190.34,-45.96"/>
</g>
<!-- :data:coverart&#45;&gt;:shared:domain -->
<g id="edge20" class="edge">
<title>:data:coverart&#45;&gt;:shared:domain</title>
<path fill="none" stroke="black" stroke-dasharray="1,5" d="M110.79,-274.65C110.79,-274.65 110.79,-182.21 110.79,-182.21"/>
<polygon fill="black" stroke="black" points="114.29,-182.21 110.79,-172.21 107.29,-182.21 114.29,-182.21"/>
</g>
<!-- :data:coverart&#45;&gt;:core:logging:api -->
<g id="edge18" class="edge">
<title>:data:coverart&#45;&gt;:core:logging:api</title>
<path fill="none" stroke="black" stroke-dasharray="1,5" d="M204.27,-286C217.47,-286 227.17,-286 227.17,-286 227.17,-286 227.17,-171.68 227.17,-171.68"/>
<polygon fill="black" stroke="black" points="230.67,-171.68 227.17,-161.68 223.67,-171.68 230.67,-171.68"/>
</g>
<!-- :data:musicbrainz&#45;&gt;:core:models -->
<g id="edge22" class="edge">
<title>:data:musicbrainz&#45;&gt;:core:models</title>
<path fill="none" stroke="black" stroke-dasharray="1,5" d="M269.94,-298C241.88,-298 218.01,-298 218.01,-298 218.01,-298 218.01,-45.09 218.01,-45.09"/>
<polygon fill="black" stroke="black" points="221.51,-45.09 218.01,-35.09 214.51,-45.09 221.51,-45.09"/>
</g>
<!-- :data:musicbrainz&#45;&gt;:core:logging:api -->
<g id="edge21" class="edge">
<title>:data:musicbrainz&#45;&gt;:core:logging:api</title>
<path fill="none" stroke="black" stroke-dasharray="1,5" d="M331.44,-274.65C331.44,-274.65 331.44,-182.64 331.44,-182.64"/>
<polygon fill="black" stroke="black" points="334.94,-182.64 331.44,-172.64 327.94,-182.64 334.94,-182.64"/>
</g>
<!-- :core:preferences&#45;&gt;:core:models -->
<g id="edge24" class="edge">
<title>:core:preferences&#45;&gt;:core:models</title>
<path fill="none" stroke="black" stroke-dasharray="1,5" d="M638.43,-282.14C638.43,-233.79 638.43,-24 638.43,-24 638.43,-24 269.19,-24 269.19,-24"/>
<polygon fill="black" stroke="black" points="269.19,-20.5 259.19,-24 269.19,-27.5 269.19,-20.5"/>
</g>
<!-- :core:coroutines -->
<g id="node14" class="node">
<title>:core:coroutines</title>
<ellipse fill="#b59aff" stroke="black" cx="538.54" cy="-155" rx="85.29" ry="18"/>
<text text-anchor="middle" x="538.54" y="-151.3" font-family="Times,serif" font-size="14.00">:core:coroutines</text>
</g>
<!-- :core:preferences&#45;&gt;:core:coroutines -->
<g id="edge23" class="edge">
<title>:core:preferences&#45;&gt;:core:coroutines</title>
<path fill="none" stroke="black" stroke-dasharray="1,5" d="M546.79,-274.09C546.79,-274.09 546.79,-183.35 546.79,-183.35"/>
<polygon fill="black" stroke="black" points="550.29,-183.35 546.79,-173.35 543.29,-183.35 550.29,-183.35"/>
</g>
<!-- :ui:image&#45;&gt;:core:models -->
<g id="edge25" class="edge">
<title>:ui:image&#45;&gt;:core:models</title>
<path fill="none" stroke="black" stroke-dasharray="1,5" d="M698.45,-276.14C698.45,-216.91 698.45,-12 698.45,-12 698.45,-12 269.29,-12 269.29,-12"/>
<polygon fill="black" stroke="black" points="269.29,-8.5 259.29,-12 269.29,-15.5 269.29,-8.5"/>
</g>
<!-- :ui:image&#45;&gt;:ui:core -->
<g id="edge26" class="edge">
<title>:ui:image&#45;&gt;:ui:core</title>
<path fill="none" stroke="black" stroke-dasharray="1,5" d="M770.27,-281.7C770.27,-281.7 770.27,-176.18 770.27,-176.18"/>
<polygon fill="black" stroke="black" points="773.77,-176.18 770.27,-166.18 766.77,-176.18 773.77,-176.18"/>
</g>
</g>
</svg>
