<?xml version="1.0" encoding="UTF-8" standalone="no"?>
<!DOCTYPE svg PUBLIC "-//W3C//DTD SVG 1.1//EN"
 "http://www.w3.org/Graphics/SVG/1.1/DTD/svg11.dtd">
<!-- Generated by graphviz version 2.43.0 (0)
 -->
<!-- Title: %3 Pages: 1 -->
<svg width="1123pt" height="940pt"
 viewBox="0.00 0.00 1123.23 940.00" xmlns="http://www.w3.org/2000/svg" xmlns:xlink="http://www.w3.org/1999/xlink">
<g id="graph0" class="graph" transform="scale(1 1) rotate(0) translate(4 936)">
<title>%3</title>
<polygon fill="white" stroke="transparent" points="-4,4 -4,-936 1119.23,-936 1119.23,4 -4,4"/>
<text text-anchor="middle" x="557.62" y="-904" font-family="Times,serif" font-size="30.00">Dependencies</text>
<text text-anchor="middle" x="557.62" y="-871" font-family="Times,serif" font-size="30.00"> </text>
<!-- :android:feature:spotify -->
<g id="node1" class="node">
<title>:android:feature:spotify</title>
<polygon fill="#9affb5" stroke="black" points="1110.89,-858 925.89,-858 925.89,-822 1110.89,-822 1110.89,-858"/>
<text text-anchor="middle" x="1018.39" y="-836.3" font-family="Times,serif" font-size="14.00">:android:feature:spotify</text>
</g>
<!-- :ui:common -->
<g id="node2" class="node">
<title>:ui:common</title>
<ellipse fill="#b59aff" stroke="black" cx="748.39" cy="-703" rx="64.19" ry="18"/>
<text text-anchor="middle" x="748.39" y="-699.3" font-family="Times,serif" font-size="14.00">:ui:common</text>
</g>
<!-- :android:feature:spotify&#45;&gt;:ui:common -->
<g id="edge1" class="edge">
<title>:android:feature:spotify&#45;&gt;:ui:common</title>
<path fill="none" stroke="black" stroke-dasharray="1,5" d="M925.85,-834C847.69,-834 748.39,-834 748.39,-834 748.39,-834 748.39,-731.21 748.39,-731.21"/>
<polygon fill="black" stroke="black" points="751.89,-731.21 748.39,-721.21 744.89,-731.22 751.89,-731.21"/>
</g>
<!-- :shared:domain -->
<g id="node3" class="node">
<title>:shared:domain</title>
<ellipse fill="#b59aff" stroke="black" cx="672.39" cy="-18" rx="82.59" ry="18"/>
<text text-anchor="middle" x="672.39" y="-14.3" font-family="Times,serif" font-size="14.00">:shared:domain</text>
</g>
<!-- :android:feature:spotify&#45;&gt;:shared:domain -->
<g id="edge2" class="edge">
<title>:android:feature:spotify&#45;&gt;:shared:domain</title>
<path fill="none" stroke="black" stroke-dasharray="1,5" d="M925.79,-846C822.41,-846 669.42,-846 669.42,-846 669.42,-846 669.42,-46.06 669.42,-46.06"/>
<polygon fill="black" stroke="black" points="672.92,-46.06 669.42,-36.06 665.92,-46.06 672.92,-46.06"/>
</g>
<!-- :ui:test:screenshot -->
<g id="node4" class="node">
<title>:ui:test:screenshot</title>
<ellipse fill="#9affb5" stroke="black" cx="1018.39" cy="-566" rx="96.68" ry="18"/>
<text text-anchor="middle" x="1018.39" y="-562.3" font-family="Times,serif" font-size="14.00">:ui:test:screenshot</text>
</g>
<!-- :android:feature:spotify&#45;&gt;:ui:test:screenshot -->
<g id="edge3" class="edge">
<title>:android:feature:spotify&#45;&gt;:ui:test:screenshot</title>
<path fill="none" stroke="#ff9ab1" stroke-dasharray="1,5" d="M1049.23,-821.6C1049.23,-821.6 1049.23,-593.26 1049.23,-593.26"/>
<polygon fill="#ff9ab1" stroke="#ff9ab1" points="1052.73,-593.26 1049.23,-583.26 1045.73,-593.26 1052.73,-593.26"/>
</g>
<!-- :ui:common&#45;&gt;:shared:domain -->
<g id="edge5" class="edge">
<title>:ui:common&#45;&gt;:shared:domain</title>
<path fill="none" stroke="black" d="M719.49,-686.74C719.49,-686.74 719.49,-42.92 719.49,-42.92"/>
<polygon fill="black" stroke="black" points="722.99,-42.92 719.49,-32.92 715.99,-42.92 722.99,-42.92"/>
</g>
<!-- :ui:common&#45;&gt;:ui:test:screenshot -->
<g id="edge4" class="edge">
<title>:ui:common&#45;&gt;:ui:test:screenshot</title>
<path fill="none" stroke="#ff9ab1" stroke-dasharray="1,5" d="M812.8,-703C883.64,-703 987.56,-703 987.56,-703 987.56,-703 987.56,-593.07 987.56,-593.07"/>
<polygon fill="#ff9ab1" stroke="#ff9ab1" points="991.06,-593.07 987.56,-583.07 984.06,-593.07 991.06,-593.07"/>
</g>
<!-- :ui:core -->
<g id="node5" class="node">
<title>:ui:core</title>
<ellipse fill="#b59aff" stroke="black" cx="843.39" cy="-429" rx="45.49" ry="18"/>
<text text-anchor="middle" x="843.39" y="-425.3" font-family="Times,serif" font-size="14.00">:ui:core</text>
</g>
<!-- :ui:common&#45;&gt;:ui:core -->
<g id="edge6" class="edge">
<title>:ui:common&#45;&gt;:ui:core</title>
<path fill="none" stroke="black" d="M776.3,-686.68C776.3,-627.69 776.3,-429 776.3,-429 776.3,-429 787.53,-429 787.53,-429"/>
<polygon fill="black" stroke="black" points="787.53,-432.5 797.53,-429 787.53,-425.5 787.53,-432.5"/>
</g>
<!-- :data:coverart -->
<g id="node6" class="node">
<title>:data:coverart</title>
<ellipse fill="#b59aff" stroke="black" cx="423.39" cy="-566" rx="76.09" ry="18"/>
<text text-anchor="middle" x="423.39" y="-562.3" font-family="Times,serif" font-size="14.00">:data:coverart</text>
</g>
<!-- :ui:common&#45;&gt;:data:coverart -->
<g id="edge7" class="edge">
<title>:ui:common&#45;&gt;:data:coverart</title>
<path fill="none" stroke="black" stroke-dasharray="1,5" d="M701.77,-690.26C701.77,-657.88 701.77,-575 701.77,-575 701.77,-575 499.36,-575 499.36,-575"/>
<polygon fill="black" stroke="black" points="499.36,-571.5 489.36,-575 499.36,-578.5 499.36,-571.5"/>
</g>
<!-- :data:musicbrainz -->
<g id="node7" class="node">
<title>:data:musicbrainz</title>
<ellipse fill="#b59aff" stroke="black" cx="149.39" cy="-155" rx="93.68" ry="18"/>
<text text-anchor="middle" x="149.39" y="-151.3" font-family="Times,serif" font-size="14.00">:data:musicbrainz</text>
</g>
<!-- :ui:common&#45;&gt;:data:musicbrainz -->
<g id="edge8" class="edge">
<title>:ui:common&#45;&gt;:data:musicbrainz</title>
<path fill="none" stroke="black" stroke-dasharray="1,5" d="M687.5,-697C526.37,-697 101.13,-697 101.13,-697 101.13,-697 101.13,-180.64 101.13,-180.64"/>
<polygon fill="black" stroke="black" points="104.63,-180.64 101.13,-170.64 97.63,-180.64 104.63,-180.64"/>
</g>
<!-- :core:logging:api -->
<g id="node8" class="node">
<title>:core:logging:api</title>
<ellipse fill="#b59aff" stroke="black" cx="88.39" cy="-18" rx="88.28" ry="18"/>
<text text-anchor="middle" x="88.39" y="-14.3" font-family="Times,serif" font-size="14.00">:core:logging:api</text>
</g>
<!-- :ui:common&#45;&gt;:core:logging:api -->
<g id="edge9" class="edge">
<title>:ui:common&#45;&gt;:core:logging:api</title>
<path fill="none" stroke="black" stroke-dasharray="1,5" d="M687.43,-709C512.03,-709 18.6,-709 18.6,-709 18.6,-709 18.6,-39.13 18.6,-39.13"/>
<polygon fill="black" stroke="black" points="22.1,-39.13 18.6,-29.13 15.1,-39.13 22.1,-39.13"/>
</g>
<!-- :ui:image -->
<g id="node9" class="node">
<title>:ui:image</title>
<ellipse fill="#b59aff" stroke="black" cx="849.39" cy="-566" rx="53.89" ry="18"/>
<text text-anchor="middle" x="849.39" y="-562.3" font-family="Times,serif" font-size="14.00">:ui:image</text>
</g>
<!-- :ui:common&#45;&gt;:ui:image -->
<g id="edge10" class="edge">
<title>:ui:common&#45;&gt;:ui:image</title>
<path fill="none" stroke="black" stroke-dasharray="1,5" d="M804.09,-693.58C804.09,-693.58 804.09,-585.85 804.09,-585.85"/>
<polygon fill="black" stroke="black" points="807.59,-585.85 804.09,-575.85 800.59,-585.85 807.59,-585.85"/>
</g>
<!-- :ui:test:screenshot&#45;&gt;:ui:core -->
<g id="edge11" class="edge">
<title>:ui:test:screenshot&#45;&gt;:ui:core</title>
<path fill="none" stroke="black" stroke-dasharray="1,5" d="M948.45,-553.36C948.45,-519.44 948.45,-429 948.45,-429 948.45,-429 899.17,-429 899.17,-429"/>
<polygon fill="black" stroke="black" points="899.17,-425.5 889.17,-429 899.17,-432.5 899.17,-425.5"/>
</g>
<!-- :test:image -->
<g id="node10" class="node">
<title>:test:image</title>
<ellipse fill="#9affb5" stroke="black" cx="1038.39" cy="-429" rx="63.09" ry="18"/>
<text text-anchor="middle" x="1038.39" y="-425.3" font-family="Times,serif" font-size="14.00">:test:image</text>
</g>
<!-- :ui:test:screenshot&#45;&gt;:test:image -->
<g id="edge12" class="edge">
<title>:ui:test:screenshot&#45;&gt;:test:image</title>
<path fill="none" stroke="black" stroke-dasharray="1,5" d="M1038.39,-548.37C1038.39,-548.37 1038.39,-457.44 1038.39,-457.44"/>
<polygon fill="black" stroke="black" points="1041.89,-457.44 1038.39,-447.44 1034.89,-457.44 1041.89,-457.44"/>
</g>
<!-- :shared:strings -->
<g id="node11" class="node">
<title>:shared:strings</title>
<ellipse fill="#b59aff" stroke="black" cx="838.39" cy="-292" rx="81.49" ry="18"/>
<text text-anchor="middle" x="838.39" y="-288.3" font-family="Times,serif" font-size="14.00">:shared:strings</text>
</g>
<!-- :ui:core&#45;&gt;:shared:strings -->
<g id="edge13" class="edge">
<title>:ui:core&#45;&gt;:shared:strings</title>
<path fill="none" stroke="black" d="M843.39,-410.81C843.39,-410.81 843.39,-320.27 843.39,-320.27"/>
<polygon fill="black" stroke="black" points="846.89,-320.27 843.39,-310.27 839.89,-320.27 846.89,-320.27"/>
</g>
<!-- :data:coverart&#45;&gt;:shared:domain -->
<g id="edge14" class="edge">
<title>:data:coverart&#45;&gt;:shared:domain</title>
<path fill="none" stroke="black" stroke-dasharray="1,5" d="M499.48,-566C566.93,-566 654.79,-566 654.79,-566 654.79,-566 654.79,-45.61 654.79,-45.61"/>
<polygon fill="black" stroke="black" points="658.29,-45.61 654.79,-35.61 651.29,-45.61 658.29,-45.61"/>
</g>
<!-- :data:coverart&#45;&gt;:data:musicbrainz -->
<g id="edge18" class="edge">
<title>:data:coverart&#45;&gt;:data:musicbrainz</title>
<path fill="none" stroke="#ff9ab1" stroke-dasharray="1,5" d="M351.35,-560C269.3,-560 146.45,-560 146.45,-560 146.45,-560 146.45,-183.19 146.45,-183.19"/>
<polygon fill="#ff9ab1" stroke="#ff9ab1" points="149.95,-183.19 146.45,-173.19 142.95,-183.19 149.95,-183.19"/>
</g>
<!-- :data:coverart&#45;&gt;:core:logging:api -->
<g id="edge15" class="edge">
<title>:data:coverart&#45;&gt;:core:logging:api</title>
<path fill="none" stroke="black" stroke-dasharray="1,5" d="M351.66,-572C239.97,-572 37.2,-572 37.2,-572 37.2,-572 37.2,-42.82 37.2,-42.82"/>
<polygon fill="black" stroke="black" points="40.7,-42.82 37.2,-32.82 33.7,-42.82 40.7,-42.82"/>
</g>
<!-- :core:coroutines -->
<g id="node12" class="node">
<title>:core:coroutines</title>
<ellipse fill="#b59aff" stroke="black" cx="540.39" cy="-155" rx="85.29" ry="18"/>
<text text-anchor="middle" x="540.39" y="-151.3" font-family="Times,serif" font-size="14.00">:core:coroutines</text>
</g>
<!-- :data:coverart&#45;&gt;:core:coroutines -->
<g id="edge16" class="edge">
<title>:data:coverart&#45;&gt;:core:coroutines</title>
<path fill="none" stroke="black" stroke-dasharray="1,5" d="M489.04,-556.64C489.04,-556.64 489.04,-179.75 489.04,-179.75"/>
<polygon fill="black" stroke="black" points="492.54,-179.75 489.04,-169.75 485.54,-179.75 492.54,-179.75"/>
</g>
<!-- :test&#45;data -->
<g id="node13" class="node">
<title>:test&#45;data</title>
<ellipse fill="#b59aff" stroke="black" cx="423.39" cy="-429" rx="55.49" ry="18"/>
<text text-anchor="middle" x="423.39" y="-425.3" font-family="Times,serif" font-size="14.00">:test&#45;data</text>
</g>
<!-- :data:coverart&#45;&gt;:test&#45;data -->
<g id="edge17" class="edge">
<title>:data:coverart&#45;&gt;:test&#45;data</title>
<path fill="none" stroke="#ff9ab1" stroke-dasharray="1,5" d="M404.98,-548.37C404.98,-548.37 404.98,-456.13 404.98,-456.13"/>
<polygon fill="#ff9ab1" stroke="#ff9ab1" points="408.48,-456.13 404.98,-446.13 401.48,-456.13 408.48,-456.13"/>
</g>
<!-- :data:database -->
<g id="node14" class="node">
<title>:data:database</title>
<ellipse fill="#b59aff" stroke="black" cx="316.39" cy="-292" rx="79.09" ry="18"/>
<text text-anchor="middle" x="316.39" y="-288.3" font-family="Times,serif" font-size="14.00">:data:database</text>
</g>
<!-- :data:coverart&#45;&gt;:data:database -->
<g id="edge19" class="edge">
<title>:data:coverart&#45;&gt;:data:database</title>
<path fill="none" stroke="#ff9ab1" stroke-dasharray="1,5" d="M357.75,-556.88C357.75,-556.88 357.75,-317.49 357.75,-317.49"/>
<polygon fill="#ff9ab1" stroke="#ff9ab1" points="361.25,-317.49 357.75,-307.49 354.25,-317.49 361.25,-317.49"/>
</g>
<!-- :data:musicbrainz&#45;&gt;:shared:domain -->
<g id="edge20" class="edge">
<title>:data:musicbrainz&#45;&gt;:shared:domain</title>
<path fill="none" stroke="black" stroke-dasharray="1,5" d="M209.88,-141.08C209.88,-104.23 209.88,-7 209.88,-7 209.88,-7 596.62,-7 596.62,-7"/>
<polygon fill="black" stroke="black" points="596.62,-10.5 606.62,-7 596.62,-3.5 596.62,-10.5"/>
</g>
<!-- :data:musicbrainz&#45;&gt;:core:logging:api -->
<g id="edge21" class="edge">
<title>:data:musicbrainz&#45;&gt;:core:logging:api</title>
<path fill="none" stroke="black" stroke-dasharray="1,5" d="M116.29,-137.93C116.29,-137.93 116.29,-45.29 116.29,-45.29"/>
<polygon fill="black" stroke="black" points="119.79,-45.29 116.29,-35.29 112.79,-45.29 119.79,-45.29"/>
</g>
<!-- :ui:image&#45;&gt;:shared:domain -->
<g id="edge22" class="edge">
<title>:ui:image&#45;&gt;:shared:domain</title>
<path fill="none" stroke="black" stroke-dasharray="1,5" d="M802.47,-557C771.73,-557 737.21,-557 737.21,-557 737.21,-557 737.21,-39.26 737.21,-39.26"/>
<polygon fill="black" stroke="black" points="740.71,-39.26 737.21,-29.26 733.71,-39.26 740.71,-39.26"/>
</g>
<!-- :ui:image&#45;&gt;:ui:core -->
<g id="edge23" class="edge">
<title>:ui:image&#45;&gt;:ui:core</title>
<path fill="none" stroke="black" stroke-dasharray="1,5" d="M843.39,-548.09C843.39,-548.09 843.39,-457.35 843.39,-457.35"/>
<polygon fill="black" stroke="black" points="846.89,-457.35 843.39,-447.35 839.89,-457.35 846.89,-457.35"/>
</g>
<!-- :test&#45;data&#45;&gt;:shared:domain -->
<g id="edge24" class="edge">
<title>:test&#45;data&#45;&gt;:shared:domain</title>
<path fill="none" stroke="black" stroke-dasharray="1,5" d="M446.27,-412.53C446.27,-337.07 446.27,-28 446.27,-28 446.27,-28 593.63,-28 593.63,-28"/>
<polygon fill="black" stroke="black" points="593.63,-31.5 603.63,-28 593.63,-24.5 593.63,-31.5"/>
</g>
<!-- :test&#45;data&#45;&gt;:data:coverart -->
<g id="edge26" class="edge">
<title>:test&#45;data&#45;&gt;:data:coverart</title>
<path fill="none" stroke="black" stroke-dasharray="1,5" d="M441.81,-446.07C441.81,-446.07 441.81,-538.28 441.81,-538.28"/>
<polygon fill="black" stroke="black" points="438.31,-538.28 441.81,-548.28 445.31,-538.28 438.31,-538.28"/>
</g>
<!-- :test&#45;data&#45;&gt;:data:musicbrainz -->
<g id="edge25" class="edge">
<title>:test&#45;data&#45;&gt;:data:musicbrainz</title>
<path fill="none" stroke="black" stroke-dasharray="1,5" d="M367.91,-429C299.39,-429 191.77,-429 191.77,-429 191.77,-429 191.77,-181.32 191.77,-181.32"/>
<polygon fill="black" stroke="black" points="195.27,-181.32 191.77,-171.32 188.27,-181.32 195.27,-181.32"/>
</g>
<!-- :test&#45;data&#45;&gt;:core:coroutines -->
<g id="edge29" class="edge">
<title>:test&#45;data&#45;&gt;:core:coroutines</title>
<path fill="none" stroke="black" stroke-dasharray="1,5" d="M470.84,-419.57C470.84,-419.57 470.84,-175.55 470.84,-175.55"/>
<polygon fill="black" stroke="black" points="474.34,-175.55 470.84,-165.55 467.34,-175.55 474.34,-175.55"/>
</g>
<!-- :test&#45;data&#45;&gt;:data:database -->
<g id="edge28" class="edge">
<title>:test&#45;data&#45;&gt;:data:database</title>
<path fill="none" stroke="black" stroke-dasharray="1,5" d="M381.92,-416.84C381.92,-416.84 381.92,-312.42 381.92,-312.42"/>
<polygon fill="black" stroke="black" points="385.42,-312.42 381.92,-302.42 378.42,-312.42 385.42,-312.42"/>
</g>
<!-- :data:spotify -->
<g id="node15" class="node">
<title>:data:spotify</title>
<ellipse fill="#b59aff" stroke="black" cx="368.39" cy="-155" rx="68.79" ry="18"/>
<text text-anchor="middle" x="368.39" y="-151.3" font-family="Times,serif" font-size="14.00">:data:spotify</text>
</g>
<!-- :test&#45;data&#45;&gt;:data:spotify -->
<g id="edge27" class="edge">
<title>:test&#45;data&#45;&gt;:data:spotify</title>
<path fill="none" stroke="black" stroke-dasharray="1,5" d="M416.49,-411.02C416.49,-411.02 416.49,-178.03 416.49,-178.03"/>
<polygon fill="black" stroke="black" points="419.99,-178.03 416.49,-168.03 412.99,-178.03 419.99,-178.03"/>
</g>
<!-- :data:database&#45;&gt;:shared:domain -->
<g id="edge30" class="edge">
<title>:data:database&#45;&gt;:shared:domain</title>
<path fill="none" stroke="black" stroke-dasharray="1,5" d="M391.49,-298C487.13,-298 640.16,-298 640.16,-298 640.16,-298 640.16,-44.68 640.16,-44.68"/>
<polygon fill="black" stroke="black" points="643.66,-44.68 640.16,-34.68 636.66,-44.68 643.66,-44.68"/>
</g>
<!-- :data:database&#45;&gt;:data:musicbrainz -->
<g id="edge32" class="edge">
<title>:data:database&#45;&gt;:data:musicbrainz</title>
<path fill="none" stroke="black" stroke-dasharray="1,5" d="M271.24,-277.08C271.24,-241.57 271.24,-155 271.24,-155 271.24,-155 253.29,-155 253.29,-155"/>
<polygon fill="black" stroke="black" points="253.29,-151.5 243.29,-155 253.29,-158.5 253.29,-151.5"/>
</g>
<!-- :data:database&#45;&gt;:core:coroutines -->
<g id="edge31" class="edge">
<title>:data:database&#45;&gt;:core:coroutines</title>
<path fill="none" stroke="black" stroke-dasharray="1,5" d="M391.44,-286C427.52,-286 463.05,-286 463.05,-286 463.05,-286 463.05,-172.8 463.05,-172.8"/>
<polygon fill="black" stroke="black" points="466.55,-172.8 463.05,-162.8 459.55,-172.8 466.55,-172.8"/>
</g>
<!-- :data:spotify&#45;&gt;:shared:domain -->
<g id="edge33" class="edge">
<title>:data:spotify&#45;&gt;:shared:domain</title>
<path fill="none" stroke="black" stroke-dasharray="1,5" d="M391.36,-138.03C391.36,-101.97 391.36,-21 391.36,-21 391.36,-21 580.73,-21 580.73,-21"/>
<polygon fill="black" stroke="black" points="580.73,-24.5 590.73,-21 580.73,-17.5 580.73,-24.5"/>
</g>
<!-- :data:spotify&#45;&gt;:core:logging:api -->
<g id="edge34" class="edge">
<title>:data:spotify&#45;&gt;:core:logging:api</title>
<path fill="none" stroke="black" stroke-dasharray="1,5" d="M345.43,-137.99C345.43,-100.49 345.43,-14 345.43,-14 345.43,-14 184.7,-14 184.7,-14"/>
<polygon fill="black" stroke="black" points="184.7,-10.5 174.7,-14 184.7,-17.5 184.7,-10.5"/>
</g>
</g>
</svg>
