<?xml version="1.0" encoding="UTF-8" standalone="no"?>
<!DOCTYPE svg PUBLIC "-//W3C//DTD SVG 1.1//EN"
 "http://www.w3.org/Graphics/SVG/1.1/DTD/svg11.dtd">
<!-- Generated by graphviz version 2.43.0 (0)
 -->
<!-- Title: %3 Pages: 1 -->
<svg width="1150pt" height="940pt"
 viewBox="0.00 0.00 1150.23 940.00" xmlns="http://www.w3.org/2000/svg" xmlns:xlink="http://www.w3.org/1999/xlink">
<g id="graph0" class="graph" transform="scale(1 1) rotate(0) translate(4 936)">
<title>%3</title>
<polygon fill="white" stroke="transparent" points="-4,4 -4,-936 1146.23,-936 1146.23,4 -4,4"/>
<text text-anchor="middle" x="571.12" y="-904" font-family="Times,serif" font-size="30.00">Dependencies</text>
<text text-anchor="middle" x="571.12" y="-871" font-family="Times,serif" font-size="30.00"> </text>
<!-- :android:feature:spotify -->
<g id="node1" class="node">
<title>:android:feature:spotify</title>
<polygon fill="#9affb5" stroke="black" points="189.34,-858 4.34,-858 4.34,-822 189.34,-822 189.34,-858"/>
<text text-anchor="middle" x="96.84" y="-836.3" font-family="Times,serif" font-size="14.00">:android:feature:spotify</text>
</g>
<!-- :ui:common -->
<g id="node2" class="node">
<title>:ui:common</title>
<ellipse fill="#b59aff" stroke="black" cx="400.84" cy="-703" rx="64.19" ry="18"/>
<text text-anchor="middle" x="400.84" y="-699.3" font-family="Times,serif" font-size="14.00">:ui:common</text>
</g>
<!-- :android:feature:spotify&#45;&gt;:ui:common -->
<g id="edge1" class="edge">
<title>:android:feature:spotify&#45;&gt;:ui:common</title>
<path fill="none" stroke="black" stroke-dasharray="1,5" d="M189.7,-846C279.1,-846 400.84,-846 400.84,-846 400.84,-846 400.84,-731.11 400.84,-731.11"/>
<polygon fill="black" stroke="black" points="404.34,-731.11 400.84,-721.11 397.34,-731.11 404.34,-731.11"/>
</g>
<!-- :shared:domain -->
<g id="node3" class="node">
<title>:shared:domain</title>
<ellipse fill="#b59aff" stroke="black" cx="552.84" cy="-18" rx="82.59" ry="18"/>
<text text-anchor="middle" x="552.84" y="-14.3" font-family="Times,serif" font-size="14.00">:shared:domain</text>
</g>
<!-- :android:feature:spotify&#45;&gt;:shared:domain -->
<g id="edge2" class="edge">
<title>:android:feature:spotify&#45;&gt;:shared:domain</title>
<path fill="none" stroke="black" stroke-dasharray="1,5" d="M189.5,-834C207.88,-834 221.64,-834 221.64,-834 221.64,-834 221.64,-5 221.64,-5 221.64,-5 485.53,-5 485.53,-5"/>
<polygon fill="black" stroke="black" points="485.53,-8.5 495.53,-5 485.53,-1.5 485.53,-8.5"/>
</g>
<!-- :ui:test:screenshot -->
<g id="node4" class="node">
<title>:ui:test:screenshot</title>
<ellipse fill="#9affb5" stroke="black" cx="96.84" cy="-566" rx="96.68" ry="18"/>
<text text-anchor="middle" x="96.84" y="-562.3" font-family="Times,serif" font-size="14.00">:ui:test:screenshot</text>
</g>
<!-- :android:feature:spotify&#45;&gt;:ui:test:screenshot -->
<g id="edge3" class="edge">
<title>:android:feature:spotify&#45;&gt;:ui:test:screenshot</title>
<path fill="none" stroke="#ff9ab1" stroke-dasharray="1,5" d="M66.01,-821.6C66.01,-821.6 66.01,-593.26 66.01,-593.26"/>
<polygon fill="#ff9ab1" stroke="#ff9ab1" points="69.51,-593.26 66.01,-583.26 62.51,-593.26 69.51,-593.26"/>
</g>
<!-- :ui:common&#45;&gt;:shared:domain -->
<g id="edge7" class="edge">
<title>:ui:common&#45;&gt;:shared:domain</title>
<path fill="none" stroke="black" d="M427.26,-686.41C427.26,-581.8 427.26,-18 427.26,-18 427.26,-18 460.12,-18 460.12,-18"/>
<polygon fill="black" stroke="black" points="460.12,-21.5 470.12,-18 460.12,-14.5 460.12,-21.5"/>
</g>
<!-- :ui:common&#45;&gt;:ui:test:screenshot -->
<g id="edge5" class="edge">
<title>:ui:common&#45;&gt;:ui:test:screenshot</title>
<path fill="none" stroke="#ff9ab1" stroke-dasharray="1,5" d="M336.45,-703C255.69,-703 127.67,-703 127.67,-703 127.67,-703 127.67,-593.07 127.67,-593.07"/>
<polygon fill="#ff9ab1" stroke="#ff9ab1" points="131.17,-593.07 127.67,-583.07 124.17,-593.07 131.17,-593.07"/>
</g>
<!-- :test&#45;data -->
<g id="node5" class="node">
<title>:test&#45;data</title>
<ellipse fill="#b59aff" stroke="black" cx="687.84" cy="-566" rx="55.49" ry="18"/>
<text text-anchor="middle" x="687.84" y="-562.3" font-family="Times,serif" font-size="14.00">:test&#45;data</text>
</g>
<!-- :ui:common&#45;&gt;:test&#45;data -->
<g id="edge4" class="edge">
<title>:ui:common&#45;&gt;:test&#45;data</title>
<path fill="none" stroke="#ff9ab1" stroke-dasharray="1,5" d="M457.6,-694.27C457.6,-665.58 457.6,-576 457.6,-576 457.6,-576 631.8,-576 631.8,-576"/>
<polygon fill="#ff9ab1" stroke="#ff9ab1" points="631.8,-579.5 641.8,-576 631.8,-572.5 631.8,-579.5"/>
</g>
<!-- :core:coroutines -->
<g id="node6" class="node">
<title>:core:coroutines</title>
<ellipse fill="#b59aff" stroke="black" cx="552.84" cy="-155" rx="85.29" ry="18"/>
<text text-anchor="middle" x="552.84" y="-151.3" font-family="Times,serif" font-size="14.00">:core:coroutines</text>
</g>
<!-- :ui:common&#45;&gt;:core:coroutines -->
<g id="edge6" class="edge">
<title>:ui:common&#45;&gt;:core:coroutines</title>
<path fill="none" stroke="#ff9ab1" stroke-dasharray="1,5" d="M434.84,-687.48C434.84,-598.3 434.84,-155 434.84,-155 434.84,-155 457.4,-155 457.4,-155"/>
<polygon fill="#ff9ab1" stroke="#ff9ab1" points="457.4,-158.5 467.4,-155 457.4,-151.5 457.4,-158.5"/>
</g>
<!-- :ui:core -->
<g id="node7" class="node">
<title>:ui:core</title>
<ellipse fill="#b59aff" stroke="black" cx="326.84" cy="-429" rx="45.49" ry="18"/>
<text text-anchor="middle" x="326.84" y="-425.3" font-family="Times,serif" font-size="14.00">:ui:core</text>
</g>
<!-- :ui:common&#45;&gt;:ui:core -->
<g id="edge8" class="edge">
<title>:ui:common&#45;&gt;:ui:core</title>
<path fill="none" stroke="black" d="M392.44,-684.87C392.44,-622.41 392.44,-420 392.44,-420 392.44,-420 376.51,-420 376.51,-420"/>
<polygon fill="black" stroke="black" points="376.51,-416.5 366.51,-420 376.51,-423.5 376.51,-416.5"/>
</g>
<!-- :core:logging:api -->
<g id="node8" class="node">
<title>:core:logging:api</title>
<ellipse fill="#b59aff" stroke="black" cx="1053.84" cy="-18" rx="88.28" ry="18"/>
<text text-anchor="middle" x="1053.84" y="-14.3" font-family="Times,serif" font-size="14.00">:core:logging:api</text>
</g>
<!-- :ui:common&#45;&gt;:core:logging:api -->
<g id="edge9" class="edge">
<title>:ui:common&#45;&gt;:core:logging:api</title>
<path fill="none" stroke="black" stroke-dasharray="1,5" d="M461.51,-709C634.83,-709 1119.73,-709 1119.73,-709 1119.73,-709 1119.73,-40.29 1119.73,-40.29"/>
<polygon fill="black" stroke="black" points="1123.23,-40.29 1119.73,-30.29 1116.23,-40.29 1123.23,-40.29"/>
</g>
<!-- :ui:image -->
<g id="node9" class="node">
<title>:ui:image</title>
<ellipse fill="#b59aff" stroke="black" cx="318.84" cy="-566" rx="53.89" ry="18"/>
<text text-anchor="middle" x="318.84" y="-562.3" font-family="Times,serif" font-size="14.00">:ui:image</text>
</g>
<!-- :ui:common&#45;&gt;:ui:image -->
<g id="edge10" class="edge">
<title>:ui:common&#45;&gt;:ui:image</title>
<path fill="none" stroke="black" stroke-dasharray="1,5" d="M354.64,-690.36C354.64,-690.36 354.64,-589.83 354.64,-589.83"/>
<polygon fill="black" stroke="black" points="358.14,-589.83 354.64,-579.83 351.14,-589.83 358.14,-589.83"/>
</g>
<!-- :data:musicbrainz -->
<g id="node10" class="node">
<title>:data:musicbrainz</title>
<ellipse fill="#b59aff" stroke="black" cx="825.84" cy="-155" rx="93.68" ry="18"/>
<text text-anchor="middle" x="825.84" y="-151.3" font-family="Times,serif" font-size="14.00">:data:musicbrainz</text>
</g>
<!-- :ui:common&#45;&gt;:data:musicbrainz -->
<g id="edge11" class="edge">
<title>:ui:common&#45;&gt;:data:musicbrainz</title>
<path fill="none" stroke="black" stroke-dasharray="1,5" d="M461.66,-697C591.67,-697 884.92,-697 884.92,-697 884.92,-697 884.92,-179.22 884.92,-179.22"/>
<polygon fill="black" stroke="black" points="888.42,-179.22 884.92,-169.22 881.42,-179.22 888.42,-179.22"/>
</g>
<!-- :ui:test:screenshot&#45;&gt;:ui:core -->
<g id="edge12" class="edge">
<title>:ui:test:screenshot&#45;&gt;:ui:core</title>
<path fill="none" stroke="black" stroke-dasharray="1,5" d="M174.78,-555.25C174.78,-522.95 174.78,-429 174.78,-429 174.78,-429 271.22,-429 271.22,-429"/>
<polygon fill="black" stroke="black" points="271.22,-432.5 281.22,-429 271.22,-425.5 271.22,-432.5"/>
</g>
<!-- :test:image -->
<g id="node11" class="node">
<title>:test:image</title>
<ellipse fill="#9affb5" stroke="black" cx="92.84" cy="-429" rx="63.09" ry="18"/>
<text text-anchor="middle" x="92.84" y="-425.3" font-family="Times,serif" font-size="14.00">:test:image</text>
</g>
<!-- :ui:test:screenshot&#45;&gt;:test:image -->
<g id="edge13" class="edge">
<title>:ui:test:screenshot&#45;&gt;:test:image</title>
<path fill="none" stroke="black" stroke-dasharray="1,5" d="M92.84,-547.81C92.84,-547.81 92.84,-457.27 92.84,-457.27"/>
<polygon fill="black" stroke="black" points="96.34,-457.27 92.84,-447.27 89.34,-457.27 96.34,-457.27"/>
</g>
<!-- :test&#45;data&#45;&gt;:shared:domain -->
<g id="edge14" class="edge">
<title>:test&#45;data&#45;&gt;:shared:domain</title>
<path fill="none" stroke="black" stroke-dasharray="1,5" d="M633.68,-562C561.41,-562 442.43,-562 442.43,-562 442.43,-562 442.43,-24 442.43,-24 442.43,-24 464.96,-24 464.96,-24"/>
<polygon fill="black" stroke="black" points="464.96,-27.5 474.96,-24 464.96,-20.5 464.96,-27.5"/>
</g>
<!-- :test&#45;data&#45;&gt;:core:coroutines -->
<g id="edge15" class="edge">
<title>:test&#45;data&#45;&gt;:core:coroutines</title>
<path fill="none" stroke="black" stroke-dasharray="1,5" d="M643.74,-555C589.82,-555 505.65,-555 505.65,-555 505.65,-555 505.65,-180.19 505.65,-180.19"/>
<polygon fill="black" stroke="black" points="509.15,-180.19 505.65,-170.19 502.15,-180.19 509.15,-180.19"/>
</g>
<!-- :test&#45;data&#45;&gt;:data:musicbrainz -->
<g id="edge17" class="edge">
<title>:test&#45;data&#45;&gt;:data:musicbrainz</title>
<path fill="none" stroke="black" stroke-dasharray="1,5" d="M740.17,-560C787.69,-560 850.4,-560 850.4,-560 850.4,-560 850.4,-182.4 850.4,-182.4"/>
<polygon fill="black" stroke="black" points="853.9,-182.4 850.4,-172.4 846.9,-182.4 853.9,-182.4"/>
</g>
<!-- :data:database -->
<g id="node12" class="node">
<title>:data:database</title>
<ellipse fill="#b59aff" stroke="black" cx="660.84" cy="-292" rx="79.09" ry="18"/>
<text text-anchor="middle" x="660.84" y="-288.3" font-family="Times,serif" font-size="14.00">:data:database</text>
</g>
<!-- :test&#45;data&#45;&gt;:data:database -->
<g id="edge16" class="edge">
<title>:test&#45;data&#45;&gt;:data:database</title>
<path fill="none" stroke="black" stroke-dasharray="1,5" d="M648.2,-553.15C648.2,-553.15 648.2,-319.96 648.2,-319.96"/>
<polygon fill="black" stroke="black" points="651.7,-319.96 648.2,-309.96 644.7,-319.96 651.7,-319.96"/>
</g>
<!-- :data:coverart -->
<g id="node13" class="node">
<title>:data:coverart</title>
<ellipse fill="#b59aff" stroke="black" cx="739.84" cy="-429" rx="76.09" ry="18"/>
<text text-anchor="middle" x="739.84" y="-425.3" font-family="Times,serif" font-size="14.00">:data:coverart</text>
</g>
<!-- :test&#45;data&#45;&gt;:data:coverart -->
<g id="edge18" class="edge">
<title>:test&#45;data&#45;&gt;:data:coverart</title>
<path fill="none" stroke="black" stroke-dasharray="1,5" d="M690.23,-547.81C690.23,-547.81 690.23,-452.71 690.23,-452.71"/>
<polygon fill="black" stroke="black" points="693.73,-452.71 690.23,-442.71 686.73,-452.71 693.73,-452.71"/>
</g>
<!-- :data:spotify -->
<g id="node14" class="node">
<title>:data:spotify</title>
<ellipse fill="#b59aff" stroke="black" cx="1005.84" cy="-155" rx="68.79" ry="18"/>
<text text-anchor="middle" x="1005.84" y="-151.3" font-family="Times,serif" font-size="14.00">:data:spotify</text>
</g>
<!-- :test&#45;data&#45;&gt;:data:spotify -->
<g id="edge19" class="edge">
<title>:test&#45;data&#45;&gt;:data:spotify</title>
<path fill="none" stroke="black" stroke-dasharray="1,5" d="M740,-572C830.21,-572 1005.84,-572 1005.84,-572 1005.84,-572 1005.84,-183.19 1005.84,-183.19"/>
<polygon fill="black" stroke="black" points="1009.34,-183.19 1005.84,-173.19 1002.34,-183.19 1009.34,-183.19"/>
</g>
<!-- :shared:strings -->
<g id="node15" class="node">
<title>:shared:strings</title>
<ellipse fill="#b59aff" stroke="black" cx="330.84" cy="-292" rx="81.49" ry="18"/>
<text text-anchor="middle" x="330.84" y="-288.3" font-family="Times,serif" font-size="14.00">:shared:strings</text>
</g>
<!-- :ui:core&#45;&gt;:shared:strings -->
<g id="edge20" class="edge">
<title>:ui:core&#45;&gt;:shared:strings</title>
<path fill="none" stroke="black" d="M326.84,-410.81C326.84,-410.81 326.84,-320.27 326.84,-320.27"/>
<polygon fill="black" stroke="black" points="330.34,-320.27 326.84,-310.27 323.34,-320.27 330.34,-320.27"/>
</g>
<!-- :ui:image&#45;&gt;:shared:domain -->
<g id="edge21" class="edge">
<title>:ui:image&#45;&gt;:shared:domain</title>
<path fill="none" stroke="black" stroke-dasharray="1,5" d="M372.21,-569C396.39,-569 419.67,-569 419.67,-569 419.67,-569 419.67,-12 419.67,-12 419.67,-12 464.99,-12 464.99,-12"/>
<polygon fill="black" stroke="black" points="464.99,-15.5 474.99,-12 464.99,-8.5 464.99,-15.5"/>
</g>
<!-- :ui:image&#45;&gt;:ui:core -->
<g id="edge22" class="edge">
<title>:ui:image&#45;&gt;:ui:core</title>
<path fill="none" stroke="black" stroke-dasharray="1,5" d="M326.84,-548.09C326.84,-548.09 326.84,-457.35 326.84,-457.35"/>
<polygon fill="black" stroke="black" points="330.34,-457.35 326.84,-447.35 323.34,-457.35 330.34,-457.35"/>
</g>
<!-- :data:musicbrainz&#45;&gt;:shared:domain -->
<g id="edge23" class="edge">
<title>:data:musicbrainz&#45;&gt;:shared:domain</title>
<path fill="none" stroke="black" stroke-dasharray="1,5" d="M794.64,-138.03C794.64,-101.97 794.64,-21 794.64,-21 794.64,-21 644.37,-21 644.37,-21"/>
<polygon fill="black" stroke="black" points="644.37,-17.5 634.37,-21 644.37,-24.5 644.37,-17.5"/>
</g>
<!-- :data:musicbrainz&#45;&gt;:core:logging:api -->
<g id="edge24" class="edge">
<title>:data:musicbrainz&#45;&gt;:core:logging:api</title>
<path fill="none" stroke="black" stroke-dasharray="1,5" d="M857.04,-137.99C857.04,-100.49 857.04,-14 857.04,-14 857.04,-14 957.52,-14 957.52,-14"/>
<polygon fill="black" stroke="black" points="957.52,-17.5 967.52,-14 957.52,-10.5 957.52,-17.5"/>
</g>
<!-- :data:database&#45;&gt;:shared:domain -->
<g id="edge25" class="edge">
<title>:data:database&#45;&gt;:shared:domain</title>
<path fill="none" stroke="black" stroke-dasharray="1,5" d="M685.12,-274.68C685.12,-215.95 685.12,-28 685.12,-28 685.12,-28 631.69,-28 631.69,-28"/>
<polygon fill="black" stroke="black" points="631.69,-24.5 621.69,-28 631.69,-31.5 631.69,-24.5"/>
</g>
<!-- :data:database&#45;&gt;:core:coroutines -->
<g id="edge26" class="edge">
<title>:data:database&#45;&gt;:core:coroutines</title>
<path fill="none" stroke="black" stroke-dasharray="1,5" d="M609.77,-278.11C609.77,-278.11 609.77,-178.52 609.77,-178.52"/>
<polygon fill="black" stroke="black" points="613.27,-178.52 609.77,-168.52 606.27,-178.52 613.27,-178.52"/>
</g>
<!-- :data:database&#45;&gt;:data:musicbrainz -->
<g id="edge27" class="edge">
<title>:data:database&#45;&gt;:data:musicbrainz</title>
<path fill="none" stroke="black" stroke-dasharray="1,5" d="M736.19,-286.11C736.19,-286.11 736.19,-170.41 736.19,-170.41"/>
<polygon fill="black" stroke="black" points="739.69,-170.41 736.19,-160.41 732.69,-170.41 739.69,-170.41"/>
</g>
<!-- :data:coverart&#45;&gt;:shared:domain -->
<g id="edge28" class="edge">
<title>:data:coverart&#45;&gt;:shared:domain</title>
<path fill="none" stroke="black" stroke-dasharray="1,5" d="M673.71,-438C588.17,-438 450.01,-438 450.01,-438 450.01,-438 450.01,-30 450.01,-30 450.01,-30 481.25,-30 481.25,-30"/>
<polygon fill="black" stroke="black" points="481.25,-33.5 491.25,-30 481.25,-26.5 481.25,-33.5"/>
</g>
<!-- :data:coverart&#45;&gt;:test&#45;data -->
<g id="edge31" class="edge">
<title>:data:coverart&#45;&gt;:test&#45;data</title>
<path fill="none" stroke="#ff9ab1" stroke-dasharray="1,5" d="M716.66,-446.35C716.66,-446.35 716.66,-540.48 716.66,-540.48"/>
<polygon fill="#ff9ab1" stroke="#ff9ab1" points="713.16,-540.48 716.66,-550.48 720.16,-540.48 713.16,-540.48"/>
</g>
<!-- :data:coverart&#45;&gt;:core:coroutines -->
<g id="edge30" class="edge">
<title>:data:coverart&#45;&gt;:core:coroutines</title>
<path fill="none" stroke="black" stroke-dasharray="1,5" d="M663.69,-429C608.53,-429 543.6,-429 543.6,-429 543.6,-429 543.6,-182.98 543.6,-182.98"/>
<polygon fill="black" stroke="black" points="547.1,-182.98 543.6,-172.98 540.1,-182.98 547.1,-182.98"/>
</g>
<!-- :data:coverart&#45;&gt;:core:logging:api -->
<g id="edge29" class="edge">
<title>:data:coverart&#45;&gt;:core:logging:api</title>
<path fill="none" stroke="black" stroke-dasharray="1,5" d="M816.07,-429C921.04,-429 1097.23,-429 1097.23,-429 1097.23,-429 1097.23,-43.86 1097.23,-43.86"/>
<polygon fill="black" stroke="black" points="1100.73,-43.86 1097.23,-33.86 1093.73,-43.86 1100.73,-43.86"/>
</g>
<!-- :data:coverart&#45;&gt;:data:musicbrainz -->
<g id="edge32" class="edge">
<title>:data:coverart&#45;&gt;:data:musicbrainz</title>
<path fill="none" stroke="#ff9ab1" stroke-dasharray="1,5" d="M778.01,-413.08C778.01,-413.08 778.01,-180.62 778.01,-180.62"/>
<polygon fill="#ff9ab1" stroke="#ff9ab1" points="781.51,-180.62 778.01,-170.62 774.51,-180.62 781.51,-180.62"/>
</g>
<!-- :data:coverart&#45;&gt;:data:database -->
<g id="edge33" class="edge">
<title>:data:coverart&#45;&gt;:data:database</title>
<path fill="none" stroke="#ff9ab1" stroke-dasharray="1,5" d="M701.97,-413.28C701.97,-413.28 701.97,-317.53 701.97,-317.53"/>
<polygon fill="#ff9ab1" stroke="#ff9ab1" points="705.47,-317.53 701.97,-307.53 698.47,-317.53 705.47,-317.53"/>
</g>
<!-- :data:spotify&#45;&gt;:shared:domain -->
<g id="edge34" class="edge">
<title>:data:spotify&#45;&gt;:shared:domain</title>
<path fill="none" stroke="black" stroke-dasharray="1,5" d="M951.2,-143.88C951.2,-109.46 951.2,-7 951.2,-7 951.2,-7 628.62,-7 628.62,-7"/>
<polygon fill="black" stroke="black" points="628.62,-3.5 618.62,-7 628.62,-10.5 628.62,-3.5"/>
</g>
<!-- :data:spotify&#45;&gt;:core:logging:api -->
<g id="edge35" class="edge">
<title>:data:spotify&#45;&gt;:core:logging:api</title>
<path fill="none" stroke="black" stroke-dasharray="1,5" d="M1020.09,-137.37C1020.09,-137.37 1020.09,-44.7 1020.09,-44.7"/>
<polygon fill="black" stroke="black" points="1023.59,-44.7 1020.09,-34.7 1016.59,-44.7 1023.59,-44.7"/>
</g>
</g>
</svg>
