<?xml version="1.0" encoding="UTF-8" standalone="no"?>
<!DOCTYPE svg PUBLIC "-//W3C//DTD SVG 1.1//EN"
 "http://www.w3.org/Graphics/SVG/1.1/DTD/svg11.dtd">
<!-- Generated by graphviz version 2.43.0 (0)
 -->
<!-- Title: %3 Pages: 1 -->
<svg width="999pt" height="940pt"
 viewBox="0.00 0.00 998.98 940.00" xmlns="http://www.w3.org/2000/svg" xmlns:xlink="http://www.w3.org/1999/xlink">
<g id="graph0" class="graph" transform="scale(1 1) rotate(0) translate(4 936)">
<title>%3</title>
<polygon fill="white" stroke="transparent" points="-4,4 -4,-936 994.98,-936 994.98,4 -4,4"/>
<text text-anchor="middle" x="495.49" y="-904" font-family="Times,serif" font-size="30.00">Dependencies</text>
<text text-anchor="middle" x="495.49" y="-871" font-family="Times,serif" font-size="30.00"> </text>
<!-- :android:feature:spotify -->
<g id="node1" class="node">
<title>:android:feature:spotify</title>
<polygon fill="#9affb5" stroke="black" points="572.64,-858 387.64,-858 387.64,-822 572.64,-822 572.64,-858"/>
<text text-anchor="middle" x="480.14" y="-836.3" font-family="Times,serif" font-size="14.00">:android:feature:spotify</text>
</g>
<!-- :ui:common -->
<g id="node2" class="node">
<title>:ui:common</title>
<ellipse fill="#b59aff" stroke="black" cx="480.14" cy="-703" rx="64.19" ry="18"/>
<text text-anchor="middle" x="480.14" y="-699.3" font-family="Times,serif" font-size="14.00">:ui:common</text>
</g>
<!-- :android:feature:spotify&#45;&gt;:ui:common -->
<g id="edge1" class="edge">
<title>:android:feature:spotify&#45;&gt;:ui:common</title>
<path fill="none" stroke="black" stroke-dasharray="1,5" d="M480.14,-821.81C480.14,-821.81 480.14,-731.27 480.14,-731.27"/>
<polygon fill="black" stroke="black" points="483.64,-731.27 480.14,-721.27 476.64,-731.27 483.64,-731.27"/>
</g>
<!-- :shared:domain -->
<g id="node3" class="node">
<title>:shared:domain</title>
<ellipse fill="#b59aff" stroke="black" cx="255.14" cy="-18" rx="82.59" ry="18"/>
<text text-anchor="middle" x="255.14" y="-14.3" font-family="Times,serif" font-size="14.00">:shared:domain</text>
</g>
<!-- :android:feature:spotify&#45;&gt;:shared:domain -->
<g id="edge2" class="edge">
<title>:android:feature:spotify&#45;&gt;:shared:domain</title>
<path fill="none" stroke="black" stroke-dasharray="1,5" d="M407.09,-821.87C407.09,-719.95 407.09,-223 407.09,-223 407.09,-223 277.21,-223 277.21,-223 277.21,-223 277.21,-45.48 277.21,-45.48"/>
<polygon fill="black" stroke="black" points="280.71,-45.48 277.21,-35.48 273.71,-45.48 280.71,-45.48"/>
</g>
<!-- :ui:test:screenshot -->
<g id="node4" class="node">
<title>:ui:test:screenshot</title>
<ellipse fill="#9affb5" stroke="black" cx="894.14" cy="-566" rx="96.68" ry="18"/>
<text text-anchor="middle" x="894.14" y="-562.3" font-family="Times,serif" font-size="14.00">:ui:test:screenshot</text>
</g>
<!-- :android:feature:spotify&#45;&gt;:ui:test:screenshot -->
<g id="edge3" class="edge">
<title>:android:feature:spotify&#45;&gt;:ui:test:screenshot</title>
<path fill="none" stroke="#ff9ab1" stroke-dasharray="1,5" d="M572.88,-840C703.64,-840 926.42,-840 926.42,-840 926.42,-840 926.42,-593.14 926.42,-593.14"/>
<polygon fill="#ff9ab1" stroke="#ff9ab1" points="929.92,-593.14 926.42,-583.14 922.92,-593.14 929.92,-593.14"/>
</g>
<!-- :ui:common&#45;&gt;:shared:domain -->
<g id="edge7" class="edge">
<title>:ui:common&#45;&gt;:shared:domain</title>
<path fill="none" stroke="black" d="M495.89,-685.34C495.89,-579.16 495.89,-30 495.89,-30 495.89,-30 326.83,-30 326.83,-30"/>
<polygon fill="black" stroke="black" points="326.83,-26.5 316.83,-30 326.83,-33.5 326.83,-26.5"/>
</g>
<!-- :ui:common&#45;&gt;:ui:test:screenshot -->
<g id="edge5" class="edge">
<title>:ui:common&#45;&gt;:ui:test:screenshot</title>
<path fill="none" stroke="#ff9ab1" stroke-dasharray="1,5" d="M544.9,-703C653.8,-703 861.86,-703 861.86,-703 861.86,-703 861.86,-593.07 861.86,-593.07"/>
<polygon fill="#ff9ab1" stroke="#ff9ab1" points="865.36,-593.07 861.86,-583.07 858.36,-593.07 865.36,-593.07"/>
</g>
<!-- :test&#45;data -->
<g id="node5" class="node">
<title>:test&#45;data</title>
<ellipse fill="#b59aff" stroke="black" cx="343.14" cy="-566" rx="55.49" ry="18"/>
<text text-anchor="middle" x="343.14" y="-562.3" font-family="Times,serif" font-size="14.00">:test&#45;data</text>
</g>
<!-- :ui:common&#45;&gt;:test&#45;data -->
<g id="edge4" class="edge">
<title>:ui:common&#45;&gt;:test&#45;data</title>
<path fill="none" stroke="#ff9ab1" stroke-dasharray="1,5" d="M419.16,-697C404.51,-697 393.01,-697 393.01,-697 393.01,-697 393.01,-583.8 393.01,-583.8"/>
<polygon fill="#ff9ab1" stroke="#ff9ab1" points="396.52,-583.8 393.01,-573.8 389.52,-583.8 396.52,-583.8"/>
</g>
<!-- :core:coroutines -->
<g id="node6" class="node">
<title>:core:coroutines</title>
<ellipse fill="#b59aff" stroke="black" cx="85.14" cy="-155" rx="85.29" ry="18"/>
<text text-anchor="middle" x="85.14" y="-151.3" font-family="Times,serif" font-size="14.00">:core:coroutines</text>
</g>
<!-- :ui:common&#45;&gt;:core:coroutines -->
<g id="edge6" class="edge">
<title>:ui:common&#45;&gt;:core:coroutines</title>
<path fill="none" stroke="#ff9ab1" stroke-dasharray="1,5" d="M419.15,-709C300.04,-709 48.03,-709 48.03,-709 48.03,-709 48.03,-181.28 48.03,-181.28"/>
<polygon fill="#ff9ab1" stroke="#ff9ab1" points="51.53,-181.28 48.03,-171.28 44.53,-181.28 51.53,-181.28"/>
</g>
<!-- :ui:core -->
<g id="node7" class="node">
<title>:ui:core</title>
<ellipse fill="#b59aff" stroke="black" cx="688.14" cy="-429" rx="45.49" ry="18"/>
<text text-anchor="middle" x="688.14" y="-425.3" font-family="Times,serif" font-size="14.00">:ui:core</text>
</g>
<!-- :ui:common&#45;&gt;:ui:core -->
<g id="edge8" class="edge">
<title>:ui:common&#45;&gt;:ui:core</title>
<path fill="none" stroke="black" d="M505.12,-686.27C505.12,-626.78 505.12,-429 505.12,-429 505.12,-429 632.43,-429 632.43,-429"/>
<polygon fill="black" stroke="black" points="632.43,-432.5 642.43,-429 632.43,-425.5 632.43,-432.5"/>
</g>
<!-- :data:coverart -->
<g id="node8" class="node">
<title>:data:coverart</title>
<ellipse fill="#b59aff" stroke="black" cx="220.14" cy="-429" rx="76.09" ry="18"/>
<text text-anchor="middle" x="220.14" y="-425.3" font-family="Times,serif" font-size="14.00">:data:coverart</text>
</g>
<!-- :ui:common&#45;&gt;:data:coverart -->
<g id="edge9" class="edge">
<title>:ui:common&#45;&gt;:data:coverart</title>
<path fill="none" stroke="black" stroke-dasharray="1,5" d="M440.44,-688.54C440.44,-633.62 440.44,-441 440.44,-441 440.44,-441 286.88,-441 286.88,-441"/>
<polygon fill="black" stroke="black" points="286.88,-437.5 276.88,-441 286.88,-444.5 286.88,-437.5"/>
</g>
<!-- :data:musicbrainz -->
<g id="node9" class="node">
<title>:data:musicbrainz</title>
<ellipse fill="#b59aff" stroke="black" cx="396.14" cy="-155" rx="93.68" ry="18"/>
<text text-anchor="middle" x="396.14" y="-151.3" font-family="Times,serif" font-size="14.00">:data:musicbrainz</text>
</g>
<!-- :ui:common&#45;&gt;:data:musicbrainz -->
<g id="edge10" class="edge">
<title>:ui:common&#45;&gt;:data:musicbrainz</title>
<path fill="none" stroke="black" stroke-dasharray="1,5" d="M465.09,-685.39C465.09,-685.39 465.09,-177.23 465.09,-177.23"/>
<polygon fill="black" stroke="black" points="468.59,-177.23 465.09,-167.23 461.59,-177.23 468.59,-177.23"/>
</g>
<!-- :core:logging:api -->
<g id="node10" class="node">
<title>:core:logging:api</title>
<ellipse fill="#b59aff" stroke="black" cx="663.14" cy="-18" rx="88.28" ry="18"/>
<text text-anchor="middle" x="663.14" y="-14.3" font-family="Times,serif" font-size="14.00">:core:logging:api</text>
</g>
<!-- :ui:common&#45;&gt;:core:logging:api -->
<g id="edge11" class="edge">
<title>:ui:common&#45;&gt;:core:logging:api</title>
<path fill="none" stroke="black" stroke-dasharray="1,5" d="M498.97,-685.56C498.97,-579.44 498.97,-25 498.97,-25 498.97,-25 571.54,-25 571.54,-25"/>
<polygon fill="black" stroke="black" points="571.54,-28.5 581.54,-25 571.54,-21.5 571.54,-28.5"/>
</g>
<!-- :ui:image -->
<g id="node11" class="node">
<title>:ui:image</title>
<ellipse fill="#b59aff" stroke="black" cx="562.14" cy="-566" rx="53.89" ry="18"/>
<text text-anchor="middle" x="562.14" y="-562.3" font-family="Times,serif" font-size="14.00">:ui:image</text>
</g>
<!-- :ui:common&#45;&gt;:ui:image -->
<g id="edge12" class="edge">
<title>:ui:common&#45;&gt;:ui:image</title>
<path fill="none" stroke="black" stroke-dasharray="1,5" d="M526.34,-690.36C526.34,-690.36 526.34,-589.83 526.34,-589.83"/>
<polygon fill="black" stroke="black" points="529.84,-589.83 526.34,-579.83 522.84,-589.83 529.84,-589.83"/>
</g>
<!-- :ui:test:screenshot&#45;&gt;:ui:core -->
<g id="edge13" class="edge">
<title>:ui:test:screenshot&#45;&gt;:ui:core</title>
<path fill="none" stroke="black" stroke-dasharray="1,5" d="M814.2,-555.7C814.2,-523.84 814.2,-429 814.2,-429 814.2,-429 743.65,-429 743.65,-429"/>
<polygon fill="black" stroke="black" points="743.65,-425.5 733.65,-429 743.65,-432.5 743.65,-425.5"/>
</g>
<!-- :test:image -->
<g id="node12" class="node">
<title>:test:image</title>
<ellipse fill="#9affb5" stroke="black" cx="894.14" cy="-429" rx="63.09" ry="18"/>
<text text-anchor="middle" x="894.14" y="-425.3" font-family="Times,serif" font-size="14.00">:test:image</text>
</g>
<!-- :ui:test:screenshot&#45;&gt;:test:image -->
<g id="edge14" class="edge">
<title>:ui:test:screenshot&#45;&gt;:test:image</title>
<path fill="none" stroke="black" stroke-dasharray="1,5" d="M894.14,-547.81C894.14,-547.81 894.14,-457.27 894.14,-457.27"/>
<polygon fill="black" stroke="black" points="897.64,-457.27 894.14,-447.27 890.64,-457.27 897.64,-457.27"/>
</g>
<!-- :test&#45;data&#45;&gt;:shared:domain -->
<g id="edge15" class="edge">
<title>:test&#45;data&#45;&gt;:shared:domain</title>
<path fill="none" stroke="black" stroke-dasharray="1,5" d="M366.41,-549.35C366.41,-483.92 366.41,-248 366.41,-248 366.41,-248 251.87,-248 251.87,-248 251.87,-248 251.87,-46.05 251.87,-46.05"/>
<polygon fill="black" stroke="black" points="255.37,-46.05 251.87,-36.05 248.37,-46.05 255.37,-46.05"/>
</g>
<!-- :test&#45;data&#45;&gt;:core:coroutines -->
<g id="edge16" class="edge">
<title>:test&#45;data&#45;&gt;:core:coroutines</title>
<path fill="none" stroke="black" stroke-dasharray="1,5" d="M287.69,-566C214.85,-566 96.07,-566 96.07,-566 96.07,-566 96.07,-182.92 96.07,-182.92"/>
<polygon fill="black" stroke="black" points="99.57,-182.92 96.07,-172.92 92.57,-182.92 99.57,-182.92"/>
</g>
<!-- :test&#45;data&#45;&gt;:data:coverart -->
<g id="edge19" class="edge">
<title>:test&#45;data&#45;&gt;:data:coverart</title>
<path fill="none" stroke="black" stroke-dasharray="1,5" d="M290.66,-560.11C290.66,-560.11 290.66,-445.98 290.66,-445.98"/>
<polygon fill="black" stroke="black" points="294.16,-445.98 290.66,-435.98 287.16,-445.98 294.16,-445.98"/>
</g>
<!-- :test&#45;data&#45;&gt;:data:musicbrainz -->
<g id="edge18" class="edge">
<title>:test&#45;data&#45;&gt;:data:musicbrainz</title>
<path fill="none" stroke="black" stroke-dasharray="1,5" d="M382.4,-553.25C382.4,-553.25 382.4,-182.87 382.4,-182.87"/>
<polygon fill="black" stroke="black" points="385.9,-182.87 382.4,-172.87 378.9,-182.87 385.9,-182.87"/>
</g>
<!-- :data:database -->
<g id="node13" class="node">
<title>:data:database</title>
<ellipse fill="#b59aff" stroke="black" cx="255.14" cy="-292" rx="79.09" ry="18"/>
<text text-anchor="middle" x="255.14" y="-288.3" font-family="Times,serif" font-size="14.00">:data:database</text>
</g>
<!-- :test&#45;data&#45;&gt;:data:database -->
<g id="edge17" class="edge">
<title>:test&#45;data&#45;&gt;:data:database</title>
<path fill="none" stroke="black" stroke-dasharray="1,5" d="M315.31,-550.08C315.31,-550.08 315.31,-313.78 315.31,-313.78"/>
<polygon fill="black" stroke="black" points="318.81,-313.78 315.31,-303.78 311.81,-313.78 318.81,-313.78"/>
</g>
<!-- :data:spotify -->
<g id="node14" class="node">
<title>:data:spotify</title>
<ellipse fill="#b59aff" stroke="black" cx="615.14" cy="-155" rx="68.79" ry="18"/>
<text text-anchor="middle" x="615.14" y="-151.3" font-family="Times,serif" font-size="14.00">:data:spotify</text>
</g>
<!-- :test&#45;data&#45;&gt;:data:spotify -->
<g id="edge20" class="edge">
<title>:test&#45;data&#45;&gt;:data:spotify</title>
<path fill="none" stroke="black" stroke-dasharray="1,5" d="M398.72,-566C444.54,-566 502.04,-566 502.04,-566 502.04,-566 502.04,-155 502.04,-155 502.04,-155 536.09,-155 536.09,-155"/>
<polygon fill="black" stroke="black" points="536.09,-158.5 546.09,-155 536.09,-151.5 536.09,-158.5"/>
</g>
<!-- :shared:strings -->
<g id="node15" class="node">
<title>:shared:strings</title>
<ellipse fill="#b59aff" stroke="black" cx="703.14" cy="-292" rx="81.49" ry="18"/>
<text text-anchor="middle" x="703.14" y="-288.3" font-family="Times,serif" font-size="14.00">:shared:strings</text>
</g>
<!-- :ui:core&#45;&gt;:shared:strings -->
<g id="edge21" class="edge">
<title>:ui:core&#45;&gt;:shared:strings</title>
<path fill="none" stroke="black" d="M688.14,-410.81C688.14,-410.81 688.14,-319.83 688.14,-319.83"/>
<polygon fill="black" stroke="black" points="691.64,-319.83 688.14,-309.83 684.64,-319.83 691.64,-319.83"/>
</g>
<!-- :data:coverart&#45;&gt;:shared:domain -->
<g id="edge22" class="edge">
<title>:data:coverart&#45;&gt;:shared:domain</title>
<path fill="none" stroke="black" stroke-dasharray="1,5" d="M157.19,-418.78C157.19,-374.07 157.19,-198 157.19,-198 157.19,-198 201.19,-198 201.19,-198 201.19,-198 201.19,-41.83 201.19,-41.83"/>
<polygon fill="black" stroke="black" points="204.69,-41.83 201.19,-31.83 197.69,-41.83 204.69,-41.83"/>
</g>
<!-- :data:coverart&#45;&gt;:test&#45;data -->
<g id="edge25" class="edge">
<title>:data:coverart&#45;&gt;:test&#45;data</title>
<path fill="none" stroke="#ff9ab1" stroke-dasharray="1,5" d="M293.42,-433.88C293.42,-433.88 293.42,-548.15 293.42,-548.15"/>
<polygon fill="#ff9ab1" stroke="#ff9ab1" points="289.92,-548.15 293.42,-558.15 296.92,-548.15 289.92,-548.15"/>
</g>
<!-- :data:coverart&#45;&gt;:core:coroutines -->
<g id="edge24" class="edge">
<title>:data:coverart&#45;&gt;:core:coroutines</title>
<path fill="none" stroke="black" stroke-dasharray="1,5" d="M150.65,-421.67C150.65,-421.67 150.65,-176.8 150.65,-176.8"/>
<polygon fill="black" stroke="black" points="154.15,-176.8 150.65,-166.8 147.15,-176.8 154.15,-176.8"/>
</g>
<!-- :data:coverart&#45;&gt;:data:musicbrainz -->
<g id="edge26" class="edge">
<title>:data:coverart&#45;&gt;:data:musicbrainz</title>
<path fill="none" stroke="#ff9ab1" stroke-dasharray="1,5" d="M276.91,-417C312.01,-417 350.42,-417 350.42,-417 350.42,-417 350.42,-180.99 350.42,-180.99"/>
<polygon fill="#ff9ab1" stroke="#ff9ab1" points="353.92,-180.99 350.42,-170.99 346.92,-180.99 353.92,-180.99"/>
</g>
<!-- :data:coverart&#45;&gt;:core:logging:api -->
<g id="edge23" class="edge">
<title>:data:coverart&#45;&gt;:core:logging:api</title>
<path fill="none" stroke="black" stroke-dasharray="1,5" d="M292.14,-423C372.92,-423 492.81,-423 492.81,-423 492.81,-423 492.81,-15 492.81,-15 492.81,-15 565.98,-15 565.98,-15"/>
<polygon fill="black" stroke="black" points="565.98,-18.5 575.98,-15 565.98,-11.5 565.98,-18.5"/>
</g>
<!-- :data:coverart&#45;&gt;:data:database -->
<g id="edge27" class="edge">
<title>:data:coverart&#45;&gt;:data:database</title>
<path fill="none" stroke="#ff9ab1" stroke-dasharray="1,5" d="M236.02,-411.37C236.02,-411.37 236.02,-319.56 236.02,-319.56"/>
<polygon fill="#ff9ab1" stroke="#ff9ab1" points="239.52,-319.56 236.02,-309.56 232.52,-319.56 239.52,-319.56"/>
</g>
<!-- :data:musicbrainz&#45;&gt;:shared:domain -->
<g id="edge28" class="edge">
<title>:data:musicbrainz&#45;&gt;:shared:domain</title>
<path fill="none" stroke="black" stroke-dasharray="1,5" d="M320.12,-144.25C320.12,-144.25 320.12,-39.47 320.12,-39.47"/>
<polygon fill="black" stroke="black" points="323.62,-39.47 320.12,-29.47 316.62,-39.47 323.62,-39.47"/>
</g>
<!-- :data:musicbrainz&#45;&gt;:core:logging:api -->
<g id="edge29" class="edge">
<title>:data:musicbrainz&#45;&gt;:core:logging:api</title>
<path fill="none" stroke="black" stroke-dasharray="1,5" d="M413.71,-137.2C413.71,-97.47 413.71,-5 413.71,-5 413.71,-5 591.8,-5 591.8,-5"/>
<polygon fill="black" stroke="black" points="591.8,-8.5 601.8,-5 591.8,-1.5 591.8,-8.5"/>
</g>
<!-- :ui:image&#45;&gt;:shared:domain -->
<g id="edge30" class="edge">
<title>:ui:image&#45;&gt;:shared:domain</title>
<path fill="none" stroke="black" stroke-dasharray="1,5" d="M527.22,-552.23C527.22,-467.46 527.22,-20 527.22,-20 527.22,-20 347.51,-20 347.51,-20"/>
<polygon fill="black" stroke="black" points="347.51,-16.5 337.51,-20 347.51,-23.5 347.51,-16.5"/>
</g>
<!-- :ui:image&#45;&gt;:ui:core -->
<g id="edge31" class="edge">
<title>:ui:image&#45;&gt;:ui:core</title>
<path fill="none" stroke="black" stroke-dasharray="1,5" d="M581.17,-549.14C581.17,-513.76 581.17,-435 581.17,-435 581.17,-435 635.25,-435 635.25,-435"/>
<polygon fill="black" stroke="black" points="635.25,-438.5 645.25,-435 635.25,-431.5 635.25,-438.5"/>
</g>
<!-- :data:database&#45;&gt;:shared:domain -->
<g id="edge32" class="edge">
<title>:data:database&#45;&gt;:shared:domain</title>
<path fill="none" stroke="black" stroke-dasharray="1,5" d="M226.53,-274.86C226.53,-274.86 226.53,-45.13 226.53,-45.13"/>
<polygon fill="black" stroke="black" points="230.03,-45.13 226.53,-35.13 223.03,-45.13 230.03,-45.13"/>
</g>
<!-- :data:database&#45;&gt;:core:coroutines -->
<g id="edge33" class="edge">
<title>:data:database&#45;&gt;:core:coroutines</title>
<path fill="none" stroke="black" stroke-dasharray="1,5" d="M175.69,-292C168.43,-292 163.74,-292 163.74,-292 163.74,-292 163.74,-171.98 163.74,-171.98"/>
<polygon fill="black" stroke="black" points="167.24,-171.98 163.74,-161.98 160.24,-171.98 167.24,-171.98"/>
</g>
<!-- :data:database&#45;&gt;:data:musicbrainz -->
<g id="edge34" class="edge">
<title>:data:database&#45;&gt;:data:musicbrainz</title>
<path fill="none" stroke="black" stroke-dasharray="1,5" d="M318.49,-280.79C318.49,-280.79 318.49,-175.23 318.49,-175.23"/>
<polygon fill="black" stroke="black" points="321.99,-175.23 318.49,-165.23 314.99,-175.23 321.99,-175.23"/>
</g>
<!-- :data:spotify&#45;&gt;:shared:domain -->
<g id="edge35" class="edge">
<title>:data:spotify&#45;&gt;:shared:domain</title>
<path fill="none" stroke="black" stroke-dasharray="1,5" d="M560.5,-143.62C560.5,-109.44 560.5,-10 560.5,-10 560.5,-10 339.45,-10 339.45,-10"/>
<polygon fill="black" stroke="black" points="339.45,-6.5 329.45,-10 339.45,-13.5 339.45,-6.5"/>
</g>
<!-- :data:spotify&#45;&gt;:core:logging:api -->
<g id="edge36" class="edge">
<title>:data:spotify&#45;&gt;:core:logging:api</title>
<path fill="none" stroke="black" stroke-dasharray="1,5" d="M629.39,-137.37C629.39,-137.37 629.39,-44.7 629.39,-44.7"/>
<polygon fill="black" stroke="black" points="632.89,-44.7 629.39,-34.7 625.89,-44.7 632.89,-44.7"/>
</g>
</g>
</svg>
