<?xml version="1.0" encoding="UTF-8" standalone="no"?>
<!DOCTYPE svg PUBLIC "-//W3C//DTD SVG 1.1//EN"
 "http://www.w3.org/Graphics/SVG/1.1/DTD/svg11.dtd">
<!-- Generated by graphviz version 11.0.0 (20240428.1522)
 -->
<!-- Pages: 1 -->
<svg width="1135pt" height="668pt"
 viewBox="0.00 0.00 1134.67 667.50" xmlns="http://www.w3.org/2000/svg" xmlns:xlink="http://www.w3.org/1999/xlink">
<g id="graph0" class="graph" transform="scale(1 1) rotate(0) translate(4 663.5)">
<polygon fill="white" stroke="none" points="-4,4 -4,-663.5 1130.67,-663.5 1130.67,4 -4,4"/>
<text text-anchor="middle" x="563.34" y="-627" font-family="Times,serif" font-size="30.00">spotify</text>
<text text-anchor="middle" x="563.34" y="-593.25" font-family="Times,serif" font-size="30.00"> </text>
<!-- :android:feature:spotify -->
<g id="node1" class="node">
<title>:android:feature:spotify</title>
<polygon fill="#9affb5" stroke="black" points="990.63,-584 630.63,-584 630.63,-548 990.63,-548 990.63,-584"/>
<text text-anchor="middle" x="810.63" y="-560.95" font-family="Times,serif" font-size="14.00">:android:feature:spotify</text>
</g>
<!-- :core:models -->
<g id="node2" class="node">
<title>:core:models</title>
<ellipse fill="#b59aff" stroke="black" cx="320.63" cy="-18" rx="59.03" ry="18"/>
<text text-anchor="middle" x="320.63" y="-12.95" font-family="Times,serif" font-size="14.00">:core:models</text>
</g>
<!-- :android:feature:spotify&#45;&gt;:core:models -->
<g id="edge1" class="edge">
<title>:android:feature:spotify&#45;&gt;:core:models</title>
<path fill="none" stroke="black" stroke-dasharray="1,5" d="M736.95,-547.65C736.95,-450.97 736.95,-5 736.95,-5 736.95,-5 374.35,-5 374.35,-5"/>
<polygon fill="black" stroke="black" points="374.35,-1.5 364.35,-5 374.35,-8.5 374.35,-1.5"/>
</g>
<!-- :ui:core -->
<g id="node3" class="node">
<title>:ui:core</title>
<ellipse fill="#b59aff" stroke="black" cx="983.63" cy="-155" rx="39.07" ry="18"/>
<text text-anchor="middle" x="983.63" y="-149.95" font-family="Times,serif" font-size="14.00">:ui:core</text>
</g>
<!-- :android:feature:spotify&#45;&gt;:ui:core -->
<g id="edge2" class="edge">
<title>:android:feature:spotify&#45;&gt;:ui:core</title>
<path fill="none" stroke="black" stroke-dasharray="1,5" d="M897.19,-547.68C897.19,-469.04 897.19,-164 897.19,-164 897.19,-164 937.95,-164 937.95,-164"/>
<polygon fill="black" stroke="black" points="937.95,-167.5 947.95,-164 937.95,-160.5 937.95,-167.5"/>
</g>
<!-- :ui:common -->
<g id="node4" class="node">
<title>:ui:common</title>
<ellipse fill="#b59aff" stroke="black" cx="580.63" cy="-429" rx="56.47" ry="18"/>
<text text-anchor="middle" x="580.63" y="-423.95" font-family="Times,serif" font-size="14.00">:ui:common</text>
</g>
<!-- :android:feature:spotify&#45;&gt;:ui:common -->
<g id="edge3" class="edge">
<title>:android:feature:spotify&#45;&gt;:ui:common</title>
<path fill="none" stroke="black" stroke-dasharray="1,5" d="M672.98,-547.66C672.98,-512.27 672.98,-438 672.98,-438 672.98,-438 641.83,-438 641.83,-438"/>
<polygon fill="black" stroke="black" points="641.83,-434.5 631.83,-438 641.83,-441.5 641.83,-434.5"/>
</g>
<!-- :domain -->
<g id="node5" class="node">
<title>:domain</title>
<ellipse fill="#b59aff" stroke="black" cx="41.63" cy="-155" rx="41.63" ry="18"/>
<text text-anchor="middle" x="41.63" y="-149.95" font-family="Times,serif" font-size="14.00">:domain</text>
</g>
<!-- :android:feature:spotify&#45;&gt;:domain -->
<g id="edge4" class="edge">
<title>:android:feature:spotify&#45;&gt;:domain</title>
<path fill="none" stroke="black" stroke-dasharray="1,5" d="M630.24,-566C396.89,-566 20.01,-566 20.01,-566 20.01,-566 20.01,-182.37 20.01,-182.37"/>
<polygon fill="black" stroke="black" points="23.51,-182.37 20.01,-172.37 16.51,-182.37 23.51,-182.37"/>
</g>
<!-- :strings -->
<g id="node6" class="node">
<title>:strings</title>
<ellipse fill="#b59aff" stroke="black" cx="1088.63" cy="-18" rx="38.04" ry="18"/>
<text text-anchor="middle" x="1088.63" y="-12.95" font-family="Times,serif" font-size="14.00">:strings</text>
</g>
<!-- :android:feature:spotify&#45;&gt;:strings -->
<g id="edge5" class="edge">
<title>:android:feature:spotify&#45;&gt;:strings</title>
<path fill="none" stroke="black" stroke-dasharray="1,5" d="M990.82,-566C1046.68,-566 1093.88,-566 1093.88,-566 1093.88,-566 1093.88,-47.75 1093.88,-47.75"/>
<polygon fill="black" stroke="black" points="1097.38,-47.75 1093.88,-37.75 1090.38,-47.75 1097.38,-47.75"/>
</g>
<!-- :ui:test:screenshot -->
<g id="node7" class="node">
<title>:ui:test:screenshot</title>
<ellipse fill="#9affb5" stroke="black" cx="983.63" cy="-292" rx="77.45" ry="18"/>
<text text-anchor="middle" x="983.63" y="-286.95" font-family="Times,serif" font-size="14.00">:ui:test:screenshot</text>
</g>
<!-- :android:feature:spotify&#45;&gt;:ui:test:screenshot -->
<g id="edge6" class="edge">
<title>:android:feature:spotify&#45;&gt;:ui:test:screenshot</title>
<path fill="none" stroke="#ff9ab1" stroke-dasharray="1,5" d="M962.48,-547.6C962.48,-547.6 962.48,-321.12 962.48,-321.12"/>
<polygon fill="#ff9ab1" stroke="#ff9ab1" points="965.98,-321.12 962.48,-311.12 958.98,-321.12 965.98,-321.12"/>
</g>
<!-- :ui:core&#45;&gt;:strings -->
<g id="edge7" class="edge">
<title>:ui:core&#45;&gt;:strings</title>
<path fill="none" stroke="black" d="M1023.11,-155C1039.97,-155 1055.83,-155 1055.83,-155 1055.83,-155 1055.83,-38.93 1055.83,-38.93"/>
<polygon fill="black" stroke="black" points="1059.33,-38.93 1055.83,-28.93 1052.33,-38.93 1059.33,-38.93"/>
</g>
<!-- :ui:common&#45;&gt;:core:models -->
<g id="edge10" class="edge">
<title>:ui:common&#45;&gt;:core:models</title>
<path fill="none" stroke="black" d="M602.61,-412.12C602.61,-334.78 602.61,-18 602.61,-18 602.61,-18 391.6,-18 391.6,-18"/>
<polygon fill="black" stroke="black" points="391.6,-14.5 381.6,-18 391.6,-21.5 391.6,-14.5"/>
</g>
<!-- :ui:common&#45;&gt;:ui:core -->
<g id="edge17" class="edge">
<title>:ui:common&#45;&gt;:ui:core</title>
<path fill="none" stroke="red" d="M611.8,-413.78C611.8,-355 611.8,-146 611.8,-146 611.8,-146 937.8,-146 937.8,-146"/>
<polygon fill="red" stroke="red" points="937.8,-149.5 947.8,-146 937.8,-142.5 937.8,-149.5"/>
</g>
<!-- :ui:common&#45;&gt;:domain -->
<g id="edge15" class="edge">
<title>:ui:common&#45;&gt;:domain</title>
<path fill="none" stroke="black" stroke-dasharray="1,5" d="M533.13,-439C401.21,-439 40.03,-439 40.03,-439 40.03,-439 40.03,-184.71 40.03,-184.71"/>
<polygon fill="black" stroke="black" points="43.53,-184.71 40.03,-174.71 36.53,-184.71 43.53,-184.71"/>
</g>
<!-- :ui:common&#45;&gt;:strings -->
<g id="edge16" class="edge">
<title>:ui:common&#45;&gt;:strings</title>
<path fill="none" stroke="black" stroke-dasharray="1,5" d="M607.2,-412.86C607.2,-338.22 607.2,-30 607.2,-30 607.2,-30 1048.08,-30 1048.08,-30"/>
<polygon fill="black" stroke="black" points="1048.08,-33.5 1058.08,-30 1048.08,-26.5 1048.08,-33.5"/>
</g>
<!-- :ui:common&#45;&gt;:ui:test:screenshot -->
<g id="edge9" class="edge">
<title>:ui:common&#45;&gt;:ui:test:screenshot</title>
<path fill="none" stroke="#ff9ab1" d="M637.45,-429C737.44,-429 934.32,-429 934.32,-429 934.32,-429 934.32,-317.66 934.32,-317.66"/>
<polygon fill="#ff9ab1" stroke="#ff9ab1" points="937.82,-317.66 934.32,-307.66 930.82,-317.66 937.82,-317.66"/>
</g>
<!-- :ui:test:image -->
<g id="node8" class="node">
<title>:ui:test:image</title>
<ellipse fill="#9affb5" stroke="black" cx="826.63" cy="-292" rx="61.59" ry="18"/>
<text text-anchor="middle" x="826.63" y="-286.95" font-family="Times,serif" font-size="14.00">:ui:test:image</text>
</g>
<!-- :ui:common&#45;&gt;:ui:test:image -->
<g id="edge8" class="edge">
<title>:ui:common&#45;&gt;:ui:test:image</title>
<path fill="none" stroke="#ff9ab1" d="M630.11,-420C701.95,-420 826.63,-420 826.63,-420 826.63,-420 826.63,-321.85 826.63,-321.85"/>
<polygon fill="#ff9ab1" stroke="#ff9ab1" points="830.13,-321.85 826.63,-311.85 823.13,-321.85 830.13,-321.85"/>
</g>
<!-- :data:coverart -->
<g id="node9" class="node">
<title>:data:coverart</title>
<ellipse fill="#b59aff" stroke="black" cx="121.63" cy="-292" rx="61.59" ry="18"/>
<text text-anchor="middle" x="121.63" y="-286.95" font-family="Times,serif" font-size="14.00">:data:coverart</text>
</g>
<!-- :ui:common&#45;&gt;:data:coverart -->
<g id="edge11" class="edge">
<title>:ui:common&#45;&gt;:data:coverart</title>
<path fill="none" stroke="orange" d="M524.8,-432C402.48,-432 121.63,-432 121.63,-432 121.63,-432 121.63,-321.82 121.63,-321.82"/>
<polygon fill="orange" stroke="orange" points="125.13,-321.82 121.63,-311.82 118.13,-321.82 125.13,-321.82"/>
</g>
<!-- :data:musicbrainz -->
<g id="node10" class="node">
<title>:data:musicbrainz</title>
<ellipse fill="#b59aff" stroke="black" cx="316.63" cy="-292" rx="76.94" ry="18"/>
<text text-anchor="middle" x="316.63" y="-286.95" font-family="Times,serif" font-size="14.00">:data:musicbrainz</text>
</g>
<!-- :ui:common&#45;&gt;:data:musicbrainz -->
<g id="edge12" class="edge">
<title>:ui:common&#45;&gt;:data:musicbrainz</title>
<path fill="none" stroke="orange" d="M534.94,-418C459.38,-418 316.63,-418 316.63,-418 316.63,-418 316.63,-321.84 316.63,-321.84"/>
<polygon fill="orange" stroke="orange" points="320.13,-321.83 316.63,-311.84 313.13,-321.84 320.13,-321.83"/>
</g>
<!-- :core:preferences -->
<g id="node11" class="node">
<title>:core:preferences</title>
<ellipse fill="#b59aff" stroke="black" cx="523.63" cy="-292" rx="74.38" ry="18"/>
<text text-anchor="middle" x="523.63" y="-286.95" font-family="Times,serif" font-size="14.00">:core:preferences</text>
</g>
<!-- :ui:common&#45;&gt;:core:preferences -->
<g id="edge13" class="edge">
<title>:ui:common&#45;&gt;:core:preferences</title>
<path fill="none" stroke="black" stroke-dasharray="1,5" d="M561.08,-411.65C561.08,-411.65 561.08,-319.45 561.08,-319.45"/>
<polygon fill="black" stroke="black" points="564.58,-319.45 561.08,-309.45 557.58,-319.45 564.58,-319.45"/>
</g>
<!-- :core:logging:api -->
<g id="node12" class="node">
<title>:core:logging:api</title>
<ellipse fill="#b59aff" stroke="black" cx="218.63" cy="-155" rx="73.87" ry="18"/>
<text text-anchor="middle" x="218.63" y="-149.95" font-family="Times,serif" font-size="14.00">:core:logging:api</text>
</g>
<!-- :ui:common&#45;&gt;:core:logging:api -->
<g id="edge14" class="edge">
<title>:ui:common&#45;&gt;:core:logging:api</title>
<path fill="none" stroke="black" stroke-dasharray="1,5" d="M525.36,-425C422.37,-425 211.45,-425 211.45,-425 211.45,-425 211.45,-184.65 211.45,-184.65"/>
<polygon fill="black" stroke="black" points="214.95,-184.65 211.45,-174.65 207.95,-184.65 214.95,-184.65"/>
</g>
<!-- :ui:image -->
<g id="node13" class="node">
<title>:ui:image</title>
<ellipse fill="#b59aff" stroke="black" cx="662.63" cy="-292" rx="46.23" ry="18"/>
<text text-anchor="middle" x="662.63" y="-286.95" font-family="Times,serif" font-size="14.00">:ui:image</text>
</g>
<!-- :ui:common&#45;&gt;:ui:image -->
<g id="edge18" class="edge">
<title>:ui:common&#45;&gt;:ui:image</title>
<path fill="none" stroke="red" d="M626.75,-418.25C626.75,-418.25 626.75,-314.98 626.75,-314.98"/>
<polygon fill="red" stroke="red" points="630.25,-314.98 626.75,-304.98 623.25,-314.98 630.25,-314.98"/>
</g>
<!-- :domain&#45;&gt;:core:models -->
<g id="edge19" class="edge">
<title>:domain&#45;&gt;:core:models</title>
<path fill="none" stroke="black" stroke-dasharray="1,5" d="M41.63,-136.6C41.63,-97.98 41.63,-12 41.63,-12 41.63,-12 252.99,-12 252.99,-12"/>
<polygon fill="black" stroke="black" points="252.99,-15.5 262.99,-12 252.99,-8.5 252.99,-15.5"/>
</g>
<!-- :ui:test:screenshot&#45;&gt;:ui:core -->
<g id="edge20" class="edge">
<title>:ui:test:screenshot&#45;&gt;:ui:core</title>
<path fill="none" stroke="red" d="M983.63,-273.52C983.63,-273.52 983.63,-184.7 983.63,-184.7"/>
<polygon fill="red" stroke="red" points="987.13,-184.7 983.63,-174.7 980.13,-184.7 987.13,-184.7"/>
</g>
<!-- :data:coverart&#45;&gt;:core:models -->
<g id="edge22" class="edge">
<title>:data:coverart&#45;&gt;:core:models</title>
<path fill="none" stroke="black" stroke-dasharray="1,5" d="M114.01,-274C114.01,-213.91 114.01,-24 114.01,-24 114.01,-24 252.93,-24 252.93,-24"/>
<polygon fill="black" stroke="black" points="252.93,-27.5 262.93,-24 252.93,-20.5 252.93,-27.5"/>
</g>
<!-- :data:coverart&#45;&gt;:domain -->
<g id="edge23" class="edge">
<title>:data:coverart&#45;&gt;:domain</title>
<path fill="none" stroke="black" stroke-dasharray="1,5" d="M71.65,-281.25C71.65,-281.25 71.65,-179.17 71.65,-179.17"/>
<polygon fill="black" stroke="black" points="75.15,-179.17 71.65,-169.17 68.15,-179.17 75.15,-179.17"/>
</g>
<!-- :data:coverart&#45;&gt;:core:logging:api -->
<g id="edge21" class="edge">
<title>:data:coverart&#45;&gt;:core:logging:api</title>
<path fill="none" stroke="black" stroke-dasharray="1,5" d="M163.99,-278.61C163.99,-278.61 163.99,-178.96 163.99,-178.96"/>
<polygon fill="black" stroke="black" points="167.49,-178.96 163.99,-168.96 160.49,-178.96 167.49,-178.96"/>
</g>
<!-- :data:musicbrainz&#45;&gt;:core:models -->
<g id="edge25" class="edge">
<title>:data:musicbrainz&#45;&gt;:core:models</title>
<path fill="none" stroke="black" stroke-dasharray="1,5" d="M336.08,-274.44C336.08,-274.44 336.08,-47.28 336.08,-47.28"/>
<polygon fill="black" stroke="black" points="339.58,-47.28 336.08,-37.28 332.58,-47.28 339.58,-47.28"/>
</g>
<!-- :data:musicbrainz&#45;&gt;:core:logging:api -->
<g id="edge24" class="edge">
<title>:data:musicbrainz&#45;&gt;:core:logging:api</title>
<path fill="none" stroke="black" stroke-dasharray="1,5" d="M266.09,-278.11C266.09,-278.11 266.09,-180.44 266.09,-180.44"/>
<polygon fill="black" stroke="black" points="269.59,-180.44 266.09,-170.44 262.59,-180.44 269.59,-180.44"/>
</g>
<!-- :core:preferences&#45;&gt;:core:models -->
<g id="edge27" class="edge">
<title>:core:preferences&#45;&gt;:core:models</title>
<path fill="none" stroke="black" stroke-dasharray="1,5" d="M593.96,-285.9C593.96,-246.01 593.96,-24 593.96,-24 593.96,-24 388.44,-24 388.44,-24"/>
<polygon fill="black" stroke="black" points="388.44,-20.5 378.44,-24 388.44,-27.5 388.44,-20.5"/>
</g>
<!-- :core:coroutines -->
<g id="node14" class="node">
<title>:core:coroutines</title>
<ellipse fill="#b59aff" stroke="black" cx="519.63" cy="-155" rx="70.29" ry="18"/>
<text text-anchor="middle" x="519.63" y="-149.95" font-family="Times,serif" font-size="14.00">:core:coroutines</text>
</g>
<!-- :core:preferences&#45;&gt;:core:coroutines -->
<g id="edge26" class="edge">
<title>:core:preferences&#45;&gt;:core:coroutines</title>
<path fill="none" stroke="black" stroke-dasharray="1,5" d="M519.63,-273.81C519.63,-273.81 519.63,-184.78 519.63,-184.78"/>
<polygon fill="black" stroke="black" points="523.13,-184.78 519.63,-174.78 516.13,-184.78 523.13,-184.78"/>
</g>
<!-- :ui:image&#45;&gt;:core:models -->
<g id="edge28" class="edge">
<title>:ui:image&#45;&gt;:core:models</title>
<path fill="none" stroke="black" stroke-dasharray="1,5" d="M647.22,-274.91C647.22,-214.11 647.22,-12 647.22,-12 647.22,-12 388.28,-12 388.28,-12"/>
<polygon fill="black" stroke="black" points="388.28,-8.5 378.28,-12 388.28,-15.5 388.28,-8.5"/>
</g>
<!-- :ui:image&#45;&gt;:ui:core -->
<g id="edge29" class="edge">
<title>:ui:image&#45;&gt;:ui:core</title>
<path fill="none" stroke="red" d="M678.04,-274.65C678.04,-237.78 678.04,-155 678.04,-155 678.04,-155 932.79,-155 932.79,-155"/>
<polygon fill="red" stroke="red" points="932.79,-158.5 942.79,-155 932.79,-151.5 932.79,-158.5"/>
</g>
</g>
</svg>
