<?xml version="1.0" encoding="UTF-8" standalone="no"?>
<!DOCTYPE svg PUBLIC "-//W3C//DTD SVG 1.1//EN"
 "http://www.w3.org/Graphics/SVG/1.1/DTD/svg11.dtd">
<!-- Generated by graphviz version 2.43.0 (0)
 -->
<!-- Title: %3 Pages: 1 -->
<svg width="1263pt" height="666pt"
 viewBox="0.00 0.00 1263.48 666.00" xmlns="http://www.w3.org/2000/svg" xmlns:xlink="http://www.w3.org/1999/xlink">
<g id="graph0" class="graph" transform="scale(1 1) rotate(0) translate(4 662)">
<title>%3</title>
<polygon fill="white" stroke="transparent" points="-4,4 -4,-662 1259.48,-662 1259.48,4 -4,4"/>
<text text-anchor="middle" x="627.74" y="-630" font-family="Times,serif" font-size="30.00">Dependencies</text>
<text text-anchor="middle" x="627.74" y="-597" font-family="Times,serif" font-size="30.00"> </text>
<!-- :android:feature:spotify -->
<g id="node1" class="node">
<title>:android:feature:spotify</title>
<polygon fill="#9affb5" stroke="black" points="478.14,-584 293.14,-584 293.14,-548 478.14,-548 478.14,-584"/>
<text text-anchor="middle" x="385.64" y="-562.3" font-family="Times,serif" font-size="14.00">:android:feature:spotify</text>
</g>
<!-- :core:models -->
<g id="node2" class="node">
<title>:core:models</title>
<ellipse fill="#b59aff" stroke="black" cx="360.64" cy="-18" rx="69.59" ry="18"/>
<text text-anchor="middle" x="360.64" y="-14.3" font-family="Times,serif" font-size="14.00">:core:models</text>
</g>
<!-- :android:feature:spotify&#45;&gt;:core:models -->
<g id="edge1" class="edge">
<title>:android:feature:spotify&#45;&gt;:core:models</title>
<path fill="none" stroke="black" stroke-dasharray="1,5" d="M468.57,-547.86C468.57,-454.23 468.57,-30 468.57,-30 468.57,-30 422.71,-30 422.71,-30"/>
<polygon fill="black" stroke="black" points="422.71,-26.5 412.71,-30 422.71,-33.5 422.71,-26.5"/>
</g>
<!-- :ui:common -->
<g id="node3" class="node">
<title>:ui:common</title>
<ellipse fill="#b59aff" stroke="black" cx="559.64" cy="-429" rx="64.19" ry="18"/>
<text text-anchor="middle" x="559.64" y="-425.3" font-family="Times,serif" font-size="14.00">:ui:common</text>
</g>
<!-- :android:feature:spotify&#45;&gt;:ui:common -->
<g id="edge2" class="edge">
<title>:android:feature:spotify&#45;&gt;:ui:common</title>
<path fill="none" stroke="black" stroke-dasharray="1,5" d="M474.95,-547.82C474.95,-513.16 474.95,-441 474.95,-441 474.95,-441 501.36,-441 501.36,-441"/>
<polygon fill="black" stroke="black" points="501.36,-444.5 511.36,-441 501.36,-437.5 501.36,-444.5"/>
</g>
<!-- :shared:domain -->
<g id="node4" class="node">
<title>:shared:domain</title>
<ellipse fill="#b59aff" stroke="black" cx="360.64" cy="-155" rx="82.59" ry="18"/>
<text text-anchor="middle" x="360.64" y="-151.3" font-family="Times,serif" font-size="14.00">:shared:domain</text>
</g>
<!-- :android:feature:spotify&#45;&gt;:shared:domain -->
<g id="edge3" class="edge">
<title>:android:feature:spotify&#45;&gt;:shared:domain</title>
<path fill="none" stroke="black" stroke-dasharray="1,5" d="M300.73,-547.81C300.73,-547.81 300.73,-177.42 300.73,-177.42"/>
<polygon fill="black" stroke="black" points="304.23,-177.41 300.73,-167.42 297.23,-177.42 304.23,-177.41"/>
</g>
<!-- :ui:test:screenshot -->
<g id="node5" class="node">
<title>:ui:test:screenshot</title>
<ellipse fill="#9affb5" stroke="black" cx="1158.64" cy="-292" rx="96.68" ry="18"/>
<text text-anchor="middle" x="1158.64" y="-288.3" font-family="Times,serif" font-size="14.00">:ui:test:screenshot</text>
</g>
<!-- :android:feature:spotify&#45;&gt;:ui:test:screenshot -->
<g id="edge4" class="edge">
<title>:android:feature:spotify&#45;&gt;:ui:test:screenshot</title>
<path fill="none" stroke="#ff9ab1" stroke-dasharray="1,5" d="M478.41,-566C690.16,-566 1190.92,-566 1190.92,-566 1190.92,-566 1190.92,-319.14 1190.92,-319.14"/>
<polygon fill="#ff9ab1" stroke="#ff9ab1" points="1194.42,-319.14 1190.92,-309.14 1187.42,-319.14 1194.42,-319.14"/>
</g>
<!-- :ui:common&#45;&gt;:core:models -->
<g id="edge7" class="edge">
<title>:ui:common&#45;&gt;:core:models</title>
<path fill="none" stroke="black" d="M511.59,-417C491.07,-417 471.76,-417 471.76,-417 471.76,-417 471.76,-24 471.76,-24 471.76,-24 436.25,-24 436.25,-24"/>
<polygon fill="black" stroke="black" points="436.25,-20.5 426.25,-24 436.25,-27.5 436.25,-20.5"/>
</g>
<!-- :ui:common&#45;&gt;:shared:domain -->
<g id="edge13" class="edge">
<title>:ui:common&#45;&gt;:shared:domain</title>
<path fill="none" stroke="black" stroke-dasharray="1,5" d="M495.24,-429C420.78,-429 308.31,-429 308.31,-429 308.31,-429 308.31,-178.96 308.31,-178.96"/>
<polygon fill="black" stroke="black" points="311.81,-178.96 308.31,-168.96 304.81,-178.96 311.81,-178.96"/>
</g>
<!-- :ui:common&#45;&gt;:ui:test:screenshot -->
<g id="edge6" class="edge">
<title>:ui:common&#45;&gt;:ui:test:screenshot</title>
<path fill="none" stroke="#ff9ab1" stroke-dasharray="1,5" d="M607.96,-441C745.01,-441 1126.36,-441 1126.36,-441 1126.36,-441 1126.36,-319.09 1126.36,-319.09"/>
<polygon fill="#ff9ab1" stroke="#ff9ab1" points="1129.86,-319.09 1126.36,-309.09 1122.86,-319.09 1129.86,-319.09"/>
</g>
<!-- :ui:test:image -->
<g id="node6" class="node">
<title>:ui:test:image</title>
<ellipse fill="#9affb5" stroke="black" cx="390.64" cy="-292" rx="74.99" ry="18"/>
<text text-anchor="middle" x="390.64" y="-288.3" font-family="Times,serif" font-size="14.00">:ui:test:image</text>
</g>
<!-- :ui:common&#45;&gt;:ui:test:image -->
<g id="edge5" class="edge">
<title>:ui:common&#45;&gt;:ui:test:image</title>
<path fill="none" stroke="#ff9ab1" stroke-dasharray="1,5" d="M498.63,-423C450.22,-423 390.64,-423 390.64,-423 390.64,-423 390.64,-320.21 390.64,-320.21"/>
<polygon fill="#ff9ab1" stroke="#ff9ab1" points="394.14,-320.21 390.64,-310.21 387.14,-320.22 394.14,-320.21"/>
</g>
<!-- :ui:core -->
<g id="node7" class="node">
<title>:ui:core</title>
<ellipse fill="#b59aff" stroke="black" cx="1033.64" cy="-155" rx="45.49" ry="18"/>
<text text-anchor="middle" x="1033.64" y="-151.3" font-family="Times,serif" font-size="14.00">:ui:core</text>
</g>
<!-- :ui:common&#45;&gt;:ui:core -->
<g id="edge8" class="edge">
<title>:ui:common&#45;&gt;:ui:core</title>
<path fill="none" stroke="black" d="M620.65,-435C748.68,-435 1033.69,-435 1033.69,-435 1033.69,-435 1033.69,-183.37 1033.69,-183.37"/>
<polygon fill="black" stroke="black" points="1037.19,-183.37 1033.69,-173.37 1030.19,-183.37 1037.19,-183.37"/>
</g>
<!-- :data:coverart -->
<g id="node8" class="node">
<title>:data:coverart</title>
<ellipse fill="#b59aff" stroke="black" cx="559.64" cy="-292" rx="76.09" ry="18"/>
<text text-anchor="middle" x="559.64" y="-288.3" font-family="Times,serif" font-size="14.00">:data:coverart</text>
</g>
<!-- :ui:common&#45;&gt;:data:coverart -->
<g id="edge9" class="edge">
<title>:ui:common&#45;&gt;:data:coverart</title>
<path fill="none" stroke="black" stroke-dasharray="1,5" d="M559.64,-410.81C559.64,-410.81 559.64,-320.27 559.64,-320.27"/>
<polygon fill="black" stroke="black" points="563.14,-320.27 559.64,-310.27 556.14,-320.27 563.14,-320.27"/>
</g>
<!-- :data:musicbrainz -->
<g id="node9" class="node">
<title>:data:musicbrainz</title>
<ellipse fill="#b59aff" stroke="black" cx="785.64" cy="-292" rx="93.68" ry="18"/>
<text text-anchor="middle" x="785.64" y="-288.3" font-family="Times,serif" font-size="14.00">:data:musicbrainz</text>
</g>
<!-- :ui:common&#45;&gt;:data:musicbrainz -->
<g id="edge10" class="edge">
<title>:ui:common&#45;&gt;:data:musicbrainz</title>
<path fill="none" stroke="black" stroke-dasharray="1,5" d="M620.5,-423C687.44,-423 785.64,-423 785.64,-423 785.64,-423 785.64,-320.21 785.64,-320.21"/>
<polygon fill="black" stroke="black" points="789.14,-320.21 785.64,-310.21 782.14,-320.22 789.14,-320.21"/>
</g>
<!-- :core:preferences -->
<g id="node10" class="node">
<title>:core:preferences</title>
<ellipse fill="#b59aff" stroke="black" cx="91.64" cy="-292" rx="91.78" ry="18"/>
<text text-anchor="middle" x="91.64" y="-288.3" font-family="Times,serif" font-size="14.00">:core:preferences</text>
</g>
<!-- :ui:common&#45;&gt;:core:preferences -->
<g id="edge11" class="edge">
<title>:ui:common&#45;&gt;:core:preferences</title>
<path fill="none" stroke="black" stroke-dasharray="1,5" d="M498.94,-435C372.31,-435 91.64,-435 91.64,-435 91.64,-435 91.64,-320.11 91.64,-320.11"/>
<polygon fill="black" stroke="black" points="95.14,-320.11 91.64,-310.11 88.14,-320.11 95.14,-320.11"/>
</g>
<!-- :core:logging:api -->
<g id="node11" class="node">
<title>:core:logging:api</title>
<ellipse fill="#b59aff" stroke="black" cx="663.64" cy="-155" rx="88.28" ry="18"/>
<text text-anchor="middle" x="663.64" y="-151.3" font-family="Times,serif" font-size="14.00">:core:logging:api</text>
</g>
<!-- :ui:common&#45;&gt;:core:logging:api -->
<g id="edge12" class="edge">
<title>:ui:common&#45;&gt;:core:logging:api</title>
<path fill="none" stroke="black" stroke-dasharray="1,5" d="M607.79,-417C635.1,-417 663.87,-417 663.87,-417 663.87,-417 663.87,-183.01 663.87,-183.01"/>
<polygon fill="black" stroke="black" points="667.37,-183.01 663.87,-173.01 660.37,-183.01 667.37,-183.01"/>
</g>
<!-- :ui:image -->
<g id="node12" class="node">
<title>:ui:image</title>
<ellipse fill="#b59aff" stroke="black" cx="951.64" cy="-292" rx="53.89" ry="18"/>
<text text-anchor="middle" x="951.64" y="-288.3" font-family="Times,serif" font-size="14.00">:ui:image</text>
</g>
<!-- :ui:common&#45;&gt;:ui:image -->
<g id="edge14" class="edge">
<title>:ui:common&#45;&gt;:ui:image</title>
<path fill="none" stroke="black" stroke-dasharray="1,5" d="M624.37,-429C735.71,-429 951.64,-429 951.64,-429 951.64,-429 951.64,-320.19 951.64,-320.19"/>
<polygon fill="black" stroke="black" points="955.14,-320.19 951.64,-310.19 948.14,-320.19 955.14,-320.19"/>
</g>
<!-- :shared:domain&#45;&gt;:core:models -->
<g id="edge15" class="edge">
<title>:shared:domain&#45;&gt;:core:models</title>
<path fill="none" stroke="black" stroke-dasharray="1,5" d="M360.64,-136.81C360.64,-136.81 360.64,-46.27 360.64,-46.27"/>
<polygon fill="black" stroke="black" points="364.14,-46.27 360.64,-36.27 357.14,-46.27 364.14,-46.27"/>
</g>
<!-- :ui:test:screenshot&#45;&gt;:ui:core -->
<g id="edge16" class="edge">
<title>:ui:test:screenshot&#45;&gt;:ui:core</title>
<path fill="none" stroke="black" stroke-dasharray="1,5" d="M1070.47,-284.24C1070.47,-284.24 1070.47,-175.58 1070.47,-175.58"/>
<polygon fill="black" stroke="black" points="1073.97,-175.58 1070.47,-165.58 1066.97,-175.58 1073.97,-175.58"/>
</g>
<!-- :shared:strings -->
<g id="node13" class="node">
<title>:shared:strings</title>
<ellipse fill="#b59aff" stroke="black" cx="1033.64" cy="-18" rx="81.49" ry="18"/>
<text text-anchor="middle" x="1033.64" y="-14.3" font-family="Times,serif" font-size="14.00">:shared:strings</text>
</g>
<!-- :ui:core&#45;&gt;:shared:strings -->
<g id="edge17" class="edge">
<title>:ui:core&#45;&gt;:shared:strings</title>
<path fill="none" stroke="black" d="M1033.64,-136.81C1033.64,-136.81 1033.64,-46.27 1033.64,-46.27"/>
<polygon fill="black" stroke="black" points="1037.14,-46.27 1033.64,-36.27 1030.14,-46.27 1037.14,-46.27"/>
</g>
<!-- :data:coverart&#45;&gt;:core:models -->
<g id="edge19" class="edge">
<title>:data:coverart&#45;&gt;:core:models</title>
<path fill="none" stroke="black" stroke-dasharray="1,5" d="M544.7,-274.02C544.7,-213.06 544.7,-18 544.7,-18 544.7,-18 440.23,-18 440.23,-18"/>
<polygon fill="black" stroke="black" points="440.23,-14.5 430.23,-18 440.23,-21.5 440.23,-14.5"/>
</g>
<!-- :data:coverart&#45;&gt;:shared:domain -->
<g id="edge20" class="edge">
<title>:data:coverart&#45;&gt;:shared:domain</title>
<path fill="none" stroke="black" stroke-dasharray="1,5" d="M514.15,-277.34C514.15,-242 514.15,-155 514.15,-155 514.15,-155 453.24,-155 453.24,-155"/>
<polygon fill="black" stroke="black" points="453.24,-151.5 443.24,-155 453.24,-158.5 453.24,-151.5"/>
</g>
<!-- :data:coverart&#45;&gt;:core:logging:api -->
<g id="edge18" class="edge">
<title>:data:coverart&#45;&gt;:core:logging:api</title>
<path fill="none" stroke="black" stroke-dasharray="1,5" d="M605.47,-277.6C605.47,-277.6 605.47,-178.8 605.47,-178.8"/>
<polygon fill="black" stroke="black" points="608.97,-178.8 605.47,-168.8 601.97,-178.8 608.97,-178.8"/>
</g>
<!-- :data:musicbrainz&#45;&gt;:core:models -->
<g id="edge22" class="edge">
<title>:data:musicbrainz&#45;&gt;:core:models</title>
<path fill="none" stroke="black" stroke-dasharray="1,5" d="M815.63,-274.91C815.63,-214.11 815.63,-12 815.63,-12 815.63,-12 436.32,-12 436.32,-12"/>
<polygon fill="black" stroke="black" points="436.32,-8.5 426.32,-12 436.32,-15.5 436.32,-8.5"/>
</g>
<!-- :data:musicbrainz&#45;&gt;:core:logging:api -->
<g id="edge21" class="edge">
<title>:data:musicbrainz&#45;&gt;:core:logging:api</title>
<path fill="none" stroke="black" stroke-dasharray="1,5" d="M722.04,-278.61C722.04,-278.61 722.04,-178.64 722.04,-178.64"/>
<polygon fill="black" stroke="black" points="725.54,-178.64 722.04,-168.64 718.54,-178.64 725.54,-178.64"/>
</g>
<!-- :core:preferences&#45;&gt;:core:models -->
<g id="edge24" class="edge">
<title>:core:preferences&#45;&gt;:core:models</title>
<path fill="none" stroke="black" stroke-dasharray="1,5" d="M25.75,-279.15C25.75,-224.98 25.75,-18 25.75,-18 25.75,-18 280.85,-18 280.85,-18"/>
<polygon fill="black" stroke="black" points="280.85,-21.5 290.85,-18 280.85,-14.5 280.85,-21.5"/>
</g>
<!-- :core:coroutines -->
<g id="node14" class="node">
<title>:core:coroutines</title>
<ellipse fill="#b59aff" stroke="black" cx="136.64" cy="-155" rx="85.29" ry="18"/>
<text text-anchor="middle" x="136.64" y="-151.3" font-family="Times,serif" font-size="14.00">:core:coroutines</text>
</g>
<!-- :core:preferences&#45;&gt;:core:coroutines -->
<g id="edge23" class="edge">
<title>:core:preferences&#45;&gt;:core:coroutines</title>
<path fill="none" stroke="black" stroke-dasharray="1,5" d="M117.39,-274.65C117.39,-274.65 117.39,-182.64 117.39,-182.64"/>
<polygon fill="black" stroke="black" points="120.89,-182.64 117.39,-172.64 113.89,-182.64 120.89,-182.64"/>
</g>
<!-- :ui:image&#45;&gt;:core:models -->
<g id="edge25" class="edge">
<title>:ui:image&#45;&gt;:core:models</title>
<path fill="none" stroke="black" stroke-dasharray="1,5" d="M925.05,-276.16C925.05,-215.99 925.05,-5 925.05,-5 925.05,-5 418.76,-5 418.76,-5"/>
<polygon fill="black" stroke="black" points="418.76,-1.5 408.76,-5 418.76,-8.5 418.76,-1.5"/>
</g>
<!-- :ui:image&#45;&gt;:ui:core -->
<g id="edge26" class="edge">
<title>:ui:image&#45;&gt;:ui:core</title>
<path fill="none" stroke="black" stroke-dasharray="1,5" d="M996.87,-282.15C996.87,-282.15 996.87,-175.89 996.87,-175.89"/>
<polygon fill="black" stroke="black" points="1000.37,-175.89 996.87,-165.89 993.37,-175.89 1000.37,-175.89"/>
</g>
</g>
</svg>
