<?xml version="1.0" encoding="UTF-8" standalone="no"?>
<!DOCTYPE svg PUBLIC "-//W3C//DTD SVG 1.1//EN"
 "http://www.w3.org/Graphics/SVG/1.1/DTD/svg11.dtd">
<!-- Generated by graphviz version 2.43.0 (0)
 -->
<!-- Title: %3 Pages: 1 -->
<svg width="1085pt" height="1077pt"
 viewBox="0.00 0.00 1085.38 1077.00" xmlns="http://www.w3.org/2000/svg" xmlns:xlink="http://www.w3.org/1999/xlink">
<g id="graph0" class="graph" transform="scale(1 1) rotate(0) translate(4 1073)">
<title>%3</title>
<polygon fill="white" stroke="transparent" points="-4,4 -4,-1073 1081.38,-1073 1081.38,4 -4,4"/>
<text text-anchor="middle" x="538.69" y="-1041" font-family="Times,serif" font-size="30.00">Dependencies</text>
<text text-anchor="middle" x="538.69" y="-1008" font-family="Times,serif" font-size="30.00"> </text>
<!-- :android:feature:spotify -->
<g id="node1" class="node">
<title>:android:feature:spotify</title>
<polygon fill="#9affb5" stroke="black" points="802.04,-995 617.04,-995 617.04,-959 802.04,-959 802.04,-995"/>
<text text-anchor="middle" x="709.54" y="-973.3" font-family="Times,serif" font-size="14.00">:android:feature:spotify</text>
</g>
<!-- :ui:common -->
<g id="node2" class="node">
<title>:ui:common</title>
<ellipse fill="#b59aff" stroke="black" cx="709.54" cy="-840" rx="64.19" ry="18"/>
<text text-anchor="middle" x="709.54" y="-836.3" font-family="Times,serif" font-size="14.00">:ui:common</text>
</g>
<!-- :android:feature:spotify&#45;&gt;:ui:common -->
<g id="edge1" class="edge">
<title>:android:feature:spotify&#45;&gt;:ui:common</title>
<path fill="none" stroke="black" stroke-dasharray="1,5" d="M709.54,-958.81C709.54,-958.81 709.54,-868.27 709.54,-868.27"/>
<polygon fill="black" stroke="black" points="713.04,-868.27 709.54,-858.27 706.04,-868.27 713.04,-868.27"/>
</g>
<!-- :shared:domain -->
<g id="node3" class="node">
<title>:shared:domain</title>
<ellipse fill="#b59aff" stroke="black" cx="82.54" cy="-155" rx="82.59" ry="18"/>
<text text-anchor="middle" x="82.54" y="-151.3" font-family="Times,serif" font-size="14.00">:shared:domain</text>
</g>
<!-- :android:feature:spotify&#45;&gt;:shared:domain -->
<g id="edge2" class="edge">
<title>:android:feature:spotify&#45;&gt;:shared:domain</title>
<path fill="none" stroke="black" stroke-dasharray="1,5" d="M616.84,-977C429.2,-977 22.13,-977 22.13,-977 22.13,-977 22.13,-177.58 22.13,-177.58"/>
<polygon fill="black" stroke="black" points="25.63,-177.58 22.13,-167.58 18.63,-177.58 25.63,-177.58"/>
</g>
<!-- :ui:test:screenshot -->
<g id="node4" class="node">
<title>:ui:test:screenshot</title>
<ellipse fill="#9affb5" stroke="black" cx="980.54" cy="-703" rx="96.68" ry="18"/>
<text text-anchor="middle" x="980.54" y="-699.3" font-family="Times,serif" font-size="14.00">:ui:test:screenshot</text>
</g>
<!-- :android:feature:spotify&#45;&gt;:ui:test:screenshot -->
<g id="edge3" class="edge">
<title>:android:feature:spotify&#45;&gt;:ui:test:screenshot</title>
<path fill="none" stroke="#ff9ab1" stroke-dasharray="1,5" d="M787.96,-958.99C787.96,-899.8 787.96,-715 787.96,-715 787.96,-715 898.29,-715 898.29,-715"/>
<polygon fill="#ff9ab1" stroke="#ff9ab1" points="898.29,-718.5 908.29,-715 898.29,-711.5 898.29,-718.5"/>
</g>
<!-- :ui:common&#45;&gt;:shared:domain -->
<g id="edge7" class="edge">
<title>:ui:common&#45;&gt;:shared:domain</title>
<path fill="none" stroke="black" d="M645.15,-840C478.19,-840 44.26,-840 44.26,-840 44.26,-840 44.26,-181.26 44.26,-181.26"/>
<polygon fill="black" stroke="black" points="47.76,-181.26 44.26,-171.26 40.76,-181.26 47.76,-181.26"/>
</g>
<!-- :ui:common&#45;&gt;:ui:test:screenshot -->
<g id="edge5" class="edge">
<title>:ui:common&#45;&gt;:ui:test:screenshot</title>
<path fill="none" stroke="#ff9ab1" stroke-dasharray="1,5" d="M761.27,-829.28C761.27,-797.99 761.27,-709 761.27,-709 761.27,-709 879.14,-709 879.14,-709"/>
<polygon fill="#ff9ab1" stroke="#ff9ab1" points="879.14,-712.5 889.14,-709 879.14,-705.5 879.14,-712.5"/>
</g>
<!-- :test&#45;data -->
<g id="node5" class="node">
<title>:test&#45;data</title>
<ellipse fill="#b59aff" stroke="black" cx="459.54" cy="-703" rx="55.49" ry="18"/>
<text text-anchor="middle" x="459.54" y="-699.3" font-family="Times,serif" font-size="14.00">:test&#45;data</text>
</g>
<!-- :ui:common&#45;&gt;:test&#45;data -->
<g id="edge4" class="edge">
<title>:ui:common&#45;&gt;:test&#45;data</title>
<path fill="none" stroke="#ff9ab1" stroke-dasharray="1,5" d="M654.32,-830.58C654.32,-799.63 654.32,-703 654.32,-703 654.32,-703 524.84,-703 524.84,-703"/>
<polygon fill="#ff9ab1" stroke="#ff9ab1" points="524.84,-699.5 514.84,-703 524.84,-706.5 524.84,-699.5"/>
</g>
<!-- :core:coroutines -->
<g id="node6" class="node">
<title>:core:coroutines</title>
<ellipse fill="#b59aff" stroke="black" cx="596.54" cy="-18" rx="85.29" ry="18"/>
<text text-anchor="middle" x="596.54" y="-14.3" font-family="Times,serif" font-size="14.00">:core:coroutines</text>
</g>
<!-- :ui:common&#45;&gt;:core:coroutines -->
<g id="edge6" class="edge">
<title>:ui:common&#45;&gt;:core:coroutines</title>
<path fill="none" stroke="#ff9ab1" stroke-dasharray="1,5" d="M672.56,-825.03C672.56,-825.03 672.56,-36.33 672.56,-36.33"/>
<polygon fill="#ff9ab1" stroke="#ff9ab1" points="676.06,-36.33 672.56,-26.33 669.06,-36.33 676.06,-36.33"/>
</g>
<!-- :ui:core -->
<g id="node7" class="node">
<title>:ui:core</title>
<ellipse fill="#b59aff" stroke="black" cx="781.54" cy="-566" rx="45.49" ry="18"/>
<text text-anchor="middle" x="781.54" y="-562.3" font-family="Times,serif" font-size="14.00">:ui:core</text>
</g>
<!-- :ui:common&#45;&gt;:ui:core -->
<g id="edge8" class="edge">
<title>:ui:common&#45;&gt;:ui:core</title>
<path fill="none" stroke="black" d="M748.66,-825.65C748.66,-825.65 748.66,-588.6 748.66,-588.6"/>
<polygon fill="black" stroke="black" points="752.16,-588.6 748.66,-578.6 745.16,-588.6 752.16,-588.6"/>
</g>
<!-- :core:logging:api -->
<g id="node8" class="node">
<title>:core:logging:api</title>
<ellipse fill="#b59aff" stroke="black" cx="480.54" cy="-155" rx="88.28" ry="18"/>
<text text-anchor="middle" x="480.54" y="-151.3" font-family="Times,serif" font-size="14.00">:core:logging:api</text>
</g>
<!-- :ui:common&#45;&gt;:core:logging:api -->
<g id="edge9" class="edge">
<title>:ui:common&#45;&gt;:core:logging:api</title>
<path fill="none" stroke="black" stroke-dasharray="1,5" d="M663.44,-827.23C663.44,-733.46 663.44,-155 663.44,-155 663.44,-155 579.05,-155 579.05,-155"/>
<polygon fill="black" stroke="black" points="579.05,-151.5 569.05,-155 579.05,-158.5 579.05,-151.5"/>
</g>
<!-- :ui:test:screenshot&#45;&gt;:ui:core -->
<g id="edge10" class="edge">
<title>:ui:test:screenshot&#45;&gt;:ui:core</title>
<path fill="none" stroke="black" stroke-dasharray="1,5" d="M908.21,-691C863.48,-691 814.54,-691 814.54,-691 814.54,-691 814.54,-588.44 814.54,-588.44"/>
<polygon fill="black" stroke="black" points="818.04,-588.44 814.54,-578.44 811.04,-588.44 818.04,-588.44"/>
</g>
<!-- :test:image -->
<g id="node9" class="node">
<title>:test:image</title>
<ellipse fill="#9affb5" stroke="black" cx="980.54" cy="-566" rx="63.09" ry="18"/>
<text text-anchor="middle" x="980.54" y="-562.3" font-family="Times,serif" font-size="14.00">:test:image</text>
</g>
<!-- :ui:test:screenshot&#45;&gt;:test:image -->
<g id="edge11" class="edge">
<title>:ui:test:screenshot&#45;&gt;:test:image</title>
<path fill="none" stroke="black" stroke-dasharray="1,5" d="M980.54,-684.81C980.54,-684.81 980.54,-594.27 980.54,-594.27"/>
<polygon fill="black" stroke="black" points="984.04,-594.27 980.54,-584.27 977.04,-594.27 984.04,-594.27"/>
</g>
<!-- :test&#45;data&#45;&gt;:shared:domain -->
<g id="edge12" class="edge">
<title>:test&#45;data&#45;&gt;:shared:domain</title>
<path fill="none" stroke="black" stroke-dasharray="1,5" d="M407.33,-709C300.39,-709 66.39,-709 66.39,-709 66.39,-709 66.39,-182.81 66.39,-182.81"/>
<polygon fill="black" stroke="black" points="69.89,-182.81 66.39,-172.81 62.89,-182.81 69.89,-182.81"/>
</g>
<!-- :test&#45;data&#45;&gt;:core:coroutines -->
<g id="edge13" class="edge">
<title>:test&#45;data&#45;&gt;:core:coroutines</title>
<path fill="none" stroke="black" stroke-dasharray="1,5" d="M511.89,-697C552.64,-697 602.31,-697 602.31,-697 602.31,-697 602.31,-46.16 602.31,-46.16"/>
<polygon fill="black" stroke="black" points="605.81,-46.16 602.31,-36.16 598.81,-46.16 605.81,-46.16"/>
</g>
<!-- :data:database -->
<g id="node10" class="node">
<title>:data:database</title>
<ellipse fill="#b59aff" stroke="black" cx="300.54" cy="-429" rx="79.09" ry="18"/>
<text text-anchor="middle" x="300.54" y="-425.3" font-family="Times,serif" font-size="14.00">:data:database</text>
</g>
<!-- :test&#45;data&#45;&gt;:data:database -->
<g id="edge14" class="edge">
<title>:test&#45;data&#45;&gt;:data:database</title>
<path fill="none" stroke="black" stroke-dasharray="1,5" d="M414.7,-692.28C414.7,-642.71 414.7,-438 414.7,-438 414.7,-438 379.25,-438 379.25,-438"/>
<polygon fill="black" stroke="black" points="379.25,-434.5 369.25,-438 379.25,-441.5 379.25,-434.5"/>
</g>
<!-- :data:musicbrainz -->
<g id="node11" class="node">
<title>:data:musicbrainz</title>
<ellipse fill="#b59aff" stroke="black" cx="398.54" cy="-292" rx="93.68" ry="18"/>
<text text-anchor="middle" x="398.54" y="-288.3" font-family="Times,serif" font-size="14.00">:data:musicbrainz</text>
</g>
<!-- :test&#45;data&#45;&gt;:data:musicbrainz -->
<g id="edge15" class="edge">
<title>:test&#45;data&#45;&gt;:data:musicbrainz</title>
<path fill="none" stroke="black" stroke-dasharray="1,5" d="M425.1,-688.85C425.1,-688.85 425.1,-319.65 425.1,-319.65"/>
<polygon fill="black" stroke="black" points="428.6,-319.65 425.1,-309.65 421.6,-319.65 428.6,-319.65"/>
</g>
<!-- :data:coverart -->
<g id="node12" class="node">
<title>:data:coverart</title>
<ellipse fill="#b59aff" stroke="black" cx="511.54" cy="-566" rx="76.09" ry="18"/>
<text text-anchor="middle" x="511.54" y="-562.3" font-family="Times,serif" font-size="14.00">:data:coverart</text>
</g>
<!-- :test&#45;data&#45;&gt;:data:coverart -->
<g id="edge16" class="edge">
<title>:test&#45;data&#45;&gt;:data:coverart</title>
<path fill="none" stroke="black" stroke-dasharray="1,5" d="M461.93,-684.81C461.93,-684.81 461.93,-589.71 461.93,-589.71"/>
<polygon fill="black" stroke="black" points="465.43,-589.71 461.93,-579.71 458.43,-589.71 465.43,-589.71"/>
</g>
<!-- :data:spotify -->
<g id="node13" class="node">
<title>:data:spotify</title>
<ellipse fill="#b59aff" stroke="black" cx="179.54" cy="-292" rx="68.79" ry="18"/>
<text text-anchor="middle" x="179.54" y="-288.3" font-family="Times,serif" font-size="14.00">:data:spotify</text>
</g>
<!-- :test&#45;data&#45;&gt;:data:spotify -->
<g id="edge17" class="edge">
<title>:test&#45;data&#45;&gt;:data:spotify</title>
<path fill="none" stroke="black" stroke-dasharray="1,5" d="M407.39,-697C323.03,-697 165.95,-697 165.95,-697 165.95,-697 165.95,-319.66 165.95,-319.66"/>
<polygon fill="black" stroke="black" points="169.45,-319.66 165.95,-309.66 162.45,-319.66 169.45,-319.66"/>
</g>
<!-- :shared:strings -->
<g id="node14" class="node">
<title>:shared:strings</title>
<ellipse fill="#b59aff" stroke="black" cx="781.54" cy="-429" rx="81.49" ry="18"/>
<text text-anchor="middle" x="781.54" y="-425.3" font-family="Times,serif" font-size="14.00">:shared:strings</text>
</g>
<!-- :ui:core&#45;&gt;:shared:strings -->
<g id="edge18" class="edge">
<title>:ui:core&#45;&gt;:shared:strings</title>
<path fill="none" stroke="black" d="M781.54,-547.81C781.54,-547.81 781.54,-457.27 781.54,-457.27"/>
<polygon fill="black" stroke="black" points="785.04,-457.27 781.54,-447.27 778.04,-457.27 785.04,-457.27"/>
</g>
<!-- :core:logging:api&#45;&gt;:core:coroutines -->
<g id="edge19" class="edge">
<title>:core:logging:api&#45;&gt;:core:coroutines</title>
<path fill="none" stroke="black" d="M540.17,-141.61C540.17,-141.61 540.17,-41.64 540.17,-41.64"/>
<polygon fill="black" stroke="black" points="543.67,-41.64 540.17,-31.64 536.67,-41.64 543.67,-41.64"/>
</g>
<!-- :data:database&#45;&gt;:shared:domain -->
<g id="edge20" class="edge">
<title>:data:database&#45;&gt;:shared:domain</title>
<path fill="none" stroke="black" stroke-dasharray="1,5" d="M276.69,-411.61C276.69,-352.66 276.69,-164 276.69,-164 276.69,-164 164.29,-164 164.29,-164"/>
<polygon fill="black" stroke="black" points="164.29,-160.5 154.29,-164 164.29,-167.5 164.29,-160.5"/>
</g>
<!-- :data:database&#45;&gt;:core:coroutines -->
<g id="edge21" class="edge">
<title>:data:database&#45;&gt;:core:coroutines</title>
<path fill="none" stroke="black" stroke-dasharray="1,5" d="M369.48,-420C450.83,-420 575.15,-420 575.15,-420 575.15,-420 575.15,-45.53 575.15,-45.53"/>
<polygon fill="black" stroke="black" points="578.65,-45.53 575.15,-35.53 571.65,-45.53 578.65,-45.53"/>
</g>
<!-- :data:database&#45;&gt;:data:musicbrainz -->
<g id="edge22" class="edge">
<title>:data:database&#45;&gt;:data:musicbrainz</title>
<path fill="none" stroke="black" stroke-dasharray="1,5" d="M342.39,-413.55C342.39,-413.55 342.39,-316.77 342.39,-316.77"/>
<polygon fill="black" stroke="black" points="345.89,-316.77 342.39,-306.77 338.89,-316.77 345.89,-316.77"/>
</g>
<!-- :data:musicbrainz&#45;&gt;:shared:domain -->
<g id="edge23" class="edge">
<title>:data:musicbrainz&#45;&gt;:shared:domain</title>
<path fill="none" stroke="black" stroke-dasharray="1,5" d="M348.55,-276.55C348.55,-240.72 348.55,-155 348.55,-155 348.55,-155 175.25,-155 175.25,-155"/>
<polygon fill="black" stroke="black" points="175.25,-151.5 165.25,-155 175.25,-158.5 175.25,-151.5"/>
</g>
<!-- :data:musicbrainz&#45;&gt;:core:logging:api -->
<g id="edge24" class="edge">
<title>:data:musicbrainz&#45;&gt;:core:logging:api</title>
<path fill="none" stroke="black" stroke-dasharray="1,5" d="M442.14,-276.02C442.14,-276.02 442.14,-181.31 442.14,-181.31"/>
<polygon fill="black" stroke="black" points="445.64,-181.31 442.14,-171.31 438.64,-181.31 445.64,-181.31"/>
</g>
<!-- :data:coverart&#45;&gt;:shared:domain -->
<g id="edge25" class="edge">
<title>:data:coverart&#45;&gt;:shared:domain</title>
<path fill="none" stroke="black" stroke-dasharray="1,5" d="M435.43,-566C313.63,-566 88.52,-566 88.52,-566 88.52,-566 88.52,-183.19 88.52,-183.19"/>
<polygon fill="black" stroke="black" points="92.02,-183.19 88.52,-173.19 85.02,-183.19 92.02,-183.19"/>
</g>
<!-- :data:coverart&#45;&gt;:test&#45;data -->
<g id="edge28" class="edge">
<title>:data:coverart&#45;&gt;:test&#45;data</title>
<path fill="none" stroke="#ff9ab1" stroke-dasharray="1,5" d="M488.36,-583.35C488.36,-583.35 488.36,-677.48 488.36,-677.48"/>
<polygon fill="#ff9ab1" stroke="#ff9ab1" points="484.86,-677.48 488.36,-687.48 491.86,-677.48 484.86,-677.48"/>
</g>
<!-- :data:coverart&#45;&gt;:core:coroutines -->
<g id="edge27" class="edge">
<title>:data:coverart&#45;&gt;:core:coroutines</title>
<path fill="none" stroke="black" stroke-dasharray="1,5" d="M581.37,-558.67C581.37,-558.67 581.37,-45.88 581.37,-45.88"/>
<polygon fill="black" stroke="black" points="584.87,-45.88 581.37,-35.88 577.87,-45.88 584.87,-45.88"/>
</g>
<!-- :data:coverart&#45;&gt;:core:logging:api -->
<g id="edge26" class="edge">
<title>:data:coverart&#45;&gt;:core:logging:api</title>
<path fill="none" stroke="black" stroke-dasharray="1,5" d="M530.53,-548.34C530.53,-548.34 530.53,-179.93 530.53,-179.93"/>
<polygon fill="black" stroke="black" points="534.03,-179.93 530.53,-169.93 527.03,-179.93 534.03,-179.93"/>
</g>
<!-- :data:coverart&#45;&gt;:data:database -->
<g id="edge30" class="edge">
<title>:data:coverart&#45;&gt;:data:database</title>
<path fill="none" stroke="#ff9ab1" stroke-dasharray="1,5" d="M454.38,-553.84C454.38,-520.31 454.38,-429 454.38,-429 454.38,-429 390.16,-429 390.16,-429"/>
<polygon fill="#ff9ab1" stroke="#ff9ab1" points="390.16,-425.5 380.16,-429 390.16,-432.5 390.16,-425.5"/>
</g>
<!-- :data:coverart&#45;&gt;:data:musicbrainz -->
<g id="edge29" class="edge">
<title>:data:coverart&#45;&gt;:data:musicbrainz</title>
<path fill="none" stroke="#ff9ab1" stroke-dasharray="1,5" d="M473.26,-550.08C473.26,-550.08 473.26,-312.89 473.26,-312.89"/>
<polygon fill="#ff9ab1" stroke="#ff9ab1" points="476.76,-312.89 473.26,-302.89 469.76,-312.89 476.76,-312.89"/>
</g>
<!-- :data:spotify&#45;&gt;:shared:domain -->
<g id="edge31" class="edge">
<title>:data:spotify&#45;&gt;:shared:domain</title>
<path fill="none" stroke="black" stroke-dasharray="1,5" d="M137.87,-277.6C137.87,-277.6 137.87,-178.4 137.87,-178.4"/>
<polygon fill="black" stroke="black" points="141.37,-178.4 137.87,-168.4 134.37,-178.4 141.37,-178.4"/>
</g>
<!-- :data:spotify&#45;&gt;:core:logging:api -->
<g id="edge32" class="edge">
<title>:data:spotify&#45;&gt;:core:logging:api</title>
<path fill="none" stroke="black" stroke-dasharray="1,5" d="M206.76,-275.25C206.76,-236.9 206.76,-146 206.76,-146 206.76,-146 393.92,-146 393.92,-146"/>
<polygon fill="black" stroke="black" points="393.92,-149.5 403.92,-146 393.92,-142.5 393.92,-149.5"/>
</g>
</g>
</svg>
