<?xml version="1.0" encoding="UTF-8" standalone="no"?>
<!DOCTYPE svg PUBLIC "-//W3C//DTD SVG 1.1//EN"
 "http://www.w3.org/Graphics/SVG/1.1/DTD/svg11.dtd">
<!-- Generated by graphviz version 2.43.0 (0)
 -->
<!-- Title: %3 Pages: 1 -->
<svg width="1324pt" height="666pt"
 viewBox="0.00 0.00 1324.24 666.00" xmlns="http://www.w3.org/2000/svg" xmlns:xlink="http://www.w3.org/1999/xlink">
<g id="graph0" class="graph" transform="scale(1 1) rotate(0) translate(4 662)">
<title>%3</title>
<polygon fill="white" stroke="transparent" points="-4,4 -4,-662 1320.24,-662 1320.24,4 -4,4"/>
<text text-anchor="middle" x="658.12" y="-630" font-family="Times,serif" font-size="30.00">Dependencies</text>
<text text-anchor="middle" x="658.12" y="-597" font-family="Times,serif" font-size="30.00"> </text>
<!-- :android:feature:spotify -->
<g id="node1" class="node">
<title>:android:feature:spotify</title>
<polygon fill="#9affb5" stroke="black" points="1122.1,-584 762.1,-584 762.1,-548 1122.1,-548 1122.1,-584"/>
<text text-anchor="middle" x="942.1" y="-562.3" font-family="Times,serif" font-size="14.00">:android:feature:spotify</text>
</g>
<!-- :core:models -->
<g id="node2" class="node">
<title>:core:models</title>
<ellipse fill="#b59aff" stroke="black" cx="367.1" cy="-18" rx="69.59" ry="18"/>
<text text-anchor="middle" x="367.1" y="-14.3" font-family="Times,serif" font-size="14.00">:core:models</text>
</g>
<!-- :android:feature:spotify&#45;&gt;:core:models -->
<g id="edge1" class="edge">
<title>:android:feature:spotify&#45;&gt;:core:models</title>
<path fill="none" stroke="black" stroke-dasharray="1,5" d="M852.2,-547.97C852.2,-451.95 852.2,-5 852.2,-5 852.2,-5 425.38,-5 425.38,-5"/>
<polygon fill="black" stroke="black" points="425.38,-1.5 415.38,-5 425.38,-8.5 425.38,-1.5"/>
</g>
<!-- :ui:core -->
<g id="node3" class="node">
<title>:ui:core</title>
<ellipse fill="#b59aff" stroke="black" cx="1145.1" cy="-155" rx="45.49" ry="18"/>
<text text-anchor="middle" x="1145.1" y="-151.3" font-family="Times,serif" font-size="14.00">:ui:core</text>
</g>
<!-- :android:feature:spotify&#45;&gt;:ui:core -->
<g id="edge2" class="edge">
<title>:android:feature:spotify&#45;&gt;:ui:core</title>
<path fill="none" stroke="black" stroke-dasharray="1,5" d="M1039.05,-547.95C1039.05,-469.72 1039.05,-164 1039.05,-164 1039.05,-164 1095.61,-164 1095.61,-164"/>
<polygon fill="black" stroke="black" points="1095.61,-167.5 1105.61,-164 1095.61,-160.5 1095.61,-167.5"/>
</g>
<!-- :ui:common -->
<g id="node4" class="node">
<title>:ui:common</title>
<ellipse fill="#b59aff" stroke="black" cx="673.1" cy="-429" rx="64.19" ry="18"/>
<text text-anchor="middle" x="673.1" y="-425.3" font-family="Times,serif" font-size="14.00">:ui:common</text>
</g>
<!-- :android:feature:spotify&#45;&gt;:ui:common -->
<g id="edge3" class="edge">
<title>:android:feature:spotify&#45;&gt;:ui:common</title>
<path fill="none" stroke="black" stroke-dasharray="1,5" d="M793.07,-547.93C793.07,-512.65 793.07,-438 793.07,-438 793.07,-438 738.87,-438 738.87,-438"/>
<polygon fill="black" stroke="black" points="738.87,-434.5 728.87,-438 738.87,-441.5 738.87,-434.5"/>
</g>
<!-- :domain -->
<g id="node5" class="node">
<title>:domain</title>
<ellipse fill="#b59aff" stroke="black" cx="48.1" cy="-155" rx="48.19" ry="18"/>
<text text-anchor="middle" x="48.1" y="-151.3" font-family="Times,serif" font-size="14.00">:domain</text>
</g>
<!-- :android:feature:spotify&#45;&gt;:domain -->
<g id="edge4" class="edge">
<title>:android:feature:spotify&#45;&gt;:domain</title>
<path fill="none" stroke="black" stroke-dasharray="1,5" d="M761.98,-566C493.78,-566 20.68,-566 20.68,-566 20.68,-566 20.68,-180.12 20.68,-180.12"/>
<polygon fill="black" stroke="black" points="24.18,-180.12 20.68,-170.12 17.18,-180.12 24.18,-180.12"/>
</g>
<!-- :strings -->
<g id="node6" class="node">
<title>:strings</title>
<ellipse fill="#b59aff" stroke="black" cx="1270.1" cy="-18" rx="46.29" ry="18"/>
<text text-anchor="middle" x="1270.1" y="-14.3" font-family="Times,serif" font-size="14.00">:strings</text>
</g>
<!-- :android:feature:spotify&#45;&gt;:strings -->
<g id="edge5" class="edge">
<title>:android:feature:spotify&#45;&gt;:strings</title>
<path fill="none" stroke="black" stroke-dasharray="1,5" d="M1122.43,-566C1202.55,-566 1279.09,-566 1279.09,-566 1279.09,-566 1279.09,-45.92 1279.09,-45.92"/>
<polygon fill="black" stroke="black" points="1282.59,-45.92 1279.09,-35.92 1275.59,-45.92 1282.59,-45.92"/>
</g>
<!-- :ui:test:screenshot -->
<g id="node7" class="node">
<title>:ui:test:screenshot</title>
<ellipse fill="#9affb5" stroke="black" cx="1145.1" cy="-292" rx="96.68" ry="18"/>
<text text-anchor="middle" x="1145.1" y="-288.3" font-family="Times,serif" font-size="14.00">:ui:test:screenshot</text>
</g>
<!-- :android:feature:spotify&#45;&gt;:ui:test:screenshot -->
<g id="edge6" class="edge">
<title>:android:feature:spotify&#45;&gt;:ui:test:screenshot</title>
<path fill="none" stroke="#ff9ab1" stroke-dasharray="1,5" d="M1097.48,-547.6C1097.48,-547.6 1097.48,-317.88 1097.48,-317.88"/>
<polygon fill="#ff9ab1" stroke="#ff9ab1" points="1100.98,-317.88 1097.48,-307.88 1093.98,-317.88 1100.98,-317.88"/>
</g>
<!-- :ui:core&#45;&gt;:strings -->
<g id="edge7" class="edge">
<title>:ui:core&#45;&gt;:strings</title>
<path fill="none" stroke="black" d="M1190.82,-155C1212.17,-155 1232.94,-155 1232.94,-155 1232.94,-155 1232.94,-38.75 1232.94,-38.75"/>
<polygon fill="black" stroke="black" points="1236.44,-38.75 1232.94,-28.75 1229.44,-38.75 1236.44,-38.75"/>
</g>
<!-- :ui:common&#45;&gt;:core:models -->
<g id="edge10" class="edge">
<title>:ui:common&#45;&gt;:core:models</title>
<path fill="none" stroke="black" d="M702.34,-412.89C702.34,-336.9 702.34,-18 702.34,-18 702.34,-18 446.97,-18 446.97,-18"/>
<polygon fill="black" stroke="black" points="446.97,-14.5 436.97,-18 446.97,-21.5 446.97,-14.5"/>
</g>
<!-- :ui:common&#45;&gt;:ui:core -->
<g id="edge17" class="edge">
<title>:ui:common&#45;&gt;:ui:core</title>
<path fill="none" stroke="red" d="M711.55,-414.18C711.55,-355.95 711.55,-146 711.55,-146 711.55,-146 1095.47,-146 1095.47,-146"/>
<polygon fill="red" stroke="red" points="1095.47,-149.5 1105.47,-146 1095.47,-142.5 1095.47,-149.5"/>
</g>
<!-- :ui:common&#45;&gt;:domain -->
<g id="edge15" class="edge">
<title>:ui:common&#45;&gt;:domain</title>
<path fill="none" stroke="black" stroke-dasharray="1,5" d="M619.51,-439C466.97,-439 41.37,-439 41.37,-439 41.37,-439 41.37,-183.2 41.37,-183.2"/>
<polygon fill="black" stroke="black" points="44.87,-183.2 41.37,-173.2 37.87,-183.2 44.87,-183.2"/>
</g>
<!-- :ui:common&#45;&gt;:strings -->
<g id="edge16" class="edge">
<title>:ui:common&#45;&gt;:strings</title>
<path fill="none" stroke="black" stroke-dasharray="1,5" d="M706.94,-413.36C706.94,-339.59 706.94,-30 706.94,-30 706.94,-30 1225.29,-30 1225.29,-30"/>
<polygon fill="black" stroke="black" points="1225.29,-33.5 1235.29,-30 1225.29,-26.5 1225.29,-33.5"/>
</g>
<!-- :ui:common&#45;&gt;:ui:test:screenshot -->
<g id="edge9" class="edge">
<title>:ui:common&#45;&gt;:ui:test:screenshot</title>
<path fill="none" stroke="#ff9ab1" d="M737.77,-429C850.91,-429 1072.87,-429 1072.87,-429 1072.87,-429 1072.87,-314.16 1072.87,-314.16"/>
<polygon fill="#ff9ab1" stroke="#ff9ab1" points="1076.37,-314.16 1072.87,-304.16 1069.37,-314.16 1076.37,-314.16"/>
</g>
<!-- :ui:test:image -->
<g id="node8" class="node">
<title>:ui:test:image</title>
<ellipse fill="#9affb5" stroke="black" cx="955.1" cy="-292" rx="74.99" ry="18"/>
<text text-anchor="middle" x="955.1" y="-288.3" font-family="Times,serif" font-size="14.00">:ui:test:image</text>
</g>
<!-- :ui:common&#45;&gt;:ui:test:image -->
<g id="edge8" class="edge">
<title>:ui:common&#45;&gt;:ui:test:image</title>
<path fill="none" stroke="#ff9ab1" d="M729.15,-420C811.39,-420 955.1,-420 955.1,-420 955.1,-420 955.1,-320.07 955.1,-320.07"/>
<polygon fill="#ff9ab1" stroke="#ff9ab1" points="958.6,-320.07 955.1,-310.07 951.6,-320.07 958.6,-320.07"/>
</g>
<!-- :data:coverart -->
<g id="node9" class="node">
<title>:data:coverart</title>
<ellipse fill="#b59aff" stroke="black" cx="138.1" cy="-292" rx="76.09" ry="18"/>
<text text-anchor="middle" x="138.1" y="-288.3" font-family="Times,serif" font-size="14.00">:data:coverart</text>
</g>
<!-- :ui:common&#45;&gt;:data:coverart -->
<g id="edge11" class="edge">
<title>:ui:common&#45;&gt;:data:coverart</title>
<path fill="none" stroke="orange" d="M609.62,-432C467.91,-432 138.1,-432 138.1,-432 138.1,-432 138.1,-320.02 138.1,-320.02"/>
<polygon fill="orange" stroke="orange" points="141.6,-320.02 138.1,-310.02 134.6,-320.02 141.6,-320.02"/>
</g>
<!-- :data:musicbrainz -->
<g id="node10" class="node">
<title>:data:musicbrainz</title>
<ellipse fill="#b59aff" stroke="black" cx="364.1" cy="-292" rx="93.68" ry="18"/>
<text text-anchor="middle" x="364.1" y="-288.3" font-family="Times,serif" font-size="14.00">:data:musicbrainz</text>
</g>
<!-- :ui:common&#45;&gt;:data:musicbrainz -->
<g id="edge12" class="edge">
<title>:ui:common&#45;&gt;:data:musicbrainz</title>
<path fill="none" stroke="orange" d="M622.07,-418C534.31,-418 364.1,-418 364.1,-418 364.1,-418 364.1,-320.05 364.1,-320.05"/>
<polygon fill="orange" stroke="orange" points="367.6,-320.05 364.1,-310.05 360.6,-320.05 367.6,-320.05"/>
</g>
<!-- :core:preferences -->
<g id="node11" class="node">
<title>:core:preferences</title>
<ellipse fill="#b59aff" stroke="black" cx="606.1" cy="-292" rx="91.78" ry="18"/>
<text text-anchor="middle" x="606.1" y="-288.3" font-family="Times,serif" font-size="14.00">:core:preferences</text>
</g>
<!-- :ui:common&#45;&gt;:core:preferences -->
<g id="edge13" class="edge">
<title>:ui:common&#45;&gt;:core:preferences</title>
<path fill="none" stroke="black" stroke-dasharray="1,5" d="M653.24,-411.65C653.24,-411.65 653.24,-317.52 653.24,-317.52"/>
<polygon fill="black" stroke="black" points="656.74,-317.52 653.24,-307.52 649.74,-317.52 656.74,-317.52"/>
</g>
<!-- :core:logging:api -->
<g id="node12" class="node">
<title>:core:logging:api</title>
<ellipse fill="#b59aff" stroke="black" cx="251.1" cy="-155" rx="88.28" ry="18"/>
<text text-anchor="middle" x="251.1" y="-151.3" font-family="Times,serif" font-size="14.00">:core:logging:api</text>
</g>
<!-- :ui:common&#45;&gt;:core:logging:api -->
<g id="edge14" class="edge">
<title>:ui:common&#45;&gt;:core:logging:api</title>
<path fill="none" stroke="black" stroke-dasharray="1,5" d="M610,-425C490.34,-425 242.32,-425 242.32,-425 242.32,-425 242.32,-183.13 242.32,-183.13"/>
<polygon fill="black" stroke="black" points="245.82,-183.13 242.32,-173.13 238.82,-183.13 245.82,-183.13"/>
</g>
<!-- :ui:image -->
<g id="node13" class="node">
<title>:ui:image</title>
<ellipse fill="#b59aff" stroke="black" cx="770.1" cy="-292" rx="53.89" ry="18"/>
<text text-anchor="middle" x="770.1" y="-288.3" font-family="Times,serif" font-size="14.00">:ui:image</text>
</g>
<!-- :ui:common&#45;&gt;:ui:image -->
<g id="edge18" class="edge">
<title>:ui:common&#45;&gt;:ui:image</title>
<path fill="none" stroke="red" d="M726.8,-418.7C726.8,-418.7 726.8,-312.79 726.8,-312.79"/>
<polygon fill="red" stroke="red" points="730.3,-312.79 726.8,-302.79 723.3,-312.79 730.3,-312.79"/>
</g>
<!-- :domain&#45;&gt;:core:models -->
<g id="edge19" class="edge">
<title>:domain&#45;&gt;:core:models</title>
<path fill="none" stroke="black" stroke-dasharray="1,5" d="M48.1,-136.89C48.1,-98.41 48.1,-12 48.1,-12 48.1,-12 291.39,-12 291.39,-12"/>
<polygon fill="black" stroke="black" points="291.39,-15.5 301.39,-12 291.39,-8.5 291.39,-15.5"/>
</g>
<!-- :ui:test:screenshot&#45;&gt;:ui:core -->
<g id="edge20" class="edge">
<title>:ui:test:screenshot&#45;&gt;:ui:core</title>
<path fill="none" stroke="red" d="M1145.1,-273.81C1145.1,-273.81 1145.1,-183.27 1145.1,-183.27"/>
<polygon fill="red" stroke="red" points="1148.6,-183.27 1145.1,-173.27 1141.6,-183.27 1148.6,-183.27"/>
</g>
<!-- :data:coverart&#45;&gt;:core:models -->
<g id="edge22" class="edge">
<title>:data:coverart&#45;&gt;:core:models</title>
<path fill="none" stroke="black" stroke-dasharray="1,5" d="M129.45,-274C129.45,-213.91 129.45,-24 129.45,-24 129.45,-24 291.53,-24 291.53,-24"/>
<polygon fill="black" stroke="black" points="291.53,-27.5 301.53,-24 291.53,-20.5 291.53,-27.5"/>
</g>
<!-- :data:coverart&#45;&gt;:domain -->
<g id="edge23" class="edge">
<title>:data:coverart&#45;&gt;:domain</title>
<path fill="none" stroke="black" stroke-dasharray="1,5" d="M79.12,-280.32C79.12,-280.32 79.12,-179.07 79.12,-179.07"/>
<polygon fill="black" stroke="black" points="82.62,-179.07 79.12,-169.07 75.62,-179.07 82.62,-179.07"/>
</g>
<!-- :data:coverart&#45;&gt;:core:logging:api -->
<g id="edge21" class="edge">
<title>:data:coverart&#45;&gt;:core:logging:api</title>
<path fill="none" stroke="black" stroke-dasharray="1,5" d="M188.42,-278.36C188.42,-278.36 188.42,-177.78 188.42,-177.78"/>
<polygon fill="black" stroke="black" points="191.92,-177.78 188.42,-167.78 184.92,-177.78 191.92,-177.78"/>
</g>
<!-- :data:musicbrainz&#45;&gt;:core:models -->
<g id="edge25" class="edge">
<title>:data:musicbrainz&#45;&gt;:core:models</title>
<path fill="none" stroke="black" stroke-dasharray="1,5" d="M388.06,-274.44C388.06,-274.44 388.06,-45.41 388.06,-45.41"/>
<polygon fill="black" stroke="black" points="391.56,-45.41 388.06,-35.41 384.56,-45.41 391.56,-45.41"/>
</g>
<!-- :data:musicbrainz&#45;&gt;:core:logging:api -->
<g id="edge24" class="edge">
<title>:data:musicbrainz&#45;&gt;:core:logging:api</title>
<path fill="none" stroke="black" stroke-dasharray="1,5" d="M305,-277.85C305,-277.85 305,-179.27 305,-179.27"/>
<polygon fill="black" stroke="black" points="308.5,-179.27 305,-169.27 301.5,-179.27 308.5,-179.27"/>
</g>
<!-- :core:preferences&#45;&gt;:core:models -->
<g id="edge27" class="edge">
<title>:core:preferences&#45;&gt;:core:models</title>
<path fill="none" stroke="black" stroke-dasharray="1,5" d="M690.99,-285.11C690.99,-243.16 690.99,-24 690.99,-24 690.99,-24 443.03,-24 443.03,-24"/>
<polygon fill="black" stroke="black" points="443.03,-20.5 433.03,-24 443.03,-27.5 443.03,-20.5"/>
</g>
<!-- :core:coroutines -->
<g id="node14" class="node">
<title>:core:coroutines</title>
<ellipse fill="#b59aff" stroke="black" cx="599.1" cy="-155" rx="85.29" ry="18"/>
<text text-anchor="middle" x="599.1" y="-151.3" font-family="Times,serif" font-size="14.00">:core:coroutines</text>
</g>
<!-- :core:preferences&#45;&gt;:core:coroutines -->
<g id="edge26" class="edge">
<title>:core:preferences&#45;&gt;:core:coroutines</title>
<path fill="none" stroke="black" stroke-dasharray="1,5" d="M599.35,-273.81C599.35,-273.81 599.35,-183.27 599.35,-183.27"/>
<polygon fill="black" stroke="black" points="602.85,-183.27 599.35,-173.27 595.85,-183.27 602.85,-183.27"/>
</g>
<!-- :ui:image&#45;&gt;:core:models -->
<g id="edge28" class="edge">
<title>:ui:image&#45;&gt;:core:models</title>
<path fill="none" stroke="black" stroke-dasharray="1,5" d="M752.11,-274.91C752.11,-214.11 752.11,-12 752.11,-12 752.11,-12 442.85,-12 442.85,-12"/>
<polygon fill="black" stroke="black" points="442.85,-8.5 432.85,-12 442.85,-15.5 442.85,-8.5"/>
</g>
<!-- :ui:image&#45;&gt;:ui:core -->
<g id="edge29" class="edge">
<title>:ui:image&#45;&gt;:ui:core</title>
<path fill="none" stroke="red" d="M788.08,-274.93C788.08,-238.2 788.08,-155 788.08,-155 788.08,-155 1089.52,-155 1089.52,-155"/>
<polygon fill="red" stroke="red" points="1089.52,-158.5 1099.52,-155 1089.52,-151.5 1089.52,-158.5"/>
</g>
</g>
</svg>
