<?xml version="1.0" encoding="UTF-8" standalone="no"?>
<!DOCTYPE svg PUBLIC "-//W3C//DTD SVG 1.1//EN"
 "http://www.w3.org/Graphics/SVG/1.1/DTD/svg11.dtd">
<!-- Generated by graphviz version 2.43.0 (0)
 -->
<!-- Title: %3 Pages: 1 -->
<svg width="960pt" height="940pt"
 viewBox="0.00 0.00 959.98 940.00" xmlns="http://www.w3.org/2000/svg" xmlns:xlink="http://www.w3.org/1999/xlink">
<g id="graph0" class="graph" transform="scale(1 1) rotate(0) translate(4 936)">
<title>%3</title>
<polygon fill="white" stroke="transparent" points="-4,4 -4,-936 955.98,-936 955.98,4 -4,4"/>
<text text-anchor="middle" x="475.99" y="-904" font-family="Times,serif" font-size="30.00">Dependencies</text>
<text text-anchor="middle" x="475.99" y="-871" font-family="Times,serif" font-size="30.00"> </text>
<!-- :android:feature:spotify -->
<g id="node1" class="node">
<title>:android:feature:spotify</title>
<polygon fill="#9affb5" stroke="black" points="658.64,-858 473.64,-858 473.64,-822 658.64,-822 658.64,-858"/>
<text text-anchor="middle" x="566.14" y="-836.3" font-family="Times,serif" font-size="14.00">:android:feature:spotify</text>
</g>
<!-- :ui:common -->
<g id="node2" class="node">
<title>:ui:common</title>
<ellipse fill="#b59aff" stroke="black" cx="566.14" cy="-703" rx="64.19" ry="18"/>
<text text-anchor="middle" x="566.14" y="-699.3" font-family="Times,serif" font-size="14.00">:ui:common</text>
</g>
<!-- :android:feature:spotify&#45;&gt;:ui:common -->
<g id="edge1" class="edge">
<title>:android:feature:spotify&#45;&gt;:ui:common</title>
<path fill="none" stroke="black" stroke-dasharray="1,5" d="M566.14,-821.81C566.14,-821.81 566.14,-731.27 566.14,-731.27"/>
<polygon fill="black" stroke="black" points="569.64,-731.27 566.14,-721.27 562.64,-731.27 569.64,-731.27"/>
</g>
<!-- :shared:domain -->
<g id="node3" class="node">
<title>:shared:domain</title>
<ellipse fill="#b59aff" stroke="black" cx="320.14" cy="-18" rx="82.59" ry="18"/>
<text text-anchor="middle" x="320.14" y="-14.3" font-family="Times,serif" font-size="14.00">:shared:domain</text>
</g>
<!-- :android:feature:spotify&#45;&gt;:shared:domain -->
<g id="edge2" class="edge">
<title>:android:feature:spotify&#45;&gt;:shared:domain</title>
<path fill="none" stroke="black" stroke-dasharray="1,5" d="M473.36,-840C463.37,-840 456.74,-840 456.74,-840 456.74,-840 456.74,-24 456.74,-24 456.74,-24 408.02,-24 408.02,-24"/>
<polygon fill="black" stroke="black" points="408.02,-20.5 398.02,-24 408.02,-27.5 408.02,-20.5"/>
</g>
<!-- :ui:test:screenshot -->
<g id="node4" class="node">
<title>:ui:test:screenshot</title>
<ellipse fill="#9affb5" stroke="black" cx="855.14" cy="-566" rx="96.68" ry="18"/>
<text text-anchor="middle" x="855.14" y="-562.3" font-family="Times,serif" font-size="14.00">:ui:test:screenshot</text>
</g>
<!-- :android:feature:spotify&#45;&gt;:ui:test:screenshot -->
<g id="edge3" class="edge">
<title>:android:feature:spotify&#45;&gt;:ui:test:screenshot</title>
<path fill="none" stroke="#ff9ab1" stroke-dasharray="1,5" d="M659.07,-840C753.96,-840 887.42,-840 887.42,-840 887.42,-840 887.42,-593.14 887.42,-593.14"/>
<polygon fill="#ff9ab1" stroke="#ff9ab1" points="890.92,-593.14 887.42,-583.14 883.92,-593.14 890.92,-593.14"/>
</g>
<!-- :ui:common&#45;&gt;:shared:domain -->
<g id="edge7" class="edge">
<title>:ui:common&#45;&gt;:shared:domain</title>
<path fill="none" stroke="black" d="M505.2,-697C481.19,-697 459.24,-697 459.24,-697 459.24,-697 459.24,-18 459.24,-18 459.24,-18 413.07,-18 413.07,-18"/>
<polygon fill="black" stroke="black" points="413.07,-14.5 403.07,-18 413.07,-21.5 413.07,-14.5"/>
</g>
<!-- :ui:common&#45;&gt;:ui:test:screenshot -->
<g id="edge5" class="edge">
<title>:ui:common&#45;&gt;:ui:test:screenshot</title>
<path fill="none" stroke="#ff9ab1" stroke-dasharray="1,5" d="M630.59,-703C706.64,-703 822.86,-703 822.86,-703 822.86,-703 822.86,-593.07 822.86,-593.07"/>
<polygon fill="#ff9ab1" stroke="#ff9ab1" points="826.36,-593.07 822.86,-583.07 819.36,-593.07 826.36,-593.07"/>
</g>
<!-- :test&#45;data -->
<g id="node5" class="node">
<title>:test&#45;data</title>
<ellipse fill="#b59aff" stroke="black" cx="297.14" cy="-566" rx="55.49" ry="18"/>
<text text-anchor="middle" x="297.14" y="-562.3" font-family="Times,serif" font-size="14.00">:test&#45;data</text>
</g>
<!-- :ui:common&#45;&gt;:test&#45;data -->
<g id="edge4" class="edge">
<title>:ui:common&#45;&gt;:test&#45;data</title>
<path fill="none" stroke="#ff9ab1" stroke-dasharray="1,5" d="M529.28,-688.17C529.28,-655.06 529.28,-578 529.28,-578 529.28,-578 348.38,-578 348.38,-578"/>
<polygon fill="#ff9ab1" stroke="#ff9ab1" points="348.38,-574.5 338.38,-578 348.38,-581.5 348.38,-574.5"/>
</g>
<!-- :core:coroutines -->
<g id="node6" class="node">
<title>:core:coroutines</title>
<ellipse fill="#b59aff" stroke="black" cx="85.14" cy="-155" rx="85.29" ry="18"/>
<text text-anchor="middle" x="85.14" y="-151.3" font-family="Times,serif" font-size="14.00">:core:coroutines</text>
</g>
<!-- :ui:common&#45;&gt;:core:coroutines -->
<g id="edge6" class="edge">
<title>:ui:common&#45;&gt;:core:coroutines</title>
<path fill="none" stroke="#ff9ab1" stroke-dasharray="1,5" d="M505.25,-709C364.48,-709 28.46,-709 28.46,-709 28.46,-709 28.46,-178.69 28.46,-178.69"/>
<polygon fill="#ff9ab1" stroke="#ff9ab1" points="31.96,-178.69 28.46,-168.69 24.96,-178.69 31.96,-178.69"/>
</g>
<!-- :ui:core -->
<g id="node7" class="node">
<title>:ui:core</title>
<ellipse fill="#b59aff" stroke="black" cx="730.14" cy="-429" rx="45.49" ry="18"/>
<text text-anchor="middle" x="730.14" y="-425.3" font-family="Times,serif" font-size="14.00">:ui:core</text>
</g>
<!-- :ui:common&#45;&gt;:ui:core -->
<g id="edge8" class="edge">
<title>:ui:common&#45;&gt;:ui:core</title>
<path fill="none" stroke="black" d="M590.88,-686.32C590.88,-626.04 590.88,-423 590.88,-423 590.88,-423 677.22,-423 677.22,-423"/>
<polygon fill="black" stroke="black" points="677.22,-426.5 687.22,-423 677.22,-419.5 677.22,-426.5"/>
</g>
<!-- :core:logging:api -->
<g id="node8" class="node">
<title>:core:logging:api</title>
<ellipse fill="#b59aff" stroke="black" cx="555.14" cy="-18" rx="88.28" ry="18"/>
<text text-anchor="middle" x="555.14" y="-14.3" font-family="Times,serif" font-size="14.00">:core:logging:api</text>
</g>
<!-- :ui:common&#45;&gt;:core:logging:api -->
<g id="edge9" class="edge">
<title>:ui:common&#45;&gt;:core:logging:api</title>
<path fill="none" stroke="black" stroke-dasharray="1,5" d="M556.77,-685.03C556.77,-685.03 556.77,-46.1 556.77,-46.1"/>
<polygon fill="black" stroke="black" points="560.27,-46.1 556.77,-36.1 553.27,-46.1 560.27,-46.1"/>
</g>
<!-- :ui:image -->
<g id="node9" class="node">
<title>:ui:image</title>
<ellipse fill="#b59aff" stroke="black" cx="648.14" cy="-566" rx="53.89" ry="18"/>
<text text-anchor="middle" x="648.14" y="-562.3" font-family="Times,serif" font-size="14.00">:ui:image</text>
</g>
<!-- :ui:common&#45;&gt;:ui:image -->
<g id="edge10" class="edge">
<title>:ui:common&#45;&gt;:ui:image</title>
<path fill="none" stroke="black" stroke-dasharray="1,5" d="M612.34,-690.36C612.34,-690.36 612.34,-589.83 612.34,-589.83"/>
<polygon fill="black" stroke="black" points="615.84,-589.83 612.34,-579.83 608.84,-589.83 615.84,-589.83"/>
</g>
<!-- :ui:test:screenshot&#45;&gt;:ui:core -->
<g id="edge11" class="edge">
<title>:ui:test:screenshot&#45;&gt;:ui:core</title>
<path fill="none" stroke="black" stroke-dasharray="1,5" d="M766.97,-558.24C766.97,-558.24 766.97,-449.58 766.97,-449.58"/>
<polygon fill="black" stroke="black" points="770.47,-449.58 766.97,-439.58 763.47,-449.58 770.47,-449.58"/>
</g>
<!-- :test:image -->
<g id="node10" class="node">
<title>:test:image</title>
<ellipse fill="#9affb5" stroke="black" cx="857.14" cy="-429" rx="63.09" ry="18"/>
<text text-anchor="middle" x="857.14" y="-425.3" font-family="Times,serif" font-size="14.00">:test:image</text>
</g>
<!-- :ui:test:screenshot&#45;&gt;:test:image -->
<g id="edge12" class="edge">
<title>:ui:test:screenshot&#45;&gt;:test:image</title>
<path fill="none" stroke="black" stroke-dasharray="1,5" d="M857.14,-547.81C857.14,-547.81 857.14,-457.27 857.14,-457.27"/>
<polygon fill="black" stroke="black" points="860.64,-457.27 857.14,-447.27 853.64,-457.27 860.64,-457.27"/>
</g>
<!-- :test&#45;data&#45;&gt;:shared:domain -->
<g id="edge13" class="edge">
<title>:test&#45;data&#45;&gt;:shared:domain</title>
<path fill="none" stroke="black" stroke-dasharray="1,5" d="M349.45,-560C395.15,-560 454.24,-560 454.24,-560 454.24,-560 454.24,-30 454.24,-30 454.24,-30 391.7,-30 391.7,-30"/>
<polygon fill="black" stroke="black" points="391.7,-26.5 381.7,-30 391.7,-33.5 391.7,-26.5"/>
</g>
<!-- :test&#45;data&#45;&gt;:core:coroutines -->
<g id="edge14" class="edge">
<title>:test&#45;data&#45;&gt;:core:coroutines</title>
<path fill="none" stroke="black" stroke-dasharray="1,5" d="M245.02,-572C174.37,-572 56.92,-572 56.92,-572 56.92,-572 56.92,-182.12 56.92,-182.12"/>
<polygon fill="black" stroke="black" points="60.42,-182.12 56.92,-172.12 53.42,-182.12 60.42,-182.12"/>
</g>
<!-- :data:database -->
<g id="node11" class="node">
<title>:data:database</title>
<ellipse fill="#b59aff" stroke="black" cx="193.14" cy="-292" rx="79.09" ry="18"/>
<text text-anchor="middle" x="193.14" y="-288.3" font-family="Times,serif" font-size="14.00">:data:database</text>
</g>
<!-- :test&#45;data&#45;&gt;:data:database -->
<g id="edge15" class="edge">
<title>:test&#45;data&#45;&gt;:data:database</title>
<path fill="none" stroke="black" stroke-dasharray="1,5" d="M244.78,-560C208.79,-560 167.47,-560 167.47,-560 167.47,-560 167.47,-319.17 167.47,-319.17"/>
<polygon fill="black" stroke="black" points="170.97,-319.17 167.47,-309.17 163.97,-319.17 170.97,-319.17"/>
</g>
<!-- :data:musicbrainz -->
<g id="node12" class="node">
<title>:data:musicbrainz</title>
<ellipse fill="#b59aff" stroke="black" cx="358.14" cy="-155" rx="93.68" ry="18"/>
<text text-anchor="middle" x="358.14" y="-151.3" font-family="Times,serif" font-size="14.00">:data:musicbrainz</text>
</g>
<!-- :test&#45;data&#45;&gt;:data:musicbrainz -->
<g id="edge16" class="edge">
<title>:test&#45;data&#45;&gt;:data:musicbrainz</title>
<path fill="none" stroke="black" stroke-dasharray="1,5" d="M338.45,-554C371.54,-554 412.46,-554 412.46,-554 412.46,-554 412.46,-179.67 412.46,-179.67"/>
<polygon fill="black" stroke="black" points="415.96,-179.67 412.46,-169.67 408.96,-179.67 415.96,-179.67"/>
</g>
<!-- :data:coverart -->
<g id="node13" class="node">
<title>:data:coverart</title>
<ellipse fill="#b59aff" stroke="black" cx="297.14" cy="-429" rx="76.09" ry="18"/>
<text text-anchor="middle" x="297.14" y="-425.3" font-family="Times,serif" font-size="14.00">:data:coverart</text>
</g>
<!-- :test&#45;data&#45;&gt;:data:coverart -->
<g id="edge17" class="edge">
<title>:test&#45;data&#45;&gt;:data:coverart</title>
<path fill="none" stroke="black" stroke-dasharray="1,5" d="M278.73,-548.93C278.73,-548.93 278.73,-456.72 278.73,-456.72"/>
<polygon fill="black" stroke="black" points="282.23,-456.72 278.73,-446.72 275.23,-456.72 282.23,-456.72"/>
</g>
<!-- :data:spotify -->
<g id="node14" class="node">
<title>:data:spotify</title>
<ellipse fill="#b59aff" stroke="black" cx="653.14" cy="-155" rx="68.79" ry="18"/>
<text text-anchor="middle" x="653.14" y="-151.3" font-family="Times,serif" font-size="14.00">:data:spotify</text>
</g>
<!-- :test&#45;data&#45;&gt;:data:spotify -->
<g id="edge18" class="edge">
<title>:test&#45;data&#45;&gt;:data:spotify</title>
<path fill="none" stroke="black" stroke-dasharray="1,5" d="M352.45,-566C436.72,-566 587.56,-566 587.56,-566 587.56,-566 587.56,-170.81 587.56,-170.81"/>
<polygon fill="black" stroke="black" points="591.06,-170.81 587.56,-160.81 584.06,-170.81 591.06,-170.81"/>
</g>
<!-- :shared:strings -->
<g id="node15" class="node">
<title>:shared:strings</title>
<ellipse fill="#b59aff" stroke="black" cx="741.14" cy="-292" rx="81.49" ry="18"/>
<text text-anchor="middle" x="741.14" y="-288.3" font-family="Times,serif" font-size="14.00">:shared:strings</text>
</g>
<!-- :ui:core&#45;&gt;:shared:strings -->
<g id="edge19" class="edge">
<title>:ui:core&#45;&gt;:shared:strings</title>
<path fill="none" stroke="black" d="M730.14,-410.81C730.14,-410.81 730.14,-320.27 730.14,-320.27"/>
<polygon fill="black" stroke="black" points="733.64,-320.27 730.14,-310.27 726.64,-320.27 733.64,-320.27"/>
</g>
<!-- :ui:image&#45;&gt;:shared:domain -->
<g id="edge20" class="edge">
<title>:ui:image&#45;&gt;:shared:domain</title>
<path fill="none" stroke="black" stroke-dasharray="1,5" d="M597.21,-572C542.02,-572 461.74,-572 461.74,-572 461.74,-572 461.74,-12 461.74,-12 461.74,-12 407.99,-12 407.99,-12"/>
<polygon fill="black" stroke="black" points="407.99,-8.5 397.99,-12 407.99,-15.5 407.99,-8.5"/>
</g>
<!-- :ui:image&#45;&gt;:ui:core -->
<g id="edge21" class="edge">
<title>:ui:image&#45;&gt;:ui:core</title>
<path fill="none" stroke="black" stroke-dasharray="1,5" d="M693.37,-556.15C693.37,-556.15 693.37,-449.89 693.37,-449.89"/>
<polygon fill="black" stroke="black" points="696.87,-449.89 693.37,-439.89 689.87,-449.89 696.87,-449.89"/>
</g>
<!-- :data:database&#45;&gt;:shared:domain -->
<g id="edge22" class="edge">
<title>:data:database&#45;&gt;:shared:domain</title>
<path fill="none" stroke="black" stroke-dasharray="1,5" d="M246.58,-278.41C246.58,-278.41 246.58,-36.39 246.58,-36.39"/>
<polygon fill="black" stroke="black" points="250.08,-36.39 246.58,-26.39 243.08,-36.39 250.08,-36.39"/>
</g>
<!-- :data:database&#45;&gt;:core:coroutines -->
<g id="edge23" class="edge">
<title>:data:database&#45;&gt;:core:coroutines</title>
<path fill="none" stroke="black" stroke-dasharray="1,5" d="M142.07,-278.11C142.07,-278.11 142.07,-178.52 142.07,-178.52"/>
<polygon fill="black" stroke="black" points="145.57,-178.52 142.07,-168.52 138.57,-178.52 145.57,-178.52"/>
</g>
<!-- :data:database&#45;&gt;:data:musicbrainz -->
<g id="edge24" class="edge">
<title>:data:database&#45;&gt;:data:musicbrainz</title>
<path fill="none" stroke="black" stroke-dasharray="1,5" d="M268.49,-286.11C268.49,-286.11 268.49,-170.41 268.49,-170.41"/>
<polygon fill="black" stroke="black" points="271.99,-170.41 268.49,-160.41 264.99,-170.41 271.99,-170.41"/>
</g>
<!-- :data:musicbrainz&#45;&gt;:shared:domain -->
<g id="edge25" class="edge">
<title>:data:musicbrainz&#45;&gt;:shared:domain</title>
<path fill="none" stroke="black" stroke-dasharray="1,5" d="M333.62,-137.37C333.62,-137.37 333.62,-46 333.62,-46"/>
<polygon fill="black" stroke="black" points="337.12,-46 333.62,-36 330.12,-46 337.12,-46"/>
</g>
<!-- :data:musicbrainz&#45;&gt;:core:logging:api -->
<g id="edge26" class="edge">
<title>:data:musicbrainz&#45;&gt;:core:logging:api</title>
<path fill="none" stroke="black" stroke-dasharray="1,5" d="M446.57,-149C467.07,-149 483.03,-149 483.03,-149 483.03,-149 483.03,-38.72 483.03,-38.72"/>
<polygon fill="black" stroke="black" points="486.53,-38.72 483.03,-28.72 479.53,-38.72 486.53,-38.72"/>
</g>
<!-- :data:coverart&#45;&gt;:shared:domain -->
<g id="edge27" class="edge">
<title>:data:coverart&#45;&gt;:shared:domain</title>
<path fill="none" stroke="black" stroke-dasharray="1,5" d="M306.02,-411.08C306.02,-360.96 306.02,-223 306.02,-223 306.02,-223 255.57,-223 255.57,-223 255.57,-223 255.57,-39.31 255.57,-39.31"/>
<polygon fill="black" stroke="black" points="259.07,-39.31 255.57,-29.31 252.07,-39.31 259.07,-39.31"/>
</g>
<!-- :data:coverart&#45;&gt;:test&#45;data -->
<g id="edge30" class="edge">
<title>:data:coverart&#45;&gt;:test&#45;data</title>
<path fill="none" stroke="#ff9ab1" stroke-dasharray="1,5" d="M315.56,-446.63C315.56,-446.63 315.56,-538.87 315.56,-538.87"/>
<polygon fill="#ff9ab1" stroke="#ff9ab1" points="312.06,-538.87 315.56,-548.87 319.06,-538.87 312.06,-538.87"/>
</g>
<!-- :data:coverart&#45;&gt;:core:coroutines -->
<g id="edge29" class="edge">
<title>:data:coverart&#45;&gt;:core:coroutines</title>
<path fill="none" stroke="black" stroke-dasharray="1,5" d="M220.99,-429C160.28,-429 85.39,-429 85.39,-429 85.39,-429 85.39,-183.4 85.39,-183.4"/>
<polygon fill="black" stroke="black" points="88.89,-183.4 85.39,-173.4 81.89,-183.4 88.89,-183.4"/>
</g>
<!-- :data:coverart&#45;&gt;:core:logging:api -->
<g id="edge28" class="edge">
<title>:data:coverart&#45;&gt;:core:logging:api</title>
<path fill="none" stroke="black" stroke-dasharray="1,5" d="M369.02,-435C424.7,-435 492.41,-435 492.41,-435 492.41,-435 492.41,-40.94 492.41,-40.94"/>
<polygon fill="black" stroke="black" points="495.91,-40.94 492.41,-30.94 488.91,-40.94 495.91,-40.94"/>
</g>
<!-- :data:coverart&#45;&gt;:data:database -->
<g id="edge32" class="edge">
<title>:data:coverart&#45;&gt;:data:database</title>
<path fill="none" stroke="#ff9ab1" stroke-dasharray="1,5" d="M246.77,-415.36C246.77,-415.36 246.77,-315.58 246.77,-315.58"/>
<polygon fill="#ff9ab1" stroke="#ff9ab1" points="250.27,-315.58 246.77,-305.58 243.27,-315.58 250.27,-315.58"/>
</g>
<!-- :data:coverart&#45;&gt;:data:musicbrainz -->
<g id="edge31" class="edge">
<title>:data:coverart&#45;&gt;:data:musicbrainz</title>
<path fill="none" stroke="#ff9ab1" stroke-dasharray="1,5" d="M339.6,-413.88C339.6,-413.88 339.6,-182.87 339.6,-182.87"/>
<polygon fill="#ff9ab1" stroke="#ff9ab1" points="343.1,-182.87 339.6,-172.87 336.1,-182.87 343.1,-182.87"/>
</g>
<!-- :data:spotify&#45;&gt;:shared:domain -->
<g id="edge33" class="edge">
<title>:data:spotify&#45;&gt;:shared:domain</title>
<path fill="none" stroke="black" stroke-dasharray="1,5" d="M588.14,-161C533.5,-161 464.25,-161 464.25,-161 464.25,-161 464.25,-5 464.25,-5 464.25,-5 387.51,-5 387.51,-5"/>
<polygon fill="black" stroke="black" points="387.51,-1.5 377.51,-5 387.51,-8.5 387.51,-1.5"/>
</g>
<!-- :data:spotify&#45;&gt;:core:logging:api -->
<g id="edge34" class="edge">
<title>:data:spotify&#45;&gt;:core:logging:api</title>
<path fill="none" stroke="black" stroke-dasharray="1,5" d="M613.89,-140.08C613.89,-140.08 613.89,-41.68 613.89,-41.68"/>
<polygon fill="black" stroke="black" points="617.39,-41.68 613.89,-31.68 610.39,-41.68 617.39,-41.68"/>
</g>
</g>
</svg>
