<?xml version="1.0" encoding="UTF-8" standalone="no"?>
<!DOCTYPE svg PUBLIC "-//W3C//DTD SVG 1.1//EN"
 "http://www.w3.org/Graphics/SVG/1.1/DTD/svg11.dtd">
<!-- Generated by graphviz version 2.43.0 (0)
 -->
<!-- Title: %3 Pages: 1 -->
<svg width="292pt" height="392pt"
 viewBox="0.00 0.00 291.79 392.00" xmlns="http://www.w3.org/2000/svg" xmlns:xlink="http://www.w3.org/1999/xlink">
<g id="graph0" class="graph" transform="scale(1 1) rotate(0) translate(4 388)">
<title>%3</title>
<polygon fill="white" stroke="transparent" points="-4,4 -4,-388 287.79,-388 287.79,4 -4,4"/>
<text text-anchor="middle" x="141.89" y="-356" font-family="Times,serif" font-size="30.00">Dependencies</text>
<text text-anchor="middle" x="141.89" y="-323" font-family="Times,serif" font-size="30.00"> </text>
<!-- :ui:image -->
<g id="node1" class="node">
<title>:ui:image</title>
<ellipse fill="#b59aff" stroke="black" cx="135.54" cy="-292" rx="53.89" ry="18"/>
<text text-anchor="middle" x="135.54" y="-288.3" font-family="Times,serif" font-size="14.00">:ui:image</text>
</g>
<!-- :core:models -->
<g id="node2" class="node">
<title>:core:models</title>
<ellipse fill="#b59aff" stroke="black" cx="69.54" cy="-155" rx="69.59" ry="18"/>
<text text-anchor="middle" x="69.54" y="-151.3" font-family="Times,serif" font-size="14.00">:core:models</text>
</g>
<!-- :ui:image&#45;&gt;:core:models -->
<g id="edge1" class="edge">
<title>:ui:image&#45;&gt;:core:models</title>
<path fill="none" stroke="black" stroke-dasharray="1,5" d="M110.34,-276.02C110.34,-276.02 110.34,-179.64 110.34,-179.64"/>
<polygon fill="black" stroke="black" points="113.84,-179.63 110.34,-169.64 106.84,-179.64 113.84,-179.63"/>
</g>
<!-- :ui:core -->
<g id="node3" class="node">
<title>:ui:core</title>
<ellipse fill="#b59aff" stroke="black" cx="202.54" cy="-155" rx="45.49" ry="18"/>
<text text-anchor="middle" x="202.54" y="-151.3" font-family="Times,serif" font-size="14.00">:ui:core</text>
</g>
<!-- :ui:image&#45;&gt;:ui:core -->
<g id="edge2" class="edge">
<title>:ui:image&#45;&gt;:ui:core</title>
<path fill="none" stroke="black" stroke-dasharray="1,5" d="M173.27,-279.11C173.27,-279.11 173.27,-179.18 173.27,-179.18"/>
<polygon fill="black" stroke="black" points="176.77,-179.18 173.27,-169.18 169.77,-179.18 176.77,-179.18"/>
</g>
<!-- :shared:strings -->
<g id="node4" class="node">
<title>:shared:strings</title>
<ellipse fill="#b59aff" stroke="black" cx="202.54" cy="-18" rx="81.49" ry="18"/>
<text text-anchor="middle" x="202.54" y="-14.3" font-family="Times,serif" font-size="14.00">:shared:strings</text>
</g>
<!-- :ui:core&#45;&gt;:shared:strings -->
<g id="edge3" class="edge">
<title>:ui:core&#45;&gt;:shared:strings</title>
<path fill="none" stroke="black" d="M202.54,-136.81C202.54,-136.81 202.54,-46.27 202.54,-46.27"/>
<polygon fill="black" stroke="black" points="206.04,-46.27 202.54,-36.27 199.04,-46.27 206.04,-46.27"/>
</g>
</g>
</svg>
