<?xml version="1.0" encoding="UTF-8" standalone="no"?>
<!DOCTYPE svg PUBLIC "-//W3C//DTD SVG 1.1//EN"
 "http://www.w3.org/Graphics/SVG/1.1/DTD/svg11.dtd">
<!-- Generated by graphviz version 2.43.0 (0)
 -->
<!-- Title: %3 Pages: 1 -->
<svg width="453pt" height="388pt"
 viewBox="0.00 0.00 453.47 388.00" xmlns="http://www.w3.org/2000/svg" xmlns:xlink="http://www.w3.org/1999/xlink">
<g id="graph0" class="graph" transform="scale(1 1) rotate(0) translate(4 384)">
<title>%3</title>
<polygon fill="white" stroke="transparent" points="-4,4 -4,-384 449.47,-384 449.47,4 -4,4"/>
<text text-anchor="middle" x="222.73" y="-352" font-family="Times,serif" font-size="30.00">Dependents</text>
<text text-anchor="middle" x="222.73" y="-319" font-family="Times,serif" font-size="30.00"> </text>
<!-- :ui:image -->
<g id="node1" class="node">
<title>:ui:image</title>
<ellipse fill="#b59aff" stroke="black" cx="53.95" cy="-153" rx="53.89" ry="18"/>
<text text-anchor="middle" x="53.95" y="-149.3" font-family="Times,serif" font-size="14.00">:ui:image</text>
</g>
<!-- :shared -->
<g id="node2" class="node">
<title>:shared</title>
<ellipse fill="#b59aff" stroke="black" cx="327.18" cy="-288" rx="45.49" ry="18"/>
<text text-anchor="middle" x="327.18" y="-284.3" font-family="Times,serif" font-size="14.00">:shared</text>
</g>
<!-- :shared&#45;&gt;:ui:image -->
<g id="edge1" class="edge">
<title>:shared&#45;&gt;:ui:image</title>
<path fill="none" stroke="black" stroke-dasharray="1,5" d="M281.53,-288C199.35,-288 35,-288 35,-288 35,-288 35,-180.1 35,-180.1"/>
<polygon fill="black" stroke="black" points="38.5,-180.1 35,-170.1 31.5,-180.1 38.5,-180.1"/>
</g>
<!-- :ui:common -->
<g id="node3" class="node">
<title>:ui:common</title>
<ellipse fill="#b59aff" stroke="black" cx="327.18" cy="-234" rx="64.19" ry="18"/>
<text text-anchor="middle" x="327.18" y="-230.3" font-family="Times,serif" font-size="14.00">:ui:common</text>
</g>
<!-- :ui:common&#45;&gt;:ui:image -->
<g id="edge2" class="edge">
<title>:ui:common&#45;&gt;:ui:image</title>
<path fill="none" stroke="black" stroke-dasharray="1,5" d="M262.53,-234C186.64,-234 71,-234 71,-234 71,-234 71,-180.18 71,-180.18"/>
<polygon fill="black" stroke="black" points="74.5,-180.18 71,-170.18 67.5,-180.18 74.5,-180.18"/>
</g>
<!-- :shared:feature:images -->
<g id="node4" class="node">
<title>:shared:feature:images</title>
<ellipse fill="#b59aff" stroke="black" cx="327.18" cy="-180" rx="118.08" ry="18"/>
<text text-anchor="middle" x="327.18" y="-176.3" font-family="Times,serif" font-size="14.00">:shared:feature:images</text>
</g>
<!-- :shared:feature:images&#45;&gt;:ui:image -->
<g id="edge3" class="edge">
<title>:shared:feature:images&#45;&gt;:ui:image</title>
<path fill="none" stroke="black" stroke-dasharray="1,5" d="M248.88,-166.5C248.88,-166.5 99.87,-166.5 99.87,-166.5"/>
<polygon fill="black" stroke="black" points="99.87,-163 89.87,-166.5 99.87,-170 99.87,-163"/>
</g>
<!-- :shared:feature:details -->
<g id="node5" class="node">
<title>:shared:feature:details</title>
<ellipse fill="#b59aff" stroke="black" cx="327.18" cy="-126" rx="116.18" ry="18"/>
<text text-anchor="middle" x="327.18" y="-122.3" font-family="Times,serif" font-size="14.00">:shared:feature:details</text>
</g>
<!-- :shared:feature:details&#45;&gt;:ui:image -->
<g id="edge4" class="edge">
<title>:shared:feature:details&#45;&gt;:ui:image</title>
<path fill="none" stroke="black" stroke-dasharray="1,5" d="M249.98,-139.5C249.98,-139.5 99.8,-139.5 99.8,-139.5"/>
<polygon fill="black" stroke="black" points="99.8,-136 89.8,-139.5 99.8,-143 99.8,-136"/>
</g>
<!-- :shared:feature:history -->
<g id="node6" class="node">
<title>:shared:feature:history</title>
<ellipse fill="#b59aff" stroke="black" cx="327.18" cy="-72" rx="117.78" ry="18"/>
<text text-anchor="middle" x="327.18" y="-68.3" font-family="Times,serif" font-size="14.00">:shared:feature:history</text>
</g>
<!-- :shared:feature:history&#45;&gt;:ui:image -->
<g id="edge5" class="edge">
<title>:shared:feature:history&#45;&gt;:ui:image</title>
<path fill="none" stroke="black" stroke-dasharray="1,5" d="M209.21,-72C141.98,-72 71,-72 71,-72 71,-72 71,-125.82 71,-125.82"/>
<polygon fill="black" stroke="black" points="67.5,-125.82 71,-135.82 74.5,-125.82 67.5,-125.82"/>
</g>
<!-- :shared:feature:graph -->
<g id="node7" class="node">
<title>:shared:feature:graph</title>
<ellipse fill="#b59aff" stroke="black" cx="327.18" cy="-18" rx="112.38" ry="18"/>
<text text-anchor="middle" x="327.18" y="-14.3" font-family="Times,serif" font-size="14.00">:shared:feature:graph</text>
</g>
<!-- :shared:feature:graph&#45;&gt;:ui:image -->
<g id="edge6" class="edge">
<title>:shared:feature:graph&#45;&gt;:ui:image</title>
<path fill="none" stroke="black" stroke-dasharray="1,5" d="M214.63,-18C132.33,-18 35,-18 35,-18 35,-18 35,-125.9 35,-125.9"/>
<polygon fill="black" stroke="black" points="31.5,-125.9 35,-135.9 38.5,-125.9 31.5,-125.9"/>
</g>
</g>
</svg>
