<?xml version="1.0" encoding="UTF-8" standalone="no"?>
<!DOCTYPE svg PUBLIC "-//W3C//DTD SVG 1.1//EN"
 "http://www.w3.org/Graphics/SVG/1.1/DTD/svg11.dtd">
<!-- Generated by graphviz version 2.43.0 (0)
 -->
<!-- Title: %3 Pages: 1 -->
<svg width="445pt" height="442pt"
 viewBox="0.00 0.00 445.48 442.00" xmlns="http://www.w3.org/2000/svg" xmlns:xlink="http://www.w3.org/1999/xlink">
<g id="graph0" class="graph" transform="scale(1 1) rotate(0) translate(4 438)">
<title>%3</title>
<polygon fill="white" stroke="transparent" points="-4,4 -4,-438 441.48,-438 441.48,4 -4,4"/>
<text text-anchor="middle" x="218.74" y="-406" font-family="Times,serif" font-size="30.00">Dependents</text>
<text text-anchor="middle" x="218.74" y="-373" font-family="Times,serif" font-size="30.00"> </text>
<!-- :ui:image -->
<g id="node1" class="node">
<title>:ui:image</title>
<polygon fill="#b59aff" stroke="black" points="83,-198 0,-198 0,-162 83,-162 83,-198"/>
<text text-anchor="middle" x="41.5" y="-176.3" font-family="Times,serif" font-size="14.00">:ui:image</text>
</g>
<!-- :shared -->
<g id="node2" class="node">
<title>:shared</title>
<ellipse fill="#b59aff" stroke="black" cx="310.74" cy="-342" rx="45.49" ry="18"/>
<text text-anchor="middle" x="310.74" y="-338.3" font-family="Times,serif" font-size="14.00">:shared</text>
</g>
<!-- :shared&#45;&gt;:ui:image -->
<g id="edge1" class="edge">
<title>:shared&#45;&gt;:ui:image</title>
<path fill="none" stroke="black" stroke-dasharray="1,5" d="M265.15,-342C184.94,-342 27,-342 27,-342 27,-342 27,-208.27 27,-208.27"/>
<polygon fill="black" stroke="black" points="30.5,-208.27 27,-198.27 23.5,-208.27 30.5,-208.27"/>
</g>
<!-- :ui:common -->
<g id="node3" class="node">
<title>:ui:common</title>
<ellipse fill="#b59aff" stroke="black" cx="310.74" cy="-288" rx="64.19" ry="18"/>
<text text-anchor="middle" x="310.74" y="-284.3" font-family="Times,serif" font-size="14.00">:ui:common</text>
</g>
<!-- :ui:common&#45;&gt;:ui:image -->
<g id="edge2" class="edge">
<title>:ui:common&#45;&gt;:ui:image</title>
<path fill="none" stroke="black" stroke-dasharray="1,5" d="M246.21,-288C170.44,-288 55,-288 55,-288 55,-288 55,-208.32 55,-208.32"/>
<polygon fill="black" stroke="black" points="58.5,-208.32 55,-198.32 51.5,-208.32 58.5,-208.32"/>
</g>
<!-- :shared:feature:database -->
<g id="node4" class="node">
<title>:shared:feature:database</title>
<ellipse fill="#b59aff" stroke="black" cx="310.74" cy="-234" rx="126.98" ry="18"/>
<text text-anchor="middle" x="310.74" y="-230.3" font-family="Times,serif" font-size="14.00">:shared:feature:database</text>
</g>
<!-- :shared:feature:database&#45;&gt;:ui:image -->
<g id="edge3" class="edge">
<title>:shared:feature:database&#45;&gt;:ui:image</title>
<path fill="none" stroke="black" stroke-dasharray="1,5" d="M188,-229.22C188,-217.08 188,-186 188,-186 188,-186 93.09,-186 93.09,-186"/>
<polygon fill="black" stroke="black" points="93.09,-182.5 83.09,-186 93.09,-189.5 93.09,-182.5"/>
</g>
<!-- :shared:feature:images -->
<g id="node5" class="node">
<title>:shared:feature:images</title>
<ellipse fill="#b59aff" stroke="black" cx="310.74" cy="-180" rx="118.08" ry="18"/>
<text text-anchor="middle" x="310.74" y="-176.3" font-family="Times,serif" font-size="14.00">:shared:feature:images</text>
</g>
<!-- :shared:feature:images&#45;&gt;:ui:image -->
<g id="edge4" class="edge">
<title>:shared:feature:images&#45;&gt;:ui:image</title>
<path fill="none" stroke="black" stroke-dasharray="1,5" d="M198.9,-174C198.9,-174 93.26,-174 93.26,-174"/>
<polygon fill="black" stroke="black" points="93.26,-170.5 83.26,-174 93.26,-177.5 93.26,-170.5"/>
</g>
<!-- :shared:feature:details -->
<g id="node6" class="node">
<title>:shared:feature:details</title>
<ellipse fill="#b59aff" stroke="black" cx="310.74" cy="-126" rx="116.18" ry="18"/>
<text text-anchor="middle" x="310.74" y="-122.3" font-family="Times,serif" font-size="14.00">:shared:feature:details</text>
</g>
<!-- :shared:feature:details&#45;&gt;:ui:image -->
<g id="edge5" class="edge">
<title>:shared:feature:details&#45;&gt;:ui:image</title>
<path fill="none" stroke="black" stroke-dasharray="1,5" d="M194.38,-126C129.64,-126 62,-126 62,-126 62,-126 62,-151.72 62,-151.72"/>
<polygon fill="black" stroke="black" points="58.5,-151.72 62,-161.72 65.5,-151.72 58.5,-151.72"/>
</g>
<!-- :shared:feature:history -->
<g id="node7" class="node">
<title>:shared:feature:history</title>
<ellipse fill="#b59aff" stroke="black" cx="310.74" cy="-72" rx="117.78" ry="18"/>
<text text-anchor="middle" x="310.74" y="-68.3" font-family="Times,serif" font-size="14.00">:shared:feature:history</text>
</g>
<!-- :shared:feature:history&#45;&gt;:ui:image -->
<g id="edge6" class="edge">
<title>:shared:feature:history&#45;&gt;:ui:image</title>
<path fill="none" stroke="black" stroke-dasharray="1,5" d="M192.82,-72C120.24,-72 41,-72 41,-72 41,-72 41,-151.68 41,-151.68"/>
<polygon fill="black" stroke="black" points="37.5,-151.68 41,-161.68 44.5,-151.68 37.5,-151.68"/>
</g>
<!-- :shared:feature:graph -->
<g id="node8" class="node">
<title>:shared:feature:graph</title>
<ellipse fill="#b59aff" stroke="black" cx="310.74" cy="-18" rx="112.38" ry="18"/>
<text text-anchor="middle" x="310.74" y="-14.3" font-family="Times,serif" font-size="14.00">:shared:feature:graph</text>
</g>
<!-- :shared:feature:graph&#45;&gt;:ui:image -->
<g id="edge7" class="edge">
<title>:shared:feature:graph&#45;&gt;:ui:image</title>
<path fill="none" stroke="black" stroke-dasharray="1,5" d="M197.92,-18C116.19,-18 20,-18 20,-18 20,-18 20,-151.73 20,-151.73"/>
<polygon fill="black" stroke="black" points="16.5,-151.73 20,-161.73 23.5,-151.73 16.5,-151.73"/>
</g>
</g>
</svg>
