<?xml version="1.0" encoding="UTF-8" standalone="no"?>
<!DOCTYPE svg PUBLIC "-//W3C//DTD SVG 1.1//EN"
 "http://www.w3.org/Graphics/SVG/1.1/DTD/svg11.dtd">
<!-- Generated by graphviz version 2.43.0 (0)
 -->
<!-- Title: %3 Pages: 1 -->
<svg width="429pt" height="334pt"
 viewBox="0.00 0.00 428.58 334.00" xmlns="http://www.w3.org/2000/svg" xmlns:xlink="http://www.w3.org/1999/xlink">
<g id="graph0" class="graph" transform="scale(1 1) rotate(0) translate(4 330)">
<title>%3</title>
<polygon fill="white" stroke="transparent" points="-4,4 -4,-330 424.58,-330 424.58,4 -4,4"/>
<text text-anchor="middle" x="210.29" y="-298" font-family="Times,serif" font-size="30.00">Dependents</text>
<text text-anchor="middle" x="210.29" y="-265" font-family="Times,serif" font-size="30.00"> </text>
<!-- :ui:image -->
<g id="node1" class="node">
<title>:ui:image</title>
<polygon fill="#b59aff" stroke="black" points="83,-144 0,-144 0,-108 83,-108 83,-144"/>
<text text-anchor="middle" x="41.5" y="-122.3" font-family="Times,serif" font-size="14.00">:ui:image</text>
</g>
<!-- :shared -->
<g id="node2" class="node">
<title>:shared</title>
<ellipse fill="#b59aff" stroke="black" cx="302.29" cy="-234" rx="45.49" ry="18"/>
<text text-anchor="middle" x="302.29" y="-230.3" font-family="Times,serif" font-size="14.00">:shared</text>
</g>
<!-- :shared&#45;&gt;:ui:image -->
<g id="edge1" class="edge">
<title>:shared&#45;&gt;:ui:image</title>
<path fill="none" stroke="black" stroke-dasharray="1,5" d="M256.52,-234C178.24,-234 27,-234 27,-234 27,-234 27,-154.32 27,-154.32"/>
<polygon fill="black" stroke="black" points="30.5,-154.32 27,-144.32 23.5,-154.32 30.5,-154.32"/>
</g>
<!-- :ui:common -->
<g id="node3" class="node">
<title>:ui:common</title>
<ellipse fill="#b59aff" stroke="black" cx="302.29" cy="-180" rx="64.19" ry="18"/>
<text text-anchor="middle" x="302.29" y="-176.3" font-family="Times,serif" font-size="14.00">:ui:common</text>
</g>
<!-- :ui:common&#45;&gt;:ui:image -->
<g id="edge2" class="edge">
<title>:ui:common&#45;&gt;:ui:image</title>
<path fill="none" stroke="black" stroke-dasharray="1,5" d="M237.64,-180C164.37,-180 55,-180 55,-180 55,-180 55,-154.28 55,-154.28"/>
<polygon fill="black" stroke="black" points="58.5,-154.28 55,-144.28 51.5,-154.28 58.5,-154.28"/>
</g>
<!-- :shared:feature:images -->
<g id="node4" class="node">
<title>:shared:feature:images</title>
<ellipse fill="#b59aff" stroke="black" cx="302.29" cy="-126" rx="118.08" ry="18"/>
<text text-anchor="middle" x="302.29" y="-122.3" font-family="Times,serif" font-size="14.00">:shared:feature:images</text>
</g>
<!-- :shared:feature:images&#45;&gt;:ui:image -->
<g id="edge3" class="edge">
<title>:shared:feature:images&#45;&gt;:ui:image</title>
<path fill="none" stroke="black" stroke-dasharray="1,5" d="M183.72,-126C183.72,-126 93.05,-126 93.05,-126"/>
<polygon fill="black" stroke="black" points="93.05,-122.5 83.05,-126 93.05,-129.5 93.05,-122.5"/>
</g>
<!-- :shared:feature:details -->
<g id="node5" class="node">
<title>:shared:feature:details</title>
<ellipse fill="#b59aff" stroke="black" cx="302.29" cy="-72" rx="116.18" ry="18"/>
<text text-anchor="middle" x="302.29" y="-68.3" font-family="Times,serif" font-size="14.00">:shared:feature:details</text>
</g>
<!-- :shared:feature:details&#45;&gt;:ui:image -->
<g id="edge4" class="edge">
<title>:shared:feature:details&#45;&gt;:ui:image</title>
<path fill="none" stroke="black" stroke-dasharray="1,5" d="M185.89,-72C121.75,-72 55,-72 55,-72 55,-72 55,-97.72 55,-97.72"/>
<polygon fill="black" stroke="black" points="51.5,-97.72 55,-107.72 58.5,-97.72 51.5,-97.72"/>
</g>
<!-- :shared:feature:history -->
<g id="node6" class="node">
<title>:shared:feature:history</title>
<ellipse fill="#b59aff" stroke="black" cx="302.29" cy="-18" rx="117.78" ry="18"/>
<text text-anchor="middle" x="302.29" y="-14.3" font-family="Times,serif" font-size="14.00">:shared:feature:history</text>
</g>
<!-- :shared:feature:history&#45;&gt;:ui:image -->
<g id="edge5" class="edge">
<title>:shared:feature:history&#45;&gt;:ui:image</title>
<path fill="none" stroke="black" stroke-dasharray="1,5" d="M184.34,-18C109.63,-18 27,-18 27,-18 27,-18 27,-97.68 27,-97.68"/>
<polygon fill="black" stroke="black" points="23.5,-97.68 27,-107.68 30.5,-97.68 23.5,-97.68"/>
</g>
</g>
</svg>
