<?xml version="1.0" encoding="UTF-8" standalone="no"?>
<!DOCTYPE svg PUBLIC "-//W3C//DTD SVG 1.1//EN"
 "http://www.w3.org/Graphics/SVG/1.1/DTD/svg11.dtd">
<!-- Generated by graphviz version 11.0.0 (20240428.1522)
 -->
<!-- Pages: 1 -->
<svg width="368pt" height="394pt"
 viewBox="0.00 0.00 368.00 393.50" xmlns="http://www.w3.org/2000/svg" xmlns:xlink="http://www.w3.org/1999/xlink">
<g id="graph0" class="graph" transform="scale(1 1) rotate(0) translate(4 389.5)">
<polygon fill="white" stroke="none" points="-4,4 -4,-389.5 364,-389.5 364,4 -4,4"/>
<text text-anchor="middle" x="180" y="-353" font-family="Times,serif" font-size="30.00">image</text>
<text text-anchor="middle" x="180" y="-319.25" font-family="Times,serif" font-size="30.00"> </text>
<!-- :ui:image -->
<g id="node1" class="node">
<title>:ui:image</title>
<polygon fill="#b59aff" stroke="black" points="360,-310 0,-310 0,-274 360,-274 360,-310"/>
<text text-anchor="middle" x="180" y="-286.95" font-family="Times,serif" font-size="14.00">:ui:image</text>
</g>
<!-- :core:models -->
<g id="node2" class="node">
<title>:core:models</title>
<ellipse fill="#b59aff" stroke="black" cx="122" cy="-155" rx="59.03" ry="18"/>
<text text-anchor="middle" x="122" y="-149.95" font-family="Times,serif" font-size="14.00">:core:models</text>
</g>
<!-- :ui:image&#45;&gt;:core:models -->
<g id="edge1" class="edge">
<title>:ui:image&#45;&gt;:core:models</title>
<path fill="none" stroke="black" stroke-dasharray="1,5" d="M122,-273.52C122,-273.52 122,-184.7 122,-184.7"/>
<polygon fill="black" stroke="black" points="125.5,-184.7 122,-174.7 118.5,-184.7 125.5,-184.7"/>
</g>
<!-- :ui:core -->
<g id="node3" class="node">
<title>:ui:core</title>
<ellipse fill="#b59aff" stroke="black" cx="238" cy="-155" rx="39.07" ry="18"/>
<text text-anchor="middle" x="238" y="-149.95" font-family="Times,serif" font-size="14.00">:ui:core</text>
</g>
<!-- :ui:image&#45;&gt;:ui:core -->
<g id="edge2" class="edge">
<title>:ui:image&#45;&gt;:ui:core</title>
<path fill="none" stroke="red" d="M238,-273.52C238,-273.52 238,-184.7 238,-184.7"/>
<polygon fill="red" stroke="red" points="241.5,-184.7 238,-174.7 234.5,-184.7 241.5,-184.7"/>
</g>
<!-- :strings -->
<g id="node4" class="node">
<title>:strings</title>
<ellipse fill="#b59aff" stroke="black" cx="238" cy="-18" rx="38.04" ry="18"/>
<text text-anchor="middle" x="238" y="-12.95" font-family="Times,serif" font-size="14.00">:strings</text>
</g>
<!-- :ui:core&#45;&gt;:strings -->
<g id="edge3" class="edge">
<title>:ui:core&#45;&gt;:strings</title>
<path fill="none" stroke="black" d="M238,-136.52C238,-136.52 238,-47.7 238,-47.7"/>
<polygon fill="black" stroke="black" points="241.5,-47.7 238,-37.7 234.5,-47.7 241.5,-47.7"/>
</g>
</g>
</svg>
