<?xml version="1.0" encoding="UTF-8" standalone="no"?>
<!DOCTYPE svg PUBLIC "-//W3C//DTD SVG 1.1//EN"
 "http://www.w3.org/Graphics/SVG/1.1/DTD/svg11.dtd">
<!-- Generated by graphviz version 2.43.0 (0)
 -->
<!-- Title: %3 Pages: 1 -->
<svg width="368pt" height="392pt"
 viewBox="0.00 0.00 368.00 392.00" xmlns="http://www.w3.org/2000/svg" xmlns:xlink="http://www.w3.org/1999/xlink">
<g id="graph0" class="graph" transform="scale(1 1) rotate(0) translate(4 388)">
<title>%3</title>
<polygon fill="white" stroke="transparent" points="-4,4 -4,-388 364,-388 364,4 -4,4"/>
<text text-anchor="middle" x="180" y="-356" font-family="Times,serif" font-size="30.00">Dependencies</text>
<text text-anchor="middle" x="180" y="-323" font-family="Times,serif" font-size="30.00"> </text>
<!-- :ui:image -->
<g id="node1" class="node">
<title>:ui:image</title>
<polygon fill="#b59aff" stroke="black" points="360,-310 0,-310 0,-274 360,-274 360,-310"/>
<text text-anchor="middle" x="180" y="-288.3" font-family="Times,serif" font-size="14.00">:ui:image</text>
</g>
<!-- :core:models -->
<g id="node2" class="node">
<title>:core:models</title>
<ellipse fill="#b59aff" stroke="black" cx="114" cy="-155" rx="69.59" ry="18"/>
<text text-anchor="middle" x="114" y="-151.3" font-family="Times,serif" font-size="14.00">:core:models</text>
</g>
<!-- :ui:image&#45;&gt;:core:models -->
<g id="edge1" class="edge">
<title>:ui:image&#45;&gt;:core:models</title>
<path fill="none" stroke="black" stroke-dasharray="1,5" d="M114,-273.81C114,-273.81 114,-183.27 114,-183.27"/>
<polygon fill="black" stroke="black" points="117.5,-183.27 114,-173.27 110.5,-183.27 117.5,-183.27"/>
</g>
<!-- :ui:core -->
<g id="node3" class="node">
<title>:ui:core</title>
<ellipse fill="#b59aff" stroke="black" cx="247" cy="-155" rx="45.49" ry="18"/>
<text text-anchor="middle" x="247" y="-151.3" font-family="Times,serif" font-size="14.00">:ui:core</text>
</g>
<!-- :ui:image&#45;&gt;:ui:core -->
<g id="edge2" class="edge">
<title>:ui:image&#45;&gt;:ui:core</title>
<path fill="none" stroke="red" d="M247,-273.81C247,-273.81 247,-183.27 247,-183.27"/>
<polygon fill="red" stroke="red" points="250.5,-183.27 247,-173.27 243.5,-183.27 250.5,-183.27"/>
</g>
<!-- :strings -->
<g id="node4" class="node">
<title>:strings</title>
<ellipse fill="#b59aff" stroke="black" cx="247" cy="-18" rx="46.29" ry="18"/>
<text text-anchor="middle" x="247" y="-14.3" font-family="Times,serif" font-size="14.00">:strings</text>
</g>
<!-- :ui:core&#45;&gt;:strings -->
<g id="edge3" class="edge">
<title>:ui:core&#45;&gt;:strings</title>
<path fill="none" stroke="black" d="M247,-136.81C247,-136.81 247,-46.27 247,-46.27"/>
<polygon fill="black" stroke="black" points="250.5,-46.27 247,-36.27 243.5,-46.27 250.5,-46.27"/>
</g>
</g>
</svg>
