<?xml version="1.0" encoding="UTF-8" standalone="no"?>
<!DOCTYPE svg PUBLIC "-//W3C//DTD SVG 1.1//EN"
 "http://www.w3.org/Graphics/SVG/1.1/DTD/svg11.dtd">
<!-- Generated by graphviz version 2.43.0 (0)
 -->
<!-- Title: %3 Pages: 1 -->
<svg width="427pt" height="280pt"
 viewBox="0.00 0.00 427.28 280.00" xmlns="http://www.w3.org/2000/svg" xmlns:xlink="http://www.w3.org/1999/xlink">
<g id="graph0" class="graph" transform="scale(1 1) rotate(0) translate(4 276)">
<title>%3</title>
<polygon fill="white" stroke="transparent" points="-4,4 -4,-276 423.28,-276 423.28,4 -4,4"/>
<text text-anchor="middle" x="209.64" y="-244" font-family="Times,serif" font-size="30.00">Dependents</text>
<text text-anchor="middle" x="209.64" y="-211" font-family="Times,serif" font-size="30.00"> </text>
<!-- :ui:image -->
<g id="node1" class="node">
<title>:ui:image</title>
<polygon fill="#b59aff" stroke="black" points="83,-117 0,-117 0,-81 83,-81 83,-117"/>
<text text-anchor="middle" x="41.5" y="-95.3" font-family="Times,serif" font-size="14.00">:ui:image</text>
</g>
<!-- :shared -->
<g id="node2" class="node">
<title>:shared</title>
<ellipse fill="#b59aff" stroke="black" cx="301.64" cy="-180" rx="45.49" ry="18"/>
<text text-anchor="middle" x="301.64" y="-176.3" font-family="Times,serif" font-size="14.00">:shared</text>
</g>
<!-- :shared&#45;&gt;:ui:image -->
<g id="edge1" class="edge">
<title>:shared&#45;&gt;:ui:image</title>
<path fill="none" stroke="black" stroke-dasharray="1,5" d="M255.94,-180C181.19,-180 41,-180 41,-180 41,-180 41,-127.38 41,-127.38"/>
<polygon fill="black" stroke="black" points="44.5,-127.38 41,-117.38 37.5,-127.38 44.5,-127.38"/>
</g>
<!-- :ui:common -->
<g id="node3" class="node">
<title>:ui:common</title>
<ellipse fill="#b59aff" stroke="black" cx="301.64" cy="-126" rx="64.19" ry="18"/>
<text text-anchor="middle" x="301.64" y="-122.3" font-family="Times,serif" font-size="14.00">:ui:common</text>
</g>
<!-- :ui:common&#45;&gt;:ui:image -->
<g id="edge2" class="edge">
<title>:ui:common&#45;&gt;:ui:image</title>
<path fill="none" stroke="black" stroke-dasharray="1,5" d="M258.97,-112.5C258.97,-112.5 93.33,-112.5 93.33,-112.5"/>
<polygon fill="black" stroke="black" points="93.33,-109 83.33,-112.5 93.33,-116 93.33,-109"/>
</g>
<!-- :shared:feature:details -->
<g id="node4" class="node">
<title>:shared:feature:details</title>
<ellipse fill="#b59aff" stroke="black" cx="301.64" cy="-72" rx="116.18" ry="18"/>
<text text-anchor="middle" x="301.64" y="-68.3" font-family="Times,serif" font-size="14.00">:shared:feature:details</text>
</g>
<!-- :shared:feature:details&#45;&gt;:ui:image -->
<g id="edge3" class="edge">
<title>:shared:feature:details&#45;&gt;:ui:image</title>
<path fill="none" stroke="black" stroke-dasharray="1,5" d="M224.64,-85.5C224.64,-85.5 93.21,-85.5 93.21,-85.5"/>
<polygon fill="black" stroke="black" points="93.21,-82 83.21,-85.5 93.21,-89 93.21,-82"/>
</g>
<!-- :shared:feature:history -->
<g id="node5" class="node">
<title>:shared:feature:history</title>
<ellipse fill="#b59aff" stroke="black" cx="301.64" cy="-18" rx="117.78" ry="18"/>
<text text-anchor="middle" x="301.64" y="-14.3" font-family="Times,serif" font-size="14.00">:shared:feature:history</text>
</g>
<!-- :shared:feature:history&#45;&gt;:ui:image -->
<g id="edge4" class="edge">
<title>:shared:feature:history&#45;&gt;:ui:image</title>
<path fill="none" stroke="black" stroke-dasharray="1,5" d="M183.9,-18C114.83,-18 41,-18 41,-18 41,-18 41,-70.62 41,-70.62"/>
<polygon fill="black" stroke="black" points="37.5,-70.62 41,-80.62 44.5,-70.62 37.5,-70.62"/>
</g>
</g>
</svg>
