<?xml version="1.0" encoding="UTF-8" standalone="no"?>
<!DOCTYPE svg PUBLIC "-//W3C//DTD SVG 1.1//EN"
 "http://www.w3.org/Graphics/SVG/1.1/DTD/svg11.dtd">
<!-- Generated by graphviz version 2.43.0 (0)
 -->
<!-- Title: %3 Pages: 1 -->
<svg width="919pt" height="803pt"
 viewBox="0.00 0.00 919.38 803.00" xmlns="http://www.w3.org/2000/svg" xmlns:xlink="http://www.w3.org/1999/xlink">
<g id="graph0" class="graph" transform="scale(1 1) rotate(0) translate(4 799)">
<title>%3</title>
<polygon fill="white" stroke="transparent" points="-4,4 -4,-799 915.38,-799 915.38,4 -4,4"/>
<text text-anchor="middle" x="455.69" y="-767" font-family="Times,serif" font-size="30.00">Dependencies</text>
<text text-anchor="middle" x="455.69" y="-734" font-family="Times,serif" font-size="30.00"> </text>
<!-- :shared:feature:search -->
<g id="node1" class="node">
<title>:shared:feature:search</title>
<polygon fill="#b59aff" stroke="black" points="348.84,-721 170.84,-721 170.84,-685 348.84,-685 348.84,-721"/>
<text text-anchor="middle" x="259.84" y="-699.3" font-family="Times,serif" font-size="14.00">:shared:feature:search</text>
</g>
<!-- :ui:test:screenshot -->
<g id="node2" class="node">
<title>:ui:test:screenshot</title>
<ellipse fill="#9affb5" stroke="black" cx="96.84" cy="-429" rx="96.68" ry="18"/>
<text text-anchor="middle" x="96.84" y="-425.3" font-family="Times,serif" font-size="14.00">:ui:test:screenshot</text>
</g>
<!-- :shared:feature:search&#45;&gt;:ui:test:screenshot -->
<g id="edge1" class="edge">
<title>:shared:feature:search&#45;&gt;:ui:test:screenshot</title>
<path fill="none" stroke="#ff9ab1" stroke-dasharray="1,5" d="M178.46,-684.6C178.46,-684.6 178.46,-448.78 178.46,-448.78"/>
<polygon fill="#ff9ab1" stroke="#ff9ab1" points="181.96,-448.78 178.46,-438.78 174.96,-448.78 181.96,-448.78"/>
</g>
<!-- :ui:common -->
<g id="node3" class="node">
<title>:ui:common</title>
<ellipse fill="#b59aff" stroke="black" cx="259.84" cy="-566" rx="64.19" ry="18"/>
<text text-anchor="middle" x="259.84" y="-562.3" font-family="Times,serif" font-size="14.00">:ui:common</text>
</g>
<!-- :shared:feature:search&#45;&gt;:ui:common -->
<g id="edge2" class="edge">
<title>:shared:feature:search&#45;&gt;:ui:common</title>
<path fill="none" stroke="black" stroke-dasharray="1,5" d="M259.84,-684.81C259.84,-684.81 259.84,-594.27 259.84,-594.27"/>
<polygon fill="black" stroke="black" points="263.34,-594.27 259.84,-584.27 256.34,-594.27 263.34,-594.27"/>
</g>
<!-- :shared:domain -->
<g id="node4" class="node">
<title>:shared:domain</title>
<ellipse fill="#b59aff" stroke="black" cx="828.84" cy="-18" rx="82.59" ry="18"/>
<text text-anchor="middle" x="828.84" y="-14.3" font-family="Times,serif" font-size="14.00">:shared:domain</text>
</g>
<!-- :shared:feature:search&#45;&gt;:shared:domain -->
<g id="edge3" class="edge">
<title>:shared:feature:search&#45;&gt;:shared:domain</title>
<path fill="none" stroke="black" stroke-dasharray="1,5" d="M348.89,-703C521.24,-703 883.65,-703 883.65,-703 883.65,-703 883.65,-41.68 883.65,-41.68"/>
<polygon fill="black" stroke="black" points="887.15,-41.68 883.65,-31.68 880.15,-41.68 887.15,-41.68"/>
</g>
<!-- :test:image -->
<g id="node5" class="node">
<title>:test:image</title>
<ellipse fill="#9affb5" stroke="black" cx="132.84" cy="-292" rx="63.09" ry="18"/>
<text text-anchor="middle" x="132.84" y="-288.3" font-family="Times,serif" font-size="14.00">:test:image</text>
</g>
<!-- :ui:test:screenshot&#45;&gt;:test:image -->
<g id="edge4" class="edge">
<title>:ui:test:screenshot&#45;&gt;:test:image</title>
<path fill="none" stroke="black" stroke-dasharray="1,5" d="M131.74,-412.2C131.74,-412.2 131.74,-320.25 131.74,-320.25"/>
<polygon fill="black" stroke="black" points="135.24,-320.25 131.74,-310.25 128.24,-320.25 135.24,-320.25"/>
</g>
<!-- :ui:common&#45;&gt;:ui:test:screenshot -->
<g id="edge7" class="edge">
<title>:ui:common&#45;&gt;:ui:test:screenshot</title>
<path fill="none" stroke="#ff9ab1" stroke-dasharray="1,5" d="M195.41,-566C189.73,-566 186.07,-566 186.07,-566 186.07,-566 186.07,-446.37 186.07,-446.37"/>
<polygon fill="#ff9ab1" stroke="#ff9ab1" points="189.57,-446.37 186.07,-436.37 182.57,-446.37 189.57,-446.37"/>
</g>
<!-- :ui:common&#45;&gt;:shared:domain -->
<g id="edge8" class="edge">
<title>:ui:common&#45;&gt;:shared:domain</title>
<path fill="none" stroke="black" d="M324.2,-566C478.33,-566 855.91,-566 855.91,-566 855.91,-566 855.91,-45.31 855.91,-45.31"/>
<polygon fill="black" stroke="black" points="859.41,-45.31 855.91,-35.31 852.41,-45.31 859.41,-45.31"/>
</g>
<!-- :ui:common&#45;&gt;:test:image -->
<g id="edge5" class="edge">
<title>:ui:common&#45;&gt;:test:image</title>
<path fill="none" stroke="black" stroke-dasharray="1,5" d="M226.52,-550.43C226.52,-493.24 226.52,-298 226.52,-298 226.52,-298 202.44,-298 202.44,-298"/>
<polygon fill="black" stroke="black" points="202.44,-294.5 192.44,-298 202.44,-301.5 202.44,-294.5"/>
</g>
<!-- :test&#45;data -->
<g id="node6" class="node">
<title>:test&#45;data</title>
<ellipse fill="#b59aff" stroke="black" cx="563.84" cy="-429" rx="55.49" ry="18"/>
<text text-anchor="middle" x="563.84" y="-425.3" font-family="Times,serif" font-size="14.00">:test&#45;data</text>
</g>
<!-- :ui:common&#45;&gt;:test&#45;data -->
<g id="edge6" class="edge">
<title>:ui:common&#45;&gt;:test&#45;data</title>
<path fill="none" stroke="#ff9ab1" stroke-dasharray="1,5" d="M305.99,-553.44C305.99,-520.65 305.99,-435 305.99,-435 305.99,-435 501.66,-435 501.66,-435"/>
<polygon fill="#ff9ab1" stroke="#ff9ab1" points="501.66,-438.5 511.66,-435 501.66,-431.5 501.66,-438.5"/>
</g>
<!-- :core:logging:api -->
<g id="node7" class="node">
<title>:core:logging:api</title>
<ellipse fill="#b59aff" stroke="black" cx="445.84" cy="-18" rx="88.28" ry="18"/>
<text text-anchor="middle" x="445.84" y="-14.3" font-family="Times,serif" font-size="14.00">:core:logging:api</text>
</g>
<!-- :ui:common&#45;&gt;:core:logging:api -->
<g id="edge9" class="edge">
<title>:ui:common&#45;&gt;:core:logging:api</title>
<path fill="none" stroke="black" stroke-dasharray="1,5" d="M257.16,-547.77C257.16,-452.68 257.16,-18 257.16,-18 257.16,-18 347.3,-18 347.3,-18"/>
<polygon fill="black" stroke="black" points="347.3,-21.5 357.3,-18 347.3,-14.5 347.3,-21.5"/>
</g>
<!-- :test&#45;data&#45;&gt;:shared:domain -->
<g id="edge10" class="edge">
<title>:test&#45;data&#45;&gt;:shared:domain</title>
<path fill="none" stroke="black" stroke-dasharray="1,5" d="M601.57,-415.62C601.57,-345.87 601.57,-27 601.57,-27 601.57,-27 747.24,-27 747.24,-27"/>
<polygon fill="black" stroke="black" points="747.24,-30.5 757.24,-27 747.24,-23.5 747.24,-30.5"/>
</g>
<!-- :data:database -->
<g id="node8" class="node">
<title>:data:database</title>
<ellipse fill="#b59aff" stroke="black" cx="706.84" cy="-292" rx="79.09" ry="18"/>
<text text-anchor="middle" x="706.84" y="-288.3" font-family="Times,serif" font-size="14.00">:data:database</text>
</g>
<!-- :test&#45;data&#45;&gt;:data:database -->
<g id="edge11" class="edge">
<title>:test&#45;data&#45;&gt;:data:database</title>
<path fill="none" stroke="black" stroke-dasharray="1,5" d="M607.41,-417.78C607.41,-384.07 607.41,-286 607.41,-286 607.41,-286 621.99,-286 621.99,-286"/>
<polygon fill="black" stroke="black" points="621.99,-289.5 631.99,-286 621.99,-282.5 621.99,-289.5"/>
</g>
<!-- :data:musicbrainz -->
<g id="node9" class="node">
<title>:data:musicbrainz</title>
<ellipse fill="#b59aff" stroke="black" cx="706.84" cy="-155" rx="93.68" ry="18"/>
<text text-anchor="middle" x="706.84" y="-151.3" font-family="Times,serif" font-size="14.00">:data:musicbrainz</text>
</g>
<!-- :test&#45;data&#45;&gt;:data:musicbrainz -->
<g id="edge12" class="edge">
<title>:test&#45;data&#45;&gt;:data:musicbrainz</title>
<path fill="none" stroke="black" stroke-dasharray="1,5" d="M619.42,-429C621.87,-429 623.32,-429 623.32,-429 623.32,-429 623.32,-173.2 623.32,-173.2"/>
<polygon fill="black" stroke="black" points="626.82,-173.2 623.32,-163.2 619.82,-173.2 626.82,-173.2"/>
</g>
<!-- :data:coverart -->
<g id="node10" class="node">
<title>:data:coverart</title>
<ellipse fill="#b59aff" stroke="black" cx="363.84" cy="-155" rx="76.09" ry="18"/>
<text text-anchor="middle" x="363.84" y="-151.3" font-family="Times,serif" font-size="14.00">:data:coverart</text>
</g>
<!-- :test&#45;data&#45;&gt;:data:coverart -->
<g id="edge13" class="edge">
<title>:test&#45;data&#45;&gt;:data:coverart</title>
<path fill="none" stroke="black" stroke-dasharray="1,5" d="M511.61,-423C461.81,-423 394.36,-423 394.36,-423 394.36,-423 394.36,-181.76 394.36,-181.76"/>
<polygon fill="black" stroke="black" points="397.86,-181.76 394.36,-171.76 390.86,-181.76 397.86,-181.76"/>
</g>
<!-- :data:spotify -->
<g id="node11" class="node">
<title>:data:spotify</title>
<ellipse fill="#b59aff" stroke="black" cx="526.84" cy="-155" rx="68.79" ry="18"/>
<text text-anchor="middle" x="526.84" y="-151.3" font-family="Times,serif" font-size="14.00">:data:spotify</text>
</g>
<!-- :test&#45;data&#45;&gt;:data:spotify -->
<g id="edge14" class="edge">
<title>:test&#45;data&#45;&gt;:data:spotify</title>
<path fill="none" stroke="black" stroke-dasharray="1,5" d="M552.17,-411.02C552.17,-411.02 552.17,-181.98 552.17,-181.98"/>
<polygon fill="black" stroke="black" points="555.67,-181.98 552.17,-171.98 548.67,-181.98 555.67,-181.98"/>
</g>
<!-- :data:database&#45;&gt;:shared:domain -->
<g id="edge15" class="edge">
<title>:data:database&#45;&gt;:shared:domain</title>
<path fill="none" stroke="black" stroke-dasharray="1,5" d="M786.42,-292C809.29,-292 828.17,-292 828.17,-292 828.17,-292 828.17,-46.4 828.17,-46.4"/>
<polygon fill="black" stroke="black" points="831.67,-46.4 828.17,-36.4 824.67,-46.4 831.67,-46.4"/>
</g>
<!-- :data:database&#45;&gt;:data:musicbrainz -->
<g id="edge16" class="edge">
<title>:data:database&#45;&gt;:data:musicbrainz</title>
<path fill="none" stroke="black" stroke-dasharray="1,5" d="M706.84,-273.81C706.84,-273.81 706.84,-183.27 706.84,-183.27"/>
<polygon fill="black" stroke="black" points="710.34,-183.27 706.84,-173.27 703.34,-183.27 710.34,-183.27"/>
</g>
<!-- :data:musicbrainz&#45;&gt;:shared:domain -->
<g id="edge17" class="edge">
<title>:data:musicbrainz&#45;&gt;:shared:domain</title>
<path fill="none" stroke="black" stroke-dasharray="1,5" d="M782.39,-144.25C782.39,-144.25 782.39,-43.18 782.39,-43.18"/>
<polygon fill="black" stroke="black" points="785.89,-43.18 782.39,-33.18 778.89,-43.18 785.89,-43.18"/>
</g>
<!-- :data:musicbrainz&#45;&gt;:core:logging:api -->
<g id="edge18" class="edge">
<title>:data:musicbrainz&#45;&gt;:core:logging:api</title>
<path fill="none" stroke="black" stroke-dasharray="1,5" d="M679.77,-137.68C679.77,-99 679.77,-9 679.77,-9 679.77,-9 532.44,-9 532.44,-9"/>
<polygon fill="black" stroke="black" points="532.44,-5.5 522.44,-9 532.44,-12.5 532.44,-5.5"/>
</g>
<!-- :data:coverart&#45;&gt;:shared:domain -->
<g id="edge19" class="edge">
<title>:data:coverart&#45;&gt;:shared:domain</title>
<path fill="none" stroke="black" stroke-dasharray="1,5" d="M412.41,-141.04C412.41,-120.87 412.41,-86 412.41,-86 412.41,-86 764.34,-86 764.34,-86 764.34,-86 764.34,-39.54 764.34,-39.54"/>
<polygon fill="black" stroke="black" points="767.84,-39.54 764.34,-29.54 760.84,-39.54 767.84,-39.54"/>
</g>
<!-- :data:coverart&#45;&gt;:core:logging:api -->
<g id="edge20" class="edge">
<title>:data:coverart&#45;&gt;:core:logging:api</title>
<path fill="none" stroke="black" stroke-dasharray="1,5" d="M384.93,-137.65C384.93,-137.65 384.93,-41.12 384.93,-41.12"/>
<polygon fill="black" stroke="black" points="388.43,-41.12 384.93,-31.12 381.43,-41.12 388.43,-41.12"/>
</g>
<!-- :data:spotify&#45;&gt;:shared:domain -->
<g id="edge21" class="edge">
<title>:data:spotify&#45;&gt;:shared:domain</title>
<path fill="none" stroke="black" stroke-dasharray="1,5" d="M564.98,-139.82C564.98,-104.15 564.98,-18 564.98,-18 564.98,-18 736.08,-18 736.08,-18"/>
<polygon fill="black" stroke="black" points="736.08,-21.5 746.08,-18 736.08,-14.5 736.08,-21.5"/>
</g>
<!-- :data:spotify&#45;&gt;:core:logging:api -->
<g id="edge22" class="edge">
<title>:data:spotify&#45;&gt;:core:logging:api</title>
<path fill="none" stroke="black" stroke-dasharray="1,5" d="M496.09,-138.75C496.09,-138.75 496.09,-42.98 496.09,-42.98"/>
<polygon fill="black" stroke="black" points="499.59,-42.98 496.09,-32.98 492.59,-42.98 499.59,-42.98"/>
</g>
</g>
</svg>
