<?xml version="1.0" encoding="UTF-8" standalone="no"?>
<!DOCTYPE svg PUBLIC "-//W3C//DTD SVG 1.1//EN"
 "http://www.w3.org/Graphics/SVG/1.1/DTD/svg11.dtd">
<!-- Generated by graphviz version 2.43.0 (0)
 -->
<!-- Title: %3 Pages: 1 -->
<svg width="1174pt" height="666pt"
 viewBox="0.00 0.00 1173.84 666.00" xmlns="http://www.w3.org/2000/svg" xmlns:xlink="http://www.w3.org/1999/xlink">
<g id="graph0" class="graph" transform="scale(1 1) rotate(0) translate(4 662)">
<title>%3</title>
<polygon fill="white" stroke="transparent" points="-4,4 -4,-662 1169.84,-662 1169.84,4 -4,4"/>
<text text-anchor="middle" x="582.92" y="-630" font-family="Times,serif" font-size="30.00">Dependencies</text>
<text text-anchor="middle" x="582.92" y="-597" font-family="Times,serif" font-size="30.00"> </text>
<!-- :shared:feature:search -->
<g id="node1" class="node">
<title>:shared:feature:search</title>
<polygon fill="#b59aff" stroke="black" points="1165.84,-584 987.84,-584 987.84,-548 1165.84,-548 1165.84,-584"/>
<text text-anchor="middle" x="1076.84" y="-562.3" font-family="Times,serif" font-size="14.00">:shared:feature:search</text>
</g>
<!-- :core:models -->
<g id="node2" class="node">
<title>:core:models</title>
<ellipse fill="#b59aff" stroke="black" cx="695.84" cy="-18" rx="69.59" ry="18"/>
<text text-anchor="middle" x="695.84" y="-14.3" font-family="Times,serif" font-size="14.00">:core:models</text>
</g>
<!-- :shared:feature:search&#45;&gt;:core:models -->
<g id="edge1" class="edge">
<title>:shared:feature:search&#45;&gt;:core:models</title>
<path fill="none" stroke="black" stroke-dasharray="1,5" d="M1143.61,-547.78C1143.61,-451.79 1143.61,-9 1143.61,-9 1143.61,-9 766.23,-9 766.23,-9"/>
<polygon fill="black" stroke="black" points="766.23,-5.5 756.23,-9 766.23,-12.5 766.23,-5.5"/>
</g>
<!-- :shared:domain -->
<g id="node3" class="node">
<title>:shared:domain</title>
<ellipse fill="#b59aff" stroke="black" cx="1038.84" cy="-155" rx="82.59" ry="18"/>
<text text-anchor="middle" x="1038.84" y="-151.3" font-family="Times,serif" font-size="14.00">:shared:domain</text>
</g>
<!-- :shared:feature:search&#45;&gt;:shared:domain -->
<g id="edge2" class="edge">
<title>:shared:feature:search&#45;&gt;:shared:domain</title>
<path fill="none" stroke="black" stroke-dasharray="1,5" d="M1084.55,-547.81C1084.55,-547.81 1084.55,-180.3 1084.55,-180.3"/>
<polygon fill="black" stroke="black" points="1088.05,-180.3 1084.55,-170.3 1081.05,-180.3 1088.05,-180.3"/>
</g>
<!-- :ui:common -->
<g id="node4" class="node">
<title>:ui:common</title>
<ellipse fill="#b59aff" stroke="black" cx="607.84" cy="-429" rx="64.19" ry="18"/>
<text text-anchor="middle" x="607.84" y="-425.3" font-family="Times,serif" font-size="14.00">:ui:common</text>
</g>
<!-- :shared:feature:search&#45;&gt;:ui:common -->
<g id="edge3" class="edge">
<title>:shared:feature:search&#45;&gt;:ui:common</title>
<path fill="none" stroke="black" stroke-dasharray="1,5" d="M999.36,-547.8C999.36,-512.69 999.36,-439 999.36,-439 999.36,-439 671.46,-439 671.46,-439"/>
<polygon fill="black" stroke="black" points="671.46,-435.5 661.46,-439 671.46,-442.5 671.46,-435.5"/>
</g>
<!-- :shared:domain&#45;&gt;:core:models -->
<g id="edge4" class="edge">
<title>:shared:domain&#45;&gt;:core:models</title>
<path fill="none" stroke="black" stroke-dasharray="1,5" d="M1038.84,-136.81C1038.84,-99.54 1038.84,-18 1038.84,-18 1038.84,-18 775.67,-18 775.67,-18"/>
<polygon fill="black" stroke="black" points="775.67,-14.5 765.67,-18 775.67,-21.5 775.67,-14.5"/>
</g>
<!-- :ui:common&#45;&gt;:core:models -->
<g id="edge6" class="edge">
<title>:ui:common&#45;&gt;:core:models</title>
<path fill="none" stroke="black" d="M606.37,-410.72C606.37,-360.3 606.37,-223 606.37,-223 606.37,-223 686.47,-223 686.47,-223 686.47,-223 686.47,-46.19 686.47,-46.19"/>
<polygon fill="black" stroke="black" points="689.97,-46.19 686.47,-36.19 682.97,-46.19 689.97,-46.19"/>
</g>
<!-- :ui:common&#45;&gt;:shared:domain -->
<g id="edge12" class="edge">
<title>:ui:common&#45;&gt;:shared:domain</title>
<path fill="none" stroke="black" stroke-dasharray="1,5" d="M671.33,-432C793.15,-432 1047.72,-432 1047.72,-432 1047.72,-432 1047.72,-183.17 1047.72,-183.17"/>
<polygon fill="black" stroke="black" points="1051.22,-183.17 1047.72,-173.17 1044.22,-183.17 1051.22,-183.17"/>
</g>
<!-- :ui:test:screenshot -->
<g id="node5" class="node">
<title>:ui:test:screenshot</title>
<ellipse fill="#9affb5" stroke="black" cx="96.84" cy="-292" rx="96.68" ry="18"/>
<text text-anchor="middle" x="96.84" y="-288.3" font-family="Times,serif" font-size="14.00">:ui:test:screenshot</text>
</g>
<!-- :ui:common&#45;&gt;:ui:test:screenshot -->
<g id="edge5" class="edge">
<title>:ui:common&#45;&gt;:ui:test:screenshot</title>
<path fill="none" stroke="#ff9ab1" stroke-dasharray="1,5" d="M551.69,-438C418.95,-438 96.84,-438 96.84,-438 96.84,-438 96.84,-320.2 96.84,-320.2"/>
<polygon fill="#ff9ab1" stroke="#ff9ab1" points="100.34,-320.2 96.84,-310.2 93.34,-320.2 100.34,-320.2"/>
</g>
<!-- :ui:core -->
<g id="node6" class="node">
<title>:ui:core</title>
<ellipse fill="#b59aff" stroke="black" cx="222.84" cy="-155" rx="45.49" ry="18"/>
<text text-anchor="middle" x="222.84" y="-151.3" font-family="Times,serif" font-size="14.00">:ui:core</text>
</g>
<!-- :ui:common&#45;&gt;:ui:core -->
<g id="edge7" class="edge">
<title>:ui:common&#45;&gt;:ui:core</title>
<path fill="none" stroke="black" d="M543.22,-429C433.33,-429 221.79,-429 221.79,-429 221.79,-429 221.79,-183.4 221.79,-183.4"/>
<polygon fill="black" stroke="black" points="225.29,-183.4 221.79,-173.4 218.29,-183.4 225.29,-183.4"/>
</g>
<!-- :data:coverart -->
<g id="node7" class="node">
<title>:data:coverart</title>
<ellipse fill="#b59aff" stroke="black" cx="934.84" cy="-292" rx="76.09" ry="18"/>
<text text-anchor="middle" x="934.84" y="-288.3" font-family="Times,serif" font-size="14.00">:data:coverart</text>
</g>
<!-- :ui:common&#45;&gt;:data:coverart -->
<g id="edge8" class="edge">
<title>:ui:common&#45;&gt;:data:coverart</title>
<path fill="none" stroke="black" stroke-dasharray="1,5" d="M670.92,-425C762.99,-425 923.32,-425 923.32,-425 923.32,-425 923.32,-319.94 923.32,-319.94"/>
<polygon fill="black" stroke="black" points="926.82,-319.94 923.32,-309.94 919.82,-319.94 926.82,-319.94"/>
</g>
<!-- :data:musicbrainz -->
<g id="node8" class="node">
<title>:data:musicbrainz</title>
<ellipse fill="#b59aff" stroke="black" cx="708.84" cy="-292" rx="93.68" ry="18"/>
<text text-anchor="middle" x="708.84" y="-288.3" font-family="Times,serif" font-size="14.00">:data:musicbrainz</text>
</g>
<!-- :ui:common&#45;&gt;:data:musicbrainz -->
<g id="edge9" class="edge">
<title>:ui:common&#45;&gt;:data:musicbrainz</title>
<path fill="none" stroke="black" stroke-dasharray="1,5" d="M643.72,-413.82C643.72,-413.82 643.72,-315.22 643.72,-315.22"/>
<polygon fill="black" stroke="black" points="647.22,-315.22 643.72,-305.22 640.22,-315.22 647.22,-315.22"/>
</g>
<!-- :core:preferences -->
<g id="node9" class="node">
<title>:core:preferences</title>
<ellipse fill="#b59aff" stroke="black" cx="505.84" cy="-292" rx="91.78" ry="18"/>
<text text-anchor="middle" x="505.84" y="-288.3" font-family="Times,serif" font-size="14.00">:core:preferences</text>
</g>
<!-- :ui:common&#45;&gt;:core:preferences -->
<g id="edge10" class="edge">
<title>:ui:common&#45;&gt;:core:preferences</title>
<path fill="none" stroke="black" stroke-dasharray="1,5" d="M570.49,-414.34C570.49,-414.34 570.49,-314.94 570.49,-314.94"/>
<polygon fill="black" stroke="black" points="573.99,-314.94 570.49,-304.94 566.99,-314.94 573.99,-314.94"/>
</g>
<!-- :core:logging:api -->
<g id="node10" class="node">
<title>:core:logging:api</title>
<ellipse fill="#b59aff" stroke="black" cx="811.84" cy="-155" rx="88.28" ry="18"/>
<text text-anchor="middle" x="811.84" y="-151.3" font-family="Times,serif" font-size="14.00">:core:logging:api</text>
</g>
<!-- :ui:common&#45;&gt;:core:logging:api -->
<g id="edge11" class="edge">
<title>:ui:common&#45;&gt;:core:logging:api</title>
<path fill="none" stroke="black" stroke-dasharray="1,5" d="M658.95,-418C724.72,-418 830.62,-418 830.62,-418 830.62,-418 830.62,-182.66 830.62,-182.66"/>
<polygon fill="black" stroke="black" points="834.12,-182.66 830.62,-172.66 827.12,-182.66 834.12,-182.66"/>
</g>
<!-- :ui:image -->
<g id="node11" class="node">
<title>:ui:image</title>
<ellipse fill="#b59aff" stroke="black" cx="303.84" cy="-292" rx="53.89" ry="18"/>
<text text-anchor="middle" x="303.84" y="-288.3" font-family="Times,serif" font-size="14.00">:ui:image</text>
</g>
<!-- :ui:common&#45;&gt;:ui:image -->
<g id="edge13" class="edge">
<title>:ui:common&#45;&gt;:ui:image</title>
<path fill="none" stroke="black" stroke-dasharray="1,5" d="M552.08,-420C464.32,-420 303.84,-420 303.84,-420 303.84,-420 303.84,-320.07 303.84,-320.07"/>
<polygon fill="black" stroke="black" points="307.34,-320.07 303.84,-310.07 300.34,-320.07 307.34,-320.07"/>
</g>
<!-- :ui:test:screenshot&#45;&gt;:ui:core -->
<g id="edge14" class="edge">
<title>:ui:test:screenshot&#45;&gt;:ui:core</title>
<path fill="none" stroke="black" stroke-dasharray="1,5" d="M185.51,-284.63C185.51,-284.63 185.51,-175.67 185.51,-175.67"/>
<polygon fill="black" stroke="black" points="189.01,-175.67 185.51,-165.67 182.01,-175.67 189.01,-175.67"/>
</g>
<!-- :test:image -->
<g id="node12" class="node">
<title>:test:image</title>
<ellipse fill="#9affb5" stroke="black" cx="95.84" cy="-155" rx="63.09" ry="18"/>
<text text-anchor="middle" x="95.84" y="-151.3" font-family="Times,serif" font-size="14.00">:test:image</text>
</g>
<!-- :ui:test:screenshot&#45;&gt;:test:image -->
<g id="edge15" class="edge">
<title>:ui:test:screenshot&#45;&gt;:test:image</title>
<path fill="none" stroke="black" stroke-dasharray="1,5" d="M95.84,-273.81C95.84,-273.81 95.84,-183.27 95.84,-183.27"/>
<polygon fill="black" stroke="black" points="99.34,-183.27 95.84,-173.27 92.34,-183.27 99.34,-183.27"/>
</g>
<!-- :shared:strings -->
<g id="node13" class="node">
<title>:shared:strings</title>
<ellipse fill="#b59aff" stroke="black" cx="222.84" cy="-18" rx="81.49" ry="18"/>
<text text-anchor="middle" x="222.84" y="-14.3" font-family="Times,serif" font-size="14.00">:shared:strings</text>
</g>
<!-- :ui:core&#45;&gt;:shared:strings -->
<g id="edge16" class="edge">
<title>:ui:core&#45;&gt;:shared:strings</title>
<path fill="none" stroke="black" d="M222.84,-136.81C222.84,-136.81 222.84,-46.27 222.84,-46.27"/>
<polygon fill="black" stroke="black" points="226.34,-46.27 222.84,-36.27 219.34,-46.27 226.34,-46.27"/>
</g>
<!-- :data:coverart&#45;&gt;:core:models -->
<g id="edge18" class="edge">
<title>:data:coverart&#45;&gt;:core:models</title>
<path fill="none" stroke="black" stroke-dasharray="1,5" d="M928.27,-273.79C928.27,-213.91 928.27,-27 928.27,-27 928.27,-27 766.3,-27 766.3,-27"/>
<polygon fill="black" stroke="black" points="766.3,-23.5 756.3,-27 766.3,-30.5 766.3,-23.5"/>
</g>
<!-- :data:coverart&#45;&gt;:shared:domain -->
<g id="edge19" class="edge">
<title>:data:coverart&#45;&gt;:shared:domain</title>
<path fill="none" stroke="black" stroke-dasharray="1,5" d="M983.59,-278.11C983.59,-278.11 983.59,-178.52 983.59,-178.52"/>
<polygon fill="black" stroke="black" points="987.09,-178.52 983.59,-168.52 980.09,-178.52 987.09,-178.52"/>
</g>
<!-- :data:coverart&#45;&gt;:core:logging:api -->
<g id="edge17" class="edge">
<title>:data:coverart&#45;&gt;:core:logging:api</title>
<path fill="none" stroke="black" stroke-dasharray="1,5" d="M879.52,-279.36C879.52,-279.36 879.52,-176.83 879.52,-176.83"/>
<polygon fill="black" stroke="black" points="883.02,-176.83 879.52,-166.83 876.02,-176.83 883.02,-176.83"/>
</g>
<!-- :data:musicbrainz&#45;&gt;:core:models -->
<g id="edge21" class="edge">
<title>:data:musicbrainz&#45;&gt;:core:models</title>
<path fill="none" stroke="black" stroke-dasharray="1,5" d="M704.96,-273.6C704.96,-273.6 704.96,-45.97 704.96,-45.97"/>
<polygon fill="black" stroke="black" points="708.46,-45.97 704.96,-35.97 701.46,-45.97 708.46,-45.97"/>
</g>
<!-- :data:musicbrainz&#45;&gt;:core:logging:api -->
<g id="edge20" class="edge">
<title>:data:musicbrainz&#45;&gt;:core:logging:api</title>
<path fill="none" stroke="black" stroke-dasharray="1,5" d="M762.94,-277.08C762.94,-277.08 762.94,-180.32 762.94,-180.32"/>
<polygon fill="black" stroke="black" points="766.44,-180.32 762.94,-170.32 759.44,-180.32 766.44,-180.32"/>
</g>
<!-- :core:preferences&#45;&gt;:core:models -->
<g id="edge23" class="edge">
<title>:core:preferences&#45;&gt;:core:models</title>
<path fill="none" stroke="black" stroke-dasharray="1,5" d="M455.95,-276.82C455.95,-220.13 455.95,-24 455.95,-24 455.95,-24 619.97,-24 619.97,-24"/>
<polygon fill="black" stroke="black" points="619.97,-27.5 629.97,-24 619.97,-20.5 619.97,-27.5"/>
</g>
<!-- :core:coroutines -->
<g id="node14" class="node">
<title>:core:coroutines</title>
<ellipse fill="#b59aff" stroke="black" cx="582.84" cy="-155" rx="85.29" ry="18"/>
<text text-anchor="middle" x="582.84" y="-151.3" font-family="Times,serif" font-size="14.00">:core:coroutines</text>
</g>
<!-- :core:preferences&#45;&gt;:core:coroutines -->
<g id="edge22" class="edge">
<title>:core:preferences&#45;&gt;:core:coroutines</title>
<path fill="none" stroke="black" stroke-dasharray="1,5" d="M547.59,-275.75C547.59,-275.75 547.59,-181.66 547.59,-181.66"/>
<polygon fill="black" stroke="black" points="551.09,-181.66 547.59,-171.66 544.09,-181.66 551.09,-181.66"/>
</g>
<!-- :ui:image&#45;&gt;:core:models -->
<g id="edge24" class="edge">
<title>:ui:image&#45;&gt;:core:models</title>
<path fill="none" stroke="black" stroke-dasharray="1,5" d="M330.94,-276.14C330.94,-216.91 330.94,-12 330.94,-12 330.94,-12 620.18,-12 620.18,-12"/>
<polygon fill="black" stroke="black" points="620.18,-15.5 630.18,-12 620.18,-8.5 620.18,-15.5"/>
</g>
<!-- :ui:image&#45;&gt;:ui:core -->
<g id="edge25" class="edge">
<title>:ui:image&#45;&gt;:ui:core</title>
<path fill="none" stroke="black" stroke-dasharray="1,5" d="M259.12,-281.7C259.12,-281.7 259.12,-176.18 259.12,-176.18"/>
<polygon fill="black" stroke="black" points="262.62,-176.18 259.12,-166.18 255.62,-176.18 262.62,-176.18"/>
</g>
</g>
</svg>
