<?xml version="1.0" encoding="UTF-8" standalone="no"?>
<!DOCTYPE svg PUBLIC "-//W3C//DTD SVG 1.1//EN"
 "http://www.w3.org/Graphics/SVG/1.1/DTD/svg11.dtd">
<!-- Generated by graphviz version 2.43.0 (0)
 -->
<!-- Title: %3 Pages: 1 -->
<svg width="1129pt" height="666pt"
 viewBox="0.00 0.00 1129.38 666.00" xmlns="http://www.w3.org/2000/svg" xmlns:xlink="http://www.w3.org/1999/xlink">
<g id="graph0" class="graph" transform="scale(1 1) rotate(0) translate(4 662)">
<title>%3</title>
<polygon fill="white" stroke="transparent" points="-4,4 -4,-662 1125.38,-662 1125.38,4 -4,4"/>
<text text-anchor="middle" x="560.69" y="-630" font-family="Times,serif" font-size="30.00">Dependencies</text>
<text text-anchor="middle" x="560.69" y="-597" font-family="Times,serif" font-size="30.00"> </text>
<!-- :shared:feature:search -->
<g id="node1" class="node">
<title>:shared:feature:search</title>
<polygon fill="#b59aff" stroke="black" points="704.54,-584 526.54,-584 526.54,-548 704.54,-548 704.54,-584"/>
<text text-anchor="middle" x="615.54" y="-562.3" font-family="Times,serif" font-size="14.00">:shared:feature:search</text>
</g>
<!-- :core:models -->
<g id="node2" class="node">
<title>:core:models</title>
<ellipse fill="#b59aff" stroke="black" cx="505.54" cy="-18" rx="69.59" ry="18"/>
<text text-anchor="middle" x="505.54" y="-14.3" font-family="Times,serif" font-size="14.00">:core:models</text>
</g>
<!-- :shared:feature:search&#45;&gt;:core:models -->
<g id="edge1" class="edge">
<title>:shared:feature:search&#45;&gt;:core:models</title>
<path fill="none" stroke="black" stroke-dasharray="1,5" d="M526.45,-560C517.74,-560 512.06,-560 512.06,-560 512.06,-560 512.06,-46.03 512.06,-46.03"/>
<polygon fill="black" stroke="black" points="515.56,-46.03 512.06,-36.03 508.56,-46.03 515.56,-46.03"/>
</g>
<!-- :shared:domain -->
<g id="node3" class="node">
<title>:shared:domain</title>
<ellipse fill="#b59aff" stroke="black" cx="82.54" cy="-155" rx="82.59" ry="18"/>
<text text-anchor="middle" x="82.54" y="-151.3" font-family="Times,serif" font-size="14.00">:shared:domain</text>
</g>
<!-- :shared:feature:search&#45;&gt;:shared:domain -->
<g id="edge2" class="edge">
<title>:shared:feature:search&#45;&gt;:shared:domain</title>
<path fill="none" stroke="black" stroke-dasharray="1,5" d="M526.39,-572C364.05,-572 36.83,-572 36.83,-572 36.83,-572 36.83,-180.34 36.83,-180.34"/>
<polygon fill="black" stroke="black" points="40.33,-180.34 36.83,-170.34 33.33,-180.34 40.33,-180.34"/>
</g>
<!-- :ui:common -->
<g id="node4" class="node">
<title>:ui:common</title>
<ellipse fill="#b59aff" stroke="black" cx="615.54" cy="-429" rx="64.19" ry="18"/>
<text text-anchor="middle" x="615.54" y="-425.3" font-family="Times,serif" font-size="14.00">:ui:common</text>
</g>
<!-- :shared:feature:search&#45;&gt;:ui:common -->
<g id="edge3" class="edge">
<title>:shared:feature:search&#45;&gt;:ui:common</title>
<path fill="none" stroke="black" stroke-dasharray="1,5" d="M615.54,-547.81C615.54,-547.81 615.54,-457.27 615.54,-457.27"/>
<polygon fill="black" stroke="black" points="619.04,-457.27 615.54,-447.27 612.04,-457.27 619.04,-457.27"/>
</g>
<!-- :shared:domain&#45;&gt;:core:models -->
<g id="edge4" class="edge">
<title>:shared:domain&#45;&gt;:core:models</title>
<path fill="none" stroke="black" stroke-dasharray="1,5" d="M82.54,-136.89C82.54,-98.41 82.54,-12 82.54,-12 82.54,-12 429.91,-12 429.91,-12"/>
<polygon fill="black" stroke="black" points="429.91,-15.5 439.91,-12 429.91,-8.5 429.91,-15.5"/>
</g>
<!-- :ui:common&#45;&gt;:core:models -->
<g id="edge6" class="edge">
<title>:ui:common&#45;&gt;:core:models</title>
<path fill="none" stroke="black" d="M567.33,-417C542.75,-417 517.98,-417 517.98,-417 517.98,-417 517.98,-45.92 517.98,-45.92"/>
<polygon fill="black" stroke="black" points="521.48,-45.92 517.98,-35.92 514.48,-45.92 521.48,-45.92"/>
</g>
<!-- :ui:common&#45;&gt;:shared:domain -->
<g id="edge12" class="edge">
<title>:ui:common&#45;&gt;:shared:domain</title>
<path fill="none" stroke="black" stroke-dasharray="1,5" d="M567.45,-441C434.84,-441 73.67,-441 73.67,-441 73.67,-441 73.67,-183.33 73.67,-183.33"/>
<polygon fill="black" stroke="black" points="77.17,-183.33 73.67,-173.33 70.17,-183.33 77.17,-183.33"/>
</g>
<!-- :ui:test:screenshot -->
<g id="node5" class="node">
<title>:ui:test:screenshot</title>
<ellipse fill="#9affb5" stroke="black" cx="1024.54" cy="-292" rx="96.68" ry="18"/>
<text text-anchor="middle" x="1024.54" y="-288.3" font-family="Times,serif" font-size="14.00">:ui:test:screenshot</text>
</g>
<!-- :ui:common&#45;&gt;:ui:test:screenshot -->
<g id="edge5" class="edge">
<title>:ui:common&#45;&gt;:ui:test:screenshot</title>
<path fill="none" stroke="#ff9ab1" stroke-dasharray="1,5" d="M671.55,-438C783.57,-438 1024.54,-438 1024.54,-438 1024.54,-438 1024.54,-320.2 1024.54,-320.2"/>
<polygon fill="#ff9ab1" stroke="#ff9ab1" points="1028.04,-320.2 1024.54,-310.2 1021.04,-320.2 1028.04,-320.2"/>
</g>
<!-- :ui:core -->
<g id="node6" class="node">
<title>:ui:core</title>
<ellipse fill="#b59aff" stroke="black" cx="899.54" cy="-155" rx="45.49" ry="18"/>
<text text-anchor="middle" x="899.54" y="-151.3" font-family="Times,serif" font-size="14.00">:ui:core</text>
</g>
<!-- :ui:common&#45;&gt;:ui:core -->
<g id="edge7" class="edge">
<title>:ui:common&#45;&gt;:ui:core</title>
<path fill="none" stroke="black" d="M680,-429C763.81,-429 899.59,-429 899.59,-429 899.59,-429 899.59,-183.4 899.59,-183.4"/>
<polygon fill="black" stroke="black" points="903.09,-183.4 899.59,-173.4 896.09,-183.4 903.09,-183.4"/>
</g>
<!-- :data:coverart -->
<g id="node7" class="node">
<title>:data:coverart</title>
<ellipse fill="#b59aff" stroke="black" cx="186.54" cy="-292" rx="76.09" ry="18"/>
<text text-anchor="middle" x="186.54" y="-288.3" font-family="Times,serif" font-size="14.00">:data:coverart</text>
</g>
<!-- :ui:common&#45;&gt;:data:coverart -->
<g id="edge8" class="edge">
<title>:ui:common&#45;&gt;:data:coverart</title>
<path fill="none" stroke="black" stroke-dasharray="1,5" d="M554.53,-435C436.09,-435 186.54,-435 186.54,-435 186.54,-435 186.54,-320.11 186.54,-320.11"/>
<polygon fill="black" stroke="black" points="190.04,-320.11 186.54,-310.11 183.04,-320.11 190.04,-320.11"/>
</g>
<!-- :data:musicbrainz -->
<g id="node8" class="node">
<title>:data:musicbrainz</title>
<ellipse fill="#b59aff" stroke="black" cx="412.54" cy="-292" rx="93.68" ry="18"/>
<text text-anchor="middle" x="412.54" y="-288.3" font-family="Times,serif" font-size="14.00">:data:musicbrainz</text>
</g>
<!-- :ui:common&#45;&gt;:data:musicbrainz -->
<g id="edge9" class="edge">
<title>:ui:common&#45;&gt;:data:musicbrainz</title>
<path fill="none" stroke="black" stroke-dasharray="1,5" d="M554.64,-423C494.84,-423 412.54,-423 412.54,-423 412.54,-423 412.54,-320.21 412.54,-320.21"/>
<polygon fill="black" stroke="black" points="416.04,-320.21 412.54,-310.21 409.04,-320.22 416.04,-320.21"/>
</g>
<!-- :core:preferences -->
<g id="node9" class="node">
<title>:core:preferences</title>
<ellipse fill="#b59aff" stroke="black" cx="615.54" cy="-292" rx="91.78" ry="18"/>
<text text-anchor="middle" x="615.54" y="-288.3" font-family="Times,serif" font-size="14.00">:core:preferences</text>
</g>
<!-- :ui:common&#45;&gt;:core:preferences -->
<g id="edge10" class="edge">
<title>:ui:common&#45;&gt;:core:preferences</title>
<path fill="none" stroke="black" stroke-dasharray="1,5" d="M615.54,-410.81C615.54,-410.81 615.54,-320.27 615.54,-320.27"/>
<polygon fill="black" stroke="black" points="619.04,-320.27 615.54,-310.27 612.04,-320.27 619.04,-320.27"/>
</g>
<!-- :core:logging:api -->
<g id="node10" class="node">
<title>:core:logging:api</title>
<ellipse fill="#b59aff" stroke="black" cx="309.54" cy="-155" rx="88.28" ry="18"/>
<text text-anchor="middle" x="309.54" y="-151.3" font-family="Times,serif" font-size="14.00">:core:logging:api</text>
</g>
<!-- :ui:common&#45;&gt;:core:logging:api -->
<g id="edge11" class="edge">
<title>:ui:common&#45;&gt;:core:logging:api</title>
<path fill="none" stroke="black" stroke-dasharray="1,5" d="M550.99,-429C456.28,-429 290.77,-429 290.77,-429 290.77,-429 290.77,-182.98 290.77,-182.98"/>
<polygon fill="black" stroke="black" points="294.27,-182.98 290.77,-172.98 287.27,-182.98 294.27,-182.98"/>
</g>
<!-- :ui:image -->
<g id="node11" class="node">
<title>:ui:image</title>
<ellipse fill="#b59aff" stroke="black" cx="817.54" cy="-292" rx="53.89" ry="18"/>
<text text-anchor="middle" x="817.54" y="-288.3" font-family="Times,serif" font-size="14.00">:ui:image</text>
</g>
<!-- :ui:common&#45;&gt;:ui:image -->
<g id="edge13" class="edge">
<title>:ui:common&#45;&gt;:ui:image</title>
<path fill="none" stroke="black" stroke-dasharray="1,5" d="M671.27,-420C731.07,-420 817.54,-420 817.54,-420 817.54,-420 817.54,-320.07 817.54,-320.07"/>
<polygon fill="black" stroke="black" points="821.04,-320.07 817.54,-310.07 814.04,-320.07 821.04,-320.07"/>
</g>
<!-- :ui:test:screenshot&#45;&gt;:ui:core -->
<g id="edge14" class="edge">
<title>:ui:test:screenshot&#45;&gt;:ui:core</title>
<path fill="none" stroke="black" stroke-dasharray="1,5" d="M936.37,-284.24C936.37,-284.24 936.37,-175.58 936.37,-175.58"/>
<polygon fill="black" stroke="black" points="939.87,-175.58 936.37,-165.58 932.87,-175.58 939.87,-175.58"/>
</g>
<!-- :shared:strings -->
<g id="node12" class="node">
<title>:shared:strings</title>
<ellipse fill="#b59aff" stroke="black" cx="899.54" cy="-18" rx="81.49" ry="18"/>
<text text-anchor="middle" x="899.54" y="-14.3" font-family="Times,serif" font-size="14.00">:shared:strings</text>
</g>
<!-- :ui:core&#45;&gt;:shared:strings -->
<g id="edge15" class="edge">
<title>:ui:core&#45;&gt;:shared:strings</title>
<path fill="none" stroke="black" d="M899.54,-136.81C899.54,-136.81 899.54,-46.27 899.54,-46.27"/>
<polygon fill="black" stroke="black" points="903.04,-46.27 899.54,-36.27 896.04,-46.27 903.04,-46.27"/>
</g>
<!-- :data:coverart&#45;&gt;:core:models -->
<g id="edge17" class="edge">
<title>:data:coverart&#45;&gt;:core:models</title>
<path fill="none" stroke="black" stroke-dasharray="1,5" d="M193.12,-274C193.12,-213.91 193.12,-24 193.12,-24 193.12,-24 429.67,-24 429.67,-24"/>
<polygon fill="black" stroke="black" points="429.67,-27.5 439.67,-24 429.67,-20.5 429.67,-27.5"/>
</g>
<!-- :data:coverart&#45;&gt;:shared:domain -->
<g id="edge18" class="edge">
<title>:data:coverart&#45;&gt;:shared:domain</title>
<path fill="none" stroke="black" stroke-dasharray="1,5" d="M137.79,-278.11C137.79,-278.11 137.79,-178.52 137.79,-178.52"/>
<polygon fill="black" stroke="black" points="141.29,-178.52 137.79,-168.52 134.29,-178.52 141.29,-178.52"/>
</g>
<!-- :data:coverart&#45;&gt;:core:logging:api -->
<g id="edge16" class="edge">
<title>:data:coverart&#45;&gt;:core:logging:api</title>
<path fill="none" stroke="black" stroke-dasharray="1,5" d="M241.87,-279.36C241.87,-279.36 241.87,-176.83 241.87,-176.83"/>
<polygon fill="black" stroke="black" points="245.37,-176.83 241.87,-166.83 238.37,-176.83 245.37,-176.83"/>
</g>
<!-- :data:musicbrainz&#45;&gt;:core:models -->
<g id="edge20" class="edge">
<title>:data:musicbrainz&#45;&gt;:core:models</title>
<path fill="none" stroke="black" stroke-dasharray="1,5" d="M471.07,-277.65C471.07,-277.65 471.07,-43.89 471.07,-43.89"/>
<polygon fill="black" stroke="black" points="474.57,-43.89 471.07,-33.89 467.57,-43.89 474.57,-43.89"/>
</g>
<!-- :data:musicbrainz&#45;&gt;:core:logging:api -->
<g id="edge19" class="edge">
<title>:data:musicbrainz&#45;&gt;:core:logging:api</title>
<path fill="none" stroke="black" stroke-dasharray="1,5" d="M358.44,-277.08C358.44,-277.08 358.44,-180.32 358.44,-180.32"/>
<polygon fill="black" stroke="black" points="361.94,-180.32 358.44,-170.32 354.94,-180.32 361.94,-180.32"/>
</g>
<!-- :core:preferences&#45;&gt;:core:models -->
<g id="edge22" class="edge">
<title>:core:preferences&#45;&gt;:core:models</title>
<path fill="none" stroke="black" stroke-dasharray="1,5" d="M528.65,-286.28C528.65,-286.28 528.65,-45.01 528.65,-45.01"/>
<polygon fill="black" stroke="black" points="532.15,-45.01 528.65,-35.01 525.15,-45.01 532.15,-45.01"/>
</g>
<!-- :core:coroutines -->
<g id="node13" class="node">
<title>:core:coroutines</title>
<ellipse fill="#b59aff" stroke="black" cx="618.54" cy="-155" rx="85.29" ry="18"/>
<text text-anchor="middle" x="618.54" y="-151.3" font-family="Times,serif" font-size="14.00">:core:coroutines</text>
</g>
<!-- :core:preferences&#45;&gt;:core:coroutines -->
<g id="edge21" class="edge">
<title>:core:preferences&#45;&gt;:core:coroutines</title>
<path fill="none" stroke="black" stroke-dasharray="1,5" d="M618.54,-273.81C618.54,-273.81 618.54,-183.27 618.54,-183.27"/>
<polygon fill="black" stroke="black" points="622.04,-183.27 618.54,-173.27 615.04,-183.27 622.04,-183.27"/>
</g>
<!-- :ui:image&#45;&gt;:core:models -->
<g id="edge23" class="edge">
<title>:ui:image&#45;&gt;:core:models</title>
<path fill="none" stroke="black" stroke-dasharray="1,5" d="M790.95,-276.08C790.95,-217.61 790.95,-18 790.95,-18 790.95,-18 585.36,-18 585.36,-18"/>
<polygon fill="black" stroke="black" points="585.36,-14.5 575.36,-18 585.36,-21.5 585.36,-14.5"/>
</g>
<!-- :ui:image&#45;&gt;:ui:core -->
<g id="edge24" class="edge">
<title>:ui:image&#45;&gt;:ui:core</title>
<path fill="none" stroke="black" stroke-dasharray="1,5" d="M862.77,-282.15C862.77,-282.15 862.77,-175.89 862.77,-175.89"/>
<polygon fill="black" stroke="black" points="866.27,-175.89 862.77,-165.89 859.27,-175.89 866.27,-175.89"/>
</g>
</g>
</svg>
