<?xml version="1.0" encoding="UTF-8" standalone="no"?>
<!DOCTYPE svg PUBLIC "-//W3C//DTD SVG 1.1//EN"
 "http://www.w3.org/Graphics/SVG/1.1/DTD/svg11.dtd">
<!-- Generated by graphviz version 11.0.0 (20240428.1522)
 -->
<!-- Pages: 1 -->
<svg width="1014pt" height="668pt"
 viewBox="0.00 0.00 1014.21 667.50" xmlns="http://www.w3.org/2000/svg" xmlns:xlink="http://www.w3.org/1999/xlink">
<g id="graph0" class="graph" transform="scale(1 1) rotate(0) translate(4 663.5)">
<polygon fill="white" stroke="none" points="-4,4 -4,-663.5 1010.21,-663.5 1010.21,4 -4,4"/>
<text text-anchor="middle" x="503.11" y="-627" font-family="Times,serif" font-size="30.00">search</text>
<text text-anchor="middle" x="503.11" y="-593.25" font-family="Times,serif" font-size="30.00"> </text>
<!-- :shared:feature:search -->
<g id="node1" class="node">
<title>:shared:feature:search</title>
<polygon fill="#b59aff" stroke="black" points="649.63,-584 289.63,-584 289.63,-548 649.63,-548 649.63,-584"/>
<text text-anchor="middle" x="469.63" y="-560.95" font-family="Times,serif" font-size="14.00">:shared:feature:search</text>
</g>
<!-- :core:models -->
<g id="node2" class="node">
<title>:core:models</title>
<ellipse fill="#b59aff" stroke="black" cx="111.63" cy="-18" rx="59.03" ry="18"/>
<text text-anchor="middle" x="111.63" y="-12.95" font-family="Times,serif" font-size="14.00">:core:models</text>
</g>
<!-- :shared:feature:search&#45;&gt;:core:models -->
<g id="edge1" class="edge">
<title>:shared:feature:search&#45;&gt;:core:models</title>
<path fill="none" stroke="black" stroke-dasharray="1,5" d="M566.16,-547.78C566.16,-451.79 566.16,-9 566.16,-9 566.16,-9 174.84,-9 174.84,-9"/>
<polygon fill="black" stroke="black" points="174.84,-5.5 164.84,-9 174.84,-12.5 174.84,-5.5"/>
</g>
<!-- :domain -->
<g id="node3" class="node">
<title>:domain</title>
<ellipse fill="#b59aff" stroke="black" cx="41.63" cy="-155" rx="41.63" ry="18"/>
<text text-anchor="middle" x="41.63" y="-149.95" font-family="Times,serif" font-size="14.00">:domain</text>
</g>
<!-- :shared:feature:search&#45;&gt;:domain -->
<g id="edge2" class="edge">
<title>:shared:feature:search&#45;&gt;:domain</title>
<path fill="none" stroke="black" stroke-dasharray="1,5" d="M289.17,-566C162.15,-566 14.68,-566 14.68,-566 14.68,-566 14.68,-180.66 14.68,-180.66"/>
<polygon fill="black" stroke="black" points="18.18,-180.66 14.68,-170.66 11.18,-180.66 18.18,-180.66"/>
</g>
<!-- :strings -->
<g id="node4" class="node">
<title>:strings</title>
<ellipse fill="#b59aff" stroke="black" cx="910.63" cy="-18" rx="38.04" ry="18"/>
<text text-anchor="middle" x="910.63" y="-12.95" font-family="Times,serif" font-size="14.00">:strings</text>
</g>
<!-- :shared:feature:search&#45;&gt;:strings -->
<g id="edge3" class="edge">
<title>:shared:feature:search&#45;&gt;:strings</title>
<path fill="none" stroke="black" stroke-dasharray="1,5" d="M588.32,-547.58C588.32,-453.51 588.32,-31 588.32,-31 588.32,-31 871.91,-31 871.91,-31"/>
<polygon fill="black" stroke="black" points="871.91,-34.5 881.91,-31 871.91,-27.5 871.91,-34.5"/>
</g>
<!-- :ui:common -->
<g id="node5" class="node">
<title>:ui:common</title>
<ellipse fill="#b59aff" stroke="black" cx="469.63" cy="-429" rx="56.47" ry="18"/>
<text text-anchor="middle" x="469.63" y="-423.95" font-family="Times,serif" font-size="14.00">:ui:common</text>
</g>
<!-- :shared:feature:search&#45;&gt;:ui:common -->
<g id="edge4" class="edge">
<title>:shared:feature:search&#45;&gt;:ui:common</title>
<path fill="none" stroke="black" stroke-dasharray="1,5" d="M469.63,-547.52C469.63,-547.52 469.63,-458.7 469.63,-458.7"/>
<polygon fill="black" stroke="black" points="473.13,-458.7 469.63,-448.7 466.13,-458.7 473.13,-458.7"/>
</g>
<!-- :ui:core -->
<g id="node6" class="node">
<title>:ui:core</title>
<ellipse fill="#b59aff" stroke="black" cx="910.63" cy="-155" rx="39.07" ry="18"/>
<text text-anchor="middle" x="910.63" y="-149.95" font-family="Times,serif" font-size="14.00">:ui:core</text>
</g>
<!-- :shared:feature:search&#45;&gt;:ui:core -->
<g id="edge5" class="edge">
<title>:shared:feature:search&#45;&gt;:ui:core</title>
<path fill="none" stroke="black" stroke-dasharray="1,5" d="M650,-566C760.22,-566 880.17,-566 880.17,-566 880.17,-566 880.17,-177.93 880.17,-177.93"/>
<polygon fill="black" stroke="black" points="883.67,-177.93 880.17,-167.93 876.67,-177.94 883.67,-177.93"/>
</g>
<!-- :domain&#45;&gt;:core:models -->
<g id="edge6" class="edge">
<title>:domain&#45;&gt;:core:models</title>
<path fill="none" stroke="black" stroke-dasharray="1,5" d="M67.93,-140.6C67.93,-140.6 67.93,-41.73 67.93,-41.73"/>
<polygon fill="black" stroke="black" points="71.43,-41.73 67.93,-31.73 64.43,-41.73 71.43,-41.73"/>
</g>
<!-- :ui:common&#45;&gt;:core:models -->
<g id="edge9" class="edge">
<title>:ui:common&#45;&gt;:core:models</title>
<path fill="none" stroke="black" d="M509.85,-416C532.02,-416 555.09,-416 555.09,-416 555.09,-416 555.09,-13 555.09,-13 555.09,-13 180.21,-13 180.21,-13"/>
<polygon fill="black" stroke="black" points="180.21,-9.5 170.21,-13 180.21,-16.5 180.21,-9.5"/>
</g>
<!-- :ui:common&#45;&gt;:domain -->
<g id="edge14" class="edge">
<title>:ui:common&#45;&gt;:domain</title>
<path fill="none" stroke="black" stroke-dasharray="1,5" d="M422.09,-439C308.25,-439 29.36,-439 29.36,-439 29.36,-439 29.36,-183.85 29.36,-183.85"/>
<polygon fill="black" stroke="black" points="32.86,-183.85 29.36,-173.85 25.86,-183.85 32.86,-183.85"/>
</g>
<!-- :ui:common&#45;&gt;:strings -->
<g id="edge15" class="edge">
<title>:ui:common&#45;&gt;:strings</title>
<path fill="none" stroke="black" stroke-dasharray="1,5" d="M520.91,-421C548.63,-421 577.24,-421 577.24,-421 577.24,-421 577.24,-27 577.24,-27 577.24,-27 865.62,-27 865.62,-27"/>
<polygon fill="black" stroke="black" points="865.62,-30.5 875.62,-27 865.62,-23.5 865.62,-30.5"/>
</g>
<!-- :ui:common&#45;&gt;:ui:core -->
<g id="edge16" class="edge">
<title>:ui:common&#45;&gt;:ui:core</title>
<path fill="none" stroke="red" d="M522.09,-436C632.19,-436 877.3,-436 877.3,-436 877.3,-436 877.3,-176.19 877.3,-176.19"/>
<polygon fill="red" stroke="red" points="880.8,-176.19 877.3,-166.19 873.8,-176.19 880.8,-176.19"/>
</g>
<!-- :ui:test:image -->
<g id="node7" class="node">
<title>:ui:test:image</title>
<ellipse fill="#9affb5" stroke="black" cx="944.63" cy="-292" rx="61.59" ry="18"/>
<text text-anchor="middle" x="944.63" y="-286.95" font-family="Times,serif" font-size="14.00">:ui:test:image</text>
</g>
<!-- :ui:common&#45;&gt;:ui:test:image -->
<g id="edge7" class="edge">
<title>:ui:common&#45;&gt;:ui:test:image</title>
<path fill="none" stroke="#ff9ab1" d="M512.62,-441C629.54,-441 944.63,-441 944.63,-441 944.63,-441 944.63,-321.78 944.63,-321.78"/>
<polygon fill="#ff9ab1" stroke="#ff9ab1" points="948.13,-321.78 944.63,-311.78 941.13,-321.78 948.13,-321.78"/>
</g>
<!-- :ui:test:screenshot -->
<g id="node8" class="node">
<title>:ui:test:screenshot</title>
<ellipse fill="#9affb5" stroke="black" cx="787.63" cy="-292" rx="77.45" ry="18"/>
<text text-anchor="middle" x="787.63" y="-286.95" font-family="Times,serif" font-size="14.00">:ui:test:screenshot</text>
</g>
<!-- :ui:common&#45;&gt;:ui:test:screenshot -->
<g id="edge8" class="edge">
<title>:ui:common&#45;&gt;:ui:test:screenshot</title>
<path fill="none" stroke="#ff9ab1" d="M526.11,-431C617.49,-431 787.63,-431 787.63,-431 787.63,-431 787.63,-321.97 787.63,-321.97"/>
<polygon fill="#ff9ab1" stroke="#ff9ab1" points="791.13,-321.97 787.63,-311.97 784.13,-321.97 791.13,-321.97"/>
</g>
<!-- :data:coverart -->
<g id="node9" class="node">
<title>:data:coverart</title>
<ellipse fill="#b59aff" stroke="black" cx="105.63" cy="-292" rx="61.59" ry="18"/>
<text text-anchor="middle" x="105.63" y="-286.95" font-family="Times,serif" font-size="14.00">:data:coverart</text>
</g>
<!-- :ui:common&#45;&gt;:data:coverart -->
<g id="edge10" class="edge">
<title>:ui:common&#45;&gt;:data:coverart</title>
<path fill="none" stroke="orange" d="M413.55,-432C311.44,-432 105.63,-432 105.63,-432 105.63,-432 105.63,-321.82 105.63,-321.82"/>
<polygon fill="orange" stroke="orange" points="109.13,-321.82 105.63,-311.82 102.13,-321.82 109.13,-321.82"/>
</g>
<!-- :data:musicbrainz -->
<g id="node10" class="node">
<title>:data:musicbrainz</title>
<ellipse fill="#b59aff" stroke="black" cx="300.63" cy="-292" rx="76.94" ry="18"/>
<text text-anchor="middle" x="300.63" y="-286.95" font-family="Times,serif" font-size="14.00">:data:musicbrainz</text>
</g>
<!-- :ui:common&#45;&gt;:data:musicbrainz -->
<g id="edge11" class="edge">
<title>:ui:common&#45;&gt;:data:musicbrainz</title>
<path fill="none" stroke="orange" d="M423.95,-418C384.44,-418 333.6,-418 333.6,-418 333.6,-418 333.6,-320.25 333.6,-320.25"/>
<polygon fill="orange" stroke="orange" points="337.1,-320.25 333.6,-310.25 330.1,-320.25 337.1,-320.25"/>
</g>
<!-- :core:preferences -->
<g id="node11" class="node">
<title>:core:preferences</title>
<ellipse fill="#b59aff" stroke="black" cx="469.63" cy="-292" rx="74.38" ry="18"/>
<text text-anchor="middle" x="469.63" y="-286.95" font-family="Times,serif" font-size="14.00">:core:preferences</text>
</g>
<!-- :ui:common&#45;&gt;:core:preferences -->
<g id="edge12" class="edge">
<title>:ui:common&#45;&gt;:core:preferences</title>
<path fill="none" stroke="black" stroke-dasharray="1,5" d="M469.63,-410.52C469.63,-410.52 469.63,-321.7 469.63,-321.7"/>
<polygon fill="black" stroke="black" points="473.13,-321.7 469.63,-311.7 466.13,-321.7 473.13,-321.7"/>
</g>
<!-- :core:logging:api -->
<g id="node12" class="node">
<title>:core:logging:api</title>
<ellipse fill="#b59aff" stroke="black" cx="213.63" cy="-155" rx="73.87" ry="18"/>
<text text-anchor="middle" x="213.63" y="-149.95" font-family="Times,serif" font-size="14.00">:core:logging:api</text>
</g>
<!-- :ui:common&#45;&gt;:core:logging:api -->
<g id="edge13" class="edge">
<title>:ui:common&#45;&gt;:core:logging:api</title>
<path fill="none" stroke="black" stroke-dasharray="1,5" d="M414.14,-425C334.03,-425 195.45,-425 195.45,-425 195.45,-425 195.45,-184.23 195.45,-184.23"/>
<polygon fill="black" stroke="black" points="198.95,-184.23 195.45,-174.23 191.95,-184.23 198.95,-184.23"/>
</g>
<!-- :ui:image -->
<g id="node13" class="node">
<title>:ui:image</title>
<ellipse fill="#b59aff" stroke="black" cx="645.63" cy="-292" rx="46.23" ry="18"/>
<text text-anchor="middle" x="645.63" y="-286.95" font-family="Times,serif" font-size="14.00">:ui:image</text>
</g>
<!-- :ui:common&#45;&gt;:ui:image -->
<g id="edge17" class="edge">
<title>:ui:common&#45;&gt;:ui:image</title>
<path fill="none" stroke="red" d="M525.54,-426C569.91,-426 624.51,-426 624.51,-426 624.51,-426 624.51,-319.94 624.51,-319.94"/>
<polygon fill="red" stroke="red" points="628.01,-319.94 624.51,-309.94 621.01,-319.94 628.01,-319.94"/>
</g>
<!-- :ui:core&#45;&gt;:strings -->
<g id="edge18" class="edge">
<title>:ui:core&#45;&gt;:strings</title>
<path fill="none" stroke="black" d="M910.63,-136.52C910.63,-136.52 910.63,-47.7 910.63,-47.7"/>
<polygon fill="black" stroke="black" points="914.13,-47.7 910.63,-37.7 907.13,-47.7 914.13,-47.7"/>
</g>
<!-- :ui:test:screenshot&#45;&gt;:ui:core -->
<g id="edge19" class="edge">
<title>:ui:test:screenshot&#45;&gt;:ui:core</title>
<path fill="none" stroke="red" d="M865.47,-292C870.98,-292 874.43,-292 874.43,-292 874.43,-292 874.43,-173.88 874.43,-173.88"/>
<polygon fill="red" stroke="red" points="877.93,-173.88 874.43,-163.88 870.93,-173.88 877.93,-173.88"/>
</g>
<!-- :data:coverart&#45;&gt;:core:models -->
<g id="edge21" class="edge">
<title>:data:coverart&#45;&gt;:core:models</title>
<path fill="none" stroke="black" stroke-dasharray="1,5" d="M111.51,-273.6C111.51,-273.6 111.51,-47.84 111.51,-47.84"/>
<polygon fill="black" stroke="black" points="115.01,-47.84 111.51,-37.84 108.01,-47.84 115.01,-47.84"/>
</g>
<!-- :data:coverart&#45;&gt;:domain -->
<g id="edge22" class="edge">
<title>:data:coverart&#45;&gt;:domain</title>
<path fill="none" stroke="black" stroke-dasharray="1,5" d="M63.65,-278.61C63.65,-278.61 63.65,-182.25 63.65,-182.25"/>
<polygon fill="black" stroke="black" points="67.15,-182.25 63.65,-172.25 60.15,-182.25 67.15,-182.25"/>
</g>
<!-- :data:coverart&#45;&gt;:core:logging:api -->
<g id="edge20" class="edge">
<title>:data:coverart&#45;&gt;:core:logging:api</title>
<path fill="none" stroke="black" stroke-dasharray="1,5" d="M153.49,-280.32C153.49,-280.32 153.49,-177.03 153.49,-177.03"/>
<polygon fill="black" stroke="black" points="156.99,-177.03 153.49,-167.03 149.99,-177.03 156.99,-177.03"/>
</g>
<!-- :data:musicbrainz&#45;&gt;:core:models -->
<g id="edge24" class="edge">
<title>:data:musicbrainz&#45;&gt;:core:models</title>
<path fill="none" stroke="black" stroke-dasharray="1,5" d="M315.42,-273.87C315.42,-213.33 315.42,-22 315.42,-22 315.42,-22 180.99,-22 180.99,-22"/>
<polygon fill="black" stroke="black" points="180.99,-18.5 170.99,-22 180.99,-25.5 180.99,-18.5"/>
</g>
<!-- :data:musicbrainz&#45;&gt;:core:logging:api -->
<g id="edge23" class="edge">
<title>:data:musicbrainz&#45;&gt;:core:logging:api</title>
<path fill="none" stroke="black" stroke-dasharray="1,5" d="M255.59,-277.08C255.59,-277.08 255.59,-181.42 255.59,-181.42"/>
<polygon fill="black" stroke="black" points="259.09,-181.42 255.59,-171.42 252.09,-181.42 259.09,-181.42"/>
</g>
<!-- :core:preferences&#45;&gt;:core:models -->
<g id="edge26" class="edge">
<title>:core:preferences&#45;&gt;:core:models</title>
<path fill="none" stroke="black" stroke-dasharray="1,5" d="M513.96,-277.27C513.96,-220.36 513.96,-18 513.96,-18 513.96,-18 182.51,-18 182.51,-18"/>
<polygon fill="black" stroke="black" points="182.51,-14.5 172.51,-18 182.51,-21.5 182.51,-14.5"/>
</g>
<!-- :core:coroutines -->
<g id="node14" class="node">
<title>:core:coroutines</title>
<ellipse fill="#b59aff" stroke="black" cx="413.63" cy="-155" rx="70.29" ry="18"/>
<text text-anchor="middle" x="413.63" y="-149.95" font-family="Times,serif" font-size="14.00">:core:coroutines</text>
</g>
<!-- :core:preferences&#45;&gt;:core:coroutines -->
<g id="edge25" class="edge">
<title>:core:preferences&#45;&gt;:core:coroutines</title>
<path fill="none" stroke="black" stroke-dasharray="1,5" d="M439.58,-275.2C439.58,-275.2 439.58,-183.45 439.58,-183.45"/>
<polygon fill="black" stroke="black" points="443.08,-183.45 439.58,-173.45 436.08,-183.45 443.08,-183.45"/>
</g>
<!-- :ui:image&#45;&gt;:core:models -->
<g id="edge27" class="edge">
<title>:ui:image&#45;&gt;:core:models</title>
<path fill="none" stroke="black" stroke-dasharray="1,5" d="M630.22,-274.85C630.22,-212.85 630.22,-4 630.22,-4 630.22,-4 161.7,-4 161.7,-4"/>
<polygon fill="black" stroke="black" points="161.7,-0.5 151.7,-4 161.7,-7.5 161.7,-0.5"/>
</g>
<!-- :ui:image&#45;&gt;:ui:core -->
<g id="edge28" class="edge">
<title>:ui:image&#45;&gt;:ui:core</title>
<path fill="none" stroke="red" d="M661.04,-274.65C661.04,-237.78 661.04,-155 661.04,-155 661.04,-155 859.57,-155 859.57,-155"/>
<polygon fill="red" stroke="red" points="859.57,-158.5 869.57,-155 859.57,-151.5 859.57,-158.5"/>
</g>
</g>
</svg>
