<?xml version="1.0" encoding="UTF-8" standalone="no"?>
<!DOCTYPE svg PUBLIC "-//W3C//DTD SVG 1.1//EN"
 "http://www.w3.org/Graphics/SVG/1.1/DTD/svg11.dtd">
<!-- Generated by graphviz version 2.43.0 (0)
 -->
<!-- Title: %3 Pages: 1 -->
<svg width="1260pt" height="666pt"
 viewBox="0.00 0.00 1260.38 666.00" xmlns="http://www.w3.org/2000/svg" xmlns:xlink="http://www.w3.org/1999/xlink">
<g id="graph0" class="graph" transform="scale(1 1) rotate(0) translate(4 662)">
<title>%3</title>
<polygon fill="white" stroke="transparent" points="-4,4 -4,-662 1256.38,-662 1256.38,4 -4,4"/>
<text text-anchor="middle" x="626.19" y="-630" font-family="Times,serif" font-size="30.00">Dependencies</text>
<text text-anchor="middle" x="626.19" y="-597" font-family="Times,serif" font-size="30.00"> </text>
<!-- :shared:feature:search -->
<g id="node1" class="node">
<title>:shared:feature:search</title>
<polygon fill="#b59aff" stroke="black" points="683.54,-584 505.54,-584 505.54,-548 683.54,-548 683.54,-584"/>
<text text-anchor="middle" x="594.54" y="-562.3" font-family="Times,serif" font-size="14.00">:shared:feature:search</text>
</g>
<!-- :core:models -->
<g id="node2" class="node">
<title>:core:models</title>
<ellipse fill="#b59aff" stroke="black" cx="534.54" cy="-18" rx="69.59" ry="18"/>
<text text-anchor="middle" x="534.54" y="-14.3" font-family="Times,serif" font-size="14.00">:core:models</text>
</g>
<!-- :shared:feature:search&#45;&gt;:core:models -->
<g id="edge1" class="edge">
<title>:shared:feature:search&#45;&gt;:core:models</title>
<path fill="none" stroke="black" stroke-dasharray="1,5" d="M518.17,-547.77C518.17,-547.77 518.17,-45.75 518.17,-45.75"/>
<polygon fill="black" stroke="black" points="521.67,-45.75 518.17,-35.75 514.67,-45.75 521.67,-45.75"/>
</g>
<!-- :shared:domain -->
<g id="node3" class="node">
<title>:shared:domain</title>
<ellipse fill="#b59aff" stroke="black" cx="82.54" cy="-155" rx="82.59" ry="18"/>
<text text-anchor="middle" x="82.54" y="-151.3" font-family="Times,serif" font-size="14.00">:shared:domain</text>
</g>
<!-- :shared:feature:search&#45;&gt;:shared:domain -->
<g id="edge2" class="edge">
<title>:shared:feature:search&#45;&gt;:shared:domain</title>
<path fill="none" stroke="black" stroke-dasharray="1,5" d="M505.25,-566C347.69,-566 36.83,-566 36.83,-566 36.83,-566 36.83,-180.12 36.83,-180.12"/>
<polygon fill="black" stroke="black" points="40.33,-180.12 36.83,-170.12 33.33,-180.12 40.33,-180.12"/>
</g>
<!-- :ui:common -->
<g id="node4" class="node">
<title>:ui:common</title>
<ellipse fill="#b59aff" stroke="black" cx="594.54" cy="-429" rx="64.19" ry="18"/>
<text text-anchor="middle" x="594.54" y="-425.3" font-family="Times,serif" font-size="14.00">:ui:common</text>
</g>
<!-- :shared:feature:search&#45;&gt;:ui:common -->
<g id="edge3" class="edge">
<title>:shared:feature:search&#45;&gt;:ui:common</title>
<path fill="none" stroke="black" stroke-dasharray="1,5" d="M594.54,-547.81C594.54,-547.81 594.54,-457.27 594.54,-457.27"/>
<polygon fill="black" stroke="black" points="598.04,-457.27 594.54,-447.27 591.04,-457.27 598.04,-457.27"/>
</g>
<!-- :shared:domain&#45;&gt;:core:models -->
<g id="edge4" class="edge">
<title>:shared:domain&#45;&gt;:core:models</title>
<path fill="none" stroke="black" stroke-dasharray="1,5" d="M82.54,-136.89C82.54,-98.41 82.54,-12 82.54,-12 82.54,-12 458.82,-12 458.82,-12"/>
<polygon fill="black" stroke="black" points="458.82,-15.5 468.82,-12 458.82,-8.5 458.82,-15.5"/>
</g>
<!-- :ui:common&#45;&gt;:core:models -->
<g id="edge7" class="edge">
<title>:ui:common&#45;&gt;:core:models</title>
<path fill="none" stroke="black" d="M549.52,-415.79C549.52,-415.79 549.52,-45.8 549.52,-45.8"/>
<polygon fill="black" stroke="black" points="553.02,-45.8 549.52,-35.8 546.02,-45.8 553.02,-45.8"/>
</g>
<!-- :ui:common&#45;&gt;:shared:domain -->
<g id="edge13" class="edge">
<title>:ui:common&#45;&gt;:shared:domain</title>
<path fill="none" stroke="black" stroke-dasharray="1,5" d="M533.77,-435C396.37,-435 73.67,-435 73.67,-435 73.67,-435 73.67,-182.94 73.67,-182.94"/>
<polygon fill="black" stroke="black" points="77.17,-182.94 73.67,-172.94 70.17,-182.94 77.17,-182.94"/>
</g>
<!-- :ui:test:image -->
<g id="node5" class="node">
<title>:ui:test:image</title>
<ellipse fill="#9affb5" stroke="black" cx="965.54" cy="-292" rx="74.99" ry="18"/>
<text text-anchor="middle" x="965.54" y="-288.3" font-family="Times,serif" font-size="14.00">:ui:test:image</text>
</g>
<!-- :ui:common&#45;&gt;:ui:test:image -->
<g id="edge5" class="edge">
<title>:ui:common&#45;&gt;:ui:test:image</title>
<path fill="none" stroke="#ff9ab1" stroke-dasharray="1,5" d="M658.32,-432C764.39,-432 965.54,-432 965.54,-432 965.54,-432 965.54,-320.02 965.54,-320.02"/>
<polygon fill="#ff9ab1" stroke="#ff9ab1" points="969.04,-320.02 965.54,-310.02 962.04,-320.02 969.04,-320.02"/>
</g>
<!-- :ui:test:screenshot -->
<g id="node6" class="node">
<title>:ui:test:screenshot</title>
<ellipse fill="#9affb5" stroke="black" cx="1155.54" cy="-292" rx="96.68" ry="18"/>
<text text-anchor="middle" x="1155.54" y="-288.3" font-family="Times,serif" font-size="14.00">:ui:test:screenshot</text>
</g>
<!-- :ui:common&#45;&gt;:ui:test:screenshot -->
<g id="edge6" class="edge">
<title>:ui:common&#45;&gt;:ui:test:screenshot</title>
<path fill="none" stroke="#ff9ab1" stroke-dasharray="1,5" d="M648.08,-439C788.3,-439 1155.54,-439 1155.54,-439 1155.54,-439 1155.54,-320.03 1155.54,-320.03"/>
<polygon fill="#ff9ab1" stroke="#ff9ab1" points="1159.04,-320.03 1155.54,-310.03 1152.04,-320.03 1159.04,-320.03"/>
</g>
<!-- :ui:core -->
<g id="node7" class="node">
<title>:ui:core</title>
<ellipse fill="#b59aff" stroke="black" cx="1155.54" cy="-155" rx="45.49" ry="18"/>
<text text-anchor="middle" x="1155.54" y="-151.3" font-family="Times,serif" font-size="14.00">:ui:core</text>
</g>
<!-- :ui:common&#45;&gt;:ui:core -->
<g id="edge8" class="edge">
<title>:ui:common&#45;&gt;:ui:core</title>
<path fill="none" stroke="black" d="M645.88,-418C692.95,-418 755.39,-418 755.39,-418 755.39,-418 755.39,-149 755.39,-149 755.39,-149 1102.34,-149 1102.34,-149"/>
<polygon fill="black" stroke="black" points="1102.34,-152.5 1112.34,-149 1102.34,-145.5 1102.34,-152.5"/>
</g>
<!-- :data:coverart -->
<g id="node8" class="node">
<title>:data:coverart</title>
<ellipse fill="#b59aff" stroke="black" cx="186.54" cy="-292" rx="76.09" ry="18"/>
<text text-anchor="middle" x="186.54" y="-288.3" font-family="Times,serif" font-size="14.00">:data:coverart</text>
</g>
<!-- :ui:common&#45;&gt;:data:coverart -->
<g id="edge9" class="edge">
<title>:ui:common&#45;&gt;:data:coverart</title>
<path fill="none" stroke="black" stroke-dasharray="1,5" d="M533.46,-423C419.64,-423 186.54,-423 186.54,-423 186.54,-423 186.54,-320.21 186.54,-320.21"/>
<polygon fill="black" stroke="black" points="190.04,-320.21 186.54,-310.21 183.04,-320.22 190.04,-320.21"/>
</g>
<!-- :data:musicbrainz -->
<g id="node9" class="node">
<title>:data:musicbrainz</title>
<ellipse fill="#b59aff" stroke="black" cx="412.54" cy="-292" rx="93.68" ry="18"/>
<text text-anchor="middle" x="412.54" y="-288.3" font-family="Times,serif" font-size="14.00">:data:musicbrainz</text>
</g>
<!-- :ui:common&#45;&gt;:data:musicbrainz -->
<g id="edge10" class="edge">
<title>:ui:common&#45;&gt;:data:musicbrainz</title>
<path fill="none" stroke="black" stroke-dasharray="1,5" d="M536.64,-420.81C536.64,-392.13 536.64,-298 536.64,-298 536.64,-298 511.08,-298 511.08,-298"/>
<polygon fill="black" stroke="black" points="511.08,-294.5 501.08,-298 511.08,-301.5 511.08,-294.5"/>
</g>
<!-- :core:preferences -->
<g id="node10" class="node">
<title>:core:preferences</title>
<ellipse fill="#b59aff" stroke="black" cx="654.54" cy="-292" rx="91.78" ry="18"/>
<text text-anchor="middle" x="654.54" y="-288.3" font-family="Times,serif" font-size="14.00">:core:preferences</text>
</g>
<!-- :ui:common&#45;&gt;:core:preferences -->
<g id="edge11" class="edge">
<title>:ui:common&#45;&gt;:core:preferences</title>
<path fill="none" stroke="black" stroke-dasharray="1,5" d="M610.89,-411.37C610.89,-411.37 610.89,-317.86 610.89,-317.86"/>
<polygon fill="black" stroke="black" points="614.39,-317.86 610.89,-307.86 607.39,-317.86 614.39,-317.86"/>
</g>
<!-- :core:logging:api -->
<g id="node11" class="node">
<title>:core:logging:api</title>
<ellipse fill="#b59aff" stroke="black" cx="309.54" cy="-155" rx="88.28" ry="18"/>
<text text-anchor="middle" x="309.54" y="-151.3" font-family="Times,serif" font-size="14.00">:core:logging:api</text>
</g>
<!-- :ui:common&#45;&gt;:core:logging:api -->
<g id="edge12" class="edge">
<title>:ui:common&#45;&gt;:core:logging:api</title>
<path fill="none" stroke="black" stroke-dasharray="1,5" d="M543.08,-417.92C543.08,-366.66 543.08,-155 543.08,-155 543.08,-155 408.17,-155 408.17,-155"/>
<polygon fill="black" stroke="black" points="408.17,-151.5 398.17,-155 408.17,-158.5 408.17,-151.5"/>
</g>
<!-- :ui:image -->
<g id="node12" class="node">
<title>:ui:image</title>
<ellipse fill="#b59aff" stroke="black" cx="818.54" cy="-292" rx="53.89" ry="18"/>
<text text-anchor="middle" x="818.54" y="-288.3" font-family="Times,serif" font-size="14.00">:ui:image</text>
</g>
<!-- :ui:common&#45;&gt;:ui:image -->
<g id="edge14" class="edge">
<title>:ui:common&#45;&gt;:ui:image</title>
<path fill="none" stroke="black" stroke-dasharray="1,5" d="M657.54,-425C723.79,-425 818.54,-425 818.54,-425 818.54,-425 818.54,-320.21 818.54,-320.21"/>
<polygon fill="black" stroke="black" points="822.04,-320.21 818.54,-310.21 815.04,-320.21 822.04,-320.21"/>
</g>
<!-- :ui:test:screenshot&#45;&gt;:ui:core -->
<g id="edge15" class="edge">
<title>:ui:test:screenshot&#45;&gt;:ui:core</title>
<path fill="none" stroke="black" stroke-dasharray="1,5" d="M1155.54,-273.81C1155.54,-273.81 1155.54,-183.27 1155.54,-183.27"/>
<polygon fill="black" stroke="black" points="1159.04,-183.27 1155.54,-173.27 1152.04,-183.27 1159.04,-183.27"/>
</g>
<!-- :shared:strings -->
<g id="node13" class="node">
<title>:shared:strings</title>
<ellipse fill="#b59aff" stroke="black" cx="1155.54" cy="-18" rx="81.49" ry="18"/>
<text text-anchor="middle" x="1155.54" y="-14.3" font-family="Times,serif" font-size="14.00">:shared:strings</text>
</g>
<!-- :ui:core&#45;&gt;:shared:strings -->
<g id="edge16" class="edge">
<title>:ui:core&#45;&gt;:shared:strings</title>
<path fill="none" stroke="black" d="M1155.54,-136.81C1155.54,-136.81 1155.54,-46.27 1155.54,-46.27"/>
<polygon fill="black" stroke="black" points="1159.04,-46.27 1155.54,-36.27 1152.04,-46.27 1159.04,-46.27"/>
</g>
<!-- :data:coverart&#45;&gt;:core:models -->
<g id="edge18" class="edge">
<title>:data:coverart&#45;&gt;:core:models</title>
<path fill="none" stroke="black" stroke-dasharray="1,5" d="M193.12,-274C193.12,-213.91 193.12,-24 193.12,-24 193.12,-24 458.71,-24 458.71,-24"/>
<polygon fill="black" stroke="black" points="458.71,-27.5 468.71,-24 458.71,-20.5 458.71,-27.5"/>
</g>
<!-- :data:coverart&#45;&gt;:shared:domain -->
<g id="edge19" class="edge">
<title>:data:coverart&#45;&gt;:shared:domain</title>
<path fill="none" stroke="black" stroke-dasharray="1,5" d="M137.79,-278.11C137.79,-278.11 137.79,-178.52 137.79,-178.52"/>
<polygon fill="black" stroke="black" points="141.29,-178.52 137.79,-168.52 134.29,-178.52 141.29,-178.52"/>
</g>
<!-- :data:coverart&#45;&gt;:core:logging:api -->
<g id="edge17" class="edge">
<title>:data:coverart&#45;&gt;:core:logging:api</title>
<path fill="none" stroke="black" stroke-dasharray="1,5" d="M241.87,-279.36C241.87,-279.36 241.87,-176.83 241.87,-176.83"/>
<polygon fill="black" stroke="black" points="245.37,-176.83 241.87,-166.83 238.37,-176.83 245.37,-176.83"/>
</g>
<!-- :data:musicbrainz&#45;&gt;:core:models -->
<g id="edge21" class="edge">
<title>:data:musicbrainz&#45;&gt;:core:models</title>
<path fill="none" stroke="black" stroke-dasharray="1,5" d="M485.57,-280.58C485.57,-280.58 485.57,-41.04 485.57,-41.04"/>
<polygon fill="black" stroke="black" points="489.07,-41.04 485.57,-31.04 482.07,-41.04 489.07,-41.04"/>
</g>
<!-- :data:musicbrainz&#45;&gt;:core:logging:api -->
<g id="edge20" class="edge">
<title>:data:musicbrainz&#45;&gt;:core:logging:api</title>
<path fill="none" stroke="black" stroke-dasharray="1,5" d="M358.44,-277.08C358.44,-277.08 358.44,-180.32 358.44,-180.32"/>
<polygon fill="black" stroke="black" points="361.94,-180.32 358.44,-170.32 354.94,-180.32 361.94,-180.32"/>
</g>
<!-- :core:preferences&#45;&gt;:core:models -->
<g id="edge23" class="edge">
<title>:core:preferences&#45;&gt;:core:models</title>
<path fill="none" stroke="black" stroke-dasharray="1,5" d="M568.05,-286C560.68,-286 555.96,-286 555.96,-286 555.96,-286 555.96,-45.17 555.96,-45.17"/>
<polygon fill="black" stroke="black" points="559.46,-45.17 555.96,-35.17 552.46,-45.17 559.46,-45.17"/>
</g>
<!-- :core:coroutines -->
<g id="node14" class="node">
<title>:core:coroutines</title>
<ellipse fill="#b59aff" stroke="black" cx="647.54" cy="-155" rx="85.29" ry="18"/>
<text text-anchor="middle" x="647.54" y="-151.3" font-family="Times,serif" font-size="14.00">:core:coroutines</text>
</g>
<!-- :core:preferences&#45;&gt;:core:coroutines -->
<g id="edge22" class="edge">
<title>:core:preferences&#45;&gt;:core:coroutines</title>
<path fill="none" stroke="black" stroke-dasharray="1,5" d="M647.79,-273.81C647.79,-273.81 647.79,-183.27 647.79,-183.27"/>
<polygon fill="black" stroke="black" points="651.29,-183.27 647.79,-173.27 644.29,-183.27 651.29,-183.27"/>
</g>
<!-- :ui:image&#45;&gt;:core:models -->
<g id="edge24" class="edge">
<title>:ui:image&#45;&gt;:core:models</title>
<path fill="none" stroke="black" stroke-dasharray="1,5" d="M800.56,-274.86C800.56,-214.87 800.56,-18 800.56,-18 800.56,-18 614.09,-18 614.09,-18"/>
<polygon fill="black" stroke="black" points="614.09,-14.5 604.09,-18 614.09,-21.5 614.09,-14.5"/>
</g>
<!-- :ui:image&#45;&gt;:ui:core -->
<g id="edge25" class="edge">
<title>:ui:image&#45;&gt;:ui:core</title>
<path fill="none" stroke="black" stroke-dasharray="1,5" d="M836.52,-274.87C836.52,-239.36 836.52,-161 836.52,-161 836.52,-161 1102.52,-161 1102.52,-161"/>
<polygon fill="black" stroke="black" points="1102.52,-164.5 1112.52,-161 1102.52,-157.5 1102.52,-164.5"/>
</g>
</g>
</svg>
