<?xml version="1.0" encoding="UTF-8" standalone="no"?>
<!DOCTYPE svg PUBLIC "-//W3C//DTD SVG 1.1//EN"
 "http://www.w3.org/Graphics/SVG/1.1/DTD/svg11.dtd">
<!-- Generated by graphviz version 2.43.0 (0)
 -->
<!-- Title: %3 Pages: 1 -->
<svg width="1296pt" height="666pt"
 viewBox="0.00 0.00 1296.38 666.00" xmlns="http://www.w3.org/2000/svg" xmlns:xlink="http://www.w3.org/1999/xlink">
<g id="graph0" class="graph" transform="scale(1 1) rotate(0) translate(4 662)">
<title>%3</title>
<polygon fill="white" stroke="transparent" points="-4,4 -4,-662 1292.38,-662 1292.38,4 -4,4"/>
<text text-anchor="middle" x="644.19" y="-630" font-family="Times,serif" font-size="30.00">Dependencies</text>
<text text-anchor="middle" x="644.19" y="-597" font-family="Times,serif" font-size="30.00"> </text>
<!-- :shared:feature:search -->
<g id="node1" class="node">
<title>:shared:feature:search</title>
<polygon fill="#b59aff" stroke="black" points="1138.54,-584 960.54,-584 960.54,-548 1138.54,-548 1138.54,-584"/>
<text text-anchor="middle" x="1049.54" y="-562.3" font-family="Times,serif" font-size="14.00">:shared:feature:search</text>
</g>
<!-- :core:models -->
<g id="node2" class="node">
<title>:core:models</title>
<ellipse fill="#b59aff" stroke="black" cx="835.54" cy="-18" rx="69.59" ry="18"/>
<text text-anchor="middle" x="835.54" y="-14.3" font-family="Times,serif" font-size="14.00">:core:models</text>
</g>
<!-- :shared:feature:search&#45;&gt;:core:models -->
<g id="edge1" class="edge">
<title>:shared:feature:search&#45;&gt;:core:models</title>
<path fill="none" stroke="black" stroke-dasharray="1,5" d="M960.24,-560C923.61,-560 889.64,-560 889.64,-560 889.64,-560 889.64,-39.32 889.64,-39.32"/>
<polygon fill="black" stroke="black" points="893.14,-39.32 889.64,-29.32 886.14,-39.32 893.14,-39.32"/>
</g>
<!-- :shared:domain -->
<g id="node3" class="node">
<title>:shared:domain</title>
<ellipse fill="#b59aff" stroke="black" cx="82.54" cy="-155" rx="82.59" ry="18"/>
<text text-anchor="middle" x="82.54" y="-151.3" font-family="Times,serif" font-size="14.00">:shared:domain</text>
</g>
<!-- :shared:feature:search&#45;&gt;:shared:domain -->
<g id="edge2" class="edge">
<title>:shared:feature:search&#45;&gt;:shared:domain</title>
<path fill="none" stroke="black" stroke-dasharray="1,5" d="M960.12,-572C712.63,-572 36.83,-572 36.83,-572 36.83,-572 36.83,-180.34 36.83,-180.34"/>
<polygon fill="black" stroke="black" points="40.33,-180.34 36.83,-170.34 33.33,-180.34 40.33,-180.34"/>
</g>
<!-- :ui:common -->
<g id="node4" class="node">
<title>:ui:common</title>
<ellipse fill="#b59aff" stroke="black" cx="782.54" cy="-429" rx="64.19" ry="18"/>
<text text-anchor="middle" x="782.54" y="-425.3" font-family="Times,serif" font-size="14.00">:ui:common</text>
</g>
<!-- :shared:feature:search&#45;&gt;:ui:common -->
<g id="edge3" class="edge">
<title>:shared:feature:search&#45;&gt;:ui:common</title>
<path fill="none" stroke="black" stroke-dasharray="1,5" d="M999.52,-547.82C999.52,-513.16 999.52,-441 999.52,-441 999.52,-441 840.7,-441 840.7,-441"/>
<polygon fill="black" stroke="black" points="840.7,-437.5 830.7,-441 840.7,-444.5 840.7,-437.5"/>
</g>
<!-- :ui:core -->
<g id="node5" class="node">
<title>:ui:core</title>
<ellipse fill="#b59aff" stroke="black" cx="1128.54" cy="-155" rx="45.49" ry="18"/>
<text text-anchor="middle" x="1128.54" y="-151.3" font-family="Times,serif" font-size="14.00">:ui:core</text>
</g>
<!-- :shared:feature:search&#45;&gt;:ui:core -->
<g id="edge4" class="edge">
<title>:shared:feature:search&#45;&gt;:ui:core</title>
<path fill="none" stroke="black" stroke-dasharray="1,5" d="M1091.79,-547.81C1091.79,-547.81 1091.79,-175.89 1091.79,-175.89"/>
<polygon fill="black" stroke="black" points="1095.29,-175.89 1091.79,-165.89 1088.29,-175.89 1095.29,-175.89"/>
</g>
<!-- :shared:domain&#45;&gt;:core:models -->
<g id="edge5" class="edge">
<title>:shared:domain&#45;&gt;:core:models</title>
<path fill="none" stroke="black" stroke-dasharray="1,5" d="M82.54,-136.8C82.54,-97.67 82.54,-9 82.54,-9 82.54,-9 765.19,-9 765.19,-9"/>
<polygon fill="black" stroke="black" points="765.19,-12.5 775.19,-9 765.19,-5.5 765.19,-12.5"/>
</g>
<!-- :ui:common&#45;&gt;:core:models -->
<g id="edge8" class="edge">
<title>:ui:common&#45;&gt;:core:models</title>
<path fill="none" stroke="black" d="M830.77,-417C856.09,-417 881.91,-417 881.91,-417 881.91,-417 881.91,-41.73 881.91,-41.73"/>
<polygon fill="black" stroke="black" points="885.41,-41.73 881.91,-31.73 878.41,-41.73 885.41,-41.73"/>
</g>
<!-- :ui:common&#45;&gt;:shared:domain -->
<g id="edge13" class="edge">
<title>:ui:common&#45;&gt;:shared:domain</title>
<path fill="none" stroke="black" stroke-dasharray="1,5" d="M734.38,-441C574.83,-441 73.67,-441 73.67,-441 73.67,-441 73.67,-183.33 73.67,-183.33"/>
<polygon fill="black" stroke="black" points="77.17,-183.33 73.67,-173.33 70.17,-183.33 77.17,-183.33"/>
</g>
<!-- :ui:common&#45;&gt;:ui:core -->
<g id="edge14" class="edge">
<title>:ui:common&#45;&gt;:ui:core</title>
<path fill="none" stroke="black" stroke-dasharray="1,5" d="M847.13,-429C937.01,-429 1088.87,-429 1088.87,-429 1088.87,-429 1088.87,-174.12 1088.87,-174.12"/>
<polygon fill="black" stroke="black" points="1092.37,-174.12 1088.87,-164.12 1085.37,-174.12 1092.37,-174.12"/>
</g>
<!-- :ui:test:image -->
<g id="node6" class="node">
<title>:ui:test:image</title>
<ellipse fill="#9affb5" stroke="black" cx="393.54" cy="-292" rx="74.99" ry="18"/>
<text text-anchor="middle" x="393.54" y="-288.3" font-family="Times,serif" font-size="14.00">:ui:test:image</text>
</g>
<!-- :ui:common&#45;&gt;:ui:test:image -->
<g id="edge6" class="edge">
<title>:ui:common&#45;&gt;:ui:test:image</title>
<path fill="none" stroke="#ff9ab1" stroke-dasharray="1,5" d="M721.76,-423C612.36,-423 393.54,-423 393.54,-423 393.54,-423 393.54,-320.21 393.54,-320.21"/>
<polygon fill="#ff9ab1" stroke="#ff9ab1" points="397.04,-320.21 393.54,-310.21 390.04,-320.22 397.04,-320.21"/>
</g>
<!-- :ui:test:screenshot -->
<g id="node7" class="node">
<title>:ui:test:screenshot</title>
<ellipse fill="#9affb5" stroke="black" cx="1191.54" cy="-292" rx="96.68" ry="18"/>
<text text-anchor="middle" x="1191.54" y="-288.3" font-family="Times,serif" font-size="14.00">:ui:test:screenshot</text>
</g>
<!-- :ui:common&#45;&gt;:ui:test:screenshot -->
<g id="edge7" class="edge">
<title>:ui:common&#45;&gt;:ui:test:screenshot</title>
<path fill="none" stroke="#ff9ab1" stroke-dasharray="1,5" d="M843.43,-435C939.79,-435 1116.62,-435 1116.62,-435 1116.62,-435 1116.62,-313.7 1116.62,-313.7"/>
<polygon fill="#ff9ab1" stroke="#ff9ab1" points="1120.12,-313.7 1116.62,-303.7 1113.12,-313.7 1120.12,-313.7"/>
</g>
<!-- :data:coverart -->
<g id="node8" class="node">
<title>:data:coverart</title>
<ellipse fill="#b59aff" stroke="black" cx="186.54" cy="-292" rx="76.09" ry="18"/>
<text text-anchor="middle" x="186.54" y="-288.3" font-family="Times,serif" font-size="14.00">:data:coverart</text>
</g>
<!-- :ui:common&#45;&gt;:data:coverart -->
<g id="edge9" class="edge">
<title>:ui:common&#45;&gt;:data:coverart</title>
<path fill="none" stroke="black" stroke-dasharray="1,5" d="M721.84,-435C570.13,-435 186.54,-435 186.54,-435 186.54,-435 186.54,-320.11 186.54,-320.11"/>
<polygon fill="black" stroke="black" points="190.04,-320.11 186.54,-310.11 183.04,-320.11 190.04,-320.11"/>
</g>
<!-- :data:musicbrainz -->
<g id="node9" class="node">
<title>:data:musicbrainz</title>
<ellipse fill="#b59aff" stroke="black" cx="579.54" cy="-292" rx="93.68" ry="18"/>
<text text-anchor="middle" x="579.54" y="-288.3" font-family="Times,serif" font-size="14.00">:data:musicbrainz</text>
</g>
<!-- :ui:common&#45;&gt;:data:musicbrainz -->
<g id="edge10" class="edge">
<title>:ui:common&#45;&gt;:data:musicbrainz</title>
<path fill="none" stroke="black" stroke-dasharray="1,5" d="M734.43,-417C674.4,-417 579.54,-417 579.54,-417 579.54,-417 579.54,-320.18 579.54,-320.18"/>
<polygon fill="black" stroke="black" points="583.04,-320.18 579.54,-310.18 576.04,-320.18 583.04,-320.18"/>
</g>
<!-- :core:preferences -->
<g id="node10" class="node">
<title>:core:preferences</title>
<ellipse fill="#b59aff" stroke="black" cx="782.54" cy="-292" rx="91.78" ry="18"/>
<text text-anchor="middle" x="782.54" y="-288.3" font-family="Times,serif" font-size="14.00">:core:preferences</text>
</g>
<!-- :ui:common&#45;&gt;:core:preferences -->
<g id="edge11" class="edge">
<title>:ui:common&#45;&gt;:core:preferences</title>
<path fill="none" stroke="black" stroke-dasharray="1,5" d="M782.54,-410.81C782.54,-410.81 782.54,-320.27 782.54,-320.27"/>
<polygon fill="black" stroke="black" points="786.04,-320.27 782.54,-310.27 779.04,-320.27 786.04,-320.27"/>
</g>
<!-- :core:logging:api -->
<g id="node11" class="node">
<title>:core:logging:api</title>
<ellipse fill="#b59aff" stroke="black" cx="309.54" cy="-155" rx="88.28" ry="18"/>
<text text-anchor="middle" x="309.54" y="-151.3" font-family="Times,serif" font-size="14.00">:core:logging:api</text>
</g>
<!-- :ui:common&#45;&gt;:core:logging:api -->
<g id="edge12" class="edge">
<title>:ui:common&#45;&gt;:core:logging:api</title>
<path fill="none" stroke="black" stroke-dasharray="1,5" d="M717.99,-429C584.55,-429 290.69,-429 290.69,-429 290.69,-429 290.69,-182.98 290.69,-182.98"/>
<polygon fill="black" stroke="black" points="294.19,-182.98 290.69,-172.98 287.19,-182.98 294.19,-182.98"/>
</g>
<!-- :ui:image -->
<g id="node12" class="node">
<title>:ui:image</title>
<ellipse fill="#b59aff" stroke="black" cx="984.54" cy="-292" rx="53.89" ry="18"/>
<text text-anchor="middle" x="984.54" y="-288.3" font-family="Times,serif" font-size="14.00">:ui:image</text>
</g>
<!-- :ui:common&#45;&gt;:ui:image -->
<g id="edge15" class="edge">
<title>:ui:common&#45;&gt;:ui:image</title>
<path fill="none" stroke="black" stroke-dasharray="1,5" d="M843.25,-423C889.6,-423 945.57,-423 945.57,-423 945.57,-423 945.57,-314.56 945.57,-314.56"/>
<polygon fill="black" stroke="black" points="949.07,-314.56 945.57,-304.56 942.07,-314.56 949.07,-314.56"/>
</g>
<!-- :shared:strings -->
<g id="node13" class="node">
<title>:shared:strings</title>
<ellipse fill="#b59aff" stroke="black" cx="1128.54" cy="-18" rx="81.49" ry="18"/>
<text text-anchor="middle" x="1128.54" y="-14.3" font-family="Times,serif" font-size="14.00">:shared:strings</text>
</g>
<!-- :ui:core&#45;&gt;:shared:strings -->
<g id="edge16" class="edge">
<title>:ui:core&#45;&gt;:shared:strings</title>
<path fill="none" stroke="black" d="M1128.54,-136.81C1128.54,-136.81 1128.54,-46.27 1128.54,-46.27"/>
<polygon fill="black" stroke="black" points="1132.04,-46.27 1128.54,-36.27 1125.04,-46.27 1132.04,-46.27"/>
</g>
<!-- :ui:test:screenshot&#45;&gt;:ui:core -->
<g id="edge17" class="edge">
<title>:ui:test:screenshot&#45;&gt;:ui:core</title>
<path fill="none" stroke="black" stroke-dasharray="1,5" d="M1134.37,-277.34C1134.37,-277.34 1134.37,-183.01 1134.37,-183.01"/>
<polygon fill="black" stroke="black" points="1137.87,-183.01 1134.37,-173.01 1130.87,-183.01 1137.87,-183.01"/>
</g>
<!-- :data:coverart&#45;&gt;:core:models -->
<g id="edge19" class="edge">
<title>:data:coverart&#45;&gt;:core:models</title>
<path fill="none" stroke="black" stroke-dasharray="1,5" d="M193.12,-274.02C193.12,-213.06 193.12,-18 193.12,-18 193.12,-18 755.88,-18 755.88,-18"/>
<polygon fill="black" stroke="black" points="755.88,-21.5 765.88,-18 755.88,-14.5 755.88,-21.5"/>
</g>
<!-- :data:coverart&#45;&gt;:shared:domain -->
<g id="edge20" class="edge">
<title>:data:coverart&#45;&gt;:shared:domain</title>
<path fill="none" stroke="black" stroke-dasharray="1,5" d="M137.79,-278.11C137.79,-278.11 137.79,-178.52 137.79,-178.52"/>
<polygon fill="black" stroke="black" points="141.29,-178.52 137.79,-168.52 134.29,-178.52 141.29,-178.52"/>
</g>
<!-- :data:coverart&#45;&gt;:core:logging:api -->
<g id="edge18" class="edge">
<title>:data:coverart&#45;&gt;:core:logging:api</title>
<path fill="none" stroke="black" stroke-dasharray="1,5" d="M241.87,-279.36C241.87,-279.36 241.87,-176.83 241.87,-176.83"/>
<polygon fill="black" stroke="black" points="245.37,-176.83 241.87,-166.83 238.37,-176.83 245.37,-176.83"/>
</g>
<!-- :data:musicbrainz&#45;&gt;:core:models -->
<g id="edge22" class="edge">
<title>:data:musicbrainz&#45;&gt;:core:models</title>
<path fill="none" stroke="black" stroke-dasharray="1,5" d="M586.92,-273.79C586.92,-213.91 586.92,-27 586.92,-27 586.92,-27 765.04,-27 765.04,-27"/>
<polygon fill="black" stroke="black" points="765.04,-30.5 775.04,-27 765.04,-23.5 765.04,-30.5"/>
</g>
<!-- :data:musicbrainz&#45;&gt;:core:logging:api -->
<g id="edge21" class="edge">
<title>:data:musicbrainz&#45;&gt;:core:logging:api</title>
<path fill="none" stroke="black" stroke-dasharray="1,5" d="M536.43,-276.02C536.43,-239.88 536.43,-155 536.43,-155 536.43,-155 408.24,-155 408.24,-155"/>
<polygon fill="black" stroke="black" points="408.24,-151.5 398.24,-155 408.24,-158.5 408.24,-151.5"/>
</g>
<!-- :core:preferences&#45;&gt;:core:models -->
<g id="edge24" class="edge">
<title>:core:preferences&#45;&gt;:core:models</title>
<path fill="none" stroke="black" stroke-dasharray="1,5" d="M840.93,-278.04C840.93,-278.04 840.93,-46.1 840.93,-46.1"/>
<polygon fill="black" stroke="black" points="844.43,-46.1 840.93,-36.1 837.43,-46.1 844.43,-46.1"/>
</g>
<!-- :core:coroutines -->
<g id="node14" class="node">
<title>:core:coroutines</title>
<ellipse fill="#b59aff" stroke="black" cx="722.54" cy="-155" rx="85.29" ry="18"/>
<text text-anchor="middle" x="722.54" y="-151.3" font-family="Times,serif" font-size="14.00">:core:coroutines</text>
</g>
<!-- :core:preferences&#45;&gt;:core:coroutines -->
<g id="edge23" class="edge">
<title>:core:preferences&#45;&gt;:core:coroutines</title>
<path fill="none" stroke="black" stroke-dasharray="1,5" d="M749.29,-275.2C749.29,-275.2 749.29,-182.37 749.29,-182.37"/>
<polygon fill="black" stroke="black" points="752.79,-182.37 749.29,-172.37 745.79,-182.37 752.79,-182.37"/>
</g>
<!-- :ui:image&#45;&gt;:core:models -->
<g id="edge25" class="edge">
<title>:ui:image&#45;&gt;:core:models</title>
<path fill="none" stroke="black" stroke-dasharray="1,5" d="M930.32,-292C912.59,-292 897.36,-292 897.36,-292 897.36,-292 897.36,-36.5 897.36,-36.5"/>
<polygon fill="black" stroke="black" points="900.86,-36.5 897.36,-26.5 893.86,-36.5 900.86,-36.5"/>
</g>
<!-- :ui:image&#45;&gt;:ui:core -->
<g id="edge26" class="edge">
<title>:ui:image&#45;&gt;:ui:core</title>
<path fill="none" stroke="black" stroke-dasharray="1,5" d="M1038.52,-292C1062.74,-292 1085.96,-292 1085.96,-292 1085.96,-292 1085.96,-171.61 1085.96,-171.61"/>
<polygon fill="black" stroke="black" points="1089.46,-171.61 1085.96,-161.61 1082.46,-171.61 1089.46,-171.61"/>
</g>
</g>
</svg>
