<?xml version="1.0" encoding="UTF-8" standalone="no"?>
<!DOCTYPE svg PUBLIC "-//W3C//DTD SVG 1.1//EN"
 "http://www.w3.org/Graphics/SVG/1.1/DTD/svg11.dtd">
<!-- Generated by graphviz version 2.43.0 (0)
 -->
<!-- Title: %3 Pages: 1 -->
<svg width="1019pt" height="666pt"
 viewBox="0.00 0.00 1019.43 666.00" xmlns="http://www.w3.org/2000/svg" xmlns:xlink="http://www.w3.org/1999/xlink">
<g id="graph0" class="graph" transform="scale(1 1) rotate(0) translate(4 662)">
<title>%3</title>
<polygon fill="white" stroke="transparent" points="-4,4 -4,-662 1015.43,-662 1015.43,4 -4,4"/>
<text text-anchor="middle" x="505.72" y="-630" font-family="Times,serif" font-size="30.00">Dependencies</text>
<text text-anchor="middle" x="505.72" y="-597" font-family="Times,serif" font-size="30.00"> </text>
<!-- :shared:feature:search -->
<g id="node1" class="node">
<title>:shared:feature:search</title>
<polygon fill="#b59aff" stroke="black" points="408.59,-584 230.59,-584 230.59,-548 408.59,-548 408.59,-584"/>
<text text-anchor="middle" x="319.59" y="-562.3" font-family="Times,serif" font-size="14.00">:shared:feature:search</text>
</g>
<!-- :ui:common -->
<g id="node2" class="node">
<title>:ui:common</title>
<ellipse fill="#b59aff" stroke="black" cx="423.59" cy="-429" rx="64.19" ry="18"/>
<text text-anchor="middle" x="423.59" y="-425.3" font-family="Times,serif" font-size="14.00">:ui:common</text>
</g>
<!-- :shared:feature:search&#45;&gt;:ui:common -->
<g id="edge1" class="edge">
<title>:shared:feature:search&#45;&gt;:ui:common</title>
<path fill="none" stroke="black" stroke-dasharray="1,5" d="M383.92,-547.81C383.92,-547.81 383.92,-453.5 383.92,-453.5"/>
<polygon fill="black" stroke="black" points="387.42,-453.5 383.92,-443.5 380.42,-453.5 387.42,-453.5"/>
</g>
<!-- :shared:domain -->
<g id="node3" class="node">
<title>:shared:domain</title>
<ellipse fill="#b59aff" stroke="black" cx="338.59" cy="-155" rx="82.59" ry="18"/>
<text text-anchor="middle" x="338.59" y="-151.3" font-family="Times,serif" font-size="14.00">:shared:domain</text>
</g>
<!-- :shared:feature:search&#45;&gt;:shared:domain -->
<g id="edge2" class="edge">
<title>:shared:feature:search&#45;&gt;:shared:domain</title>
<path fill="none" stroke="black" stroke-dasharray="1,5" d="M237.07,-547.94C237.07,-468.98 237.07,-158 237.07,-158 237.07,-158 247.13,-158 247.13,-158"/>
<polygon fill="black" stroke="black" points="247.13,-161.5 257.13,-158 247.13,-154.5 247.13,-161.5"/>
</g>
<!-- :ui:common&#45;&gt;:shared:domain -->
<g id="edge4" class="edge">
<title>:ui:common&#45;&gt;:shared:domain</title>
<path fill="none" stroke="black" d="M402.01,-411.86C402.01,-411.86 402.01,-176.62 402.01,-176.62"/>
<polygon fill="black" stroke="black" points="405.51,-176.62 402.01,-166.62 398.51,-176.62 405.51,-176.62"/>
</g>
<!-- :ui:test:screenshot -->
<g id="node4" class="node">
<title>:ui:test:screenshot</title>
<ellipse fill="#9affb5" stroke="black" cx="914.59" cy="-292" rx="96.68" ry="18"/>
<text text-anchor="middle" x="914.59" y="-288.3" font-family="Times,serif" font-size="14.00">:ui:test:screenshot</text>
</g>
<!-- :ui:common&#45;&gt;:ui:test:screenshot -->
<g id="edge3" class="edge">
<title>:ui:common&#45;&gt;:ui:test:screenshot</title>
<path fill="none" stroke="#ff9ab1" stroke-dasharray="1,5" d="M479.44,-438C608.13,-438 914.59,-438 914.59,-438 914.59,-438 914.59,-320.2 914.59,-320.2"/>
<polygon fill="#ff9ab1" stroke="#ff9ab1" points="918.09,-320.2 914.59,-310.2 911.09,-320.2 918.09,-320.2"/>
</g>
<!-- :ui:core -->
<g id="node5" class="node">
<title>:ui:core</title>
<ellipse fill="#b59aff" stroke="black" cx="788.59" cy="-155" rx="45.49" ry="18"/>
<text text-anchor="middle" x="788.59" y="-151.3" font-family="Times,serif" font-size="14.00">:ui:core</text>
</g>
<!-- :ui:common&#45;&gt;:ui:core -->
<g id="edge5" class="edge">
<title>:ui:common&#45;&gt;:ui:core</title>
<path fill="none" stroke="black" d="M488.19,-429C593.28,-429 789.64,-429 789.64,-429 789.64,-429 789.64,-183.4 789.64,-183.4"/>
<polygon fill="black" stroke="black" points="793.14,-183.4 789.64,-173.4 786.14,-183.4 793.14,-183.4"/>
</g>
<!-- :data:coverart -->
<g id="node6" class="node">
<title>:data:coverart</title>
<ellipse fill="#b59aff" stroke="black" cx="319.59" cy="-292" rx="76.09" ry="18"/>
<text text-anchor="middle" x="319.59" y="-288.3" font-family="Times,serif" font-size="14.00">:data:coverart</text>
</g>
<!-- :ui:common&#45;&gt;:data:coverart -->
<g id="edge6" class="edge">
<title>:ui:common&#45;&gt;:data:coverart</title>
<path fill="none" stroke="black" stroke-dasharray="1,5" d="M377.44,-416.36C377.44,-416.36 377.44,-313.83 377.44,-313.83"/>
<polygon fill="black" stroke="black" points="380.94,-313.83 377.44,-303.83 373.94,-313.83 380.94,-313.83"/>
</g>
<!-- :data:musicbrainz -->
<g id="node7" class="node">
<title>:data:musicbrainz</title>
<ellipse fill="#b59aff" stroke="black" cx="93.59" cy="-292" rx="93.68" ry="18"/>
<text text-anchor="middle" x="93.59" y="-288.3" font-family="Times,serif" font-size="14.00">:data:musicbrainz</text>
</g>
<!-- :ui:common&#45;&gt;:data:musicbrainz -->
<g id="edge7" class="edge">
<title>:ui:common&#45;&gt;:data:musicbrainz</title>
<path fill="none" stroke="black" stroke-dasharray="1,5" d="M362.68,-435C267.33,-435 93.59,-435 93.59,-435 93.59,-435 93.59,-320.11 93.59,-320.11"/>
<polygon fill="black" stroke="black" points="97.09,-320.11 93.59,-310.11 90.09,-320.11 97.09,-320.11"/>
</g>
<!-- :core:preferences -->
<g id="node8" class="node">
<title>:core:preferences</title>
<ellipse fill="#b59aff" stroke="black" cx="543.59" cy="-292" rx="91.78" ry="18"/>
<text text-anchor="middle" x="543.59" y="-288.3" font-family="Times,serif" font-size="14.00">:core:preferences</text>
</g>
<!-- :ui:common&#45;&gt;:core:preferences -->
<g id="edge8" class="edge">
<title>:ui:common&#45;&gt;:core:preferences</title>
<path fill="none" stroke="black" stroke-dasharray="1,5" d="M469.94,-416.36C469.94,-416.36 469.94,-313.07 469.94,-313.07"/>
<polygon fill="black" stroke="black" points="473.44,-313.07 469.94,-303.07 466.44,-313.07 473.44,-313.07"/>
</g>
<!-- :core:logging:api -->
<g id="node9" class="node">
<title>:core:logging:api</title>
<ellipse fill="#b59aff" stroke="black" cx="93.59" cy="-155" rx="88.28" ry="18"/>
<text text-anchor="middle" x="93.59" y="-151.3" font-family="Times,serif" font-size="14.00">:core:logging:api</text>
</g>
<!-- :ui:common&#45;&gt;:core:logging:api -->
<g id="edge9" class="edge">
<title>:ui:common&#45;&gt;:core:logging:api</title>
<path fill="none" stroke="black" stroke-dasharray="1,5" d="M362.75,-423C301.53,-423 216.12,-423 216.12,-423 216.12,-423 216.12,-165 216.12,-165 216.12,-165 177.34,-165 177.34,-165"/>
<polygon fill="black" stroke="black" points="177.34,-161.5 167.34,-165 177.34,-168.5 177.34,-161.5"/>
</g>
<!-- :ui:image -->
<g id="node10" class="node">
<title>:ui:image</title>
<ellipse fill="#b59aff" stroke="black" cx="707.59" cy="-292" rx="53.89" ry="18"/>
<text text-anchor="middle" x="707.59" y="-288.3" font-family="Times,serif" font-size="14.00">:ui:image</text>
</g>
<!-- :ui:common&#45;&gt;:ui:image -->
<g id="edge10" class="edge">
<title>:ui:common&#45;&gt;:ui:image</title>
<path fill="none" stroke="black" stroke-dasharray="1,5" d="M479.36,-420C562.07,-420 707.59,-420 707.59,-420 707.59,-420 707.59,-320.07 707.59,-320.07"/>
<polygon fill="black" stroke="black" points="711.09,-320.07 707.59,-310.07 704.09,-320.07 711.09,-320.07"/>
</g>
<!-- :ui:test:screenshot&#45;&gt;:ui:core -->
<g id="edge11" class="edge">
<title>:ui:test:screenshot&#45;&gt;:ui:core</title>
<path fill="none" stroke="black" stroke-dasharray="1,5" d="M825.92,-284.63C825.92,-284.63 825.92,-175.67 825.92,-175.67"/>
<polygon fill="black" stroke="black" points="829.42,-175.67 825.92,-165.67 822.42,-175.67 829.42,-175.67"/>
</g>
<!-- :test:image -->
<g id="node11" class="node">
<title>:test:image</title>
<ellipse fill="#9affb5" stroke="black" cx="915.59" cy="-155" rx="63.09" ry="18"/>
<text text-anchor="middle" x="915.59" y="-151.3" font-family="Times,serif" font-size="14.00">:test:image</text>
</g>
<!-- :ui:test:screenshot&#45;&gt;:test:image -->
<g id="edge12" class="edge">
<title>:ui:test:screenshot&#45;&gt;:test:image</title>
<path fill="none" stroke="black" stroke-dasharray="1,5" d="M915.59,-273.81C915.59,-273.81 915.59,-183.27 915.59,-183.27"/>
<polygon fill="black" stroke="black" points="919.09,-183.27 915.59,-173.27 912.09,-183.27 919.09,-183.27"/>
</g>
<!-- :shared:strings -->
<g id="node12" class="node">
<title>:shared:strings</title>
<ellipse fill="#b59aff" stroke="black" cx="788.59" cy="-18" rx="81.49" ry="18"/>
<text text-anchor="middle" x="788.59" y="-14.3" font-family="Times,serif" font-size="14.00">:shared:strings</text>
</g>
<!-- :ui:core&#45;&gt;:shared:strings -->
<g id="edge13" class="edge">
<title>:ui:core&#45;&gt;:shared:strings</title>
<path fill="none" stroke="black" d="M788.59,-136.81C788.59,-136.81 788.59,-46.27 788.59,-46.27"/>
<polygon fill="black" stroke="black" points="792.09,-46.27 788.59,-36.27 785.09,-46.27 792.09,-46.27"/>
</g>
<!-- :data:coverart&#45;&gt;:shared:domain -->
<g id="edge14" class="edge">
<title>:data:coverart&#45;&gt;:shared:domain</title>
<path fill="none" stroke="black" stroke-dasharray="1,5" d="M325.84,-273.81C325.84,-273.81 325.84,-182.83 325.84,-182.83"/>
<polygon fill="black" stroke="black" points="329.34,-182.83 325.84,-172.83 322.34,-182.83 329.34,-182.83"/>
</g>
<!-- :data:coverart&#45;&gt;:core:logging:api -->
<g id="edge15" class="edge">
<title>:data:coverart&#45;&gt;:core:logging:api</title>
<path fill="none" stroke="black" stroke-dasharray="1,5" d="M249.8,-284.46C249.8,-254.3 249.8,-144 249.8,-144 249.8,-144 173.93,-144 173.93,-144"/>
<polygon fill="black" stroke="black" points="173.93,-140.5 163.93,-144 173.93,-147.5 173.93,-140.5"/>
</g>
<!-- :data:musicbrainz&#45;&gt;:shared:domain -->
<g id="edge16" class="edge">
<title>:data:musicbrainz&#45;&gt;:shared:domain</title>
<path fill="none" stroke="black" stroke-dasharray="1,5" d="M187.53,-292C196.11,-292 201.65,-292 201.65,-292 201.65,-292 201.65,-151 201.65,-151 201.65,-151 247.75,-151 247.75,-151"/>
<polygon fill="black" stroke="black" points="247.75,-154.5 257.75,-151 247.75,-147.5 247.75,-154.5"/>
</g>
<!-- :data:musicbrainz&#45;&gt;:core:logging:api -->
<g id="edge17" class="edge">
<title>:data:musicbrainz&#45;&gt;:core:logging:api</title>
<path fill="none" stroke="black" stroke-dasharray="1,5" d="M93.59,-273.81C93.59,-273.81 93.59,-183.27 93.59,-183.27"/>
<polygon fill="black" stroke="black" points="97.09,-183.27 93.59,-173.27 90.09,-183.27 97.09,-183.27"/>
</g>
<!-- :core:preferences&#45;&gt;:shared:domain -->
<g id="edge18" class="edge">
<title>:core:preferences&#45;&gt;:shared:domain</title>
<path fill="none" stroke="black" stroke-dasharray="1,5" d="M451.91,-292C427.8,-292 408.38,-292 408.38,-292 408.38,-292 408.38,-174.85 408.38,-174.85"/>
<polygon fill="black" stroke="black" points="411.88,-174.85 408.38,-164.85 404.88,-174.85 411.88,-174.85"/>
</g>
<!-- :core:coroutines -->
<g id="node13" class="node">
<title>:core:coroutines</title>
<ellipse fill="#b59aff" stroke="black" cx="543.59" cy="-155" rx="85.29" ry="18"/>
<text text-anchor="middle" x="543.59" y="-151.3" font-family="Times,serif" font-size="14.00">:core:coroutines</text>
</g>
<!-- :core:preferences&#45;&gt;:core:coroutines -->
<g id="edge19" class="edge">
<title>:core:preferences&#45;&gt;:core:coroutines</title>
<path fill="none" stroke="black" stroke-dasharray="1,5" d="M543.59,-273.81C543.59,-273.81 543.59,-183.27 543.59,-183.27"/>
<polygon fill="black" stroke="black" points="547.09,-183.27 543.59,-173.27 540.09,-183.27 547.09,-183.27"/>
</g>
<!-- :ui:image&#45;&gt;:shared:domain -->
<g id="edge20" class="edge">
<title>:ui:image&#45;&gt;:shared:domain</title>
<path fill="none" stroke="black" stroke-dasharray="1,5" d="M680.5,-276.34C680.5,-255.98 680.5,-223 680.5,-223 680.5,-223 414.76,-223 414.76,-223 414.76,-223 414.76,-172.02 414.76,-172.02"/>
<polygon fill="black" stroke="black" points="418.26,-172.02 414.76,-162.02 411.26,-172.02 418.26,-172.02"/>
</g>
<!-- :ui:image&#45;&gt;:ui:core -->
<g id="edge21" class="edge">
<title>:ui:image&#45;&gt;:ui:core</title>
<path fill="none" stroke="black" stroke-dasharray="1,5" d="M752.32,-281.7C752.32,-281.7 752.32,-176.18 752.32,-176.18"/>
<polygon fill="black" stroke="black" points="755.82,-176.18 752.32,-166.18 748.82,-176.18 755.82,-176.18"/>
</g>
</g>
</svg>
