<?xml version="1.0" encoding="UTF-8" standalone="no"?>
<!DOCTYPE svg PUBLIC "-//W3C//DTD SVG 1.1//EN"
 "http://www.w3.org/Graphics/SVG/1.1/DTD/svg11.dtd">
<!-- Generated by graphviz version 2.43.0 (0)
 -->
<!-- Title: %3 Pages: 1 -->
<svg width="1019pt" height="666pt"
 viewBox="0.00 0.00 1019.43 666.00" xmlns="http://www.w3.org/2000/svg" xmlns:xlink="http://www.w3.org/1999/xlink">
<g id="graph0" class="graph" transform="scale(1 1) rotate(0) translate(4 662)">
<title>%3</title>
<polygon fill="white" stroke="transparent" points="-4,4 -4,-662 1015.43,-662 1015.43,4 -4,4"/>
<text text-anchor="middle" x="505.72" y="-630" font-family="Times,serif" font-size="30.00">Dependencies</text>
<text text-anchor="middle" x="505.72" y="-597" font-family="Times,serif" font-size="30.00"> </text>
<!-- :shared:feature:search -->
<g id="node1" class="node">
<title>:shared:feature:search</title>
<polygon fill="#b59aff" stroke="black" points="572.59,-584 394.59,-584 394.59,-548 572.59,-548 572.59,-584"/>
<text text-anchor="middle" x="483.59" y="-562.3" font-family="Times,serif" font-size="14.00">:shared:feature:search</text>
</g>
<!-- :ui:test:screenshot -->
<g id="node2" class="node">
<title>:ui:test:screenshot</title>
<ellipse fill="#9affb5" stroke="black" cx="914.59" cy="-292" rx="96.68" ry="18"/>
<text text-anchor="middle" x="914.59" y="-288.3" font-family="Times,serif" font-size="14.00">:ui:test:screenshot</text>
</g>
<!-- :shared:feature:search&#45;&gt;:ui:test:screenshot -->
<g id="edge1" class="edge">
<title>:shared:feature:search&#45;&gt;:ui:test:screenshot</title>
<path fill="none" stroke="#ff9ab1" stroke-dasharray="1,5" d="M572.64,-566C707.22,-566 946.87,-566 946.87,-566 946.87,-566 946.87,-319.14 946.87,-319.14"/>
<polygon fill="#ff9ab1" stroke="#ff9ab1" points="950.37,-319.14 946.87,-309.14 943.37,-319.14 950.37,-319.14"/>
</g>
<!-- :ui:common -->
<g id="node3" class="node">
<title>:ui:common</title>
<ellipse fill="#b59aff" stroke="black" cx="483.59" cy="-429" rx="64.19" ry="18"/>
<text text-anchor="middle" x="483.59" y="-425.3" font-family="Times,serif" font-size="14.00">:ui:common</text>
</g>
<!-- :shared:feature:search&#45;&gt;:ui:common -->
<g id="edge2" class="edge">
<title>:shared:feature:search&#45;&gt;:ui:common</title>
<path fill="none" stroke="black" stroke-dasharray="1,5" d="M483.59,-547.81C483.59,-547.81 483.59,-457.27 483.59,-457.27"/>
<polygon fill="black" stroke="black" points="487.09,-457.27 483.59,-447.27 480.09,-457.27 487.09,-457.27"/>
</g>
<!-- :shared:domain -->
<g id="node4" class="node">
<title>:shared:domain</title>
<ellipse fill="#b59aff" stroke="black" cx="338.59" cy="-155" rx="82.59" ry="18"/>
<text text-anchor="middle" x="338.59" y="-151.3" font-family="Times,serif" font-size="14.00">:shared:domain</text>
</g>
<!-- :shared:feature:search&#45;&gt;:shared:domain -->
<g id="edge3" class="edge">
<title>:shared:feature:search&#45;&gt;:shared:domain</title>
<path fill="none" stroke="black" stroke-dasharray="1,5" d="M400.36,-547.81C400.36,-547.81 400.36,-177.03 400.36,-177.03"/>
<polygon fill="black" stroke="black" points="403.86,-177.03 400.36,-167.03 396.86,-177.03 403.86,-177.03"/>
</g>
<!-- :ui:core -->
<g id="node5" class="node">
<title>:ui:core</title>
<ellipse fill="#b59aff" stroke="black" cx="788.59" cy="-155" rx="45.49" ry="18"/>
<text text-anchor="middle" x="788.59" y="-151.3" font-family="Times,serif" font-size="14.00">:ui:core</text>
</g>
<!-- :ui:test:screenshot&#45;&gt;:ui:core -->
<g id="edge4" class="edge">
<title>:ui:test:screenshot&#45;&gt;:ui:core</title>
<path fill="none" stroke="black" stroke-dasharray="1,5" d="M825.92,-284.63C825.92,-284.63 825.92,-175.67 825.92,-175.67"/>
<polygon fill="black" stroke="black" points="829.42,-175.67 825.92,-165.67 822.42,-175.67 829.42,-175.67"/>
</g>
<!-- :test:image -->
<g id="node6" class="node">
<title>:test:image</title>
<ellipse fill="#9affb5" stroke="black" cx="915.59" cy="-155" rx="63.09" ry="18"/>
<text text-anchor="middle" x="915.59" y="-151.3" font-family="Times,serif" font-size="14.00">:test:image</text>
</g>
<!-- :ui:test:screenshot&#45;&gt;:test:image -->
<g id="edge5" class="edge">
<title>:ui:test:screenshot&#45;&gt;:test:image</title>
<path fill="none" stroke="black" stroke-dasharray="1,5" d="M915.59,-273.81C915.59,-273.81 915.59,-183.27 915.59,-183.27"/>
<polygon fill="black" stroke="black" points="919.09,-183.27 915.59,-173.27 912.09,-183.27 919.09,-183.27"/>
</g>
<!-- :ui:common&#45;&gt;:ui:test:screenshot -->
<g id="edge6" class="edge">
<title>:ui:common&#45;&gt;:ui:test:screenshot</title>
<path fill="none" stroke="#ff9ab1" stroke-dasharray="1,5" d="M539.45,-438C649.19,-438 882.31,-438 882.31,-438 882.31,-438 882.31,-319.03 882.31,-319.03"/>
<polygon fill="#ff9ab1" stroke="#ff9ab1" points="885.81,-319.03 882.31,-309.03 878.81,-319.03 885.81,-319.03"/>
</g>
<!-- :ui:common&#45;&gt;:shared:domain -->
<g id="edge7" class="edge">
<title>:ui:common&#45;&gt;:shared:domain</title>
<path fill="none" stroke="black" d="M427.79,-420C415,-420 405.08,-420 405.08,-420 405.08,-420 405.08,-175.72 405.08,-175.72"/>
<polygon fill="black" stroke="black" points="408.58,-175.72 405.08,-165.72 401.58,-175.72 408.58,-175.72"/>
</g>
<!-- :ui:common&#45;&gt;:ui:core -->
<g id="edge8" class="edge">
<title>:ui:common&#45;&gt;:ui:core</title>
<path fill="none" stroke="black" d="M548.12,-429C637.92,-429 789.64,-429 789.64,-429 789.64,-429 789.64,-183.4 789.64,-183.4"/>
<polygon fill="black" stroke="black" points="793.14,-183.4 789.64,-173.4 786.14,-183.4 793.14,-183.4"/>
</g>
<!-- :data:coverart -->
<g id="node7" class="node">
<title>:data:coverart</title>
<ellipse fill="#b59aff" stroke="black" cx="319.59" cy="-292" rx="76.09" ry="18"/>
<text text-anchor="middle" x="319.59" y="-288.3" font-family="Times,serif" font-size="14.00">:data:coverart</text>
</g>
<!-- :ui:common&#45;&gt;:data:coverart -->
<g id="edge9" class="edge">
<title>:ui:common&#45;&gt;:data:coverart</title>
<path fill="none" stroke="black" stroke-dasharray="1,5" d="M436.54,-416.44C436.54,-383.65 436.54,-298 436.54,-298 436.54,-298 401.33,-298 401.33,-298"/>
<polygon fill="black" stroke="black" points="401.33,-294.5 391.33,-298 401.33,-301.5 401.33,-294.5"/>
</g>
<!-- :data:musicbrainz -->
<g id="node8" class="node">
<title>:data:musicbrainz</title>
<ellipse fill="#b59aff" stroke="black" cx="93.59" cy="-292" rx="93.68" ry="18"/>
<text text-anchor="middle" x="93.59" y="-288.3" font-family="Times,serif" font-size="14.00">:data:musicbrainz</text>
</g>
<!-- :ui:common&#45;&gt;:data:musicbrainz -->
<g id="edge10" class="edge">
<title>:ui:common&#45;&gt;:data:musicbrainz</title>
<path fill="none" stroke="black" stroke-dasharray="1,5" d="M427.71,-438C319.88,-438 93.59,-438 93.59,-438 93.59,-438 93.59,-320.2 93.59,-320.2"/>
<polygon fill="black" stroke="black" points="97.09,-320.2 93.59,-310.2 90.09,-320.2 97.09,-320.2"/>
</g>
<!-- :core:preferences -->
<g id="node9" class="node">
<title>:core:preferences</title>
<ellipse fill="#b59aff" stroke="black" cx="543.59" cy="-292" rx="91.78" ry="18"/>
<text text-anchor="middle" x="543.59" y="-288.3" font-family="Times,serif" font-size="14.00">:core:preferences</text>
</g>
<!-- :ui:common&#45;&gt;:core:preferences -->
<g id="edge11" class="edge">
<title>:ui:common&#45;&gt;:core:preferences</title>
<path fill="none" stroke="black" stroke-dasharray="1,5" d="M499.94,-411.37C499.94,-411.37 499.94,-317.86 499.94,-317.86"/>
<polygon fill="black" stroke="black" points="503.44,-317.86 499.94,-307.86 496.44,-317.86 503.44,-317.86"/>
</g>
<!-- :core:logging:api -->
<g id="node10" class="node">
<title>:core:logging:api</title>
<ellipse fill="#b59aff" stroke="black" cx="93.59" cy="-155" rx="88.28" ry="18"/>
<text text-anchor="middle" x="93.59" y="-151.3" font-family="Times,serif" font-size="14.00">:core:logging:api</text>
</g>
<!-- :ui:common&#45;&gt;:core:logging:api -->
<g id="edge12" class="edge">
<title>:ui:common&#45;&gt;:core:logging:api</title>
<path fill="none" stroke="black" stroke-dasharray="1,5" d="M418.95,-429C342.28,-429 224.76,-429 224.76,-429 224.76,-429 224.76,-164 224.76,-164 224.76,-164 180.27,-164 180.27,-164"/>
<polygon fill="black" stroke="black" points="180.27,-160.5 170.27,-164 180.27,-167.5 180.27,-160.5"/>
</g>
<!-- :ui:image -->
<g id="node11" class="node">
<title>:ui:image</title>
<ellipse fill="#b59aff" stroke="black" cx="707.59" cy="-292" rx="53.89" ry="18"/>
<text text-anchor="middle" x="707.59" y="-288.3" font-family="Times,serif" font-size="14.00">:ui:image</text>
</g>
<!-- :ui:common&#45;&gt;:ui:image -->
<g id="edge13" class="edge">
<title>:ui:common&#45;&gt;:ui:image</title>
<path fill="none" stroke="black" stroke-dasharray="1,5" d="M539.54,-420C605.89,-420 707.59,-420 707.59,-420 707.59,-420 707.59,-320.07 707.59,-320.07"/>
<polygon fill="black" stroke="black" points="711.09,-320.07 707.59,-310.07 704.09,-320.07 711.09,-320.07"/>
</g>
<!-- :shared:strings -->
<g id="node12" class="node">
<title>:shared:strings</title>
<ellipse fill="#b59aff" stroke="black" cx="788.59" cy="-18" rx="81.49" ry="18"/>
<text text-anchor="middle" x="788.59" y="-14.3" font-family="Times,serif" font-size="14.00">:shared:strings</text>
</g>
<!-- :ui:core&#45;&gt;:shared:strings -->
<g id="edge14" class="edge">
<title>:ui:core&#45;&gt;:shared:strings</title>
<path fill="none" stroke="black" d="M788.59,-136.81C788.59,-136.81 788.59,-46.27 788.59,-46.27"/>
<polygon fill="black" stroke="black" points="792.09,-46.27 788.59,-36.27 785.09,-46.27 792.09,-46.27"/>
</g>
<!-- :data:coverart&#45;&gt;:shared:domain -->
<g id="edge15" class="edge">
<title>:data:coverart&#45;&gt;:shared:domain</title>
<path fill="none" stroke="black" stroke-dasharray="1,5" d="M325.84,-273.81C325.84,-273.81 325.84,-182.83 325.84,-182.83"/>
<polygon fill="black" stroke="black" points="329.34,-182.83 325.84,-172.83 322.34,-182.83 329.34,-182.83"/>
</g>
<!-- :data:coverart&#45;&gt;:core:logging:api -->
<g id="edge16" class="edge">
<title>:data:coverart&#45;&gt;:core:logging:api</title>
<path fill="none" stroke="black" stroke-dasharray="1,5" d="M249.8,-284.56C249.8,-254.81 249.8,-146 249.8,-146 249.8,-146 180.32,-146 180.32,-146"/>
<polygon fill="black" stroke="black" points="180.32,-142.5 170.32,-146 180.32,-149.5 180.32,-142.5"/>
</g>
<!-- :data:musicbrainz&#45;&gt;:shared:domain -->
<g id="edge17" class="edge">
<title>:data:musicbrainz&#45;&gt;:shared:domain</title>
<path fill="none" stroke="black" stroke-dasharray="1,5" d="M187.41,-292C198.5,-292 205.97,-292 205.97,-292 205.97,-292 205.97,-155 205.97,-155 205.97,-155 245.73,-155 245.73,-155"/>
<polygon fill="black" stroke="black" points="245.73,-158.5 255.73,-155 245.73,-151.5 245.73,-158.5"/>
</g>
<!-- :data:musicbrainz&#45;&gt;:core:logging:api -->
<g id="edge18" class="edge">
<title>:data:musicbrainz&#45;&gt;:core:logging:api</title>
<path fill="none" stroke="black" stroke-dasharray="1,5" d="M93.59,-273.81C93.59,-273.81 93.59,-183.27 93.59,-183.27"/>
<polygon fill="black" stroke="black" points="97.09,-183.27 93.59,-173.27 90.09,-183.27 97.09,-183.27"/>
</g>
<!-- :core:preferences&#45;&gt;:shared:domain -->
<g id="edge19" class="edge">
<title>:core:preferences&#45;&gt;:shared:domain</title>
<path fill="none" stroke="black" stroke-dasharray="1,5" d="M456.97,-286C431.25,-286 409.8,-286 409.8,-286 409.8,-286 409.8,-174.42 409.8,-174.42"/>
<polygon fill="black" stroke="black" points="413.3,-174.42 409.8,-164.42 406.3,-174.42 413.3,-174.42"/>
</g>
<!-- :core:coroutines -->
<g id="node13" class="node">
<title>:core:coroutines</title>
<ellipse fill="#b59aff" stroke="black" cx="543.59" cy="-155" rx="85.29" ry="18"/>
<text text-anchor="middle" x="543.59" y="-151.3" font-family="Times,serif" font-size="14.00">:core:coroutines</text>
</g>
<!-- :core:preferences&#45;&gt;:core:coroutines -->
<g id="edge20" class="edge">
<title>:core:preferences&#45;&gt;:core:coroutines</title>
<path fill="none" stroke="black" stroke-dasharray="1,5" d="M543.59,-273.81C543.59,-273.81 543.59,-183.27 543.59,-183.27"/>
<polygon fill="black" stroke="black" points="547.09,-183.27 543.59,-173.27 540.09,-183.27 547.09,-183.27"/>
</g>
<!-- :ui:image&#45;&gt;:shared:domain -->
<g id="edge21" class="edge">
<title>:ui:image&#45;&gt;:shared:domain</title>
<path fill="none" stroke="black" stroke-dasharray="1,5" d="M680.5,-276.34C680.5,-255.98 680.5,-223 680.5,-223 680.5,-223 414.52,-223 414.52,-223 414.52,-223 414.52,-172.28 414.52,-172.28"/>
<polygon fill="black" stroke="black" points="418.03,-172.28 414.52,-162.28 411.03,-172.28 418.03,-172.28"/>
</g>
<!-- :ui:image&#45;&gt;:ui:core -->
<g id="edge22" class="edge">
<title>:ui:image&#45;&gt;:ui:core</title>
<path fill="none" stroke="black" stroke-dasharray="1,5" d="M752.32,-281.7C752.32,-281.7 752.32,-176.18 752.32,-176.18"/>
<polygon fill="black" stroke="black" points="755.82,-176.18 752.32,-166.18 748.82,-176.18 755.82,-176.18"/>
</g>
</g>
</svg>
