<?xml version="1.0" encoding="UTF-8" standalone="no"?>
<!DOCTYPE svg PUBLIC "-//W3C//DTD SVG 1.1//EN"
 "http://www.w3.org/Graphics/SVG/1.1/DTD/svg11.dtd">
<!-- Generated by graphviz version 2.43.0 (0)
 -->
<!-- Title: %3 Pages: 1 -->
<svg width="1106pt" height="940pt"
 viewBox="0.00 0.00 1105.74 940.00" xmlns="http://www.w3.org/2000/svg" xmlns:xlink="http://www.w3.org/1999/xlink">
<g id="graph0" class="graph" transform="scale(1 1) rotate(0) translate(4 936)">
<title>%3</title>
<polygon fill="white" stroke="transparent" points="-4,4 -4,-936 1101.74,-936 1101.74,4 -4,4"/>
<text text-anchor="middle" x="548.87" y="-904" font-family="Times,serif" font-size="30.00">Dependencies</text>
<text text-anchor="middle" x="548.87" y="-871" font-family="Times,serif" font-size="30.00"> </text>
<!-- :shared:feature:search -->
<g id="node1" class="node">
<title>:shared:feature:search</title>
<polygon fill="#b59aff" stroke="black" points="1089.89,-858 911.89,-858 911.89,-822 1089.89,-822 1089.89,-858"/>
<text text-anchor="middle" x="1000.89" y="-836.3" font-family="Times,serif" font-size="14.00">:shared:feature:search</text>
</g>
<!-- :ui:test:screenshot -->
<g id="node2" class="node">
<title>:ui:test:screenshot</title>
<ellipse fill="#9affb5" stroke="black" cx="1000.89" cy="-566" rx="96.68" ry="18"/>
<text text-anchor="middle" x="1000.89" y="-562.3" font-family="Times,serif" font-size="14.00">:ui:test:screenshot</text>
</g>
<!-- :shared:feature:search&#45;&gt;:ui:test:screenshot -->
<g id="edge1" class="edge">
<title>:shared:feature:search&#45;&gt;:ui:test:screenshot</title>
<path fill="none" stroke="#ff9ab1" stroke-dasharray="1,5" d="M1000.89,-821.6C1000.89,-821.6 1000.89,-594.32 1000.89,-594.32"/>
<polygon fill="#ff9ab1" stroke="#ff9ab1" points="1004.39,-594.32 1000.89,-584.32 997.39,-594.32 1004.39,-594.32"/>
</g>
<!-- :ui:common -->
<g id="node3" class="node">
<title>:ui:common</title>
<ellipse fill="#b59aff" stroke="black" cx="730.89" cy="-703" rx="64.19" ry="18"/>
<text text-anchor="middle" x="730.89" y="-699.3" font-family="Times,serif" font-size="14.00">:ui:common</text>
</g>
<!-- :shared:feature:search&#45;&gt;:ui:common -->
<g id="edge2" class="edge">
<title>:shared:feature:search&#45;&gt;:ui:common</title>
<path fill="none" stroke="black" stroke-dasharray="1,5" d="M911.74,-834C833.09,-834 730.89,-834 730.89,-834 730.89,-834 730.89,-731.21 730.89,-731.21"/>
<polygon fill="black" stroke="black" points="734.39,-731.21 730.89,-721.21 727.39,-731.22 734.39,-731.21"/>
</g>
<!-- :shared:domain -->
<g id="node4" class="node">
<title>:shared:domain</title>
<ellipse fill="#b59aff" stroke="black" cx="560.89" cy="-18" rx="82.59" ry="18"/>
<text text-anchor="middle" x="560.89" y="-14.3" font-family="Times,serif" font-size="14.00">:shared:domain</text>
</g>
<!-- :shared:feature:search&#45;&gt;:shared:domain -->
<g id="edge3" class="edge">
<title>:shared:feature:search&#45;&gt;:shared:domain</title>
<path fill="none" stroke="black" stroke-dasharray="1,5" d="M911.7,-846C811.12,-846 661.42,-846 661.42,-846 661.42,-846 661.42,-18 661.42,-18 661.42,-18 653.45,-18 653.45,-18"/>
<polygon fill="black" stroke="black" points="653.45,-14.5 643.45,-18 653.45,-21.5 653.45,-14.5"/>
</g>
<!-- :ui:core -->
<g id="node5" class="node">
<title>:ui:core</title>
<ellipse fill="#b59aff" stroke="black" cx="825.89" cy="-429" rx="45.49" ry="18"/>
<text text-anchor="middle" x="825.89" y="-425.3" font-family="Times,serif" font-size="14.00">:ui:core</text>
</g>
<!-- :ui:test:screenshot&#45;&gt;:ui:core -->
<g id="edge4" class="edge">
<title>:ui:test:screenshot&#45;&gt;:ui:core</title>
<path fill="none" stroke="black" stroke-dasharray="1,5" d="M930.95,-553.36C930.95,-519.44 930.95,-429 930.95,-429 930.95,-429 881.67,-429 881.67,-429"/>
<polygon fill="black" stroke="black" points="881.67,-425.5 871.67,-429 881.67,-432.5 881.67,-425.5"/>
</g>
<!-- :test:image -->
<g id="node6" class="node">
<title>:test:image</title>
<ellipse fill="#9affb5" stroke="black" cx="1020.89" cy="-429" rx="63.09" ry="18"/>
<text text-anchor="middle" x="1020.89" y="-425.3" font-family="Times,serif" font-size="14.00">:test:image</text>
</g>
<!-- :ui:test:screenshot&#45;&gt;:test:image -->
<g id="edge5" class="edge">
<title>:ui:test:screenshot&#45;&gt;:test:image</title>
<path fill="none" stroke="black" stroke-dasharray="1,5" d="M1020.89,-548.37C1020.89,-548.37 1020.89,-457.44 1020.89,-457.44"/>
<polygon fill="black" stroke="black" points="1024.39,-457.44 1020.89,-447.44 1017.39,-457.44 1024.39,-457.44"/>
</g>
<!-- :ui:common&#45;&gt;:ui:test:screenshot -->
<g id="edge7" class="edge">
<title>:ui:common&#45;&gt;:ui:test:screenshot</title>
<path fill="none" stroke="#ff9ab1" stroke-dasharray="1,5" d="M795.32,-703C845.96,-703 907.97,-703 907.97,-703 907.97,-703 907.97,-581.2 907.97,-581.2"/>
<polygon fill="#ff9ab1" stroke="#ff9ab1" points="911.47,-581.2 907.97,-571.2 904.47,-581.2 911.47,-581.2"/>
</g>
<!-- :ui:common&#45;&gt;:shared:domain -->
<g id="edge9" class="edge">
<title>:ui:common&#45;&gt;:shared:domain</title>
<path fill="none" stroke="black" d="M710.41,-685.92C710.41,-579.51 710.41,-12 710.41,-12 710.41,-12 648.72,-12 648.72,-12"/>
<polygon fill="black" stroke="black" points="648.72,-8.5 638.72,-12 648.72,-15.5 648.72,-8.5"/>
</g>
<!-- :ui:common&#45;&gt;:ui:core -->
<g id="edge10" class="edge">
<title>:ui:common&#45;&gt;:ui:core</title>
<path fill="none" stroke="black" d="M758.8,-686.56C758.8,-626.16 758.8,-420 758.8,-420 758.8,-420 776.48,-420 776.48,-420"/>
<polygon fill="black" stroke="black" points="776.48,-423.5 786.48,-420 776.48,-416.5 776.48,-423.5"/>
</g>
<!-- :test&#45;data -->
<g id="node7" class="node">
<title>:test&#45;data</title>
<ellipse fill="#b59aff" stroke="black" cx="400.89" cy="-566" rx="55.49" ry="18"/>
<text text-anchor="middle" x="400.89" y="-562.3" font-family="Times,serif" font-size="14.00">:test&#45;data</text>
</g>
<!-- :ui:common&#45;&gt;:test&#45;data -->
<g id="edge6" class="edge">
<title>:ui:common&#45;&gt;:test&#45;data</title>
<path fill="none" stroke="#ff9ab1" stroke-dasharray="1,5" d="M681.17,-691.28C681.17,-659.84 681.17,-576 681.17,-576 681.17,-576 456.86,-576 456.86,-576"/>
<polygon fill="#ff9ab1" stroke="#ff9ab1" points="456.86,-572.5 446.86,-576 456.86,-579.5 456.86,-572.5"/>
</g>
<!-- :core:coroutines -->
<g id="node8" class="node">
<title>:core:coroutines</title>
<ellipse fill="#b59aff" stroke="black" cx="560.89" cy="-155" rx="85.29" ry="18"/>
<text text-anchor="middle" x="560.89" y="-151.3" font-family="Times,serif" font-size="14.00">:core:coroutines</text>
</g>
<!-- :ui:common&#45;&gt;:core:coroutines -->
<g id="edge8" class="edge">
<title>:ui:common&#45;&gt;:core:coroutines</title>
<path fill="none" stroke="#ff9ab1" stroke-dasharray="1,5" d="M695.79,-687.77C695.79,-599.27 695.79,-155 695.79,-155 695.79,-155 656.33,-155 656.33,-155"/>
<polygon fill="#ff9ab1" stroke="#ff9ab1" points="656.33,-151.5 646.33,-155 656.33,-158.5 656.33,-151.5"/>
</g>
<!-- :core:logging:api -->
<g id="node9" class="node">
<title>:core:logging:api</title>
<ellipse fill="#b59aff" stroke="black" cx="117.89" cy="-18" rx="88.28" ry="18"/>
<text text-anchor="middle" x="117.89" y="-14.3" font-family="Times,serif" font-size="14.00">:core:logging:api</text>
</g>
<!-- :ui:common&#45;&gt;:core:logging:api -->
<g id="edge11" class="edge">
<title>:ui:common&#45;&gt;:core:logging:api</title>
<path fill="none" stroke="black" stroke-dasharray="1,5" d="M666.41,-703C516.39,-703 156.63,-703 156.63,-703 156.63,-703 156.63,-44.26 156.63,-44.26"/>
<polygon fill="black" stroke="black" points="160.13,-44.26 156.63,-34.26 153.13,-44.26 160.13,-44.26"/>
</g>
<!-- :ui:image -->
<g id="node10" class="node">
<title>:ui:image</title>
<ellipse fill="#b59aff" stroke="black" cx="831.89" cy="-566" rx="53.89" ry="18"/>
<text text-anchor="middle" x="831.89" y="-562.3" font-family="Times,serif" font-size="14.00">:ui:image</text>
</g>
<!-- :ui:common&#45;&gt;:ui:image -->
<g id="edge12" class="edge">
<title>:ui:common&#45;&gt;:ui:image</title>
<path fill="none" stroke="black" stroke-dasharray="1,5" d="M786.59,-693.58C786.59,-693.58 786.59,-585.85 786.59,-585.85"/>
<polygon fill="black" stroke="black" points="790.09,-585.85 786.59,-575.85 783.09,-585.85 790.09,-585.85"/>
</g>
<!-- :shared:strings -->
<g id="node11" class="node">
<title>:shared:strings</title>
<ellipse fill="#b59aff" stroke="black" cx="820.89" cy="-292" rx="81.49" ry="18"/>
<text text-anchor="middle" x="820.89" y="-288.3" font-family="Times,serif" font-size="14.00">:shared:strings</text>
</g>
<!-- :ui:core&#45;&gt;:shared:strings -->
<g id="edge13" class="edge">
<title>:ui:core&#45;&gt;:shared:strings</title>
<path fill="none" stroke="black" d="M825.89,-410.81C825.89,-410.81 825.89,-320.27 825.89,-320.27"/>
<polygon fill="black" stroke="black" points="829.39,-320.27 825.89,-310.27 822.39,-320.27 829.39,-320.27"/>
</g>
<!-- :test&#45;data&#45;&gt;:shared:domain -->
<g id="edge14" class="edge">
<title>:test&#45;data&#45;&gt;:shared:domain</title>
<path fill="none" stroke="black" stroke-dasharray="1,5" d="M455.06,-562C530.03,-562 656.29,-562 656.29,-562 656.29,-562 656.29,-24 656.29,-24 656.29,-24 648.8,-24 648.8,-24"/>
<polygon fill="black" stroke="black" points="648.8,-20.5 638.8,-24 648.8,-27.5 648.8,-20.5"/>
</g>
<!-- :test&#45;data&#45;&gt;:core:coroutines -->
<g id="edge15" class="edge">
<title>:test&#45;data&#45;&gt;:core:coroutines</title>
<path fill="none" stroke="black" stroke-dasharray="1,5" d="M444.83,-555C505.65,-555 608.09,-555 608.09,-555 608.09,-555 608.09,-180.19 608.09,-180.19"/>
<polygon fill="black" stroke="black" points="611.59,-180.19 608.09,-170.19 604.59,-180.19 611.59,-180.19"/>
</g>
<!-- :data:database -->
<g id="node12" class="node">
<title>:data:database</title>
<ellipse fill="#b59aff" stroke="black" cx="452.89" cy="-292" rx="79.09" ry="18"/>
<text text-anchor="middle" x="452.89" y="-288.3" font-family="Times,serif" font-size="14.00">:data:database</text>
</g>
<!-- :test&#45;data&#45;&gt;:data:database -->
<g id="edge16" class="edge">
<title>:test&#45;data&#45;&gt;:data:database</title>
<path fill="none" stroke="black" stroke-dasharray="1,5" d="M440.54,-553.15C440.54,-553.15 440.54,-319.96 440.54,-319.96"/>
<polygon fill="black" stroke="black" points="444.04,-319.96 440.54,-309.96 437.04,-319.96 444.04,-319.96"/>
</g>
<!-- :data:musicbrainz -->
<g id="node13" class="node">
<title>:data:musicbrainz</title>
<ellipse fill="#b59aff" stroke="black" cx="287.89" cy="-155" rx="93.68" ry="18"/>
<text text-anchor="middle" x="287.89" y="-151.3" font-family="Times,serif" font-size="14.00">:data:musicbrainz</text>
</g>
<!-- :test&#45;data&#45;&gt;:data:musicbrainz -->
<g id="edge17" class="edge">
<title>:test&#45;data&#45;&gt;:data:musicbrainz</title>
<path fill="none" stroke="black" stroke-dasharray="1,5" d="M348.41,-560C299.34,-560 233.58,-560 233.58,-560 233.58,-560 233.58,-179.89 233.58,-179.89"/>
<polygon fill="black" stroke="black" points="237.08,-179.89 233.58,-169.89 230.08,-179.89 237.08,-179.89"/>
</g>
<!-- :data:coverart -->
<g id="node14" class="node">
<title>:data:coverart</title>
<ellipse fill="#b59aff" stroke="black" cx="348.89" cy="-429" rx="76.09" ry="18"/>
<text text-anchor="middle" x="348.89" y="-425.3" font-family="Times,serif" font-size="14.00">:data:coverart</text>
</g>
<!-- :test&#45;data&#45;&gt;:data:coverart -->
<g id="edge18" class="edge">
<title>:test&#45;data&#45;&gt;:data:coverart</title>
<path fill="none" stroke="black" stroke-dasharray="1,5" d="M372.08,-550.55C372.08,-550.55 372.08,-456.33 372.08,-456.33"/>
<polygon fill="black" stroke="black" points="375.58,-456.33 372.08,-446.33 368.58,-456.33 375.58,-456.33"/>
</g>
<!-- :data:spotify -->
<g id="node15" class="node">
<title>:data:spotify</title>
<ellipse fill="#b59aff" stroke="black" cx="68.89" cy="-155" rx="68.79" ry="18"/>
<text text-anchor="middle" x="68.89" y="-151.3" font-family="Times,serif" font-size="14.00">:data:spotify</text>
</g>
<!-- :test&#45;data&#45;&gt;:data:spotify -->
<g id="edge19" class="edge">
<title>:test&#45;data&#45;&gt;:data:spotify</title>
<path fill="none" stroke="black" stroke-dasharray="1,5" d="M348.65,-572C255.16,-572 68.89,-572 68.89,-572 68.89,-572 68.89,-183.19 68.89,-183.19"/>
<polygon fill="black" stroke="black" points="72.39,-183.19 68.89,-173.19 65.39,-183.19 72.39,-183.19"/>
</g>
<!-- :ui:image&#45;&gt;:shared:domain -->
<g id="edge20" class="edge">
<title>:ui:image&#45;&gt;:shared:domain</title>
<path fill="none" stroke="black" stroke-dasharray="1,5" d="M778.46,-569C751.75,-569 725.03,-569 725.03,-569 725.03,-569 725.03,-5 725.03,-5 725.03,-5 628.3,-5 628.3,-5"/>
<polygon fill="black" stroke="black" points="628.3,-1.5 618.3,-5 628.3,-8.5 628.3,-1.5"/>
</g>
<!-- :ui:image&#45;&gt;:ui:core -->
<g id="edge21" class="edge">
<title>:ui:image&#45;&gt;:ui:core</title>
<path fill="none" stroke="black" stroke-dasharray="1,5" d="M825.89,-548.09C825.89,-548.09 825.89,-457.35 825.89,-457.35"/>
<polygon fill="black" stroke="black" points="829.39,-457.35 825.89,-447.35 822.39,-457.35 829.39,-457.35"/>
</g>
<!-- :data:database&#45;&gt;:shared:domain -->
<g id="edge22" class="edge">
<title>:data:database&#45;&gt;:shared:domain</title>
<path fill="none" stroke="black" stroke-dasharray="1,5" d="M428.62,-274.83C428.62,-215.68 428.62,-24 428.62,-24 428.62,-24 472.8,-24 472.8,-24"/>
<polygon fill="black" stroke="black" points="472.8,-27.5 482.8,-24 472.8,-20.5 472.8,-27.5"/>
</g>
<!-- :data:database&#45;&gt;:core:coroutines -->
<g id="edge23" class="edge">
<title>:data:database&#45;&gt;:core:coroutines</title>
<path fill="none" stroke="black" stroke-dasharray="1,5" d="M503.97,-278.11C503.97,-278.11 503.97,-178.52 503.97,-178.52"/>
<polygon fill="black" stroke="black" points="507.47,-178.52 503.97,-168.52 500.47,-178.52 507.47,-178.52"/>
</g>
<!-- :data:database&#45;&gt;:data:musicbrainz -->
<g id="edge24" class="edge">
<title>:data:database&#45;&gt;:data:musicbrainz</title>
<path fill="none" stroke="black" stroke-dasharray="1,5" d="M377.54,-286.11C377.54,-286.11 377.54,-170.41 377.54,-170.41"/>
<polygon fill="black" stroke="black" points="381.04,-170.41 377.54,-160.41 374.04,-170.41 381.04,-170.41"/>
</g>
<!-- :data:musicbrainz&#45;&gt;:shared:domain -->
<g id="edge25" class="edge">
<title>:data:musicbrainz&#45;&gt;:shared:domain</title>
<path fill="none" stroke="black" stroke-dasharray="1,5" d="M293.89,-136.89C293.89,-98.41 293.89,-12 293.89,-12 293.89,-12 472.95,-12 472.95,-12"/>
<polygon fill="black" stroke="black" points="472.95,-15.5 482.95,-12 472.95,-8.5 472.95,-15.5"/>
</g>
<!-- :data:musicbrainz&#45;&gt;:core:logging:api -->
<g id="edge26" class="edge">
<title>:data:musicbrainz&#45;&gt;:core:logging:api</title>
<path fill="none" stroke="black" stroke-dasharray="1,5" d="M200.29,-148.39C200.29,-148.39 200.29,-34.54 200.29,-34.54"/>
<polygon fill="black" stroke="black" points="203.79,-34.54 200.29,-24.54 196.79,-34.54 203.79,-34.54"/>
</g>
<!-- :data:coverart&#45;&gt;:shared:domain -->
<g id="edge27" class="edge">
<title>:data:coverart&#45;&gt;:shared:domain</title>
<path fill="none" stroke="black" stroke-dasharray="1,5" d="M414.85,-438C503.79,-438 651.16,-438 651.16,-438 651.16,-438 651.16,-30 651.16,-30 651.16,-30 632.6,-30 632.6,-30"/>
<polygon fill="black" stroke="black" points="632.6,-26.5 622.6,-30 632.6,-33.5 632.6,-26.5"/>
</g>
<!-- :data:coverart&#45;&gt;:test&#45;data -->
<g id="edge30" class="edge">
<title>:data:coverart&#45;&gt;:test&#45;data</title>
<path fill="none" stroke="#ff9ab1" stroke-dasharray="1,5" d="M398.51,-442.89C398.51,-442.89 398.51,-537.75 398.51,-537.75"/>
<polygon fill="#ff9ab1" stroke="#ff9ab1" points="395.01,-537.75 398.51,-547.75 402.01,-537.75 395.01,-537.75"/>
</g>
<!-- :data:coverart&#45;&gt;:core:coroutines -->
<g id="edge29" class="edge">
<title>:data:coverart&#45;&gt;:core:coroutines</title>
<path fill="none" stroke="black" stroke-dasharray="1,5" d="M425.03,-429C489.03,-429 570.14,-429 570.14,-429 570.14,-429 570.14,-182.98 570.14,-182.98"/>
<polygon fill="black" stroke="black" points="573.64,-182.98 570.14,-172.98 566.64,-182.98 573.64,-182.98"/>
</g>
<!-- :data:coverart&#45;&gt;:core:logging:api -->
<g id="edge28" class="edge">
<title>:data:coverart&#45;&gt;:core:logging:api</title>
<path fill="none" stroke="black" stroke-dasharray="1,5" d="M272.83,-429C226.23,-429 175.46,-429 175.46,-429 175.46,-429 175.46,-41.67 175.46,-41.67"/>
<polygon fill="black" stroke="black" points="178.96,-41.67 175.46,-31.67 171.96,-41.67 178.96,-41.67"/>
</g>
<!-- :data:coverart&#45;&gt;:data:database -->
<g id="edge32" class="edge">
<title>:data:coverart&#45;&gt;:data:database</title>
<path fill="none" stroke="#ff9ab1" stroke-dasharray="1,5" d="M399.27,-415.36C399.27,-415.36 399.27,-315.58 399.27,-315.58"/>
<polygon fill="#ff9ab1" stroke="#ff9ab1" points="402.77,-315.58 399.27,-305.58 395.77,-315.58 402.77,-315.58"/>
</g>
<!-- :data:coverart&#45;&gt;:data:musicbrainz -->
<g id="edge31" class="edge">
<title>:data:coverart&#45;&gt;:data:musicbrainz</title>
<path fill="none" stroke="#ff9ab1" stroke-dasharray="1,5" d="M323.23,-411.86C323.23,-411.86 323.23,-181.78 323.23,-181.78"/>
<polygon fill="#ff9ab1" stroke="#ff9ab1" points="326.73,-181.78 323.23,-171.78 319.73,-181.78 326.73,-181.78"/>
</g>
<!-- :data:spotify&#45;&gt;:shared:domain -->
<g id="edge33" class="edge">
<title>:data:spotify&#45;&gt;:shared:domain</title>
<path fill="none" stroke="black" stroke-dasharray="1,5" d="M101.69,-139C101.69,-118.61 101.69,-86 101.69,-86 101.69,-86 560.89,-86 560.89,-86 560.89,-86 560.89,-46.22 560.89,-46.22"/>
<polygon fill="black" stroke="black" points="564.39,-46.22 560.89,-36.22 557.39,-46.22 564.39,-46.22"/>
</g>
<!-- :data:spotify&#45;&gt;:core:logging:api -->
<g id="edge34" class="edge">
<title>:data:spotify&#45;&gt;:core:logging:api</title>
<path fill="none" stroke="black" stroke-dasharray="1,5" d="M65.6,-136.81C65.6,-136.81 65.6,-42.9 65.6,-42.9"/>
<polygon fill="black" stroke="black" points="69.1,-42.9 65.6,-32.9 62.1,-42.9 69.1,-42.9"/>
</g>
</g>
</svg>
