<?xml version="1.0" encoding="UTF-8" standalone="no"?>
<!DOCTYPE svg PUBLIC "-//W3C//DTD SVG 1.1//EN"
 "http://www.w3.org/Graphics/SVG/1.1/DTD/svg11.dtd">
<!-- Generated by graphviz version 2.43.0 (0)
 -->
<!-- Title: %3 Pages: 1 -->
<svg width="1192pt" height="666pt"
 viewBox="0.00 0.00 1191.84 666.00" xmlns="http://www.w3.org/2000/svg" xmlns:xlink="http://www.w3.org/1999/xlink">
<g id="graph0" class="graph" transform="scale(1 1) rotate(0) translate(4 662)">
<title>%3</title>
<polygon fill="white" stroke="transparent" points="-4,4 -4,-662 1187.84,-662 1187.84,4 -4,4"/>
<text text-anchor="middle" x="591.92" y="-630" font-family="Times,serif" font-size="30.00">Dependencies</text>
<text text-anchor="middle" x="591.92" y="-597" font-family="Times,serif" font-size="30.00"> </text>
<!-- :shared:feature:search -->
<g id="node1" class="node">
<title>:shared:feature:search</title>
<polygon fill="#b59aff" stroke="black" points="728.1,-584 368.1,-584 368.1,-548 728.1,-548 728.1,-584"/>
<text text-anchor="middle" x="548.1" y="-562.3" font-family="Times,serif" font-size="14.00">:shared:feature:search</text>
</g>
<!-- :core:models -->
<g id="node2" class="node">
<title>:core:models</title>
<ellipse fill="#b59aff" stroke="black" cx="124.1" cy="-18" rx="69.59" ry="18"/>
<text text-anchor="middle" x="124.1" y="-14.3" font-family="Times,serif" font-size="14.00">:core:models</text>
</g>
<!-- :shared:feature:search&#45;&gt;:core:models -->
<g id="edge1" class="edge">
<title>:shared:feature:search&#45;&gt;:core:models</title>
<path fill="none" stroke="black" stroke-dasharray="1,5" d="M667.94,-547.78C667.94,-451.79 667.94,-9 667.94,-9 667.94,-9 194.37,-9 194.37,-9"/>
<polygon fill="black" stroke="black" points="194.37,-5.5 184.37,-9 194.37,-12.5 194.37,-5.5"/>
</g>
<!-- :domain -->
<g id="node3" class="node">
<title>:domain</title>
<ellipse fill="#b59aff" stroke="black" cx="48.1" cy="-155" rx="48.19" ry="18"/>
<text text-anchor="middle" x="48.1" y="-151.3" font-family="Times,serif" font-size="14.00">:domain</text>
</g>
<!-- :shared:feature:search&#45;&gt;:domain -->
<g id="edge2" class="edge">
<title>:shared:feature:search&#45;&gt;:domain</title>
<path fill="none" stroke="black" stroke-dasharray="1,5" d="M367.77,-566C212.87,-566 14.35,-566 14.35,-566 14.35,-566 14.35,-178.21 14.35,-178.21"/>
<polygon fill="black" stroke="black" points="17.85,-178.21 14.35,-168.21 10.85,-178.21 17.85,-178.21"/>
</g>
<!-- :strings -->
<g id="node4" class="node">
<title>:strings</title>
<ellipse fill="#b59aff" stroke="black" cx="1065.1" cy="-18" rx="46.29" ry="18"/>
<text text-anchor="middle" x="1065.1" y="-14.3" font-family="Times,serif" font-size="14.00">:strings</text>
</g>
<!-- :shared:feature:search&#45;&gt;:strings -->
<g id="edge3" class="edge">
<title>:shared:feature:search&#45;&gt;:strings</title>
<path fill="none" stroke="black" stroke-dasharray="1,5" d="M682.05,-547.76C682.05,-453.6 682.05,-27 682.05,-27 682.05,-27 1014.83,-27 1014.83,-27"/>
<polygon fill="black" stroke="black" points="1014.83,-30.5 1024.83,-27 1014.83,-23.5 1014.83,-30.5"/>
</g>
<!-- :ui:common -->
<g id="node5" class="node">
<title>:ui:common</title>
<ellipse fill="#b59aff" stroke="black" cx="548.1" cy="-429" rx="64.19" ry="18"/>
<text text-anchor="middle" x="548.1" y="-425.3" font-family="Times,serif" font-size="14.00">:ui:common</text>
</g>
<!-- :shared:feature:search&#45;&gt;:ui:common -->
<g id="edge4" class="edge">
<title>:shared:feature:search&#45;&gt;:ui:common</title>
<path fill="none" stroke="black" stroke-dasharray="1,5" d="M548.1,-547.81C548.1,-547.81 548.1,-457.27 548.1,-457.27"/>
<polygon fill="black" stroke="black" points="551.6,-457.27 548.1,-447.27 544.6,-457.27 551.6,-457.27"/>
</g>
<!-- :ui:core -->
<g id="node6" class="node">
<title>:ui:core</title>
<ellipse fill="#b59aff" stroke="black" cx="1065.1" cy="-155" rx="45.49" ry="18"/>
<text text-anchor="middle" x="1065.1" y="-151.3" font-family="Times,serif" font-size="14.00">:ui:core</text>
</g>
<!-- :shared:feature:search&#45;&gt;:ui:core -->
<g id="edge5" class="edge">
<title>:shared:feature:search&#45;&gt;:ui:core</title>
<path fill="none" stroke="black" stroke-dasharray="1,5" d="M728.13,-566C865.26,-566 1030.66,-566 1030.66,-566 1030.66,-566 1030.66,-176.86 1030.66,-176.86"/>
<polygon fill="black" stroke="black" points="1034.16,-176.86 1030.66,-166.86 1027.16,-176.86 1034.16,-176.86"/>
</g>
<!-- :domain&#45;&gt;:core:models -->
<g id="edge6" class="edge">
<title>:domain&#45;&gt;:core:models</title>
<path fill="none" stroke="black" stroke-dasharray="1,5" d="M75.37,-140.08C75.37,-140.08 75.37,-40.88 75.37,-40.88"/>
<polygon fill="black" stroke="black" points="78.87,-40.88 75.37,-30.88 71.87,-40.88 78.87,-40.88"/>
</g>
<!-- :ui:common&#45;&gt;:core:models -->
<g id="edge9" class="edge">
<title>:ui:common&#45;&gt;:core:models</title>
<path fill="none" stroke="black" d="M592.63,-416C621.53,-416 653.84,-416 653.84,-416 653.84,-416 653.84,-13 653.84,-13 653.84,-13 200.92,-13 200.92,-13"/>
<polygon fill="black" stroke="black" points="200.92,-9.5 190.92,-13 200.92,-16.5 200.92,-9.5"/>
</g>
<!-- :ui:common&#45;&gt;:domain -->
<g id="edge14" class="edge">
<title>:ui:common&#45;&gt;:domain</title>
<path fill="none" stroke="black" stroke-dasharray="1,5" d="M494.47,-439C361.76,-439 28.7,-439 28.7,-439 28.7,-439 28.7,-181.5 28.7,-181.5"/>
<polygon fill="black" stroke="black" points="32.2,-181.5 28.7,-171.5 25.2,-181.5 32.2,-181.5"/>
</g>
<!-- :ui:common&#45;&gt;:strings -->
<g id="edge15" class="edge">
<title>:ui:common&#45;&gt;:strings</title>
<path fill="none" stroke="black" stroke-dasharray="1,5" d="M611.58,-426C690,-426 813.15,-426 813.15,-426 813.15,-426 813.15,-31 813.15,-31 813.15,-31 1022.93,-31 1022.93,-31"/>
<polygon fill="black" stroke="black" points="1022.93,-34.5 1032.93,-31 1022.93,-27.5 1022.93,-34.5"/>
</g>
<!-- :ui:common&#45;&gt;:ui:core -->
<g id="edge16" class="edge">
<title>:ui:common&#45;&gt;:ui:core</title>
<path fill="none" stroke="red" d="M607.78,-436C736.15,-436 1026.98,-436 1026.98,-436 1026.98,-436 1026.98,-175 1026.98,-175"/>
<polygon fill="red" stroke="red" points="1030.48,-175 1026.98,-165 1023.48,-175 1030.48,-175"/>
</g>
<!-- :ui:test:image -->
<g id="node7" class="node">
<title>:ui:test:image</title>
<ellipse fill="#9affb5" stroke="black" cx="1109.1" cy="-292" rx="74.99" ry="18"/>
<text text-anchor="middle" x="1109.1" y="-288.3" font-family="Times,serif" font-size="14.00">:ui:test:image</text>
</g>
<!-- :ui:common&#45;&gt;:ui:test:image -->
<g id="edge7" class="edge">
<title>:ui:common&#45;&gt;:ui:test:image</title>
<path fill="none" stroke="#ff9ab1" d="M596.41,-441C732.49,-441 1109.1,-441 1109.1,-441 1109.1,-441 1109.1,-320.27 1109.1,-320.27"/>
<polygon fill="#ff9ab1" stroke="#ff9ab1" points="1112.6,-320.27 1109.1,-310.27 1105.6,-320.27 1112.6,-320.27"/>
</g>
<!-- :ui:test:screenshot -->
<g id="node8" class="node">
<title>:ui:test:screenshot</title>
<ellipse fill="#9affb5" stroke="black" cx="919.1" cy="-292" rx="96.68" ry="18"/>
<text text-anchor="middle" x="919.1" y="-288.3" font-family="Times,serif" font-size="14.00">:ui:test:screenshot</text>
</g>
<!-- :ui:common&#45;&gt;:ui:test:screenshot -->
<g id="edge8" class="edge">
<title>:ui:common&#45;&gt;:ui:test:screenshot</title>
<path fill="none" stroke="#ff9ab1" d="M612.3,-431C718.48,-431 919.1,-431 919.1,-431 919.1,-431 919.1,-320.17 919.1,-320.17"/>
<polygon fill="#ff9ab1" stroke="#ff9ab1" points="922.6,-320.17 919.1,-310.17 915.6,-320.17 922.6,-320.17"/>
</g>
<!-- :data:coverart -->
<g id="node9" class="node">
<title>:data:coverart</title>
<ellipse fill="#b59aff" stroke="black" cx="119.1" cy="-292" rx="76.09" ry="18"/>
<text text-anchor="middle" x="119.1" y="-288.3" font-family="Times,serif" font-size="14.00">:data:coverart</text>
</g>
<!-- :ui:common&#45;&gt;:data:coverart -->
<g id="edge10" class="edge">
<title>:ui:common&#45;&gt;:data:coverart</title>
<path fill="none" stroke="orange" d="M484.33,-432C364.83,-432 119.1,-432 119.1,-432 119.1,-432 119.1,-320.02 119.1,-320.02"/>
<polygon fill="orange" stroke="orange" points="122.6,-320.02 119.1,-310.02 115.6,-320.02 122.6,-320.02"/>
</g>
<!-- :data:musicbrainz -->
<g id="node10" class="node">
<title>:data:musicbrainz</title>
<ellipse fill="#b59aff" stroke="black" cx="345.1" cy="-292" rx="93.68" ry="18"/>
<text text-anchor="middle" x="345.1" y="-288.3" font-family="Times,serif" font-size="14.00">:data:musicbrainz</text>
</g>
<!-- :ui:common&#45;&gt;:data:musicbrainz -->
<g id="edge11" class="edge">
<title>:ui:common&#45;&gt;:data:musicbrainz</title>
<path fill="none" stroke="orange" d="M497.08,-418C455.42,-418 403.39,-418 403.39,-418 403.39,-418 403.39,-316.45 403.39,-316.45"/>
<polygon fill="orange" stroke="orange" points="406.89,-316.45 403.39,-306.45 399.89,-316.45 406.89,-316.45"/>
</g>
<!-- :core:preferences -->
<g id="node11" class="node">
<title>:core:preferences</title>
<ellipse fill="#b59aff" stroke="black" cx="548.1" cy="-292" rx="91.78" ry="18"/>
<text text-anchor="middle" x="548.1" y="-288.3" font-family="Times,serif" font-size="14.00">:core:preferences</text>
</g>
<!-- :ui:common&#45;&gt;:core:preferences -->
<g id="edge12" class="edge">
<title>:ui:common&#45;&gt;:core:preferences</title>
<path fill="none" stroke="black" stroke-dasharray="1,5" d="M548.1,-410.81C548.1,-410.81 548.1,-320.27 548.1,-320.27"/>
<polygon fill="black" stroke="black" points="551.6,-320.27 548.1,-310.27 544.6,-320.27 551.6,-320.27"/>
</g>
<!-- :core:logging:api -->
<g id="node12" class="node">
<title>:core:logging:api</title>
<ellipse fill="#b59aff" stroke="black" cx="240.1" cy="-155" rx="88.28" ry="18"/>
<text text-anchor="middle" x="240.1" y="-151.3" font-family="Times,serif" font-size="14.00">:core:logging:api</text>
</g>
<!-- :ui:common&#45;&gt;:core:logging:api -->
<g id="edge13" class="edge">
<title>:ui:common&#45;&gt;:core:logging:api</title>
<path fill="none" stroke="black" stroke-dasharray="1,5" d="M485.09,-425C390.64,-425 223.32,-425 223.32,-425 223.32,-425 223.32,-182.72 223.32,-182.72"/>
<polygon fill="black" stroke="black" points="226.82,-182.72 223.32,-172.72 219.82,-182.72 226.82,-182.72"/>
</g>
<!-- :ui:image -->
<g id="node13" class="node">
<title>:ui:image</title>
<ellipse fill="#b59aff" stroke="black" cx="750.1" cy="-292" rx="53.89" ry="18"/>
<text text-anchor="middle" x="750.1" y="-288.3" font-family="Times,serif" font-size="14.00">:ui:image</text>
</g>
<!-- :ui:common&#45;&gt;:ui:image -->
<g id="edge17" class="edge">
<title>:ui:common&#45;&gt;:ui:image</title>
<path fill="none" stroke="red" d="M605.93,-421C653.15,-421 712.12,-421 712.12,-421 712.12,-421 712.12,-314.84 712.12,-314.84"/>
<polygon fill="red" stroke="red" points="715.62,-314.84 712.12,-304.84 708.62,-314.84 715.62,-314.84"/>
</g>
<!-- :ui:core&#45;&gt;:strings -->
<g id="edge18" class="edge">
<title>:ui:core&#45;&gt;:strings</title>
<path fill="none" stroke="black" d="M1065.1,-136.81C1065.1,-136.81 1065.1,-46.27 1065.1,-46.27"/>
<polygon fill="black" stroke="black" points="1068.6,-46.27 1065.1,-36.27 1061.6,-46.27 1068.6,-46.27"/>
</g>
<!-- :ui:test:screenshot&#45;&gt;:ui:core -->
<g id="edge19" class="edge">
<title>:ui:test:screenshot&#45;&gt;:ui:core</title>
<path fill="none" stroke="red" d="M1016.13,-292C1020.62,-292 1023.29,-292 1023.29,-292 1023.29,-292 1023.29,-172.37 1023.29,-172.37"/>
<polygon fill="red" stroke="red" points="1026.79,-172.37 1023.29,-162.37 1019.79,-172.37 1026.79,-172.37"/>
</g>
<!-- :data:coverart&#45;&gt;:core:models -->
<g id="edge21" class="edge">
<title>:data:coverart&#45;&gt;:core:models</title>
<path fill="none" stroke="black" stroke-dasharray="1,5" d="M123.95,-274.02C123.95,-274.02 123.95,-46.04 123.95,-46.04"/>
<polygon fill="black" stroke="black" points="127.45,-46.04 123.95,-36.04 120.45,-46.04 127.45,-46.04"/>
</g>
<!-- :data:coverart&#45;&gt;:domain -->
<g id="edge22" class="edge">
<title>:data:coverart&#45;&gt;:domain</title>
<path fill="none" stroke="black" stroke-dasharray="1,5" d="M69.62,-278.11C69.62,-278.11 69.62,-181.46 69.62,-181.46"/>
<polygon fill="black" stroke="black" points="73.12,-181.46 69.62,-171.46 66.12,-181.46 73.12,-181.46"/>
</g>
<!-- :data:coverart&#45;&gt;:core:logging:api -->
<g id="edge20" class="edge">
<title>:data:coverart&#45;&gt;:core:logging:api</title>
<path fill="none" stroke="black" stroke-dasharray="1,5" d="M173.42,-279.36C173.42,-279.36 173.42,-176.83 173.42,-176.83"/>
<polygon fill="black" stroke="black" points="176.92,-176.83 173.42,-166.83 169.92,-176.83 176.92,-176.83"/>
</g>
<!-- :data:musicbrainz&#45;&gt;:core:models -->
<g id="edge24" class="edge">
<title>:data:musicbrainz&#45;&gt;:core:models</title>
<path fill="none" stroke="black" stroke-dasharray="1,5" d="M356.22,-273.87C356.22,-213.33 356.22,-22 356.22,-22 356.22,-22 202.17,-22 202.17,-22"/>
<polygon fill="black" stroke="black" points="202.17,-18.5 192.17,-22 202.17,-25.5 202.17,-18.5"/>
</g>
<!-- :data:musicbrainz&#45;&gt;:core:logging:api -->
<g id="edge23" class="edge">
<title>:data:musicbrainz&#45;&gt;:core:logging:api</title>
<path fill="none" stroke="black" stroke-dasharray="1,5" d="M290,-277.34C290,-277.34 290,-179.97 290,-179.97"/>
<polygon fill="black" stroke="black" points="293.5,-179.97 290,-169.97 286.5,-179.97 293.5,-179.97"/>
</g>
<!-- :core:preferences&#45;&gt;:core:models -->
<g id="edge26" class="edge">
<title>:core:preferences&#45;&gt;:core:models</title>
<path fill="none" stroke="black" stroke-dasharray="1,5" d="M596.99,-276.48C596.99,-218.52 596.99,-18 596.99,-18 596.99,-18 203.87,-18 203.87,-18"/>
<polygon fill="black" stroke="black" points="203.87,-14.5 193.87,-18 203.87,-21.5 203.87,-14.5"/>
</g>
<!-- :core:coroutines -->
<g id="node14" class="node">
<title>:core:coroutines</title>
<ellipse fill="#b59aff" stroke="black" cx="469.1" cy="-155" rx="85.29" ry="18"/>
<text text-anchor="middle" x="469.1" y="-151.3" font-family="Times,serif" font-size="14.00">:core:coroutines</text>
</g>
<!-- :core:preferences&#45;&gt;:core:coroutines -->
<g id="edge25" class="edge">
<title>:core:preferences&#45;&gt;:core:coroutines</title>
<path fill="none" stroke="black" stroke-dasharray="1,5" d="M505.35,-276.02C505.35,-276.02 505.35,-181.31 505.35,-181.31"/>
<polygon fill="black" stroke="black" points="508.85,-181.31 505.35,-171.31 501.85,-181.31 508.85,-181.31"/>
</g>
<!-- :ui:image&#45;&gt;:core:models -->
<g id="edge27" class="edge">
<title>:ui:image&#45;&gt;:core:models</title>
<path fill="none" stroke="black" stroke-dasharray="1,5" d="M732.11,-274.85C732.11,-212.85 732.11,-4 732.11,-4 732.11,-4 177.82,-4 177.82,-4"/>
<polygon fill="black" stroke="black" points="177.82,-0.5 167.82,-4 177.82,-7.5 177.82,-0.5"/>
</g>
<!-- :ui:image&#45;&gt;:ui:core -->
<g id="edge28" class="edge">
<title>:ui:image&#45;&gt;:ui:core</title>
<path fill="none" stroke="red" d="M768.08,-274.93C768.08,-238.2 768.08,-155 768.08,-155 768.08,-155 1009.34,-155 1009.34,-155"/>
<polygon fill="red" stroke="red" points="1009.34,-158.5 1019.34,-155 1009.34,-151.5 1009.34,-158.5"/>
</g>
</g>
</svg>
