<?xml version="1.0" encoding="UTF-8" standalone="no"?>
<!DOCTYPE svg PUBLIC "-//W3C//DTD SVG 1.1//EN"
 "http://www.w3.org/Graphics/SVG/1.1/DTD/svg11.dtd">
<!-- Generated by graphviz version 2.43.0 (0)
 -->
<!-- Title: %3 Pages: 1 -->
<svg width="368pt" height="255pt"
 viewBox="0.00 0.00 367.93 255.00" xmlns="http://www.w3.org/2000/svg" xmlns:xlink="http://www.w3.org/1999/xlink">
<g id="graph0" class="graph" transform="scale(1 1) rotate(0) translate(4 251)">
<title>%3</title>
<polygon fill="white" stroke="transparent" points="-4,4 -4,-251 363.93,-251 363.93,4 -4,4"/>
<text text-anchor="middle" x="179.97" y="-219" font-family="Times,serif" font-size="30.00">Dependencies</text>
<text text-anchor="middle" x="179.97" y="-186" font-family="Times,serif" font-size="30.00"> </text>
<!-- :data:listenbrainz -->
<g id="node1" class="node">
<title>:data:listenbrainz</title>
<polygon fill="#b59aff" stroke="black" points="247.54,-173 105.54,-173 105.54,-137 247.54,-137 247.54,-173"/>
<text text-anchor="middle" x="176.54" y="-151.3" font-family="Times,serif" font-size="14.00">:data:listenbrainz</text>
</g>
<!-- :shared:domain -->
<g id="node2" class="node">
<title>:shared:domain</title>
<ellipse fill="#b59aff" stroke="black" cx="82.54" cy="-18" rx="82.59" ry="18"/>
<text text-anchor="middle" x="82.54" y="-14.3" font-family="Times,serif" font-size="14.00">:shared:domain</text>
</g>
<!-- :data:listenbrainz&#45;&gt;:shared:domain -->
<g id="edge1" class="edge">
<title>:data:listenbrainz&#45;&gt;:shared:domain</title>
<path fill="none" stroke="black" stroke-dasharray="1,5" d="M135.31,-136.81C135.31,-136.81 135.31,-42.1 135.31,-42.1"/>
<polygon fill="black" stroke="black" points="138.81,-42.1 135.31,-32.1 131.81,-42.1 138.81,-42.1"/>
</g>
<!-- :core:logging:api -->
<g id="node3" class="node">
<title>:core:logging:api</title>
<ellipse fill="#b59aff" stroke="black" cx="271.54" cy="-18" rx="88.28" ry="18"/>
<text text-anchor="middle" x="271.54" y="-14.3" font-family="Times,serif" font-size="14.00">:core:logging:api</text>
</g>
<!-- :data:listenbrainz&#45;&gt;:core:logging:api -->
<g id="edge2" class="edge">
<title>:data:listenbrainz&#45;&gt;:core:logging:api</title>
<path fill="none" stroke="black" stroke-dasharray="1,5" d="M215.35,-136.81C215.35,-136.81 215.35,-42.1 215.35,-42.1"/>
<polygon fill="black" stroke="black" points="218.85,-42.1 215.35,-32.1 211.85,-42.1 218.85,-42.1"/>
</g>
</g>
</svg>
