<?xml version="1.0" encoding="UTF-8" standalone="no"?>
<!DOCTYPE svg PUBLIC "-//W3C//DTD SVG 1.1//EN"
 "http://www.w3.org/Graphics/SVG/1.1/DTD/svg11.dtd">
<!-- Generated by graphviz version 14.1.2 (0)
 -->
<!-- Pages: 1 -->
<svg width="392pt" height="261pt"
 viewBox="0.00 0.00 392.00 261.00" xmlns="http://www.w3.org/2000/svg" xmlns:xlink="http://www.w3.org/1999/xlink">
<g id="graph0" class="graph" transform="scale(1 1) rotate(0) translate(4 257)">
<polygon fill="white" stroke="none" points="-4,4 -4,-257 388.44,-257 388.44,4 -4,4"/>
<text xml:space="preserve" text-anchor="middle" x="192.22" y="-220.5" font-family="Times,serif" font-size="30.00">Dependencies</text>
<text xml:space="preserve" text-anchor="middle" x="192.22" y="-184.5" font-family="Times,serif" font-size="30.00"> </text>
<!-- :data:listenbrainz -->
<g id="node1" class="node">
<title>:data:listenbrainz</title>
<polygon fill="#b59aff" stroke="black" points="259.19,-173 117.94,-173 117.94,-137 259.19,-137 259.19,-173"/>
<text xml:space="preserve" text-anchor="middle" x="188.56" y="-150.32" font-family="Times,serif" font-size="14.00">:data:listenbrainz</text>
</g>
<!-- :shared:domain -->
<g id="node2" class="node">
<title>:shared:domain</title>
<ellipse fill="#b59aff" stroke="black" cx="88.56" cy="-18" rx="88.56" ry="18"/>
<text xml:space="preserve" text-anchor="middle" x="88.56" y="-13.32" font-family="Times,serif" font-size="14.00">:shared:domain</text>
</g>
<!-- :data:listenbrainz&#45;&gt;:shared:domain -->
<g id="edge1" class="edge">
<title>:data:listenbrainz&#45;&gt;:shared:domain</title>
<path fill="none" stroke="black" stroke-dasharray="1,5" d="M147.53,-136.52C147.53,-136.52 147.53,-43.16 147.53,-43.16"/>
<polygon fill="black" stroke="black" points="151.03,-43.16 147.53,-33.16 144.03,-43.16 151.03,-43.16"/>
</g>
<!-- :core:logging:api -->
<g id="node3" class="node">
<title>:core:logging:api</title>
<ellipse fill="#b59aff" stroke="black" cx="289.56" cy="-18" rx="94.88" ry="18"/>
<text xml:space="preserve" text-anchor="middle" x="289.56" y="-13.32" font-family="Times,serif" font-size="14.00">:core:logging:api</text>
</g>
<!-- :data:listenbrainz&#45;&gt;:core:logging:api -->
<g id="edge2" class="edge">
<title>:data:listenbrainz&#45;&gt;:core:logging:api</title>
<path fill="none" stroke="black" stroke-dasharray="1,5" d="M226.94,-136.52C226.94,-136.52 226.94,-43.16 226.94,-43.16"/>
<polygon fill="black" stroke="black" points="230.44,-43.16 226.94,-33.16 223.44,-43.16 230.44,-43.16"/>
</g>
</g>
</svg>
