<?xml version="1.0" encoding="UTF-8" standalone="no"?>
<!DOCTYPE svg PUBLIC "-//W3C//DTD SVG 1.1//EN"
 "http://www.w3.org/Graphics/SVG/1.1/DTD/svg11.dtd">
<!-- Generated by graphviz version 2.43.0 (0)
 -->
<!-- Title: %3 Pages: 1 -->
<svg width="1580pt" height="666pt"
 viewBox="0.00 0.00 1579.74 666.00" xmlns="http://www.w3.org/2000/svg" xmlns:xlink="http://www.w3.org/1999/xlink">
<g id="graph0" class="graph" transform="scale(1 1) rotate(0) translate(4 662)">
<title>%3</title>
<polygon fill="white" stroke="transparent" points="-4,4 -4,-662 1575.74,-662 1575.74,4 -4,4"/>
<text text-anchor="middle" x="785.87" y="-630" font-family="Times,serif" font-size="30.00">Dependencies</text>
<text text-anchor="middle" x="785.87" y="-597" font-family="Times,serif" font-size="30.00"> </text>
<!-- :shared:feature:details -->
<g id="node1" class="node">
<title>:shared:feature:details</title>
<polygon fill="#b59aff" stroke="black" points="890.39,-584 711.39,-584 711.39,-548 890.39,-548 890.39,-584"/>
<text text-anchor="middle" x="800.89" y="-562.3" font-family="Times,serif" font-size="14.00">:shared:feature:details</text>
</g>
<!-- :test&#45;data -->
<g id="node2" class="node">
<title>:test&#45;data</title>
<ellipse fill="#b59aff" stroke="black" cx="469.89" cy="-429" rx="55.49" ry="18"/>
<text text-anchor="middle" x="469.89" y="-425.3" font-family="Times,serif" font-size="14.00">:test&#45;data</text>
</g>
<!-- :shared:feature:details&#45;&gt;:test&#45;data -->
<g id="edge1" class="edge">
<title>:shared:feature:details&#45;&gt;:test&#45;data</title>
<path fill="none" stroke="#ff9ab1" stroke-dasharray="1,5" d="M714.8,-547.93C714.8,-512.65 714.8,-438 714.8,-438 714.8,-438 527.99,-438 527.99,-438"/>
<polygon fill="#ff9ab1" stroke="#ff9ab1" points="527.99,-434.5 517.99,-438 527.99,-441.5 527.99,-434.5"/>
</g>
<!-- :ui:test:screenshot -->
<g id="node3" class="node">
<title>:ui:test:screenshot</title>
<ellipse fill="#9affb5" stroke="black" cx="1474.89" cy="-292" rx="96.68" ry="18"/>
<text text-anchor="middle" x="1474.89" y="-288.3" font-family="Times,serif" font-size="14.00">:ui:test:screenshot</text>
</g>
<!-- :shared:feature:details&#45;&gt;:ui:test:screenshot -->
<g id="edge2" class="edge">
<title>:shared:feature:details&#45;&gt;:ui:test:screenshot</title>
<path fill="none" stroke="#ff9ab1" stroke-dasharray="1,5" d="M890.7,-572C1080.93,-572 1507.17,-572 1507.17,-572 1507.17,-572 1507.17,-319.09 1507.17,-319.09"/>
<polygon fill="#ff9ab1" stroke="#ff9ab1" points="1510.67,-319.09 1507.17,-309.09 1503.67,-319.09 1510.67,-319.09"/>
</g>
<!-- :ui:common -->
<g id="node4" class="node">
<title>:ui:common</title>
<ellipse fill="#b59aff" stroke="black" cx="999.89" cy="-429" rx="64.19" ry="18"/>
<text text-anchor="middle" x="999.89" y="-425.3" font-family="Times,serif" font-size="14.00">:ui:common</text>
</g>
<!-- :shared:feature:details&#45;&gt;:ui:common -->
<g id="edge3" class="edge">
<title>:shared:feature:details&#45;&gt;:ui:common</title>
<path fill="none" stroke="black" stroke-dasharray="1,5" d="M887.84,-547.93C887.84,-512.65 887.84,-438 887.84,-438 887.84,-438 933.87,-438 933.87,-438"/>
<polygon fill="black" stroke="black" points="933.87,-441.5 943.87,-438 933.87,-434.5 933.87,-441.5"/>
</g>
<!-- :shared:domain -->
<g id="node5" class="node">
<title>:shared:domain</title>
<ellipse fill="#b59aff" stroke="black" cx="761.89" cy="-155" rx="82.59" ry="18"/>
<text text-anchor="middle" x="761.89" y="-151.3" font-family="Times,serif" font-size="14.00">:shared:domain</text>
</g>
<!-- :shared:feature:details&#45;&gt;:shared:domain -->
<g id="edge4" class="edge">
<title>:shared:feature:details&#45;&gt;:shared:domain</title>
<path fill="none" stroke="black" stroke-dasharray="1,5" d="M882.74,-547.81C882.74,-469.01 882.74,-161 882.74,-161 882.74,-161 849.79,-161 849.79,-161"/>
<polygon fill="black" stroke="black" points="849.79,-157.5 839.79,-161 849.79,-164.5 849.79,-157.5"/>
</g>
<!-- :core:preferences -->
<g id="node6" class="node">
<title>:core:preferences</title>
<ellipse fill="#b59aff" stroke="black" cx="1103.89" cy="-292" rx="91.78" ry="18"/>
<text text-anchor="middle" x="1103.89" y="-288.3" font-family="Times,serif" font-size="14.00">:core:preferences</text>
</g>
<!-- :shared:feature:details&#45;&gt;:core:preferences -->
<g id="edge5" class="edge">
<title>:shared:feature:details&#45;&gt;:core:preferences</title>
<path fill="none" stroke="black" stroke-dasharray="1,5" d="M885.29,-547.79C885.29,-487.91 885.29,-301 885.29,-301 885.29,-301 1014.35,-301 1014.35,-301"/>
<polygon fill="black" stroke="black" points="1014.35,-304.5 1024.35,-301 1014.35,-297.5 1014.35,-304.5"/>
</g>
<!-- :core:logging:api -->
<g id="node7" class="node">
<title>:core:logging:api</title>
<ellipse fill="#b59aff" stroke="black" cx="448.89" cy="-155" rx="88.28" ry="18"/>
<text text-anchor="middle" x="448.89" y="-151.3" font-family="Times,serif" font-size="14.00">:core:logging:api</text>
</g>
<!-- :shared:feature:details&#45;&gt;:core:logging:api -->
<g id="edge6" class="edge">
<title>:shared:feature:details&#45;&gt;:core:logging:api</title>
<path fill="none" stroke="black" stroke-dasharray="1,5" d="M710.94,-557C593.37,-557 402.27,-557 402.27,-557 402.27,-557 402.27,-180.76 402.27,-180.76"/>
<polygon fill="black" stroke="black" points="405.77,-180.76 402.27,-170.76 398.77,-180.76 405.77,-180.76"/>
</g>
<!-- :data:common:network -->
<g id="node8" class="node">
<title>:data:common:network</title>
<ellipse fill="#b59aff" stroke="black" cx="272.89" cy="-292" rx="116.98" ry="18"/>
<text text-anchor="middle" x="272.89" y="-288.3" font-family="Times,serif" font-size="14.00">:data:common:network</text>
</g>
<!-- :shared:feature:details&#45;&gt;:data:common:network -->
<g id="edge7" class="edge">
<title>:shared:feature:details&#45;&gt;:data:common:network</title>
<path fill="none" stroke="black" stroke-dasharray="1,5" d="M711.36,-566C551.59,-566 233.9,-566 233.9,-566 233.9,-566 233.9,-319.14 233.9,-319.14"/>
<polygon fill="black" stroke="black" points="237.4,-319.14 233.9,-309.14 230.4,-319.14 237.4,-319.14"/>
</g>
<!-- :data:spotify -->
<g id="node9" class="node">
<title>:data:spotify</title>
<ellipse fill="#b59aff" stroke="black" cx="68.89" cy="-292" rx="68.79" ry="18"/>
<text text-anchor="middle" x="68.89" y="-288.3" font-family="Times,serif" font-size="14.00">:data:spotify</text>
</g>
<!-- :shared:feature:details&#45;&gt;:data:spotify -->
<g id="edge8" class="edge">
<title>:shared:feature:details&#45;&gt;:data:spotify</title>
<path fill="none" stroke="black" stroke-dasharray="1,5" d="M711.32,-575C511.34,-575 45.93,-575 45.93,-575 45.93,-575 45.93,-319.28 45.93,-319.28"/>
<polygon fill="black" stroke="black" points="49.43,-319.28 45.93,-309.28 42.43,-319.28 49.43,-319.28"/>
</g>
<!-- :data:musicbrainz -->
<g id="node10" class="node">
<title>:data:musicbrainz</title>
<ellipse fill="#b59aff" stroke="black" cx="709.89" cy="-292" rx="93.68" ry="18"/>
<text text-anchor="middle" x="709.89" y="-288.3" font-family="Times,serif" font-size="14.00">:data:musicbrainz</text>
</g>
<!-- :shared:feature:details&#45;&gt;:data:musicbrainz -->
<g id="edge9" class="edge">
<title>:shared:feature:details&#45;&gt;:data:musicbrainz</title>
<path fill="none" stroke="black" stroke-dasharray="1,5" d="M718.2,-547.6C718.2,-547.6 718.2,-319.97 718.2,-319.97"/>
<polygon fill="black" stroke="black" points="721.7,-319.97 718.2,-309.97 714.7,-319.97 721.7,-319.97"/>
</g>
<!-- :data:database -->
<g id="node11" class="node">
<title>:data:database</title>
<ellipse fill="#b59aff" stroke="black" cx="800.89" cy="-429" rx="79.09" ry="18"/>
<text text-anchor="middle" x="800.89" y="-425.3" font-family="Times,serif" font-size="14.00">:data:database</text>
</g>
<!-- :shared:feature:details&#45;&gt;:data:database -->
<g id="edge10" class="edge">
<title>:shared:feature:details&#45;&gt;:data:database</title>
<path fill="none" stroke="black" stroke-dasharray="1,5" d="M800.89,-547.81C800.89,-547.81 800.89,-457.27 800.89,-457.27"/>
<polygon fill="black" stroke="black" points="804.39,-457.27 800.89,-447.27 797.39,-457.27 804.39,-457.27"/>
</g>
<!-- :ui:image -->
<g id="node12" class="node">
<title>:ui:image</title>
<ellipse fill="#b59aff" stroke="black" cx="1305.89" cy="-292" rx="53.89" ry="18"/>
<text text-anchor="middle" x="1305.89" y="-288.3" font-family="Times,serif" font-size="14.00">:ui:image</text>
</g>
<!-- :shared:feature:details&#45;&gt;:ui:image -->
<g id="edge11" class="edge">
<title>:shared:feature:details&#45;&gt;:ui:image</title>
<path fill="none" stroke="black" stroke-dasharray="1,5" d="M890.5,-560C1039.95,-560 1323.88,-560 1323.88,-560 1323.88,-560 1323.88,-319.17 1323.88,-319.17"/>
<polygon fill="black" stroke="black" points="1327.38,-319.17 1323.88,-309.17 1320.38,-319.17 1327.38,-319.17"/>
</g>
<!-- :test&#45;data&#45;&gt;:shared:domain -->
<g id="edge12" class="edge">
<title>:test&#45;data&#45;&gt;:shared:domain</title>
<path fill="none" stroke="black" stroke-dasharray="1,5" d="M517.89,-420C557.46,-420 607.12,-420 607.12,-420 607.12,-420 607.12,-164 607.12,-164 607.12,-164 680.4,-164 680.4,-164"/>
<polygon fill="black" stroke="black" points="680.4,-167.5 690.4,-164 680.4,-160.5 680.4,-167.5"/>
</g>
<!-- :test&#45;data&#45;&gt;:data:common:network -->
<g id="edge13" class="edge">
<title>:test&#45;data&#45;&gt;:data:common:network</title>
<path fill="none" stroke="black" stroke-dasharray="1,5" d="M430.25,-416.36C430.25,-382.44 430.25,-292 430.25,-292 430.25,-292 400.14,-292 400.14,-292"/>
<polygon fill="black" stroke="black" points="400.14,-288.5 390.14,-292 400.14,-295.5 400.14,-288.5"/>
</g>
<!-- :test&#45;data&#45;&gt;:data:spotify -->
<g id="edge16" class="edge">
<title>:test&#45;data&#45;&gt;:data:spotify</title>
<path fill="none" stroke="black" stroke-dasharray="1,5" d="M414.52,-429C309.52,-429 91.86,-429 91.86,-429 91.86,-429 91.86,-319.07 91.86,-319.07"/>
<polygon fill="black" stroke="black" points="95.36,-319.07 91.86,-309.07 88.36,-319.07 95.36,-319.07"/>
</g>
<!-- :test&#45;data&#45;&gt;:data:musicbrainz -->
<g id="edge14" class="edge">
<title>:test&#45;data&#45;&gt;:data:musicbrainz</title>
<path fill="none" stroke="black" stroke-dasharray="1,5" d="M525.21,-429C582.54,-429 663.85,-429 663.85,-429 663.85,-429 663.85,-317.72 663.85,-317.72"/>
<polygon fill="black" stroke="black" points="667.35,-317.72 663.85,-307.72 660.35,-317.72 667.35,-317.72"/>
</g>
<!-- :data:coverart -->
<g id="node13" class="node">
<title>:data:coverart</title>
<ellipse fill="#b59aff" stroke="black" cx="521.89" cy="-292" rx="76.09" ry="18"/>
<text text-anchor="middle" x="521.89" y="-288.3" font-family="Times,serif" font-size="14.00">:data:coverart</text>
</g>
<!-- :test&#45;data&#45;&gt;:data:coverart -->
<g id="edge15" class="edge">
<title>:test&#45;data&#45;&gt;:data:coverart</title>
<path fill="none" stroke="black" stroke-dasharray="1,5" d="M485.49,-411.65C485.49,-411.65 485.49,-317.94 485.49,-317.94"/>
<polygon fill="black" stroke="black" points="488.99,-317.94 485.49,-307.94 481.99,-317.94 488.99,-317.94"/>
</g>
<!-- :ui:core -->
<g id="node14" class="node">
<title>:ui:core</title>
<ellipse fill="#b59aff" stroke="black" cx="1305.89" cy="-155" rx="45.49" ry="18"/>
<text text-anchor="middle" x="1305.89" y="-151.3" font-family="Times,serif" font-size="14.00">:ui:core</text>
</g>
<!-- :ui:test:screenshot&#45;&gt;:ui:core -->
<g id="edge17" class="edge">
<title>:ui:test:screenshot&#45;&gt;:ui:core</title>
<path fill="none" stroke="black" stroke-dasharray="1,5" d="M1382.59,-286.46C1382.59,-260.83 1382.59,-155 1382.59,-155 1382.59,-155 1361.4,-155 1361.4,-155"/>
<polygon fill="black" stroke="black" points="1361.4,-151.5 1351.4,-155 1361.4,-158.5 1361.4,-151.5"/>
</g>
<!-- :test:image -->
<g id="node15" class="node">
<title>:test:image</title>
<ellipse fill="#9affb5" stroke="black" cx="1474.89" cy="-155" rx="63.09" ry="18"/>
<text text-anchor="middle" x="1474.89" y="-151.3" font-family="Times,serif" font-size="14.00">:test:image</text>
</g>
<!-- :ui:test:screenshot&#45;&gt;:test:image -->
<g id="edge18" class="edge">
<title>:ui:test:screenshot&#45;&gt;:test:image</title>
<path fill="none" stroke="black" stroke-dasharray="1,5" d="M1474.89,-273.81C1474.89,-273.81 1474.89,-183.27 1474.89,-183.27"/>
<polygon fill="black" stroke="black" points="1478.39,-183.27 1474.89,-173.27 1471.39,-183.27 1478.39,-183.27"/>
</g>
<!-- :ui:common&#45;&gt;:ui:test:screenshot -->
<g id="edge19" class="edge">
<title>:ui:common&#45;&gt;:ui:test:screenshot</title>
<path fill="none" stroke="#ff9ab1" stroke-dasharray="1,5" d="M1055.96,-438C1175.09,-438 1442.61,-438 1442.61,-438 1442.61,-438 1442.61,-319.03 1442.61,-319.03"/>
<polygon fill="#ff9ab1" stroke="#ff9ab1" points="1446.11,-319.03 1442.61,-309.03 1439.11,-319.03 1446.11,-319.03"/>
</g>
<!-- :ui:common&#45;&gt;:shared:domain -->
<g id="edge20" class="edge">
<title>:ui:common&#45;&gt;:shared:domain</title>
<path fill="none" stroke="black" d="M935.52,-429C917.42,-429 902.57,-429 902.57,-429 902.57,-429 902.57,-149 902.57,-149 902.57,-149 850.05,-149 850.05,-149"/>
<polygon fill="black" stroke="black" points="850.05,-145.5 840.05,-149 850.05,-152.5 850.05,-145.5"/>
</g>
<!-- :ui:common&#45;&gt;:core:preferences -->
<g id="edge25" class="edge">
<title>:ui:common&#45;&gt;:core:preferences</title>
<path fill="none" stroke="black" stroke-dasharray="1,5" d="M1038.25,-414.34C1038.25,-414.34 1038.25,-314.94 1038.25,-314.94"/>
<polygon fill="black" stroke="black" points="1041.75,-314.94 1038.25,-304.94 1034.75,-314.94 1041.75,-314.94"/>
</g>
<!-- :ui:common&#45;&gt;:core:logging:api -->
<g id="edge26" class="edge">
<title>:ui:common&#45;&gt;:core:logging:api</title>
<path fill="none" stroke="black" stroke-dasharray="1,5" d="M996.91,-410.83C996.91,-365.86 996.91,-253 996.91,-253 996.91,-253 506.81,-253 506.81,-253 506.81,-253 506.81,-178.63 506.81,-178.63"/>
<polygon fill="black" stroke="black" points="510.31,-178.63 506.81,-168.63 503.31,-178.63 510.31,-178.63"/>
</g>
<!-- :ui:common&#45;&gt;:data:common:network -->
<g id="edge24" class="edge">
<title>:ui:common&#45;&gt;:data:common:network</title>
<path fill="none" stroke="black" stroke-dasharray="1,5" d="M950.89,-417.2C950.89,-401.86 950.89,-377 950.89,-377 950.89,-377 311.89,-377 311.89,-377 311.89,-377 311.89,-319.2 311.89,-319.2"/>
<polygon fill="black" stroke="black" points="315.39,-319.2 311.89,-309.2 308.39,-319.2 315.39,-319.2"/>
</g>
<!-- :ui:common&#45;&gt;:data:musicbrainz -->
<g id="edge23" class="edge">
<title>:ui:common&#45;&gt;:data:musicbrainz</title>
<path fill="none" stroke="black" stroke-dasharray="1,5" d="M981.57,-411.65C981.57,-374.78 981.57,-292 981.57,-292 981.57,-292 813.77,-292 813.77,-292"/>
<polygon fill="black" stroke="black" points="813.77,-288.5 803.77,-292 813.77,-295.5 813.77,-288.5"/>
</g>
<!-- :ui:common&#45;&gt;:ui:image -->
<g id="edge27" class="edge">
<title>:ui:common&#45;&gt;:ui:image</title>
<path fill="none" stroke="black" stroke-dasharray="1,5" d="M1064.53,-429C1149.45,-429 1287.91,-429 1287.91,-429 1287.91,-429 1287.91,-319.07 1287.91,-319.07"/>
<polygon fill="black" stroke="black" points="1291.41,-319.07 1287.91,-309.07 1284.41,-319.07 1291.41,-319.07"/>
</g>
<!-- :ui:common&#45;&gt;:data:coverart -->
<g id="edge22" class="edge">
<title>:ui:common&#45;&gt;:data:coverart</title>
<path fill="none" stroke="black" stroke-dasharray="1,5" d="M966.23,-413.62C966.23,-388.89 966.23,-343 966.23,-343 966.23,-343 561.54,-343 561.54,-343 561.54,-343 561.54,-317.58 561.54,-317.58"/>
<polygon fill="black" stroke="black" points="565.04,-317.58 561.54,-307.58 558.04,-317.58 565.04,-317.58"/>
</g>
<!-- :ui:common&#45;&gt;:ui:core -->
<g id="edge21" class="edge">
<title>:ui:common&#45;&gt;:ui:core</title>
<path fill="none" stroke="black" d="M1055.67,-420C1117.94,-420 1210.09,-420 1210.09,-420 1210.09,-420 1210.09,-155 1210.09,-155 1210.09,-155 1250.24,-155 1250.24,-155"/>
<polygon fill="black" stroke="black" points="1250.24,-158.5 1260.24,-155 1250.24,-151.5 1250.24,-158.5"/>
</g>
<!-- :core:preferences&#45;&gt;:shared:domain -->
<g id="edge28" class="edge">
<title>:core:preferences&#45;&gt;:shared:domain</title>
<path fill="none" stroke="black" stroke-dasharray="1,5" d="M1024.43,-283C941.66,-283 823.96,-283 823.96,-283 823.96,-283 823.96,-177.27 823.96,-177.27"/>
<polygon fill="black" stroke="black" points="827.46,-177.27 823.96,-167.27 820.46,-177.27 827.46,-177.27"/>
</g>
<!-- :core:coroutines -->
<g id="node16" class="node">
<title>:core:coroutines</title>
<ellipse fill="#b59aff" stroke="black" cx="999.89" cy="-155" rx="85.29" ry="18"/>
<text text-anchor="middle" x="999.89" y="-151.3" font-family="Times,serif" font-size="14.00">:core:coroutines</text>
</g>
<!-- :core:preferences&#45;&gt;:core:coroutines -->
<g id="edge29" class="edge">
<title>:core:preferences&#45;&gt;:core:coroutines</title>
<path fill="none" stroke="black" stroke-dasharray="1,5" d="M1048.64,-277.6C1048.64,-277.6 1048.64,-180.04 1048.64,-180.04"/>
<polygon fill="black" stroke="black" points="1052.14,-180.04 1048.64,-170.04 1045.14,-180.04 1052.14,-180.04"/>
</g>
<!-- :data:common:network&#45;&gt;:shared:domain -->
<g id="edge31" class="edge">
<title>:data:common:network&#45;&gt;:shared:domain</title>
<path fill="none" stroke="black" stroke-dasharray="1,5" d="M380.09,-284.71C380.09,-265.15 380.09,-213 380.09,-213 380.09,-213 741.42,-213 741.42,-213 741.42,-213 741.42,-182.72 741.42,-182.72"/>
<polygon fill="black" stroke="black" points="744.92,-182.72 741.42,-172.72 737.92,-182.72 744.92,-182.72"/>
</g>
<!-- :data:common:network&#45;&gt;:core:logging:api -->
<g id="edge30" class="edge">
<title>:data:common:network&#45;&gt;:core:logging:api</title>
<path fill="none" stroke="black" stroke-dasharray="1,5" d="M370.3,-281.7C370.3,-281.7 370.3,-173.27 370.3,-173.27"/>
<polygon fill="black" stroke="black" points="373.8,-173.27 370.3,-163.27 366.8,-173.27 373.8,-173.27"/>
</g>
<!-- :data:spotify&#45;&gt;:shared:domain -->
<g id="edge32" class="edge">
<title>:data:spotify&#45;&gt;:shared:domain</title>
<path fill="none" stroke="black" stroke-dasharray="1,5" d="M45.93,-274.76C45.93,-246.39 45.93,-193 45.93,-193 45.93,-193 710.38,-193 710.38,-193 710.38,-193 710.38,-179.15 710.38,-179.15"/>
<polygon fill="black" stroke="black" points="713.88,-179.15 710.38,-169.15 706.88,-179.15 713.88,-179.15"/>
</g>
<!-- :data:spotify&#45;&gt;:core:logging:api -->
<g id="edge33" class="edge">
<title>:data:spotify&#45;&gt;:core:logging:api</title>
<path fill="none" stroke="black" stroke-dasharray="1,5" d="M91.86,-274.93C91.86,-238.2 91.86,-155 91.86,-155 91.86,-155 350.18,-155 350.18,-155"/>
<polygon fill="black" stroke="black" points="350.18,-158.5 360.18,-155 350.18,-151.5 350.18,-158.5"/>
</g>
<!-- :data:musicbrainz&#45;&gt;:shared:domain -->
<g id="edge34" class="edge">
<title>:data:musicbrainz&#45;&gt;:shared:domain</title>
<path fill="none" stroke="black" stroke-dasharray="1,5" d="M772.45,-278.36C772.45,-278.36 772.45,-182.88 772.45,-182.88"/>
<polygon fill="black" stroke="black" points="775.95,-182.88 772.45,-172.88 768.95,-182.88 775.95,-182.88"/>
</g>
<!-- :data:musicbrainz&#45;&gt;:core:logging:api -->
<g id="edge35" class="edge">
<title>:data:musicbrainz&#45;&gt;:core:logging:api</title>
<path fill="none" stroke="black" stroke-dasharray="1,5" d="M647.83,-278.36C647.83,-243.71 647.83,-155 647.83,-155 647.83,-155 547.31,-155 547.31,-155"/>
<polygon fill="black" stroke="black" points="547.31,-151.5 537.31,-155 547.31,-158.5 547.31,-151.5"/>
</g>
<!-- :data:database&#45;&gt;:shared:domain -->
<g id="edge36" class="edge">
<title>:data:database&#45;&gt;:shared:domain</title>
<path fill="none" stroke="black" stroke-dasharray="1,5" d="M813.72,-411.02C813.72,-411.02 813.72,-179.3 813.72,-179.3"/>
<polygon fill="black" stroke="black" points="817.22,-179.3 813.72,-169.3 810.22,-179.3 817.22,-179.3"/>
</g>
<!-- :data:database&#45;&gt;:data:musicbrainz -->
<g id="edge38" class="edge">
<title>:data:database&#45;&gt;:data:musicbrainz</title>
<path fill="none" stroke="black" stroke-dasharray="1,5" d="M762.54,-413.02C762.54,-413.02 762.54,-317.05 762.54,-317.05"/>
<polygon fill="black" stroke="black" points="766.04,-317.05 762.54,-307.05 759.04,-317.05 766.04,-317.05"/>
</g>
<!-- :data:database&#45;&gt;:core:coroutines -->
<g id="edge37" class="edge">
<title>:data:database&#45;&gt;:core:coroutines</title>
<path fill="none" stroke="black" stroke-dasharray="1,5" d="M869.56,-420C898.3,-420 925.15,-420 925.15,-420 925.15,-420 925.15,-173.82 925.15,-173.82"/>
<polygon fill="black" stroke="black" points="928.65,-173.82 925.15,-163.82 921.65,-173.82 928.65,-173.82"/>
</g>
<!-- :ui:image&#45;&gt;:shared:domain -->
<g id="edge39" class="edge">
<title>:ui:image&#45;&gt;:shared:domain</title>
<path fill="none" stroke="black" stroke-dasharray="1,5" d="M1256.17,-284.77C1256.17,-269.01 1256.17,-233 1256.17,-233 1256.17,-233 834.2,-233 834.2,-233 834.2,-233 834.2,-173.95 834.2,-173.95"/>
<polygon fill="black" stroke="black" points="837.7,-173.95 834.2,-163.95 830.7,-173.95 837.7,-173.95"/>
</g>
<!-- :ui:image&#45;&gt;:ui:core -->
<g id="edge40" class="edge">
<title>:ui:image&#45;&gt;:ui:core</title>
<path fill="none" stroke="black" stroke-dasharray="1,5" d="M1305.89,-273.81C1305.89,-273.81 1305.89,-183.27 1305.89,-183.27"/>
<polygon fill="black" stroke="black" points="1309.39,-183.27 1305.89,-173.27 1302.39,-183.27 1309.39,-183.27"/>
</g>
<!-- :data:coverart&#45;&gt;:shared:domain -->
<g id="edge41" class="edge">
<title>:data:coverart&#45;&gt;:shared:domain</title>
<path fill="none" stroke="black" stroke-dasharray="1,5" d="M567.61,-277.47C567.61,-240.54 567.61,-146 567.61,-146 567.61,-146 680.38,-146 680.38,-146"/>
<polygon fill="black" stroke="black" points="680.38,-149.5 690.38,-146 680.38,-142.5 680.38,-149.5"/>
</g>
<!-- :data:coverart&#45;&gt;:core:logging:api -->
<g id="edge42" class="edge">
<title>:data:coverart&#45;&gt;:core:logging:api</title>
<path fill="none" stroke="black" stroke-dasharray="1,5" d="M476.33,-277.34C476.33,-277.34 476.33,-182.12 476.33,-182.12"/>
<polygon fill="black" stroke="black" points="479.83,-182.12 476.33,-172.12 472.83,-182.12 479.83,-182.12"/>
</g>
<!-- :shared:strings -->
<g id="node17" class="node">
<title>:shared:strings</title>
<ellipse fill="#b59aff" stroke="black" cx="1305.89" cy="-18" rx="81.49" ry="18"/>
<text text-anchor="middle" x="1305.89" y="-14.3" font-family="Times,serif" font-size="14.00">:shared:strings</text>
</g>
<!-- :ui:core&#45;&gt;:shared:strings -->
<g id="edge43" class="edge">
<title>:ui:core&#45;&gt;:shared:strings</title>
<path fill="none" stroke="black" d="M1305.89,-136.81C1305.89,-136.81 1305.89,-46.27 1305.89,-46.27"/>
<polygon fill="black" stroke="black" points="1309.39,-46.27 1305.89,-36.27 1302.39,-46.27 1309.39,-46.27"/>
</g>
</g>
</svg>
