<?xml version="1.0" encoding="UTF-8" standalone="no"?>
<!DOCTYPE svg PUBLIC "-//W3C//DTD SVG 1.1//EN"
 "http://www.w3.org/Graphics/SVG/1.1/DTD/svg11.dtd">
<!-- Generated by graphviz version 2.43.0 (0)
 -->
<!-- Title: %3 Pages: 1 -->
<svg width="872pt" height="803pt"
 viewBox="0.00 0.00 872.38 803.00" xmlns="http://www.w3.org/2000/svg" xmlns:xlink="http://www.w3.org/1999/xlink">
<g id="graph0" class="graph" transform="scale(1 1) rotate(0) translate(4 799)">
<title>%3</title>
<polygon fill="white" stroke="transparent" points="-4,4 -4,-799 868.38,-799 868.38,4 -4,4"/>
<text text-anchor="middle" x="432.19" y="-767" font-family="Times,serif" font-size="30.00">Dependencies</text>
<text text-anchor="middle" x="432.19" y="-734" font-family="Times,serif" font-size="30.00"> </text>
<!-- :shared:feature:details -->
<g id="node1" class="node">
<title>:shared:feature:details</title>
<polygon fill="#b59aff" stroke="black" points="630.04,-721 451.04,-721 451.04,-685 630.04,-685 630.04,-721"/>
<text text-anchor="middle" x="540.54" y="-699.3" font-family="Times,serif" font-size="14.00">:shared:feature:details</text>
</g>
<!-- :test&#45;data -->
<g id="node2" class="node">
<title>:test&#45;data</title>
<ellipse fill="#b59aff" stroke="black" cx="341.54" cy="-429" rx="55.49" ry="18"/>
<text text-anchor="middle" x="341.54" y="-425.3" font-family="Times,serif" font-size="14.00">:test&#45;data</text>
</g>
<!-- :shared:feature:details&#45;&gt;:test&#45;data -->
<g id="edge1" class="edge">
<title>:shared:feature:details&#45;&gt;:test&#45;data</title>
<path fill="none" stroke="#ff9ab1" stroke-dasharray="1,5" d="M450.86,-697C390.97,-697 323.13,-697 323.13,-697 323.13,-697 323.13,-456.17 323.13,-456.17"/>
<polygon fill="#ff9ab1" stroke="#ff9ab1" points="326.63,-456.17 323.13,-446.17 319.63,-456.17 326.63,-456.17"/>
</g>
<!-- :ui:test:screenshot -->
<g id="node3" class="node">
<title>:ui:test:screenshot</title>
<ellipse fill="#9affb5" stroke="black" cx="767.54" cy="-429" rx="96.68" ry="18"/>
<text text-anchor="middle" x="767.54" y="-425.3" font-family="Times,serif" font-size="14.00">:ui:test:screenshot</text>
</g>
<!-- :shared:feature:details&#45;&gt;:ui:test:screenshot -->
<g id="edge2" class="edge">
<title>:shared:feature:details&#45;&gt;:ui:test:screenshot</title>
<path fill="none" stroke="#ff9ab1" stroke-dasharray="1,5" d="M614.24,-685C614.24,-624.91 614.24,-435 614.24,-435 614.24,-435 666.15,-435 666.15,-435"/>
<polygon fill="#ff9ab1" stroke="#ff9ab1" points="666.15,-438.5 676.15,-435 666.15,-431.5 666.15,-438.5"/>
</g>
<!-- :ui:common -->
<g id="node4" class="node">
<title>:ui:common</title>
<ellipse fill="#b59aff" stroke="black" cx="540.54" cy="-566" rx="64.19" ry="18"/>
<text text-anchor="middle" x="540.54" y="-562.3" font-family="Times,serif" font-size="14.00">:ui:common</text>
</g>
<!-- :shared:feature:details&#45;&gt;:ui:common -->
<g id="edge3" class="edge">
<title>:shared:feature:details&#45;&gt;:ui:common</title>
<path fill="none" stroke="black" stroke-dasharray="1,5" d="M540.54,-684.81C540.54,-684.81 540.54,-594.27 540.54,-594.27"/>
<polygon fill="black" stroke="black" points="544.04,-594.27 540.54,-584.27 537.04,-594.27 544.04,-594.27"/>
</g>
<!-- :shared:domain -->
<g id="node5" class="node">
<title>:shared:domain</title>
<ellipse fill="#b59aff" stroke="black" cx="82.54" cy="-18" rx="82.59" ry="18"/>
<text text-anchor="middle" x="82.54" y="-14.3" font-family="Times,serif" font-size="14.00">:shared:domain</text>
</g>
<!-- :shared:feature:details&#45;&gt;:shared:domain -->
<g id="edge4" class="edge">
<title>:shared:feature:details&#45;&gt;:shared:domain</title>
<path fill="none" stroke="black" stroke-dasharray="1,5" d="M450.93,-709C303.93,-709 27.74,-709 27.74,-709 27.74,-709 27.74,-41.49 27.74,-41.49"/>
<polygon fill="black" stroke="black" points="31.24,-41.49 27.74,-31.49 24.24,-41.49 31.24,-41.49"/>
</g>
<!-- :core:logging:api -->
<g id="node6" class="node">
<title>:core:logging:api</title>
<ellipse fill="#b59aff" stroke="black" cx="547.54" cy="-18" rx="88.28" ry="18"/>
<text text-anchor="middle" x="547.54" y="-14.3" font-family="Times,serif" font-size="14.00">:core:logging:api</text>
</g>
<!-- :shared:feature:details&#45;&gt;:core:logging:api -->
<g id="edge5" class="edge">
<title>:shared:feature:details&#45;&gt;:core:logging:api</title>
<path fill="none" stroke="black" stroke-dasharray="1,5" d="M630.11,-703C646.8,-703 659.11,-703 659.11,-703 659.11,-703 659.11,-12 659.11,-12 659.11,-12 640.96,-12 640.96,-12"/>
<polygon fill="black" stroke="black" points="640.96,-8.5 630.96,-12 640.96,-15.5 640.96,-8.5"/>
</g>
<!-- :test&#45;data&#45;&gt;:shared:domain -->
<g id="edge6" class="edge">
<title>:test&#45;data&#45;&gt;:shared:domain</title>
<path fill="none" stroke="black" stroke-dasharray="1,5" d="M306.89,-414.69C306.89,-343.08 306.89,-27 306.89,-27 306.89,-27 164.14,-27 164.14,-27"/>
<polygon fill="black" stroke="black" points="164.14,-23.5 154.14,-27 164.14,-30.5 164.14,-23.5"/>
</g>
<!-- :data:database -->
<g id="node7" class="node">
<title>:data:database</title>
<ellipse fill="#b59aff" stroke="black" cx="204.54" cy="-292" rx="79.09" ry="18"/>
<text text-anchor="middle" x="204.54" y="-288.3" font-family="Times,serif" font-size="14.00">:data:database</text>
</g>
<!-- :test&#45;data&#45;&gt;:data:database -->
<g id="edge7" class="edge">
<title>:test&#45;data&#45;&gt;:data:database</title>
<path fill="none" stroke="black" stroke-dasharray="1,5" d="M290.24,-421.96C290.24,-392.79 290.24,-283 290.24,-283 290.24,-283 283.31,-283 283.31,-283"/>
<polygon fill="black" stroke="black" points="283.31,-279.5 273.31,-283 283.31,-286.5 283.31,-279.5"/>
</g>
<!-- :data:musicbrainz -->
<g id="node8" class="node">
<title>:data:musicbrainz</title>
<ellipse fill="#b59aff" stroke="black" cx="204.54" cy="-155" rx="93.68" ry="18"/>
<text text-anchor="middle" x="204.54" y="-151.3" font-family="Times,serif" font-size="14.00">:data:musicbrainz</text>
</g>
<!-- :test&#45;data&#45;&gt;:data:musicbrainz -->
<g id="edge8" class="edge">
<title>:test&#45;data&#45;&gt;:data:musicbrainz</title>
<path fill="none" stroke="black" stroke-dasharray="1,5" d="M294.19,-419.57C294.19,-419.57 294.19,-170.39 294.19,-170.39"/>
<polygon fill="black" stroke="black" points="297.69,-170.39 294.19,-160.39 290.69,-170.39 297.69,-170.39"/>
</g>
<!-- :data:coverart -->
<g id="node9" class="node">
<title>:data:coverart</title>
<ellipse fill="#b59aff" stroke="black" cx="547.54" cy="-155" rx="76.09" ry="18"/>
<text text-anchor="middle" x="547.54" y="-151.3" font-family="Times,serif" font-size="14.00">:data:coverart</text>
</g>
<!-- :test&#45;data&#45;&gt;:data:coverart -->
<g id="edge9" class="edge">
<title>:test&#45;data&#45;&gt;:data:coverart</title>
<path fill="none" stroke="black" stroke-dasharray="1,5" d="M369.74,-413.28C369.74,-377.3 369.74,-292 369.74,-292 369.74,-292 524.14,-292 524.14,-292 524.14,-292 524.14,-182.35 524.14,-182.35"/>
<polygon fill="black" stroke="black" points="527.64,-182.35 524.14,-172.35 520.64,-182.35 527.64,-182.35"/>
</g>
<!-- :data:spotify -->
<g id="node10" class="node">
<title>:data:spotify</title>
<ellipse fill="#b59aff" stroke="black" cx="384.54" cy="-155" rx="68.79" ry="18"/>
<text text-anchor="middle" x="384.54" y="-151.3" font-family="Times,serif" font-size="14.00">:data:spotify</text>
</g>
<!-- :test&#45;data&#45;&gt;:data:spotify -->
<g id="edge10" class="edge">
<title>:test&#45;data&#45;&gt;:data:spotify</title>
<path fill="none" stroke="black" stroke-dasharray="1,5" d="M342.7,-410.6C342.7,-410.6 342.7,-179.56 342.7,-179.56"/>
<polygon fill="black" stroke="black" points="346.2,-179.56 342.7,-169.56 339.2,-179.56 346.2,-179.56"/>
</g>
<!-- :test:image -->
<g id="node11" class="node">
<title>:test:image</title>
<ellipse fill="#9affb5" stroke="black" cx="749.54" cy="-292" rx="63.09" ry="18"/>
<text text-anchor="middle" x="749.54" y="-288.3" font-family="Times,serif" font-size="14.00">:test:image</text>
</g>
<!-- :ui:test:screenshot&#45;&gt;:test:image -->
<g id="edge11" class="edge">
<title>:ui:test:screenshot&#45;&gt;:test:image</title>
<path fill="none" stroke="black" stroke-dasharray="1,5" d="M749.54,-411.09C749.54,-411.09 749.54,-320.35 749.54,-320.35"/>
<polygon fill="black" stroke="black" points="753.04,-320.35 749.54,-310.35 746.04,-320.35 753.04,-320.35"/>
</g>
<!-- :ui:common&#45;&gt;:test&#45;data -->
<g id="edge13" class="edge">
<title>:ui:common&#45;&gt;:test&#45;data</title>
<path fill="none" stroke="#ff9ab1" stroke-dasharray="1,5" d="M479.66,-560C427.23,-560 359.96,-560 359.96,-560 359.96,-560 359.96,-456.13 359.96,-456.13"/>
<polygon fill="#ff9ab1" stroke="#ff9ab1" points="363.46,-456.13 359.96,-446.13 356.46,-456.13 363.46,-456.13"/>
</g>
<!-- :ui:common&#45;&gt;:ui:test:screenshot -->
<g id="edge14" class="edge">
<title>:ui:common&#45;&gt;:ui:test:screenshot</title>
<path fill="none" stroke="#ff9ab1" stroke-dasharray="1,5" d="M595.52,-556.62C595.52,-524.8 595.52,-423 595.52,-423 595.52,-423 665.99,-423 665.99,-423"/>
<polygon fill="#ff9ab1" stroke="#ff9ab1" points="665.99,-426.5 675.99,-423 665.99,-419.5 665.99,-426.5"/>
</g>
<!-- :ui:common&#45;&gt;:shared:domain -->
<g id="edge15" class="edge">
<title>:ui:common&#45;&gt;:shared:domain</title>
<path fill="none" stroke="black" d="M479.6,-572C349.32,-572 55.48,-572 55.48,-572 55.48,-572 55.48,-45.19 55.48,-45.19"/>
<polygon fill="black" stroke="black" points="58.98,-45.19 55.48,-35.19 51.98,-45.19 58.98,-45.19"/>
</g>
<!-- :ui:common&#45;&gt;:core:logging:api -->
<g id="edge17" class="edge">
<title>:ui:common&#45;&gt;:core:logging:api</title>
<path fill="none" stroke="black" stroke-dasharray="1,5" d="M604.93,-566C627.59,-566 647.52,-566 647.52,-566 647.52,-566 647.52,-24 647.52,-24 647.52,-24 641.01,-24 641.01,-24"/>
<polygon fill="black" stroke="black" points="641.01,-20.5 631.01,-24 641.01,-27.5 641.01,-20.5"/>
</g>
<!-- :ui:common&#45;&gt;:test:image -->
<g id="edge12" class="edge">
<title>:ui:common&#45;&gt;:test:image</title>
<path fill="none" stroke="black" stroke-dasharray="1,5" d="M586.15,-553.22C586.15,-500.28 586.15,-301 586.15,-301 586.15,-301 684.68,-301 684.68,-301"/>
<polygon fill="black" stroke="black" points="684.68,-304.5 694.68,-301 684.68,-297.5 684.68,-304.5"/>
</g>
<!-- :shared:strings -->
<g id="node12" class="node">
<title>:shared:strings</title>
<ellipse fill="#b59aff" stroke="black" cx="495.54" cy="-429" rx="81.49" ry="18"/>
<text text-anchor="middle" x="495.54" y="-425.3" font-family="Times,serif" font-size="14.00">:shared:strings</text>
</g>
<!-- :ui:common&#45;&gt;:shared:strings -->
<g id="edge16" class="edge">
<title>:ui:common&#45;&gt;:shared:strings</title>
<path fill="none" stroke="black" d="M526.49,-548.37C526.49,-548.37 526.49,-455.7 526.49,-455.7"/>
<polygon fill="black" stroke="black" points="529.99,-455.7 526.49,-445.7 522.99,-455.7 529.99,-455.7"/>
</g>
<!-- :data:database&#45;&gt;:shared:domain -->
<g id="edge18" class="edge">
<title>:data:database&#45;&gt;:shared:domain</title>
<path fill="none" stroke="black" stroke-dasharray="1,5" d="M124.97,-292C102.1,-292 83.21,-292 83.21,-292 83.21,-292 83.21,-46.4 83.21,-46.4"/>
<polygon fill="black" stroke="black" points="86.71,-46.4 83.21,-36.4 79.71,-46.4 86.71,-46.4"/>
</g>
<!-- :data:database&#45;&gt;:data:musicbrainz -->
<g id="edge19" class="edge">
<title>:data:database&#45;&gt;:data:musicbrainz</title>
<path fill="none" stroke="black" stroke-dasharray="1,5" d="M204.54,-273.81C204.54,-273.81 204.54,-183.27 204.54,-183.27"/>
<polygon fill="black" stroke="black" points="208.04,-183.27 204.54,-173.27 201.04,-183.27 208.04,-183.27"/>
</g>
<!-- :data:musicbrainz&#45;&gt;:shared:domain -->
<g id="edge20" class="edge">
<title>:data:musicbrainz&#45;&gt;:shared:domain</title>
<path fill="none" stroke="black" stroke-dasharray="1,5" d="M129,-144.25C129,-144.25 129,-43.18 129,-43.18"/>
<polygon fill="black" stroke="black" points="132.5,-43.18 129,-33.18 125.5,-43.18 132.5,-43.18"/>
</g>
<!-- :data:musicbrainz&#45;&gt;:core:logging:api -->
<g id="edge21" class="edge">
<title>:data:musicbrainz&#45;&gt;:core:logging:api</title>
<path fill="none" stroke="black" stroke-dasharray="1,5" d="M231.61,-137.68C231.61,-99 231.61,-9 231.61,-9 231.61,-9 460.66,-9 460.66,-9"/>
<polygon fill="black" stroke="black" points="460.66,-12.5 470.66,-9 460.66,-5.5 460.66,-12.5"/>
</g>
<!-- :data:coverart&#45;&gt;:shared:domain -->
<g id="edge22" class="edge">
<title>:data:coverart&#45;&gt;:shared:domain</title>
<path fill="none" stroke="black" stroke-dasharray="1,5" d="M522.19,-137.94C522.19,-117.51 522.19,-86 522.19,-86 522.19,-86 147.04,-86 147.04,-86 147.04,-86 147.04,-39.54 147.04,-39.54"/>
<polygon fill="black" stroke="black" points="150.54,-39.54 147.04,-29.54 143.54,-39.54 150.54,-39.54"/>
</g>
<!-- :data:coverart&#45;&gt;:core:logging:api -->
<g id="edge23" class="edge">
<title>:data:coverart&#45;&gt;:core:logging:api</title>
<path fill="none" stroke="black" stroke-dasharray="1,5" d="M572.89,-137.93C572.89,-137.93 572.89,-45.29 572.89,-45.29"/>
<polygon fill="black" stroke="black" points="576.39,-45.29 572.89,-35.29 569.39,-45.29 576.39,-45.29"/>
</g>
<!-- :data:spotify&#45;&gt;:shared:domain -->
<g id="edge24" class="edge">
<title>:data:spotify&#45;&gt;:shared:domain</title>
<path fill="none" stroke="black" stroke-dasharray="1,5" d="M384.54,-136.81C384.54,-99.54 384.54,-18 384.54,-18 384.54,-18 175.46,-18 175.46,-18"/>
<polygon fill="black" stroke="black" points="175.46,-14.5 165.46,-18 175.46,-21.5 175.46,-14.5"/>
</g>
<!-- :data:spotify&#45;&gt;:core:logging:api -->
<g id="edge25" class="edge">
<title>:data:spotify&#45;&gt;:core:logging:api</title>
<path fill="none" stroke="black" stroke-dasharray="1,5" d="M453.75,-155C460.74,-155 465.32,-155 465.32,-155 465.32,-155 465.32,-34.98 465.32,-34.98"/>
<polygon fill="black" stroke="black" points="468.83,-34.98 465.32,-24.98 461.83,-34.98 468.83,-34.98"/>
</g>
</g>
</svg>
