<?xml version="1.0" encoding="UTF-8" standalone="no"?>
<!DOCTYPE svg PUBLIC "-//W3C//DTD SVG 1.1//EN"
 "http://www.w3.org/Graphics/SVG/1.1/DTD/svg11.dtd">
<!-- Generated by graphviz version 2.43.0 (0)
 -->
<!-- Title: %3 Pages: 1 -->
<svg width="1694pt" height="666pt"
 viewBox="0.00 0.00 1693.74 666.00" xmlns="http://www.w3.org/2000/svg" xmlns:xlink="http://www.w3.org/1999/xlink">
<g id="graph0" class="graph" transform="scale(1 1) rotate(0) translate(4 662)">
<title>%3</title>
<polygon fill="white" stroke="transparent" points="-4,4 -4,-662 1689.74,-662 1689.74,4 -4,4"/>
<text text-anchor="middle" x="842.87" y="-630" font-family="Times,serif" font-size="30.00">Dependencies</text>
<text text-anchor="middle" x="842.87" y="-597" font-family="Times,serif" font-size="30.00"> </text>
<!-- :shared:feature:details -->
<g id="node1" class="node">
<title>:shared:feature:details</title>
<polygon fill="#b59aff" stroke="black" points="1128.34,-584 949.34,-584 949.34,-548 1128.34,-548 1128.34,-584"/>
<text text-anchor="middle" x="1038.84" y="-562.3" font-family="Times,serif" font-size="14.00">:shared:feature:details</text>
</g>
<!-- :test&#45;data -->
<g id="node2" class="node">
<title>:test&#45;data</title>
<ellipse fill="#b59aff" stroke="black" cx="1175.84" cy="-429" rx="55.49" ry="18"/>
<text text-anchor="middle" x="1175.84" y="-425.3" font-family="Times,serif" font-size="14.00">:test&#45;data</text>
</g>
<!-- :shared:feature:details&#45;&gt;:test&#45;data -->
<g id="edge1" class="edge">
<title>:shared:feature:details&#45;&gt;:test&#45;data</title>
<path fill="none" stroke="#ff9ab1" stroke-dasharray="1,5" d="M1124.47,-547.81C1124.47,-547.81 1124.47,-445.88 1124.47,-445.88"/>
<polygon fill="#ff9ab1" stroke="#ff9ab1" points="1127.97,-445.88 1124.47,-435.88 1120.97,-445.88 1127.97,-445.88"/>
</g>
<!-- :ui:test:screenshot -->
<g id="node3" class="node">
<title>:ui:test:screenshot</title>
<ellipse fill="#9affb5" stroke="black" cx="96.84" cy="-292" rx="96.68" ry="18"/>
<text text-anchor="middle" x="96.84" y="-288.3" font-family="Times,serif" font-size="14.00">:ui:test:screenshot</text>
</g>
<!-- :shared:feature:details&#45;&gt;:ui:test:screenshot -->
<g id="edge2" class="edge">
<title>:shared:feature:details&#45;&gt;:ui:test:screenshot</title>
<path fill="none" stroke="#ff9ab1" stroke-dasharray="1,5" d="M948.93,-578C707.74,-578 64.56,-578 64.56,-578 64.56,-578 64.56,-319.03 64.56,-319.03"/>
<polygon fill="#ff9ab1" stroke="#ff9ab1" points="68.06,-319.03 64.56,-309.03 61.06,-319.03 68.06,-319.03"/>
</g>
<!-- :core:models -->
<g id="node4" class="node">
<title>:core:models</title>
<ellipse fill="#b59aff" stroke="black" cx="958.84" cy="-18" rx="69.59" ry="18"/>
<text text-anchor="middle" x="958.84" y="-14.3" font-family="Times,serif" font-size="14.00">:core:models</text>
</g>
<!-- :shared:feature:details&#45;&gt;:core:models -->
<g id="edge3" class="edge">
<title>:shared:feature:details&#45;&gt;:core:models</title>
<path fill="none" stroke="black" stroke-dasharray="1,5" d="M1083.62,-547.98C1083.62,-502.2 1083.62,-385 1083.62,-385 1083.62,-385 982.79,-385 982.79,-385 982.79,-385 982.79,-45.21 982.79,-45.21"/>
<polygon fill="black" stroke="black" points="986.29,-45.21 982.79,-35.21 979.29,-45.21 986.29,-45.21"/>
</g>
<!-- :core:preferences -->
<g id="node5" class="node">
<title>:core:preferences</title>
<ellipse fill="#b59aff" stroke="black" cx="505.84" cy="-292" rx="91.78" ry="18"/>
<text text-anchor="middle" x="505.84" y="-288.3" font-family="Times,serif" font-size="14.00">:core:preferences</text>
</g>
<!-- :shared:feature:details&#45;&gt;:core:preferences -->
<g id="edge4" class="edge">
<title>:shared:feature:details&#45;&gt;:core:preferences</title>
<path fill="none" stroke="black" stroke-dasharray="1,5" d="M949.1,-566C790.76,-566 478.35,-566 478.35,-566 478.35,-566 478.35,-319.56 478.35,-319.56"/>
<polygon fill="black" stroke="black" points="481.85,-319.56 478.35,-309.56 474.85,-319.56 481.85,-319.56"/>
</g>
<!-- :core:logging:api -->
<g id="node6" class="node">
<title>:core:logging:api</title>
<ellipse fill="#b59aff" stroke="black" cx="1360.84" cy="-155" rx="88.28" ry="18"/>
<text text-anchor="middle" x="1360.84" y="-151.3" font-family="Times,serif" font-size="14.00">:core:logging:api</text>
</g>
<!-- :shared:feature:details&#45;&gt;:core:logging:api -->
<g id="edge5" class="edge">
<title>:shared:feature:details&#45;&gt;:core:logging:api</title>
<path fill="none" stroke="black" stroke-dasharray="1,5" d="M1128.43,-557C1183.85,-557 1244.47,-557 1244.47,-557 1244.47,-557 1244.47,-167 1244.47,-167 1244.47,-167 1284.83,-167 1284.83,-167"/>
<polygon fill="black" stroke="black" points="1284.83,-170.5 1294.83,-167 1284.83,-163.5 1284.83,-170.5"/>
</g>
<!-- :data:common:network -->
<g id="node7" class="node">
<title>:data:common:network</title>
<ellipse fill="#b59aff" stroke="black" cx="1374.84" cy="-292" rx="116.98" ry="18"/>
<text text-anchor="middle" x="1374.84" y="-288.3" font-family="Times,serif" font-size="14.00">:data:common:network</text>
</g>
<!-- :shared:feature:details&#45;&gt;:data:common:network -->
<g id="edge6" class="edge">
<title>:shared:feature:details&#45;&gt;:data:common:network</title>
<path fill="none" stroke="black" stroke-dasharray="1,5" d="M1128.44,-566C1227.98,-566 1374.84,-566 1374.84,-566 1374.84,-566 1374.84,-320.4 1374.84,-320.4"/>
<polygon fill="black" stroke="black" points="1378.34,-320.4 1374.84,-310.4 1371.34,-320.4 1378.34,-320.4"/>
</g>
<!-- :data:spotify -->
<g id="node8" class="node">
<title>:data:spotify</title>
<ellipse fill="#b59aff" stroke="black" cx="1616.84" cy="-292" rx="68.79" ry="18"/>
<text text-anchor="middle" x="1616.84" y="-288.3" font-family="Times,serif" font-size="14.00">:data:spotify</text>
</g>
<!-- :shared:feature:details&#45;&gt;:data:spotify -->
<g id="edge7" class="edge">
<title>:shared:feature:details&#45;&gt;:data:spotify</title>
<path fill="none" stroke="black" stroke-dasharray="1,5" d="M1128.49,-575C1296.02,-575 1639.81,-575 1639.81,-575 1639.81,-575 1639.81,-319.28 1639.81,-319.28"/>
<polygon fill="black" stroke="black" points="1643.31,-319.28 1639.81,-309.28 1636.31,-319.28 1643.31,-319.28"/>
</g>
<!-- :data:musicbrainz -->
<g id="node9" class="node">
<title>:data:musicbrainz</title>
<ellipse fill="#b59aff" stroke="black" cx="1107.84" cy="-292" rx="93.68" ry="18"/>
<text text-anchor="middle" x="1107.84" y="-288.3" font-family="Times,serif" font-size="14.00">:data:musicbrainz</text>
</g>
<!-- :shared:feature:details&#45;&gt;:data:musicbrainz -->
<g id="edge8" class="edge">
<title>:shared:feature:details&#45;&gt;:data:musicbrainz</title>
<path fill="none" stroke="black" stroke-dasharray="1,5" d="M1102.11,-547.6C1102.11,-547.6 1102.11,-320.32 1102.11,-320.32"/>
<polygon fill="black" stroke="black" points="1105.61,-320.32 1102.11,-310.32 1098.61,-320.32 1105.61,-320.32"/>
</g>
<!-- :data:database -->
<g id="node10" class="node">
<title>:data:database</title>
<ellipse fill="#b59aff" stroke="black" cx="985.84" cy="-429" rx="79.09" ry="18"/>
<text text-anchor="middle" x="985.84" y="-425.3" font-family="Times,serif" font-size="14.00">:data:database</text>
</g>
<!-- :shared:feature:details&#45;&gt;:data:database -->
<g id="edge9" class="edge">
<title>:shared:feature:details&#45;&gt;:data:database</title>
<path fill="none" stroke="black" stroke-dasharray="1,5" d="M1007.24,-547.81C1007.24,-547.81 1007.24,-456.4 1007.24,-456.4"/>
<polygon fill="black" stroke="black" points="1010.74,-456.4 1007.24,-446.4 1003.74,-456.4 1010.74,-456.4"/>
</g>
<!-- :ui:image -->
<g id="node11" class="node">
<title>:ui:image</title>
<ellipse fill="#b59aff" stroke="black" cx="303.84" cy="-292" rx="53.89" ry="18"/>
<text text-anchor="middle" x="303.84" y="-288.3" font-family="Times,serif" font-size="14.00">:ui:image</text>
</g>
<!-- :shared:feature:details&#45;&gt;:ui:image -->
<g id="edge10" class="edge">
<title>:shared:feature:details&#45;&gt;:ui:image</title>
<path fill="none" stroke="black" stroke-dasharray="1,5" d="M949.14,-572C749.47,-572 285.86,-572 285.86,-572 285.86,-572 285.86,-319.09 285.86,-319.09"/>
<polygon fill="black" stroke="black" points="289.36,-319.09 285.86,-309.09 282.36,-319.09 289.36,-319.09"/>
</g>
<!-- :shared:domain -->
<g id="node12" class="node">
<title>:shared:domain</title>
<ellipse fill="#b59aff" stroke="black" cx="804.84" cy="-155" rx="82.59" ry="18"/>
<text text-anchor="middle" x="804.84" y="-151.3" font-family="Times,serif" font-size="14.00">:shared:domain</text>
</g>
<!-- :shared:feature:details&#45;&gt;:shared:domain -->
<g id="edge11" class="edge">
<title>:shared:feature:details&#45;&gt;:shared:domain</title>
<path fill="none" stroke="black" stroke-dasharray="1,5" d="M949.07,-554C865.13,-554 752.63,-554 752.63,-554 752.63,-554 752.63,-179.2 752.63,-179.2"/>
<polygon fill="black" stroke="black" points="756.13,-179.2 752.63,-169.2 749.13,-179.2 756.13,-179.2"/>
</g>
<!-- :ui:common -->
<g id="node13" class="node">
<title>:ui:common</title>
<ellipse fill="#b59aff" stroke="black" cx="606.84" cy="-429" rx="64.19" ry="18"/>
<text text-anchor="middle" x="606.84" y="-425.3" font-family="Times,serif" font-size="14.00">:ui:common</text>
</g>
<!-- :shared:feature:details&#45;&gt;:ui:common -->
<g id="edge12" class="edge">
<title>:shared:feature:details&#45;&gt;:ui:common</title>
<path fill="none" stroke="black" stroke-dasharray="1,5" d="M949.33,-560C822.8,-560 606.84,-560 606.84,-560 606.84,-560 606.84,-457.21 606.84,-457.21"/>
<polygon fill="black" stroke="black" points="610.34,-457.21 606.84,-447.21 603.34,-457.22 610.34,-457.21"/>
</g>
<!-- :test&#45;data&#45;&gt;:core:models -->
<g id="edge13" class="edge">
<title>:test&#45;data&#45;&gt;:core:models</title>
<path fill="none" stroke="black" stroke-dasharray="1,5" d="M1216.26,-416.44C1216.26,-348.08 1216.26,-24 1216.26,-24 1216.26,-24 1034.46,-24 1034.46,-24"/>
<polygon fill="black" stroke="black" points="1034.47,-20.5 1024.46,-24 1034.46,-27.5 1034.47,-20.5"/>
</g>
<!-- :test&#45;data&#45;&gt;:data:common:network -->
<g id="edge14" class="edge">
<title>:test&#45;data&#45;&gt;:data:common:network</title>
<path fill="none" stroke="black" stroke-dasharray="1,5" d="M1223.67,-419.58C1223.67,-388.63 1223.67,-292 1223.67,-292 1223.67,-292 1247.6,-292 1247.6,-292"/>
<polygon fill="black" stroke="black" points="1247.6,-295.5 1257.6,-292 1247.6,-288.5 1247.6,-295.5"/>
</g>
<!-- :test&#45;data&#45;&gt;:data:spotify -->
<g id="edge17" class="edge">
<title>:test&#45;data&#45;&gt;:data:spotify</title>
<path fill="none" stroke="black" stroke-dasharray="1,5" d="M1231.35,-429C1345.07,-429 1593.88,-429 1593.88,-429 1593.88,-429 1593.88,-319.07 1593.88,-319.07"/>
<polygon fill="black" stroke="black" points="1597.38,-319.07 1593.88,-309.07 1590.38,-319.07 1597.38,-319.07"/>
</g>
<!-- :test&#45;data&#45;&gt;:data:musicbrainz -->
<g id="edge15" class="edge">
<title>:test&#45;data&#45;&gt;:data:musicbrainz</title>
<path fill="none" stroke="black" stroke-dasharray="1,5" d="M1174.49,-410.81C1174.49,-410.81 1174.49,-314.94 1174.49,-314.94"/>
<polygon fill="black" stroke="black" points="1177.99,-314.94 1174.49,-304.94 1170.99,-314.94 1177.99,-314.94"/>
</g>
<!-- :test&#45;data&#45;&gt;:shared:domain -->
<g id="edge18" class="edge">
<title>:test&#45;data&#45;&gt;:shared:domain</title>
<path fill="none" stroke="black" stroke-dasharray="1,5" d="M1208.85,-414.21C1208.85,-358.03 1208.85,-161 1208.85,-161 1208.85,-161 892.74,-161 892.74,-161"/>
<polygon fill="black" stroke="black" points="892.74,-157.5 882.74,-161 892.74,-164.5 892.74,-157.5"/>
</g>
<!-- :data:coverart -->
<g id="node14" class="node">
<title>:data:coverart</title>
<ellipse fill="#b59aff" stroke="black" cx="843.84" cy="-292" rx="76.09" ry="18"/>
<text text-anchor="middle" x="843.84" y="-288.3" font-family="Times,serif" font-size="14.00">:data:coverart</text>
</g>
<!-- :test&#45;data&#45;&gt;:data:coverart -->
<g id="edge16" class="edge">
<title>:test&#45;data&#45;&gt;:data:coverart</title>
<path fill="none" stroke="black" stroke-dasharray="1,5" d="M1147.54,-413.48C1147.54,-386.78 1147.54,-335 1147.54,-335 1147.54,-335 913.22,-335 913.22,-335 913.22,-335 913.22,-309.49 913.22,-309.49"/>
<polygon fill="black" stroke="black" points="916.72,-309.49 913.22,-299.49 909.72,-309.49 916.72,-309.49"/>
</g>
<!-- :ui:core -->
<g id="node15" class="node">
<title>:ui:core</title>
<ellipse fill="#b59aff" stroke="black" cx="222.84" cy="-155" rx="45.49" ry="18"/>
<text text-anchor="middle" x="222.84" y="-151.3" font-family="Times,serif" font-size="14.00">:ui:core</text>
</g>
<!-- :ui:test:screenshot&#45;&gt;:ui:core -->
<g id="edge19" class="edge">
<title>:ui:test:screenshot&#45;&gt;:ui:core</title>
<path fill="none" stroke="black" stroke-dasharray="1,5" d="M185.51,-284.63C185.51,-284.63 185.51,-175.67 185.51,-175.67"/>
<polygon fill="black" stroke="black" points="189.01,-175.67 185.51,-165.67 182.01,-175.67 189.01,-175.67"/>
</g>
<!-- :test:image -->
<g id="node16" class="node">
<title>:test:image</title>
<ellipse fill="#9affb5" stroke="black" cx="95.84" cy="-155" rx="63.09" ry="18"/>
<text text-anchor="middle" x="95.84" y="-151.3" font-family="Times,serif" font-size="14.00">:test:image</text>
</g>
<!-- :ui:test:screenshot&#45;&gt;:test:image -->
<g id="edge20" class="edge">
<title>:ui:test:screenshot&#45;&gt;:test:image</title>
<path fill="none" stroke="black" stroke-dasharray="1,5" d="M95.84,-273.81C95.84,-273.81 95.84,-183.27 95.84,-183.27"/>
<polygon fill="black" stroke="black" points="99.34,-183.27 95.84,-173.27 92.34,-183.27 99.34,-183.27"/>
</g>
<!-- :core:preferences&#45;&gt;:core:models -->
<g id="edge22" class="edge">
<title>:core:preferences&#45;&gt;:core:models</title>
<path fill="none" stroke="black" stroke-dasharray="1,5" d="M473.95,-274.86C473.95,-214.87 473.95,-18 473.95,-18 473.95,-18 879.11,-18 879.11,-18"/>
<polygon fill="black" stroke="black" points="879.11,-21.5 889.11,-18 879.11,-14.5 879.11,-21.5"/>
</g>
<!-- :core:coroutines -->
<g id="node17" class="node">
<title>:core:coroutines</title>
<ellipse fill="#b59aff" stroke="black" cx="618.84" cy="-155" rx="85.29" ry="18"/>
<text text-anchor="middle" x="618.84" y="-151.3" font-family="Times,serif" font-size="14.00">:core:coroutines</text>
</g>
<!-- :core:preferences&#45;&gt;:core:coroutines -->
<g id="edge21" class="edge">
<title>:core:preferences&#45;&gt;:core:coroutines</title>
<path fill="none" stroke="black" stroke-dasharray="1,5" d="M565.59,-278.11C565.59,-278.11 565.59,-179.34 565.59,-179.34"/>
<polygon fill="black" stroke="black" points="569.09,-179.34 565.59,-169.34 562.09,-179.34 569.09,-179.34"/>
</g>
<!-- :data:common:network&#45;&gt;:core:logging:api -->
<g id="edge23" class="edge">
<title>:data:common:network&#45;&gt;:core:logging:api</title>
<path fill="none" stroke="black" stroke-dasharray="1,5" d="M1390.31,-274.09C1390.31,-274.09 1390.31,-182.05 1390.31,-182.05"/>
<polygon fill="black" stroke="black" points="1393.81,-182.05 1390.31,-172.05 1386.81,-182.05 1393.81,-182.05"/>
</g>
<!-- :data:spotify&#45;&gt;:core:models -->
<g id="edge25" class="edge">
<title>:data:spotify&#45;&gt;:core:models</title>
<path fill="none" stroke="black" stroke-dasharray="1,5" d="M1639.81,-274.91C1639.81,-214.11 1639.81,-12 1639.81,-12 1639.81,-12 1034.44,-12 1034.44,-12"/>
<polygon fill="black" stroke="black" points="1034.44,-8.5 1024.44,-12 1034.44,-15.5 1034.44,-8.5"/>
</g>
<!-- :data:spotify&#45;&gt;:core:logging:api -->
<g id="edge24" class="edge">
<title>:data:spotify&#45;&gt;:core:logging:api</title>
<path fill="none" stroke="black" stroke-dasharray="1,5" d="M1593.88,-274.93C1593.88,-238.2 1593.88,-155 1593.88,-155 1593.88,-155 1459.27,-155 1459.27,-155"/>
<polygon fill="black" stroke="black" points="1459.27,-151.5 1449.27,-155 1459.27,-158.5 1459.27,-151.5"/>
</g>
<!-- :data:musicbrainz&#45;&gt;:core:models -->
<g id="edge27" class="edge">
<title>:data:musicbrainz&#45;&gt;:core:models</title>
<path fill="none" stroke="black" stroke-dasharray="1,5" d="M1021.32,-284.95C1021.32,-284.95 1021.32,-36.04 1021.32,-36.04"/>
<polygon fill="black" stroke="black" points="1024.82,-36.04 1021.32,-26.04 1017.82,-36.04 1024.82,-36.04"/>
</g>
<!-- :data:musicbrainz&#45;&gt;:core:logging:api -->
<g id="edge26" class="edge">
<title>:data:musicbrainz&#45;&gt;:core:logging:api</title>
<path fill="none" stroke="black" stroke-dasharray="1,5" d="M1114.91,-273.81C1114.91,-236.54 1114.91,-155 1114.91,-155 1114.91,-155 1262.4,-155 1262.4,-155"/>
<polygon fill="black" stroke="black" points="1262.4,-158.5 1272.4,-155 1262.4,-151.5 1262.4,-158.5"/>
</g>
<!-- :data:database&#45;&gt;:core:models -->
<g id="edge29" class="edge">
<title>:data:database&#45;&gt;:core:models</title>
<path fill="none" stroke="black" stroke-dasharray="1,5" d="M951.34,-412.63C951.34,-412.63 951.34,-46.25 951.34,-46.25"/>
<polygon fill="black" stroke="black" points="954.84,-46.25 951.34,-36.25 947.84,-46.25 954.84,-46.25"/>
</g>
<!-- :data:database&#45;&gt;:data:musicbrainz -->
<g id="edge30" class="edge">
<title>:data:database&#45;&gt;:data:musicbrainz</title>
<path fill="none" stroke="black" stroke-dasharray="1,5" d="M1048.17,-417.79C1048.17,-417.79 1048.17,-316.2 1048.17,-316.2"/>
<polygon fill="black" stroke="black" points="1051.67,-316.2 1048.17,-306.2 1044.67,-316.2 1051.67,-316.2"/>
</g>
<!-- :data:database&#45;&gt;:core:coroutines -->
<g id="edge28" class="edge">
<title>:data:database&#45;&gt;:core:coroutines</title>
<path fill="none" stroke="black" stroke-dasharray="1,5" d="M917.04,-438C828.96,-438 687.58,-438 687.58,-438 687.58,-438 687.58,-175.75 687.58,-175.75"/>
<polygon fill="black" stroke="black" points="691.08,-175.75 687.58,-165.75 684.08,-175.75 691.08,-175.75"/>
</g>
<!-- :ui:image&#45;&gt;:core:models -->
<g id="edge31" class="edge">
<title>:ui:image&#45;&gt;:core:models</title>
<path fill="none" stroke="black" stroke-dasharray="1,5" d="M330.94,-276.38C330.94,-217.05 330.94,-9 330.94,-9 330.94,-9 888.35,-9 888.35,-9"/>
<polygon fill="black" stroke="black" points="888.35,-12.5 898.35,-9 888.35,-5.5 888.35,-12.5"/>
</g>
<!-- :ui:image&#45;&gt;:ui:core -->
<g id="edge32" class="edge">
<title>:ui:image&#45;&gt;:ui:core</title>
<path fill="none" stroke="black" stroke-dasharray="1,5" d="M259.12,-281.7C259.12,-281.7 259.12,-176.18 259.12,-176.18"/>
<polygon fill="black" stroke="black" points="262.62,-176.18 259.12,-166.18 255.62,-176.18 262.62,-176.18"/>
</g>
<!-- :shared:domain&#45;&gt;:core:models -->
<g id="edge33" class="edge">
<title>:shared:domain&#45;&gt;:core:models</title>
<path fill="none" stroke="black" stroke-dasharray="1,5" d="M866.53,-143C883.31,-143 896.94,-143 896.94,-143 896.94,-143 896.94,-36.59 896.94,-36.59"/>
<polygon fill="black" stroke="black" points="900.44,-36.59 896.94,-26.59 893.44,-36.59 900.44,-36.59"/>
</g>
<!-- :ui:common&#45;&gt;:ui:test:screenshot -->
<g id="edge34" class="edge">
<title>:ui:common&#45;&gt;:ui:test:screenshot</title>
<path fill="none" stroke="#ff9ab1" stroke-dasharray="1,5" d="M551.11,-438C425.09,-438 129.12,-438 129.12,-438 129.12,-438 129.12,-319.03 129.12,-319.03"/>
<polygon fill="#ff9ab1" stroke="#ff9ab1" points="132.62,-319.03 129.12,-309.03 125.62,-319.03 132.62,-319.03"/>
</g>
<!-- :ui:common&#45;&gt;:core:models -->
<g id="edge35" class="edge">
<title>:ui:common&#45;&gt;:core:models</title>
<path fill="none" stroke="black" d="M662.79,-420C688.4,-420 713.14,-420 713.14,-420 713.14,-420 713.14,-27 713.14,-27 713.14,-27 888.42,-27 888.42,-27"/>
<polygon fill="black" stroke="black" points="888.42,-30.5 898.42,-27 888.42,-23.5 888.42,-30.5"/>
</g>
<!-- :ui:common&#45;&gt;:core:preferences -->
<g id="edge39" class="edge">
<title>:ui:common&#45;&gt;:core:preferences</title>
<path fill="none" stroke="black" stroke-dasharray="1,5" d="M569.99,-414.08C569.99,-414.08 569.99,-314.88 569.99,-314.88"/>
<polygon fill="black" stroke="black" points="573.49,-314.88 569.99,-304.88 566.49,-314.88 573.49,-314.88"/>
</g>
<!-- :ui:common&#45;&gt;:core:logging:api -->
<g id="edge40" class="edge">
<title>:ui:common&#45;&gt;:core:logging:api</title>
<path fill="none" stroke="black" stroke-dasharray="1,5" d="M615.91,-411.08C615.91,-360.96 615.91,-223 615.91,-223 615.91,-223 1331.38,-223 1331.38,-223 1331.38,-223 1331.38,-182.16 1331.38,-182.16"/>
<polygon fill="black" stroke="black" points="1334.88,-182.16 1331.38,-172.16 1327.88,-182.16 1334.88,-182.16"/>
</g>
<!-- :ui:common&#45;&gt;:data:musicbrainz -->
<g id="edge38" class="edge">
<title>:ui:common&#45;&gt;:data:musicbrainz</title>
<path fill="none" stroke="black" stroke-dasharray="1,5" d="M634.33,-412.65C634.33,-392.24 634.33,-360 634.33,-360 634.33,-360 1031.21,-360 1031.21,-360 1031.21,-360 1031.21,-312.62 1031.21,-312.62"/>
<polygon fill="black" stroke="black" points="1034.71,-312.62 1031.21,-302.62 1027.71,-312.63 1034.71,-312.62"/>
</g>
<!-- :ui:common&#45;&gt;:ui:image -->
<g id="edge42" class="edge">
<title>:ui:common&#45;&gt;:ui:image</title>
<path fill="none" stroke="black" stroke-dasharray="1,5" d="M550.87,-420C467.87,-420 321.82,-420 321.82,-420 321.82,-420 321.82,-319 321.82,-319"/>
<polygon fill="black" stroke="black" points="325.32,-319 321.82,-309 318.32,-319 325.32,-319"/>
</g>
<!-- :ui:common&#45;&gt;:shared:domain -->
<g id="edge41" class="edge">
<title>:ui:common&#45;&gt;:shared:domain</title>
<path fill="none" stroke="black" stroke-dasharray="1,5" d="M671.39,-429C704.3,-429 737.47,-429 737.47,-429 737.47,-429 737.47,-175.41 737.47,-175.41"/>
<polygon fill="black" stroke="black" points="740.97,-175.41 737.47,-165.41 733.97,-175.41 740.97,-175.41"/>
</g>
<!-- :ui:common&#45;&gt;:data:coverart -->
<g id="edge37" class="edge">
<title>:ui:common&#45;&gt;:data:coverart</title>
<path fill="none" stroke="black" stroke-dasharray="1,5" d="M652.76,-416.36C652.76,-382.44 652.76,-292 652.76,-292 652.76,-292 757.77,-292 757.77,-292"/>
<polygon fill="black" stroke="black" points="757.77,-295.5 767.77,-292 757.77,-288.5 757.77,-295.5"/>
</g>
<!-- :ui:common&#45;&gt;:ui:core -->
<g id="edge36" class="edge">
<title>:ui:common&#45;&gt;:ui:core</title>
<path fill="none" stroke="black" d="M542.39,-429C432.78,-429 221.79,-429 221.79,-429 221.79,-429 221.79,-183.4 221.79,-183.4"/>
<polygon fill="black" stroke="black" points="225.29,-183.4 221.79,-173.4 218.29,-183.4 225.29,-183.4"/>
</g>
<!-- :data:coverart&#45;&gt;:core:models -->
<g id="edge44" class="edge">
<title>:data:coverart&#45;&gt;:core:models</title>
<path fill="none" stroke="black" stroke-dasharray="1,5" d="M904.59,-280.92C904.59,-280.92 904.59,-39.52 904.59,-39.52"/>
<polygon fill="black" stroke="black" points="908.09,-39.52 904.59,-29.52 901.09,-39.52 908.09,-39.52"/>
</g>
<!-- :data:coverart&#45;&gt;:core:logging:api -->
<g id="edge43" class="edge">
<title>:data:coverart&#45;&gt;:core:logging:api</title>
<path fill="none" stroke="black" stroke-dasharray="1,5" d="M912.24,-283.9C912.24,-253.65 912.24,-149 912.24,-149 912.24,-149 1267.25,-149 1267.25,-149"/>
<polygon fill="black" stroke="black" points="1267.25,-152.5 1277.25,-149 1267.25,-145.5 1267.25,-152.5"/>
</g>
<!-- :data:coverart&#45;&gt;:shared:domain -->
<g id="edge45" class="edge">
<title>:data:coverart&#45;&gt;:shared:domain</title>
<path fill="none" stroke="black" stroke-dasharray="1,5" d="M827.59,-274.37C827.59,-274.37 827.59,-182.56 827.59,-182.56"/>
<polygon fill="black" stroke="black" points="831.09,-182.56 827.59,-172.56 824.09,-182.56 831.09,-182.56"/>
</g>
<!-- :shared:strings -->
<g id="node18" class="node">
<title>:shared:strings</title>
<ellipse fill="#b59aff" stroke="black" cx="222.84" cy="-18" rx="81.49" ry="18"/>
<text text-anchor="middle" x="222.84" y="-14.3" font-family="Times,serif" font-size="14.00">:shared:strings</text>
</g>
<!-- :ui:core&#45;&gt;:shared:strings -->
<g id="edge46" class="edge">
<title>:ui:core&#45;&gt;:shared:strings</title>
<path fill="none" stroke="black" d="M222.84,-136.81C222.84,-136.81 222.84,-46.27 222.84,-46.27"/>
<polygon fill="black" stroke="black" points="226.34,-46.27 222.84,-36.27 219.34,-46.27 226.34,-46.27"/>
</g>
</g>
</svg>
