<?xml version="1.0" encoding="UTF-8" standalone="no"?>
<!DOCTYPE svg PUBLIC "-//W3C//DTD SVG 1.1//EN"
 "http://www.w3.org/Graphics/SVG/1.1/DTD/svg11.dtd">
<!-- Generated by graphviz version 2.43.0 (0)
 -->
<!-- Title: %3 Pages: 1 -->
<svg width="1039pt" height="803pt"
 viewBox="0.00 0.00 1038.98 803.00" xmlns="http://www.w3.org/2000/svg" xmlns:xlink="http://www.w3.org/1999/xlink">
<g id="graph0" class="graph" transform="scale(1 1) rotate(0) translate(4 799)">
<title>%3</title>
<polygon fill="white" stroke="transparent" points="-4,4 -4,-799 1034.98,-799 1034.98,4 -4,4"/>
<text text-anchor="middle" x="515.49" y="-767" font-family="Times,serif" font-size="30.00">Dependencies</text>
<text text-anchor="middle" x="515.49" y="-734" font-family="Times,serif" font-size="30.00"> </text>
<!-- :shared:feature:details -->
<g id="node1" class="node">
<title>:shared:feature:details</title>
<polygon fill="#b59aff" stroke="black" points="781.64,-721 602.64,-721 602.64,-685 781.64,-685 781.64,-721"/>
<text text-anchor="middle" x="692.14" y="-699.3" font-family="Times,serif" font-size="14.00">:shared:feature:details</text>
</g>
<!-- :test&#45;data -->
<g id="node2" class="node">
<title>:test&#45;data</title>
<ellipse fill="#b59aff" stroke="black" cx="375.14" cy="-566" rx="55.49" ry="18"/>
<text text-anchor="middle" x="375.14" y="-562.3" font-family="Times,serif" font-size="14.00">:test&#45;data</text>
</g>
<!-- :shared:feature:details&#45;&gt;:test&#45;data -->
<g id="edge1" class="edge">
<title>:shared:feature:details&#45;&gt;:test&#45;data</title>
<path fill="none" stroke="#ff9ab1" stroke-dasharray="1,5" d="M620.43,-684.93C620.43,-649.65 620.43,-575 620.43,-575 620.43,-575 433.02,-575 433.02,-575"/>
<polygon fill="#ff9ab1" stroke="#ff9ab1" points="433.02,-571.5 423.02,-575 433.02,-578.5 433.02,-571.5"/>
</g>
<!-- :ui:test:screenshot -->
<g id="node3" class="node">
<title>:ui:test:screenshot</title>
<ellipse fill="#9affb5" stroke="black" cx="934.14" cy="-429" rx="96.68" ry="18"/>
<text text-anchor="middle" x="934.14" y="-425.3" font-family="Times,serif" font-size="14.00">:ui:test:screenshot</text>
</g>
<!-- :shared:feature:details&#45;&gt;:ui:test:screenshot -->
<g id="edge2" class="edge">
<title>:shared:feature:details&#45;&gt;:ui:test:screenshot</title>
<path fill="none" stroke="#ff9ab1" stroke-dasharray="1,5" d="M781.91,-703C850.78,-703 934.14,-703 934.14,-703 934.14,-703 934.14,-457.4 934.14,-457.4"/>
<polygon fill="#ff9ab1" stroke="#ff9ab1" points="937.64,-457.4 934.14,-447.4 930.64,-457.4 937.64,-457.4"/>
</g>
<!-- :ui:common -->
<g id="node4" class="node">
<title>:ui:common</title>
<ellipse fill="#b59aff" stroke="black" cx="738.14" cy="-566" rx="64.19" ry="18"/>
<text text-anchor="middle" x="738.14" y="-562.3" font-family="Times,serif" font-size="14.00">:ui:common</text>
</g>
<!-- :shared:feature:details&#45;&gt;:ui:common -->
<g id="edge3" class="edge">
<title>:shared:feature:details&#45;&gt;:ui:common</title>
<path fill="none" stroke="black" stroke-dasharray="1,5" d="M727.72,-684.81C727.72,-684.81 727.72,-593.83 727.72,-593.83"/>
<polygon fill="black" stroke="black" points="731.22,-593.83 727.72,-583.83 724.22,-593.83 731.22,-593.83"/>
</g>
<!-- :shared:domain -->
<g id="node5" class="node">
<title>:shared:domain</title>
<ellipse fill="#b59aff" stroke="black" cx="303.14" cy="-18" rx="82.59" ry="18"/>
<text text-anchor="middle" x="303.14" y="-14.3" font-family="Times,serif" font-size="14.00">:shared:domain</text>
</g>
<!-- :shared:feature:details&#45;&gt;:shared:domain -->
<g id="edge4" class="edge">
<title>:shared:feature:details&#45;&gt;:shared:domain</title>
<path fill="none" stroke="black" stroke-dasharray="1,5" d="M602.37,-703C415.09,-703 0,-703 0,-703 0,-703 0,-18 0,-18 0,-18 210.31,-18 210.31,-18"/>
<polygon fill="black" stroke="black" points="210.31,-21.5 220.31,-18 210.31,-14.5 210.31,-21.5"/>
</g>
<!-- :core:logging:api -->
<g id="node6" class="node">
<title>:core:logging:api</title>
<ellipse fill="#b59aff" stroke="black" cx="729.14" cy="-18" rx="88.28" ry="18"/>
<text text-anchor="middle" x="729.14" y="-14.3" font-family="Times,serif" font-size="14.00">:core:logging:api</text>
</g>
<!-- :shared:feature:details&#45;&gt;:core:logging:api -->
<g id="edge5" class="edge">
<title>:shared:feature:details&#45;&gt;:core:logging:api</title>
<path fill="none" stroke="black" stroke-dasharray="1,5" d="M656.01,-684.72C656.01,-634.3 656.01,-497 656.01,-497 656.01,-497 736.02,-497 736.02,-497 736.02,-497 736.02,-46.19 736.02,-46.19"/>
<polygon fill="black" stroke="black" points="739.52,-46.19 736.02,-36.19 732.52,-46.19 739.52,-46.19"/>
</g>
<!-- :ui:image -->
<g id="node7" class="node">
<title>:ui:image</title>
<ellipse fill="#b59aff" stroke="black" cx="651.14" cy="-429" rx="53.89" ry="18"/>
<text text-anchor="middle" x="651.14" y="-425.3" font-family="Times,serif" font-size="14.00">:ui:image</text>
</g>
<!-- :shared:feature:details&#45;&gt;:ui:image -->
<g id="edge6" class="edge">
<title>:shared:feature:details&#45;&gt;:ui:image</title>
<path fill="none" stroke="black" stroke-dasharray="1,5" d="M638.22,-684.6C638.22,-684.6 638.22,-456.61 638.22,-456.61"/>
<polygon fill="black" stroke="black" points="641.72,-456.61 638.22,-446.61 634.72,-456.61 641.72,-456.61"/>
</g>
<!-- :test&#45;data&#45;&gt;:shared:domain -->
<g id="edge7" class="edge">
<title>:test&#45;data&#45;&gt;:shared:domain</title>
<path fill="none" stroke="black" stroke-dasharray="1,5" d="M335.5,-553.39C335.5,-491.5 335.5,-223 335.5,-223 335.5,-223 261.7,-223 261.7,-223 261.7,-223 261.7,-43.75 261.7,-43.75"/>
<polygon fill="black" stroke="black" points="265.2,-43.75 261.7,-33.75 258.2,-43.75 265.2,-43.75"/>
</g>
<!-- :data:musicbrainz -->
<g id="node8" class="node">
<title>:data:musicbrainz</title>
<ellipse fill="#b59aff" stroke="black" cx="531.14" cy="-155" rx="93.68" ry="18"/>
<text text-anchor="middle" x="531.14" y="-151.3" font-family="Times,serif" font-size="14.00">:data:musicbrainz</text>
</g>
<!-- :test&#45;data&#45;&gt;:data:musicbrainz -->
<g id="edge8" class="edge">
<title>:test&#45;data&#45;&gt;:data:musicbrainz</title>
<path fill="none" stroke="black" stroke-dasharray="1,5" d="M423.44,-557C475.25,-557 550.19,-557 550.19,-557 550.19,-557 550.19,-182.79 550.19,-182.79"/>
<polygon fill="black" stroke="black" points="553.69,-182.79 550.19,-172.79 546.69,-182.79 553.69,-182.79"/>
</g>
<!-- :data:coverart -->
<g id="node9" class="node">
<title>:data:coverart</title>
<ellipse fill="#b59aff" stroke="black" cx="427.14" cy="-429" rx="76.09" ry="18"/>
<text text-anchor="middle" x="427.14" y="-425.3" font-family="Times,serif" font-size="14.00">:data:coverart</text>
</g>
<!-- :test&#45;data&#45;&gt;:data:coverart -->
<g id="edge9" class="edge">
<title>:test&#45;data&#45;&gt;:data:coverart</title>
<path fill="none" stroke="black" stroke-dasharray="1,5" d="M377.53,-547.81C377.53,-547.81 377.53,-452.71 377.53,-452.71"/>
<polygon fill="black" stroke="black" points="381.03,-452.71 377.53,-442.71 374.03,-452.71 381.03,-452.71"/>
</g>
<!-- :data:spotify -->
<g id="node10" class="node">
<title>:data:spotify</title>
<ellipse fill="#b59aff" stroke="black" cx="351.14" cy="-155" rx="68.79" ry="18"/>
<text text-anchor="middle" x="351.14" y="-151.3" font-family="Times,serif" font-size="14.00">:data:spotify</text>
</g>
<!-- :test&#45;data&#45;&gt;:data:spotify -->
<g id="edge10" class="edge">
<title>:test&#45;data&#45;&gt;:data:spotify</title>
<path fill="none" stroke="black" stroke-dasharray="1,5" d="M343.3,-550.88C343.3,-550.88 343.3,-182.97 343.3,-182.97"/>
<polygon fill="black" stroke="black" points="346.8,-182.97 343.3,-172.97 339.8,-182.97 346.8,-182.97"/>
</g>
<!-- :data:database -->
<g id="node11" class="node">
<title>:data:database</title>
<ellipse fill="#b59aff" stroke="black" cx="206.14" cy="-292" rx="79.09" ry="18"/>
<text text-anchor="middle" x="206.14" y="-288.3" font-family="Times,serif" font-size="14.00">:data:database</text>
</g>
<!-- :test&#45;data&#45;&gt;:data:database -->
<g id="edge11" class="edge">
<title>:test&#45;data&#45;&gt;:data:database</title>
<path fill="none" stroke="black" stroke-dasharray="1,5" d="M327.7,-556.57C327.7,-509.36 327.7,-301 327.7,-301 327.7,-301 285.09,-301 285.09,-301"/>
<polygon fill="black" stroke="black" points="285.09,-297.5 275.09,-301 285.09,-304.5 285.09,-297.5"/>
</g>
<!-- :core:coroutines -->
<g id="node12" class="node">
<title>:core:coroutines</title>
<ellipse fill="#b59aff" stroke="black" cx="103.14" cy="-155" rx="85.29" ry="18"/>
<text text-anchor="middle" x="103.14" y="-151.3" font-family="Times,serif" font-size="14.00">:core:coroutines</text>
</g>
<!-- :test&#45;data&#45;&gt;:core:coroutines -->
<g id="edge12" class="edge">
<title>:test&#45;data&#45;&gt;:core:coroutines</title>
<path fill="none" stroke="black" stroke-dasharray="1,5" d="M319.62,-566C227.79,-566 54.28,-566 54.28,-566 54.28,-566 54.28,-180.12 54.28,-180.12"/>
<polygon fill="black" stroke="black" points="57.78,-180.12 54.28,-170.12 50.78,-180.12 57.78,-180.12"/>
</g>
<!-- :ui:core -->
<g id="node13" class="node">
<title>:ui:core</title>
<ellipse fill="#b59aff" stroke="black" cx="802.14" cy="-292" rx="45.49" ry="18"/>
<text text-anchor="middle" x="802.14" y="-288.3" font-family="Times,serif" font-size="14.00">:ui:core</text>
</g>
<!-- :ui:test:screenshot&#45;&gt;:ui:core -->
<g id="edge13" class="edge">
<title>:ui:test:screenshot&#45;&gt;:ui:core</title>
<path fill="none" stroke="black" stroke-dasharray="1,5" d="M842.47,-423.11C842.47,-423.11 842.47,-310.36 842.47,-310.36"/>
<polygon fill="black" stroke="black" points="845.97,-310.36 842.47,-300.36 838.97,-310.36 845.97,-310.36"/>
</g>
<!-- :test:image -->
<g id="node14" class="node">
<title>:test:image</title>
<ellipse fill="#9affb5" stroke="black" cx="966.14" cy="-292" rx="63.09" ry="18"/>
<text text-anchor="middle" x="966.14" y="-288.3" font-family="Times,serif" font-size="14.00">:test:image</text>
</g>
<!-- :ui:test:screenshot&#45;&gt;:test:image -->
<g id="edge14" class="edge">
<title>:ui:test:screenshot&#45;&gt;:test:image</title>
<path fill="none" stroke="black" stroke-dasharray="1,5" d="M966.14,-411.93C966.14,-411.93 966.14,-320.16 966.14,-320.16"/>
<polygon fill="black" stroke="black" points="969.64,-320.16 966.14,-310.16 962.64,-320.16 969.64,-320.16"/>
</g>
<!-- :ui:common&#45;&gt;:ui:test:screenshot -->
<g id="edge15" class="edge">
<title>:ui:common&#45;&gt;:ui:test:screenshot</title>
<path fill="none" stroke="#ff9ab1" stroke-dasharray="1,5" d="M791.03,-555.72C791.03,-524.84 791.03,-435 791.03,-435 791.03,-435 832.69,-435 832.69,-435"/>
<polygon fill="#ff9ab1" stroke="#ff9ab1" points="832.69,-438.5 842.69,-435 832.69,-431.5 832.69,-438.5"/>
</g>
<!-- :ui:common&#45;&gt;:shared:domain -->
<g id="edge16" class="edge">
<title>:ui:common&#45;&gt;:shared:domain</title>
<path fill="none" stroke="black" d="M725.71,-548.06C725.71,-460.92 725.71,-86 725.71,-86 725.71,-86 351.21,-86 351.21,-86 351.21,-86 351.21,-42.75 351.21,-42.75"/>
<polygon fill="black" stroke="black" points="354.71,-42.75 351.21,-32.75 347.71,-42.76 354.71,-42.75"/>
</g>
<!-- :ui:common&#45;&gt;:core:logging:api -->
<g id="edge20" class="edge">
<title>:ui:common&#45;&gt;:core:logging:api</title>
<path fill="none" stroke="black" stroke-dasharray="1,5" d="M746.33,-548.08C746.33,-548.08 746.33,-45.78 746.33,-45.78"/>
<polygon fill="black" stroke="black" points="749.83,-45.78 746.33,-35.78 742.83,-45.78 749.83,-45.78"/>
</g>
<!-- :ui:common&#45;&gt;:ui:image -->
<g id="edge21" class="edge">
<title>:ui:common&#45;&gt;:ui:image</title>
<path fill="none" stroke="black" stroke-dasharray="1,5" d="M689.44,-553.84C689.44,-553.84 689.44,-451.73 689.44,-451.73"/>
<polygon fill="black" stroke="black" points="692.94,-451.73 689.44,-441.73 685.94,-451.73 692.94,-451.73"/>
</g>
<!-- :ui:common&#45;&gt;:data:musicbrainz -->
<g id="edge19" class="edge">
<title>:ui:common&#45;&gt;:data:musicbrainz</title>
<path fill="none" stroke="black" stroke-dasharray="1,5" d="M715.4,-549.11C715.4,-472.46 715.4,-161 715.4,-161 715.4,-161 629.49,-161 629.49,-161"/>
<polygon fill="black" stroke="black" points="629.49,-157.5 619.49,-161 629.49,-164.5 629.49,-157.5"/>
</g>
<!-- :ui:common&#45;&gt;:data:coverart -->
<g id="edge18" class="edge">
<title>:ui:common&#45;&gt;:data:coverart</title>
<path fill="none" stroke="black" stroke-dasharray="1,5" d="M673.49,-566C593.23,-566 466.79,-566 466.79,-566 466.79,-566 466.79,-454.45 466.79,-454.45"/>
<polygon fill="black" stroke="black" points="470.29,-454.45 466.79,-444.45 463.29,-454.45 470.29,-454.45"/>
</g>
<!-- :ui:common&#45;&gt;:ui:core -->
<g id="edge17" class="edge">
<title>:ui:common&#45;&gt;:ui:core</title>
<path fill="none" stroke="black" d="M779.57,-552.04C779.57,-552.04 779.57,-317.96 779.57,-317.96"/>
<polygon fill="black" stroke="black" points="783.07,-317.96 779.57,-307.96 776.07,-317.96 783.07,-317.96"/>
</g>
<!-- :ui:image&#45;&gt;:shared:domain -->
<g id="edge22" class="edge">
<title>:ui:image&#45;&gt;:shared:domain</title>
<path fill="none" stroke="black" stroke-dasharray="1,5" d="M632.74,-411.88C632.74,-333.41 632.74,-12 632.74,-12 632.74,-12 391.25,-12 391.25,-12"/>
<polygon fill="black" stroke="black" points="391.25,-8.5 381.25,-12 391.25,-15.5 391.25,-8.5"/>
</g>
<!-- :ui:image&#45;&gt;:ui:core -->
<g id="edge23" class="edge">
<title>:ui:image&#45;&gt;:ui:core</title>
<path fill="none" stroke="black" stroke-dasharray="1,5" d="M702.1,-423C733.62,-423 768.11,-423 768.11,-423 768.11,-423 768.11,-314.09 768.11,-314.09"/>
<polygon fill="black" stroke="black" points="771.61,-314.09 768.11,-304.09 764.61,-314.09 771.61,-314.09"/>
</g>
<!-- :data:musicbrainz&#45;&gt;:shared:domain -->
<g id="edge24" class="edge">
<title>:data:musicbrainz&#45;&gt;:shared:domain</title>
<path fill="none" stroke="black" stroke-dasharray="1,5" d="M531.14,-136.81C531.14,-99.54 531.14,-18 531.14,-18 531.14,-18 395.78,-18 395.78,-18"/>
<polygon fill="black" stroke="black" points="395.78,-14.5 385.78,-18 395.78,-21.5 395.78,-14.5"/>
</g>
<!-- :data:musicbrainz&#45;&gt;:core:logging:api -->
<g id="edge25" class="edge">
<title>:data:musicbrainz&#45;&gt;:core:logging:api</title>
<path fill="none" stroke="black" stroke-dasharray="1,5" d="M619.72,-149C648.38,-149 672.92,-149 672.92,-149 672.92,-149 672.92,-42.02 672.92,-42.02"/>
<polygon fill="black" stroke="black" points="676.42,-42.02 672.92,-32.02 669.42,-42.02 676.42,-42.02"/>
</g>
<!-- :data:coverart&#45;&gt;:test&#45;data -->
<g id="edge29" class="edge">
<title>:data:coverart&#45;&gt;:test&#45;data</title>
<path fill="none" stroke="#ff9ab1" stroke-dasharray="1,5" d="M403.96,-446.35C403.96,-446.35 403.96,-540.48 403.96,-540.48"/>
<polygon fill="#ff9ab1" stroke="#ff9ab1" points="400.46,-540.48 403.96,-550.48 407.46,-540.48 400.46,-540.48"/>
</g>
<!-- :data:coverart&#45;&gt;:shared:domain -->
<g id="edge26" class="edge">
<title>:data:coverart&#45;&gt;:shared:domain</title>
<path fill="none" stroke="black" stroke-dasharray="1,5" d="M425.87,-410.81C425.87,-332.01 425.87,-24 425.87,-24 425.87,-24 391.22,-24 391.22,-24"/>
<polygon fill="black" stroke="black" points="391.22,-20.5 381.22,-24 391.22,-27.5 391.22,-20.5"/>
</g>
<!-- :data:coverart&#45;&gt;:core:logging:api -->
<g id="edge27" class="edge">
<title>:data:coverart&#45;&gt;:core:logging:api</title>
<path fill="none" stroke="black" stroke-dasharray="1,5" d="M431.71,-410.82C431.71,-332.76 431.71,-30 431.71,-30 431.71,-30 653.13,-30 653.13,-30"/>
<polygon fill="black" stroke="black" points="653.13,-33.5 663.13,-30 653.13,-26.5 653.13,-33.5"/>
</g>
<!-- :data:coverart&#45;&gt;:data:musicbrainz -->
<g id="edge30" class="edge">
<title>:data:coverart&#45;&gt;:data:musicbrainz</title>
<path fill="none" stroke="#ff9ab1" stroke-dasharray="1,5" d="M481.31,-416.15C481.31,-416.15 481.31,-180.47 481.31,-180.47"/>
<polygon fill="#ff9ab1" stroke="#ff9ab1" points="484.81,-180.47 481.31,-170.47 477.81,-180.47 484.81,-180.47"/>
</g>
<!-- :data:coverart&#45;&gt;:data:database -->
<g id="edge31" class="edge">
<title>:data:coverart&#45;&gt;:data:database</title>
<path fill="none" stroke="#ff9ab1" stroke-dasharray="1,5" d="M385.57,-413.82C385.57,-378.15 385.57,-292 385.57,-292 385.57,-292 295.62,-292 295.62,-292"/>
<polygon fill="#ff9ab1" stroke="#ff9ab1" points="295.62,-288.5 285.62,-292 295.62,-295.5 295.62,-288.5"/>
</g>
<!-- :data:coverart&#45;&gt;:core:coroutines -->
<g id="edge28" class="edge">
<title>:data:coverart&#45;&gt;:core:coroutines</title>
<path fill="none" stroke="black" stroke-dasharray="1,5" d="M350.77,-429C251.46,-429 90.57,-429 90.57,-429 90.57,-429 90.57,-182.98 90.57,-182.98"/>
<polygon fill="black" stroke="black" points="94.07,-182.98 90.57,-172.98 87.07,-182.98 94.07,-182.98"/>
</g>
<!-- :data:spotify&#45;&gt;:shared:domain -->
<g id="edge32" class="edge">
<title>:data:spotify&#45;&gt;:shared:domain</title>
<path fill="none" stroke="black" stroke-dasharray="1,5" d="M316.73,-139.28C316.73,-139.28 316.73,-46.13 316.73,-46.13"/>
<polygon fill="black" stroke="black" points="320.23,-46.13 316.73,-36.13 313.23,-46.13 320.23,-46.13"/>
</g>
<!-- :data:spotify&#45;&gt;:core:logging:api -->
<g id="edge33" class="edge">
<title>:data:spotify&#45;&gt;:core:logging:api</title>
<path fill="none" stroke="black" stroke-dasharray="1,5" d="M402.86,-142.98C402.86,-107.38 402.86,-5 402.86,-5 402.86,-5 657.77,-5 657.77,-5"/>
<polygon fill="black" stroke="black" points="657.77,-8.5 667.77,-5 657.77,-1.5 657.77,-8.5"/>
</g>
<!-- :data:database&#45;&gt;:shared:domain -->
<g id="edge34" class="edge">
<title>:data:database&#45;&gt;:shared:domain</title>
<path fill="none" stroke="black" stroke-dasharray="1,5" d="M241.15,-275.68C241.15,-275.68 241.15,-40.03 241.15,-40.03"/>
<polygon fill="black" stroke="black" points="244.65,-40.03 241.15,-30.03 237.65,-40.03 244.65,-40.03"/>
</g>
<!-- :data:database&#45;&gt;:data:musicbrainz -->
<g id="edge36" class="edge">
<title>:data:database&#45;&gt;:data:musicbrainz</title>
<path fill="none" stroke="black" stroke-dasharray="1,5" d="M275.02,-283C350.02,-283 459.43,-283 459.43,-283 459.43,-283 459.43,-176.81 459.43,-176.81"/>
<polygon fill="black" stroke="black" points="462.93,-176.81 459.43,-166.81 455.93,-176.81 462.93,-176.81"/>
</g>
<!-- :data:database&#45;&gt;:core:coroutines -->
<g id="edge35" class="edge">
<title>:data:database&#45;&gt;:core:coroutines</title>
<path fill="none" stroke="black" stroke-dasharray="1,5" d="M157.57,-277.6C157.57,-277.6 157.57,-179.21 157.57,-179.21"/>
<polygon fill="black" stroke="black" points="161.07,-179.21 157.57,-169.21 154.07,-179.21 161.07,-179.21"/>
</g>
<!-- :shared:strings -->
<g id="node15" class="node">
<title>:shared:strings</title>
<ellipse fill="#b59aff" stroke="black" cx="838.14" cy="-155" rx="81.49" ry="18"/>
<text text-anchor="middle" x="838.14" y="-151.3" font-family="Times,serif" font-size="14.00">:shared:strings</text>
</g>
<!-- :ui:core&#45;&gt;:shared:strings -->
<g id="edge37" class="edge">
<title>:ui:core&#45;&gt;:shared:strings</title>
<path fill="none" stroke="black" d="M802.27,-273.81C802.27,-273.81 802.27,-181.55 802.27,-181.55"/>
<polygon fill="black" stroke="black" points="805.77,-181.55 802.27,-171.55 798.77,-181.55 805.77,-181.55"/>
</g>
</g>
</svg>
