<?xml version="1.0" encoding="UTF-8" standalone="no"?>
<!DOCTYPE svg PUBLIC "-//W3C//DTD SVG 1.1//EN"
 "http://www.w3.org/Graphics/SVG/1.1/DTD/svg11.dtd">
<!-- Generated by graphviz version 2.43.0 (0)
 -->
<!-- Title: %3 Pages: 1 -->
<svg width="1012pt" height="666pt"
 viewBox="0.00 0.00 1011.74 666.00" xmlns="http://www.w3.org/2000/svg" xmlns:xlink="http://www.w3.org/1999/xlink">
<g id="graph0" class="graph" transform="scale(1 1) rotate(0) translate(4 662)">
<title>%3</title>
<polygon fill="white" stroke="transparent" points="-4,4 -4,-662 1007.74,-662 1007.74,4 -4,4"/>
<text text-anchor="middle" x="501.87" y="-630" font-family="Times,serif" font-size="30.00">Dependencies</text>
<text text-anchor="middle" x="501.87" y="-597" font-family="Times,serif" font-size="30.00"> </text>
<!-- :shared:feature:details -->
<g id="node1" class="node">
<title>:shared:feature:details</title>
<polygon fill="#b59aff" stroke="black" points="710.39,-584 531.39,-584 531.39,-548 710.39,-548 710.39,-584"/>
<text text-anchor="middle" x="620.89" y="-562.3" font-family="Times,serif" font-size="14.00">:shared:feature:details</text>
</g>
<!-- :test&#45;data -->
<g id="node2" class="node">
<title>:test&#45;data</title>
<ellipse fill="#b59aff" stroke="black" cx="231.89" cy="-429" rx="55.49" ry="18"/>
<text text-anchor="middle" x="231.89" y="-425.3" font-family="Times,serif" font-size="14.00">:test&#45;data</text>
</g>
<!-- :shared:feature:details&#45;&gt;:test&#45;data -->
<g id="edge1" class="edge">
<title>:shared:feature:details&#45;&gt;:test&#45;data</title>
<path fill="none" stroke="#ff9ab1" stroke-dasharray="1,5" d="M531.16,-566C416.28,-566 231.89,-566 231.89,-566 231.89,-566 231.89,-457.19 231.89,-457.19"/>
<polygon fill="#ff9ab1" stroke="#ff9ab1" points="235.39,-457.19 231.89,-447.19 228.39,-457.19 235.39,-457.19"/>
</g>
<!-- :ui:test:screenshot -->
<g id="node3" class="node">
<title>:ui:test:screenshot</title>
<ellipse fill="#9affb5" stroke="black" cx="906.89" cy="-292" rx="96.68" ry="18"/>
<text text-anchor="middle" x="906.89" y="-288.3" font-family="Times,serif" font-size="14.00">:ui:test:screenshot</text>
</g>
<!-- :shared:feature:details&#45;&gt;:ui:test:screenshot -->
<g id="edge2" class="edge">
<title>:shared:feature:details&#45;&gt;:ui:test:screenshot</title>
<path fill="none" stroke="#ff9ab1" stroke-dasharray="1,5" d="M710.4,-566C804.54,-566 939.17,-566 939.17,-566 939.17,-566 939.17,-319.14 939.17,-319.14"/>
<polygon fill="#ff9ab1" stroke="#ff9ab1" points="942.67,-319.14 939.17,-309.14 935.67,-319.14 942.67,-319.14"/>
</g>
<!-- :ui:common -->
<g id="node4" class="node">
<title>:ui:common</title>
<ellipse fill="#b59aff" stroke="black" cx="574.89" cy="-429" rx="64.19" ry="18"/>
<text text-anchor="middle" x="574.89" y="-425.3" font-family="Times,serif" font-size="14.00">:ui:common</text>
</g>
<!-- :shared:feature:details&#45;&gt;:ui:common -->
<g id="edge3" class="edge">
<title>:shared:feature:details&#45;&gt;:ui:common</title>
<path fill="none" stroke="black" stroke-dasharray="1,5" d="M585.32,-547.81C585.32,-547.81 585.32,-456.83 585.32,-456.83"/>
<polygon fill="black" stroke="black" points="588.82,-456.83 585.32,-446.83 581.82,-456.83 588.82,-456.83"/>
</g>
<!-- :shared:domain -->
<g id="node5" class="node">
<title>:shared:domain</title>
<ellipse fill="#b59aff" stroke="black" cx="230.89" cy="-155" rx="82.59" ry="18"/>
<text text-anchor="middle" x="230.89" y="-151.3" font-family="Times,serif" font-size="14.00">:shared:domain</text>
</g>
<!-- :shared:feature:details&#45;&gt;:shared:domain -->
<g id="edge4" class="edge">
<title>:shared:feature:details&#45;&gt;:shared:domain</title>
<path fill="none" stroke="black" stroke-dasharray="1,5" d="M531.34,-575C395.27,-575 152.1,-575 152.1,-575 152.1,-575 152.1,-170.62 152.1,-170.62"/>
<polygon fill="black" stroke="black" points="155.6,-170.62 152.1,-160.62 148.6,-170.62 155.6,-170.62"/>
</g>
<!-- :core:logging:api -->
<g id="node6" class="node">
<title>:core:logging:api</title>
<ellipse fill="#b59aff" stroke="black" cx="419.89" cy="-155" rx="88.28" ry="18"/>
<text text-anchor="middle" x="419.89" y="-151.3" font-family="Times,serif" font-size="14.00">:core:logging:api</text>
</g>
<!-- :shared:feature:details&#45;&gt;:core:logging:api -->
<g id="edge5" class="edge">
<title>:shared:feature:details&#45;&gt;:core:logging:api</title>
<path fill="none" stroke="black" stroke-dasharray="1,5" d="M531.01,-557C441.9,-557 318.58,-557 318.58,-557 318.58,-557 318.58,-151 318.58,-151 318.58,-151 323.53,-151 323.53,-151"/>
<polygon fill="black" stroke="black" points="323.53,-154.5 333.53,-151 323.53,-147.5 323.53,-154.5"/>
</g>
<!-- :ui:image -->
<g id="node7" class="node">
<title>:ui:image</title>
<ellipse fill="#b59aff" stroke="black" cx="661.89" cy="-292" rx="53.89" ry="18"/>
<text text-anchor="middle" x="661.89" y="-288.3" font-family="Times,serif" font-size="14.00">:ui:image</text>
</g>
<!-- :shared:feature:details&#45;&gt;:ui:image -->
<g id="edge6" class="edge">
<title>:shared:feature:details&#45;&gt;:ui:image</title>
<path fill="none" stroke="black" stroke-dasharray="1,5" d="M674.82,-547.6C674.82,-547.6 674.82,-319.61 674.82,-319.61"/>
<polygon fill="black" stroke="black" points="678.32,-319.61 674.82,-309.61 671.32,-319.61 678.32,-319.61"/>
</g>
<!-- :test&#45;data&#45;&gt;:shared:domain -->
<g id="edge7" class="edge">
<title>:test&#45;data&#45;&gt;:shared:domain</title>
<path fill="none" stroke="black" stroke-dasharray="1,5" d="M179.49,-423C165.39,-423 153.98,-423 153.98,-423 153.98,-423 153.98,-171.62 153.98,-171.62"/>
<polygon fill="black" stroke="black" points="157.48,-171.62 153.98,-161.62 150.48,-171.62 157.48,-171.62"/>
</g>
<!-- :data:musicbrainz -->
<g id="node8" class="node">
<title>:data:musicbrainz</title>
<ellipse fill="#b59aff" stroke="black" cx="419.89" cy="-292" rx="93.68" ry="18"/>
<text text-anchor="middle" x="419.89" y="-288.3" font-family="Times,serif" font-size="14.00">:data:musicbrainz</text>
</g>
<!-- :test&#45;data&#45;&gt;:data:musicbrainz -->
<g id="edge8" class="edge">
<title>:test&#45;data&#45;&gt;:data:musicbrainz</title>
<path fill="none" stroke="black" stroke-dasharray="1,5" d="M279.93,-420C335.2,-420 418.43,-420 418.43,-420 418.43,-420 418.43,-320.07 418.43,-320.07"/>
<polygon fill="black" stroke="black" points="421.93,-320.07 418.43,-310.07 414.93,-320.07 421.93,-320.07"/>
</g>
<!-- :data:coverart -->
<g id="node9" class="node">
<title>:data:coverart</title>
<ellipse fill="#b59aff" stroke="black" cx="231.89" cy="-292" rx="76.09" ry="18"/>
<text text-anchor="middle" x="231.89" y="-288.3" font-family="Times,serif" font-size="14.00">:data:coverart</text>
</g>
<!-- :test&#45;data&#45;&gt;:data:coverart -->
<g id="edge9" class="edge">
<title>:test&#45;data&#45;&gt;:data:coverart</title>
<path fill="none" stroke="black" stroke-dasharray="1,5" d="M231.89,-410.81C231.89,-410.81 231.89,-320.27 231.89,-320.27"/>
<polygon fill="black" stroke="black" points="235.39,-320.27 231.89,-310.27 228.39,-320.27 235.39,-320.27"/>
</g>
<!-- :data:spotify -->
<g id="node10" class="node">
<title>:data:spotify</title>
<ellipse fill="#b59aff" stroke="black" cx="68.89" cy="-292" rx="68.79" ry="18"/>
<text text-anchor="middle" x="68.89" y="-288.3" font-family="Times,serif" font-size="14.00">:data:spotify</text>
</g>
<!-- :test&#45;data&#45;&gt;:data:spotify -->
<g id="edge10" class="edge">
<title>:test&#45;data&#45;&gt;:data:spotify</title>
<path fill="none" stroke="black" stroke-dasharray="1,5" d="M179.42,-435C131.77,-435 68.89,-435 68.89,-435 68.89,-435 68.89,-320.11 68.89,-320.11"/>
<polygon fill="black" stroke="black" points="72.39,-320.11 68.89,-310.11 65.39,-320.11 72.39,-320.11"/>
</g>
<!-- :ui:core -->
<g id="node11" class="node">
<title>:ui:core</title>
<ellipse fill="#b59aff" stroke="black" cx="743.89" cy="-155" rx="45.49" ry="18"/>
<text text-anchor="middle" x="743.89" y="-151.3" font-family="Times,serif" font-size="14.00">:ui:core</text>
</g>
<!-- :ui:test:screenshot&#45;&gt;:ui:core -->
<g id="edge11" class="edge">
<title>:ui:test:screenshot&#45;&gt;:ui:core</title>
<path fill="none" stroke="black" stroke-dasharray="1,5" d="M817.59,-285.02C817.59,-257.1 817.59,-155 817.59,-155 817.59,-155 799.73,-155 799.73,-155"/>
<polygon fill="black" stroke="black" points="799.73,-151.5 789.73,-155 799.73,-158.5 799.73,-151.5"/>
</g>
<!-- :test:image -->
<g id="node12" class="node">
<title>:test:image</title>
<ellipse fill="#9affb5" stroke="black" cx="906.89" cy="-155" rx="63.09" ry="18"/>
<text text-anchor="middle" x="906.89" y="-151.3" font-family="Times,serif" font-size="14.00">:test:image</text>
</g>
<!-- :ui:test:screenshot&#45;&gt;:test:image -->
<g id="edge12" class="edge">
<title>:ui:test:screenshot&#45;&gt;:test:image</title>
<path fill="none" stroke="black" stroke-dasharray="1,5" d="M906.89,-273.81C906.89,-273.81 906.89,-183.27 906.89,-183.27"/>
<polygon fill="black" stroke="black" points="910.39,-183.27 906.89,-173.27 903.39,-183.27 910.39,-183.27"/>
</g>
<!-- :ui:common&#45;&gt;:ui:test:screenshot -->
<g id="edge13" class="edge">
<title>:ui:common&#45;&gt;:ui:test:screenshot</title>
<path fill="none" stroke="#ff9ab1" stroke-dasharray="1,5" d="M635.91,-435C723.54,-435 874.61,-435 874.61,-435 874.61,-435 874.61,-319.25 874.61,-319.25"/>
<polygon fill="#ff9ab1" stroke="#ff9ab1" points="878.11,-319.25 874.61,-309.25 871.11,-319.25 878.11,-319.25"/>
</g>
<!-- :ui:common&#45;&gt;:shared:domain -->
<g id="edge14" class="edge">
<title>:ui:common&#45;&gt;:shared:domain</title>
<path fill="none" stroke="black" d="M510.54,-429C435.36,-429 321.16,-429 321.16,-429 321.16,-429 321.16,-165 321.16,-165 321.16,-165 309.77,-165 309.77,-165"/>
<polygon fill="black" stroke="black" points="309.77,-161.5 299.77,-165 309.77,-168.5 309.77,-161.5"/>
</g>
<!-- :ui:common&#45;&gt;:core:logging:api -->
<g id="edge18" class="edge">
<title>:ui:common&#45;&gt;:core:logging:api</title>
<path fill="none" stroke="black" stroke-dasharray="1,5" d="M576.46,-410.6C576.46,-349.16 576.46,-155 576.46,-155 576.46,-155 518.7,-155 518.7,-155"/>
<polygon fill="black" stroke="black" points="518.7,-151.5 508.7,-155 518.7,-158.5 518.7,-151.5"/>
</g>
<!-- :ui:common&#45;&gt;:ui:image -->
<g id="edge19" class="edge">
<title>:ui:common&#45;&gt;:ui:image</title>
<path fill="none" stroke="black" stroke-dasharray="1,5" d="M623.59,-416.84C623.59,-416.84 623.59,-314.73 623.59,-314.73"/>
<polygon fill="black" stroke="black" points="627.09,-314.73 623.59,-304.73 620.09,-314.73 627.09,-314.73"/>
</g>
<!-- :ui:common&#45;&gt;:data:musicbrainz -->
<g id="edge17" class="edge">
<title>:ui:common&#45;&gt;:data:musicbrainz</title>
<path fill="none" stroke="black" stroke-dasharray="1,5" d="M544.97,-413.02C544.97,-376.88 544.97,-292 544.97,-292 544.97,-292 523.73,-292 523.73,-292"/>
<polygon fill="black" stroke="black" points="523.73,-288.5 513.73,-292 523.73,-295.5 523.73,-288.5"/>
</g>
<!-- :ui:common&#45;&gt;:data:coverart -->
<g id="edge16" class="edge">
<title>:ui:common&#45;&gt;:data:coverart</title>
<path fill="none" stroke="black" stroke-dasharray="1,5" d="M519.1,-438C438.11,-438 297.54,-438 297.54,-438 297.54,-438 297.54,-311.13 297.54,-311.13"/>
<polygon fill="black" stroke="black" points="301.04,-311.13 297.54,-301.13 294.04,-311.13 301.04,-311.13"/>
</g>
<!-- :ui:common&#45;&gt;:ui:core -->
<g id="edge15" class="edge">
<title>:ui:common&#45;&gt;:ui:core</title>
<path fill="none" stroke="black" d="M636.06,-423C687.46,-423 752.61,-423 752.61,-423 752.61,-423 752.61,-183 752.61,-183"/>
<polygon fill="black" stroke="black" points="756.11,-183 752.61,-173 749.11,-183 756.11,-183"/>
</g>
<!-- :ui:image&#45;&gt;:shared:domain -->
<g id="edge20" class="edge">
<title>:ui:image&#45;&gt;:shared:domain</title>
<path fill="none" stroke="black" stroke-dasharray="1,5" d="M635.3,-276.12C635.3,-260.82 635.3,-240 635.3,-240 635.3,-240 257.24,-240 257.24,-240 257.24,-240 257.24,-182.2 257.24,-182.2"/>
<polygon fill="black" stroke="black" points="260.74,-182.2 257.24,-172.2 253.74,-182.2 260.74,-182.2"/>
</g>
<!-- :ui:image&#45;&gt;:ui:core -->
<g id="edge21" class="edge">
<title>:ui:image&#45;&gt;:ui:core</title>
<path fill="none" stroke="black" stroke-dasharray="1,5" d="M707.12,-282.15C707.12,-282.15 707.12,-175.89 707.12,-175.89"/>
<polygon fill="black" stroke="black" points="710.62,-175.89 707.12,-165.89 703.62,-175.89 710.62,-175.89"/>
</g>
<!-- :data:musicbrainz&#45;&gt;:shared:domain -->
<g id="edge22" class="edge">
<title>:data:musicbrainz&#45;&gt;:shared:domain</title>
<path fill="none" stroke="black" stroke-dasharray="1,5" d="M331.6,-298C326.7,-298 323.73,-298 323.73,-298 323.73,-298 323.73,-158 323.73,-158 323.73,-158 322.35,-158 322.35,-158"/>
<polygon fill="black" stroke="black" points="322.35,-154.5 312.35,-158 322.35,-161.5 322.35,-154.5"/>
</g>
<!-- :data:musicbrainz&#45;&gt;:core:logging:api -->
<g id="edge23" class="edge">
<title>:data:musicbrainz&#45;&gt;:core:logging:api</title>
<path fill="none" stroke="black" stroke-dasharray="1,5" d="M449.36,-274.65C449.36,-274.65 449.36,-182.21 449.36,-182.21"/>
<polygon fill="black" stroke="black" points="452.86,-182.21 449.36,-172.21 445.86,-182.21 452.86,-182.21"/>
</g>
<!-- :data:coverart&#45;&gt;:shared:domain -->
<g id="edge24" class="edge">
<title>:data:coverart&#45;&gt;:shared:domain</title>
<path fill="none" stroke="black" stroke-dasharray="1,5" d="M206.55,-274.93C206.55,-274.93 206.55,-182.29 206.55,-182.29"/>
<polygon fill="black" stroke="black" points="210.05,-182.29 206.55,-172.29 203.05,-182.29 210.05,-182.29"/>
</g>
<!-- :data:coverart&#45;&gt;:core:logging:api -->
<g id="edge25" class="edge">
<title>:data:coverart&#45;&gt;:core:logging:api</title>
<path fill="none" stroke="black" stroke-dasharray="1,5" d="M303.6,-286C311.08,-286 316.01,-286 316.01,-286 316.01,-286 316.01,-144 316.01,-144 316.01,-144 339.74,-144 339.74,-144"/>
<polygon fill="black" stroke="black" points="339.74,-147.5 349.74,-144 339.74,-140.5 339.74,-147.5"/>
</g>
<!-- :data:spotify&#45;&gt;:shared:domain -->
<g id="edge26" class="edge">
<title>:data:spotify&#45;&gt;:shared:domain</title>
<path fill="none" stroke="black" stroke-dasharray="1,5" d="M137.87,-292C145.3,-292 150.23,-292 150.23,-292 150.23,-292 150.23,-168.95 150.23,-168.95"/>
<polygon fill="black" stroke="black" points="153.73,-168.95 150.23,-158.95 146.73,-168.95 153.73,-168.95"/>
</g>
<!-- :data:spotify&#45;&gt;:core:logging:api -->
<g id="edge27" class="edge">
<title>:data:spotify&#45;&gt;:core:logging:api</title>
<path fill="none" stroke="black" stroke-dasharray="1,5" d="M68.89,-273.76C68.89,-248.52 68.89,-206 68.89,-206 68.89,-206 390.43,-206 390.43,-206 390.43,-206 390.43,-181.98 390.43,-181.98"/>
<polygon fill="black" stroke="black" points="393.93,-181.98 390.43,-171.98 386.93,-181.98 393.93,-181.98"/>
</g>
<!-- :shared:strings -->
<g id="node13" class="node">
<title>:shared:strings</title>
<ellipse fill="#b59aff" stroke="black" cx="743.89" cy="-18" rx="81.49" ry="18"/>
<text text-anchor="middle" x="743.89" y="-14.3" font-family="Times,serif" font-size="14.00">:shared:strings</text>
</g>
<!-- :ui:core&#45;&gt;:shared:strings -->
<g id="edge28" class="edge">
<title>:ui:core&#45;&gt;:shared:strings</title>
<path fill="none" stroke="black" d="M743.89,-136.81C743.89,-136.81 743.89,-46.27 743.89,-46.27"/>
<polygon fill="black" stroke="black" points="747.39,-46.27 743.89,-36.27 740.39,-46.27 747.39,-46.27"/>
</g>
</g>
</svg>
