<?xml version="1.0" encoding="UTF-8" standalone="no"?>
<!DOCTYPE svg PUBLIC "-//W3C//DTD SVG 1.1//EN"
 "http://www.w3.org/Graphics/SVG/1.1/DTD/svg11.dtd">
<!-- Generated by graphviz version 2.43.0 (0)
 -->
<!-- Title: %3 Pages: 1 -->
<svg width="894pt" height="940pt"
 viewBox="0.00 0.00 893.59 940.00" xmlns="http://www.w3.org/2000/svg" xmlns:xlink="http://www.w3.org/1999/xlink">
<g id="graph0" class="graph" transform="scale(1 1) rotate(0) translate(4 936)">
<title>%3</title>
<polygon fill="white" stroke="transparent" points="-4,4 -4,-936 889.59,-936 889.59,4 -4,4"/>
<text text-anchor="middle" x="442.79" y="-904" font-family="Times,serif" font-size="30.00">Dependencies</text>
<text text-anchor="middle" x="442.79" y="-871" font-family="Times,serif" font-size="30.00"> </text>
<!-- :shared:feature:details -->
<g id="node1" class="node">
<title>:shared:feature:details</title>
<polygon fill="#b59aff" stroke="black" points="552.04,-858 373.04,-858 373.04,-822 552.04,-822 552.04,-858"/>
<text text-anchor="middle" x="462.54" y="-836.3" font-family="Times,serif" font-size="14.00">:shared:feature:details</text>
</g>
<!-- :test&#45;data -->
<g id="node2" class="node">
<title>:test&#45;data</title>
<ellipse fill="#b59aff" stroke="black" cx="282.54" cy="-566" rx="55.49" ry="18"/>
<text text-anchor="middle" x="282.54" y="-562.3" font-family="Times,serif" font-size="14.00">:test&#45;data</text>
</g>
<!-- :shared:feature:details&#45;&gt;:test&#45;data -->
<g id="edge1" class="edge">
<title>:shared:feature:details&#45;&gt;:test&#45;data</title>
<path fill="none" stroke="#ff9ab1" stroke-dasharray="1,5" d="M372.91,-834C320.33,-834 264.13,-834 264.13,-834 264.13,-834 264.13,-593.17 264.13,-593.17"/>
<polygon fill="#ff9ab1" stroke="#ff9ab1" points="267.63,-593.17 264.13,-583.17 260.63,-593.17 267.63,-593.17"/>
</g>
<!-- :ui:test:screenshot -->
<g id="node3" class="node">
<title>:ui:test:screenshot</title>
<ellipse fill="#9affb5" stroke="black" cx="770.54" cy="-566" rx="96.68" ry="18"/>
<text text-anchor="middle" x="770.54" y="-562.3" font-family="Times,serif" font-size="14.00">:ui:test:screenshot</text>
</g>
<!-- :shared:feature:details&#45;&gt;:ui:test:screenshot -->
<g id="edge2" class="edge">
<title>:shared:feature:details&#45;&gt;:ui:test:screenshot</title>
<path fill="none" stroke="#ff9ab1" stroke-dasharray="1,5" d="M552.04,-834C642.98,-834 770.54,-834 770.54,-834 770.54,-834 770.54,-594 770.54,-594"/>
<polygon fill="#ff9ab1" stroke="#ff9ab1" points="774.04,-594 770.54,-584 767.04,-594 774.04,-594"/>
</g>
<!-- :ui:common -->
<g id="node4" class="node">
<title>:ui:common</title>
<ellipse fill="#b59aff" stroke="black" cx="522.54" cy="-703" rx="64.19" ry="18"/>
<text text-anchor="middle" x="522.54" y="-699.3" font-family="Times,serif" font-size="14.00">:ui:common</text>
</g>
<!-- :shared:feature:details&#45;&gt;:ui:common -->
<g id="edge3" class="edge">
<title>:shared:feature:details&#45;&gt;:ui:common</title>
<path fill="none" stroke="black" stroke-dasharray="1,5" d="M505.12,-821.81C505.12,-821.81 505.12,-730.4 505.12,-730.4"/>
<polygon fill="black" stroke="black" points="508.62,-730.4 505.12,-720.4 501.62,-730.4 508.62,-730.4"/>
</g>
<!-- :shared:domain -->
<g id="node5" class="node">
<title>:shared:domain</title>
<ellipse fill="#b59aff" stroke="black" cx="82.54" cy="-18" rx="82.59" ry="18"/>
<text text-anchor="middle" x="82.54" y="-14.3" font-family="Times,serif" font-size="14.00">:shared:domain</text>
</g>
<!-- :shared:feature:details&#45;&gt;:shared:domain -->
<g id="edge4" class="edge">
<title>:shared:feature:details&#45;&gt;:shared:domain</title>
<path fill="none" stroke="black" stroke-dasharray="1,5" d="M372.79,-846C241.45,-846 12.33,-846 12.33,-846 12.33,-846 12.33,-37.59 12.33,-37.59"/>
<polygon fill="black" stroke="black" points="15.83,-37.59 12.33,-27.59 8.83,-37.59 15.83,-37.59"/>
</g>
<!-- :core:logging:api -->
<g id="node6" class="node">
<title>:core:logging:api</title>
<ellipse fill="#b59aff" stroke="black" cx="697.54" cy="-18" rx="88.28" ry="18"/>
<text text-anchor="middle" x="697.54" y="-14.3" font-family="Times,serif" font-size="14.00">:core:logging:api</text>
</g>
<!-- :shared:feature:details&#45;&gt;:core:logging:api -->
<g id="edge5" class="edge">
<title>:shared:feature:details&#45;&gt;:core:logging:api</title>
<path fill="none" stroke="black" stroke-dasharray="1,5" d="M552.26,-846C676.44,-846 885.59,-846 885.59,-846 885.59,-846 885.59,-18 885.59,-18 885.59,-18 796.06,-18 796.06,-18"/>
<polygon fill="black" stroke="black" points="796.06,-14.5 786.06,-18 796.06,-21.5 796.06,-14.5"/>
</g>
<!-- :ui:image -->
<g id="node7" class="node">
<title>:ui:image</title>
<ellipse fill="#b59aff" stroke="black" cx="409.54" cy="-566" rx="53.89" ry="18"/>
<text text-anchor="middle" x="409.54" y="-562.3" font-family="Times,serif" font-size="14.00">:ui:image</text>
</g>
<!-- :shared:feature:details&#45;&gt;:ui:image -->
<g id="edge6" class="edge">
<title>:shared:feature:details&#45;&gt;:ui:image</title>
<path fill="none" stroke="black" stroke-dasharray="1,5" d="M415.62,-821.6C415.62,-821.6 415.62,-593.97 415.62,-593.97"/>
<polygon fill="black" stroke="black" points="419.12,-593.97 415.62,-583.97 412.12,-593.97 419.12,-593.97"/>
</g>
<!-- :test&#45;data&#45;&gt;:shared:domain -->
<g id="edge7" class="edge">
<title>:test&#45;data&#45;&gt;:shared:domain</title>
<path fill="none" stroke="black" stroke-dasharray="1,5" d="M230.17,-572C158.05,-572 36.99,-572 36.99,-572 36.99,-572 36.99,-43.11 36.99,-43.11"/>
<polygon fill="black" stroke="black" points="40.49,-43.11 36.99,-33.11 33.49,-43.11 40.49,-43.11"/>
</g>
<!-- :core:coroutines -->
<g id="node8" class="node">
<title>:core:coroutines</title>
<ellipse fill="#b59aff" stroke="black" cx="340.54" cy="-155" rx="85.29" ry="18"/>
<text text-anchor="middle" x="340.54" y="-151.3" font-family="Times,serif" font-size="14.00">:core:coroutines</text>
</g>
<!-- :test&#45;data&#45;&gt;:core:coroutines -->
<g id="edge8" class="edge">
<title>:test&#45;data&#45;&gt;:core:coroutines</title>
<path fill="none" stroke="black" stroke-dasharray="1,5" d="M264.13,-548.87C264.13,-496.65 264.13,-343 264.13,-343 264.13,-343 368.8,-343 368.8,-343 368.8,-343 368.8,-182.02 368.8,-182.02"/>
<polygon fill="black" stroke="black" points="372.3,-182.02 368.8,-172.02 365.3,-182.02 372.3,-182.02"/>
</g>
<!-- :data:database -->
<g id="node9" class="node">
<title>:data:database</title>
<ellipse fill="#b59aff" stroke="black" cx="270.54" cy="-292" rx="79.09" ry="18"/>
<text text-anchor="middle" x="270.54" y="-288.3" font-family="Times,serif" font-size="14.00">:data:database</text>
</g>
<!-- :test&#45;data&#45;&gt;:data:database -->
<g id="edge9" class="edge">
<title>:test&#45;data&#45;&gt;:data:database</title>
<path fill="none" stroke="black" stroke-dasharray="1,5" d="M245.71,-552.41C245.71,-552.41 245.71,-319.45 245.71,-319.45"/>
<polygon fill="black" stroke="black" points="249.21,-319.45 245.71,-309.45 242.21,-319.45 249.21,-319.45"/>
</g>
<!-- :data:musicbrainz -->
<g id="node10" class="node">
<title>:data:musicbrainz</title>
<ellipse fill="#b59aff" stroke="black" cx="575.54" cy="-155" rx="93.68" ry="18"/>
<text text-anchor="middle" x="575.54" y="-151.3" font-family="Times,serif" font-size="14.00">:data:musicbrainz</text>
</g>
<!-- :test&#45;data&#45;&gt;:data:musicbrainz -->
<g id="edge10" class="edge">
<title>:test&#45;data&#45;&gt;:data:musicbrainz</title>
<path fill="none" stroke="black" stroke-dasharray="1,5" d="M282.54,-547.88C282.54,-500.57 282.54,-377 282.54,-377 282.54,-377 491.77,-377 491.77,-377 491.77,-377 491.77,-173.16 491.77,-173.16"/>
<polygon fill="black" stroke="black" points="495.27,-173.16 491.77,-163.16 488.27,-173.16 495.27,-173.16"/>
</g>
<!-- :data:coverart -->
<g id="node11" class="node">
<title>:data:coverart</title>
<ellipse fill="#b59aff" stroke="black" cx="425.54" cy="-429" rx="76.09" ry="18"/>
<text text-anchor="middle" x="425.54" y="-425.3" font-family="Times,serif" font-size="14.00">:data:coverart</text>
</g>
<!-- :test&#45;data&#45;&gt;:data:coverart -->
<g id="edge11" class="edge">
<title>:test&#45;data&#45;&gt;:data:coverart</title>
<path fill="none" stroke="black" stroke-dasharray="1,5" d="M319.37,-552.36C319.37,-517.71 319.37,-429 319.37,-429 319.37,-429 339.23,-429 339.23,-429"/>
<polygon fill="black" stroke="black" points="339.23,-432.5 349.23,-429 339.23,-425.5 339.23,-432.5"/>
</g>
<!-- :data:spotify -->
<g id="node12" class="node">
<title>:data:spotify</title>
<ellipse fill="#b59aff" stroke="black" cx="130.54" cy="-155" rx="68.79" ry="18"/>
<text text-anchor="middle" x="130.54" y="-151.3" font-family="Times,serif" font-size="14.00">:data:spotify</text>
</g>
<!-- :test&#45;data&#45;&gt;:data:spotify -->
<g id="edge12" class="edge">
<title>:test&#45;data&#45;&gt;:data:spotify</title>
<path fill="none" stroke="black" stroke-dasharray="1,5" d="M230.13,-560C184.78,-560 126.45,-560 126.45,-560 126.45,-560 126.45,-183.19 126.45,-183.19"/>
<polygon fill="black" stroke="black" points="129.95,-183.19 126.45,-173.19 122.95,-183.19 129.95,-183.19"/>
</g>
<!-- :ui:core -->
<g id="node13" class="node">
<title>:ui:core</title>
<ellipse fill="#b59aff" stroke="black" cx="640.54" cy="-429" rx="45.49" ry="18"/>
<text text-anchor="middle" x="640.54" y="-425.3" font-family="Times,serif" font-size="14.00">:ui:core</text>
</g>
<!-- :ui:test:screenshot&#45;&gt;:ui:core -->
<g id="edge13" class="edge">
<title>:ui:test:screenshot&#45;&gt;:ui:core</title>
<path fill="none" stroke="black" stroke-dasharray="1,5" d="M679.87,-559.39C679.87,-559.39 679.87,-448.31 679.87,-448.31"/>
<polygon fill="black" stroke="black" points="683.37,-448.31 679.87,-438.31 676.37,-448.31 683.37,-448.31"/>
</g>
<!-- :test:image -->
<g id="node14" class="node">
<title>:test:image</title>
<ellipse fill="#9affb5" stroke="black" cx="804.54" cy="-429" rx="63.09" ry="18"/>
<text text-anchor="middle" x="804.54" y="-425.3" font-family="Times,serif" font-size="14.00">:test:image</text>
</g>
<!-- :ui:test:screenshot&#45;&gt;:test:image -->
<g id="edge14" class="edge">
<title>:ui:test:screenshot&#45;&gt;:test:image</title>
<path fill="none" stroke="black" stroke-dasharray="1,5" d="M804.44,-548.93C804.44,-548.93 804.44,-457.16 804.44,-457.16"/>
<polygon fill="black" stroke="black" points="807.94,-457.16 804.44,-447.16 800.94,-457.16 807.94,-457.16"/>
</g>
<!-- :ui:common&#45;&gt;:test&#45;data -->
<g id="edge15" class="edge">
<title>:ui:common&#45;&gt;:test&#45;data</title>
<path fill="none" stroke="#ff9ab1" stroke-dasharray="1,5" d="M461.7,-697C396.1,-697 300.96,-697 300.96,-697 300.96,-697 300.96,-593.13 300.96,-593.13"/>
<polygon fill="#ff9ab1" stroke="#ff9ab1" points="304.46,-593.13 300.96,-583.13 297.46,-593.13 304.46,-593.13"/>
</g>
<!-- :ui:common&#45;&gt;:ui:test:screenshot -->
<g id="edge16" class="edge">
<title>:ui:common&#45;&gt;:ui:test:screenshot</title>
<path fill="none" stroke="#ff9ab1" stroke-dasharray="1,5" d="M569.83,-690.73C569.83,-658.69 569.83,-575 569.83,-575 569.83,-575 676.58,-575 676.58,-575"/>
<polygon fill="#ff9ab1" stroke="#ff9ab1" points="676.58,-578.5 686.58,-575 676.58,-571.5 676.58,-578.5"/>
</g>
<!-- :ui:common&#45;&gt;:shared:domain -->
<g id="edge18" class="edge">
<title>:ui:common&#45;&gt;:shared:domain</title>
<path fill="none" stroke="black" d="M461.49,-709C328.54,-709 24.66,-709 24.66,-709 24.66,-709 24.66,-40.88 24.66,-40.88"/>
<polygon fill="black" stroke="black" points="28.16,-40.88 24.66,-30.88 21.16,-40.88 28.16,-40.88"/>
</g>
<!-- :ui:common&#45;&gt;:core:logging:api -->
<g id="edge22" class="edge">
<title>:ui:common&#45;&gt;:core:logging:api</title>
<path fill="none" stroke="black" stroke-dasharray="1,5" d="M552.77,-687.03C552.77,-603.74 552.77,-223 552.77,-223 552.77,-223 727.53,-223 727.53,-223 727.53,-223 727.53,-45.13 727.53,-45.13"/>
<polygon fill="black" stroke="black" points="731.03,-45.13 727.53,-35.13 724.03,-45.13 731.03,-45.13"/>
</g>
<!-- :ui:common&#45;&gt;:ui:image -->
<g id="edge23" class="edge">
<title>:ui:common&#45;&gt;:ui:image</title>
<path fill="none" stroke="black" stroke-dasharray="1,5" d="M476.19,-690.36C476.19,-656.44 476.19,-566 476.19,-566 476.19,-566 473.65,-566 473.65,-566"/>
<polygon fill="black" stroke="black" points="473.65,-562.5 463.65,-566 473.65,-569.5 473.65,-562.5"/>
</g>
<!-- :ui:common&#45;&gt;:core:coroutines -->
<g id="edge17" class="edge">
<title>:ui:common&#45;&gt;:core:coroutines</title>
<path fill="none" stroke="#ff9ab1" stroke-dasharray="1,5" d="M518.65,-684.81C518.65,-606.01 518.65,-298 518.65,-298 518.65,-298 406.72,-298 406.72,-298 406.72,-298 406.72,-176.7 406.72,-176.7"/>
<polygon fill="#ff9ab1" stroke="#ff9ab1" points="410.22,-176.7 406.72,-166.7 403.22,-176.7 410.22,-176.7"/>
</g>
<!-- :ui:common&#45;&gt;:data:musicbrainz -->
<g id="edge21" class="edge">
<title>:ui:common&#45;&gt;:data:musicbrainz</title>
<path fill="none" stroke="black" stroke-dasharray="1,5" d="M535.71,-685.08C535.71,-685.08 535.71,-181.43 535.71,-181.43"/>
<polygon fill="black" stroke="black" points="539.21,-181.43 535.71,-171.43 532.21,-181.43 539.21,-181.43"/>
</g>
<!-- :ui:common&#45;&gt;:data:coverart -->
<g id="edge20" class="edge">
<title>:ui:common&#45;&gt;:data:coverart</title>
<path fill="none" stroke="black" stroke-dasharray="1,5" d="M488.89,-687.48C488.89,-687.48 488.89,-449.09 488.89,-449.09"/>
<polygon fill="black" stroke="black" points="492.39,-449.09 488.89,-439.09 485.39,-449.09 492.39,-449.09"/>
</g>
<!-- :ui:common&#45;&gt;:ui:core -->
<g id="edge19" class="edge">
<title>:ui:common&#45;&gt;:ui:core</title>
<path fill="none" stroke="black" d="M587.21,-703C617.69,-703 647.48,-703 647.48,-703 647.48,-703 647.48,-456.98 647.48,-456.98"/>
<polygon fill="black" stroke="black" points="650.98,-456.98 647.48,-446.98 643.98,-456.98 650.98,-456.98"/>
</g>
<!-- :ui:image&#45;&gt;:shared:domain -->
<g id="edge24" class="edge">
<title>:ui:image&#45;&gt;:shared:domain</title>
<path fill="none" stroke="black" stroke-dasharray="1,5" d="M409.54,-547.87C409.54,-527.43 409.54,-497 409.54,-497 409.54,-497 49.32,-497 49.32,-497 49.32,-497 49.32,-44.49 49.32,-44.49"/>
<polygon fill="black" stroke="black" points="52.82,-44.49 49.32,-34.49 45.82,-44.49 52.82,-44.49"/>
</g>
<!-- :ui:image&#45;&gt;:ui:core -->
<g id="edge25" class="edge">
<title>:ui:image&#45;&gt;:ui:core</title>
<path fill="none" stroke="black" stroke-dasharray="1,5" d="M456.27,-557C518.62,-557 621.26,-557 621.26,-557 621.26,-557 621.26,-455.47 621.26,-455.47"/>
<polygon fill="black" stroke="black" points="624.76,-455.47 621.26,-445.47 617.76,-455.47 624.76,-455.47"/>
</g>
<!-- :data:database&#45;&gt;:shared:domain -->
<g id="edge26" class="edge">
<title>:data:database&#45;&gt;:shared:domain</title>
<path fill="none" stroke="black" stroke-dasharray="1,5" d="M227.42,-276.82C227.42,-220.13 227.42,-24 227.42,-24 227.42,-24 170.49,-24 170.49,-24"/>
<polygon fill="black" stroke="black" points="170.49,-20.5 160.49,-24 170.49,-27.5 170.49,-20.5"/>
</g>
<!-- :data:database&#45;&gt;:core:coroutines -->
<g id="edge27" class="edge">
<title>:data:database&#45;&gt;:core:coroutines</title>
<path fill="none" stroke="black" stroke-dasharray="1,5" d="M302.62,-275.47C302.62,-275.47 302.62,-181.16 302.62,-181.16"/>
<polygon fill="black" stroke="black" points="306.12,-181.16 302.62,-171.16 299.12,-181.16 306.12,-181.16"/>
</g>
<!-- :data:database&#45;&gt;:data:musicbrainz -->
<g id="edge28" class="edge">
<title>:data:database&#45;&gt;:data:musicbrainz</title>
<path fill="none" stroke="black" stroke-dasharray="1,5" d="M345.59,-286C408.07,-286 486.86,-286 486.86,-286 486.86,-286 486.86,-170.97 486.86,-170.97"/>
<polygon fill="black" stroke="black" points="490.36,-170.97 486.86,-160.97 483.36,-170.97 490.36,-170.97"/>
</g>
<!-- :data:musicbrainz&#45;&gt;:shared:domain -->
<g id="edge29" class="edge">
<title>:data:musicbrainz&#45;&gt;:shared:domain</title>
<path fill="none" stroke="black" stroke-dasharray="1,5" d="M545.55,-137.79C545.55,-98.39 545.55,-5 545.55,-5 545.55,-5 149.78,-5 149.78,-5"/>
<polygon fill="black" stroke="black" points="149.78,-1.5 139.78,-5 149.78,-8.5 149.78,-1.5"/>
</g>
<!-- :data:musicbrainz&#45;&gt;:core:logging:api -->
<g id="edge30" class="edge">
<title>:data:musicbrainz&#45;&gt;:core:logging:api</title>
<path fill="none" stroke="black" stroke-dasharray="1,5" d="M639.14,-141.61C639.14,-141.61 639.14,-41.64 639.14,-41.64"/>
<polygon fill="black" stroke="black" points="642.64,-41.64 639.14,-31.64 635.64,-41.64 642.64,-41.64"/>
</g>
<!-- :data:coverart&#45;&gt;:test&#45;data -->
<g id="edge34" class="edge">
<title>:data:coverart&#45;&gt;:test&#45;data</title>
<path fill="none" stroke="#ff9ab1" stroke-dasharray="1,5" d="M359.6,-420C329.72,-420 300.96,-420 300.96,-420 300.96,-420 300.96,-538.97 300.96,-538.97"/>
<polygon fill="#ff9ab1" stroke="#ff9ab1" points="297.46,-538.97 300.96,-548.97 304.46,-538.97 297.46,-538.97"/>
</g>
<!-- :data:coverart&#45;&gt;:shared:domain -->
<g id="edge31" class="edge">
<title>:data:coverart&#45;&gt;:shared:domain</title>
<path fill="none" stroke="black" stroke-dasharray="1,5" d="M444.44,-411.34C444.44,-332.67 444.44,-18 444.44,-18 444.44,-18 175.12,-18 175.12,-18"/>
<polygon fill="black" stroke="black" points="175.12,-14.5 165.12,-18 175.12,-21.5 175.12,-14.5"/>
</g>
<!-- :data:coverart&#45;&gt;:core:logging:api -->
<g id="edge32" class="edge">
<title>:data:coverart&#45;&gt;:core:logging:api</title>
<path fill="none" stroke="black" stroke-dasharray="1,5" d="M463.2,-413.36C463.2,-339.59 463.2,-30 463.2,-30 463.2,-30 621.64,-30 621.64,-30"/>
<polygon fill="black" stroke="black" points="621.64,-33.5 631.64,-30 621.64,-26.5 621.64,-33.5"/>
</g>
<!-- :data:coverart&#45;&gt;:core:coroutines -->
<g id="edge33" class="edge">
<title>:data:coverart&#45;&gt;:core:coroutines</title>
<path fill="none" stroke="black" stroke-dasharray="1,5" d="M387.76,-413.08C387.76,-413.08 387.76,-180.28 387.76,-180.28"/>
<polygon fill="black" stroke="black" points="391.26,-180.28 387.76,-170.28 384.26,-180.28 391.26,-180.28"/>
</g>
<!-- :data:coverart&#45;&gt;:data:database -->
<g id="edge36" class="edge">
<title>:data:coverart&#45;&gt;:data:database</title>
<path fill="none" stroke="#ff9ab1" stroke-dasharray="1,5" d="M359.43,-438C350.12,-438 343.64,-438 343.64,-438 343.64,-438 343.64,-309.04 343.64,-309.04"/>
<polygon fill="#ff9ab1" stroke="#ff9ab1" points="347.14,-309.04 343.64,-299.04 340.14,-309.04 347.14,-309.04"/>
</g>
<!-- :data:coverart&#45;&gt;:data:musicbrainz -->
<g id="edge35" class="edge">
<title>:data:coverart&#45;&gt;:data:musicbrainz</title>
<path fill="none" stroke="#ff9ab1" stroke-dasharray="1,5" d="M496.68,-422.5C496.68,-422.5 496.68,-174.79 496.68,-174.79"/>
<polygon fill="#ff9ab1" stroke="#ff9ab1" points="500.18,-174.79 496.68,-164.79 493.18,-174.79 500.18,-174.79"/>
</g>
<!-- :data:spotify&#45;&gt;:shared:domain -->
<g id="edge37" class="edge">
<title>:data:spotify&#45;&gt;:shared:domain</title>
<path fill="none" stroke="black" stroke-dasharray="1,5" d="M113.37,-137.37C113.37,-137.37 113.37,-44.7 113.37,-44.7"/>
<polygon fill="black" stroke="black" points="116.87,-44.7 113.37,-34.7 109.87,-44.7 116.87,-44.7"/>
</g>
<!-- :data:spotify&#45;&gt;:core:logging:api -->
<g id="edge38" class="edge">
<title>:data:spotify&#45;&gt;:core:logging:api</title>
<path fill="none" stroke="black" stroke-dasharray="1,5" d="M182.26,-142.81C182.26,-108.23 182.26,-12 182.26,-12 182.26,-12 604.18,-12 604.18,-12"/>
<polygon fill="black" stroke="black" points="604.18,-15.5 614.18,-12 604.18,-8.5 604.18,-15.5"/>
</g>
<!-- :shared:strings -->
<g id="node15" class="node">
<title>:shared:strings</title>
<ellipse fill="#b59aff" stroke="black" cx="714.54" cy="-292" rx="81.49" ry="18"/>
<text text-anchor="middle" x="714.54" y="-288.3" font-family="Times,serif" font-size="14.00">:shared:strings</text>
</g>
<!-- :ui:core&#45;&gt;:shared:strings -->
<g id="edge39" class="edge">
<title>:ui:core&#45;&gt;:shared:strings</title>
<path fill="none" stroke="black" d="M659.67,-412.47C659.67,-412.47 659.67,-315.31 659.67,-315.31"/>
<polygon fill="black" stroke="black" points="663.17,-315.31 659.67,-305.31 656.17,-315.31 663.17,-315.31"/>
</g>
</g>
</svg>
