<?xml version="1.0" encoding="UTF-8" standalone="no"?>
<!DOCTYPE svg PUBLIC "-//W3C//DTD SVG 1.1//EN"
 "http://www.w3.org/Graphics/SVG/1.1/DTD/svg11.dtd">
<!-- Generated by graphviz version 2.43.0 (0)
 -->
<!-- Title: %3 Pages: 1 -->
<svg width="1732pt" height="666pt"
 viewBox="0.00 0.00 1731.74 666.00" xmlns="http://www.w3.org/2000/svg" xmlns:xlink="http://www.w3.org/1999/xlink">
<g id="graph0" class="graph" transform="scale(1 1) rotate(0) translate(4 662)">
<title>%3</title>
<polygon fill="white" stroke="transparent" points="-4,4 -4,-662 1727.74,-662 1727.74,4 -4,4"/>
<text text-anchor="middle" x="861.87" y="-630" font-family="Times,serif" font-size="30.00">Dependencies</text>
<text text-anchor="middle" x="861.87" y="-597" font-family="Times,serif" font-size="30.00"> </text>
<!-- :shared:feature:details -->
<g id="node1" class="node">
<title>:shared:feature:details</title>
<polygon fill="#b59aff" stroke="black" points="963.39,-584 784.39,-584 784.39,-548 963.39,-548 963.39,-584"/>
<text text-anchor="middle" x="873.89" y="-562.3" font-family="Times,serif" font-size="14.00">:shared:feature:details</text>
</g>
<!-- :test&#45;data -->
<g id="node2" class="node">
<title>:test&#45;data</title>
<ellipse fill="#b59aff" stroke="black" cx="559.89" cy="-429" rx="55.49" ry="18"/>
<text text-anchor="middle" x="559.89" y="-425.3" font-family="Times,serif" font-size="14.00">:test&#45;data</text>
</g>
<!-- :shared:feature:details&#45;&gt;:test&#45;data -->
<g id="edge1" class="edge">
<title>:shared:feature:details&#45;&gt;:test&#45;data</title>
<path fill="none" stroke="#ff9ab1" stroke-dasharray="1,5" d="M800.45,-547.8C800.45,-512.69 800.45,-439 800.45,-439 800.45,-439 615.99,-439 615.99,-439"/>
<polygon fill="#ff9ab1" stroke="#ff9ab1" points="615.99,-435.5 605.99,-439 615.99,-442.5 615.99,-435.5"/>
</g>
<!-- :ui:test:screenshot -->
<g id="node3" class="node">
<title>:ui:test:screenshot</title>
<ellipse fill="#9affb5" stroke="black" cx="1626.89" cy="-292" rx="96.68" ry="18"/>
<text text-anchor="middle" x="1626.89" y="-288.3" font-family="Times,serif" font-size="14.00">:ui:test:screenshot</text>
</g>
<!-- :shared:feature:details&#45;&gt;:ui:test:screenshot -->
<g id="edge2" class="edge">
<title>:shared:feature:details&#45;&gt;:ui:test:screenshot</title>
<path fill="none" stroke="#ff9ab1" stroke-dasharray="1,5" d="M963.59,-576C1169.64,-576 1659.17,-576 1659.17,-576 1659.17,-576 1659.17,-319.34 1659.17,-319.34"/>
<polygon fill="#ff9ab1" stroke="#ff9ab1" points="1662.67,-319.34 1659.17,-309.34 1655.67,-319.34 1662.67,-319.34"/>
</g>
<!-- :core:models -->
<g id="node4" class="node">
<title>:core:models</title>
<ellipse fill="#b59aff" stroke="black" cx="946.89" cy="-18" rx="69.59" ry="18"/>
<text text-anchor="middle" x="946.89" y="-14.3" font-family="Times,serif" font-size="14.00">:core:models</text>
</g>
<!-- :shared:feature:details&#45;&gt;:core:models -->
<g id="edge3" class="edge">
<title>:shared:feature:details&#45;&gt;:core:models</title>
<path fill="none" stroke="black" stroke-dasharray="1,5" d="M832.55,-547.83C832.55,-502.86 832.55,-390 832.55,-390 832.55,-390 935.43,-390 935.43,-390 935.43,-390 935.43,-45.94 935.43,-45.94"/>
<polygon fill="black" stroke="black" points="938.93,-45.94 935.43,-35.94 931.93,-45.94 938.93,-45.94"/>
</g>
<!-- :core:preferences -->
<g id="node5" class="node">
<title>:core:preferences</title>
<ellipse fill="#b59aff" stroke="black" cx="1179.89" cy="-292" rx="91.78" ry="18"/>
<text text-anchor="middle" x="1179.89" y="-288.3" font-family="Times,serif" font-size="14.00">:core:preferences</text>
</g>
<!-- :shared:feature:details&#45;&gt;:core:preferences -->
<g id="edge4" class="edge">
<title>:shared:feature:details&#45;&gt;:core:preferences</title>
<path fill="none" stroke="black" stroke-dasharray="1,5" d="M963.4,-562C1063.84,-562 1212.89,-562 1212.89,-562 1212.89,-562 1212.89,-318.89 1212.89,-318.89"/>
<polygon fill="black" stroke="black" points="1216.39,-318.89 1212.89,-308.89 1209.39,-318.89 1216.39,-318.89"/>
</g>
<!-- :core:logging:api -->
<g id="node6" class="node">
<title>:core:logging:api</title>
<ellipse fill="#b59aff" stroke="black" cx="571.89" cy="-155" rx="88.28" ry="18"/>
<text text-anchor="middle" x="571.89" y="-151.3" font-family="Times,serif" font-size="14.00">:core:logging:api</text>
</g>
<!-- :shared:feature:details&#45;&gt;:core:logging:api -->
<g id="edge5" class="edge">
<title>:shared:feature:details&#45;&gt;:core:logging:api</title>
<path fill="none" stroke="black" stroke-dasharray="1,5" d="M784.25,-562C719,-562 642.02,-562 642.02,-562 642.02,-562 642.02,-176.31 642.02,-176.31"/>
<polygon fill="black" stroke="black" points="645.52,-176.31 642.02,-166.31 638.52,-176.31 645.52,-176.31"/>
</g>
<!-- :data:common:network -->
<g id="node7" class="node">
<title>:data:common:network</title>
<ellipse fill="#b59aff" stroke="black" cx="310.89" cy="-292" rx="116.98" ry="18"/>
<text text-anchor="middle" x="310.89" y="-288.3" font-family="Times,serif" font-size="14.00">:data:common:network</text>
</g>
<!-- :shared:feature:details&#45;&gt;:data:common:network -->
<g id="edge6" class="edge">
<title>:shared:feature:details&#45;&gt;:data:common:network</title>
<path fill="none" stroke="black" stroke-dasharray="1,5" d="M784.09,-569C616.28,-569 271.9,-569 271.9,-569 271.9,-569 271.9,-319.33 271.9,-319.33"/>
<polygon fill="black" stroke="black" points="275.4,-319.33 271.9,-309.33 268.4,-319.33 275.4,-319.33"/>
</g>
<!-- :data:spotify -->
<g id="node8" class="node">
<title>:data:spotify</title>
<ellipse fill="#b59aff" stroke="black" cx="68.89" cy="-292" rx="68.79" ry="18"/>
<text text-anchor="middle" x="68.89" y="-288.3" font-family="Times,serif" font-size="14.00">:data:spotify</text>
</g>
<!-- :shared:feature:details&#45;&gt;:data:spotify -->
<g id="edge7" class="edge">
<title>:shared:feature:details&#45;&gt;:data:spotify</title>
<path fill="none" stroke="black" stroke-dasharray="1,5" d="M784.11,-576C569.76,-576 45.93,-576 45.93,-576 45.93,-576 45.93,-319.34 45.93,-319.34"/>
<polygon fill="black" stroke="black" points="49.43,-319.34 45.93,-309.34 42.43,-319.34 49.43,-319.34"/>
</g>
<!-- :data:musicbrainz -->
<g id="node9" class="node">
<title>:data:musicbrainz</title>
<ellipse fill="#b59aff" stroke="black" cx="823.89" cy="-292" rx="93.68" ry="18"/>
<text text-anchor="middle" x="823.89" y="-288.3" font-family="Times,serif" font-size="14.00">:data:musicbrainz</text>
</g>
<!-- :shared:feature:details&#45;&gt;:data:musicbrainz -->
<g id="edge8" class="edge">
<title>:shared:feature:details&#45;&gt;:data:musicbrainz</title>
<path fill="none" stroke="black" stroke-dasharray="1,5" d="M816.5,-547.6C816.5,-547.6 816.5,-319.97 816.5,-319.97"/>
<polygon fill="black" stroke="black" points="820,-319.97 816.5,-309.97 813,-319.97 820,-319.97"/>
</g>
<!-- :data:database -->
<g id="node10" class="node">
<title>:data:database</title>
<ellipse fill="#b59aff" stroke="black" cx="927.89" cy="-429" rx="79.09" ry="18"/>
<text text-anchor="middle" x="927.89" y="-425.3" font-family="Times,serif" font-size="14.00">:data:database</text>
</g>
<!-- :shared:feature:details&#45;&gt;:data:database -->
<g id="edge9" class="edge">
<title>:shared:feature:details&#45;&gt;:data:database</title>
<path fill="none" stroke="black" stroke-dasharray="1,5" d="M906,-547.81C906,-547.81 906,-456.4 906,-456.4"/>
<polygon fill="black" stroke="black" points="909.5,-456.4 906,-446.4 902.5,-456.4 909.5,-456.4"/>
</g>
<!-- :ui:image -->
<g id="node11" class="node">
<title>:ui:image</title>
<ellipse fill="#b59aff" stroke="black" cx="1419.89" cy="-292" rx="53.89" ry="18"/>
<text text-anchor="middle" x="1419.89" y="-288.3" font-family="Times,serif" font-size="14.00">:ui:image</text>
</g>
<!-- :shared:feature:details&#45;&gt;:ui:image -->
<g id="edge10" class="edge">
<title>:shared:feature:details&#45;&gt;:ui:image</title>
<path fill="none" stroke="black" stroke-dasharray="1,5" d="M963.57,-569C1122.7,-569 1437.88,-569 1437.88,-569 1437.88,-569 1437.88,-319.33 1437.88,-319.33"/>
<polygon fill="black" stroke="black" points="1441.38,-319.33 1437.88,-309.33 1434.38,-319.33 1441.38,-319.33"/>
</g>
<!-- :shared:domain -->
<g id="node12" class="node">
<title>:shared:domain</title>
<ellipse fill="#b59aff" stroke="black" cx="798.89" cy="-155" rx="82.59" ry="18"/>
<text text-anchor="middle" x="798.89" y="-151.3" font-family="Times,serif" font-size="14.00">:shared:domain</text>
</g>
<!-- :shared:feature:details&#45;&gt;:shared:domain -->
<g id="edge11" class="edge">
<title>:shared:feature:details&#45;&gt;:shared:domain</title>
<path fill="none" stroke="black" stroke-dasharray="1,5" d="M784.1,-555C753.48,-555 726.81,-555 726.81,-555 726.81,-555 726.81,-174.11 726.81,-174.11"/>
<polygon fill="black" stroke="black" points="730.31,-174.11 726.81,-164.11 723.31,-174.11 730.31,-174.11"/>
</g>
<!-- :ui:common -->
<g id="node13" class="node">
<title>:ui:common</title>
<ellipse fill="#b59aff" stroke="black" cx="1089.89" cy="-429" rx="64.19" ry="18"/>
<text text-anchor="middle" x="1089.89" y="-425.3" font-family="Times,serif" font-size="14.00">:ui:common</text>
</g>
<!-- :shared:feature:details&#45;&gt;:ui:common -->
<g id="edge12" class="edge">
<title>:shared:feature:details&#45;&gt;:ui:common</title>
<path fill="none" stroke="black" stroke-dasharray="1,5" d="M963.62,-555C1022.97,-555 1089.89,-555 1089.89,-555 1089.89,-555 1089.89,-457.05 1089.89,-457.05"/>
<polygon fill="black" stroke="black" points="1093.39,-457.05 1089.89,-447.05 1086.39,-457.05 1093.39,-457.05"/>
</g>
<!-- :test&#45;data&#45;&gt;:core:models -->
<g id="edge13" class="edge">
<title>:test&#45;data&#45;&gt;:core:models</title>
<path fill="none" stroke="black" stroke-dasharray="1,5" d="M603.86,-418C644.18,-418 697.66,-418 697.66,-418 697.66,-418 697.66,-27 697.66,-27 697.66,-27 876.56,-27 876.56,-27"/>
<polygon fill="black" stroke="black" points="876.56,-30.5 886.56,-27 876.56,-23.5 876.56,-30.5"/>
</g>
<!-- :test&#45;data&#45;&gt;:data:common:network -->
<g id="edge14" class="edge">
<title>:test&#45;data&#45;&gt;:data:common:network</title>
<path fill="none" stroke="black" stroke-dasharray="1,5" d="M507.71,-423C445.52,-423 349.89,-423 349.89,-423 349.89,-423 349.89,-319.13 349.89,-319.13"/>
<polygon fill="black" stroke="black" points="353.39,-319.13 349.89,-309.13 346.39,-319.13 353.39,-319.13"/>
</g>
<!-- :test&#45;data&#45;&gt;:data:spotify -->
<g id="edge17" class="edge">
<title>:test&#45;data&#45;&gt;:data:spotify</title>
<path fill="none" stroke="black" stroke-dasharray="1,5" d="M507.57,-435C385.43,-435 91.86,-435 91.86,-435 91.86,-435 91.86,-319.25 91.86,-319.25"/>
<polygon fill="black" stroke="black" points="95.36,-319.25 91.86,-309.25 88.36,-319.25 95.36,-319.25"/>
</g>
<!-- :test&#45;data&#45;&gt;:data:musicbrainz -->
<g id="edge15" class="edge">
<title>:test&#45;data&#45;&gt;:data:musicbrainz</title>
<path fill="none" stroke="black" stroke-dasharray="1,5" d="M614.37,-432C672.82,-432 757.35,-432 757.35,-432 757.35,-432 757.35,-314.92 757.35,-314.92"/>
<polygon fill="black" stroke="black" points="760.85,-314.92 757.35,-304.92 753.85,-314.92 760.85,-314.92"/>
</g>
<!-- :test&#45;data&#45;&gt;:shared:domain -->
<g id="edge18" class="edge">
<title>:test&#45;data&#45;&gt;:shared:domain</title>
<path fill="none" stroke="black" stroke-dasharray="1,5" d="M613.86,-425C661.47,-425 723.33,-425 723.33,-425 723.33,-425 723.33,-172.5 723.33,-172.5"/>
<polygon fill="black" stroke="black" points="726.83,-172.5 723.33,-162.5 719.83,-172.5 726.83,-172.5"/>
</g>
<!-- :data:coverart -->
<g id="node14" class="node">
<title>:data:coverart</title>
<ellipse fill="#b59aff" stroke="black" cx="559.89" cy="-292" rx="76.09" ry="18"/>
<text text-anchor="middle" x="559.89" y="-288.3" font-family="Times,serif" font-size="14.00">:data:coverart</text>
</g>
<!-- :test&#45;data&#45;&gt;:data:coverart -->
<g id="edge16" class="edge">
<title>:test&#45;data&#45;&gt;:data:coverart</title>
<path fill="none" stroke="black" stroke-dasharray="1,5" d="M559.89,-410.81C559.89,-410.81 559.89,-320.27 559.89,-320.27"/>
<polygon fill="black" stroke="black" points="563.39,-320.27 559.89,-310.27 556.39,-320.27 563.39,-320.27"/>
</g>
<!-- :ui:core -->
<g id="node15" class="node">
<title>:ui:core</title>
<ellipse fill="#b59aff" stroke="black" cx="1501.89" cy="-155" rx="45.49" ry="18"/>
<text text-anchor="middle" x="1501.89" y="-151.3" font-family="Times,serif" font-size="14.00">:ui:core</text>
</g>
<!-- :ui:test:screenshot&#45;&gt;:ui:core -->
<g id="edge19" class="edge">
<title>:ui:test:screenshot&#45;&gt;:ui:core</title>
<path fill="none" stroke="black" stroke-dasharray="1,5" d="M1538.72,-284.24C1538.72,-284.24 1538.72,-175.58 1538.72,-175.58"/>
<polygon fill="black" stroke="black" points="1542.22,-175.58 1538.72,-165.58 1535.22,-175.58 1542.22,-175.58"/>
</g>
<!-- :core:preferences&#45;&gt;:core:models -->
<g id="edge21" class="edge">
<title>:core:preferences&#45;&gt;:core:models</title>
<path fill="none" stroke="black" stroke-dasharray="1,5" d="M1093.22,-286C1042.85,-286 989.25,-286 989.25,-286 989.25,-286 989.25,-42.41 989.25,-42.41"/>
<polygon fill="black" stroke="black" points="992.75,-42.41 989.25,-32.41 985.75,-42.41 992.75,-42.41"/>
</g>
<!-- :core:coroutines -->
<g id="node16" class="node">
<title>:core:coroutines</title>
<ellipse fill="#b59aff" stroke="black" cx="1096.89" cy="-155" rx="85.29" ry="18"/>
<text text-anchor="middle" x="1096.89" y="-151.3" font-family="Times,serif" font-size="14.00">:core:coroutines</text>
</g>
<!-- :core:preferences&#45;&gt;:core:coroutines -->
<g id="edge20" class="edge">
<title>:core:preferences&#45;&gt;:core:coroutines</title>
<path fill="none" stroke="black" stroke-dasharray="1,5" d="M1135.14,-276.28C1135.14,-276.28 1135.14,-181.38 1135.14,-181.38"/>
<polygon fill="black" stroke="black" points="1138.64,-181.38 1135.14,-171.38 1131.64,-181.38 1138.64,-181.38"/>
</g>
<!-- :data:common:network&#45;&gt;:core:logging:api -->
<g id="edge22" class="edge">
<title>:data:common:network&#45;&gt;:core:logging:api</title>
<path fill="none" stroke="black" stroke-dasharray="1,5" d="M310.89,-273.79C310.89,-237.79 310.89,-161 310.89,-161 310.89,-161 478.23,-161 478.23,-161"/>
<polygon fill="black" stroke="black" points="478.23,-164.5 488.23,-161 478.23,-157.5 478.23,-164.5"/>
</g>
<!-- :data:spotify&#45;&gt;:core:models -->
<g id="edge24" class="edge">
<title>:data:spotify&#45;&gt;:core:models</title>
<path fill="none" stroke="black" stroke-dasharray="1,5" d="M45.93,-274.72C45.93,-213.28 45.93,-9 45.93,-9 45.93,-9 876.38,-9 876.38,-9"/>
<polygon fill="black" stroke="black" points="876.38,-12.5 886.38,-9 876.38,-5.5 876.38,-12.5"/>
</g>
<!-- :data:spotify&#45;&gt;:core:logging:api -->
<g id="edge23" class="edge">
<title>:data:spotify&#45;&gt;:core:logging:api</title>
<path fill="none" stroke="black" stroke-dasharray="1,5" d="M91.86,-274.75C91.86,-236.72 91.86,-149 91.86,-149 91.86,-149 478.55,-149 478.55,-149"/>
<polygon fill="black" stroke="black" points="478.55,-152.5 488.55,-149 478.55,-145.5 478.55,-152.5"/>
</g>
<!-- :data:musicbrainz&#45;&gt;:core:models -->
<g id="edge26" class="edge">
<title>:data:musicbrainz&#45;&gt;:core:models</title>
<path fill="none" stroke="black" stroke-dasharray="1,5" d="M905.47,-282.88C905.47,-282.88 905.47,-42.79 905.47,-42.79"/>
<polygon fill="black" stroke="black" points="908.97,-42.79 905.47,-32.79 901.97,-42.79 908.97,-42.79"/>
</g>
<!-- :data:musicbrainz&#45;&gt;:core:logging:api -->
<g id="edge25" class="edge">
<title>:data:musicbrainz&#45;&gt;:core:logging:api</title>
<path fill="none" stroke="black" stroke-dasharray="1,5" d="M742.53,-301C698.97,-301 654.2,-301 654.2,-301 654.2,-301 654.2,-171.65 654.2,-171.65"/>
<polygon fill="black" stroke="black" points="657.7,-171.65 654.2,-161.65 650.7,-171.65 657.7,-171.65"/>
</g>
<!-- :data:database&#45;&gt;:core:models -->
<g id="edge28" class="edge">
<title>:data:database&#45;&gt;:core:models</title>
<path fill="none" stroke="black" stroke-dasharray="1,5" d="M953.37,-411.86C953.37,-411.86 953.37,-46.13 953.37,-46.13"/>
<polygon fill="black" stroke="black" points="956.87,-46.13 953.37,-36.13 949.87,-46.13 956.87,-46.13"/>
</g>
<!-- :data:database&#45;&gt;:data:musicbrainz -->
<g id="edge29" class="edge">
<title>:data:database&#45;&gt;:data:musicbrainz</title>
<path fill="none" stroke="black" stroke-dasharray="1,5" d="M883.04,-414.08C883.04,-414.08 883.04,-316.08 883.04,-316.08"/>
<polygon fill="black" stroke="black" points="886.54,-316.08 883.04,-306.08 879.54,-316.08 886.54,-316.08"/>
</g>
<!-- :data:database&#45;&gt;:core:coroutines -->
<g id="edge27" class="edge">
<title>:data:database&#45;&gt;:core:coroutines</title>
<path fill="none" stroke="black" stroke-dasharray="1,5" d="M1007.52,-429C1014.31,-429 1018.65,-429 1018.65,-429 1018.65,-429 1018.65,-172.33 1018.65,-172.33"/>
<polygon fill="black" stroke="black" points="1022.15,-172.33 1018.65,-162.33 1015.15,-172.33 1022.15,-172.33"/>
</g>
<!-- :ui:image&#45;&gt;:core:models -->
<g id="edge30" class="edge">
<title>:ui:image&#45;&gt;:core:models</title>
<path fill="none" stroke="black" stroke-dasharray="1,5" d="M1393.3,-276.08C1393.3,-217.61 1393.3,-18 1393.3,-18 1393.3,-18 1026.64,-18 1026.64,-18"/>
<polygon fill="black" stroke="black" points="1026.64,-14.5 1016.64,-18 1026.64,-21.5 1026.64,-14.5"/>
</g>
<!-- :ui:image&#45;&gt;:ui:core -->
<g id="edge31" class="edge">
<title>:ui:image&#45;&gt;:ui:core</title>
<path fill="none" stroke="black" stroke-dasharray="1,5" d="M1465.12,-282.15C1465.12,-282.15 1465.12,-175.89 1465.12,-175.89"/>
<polygon fill="black" stroke="black" points="1468.62,-175.89 1465.12,-165.89 1461.62,-175.89 1468.62,-175.89"/>
</g>
<!-- :shared:domain&#45;&gt;:core:models -->
<g id="edge32" class="edge">
<title>:shared:domain&#45;&gt;:core:models</title>
<path fill="none" stroke="black" stroke-dasharray="1,5" d="M881.48,-155C888.77,-155 893.45,-155 893.45,-155 893.45,-155 893.45,-39.68 893.45,-39.68"/>
<polygon fill="black" stroke="black" points="896.95,-39.68 893.45,-29.68 889.95,-39.68 896.95,-39.68"/>
</g>
<!-- :ui:common&#45;&gt;:ui:test:screenshot -->
<g id="edge33" class="edge">
<title>:ui:common&#45;&gt;:ui:test:screenshot</title>
<path fill="none" stroke="#ff9ab1" stroke-dasharray="1,5" d="M1145.84,-438C1277.25,-438 1594.61,-438 1594.61,-438 1594.61,-438 1594.61,-319.03 1594.61,-319.03"/>
<polygon fill="#ff9ab1" stroke="#ff9ab1" points="1598.11,-319.03 1594.61,-309.03 1591.11,-319.03 1598.11,-319.03"/>
</g>
<!-- :ui:common&#45;&gt;:core:models -->
<g id="edge34" class="edge">
<title>:ui:common&#45;&gt;:core:models</title>
<path fill="none" stroke="black" d="M1056.9,-413.53C1056.9,-385.69 1056.9,-330 1056.9,-330 1056.9,-330 971.31,-330 971.31,-330 971.31,-330 971.31,-45.22 971.31,-45.22"/>
<polygon fill="black" stroke="black" points="974.81,-45.22 971.31,-35.22 967.81,-45.22 974.81,-45.22"/>
</g>
<!-- :ui:common&#45;&gt;:core:preferences -->
<g id="edge38" class="edge">
<title>:ui:common&#45;&gt;:core:preferences</title>
<path fill="none" stroke="black" stroke-dasharray="1,5" d="M1121.25,-413.02C1121.25,-413.02 1121.25,-316.23 1121.25,-316.23"/>
<polygon fill="black" stroke="black" points="1124.75,-316.23 1121.25,-306.23 1117.75,-316.23 1124.75,-316.23"/>
</g>
<!-- :ui:common&#45;&gt;:core:logging:api -->
<g id="edge39" class="edge">
<title>:ui:common&#45;&gt;:core:logging:api</title>
<path fill="none" stroke="black" stroke-dasharray="1,5" d="M1046.45,-415.6C1046.45,-393.06 1046.45,-350 1046.45,-350 1046.45,-350 648.11,-350 648.11,-350 648.11,-350 648.11,-174.14 648.11,-174.14"/>
<polygon fill="black" stroke="black" points="651.61,-174.14 648.11,-164.14 644.61,-174.14 651.61,-174.14"/>
</g>
<!-- :ui:common&#45;&gt;:data:musicbrainz -->
<g id="edge37" class="edge">
<title>:ui:common&#45;&gt;:data:musicbrainz</title>
<path fill="none" stroke="black" stroke-dasharray="1,5" d="M1067.35,-411.87C1067.35,-376.36 1067.35,-298 1067.35,-298 1067.35,-298 922.48,-298 922.48,-298"/>
<polygon fill="black" stroke="black" points="922.48,-294.5 912.48,-298 922.48,-301.5 922.48,-294.5"/>
</g>
<!-- :ui:common&#45;&gt;:ui:image -->
<g id="edge41" class="edge">
<title>:ui:common&#45;&gt;:ui:image</title>
<path fill="none" stroke="black" stroke-dasharray="1,5" d="M1145.68,-420C1235.42,-420 1401.91,-420 1401.91,-420 1401.91,-420 1401.91,-319 1401.91,-319"/>
<polygon fill="black" stroke="black" points="1405.41,-319 1401.91,-309 1398.41,-319 1405.41,-319"/>
</g>
<!-- :ui:common&#45;&gt;:shared:domain -->
<g id="edge40" class="edge">
<title>:ui:common&#45;&gt;:shared:domain</title>
<path fill="none" stroke="black" stroke-dasharray="1,5" d="M1077.8,-411.08C1077.8,-360.96 1077.8,-223 1077.8,-223 1077.8,-223 805.87,-223 805.87,-223 805.87,-223 805.87,-183.22 805.87,-183.22"/>
<polygon fill="black" stroke="black" points="809.37,-183.22 805.87,-173.22 802.37,-183.22 809.37,-183.22"/>
</g>
<!-- :ui:common&#45;&gt;:data:coverart -->
<g id="edge36" class="edge">
<title>:ui:common&#45;&gt;:data:coverart</title>
<path fill="none" stroke="black" stroke-dasharray="1,5" d="M1036,-418.99C1036,-402.16 1036,-370 1036,-370 1036,-370 625.54,-370 625.54,-370 625.54,-370 625.54,-311.25 625.54,-311.25"/>
<polygon fill="black" stroke="black" points="629.04,-311.25 625.54,-301.25 622.04,-311.25 629.04,-311.25"/>
</g>
<!-- :ui:common&#45;&gt;:ui:core -->
<g id="edge35" class="edge">
<title>:ui:common&#45;&gt;:ui:core</title>
<path fill="none" stroke="black" d="M1154.28,-429C1270.17,-429 1501.95,-429 1501.95,-429 1501.95,-429 1501.95,-183.4 1501.95,-183.4"/>
<polygon fill="black" stroke="black" points="1505.45,-183.4 1501.95,-173.4 1498.45,-183.4 1505.45,-183.4"/>
</g>
<!-- :data:coverart&#45;&gt;:core:models -->
<g id="edge43" class="edge">
<title>:data:coverart&#45;&gt;:core:models</title>
<path fill="none" stroke="black" stroke-dasharray="1,5" d="M626.05,-283C653.46,-283 678.97,-283 678.97,-283 678.97,-283 678.97,-18 678.97,-18 678.97,-18 867.2,-18 867.2,-18"/>
<polygon fill="black" stroke="black" points="867.2,-21.5 877.2,-18 867.2,-14.5 867.2,-21.5"/>
</g>
<!-- :data:coverart&#45;&gt;:core:logging:api -->
<g id="edge42" class="edge">
<title>:data:coverart&#45;&gt;:core:logging:api</title>
<path fill="none" stroke="black" stroke-dasharray="1,5" d="M559.89,-273.81C559.89,-273.81 559.89,-183.27 559.89,-183.27"/>
<polygon fill="black" stroke="black" points="563.39,-183.27 559.89,-173.27 556.39,-183.27 563.39,-183.27"/>
</g>
<!-- :data:coverart&#45;&gt;:shared:domain -->
<g id="edge44" class="edge">
<title>:data:coverart&#45;&gt;:shared:domain</title>
<path fill="none" stroke="black" stroke-dasharray="1,5" d="M636.12,-292C677.31,-292 719.84,-292 719.84,-292 719.84,-292 719.84,-170.2 719.84,-170.2"/>
<polygon fill="black" stroke="black" points="723.34,-170.2 719.84,-160.2 716.34,-170.2 723.34,-170.2"/>
</g>
<!-- :shared:strings -->
<g id="node17" class="node">
<title>:shared:strings</title>
<ellipse fill="#b59aff" stroke="black" cx="1501.89" cy="-18" rx="81.49" ry="18"/>
<text text-anchor="middle" x="1501.89" y="-14.3" font-family="Times,serif" font-size="14.00">:shared:strings</text>
</g>
<!-- :ui:core&#45;&gt;:shared:strings -->
<g id="edge45" class="edge">
<title>:ui:core&#45;&gt;:shared:strings</title>
<path fill="none" stroke="black" d="M1501.89,-136.81C1501.89,-136.81 1501.89,-46.27 1501.89,-46.27"/>
<polygon fill="black" stroke="black" points="1505.39,-46.27 1501.89,-36.27 1498.39,-46.27 1505.39,-46.27"/>
</g>
</g>
</svg>
