<?xml version="1.0" encoding="UTF-8" standalone="no"?>
<!DOCTYPE svg PUBLIC "-//W3C//DTD SVG 1.1//EN"
 "http://www.w3.org/Graphics/SVG/1.1/DTD/svg11.dtd">
<!-- Generated by graphviz version 2.43.0 (0)
 -->
<!-- Title: %3 Pages: 1 -->
<svg width="1145pt" height="940pt"
 viewBox="0.00 0.00 1145.34 940.00" xmlns="http://www.w3.org/2000/svg" xmlns:xlink="http://www.w3.org/1999/xlink">
<g id="graph0" class="graph" transform="scale(1 1) rotate(0) translate(4 936)">
<title>%3</title>
<polygon fill="white" stroke="transparent" points="-4,4 -4,-936 1141.34,-936 1141.34,4 -4,4"/>
<text text-anchor="middle" x="568.67" y="-904" font-family="Times,serif" font-size="30.00">Dependencies</text>
<text text-anchor="middle" x="568.67" y="-871" font-family="Times,serif" font-size="30.00"> </text>
<!-- :shared:feature:details -->
<g id="node1" class="node">
<title>:shared:feature:details</title>
<polygon fill="#b59aff" stroke="black" points="886.89,-858 707.89,-858 707.89,-822 886.89,-822 886.89,-858"/>
<text text-anchor="middle" x="797.39" y="-836.3" font-family="Times,serif" font-size="14.00">:shared:feature:details</text>
</g>
<!-- :test&#45;data -->
<g id="node2" class="node">
<title>:test&#45;data</title>
<ellipse fill="#b59aff" stroke="black" cx="593.39" cy="-566" rx="55.49" ry="18"/>
<text text-anchor="middle" x="593.39" y="-562.3" font-family="Times,serif" font-size="14.00">:test&#45;data</text>
</g>
<!-- :shared:feature:details&#45;&gt;:test&#45;data -->
<g id="edge1" class="edge">
<title>:shared:feature:details&#45;&gt;:test&#45;data</title>
<path fill="none" stroke="#ff9ab1" stroke-dasharray="1,5" d="M707.62,-834C652.89,-834 593.39,-834 593.39,-834 593.39,-834 593.39,-594 593.39,-594"/>
<polygon fill="#ff9ab1" stroke="#ff9ab1" points="596.89,-594 593.39,-584 589.89,-594 596.89,-594"/>
</g>
<!-- :ui:test:screenshot -->
<g id="node3" class="node">
<title>:ui:test:screenshot</title>
<ellipse fill="#9affb5" stroke="black" cx="876.39" cy="-566" rx="96.68" ry="18"/>
<text text-anchor="middle" x="876.39" y="-562.3" font-family="Times,serif" font-size="14.00">:ui:test:screenshot</text>
</g>
<!-- :shared:feature:details&#45;&gt;:ui:test:screenshot -->
<g id="edge2" class="edge">
<title>:shared:feature:details&#45;&gt;:ui:test:screenshot</title>
<path fill="none" stroke="#ff9ab1" stroke-dasharray="1,5" d="M863.17,-821.6C863.17,-821.6 863.17,-593.97 863.17,-593.97"/>
<polygon fill="#ff9ab1" stroke="#ff9ab1" points="866.67,-593.97 863.17,-583.97 859.67,-593.97 866.67,-593.97"/>
</g>
<!-- :ui:common -->
<g id="node4" class="node">
<title>:ui:common</title>
<ellipse fill="#b59aff" stroke="black" cx="751.39" cy="-703" rx="64.19" ry="18"/>
<text text-anchor="middle" x="751.39" y="-699.3" font-family="Times,serif" font-size="14.00">:ui:common</text>
</g>
<!-- :shared:feature:details&#45;&gt;:ui:common -->
<g id="edge3" class="edge">
<title>:shared:feature:details&#45;&gt;:ui:common</title>
<path fill="none" stroke="black" stroke-dasharray="1,5" d="M761.81,-821.81C761.81,-821.81 761.81,-730.83 761.81,-730.83"/>
<polygon fill="black" stroke="black" points="765.31,-730.83 761.81,-720.83 758.31,-730.83 765.31,-730.83"/>
</g>
<!-- :shared:domain -->
<g id="node5" class="node">
<title>:shared:domain</title>
<ellipse fill="#b59aff" stroke="black" cx="638.39" cy="-18" rx="82.59" ry="18"/>
<text text-anchor="middle" x="638.39" y="-14.3" font-family="Times,serif" font-size="14.00">:shared:domain</text>
</g>
<!-- :shared:feature:details&#45;&gt;:shared:domain -->
<g id="edge4" class="edge">
<title>:shared:feature:details&#45;&gt;:shared:domain</title>
<path fill="none" stroke="black" stroke-dasharray="1,5" d="M839.46,-821.72C839.46,-771.3 839.46,-634 839.46,-634 839.46,-634 768.35,-634 768.35,-634 768.35,-634 768.35,-12 768.35,-12 768.35,-12 726.24,-12 726.24,-12"/>
<polygon fill="black" stroke="black" points="726.24,-8.5 716.24,-12 726.24,-15.5 726.24,-8.5"/>
</g>
<!-- :core:logging:api -->
<g id="node6" class="node">
<title>:core:logging:api</title>
<ellipse fill="#b59aff" stroke="black" cx="88.39" cy="-18" rx="88.28" ry="18"/>
<text text-anchor="middle" x="88.39" y="-14.3" font-family="Times,serif" font-size="14.00">:core:logging:api</text>
</g>
<!-- :shared:feature:details&#45;&gt;:core:logging:api -->
<g id="edge5" class="edge">
<title>:shared:feature:details&#45;&gt;:core:logging:api</title>
<path fill="none" stroke="black" stroke-dasharray="1,5" d="M707.76,-846C505.1,-846 29.12,-846 29.12,-846 29.12,-846 29.12,-41.68 29.12,-41.68"/>
<polygon fill="black" stroke="black" points="32.62,-41.68 29.12,-31.68 25.62,-41.68 32.62,-41.68"/>
</g>
<!-- :ui:image -->
<g id="node7" class="node">
<title>:ui:image</title>
<ellipse fill="#b59aff" stroke="black" cx="1083.39" cy="-566" rx="53.89" ry="18"/>
<text text-anchor="middle" x="1083.39" y="-562.3" font-family="Times,serif" font-size="14.00">:ui:image</text>
</g>
<!-- :shared:feature:details&#45;&gt;:ui:image -->
<g id="edge6" class="edge">
<title>:shared:feature:details&#45;&gt;:ui:image</title>
<path fill="none" stroke="black" stroke-dasharray="1,5" d="M886.95,-840C976.62,-840 1101.37,-840 1101.37,-840 1101.37,-840 1101.37,-593.14 1101.37,-593.14"/>
<polygon fill="black" stroke="black" points="1104.87,-593.14 1101.37,-583.14 1097.87,-593.14 1104.87,-593.14"/>
</g>
<!-- :test&#45;data&#45;&gt;:shared:domain -->
<g id="edge7" class="edge">
<title>:test&#45;data&#45;&gt;:shared:domain</title>
<path fill="none" stroke="black" stroke-dasharray="1,5" d="M645.89,-560C690.02,-560 745.94,-560 745.94,-560 745.94,-560 745.94,-24 745.94,-24 745.94,-24 726.27,-24 726.27,-24"/>
<polygon fill="black" stroke="black" points="726.27,-20.5 716.27,-24 726.27,-27.5 726.27,-20.5"/>
</g>
<!-- :core:coroutines -->
<g id="node8" class="node">
<title>:core:coroutines</title>
<ellipse fill="#b59aff" stroke="black" cx="638.39" cy="-155" rx="85.29" ry="18"/>
<text text-anchor="middle" x="638.39" y="-151.3" font-family="Times,serif" font-size="14.00">:core:coroutines</text>
</g>
<!-- :test&#45;data&#45;&gt;:core:coroutines -->
<g id="edge8" class="edge">
<title>:test&#45;data&#45;&gt;:core:coroutines</title>
<path fill="none" stroke="black" stroke-dasharray="1,5" d="M635.65,-554.14C635.65,-554.14 635.65,-183.02 635.65,-183.02"/>
<polygon fill="black" stroke="black" points="639.15,-183.02 635.65,-173.02 632.15,-183.02 639.15,-183.02"/>
</g>
<!-- :data:database -->
<g id="node9" class="node">
<title>:data:database</title>
<ellipse fill="#b59aff" stroke="black" cx="530.39" cy="-292" rx="79.09" ry="18"/>
<text text-anchor="middle" x="530.39" y="-288.3" font-family="Times,serif" font-size="14.00">:data:database</text>
</g>
<!-- :test&#45;data&#45;&gt;:data:database -->
<g id="edge9" class="edge">
<title>:test&#45;data&#45;&gt;:data:database</title>
<path fill="none" stroke="black" stroke-dasharray="1,5" d="M587.56,-548.02C587.56,-548.02 587.56,-314.72 587.56,-314.72"/>
<polygon fill="black" stroke="black" points="591.06,-314.72 587.56,-304.72 584.06,-314.72 591.06,-314.72"/>
</g>
<!-- :data:musicbrainz -->
<g id="node10" class="node">
<title>:data:musicbrainz</title>
<ellipse fill="#b59aff" stroke="black" cx="365.39" cy="-155" rx="93.68" ry="18"/>
<text text-anchor="middle" x="365.39" y="-151.3" font-family="Times,serif" font-size="14.00">:data:musicbrainz</text>
</g>
<!-- :test&#45;data&#45;&gt;:data:musicbrainz -->
<g id="edge10" class="edge">
<title>:test&#45;data&#45;&gt;:data:musicbrainz</title>
<path fill="none" stroke="black" stroke-dasharray="1,5" d="M541.26,-560C474.18,-560 366.17,-560 366.17,-560 366.17,-560 366.17,-183.19 366.17,-183.19"/>
<polygon fill="black" stroke="black" points="369.67,-183.19 366.17,-173.19 362.67,-183.19 369.67,-183.19"/>
</g>
<!-- :data:coverart -->
<g id="node11" class="node">
<title>:data:coverart</title>
<ellipse fill="#b59aff" stroke="black" cx="489.39" cy="-429" rx="76.09" ry="18"/>
<text text-anchor="middle" x="489.39" y="-425.3" font-family="Times,serif" font-size="14.00">:data:coverart</text>
</g>
<!-- :test&#45;data&#45;&gt;:data:coverart -->
<g id="edge11" class="edge">
<title>:test&#45;data&#45;&gt;:data:coverart</title>
<path fill="none" stroke="black" stroke-dasharray="1,5" d="M547.24,-555.7C547.24,-555.7 547.24,-450.96 547.24,-450.96"/>
<polygon fill="black" stroke="black" points="550.74,-450.96 547.24,-440.96 543.74,-450.96 550.74,-450.96"/>
</g>
<!-- :data:spotify -->
<g id="node12" class="node">
<title>:data:spotify</title>
<ellipse fill="#b59aff" stroke="black" cx="185.39" cy="-155" rx="68.79" ry="18"/>
<text text-anchor="middle" x="185.39" y="-151.3" font-family="Times,serif" font-size="14.00">:data:spotify</text>
</g>
<!-- :test&#45;data&#45;&gt;:data:spotify -->
<g id="edge12" class="edge">
<title>:test&#45;data&#45;&gt;:data:spotify</title>
<path fill="none" stroke="black" stroke-dasharray="1,5" d="M541.3,-572C431.31,-572 185.39,-572 185.39,-572 185.39,-572 185.39,-183.19 185.39,-183.19"/>
<polygon fill="black" stroke="black" points="188.89,-183.19 185.39,-173.19 181.89,-183.19 188.89,-183.19"/>
</g>
<!-- :ui:core -->
<g id="node13" class="node">
<title>:ui:core</title>
<ellipse fill="#b59aff" stroke="black" cx="1007.39" cy="-429" rx="45.49" ry="18"/>
<text text-anchor="middle" x="1007.39" y="-425.3" font-family="Times,serif" font-size="14.00">:ui:core</text>
</g>
<!-- :ui:test:screenshot&#45;&gt;:ui:core -->
<g id="edge13" class="edge">
<title>:ui:test:screenshot&#45;&gt;:ui:core</title>
<path fill="none" stroke="black" stroke-dasharray="1,5" d="M967.56,-559.76C967.56,-559.76 967.56,-448.02 967.56,-448.02"/>
<polygon fill="black" stroke="black" points="971.06,-448.02 967.56,-438.02 964.06,-448.02 971.06,-448.02"/>
</g>
<!-- :test:image -->
<g id="node14" class="node">
<title>:test:image</title>
<ellipse fill="#9affb5" stroke="black" cx="880.39" cy="-429" rx="63.09" ry="18"/>
<text text-anchor="middle" x="880.39" y="-425.3" font-family="Times,serif" font-size="14.00">:test:image</text>
</g>
<!-- :ui:test:screenshot&#45;&gt;:test:image -->
<g id="edge14" class="edge">
<title>:ui:test:screenshot&#45;&gt;:test:image</title>
<path fill="none" stroke="black" stroke-dasharray="1,5" d="M880.39,-547.81C880.39,-547.81 880.39,-457.27 880.39,-457.27"/>
<polygon fill="black" stroke="black" points="883.89,-457.27 880.39,-447.27 876.89,-457.27 883.89,-457.27"/>
</g>
<!-- :ui:common&#45;&gt;:test&#45;data -->
<g id="edge15" class="edge">
<title>:ui:common&#45;&gt;:test&#45;data</title>
<path fill="none" stroke="#ff9ab1" stroke-dasharray="1,5" d="M699.21,-692.28C699.21,-660.99 699.21,-572 699.21,-572 699.21,-572 655.68,-572 655.68,-572"/>
<polygon fill="#ff9ab1" stroke="#ff9ab1" points="655.68,-568.5 645.68,-572 655.68,-575.5 655.68,-568.5"/>
</g>
<!-- :ui:common&#45;&gt;:ui:test:screenshot -->
<g id="edge16" class="edge">
<title>:ui:common&#45;&gt;:ui:test:screenshot</title>
<path fill="none" stroke="#ff9ab1" stroke-dasharray="1,5" d="M797.64,-690.36C797.64,-690.36 797.64,-586.69 797.64,-586.69"/>
<polygon fill="#ff9ab1" stroke="#ff9ab1" points="801.14,-586.69 797.64,-576.69 794.14,-586.69 801.14,-586.69"/>
</g>
<!-- :ui:common&#45;&gt;:shared:domain -->
<g id="edge18" class="edge">
<title>:ui:common&#45;&gt;:shared:domain</title>
<path fill="none" stroke="black" d="M757.14,-685.03C757.14,-576.95 757.14,-18 757.14,-18 757.14,-18 731.19,-18 731.19,-18"/>
<polygon fill="black" stroke="black" points="731.19,-14.5 721.19,-18 731.19,-21.5 731.19,-14.5"/>
</g>
<!-- :ui:common&#45;&gt;:core:logging:api -->
<g id="edge20" class="edge">
<title>:ui:common&#45;&gt;:core:logging:api</title>
<path fill="none" stroke="black" stroke-dasharray="1,5" d="M690.49,-709C521.35,-709 58.25,-709 58.25,-709 58.25,-709 58.25,-45.08 58.25,-45.08"/>
<polygon fill="black" stroke="black" points="61.75,-45.08 58.25,-35.08 54.75,-45.08 61.75,-45.08"/>
</g>
<!-- :ui:common&#45;&gt;:ui:image -->
<g id="edge21" class="edge">
<title>:ui:common&#45;&gt;:ui:image</title>
<path fill="none" stroke="black" stroke-dasharray="1,5" d="M812.31,-709C903.63,-709 1065.41,-709 1065.41,-709 1065.41,-709 1065.41,-593.25 1065.41,-593.25"/>
<polygon fill="black" stroke="black" points="1068.91,-593.25 1065.41,-583.25 1061.91,-593.25 1068.91,-593.25"/>
</g>
<!-- :ui:common&#45;&gt;:core:coroutines -->
<g id="edge17" class="edge">
<title>:ui:common&#45;&gt;:core:coroutines</title>
<path fill="none" stroke="#ff9ab1" stroke-dasharray="1,5" d="M711.37,-688.9C711.37,-688.9 711.37,-174.41 711.37,-174.41"/>
<polygon fill="#ff9ab1" stroke="#ff9ab1" points="714.87,-174.41 711.37,-164.41 707.87,-174.41 714.87,-174.41"/>
</g>
<!-- :ui:common&#45;&gt;:data:musicbrainz -->
<g id="edge22" class="edge">
<title>:ui:common&#45;&gt;:data:musicbrainz</title>
<path fill="none" stroke="black" stroke-dasharray="1,5" d="M690.36,-697C571.16,-697 318.98,-697 318.98,-697 318.98,-697 318.98,-180.64 318.98,-180.64"/>
<polygon fill="black" stroke="black" points="322.48,-180.64 318.98,-170.64 315.48,-180.64 322.48,-180.64"/>
</g>
<!-- :ui:common&#45;&gt;:ui:core -->
<g id="edge19" class="edge">
<title>:ui:common&#45;&gt;:ui:core</title>
<path fill="none" stroke="black" d="M812.22,-697C886.2,-697 1001.34,-697 1001.34,-697 1001.34,-697 1001.34,-457 1001.34,-457"/>
<polygon fill="black" stroke="black" points="1004.84,-457 1001.34,-447 997.84,-457 1004.84,-457"/>
</g>
<!-- :ui:image&#45;&gt;:shared:domain -->
<g id="edge23" class="edge">
<title>:ui:image&#45;&gt;:shared:domain</title>
<path fill="none" stroke="black" stroke-dasharray="1,5" d="M1096.49,-548.28C1096.49,-452.92 1096.49,-5 1096.49,-5 1096.49,-5 705.48,-5 705.48,-5"/>
<polygon fill="black" stroke="black" points="705.48,-1.5 695.48,-5 705.48,-8.5 705.48,-1.5"/>
</g>
<!-- :ui:image&#45;&gt;:ui:core -->
<g id="edge24" class="edge">
<title>:ui:image&#45;&gt;:ui:core</title>
<path fill="none" stroke="black" stroke-dasharray="1,5" d="M1041.17,-554.79C1041.17,-554.79 1041.17,-451.15 1041.17,-451.15"/>
<polygon fill="black" stroke="black" points="1044.67,-451.15 1041.17,-441.15 1037.67,-451.15 1044.67,-451.15"/>
</g>
<!-- :data:database&#45;&gt;:shared:domain -->
<g id="edge25" class="edge">
<title>:data:database&#45;&gt;:shared:domain</title>
<path fill="none" stroke="black" stroke-dasharray="1,5" d="M506.12,-274.64C506.12,-214.82 506.12,-21 506.12,-21 506.12,-21 546.88,-21 546.88,-21"/>
<polygon fill="black" stroke="black" points="546.88,-24.5 556.88,-21 546.88,-17.5 546.88,-24.5"/>
</g>
<!-- :data:database&#45;&gt;:core:coroutines -->
<g id="edge26" class="edge">
<title>:data:database&#45;&gt;:core:coroutines</title>
<path fill="none" stroke="black" stroke-dasharray="1,5" d="M581.47,-278.11C581.47,-278.11 581.47,-178.52 581.47,-178.52"/>
<polygon fill="black" stroke="black" points="584.97,-178.52 581.47,-168.52 577.97,-178.52 584.97,-178.52"/>
</g>
<!-- :data:database&#45;&gt;:data:musicbrainz -->
<g id="edge27" class="edge">
<title>:data:database&#45;&gt;:data:musicbrainz</title>
<path fill="none" stroke="black" stroke-dasharray="1,5" d="M455.04,-286.11C455.04,-286.11 455.04,-170.41 455.04,-170.41"/>
<polygon fill="black" stroke="black" points="458.54,-170.41 455.04,-160.41 451.54,-170.41 458.54,-170.41"/>
</g>
<!-- :data:musicbrainz&#45;&gt;:shared:domain -->
<g id="edge28" class="edge">
<title>:data:musicbrainz&#45;&gt;:shared:domain</title>
<path fill="none" stroke="black" stroke-dasharray="1,5" d="M396.59,-137.99C396.59,-100.49 396.59,-14 396.59,-14 396.59,-14 547.88,-14 547.88,-14"/>
<polygon fill="black" stroke="black" points="547.88,-17.5 557.88,-14 547.88,-10.5 547.88,-17.5"/>
</g>
<!-- :data:musicbrainz&#45;&gt;:core:logging:api -->
<g id="edge29" class="edge">
<title>:data:musicbrainz&#45;&gt;:core:logging:api</title>
<path fill="none" stroke="black" stroke-dasharray="1,5" d="M334.19,-137.87C334.19,-103.21 334.19,-28 334.19,-28 334.19,-28 172.14,-28 172.14,-28"/>
<polygon fill="black" stroke="black" points="172.14,-24.5 162.14,-28 172.14,-31.5 172.14,-24.5"/>
</g>
<!-- :data:coverart&#45;&gt;:test&#45;data -->
<g id="edge33" class="edge">
<title>:data:coverart&#45;&gt;:test&#45;data</title>
<path fill="none" stroke="#ff9ab1" stroke-dasharray="1,5" d="M556.34,-437.57C556.34,-437.57 556.34,-542.36 556.34,-542.36"/>
<polygon fill="#ff9ab1" stroke="#ff9ab1" points="552.84,-542.36 556.34,-552.36 559.84,-542.36 552.84,-542.36"/>
</g>
<!-- :data:coverart&#45;&gt;:shared:domain -->
<g id="edge30" class="edge">
<title>:data:coverart&#45;&gt;:shared:domain</title>
<path fill="none" stroke="black" stroke-dasharray="1,5" d="M561.35,-435C633.74,-435 734.74,-435 734.74,-435 734.74,-435 734.74,-30 734.74,-30 734.74,-30 709.95,-30 709.95,-30"/>
<polygon fill="black" stroke="black" points="709.95,-26.5 699.95,-30 709.95,-33.5 709.95,-26.5"/>
</g>
<!-- :data:coverart&#45;&gt;:core:logging:api -->
<g id="edge31" class="edge">
<title>:data:coverart&#45;&gt;:core:logging:api</title>
<path fill="none" stroke="black" stroke-dasharray="1,5" d="M413.3,-429C296.75,-429 87.37,-429 87.37,-429 87.37,-429 87.37,-46.19 87.37,-46.19"/>
<polygon fill="black" stroke="black" points="90.87,-46.19 87.37,-36.19 83.87,-46.19 90.87,-46.19"/>
</g>
<!-- :data:coverart&#45;&gt;:core:coroutines -->
<g id="edge32" class="edge">
<title>:data:coverart&#45;&gt;:core:coroutines</title>
<path fill="none" stroke="black" stroke-dasharray="1,5" d="M561.1,-423C592.65,-423 622.67,-423 622.67,-423 622.67,-423 622.67,-183 622.67,-183"/>
<polygon fill="black" stroke="black" points="626.17,-183 622.67,-173 619.17,-183 626.17,-183"/>
</g>
<!-- :data:coverart&#45;&gt;:data:database -->
<g id="edge35" class="edge">
<title>:data:coverart&#45;&gt;:data:database</title>
<path fill="none" stroke="#ff9ab1" stroke-dasharray="1,5" d="M508.27,-411.37C508.27,-411.37 508.27,-319.56 508.27,-319.56"/>
<polygon fill="#ff9ab1" stroke="#ff9ab1" points="511.77,-319.56 508.27,-309.56 504.77,-319.56 511.77,-319.56"/>
</g>
<!-- :data:coverart&#45;&gt;:data:musicbrainz -->
<g id="edge34" class="edge">
<title>:data:coverart&#45;&gt;:data:musicbrainz</title>
<path fill="none" stroke="#ff9ab1" stroke-dasharray="1,5" d="M432.22,-416.87C432.22,-416.87 432.22,-177.61 432.22,-177.61"/>
<polygon fill="#ff9ab1" stroke="#ff9ab1" points="435.72,-177.61 432.22,-167.61 428.72,-177.61 435.72,-177.61"/>
</g>
<!-- :data:spotify&#45;&gt;:shared:domain -->
<g id="edge36" class="edge">
<title>:data:spotify&#45;&gt;:shared:domain</title>
<path fill="none" stroke="black" stroke-dasharray="1,5" d="M215.54,-138.6C215.54,-100.06 215.54,-7 215.54,-7 215.54,-7 562.78,-7 562.78,-7"/>
<polygon fill="black" stroke="black" points="562.78,-10.5 572.78,-7 562.78,-3.5 562.78,-10.5"/>
</g>
<!-- :data:spotify&#45;&gt;:core:logging:api -->
<g id="edge37" class="edge">
<title>:data:spotify&#45;&gt;:core:logging:api</title>
<path fill="none" stroke="black" stroke-dasharray="1,5" d="M146.64,-140.08C146.64,-140.08 146.64,-41.68 146.64,-41.68"/>
<polygon fill="black" stroke="black" points="150.14,-41.68 146.64,-31.68 143.14,-41.68 150.14,-41.68"/>
</g>
<!-- :shared:strings -->
<g id="node15" class="node">
<title>:shared:strings</title>
<ellipse fill="#b59aff" stroke="black" cx="974.39" cy="-292" rx="81.49" ry="18"/>
<text text-anchor="middle" x="974.39" y="-288.3" font-family="Times,serif" font-size="14.00">:shared:strings</text>
</g>
<!-- :ui:core&#45;&gt;:shared:strings -->
<g id="edge38" class="edge">
<title>:ui:core&#45;&gt;:shared:strings</title>
<path fill="none" stroke="black" d="M1007.39,-410.81C1007.39,-410.81 1007.39,-318.55 1007.39,-318.55"/>
<polygon fill="black" stroke="black" points="1010.89,-318.55 1007.39,-308.55 1003.89,-318.55 1010.89,-318.55"/>
</g>
</g>
</svg>
