<?xml version="1.0" encoding="UTF-8" standalone="no"?>
<!DOCTYPE svg PUBLIC "-//W3C//DTD SVG 1.1//EN"
 "http://www.w3.org/Graphics/SVG/1.1/DTD/svg11.dtd">
<!-- Generated by graphviz version 2.43.0 (0)
 -->
<!-- Title: %3 Pages: 1 -->
<svg width="855pt" height="1077pt"
 viewBox="0.00 0.00 855.23 1077.00" xmlns="http://www.w3.org/2000/svg" xmlns:xlink="http://www.w3.org/1999/xlink">
<g id="graph0" class="graph" transform="scale(1 1) rotate(0) translate(4 1073)">
<title>%3</title>
<polygon fill="white" stroke="transparent" points="-4,4 -4,-1073 851.23,-1073 851.23,4 -4,4"/>
<text text-anchor="middle" x="423.62" y="-1041" font-family="Times,serif" font-size="30.00">Dependencies</text>
<text text-anchor="middle" x="423.62" y="-1008" font-family="Times,serif" font-size="30.00"> </text>
<!-- :shared:feature:details -->
<g id="node1" class="node">
<title>:shared:feature:details</title>
<polygon fill="#b59aff" stroke="black" points="676.89,-995 497.89,-995 497.89,-959 676.89,-959 676.89,-995"/>
<text text-anchor="middle" x="587.39" y="-973.3" font-family="Times,serif" font-size="14.00">:shared:feature:details</text>
</g>
<!-- :test&#45;data -->
<g id="node2" class="node">
<title>:test&#45;data</title>
<ellipse fill="#b59aff" stroke="black" cx="424.39" cy="-703" rx="55.49" ry="18"/>
<text text-anchor="middle" x="424.39" y="-699.3" font-family="Times,serif" font-size="14.00">:test&#45;data</text>
</g>
<!-- :shared:feature:details&#45;&gt;:test&#45;data -->
<g id="edge1" class="edge">
<title>:shared:feature:details&#45;&gt;:test&#45;data</title>
<path fill="none" stroke="#ff9ab1" stroke-dasharray="1,5" d="M512.99,-958.79C512.99,-898.91 512.99,-712 512.99,-712 512.99,-712 482.32,-712 482.32,-712"/>
<polygon fill="#ff9ab1" stroke="#ff9ab1" points="482.32,-708.5 472.32,-712 482.32,-715.5 482.32,-708.5"/>
</g>
<!-- :ui:test:screenshot -->
<g id="node3" class="node">
<title>:ui:test:screenshot</title>
<ellipse fill="#9affb5" stroke="black" cx="750.39" cy="-703" rx="96.68" ry="18"/>
<text text-anchor="middle" x="750.39" y="-699.3" font-family="Times,serif" font-size="14.00">:ui:test:screenshot</text>
</g>
<!-- :shared:feature:details&#45;&gt;:ui:test:screenshot -->
<g id="edge2" class="edge">
<title>:shared:feature:details&#45;&gt;:ui:test:screenshot</title>
<path fill="none" stroke="#ff9ab1" stroke-dasharray="1,5" d="M669.11,-958.6C669.11,-958.6 669.11,-723.05 669.11,-723.05"/>
<polygon fill="#ff9ab1" stroke="#ff9ab1" points="672.61,-723.05 669.11,-713.05 665.61,-723.05 672.61,-723.05"/>
</g>
<!-- :ui:common -->
<g id="node4" class="node">
<title>:ui:common</title>
<ellipse fill="#b59aff" stroke="black" cx="587.39" cy="-840" rx="64.19" ry="18"/>
<text text-anchor="middle" x="587.39" y="-836.3" font-family="Times,serif" font-size="14.00">:ui:common</text>
</g>
<!-- :shared:feature:details&#45;&gt;:ui:common -->
<g id="edge3" class="edge">
<title>:shared:feature:details&#45;&gt;:ui:common</title>
<path fill="none" stroke="black" stroke-dasharray="1,5" d="M587.39,-958.81C587.39,-958.81 587.39,-868.27 587.39,-868.27"/>
<polygon fill="black" stroke="black" points="590.89,-868.27 587.39,-858.27 583.89,-868.27 590.89,-868.27"/>
</g>
<!-- :shared:domain -->
<g id="node5" class="node">
<title>:shared:domain</title>
<ellipse fill="#b59aff" stroke="black" cx="473.39" cy="-155" rx="82.59" ry="18"/>
<text text-anchor="middle" x="473.39" y="-151.3" font-family="Times,serif" font-size="14.00">:shared:domain</text>
</g>
<!-- :shared:feature:details&#45;&gt;:shared:domain -->
<g id="edge4" class="edge">
<title>:shared:feature:details&#45;&gt;:shared:domain</title>
<path fill="none" stroke="black" stroke-dasharray="1,5" d="M518.02,-958.68C518.02,-958.68 518.02,-180.29 518.02,-180.29"/>
<polygon fill="black" stroke="black" points="521.52,-180.29 518.02,-170.29 514.52,-180.29 521.52,-180.29"/>
</g>
<!-- :core:logging:api -->
<g id="node6" class="node">
<title>:core:logging:api</title>
<ellipse fill="#b59aff" stroke="black" cx="88.39" cy="-155" rx="88.28" ry="18"/>
<text text-anchor="middle" x="88.39" y="-151.3" font-family="Times,serif" font-size="14.00">:core:logging:api</text>
</g>
<!-- :shared:feature:details&#45;&gt;:core:logging:api -->
<g id="edge5" class="edge">
<title>:shared:feature:details&#45;&gt;:core:logging:api</title>
<path fill="none" stroke="black" stroke-dasharray="1,5" d="M497.65,-977C335.17,-977 8.95,-977 8.95,-977 8.95,-977 8.95,-173.14 8.95,-173.14"/>
<polygon fill="black" stroke="black" points="12.45,-173.14 8.95,-163.14 5.45,-173.14 12.45,-173.14"/>
</g>
<!-- :test&#45;data&#45;&gt;:shared:domain -->
<g id="edge6" class="edge">
<title>:test&#45;data&#45;&gt;:shared:domain</title>
<path fill="none" stroke="black" stroke-dasharray="1,5" d="M472.52,-694C491.09,-694 507.95,-694 507.95,-694 507.95,-694 507.95,-181.43 507.95,-181.43"/>
<polygon fill="black" stroke="black" points="511.45,-181.43 507.95,-171.43 504.45,-181.43 511.45,-181.43"/>
</g>
<!-- :core:coroutines -->
<g id="node7" class="node">
<title>:core:coroutines</title>
<ellipse fill="#b59aff" stroke="black" cx="251.39" cy="-18" rx="85.29" ry="18"/>
<text text-anchor="middle" x="251.39" y="-14.3" font-family="Times,serif" font-size="14.00">:core:coroutines</text>
</g>
<!-- :test&#45;data&#45;&gt;:core:coroutines -->
<g id="edge7" class="edge">
<title>:test&#45;data&#45;&gt;:core:coroutines</title>
<path fill="none" stroke="black" stroke-dasharray="1,5" d="M372.14,-697C349.61,-697 328.32,-697 328.32,-697 328.32,-697 328.32,-36.1 328.32,-36.1"/>
<polygon fill="black" stroke="black" points="331.82,-36.1 328.32,-26.1 324.82,-36.1 331.82,-36.1"/>
</g>
<!-- :data:database -->
<g id="node8" class="node">
<title>:data:database</title>
<ellipse fill="#b59aff" stroke="black" cx="224.39" cy="-429" rx="79.09" ry="18"/>
<text text-anchor="middle" x="224.39" y="-425.3" font-family="Times,serif" font-size="14.00">:data:database</text>
</g>
<!-- :test&#45;data&#45;&gt;:data:database -->
<g id="edge8" class="edge">
<title>:test&#45;data&#45;&gt;:data:database</title>
<path fill="none" stroke="black" stroke-dasharray="1,5" d="M435.44,-685.02C435.44,-624.06 435.44,-429 435.44,-429 435.44,-429 313.88,-429 313.88,-429"/>
<polygon fill="black" stroke="black" points="313.88,-425.5 303.88,-429 313.88,-432.5 313.88,-425.5"/>
</g>
<!-- :data:musicbrainz -->
<g id="node9" class="node">
<title>:data:musicbrainz</title>
<ellipse fill="#b59aff" stroke="black" cx="129.39" cy="-292" rx="93.68" ry="18"/>
<text text-anchor="middle" x="129.39" y="-288.3" font-family="Times,serif" font-size="14.00">:data:musicbrainz</text>
</g>
<!-- :test&#45;data&#45;&gt;:data:musicbrainz -->
<g id="edge9" class="edge">
<title>:test&#45;data&#45;&gt;:data:musicbrainz</title>
<path fill="none" stroke="black" stroke-dasharray="1,5" d="M372.05,-709C273.95,-709 72.23,-709 72.23,-709 72.23,-709 72.23,-316.35 72.23,-316.35"/>
<polygon fill="black" stroke="black" points="75.73,-316.35 72.23,-306.35 68.73,-316.35 75.73,-316.35"/>
</g>
<!-- :data:coverart -->
<g id="node10" class="node">
<title>:data:coverart</title>
<ellipse fill="#b59aff" stroke="black" cx="224.39" cy="-566" rx="76.09" ry="18"/>
<text text-anchor="middle" x="224.39" y="-562.3" font-family="Times,serif" font-size="14.00">:data:coverart</text>
</g>
<!-- :test&#45;data&#45;&gt;:data:coverart -->
<g id="edge10" class="edge">
<title>:test&#45;data&#45;&gt;:data:coverart</title>
<path fill="none" stroke="black" stroke-dasharray="1,5" d="M391.25,-688.48C391.25,-654.37 391.25,-572 391.25,-572 391.25,-572 306.12,-572 306.12,-572"/>
<polygon fill="black" stroke="black" points="306.12,-568.5 296.12,-572 306.12,-575.5 306.12,-568.5"/>
</g>
<!-- :data:spotify -->
<g id="node11" class="node">
<title>:data:spotify</title>
<ellipse fill="#b59aff" stroke="black" cx="424.39" cy="-292" rx="68.79" ry="18"/>
<text text-anchor="middle" x="424.39" y="-288.3" font-family="Times,serif" font-size="14.00">:data:spotify</text>
</g>
<!-- :test&#45;data&#45;&gt;:data:spotify -->
<g id="edge11" class="edge">
<title>:test&#45;data&#45;&gt;:data:spotify</title>
<path fill="none" stroke="black" stroke-dasharray="1,5" d="M457.54,-688.37C457.54,-688.37 457.54,-318.2 457.54,-318.2"/>
<polygon fill="black" stroke="black" points="461.04,-318.2 457.54,-308.2 454.04,-318.2 461.04,-318.2"/>
</g>
<!-- :ui:core -->
<g id="node12" class="node">
<title>:ui:core</title>
<ellipse fill="#b59aff" stroke="black" cx="623.39" cy="-566" rx="45.49" ry="18"/>
<text text-anchor="middle" x="623.39" y="-562.3" font-family="Times,serif" font-size="14.00">:ui:core</text>
</g>
<!-- :ui:test:screenshot&#45;&gt;:ui:core -->
<g id="edge12" class="edge">
<title>:ui:test:screenshot&#45;&gt;:ui:core</title>
<path fill="none" stroke="black" stroke-dasharray="1,5" d="M661.22,-695.63C661.22,-695.63 661.22,-586.28 661.22,-586.28"/>
<polygon fill="black" stroke="black" points="664.72,-586.28 661.22,-576.28 657.72,-586.28 664.72,-586.28"/>
</g>
<!-- :test:image -->
<g id="node13" class="node">
<title>:test:image</title>
<ellipse fill="#9affb5" stroke="black" cx="750.39" cy="-566" rx="63.09" ry="18"/>
<text text-anchor="middle" x="750.39" y="-562.3" font-family="Times,serif" font-size="14.00">:test:image</text>
</g>
<!-- :ui:test:screenshot&#45;&gt;:test:image -->
<g id="edge13" class="edge">
<title>:ui:test:screenshot&#45;&gt;:test:image</title>
<path fill="none" stroke="black" stroke-dasharray="1,5" d="M771.41,-685.37C771.41,-685.37 771.41,-593.13 771.41,-593.13"/>
<polygon fill="black" stroke="black" points="774.91,-593.13 771.41,-583.13 767.91,-593.13 774.91,-593.13"/>
</g>
<!-- :ui:common&#45;&gt;:test&#45;data -->
<g id="edge15" class="edge">
<title>:ui:common&#45;&gt;:test&#45;data</title>
<path fill="none" stroke="#ff9ab1" stroke-dasharray="1,5" d="M531.27,-831.01C531.27,-800.53 531.27,-703 531.27,-703 531.27,-703 489.71,-703 489.71,-703"/>
<polygon fill="#ff9ab1" stroke="#ff9ab1" points="489.71,-699.5 479.71,-703 489.71,-706.5 489.71,-699.5"/>
</g>
<!-- :ui:common&#45;&gt;:ui:test:screenshot -->
<g id="edge16" class="edge">
<title>:ui:common&#45;&gt;:ui:test:screenshot</title>
<path fill="none" stroke="#ff9ab1" stroke-dasharray="1,5" d="M651.97,-840C657.67,-840 661.33,-840 661.33,-840 661.33,-840 661.33,-720.37 661.33,-720.37"/>
<polygon fill="#ff9ab1" stroke="#ff9ab1" points="664.83,-720.37 661.33,-710.37 657.83,-720.37 664.83,-720.37"/>
</g>
<!-- :ui:common&#45;&gt;:shared:domain -->
<g id="edge18" class="edge">
<title>:ui:common&#45;&gt;:shared:domain</title>
<path fill="none" stroke="black" d="M539.49,-827.82C539.49,-827.82 539.49,-175.88 539.49,-175.88"/>
<polygon fill="black" stroke="black" points="542.99,-175.88 539.49,-165.88 535.99,-175.88 542.99,-175.88"/>
</g>
<!-- :ui:common&#45;&gt;:core:logging:api -->
<g id="edge20" class="edge">
<title>:ui:common&#45;&gt;:core:logging:api</title>
<path fill="none" stroke="black" stroke-dasharray="1,5" d="M526.72,-846C379.98,-846 17.9,-846 17.9,-846 17.9,-846 17.9,-176.13 17.9,-176.13"/>
<polygon fill="black" stroke="black" points="21.4,-176.13 17.9,-166.13 14.4,-176.13 21.4,-176.13"/>
</g>
<!-- :ui:common&#45;&gt;:core:coroutines -->
<g id="edge17" class="edge">
<title>:ui:common&#45;&gt;:core:coroutines</title>
<path fill="none" stroke="#ff9ab1" stroke-dasharray="1,5" d="M526.41,-834C447.52,-834 320.11,-834 320.11,-834 320.11,-834 320.11,-38.92 320.11,-38.92"/>
<polygon fill="#ff9ab1" stroke="#ff9ab1" points="323.61,-38.92 320.11,-28.92 316.61,-38.92 323.61,-38.92"/>
</g>
<!-- :ui:common&#45;&gt;:ui:core -->
<g id="edge19" class="edge">
<title>:ui:common&#45;&gt;:ui:core</title>
<path fill="none" stroke="black" d="M602.51,-822.44C602.51,-822.44 602.51,-592.02 602.51,-592.02"/>
<polygon fill="black" stroke="black" points="606.01,-592.02 602.51,-582.02 599.01,-592.02 606.01,-592.02"/>
</g>
<!-- :ui:common&#45;&gt;:test:image -->
<g id="edge14" class="edge">
<title>:ui:common&#45;&gt;:test:image</title>
<path fill="none" stroke="black" stroke-dasharray="1,5" d="M627.12,-825.84C627.12,-779.3 627.12,-634 627.12,-634 627.12,-634 729.38,-634 729.38,-634 729.38,-634 729.38,-593.16 729.38,-593.16"/>
<polygon fill="black" stroke="black" points="732.88,-593.16 729.38,-583.16 725.88,-593.16 732.88,-593.16"/>
</g>
<!-- :core:logging:api&#45;&gt;:core:coroutines -->
<g id="edge21" class="edge">
<title>:core:logging:api&#45;&gt;:core:coroutines</title>
<path fill="none" stroke="black" d="M171.52,-148.76C171.52,-148.76 171.52,-34.28 171.52,-34.28"/>
<polygon fill="black" stroke="black" points="175.02,-34.28 171.52,-24.28 168.02,-34.28 175.02,-34.28"/>
</g>
<!-- :data:database&#45;&gt;:shared:domain -->
<g id="edge22" class="edge">
<title>:data:database&#45;&gt;:shared:domain</title>
<path fill="none" stroke="black" stroke-dasharray="1,5" d="M276.78,-415.13C276.78,-360.6 276.78,-164 276.78,-164 276.78,-164 391.86,-164 391.86,-164"/>
<polygon fill="black" stroke="black" points="391.86,-167.5 401.86,-164 391.86,-160.5 391.86,-167.5"/>
</g>
<!-- :data:database&#45;&gt;:core:coroutines -->
<g id="edge23" class="edge">
<title>:data:database&#45;&gt;:core:coroutines</title>
<path fill="none" stroke="black" stroke-dasharray="1,5" d="M249.88,-411.86C249.88,-411.86 249.88,-46.13 249.88,-46.13"/>
<polygon fill="black" stroke="black" points="253.38,-46.13 249.88,-36.13 246.38,-46.13 253.38,-46.13"/>
</g>
<!-- :data:database&#45;&gt;:data:musicbrainz -->
<g id="edge24" class="edge">
<title>:data:database&#45;&gt;:data:musicbrainz</title>
<path fill="none" stroke="black" stroke-dasharray="1,5" d="M184.04,-413.28C184.04,-413.28 184.04,-316.7 184.04,-316.7"/>
<polygon fill="black" stroke="black" points="187.54,-316.7 184.04,-306.7 180.54,-316.7 187.54,-316.7"/>
</g>
<!-- :data:musicbrainz&#45;&gt;:shared:domain -->
<g id="edge25" class="edge">
<title>:data:musicbrainz&#45;&gt;:shared:domain</title>
<path fill="none" stroke="black" stroke-dasharray="1,5" d="M199.88,-279.84C199.88,-246.31 199.88,-155 199.88,-155 199.88,-155 380.59,-155 380.59,-155"/>
<polygon fill="black" stroke="black" points="380.59,-158.5 390.59,-155 380.59,-151.5 380.59,-158.5"/>
</g>
<!-- :data:musicbrainz&#45;&gt;:core:logging:api -->
<g id="edge26" class="edge">
<title>:data:musicbrainz&#45;&gt;:core:logging:api</title>
<path fill="none" stroke="black" stroke-dasharray="1,5" d="M106.29,-274.37C106.29,-274.37 106.29,-183 106.29,-183"/>
<polygon fill="black" stroke="black" points="109.79,-183 106.29,-173 102.79,-183 109.79,-183"/>
</g>
<!-- :data:coverart&#45;&gt;:test&#45;data -->
<g id="edge30" class="edge">
<title>:data:coverart&#45;&gt;:test&#45;data</title>
<path fill="none" stroke="#ff9ab1" stroke-dasharray="1,5" d="M300.7,-566C353.14,-566 413.34,-566 413.34,-566 413.34,-566 413.34,-675.09 413.34,-675.09"/>
<polygon fill="#ff9ab1" stroke="#ff9ab1" points="409.84,-675.09 413.34,-685.09 416.84,-675.09 409.84,-675.09"/>
</g>
<!-- :data:coverart&#45;&gt;:shared:domain -->
<g id="edge27" class="edge">
<title>:data:coverart&#45;&gt;:shared:domain</title>
<path fill="none" stroke="black" stroke-dasharray="1,5" d="M296.12,-560C378.65,-560 502.92,-560 502.92,-560 502.92,-560 502.92,-181.89 502.92,-181.89"/>
<polygon fill="black" stroke="black" points="506.42,-181.89 502.92,-171.89 499.42,-181.89 506.42,-181.89"/>
</g>
<!-- :data:coverart&#45;&gt;:core:logging:api -->
<g id="edge28" class="edge">
<title>:data:coverart&#45;&gt;:core:logging:api</title>
<path fill="none" stroke="black" stroke-dasharray="1,5" d="M152.52,-572C96.03,-572 26.85,-572 26.85,-572 26.85,-572 26.85,-177.94 26.85,-177.94"/>
<polygon fill="black" stroke="black" points="30.35,-177.94 26.85,-167.94 23.35,-177.94 30.35,-177.94"/>
</g>
<!-- :data:coverart&#45;&gt;:core:coroutines -->
<g id="edge29" class="edge">
<title>:data:coverart&#45;&gt;:core:coroutines</title>
<path fill="none" stroke="black" stroke-dasharray="1,5" d="M281.29,-554C298.01,-554 311.9,-554 311.9,-554 311.9,-554 311.9,-40.72 311.9,-40.72"/>
<polygon fill="black" stroke="black" points="315.4,-40.72 311.9,-30.72 308.4,-40.72 315.4,-40.72"/>
</g>
<!-- :data:coverart&#45;&gt;:data:database -->
<g id="edge32" class="edge">
<title>:data:coverart&#45;&gt;:data:database</title>
<path fill="none" stroke="#ff9ab1" stroke-dasharray="1,5" d="M224.39,-547.81C224.39,-547.81 224.39,-457.27 224.39,-457.27"/>
<polygon fill="#ff9ab1" stroke="#ff9ab1" points="227.89,-457.27 224.39,-447.27 220.89,-457.27 227.89,-457.27"/>
</g>
<!-- :data:coverart&#45;&gt;:data:musicbrainz -->
<g id="edge31" class="edge">
<title>:data:coverart&#45;&gt;:data:musicbrainz</title>
<path fill="none" stroke="#ff9ab1" stroke-dasharray="1,5" d="M152.42,-560C128.88,-560 108.67,-560 108.67,-560 108.67,-560 108.67,-319.58 108.67,-319.58"/>
<polygon fill="#ff9ab1" stroke="#ff9ab1" points="112.17,-319.58 108.67,-309.58 105.17,-319.58 112.17,-319.58"/>
</g>
<!-- :data:spotify&#45;&gt;:shared:domain -->
<g id="edge33" class="edge">
<title>:data:spotify&#45;&gt;:shared:domain</title>
<path fill="none" stroke="black" stroke-dasharray="1,5" d="M442.07,-274.37C442.07,-274.37 442.07,-181.7 442.07,-181.7"/>
<polygon fill="black" stroke="black" points="445.57,-181.7 442.07,-171.7 438.57,-181.7 445.57,-181.7"/>
</g>
<!-- :data:spotify&#45;&gt;:core:logging:api -->
<g id="edge34" class="edge">
<title>:data:spotify&#45;&gt;:core:logging:api</title>
<path fill="none" stroke="black" stroke-dasharray="1,5" d="M373.17,-279.8C373.17,-244.71 373.17,-146 373.17,-146 373.17,-146 175.08,-146 175.08,-146"/>
<polygon fill="black" stroke="black" points="175.08,-142.5 165.08,-146 175.08,-149.5 175.08,-142.5"/>
</g>
<!-- :ui:core&#45;&gt;:shared:domain -->
<g id="edge36" class="edge">
<title>:ui:core&#45;&gt;:shared:domain</title>
<path fill="none" stroke="black" stroke-dasharray="1,5" d="M589.1,-578C569.07,-578 547.71,-578 547.71,-578 547.71,-578 547.71,-173.07 547.71,-173.07"/>
<polygon fill="black" stroke="black" points="551.21,-173.07 547.71,-163.07 544.21,-173.07 551.21,-173.07"/>
</g>
<!-- :shared:strings -->
<g id="node14" class="node">
<title>:shared:strings</title>
<ellipse fill="#b59aff" stroke="black" cx="733.39" cy="-429" rx="81.49" ry="18"/>
<text text-anchor="middle" x="733.39" y="-425.3" font-family="Times,serif" font-size="14.00">:shared:strings</text>
</g>
<!-- :ui:core&#45;&gt;:shared:strings -->
<g id="edge35" class="edge">
<title>:ui:core&#45;&gt;:shared:strings</title>
<path fill="none" stroke="black" d="M660.52,-555.25C660.52,-555.25 660.52,-447.2 660.52,-447.2"/>
<polygon fill="black" stroke="black" points="664.02,-447.2 660.52,-437.2 657.02,-447.2 664.02,-447.2"/>
</g>
</g>
</svg>
