<?xml version="1.0" encoding="UTF-8" standalone="no"?>
<!DOCTYPE svg PUBLIC "-//W3C//DTD SVG 1.1//EN"
 "http://www.w3.org/Graphics/SVG/1.1/DTD/svg11.dtd">
<!-- Generated by graphviz version 2.43.0 (0)
 -->
<!-- Title: %3 Pages: 1 -->
<svg width="1003pt" height="1077pt"
 viewBox="0.00 0.00 1002.59 1077.00" xmlns="http://www.w3.org/2000/svg" xmlns:xlink="http://www.w3.org/1999/xlink">
<g id="graph0" class="graph" transform="scale(1 1) rotate(0) translate(4 1073)">
<title>%3</title>
<polygon fill="white" stroke="transparent" points="-4,4 -4,-1073 998.59,-1073 998.59,4 -4,4"/>
<text text-anchor="middle" x="497.29" y="-1041" font-family="Times,serif" font-size="30.00">Dependencies</text>
<text text-anchor="middle" x="497.29" y="-1008" font-family="Times,serif" font-size="30.00"> </text>
<!-- :shared:feature:details -->
<g id="node1" class="node">
<title>:shared:feature:details</title>
<polygon fill="#b59aff" stroke="black" points="689.04,-995 510.04,-995 510.04,-959 689.04,-959 689.04,-995"/>
<text text-anchor="middle" x="599.54" y="-973.3" font-family="Times,serif" font-size="14.00">:shared:feature:details</text>
</g>
<!-- :test&#45;data -->
<g id="node2" class="node">
<title>:test&#45;data</title>
<ellipse fill="#b59aff" stroke="black" cx="352.54" cy="-703" rx="55.49" ry="18"/>
<text text-anchor="middle" x="352.54" y="-699.3" font-family="Times,serif" font-size="14.00">:test&#45;data</text>
</g>
<!-- :shared:feature:details&#45;&gt;:test&#45;data -->
<g id="edge1" class="edge">
<title>:shared:feature:details&#45;&gt;:test&#45;data</title>
<path fill="none" stroke="#ff9ab1" stroke-dasharray="1,5" d="M540.74,-958.79C540.74,-898.91 540.74,-712 540.74,-712 540.74,-712 410.52,-712 410.52,-712"/>
<polygon fill="#ff9ab1" stroke="#ff9ab1" points="410.52,-708.5 400.52,-712 410.52,-715.5 410.52,-708.5"/>
</g>
<!-- :ui:test:screenshot -->
<g id="node3" class="node">
<title>:ui:test:screenshot</title>
<ellipse fill="#9affb5" stroke="black" cx="876.54" cy="-703" rx="96.68" ry="18"/>
<text text-anchor="middle" x="876.54" y="-699.3" font-family="Times,serif" font-size="14.00">:ui:test:screenshot</text>
</g>
<!-- :shared:feature:details&#45;&gt;:ui:test:screenshot -->
<g id="edge2" class="edge">
<title>:shared:feature:details&#45;&gt;:ui:test:screenshot</title>
<path fill="none" stroke="#ff9ab1" stroke-dasharray="1,5" d="M609.07,-958.87C609.07,-896.41 609.07,-694 609.07,-694 609.07,-694 782.65,-694 782.65,-694"/>
<polygon fill="#ff9ab1" stroke="#ff9ab1" points="782.65,-697.5 792.65,-694 782.65,-690.5 782.65,-697.5"/>
</g>
<!-- :ui:common -->
<g id="node4" class="node">
<title>:ui:common</title>
<ellipse fill="#b59aff" stroke="black" cx="691.54" cy="-840" rx="64.19" ry="18"/>
<text text-anchor="middle" x="691.54" y="-836.3" font-family="Times,serif" font-size="14.00">:ui:common</text>
</g>
<!-- :shared:feature:details&#45;&gt;:ui:common -->
<g id="edge3" class="edge">
<title>:shared:feature:details&#45;&gt;:ui:common</title>
<path fill="none" stroke="black" stroke-dasharray="1,5" d="M658.12,-958.81C658.12,-958.81 658.12,-865.72 658.12,-865.72"/>
<polygon fill="black" stroke="black" points="661.62,-865.72 658.12,-855.72 654.62,-865.72 661.62,-865.72"/>
</g>
<!-- :shared:domain -->
<g id="node5" class="node">
<title>:shared:domain</title>
<ellipse fill="#b59aff" stroke="black" cx="82.54" cy="-155" rx="82.59" ry="18"/>
<text text-anchor="middle" x="82.54" y="-151.3" font-family="Times,serif" font-size="14.00">:shared:domain</text>
</g>
<!-- :shared:feature:details&#45;&gt;:shared:domain -->
<g id="edge4" class="edge">
<title>:shared:feature:details&#45;&gt;:shared:domain</title>
<path fill="none" stroke="black" stroke-dasharray="1,5" d="M509.97,-977C349.21,-977 28.31,-977 28.31,-977 28.31,-977 28.31,-178.58 28.31,-178.58"/>
<polygon fill="black" stroke="black" points="31.81,-178.58 28.31,-168.58 24.81,-178.58 31.81,-178.58"/>
</g>
<!-- :core:logging:api -->
<g id="node6" class="node">
<title>:core:logging:api</title>
<ellipse fill="#b59aff" stroke="black" cx="502.54" cy="-155" rx="88.28" ry="18"/>
<text text-anchor="middle" x="502.54" y="-151.3" font-family="Times,serif" font-size="14.00">:core:logging:api</text>
</g>
<!-- :shared:feature:details&#45;&gt;:core:logging:api -->
<g id="edge5" class="edge">
<title>:shared:feature:details&#45;&gt;:core:logging:api</title>
<path fill="none" stroke="black" stroke-dasharray="1,5" d="M577.94,-958.68C577.94,-958.68 577.94,-174.43 577.94,-174.43"/>
<polygon fill="black" stroke="black" points="581.44,-174.43 577.94,-164.43 574.44,-174.43 581.44,-174.43"/>
</g>
<!-- :test&#45;data&#45;&gt;:shared:domain -->
<g id="edge6" class="edge">
<title>:test&#45;data&#45;&gt;:shared:domain</title>
<path fill="none" stroke="black" stroke-dasharray="1,5" d="M387.35,-688.78C387.35,-603.27 387.35,-161 387.35,-161 387.35,-161 170.64,-161 170.64,-161"/>
<polygon fill="black" stroke="black" points="170.64,-157.5 160.64,-161 170.64,-164.5 170.64,-157.5"/>
</g>
<!-- :core:coroutines -->
<g id="node7" class="node">
<title>:core:coroutines</title>
<ellipse fill="#b59aff" stroke="black" cx="502.54" cy="-18" rx="85.29" ry="18"/>
<text text-anchor="middle" x="502.54" y="-14.3" font-family="Times,serif" font-size="14.00">:core:coroutines</text>
</g>
<!-- :test&#45;data&#45;&gt;:core:coroutines -->
<g id="edge7" class="edge">
<title>:test&#45;data&#45;&gt;:core:coroutines</title>
<path fill="none" stroke="black" stroke-dasharray="1,5" d="M392.46,-690.4C392.46,-597.86 392.46,-27 392.46,-27 392.46,-27 418.51,-27 418.51,-27"/>
<polygon fill="black" stroke="black" points="418.51,-30.5 428.51,-27 418.51,-23.5 418.51,-30.5"/>
</g>
<!-- :data:database -->
<g id="node8" class="node">
<title>:data:database</title>
<ellipse fill="#b59aff" stroke="black" cx="192.54" cy="-429" rx="79.09" ry="18"/>
<text text-anchor="middle" x="192.54" y="-425.3" font-family="Times,serif" font-size="14.00">:data:database</text>
</g>
<!-- :test&#45;data&#45;&gt;:data:database -->
<g id="edge8" class="edge">
<title>:test&#45;data&#45;&gt;:data:database</title>
<path fill="none" stroke="black" stroke-dasharray="1,5" d="M345.2,-685.02C345.2,-624.06 345.2,-429 345.2,-429 345.2,-429 282,-429 282,-429"/>
<polygon fill="black" stroke="black" points="282,-425.5 272,-429 282,-432.5 282,-425.5"/>
</g>
<!-- :data:musicbrainz -->
<g id="node9" class="node">
<title>:data:musicbrainz</title>
<ellipse fill="#b59aff" stroke="black" cx="283.54" cy="-292" rx="93.68" ry="18"/>
<text text-anchor="middle" x="283.54" y="-288.3" font-family="Times,serif" font-size="14.00">:data:musicbrainz</text>
</g>
<!-- :test&#45;data&#45;&gt;:data:musicbrainz -->
<g id="edge9" class="edge">
<title>:test&#45;data&#45;&gt;:data:musicbrainz</title>
<path fill="none" stroke="black" stroke-dasharray="1,5" d="M361.17,-685.08C361.17,-685.08 361.17,-312.19 361.17,-312.19"/>
<polygon fill="black" stroke="black" points="364.67,-312.19 361.17,-302.19 357.67,-312.19 364.67,-312.19"/>
</g>
<!-- :data:coverart -->
<g id="node10" class="node">
<title>:data:coverart</title>
<ellipse fill="#b59aff" stroke="black" cx="210.54" cy="-566" rx="76.09" ry="18"/>
<text text-anchor="middle" x="210.54" y="-562.3" font-family="Times,serif" font-size="14.00">:data:coverart</text>
</g>
<!-- :test&#45;data&#45;&gt;:data:coverart -->
<g id="edge10" class="edge">
<title>:test&#45;data&#45;&gt;:data:coverart</title>
<path fill="none" stroke="black" stroke-dasharray="1,5" d="M313.26,-689.96C313.26,-656.83 313.26,-572 313.26,-572 313.26,-572 292.44,-572 292.44,-572"/>
<polygon fill="black" stroke="black" points="292.44,-568.5 282.44,-572 292.44,-575.5 292.44,-568.5"/>
</g>
<!-- :data:spotify -->
<g id="node11" class="node">
<title>:data:spotify</title>
<ellipse fill="#b59aff" stroke="black" cx="502.54" cy="-292" rx="68.79" ry="18"/>
<text text-anchor="middle" x="502.54" y="-288.3" font-family="Times,serif" font-size="14.00">:data:spotify</text>
</g>
<!-- :test&#45;data&#45;&gt;:data:spotify -->
<g id="edge11" class="edge">
<title>:test&#45;data&#45;&gt;:data:spotify</title>
<path fill="none" stroke="black" stroke-dasharray="1,5" d="M402.68,-695.33C402.68,-639.75 402.68,-301 402.68,-301 402.68,-301 432.72,-301 432.72,-301"/>
<polygon fill="black" stroke="black" points="432.72,-304.5 442.72,-301 432.72,-297.5 432.72,-304.5"/>
</g>
<!-- :ui:core -->
<g id="node12" class="node">
<title>:ui:core</title>
<ellipse fill="#b59aff" stroke="black" cx="804.54" cy="-566" rx="45.49" ry="18"/>
<text text-anchor="middle" x="804.54" y="-562.3" font-family="Times,serif" font-size="14.00">:ui:core</text>
</g>
<!-- :ui:test:screenshot&#45;&gt;:ui:core -->
<g id="edge12" class="edge">
<title>:ui:test:screenshot&#45;&gt;:ui:core</title>
<path fill="none" stroke="black" stroke-dasharray="1,5" d="M814.87,-689.11C814.87,-689.11 814.87,-593.8 814.87,-593.8"/>
<polygon fill="black" stroke="black" points="818.37,-593.8 814.87,-583.8 811.37,-593.8 818.37,-593.8"/>
</g>
<!-- :test:image -->
<g id="node13" class="node">
<title>:test:image</title>
<ellipse fill="#9affb5" stroke="black" cx="931.54" cy="-566" rx="63.09" ry="18"/>
<text text-anchor="middle" x="931.54" y="-562.3" font-family="Times,serif" font-size="14.00">:test:image</text>
</g>
<!-- :ui:test:screenshot&#45;&gt;:test:image -->
<g id="edge13" class="edge">
<title>:ui:test:screenshot&#45;&gt;:test:image</title>
<path fill="none" stroke="black" stroke-dasharray="1,5" d="M920.94,-686.75C920.94,-686.75 920.94,-593.97 920.94,-593.97"/>
<polygon fill="black" stroke="black" points="924.44,-593.97 920.94,-583.97 917.44,-593.97 924.44,-593.97"/>
</g>
<!-- :ui:common&#45;&gt;:test&#45;data -->
<g id="edge14" class="edge">
<title>:ui:common&#45;&gt;:test&#45;data</title>
<path fill="none" stroke="#ff9ab1" stroke-dasharray="1,5" d="M626.98,-840C528.62,-840 352.54,-840 352.54,-840 352.54,-840 352.54,-731.19 352.54,-731.19"/>
<polygon fill="#ff9ab1" stroke="#ff9ab1" points="356.04,-731.19 352.54,-721.19 349.04,-731.19 356.04,-731.19"/>
</g>
<!-- :ui:common&#45;&gt;:ui:test:screenshot -->
<g id="edge15" class="edge">
<title>:ui:common&#45;&gt;:ui:test:screenshot</title>
<path fill="none" stroke="#ff9ab1" stroke-dasharray="1,5" d="M751.02,-833.02C751.02,-805.1 751.02,-703 751.02,-703 751.02,-703 769.51,-703 769.51,-703"/>
<polygon fill="#ff9ab1" stroke="#ff9ab1" points="769.51,-706.5 779.51,-703 769.51,-699.5 769.51,-706.5"/>
</g>
<!-- :ui:common&#45;&gt;:shared:domain -->
<g id="edge17" class="edge">
<title>:ui:common&#45;&gt;:shared:domain</title>
<path fill="none" stroke="black" d="M635.75,-849C480.82,-849 56.62,-849 56.62,-849 56.62,-849 56.62,-182.16 56.62,-182.16"/>
<polygon fill="black" stroke="black" points="60.12,-182.16 56.62,-172.16 53.12,-182.16 60.12,-182.16"/>
</g>
<!-- :ui:common&#45;&gt;:core:logging:api -->
<g id="edge19" class="edge">
<title>:ui:common&#45;&gt;:core:logging:api</title>
<path fill="none" stroke="black" stroke-dasharray="1,5" d="M635.79,-831C609.77,-831 584.44,-831 584.44,-831 584.44,-831 584.44,-172.13 584.44,-172.13"/>
<polygon fill="black" stroke="black" points="587.94,-172.13 584.44,-162.13 580.94,-172.13 587.94,-172.13"/>
</g>
<!-- :ui:common&#45;&gt;:core:coroutines -->
<g id="edge16" class="edge">
<title>:ui:common&#45;&gt;:core:coroutines</title>
<path fill="none" stroke="#ff9ab1" stroke-dasharray="1,5" d="M684.25,-822.07C684.25,-701.86 684.25,-18 684.25,-18 684.25,-18 597.81,-18 597.81,-18"/>
<polygon fill="#ff9ab1" stroke="#ff9ab1" points="597.81,-14.5 587.81,-18 597.81,-21.5 597.81,-14.5"/>
</g>
<!-- :ui:common&#45;&gt;:ui:core -->
<g id="edge18" class="edge">
<title>:ui:common&#45;&gt;:ui:core</title>
<path fill="none" stroke="black" d="M746.16,-830.36C746.16,-783.1 746.16,-578 746.16,-578 746.16,-578 760.58,-578 760.58,-578"/>
<polygon fill="black" stroke="black" points="760.58,-581.5 770.58,-578 760.58,-574.5 760.58,-581.5"/>
</g>
<!-- :core:logging:api&#45;&gt;:core:coroutines -->
<g id="edge20" class="edge">
<title>:core:logging:api&#45;&gt;:core:coroutines</title>
<path fill="none" stroke="black" d="M502.54,-136.81C502.54,-136.81 502.54,-46.27 502.54,-46.27"/>
<polygon fill="black" stroke="black" points="506.04,-46.27 502.54,-36.27 499.04,-46.27 506.04,-46.27"/>
</g>
<!-- :data:database&#45;&gt;:shared:domain -->
<g id="edge21" class="edge">
<title>:data:database&#45;&gt;:shared:domain</title>
<path fill="none" stroke="black" stroke-dasharray="1,5" d="M130.53,-417.58C130.53,-417.58 130.53,-179.7 130.53,-179.7"/>
<polygon fill="black" stroke="black" points="134.03,-179.7 130.53,-169.7 127.03,-179.7 134.03,-179.7"/>
</g>
<!-- :data:database&#45;&gt;:core:coroutines -->
<g id="edge22" class="edge">
<title>:data:database&#45;&gt;:core:coroutines</title>
<path fill="none" stroke="black" stroke-dasharray="1,5" d="M177.52,-411.22C177.52,-331.28 177.52,-9 177.52,-9 177.52,-9 418.79,-9 418.79,-9"/>
<polygon fill="black" stroke="black" points="418.79,-12.5 428.79,-9 418.79,-5.5 418.79,-12.5"/>
</g>
<!-- :data:database&#45;&gt;:data:musicbrainz -->
<g id="edge23" class="edge">
<title>:data:database&#45;&gt;:data:musicbrainz</title>
<path fill="none" stroke="black" stroke-dasharray="1,5" d="M230.89,-413.02C230.89,-413.02 230.89,-317.05 230.89,-317.05"/>
<polygon fill="black" stroke="black" points="234.39,-317.05 230.89,-307.05 227.39,-317.05 234.39,-317.05"/>
</g>
<!-- :data:musicbrainz&#45;&gt;:shared:domain -->
<g id="edge24" class="edge">
<title>:data:musicbrainz&#45;&gt;:shared:domain</title>
<path fill="none" stroke="black" stroke-dasharray="1,5" d="M189.64,-292C166.3,-292 147.81,-292 147.81,-292 147.81,-292 147.81,-176.21 147.81,-176.21"/>
<polygon fill="black" stroke="black" points="151.31,-176.21 147.81,-166.21 144.31,-176.21 151.31,-176.21"/>
</g>
<!-- :data:musicbrainz&#45;&gt;:core:logging:api -->
<g id="edge25" class="edge">
<title>:data:musicbrainz&#45;&gt;:core:logging:api</title>
<path fill="none" stroke="black" stroke-dasharray="1,5" d="M364.88,-283C394.41,-283 420.65,-283 420.65,-283 420.65,-283 420.65,-171.88 420.65,-171.88"/>
<polygon fill="black" stroke="black" points="424.15,-171.88 420.65,-161.88 417.15,-171.88 424.15,-171.88"/>
</g>
<!-- :data:coverart&#45;&gt;:test&#45;data -->
<g id="edge29" class="edge">
<title>:data:coverart&#45;&gt;:test&#45;data</title>
<path fill="none" stroke="#ff9ab1" stroke-dasharray="1,5" d="M286.72,-566C309.83,-566 329.23,-566 329.23,-566 329.23,-566 329.23,-676.47 329.23,-676.47"/>
<polygon fill="#ff9ab1" stroke="#ff9ab1" points="325.73,-676.47 329.23,-686.47 332.73,-676.47 325.73,-676.47"/>
</g>
<!-- :data:coverart&#45;&gt;:shared:domain -->
<g id="edge26" class="edge">
<title>:data:coverart&#45;&gt;:shared:domain</title>
<path fill="none" stroke="black" stroke-dasharray="1,5" d="M134.22,-566C107.92,-566 84.94,-566 84.94,-566 84.94,-566 84.94,-183.19 84.94,-183.19"/>
<polygon fill="black" stroke="black" points="88.44,-183.19 84.94,-173.19 81.44,-183.19 88.44,-183.19"/>
</g>
<!-- :data:coverart&#45;&gt;:core:logging:api -->
<g id="edge27" class="edge">
<title>:data:coverart&#45;&gt;:core:logging:api</title>
<path fill="none" stroke="black" stroke-dasharray="1,5" d="M282.37,-560C345.42,-560 427.15,-560 427.15,-560 427.15,-560 427.15,-174.61 427.15,-174.61"/>
<polygon fill="black" stroke="black" points="430.65,-174.61 427.15,-164.61 423.65,-174.61 430.65,-174.61"/>
</g>
<!-- :data:coverart&#45;&gt;:core:coroutines -->
<g id="edge28" class="edge">
<title>:data:coverart&#45;&gt;:core:coroutines</title>
<path fill="none" stroke="black" stroke-dasharray="1,5" d="M267.24,-554C317.25,-554 382.24,-554 382.24,-554 382.24,-554 382.24,-18 382.24,-18 382.24,-18 407.36,-18 407.36,-18"/>
<polygon fill="black" stroke="black" points="407.36,-21.5 417.36,-18 407.36,-14.5 407.36,-21.5"/>
</g>
<!-- :data:coverart&#45;&gt;:data:database -->
<g id="edge31" class="edge">
<title>:data:coverart&#45;&gt;:data:database</title>
<path fill="none" stroke="#ff9ab1" stroke-dasharray="1,5" d="M203.17,-547.81C203.17,-547.81 203.17,-457.27 203.17,-457.27"/>
<polygon fill="#ff9ab1" stroke="#ff9ab1" points="206.67,-457.27 203.17,-447.27 199.67,-457.27 206.67,-457.27"/>
</g>
<!-- :data:coverart&#45;&gt;:data:musicbrainz -->
<g id="edge30" class="edge">
<title>:data:coverart&#45;&gt;:data:musicbrainz</title>
<path fill="none" stroke="#ff9ab1" stroke-dasharray="1,5" d="M279.21,-558.1C279.21,-558.1 279.21,-320.34 279.21,-320.34"/>
<polygon fill="#ff9ab1" stroke="#ff9ab1" points="282.71,-320.34 279.21,-310.34 275.71,-320.34 282.71,-320.34"/>
</g>
<!-- :data:spotify&#45;&gt;:shared:domain -->
<g id="edge32" class="edge">
<title>:data:spotify&#45;&gt;:shared:domain</title>
<path fill="none" stroke="black" stroke-dasharray="1,5" d="M433.4,-292C413.75,-292 397.57,-292 397.57,-292 397.57,-292 397.57,-149 397.57,-149 397.57,-149 170.41,-149 170.41,-149"/>
<polygon fill="black" stroke="black" points="170.41,-145.5 160.41,-149 170.41,-152.5 170.41,-145.5"/>
</g>
<!-- :data:spotify&#45;&gt;:core:logging:api -->
<g id="edge33" class="edge">
<title>:data:spotify&#45;&gt;:core:logging:api</title>
<path fill="none" stroke="black" stroke-dasharray="1,5" d="M502.54,-273.81C502.54,-273.81 502.54,-183.27 502.54,-183.27"/>
<polygon fill="black" stroke="black" points="506.04,-183.27 502.54,-173.27 499.04,-183.27 506.04,-183.27"/>
</g>
<!-- :shared:strings -->
<g id="node14" class="node">
<title>:shared:strings</title>
<ellipse fill="#b59aff" stroke="black" cx="822.54" cy="-429" rx="81.49" ry="18"/>
<text text-anchor="middle" x="822.54" y="-425.3" font-family="Times,serif" font-size="14.00">:shared:strings</text>
</g>
<!-- :ui:core&#45;&gt;:shared:strings -->
<g id="edge34" class="edge">
<title>:ui:core&#45;&gt;:shared:strings</title>
<path fill="none" stroke="black" d="M804.54,-547.81C804.54,-547.81 804.54,-456.83 804.54,-456.83"/>
<polygon fill="black" stroke="black" points="808.04,-456.83 804.54,-446.83 801.04,-456.83 808.04,-456.83"/>
</g>
</g>
</svg>
