<?xml version="1.0" encoding="UTF-8" standalone="no"?>
<!DOCTYPE svg PUBLIC "-//W3C//DTD SVG 1.1//EN"
 "http://www.w3.org/Graphics/SVG/1.1/DTD/svg11.dtd">
<!-- Generated by graphviz version 2.43.0 (0)
 -->
<!-- Title: %3 Pages: 1 -->
<svg width="1162pt" height="1077pt"
 viewBox="0.00 0.00 1161.74 1077.00" xmlns="http://www.w3.org/2000/svg" xmlns:xlink="http://www.w3.org/1999/xlink">
<g id="graph0" class="graph" transform="scale(1 1) rotate(0) translate(4 1073)">
<title>%3</title>
<polygon fill="white" stroke="transparent" points="-4,4 -4,-1073 1157.74,-1073 1157.74,4 -4,4"/>
<text text-anchor="middle" x="576.87" y="-1041" font-family="Times,serif" font-size="30.00">Dependencies</text>
<text text-anchor="middle" x="576.87" y="-1008" font-family="Times,serif" font-size="30.00"> </text>
<!-- :shared:feature:details -->
<g id="node1" class="node">
<title>:shared:feature:details</title>
<polygon fill="#b59aff" stroke="black" points="689.39,-995 510.39,-995 510.39,-959 689.39,-959 689.39,-995"/>
<text text-anchor="middle" x="599.89" y="-973.3" font-family="Times,serif" font-size="14.00">:shared:feature:details</text>
</g>
<!-- :test&#45;data -->
<g id="node2" class="node">
<title>:test&#45;data</title>
<ellipse fill="#b59aff" stroke="black" cx="416.89" cy="-703" rx="55.49" ry="18"/>
<text text-anchor="middle" x="416.89" y="-699.3" font-family="Times,serif" font-size="14.00">:test&#45;data</text>
</g>
<!-- :shared:feature:details&#45;&gt;:test&#45;data -->
<g id="edge1" class="edge">
<title>:shared:feature:details&#45;&gt;:test&#45;data</title>
<path fill="none" stroke="#ff9ab1" stroke-dasharray="1,5" d="M520.57,-958.85C520.57,-899.21 520.57,-713 520.57,-713 520.57,-713 472.97,-713 472.97,-713"/>
<polygon fill="#ff9ab1" stroke="#ff9ab1" points="472.97,-709.5 462.97,-713 472.97,-716.5 472.97,-709.5"/>
</g>
<!-- :ui:test:screenshot -->
<g id="node3" class="node">
<title>:ui:test:screenshot</title>
<ellipse fill="#9affb5" stroke="black" cx="1056.89" cy="-703" rx="96.68" ry="18"/>
<text text-anchor="middle" x="1056.89" y="-699.3" font-family="Times,serif" font-size="14.00">:ui:test:screenshot</text>
</g>
<!-- :shared:feature:details&#45;&gt;:ui:test:screenshot -->
<g id="edge2" class="edge">
<title>:shared:feature:details&#45;&gt;:ui:test:screenshot</title>
<path fill="none" stroke="#ff9ab1" stroke-dasharray="1,5" d="M689.64,-977C822.73,-977 1056.89,-977 1056.89,-977 1056.89,-977 1056.89,-731.4 1056.89,-731.4"/>
<polygon fill="#ff9ab1" stroke="#ff9ab1" points="1060.39,-731.4 1056.89,-721.4 1053.39,-731.4 1060.39,-731.4"/>
</g>
<!-- :ui:common -->
<g id="node4" class="node">
<title>:ui:common</title>
<ellipse fill="#b59aff" stroke="black" cx="800.89" cy="-840" rx="64.19" ry="18"/>
<text text-anchor="middle" x="800.89" y="-836.3" font-family="Times,serif" font-size="14.00">:ui:common</text>
</g>
<!-- :shared:feature:details&#45;&gt;:ui:common -->
<g id="edge3" class="edge">
<title>:shared:feature:details&#45;&gt;:ui:common</title>
<path fill="none" stroke="black" stroke-dasharray="1,5" d="M677.52,-958.93C677.52,-923.65 677.52,-849 677.52,-849 677.52,-849 734.98,-849 734.98,-849"/>
<polygon fill="black" stroke="black" points="734.98,-852.5 744.98,-849 734.98,-845.5 734.98,-852.5"/>
</g>
<!-- :shared:domain -->
<g id="node5" class="node">
<title>:shared:domain</title>
<ellipse fill="#b59aff" stroke="black" cx="488.89" cy="-155" rx="82.59" ry="18"/>
<text text-anchor="middle" x="488.89" y="-151.3" font-family="Times,serif" font-size="14.00">:shared:domain</text>
</g>
<!-- :shared:feature:details&#45;&gt;:shared:domain -->
<g id="edge4" class="edge">
<title>:shared:feature:details&#45;&gt;:shared:domain</title>
<path fill="none" stroke="black" stroke-dasharray="1,5" d="M540.92,-958.68C540.92,-958.68 540.92,-179.01 540.92,-179.01"/>
<polygon fill="black" stroke="black" points="544.42,-179.01 540.92,-169.01 537.42,-179.01 544.42,-179.01"/>
</g>
<!-- :core:logging:api -->
<g id="node6" class="node">
<title>:core:logging:api</title>
<ellipse fill="#b59aff" stroke="black" cx="116.89" cy="-155" rx="88.28" ry="18"/>
<text text-anchor="middle" x="116.89" y="-151.3" font-family="Times,serif" font-size="14.00">:core:logging:api</text>
</g>
<!-- :shared:feature:details&#45;&gt;:core:logging:api -->
<g id="edge5" class="edge">
<title>:shared:feature:details&#45;&gt;:core:logging:api</title>
<path fill="none" stroke="black" stroke-dasharray="1,5" d="M530.74,-958.72C530.74,-858.16 530.74,-377 530.74,-377 530.74,-377 171.54,-377 171.54,-377 171.54,-377 171.54,-179.22 171.54,-179.22"/>
<polygon fill="black" stroke="black" points="175.04,-179.22 171.54,-169.22 168.04,-179.22 175.04,-179.22"/>
</g>
<!-- :test&#45;data&#45;&gt;:shared:domain -->
<g id="edge6" class="edge">
<title>:test&#45;data&#45;&gt;:shared:domain</title>
<path fill="none" stroke="black" stroke-dasharray="1,5" d="M460.85,-692C482.19,-692 503.29,-692 503.29,-692 503.29,-692 503.29,-182.87 503.29,-182.87"/>
<polygon fill="black" stroke="black" points="506.79,-182.87 503.29,-172.87 499.79,-182.87 506.79,-182.87"/>
</g>
<!-- :core:coroutines -->
<g id="node7" class="node">
<title>:core:coroutines</title>
<ellipse fill="#b59aff" stroke="black" cx="377.89" cy="-18" rx="85.29" ry="18"/>
<text text-anchor="middle" x="377.89" y="-14.3" font-family="Times,serif" font-size="14.00">:core:coroutines</text>
</g>
<!-- :test&#45;data&#45;&gt;:core:coroutines -->
<g id="edge7" class="edge">
<title>:test&#45;data&#45;&gt;:core:coroutines</title>
<path fill="none" stroke="black" stroke-dasharray="1,5" d="M471.46,-706C531.18,-706 618.54,-706 618.54,-706 618.54,-706 618.54,-24 618.54,-24 618.54,-24 468.36,-24 468.36,-24"/>
<polygon fill="black" stroke="black" points="468.36,-20.5 458.36,-24 468.36,-27.5 468.36,-20.5"/>
</g>
<!-- :data:database -->
<g id="node8" class="node">
<title>:data:database</title>
<ellipse fill="#b59aff" stroke="black" cx="416.89" cy="-429" rx="79.09" ry="18"/>
<text text-anchor="middle" x="416.89" y="-425.3" font-family="Times,serif" font-size="14.00">:data:database</text>
</g>
<!-- :test&#45;data&#45;&gt;:data:database -->
<g id="edge8" class="edge">
<title>:test&#45;data&#45;&gt;:data:database</title>
<path fill="none" stroke="black" stroke-dasharray="1,5" d="M444.52,-687.08C444.52,-687.08 444.52,-456 444.52,-456"/>
<polygon fill="black" stroke="black" points="448.02,-456 444.52,-446 441.02,-456 448.02,-456"/>
</g>
<!-- :data:musicbrainz -->
<g id="node9" class="node">
<title>:data:musicbrainz</title>
<ellipse fill="#b59aff" stroke="black" cx="325.89" cy="-292" rx="93.68" ry="18"/>
<text text-anchor="middle" x="325.89" y="-288.3" font-family="Times,serif" font-size="14.00">:data:musicbrainz</text>
</g>
<!-- :test&#45;data&#45;&gt;:data:musicbrainz -->
<g id="edge9" class="edge">
<title>:test&#45;data&#45;&gt;:data:musicbrainz</title>
<path fill="none" stroke="black" stroke-dasharray="1,5" d="M364.59,-697C337.39,-697 309.77,-697 309.77,-697 309.77,-697 309.77,-319.92 309.77,-319.92"/>
<polygon fill="black" stroke="black" points="313.27,-319.92 309.77,-309.92 306.27,-319.92 313.27,-319.92"/>
</g>
<!-- :data:coverart -->
<g id="node10" class="node">
<title>:data:coverart</title>
<ellipse fill="#b59aff" stroke="black" cx="205.89" cy="-566" rx="76.09" ry="18"/>
<text text-anchor="middle" x="205.89" y="-562.3" font-family="Times,serif" font-size="14.00">:data:coverart</text>
</g>
<!-- :test&#45;data&#45;&gt;:data:coverart -->
<g id="edge10" class="edge">
<title>:test&#45;data&#45;&gt;:data:coverart</title>
<path fill="none" stroke="black" stroke-dasharray="1,5" d="M389.27,-687.3C389.27,-653.12 389.27,-575 389.27,-575 389.27,-575 281.84,-575 281.84,-575"/>
<polygon fill="black" stroke="black" points="281.84,-571.5 271.84,-575 281.84,-578.5 281.84,-571.5"/>
</g>
<!-- :data:spotify -->
<g id="node11" class="node">
<title>:data:spotify</title>
<ellipse fill="#b59aff" stroke="black" cx="68.89" cy="-292" rx="68.79" ry="18"/>
<text text-anchor="middle" x="68.89" y="-288.3" font-family="Times,serif" font-size="14.00">:data:spotify</text>
</g>
<!-- :test&#45;data&#45;&gt;:data:spotify -->
<g id="edge11" class="edge">
<title>:test&#45;data&#45;&gt;:data:spotify</title>
<path fill="none" stroke="black" stroke-dasharray="1,5" d="M364.58,-709C266.53,-709 64.93,-709 64.93,-709 64.93,-709 64.93,-320.19 64.93,-320.19"/>
<polygon fill="black" stroke="black" points="68.43,-320.19 64.93,-310.19 61.43,-320.19 68.43,-320.19"/>
</g>
<!-- :test:image -->
<g id="node12" class="node">
<title>:test:image</title>
<ellipse fill="#9affb5" stroke="black" cx="1020.89" cy="-566" rx="63.09" ry="18"/>
<text text-anchor="middle" x="1020.89" y="-562.3" font-family="Times,serif" font-size="14.00">:test:image</text>
</g>
<!-- :ui:test:screenshot&#45;&gt;:test:image -->
<g id="edge12" class="edge">
<title>:ui:test:screenshot&#45;&gt;:test:image</title>
<path fill="none" stroke="black" stroke-dasharray="1,5" d="M1022,-686.2C1022,-686.2 1022,-594.25 1022,-594.25"/>
<polygon fill="black" stroke="black" points="1025.5,-594.25 1022,-584.25 1018.5,-594.25 1025.5,-594.25"/>
</g>
<!-- :ui:common&#45;&gt;:test&#45;data -->
<g id="edge14" class="edge">
<title>:ui:common&#45;&gt;:test&#45;data</title>
<path fill="none" stroke="#ff9ab1" stroke-dasharray="1,5" d="M736.19,-840C626.75,-840 416.89,-840 416.89,-840 416.89,-840 416.89,-731.19 416.89,-731.19"/>
<polygon fill="#ff9ab1" stroke="#ff9ab1" points="420.39,-731.19 416.89,-721.19 413.39,-731.19 420.39,-731.19"/>
</g>
<!-- :ui:common&#45;&gt;:ui:test:screenshot -->
<g id="edge15" class="edge">
<title>:ui:common&#45;&gt;:ui:test:screenshot</title>
<path fill="none" stroke="#ff9ab1" stroke-dasharray="1,5" d="M857.82,-831.43C857.82,-801.44 857.82,-703 857.82,-703 857.82,-703 949.98,-703 949.98,-703"/>
<polygon fill="#ff9ab1" stroke="#ff9ab1" points="949.98,-706.5 959.98,-703 949.98,-699.5 949.98,-706.5"/>
</g>
<!-- :ui:common&#45;&gt;:shared:domain -->
<g id="edge17" class="edge">
<title>:ui:common&#45;&gt;:shared:domain</title>
<path fill="none" stroke="black" d="M745.14,-831C671.52,-831 551.09,-831 551.09,-831 551.09,-831 551.09,-177.02 551.09,-177.02"/>
<polygon fill="black" stroke="black" points="554.59,-177.02 551.09,-167.02 547.59,-177.02 554.59,-177.02"/>
</g>
<!-- :ui:common&#45;&gt;:core:logging:api -->
<g id="edge19" class="edge">
<title>:ui:common&#45;&gt;:core:logging:api</title>
<path fill="none" stroke="black" stroke-dasharray="1,5" d="M835.56,-824.58C835.56,-740.69 835.56,-343 835.56,-343 835.56,-343 188.41,-343 188.41,-343 188.41,-343 188.41,-175.65 188.41,-175.65"/>
<polygon fill="black" stroke="black" points="191.91,-175.65 188.41,-165.65 184.91,-175.65 191.91,-175.65"/>
</g>
<!-- :ui:common&#45;&gt;:core:coroutines -->
<g id="edge16" class="edge">
<title>:ui:common&#45;&gt;:core:coroutines</title>
<path fill="none" stroke="#ff9ab1" stroke-dasharray="1,5" d="M842.98,-826.32C842.98,-718.66 842.98,-12 842.98,-12 842.98,-12 468.37,-12 468.37,-12"/>
<polygon fill="#ff9ab1" stroke="#ff9ab1" points="468.37,-8.5 458.37,-12 468.37,-15.5 468.37,-8.5"/>
</g>
<!-- :ui:common&#45;&gt;:test:image -->
<g id="edge13" class="edge">
<title>:ui:common&#45;&gt;:test:image</title>
<path fill="none" stroke="black" stroke-dasharray="1,5" d="M850.4,-828.23C850.4,-775.78 850.4,-566 850.4,-566 850.4,-566 947.41,-566 947.41,-566"/>
<polygon fill="black" stroke="black" points="947.41,-569.5 957.41,-566 947.41,-562.5 947.41,-569.5"/>
</g>
<!-- :ui:core -->
<g id="node13" class="node">
<title>:ui:core</title>
<ellipse fill="#b59aff" stroke="black" cx="746.89" cy="-703" rx="45.49" ry="18"/>
<text text-anchor="middle" x="746.89" y="-699.3" font-family="Times,serif" font-size="14.00">:ui:core</text>
</g>
<!-- :ui:common&#45;&gt;:ui:core -->
<g id="edge18" class="edge">
<title>:ui:common&#45;&gt;:ui:core</title>
<path fill="none" stroke="black" d="M764.47,-825.08C764.47,-825.08 764.47,-729.6 764.47,-729.6"/>
<polygon fill="black" stroke="black" points="767.97,-729.6 764.47,-719.6 760.97,-729.6 767.97,-729.6"/>
</g>
<!-- :core:logging:api&#45;&gt;:core:coroutines -->
<g id="edge20" class="edge">
<title>:core:logging:api&#45;&gt;:core:coroutines</title>
<path fill="none" stroke="black" d="M186.88,-144C249.21,-144 330.62,-144 330.62,-144 330.62,-144 330.62,-43.45 330.62,-43.45"/>
<polygon fill="black" stroke="black" points="334.12,-43.45 330.62,-33.45 327.12,-43.45 334.12,-43.45"/>
</g>
<!-- :data:database&#45;&gt;:shared:domain -->
<g id="edge21" class="edge">
<title>:data:database&#45;&gt;:shared:domain</title>
<path fill="none" stroke="black" stroke-dasharray="1,5" d="M470.62,-415.41C470.62,-415.41 470.62,-182.81 470.62,-182.81"/>
<polygon fill="black" stroke="black" points="474.12,-182.81 470.62,-172.81 467.12,-182.81 474.12,-182.81"/>
</g>
<!-- :data:database&#45;&gt;:core:coroutines -->
<g id="edge22" class="edge">
<title>:data:database&#45;&gt;:core:coroutines</title>
<path fill="none" stroke="black" stroke-dasharray="1,5" d="M445.05,-412.14C445.05,-362.94 445.05,-223 445.05,-223 445.05,-223 368.48,-223 368.48,-223 368.48,-223 368.48,-46.19 368.48,-46.19"/>
<polygon fill="black" stroke="black" points="371.98,-46.19 368.48,-36.19 364.98,-46.19 371.98,-46.19"/>
</g>
<!-- :data:database&#45;&gt;:data:musicbrainz -->
<g id="edge23" class="edge">
<title>:data:database&#45;&gt;:data:musicbrainz</title>
<path fill="none" stroke="black" stroke-dasharray="1,5" d="M378.54,-413.02C378.54,-413.02 378.54,-317.05 378.54,-317.05"/>
<polygon fill="black" stroke="black" points="382.04,-317.05 378.54,-307.05 375.04,-317.05 382.04,-317.05"/>
</g>
<!-- :data:musicbrainz&#45;&gt;:shared:domain -->
<g id="edge24" class="edge">
<title>:data:musicbrainz&#45;&gt;:shared:domain</title>
<path fill="none" stroke="black" stroke-dasharray="1,5" d="M412.92,-285.02C412.92,-285.02 412.92,-172.13 412.92,-172.13"/>
<polygon fill="black" stroke="black" points="416.42,-172.13 412.92,-162.13 409.42,-172.13 416.42,-172.13"/>
</g>
<!-- :data:musicbrainz&#45;&gt;:core:logging:api -->
<g id="edge25" class="edge">
<title>:data:musicbrainz&#45;&gt;:core:logging:api</title>
<path fill="none" stroke="black" stroke-dasharray="1,5" d="M262.53,-278.41C262.53,-245.65 262.53,-165 262.53,-165 262.53,-165 200.56,-165 200.56,-165"/>
<polygon fill="black" stroke="black" points="200.56,-161.5 190.56,-165 200.56,-168.5 200.56,-161.5"/>
</g>
<!-- :data:coverart&#45;&gt;:test&#45;data -->
<g id="edge29" class="edge">
<title>:data:coverart&#45;&gt;:test&#45;data</title>
<path fill="none" stroke="#ff9ab1" stroke-dasharray="1,5" d="M282.07,-566C342.51,-566 416.89,-566 416.89,-566 416.89,-566 416.89,-674.81 416.89,-674.81"/>
<polygon fill="#ff9ab1" stroke="#ff9ab1" points="413.39,-674.81 416.89,-684.81 420.39,-674.81 413.39,-674.81"/>
</g>
<!-- :data:coverart&#45;&gt;:shared:domain -->
<g id="edge26" class="edge">
<title>:data:coverart&#45;&gt;:shared:domain</title>
<path fill="none" stroke="black" stroke-dasharray="1,5" d="M225.55,-548.47C225.55,-470.38 225.55,-158 225.55,-158 225.55,-158 397.37,-158 397.37,-158"/>
<polygon fill="black" stroke="black" points="397.37,-161.5 407.37,-158 397.37,-154.5 397.37,-161.5"/>
</g>
<!-- :data:coverart&#45;&gt;:core:logging:api -->
<g id="edge27" class="edge">
<title>:data:coverart&#45;&gt;:core:logging:api</title>
<path fill="none" stroke="black" stroke-dasharray="1,5" d="M154.66,-552.33C154.66,-552.33 154.66,-181.34 154.66,-181.34"/>
<polygon fill="black" stroke="black" points="158.16,-181.34 154.66,-171.34 151.16,-181.34 158.16,-181.34"/>
</g>
<!-- :data:coverart&#45;&gt;:core:coroutines -->
<g id="edge28" class="edge">
<title>:data:coverart&#45;&gt;:core:coroutines</title>
<path fill="none" stroke="black" stroke-dasharray="1,5" d="M212.04,-547.77C212.04,-452.68 212.04,-18 212.04,-18 212.04,-18 282.54,-18 282.54,-18"/>
<polygon fill="black" stroke="black" points="282.54,-21.5 292.54,-18 282.54,-14.5 282.54,-21.5"/>
</g>
<!-- :data:coverart&#45;&gt;:data:database -->
<g id="edge31" class="edge">
<title>:data:coverart&#45;&gt;:data:database</title>
<path fill="none" stroke="#ff9ab1" stroke-dasharray="1,5" d="M271.87,-557C309.65,-557 349.62,-557 349.62,-557 349.62,-557 349.62,-448.62 349.62,-448.62"/>
<polygon fill="#ff9ab1" stroke="#ff9ab1" points="353.12,-448.62 349.62,-438.62 346.12,-448.62 353.12,-448.62"/>
</g>
<!-- :data:coverart&#45;&gt;:data:musicbrainz -->
<g id="edge30" class="edge">
<title>:data:coverart&#45;&gt;:data:musicbrainz</title>
<path fill="none" stroke="#ff9ab1" stroke-dasharray="1,5" d="M257.12,-552.41C257.12,-552.41 257.12,-314.4 257.12,-314.4"/>
<polygon fill="#ff9ab1" stroke="#ff9ab1" points="260.62,-314.4 257.12,-304.4 253.62,-314.4 260.62,-314.4"/>
</g>
<!-- :data:spotify&#45;&gt;:shared:domain -->
<g id="edge32" class="edge">
<title>:data:spotify&#45;&gt;:shared:domain</title>
<path fill="none" stroke="black" stroke-dasharray="1,5" d="M138.14,-292C177.42,-292 218.79,-292 218.79,-292 218.79,-292 218.79,-151 218.79,-151 218.79,-151 398.22,-151 398.22,-151"/>
<polygon fill="black" stroke="black" points="398.22,-154.5 408.22,-151 398.22,-147.5 398.22,-154.5"/>
</g>
<!-- :data:spotify&#45;&gt;:core:logging:api -->
<g id="edge33" class="edge">
<title>:data:spotify&#45;&gt;:core:logging:api</title>
<path fill="none" stroke="black" stroke-dasharray="1,5" d="M83.14,-274.37C83.14,-274.37 83.14,-181.7 83.14,-181.7"/>
<polygon fill="black" stroke="black" points="86.64,-181.7 83.14,-171.7 79.64,-181.7 86.64,-181.7"/>
</g>
<!-- :ui:core&#45;&gt;:shared:domain -->
<g id="edge35" class="edge">
<title>:ui:core&#45;&gt;:shared:domain</title>
<path fill="none" stroke="black" stroke-dasharray="1,5" d="M702.43,-699C647.51,-699 561.26,-699 561.26,-699 561.26,-699 561.26,-173.99 561.26,-173.99"/>
<polygon fill="black" stroke="black" points="564.76,-173.99 561.26,-163.99 557.76,-173.99 564.76,-173.99"/>
</g>
<!-- :shared:strings -->
<g id="node14" class="node">
<title>:shared:strings</title>
<ellipse fill="#b59aff" stroke="black" cx="746.89" cy="-566" rx="81.49" ry="18"/>
<text text-anchor="middle" x="746.89" y="-562.3" font-family="Times,serif" font-size="14.00">:shared:strings</text>
</g>
<!-- :ui:core&#45;&gt;:shared:strings -->
<g id="edge34" class="edge">
<title>:ui:core&#45;&gt;:shared:strings</title>
<path fill="none" stroke="black" d="M746.89,-684.81C746.89,-684.81 746.89,-594.27 746.89,-594.27"/>
<polygon fill="black" stroke="black" points="750.39,-594.27 746.89,-584.27 743.39,-594.27 750.39,-594.27"/>
</g>
</g>
</svg>
