<?xml version="1.0" encoding="UTF-8" standalone="no"?>
<!DOCTYPE svg PUBLIC "-//W3C//DTD SVG 1.1//EN"
 "http://www.w3.org/Graphics/SVG/1.1/DTD/svg11.dtd">
<!-- Generated by graphviz version 2.43.0 (0)
 -->
<!-- Title: %3 Pages: 1 -->
<svg width="1862pt" height="666pt"
 viewBox="0.00 0.00 1861.74 666.00" xmlns="http://www.w3.org/2000/svg" xmlns:xlink="http://www.w3.org/1999/xlink">
<g id="graph0" class="graph" transform="scale(1 1) rotate(0) translate(4 662)">
<title>%3</title>
<polygon fill="white" stroke="transparent" points="-4,4 -4,-662 1857.74,-662 1857.74,4 -4,4"/>
<text text-anchor="middle" x="926.87" y="-630" font-family="Times,serif" font-size="30.00">Dependencies</text>
<text text-anchor="middle" x="926.87" y="-597" font-family="Times,serif" font-size="30.00"> </text>
<!-- :shared:feature:details -->
<g id="node1" class="node">
<title>:shared:feature:details</title>
<polygon fill="#b59aff" stroke="black" points="1049.39,-584 870.39,-584 870.39,-548 1049.39,-548 1049.39,-584"/>
<text text-anchor="middle" x="959.89" y="-562.3" font-family="Times,serif" font-size="14.00">:shared:feature:details</text>
</g>
<!-- :test&#45;data -->
<g id="node2" class="node">
<title>:test&#45;data</title>
<ellipse fill="#b59aff" stroke="black" cx="345.89" cy="-429" rx="55.49" ry="18"/>
<text text-anchor="middle" x="345.89" y="-425.3" font-family="Times,serif" font-size="14.00">:test&#45;data</text>
</g>
<!-- :shared:feature:details&#45;&gt;:test&#45;data -->
<g id="edge1" class="edge">
<title>:shared:feature:details&#45;&gt;:test&#45;data</title>
<path fill="none" stroke="#ff9ab1" stroke-dasharray="1,5" d="M879.81,-547.82C879.81,-513.16 879.81,-441 879.81,-441 879.81,-441 397.35,-441 397.35,-441"/>
<polygon fill="#ff9ab1" stroke="#ff9ab1" points="397.35,-437.5 387.35,-441 397.35,-444.5 397.35,-437.5"/>
</g>
<!-- :ui:test:screenshot -->
<g id="node3" class="node">
<title>:ui:test:screenshot</title>
<ellipse fill="#9affb5" stroke="black" cx="1756.89" cy="-292" rx="96.68" ry="18"/>
<text text-anchor="middle" x="1756.89" y="-288.3" font-family="Times,serif" font-size="14.00">:ui:test:screenshot</text>
</g>
<!-- :shared:feature:details&#45;&gt;:ui:test:screenshot -->
<g id="edge2" class="edge">
<title>:shared:feature:details&#45;&gt;:ui:test:screenshot</title>
<path fill="none" stroke="#ff9ab1" stroke-dasharray="1,5" d="M1049.43,-576C1263.86,-576 1789.17,-576 1789.17,-576 1789.17,-576 1789.17,-319.34 1789.17,-319.34"/>
<polygon fill="#ff9ab1" stroke="#ff9ab1" points="1792.67,-319.34 1789.17,-309.34 1785.67,-319.34 1792.67,-319.34"/>
</g>
<!-- :core:models -->
<g id="node4" class="node">
<title>:core:models</title>
<ellipse fill="#b59aff" stroke="black" cx="878.89" cy="-18" rx="69.59" ry="18"/>
<text text-anchor="middle" x="878.89" y="-14.3" font-family="Times,serif" font-size="14.00">:core:models</text>
</g>
<!-- :shared:feature:details&#45;&gt;:core:models -->
<g id="edge3" class="edge">
<title>:shared:feature:details&#45;&gt;:core:models</title>
<path fill="none" stroke="black" stroke-dasharray="1,5" d="M932.96,-547.77C932.96,-547.77 932.96,-39.72 932.96,-39.72"/>
<polygon fill="black" stroke="black" points="936.46,-39.72 932.96,-29.72 929.46,-39.72 936.46,-39.72"/>
</g>
<!-- :core:preferences -->
<g id="node5" class="node">
<title>:core:preferences</title>
<ellipse fill="#b59aff" stroke="black" cx="1065.89" cy="-292" rx="91.78" ry="18"/>
<text text-anchor="middle" x="1065.89" y="-288.3" font-family="Times,serif" font-size="14.00">:core:preferences</text>
</g>
<!-- :shared:feature:details&#45;&gt;:core:preferences -->
<g id="edge4" class="edge">
<title>:shared:feature:details&#45;&gt;:core:preferences</title>
<path fill="none" stroke="black" stroke-dasharray="1,5" d="M980.93,-547.6C980.93,-547.6 980.93,-309 980.93,-309"/>
<polygon fill="black" stroke="black" points="984.43,-309 980.93,-299 977.43,-309 984.43,-309"/>
</g>
<!-- :core:logging:api -->
<g id="node6" class="node">
<title>:core:logging:api</title>
<ellipse fill="#b59aff" stroke="black" cx="628.89" cy="-155" rx="88.28" ry="18"/>
<text text-anchor="middle" x="628.89" y="-151.3" font-family="Times,serif" font-size="14.00">:core:logging:api</text>
</g>
<!-- :shared:feature:details&#45;&gt;:core:logging:api -->
<g id="edge5" class="edge">
<title>:shared:feature:details&#45;&gt;:core:logging:api</title>
<path fill="none" stroke="black" stroke-dasharray="1,5" d="M870.18,-555C789.88,-555 684.73,-555 684.73,-555 684.73,-555 684.73,-179.24 684.73,-179.24"/>
<polygon fill="black" stroke="black" points="688.23,-179.24 684.73,-169.24 681.23,-179.24 688.23,-179.24"/>
</g>
<!-- :data:common:network -->
<g id="node7" class="node">
<title>:data:common:network</title>
<ellipse fill="#b59aff" stroke="black" cx="556.89" cy="-292" rx="116.98" ry="18"/>
<text text-anchor="middle" x="556.89" y="-288.3" font-family="Times,serif" font-size="14.00">:data:common:network</text>
</g>
<!-- :shared:feature:details&#45;&gt;:data:common:network -->
<g id="edge6" class="edge">
<title>:shared:feature:details&#45;&gt;:data:common:network</title>
<path fill="none" stroke="black" stroke-dasharray="1,5" d="M870.38,-562C762.6,-562 595.89,-562 595.89,-562 595.89,-562 595.89,-319.3 595.89,-319.3"/>
<polygon fill="black" stroke="black" points="599.39,-319.3 595.89,-309.3 592.39,-319.3 599.39,-319.3"/>
</g>
<!-- :data:spotify -->
<g id="node8" class="node">
<title>:data:spotify</title>
<ellipse fill="#b59aff" stroke="black" cx="68.89" cy="-292" rx="68.79" ry="18"/>
<text text-anchor="middle" x="68.89" y="-288.3" font-family="Times,serif" font-size="14.00">:data:spotify</text>
</g>
<!-- :shared:feature:details&#45;&gt;:data:spotify -->
<g id="edge7" class="edge">
<title>:shared:feature:details&#45;&gt;:data:spotify</title>
<path fill="none" stroke="black" stroke-dasharray="1,5" d="M870.18,-576C639.9,-576 45.93,-576 45.93,-576 45.93,-576 45.93,-319.34 45.93,-319.34"/>
<polygon fill="black" stroke="black" points="49.43,-319.34 45.93,-309.34 42.43,-319.34 49.43,-319.34"/>
</g>
<!-- :data:musicbrainz -->
<g id="node9" class="node">
<title>:data:musicbrainz</title>
<ellipse fill="#b59aff" stroke="black" cx="823.89" cy="-292" rx="93.68" ry="18"/>
<text text-anchor="middle" x="823.89" y="-288.3" font-family="Times,serif" font-size="14.00">:data:musicbrainz</text>
</g>
<!-- :shared:feature:details&#45;&gt;:data:musicbrainz -->
<g id="edge8" class="edge">
<title>:shared:feature:details&#45;&gt;:data:musicbrainz</title>
<path fill="none" stroke="black" stroke-dasharray="1,5" d="M889.23,-547.6C889.23,-547.6 889.23,-314.97 889.23,-314.97"/>
<polygon fill="black" stroke="black" points="892.73,-314.97 889.23,-304.97 885.73,-314.97 892.73,-314.97"/>
</g>
<!-- :data:database -->
<g id="node10" class="node">
<title>:data:database</title>
<ellipse fill="#b59aff" stroke="black" cx="1066.89" cy="-429" rx="79.09" ry="18"/>
<text text-anchor="middle" x="1066.89" y="-425.3" font-family="Times,serif" font-size="14.00">:data:database</text>
</g>
<!-- :shared:feature:details&#45;&gt;:data:database -->
<g id="edge9" class="edge">
<title>:shared:feature:details&#45;&gt;:data:database</title>
<path fill="none" stroke="black" stroke-dasharray="1,5" d="M1018.5,-547.81C1018.5,-547.81 1018.5,-453.5 1018.5,-453.5"/>
<polygon fill="black" stroke="black" points="1022,-453.5 1018.5,-443.5 1015,-453.5 1022,-453.5"/>
</g>
<!-- :ui:image -->
<g id="node11" class="node">
<title>:ui:image</title>
<ellipse fill="#b59aff" stroke="black" cx="1511.89" cy="-292" rx="53.89" ry="18"/>
<text text-anchor="middle" x="1511.89" y="-288.3" font-family="Times,serif" font-size="14.00">:ui:image</text>
</g>
<!-- :shared:feature:details&#45;&gt;:ui:image -->
<g id="edge10" class="edge">
<title>:shared:feature:details&#45;&gt;:ui:image</title>
<path fill="none" stroke="black" stroke-dasharray="1,5" d="M1049.58,-562C1210.1,-562 1529.88,-562 1529.88,-562 1529.88,-562 1529.88,-319.3 1529.88,-319.3"/>
<polygon fill="black" stroke="black" points="1533.38,-319.3 1529.88,-309.3 1526.38,-319.3 1533.38,-319.3"/>
</g>
<!-- :shared:domain -->
<g id="node12" class="node">
<title>:shared:domain</title>
<ellipse fill="#b59aff" stroke="black" cx="276.89" cy="-155" rx="82.59" ry="18"/>
<text text-anchor="middle" x="276.89" y="-151.3" font-family="Times,serif" font-size="14.00">:shared:domain</text>
</g>
<!-- :shared:feature:details&#45;&gt;:shared:domain -->
<g id="edge11" class="edge">
<title>:shared:feature:details&#45;&gt;:shared:domain</title>
<path fill="none" stroke="black" stroke-dasharray="1,5" d="M870.22,-569C673.1,-569 219.52,-569 219.52,-569 219.52,-569 219.52,-178.31 219.52,-178.31"/>
<polygon fill="black" stroke="black" points="223.02,-178.31 219.52,-168.31 216.02,-178.31 223.02,-178.31"/>
</g>
<!-- :ui:common -->
<g id="node13" class="node">
<title>:ui:common</title>
<ellipse fill="#b59aff" stroke="black" cx="1228.89" cy="-429" rx="64.19" ry="18"/>
<text text-anchor="middle" x="1228.89" y="-425.3" font-family="Times,serif" font-size="14.00">:ui:common</text>
</g>
<!-- :shared:feature:details&#45;&gt;:ui:common -->
<g id="edge12" class="edge">
<title>:shared:feature:details&#45;&gt;:ui:common</title>
<path fill="none" stroke="black" stroke-dasharray="1,5" d="M1049.47,-555C1127.72,-555 1228.89,-555 1228.89,-555 1228.89,-555 1228.89,-457.05 1228.89,-457.05"/>
<polygon fill="black" stroke="black" points="1232.39,-457.05 1228.89,-447.05 1225.39,-457.05 1232.39,-457.05"/>
</g>
<!-- :ui:core -->
<g id="node14" class="node">
<title>:ui:core</title>
<ellipse fill="#b59aff" stroke="black" cx="1730.89" cy="-155" rx="45.49" ry="18"/>
<text text-anchor="middle" x="1730.89" y="-151.3" font-family="Times,serif" font-size="14.00">:ui:core</text>
</g>
<!-- :shared:feature:details&#45;&gt;:ui:core -->
<g id="edge13" class="edge">
<title>:shared:feature:details&#45;&gt;:ui:core</title>
<path fill="none" stroke="black" stroke-dasharray="1,5" d="M1049.63,-569C1227.5,-569 1607.75,-569 1607.75,-569 1607.75,-569 1607.75,-164 1607.75,-164 1607.75,-164 1681.25,-164 1681.25,-164"/>
<polygon fill="black" stroke="black" points="1681.25,-167.5 1691.25,-164 1681.25,-160.5 1681.25,-167.5"/>
</g>
<!-- :test&#45;data&#45;&gt;:core:models -->
<g id="edge14" class="edge">
<title>:test&#45;data&#45;&gt;:core:models</title>
<path fill="none" stroke="black" stroke-dasharray="1,5" d="M396.8,-436C538.16,-436 925.22,-436 925.22,-436 925.22,-436 925.22,-41.43 925.22,-41.43"/>
<polygon fill="black" stroke="black" points="928.72,-41.43 925.22,-31.43 921.72,-41.43 928.72,-41.43"/>
</g>
<!-- :test&#45;data&#45;&gt;:data:common:network -->
<g id="edge15" class="edge">
<title>:test&#45;data&#45;&gt;:data:common:network</title>
<path fill="none" stroke="black" stroke-dasharray="1,5" d="M384.49,-416C435.21,-416 517.9,-416 517.9,-416 517.9,-416 517.9,-318.98 517.9,-318.98"/>
<polygon fill="black" stroke="black" points="521.4,-318.98 517.9,-308.98 514.4,-318.98 521.4,-318.98"/>
</g>
<!-- :test&#45;data&#45;&gt;:data:spotify -->
<g id="edge18" class="edge">
<title>:test&#45;data&#45;&gt;:data:spotify</title>
<path fill="none" stroke="black" stroke-dasharray="1,5" d="M293.57,-435C219.2,-435 91.86,-435 91.86,-435 91.86,-435 91.86,-319.25 91.86,-319.25"/>
<polygon fill="black" stroke="black" points="95.36,-319.25 91.86,-309.25 88.36,-319.25 95.36,-319.25"/>
</g>
<!-- :test&#45;data&#45;&gt;:data:musicbrainz -->
<g id="edge16" class="edge">
<title>:test&#45;data&#45;&gt;:data:musicbrainz</title>
<path fill="none" stroke="black" stroke-dasharray="1,5" d="M401.16,-431C522.28,-431 800.35,-431 800.35,-431 800.35,-431 800.35,-319.6 800.35,-319.6"/>
<polygon fill="black" stroke="black" points="803.85,-319.6 800.35,-309.6 796.85,-319.6 803.85,-319.6"/>
</g>
<!-- :test&#45;data&#45;&gt;:shared:domain -->
<g id="edge19" class="edge">
<title>:test&#45;data&#45;&gt;:shared:domain</title>
<path fill="none" stroke="black" stroke-dasharray="1,5" d="M293.81,-423C269.01,-423 244.68,-423 244.68,-423 244.68,-423 244.68,-181.76 244.68,-181.76"/>
<polygon fill="black" stroke="black" points="248.18,-181.76 244.68,-171.76 241.18,-181.76 248.18,-181.76"/>
</g>
<!-- :data:coverart -->
<g id="node15" class="node">
<title>:data:coverart</title>
<ellipse fill="#b59aff" stroke="black" cx="345.89" cy="-292" rx="76.09" ry="18"/>
<text text-anchor="middle" x="345.89" y="-288.3" font-family="Times,serif" font-size="14.00">:data:coverart</text>
</g>
<!-- :test&#45;data&#45;&gt;:data:coverart -->
<g id="edge17" class="edge">
<title>:test&#45;data&#45;&gt;:data:coverart</title>
<path fill="none" stroke="black" stroke-dasharray="1,5" d="M345.89,-410.81C345.89,-410.81 345.89,-320.27 345.89,-320.27"/>
<polygon fill="black" stroke="black" points="349.39,-320.27 345.89,-310.27 342.39,-320.27 349.39,-320.27"/>
</g>
<!-- :ui:test:screenshot&#45;&gt;:ui:core -->
<g id="edge20" class="edge">
<title>:ui:test:screenshot&#45;&gt;:ui:core</title>
<path fill="none" stroke="black" stroke-dasharray="1,5" d="M1730.89,-274.65C1730.89,-274.65 1730.89,-183.08 1730.89,-183.08"/>
<polygon fill="black" stroke="black" points="1734.39,-183.08 1730.89,-173.08 1727.39,-183.08 1734.39,-183.08"/>
</g>
<!-- :core:preferences&#45;&gt;:core:models -->
<g id="edge22" class="edge">
<title>:core:preferences&#45;&gt;:core:models</title>
<path fill="none" stroke="black" stroke-dasharray="1,5" d="M988.5,-282.25C988.5,-234.44 988.5,-27 988.5,-27 988.5,-27 949.15,-27 949.15,-27"/>
<polygon fill="black" stroke="black" points="949.15,-23.5 939.15,-27 949.15,-30.5 949.15,-23.5"/>
</g>
<!-- :core:coroutines -->
<g id="node16" class="node">
<title>:core:coroutines</title>
<ellipse fill="#b59aff" stroke="black" cx="1087.89" cy="-155" rx="85.29" ry="18"/>
<text text-anchor="middle" x="1087.89" y="-151.3" font-family="Times,serif" font-size="14.00">:core:coroutines</text>
</g>
<!-- :core:preferences&#45;&gt;:core:coroutines -->
<g id="edge21" class="edge">
<title>:core:preferences&#45;&gt;:core:coroutines</title>
<path fill="none" stroke="black" stroke-dasharray="1,5" d="M1080.14,-274.09C1080.14,-274.09 1080.14,-183.35 1080.14,-183.35"/>
<polygon fill="black" stroke="black" points="1083.64,-183.35 1080.14,-173.35 1076.64,-183.35 1083.64,-183.35"/>
</g>
<!-- :data:common:network&#45;&gt;:core:logging:api -->
<g id="edge23" class="edge">
<title>:data:common:network&#45;&gt;:core:logging:api</title>
<path fill="none" stroke="black" stroke-dasharray="1,5" d="M629.42,-277.85C629.42,-277.85 629.42,-183.17 629.42,-183.17"/>
<polygon fill="black" stroke="black" points="632.92,-183.17 629.42,-173.17 625.92,-183.17 632.92,-183.17"/>
</g>
<!-- :data:spotify&#45;&gt;:core:models -->
<g id="edge25" class="edge">
<title>:data:spotify&#45;&gt;:core:models</title>
<path fill="none" stroke="black" stroke-dasharray="1,5" d="M45.93,-274.72C45.93,-213.28 45.93,-9 45.93,-9 45.93,-9 808.65,-9 808.65,-9"/>
<polygon fill="black" stroke="black" points="808.65,-12.5 818.65,-9 808.65,-5.5 808.65,-12.5"/>
</g>
<!-- :data:spotify&#45;&gt;:core:logging:api -->
<g id="edge24" class="edge">
<title>:data:spotify&#45;&gt;:core:logging:api</title>
<path fill="none" stroke="black" stroke-dasharray="1,5" d="M91.86,-275.01C91.86,-249.95 91.86,-206 91.86,-206 91.86,-206 584.96,-206 584.96,-206 584.96,-206 584.96,-180.86 584.96,-180.86"/>
<polygon fill="black" stroke="black" points="588.46,-180.86 584.96,-170.86 581.46,-180.86 588.46,-180.86"/>
</g>
<!-- :data:musicbrainz&#45;&gt;:core:models -->
<g id="edge27" class="edge">
<title>:data:musicbrainz&#45;&gt;:core:models</title>
<path fill="none" stroke="black" stroke-dasharray="1,5" d="M863.42,-275.68C863.42,-275.68 863.42,-45.64 863.42,-45.64"/>
<polygon fill="black" stroke="black" points="866.92,-45.64 863.42,-35.64 859.92,-45.64 866.92,-45.64"/>
</g>
<!-- :data:musicbrainz&#45;&gt;:core:logging:api -->
<g id="edge26" class="edge">
<title>:data:musicbrainz&#45;&gt;:core:logging:api</title>
<path fill="none" stroke="black" stroke-dasharray="1,5" d="M730.2,-292C716.25,-292 706.44,-292 706.44,-292 706.44,-292 706.44,-173.99 706.44,-173.99"/>
<polygon fill="black" stroke="black" points="709.94,-173.99 706.44,-163.99 702.94,-173.99 709.94,-173.99"/>
</g>
<!-- :data:database&#45;&gt;:core:models -->
<g id="edge29" class="edge">
<title>:data:database&#45;&gt;:core:models</title>
<path fill="none" stroke="black" stroke-dasharray="1,5" d="M995.68,-421C967.06,-421 940.7,-421 940.7,-421 940.7,-421 940.7,-36.42 940.7,-36.42"/>
<polygon fill="black" stroke="black" points="944.2,-36.42 940.7,-26.42 937.2,-36.42 944.2,-36.42"/>
</g>
<!-- :data:database&#45;&gt;:data:musicbrainz -->
<g id="edge30" class="edge">
<title>:data:database&#45;&gt;:data:musicbrainz</title>
<path fill="none" stroke="black" stroke-dasharray="1,5" d="M988.68,-426C944.75,-426 898.65,-426 898.65,-426 898.65,-426 898.65,-312.97 898.65,-312.97"/>
<polygon fill="black" stroke="black" points="902.15,-312.97 898.65,-302.97 895.15,-312.97 902.15,-312.97"/>
</g>
<!-- :data:database&#45;&gt;:core:coroutines -->
<g id="edge28" class="edge">
<title>:data:database&#45;&gt;:core:coroutines</title>
<path fill="none" stroke="black" stroke-dasharray="1,5" d="M1146.33,-429C1155.16,-429 1161.04,-429 1161.04,-429 1161.04,-429 1161.04,-174.43 1161.04,-174.43"/>
<polygon fill="black" stroke="black" points="1164.54,-174.43 1161.04,-164.43 1157.54,-174.43 1164.54,-174.43"/>
</g>
<!-- :ui:image&#45;&gt;:core:models -->
<g id="edge31" class="edge">
<title>:ui:image&#45;&gt;:core:models</title>
<path fill="none" stroke="black" stroke-dasharray="1,5" d="M1493.91,-274.72C1493.91,-213.28 1493.91,-9 1493.91,-9 1493.91,-9 949.27,-9 949.27,-9"/>
<polygon fill="black" stroke="black" points="949.27,-5.5 939.27,-9 949.27,-12.5 949.27,-5.5"/>
</g>
<!-- :ui:image&#45;&gt;:ui:core -->
<g id="edge32" class="edge">
<title>:ui:image&#45;&gt;:ui:core</title>
<path fill="none" stroke="black" stroke-dasharray="1,5" d="M1529.88,-274.93C1529.88,-238.2 1529.88,-155 1529.88,-155 1529.88,-155 1675.28,-155 1675.28,-155"/>
<polygon fill="black" stroke="black" points="1675.28,-158.5 1685.28,-155 1675.28,-151.5 1675.28,-158.5"/>
</g>
<!-- :shared:domain&#45;&gt;:core:models -->
<g id="edge33" class="edge">
<title>:shared:domain&#45;&gt;:core:models</title>
<path fill="none" stroke="black" stroke-dasharray="1,5" d="M276.89,-136.81C276.89,-99.54 276.89,-18 276.89,-18 276.89,-18 799.25,-18 799.25,-18"/>
<polygon fill="black" stroke="black" points="799.25,-21.5 809.25,-18 799.25,-14.5 799.25,-21.5"/>
</g>
<!-- :ui:common&#45;&gt;:ui:test:screenshot -->
<g id="edge35" class="edge">
<title>:ui:common&#45;&gt;:ui:test:screenshot</title>
<path fill="none" stroke="#ff9ab1" stroke-dasharray="1,5" d="M1289.68,-435C1422.05,-435 1724.61,-435 1724.61,-435 1724.61,-435 1724.61,-319.25 1724.61,-319.25"/>
<polygon fill="#ff9ab1" stroke="#ff9ab1" points="1728.11,-319.25 1724.61,-309.25 1721.11,-319.25 1728.11,-319.25"/>
</g>
<!-- :ui:common&#45;&gt;:core:models -->
<g id="edge36" class="edge">
<title>:ui:common&#45;&gt;:core:models</title>
<path fill="none" stroke="black" d="M1231.59,-410.81C1231.59,-331.27 1231.59,-18 1231.59,-18 1231.59,-18 958.58,-18 958.58,-18"/>
<polygon fill="black" stroke="black" points="958.58,-14.5 948.58,-18 958.58,-21.5 958.58,-14.5"/>
</g>
<!-- :ui:common&#45;&gt;:core:preferences -->
<g id="edge39" class="edge">
<title>:ui:common&#45;&gt;:core:preferences</title>
<path fill="none" stroke="black" stroke-dasharray="1,5" d="M1170.91,-420.81C1170.91,-392.13 1170.91,-298 1170.91,-298 1170.91,-298 1162.62,-298 1162.62,-298"/>
<polygon fill="black" stroke="black" points="1162.62,-294.5 1152.62,-298 1162.62,-301.5 1162.62,-294.5"/>
</g>
<!-- :ui:common&#45;&gt;:core:logging:api -->
<g id="edge40" class="edge">
<title>:ui:common&#45;&gt;:core:logging:api</title>
<path fill="none" stroke="black" stroke-dasharray="1,5" d="M1166.67,-424.04C1166.67,-408.22 1166.67,-360 1166.67,-360 1166.67,-360 695.58,-360 695.58,-360 695.58,-360 695.58,-176.91 695.58,-176.91"/>
<polygon fill="black" stroke="black" points="699.08,-176.91 695.58,-166.91 692.08,-176.91 699.08,-176.91"/>
</g>
<!-- :ui:common&#45;&gt;:data:musicbrainz -->
<g id="edge38" class="edge">
<title>:ui:common&#45;&gt;:data:musicbrainz</title>
<path fill="none" stroke="black" stroke-dasharray="1,5" d="M1168.79,-422.54C1168.79,-401.3 1168.79,-335 1168.79,-335 1168.79,-335 908.07,-335 908.07,-335 908.07,-335 908.07,-309.89 908.07,-309.89"/>
<polygon fill="black" stroke="black" points="911.57,-309.89 908.07,-299.89 904.57,-309.89 911.57,-309.89"/>
</g>
<!-- :ui:common&#45;&gt;:ui:image -->
<g id="edge43" class="edge">
<title>:ui:common&#45;&gt;:ui:image</title>
<path fill="none" stroke="black" stroke-dasharray="1,5" d="M1289.69,-423C1367.94,-423 1493.91,-423 1493.91,-423 1493.91,-423 1493.91,-319.13 1493.91,-319.13"/>
<polygon fill="black" stroke="black" points="1497.41,-319.13 1493.91,-309.13 1490.41,-319.13 1497.41,-319.13"/>
</g>
<!-- :ui:common&#45;&gt;:shared:domain -->
<g id="edge41" class="edge">
<title>:ui:common&#45;&gt;:shared:domain</title>
<path fill="none" stroke="black" stroke-dasharray="1,5" d="M1212.07,-411.56C1212.07,-364.77 1212.07,-240 1212.07,-240 1212.07,-240 329.57,-240 329.57,-240 329.57,-240 329.57,-179.04 329.57,-179.04"/>
<polygon fill="black" stroke="black" points="333.07,-179.04 329.57,-169.04 326.07,-179.04 333.07,-179.04"/>
</g>
<!-- :ui:common&#45;&gt;:ui:core -->
<g id="edge42" class="edge">
<title>:ui:common&#45;&gt;:ui:core</title>
<path fill="none" stroke="black" stroke-dasharray="1,5" d="M1251.11,-411.72C1251.11,-350.28 1251.11,-146 1251.11,-146 1251.11,-146 1681.22,-146 1681.22,-146"/>
<polygon fill="black" stroke="black" points="1681.22,-149.5 1691.22,-146 1681.22,-142.5 1681.22,-149.5"/>
</g>
<!-- :ui:common&#45;&gt;:data:coverart -->
<g id="edge37" class="edge">
<title>:ui:common&#45;&gt;:data:coverart</title>
<path fill="none" stroke="black" stroke-dasharray="1,5" d="M1192.56,-414.1C1192.56,-401.34 1192.56,-385 1192.56,-385 1192.56,-385 411.54,-385 411.54,-385 411.54,-385 411.54,-311.26 411.54,-311.26"/>
<polygon fill="black" stroke="black" points="415.04,-311.26 411.54,-301.26 408.04,-311.26 415.04,-311.26"/>
</g>
<!-- :ui:test:image -->
<g id="node17" class="node">
<title>:ui:test:image</title>
<ellipse fill="#9affb5" stroke="black" cx="1364.89" cy="-292" rx="74.99" ry="18"/>
<text text-anchor="middle" x="1364.89" y="-288.3" font-family="Times,serif" font-size="14.00">:ui:test:image</text>
</g>
<!-- :ui:common&#45;&gt;:ui:test:image -->
<g id="edge34" class="edge">
<title>:ui:common&#45;&gt;:ui:test:image</title>
<path fill="none" stroke="#ff9ab1" stroke-dasharray="1,5" d="M1270.63,-415.29C1270.63,-379.5 1270.63,-286 1270.63,-286 1270.63,-286 1284.42,-286 1284.42,-286"/>
<polygon fill="#ff9ab1" stroke="#ff9ab1" points="1284.42,-289.5 1294.42,-286 1284.42,-282.5 1284.42,-289.5"/>
</g>
<!-- :shared:strings -->
<g id="node18" class="node">
<title>:shared:strings</title>
<ellipse fill="#b59aff" stroke="black" cx="1730.89" cy="-18" rx="81.49" ry="18"/>
<text text-anchor="middle" x="1730.89" y="-14.3" font-family="Times,serif" font-size="14.00">:shared:strings</text>
</g>
<!-- :ui:core&#45;&gt;:shared:strings -->
<g id="edge44" class="edge">
<title>:ui:core&#45;&gt;:shared:strings</title>
<path fill="none" stroke="black" d="M1730.89,-136.81C1730.89,-136.81 1730.89,-46.27 1730.89,-46.27"/>
<polygon fill="black" stroke="black" points="1734.39,-46.27 1730.89,-36.27 1727.39,-46.27 1734.39,-46.27"/>
</g>
<!-- :data:coverart&#45;&gt;:core:models -->
<g id="edge46" class="edge">
<title>:data:coverart&#45;&gt;:core:models</title>
<path fill="none" stroke="black" stroke-dasharray="1,5" d="M380.27,-275.82C380.27,-218.29 380.27,-27 380.27,-27 380.27,-27 808.25,-27 808.25,-27"/>
<polygon fill="black" stroke="black" points="808.25,-30.5 818.25,-27 808.25,-23.5 808.25,-30.5"/>
</g>
<!-- :data:coverart&#45;&gt;:core:logging:api -->
<g id="edge45" class="edge">
<title>:data:coverart&#45;&gt;:core:logging:api</title>
<path fill="none" stroke="black" stroke-dasharray="1,5" d="M401.1,-279.36C401.1,-245.44 401.1,-155 401.1,-155 401.1,-155 530.5,-155 530.5,-155"/>
<polygon fill="black" stroke="black" points="530.5,-158.5 540.5,-155 530.5,-151.5 530.5,-158.5"/>
</g>
<!-- :data:coverart&#45;&gt;:shared:domain -->
<g id="edge47" class="edge">
<title>:data:coverart&#45;&gt;:shared:domain</title>
<path fill="none" stroke="black" stroke-dasharray="1,5" d="M299.71,-277.6C299.71,-277.6 299.71,-182.64 299.71,-182.64"/>
<polygon fill="black" stroke="black" points="303.21,-182.64 299.71,-172.64 296.21,-182.64 303.21,-182.64"/>
</g>
</g>
</svg>
