<?xml version="1.0" encoding="UTF-8" standalone="no"?>
<!DOCTYPE svg PUBLIC "-//W3C//DTD SVG 1.1//EN"
 "http://www.w3.org/Graphics/SVG/1.1/DTD/svg11.dtd">
<!-- Generated by graphviz version 2.43.0 (0)
 -->
<!-- Title: %3 Pages: 1 -->
<svg width="1252pt" height="666pt"
 viewBox="0.00 0.00 1251.74 666.00" xmlns="http://www.w3.org/2000/svg" xmlns:xlink="http://www.w3.org/1999/xlink">
<g id="graph0" class="graph" transform="scale(1 1) rotate(0) translate(4 662)">
<title>%3</title>
<polygon fill="white" stroke="transparent" points="-4,4 -4,-662 1247.74,-662 1247.74,4 -4,4"/>
<text text-anchor="middle" x="621.87" y="-630" font-family="Times,serif" font-size="30.00">Dependencies</text>
<text text-anchor="middle" x="621.87" y="-597" font-family="Times,serif" font-size="30.00"> </text>
<!-- :shared:feature:details -->
<g id="node1" class="node">
<title>:shared:feature:details</title>
<polygon fill="#b59aff" stroke="black" points="753.39,-584 574.39,-584 574.39,-548 753.39,-548 753.39,-584"/>
<text text-anchor="middle" x="663.89" y="-562.3" font-family="Times,serif" font-size="14.00">:shared:feature:details</text>
</g>
<!-- :test&#45;data -->
<g id="node2" class="node">
<title>:test&#45;data</title>
<ellipse fill="#b59aff" stroke="black" cx="335.89" cy="-429" rx="55.49" ry="18"/>
<text text-anchor="middle" x="335.89" y="-425.3" font-family="Times,serif" font-size="14.00">:test&#45;data</text>
</g>
<!-- :shared:feature:details&#45;&gt;:test&#45;data -->
<g id="edge1" class="edge">
<title>:shared:feature:details&#45;&gt;:test&#45;data</title>
<path fill="none" stroke="#ff9ab1" stroke-dasharray="1,5" d="M579.73,-547.79C579.73,-511.79 579.73,-435 579.73,-435 579.73,-435 398.2,-435 398.2,-435"/>
<polygon fill="#ff9ab1" stroke="#ff9ab1" points="398.2,-431.5 388.2,-435 398.2,-438.5 398.2,-431.5"/>
</g>
<!-- :ui:test:screenshot -->
<g id="node3" class="node">
<title>:ui:test:screenshot</title>
<ellipse fill="#9affb5" stroke="black" cx="1146.89" cy="-292" rx="96.68" ry="18"/>
<text text-anchor="middle" x="1146.89" y="-288.3" font-family="Times,serif" font-size="14.00">:ui:test:screenshot</text>
</g>
<!-- :shared:feature:details&#45;&gt;:ui:test:screenshot -->
<g id="edge2" class="edge">
<title>:shared:feature:details&#45;&gt;:ui:test:screenshot</title>
<path fill="none" stroke="#ff9ab1" stroke-dasharray="1,5" d="M753.65,-572C901.28,-572 1179.17,-572 1179.17,-572 1179.17,-572 1179.17,-319.09 1179.17,-319.09"/>
<polygon fill="#ff9ab1" stroke="#ff9ab1" points="1182.67,-319.09 1179.17,-309.09 1175.67,-319.09 1182.67,-319.09"/>
</g>
<!-- :ui:common -->
<g id="node4" class="node">
<title>:ui:common</title>
<ellipse fill="#b59aff" stroke="black" cx="709.89" cy="-429" rx="64.19" ry="18"/>
<text text-anchor="middle" x="709.89" y="-425.3" font-family="Times,serif" font-size="14.00">:ui:common</text>
</g>
<!-- :shared:feature:details&#45;&gt;:ui:common -->
<g id="edge3" class="edge">
<title>:shared:feature:details&#45;&gt;:ui:common</title>
<path fill="none" stroke="black" stroke-dasharray="1,5" d="M699.47,-547.81C699.47,-547.81 699.47,-456.83 699.47,-456.83"/>
<polygon fill="black" stroke="black" points="702.97,-456.83 699.47,-446.83 695.97,-456.83 702.97,-456.83"/>
</g>
<!-- :shared:domain -->
<g id="node5" class="node">
<title>:shared:domain</title>
<ellipse fill="#b59aff" stroke="black" cx="523.89" cy="-155" rx="82.59" ry="18"/>
<text text-anchor="middle" x="523.89" y="-151.3" font-family="Times,serif" font-size="14.00">:shared:domain</text>
</g>
<!-- :shared:feature:details&#45;&gt;:shared:domain -->
<g id="edge4" class="edge">
<title>:shared:feature:details&#45;&gt;:shared:domain</title>
<path fill="none" stroke="black" stroke-dasharray="1,5" d="M585.07,-547.81C585.07,-547.81 585.07,-177.42 585.07,-177.42"/>
<polygon fill="black" stroke="black" points="588.57,-177.41 585.07,-167.42 581.57,-177.42 588.57,-177.41"/>
</g>
<!-- :core:preferences -->
<g id="node6" class="node">
<title>:core:preferences</title>
<ellipse fill="#b59aff" stroke="black" cx="775.89" cy="-292" rx="91.78" ry="18"/>
<text text-anchor="middle" x="775.89" y="-288.3" font-family="Times,serif" font-size="14.00">:core:preferences</text>
</g>
<!-- :shared:feature:details&#45;&gt;:core:preferences -->
<g id="edge5" class="edge">
<title>:shared:feature:details&#45;&gt;:core:preferences</title>
<path fill="none" stroke="black" stroke-dasharray="1,5" d="M625.99,-547.79C625.99,-487.91 625.99,-301 625.99,-301 625.99,-301 686.12,-301 686.12,-301"/>
<polygon fill="black" stroke="black" points="686.12,-304.5 696.12,-301 686.12,-297.5 686.12,-304.5"/>
</g>
<!-- :core:logging:api -->
<g id="node7" class="node">
<title>:core:logging:api</title>
<ellipse fill="#b59aff" stroke="black" cx="231.89" cy="-155" rx="88.28" ry="18"/>
<text text-anchor="middle" x="231.89" y="-151.3" font-family="Times,serif" font-size="14.00">:core:logging:api</text>
</g>
<!-- :shared:feature:details&#45;&gt;:core:logging:api -->
<g id="edge6" class="edge">
<title>:shared:feature:details&#45;&gt;:core:logging:api</title>
<path fill="none" stroke="black" stroke-dasharray="1,5" d="M574.39,-560C427.58,-560 151.73,-560 151.73,-560 151.73,-560 151.73,-172.73 151.73,-172.73"/>
<polygon fill="black" stroke="black" points="155.23,-172.73 151.73,-162.73 148.23,-172.73 155.23,-172.73"/>
</g>
<!-- :data:spotify -->
<g id="node8" class="node">
<title>:data:spotify</title>
<ellipse fill="#b59aff" stroke="black" cx="68.89" cy="-292" rx="68.79" ry="18"/>
<text text-anchor="middle" x="68.89" y="-288.3" font-family="Times,serif" font-size="14.00">:data:spotify</text>
</g>
<!-- :shared:feature:details&#45;&gt;:data:spotify -->
<g id="edge7" class="edge">
<title>:shared:feature:details&#45;&gt;:data:spotify</title>
<path fill="none" stroke="black" stroke-dasharray="1,5" d="M574.37,-572C403.1,-572 45.93,-572 45.93,-572 45.93,-572 45.93,-319.09 45.93,-319.09"/>
<polygon fill="black" stroke="black" points="49.43,-319.09 45.93,-309.09 42.43,-319.09 49.43,-319.09"/>
</g>
<!-- :ui:image -->
<g id="node9" class="node">
<title>:ui:image</title>
<ellipse fill="#b59aff" stroke="black" cx="939.89" cy="-292" rx="53.89" ry="18"/>
<text text-anchor="middle" x="939.89" y="-288.3" font-family="Times,serif" font-size="14.00">:ui:image</text>
</g>
<!-- :shared:feature:details&#45;&gt;:ui:image -->
<g id="edge8" class="edge">
<title>:shared:feature:details&#45;&gt;:ui:image</title>
<path fill="none" stroke="black" stroke-dasharray="1,5" d="M753.7,-560C840.15,-560 957.88,-560 957.88,-560 957.88,-560 957.88,-319.17 957.88,-319.17"/>
<polygon fill="black" stroke="black" points="961.38,-319.17 957.88,-309.17 954.38,-319.17 961.38,-319.17"/>
</g>
<!-- :test&#45;data&#45;&gt;:shared:domain -->
<g id="edge9" class="edge">
<title>:test&#45;data&#45;&gt;:shared:domain</title>
<path fill="none" stroke="black" stroke-dasharray="1,5" d="M349.63,-411.42C349.63,-351.79 349.63,-161 349.63,-161 349.63,-161 435.94,-161 435.94,-161"/>
<polygon fill="black" stroke="black" points="435.94,-164.5 445.94,-161 435.94,-157.5 435.94,-164.5"/>
</g>
<!-- :test&#45;data&#45;&gt;:data:spotify -->
<g id="edge12" class="edge">
<title>:test&#45;data&#45;&gt;:data:spotify</title>
<path fill="none" stroke="black" stroke-dasharray="1,5" d="M280.52,-429C208.52,-429 91.86,-429 91.86,-429 91.86,-429 91.86,-319.07 91.86,-319.07"/>
<polygon fill="black" stroke="black" points="95.36,-319.07 91.86,-309.07 88.36,-319.07 95.36,-319.07"/>
</g>
<!-- :data:musicbrainz -->
<g id="node10" class="node">
<title>:data:musicbrainz</title>
<ellipse fill="#b59aff" stroke="black" cx="457.89" cy="-292" rx="93.68" ry="18"/>
<text text-anchor="middle" x="457.89" y="-288.3" font-family="Times,serif" font-size="14.00">:data:musicbrainz</text>
</g>
<!-- :test&#45;data&#45;&gt;:data:musicbrainz -->
<g id="edge10" class="edge">
<title>:test&#45;data&#45;&gt;:data:musicbrainz</title>
<path fill="none" stroke="black" stroke-dasharray="1,5" d="M377.72,-416.84C377.72,-416.84 377.72,-311.34 377.72,-311.34"/>
<polygon fill="black" stroke="black" points="381.22,-311.34 377.72,-301.34 374.22,-311.34 381.22,-311.34"/>
</g>
<!-- :data:coverart -->
<g id="node11" class="node">
<title>:data:coverart</title>
<ellipse fill="#b59aff" stroke="black" cx="231.89" cy="-292" rx="76.09" ry="18"/>
<text text-anchor="middle" x="231.89" y="-288.3" font-family="Times,serif" font-size="14.00">:data:coverart</text>
</g>
<!-- :test&#45;data&#45;&gt;:data:coverart -->
<g id="edge11" class="edge">
<title>:test&#45;data&#45;&gt;:data:coverart</title>
<path fill="none" stroke="black" stroke-dasharray="1,5" d="M289.74,-418.7C289.74,-418.7 289.74,-313.96 289.74,-313.96"/>
<polygon fill="black" stroke="black" points="293.25,-313.96 289.74,-303.96 286.25,-313.96 293.25,-313.96"/>
</g>
<!-- :ui:core -->
<g id="node12" class="node">
<title>:ui:core</title>
<ellipse fill="#b59aff" stroke="black" cx="1020.89" cy="-155" rx="45.49" ry="18"/>
<text text-anchor="middle" x="1020.89" y="-151.3" font-family="Times,serif" font-size="14.00">:ui:core</text>
</g>
<!-- :ui:test:screenshot&#45;&gt;:ui:core -->
<g id="edge13" class="edge">
<title>:ui:test:screenshot&#45;&gt;:ui:core</title>
<path fill="none" stroke="black" stroke-dasharray="1,5" d="M1058.22,-284.63C1058.22,-284.63 1058.22,-175.67 1058.22,-175.67"/>
<polygon fill="black" stroke="black" points="1061.72,-175.67 1058.22,-165.67 1054.72,-175.67 1061.72,-175.67"/>
</g>
<!-- :test:image -->
<g id="node13" class="node">
<title>:test:image</title>
<ellipse fill="#9affb5" stroke="black" cx="1147.89" cy="-155" rx="63.09" ry="18"/>
<text text-anchor="middle" x="1147.89" y="-151.3" font-family="Times,serif" font-size="14.00">:test:image</text>
</g>
<!-- :ui:test:screenshot&#45;&gt;:test:image -->
<g id="edge14" class="edge">
<title>:ui:test:screenshot&#45;&gt;:test:image</title>
<path fill="none" stroke="black" stroke-dasharray="1,5" d="M1147.89,-273.81C1147.89,-273.81 1147.89,-183.27 1147.89,-183.27"/>
<polygon fill="black" stroke="black" points="1151.39,-183.27 1147.89,-173.27 1144.39,-183.27 1151.39,-183.27"/>
</g>
<!-- :ui:common&#45;&gt;:ui:test:screenshot -->
<g id="edge15" class="edge">
<title>:ui:common&#45;&gt;:ui:test:screenshot</title>
<path fill="none" stroke="#ff9ab1" stroke-dasharray="1,5" d="M765.74,-438C876.77,-438 1114.61,-438 1114.61,-438 1114.61,-438 1114.61,-319.03 1114.61,-319.03"/>
<polygon fill="#ff9ab1" stroke="#ff9ab1" points="1118.11,-319.03 1114.61,-309.03 1111.11,-319.03 1118.11,-319.03"/>
</g>
<!-- :ui:common&#45;&gt;:shared:domain -->
<g id="edge16" class="edge">
<title>:ui:common&#45;&gt;:shared:domain</title>
<path fill="none" stroke="black" d="M649.1,-423C619.59,-423 590.42,-423 590.42,-423 590.42,-423 590.42,-175.84 590.42,-175.84"/>
<polygon fill="black" stroke="black" points="593.92,-175.84 590.42,-165.84 586.92,-175.84 593.92,-175.84"/>
</g>
<!-- :ui:common&#45;&gt;:core:preferences -->
<g id="edge20" class="edge">
<title>:ui:common&#45;&gt;:core:preferences</title>
<path fill="none" stroke="black" stroke-dasharray="1,5" d="M729.25,-411.65C729.25,-411.65 729.25,-317.52 729.25,-317.52"/>
<polygon fill="black" stroke="black" points="732.75,-317.52 729.25,-307.52 725.75,-317.52 732.75,-317.52"/>
</g>
<!-- :ui:common&#45;&gt;:core:logging:api -->
<g id="edge21" class="edge">
<title>:ui:common&#45;&gt;:core:logging:api</title>
<path fill="none" stroke="black" stroke-dasharray="1,5" d="M664.9,-415.94C664.9,-391.88 664.9,-343 664.9,-343 664.9,-343 312.05,-343 312.05,-343 312.05,-343 312.05,-172.6 312.05,-172.6"/>
<polygon fill="black" stroke="black" points="315.55,-172.6 312.05,-162.6 308.55,-172.6 315.55,-172.6"/>
</g>
<!-- :ui:common&#45;&gt;:ui:image -->
<g id="edge22" class="edge">
<title>:ui:common&#45;&gt;:ui:image</title>
<path fill="none" stroke="black" stroke-dasharray="1,5" d="M765.88,-420C828.69,-420 921.91,-420 921.91,-420 921.91,-420 921.91,-319 921.91,-319"/>
<polygon fill="black" stroke="black" points="925.41,-319 921.91,-309 918.41,-319 925.41,-319"/>
</g>
<!-- :ui:common&#45;&gt;:data:musicbrainz -->
<g id="edge19" class="edge">
<title>:ui:common&#45;&gt;:data:musicbrainz</title>
<path fill="none" stroke="black" stroke-dasharray="1,5" d="M674.58,-413.82C674.58,-378.15 674.58,-292 674.58,-292 674.58,-292 561.67,-292 561.67,-292"/>
<polygon fill="black" stroke="black" points="561.67,-288.5 551.67,-292 561.67,-295.5 561.67,-288.5"/>
</g>
<!-- :ui:common&#45;&gt;:data:coverart -->
<g id="edge18" class="edge">
<title>:ui:common&#45;&gt;:data:coverart</title>
<path fill="none" stroke="black" stroke-dasharray="1,5" d="M655.23,-419.46C655.23,-404.45 655.23,-377 655.23,-377 655.23,-377 298.84,-377 298.84,-377 298.84,-377 298.84,-310.78 298.84,-310.78"/>
<polygon fill="black" stroke="black" points="302.34,-310.78 298.84,-300.78 295.34,-310.78 302.34,-310.78"/>
</g>
<!-- :ui:common&#45;&gt;:ui:core -->
<g id="edge17" class="edge">
<title>:ui:common&#45;&gt;:ui:core</title>
<path fill="none" stroke="black" d="M774.55,-429C865.95,-429 1021.95,-429 1021.95,-429 1021.95,-429 1021.95,-183.4 1021.95,-183.4"/>
<polygon fill="black" stroke="black" points="1025.45,-183.4 1021.95,-173.4 1018.45,-183.4 1025.45,-183.4"/>
</g>
<!-- :core:preferences&#45;&gt;:shared:domain -->
<g id="edge23" class="edge">
<title>:core:preferences&#45;&gt;:shared:domain</title>
<path fill="none" stroke="black" stroke-dasharray="1,5" d="M696.36,-283C648.1,-283 595.76,-283 595.76,-283 595.76,-283 595.76,-174.21 595.76,-174.21"/>
<polygon fill="black" stroke="black" points="599.26,-174.21 595.76,-164.21 592.26,-174.21 599.26,-174.21"/>
</g>
<!-- :core:coroutines -->
<g id="node14" class="node">
<title>:core:coroutines</title>
<ellipse fill="#b59aff" stroke="black" cx="775.89" cy="-155" rx="85.29" ry="18"/>
<text text-anchor="middle" x="775.89" y="-151.3" font-family="Times,serif" font-size="14.00">:core:coroutines</text>
</g>
<!-- :core:preferences&#45;&gt;:core:coroutines -->
<g id="edge24" class="edge">
<title>:core:preferences&#45;&gt;:core:coroutines</title>
<path fill="none" stroke="black" stroke-dasharray="1,5" d="M775.89,-273.81C775.89,-273.81 775.89,-183.27 775.89,-183.27"/>
<polygon fill="black" stroke="black" points="779.39,-183.27 775.89,-173.27 772.39,-183.27 779.39,-183.27"/>
</g>
<!-- :data:spotify&#45;&gt;:shared:domain -->
<g id="edge25" class="edge">
<title>:data:spotify&#45;&gt;:shared:domain</title>
<path fill="none" stroke="black" stroke-dasharray="1,5" d="M68.89,-273.81C68.89,-258.82 68.89,-240 68.89,-240 68.89,-240 478.06,-240 478.06,-240 478.06,-240 478.06,-180.2 478.06,-180.2"/>
<polygon fill="black" stroke="black" points="481.56,-180.2 478.06,-170.2 474.56,-180.2 481.56,-180.2"/>
</g>
<!-- :data:spotify&#45;&gt;:core:logging:api -->
<g id="edge26" class="edge">
<title>:data:spotify&#45;&gt;:core:logging:api</title>
<path fill="none" stroke="black" stroke-dasharray="1,5" d="M137.96,-292C143.85,-292 147.62,-292 147.62,-292 147.62,-292 147.62,-170.54 147.62,-170.54"/>
<polygon fill="black" stroke="black" points="151.12,-170.54 147.62,-160.54 144.12,-170.54 151.12,-170.54"/>
</g>
<!-- :ui:image&#45;&gt;:shared:domain -->
<g id="edge27" class="edge">
<title>:ui:image&#45;&gt;:shared:domain</title>
<path fill="none" stroke="black" stroke-dasharray="1,5" d="M912.8,-276.23C912.8,-251.4 912.8,-206 912.8,-206 912.8,-206 601.1,-206 601.1,-206 601.1,-206 601.1,-171.67 601.1,-171.67"/>
<polygon fill="black" stroke="black" points="604.6,-171.67 601.1,-161.67 597.6,-171.67 604.6,-171.67"/>
</g>
<!-- :ui:image&#45;&gt;:ui:core -->
<g id="edge28" class="edge">
<title>:ui:image&#45;&gt;:ui:core</title>
<path fill="none" stroke="black" stroke-dasharray="1,5" d="M984.62,-281.7C984.62,-281.7 984.62,-176.18 984.62,-176.18"/>
<polygon fill="black" stroke="black" points="988.12,-176.18 984.62,-166.18 981.12,-176.18 988.12,-176.18"/>
</g>
<!-- :data:musicbrainz&#45;&gt;:shared:domain -->
<g id="edge29" class="edge">
<title>:data:musicbrainz&#45;&gt;:shared:domain</title>
<path fill="none" stroke="black" stroke-dasharray="1,5" d="M514.77,-277.6C514.77,-277.6 514.77,-183.09 514.77,-183.09"/>
<polygon fill="black" stroke="black" points="518.27,-183.09 514.77,-173.09 511.27,-183.09 518.27,-183.09"/>
</g>
<!-- :data:musicbrainz&#45;&gt;:core:logging:api -->
<g id="edge30" class="edge">
<title>:data:musicbrainz&#45;&gt;:core:logging:api</title>
<path fill="none" stroke="black" stroke-dasharray="1,5" d="M369.35,-286C340.7,-286 316.17,-286 316.17,-286 316.17,-286 316.17,-170.63 316.17,-170.63"/>
<polygon fill="black" stroke="black" points="319.67,-170.63 316.17,-160.63 312.67,-170.63 319.67,-170.63"/>
</g>
<!-- :data:coverart&#45;&gt;:shared:domain -->
<g id="edge31" class="edge">
<title>:data:coverart&#45;&gt;:shared:domain</title>
<path fill="none" stroke="black" stroke-dasharray="1,5" d="M303.76,-298C321.21,-298 334.96,-298 334.96,-298 334.96,-298 334.96,-149 334.96,-149 334.96,-149 435.96,-149 435.96,-149"/>
<polygon fill="black" stroke="black" points="435.96,-152.5 445.96,-149 435.96,-145.5 435.96,-152.5"/>
</g>
<!-- :data:coverart&#45;&gt;:core:logging:api -->
<g id="edge32" class="edge">
<title>:data:coverart&#45;&gt;:core:logging:api</title>
<path fill="none" stroke="black" stroke-dasharray="1,5" d="M231.89,-273.81C231.89,-273.81 231.89,-183.27 231.89,-183.27"/>
<polygon fill="black" stroke="black" points="235.39,-183.27 231.89,-173.27 228.39,-183.27 235.39,-183.27"/>
</g>
<!-- :shared:strings -->
<g id="node15" class="node">
<title>:shared:strings</title>
<ellipse fill="#b59aff" stroke="black" cx="1020.89" cy="-18" rx="81.49" ry="18"/>
<text text-anchor="middle" x="1020.89" y="-14.3" font-family="Times,serif" font-size="14.00">:shared:strings</text>
</g>
<!-- :ui:core&#45;&gt;:shared:strings -->
<g id="edge33" class="edge">
<title>:ui:core&#45;&gt;:shared:strings</title>
<path fill="none" stroke="black" d="M1020.89,-136.81C1020.89,-136.81 1020.89,-46.27 1020.89,-46.27"/>
<polygon fill="black" stroke="black" points="1024.39,-46.27 1020.89,-36.27 1017.39,-46.27 1024.39,-46.27"/>
</g>
</g>
</svg>
