<?xml version="1.0" encoding="UTF-8" standalone="no"?>
<!DOCTYPE svg PUBLIC "-//W3C//DTD SVG 1.1//EN"
 "http://www.w3.org/Graphics/SVG/1.1/DTD/svg11.dtd">
<!-- Generated by graphviz version 2.43.0 (0)
 -->
<!-- Title: %3 Pages: 1 -->
<svg width="960pt" height="1077pt"
 viewBox="0.00 0.00 960.23 1077.00" xmlns="http://www.w3.org/2000/svg" xmlns:xlink="http://www.w3.org/1999/xlink">
<g id="graph0" class="graph" transform="scale(1 1) rotate(0) translate(4 1073)">
<title>%3</title>
<polygon fill="white" stroke="transparent" points="-4,4 -4,-1073 956.23,-1073 956.23,4 -4,4"/>
<text text-anchor="middle" x="476.12" y="-1041" font-family="Times,serif" font-size="30.00">Dependencies</text>
<text text-anchor="middle" x="476.12" y="-1008" font-family="Times,serif" font-size="30.00"> </text>
<!-- :shared:feature:details -->
<g id="node1" class="node">
<title>:shared:feature:details</title>
<polygon fill="#b59aff" stroke="black" points="672.89,-995 493.89,-995 493.89,-959 672.89,-959 672.89,-995"/>
<text text-anchor="middle" x="583.39" y="-973.3" font-family="Times,serif" font-size="14.00">:shared:feature:details</text>
</g>
<!-- :test&#45;data -->
<g id="node2" class="node">
<title>:test&#45;data</title>
<ellipse fill="#b59aff" stroke="black" cx="391.39" cy="-703" rx="55.49" ry="18"/>
<text text-anchor="middle" x="391.39" y="-699.3" font-family="Times,serif" font-size="14.00">:test&#45;data</text>
</g>
<!-- :shared:feature:details&#45;&gt;:test&#45;data -->
<g id="edge1" class="edge">
<title>:shared:feature:details&#45;&gt;:test&#45;data</title>
<path fill="none" stroke="#ff9ab1" stroke-dasharray="1,5" d="M498.02,-958.6C498.02,-897.16 498.02,-703 498.02,-703 498.02,-703 456.89,-703 456.89,-703"/>
<polygon fill="#ff9ab1" stroke="#ff9ab1" points="456.89,-699.5 446.89,-703 456.89,-706.5 456.89,-699.5"/>
</g>
<!-- :ui:test:screenshot -->
<g id="node3" class="node">
<title>:ui:test:screenshot</title>
<ellipse fill="#9affb5" stroke="black" cx="855.39" cy="-703" rx="96.68" ry="18"/>
<text text-anchor="middle" x="855.39" y="-699.3" font-family="Times,serif" font-size="14.00">:ui:test:screenshot</text>
</g>
<!-- :shared:feature:details&#45;&gt;:ui:test:screenshot -->
<g id="edge2" class="edge">
<title>:shared:feature:details&#45;&gt;:ui:test:screenshot</title>
<path fill="none" stroke="#ff9ab1" stroke-dasharray="1,5" d="M670.14,-958.6C670.14,-897.16 670.14,-703 670.14,-703 670.14,-703 748.43,-703 748.43,-703"/>
<polygon fill="#ff9ab1" stroke="#ff9ab1" points="748.43,-706.5 758.43,-703 748.43,-699.5 748.43,-706.5"/>
</g>
<!-- :ui:common -->
<g id="node4" class="node">
<title>:ui:common</title>
<ellipse fill="#b59aff" stroke="black" cx="583.39" cy="-840" rx="64.19" ry="18"/>
<text text-anchor="middle" x="583.39" y="-836.3" font-family="Times,serif" font-size="14.00">:ui:common</text>
</g>
<!-- :shared:feature:details&#45;&gt;:ui:common -->
<g id="edge3" class="edge">
<title>:shared:feature:details&#45;&gt;:ui:common</title>
<path fill="none" stroke="black" stroke-dasharray="1,5" d="M583.39,-958.81C583.39,-958.81 583.39,-868.27 583.39,-868.27"/>
<polygon fill="black" stroke="black" points="586.89,-868.27 583.39,-858.27 579.89,-868.27 586.89,-868.27"/>
</g>
<!-- :shared:domain -->
<g id="node5" class="node">
<title>:shared:domain</title>
<ellipse fill="#b59aff" stroke="black" cx="443.39" cy="-155" rx="82.59" ry="18"/>
<text text-anchor="middle" x="443.39" y="-151.3" font-family="Times,serif" font-size="14.00">:shared:domain</text>
</g>
<!-- :shared:feature:details&#45;&gt;:shared:domain -->
<g id="edge4" class="edge">
<title>:shared:feature:details&#45;&gt;:shared:domain</title>
<path fill="none" stroke="black" stroke-dasharray="1,5" d="M667.39,-958.68C667.39,-837.39 667.39,-155 667.39,-155 667.39,-155 536.16,-155 536.16,-155"/>
<polygon fill="black" stroke="black" points="536.16,-151.5 526.16,-155 536.16,-158.5 536.16,-151.5"/>
</g>
<!-- :core:logging:api -->
<g id="node6" class="node">
<title>:core:logging:api</title>
<ellipse fill="#b59aff" stroke="black" cx="88.39" cy="-155" rx="88.28" ry="18"/>
<text text-anchor="middle" x="88.39" y="-151.3" font-family="Times,serif" font-size="14.00">:core:logging:api</text>
</g>
<!-- :shared:feature:details&#45;&gt;:core:logging:api -->
<g id="edge5" class="edge">
<title>:shared:feature:details&#45;&gt;:core:logging:api</title>
<path fill="none" stroke="black" stroke-dasharray="1,5" d="M493.75,-977C333.32,-977 13.7,-977 13.7,-977 13.7,-977 13.7,-174.8 13.7,-174.8"/>
<polygon fill="black" stroke="black" points="17.2,-174.8 13.7,-164.8 10.2,-174.8 17.2,-174.8"/>
</g>
<!-- :test&#45;data&#45;&gt;:shared:domain -->
<g id="edge6" class="edge">
<title>:test&#45;data&#45;&gt;:shared:domain</title>
<path fill="none" stroke="black" stroke-dasharray="1,5" d="M371.77,-686C371.77,-686 371.77,-174.22 371.77,-174.22"/>
<polygon fill="black" stroke="black" points="375.27,-174.22 371.77,-164.22 368.27,-174.22 375.27,-174.22"/>
</g>
<!-- :core:coroutines -->
<g id="node7" class="node">
<title>:core:coroutines</title>
<ellipse fill="#b59aff" stroke="black" cx="270.39" cy="-18" rx="85.29" ry="18"/>
<text text-anchor="middle" x="270.39" y="-14.3" font-family="Times,serif" font-size="14.00">:core:coroutines</text>
</g>
<!-- :test&#45;data&#45;&gt;:core:coroutines -->
<g id="edge7" class="edge">
<title>:test&#45;data&#45;&gt;:core:coroutines</title>
<path fill="none" stroke="black" stroke-dasharray="1,5" d="M350,-690.82C350,-690.82 350,-34.55 350,-34.55"/>
<polygon fill="black" stroke="black" points="353.5,-34.55 350,-24.55 346.5,-34.55 353.5,-34.55"/>
</g>
<!-- :data:database -->
<g id="node8" class="node">
<title>:data:database</title>
<ellipse fill="#b59aff" stroke="black" cx="209.39" cy="-429" rx="79.09" ry="18"/>
<text text-anchor="middle" x="209.39" y="-425.3" font-family="Times,serif" font-size="14.00">:data:database</text>
</g>
<!-- :test&#45;data&#45;&gt;:data:database -->
<g id="edge8" class="edge">
<title>:test&#45;data&#45;&gt;:data:database</title>
<path fill="none" stroke="black" stroke-dasharray="1,5" d="M344.46,-693.46C344.46,-645.72 344.46,-435 344.46,-435 344.46,-435 294.43,-435 294.43,-435"/>
<polygon fill="black" stroke="black" points="294.43,-431.5 284.43,-435 294.43,-438.5 294.43,-431.5"/>
</g>
<!-- :data:musicbrainz -->
<g id="node9" class="node">
<title>:data:musicbrainz</title>
<ellipse fill="#b59aff" stroke="black" cx="148.39" cy="-292" rx="93.68" ry="18"/>
<text text-anchor="middle" x="148.39" y="-288.3" font-family="Times,serif" font-size="14.00">:data:musicbrainz</text>
</g>
<!-- :test&#45;data&#45;&gt;:data:musicbrainz -->
<g id="edge9" class="edge">
<title>:test&#45;data&#45;&gt;:data:musicbrainz</title>
<path fill="none" stroke="black" stroke-dasharray="1,5" d="M347.23,-691.83C347.23,-626.9 347.23,-301 347.23,-301 347.23,-301 239.55,-301 239.55,-301"/>
<polygon fill="black" stroke="black" points="239.55,-297.5 229.55,-301 239.55,-304.5 239.55,-297.5"/>
</g>
<!-- :data:coverart -->
<g id="node10" class="node">
<title>:data:coverart</title>
<ellipse fill="#b59aff" stroke="black" cx="174.39" cy="-566" rx="76.09" ry="18"/>
<text text-anchor="middle" x="174.39" y="-562.3" font-family="Times,serif" font-size="14.00">:data:coverart</text>
</g>
<!-- :test&#45;data&#45;&gt;:data:coverart -->
<g id="edge10" class="edge">
<title>:test&#45;data&#45;&gt;:data:coverart</title>
<path fill="none" stroke="black" stroke-dasharray="1,5" d="M338.92,-697.37C338.92,-672.3 338.92,-572 338.92,-572 338.92,-572 256.56,-572 256.56,-572"/>
<polygon fill="black" stroke="black" points="256.56,-568.5 246.56,-572 256.55,-575.5 256.56,-568.5"/>
</g>
<!-- :data:spotify -->
<g id="node11" class="node">
<title>:data:spotify</title>
<ellipse fill="#b59aff" stroke="black" cx="443.39" cy="-292" rx="68.79" ry="18"/>
<text text-anchor="middle" x="443.39" y="-288.3" font-family="Times,serif" font-size="14.00">:data:spotify</text>
</g>
<!-- :test&#45;data&#45;&gt;:data:spotify -->
<g id="edge11" class="edge">
<title>:test&#45;data&#45;&gt;:data:spotify</title>
<path fill="none" stroke="black" stroke-dasharray="1,5" d="M410.57,-685.86C410.57,-685.86 410.57,-317.86 410.57,-317.86"/>
<polygon fill="black" stroke="black" points="414.07,-317.86 410.57,-307.86 407.07,-317.86 414.07,-317.86"/>
</g>
<!-- :test:image -->
<g id="node12" class="node">
<title>:test:image</title>
<ellipse fill="#9affb5" stroke="black" cx="819.39" cy="-566" rx="63.09" ry="18"/>
<text text-anchor="middle" x="819.39" y="-562.3" font-family="Times,serif" font-size="14.00">:test:image</text>
</g>
<!-- :ui:test:screenshot&#45;&gt;:test:image -->
<g id="edge12" class="edge">
<title>:ui:test:screenshot&#45;&gt;:test:image</title>
<path fill="none" stroke="black" stroke-dasharray="1,5" d="M820.49,-686.2C820.49,-686.2 820.49,-594.25 820.49,-594.25"/>
<polygon fill="black" stroke="black" points="823.99,-594.25 820.49,-584.25 816.99,-594.25 823.99,-594.25"/>
</g>
<!-- :ui:common&#45;&gt;:test&#45;data -->
<g id="edge14" class="edge">
<title>:ui:common&#45;&gt;:test&#45;data</title>
<path fill="none" stroke="#ff9ab1" stroke-dasharray="1,5" d="M532.44,-829C475.56,-829 391.39,-829 391.39,-829 391.39,-829 391.39,-731.05 391.39,-731.05"/>
<polygon fill="#ff9ab1" stroke="#ff9ab1" points="394.89,-731.05 391.39,-721.05 387.89,-731.05 394.89,-731.05"/>
</g>
<!-- :ui:common&#45;&gt;:ui:test:screenshot -->
<g id="edge15" class="edge">
<title>:ui:common&#45;&gt;:ui:test:screenshot</title>
<path fill="none" stroke="#ff9ab1" stroke-dasharray="1,5" d="M644.1,-846C724.26,-846 855.39,-846 855.39,-846 855.39,-846 855.39,-731.11 855.39,-731.11"/>
<polygon fill="#ff9ab1" stroke="#ff9ab1" points="858.89,-731.11 855.39,-721.11 851.89,-731.11 858.89,-731.11"/>
</g>
<!-- :ui:common&#45;&gt;:shared:domain -->
<g id="edge17" class="edge">
<title>:ui:common&#45;&gt;:shared:domain</title>
<path fill="none" stroke="black" d="M520.34,-836C443.64,-836 324.28,-836 324.28,-836 324.28,-836 324.28,-164 324.28,-164 324.28,-164 361.7,-164 361.7,-164"/>
<polygon fill="black" stroke="black" points="361.7,-167.5 371.7,-164 361.7,-160.5 361.7,-167.5"/>
</g>
<!-- :ui:common&#45;&gt;:core:logging:api -->
<g id="edge19" class="edge">
<title>:ui:common&#45;&gt;:core:logging:api</title>
<path fill="none" stroke="black" stroke-dasharray="1,5" d="M529.83,-850C390.48,-850 27.4,-850 27.4,-850 27.4,-850 27.4,-178.26 27.4,-178.26"/>
<polygon fill="black" stroke="black" points="30.9,-178.26 27.4,-168.26 23.9,-178.26 30.9,-178.26"/>
</g>
<!-- :ui:common&#45;&gt;:core:coroutines -->
<g id="edge16" class="edge">
<title>:ui:common&#45;&gt;:core:coroutines</title>
<path fill="none" stroke="#ff9ab1" stroke-dasharray="1,5" d="M519.86,-843C439.77,-843 312.42,-843 312.42,-843 312.42,-843 312.42,-43.74 312.42,-43.74"/>
<polygon fill="#ff9ab1" stroke="#ff9ab1" points="315.92,-43.74 312.42,-33.74 308.92,-43.74 315.92,-43.74"/>
</g>
<!-- :ui:common&#45;&gt;:test:image -->
<g id="edge13" class="edge">
<title>:ui:common&#45;&gt;:test:image</title>
<path fill="none" stroke="black" stroke-dasharray="1,5" d="M644.4,-834C678.67,-834 714.62,-834 714.62,-834 714.62,-834 714.62,-578 714.62,-578 714.62,-578 762.22,-578 762.22,-578"/>
<polygon fill="black" stroke="black" points="762.22,-581.5 772.22,-578 762.22,-574.5 762.22,-581.5"/>
</g>
<!-- :shared:strings -->
<g id="node13" class="node">
<title>:shared:strings</title>
<ellipse fill="#b59aff" stroke="black" cx="583.39" cy="-703" rx="81.49" ry="18"/>
<text text-anchor="middle" x="583.39" y="-699.3" font-family="Times,serif" font-size="14.00">:shared:strings</text>
</g>
<!-- :ui:common&#45;&gt;:shared:strings -->
<g id="edge18" class="edge">
<title>:ui:common&#45;&gt;:shared:strings</title>
<path fill="none" stroke="black" d="M583.39,-821.81C583.39,-821.81 583.39,-731.27 583.39,-731.27"/>
<polygon fill="black" stroke="black" points="586.89,-731.27 583.39,-721.27 579.89,-731.27 586.89,-731.27"/>
</g>
<!-- :core:logging:api&#45;&gt;:core:coroutines -->
<g id="edge20" class="edge">
<title>:core:logging:api&#45;&gt;:core:coroutines</title>
<path fill="none" stroke="black" d="M165.2,-146C191.12,-146 213.62,-146 213.62,-146 213.62,-146 213.62,-41.7 213.62,-41.7"/>
<polygon fill="black" stroke="black" points="217.12,-41.7 213.62,-31.7 210.12,-41.7 217.12,-41.7"/>
</g>
<!-- :data:database&#45;&gt;:shared:domain -->
<g id="edge21" class="edge">
<title>:data:database&#45;&gt;:shared:domain</title>
<path fill="none" stroke="black" stroke-dasharray="1,5" d="M284.17,-423C324.59,-423 366.31,-423 366.31,-423 366.31,-423 366.31,-171.62 366.31,-171.62"/>
<polygon fill="black" stroke="black" points="369.81,-171.62 366.31,-161.62 362.81,-171.62 369.81,-171.62"/>
</g>
<!-- :data:database&#45;&gt;:core:coroutines -->
<g id="edge22" class="edge">
<title>:data:database&#45;&gt;:core:coroutines</title>
<path fill="none" stroke="black" stroke-dasharray="1,5" d="M265.33,-415.79C265.33,-415.79 265.33,-46.28 265.33,-46.28"/>
<polygon fill="black" stroke="black" points="268.83,-46.27 265.33,-36.28 261.83,-46.28 268.83,-46.27"/>
</g>
<!-- :data:database&#45;&gt;:data:musicbrainz -->
<g id="edge23" class="edge">
<title>:data:database&#45;&gt;:data:musicbrainz</title>
<path fill="none" stroke="black" stroke-dasharray="1,5" d="M186.04,-411.65C186.04,-411.65 186.04,-318.78 186.04,-318.78"/>
<polygon fill="black" stroke="black" points="189.54,-318.78 186.04,-308.78 182.54,-318.78 189.54,-318.78"/>
</g>
<!-- :data:musicbrainz&#45;&gt;:shared:domain -->
<g id="edge24" class="edge">
<title>:data:musicbrainz&#45;&gt;:shared:domain</title>
<path fill="none" stroke="black" stroke-dasharray="1,5" d="M229.75,-283C290.68,-283 363.58,-283 363.58,-283 363.58,-283 363.58,-169.86 363.58,-169.86"/>
<polygon fill="black" stroke="black" points="367.08,-169.86 363.58,-159.86 360.08,-169.86 367.08,-169.86"/>
</g>
<!-- :data:musicbrainz&#45;&gt;:core:logging:api -->
<g id="edge25" class="edge">
<title>:data:musicbrainz&#45;&gt;:core:logging:api</title>
<path fill="none" stroke="black" stroke-dasharray="1,5" d="M115.79,-274.93C115.79,-274.93 115.79,-182.29 115.79,-182.29"/>
<polygon fill="black" stroke="black" points="119.29,-182.29 115.79,-172.29 112.29,-182.29 119.29,-182.29"/>
</g>
<!-- :data:coverart&#45;&gt;:test&#45;data -->
<g id="edge29" class="edge">
<title>:data:coverart&#45;&gt;:test&#45;data</title>
<path fill="none" stroke="#ff9ab1" stroke-dasharray="1,5" d="M250.7,-566C294.82,-566 341.69,-566 341.69,-566 341.69,-566 341.69,-684.84 341.69,-684.84"/>
<polygon fill="#ff9ab1" stroke="#ff9ab1" points="338.19,-684.84 341.69,-694.84 345.19,-684.84 338.19,-684.84"/>
</g>
<!-- :data:coverart&#45;&gt;:shared:domain -->
<g id="edge26" class="edge">
<title>:data:coverart&#45;&gt;:shared:domain</title>
<path fill="none" stroke="black" stroke-dasharray="1,5" d="M246.32,-560C301.77,-560 369.04,-560 369.04,-560 369.04,-560 369.04,-173.09 369.04,-173.09"/>
<polygon fill="black" stroke="black" points="372.54,-173.09 369.04,-163.09 365.54,-173.09 372.54,-173.09"/>
</g>
<!-- :data:coverart&#45;&gt;:core:logging:api -->
<g id="edge27" class="edge">
<title>:data:coverart&#45;&gt;:core:logging:api</title>
<path fill="none" stroke="black" stroke-dasharray="1,5" d="M98.01,-566C68.23,-566 41.1,-566 41.1,-566 41.1,-566 41.1,-180.61 41.1,-180.61"/>
<polygon fill="black" stroke="black" points="44.6,-180.61 41.1,-170.61 37.6,-180.61 44.6,-180.61"/>
</g>
<!-- :data:coverart&#45;&gt;:core:coroutines -->
<g id="edge28" class="edge">
<title>:data:coverart&#45;&gt;:core:coroutines</title>
<path fill="none" stroke="black" stroke-dasharray="1,5" d="M231.2,-554C264.68,-554 300.55,-554 300.55,-554 300.55,-554 300.55,-44.93 300.55,-44.93"/>
<polygon fill="black" stroke="black" points="304.05,-44.93 300.55,-34.93 297.05,-44.93 304.05,-44.93"/>
</g>
<!-- :data:coverart&#45;&gt;:data:database -->
<g id="edge31" class="edge">
<title>:data:coverart&#45;&gt;:data:database</title>
<path fill="none" stroke="#ff9ab1" stroke-dasharray="1,5" d="M190.27,-548.37C190.27,-548.37 190.27,-456.56 190.27,-456.56"/>
<polygon fill="#ff9ab1" stroke="#ff9ab1" points="193.77,-456.56 190.27,-446.56 186.77,-456.56 193.77,-456.56"/>
</g>
<!-- :data:coverart&#45;&gt;:data:musicbrainz -->
<g id="edge30" class="edge">
<title>:data:coverart&#45;&gt;:data:musicbrainz</title>
<path fill="none" stroke="#ff9ab1" stroke-dasharray="1,5" d="M114.22,-554.92C114.22,-554.92 114.22,-318.87 114.22,-318.87"/>
<polygon fill="#ff9ab1" stroke="#ff9ab1" points="117.72,-318.87 114.22,-308.87 110.72,-318.87 117.72,-318.87"/>
</g>
<!-- :data:spotify&#45;&gt;:shared:domain -->
<g id="edge32" class="edge">
<title>:data:spotify&#45;&gt;:shared:domain</title>
<path fill="none" stroke="black" stroke-dasharray="1,5" d="M443.39,-273.81C443.39,-273.81 443.39,-183.27 443.39,-183.27"/>
<polygon fill="black" stroke="black" points="446.89,-183.27 443.39,-173.27 439.89,-183.27 446.89,-183.27"/>
</g>
<!-- :data:spotify&#45;&gt;:core:logging:api -->
<g id="edge33" class="edge">
<title>:data:spotify&#45;&gt;:core:logging:api</title>
<path fill="none" stroke="black" stroke-dasharray="1,5" d="M374.24,-292C361.84,-292 352.76,-292 352.76,-292 352.76,-292 352.76,-155 352.76,-155 352.76,-155 186.79,-155 186.79,-155"/>
<polygon fill="black" stroke="black" points="186.79,-151.5 176.79,-155 186.79,-158.5 186.79,-151.5"/>
</g>
</g>
</svg>
