<?xml version="1.0" encoding="UTF-8" standalone="no"?>
<!DOCTYPE svg PUBLIC "-//W3C//DTD SVG 1.1//EN"
 "http://www.w3.org/Graphics/SVG/1.1/DTD/svg11.dtd">
<!-- Generated by graphviz version 2.43.0 (0)
 -->
<!-- Title: %3 Pages: 1 -->
<svg width="1142pt" height="940pt"
 viewBox="0.00 0.00 1142.23 940.00" xmlns="http://www.w3.org/2000/svg" xmlns:xlink="http://www.w3.org/1999/xlink">
<g id="graph0" class="graph" transform="scale(1 1) rotate(0) translate(4 936)">
<title>%3</title>
<polygon fill="white" stroke="transparent" points="-4,4 -4,-936 1138.23,-936 1138.23,4 -4,4"/>
<text text-anchor="middle" x="567.12" y="-904" font-family="Times,serif" font-size="30.00">Dependencies</text>
<text text-anchor="middle" x="567.12" y="-871" font-family="Times,serif" font-size="30.00"> </text>
<!-- :shared:feature:details -->
<g id="node1" class="node">
<title>:shared:feature:details</title>
<polygon fill="#b59aff" stroke="black" points="407.34,-858 228.34,-858 228.34,-822 407.34,-822 407.34,-858"/>
<text text-anchor="middle" x="317.84" y="-836.3" font-family="Times,serif" font-size="14.00">:shared:feature:details</text>
</g>
<!-- :test&#45;data -->
<g id="node2" class="node">
<title>:test&#45;data</title>
<ellipse fill="#b59aff" stroke="black" cx="563.84" cy="-566" rx="55.49" ry="18"/>
<text text-anchor="middle" x="563.84" y="-562.3" font-family="Times,serif" font-size="14.00">:test&#45;data</text>
</g>
<!-- :shared:feature:details&#45;&gt;:test&#45;data -->
<g id="edge1" class="edge">
<title>:shared:feature:details&#45;&gt;:test&#45;data</title>
<path fill="none" stroke="#ff9ab1" stroke-dasharray="1,5" d="M407.35,-834C477.69,-834 563.84,-834 563.84,-834 563.84,-834 563.84,-594 563.84,-594"/>
<polygon fill="#ff9ab1" stroke="#ff9ab1" points="567.34,-594 563.84,-584 560.34,-594 567.34,-594"/>
</g>
<!-- :ui:test:screenshot -->
<g id="node3" class="node">
<title>:ui:test:screenshot</title>
<ellipse fill="#9affb5" stroke="black" cx="96.84" cy="-566" rx="96.68" ry="18"/>
<text text-anchor="middle" x="96.84" y="-562.3" font-family="Times,serif" font-size="14.00">:ui:test:screenshot</text>
</g>
<!-- :shared:feature:details&#45;&gt;:ui:test:screenshot -->
<g id="edge2" class="edge">
<title>:shared:feature:details&#45;&gt;:ui:test:screenshot</title>
<path fill="none" stroke="#ff9ab1" stroke-dasharray="1,5" d="M248.19,-822C248.19,-761.91 248.19,-572 248.19,-572 248.19,-572 198.37,-572 198.37,-572"/>
<polygon fill="#ff9ab1" stroke="#ff9ab1" points="198.37,-568.5 188.37,-572 198.37,-575.5 198.37,-568.5"/>
</g>
<!-- :ui:common -->
<g id="node4" class="node">
<title>:ui:common</title>
<ellipse fill="#b59aff" stroke="black" cx="363.84" cy="-703" rx="64.19" ry="18"/>
<text text-anchor="middle" x="363.84" y="-699.3" font-family="Times,serif" font-size="14.00">:ui:common</text>
</g>
<!-- :shared:feature:details&#45;&gt;:ui:common -->
<g id="edge3" class="edge">
<title>:shared:feature:details&#45;&gt;:ui:common</title>
<path fill="none" stroke="black" stroke-dasharray="1,5" d="M353.42,-821.81C353.42,-821.81 353.42,-730.83 353.42,-730.83"/>
<polygon fill="black" stroke="black" points="356.92,-730.83 353.42,-720.83 349.92,-730.83 356.92,-730.83"/>
</g>
<!-- :shared:domain -->
<g id="node5" class="node">
<title>:shared:domain</title>
<ellipse fill="#b59aff" stroke="black" cx="495.84" cy="-18" rx="82.59" ry="18"/>
<text text-anchor="middle" x="495.84" y="-14.3" font-family="Times,serif" font-size="14.00">:shared:domain</text>
</g>
<!-- :shared:feature:details&#45;&gt;:shared:domain -->
<g id="edge4" class="edge">
<title>:shared:feature:details&#45;&gt;:shared:domain</title>
<path fill="none" stroke="black" stroke-dasharray="1,5" d="M295.63,-821.72C295.63,-771.3 295.63,-634 295.63,-634 295.63,-634 398.77,-634 398.77,-634 398.77,-634 398.77,-12 398.77,-12 398.77,-12 407.95,-12 407.95,-12"/>
<polygon fill="black" stroke="black" points="407.95,-15.5 417.95,-12 407.95,-8.5 407.95,-15.5"/>
</g>
<!-- :core:logging:api -->
<g id="node6" class="node">
<title>:core:logging:api</title>
<ellipse fill="#b59aff" stroke="black" cx="1045.84" cy="-18" rx="88.28" ry="18"/>
<text text-anchor="middle" x="1045.84" y="-14.3" font-family="Times,serif" font-size="14.00">:core:logging:api</text>
</g>
<!-- :shared:feature:details&#45;&gt;:core:logging:api -->
<g id="edge5" class="edge">
<title>:shared:feature:details&#45;&gt;:core:logging:api</title>
<path fill="none" stroke="black" stroke-dasharray="1,5" d="M407.38,-846C613.73,-846 1105.11,-846 1105.11,-846 1105.11,-846 1105.11,-41.68 1105.11,-41.68"/>
<polygon fill="black" stroke="black" points="1108.61,-41.68 1105.11,-31.68 1101.61,-41.68 1108.61,-41.68"/>
</g>
<!-- :ui:image -->
<g id="node7" class="node">
<title>:ui:image</title>
<ellipse fill="#b59aff" stroke="black" cx="341.84" cy="-566" rx="53.89" ry="18"/>
<text text-anchor="middle" x="341.84" y="-562.3" font-family="Times,serif" font-size="14.00">:ui:image</text>
</g>
<!-- :shared:feature:details&#45;&gt;:ui:image -->
<g id="edge6" class="edge">
<title>:shared:feature:details&#45;&gt;:ui:image</title>
<path fill="none" stroke="black" stroke-dasharray="1,5" d="M291.76,-821.6C291.76,-821.6 291.76,-583 291.76,-583"/>
<polygon fill="black" stroke="black" points="295.26,-583 291.76,-573 288.26,-583 295.26,-583"/>
</g>
<!-- :test&#45;data&#45;&gt;:shared:domain -->
<g id="edge7" class="edge">
<title>:test&#45;data&#45;&gt;:shared:domain</title>
<path fill="none" stroke="black" stroke-dasharray="1,5" d="M511.74,-560C465.34,-560 404.73,-560 404.73,-560 404.73,-560 404.73,-24 404.73,-24 404.73,-24 407.79,-24 407.79,-24"/>
<polygon fill="black" stroke="black" points="407.79,-27.5 417.79,-24 407.79,-20.5 407.79,-27.5"/>
</g>
<!-- :core:coroutines -->
<g id="node8" class="node">
<title>:core:coroutines</title>
<ellipse fill="#b59aff" stroke="black" cx="495.84" cy="-155" rx="85.29" ry="18"/>
<text text-anchor="middle" x="495.84" y="-151.3" font-family="Times,serif" font-size="14.00">:core:coroutines</text>
</g>
<!-- :test&#45;data&#45;&gt;:core:coroutines -->
<g id="edge8" class="edge">
<title>:test&#45;data&#45;&gt;:core:coroutines</title>
<path fill="none" stroke="black" stroke-dasharray="1,5" d="M514.91,-557.42C514.91,-557.42 514.91,-182.65 514.91,-182.65"/>
<polygon fill="black" stroke="black" points="518.41,-182.65 514.91,-172.65 511.41,-182.65 518.41,-182.65"/>
</g>
<!-- :data:database -->
<g id="node9" class="node">
<title>:data:database</title>
<ellipse fill="#b59aff" stroke="black" cx="606.84" cy="-292" rx="79.09" ry="18"/>
<text text-anchor="middle" x="606.84" y="-288.3" font-family="Times,serif" font-size="14.00">:data:database</text>
</g>
<!-- :test&#45;data&#45;&gt;:data:database -->
<g id="edge9" class="edge">
<title>:test&#45;data&#45;&gt;:data:database</title>
<path fill="none" stroke="black" stroke-dasharray="1,5" d="M559.67,-548.02C559.67,-548.02 559.67,-316.62 559.67,-316.62"/>
<polygon fill="black" stroke="black" points="563.17,-316.62 559.67,-306.62 556.17,-316.62 563.17,-316.62"/>
</g>
<!-- :data:musicbrainz -->
<g id="node10" class="node">
<title>:data:musicbrainz</title>
<ellipse fill="#b59aff" stroke="black" cx="768.84" cy="-155" rx="93.68" ry="18"/>
<text text-anchor="middle" x="768.84" y="-151.3" font-family="Times,serif" font-size="14.00">:data:musicbrainz</text>
</g>
<!-- :test&#45;data&#45;&gt;:data:musicbrainz -->
<g id="edge10" class="edge">
<title>:test&#45;data&#45;&gt;:data:musicbrainz</title>
<path fill="none" stroke="black" stroke-dasharray="1,5" d="M616.06,-560C686.48,-560 803.16,-560 803.16,-560 803.16,-560 803.16,-181.89 803.16,-181.89"/>
<polygon fill="black" stroke="black" points="806.66,-181.89 803.16,-171.89 799.66,-181.89 806.66,-181.89"/>
</g>
<!-- :data:coverart -->
<g id="node11" class="node">
<title>:data:coverart</title>
<ellipse fill="#b59aff" stroke="black" cx="667.84" cy="-429" rx="76.09" ry="18"/>
<text text-anchor="middle" x="667.84" y="-425.3" font-family="Times,serif" font-size="14.00">:data:coverart</text>
</g>
<!-- :test&#45;data&#45;&gt;:data:coverart -->
<g id="edge11" class="edge">
<title>:test&#45;data&#45;&gt;:data:coverart</title>
<path fill="none" stroke="black" stroke-dasharray="1,5" d="M600.89,-552.61C600.89,-552.61 600.89,-447.79 600.89,-447.79"/>
<polygon fill="black" stroke="black" points="604.39,-447.79 600.89,-437.79 597.39,-447.79 604.39,-447.79"/>
</g>
<!-- :data:spotify -->
<g id="node12" class="node">
<title>:data:spotify</title>
<ellipse fill="#b59aff" stroke="black" cx="948.84" cy="-155" rx="68.79" ry="18"/>
<text text-anchor="middle" x="948.84" y="-151.3" font-family="Times,serif" font-size="14.00">:data:spotify</text>
</g>
<!-- :test&#45;data&#45;&gt;:data:spotify -->
<g id="edge12" class="edge">
<title>:test&#45;data&#45;&gt;:data:spotify</title>
<path fill="none" stroke="black" stroke-dasharray="1,5" d="M616.16,-572C721.43,-572 948.84,-572 948.84,-572 948.84,-572 948.84,-183.19 948.84,-183.19"/>
<polygon fill="black" stroke="black" points="952.34,-183.19 948.84,-173.19 945.34,-183.19 952.34,-183.19"/>
</g>
<!-- :ui:core -->
<g id="node13" class="node">
<title>:ui:core</title>
<ellipse fill="#b59aff" stroke="black" cx="259.84" cy="-429" rx="45.49" ry="18"/>
<text text-anchor="middle" x="259.84" y="-425.3" font-family="Times,serif" font-size="14.00">:ui:core</text>
</g>
<!-- :ui:test:screenshot&#45;&gt;:ui:core -->
<g id="edge13" class="edge">
<title>:ui:test:screenshot&#45;&gt;:ui:core</title>
<path fill="none" stroke="black" stroke-dasharray="1,5" d="M188.31,-560C207.13,-560 221.34,-560 221.34,-560 221.34,-560 221.34,-448.85 221.34,-448.85"/>
<polygon fill="black" stroke="black" points="224.84,-448.85 221.34,-438.85 217.84,-448.85 224.84,-448.85"/>
</g>
<!-- :test:image -->
<g id="node14" class="node">
<title>:test:image</title>
<ellipse fill="#9affb5" stroke="black" cx="95.84" cy="-429" rx="63.09" ry="18"/>
<text text-anchor="middle" x="95.84" y="-425.3" font-family="Times,serif" font-size="14.00">:test:image</text>
</g>
<!-- :ui:test:screenshot&#45;&gt;:test:image -->
<g id="edge14" class="edge">
<title>:ui:test:screenshot&#45;&gt;:test:image</title>
<path fill="none" stroke="black" stroke-dasharray="1,5" d="M95.84,-547.81C95.84,-547.81 95.84,-457.27 95.84,-457.27"/>
<polygon fill="black" stroke="black" points="99.34,-457.27 95.84,-447.27 92.34,-457.27 99.34,-457.27"/>
</g>
<!-- :ui:common&#45;&gt;:test&#45;data -->
<g id="edge15" class="edge">
<title>:ui:common&#45;&gt;:test&#45;data</title>
<path fill="none" stroke="#ff9ab1" stroke-dasharray="1,5" d="M422.36,-695.2C422.36,-667 422.36,-572 422.36,-572 422.36,-572 501.56,-572 501.56,-572"/>
<polygon fill="#ff9ab1" stroke="#ff9ab1" points="501.56,-575.5 511.56,-572 501.56,-568.5 501.56,-575.5"/>
</g>
<!-- :ui:common&#45;&gt;:ui:test:screenshot -->
<g id="edge16" class="edge">
<title>:ui:common&#45;&gt;:ui:test:screenshot</title>
<path fill="none" stroke="#ff9ab1" stroke-dasharray="1,5" d="M302.92,-709C224.12,-709 96.84,-709 96.84,-709 96.84,-709 96.84,-594.11 96.84,-594.11"/>
<polygon fill="#ff9ab1" stroke="#ff9ab1" points="100.34,-594.11 96.84,-584.11 93.34,-594.11 100.34,-594.11"/>
</g>
<!-- :ui:common&#45;&gt;:shared:domain -->
<g id="edge18" class="edge">
<title>:ui:common&#45;&gt;:shared:domain</title>
<path fill="none" stroke="black" d="M401.75,-688.38C401.75,-589.1 401.75,-18 401.75,-18 401.75,-18 403.29,-18 403.29,-18"/>
<polygon fill="black" stroke="black" points="403.29,-21.5 413.29,-18 403.29,-14.5 403.29,-21.5"/>
</g>
<!-- :ui:common&#45;&gt;:core:logging:api -->
<g id="edge20" class="edge">
<title>:ui:common&#45;&gt;:core:logging:api</title>
<path fill="none" stroke="black" stroke-dasharray="1,5" d="M428.3,-703C603.6,-703 1075.98,-703 1075.98,-703 1075.98,-703 1075.98,-44.93 1075.98,-44.93"/>
<polygon fill="black" stroke="black" points="1079.48,-44.93 1075.98,-34.93 1072.48,-44.93 1079.48,-44.93"/>
</g>
<!-- :ui:common&#45;&gt;:ui:image -->
<g id="edge21" class="edge">
<title>:ui:common&#45;&gt;:ui:image</title>
<path fill="none" stroke="black" stroke-dasharray="1,5" d="M347.64,-685.37C347.64,-685.37 347.64,-594 347.64,-594"/>
<polygon fill="black" stroke="black" points="351.14,-594 347.64,-584 344.14,-594 351.14,-594"/>
</g>
<!-- :ui:common&#45;&gt;:core:coroutines -->
<g id="edge17" class="edge">
<title>:ui:common&#45;&gt;:core:coroutines</title>
<path fill="none" stroke="#ff9ab1" stroke-dasharray="1,5" d="M416.53,-692.54C416.53,-692.54 416.53,-171.55 416.53,-171.55"/>
<polygon fill="#ff9ab1" stroke="#ff9ab1" points="420.03,-171.55 416.53,-161.55 413.03,-171.55 420.03,-171.55"/>
</g>
<!-- :ui:common&#45;&gt;:ui:core -->
<g id="edge19" class="edge">
<title>:ui:common&#45;&gt;:ui:core</title>
<path fill="none" stroke="black" d="M303.17,-697C284.16,-697 268.04,-697 268.04,-697 268.04,-697 268.04,-457 268.04,-457"/>
<polygon fill="black" stroke="black" points="271.54,-457 268.04,-447 264.54,-457 271.54,-457"/>
</g>
<!-- :ui:image&#45;&gt;:shared:domain -->
<g id="edge22" class="edge">
<title>:ui:image&#45;&gt;:shared:domain</title>
<path fill="none" stroke="black" stroke-dasharray="1,5" d="M356.44,-548.6C356.44,-453.9 356.44,-5 356.44,-5 356.44,-5 428.74,-5 428.74,-5"/>
<polygon fill="black" stroke="black" points="428.74,-8.5 438.74,-5 428.74,-1.5 428.74,-8.5"/>
</g>
<!-- :ui:image&#45;&gt;:ui:core -->
<g id="edge23" class="edge">
<title>:ui:image&#45;&gt;:ui:core</title>
<path fill="none" stroke="black" stroke-dasharray="1,5" d="M296.62,-556.15C296.62,-556.15 296.62,-449.89 296.62,-449.89"/>
<polygon fill="black" stroke="black" points="300.12,-449.89 296.62,-439.89 293.12,-449.89 300.12,-449.89"/>
</g>
<!-- :data:database&#45;&gt;:shared:domain -->
<g id="edge24" class="edge">
<title>:data:database&#45;&gt;:shared:domain</title>
<path fill="none" stroke="black" stroke-dasharray="1,5" d="M628.12,-274.64C628.12,-214.82 628.12,-21 628.12,-21 628.12,-21 587.35,-21 587.35,-21"/>
<polygon fill="black" stroke="black" points="587.35,-17.5 577.35,-21 587.35,-24.5 587.35,-17.5"/>
</g>
<!-- :data:database&#45;&gt;:core:coroutines -->
<g id="edge25" class="edge">
<title>:data:database&#45;&gt;:core:coroutines</title>
<path fill="none" stroke="black" stroke-dasharray="1,5" d="M554.27,-278.36C554.27,-278.36 554.27,-178.18 554.27,-178.18"/>
<polygon fill="black" stroke="black" points="557.77,-178.18 554.27,-168.18 550.77,-178.18 557.77,-178.18"/>
</g>
<!-- :data:database&#45;&gt;:data:musicbrainz -->
<g id="edge26" class="edge">
<title>:data:database&#45;&gt;:data:musicbrainz</title>
<path fill="none" stroke="black" stroke-dasharray="1,5" d="M680.69,-285.39C680.69,-285.39 680.69,-171.23 680.69,-171.23"/>
<polygon fill="black" stroke="black" points="684.19,-171.23 680.69,-161.23 677.19,-171.23 684.19,-171.23"/>
</g>
<!-- :data:musicbrainz&#45;&gt;:shared:domain -->
<g id="edge27" class="edge">
<title>:data:musicbrainz&#45;&gt;:shared:domain</title>
<path fill="none" stroke="black" stroke-dasharray="1,5" d="M737.64,-137.99C737.64,-100.49 737.64,-14 737.64,-14 737.64,-14 586.36,-14 586.36,-14"/>
<polygon fill="black" stroke="black" points="586.36,-10.5 576.36,-14 586.36,-17.5 586.36,-10.5"/>
</g>
<!-- :data:musicbrainz&#45;&gt;:core:logging:api -->
<g id="edge28" class="edge">
<title>:data:musicbrainz&#45;&gt;:core:logging:api</title>
<path fill="none" stroke="black" stroke-dasharray="1,5" d="M800.04,-137.87C800.04,-103.21 800.04,-28 800.04,-28 800.04,-28 962.09,-28 962.09,-28"/>
<polygon fill="black" stroke="black" points="962.09,-31.5 972.09,-28 962.09,-24.5 962.09,-31.5"/>
</g>
<!-- :data:coverart&#45;&gt;:test&#45;data -->
<g id="edge32" class="edge">
<title>:data:coverart&#45;&gt;:test&#45;data</title>
<path fill="none" stroke="#ff9ab1" stroke-dasharray="1,5" d="M609.99,-441.16C609.99,-441.16 609.99,-545.95 609.99,-545.95"/>
<polygon fill="#ff9ab1" stroke="#ff9ab1" points="606.49,-545.95 609.99,-555.95 613.49,-545.95 606.49,-545.95"/>
</g>
<!-- :data:coverart&#45;&gt;:shared:domain -->
<g id="edge29" class="edge">
<title>:data:coverart&#45;&gt;:shared:domain</title>
<path fill="none" stroke="black" stroke-dasharray="1,5" d="M596.07,-435C519.08,-435 407.72,-435 407.72,-435 407.72,-435 407.72,-30 407.72,-30 407.72,-30 424.16,-30 424.16,-30"/>
<polygon fill="black" stroke="black" points="424.16,-33.5 434.16,-30 424.16,-26.5 424.16,-33.5"/>
</g>
<!-- :data:coverart&#45;&gt;:core:logging:api -->
<g id="edge30" class="edge">
<title>:data:coverart&#45;&gt;:core:logging:api</title>
<path fill="none" stroke="black" stroke-dasharray="1,5" d="M744.09,-429C854.77,-429 1046.86,-429 1046.86,-429 1046.86,-429 1046.86,-46.19 1046.86,-46.19"/>
<polygon fill="black" stroke="black" points="1050.36,-46.19 1046.86,-36.19 1043.36,-46.19 1050.36,-46.19"/>
</g>
<!-- :data:coverart&#45;&gt;:core:coroutines -->
<g id="edge31" class="edge">
<title>:data:coverart&#45;&gt;:core:coroutines</title>
<path fill="none" stroke="black" stroke-dasharray="1,5" d="M595.82,-423C558.75,-423 521.23,-423 521.23,-423 521.23,-423 521.23,-182.58 521.23,-182.58"/>
<polygon fill="black" stroke="black" points="524.73,-182.58 521.23,-172.58 517.73,-182.58 524.73,-182.58"/>
</g>
<!-- :data:coverart&#45;&gt;:data:database -->
<g id="edge34" class="edge">
<title>:data:coverart&#45;&gt;:data:database</title>
<path fill="none" stroke="#ff9ab1" stroke-dasharray="1,5" d="M638.97,-412.2C638.97,-412.2 638.97,-318.51 638.97,-318.51"/>
<polygon fill="#ff9ab1" stroke="#ff9ab1" points="642.47,-318.51 638.97,-308.51 635.47,-318.51 642.47,-318.51"/>
</g>
<!-- :data:coverart&#45;&gt;:data:musicbrainz -->
<g id="edge33" class="edge">
<title>:data:coverart&#45;&gt;:data:musicbrainz</title>
<path fill="none" stroke="#ff9ab1" stroke-dasharray="1,5" d="M715.01,-414.65C715.01,-414.65 715.01,-179.87 715.01,-179.87"/>
<polygon fill="#ff9ab1" stroke="#ff9ab1" points="718.51,-179.87 715.01,-169.87 711.51,-179.87 718.51,-179.87"/>
</g>
<!-- :data:spotify&#45;&gt;:shared:domain -->
<g id="edge35" class="edge">
<title>:data:spotify&#45;&gt;:shared:domain</title>
<path fill="none" stroke="black" stroke-dasharray="1,5" d="M918.7,-138.6C918.7,-100.06 918.7,-7 918.7,-7 918.7,-7 571.45,-7 571.45,-7"/>
<polygon fill="black" stroke="black" points="571.45,-3.5 561.45,-7 571.45,-10.5 571.45,-3.5"/>
</g>
<!-- :data:spotify&#45;&gt;:core:logging:api -->
<g id="edge36" class="edge">
<title>:data:spotify&#45;&gt;:core:logging:api</title>
<path fill="none" stroke="black" stroke-dasharray="1,5" d="M987.59,-140.08C987.59,-140.08 987.59,-41.68 987.59,-41.68"/>
<polygon fill="black" stroke="black" points="991.09,-41.68 987.59,-31.68 984.09,-41.68 991.09,-41.68"/>
</g>
<!-- :shared:strings -->
<g id="node15" class="node">
<title>:shared:strings</title>
<ellipse fill="#b59aff" stroke="black" cx="235.84" cy="-292" rx="81.49" ry="18"/>
<text text-anchor="middle" x="235.84" y="-288.3" font-family="Times,serif" font-size="14.00">:shared:strings</text>
</g>
<!-- :ui:core&#45;&gt;:shared:strings -->
<g id="edge37" class="edge">
<title>:ui:core&#45;&gt;:shared:strings</title>
<path fill="none" stroke="black" d="M259.84,-410.81C259.84,-410.81 259.84,-319.4 259.84,-319.4"/>
<polygon fill="black" stroke="black" points="263.34,-319.4 259.84,-309.4 256.34,-319.4 263.34,-319.4"/>
</g>
</g>
</svg>
