<?xml version="1.0" encoding="UTF-8" standalone="no"?>
<!DOCTYPE svg PUBLIC "-//W3C//DTD SVG 1.1//EN"
 "http://www.w3.org/Graphics/SVG/1.1/DTD/svg11.dtd">
<!-- Generated by graphviz version 2.43.0 (0)
 -->
<!-- Title: %3 Pages: 1 -->
<svg width="1785pt" height="666pt"
 viewBox="0.00 0.00 1784.74 666.00" xmlns="http://www.w3.org/2000/svg" xmlns:xlink="http://www.w3.org/1999/xlink">
<g id="graph0" class="graph" transform="scale(1 1) rotate(0) translate(4 662)">
<title>%3</title>
<polygon fill="white" stroke="transparent" points="-4,4 -4,-662 1780.74,-662 1780.74,4 -4,4"/>
<text text-anchor="middle" x="888.37" y="-630" font-family="Times,serif" font-size="30.00">Dependencies</text>
<text text-anchor="middle" x="888.37" y="-597" font-family="Times,serif" font-size="30.00"> </text>
<!-- :shared:feature:details -->
<g id="node1" class="node">
<title>:shared:feature:details</title>
<polygon fill="#b59aff" stroke="black" points="928.39,-584 749.39,-584 749.39,-548 928.39,-548 928.39,-584"/>
<text text-anchor="middle" x="838.89" y="-562.3" font-family="Times,serif" font-size="14.00">:shared:feature:details</text>
</g>
<!-- :test&#45;data -->
<g id="node2" class="node">
<title>:test&#45;data</title>
<ellipse fill="#b59aff" stroke="black" cx="310.89" cy="-429" rx="55.49" ry="18"/>
<text text-anchor="middle" x="310.89" y="-425.3" font-family="Times,serif" font-size="14.00">:test&#45;data</text>
</g>
<!-- :shared:feature:details&#45;&gt;:test&#45;data -->
<g id="edge1" class="edge">
<title>:shared:feature:details&#45;&gt;:test&#45;data</title>
<path fill="none" stroke="#ff9ab1" stroke-dasharray="1,5" d="M765.45,-547.8C765.45,-512.69 765.45,-439 765.45,-439 765.45,-439 366.98,-439 366.98,-439"/>
<polygon fill="#ff9ab1" stroke="#ff9ab1" points="366.98,-435.5 356.98,-439 366.98,-442.5 366.98,-435.5"/>
</g>
<!-- :ui:test:screenshot -->
<g id="node3" class="node">
<title>:ui:test:screenshot</title>
<ellipse fill="#9affb5" stroke="black" cx="1679.89" cy="-292" rx="96.68" ry="18"/>
<text text-anchor="middle" x="1679.89" y="-288.3" font-family="Times,serif" font-size="14.00">:ui:test:screenshot</text>
</g>
<!-- :shared:feature:details&#45;&gt;:ui:test:screenshot -->
<g id="edge2" class="edge">
<title>:shared:feature:details&#45;&gt;:ui:test:screenshot</title>
<path fill="none" stroke="#ff9ab1" stroke-dasharray="1,5" d="M928.65,-576C1151.5,-576 1712.17,-576 1712.17,-576 1712.17,-576 1712.17,-319.34 1712.17,-319.34"/>
<polygon fill="#ff9ab1" stroke="#ff9ab1" points="1715.67,-319.34 1712.17,-309.34 1708.67,-319.34 1715.67,-319.34"/>
</g>
<!-- :core:models -->
<g id="node4" class="node">
<title>:core:models</title>
<ellipse fill="#b59aff" stroke="black" cx="869.89" cy="-18" rx="69.59" ry="18"/>
<text text-anchor="middle" x="869.89" y="-14.3" font-family="Times,serif" font-size="14.00">:core:models</text>
</g>
<!-- :shared:feature:details&#45;&gt;:core:models -->
<g id="edge3" class="edge">
<title>:shared:feature:details&#45;&gt;:core:models</title>
<path fill="none" stroke="black" stroke-dasharray="1,5" d="M797.55,-547.98C797.55,-502.2 797.55,-385 797.55,-385 797.55,-385 903.47,-385 903.47,-385 903.47,-385 903.47,-43.77 903.47,-43.77"/>
<polygon fill="black" stroke="black" points="906.97,-43.77 903.47,-33.77 899.97,-43.77 906.97,-43.77"/>
</g>
<!-- :core:preferences -->
<g id="node5" class="node">
<title>:core:preferences</title>
<ellipse fill="#b59aff" stroke="black" cx="1308.89" cy="-292" rx="91.78" ry="18"/>
<text text-anchor="middle" x="1308.89" y="-288.3" font-family="Times,serif" font-size="14.00">:core:preferences</text>
</g>
<!-- :shared:feature:details&#45;&gt;:core:preferences -->
<g id="edge4" class="edge">
<title>:shared:feature:details&#45;&gt;:core:preferences</title>
<path fill="none" stroke="black" stroke-dasharray="1,5" d="M928.67,-562C1072.71,-562 1339.44,-562 1339.44,-562 1339.44,-562 1339.44,-319.3 1339.44,-319.3"/>
<polygon fill="black" stroke="black" points="1342.94,-319.3 1339.44,-309.3 1335.94,-319.3 1342.94,-319.3"/>
</g>
<!-- :core:logging:api -->
<g id="node6" class="node">
<title>:core:logging:api</title>
<ellipse fill="#b59aff" stroke="black" cx="675.89" cy="-155" rx="88.28" ry="18"/>
<text text-anchor="middle" x="675.89" y="-151.3" font-family="Times,serif" font-size="14.00">:core:logging:api</text>
</g>
<!-- :shared:feature:details&#45;&gt;:core:logging:api -->
<g id="edge5" class="edge">
<title>:shared:feature:details&#45;&gt;:core:logging:api</title>
<path fill="none" stroke="black" stroke-dasharray="1,5" d="M749.2,-555C706.29,-555 664.12,-555 664.12,-555 664.12,-555 664.12,-182.96 664.12,-182.96"/>
<polygon fill="black" stroke="black" points="667.62,-182.96 664.12,-172.96 660.62,-182.96 667.62,-182.96"/>
</g>
<!-- :data:common:network -->
<g id="node7" class="node">
<title>:data:common:network</title>
<ellipse fill="#b59aff" stroke="black" cx="310.89" cy="-292" rx="116.98" ry="18"/>
<text text-anchor="middle" x="310.89" y="-288.3" font-family="Times,serif" font-size="14.00">:data:common:network</text>
</g>
<!-- :shared:feature:details&#45;&gt;:data:common:network -->
<g id="edge6" class="edge">
<title>:shared:feature:details&#45;&gt;:data:common:network</title>
<path fill="none" stroke="black" stroke-dasharray="1,5" d="M749.21,-569C620.05,-569 397.01,-569 397.01,-569 397.01,-569 397.01,-314.26 397.01,-314.26"/>
<polygon fill="black" stroke="black" points="400.51,-314.26 397.01,-304.26 393.51,-314.26 400.51,-314.26"/>
</g>
<!-- :data:spotify -->
<g id="node8" class="node">
<title>:data:spotify</title>
<ellipse fill="#b59aff" stroke="black" cx="68.89" cy="-292" rx="68.79" ry="18"/>
<text text-anchor="middle" x="68.89" y="-288.3" font-family="Times,serif" font-size="14.00">:data:spotify</text>
</g>
<!-- :shared:feature:details&#45;&gt;:data:spotify -->
<g id="edge7" class="edge">
<title>:shared:feature:details&#45;&gt;:data:spotify</title>
<path fill="none" stroke="black" stroke-dasharray="1,5" d="M749.09,-576C541.48,-576 45.93,-576 45.93,-576 45.93,-576 45.93,-319.34 45.93,-319.34"/>
<polygon fill="black" stroke="black" points="49.43,-319.34 45.93,-309.34 42.43,-319.34 49.43,-319.34"/>
</g>
<!-- :data:musicbrainz -->
<g id="node9" class="node">
<title>:data:musicbrainz</title>
<ellipse fill="#b59aff" stroke="black" cx="785.89" cy="-292" rx="93.68" ry="18"/>
<text text-anchor="middle" x="785.89" y="-288.3" font-family="Times,serif" font-size="14.00">:data:musicbrainz</text>
</g>
<!-- :shared:feature:details&#45;&gt;:data:musicbrainz -->
<g id="edge8" class="edge">
<title>:shared:feature:details&#45;&gt;:data:musicbrainz</title>
<path fill="none" stroke="black" stroke-dasharray="1,5" d="M781.5,-547.6C781.5,-547.6 781.5,-320.32 781.5,-320.32"/>
<polygon fill="black" stroke="black" points="785,-320.32 781.5,-310.32 778,-320.32 785,-320.32"/>
</g>
<!-- :data:database -->
<g id="node10" class="node">
<title>:data:database</title>
<ellipse fill="#b59aff" stroke="black" cx="892.89" cy="-429" rx="79.09" ry="18"/>
<text text-anchor="middle" x="892.89" y="-425.3" font-family="Times,serif" font-size="14.00">:data:database</text>
</g>
<!-- :shared:feature:details&#45;&gt;:data:database -->
<g id="edge9" class="edge">
<title>:shared:feature:details&#45;&gt;:data:database</title>
<path fill="none" stroke="black" stroke-dasharray="1,5" d="M871,-547.81C871,-547.81 871,-456.4 871,-456.4"/>
<polygon fill="black" stroke="black" points="874.5,-456.4 871,-446.4 867.5,-456.4 874.5,-456.4"/>
</g>
<!-- :ui:image -->
<g id="node11" class="node">
<title>:ui:image</title>
<ellipse fill="#b59aff" stroke="black" cx="1510.89" cy="-292" rx="53.89" ry="18"/>
<text text-anchor="middle" x="1510.89" y="-288.3" font-family="Times,serif" font-size="14.00">:ui:image</text>
</g>
<!-- :shared:feature:details&#45;&gt;:ui:image -->
<g id="edge10" class="edge">
<title>:shared:feature:details&#45;&gt;:ui:image</title>
<path fill="none" stroke="black" stroke-dasharray="1,5" d="M928.74,-569C1115.6,-569 1528.88,-569 1528.88,-569 1528.88,-569 1528.88,-319.33 1528.88,-319.33"/>
<polygon fill="black" stroke="black" points="1532.38,-319.33 1528.88,-309.33 1525.38,-319.33 1532.38,-319.33"/>
</g>
<!-- :shared:domain -->
<g id="node12" class="node">
<title>:shared:domain</title>
<ellipse fill="#b59aff" stroke="black" cx="448.89" cy="-155" rx="82.59" ry="18"/>
<text text-anchor="middle" x="448.89" y="-151.3" font-family="Times,serif" font-size="14.00">:shared:domain</text>
</g>
<!-- :shared:feature:details&#45;&gt;:shared:domain -->
<g id="edge11" class="edge">
<title>:shared:feature:details&#45;&gt;:shared:domain</title>
<path fill="none" stroke="black" stroke-dasharray="1,5" d="M749.38,-562C638.83,-562 465.19,-562 465.19,-562 465.19,-562 465.19,-182.75 465.19,-182.75"/>
<polygon fill="black" stroke="black" points="468.7,-182.75 465.19,-172.75 461.7,-182.75 468.7,-182.75"/>
</g>
<!-- :ui:common -->
<g id="node13" class="node">
<title>:ui:common</title>
<ellipse fill="#b59aff" stroke="black" cx="1054.89" cy="-429" rx="64.19" ry="18"/>
<text text-anchor="middle" x="1054.89" y="-425.3" font-family="Times,serif" font-size="14.00">:ui:common</text>
</g>
<!-- :shared:feature:details&#45;&gt;:ui:common -->
<g id="edge12" class="edge">
<title>:shared:feature:details&#45;&gt;:ui:common</title>
<path fill="none" stroke="black" stroke-dasharray="1,5" d="M928.62,-555C987.97,-555 1054.89,-555 1054.89,-555 1054.89,-555 1054.89,-457.05 1054.89,-457.05"/>
<polygon fill="black" stroke="black" points="1058.39,-457.05 1054.89,-447.05 1051.39,-457.05 1058.39,-457.05"/>
</g>
<!-- :test&#45;data&#45;&gt;:core:models -->
<g id="edge13" class="edge">
<title>:test&#45;data&#45;&gt;:core:models</title>
<path fill="none" stroke="black" stroke-dasharray="1,5" d="M329.31,-411.94C329.31,-391.51 329.31,-360 329.31,-360 329.31,-360 891.48,-360 891.48,-360 891.48,-360 891.48,-45.43 891.48,-45.43"/>
<polygon fill="black" stroke="black" points="894.98,-45.43 891.48,-35.43 887.98,-45.43 894.98,-45.43"/>
</g>
<!-- :test&#45;data&#45;&gt;:data:common:network -->
<g id="edge14" class="edge">
<title>:test&#45;data&#45;&gt;:data:common:network</title>
<path fill="none" stroke="black" stroke-dasharray="1,5" d="M292.48,-411.93C292.48,-411.93 292.48,-320.16 292.48,-320.16"/>
<polygon fill="black" stroke="black" points="295.98,-320.16 292.48,-310.16 288.98,-320.16 295.98,-320.16"/>
</g>
<!-- :test&#45;data&#45;&gt;:data:spotify -->
<g id="edge17" class="edge">
<title>:test&#45;data&#45;&gt;:data:spotify</title>
<path fill="none" stroke="black" stroke-dasharray="1,5" d="M255.62,-429C190.73,-429 91.86,-429 91.86,-429 91.86,-429 91.86,-319.07 91.86,-319.07"/>
<polygon fill="black" stroke="black" points="95.36,-319.07 91.86,-309.07 88.36,-319.07 95.36,-319.07"/>
</g>
<!-- :test&#45;data&#45;&gt;:data:musicbrainz -->
<g id="edge15" class="edge">
<title>:test&#45;data&#45;&gt;:data:musicbrainz</title>
<path fill="none" stroke="black" stroke-dasharray="1,5" d="M365.76,-432C477.47,-432 720.85,-432 720.85,-432 720.85,-432 720.85,-315.17 720.85,-315.17"/>
<polygon fill="black" stroke="black" points="724.35,-315.17 720.85,-305.17 717.35,-315.17 724.35,-315.17"/>
</g>
<!-- :test&#45;data&#45;&gt;:shared:domain -->
<g id="edge18" class="edge">
<title>:test&#45;data&#45;&gt;:shared:domain</title>
<path fill="none" stroke="black" stroke-dasharray="1,5" d="M354.93,-418C394.54,-418 446.54,-418 446.54,-418 446.54,-418 446.54,-183.08 446.54,-183.08"/>
<polygon fill="black" stroke="black" points="450.04,-183.08 446.54,-173.08 443.04,-183.08 450.04,-183.08"/>
</g>
<!-- :data:coverart -->
<g id="node14" class="node">
<title>:data:coverart</title>
<ellipse fill="#b59aff" stroke="black" cx="559.89" cy="-292" rx="76.09" ry="18"/>
<text text-anchor="middle" x="559.89" y="-288.3" font-family="Times,serif" font-size="14.00">:data:coverart</text>
</g>
<!-- :test&#45;data&#45;&gt;:data:coverart -->
<g id="edge16" class="edge">
<title>:test&#45;data&#45;&gt;:data:coverart</title>
<path fill="none" stroke="black" stroke-dasharray="1,5" d="M365.03,-425C431.22,-425 534.55,-425 534.55,-425 534.55,-425 534.55,-319.12 534.55,-319.12"/>
<polygon fill="black" stroke="black" points="538.05,-319.12 534.55,-309.12 531.05,-319.12 538.05,-319.12"/>
</g>
<!-- :ui:core -->
<g id="node15" class="node">
<title>:ui:core</title>
<ellipse fill="#b59aff" stroke="black" cx="1510.89" cy="-155" rx="45.49" ry="18"/>
<text text-anchor="middle" x="1510.89" y="-151.3" font-family="Times,serif" font-size="14.00">:ui:core</text>
</g>
<!-- :ui:test:screenshot&#45;&gt;:ui:core -->
<g id="edge19" class="edge">
<title>:ui:test:screenshot&#45;&gt;:ui:core</title>
<path fill="none" stroke="black" stroke-dasharray="1,5" d="M1587.59,-286.46C1587.59,-260.83 1587.59,-155 1587.59,-155 1587.59,-155 1566.4,-155 1566.4,-155"/>
<polygon fill="black" stroke="black" points="1566.4,-151.5 1556.4,-155 1566.4,-158.5 1566.4,-151.5"/>
</g>
<!-- :core:preferences&#45;&gt;:core:models -->
<g id="edge21" class="edge">
<title>:core:preferences&#45;&gt;:core:models</title>
<path fill="none" stroke="black" stroke-dasharray="1,5" d="M1318.29,-274.06C1318.29,-212.26 1318.29,-12 1318.29,-12 1318.29,-12 945.57,-12 945.57,-12"/>
<polygon fill="black" stroke="black" points="945.57,-8.5 935.57,-12 945.57,-15.5 945.57,-8.5"/>
</g>
<!-- :core:coroutines -->
<g id="node16" class="node">
<title>:core:coroutines</title>
<ellipse fill="#b59aff" stroke="black" cx="1150.89" cy="-155" rx="85.29" ry="18"/>
<text text-anchor="middle" x="1150.89" y="-151.3" font-family="Times,serif" font-size="14.00">:core:coroutines</text>
</g>
<!-- :core:preferences&#45;&gt;:core:coroutines -->
<g id="edge20" class="edge">
<title>:core:preferences&#45;&gt;:core:coroutines</title>
<path fill="none" stroke="black" stroke-dasharray="1,5" d="M1226.64,-283.84C1226.64,-283.84 1226.64,-173.29 1226.64,-173.29"/>
<polygon fill="black" stroke="black" points="1230.14,-173.29 1226.64,-163.29 1223.14,-173.29 1230.14,-173.29"/>
</g>
<!-- :data:common:network&#45;&gt;:core:logging:api -->
<g id="edge22" class="edge">
<title>:data:common:network&#45;&gt;:core:logging:api</title>
<path fill="none" stroke="black" stroke-dasharray="1,5" d="M397.12,-279.66C397.12,-257.44 397.12,-213 397.12,-213 397.12,-213 611.72,-213 611.72,-213 611.72,-213 611.72,-177.59 611.72,-177.59"/>
<polygon fill="black" stroke="black" points="615.22,-177.59 611.72,-167.59 608.22,-177.59 615.22,-177.59"/>
</g>
<!-- :data:spotify&#45;&gt;:core:models -->
<g id="edge24" class="edge">
<title>:data:spotify&#45;&gt;:core:models</title>
<path fill="none" stroke="black" stroke-dasharray="1,5" d="M45.93,-274.72C45.93,-213.28 45.93,-9 45.93,-9 45.93,-9 799.64,-9 799.64,-9"/>
<polygon fill="black" stroke="black" points="799.64,-12.5 809.64,-9 799.64,-5.5 799.64,-12.5"/>
</g>
<!-- :data:spotify&#45;&gt;:core:logging:api -->
<g id="edge23" class="edge">
<title>:data:spotify&#45;&gt;:core:logging:api</title>
<path fill="none" stroke="black" stroke-dasharray="1,5" d="M91.86,-274.76C91.86,-246.39 91.86,-193 91.86,-193 91.86,-193 599.61,-193 599.61,-193 599.61,-193 599.61,-174.2 599.61,-174.2"/>
<polygon fill="black" stroke="black" points="603.11,-174.2 599.61,-164.2 596.11,-174.2 603.11,-174.2"/>
</g>
<!-- :data:musicbrainz&#45;&gt;:core:models -->
<g id="edge26" class="edge">
<title>:data:musicbrainz&#45;&gt;:core:models</title>
<path fill="none" stroke="black" stroke-dasharray="1,5" d="M839.92,-277.27C839.92,-277.27 839.92,-44.52 839.92,-44.52"/>
<polygon fill="black" stroke="black" points="843.42,-44.52 839.92,-34.52 836.42,-44.52 843.42,-44.52"/>
</g>
<!-- :data:musicbrainz&#45;&gt;:core:logging:api -->
<g id="edge25" class="edge">
<title>:data:musicbrainz&#45;&gt;:core:logging:api</title>
<path fill="none" stroke="black" stroke-dasharray="1,5" d="M728.29,-277.6C728.29,-277.6 728.29,-179.62 728.29,-179.62"/>
<polygon fill="black" stroke="black" points="731.79,-179.62 728.29,-169.62 724.79,-179.62 731.79,-179.62"/>
</g>
<!-- :data:database&#45;&gt;:core:models -->
<g id="edge28" class="edge">
<title>:data:database&#45;&gt;:core:models</title>
<path fill="none" stroke="black" stroke-dasharray="1,5" d="M915.46,-411.6C915.46,-411.6 915.46,-41.7 915.46,-41.7"/>
<polygon fill="black" stroke="black" points="918.96,-41.7 915.46,-31.7 911.96,-41.7 918.96,-41.7"/>
</g>
<!-- :data:database&#45;&gt;:data:musicbrainz -->
<g id="edge29" class="edge">
<title>:data:database&#45;&gt;:data:musicbrainz</title>
<path fill="none" stroke="black" stroke-dasharray="1,5" d="M846.54,-414.34C846.54,-414.34 846.54,-315.74 846.54,-315.74"/>
<polygon fill="black" stroke="black" points="850.04,-315.74 846.54,-305.74 843.04,-315.74 850.04,-315.74"/>
</g>
<!-- :data:database&#45;&gt;:core:coroutines -->
<g id="edge27" class="edge">
<title>:data:database&#45;&gt;:core:coroutines</title>
<path fill="none" stroke="black" stroke-dasharray="1,5" d="M955.81,-418.02C955.81,-366.26 955.81,-149 955.81,-149 955.81,-149 1060.42,-149 1060.42,-149"/>
<polygon fill="black" stroke="black" points="1060.42,-152.5 1070.42,-149 1060.42,-145.5 1060.42,-152.5"/>
</g>
<!-- :ui:image&#45;&gt;:core:models -->
<g id="edge30" class="edge">
<title>:ui:image&#45;&gt;:core:models</title>
<path fill="none" stroke="black" stroke-dasharray="1,5" d="M1461.17,-284.77C1461.17,-269.01 1461.17,-233 1461.17,-233 1461.17,-233 927.45,-233 927.45,-233 927.45,-233 927.45,-38.37 927.45,-38.37"/>
<polygon fill="black" stroke="black" points="930.95,-38.37 927.45,-28.37 923.95,-38.37 930.95,-38.37"/>
</g>
<!-- :ui:image&#45;&gt;:ui:core -->
<g id="edge31" class="edge">
<title>:ui:image&#45;&gt;:ui:core</title>
<path fill="none" stroke="black" stroke-dasharray="1,5" d="M1510.89,-273.81C1510.89,-273.81 1510.89,-183.27 1510.89,-183.27"/>
<polygon fill="black" stroke="black" points="1514.39,-183.27 1510.89,-173.27 1507.39,-183.27 1514.39,-183.27"/>
</g>
<!-- :shared:domain&#45;&gt;:core:models -->
<g id="edge32" class="edge">
<title>:shared:domain&#45;&gt;:core:models</title>
<path fill="none" stroke="black" stroke-dasharray="1,5" d="M448.89,-136.81C448.89,-99.54 448.89,-18 448.89,-18 448.89,-18 789.9,-18 789.9,-18"/>
<polygon fill="black" stroke="black" points="789.9,-21.5 799.9,-18 789.9,-14.5 789.9,-21.5"/>
</g>
<!-- :ui:common&#45;&gt;:ui:test:screenshot -->
<g id="edge34" class="edge">
<title>:ui:common&#45;&gt;:ui:test:screenshot</title>
<path fill="none" stroke="#ff9ab1" stroke-dasharray="1,5" d="M1108.54,-439C1254.44,-439 1647.61,-439 1647.61,-439 1647.61,-439 1647.61,-319.15 1647.61,-319.15"/>
<polygon fill="#ff9ab1" stroke="#ff9ab1" points="1651.11,-319.15 1647.61,-309.15 1644.11,-319.15 1651.11,-319.15"/>
</g>
<!-- :ui:common&#45;&gt;:core:models -->
<g id="edge35" class="edge">
<title>:ui:common&#45;&gt;:core:models</title>
<path fill="none" stroke="black" d="M1040.22,-411.34C1040.22,-333.39 1040.22,-24 1040.22,-24 1040.22,-24 945.75,-24 945.75,-24"/>
<polygon fill="black" stroke="black" points="945.75,-20.5 935.75,-24 945.75,-27.5 945.75,-20.5"/>
</g>
<!-- :ui:common&#45;&gt;:core:preferences -->
<g id="edge39" class="edge">
<title>:ui:common&#45;&gt;:core:preferences</title>
<path fill="none" stroke="black" stroke-dasharray="1,5" d="M1105.88,-418C1171.83,-418 1278.35,-418 1278.35,-418 1278.35,-418 1278.35,-318.99 1278.35,-318.99"/>
<polygon fill="black" stroke="black" points="1281.85,-318.99 1278.35,-308.99 1274.85,-318.99 1281.85,-318.99"/>
</g>
<!-- :ui:common&#45;&gt;:core:logging:api -->
<g id="edge40" class="edge">
<title>:ui:common&#45;&gt;:core:logging:api</title>
<path fill="none" stroke="black" stroke-dasharray="1,5" d="M1030.28,-412.24C1030.28,-353.56 1030.28,-161 1030.28,-161 1030.28,-161 769.43,-161 769.43,-161"/>
<polygon fill="black" stroke="black" points="769.43,-157.5 759.43,-161 769.43,-164.5 769.43,-157.5"/>
</g>
<!-- :ui:common&#45;&gt;:data:musicbrainz -->
<g id="edge38" class="edge">
<title>:ui:common&#45;&gt;:data:musicbrainz</title>
<path fill="none" stroke="black" stroke-dasharray="1,5" d="M1010.42,-415.86C1010.42,-381.57 1010.42,-292 1010.42,-292 1010.42,-292 889.49,-292 889.49,-292"/>
<polygon fill="black" stroke="black" points="889.49,-288.5 879.49,-292 889.49,-295.5 889.49,-288.5"/>
</g>
<!-- :ui:common&#45;&gt;:ui:image -->
<g id="edge42" class="edge">
<title>:ui:common&#45;&gt;:ui:image</title>
<path fill="none" stroke="black" stroke-dasharray="1,5" d="M1118.59,-432C1240.07,-432 1492.91,-432 1492.91,-432 1492.91,-432 1492.91,-319.17 1492.91,-319.17"/>
<polygon fill="black" stroke="black" points="1496.41,-319.17 1492.91,-309.17 1489.41,-319.17 1496.41,-319.17"/>
</g>
<!-- :ui:common&#45;&gt;:shared:domain -->
<g id="edge41" class="edge">
<title>:ui:common&#45;&gt;:shared:domain</title>
<path fill="none" stroke="black" stroke-dasharray="1,5" d="M1020.35,-413.69C1020.35,-370.87 1020.35,-253 1020.35,-253 1020.35,-253 515.57,-253 515.57,-253 515.57,-253 515.57,-175.86 515.57,-175.86"/>
<polygon fill="black" stroke="black" points="519.07,-175.86 515.57,-165.86 512.07,-175.86 519.07,-175.86"/>
</g>
<!-- :ui:common&#45;&gt;:data:coverart -->
<g id="edge37" class="edge">
<title>:ui:common&#45;&gt;:data:coverart</title>
<path fill="none" stroke="black" stroke-dasharray="1,5" d="M1000.48,-419.29C1000.48,-395.28 1000.48,-335 1000.48,-335 1000.48,-335 585.24,-335 585.24,-335 585.24,-335 585.24,-318.99 585.24,-318.99"/>
<polygon fill="black" stroke="black" points="588.74,-318.99 585.24,-308.99 581.74,-318.99 588.74,-318.99"/>
</g>
<!-- :ui:common&#45;&gt;:ui:core -->
<g id="edge36" class="edge">
<title>:ui:common&#45;&gt;:ui:core</title>
<path fill="none" stroke="black" d="M1117.64,-425C1220.84,-425 1415.09,-425 1415.09,-425 1415.09,-425 1415.09,-155 1415.09,-155 1415.09,-155 1455.24,-155 1455.24,-155"/>
<polygon fill="black" stroke="black" points="1455.24,-158.5 1465.24,-155 1455.24,-151.5 1455.24,-158.5"/>
</g>
<!-- :ui:test:image -->
<g id="node17" class="node">
<title>:ui:test:image</title>
<ellipse fill="#9affb5" stroke="black" cx="1124.89" cy="-292" rx="74.99" ry="18"/>
<text text-anchor="middle" x="1124.89" y="-288.3" font-family="Times,serif" font-size="14.00">:ui:test:image</text>
</g>
<!-- :ui:common&#45;&gt;:ui:test:image -->
<g id="edge33" class="edge">
<title>:ui:common&#45;&gt;:ui:test:image</title>
<path fill="none" stroke="#ff9ab1" stroke-dasharray="1,5" d="M1084.69,-413.02C1084.69,-413.02 1084.69,-317.46 1084.69,-317.46"/>
<polygon fill="#ff9ab1" stroke="#ff9ab1" points="1088.19,-317.46 1084.69,-307.46 1081.19,-317.46 1088.19,-317.46"/>
</g>
<!-- :data:coverart&#45;&gt;:core:models -->
<g id="edge44" class="edge">
<title>:data:coverart&#45;&gt;:core:models</title>
<path fill="none" stroke="black" stroke-dasharray="1,5" d="M559.47,-273.79C559.47,-213.91 559.47,-27 559.47,-27 559.47,-27 799.3,-27 799.3,-27"/>
<polygon fill="black" stroke="black" points="799.3,-30.5 809.3,-27 799.3,-23.5 799.3,-30.5"/>
</g>
<!-- :data:coverart&#45;&gt;:core:logging:api -->
<g id="edge43" class="edge">
<title>:data:coverart&#45;&gt;:core:logging:api</title>
<path fill="none" stroke="black" stroke-dasharray="1,5" d="M623.83,-282.15C623.83,-282.15 623.83,-179.57 623.83,-179.57"/>
<polygon fill="black" stroke="black" points="627.33,-179.57 623.83,-169.57 620.33,-179.57 627.33,-179.57"/>
</g>
<!-- :data:coverart&#45;&gt;:shared:domain -->
<g id="edge45" class="edge">
<title>:data:coverart&#45;&gt;:shared:domain</title>
<path fill="none" stroke="black" stroke-dasharray="1,5" d="M499.71,-280.79C499.71,-280.79 499.71,-179.2 499.71,-179.2"/>
<polygon fill="black" stroke="black" points="503.21,-179.2 499.71,-169.2 496.21,-179.2 503.21,-179.2"/>
</g>
<!-- :shared:strings -->
<g id="node18" class="node">
<title>:shared:strings</title>
<ellipse fill="#b59aff" stroke="black" cx="1510.89" cy="-18" rx="81.49" ry="18"/>
<text text-anchor="middle" x="1510.89" y="-14.3" font-family="Times,serif" font-size="14.00">:shared:strings</text>
</g>
<!-- :ui:core&#45;&gt;:shared:strings -->
<g id="edge46" class="edge">
<title>:ui:core&#45;&gt;:shared:strings</title>
<path fill="none" stroke="black" d="M1510.89,-136.81C1510.89,-136.81 1510.89,-46.27 1510.89,-46.27"/>
<polygon fill="black" stroke="black" points="1514.39,-46.27 1510.89,-36.27 1507.39,-46.27 1514.39,-46.27"/>
</g>
</g>
</svg>
