<?xml version="1.0" encoding="UTF-8" standalone="no"?>
<!DOCTYPE svg PUBLIC "-//W3C//DTD SVG 1.1//EN"
 "http://www.w3.org/Graphics/SVG/1.1/DTD/svg11.dtd">
<!-- Generated by graphviz version 2.43.0 (0)
 -->
<!-- Title: %3 Pages: 1 -->
<svg width="1251pt" height="666pt"
 viewBox="0.00 0.00 1250.74 666.00" xmlns="http://www.w3.org/2000/svg" xmlns:xlink="http://www.w3.org/1999/xlink">
<g id="graph0" class="graph" transform="scale(1 1) rotate(0) translate(4 662)">
<title>%3</title>
<polygon fill="white" stroke="transparent" points="-4,4 -4,-662 1246.74,-662 1246.74,4 -4,4"/>
<text text-anchor="middle" x="621.37" y="-630" font-family="Times,serif" font-size="30.00">Dependencies</text>
<text text-anchor="middle" x="621.37" y="-597" font-family="Times,serif" font-size="30.00"> </text>
<!-- :shared:feature:details -->
<g id="node1" class="node">
<title>:shared:feature:details</title>
<polygon fill="#b59aff" stroke="black" points="766.39,-584 587.39,-584 587.39,-548 766.39,-548 766.39,-584"/>
<text text-anchor="middle" x="676.89" y="-562.3" font-family="Times,serif" font-size="14.00">:shared:feature:details</text>
</g>
<!-- :test&#45;data -->
<g id="node2" class="node">
<title>:test&#45;data</title>
<ellipse fill="#b59aff" stroke="black" cx="436.89" cy="-429" rx="55.49" ry="18"/>
<text text-anchor="middle" x="436.89" y="-425.3" font-family="Times,serif" font-size="14.00">:test&#45;data</text>
</g>
<!-- :shared:feature:details&#45;&gt;:test&#45;data -->
<g id="edge1" class="edge">
<title>:shared:feature:details&#45;&gt;:test&#45;data</title>
<path fill="none" stroke="#ff9ab1" stroke-dasharray="1,5" d="M595.78,-547.93C595.78,-512.65 595.78,-438 595.78,-438 595.78,-438 495,-438 495,-438"/>
<polygon fill="#ff9ab1" stroke="#ff9ab1" points="495,-434.5 485,-438 495,-441.5 495,-434.5"/>
</g>
<!-- :ui:test:screenshot -->
<g id="node3" class="node">
<title>:ui:test:screenshot</title>
<ellipse fill="#9affb5" stroke="black" cx="1145.89" cy="-292" rx="96.68" ry="18"/>
<text text-anchor="middle" x="1145.89" y="-288.3" font-family="Times,serif" font-size="14.00">:ui:test:screenshot</text>
</g>
<!-- :shared:feature:details&#45;&gt;:ui:test:screenshot -->
<g id="edge2" class="edge">
<title>:shared:feature:details&#45;&gt;:ui:test:screenshot</title>
<path fill="none" stroke="#ff9ab1" stroke-dasharray="1,5" d="M766.51,-572C910.7,-572 1178.17,-572 1178.17,-572 1178.17,-572 1178.17,-319.09 1178.17,-319.09"/>
<polygon fill="#ff9ab1" stroke="#ff9ab1" points="1181.67,-319.09 1178.17,-309.09 1174.67,-319.09 1181.67,-319.09"/>
</g>
<!-- :ui:common -->
<g id="node4" class="node">
<title>:ui:common</title>
<ellipse fill="#b59aff" stroke="black" cx="676.89" cy="-429" rx="64.19" ry="18"/>
<text text-anchor="middle" x="676.89" y="-425.3" font-family="Times,serif" font-size="14.00">:ui:common</text>
</g>
<!-- :shared:feature:details&#45;&gt;:ui:common -->
<g id="edge3" class="edge">
<title>:shared:feature:details&#45;&gt;:ui:common</title>
<path fill="none" stroke="black" stroke-dasharray="1,5" d="M676.89,-547.81C676.89,-547.81 676.89,-457.27 676.89,-457.27"/>
<polygon fill="black" stroke="black" points="680.39,-457.27 676.89,-447.27 673.39,-457.27 680.39,-457.27"/>
</g>
<!-- :shared:domain -->
<g id="node5" class="node">
<title>:shared:domain</title>
<ellipse fill="#b59aff" stroke="black" cx="559.89" cy="-155" rx="82.59" ry="18"/>
<text text-anchor="middle" x="559.89" y="-151.3" font-family="Times,serif" font-size="14.00">:shared:domain</text>
</g>
<!-- :shared:feature:details&#45;&gt;:shared:domain -->
<g id="edge4" class="edge">
<title>:shared:feature:details&#45;&gt;:shared:domain</title>
<path fill="none" stroke="black" stroke-dasharray="1,5" d="M604.16,-547.81C604.16,-547.81 604.16,-180.3 604.16,-180.3"/>
<polygon fill="black" stroke="black" points="607.66,-180.3 604.16,-170.3 600.66,-180.3 607.66,-180.3"/>
</g>
<!-- :core:preferences -->
<g id="node6" class="node">
<title>:core:preferences</title>
<ellipse fill="#b59aff" stroke="black" cx="774.89" cy="-292" rx="91.78" ry="18"/>
<text text-anchor="middle" x="774.89" y="-288.3" font-family="Times,serif" font-size="14.00">:core:preferences</text>
</g>
<!-- :shared:feature:details&#45;&gt;:core:preferences -->
<g id="edge5" class="edge">
<title>:shared:feature:details&#45;&gt;:core:preferences</title>
<path fill="none" stroke="black" stroke-dasharray="1,5" d="M753.82,-547.6C753.82,-547.6 753.82,-319.61 753.82,-319.61"/>
<polygon fill="black" stroke="black" points="757.32,-319.61 753.82,-309.61 750.32,-319.61 757.32,-319.61"/>
</g>
<!-- :core:logging:api -->
<g id="node7" class="node">
<title>:core:logging:api</title>
<ellipse fill="#b59aff" stroke="black" cx="248.89" cy="-155" rx="88.28" ry="18"/>
<text text-anchor="middle" x="248.89" y="-151.3" font-family="Times,serif" font-size="14.00">:core:logging:api</text>
</g>
<!-- :shared:feature:details&#45;&gt;:core:logging:api -->
<g id="edge6" class="edge">
<title>:shared:feature:details&#45;&gt;:core:logging:api</title>
<path fill="none" stroke="black" stroke-dasharray="1,5" d="M587.15,-566C491.83,-566 354.73,-566 354.73,-566 354.73,-566 354.73,-164 354.73,-164 354.73,-164 335.53,-164 335.53,-164"/>
<polygon fill="black" stroke="black" points="335.53,-160.5 325.53,-164 335.53,-167.5 335.53,-160.5"/>
</g>
<!-- :ui:image -->
<g id="node8" class="node">
<title>:ui:image</title>
<ellipse fill="#b59aff" stroke="black" cx="976.89" cy="-292" rx="53.89" ry="18"/>
<text text-anchor="middle" x="976.89" y="-288.3" font-family="Times,serif" font-size="14.00">:ui:image</text>
</g>
<!-- :shared:feature:details&#45;&gt;:ui:image -->
<g id="edge7" class="edge">
<title>:shared:feature:details&#45;&gt;:ui:image</title>
<path fill="none" stroke="black" stroke-dasharray="1,5" d="M766.74,-560C860.77,-560 994.88,-560 994.88,-560 994.88,-560 994.88,-319.17 994.88,-319.17"/>
<polygon fill="black" stroke="black" points="998.38,-319.17 994.88,-309.17 991.38,-319.17 998.38,-319.17"/>
</g>
<!-- :test&#45;data&#45;&gt;:shared:domain -->
<g id="edge8" class="edge">
<title>:test&#45;data&#45;&gt;:shared:domain</title>
<path fill="none" stroke="black" stroke-dasharray="1,5" d="M484.93,-420C515.8,-420 550.17,-420 550.17,-420 550.17,-420 550.17,-183.21 550.17,-183.21"/>
<polygon fill="black" stroke="black" points="553.67,-183.21 550.17,-173.21 546.67,-183.21 553.67,-183.21"/>
</g>
<!-- :data:musicbrainz -->
<g id="node9" class="node">
<title>:data:musicbrainz</title>
<ellipse fill="#b59aff" stroke="black" cx="248.89" cy="-292" rx="93.68" ry="18"/>
<text text-anchor="middle" x="248.89" y="-288.3" font-family="Times,serif" font-size="14.00">:data:musicbrainz</text>
</g>
<!-- :test&#45;data&#45;&gt;:data:musicbrainz -->
<g id="edge9" class="edge">
<title>:test&#45;data&#45;&gt;:data:musicbrainz</title>
<path fill="none" stroke="black" stroke-dasharray="1,5" d="M384.67,-423C319.84,-423 217.7,-423 217.7,-423 217.7,-423 217.7,-319.13 217.7,-319.13"/>
<polygon fill="black" stroke="black" points="221.2,-319.13 217.7,-309.13 214.2,-319.13 221.2,-319.13"/>
</g>
<!-- :data:coverart -->
<g id="node10" class="node">
<title>:data:coverart</title>
<ellipse fill="#b59aff" stroke="black" cx="436.89" cy="-292" rx="76.09" ry="18"/>
<text text-anchor="middle" x="436.89" y="-288.3" font-family="Times,serif" font-size="14.00">:data:coverart</text>
</g>
<!-- :test&#45;data&#45;&gt;:data:coverart -->
<g id="edge10" class="edge">
<title>:test&#45;data&#45;&gt;:data:coverart</title>
<path fill="none" stroke="black" stroke-dasharray="1,5" d="M436.89,-410.81C436.89,-410.81 436.89,-320.27 436.89,-320.27"/>
<polygon fill="black" stroke="black" points="440.39,-320.27 436.89,-310.27 433.39,-320.27 440.39,-320.27"/>
</g>
<!-- :data:spotify -->
<g id="node11" class="node">
<title>:data:spotify</title>
<ellipse fill="#b59aff" stroke="black" cx="68.89" cy="-292" rx="68.79" ry="18"/>
<text text-anchor="middle" x="68.89" y="-288.3" font-family="Times,serif" font-size="14.00">:data:spotify</text>
</g>
<!-- :test&#45;data&#45;&gt;:data:spotify -->
<g id="edge11" class="edge">
<title>:test&#45;data&#45;&gt;:data:spotify</title>
<path fill="none" stroke="black" stroke-dasharray="1,5" d="M384.56,-435C282.96,-435 68.89,-435 68.89,-435 68.89,-435 68.89,-320.11 68.89,-320.11"/>
<polygon fill="black" stroke="black" points="72.39,-320.11 68.89,-310.11 65.39,-320.11 72.39,-320.11"/>
</g>
<!-- :ui:core -->
<g id="node12" class="node">
<title>:ui:core</title>
<ellipse fill="#b59aff" stroke="black" cx="976.89" cy="-155" rx="45.49" ry="18"/>
<text text-anchor="middle" x="976.89" y="-151.3" font-family="Times,serif" font-size="14.00">:ui:core</text>
</g>
<!-- :ui:test:screenshot&#45;&gt;:ui:core -->
<g id="edge12" class="edge">
<title>:ui:test:screenshot&#45;&gt;:ui:core</title>
<path fill="none" stroke="black" stroke-dasharray="1,5" d="M1053.59,-286.46C1053.59,-260.83 1053.59,-155 1053.59,-155 1053.59,-155 1032.4,-155 1032.4,-155"/>
<polygon fill="black" stroke="black" points="1032.4,-151.5 1022.4,-155 1032.4,-158.5 1032.4,-151.5"/>
</g>
<!-- :test:image -->
<g id="node13" class="node">
<title>:test:image</title>
<ellipse fill="#9affb5" stroke="black" cx="1145.89" cy="-155" rx="63.09" ry="18"/>
<text text-anchor="middle" x="1145.89" y="-151.3" font-family="Times,serif" font-size="14.00">:test:image</text>
</g>
<!-- :ui:test:screenshot&#45;&gt;:test:image -->
<g id="edge13" class="edge">
<title>:ui:test:screenshot&#45;&gt;:test:image</title>
<path fill="none" stroke="black" stroke-dasharray="1,5" d="M1145.89,-273.81C1145.89,-273.81 1145.89,-183.27 1145.89,-183.27"/>
<polygon fill="black" stroke="black" points="1149.39,-183.27 1145.89,-173.27 1142.39,-183.27 1149.39,-183.27"/>
</g>
<!-- :ui:common&#45;&gt;:ui:test:screenshot -->
<g id="edge14" class="edge">
<title>:ui:common&#45;&gt;:ui:test:screenshot</title>
<path fill="none" stroke="#ff9ab1" stroke-dasharray="1,5" d="M732.65,-438C850.38,-438 1113.61,-438 1113.61,-438 1113.61,-438 1113.61,-319.03 1113.61,-319.03"/>
<polygon fill="#ff9ab1" stroke="#ff9ab1" points="1117.11,-319.03 1113.61,-309.03 1110.11,-319.03 1117.11,-319.03"/>
</g>
<!-- :ui:common&#45;&gt;:shared:domain -->
<g id="edge15" class="edge">
<title>:ui:common&#45;&gt;:shared:domain</title>
<path fill="none" stroke="black" d="M627.49,-417.23C627.49,-417.23 627.49,-175.53 627.49,-175.53"/>
<polygon fill="black" stroke="black" points="630.99,-175.53 627.49,-165.53 623.99,-175.53 630.99,-175.53"/>
</g>
<!-- :ui:common&#45;&gt;:core:preferences -->
<g id="edge19" class="edge">
<title>:ui:common&#45;&gt;:core:preferences</title>
<path fill="none" stroke="black" stroke-dasharray="1,5" d="M712.25,-413.82C712.25,-413.82 712.25,-315.22 712.25,-315.22"/>
<polygon fill="black" stroke="black" points="715.75,-315.22 712.25,-305.22 708.75,-315.22 715.75,-315.22"/>
</g>
<!-- :ui:common&#45;&gt;:core:logging:api -->
<g id="edge20" class="edge">
<title>:ui:common&#45;&gt;:core:logging:api</title>
<path fill="none" stroke="black" stroke-dasharray="1,5" d="M622.51,-419.34C622.51,-378.61 622.51,-223 622.51,-223 622.51,-223 278.36,-223 278.36,-223 278.36,-223 278.36,-182.16 278.36,-182.16"/>
<polygon fill="black" stroke="black" points="281.86,-182.16 278.36,-172.16 274.86,-182.16 281.86,-182.16"/>
</g>
<!-- :ui:common&#45;&gt;:ui:image -->
<g id="edge21" class="edge">
<title>:ui:common&#45;&gt;:ui:image</title>
<path fill="none" stroke="black" stroke-dasharray="1,5" d="M741.24,-429C824.48,-429 958.91,-429 958.91,-429 958.91,-429 958.91,-319.07 958.91,-319.07"/>
<polygon fill="black" stroke="black" points="962.41,-319.07 958.91,-309.07 955.41,-319.07 962.41,-319.07"/>
</g>
<!-- :ui:common&#45;&gt;:data:musicbrainz -->
<g id="edge18" class="edge">
<title>:ui:common&#45;&gt;:data:musicbrainz</title>
<path fill="none" stroke="black" stroke-dasharray="1,5" d="M617.53,-421.88C617.53,-404.25 617.53,-360 617.53,-360 617.53,-360 280.09,-360 280.09,-360 280.09,-360 280.09,-319.16 280.09,-319.16"/>
<polygon fill="black" stroke="black" points="283.59,-319.16 280.09,-309.16 276.59,-319.16 283.59,-319.16"/>
</g>
<!-- :ui:common&#45;&gt;:data:coverart -->
<g id="edge17" class="edge">
<title>:ui:common&#45;&gt;:data:coverart</title>
<path fill="none" stroke="black" stroke-dasharray="1,5" d="M612.47,-429C562.8,-429 502.54,-429 502.54,-429 502.54,-429 502.54,-311.42 502.54,-311.42"/>
<polygon fill="black" stroke="black" points="506.04,-311.42 502.54,-301.42 499.04,-311.42 506.04,-311.42"/>
</g>
<!-- :ui:common&#45;&gt;:ui:core -->
<g id="edge16" class="edge">
<title>:ui:common&#45;&gt;:ui:core</title>
<path fill="none" stroke="black" d="M732.69,-420C793.15,-420 881.09,-420 881.09,-420 881.09,-420 881.09,-155 881.09,-155 881.09,-155 921.24,-155 921.24,-155"/>
<polygon fill="black" stroke="black" points="921.24,-158.5 931.24,-155 921.24,-151.5 921.24,-158.5"/>
</g>
<!-- :core:preferences&#45;&gt;:shared:domain -->
<g id="edge22" class="edge">
<title>:core:preferences&#45;&gt;:shared:domain</title>
<path fill="none" stroke="black" stroke-dasharray="1,5" d="M683.09,-292C655.53,-292 632.47,-292 632.47,-292 632.47,-292 632.47,-173.99 632.47,-173.99"/>
<polygon fill="black" stroke="black" points="635.97,-173.99 632.47,-163.99 628.97,-173.99 635.97,-173.99"/>
</g>
<!-- :core:coroutines -->
<g id="node14" class="node">
<title>:core:coroutines</title>
<ellipse fill="#b59aff" stroke="black" cx="774.89" cy="-155" rx="85.29" ry="18"/>
<text text-anchor="middle" x="774.89" y="-151.3" font-family="Times,serif" font-size="14.00">:core:coroutines</text>
</g>
<!-- :core:preferences&#45;&gt;:core:coroutines -->
<g id="edge23" class="edge">
<title>:core:preferences&#45;&gt;:core:coroutines</title>
<path fill="none" stroke="black" stroke-dasharray="1,5" d="M774.89,-273.81C774.89,-273.81 774.89,-183.27 774.89,-183.27"/>
<polygon fill="black" stroke="black" points="778.39,-183.27 774.89,-173.27 771.39,-183.27 778.39,-183.27"/>
</g>
<!-- :ui:image&#45;&gt;:shared:domain -->
<g id="edge24" class="edge">
<title>:ui:image&#45;&gt;:shared:domain</title>
<path fill="none" stroke="black" stroke-dasharray="1,5" d="M927.17,-284.93C927.17,-263.07 927.17,-198 927.17,-198 927.17,-198 637.46,-198 637.46,-198 637.46,-198 637.46,-171.34 637.46,-171.34"/>
<polygon fill="black" stroke="black" points="640.96,-171.34 637.46,-161.34 633.96,-171.34 640.96,-171.34"/>
</g>
<!-- :ui:image&#45;&gt;:ui:core -->
<g id="edge25" class="edge">
<title>:ui:image&#45;&gt;:ui:core</title>
<path fill="none" stroke="black" stroke-dasharray="1,5" d="M976.89,-273.81C976.89,-273.81 976.89,-183.27 976.89,-183.27"/>
<polygon fill="black" stroke="black" points="980.39,-183.27 976.89,-173.27 973.39,-183.27 980.39,-183.27"/>
</g>
<!-- :data:musicbrainz&#45;&gt;:shared:domain -->
<g id="edge26" class="edge">
<title>:data:musicbrainz&#45;&gt;:shared:domain</title>
<path fill="none" stroke="black" stroke-dasharray="1,5" d="M342.67,-292C346.41,-292 348.61,-292 348.61,-292 348.61,-292 348.61,-155 348.61,-155 348.61,-155 467.3,-155 467.3,-155"/>
<polygon fill="black" stroke="black" points="467.3,-158.5 477.3,-155 467.3,-151.5 467.3,-158.5"/>
</g>
<!-- :data:musicbrainz&#45;&gt;:core:logging:api -->
<g id="edge27" class="edge">
<title>:data:musicbrainz&#45;&gt;:core:logging:api</title>
<path fill="none" stroke="black" stroke-dasharray="1,5" d="M219.43,-274.65C219.43,-274.65 219.43,-182.21 219.43,-182.21"/>
<polygon fill="black" stroke="black" points="222.93,-182.21 219.43,-172.21 215.93,-182.21 222.93,-182.21"/>
</g>
<!-- :data:coverart&#45;&gt;:shared:domain -->
<g id="edge28" class="edge">
<title>:data:coverart&#45;&gt;:shared:domain</title>
<path fill="none" stroke="black" stroke-dasharray="1,5" d="M501.08,-282.15C501.08,-282.15 501.08,-177.88 501.08,-177.88"/>
<polygon fill="black" stroke="black" points="504.58,-177.88 501.08,-167.88 497.58,-177.88 504.58,-177.88"/>
</g>
<!-- :data:coverart&#45;&gt;:core:logging:api -->
<g id="edge29" class="edge">
<title>:data:coverart&#45;&gt;:core:logging:api</title>
<path fill="none" stroke="black" stroke-dasharray="1,5" d="M419.1,-274.39C419.1,-235.56 419.1,-146 419.1,-146 419.1,-146 335.53,-146 335.53,-146"/>
<polygon fill="black" stroke="black" points="335.53,-142.5 325.53,-146 335.53,-149.5 335.53,-142.5"/>
</g>
<!-- :data:spotify&#45;&gt;:shared:domain -->
<g id="edge30" class="edge">
<title>:data:spotify&#45;&gt;:shared:domain</title>
<path fill="none" stroke="black" stroke-dasharray="1,5" d="M45.93,-274.86C45.93,-262.51 45.93,-248 45.93,-248 45.93,-248 489.21,-248 489.21,-248 489.21,-248 489.21,-174.6 489.21,-174.6"/>
<polygon fill="black" stroke="black" points="492.71,-174.6 489.21,-164.6 485.71,-174.6 492.71,-174.6"/>
</g>
<!-- :data:spotify&#45;&gt;:core:logging:api -->
<g id="edge31" class="edge">
<title>:data:spotify&#45;&gt;:core:logging:api</title>
<path fill="none" stroke="black" stroke-dasharray="1,5" d="M91.86,-274.93C91.86,-238.2 91.86,-155 91.86,-155 91.86,-155 150.28,-155 150.28,-155"/>
<polygon fill="black" stroke="black" points="150.28,-158.5 160.28,-155 150.28,-151.5 150.28,-158.5"/>
</g>
<!-- :shared:strings -->
<g id="node15" class="node">
<title>:shared:strings</title>
<ellipse fill="#b59aff" stroke="black" cx="976.89" cy="-18" rx="81.49" ry="18"/>
<text text-anchor="middle" x="976.89" y="-14.3" font-family="Times,serif" font-size="14.00">:shared:strings</text>
</g>
<!-- :ui:core&#45;&gt;:shared:strings -->
<g id="edge32" class="edge">
<title>:ui:core&#45;&gt;:shared:strings</title>
<path fill="none" stroke="black" d="M976.89,-136.81C976.89,-136.81 976.89,-46.27 976.89,-46.27"/>
<polygon fill="black" stroke="black" points="980.39,-46.27 976.89,-36.27 973.39,-46.27 980.39,-46.27"/>
</g>
</g>
</svg>
