<?xml version="1.0" encoding="UTF-8" standalone="no"?>
<!DOCTYPE svg PUBLIC "-//W3C//DTD SVG 1.1//EN"
 "http://www.w3.org/Graphics/SVG/1.1/DTD/svg11.dtd">
<!-- Generated by graphviz version 2.43.0 (0)
 -->
<!-- Title: %3 Pages: 1 -->
<svg width="1644pt" height="666pt"
 viewBox="0.00 0.00 1644.14 666.00" xmlns="http://www.w3.org/2000/svg" xmlns:xlink="http://www.w3.org/1999/xlink">
<g id="graph0" class="graph" transform="scale(1 1) rotate(0) translate(4 662)">
<title>%3</title>
<polygon fill="white" stroke="transparent" points="-4,4 -4,-662 1640.14,-662 1640.14,4 -4,4"/>
<text text-anchor="middle" x="818.07" y="-630" font-family="Times,serif" font-size="30.00">Dependencies</text>
<text text-anchor="middle" x="818.07" y="-597" font-family="Times,serif" font-size="30.00"> </text>
<!-- :shared:feature:details -->
<g id="node1" class="node">
<title>:shared:feature:details</title>
<ellipse fill="#b59aff" stroke="black" cx="823.89" cy="-566" rx="116.18" ry="18"/>
<text text-anchor="middle" x="823.89" y="-562.3" font-family="Times,serif" font-size="14.00">:shared:feature:details</text>
</g>
<!-- :test&#45;data -->
<g id="node2" class="node">
<title>:test&#45;data</title>
<ellipse fill="#b59aff" stroke="black" cx="345.89" cy="-429" rx="55.49" ry="18"/>
<text text-anchor="middle" x="345.89" y="-425.3" font-family="Times,serif" font-size="14.00">:test&#45;data</text>
</g>
<!-- :shared:feature:details&#45;&gt;:test&#45;data -->
<g id="edge1" class="edge">
<title>:shared:feature:details&#45;&gt;:test&#45;data</title>
<path fill="none" stroke="#ff9ab1" stroke-dasharray="1,5" d="M714.74,-559.53C714.74,-533.65 714.74,-439 714.74,-439 714.74,-439 401.86,-439 401.86,-439"/>
<polygon fill="#ff9ab1" stroke="#ff9ab1" points="401.86,-435.5 391.86,-439 401.86,-442.5 401.86,-435.5"/>
</g>
<!-- :ui:test:screenshot -->
<g id="node3" class="node">
<title>:ui:test:screenshot</title>
<ellipse fill="#9affb5" stroke="black" cx="1385.89" cy="-292" rx="96.68" ry="18"/>
<text text-anchor="middle" x="1385.89" y="-288.3" font-family="Times,serif" font-size="14.00">:ui:test:screenshot</text>
</g>
<!-- :shared:feature:details&#45;&gt;:ui:test:screenshot -->
<g id="edge2" class="edge">
<title>:shared:feature:details&#45;&gt;:ui:test:screenshot</title>
<path fill="none" stroke="#ff9ab1" stroke-dasharray="1,5" d="M938.83,-569C1111.59,-569 1418.17,-569 1418.17,-569 1418.17,-569 1418.17,-319.33 1418.17,-319.33"/>
<polygon fill="#ff9ab1" stroke="#ff9ab1" points="1421.67,-319.33 1418.17,-309.33 1414.67,-319.33 1421.67,-319.33"/>
</g>
<!-- :core:models -->
<g id="node4" class="node">
<title>:core:models</title>
<ellipse fill="#b59aff" stroke="black" cx="861.89" cy="-18" rx="69.59" ry="18"/>
<text text-anchor="middle" x="861.89" y="-14.3" font-family="Times,serif" font-size="14.00">:core:models</text>
</g>
<!-- :shared:feature:details&#45;&gt;:core:models -->
<g id="edge3" class="edge">
<title>:shared:feature:details&#45;&gt;:core:models</title>
<path fill="none" stroke="black" stroke-dasharray="1,5" d="M752.29,-551.74C752.29,-466.98 752.29,-33 752.29,-33 752.29,-33 813.25,-33 813.25,-33"/>
<polygon fill="black" stroke="black" points="813.25,-36.5 823.25,-33 813.25,-29.5 813.25,-36.5"/>
</g>
<!-- :core:preferences -->
<g id="node5" class="node">
<title>:core:preferences</title>
<ellipse fill="#b59aff" stroke="black" cx="1179.89" cy="-292" rx="91.78" ry="18"/>
<text text-anchor="middle" x="1179.89" y="-288.3" font-family="Times,serif" font-size="14.00">:core:preferences</text>
</g>
<!-- :shared:feature:details&#45;&gt;:core:preferences -->
<g id="edge4" class="edge">
<title>:shared:feature:details&#45;&gt;:core:preferences</title>
<path fill="none" stroke="black" stroke-dasharray="1,5" d="M937.57,-562C1044.37,-562 1187.89,-562 1187.89,-562 1187.89,-562 1187.89,-320.13 1187.89,-320.13"/>
<polygon fill="black" stroke="black" points="1191.39,-320.13 1187.89,-310.13 1184.39,-320.13 1191.39,-320.13"/>
</g>
<!-- :core:logging:api -->
<g id="node6" class="node">
<title>:core:logging:api</title>
<ellipse fill="#b59aff" stroke="black" cx="647.89" cy="-155" rx="88.28" ry="18"/>
<text text-anchor="middle" x="647.89" y="-151.3" font-family="Times,serif" font-size="14.00">:core:logging:api</text>
</g>
<!-- :shared:feature:details&#45;&gt;:core:logging:api -->
<g id="edge5" class="edge">
<title>:shared:feature:details&#45;&gt;:core:logging:api</title>
<path fill="none" stroke="black" stroke-dasharray="1,5" d="M729.1,-555.43C729.1,-555.43 729.1,-172.38 729.1,-172.38"/>
<polygon fill="black" stroke="black" points="732.6,-172.38 729.1,-162.38 725.6,-172.38 732.6,-172.38"/>
</g>
<!-- :data:common:network -->
<g id="node7" class="node">
<title>:data:common:network</title>
<ellipse fill="#b59aff" stroke="black" cx="556.89" cy="-292" rx="116.98" ry="18"/>
<text text-anchor="middle" x="556.89" y="-288.3" font-family="Times,serif" font-size="14.00">:data:common:network</text>
</g>
<!-- :shared:feature:details&#45;&gt;:data:common:network -->
<g id="edge6" class="edge">
<title>:shared:feature:details&#45;&gt;:data:common:network</title>
<path fill="none" stroke="black" stroke-dasharray="1,5" d="M721.92,-557.19C721.92,-510.29 721.92,-292 721.92,-292 721.92,-292 684.19,-292 684.19,-292"/>
<polygon fill="black" stroke="black" points="684.19,-288.5 674.19,-292 684.19,-295.5 684.19,-288.5"/>
</g>
<!-- :data:spotify -->
<g id="node8" class="node">
<title>:data:spotify</title>
<ellipse fill="#b59aff" stroke="black" cx="68.89" cy="-292" rx="68.79" ry="18"/>
<text text-anchor="middle" x="68.89" y="-288.3" font-family="Times,serif" font-size="14.00">:data:spotify</text>
</g>
<!-- :shared:feature:details&#45;&gt;:data:spotify -->
<g id="edge7" class="edge">
<title>:shared:feature:details&#45;&gt;:data:spotify</title>
<path fill="none" stroke="black" stroke-dasharray="1,5" d="M714.08,-572C499.63,-572 45.93,-572 45.93,-572 45.93,-572 45.93,-319.09 45.93,-319.09"/>
<polygon fill="black" stroke="black" points="49.43,-319.09 45.93,-309.09 42.43,-319.09 49.43,-319.09"/>
</g>
<!-- :data:musicbrainz -->
<g id="node9" class="node">
<title>:data:musicbrainz</title>
<ellipse fill="#b59aff" stroke="black" cx="861.89" cy="-292" rx="93.68" ry="18"/>
<text text-anchor="middle" x="861.89" y="-288.3" font-family="Times,serif" font-size="14.00">:data:musicbrainz</text>
</g>
<!-- :shared:feature:details&#45;&gt;:data:musicbrainz -->
<g id="edge8" class="edge">
<title>:shared:feature:details&#45;&gt;:data:musicbrainz</title>
<path fill="none" stroke="black" stroke-dasharray="1,5" d="M788.5,-548.44C788.5,-548.44 788.5,-313.28 788.5,-313.28"/>
<polygon fill="black" stroke="black" points="792,-313.28 788.5,-303.28 785,-313.28 792,-313.28"/>
</g>
<!-- :data:database -->
<g id="node10" class="node">
<title>:data:database</title>
<ellipse fill="#b59aff" stroke="black" cx="877.89" cy="-429" rx="79.09" ry="18"/>
<text text-anchor="middle" x="877.89" y="-425.3" font-family="Times,serif" font-size="14.00">:data:database</text>
</g>
<!-- :shared:feature:details&#45;&gt;:data:database -->
<g id="edge9" class="edge">
<title>:shared:feature:details&#45;&gt;:data:database</title>
<path fill="none" stroke="black" stroke-dasharray="1,5" d="M869.42,-549.2C869.42,-549.2 869.42,-457.25 869.42,-457.25"/>
<polygon fill="black" stroke="black" points="872.92,-457.25 869.42,-447.25 865.92,-457.25 872.92,-457.25"/>
</g>
<!-- :ui:image -->
<g id="node11" class="node">
<title>:ui:image</title>
<ellipse fill="#b59aff" stroke="black" cx="1554.89" cy="-292" rx="53.89" ry="18"/>
<text text-anchor="middle" x="1554.89" y="-288.3" font-family="Times,serif" font-size="14.00">:ui:image</text>
</g>
<!-- :shared:feature:details&#45;&gt;:ui:image -->
<g id="edge10" class="edge">
<title>:shared:feature:details&#45;&gt;:ui:image</title>
<path fill="none" stroke="black" stroke-dasharray="1,5" d="M920.66,-576C1123.13,-576 1572.88,-576 1572.88,-576 1572.88,-576 1572.88,-319.34 1572.88,-319.34"/>
<polygon fill="black" stroke="black" points="1576.38,-319.34 1572.88,-309.34 1569.38,-319.34 1576.38,-319.34"/>
</g>
<!-- :shared:domain -->
<g id="node12" class="node">
<title>:shared:domain</title>
<ellipse fill="#b59aff" stroke="black" cx="203.89" cy="-155" rx="82.59" ry="18"/>
<text text-anchor="middle" x="203.89" y="-151.3" font-family="Times,serif" font-size="14.00">:shared:domain</text>
</g>
<!-- :shared:feature:details&#45;&gt;:shared:domain -->
<g id="edge11" class="edge">
<title>:shared:feature:details&#45;&gt;:shared:domain</title>
<path fill="none" stroke="black" stroke-dasharray="1,5" d="M713.88,-560C530.4,-560 181.81,-560 181.81,-560 181.81,-560 181.81,-182.4 181.81,-182.4"/>
<polygon fill="black" stroke="black" points="185.31,-182.4 181.81,-172.4 178.31,-182.4 185.31,-182.4"/>
</g>
<!-- :ui:common -->
<g id="node13" class="node">
<title>:ui:common</title>
<ellipse fill="#b59aff" stroke="black" cx="1039.89" cy="-429" rx="64.19" ry="18"/>
<text text-anchor="middle" x="1039.89" y="-425.3" font-family="Times,serif" font-size="14.00">:ui:common</text>
</g>
<!-- :shared:feature:details&#45;&gt;:ui:common -->
<g id="edge12" class="edge">
<title>:shared:feature:details&#45;&gt;:ui:common</title>
<path fill="none" stroke="black" stroke-dasharray="1,5" d="M916.12,-555C974.83,-555 1039.89,-555 1039.89,-555 1039.89,-555 1039.89,-457.05 1039.89,-457.05"/>
<polygon fill="black" stroke="black" points="1043.39,-457.05 1039.89,-447.05 1036.39,-457.05 1043.39,-457.05"/>
</g>
<!-- :test&#45;data&#45;&gt;:core:models -->
<g id="edge13" class="edge">
<title>:test&#45;data&#45;&gt;:core:models</title>
<path fill="none" stroke="black" stroke-dasharray="1,5" d="M389.9,-418C410.65,-418 430.92,-418 430.92,-418 430.92,-418 430.92,-30 430.92,-30 430.92,-30 799.91,-30 799.91,-30"/>
<polygon fill="black" stroke="black" points="799.91,-33.5 809.91,-30 799.91,-26.5 799.91,-33.5"/>
</g>
<!-- :test&#45;data&#45;&gt;:data:common:network -->
<g id="edge14" class="edge">
<title>:test&#45;data&#45;&gt;:data:common:network</title>
<path fill="none" stroke="black" stroke-dasharray="1,5" d="M399.96,-425C462.47,-425 556.89,-425 556.89,-425 556.89,-425 556.89,-320.21 556.89,-320.21"/>
<polygon fill="black" stroke="black" points="560.39,-320.21 556.89,-310.21 553.39,-320.21 560.39,-320.21"/>
</g>
<!-- :test&#45;data&#45;&gt;:data:spotify -->
<g id="edge17" class="edge">
<title>:test&#45;data&#45;&gt;:data:spotify</title>
<path fill="none" stroke="black" stroke-dasharray="1,5" d="M293.57,-435C219.2,-435 91.86,-435 91.86,-435 91.86,-435 91.86,-319.25 91.86,-319.25"/>
<polygon fill="black" stroke="black" points="95.36,-319.25 91.86,-309.25 88.36,-319.25 95.36,-319.25"/>
</g>
<!-- :test&#45;data&#45;&gt;:data:musicbrainz -->
<g id="edge15" class="edge">
<title>:test&#45;data&#45;&gt;:data:musicbrainz</title>
<path fill="none" stroke="black" stroke-dasharray="1,5" d="M400.67,-432C517.05,-432 778.4,-432 778.4,-432 778.4,-432 778.4,-310.34 778.4,-310.34"/>
<polygon fill="black" stroke="black" points="781.9,-310.34 778.4,-300.34 774.9,-310.34 781.9,-310.34"/>
</g>
<!-- :test&#45;data&#45;&gt;:shared:domain -->
<g id="edge18" class="edge">
<title>:test&#45;data&#45;&gt;:shared:domain</title>
<path fill="none" stroke="black" stroke-dasharray="1,5" d="M293.58,-423C261.23,-423 225.83,-423 225.83,-423 225.83,-423 225.83,-182.58 225.83,-182.58"/>
<polygon fill="black" stroke="black" points="229.33,-182.58 225.83,-172.58 222.33,-182.58 229.33,-182.58"/>
</g>
<!-- :data:coverart -->
<g id="node14" class="node">
<title>:data:coverart</title>
<ellipse fill="#b59aff" stroke="black" cx="345.89" cy="-292" rx="76.09" ry="18"/>
<text text-anchor="middle" x="345.89" y="-288.3" font-family="Times,serif" font-size="14.00">:data:coverart</text>
</g>
<!-- :test&#45;data&#45;&gt;:data:coverart -->
<g id="edge16" class="edge">
<title>:test&#45;data&#45;&gt;:data:coverart</title>
<path fill="none" stroke="black" stroke-dasharray="1,5" d="M345.89,-410.81C345.89,-410.81 345.89,-320.27 345.89,-320.27"/>
<polygon fill="black" stroke="black" points="349.39,-320.27 345.89,-310.27 342.39,-320.27 349.39,-320.27"/>
</g>
<!-- :ui:core -->
<g id="node15" class="node">
<title>:ui:core</title>
<ellipse fill="#b59aff" stroke="black" cx="1554.89" cy="-155" rx="45.49" ry="18"/>
<text text-anchor="middle" x="1554.89" y="-151.3" font-family="Times,serif" font-size="14.00">:ui:core</text>
</g>
<!-- :ui:test:screenshot&#45;&gt;:ui:core -->
<g id="edge19" class="edge">
<title>:ui:test:screenshot&#45;&gt;:ui:core</title>
<path fill="none" stroke="black" stroke-dasharray="1,5" d="M1479.71,-287.44C1479.71,-263.67 1479.71,-155 1479.71,-155 1479.71,-155 1498.99,-155 1498.99,-155"/>
<polygon fill="black" stroke="black" points="1498.99,-158.5 1508.99,-155 1498.99,-151.5 1498.99,-158.5"/>
</g>
<!-- :ui:test:screenshot&#45;&gt;:ui:core -->
<g id="edge59" class="edge">
<title>:ui:test:screenshot&#45;&gt;:ui:core</title>
<path fill="none" stroke="black" stroke-dasharray="1,5" d="M1476.68,-285.73C1476.68,-257.78 1476.68,-146 1476.68,-146 1476.68,-146 1505.33,-146 1505.33,-146"/>
<polygon fill="black" stroke="black" points="1505.33,-149.5 1515.33,-146 1505.33,-142.5 1505.33,-149.5"/>
</g>
<!-- :test:image -->
<g id="node16" class="node">
<title>:test:image</title>
<ellipse fill="#9affb5" stroke="black" cx="1372.89" cy="-155" rx="63.09" ry="18"/>
<text text-anchor="middle" x="1372.89" y="-151.3" font-family="Times,serif" font-size="14.00">:test:image</text>
</g>
<!-- :ui:test:screenshot&#45;&gt;:test:image -->
<g id="edge20" class="edge">
<title>:ui:test:screenshot&#45;&gt;:test:image</title>
<path fill="none" stroke="black" stroke-dasharray="1,5" d="M1351.88,-274.93C1351.88,-274.93 1351.88,-182.29 1351.88,-182.29"/>
<polygon fill="black" stroke="black" points="1355.38,-182.29 1351.88,-172.29 1348.38,-182.29 1355.38,-182.29"/>
</g>
<!-- :ui:test:screenshot&#45;&gt;:test:image -->
<g id="edge60" class="edge">
<title>:ui:test:screenshot&#45;&gt;:test:image</title>
<path fill="none" stroke="black" stroke-dasharray="1,5" d="M1393.91,-273.81C1393.91,-273.81 1393.91,-181.97 1393.91,-181.97"/>
<polygon fill="black" stroke="black" points="1397.41,-181.97 1393.91,-171.97 1390.41,-181.97 1397.41,-181.97"/>
</g>
<!-- :core:preferences&#45;&gt;:core:models -->
<g id="edge22" class="edge">
<title>:core:preferences&#45;&gt;:core:models</title>
<path fill="none" stroke="black" stroke-dasharray="1,5" d="M1237.2,-277.83C1237.2,-221.18 1237.2,-14 1237.2,-14 1237.2,-14 939.86,-14 939.86,-14"/>
<polygon fill="black" stroke="black" points="939.86,-10.5 929.86,-14 939.86,-17.5 939.86,-10.5"/>
</g>
<!-- :core:preferences&#45;&gt;:core:models -->
<g id="edge68" class="edge">
<title>:core:preferences&#45;&gt;:core:models</title>
<path fill="none" stroke="black" stroke-dasharray="1,5" d="M1254.37,-281.18C1254.37,-229.12 1254.37,-7 1254.37,-7 1254.37,-7 927.29,-7 927.29,-7"/>
<polygon fill="black" stroke="black" points="927.29,-3.5 917.29,-7 927.29,-10.5 927.29,-3.5"/>
</g>
<!-- :core:coroutines -->
<g id="node17" class="node">
<title>:core:coroutines</title>
<ellipse fill="#b59aff" stroke="black" cx="1134.89" cy="-155" rx="85.29" ry="18"/>
<text text-anchor="middle" x="1134.89" y="-151.3" font-family="Times,serif" font-size="14.00">:core:coroutines</text>
</g>
<!-- :core:preferences&#45;&gt;:core:coroutines -->
<g id="edge21" class="edge">
<title>:core:preferences&#45;&gt;:core:coroutines</title>
<path fill="none" stroke="black" stroke-dasharray="1,5" d="M1132.18,-276.55C1132.18,-276.55 1132.18,-183.21 1132.18,-183.21"/>
<polygon fill="black" stroke="black" points="1135.68,-183.21 1132.18,-173.21 1128.68,-183.21 1135.68,-183.21"/>
</g>
<!-- :core:preferences&#45;&gt;:core:coroutines -->
<g id="edge67" class="edge">
<title>:core:preferences&#45;&gt;:core:coroutines</title>
<path fill="none" stroke="black" stroke-dasharray="1,5" d="M1176.11,-273.81C1176.11,-273.81 1176.11,-181.13 1176.11,-181.13"/>
<polygon fill="black" stroke="black" points="1179.61,-181.13 1176.11,-171.13 1172.61,-181.13 1179.61,-181.13"/>
</g>
<!-- :data:common:network&#45;&gt;:core:logging:api -->
<g id="edge23" class="edge">
<title>:data:common:network&#45;&gt;:core:logging:api</title>
<path fill="none" stroke="black" stroke-dasharray="1,5" d="M628.13,-277.6C628.13,-277.6 628.13,-182.64 628.13,-182.64"/>
<polygon fill="black" stroke="black" points="631.63,-182.64 628.13,-172.64 624.63,-182.64 631.63,-182.64"/>
</g>
<!-- :data:common:network&#45;&gt;:core:logging:api -->
<g id="edge44" class="edge">
<title>:data:common:network&#45;&gt;:core:logging:api</title>
<path fill="none" stroke="black" stroke-dasharray="1,5" d="M651.01,-281.25C651.01,-281.25 651.01,-183.36 651.01,-183.36"/>
<polygon fill="black" stroke="black" points="654.51,-183.36 651.01,-173.36 647.51,-183.36 654.51,-183.36"/>
</g>
<!-- :data:spotify&#45;&gt;:core:models -->
<g id="edge25" class="edge">
<title>:data:spotify&#45;&gt;:core:models</title>
<path fill="none" stroke="black" stroke-dasharray="1,5" d="M80.9,-274.05C80.9,-211.22 80.9,-5 80.9,-5 80.9,-5 803.63,-5 803.63,-5"/>
<polygon fill="black" stroke="black" points="803.63,-8.5 813.63,-5 803.63,-1.5 803.63,-8.5"/>
</g>
<!-- :data:spotify&#45;&gt;:core:models -->
<g id="edge51" class="edge">
<title>:data:spotify&#45;&gt;:core:models</title>
<path fill="none" stroke="black" stroke-dasharray="1,5" d="M40.45,-275.21C40.45,-213.53 40.45,-3 40.45,-3 40.45,-3 813.38,-3 813.38,-3"/>
<polygon fill="black" stroke="black" points="813.38,-6.5 823.38,-3 813.38,0.5 813.38,-6.5"/>
</g>
<!-- :data:spotify&#45;&gt;:core:logging:api -->
<g id="edge24" class="edge">
<title>:data:spotify&#45;&gt;:core:logging:api</title>
<path fill="none" stroke="black" stroke-dasharray="1,5" d="M134.5,-286.36C134.5,-267.22 134.5,-206 134.5,-206 134.5,-206 605.25,-206 605.25,-206 605.25,-206 605.25,-180.86 605.25,-180.86"/>
<polygon fill="black" stroke="black" points="608.75,-180.86 605.25,-170.86 601.75,-180.86 608.75,-180.86"/>
</g>
<!-- :data:spotify&#45;&gt;:core:logging:api -->
<g id="edge50" class="edge">
<title>:data:spotify&#45;&gt;:core:logging:api</title>
<path fill="none" stroke="black" stroke-dasharray="1,5" d="M131.21,-284.26C131.21,-260.3 131.21,-189 131.21,-189 131.21,-189 582.38,-189 582.38,-189 582.38,-189 582.38,-177.27 582.38,-177.27"/>
<polygon fill="black" stroke="black" points="585.88,-177.27 582.38,-167.27 578.88,-177.27 585.88,-177.27"/>
</g>
<!-- :data:spotify&#45;&gt;:shared:domain -->
<g id="edge26" class="edge">
<title>:data:spotify&#45;&gt;:shared:domain</title>
<path fill="none" stroke="black" stroke-dasharray="1,5" d="M124.64,-281.25C124.64,-281.25 124.64,-170.14 124.64,-170.14"/>
<polygon fill="black" stroke="black" points="128.14,-170.14 124.64,-160.14 121.14,-170.14 128.14,-170.14"/>
</g>
<!-- :data:spotify&#45;&gt;:shared:domain -->
<g id="edge52" class="edge">
<title>:data:spotify&#45;&gt;:shared:domain</title>
<path fill="none" stroke="black" stroke-dasharray="1,5" d="M127.93,-282.58C127.93,-282.58 127.93,-172.09 127.93,-172.09"/>
<polygon fill="black" stroke="black" points="131.43,-172.09 127.93,-162.09 124.43,-172.09 131.43,-172.09"/>
</g>
<!-- :data:musicbrainz&#45;&gt;:core:models -->
<g id="edge28" class="edge">
<title>:data:musicbrainz&#45;&gt;:core:models</title>
<path fill="none" stroke="black" stroke-dasharray="1,5" d="M812.22,-276.48C812.22,-276.48 812.22,-40.75 812.22,-40.75"/>
<polygon fill="black" stroke="black" points="815.72,-40.75 812.22,-30.75 808.72,-40.75 815.72,-40.75"/>
</g>
<!-- :data:musicbrainz&#45;&gt;:core:models -->
<g id="edge46" class="edge">
<title>:data:musicbrainz&#45;&gt;:core:models</title>
<path fill="none" stroke="black" stroke-dasharray="1,5" d="M832.09,-274.86C832.09,-274.86 832.09,-44.44 832.09,-44.44"/>
<polygon fill="black" stroke="black" points="835.59,-44.44 832.09,-34.44 828.59,-44.44 835.59,-44.44"/>
</g>
<!-- :data:musicbrainz&#45;&gt;:core:models -->
<g id="edge57" class="edge">
<title>:data:musicbrainz&#45;&gt;:core:models</title>
<path fill="none" stroke="black" stroke-dasharray="1,5" d="M851.96,-274.02C851.96,-274.02 851.96,-46.04 851.96,-46.04"/>
<polygon fill="black" stroke="black" points="855.46,-46.04 851.96,-36.04 848.46,-46.04 855.46,-46.04"/>
</g>
<!-- :data:musicbrainz&#45;&gt;:core:models -->
<g id="edge66" class="edge">
<title>:data:musicbrainz&#45;&gt;:core:models</title>
<path fill="none" stroke="black" stroke-dasharray="1,5" d="M871.83,-274.02C871.83,-274.02 871.83,-46.04 871.83,-46.04"/>
<polygon fill="black" stroke="black" points="875.33,-46.04 871.83,-36.04 868.33,-46.04 875.33,-46.04"/>
</g>
<!-- :data:musicbrainz&#45;&gt;:core:logging:api -->
<g id="edge27" class="edge">
<title>:data:musicbrainz&#45;&gt;:core:logging:api</title>
<path fill="none" stroke="black" stroke-dasharray="1,5" d="M773.11,-286.08C773.11,-260.64 773.11,-162 773.11,-162 773.11,-162 739.67,-162 739.67,-162"/>
<polygon fill="black" stroke="black" points="739.67,-158.5 729.67,-162 739.67,-165.5 739.67,-158.5"/>
</g>
<!-- :data:musicbrainz&#45;&gt;:core:logging:api -->
<g id="edge45" class="edge">
<title>:data:musicbrainz&#45;&gt;:core:logging:api</title>
<path fill="none" stroke="black" stroke-dasharray="1,5" d="M777.92,-283.96C777.92,-254.9 777.92,-157 777.92,-157 777.92,-157 746.06,-157 746.06,-157"/>
<polygon fill="black" stroke="black" points="746.06,-153.5 736.06,-157 746.06,-160.5 746.06,-153.5"/>
</g>
<!-- :data:musicbrainz&#45;&gt;:core:logging:api -->
<g id="edge56" class="edge">
<title>:data:musicbrainz&#45;&gt;:core:logging:api</title>
<path fill="none" stroke="black" stroke-dasharray="1,5" d="M782.73,-282.38C782.73,-250.75 782.73,-152 782.73,-152 782.73,-152 745.19,-152 745.19,-152"/>
<polygon fill="black" stroke="black" points="745.19,-148.5 735.19,-152 745.19,-155.5 745.19,-148.5"/>
</g>
<!-- :data:musicbrainz&#45;&gt;:core:logging:api -->
<g id="edge65" class="edge">
<title>:data:musicbrainz&#45;&gt;:core:logging:api</title>
<path fill="none" stroke="black" stroke-dasharray="1,5" d="M787.54,-280.62C787.54,-246.44 787.54,-147 787.54,-147 787.54,-147 737.1,-147 737.1,-147"/>
<polygon fill="black" stroke="black" points="737.1,-143.5 727.1,-147 737.1,-150.5 737.1,-143.5"/>
</g>
<!-- :data:database&#45;&gt;:core:models -->
<g id="edge30" class="edge">
<title>:data:database&#45;&gt;:core:models</title>
<path fill="none" stroke="black" stroke-dasharray="1,5" d="M952.83,-423C959.22,-423 963.31,-423 963.31,-423 963.31,-423 963.31,-28 963.31,-28 963.31,-28 930,-28 930,-28"/>
<polygon fill="black" stroke="black" points="930.01,-24.5 920,-28 930,-31.5 930.01,-24.5"/>
</g>
<!-- :data:database&#45;&gt;:data:musicbrainz -->
<g id="edge31" class="edge">
<title>:data:database&#45;&gt;:data:musicbrainz</title>
<path fill="none" stroke="black" stroke-dasharray="1,5" d="M877.04,-410.81C877.04,-410.81 877.04,-319.83 877.04,-319.83"/>
<polygon fill="black" stroke="black" points="880.54,-319.83 877.04,-309.83 873.54,-319.83 880.54,-319.83"/>
</g>
<!-- :data:database&#45;&gt;:core:coroutines -->
<g id="edge29" class="edge">
<title>:data:database&#45;&gt;:core:coroutines</title>
<path fill="none" stroke="black" stroke-dasharray="1,5" d="M953.06,-435C962.78,-435 969.43,-435 969.43,-435 969.43,-435 969.43,-167 969.43,-167 969.43,-167 1061.39,-167 1061.39,-167"/>
<polygon fill="black" stroke="black" points="1061.39,-170.5 1071.39,-167 1061.39,-163.5 1061.39,-170.5"/>
</g>
<!-- :ui:image&#45;&gt;:core:models -->
<g id="edge32" class="edge">
<title>:ui:image&#45;&gt;:core:models</title>
<path fill="none" stroke="black" stroke-dasharray="1,5" d="M1503.77,-286.03C1503.77,-272.38 1503.77,-240 1503.77,-240 1503.77,-240 891.7,-240 891.7,-240 891.7,-240 891.7,-44.32 891.7,-44.32"/>
<polygon fill="black" stroke="black" points="895.2,-44.32 891.7,-34.32 888.2,-44.32 895.2,-44.32"/>
</g>
<!-- :ui:image&#45;&gt;:core:models -->
<g id="edge70" class="edge">
<title>:ui:image&#45;&gt;:core:models</title>
<path fill="none" stroke="black" stroke-dasharray="1,5" d="M1506.58,-283.81C1506.58,-265.54 1506.58,-223 1506.58,-223 1506.58,-223 911.57,-223 911.57,-223 911.57,-223 911.57,-40.82 911.57,-40.82"/>
<polygon fill="black" stroke="black" points="915.07,-40.82 911.57,-30.82 908.07,-40.82 915.07,-40.82"/>
</g>
<!-- :ui:image&#45;&gt;:ui:core -->
<g id="edge33" class="edge">
<title>:ui:image&#45;&gt;:ui:core</title>
<path fill="none" stroke="black" stroke-dasharray="1,5" d="M1539.73,-274.65C1539.73,-274.65 1539.73,-182.21 1539.73,-182.21"/>
<polygon fill="black" stroke="black" points="1543.23,-182.21 1539.73,-172.21 1536.23,-182.21 1543.23,-182.21"/>
</g>
<!-- :ui:image&#45;&gt;:ui:core -->
<g id="edge71" class="edge">
<title>:ui:image&#45;&gt;:ui:core</title>
<path fill="none" stroke="black" stroke-dasharray="1,5" d="M1570.06,-274.65C1570.06,-274.65 1570.06,-182.21 1570.06,-182.21"/>
<polygon fill="black" stroke="black" points="1573.56,-182.21 1570.06,-172.21 1566.56,-182.21 1573.56,-182.21"/>
</g>
<!-- :shared:domain&#45;&gt;:core:models -->
<g id="edge34" class="edge">
<title>:shared:domain&#45;&gt;:core:models</title>
<path fill="none" stroke="black" stroke-dasharray="1,5" d="M258.92,-141.56C258.92,-107.42 258.92,-20 258.92,-20 258.92,-20 782.73,-20 782.73,-20"/>
<polygon fill="black" stroke="black" points="782.73,-23.5 792.73,-20 782.73,-16.5 782.73,-23.5"/>
</g>
<!-- :shared:domain&#45;&gt;:core:models -->
<g id="edge53" class="edge">
<title>:shared:domain&#45;&gt;:core:models</title>
<path fill="none" stroke="black" stroke-dasharray="1,5" d="M231.41,-137.93C231.41,-101.2 231.41,-18 231.41,-18 231.41,-18 782.31,-18 782.31,-18"/>
<polygon fill="black" stroke="black" points="782.31,-21.5 792.31,-18 782.31,-14.5 782.31,-21.5"/>
</g>
<!-- :shared:domain&#45;&gt;:core:models -->
<g id="edge55" class="edge">
<title>:shared:domain&#45;&gt;:core:models</title>
<path fill="none" stroke="black" stroke-dasharray="1,5" d="M203.89,-136.86C203.89,-98.77 203.89,-14 203.89,-14 203.89,-14 783.95,-14 783.95,-14"/>
<polygon fill="black" stroke="black" points="783.95,-17.5 793.95,-14 783.95,-10.5 783.95,-17.5"/>
</g>
<!-- :shared:domain&#45;&gt;:core:models -->
<g id="edge69" class="edge">
<title>:shared:domain&#45;&gt;:core:models</title>
<path fill="none" stroke="black" stroke-dasharray="1,5" d="M176.38,-137.75C176.38,-99.72 176.38,-12 176.38,-12 176.38,-12 786.16,-12 786.16,-12"/>
<polygon fill="black" stroke="black" points="786.16,-15.5 796.16,-12 786.16,-8.5 786.16,-15.5"/>
</g>
<!-- :shared:domain&#45;&gt;:core:models -->
<g id="edge72" class="edge">
<title>:shared:domain&#45;&gt;:core:models</title>
<path fill="none" stroke="black" stroke-dasharray="1,5" d="M148.87,-141.53C148.87,-105.38 148.87,-9 148.87,-9 148.87,-9 791.41,-9 791.41,-9"/>
<polygon fill="black" stroke="black" points="791.41,-12.5 801.41,-9 791.41,-5.5 791.41,-12.5"/>
</g>
<!-- :ui:common&#45;&gt;:ui:test:screenshot -->
<g id="edge35" class="edge">
<title>:ui:common&#45;&gt;:ui:test:screenshot</title>
<path fill="none" stroke="#ff9ab1" stroke-dasharray="1,5" d="M1095.62,-420C1185.77,-420 1353.61,-420 1353.61,-420 1353.61,-420 1353.61,-319 1353.61,-319"/>
<polygon fill="#ff9ab1" stroke="#ff9ab1" points="1357.11,-319 1353.61,-309 1350.11,-319 1357.11,-319"/>
</g>
<!-- :ui:common&#45;&gt;:core:models -->
<g id="edge36" class="edge">
<title>:ui:common&#45;&gt;:core:models</title>
<path fill="none" stroke="black" d="M1037.38,-410.94C1037.38,-331.98 1037.38,-21 1037.38,-21 1037.38,-21 940.5,-21 940.5,-21"/>
<polygon fill="black" stroke="black" points="940.5,-17.5 930.5,-21 940.5,-24.5 940.5,-17.5"/>
</g>
<!-- :ui:common&#45;&gt;:core:preferences -->
<g id="edge40" class="edge">
<title>:ui:common&#45;&gt;:core:preferences</title>
<path fill="none" stroke="black" stroke-dasharray="1,5" d="M1096.25,-420.01C1096.25,-420.01 1096.25,-309.48 1096.25,-309.48"/>
<polygon fill="black" stroke="black" points="1099.75,-309.48 1096.25,-299.48 1092.75,-309.48 1099.75,-309.48"/>
</g>
<!-- :ui:common&#45;&gt;:core:logging:api -->
<g id="edge41" class="edge">
<title>:ui:common&#45;&gt;:core:logging:api</title>
<path fill="none" stroke="black" stroke-dasharray="1,5" d="M1025.02,-411.48C1025.02,-349.17 1025.02,-142 1025.02,-142 1025.02,-142 719.32,-142 719.32,-142"/>
<polygon fill="black" stroke="black" points="719.32,-138.5 709.32,-142 719.32,-145.5 719.32,-138.5"/>
</g>
<!-- :ui:common&#45;&gt;:data:musicbrainz -->
<g id="edge39" class="edge">
<title>:ui:common&#45;&gt;:data:musicbrainz</title>
<path fill="none" stroke="black" stroke-dasharray="1,5" d="M1000.28,-414.6C1000.28,-379.42 1000.28,-292 1000.28,-292 1000.28,-292 965.73,-292 965.73,-292"/>
<polygon fill="black" stroke="black" points="965.73,-288.5 955.73,-292 965.73,-295.5 965.73,-288.5"/>
</g>
<!-- :ui:common&#45;&gt;:ui:image -->
<g id="edge43" class="edge">
<title>:ui:common&#45;&gt;:ui:image</title>
<path fill="none" stroke="black" stroke-dasharray="1,5" d="M1095.94,-438C1225.92,-438 1536.91,-438 1536.91,-438 1536.91,-438 1536.91,-319.03 1536.91,-319.03"/>
<polygon fill="black" stroke="black" points="1540.41,-319.03 1536.91,-309.03 1533.41,-319.03 1540.41,-319.03"/>
</g>
<!-- :ui:common&#45;&gt;:shared:domain -->
<g id="edge42" class="edge">
<title>:ui:common&#45;&gt;:shared:domain</title>
<path fill="none" stroke="black" stroke-dasharray="1,5" d="M1012.65,-412.51C1012.65,-369.46 1012.65,-257 1012.65,-257 1012.65,-257 282.29,-257 282.29,-257 282.29,-257 282.29,-170.78 282.29,-170.78"/>
<polygon fill="black" stroke="black" points="285.79,-170.78 282.29,-160.78 278.79,-170.78 285.79,-170.78"/>
</g>
<!-- :ui:common&#45;&gt;:data:coverart -->
<g id="edge38" class="edge">
<title>:ui:common&#45;&gt;:data:coverart</title>
<path fill="none" stroke="black" stroke-dasharray="1,5" d="M987.92,-418.22C987.92,-398.81 987.92,-360 987.92,-360 987.92,-360 411.54,-360 411.54,-360 411.54,-360 411.54,-311.17 411.54,-311.17"/>
<polygon fill="black" stroke="black" points="415.04,-311.17 411.54,-301.17 408.04,-311.17 415.04,-311.17"/>
</g>
<!-- :ui:common&#45;&gt;:ui:core -->
<g id="edge37" class="edge">
<title>:ui:common&#45;&gt;:ui:core</title>
<path fill="none" stroke="black" d="M1104.65,-429C1229.61,-429 1491.84,-429 1491.84,-429 1491.84,-429 1491.84,-164 1491.84,-164 1491.84,-164 1505.32,-164 1505.32,-164"/>
<polygon fill="black" stroke="black" points="1505.32,-167.5 1515.32,-164 1505.32,-160.5 1505.32,-167.5"/>
</g>
<!-- :data:coverart&#45;&gt;:core:models -->
<g id="edge48" class="edge">
<title>:data:coverart&#45;&gt;:core:models</title>
<path fill="none" stroke="black" stroke-dasharray="1,5" d="M340.64,-273.79C340.64,-213.91 340.64,-27 340.64,-27 340.64,-27 791.59,-27 791.59,-27"/>
<polygon fill="black" stroke="black" points="791.59,-30.5 801.59,-27 791.59,-23.5 791.59,-30.5"/>
</g>
<!-- :data:coverart&#45;&gt;:core:models -->
<g id="edge63" class="edge">
<title>:data:coverart&#45;&gt;:core:models</title>
<path fill="none" stroke="black" stroke-dasharray="1,5" d="M313.54,-275.64C313.54,-217.45 313.54,-24 313.54,-24 313.54,-24 786.29,-24 786.29,-24"/>
<polygon fill="black" stroke="black" points="786.29,-27.5 796.29,-24 786.29,-20.5 786.29,-27.5"/>
</g>
<!-- :data:coverart&#45;&gt;:core:logging:api -->
<g id="edge47" class="edge">
<title>:data:coverart&#45;&gt;:core:logging:api</title>
<path fill="none" stroke="black" stroke-dasharray="1,5" d="M394.84,-277.98C394.84,-244.19 394.84,-161 394.84,-161 394.84,-161 554.33,-161 554.33,-161"/>
<polygon fill="black" stroke="black" points="554.33,-164.5 564.33,-161 554.33,-157.5 554.33,-164.5"/>
</g>
<!-- :data:coverart&#45;&gt;:core:logging:api -->
<g id="edge62" class="edge">
<title>:data:coverart&#45;&gt;:core:logging:api</title>
<path fill="none" stroke="black" stroke-dasharray="1,5" d="M367.74,-274.75C367.74,-236.72 367.74,-149 367.74,-149 367.74,-149 554.22,-149 554.22,-149"/>
<polygon fill="black" stroke="black" points="554.22,-152.5 564.22,-149 554.22,-145.5 554.22,-152.5"/>
</g>
<!-- :data:coverart&#45;&gt;:shared:domain -->
<g id="edge49" class="edge">
<title>:data:coverart&#45;&gt;:shared:domain</title>
<path fill="none" stroke="black" stroke-dasharray="1,5" d="M274,-286.11C274,-286.11 274,-174.85 274,-174.85"/>
<polygon fill="black" stroke="black" points="277.5,-174.85 274,-164.85 270.5,-174.85 277.5,-174.85"/>
</g>
<!-- :data:coverart&#45;&gt;:shared:domain -->
<g id="edge64" class="edge">
<title>:data:coverart&#45;&gt;:shared:domain</title>
<path fill="none" stroke="black" stroke-dasharray="1,5" d="M278.14,-283.43C278.14,-283.43 278.14,-172.88 278.14,-172.88"/>
<polygon fill="black" stroke="black" points="281.64,-172.88 278.14,-162.88 274.64,-172.88 281.64,-172.88"/>
</g>
<!-- :shared:strings -->
<g id="node18" class="node">
<title>:shared:strings</title>
<ellipse fill="#b59aff" stroke="black" cx="1554.89" cy="-18" rx="81.49" ry="18"/>
<text text-anchor="middle" x="1554.89" y="-14.3" font-family="Times,serif" font-size="14.00">:shared:strings</text>
</g>
<!-- :ui:core&#45;&gt;:shared:strings -->
<g id="edge54" class="edge">
<title>:ui:core&#45;&gt;:shared:strings</title>
<path fill="none" stroke="black" d="M1532.15,-139.28C1532.15,-139.28 1532.15,-45.69 1532.15,-45.69"/>
<polygon fill="black" stroke="black" points="1535.65,-45.69 1532.15,-35.69 1528.65,-45.69 1535.65,-45.69"/>
</g>
<!-- :ui:core&#45;&gt;:shared:strings -->
<g id="edge58" class="edge">
<title>:ui:core&#45;&gt;:shared:strings</title>
<path fill="none" stroke="black" d="M1554.89,-136.81C1554.89,-136.81 1554.89,-46.27 1554.89,-46.27"/>
<polygon fill="black" stroke="black" points="1558.39,-46.27 1554.89,-36.27 1551.39,-46.27 1558.39,-46.27"/>
</g>
<!-- :ui:core&#45;&gt;:shared:strings -->
<g id="edge61" class="edge">
<title>:ui:core&#45;&gt;:shared:strings</title>
<path fill="none" stroke="black" d="M1577.64,-139.28C1577.64,-139.28 1577.64,-45.69 1577.64,-45.69"/>
<polygon fill="black" stroke="black" points="1581.14,-45.69 1577.64,-35.69 1574.14,-45.69 1581.14,-45.69"/>
</g>
</g>
</svg>
