<?xml version="1.0" encoding="UTF-8" standalone="no"?>
<!DOCTYPE svg PUBLIC "-//W3C//DTD SVG 1.1//EN"
 "http://www.w3.org/Graphics/SVG/1.1/DTD/svg11.dtd">
<!-- Generated by graphviz version 2.43.0 (0)
 -->
<!-- Title: %3 Pages: 1 -->
<svg width="857pt" height="940pt"
 viewBox="0.00 0.00 857.13 940.00" xmlns="http://www.w3.org/2000/svg" xmlns:xlink="http://www.w3.org/1999/xlink">
<g id="graph0" class="graph" transform="scale(1 1) rotate(0) translate(4 936)">
<title>%3</title>
<polygon fill="white" stroke="transparent" points="-4,4 -4,-936 853.13,-936 853.13,4 -4,4"/>
<text text-anchor="middle" x="424.57" y="-904" font-family="Times,serif" font-size="30.00">Dependencies</text>
<text text-anchor="middle" x="424.57" y="-871" font-family="Times,serif" font-size="30.00"> </text>
<!-- :shared:feature:details -->
<g id="node1" class="node">
<title>:shared:feature:details</title>
<polygon fill="#b59aff" stroke="black" points="614.79,-858 435.79,-858 435.79,-822 614.79,-822 614.79,-858"/>
<text text-anchor="middle" x="525.29" y="-836.3" font-family="Times,serif" font-size="14.00">:shared:feature:details</text>
</g>
<!-- :test&#45;data -->
<g id="node2" class="node">
<title>:test&#45;data</title>
<ellipse fill="#b59aff" stroke="black" cx="241.29" cy="-566" rx="55.49" ry="18"/>
<text text-anchor="middle" x="241.29" y="-562.3" font-family="Times,serif" font-size="14.00">:test&#45;data</text>
</g>
<!-- :shared:feature:details&#45;&gt;:test&#45;data -->
<g id="edge1" class="edge">
<title>:shared:feature:details&#45;&gt;:test&#45;data</title>
<path fill="none" stroke="#ff9ab1" stroke-dasharray="1,5" d="M435.79,-846C346.61,-846 222.88,-846 222.88,-846 222.88,-846 222.88,-593.09 222.88,-593.09"/>
<polygon fill="#ff9ab1" stroke="#ff9ab1" points="226.38,-593.09 222.88,-583.09 219.38,-593.09 226.38,-593.09"/>
</g>
<!-- :ui:test:screenshot -->
<g id="node3" class="node">
<title>:ui:test:screenshot</title>
<ellipse fill="#9affb5" stroke="black" cx="752.29" cy="-566" rx="96.68" ry="18"/>
<text text-anchor="middle" x="752.29" y="-562.3" font-family="Times,serif" font-size="14.00">:ui:test:screenshot</text>
</g>
<!-- :shared:feature:details&#45;&gt;:ui:test:screenshot -->
<g id="edge2" class="edge">
<title>:shared:feature:details&#45;&gt;:ui:test:screenshot</title>
<path fill="none" stroke="#ff9ab1" stroke-dasharray="1,5" d="M606.41,-822C606.41,-761.91 606.41,-572 606.41,-572 606.41,-572 650.73,-572 650.73,-572"/>
<polygon fill="#ff9ab1" stroke="#ff9ab1" points="650.73,-575.5 660.73,-572 650.73,-568.5 650.73,-575.5"/>
</g>
<!-- :ui:common -->
<g id="node4" class="node">
<title>:ui:common</title>
<ellipse fill="#b59aff" stroke="black" cx="525.29" cy="-703" rx="64.19" ry="18"/>
<text text-anchor="middle" x="525.29" y="-699.3" font-family="Times,serif" font-size="14.00">:ui:common</text>
</g>
<!-- :shared:feature:details&#45;&gt;:ui:common -->
<g id="edge3" class="edge">
<title>:shared:feature:details&#45;&gt;:ui:common</title>
<path fill="none" stroke="black" stroke-dasharray="1,5" d="M525.29,-821.81C525.29,-821.81 525.29,-731.27 525.29,-731.27"/>
<polygon fill="black" stroke="black" points="528.79,-731.27 525.29,-721.27 521.79,-731.27 528.79,-731.27"/>
</g>
<!-- :shared:domain -->
<g id="node5" class="node">
<title>:shared:domain</title>
<ellipse fill="#b59aff" stroke="black" cx="113.29" cy="-18" rx="82.59" ry="18"/>
<text text-anchor="middle" x="113.29" y="-14.3" font-family="Times,serif" font-size="14.00">:shared:domain</text>
</g>
<!-- :shared:feature:details&#45;&gt;:shared:domain -->
<g id="edge4" class="edge">
<title>:shared:feature:details&#45;&gt;:shared:domain</title>
<path fill="none" stroke="black" stroke-dasharray="1,5" d="M435.71,-834C389.59,-834 342.92,-834 342.92,-834 342.92,-834 342.92,-27 342.92,-27 342.92,-27 195,-27 195,-27"/>
<polygon fill="black" stroke="black" points="195,-23.5 185,-27 195,-30.5 195,-23.5"/>
</g>
<!-- :core:logging:api -->
<g id="node6" class="node">
<title>:core:logging:api</title>
<ellipse fill="#b59aff" stroke="black" cx="492.29" cy="-18" rx="88.28" ry="18"/>
<text text-anchor="middle" x="492.29" y="-14.3" font-family="Times,serif" font-size="14.00">:core:logging:api</text>
</g>
<!-- :shared:feature:details&#45;&gt;:core:logging:api -->
<g id="edge5" class="edge">
<title>:shared:feature:details&#45;&gt;:core:logging:api</title>
<path fill="none" stroke="black" stroke-dasharray="1,5" d="M598.02,-821.68C598.02,-700.39 598.02,-18 598.02,-18 598.02,-18 591.04,-18 591.04,-18"/>
<polygon fill="black" stroke="black" points="591.04,-14.5 581.04,-18 591.04,-21.5 591.04,-14.5"/>
</g>
<!-- :test&#45;data&#45;&gt;:shared:domain -->
<g id="edge6" class="edge">
<title>:test&#45;data&#45;&gt;:shared:domain</title>
<path fill="none" stroke="black" stroke-dasharray="1,5" d="M277.94,-552.33C277.94,-486.57 277.94,-206 277.94,-206 277.94,-206 113.96,-206 113.96,-206 113.96,-206 113.96,-46.03 113.96,-46.03"/>
<polygon fill="black" stroke="black" points="117.46,-46.03 113.96,-36.03 110.46,-46.03 117.46,-46.03"/>
</g>
<!-- :data:database -->
<g id="node7" class="node">
<title>:data:database</title>
<ellipse fill="#b59aff" stroke="black" cx="79.29" cy="-292" rx="79.09" ry="18"/>
<text text-anchor="middle" x="79.29" y="-288.3" font-family="Times,serif" font-size="14.00">:data:database</text>
</g>
<!-- :test&#45;data&#45;&gt;:data:database -->
<g id="edge7" class="edge">
<title>:test&#45;data&#45;&gt;:data:database</title>
<path fill="none" stroke="black" stroke-dasharray="1,5" d="M268.64,-550.08C268.64,-491.61 268.64,-292 268.64,-292 268.64,-292 168.77,-292 168.77,-292"/>
<polygon fill="black" stroke="black" points="168.77,-288.5 158.77,-292 168.77,-295.5 168.77,-288.5"/>
</g>
<!-- :data:musicbrainz -->
<g id="node8" class="node">
<title>:data:musicbrainz</title>
<ellipse fill="#b59aff" stroke="black" cx="235.29" cy="-155" rx="93.68" ry="18"/>
<text text-anchor="middle" x="235.29" y="-151.3" font-family="Times,serif" font-size="14.00">:data:musicbrainz</text>
</g>
<!-- :test&#45;data&#45;&gt;:data:musicbrainz -->
<g id="edge8" class="edge">
<title>:test&#45;data&#45;&gt;:data:musicbrainz</title>
<path fill="none" stroke="black" stroke-dasharray="1,5" d="M287.24,-555.84C287.24,-555.84 287.24,-180.07 287.24,-180.07"/>
<polygon fill="black" stroke="black" points="290.74,-180.07 287.24,-170.07 283.74,-180.07 290.74,-180.07"/>
</g>
<!-- :data:coverart -->
<g id="node9" class="node">
<title>:data:coverart</title>
<ellipse fill="#b59aff" stroke="black" cx="183.29" cy="-429" rx="76.09" ry="18"/>
<text text-anchor="middle" x="183.29" y="-425.3" font-family="Times,serif" font-size="14.00">:data:coverart</text>
</g>
<!-- :test&#45;data&#45;&gt;:data:coverart -->
<g id="edge9" class="edge">
<title>:test&#45;data&#45;&gt;:data:coverart</title>
<path fill="none" stroke="black" stroke-dasharray="1,5" d="M210.48,-550.82C210.48,-550.82 210.48,-455.96 210.48,-455.96"/>
<polygon fill="black" stroke="black" points="213.98,-455.96 210.48,-445.96 206.98,-455.96 213.98,-455.96"/>
</g>
<!-- :data:spotify -->
<g id="node10" class="node">
<title>:data:spotify</title>
<ellipse fill="#b59aff" stroke="black" cx="492.29" cy="-155" rx="68.79" ry="18"/>
<text text-anchor="middle" x="492.29" y="-151.3" font-family="Times,serif" font-size="14.00">:data:spotify</text>
</g>
<!-- :test&#45;data&#45;&gt;:data:spotify -->
<g id="edge10" class="edge">
<title>:test&#45;data&#45;&gt;:data:spotify</title>
<path fill="none" stroke="black" stroke-dasharray="1,5" d="M296.67,-566C331.92,-566 370.98,-566 370.98,-566 370.98,-566 370.98,-164 370.98,-164 370.98,-164 422.35,-164 422.35,-164"/>
<polygon fill="black" stroke="black" points="422.35,-167.5 432.35,-164 422.35,-160.5 422.35,-167.5"/>
</g>
<!-- :test:image -->
<g id="node11" class="node">
<title>:test:image</title>
<ellipse fill="#9affb5" stroke="black" cx="716.29" cy="-429" rx="63.09" ry="18"/>
<text text-anchor="middle" x="716.29" y="-425.3" font-family="Times,serif" font-size="14.00">:test:image</text>
</g>
<!-- :ui:test:screenshot&#45;&gt;:test:image -->
<g id="edge11" class="edge">
<title>:ui:test:screenshot&#45;&gt;:test:image</title>
<path fill="none" stroke="black" stroke-dasharray="1,5" d="M717.39,-549.2C717.39,-549.2 717.39,-457.25 717.39,-457.25"/>
<polygon fill="black" stroke="black" points="720.89,-457.25 717.39,-447.25 713.89,-457.25 720.89,-457.25"/>
</g>
<!-- :ui:common&#45;&gt;:test&#45;data -->
<g id="edge13" class="edge">
<title>:ui:common&#45;&gt;:test&#45;data</title>
<path fill="none" stroke="#ff9ab1" stroke-dasharray="1,5" d="M464.36,-709C385.95,-709 259.71,-709 259.71,-709 259.71,-709 259.71,-593.25 259.71,-593.25"/>
<polygon fill="#ff9ab1" stroke="#ff9ab1" points="263.21,-593.25 259.71,-583.25 256.21,-593.25 263.21,-593.25"/>
</g>
<!-- :ui:common&#45;&gt;:ui:test:screenshot -->
<g id="edge14" class="edge">
<title>:ui:common&#45;&gt;:ui:test:screenshot</title>
<path fill="none" stroke="#ff9ab1" stroke-dasharray="1,5" d="M586.65,-697.57C586.65,-671.45 586.65,-560 586.65,-560 586.65,-560 650.75,-560 650.75,-560"/>
<polygon fill="#ff9ab1" stroke="#ff9ab1" points="650.75,-563.5 660.75,-560 650.75,-556.5 650.75,-563.5"/>
</g>
<!-- :ui:common&#45;&gt;:shared:domain -->
<g id="edge15" class="edge">
<title>:ui:common&#45;&gt;:shared:domain</title>
<path fill="none" stroke="black" d="M464.52,-697C416.3,-697 356.95,-697 356.95,-697 356.95,-697 356.95,-18 356.95,-18 356.95,-18 206.12,-18 206.12,-18"/>
<polygon fill="black" stroke="black" points="206.12,-14.5 196.12,-18 206.12,-21.5 206.12,-14.5"/>
</g>
<!-- :ui:common&#45;&gt;:core:logging:api -->
<g id="edge17" class="edge">
<title>:ui:common&#45;&gt;:core:logging:api</title>
<path fill="none" stroke="black" stroke-dasharray="1,5" d="M571.11,-690.23C571.11,-690.23 571.11,-36.21 571.11,-36.21"/>
<polygon fill="black" stroke="black" points="574.61,-36.21 571.11,-26.21 567.61,-36.21 574.61,-36.21"/>
</g>
<!-- :ui:common&#45;&gt;:test:image -->
<g id="edge12" class="edge">
<title>:ui:common&#45;&gt;:test:image</title>
<path fill="none" stroke="black" stroke-dasharray="1,5" d="M583.67,-695.22C583.67,-650 583.67,-423 583.67,-423 583.67,-423 646.58,-423 646.58,-423"/>
<polygon fill="black" stroke="black" points="646.58,-426.5 656.58,-423 646.58,-419.5 646.58,-426.5"/>
</g>
<!-- :shared:strings -->
<g id="node12" class="node">
<title>:shared:strings</title>
<ellipse fill="#b59aff" stroke="black" cx="480.29" cy="-566" rx="81.49" ry="18"/>
<text text-anchor="middle" x="480.29" y="-562.3" font-family="Times,serif" font-size="14.00">:shared:strings</text>
</g>
<!-- :ui:common&#45;&gt;:shared:strings -->
<g id="edge16" class="edge">
<title>:ui:common&#45;&gt;:shared:strings</title>
<path fill="none" stroke="black" d="M511.24,-685.37C511.24,-685.37 511.24,-592.7 511.24,-592.7"/>
<polygon fill="black" stroke="black" points="514.74,-592.7 511.24,-582.7 507.74,-592.7 514.74,-592.7"/>
</g>
<!-- :data:database&#45;&gt;:shared:domain -->
<g id="edge18" class="edge">
<title>:data:database&#45;&gt;:shared:domain</title>
<path fill="none" stroke="black" stroke-dasharray="1,5" d="M58.49,-274.44C58.49,-274.44 58.49,-41.72 58.49,-41.72"/>
<polygon fill="black" stroke="black" points="61.99,-41.72 58.49,-31.72 54.99,-41.72 61.99,-41.72"/>
</g>
<!-- :data:database&#45;&gt;:data:musicbrainz -->
<g id="edge19" class="edge">
<title>:data:database&#45;&gt;:data:musicbrainz</title>
<path fill="none" stroke="black" stroke-dasharray="1,5" d="M150.14,-283.84C150.14,-283.84 150.14,-172.61 150.14,-172.61"/>
<polygon fill="black" stroke="black" points="153.64,-172.61 150.14,-162.61 146.64,-172.61 153.64,-172.61"/>
</g>
<!-- :data:musicbrainz&#45;&gt;:shared:domain -->
<g id="edge20" class="edge">
<title>:data:musicbrainz&#45;&gt;:shared:domain</title>
<path fill="none" stroke="black" stroke-dasharray="1,5" d="M168.77,-142.11C168.77,-142.11 168.77,-41.36 168.77,-41.36"/>
<polygon fill="black" stroke="black" points="172.27,-41.36 168.77,-31.36 165.27,-41.36 172.27,-41.36"/>
</g>
<!-- :data:musicbrainz&#45;&gt;:core:logging:api -->
<g id="edge21" class="edge">
<title>:data:musicbrainz&#45;&gt;:core:logging:api</title>
<path fill="none" stroke="black" stroke-dasharray="1,5" d="M316.44,-146C362.24,-146 410.4,-146 410.4,-146 410.4,-146 410.4,-34.88 410.4,-34.88"/>
<polygon fill="black" stroke="black" points="413.9,-34.88 410.4,-24.88 406.9,-34.88 413.9,-34.88"/>
</g>
<!-- :data:coverart&#45;&gt;:test&#45;data -->
<g id="edge24" class="edge">
<title>:data:coverart&#45;&gt;:test&#45;data</title>
<path fill="none" stroke="#ff9ab1" stroke-dasharray="1,5" d="M234.91,-442.39C234.91,-442.39 234.91,-538.05 234.91,-538.05"/>
<polygon fill="#ff9ab1" stroke="#ff9ab1" points="231.41,-538.05 234.91,-548.05 238.41,-538.05 231.41,-538.05"/>
</g>
<!-- :data:coverart&#45;&gt;:shared:domain -->
<g id="edge22" class="edge">
<title>:data:coverart&#45;&gt;:shared:domain</title>
<path fill="none" stroke="black" stroke-dasharray="1,5" d="M192.17,-410.88C192.17,-363.57 192.17,-240 192.17,-240 192.17,-240 86.23,-240 86.23,-240 86.23,-240 86.23,-45.05 86.23,-45.05"/>
<polygon fill="black" stroke="black" points="89.73,-45.05 86.23,-35.05 82.73,-45.05 89.73,-45.05"/>
</g>
<!-- :data:coverart&#45;&gt;:core:logging:api -->
<g id="edge23" class="edge">
<title>:data:coverart&#45;&gt;:core:logging:api</title>
<path fill="none" stroke="black" stroke-dasharray="1,5" d="M255.29,-435C323.93,-435 416.9,-435 416.9,-435 416.9,-435 416.9,-37.49 416.9,-37.49"/>
<polygon fill="black" stroke="black" points="420.4,-37.49 416.9,-27.49 413.4,-37.49 420.4,-37.49"/>
</g>
<!-- :data:coverart&#45;&gt;:data:database -->
<g id="edge26" class="edge">
<title>:data:coverart&#45;&gt;:data:database</title>
<path fill="none" stroke="#ff9ab1" stroke-dasharray="1,5" d="M132.92,-415.36C132.92,-415.36 132.92,-315.58 132.92,-315.58"/>
<polygon fill="#ff9ab1" stroke="#ff9ab1" points="136.42,-315.58 132.92,-305.58 129.42,-315.58 136.42,-315.58"/>
</g>
<!-- :data:coverart&#45;&gt;:data:musicbrainz -->
<g id="edge25" class="edge">
<title>:data:coverart&#45;&gt;:data:musicbrainz</title>
<path fill="none" stroke="#ff9ab1" stroke-dasharray="1,5" d="M225.75,-413.88C225.75,-413.88 225.75,-183.23 225.75,-183.23"/>
<polygon fill="#ff9ab1" stroke="#ff9ab1" points="229.25,-183.23 225.75,-173.23 222.25,-183.23 229.25,-183.23"/>
</g>
<!-- :data:spotify&#45;&gt;:shared:domain -->
<g id="edge27" class="edge">
<title>:data:spotify&#45;&gt;:shared:domain</title>
<path fill="none" stroke="black" stroke-dasharray="1,5" d="M423.14,-155C402.38,-155 385.02,-155 385.02,-155 385.02,-155 385.02,-9 385.02,-9 385.02,-9 195.04,-9 195.04,-9"/>
<polygon fill="black" stroke="black" points="195.04,-5.5 185.04,-9 195.04,-12.5 195.04,-5.5"/>
</g>
<!-- :data:spotify&#45;&gt;:core:logging:api -->
<g id="edge28" class="edge">
<title>:data:spotify&#45;&gt;:core:logging:api</title>
<path fill="none" stroke="black" stroke-dasharray="1,5" d="M492.29,-136.81C492.29,-136.81 492.29,-46.27 492.29,-46.27"/>
<polygon fill="black" stroke="black" points="495.79,-46.27 492.29,-36.27 488.79,-46.27 495.79,-46.27"/>
</g>
</g>
</svg>
