<?xml version="1.0" encoding="UTF-8" standalone="no"?>
<!DOCTYPE svg PUBLIC "-//W3C//DTD SVG 1.1//EN"
 "http://www.w3.org/Graphics/SVG/1.1/DTD/svg11.dtd">
<!-- Generated by graphviz version 2.43.0 (0)
 -->
<!-- Title: %3 Pages: 1 -->
<svg width="1824pt" height="666pt"
 viewBox="0.00 0.00 1823.74 666.00" xmlns="http://www.w3.org/2000/svg" xmlns:xlink="http://www.w3.org/1999/xlink">
<g id="graph0" class="graph" transform="scale(1 1) rotate(0) translate(4 662)">
<title>%3</title>
<polygon fill="white" stroke="transparent" points="-4,4 -4,-662 1819.74,-662 1819.74,4 -4,4"/>
<text text-anchor="middle" x="907.87" y="-630" font-family="Times,serif" font-size="30.00">Dependencies</text>
<text text-anchor="middle" x="907.87" y="-597" font-family="Times,serif" font-size="30.00"> </text>
<!-- :shared:feature:details -->
<g id="node1" class="node">
<title>:shared:feature:details</title>
<polygon fill="#b59aff" stroke="black" points="968.39,-584 789.39,-584 789.39,-548 968.39,-548 968.39,-584"/>
<text text-anchor="middle" x="878.89" y="-562.3" font-family="Times,serif" font-size="14.00">:shared:feature:details</text>
</g>
<!-- :test&#45;data -->
<g id="node2" class="node">
<title>:test&#45;data</title>
<ellipse fill="#b59aff" stroke="black" cx="310.89" cy="-429" rx="55.49" ry="18"/>
<text text-anchor="middle" x="310.89" y="-425.3" font-family="Times,serif" font-size="14.00">:test&#45;data</text>
</g>
<!-- :shared:feature:details&#45;&gt;:test&#45;data -->
<g id="edge1" class="edge">
<title>:shared:feature:details&#45;&gt;:test&#45;data</title>
<path fill="none" stroke="#ff9ab1" stroke-dasharray="1,5" d="M802.2,-547.8C802.2,-512.69 802.2,-439 802.2,-439 802.2,-439 367.11,-439 367.11,-439"/>
<polygon fill="#ff9ab1" stroke="#ff9ab1" points="367.11,-435.5 357.11,-439 367.11,-442.5 367.11,-435.5"/>
</g>
<!-- :ui:test:screenshot -->
<g id="node3" class="node">
<title>:ui:test:screenshot</title>
<ellipse fill="#9affb5" stroke="black" cx="1718.89" cy="-292" rx="96.68" ry="18"/>
<text text-anchor="middle" x="1718.89" y="-288.3" font-family="Times,serif" font-size="14.00">:ui:test:screenshot</text>
</g>
<!-- :shared:feature:details&#45;&gt;:ui:test:screenshot -->
<g id="edge2" class="edge">
<title>:shared:feature:details&#45;&gt;:ui:test:screenshot</title>
<path fill="none" stroke="#ff9ab1" stroke-dasharray="1,5" d="M968.55,-578C1191.14,-578 1751.17,-578 1751.17,-578 1751.17,-578 1751.17,-319.03 1751.17,-319.03"/>
<polygon fill="#ff9ab1" stroke="#ff9ab1" points="1754.67,-319.03 1751.17,-309.03 1747.67,-319.03 1754.67,-319.03"/>
</g>
<!-- :core:models -->
<g id="node4" class="node">
<title>:core:models</title>
<ellipse fill="#b59aff" stroke="black" cx="669.89" cy="-18" rx="69.59" ry="18"/>
<text text-anchor="middle" x="669.89" y="-14.3" font-family="Times,serif" font-size="14.00">:core:models</text>
</g>
<!-- :shared:feature:details&#45;&gt;:core:models -->
<g id="edge3" class="edge">
<title>:shared:feature:details&#45;&gt;:core:models</title>
<path fill="none" stroke="black" stroke-dasharray="1,5" d="M827.8,-547.87C827.8,-493.42 827.8,-335 827.8,-335 827.8,-335 910.91,-335 910.91,-335 910.91,-335 910.91,-25 910.91,-25 910.91,-25 744.16,-25 744.16,-25"/>
<polygon fill="black" stroke="black" points="744.16,-21.5 734.16,-25 744.16,-28.5 744.16,-21.5"/>
</g>
<!-- :core:preferences -->
<g id="node5" class="node">
<title>:core:preferences</title>
<ellipse fill="#b59aff" stroke="black" cx="1103.89" cy="-292" rx="91.78" ry="18"/>
<text text-anchor="middle" x="1103.89" y="-288.3" font-family="Times,serif" font-size="14.00">:core:preferences</text>
</g>
<!-- :shared:feature:details&#45;&gt;:core:preferences -->
<g id="edge4" class="edge">
<title>:shared:feature:details&#45;&gt;:core:preferences</title>
<path fill="none" stroke="black" stroke-dasharray="1,5" d="M968.51,-553C1019.35,-553 1072.9,-553 1072.9,-553 1072.9,-553 1072.9,-319.12 1072.9,-319.12"/>
<polygon fill="black" stroke="black" points="1076.4,-319.12 1072.9,-309.12 1069.4,-319.12 1076.4,-319.12"/>
</g>
<!-- :core:logging:api -->
<g id="node6" class="node">
<title>:core:logging:api</title>
<ellipse fill="#b59aff" stroke="black" cx="669.89" cy="-155" rx="88.28" ry="18"/>
<text text-anchor="middle" x="669.89" y="-151.3" font-family="Times,serif" font-size="14.00">:core:logging:api</text>
</g>
<!-- :shared:feature:details&#45;&gt;:core:logging:api -->
<g id="edge5" class="edge">
<title>:shared:feature:details&#45;&gt;:core:logging:api</title>
<path fill="none" stroke="black" stroke-dasharray="1,5" d="M789.37,-555C730.43,-555 664.12,-555 664.12,-555 664.12,-555 664.12,-182.96 664.12,-182.96"/>
<polygon fill="black" stroke="black" points="667.62,-182.96 664.12,-172.96 660.62,-182.96 667.62,-182.96"/>
</g>
<!-- :data:common:network -->
<g id="node7" class="node">
<title>:data:common:network</title>
<ellipse fill="#b59aff" stroke="black" cx="310.89" cy="-292" rx="116.98" ry="18"/>
<text text-anchor="middle" x="310.89" y="-288.3" font-family="Times,serif" font-size="14.00">:data:common:network</text>
</g>
<!-- :shared:feature:details&#45;&gt;:data:common:network -->
<g id="edge6" class="edge">
<title>:shared:feature:details&#45;&gt;:data:common:network</title>
<path fill="none" stroke="black" stroke-dasharray="1,5" d="M789.38,-569C650.03,-569 397.01,-569 397.01,-569 397.01,-569 397.01,-314.26 397.01,-314.26"/>
<polygon fill="black" stroke="black" points="400.51,-314.26 397.01,-304.26 393.51,-314.26 400.51,-314.26"/>
</g>
<!-- :data:spotify -->
<g id="node8" class="node">
<title>:data:spotify</title>
<ellipse fill="#b59aff" stroke="black" cx="68.89" cy="-292" rx="68.79" ry="18"/>
<text text-anchor="middle" x="68.89" y="-288.3" font-family="Times,serif" font-size="14.00">:data:spotify</text>
</g>
<!-- :shared:feature:details&#45;&gt;:data:spotify -->
<g id="edge7" class="edge">
<title>:shared:feature:details&#45;&gt;:data:spotify</title>
<path fill="none" stroke="black" stroke-dasharray="1,5" d="M789.36,-576C574.22,-576 45.93,-576 45.93,-576 45.93,-576 45.93,-319.34 45.93,-319.34"/>
<polygon fill="black" stroke="black" points="49.43,-319.34 45.93,-309.34 42.43,-319.34 49.43,-319.34"/>
</g>
<!-- :data:musicbrainz -->
<g id="node9" class="node">
<title>:data:musicbrainz</title>
<ellipse fill="#b59aff" stroke="black" cx="785.89" cy="-292" rx="93.68" ry="18"/>
<text text-anchor="middle" x="785.89" y="-288.3" font-family="Times,serif" font-size="14.00">:data:musicbrainz</text>
</g>
<!-- :shared:feature:details&#45;&gt;:data:musicbrainz -->
<g id="edge8" class="edge">
<title>:shared:feature:details&#45;&gt;:data:musicbrainz</title>
<path fill="none" stroke="black" stroke-dasharray="1,5" d="M815,-547.6C815,-547.6 815,-319.26 815,-319.26"/>
<polygon fill="black" stroke="black" points="818.5,-319.26 815,-309.26 811.5,-319.26 818.5,-319.26"/>
</g>
<!-- :data:database -->
<g id="node10" class="node">
<title>:data:database</title>
<ellipse fill="#b59aff" stroke="black" cx="919.89" cy="-429" rx="79.09" ry="18"/>
<text text-anchor="middle" x="919.89" y="-425.3" font-family="Times,serif" font-size="14.00">:data:database</text>
</g>
<!-- :shared:feature:details&#45;&gt;:data:database -->
<g id="edge9" class="edge">
<title>:shared:feature:details&#45;&gt;:data:database</title>
<path fill="none" stroke="black" stroke-dasharray="1,5" d="M904.5,-547.81C904.5,-547.81 904.5,-456.83 904.5,-456.83"/>
<polygon fill="black" stroke="black" points="908,-456.83 904.5,-446.83 901,-456.83 908,-456.83"/>
</g>
<!-- :ui:image -->
<g id="node11" class="node">
<title>:ui:image</title>
<ellipse fill="#b59aff" stroke="black" cx="1511.89" cy="-292" rx="53.89" ry="18"/>
<text text-anchor="middle" x="1511.89" y="-288.3" font-family="Times,serif" font-size="14.00">:ui:image</text>
</g>
<!-- :shared:feature:details&#45;&gt;:ui:image -->
<g id="edge10" class="edge">
<title>:shared:feature:details&#45;&gt;:ui:image</title>
<path fill="none" stroke="black" stroke-dasharray="1,5" d="M968.73,-563C1147.31,-563 1529.88,-563 1529.88,-563 1529.88,-563 1529.88,-319.36 1529.88,-319.36"/>
<polygon fill="black" stroke="black" points="1533.38,-319.36 1529.88,-309.36 1526.38,-319.36 1533.38,-319.36"/>
</g>
<!-- :shared:domain -->
<g id="node12" class="node">
<title>:shared:domain</title>
<ellipse fill="#b59aff" stroke="black" cx="442.89" cy="-155" rx="82.59" ry="18"/>
<text text-anchor="middle" x="442.89" y="-151.3" font-family="Times,serif" font-size="14.00">:shared:domain</text>
</g>
<!-- :shared:feature:details&#45;&gt;:shared:domain -->
<g id="edge11" class="edge">
<title>:shared:feature:details&#45;&gt;:shared:domain</title>
<path fill="none" stroke="black" stroke-dasharray="1,5" d="M789.18,-562C665.01,-562 455.87,-562 455.87,-562 455.87,-562 455.87,-183.01 455.87,-183.01"/>
<polygon fill="black" stroke="black" points="459.37,-183.01 455.87,-173.01 452.37,-183.01 459.37,-183.01"/>
</g>
<!-- :shared:strings -->
<g id="node13" class="node">
<title>:shared:strings</title>
<ellipse fill="#b59aff" stroke="black" cx="1655.89" cy="-18" rx="81.49" ry="18"/>
<text text-anchor="middle" x="1655.89" y="-14.3" font-family="Times,serif" font-size="14.00">:shared:strings</text>
</g>
<!-- :shared:feature:details&#45;&gt;:shared:strings -->
<g id="edge12" class="edge">
<title>:shared:feature:details&#45;&gt;:shared:strings</title>
<path fill="none" stroke="black" stroke-dasharray="1,5" d="M968.58,-568C1161.47,-568 1598.48,-568 1598.48,-568 1598.48,-568 1598.48,-40.79 1598.48,-40.79"/>
<polygon fill="black" stroke="black" points="1601.98,-40.79 1598.48,-30.79 1594.98,-40.79 1601.98,-40.79"/>
</g>
<!-- :ui:common -->
<g id="node14" class="node">
<title>:ui:common</title>
<ellipse fill="#b59aff" stroke="black" cx="1197.89" cy="-429" rx="64.19" ry="18"/>
<text text-anchor="middle" x="1197.89" y="-425.3" font-family="Times,serif" font-size="14.00">:ui:common</text>
</g>
<!-- :shared:feature:details&#45;&gt;:ui:common -->
<g id="edge13" class="edge">
<title>:shared:feature:details&#45;&gt;:ui:common</title>
<path fill="none" stroke="black" stroke-dasharray="1,5" d="M968.6,-558C1062.95,-558 1197.89,-558 1197.89,-558 1197.89,-558 1197.89,-457.21 1197.89,-457.21"/>
<polygon fill="black" stroke="black" points="1201.39,-457.21 1197.89,-447.21 1194.39,-457.21 1201.39,-457.21"/>
</g>
<!-- :ui:core -->
<g id="node15" class="node">
<title>:ui:core</title>
<ellipse fill="#b59aff" stroke="black" cx="1655.89" cy="-155" rx="45.49" ry="18"/>
<text text-anchor="middle" x="1655.89" y="-151.3" font-family="Times,serif" font-size="14.00">:ui:core</text>
</g>
<!-- :shared:feature:details&#45;&gt;:ui:core -->
<g id="edge14" class="edge">
<title>:shared:feature:details&#45;&gt;:ui:core</title>
<path fill="none" stroke="black" stroke-dasharray="1,5" d="M968.55,-573C1165.63,-573 1619.14,-573 1619.14,-573 1619.14,-573 1619.14,-175.75 1619.14,-175.75"/>
<polygon fill="black" stroke="black" points="1622.64,-175.75 1619.14,-165.75 1615.64,-175.75 1622.64,-175.75"/>
</g>
<!-- :test&#45;data&#45;&gt;:core:models -->
<g id="edge15" class="edge">
<title>:test&#45;data&#45;&gt;:core:models</title>
<path fill="none" stroke="black" stroke-dasharray="1,5" d="M258.53,-423C216.98,-423 165.85,-423 165.85,-423 165.85,-423 165.85,-14 165.85,-14 165.85,-14 591.92,-14 591.92,-14"/>
<polygon fill="black" stroke="black" points="591.92,-17.5 601.92,-14 591.92,-10.5 591.92,-17.5"/>
</g>
<!-- :test&#45;data&#45;&gt;:data:common:network -->
<g id="edge16" class="edge">
<title>:test&#45;data&#45;&gt;:data:common:network</title>
<path fill="none" stroke="black" stroke-dasharray="1,5" d="M310.89,-410.81C310.89,-410.81 310.89,-320.27 310.89,-320.27"/>
<polygon fill="black" stroke="black" points="314.39,-320.27 310.89,-310.27 307.39,-320.27 314.39,-320.27"/>
</g>
<!-- :test&#45;data&#45;&gt;:data:spotify -->
<g id="edge19" class="edge">
<title>:test&#45;data&#45;&gt;:data:spotify</title>
<path fill="none" stroke="black" stroke-dasharray="1,5" d="M258.71,-435C193.92,-435 91.86,-435 91.86,-435 91.86,-435 91.86,-319.25 91.86,-319.25"/>
<polygon fill="black" stroke="black" points="95.36,-319.25 91.86,-309.25 88.36,-319.25 95.36,-319.25"/>
</g>
<!-- :test&#45;data&#45;&gt;:data:musicbrainz -->
<g id="edge17" class="edge">
<title>:test&#45;data&#45;&gt;:data:musicbrainz</title>
<path fill="none" stroke="black" stroke-dasharray="1,5" d="M365.78,-432C481.69,-432 740.85,-432 740.85,-432 740.85,-432 740.85,-317.79 740.85,-317.79"/>
<polygon fill="black" stroke="black" points="744.35,-317.79 740.85,-307.79 737.35,-317.79 744.35,-317.79"/>
</g>
<!-- :test&#45;data&#45;&gt;:shared:domain -->
<g id="edge20" class="edge">
<title>:test&#45;data&#45;&gt;:shared:domain</title>
<path fill="none" stroke="black" stroke-dasharray="1,5" d="M354.87,-418C392.92,-418 441.88,-418 441.88,-418 441.88,-418 441.88,-183.08 441.88,-183.08"/>
<polygon fill="black" stroke="black" points="445.38,-183.08 441.88,-173.08 438.38,-183.08 445.38,-183.08"/>
</g>
<!-- :data:coverart -->
<g id="node16" class="node">
<title>:data:coverart</title>
<ellipse fill="#b59aff" stroke="black" cx="559.89" cy="-292" rx="76.09" ry="18"/>
<text text-anchor="middle" x="559.89" y="-288.3" font-family="Times,serif" font-size="14.00">:data:coverart</text>
</g>
<!-- :test&#45;data&#45;&gt;:data:coverart -->
<g id="edge18" class="edge">
<title>:test&#45;data&#45;&gt;:data:coverart</title>
<path fill="none" stroke="black" stroke-dasharray="1,5" d="M365.03,-425C431.22,-425 534.55,-425 534.55,-425 534.55,-425 534.55,-319.12 534.55,-319.12"/>
<polygon fill="black" stroke="black" points="538.05,-319.12 534.55,-309.12 531.05,-319.12 538.05,-319.12"/>
</g>
<!-- :ui:test:screenshot&#45;&gt;:ui:core -->
<g id="edge21" class="edge">
<title>:ui:test:screenshot&#45;&gt;:ui:core</title>
<path fill="none" stroke="black" stroke-dasharray="1,5" d="M1661.72,-277.34C1661.72,-277.34 1661.72,-183.01 1661.72,-183.01"/>
<polygon fill="black" stroke="black" points="1665.22,-183.01 1661.72,-173.01 1658.22,-183.01 1665.22,-183.01"/>
</g>
<!-- :core:preferences&#45;&gt;:core:models -->
<g id="edge23" class="edge">
<title>:core:preferences&#45;&gt;:core:models</title>
<path fill="none" stroke="black" stroke-dasharray="1,5" d="M1169.79,-279.38C1169.79,-225.19 1169.79,-15 1169.79,-15 1169.79,-15 748.62,-15 748.62,-15"/>
<polygon fill="black" stroke="black" points="748.62,-11.5 738.62,-15 748.62,-18.5 748.62,-11.5"/>
</g>
<!-- :core:coroutines -->
<g id="node17" class="node">
<title>:core:coroutines</title>
<ellipse fill="#b59aff" stroke="black" cx="1058.89" cy="-155" rx="85.29" ry="18"/>
<text text-anchor="middle" x="1058.89" y="-151.3" font-family="Times,serif" font-size="14.00">:core:coroutines</text>
</g>
<!-- :core:preferences&#45;&gt;:core:coroutines -->
<g id="edge22" class="edge">
<title>:core:preferences&#45;&gt;:core:coroutines</title>
<path fill="none" stroke="black" stroke-dasharray="1,5" d="M1078.14,-274.65C1078.14,-274.65 1078.14,-182.64 1078.14,-182.64"/>
<polygon fill="black" stroke="black" points="1081.64,-182.64 1078.14,-172.64 1074.64,-182.64 1081.64,-182.64"/>
</g>
<!-- :data:common:network&#45;&gt;:core:logging:api -->
<g id="edge24" class="edge">
<title>:data:common:network&#45;&gt;:core:logging:api</title>
<path fill="none" stroke="black" stroke-dasharray="1,5" d="M394.12,-279.34C394.12,-259.42 394.12,-223 394.12,-223 394.12,-223 608.72,-223 608.72,-223 608.72,-223 608.72,-178.11 608.72,-178.11"/>
<polygon fill="black" stroke="black" points="612.22,-178.11 608.72,-168.11 605.22,-178.11 612.22,-178.11"/>
</g>
<!-- :data:spotify&#45;&gt;:core:models -->
<g id="edge26" class="edge">
<title>:data:spotify&#45;&gt;:core:models</title>
<path fill="none" stroke="black" stroke-dasharray="1,5" d="M45.93,-275.03C45.93,-213.67 45.93,-7 45.93,-7 45.93,-7 604.79,-7 604.79,-7"/>
<polygon fill="black" stroke="black" points="604.79,-10.5 614.79,-7 604.79,-3.5 604.79,-10.5"/>
</g>
<!-- :data:spotify&#45;&gt;:core:logging:api -->
<g id="edge25" class="edge">
<title>:data:spotify&#45;&gt;:core:logging:api</title>
<path fill="none" stroke="black" stroke-dasharray="1,5" d="M91.86,-274.76C91.86,-247.62 91.86,-198 91.86,-198 91.86,-198 595.11,-198 595.11,-198 595.11,-198 595.11,-174.97 595.11,-174.97"/>
<polygon fill="black" stroke="black" points="598.61,-174.97 595.11,-164.97 591.61,-174.97 598.61,-174.97"/>
</g>
<!-- :data:musicbrainz&#45;&gt;:core:models -->
<g id="edge28" class="edge">
<title>:data:musicbrainz&#45;&gt;:core:models</title>
<path fill="none" stroke="black" stroke-dasharray="1,5" d="M818.89,-274.81C818.89,-216.52 818.89,-30 818.89,-30 818.89,-30 732,-30 732,-30"/>
<polygon fill="black" stroke="black" points="732,-26.5 722,-30 732,-33.5 732,-26.5"/>
</g>
<!-- :data:musicbrainz&#45;&gt;:core:logging:api -->
<g id="edge27" class="edge">
<title>:data:musicbrainz&#45;&gt;:core:logging:api</title>
<path fill="none" stroke="black" stroke-dasharray="1,5" d="M714.3,-280.32C714.3,-280.32 714.3,-180.79 714.3,-180.79"/>
<polygon fill="black" stroke="black" points="717.8,-180.79 714.3,-170.79 710.8,-180.79 717.8,-180.79"/>
</g>
<!-- :data:database&#45;&gt;:core:models -->
<g id="edge30" class="edge">
<title>:data:database&#45;&gt;:core:models</title>
<path fill="none" stroke="black" stroke-dasharray="1,5" d="M942.33,-411.69C942.33,-333.84 942.33,-20 942.33,-20 942.33,-20 749.35,-20 749.35,-20"/>
<polygon fill="black" stroke="black" points="749.35,-16.5 739.35,-20 749.35,-23.5 749.35,-16.5"/>
</g>
<!-- :data:database&#45;&gt;:data:musicbrainz -->
<g id="edge31" class="edge">
<title>:data:database&#45;&gt;:data:musicbrainz</title>
<path fill="none" stroke="black" stroke-dasharray="1,5" d="M860.04,-416.84C860.04,-416.84 860.04,-313.17 860.04,-313.17"/>
<polygon fill="black" stroke="black" points="863.54,-313.17 860.04,-303.17 856.54,-313.17 863.54,-313.17"/>
</g>
<!-- :data:database&#45;&gt;:core:coroutines -->
<g id="edge29" class="edge">
<title>:data:database&#45;&gt;:core:coroutines</title>
<path fill="none" stroke="black" stroke-dasharray="1,5" d="M986.47,-418.92C986.47,-418.92 986.47,-174.59 986.47,-174.59"/>
<polygon fill="black" stroke="black" points="989.97,-174.59 986.47,-164.59 982.97,-174.59 989.97,-174.59"/>
</g>
<!-- :ui:image&#45;&gt;:core:models -->
<g id="edge32" class="edge">
<title>:ui:image&#45;&gt;:core:models</title>
<path fill="none" stroke="black" stroke-dasharray="1,5" d="M1511.89,-273.61C1511.89,-210.27 1511.89,-5 1511.89,-5 1511.89,-5 728.19,-5 728.19,-5"/>
<polygon fill="black" stroke="black" points="728.19,-1.5 718.19,-5 728.19,-8.5 728.19,-1.5"/>
</g>
<!-- :ui:image&#45;&gt;:ui:core -->
<g id="edge33" class="edge">
<title>:ui:image&#45;&gt;:ui:core</title>
<path fill="none" stroke="black" stroke-dasharray="1,5" d="M1565.87,-292C1590.09,-292 1613.31,-292 1613.31,-292 1613.31,-292 1613.31,-171.61 1613.31,-171.61"/>
<polygon fill="black" stroke="black" points="1616.81,-171.61 1613.31,-161.61 1609.81,-171.61 1616.81,-171.61"/>
</g>
<!-- :shared:domain&#45;&gt;:core:models -->
<g id="edge34" class="edge">
<title>:shared:domain&#45;&gt;:core:models</title>
<path fill="none" stroke="black" stroke-dasharray="1,5" d="M442.89,-136.93C442.89,-100.35 442.89,-21 442.89,-21 442.89,-21 591.17,-21 591.17,-21"/>
<polygon fill="black" stroke="black" points="591.17,-24.5 601.17,-21 591.17,-17.5 591.17,-24.5"/>
</g>
<!-- :ui:common&#45;&gt;:ui:test:screenshot -->
<g id="edge36" class="edge">
<title>:ui:common&#45;&gt;:ui:test:screenshot</title>
<path fill="none" stroke="#ff9ab1" stroke-dasharray="1,5" d="M1251.59,-439C1378.55,-439 1686.61,-439 1686.61,-439 1686.61,-439 1686.61,-319.15 1686.61,-319.15"/>
<polygon fill="#ff9ab1" stroke="#ff9ab1" points="1690.11,-319.15 1686.61,-309.15 1683.11,-319.15 1690.11,-319.15"/>
</g>
<!-- :ui:common&#45;&gt;:core:models -->
<g id="edge37" class="edge">
<title>:ui:common&#45;&gt;:core:models</title>
<path fill="none" stroke="black" d="M1233.28,-413.59C1233.28,-338 1233.28,-10 1233.28,-10 1233.28,-10 742.34,-10 742.34,-10"/>
<polygon fill="black" stroke="black" points="742.34,-6.5 732.34,-10 742.34,-13.5 742.34,-6.5"/>
</g>
<!-- :ui:common&#45;&gt;:core:preferences -->
<g id="edge40" class="edge">
<title>:ui:common&#45;&gt;:core:preferences</title>
<path fill="none" stroke="black" stroke-dasharray="1,5" d="M1180.04,-411.65C1180.04,-411.65 1180.04,-312.19 1180.04,-312.19"/>
<polygon fill="black" stroke="black" points="1183.54,-312.19 1180.04,-302.19 1176.54,-312.19 1183.54,-312.19"/>
</g>
<!-- :ui:common&#45;&gt;:core:logging:api -->
<g id="edge41" class="edge">
<title>:ui:common&#45;&gt;:core:logging:api</title>
<path fill="none" stroke="black" stroke-dasharray="1,5" d="M1214.41,-411.32C1214.41,-365.77 1214.41,-248 1214.41,-248 1214.41,-248 736.29,-248 736.29,-248 736.29,-248 736.29,-177.16 736.29,-177.16"/>
<polygon fill="black" stroke="black" points="739.79,-177.16 736.29,-167.16 732.79,-177.16 739.79,-177.16"/>
</g>
<!-- :ui:common&#45;&gt;:data:musicbrainz -->
<g id="edge39" class="edge">
<title>:ui:common&#45;&gt;:data:musicbrainz</title>
<path fill="none" stroke="black" stroke-dasharray="1,5" d="M1133.37,-429C1077.54,-429 1005.72,-429 1005.72,-429 1005.72,-429 1005.72,-292 1005.72,-292 1005.72,-292 889.76,-292 889.76,-292"/>
<polygon fill="black" stroke="black" points="889.76,-288.5 879.76,-292 889.76,-295.5 889.76,-288.5"/>
</g>
<!-- :ui:common&#45;&gt;:ui:image -->
<g id="edge45" class="edge">
<title>:ui:common&#45;&gt;:ui:image</title>
<path fill="none" stroke="black" stroke-dasharray="1,5" d="M1249.12,-418C1333.84,-418 1493.91,-418 1493.91,-418 1493.91,-418 1493.91,-318.99 1493.91,-318.99"/>
<polygon fill="black" stroke="black" points="1497.41,-318.99 1493.91,-308.99 1490.41,-318.99 1497.41,-318.99"/>
</g>
<!-- :ui:common&#45;&gt;:shared:domain -->
<g id="edge42" class="edge">
<title>:ui:common&#45;&gt;:shared:domain</title>
<path fill="none" stroke="black" stroke-dasharray="1,5" d="M1149.05,-416.98C1149.05,-403.95 1149.05,-385 1149.05,-385 1149.05,-385 469.86,-385 469.86,-385 469.86,-385 469.86,-182.29 469.86,-182.29"/>
<polygon fill="black" stroke="black" points="473.36,-182.29 469.86,-172.29 466.36,-182.29 473.36,-182.29"/>
</g>
<!-- :ui:common&#45;&gt;:shared:strings -->
<g id="edge43" class="edge">
<title>:ui:common&#45;&gt;:shared:strings</title>
<path fill="none" stroke="black" stroke-dasharray="1,5" d="M1260.77,-425C1370.78,-425 1586.57,-425 1586.57,-425 1586.57,-425 1586.57,-37.66 1586.57,-37.66"/>
<polygon fill="black" stroke="black" points="1590.07,-37.66 1586.57,-27.66 1583.07,-37.66 1590.07,-37.66"/>
</g>
<!-- :ui:common&#45;&gt;:ui:core -->
<g id="edge44" class="edge">
<title>:ui:common&#45;&gt;:ui:core</title>
<path fill="none" stroke="black" stroke-dasharray="1,5" d="M1261.43,-432C1378.46,-432 1616.23,-432 1616.23,-432 1616.23,-432 1616.23,-173.9 1616.23,-173.9"/>
<polygon fill="black" stroke="black" points="1619.73,-173.9 1616.23,-163.9 1612.73,-173.9 1619.73,-173.9"/>
</g>
<!-- :ui:common&#45;&gt;:data:coverart -->
<g id="edge38" class="edge">
<title>:ui:common&#45;&gt;:data:coverart</title>
<path fill="none" stroke="black" stroke-dasharray="1,5" d="M1164.54,-413.34C1164.54,-392.98 1164.54,-360 1164.54,-360 1164.54,-360 585.24,-360 585.24,-360 585.24,-360 585.24,-319.16 585.24,-319.16"/>
<polygon fill="black" stroke="black" points="588.74,-319.16 585.24,-309.16 581.74,-319.16 588.74,-319.16"/>
</g>
<!-- :ui:test:image -->
<g id="node18" class="node">
<title>:ui:test:image</title>
<ellipse fill="#9affb5" stroke="black" cx="1326.89" cy="-292" rx="74.99" ry="18"/>
<text text-anchor="middle" x="1326.89" y="-288.3" font-family="Times,serif" font-size="14.00">:ui:test:image</text>
</g>
<!-- :ui:common&#45;&gt;:ui:test:image -->
<g id="edge35" class="edge">
<title>:ui:common&#45;&gt;:ui:test:image</title>
<path fill="none" stroke="#ff9ab1" stroke-dasharray="1,5" d="M1257.19,-421.63C1257.19,-421.63 1257.19,-308.75 1257.19,-308.75"/>
<polygon fill="#ff9ab1" stroke="#ff9ab1" points="1260.69,-308.75 1257.19,-298.75 1253.69,-308.75 1260.69,-308.75"/>
</g>
<!-- :ui:core&#45;&gt;:shared:strings -->
<g id="edge46" class="edge">
<title>:ui:core&#45;&gt;:shared:strings</title>
<path fill="none" stroke="black" d="M1655.89,-136.81C1655.89,-136.81 1655.89,-46.27 1655.89,-46.27"/>
<polygon fill="black" stroke="black" points="1659.39,-46.27 1655.89,-36.27 1652.39,-46.27 1659.39,-46.27"/>
</g>
<!-- :data:coverart&#45;&gt;:core:models -->
<g id="edge48" class="edge">
<title>:data:coverart&#45;&gt;:core:models</title>
<path fill="none" stroke="black" stroke-dasharray="1,5" d="M553.47,-273.85C553.47,-214.21 553.47,-28 553.47,-28 553.47,-28 602.02,-28 602.02,-28"/>
<polygon fill="black" stroke="black" points="602.02,-31.5 612.02,-28 602.02,-24.5 602.02,-31.5"/>
</g>
<!-- :data:coverart&#45;&gt;:core:logging:api -->
<g id="edge47" class="edge">
<title>:data:coverart&#45;&gt;:core:logging:api</title>
<path fill="none" stroke="black" stroke-dasharray="1,5" d="M622.33,-281.7C622.33,-281.7 622.33,-180.32 622.33,-180.32"/>
<polygon fill="black" stroke="black" points="625.83,-180.32 622.33,-170.32 618.83,-180.32 625.83,-180.32"/>
</g>
<!-- :data:coverart&#45;&gt;:shared:domain -->
<g id="edge49" class="edge">
<title>:data:coverart&#45;&gt;:shared:domain</title>
<path fill="none" stroke="black" stroke-dasharray="1,5" d="M504.64,-279.36C504.64,-279.36 504.64,-177.22 504.64,-177.22"/>
<polygon fill="black" stroke="black" points="508.14,-177.22 504.64,-167.22 501.14,-177.22 508.14,-177.22"/>
</g>
</g>
</svg>
