<?xml version="1.0" encoding="UTF-8" standalone="no"?>
<!DOCTYPE svg PUBLIC "-//W3C//DTD SVG 1.1//EN"
 "http://www.w3.org/Graphics/SVG/1.1/DTD/svg11.dtd">
<!-- Generated by graphviz version 2.43.0 (0)
 -->
<!-- Title: %3 Pages: 1 -->
<svg width="860pt" height="1077pt"
 viewBox="0.00 0.00 859.89 1077.00" xmlns="http://www.w3.org/2000/svg" xmlns:xlink="http://www.w3.org/1999/xlink">
<g id="graph0" class="graph" transform="scale(1 1) rotate(0) translate(4 1073)">
<title>%3</title>
<polygon fill="white" stroke="transparent" points="-4,4 -4,-1073 855.89,-1073 855.89,4 -4,4"/>
<text text-anchor="middle" x="425.94" y="-1041" font-family="Times,serif" font-size="30.00">Dependencies</text>
<text text-anchor="middle" x="425.94" y="-1008" font-family="Times,serif" font-size="30.00"> </text>
<!-- :shared:feature:details -->
<g id="node1" class="node">
<title>:shared:feature:details</title>
<polygon fill="#b59aff" stroke="black" points="706.89,-995 527.89,-995 527.89,-959 706.89,-959 706.89,-995"/>
<text text-anchor="middle" x="617.39" y="-973.3" font-family="Times,serif" font-size="14.00">:shared:feature:details</text>
</g>
<!-- :test&#45;data -->
<g id="node2" class="node">
<title>:test&#45;data</title>
<ellipse fill="#b59aff" stroke="black" cx="493.39" cy="-703" rx="55.49" ry="18"/>
<text text-anchor="middle" x="493.39" y="-699.3" font-family="Times,serif" font-size="14.00">:test&#45;data</text>
</g>
<!-- :shared:feature:details&#45;&gt;:test&#45;data -->
<g id="edge1" class="edge">
<title>:shared:feature:details&#45;&gt;:test&#45;data</title>
<path fill="none" stroke="#ff9ab1" stroke-dasharray="1,5" d="M534.81,-958.6C534.81,-958.6 534.81,-725.06 534.81,-725.06"/>
<polygon fill="#ff9ab1" stroke="#ff9ab1" points="538.31,-725.06 534.81,-715.06 531.31,-725.06 538.31,-725.06"/>
</g>
<!-- :ui:test:screenshot -->
<g id="node3" class="node">
<title>:ui:test:screenshot</title>
<ellipse fill="#9affb5" stroke="black" cx="663.39" cy="-703" rx="96.68" ry="18"/>
<text text-anchor="middle" x="663.39" y="-699.3" font-family="Times,serif" font-size="14.00">:ui:test:screenshot</text>
</g>
<!-- :shared:feature:details&#45;&gt;:ui:test:screenshot -->
<g id="edge2" class="edge">
<title>:shared:feature:details&#45;&gt;:ui:test:screenshot</title>
<path fill="none" stroke="#ff9ab1" stroke-dasharray="1,5" d="M605.8,-958.6C605.8,-958.6 605.8,-727.56 605.8,-727.56"/>
<polygon fill="#ff9ab1" stroke="#ff9ab1" points="609.3,-727.56 605.8,-717.56 602.3,-727.56 609.3,-727.56"/>
</g>
<!-- :ui:common -->
<g id="node4" class="node">
<title>:ui:common</title>
<ellipse fill="#b59aff" stroke="black" cx="709.39" cy="-840" rx="64.19" ry="18"/>
<text text-anchor="middle" x="709.39" y="-836.3" font-family="Times,serif" font-size="14.00">:ui:common</text>
</g>
<!-- :shared:feature:details&#45;&gt;:ui:common -->
<g id="edge3" class="edge">
<title>:shared:feature:details&#45;&gt;:ui:common</title>
<path fill="none" stroke="black" stroke-dasharray="1,5" d="M675.97,-958.81C675.97,-958.81 675.97,-865.72 675.97,-865.72"/>
<polygon fill="black" stroke="black" points="679.47,-865.72 675.97,-855.72 672.47,-865.72 679.47,-865.72"/>
</g>
<!-- :shared:domain -->
<g id="node5" class="node">
<title>:shared:domain</title>
<ellipse fill="#b59aff" stroke="black" cx="522.39" cy="-155" rx="82.59" ry="18"/>
<text text-anchor="middle" x="522.39" y="-151.3" font-family="Times,serif" font-size="14.00">:shared:domain</text>
</g>
<!-- :shared:feature:details&#45;&gt;:shared:domain -->
<g id="edge4" class="edge">
<title>:shared:feature:details&#45;&gt;:shared:domain</title>
<path fill="none" stroke="black" stroke-dasharray="1,5" d="M554.61,-958.68C554.61,-958.68 554.61,-181.63 554.61,-181.63"/>
<polygon fill="black" stroke="black" points="558.11,-181.63 554.61,-171.63 551.11,-181.63 558.11,-181.63"/>
</g>
<!-- :core:logging:api -->
<g id="node6" class="node">
<title>:core:logging:api</title>
<ellipse fill="#b59aff" stroke="black" cx="106.39" cy="-155" rx="88.28" ry="18"/>
<text text-anchor="middle" x="106.39" y="-151.3" font-family="Times,serif" font-size="14.00">:core:logging:api</text>
</g>
<!-- :shared:feature:details&#45;&gt;:core:logging:api -->
<g id="edge5" class="edge">
<title>:shared:feature:details&#45;&gt;:core:logging:api</title>
<path fill="none" stroke="black" stroke-dasharray="1,5" d="M527.8,-977C363.73,-977 31.7,-977 31.7,-977 31.7,-977 31.7,-174.8 31.7,-174.8"/>
<polygon fill="black" stroke="black" points="35.2,-174.8 31.7,-164.8 28.2,-174.8 35.2,-174.8"/>
</g>
<!-- :test&#45;data&#45;&gt;:shared:domain -->
<g id="edge6" class="edge">
<title>:test&#45;data&#45;&gt;:shared:domain</title>
<path fill="none" stroke="black" stroke-dasharray="1,5" d="M537.37,-692.05C537.37,-692.05 537.37,-182.87 537.37,-182.87"/>
<polygon fill="black" stroke="black" points="540.87,-182.87 537.37,-172.87 533.87,-182.87 540.87,-182.87"/>
</g>
<!-- :core:coroutines -->
<g id="node7" class="node">
<title>:core:coroutines</title>
<ellipse fill="#b59aff" stroke="black" cx="288.39" cy="-18" rx="85.29" ry="18"/>
<text text-anchor="middle" x="288.39" y="-14.3" font-family="Times,serif" font-size="14.00">:core:coroutines</text>
</g>
<!-- :test&#45;data&#45;&gt;:core:coroutines -->
<g id="edge7" class="edge">
<title>:test&#45;data&#45;&gt;:core:coroutines</title>
<path fill="none" stroke="black" stroke-dasharray="1,5" d="M526.1,-688.37C526.1,-607.93 526.1,-223 526.1,-223 526.1,-223 367.19,-223 367.19,-223 367.19,-223 367.19,-34.82 367.19,-34.82"/>
<polygon fill="black" stroke="black" points="370.69,-34.82 367.19,-24.82 363.69,-34.82 370.69,-34.82"/>
</g>
<!-- :data:database -->
<g id="node8" class="node">
<title>:data:database</title>
<ellipse fill="#b59aff" stroke="black" cx="324.39" cy="-429" rx="79.09" ry="18"/>
<text text-anchor="middle" x="324.39" y="-425.3" font-family="Times,serif" font-size="14.00">:data:database</text>
</g>
<!-- :test&#45;data&#45;&gt;:data:database -->
<g id="edge8" class="edge">
<title>:test&#45;data&#45;&gt;:data:database</title>
<path fill="none" stroke="black" stroke-dasharray="1,5" d="M470.63,-686.24C470.63,-627.56 470.63,-435 470.63,-435 470.63,-435 409.22,-435 409.22,-435"/>
<polygon fill="black" stroke="black" points="409.22,-431.5 399.22,-435 409.22,-438.5 409.22,-431.5"/>
</g>
<!-- :data:musicbrainz -->
<g id="node9" class="node">
<title>:data:musicbrainz</title>
<ellipse fill="#b59aff" stroke="black" cx="166.39" cy="-292" rx="93.68" ry="18"/>
<text text-anchor="middle" x="166.39" y="-288.3" font-family="Times,serif" font-size="14.00">:data:musicbrainz</text>
</g>
<!-- :test&#45;data&#45;&gt;:data:musicbrainz -->
<g id="edge9" class="edge">
<title>:test&#45;data&#45;&gt;:data:musicbrainz</title>
<path fill="none" stroke="black" stroke-dasharray="1,5" d="M437.84,-703C336.11,-703 130.23,-703 130.23,-703 130.23,-703 130.23,-318.62 130.23,-318.62"/>
<polygon fill="black" stroke="black" points="133.73,-318.62 130.23,-308.62 126.73,-318.62 133.73,-318.62"/>
</g>
<!-- :data:coverart -->
<g id="node10" class="node">
<title>:data:coverart</title>
<ellipse fill="#b59aff" stroke="black" cx="324.39" cy="-566" rx="76.09" ry="18"/>
<text text-anchor="middle" x="324.39" y="-562.3" font-family="Times,serif" font-size="14.00">:data:coverart</text>
</g>
<!-- :test&#45;data&#45;&gt;:data:coverart -->
<g id="edge10" class="edge">
<title>:test&#45;data&#45;&gt;:data:coverart</title>
<path fill="none" stroke="black" stroke-dasharray="1,5" d="M448.97,-692.09C448.97,-661.13 448.97,-575 448.97,-575 448.97,-575 400.33,-575 400.33,-575"/>
<polygon fill="black" stroke="black" points="400.33,-571.5 390.33,-575 400.33,-578.5 400.33,-571.5"/>
</g>
<!-- :data:spotify -->
<g id="node11" class="node">
<title>:data:spotify</title>
<ellipse fill="#b59aff" stroke="black" cx="423.39" cy="-292" rx="68.79" ry="18"/>
<text text-anchor="middle" x="423.39" y="-288.3" font-family="Times,serif" font-size="14.00">:data:spotify</text>
</g>
<!-- :test&#45;data&#45;&gt;:data:spotify -->
<g id="edge11" class="edge">
<title>:test&#45;data&#45;&gt;:data:spotify</title>
<path fill="none" stroke="black" stroke-dasharray="1,5" d="M481.46,-685.34C481.46,-685.34 481.46,-311.85 481.46,-311.85"/>
<polygon fill="black" stroke="black" points="484.96,-311.85 481.46,-301.85 477.96,-311.85 484.96,-311.85"/>
</g>
<!-- :ui:core -->
<g id="node12" class="node">
<title>:ui:core</title>
<ellipse fill="#b59aff" stroke="black" cx="788.39" cy="-566" rx="45.49" ry="18"/>
<text text-anchor="middle" x="788.39" y="-562.3" font-family="Times,serif" font-size="14.00">:ui:core</text>
</g>
<!-- :ui:test:screenshot&#45;&gt;:ui:core -->
<g id="edge12" class="edge">
<title>:ui:test:screenshot&#45;&gt;:ui:core</title>
<path fill="none" stroke="black" stroke-dasharray="1,5" d="M751.56,-695.24C751.56,-695.24 751.56,-586.58 751.56,-586.58"/>
<polygon fill="black" stroke="black" points="755.06,-586.58 751.56,-576.58 748.06,-586.58 755.06,-586.58"/>
</g>
<!-- :test:image -->
<g id="node13" class="node">
<title>:test:image</title>
<ellipse fill="#9affb5" stroke="black" cx="661.39" cy="-566" rx="63.09" ry="18"/>
<text text-anchor="middle" x="661.39" y="-562.3" font-family="Times,serif" font-size="14.00">:test:image</text>
</g>
<!-- :ui:test:screenshot&#45;&gt;:test:image -->
<g id="edge13" class="edge">
<title>:ui:test:screenshot&#45;&gt;:test:image</title>
<path fill="none" stroke="black" stroke-dasharray="1,5" d="M661.39,-684.81C661.39,-684.81 661.39,-594.27 661.39,-594.27"/>
<polygon fill="black" stroke="black" points="664.89,-594.27 661.39,-584.27 657.89,-594.27 664.89,-594.27"/>
</g>
<!-- :ui:common&#45;&gt;:test&#45;data -->
<g id="edge14" class="edge">
<title>:ui:common&#45;&gt;:test&#45;data</title>
<path fill="none" stroke="#ff9ab1" stroke-dasharray="1,5" d="M645.05,-840C597.76,-840 541.72,-840 541.72,-840 541.72,-840 541.72,-721.99 541.72,-721.99"/>
<polygon fill="#ff9ab1" stroke="#ff9ab1" points="545.22,-721.99 541.72,-711.99 538.22,-721.99 545.22,-721.99"/>
</g>
<!-- :ui:common&#45;&gt;:ui:test:screenshot -->
<g id="edge15" class="edge">
<title>:ui:common&#45;&gt;:ui:test:screenshot</title>
<path fill="none" stroke="#ff9ab1" stroke-dasharray="1,5" d="M702.64,-822.09C702.64,-822.09 702.64,-729.63 702.64,-729.63"/>
<polygon fill="#ff9ab1" stroke="#ff9ab1" points="706.14,-729.63 702.64,-719.63 699.14,-729.63 706.14,-729.63"/>
</g>
<!-- :ui:common&#45;&gt;:shared:domain -->
<g id="edge17" class="edge">
<title>:ui:common&#45;&gt;:shared:domain</title>
<path fill="none" stroke="black" d="M653.56,-831C611.33,-831 560.58,-831 560.58,-831 560.58,-831 560.58,-181.04 560.58,-181.04"/>
<polygon fill="black" stroke="black" points="564.08,-181.04 560.58,-171.04 557.08,-181.04 564.08,-181.04"/>
</g>
<!-- :ui:common&#45;&gt;:core:logging:api -->
<g id="edge19" class="edge">
<title>:ui:common&#45;&gt;:core:logging:api</title>
<path fill="none" stroke="black" stroke-dasharray="1,5" d="M653.64,-849C493.81,-849 45.4,-849 45.4,-849 45.4,-849 45.4,-178.24 45.4,-178.24"/>
<polygon fill="black" stroke="black" points="48.9,-178.24 45.4,-168.24 41.9,-178.24 48.9,-178.24"/>
</g>
<!-- :ui:common&#45;&gt;:core:coroutines -->
<g id="edge16" class="edge">
<title>:ui:common&#45;&gt;:core:coroutines</title>
<path fill="none" stroke="#ff9ab1" stroke-dasharray="1,5" d="M773.97,-840C811.67,-840 851.89,-840 851.89,-840 851.89,-840 851.89,-18 851.89,-18 851.89,-18 383.67,-18 383.67,-18"/>
<polygon fill="#ff9ab1" stroke="#ff9ab1" points="383.67,-14.5 373.67,-18 383.67,-21.5 383.67,-14.5"/>
</g>
<!-- :ui:common&#45;&gt;:ui:core -->
<g id="edge18" class="edge">
<title>:ui:common&#45;&gt;:ui:core</title>
<path fill="none" stroke="black" d="M766.99,-831.8C766.99,-831.8 766.99,-592.04 766.99,-592.04"/>
<polygon fill="black" stroke="black" points="770.49,-592.04 766.99,-582.04 763.49,-592.04 770.49,-592.04"/>
</g>
<!-- :core:logging:api&#45;&gt;:core:coroutines -->
<g id="edge20" class="edge">
<title>:core:logging:api&#45;&gt;:core:coroutines</title>
<path fill="none" stroke="black" d="M182.97,-146C204.5,-146 222.16,-146 222.16,-146 222.16,-146 222.16,-39.36 222.16,-39.36"/>
<polygon fill="black" stroke="black" points="225.66,-39.36 222.16,-29.36 218.66,-39.36 225.66,-39.36"/>
</g>
<!-- :data:database&#45;&gt;:shared:domain -->
<g id="edge21" class="edge">
<title>:data:database&#45;&gt;:shared:domain</title>
<path fill="none" stroke="black" stroke-dasharray="1,5" d="M399.34,-423C448.43,-423 503.56,-423 503.56,-423 503.56,-423 503.56,-182.58 503.56,-182.58"/>
<polygon fill="black" stroke="black" points="507.06,-182.58 503.56,-172.58 500.06,-182.58 507.06,-182.58"/>
</g>
<!-- :data:database&#45;&gt;:core:coroutines -->
<g id="edge22" class="edge">
<title>:data:database&#45;&gt;:core:coroutines</title>
<path fill="none" stroke="black" stroke-dasharray="1,5" d="M307.24,-411.34C307.24,-411.34 307.24,-45.59 307.24,-45.59"/>
<polygon fill="black" stroke="black" points="310.74,-45.59 307.24,-35.59 303.74,-45.59 310.74,-45.59"/>
</g>
<!-- :data:database&#45;&gt;:data:musicbrainz -->
<g id="edge23" class="edge">
<title>:data:database&#45;&gt;:data:musicbrainz</title>
<path fill="none" stroke="black" stroke-dasharray="1,5" d="M252.54,-421.24C252.54,-421.24 252.54,-309.34 252.54,-309.34"/>
<polygon fill="black" stroke="black" points="256.04,-309.34 252.54,-299.34 249.04,-309.34 256.04,-309.34"/>
</g>
<!-- :data:musicbrainz&#45;&gt;:shared:domain -->
<g id="edge24" class="edge">
<title>:data:musicbrainz&#45;&gt;:shared:domain</title>
<path fill="none" stroke="black" stroke-dasharray="1,5" d="M241.07,-281.09C241.07,-250.13 241.07,-164 241.07,-164 241.07,-164 440.68,-164 440.68,-164"/>
<polygon fill="black" stroke="black" points="440.68,-167.5 450.68,-164 440.68,-160.5 440.68,-167.5"/>
</g>
<!-- :data:musicbrainz&#45;&gt;:core:logging:api -->
<g id="edge25" class="edge">
<title>:data:musicbrainz&#45;&gt;:core:logging:api</title>
<path fill="none" stroke="black" stroke-dasharray="1,5" d="M133.79,-274.93C133.79,-274.93 133.79,-182.29 133.79,-182.29"/>
<polygon fill="black" stroke="black" points="137.29,-182.29 133.79,-172.29 130.29,-182.29 137.29,-182.29"/>
</g>
<!-- :data:coverart&#45;&gt;:test&#45;data -->
<g id="edge29" class="edge">
<title>:data:coverart&#45;&gt;:test&#45;data</title>
<path fill="none" stroke="#ff9ab1" stroke-dasharray="1,5" d="M400.8,-566C431.52,-566 459.8,-566 459.8,-566 459.8,-566 459.8,-678.6 459.8,-678.6"/>
<polygon fill="#ff9ab1" stroke="#ff9ab1" points="456.3,-678.6 459.8,-688.6 463.3,-678.6 456.3,-678.6"/>
</g>
<!-- :data:coverart&#45;&gt;:shared:domain -->
<g id="edge26" class="edge">
<title>:data:coverart&#45;&gt;:shared:domain</title>
<path fill="none" stroke="black" stroke-dasharray="1,5" d="M390.46,-557C445.46,-557 514.83,-557 514.83,-557 514.83,-557 514.83,-183.05 514.83,-183.05"/>
<polygon fill="black" stroke="black" points="518.33,-183.05 514.83,-173.05 511.33,-183.05 518.33,-183.05"/>
</g>
<!-- :data:coverart&#45;&gt;:core:logging:api -->
<g id="edge27" class="edge">
<title>:data:coverart&#45;&gt;:core:logging:api</title>
<path fill="none" stroke="black" stroke-dasharray="1,5" d="M248.01,-566C169.64,-566 59.1,-566 59.1,-566 59.1,-566 59.1,-180.61 59.1,-180.61"/>
<polygon fill="black" stroke="black" points="62.6,-180.61 59.1,-170.61 55.6,-180.61 62.6,-180.61"/>
</g>
<!-- :data:coverart&#45;&gt;:core:coroutines -->
<g id="edge28" class="edge">
<title>:data:coverart&#45;&gt;:core:coroutines</title>
<path fill="none" stroke="black" stroke-dasharray="1,5" d="M258.36,-575C163.51,-575 0,-575 0,-575 0,-575 0,-18 0,-18 0,-18 193.04,-18 193.04,-18"/>
<polygon fill="black" stroke="black" points="193.04,-21.5 203.04,-18 193.04,-14.5 193.04,-21.5"/>
</g>
<!-- :data:coverart&#45;&gt;:data:database -->
<g id="edge31" class="edge">
<title>:data:coverart&#45;&gt;:data:database</title>
<path fill="none" stroke="#ff9ab1" stroke-dasharray="1,5" d="M324.39,-547.81C324.39,-547.81 324.39,-457.27 324.39,-457.27"/>
<polygon fill="#ff9ab1" stroke="#ff9ab1" points="327.89,-457.27 324.39,-447.27 320.89,-457.27 327.89,-457.27"/>
</g>
<!-- :data:coverart&#45;&gt;:data:musicbrainz -->
<g id="edge30" class="edge">
<title>:data:coverart&#45;&gt;:data:musicbrainz</title>
<path fill="none" stroke="#ff9ab1" stroke-dasharray="1,5" d="M258.43,-557C223.47,-557 187.67,-557 187.67,-557 187.67,-557 187.67,-319.8 187.67,-319.8"/>
<polygon fill="#ff9ab1" stroke="#ff9ab1" points="191.17,-319.8 187.67,-309.8 184.17,-319.8 191.17,-319.8"/>
</g>
<!-- :data:spotify&#45;&gt;:shared:domain -->
<g id="edge32" class="edge">
<title>:data:spotify&#45;&gt;:shared:domain</title>
<path fill="none" stroke="black" stroke-dasharray="1,5" d="M466.07,-277.85C466.07,-277.85 466.07,-178.46 466.07,-178.46"/>
<polygon fill="black" stroke="black" points="469.57,-178.46 466.07,-168.46 462.57,-178.46 469.57,-178.46"/>
</g>
<!-- :data:spotify&#45;&gt;:core:logging:api -->
<g id="edge33" class="edge">
<title>:data:spotify&#45;&gt;:core:logging:api</title>
<path fill="none" stroke="black" stroke-dasharray="1,5" d="M360.84,-284.24C360.84,-255.26 360.84,-155 360.84,-155 360.84,-155 205.03,-155 205.03,-155"/>
<polygon fill="black" stroke="black" points="205.03,-151.5 195.03,-155 205.03,-158.5 205.03,-151.5"/>
</g>
<!-- :ui:core&#45;&gt;:shared:domain -->
<g id="edge35" class="edge">
<title>:ui:core&#45;&gt;:shared:domain</title>
<path fill="none" stroke="black" stroke-dasharray="1,5" d="M773.14,-548.94C773.14,-528.51 773.14,-497 773.14,-497 773.14,-497 582.45,-497 582.45,-497 582.45,-497 582.45,-177.58 582.45,-177.58"/>
<polygon fill="black" stroke="black" points="585.95,-177.58 582.45,-167.58 578.95,-177.58 585.95,-177.58"/>
</g>
<!-- :shared:strings -->
<g id="node14" class="node">
<title>:shared:strings</title>
<ellipse fill="#b59aff" stroke="black" cx="752.39" cy="-429" rx="81.49" ry="18"/>
<text text-anchor="middle" x="752.39" y="-425.3" font-family="Times,serif" font-size="14.00">:shared:strings</text>
</g>
<!-- :ui:core&#45;&gt;:shared:strings -->
<g id="edge34" class="edge">
<title>:ui:core&#45;&gt;:shared:strings</title>
<path fill="none" stroke="black" d="M803.39,-548.93C803.39,-548.93 803.39,-453.37 803.39,-453.37"/>
<polygon fill="black" stroke="black" points="806.89,-453.37 803.39,-443.37 799.89,-453.37 806.89,-453.37"/>
</g>
</g>
</svg>
