<?xml version="1.0" encoding="UTF-8" standalone="no"?>
<!DOCTYPE svg PUBLIC "-//W3C//DTD SVG 1.1//EN"
 "http://www.w3.org/Graphics/SVG/1.1/DTD/svg11.dtd">
<!-- Generated by graphviz version 2.43.0 (0)
 -->
<!-- Title: %3 Pages: 1 -->
<svg width="1580pt" height="666pt"
 viewBox="0.00 0.00 1579.83 666.00" xmlns="http://www.w3.org/2000/svg" xmlns:xlink="http://www.w3.org/1999/xlink">
<g id="graph0" class="graph" transform="scale(1 1) rotate(0) translate(4 662)">
<title>%3</title>
<polygon fill="white" stroke="transparent" points="-4,4 -4,-662 1575.83,-662 1575.83,4 -4,4"/>
<text text-anchor="middle" x="785.92" y="-630" font-family="Times,serif" font-size="30.00">Dependencies</text>
<text text-anchor="middle" x="785.92" y="-597" font-family="Times,serif" font-size="30.00"> </text>
<!-- :shared:feature:details -->
<g id="node1" class="node">
<title>:shared:feature:details</title>
<polygon fill="#b59aff" stroke="black" points="890.49,-584 711.49,-584 711.49,-548 890.49,-548 890.49,-584"/>
<text text-anchor="middle" x="800.99" y="-562.3" font-family="Times,serif" font-size="14.00">:shared:feature:details</text>
</g>
<!-- :test&#45;data -->
<g id="node2" class="node">
<title>:test&#45;data</title>
<ellipse fill="#b59aff" stroke="black" cx="535.99" cy="-429" rx="55.49" ry="18"/>
<text text-anchor="middle" x="535.99" y="-425.3" font-family="Times,serif" font-size="14.00">:test&#45;data</text>
</g>
<!-- :shared:feature:details&#45;&gt;:test&#45;data -->
<g id="edge1" class="edge">
<title>:shared:feature:details&#45;&gt;:test&#45;data</title>
<path fill="none" stroke="#ff9ab1" stroke-dasharray="1,5" d="M742.19,-547.81C742.19,-510.54 742.19,-429 742.19,-429 742.19,-429 601.25,-429 601.25,-429"/>
<polygon fill="#ff9ab1" stroke="#ff9ab1" points="601.25,-425.5 591.25,-429 601.25,-432.5 601.25,-425.5"/>
</g>
<!-- :ui:test:screenshot -->
<g id="node3" class="node">
<title>:ui:test:screenshot</title>
<ellipse fill="#9affb5" stroke="black" cx="1474.99" cy="-292" rx="96.68" ry="18"/>
<text text-anchor="middle" x="1474.99" y="-288.3" font-family="Times,serif" font-size="14.00">:ui:test:screenshot</text>
</g>
<!-- :shared:feature:details&#45;&gt;:ui:test:screenshot -->
<g id="edge2" class="edge">
<title>:shared:feature:details&#45;&gt;:ui:test:screenshot</title>
<path fill="none" stroke="#ff9ab1" stroke-dasharray="1,5" d="M890.8,-575C1081.03,-575 1507.27,-575 1507.27,-575 1507.27,-575 1507.27,-319.28 1507.27,-319.28"/>
<polygon fill="#ff9ab1" stroke="#ff9ab1" points="1510.77,-319.28 1507.27,-309.28 1503.77,-319.28 1510.77,-319.28"/>
</g>
<!-- :ui:common -->
<g id="node4" class="node">
<title>:ui:common</title>
<ellipse fill="#b59aff" stroke="black" cx="1069.99" cy="-429" rx="64.19" ry="18"/>
<text text-anchor="middle" x="1069.99" y="-425.3" font-family="Times,serif" font-size="14.00">:ui:common</text>
</g>
<!-- :shared:feature:details&#45;&gt;:ui:common -->
<g id="edge3" class="edge">
<title>:shared:feature:details&#45;&gt;:ui:common</title>
<path fill="none" stroke="black" stroke-dasharray="1,5" d="M890.56,-557C968.81,-557 1069.99,-557 1069.99,-557 1069.99,-557 1069.99,-457.07 1069.99,-457.07"/>
<polygon fill="black" stroke="black" points="1073.49,-457.07 1069.99,-447.07 1066.49,-457.07 1073.49,-457.07"/>
</g>
<!-- :shared:domain -->
<g id="node5" class="node">
<title>:shared:domain</title>
<ellipse fill="#b59aff" stroke="black" cx="831.99" cy="-155" rx="82.59" ry="18"/>
<text text-anchor="middle" x="831.99" y="-151.3" font-family="Times,serif" font-size="14.00">:shared:domain</text>
</g>
<!-- :shared:feature:details&#45;&gt;:shared:domain -->
<g id="edge4" class="edge">
<title>:shared:feature:details&#45;&gt;:shared:domain</title>
<path fill="none" stroke="black" stroke-dasharray="1,5" d="M811.95,-547.81C811.95,-547.81 811.95,-182.52 811.95,-182.52"/>
<polygon fill="black" stroke="black" points="815.45,-182.52 811.95,-172.52 808.45,-182.52 815.45,-182.52"/>
</g>
<!-- :core:preferences -->
<g id="node6" class="node">
<title>:core:preferences</title>
<ellipse fill="#b59aff" stroke="black" cx="1103.99" cy="-292" rx="91.78" ry="18"/>
<text text-anchor="middle" x="1103.99" y="-288.3" font-family="Times,serif" font-size="14.00">:core:preferences</text>
</g>
<!-- :shared:feature:details&#45;&gt;:core:preferences -->
<g id="edge5" class="edge">
<title>:shared:feature:details&#45;&gt;:core:preferences</title>
<path fill="none" stroke="black" stroke-dasharray="1,5" d="M820.32,-547.76C820.32,-485.91 820.32,-288 820.32,-288 820.32,-288 1004.63,-288 1004.63,-288"/>
<polygon fill="black" stroke="black" points="1004.63,-291.5 1014.63,-288 1004.63,-284.5 1004.63,-291.5"/>
</g>
<!-- :core:logging:api -->
<g id="node7" class="node">
<title>:core:logging:api</title>
<ellipse fill="#b59aff" stroke="black" cx="402.99" cy="-155" rx="88.28" ry="18"/>
<text text-anchor="middle" x="402.99" y="-151.3" font-family="Times,serif" font-size="14.00">:core:logging:api</text>
</g>
<!-- :shared:feature:details&#45;&gt;:core:logging:api -->
<g id="edge6" class="edge">
<title>:shared:feature:details&#45;&gt;:core:logging:api</title>
<path fill="none" stroke="black" stroke-dasharray="1,5" d="M711.34,-557C592.02,-557 395.9,-557 395.9,-557 395.9,-557 395.9,-183.05 395.9,-183.05"/>
<polygon fill="black" stroke="black" points="399.4,-183.05 395.9,-173.05 392.4,-183.05 399.4,-183.05"/>
</g>
<!-- :data:common:network -->
<g id="node8" class="node">
<title>:data:common:network</title>
<ellipse fill="#b59aff" stroke="black" cx="116.99" cy="-292" rx="116.98" ry="18"/>
<text text-anchor="middle" x="116.99" y="-288.3" font-family="Times,serif" font-size="14.00">:data:common:network</text>
</g>
<!-- :shared:feature:details&#45;&gt;:data:common:network -->
<g id="edge7" class="edge">
<title>:shared:feature:details&#45;&gt;:data:common:network</title>
<path fill="none" stroke="black" stroke-dasharray="1,5" d="M711.25,-575C517.62,-575 77.99,-575 77.99,-575 77.99,-575 77.99,-319.28 77.99,-319.28"/>
<polygon fill="black" stroke="black" points="81.49,-319.28 77.99,-309.28 74.49,-319.28 81.49,-319.28"/>
</g>
<!-- :data:spotify -->
<g id="node9" class="node">
<title>:data:spotify</title>
<ellipse fill="#b59aff" stroke="black" cx="320.99" cy="-292" rx="68.79" ry="18"/>
<text text-anchor="middle" x="320.99" y="-288.3" font-family="Times,serif" font-size="14.00">:data:spotify</text>
</g>
<!-- :shared:feature:details&#45;&gt;:data:spotify -->
<g id="edge8" class="edge">
<title>:shared:feature:details&#45;&gt;:data:spotify</title>
<path fill="none" stroke="black" stroke-dasharray="1,5" d="M711.36,-566C566.76,-566 298.02,-566 298.02,-566 298.02,-566 298.02,-319.14 298.02,-319.14"/>
<polygon fill="black" stroke="black" points="301.53,-319.14 298.02,-309.14 294.53,-319.14 301.53,-319.14"/>
</g>
<!-- :data:musicbrainz -->
<g id="node10" class="node">
<title>:data:musicbrainz</title>
<ellipse fill="#b59aff" stroke="black" cx="709.99" cy="-292" rx="93.68" ry="18"/>
<text text-anchor="middle" x="709.99" y="-288.3" font-family="Times,serif" font-size="14.00">:data:musicbrainz</text>
</g>
<!-- :shared:feature:details&#45;&gt;:data:musicbrainz -->
<g id="edge9" class="edge">
<title>:shared:feature:details&#45;&gt;:data:musicbrainz</title>
<path fill="none" stroke="black" stroke-dasharray="1,5" d="M772.88,-547.6C772.88,-547.6 772.88,-315.6 772.88,-315.6"/>
<polygon fill="black" stroke="black" points="776.38,-315.6 772.88,-305.6 769.38,-315.6 776.38,-315.6"/>
</g>
<!-- :data:database -->
<g id="node11" class="node">
<title>:data:database</title>
<ellipse fill="#b59aff" stroke="black" cx="907.99" cy="-429" rx="79.09" ry="18"/>
<text text-anchor="middle" x="907.99" y="-425.3" font-family="Times,serif" font-size="14.00">:data:database</text>
</g>
<!-- :shared:feature:details&#45;&gt;:data:database -->
<g id="edge10" class="edge">
<title>:shared:feature:details&#45;&gt;:data:database</title>
<path fill="none" stroke="black" stroke-dasharray="1,5" d="M859.59,-547.81C859.59,-547.81 859.59,-453.5 859.59,-453.5"/>
<polygon fill="black" stroke="black" points="863.09,-453.5 859.59,-443.5 856.09,-453.5 863.09,-453.5"/>
</g>
<!-- :ui:image -->
<g id="node12" class="node">
<title>:ui:image</title>
<ellipse fill="#b59aff" stroke="black" cx="1305.99" cy="-292" rx="53.89" ry="18"/>
<text text-anchor="middle" x="1305.99" y="-288.3" font-family="Times,serif" font-size="14.00">:ui:image</text>
</g>
<!-- :shared:feature:details&#45;&gt;:ui:image -->
<g id="edge11" class="edge">
<title>:shared:feature:details&#45;&gt;:ui:image</title>
<path fill="none" stroke="black" stroke-dasharray="1,5" d="M890.6,-566C1040.05,-566 1323.97,-566 1323.97,-566 1323.97,-566 1323.97,-319.14 1323.97,-319.14"/>
<polygon fill="black" stroke="black" points="1327.47,-319.14 1323.97,-309.14 1320.47,-319.14 1327.47,-319.14"/>
</g>
<!-- :test&#45;data&#45;&gt;:shared:domain -->
<g id="edge12" class="edge">
<title>:test&#45;data&#45;&gt;:shared:domain</title>
<path fill="none" stroke="black" stroke-dasharray="1,5" d="M570.43,-414.75C570.43,-359.71 570.43,-164 570.43,-164 570.43,-164 750.17,-164 750.17,-164"/>
<polygon fill="black" stroke="black" points="750.17,-167.5 760.17,-164 750.17,-160.5 750.17,-167.5"/>
</g>
<!-- :test&#45;data&#45;&gt;:data:common:network -->
<g id="edge13" class="edge">
<title>:test&#45;data&#45;&gt;:data:common:network</title>
<path fill="none" stroke="black" stroke-dasharray="1,5" d="M483.55,-435C379.31,-435 155.99,-435 155.99,-435 155.99,-435 155.99,-319.25 155.99,-319.25"/>
<polygon fill="black" stroke="black" points="159.49,-319.25 155.99,-309.25 152.49,-319.25 159.49,-319.25"/>
</g>
<!-- :test&#45;data&#45;&gt;:data:spotify -->
<g id="edge16" class="edge">
<title>:test&#45;data&#45;&gt;:data:spotify</title>
<path fill="none" stroke="black" stroke-dasharray="1,5" d="M483.77,-423C426.9,-423 343.95,-423 343.95,-423 343.95,-423 343.95,-319.13 343.95,-319.13"/>
<polygon fill="black" stroke="black" points="347.45,-319.13 343.95,-309.13 340.45,-319.13 347.45,-319.13"/>
</g>
<!-- :test&#45;data&#45;&gt;:data:musicbrainz -->
<g id="edge14" class="edge">
<title>:test&#45;data&#45;&gt;:data:musicbrainz</title>
<path fill="none" stroke="black" stroke-dasharray="1,5" d="M580.83,-418.25C580.83,-385.95 580.83,-292 580.83,-292 580.83,-292 606.13,-292 606.13,-292"/>
<polygon fill="black" stroke="black" points="606.13,-295.5 616.13,-292 606.13,-288.5 606.13,-295.5"/>
</g>
<!-- :data:coverart -->
<g id="node13" class="node">
<title>:data:coverart</title>
<ellipse fill="#b59aff" stroke="black" cx="483.99" cy="-292" rx="76.09" ry="18"/>
<text text-anchor="middle" x="483.99" y="-288.3" font-family="Times,serif" font-size="14.00">:data:coverart</text>
</g>
<!-- :test&#45;data&#45;&gt;:data:coverart -->
<g id="edge15" class="edge">
<title>:test&#45;data&#45;&gt;:data:coverart</title>
<path fill="none" stroke="black" stroke-dasharray="1,5" d="M507.17,-413.55C507.17,-413.55 507.17,-319.33 507.17,-319.33"/>
<polygon fill="black" stroke="black" points="510.67,-319.33 507.17,-309.33 503.67,-319.33 510.67,-319.33"/>
</g>
<!-- :ui:core -->
<g id="node14" class="node">
<title>:ui:core</title>
<ellipse fill="#b59aff" stroke="black" cx="1305.99" cy="-155" rx="45.49" ry="18"/>
<text text-anchor="middle" x="1305.99" y="-151.3" font-family="Times,serif" font-size="14.00">:ui:core</text>
</g>
<!-- :ui:test:screenshot&#45;&gt;:ui:core -->
<g id="edge17" class="edge">
<title>:ui:test:screenshot&#45;&gt;:ui:core</title>
<path fill="none" stroke="black" stroke-dasharray="1,5" d="M1382.69,-286.46C1382.69,-260.83 1382.69,-155 1382.69,-155 1382.69,-155 1361.49,-155 1361.49,-155"/>
<polygon fill="black" stroke="black" points="1361.49,-151.5 1351.49,-155 1361.49,-158.5 1361.49,-151.5"/>
</g>
<!-- :test:image -->
<g id="node15" class="node">
<title>:test:image</title>
<ellipse fill="#9affb5" stroke="black" cx="1474.99" cy="-155" rx="63.09" ry="18"/>
<text text-anchor="middle" x="1474.99" y="-151.3" font-family="Times,serif" font-size="14.00">:test:image</text>
</g>
<!-- :ui:test:screenshot&#45;&gt;:test:image -->
<g id="edge18" class="edge">
<title>:ui:test:screenshot&#45;&gt;:test:image</title>
<path fill="none" stroke="black" stroke-dasharray="1,5" d="M1474.99,-273.81C1474.99,-273.81 1474.99,-183.27 1474.99,-183.27"/>
<polygon fill="black" stroke="black" points="1478.49,-183.27 1474.99,-173.27 1471.49,-183.27 1478.49,-183.27"/>
</g>
<!-- :ui:common&#45;&gt;:ui:test:screenshot -->
<g id="edge19" class="edge">
<title>:ui:common&#45;&gt;:ui:test:screenshot</title>
<path fill="none" stroke="#ff9ab1" stroke-dasharray="1,5" d="M1125.79,-438C1229.77,-438 1442.71,-438 1442.71,-438 1442.71,-438 1442.71,-319.03 1442.71,-319.03"/>
<polygon fill="#ff9ab1" stroke="#ff9ab1" points="1446.21,-319.03 1442.71,-309.03 1439.21,-319.03 1446.21,-319.03"/>
</g>
<!-- :ui:common&#45;&gt;:shared:domain -->
<g id="edge20" class="edge">
<title>:ui:common&#45;&gt;:shared:domain</title>
<path fill="none" stroke="black" d="M1085.54,-411.32C1085.54,-384.09 1085.54,-335 1085.54,-335 1085.54,-335 871.61,-335 871.61,-335 871.61,-335 871.61,-180.97 871.61,-180.97"/>
<polygon fill="black" stroke="black" points="875.11,-180.97 871.61,-170.97 868.11,-180.97 875.11,-180.97"/>
</g>
<!-- :ui:common&#45;&gt;:core:preferences -->
<g id="edge24" class="edge">
<title>:ui:common&#45;&gt;:core:preferences</title>
<path fill="none" stroke="black" stroke-dasharray="1,5" d="M1109.94,-414.85C1109.94,-414.85 1109.94,-320.17 1109.94,-320.17"/>
<polygon fill="black" stroke="black" points="1113.44,-320.17 1109.94,-310.17 1106.44,-320.17 1113.44,-320.17"/>
</g>
<!-- :ui:common&#45;&gt;:core:logging:api -->
<g id="edge25" class="edge">
<title>:ui:common&#45;&gt;:core:logging:api</title>
<path fill="none" stroke="black" stroke-dasharray="1,5" d="M1036.74,-413.11C1036.74,-400.51 1036.74,-385 1036.74,-385 1036.74,-385 401.93,-385 401.93,-385 401.93,-385 401.93,-183.05 401.93,-183.05"/>
<polygon fill="black" stroke="black" points="405.43,-183.05 401.93,-173.05 398.43,-183.05 405.43,-183.05"/>
</g>
<!-- :ui:common&#45;&gt;:data:musicbrainz -->
<g id="edge23" class="edge">
<title>:ui:common&#45;&gt;:data:musicbrainz</title>
<path fill="none" stroke="black" stroke-dasharray="1,5" d="M1005.48,-429C999.98,-429 996.46,-429 996.46,-429 996.46,-429 996.46,-295 996.46,-295 996.46,-295 812.6,-295 812.6,-295"/>
<polygon fill="black" stroke="black" points="812.6,-291.5 802.6,-295 812.6,-298.5 812.6,-291.5"/>
</g>
<!-- :ui:common&#45;&gt;:ui:image -->
<g id="edge26" class="edge">
<title>:ui:common&#45;&gt;:ui:image</title>
<path fill="none" stroke="black" stroke-dasharray="1,5" d="M1134.52,-429C1198.81,-429 1288.01,-429 1288.01,-429 1288.01,-429 1288.01,-319.07 1288.01,-319.07"/>
<polygon fill="black" stroke="black" points="1291.51,-319.07 1288.01,-309.07 1284.51,-319.07 1291.51,-319.07"/>
</g>
<!-- :ui:common&#45;&gt;:data:coverart -->
<g id="edge22" class="edge">
<title>:ui:common&#45;&gt;:data:coverart</title>
<path fill="none" stroke="black" stroke-dasharray="1,5" d="M1061.14,-410.87C1061.14,-390.43 1061.14,-360 1061.14,-360 1061.14,-360 533.6,-360 533.6,-360 533.6,-360 533.6,-315.76 533.6,-315.76"/>
<polygon fill="black" stroke="black" points="537.1,-315.76 533.6,-305.76 530.1,-315.76 537.1,-315.76"/>
</g>
<!-- :ui:common&#45;&gt;:ui:core -->
<g id="edge21" class="edge">
<title>:ui:common&#45;&gt;:ui:core</title>
<path fill="none" stroke="black" d="M1125.8,-420C1164.9,-420 1210.19,-420 1210.19,-420 1210.19,-420 1210.19,-155 1210.19,-155 1210.19,-155 1250.33,-155 1250.33,-155"/>
<polygon fill="black" stroke="black" points="1250.33,-158.5 1260.33,-155 1250.33,-151.5 1250.33,-158.5"/>
</g>
<!-- :core:preferences&#45;&gt;:shared:domain -->
<g id="edge27" class="edge">
<title>:core:preferences&#45;&gt;:shared:domain</title>
<path fill="none" stroke="black" stroke-dasharray="1,5" d="M1031.38,-281C967.94,-281 885.92,-281 885.92,-281 885.92,-281 885.92,-178.97 885.92,-178.97"/>
<polygon fill="black" stroke="black" points="889.42,-178.97 885.92,-168.97 882.42,-178.97 889.42,-178.97"/>
</g>
<!-- :core:coroutines -->
<g id="node16" class="node">
<title>:core:coroutines</title>
<ellipse fill="#b59aff" stroke="black" cx="1060.99" cy="-155" rx="85.29" ry="18"/>
<text text-anchor="middle" x="1060.99" y="-151.3" font-family="Times,serif" font-size="14.00">:core:coroutines</text>
</g>
<!-- :core:preferences&#45;&gt;:core:coroutines -->
<g id="edge28" class="edge">
<title>:core:preferences&#45;&gt;:core:coroutines</title>
<path fill="none" stroke="black" stroke-dasharray="1,5" d="M1079.24,-274.65C1079.24,-274.65 1079.24,-182.64 1079.24,-182.64"/>
<polygon fill="black" stroke="black" points="1082.74,-182.64 1079.24,-172.64 1075.74,-182.64 1082.74,-182.64"/>
</g>
<!-- :data:common:network&#45;&gt;:core:logging:api -->
<g id="edge29" class="edge">
<title>:data:common:network&#45;&gt;:core:logging:api</title>
<path fill="none" stroke="black" stroke-dasharray="1,5" d="M116.99,-273.81C116.99,-236.54 116.99,-155 116.99,-155 116.99,-155 304.46,-155 304.46,-155"/>
<polygon fill="black" stroke="black" points="304.46,-158.5 314.46,-155 304.46,-151.5 304.46,-158.5"/>
</g>
<!-- :data:spotify&#45;&gt;:shared:domain -->
<g id="edge30" class="edge">
<title>:data:spotify&#45;&gt;:shared:domain</title>
<path fill="none" stroke="black" stroke-dasharray="1,5" d="M364.79,-278.06C364.79,-262.66 364.79,-240 364.79,-240 364.79,-240 767.49,-240 767.49,-240 767.49,-240 767.49,-176.46 767.49,-176.46"/>
<polygon fill="black" stroke="black" points="770.99,-176.46 767.49,-166.46 763.99,-176.46 770.99,-176.46"/>
</g>
<!-- :data:spotify&#45;&gt;:core:logging:api -->
<g id="edge31" class="edge">
<title>:data:spotify&#45;&gt;:core:logging:api</title>
<path fill="none" stroke="black" stroke-dasharray="1,5" d="M339.69,-274.65C339.69,-274.65 339.69,-177.74 339.69,-177.74"/>
<polygon fill="black" stroke="black" points="343.19,-177.74 339.69,-167.74 336.19,-177.74 343.19,-177.74"/>
</g>
<!-- :data:musicbrainz&#45;&gt;:shared:domain -->
<g id="edge32" class="edge">
<title>:data:musicbrainz&#45;&gt;:shared:domain</title>
<path fill="none" stroke="black" stroke-dasharray="1,5" d="M785.54,-281.25C785.54,-281.25 785.54,-180.18 785.54,-180.18"/>
<polygon fill="black" stroke="black" points="789.04,-180.18 785.54,-170.18 782.04,-180.18 789.04,-180.18"/>
</g>
<!-- :data:musicbrainz&#45;&gt;:core:logging:api -->
<g id="edge33" class="edge">
<title>:data:musicbrainz&#45;&gt;:core:logging:api</title>
<path fill="none" stroke="black" stroke-dasharray="1,5" d="M682.92,-274.68C682.92,-236 682.92,-146 682.92,-146 682.92,-146 489.85,-146 489.85,-146"/>
<polygon fill="black" stroke="black" points="489.85,-142.5 479.85,-146 489.85,-149.5 489.85,-142.5"/>
</g>
<!-- :data:database&#45;&gt;:shared:domain -->
<g id="edge34" class="edge">
<title>:data:database&#45;&gt;:shared:domain</title>
<path fill="none" stroke="black" stroke-dasharray="1,5" d="M857.31,-415.04C857.31,-415.04 857.31,-182.37 857.31,-182.37"/>
<polygon fill="black" stroke="black" points="860.81,-182.37 857.31,-172.37 853.81,-182.37 860.81,-182.37"/>
</g>
<!-- :data:database&#45;&gt;:data:musicbrainz -->
<g id="edge36" class="edge">
<title>:data:database&#45;&gt;:data:musicbrainz</title>
<path fill="none" stroke="black" stroke-dasharray="1,5" d="M843,-418.61C843,-388.28 843,-302 843,-302 843,-302 798.13,-302 798.13,-302"/>
<polygon fill="black" stroke="black" points="798.13,-298.5 788.13,-302 798.13,-305.5 798.13,-298.5"/>
</g>
<!-- :data:database&#45;&gt;:core:coroutines -->
<g id="edge35" class="edge">
<title>:data:database&#45;&gt;:core:coroutines</title>
<path fill="none" stroke="black" stroke-dasharray="1,5" d="M981.56,-422.23C981.56,-422.23 981.56,-171.54 981.56,-171.54"/>
<polygon fill="black" stroke="black" points="985.06,-171.54 981.56,-161.54 978.06,-171.54 985.06,-171.54"/>
</g>
<!-- :ui:image&#45;&gt;:shared:domain -->
<g id="edge37" class="edge">
<title>:ui:image&#45;&gt;:shared:domain</title>
<path fill="none" stroke="black" stroke-dasharray="1,5" d="M1256.27,-284.96C1256.27,-264.42 1256.27,-206 1256.27,-206 1256.27,-206 900.23,-206 900.23,-206 900.23,-206 900.23,-175.32 900.23,-175.32"/>
<polygon fill="black" stroke="black" points="903.73,-175.32 900.23,-165.32 896.73,-175.32 903.73,-175.32"/>
</g>
<!-- :ui:image&#45;&gt;:ui:core -->
<g id="edge38" class="edge">
<title>:ui:image&#45;&gt;:ui:core</title>
<path fill="none" stroke="black" stroke-dasharray="1,5" d="M1305.99,-273.81C1305.99,-273.81 1305.99,-183.27 1305.99,-183.27"/>
<polygon fill="black" stroke="black" points="1309.49,-183.27 1305.99,-173.27 1302.49,-183.27 1309.49,-183.27"/>
</g>
<!-- :data:coverart&#45;&gt;:shared:domain -->
<g id="edge39" class="edge">
<title>:data:coverart&#45;&gt;:shared:domain</title>
<path fill="none" stroke="black" stroke-dasharray="1,5" d="M525.71,-276.82C525.71,-241.15 525.71,-155 525.71,-155 525.71,-155 739.11,-155 739.11,-155"/>
<polygon fill="black" stroke="black" points="739.11,-158.5 749.11,-155 739.11,-151.5 739.11,-158.5"/>
</g>
<!-- :data:coverart&#45;&gt;:core:logging:api -->
<g id="edge40" class="edge">
<title>:data:coverart&#45;&gt;:core:logging:api</title>
<path fill="none" stroke="black" stroke-dasharray="1,5" d="M449.66,-275.75C449.66,-275.75 449.66,-180.39 449.66,-180.39"/>
<polygon fill="black" stroke="black" points="453.16,-180.39 449.66,-170.39 446.16,-180.39 453.16,-180.39"/>
</g>
<!-- :shared:strings -->
<g id="node17" class="node">
<title>:shared:strings</title>
<ellipse fill="#b59aff" stroke="black" cx="1305.99" cy="-18" rx="81.49" ry="18"/>
<text text-anchor="middle" x="1305.99" y="-14.3" font-family="Times,serif" font-size="14.00">:shared:strings</text>
</g>
<!-- :ui:core&#45;&gt;:shared:strings -->
<g id="edge41" class="edge">
<title>:ui:core&#45;&gt;:shared:strings</title>
<path fill="none" stroke="black" d="M1305.99,-136.81C1305.99,-136.81 1305.99,-46.27 1305.99,-46.27"/>
<polygon fill="black" stroke="black" points="1309.49,-46.27 1305.99,-36.27 1302.49,-46.27 1309.49,-46.27"/>
</g>
</g>
</svg>
