<?xml version="1.0" encoding="UTF-8" standalone="no"?>
<!DOCTYPE svg PUBLIC "-//W3C//DTD SVG 1.1//EN"
 "http://www.w3.org/Graphics/SVG/1.1/DTD/svg11.dtd">
<!-- Generated by graphviz version 2.43.0 (0)
 -->
<!-- Title: %3 Pages: 1 -->
<svg width="690pt" height="803pt"
 viewBox="0.00 0.00 690.38 803.00" xmlns="http://www.w3.org/2000/svg" xmlns:xlink="http://www.w3.org/1999/xlink">
<g id="graph0" class="graph" transform="scale(1 1) rotate(0) translate(4 799)">
<title>%3</title>
<polygon fill="white" stroke="transparent" points="-4,4 -4,-799 686.38,-799 686.38,4 -4,4"/>
<text text-anchor="middle" x="341.19" y="-767" font-family="Times,serif" font-size="30.00">Dependencies</text>
<text text-anchor="middle" x="341.19" y="-734" font-family="Times,serif" font-size="30.00"> </text>
<!-- :shared:feature:details -->
<g id="node1" class="node">
<title>:shared:feature:details</title>
<polygon fill="#b59aff" stroke="black" points="500.04,-721 321.04,-721 321.04,-685 500.04,-685 500.04,-721"/>
<text text-anchor="middle" x="410.54" y="-699.3" font-family="Times,serif" font-size="14.00">:shared:feature:details</text>
</g>
<!-- :test&#45;data -->
<g id="node2" class="node">
<title>:test&#45;data</title>
<ellipse fill="#b59aff" stroke="black" cx="318.54" cy="-429" rx="55.49" ry="18"/>
<text text-anchor="middle" x="318.54" y="-425.3" font-family="Times,serif" font-size="14.00">:test&#45;data</text>
</g>
<!-- :shared:feature:details&#45;&gt;:test&#45;data -->
<g id="edge1" class="edge">
<title>:shared:feature:details&#45;&gt;:test&#45;data</title>
<path fill="none" stroke="#ff9ab1" stroke-dasharray="1,5" d="M333.62,-684.6C333.62,-684.6 333.62,-456.61 333.62,-456.61"/>
<polygon fill="#ff9ab1" stroke="#ff9ab1" points="337.12,-456.61 333.62,-446.61 330.12,-456.61 337.12,-456.61"/>
</g>
<!-- :ui:test:screenshot -->
<g id="node3" class="node">
<title>:ui:test:screenshot</title>
<ellipse fill="#9affb5" stroke="black" cx="567.54" cy="-429" rx="96.68" ry="18"/>
<text text-anchor="middle" x="567.54" y="-425.3" font-family="Times,serif" font-size="14.00">:ui:test:screenshot</text>
</g>
<!-- :shared:feature:details&#45;&gt;:ui:test:screenshot -->
<g id="edge2" class="edge">
<title>:shared:feature:details&#45;&gt;:ui:test:screenshot</title>
<path fill="none" stroke="#ff9ab1" stroke-dasharray="1,5" d="M491.66,-684.6C491.66,-684.6 491.66,-450.47 491.66,-450.47"/>
<polygon fill="#ff9ab1" stroke="#ff9ab1" points="495.16,-450.47 491.66,-440.47 488.16,-450.47 495.16,-450.47"/>
</g>
<!-- :ui:common -->
<g id="node4" class="node">
<title>:ui:common</title>
<ellipse fill="#b59aff" stroke="black" cx="410.54" cy="-566" rx="64.19" ry="18"/>
<text text-anchor="middle" x="410.54" y="-562.3" font-family="Times,serif" font-size="14.00">:ui:common</text>
</g>
<!-- :shared:feature:details&#45;&gt;:ui:common -->
<g id="edge3" class="edge">
<title>:shared:feature:details&#45;&gt;:ui:common</title>
<path fill="none" stroke="black" stroke-dasharray="1,5" d="M410.54,-684.81C410.54,-684.81 410.54,-594.27 410.54,-594.27"/>
<polygon fill="black" stroke="black" points="414.04,-594.27 410.54,-584.27 407.04,-594.27 414.04,-594.27"/>
</g>
<!-- :shared:domain -->
<g id="node5" class="node">
<title>:shared:domain</title>
<ellipse fill="#b59aff" stroke="black" cx="82.54" cy="-18" rx="82.59" ry="18"/>
<text text-anchor="middle" x="82.54" y="-14.3" font-family="Times,serif" font-size="14.00">:shared:domain</text>
</g>
<!-- :shared:feature:details&#45;&gt;:shared:domain -->
<g id="edge4" class="edge">
<title>:shared:feature:details&#45;&gt;:shared:domain</title>
<path fill="none" stroke="black" stroke-dasharray="1,5" d="M320.79,-703C207.65,-703 27.74,-703 27.74,-703 27.74,-703 27.74,-41.68 27.74,-41.68"/>
<polygon fill="black" stroke="black" points="31.24,-41.68 27.74,-31.68 24.24,-41.68 31.24,-41.68"/>
</g>
<!-- :core:logging:api -->
<g id="node6" class="node">
<title>:core:logging:api</title>
<ellipse fill="#b59aff" stroke="black" cx="555.54" cy="-18" rx="88.28" ry="18"/>
<text text-anchor="middle" x="555.54" y="-14.3" font-family="Times,serif" font-size="14.00">:core:logging:api</text>
</g>
<!-- :shared:feature:details&#45;&gt;:core:logging:api -->
<g id="edge5" class="edge">
<title>:shared:feature:details&#45;&gt;:core:logging:api</title>
<path fill="none" stroke="black" stroke-dasharray="1,5" d="M500.31,-703C579.49,-703 682.38,-703 682.38,-703 682.38,-703 682.38,-18 682.38,-18 682.38,-18 653.98,-18 653.98,-18"/>
<polygon fill="black" stroke="black" points="653.98,-14.5 643.98,-18 653.98,-21.5 653.98,-14.5"/>
</g>
<!-- :test&#45;data&#45;&gt;:shared:domain -->
<g id="edge6" class="edge">
<title>:test&#45;data&#45;&gt;:shared:domain</title>
<path fill="none" stroke="black" stroke-dasharray="1,5" d="M307.32,-411.21C307.32,-333.41 307.32,-27 307.32,-27 307.32,-27 164.28,-27 164.28,-27"/>
<polygon fill="black" stroke="black" points="164.28,-23.5 154.28,-27 164.28,-30.5 164.28,-23.5"/>
</g>
<!-- :data:database -->
<g id="node7" class="node">
<title>:data:database</title>
<ellipse fill="#b59aff" stroke="black" cx="204.54" cy="-292" rx="79.09" ry="18"/>
<text text-anchor="middle" x="204.54" y="-288.3" font-family="Times,serif" font-size="14.00">:data:database</text>
</g>
<!-- :test&#45;data&#45;&gt;:data:database -->
<g id="edge7" class="edge">
<title>:test&#45;data&#45;&gt;:data:database</title>
<path fill="none" stroke="black" stroke-dasharray="1,5" d="M273.57,-418.25C273.57,-418.25 273.57,-310.88 273.57,-310.88"/>
<polygon fill="black" stroke="black" points="277.07,-310.88 273.57,-300.88 270.07,-310.88 277.07,-310.88"/>
</g>
<!-- :data:musicbrainz -->
<g id="node8" class="node">
<title>:data:musicbrainz</title>
<ellipse fill="#b59aff" stroke="black" cx="204.54" cy="-155" rx="93.68" ry="18"/>
<text text-anchor="middle" x="204.54" y="-151.3" font-family="Times,serif" font-size="14.00">:data:musicbrainz</text>
</g>
<!-- :test&#45;data&#45;&gt;:data:musicbrainz -->
<g id="edge8" class="edge">
<title>:test&#45;data&#45;&gt;:data:musicbrainz</title>
<path fill="none" stroke="black" stroke-dasharray="1,5" d="M290.99,-413.08C290.99,-413.08 290.99,-172.19 290.99,-172.19"/>
<polygon fill="black" stroke="black" points="294.49,-172.19 290.99,-162.19 287.49,-172.19 294.49,-172.19"/>
</g>
<!-- :data:coverart -->
<g id="node9" class="node">
<title>:data:coverart</title>
<ellipse fill="#b59aff" stroke="black" cx="392.54" cy="-155" rx="76.09" ry="18"/>
<text text-anchor="middle" x="392.54" y="-151.3" font-family="Times,serif" font-size="14.00">:data:coverart</text>
</g>
<!-- :test&#45;data&#45;&gt;:data:coverart -->
<g id="edge9" class="edge">
<title>:test&#45;data&#45;&gt;:data:coverart</title>
<path fill="none" stroke="black" stroke-dasharray="1,5" d="M335.6,-411.86C335.6,-411.86 335.6,-177.22 335.6,-177.22"/>
<polygon fill="black" stroke="black" points="339.1,-177.22 335.6,-167.22 332.1,-177.22 339.1,-177.22"/>
</g>
<!-- :data:spotify -->
<g id="node10" class="node">
<title>:data:spotify</title>
<ellipse fill="#b59aff" stroke="black" cx="555.54" cy="-155" rx="68.79" ry="18"/>
<text text-anchor="middle" x="555.54" y="-151.3" font-family="Times,serif" font-size="14.00">:data:spotify</text>
</g>
<!-- :test&#45;data&#45;&gt;:data:spotify -->
<g id="edge10" class="edge">
<title>:test&#45;data&#45;&gt;:data:spotify</title>
<path fill="none" stroke="black" stroke-dasharray="1,5" d="M354.69,-415.29C354.69,-379.5 354.69,-286 354.69,-286 354.69,-286 493.57,-286 493.57,-286 493.57,-286 493.57,-173.19 493.57,-173.19"/>
<polygon fill="black" stroke="black" points="497.07,-173.19 493.57,-163.19 490.07,-173.19 497.07,-173.19"/>
</g>
<!-- :test:image -->
<g id="node11" class="node">
<title>:test:image</title>
<ellipse fill="#9affb5" stroke="black" cx="563.54" cy="-292" rx="63.09" ry="18"/>
<text text-anchor="middle" x="563.54" y="-288.3" font-family="Times,serif" font-size="14.00">:test:image</text>
</g>
<!-- :ui:test:screenshot&#45;&gt;:test:image -->
<g id="edge11" class="edge">
<title>:ui:test:screenshot&#45;&gt;:test:image</title>
<path fill="none" stroke="black" stroke-dasharray="1,5" d="M563.54,-410.81C563.54,-410.81 563.54,-320.27 563.54,-320.27"/>
<polygon fill="black" stroke="black" points="567.04,-320.27 563.54,-310.27 560.04,-320.27 567.04,-320.27"/>
</g>
<!-- :ui:common&#45;&gt;:test&#45;data -->
<g id="edge13" class="edge">
<title>:ui:common&#45;&gt;:test&#45;data</title>
<path fill="none" stroke="#ff9ab1" stroke-dasharray="1,5" d="M359.99,-554.79C359.99,-554.79 359.99,-451.15 359.99,-451.15"/>
<polygon fill="#ff9ab1" stroke="#ff9ab1" points="363.49,-451.15 359.99,-441.15 356.49,-451.15 363.49,-451.15"/>
</g>
<!-- :ui:common&#45;&gt;:ui:test:screenshot -->
<g id="edge14" class="edge">
<title>:ui:common&#45;&gt;:ui:test:screenshot</title>
<path fill="none" stroke="#ff9ab1" stroke-dasharray="1,5" d="M474.93,-566C480.04,-566 483.27,-566 483.27,-566 483.27,-566 483.27,-447.99 483.27,-447.99"/>
<polygon fill="#ff9ab1" stroke="#ff9ab1" points="486.77,-447.99 483.27,-437.99 479.77,-447.99 486.77,-447.99"/>
</g>
<!-- :ui:common&#45;&gt;:shared:domain -->
<g id="edge15" class="edge">
<title>:ui:common&#45;&gt;:shared:domain</title>
<path fill="none" stroke="black" d="M345.83,-566C243.42,-566 55.48,-566 55.48,-566 55.48,-566 55.48,-45.31 55.48,-45.31"/>
<polygon fill="black" stroke="black" points="58.98,-45.31 55.48,-35.31 51.98,-45.31 58.98,-45.31"/>
</g>
<!-- :ui:common&#45;&gt;:core:logging:api -->
<g id="edge16" class="edge">
<title>:ui:common&#45;&gt;:core:logging:api</title>
<path fill="none" stroke="black" stroke-dasharray="1,5" d="M436.99,-549.49C436.99,-500.61 436.99,-360 436.99,-360 436.99,-360 481.33,-360 481.33,-360 481.33,-360 481.33,-37.87 481.33,-37.87"/>
<polygon fill="black" stroke="black" points="484.83,-37.87 481.33,-27.87 477.83,-37.87 484.83,-37.87"/>
</g>
<!-- :ui:common&#45;&gt;:test:image -->
<g id="edge12" class="edge">
<title>:ui:common&#45;&gt;:test:image</title>
<path fill="none" stroke="black" stroke-dasharray="1,5" d="M405.39,-548C405.39,-487.91 405.39,-298 405.39,-298 405.39,-298 493.75,-298 493.75,-298"/>
<polygon fill="black" stroke="black" points="493.75,-301.5 503.75,-298 493.75,-294.5 493.75,-301.5"/>
</g>
<!-- :data:database&#45;&gt;:shared:domain -->
<g id="edge17" class="edge">
<title>:data:database&#45;&gt;:shared:domain</title>
<path fill="none" stroke="black" stroke-dasharray="1,5" d="M124.97,-292C102.1,-292 83.21,-292 83.21,-292 83.21,-292 83.21,-46.4 83.21,-46.4"/>
<polygon fill="black" stroke="black" points="86.71,-46.4 83.21,-36.4 79.71,-46.4 86.71,-46.4"/>
</g>
<!-- :data:database&#45;&gt;:data:musicbrainz -->
<g id="edge18" class="edge">
<title>:data:database&#45;&gt;:data:musicbrainz</title>
<path fill="none" stroke="black" stroke-dasharray="1,5" d="M204.54,-273.81C204.54,-273.81 204.54,-183.27 204.54,-183.27"/>
<polygon fill="black" stroke="black" points="208.04,-183.27 204.54,-173.27 201.04,-183.27 208.04,-183.27"/>
</g>
<!-- :data:musicbrainz&#45;&gt;:shared:domain -->
<g id="edge19" class="edge">
<title>:data:musicbrainz&#45;&gt;:shared:domain</title>
<path fill="none" stroke="black" stroke-dasharray="1,5" d="M129,-144.25C129,-144.25 129,-43.18 129,-43.18"/>
<polygon fill="black" stroke="black" points="132.5,-43.18 129,-33.18 125.5,-43.18 132.5,-43.18"/>
</g>
<!-- :data:musicbrainz&#45;&gt;:core:logging:api -->
<g id="edge20" class="edge">
<title>:data:musicbrainz&#45;&gt;:core:logging:api</title>
<path fill="none" stroke="black" stroke-dasharray="1,5" d="M231.61,-137.65C231.61,-100.78 231.61,-18 231.61,-18 231.61,-18 457.03,-18 457.03,-18"/>
<polygon fill="black" stroke="black" points="457.03,-21.5 467.03,-18 457.03,-14.5 457.03,-21.5"/>
</g>
<!-- :data:coverart&#45;&gt;:shared:domain -->
<g id="edge21" class="edge">
<title>:data:coverart&#45;&gt;:shared:domain</title>
<path fill="none" stroke="black" stroke-dasharray="1,5" d="M391.82,-136.8C391.82,-97.67 391.82,-9 391.82,-9 391.82,-9 164.28,-9 164.28,-9"/>
<polygon fill="black" stroke="black" points="164.28,-5.5 154.28,-9 164.28,-12.5 164.28,-5.5"/>
</g>
<!-- :data:coverart&#45;&gt;:core:logging:api -->
<g id="edge22" class="edge">
<title>:data:coverart&#45;&gt;:core:logging:api</title>
<path fill="none" stroke="black" stroke-dasharray="1,5" d="M468.61,-155C473.2,-155 476.02,-155 476.02,-155 476.02,-155 476.02,-36.16 476.02,-36.16"/>
<polygon fill="black" stroke="black" points="479.52,-36.16 476.02,-26.16 472.52,-36.16 479.52,-36.16"/>
</g>
<!-- :data:spotify&#45;&gt;:shared:domain -->
<g id="edge23" class="edge">
<title>:data:spotify&#45;&gt;:shared:domain</title>
<path fill="none" stroke="black" stroke-dasharray="1,5" d="M532.58,-137.94C532.58,-117.51 532.58,-86 532.58,-86 532.58,-86 147.04,-86 147.04,-86 147.04,-86 147.04,-39.54 147.04,-39.54"/>
<polygon fill="black" stroke="black" points="150.54,-39.54 147.04,-29.54 143.54,-39.54 150.54,-39.54"/>
</g>
<!-- :data:spotify&#45;&gt;:core:logging:api -->
<g id="edge24" class="edge">
<title>:data:spotify&#45;&gt;:core:logging:api</title>
<path fill="none" stroke="black" stroke-dasharray="1,5" d="M578.51,-137.93C578.51,-137.93 578.51,-45.72 578.51,-45.72"/>
<polygon fill="black" stroke="black" points="582.01,-45.72 578.51,-35.72 575.01,-45.72 582.01,-45.72"/>
</g>
</g>
</svg>
