<?xml version="1.0" encoding="UTF-8" standalone="no"?>
<!DOCTYPE svg PUBLIC "-//W3C//DTD SVG 1.1//EN"
 "http://www.w3.org/Graphics/SVG/1.1/DTD/svg11.dtd">
<!-- Generated by graphviz version 2.43.0 (0)
 -->
<!-- Title: %3 Pages: 1 -->
<svg width="1135pt" height="1077pt"
 viewBox="0.00 0.00 1135.23 1077.00" xmlns="http://www.w3.org/2000/svg" xmlns:xlink="http://www.w3.org/1999/xlink">
<g id="graph0" class="graph" transform="scale(1 1) rotate(0) translate(4 1073)">
<title>%3</title>
<polygon fill="white" stroke="transparent" points="-4,4 -4,-1073 1131.23,-1073 1131.23,4 -4,4"/>
<text text-anchor="middle" x="563.62" y="-1041" font-family="Times,serif" font-size="30.00">Dependencies</text>
<text text-anchor="middle" x="563.62" y="-1008" font-family="Times,serif" font-size="30.00"> </text>
<!-- :shared:feature:details -->
<g id="node1" class="node">
<title>:shared:feature:details</title>
<polygon fill="#b59aff" stroke="black" points="457.34,-995 278.34,-995 278.34,-959 457.34,-959 457.34,-995"/>
<text text-anchor="middle" x="367.84" y="-973.3" font-family="Times,serif" font-size="14.00">:shared:feature:details</text>
</g>
<!-- :test&#45;data -->
<g id="node2" class="node">
<title>:test&#45;data</title>
<ellipse fill="#b59aff" stroke="black" cx="680.84" cy="-566" rx="55.49" ry="18"/>
<text text-anchor="middle" x="680.84" y="-562.3" font-family="Times,serif" font-size="14.00">:test&#45;data</text>
</g>
<!-- :shared:feature:details&#45;&gt;:test&#45;data -->
<g id="edge1" class="edge">
<title>:shared:feature:details&#45;&gt;:test&#45;data</title>
<path fill="none" stroke="#ff9ab1" stroke-dasharray="1,5" d="M457.53,-971C550.03,-971 680.84,-971 680.84,-971 680.84,-971 680.84,-594.19 680.84,-594.19"/>
<polygon fill="#ff9ab1" stroke="#ff9ab1" points="684.34,-594.19 680.84,-584.19 677.34,-594.19 684.34,-594.19"/>
</g>
<!-- :ui:test:screenshot -->
<g id="node3" class="node">
<title>:ui:test:screenshot</title>
<ellipse fill="#9affb5" stroke="black" cx="96.84" cy="-703" rx="96.68" ry="18"/>
<text text-anchor="middle" x="96.84" y="-699.3" font-family="Times,serif" font-size="14.00">:ui:test:screenshot</text>
</g>
<!-- :shared:feature:details&#45;&gt;:ui:test:screenshot -->
<g id="edge2" class="edge">
<title>:shared:feature:details&#45;&gt;:ui:test:screenshot</title>
<path fill="none" stroke="#ff9ab1" stroke-dasharray="1,5" d="M278.08,-977C188.65,-977 64.56,-977 64.56,-977 64.56,-977 64.56,-730.14 64.56,-730.14"/>
<polygon fill="#ff9ab1" stroke="#ff9ab1" points="68.06,-730.14 64.56,-720.14 61.06,-730.14 68.06,-730.14"/>
</g>
<!-- :ui:common -->
<g id="node4" class="node">
<title>:ui:common</title>
<ellipse fill="#b59aff" stroke="black" cx="404.84" cy="-840" rx="64.19" ry="18"/>
<text text-anchor="middle" x="404.84" y="-836.3" font-family="Times,serif" font-size="14.00">:ui:common</text>
</g>
<!-- :shared:feature:details&#45;&gt;:ui:common -->
<g id="edge3" class="edge">
<title>:shared:feature:details&#45;&gt;:ui:common</title>
<path fill="none" stroke="black" stroke-dasharray="1,5" d="M398.92,-958.81C398.92,-958.81 398.92,-868.27 398.92,-868.27"/>
<polygon fill="black" stroke="black" points="402.42,-868.27 398.92,-858.27 395.42,-868.27 402.42,-868.27"/>
</g>
<!-- :shared:domain -->
<g id="node5" class="node">
<title>:shared:domain</title>
<ellipse fill="#b59aff" stroke="black" cx="385.84" cy="-18" rx="82.59" ry="18"/>
<text text-anchor="middle" x="385.84" y="-14.3" font-family="Times,serif" font-size="14.00">:shared:domain</text>
</g>
<!-- :shared:feature:details&#45;&gt;:shared:domain -->
<g id="edge4" class="edge">
<title>:shared:feature:details&#45;&gt;:shared:domain</title>
<path fill="none" stroke="black" stroke-dasharray="1,5" d="M330.14,-958.7C330.14,-958.7 330.14,-41.41 330.14,-41.41"/>
<polygon fill="black" stroke="black" points="333.64,-41.41 330.14,-31.41 326.64,-41.41 333.64,-41.41"/>
</g>
<!-- :core:logging:api -->
<g id="node6" class="node">
<title>:core:logging:api</title>
<ellipse fill="#b59aff" stroke="black" cx="1038.84" cy="-18" rx="88.28" ry="18"/>
<text text-anchor="middle" x="1038.84" y="-14.3" font-family="Times,serif" font-size="14.00">:core:logging:api</text>
</g>
<!-- :shared:feature:details&#45;&gt;:core:logging:api -->
<g id="edge5" class="edge">
<title>:shared:feature:details&#45;&gt;:core:logging:api</title>
<path fill="none" stroke="black" stroke-dasharray="1,5" d="M457.44,-983C655.63,-983 1113.73,-983 1113.73,-983 1113.73,-983 1113.73,-37.87 1113.73,-37.87"/>
<polygon fill="black" stroke="black" points="1117.23,-37.87 1113.73,-27.87 1110.23,-37.87 1117.23,-37.87"/>
</g>
<!-- :ui:image -->
<g id="node7" class="node">
<title>:ui:image</title>
<ellipse fill="#b59aff" stroke="black" cx="265.84" cy="-703" rx="53.89" ry="18"/>
<text text-anchor="middle" x="265.84" y="-699.3" font-family="Times,serif" font-size="14.00">:ui:image</text>
</g>
<!-- :shared:feature:details&#45;&gt;:ui:image -->
<g id="edge6" class="edge">
<title>:shared:feature:details&#45;&gt;:ui:image</title>
<path fill="none" stroke="black" stroke-dasharray="1,5" d="M292.16,-958.6C292.16,-958.6 292.16,-728.88 292.16,-728.88"/>
<polygon fill="black" stroke="black" points="295.66,-728.88 292.16,-718.88 288.66,-728.88 295.66,-728.88"/>
</g>
<!-- :test&#45;data&#45;&gt;:shared:domain -->
<g id="edge7" class="edge">
<title>:test&#45;data&#45;&gt;:shared:domain</title>
<path fill="none" stroke="black" stroke-dasharray="1,5" d="M628.72,-560C544.86,-560 389.3,-560 389.3,-560 389.3,-560 389.3,-46.03 389.3,-46.03"/>
<polygon fill="black" stroke="black" points="392.8,-46.03 389.3,-36.03 385.8,-46.03 392.8,-46.03"/>
</g>
<!-- :core:coroutines -->
<g id="node8" class="node">
<title>:core:coroutines</title>
<ellipse fill="#b59aff" stroke="black" cx="498.84" cy="-155" rx="85.29" ry="18"/>
<text text-anchor="middle" x="498.84" y="-151.3" font-family="Times,serif" font-size="14.00">:core:coroutines</text>
</g>
<!-- :test&#45;data&#45;&gt;:core:coroutines -->
<g id="edge8" class="edge">
<title>:test&#45;data&#45;&gt;:core:coroutines</title>
<path fill="none" stroke="black" stroke-dasharray="1,5" d="M639.32,-554C585.32,-554 497.84,-554 497.84,-554 497.84,-554 497.84,-183.18 497.84,-183.18"/>
<polygon fill="black" stroke="black" points="501.34,-183.18 497.84,-173.18 494.34,-183.18 501.34,-183.18"/>
</g>
<!-- :data:database -->
<g id="node9" class="node">
<title>:data:database</title>
<ellipse fill="#b59aff" stroke="black" cx="644.84" cy="-292" rx="79.09" ry="18"/>
<text text-anchor="middle" x="644.84" y="-288.3" font-family="Times,serif" font-size="14.00">:data:database</text>
</g>
<!-- :test&#45;data&#45;&gt;:data:database -->
<g id="edge9" class="edge">
<title>:test&#45;data&#45;&gt;:data:database</title>
<path fill="none" stroke="black" stroke-dasharray="1,5" d="M730.11,-557.8C730.11,-512.21 730.11,-292 730.11,-292 730.11,-292 729.52,-292 729.52,-292"/>
<polygon fill="black" stroke="black" points="734.25,-288.5 724.25,-292 734.25,-295.5 734.25,-288.5"/>
</g>
<!-- :data:musicbrainz -->
<g id="node10" class="node">
<title>:data:musicbrainz</title>
<ellipse fill="#b59aff" stroke="black" cx="771.84" cy="-155" rx="93.68" ry="18"/>
<text text-anchor="middle" x="771.84" y="-151.3" font-family="Times,serif" font-size="14.00">:data:musicbrainz</text>
</g>
<!-- :test&#45;data&#45;&gt;:data:musicbrainz -->
<g id="edge10" class="edge">
<title>:test&#45;data&#45;&gt;:data:musicbrainz</title>
<path fill="none" stroke="black" stroke-dasharray="1,5" d="M733.1,-559.87C733.1,-559.87 733.1,-181.7 733.1,-181.7"/>
<polygon fill="black" stroke="black" points="736.6,-181.7 733.1,-171.7 729.6,-181.7 736.6,-181.7"/>
</g>
<!-- :data:coverart -->
<g id="node11" class="node">
<title>:data:coverart</title>
<ellipse fill="#b59aff" stroke="black" cx="641.84" cy="-429" rx="76.09" ry="18"/>
<text text-anchor="middle" x="641.84" y="-425.3" font-family="Times,serif" font-size="14.00">:data:coverart</text>
</g>
<!-- :test&#45;data&#45;&gt;:data:coverart -->
<g id="edge11" class="edge">
<title>:test&#45;data&#45;&gt;:data:coverart</title>
<path fill="none" stroke="black" stroke-dasharray="1,5" d="M656.36,-549.75C656.36,-549.75 656.36,-456.97 656.36,-456.97"/>
<polygon fill="black" stroke="black" points="659.86,-456.97 656.36,-446.97 652.86,-456.97 659.86,-456.97"/>
</g>
<!-- :data:spotify -->
<g id="node12" class="node">
<title>:data:spotify</title>
<ellipse fill="#b59aff" stroke="black" cx="990.84" cy="-155" rx="68.79" ry="18"/>
<text text-anchor="middle" x="990.84" y="-151.3" font-family="Times,serif" font-size="14.00">:data:spotify</text>
</g>
<!-- :test&#45;data&#45;&gt;:data:spotify -->
<g id="edge12" class="edge">
<title>:test&#45;data&#45;&gt;:data:spotify</title>
<path fill="none" stroke="black" stroke-dasharray="1,5" d="M736.26,-566C825.43,-566 990.84,-566 990.84,-566 990.84,-566 990.84,-183.19 990.84,-183.19"/>
<polygon fill="black" stroke="black" points="994.34,-183.19 990.84,-173.19 987.34,-183.19 994.34,-183.19"/>
</g>
<!-- :ui:core -->
<g id="node13" class="node">
<title>:ui:core</title>
<ellipse fill="#b59aff" stroke="black" cx="198.84" cy="-566" rx="45.49" ry="18"/>
<text text-anchor="middle" x="198.84" y="-562.3" font-family="Times,serif" font-size="14.00">:ui:core</text>
</g>
<!-- :ui:test:screenshot&#45;&gt;:ui:core -->
<g id="edge13" class="edge">
<title>:ui:test:screenshot&#45;&gt;:ui:core</title>
<path fill="none" stroke="black" stroke-dasharray="1,5" d="M173.51,-691.79C173.51,-691.79 173.51,-591.05 173.51,-591.05"/>
<polygon fill="black" stroke="black" points="177.01,-591.05 173.51,-581.05 170.01,-591.05 177.01,-591.05"/>
</g>
<!-- :test:image -->
<g id="node14" class="node">
<title>:test:image</title>
<ellipse fill="#9affb5" stroke="black" cx="71.84" cy="-566" rx="63.09" ry="18"/>
<text text-anchor="middle" x="71.84" y="-562.3" font-family="Times,serif" font-size="14.00">:test:image</text>
</g>
<!-- :ui:test:screenshot&#45;&gt;:test:image -->
<g id="edge14" class="edge">
<title>:ui:test:screenshot&#45;&gt;:test:image</title>
<path fill="none" stroke="black" stroke-dasharray="1,5" d="M71.84,-685.37C71.84,-685.37 71.84,-594.44 71.84,-594.44"/>
<polygon fill="black" stroke="black" points="75.34,-594.44 71.84,-584.44 68.34,-594.44 75.34,-594.44"/>
</g>
<!-- :ui:common&#45;&gt;:test&#45;data -->
<g id="edge15" class="edge">
<title>:ui:common&#45;&gt;:test&#45;data</title>
<path fill="none" stroke="#ff9ab1" stroke-dasharray="1,5" d="M439.7,-824.48C439.7,-766.52 439.7,-566 439.7,-566 439.7,-566 615.52,-566 615.52,-566"/>
<polygon fill="#ff9ab1" stroke="#ff9ab1" points="615.52,-569.5 625.52,-566 615.52,-562.5 615.52,-569.5"/>
</g>
<!-- :ui:common&#45;&gt;:ui:test:screenshot -->
<g id="edge16" class="edge">
<title>:ui:common&#45;&gt;:ui:test:screenshot</title>
<path fill="none" stroke="#ff9ab1" stroke-dasharray="1,5" d="M343.99,-846C262.8,-846 129.12,-846 129.12,-846 129.12,-846 129.12,-730.25 129.12,-730.25"/>
<polygon fill="#ff9ab1" stroke="#ff9ab1" points="132.62,-730.25 129.12,-720.25 125.62,-730.25 132.62,-730.25"/>
</g>
<!-- :ui:common&#45;&gt;:shared:domain -->
<g id="edge18" class="edge">
<title>:ui:common&#45;&gt;:shared:domain</title>
<path fill="none" stroke="black" d="M364.9,-825.73C364.9,-825.73 364.9,-45.71 364.9,-45.71"/>
<polygon fill="black" stroke="black" points="368.4,-45.71 364.9,-35.71 361.4,-45.71 368.4,-45.71"/>
</g>
<!-- :ui:common&#45;&gt;:core:logging:api -->
<g id="edge22" class="edge">
<title>:ui:common&#45;&gt;:core:logging:api</title>
<path fill="none" stroke="black" stroke-dasharray="1,5" d="M465.64,-846C635.08,-846 1100.23,-846 1100.23,-846 1100.23,-846 1100.23,-41.01 1100.23,-41.01"/>
<polygon fill="black" stroke="black" points="1103.73,-41.01 1100.23,-31.01 1096.73,-41.01 1103.73,-41.01"/>
</g>
<!-- :ui:common&#45;&gt;:ui:image -->
<g id="edge23" class="edge">
<title>:ui:common&#45;&gt;:ui:image</title>
<path fill="none" stroke="black" stroke-dasharray="1,5" d="M343.91,-834C323.57,-834 305.97,-834 305.97,-834 305.97,-834 305.97,-725.09 305.97,-725.09"/>
<polygon fill="black" stroke="black" points="309.47,-725.09 305.97,-715.09 302.47,-725.09 309.47,-725.09"/>
</g>
<!-- :ui:common&#45;&gt;:core:coroutines -->
<g id="edge17" class="edge">
<title>:ui:common&#45;&gt;:core:coroutines</title>
<path fill="none" stroke="#ff9ab1" stroke-dasharray="1,5" d="M426.7,-823.07C426.7,-823.07 426.7,-174.81 426.7,-174.81"/>
<polygon fill="#ff9ab1" stroke="#ff9ab1" points="430.2,-174.81 426.7,-164.81 423.2,-174.82 430.2,-174.81"/>
</g>
<!-- :ui:common&#45;&gt;:data:musicbrainz -->
<g id="edge21" class="edge">
<title>:ui:common&#45;&gt;:data:musicbrainz</title>
<path fill="none" stroke="black" stroke-dasharray="1,5" d="M465.55,-834C581.33,-834 822.32,-834 822.32,-834 822.32,-834 822.32,-180.46 822.32,-180.46"/>
<polygon fill="black" stroke="black" points="825.82,-180.46 822.32,-170.46 818.82,-180.46 825.82,-180.46"/>
</g>
<!-- :ui:common&#45;&gt;:ui:core -->
<g id="edge19" class="edge">
<title>:ui:common&#45;&gt;:ui:core</title>
<path fill="none" stroke="black" d="M352.7,-829.4C352.7,-780.39 352.7,-578 352.7,-578 352.7,-578 242.99,-578 242.99,-578"/>
<polygon fill="black" stroke="black" points="242.99,-574.5 232.99,-578 242.99,-581.5 242.99,-574.5"/>
</g>
<!-- :data:repository -->
<g id="node15" class="node">
<title>:data:repository</title>
<ellipse fill="#b59aff" stroke="black" cx="537.84" cy="-703" rx="85.29" ry="18"/>
<text text-anchor="middle" x="537.84" y="-699.3" font-family="Times,serif" font-size="14.00">:data:repository</text>
</g>
<!-- :ui:common&#45;&gt;:data:repository -->
<g id="edge20" class="edge">
<title>:ui:common&#45;&gt;:data:repository</title>
<path fill="none" stroke="black" stroke-dasharray="1,5" d="M460.94,-831.01C460.94,-831.01 460.94,-720.81 460.94,-720.81"/>
<polygon fill="black" stroke="black" points="464.44,-720.81 460.94,-710.81 457.44,-720.81 464.44,-720.81"/>
</g>
<!-- :ui:image&#45;&gt;:shared:domain -->
<g id="edge24" class="edge">
<title>:ui:image&#45;&gt;:shared:domain</title>
<path fill="none" stroke="black" stroke-dasharray="1,5" d="M311.54,-693.32C311.54,-693.32 311.54,-35.95 311.54,-35.95"/>
<polygon fill="black" stroke="black" points="315.04,-35.95 311.54,-25.95 308.04,-35.95 315.04,-35.95"/>
</g>
<!-- :ui:image&#45;&gt;:ui:core -->
<g id="edge25" class="edge">
<title>:ui:image&#45;&gt;:ui:core</title>
<path fill="none" stroke="black" stroke-dasharray="1,5" d="M228.12,-690.11C228.12,-690.11 228.12,-590.18 228.12,-590.18"/>
<polygon fill="black" stroke="black" points="231.62,-590.18 228.12,-580.18 224.62,-590.18 231.62,-590.18"/>
</g>
<!-- :data:database&#45;&gt;:shared:domain -->
<g id="edge26" class="edge">
<title>:data:database&#45;&gt;:shared:domain</title>
<path fill="none" stroke="black" stroke-dasharray="1,5" d="M631.12,-274.27C631.12,-215.08 631.12,-28 631.12,-28 631.12,-28 464.49,-28 464.49,-28"/>
<polygon fill="black" stroke="black" points="464.49,-24.5 454.49,-28 464.49,-31.5 464.49,-24.5"/>
</g>
<!-- :data:database&#45;&gt;:core:coroutines -->
<g id="edge27" class="edge">
<title>:data:database&#45;&gt;:core:coroutines</title>
<path fill="none" stroke="black" stroke-dasharray="1,5" d="M574.77,-283.43C574.77,-283.43 574.77,-173.22 574.77,-173.22"/>
<polygon fill="black" stroke="black" points="578.27,-173.22 574.77,-163.22 571.27,-173.22 578.27,-173.22"/>
</g>
<!-- :data:database&#45;&gt;:data:musicbrainz -->
<g id="edge28" class="edge">
<title>:data:database&#45;&gt;:data:musicbrainz</title>
<path fill="none" stroke="black" stroke-dasharray="1,5" d="M701.19,-279.11C701.19,-279.11 701.19,-177.16 701.19,-177.16"/>
<polygon fill="black" stroke="black" points="704.69,-177.16 701.19,-167.16 697.69,-177.16 704.69,-177.16"/>
</g>
<!-- :data:musicbrainz&#45;&gt;:shared:domain -->
<g id="edge29" class="edge">
<title>:data:musicbrainz&#45;&gt;:shared:domain</title>
<path fill="none" stroke="black" stroke-dasharray="1,5" d="M740.64,-138.03C740.64,-101.97 740.64,-21 740.64,-21 740.64,-21 477.24,-21 477.24,-21"/>
<polygon fill="black" stroke="black" points="477.24,-17.5 467.24,-21 477.24,-24.5 477.24,-17.5"/>
</g>
<!-- :data:musicbrainz&#45;&gt;:core:logging:api -->
<g id="edge30" class="edge">
<title>:data:musicbrainz&#45;&gt;:core:logging:api</title>
<path fill="none" stroke="black" stroke-dasharray="1,5" d="M803.04,-137.99C803.04,-100.49 803.04,-14 803.04,-14 803.04,-14 942.38,-14 942.38,-14"/>
<polygon fill="black" stroke="black" points="942.38,-17.5 952.38,-14 942.38,-10.5 942.38,-17.5"/>
</g>
<!-- :data:coverart&#45;&gt;:test&#45;data -->
<g id="edge34" class="edge">
<title>:data:coverart&#45;&gt;:test&#45;data</title>
<path fill="none" stroke="#ff9ab1" stroke-dasharray="1,5" d="M687.12,-443.66C687.12,-443.66 687.12,-537.99 687.12,-537.99"/>
<polygon fill="#ff9ab1" stroke="#ff9ab1" points="683.62,-537.99 687.12,-547.99 690.62,-537.99 683.62,-537.99"/>
</g>
<!-- :data:coverart&#45;&gt;:shared:domain -->
<g id="edge31" class="edge">
<title>:data:coverart&#45;&gt;:shared:domain</title>
<path fill="none" stroke="black" stroke-dasharray="1,5" d="M570.06,-435C499.24,-435 401.5,-435 401.5,-435 401.5,-435 401.5,-45.92 401.5,-45.92"/>
<polygon fill="black" stroke="black" points="405,-45.92 401.5,-35.92 398,-45.92 405,-45.92"/>
</g>
<!-- :data:coverart&#45;&gt;:core:logging:api -->
<g id="edge32" class="edge">
<title>:data:coverart&#45;&gt;:core:logging:api</title>
<path fill="none" stroke="black" stroke-dasharray="1,5" d="M713.56,-435C836.23,-435 1073.23,-435 1073.23,-435 1073.23,-435 1073.23,-44.6 1073.23,-44.6"/>
<polygon fill="black" stroke="black" points="1076.74,-44.6 1073.23,-34.6 1069.74,-44.6 1076.74,-44.6"/>
</g>
<!-- :data:coverart&#45;&gt;:core:coroutines -->
<g id="edge33" class="edge">
<title>:data:coverart&#45;&gt;:core:coroutines</title>
<path fill="none" stroke="black" stroke-dasharray="1,5" d="M569.99,-423C554.66,-423 542.98,-423 542.98,-423 542.98,-423 542.98,-180.57 542.98,-180.57"/>
<polygon fill="black" stroke="black" points="546.48,-180.57 542.98,-170.57 539.48,-180.57 546.48,-180.57"/>
</g>
<!-- :data:coverart&#45;&gt;:data:database -->
<g id="edge36" class="edge">
<title>:data:coverart&#45;&gt;:data:database</title>
<path fill="none" stroke="#ff9ab1" stroke-dasharray="1,5" d="M641.84,-410.81C641.84,-410.81 641.84,-320.27 641.84,-320.27"/>
<polygon fill="#ff9ab1" stroke="#ff9ab1" points="645.34,-320.27 641.84,-310.27 638.34,-320.27 645.34,-320.27"/>
</g>
<!-- :data:coverart&#45;&gt;:data:musicbrainz -->
<g id="edge35" class="edge">
<title>:data:coverart&#45;&gt;:data:musicbrainz</title>
<path fill="none" stroke="#ff9ab1" stroke-dasharray="1,5" d="M713.8,-423C721.79,-423 727.12,-423 727.12,-423 727.12,-423 727.12,-180.96 727.12,-180.96"/>
<polygon fill="#ff9ab1" stroke="#ff9ab1" points="730.62,-180.96 727.12,-170.96 723.62,-180.96 730.62,-180.96"/>
</g>
<!-- :data:spotify&#45;&gt;:shared:domain -->
<g id="edge37" class="edge">
<title>:data:spotify&#45;&gt;:shared:domain</title>
<path fill="none" stroke="black" stroke-dasharray="1,5" d="M936.2,-143.88C936.2,-109.46 936.2,-7 936.2,-7 936.2,-7 461.41,-7 461.41,-7"/>
<polygon fill="black" stroke="black" points="461.41,-3.5 451.41,-7 461.41,-10.5 461.41,-3.5"/>
</g>
<!-- :data:spotify&#45;&gt;:core:logging:api -->
<g id="edge38" class="edge">
<title>:data:spotify&#45;&gt;:core:logging:api</title>
<path fill="none" stroke="black" stroke-dasharray="1,5" d="M1005.09,-137.37C1005.09,-137.37 1005.09,-44.7 1005.09,-44.7"/>
<polygon fill="black" stroke="black" points="1008.59,-44.7 1005.09,-34.7 1001.59,-44.7 1008.59,-44.7"/>
</g>
<!-- :shared:strings -->
<g id="node16" class="node">
<title>:shared:strings</title>
<ellipse fill="#b59aff" stroke="black" cx="162.84" cy="-429" rx="81.49" ry="18"/>
<text text-anchor="middle" x="162.84" y="-425.3" font-family="Times,serif" font-size="14.00">:shared:strings</text>
</g>
<!-- :ui:core&#45;&gt;:shared:strings -->
<g id="edge39" class="edge">
<title>:ui:core&#45;&gt;:shared:strings</title>
<path fill="none" stroke="black" d="M198.71,-547.81C198.71,-547.81 198.71,-455.55 198.71,-455.55"/>
<polygon fill="black" stroke="black" points="202.21,-455.55 198.71,-445.55 195.21,-455.55 202.21,-455.55"/>
</g>
<!-- :data:repository&#45;&gt;:test&#45;data -->
<g id="edge45" class="edge">
<title>:data:repository&#45;&gt;:test&#45;data</title>
<path fill="none" stroke="#ff9ab1" stroke-dasharray="1,5" d="M603.92,-691.37C603.92,-659.31 603.92,-572 603.92,-572 603.92,-572 618.68,-572 618.68,-572"/>
<polygon fill="#ff9ab1" stroke="#ff9ab1" points="618.68,-575.5 628.68,-572 618.68,-568.5 618.68,-575.5"/>
</g>
<!-- :data:repository&#45;&gt;:shared:domain -->
<g id="edge40" class="edge">
<title>:data:repository&#45;&gt;:shared:domain</title>
<path fill="none" stroke="black" stroke-dasharray="1,5" d="M452.29,-703C413.9,-703 377.1,-703 377.1,-703 377.1,-703 377.1,-45.97 377.1,-45.97"/>
<polygon fill="black" stroke="black" points="380.6,-45.97 377.1,-35.97 373.6,-45.97 380.6,-45.97"/>
</g>
<!-- :data:repository&#45;&gt;:core:logging:api -->
<g id="edge44" class="edge">
<title>:data:repository&#45;&gt;:core:logging:api</title>
<path fill="none" stroke="black" stroke-dasharray="1,5" d="M618.24,-709C770.7,-709 1086.73,-709 1086.73,-709 1086.73,-709 1086.73,-43.4 1086.73,-43.4"/>
<polygon fill="black" stroke="black" points="1090.23,-43.4 1086.73,-33.4 1083.23,-43.4 1090.23,-43.4"/>
</g>
<!-- :data:repository&#45;&gt;:core:coroutines -->
<g id="edge46" class="edge">
<title>:data:repository&#45;&gt;:core:coroutines</title>
<path fill="none" stroke="#ff9ab1" stroke-dasharray="1,5" d="M475.27,-690.79C475.27,-690.79 475.27,-182.41 475.27,-182.41"/>
<polygon fill="#ff9ab1" stroke="#ff9ab1" points="478.77,-182.41 475.27,-172.41 471.77,-182.41 478.77,-182.41"/>
</g>
<!-- :data:repository&#45;&gt;:data:database -->
<g id="edge41" class="edge">
<title>:data:repository&#45;&gt;:data:database</title>
<path fill="none" stroke="black" stroke-dasharray="1,5" d="M520.41,-685.34C520.41,-606.67 520.41,-292 520.41,-292 520.41,-292 555.33,-292 555.33,-292"/>
<polygon fill="black" stroke="black" points="555.33,-295.5 565.33,-292 555.33,-288.5 555.33,-295.5"/>
</g>
<!-- :data:repository&#45;&gt;:data:musicbrainz -->
<g id="edge42" class="edge">
<title>:data:repository&#45;&gt;:data:musicbrainz</title>
<path fill="none" stroke="black" stroke-dasharray="1,5" d="M618.21,-697C688.42,-697 779.2,-697 779.2,-697 779.2,-697 779.2,-183.03 779.2,-183.03"/>
<polygon fill="black" stroke="black" points="782.7,-183.03 779.2,-173.03 775.7,-183.03 782.7,-183.03"/>
</g>
<!-- :data:repository&#45;&gt;:data:coverart -->
<g id="edge43" class="edge">
<title>:data:repository&#45;&gt;:data:coverart</title>
<path fill="none" stroke="black" stroke-dasharray="1,5" d="M584.86,-687.88C584.86,-687.88 584.86,-451.19 584.86,-451.19"/>
<polygon fill="black" stroke="black" points="588.36,-451.19 584.86,-441.19 581.36,-451.19 588.36,-451.19"/>
</g>
</g>
</svg>
