<?xml version="1.0" encoding="UTF-8" standalone="no"?>
<!DOCTYPE svg PUBLIC "-//W3C//DTD SVG 1.1//EN"
 "http://www.w3.org/Graphics/SVG/1.1/DTD/svg11.dtd">
<!-- Generated by graphviz version 2.43.0 (0)
 -->
<!-- Title: %3 Pages: 1 -->
<svg width="963pt" height="1077pt"
 viewBox="0.00 0.00 962.74 1077.00" xmlns="http://www.w3.org/2000/svg" xmlns:xlink="http://www.w3.org/1999/xlink">
<g id="graph0" class="graph" transform="scale(1 1) rotate(0) translate(4 1073)">
<title>%3</title>
<polygon fill="white" stroke="transparent" points="-4,4 -4,-1073 958.74,-1073 958.74,4 -4,4"/>
<text text-anchor="middle" x="477.37" y="-1041" font-family="Times,serif" font-size="30.00">Dependencies</text>
<text text-anchor="middle" x="477.37" y="-1008" font-family="Times,serif" font-size="30.00"> </text>
<!-- :shared:feature:details -->
<g id="node1" class="node">
<title>:shared:feature:details</title>
<polygon fill="#b59aff" stroke="black" points="735.39,-995 556.39,-995 556.39,-959 735.39,-959 735.39,-995"/>
<text text-anchor="middle" x="645.89" y="-973.3" font-family="Times,serif" font-size="14.00">:shared:feature:details</text>
</g>
<!-- :test&#45;data -->
<g id="node2" class="node">
<title>:test&#45;data</title>
<ellipse fill="#b59aff" stroke="black" cx="434.89" cy="-703" rx="55.49" ry="18"/>
<text text-anchor="middle" x="434.89" y="-699.3" font-family="Times,serif" font-size="14.00">:test&#45;data</text>
</g>
<!-- :shared:feature:details&#45;&gt;:test&#45;data -->
<g id="edge1" class="edge">
<title>:shared:feature:details&#45;&gt;:test&#45;data</title>
<path fill="none" stroke="#ff9ab1" stroke-dasharray="1,5" d="M561.9,-958.85C561.9,-899.21 561.9,-713 561.9,-713 561.9,-713 491.11,-713 491.11,-713"/>
<polygon fill="#ff9ab1" stroke="#ff9ab1" points="491.11,-709.5 481.11,-713 491.11,-716.5 491.11,-709.5"/>
</g>
<!-- :ui:test:screenshot -->
<g id="node3" class="node">
<title>:ui:test:screenshot</title>
<ellipse fill="#9affb5" stroke="black" cx="857.89" cy="-703" rx="96.68" ry="18"/>
<text text-anchor="middle" x="857.89" y="-699.3" font-family="Times,serif" font-size="14.00">:ui:test:screenshot</text>
</g>
<!-- :shared:feature:details&#45;&gt;:ui:test:screenshot -->
<g id="edge2" class="edge">
<title>:shared:feature:details&#45;&gt;:ui:test:screenshot</title>
<path fill="none" stroke="#ff9ab1" stroke-dasharray="1,5" d="M735.49,-977C793.35,-977 857.89,-977 857.89,-977 857.89,-977 857.89,-731.4 857.89,-731.4"/>
<polygon fill="#ff9ab1" stroke="#ff9ab1" points="861.39,-731.4 857.89,-721.4 854.39,-731.4 861.39,-731.4"/>
</g>
<!-- :ui:common -->
<g id="node4" class="node">
<title>:ui:common</title>
<ellipse fill="#b59aff" stroke="black" cx="691.89" cy="-840" rx="64.19" ry="18"/>
<text text-anchor="middle" x="691.89" y="-836.3" font-family="Times,serif" font-size="14.00">:ui:common</text>
</g>
<!-- :shared:feature:details&#45;&gt;:ui:common -->
<g id="edge3" class="edge">
<title>:shared:feature:details&#45;&gt;:ui:common</title>
<path fill="none" stroke="black" stroke-dasharray="1,5" d="M681.47,-958.81C681.47,-958.81 681.47,-867.83 681.47,-867.83"/>
<polygon fill="black" stroke="black" points="684.97,-867.83 681.47,-857.83 677.97,-867.83 684.97,-867.83"/>
</g>
<!-- :shared:domain -->
<g id="node5" class="node">
<title>:shared:domain</title>
<ellipse fill="#b59aff" stroke="black" cx="506.89" cy="-155" rx="82.59" ry="18"/>
<text text-anchor="middle" x="506.89" y="-151.3" font-family="Times,serif" font-size="14.00">:shared:domain</text>
</g>
<!-- :shared:feature:details&#45;&gt;:shared:domain -->
<g id="edge4" class="edge">
<title>:shared:feature:details&#45;&gt;:shared:domain</title>
<path fill="none" stroke="black" stroke-dasharray="1,5" d="M572.92,-958.68C572.92,-958.68 572.92,-176.05 572.92,-176.05"/>
<polygon fill="black" stroke="black" points="576.42,-176.05 572.92,-166.05 569.42,-176.05 576.42,-176.05"/>
</g>
<!-- :core:logging:api -->
<g id="node6" class="node">
<title>:core:logging:api</title>
<ellipse fill="#b59aff" stroke="black" cx="134.89" cy="-155" rx="88.28" ry="18"/>
<text text-anchor="middle" x="134.89" y="-151.3" font-family="Times,serif" font-size="14.00">:core:logging:api</text>
</g>
<!-- :shared:feature:details&#45;&gt;:core:logging:api -->
<g id="edge5" class="edge">
<title>:shared:feature:details&#45;&gt;:core:logging:api</title>
<path fill="none" stroke="black" stroke-dasharray="1,5" d="M567.41,-958.87C567.41,-856.95 567.41,-360 567.41,-360 567.41,-360 200.79,-360 200.79,-360 200.79,-360 200.79,-177.21 200.79,-177.21"/>
<polygon fill="black" stroke="black" points="204.29,-177.21 200.79,-167.21 197.29,-177.21 204.29,-177.21"/>
</g>
<!-- :ui:image -->
<g id="node7" class="node">
<title>:ui:image</title>
<ellipse fill="#b59aff" stroke="black" cx="650.89" cy="-703" rx="53.89" ry="18"/>
<text text-anchor="middle" x="650.89" y="-699.3" font-family="Times,serif" font-size="14.00">:ui:image</text>
</g>
<!-- :shared:feature:details&#45;&gt;:ui:image -->
<g id="edge6" class="edge">
<title>:shared:feature:details&#45;&gt;:ui:image</title>
<path fill="none" stroke="black" stroke-dasharray="1,5" d="M612.25,-958.6C612.25,-958.6 612.25,-725.67 612.25,-725.67"/>
<polygon fill="black" stroke="black" points="615.75,-725.67 612.25,-715.67 608.75,-725.67 615.75,-725.67"/>
</g>
<!-- :test&#45;data&#45;&gt;:shared:domain -->
<g id="edge7" class="edge">
<title>:test&#45;data&#45;&gt;:shared:domain</title>
<path fill="none" stroke="black" stroke-dasharray="1,5" d="M478.64,-692C505.69,-692 535.29,-692 535.29,-692 535.29,-692 535.29,-181.96 535.29,-181.96"/>
<polygon fill="black" stroke="black" points="538.79,-181.96 535.29,-171.96 531.79,-181.96 538.79,-181.96"/>
</g>
<!-- :core:coroutines -->
<g id="node8" class="node">
<title>:core:coroutines</title>
<ellipse fill="#b59aff" stroke="black" cx="395.89" cy="-18" rx="85.29" ry="18"/>
<text text-anchor="middle" x="395.89" y="-14.3" font-family="Times,serif" font-size="14.00">:core:coroutines</text>
</g>
<!-- :test&#45;data&#45;&gt;:core:coroutines -->
<g id="edge8" class="edge">
<title>:test&#45;data&#45;&gt;:core:coroutines</title>
<path fill="none" stroke="black" stroke-dasharray="1,5" d="M489.38,-706C534.74,-706 591.94,-706 591.94,-706 591.94,-706 591.94,-24 591.94,-24 591.94,-24 486.2,-24 486.2,-24"/>
<polygon fill="black" stroke="black" points="486.2,-20.5 476.2,-24 486.2,-27.5 486.2,-20.5"/>
</g>
<!-- :data:database -->
<g id="node9" class="node">
<title>:data:database</title>
<ellipse fill="#b59aff" stroke="black" cx="434.89" cy="-429" rx="79.09" ry="18"/>
<text text-anchor="middle" x="434.89" y="-425.3" font-family="Times,serif" font-size="14.00">:data:database</text>
</g>
<!-- :test&#45;data&#45;&gt;:data:database -->
<g id="edge9" class="edge">
<title>:test&#45;data&#45;&gt;:data:database</title>
<path fill="none" stroke="black" stroke-dasharray="1,5" d="M462.52,-687.08C462.52,-687.08 462.52,-456 462.52,-456"/>
<polygon fill="black" stroke="black" points="466.02,-456 462.52,-446 459.02,-456 466.02,-456"/>
</g>
<!-- :data:musicbrainz -->
<g id="node10" class="node">
<title>:data:musicbrainz</title>
<ellipse fill="#b59aff" stroke="black" cx="343.89" cy="-292" rx="93.68" ry="18"/>
<text text-anchor="middle" x="343.89" y="-288.3" font-family="Times,serif" font-size="14.00">:data:musicbrainz</text>
</g>
<!-- :test&#45;data&#45;&gt;:data:musicbrainz -->
<g id="edge10" class="edge">
<title>:test&#45;data&#45;&gt;:data:musicbrainz</title>
<path fill="none" stroke="black" stroke-dasharray="1,5" d="M382.59,-697C355.39,-697 327.77,-697 327.77,-697 327.77,-697 327.77,-319.92 327.77,-319.92"/>
<polygon fill="black" stroke="black" points="331.27,-319.92 327.77,-309.92 324.27,-319.92 331.27,-319.92"/>
</g>
<!-- :data:coverart -->
<g id="node11" class="node">
<title>:data:coverart</title>
<ellipse fill="#b59aff" stroke="black" cx="223.89" cy="-566" rx="76.09" ry="18"/>
<text text-anchor="middle" x="223.89" y="-562.3" font-family="Times,serif" font-size="14.00">:data:coverart</text>
</g>
<!-- :test&#45;data&#45;&gt;:data:coverart -->
<g id="edge11" class="edge">
<title>:test&#45;data&#45;&gt;:data:coverart</title>
<path fill="none" stroke="black" stroke-dasharray="1,5" d="M407.27,-687.3C407.27,-653.12 407.27,-575 407.27,-575 407.27,-575 299.84,-575 299.84,-575"/>
<polygon fill="black" stroke="black" points="299.84,-571.5 289.84,-575 299.84,-578.5 299.84,-571.5"/>
</g>
<!-- :data:spotify -->
<g id="node12" class="node">
<title>:data:spotify</title>
<ellipse fill="#b59aff" stroke="black" cx="86.89" cy="-292" rx="68.79" ry="18"/>
<text text-anchor="middle" x="86.89" y="-288.3" font-family="Times,serif" font-size="14.00">:data:spotify</text>
</g>
<!-- :test&#45;data&#45;&gt;:data:spotify -->
<g id="edge12" class="edge">
<title>:test&#45;data&#45;&gt;:data:spotify</title>
<path fill="none" stroke="black" stroke-dasharray="1,5" d="M382.58,-709C284.53,-709 82.93,-709 82.93,-709 82.93,-709 82.93,-320.19 82.93,-320.19"/>
<polygon fill="black" stroke="black" points="86.43,-320.19 82.93,-310.19 79.43,-320.19 86.43,-320.19"/>
</g>
<!-- :ui:core -->
<g id="node13" class="node">
<title>:ui:core</title>
<ellipse fill="#b59aff" stroke="black" cx="732.89" cy="-566" rx="45.49" ry="18"/>
<text text-anchor="middle" x="732.89" y="-562.3" font-family="Times,serif" font-size="14.00">:ui:core</text>
</g>
<!-- :ui:test:screenshot&#45;&gt;:ui:core -->
<g id="edge13" class="edge">
<title>:ui:test:screenshot&#45;&gt;:ui:core</title>
<path fill="none" stroke="black" stroke-dasharray="1,5" d="M769.72,-695.24C769.72,-695.24 769.72,-586.58 769.72,-586.58"/>
<polygon fill="black" stroke="black" points="773.22,-586.58 769.72,-576.58 766.22,-586.58 773.22,-586.58"/>
</g>
<!-- :test:image -->
<g id="node14" class="node">
<title>:test:image</title>
<ellipse fill="#9affb5" stroke="black" cx="859.89" cy="-566" rx="63.09" ry="18"/>
<text text-anchor="middle" x="859.89" y="-562.3" font-family="Times,serif" font-size="14.00">:test:image</text>
</g>
<!-- :ui:test:screenshot&#45;&gt;:test:image -->
<g id="edge14" class="edge">
<title>:ui:test:screenshot&#45;&gt;:test:image</title>
<path fill="none" stroke="black" stroke-dasharray="1,5" d="M859.89,-684.81C859.89,-684.81 859.89,-594.27 859.89,-594.27"/>
<polygon fill="black" stroke="black" points="863.39,-594.27 859.89,-584.27 856.39,-594.27 863.39,-594.27"/>
</g>
<!-- :ui:common&#45;&gt;:test&#45;data -->
<g id="edge15" class="edge">
<title>:ui:common&#45;&gt;:test&#45;data</title>
<path fill="none" stroke="#ff9ab1" stroke-dasharray="1,5" d="M628.37,-843C552.26,-843 434.89,-843 434.89,-843 434.89,-843 434.89,-731.02 434.89,-731.02"/>
<polygon fill="#ff9ab1" stroke="#ff9ab1" points="438.39,-731.02 434.89,-721.02 431.39,-731.02 438.39,-731.02"/>
</g>
<!-- :ui:common&#45;&gt;:ui:test:screenshot -->
<g id="edge16" class="edge">
<title>:ui:common&#45;&gt;:ui:test:screenshot</title>
<path fill="none" stroke="#ff9ab1" stroke-dasharray="1,5" d="M739.11,-827.36C739.11,-793.44 739.11,-703 739.11,-703 739.11,-703 750.89,-703 750.89,-703"/>
<polygon fill="#ff9ab1" stroke="#ff9ab1" points="750.89,-706.5 760.89,-703 750.89,-699.5 750.89,-706.5"/>
</g>
<!-- :ui:common&#45;&gt;:shared:domain -->
<g id="edge18" class="edge">
<title>:ui:common&#45;&gt;:shared:domain</title>
<path fill="none" stroke="black" d="M628.85,-836C602.74,-836 578.42,-836 578.42,-836 578.42,-836 578.42,-174.11 578.42,-174.11"/>
<polygon fill="black" stroke="black" points="581.92,-174.11 578.42,-164.11 574.92,-174.11 581.92,-174.11"/>
</g>
<!-- :ui:common&#45;&gt;:core:logging:api -->
<g id="edge20" class="edge">
<title>:ui:common&#45;&gt;:core:logging:api</title>
<path fill="none" stroke="black" stroke-dasharray="1,5" d="M638.18,-850C475.61,-850 0,-850 0,-850 0,-850 0,-155 0,-155 0,-155 36.42,-155 36.42,-155"/>
<polygon fill="black" stroke="black" points="36.42,-158.5 46.42,-155 36.42,-151.5 36.42,-158.5"/>
</g>
<!-- :ui:common&#45;&gt;:ui:image -->
<g id="edge21" class="edge">
<title>:ui:common&#45;&gt;:ui:image</title>
<path fill="none" stroke="black" stroke-dasharray="1,5" d="M666.19,-823.47C666.19,-823.47 666.19,-730.45 666.19,-730.45"/>
<polygon fill="black" stroke="black" points="669.69,-730.45 666.19,-720.45 662.69,-730.45 669.69,-730.45"/>
</g>
<!-- :ui:common&#45;&gt;:core:coroutines -->
<g id="edge17" class="edge">
<title>:ui:common&#45;&gt;:core:coroutines</title>
<path fill="none" stroke="#ff9ab1" stroke-dasharray="1,5" d="M640.89,-829C617.31,-829 594.44,-829 594.44,-829 594.44,-829 594.44,-12 594.44,-12 594.44,-12 486.37,-12 486.37,-12"/>
<polygon fill="#ff9ab1" stroke="#ff9ab1" points="486.37,-8.5 476.37,-12 486.37,-15.5 486.37,-8.5"/>
</g>
<!-- :ui:common&#45;&gt;:ui:core -->
<g id="edge19" class="edge">
<title>:ui:common&#45;&gt;:ui:core</title>
<path fill="none" stroke="black" d="M721.97,-824.08C721.97,-824.08 721.97,-593.71 721.97,-593.71"/>
<polygon fill="black" stroke="black" points="725.47,-593.71 721.97,-583.71 718.47,-593.72 725.47,-593.71"/>
</g>
<!-- :core:logging:api&#45;&gt;:core:coroutines -->
<g id="edge22" class="edge">
<title>:core:logging:api&#45;&gt;:core:coroutines</title>
<path fill="none" stroke="black" d="M204.88,-144C267.21,-144 348.62,-144 348.62,-144 348.62,-144 348.62,-43.45 348.62,-43.45"/>
<polygon fill="black" stroke="black" points="352.12,-43.45 348.62,-33.45 345.12,-43.45 352.12,-43.45"/>
</g>
<!-- :ui:image&#45;&gt;:shared:domain -->
<g id="edge23" class="edge">
<title>:ui:image&#45;&gt;:shared:domain</title>
<path fill="none" stroke="black" stroke-dasharray="1,5" d="M598.13,-699C589.83,-699 583.93,-699 583.93,-699 583.93,-699 583.93,-171.49 583.93,-171.49"/>
<polygon fill="black" stroke="black" points="587.43,-171.49 583.93,-161.49 580.43,-171.49 587.43,-171.49"/>
</g>
<!-- :ui:image&#45;&gt;:ui:core -->
<g id="edge24" class="edge">
<title>:ui:image&#45;&gt;:ui:core</title>
<path fill="none" stroke="black" stroke-dasharray="1,5" d="M696.12,-693.15C696.12,-693.15 696.12,-586.89 696.12,-586.89"/>
<polygon fill="black" stroke="black" points="699.62,-586.89 696.12,-576.89 692.62,-586.89 699.62,-586.89"/>
</g>
<!-- :data:database&#45;&gt;:shared:domain -->
<g id="edge25" class="edge">
<title>:data:database&#45;&gt;:shared:domain</title>
<path fill="none" stroke="black" stroke-dasharray="1,5" d="M488.62,-415.41C488.62,-415.41 488.62,-182.81 488.62,-182.81"/>
<polygon fill="black" stroke="black" points="492.12,-182.81 488.62,-172.81 485.12,-182.81 492.12,-182.81"/>
</g>
<!-- :data:database&#45;&gt;:core:coroutines -->
<g id="edge26" class="edge">
<title>:data:database&#45;&gt;:core:coroutines</title>
<path fill="none" stroke="black" stroke-dasharray="1,5" d="M463.05,-412.14C463.05,-362.94 463.05,-223 463.05,-223 463.05,-223 386.48,-223 386.48,-223 386.48,-223 386.48,-46.19 386.48,-46.19"/>
<polygon fill="black" stroke="black" points="389.98,-46.19 386.48,-36.19 382.98,-46.19 389.98,-46.19"/>
</g>
<!-- :data:database&#45;&gt;:data:musicbrainz -->
<g id="edge27" class="edge">
<title>:data:database&#45;&gt;:data:musicbrainz</title>
<path fill="none" stroke="black" stroke-dasharray="1,5" d="M396.54,-413.02C396.54,-413.02 396.54,-317.05 396.54,-317.05"/>
<polygon fill="black" stroke="black" points="400.04,-317.05 396.54,-307.05 393.04,-317.05 400.04,-317.05"/>
</g>
<!-- :data:musicbrainz&#45;&gt;:shared:domain -->
<g id="edge28" class="edge">
<title>:data:musicbrainz&#45;&gt;:shared:domain</title>
<path fill="none" stroke="black" stroke-dasharray="1,5" d="M430.92,-285.02C430.92,-285.02 430.92,-172.13 430.92,-172.13"/>
<polygon fill="black" stroke="black" points="434.42,-172.13 430.92,-162.13 427.42,-172.13 434.42,-172.13"/>
</g>
<!-- :data:musicbrainz&#45;&gt;:core:logging:api -->
<g id="edge29" class="edge">
<title>:data:musicbrainz&#45;&gt;:core:logging:api</title>
<path fill="none" stroke="black" stroke-dasharray="1,5" d="M280.53,-278.41C280.53,-245.65 280.53,-165 280.53,-165 280.53,-165 218.56,-165 218.56,-165"/>
<polygon fill="black" stroke="black" points="218.56,-161.5 208.56,-165 218.56,-168.5 218.56,-161.5"/>
</g>
<!-- :data:coverart&#45;&gt;:test&#45;data -->
<g id="edge33" class="edge">
<title>:data:coverart&#45;&gt;:test&#45;data</title>
<path fill="none" stroke="#ff9ab1" stroke-dasharray="1,5" d="M300.07,-566C360.51,-566 434.89,-566 434.89,-566 434.89,-566 434.89,-674.81 434.89,-674.81"/>
<polygon fill="#ff9ab1" stroke="#ff9ab1" points="431.39,-674.81 434.89,-684.81 438.39,-674.81 431.39,-674.81"/>
</g>
<!-- :data:coverart&#45;&gt;:shared:domain -->
<g id="edge30" class="edge">
<title>:data:coverart&#45;&gt;:shared:domain</title>
<path fill="none" stroke="black" stroke-dasharray="1,5" d="M243.55,-548.47C243.55,-470.38 243.55,-158 243.55,-158 243.55,-158 415.37,-158 415.37,-158"/>
<polygon fill="black" stroke="black" points="415.37,-161.5 425.37,-158 415.37,-154.5 415.37,-161.5"/>
</g>
<!-- :data:coverart&#45;&gt;:core:logging:api -->
<g id="edge31" class="edge">
<title>:data:coverart&#45;&gt;:core:logging:api</title>
<path fill="none" stroke="black" stroke-dasharray="1,5" d="M178.29,-551.37C178.29,-551.37 178.29,-180.76 178.29,-180.76"/>
<polygon fill="black" stroke="black" points="181.79,-180.76 178.29,-170.76 174.79,-180.76 181.79,-180.76"/>
</g>
<!-- :data:coverart&#45;&gt;:core:coroutines -->
<g id="edge32" class="edge">
<title>:data:coverart&#45;&gt;:core:coroutines</title>
<path fill="none" stroke="black" stroke-dasharray="1,5" d="M230.04,-547.77C230.04,-452.68 230.04,-18 230.04,-18 230.04,-18 300.54,-18 300.54,-18"/>
<polygon fill="black" stroke="black" points="300.54,-21.5 310.54,-18 300.54,-14.5 300.54,-21.5"/>
</g>
<!-- :data:coverart&#45;&gt;:data:database -->
<g id="edge35" class="edge">
<title>:data:coverart&#45;&gt;:data:database</title>
<path fill="none" stroke="#ff9ab1" stroke-dasharray="1,5" d="M289.87,-557C327.65,-557 367.62,-557 367.62,-557 367.62,-557 367.62,-448.62 367.62,-448.62"/>
<polygon fill="#ff9ab1" stroke="#ff9ab1" points="371.12,-448.62 367.62,-438.62 364.12,-448.62 371.12,-448.62"/>
</g>
<!-- :data:coverart&#45;&gt;:data:musicbrainz -->
<g id="edge34" class="edge">
<title>:data:coverart&#45;&gt;:data:musicbrainz</title>
<path fill="none" stroke="#ff9ab1" stroke-dasharray="1,5" d="M275.12,-552.41C275.12,-552.41 275.12,-314.4 275.12,-314.4"/>
<polygon fill="#ff9ab1" stroke="#ff9ab1" points="278.62,-314.4 275.12,-304.4 271.62,-314.4 278.62,-314.4"/>
</g>
<!-- :data:spotify&#45;&gt;:shared:domain -->
<g id="edge36" class="edge">
<title>:data:spotify&#45;&gt;:shared:domain</title>
<path fill="none" stroke="black" stroke-dasharray="1,5" d="M156.14,-292C195.42,-292 236.79,-292 236.79,-292 236.79,-292 236.79,-151 236.79,-151 236.79,-151 416.22,-151 416.22,-151"/>
<polygon fill="black" stroke="black" points="416.22,-154.5 426.22,-151 416.22,-147.5 416.22,-154.5"/>
</g>
<!-- :data:spotify&#45;&gt;:core:logging:api -->
<g id="edge37" class="edge">
<title>:data:spotify&#45;&gt;:core:logging:api</title>
<path fill="none" stroke="black" stroke-dasharray="1,5" d="M101.14,-274.37C101.14,-274.37 101.14,-181.7 101.14,-181.7"/>
<polygon fill="black" stroke="black" points="104.64,-181.7 101.14,-171.7 97.64,-181.7 104.64,-181.7"/>
</g>
<!-- :shared:strings -->
<g id="node15" class="node">
<title>:shared:strings</title>
<ellipse fill="#b59aff" stroke="black" cx="764.89" cy="-429" rx="81.49" ry="18"/>
<text text-anchor="middle" x="764.89" y="-425.3" font-family="Times,serif" font-size="14.00">:shared:strings</text>
</g>
<!-- :ui:core&#45;&gt;:shared:strings -->
<g id="edge38" class="edge">
<title>:ui:core&#45;&gt;:shared:strings</title>
<path fill="none" stroke="black" d="M732.89,-547.81C732.89,-547.81 732.89,-455.55 732.89,-455.55"/>
<polygon fill="black" stroke="black" points="736.39,-455.55 732.89,-445.55 729.39,-455.55 736.39,-455.55"/>
</g>
</g>
</svg>
