<?xml version="1.0" encoding="UTF-8" standalone="no"?>
<!DOCTYPE svg PUBLIC "-//W3C//DTD SVG 1.1//EN"
 "http://www.w3.org/Graphics/SVG/1.1/DTD/svg11.dtd">
<!-- Generated by graphviz version 2.43.0 (0)
 -->
<!-- Title: %3 Pages: 1 -->
<svg width="1824pt" height="666pt"
 viewBox="0.00 0.00 1823.74 666.00" xmlns="http://www.w3.org/2000/svg" xmlns:xlink="http://www.w3.org/1999/xlink">
<g id="graph0" class="graph" transform="scale(1 1) rotate(0) translate(4 662)">
<title>%3</title>
<polygon fill="white" stroke="transparent" points="-4,4 -4,-662 1819.74,-662 1819.74,4 -4,4"/>
<text text-anchor="middle" x="907.87" y="-630" font-family="Times,serif" font-size="30.00">Dependencies</text>
<text text-anchor="middle" x="907.87" y="-597" font-family="Times,serif" font-size="30.00"> </text>
<!-- :shared:feature:details -->
<g id="node1" class="node">
<title>:shared:feature:details</title>
<polygon fill="#b59aff" stroke="black" points="1058.89,-584 698.89,-584 698.89,-548 1058.89,-548 1058.89,-584"/>
<text text-anchor="middle" x="878.89" y="-562.3" font-family="Times,serif" font-size="14.00">:shared:feature:details</text>
</g>
<!-- :test&#45;data -->
<g id="node2" class="node">
<title>:test&#45;data</title>
<ellipse fill="#b59aff" stroke="black" cx="310.89" cy="-429" rx="55.49" ry="18"/>
<text text-anchor="middle" x="310.89" y="-425.3" font-family="Times,serif" font-size="14.00">:test&#45;data</text>
</g>
<!-- :shared:feature:details&#45;&gt;:test&#45;data -->
<g id="edge1" class="edge">
<title>:shared:feature:details&#45;&gt;:test&#45;data</title>
<path fill="none" stroke="#ff9ab1" stroke-dasharray="1,5" d="M698.79,-572C532.42,-572 310.89,-572 310.89,-572 310.89,-572 310.89,-457.11 310.89,-457.11"/>
<polygon fill="#ff9ab1" stroke="#ff9ab1" points="314.39,-457.11 310.89,-447.11 307.39,-457.11 314.39,-457.11"/>
</g>
<!-- :ui:test:screenshot -->
<g id="node3" class="node">
<title>:ui:test:screenshot</title>
<ellipse fill="#9affb5" stroke="black" cx="1718.89" cy="-292" rx="96.68" ry="18"/>
<text text-anchor="middle" x="1718.89" y="-288.3" font-family="Times,serif" font-size="14.00">:ui:test:screenshot</text>
</g>
<!-- :shared:feature:details&#45;&gt;:ui:test:screenshot -->
<g id="edge2" class="edge">
<title>:shared:feature:details&#45;&gt;:ui:test:screenshot</title>
<path fill="none" stroke="#ff9ab1" stroke-dasharray="1,5" d="M1059.1,-576C1314.52,-576 1751.17,-576 1751.17,-576 1751.17,-576 1751.17,-319.34 1751.17,-319.34"/>
<polygon fill="#ff9ab1" stroke="#ff9ab1" points="1754.67,-319.34 1751.17,-309.34 1747.67,-319.34 1754.67,-319.34"/>
</g>
<!-- :core:models -->
<g id="node4" class="node">
<title>:core:models</title>
<ellipse fill="#b59aff" stroke="black" cx="667.89" cy="-18" rx="69.59" ry="18"/>
<text text-anchor="middle" x="667.89" y="-14.3" font-family="Times,serif" font-size="14.00">:core:models</text>
</g>
<!-- :shared:feature:details&#45;&gt;:core:models -->
<g id="edge3" class="edge">
<title>:shared:feature:details&#45;&gt;:core:models</title>
<path fill="none" stroke="black" stroke-dasharray="1,5" d="M1003.54,-547.87C1003.54,-492.61 1003.54,-330 1003.54,-330 1003.54,-330 942.33,-330 942.33,-330 942.33,-330 942.33,-16 942.33,-16 942.33,-16 747.15,-16 747.15,-16"/>
<polygon fill="black" stroke="black" points="747.15,-12.5 737.15,-16 747.15,-19.5 747.15,-12.5"/>
</g>
<!-- :core:preferences -->
<g id="node5" class="node">
<title>:core:preferences</title>
<ellipse fill="#b59aff" stroke="black" cx="1103.89" cy="-292" rx="91.78" ry="18"/>
<text text-anchor="middle" x="1103.89" y="-288.3" font-family="Times,serif" font-size="14.00">:core:preferences</text>
</g>
<!-- :shared:feature:details&#45;&gt;:core:preferences -->
<g id="edge4" class="edge">
<title>:shared:feature:details&#45;&gt;:core:preferences</title>
<path fill="none" stroke="black" stroke-dasharray="1,5" d="M1027.8,-547.6C1027.8,-547.6 1027.8,-312.05 1027.8,-312.05"/>
<polygon fill="black" stroke="black" points="1031.3,-312.05 1027.8,-302.05 1024.3,-312.05 1031.3,-312.05"/>
</g>
<!-- :core:logging:api -->
<g id="node6" class="node">
<title>:core:logging:api</title>
<ellipse fill="#b59aff" stroke="black" cx="664.89" cy="-155" rx="88.28" ry="18"/>
<text text-anchor="middle" x="664.89" y="-151.3" font-family="Times,serif" font-size="14.00">:core:logging:api</text>
</g>
<!-- :shared:feature:details&#45;&gt;:core:logging:api -->
<g id="edge5" class="edge">
<title>:shared:feature:details&#45;&gt;:core:logging:api</title>
<path fill="none" stroke="black" stroke-dasharray="1,5" d="M698.75,-554C672.83,-554 654.73,-554 654.73,-554 654.73,-554 654.73,-182.92 654.73,-182.92"/>
<polygon fill="black" stroke="black" points="658.23,-182.92 654.73,-172.92 651.23,-182.92 658.23,-182.92"/>
</g>
<!-- :data:common:network -->
<g id="node7" class="node">
<title>:data:common:network</title>
<ellipse fill="#b59aff" stroke="black" cx="310.89" cy="-292" rx="116.98" ry="18"/>
<text text-anchor="middle" x="310.89" y="-288.3" font-family="Times,serif" font-size="14.00">:data:common:network</text>
</g>
<!-- :shared:feature:details&#45;&gt;:data:common:network -->
<g id="edge6" class="edge">
<title>:shared:feature:details&#45;&gt;:data:common:network</title>
<path fill="none" stroke="black" stroke-dasharray="1,5" d="M698.77,-566C561.9,-566 397.01,-566 397.01,-566 397.01,-566 397.01,-314.49 397.01,-314.49"/>
<polygon fill="black" stroke="black" points="400.51,-314.49 397.01,-304.49 393.51,-314.49 400.51,-314.49"/>
</g>
<!-- :data:spotify -->
<g id="node8" class="node">
<title>:data:spotify</title>
<ellipse fill="#b59aff" stroke="black" cx="68.89" cy="-292" rx="68.79" ry="18"/>
<text text-anchor="middle" x="68.89" y="-288.3" font-family="Times,serif" font-size="14.00">:data:spotify</text>
</g>
<!-- :shared:feature:details&#45;&gt;:data:spotify -->
<g id="edge7" class="edge">
<title>:shared:feature:details&#45;&gt;:data:spotify</title>
<path fill="none" stroke="black" stroke-dasharray="1,5" d="M698.67,-578C453.74,-578 45.93,-578 45.93,-578 45.93,-578 45.93,-319.03 45.93,-319.03"/>
<polygon fill="black" stroke="black" points="49.43,-319.03 45.93,-309.03 42.43,-319.03 49.43,-319.03"/>
</g>
<!-- :data:musicbrainz -->
<g id="node9" class="node">
<title>:data:musicbrainz</title>
<ellipse fill="#b59aff" stroke="black" cx="785.89" cy="-292" rx="93.68" ry="18"/>
<text text-anchor="middle" x="785.89" y="-288.3" font-family="Times,serif" font-size="14.00">:data:musicbrainz</text>
</g>
<!-- :shared:feature:details&#45;&gt;:data:musicbrainz -->
<g id="edge8" class="edge">
<title>:shared:feature:details&#45;&gt;:data:musicbrainz</title>
<path fill="none" stroke="black" stroke-dasharray="1,5" d="M793.37,-547.6C793.37,-547.6 793.37,-319.97 793.37,-319.97"/>
<polygon fill="black" stroke="black" points="796.87,-319.97 793.37,-309.97 789.87,-319.97 796.87,-319.97"/>
</g>
<!-- :data:database -->
<g id="node10" class="node">
<title>:data:database</title>
<ellipse fill="#b59aff" stroke="black" cx="919.89" cy="-429" rx="79.09" ry="18"/>
<text text-anchor="middle" x="919.89" y="-425.3" font-family="Times,serif" font-size="14.00">:data:database</text>
</g>
<!-- :shared:feature:details&#45;&gt;:data:database -->
<g id="edge9" class="edge">
<title>:shared:feature:details&#45;&gt;:data:database</title>
<path fill="none" stroke="black" stroke-dasharray="1,5" d="M919.89,-547.81C919.89,-547.81 919.89,-457.27 919.89,-457.27"/>
<polygon fill="black" stroke="black" points="923.39,-457.27 919.89,-447.27 916.39,-457.27 923.39,-457.27"/>
</g>
<!-- :ui:image -->
<g id="node11" class="node">
<title>:ui:image</title>
<ellipse fill="#b59aff" stroke="black" cx="1511.89" cy="-292" rx="53.89" ry="18"/>
<text text-anchor="middle" x="1511.89" y="-288.3" font-family="Times,serif" font-size="14.00">:ui:image</text>
</g>
<!-- :shared:feature:details&#45;&gt;:ui:image -->
<g id="edge10" class="edge">
<title>:shared:feature:details&#45;&gt;:ui:image</title>
<path fill="none" stroke="black" stroke-dasharray="1,5" d="M1058.93,-555C1251.6,-555 1529.88,-555 1529.88,-555 1529.88,-555 1529.88,-319.26 1529.88,-319.26"/>
<polygon fill="black" stroke="black" points="1533.38,-319.26 1529.88,-309.26 1526.38,-319.26 1533.38,-319.26"/>
</g>
<!-- :domain -->
<g id="node12" class="node">
<title>:domain</title>
<ellipse fill="#b59aff" stroke="black" cx="455.89" cy="-155" rx="48.19" ry="18"/>
<text text-anchor="middle" x="455.89" y="-151.3" font-family="Times,serif" font-size="14.00">:domain</text>
</g>
<!-- :shared:feature:details&#45;&gt;:domain -->
<g id="edge11" class="edge">
<title>:shared:feature:details&#45;&gt;:domain</title>
<path fill="none" stroke="black" stroke-dasharray="1,5" d="M698.88,-560C583.74,-560 455.87,-560 455.87,-560 455.87,-560 455.87,-183.19 455.87,-183.19"/>
<polygon fill="black" stroke="black" points="459.37,-183.19 455.87,-173.19 452.37,-183.19 459.37,-183.19"/>
</g>
<!-- :strings -->
<g id="node13" class="node">
<title>:strings</title>
<ellipse fill="#b59aff" stroke="black" cx="1655.89" cy="-18" rx="46.29" ry="18"/>
<text text-anchor="middle" x="1655.89" y="-14.3" font-family="Times,serif" font-size="14.00">:strings</text>
</g>
<!-- :shared:feature:details&#45;&gt;:strings -->
<g id="edge12" class="edge">
<title>:shared:feature:details&#45;&gt;:strings</title>
<path fill="none" stroke="black" stroke-dasharray="1,5" d="M1059.15,-562C1269.18,-562 1587.79,-562 1587.79,-562 1587.79,-562 1587.79,-32 1587.79,-32 1587.79,-32 1616.62,-32 1616.62,-32"/>
<polygon fill="black" stroke="black" points="1616.62,-35.5 1626.62,-32 1616.62,-28.5 1616.62,-35.5"/>
</g>
<!-- :ui:common -->
<g id="node14" class="node">
<title>:ui:common</title>
<ellipse fill="#b59aff" stroke="black" cx="1197.89" cy="-429" rx="64.19" ry="18"/>
<text text-anchor="middle" x="1197.89" y="-425.3" font-family="Times,serif" font-size="14.00">:ui:common</text>
</g>
<!-- :shared:feature:details&#45;&gt;:ui:common -->
<g id="edge13" class="edge">
<title>:shared:feature:details&#45;&gt;:ui:common</title>
<path fill="none" stroke="black" stroke-dasharray="1,5" d="M1043.35,-547.79C1043.35,-511.79 1043.35,-435 1043.35,-435 1043.35,-435 1126.81,-435 1126.81,-435"/>
<polygon fill="black" stroke="black" points="1126.81,-438.5 1136.81,-435 1126.81,-431.5 1126.81,-438.5"/>
</g>
<!-- :ui:core -->
<g id="node15" class="node">
<title>:ui:core</title>
<ellipse fill="#b59aff" stroke="black" cx="1655.89" cy="-155" rx="45.49" ry="18"/>
<text text-anchor="middle" x="1655.89" y="-151.3" font-family="Times,serif" font-size="14.00">:ui:core</text>
</g>
<!-- :shared:feature:details&#45;&gt;:ui:core -->
<g id="edge14" class="edge">
<title>:shared:feature:details&#45;&gt;:ui:core</title>
<path fill="none" stroke="black" stroke-dasharray="1,5" d="M1059.03,-569C1278.15,-569 1619.14,-569 1619.14,-569 1619.14,-569 1619.14,-175.65 1619.14,-175.65"/>
<polygon fill="black" stroke="black" points="1622.64,-175.65 1619.14,-165.65 1615.64,-175.65 1622.64,-175.65"/>
</g>
<!-- :test&#45;data&#45;&gt;:core:models -->
<g id="edge15" class="edge">
<title>:test&#45;data&#45;&gt;:core:models</title>
<path fill="none" stroke="black" stroke-dasharray="1,5" d="M258.53,-423C216.98,-423 165.85,-423 165.85,-423 165.85,-423 165.85,-14 165.85,-14 165.85,-14 589.92,-14 589.92,-14"/>
<polygon fill="black" stroke="black" points="589.92,-17.5 599.92,-14 589.92,-10.5 589.92,-17.5"/>
</g>
<!-- :test&#45;data&#45;&gt;:data:common:network -->
<g id="edge16" class="edge">
<title>:test&#45;data&#45;&gt;:data:common:network</title>
<path fill="none" stroke="black" stroke-dasharray="1,5" d="M310.89,-410.81C310.89,-410.81 310.89,-320.27 310.89,-320.27"/>
<polygon fill="black" stroke="black" points="314.39,-320.27 310.89,-310.27 307.39,-320.27 314.39,-320.27"/>
</g>
<!-- :test&#45;data&#45;&gt;:data:spotify -->
<g id="edge19" class="edge">
<title>:test&#45;data&#45;&gt;:data:spotify</title>
<path fill="none" stroke="black" stroke-dasharray="1,5" d="M258.71,-435C193.92,-435 91.86,-435 91.86,-435 91.86,-435 91.86,-319.25 91.86,-319.25"/>
<polygon fill="black" stroke="black" points="95.36,-319.25 91.86,-309.25 88.36,-319.25 95.36,-319.25"/>
</g>
<!-- :test&#45;data&#45;&gt;:data:musicbrainz -->
<g id="edge17" class="edge">
<title>:test&#45;data&#45;&gt;:data:musicbrainz</title>
<path fill="none" stroke="black" stroke-dasharray="1,5" d="M359.13,-438C472.45,-438 746.13,-438 746.13,-438 746.13,-438 746.13,-318.46 746.13,-318.46"/>
<polygon fill="black" stroke="black" points="749.63,-318.46 746.13,-308.46 742.63,-318.46 749.63,-318.46"/>
</g>
<!-- :test&#45;data&#45;&gt;:domain -->
<g id="edge20" class="edge">
<title>:test&#45;data&#45;&gt;:domain</title>
<path fill="none" stroke="black" stroke-dasharray="1,5" d="M358.92,-420C396.3,-420 441.88,-420 441.88,-420 441.88,-420 441.88,-182.39 441.88,-182.39"/>
<polygon fill="black" stroke="black" points="445.38,-182.39 441.88,-172.39 438.38,-182.39 445.38,-182.39"/>
</g>
<!-- :data:coverart -->
<g id="node16" class="node">
<title>:data:coverart</title>
<ellipse fill="#b59aff" stroke="black" cx="559.89" cy="-292" rx="76.09" ry="18"/>
<text text-anchor="middle" x="559.89" y="-288.3" font-family="Times,serif" font-size="14.00">:data:coverart</text>
</g>
<!-- :test&#45;data&#45;&gt;:data:coverart -->
<g id="edge18" class="edge">
<title>:test&#45;data&#45;&gt;:data:coverart</title>
<path fill="none" stroke="black" stroke-dasharray="1,5" d="M366.18,-429C432.41,-429 534.55,-429 534.55,-429 534.55,-429 534.55,-319.07 534.55,-319.07"/>
<polygon fill="black" stroke="black" points="538.05,-319.07 534.55,-309.07 531.05,-319.07 538.05,-319.07"/>
</g>
<!-- :ui:test:screenshot&#45;&gt;:ui:core -->
<g id="edge21" class="edge">
<title>:ui:test:screenshot&#45;&gt;:ui:core</title>
<path fill="none" stroke="red" d="M1661.72,-277.34C1661.72,-277.34 1661.72,-183.01 1661.72,-183.01"/>
<polygon fill="red" stroke="red" points="1665.22,-183.01 1661.72,-173.01 1658.22,-183.01 1665.22,-183.01"/>
</g>
<!-- :core:preferences&#45;&gt;:core:models -->
<g id="edge23" class="edge">
<title>:core:preferences&#45;&gt;:core:models</title>
<path fill="none" stroke="black" stroke-dasharray="1,5" d="M1169.79,-279.24C1169.79,-224.47 1169.79,-12 1169.79,-12 1169.79,-12 743.51,-12 743.51,-12"/>
<polygon fill="black" stroke="black" points="743.51,-8.5 733.51,-12 743.51,-15.5 743.51,-8.5"/>
</g>
<!-- :core:coroutines -->
<g id="node17" class="node">
<title>:core:coroutines</title>
<ellipse fill="#b59aff" stroke="black" cx="1058.89" cy="-155" rx="85.29" ry="18"/>
<text text-anchor="middle" x="1058.89" y="-151.3" font-family="Times,serif" font-size="14.00">:core:coroutines</text>
</g>
<!-- :core:preferences&#45;&gt;:core:coroutines -->
<g id="edge22" class="edge">
<title>:core:preferences&#45;&gt;:core:coroutines</title>
<path fill="none" stroke="black" stroke-dasharray="1,5" d="M1078.14,-274.65C1078.14,-274.65 1078.14,-182.64 1078.14,-182.64"/>
<polygon fill="black" stroke="black" points="1081.64,-182.64 1078.14,-172.64 1074.64,-182.64 1081.64,-182.64"/>
</g>
<!-- :data:common:network&#45;&gt;:core:logging:api -->
<g id="edge24" class="edge">
<title>:data:common:network&#45;&gt;:core:logging:api</title>
<path fill="none" stroke="black" stroke-dasharray="1,5" d="M417.84,-284.33C417.84,-269.86 417.84,-240 417.84,-240 417.84,-240 606.22,-240 606.22,-240 606.22,-240 606.22,-178.66 606.22,-178.66"/>
<polygon fill="black" stroke="black" points="609.72,-178.66 606.22,-168.66 602.72,-178.66 609.72,-178.66"/>
</g>
<!-- :data:spotify&#45;&gt;:core:models -->
<g id="edge26" class="edge">
<title>:data:spotify&#45;&gt;:core:models</title>
<path fill="none" stroke="black" stroke-dasharray="1,5" d="M45.93,-275.03C45.93,-213.67 45.93,-7 45.93,-7 45.93,-7 602.7,-7 602.7,-7"/>
<polygon fill="black" stroke="black" points="602.7,-10.5 612.7,-7 602.7,-3.5 602.7,-10.5"/>
</g>
<!-- :data:spotify&#45;&gt;:core:logging:api -->
<g id="edge25" class="edge">
<title>:data:spotify&#45;&gt;:core:logging:api</title>
<path fill="none" stroke="black" stroke-dasharray="1,5" d="M91.86,-275.01C91.86,-249.95 91.86,-206 91.86,-206 91.86,-206 591.36,-206 591.36,-206 591.36,-206 591.36,-175.32 591.36,-175.32"/>
<polygon fill="black" stroke="black" points="594.86,-175.32 591.36,-165.32 587.86,-175.32 594.86,-175.32"/>
</g>
<!-- :data:musicbrainz&#45;&gt;:core:models -->
<g id="edge28" class="edge">
<title>:data:musicbrainz&#45;&gt;:core:models</title>
<path fill="none" stroke="black" stroke-dasharray="1,5" d="M816.39,-274.83C816.39,-215.68 816.39,-24 816.39,-24 816.39,-24 743.89,-24 743.89,-24"/>
<polygon fill="black" stroke="black" points="743.89,-20.5 733.89,-24 743.89,-27.5 743.89,-20.5"/>
</g>
<!-- :data:musicbrainz&#45;&gt;:core:logging:api -->
<g id="edge27" class="edge">
<title>:data:musicbrainz&#45;&gt;:core:logging:api</title>
<path fill="none" stroke="black" stroke-dasharray="1,5" d="M722.79,-278.61C722.79,-278.61 722.79,-178.64 722.79,-178.64"/>
<polygon fill="black" stroke="black" points="726.29,-178.64 722.79,-168.64 719.29,-178.64 726.29,-178.64"/>
</g>
<!-- :data:database&#45;&gt;:core:models -->
<g id="edge30" class="edge">
<title>:data:database&#45;&gt;:core:models</title>
<path fill="none" stroke="black" stroke-dasharray="1,5" d="M910.91,-410.9C910.91,-331.74 910.91,-20 910.91,-20 910.91,-20 747.21,-20 747.21,-20"/>
<polygon fill="black" stroke="black" points="747.21,-16.5 737.21,-20 747.21,-23.5 747.21,-16.5"/>
</g>
<!-- :data:database&#45;&gt;:data:musicbrainz -->
<g id="edge31" class="edge">
<title>:data:database&#45;&gt;:data:musicbrainz</title>
<path fill="none" stroke="black" stroke-dasharray="1,5" d="M860.04,-416.84C860.04,-416.84 860.04,-313.17 860.04,-313.17"/>
<polygon fill="black" stroke="black" points="863.54,-313.17 860.04,-303.17 856.54,-313.17 863.54,-313.17"/>
</g>
<!-- :data:database&#45;&gt;:core:coroutines -->
<g id="edge29" class="edge">
<title>:data:database&#45;&gt;:core:coroutines</title>
<path fill="none" stroke="black" stroke-dasharray="1,5" d="M986.47,-418.92C986.47,-418.92 986.47,-174.59 986.47,-174.59"/>
<polygon fill="black" stroke="black" points="989.97,-174.59 986.47,-164.59 982.97,-174.59 989.97,-174.59"/>
</g>
<!-- :ui:image&#45;&gt;:core:models -->
<g id="edge32" class="edge">
<title>:ui:image&#45;&gt;:core:models</title>
<path fill="none" stroke="black" stroke-dasharray="1,5" d="M1511.89,-273.98C1511.89,-210.93 1511.89,-4 1511.89,-4 1511.89,-4 721.79,-4 721.79,-4"/>
<polygon fill="black" stroke="black" points="721.79,-0.5 711.79,-4 721.79,-7.5 721.79,-0.5"/>
</g>
<!-- :ui:image&#45;&gt;:ui:core -->
<g id="edge33" class="edge">
<title>:ui:image&#45;&gt;:ui:core</title>
<path fill="none" stroke="red" d="M1565.87,-292C1590.09,-292 1613.31,-292 1613.31,-292 1613.31,-292 1613.31,-171.61 1613.31,-171.61"/>
<polygon fill="red" stroke="red" points="1616.81,-171.61 1613.31,-161.61 1609.81,-171.61 1616.81,-171.61"/>
</g>
<!-- :domain&#45;&gt;:core:models -->
<g id="edge34" class="edge">
<title>:domain&#45;&gt;:core:models</title>
<path fill="none" stroke="black" stroke-dasharray="1,5" d="M455.89,-136.93C455.89,-100.35 455.89,-21 455.89,-21 455.89,-21 589.06,-21 589.06,-21"/>
<polygon fill="black" stroke="black" points="589.06,-24.5 599.06,-21 589.06,-17.5 589.06,-24.5"/>
</g>
<!-- :ui:common&#45;&gt;:ui:test:screenshot -->
<g id="edge36" class="edge">
<title>:ui:common&#45;&gt;:ui:test:screenshot</title>
<path fill="none" stroke="#ff9ab1" d="M1253.96,-438C1382.33,-438 1686.61,-438 1686.61,-438 1686.61,-438 1686.61,-319.03 1686.61,-319.03"/>
<polygon fill="#ff9ab1" stroke="#ff9ab1" points="1690.11,-319.03 1686.61,-309.03 1683.11,-319.03 1690.11,-319.03"/>
</g>
<!-- :ui:common&#45;&gt;:core:models -->
<g id="edge37" class="edge">
<title>:ui:common&#45;&gt;:core:models</title>
<path fill="none" stroke="black" d="M1214.41,-411.45C1214.41,-331.77 1214.41,-8 1214.41,-8 1214.41,-8 735.86,-8 735.86,-8"/>
<polygon fill="black" stroke="black" points="735.86,-4.5 725.86,-8 735.86,-11.5 735.86,-4.5"/>
</g>
<!-- :ui:common&#45;&gt;:core:preferences -->
<g id="edge40" class="edge">
<title>:ui:common&#45;&gt;:core:preferences</title>
<path fill="none" stroke="black" stroke-dasharray="1,5" d="M1183.14,-411.37C1183.14,-411.37 1183.14,-311.12 1183.14,-311.12"/>
<polygon fill="black" stroke="black" points="1186.64,-311.12 1183.14,-301.12 1179.64,-311.13 1186.64,-311.12"/>
</g>
<!-- :ui:common&#45;&gt;:core:logging:api -->
<g id="edge41" class="edge">
<title>:ui:common&#45;&gt;:core:logging:api</title>
<path fill="none" stroke="black" stroke-dasharray="1,5" d="M1170.74,-412.63C1170.74,-389.49 1170.74,-350 1170.74,-350 1170.74,-350 673.51,-350 673.51,-350 673.51,-350 673.51,-183 673.51,-183"/>
<polygon fill="black" stroke="black" points="677.01,-183 673.51,-173 670.01,-183 677.01,-183"/>
</g>
<!-- :ui:common&#45;&gt;:data:musicbrainz -->
<g id="edge39" class="edge">
<title>:ui:common&#45;&gt;:data:musicbrainz</title>
<path fill="none" stroke="orange" d="M1136.99,-423C1081.42,-423 1007.9,-423 1007.9,-423 1007.9,-423 1007.9,-292 1007.9,-292 1007.9,-292 889.72,-292 889.72,-292"/>
<polygon fill="orange" stroke="orange" points="889.72,-288.5 879.72,-292 889.72,-295.5 889.72,-288.5"/>
</g>
<!-- :ui:common&#45;&gt;:ui:image -->
<g id="edge45" class="edge">
<title>:ui:common&#45;&gt;:ui:image</title>
<path fill="none" stroke="red" d="M1253.92,-420C1339.74,-420 1493.91,-420 1493.91,-420 1493.91,-420 1493.91,-319 1493.91,-319"/>
<polygon fill="red" stroke="red" points="1497.41,-319 1493.91,-309 1490.41,-319 1497.41,-319"/>
</g>
<!-- :ui:common&#45;&gt;:domain -->
<g id="edge42" class="edge">
<title>:ui:common&#45;&gt;:domain</title>
<path fill="none" stroke="black" stroke-dasharray="1,5" d="M1145.95,-418.34C1145.95,-406.8 1145.95,-390 1145.95,-390 1145.95,-390 469.86,-390 469.86,-390 469.86,-390 469.86,-182.28 469.86,-182.28"/>
<polygon fill="black" stroke="black" points="473.36,-182.28 469.86,-172.28 466.36,-182.28 473.36,-182.28"/>
</g>
<!-- :ui:common&#45;&gt;:strings -->
<g id="edge43" class="edge">
<title>:ui:common&#45;&gt;:strings</title>
<path fill="none" stroke="black" stroke-dasharray="1,5" d="M1233.28,-413.77C1233.28,-340.52 1233.28,-28 1233.28,-28 1233.28,-28 1607.27,-28 1607.27,-28"/>
<polygon fill="black" stroke="black" points="1607.27,-31.5 1617.27,-28 1607.27,-24.5 1607.27,-31.5"/>
</g>
<!-- :ui:common&#45;&gt;:ui:core -->
<g id="edge44" class="edge">
<title>:ui:common&#45;&gt;:ui:core</title>
<path fill="none" stroke="red" d="M1262.34,-429C1379.69,-429 1616.23,-429 1616.23,-429 1616.23,-429 1616.23,-174.12 1616.23,-174.12"/>
<polygon fill="red" stroke="red" points="1619.73,-174.12 1616.23,-164.12 1612.73,-174.12 1619.73,-174.12"/>
</g>
<!-- :ui:common&#45;&gt;:data:coverart -->
<g id="edge38" class="edge">
<title>:ui:common&#45;&gt;:data:coverart</title>
<path fill="none" stroke="orange" d="M1158.34,-414.72C1158.34,-397.26 1158.34,-370 1158.34,-370 1158.34,-370 585.24,-370 585.24,-370 585.24,-370 585.24,-319.31 585.24,-319.31"/>
<polygon fill="orange" stroke="orange" points="588.74,-319.31 585.24,-309.31 581.74,-319.31 588.74,-319.31"/>
</g>
<!-- :ui:test:image -->
<g id="node18" class="node">
<title>:ui:test:image</title>
<ellipse fill="#9affb5" stroke="black" cx="1326.89" cy="-292" rx="74.99" ry="18"/>
<text text-anchor="middle" x="1326.89" y="-288.3" font-family="Times,serif" font-size="14.00">:ui:test:image</text>
</g>
<!-- :ui:common&#45;&gt;:ui:test:image -->
<g id="edge35" class="edge">
<title>:ui:common&#45;&gt;:ui:test:image</title>
<path fill="none" stroke="#ff9ab1" d="M1257.19,-421.63C1257.19,-421.63 1257.19,-308.75 1257.19,-308.75"/>
<polygon fill="#ff9ab1" stroke="#ff9ab1" points="1260.69,-308.75 1257.19,-298.75 1253.69,-308.75 1260.69,-308.75"/>
</g>
<!-- :ui:core&#45;&gt;:strings -->
<g id="edge46" class="edge">
<title>:ui:core&#45;&gt;:strings</title>
<path fill="none" stroke="black" d="M1655.89,-136.81C1655.89,-136.81 1655.89,-46.27 1655.89,-46.27"/>
<polygon fill="black" stroke="black" points="1659.39,-46.27 1655.89,-36.27 1652.39,-46.27 1659.39,-46.27"/>
</g>
<!-- :data:coverart&#45;&gt;:core:models -->
<g id="edge48" class="edge">
<title>:data:coverart&#45;&gt;:core:models</title>
<path fill="none" stroke="black" stroke-dasharray="1,5" d="M540.25,-274.27C540.25,-215.08 540.25,-28 540.25,-28 540.25,-28 600.05,-28 600.05,-28"/>
<polygon fill="black" stroke="black" points="600.05,-31.5 610.05,-28 600.05,-24.5 600.05,-31.5"/>
</g>
<!-- :data:coverart&#45;&gt;:core:logging:api -->
<g id="edge47" class="edge">
<title>:data:coverart&#45;&gt;:core:logging:api</title>
<path fill="none" stroke="black" stroke-dasharray="1,5" d="M621.08,-281.25C621.08,-281.25 621.08,-181.07 621.08,-181.07"/>
<polygon fill="black" stroke="black" points="624.58,-181.07 621.08,-171.07 617.58,-181.07 624.58,-181.07"/>
</g>
<!-- :data:coverart&#45;&gt;:domain -->
<g id="edge49" class="edge">
<title>:data:coverart&#45;&gt;:domain</title>
<path fill="none" stroke="black" stroke-dasharray="1,5" d="M493.92,-283.01C493.92,-283.01 493.92,-176.08 493.92,-176.08"/>
<polygon fill="black" stroke="black" points="497.42,-176.08 493.92,-166.08 490.42,-176.08 497.42,-176.08"/>
</g>
</g>
</svg>
