<?xml version="1.0" encoding="UTF-8" standalone="no"?>
<!DOCTYPE svg PUBLIC "-//W3C//DTD SVG 1.1//EN"
 "http://www.w3.org/Graphics/SVG/1.1/DTD/svg11.dtd">
<!-- Generated by graphviz version 2.43.0 (0)
 -->
<!-- Title: %3 Pages: 1 -->
<svg width="463pt" height="712pt"
 viewBox="0.00 0.00 463.37 712.00" xmlns="http://www.w3.org/2000/svg" xmlns:xlink="http://www.w3.org/1999/xlink">
<g id="graph0" class="graph" transform="scale(1 1) rotate(0) translate(4 708)">
<title>%3</title>
<polygon fill="white" stroke="transparent" points="-4,4 -4,-708 459.37,-708 459.37,4 -4,4"/>
<text text-anchor="middle" x="227.69" y="-676" font-family="Times,serif" font-size="30.00">Dependents</text>
<text text-anchor="middle" x="227.69" y="-643" font-family="Times,serif" font-size="30.00"> </text>
<!-- :strings -->
<g id="node1" class="node">
<title>:strings</title>
<polygon fill="#b59aff" stroke="black" points="71,-333 0,-333 0,-297 71,-297 71,-333"/>
<text text-anchor="middle" x="35.5" y="-311.3" font-family="Times,serif" font-size="14.00">:strings</text>
</g>
<!-- :shared -->
<g id="node2" class="node">
<title>:shared</title>
<ellipse fill="#b59aff" stroke="black" cx="313.69" cy="-612" rx="45.49" ry="18"/>
<text text-anchor="middle" x="313.69" y="-608.3" font-family="Times,serif" font-size="14.00">:shared</text>
</g>
<!-- :shared&#45;&gt;:strings -->
<g id="edge1" class="edge">
<title>:shared&#45;&gt;:strings</title>
<path fill="none" stroke="black" stroke-dasharray="1,5" d="M268.04,-612C183.49,-612 11,-612 11,-612 11,-612 11,-343.13 11,-343.13"/>
<polygon fill="black" stroke="black" points="14.5,-343.13 11,-333.13 7.5,-343.13 14.5,-343.13"/>
</g>
<!-- :ui:core -->
<g id="node3" class="node">
<title>:ui:core</title>
<ellipse fill="#b59aff" stroke="black" cx="313.69" cy="-558" rx="45.49" ry="18"/>
<text text-anchor="middle" x="313.69" y="-554.3" font-family="Times,serif" font-size="14.00">:ui:core</text>
</g>
<!-- :ui:core&#45;&gt;:strings -->
<g id="edge2" class="edge">
<title>:ui:core&#45;&gt;:strings</title>
<path fill="none" stroke="black" d="M267.95,-558C186.09,-558 23,-558 23,-558 23,-558 23,-343.26 23,-343.26"/>
<polygon fill="black" stroke="black" points="26.5,-343.26 23,-333.26 19.5,-343.26 26.5,-343.26"/>
</g>
<!-- :ui:common -->
<g id="node4" class="node">
<title>:ui:common</title>
<ellipse fill="#b59aff" stroke="black" cx="313.69" cy="-504" rx="64.19" ry="18"/>
<text text-anchor="middle" x="313.69" y="-500.3" font-family="Times,serif" font-size="14.00">:ui:common</text>
</g>
<!-- :ui:common&#45;&gt;:strings -->
<g id="edge3" class="edge">
<title>:ui:common&#45;&gt;:strings</title>
<path fill="none" stroke="black" stroke-dasharray="1,5" d="M249.05,-504C166.72,-504 35,-504 35,-504 35,-504 35,-343.12 35,-343.12"/>
<polygon fill="black" stroke="black" points="38.5,-343.12 35,-333.12 31.5,-343.12 38.5,-343.12"/>
</g>
<!-- :shared:feature:settings -->
<g id="node5" class="node">
<title>:shared:feature:settings</title>
<ellipse fill="#b59aff" stroke="black" cx="313.69" cy="-450" rx="122.38" ry="18"/>
<text text-anchor="middle" x="313.69" y="-446.3" font-family="Times,serif" font-size="14.00">:shared:feature:settings</text>
</g>
<!-- :shared:feature:settings&#45;&gt;:strings -->
<g id="edge4" class="edge">
<title>:shared:feature:settings&#45;&gt;:strings</title>
<path fill="none" stroke="black" stroke-dasharray="1,5" d="M191.27,-450C121.16,-450 47,-450 47,-450 47,-450 47,-343.21 47,-343.21"/>
<polygon fill="black" stroke="black" points="50.5,-343.21 47,-333.21 43.5,-343.21 50.5,-343.21"/>
</g>
<!-- :shared:feature:licenses -->
<g id="node6" class="node">
<title>:shared:feature:licenses</title>
<ellipse fill="#b59aff" stroke="black" cx="313.69" cy="-396" rx="122.38" ry="18"/>
<text text-anchor="middle" x="313.69" y="-392.3" font-family="Times,serif" font-size="14.00">:shared:feature:licenses</text>
</g>
<!-- :shared:feature:licenses&#45;&gt;:strings -->
<g id="edge5" class="edge">
<title>:shared:feature:licenses&#45;&gt;:strings</title>
<path fill="none" stroke="black" stroke-dasharray="1,5" d="M191.19,-396C125.95,-396 59,-396 59,-396 59,-396 59,-343.38 59,-343.38"/>
<polygon fill="black" stroke="black" points="62.5,-343.38 59,-333.38 55.5,-343.38 62.5,-343.38"/>
</g>
<!-- :shared:feature:search -->
<g id="node7" class="node">
<title>:shared:feature:search</title>
<ellipse fill="#b59aff" stroke="black" cx="313.69" cy="-342" rx="115.88" ry="18"/>
<text text-anchor="middle" x="313.69" y="-338.3" font-family="Times,serif" font-size="14.00">:shared:feature:search</text>
</g>
<!-- :shared:feature:search&#45;&gt;:strings -->
<g id="edge6" class="edge">
<title>:shared:feature:search&#45;&gt;:strings</title>
<path fill="none" stroke="black" stroke-dasharray="1,5" d="M236.94,-328.5C236.94,-328.5 81.02,-328.5 81.02,-328.5"/>
<polygon fill="black" stroke="black" points="81.02,-325 71.02,-328.5 81.02,-332 81.02,-325"/>
</g>
<!-- :shared:feature:collections -->
<g id="node8" class="node">
<title>:shared:feature:collections</title>
<ellipse fill="#b59aff" stroke="black" cx="313.69" cy="-288" rx="133.78" ry="18"/>
<text text-anchor="middle" x="313.69" y="-284.3" font-family="Times,serif" font-size="14.00">:shared:feature:collections</text>
</g>
<!-- :shared:feature:collections&#45;&gt;:strings -->
<g id="edge7" class="edge">
<title>:shared:feature:collections&#45;&gt;:strings</title>
<path fill="none" stroke="black" stroke-dasharray="1,5" d="M239.5,-303C239.5,-303 81.32,-303 81.32,-303"/>
<polygon fill="black" stroke="black" points="81.32,-299.5 71.32,-303 81.32,-306.5 81.32,-299.5"/>
</g>
<!-- :shared:feature:stats -->
<g id="node9" class="node">
<title>:shared:feature:stats</title>
<ellipse fill="#b59aff" stroke="black" cx="313.69" cy="-234" rx="107.78" ry="18"/>
<text text-anchor="middle" x="313.69" y="-230.3" font-family="Times,serif" font-size="14.00">:shared:feature:stats</text>
</g>
<!-- :shared:feature:stats&#45;&gt;:strings -->
<g id="edge8" class="edge">
<title>:shared:feature:stats&#45;&gt;:strings</title>
<path fill="none" stroke="black" stroke-dasharray="1,5" d="M205.52,-234C135.01,-234 56,-234 56,-234 56,-234 56,-286.62 56,-286.62"/>
<polygon fill="black" stroke="black" points="52.5,-286.62 56,-296.62 59.5,-286.62 52.5,-286.62"/>
</g>
<!-- :shared:feature:details -->
<g id="node10" class="node">
<title>:shared:feature:details</title>
<ellipse fill="#b59aff" stroke="black" cx="313.69" cy="-180" rx="116.18" ry="18"/>
<text text-anchor="middle" x="313.69" y="-176.3" font-family="Times,serif" font-size="14.00">:shared:feature:details</text>
</g>
<!-- :shared:feature:details&#45;&gt;:strings -->
<g id="edge9" class="edge">
<title>:shared:feature:details&#45;&gt;:strings</title>
<path fill="none" stroke="black" stroke-dasharray="1,5" d="M197.29,-180C123.54,-180 42,-180 42,-180 42,-180 42,-286.79 42,-286.79"/>
<polygon fill="black" stroke="black" points="38.5,-286.79 42,-296.79 45.5,-286.79 38.5,-286.79"/>
</g>
<!-- :shared:feature:history -->
<g id="node11" class="node">
<title>:shared:feature:history</title>
<ellipse fill="#b59aff" stroke="black" cx="313.69" cy="-126" rx="117.78" ry="18"/>
<text text-anchor="middle" x="313.69" y="-122.3" font-family="Times,serif" font-size="14.00">:shared:feature:history</text>
</g>
<!-- :shared:feature:history&#45;&gt;:strings -->
<g id="edge10" class="edge">
<title>:shared:feature:history&#45;&gt;:strings</title>
<path fill="none" stroke="black" stroke-dasharray="1,5" d="M195.84,-126C117.14,-126 28,-126 28,-126 28,-126 28,-286.88 28,-286.88"/>
<polygon fill="black" stroke="black" points="24.5,-286.88 28,-296.88 31.5,-286.88 24.5,-286.88"/>
</g>
<!-- :android:feature:nowplaying -->
<g id="node12" class="node">
<title>:android:feature:nowplaying</title>
<ellipse fill="#9affb5" stroke="black" cx="313.69" cy="-72" rx="141.88" ry="18"/>
<text text-anchor="middle" x="313.69" y="-68.3" font-family="Times,serif" font-size="14.00">:android:feature:nowplaying</text>
</g>
<!-- :android:feature:nowplaying&#45;&gt;:strings -->
<g id="edge11" class="edge">
<title>:android:feature:nowplaying&#45;&gt;:strings</title>
<path fill="none" stroke="black" stroke-dasharray="1,5" d="M175,-75.96C175,-106.23 175,-300 175,-300 175,-300 81.06,-300 81.06,-300"/>
<polygon fill="black" stroke="black" points="81.06,-296.5 71.06,-300 81.06,-303.5 81.06,-296.5"/>
</g>
<!-- :android:feature:spotify -->
<g id="node13" class="node">
<title>:android:feature:spotify</title>
<ellipse fill="#9affb5" stroke="black" cx="313.69" cy="-18" rx="120.48" ry="18"/>
<text text-anchor="middle" x="313.69" y="-14.3" font-family="Times,serif" font-size="14.00">:android:feature:spotify</text>
</g>
<!-- :android:feature:spotify&#45;&gt;:strings -->
<g id="edge12" class="edge">
<title>:android:feature:spotify&#45;&gt;:strings</title>
<path fill="none" stroke="black" stroke-dasharray="1,5" d="M193.09,-18C109.81,-18 14,-18 14,-18 14,-18 14,-286.87 14,-286.87"/>
<polygon fill="black" stroke="black" points="10.5,-286.87 14,-296.87 17.5,-286.87 10.5,-286.87"/>
</g>
</g>
</svg>
