<?xml version="1.0" encoding="UTF-8" standalone="no"?>
<!DOCTYPE svg PUBLIC "-//W3C//DTD SVG 1.1//EN"
 "http://www.w3.org/Graphics/SVG/1.1/DTD/svg11.dtd">
<!-- Generated by graphviz version 2.43.0 (0)
 -->
<!-- Title: %3 Pages: 1 -->
<svg width="423pt" height="280pt"
 viewBox="0.00 0.00 423.28 280.00" xmlns="http://www.w3.org/2000/svg" xmlns:xlink="http://www.w3.org/1999/xlink">
<g id="graph0" class="graph" transform="scale(1 1) rotate(0) translate(4 276)">
<title>%3</title>
<polygon fill="white" stroke="transparent" points="-4,4 -4,-276 419.28,-276 419.28,4 -4,4"/>
<text text-anchor="middle" x="207.64" y="-244" font-family="Times,serif" font-size="30.00">Dependents</text>
<text text-anchor="middle" x="207.64" y="-211" font-family="Times,serif" font-size="30.00"> </text>
<!-- :data:musicbrainz -->
<g id="node1" class="node">
<title>:data:musicbrainz</title>
<polygon fill="#b59aff" stroke="black" points="144,-117 0,-117 0,-81 144,-81 144,-117"/>
<text text-anchor="middle" x="72" y="-95.3" font-family="Times,serif" font-size="14.00">:data:musicbrainz</text>
</g>
<!-- :shared -->
<g id="node2" class="node">
<title>:shared</title>
<ellipse fill="#b59aff" stroke="black" cx="330.14" cy="-180" rx="45.49" ry="18"/>
<text text-anchor="middle" x="330.14" y="-176.3" font-family="Times,serif" font-size="14.00">:shared</text>
</g>
<!-- :shared&#45;&gt;:data:musicbrainz -->
<g id="edge1" class="edge">
<title>:shared&#45;&gt;:data:musicbrainz</title>
<path fill="none" stroke="black" stroke-dasharray="1,5" d="M284.59,-180C210.48,-180 72,-180 72,-180 72,-180 72,-127.38 72,-127.38"/>
<polygon fill="black" stroke="black" points="75.5,-127.38 72,-117.38 68.5,-127.38 75.5,-127.38"/>
</g>
<!-- :test&#45;data -->
<g id="node3" class="node">
<title>:test&#45;data</title>
<ellipse fill="#b59aff" stroke="black" cx="330.14" cy="-126" rx="55.49" ry="18"/>
<text text-anchor="middle" x="330.14" y="-122.3" font-family="Times,serif" font-size="14.00">:test&#45;data</text>
</g>
<!-- :test&#45;data&#45;&gt;:data:musicbrainz -->
<g id="edge2" class="edge">
<title>:test&#45;data&#45;&gt;:data:musicbrainz</title>
<path fill="none" stroke="black" stroke-dasharray="1,5" d="M293.43,-112.5C293.43,-112.5 154.23,-112.5 154.23,-112.5"/>
<polygon fill="black" stroke="black" points="154.23,-109 144.23,-112.5 154.23,-116 154.23,-109"/>
</g>
<!-- :data:database -->
<g id="node4" class="node">
<title>:data:database</title>
<ellipse fill="#b59aff" stroke="black" cx="330.14" cy="-72" rx="79.09" ry="18"/>
<text text-anchor="middle" x="330.14" y="-68.3" font-family="Times,serif" font-size="14.00">:data:database</text>
</g>
<!-- :data:database&#45;&gt;:data:musicbrainz -->
<g id="edge3" class="edge">
<title>:data:database&#45;&gt;:data:musicbrainz</title>
<path fill="none" stroke="black" stroke-dasharray="1,5" d="M277.59,-85.5C277.59,-85.5 154.04,-85.5 154.04,-85.5"/>
<polygon fill="black" stroke="black" points="154.04,-82 144.04,-85.5 154.04,-89 154.04,-82"/>
</g>
<!-- :data:repository -->
<g id="node5" class="node">
<title>:data:repository</title>
<ellipse fill="#b59aff" stroke="black" cx="330.14" cy="-18" rx="85.29" ry="18"/>
<text text-anchor="middle" x="330.14" y="-14.3" font-family="Times,serif" font-size="14.00">:data:repository</text>
</g>
<!-- :data:repository&#45;&gt;:data:musicbrainz -->
<g id="edge4" class="edge">
<title>:data:repository&#45;&gt;:data:musicbrainz</title>
<path fill="none" stroke="black" stroke-dasharray="1,5" d="M244.9,-18C169.71,-18 72,-18 72,-18 72,-18 72,-70.62 72,-70.62"/>
<polygon fill="black" stroke="black" points="68.5,-70.62 72,-80.62 75.5,-70.62 68.5,-70.62"/>
</g>
</g>
</svg>
