<?xml version="1.0" encoding="UTF-8" standalone="no"?>
<!DOCTYPE svg PUBLIC "-//W3C//DTD SVG 1.1//EN"
 "http://www.w3.org/Graphics/SVG/1.1/DTD/svg11.dtd">
<!-- Generated by graphviz version 2.43.0 (0)
 -->
<!-- Title: %3 Pages: 1 -->
<svg width="541pt" height="442pt"
 viewBox="0.00 0.00 540.56 442.00" xmlns="http://www.w3.org/2000/svg" xmlns:xlink="http://www.w3.org/1999/xlink">
<g id="graph0" class="graph" transform="scale(1 1) rotate(0) translate(4 438)">
<title>%3</title>
<polygon fill="white" stroke="transparent" points="-4,4 -4,-438 536.56,-438 536.56,4 -4,4"/>
<text text-anchor="middle" x="266.28" y="-406" font-family="Times,serif" font-size="30.00">Dependents</text>
<text text-anchor="middle" x="266.28" y="-373" font-family="Times,serif" font-size="30.00"> </text>
<!-- :data:musicbrainz -->
<g id="node1" class="node">
<title>:data:musicbrainz</title>
<ellipse fill="#b59aff" stroke="black" cx="93.59" cy="-180" rx="93.68" ry="18"/>
<text text-anchor="middle" x="93.59" y="-176.3" font-family="Times,serif" font-size="14.00">:data:musicbrainz</text>
</g>
<!-- :shared -->
<g id="node2" class="node">
<title>:shared</title>
<ellipse fill="#b59aff" stroke="black" cx="410.37" cy="-342" rx="45.49" ry="18"/>
<text text-anchor="middle" x="410.37" y="-338.3" font-family="Times,serif" font-size="14.00">:shared</text>
</g>
<!-- :shared&#45;&gt;:data:musicbrainz -->
<g id="edge1" class="edge">
<title>:shared&#45;&gt;:data:musicbrainz</title>
<path fill="none" stroke="black" stroke-dasharray="1,5" d="M364.59,-342C266.73,-342 46,-342 46,-342 46,-342 46,-205.53 46,-205.53"/>
<polygon fill="black" stroke="black" points="49.5,-205.53 46,-195.53 42.5,-205.53 49.5,-205.53"/>
</g>
<!-- :test&#45;data -->
<g id="node3" class="node">
<title>:test&#45;data</title>
<ellipse fill="#b59aff" stroke="black" cx="410.37" cy="-288" rx="55.49" ry="18"/>
<text text-anchor="middle" x="410.37" y="-284.3" font-family="Times,serif" font-size="14.00">:test&#45;data</text>
</g>
<!-- :test&#45;data&#45;&gt;:data:musicbrainz -->
<g id="edge2" class="edge">
<title>:test&#45;data&#45;&gt;:data:musicbrainz</title>
<path fill="none" stroke="black" stroke-dasharray="1,5" d="M355.09,-288C264.16,-288 93,-288 93,-288 93,-288 93,-208.32 93,-208.32"/>
<polygon fill="black" stroke="black" points="96.5,-208.32 93,-198.32 89.5,-208.32 96.5,-208.32"/>
</g>
<!-- :data:database -->
<g id="node4" class="node">
<title>:data:database</title>
<ellipse fill="#b59aff" stroke="black" cx="410.37" cy="-234" rx="79.09" ry="18"/>
<text text-anchor="middle" x="410.37" y="-230.3" font-family="Times,serif" font-size="14.00">:data:database</text>
</g>
<!-- :data:database&#45;&gt;:data:musicbrainz -->
<g id="edge3" class="edge">
<title>:data:database&#45;&gt;:data:musicbrainz</title>
<path fill="none" stroke="black" stroke-dasharray="1,5" d="M331.08,-234C251.3,-234 140,-234 140,-234 140,-234 140,-205.91 140,-205.91"/>
<polygon fill="black" stroke="black" points="143.5,-205.91 140,-195.91 136.5,-205.91 143.5,-205.91"/>
</g>
<!-- :data:repository -->
<g id="node5" class="node">
<title>:data:repository</title>
<ellipse fill="#b59aff" stroke="black" cx="410.37" cy="-180" rx="85.29" ry="18"/>
<text text-anchor="middle" x="410.37" y="-176.3" font-family="Times,serif" font-size="14.00">:data:repository</text>
</g>
<!-- :data:repository&#45;&gt;:data:musicbrainz -->
<g id="edge4" class="edge">
<title>:data:repository&#45;&gt;:data:musicbrainz</title>
<path fill="none" stroke="black" stroke-dasharray="1,5" d="M330.03,-186C330.03,-186 191.94,-186 191.94,-186"/>
<polygon fill="black" stroke="black" points="191.94,-182.5 181.94,-186 191.94,-189.5 191.94,-182.5"/>
</g>
<!-- :ui:common -->
<g id="node6" class="node">
<title>:ui:common</title>
<ellipse fill="#b59aff" stroke="black" cx="410.37" cy="-126" rx="64.19" ry="18"/>
<text text-anchor="middle" x="410.37" y="-122.3" font-family="Times,serif" font-size="14.00">:ui:common</text>
</g>
<!-- :ui:common&#45;&gt;:data:musicbrainz -->
<g id="edge5" class="edge">
<title>:ui:common&#45;&gt;:data:musicbrainz</title>
<path fill="none" stroke="black" stroke-dasharray="1,5" d="M345.75,-126C261.29,-126 124,-126 124,-126 124,-126 124,-152.91 124,-152.91"/>
<polygon fill="black" stroke="black" points="120.5,-152.91 124,-162.91 127.5,-152.91 120.5,-152.91"/>
</g>
<!-- :shared:feature:settings -->
<g id="node7" class="node">
<title>:shared:feature:settings</title>
<ellipse fill="#b59aff" stroke="black" cx="410.37" cy="-72" rx="122.38" ry="18"/>
<text text-anchor="middle" x="410.37" y="-68.3" font-family="Times,serif" font-size="14.00">:shared:feature:settings</text>
</g>
<!-- :shared:feature:settings&#45;&gt;:data:musicbrainz -->
<g id="edge6" class="edge">
<title>:shared:feature:settings&#45;&gt;:data:musicbrainz</title>
<path fill="none" stroke="black" stroke-dasharray="1,5" d="M306,-81.41C306,-106.66 306,-174 306,-174 306,-174 192.13,-174 192.13,-174"/>
<polygon fill="black" stroke="black" points="192.13,-170.5 182.13,-174 192.13,-177.5 192.13,-170.5"/>
</g>
<!-- :shared:feature:details -->
<g id="node8" class="node">
<title>:shared:feature:details</title>
<ellipse fill="#b59aff" stroke="black" cx="410.37" cy="-18" rx="116.18" ry="18"/>
<text text-anchor="middle" x="410.37" y="-14.3" font-family="Times,serif" font-size="14.00">:shared:feature:details</text>
</g>
<!-- :shared:feature:details&#45;&gt;:data:musicbrainz -->
<g id="edge7" class="edge">
<title>:shared:feature:details&#45;&gt;:data:musicbrainz</title>
<path fill="none" stroke="black" stroke-dasharray="1,5" d="M293.89,-18C192.61,-18 62,-18 62,-18 62,-18 62,-152.97 62,-152.97"/>
<polygon fill="black" stroke="black" points="58.5,-152.97 62,-162.97 65.5,-152.97 58.5,-152.97"/>
</g>
</g>
</svg>
