<?xml version="1.0" encoding="UTF-8" standalone="no"?>
<!DOCTYPE svg PUBLIC "-//W3C//DTD SVG 1.1//EN"
 "http://www.w3.org/Graphics/SVG/1.1/DTD/svg11.dtd">
<!-- Generated by graphviz version 2.43.0 (0)
 -->
<!-- Title: %3 Pages: 1 -->
<svg width="368pt" height="392pt"
 viewBox="0.00 0.00 367.93 392.00" xmlns="http://www.w3.org/2000/svg" xmlns:xlink="http://www.w3.org/1999/xlink">
<g id="graph0" class="graph" transform="scale(1 1) rotate(0) translate(4 388)">
<title>%3</title>
<polygon fill="white" stroke="transparent" points="-4,4 -4,-388 363.93,-388 363.93,4 -4,4"/>
<text text-anchor="middle" x="179.97" y="-356" font-family="Times,serif" font-size="30.00">Dependencies</text>
<text text-anchor="middle" x="179.97" y="-323" font-family="Times,serif" font-size="30.00"> </text>
<!-- :data:musicbrainz -->
<g id="node1" class="node">
<title>:data:musicbrainz</title>
<polygon fill="#b59aff" stroke="black" points="248.54,-310 104.54,-310 104.54,-274 248.54,-274 248.54,-310"/>
<text text-anchor="middle" x="176.54" y="-288.3" font-family="Times,serif" font-size="14.00">:data:musicbrainz</text>
</g>
<!-- :shared:domain -->
<g id="node2" class="node">
<title>:shared:domain</title>
<ellipse fill="#b59aff" stroke="black" cx="82.54" cy="-155" rx="82.59" ry="18"/>
<text text-anchor="middle" x="82.54" y="-151.3" font-family="Times,serif" font-size="14.00">:shared:domain</text>
</g>
<!-- :data:musicbrainz&#45;&gt;:shared:domain -->
<g id="edge1" class="edge">
<title>:data:musicbrainz&#45;&gt;:shared:domain</title>
<path fill="none" stroke="black" stroke-dasharray="1,5" d="M134.81,-273.81C134.81,-273.81 134.81,-179.1 134.81,-179.1"/>
<polygon fill="black" stroke="black" points="138.31,-179.1 134.81,-169.1 131.31,-179.1 138.31,-179.1"/>
</g>
<!-- :core:logging:api -->
<g id="node3" class="node">
<title>:core:logging:api</title>
<ellipse fill="#b59aff" stroke="black" cx="271.54" cy="-155" rx="88.28" ry="18"/>
<text text-anchor="middle" x="271.54" y="-151.3" font-family="Times,serif" font-size="14.00">:core:logging:api</text>
</g>
<!-- :data:musicbrainz&#45;&gt;:core:logging:api -->
<g id="edge2" class="edge">
<title>:data:musicbrainz&#45;&gt;:core:logging:api</title>
<path fill="none" stroke="black" stroke-dasharray="1,5" d="M215.85,-273.81C215.85,-273.81 215.85,-179.1 215.85,-179.1"/>
<polygon fill="black" stroke="black" points="219.35,-179.1 215.85,-169.1 212.35,-179.1 219.35,-179.1"/>
</g>
<!-- :core:coroutines -->
<g id="node4" class="node">
<title>:core:coroutines</title>
<ellipse fill="#b59aff" stroke="black" cx="271.54" cy="-18" rx="85.29" ry="18"/>
<text text-anchor="middle" x="271.54" y="-14.3" font-family="Times,serif" font-size="14.00">:core:coroutines</text>
</g>
<!-- :core:logging:api&#45;&gt;:core:coroutines -->
<g id="edge3" class="edge">
<title>:core:logging:api&#45;&gt;:core:coroutines</title>
<path fill="none" stroke="black" d="M271.54,-136.81C271.54,-136.81 271.54,-46.27 271.54,-46.27"/>
<polygon fill="black" stroke="black" points="275.04,-46.27 271.54,-36.27 268.04,-46.27 275.04,-46.27"/>
</g>
</g>
</svg>
