<?xml version="1.0" encoding="UTF-8" standalone="no"?>
<!DOCTYPE svg PUBLIC "-//W3C//DTD SVG 1.1//EN"
 "http://www.w3.org/Graphics/SVG/1.1/DTD/svg11.dtd">
<!-- Generated by graphviz version 2.43.0 (0)
 -->
<!-- Title: %3 Pages: 1 -->
<svg width="423pt" height="334pt"
 viewBox="0.00 0.00 423.28 334.00" xmlns="http://www.w3.org/2000/svg" xmlns:xlink="http://www.w3.org/1999/xlink">
<g id="graph0" class="graph" transform="scale(1 1) rotate(0) translate(4 330)">
<title>%3</title>
<polygon fill="white" stroke="transparent" points="-4,4 -4,-330 419.28,-330 419.28,4 -4,4"/>
<text text-anchor="middle" x="207.64" y="-298" font-family="Times,serif" font-size="30.00">Dependents</text>
<text text-anchor="middle" x="207.64" y="-265" font-family="Times,serif" font-size="30.00"> </text>
<!-- :data:musicbrainz -->
<g id="node1" class="node">
<title>:data:musicbrainz</title>
<polygon fill="#b59aff" stroke="black" points="144,-144 0,-144 0,-108 144,-108 144,-144"/>
<text text-anchor="middle" x="72" y="-122.3" font-family="Times,serif" font-size="14.00">:data:musicbrainz</text>
</g>
<!-- :shared -->
<g id="node2" class="node">
<title>:shared</title>
<ellipse fill="#b59aff" stroke="black" cx="330.14" cy="-234" rx="45.49" ry="18"/>
<text text-anchor="middle" x="330.14" y="-230.3" font-family="Times,serif" font-size="14.00">:shared</text>
</g>
<!-- :shared&#45;&gt;:data:musicbrainz -->
<g id="edge1" class="edge">
<title>:shared&#45;&gt;:data:musicbrainz</title>
<path fill="none" stroke="black" stroke-dasharray="1,5" d="M284.5,-234C204.65,-234 48,-234 48,-234 48,-234 48,-154.32 48,-154.32"/>
<polygon fill="black" stroke="black" points="51.5,-154.32 48,-144.32 44.5,-154.32 51.5,-154.32"/>
</g>
<!-- :test&#45;data -->
<g id="node3" class="node">
<title>:test&#45;data</title>
<ellipse fill="#b59aff" stroke="black" cx="330.14" cy="-180" rx="55.49" ry="18"/>
<text text-anchor="middle" x="330.14" y="-176.3" font-family="Times,serif" font-size="14.00">:test&#45;data</text>
</g>
<!-- :test&#45;data&#45;&gt;:data:musicbrainz -->
<g id="edge2" class="edge">
<title>:test&#45;data&#45;&gt;:data:musicbrainz</title>
<path fill="none" stroke="black" stroke-dasharray="1,5" d="M274.65,-180C205.41,-180 96,-180 96,-180 96,-180 96,-154.28 96,-154.28"/>
<polygon fill="black" stroke="black" points="99.5,-154.28 96,-144.28 92.5,-154.28 99.5,-154.28"/>
</g>
<!-- :data:database -->
<g id="node4" class="node">
<title>:data:database</title>
<ellipse fill="#b59aff" stroke="black" cx="330.14" cy="-126" rx="79.09" ry="18"/>
<text text-anchor="middle" x="330.14" y="-122.3" font-family="Times,serif" font-size="14.00">:data:database</text>
</g>
<!-- :data:database&#45;&gt;:data:musicbrainz -->
<g id="edge3" class="edge">
<title>:data:database&#45;&gt;:data:musicbrainz</title>
<path fill="none" stroke="black" stroke-dasharray="1,5" d="M250.58,-126C250.58,-126 154.27,-126 154.27,-126"/>
<polygon fill="black" stroke="black" points="154.27,-122.5 144.27,-126 154.27,-129.5 154.27,-122.5"/>
</g>
<!-- :data:repository -->
<g id="node5" class="node">
<title>:data:repository</title>
<ellipse fill="#b59aff" stroke="black" cx="330.14" cy="-72" rx="85.29" ry="18"/>
<text text-anchor="middle" x="330.14" y="-68.3" font-family="Times,serif" font-size="14.00">:data:repository</text>
</g>
<!-- :data:repository&#45;&gt;:data:musicbrainz -->
<g id="edge4" class="edge">
<title>:data:repository&#45;&gt;:data:musicbrainz</title>
<path fill="none" stroke="black" stroke-dasharray="1,5" d="M244.95,-72C178,-72 96,-72 96,-72 96,-72 96,-97.72 96,-97.72"/>
<polygon fill="black" stroke="black" points="92.5,-97.72 96,-107.72 99.5,-97.72 92.5,-97.72"/>
</g>
<!-- :ui:common -->
<g id="node6" class="node">
<title>:ui:common</title>
<ellipse fill="#b59aff" stroke="black" cx="330.14" cy="-18" rx="64.19" ry="18"/>
<text text-anchor="middle" x="330.14" y="-14.3" font-family="Times,serif" font-size="14.00">:ui:common</text>
</g>
<!-- :ui:common&#45;&gt;:data:musicbrainz -->
<g id="edge5" class="edge">
<title>:ui:common&#45;&gt;:data:musicbrainz</title>
<path fill="none" stroke="black" stroke-dasharray="1,5" d="M265.77,-18C182.5,-18 48,-18 48,-18 48,-18 48,-97.68 48,-97.68"/>
<polygon fill="black" stroke="black" points="44.5,-97.68 48,-107.68 51.5,-97.68 44.5,-97.68"/>
</g>
</g>
</svg>
