<?xml version="1.0" encoding="UTF-8" standalone="no"?>
<!DOCTYPE svg PUBLIC "-//W3C//DTD SVG 1.1//EN"
 "http://www.w3.org/Graphics/SVG/1.1/DTD/svg11.dtd">
<!-- Generated by graphviz version 2.43.0 (0)
 -->
<!-- Title: %3 Pages: 1 -->
<svg width="497pt" height="442pt"
 viewBox="0.00 0.00 497.38 442.00" xmlns="http://www.w3.org/2000/svg" xmlns:xlink="http://www.w3.org/1999/xlink">
<g id="graph0" class="graph" transform="scale(1 1) rotate(0) translate(4 438)">
<title>%3</title>
<polygon fill="white" stroke="transparent" points="-4,4 -4,-438 493.38,-438 493.38,4 -4,4"/>
<text text-anchor="middle" x="244.69" y="-406" font-family="Times,serif" font-size="30.00">Dependents</text>
<text text-anchor="middle" x="244.69" y="-373" font-family="Times,serif" font-size="30.00"> </text>
<!-- :data:musicbrainz -->
<g id="node1" class="node">
<title>:data:musicbrainz</title>
<polygon fill="#b59aff" stroke="black" points="144,-198 0,-198 0,-162 144,-162 144,-198"/>
<text text-anchor="middle" x="72" y="-176.3" font-family="Times,serif" font-size="14.00">:data:musicbrainz</text>
</g>
<!-- :shared -->
<g id="node2" class="node">
<title>:shared</title>
<ellipse fill="#b59aff" stroke="black" cx="367.19" cy="-342" rx="45.49" ry="18"/>
<text text-anchor="middle" x="367.19" y="-338.3" font-family="Times,serif" font-size="14.00">:shared</text>
</g>
<!-- :shared&#45;&gt;:data:musicbrainz -->
<g id="edge1" class="edge">
<title>:shared&#45;&gt;:data:musicbrainz</title>
<path fill="none" stroke="black" stroke-dasharray="1,5" d="M321.49,-342C230.63,-342 36,-342 36,-342 36,-342 36,-208.27 36,-208.27"/>
<polygon fill="black" stroke="black" points="39.5,-208.27 36,-198.27 32.5,-208.27 39.5,-208.27"/>
</g>
<!-- :test&#45;data -->
<g id="node3" class="node">
<title>:test&#45;data</title>
<ellipse fill="#b59aff" stroke="black" cx="367.19" cy="-288" rx="55.49" ry="18"/>
<text text-anchor="middle" x="367.19" y="-284.3" font-family="Times,serif" font-size="14.00">:test&#45;data</text>
</g>
<!-- :test&#45;data&#45;&gt;:data:musicbrainz -->
<g id="edge2" class="edge">
<title>:test&#45;data&#45;&gt;:data:musicbrainz</title>
<path fill="none" stroke="black" stroke-dasharray="1,5" d="M311.67,-288C226.16,-288 72,-288 72,-288 72,-288 72,-208.32 72,-208.32"/>
<polygon fill="black" stroke="black" points="75.5,-208.32 72,-198.32 68.5,-208.32 75.5,-208.32"/>
</g>
<!-- :data:database -->
<g id="node4" class="node">
<title>:data:database</title>
<ellipse fill="#b59aff" stroke="black" cx="367.19" cy="-234" rx="79.09" ry="18"/>
<text text-anchor="middle" x="367.19" y="-230.3" font-family="Times,serif" font-size="14.00">:data:database</text>
</g>
<!-- :data:database&#45;&gt;:data:musicbrainz -->
<g id="edge3" class="edge">
<title>:data:database&#45;&gt;:data:musicbrainz</title>
<path fill="none" stroke="black" stroke-dasharray="1,5" d="M287.66,-234C211.47,-234 108,-234 108,-234 108,-234 108,-208.28 108,-208.28"/>
<polygon fill="black" stroke="black" points="111.5,-208.28 108,-198.28 104.5,-208.28 111.5,-208.28"/>
</g>
<!-- :data:repository -->
<g id="node5" class="node">
<title>:data:repository</title>
<ellipse fill="#b59aff" stroke="black" cx="367.19" cy="-180" rx="85.29" ry="18"/>
<text text-anchor="middle" x="367.19" y="-176.3" font-family="Times,serif" font-size="14.00">:data:repository</text>
</g>
<!-- :data:repository&#45;&gt;:data:musicbrainz -->
<g id="edge4" class="edge">
<title>:data:repository&#45;&gt;:data:musicbrainz</title>
<path fill="none" stroke="black" stroke-dasharray="1,5" d="M286.53,-186C286.53,-186 154.49,-186 154.49,-186"/>
<polygon fill="black" stroke="black" points="154.49,-182.5 144.49,-186 154.49,-189.5 154.49,-182.5"/>
</g>
<!-- :ui:common -->
<g id="node6" class="node">
<title>:ui:common</title>
<ellipse fill="#b59aff" stroke="black" cx="367.19" cy="-126" rx="64.19" ry="18"/>
<text text-anchor="middle" x="367.19" y="-122.3" font-family="Times,serif" font-size="14.00">:ui:common</text>
</g>
<!-- :ui:common&#45;&gt;:data:musicbrainz -->
<g id="edge5" class="edge">
<title>:ui:common&#45;&gt;:data:musicbrainz</title>
<path fill="none" stroke="black" stroke-dasharray="1,5" d="M302.58,-126C222.36,-126 96,-126 96,-126 96,-126 96,-151.72 96,-151.72"/>
<polygon fill="black" stroke="black" points="92.5,-151.72 96,-161.72 99.5,-151.72 92.5,-151.72"/>
</g>
<!-- :shared:feature:settings -->
<g id="node7" class="node">
<title>:shared:feature:settings</title>
<ellipse fill="#b59aff" stroke="black" cx="367.19" cy="-72" rx="122.38" ry="18"/>
<text text-anchor="middle" x="367.19" y="-68.3" font-family="Times,serif" font-size="14.00">:shared:feature:settings</text>
</g>
<!-- :shared:feature:settings&#45;&gt;:data:musicbrainz -->
<g id="edge6" class="edge">
<title>:shared:feature:settings&#45;&gt;:data:musicbrainz</title>
<path fill="none" stroke="black" stroke-dasharray="1,5" d="M263,-81.41C263,-106.66 263,-174 263,-174 263,-174 154.21,-174 154.21,-174"/>
<polygon fill="black" stroke="black" points="154.21,-170.5 144.21,-174 154.21,-177.5 154.21,-170.5"/>
</g>
<!-- :shared:feature:details -->
<g id="node8" class="node">
<title>:shared:feature:details</title>
<ellipse fill="#b59aff" stroke="black" cx="367.19" cy="-18" rx="116.18" ry="18"/>
<text text-anchor="middle" x="367.19" y="-14.3" font-family="Times,serif" font-size="14.00">:shared:feature:details</text>
</g>
<!-- :shared:feature:details&#45;&gt;:data:musicbrainz -->
<g id="edge7" class="edge">
<title>:shared:feature:details&#45;&gt;:data:musicbrainz</title>
<path fill="none" stroke="black" stroke-dasharray="1,5" d="M250.6,-18C159.42,-18 48,-18 48,-18 48,-18 48,-151.73 48,-151.73"/>
<polygon fill="black" stroke="black" points="44.5,-151.73 48,-161.73 51.5,-151.73 44.5,-151.73"/>
</g>
</g>
</svg>
