<?xml version="1.0" encoding="UTF-8" standalone="no"?>
<!DOCTYPE svg PUBLIC "-//W3C//DTD SVG 1.1//EN"
 "http://www.w3.org/Graphics/SVG/1.1/DTD/svg11.dtd">
<!-- Generated by graphviz version 2.43.0 (0)
 -->
<!-- Title: %3 Pages: 1 -->
<svg width="497pt" height="388pt"
 viewBox="0.00 0.00 497.38 388.00" xmlns="http://www.w3.org/2000/svg" xmlns:xlink="http://www.w3.org/1999/xlink">
<g id="graph0" class="graph" transform="scale(1 1) rotate(0) translate(4 384)">
<title>%3</title>
<polygon fill="white" stroke="transparent" points="-4,4 -4,-384 493.38,-384 493.38,4 -4,4"/>
<text text-anchor="middle" x="244.69" y="-352" font-family="Times,serif" font-size="30.00">Dependents</text>
<text text-anchor="middle" x="244.69" y="-319" font-family="Times,serif" font-size="30.00"> </text>
<!-- :data:musicbrainz -->
<g id="node1" class="node">
<title>:data:musicbrainz</title>
<polygon fill="#b59aff" stroke="black" points="144,-171 0,-171 0,-135 144,-135 144,-171"/>
<text text-anchor="middle" x="72" y="-149.3" font-family="Times,serif" font-size="14.00">:data:musicbrainz</text>
</g>
<!-- :shared -->
<g id="node2" class="node">
<title>:shared</title>
<ellipse fill="#b59aff" stroke="black" cx="367.19" cy="-288" rx="45.49" ry="18"/>
<text text-anchor="middle" x="367.19" y="-284.3" font-family="Times,serif" font-size="14.00">:shared</text>
</g>
<!-- :shared&#45;&gt;:data:musicbrainz -->
<g id="edge1" class="edge">
<title>:shared&#45;&gt;:data:musicbrainz</title>
<path fill="none" stroke="black" stroke-dasharray="1,5" d="M321.46,-288C233.2,-288 48,-288 48,-288 48,-288 48,-181.21 48,-181.21"/>
<polygon fill="black" stroke="black" points="51.5,-181.21 48,-171.21 44.5,-181.21 51.5,-181.21"/>
</g>
<!-- :test&#45;data -->
<g id="node3" class="node">
<title>:test&#45;data</title>
<ellipse fill="#b59aff" stroke="black" cx="367.19" cy="-234" rx="55.49" ry="18"/>
<text text-anchor="middle" x="367.19" y="-230.3" font-family="Times,serif" font-size="14.00">:test&#45;data</text>
</g>
<!-- :test&#45;data&#45;&gt;:data:musicbrainz -->
<g id="edge2" class="edge">
<title>:test&#45;data&#45;&gt;:data:musicbrainz</title>
<path fill="none" stroke="black" stroke-dasharray="1,5" d="M311.66,-234C232.32,-234 96,-234 96,-234 96,-234 96,-181.38 96,-181.38"/>
<polygon fill="black" stroke="black" points="99.5,-181.38 96,-171.38 92.5,-181.38 99.5,-181.38"/>
</g>
<!-- :data:database -->
<g id="node4" class="node">
<title>:data:database</title>
<ellipse fill="#b59aff" stroke="black" cx="367.19" cy="-180" rx="79.09" ry="18"/>
<text text-anchor="middle" x="367.19" y="-176.3" font-family="Times,serif" font-size="14.00">:data:database</text>
</g>
<!-- :data:database&#45;&gt;:data:musicbrainz -->
<g id="edge3" class="edge">
<title>:data:database&#45;&gt;:data:musicbrainz</title>
<path fill="none" stroke="black" stroke-dasharray="1,5" d="M314.42,-166.5C314.42,-166.5 154,-166.5 154,-166.5"/>
<polygon fill="black" stroke="black" points="154,-163 144,-166.5 154,-170 154,-163"/>
</g>
<!-- :data:repository -->
<g id="node5" class="node">
<title>:data:repository</title>
<ellipse fill="#b59aff" stroke="black" cx="367.19" cy="-126" rx="85.29" ry="18"/>
<text text-anchor="middle" x="367.19" y="-122.3" font-family="Times,serif" font-size="14.00">:data:repository</text>
</g>
<!-- :data:repository&#45;&gt;:data:musicbrainz -->
<g id="edge4" class="edge">
<title>:data:repository&#45;&gt;:data:musicbrainz</title>
<path fill="none" stroke="black" stroke-dasharray="1,5" d="M320.09,-141C320.09,-141 154.01,-141 154.01,-141"/>
<polygon fill="black" stroke="black" points="154.01,-137.5 144.01,-141 154.01,-144.5 154.01,-137.5"/>
</g>
<!-- :ui:common -->
<g id="node6" class="node">
<title>:ui:common</title>
<ellipse fill="#b59aff" stroke="black" cx="367.19" cy="-72" rx="64.19" ry="18"/>
<text text-anchor="middle" x="367.19" y="-68.3" font-family="Times,serif" font-size="14.00">:ui:common</text>
</g>
<!-- :ui:common&#45;&gt;:data:musicbrainz -->
<g id="edge5" class="edge">
<title>:ui:common&#45;&gt;:data:musicbrainz</title>
<path fill="none" stroke="black" stroke-dasharray="1,5" d="M302.77,-72C215.92,-72 72,-72 72,-72 72,-72 72,-124.62 72,-124.62"/>
<polygon fill="black" stroke="black" points="68.5,-124.62 72,-134.62 75.5,-124.62 68.5,-124.62"/>
</g>
<!-- :shared:feature:settings -->
<g id="node7" class="node">
<title>:shared:feature:settings</title>
<ellipse fill="#b59aff" stroke="black" cx="367.19" cy="-18" rx="122.38" ry="18"/>
<text text-anchor="middle" x="367.19" y="-14.3" font-family="Times,serif" font-size="14.00">:shared:feature:settings</text>
</g>
<!-- :shared:feature:settings&#45;&gt;:data:musicbrainz -->
<g id="edge6" class="edge">
<title>:shared:feature:settings&#45;&gt;:data:musicbrainz</title>
<path fill="none" stroke="black" stroke-dasharray="1,5" d="M263,-27.42C263,-55.71 263,-138 263,-138 263,-138 154.21,-138 154.21,-138"/>
<polygon fill="black" stroke="black" points="154.21,-134.5 144.21,-138 154.21,-141.5 154.21,-134.5"/>
</g>
</g>
</svg>
