<?xml version="1.0" encoding="UTF-8" standalone="no"?>
<!DOCTYPE svg PUBLIC "-//W3C//DTD SVG 1.1//EN"
 "http://www.w3.org/Graphics/SVG/1.1/DTD/svg11.dtd">
<!-- Generated by graphviz version 2.43.0 (0)
 -->
<!-- Title: %3 Pages: 1 -->
<svg width="1364pt" height="666pt"
 viewBox="0.00 0.00 1363.98 666.00" xmlns="http://www.w3.org/2000/svg" xmlns:xlink="http://www.w3.org/1999/xlink">
<g id="graph0" class="graph" transform="scale(1 1) rotate(0) translate(4 662)">
<title>%3</title>
<polygon fill="white" stroke="transparent" points="-4,4 -4,-662 1359.98,-662 1359.98,4 -4,4"/>
<text text-anchor="middle" x="677.99" y="-630" font-family="Times,serif" font-size="30.00">Dependencies</text>
<text text-anchor="middle" x="677.99" y="-597" font-family="Times,serif" font-size="30.00"> </text>
<!-- :shared:feature:collections -->
<g id="node1" class="node">
<title>:shared:feature:collections</title>
<polygon fill="#b59aff" stroke="black" points="944.14,-584 584.14,-584 584.14,-548 944.14,-548 944.14,-584"/>
<text text-anchor="middle" x="764.14" y="-562.3" font-family="Times,serif" font-size="14.00">:shared:feature:collections</text>
</g>
<!-- :ui:test:screenshot -->
<g id="node2" class="node">
<title>:ui:test:screenshot</title>
<ellipse fill="#9affb5" stroke="black" cx="1259.14" cy="-292" rx="96.68" ry="18"/>
<text text-anchor="middle" x="1259.14" y="-288.3" font-family="Times,serif" font-size="14.00">:ui:test:screenshot</text>
</g>
<!-- :shared:feature:collections&#45;&gt;:ui:test:screenshot -->
<g id="edge1" class="edge">
<title>:shared:feature:collections&#45;&gt;:ui:test:screenshot</title>
<path fill="none" stroke="#ff9ab1" stroke-dasharray="1,5" d="M944.5,-566C1097.19,-566 1291.42,-566 1291.42,-566 1291.42,-566 1291.42,-319.14 1291.42,-319.14"/>
<polygon fill="#ff9ab1" stroke="#ff9ab1" points="1294.92,-319.14 1291.42,-309.14 1287.92,-319.14 1294.92,-319.14"/>
</g>
<!-- :core:models -->
<g id="node3" class="node">
<title>:core:models</title>
<ellipse fill="#b59aff" stroke="black" cx="406.14" cy="-18" rx="69.59" ry="18"/>
<text text-anchor="middle" x="406.14" y="-14.3" font-family="Times,serif" font-size="14.00">:core:models</text>
</g>
<!-- :shared:feature:collections&#45;&gt;:core:models -->
<g id="edge2" class="edge">
<title>:shared:feature:collections&#45;&gt;:core:models</title>
<path fill="none" stroke="black" stroke-dasharray="1,5" d="M583.93,-566C432.09,-566 239.42,-566 239.42,-566 239.42,-566 239.42,-24 239.42,-24 239.42,-24 330.25,-24 330.25,-24"/>
<polygon fill="black" stroke="black" points="330.25,-27.5 340.25,-24 330.25,-20.5 330.25,-27.5"/>
</g>
<!-- :core:preferences -->
<g id="node4" class="node">
<title>:core:preferences</title>
<ellipse fill="#b59aff" stroke="black" cx="116.14" cy="-292" rx="91.78" ry="18"/>
<text text-anchor="middle" x="116.14" y="-288.3" font-family="Times,serif" font-size="14.00">:core:preferences</text>
</g>
<!-- :shared:feature:collections&#45;&gt;:core:preferences -->
<g id="edge3" class="edge">
<title>:shared:feature:collections&#45;&gt;:core:preferences</title>
<path fill="none" stroke="black" stroke-dasharray="1,5" d="M584.09,-575C383.06,-575 85.6,-575 85.6,-575 85.6,-575 85.6,-319.28 85.6,-319.28"/>
<polygon fill="black" stroke="black" points="89.1,-319.28 85.6,-309.28 82.1,-319.28 89.1,-319.28"/>
</g>
<!-- :domain -->
<g id="node5" class="node">
<title>:domain</title>
<ellipse fill="#b59aff" stroke="black" cx="319.14" cy="-155" rx="48.19" ry="18"/>
<text text-anchor="middle" x="319.14" y="-151.3" font-family="Times,serif" font-size="14.00">:domain</text>
</g>
<!-- :shared:feature:collections&#45;&gt;:domain -->
<g id="edge4" class="edge">
<title>:shared:feature:collections&#45;&gt;:domain</title>
<path fill="none" stroke="black" stroke-dasharray="1,5" d="M584.08,-557C451.44,-557 294.06,-557 294.06,-557 294.06,-557 294.06,-180.76 294.06,-180.76"/>
<polygon fill="black" stroke="black" points="297.56,-180.76 294.06,-170.76 290.56,-180.76 297.56,-180.76"/>
</g>
<!-- :strings -->
<g id="node6" class="node">
<title>:strings</title>
<ellipse fill="#b59aff" stroke="black" cx="1196.14" cy="-18" rx="46.29" ry="18"/>
<text text-anchor="middle" x="1196.14" y="-14.3" font-family="Times,serif" font-size="14.00">:strings</text>
</g>
<!-- :shared:feature:collections&#45;&gt;:strings -->
<g id="edge5" class="edge">
<title>:shared:feature:collections&#45;&gt;:strings</title>
<path fill="none" stroke="black" stroke-dasharray="1,5" d="M944.5,-575C948.2,-575 950.27,-575 950.27,-575 950.27,-575 950.27,-30 950.27,-30 950.27,-30 1151.7,-30 1151.7,-30"/>
<polygon fill="black" stroke="black" points="1151.7,-33.5 1161.7,-30 1151.7,-26.5 1151.7,-33.5"/>
</g>
<!-- :ui:common -->
<g id="node7" class="node">
<title>:ui:common</title>
<ellipse fill="#b59aff" stroke="black" cx="764.14" cy="-429" rx="64.19" ry="18"/>
<text text-anchor="middle" x="764.14" y="-425.3" font-family="Times,serif" font-size="14.00">:ui:common</text>
</g>
<!-- :shared:feature:collections&#45;&gt;:ui:common -->
<g id="edge6" class="edge">
<title>:shared:feature:collections&#45;&gt;:ui:common</title>
<path fill="none" stroke="black" stroke-dasharray="1,5" d="M764.14,-547.81C764.14,-547.81 764.14,-457.27 764.14,-457.27"/>
<polygon fill="black" stroke="black" points="767.64,-457.27 764.14,-447.27 760.64,-457.27 767.64,-457.27"/>
</g>
<!-- :ui:core -->
<g id="node8" class="node">
<title>:ui:core</title>
<ellipse fill="#b59aff" stroke="black" cx="1196.14" cy="-155" rx="45.49" ry="18"/>
<text text-anchor="middle" x="1196.14" y="-151.3" font-family="Times,serif" font-size="14.00">:ui:core</text>
</g>
<!-- :shared:feature:collections&#45;&gt;:ui:core -->
<g id="edge7" class="edge">
<title>:shared:feature:collections&#45;&gt;:ui:core</title>
<path fill="none" stroke="black" stroke-dasharray="1,5" d="M944.26,-557C1048.16,-557 1158.42,-557 1158.42,-557 1158.42,-557 1158.42,-175.34 1158.42,-175.34"/>
<polygon fill="black" stroke="black" points="1161.92,-175.34 1158.42,-165.34 1154.92,-175.34 1161.92,-175.34"/>
</g>
<!-- :ui:test:screenshot&#45;&gt;:ui:core -->
<g id="edge8" class="edge">
<title>:ui:test:screenshot&#45;&gt;:ui:core</title>
<path fill="none" stroke="red" d="M1201.97,-277.34C1201.97,-277.34 1201.97,-183.01 1201.97,-183.01"/>
<polygon fill="red" stroke="red" points="1205.47,-183.01 1201.97,-173.01 1198.47,-183.01 1205.47,-183.01"/>
</g>
<!-- :core:preferences&#45;&gt;:core:models -->
<g id="edge10" class="edge">
<title>:core:preferences&#45;&gt;:core:models</title>
<path fill="none" stroke="black" stroke-dasharray="1,5" d="M189.03,-281.02C189.03,-229.26 189.03,-12 189.03,-12 189.03,-12 330.41,-12 330.41,-12"/>
<polygon fill="black" stroke="black" points="330.41,-15.5 340.41,-12 330.41,-8.5 330.41,-15.5"/>
</g>
<!-- :core:coroutines -->
<g id="node9" class="node">
<title>:core:coroutines</title>
<ellipse fill="#b59aff" stroke="black" cx="85.14" cy="-155" rx="85.29" ry="18"/>
<text text-anchor="middle" x="85.14" y="-151.3" font-family="Times,serif" font-size="14.00">:core:coroutines</text>
</g>
<!-- :core:preferences&#45;&gt;:core:coroutines -->
<g id="edge9" class="edge">
<title>:core:preferences&#45;&gt;:core:coroutines</title>
<path fill="none" stroke="black" stroke-dasharray="1,5" d="M97.39,-274.37C97.39,-274.37 97.39,-183 97.39,-183"/>
<polygon fill="black" stroke="black" points="100.89,-183 97.39,-173 93.89,-183 100.89,-183"/>
</g>
<!-- :domain&#45;&gt;:core:models -->
<g id="edge11" class="edge">
<title>:domain&#45;&gt;:core:models</title>
<path fill="none" stroke="black" stroke-dasharray="1,5" d="M351.92,-141.61C351.92,-141.61 351.92,-39.29 351.92,-39.29"/>
<polygon fill="black" stroke="black" points="355.42,-39.29 351.92,-29.29 348.42,-39.29 355.42,-39.29"/>
</g>
<!-- :ui:common&#45;&gt;:ui:test:screenshot -->
<g id="edge13" class="edge">
<title>:ui:common&#45;&gt;:ui:test:screenshot</title>
<path fill="none" stroke="#ff9ab1" d="M819.96,-438C943.03,-438 1226.86,-438 1226.86,-438 1226.86,-438 1226.86,-319.03 1226.86,-319.03"/>
<polygon fill="#ff9ab1" stroke="#ff9ab1" points="1230.36,-319.03 1226.86,-309.03 1223.36,-319.03 1230.36,-319.03"/>
</g>
<!-- :ui:common&#45;&gt;:core:models -->
<g id="edge14" class="edge">
<title>:ui:common&#45;&gt;:core:models</title>
<path fill="none" stroke="black" d="M772.84,-411.08C772.84,-331.27 772.84,-12 772.84,-12 772.84,-12 482.12,-12 482.12,-12"/>
<polygon fill="black" stroke="black" points="482.12,-8.5 472.12,-12 482.12,-15.5 482.12,-8.5"/>
</g>
<!-- :ui:common&#45;&gt;:core:preferences -->
<g id="edge17" class="edge">
<title>:ui:common&#45;&gt;:core:preferences</title>
<path fill="none" stroke="black" stroke-dasharray="1,5" d="M708.26,-438C556.27,-438 146.69,-438 146.69,-438 146.69,-438 146.69,-319.03 146.69,-319.03"/>
<polygon fill="black" stroke="black" points="150.19,-319.03 146.69,-309.03 143.19,-319.03 150.19,-319.03"/>
</g>
<!-- :ui:common&#45;&gt;:domain -->
<g id="edge19" class="edge">
<title>:ui:common&#45;&gt;:domain</title>
<path fill="none" stroke="black" stroke-dasharray="1,5" d="M699.61,-429C575.81,-429 317.08,-429 317.08,-429 317.08,-429 317.08,-183.4 317.08,-183.4"/>
<polygon fill="black" stroke="black" points="320.58,-183.4 317.08,-173.4 313.58,-183.4 320.58,-183.4"/>
</g>
<!-- :ui:common&#45;&gt;:strings -->
<g id="edge20" class="edge">
<title>:ui:common&#45;&gt;:strings</title>
<path fill="none" stroke="black" stroke-dasharray="1,5" d="M791.39,-412.62C791.39,-336.85 791.39,-24 791.39,-24 791.39,-24 1142.44,-24 1142.44,-24"/>
<polygon fill="black" stroke="black" points="1142.44,-27.5 1152.44,-24 1142.44,-20.5 1142.44,-27.5"/>
</g>
<!-- :ui:common&#45;&gt;:ui:core -->
<g id="edge21" class="edge">
<title>:ui:common&#45;&gt;:ui:core</title>
<path fill="none" stroke="red" d="M828.61,-429C939.49,-429 1154.53,-429 1154.53,-429 1154.53,-429 1154.53,-172.33 1154.53,-172.33"/>
<polygon fill="red" stroke="red" points="1158.03,-172.33 1154.53,-162.33 1151.03,-172.33 1158.03,-172.33"/>
</g>
<!-- :ui:test:image -->
<g id="node10" class="node">
<title>:ui:test:image</title>
<ellipse fill="#9affb5" stroke="black" cx="1031.14" cy="-292" rx="74.99" ry="18"/>
<text text-anchor="middle" x="1031.14" y="-288.3" font-family="Times,serif" font-size="14.00">:ui:test:image</text>
</g>
<!-- :ui:common&#45;&gt;:ui:test:image -->
<g id="edge12" class="edge">
<title>:ui:common&#45;&gt;:ui:test:image</title>
<path fill="none" stroke="#ff9ab1" d="M820.11,-420C898.41,-420 1031.14,-420 1031.14,-420 1031.14,-420 1031.14,-320.07 1031.14,-320.07"/>
<polygon fill="#ff9ab1" stroke="#ff9ab1" points="1034.64,-320.07 1031.14,-310.07 1027.64,-320.07 1034.64,-320.07"/>
</g>
<!-- :data:coverart -->
<g id="node11" class="node">
<title>:data:coverart</title>
<ellipse fill="#b59aff" stroke="black" cx="416.14" cy="-292" rx="76.09" ry="18"/>
<text text-anchor="middle" x="416.14" y="-288.3" font-family="Times,serif" font-size="14.00">:data:coverart</text>
</g>
<!-- :ui:common&#45;&gt;:data:coverart -->
<g id="edge15" class="edge">
<title>:ui:common&#45;&gt;:data:coverart</title>
<path fill="none" stroke="orange" d="M708.23,-420C609.86,-420 416.14,-420 416.14,-420 416.14,-420 416.14,-320.07 416.14,-320.07"/>
<polygon fill="orange" stroke="orange" points="419.64,-320.07 416.14,-310.07 412.64,-320.07 419.64,-320.07"/>
</g>
<!-- :data:musicbrainz -->
<g id="node12" class="node">
<title>:data:musicbrainz</title>
<ellipse fill="#b59aff" stroke="black" cx="642.14" cy="-292" rx="93.68" ry="18"/>
<text text-anchor="middle" x="642.14" y="-288.3" font-family="Times,serif" font-size="14.00">:data:musicbrainz</text>
</g>
<!-- :ui:common&#45;&gt;:data:musicbrainz -->
<g id="edge16" class="edge">
<title>:ui:common&#45;&gt;:data:musicbrainz</title>
<path fill="none" stroke="orange" d="M717.77,-416.36C717.77,-416.36 717.77,-312.69 717.77,-312.69"/>
<polygon fill="orange" stroke="orange" points="721.27,-312.69 717.77,-302.69 714.27,-312.69 721.27,-312.69"/>
</g>
<!-- :core:logging:api -->
<g id="node13" class="node">
<title>:core:logging:api</title>
<ellipse fill="#b59aff" stroke="black" cx="522.14" cy="-155" rx="88.28" ry="18"/>
<text text-anchor="middle" x="522.14" y="-151.3" font-family="Times,serif" font-size="14.00">:core:logging:api</text>
</g>
<!-- :ui:common&#45;&gt;:core:logging:api -->
<g id="edge18" class="edge">
<title>:ui:common&#45;&gt;:core:logging:api</title>
<path fill="none" stroke="black" stroke-dasharray="1,5" d="M754.28,-411C754.28,-350.91 754.28,-161 754.28,-161 754.28,-161 615.62,-161 615.62,-161"/>
<polygon fill="black" stroke="black" points="615.62,-157.5 605.62,-161 615.62,-164.5 615.62,-157.5"/>
</g>
<!-- :ui:image -->
<g id="node14" class="node">
<title>:ui:image</title>
<ellipse fill="#b59aff" stroke="black" cx="884.14" cy="-292" rx="53.89" ry="18"/>
<text text-anchor="middle" x="884.14" y="-288.3" font-family="Times,serif" font-size="14.00">:ui:image</text>
</g>
<!-- :ui:common&#45;&gt;:ui:image -->
<g id="edge22" class="edge">
<title>:ui:common&#45;&gt;:ui:image</title>
<path fill="none" stroke="red" d="M809.94,-416.11C809.94,-382.01 809.94,-292 809.94,-292 809.94,-292 819.82,-292 819.82,-292"/>
<polygon fill="red" stroke="red" points="819.82,-295.5 829.82,-292 819.82,-288.5 819.82,-295.5"/>
</g>
<!-- :ui:core&#45;&gt;:strings -->
<g id="edge23" class="edge">
<title>:ui:core&#45;&gt;:strings</title>
<path fill="none" stroke="black" d="M1196.14,-136.81C1196.14,-136.81 1196.14,-46.27 1196.14,-46.27"/>
<polygon fill="black" stroke="black" points="1199.64,-46.27 1196.14,-36.27 1192.64,-46.27 1199.64,-46.27"/>
</g>
<!-- :data:coverart&#45;&gt;:core:models -->
<g id="edge25" class="edge">
<title>:data:coverart&#45;&gt;:core:models</title>
<path fill="none" stroke="black" stroke-dasharray="1,5" d="M400.49,-274.02C400.49,-274.02 400.49,-46.04 400.49,-46.04"/>
<polygon fill="black" stroke="black" points="403.99,-46.04 400.49,-36.04 396.99,-46.04 403.99,-46.04"/>
</g>
<!-- :data:coverart&#45;&gt;:domain -->
<g id="edge26" class="edge">
<title>:data:coverart&#45;&gt;:domain</title>
<path fill="none" stroke="black" stroke-dasharray="1,5" d="M353.67,-281.7C353.67,-281.7 353.67,-177.77 353.67,-177.77"/>
<polygon fill="black" stroke="black" points="357.17,-177.77 353.67,-167.77 350.17,-177.77 357.17,-177.77"/>
</g>
<!-- :data:coverart&#45;&gt;:core:logging:api -->
<g id="edge24" class="edge">
<title>:data:coverart&#45;&gt;:core:logging:api</title>
<path fill="none" stroke="black" stroke-dasharray="1,5" d="M462.97,-277.6C462.97,-277.6 462.97,-178.4 462.97,-178.4"/>
<polygon fill="black" stroke="black" points="466.47,-178.4 462.97,-168.4 459.47,-178.4 466.47,-178.4"/>
</g>
<!-- :data:musicbrainz&#45;&gt;:core:models -->
<g id="edge28" class="edge">
<title>:data:musicbrainz&#45;&gt;:core:models</title>
<path fill="none" stroke="black" stroke-dasharray="1,5" d="M673.13,-274.86C673.13,-214.87 673.13,-18 673.13,-18 673.13,-18 485.94,-18 485.94,-18"/>
<polygon fill="black" stroke="black" points="485.94,-14.5 475.94,-18 485.94,-21.5 485.94,-14.5"/>
</g>
<!-- :data:musicbrainz&#45;&gt;:core:logging:api -->
<g id="edge27" class="edge">
<title>:data:musicbrainz&#45;&gt;:core:logging:api</title>
<path fill="none" stroke="black" stroke-dasharray="1,5" d="M579.54,-278.61C579.54,-278.61 579.54,-179.05 579.54,-179.05"/>
<polygon fill="black" stroke="black" points="583.04,-179.05 579.54,-169.05 576.04,-179.05 583.04,-179.05"/>
</g>
<!-- :ui:image&#45;&gt;:core:models -->
<g id="edge29" class="edge">
<title>:ui:image&#45;&gt;:core:models</title>
<path fill="none" stroke="black" stroke-dasharray="1,5" d="M866.16,-274.91C866.16,-213.12 866.16,-5 866.16,-5 866.16,-5 464.5,-5 464.5,-5"/>
<polygon fill="black" stroke="black" points="464.5,-1.5 454.5,-5 464.5,-8.5 464.5,-1.5"/>
</g>
<!-- :ui:image&#45;&gt;:ui:core -->
<g id="edge30" class="edge">
<title>:ui:image&#45;&gt;:ui:core</title>
<path fill="none" stroke="red" d="M902.12,-274.75C902.12,-236.72 902.12,-149 902.12,-149 902.12,-149 1143.07,-149 1143.07,-149"/>
<polygon fill="red" stroke="red" points="1143.07,-152.5 1153.07,-149 1143.07,-145.5 1143.07,-152.5"/>
</g>
</g>
</svg>
