<?xml version="1.0" encoding="UTF-8" standalone="no"?>
<!DOCTYPE svg PUBLIC "-//W3C//DTD SVG 1.1//EN"
 "http://www.w3.org/Graphics/SVG/1.1/DTD/svg11.dtd">
<!-- Generated by graphviz version 11.0.0 (20240428.1522)
 -->
<!-- Pages: 1 -->
<svg width="1191pt" height="668pt"
 viewBox="0.00 0.00 1190.74 667.50" xmlns="http://www.w3.org/2000/svg" xmlns:xlink="http://www.w3.org/1999/xlink">
<g id="graph0" class="graph" transform="scale(1 1) rotate(0) translate(4 663.5)">
<polygon fill="white" stroke="none" points="-4,4 -4,-663.5 1186.74,-663.5 1186.74,4 -4,4"/>
<text text-anchor="middle" x="591.37" y="-627" font-family="Times,serif" font-size="30.00">collections</text>
<text text-anchor="middle" x="591.37" y="-593.25" font-family="Times,serif" font-size="30.00"> </text>
<!-- :shared:feature:collections -->
<g id="node1" class="node">
<title>:shared:feature:collections</title>
<polygon fill="#b59aff" stroke="black" points="852.29,-584 492.29,-584 492.29,-548 852.29,-548 852.29,-584"/>
<text text-anchor="middle" x="672.29" y="-560.95" font-family="Times,serif" font-size="14.00">:shared:feature:collections</text>
</g>
<!-- :ui:test:screenshot -->
<g id="node2" class="node">
<title>:ui:test:screenshot</title>
<ellipse fill="#9affb5" stroke="black" cx="1105.29" cy="-292" rx="77.45" ry="18"/>
<text text-anchor="middle" x="1105.29" y="-286.95" font-family="Times,serif" font-size="14.00">:ui:test:screenshot</text>
</g>
<!-- :shared:feature:collections&#45;&gt;:ui:test:screenshot -->
<g id="edge1" class="edge">
<title>:shared:feature:collections&#45;&gt;:ui:test:screenshot</title>
<path fill="none" stroke="#ff9ab1" stroke-dasharray="1,5" d="M852.64,-572C981.11,-572 1131.11,-572 1131.11,-572 1131.11,-572 1131.11,-320.61 1131.11,-320.61"/>
<polygon fill="#ff9ab1" stroke="#ff9ab1" points="1134.61,-320.61 1131.11,-310.61 1127.61,-320.61 1134.61,-320.61"/>
</g>
<!-- :core:models -->
<g id="node3" class="node">
<title>:core:models</title>
<ellipse fill="#b59aff" stroke="black" cx="361.29" cy="-18" rx="59.03" ry="18"/>
<text text-anchor="middle" x="361.29" y="-12.95" font-family="Times,serif" font-size="14.00">:core:models</text>
</g>
<!-- :shared:feature:collections&#45;&gt;:core:models -->
<g id="edge2" class="edge">
<title>:shared:feature:collections&#45;&gt;:core:models</title>
<path fill="none" stroke="black" stroke-dasharray="1,5" d="M733.41,-547.5C733.41,-451.03 733.41,-10 733.41,-10 733.41,-10 426.12,-10 426.12,-10"/>
<polygon fill="black" stroke="black" points="426.12,-6.5 416.12,-10 426.12,-13.5 426.12,-6.5"/>
</g>
<!-- :core:preferences -->
<g id="node4" class="node">
<title>:core:preferences</title>
<ellipse fill="#b59aff" stroke="black" cx="104.29" cy="-292" rx="74.38" ry="18"/>
<text text-anchor="middle" x="104.29" y="-286.95" font-family="Times,serif" font-size="14.00">:core:preferences</text>
</g>
<!-- :shared:feature:collections&#45;&gt;:core:preferences -->
<g id="edge3" class="edge">
<title>:shared:feature:collections&#45;&gt;:core:preferences</title>
<path fill="none" stroke="black" stroke-dasharray="1,5" d="M492.02,-572C317.61,-572 79.49,-572 79.49,-572 79.49,-572 79.49,-320.61 79.49,-320.61"/>
<polygon fill="black" stroke="black" points="82.99,-320.61 79.49,-310.61 75.99,-320.61 82.99,-320.61"/>
</g>
<!-- :domain -->
<g id="node5" class="node">
<title>:domain</title>
<ellipse fill="#b59aff" stroke="black" cx="286.29" cy="-155" rx="41.63" ry="18"/>
<text text-anchor="middle" x="286.29" y="-149.95" font-family="Times,serif" font-size="14.00">:domain</text>
</g>
<!-- :shared:feature:collections&#45;&gt;:domain -->
<g id="edge4" class="edge">
<title>:shared:feature:collections&#45;&gt;:domain</title>
<path fill="none" stroke="black" stroke-dasharray="1,5" d="M492.02,-560C383.69,-560 266.67,-560 266.67,-560 266.67,-560 266.67,-182.64 266.67,-182.64"/>
<polygon fill="black" stroke="black" points="270.17,-182.64 266.67,-172.64 263.17,-182.64 270.17,-182.64"/>
</g>
<!-- :strings -->
<g id="node6" class="node">
<title>:strings</title>
<ellipse fill="#b59aff" stroke="black" cx="1052.29" cy="-18" rx="38.04" ry="18"/>
<text text-anchor="middle" x="1052.29" y="-12.95" font-family="Times,serif" font-size="14.00">:strings</text>
</g>
<!-- :shared:feature:collections&#45;&gt;:strings -->
<g id="edge5" class="edge">
<title>:shared:feature:collections&#45;&gt;:strings</title>
<path fill="none" stroke="black" stroke-dasharray="1,5" d="M839.61,-547.55C839.61,-453.3 839.61,-30 839.61,-30 839.61,-30 1011.65,-30 1011.65,-30"/>
<polygon fill="black" stroke="black" points="1011.65,-33.5 1021.65,-30 1011.65,-26.5 1011.65,-33.5"/>
</g>
<!-- :ui:common -->
<g id="node7" class="node">
<title>:ui:common</title>
<ellipse fill="#b59aff" stroke="black" cx="672.29" cy="-429" rx="56.47" ry="18"/>
<text text-anchor="middle" x="672.29" y="-423.95" font-family="Times,serif" font-size="14.00">:ui:common</text>
</g>
<!-- :shared:feature:collections&#45;&gt;:ui:common -->
<g id="edge6" class="edge">
<title>:shared:feature:collections&#45;&gt;:ui:common</title>
<path fill="none" stroke="black" stroke-dasharray="1,5" d="M672.29,-547.52C672.29,-547.52 672.29,-458.7 672.29,-458.7"/>
<polygon fill="black" stroke="black" points="675.79,-458.7 672.29,-448.7 668.79,-458.7 675.79,-458.7"/>
</g>
<!-- :ui:core -->
<g id="node8" class="node">
<title>:ui:core</title>
<ellipse fill="#b59aff" stroke="black" cx="1052.29" cy="-155" rx="39.07" ry="18"/>
<text text-anchor="middle" x="1052.29" y="-149.95" font-family="Times,serif" font-size="14.00">:ui:core</text>
</g>
<!-- :shared:feature:collections&#45;&gt;:ui:core -->
<g id="edge7" class="edge">
<title>:shared:feature:collections&#45;&gt;:ui:core</title>
<path fill="none" stroke="black" stroke-dasharray="1,5" d="M852.76,-560C938.69,-560 1022.96,-560 1022.96,-560 1022.96,-560 1022.96,-178.63 1022.96,-178.63"/>
<polygon fill="black" stroke="black" points="1026.46,-178.63 1022.96,-168.63 1019.46,-178.63 1026.46,-178.63"/>
</g>
<!-- :ui:test:screenshot&#45;&gt;:ui:core -->
<g id="edge8" class="edge">
<title>:ui:test:screenshot&#45;&gt;:ui:core</title>
<path fill="none" stroke="red" d="M1059.6,-277.08C1059.6,-277.08 1059.6,-184.44 1059.6,-184.44"/>
<polygon fill="red" stroke="red" points="1063.1,-184.44 1059.6,-174.44 1056.1,-184.44 1063.1,-184.44"/>
</g>
<!-- :core:preferences&#45;&gt;:core:models -->
<g id="edge10" class="edge">
<title>:core:preferences&#45;&gt;:core:models</title>
<path fill="none" stroke="black" stroke-dasharray="1,5" d="M159.62,-279.87C159.62,-226.85 159.62,-18 159.62,-18 159.62,-18 290.36,-18 290.36,-18"/>
<polygon fill="black" stroke="black" points="290.36,-21.5 300.36,-18 290.36,-14.5 290.36,-21.5"/>
</g>
<!-- :core:coroutines -->
<g id="node9" class="node">
<title>:core:coroutines</title>
<ellipse fill="#b59aff" stroke="black" cx="70.29" cy="-155" rx="70.29" ry="18"/>
<text text-anchor="middle" x="70.29" y="-149.95" font-family="Times,serif" font-size="14.00">:core:coroutines</text>
</g>
<!-- :core:preferences&#45;&gt;:core:coroutines -->
<g id="edge9" class="edge">
<title>:core:preferences&#45;&gt;:core:coroutines</title>
<path fill="none" stroke="black" stroke-dasharray="1,5" d="M85.24,-274.37C85.24,-274.37 85.24,-184.51 85.24,-184.51"/>
<polygon fill="black" stroke="black" points="88.74,-184.51 85.24,-174.51 81.74,-184.51 88.74,-184.51"/>
</g>
<!-- :domain&#45;&gt;:core:models -->
<g id="edge11" class="edge">
<title>:domain&#45;&gt;:core:models</title>
<path fill="none" stroke="black" stroke-dasharray="1,5" d="M315.09,-141.61C315.09,-141.61 315.09,-40.8 315.09,-40.8"/>
<polygon fill="black" stroke="black" points="318.59,-40.8 315.09,-30.8 311.59,-40.8 318.59,-40.8"/>
</g>
<!-- :ui:common&#45;&gt;:ui:test:screenshot -->
<g id="edge13" class="edge">
<title>:ui:common&#45;&gt;:ui:test:screenshot</title>
<path fill="none" stroke="#ff9ab1" d="M721.81,-438C830.32,-438 1079.47,-438 1079.47,-438 1079.47,-438 1079.47,-320.83 1079.47,-320.83"/>
<polygon fill="#ff9ab1" stroke="#ff9ab1" points="1082.97,-320.83 1079.47,-310.83 1075.97,-320.84 1082.97,-320.83"/>
</g>
<!-- :ui:common&#45;&gt;:core:models -->
<g id="edge14" class="edge">
<title>:ui:common&#45;&gt;:core:models</title>
<path fill="none" stroke="black" d="M678.04,-410.68C678.04,-330.56 678.04,-15 678.04,-15 678.04,-15 431.27,-15 431.27,-15"/>
<polygon fill="black" stroke="black" points="431.27,-11.5 421.27,-15 431.27,-18.5 431.27,-11.5"/>
</g>
<!-- :ui:common&#45;&gt;:core:preferences -->
<g id="edge17" class="edge">
<title>:ui:common&#45;&gt;:core:preferences</title>
<path fill="none" stroke="black" stroke-dasharray="1,5" d="M622.64,-438C488.55,-438 129.08,-438 129.08,-438 129.08,-438 129.08,-320.83 129.08,-320.83"/>
<polygon fill="black" stroke="black" points="132.58,-320.83 129.08,-310.83 125.58,-320.84 132.58,-320.83"/>
</g>
<!-- :ui:common&#45;&gt;:domain -->
<g id="edge19" class="edge">
<title>:ui:common&#45;&gt;:domain</title>
<path fill="none" stroke="black" stroke-dasharray="1,5" d="M615.69,-429C508.98,-429 288.69,-429 288.69,-429 288.69,-429 288.69,-184.92 288.69,-184.92"/>
<polygon fill="black" stroke="black" points="292.19,-184.92 288.69,-174.92 285.19,-184.92 292.19,-184.92"/>
</g>
<!-- :ui:common&#45;&gt;:strings -->
<g id="edge20" class="edge">
<title>:ui:common&#45;&gt;:strings</title>
<path fill="none" stroke="black" stroke-dasharray="1,5" d="M694.95,-412.15C694.95,-335.69 694.95,-25 694.95,-25 694.95,-25 1005.21,-25 1005.21,-25"/>
<polygon fill="black" stroke="black" points="1005.21,-28.5 1015.21,-25 1005.21,-21.5 1005.21,-28.5"/>
</g>
<!-- :ui:common&#45;&gt;:ui:core -->
<g id="edge21" class="edge">
<title>:ui:common&#45;&gt;:ui:core</title>
<path fill="none" stroke="red" d="M729,-429C827.11,-429 1018.09,-429 1018.09,-429 1018.09,-429 1018.09,-175.63 1018.09,-175.63"/>
<polygon fill="red" stroke="red" points="1021.59,-175.63 1018.09,-165.63 1014.59,-175.63 1021.59,-175.63"/>
</g>
<!-- :ui:test:image -->
<g id="node10" class="node">
<title>:ui:test:image</title>
<ellipse fill="#9affb5" stroke="black" cx="910.29" cy="-292" rx="61.59" ry="18"/>
<text text-anchor="middle" x="910.29" y="-286.95" font-family="Times,serif" font-size="14.00">:ui:test:image</text>
</g>
<!-- :ui:common&#45;&gt;:ui:test:image -->
<g id="edge12" class="edge">
<title>:ui:common&#45;&gt;:ui:test:image</title>
<path fill="none" stroke="#ff9ab1" d="M721.97,-420C792.21,-420 912.08,-420 912.08,-420 912.08,-420 912.08,-321.85 912.08,-321.85"/>
<polygon fill="#ff9ab1" stroke="#ff9ab1" points="915.58,-321.85 912.08,-311.85 908.58,-321.85 915.58,-321.85"/>
</g>
<!-- :data:coverart -->
<g id="node11" class="node">
<title>:data:coverart</title>
<ellipse fill="#b59aff" stroke="black" cx="372.29" cy="-292" rx="61.59" ry="18"/>
<text text-anchor="middle" x="372.29" y="-286.95" font-family="Times,serif" font-size="14.00">:data:coverart</text>
</g>
<!-- :ui:common&#45;&gt;:data:coverart -->
<g id="edge15" class="edge">
<title>:ui:common&#45;&gt;:data:coverart</title>
<path fill="none" stroke="orange" d="M622.75,-420C537.54,-420 372.29,-420 372.29,-420 372.29,-420 372.29,-321.85 372.29,-321.85"/>
<polygon fill="orange" stroke="orange" points="375.79,-321.85 372.29,-311.85 368.79,-321.85 375.79,-321.85"/>
</g>
<!-- :data:musicbrainz -->
<g id="node12" class="node">
<title>:data:musicbrainz</title>
<ellipse fill="#b59aff" stroke="black" cx="567.29" cy="-292" rx="76.94" ry="18"/>
<text text-anchor="middle" x="567.29" y="-286.95" font-family="Times,serif" font-size="14.00">:data:musicbrainz</text>
</g>
<!-- :ui:common&#45;&gt;:data:musicbrainz -->
<g id="edge16" class="edge">
<title>:ui:common&#45;&gt;:data:musicbrainz</title>
<path fill="none" stroke="orange" d="M630.02,-416.84C630.02,-416.84 630.02,-314.3 630.02,-314.3"/>
<polygon fill="orange" stroke="orange" points="633.52,-314.3 630.02,-304.3 626.52,-314.3 633.52,-314.3"/>
</g>
<!-- :core:logging:api -->
<g id="node13" class="node">
<title>:core:logging:api</title>
<ellipse fill="#b59aff" stroke="black" cx="463.29" cy="-155" rx="73.87" ry="18"/>
<text text-anchor="middle" x="463.29" y="-149.95" font-family="Times,serif" font-size="14.00">:core:logging:api</text>
</g>
<!-- :ui:common&#45;&gt;:core:logging:api -->
<g id="edge18" class="edge">
<title>:ui:common&#45;&gt;:core:logging:api</title>
<path fill="none" stroke="black" stroke-dasharray="1,5" d="M661.14,-411C661.14,-350.91 661.14,-161 661.14,-161 661.14,-161 545.11,-161 545.11,-161"/>
<polygon fill="black" stroke="black" points="545.11,-157.5 535.11,-161 545.11,-164.5 545.11,-157.5"/>
</g>
<!-- :ui:image -->
<g id="node14" class="node">
<title>:ui:image</title>
<ellipse fill="#b59aff" stroke="black" cx="784.29" cy="-292" rx="46.23" ry="18"/>
<text text-anchor="middle" x="784.29" y="-286.95" font-family="Times,serif" font-size="14.00">:ui:image</text>
</g>
<!-- :ui:common&#45;&gt;:ui:image -->
<g id="edge22" class="edge">
<title>:ui:common&#45;&gt;:ui:image</title>
<path fill="none" stroke="red" d="M711.85,-415.86C711.85,-381.57 711.85,-292 711.85,-292 711.85,-292 726.08,-292 726.08,-292"/>
<polygon fill="red" stroke="red" points="726.08,-295.5 736.08,-292 726.08,-288.5 726.08,-295.5"/>
</g>
<!-- :ui:core&#45;&gt;:strings -->
<g id="edge23" class="edge">
<title>:ui:core&#45;&gt;:strings</title>
<path fill="none" stroke="black" d="M1052.29,-136.52C1052.29,-136.52 1052.29,-47.7 1052.29,-47.7"/>
<polygon fill="black" stroke="black" points="1055.79,-47.7 1052.29,-37.7 1048.79,-47.7 1055.79,-47.7"/>
</g>
<!-- :data:coverart&#45;&gt;:core:models -->
<g id="edge25" class="edge">
<title>:data:coverart&#45;&gt;:core:models</title>
<path fill="none" stroke="black" stroke-dasharray="1,5" d="M358.67,-274.02C358.67,-274.02 358.67,-47.92 358.67,-47.92"/>
<polygon fill="black" stroke="black" points="362.17,-47.92 358.67,-37.92 355.17,-47.92 362.17,-47.92"/>
</g>
<!-- :data:coverart&#45;&gt;:domain -->
<g id="edge26" class="edge">
<title>:data:coverart&#45;&gt;:domain</title>
<path fill="none" stroke="black" stroke-dasharray="1,5" d="M319.31,-282.58C319.31,-282.58 319.31,-177.89 319.31,-177.89"/>
<polygon fill="black" stroke="black" points="322.81,-177.89 319.31,-167.89 315.81,-177.89 322.81,-177.89"/>
</g>
<!-- :data:coverart&#45;&gt;:core:logging:api -->
<g id="edge24" class="edge">
<title>:data:coverart&#45;&gt;:core:logging:api</title>
<path fill="none" stroke="black" stroke-dasharray="1,5" d="M411.65,-277.85C411.65,-277.85 411.65,-179.57 411.65,-179.57"/>
<polygon fill="black" stroke="black" points="415.15,-179.57 411.65,-169.57 408.15,-179.57 415.15,-179.57"/>
</g>
<!-- :data:musicbrainz&#45;&gt;:core:models -->
<g id="edge28" class="edge">
<title>:data:musicbrainz&#45;&gt;:core:models</title>
<path fill="none" stroke="black" stroke-dasharray="1,5" d="M590.69,-274.57C590.69,-214.54 590.69,-20 590.69,-20 590.69,-20 431.88,-20 431.88,-20"/>
<polygon fill="black" stroke="black" points="431.88,-16.5 421.88,-20 431.88,-23.5 431.88,-16.5"/>
</g>
<!-- :data:musicbrainz&#45;&gt;:core:logging:api -->
<g id="edge27" class="edge">
<title>:data:musicbrainz&#45;&gt;:core:logging:api</title>
<path fill="none" stroke="black" stroke-dasharray="1,5" d="M513.75,-278.86C513.75,-278.86 513.75,-179.81 513.75,-179.81"/>
<polygon fill="black" stroke="black" points="517.25,-179.81 513.75,-169.81 510.25,-179.81 517.25,-179.81"/>
</g>
<!-- :ui:image&#45;&gt;:core:models -->
<g id="edge29" class="edge">
<title>:ui:image&#45;&gt;:core:models</title>
<path fill="none" stroke="black" stroke-dasharray="1,5" d="M768.88,-274.91C768.88,-213.12 768.88,-5 768.88,-5 768.88,-5 414.89,-5 414.89,-5"/>
<polygon fill="black" stroke="black" points="414.89,-1.5 404.89,-5 414.89,-8.5 414.89,-1.5"/>
</g>
<!-- :ui:image&#45;&gt;:ui:core -->
<g id="edge30" class="edge">
<title>:ui:image&#45;&gt;:ui:core</title>
<path fill="none" stroke="red" d="M799.7,-274.75C799.7,-236.72 799.7,-149 799.7,-149 799.7,-149 1003.5,-149 1003.5,-149"/>
<polygon fill="red" stroke="red" points="1003.5,-152.5 1013.5,-149 1003.5,-145.5 1003.5,-152.5"/>
</g>
</g>
</svg>
