<?xml version="1.0" encoding="UTF-8" standalone="no"?>
<!DOCTYPE svg PUBLIC "-//W3C//DTD SVG 1.1//EN"
 "http://www.w3.org/Graphics/SVG/1.1/DTD/svg11.dtd">
<!-- Generated by graphviz version 2.43.0 (0)
 -->
<!-- Title: %3 Pages: 1 -->
<svg width="1002pt" height="1077pt"
 viewBox="0.00 0.00 1002.14 1077.00" xmlns="http://www.w3.org/2000/svg" xmlns:xlink="http://www.w3.org/1999/xlink">
<g id="graph0" class="graph" transform="scale(1 1) rotate(0) translate(4 1073)">
<title>%3</title>
<polygon fill="white" stroke="transparent" points="-4,4 -4,-1073 998.14,-1073 998.14,4 -4,4"/>
<text text-anchor="middle" x="497.07" y="-1041" font-family="Times,serif" font-size="30.00">Dependencies</text>
<text text-anchor="middle" x="497.07" y="-1008" font-family="Times,serif" font-size="30.00"> </text>
<!-- :shared:feature:collections -->
<g id="node1" class="node">
<title>:shared:feature:collections</title>
<polygon fill="#b59aff" stroke="black" points="206,-995 0,-995 0,-959 206,-959 206,-995"/>
<text text-anchor="middle" x="103" y="-973.3" font-family="Times,serif" font-size="14.00">:shared:feature:collections</text>
</g>
<!-- :ui:test:screenshot -->
<g id="node2" class="node">
<title>:ui:test:screenshot</title>
<ellipse fill="#9affb5" stroke="black" cx="103" cy="-703" rx="96.68" ry="18"/>
<text text-anchor="middle" x="103" y="-699.3" font-family="Times,serif" font-size="14.00">:ui:test:screenshot</text>
</g>
<!-- :shared:feature:collections&#45;&gt;:ui:test:screenshot -->
<g id="edge1" class="edge">
<title>:shared:feature:collections&#45;&gt;:ui:test:screenshot</title>
<path fill="none" stroke="#ff9ab1" stroke-dasharray="1,5" d="M70.72,-958.6C70.72,-958.6 70.72,-730.26 70.72,-730.26"/>
<polygon fill="#ff9ab1" stroke="#ff9ab1" points="74.22,-730.26 70.72,-720.26 67.22,-730.26 74.22,-730.26"/>
</g>
<!-- :ui:common -->
<g id="node3" class="node">
<title>:ui:common</title>
<ellipse fill="#b59aff" stroke="black" cx="351" cy="-840" rx="64.19" ry="18"/>
<text text-anchor="middle" x="351" y="-836.3" font-family="Times,serif" font-size="14.00">:ui:common</text>
</g>
<!-- :shared:feature:collections&#45;&gt;:ui:common -->
<g id="edge2" class="edge">
<title>:shared:feature:collections&#45;&gt;:ui:common</title>
<path fill="none" stroke="black" stroke-dasharray="1,5" d="M206.02,-971C274.16,-971 351,-971 351,-971 351,-971 351,-868.21 351,-868.21"/>
<polygon fill="black" stroke="black" points="354.5,-868.21 351,-858.21 347.5,-868.22 354.5,-868.21"/>
</g>
<!-- :shared:domain -->
<g id="node4" class="node">
<title>:shared:domain</title>
<ellipse fill="#b59aff" stroke="black" cx="415" cy="-155" rx="82.59" ry="18"/>
<text text-anchor="middle" x="415" y="-151.3" font-family="Times,serif" font-size="14.00">:shared:domain</text>
</g>
<!-- :shared:feature:collections&#45;&gt;:shared:domain -->
<g id="edge3" class="edge">
<title>:shared:feature:collections&#45;&gt;:shared:domain</title>
<path fill="none" stroke="black" stroke-dasharray="1,5" d="M206.19,-983C307.99,-983 448.47,-983 448.47,-983 448.47,-983 448.47,-181.54 448.47,-181.54"/>
<polygon fill="black" stroke="black" points="451.98,-181.54 448.47,-171.54 444.98,-181.54 451.98,-181.54"/>
</g>
<!-- :ui:core -->
<g id="node5" class="node">
<title>:ui:core</title>
<ellipse fill="#b59aff" stroke="black" cx="340" cy="-566" rx="45.49" ry="18"/>
<text text-anchor="middle" x="340" y="-562.3" font-family="Times,serif" font-size="14.00">:ui:core</text>
</g>
<!-- :ui:test:screenshot&#45;&gt;:ui:core -->
<g id="edge4" class="edge">
<title>:ui:test:screenshot&#45;&gt;:ui:core</title>
<path fill="none" stroke="black" stroke-dasharray="1,5" d="M182.94,-692.7C182.94,-660.84 182.94,-566 182.94,-566 182.94,-566 284.15,-566 284.15,-566"/>
<polygon fill="black" stroke="black" points="284.15,-569.5 294.15,-566 284.15,-562.5 284.15,-569.5"/>
</g>
<!-- :test:image -->
<g id="node6" class="node">
<title>:test:image</title>
<ellipse fill="#9affb5" stroke="black" cx="103" cy="-566" rx="63.09" ry="18"/>
<text text-anchor="middle" x="103" y="-562.3" font-family="Times,serif" font-size="14.00">:test:image</text>
</g>
<!-- :ui:test:screenshot&#45;&gt;:test:image -->
<g id="edge5" class="edge">
<title>:ui:test:screenshot&#45;&gt;:test:image</title>
<path fill="none" stroke="black" stroke-dasharray="1,5" d="M103,-684.81C103,-684.81 103,-594.27 103,-594.27"/>
<polygon fill="black" stroke="black" points="106.5,-594.27 103,-584.27 99.5,-594.27 106.5,-594.27"/>
</g>
<!-- :ui:common&#45;&gt;:ui:test:screenshot -->
<g id="edge7" class="edge">
<title>:ui:common&#45;&gt;:ui:test:screenshot</title>
<path fill="none" stroke="#ff9ab1" stroke-dasharray="1,5" d="M286.57,-840C223,-840 135.28,-840 135.28,-840 135.28,-840 135.28,-730.07 135.28,-730.07"/>
<polygon fill="#ff9ab1" stroke="#ff9ab1" points="138.78,-730.07 135.28,-720.07 131.78,-730.07 138.78,-730.07"/>
</g>
<!-- :ui:common&#45;&gt;:shared:domain -->
<g id="edge9" class="edge">
<title>:ui:common&#45;&gt;:shared:domain</title>
<path fill="none" stroke="black" d="M406.89,-831C426.56,-831 443.86,-831 443.86,-831 443.86,-831 443.86,-182.05 443.86,-182.05"/>
<polygon fill="black" stroke="black" points="447.36,-182.05 443.86,-172.05 440.36,-182.05 447.36,-182.05"/>
</g>
<!-- :ui:common&#45;&gt;:ui:core -->
<g id="edge10" class="edge">
<title>:ui:common&#45;&gt;:ui:core</title>
<path fill="none" stroke="black" d="M374.72,-822.86C374.72,-822.86 374.72,-587.92 374.72,-587.92"/>
<polygon fill="black" stroke="black" points="378.22,-587.92 374.72,-577.92 371.22,-587.92 378.22,-587.92"/>
</g>
<!-- :test&#45;data -->
<g id="node7" class="node">
<title>:test&#45;data</title>
<ellipse fill="#b59aff" stroke="black" cx="748" cy="-703" rx="55.49" ry="18"/>
<text text-anchor="middle" x="748" y="-699.3" font-family="Times,serif" font-size="14.00">:test&#45;data</text>
</g>
<!-- :ui:common&#45;&gt;:test&#45;data -->
<g id="edge6" class="edge">
<title>:ui:common&#45;&gt;:test&#45;data</title>
<path fill="none" stroke="#ff9ab1" stroke-dasharray="1,5" d="M400.42,-828.28C400.42,-796.84 400.42,-713 400.42,-713 400.42,-713 691.84,-713 691.84,-713"/>
<polygon fill="#ff9ab1" stroke="#ff9ab1" points="691.84,-716.5 701.84,-713 691.84,-709.5 691.84,-716.5"/>
</g>
<!-- :core:coroutines -->
<g id="node8" class="node">
<title>:core:coroutines</title>
<ellipse fill="#b59aff" stroke="black" cx="909" cy="-18" rx="85.29" ry="18"/>
<text text-anchor="middle" x="909" y="-14.3" font-family="Times,serif" font-size="14.00">:core:coroutines</text>
</g>
<!-- :ui:common&#45;&gt;:core:coroutines -->
<g id="edge8" class="edge">
<title>:ui:common&#45;&gt;:core:coroutines</title>
<path fill="none" stroke="#ff9ab1" stroke-dasharray="1,5" d="M406.89,-849C559.44,-849 971.59,-849 971.59,-849 971.59,-849 971.59,-40.39 971.59,-40.39"/>
<polygon fill="#ff9ab1" stroke="#ff9ab1" points="975.09,-40.39 971.59,-30.39 968.09,-40.39 975.09,-40.39"/>
</g>
<!-- :core:logging:api -->
<g id="node9" class="node">
<title>:core:logging:api</title>
<ellipse fill="#b59aff" stroke="black" cx="793" cy="-155" rx="88.28" ry="18"/>
<text text-anchor="middle" x="793" y="-151.3" font-family="Times,serif" font-size="14.00">:core:logging:api</text>
</g>
<!-- :ui:common&#45;&gt;:core:logging:api -->
<g id="edge11" class="edge">
<title>:ui:common&#45;&gt;:core:logging:api</title>
<path fill="none" stroke="black" stroke-dasharray="1,5" d="M415.48,-840C552.89,-840 862.14,-840 862.14,-840 862.14,-840 862.14,-176.32 862.14,-176.32"/>
<polygon fill="black" stroke="black" points="865.64,-176.32 862.14,-166.32 858.64,-176.32 865.64,-176.32"/>
</g>
<!-- :ui:image -->
<g id="node10" class="node">
<title>:ui:image</title>
<ellipse fill="#b59aff" stroke="black" cx="310" cy="-703" rx="53.89" ry="18"/>
<text text-anchor="middle" x="310" y="-699.3" font-family="Times,serif" font-size="14.00">:ui:image</text>
</g>
<!-- :ui:common&#45;&gt;:ui:image -->
<g id="edge12" class="edge">
<title>:ui:common&#45;&gt;:ui:image</title>
<path fill="none" stroke="black" stroke-dasharray="1,5" d="M325.3,-823.47C325.3,-823.47 325.3,-730.45 325.3,-730.45"/>
<polygon fill="black" stroke="black" points="328.8,-730.45 325.3,-720.45 321.8,-730.45 328.8,-730.45"/>
</g>
<!-- :shared:strings -->
<g id="node11" class="node">
<title>:shared:strings</title>
<ellipse fill="#b59aff" stroke="black" cx="358" cy="-429" rx="81.49" ry="18"/>
<text text-anchor="middle" x="358" y="-425.3" font-family="Times,serif" font-size="14.00">:shared:strings</text>
</g>
<!-- :ui:core&#45;&gt;:shared:strings -->
<g id="edge13" class="edge">
<title>:ui:core&#45;&gt;:shared:strings</title>
<path fill="none" stroke="black" d="M340,-547.81C340,-547.81 340,-456.83 340,-456.83"/>
<polygon fill="black" stroke="black" points="343.5,-456.83 340,-446.83 336.5,-456.83 343.5,-456.83"/>
</g>
<!-- :test&#45;data&#45;&gt;:shared:domain -->
<g id="edge14" class="edge">
<title>:test&#45;data&#45;&gt;:shared:domain</title>
<path fill="none" stroke="black" stroke-dasharray="1,5" d="M693.22,-706C607.94,-706 453.09,-706 453.09,-706 453.09,-706 453.09,-181.19 453.09,-181.19"/>
<polygon fill="black" stroke="black" points="456.59,-181.19 453.09,-171.19 449.59,-181.19 456.59,-181.19"/>
</g>
<!-- :test&#45;data&#45;&gt;:core:coroutines -->
<g id="edge15" class="edge">
<title>:test&#45;data&#45;&gt;:core:coroutines</title>
<path fill="none" stroke="black" stroke-dasharray="1,5" d="M800.3,-709C859.86,-709 949.04,-709 949.04,-709 949.04,-709 949.04,-44.06 949.04,-44.06"/>
<polygon fill="black" stroke="black" points="952.54,-44.06 949.04,-34.06 945.54,-44.06 952.54,-44.06"/>
</g>
<!-- :data:database -->
<g id="node12" class="node">
<title>:data:database</title>
<ellipse fill="#b59aff" stroke="black" cx="537" cy="-429" rx="79.09" ry="18"/>
<text text-anchor="middle" x="537" y="-425.3" font-family="Times,serif" font-size="14.00">:data:database</text>
</g>
<!-- :test&#45;data&#45;&gt;:data:database -->
<g id="edge16" class="edge">
<title>:test&#45;data&#45;&gt;:data:database</title>
<path fill="none" stroke="black" stroke-dasharray="1,5" d="M693.94,-699C631.42,-699 537,-699 537,-699 537,-699 537,-457.13 537,-457.13"/>
<polygon fill="black" stroke="black" points="540.5,-457.13 537,-447.13 533.5,-457.13 540.5,-457.13"/>
</g>
<!-- :data:musicbrainz -->
<g id="node13" class="node">
<title>:data:musicbrainz</title>
<ellipse fill="#b59aff" stroke="black" cx="594" cy="-292" rx="93.68" ry="18"/>
<text text-anchor="middle" x="594" y="-288.3" font-family="Times,serif" font-size="14.00">:data:musicbrainz</text>
</g>
<!-- :test&#45;data&#45;&gt;:data:musicbrainz -->
<g id="edge17" class="edge">
<title>:test&#45;data&#45;&gt;:data:musicbrainz</title>
<path fill="none" stroke="black" stroke-dasharray="1,5" d="M704.25,-692C675.86,-692 644.12,-692 644.12,-692 644.12,-692 644.12,-317.68 644.12,-317.68"/>
<polygon fill="black" stroke="black" points="647.62,-317.68 644.12,-307.68 640.62,-317.68 647.62,-317.68"/>
</g>
<!-- :data:coverart -->
<g id="node14" class="node">
<title>:data:coverart</title>
<ellipse fill="#b59aff" stroke="black" cx="748" cy="-566" rx="76.09" ry="18"/>
<text text-anchor="middle" x="748" y="-562.3" font-family="Times,serif" font-size="14.00">:data:coverart</text>
</g>
<!-- :test&#45;data&#45;&gt;:data:coverart -->
<g id="edge18" class="edge">
<title>:test&#45;data&#45;&gt;:data:coverart</title>
<path fill="none" stroke="black" stroke-dasharray="1,5" d="M729.58,-685.93C729.58,-685.93 729.58,-593.72 729.58,-593.72"/>
<polygon fill="black" stroke="black" points="733.09,-593.72 729.58,-583.72 726.09,-593.72 733.09,-593.72"/>
</g>
<!-- :data:spotify -->
<g id="node15" class="node">
<title>:data:spotify</title>
<ellipse fill="#b59aff" stroke="black" cx="774" cy="-292" rx="68.79" ry="18"/>
<text text-anchor="middle" x="774" y="-288.3" font-family="Times,serif" font-size="14.00">:data:spotify</text>
</g>
<!-- :test&#45;data&#45;&gt;:data:spotify -->
<g id="edge19" class="edge">
<title>:test&#45;data&#45;&gt;:data:spotify</title>
<path fill="none" stroke="black" stroke-dasharray="1,5" d="M800.18,-697C817.97,-697 833.47,-697 833.47,-697 833.47,-697 833.47,-311.22 833.47,-311.22"/>
<polygon fill="black" stroke="black" points="836.97,-311.22 833.47,-301.22 829.97,-311.22 836.97,-311.22"/>
</g>
<!-- :core:logging:api&#45;&gt;:core:coroutines -->
<g id="edge20" class="edge">
<title>:core:logging:api&#45;&gt;:core:coroutines</title>
<path fill="none" stroke="black" d="M852.62,-141.61C852.62,-141.61 852.62,-41.64 852.62,-41.64"/>
<polygon fill="black" stroke="black" points="856.12,-41.64 852.62,-31.64 849.12,-41.64 856.12,-41.64"/>
</g>
<!-- :ui:image&#45;&gt;:shared:domain -->
<g id="edge21" class="edge">
<title>:ui:image&#45;&gt;:shared:domain</title>
<path fill="none" stroke="black" stroke-dasharray="1,5" d="M266.41,-692.05C266.41,-614.82 266.41,-155 266.41,-155 266.41,-155 322.45,-155 322.45,-155"/>
<polygon fill="black" stroke="black" points="322.45,-158.5 332.45,-155 322.45,-151.5 322.45,-158.5"/>
</g>
<!-- :ui:image&#45;&gt;:ui:core -->
<g id="edge22" class="edge">
<title>:ui:image&#45;&gt;:ui:core</title>
<path fill="none" stroke="black" stroke-dasharray="1,5" d="M329.22,-685.93C329.22,-685.93 329.22,-593.72 329.22,-593.72"/>
<polygon fill="black" stroke="black" points="332.72,-593.72 329.22,-583.72 325.72,-593.72 332.72,-593.72"/>
</g>
<!-- :data:database&#45;&gt;:shared:domain -->
<g id="edge23" class="edge">
<title>:data:database&#45;&gt;:shared:domain</title>
<path fill="none" stroke="black" stroke-dasharray="1,5" d="M470.99,-418.92C470.99,-418.92 470.99,-178.26 470.99,-178.26"/>
<polygon fill="black" stroke="black" points="474.49,-178.26 470.99,-168.26 467.49,-178.26 474.49,-178.26"/>
</g>
<!-- :data:database&#45;&gt;:core:coroutines -->
<g id="edge24" class="edge">
<title>:data:database&#45;&gt;:core:coroutines</title>
<path fill="none" stroke="black" stroke-dasharray="1,5" d="M612.14,-423C719.5,-423 903.94,-423 903.94,-423 903.94,-423 903.94,-46.19 903.94,-46.19"/>
<polygon fill="black" stroke="black" points="907.44,-46.19 903.94,-36.19 900.44,-46.19 907.44,-46.19"/>
</g>
<!-- :data:database&#45;&gt;:data:musicbrainz -->
<g id="edge25" class="edge">
<title>:data:database&#45;&gt;:data:musicbrainz</title>
<path fill="none" stroke="black" stroke-dasharray="1,5" d="M558.35,-411.65C558.35,-411.65 558.35,-318.78 558.35,-318.78"/>
<polygon fill="black" stroke="black" points="561.85,-318.78 558.35,-308.78 554.85,-318.78 561.85,-318.78"/>
</g>
<!-- :data:musicbrainz&#45;&gt;:shared:domain -->
<g id="edge26" class="edge">
<title>:data:musicbrainz&#45;&gt;:shared:domain</title>
<path fill="none" stroke="black" stroke-dasharray="1,5" d="M499.99,-292C490.49,-292 484.26,-292 484.26,-292 484.26,-292 484.26,-174.85 484.26,-174.85"/>
<polygon fill="black" stroke="black" points="487.76,-174.85 484.26,-164.85 480.76,-174.85 487.76,-174.85"/>
</g>
<!-- :data:musicbrainz&#45;&gt;:core:logging:api -->
<g id="edge27" class="edge">
<title>:data:musicbrainz&#45;&gt;:core:logging:api</title>
<path fill="none" stroke="black" stroke-dasharray="1,5" d="M594,-273.8C594,-238.69 594,-165 594,-165 594,-165 709.47,-165 709.47,-165"/>
<polygon fill="black" stroke="black" points="709.47,-168.5 719.47,-165 709.47,-161.5 709.47,-168.5"/>
</g>
<!-- :data:coverart&#45;&gt;:shared:domain -->
<g id="edge28" class="edge">
<title>:data:coverart&#45;&gt;:shared:domain</title>
<path fill="none" stroke="black" stroke-dasharray="1,5" d="M691.85,-553.79C691.85,-485.9 691.85,-158 691.85,-158 691.85,-158 506.57,-158 506.57,-158"/>
<polygon fill="black" stroke="black" points="506.57,-154.5 496.57,-158 506.57,-161.5 506.57,-154.5"/>
</g>
<!-- :data:coverart&#45;&gt;:test&#45;data -->
<g id="edge31" class="edge">
<title>:data:coverart&#45;&gt;:test&#45;data</title>
<path fill="none" stroke="#ff9ab1" stroke-dasharray="1,5" d="M766.42,-583.63C766.42,-583.63 766.42,-675.87 766.42,-675.87"/>
<polygon fill="#ff9ab1" stroke="#ff9ab1" points="762.92,-675.87 766.42,-685.87 769.92,-675.87 762.92,-675.87"/>
</g>
<!-- :data:coverart&#45;&gt;:core:coroutines -->
<g id="edge30" class="edge">
<title>:data:coverart&#45;&gt;:core:coroutines</title>
<path fill="none" stroke="black" stroke-dasharray="1,5" d="M824.21,-566C872.73,-566 926.49,-566 926.49,-566 926.49,-566 926.49,-45.92 926.49,-45.92"/>
<polygon fill="black" stroke="black" points="929.99,-45.92 926.49,-35.92 922.99,-45.92 929.99,-45.92"/>
</g>
<!-- :data:coverart&#45;&gt;:core:logging:api -->
<g id="edge29" class="edge">
<title>:data:coverart&#45;&gt;:core:logging:api</title>
<path fill="none" stroke="black" stroke-dasharray="1,5" d="M696.1,-552.44C696.1,-480.21 696.1,-144 696.1,-144 696.1,-144 712.83,-144 712.83,-144"/>
<polygon fill="black" stroke="black" points="712.83,-147.5 722.83,-144 712.83,-140.5 712.83,-147.5"/>
</g>
<!-- :data:coverart&#45;&gt;:data:database -->
<g id="edge33" class="edge">
<title>:data:coverart&#45;&gt;:data:database</title>
<path fill="none" stroke="#ff9ab1" stroke-dasharray="1,5" d="M677.17,-559.32C677.17,-532.63 677.17,-435 677.17,-435 677.17,-435 622.01,-435 622.01,-435"/>
<polygon fill="#ff9ab1" stroke="#ff9ab1" points="622.01,-431.5 612.01,-435 622.01,-438.5 622.01,-431.5"/>
</g>
<!-- :data:coverart&#45;&gt;:data:musicbrainz -->
<g id="edge32" class="edge">
<title>:data:coverart&#45;&gt;:data:musicbrainz</title>
<path fill="none" stroke="#ff9ab1" stroke-dasharray="1,5" d="M682.38,-556.88C682.38,-556.88 682.38,-308.32 682.38,-308.32"/>
<polygon fill="#ff9ab1" stroke="#ff9ab1" points="685.88,-308.32 682.38,-298.32 678.88,-308.32 685.88,-308.32"/>
</g>
<!-- :data:spotify&#45;&gt;:shared:domain -->
<g id="edge34" class="edge">
<title>:data:spotify&#45;&gt;:shared:domain</title>
<path fill="none" stroke="black" stroke-dasharray="1,5" d="M704.74,-292C701.98,-292 700.35,-292 700.35,-292 700.35,-292 700.35,-151 700.35,-151 700.35,-151 505.63,-151 505.63,-151"/>
<polygon fill="black" stroke="black" points="505.63,-147.5 495.63,-151 505.63,-154.5 505.63,-147.5"/>
</g>
<!-- :data:spotify&#45;&gt;:core:logging:api -->
<g id="edge35" class="edge">
<title>:data:spotify&#45;&gt;:core:logging:api</title>
<path fill="none" stroke="black" stroke-dasharray="1,5" d="M774,-273.81C774,-273.81 774,-182.83 774,-182.83"/>
<polygon fill="black" stroke="black" points="777.5,-182.83 774,-172.83 770.5,-182.83 777.5,-182.83"/>
</g>
</g>
</svg>
