<?xml version="1.0" encoding="UTF-8" standalone="no"?>
<!DOCTYPE svg PUBLIC "-//W3C//DTD SVG 1.1//EN"
 "http://www.w3.org/Graphics/SVG/1.1/DTD/svg11.dtd">
<!-- Generated by graphviz version 2.43.0 (0)
 -->
<!-- Title: %3 Pages: 1 -->
<svg width="1136pt" height="1077pt"
 viewBox="0.00 0.00 1135.59 1077.00" xmlns="http://www.w3.org/2000/svg" xmlns:xlink="http://www.w3.org/1999/xlink">
<g id="graph0" class="graph" transform="scale(1 1) rotate(0) translate(4 1073)">
<title>%3</title>
<polygon fill="white" stroke="transparent" points="-4,4 -4,-1073 1131.59,-1073 1131.59,4 -4,4"/>
<text text-anchor="middle" x="563.8" y="-1041" font-family="Times,serif" font-size="30.00">Dependencies</text>
<text text-anchor="middle" x="563.8" y="-1008" font-family="Times,serif" font-size="30.00"> </text>
<!-- :shared:feature:collections -->
<g id="node1" class="node">
<title>:shared:feature:collections</title>
<polygon fill="#b59aff" stroke="black" points="206,-995 0,-995 0,-959 206,-959 206,-995"/>
<text text-anchor="middle" x="103" y="-973.3" font-family="Times,serif" font-size="14.00">:shared:feature:collections</text>
</g>
<!-- :ui:test:screenshot -->
<g id="node2" class="node">
<title>:ui:test:screenshot</title>
<ellipse fill="#9affb5" stroke="black" cx="103" cy="-703" rx="96.68" ry="18"/>
<text text-anchor="middle" x="103" y="-699.3" font-family="Times,serif" font-size="14.00">:ui:test:screenshot</text>
</g>
<!-- :shared:feature:collections&#45;&gt;:ui:test:screenshot -->
<g id="edge1" class="edge">
<title>:shared:feature:collections&#45;&gt;:ui:test:screenshot</title>
<path fill="none" stroke="#ff9ab1" stroke-dasharray="1,5" d="M70.72,-958.6C70.72,-958.6 70.72,-730.26 70.72,-730.26"/>
<polygon fill="#ff9ab1" stroke="#ff9ab1" points="74.22,-730.26 70.72,-720.26 67.22,-730.26 74.22,-730.26"/>
</g>
<!-- :ui:common -->
<g id="node3" class="node">
<title>:ui:common</title>
<ellipse fill="#b59aff" stroke="black" cx="442" cy="-840" rx="64.19" ry="18"/>
<text text-anchor="middle" x="442" y="-836.3" font-family="Times,serif" font-size="14.00">:ui:common</text>
</g>
<!-- :shared:feature:collections&#45;&gt;:ui:common -->
<g id="edge2" class="edge">
<title>:shared:feature:collections&#45;&gt;:ui:common</title>
<path fill="none" stroke="black" stroke-dasharray="1,5" d="M206.09,-971C305.83,-971 442,-971 442,-971 442,-971 442,-868.21 442,-868.21"/>
<polygon fill="black" stroke="black" points="445.5,-868.21 442,-858.21 438.5,-868.22 445.5,-868.21"/>
</g>
<!-- :shared:domain -->
<g id="node4" class="node">
<title>:shared:domain</title>
<ellipse fill="#b59aff" stroke="black" cx="436" cy="-18" rx="82.59" ry="18"/>
<text text-anchor="middle" x="436" y="-14.3" font-family="Times,serif" font-size="14.00">:shared:domain</text>
</g>
<!-- :shared:feature:collections&#45;&gt;:shared:domain -->
<g id="edge3" class="edge">
<title>:shared:feature:collections&#45;&gt;:shared:domain</title>
<path fill="none" stroke="black" stroke-dasharray="1,5" d="M206.1,-983C217.38,-983 224.88,-983 224.88,-983 224.88,-983 224.88,-18 224.88,-18 224.88,-18 343.17,-18 343.17,-18"/>
<polygon fill="black" stroke="black" points="343.17,-21.5 353.17,-18 343.17,-14.5 343.17,-21.5"/>
</g>
<!-- :ui:core -->
<g id="node5" class="node">
<title>:ui:core</title>
<ellipse fill="#b59aff" stroke="black" cx="325" cy="-566" rx="45.49" ry="18"/>
<text text-anchor="middle" x="325" y="-562.3" font-family="Times,serif" font-size="14.00">:ui:core</text>
</g>
<!-- :ui:test:screenshot&#45;&gt;:ui:core -->
<g id="edge4" class="edge">
<title>:ui:test:screenshot&#45;&gt;:ui:core</title>
<path fill="none" stroke="black" stroke-dasharray="1,5" d="M174.94,-690.84C174.94,-657.31 174.94,-566 174.94,-566 174.94,-566 269.16,-566 269.16,-566"/>
<polygon fill="black" stroke="black" points="269.16,-569.5 279.16,-566 269.16,-562.5 269.16,-569.5"/>
</g>
<!-- :test:image -->
<g id="node6" class="node">
<title>:test:image</title>
<ellipse fill="#9affb5" stroke="black" cx="87" cy="-566" rx="63.09" ry="18"/>
<text text-anchor="middle" x="87" y="-562.3" font-family="Times,serif" font-size="14.00">:test:image</text>
</g>
<!-- :ui:test:screenshot&#45;&gt;:test:image -->
<g id="edge5" class="edge">
<title>:ui:test:screenshot&#45;&gt;:test:image</title>
<path fill="none" stroke="black" stroke-dasharray="1,5" d="M87,-685.09C87,-685.09 87,-594.35 87,-594.35"/>
<polygon fill="black" stroke="black" points="90.5,-594.35 87,-584.35 83.5,-594.35 90.5,-594.35"/>
</g>
<!-- :ui:common&#45;&gt;:ui:test:screenshot -->
<g id="edge7" class="edge">
<title>:ui:common&#45;&gt;:ui:test:screenshot</title>
<path fill="none" stroke="#ff9ab1" stroke-dasharray="1,5" d="M377.33,-840C287.34,-840 135.28,-840 135.28,-840 135.28,-840 135.28,-730.07 135.28,-730.07"/>
<polygon fill="#ff9ab1" stroke="#ff9ab1" points="138.78,-730.07 135.28,-720.07 131.78,-730.07 138.78,-730.07"/>
</g>
<!-- :ui:common&#45;&gt;:shared:domain -->
<g id="edge9" class="edge">
<title>:ui:common&#45;&gt;:shared:domain</title>
<path fill="none" stroke="black" d="M425.45,-822.45C425.45,-822.45 425.45,-46.09 425.45,-46.09"/>
<polygon fill="black" stroke="black" points="428.95,-46.09 425.45,-36.09 421.95,-46.09 428.95,-46.09"/>
</g>
<!-- :ui:common&#45;&gt;:ui:core -->
<g id="edge10" class="edge">
<title>:ui:common&#45;&gt;:ui:core</title>
<path fill="none" stroke="black" d="M397.14,-826.78C397.14,-772.05 397.14,-566 397.14,-566 397.14,-566 380.69,-566 380.69,-566"/>
<polygon fill="black" stroke="black" points="380.69,-562.5 370.69,-566 380.69,-569.5 380.69,-562.5"/>
</g>
<!-- :test&#45;data -->
<g id="node7" class="node">
<title>:test&#45;data</title>
<ellipse fill="#b59aff" stroke="black" cx="738" cy="-566" rx="55.49" ry="18"/>
<text text-anchor="middle" x="738" y="-562.3" font-family="Times,serif" font-size="14.00">:test&#45;data</text>
</g>
<!-- :ui:common&#45;&gt;:test&#45;data -->
<g id="edge6" class="edge">
<title>:ui:common&#45;&gt;:test&#45;data</title>
<path fill="none" stroke="#ff9ab1" stroke-dasharray="1,5" d="M506.52,-840C579.65,-840 688.81,-840 688.81,-840 688.81,-840 688.81,-584.2 688.81,-584.2"/>
<polygon fill="#ff9ab1" stroke="#ff9ab1" points="692.31,-584.2 688.81,-574.2 685.31,-584.2 692.31,-584.2"/>
</g>
<!-- :core:coroutines -->
<g id="node8" class="node">
<title>:core:coroutines</title>
<ellipse fill="#b59aff" stroke="black" cx="549" cy="-155" rx="85.29" ry="18"/>
<text text-anchor="middle" x="549" y="-151.3" font-family="Times,serif" font-size="14.00">:core:coroutines</text>
</g>
<!-- :ui:common&#45;&gt;:core:coroutines -->
<g id="edge8" class="edge">
<title>:ui:common&#45;&gt;:core:coroutines</title>
<path fill="none" stroke="#ff9ab1" stroke-dasharray="1,5" d="M478.02,-825.06C478.02,-825.06 478.02,-175.18 478.02,-175.18"/>
<polygon fill="#ff9ab1" stroke="#ff9ab1" points="481.52,-175.18 478.02,-165.18 474.52,-175.18 481.52,-175.18"/>
</g>
<!-- :data:repository -->
<g id="node9" class="node">
<title>:data:repository</title>
<ellipse fill="#b59aff" stroke="black" cx="780" cy="-703" rx="85.29" ry="18"/>
<text text-anchor="middle" x="780" y="-699.3" font-family="Times,serif" font-size="14.00">:data:repository</text>
</g>
<!-- :ui:common&#45;&gt;:data:repository -->
<g id="edge11" class="edge">
<title>:ui:common&#45;&gt;:data:repository</title>
<path fill="none" stroke="black" stroke-dasharray="1,5" d="M492.18,-828.46C492.18,-797.52 492.18,-715 492.18,-715 492.18,-715 706.48,-715 706.48,-715"/>
<polygon fill="black" stroke="black" points="706.48,-718.5 716.48,-715 706.48,-711.5 706.48,-718.5"/>
</g>
<!-- :data:musicbrainz -->
<g id="node10" class="node">
<title>:data:musicbrainz</title>
<ellipse fill="#b59aff" stroke="black" cx="1016" cy="-155" rx="93.68" ry="18"/>
<text text-anchor="middle" x="1016" y="-151.3" font-family="Times,serif" font-size="14.00">:data:musicbrainz</text>
</g>
<!-- :ui:common&#45;&gt;:data:musicbrainz -->
<g id="edge12" class="edge">
<title>:ui:common&#45;&gt;:data:musicbrainz</title>
<path fill="none" stroke="black" stroke-dasharray="1,5" d="M497.91,-849C650.51,-849 1062.8,-849 1062.8,-849 1062.8,-849 1062.8,-180.8 1062.8,-180.8"/>
<polygon fill="black" stroke="black" points="1066.3,-180.8 1062.8,-170.8 1059.3,-180.8 1066.3,-180.8"/>
</g>
<!-- :core:logging:api -->
<g id="node11" class="node">
<title>:core:logging:api</title>
<ellipse fill="#b59aff" stroke="black" cx="1016" cy="-18" rx="88.28" ry="18"/>
<text text-anchor="middle" x="1016" y="-14.3" font-family="Times,serif" font-size="14.00">:core:logging:api</text>
</g>
<!-- :ui:common&#45;&gt;:core:logging:api -->
<g id="edge13" class="edge">
<title>:ui:common&#45;&gt;:core:logging:api</title>
<path fill="none" stroke="black" stroke-dasharray="1,5" d="M497.74,-831C561.87,-831 658.45,-831 658.45,-831 658.45,-831 658.45,-5 658.45,-5 658.45,-5 944.53,-5 944.53,-5"/>
<polygon fill="black" stroke="black" points="944.53,-8.5 954.53,-5 944.53,-1.5 944.53,-8.5"/>
</g>
<!-- :ui:image -->
<g id="node12" class="node">
<title>:ui:image</title>
<ellipse fill="#b59aff" stroke="black" cx="325" cy="-703" rx="53.89" ry="18"/>
<text text-anchor="middle" x="325" y="-699.3" font-family="Times,serif" font-size="14.00">:ui:image</text>
</g>
<!-- :ui:common&#45;&gt;:ui:image -->
<g id="edge14" class="edge">
<title>:ui:common&#45;&gt;:ui:image</title>
<path fill="none" stroke="black" stroke-dasharray="1,5" d="M388.04,-830.17C388.04,-797.86 388.04,-697 388.04,-697 388.04,-697 385.89,-697 385.89,-697"/>
<polygon fill="black" stroke="black" points="385.89,-693.5 375.89,-697 385.89,-700.5 385.89,-693.5"/>
</g>
<!-- :shared:strings -->
<g id="node13" class="node">
<title>:shared:strings</title>
<ellipse fill="#b59aff" stroke="black" cx="325" cy="-429" rx="81.49" ry="18"/>
<text text-anchor="middle" x="325" y="-425.3" font-family="Times,serif" font-size="14.00">:shared:strings</text>
</g>
<!-- :ui:core&#45;&gt;:shared:strings -->
<g id="edge15" class="edge">
<title>:ui:core&#45;&gt;:shared:strings</title>
<path fill="none" stroke="black" d="M325,-547.81C325,-547.81 325,-457.27 325,-457.27"/>
<polygon fill="black" stroke="black" points="328.5,-457.27 325,-447.27 321.5,-457.27 328.5,-457.27"/>
</g>
<!-- :test&#45;data&#45;&gt;:shared:domain -->
<g id="edge16" class="edge">
<title>:test&#45;data&#45;&gt;:shared:domain</title>
<path fill="none" stroke="black" stroke-dasharray="1,5" d="M687.66,-558.42C687.66,-493.27 687.66,-30 687.66,-30 687.66,-30 507.56,-30 507.56,-30"/>
<polygon fill="black" stroke="black" points="507.56,-26.5 497.56,-30 507.56,-33.5 507.56,-26.5"/>
</g>
<!-- :test&#45;data&#45;&gt;:core:coroutines -->
<g id="edge17" class="edge">
<title>:test&#45;data&#45;&gt;:core:coroutines</title>
<path fill="none" stroke="black" stroke-dasharray="1,5" d="M685.21,-560.5C685.21,-511.73 685.21,-155 685.21,-155 685.21,-155 644.49,-155 644.49,-155"/>
<polygon fill="black" stroke="black" points="644.49,-151.5 634.49,-155 644.49,-158.5 644.49,-151.5"/>
</g>
<!-- :test&#45;data&#45;&gt;:data:musicbrainz -->
<g id="edge19" class="edge">
<title>:test&#45;data&#45;&gt;:data:musicbrainz</title>
<path fill="none" stroke="black" stroke-dasharray="1,5" d="M793.38,-566C861.78,-566 969.2,-566 969.2,-566 969.2,-566 969.2,-180.61 969.2,-180.61"/>
<polygon fill="black" stroke="black" points="972.7,-180.61 969.2,-170.61 965.7,-180.61 972.7,-180.61"/>
</g>
<!-- :data:database -->
<g id="node14" class="node">
<title>:data:database</title>
<ellipse fill="#b59aff" stroke="black" cx="807" cy="-292" rx="79.09" ry="18"/>
<text text-anchor="middle" x="807" y="-288.3" font-family="Times,serif" font-size="14.00">:data:database</text>
</g>
<!-- :test&#45;data&#45;&gt;:data:database -->
<g id="edge18" class="edge">
<title>:test&#45;data&#45;&gt;:data:database</title>
<path fill="none" stroke="black" stroke-dasharray="1,5" d="M740.46,-547.6C740.46,-547.6 740.46,-312.05 740.46,-312.05"/>
<polygon fill="black" stroke="black" points="743.96,-312.05 740.46,-302.05 736.96,-312.05 743.96,-312.05"/>
</g>
<!-- :data:coverart -->
<g id="node15" class="node">
<title>:data:coverart</title>
<ellipse fill="#b59aff" stroke="black" cx="842" cy="-429" rx="76.09" ry="18"/>
<text text-anchor="middle" x="842" y="-425.3" font-family="Times,serif" font-size="14.00">:data:coverart</text>
</g>
<!-- :test&#45;data&#45;&gt;:data:coverart -->
<g id="edge20" class="edge">
<title>:test&#45;data&#45;&gt;:data:coverart</title>
<path fill="none" stroke="black" stroke-dasharray="1,5" d="M775.05,-552.61C775.05,-552.61 775.05,-447.79 775.05,-447.79"/>
<polygon fill="black" stroke="black" points="778.55,-447.79 775.05,-437.79 771.55,-447.79 778.55,-447.79"/>
</g>
<!-- :data:spotify -->
<g id="node16" class="node">
<title>:data:spotify</title>
<ellipse fill="#b59aff" stroke="black" cx="759" cy="-155" rx="68.79" ry="18"/>
<text text-anchor="middle" x="759" y="-151.3" font-family="Times,serif" font-size="14.00">:data:spotify</text>
</g>
<!-- :test&#45;data&#45;&gt;:data:spotify -->
<g id="edge21" class="edge">
<title>:test&#45;data&#45;&gt;:data:spotify</title>
<path fill="none" stroke="black" stroke-dasharray="1,5" d="M708.91,-550.39C708.91,-550.39 708.91,-177.68 708.91,-177.68"/>
<polygon fill="black" stroke="black" points="712.41,-177.68 708.91,-167.68 705.41,-177.68 712.41,-177.68"/>
</g>
<!-- :data:repository&#45;&gt;:shared:domain -->
<g id="edge22" class="edge">
<title>:data:repository&#45;&gt;:shared:domain</title>
<path fill="none" stroke="black" stroke-dasharray="1,5" d="M699.56,-709C597.63,-709 435.05,-709 435.05,-709 435.05,-709 435.05,-46.13 435.05,-46.13"/>
<polygon fill="black" stroke="black" points="438.55,-46.13 435.05,-36.13 431.55,-46.13 438.55,-46.13"/>
</g>
<!-- :data:repository&#45;&gt;:test&#45;data -->
<g id="edge27" class="edge">
<title>:data:repository&#45;&gt;:test&#45;data</title>
<path fill="none" stroke="#ff9ab1" stroke-dasharray="1,5" d="M744.05,-686.47C744.05,-686.47 744.05,-594.33 744.05,-594.33"/>
<polygon fill="#ff9ab1" stroke="#ff9ab1" points="747.55,-594.33 744.05,-584.33 740.55,-594.33 747.55,-594.33"/>
</g>
<!-- :data:repository&#45;&gt;:core:coroutines -->
<g id="edge28" class="edge">
<title>:data:repository&#45;&gt;:core:coroutines</title>
<path fill="none" stroke="#ff9ab1" stroke-dasharray="1,5" d="M694.78,-703C625.19,-703 538.29,-703 538.29,-703 538.29,-703 538.29,-182.92 538.29,-182.92"/>
<polygon fill="#ff9ab1" stroke="#ff9ab1" points="541.79,-182.92 538.29,-172.92 534.79,-182.92 541.79,-182.92"/>
</g>
<!-- :data:repository&#45;&gt;:data:musicbrainz -->
<g id="edge24" class="edge">
<title>:data:repository&#45;&gt;:data:musicbrainz</title>
<path fill="none" stroke="black" stroke-dasharray="1,5" d="M860.56,-697C928.93,-697 1016,-697 1016,-697 1016,-697 1016,-183.03 1016,-183.03"/>
<polygon fill="black" stroke="black" points="1019.5,-183.03 1016,-173.03 1012.5,-183.03 1019.5,-183.03"/>
</g>
<!-- :data:repository&#45;&gt;:core:logging:api -->
<g id="edge26" class="edge">
<title>:data:repository&#45;&gt;:core:logging:api</title>
<path fill="none" stroke="black" stroke-dasharray="1,5" d="M860.62,-709C963.3,-709 1127.59,-709 1127.59,-709 1127.59,-709 1127.59,-18 1127.59,-18 1127.59,-18 1114.47,-18 1114.47,-18"/>
<polygon fill="black" stroke="black" points="1114.47,-14.5 1104.47,-18 1114.47,-21.5 1114.47,-14.5"/>
</g>
<!-- :data:repository&#45;&gt;:data:database -->
<g id="edge23" class="edge">
<title>:data:repository&#45;&gt;:data:database</title>
<path fill="none" stroke="black" stroke-dasharray="1,5" d="M817.21,-686.49C817.21,-637.61 817.21,-497 817.21,-497 817.21,-497 753.21,-497 753.21,-497 753.21,-497 753.21,-315.45 753.21,-315.45"/>
<polygon fill="black" stroke="black" points="756.71,-315.45 753.21,-305.45 749.71,-315.45 756.71,-315.45"/>
</g>
<!-- :data:repository&#45;&gt;:data:coverart -->
<g id="edge25" class="edge">
<title>:data:repository&#45;&gt;:data:coverart</title>
<path fill="none" stroke="black" stroke-dasharray="1,5" d="M841.18,-690.15C841.18,-690.15 841.18,-457.33 841.18,-457.33"/>
<polygon fill="black" stroke="black" points="844.68,-457.33 841.18,-447.33 837.68,-457.33 844.68,-457.33"/>
</g>
<!-- :data:musicbrainz&#45;&gt;:shared:domain -->
<g id="edge29" class="edge">
<title>:data:musicbrainz&#45;&gt;:shared:domain</title>
<path fill="none" stroke="black" stroke-dasharray="1,5" d="M934.79,-146C916.39,-146 902.17,-146 902.17,-146 902.17,-146 902.17,-15 902.17,-15 902.17,-15 527.47,-15 527.47,-15"/>
<polygon fill="black" stroke="black" points="527.47,-11.5 517.47,-15 527.47,-18.5 527.47,-11.5"/>
</g>
<!-- :data:musicbrainz&#45;&gt;:core:logging:api -->
<g id="edge30" class="edge">
<title>:data:musicbrainz&#45;&gt;:core:logging:api</title>
<path fill="none" stroke="black" stroke-dasharray="1,5" d="M1016,-136.81C1016,-136.81 1016,-46.27 1016,-46.27"/>
<polygon fill="black" stroke="black" points="1019.5,-46.27 1016,-36.27 1012.5,-46.27 1019.5,-46.27"/>
</g>
<!-- :ui:image&#45;&gt;:shared:domain -->
<g id="edge31" class="edge">
<title>:ui:image&#45;&gt;:shared:domain</title>
<path fill="none" stroke="black" stroke-dasharray="1,5" d="M365.38,-691C389.64,-691 415.85,-691 415.85,-691 415.85,-691 415.85,-45.66 415.85,-45.66"/>
<polygon fill="black" stroke="black" points="419.35,-45.66 415.85,-35.66 412.35,-45.66 419.35,-45.66"/>
</g>
<!-- :ui:image&#45;&gt;:ui:core -->
<g id="edge32" class="edge">
<title>:ui:image&#45;&gt;:ui:core</title>
<path fill="none" stroke="black" stroke-dasharray="1,5" d="M325,-684.81C325,-684.81 325,-594.27 325,-594.27"/>
<polygon fill="black" stroke="black" points="328.5,-594.27 325,-584.27 321.5,-594.27 328.5,-594.27"/>
</g>
<!-- :data:database&#45;&gt;:shared:domain -->
<g id="edge33" class="edge">
<title>:data:database&#45;&gt;:shared:domain</title>
<path fill="none" stroke="black" stroke-dasharray="1,5" d="M732.19,-298C628.65,-298 454.26,-298 454.26,-298 454.26,-298 454.26,-45.94 454.26,-45.94"/>
<polygon fill="black" stroke="black" points="457.76,-45.94 454.26,-35.94 450.76,-45.94 457.76,-45.94"/>
</g>
<!-- :data:database&#45;&gt;:core:coroutines -->
<g id="edge34" class="edge">
<title>:data:database&#45;&gt;:core:coroutines</title>
<path fill="none" stroke="black" stroke-dasharray="1,5" d="M732.19,-286C673.68,-286 602.19,-286 602.19,-286 602.19,-286 602.19,-179.27 602.19,-179.27"/>
<polygon fill="black" stroke="black" points="605.69,-179.27 602.19,-169.27 598.69,-179.27 605.69,-179.27"/>
</g>
<!-- :data:database&#45;&gt;:data:musicbrainz -->
<g id="edge35" class="edge">
<title>:data:database&#45;&gt;:data:musicbrainz</title>
<path fill="none" stroke="black" stroke-dasharray="1,5" d="M857.09,-277.85C857.09,-242.85 857.09,-155 857.09,-155 857.09,-155 912.19,-155 912.19,-155"/>
<polygon fill="black" stroke="black" points="912.19,-158.5 922.19,-155 912.19,-151.5 912.19,-158.5"/>
</g>
<!-- :data:coverart&#45;&gt;:shared:domain -->
<g id="edge36" class="edge">
<title>:data:coverart&#45;&gt;:shared:domain</title>
<path fill="none" stroke="black" stroke-dasharray="1,5" d="M770.04,-435C655.54,-435 444.65,-435 444.65,-435 444.65,-435 444.65,-45.92 444.65,-45.92"/>
<polygon fill="black" stroke="black" points="448.15,-45.92 444.65,-35.92 441.15,-45.92 448.15,-45.92"/>
</g>
<!-- :data:coverart&#45;&gt;:test&#45;data -->
<g id="edge39" class="edge">
<title>:data:coverart&#45;&gt;:test&#45;data</title>
<path fill="none" stroke="#ff9ab1" stroke-dasharray="1,5" d="M784.15,-441.16C784.15,-441.16 784.15,-545.95 784.15,-545.95"/>
<polygon fill="#ff9ab1" stroke="#ff9ab1" points="780.65,-545.95 784.15,-555.95 787.65,-545.95 780.65,-545.95"/>
</g>
<!-- :data:coverart&#45;&gt;:core:coroutines -->
<g id="edge38" class="edge">
<title>:data:coverart&#45;&gt;:core:coroutines</title>
<path fill="none" stroke="black" stroke-dasharray="1,5" d="M770.24,-423C689.73,-423 570.24,-423 570.24,-423 570.24,-423 570.24,-182.58 570.24,-182.58"/>
<polygon fill="black" stroke="black" points="573.74,-182.58 570.24,-172.58 566.74,-182.58 573.74,-182.58"/>
</g>
<!-- :data:coverart&#45;&gt;:data:musicbrainz -->
<g id="edge40" class="edge">
<title>:data:coverart&#45;&gt;:data:musicbrainz</title>
<path fill="none" stroke="#ff9ab1" stroke-dasharray="1,5" d="M910.11,-420.78C910.11,-376.05 910.11,-164 910.11,-164 910.11,-164 924.93,-164 924.93,-164"/>
<polygon fill="#ff9ab1" stroke="#ff9ab1" points="924.93,-167.5 934.93,-164 924.93,-160.5 924.93,-167.5"/>
</g>
<!-- :data:coverart&#45;&gt;:core:logging:api -->
<g id="edge37" class="edge">
<title>:data:coverart&#45;&gt;:core:logging:api</title>
<path fill="none" stroke="black" stroke-dasharray="1,5" d="M894.23,-415.56C894.23,-345.46 894.23,-25 894.23,-25 894.23,-25 924.44,-25 924.44,-25"/>
<polygon fill="black" stroke="black" points="924.44,-28.5 934.44,-25 924.44,-21.5 924.44,-28.5"/>
</g>
<!-- :data:coverart&#45;&gt;:data:database -->
<g id="edge41" class="edge">
<title>:data:coverart&#45;&gt;:data:database</title>
<path fill="none" stroke="#ff9ab1" stroke-dasharray="1,5" d="M826.12,-411.37C826.12,-411.37 826.12,-319.56 826.12,-319.56"/>
<polygon fill="#ff9ab1" stroke="#ff9ab1" points="829.62,-319.56 826.12,-309.56 822.62,-319.56 829.62,-319.56"/>
</g>
<!-- :data:spotify&#45;&gt;:shared:domain -->
<g id="edge42" class="edge">
<title>:data:spotify&#45;&gt;:shared:domain</title>
<path fill="none" stroke="black" stroke-dasharray="1,5" d="M736.04,-137.9C736.04,-101.58 736.04,-20 736.04,-20 736.04,-20 528.38,-20 528.38,-20"/>
<polygon fill="black" stroke="black" points="528.38,-16.5 518.38,-20 528.38,-23.5 528.38,-16.5"/>
</g>
<!-- :data:spotify&#45;&gt;:core:logging:api -->
<g id="edge43" class="edge">
<title>:data:spotify&#45;&gt;:core:logging:api</title>
<path fill="none" stroke="black" stroke-dasharray="1,5" d="M781.96,-137.8C781.96,-99.39 781.96,-10 781.96,-10 781.96,-10 926.77,-10 926.77,-10"/>
<polygon fill="black" stroke="black" points="926.77,-13.5 936.77,-10 926.77,-6.5 926.77,-13.5"/>
</g>
</g>
</svg>
