<?xml version="1.0" encoding="UTF-8" standalone="no"?>
<!DOCTYPE svg PUBLIC "-//W3C//DTD SVG 1.1//EN"
 "http://www.w3.org/Graphics/SVG/1.1/DTD/svg11.dtd">
<!-- Generated by graphviz version 2.43.0 (0)
 -->
<!-- Title: %3 Pages: 1 -->
<svg width="1364pt" height="666pt"
 viewBox="0.00 0.00 1363.98 666.00" xmlns="http://www.w3.org/2000/svg" xmlns:xlink="http://www.w3.org/1999/xlink">
<g id="graph0" class="graph" transform="scale(1 1) rotate(0) translate(4 662)">
<title>%3</title>
<polygon fill="white" stroke="transparent" points="-4,4 -4,-662 1359.98,-662 1359.98,4 -4,4"/>
<text text-anchor="middle" x="677.99" y="-630" font-family="Times,serif" font-size="30.00">Dependencies</text>
<text text-anchor="middle" x="677.99" y="-597" font-family="Times,serif" font-size="30.00"> </text>
<!-- :shared:feature:collections -->
<g id="node1" class="node">
<title>:shared:feature:collections</title>
<polygon fill="#b59aff" stroke="black" points="867.14,-584 661.14,-584 661.14,-548 867.14,-548 867.14,-584"/>
<text text-anchor="middle" x="764.14" y="-562.3" font-family="Times,serif" font-size="14.00">:shared:feature:collections</text>
</g>
<!-- :ui:test:screenshot -->
<g id="node2" class="node">
<title>:ui:test:screenshot</title>
<ellipse fill="#9affb5" stroke="black" cx="1259.14" cy="-292" rx="96.68" ry="18"/>
<text text-anchor="middle" x="1259.14" y="-288.3" font-family="Times,serif" font-size="14.00">:ui:test:screenshot</text>
</g>
<!-- :shared:feature:collections&#45;&gt;:ui:test:screenshot -->
<g id="edge1" class="edge">
<title>:shared:feature:collections&#45;&gt;:ui:test:screenshot</title>
<path fill="none" stroke="#ff9ab1" stroke-dasharray="1,5" d="M867.37,-576C1020.88,-576 1291.42,-576 1291.42,-576 1291.42,-576 1291.42,-319.34 1291.42,-319.34"/>
<polygon fill="#ff9ab1" stroke="#ff9ab1" points="1294.92,-319.34 1291.42,-309.34 1287.92,-319.34 1294.92,-319.34"/>
</g>
<!-- :core:models -->
<g id="node3" class="node">
<title>:core:models</title>
<ellipse fill="#b59aff" stroke="black" cx="458.14" cy="-18" rx="69.59" ry="18"/>
<text text-anchor="middle" x="458.14" y="-14.3" font-family="Times,serif" font-size="14.00">:core:models</text>
</g>
<!-- :shared:feature:collections&#45;&gt;:core:models -->
<g id="edge2" class="edge">
<title>:shared:feature:collections&#45;&gt;:core:models</title>
<path fill="none" stroke="black" stroke-dasharray="1,5" d="M867.2,-555C908.83,-555 947.24,-555 947.24,-555 947.24,-555 947.24,-7 947.24,-7 947.24,-7 523.3,-7 523.3,-7"/>
<polygon fill="black" stroke="black" points="523.3,-3.5 513.3,-7 523.3,-10.5 523.3,-3.5"/>
</g>
<!-- :core:preferences -->
<g id="node4" class="node">
<title>:core:preferences</title>
<ellipse fill="#b59aff" stroke="black" cx="116.14" cy="-292" rx="91.78" ry="18"/>
<text text-anchor="middle" x="116.14" y="-288.3" font-family="Times,serif" font-size="14.00">:core:preferences</text>
</g>
<!-- :shared:feature:collections&#45;&gt;:core:preferences -->
<g id="edge3" class="edge">
<title>:shared:feature:collections&#45;&gt;:core:preferences</title>
<path fill="none" stroke="black" stroke-dasharray="1,5" d="M661.09,-572C471.26,-572 85.6,-572 85.6,-572 85.6,-572 85.6,-319.09 85.6,-319.09"/>
<polygon fill="black" stroke="black" points="89.1,-319.09 85.6,-309.09 82.1,-319.09 89.1,-319.09"/>
</g>
<!-- :shared:domain -->
<g id="node5" class="node">
<title>:shared:domain</title>
<ellipse fill="#b59aff" stroke="black" cx="347.14" cy="-155" rx="82.59" ry="18"/>
<text text-anchor="middle" x="347.14" y="-151.3" font-family="Times,serif" font-size="14.00">:shared:domain</text>
</g>
<!-- :shared:feature:collections&#45;&gt;:shared:domain -->
<g id="edge4" class="edge">
<title>:shared:feature:collections&#45;&gt;:shared:domain</title>
<path fill="none" stroke="black" stroke-dasharray="1,5" d="M660.92,-560C521.37,-560 289.77,-560 289.77,-560 289.77,-560 289.77,-178.02 289.77,-178.02"/>
<polygon fill="black" stroke="black" points="293.27,-178.02 289.77,-168.02 286.27,-178.02 293.27,-178.02"/>
</g>
<!-- :shared:strings -->
<g id="node6" class="node">
<title>:shared:strings</title>
<ellipse fill="#b59aff" stroke="black" cx="1196.14" cy="-18" rx="81.49" ry="18"/>
<text text-anchor="middle" x="1196.14" y="-14.3" font-family="Times,serif" font-size="14.00">:shared:strings</text>
</g>
<!-- :shared:feature:collections&#45;&gt;:shared:strings -->
<g id="edge5" class="edge">
<title>:shared:feature:collections&#45;&gt;:shared:strings</title>
<path fill="none" stroke="black" stroke-dasharray="1,5" d="M867.49,-562C978.37,-562 1138.73,-562 1138.73,-562 1138.73,-562 1138.73,-40.91 1138.73,-40.91"/>
<polygon fill="black" stroke="black" points="1142.23,-40.91 1138.73,-30.91 1135.23,-40.91 1142.23,-40.91"/>
</g>
<!-- :ui:common -->
<g id="node7" class="node">
<title>:ui:common</title>
<ellipse fill="#b59aff" stroke="black" cx="764.14" cy="-429" rx="64.19" ry="18"/>
<text text-anchor="middle" x="764.14" y="-425.3" font-family="Times,serif" font-size="14.00">:ui:common</text>
</g>
<!-- :shared:feature:collections&#45;&gt;:ui:common -->
<g id="edge6" class="edge">
<title>:shared:feature:collections&#45;&gt;:ui:common</title>
<path fill="none" stroke="black" stroke-dasharray="1,5" d="M764.14,-547.81C764.14,-547.81 764.14,-457.27 764.14,-457.27"/>
<polygon fill="black" stroke="black" points="767.64,-457.27 764.14,-447.27 760.64,-457.27 767.64,-457.27"/>
</g>
<!-- :ui:core -->
<g id="node8" class="node">
<title>:ui:core</title>
<ellipse fill="#b59aff" stroke="black" cx="1196.14" cy="-155" rx="45.49" ry="18"/>
<text text-anchor="middle" x="1196.14" y="-151.3" font-family="Times,serif" font-size="14.00">:ui:core</text>
</g>
<!-- :shared:feature:collections&#45;&gt;:ui:core -->
<g id="edge7" class="edge">
<title>:shared:feature:collections&#45;&gt;:ui:core</title>
<path fill="none" stroke="black" stroke-dasharray="1,5" d="M867.22,-569C984.04,-569 1158.42,-569 1158.42,-569 1158.42,-569 1158.42,-175.23 1158.42,-175.23"/>
<polygon fill="black" stroke="black" points="1161.92,-175.23 1158.42,-165.23 1154.92,-175.23 1161.92,-175.23"/>
</g>
<!-- :ui:test:screenshot&#45;&gt;:ui:core -->
<g id="edge8" class="edge">
<title>:ui:test:screenshot&#45;&gt;:ui:core</title>
<path fill="none" stroke="black" stroke-dasharray="1,5" d="M1201.97,-277.34C1201.97,-277.34 1201.97,-183.01 1201.97,-183.01"/>
<polygon fill="black" stroke="black" points="1205.47,-183.01 1201.97,-173.01 1198.47,-183.01 1205.47,-183.01"/>
</g>
<!-- :core:preferences&#45;&gt;:core:models -->
<g id="edge10" class="edge">
<title>:core:preferences&#45;&gt;:core:models</title>
<path fill="none" stroke="black" stroke-dasharray="1,5" d="M189.03,-280.92C189.03,-229.66 189.03,-18 189.03,-18 189.03,-18 378.49,-18 378.49,-18"/>
<polygon fill="black" stroke="black" points="378.49,-21.5 388.49,-18 378.49,-14.5 378.49,-21.5"/>
</g>
<!-- :core:coroutines -->
<g id="node9" class="node">
<title>:core:coroutines</title>
<ellipse fill="#b59aff" stroke="black" cx="85.14" cy="-155" rx="85.29" ry="18"/>
<text text-anchor="middle" x="85.14" y="-151.3" font-family="Times,serif" font-size="14.00">:core:coroutines</text>
</g>
<!-- :core:preferences&#45;&gt;:core:coroutines -->
<g id="edge9" class="edge">
<title>:core:preferences&#45;&gt;:core:coroutines</title>
<path fill="none" stroke="black" stroke-dasharray="1,5" d="M97.39,-274.37C97.39,-274.37 97.39,-183 97.39,-183"/>
<polygon fill="black" stroke="black" points="100.89,-183 97.39,-173 93.89,-183 100.89,-183"/>
</g>
<!-- :shared:domain&#45;&gt;:core:models -->
<g id="edge11" class="edge">
<title>:shared:domain&#45;&gt;:core:models</title>
<path fill="none" stroke="black" stroke-dasharray="1,5" d="M409.14,-142.84C409.14,-142.84 409.14,-41.13 409.14,-41.13"/>
<polygon fill="black" stroke="black" points="412.64,-41.13 409.14,-31.13 405.64,-41.13 412.64,-41.13"/>
</g>
<!-- :ui:common&#45;&gt;:ui:test:screenshot -->
<g id="edge13" class="edge">
<title>:ui:common&#45;&gt;:ui:test:screenshot</title>
<path fill="none" stroke="#ff9ab1" stroke-dasharray="1,5" d="M812.35,-441C930.87,-441 1226.86,-441 1226.86,-441 1226.86,-441 1226.86,-319.09 1226.86,-319.09"/>
<polygon fill="#ff9ab1" stroke="#ff9ab1" points="1230.36,-319.09 1226.86,-309.09 1223.36,-319.09 1230.36,-319.09"/>
</g>
<!-- :ui:common&#45;&gt;:core:models -->
<g id="edge14" class="edge">
<title>:ui:common&#45;&gt;:core:models</title>
<path fill="none" stroke="black" d="M797.57,-413.5C797.57,-338.98 797.57,-21 797.57,-21 797.57,-21 536.83,-21 536.83,-21"/>
<polygon fill="black" stroke="black" points="536.83,-17.5 526.83,-21 536.83,-24.5 536.83,-17.5"/>
</g>
<!-- :ui:common&#45;&gt;:core:preferences -->
<g id="edge17" class="edge">
<title>:ui:common&#45;&gt;:core:preferences</title>
<path fill="none" stroke="black" stroke-dasharray="1,5" d="M708.26,-438C556.27,-438 146.69,-438 146.69,-438 146.69,-438 146.69,-319.03 146.69,-319.03"/>
<polygon fill="black" stroke="black" points="150.19,-319.03 146.69,-309.03 143.19,-319.03 150.19,-319.03"/>
</g>
<!-- :ui:common&#45;&gt;:shared:domain -->
<g id="edge19" class="edge">
<title>:ui:common&#45;&gt;:shared:domain</title>
<path fill="none" stroke="black" stroke-dasharray="1,5" d="M699.78,-429C575.57,-429 314.93,-429 314.93,-429 314.93,-429 314.93,-181.73 314.93,-181.73"/>
<polygon fill="black" stroke="black" points="318.43,-181.73 314.93,-171.73 311.43,-181.73 318.43,-181.73"/>
</g>
<!-- :ui:common&#45;&gt;:shared:strings -->
<g id="edge20" class="edge">
<title>:ui:common&#45;&gt;:shared:strings</title>
<path fill="none" stroke="black" stroke-dasharray="1,5" d="M828.56,-429C932.78,-429 1126.82,-429 1126.82,-429 1126.82,-429 1126.82,-37.75 1126.82,-37.75"/>
<polygon fill="black" stroke="black" points="1130.32,-37.75 1126.82,-27.75 1123.32,-37.75 1130.32,-37.75"/>
</g>
<!-- :ui:common&#45;&gt;:ui:core -->
<g id="edge21" class="edge">
<title>:ui:common&#45;&gt;:ui:core</title>
<path fill="none" stroke="black" stroke-dasharray="1,5" d="M825.14,-435C934.94,-435 1154.53,-435 1154.53,-435 1154.53,-435 1154.53,-172.49 1154.53,-172.49"/>
<polygon fill="black" stroke="black" points="1158.03,-172.49 1154.53,-162.49 1151.03,-172.49 1158.03,-172.49"/>
</g>
<!-- :ui:test:image -->
<g id="node10" class="node">
<title>:ui:test:image</title>
<ellipse fill="#9affb5" stroke="black" cx="1031.14" cy="-292" rx="74.99" ry="18"/>
<text text-anchor="middle" x="1031.14" y="-288.3" font-family="Times,serif" font-size="14.00">:ui:test:image</text>
</g>
<!-- :ui:common&#45;&gt;:ui:test:image -->
<g id="edge12" class="edge">
<title>:ui:common&#45;&gt;:ui:test:image</title>
<path fill="none" stroke="#ff9ab1" stroke-dasharray="1,5" d="M825.06,-423C903.87,-423 1031.14,-423 1031.14,-423 1031.14,-423 1031.14,-320.21 1031.14,-320.21"/>
<polygon fill="#ff9ab1" stroke="#ff9ab1" points="1034.64,-320.21 1031.14,-310.21 1027.64,-320.22 1034.64,-320.21"/>
</g>
<!-- :data:coverart -->
<g id="node11" class="node">
<title>:data:coverart</title>
<ellipse fill="#b59aff" stroke="black" cx="416.14" cy="-292" rx="76.09" ry="18"/>
<text text-anchor="middle" x="416.14" y="-288.3" font-family="Times,serif" font-size="14.00">:data:coverart</text>
</g>
<!-- :ui:common&#45;&gt;:data:coverart -->
<g id="edge15" class="edge">
<title>:ui:common&#45;&gt;:data:coverart</title>
<path fill="none" stroke="black" stroke-dasharray="1,5" d="M708.23,-420C609.86,-420 416.14,-420 416.14,-420 416.14,-420 416.14,-320.07 416.14,-320.07"/>
<polygon fill="black" stroke="black" points="419.64,-320.07 416.14,-310.07 412.64,-320.07 419.64,-320.07"/>
</g>
<!-- :data:musicbrainz -->
<g id="node12" class="node">
<title>:data:musicbrainz</title>
<ellipse fill="#b59aff" stroke="black" cx="642.14" cy="-292" rx="93.68" ry="18"/>
<text text-anchor="middle" x="642.14" y="-288.3" font-family="Times,serif" font-size="14.00">:data:musicbrainz</text>
</g>
<!-- :ui:common&#45;&gt;:data:musicbrainz -->
<g id="edge16" class="edge">
<title>:ui:common&#45;&gt;:data:musicbrainz</title>
<path fill="none" stroke="black" stroke-dasharray="1,5" d="M717.77,-416.36C717.77,-416.36 717.77,-312.69 717.77,-312.69"/>
<polygon fill="black" stroke="black" points="721.27,-312.69 717.77,-302.69 714.27,-312.69 721.27,-312.69"/>
</g>
<!-- :core:logging:api -->
<g id="node13" class="node">
<title>:core:logging:api</title>
<ellipse fill="#b59aff" stroke="black" cx="574.14" cy="-155" rx="88.28" ry="18"/>
<text text-anchor="middle" x="574.14" y="-151.3" font-family="Times,serif" font-size="14.00">:core:logging:api</text>
</g>
<!-- :ui:common&#45;&gt;:core:logging:api -->
<g id="edge18" class="edge">
<title>:ui:common&#45;&gt;:core:logging:api</title>
<path fill="none" stroke="black" stroke-dasharray="1,5" d="M766.65,-410.63C766.65,-348.34 766.65,-149 766.65,-149 766.65,-149 667.74,-149 667.74,-149"/>
<polygon fill="black" stroke="black" points="667.74,-145.5 657.74,-149 667.74,-152.5 667.74,-145.5"/>
</g>
<!-- :ui:image -->
<g id="node14" class="node">
<title>:ui:image</title>
<ellipse fill="#b59aff" stroke="black" cx="884.14" cy="-292" rx="53.89" ry="18"/>
<text text-anchor="middle" x="884.14" y="-288.3" font-family="Times,serif" font-size="14.00">:ui:image</text>
</g>
<!-- :ui:common&#45;&gt;:ui:image -->
<g id="edge22" class="edge">
<title>:ui:common&#45;&gt;:ui:image</title>
<path fill="none" stroke="black" stroke-dasharray="1,5" d="M812.33,-417C831.31,-417 848.67,-417 848.67,-417 848.67,-417 848.67,-315.85 848.67,-315.85"/>
<polygon fill="black" stroke="black" points="852.17,-315.85 848.67,-305.85 845.17,-315.85 852.17,-315.85"/>
</g>
<!-- :ui:core&#45;&gt;:shared:strings -->
<g id="edge23" class="edge">
<title>:ui:core&#45;&gt;:shared:strings</title>
<path fill="none" stroke="black" d="M1196.14,-136.81C1196.14,-136.81 1196.14,-46.27 1196.14,-46.27"/>
<polygon fill="black" stroke="black" points="1199.64,-46.27 1196.14,-36.27 1192.64,-46.27 1199.64,-46.27"/>
</g>
<!-- :data:coverart&#45;&gt;:core:models -->
<g id="edge25" class="edge">
<title>:data:coverart&#45;&gt;:core:models</title>
<path fill="none" stroke="black" stroke-dasharray="1,5" d="M457.72,-276.88C457.72,-276.88 457.72,-46.23 457.72,-46.23"/>
<polygon fill="black" stroke="black" points="461.22,-46.23 457.72,-36.23 454.22,-46.23 461.22,-46.23"/>
</g>
<!-- :data:coverart&#45;&gt;:shared:domain -->
<g id="edge26" class="edge">
<title>:data:coverart&#45;&gt;:shared:domain</title>
<path fill="none" stroke="black" stroke-dasharray="1,5" d="M384.89,-275.47C384.89,-275.47 384.89,-181.16 384.89,-181.16"/>
<polygon fill="black" stroke="black" points="388.39,-181.16 384.89,-171.16 381.39,-181.16 388.39,-181.16"/>
</g>
<!-- :data:coverart&#45;&gt;:core:logging:api -->
<g id="edge24" class="edge">
<title>:data:coverart&#45;&gt;:core:logging:api</title>
<path fill="none" stroke="black" stroke-dasharray="1,5" d="M492.44,-292C508.33,-292 520.37,-292 520.37,-292 520.37,-292 520.37,-179.4 520.37,-179.4"/>
<polygon fill="black" stroke="black" points="523.87,-179.4 520.37,-169.4 516.87,-179.4 523.87,-179.4"/>
</g>
<!-- :data:musicbrainz&#45;&gt;:core:models -->
<g id="edge28" class="edge">
<title>:data:musicbrainz&#45;&gt;:core:models</title>
<path fill="none" stroke="black" stroke-dasharray="1,5" d="M699.13,-277.43C699.13,-222.09 699.13,-28 699.13,-28 699.13,-28 526.17,-28 526.17,-28"/>
<polygon fill="black" stroke="black" points="526.17,-24.5 516.17,-28 526.17,-31.5 526.17,-24.5"/>
</g>
<!-- :data:musicbrainz&#45;&gt;:core:logging:api -->
<g id="edge27" class="edge">
<title>:data:musicbrainz&#45;&gt;:core:logging:api</title>
<path fill="none" stroke="black" stroke-dasharray="1,5" d="M605.54,-275.2C605.54,-275.2 605.54,-181.94 605.54,-181.94"/>
<polygon fill="black" stroke="black" points="609.04,-181.94 605.54,-171.94 602.04,-181.94 609.04,-181.94"/>
</g>
<!-- :ui:image&#45;&gt;:core:models -->
<g id="edge29" class="edge">
<title>:ui:image&#45;&gt;:core:models</title>
<path fill="none" stroke="black" stroke-dasharray="1,5" d="M866.16,-275.03C866.16,-214.67 866.16,-14 866.16,-14 866.16,-14 535.98,-14 535.98,-14"/>
<polygon fill="black" stroke="black" points="535.98,-10.5 525.98,-14 535.98,-17.5 535.98,-10.5"/>
</g>
<!-- :ui:image&#45;&gt;:ui:core -->
<g id="edge30" class="edge">
<title>:ui:image&#45;&gt;:ui:core</title>
<path fill="none" stroke="black" stroke-dasharray="1,5" d="M902.12,-274.87C902.12,-239.36 902.12,-161 902.12,-161 902.12,-161 1143.07,-161 1143.07,-161"/>
<polygon fill="black" stroke="black" points="1143.07,-164.5 1153.07,-161 1143.07,-157.5 1143.07,-164.5"/>
</g>
</g>
</svg>
