<?xml version="1.0" encoding="UTF-8" standalone="no"?>
<!DOCTYPE svg PUBLIC "-//W3C//DTD SVG 1.1//EN"
 "http://www.w3.org/Graphics/SVG/1.1/DTD/svg11.dtd">
<!-- Generated by graphviz version 2.43.0 (0)
 -->
<!-- Title: %3 Pages: 1 -->
<svg width="1057pt" height="666pt"
 viewBox="0.00 0.00 1057.48 666.00" xmlns="http://www.w3.org/2000/svg" xmlns:xlink="http://www.w3.org/1999/xlink">
<g id="graph0" class="graph" transform="scale(1 1) rotate(0) translate(4 662)">
<title>%3</title>
<polygon fill="white" stroke="transparent" points="-4,4 -4,-662 1053.48,-662 1053.48,4 -4,4"/>
<text text-anchor="middle" x="524.74" y="-630" font-family="Times,serif" font-size="30.00">Dependencies</text>
<text text-anchor="middle" x="524.74" y="-597" font-family="Times,serif" font-size="30.00"> </text>
<!-- :shared:feature:collections -->
<g id="node1" class="node">
<title>:shared:feature:collections</title>
<polygon fill="#b59aff" stroke="black" points="766.84,-584 560.84,-584 560.84,-548 766.84,-548 766.84,-584"/>
<text text-anchor="middle" x="663.84" y="-562.3" font-family="Times,serif" font-size="14.00">:shared:feature:collections</text>
</g>
<!-- :ui:test:screenshot -->
<g id="node2" class="node">
<title>:ui:test:screenshot</title>
<ellipse fill="#9affb5" stroke="black" cx="96.84" cy="-292" rx="96.68" ry="18"/>
<text text-anchor="middle" x="96.84" y="-288.3" font-family="Times,serif" font-size="14.00">:ui:test:screenshot</text>
</g>
<!-- :shared:feature:collections&#45;&gt;:ui:test:screenshot -->
<g id="edge1" class="edge">
<title>:shared:feature:collections&#45;&gt;:ui:test:screenshot</title>
<path fill="none" stroke="#ff9ab1" stroke-dasharray="1,5" d="M560.82,-566C389.48,-566 64.56,-566 64.56,-566 64.56,-566 64.56,-319.14 64.56,-319.14"/>
<polygon fill="#ff9ab1" stroke="#ff9ab1" points="68.06,-319.14 64.56,-309.14 61.06,-319.14 68.06,-319.14"/>
</g>
<!-- :ui:common -->
<g id="node3" class="node">
<title>:ui:common</title>
<ellipse fill="#b59aff" stroke="black" cx="489.84" cy="-429" rx="64.19" ry="18"/>
<text text-anchor="middle" x="489.84" y="-425.3" font-family="Times,serif" font-size="14.00">:ui:common</text>
</g>
<!-- :shared:feature:collections&#45;&gt;:ui:common -->
<g id="edge2" class="edge">
<title>:shared:feature:collections&#45;&gt;:ui:common</title>
<path fill="none" stroke="black" stroke-dasharray="1,5" d="M574.12,-547.8C574.12,-512.69 574.12,-439 574.12,-439 574.12,-439 553.69,-439 553.69,-439"/>
<polygon fill="black" stroke="black" points="553.69,-435.5 543.69,-439 553.69,-442.5 553.69,-435.5"/>
</g>
<!-- :shared:domain -->
<g id="node4" class="node">
<title>:shared:domain</title>
<ellipse fill="#b59aff" stroke="black" cx="725.84" cy="-155" rx="82.59" ry="18"/>
<text text-anchor="middle" x="725.84" y="-151.3" font-family="Times,serif" font-size="14.00">:shared:domain</text>
</g>
<!-- :shared:feature:collections&#45;&gt;:shared:domain -->
<g id="edge3" class="edge">
<title>:shared:feature:collections&#45;&gt;:shared:domain</title>
<path fill="none" stroke="black" stroke-dasharray="1,5" d="M767.08,-560C780.62,-560 789.91,-560 789.91,-560 789.91,-560 789.91,-176.68 789.91,-176.68"/>
<polygon fill="black" stroke="black" points="793.41,-176.68 789.91,-166.68 786.41,-176.68 793.41,-176.68"/>
</g>
<!-- :core:preferences -->
<g id="node5" class="node">
<title>:core:preferences</title>
<ellipse fill="#b59aff" stroke="black" cx="957.84" cy="-292" rx="91.78" ry="18"/>
<text text-anchor="middle" x="957.84" y="-288.3" font-family="Times,serif" font-size="14.00">:core:preferences</text>
</g>
<!-- :shared:feature:collections&#45;&gt;:core:preferences -->
<g id="edge4" class="edge">
<title>:shared:feature:collections&#45;&gt;:core:preferences</title>
<path fill="none" stroke="black" stroke-dasharray="1,5" d="M766.98,-572C862.01,-572 988.39,-572 988.39,-572 988.39,-572 988.39,-319.09 988.39,-319.09"/>
<polygon fill="black" stroke="black" points="991.89,-319.09 988.39,-309.09 984.89,-319.09 991.89,-319.09"/>
</g>
<!-- :ui:core -->
<g id="node6" class="node">
<title>:ui:core</title>
<ellipse fill="#b59aff" stroke="black" cx="222.84" cy="-155" rx="45.49" ry="18"/>
<text text-anchor="middle" x="222.84" y="-151.3" font-family="Times,serif" font-size="14.00">:ui:core</text>
</g>
<!-- :ui:test:screenshot&#45;&gt;:ui:core -->
<g id="edge5" class="edge">
<title>:ui:test:screenshot&#45;&gt;:ui:core</title>
<path fill="none" stroke="black" stroke-dasharray="1,5" d="M185.51,-284.63C185.51,-284.63 185.51,-175.67 185.51,-175.67"/>
<polygon fill="black" stroke="black" points="189.01,-175.67 185.51,-165.67 182.01,-175.67 189.01,-175.67"/>
</g>
<!-- :test:image -->
<g id="node7" class="node">
<title>:test:image</title>
<ellipse fill="#9affb5" stroke="black" cx="95.84" cy="-155" rx="63.09" ry="18"/>
<text text-anchor="middle" x="95.84" y="-151.3" font-family="Times,serif" font-size="14.00">:test:image</text>
</g>
<!-- :ui:test:screenshot&#45;&gt;:test:image -->
<g id="edge6" class="edge">
<title>:ui:test:screenshot&#45;&gt;:test:image</title>
<path fill="none" stroke="black" stroke-dasharray="1,5" d="M95.84,-273.81C95.84,-273.81 95.84,-183.27 95.84,-183.27"/>
<polygon fill="black" stroke="black" points="99.34,-183.27 95.84,-173.27 92.34,-183.27 99.34,-183.27"/>
</g>
<!-- :ui:common&#45;&gt;:ui:test:screenshot -->
<g id="edge7" class="edge">
<title>:ui:common&#45;&gt;:ui:test:screenshot</title>
<path fill="none" stroke="#ff9ab1" stroke-dasharray="1,5" d="M436.23,-439C335.74,-439 129.12,-439 129.12,-439 129.12,-439 129.12,-319.15 129.12,-319.15"/>
<polygon fill="#ff9ab1" stroke="#ff9ab1" points="132.62,-319.15 129.12,-309.15 125.62,-319.15 132.62,-319.15"/>
</g>
<!-- :ui:common&#45;&gt;:shared:domain -->
<g id="edge8" class="edge">
<title>:ui:common&#45;&gt;:shared:domain</title>
<path fill="none" stroke="black" d="M552.59,-425C638.08,-425 780.67,-425 780.67,-425 780.67,-425 780.67,-178.76 780.67,-178.76"/>
<polygon fill="black" stroke="black" points="784.17,-178.76 780.67,-168.76 777.17,-178.76 784.17,-178.76"/>
</g>
<!-- :ui:common&#45;&gt;:core:preferences -->
<g id="edge12" class="edge">
<title>:ui:common&#45;&gt;:core:preferences</title>
<path fill="none" stroke="black" stroke-dasharray="1,5" d="M553.45,-432C674.78,-432 927.29,-432 927.29,-432 927.29,-432 927.29,-319.17 927.29,-319.17"/>
<polygon fill="black" stroke="black" points="930.79,-319.17 927.29,-309.17 923.79,-319.17 930.79,-319.17"/>
</g>
<!-- :ui:common&#45;&gt;:ui:core -->
<g id="edge9" class="edge">
<title>:ui:common&#45;&gt;:ui:core</title>
<path fill="none" stroke="black" d="M426.32,-432C347.05,-432 221.79,-432 221.79,-432 221.79,-432 221.79,-183.17 221.79,-183.17"/>
<polygon fill="black" stroke="black" points="225.29,-183.17 221.79,-173.17 218.29,-183.17 225.29,-183.17"/>
</g>
<!-- :data:coverart -->
<g id="node8" class="node">
<title>:data:coverart</title>
<ellipse fill="#b59aff" stroke="black" cx="489.84" cy="-292" rx="76.09" ry="18"/>
<text text-anchor="middle" x="489.84" y="-288.3" font-family="Times,serif" font-size="14.00">:data:coverart</text>
</g>
<!-- :ui:common&#45;&gt;:data:coverart -->
<g id="edge10" class="edge">
<title>:ui:common&#45;&gt;:data:coverart</title>
<path fill="none" stroke="black" stroke-dasharray="1,5" d="M489.84,-410.81C489.84,-410.81 489.84,-320.27 489.84,-320.27"/>
<polygon fill="black" stroke="black" points="493.34,-320.27 489.84,-310.27 486.34,-320.27 493.34,-320.27"/>
</g>
<!-- :data:musicbrainz -->
<g id="node9" class="node">
<title>:data:musicbrainz</title>
<ellipse fill="#b59aff" stroke="black" cx="677.84" cy="-292" rx="93.68" ry="18"/>
<text text-anchor="middle" x="677.84" y="-288.3" font-family="Times,serif" font-size="14.00">:data:musicbrainz</text>
</g>
<!-- :ui:common&#45;&gt;:data:musicbrainz -->
<g id="edge11" class="edge">
<title>:ui:common&#45;&gt;:data:musicbrainz</title>
<path fill="none" stroke="black" stroke-dasharray="1,5" d="M541.08,-418C596.04,-418 675.55,-418 675.55,-418 675.55,-418 675.55,-320.05 675.55,-320.05"/>
<polygon fill="black" stroke="black" points="679.05,-320.05 675.55,-310.05 672.05,-320.05 679.05,-320.05"/>
</g>
<!-- :core:logging:api -->
<g id="node10" class="node">
<title>:core:logging:api</title>
<ellipse fill="#b59aff" stroke="black" cx="489.84" cy="-155" rx="88.28" ry="18"/>
<text text-anchor="middle" x="489.84" y="-151.3" font-family="Times,serif" font-size="14.00">:core:logging:api</text>
</g>
<!-- :ui:common&#45;&gt;:core:logging:api -->
<g id="edge13" class="edge">
<title>:ui:common&#45;&gt;:core:logging:api</title>
<path fill="none" stroke="black" stroke-dasharray="1,5" d="M438.71,-418C421.99,-418 407.62,-418 407.62,-418 407.62,-418 407.62,-171.77 407.62,-171.77"/>
<polygon fill="black" stroke="black" points="411.12,-171.77 407.62,-161.77 404.12,-171.77 411.12,-171.77"/>
</g>
<!-- :ui:image -->
<g id="node11" class="node">
<title>:ui:image</title>
<ellipse fill="#b59aff" stroke="black" cx="303.84" cy="-292" rx="53.89" ry="18"/>
<text text-anchor="middle" x="303.84" y="-288.3" font-family="Times,serif" font-size="14.00">:ui:image</text>
</g>
<!-- :ui:common&#45;&gt;:ui:image -->
<g id="edge14" class="edge">
<title>:ui:common&#45;&gt;:ui:image</title>
<path fill="none" stroke="black" stroke-dasharray="1,5" d="M426.87,-425C372.91,-425 303.84,-425 303.84,-425 303.84,-425 303.84,-320.21 303.84,-320.21"/>
<polygon fill="black" stroke="black" points="307.34,-320.21 303.84,-310.21 300.34,-320.21 307.34,-320.21"/>
</g>
<!-- :core:preferences&#45;&gt;:shared:domain -->
<g id="edge15" class="edge">
<title>:core:preferences&#45;&gt;:shared:domain</title>
<path fill="none" stroke="black" stroke-dasharray="1,5" d="M865.99,-292C830.89,-292 799.15,-292 799.15,-292 799.15,-292 799.15,-173.57 799.15,-173.57"/>
<polygon fill="black" stroke="black" points="802.65,-173.57 799.15,-163.57 795.65,-173.57 802.65,-173.57"/>
</g>
<!-- :core:coroutines -->
<g id="node12" class="node">
<title>:core:coroutines</title>
<ellipse fill="#b59aff" stroke="black" cx="957.84" cy="-155" rx="85.29" ry="18"/>
<text text-anchor="middle" x="957.84" y="-151.3" font-family="Times,serif" font-size="14.00">:core:coroutines</text>
</g>
<!-- :core:preferences&#45;&gt;:core:coroutines -->
<g id="edge16" class="edge">
<title>:core:preferences&#45;&gt;:core:coroutines</title>
<path fill="none" stroke="black" stroke-dasharray="1,5" d="M957.84,-273.81C957.84,-273.81 957.84,-183.27 957.84,-183.27"/>
<polygon fill="black" stroke="black" points="961.34,-183.27 957.84,-173.27 954.34,-183.27 961.34,-183.27"/>
</g>
<!-- :shared:strings -->
<g id="node13" class="node">
<title>:shared:strings</title>
<ellipse fill="#b59aff" stroke="black" cx="222.84" cy="-18" rx="81.49" ry="18"/>
<text text-anchor="middle" x="222.84" y="-14.3" font-family="Times,serif" font-size="14.00">:shared:strings</text>
</g>
<!-- :ui:core&#45;&gt;:shared:strings -->
<g id="edge17" class="edge">
<title>:ui:core&#45;&gt;:shared:strings</title>
<path fill="none" stroke="black" d="M222.84,-136.81C222.84,-136.81 222.84,-46.27 222.84,-46.27"/>
<polygon fill="black" stroke="black" points="226.34,-46.27 222.84,-36.27 219.34,-46.27 226.34,-46.27"/>
</g>
<!-- :data:coverart&#45;&gt;:shared:domain -->
<g id="edge18" class="edge">
<title>:data:coverart&#45;&gt;:shared:domain</title>
<path fill="none" stroke="black" stroke-dasharray="1,5" d="M515.19,-274.97C515.19,-259.81 515.19,-240 515.19,-240 515.19,-240 707.37,-240 707.37,-240 707.37,-240 707.37,-182.61 707.37,-182.61"/>
<polygon fill="black" stroke="black" points="710.87,-182.61 707.37,-172.61 703.87,-182.61 710.87,-182.61"/>
</g>
<!-- :data:coverart&#45;&gt;:core:logging:api -->
<g id="edge19" class="edge">
<title>:data:coverart&#45;&gt;:core:logging:api</title>
<path fill="none" stroke="black" stroke-dasharray="1,5" d="M464.49,-274.93C464.49,-274.93 464.49,-182.29 464.49,-182.29"/>
<polygon fill="black" stroke="black" points="467.99,-182.29 464.49,-172.29 460.99,-182.29 467.99,-182.29"/>
</g>
<!-- :data:musicbrainz&#45;&gt;:shared:domain -->
<g id="edge20" class="edge">
<title>:data:musicbrainz&#45;&gt;:shared:domain</title>
<path fill="none" stroke="black" stroke-dasharray="1,5" d="M739.4,-278.36C739.4,-278.36 739.4,-182.88 739.4,-182.88"/>
<polygon fill="black" stroke="black" points="742.9,-182.88 739.4,-172.88 735.9,-182.88 742.9,-182.88"/>
</g>
<!-- :data:musicbrainz&#45;&gt;:core:logging:api -->
<g id="edge21" class="edge">
<title>:data:musicbrainz&#45;&gt;:core:logging:api</title>
<path fill="none" stroke="black" stroke-dasharray="1,5" d="M584.1,-292C575.54,-292 570,-292 570,-292 570,-292 570,-172.76 570,-172.76"/>
<polygon fill="black" stroke="black" points="573.5,-172.76 570,-162.76 566.5,-172.76 573.5,-172.76"/>
</g>
<!-- :ui:image&#45;&gt;:shared:domain -->
<g id="edge22" class="edge">
<title>:ui:image&#45;&gt;:shared:domain</title>
<path fill="none" stroke="black" stroke-dasharray="1,5" d="M330.94,-276.23C330.94,-251.4 330.94,-206 330.94,-206 330.94,-206 675.33,-206 675.33,-206 675.33,-206 675.33,-179.48 675.33,-179.48"/>
<polygon fill="black" stroke="black" points="678.83,-179.48 675.33,-169.48 671.83,-179.48 678.83,-179.48"/>
</g>
<!-- :ui:image&#45;&gt;:ui:core -->
<g id="edge23" class="edge">
<title>:ui:image&#45;&gt;:ui:core</title>
<path fill="none" stroke="black" stroke-dasharray="1,5" d="M259.12,-281.7C259.12,-281.7 259.12,-176.18 259.12,-176.18"/>
<polygon fill="black" stroke="black" points="262.62,-176.18 259.12,-166.18 255.62,-176.18 262.62,-176.18"/>
</g>
</g>
</svg>
