<?xml version="1.0" encoding="UTF-8" standalone="no"?>
<!DOCTYPE svg PUBLIC "-//W3C//DTD SVG 1.1//EN"
 "http://www.w3.org/Graphics/SVG/1.1/DTD/svg11.dtd">
<!-- Generated by graphviz version 2.43.0 (0)
 -->
<!-- Title: %3 Pages: 1 -->
<svg width="1176pt" height="666pt"
 viewBox="0.00 0.00 1175.98 666.00" xmlns="http://www.w3.org/2000/svg" xmlns:xlink="http://www.w3.org/1999/xlink">
<g id="graph0" class="graph" transform="scale(1 1) rotate(0) translate(4 662)">
<title>%3</title>
<polygon fill="white" stroke="transparent" points="-4,4 -4,-662 1171.98,-662 1171.98,4 -4,4"/>
<text text-anchor="middle" x="583.99" y="-630" font-family="Times,serif" font-size="30.00">Dependencies</text>
<text text-anchor="middle" x="583.99" y="-597" font-family="Times,serif" font-size="30.00"> </text>
<!-- :shared:feature:collections -->
<g id="node1" class="node">
<title>:shared:feature:collections</title>
<ellipse fill="#b59aff" stroke="black" cx="875.84" cy="-566" rx="133.78" ry="18"/>
<text text-anchor="middle" x="875.84" y="-562.3" font-family="Times,serif" font-size="14.00">:shared:feature:collections</text>
</g>
<!-- :ui:test:screenshot -->
<g id="node2" class="node">
<title>:ui:test:screenshot</title>
<ellipse fill="#9affb5" stroke="black" cx="96.84" cy="-292" rx="96.68" ry="18"/>
<text text-anchor="middle" x="96.84" y="-288.3" font-family="Times,serif" font-size="14.00">:ui:test:screenshot</text>
</g>
<!-- :shared:feature:collections&#45;&gt;:ui:test:screenshot -->
<g id="edge1" class="edge">
<title>:shared:feature:collections&#45;&gt;:ui:test:screenshot</title>
<path fill="none" stroke="#ff9ab1" stroke-dasharray="1,5" d="M741.87,-566C511.45,-566 64.56,-566 64.56,-566 64.56,-566 64.56,-319.14 64.56,-319.14"/>
<polygon fill="#ff9ab1" stroke="#ff9ab1" points="68.06,-319.14 64.56,-309.14 61.06,-319.14 68.06,-319.14"/>
</g>
<!-- :core:models -->
<g id="node3" class="node">
<title>:core:models</title>
<ellipse fill="#b59aff" stroke="black" cx="802.84" cy="-18" rx="69.59" ry="18"/>
<text text-anchor="middle" x="802.84" y="-14.3" font-family="Times,serif" font-size="14.00">:core:models</text>
</g>
<!-- :shared:feature:collections&#45;&gt;:core:models -->
<g id="edge2" class="edge">
<title>:shared:feature:collections&#45;&gt;:core:models</title>
<path fill="none" stroke="black" stroke-dasharray="1,5" d="M923.26,-549.09C923.26,-457.1 923.26,-21 923.26,-21 923.26,-21 881.49,-21 881.49,-21"/>
<polygon fill="black" stroke="black" points="881.49,-17.5 871.49,-21 881.49,-24.5 881.49,-17.5"/>
</g>
<!-- :core:preferences -->
<g id="node4" class="node">
<title>:core:preferences</title>
<ellipse fill="#b59aff" stroke="black" cx="1033.84" cy="-292" rx="91.78" ry="18"/>
<text text-anchor="middle" x="1033.84" y="-288.3" font-family="Times,serif" font-size="14.00">:core:preferences</text>
</g>
<!-- :shared:feature:collections&#45;&gt;:core:preferences -->
<g id="edge3" class="edge">
<title>:shared:feature:collections&#45;&gt;:core:preferences</title>
<path fill="none" stroke="black" stroke-dasharray="1,5" d="M987.22,-555.92C987.22,-555.92 987.22,-317.64 987.22,-317.64"/>
<polygon fill="black" stroke="black" points="990.72,-317.64 987.22,-307.64 983.72,-317.64 990.72,-317.64"/>
</g>
<!-- :shared:domain -->
<g id="node5" class="node">
<title>:shared:domain</title>
<ellipse fill="#b59aff" stroke="black" cx="802.84" cy="-155" rx="82.59" ry="18"/>
<text text-anchor="middle" x="802.84" y="-151.3" font-family="Times,serif" font-size="14.00">:shared:domain</text>
</g>
<!-- :shared:feature:collections&#45;&gt;:shared:domain -->
<g id="edge4" class="edge">
<title>:shared:feature:collections&#45;&gt;:shared:domain</title>
<path fill="none" stroke="black" stroke-dasharray="1,5" d="M860.22,-548.08C860.22,-548.08 860.22,-178.24 860.22,-178.24"/>
<polygon fill="black" stroke="black" points="863.72,-178.24 860.22,-168.24 856.72,-178.24 863.72,-178.24"/>
</g>
<!-- :ui:common -->
<g id="node6" class="node">
<title>:ui:common</title>
<ellipse fill="#b59aff" stroke="black" cx="568.84" cy="-429" rx="64.19" ry="18"/>
<text text-anchor="middle" x="568.84" y="-425.3" font-family="Times,serif" font-size="14.00">:ui:common</text>
</g>
<!-- :shared:feature:collections&#45;&gt;:ui:common -->
<g id="edge5" class="edge">
<title>:shared:feature:collections&#45;&gt;:ui:common</title>
<path fill="none" stroke="black" stroke-dasharray="1,5" d="M775.92,-553.82C775.92,-522.04 775.92,-439 775.92,-439 775.92,-439 632.44,-439 632.44,-439"/>
<polygon fill="black" stroke="black" points="632.44,-435.5 622.44,-439 632.44,-442.5 632.44,-435.5"/>
</g>
<!-- :ui:core -->
<g id="node7" class="node">
<title>:ui:core</title>
<ellipse fill="#b59aff" stroke="black" cx="222.84" cy="-155" rx="45.49" ry="18"/>
<text text-anchor="middle" x="222.84" y="-151.3" font-family="Times,serif" font-size="14.00">:ui:core</text>
</g>
<!-- :ui:test:screenshot&#45;&gt;:ui:core -->
<g id="edge6" class="edge">
<title>:ui:test:screenshot&#45;&gt;:ui:core</title>
<path fill="none" stroke="black" stroke-dasharray="1,5" d="M182.79,-283.43C182.79,-283.43 182.79,-173.57 182.79,-173.57"/>
<polygon fill="black" stroke="black" points="186.29,-173.57 182.79,-163.57 179.29,-173.57 186.29,-173.57"/>
</g>
<!-- :ui:test:screenshot&#45;&gt;:ui:core -->
<g id="edge21" class="edge">
<title>:ui:test:screenshot&#45;&gt;:ui:core</title>
<path fill="none" stroke="black" stroke-dasharray="1,5" d="M188.24,-285.76C188.24,-285.76 188.24,-176.76 188.24,-176.76"/>
<polygon fill="black" stroke="black" points="191.74,-176.76 188.24,-166.76 184.74,-176.76 191.74,-176.76"/>
</g>
<!-- :test:image -->
<g id="node8" class="node">
<title>:test:image</title>
<ellipse fill="#9affb5" stroke="black" cx="95.84" cy="-155" rx="63.09" ry="18"/>
<text text-anchor="middle" x="95.84" y="-151.3" font-family="Times,serif" font-size="14.00">:test:image</text>
</g>
<!-- :ui:test:screenshot&#45;&gt;:test:image -->
<g id="edge7" class="edge">
<title>:ui:test:screenshot&#45;&gt;:test:image</title>
<path fill="none" stroke="black" stroke-dasharray="1,5" d="M74.83,-274.37C74.83,-274.37 74.83,-182.13 74.83,-182.13"/>
<polygon fill="black" stroke="black" points="78.33,-182.13 74.83,-172.13 71.33,-182.13 78.33,-182.13"/>
</g>
<!-- :ui:test:screenshot&#45;&gt;:test:image -->
<g id="edge22" class="edge">
<title>:ui:test:screenshot&#45;&gt;:test:image</title>
<path fill="none" stroke="black" stroke-dasharray="1,5" d="M116.86,-274.37C116.86,-274.37 116.86,-182.13 116.86,-182.13"/>
<polygon fill="black" stroke="black" points="120.36,-182.13 116.86,-172.13 113.36,-182.13 120.36,-182.13"/>
</g>
<!-- :core:preferences&#45;&gt;:core:models -->
<g id="edge9" class="edge">
<title>:core:preferences&#45;&gt;:core:models</title>
<path fill="none" stroke="black" stroke-dasharray="1,5" d="M960.7,-281.1C960.7,-229.7 960.7,-14 960.7,-14 960.7,-14 880.7,-14 880.7,-14"/>
<polygon fill="black" stroke="black" points="880.7,-10.5 870.7,-14 880.7,-17.5 880.7,-10.5"/>
</g>
<!-- :core:preferences&#45;&gt;:core:models -->
<g id="edge30" class="edge">
<title>:core:preferences&#45;&gt;:core:models</title>
<path fill="none" stroke="black" stroke-dasharray="1,5" d="M979.2,-277.47C979.2,-219.4 979.2,-7 979.2,-7 979.2,-7 868.16,-7 868.16,-7"/>
<polygon fill="black" stroke="black" points="868.16,-3.5 858.16,-7 868.16,-10.5 868.16,-3.5"/>
</g>
<!-- :core:coroutines -->
<g id="node9" class="node">
<title>:core:coroutines</title>
<ellipse fill="#b59aff" stroke="black" cx="1082.84" cy="-155" rx="85.29" ry="18"/>
<text text-anchor="middle" x="1082.84" y="-151.3" font-family="Times,serif" font-size="14.00">:core:coroutines</text>
</g>
<!-- :core:preferences&#45;&gt;:core:coroutines -->
<g id="edge8" class="edge">
<title>:core:preferences&#45;&gt;:core:coroutines</title>
<path fill="none" stroke="black" stroke-dasharray="1,5" d="M1040.29,-273.81C1040.29,-273.81 1040.29,-180.72 1040.29,-180.72"/>
<polygon fill="black" stroke="black" points="1043.79,-180.72 1040.29,-170.72 1036.79,-180.72 1043.79,-180.72"/>
</g>
<!-- :core:preferences&#45;&gt;:core:coroutines -->
<g id="edge29" class="edge">
<title>:core:preferences&#45;&gt;:core:coroutines</title>
<path fill="none" stroke="black" stroke-dasharray="1,5" d="M1082.89,-276.55C1082.89,-276.55 1082.89,-183.21 1082.89,-183.21"/>
<polygon fill="black" stroke="black" points="1086.39,-183.21 1082.89,-173.21 1079.39,-183.21 1086.39,-183.21"/>
</g>
<!-- :shared:domain&#45;&gt;:core:models -->
<g id="edge10" class="edge">
<title>:shared:domain&#45;&gt;:core:models</title>
<path fill="none" stroke="black" stroke-dasharray="1,5" d="M768.07,-138.47C768.07,-138.47 768.07,-43.74 768.07,-43.74"/>
<polygon fill="black" stroke="black" points="771.57,-43.74 768.07,-33.74 764.57,-43.74 771.57,-43.74"/>
</g>
<!-- :shared:domain&#45;&gt;:core:models -->
<g id="edge31" class="edge">
<title>:shared:domain&#45;&gt;:core:models</title>
<path fill="none" stroke="black" stroke-dasharray="1,5" d="M802.84,-136.81C802.84,-136.81 802.84,-46.27 802.84,-46.27"/>
<polygon fill="black" stroke="black" points="806.34,-46.27 802.84,-36.27 799.34,-46.27 806.34,-46.27"/>
</g>
<!-- :shared:domain&#45;&gt;:core:models -->
<g id="edge34" class="edge">
<title>:shared:domain&#45;&gt;:core:models</title>
<path fill="none" stroke="black" stroke-dasharray="1,5" d="M837.61,-138.47C837.61,-138.47 837.61,-43.74 837.61,-43.74"/>
<polygon fill="black" stroke="black" points="841.11,-43.74 837.61,-33.74 834.11,-43.74 841.11,-43.74"/>
</g>
<!-- :ui:common&#45;&gt;:ui:test:screenshot -->
<g id="edge11" class="edge">
<title>:ui:common&#45;&gt;:ui:test:screenshot</title>
<path fill="none" stroke="#ff9ab1" stroke-dasharray="1,5" d="M512.7,-438C394.16,-438 129.12,-438 129.12,-438 129.12,-438 129.12,-319.03 129.12,-319.03"/>
<polygon fill="#ff9ab1" stroke="#ff9ab1" points="132.62,-319.03 129.12,-309.03 125.62,-319.03 132.62,-319.03"/>
</g>
<!-- :ui:common&#45;&gt;:core:models -->
<g id="edge12" class="edge">
<title>:ui:common&#45;&gt;:core:models</title>
<path fill="none" stroke="black" d="M631.94,-425C729.12,-425 904.32,-425 904.32,-425 904.32,-425 904.32,-28 904.32,-28 904.32,-28 870.7,-28 870.7,-28"/>
<polygon fill="black" stroke="black" points="870.7,-24.5 860.7,-28 870.7,-31.5 870.7,-24.5"/>
</g>
<!-- :ui:common&#45;&gt;:core:preferences -->
<g id="edge16" class="edge">
<title>:ui:common&#45;&gt;:core:preferences</title>
<path fill="none" stroke="black" stroke-dasharray="1,5" d="M632.44,-432C744.35,-432 964.71,-432 964.71,-432 964.71,-432 964.71,-313.94 964.71,-313.94"/>
<polygon fill="black" stroke="black" points="968.21,-313.94 964.71,-303.94 961.21,-313.94 968.21,-313.94"/>
</g>
<!-- :ui:common&#45;&gt;:shared:domain -->
<g id="edge18" class="edge">
<title>:ui:common&#45;&gt;:shared:domain</title>
<path fill="none" stroke="black" stroke-dasharray="1,5" d="M619.85,-418C697.15,-418 835.05,-418 835.05,-418 835.05,-418 835.05,-181.85 835.05,-181.85"/>
<polygon fill="black" stroke="black" points="838.55,-181.85 835.05,-171.85 831.55,-181.85 838.55,-181.85"/>
</g>
<!-- :ui:common&#45;&gt;:ui:core -->
<g id="edge13" class="edge">
<title>:ui:common&#45;&gt;:ui:core</title>
<path fill="none" stroke="black" d="M504.38,-429C404.01,-429 221.79,-429 221.79,-429 221.79,-429 221.79,-183.4 221.79,-183.4"/>
<polygon fill="black" stroke="black" points="225.29,-183.4 221.79,-173.4 218.29,-183.4 225.29,-183.4"/>
</g>
<!-- :data:coverart -->
<g id="node10" class="node">
<title>:data:coverart</title>
<ellipse fill="#b59aff" stroke="black" cx="733.84" cy="-292" rx="76.09" ry="18"/>
<text text-anchor="middle" x="733.84" y="-288.3" font-family="Times,serif" font-size="14.00">:data:coverart</text>
</g>
<!-- :ui:common&#45;&gt;:data:coverart -->
<g id="edge14" class="edge">
<title>:ui:common&#45;&gt;:data:coverart</title>
<path fill="none" stroke="black" stroke-dasharray="1,5" d="M622.6,-418.72C622.6,-387.84 622.6,-298 622.6,-298 622.6,-298 652.13,-298 652.13,-298"/>
<polygon fill="black" stroke="black" points="652.13,-301.5 662.13,-298 652.13,-294.5 652.13,-301.5"/>
</g>
<!-- :data:musicbrainz -->
<g id="node11" class="node">
<title>:data:musicbrainz</title>
<ellipse fill="#b59aff" stroke="black" cx="507.84" cy="-292" rx="93.68" ry="18"/>
<text text-anchor="middle" x="507.84" y="-288.3" font-family="Times,serif" font-size="14.00">:data:musicbrainz</text>
</g>
<!-- :ui:common&#45;&gt;:data:musicbrainz -->
<g id="edge15" class="edge">
<title>:ui:common&#45;&gt;:data:musicbrainz</title>
<path fill="none" stroke="black" stroke-dasharray="1,5" d="M552.97,-411.37C552.97,-411.37 552.97,-317.86 552.97,-317.86"/>
<polygon fill="black" stroke="black" points="556.47,-317.86 552.97,-307.86 549.47,-317.86 556.47,-317.86"/>
</g>
<!-- :core:logging:api -->
<g id="node12" class="node">
<title>:core:logging:api</title>
<ellipse fill="#b59aff" stroke="black" cx="575.84" cy="-155" rx="88.28" ry="18"/>
<text text-anchor="middle" x="575.84" y="-151.3" font-family="Times,serif" font-size="14.00">:core:logging:api</text>
</g>
<!-- :ui:common&#45;&gt;:core:logging:api -->
<g id="edge17" class="edge">
<title>:ui:common&#45;&gt;:core:logging:api</title>
<path fill="none" stroke="black" stroke-dasharray="1,5" d="M612.02,-415.41C612.02,-415.41 612.02,-181.73 612.02,-181.73"/>
<polygon fill="black" stroke="black" points="615.52,-181.73 612.02,-171.73 608.52,-181.73 615.52,-181.73"/>
</g>
<!-- :ui:image -->
<g id="node13" class="node">
<title>:ui:image</title>
<ellipse fill="#b59aff" stroke="black" cx="303.84" cy="-292" rx="53.89" ry="18"/>
<text text-anchor="middle" x="303.84" y="-288.3" font-family="Times,serif" font-size="14.00">:ui:image</text>
</g>
<!-- :ui:common&#45;&gt;:ui:image -->
<g id="edge19" class="edge">
<title>:ui:common&#45;&gt;:ui:image</title>
<path fill="none" stroke="black" stroke-dasharray="1,5" d="M512.97,-420C435.22,-420 303.84,-420 303.84,-420 303.84,-420 303.84,-320.07 303.84,-320.07"/>
<polygon fill="black" stroke="black" points="307.34,-320.07 303.84,-310.07 300.34,-320.07 307.34,-320.07"/>
</g>
<!-- :shared:strings -->
<g id="node14" class="node">
<title>:shared:strings</title>
<ellipse fill="#b59aff" stroke="black" cx="222.84" cy="-18" rx="81.49" ry="18"/>
<text text-anchor="middle" x="222.84" y="-14.3" font-family="Times,serif" font-size="14.00">:shared:strings</text>
</g>
<!-- :ui:core&#45;&gt;:shared:strings -->
<g id="edge20" class="edge">
<title>:ui:core&#45;&gt;:shared:strings</title>
<path fill="none" stroke="black" d="M200.09,-139.28C200.09,-139.28 200.09,-45.69 200.09,-45.69"/>
<polygon fill="black" stroke="black" points="203.59,-45.69 200.09,-35.69 196.59,-45.69 203.59,-45.69"/>
</g>
<!-- :ui:core&#45;&gt;:shared:strings -->
<g id="edge23" class="edge">
<title>:ui:core&#45;&gt;:shared:strings</title>
<path fill="none" stroke="black" d="M222.84,-136.81C222.84,-136.81 222.84,-46.27 222.84,-46.27"/>
<polygon fill="black" stroke="black" points="226.34,-46.27 222.84,-36.27 219.34,-46.27 226.34,-46.27"/>
</g>
<!-- :ui:core&#45;&gt;:shared:strings -->
<g id="edge35" class="edge">
<title>:ui:core&#45;&gt;:shared:strings</title>
<path fill="none" stroke="black" d="M245.59,-139.28C245.59,-139.28 245.59,-45.69 245.59,-45.69"/>
<polygon fill="black" stroke="black" points="249.09,-45.69 245.59,-35.69 242.09,-45.69 249.09,-45.69"/>
</g>
<!-- :data:coverart&#45;&gt;:core:models -->
<g id="edge25" class="edge">
<title>:data:coverart&#45;&gt;:core:models</title>
<path fill="none" stroke="black" stroke-dasharray="1,5" d="M692.27,-276.61C692.27,-220.05 692.27,-27 692.27,-27 692.27,-27 732.38,-27 732.38,-27"/>
<polygon fill="black" stroke="black" points="732.38,-30.5 742.38,-27 732.38,-23.5 732.38,-30.5"/>
</g>
<!-- :data:coverart&#45;&gt;:shared:domain -->
<g id="edge26" class="edge">
<title>:data:coverart&#45;&gt;:shared:domain</title>
<path fill="none" stroke="black" stroke-dasharray="1,5" d="M765.09,-275.47C765.09,-275.47 765.09,-181.16 765.09,-181.16"/>
<polygon fill="black" stroke="black" points="768.59,-181.16 765.09,-171.16 761.59,-181.16 768.59,-181.16"/>
</g>
<!-- :data:coverart&#45;&gt;:core:logging:api -->
<g id="edge24" class="edge">
<title>:data:coverart&#45;&gt;:core:logging:api</title>
<path fill="none" stroke="black" stroke-dasharray="1,5" d="M662.11,-286C652.29,-286 645.49,-286 645.49,-286 645.49,-286 645.49,-176.17 645.49,-176.17"/>
<polygon fill="black" stroke="black" points="648.99,-176.17 645.49,-166.17 641.99,-176.17 648.99,-176.17"/>
</g>
<!-- :data:musicbrainz&#45;&gt;:core:models -->
<g id="edge28" class="edge">
<title>:data:musicbrainz&#45;&gt;:core:models</title>
<path fill="none" stroke="black" stroke-dasharray="1,5" d="M450.85,-277.65C450.85,-221.28 450.85,-18 450.85,-18 450.85,-18 722.88,-18 722.88,-18"/>
<polygon fill="black" stroke="black" points="722.88,-21.5 732.88,-18 722.88,-14.5 722.88,-21.5"/>
</g>
<!-- :data:musicbrainz&#45;&gt;:core:logging:api -->
<g id="edge27" class="edge">
<title>:data:musicbrainz&#45;&gt;:core:logging:api</title>
<path fill="none" stroke="black" stroke-dasharray="1,5" d="M544.44,-275.2C544.44,-275.2 544.44,-181.94 544.44,-181.94"/>
<polygon fill="black" stroke="black" points="547.94,-181.94 544.44,-171.94 540.94,-181.94 547.94,-181.94"/>
</g>
<!-- :ui:image&#45;&gt;:core:models -->
<g id="edge32" class="edge">
<title>:ui:image&#45;&gt;:core:models</title>
<path fill="none" stroke="black" stroke-dasharray="1,5" d="M330.94,-276.38C330.94,-217.05 330.94,-9 330.94,-9 330.94,-9 732.59,-9 732.59,-9"/>
<polygon fill="black" stroke="black" points="732.59,-12.5 742.59,-9 732.59,-5.5 732.59,-12.5"/>
</g>
<!-- :ui:image&#45;&gt;:ui:core -->
<g id="edge33" class="edge">
<title>:ui:image&#45;&gt;:ui:core</title>
<path fill="none" stroke="black" stroke-dasharray="1,5" d="M259.12,-281.7C259.12,-281.7 259.12,-176.18 259.12,-176.18"/>
<polygon fill="black" stroke="black" points="262.62,-176.18 259.12,-166.18 255.62,-176.18 262.62,-176.18"/>
</g>
</g>
</svg>
