<?xml version="1.0" encoding="UTF-8" standalone="no"?>
<!DOCTYPE svg PUBLIC "-//W3C//DTD SVG 1.1//EN"
 "http://www.w3.org/Graphics/SVG/1.1/DTD/svg11.dtd">
<!-- Generated by graphviz version 2.43.0 (0)
 -->
<!-- Title: %3 Pages: 1 -->
<svg width="966pt" height="1077pt"
 viewBox="0.00 0.00 966.29 1077.00" xmlns="http://www.w3.org/2000/svg" xmlns:xlink="http://www.w3.org/1999/xlink">
<g id="graph0" class="graph" transform="scale(1 1) rotate(0) translate(4 1073)">
<title>%3</title>
<polygon fill="white" stroke="transparent" points="-4,4 -4,-1073 962.29,-1073 962.29,4 -4,4"/>
<text text-anchor="middle" x="479.14" y="-1041" font-family="Times,serif" font-size="30.00">Dependencies</text>
<text text-anchor="middle" x="479.14" y="-1008" font-family="Times,serif" font-size="30.00"> </text>
<!-- :shared:feature:collections -->
<g id="node1" class="node">
<title>:shared:feature:collections</title>
<polygon fill="#b59aff" stroke="black" points="817.04,-995 611.04,-995 611.04,-959 817.04,-959 817.04,-995"/>
<text text-anchor="middle" x="714.04" y="-973.3" font-family="Times,serif" font-size="14.00">:shared:feature:collections</text>
</g>
<!-- :ui:test:screenshot -->
<g id="node2" class="node">
<title>:ui:test:screenshot</title>
<ellipse fill="#9affb5" stroke="black" cx="823.04" cy="-703" rx="96.68" ry="18"/>
<text text-anchor="middle" x="823.04" y="-699.3" font-family="Times,serif" font-size="14.00">:ui:test:screenshot</text>
</g>
<!-- :shared:feature:collections&#45;&gt;:ui:test:screenshot -->
<g id="edge1" class="edge">
<title>:shared:feature:collections&#45;&gt;:ui:test:screenshot</title>
<path fill="none" stroke="#ff9ab1" stroke-dasharray="1,5" d="M797.72,-958.6C797.72,-958.6 797.72,-730.61 797.72,-730.61"/>
<polygon fill="#ff9ab1" stroke="#ff9ab1" points="801.22,-730.61 797.72,-720.61 794.22,-730.61 801.22,-730.61"/>
</g>
<!-- :ui:common -->
<g id="node3" class="node">
<title>:ui:common</title>
<ellipse fill="#b59aff" stroke="black" cx="714.04" cy="-840" rx="64.19" ry="18"/>
<text text-anchor="middle" x="714.04" y="-836.3" font-family="Times,serif" font-size="14.00">:ui:common</text>
</g>
<!-- :shared:feature:collections&#45;&gt;:ui:common -->
<g id="edge2" class="edge">
<title>:shared:feature:collections&#45;&gt;:ui:common</title>
<path fill="none" stroke="black" stroke-dasharray="1,5" d="M714.04,-958.81C714.04,-958.81 714.04,-868.27 714.04,-868.27"/>
<polygon fill="black" stroke="black" points="717.54,-868.27 714.04,-858.27 710.54,-868.27 717.54,-868.27"/>
</g>
<!-- :shared:domain -->
<g id="node4" class="node">
<title>:shared:domain</title>
<ellipse fill="#b59aff" stroke="black" cx="480.04" cy="-155" rx="82.59" ry="18"/>
<text text-anchor="middle" x="480.04" y="-151.3" font-family="Times,serif" font-size="14.00">:shared:domain</text>
</g>
<!-- :shared:feature:collections&#45;&gt;:shared:domain -->
<g id="edge3" class="edge">
<title>:shared:feature:collections&#45;&gt;:shared:domain</title>
<path fill="none" stroke="black" stroke-dasharray="1,5" d="M630.37,-958.81C630.37,-838.41 630.37,-161 630.37,-161 630.37,-161 568.29,-161 568.29,-161"/>
<polygon fill="black" stroke="black" points="568.29,-157.5 558.29,-161 568.29,-164.5 568.29,-157.5"/>
</g>
<!-- :ui:core -->
<g id="node5" class="node">
<title>:ui:core</title>
<ellipse fill="#b59aff" stroke="black" cx="878.04" cy="-566" rx="45.49" ry="18"/>
<text text-anchor="middle" x="878.04" y="-562.3" font-family="Times,serif" font-size="14.00">:ui:core</text>
</g>
<!-- :ui:test:screenshot&#45;&gt;:ui:core -->
<g id="edge4" class="edge">
<title>:ui:test:screenshot&#45;&gt;:ui:core</title>
<path fill="none" stroke="black" stroke-dasharray="1,5" d="M890.77,-690.11C890.77,-690.11 890.77,-593.66 890.77,-593.66"/>
<polygon fill="black" stroke="black" points="894.27,-593.66 890.77,-583.66 887.27,-593.66 894.27,-593.66"/>
</g>
<!-- :test:image -->
<g id="node6" class="node">
<title>:test:image</title>
<ellipse fill="#9affb5" stroke="black" cx="751.04" cy="-566" rx="63.09" ry="18"/>
<text text-anchor="middle" x="751.04" y="-562.3" font-family="Times,serif" font-size="14.00">:test:image</text>
</g>
<!-- :ui:test:screenshot&#45;&gt;:test:image -->
<g id="edge5" class="edge">
<title>:ui:test:screenshot&#45;&gt;:test:image</title>
<path fill="none" stroke="black" stroke-dasharray="1,5" d="M770.14,-687.82C770.14,-687.82 770.14,-593.4 770.14,-593.4"/>
<polygon fill="black" stroke="black" points="773.64,-593.4 770.14,-583.4 766.64,-593.4 773.64,-593.4"/>
</g>
<!-- :ui:common&#45;&gt;:ui:test:screenshot -->
<g id="edge8" class="edge">
<title>:ui:common&#45;&gt;:ui:test:screenshot</title>
<path fill="none" stroke="#ff9ab1" stroke-dasharray="1,5" d="M752.29,-825.34C752.29,-825.34 752.29,-725.55 752.29,-725.55"/>
<polygon fill="#ff9ab1" stroke="#ff9ab1" points="755.79,-725.55 752.29,-715.55 748.79,-725.55 755.79,-725.55"/>
</g>
<!-- :ui:common&#45;&gt;:shared:domain -->
<g id="edge10" class="edge">
<title>:ui:common&#45;&gt;:shared:domain</title>
<path fill="none" stroke="black" d="M672.68,-826.2C672.68,-728.81 672.68,-149 672.68,-149 672.68,-149 568.12,-149 568.12,-149"/>
<polygon fill="black" stroke="black" points="568.12,-145.5 558.12,-149 568.12,-152.5 568.12,-145.5"/>
</g>
<!-- :ui:common&#45;&gt;:ui:core -->
<g id="edge11" class="edge">
<title>:ui:common&#45;&gt;:ui:core</title>
<path fill="none" stroke="black" d="M713.47,-821.72C713.47,-771.3 713.47,-634 713.47,-634 713.47,-634 861.66,-634 861.66,-634 861.66,-634 861.66,-592.81 861.66,-592.81"/>
<polygon fill="black" stroke="black" points="865.16,-592.81 861.66,-582.81 858.16,-592.81 865.16,-592.81"/>
</g>
<!-- :ui:common&#45;&gt;:test:image -->
<g id="edge6" class="edge">
<title>:ui:common&#45;&gt;:test:image</title>
<path fill="none" stroke="black" stroke-dasharray="1,5" d="M700.73,-822.02C700.73,-822.02 700.73,-586.94 700.73,-586.94"/>
<polygon fill="black" stroke="black" points="704.23,-586.94 700.73,-576.94 697.23,-586.94 704.23,-586.94"/>
</g>
<!-- :test&#45;data -->
<g id="node7" class="node">
<title>:test&#45;data</title>
<ellipse fill="#b59aff" stroke="black" cx="376.04" cy="-703" rx="55.49" ry="18"/>
<text text-anchor="middle" x="376.04" y="-699.3" font-family="Times,serif" font-size="14.00">:test&#45;data</text>
</g>
<!-- :ui:common&#45;&gt;:test&#45;data -->
<g id="edge7" class="edge">
<title>:ui:common&#45;&gt;:test&#45;data</title>
<path fill="none" stroke="#ff9ab1" stroke-dasharray="1,5" d="M657.36,-831.43C657.36,-801.44 657.36,-703 657.36,-703 657.36,-703 441.62,-703 441.62,-703"/>
<polygon fill="#ff9ab1" stroke="#ff9ab1" points="441.62,-699.5 431.62,-703 441.62,-706.5 441.62,-699.5"/>
</g>
<!-- :core:coroutines -->
<g id="node8" class="node">
<title>:core:coroutines</title>
<ellipse fill="#b59aff" stroke="black" cx="276.04" cy="-18" rx="85.29" ry="18"/>
<text text-anchor="middle" x="276.04" y="-14.3" font-family="Times,serif" font-size="14.00">:core:coroutines</text>
</g>
<!-- :ui:common&#45;&gt;:core:coroutines -->
<g id="edge9" class="edge">
<title>:ui:common&#45;&gt;:core:coroutines</title>
<path fill="none" stroke="#ff9ab1" stroke-dasharray="1,5" d="M680.34,-824.31C680.34,-710.67 680.34,-18 680.34,-18 680.34,-18 371.29,-18 371.29,-18"/>
<polygon fill="#ff9ab1" stroke="#ff9ab1" points="371.29,-14.5 361.29,-18 371.29,-21.5 371.29,-14.5"/>
</g>
<!-- :core:logging:api -->
<g id="node9" class="node">
<title>:core:logging:api</title>
<ellipse fill="#b59aff" stroke="black" cx="154.04" cy="-155" rx="88.28" ry="18"/>
<text text-anchor="middle" x="154.04" y="-151.3" font-family="Times,serif" font-size="14.00">:core:logging:api</text>
</g>
<!-- :ui:common&#45;&gt;:core:logging:api -->
<g id="edge12" class="edge">
<title>:ui:common&#45;&gt;:core:logging:api</title>
<path fill="none" stroke="black" stroke-dasharray="1,5" d="M665.02,-828.23C665.02,-742.93 665.02,-223 665.02,-223 665.02,-223 183.51,-223 183.51,-223 183.51,-223 183.51,-182.16 183.51,-182.16"/>
<polygon fill="black" stroke="black" points="187.01,-182.16 183.51,-172.16 180.01,-182.16 187.01,-182.16"/>
</g>
<!-- :ui:core&#45;&gt;:shared:domain -->
<g id="edge14" class="edge">
<title>:ui:core&#45;&gt;:shared:domain</title>
<path fill="none" stroke="black" stroke-dasharray="1,5" d="M862.88,-548.94C862.88,-528.51 862.88,-497 862.88,-497 862.88,-497 547.7,-497 547.7,-497 547.7,-497 547.7,-175.61 547.7,-175.61"/>
<polygon fill="black" stroke="black" points="551.2,-175.61 547.7,-165.61 544.2,-175.61 551.2,-175.61"/>
</g>
<!-- :shared:strings -->
<g id="node10" class="node">
<title>:shared:strings</title>
<ellipse fill="#b59aff" stroke="black" cx="877.04" cy="-429" rx="81.49" ry="18"/>
<text text-anchor="middle" x="877.04" y="-425.3" font-family="Times,serif" font-size="14.00">:shared:strings</text>
</g>
<!-- :ui:core&#45;&gt;:shared:strings -->
<g id="edge13" class="edge">
<title>:ui:core&#45;&gt;:shared:strings</title>
<path fill="none" stroke="black" d="M893.21,-548.93C893.21,-548.93 893.21,-456.72 893.21,-456.72"/>
<polygon fill="black" stroke="black" points="896.71,-456.72 893.21,-446.72 889.71,-456.72 896.71,-456.72"/>
</g>
<!-- :test&#45;data&#45;&gt;:shared:domain -->
<g id="edge15" class="edge">
<title>:test&#45;data&#45;&gt;:shared:domain</title>
<path fill="none" stroke="black" stroke-dasharray="1,5" d="M370.67,-684.79C370.67,-590.81 370.67,-165 370.67,-165 370.67,-165 401.4,-165 401.4,-165"/>
<polygon fill="black" stroke="black" points="401.4,-168.5 411.4,-165 401.39,-161.5 401.4,-168.5"/>
</g>
<!-- :test&#45;data&#45;&gt;:core:coroutines -->
<g id="edge16" class="edge">
<title>:test&#45;data&#45;&gt;:core:coroutines</title>
<path fill="none" stroke="black" stroke-dasharray="1,5" d="M354.24,-686.41C354.24,-686.41 354.24,-35.16 354.24,-35.16"/>
<polygon fill="black" stroke="black" points="357.74,-35.16 354.24,-25.16 350.74,-35.16 357.74,-35.16"/>
</g>
<!-- :data:database -->
<g id="node11" class="node">
<title>:data:database</title>
<ellipse fill="#b59aff" stroke="black" cx="261.04" cy="-429" rx="79.09" ry="18"/>
<text text-anchor="middle" x="261.04" y="-425.3" font-family="Times,serif" font-size="14.00">:data:database</text>
</g>
<!-- :test&#45;data&#45;&gt;:data:database -->
<g id="edge17" class="edge">
<title>:test&#45;data&#45;&gt;:data:database</title>
<path fill="none" stroke="black" stroke-dasharray="1,5" d="M335.45,-690.51C335.45,-690.51 335.45,-445.51 335.45,-445.51"/>
<polygon fill="black" stroke="black" points="338.95,-445.51 335.45,-435.51 331.95,-445.51 338.95,-445.51"/>
</g>
<!-- :data:musicbrainz -->
<g id="node12" class="node">
<title>:data:musicbrainz</title>
<ellipse fill="#b59aff" stroke="black" cx="154.04" cy="-292" rx="93.68" ry="18"/>
<text text-anchor="middle" x="154.04" y="-288.3" font-family="Times,serif" font-size="14.00">:data:musicbrainz</text>
</g>
<!-- :test&#45;data&#45;&gt;:data:musicbrainz -->
<g id="edge18" class="edge">
<title>:test&#45;data&#45;&gt;:data:musicbrainz</title>
<path fill="none" stroke="black" stroke-dasharray="1,5" d="M347.29,-687.62C347.29,-613.64 347.29,-298 347.29,-298 347.29,-298 252.46,-298 252.46,-298"/>
<polygon fill="black" stroke="black" points="252.46,-294.5 242.46,-298 252.46,-301.5 252.46,-294.5"/>
</g>
<!-- :data:coverart -->
<g id="node13" class="node">
<title>:data:coverart</title>
<ellipse fill="#b59aff" stroke="black" cx="76.04" cy="-566" rx="76.09" ry="18"/>
<text text-anchor="middle" x="76.04" y="-562.3" font-family="Times,serif" font-size="14.00">:data:coverart</text>
</g>
<!-- :test&#45;data&#45;&gt;:data:coverart -->
<g id="edge19" class="edge">
<title>:test&#45;data&#45;&gt;:data:coverart</title>
<path fill="none" stroke="black" stroke-dasharray="1,5" d="M325.68,-695.38C325.68,-667.82 325.68,-575 325.68,-575 325.68,-575 151.96,-575 151.96,-575"/>
<polygon fill="black" stroke="black" points="151.96,-571.5 141.96,-575 151.96,-578.5 151.96,-571.5"/>
</g>
<!-- :data:spotify -->
<g id="node14" class="node">
<title>:data:spotify</title>
<ellipse fill="#b59aff" stroke="black" cx="449.04" cy="-292" rx="68.79" ry="18"/>
<text text-anchor="middle" x="449.04" y="-288.3" font-family="Times,serif" font-size="14.00">:data:spotify</text>
</g>
<!-- :test&#45;data&#45;&gt;:data:spotify -->
<g id="edge20" class="edge">
<title>:test&#45;data&#45;&gt;:data:spotify</title>
<path fill="none" stroke="black" stroke-dasharray="1,5" d="M405.72,-687.39C405.72,-687.39 405.72,-316.33 405.72,-316.33"/>
<polygon fill="black" stroke="black" points="409.22,-316.33 405.72,-306.33 402.22,-316.33 409.22,-316.33"/>
</g>
<!-- :core:logging:api&#45;&gt;:core:coroutines -->
<g id="edge21" class="edge">
<title>:core:logging:api&#45;&gt;:core:coroutines</title>
<path fill="none" stroke="black" d="M216.67,-142.11C216.67,-142.11 216.67,-40.95 216.67,-40.95"/>
<polygon fill="black" stroke="black" points="220.17,-40.95 216.67,-30.95 213.17,-40.95 220.17,-40.95"/>
</g>
<!-- :data:database&#45;&gt;:shared:domain -->
<g id="edge22" class="edge">
<title>:data:database&#45;&gt;:shared:domain</title>
<path fill="none" stroke="black" stroke-dasharray="1,5" d="M317.16,-415.93C317.16,-361.8 317.16,-158 317.16,-158 317.16,-158 388.6,-158 388.6,-158"/>
<polygon fill="black" stroke="black" points="388.6,-161.5 398.6,-158 388.6,-154.5 388.6,-161.5"/>
</g>
<!-- :data:database&#45;&gt;:core:coroutines -->
<g id="edge23" class="edge">
<title>:data:database&#45;&gt;:core:coroutines</title>
<path fill="none" stroke="black" stroke-dasharray="1,5" d="M270.81,-411.08C270.81,-411.08 270.81,-46.02 270.81,-46.02"/>
<polygon fill="black" stroke="black" points="274.31,-46.02 270.81,-36.02 267.31,-46.02 274.31,-46.02"/>
</g>
<!-- :data:database&#45;&gt;:data:musicbrainz -->
<g id="edge24" class="edge">
<title>:data:database&#45;&gt;:data:musicbrainz</title>
<path fill="none" stroke="black" stroke-dasharray="1,5" d="M214.69,-414.34C214.69,-414.34 214.69,-315.74 214.69,-315.74"/>
<polygon fill="black" stroke="black" points="218.19,-315.74 214.69,-305.74 211.19,-315.74 218.19,-315.74"/>
</g>
<!-- :data:musicbrainz&#45;&gt;:shared:domain -->
<g id="edge25" class="edge">
<title>:data:musicbrainz&#45;&gt;:shared:domain</title>
<path fill="none" stroke="black" stroke-dasharray="1,5" d="M242.67,-286C270.44,-286 293.99,-286 293.99,-286 293.99,-286 293.99,-151 293.99,-151 293.99,-151 389.52,-151 389.52,-151"/>
<polygon fill="black" stroke="black" points="389.52,-154.5 399.52,-151 389.52,-147.5 389.52,-154.5"/>
</g>
<!-- :data:musicbrainz&#45;&gt;:core:logging:api -->
<g id="edge26" class="edge">
<title>:data:musicbrainz&#45;&gt;:core:logging:api</title>
<path fill="none" stroke="black" stroke-dasharray="1,5" d="M124.58,-274.65C124.58,-274.65 124.58,-182.21 124.58,-182.21"/>
<polygon fill="black" stroke="black" points="128.08,-182.21 124.58,-172.21 121.08,-182.21 128.08,-182.21"/>
</g>
<!-- :data:coverart&#45;&gt;:shared:domain -->
<g id="edge27" class="edge">
<title>:data:coverart&#45;&gt;:shared:domain</title>
<path fill="none" stroke="black" stroke-dasharray="1,5" d="M141.97,-557C268.47,-557 532.82,-557 532.82,-557 532.82,-557 532.82,-179.31 532.82,-179.31"/>
<polygon fill="black" stroke="black" points="536.32,-179.31 532.82,-169.31 529.32,-179.31 536.32,-179.31"/>
</g>
<!-- :data:coverart&#45;&gt;:test&#45;data -->
<g id="edge30" class="edge">
<title>:data:coverart&#45;&gt;:test&#45;data</title>
<path fill="none" stroke="#ff9ab1" stroke-dasharray="1,5" d="M152.41,-566C227.38,-566 330.57,-566 330.57,-566 330.57,-566 330.57,-682.7 330.57,-682.7"/>
<polygon fill="#ff9ab1" stroke="#ff9ab1" points="327.07,-682.7 330.57,-692.7 334.07,-682.7 327.07,-682.7"/>
</g>
<!-- :data:coverart&#45;&gt;:core:coroutines -->
<g id="edge29" class="edge">
<title>:data:coverart&#45;&gt;:core:coroutines</title>
<path fill="none" stroke="black" stroke-dasharray="1,5" d="M20.15,-553.79C20.15,-472.93 20.15,-18 20.15,-18 20.15,-18 180.83,-18 180.83,-18"/>
<polygon fill="black" stroke="black" points="180.83,-21.5 190.83,-18 180.83,-14.5 180.83,-21.5"/>
</g>
<!-- :data:coverart&#45;&gt;:core:logging:api -->
<g id="edge28" class="edge">
<title>:data:coverart&#45;&gt;:core:logging:api</title>
<path fill="none" stroke="black" stroke-dasharray="1,5" d="M40.3,-549.89C40.3,-473.9 40.3,-155 40.3,-155 40.3,-155 55.54,-155 55.54,-155"/>
<polygon fill="black" stroke="black" points="55.54,-158.5 65.54,-155 55.54,-151.5 55.54,-158.5"/>
</g>
<!-- :data:coverart&#45;&gt;:data:database -->
<g id="edge32" class="edge">
<title>:data:coverart&#45;&gt;:data:database</title>
<path fill="none" stroke="#ff9ab1" stroke-dasharray="1,5" d="M121.54,-551.34C121.54,-516 121.54,-429 121.54,-429 121.54,-429 171.51,-429 171.51,-429"/>
<polygon fill="#ff9ab1" stroke="#ff9ab1" points="171.51,-432.5 181.51,-429 171.51,-425.5 171.51,-432.5"/>
</g>
<!-- :data:coverart&#45;&gt;:data:musicbrainz -->
<g id="edge31" class="edge">
<title>:data:coverart&#45;&gt;:data:musicbrainz</title>
<path fill="none" stroke="#ff9ab1" stroke-dasharray="1,5" d="M91,-548.02C91,-548.02 91,-315.34 91,-315.34"/>
<polygon fill="#ff9ab1" stroke="#ff9ab1" points="94.5,-315.34 91,-305.34 87.5,-315.34 94.5,-315.34"/>
</g>
<!-- :data:spotify&#45;&gt;:shared:domain -->
<g id="edge33" class="edge">
<title>:data:spotify&#45;&gt;:shared:domain</title>
<path fill="none" stroke="black" stroke-dasharray="1,5" d="M457.72,-274.09C457.72,-274.09 457.72,-182.48 457.72,-182.48"/>
<polygon fill="black" stroke="black" points="461.22,-182.48 457.72,-172.48 454.22,-182.48 461.22,-182.48"/>
</g>
<!-- :data:spotify&#45;&gt;:core:logging:api -->
<g id="edge34" class="edge">
<title>:data:spotify&#45;&gt;:core:logging:api</title>
<path fill="none" stroke="black" stroke-dasharray="1,5" d="M388.82,-283.19C388.82,-251.32 388.82,-144 388.82,-144 388.82,-144 234.17,-144 234.17,-144"/>
<polygon fill="black" stroke="black" points="234.17,-140.5 224.17,-144 234.17,-147.5 234.17,-140.5"/>
</g>
</g>
</svg>
