<?xml version="1.0" encoding="UTF-8" standalone="no"?>
<!DOCTYPE svg PUBLIC "-//W3C//DTD SVG 1.1//EN"
 "http://www.w3.org/Graphics/SVG/1.1/DTD/svg11.dtd">
<!-- Generated by graphviz version 2.43.0 (0)
 -->
<!-- Title: %3 Pages: 1 -->
<svg width="1070pt" height="803pt"
 viewBox="0.00 0.00 1070.24 803.00" xmlns="http://www.w3.org/2000/svg" xmlns:xlink="http://www.w3.org/1999/xlink">
<g id="graph0" class="graph" transform="scale(1 1) rotate(0) translate(4 799)">
<title>%3</title>
<polygon fill="white" stroke="transparent" points="-4,4 -4,-799 1066.24,-799 1066.24,4 -4,4"/>
<text text-anchor="middle" x="531.12" y="-767" font-family="Times,serif" font-size="30.00">Dependencies</text>
<text text-anchor="middle" x="531.12" y="-734" font-family="Times,serif" font-size="30.00"> </text>
<!-- :shared:feature:collections -->
<g id="node1" class="node">
<title>:shared:feature:collections</title>
<polygon fill="#b59aff" stroke="black" points="1062.24,-721 856.24,-721 856.24,-685 1062.24,-685 1062.24,-721"/>
<text text-anchor="middle" x="959.24" y="-699.3" font-family="Times,serif" font-size="14.00">:shared:feature:collections</text>
</g>
<!-- :ui:test:screenshot -->
<g id="node2" class="node">
<title>:ui:test:screenshot</title>
<ellipse fill="#9affb5" stroke="black" cx="959.24" cy="-429" rx="96.68" ry="18"/>
<text text-anchor="middle" x="959.24" y="-425.3" font-family="Times,serif" font-size="14.00">:ui:test:screenshot</text>
</g>
<!-- :shared:feature:collections&#45;&gt;:ui:test:screenshot -->
<g id="edge1" class="edge">
<title>:shared:feature:collections&#45;&gt;:ui:test:screenshot</title>
<path fill="none" stroke="#ff9ab1" stroke-dasharray="1,5" d="M991.52,-684.6C991.52,-684.6 991.52,-456.26 991.52,-456.26"/>
<polygon fill="#ff9ab1" stroke="#ff9ab1" points="995.02,-456.26 991.52,-446.26 988.02,-456.26 995.02,-456.26"/>
</g>
<!-- :ui:common -->
<g id="node3" class="node">
<title>:ui:common</title>
<ellipse fill="#b59aff" stroke="black" cx="796.24" cy="-566" rx="64.19" ry="18"/>
<text text-anchor="middle" x="796.24" y="-562.3" font-family="Times,serif" font-size="14.00">:ui:common</text>
</g>
<!-- :shared:feature:collections&#45;&gt;:ui:common -->
<g id="edge2" class="edge">
<title>:shared:feature:collections&#45;&gt;:ui:common</title>
<path fill="none" stroke="black" stroke-dasharray="1,5" d="M856.04,-703C822.66,-703 794.07,-703 794.07,-703 794.07,-703 794.07,-594.19 794.07,-594.19"/>
<polygon fill="black" stroke="black" points="797.57,-594.19 794.07,-584.19 790.57,-594.19 797.57,-594.19"/>
</g>
<!-- :shared:domain -->
<g id="node4" class="node">
<title>:shared:domain</title>
<ellipse fill="#b59aff" stroke="black" cx="759.24" cy="-18" rx="82.59" ry="18"/>
<text text-anchor="middle" x="759.24" y="-14.3" font-family="Times,serif" font-size="14.00">:shared:domain</text>
</g>
<!-- :shared:feature:collections&#45;&gt;:shared:domain -->
<g id="edge3" class="edge">
<title>:shared:feature:collections&#45;&gt;:shared:domain</title>
<path fill="none" stroke="black" stroke-dasharray="1,5" d="M926.96,-684.72C926.96,-634.3 926.96,-497 926.96,-497 926.96,-497 823.72,-497 823.72,-497 823.72,-497 823.72,-39.37 823.72,-39.37"/>
<polygon fill="black" stroke="black" points="827.22,-39.37 823.72,-29.37 820.22,-39.37 827.22,-39.37"/>
</g>
<!-- :test:image -->
<g id="node5" class="node">
<title>:test:image</title>
<ellipse fill="#9affb5" stroke="black" cx="931.24" cy="-292" rx="63.09" ry="18"/>
<text text-anchor="middle" x="931.24" y="-288.3" font-family="Times,serif" font-size="14.00">:test:image</text>
</g>
<!-- :ui:test:screenshot&#45;&gt;:test:image -->
<g id="edge4" class="edge">
<title>:ui:test:screenshot&#45;&gt;:test:image</title>
<path fill="none" stroke="black" stroke-dasharray="1,5" d="M931.24,-411.65C931.24,-411.65 931.24,-320.08 931.24,-320.08"/>
<polygon fill="black" stroke="black" points="934.74,-320.08 931.24,-310.08 927.74,-320.08 934.74,-320.08"/>
</g>
<!-- :ui:common&#45;&gt;:ui:test:screenshot -->
<g id="edge7" class="edge">
<title>:ui:common&#45;&gt;:ui:test:screenshot</title>
<path fill="none" stroke="#ff9ab1" stroke-dasharray="1,5" d="M854.32,-557.99C854.32,-529.97 854.32,-438 854.32,-438 854.32,-438 865.3,-438 865.3,-438"/>
<polygon fill="#ff9ab1" stroke="#ff9ab1" points="865.3,-441.5 875.3,-438 865.3,-434.5 865.3,-441.5"/>
</g>
<!-- :ui:common&#45;&gt;:shared:domain -->
<g id="edge8" class="edge">
<title>:ui:common&#45;&gt;:shared:domain</title>
<path fill="none" stroke="black" d="M805.66,-548.08C805.66,-548.08 805.66,-43.13 805.66,-43.13"/>
<polygon fill="black" stroke="black" points="809.16,-43.13 805.66,-33.13 802.16,-43.13 809.16,-43.13"/>
</g>
<!-- :ui:common&#45;&gt;:test:image -->
<g id="edge5" class="edge">
<title>:ui:common&#45;&gt;:test:image</title>
<path fill="none" stroke="black" stroke-dasharray="1,5" d="M848.05,-555.26C848.05,-504.6 848.05,-292 848.05,-292 848.05,-292 858.19,-292 858.19,-292"/>
<polygon fill="black" stroke="black" points="858.19,-295.5 868.19,-292 858.19,-288.5 858.19,-295.5"/>
</g>
<!-- :test&#45;data -->
<g id="node6" class="node">
<title>:test&#45;data</title>
<ellipse fill="#b59aff" stroke="black" cx="662.24" cy="-429" rx="55.49" ry="18"/>
<text text-anchor="middle" x="662.24" y="-425.3" font-family="Times,serif" font-size="14.00">:test&#45;data</text>
</g>
<!-- :ui:common&#45;&gt;:test&#45;data -->
<g id="edge6" class="edge">
<title>:ui:common&#45;&gt;:test&#45;data</title>
<path fill="none" stroke="#ff9ab1" stroke-dasharray="1,5" d="M750.72,-553.11C750.72,-519.01 750.72,-429 750.72,-429 750.72,-429 727.52,-429 727.52,-429"/>
<polygon fill="#ff9ab1" stroke="#ff9ab1" points="727.52,-425.5 717.52,-429 727.52,-432.5 727.52,-425.5"/>
</g>
<!-- :shared:strings -->
<g id="node7" class="node">
<title>:shared:strings</title>
<ellipse fill="#b59aff" stroke="black" cx="81.24" cy="-429" rx="81.49" ry="18"/>
<text text-anchor="middle" x="81.24" y="-425.3" font-family="Times,serif" font-size="14.00">:shared:strings</text>
</g>
<!-- :ui:common&#45;&gt;:shared:strings -->
<g id="edge9" class="edge">
<title>:ui:common&#45;&gt;:shared:strings</title>
<path fill="none" stroke="black" d="M735.28,-572C562.38,-572 81.24,-572 81.24,-572 81.24,-572 81.24,-457.11 81.24,-457.11"/>
<polygon fill="black" stroke="black" points="84.74,-457.11 81.24,-447.11 77.74,-457.11 84.74,-457.11"/>
</g>
<!-- :core:logging:api -->
<g id="node8" class="node">
<title>:core:logging:api</title>
<ellipse fill="#b59aff" stroke="black" cx="376.24" cy="-18" rx="88.28" ry="18"/>
<text text-anchor="middle" x="376.24" y="-14.3" font-family="Times,serif" font-size="14.00">:core:logging:api</text>
</g>
<!-- :ui:common&#45;&gt;:core:logging:api -->
<g id="edge10" class="edge">
<title>:ui:common&#45;&gt;:core:logging:api</title>
<path fill="none" stroke="black" stroke-dasharray="1,5" d="M735.17,-560C619.37,-560 379.32,-560 379.32,-560 379.32,-560 379.32,-46.03 379.32,-46.03"/>
<polygon fill="black" stroke="black" points="382.82,-46.03 379.32,-36.03 375.82,-46.03 382.82,-46.03"/>
</g>
<!-- :test&#45;data&#45;&gt;:shared:domain -->
<g id="edge11" class="edge">
<title>:test&#45;data&#45;&gt;:shared:domain</title>
<path fill="none" stroke="black" stroke-dasharray="1,5" d="M710.35,-420C745.7,-420 787.6,-420 787.6,-420 787.6,-420 787.6,-45.02 787.6,-45.02"/>
<polygon fill="black" stroke="black" points="791.1,-45.02 787.6,-35.02 784.1,-45.02 791.1,-45.02"/>
</g>
<!-- :data:database -->
<g id="node9" class="node">
<title>:data:database</title>
<ellipse fill="#b59aff" stroke="black" cx="690.24" cy="-292" rx="79.09" ry="18"/>
<text text-anchor="middle" x="690.24" y="-288.3" font-family="Times,serif" font-size="14.00">:data:database</text>
</g>
<!-- :test&#45;data&#45;&gt;:data:database -->
<g id="edge12" class="edge">
<title>:test&#45;data&#45;&gt;:data:database</title>
<path fill="none" stroke="black" stroke-dasharray="1,5" d="M664.22,-410.81C664.22,-410.81 664.22,-319.4 664.22,-319.4"/>
<polygon fill="black" stroke="black" points="667.72,-319.4 664.22,-309.4 660.72,-319.4 667.72,-319.4"/>
</g>
<!-- :data:musicbrainz -->
<g id="node10" class="node">
<title>:data:musicbrainz</title>
<ellipse fill="#b59aff" stroke="black" cx="637.24" cy="-155" rx="93.68" ry="18"/>
<text text-anchor="middle" x="637.24" y="-151.3" font-family="Times,serif" font-size="14.00">:data:musicbrainz</text>
</g>
<!-- :test&#45;data&#45;&gt;:data:musicbrainz -->
<g id="edge13" class="edge">
<title>:test&#45;data&#45;&gt;:data:musicbrainz</title>
<path fill="none" stroke="black" stroke-dasharray="1,5" d="M614.21,-420C594.11,-420 575.32,-420 575.32,-420 575.32,-420 575.32,-178.51 575.32,-178.51"/>
<polygon fill="black" stroke="black" points="578.82,-178.51 575.32,-168.51 571.82,-178.51 578.82,-178.51"/>
</g>
<!-- :data:coverart -->
<g id="node11" class="node">
<title>:data:coverart</title>
<ellipse fill="#b59aff" stroke="black" cx="294.24" cy="-155" rx="76.09" ry="18"/>
<text text-anchor="middle" x="294.24" y="-151.3" font-family="Times,serif" font-size="14.00">:data:coverart</text>
</g>
<!-- :test&#45;data&#45;&gt;:data:coverart -->
<g id="edge14" class="edge">
<title>:test&#45;data&#45;&gt;:data:coverart</title>
<path fill="none" stroke="black" stroke-dasharray="1,5" d="M614.13,-438C514.38,-438 294.24,-438 294.24,-438 294.24,-438 294.24,-183.13 294.24,-183.13"/>
<polygon fill="black" stroke="black" points="297.74,-183.13 294.24,-173.13 290.74,-183.13 297.74,-183.13"/>
</g>
<!-- :data:spotify -->
<g id="node12" class="node">
<title>:data:spotify</title>
<ellipse fill="#b59aff" stroke="black" cx="457.24" cy="-155" rx="68.79" ry="18"/>
<text text-anchor="middle" x="457.24" y="-151.3" font-family="Times,serif" font-size="14.00">:data:spotify</text>
</g>
<!-- :test&#45;data&#45;&gt;:data:spotify -->
<g id="edge15" class="edge">
<title>:test&#45;data&#45;&gt;:data:spotify</title>
<path fill="none" stroke="black" stroke-dasharray="1,5" d="M606.77,-429C546.06,-429 457.24,-429 457.24,-429 457.24,-429 457.24,-183.4 457.24,-183.4"/>
<polygon fill="black" stroke="black" points="460.74,-183.4 457.24,-173.4 453.74,-183.4 460.74,-183.4"/>
</g>
<!-- :data:database&#45;&gt;:shared:domain -->
<g id="edge16" class="edge">
<title>:data:database&#45;&gt;:shared:domain</title>
<path fill="none" stroke="black" stroke-dasharray="1,5" d="M750.19,-279.87C750.19,-279.87 750.19,-46.11 750.19,-46.11"/>
<polygon fill="black" stroke="black" points="753.69,-46.11 750.19,-36.11 746.69,-46.11 753.69,-46.11"/>
</g>
<!-- :data:database&#45;&gt;:data:musicbrainz -->
<g id="edge17" class="edge">
<title>:data:database&#45;&gt;:data:musicbrainz</title>
<path fill="none" stroke="black" stroke-dasharray="1,5" d="M670.89,-274.37C670.89,-274.37 670.89,-182.13 670.89,-182.13"/>
<polygon fill="black" stroke="black" points="674.39,-182.13 670.89,-172.13 667.39,-182.13 674.39,-182.13"/>
</g>
<!-- :data:musicbrainz&#45;&gt;:shared:domain -->
<g id="edge18" class="edge">
<title>:data:musicbrainz&#45;&gt;:shared:domain</title>
<path fill="none" stroke="black" stroke-dasharray="1,5" d="M712.79,-144.25C712.79,-144.25 712.79,-43.18 712.79,-43.18"/>
<polygon fill="black" stroke="black" points="716.29,-43.18 712.79,-33.18 709.29,-43.18 716.29,-43.18"/>
</g>
<!-- :data:musicbrainz&#45;&gt;:core:logging:api -->
<g id="edge19" class="edge">
<title>:data:musicbrainz&#45;&gt;:core:logging:api</title>
<path fill="none" stroke="black" stroke-dasharray="1,5" d="M610.18,-137.75C610.18,-99.72 610.18,-12 610.18,-12 610.18,-12 469.71,-12 469.71,-12"/>
<polygon fill="black" stroke="black" points="469.71,-8.5 459.71,-12 469.71,-15.5 469.71,-8.5"/>
</g>
<!-- :data:coverart&#45;&gt;:shared:domain -->
<g id="edge20" class="edge">
<title>:data:coverart&#45;&gt;:shared:domain</title>
<path fill="none" stroke="black" stroke-dasharray="1,5" d="M342.81,-141.04C342.81,-120.87 342.81,-86 342.81,-86 342.81,-86 694.74,-86 694.74,-86 694.74,-86 694.74,-39.54 694.74,-39.54"/>
<polygon fill="black" stroke="black" points="698.25,-39.54 694.74,-29.54 691.25,-39.54 698.25,-39.54"/>
</g>
<!-- :data:coverart&#45;&gt;:core:logging:api -->
<g id="edge21" class="edge">
<title>:data:coverart&#45;&gt;:core:logging:api</title>
<path fill="none" stroke="black" stroke-dasharray="1,5" d="M315.33,-137.65C315.33,-137.65 315.33,-41.12 315.33,-41.12"/>
<polygon fill="black" stroke="black" points="318.83,-41.12 315.33,-31.12 311.83,-41.12 318.83,-41.12"/>
</g>
<!-- :data:spotify&#45;&gt;:shared:domain -->
<g id="edge22" class="edge">
<title>:data:spotify&#45;&gt;:shared:domain</title>
<path fill="none" stroke="black" stroke-dasharray="1,5" d="M495.39,-139.97C495.39,-105.56 495.39,-24 495.39,-24 495.39,-24 671.15,-24 671.15,-24"/>
<polygon fill="black" stroke="black" points="671.15,-27.5 681.15,-24 671.15,-20.5 671.15,-27.5"/>
</g>
<!-- :data:spotify&#45;&gt;:core:logging:api -->
<g id="edge23" class="edge">
<title>:data:spotify&#45;&gt;:core:logging:api</title>
<path fill="none" stroke="black" stroke-dasharray="1,5" d="M426.49,-138.75C426.49,-138.75 426.49,-42.98 426.49,-42.98"/>
<polygon fill="black" stroke="black" points="429.99,-42.98 426.49,-32.98 422.99,-42.98 429.99,-42.98"/>
</g>
</g>
</svg>
