<?xml version="1.0" encoding="UTF-8" standalone="no"?>
<!DOCTYPE svg PUBLIC "-//W3C//DTD SVG 1.1//EN"
 "http://www.w3.org/Graphics/SVG/1.1/DTD/svg11.dtd">
<!-- Generated by graphviz version 2.43.0 (0)
 -->
<!-- Title: %3 Pages: 1 -->
<svg width="830pt" height="666pt"
 viewBox="0.00 0.00 830.23 666.00" xmlns="http://www.w3.org/2000/svg" xmlns:xlink="http://www.w3.org/1999/xlink">
<g id="graph0" class="graph" transform="scale(1 1) rotate(0) translate(4 662)">
<title>%3</title>
<polygon fill="white" stroke="transparent" points="-4,4 -4,-662 826.23,-662 826.23,4 -4,4"/>
<text text-anchor="middle" x="411.12" y="-630" font-family="Times,serif" font-size="30.00">Dependencies</text>
<text text-anchor="middle" x="411.12" y="-597" font-family="Times,serif" font-size="30.00"> </text>
<!-- :shared:feature:collections -->
<g id="node1" class="node">
<title>:shared:feature:collections</title>
<polygon fill="#b59aff" stroke="black" points="362.84,-584 156.84,-584 156.84,-548 362.84,-548 362.84,-584"/>
<text text-anchor="middle" x="259.84" y="-562.3" font-family="Times,serif" font-size="14.00">:shared:feature:collections</text>
</g>
<!-- :ui:test:screenshot -->
<g id="node2" class="node">
<title>:ui:test:screenshot</title>
<ellipse fill="#9affb5" stroke="black" cx="96.84" cy="-292" rx="96.68" ry="18"/>
<text text-anchor="middle" x="96.84" y="-288.3" font-family="Times,serif" font-size="14.00">:ui:test:screenshot</text>
</g>
<!-- :shared:feature:collections&#45;&gt;:ui:test:screenshot -->
<g id="edge1" class="edge">
<title>:shared:feature:collections&#45;&gt;:ui:test:screenshot</title>
<path fill="none" stroke="#ff9ab1" stroke-dasharray="1,5" d="M169.12,-547.6C169.12,-547.6 169.12,-314.06 169.12,-314.06"/>
<polygon fill="#ff9ab1" stroke="#ff9ab1" points="172.62,-314.06 169.12,-304.06 165.62,-314.06 172.62,-314.06"/>
</g>
<!-- :ui:common -->
<g id="node3" class="node">
<title>:ui:common</title>
<ellipse fill="#b59aff" stroke="black" cx="387.84" cy="-429" rx="64.19" ry="18"/>
<text text-anchor="middle" x="387.84" y="-425.3" font-family="Times,serif" font-size="14.00">:ui:common</text>
</g>
<!-- :shared:feature:collections&#45;&gt;:ui:common -->
<g id="edge2" class="edge">
<title>:shared:feature:collections&#45;&gt;:ui:common</title>
<path fill="none" stroke="black" stroke-dasharray="1,5" d="M343.17,-547.81C343.17,-547.81 343.17,-452.32 343.17,-452.32"/>
<polygon fill="black" stroke="black" points="346.67,-452.32 343.17,-442.32 339.67,-452.32 346.67,-452.32"/>
</g>
<!-- :shared:domain -->
<g id="node4" class="node">
<title>:shared:domain</title>
<ellipse fill="#b59aff" stroke="black" cx="423.84" cy="-155" rx="82.59" ry="18"/>
<text text-anchor="middle" x="423.84" y="-151.3" font-family="Times,serif" font-size="14.00">:shared:domain</text>
</g>
<!-- :shared:feature:collections&#45;&gt;:shared:domain -->
<g id="edge3" class="edge">
<title>:shared:feature:collections&#45;&gt;:shared:domain</title>
<path fill="none" stroke="black" stroke-dasharray="1,5" d="M278.12,-547.81C278.12,-467.55 278.12,-149 278.12,-149 278.12,-149 335.86,-149 335.86,-149"/>
<polygon fill="black" stroke="black" points="335.86,-152.5 345.86,-149 335.86,-145.5 335.86,-152.5"/>
</g>
<!-- :ui:core -->
<g id="node5" class="node">
<title>:ui:core</title>
<ellipse fill="#b59aff" stroke="black" cx="222.84" cy="-155" rx="45.49" ry="18"/>
<text text-anchor="middle" x="222.84" y="-151.3" font-family="Times,serif" font-size="14.00">:ui:core</text>
</g>
<!-- :ui:test:screenshot&#45;&gt;:ui:core -->
<g id="edge4" class="edge">
<title>:ui:test:screenshot&#45;&gt;:ui:core</title>
<path fill="none" stroke="black" stroke-dasharray="1,5" d="M185.51,-284.63C185.51,-284.63 185.51,-175.67 185.51,-175.67"/>
<polygon fill="black" stroke="black" points="189.01,-175.67 185.51,-165.67 182.01,-175.67 189.01,-175.67"/>
</g>
<!-- :test:image -->
<g id="node6" class="node">
<title>:test:image</title>
<ellipse fill="#9affb5" stroke="black" cx="95.84" cy="-155" rx="63.09" ry="18"/>
<text text-anchor="middle" x="95.84" y="-151.3" font-family="Times,serif" font-size="14.00">:test:image</text>
</g>
<!-- :ui:test:screenshot&#45;&gt;:test:image -->
<g id="edge5" class="edge">
<title>:ui:test:screenshot&#45;&gt;:test:image</title>
<path fill="none" stroke="black" stroke-dasharray="1,5" d="M95.84,-273.81C95.84,-273.81 95.84,-183.27 95.84,-183.27"/>
<polygon fill="black" stroke="black" points="99.34,-183.27 95.84,-173.27 92.34,-183.27 99.34,-183.27"/>
</g>
<!-- :ui:common&#45;&gt;:ui:test:screenshot -->
<g id="edge6" class="edge">
<title>:ui:common&#45;&gt;:ui:test:screenshot</title>
<path fill="none" stroke="#ff9ab1" stroke-dasharray="1,5" d="M327.02,-435C266.13,-435 181.4,-435 181.4,-435 181.4,-435 181.4,-310.95 181.4,-310.95"/>
<polygon fill="#ff9ab1" stroke="#ff9ab1" points="184.9,-310.95 181.4,-300.95 177.9,-310.95 184.9,-310.95"/>
</g>
<!-- :ui:common&#45;&gt;:shared:domain -->
<g id="edge7" class="edge">
<title>:ui:common&#45;&gt;:shared:domain</title>
<path fill="none" stroke="black" d="M414.59,-412.27C414.59,-412.27 414.59,-182.92 414.59,-182.92"/>
<polygon fill="black" stroke="black" points="418.09,-182.92 414.59,-172.92 411.09,-182.92 418.09,-182.92"/>
</g>
<!-- :ui:common&#45;&gt;:ui:core -->
<g id="edge8" class="edge">
<title>:ui:common&#45;&gt;:ui:core</title>
<path fill="none" stroke="black" d="M326.76,-423C282.72,-423 231.01,-423 231.01,-423 231.01,-423 231.01,-183 231.01,-183"/>
<polygon fill="black" stroke="black" points="234.51,-183 231.01,-173 227.51,-183 234.51,-183"/>
</g>
<!-- :data:coverart -->
<g id="node7" class="node">
<title>:data:coverart</title>
<ellipse fill="#b59aff" stroke="black" cx="733.84" cy="-292" rx="76.09" ry="18"/>
<text text-anchor="middle" x="733.84" y="-288.3" font-family="Times,serif" font-size="14.00">:data:coverart</text>
</g>
<!-- :ui:common&#45;&gt;:data:coverart -->
<g id="edge9" class="edge">
<title>:ui:common&#45;&gt;:data:coverart</title>
<path fill="none" stroke="black" stroke-dasharray="1,5" d="M448.51,-435C547.74,-435 733.84,-435 733.84,-435 733.84,-435 733.84,-320.11 733.84,-320.11"/>
<polygon fill="black" stroke="black" points="737.34,-320.11 733.84,-310.11 730.34,-320.11 737.34,-320.11"/>
</g>
<!-- :data:musicbrainz -->
<g id="node8" class="node">
<title>:data:musicbrainz</title>
<ellipse fill="#b59aff" stroke="black" cx="545.84" cy="-292" rx="93.68" ry="18"/>
<text text-anchor="middle" x="545.84" y="-288.3" font-family="Times,serif" font-size="14.00">:data:musicbrainz</text>
</g>
<!-- :ui:common&#45;&gt;:data:musicbrainz -->
<g id="edge10" class="edge">
<title>:ui:common&#45;&gt;:data:musicbrainz</title>
<path fill="none" stroke="black" stroke-dasharray="1,5" d="M433.39,-416.11C433.39,-382.01 433.39,-292 433.39,-292 433.39,-292 442.21,-292 442.21,-292"/>
<polygon fill="black" stroke="black" points="442.21,-295.5 452.21,-292 442.21,-288.5 442.21,-295.5"/>
</g>
<!-- :core:logging:api -->
<g id="node9" class="node">
<title>:core:logging:api</title>
<ellipse fill="#b59aff" stroke="black" cx="733.84" cy="-155" rx="88.28" ry="18"/>
<text text-anchor="middle" x="733.84" y="-151.3" font-family="Times,serif" font-size="14.00">:core:logging:api</text>
</g>
<!-- :ui:common&#45;&gt;:core:logging:api -->
<g id="edge11" class="edge">
<title>:ui:common&#45;&gt;:core:logging:api</title>
<path fill="none" stroke="black" stroke-dasharray="1,5" d="M448.83,-423C527.32,-423 653.68,-423 653.68,-423 653.68,-423 653.68,-172.73 653.68,-172.73"/>
<polygon fill="black" stroke="black" points="657.18,-172.73 653.68,-162.73 650.18,-172.73 657.18,-172.73"/>
</g>
<!-- :ui:image -->
<g id="node10" class="node">
<title>:ui:image</title>
<ellipse fill="#b59aff" stroke="black" cx="341.84" cy="-292" rx="53.89" ry="18"/>
<text text-anchor="middle" x="341.84" y="-288.3" font-family="Times,serif" font-size="14.00">:ui:image</text>
</g>
<!-- :ui:common&#45;&gt;:ui:image -->
<g id="edge12" class="edge">
<title>:ui:common&#45;&gt;:ui:image</title>
<path fill="none" stroke="black" stroke-dasharray="1,5" d="M359.64,-412.75C359.64,-412.75 359.64,-319.09 359.64,-319.09"/>
<polygon fill="black" stroke="black" points="363.14,-319.09 359.64,-309.09 356.14,-319.09 363.14,-319.09"/>
</g>
<!-- :shared:strings -->
<g id="node11" class="node">
<title>:shared:strings</title>
<ellipse fill="#b59aff" stroke="black" cx="222.84" cy="-18" rx="81.49" ry="18"/>
<text text-anchor="middle" x="222.84" y="-14.3" font-family="Times,serif" font-size="14.00">:shared:strings</text>
</g>
<!-- :ui:core&#45;&gt;:shared:strings -->
<g id="edge13" class="edge">
<title>:ui:core&#45;&gt;:shared:strings</title>
<path fill="none" stroke="black" d="M222.84,-136.81C222.84,-136.81 222.84,-46.27 222.84,-46.27"/>
<polygon fill="black" stroke="black" points="226.34,-46.27 222.84,-36.27 219.34,-46.27 226.34,-46.27"/>
</g>
<!-- :data:coverart&#45;&gt;:shared:domain -->
<g id="edge14" class="edge">
<title>:data:coverart&#45;&gt;:shared:domain</title>
<path fill="none" stroke="black" stroke-dasharray="1,5" d="M708.49,-274.94C708.49,-254.51 708.49,-223 708.49,-223 708.49,-223 488.34,-223 488.34,-223 488.34,-223 488.34,-176.54 488.34,-176.54"/>
<polygon fill="black" stroke="black" points="491.84,-176.54 488.34,-166.54 484.84,-176.54 491.84,-176.54"/>
</g>
<!-- :data:coverart&#45;&gt;:core:logging:api -->
<g id="edge15" class="edge">
<title>:data:coverart&#45;&gt;:core:logging:api</title>
<path fill="none" stroke="black" stroke-dasharray="1,5" d="M759.19,-274.93C759.19,-274.93 759.19,-182.29 759.19,-182.29"/>
<polygon fill="black" stroke="black" points="762.69,-182.29 759.19,-172.29 755.69,-182.29 762.69,-182.29"/>
</g>
<!-- :data:musicbrainz&#45;&gt;:shared:domain -->
<g id="edge16" class="edge">
<title>:data:musicbrainz&#45;&gt;:shared:domain</title>
<path fill="none" stroke="black" stroke-dasharray="1,5" d="M470.29,-281.25C470.29,-281.25 470.29,-180.18 470.29,-180.18"/>
<polygon fill="black" stroke="black" points="473.79,-180.18 470.29,-170.18 466.79,-180.18 473.79,-180.18"/>
</g>
<!-- :data:musicbrainz&#45;&gt;:core:logging:api -->
<g id="edge17" class="edge">
<title>:data:musicbrainz&#45;&gt;:core:logging:api</title>
<path fill="none" stroke="black" stroke-dasharray="1,5" d="M639.62,-292C645.77,-292 649.57,-292 649.57,-292 649.57,-292 649.57,-170.54 649.57,-170.54"/>
<polygon fill="black" stroke="black" points="653.07,-170.54 649.57,-160.54 646.07,-170.54 653.07,-170.54"/>
</g>
<!-- :ui:image&#45;&gt;:shared:domain -->
<g id="edge18" class="edge">
<title>:ui:image&#45;&gt;:shared:domain</title>
<path fill="none" stroke="black" stroke-dasharray="1,5" d="M368.54,-276.28C368.54,-276.28 368.54,-178.49 368.54,-178.49"/>
<polygon fill="black" stroke="black" points="372.04,-178.49 368.54,-168.49 365.04,-178.49 372.04,-178.49"/>
</g>
<!-- :ui:image&#45;&gt;:ui:core -->
<g id="edge19" class="edge">
<title>:ui:image&#45;&gt;:ui:core</title>
<path fill="none" stroke="black" stroke-dasharray="1,5" d="M295.99,-282.15C295.99,-251.69 295.99,-161 295.99,-161 295.99,-161 275.82,-161 275.82,-161"/>
<polygon fill="black" stroke="black" points="275.82,-157.5 265.82,-161 275.82,-164.5 275.82,-157.5"/>
</g>
</g>
</svg>
