<?xml version="1.0" encoding="UTF-8" standalone="no"?>
<!DOCTYPE svg PUBLIC "-//W3C//DTD SVG 1.1//EN"
 "http://www.w3.org/Graphics/SVG/1.1/DTD/svg11.dtd">
<!-- Generated by graphviz version 2.43.0 (0)
 -->
<!-- Title: %3 Pages: 1 -->
<svg width="1155pt" height="666pt"
 viewBox="0.00 0.00 1154.98 666.00" xmlns="http://www.w3.org/2000/svg" xmlns:xlink="http://www.w3.org/1999/xlink">
<g id="graph0" class="graph" transform="scale(1 1) rotate(0) translate(4 662)">
<title>%3</title>
<polygon fill="white" stroke="transparent" points="-4,4 -4,-662 1150.98,-662 1150.98,4 -4,4"/>
<text text-anchor="middle" x="573.49" y="-630" font-family="Times,serif" font-size="30.00">Dependencies</text>
<text text-anchor="middle" x="573.49" y="-597" font-family="Times,serif" font-size="30.00"> </text>
<!-- :shared:feature:collections -->
<g id="node1" class="node">
<title>:shared:feature:collections</title>
<polygon fill="#b59aff" stroke="black" points="374.14,-584 168.14,-584 168.14,-548 374.14,-548 374.14,-584"/>
<text text-anchor="middle" x="271.14" y="-562.3" font-family="Times,serif" font-size="14.00">:shared:feature:collections</text>
</g>
<!-- :ui:test:screenshot -->
<g id="node2" class="node">
<title>:ui:test:screenshot</title>
<ellipse fill="#9affb5" stroke="black" cx="1050.14" cy="-292" rx="96.68" ry="18"/>
<text text-anchor="middle" x="1050.14" y="-288.3" font-family="Times,serif" font-size="14.00">:ui:test:screenshot</text>
</g>
<!-- :shared:feature:collections&#45;&gt;:ui:test:screenshot -->
<g id="edge1" class="edge">
<title>:shared:feature:collections&#45;&gt;:ui:test:screenshot</title>
<path fill="none" stroke="#ff9ab1" stroke-dasharray="1,5" d="M374.3,-566C592.81,-566 1082.42,-566 1082.42,-566 1082.42,-566 1082.42,-319.14 1082.42,-319.14"/>
<polygon fill="#ff9ab1" stroke="#ff9ab1" points="1085.92,-319.14 1082.42,-309.14 1078.92,-319.14 1085.92,-319.14"/>
</g>
<!-- :core:models -->
<g id="node3" class="node">
<title>:core:models</title>
<ellipse fill="#b59aff" stroke="black" cx="420.14" cy="-18" rx="69.59" ry="18"/>
<text text-anchor="middle" x="420.14" y="-14.3" font-family="Times,serif" font-size="14.00">:core:models</text>
</g>
<!-- :shared:feature:collections&#45;&gt;:core:models -->
<g id="edge2" class="edge">
<title>:shared:feature:collections&#45;&gt;:core:models</title>
<path fill="none" stroke="black" stroke-dasharray="1,5" d="M289.94,-547.54C289.94,-478.58 289.94,-240 289.94,-240 289.94,-240 405.7,-240 405.7,-240 405.7,-240 405.7,-45.79 405.7,-45.79"/>
<polygon fill="black" stroke="black" points="409.2,-45.79 405.7,-35.79 402.2,-45.79 409.2,-45.79"/>
</g>
<!-- :core:preferences -->
<g id="node4" class="node">
<title>:core:preferences</title>
<ellipse fill="#b59aff" stroke="black" cx="151.14" cy="-292" rx="91.78" ry="18"/>
<text text-anchor="middle" x="151.14" y="-288.3" font-family="Times,serif" font-size="14.00">:core:preferences</text>
</g>
<!-- :shared:feature:collections&#45;&gt;:core:preferences -->
<g id="edge3" class="edge">
<title>:shared:feature:collections&#45;&gt;:core:preferences</title>
<path fill="none" stroke="black" stroke-dasharray="1,5" d="M193.02,-547.6C193.02,-547.6 193.02,-318.22 193.02,-318.22"/>
<polygon fill="black" stroke="black" points="196.52,-318.22 193.02,-308.22 189.52,-318.22 196.52,-318.22"/>
</g>
<!-- :shared:domain -->
<g id="node5" class="node">
<title>:shared:domain</title>
<ellipse fill="#b59aff" stroke="black" cx="309.14" cy="-155" rx="82.59" ry="18"/>
<text text-anchor="middle" x="309.14" y="-151.3" font-family="Times,serif" font-size="14.00">:shared:domain</text>
</g>
<!-- :shared:feature:collections&#45;&gt;:shared:domain -->
<g id="edge4" class="edge">
<title>:shared:feature:collections&#45;&gt;:shared:domain</title>
<path fill="none" stroke="black" stroke-dasharray="1,5" d="M266.36,-547.81C266.36,-547.81 266.36,-180.73 266.36,-180.73"/>
<polygon fill="black" stroke="black" points="269.86,-180.73 266.36,-170.73 262.86,-180.73 269.86,-180.73"/>
</g>
<!-- :ui:common -->
<g id="node6" class="node">
<title>:ui:common</title>
<ellipse fill="#b59aff" stroke="black" cx="578.14" cy="-429" rx="64.19" ry="18"/>
<text text-anchor="middle" x="578.14" y="-425.3" font-family="Times,serif" font-size="14.00">:ui:common</text>
</g>
<!-- :shared:feature:collections&#45;&gt;:ui:common -->
<g id="edge5" class="edge">
<title>:shared:feature:collections&#45;&gt;:ui:common</title>
<path fill="none" stroke="black" stroke-dasharray="1,5" d="M355.62,-547.93C355.62,-512.65 355.62,-438 355.62,-438 355.62,-438 512.28,-438 512.28,-438"/>
<polygon fill="black" stroke="black" points="512.28,-441.5 522.28,-438 512.28,-434.5 512.28,-441.5"/>
</g>
<!-- :ui:core -->
<g id="node7" class="node">
<title>:ui:core</title>
<ellipse fill="#b59aff" stroke="black" cx="925.14" cy="-155" rx="45.49" ry="18"/>
<text text-anchor="middle" x="925.14" y="-151.3" font-family="Times,serif" font-size="14.00">:ui:core</text>
</g>
<!-- :ui:test:screenshot&#45;&gt;:ui:core -->
<g id="edge6" class="edge">
<title>:ui:test:screenshot&#45;&gt;:ui:core</title>
<path fill="none" stroke="black" stroke-dasharray="1,5" d="M961.97,-284.24C961.97,-284.24 961.97,-175.58 961.97,-175.58"/>
<polygon fill="black" stroke="black" points="965.47,-175.58 961.97,-165.58 958.47,-175.58 965.47,-175.58"/>
</g>
<!-- :core:preferences&#45;&gt;:core:models -->
<g id="edge8" class="edge">
<title>:core:preferences&#45;&gt;:core:models</title>
<path fill="none" stroke="black" stroke-dasharray="1,5" d="M198.44,-276.48C198.44,-218.52 198.44,-18 198.44,-18 198.44,-18 340.3,-18 340.3,-18"/>
<polygon fill="black" stroke="black" points="340.3,-21.5 350.3,-18 340.3,-14.5 340.3,-21.5"/>
</g>
<!-- :core:coroutines -->
<g id="node8" class="node">
<title>:core:coroutines</title>
<ellipse fill="#b59aff" stroke="black" cx="85.14" cy="-155" rx="85.29" ry="18"/>
<text text-anchor="middle" x="85.14" y="-151.3" font-family="Times,serif" font-size="14.00">:core:coroutines</text>
</g>
<!-- :core:preferences&#45;&gt;:core:coroutines -->
<g id="edge7" class="edge">
<title>:core:preferences&#45;&gt;:core:coroutines</title>
<path fill="none" stroke="black" stroke-dasharray="1,5" d="M114.89,-275.2C114.89,-275.2 114.89,-181.94 114.89,-181.94"/>
<polygon fill="black" stroke="black" points="118.39,-181.94 114.89,-171.94 111.39,-181.94 118.39,-181.94"/>
</g>
<!-- :shared:domain&#45;&gt;:core:models -->
<g id="edge9" class="edge">
<title>:shared:domain&#45;&gt;:core:models</title>
<path fill="none" stroke="black" stroke-dasharray="1,5" d="M371.14,-142.84C371.14,-142.84 371.14,-41.13 371.14,-41.13"/>
<polygon fill="black" stroke="black" points="374.64,-41.13 371.14,-31.13 367.64,-41.13 374.64,-41.13"/>
</g>
<!-- :ui:common&#45;&gt;:ui:test:screenshot -->
<g id="edge10" class="edge">
<title>:ui:common&#45;&gt;:ui:test:screenshot</title>
<path fill="none" stroke="#ff9ab1" stroke-dasharray="1,5" d="M634.28,-438C752.82,-438 1017.86,-438 1017.86,-438 1017.86,-438 1017.86,-319.03 1017.86,-319.03"/>
<polygon fill="#ff9ab1" stroke="#ff9ab1" points="1021.36,-319.03 1017.86,-309.03 1014.36,-319.03 1021.36,-319.03"/>
</g>
<!-- :ui:common&#45;&gt;:core:models -->
<g id="edge11" class="edge">
<title>:ui:common&#45;&gt;:core:models</title>
<path fill="none" stroke="black" d="M529.67,-417.01C529.67,-370.69 529.67,-206 529.67,-206 529.67,-206 433.73,-206 433.73,-206 433.73,-206 433.73,-45.69 433.73,-45.69"/>
<polygon fill="black" stroke="black" points="437.23,-45.69 433.73,-35.69 430.23,-45.69 437.23,-45.69"/>
</g>
<!-- :ui:common&#45;&gt;:core:preferences -->
<g id="edge15" class="edge">
<title>:ui:common&#45;&gt;:core:preferences</title>
<path fill="none" stroke="black" stroke-dasharray="1,5" d="M513.74,-429C410.12,-429 217.9,-429 217.9,-429 217.9,-429 217.9,-314.64 217.9,-314.64"/>
<polygon fill="black" stroke="black" points="221.4,-314.64 217.9,-304.64 214.4,-314.64 221.4,-314.64"/>
</g>
<!-- :ui:common&#45;&gt;:shared:domain -->
<g id="edge17" class="edge">
<title>:ui:common&#45;&gt;:shared:domain</title>
<path fill="none" stroke="black" stroke-dasharray="1,5" d="M522.35,-420C444.71,-420 313.52,-420 313.52,-420 313.52,-420 313.52,-183.21 313.52,-183.21"/>
<polygon fill="black" stroke="black" points="317.02,-183.21 313.52,-173.21 310.02,-183.21 317.02,-183.21"/>
</g>
<!-- :ui:common&#45;&gt;:ui:core -->
<g id="edge12" class="edge">
<title>:ui:common&#45;&gt;:ui:core</title>
<path fill="none" stroke="black" d="M642.61,-429C742.97,-429 925.19,-429 925.19,-429 925.19,-429 925.19,-183.4 925.19,-183.4"/>
<polygon fill="black" stroke="black" points="928.69,-183.4 925.19,-173.4 921.69,-183.4 928.69,-183.4"/>
</g>
<!-- :data:coverart -->
<g id="node9" class="node">
<title>:data:coverart</title>
<ellipse fill="#b59aff" stroke="black" cx="413.14" cy="-292" rx="76.09" ry="18"/>
<text text-anchor="middle" x="413.14" y="-288.3" font-family="Times,serif" font-size="14.00">:data:coverart</text>
</g>
<!-- :ui:common&#45;&gt;:data:coverart -->
<g id="edge13" class="edge">
<title>:ui:common&#45;&gt;:data:coverart</title>
<path fill="none" stroke="black" stroke-dasharray="1,5" d="M521.74,-420.01C521.74,-389.53 521.74,-292 521.74,-292 521.74,-292 499.45,-292 499.45,-292"/>
<polygon fill="black" stroke="black" points="499.45,-288.5 489.45,-292 499.45,-295.5 499.45,-288.5"/>
</g>
<!-- :data:musicbrainz -->
<g id="node10" class="node">
<title>:data:musicbrainz</title>
<ellipse fill="#b59aff" stroke="black" cx="639.14" cy="-292" rx="93.68" ry="18"/>
<text text-anchor="middle" x="639.14" y="-288.3" font-family="Times,serif" font-size="14.00">:data:musicbrainz</text>
</g>
<!-- :ui:common&#45;&gt;:data:musicbrainz -->
<g id="edge14" class="edge">
<title>:ui:common&#45;&gt;:data:musicbrainz</title>
<path fill="none" stroke="black" stroke-dasharray="1,5" d="M594.02,-411.37C594.02,-411.37 594.02,-317.86 594.02,-317.86"/>
<polygon fill="black" stroke="black" points="597.52,-317.86 594.02,-307.86 590.52,-317.86 597.52,-317.86"/>
</g>
<!-- :core:logging:api -->
<g id="node11" class="node">
<title>:core:logging:api</title>
<ellipse fill="#b59aff" stroke="black" cx="536.14" cy="-155" rx="88.28" ry="18"/>
<text text-anchor="middle" x="536.14" y="-151.3" font-family="Times,serif" font-size="14.00">:core:logging:api</text>
</g>
<!-- :ui:common&#45;&gt;:core:logging:api -->
<g id="edge16" class="edge">
<title>:ui:common&#45;&gt;:core:logging:api</title>
<path fill="none" stroke="black" stroke-dasharray="1,5" d="M537.61,-414.65C537.61,-414.65 537.61,-183.02 537.61,-183.02"/>
<polygon fill="black" stroke="black" points="541.11,-183.02 537.61,-173.02 534.11,-183.02 541.11,-183.02"/>
</g>
<!-- :ui:image -->
<g id="node12" class="node">
<title>:ui:image</title>
<ellipse fill="#b59aff" stroke="black" cx="843.14" cy="-292" rx="53.89" ry="18"/>
<text text-anchor="middle" x="843.14" y="-288.3" font-family="Times,serif" font-size="14.00">:ui:image</text>
</g>
<!-- :ui:common&#45;&gt;:ui:image -->
<g id="edge18" class="edge">
<title>:ui:common&#45;&gt;:ui:image</title>
<path fill="none" stroke="black" stroke-dasharray="1,5" d="M634.02,-420C711.77,-420 843.14,-420 843.14,-420 843.14,-420 843.14,-320.07 843.14,-320.07"/>
<polygon fill="black" stroke="black" points="846.64,-320.07 843.14,-310.07 839.64,-320.07 846.64,-320.07"/>
</g>
<!-- :shared:strings -->
<g id="node13" class="node">
<title>:shared:strings</title>
<ellipse fill="#b59aff" stroke="black" cx="925.14" cy="-18" rx="81.49" ry="18"/>
<text text-anchor="middle" x="925.14" y="-14.3" font-family="Times,serif" font-size="14.00">:shared:strings</text>
</g>
<!-- :ui:core&#45;&gt;:shared:strings -->
<g id="edge19" class="edge">
<title>:ui:core&#45;&gt;:shared:strings</title>
<path fill="none" stroke="black" d="M925.14,-136.81C925.14,-136.81 925.14,-46.27 925.14,-46.27"/>
<polygon fill="black" stroke="black" points="928.64,-46.27 925.14,-36.27 921.64,-46.27 928.64,-46.27"/>
</g>
<!-- :data:coverart&#45;&gt;:core:models -->
<g id="edge21" class="edge">
<title>:data:coverart&#45;&gt;:core:models</title>
<path fill="none" stroke="black" stroke-dasharray="1,5" d="M419.72,-274.02C419.72,-274.02 419.72,-46.04 419.72,-46.04"/>
<polygon fill="black" stroke="black" points="423.22,-46.04 419.72,-36.04 416.22,-46.04 423.22,-46.04"/>
</g>
<!-- :data:coverart&#45;&gt;:shared:domain -->
<g id="edge22" class="edge">
<title>:data:coverart&#45;&gt;:shared:domain</title>
<path fill="none" stroke="black" stroke-dasharray="1,5" d="M364.39,-278.11C364.39,-278.11 364.39,-178.52 364.39,-178.52"/>
<polygon fill="black" stroke="black" points="367.89,-178.52 364.39,-168.52 360.89,-178.52 367.89,-178.52"/>
</g>
<!-- :data:coverart&#45;&gt;:core:logging:api -->
<g id="edge20" class="edge">
<title>:data:coverart&#45;&gt;:core:logging:api</title>
<path fill="none" stroke="black" stroke-dasharray="1,5" d="M468.47,-279.36C468.47,-279.36 468.47,-176.83 468.47,-176.83"/>
<polygon fill="black" stroke="black" points="471.97,-176.83 468.47,-166.83 464.97,-176.83 471.97,-176.83"/>
</g>
<!-- :data:musicbrainz&#45;&gt;:core:models -->
<g id="edge24" class="edge">
<title>:data:musicbrainz&#45;&gt;:core:models</title>
<path fill="none" stroke="black" stroke-dasharray="1,5" d="M678.63,-275.64C678.63,-217.45 678.63,-24 678.63,-24 678.63,-24 496.04,-24 496.04,-24"/>
<polygon fill="black" stroke="black" points="496.04,-20.5 486.04,-24 496.04,-27.5 496.04,-20.5"/>
</g>
<!-- :data:musicbrainz&#45;&gt;:core:logging:api -->
<g id="edge23" class="edge">
<title>:data:musicbrainz&#45;&gt;:core:logging:api</title>
<path fill="none" stroke="black" stroke-dasharray="1,5" d="M585.04,-277.08C585.04,-277.08 585.04,-180.32 585.04,-180.32"/>
<polygon fill="black" stroke="black" points="588.54,-180.32 585.04,-170.32 581.54,-180.32 588.54,-180.32"/>
</g>
<!-- :ui:image&#45;&gt;:core:models -->
<g id="edge25" class="edge">
<title>:ui:image&#45;&gt;:core:models</title>
<path fill="none" stroke="black" stroke-dasharray="1,5" d="M816.55,-276.14C816.55,-216.91 816.55,-12 816.55,-12 816.55,-12 496.05,-12 496.05,-12"/>
<polygon fill="black" stroke="black" points="496.05,-8.5 486.05,-12 496.05,-15.5 496.05,-8.5"/>
</g>
<!-- :ui:image&#45;&gt;:ui:core -->
<g id="edge26" class="edge">
<title>:ui:image&#45;&gt;:ui:core</title>
<path fill="none" stroke="black" stroke-dasharray="1,5" d="M888.37,-282.15C888.37,-282.15 888.37,-175.89 888.37,-175.89"/>
<polygon fill="black" stroke="black" points="891.87,-175.89 888.37,-165.89 884.87,-175.89 891.87,-175.89"/>
</g>
</g>
</svg>
