<?xml version="1.0" encoding="UTF-8" standalone="no"?>
<!DOCTYPE svg PUBLIC "-//W3C//DTD SVG 1.1//EN"
 "http://www.w3.org/Graphics/SVG/1.1/DTD/svg11.dtd">
<!-- Generated by graphviz version 2.43.0 (0)
 -->
<!-- Title: %3 Pages: 1 -->
<svg width="1309pt" height="666pt"
 viewBox="0.00 0.00 1309.48 666.00" xmlns="http://www.w3.org/2000/svg" xmlns:xlink="http://www.w3.org/1999/xlink">
<g id="graph0" class="graph" transform="scale(1 1) rotate(0) translate(4 662)">
<title>%3</title>
<polygon fill="white" stroke="transparent" points="-4,4 -4,-662 1305.48,-662 1305.48,4 -4,4"/>
<text text-anchor="middle" x="650.74" y="-630" font-family="Times,serif" font-size="30.00">Dependencies</text>
<text text-anchor="middle" x="650.74" y="-597" font-family="Times,serif" font-size="30.00"> </text>
<!-- :shared:feature:collections -->
<g id="node1" class="node">
<title>:shared:feature:collections</title>
<polygon fill="#b59aff" stroke="black" points="986.84,-584 780.84,-584 780.84,-548 986.84,-548 986.84,-584"/>
<text text-anchor="middle" x="883.84" y="-562.3" font-family="Times,serif" font-size="14.00">:shared:feature:collections</text>
</g>
<!-- :ui:test:screenshot -->
<g id="node2" class="node">
<title>:ui:test:screenshot</title>
<ellipse fill="#9affb5" stroke="black" cx="96.84" cy="-292" rx="96.68" ry="18"/>
<text text-anchor="middle" x="96.84" y="-288.3" font-family="Times,serif" font-size="14.00">:ui:test:screenshot</text>
</g>
<!-- :shared:feature:collections&#45;&gt;:ui:test:screenshot -->
<g id="edge1" class="edge">
<title>:shared:feature:collections&#45;&gt;:ui:test:screenshot</title>
<path fill="none" stroke="#ff9ab1" stroke-dasharray="1,5" d="M780.49,-566C560.24,-566 64.56,-566 64.56,-566 64.56,-566 64.56,-319.14 64.56,-319.14"/>
<polygon fill="#ff9ab1" stroke="#ff9ab1" points="68.06,-319.14 64.56,-309.14 61.06,-319.14 68.06,-319.14"/>
</g>
<!-- :ui:common -->
<g id="node3" class="node">
<title>:ui:common</title>
<ellipse fill="#b59aff" stroke="black" cx="583.84" cy="-429" rx="64.19" ry="18"/>
<text text-anchor="middle" x="583.84" y="-425.3" font-family="Times,serif" font-size="14.00">:ui:common</text>
</g>
<!-- :shared:feature:collections&#45;&gt;:ui:common -->
<g id="edge2" class="edge">
<title>:shared:feature:collections&#45;&gt;:ui:common</title>
<path fill="none" stroke="black" stroke-dasharray="1,5" d="M783.84,-547.8C783.84,-512.69 783.84,-439 783.84,-439 783.84,-439 647.44,-439 647.44,-439"/>
<polygon fill="black" stroke="black" points="647.44,-435.5 637.44,-439 647.44,-442.5 647.44,-435.5"/>
</g>
<!-- :shared:domain -->
<g id="node4" class="node">
<title>:shared:domain</title>
<ellipse fill="#b59aff" stroke="black" cx="906.84" cy="-155" rx="82.59" ry="18"/>
<text text-anchor="middle" x="906.84" y="-151.3" font-family="Times,serif" font-size="14.00">:shared:domain</text>
</g>
<!-- :shared:feature:collections&#45;&gt;:shared:domain -->
<g id="edge3" class="edge">
<title>:shared:feature:collections&#45;&gt;:shared:domain</title>
<path fill="none" stroke="black" stroke-dasharray="1,5" d="M786.85,-547.99C786.85,-469.96 786.85,-165 786.85,-165 786.85,-165 828.08,-165 828.08,-165"/>
<polygon fill="black" stroke="black" points="828.08,-168.5 838.08,-165 828.08,-161.5 828.08,-168.5"/>
</g>
<!-- :core:preferences -->
<g id="node5" class="node">
<title>:core:preferences</title>
<ellipse fill="#b59aff" stroke="black" cx="1209.84" cy="-292" rx="91.78" ry="18"/>
<text text-anchor="middle" x="1209.84" y="-288.3" font-family="Times,serif" font-size="14.00">:core:preferences</text>
</g>
<!-- :shared:feature:collections&#45;&gt;:core:preferences -->
<g id="edge4" class="edge">
<title>:shared:feature:collections&#45;&gt;:core:preferences</title>
<path fill="none" stroke="black" stroke-dasharray="1,5" d="M986.97,-566C1092.27,-566 1240.39,-566 1240.39,-566 1240.39,-566 1240.39,-319.14 1240.39,-319.14"/>
<polygon fill="black" stroke="black" points="1243.89,-319.14 1240.39,-309.14 1236.89,-319.14 1243.89,-319.14"/>
</g>
<!-- :ui:core -->
<g id="node6" class="node">
<title>:ui:core</title>
<ellipse fill="#b59aff" stroke="black" cx="222.84" cy="-155" rx="45.49" ry="18"/>
<text text-anchor="middle" x="222.84" y="-151.3" font-family="Times,serif" font-size="14.00">:ui:core</text>
</g>
<!-- :ui:test:screenshot&#45;&gt;:ui:core -->
<g id="edge5" class="edge">
<title>:ui:test:screenshot&#45;&gt;:ui:core</title>
<path fill="none" stroke="black" stroke-dasharray="1,5" d="M185.51,-284.63C185.51,-284.63 185.51,-175.67 185.51,-175.67"/>
<polygon fill="black" stroke="black" points="189.01,-175.67 185.51,-165.67 182.01,-175.67 189.01,-175.67"/>
</g>
<!-- :test:image -->
<g id="node7" class="node">
<title>:test:image</title>
<ellipse fill="#9affb5" stroke="black" cx="95.84" cy="-155" rx="63.09" ry="18"/>
<text text-anchor="middle" x="95.84" y="-151.3" font-family="Times,serif" font-size="14.00">:test:image</text>
</g>
<!-- :ui:test:screenshot&#45;&gt;:test:image -->
<g id="edge6" class="edge">
<title>:ui:test:screenshot&#45;&gt;:test:image</title>
<path fill="none" stroke="black" stroke-dasharray="1,5" d="M95.84,-273.81C95.84,-273.81 95.84,-183.27 95.84,-183.27"/>
<polygon fill="black" stroke="black" points="99.34,-183.27 95.84,-173.27 92.34,-183.27 99.34,-183.27"/>
</g>
<!-- :ui:common&#45;&gt;:ui:test:screenshot -->
<g id="edge7" class="edge">
<title>:ui:common&#45;&gt;:ui:test:screenshot</title>
<path fill="none" stroke="#ff9ab1" stroke-dasharray="1,5" d="M528.08,-438C406.66,-438 129.12,-438 129.12,-438 129.12,-438 129.12,-319.03 129.12,-319.03"/>
<polygon fill="#ff9ab1" stroke="#ff9ab1" points="132.62,-319.03 129.12,-309.03 125.62,-319.03 132.62,-319.03"/>
</g>
<!-- :ui:common&#45;&gt;:shared:domain -->
<g id="edge8" class="edge">
<title>:ui:common&#45;&gt;:shared:domain</title>
<path fill="none" stroke="black" d="M634.87,-418C691.84,-418 776.14,-418 776.14,-418 776.14,-418 776.14,-158 776.14,-158 776.14,-158 815.18,-158 815.18,-158"/>
<polygon fill="black" stroke="black" points="815.18,-161.5 825.18,-158 815.18,-154.5 815.18,-161.5"/>
</g>
<!-- :ui:common&#45;&gt;:core:preferences -->
<g id="edge13" class="edge">
<title>:ui:common&#45;&gt;:core:preferences</title>
<path fill="none" stroke="black" stroke-dasharray="1,5" d="M647.57,-432C801.18,-432 1179.29,-432 1179.29,-432 1179.29,-432 1179.29,-319.17 1179.29,-319.17"/>
<polygon fill="black" stroke="black" points="1182.79,-319.17 1179.29,-309.17 1175.79,-319.17 1182.79,-319.17"/>
</g>
<!-- :ui:common&#45;&gt;:ui:core -->
<g id="edge9" class="edge">
<title>:ui:common&#45;&gt;:ui:core</title>
<path fill="none" stroke="black" d="M519.13,-429C417.27,-429 231.01,-429 231.01,-429 231.01,-429 231.01,-182.98 231.01,-182.98"/>
<polygon fill="black" stroke="black" points="234.51,-182.98 231.01,-172.98 227.51,-182.98 234.51,-182.98"/>
</g>
<!-- :data:coverart -->
<g id="node8" class="node">
<title>:data:coverart</title>
<ellipse fill="#b59aff" stroke="black" cx="489.84" cy="-292" rx="76.09" ry="18"/>
<text text-anchor="middle" x="489.84" y="-288.3" font-family="Times,serif" font-size="14.00">:data:coverart</text>
</g>
<!-- :ui:common&#45;&gt;:data:coverart -->
<g id="edge10" class="edge">
<title>:ui:common&#45;&gt;:data:coverart</title>
<path fill="none" stroke="black" stroke-dasharray="1,5" d="M542.69,-415.11C542.69,-415.11 542.69,-315.12 542.69,-315.12"/>
<polygon fill="black" stroke="black" points="546.19,-315.12 542.69,-305.12 539.19,-315.12 546.19,-315.12"/>
</g>
<!-- :data:musicbrainz -->
<g id="node9" class="node">
<title>:data:musicbrainz</title>
<ellipse fill="#b59aff" stroke="black" cx="677.84" cy="-292" rx="93.68" ry="18"/>
<text text-anchor="middle" x="677.84" y="-288.3" font-family="Times,serif" font-size="14.00">:data:musicbrainz</text>
</g>
<!-- :ui:common&#45;&gt;:data:musicbrainz -->
<g id="edge11" class="edge">
<title>:ui:common&#45;&gt;:data:musicbrainz</title>
<path fill="none" stroke="black" stroke-dasharray="1,5" d="M616.22,-413.28C616.22,-413.28 616.22,-315.89 616.22,-315.89"/>
<polygon fill="black" stroke="black" points="619.72,-315.89 616.22,-305.89 612.72,-315.89 619.72,-315.89"/>
</g>
<!-- :data:common:network -->
<g id="node10" class="node">
<title>:data:common:network</title>
<ellipse fill="#b59aff" stroke="black" cx="906.84" cy="-292" rx="116.98" ry="18"/>
<text text-anchor="middle" x="906.84" y="-288.3" font-family="Times,serif" font-size="14.00">:data:common:network</text>
</g>
<!-- :ui:common&#45;&gt;:data:common:network -->
<g id="edge12" class="edge">
<title>:ui:common&#45;&gt;:data:common:network</title>
<path fill="none" stroke="black" stroke-dasharray="1,5" d="M646.94,-425C736.13,-425 888.35,-425 888.35,-425 888.35,-425 888.35,-319.94 888.35,-319.94"/>
<polygon fill="black" stroke="black" points="891.85,-319.94 888.35,-309.94 884.85,-319.94 891.85,-319.94"/>
</g>
<!-- :core:logging:api -->
<g id="node11" class="node">
<title>:core:logging:api</title>
<ellipse fill="#b59aff" stroke="black" cx="583.84" cy="-155" rx="88.28" ry="18"/>
<text text-anchor="middle" x="583.84" y="-151.3" font-family="Times,serif" font-size="14.00">:core:logging:api</text>
</g>
<!-- :ui:common&#45;&gt;:core:logging:api -->
<g id="edge14" class="edge">
<title>:ui:common&#45;&gt;:core:logging:api</title>
<path fill="none" stroke="black" stroke-dasharray="1,5" d="M575.07,-411.02C575.07,-411.02 575.07,-183.04 575.07,-183.04"/>
<polygon fill="black" stroke="black" points="578.57,-183.04 575.07,-173.04 571.57,-183.04 578.57,-183.04"/>
</g>
<!-- :ui:image -->
<g id="node12" class="node">
<title>:ui:image</title>
<ellipse fill="#b59aff" stroke="black" cx="341.84" cy="-292" rx="53.89" ry="18"/>
<text text-anchor="middle" x="341.84" y="-288.3" font-family="Times,serif" font-size="14.00">:ui:image</text>
</g>
<!-- :ui:common&#45;&gt;:ui:image -->
<g id="edge15" class="edge">
<title>:ui:common&#45;&gt;:ui:image</title>
<path fill="none" stroke="black" stroke-dasharray="1,5" d="M528.02,-420C456.55,-420 341.84,-420 341.84,-420 341.84,-420 341.84,-320.07 341.84,-320.07"/>
<polygon fill="black" stroke="black" points="345.34,-320.07 341.84,-310.07 338.34,-320.07 345.34,-320.07"/>
</g>
<!-- :core:preferences&#45;&gt;:shared:domain -->
<g id="edge16" class="edge">
<title>:core:preferences&#45;&gt;:shared:domain</title>
<path fill="none" stroke="black" stroke-dasharray="1,5" d="M1118.02,-292C1092.2,-292 1071.02,-292 1071.02,-292 1071.02,-292 1071.02,-155 1071.02,-155 1071.02,-155 999.41,-155 999.41,-155"/>
<polygon fill="black" stroke="black" points="999.41,-151.5 989.41,-155 999.41,-158.5 999.41,-151.5"/>
</g>
<!-- :core:coroutines -->
<g id="node13" class="node">
<title>:core:coroutines</title>
<ellipse fill="#b59aff" stroke="black" cx="1209.84" cy="-155" rx="85.29" ry="18"/>
<text text-anchor="middle" x="1209.84" y="-151.3" font-family="Times,serif" font-size="14.00">:core:coroutines</text>
</g>
<!-- :core:preferences&#45;&gt;:core:coroutines -->
<g id="edge17" class="edge">
<title>:core:preferences&#45;&gt;:core:coroutines</title>
<path fill="none" stroke="black" stroke-dasharray="1,5" d="M1209.84,-273.81C1209.84,-273.81 1209.84,-183.27 1209.84,-183.27"/>
<polygon fill="black" stroke="black" points="1213.34,-183.27 1209.84,-173.27 1206.34,-183.27 1213.34,-183.27"/>
</g>
<!-- :shared:strings -->
<g id="node14" class="node">
<title>:shared:strings</title>
<ellipse fill="#b59aff" stroke="black" cx="222.84" cy="-18" rx="81.49" ry="18"/>
<text text-anchor="middle" x="222.84" y="-14.3" font-family="Times,serif" font-size="14.00">:shared:strings</text>
</g>
<!-- :ui:core&#45;&gt;:shared:strings -->
<g id="edge18" class="edge">
<title>:ui:core&#45;&gt;:shared:strings</title>
<path fill="none" stroke="black" d="M222.84,-136.81C222.84,-136.81 222.84,-46.27 222.84,-46.27"/>
<polygon fill="black" stroke="black" points="226.34,-46.27 222.84,-36.27 219.34,-46.27 226.34,-46.27"/>
</g>
<!-- :data:coverart&#45;&gt;:shared:domain -->
<g id="edge19" class="edge">
<title>:data:coverart&#45;&gt;:shared:domain</title>
<path fill="none" stroke="black" stroke-dasharray="1,5" d="M542.41,-278.88C542.41,-263.47 542.41,-240 542.41,-240 542.41,-240 906.84,-240 906.84,-240 906.84,-240 906.84,-183.03 906.84,-183.03"/>
<polygon fill="black" stroke="black" points="910.34,-183.03 906.84,-173.03 903.34,-183.03 910.34,-183.03"/>
</g>
<!-- :data:coverart&#45;&gt;:core:logging:api -->
<g id="edge20" class="edge">
<title>:data:coverart&#45;&gt;:core:logging:api</title>
<path fill="none" stroke="black" stroke-dasharray="1,5" d="M518.93,-275.2C518.93,-275.2 518.93,-177.48 518.93,-177.48"/>
<polygon fill="black" stroke="black" points="522.43,-177.48 518.93,-167.48 515.43,-177.48 522.43,-177.48"/>
</g>
<!-- :data:musicbrainz&#45;&gt;:shared:domain -->
<g id="edge21" class="edge">
<title>:data:musicbrainz&#45;&gt;:shared:domain</title>
<path fill="none" stroke="black" stroke-dasharray="1,5" d="M721.83,-275.88C721.83,-237.52 721.83,-144 721.83,-144 721.83,-144 831.35,-144 831.35,-144"/>
<polygon fill="black" stroke="black" points="831.35,-147.5 841.35,-144 831.35,-140.5 831.35,-147.5"/>
</g>
<!-- :data:musicbrainz&#45;&gt;:core:logging:api -->
<g id="edge22" class="edge">
<title>:data:musicbrainz&#45;&gt;:core:logging:api</title>
<path fill="none" stroke="black" stroke-dasharray="1,5" d="M628.24,-276.55C628.24,-276.55 628.24,-180.6 628.24,-180.6"/>
<polygon fill="black" stroke="black" points="631.74,-180.6 628.24,-170.6 624.74,-180.6 631.74,-180.6"/>
</g>
<!-- :data:common:network&#45;&gt;:shared:domain -->
<g id="edge24" class="edge">
<title>:data:common:network&#45;&gt;:shared:domain</title>
<path fill="none" stroke="black" stroke-dasharray="1,5" d="M948.11,-274.93C948.11,-274.93 948.11,-180.59 948.11,-180.59"/>
<polygon fill="black" stroke="black" points="951.61,-180.59 948.11,-170.59 944.61,-180.59 951.61,-180.59"/>
</g>
<!-- :data:common:network&#45;&gt;:core:logging:api -->
<g id="edge23" class="edge">
<title>:data:common:network&#45;&gt;:core:logging:api</title>
<path fill="none" stroke="black" stroke-dasharray="1,5" d="M807.08,-282.31C807.08,-250.45 807.08,-151 807.08,-151 807.08,-151 680.15,-151 680.15,-151"/>
<polygon fill="black" stroke="black" points="680.15,-147.5 670.15,-151 680.15,-154.5 680.15,-147.5"/>
</g>
<!-- :ui:image&#45;&gt;:shared:domain -->
<g id="edge25" class="edge">
<title>:ui:image&#45;&gt;:shared:domain</title>
<path fill="none" stroke="black" stroke-dasharray="1,5" d="M349.94,-274.18C349.94,-248.99 349.94,-206 349.94,-206 349.94,-206 865.57,-206 865.57,-206 865.57,-206 865.57,-180.86 865.57,-180.86"/>
<polygon fill="black" stroke="black" points="869.07,-180.86 865.57,-170.86 862.07,-180.86 869.07,-180.86"/>
</g>
<!-- :ui:image&#45;&gt;:ui:core -->
<g id="edge26" class="edge">
<title>:ui:image&#45;&gt;:ui:core</title>
<path fill="none" stroke="black" stroke-dasharray="1,5" d="M295.99,-282.15C295.99,-250.73 295.99,-155 295.99,-155 295.99,-155 278.75,-155 278.75,-155"/>
<polygon fill="black" stroke="black" points="278.75,-151.5 268.75,-155 278.75,-158.5 278.75,-151.5"/>
</g>
</g>
</svg>
