<?xml version="1.0" encoding="UTF-8" standalone="no"?>
<!DOCTYPE svg PUBLIC "-//W3C//DTD SVG 1.1//EN"
 "http://www.w3.org/Graphics/SVG/1.1/DTD/svg11.dtd">
<!-- Generated by graphviz version 2.43.0 (0)
 -->
<!-- Title: %3 Pages: 1 -->
<svg width="1183pt" height="666pt"
 viewBox="0.00 0.00 1182.98 666.00" xmlns="http://www.w3.org/2000/svg" xmlns:xlink="http://www.w3.org/1999/xlink">
<g id="graph0" class="graph" transform="scale(1 1) rotate(0) translate(4 662)">
<title>%3</title>
<polygon fill="white" stroke="transparent" points="-4,4 -4,-662 1178.98,-662 1178.98,4 -4,4"/>
<text text-anchor="middle" x="587.49" y="-630" font-family="Times,serif" font-size="30.00">Dependencies</text>
<text text-anchor="middle" x="587.49" y="-597" font-family="Times,serif" font-size="30.00"> </text>
<!-- :shared:feature:collections -->
<g id="node1" class="node">
<title>:shared:feature:collections</title>
<polygon fill="#b59aff" stroke="black" points="694.84,-584 488.84,-584 488.84,-548 694.84,-548 694.84,-584"/>
<text text-anchor="middle" x="591.84" y="-562.3" font-family="Times,serif" font-size="14.00">:shared:feature:collections</text>
</g>
<!-- :ui:test:screenshot -->
<g id="node2" class="node">
<title>:ui:test:screenshot</title>
<ellipse fill="#9affb5" stroke="black" cx="96.84" cy="-292" rx="96.68" ry="18"/>
<text text-anchor="middle" x="96.84" y="-288.3" font-family="Times,serif" font-size="14.00">:ui:test:screenshot</text>
</g>
<!-- :shared:feature:collections&#45;&gt;:ui:test:screenshot -->
<g id="edge1" class="edge">
<title>:shared:feature:collections&#45;&gt;:ui:test:screenshot</title>
<path fill="none" stroke="#ff9ab1" stroke-dasharray="1,5" d="M488.61,-566C335.11,-566 64.56,-566 64.56,-566 64.56,-566 64.56,-319.14 64.56,-319.14"/>
<polygon fill="#ff9ab1" stroke="#ff9ab1" points="68.06,-319.14 64.56,-309.14 61.06,-319.14 68.06,-319.14"/>
</g>
<!-- :core:models -->
<g id="node3" class="node">
<title>:core:models</title>
<ellipse fill="#b59aff" stroke="black" cx="705.84" cy="-18" rx="69.59" ry="18"/>
<text text-anchor="middle" x="705.84" y="-14.3" font-family="Times,serif" font-size="14.00">:core:models</text>
</g>
<!-- :shared:feature:collections&#45;&gt;:core:models -->
<g id="edge2" class="edge">
<title>:shared:feature:collections&#45;&gt;:core:models</title>
<path fill="none" stroke="black" stroke-dasharray="1,5" d="M694.92,-557C738.49,-557 779.34,-557 779.34,-557 779.34,-557 779.34,-24 779.34,-24 779.34,-24 778.56,-24 778.56,-24"/>
<polygon fill="black" stroke="black" points="781.48,-20.5 771.48,-24 781.48,-27.5 781.48,-20.5"/>
</g>
<!-- :core:preferences -->
<g id="node4" class="node">
<title>:core:preferences</title>
<ellipse fill="#b59aff" stroke="black" cx="995.84" cy="-292" rx="91.78" ry="18"/>
<text text-anchor="middle" x="995.84" y="-288.3" font-family="Times,serif" font-size="14.00">:core:preferences</text>
</g>
<!-- :shared:feature:collections&#45;&gt;:core:preferences -->
<g id="edge3" class="edge">
<title>:shared:feature:collections&#45;&gt;:core:preferences</title>
<path fill="none" stroke="black" stroke-dasharray="1,5" d="M695.1,-575C823.61,-575 1026.39,-575 1026.39,-575 1026.39,-575 1026.39,-319.28 1026.39,-319.28"/>
<polygon fill="black" stroke="black" points="1029.89,-319.28 1026.39,-309.28 1022.89,-319.28 1029.89,-319.28"/>
</g>
<!-- :shared:domain -->
<g id="node5" class="node">
<title>:shared:domain</title>
<ellipse fill="#b59aff" stroke="black" cx="865.84" cy="-155" rx="82.59" ry="18"/>
<text text-anchor="middle" x="865.84" y="-151.3" font-family="Times,serif" font-size="14.00">:shared:domain</text>
</g>
<!-- :shared:feature:collections&#45;&gt;:shared:domain -->
<g id="edge4" class="edge">
<title>:shared:feature:collections&#45;&gt;:shared:domain</title>
<path fill="none" stroke="black" stroke-dasharray="1,5" d="M695.08,-566C772.05,-566 863.9,-566 863.9,-566 863.9,-566 863.9,-183.19 863.9,-183.19"/>
<polygon fill="black" stroke="black" points="867.4,-183.19 863.9,-173.19 860.4,-183.19 867.4,-183.19"/>
</g>
<!-- :ui:common -->
<g id="node6" class="node">
<title>:ui:common</title>
<ellipse fill="#b59aff" stroke="black" cx="591.84" cy="-429" rx="64.19" ry="18"/>
<text text-anchor="middle" x="591.84" y="-425.3" font-family="Times,serif" font-size="14.00">:ui:common</text>
</g>
<!-- :shared:feature:collections&#45;&gt;:ui:common -->
<g id="edge5" class="edge">
<title>:shared:feature:collections&#45;&gt;:ui:common</title>
<path fill="none" stroke="black" stroke-dasharray="1,5" d="M591.84,-547.81C591.84,-547.81 591.84,-457.27 591.84,-457.27"/>
<polygon fill="black" stroke="black" points="595.34,-457.27 591.84,-447.27 588.34,-457.27 595.34,-457.27"/>
</g>
<!-- :ui:core -->
<g id="node7" class="node">
<title>:ui:core</title>
<ellipse fill="#b59aff" stroke="black" cx="222.84" cy="-155" rx="45.49" ry="18"/>
<text text-anchor="middle" x="222.84" y="-151.3" font-family="Times,serif" font-size="14.00">:ui:core</text>
</g>
<!-- :ui:test:screenshot&#45;&gt;:ui:core -->
<g id="edge6" class="edge">
<title>:ui:test:screenshot&#45;&gt;:ui:core</title>
<path fill="none" stroke="black" stroke-dasharray="1,5" d="M185.51,-284.63C185.51,-284.63 185.51,-175.67 185.51,-175.67"/>
<polygon fill="black" stroke="black" points="189.01,-175.67 185.51,-165.67 182.01,-175.67 189.01,-175.67"/>
</g>
<!-- :test:image -->
<g id="node8" class="node">
<title>:test:image</title>
<ellipse fill="#9affb5" stroke="black" cx="95.84" cy="-155" rx="63.09" ry="18"/>
<text text-anchor="middle" x="95.84" y="-151.3" font-family="Times,serif" font-size="14.00">:test:image</text>
</g>
<!-- :ui:test:screenshot&#45;&gt;:test:image -->
<g id="edge7" class="edge">
<title>:ui:test:screenshot&#45;&gt;:test:image</title>
<path fill="none" stroke="black" stroke-dasharray="1,5" d="M95.84,-273.81C95.84,-273.81 95.84,-183.27 95.84,-183.27"/>
<polygon fill="black" stroke="black" points="99.34,-183.27 95.84,-173.27 92.34,-183.27 99.34,-183.27"/>
</g>
<!-- :core:preferences&#45;&gt;:core:models -->
<g id="edge9" class="edge">
<title>:core:preferences&#45;&gt;:core:models</title>
<path fill="none" stroke="black" stroke-dasharray="1,5" d="M976.54,-274.06C976.54,-212.26 976.54,-12 976.54,-12 976.54,-12 781.72,-12 781.72,-12"/>
<polygon fill="black" stroke="black" points="781.72,-8.5 771.72,-12 781.72,-15.5 781.72,-8.5"/>
</g>
<!-- :core:coroutines -->
<g id="node9" class="node">
<title>:core:coroutines</title>
<ellipse fill="#b59aff" stroke="black" cx="1089.84" cy="-155" rx="85.29" ry="18"/>
<text text-anchor="middle" x="1089.84" y="-151.3" font-family="Times,serif" font-size="14.00">:core:coroutines</text>
</g>
<!-- :core:preferences&#45;&gt;:core:coroutines -->
<g id="edge8" class="edge">
<title>:core:preferences&#45;&gt;:core:coroutines</title>
<path fill="none" stroke="black" stroke-dasharray="1,5" d="M1046.09,-276.82C1046.09,-276.82 1046.09,-180.67 1046.09,-180.67"/>
<polygon fill="black" stroke="black" points="1049.59,-180.67 1046.09,-170.67 1042.59,-180.67 1049.59,-180.67"/>
</g>
<!-- :shared:domain&#45;&gt;:core:models -->
<g id="edge10" class="edge">
<title>:shared:domain&#45;&gt;:core:models</title>
<path fill="none" stroke="black" stroke-dasharray="1,5" d="M787.88,-149C768.51,-149 753.15,-149 753.15,-149 753.15,-149 753.15,-41.53 753.15,-41.53"/>
<polygon fill="black" stroke="black" points="756.65,-41.53 753.15,-31.53 749.65,-41.53 756.65,-41.53"/>
</g>
<!-- :ui:common&#45;&gt;:ui:test:screenshot -->
<g id="edge11" class="edge">
<title>:ui:common&#45;&gt;:ui:test:screenshot</title>
<path fill="none" stroke="#ff9ab1" stroke-dasharray="1,5" d="M536.03,-438C412.96,-438 129.12,-438 129.12,-438 129.12,-438 129.12,-319.03 129.12,-319.03"/>
<polygon fill="#ff9ab1" stroke="#ff9ab1" points="132.62,-319.03 129.12,-309.03 125.62,-319.03 132.62,-319.03"/>
</g>
<!-- :ui:common&#45;&gt;:core:models -->
<g id="edge12" class="edge">
<title>:ui:common&#45;&gt;:core:models</title>
<path fill="none" stroke="black" d="M601.01,-411.08C601.01,-360.96 601.01,-223 601.01,-223 601.01,-223 696.96,-223 696.96,-223 696.96,-223 696.96,-46.19 696.96,-46.19"/>
<polygon fill="black" stroke="black" points="700.46,-46.19 696.96,-36.19 693.46,-46.19 700.46,-46.19"/>
</g>
<!-- :ui:common&#45;&gt;:core:preferences -->
<g id="edge16" class="edge">
<title>:ui:common&#45;&gt;:core:preferences</title>
<path fill="none" stroke="black" stroke-dasharray="1,5" d="M652.67,-435C758.5,-435 965.29,-435 965.29,-435 965.29,-435 965.29,-319.25 965.29,-319.25"/>
<polygon fill="black" stroke="black" points="968.79,-319.25 965.29,-309.25 961.79,-319.25 968.79,-319.25"/>
</g>
<!-- :ui:common&#45;&gt;:shared:domain -->
<g id="edge18" class="edge">
<title>:ui:common&#45;&gt;:shared:domain</title>
<path fill="none" stroke="black" stroke-dasharray="1,5" d="M652.73,-423C721.4,-423 823.6,-423 823.6,-423 823.6,-423 823.6,-180.57 823.6,-180.57"/>
<polygon fill="black" stroke="black" points="827.1,-180.57 823.6,-170.57 820.1,-180.57 827.1,-180.57"/>
</g>
<!-- :ui:common&#45;&gt;:ui:core -->
<g id="edge13" class="edge">
<title>:ui:common&#45;&gt;:ui:core</title>
<path fill="none" stroke="black" d="M527.38,-429C421.36,-429 221.79,-429 221.79,-429 221.79,-429 221.79,-183.4 221.79,-183.4"/>
<polygon fill="black" stroke="black" points="225.29,-183.4 221.79,-173.4 218.29,-183.4 225.29,-183.4"/>
</g>
<!-- :data:coverart -->
<g id="node10" class="node">
<title>:data:coverart</title>
<ellipse fill="#b59aff" stroke="black" cx="695.84" cy="-292" rx="76.09" ry="18"/>
<text text-anchor="middle" x="695.84" y="-288.3" font-family="Times,serif" font-size="14.00">:data:coverart</text>
</g>
<!-- :ui:common&#45;&gt;:data:coverart -->
<g id="edge14" class="edge">
<title>:ui:common&#45;&gt;:data:coverart</title>
<path fill="none" stroke="black" stroke-dasharray="1,5" d="M637.99,-416.36C637.99,-416.36 637.99,-313.83 637.99,-313.83"/>
<polygon fill="black" stroke="black" points="641.49,-313.83 637.99,-303.83 634.49,-313.83 641.49,-313.83"/>
</g>
<!-- :data:musicbrainz -->
<g id="node11" class="node">
<title>:data:musicbrainz</title>
<ellipse fill="#b59aff" stroke="black" cx="469.84" cy="-292" rx="93.68" ry="18"/>
<text text-anchor="middle" x="469.84" y="-288.3" font-family="Times,serif" font-size="14.00">:data:musicbrainz</text>
</g>
<!-- :ui:common&#45;&gt;:data:musicbrainz -->
<g id="edge15" class="edge">
<title>:ui:common&#45;&gt;:data:musicbrainz</title>
<path fill="none" stroke="black" stroke-dasharray="1,5" d="M545.47,-416.36C545.47,-416.36 545.47,-312.69 545.47,-312.69"/>
<polygon fill="black" stroke="black" points="548.97,-312.69 545.47,-302.69 541.97,-312.69 548.97,-312.69"/>
</g>
<!-- :core:logging:api -->
<g id="node12" class="node">
<title>:core:logging:api</title>
<ellipse fill="#b59aff" stroke="black" cx="589.84" cy="-155" rx="88.28" ry="18"/>
<text text-anchor="middle" x="589.84" y="-151.3" font-family="Times,serif" font-size="14.00">:core:logging:api</text>
</g>
<!-- :ui:common&#45;&gt;:core:logging:api -->
<g id="edge17" class="edge">
<title>:ui:common&#45;&gt;:core:logging:api</title>
<path fill="none" stroke="black" stroke-dasharray="1,5" d="M582.22,-411.02C582.22,-411.02 582.22,-183.04 582.22,-183.04"/>
<polygon fill="black" stroke="black" points="585.72,-183.04 582.22,-173.04 578.72,-183.04 585.72,-183.04"/>
</g>
<!-- :ui:image -->
<g id="node13" class="node">
<title>:ui:image</title>
<ellipse fill="#b59aff" stroke="black" cx="303.84" cy="-292" rx="53.89" ry="18"/>
<text text-anchor="middle" x="303.84" y="-288.3" font-family="Times,serif" font-size="14.00">:ui:image</text>
</g>
<!-- :ui:common&#45;&gt;:ui:image -->
<g id="edge19" class="edge">
<title>:ui:common&#45;&gt;:ui:image</title>
<path fill="none" stroke="black" stroke-dasharray="1,5" d="M535.97,-420C452.22,-420 303.84,-420 303.84,-420 303.84,-420 303.84,-320.07 303.84,-320.07"/>
<polygon fill="black" stroke="black" points="307.34,-320.07 303.84,-310.07 300.34,-320.07 307.34,-320.07"/>
</g>
<!-- :shared:strings -->
<g id="node14" class="node">
<title>:shared:strings</title>
<ellipse fill="#b59aff" stroke="black" cx="222.84" cy="-18" rx="81.49" ry="18"/>
<text text-anchor="middle" x="222.84" y="-14.3" font-family="Times,serif" font-size="14.00">:shared:strings</text>
</g>
<!-- :ui:core&#45;&gt;:shared:strings -->
<g id="edge20" class="edge">
<title>:ui:core&#45;&gt;:shared:strings</title>
<path fill="none" stroke="black" d="M222.84,-136.81C222.84,-136.81 222.84,-46.27 222.84,-46.27"/>
<polygon fill="black" stroke="black" points="226.34,-46.27 222.84,-36.27 219.34,-46.27 226.34,-46.27"/>
</g>
<!-- :data:coverart&#45;&gt;:core:models -->
<g id="edge22" class="edge">
<title>:data:coverart&#45;&gt;:core:models</title>
<path fill="none" stroke="black" stroke-dasharray="1,5" d="M715.69,-274.44C715.69,-274.44 715.69,-46.12 715.69,-46.12"/>
<polygon fill="black" stroke="black" points="719.19,-46.12 715.69,-36.12 712.19,-46.12 719.19,-46.12"/>
</g>
<!-- :data:coverart&#45;&gt;:shared:domain -->
<g id="edge23" class="edge">
<title>:data:coverart&#45;&gt;:shared:domain</title>
<path fill="none" stroke="black" stroke-dasharray="1,5" d="M734.42,-276.46C734.42,-241.76 734.42,-161 734.42,-161 734.42,-161 777.88,-161 777.88,-161"/>
<polygon fill="black" stroke="black" points="777.88,-164.5 787.88,-161 777.88,-157.5 777.88,-164.5"/>
</g>
<!-- :data:coverart&#45;&gt;:core:logging:api -->
<g id="edge21" class="edge">
<title>:data:coverart&#45;&gt;:core:logging:api</title>
<path fill="none" stroke="black" stroke-dasharray="1,5" d="M649.02,-277.6C649.02,-277.6 649.02,-178.4 649.02,-178.4"/>
<polygon fill="black" stroke="black" points="652.52,-178.4 649.02,-168.4 645.52,-178.4 652.52,-178.4"/>
</g>
<!-- :data:musicbrainz&#45;&gt;:core:models -->
<g id="edge25" class="edge">
<title>:data:musicbrainz&#45;&gt;:core:models</title>
<path fill="none" stroke="black" stroke-dasharray="1,5" d="M438.85,-274.83C438.85,-215.68 438.85,-24 438.85,-24 438.85,-24 630.19,-24 630.19,-24"/>
<polygon fill="black" stroke="black" points="630.19,-27.5 640.19,-24 630.19,-20.5 630.19,-27.5"/>
</g>
<!-- :data:musicbrainz&#45;&gt;:core:logging:api -->
<g id="edge24" class="edge">
<title>:data:musicbrainz&#45;&gt;:core:logging:api</title>
<path fill="none" stroke="black" stroke-dasharray="1,5" d="M532.44,-278.61C532.44,-278.61 532.44,-179.05 532.44,-179.05"/>
<polygon fill="black" stroke="black" points="535.94,-179.05 532.44,-169.05 528.94,-179.05 535.94,-179.05"/>
</g>
<!-- :ui:image&#45;&gt;:core:models -->
<g id="edge26" class="edge">
<title>:ui:image&#45;&gt;:core:models</title>
<path fill="none" stroke="black" stroke-dasharray="1,5" d="M330.94,-276.14C330.94,-216.91 330.94,-12 330.94,-12 330.94,-12 630.11,-12 630.11,-12"/>
<polygon fill="black" stroke="black" points="630.11,-15.5 640.11,-12 630.11,-8.5 630.11,-15.5"/>
</g>
<!-- :ui:image&#45;&gt;:ui:core -->
<g id="edge27" class="edge">
<title>:ui:image&#45;&gt;:ui:core</title>
<path fill="none" stroke="black" stroke-dasharray="1,5" d="M259.12,-281.7C259.12,-281.7 259.12,-176.18 259.12,-176.18"/>
<polygon fill="black" stroke="black" points="262.62,-176.18 259.12,-166.18 255.62,-176.18 262.62,-176.18"/>
</g>
</g>
</svg>
