<?xml version="1.0" encoding="UTF-8" standalone="no"?>
<!DOCTYPE svg PUBLIC "-//W3C//DTD SVG 1.1//EN"
 "http://www.w3.org/Graphics/SVG/1.1/DTD/svg11.dtd">
<!-- Generated by graphviz version 2.43.0 (0)
 -->
<!-- Title: %3 Pages: 1 -->
<svg width="1263pt" height="666pt"
 viewBox="0.00 0.00 1263.48 666.00" xmlns="http://www.w3.org/2000/svg" xmlns:xlink="http://www.w3.org/1999/xlink">
<g id="graph0" class="graph" transform="scale(1 1) rotate(0) translate(4 662)">
<title>%3</title>
<polygon fill="white" stroke="transparent" points="-4,4 -4,-662 1259.48,-662 1259.48,4 -4,4"/>
<text text-anchor="middle" x="627.74" y="-630" font-family="Times,serif" font-size="30.00">Dependencies</text>
<text text-anchor="middle" x="627.74" y="-597" font-family="Times,serif" font-size="30.00"> </text>
<!-- :shared:feature:collections -->
<g id="node1" class="node">
<title>:shared:feature:collections</title>
<polygon fill="#b59aff" stroke="black" points="314.64,-584 108.64,-584 108.64,-548 314.64,-548 314.64,-584"/>
<text text-anchor="middle" x="211.64" y="-562.3" font-family="Times,serif" font-size="14.00">:shared:feature:collections</text>
</g>
<!-- :ui:test:screenshot -->
<g id="node2" class="node">
<title>:ui:test:screenshot</title>
<ellipse fill="#9affb5" stroke="black" cx="1158.64" cy="-292" rx="96.68" ry="18"/>
<text text-anchor="middle" x="1158.64" y="-288.3" font-family="Times,serif" font-size="14.00">:ui:test:screenshot</text>
</g>
<!-- :shared:feature:collections&#45;&gt;:ui:test:screenshot -->
<g id="edge1" class="edge">
<title>:shared:feature:collections&#45;&gt;:ui:test:screenshot</title>
<path fill="none" stroke="#ff9ab1" stroke-dasharray="1,5" d="M315.05,-566C566.78,-566 1190.92,-566 1190.92,-566 1190.92,-566 1190.92,-319.14 1190.92,-319.14"/>
<polygon fill="#ff9ab1" stroke="#ff9ab1" points="1194.42,-319.14 1190.92,-309.14 1187.42,-319.14 1194.42,-319.14"/>
</g>
<!-- :core:models -->
<g id="node3" class="node">
<title>:core:models</title>
<ellipse fill="#b59aff" stroke="black" cx="511.64" cy="-18" rx="69.59" ry="18"/>
<text text-anchor="middle" x="511.64" y="-14.3" font-family="Times,serif" font-size="14.00">:core:models</text>
</g>
<!-- :shared:feature:collections&#45;&gt;:core:models -->
<g id="edge2" class="edge">
<title>:shared:feature:collections&#45;&gt;:core:models</title>
<path fill="none" stroke="black" stroke-dasharray="1,5" d="M230.59,-547.97C230.59,-453.92 230.59,-24 230.59,-24 230.59,-24 435.75,-24 435.75,-24"/>
<polygon fill="black" stroke="black" points="435.75,-27.5 445.75,-24 435.75,-20.5 435.75,-27.5"/>
</g>
<!-- :core:preferences -->
<g id="node4" class="node">
<title>:core:preferences</title>
<ellipse fill="#b59aff" stroke="black" cx="91.64" cy="-292" rx="91.78" ry="18"/>
<text text-anchor="middle" x="91.64" y="-288.3" font-family="Times,serif" font-size="14.00">:core:preferences</text>
</g>
<!-- :shared:feature:collections&#45;&gt;:core:preferences -->
<g id="edge3" class="edge">
<title>:shared:feature:collections&#45;&gt;:core:preferences</title>
<path fill="none" stroke="black" stroke-dasharray="1,5" d="M133.52,-547.6C133.52,-547.6 133.52,-318.22 133.52,-318.22"/>
<polygon fill="black" stroke="black" points="137.02,-318.22 133.52,-308.22 130.02,-318.22 137.02,-318.22"/>
</g>
<!-- :shared:domain -->
<g id="node5" class="node">
<title>:shared:domain</title>
<ellipse fill="#b59aff" stroke="black" cx="378.64" cy="-155" rx="82.59" ry="18"/>
<text text-anchor="middle" x="378.64" y="-151.3" font-family="Times,serif" font-size="14.00">:shared:domain</text>
</g>
<!-- :shared:feature:collections&#45;&gt;:shared:domain -->
<g id="edge4" class="edge">
<title>:shared:feature:collections&#45;&gt;:shared:domain</title>
<path fill="none" stroke="black" stroke-dasharray="1,5" d="M254.24,-547.81C254.24,-468.27 254.24,-155 254.24,-155 254.24,-155 286.01,-155 286.01,-155"/>
<polygon fill="black" stroke="black" points="286.01,-158.5 296.01,-155 286.01,-151.5 286.01,-158.5"/>
</g>
<!-- :ui:common -->
<g id="node6" class="node">
<title>:ui:common</title>
<ellipse fill="#b59aff" stroke="black" cx="625.64" cy="-429" rx="64.19" ry="18"/>
<text text-anchor="middle" x="625.64" y="-425.3" font-family="Times,serif" font-size="14.00">:ui:common</text>
</g>
<!-- :shared:feature:collections&#45;&gt;:ui:common -->
<g id="edge5" class="edge">
<title>:shared:feature:collections&#45;&gt;:ui:common</title>
<path fill="none" stroke="black" stroke-dasharray="1,5" d="M296.27,-547.8C296.27,-512.69 296.27,-439 296.27,-439 296.27,-439 561.99,-439 561.99,-439"/>
<polygon fill="black" stroke="black" points="561.99,-442.5 571.99,-439 561.99,-435.5 561.99,-442.5"/>
</g>
<!-- :ui:core -->
<g id="node7" class="node">
<title>:ui:core</title>
<ellipse fill="#b59aff" stroke="black" cx="1033.64" cy="-155" rx="45.49" ry="18"/>
<text text-anchor="middle" x="1033.64" y="-151.3" font-family="Times,serif" font-size="14.00">:ui:core</text>
</g>
<!-- :ui:test:screenshot&#45;&gt;:ui:core -->
<g id="edge6" class="edge">
<title>:ui:test:screenshot&#45;&gt;:ui:core</title>
<path fill="none" stroke="black" stroke-dasharray="1,5" d="M1070.47,-284.24C1070.47,-284.24 1070.47,-175.58 1070.47,-175.58"/>
<polygon fill="black" stroke="black" points="1073.97,-175.58 1070.47,-165.58 1066.97,-175.58 1073.97,-175.58"/>
</g>
<!-- :core:preferences&#45;&gt;:core:models -->
<g id="edge8" class="edge">
<title>:core:preferences&#45;&gt;:core:models</title>
<path fill="none" stroke="black" stroke-dasharray="1,5" d="M183.33,-292C197.17,-292 206.94,-292 206.94,-292 206.94,-292 206.94,-12 206.94,-12 206.94,-12 435.9,-12 435.9,-12"/>
<polygon fill="black" stroke="black" points="435.9,-15.5 445.9,-12 435.9,-8.5 435.9,-15.5"/>
</g>
<!-- :core:coroutines -->
<g id="node8" class="node">
<title>:core:coroutines</title>
<ellipse fill="#b59aff" stroke="black" cx="91.64" cy="-155" rx="85.29" ry="18"/>
<text text-anchor="middle" x="91.64" y="-151.3" font-family="Times,serif" font-size="14.00">:core:coroutines</text>
</g>
<!-- :core:preferences&#45;&gt;:core:coroutines -->
<g id="edge7" class="edge">
<title>:core:preferences&#45;&gt;:core:coroutines</title>
<path fill="none" stroke="black" stroke-dasharray="1,5" d="M91.64,-273.81C91.64,-273.81 91.64,-183.27 91.64,-183.27"/>
<polygon fill="black" stroke="black" points="95.14,-183.27 91.64,-173.27 88.14,-183.27 95.14,-183.27"/>
</g>
<!-- :shared:domain&#45;&gt;:core:models -->
<g id="edge9" class="edge">
<title>:shared:domain&#45;&gt;:core:models</title>
<path fill="none" stroke="black" stroke-dasharray="1,5" d="M451.64,-146.43C451.64,-146.43 451.64,-37.28 451.64,-37.28"/>
<polygon fill="black" stroke="black" points="455.14,-37.28 451.64,-27.28 448.14,-37.28 455.14,-37.28"/>
</g>
<!-- :ui:common&#45;&gt;:ui:test:screenshot -->
<g id="edge11" class="edge">
<title>:ui:common&#45;&gt;:ui:test:screenshot</title>
<path fill="none" stroke="#ff9ab1" stroke-dasharray="1,5" d="M681.62,-438C812.28,-438 1126.36,-438 1126.36,-438 1126.36,-438 1126.36,-319.03 1126.36,-319.03"/>
<polygon fill="#ff9ab1" stroke="#ff9ab1" points="1129.86,-319.03 1126.36,-309.03 1122.86,-319.03 1129.86,-319.03"/>
</g>
<!-- :ui:common&#45;&gt;:core:models -->
<g id="edge12" class="edge">
<title>:ui:common&#45;&gt;:core:models</title>
<path fill="none" stroke="black" d="M616.47,-411.08C616.47,-360.96 616.47,-223 616.47,-223 616.47,-223 513.23,-223 513.23,-223 513.23,-223 513.23,-46.19 513.23,-46.19"/>
<polygon fill="black" stroke="black" points="516.73,-46.19 513.23,-36.19 509.73,-46.19 516.73,-46.19"/>
</g>
<!-- :ui:common&#45;&gt;:core:preferences -->
<g id="edge16" class="edge">
<title>:ui:common&#45;&gt;:core:preferences</title>
<path fill="none" stroke="black" stroke-dasharray="1,5" d="M562.14,-432C434.39,-432 158.4,-432 158.4,-432 158.4,-432 158.4,-314.42 158.4,-314.42"/>
<polygon fill="black" stroke="black" points="161.9,-314.42 158.4,-304.42 154.9,-314.42 161.9,-314.42"/>
</g>
<!-- :ui:common&#45;&gt;:shared:domain -->
<g id="edge18" class="edge">
<title>:ui:common&#45;&gt;:shared:domain</title>
<path fill="none" stroke="black" stroke-dasharray="1,5" d="M574.46,-418C518.44,-418 436.49,-418 436.49,-418 436.49,-418 436.49,-178.04 436.49,-178.04"/>
<polygon fill="black" stroke="black" points="439.99,-178.04 436.49,-168.04 432.99,-178.04 439.99,-178.04"/>
</g>
<!-- :ui:common&#45;&gt;:ui:core -->
<g id="edge13" class="edge">
<title>:ui:common&#45;&gt;:ui:core</title>
<path fill="none" stroke="black" d="M690.3,-429C805.36,-429 1033.69,-429 1033.69,-429 1033.69,-429 1033.69,-183.4 1033.69,-183.4"/>
<polygon fill="black" stroke="black" points="1037.19,-183.4 1033.69,-173.4 1030.19,-183.4 1037.19,-183.4"/>
</g>
<!-- :ui:test:image -->
<g id="node9" class="node">
<title>:ui:test:image</title>
<ellipse fill="#9affb5" stroke="black" cx="352.64" cy="-292" rx="74.99" ry="18"/>
<text text-anchor="middle" x="352.64" y="-288.3" font-family="Times,serif" font-size="14.00">:ui:test:image</text>
</g>
<!-- :ui:common&#45;&gt;:ui:test:image -->
<g id="edge10" class="edge">
<title>:ui:common&#45;&gt;:ui:test:image</title>
<path fill="none" stroke="#ff9ab1" stroke-dasharray="1,5" d="M562.7,-425C487.3,-425 371.01,-425 371.01,-425 371.01,-425 371.01,-319.66 371.01,-319.66"/>
<polygon fill="#ff9ab1" stroke="#ff9ab1" points="374.51,-319.66 371.01,-309.66 367.51,-319.66 374.51,-319.66"/>
</g>
<!-- :data:coverart -->
<g id="node10" class="node">
<title>:data:coverart</title>
<ellipse fill="#b59aff" stroke="black" cx="521.64" cy="-292" rx="76.09" ry="18"/>
<text text-anchor="middle" x="521.64" y="-288.3" font-family="Times,serif" font-size="14.00">:data:coverart</text>
</g>
<!-- :ui:common&#45;&gt;:data:coverart -->
<g id="edge14" class="edge">
<title>:ui:common&#45;&gt;:data:coverart</title>
<path fill="none" stroke="black" stroke-dasharray="1,5" d="M579.49,-416.36C579.49,-416.36 579.49,-313.83 579.49,-313.83"/>
<polygon fill="black" stroke="black" points="582.99,-313.83 579.49,-303.83 575.99,-313.83 582.99,-313.83"/>
</g>
<!-- :data:musicbrainz -->
<g id="node11" class="node">
<title>:data:musicbrainz</title>
<ellipse fill="#b59aff" stroke="black" cx="747.64" cy="-292" rx="93.68" ry="18"/>
<text text-anchor="middle" x="747.64" y="-288.3" font-family="Times,serif" font-size="14.00">:data:musicbrainz</text>
</g>
<!-- :ui:common&#45;&gt;:data:musicbrainz -->
<g id="edge15" class="edge">
<title>:ui:common&#45;&gt;:data:musicbrainz</title>
<path fill="none" stroke="black" stroke-dasharray="1,5" d="M672.02,-416.36C672.02,-416.36 672.02,-312.69 672.02,-312.69"/>
<polygon fill="black" stroke="black" points="675.52,-312.69 672.02,-302.69 668.52,-312.69 675.52,-312.69"/>
</g>
<!-- :core:logging:api -->
<g id="node12" class="node">
<title>:core:logging:api</title>
<ellipse fill="#b59aff" stroke="black" cx="627.64" cy="-155" rx="88.28" ry="18"/>
<text text-anchor="middle" x="627.64" y="-151.3" font-family="Times,serif" font-size="14.00">:core:logging:api</text>
</g>
<!-- :ui:common&#45;&gt;:core:logging:api -->
<g id="edge17" class="edge">
<title>:ui:common&#45;&gt;:core:logging:api</title>
<path fill="none" stroke="black" stroke-dasharray="1,5" d="M635.26,-411.02C635.26,-411.02 635.26,-183.04 635.26,-183.04"/>
<polygon fill="black" stroke="black" points="638.76,-183.04 635.26,-173.04 631.76,-183.04 638.76,-183.04"/>
</g>
<!-- :ui:image -->
<g id="node13" class="node">
<title>:ui:image</title>
<ellipse fill="#b59aff" stroke="black" cx="951.64" cy="-292" rx="53.89" ry="18"/>
<text text-anchor="middle" x="951.64" y="-288.3" font-family="Times,serif" font-size="14.00">:ui:image</text>
</g>
<!-- :ui:common&#45;&gt;:ui:image -->
<g id="edge19" class="edge">
<title>:ui:common&#45;&gt;:ui:image</title>
<path fill="none" stroke="black" stroke-dasharray="1,5" d="M681.68,-420C774.89,-420 951.64,-420 951.64,-420 951.64,-420 951.64,-320.07 951.64,-320.07"/>
<polygon fill="black" stroke="black" points="955.14,-320.07 951.64,-310.07 948.14,-320.07 955.14,-320.07"/>
</g>
<!-- :shared:strings -->
<g id="node14" class="node">
<title>:shared:strings</title>
<ellipse fill="#b59aff" stroke="black" cx="1033.64" cy="-18" rx="81.49" ry="18"/>
<text text-anchor="middle" x="1033.64" y="-14.3" font-family="Times,serif" font-size="14.00">:shared:strings</text>
</g>
<!-- :ui:core&#45;&gt;:shared:strings -->
<g id="edge20" class="edge">
<title>:ui:core&#45;&gt;:shared:strings</title>
<path fill="none" stroke="black" d="M1033.64,-136.81C1033.64,-136.81 1033.64,-46.27 1033.64,-46.27"/>
<polygon fill="black" stroke="black" points="1037.14,-46.27 1033.64,-36.27 1030.14,-46.27 1037.14,-46.27"/>
</g>
<!-- :data:coverart&#45;&gt;:core:models -->
<g id="edge22" class="edge">
<title>:data:coverart&#45;&gt;:core:models</title>
<path fill="none" stroke="black" stroke-dasharray="1,5" d="M487.21,-275.68C487.21,-275.68 487.21,-44.93 487.21,-44.93"/>
<polygon fill="black" stroke="black" points="490.71,-44.93 487.21,-34.93 483.71,-44.93 490.71,-44.93"/>
</g>
<!-- :data:coverart&#45;&gt;:shared:domain -->
<g id="edge23" class="edge">
<title>:data:coverart&#45;&gt;:shared:domain</title>
<path fill="none" stroke="black" stroke-dasharray="1,5" d="M453.39,-283.84C453.39,-283.84 453.39,-172.95 453.39,-172.95"/>
<polygon fill="black" stroke="black" points="456.89,-172.95 453.39,-162.95 449.89,-172.95 456.89,-172.95"/>
</g>
<!-- :data:coverart&#45;&gt;:core:logging:api -->
<g id="edge21" class="edge">
<title>:data:coverart&#45;&gt;:core:logging:api</title>
<path fill="none" stroke="black" stroke-dasharray="1,5" d="M568.47,-277.6C568.47,-277.6 568.47,-178.4 568.47,-178.4"/>
<polygon fill="black" stroke="black" points="571.97,-178.4 568.47,-168.4 564.97,-178.4 571.97,-178.4"/>
</g>
<!-- :data:musicbrainz&#45;&gt;:core:models -->
<g id="edge25" class="edge">
<title>:data:musicbrainz&#45;&gt;:core:models</title>
<path fill="none" stroke="black" stroke-dasharray="1,5" d="M778.63,-274.83C778.63,-215.68 778.63,-24 778.63,-24 778.63,-24 587.3,-24 587.3,-24"/>
<polygon fill="black" stroke="black" points="587.3,-20.5 577.3,-24 587.3,-27.5 587.3,-20.5"/>
</g>
<!-- :data:musicbrainz&#45;&gt;:core:logging:api -->
<g id="edge24" class="edge">
<title>:data:musicbrainz&#45;&gt;:core:logging:api</title>
<path fill="none" stroke="black" stroke-dasharray="1,5" d="M685.04,-278.61C685.04,-278.61 685.04,-179.05 685.04,-179.05"/>
<polygon fill="black" stroke="black" points="688.54,-179.05 685.04,-169.05 681.54,-179.05 688.54,-179.05"/>
</g>
<!-- :ui:image&#45;&gt;:core:models -->
<g id="edge26" class="edge">
<title>:ui:image&#45;&gt;:core:models</title>
<path fill="none" stroke="black" stroke-dasharray="1,5" d="M925.05,-276.14C925.05,-216.91 925.05,-12 925.05,-12 925.05,-12 587.6,-12 587.6,-12"/>
<polygon fill="black" stroke="black" points="587.6,-8.5 577.6,-12 587.6,-15.5 587.6,-8.5"/>
</g>
<!-- :ui:image&#45;&gt;:ui:core -->
<g id="edge27" class="edge">
<title>:ui:image&#45;&gt;:ui:core</title>
<path fill="none" stroke="black" stroke-dasharray="1,5" d="M996.87,-282.15C996.87,-282.15 996.87,-175.89 996.87,-175.89"/>
<polygon fill="black" stroke="black" points="1000.37,-175.89 996.87,-165.89 993.37,-175.89 1000.37,-175.89"/>
</g>
</g>
</svg>
