<?xml version="1.0" encoding="UTF-8" standalone="no"?>
<!DOCTYPE svg PUBLIC "-//W3C//DTD SVG 1.1//EN"
 "http://www.w3.org/Graphics/SVG/1.1/DTD/svg11.dtd">
<!-- Generated by graphviz version 11.0.0 (20240428.1522)
 -->
<!-- Pages: 1 -->
<svg width="1140pt" height="668pt"
 viewBox="0.00 0.00 1139.74 667.50" xmlns="http://www.w3.org/2000/svg" xmlns:xlink="http://www.w3.org/1999/xlink">
<g id="graph0" class="graph" transform="scale(1 1) rotate(0) translate(4 663.5)">
<polygon fill="white" stroke="none" points="-4,4 -4,-663.5 1135.74,-663.5 1135.74,4 -4,4"/>
<text text-anchor="middle" x="565.87" y="-627" font-family="Times,serif" font-size="30.00">stats</text>
<text text-anchor="middle" x="565.87" y="-593.25" font-family="Times,serif" font-size="30.00"> </text>
<!-- :shared:feature:stats -->
<g id="node1" class="node">
<title>:shared:feature:stats</title>
<polygon fill="#b59aff" stroke="black" points="809.29,-584 449.29,-584 449.29,-548 809.29,-548 809.29,-584"/>
<text text-anchor="middle" x="629.29" y="-560.95" font-family="Times,serif" font-size="14.00">:shared:feature:stats</text>
</g>
<!-- :ui:test:screenshot -->
<g id="node2" class="node">
<title>:ui:test:screenshot</title>
<ellipse fill="#9affb5" stroke="black" cx="1054.29" cy="-292" rx="77.45" ry="18"/>
<text text-anchor="middle" x="1054.29" y="-286.95" font-family="Times,serif" font-size="14.00">:ui:test:screenshot</text>
</g>
<!-- :shared:feature:stats&#45;&gt;:ui:test:screenshot -->
<g id="edge1" class="edge">
<title>:shared:feature:stats&#45;&gt;:ui:test:screenshot</title>
<path fill="none" stroke="#ff9ab1" stroke-dasharray="1,5" d="M809.73,-572C935.23,-572 1080.11,-572 1080.11,-572 1080.11,-572 1080.11,-320.61 1080.11,-320.61"/>
<polygon fill="#ff9ab1" stroke="#ff9ab1" points="1083.61,-320.61 1080.11,-310.61 1076.61,-320.61 1083.61,-320.61"/>
</g>
<!-- :core:models -->
<g id="node3" class="node">
<title>:core:models</title>
<ellipse fill="#b59aff" stroke="black" cx="362.29" cy="-18" rx="59.03" ry="18"/>
<text text-anchor="middle" x="362.29" y="-12.95" font-family="Times,serif" font-size="14.00">:core:models</text>
</g>
<!-- :shared:feature:stats&#45;&gt;:core:models -->
<g id="edge2" class="edge">
<title>:shared:feature:stats&#45;&gt;:core:models</title>
<path fill="none" stroke="black" stroke-dasharray="1,5" d="M785.01,-547.78C785.01,-451.79 785.01,-9 785.01,-9 785.01,-9 425.64,-9 425.64,-9"/>
<polygon fill="black" stroke="black" points="425.64,-5.5 415.64,-9 425.64,-12.5 425.64,-5.5"/>
</g>
<!-- :ui:common -->
<g id="node4" class="node">
<title>:ui:common</title>
<ellipse fill="#b59aff" stroke="black" cx="629.29" cy="-429" rx="56.47" ry="18"/>
<text text-anchor="middle" x="629.29" y="-423.95" font-family="Times,serif" font-size="14.00">:ui:common</text>
</g>
<!-- :shared:feature:stats&#45;&gt;:ui:common -->
<g id="edge3" class="edge">
<title>:shared:feature:stats&#45;&gt;:ui:common</title>
<path fill="none" stroke="black" stroke-dasharray="1,5" d="M629.29,-547.52C629.29,-547.52 629.29,-458.7 629.29,-458.7"/>
<polygon fill="black" stroke="black" points="632.79,-458.7 629.29,-448.7 625.79,-458.7 632.79,-458.7"/>
</g>
<!-- :domain -->
<g id="node5" class="node">
<title>:domain</title>
<ellipse fill="#b59aff" stroke="black" cx="540.29" cy="-155" rx="41.63" ry="18"/>
<text text-anchor="middle" x="540.29" y="-149.95" font-family="Times,serif" font-size="14.00">:domain</text>
</g>
<!-- :shared:feature:stats&#45;&gt;:domain -->
<g id="edge4" class="edge">
<title>:shared:feature:stats&#45;&gt;:domain</title>
<path fill="none" stroke="black" stroke-dasharray="1,5" d="M544.85,-547.54C544.85,-547.54 544.85,-184.46 544.85,-184.46"/>
<polygon fill="black" stroke="black" points="548.35,-184.46 544.85,-174.46 541.35,-184.46 548.35,-184.46"/>
</g>
<!-- :data:database -->
<g id="node6" class="node">
<title>:data:database</title>
<ellipse fill="#b59aff" stroke="black" cx="132.29" cy="-429" rx="63.12" ry="18"/>
<text text-anchor="middle" x="132.29" y="-423.95" font-family="Times,serif" font-size="14.00">:data:database</text>
</g>
<!-- :shared:feature:stats&#45;&gt;:data:database -->
<g id="edge5" class="edge">
<title>:shared:feature:stats&#45;&gt;:data:database</title>
<path fill="none" stroke="black" stroke-dasharray="1,5" d="M483.08,-547.66C483.08,-512.27 483.08,-438 483.08,-438 483.08,-438 199.39,-438 199.39,-438"/>
<polygon fill="black" stroke="black" points="199.39,-434.5 189.39,-438 199.39,-441.5 199.39,-434.5"/>
</g>
<!-- :ui:core -->
<g id="node7" class="node">
<title>:ui:core</title>
<ellipse fill="#b59aff" stroke="black" cx="1001.29" cy="-155" rx="39.07" ry="18"/>
<text text-anchor="middle" x="1001.29" y="-149.95" font-family="Times,serif" font-size="14.00">:ui:core</text>
</g>
<!-- :shared:feature:stats&#45;&gt;:ui:core -->
<g id="edge6" class="edge">
<title>:shared:feature:stats&#45;&gt;:ui:core</title>
<path fill="none" stroke="black" stroke-dasharray="1,5" d="M809.54,-560C892.66,-560 973.18,-560 973.18,-560 973.18,-560 973.18,-179.53 973.18,-179.53"/>
<polygon fill="black" stroke="black" points="976.68,-179.53 973.18,-169.53 969.68,-179.53 976.68,-179.53"/>
</g>
<!-- :strings -->
<g id="node8" class="node">
<title>:strings</title>
<ellipse fill="#b59aff" stroke="black" cx="1001.29" cy="-18" rx="38.04" ry="18"/>
<text text-anchor="middle" x="1001.29" y="-12.95" font-family="Times,serif" font-size="14.00">:strings</text>
</g>
<!-- :shared:feature:stats&#45;&gt;:strings -->
<g id="edge7" class="edge">
<title>:shared:feature:stats&#45;&gt;:strings</title>
<path fill="none" stroke="black" stroke-dasharray="1,5" d="M797.15,-547.58C797.15,-453.51 797.15,-31 797.15,-31 797.15,-31 962.67,-31 962.67,-31"/>
<polygon fill="black" stroke="black" points="962.67,-34.5 972.67,-31 962.67,-27.5 962.67,-34.5"/>
</g>
<!-- :ui:test:screenshot&#45;&gt;:ui:core -->
<g id="edge8" class="edge">
<title>:ui:test:screenshot&#45;&gt;:ui:core</title>
<path fill="none" stroke="red" d="M1008.6,-277.08C1008.6,-277.08 1008.6,-184.44 1008.6,-184.44"/>
<polygon fill="red" stroke="red" points="1012.1,-184.44 1008.6,-174.44 1005.1,-184.44 1012.1,-184.44"/>
</g>
<!-- :ui:common&#45;&gt;:ui:test:screenshot -->
<g id="edge10" class="edge">
<title>:ui:common&#45;&gt;:ui:test:screenshot</title>
<path fill="none" stroke="#ff9ab1" d="M679.04,-438C786.05,-438 1028.47,-438 1028.47,-438 1028.47,-438 1028.47,-320.83 1028.47,-320.83"/>
<polygon fill="#ff9ab1" stroke="#ff9ab1" points="1031.97,-320.83 1028.47,-310.83 1024.97,-320.84 1031.97,-320.83"/>
</g>
<!-- :ui:common&#45;&gt;:core:models -->
<g id="edge11" class="edge">
<title>:ui:common&#45;&gt;:core:models</title>
<path fill="none" stroke="black" d="M604.51,-412.44C604.51,-335.06 604.51,-13 604.51,-13 604.51,-13 430.9,-13 430.9,-13"/>
<polygon fill="black" stroke="black" points="430.9,-9.5 420.9,-13 430.9,-16.5 430.9,-9.5"/>
</g>
<!-- :ui:common&#45;&gt;:domain -->
<g id="edge16" class="edge">
<title>:ui:common&#45;&gt;:domain</title>
<path fill="none" stroke="black" stroke-dasharray="1,5" d="M579.64,-420.19C579.64,-420.19 579.64,-172.86 579.64,-172.86"/>
<polygon fill="black" stroke="black" points="583.14,-172.86 579.64,-162.86 576.14,-172.86 583.14,-172.86"/>
</g>
<!-- :ui:common&#45;&gt;:ui:core -->
<g id="edge18" class="edge">
<title>:ui:common&#45;&gt;:ui:core</title>
<path fill="none" stroke="red" d="M686.24,-429C783.09,-429 969.53,-429 969.53,-429 969.53,-429 969.53,-177.25 969.53,-177.25"/>
<polygon fill="red" stroke="red" points="973.03,-177.25 969.53,-167.25 966.03,-177.25 973.03,-177.25"/>
</g>
<!-- :ui:common&#45;&gt;:strings -->
<g id="edge17" class="edge">
<title>:ui:common&#45;&gt;:strings</title>
<path fill="none" stroke="black" stroke-dasharray="1,5" d="M627.11,-410.68C627.11,-332.04 627.11,-27 627.11,-27 627.11,-27 956.24,-27 956.24,-27"/>
<polygon fill="black" stroke="black" points="956.24,-30.5 966.24,-27 956.24,-23.5 956.24,-30.5"/>
</g>
<!-- :ui:test:image -->
<g id="node9" class="node">
<title>:ui:test:image</title>
<ellipse fill="#9affb5" stroke="black" cx="711.29" cy="-292" rx="61.59" ry="18"/>
<text text-anchor="middle" x="711.29" y="-286.95" font-family="Times,serif" font-size="14.00">:ui:test:image</text>
</g>
<!-- :ui:common&#45;&gt;:ui:test:image -->
<g id="edge9" class="edge">
<title>:ui:common&#45;&gt;:ui:test:image</title>
<path fill="none" stroke="#ff9ab1" d="M667.73,-415.36C667.73,-415.36 667.73,-316.69 667.73,-316.69"/>
<polygon fill="#ff9ab1" stroke="#ff9ab1" points="671.23,-316.69 667.73,-306.69 664.23,-316.69 671.23,-316.69"/>
</g>
<!-- :data:coverart -->
<g id="node10" class="node">
<title>:data:coverart</title>
<ellipse fill="#b59aff" stroke="black" cx="455.29" cy="-292" rx="61.59" ry="18"/>
<text text-anchor="middle" x="455.29" y="-286.95" font-family="Times,serif" font-size="14.00">:data:coverart</text>
</g>
<!-- :ui:common&#45;&gt;:data:coverart -->
<g id="edge12" class="edge">
<title>:ui:common&#45;&gt;:data:coverart</title>
<path fill="none" stroke="orange" d="M577.37,-421.63C577.37,-393.18 577.37,-292 577.37,-292 577.37,-292 528.56,-292 528.56,-292"/>
<polygon fill="orange" stroke="orange" points="528.56,-288.5 518.56,-292 528.56,-295.5 528.56,-288.5"/>
</g>
<!-- :data:musicbrainz -->
<g id="node11" class="node">
<title>:data:musicbrainz</title>
<ellipse fill="#b59aff" stroke="black" cx="260.29" cy="-292" rx="76.94" ry="18"/>
<text text-anchor="middle" x="260.29" y="-286.95" font-family="Times,serif" font-size="14.00">:data:musicbrainz</text>
</g>
<!-- :ui:common&#45;&gt;:data:musicbrainz -->
<g id="edge13" class="edge">
<title>:ui:common&#45;&gt;:data:musicbrainz</title>
<path fill="none" stroke="orange" d="M572.57,-429C470.49,-429 266.32,-429 266.32,-429 266.32,-429 266.32,-321.71 266.32,-321.71"/>
<polygon fill="orange" stroke="orange" points="269.82,-321.71 266.32,-311.71 262.82,-321.71 269.82,-321.71"/>
</g>
<!-- :core:preferences -->
<g id="node12" class="node">
<title>:core:preferences</title>
<ellipse fill="#b59aff" stroke="black" cx="91.29" cy="-292" rx="74.38" ry="18"/>
<text text-anchor="middle" x="91.29" y="-286.95" font-family="Times,serif" font-size="14.00">:core:preferences</text>
</g>
<!-- :ui:common&#45;&gt;:core:preferences -->
<g id="edge14" class="edge">
<title>:ui:common&#45;&gt;:core:preferences</title>
<path fill="none" stroke="black" stroke-dasharray="1,5" d="M575.09,-423.59C575.09,-407.32 575.09,-360 575.09,-360 575.09,-360 117.42,-360 117.42,-360 117.42,-360 117.42,-320.67 117.42,-320.67"/>
<polygon fill="black" stroke="black" points="120.92,-320.67 117.42,-310.67 113.92,-320.67 120.92,-320.67"/>
</g>
<!-- :core:logging:api -->
<g id="node13" class="node">
<title>:core:logging:api</title>
<ellipse fill="#b59aff" stroke="black" cx="362.29" cy="-155" rx="73.87" ry="18"/>
<text text-anchor="middle" x="362.29" y="-149.95" font-family="Times,serif" font-size="14.00">:core:logging:api</text>
</g>
<!-- :ui:common&#45;&gt;:core:logging:api -->
<g id="edge15" class="edge">
<title>:ui:common&#45;&gt;:core:logging:api</title>
<path fill="none" stroke="black" stroke-dasharray="1,5" d="M579.67,-420C503.24,-420 365.47,-420 365.47,-420 365.47,-420 365.47,-184.73 365.47,-184.73"/>
<polygon fill="black" stroke="black" points="368.97,-184.73 365.47,-174.73 361.97,-184.73 368.97,-184.73"/>
</g>
<!-- :ui:image -->
<g id="node14" class="node">
<title>:ui:image</title>
<ellipse fill="#b59aff" stroke="black" cx="875.29" cy="-292" rx="46.23" ry="18"/>
<text text-anchor="middle" x="875.29" y="-286.95" font-family="Times,serif" font-size="14.00">:ui:image</text>
</g>
<!-- :ui:common&#45;&gt;:ui:image -->
<g id="edge19" class="edge">
<title>:ui:common&#45;&gt;:ui:image</title>
<path fill="none" stroke="red" d="M678.77,-420C750.61,-420 875.29,-420 875.29,-420 875.29,-420 875.29,-321.85 875.29,-321.85"/>
<polygon fill="red" stroke="red" points="878.79,-321.85 875.29,-311.85 871.79,-321.85 878.79,-321.85"/>
</g>
<!-- :domain&#45;&gt;:core:models -->
<g id="edge20" class="edge">
<title>:domain&#45;&gt;:core:models</title>
<path fill="none" stroke="black" stroke-dasharray="1,5" d="M540.29,-136.52C540.29,-99.13 540.29,-18 540.29,-18 540.29,-18 433.07,-18 433.07,-18"/>
<polygon fill="black" stroke="black" points="433.07,-14.5 423.07,-18 433.07,-21.5 433.07,-14.5"/>
</g>
<!-- :data:database&#45;&gt;:core:models -->
<g id="edge22" class="edge">
<title>:data:database&#45;&gt;:core:models</title>
<path fill="none" stroke="black" stroke-dasharray="1,5" d="M177.45,-416.25C177.45,-346.88 177.45,-18 177.45,-18 177.45,-18 291.27,-18 291.27,-18"/>
<polygon fill="black" stroke="black" points="291.27,-21.5 301.27,-18 291.27,-14.5 291.27,-21.5"/>
</g>
<!-- :data:database&#45;&gt;:data:musicbrainz -->
<g id="edge23" class="edge">
<title>:data:database&#45;&gt;:data:musicbrainz</title>
<path fill="none" stroke="black" stroke-dasharray="1,5" d="M189.38,-420.84C189.38,-420.84 189.38,-310.79 189.38,-310.79"/>
<polygon fill="black" stroke="black" points="192.88,-310.79 189.38,-300.79 185.88,-310.79 192.88,-310.79"/>
</g>
<!-- :core:coroutines -->
<g id="node15" class="node">
<title>:core:coroutines</title>
<ellipse fill="#b59aff" stroke="black" cx="70.29" cy="-155" rx="70.29" ry="18"/>
<text text-anchor="middle" x="70.29" y="-149.95" font-family="Times,serif" font-size="14.00">:core:coroutines</text>
</g>
<!-- :data:database&#45;&gt;:core:coroutines -->
<g id="edge21" class="edge">
<title>:data:database&#45;&gt;:core:coroutines</title>
<path fill="none" stroke="black" stroke-dasharray="1,5" d="M171.56,-414.65C171.56,-358.28 171.56,-155 171.56,-155 171.56,-155 152.42,-155 152.42,-155"/>
<polygon fill="black" stroke="black" points="152.42,-151.5 142.42,-155 152.42,-158.5 152.42,-151.5"/>
</g>
<!-- :ui:core&#45;&gt;:strings -->
<g id="edge24" class="edge">
<title>:ui:core&#45;&gt;:strings</title>
<path fill="none" stroke="black" d="M1001.29,-136.52C1001.29,-136.52 1001.29,-47.7 1001.29,-47.7"/>
<polygon fill="black" stroke="black" points="1004.79,-47.7 1001.29,-37.7 997.79,-47.7 1004.79,-47.7"/>
</g>
<!-- :data:coverart&#45;&gt;:core:models -->
<g id="edge26" class="edge">
<title>:data:coverart&#45;&gt;:core:models</title>
<path fill="none" stroke="black" stroke-dasharray="1,5" d="M467.41,-273.87C467.41,-213.33 467.41,-22 467.41,-22 467.41,-22 431.9,-22 431.9,-22"/>
<polygon fill="black" stroke="black" points="431.9,-18.5 421.9,-22 431.9,-25.5 431.9,-18.5"/>
</g>
<!-- :data:coverart&#45;&gt;:domain -->
<g id="edge27" class="edge">
<title>:data:coverart&#45;&gt;:domain</title>
<path fill="none" stroke="black" stroke-dasharray="1,5" d="M507.77,-282.15C507.77,-282.15 507.77,-178.18 507.77,-178.18"/>
<polygon fill="black" stroke="black" points="511.27,-178.18 507.77,-168.18 504.27,-178.18 511.27,-178.18"/>
</g>
<!-- :data:coverart&#45;&gt;:core:logging:api -->
<g id="edge25" class="edge">
<title>:data:coverart&#45;&gt;:core:logging:api</title>
<path fill="none" stroke="black" stroke-dasharray="1,5" d="M414.93,-278.11C414.93,-278.11 414.93,-179.24 414.93,-179.24"/>
<polygon fill="black" stroke="black" points="418.43,-179.24 414.93,-169.24 411.43,-179.24 418.43,-179.24"/>
</g>
<!-- :data:musicbrainz&#45;&gt;:core:models -->
<g id="edge29" class="edge">
<title>:data:musicbrainz&#45;&gt;:core:models</title>
<path fill="none" stroke="black" stroke-dasharray="1,5" d="M235.88,-274.61C235.88,-215.66 235.88,-27 235.88,-27 235.88,-27 299,-27 299,-27"/>
<polygon fill="black" stroke="black" points="299,-30.5 309,-27 299,-23.5 299,-30.5"/>
</g>
<!-- :data:musicbrainz&#45;&gt;:core:logging:api -->
<g id="edge28" class="edge">
<title>:data:musicbrainz&#45;&gt;:core:logging:api</title>
<path fill="none" stroke="black" stroke-dasharray="1,5" d="M312.82,-278.61C312.82,-278.61 312.82,-180.16 312.82,-180.16"/>
<polygon fill="black" stroke="black" points="316.32,-180.16 312.82,-170.16 309.32,-180.16 316.32,-180.16"/>
</g>
<!-- :core:preferences&#45;&gt;:core:models -->
<g id="edge31" class="edge">
<title>:core:preferences&#45;&gt;:core:models</title>
<path fill="none" stroke="black" stroke-dasharray="1,5" d="M153.12,-281.59C153.12,-230.54 153.12,-9 153.12,-9 153.12,-9 298.8,-9 298.8,-9"/>
<polygon fill="black" stroke="black" points="298.8,-12.5 308.8,-9 298.8,-5.5 298.8,-12.5"/>
</g>
<!-- :core:preferences&#45;&gt;:core:coroutines -->
<g id="edge30" class="edge">
<title>:core:preferences&#45;&gt;:core:coroutines</title>
<path fill="none" stroke="black" stroke-dasharray="1,5" d="M78.74,-273.81C78.74,-273.81 78.74,-184.78 78.74,-184.78"/>
<polygon fill="black" stroke="black" points="82.24,-184.78 78.74,-174.78 75.24,-184.78 82.24,-184.78"/>
</g>
<!-- :ui:image&#45;&gt;:core:models -->
<g id="edge32" class="edge">
<title>:ui:image&#45;&gt;:core:models</title>
<path fill="none" stroke="black" stroke-dasharray="1,5" d="M875.29,-273.55C875.29,-209.98 875.29,-4 875.29,-4 875.29,-4 412.36,-4 412.36,-4"/>
<polygon fill="black" stroke="black" points="412.36,-0.5 402.36,-4 412.36,-7.5 412.36,-0.5"/>
</g>
<!-- :ui:image&#45;&gt;:ui:core -->
<g id="edge33" class="edge">
<title>:ui:image&#45;&gt;:ui:core</title>
<path fill="none" stroke="red" d="M921.91,-292C944.1,-292 965.87,-292 965.87,-292 965.87,-292 965.87,-174.67 965.87,-174.67"/>
<polygon fill="red" stroke="red" points="969.37,-174.67 965.87,-164.67 962.37,-174.67 969.37,-174.67"/>
</g>
</g>
</svg>
