<?xml version="1.0" encoding="UTF-8" standalone="no"?>
<!DOCTYPE svg PUBLIC "-//W3C//DTD SVG 1.1//EN"
 "http://www.w3.org/Graphics/SVG/1.1/DTD/svg11.dtd">
<!-- Generated by graphviz version 2.43.0 (0)
 -->
<!-- Title: %3 Pages: 1 -->
<svg width="1190pt" height="1077pt"
 viewBox="0.00 0.00 1190.23 1077.00" xmlns="http://www.w3.org/2000/svg" xmlns:xlink="http://www.w3.org/1999/xlink">
<g id="graph0" class="graph" transform="scale(1 1) rotate(0) translate(4 1073)">
<title>%3</title>
<polygon fill="white" stroke="transparent" points="-4,4 -4,-1073 1186.23,-1073 1186.23,4 -4,4"/>
<text text-anchor="middle" x="591.12" y="-1041" font-family="Times,serif" font-size="30.00">Dependencies</text>
<text text-anchor="middle" x="591.12" y="-1008" font-family="Times,serif" font-size="30.00"> </text>
<!-- :shared:feature:stats -->
<g id="node1" class="node">
<title>:shared:feature:stats</title>
<polygon fill="#b59aff" stroke="black" points="373.84,-995 207.84,-995 207.84,-959 373.84,-959 373.84,-995"/>
<text text-anchor="middle" x="290.84" y="-973.3" font-family="Times,serif" font-size="14.00">:shared:feature:stats</text>
</g>
<!-- :ui:test:screenshot -->
<g id="node2" class="node">
<title>:ui:test:screenshot</title>
<ellipse fill="#9affb5" stroke="black" cx="114.84" cy="-703" rx="96.68" ry="18"/>
<text text-anchor="middle" x="114.84" y="-699.3" font-family="Times,serif" font-size="14.00">:ui:test:screenshot</text>
</g>
<!-- :shared:feature:stats&#45;&gt;:ui:test:screenshot -->
<g id="edge1" class="edge">
<title>:shared:feature:stats&#45;&gt;:ui:test:screenshot</title>
<path fill="none" stroke="#ff9ab1" stroke-dasharray="1,5" d="M221.75,-958.6C221.75,-897.16 221.75,-703 221.75,-703 221.75,-703 220.76,-703 220.76,-703"/>
<polygon fill="#ff9ab1" stroke="#ff9ab1" points="221.88,-699.5 211.88,-703 221.88,-706.5 221.88,-699.5"/>
</g>
<!-- :ui:common -->
<g id="node3" class="node">
<title>:ui:common</title>
<ellipse fill="#b59aff" stroke="black" cx="349.84" cy="-840" rx="64.19" ry="18"/>
<text text-anchor="middle" x="349.84" y="-836.3" font-family="Times,serif" font-size="14.00">:ui:common</text>
</g>
<!-- :shared:feature:stats&#45;&gt;:ui:common -->
<g id="edge2" class="edge">
<title>:shared:feature:stats&#45;&gt;:ui:common</title>
<path fill="none" stroke="black" stroke-dasharray="1,5" d="M329.67,-958.81C329.67,-958.81 329.67,-867.4 329.67,-867.4"/>
<polygon fill="black" stroke="black" points="333.17,-867.4 329.67,-857.4 326.17,-867.4 333.17,-867.4"/>
</g>
<!-- :shared:domain -->
<g id="node4" class="node">
<title>:shared:domain</title>
<ellipse fill="#b59aff" stroke="black" cx="618.84" cy="-18" rx="82.59" ry="18"/>
<text text-anchor="middle" x="618.84" y="-14.3" font-family="Times,serif" font-size="14.00">:shared:domain</text>
</g>
<!-- :shared:feature:stats&#45;&gt;:shared:domain -->
<g id="edge3" class="edge">
<title>:shared:feature:stats&#45;&gt;:shared:domain</title>
<path fill="none" stroke="black" stroke-dasharray="1,5" d="M207.5,-977C121.55,-977 0,-977 0,-977 0,-977 0,-9 0,-9 0,-9 537.25,-9 537.25,-9"/>
<polygon fill="black" stroke="black" points="537.25,-12.5 547.25,-9 537.25,-5.5 537.25,-12.5"/>
</g>
<!-- :data:database -->
<g id="node5" class="node">
<title>:data:database</title>
<ellipse fill="#b59aff" stroke="black" cx="618.84" cy="-292" rx="79.09" ry="18"/>
<text text-anchor="middle" x="618.84" y="-288.3" font-family="Times,serif" font-size="14.00">:data:database</text>
</g>
<!-- :shared:feature:stats&#45;&gt;:data:database -->
<g id="edge4" class="edge">
<title>:shared:feature:stats&#45;&gt;:data:database</title>
<path fill="none" stroke="black" stroke-dasharray="1,5" d="M374.04,-977C420.33,-977 468.7,-977 468.7,-977 468.7,-977 468.7,-292 468.7,-292 468.7,-292 529.37,-292 529.37,-292"/>
<polygon fill="black" stroke="black" points="529.37,-295.5 539.37,-292 529.37,-288.5 529.37,-295.5"/>
</g>
<!-- :ui:core -->
<g id="node6" class="node">
<title>:ui:core</title>
<ellipse fill="#b59aff" stroke="black" cx="289.84" cy="-566" rx="45.49" ry="18"/>
<text text-anchor="middle" x="289.84" y="-562.3" font-family="Times,serif" font-size="14.00">:ui:core</text>
</g>
<!-- :ui:test:screenshot&#45;&gt;:ui:core -->
<g id="edge5" class="edge">
<title>:ui:test:screenshot&#45;&gt;:ui:core</title>
<path fill="none" stroke="black" stroke-dasharray="1,5" d="M184.78,-690.36C184.78,-656.44 184.78,-566 184.78,-566 184.78,-566 234.07,-566 234.07,-566"/>
<polygon fill="black" stroke="black" points="234.07,-569.5 244.07,-566 234.07,-562.5 234.07,-569.5"/>
</g>
<!-- :test:image -->
<g id="node7" class="node">
<title>:test:image</title>
<ellipse fill="#9affb5" stroke="black" cx="94.84" cy="-566" rx="63.09" ry="18"/>
<text text-anchor="middle" x="94.84" y="-562.3" font-family="Times,serif" font-size="14.00">:test:image</text>
</g>
<!-- :ui:test:screenshot&#45;&gt;:test:image -->
<g id="edge6" class="edge">
<title>:ui:test:screenshot&#45;&gt;:test:image</title>
<path fill="none" stroke="black" stroke-dasharray="1,5" d="M94.84,-685.37C94.84,-685.37 94.84,-594.44 94.84,-594.44"/>
<polygon fill="black" stroke="black" points="98.34,-594.44 94.84,-584.44 91.34,-594.44 98.34,-594.44"/>
</g>
<!-- :ui:common&#45;&gt;:ui:test:screenshot -->
<g id="edge8" class="edge">
<title>:ui:common&#45;&gt;:ui:test:screenshot</title>
<path fill="none" stroke="#ff9ab1" stroke-dasharray="1,5" d="M285.41,-840C215.26,-840 112.92,-840 112.92,-840 112.92,-840 112.92,-731.19 112.92,-731.19"/>
<polygon fill="#ff9ab1" stroke="#ff9ab1" points="116.42,-731.19 112.92,-721.19 109.42,-731.19 116.42,-731.19"/>
</g>
<!-- :ui:common&#45;&gt;:shared:domain -->
<g id="edge10" class="edge">
<title>:ui:common&#45;&gt;:shared:domain</title>
<path fill="none" stroke="black" d="M388.78,-825.54C388.78,-716.47 388.78,-27 388.78,-27 388.78,-27 537.31,-27 537.31,-27"/>
<polygon fill="black" stroke="black" points="537.31,-30.5 547.31,-27 537.31,-23.5 537.31,-30.5"/>
</g>
<!-- :ui:common&#45;&gt;:ui:core -->
<g id="edge11" class="edge">
<title>:ui:common&#45;&gt;:ui:core</title>
<path fill="none" stroke="black" d="M356.94,-822.06C356.94,-760.26 356.94,-560 356.94,-560 356.94,-560 343.09,-560 343.09,-560"/>
<polygon fill="black" stroke="black" points="343.09,-556.5 333.09,-560 343.09,-563.5 343.09,-556.5"/>
</g>
<!-- :test&#45;data -->
<g id="node8" class="node">
<title>:test&#45;data</title>
<ellipse fill="#b59aff" stroke="black" cx="735.84" cy="-566" rx="55.49" ry="18"/>
<text text-anchor="middle" x="735.84" y="-562.3" font-family="Times,serif" font-size="14.00">:test&#45;data</text>
</g>
<!-- :ui:common&#45;&gt;:test&#45;data -->
<g id="edge7" class="edge">
<title>:ui:common&#45;&gt;:test&#45;data</title>
<path fill="none" stroke="#ff9ab1" stroke-dasharray="1,5" d="M401.49,-829.08C401.49,-779.49 401.49,-578 401.49,-578 401.49,-578 684.51,-578 684.51,-578"/>
<polygon fill="#ff9ab1" stroke="#ff9ab1" points="684.51,-581.5 694.51,-578 684.51,-574.5 684.51,-581.5"/>
</g>
<!-- :core:coroutines -->
<g id="node9" class="node">
<title>:core:coroutines</title>
<ellipse fill="#b59aff" stroke="black" cx="505.84" cy="-155" rx="85.29" ry="18"/>
<text text-anchor="middle" x="505.84" y="-151.3" font-family="Times,serif" font-size="14.00">:core:coroutines</text>
</g>
<!-- :ui:common&#45;&gt;:core:coroutines -->
<g id="edge9" class="edge">
<title>:ui:common&#45;&gt;:core:coroutines</title>
<path fill="none" stroke="#ff9ab1" stroke-dasharray="1,5" d="M395.13,-826.93C395.13,-732.23 395.13,-155 395.13,-155 395.13,-155 410.53,-155 410.53,-155"/>
<polygon fill="#ff9ab1" stroke="#ff9ab1" points="410.53,-158.5 420.53,-155 410.53,-151.5 410.53,-158.5"/>
</g>
<!-- :data:repository -->
<g id="node10" class="node">
<title>:data:repository</title>
<ellipse fill="#b59aff" stroke="black" cx="601.84" cy="-703" rx="85.29" ry="18"/>
<text text-anchor="middle" x="601.84" y="-699.3" font-family="Times,serif" font-size="14.00">:data:repository</text>
</g>
<!-- :ui:common&#45;&gt;:data:repository -->
<g id="edge12" class="edge">
<title>:ui:common&#45;&gt;:data:repository</title>
<path fill="none" stroke="black" stroke-dasharray="1,5" d="M407.84,-832.2C407.84,-804 407.84,-709 407.84,-709 407.84,-709 511.53,-709 511.53,-709"/>
<polygon fill="black" stroke="black" points="511.53,-712.5 521.53,-709 511.53,-705.5 511.53,-712.5"/>
</g>
<!-- :data:musicbrainz -->
<g id="node11" class="node">
<title>:data:musicbrainz</title>
<ellipse fill="#b59aff" stroke="black" cx="816.84" cy="-155" rx="93.68" ry="18"/>
<text text-anchor="middle" x="816.84" y="-151.3" font-family="Times,serif" font-size="14.00">:data:musicbrainz</text>
</g>
<!-- :ui:common&#45;&gt;:data:musicbrainz -->
<g id="edge13" class="edge">
<title>:ui:common&#45;&gt;:data:musicbrainz</title>
<path fill="none" stroke="black" stroke-dasharray="1,5" d="M410.54,-834C550.86,-834 885.8,-834 885.8,-834 885.8,-834 885.8,-177.36 885.8,-177.36"/>
<polygon fill="black" stroke="black" points="889.3,-177.36 885.8,-167.36 882.3,-177.36 889.3,-177.36"/>
</g>
<!-- :core:logging:api -->
<g id="node12" class="node">
<title>:core:logging:api</title>
<ellipse fill="#b59aff" stroke="black" cx="1093.84" cy="-18" rx="88.28" ry="18"/>
<text text-anchor="middle" x="1093.84" y="-14.3" font-family="Times,serif" font-size="14.00">:core:logging:api</text>
</g>
<!-- :ui:common&#45;&gt;:core:logging:api -->
<g id="edge14" class="edge">
<title>:ui:common&#45;&gt;:core:logging:api</title>
<path fill="none" stroke="black" stroke-dasharray="1,5" d="M410.79,-846C596.61,-846 1143.4,-846 1143.4,-846 1143.4,-846 1143.4,-43.08 1143.4,-43.08"/>
<polygon fill="black" stroke="black" points="1146.9,-43.08 1143.4,-33.08 1139.9,-43.08 1146.9,-43.08"/>
</g>
<!-- :ui:image -->
<g id="node13" class="node">
<title>:ui:image</title>
<ellipse fill="#b59aff" stroke="black" cx="283.84" cy="-703" rx="53.89" ry="18"/>
<text text-anchor="middle" x="283.84" y="-699.3" font-family="Times,serif" font-size="14.00">:ui:image</text>
</g>
<!-- :ui:common&#45;&gt;:ui:image -->
<g id="edge15" class="edge">
<title>:ui:common&#45;&gt;:ui:image</title>
<path fill="none" stroke="black" stroke-dasharray="1,5" d="M311.64,-825.34C311.64,-825.34 311.64,-728.82 311.64,-728.82"/>
<polygon fill="black" stroke="black" points="315.14,-728.82 311.64,-718.82 308.14,-728.82 315.14,-728.82"/>
</g>
<!-- :data:database&#45;&gt;:shared:domain -->
<g id="edge16" class="edge">
<title>:data:database&#45;&gt;:shared:domain</title>
<path fill="none" stroke="black" stroke-dasharray="1,5" d="M644.56,-274.86C644.56,-274.86 644.56,-45.13 644.56,-45.13"/>
<polygon fill="black" stroke="black" points="648.06,-45.13 644.56,-35.13 641.06,-45.13 648.06,-45.13"/>
</g>
<!-- :data:database&#45;&gt;:core:coroutines -->
<g id="edge17" class="edge">
<title>:data:database&#45;&gt;:core:coroutines</title>
<path fill="none" stroke="black" stroke-dasharray="1,5" d="M565.27,-278.61C565.27,-278.61 565.27,-178.24 565.27,-178.24"/>
<polygon fill="black" stroke="black" points="568.77,-178.24 565.27,-168.24 561.77,-178.24 568.77,-178.24"/>
</g>
<!-- :data:database&#45;&gt;:data:musicbrainz -->
<g id="edge18" class="edge">
<title>:data:database&#45;&gt;:data:musicbrainz</title>
<path fill="none" stroke="black" stroke-dasharray="1,5" d="M698.31,-292C727.16,-292 752.79,-292 752.79,-292 752.79,-292 752.79,-178.14 752.79,-178.14"/>
<polygon fill="black" stroke="black" points="756.29,-178.14 752.79,-168.14 749.29,-178.14 756.29,-178.14"/>
</g>
<!-- :shared:strings -->
<g id="node14" class="node">
<title>:shared:strings</title>
<ellipse fill="#b59aff" stroke="black" cx="294.84" cy="-429" rx="81.49" ry="18"/>
<text text-anchor="middle" x="294.84" y="-425.3" font-family="Times,serif" font-size="14.00">:shared:strings</text>
</g>
<!-- :ui:core&#45;&gt;:shared:strings -->
<g id="edge19" class="edge">
<title>:ui:core&#45;&gt;:shared:strings</title>
<path fill="none" stroke="black" d="M289.84,-547.81C289.84,-547.81 289.84,-457.27 289.84,-457.27"/>
<polygon fill="black" stroke="black" points="293.34,-457.27 289.84,-447.27 286.34,-457.27 293.34,-457.27"/>
</g>
<!-- :test&#45;data&#45;&gt;:shared:domain -->
<g id="edge20" class="edge">
<title>:test&#45;data&#45;&gt;:shared:domain</title>
<path fill="none" stroke="black" stroke-dasharray="1,5" d="M791.35,-566C845.31,-566 919.19,-566 919.19,-566 919.19,-566 919.19,-24 919.19,-24 919.19,-24 706.97,-24 706.97,-24"/>
<polygon fill="black" stroke="black" points="706.97,-20.5 696.97,-24 706.97,-27.5 706.97,-20.5"/>
</g>
<!-- :test&#45;data&#45;&gt;:data:database -->
<g id="edge22" class="edge">
<title>:test&#45;data&#45;&gt;:data:database</title>
<path fill="none" stroke="black" stroke-dasharray="1,5" d="M680.5,-566C650.59,-566 619.71,-566 619.71,-566 619.71,-566 619.71,-320.4 619.71,-320.4"/>
<polygon fill="black" stroke="black" points="623.22,-320.4 619.71,-310.4 616.22,-320.4 623.22,-320.4"/>
</g>
<!-- :test&#45;data&#45;&gt;:core:coroutines -->
<g id="edge21" class="edge">
<title>:test&#45;data&#45;&gt;:core:coroutines</title>
<path fill="none" stroke="black" stroke-dasharray="1,5" d="M683.56,-572C623.7,-572 533.84,-572 533.84,-572 533.84,-572 533.84,-182.12 533.84,-182.12"/>
<polygon fill="black" stroke="black" points="537.34,-182.12 533.84,-172.12 530.34,-182.12 537.34,-182.12"/>
</g>
<!-- :test&#45;data&#45;&gt;:data:musicbrainz -->
<g id="edge23" class="edge">
<title>:test&#45;data&#45;&gt;:data:musicbrainz</title>
<path fill="none" stroke="black" stroke-dasharray="1,5" d="M783.82,-557C809.75,-557 836.52,-557 836.52,-557 836.52,-557 836.52,-182.79 836.52,-182.79"/>
<polygon fill="black" stroke="black" points="840.02,-182.79 836.52,-172.79 833.02,-182.79 840.02,-182.79"/>
</g>
<!-- :data:coverart -->
<g id="node15" class="node">
<title>:data:coverart</title>
<ellipse fill="#b59aff" stroke="black" cx="735.84" cy="-429" rx="76.09" ry="18"/>
<text text-anchor="middle" x="735.84" y="-425.3" font-family="Times,serif" font-size="14.00">:data:coverart</text>
</g>
<!-- :test&#45;data&#45;&gt;:data:coverart -->
<g id="edge24" class="edge">
<title>:test&#45;data&#45;&gt;:data:coverart</title>
<path fill="none" stroke="black" stroke-dasharray="1,5" d="M717.43,-548.93C717.43,-548.93 717.43,-456.72 717.43,-456.72"/>
<polygon fill="black" stroke="black" points="720.93,-456.72 717.43,-446.72 713.93,-456.72 720.93,-456.72"/>
</g>
<!-- :data:spotify -->
<g id="node16" class="node">
<title>:data:spotify</title>
<ellipse fill="#b59aff" stroke="black" cx="996.84" cy="-155" rx="68.79" ry="18"/>
<text text-anchor="middle" x="996.84" y="-151.3" font-family="Times,serif" font-size="14.00">:data:spotify</text>
</g>
<!-- :test&#45;data&#45;&gt;:data:spotify -->
<g id="edge25" class="edge">
<title>:test&#45;data&#45;&gt;:data:spotify</title>
<path fill="none" stroke="black" stroke-dasharray="1,5" d="M783.71,-575C859.06,-575 996.84,-575 996.84,-575 996.84,-575 996.84,-183.05 996.84,-183.05"/>
<polygon fill="black" stroke="black" points="1000.34,-183.05 996.84,-173.05 993.34,-183.05 1000.34,-183.05"/>
</g>
<!-- :data:repository&#45;&gt;:shared:domain -->
<g id="edge26" class="edge">
<title>:data:repository&#45;&gt;:shared:domain</title>
<path fill="none" stroke="black" stroke-dasharray="1,5" d="M528.12,-693.84C528.12,-627.48 528.12,-223 528.12,-223 528.12,-223 617.77,-223 617.77,-223 617.77,-223 617.77,-46.19 617.77,-46.19"/>
<polygon fill="black" stroke="black" points="621.27,-46.19 617.77,-36.19 614.27,-46.19 621.27,-46.19"/>
</g>
<!-- :data:repository&#45;&gt;:data:database -->
<g id="edge27" class="edge">
<title>:data:repository&#45;&gt;:data:database</title>
<path fill="none" stroke="black" stroke-dasharray="1,5" d="M579.63,-685.6C579.63,-685.6 579.63,-317.83 579.63,-317.83"/>
<polygon fill="black" stroke="black" points="583.13,-317.83 579.63,-307.83 576.13,-317.83 583.13,-317.83"/>
</g>
<!-- :data:repository&#45;&gt;:test&#45;data -->
<g id="edge31" class="edge">
<title>:data:repository&#45;&gt;:test&#45;data</title>
<path fill="none" stroke="#ff9ab1" stroke-dasharray="1,5" d="M673.66,-693.22C673.66,-660.08 673.66,-554 673.66,-554 673.66,-554 684.37,-554 684.37,-554"/>
<polygon fill="#ff9ab1" stroke="#ff9ab1" points="684.37,-557.5 694.37,-554 684.37,-550.5 684.37,-557.5"/>
</g>
<!-- :data:repository&#45;&gt;:core:coroutines -->
<g id="edge32" class="edge">
<title>:data:repository&#45;&gt;:core:coroutines</title>
<path fill="none" stroke="#ff9ab1" stroke-dasharray="1,5" d="M522.41,-696.46C522.41,-696.46 522.41,-182.73 522.41,-182.73"/>
<polygon fill="#ff9ab1" stroke="#ff9ab1" points="525.91,-182.73 522.41,-172.73 518.91,-182.73 525.91,-182.73"/>
</g>
<!-- :data:repository&#45;&gt;:data:musicbrainz -->
<g id="edge28" class="edge">
<title>:data:repository&#45;&gt;:data:musicbrainz</title>
<path fill="none" stroke="black" stroke-dasharray="1,5" d="M682.12,-697C758.27,-697 861.16,-697 861.16,-697 861.16,-697 861.16,-180.93 861.16,-180.93"/>
<polygon fill="black" stroke="black" points="864.66,-180.93 861.16,-170.93 857.66,-180.93 864.66,-180.93"/>
</g>
<!-- :data:repository&#45;&gt;:core:logging:api -->
<g id="edge30" class="edge">
<title>:data:repository&#45;&gt;:core:logging:api</title>
<path fill="none" stroke="black" stroke-dasharray="1,5" d="M682.33,-709C824.36,-709 1104.57,-709 1104.57,-709 1104.57,-709 1104.57,-46.13 1104.57,-46.13"/>
<polygon fill="black" stroke="black" points="1108.07,-46.13 1104.57,-36.13 1101.07,-46.13 1108.07,-46.13"/>
</g>
<!-- :data:repository&#45;&gt;:data:coverart -->
<g id="edge29" class="edge">
<title>:data:repository&#45;&gt;:data:coverart</title>
<path fill="none" stroke="black" stroke-dasharray="1,5" d="M666.73,-691.23C666.73,-691.23 666.73,-446.54 666.73,-446.54"/>
<polygon fill="black" stroke="black" points="670.23,-446.54 666.73,-436.54 663.23,-446.54 670.23,-446.54"/>
</g>
<!-- :data:musicbrainz&#45;&gt;:shared:domain -->
<g id="edge33" class="edge">
<title>:data:musicbrainz&#45;&gt;:shared:domain</title>
<path fill="none" stroke="black" stroke-dasharray="1,5" d="M728.43,-149C697.97,-149 671.35,-149 671.35,-149 671.35,-149 671.35,-42.02 671.35,-42.02"/>
<polygon fill="black" stroke="black" points="674.85,-42.02 671.35,-32.02 667.85,-42.02 674.85,-42.02"/>
</g>
<!-- :data:musicbrainz&#45;&gt;:core:logging:api -->
<g id="edge34" class="edge">
<title>:data:musicbrainz&#45;&gt;:core:logging:api</title>
<path fill="none" stroke="black" stroke-dasharray="1,5" d="M816.84,-136.81C816.84,-99.54 816.84,-18 816.84,-18 816.84,-18 995.44,-18 995.44,-18"/>
<polygon fill="black" stroke="black" points="995.44,-21.5 1005.44,-18 995.44,-14.5 995.44,-21.5"/>
</g>
<!-- :ui:image&#45;&gt;:shared:domain -->
<g id="edge35" class="edge">
<title>:ui:image&#45;&gt;:shared:domain</title>
<path fill="none" stroke="black" stroke-dasharray="1,5" d="M334.87,-697C358.93,-697 382.43,-697 382.43,-697 382.43,-697 382.43,-18 382.43,-18 382.43,-18 526.16,-18 526.16,-18"/>
<polygon fill="black" stroke="black" points="526.16,-21.5 536.16,-18 526.16,-14.5 526.16,-21.5"/>
</g>
<!-- :ui:image&#45;&gt;:ui:core -->
<g id="edge36" class="edge">
<title>:ui:image&#45;&gt;:ui:core</title>
<path fill="none" stroke="black" stroke-dasharray="1,5" d="M289.84,-685.09C289.84,-685.09 289.84,-594.35 289.84,-594.35"/>
<polygon fill="black" stroke="black" points="293.34,-594.35 289.84,-584.35 286.34,-594.35 293.34,-594.35"/>
</g>
<!-- :data:coverart&#45;&gt;:shared:domain -->
<g id="edge37" class="edge">
<title>:data:coverart&#45;&gt;:shared:domain</title>
<path fill="none" stroke="black" stroke-dasharray="1,5" d="M712.32,-411.86C712.32,-335.48 712.32,-30 712.32,-30 712.32,-30 690.41,-30 690.41,-30"/>
<polygon fill="black" stroke="black" points="690.41,-26.5 680.41,-30 690.41,-33.5 690.41,-26.5"/>
</g>
<!-- :data:coverart&#45;&gt;:data:database -->
<g id="edge42" class="edge">
<title>:data:coverart&#45;&gt;:data:database</title>
<path fill="none" stroke="#ff9ab1" stroke-dasharray="1,5" d="M678.97,-416.84C678.97,-416.84 678.97,-313.93 678.97,-313.93"/>
<polygon fill="#ff9ab1" stroke="#ff9ab1" points="682.47,-313.93 678.97,-303.93 675.47,-313.94 682.47,-313.93"/>
</g>
<!-- :data:coverart&#45;&gt;:test&#45;data -->
<g id="edge40" class="edge">
<title>:data:coverart&#45;&gt;:test&#45;data</title>
<path fill="none" stroke="#ff9ab1" stroke-dasharray="1,5" d="M754.26,-446.63C754.26,-446.63 754.26,-538.87 754.26,-538.87"/>
<polygon fill="#ff9ab1" stroke="#ff9ab1" points="750.76,-538.87 754.26,-548.87 757.76,-538.87 750.76,-538.87"/>
</g>
<!-- :data:coverart&#45;&gt;:core:coroutines -->
<g id="edge39" class="edge">
<title>:data:coverart&#45;&gt;:core:coroutines</title>
<path fill="none" stroke="black" stroke-dasharray="1,5" d="M706.85,-412.24C706.85,-353.56 706.85,-161 706.85,-161 706.85,-161 596.15,-161 596.15,-161"/>
<polygon fill="black" stroke="black" points="596.15,-157.5 586.15,-161 596.15,-164.5 596.15,-157.5"/>
</g>
<!-- :data:coverart&#45;&gt;:data:musicbrainz -->
<g id="edge41" class="edge">
<title>:data:coverart&#45;&gt;:data:musicbrainz</title>
<path fill="none" stroke="#ff9ab1" stroke-dasharray="1,5" d="M782.34,-414.65C782.34,-414.65 782.34,-181.94 782.34,-181.94"/>
<polygon fill="#ff9ab1" stroke="#ff9ab1" points="785.84,-181.94 782.34,-171.94 778.84,-181.94 785.84,-181.94"/>
</g>
<!-- :data:coverart&#45;&gt;:core:logging:api -->
<g id="edge38" class="edge">
<title>:data:coverart&#45;&gt;:core:logging:api</title>
<path fill="none" stroke="black" stroke-dasharray="1,5" d="M717.78,-411.35C717.78,-331.98 717.78,-12 717.78,-12 717.78,-12 1000.38,-12 1000.38,-12"/>
<polygon fill="black" stroke="black" points="1000.38,-15.5 1010.38,-12 1000.38,-8.5 1000.38,-15.5"/>
</g>
<!-- :data:spotify&#45;&gt;:shared:domain -->
<g id="edge43" class="edge">
<title>:data:spotify&#45;&gt;:shared:domain</title>
<path fill="none" stroke="black" stroke-dasharray="1,5" d="M966.7,-138.66C966.7,-99.79 966.7,-5 966.7,-5 966.7,-5 686.28,-5 686.28,-5"/>
<polygon fill="black" stroke="black" points="686.28,-1.5 676.28,-5 686.28,-8.5 686.28,-1.5"/>
</g>
<!-- :data:spotify&#45;&gt;:core:logging:api -->
<g id="edge44" class="edge">
<title>:data:spotify&#45;&gt;:core:logging:api</title>
<path fill="none" stroke="black" stroke-dasharray="1,5" d="M1035.59,-140.08C1035.59,-140.08 1035.59,-41.68 1035.59,-41.68"/>
<polygon fill="black" stroke="black" points="1039.09,-41.68 1035.59,-31.68 1032.09,-41.68 1039.09,-41.68"/>
</g>
</g>
</svg>
