<?xml version="1.0" encoding="UTF-8" standalone="no"?>
<!DOCTYPE svg PUBLIC "-//W3C//DTD SVG 1.1//EN"
 "http://www.w3.org/Graphics/SVG/1.1/DTD/svg11.dtd">
<!-- Generated by graphviz version 2.43.0 (0)
 -->
<!-- Title: %3 Pages: 1 -->
<svg width="1131pt" height="666pt"
 viewBox="0.00 0.00 1130.98 666.00" xmlns="http://www.w3.org/2000/svg" xmlns:xlink="http://www.w3.org/1999/xlink">
<g id="graph0" class="graph" transform="scale(1 1) rotate(0) translate(4 662)">
<title>%3</title>
<polygon fill="white" stroke="transparent" points="-4,4 -4,-662 1126.98,-662 1126.98,4 -4,4"/>
<text text-anchor="middle" x="561.49" y="-630" font-family="Times,serif" font-size="30.00">Dependencies</text>
<text text-anchor="middle" x="561.49" y="-597" font-family="Times,serif" font-size="30.00"> </text>
<!-- :shared:feature:stats -->
<g id="node1" class="node">
<title>:shared:feature:stats</title>
<ellipse fill="#b59aff" stroke="black" cx="527.84" cy="-566" rx="107.78" ry="18"/>
<text text-anchor="middle" x="527.84" y="-562.3" font-family="Times,serif" font-size="14.00">:shared:feature:stats</text>
</g>
<!-- :ui:test:screenshot -->
<g id="node2" class="node">
<title>:ui:test:screenshot</title>
<ellipse fill="#9affb5" stroke="black" cx="96.84" cy="-292" rx="96.68" ry="18"/>
<text text-anchor="middle" x="96.84" y="-288.3" font-family="Times,serif" font-size="14.00">:ui:test:screenshot</text>
</g>
<!-- :shared:feature:stats&#45;&gt;:ui:test:screenshot -->
<g id="edge1" class="edge">
<title>:shared:feature:stats&#45;&gt;:ui:test:screenshot</title>
<path fill="none" stroke="#ff9ab1" stroke-dasharray="1,5" d="M419.81,-566C282.91,-566 64.56,-566 64.56,-566 64.56,-566 64.56,-319.14 64.56,-319.14"/>
<polygon fill="#ff9ab1" stroke="#ff9ab1" points="68.06,-319.14 64.56,-309.14 61.06,-319.14 68.06,-319.14"/>
</g>
<!-- :core:models -->
<g id="node3" class="node">
<title>:core:models</title>
<ellipse fill="#b59aff" stroke="black" cx="631.84" cy="-18" rx="69.59" ry="18"/>
<text text-anchor="middle" x="631.84" y="-14.3" font-family="Times,serif" font-size="14.00">:core:models</text>
</g>
<!-- :shared:feature:stats&#45;&gt;:core:models -->
<g id="edge2" class="edge">
<title>:shared:feature:stats&#45;&gt;:core:models</title>
<path fill="none" stroke="black" stroke-dasharray="1,5" d="M619.81,-556.49C619.81,-556.49 619.81,-45.81 619.81,-45.81"/>
<polygon fill="black" stroke="black" points="623.31,-45.81 619.81,-35.81 616.31,-45.81 623.31,-45.81"/>
</g>
<!-- :ui:common -->
<g id="node4" class="node">
<title>:ui:common</title>
<ellipse fill="#b59aff" stroke="black" cx="527.84" cy="-429" rx="64.19" ry="18"/>
<text text-anchor="middle" x="527.84" y="-425.3" font-family="Times,serif" font-size="14.00">:ui:common</text>
</g>
<!-- :shared:feature:stats&#45;&gt;:ui:common -->
<g id="edge3" class="edge">
<title>:shared:feature:stats&#45;&gt;:ui:common</title>
<path fill="none" stroke="black" stroke-dasharray="1,5" d="M527.84,-547.81C527.84,-547.81 527.84,-457.27 527.84,-457.27"/>
<polygon fill="black" stroke="black" points="531.34,-457.27 527.84,-447.27 524.34,-457.27 531.34,-457.27"/>
</g>
<!-- :shared:domain -->
<g id="node5" class="node">
<title>:shared:domain</title>
<ellipse fill="#b59aff" stroke="black" cx="482.84" cy="-155" rx="82.59" ry="18"/>
<text text-anchor="middle" x="482.84" y="-151.3" font-family="Times,serif" font-size="14.00">:shared:domain</text>
</g>
<!-- :shared:feature:stats&#45;&gt;:shared:domain -->
<g id="edge4" class="edge">
<title>:shared:feature:stats&#45;&gt;:shared:domain</title>
<path fill="none" stroke="black" stroke-dasharray="1,5" d="M430.57,-558.16C430.57,-558.16 430.57,-179.11 430.57,-179.11"/>
<polygon fill="black" stroke="black" points="434.07,-179.11 430.57,-169.11 427.07,-179.11 434.07,-179.11"/>
</g>
<!-- :data:database -->
<g id="node6" class="node">
<title>:data:database</title>
<ellipse fill="#b59aff" stroke="black" cx="937.84" cy="-429" rx="79.09" ry="18"/>
<text text-anchor="middle" x="937.84" y="-425.3" font-family="Times,serif" font-size="14.00">:data:database</text>
</g>
<!-- :shared:feature:stats&#45;&gt;:data:database -->
<g id="edge5" class="edge">
<title>:shared:feature:stats&#45;&gt;:data:database</title>
<path fill="none" stroke="black" stroke-dasharray="1,5" d="M627.77,-559.17C627.77,-532.79 627.77,-439 627.77,-439 627.77,-439 861.7,-439 861.7,-439"/>
<polygon fill="black" stroke="black" points="861.7,-442.5 871.7,-439 861.7,-435.5 861.7,-442.5"/>
</g>
<!-- :ui:core -->
<g id="node7" class="node">
<title>:ui:core</title>
<ellipse fill="#b59aff" stroke="black" cx="222.84" cy="-155" rx="45.49" ry="18"/>
<text text-anchor="middle" x="222.84" y="-151.3" font-family="Times,serif" font-size="14.00">:ui:core</text>
</g>
<!-- :ui:test:screenshot&#45;&gt;:ui:core -->
<g id="edge6" class="edge">
<title>:ui:test:screenshot&#45;&gt;:ui:core</title>
<path fill="none" stroke="black" stroke-dasharray="1,5" d="M182.79,-283.43C182.79,-283.43 182.79,-173.57 182.79,-173.57"/>
<polygon fill="black" stroke="black" points="186.29,-173.57 182.79,-163.57 179.29,-173.57 186.29,-173.57"/>
</g>
<!-- :ui:test:screenshot&#45;&gt;:ui:core -->
<g id="edge22" class="edge">
<title>:ui:test:screenshot&#45;&gt;:ui:core</title>
<path fill="none" stroke="black" stroke-dasharray="1,5" d="M188.24,-285.76C188.24,-285.76 188.24,-176.76 188.24,-176.76"/>
<polygon fill="black" stroke="black" points="191.74,-176.76 188.24,-166.76 184.74,-176.76 191.74,-176.76"/>
</g>
<!-- :test:image -->
<g id="node8" class="node">
<title>:test:image</title>
<ellipse fill="#9affb5" stroke="black" cx="95.84" cy="-155" rx="63.09" ry="18"/>
<text text-anchor="middle" x="95.84" y="-151.3" font-family="Times,serif" font-size="14.00">:test:image</text>
</g>
<!-- :ui:test:screenshot&#45;&gt;:test:image -->
<g id="edge7" class="edge">
<title>:ui:test:screenshot&#45;&gt;:test:image</title>
<path fill="none" stroke="black" stroke-dasharray="1,5" d="M74.83,-274.37C74.83,-274.37 74.83,-182.13 74.83,-182.13"/>
<polygon fill="black" stroke="black" points="78.33,-182.13 74.83,-172.13 71.33,-182.13 78.33,-182.13"/>
</g>
<!-- :ui:test:screenshot&#45;&gt;:test:image -->
<g id="edge23" class="edge">
<title>:ui:test:screenshot&#45;&gt;:test:image</title>
<path fill="none" stroke="black" stroke-dasharray="1,5" d="M116.86,-274.37C116.86,-274.37 116.86,-182.13 116.86,-182.13"/>
<polygon fill="black" stroke="black" points="120.36,-182.13 116.86,-172.13 113.36,-182.13 120.36,-182.13"/>
</g>
<!-- :ui:common&#45;&gt;:ui:test:screenshot -->
<g id="edge8" class="edge">
<title>:ui:common&#45;&gt;:ui:test:screenshot</title>
<path fill="none" stroke="#ff9ab1" stroke-dasharray="1,5" d="M474.07,-439C365.23,-439 129.12,-439 129.12,-439 129.12,-439 129.12,-319.15 129.12,-319.15"/>
<polygon fill="#ff9ab1" stroke="#ff9ab1" points="132.62,-319.15 129.12,-309.15 125.62,-319.15 132.62,-319.15"/>
</g>
<!-- :ui:common&#45;&gt;:core:models -->
<g id="edge9" class="edge">
<title>:ui:common&#45;&gt;:core:models</title>
<path fill="none" stroke="black" d="M579.13,-418C596.62,-418 611.85,-418 611.85,-418 611.85,-418 611.85,-45.44 611.85,-45.44"/>
<polygon fill="black" stroke="black" points="615.35,-45.44 611.85,-35.44 608.35,-45.44 615.35,-45.44"/>
</g>
<!-- :ui:common&#45;&gt;:shared:domain -->
<g id="edge15" class="edge">
<title>:ui:common&#45;&gt;:shared:domain</title>
<path fill="none" stroke="black" stroke-dasharray="1,5" d="M476.68,-418C457.92,-418 441.18,-418 441.18,-418 441.18,-418 441.18,-180.66 441.18,-180.66"/>
<polygon fill="black" stroke="black" points="444.68,-180.66 441.18,-170.66 437.68,-180.66 444.68,-180.66"/>
</g>
<!-- :ui:common&#45;&gt;:ui:core -->
<g id="edge10" class="edge">
<title>:ui:common&#45;&gt;:ui:core</title>
<path fill="none" stroke="black" d="M464.06,-432C374.36,-432 221.79,-432 221.79,-432 221.79,-432 221.79,-183.17 221.79,-183.17"/>
<polygon fill="black" stroke="black" points="225.29,-183.17 221.79,-173.17 218.29,-183.17 225.29,-183.17"/>
</g>
<!-- :data:coverart -->
<g id="node9" class="node">
<title>:data:coverart</title>
<ellipse fill="#b59aff" stroke="black" cx="527.84" cy="-292" rx="76.09" ry="18"/>
<text text-anchor="middle" x="527.84" y="-288.3" font-family="Times,serif" font-size="14.00">:data:coverart</text>
</g>
<!-- :ui:common&#45;&gt;:data:coverart -->
<g id="edge11" class="edge">
<title>:ui:common&#45;&gt;:data:coverart</title>
<path fill="none" stroke="black" stroke-dasharray="1,5" d="M506.39,-411.93C506.39,-411.93 506.39,-319.29 506.39,-319.29"/>
<polygon fill="black" stroke="black" points="509.89,-319.29 506.39,-309.29 502.89,-319.29 509.89,-319.29"/>
</g>
<!-- :data:musicbrainz -->
<g id="node10" class="node">
<title>:data:musicbrainz</title>
<ellipse fill="#b59aff" stroke="black" cx="791.84" cy="-292" rx="93.68" ry="18"/>
<text text-anchor="middle" x="791.84" y="-288.3" font-family="Times,serif" font-size="14.00">:data:musicbrainz</text>
</g>
<!-- :ui:common&#45;&gt;:data:musicbrainz -->
<g id="edge12" class="edge">
<title>:ui:common&#45;&gt;:data:musicbrainz</title>
<path fill="none" stroke="black" stroke-dasharray="1,5" d="M591.39,-432C665.62,-432 778.4,-432 778.4,-432 778.4,-432 778.4,-320.02 778.4,-320.02"/>
<polygon fill="black" stroke="black" points="781.9,-320.02 778.4,-310.02 774.9,-320.02 781.9,-320.02"/>
</g>
<!-- :core:preferences -->
<g id="node11" class="node">
<title>:core:preferences</title>
<ellipse fill="#b59aff" stroke="black" cx="994.84" cy="-292" rx="91.78" ry="18"/>
<text text-anchor="middle" x="994.84" y="-288.3" font-family="Times,serif" font-size="14.00">:core:preferences</text>
</g>
<!-- :ui:common&#45;&gt;:core:preferences -->
<g id="edge13" class="edge">
<title>:ui:common&#45;&gt;:core:preferences</title>
<path fill="none" stroke="black" stroke-dasharray="1,5" d="M549.29,-411.94C549.29,-391.51 549.29,-360 549.29,-360 549.29,-360 960.17,-360 960.17,-360 960.17,-360 960.17,-318.81 960.17,-318.81"/>
<polygon fill="black" stroke="black" points="963.67,-318.81 960.17,-308.81 956.67,-318.81 963.67,-318.81"/>
</g>
<!-- :core:logging:api -->
<g id="node12" class="node">
<title>:core:logging:api</title>
<ellipse fill="#b59aff" stroke="black" cx="747.84" cy="-155" rx="88.28" ry="18"/>
<text text-anchor="middle" x="747.84" y="-151.3" font-family="Times,serif" font-size="14.00">:core:logging:api</text>
</g>
<!-- :ui:common&#45;&gt;:core:logging:api -->
<g id="edge14" class="edge">
<title>:ui:common&#45;&gt;:core:logging:api</title>
<path fill="none" stroke="black" stroke-dasharray="1,5" d="M591.01,-425C632.39,-425 678.85,-425 678.85,-425 678.85,-425 678.85,-176.26 678.85,-176.26"/>
<polygon fill="black" stroke="black" points="682.35,-176.26 678.85,-166.26 675.35,-176.26 682.35,-176.26"/>
</g>
<!-- :ui:image -->
<g id="node13" class="node">
<title>:ui:image</title>
<ellipse fill="#b59aff" stroke="black" cx="303.84" cy="-292" rx="53.89" ry="18"/>
<text text-anchor="middle" x="303.84" y="-288.3" font-family="Times,serif" font-size="14.00">:ui:image</text>
</g>
<!-- :ui:common&#45;&gt;:ui:image -->
<g id="edge16" class="edge">
<title>:ui:common&#45;&gt;:ui:image</title>
<path fill="none" stroke="black" stroke-dasharray="1,5" d="M464.85,-425C398.6,-425 303.84,-425 303.84,-425 303.84,-425 303.84,-320.21 303.84,-320.21"/>
<polygon fill="black" stroke="black" points="307.34,-320.21 303.84,-310.21 300.34,-320.21 307.34,-320.21"/>
</g>
<!-- :shared:domain&#45;&gt;:core:models -->
<g id="edge17" class="edge">
<title>:shared:domain&#45;&gt;:core:models</title>
<path fill="none" stroke="black" stroke-dasharray="1,5" d="M551.61,-165C563.33,-165 571.8,-165 571.8,-165 571.8,-165 571.8,-37.2 571.8,-37.2"/>
<polygon fill="black" stroke="black" points="575.3,-37.2 571.8,-27.2 568.3,-37.2 575.3,-37.2"/>
</g>
<!-- :shared:domain&#45;&gt;:core:models -->
<g id="edge32" class="edge">
<title>:shared:domain&#45;&gt;:core:models</title>
<path fill="none" stroke="black" stroke-dasharray="1,5" d="M564.55,-158C572.8,-158 578.22,-158 578.22,-158 578.22,-158 578.22,-39.94 578.22,-39.94"/>
<polygon fill="black" stroke="black" points="581.72,-39.94 578.22,-29.94 574.72,-39.94 581.72,-39.94"/>
</g>
<!-- :shared:domain&#45;&gt;:core:models -->
<g id="edge37" class="edge">
<title>:shared:domain&#45;&gt;:core:models</title>
<path fill="none" stroke="black" stroke-dasharray="1,5" d="M563.54,-151C575.9,-151 584.63,-151 584.63,-151 584.63,-151 584.63,-41.24 584.63,-41.24"/>
<polygon fill="black" stroke="black" points="588.13,-41.24 584.63,-31.24 581.13,-41.24 588.13,-41.24"/>
</g>
<!-- :data:database&#45;&gt;:core:models -->
<g id="edge19" class="edge">
<title>:data:database&#45;&gt;:core:models</title>
<path fill="none" stroke="black" stroke-dasharray="1,5" d="M891.36,-414.11C891.36,-341.04 891.36,-24 891.36,-24 891.36,-24 707.66,-24 707.66,-24"/>
<polygon fill="black" stroke="black" points="707.66,-20.5 697.66,-24 707.66,-27.5 707.66,-20.5"/>
</g>
<!-- :data:database&#45;&gt;:data:musicbrainz -->
<g id="edge20" class="edge">
<title>:data:database&#45;&gt;:data:musicbrainz</title>
<path fill="none" stroke="black" stroke-dasharray="1,5" d="M871.99,-418.7C871.99,-418.7 871.99,-311.32 871.99,-311.32"/>
<polygon fill="black" stroke="black" points="875.49,-311.32 871.99,-301.32 868.49,-311.32 875.49,-311.32"/>
</g>
<!-- :core:coroutines -->
<g id="node14" class="node">
<title>:core:coroutines</title>
<ellipse fill="#b59aff" stroke="black" cx="1037.84" cy="-155" rx="85.29" ry="18"/>
<text text-anchor="middle" x="1037.84" y="-151.3" font-family="Times,serif" font-size="14.00">:core:coroutines</text>
</g>
<!-- :data:database&#45;&gt;:core:coroutines -->
<g id="edge18" class="edge">
<title>:data:database&#45;&gt;:core:coroutines</title>
<path fill="none" stroke="black" stroke-dasharray="1,5" d="M897.28,-413.48C897.28,-355.52 897.28,-155 897.28,-155 897.28,-155 942.43,-155 942.43,-155"/>
<polygon fill="black" stroke="black" points="942.43,-158.5 952.43,-155 942.43,-151.5 942.43,-158.5"/>
</g>
<!-- :shared:strings -->
<g id="node15" class="node">
<title>:shared:strings</title>
<ellipse fill="#b59aff" stroke="black" cx="222.84" cy="-18" rx="81.49" ry="18"/>
<text text-anchor="middle" x="222.84" y="-14.3" font-family="Times,serif" font-size="14.00">:shared:strings</text>
</g>
<!-- :ui:core&#45;&gt;:shared:strings -->
<g id="edge21" class="edge">
<title>:ui:core&#45;&gt;:shared:strings</title>
<path fill="none" stroke="black" d="M200.09,-139.28C200.09,-139.28 200.09,-45.69 200.09,-45.69"/>
<polygon fill="black" stroke="black" points="203.59,-45.69 200.09,-35.69 196.59,-45.69 203.59,-45.69"/>
</g>
<!-- :ui:core&#45;&gt;:shared:strings -->
<g id="edge24" class="edge">
<title>:ui:core&#45;&gt;:shared:strings</title>
<path fill="none" stroke="black" d="M222.84,-136.81C222.84,-136.81 222.84,-46.27 222.84,-46.27"/>
<polygon fill="black" stroke="black" points="226.34,-46.27 222.84,-36.27 219.34,-46.27 226.34,-46.27"/>
</g>
<!-- :ui:core&#45;&gt;:shared:strings -->
<g id="edge38" class="edge">
<title>:ui:core&#45;&gt;:shared:strings</title>
<path fill="none" stroke="black" d="M245.59,-139.28C245.59,-139.28 245.59,-45.69 245.59,-45.69"/>
<polygon fill="black" stroke="black" points="249.09,-45.69 245.59,-35.69 242.09,-45.69 249.09,-45.69"/>
</g>
<!-- :data:coverart&#45;&gt;:core:models -->
<g id="edge26" class="edge">
<title>:data:coverart&#45;&gt;:core:models</title>
<path fill="none" stroke="black" stroke-dasharray="1,5" d="M591.05,-281.92C591.05,-281.92 591.05,-42.6 591.05,-42.6"/>
<polygon fill="black" stroke="black" points="594.55,-42.6 591.05,-32.6 587.55,-42.6 594.55,-42.6"/>
</g>
<!-- :data:coverart&#45;&gt;:shared:domain -->
<g id="edge27" class="edge">
<title>:data:coverart&#45;&gt;:shared:domain</title>
<path fill="none" stroke="black" stroke-dasharray="1,5" d="M508.59,-274.37C508.59,-274.37 508.59,-182.13 508.59,-182.13"/>
<polygon fill="black" stroke="black" points="512.09,-182.13 508.59,-172.13 505.09,-182.13 512.09,-182.13"/>
</g>
<!-- :data:coverart&#45;&gt;:core:logging:api -->
<g id="edge25" class="edge">
<title>:data:coverart&#45;&gt;:core:logging:api</title>
<path fill="none" stroke="black" stroke-dasharray="1,5" d="M597.47,-284.46C597.47,-254.3 597.47,-144 597.47,-144 597.47,-144 667.5,-144 667.5,-144"/>
<polygon fill="black" stroke="black" points="667.5,-147.5 677.5,-144 667.5,-140.5 667.5,-147.5"/>
</g>
<!-- :data:musicbrainz&#45;&gt;:core:models -->
<g id="edge29" class="edge">
<title>:data:musicbrainz&#45;&gt;:core:models</title>
<path fill="none" stroke="black" stroke-dasharray="1,5" d="M703.49,-298C671.75,-298 643.64,-298 643.64,-298 643.64,-298 643.64,-45.94 643.64,-45.94"/>
<polygon fill="black" stroke="black" points="647.14,-45.94 643.64,-35.94 640.14,-45.94 647.14,-45.94"/>
</g>
<!-- :data:musicbrainz&#45;&gt;:core:models -->
<g id="edge36" class="edge">
<title>:data:musicbrainz&#45;&gt;:core:models</title>
<path fill="none" stroke="black" stroke-dasharray="1,5" d="M703.39,-286C675.37,-286 651.54,-286 651.54,-286 651.54,-286 651.54,-45.58 651.54,-45.58"/>
<polygon fill="black" stroke="black" points="655.04,-45.58 651.54,-35.58 648.04,-45.58 655.04,-45.58"/>
</g>
<!-- :data:musicbrainz&#45;&gt;:core:logging:api -->
<g id="edge28" class="edge">
<title>:data:musicbrainz&#45;&gt;:core:logging:api</title>
<path fill="none" stroke="black" stroke-dasharray="1,5" d="M744.24,-276.28C744.24,-276.28 744.24,-183.13 744.24,-183.13"/>
<polygon fill="black" stroke="black" points="747.74,-183.13 744.24,-173.13 740.74,-183.13 747.74,-183.13"/>
</g>
<!-- :data:musicbrainz&#45;&gt;:core:logging:api -->
<g id="edge35" class="edge">
<title>:data:musicbrainz&#45;&gt;:core:logging:api</title>
<path fill="none" stroke="black" stroke-dasharray="1,5" d="M790.24,-273.81C790.24,-273.81 790.24,-181.13 790.24,-181.13"/>
<polygon fill="black" stroke="black" points="793.74,-181.13 790.24,-171.13 786.74,-181.13 793.74,-181.13"/>
</g>
<!-- :core:preferences&#45;&gt;:core:models -->
<g id="edge31" class="edge">
<title>:core:preferences&#45;&gt;:core:models</title>
<path fill="none" stroke="black" stroke-dasharray="1,5" d="M927.95,-279.61C927.95,-225.42 927.95,-12 927.95,-12 927.95,-12 707.56,-12 707.56,-12"/>
<polygon fill="black" stroke="black" points="707.56,-8.5 697.56,-12 707.56,-15.5 707.56,-8.5"/>
</g>
<!-- :core:preferences&#45;&gt;:core:coroutines -->
<g id="edge30" class="edge">
<title>:core:preferences&#45;&gt;:core:coroutines</title>
<path fill="none" stroke="black" stroke-dasharray="1,5" d="M1019.59,-274.65C1019.59,-274.65 1019.59,-182.64 1019.59,-182.64"/>
<polygon fill="black" stroke="black" points="1023.09,-182.64 1019.59,-172.64 1016.09,-182.64 1023.09,-182.64"/>
</g>
<!-- :ui:image&#45;&gt;:core:models -->
<g id="edge33" class="edge">
<title>:ui:image&#45;&gt;:core:models</title>
<path fill="none" stroke="black" stroke-dasharray="1,5" d="M330.94,-276.08C330.94,-217.61 330.94,-18 330.94,-18 330.94,-18 552.05,-18 552.05,-18"/>
<polygon fill="black" stroke="black" points="552.05,-21.5 562.05,-18 552.05,-14.5 552.05,-21.5"/>
</g>
<!-- :ui:image&#45;&gt;:ui:core -->
<g id="edge34" class="edge">
<title>:ui:image&#45;&gt;:ui:core</title>
<path fill="none" stroke="black" stroke-dasharray="1,5" d="M259.12,-281.7C259.12,-281.7 259.12,-176.18 259.12,-176.18"/>
<polygon fill="black" stroke="black" points="262.62,-176.18 259.12,-166.18 255.62,-176.18 262.62,-176.18"/>
</g>
</g>
</svg>
