<?xml version="1.0" encoding="UTF-8" standalone="no"?>
<!DOCTYPE svg PUBLIC "-//W3C//DTD SVG 1.1//EN"
 "http://www.w3.org/Graphics/SVG/1.1/DTD/svg11.dtd">
<!-- Generated by graphviz version 2.43.0 (0)
 -->
<!-- Title: %3 Pages: 1 -->
<svg width="963pt" height="1077pt"
 viewBox="0.00 0.00 963.23 1077.00" xmlns="http://www.w3.org/2000/svg" xmlns:xlink="http://www.w3.org/1999/xlink">
<g id="graph0" class="graph" transform="scale(1 1) rotate(0) translate(4 1073)">
<title>%3</title>
<polygon fill="white" stroke="transparent" points="-4,4 -4,-1073 959.23,-1073 959.23,4 -4,4"/>
<text text-anchor="middle" x="477.62" y="-1041" font-family="Times,serif" font-size="30.00">Dependencies</text>
<text text-anchor="middle" x="477.62" y="-1008" font-family="Times,serif" font-size="30.00"> </text>
<!-- :shared:feature:stats -->
<g id="node1" class="node">
<title>:shared:feature:stats</title>
<polygon fill="#b59aff" stroke="black" points="334.84,-995 168.84,-995 168.84,-959 334.84,-959 334.84,-995"/>
<text text-anchor="middle" x="251.84" y="-973.3" font-family="Times,serif" font-size="14.00">:shared:feature:stats</text>
</g>
<!-- :ui:test:screenshot -->
<g id="node2" class="node">
<title>:ui:test:screenshot</title>
<ellipse fill="#9affb5" stroke="black" cx="96.84" cy="-703" rx="96.68" ry="18"/>
<text text-anchor="middle" x="96.84" y="-699.3" font-family="Times,serif" font-size="14.00">:ui:test:screenshot</text>
</g>
<!-- :shared:feature:stats&#45;&gt;:ui:test:screenshot -->
<g id="edge1" class="edge">
<title>:shared:feature:stats&#45;&gt;:ui:test:screenshot</title>
<path fill="none" stroke="#ff9ab1" stroke-dasharray="1,5" d="M177.12,-958.6C177.12,-958.6 177.12,-723.33 177.12,-723.33"/>
<polygon fill="#ff9ab1" stroke="#ff9ab1" points="180.62,-723.33 177.12,-713.33 173.62,-723.33 180.62,-723.33"/>
</g>
<!-- :ui:common -->
<g id="node3" class="node">
<title>:ui:common</title>
<ellipse fill="#b59aff" stroke="black" cx="323.84" cy="-840" rx="64.19" ry="18"/>
<text text-anchor="middle" x="323.84" y="-836.3" font-family="Times,serif" font-size="14.00">:ui:common</text>
</g>
<!-- :shared:feature:stats&#45;&gt;:ui:common -->
<g id="edge2" class="edge">
<title>:shared:feature:stats&#45;&gt;:ui:common</title>
<path fill="none" stroke="black" stroke-dasharray="1,5" d="M297.17,-958.81C297.17,-958.81 297.17,-866.55 297.17,-866.55"/>
<polygon fill="black" stroke="black" points="300.67,-866.55 297.17,-856.55 293.67,-866.55 300.67,-866.55"/>
</g>
<!-- :shared:domain -->
<g id="node4" class="node">
<title>:shared:domain</title>
<ellipse fill="#b59aff" stroke="black" cx="406.84" cy="-155" rx="82.59" ry="18"/>
<text text-anchor="middle" x="406.84" y="-151.3" font-family="Times,serif" font-size="14.00">:shared:domain</text>
</g>
<!-- :shared:feature:stats&#45;&gt;:shared:domain -->
<g id="edge3" class="edge">
<title>:shared:feature:stats&#45;&gt;:shared:domain</title>
<path fill="none" stroke="black" stroke-dasharray="1,5" d="M254.7,-958.72C254.7,-908.3 254.7,-771 254.7,-771 254.7,-771 360.73,-771 360.73,-771 360.73,-771 360.73,-180.23 360.73,-180.23"/>
<polygon fill="black" stroke="black" points="364.23,-180.23 360.73,-170.23 357.23,-180.23 364.23,-180.23"/>
</g>
<!-- :data:database -->
<g id="node5" class="node">
<title>:data:database</title>
<ellipse fill="#b59aff" stroke="black" cx="448.84" cy="-429" rx="79.09" ry="18"/>
<text text-anchor="middle" x="448.84" y="-425.3" font-family="Times,serif" font-size="14.00">:data:database</text>
</g>
<!-- :shared:feature:stats&#45;&gt;:data:database -->
<g id="edge4" class="edge">
<title>:shared:feature:stats&#45;&gt;:data:database</title>
<path fill="none" stroke="black" stroke-dasharray="1,5" d="M334.87,-977C392.2,-977 458.16,-977 458.16,-977 458.16,-977 458.16,-456.92 458.16,-456.92"/>
<polygon fill="black" stroke="black" points="461.66,-456.92 458.16,-446.92 454.66,-456.92 461.66,-456.92"/>
</g>
<!-- :ui:core -->
<g id="node6" class="node">
<title>:ui:core</title>
<ellipse fill="#b59aff" stroke="black" cx="221.84" cy="-566" rx="45.49" ry="18"/>
<text text-anchor="middle" x="221.84" y="-562.3" font-family="Times,serif" font-size="14.00">:ui:core</text>
</g>
<!-- :ui:test:screenshot&#45;&gt;:ui:core -->
<g id="edge5" class="edge">
<title>:ui:test:screenshot&#45;&gt;:ui:core</title>
<path fill="none" stroke="black" stroke-dasharray="1,5" d="M185.01,-695.24C185.01,-695.24 185.01,-586.58 185.01,-586.58"/>
<polygon fill="black" stroke="black" points="188.51,-586.58 185.01,-576.58 181.51,-586.58 188.51,-586.58"/>
</g>
<!-- :test:image -->
<g id="node7" class="node">
<title>:test:image</title>
<ellipse fill="#9affb5" stroke="black" cx="94.84" cy="-566" rx="63.09" ry="18"/>
<text text-anchor="middle" x="94.84" y="-562.3" font-family="Times,serif" font-size="14.00">:test:image</text>
</g>
<!-- :ui:test:screenshot&#45;&gt;:test:image -->
<g id="edge6" class="edge">
<title>:ui:test:screenshot&#45;&gt;:test:image</title>
<path fill="none" stroke="black" stroke-dasharray="1,5" d="M94.84,-684.81C94.84,-684.81 94.84,-594.27 94.84,-594.27"/>
<polygon fill="black" stroke="black" points="98.34,-594.27 94.84,-584.27 91.34,-594.27 98.34,-594.27"/>
</g>
<!-- :ui:common&#45;&gt;:ui:test:screenshot -->
<g id="edge8" class="edge">
<title>:ui:common&#45;&gt;:ui:test:screenshot</title>
<path fill="none" stroke="#ff9ab1" stroke-dasharray="1,5" d="M263.12,-846C225.92,-846 185.4,-846 185.4,-846 185.4,-846 185.4,-720.29 185.4,-720.29"/>
<polygon fill="#ff9ab1" stroke="#ff9ab1" points="188.9,-720.29 185.4,-710.29 181.9,-720.29 188.9,-720.29"/>
</g>
<!-- :ui:common&#45;&gt;:shared:domain -->
<g id="edge10" class="edge">
<title>:ui:common&#45;&gt;:shared:domain</title>
<path fill="none" stroke="black" d="M363.67,-825.69C363.67,-825.69 363.67,-180.4 363.67,-180.4"/>
<polygon fill="black" stroke="black" points="367.17,-180.4 363.67,-170.4 360.17,-180.4 367.17,-180.4"/>
</g>
<!-- :ui:common&#45;&gt;:ui:core -->
<g id="edge11" class="edge">
<title>:ui:common&#45;&gt;:ui:core</title>
<path fill="none" stroke="black" d="M263,-834C241.15,-834 221.79,-834 221.79,-834 221.79,-834 221.79,-594 221.79,-594"/>
<polygon fill="black" stroke="black" points="225.29,-594 221.79,-584 218.29,-594 225.29,-594"/>
</g>
<!-- :test&#45;data -->
<g id="node8" class="node">
<title>:test&#45;data</title>
<ellipse fill="#b59aff" stroke="black" cx="645.84" cy="-703" rx="55.49" ry="18"/>
<text text-anchor="middle" x="645.84" y="-699.3" font-family="Times,serif" font-size="14.00">:test&#45;data</text>
</g>
<!-- :ui:common&#45;&gt;:test&#45;data -->
<g id="edge7" class="edge">
<title>:ui:common&#45;&gt;:test&#45;data</title>
<path fill="none" stroke="#ff9ab1" stroke-dasharray="1,5" d="M378.87,-830.58C378.87,-800.54 378.87,-709 378.87,-709 378.87,-709 583.73,-709 583.73,-709"/>
<polygon fill="#ff9ab1" stroke="#ff9ab1" points="583.73,-712.5 593.73,-709 583.73,-705.5 583.73,-712.5"/>
</g>
<!-- :core:coroutines -->
<g id="node9" class="node">
<title>:core:coroutines</title>
<ellipse fill="#b59aff" stroke="black" cx="842.84" cy="-18" rx="85.29" ry="18"/>
<text text-anchor="middle" x="842.84" y="-14.3" font-family="Times,serif" font-size="14.00">:core:coroutines</text>
</g>
<!-- :ui:common&#45;&gt;:core:coroutines -->
<g id="edge9" class="edge">
<title>:ui:common&#45;&gt;:core:coroutines</title>
<path fill="none" stroke="#ff9ab1" stroke-dasharray="1,5" d="M384.67,-846C542.91,-846 955.23,-846 955.23,-846 955.23,-846 955.23,-12 955.23,-12 955.23,-12 933.33,-12 933.33,-12"/>
<polygon fill="#ff9ab1" stroke="#ff9ab1" points="933.33,-8.5 923.33,-12 933.33,-15.5 933.33,-8.5"/>
</g>
<!-- :core:logging:api -->
<g id="node10" class="node">
<title>:core:logging:api</title>
<ellipse fill="#b59aff" stroke="black" cx="842.84" cy="-155" rx="88.28" ry="18"/>
<text text-anchor="middle" x="842.84" y="-151.3" font-family="Times,serif" font-size="14.00">:core:logging:api</text>
</g>
<!-- :ui:common&#45;&gt;:core:logging:api -->
<g id="edge12" class="edge">
<title>:ui:common&#45;&gt;:core:logging:api</title>
<path fill="none" stroke="black" stroke-dasharray="1,5" d="M384.67,-834C533.24,-834 902.48,-834 902.48,-834 902.48,-834 902.48,-178.56 902.48,-178.56"/>
<polygon fill="black" stroke="black" points="905.98,-178.56 902.48,-168.56 898.98,-178.56 905.98,-178.56"/>
</g>
<!-- :ui:image -->
<g id="node11" class="node">
<title>:ui:image</title>
<ellipse fill="#b59aff" stroke="black" cx="303.84" cy="-703" rx="53.89" ry="18"/>
<text text-anchor="middle" x="303.84" y="-699.3" font-family="Times,serif" font-size="14.00">:ui:image</text>
</g>
<!-- :ui:common&#45;&gt;:ui:image -->
<g id="edge13" class="edge">
<title>:ui:common&#45;&gt;:ui:image</title>
<path fill="none" stroke="black" stroke-dasharray="1,5" d="M308.64,-822.37C308.64,-822.37 308.64,-731 308.64,-731"/>
<polygon fill="black" stroke="black" points="312.14,-731 308.64,-721 305.14,-731 312.14,-731"/>
</g>
<!-- :data:database&#45;&gt;:shared:domain -->
<g id="edge14" class="edge">
<title>:data:database&#45;&gt;:shared:domain</title>
<path fill="none" stroke="black" stroke-dasharray="1,5" d="M411.9,-412.68C411.9,-412.68 411.9,-183 411.9,-183"/>
<polygon fill="black" stroke="black" points="415.4,-183 411.9,-173 408.4,-183 415.4,-183"/>
</g>
<!-- :data:database&#45;&gt;:core:coroutines -->
<g id="edge15" class="edge">
<title>:data:database&#45;&gt;:core:coroutines</title>
<path fill="none" stroke="black" stroke-dasharray="1,5" d="M517.8,-420C579.52,-420 660.34,-420 660.34,-420 660.34,-420 660.34,-12 660.34,-12 660.34,-12 752.53,-12 752.53,-12"/>
<polygon fill="black" stroke="black" points="752.53,-15.5 762.53,-12 752.53,-8.5 752.53,-15.5"/>
</g>
<!-- :data:musicbrainz -->
<g id="node12" class="node">
<title>:data:musicbrainz</title>
<ellipse fill="#b59aff" stroke="black" cx="547.84" cy="-292" rx="93.68" ry="18"/>
<text text-anchor="middle" x="547.84" y="-288.3" font-family="Times,serif" font-size="14.00">:data:musicbrainz</text>
</g>
<!-- :data:database&#45;&gt;:data:musicbrainz -->
<g id="edge16" class="edge">
<title>:data:database&#45;&gt;:data:musicbrainz</title>
<path fill="none" stroke="black" stroke-dasharray="1,5" d="M491.19,-413.55C491.19,-413.55 491.19,-316.36 491.19,-316.36"/>
<polygon fill="black" stroke="black" points="494.69,-316.36 491.19,-306.36 487.69,-316.36 494.69,-316.36"/>
</g>
<!-- :shared:strings -->
<g id="node13" class="node">
<title>:shared:strings</title>
<ellipse fill="#b59aff" stroke="black" cx="194.84" cy="-429" rx="81.49" ry="18"/>
<text text-anchor="middle" x="194.84" y="-425.3" font-family="Times,serif" font-size="14.00">:shared:strings</text>
</g>
<!-- :ui:core&#45;&gt;:shared:strings -->
<g id="edge17" class="edge">
<title>:ui:core&#45;&gt;:shared:strings</title>
<path fill="none" stroke="black" d="M221.84,-547.81C221.84,-547.81 221.84,-456.4 221.84,-456.4"/>
<polygon fill="black" stroke="black" points="225.34,-456.4 221.84,-446.4 218.34,-456.4 225.34,-456.4"/>
</g>
<!-- :test&#45;data&#45;&gt;:shared:domain -->
<g id="edge18" class="edge">
<title>:test&#45;data&#45;&gt;:shared:domain</title>
<path fill="none" stroke="black" stroke-dasharray="1,5" d="M593.65,-697C512.83,-697 366.61,-697 366.61,-697 366.61,-697 366.61,-180.93 366.61,-180.93"/>
<polygon fill="black" stroke="black" points="370.11,-180.93 366.61,-170.93 363.11,-180.93 370.11,-180.93"/>
</g>
<!-- :test&#45;data&#45;&gt;:data:database -->
<g id="edge20" class="edge">
<title>:test&#45;data&#45;&gt;:data:database</title>
<path fill="none" stroke="black" stroke-dasharray="1,5" d="M601,-692.28C601,-642.71 601,-438 601,-438 601,-438 527.8,-438 527.8,-438"/>
<polygon fill="black" stroke="black" points="527.8,-434.5 517.8,-438 527.8,-441.5 527.8,-434.5"/>
</g>
<!-- :test&#45;data&#45;&gt;:core:coroutines -->
<g id="edge19" class="edge">
<title>:test&#45;data&#45;&gt;:core:coroutines</title>
<path fill="none" stroke="black" stroke-dasharray="1,5" d="M697.98,-709C783.27,-709 943.23,-709 943.23,-709 943.23,-709 943.23,-24 943.23,-24 943.23,-24 933.4,-24 933.4,-24"/>
<polygon fill="black" stroke="black" points="933.4,-20.5 923.4,-24 933.4,-27.5 933.4,-20.5"/>
</g>
<!-- :test&#45;data&#45;&gt;:data:musicbrainz -->
<g id="edge21" class="edge">
<title>:test&#45;data&#45;&gt;:data:musicbrainz</title>
<path fill="none" stroke="black" stroke-dasharray="1,5" d="M611.4,-688.85C611.4,-688.85 611.4,-315.25 611.4,-315.25"/>
<polygon fill="black" stroke="black" points="614.9,-315.25 611.4,-305.25 607.9,-315.25 614.9,-315.25"/>
</g>
<!-- :data:coverart -->
<g id="node14" class="node">
<title>:data:coverart</title>
<ellipse fill="#b59aff" stroke="black" cx="697.84" cy="-566" rx="76.09" ry="18"/>
<text text-anchor="middle" x="697.84" y="-562.3" font-family="Times,serif" font-size="14.00">:data:coverart</text>
</g>
<!-- :test&#45;data&#45;&gt;:data:coverart -->
<g id="edge22" class="edge">
<title>:test&#45;data&#45;&gt;:data:coverart</title>
<path fill="none" stroke="black" stroke-dasharray="1,5" d="M648.23,-684.81C648.23,-684.81 648.23,-589.71 648.23,-589.71"/>
<polygon fill="black" stroke="black" points="651.73,-589.71 648.23,-579.71 644.73,-589.71 651.73,-589.71"/>
</g>
<!-- :data:spotify -->
<g id="node15" class="node">
<title>:data:spotify</title>
<ellipse fill="#b59aff" stroke="black" cx="804.84" cy="-292" rx="68.79" ry="18"/>
<text text-anchor="middle" x="804.84" y="-288.3" font-family="Times,serif" font-size="14.00">:data:spotify</text>
</g>
<!-- :test&#45;data&#45;&gt;:data:spotify -->
<g id="edge23" class="edge">
<title>:test&#45;data&#45;&gt;:data:spotify</title>
<path fill="none" stroke="black" stroke-dasharray="1,5" d="M698.28,-697C750.77,-697 823.81,-697 823.81,-697 823.81,-697 823.81,-319.4 823.81,-319.4"/>
<polygon fill="black" stroke="black" points="827.31,-319.4 823.81,-309.4 820.31,-319.4 827.31,-319.4"/>
</g>
<!-- :core:logging:api&#45;&gt;:core:coroutines -->
<g id="edge24" class="edge">
<title>:core:logging:api&#45;&gt;:core:coroutines</title>
<path fill="none" stroke="black" d="M842.84,-136.81C842.84,-136.81 842.84,-46.27 842.84,-46.27"/>
<polygon fill="black" stroke="black" points="846.34,-46.27 842.84,-36.27 839.34,-46.27 846.34,-46.27"/>
</g>
<!-- :ui:image&#45;&gt;:shared:domain -->
<g id="edge25" class="edge">
<title>:ui:image&#45;&gt;:shared:domain</title>
<path fill="none" stroke="black" stroke-dasharray="1,5" d="M341.04,-689.73C341.04,-689.73 341.04,-176.22 341.04,-176.22"/>
<polygon fill="black" stroke="black" points="344.54,-176.22 341.04,-166.22 337.54,-176.22 344.54,-176.22"/>
</g>
<!-- :ui:image&#45;&gt;:ui:core -->
<g id="edge26" class="edge">
<title>:ui:image&#45;&gt;:ui:core</title>
<path fill="none" stroke="black" stroke-dasharray="1,5" d="M258.62,-693.15C258.62,-693.15 258.62,-586.89 258.62,-586.89"/>
<polygon fill="black" stroke="black" points="262.12,-586.89 258.62,-576.89 255.12,-586.89 262.12,-586.89"/>
</g>
<!-- :data:musicbrainz&#45;&gt;:shared:domain -->
<g id="edge27" class="edge">
<title>:data:musicbrainz&#45;&gt;:shared:domain</title>
<path fill="none" stroke="black" stroke-dasharray="1,5" d="M471.82,-281.25C471.82,-281.25 471.82,-176.47 471.82,-176.47"/>
<polygon fill="black" stroke="black" points="475.32,-176.47 471.82,-166.47 468.32,-176.47 475.32,-176.47"/>
</g>
<!-- :data:musicbrainz&#45;&gt;:core:logging:api -->
<g id="edge28" class="edge">
<title>:data:musicbrainz&#45;&gt;:core:logging:api</title>
<path fill="none" stroke="black" stroke-dasharray="1,5" d="M565.41,-274.15C565.41,-234.78 565.41,-144 565.41,-144 565.41,-144 762.83,-144 762.83,-144"/>
<polygon fill="black" stroke="black" points="762.83,-147.5 772.83,-144 762.83,-140.5 762.83,-147.5"/>
</g>
<!-- :data:coverart&#45;&gt;:shared:domain -->
<g id="edge29" class="edge">
<title>:data:coverart&#45;&gt;:shared:domain</title>
<path fill="none" stroke="black" stroke-dasharray="1,5" d="M679.24,-548.51C679.24,-471.33 679.24,-165 679.24,-165 679.24,-165 485.58,-165 485.58,-165"/>
<polygon fill="black" stroke="black" points="485.58,-161.5 475.58,-165 485.58,-168.5 485.58,-161.5"/>
</g>
<!-- :data:coverart&#45;&gt;:data:database -->
<g id="edge34" class="edge">
<title>:data:coverart&#45;&gt;:data:database</title>
<path fill="none" stroke="#ff9ab1" stroke-dasharray="1,5" d="M628.34,-558.63C628.34,-530.18 628.34,-429 628.34,-429 628.34,-429 538.36,-429 538.36,-429"/>
<polygon fill="#ff9ab1" stroke="#ff9ab1" points="538.36,-425.5 528.36,-429 538.36,-432.5 538.36,-425.5"/>
</g>
<!-- :data:coverart&#45;&gt;:test&#45;data -->
<g id="edge32" class="edge">
<title>:data:coverart&#45;&gt;:test&#45;data</title>
<path fill="none" stroke="#ff9ab1" stroke-dasharray="1,5" d="M674.66,-583.35C674.66,-583.35 674.66,-677.48 674.66,-677.48"/>
<polygon fill="#ff9ab1" stroke="#ff9ab1" points="671.16,-677.48 674.66,-687.48 678.16,-677.48 671.16,-677.48"/>
</g>
<!-- :data:coverart&#45;&gt;:core:coroutines -->
<g id="edge31" class="edge">
<title>:data:coverart&#45;&gt;:core:coroutines</title>
<path fill="none" stroke="black" stroke-dasharray="1,5" d="M698.14,-547.97C698.14,-453.92 698.14,-24 698.14,-24 698.14,-24 752.45,-24 752.45,-24"/>
<polygon fill="black" stroke="black" points="752.45,-27.5 762.45,-24 752.45,-20.5 752.45,-27.5"/>
</g>
<!-- :data:coverart&#45;&gt;:core:logging:api -->
<g id="edge30" class="edge">
<title>:data:coverart&#45;&gt;:core:logging:api</title>
<path fill="none" stroke="black" stroke-dasharray="1,5" d="M717.04,-548.47C717.04,-470.38 717.04,-158 717.04,-158 717.04,-158 745.47,-158 745.47,-158"/>
<polygon fill="black" stroke="black" points="745.47,-161.5 755.47,-158 745.47,-154.5 745.47,-161.5"/>
</g>
<!-- :data:coverart&#45;&gt;:data:musicbrainz -->
<g id="edge33" class="edge">
<title>:data:coverart&#45;&gt;:data:musicbrainz</title>
<path fill="none" stroke="#ff9ab1" stroke-dasharray="1,5" d="M634.89,-555.59C634.89,-555.59 634.89,-308.68 634.89,-308.68"/>
<polygon fill="#ff9ab1" stroke="#ff9ab1" points="638.39,-308.68 634.89,-298.68 631.39,-308.68 638.39,-308.68"/>
</g>
<!-- :data:spotify&#45;&gt;:shared:domain -->
<g id="edge35" class="edge">
<title>:data:spotify&#45;&gt;:shared:domain</title>
<path fill="none" stroke="black" stroke-dasharray="1,5" d="M745.2,-282.75C745.2,-251.38 745.2,-151 745.2,-151 745.2,-151 497.46,-151 497.46,-151"/>
<polygon fill="black" stroke="black" points="497.46,-147.5 487.46,-151 497.46,-154.5 497.46,-147.5"/>
</g>
<!-- :data:spotify&#45;&gt;:core:logging:api -->
<g id="edge36" class="edge">
<title>:data:spotify&#45;&gt;:core:logging:api</title>
<path fill="none" stroke="black" stroke-dasharray="1,5" d="M814.09,-274.09C814.09,-274.09 814.09,-182.05 814.09,-182.05"/>
<polygon fill="black" stroke="black" points="817.59,-182.05 814.09,-172.05 810.59,-182.05 817.59,-182.05"/>
</g>
</g>
</svg>
