<?xml version="1.0" encoding="UTF-8" standalone="no"?>
<!DOCTYPE svg PUBLIC "-//W3C//DTD SVG 1.1//EN"
 "http://www.w3.org/Graphics/SVG/1.1/DTD/svg11.dtd">
<!-- Generated by graphviz version 2.43.0 (0)
 -->
<!-- Title: %3 Pages: 1 -->
<svg width="1316pt" height="666pt"
 viewBox="0.00 0.00 1315.98 666.00" xmlns="http://www.w3.org/2000/svg" xmlns:xlink="http://www.w3.org/1999/xlink">
<g id="graph0" class="graph" transform="scale(1 1) rotate(0) translate(4 662)">
<title>%3</title>
<polygon fill="white" stroke="transparent" points="-4,4 -4,-662 1311.98,-662 1311.98,4 -4,4"/>
<text text-anchor="middle" x="653.99" y="-630" font-family="Times,serif" font-size="30.00">Dependencies</text>
<text text-anchor="middle" x="653.99" y="-597" font-family="Times,serif" font-size="30.00"> </text>
<!-- :shared:feature:stats -->
<g id="node1" class="node">
<title>:shared:feature:stats</title>
<polygon fill="#b59aff" stroke="black" points="815.14,-584 649.14,-584 649.14,-548 815.14,-548 815.14,-584"/>
<text text-anchor="middle" x="732.14" y="-562.3" font-family="Times,serif" font-size="14.00">:shared:feature:stats</text>
</g>
<!-- :ui:test:screenshot -->
<g id="node2" class="node">
<title>:ui:test:screenshot</title>
<ellipse fill="#9affb5" stroke="black" cx="1211.14" cy="-292" rx="96.68" ry="18"/>
<text text-anchor="middle" x="1211.14" y="-288.3" font-family="Times,serif" font-size="14.00">:ui:test:screenshot</text>
</g>
<!-- :shared:feature:stats&#45;&gt;:ui:test:screenshot -->
<g id="edge1" class="edge">
<title>:shared:feature:stats&#45;&gt;:ui:test:screenshot</title>
<path fill="none" stroke="#ff9ab1" stroke-dasharray="1,5" d="M815.43,-576C960.3,-576 1243.42,-576 1243.42,-576 1243.42,-576 1243.42,-319.34 1243.42,-319.34"/>
<polygon fill="#ff9ab1" stroke="#ff9ab1" points="1246.92,-319.34 1243.42,-309.34 1239.92,-319.34 1246.92,-319.34"/>
</g>
<!-- :core:models -->
<g id="node3" class="node">
<title>:core:models</title>
<ellipse fill="#b59aff" stroke="black" cx="378.14" cy="-18" rx="69.59" ry="18"/>
<text text-anchor="middle" x="378.14" y="-14.3" font-family="Times,serif" font-size="14.00">:core:models</text>
</g>
<!-- :shared:feature:stats&#45;&gt;:core:models -->
<g id="edge2" class="edge">
<title>:shared:feature:stats&#45;&gt;:core:models</title>
<path fill="none" stroke="black" stroke-dasharray="1,5" d="M815.16,-555C866.26,-555 922.04,-555 922.04,-555 922.04,-555 922.04,-12 922.04,-12 922.04,-12 453.75,-12 453.75,-12"/>
<polygon fill="black" stroke="black" points="453.75,-8.5 443.75,-12 453.75,-15.5 453.75,-8.5"/>
</g>
<!-- :ui:common -->
<g id="node4" class="node">
<title>:ui:common</title>
<ellipse fill="#b59aff" stroke="black" cx="732.14" cy="-429" rx="64.19" ry="18"/>
<text text-anchor="middle" x="732.14" y="-425.3" font-family="Times,serif" font-size="14.00">:ui:common</text>
</g>
<!-- :shared:feature:stats&#45;&gt;:ui:common -->
<g id="edge3" class="edge">
<title>:shared:feature:stats&#45;&gt;:ui:common</title>
<path fill="none" stroke="black" stroke-dasharray="1,5" d="M732.14,-547.81C732.14,-547.81 732.14,-457.27 732.14,-457.27"/>
<polygon fill="black" stroke="black" points="735.64,-457.27 732.14,-447.27 728.64,-457.27 735.64,-457.27"/>
</g>
<!-- :shared:domain -->
<g id="node5" class="node">
<title>:shared:domain</title>
<ellipse fill="#b59aff" stroke="black" cx="605.14" cy="-155" rx="82.59" ry="18"/>
<text text-anchor="middle" x="605.14" y="-151.3" font-family="Times,serif" font-size="14.00">:shared:domain</text>
</g>
<!-- :shared:feature:stats&#45;&gt;:shared:domain -->
<g id="edge4" class="edge">
<title>:shared:feature:stats&#45;&gt;:shared:domain</title>
<path fill="none" stroke="black" stroke-dasharray="1,5" d="M661.58,-547.81C661.58,-547.81 661.58,-178.21 661.58,-178.21"/>
<polygon fill="black" stroke="black" points="665.08,-178.21 661.58,-168.21 658.08,-178.21 665.08,-178.21"/>
</g>
<!-- :data:database -->
<g id="node6" class="node">
<title>:data:database</title>
<ellipse fill="#b59aff" stroke="black" cx="164.14" cy="-429" rx="79.09" ry="18"/>
<text text-anchor="middle" x="164.14" y="-425.3" font-family="Times,serif" font-size="14.00">:data:database</text>
</g>
<!-- :shared:feature:stats&#45;&gt;:data:database -->
<g id="edge5" class="edge">
<title>:shared:feature:stats&#45;&gt;:data:database</title>
<path fill="none" stroke="black" stroke-dasharray="1,5" d="M655.36,-547.93C655.36,-512.65 655.36,-438 655.36,-438 655.36,-438 242.96,-438 242.96,-438"/>
<polygon fill="black" stroke="black" points="242.96,-434.5 232.96,-438 242.96,-441.5 242.96,-434.5"/>
</g>
<!-- :ui:core -->
<g id="node7" class="node">
<title>:ui:core</title>
<ellipse fill="#b59aff" stroke="black" cx="1148.14" cy="-155" rx="45.49" ry="18"/>
<text text-anchor="middle" x="1148.14" y="-151.3" font-family="Times,serif" font-size="14.00">:ui:core</text>
</g>
<!-- :shared:feature:stats&#45;&gt;:ui:core -->
<g id="edge6" class="edge">
<title>:shared:feature:stats&#45;&gt;:ui:core</title>
<path fill="none" stroke="black" stroke-dasharray="1,5" d="M815.37,-569C927.01,-569 1111.39,-569 1111.39,-569 1111.39,-569 1111.39,-175.65 1111.39,-175.65"/>
<polygon fill="black" stroke="black" points="1114.89,-175.65 1111.39,-165.65 1107.89,-175.65 1114.89,-175.65"/>
</g>
<!-- :shared:strings -->
<g id="node8" class="node">
<title>:shared:strings</title>
<ellipse fill="#b59aff" stroke="black" cx="1148.14" cy="-18" rx="81.49" ry="18"/>
<text text-anchor="middle" x="1148.14" y="-14.3" font-family="Times,serif" font-size="14.00">:shared:strings</text>
</g>
<!-- :shared:feature:stats&#45;&gt;:shared:strings -->
<g id="edge7" class="edge">
<title>:shared:feature:stats&#45;&gt;:shared:strings</title>
<path fill="none" stroke="black" stroke-dasharray="1,5" d="M815.31,-562C921.24,-562 1090.73,-562 1090.73,-562 1090.73,-562 1090.73,-40.91 1090.73,-40.91"/>
<polygon fill="black" stroke="black" points="1094.23,-40.91 1090.73,-30.91 1087.23,-40.91 1094.23,-40.91"/>
</g>
<!-- :ui:test:screenshot&#45;&gt;:ui:core -->
<g id="edge8" class="edge">
<title>:ui:test:screenshot&#45;&gt;:ui:core</title>
<path fill="none" stroke="black" stroke-dasharray="1,5" d="M1153.97,-277.34C1153.97,-277.34 1153.97,-183.01 1153.97,-183.01"/>
<polygon fill="black" stroke="black" points="1157.47,-183.01 1153.97,-173.01 1150.47,-183.01 1157.47,-183.01"/>
</g>
<!-- :ui:common&#45;&gt;:ui:test:screenshot -->
<g id="edge10" class="edge">
<title>:ui:common&#45;&gt;:ui:test:screenshot</title>
<path fill="none" stroke="#ff9ab1" stroke-dasharray="1,5" d="M786.03,-439C904.84,-439 1178.86,-439 1178.86,-439 1178.86,-439 1178.86,-319.15 1178.86,-319.15"/>
<polygon fill="#ff9ab1" stroke="#ff9ab1" points="1182.36,-319.15 1178.86,-309.15 1175.36,-319.15 1182.36,-319.15"/>
</g>
<!-- :ui:common&#45;&gt;:core:models -->
<g id="edge11" class="edge">
<title>:ui:common&#45;&gt;:core:models</title>
<path fill="none" stroke="black" d="M716.04,-411.34C716.04,-332.67 716.04,-18 716.04,-18 716.04,-18 457.75,-18 457.75,-18"/>
<polygon fill="black" stroke="black" points="457.75,-14.5 447.75,-18 457.75,-21.5 457.75,-14.5"/>
</g>
<!-- :ui:common&#45;&gt;:shared:domain -->
<g id="edge16" class="edge">
<title>:ui:common&#45;&gt;:shared:domain</title>
<path fill="none" stroke="black" stroke-dasharray="1,5" d="M682.71,-417.23C682.71,-417.23 682.71,-171.57 682.71,-171.57"/>
<polygon fill="black" stroke="black" points="686.21,-171.57 682.71,-161.57 679.21,-171.57 686.21,-171.57"/>
</g>
<!-- :ui:common&#45;&gt;:ui:core -->
<g id="edge18" class="edge">
<title>:ui:common&#45;&gt;:ui:core</title>
<path fill="none" stroke="black" stroke-dasharray="1,5" d="M795.98,-432C903.35,-432 1108.47,-432 1108.47,-432 1108.47,-432 1108.47,-173.9 1108.47,-173.9"/>
<polygon fill="black" stroke="black" points="1111.97,-173.9 1108.47,-163.9 1104.97,-173.9 1111.97,-173.9"/>
</g>
<!-- :ui:common&#45;&gt;:shared:strings -->
<g id="edge17" class="edge">
<title>:ui:common&#45;&gt;:shared:strings</title>
<path fill="none" stroke="black" stroke-dasharray="1,5" d="M794.92,-425C894.82,-425 1078.82,-425 1078.82,-425 1078.82,-425 1078.82,-37.66 1078.82,-37.66"/>
<polygon fill="black" stroke="black" points="1082.32,-37.66 1078.82,-27.66 1075.32,-37.66 1082.32,-37.66"/>
</g>
<!-- :ui:test:image -->
<g id="node9" class="node">
<title>:ui:test:image</title>
<ellipse fill="#9affb5" stroke="black" cx="819.14" cy="-292" rx="74.99" ry="18"/>
<text text-anchor="middle" x="819.14" y="-288.3" font-family="Times,serif" font-size="14.00">:ui:test:image</text>
</g>
<!-- :ui:common&#45;&gt;:ui:test:image -->
<g id="edge9" class="edge">
<title>:ui:common&#45;&gt;:ui:test:image</title>
<path fill="none" stroke="#ff9ab1" stroke-dasharray="1,5" d="M770.44,-414.34C770.44,-414.34 770.44,-315.74 770.44,-315.74"/>
<polygon fill="#ff9ab1" stroke="#ff9ab1" points="773.94,-315.74 770.44,-305.74 766.94,-315.74 773.94,-315.74"/>
</g>
<!-- :data:coverart -->
<g id="node10" class="node">
<title>:data:coverart</title>
<ellipse fill="#b59aff" stroke="black" cx="536.14" cy="-292" rx="76.09" ry="18"/>
<text text-anchor="middle" x="536.14" y="-288.3" font-family="Times,serif" font-size="14.00">:data:coverart</text>
</g>
<!-- :ui:common&#45;&gt;:data:coverart -->
<g id="edge12" class="edge">
<title>:ui:common&#45;&gt;:data:coverart</title>
<path fill="none" stroke="black" stroke-dasharray="1,5" d="M677.74,-419.15C677.74,-387.73 677.74,-292 677.74,-292 677.74,-292 622.33,-292 622.33,-292"/>
<polygon fill="black" stroke="black" points="622.33,-288.5 612.33,-292 622.33,-295.5 622.33,-288.5"/>
</g>
<!-- :data:musicbrainz -->
<g id="node11" class="node">
<title>:data:musicbrainz</title>
<ellipse fill="#b59aff" stroke="black" cx="310.14" cy="-292" rx="93.68" ry="18"/>
<text text-anchor="middle" x="310.14" y="-288.3" font-family="Times,serif" font-size="14.00">:data:musicbrainz</text>
</g>
<!-- :ui:common&#45;&gt;:data:musicbrainz -->
<g id="edge13" class="edge">
<title>:ui:common&#45;&gt;:data:musicbrainz</title>
<path fill="none" stroke="black" stroke-dasharray="1,5" d="M667.41,-429C552.2,-429 323.58,-429 323.58,-429 323.58,-429 323.58,-319.91 323.58,-319.91"/>
<polygon fill="black" stroke="black" points="327.08,-319.91 323.58,-309.91 320.08,-319.91 327.08,-319.91"/>
</g>
<!-- :core:preferences -->
<g id="node12" class="node">
<title>:core:preferences</title>
<ellipse fill="#b59aff" stroke="black" cx="107.14" cy="-292" rx="91.78" ry="18"/>
<text text-anchor="middle" x="107.14" y="-288.3" font-family="Times,serif" font-size="14.00">:core:preferences</text>
</g>
<!-- :ui:common&#45;&gt;:core:preferences -->
<g id="edge14" class="edge">
<title>:ui:common&#45;&gt;:core:preferences</title>
<path fill="none" stroke="black" stroke-dasharray="1,5" d="M672.77,-421.88C672.77,-404.25 672.77,-360 672.77,-360 672.77,-360 141.82,-360 141.82,-360 141.82,-360 141.82,-318.81 141.82,-318.81"/>
<polygon fill="black" stroke="black" points="145.32,-318.81 141.82,-308.81 138.32,-318.81 145.32,-318.81"/>
</g>
<!-- :core:logging:api -->
<g id="node13" class="node">
<title>:core:logging:api</title>
<ellipse fill="#b59aff" stroke="black" cx="378.14" cy="-155" rx="88.28" ry="18"/>
<text text-anchor="middle" x="378.14" y="-151.3" font-family="Times,serif" font-size="14.00">:core:logging:api</text>
</g>
<!-- :ui:common&#45;&gt;:core:logging:api -->
<g id="edge15" class="edge">
<title>:ui:common&#45;&gt;:core:logging:api</title>
<path fill="none" stroke="black" stroke-dasharray="1,5" d="M676.07,-420C586.85,-420 422.52,-420 422.52,-420 422.52,-420 422.52,-180.78 422.52,-180.78"/>
<polygon fill="black" stroke="black" points="426.02,-180.78 422.52,-170.78 419.02,-180.78 426.02,-180.78"/>
</g>
<!-- :ui:image -->
<g id="node14" class="node">
<title>:ui:image</title>
<ellipse fill="#b59aff" stroke="black" cx="1004.14" cy="-292" rx="53.89" ry="18"/>
<text text-anchor="middle" x="1004.14" y="-288.3" font-family="Times,serif" font-size="14.00">:ui:image</text>
</g>
<!-- :ui:common&#45;&gt;:ui:image -->
<g id="edge19" class="edge">
<title>:ui:common&#45;&gt;:ui:image</title>
<path fill="none" stroke="black" stroke-dasharray="1,5" d="M783.3,-418C862.1,-418 1004.14,-418 1004.14,-418 1004.14,-418 1004.14,-320.05 1004.14,-320.05"/>
<polygon fill="black" stroke="black" points="1007.64,-320.05 1004.14,-310.05 1000.64,-320.05 1007.64,-320.05"/>
</g>
<!-- :shared:domain&#45;&gt;:core:models -->
<g id="edge20" class="edge">
<title>:shared:domain&#45;&gt;:core:models</title>
<path fill="none" stroke="black" stroke-dasharray="1,5" d="M605.14,-136.79C605.14,-100.79 605.14,-24 605.14,-24 605.14,-24 453.8,-24 453.8,-24"/>
<polygon fill="black" stroke="black" points="453.8,-20.5 443.8,-24 453.8,-27.5 453.8,-20.5"/>
</g>
<!-- :data:database&#45;&gt;:core:models -->
<g id="edge22" class="edge">
<title>:data:database&#45;&gt;:core:models</title>
<path fill="none" stroke="black" stroke-dasharray="1,5" d="M210.63,-414.37C210.63,-341.16 210.63,-18 210.63,-18 210.63,-18 298.56,-18 298.56,-18"/>
<polygon fill="black" stroke="black" points="298.56,-21.5 308.56,-18 298.56,-14.5 298.56,-21.5"/>
</g>
<!-- :data:database&#45;&gt;:data:musicbrainz -->
<g id="edge23" class="edge">
<title>:data:database&#45;&gt;:data:musicbrainz</title>
<path fill="none" stroke="black" stroke-dasharray="1,5" d="M229.99,-418.7C229.99,-418.7 229.99,-311.32 229.99,-311.32"/>
<polygon fill="black" stroke="black" points="233.49,-311.32 229.99,-301.32 226.49,-311.32 233.49,-311.32"/>
</g>
<!-- :core:coroutines -->
<g id="node15" class="node">
<title>:core:coroutines</title>
<ellipse fill="#b59aff" stroke="black" cx="85.14" cy="-155" rx="85.29" ry="18"/>
<text text-anchor="middle" x="85.14" y="-151.3" font-family="Times,serif" font-size="14.00">:core:coroutines</text>
</g>
<!-- :data:database&#45;&gt;:core:coroutines -->
<g id="edge21" class="edge">
<title>:data:database&#45;&gt;:core:coroutines</title>
<path fill="none" stroke="black" stroke-dasharray="1,5" d="M204.71,-413.48C204.71,-355.52 204.71,-155 204.71,-155 204.71,-155 180.44,-155 180.44,-155"/>
<polygon fill="black" stroke="black" points="180.44,-151.5 170.44,-155 180.44,-158.5 180.44,-151.5"/>
</g>
<!-- :ui:core&#45;&gt;:shared:strings -->
<g id="edge24" class="edge">
<title>:ui:core&#45;&gt;:shared:strings</title>
<path fill="none" stroke="black" d="M1148.14,-136.81C1148.14,-136.81 1148.14,-46.27 1148.14,-46.27"/>
<polygon fill="black" stroke="black" points="1151.64,-46.27 1148.14,-36.27 1144.64,-46.27 1151.64,-46.27"/>
</g>
<!-- :data:coverart&#45;&gt;:core:models -->
<g id="edge26" class="edge">
<title>:data:coverart&#45;&gt;:core:models</title>
<path fill="none" stroke="black" stroke-dasharray="1,5" d="M494.57,-276.78C494.57,-220.86 494.57,-30 494.57,-30 494.57,-30 440.23,-30 440.23,-30"/>
<polygon fill="black" stroke="black" points="440.23,-26.5 430.23,-30 440.23,-33.5 440.23,-26.5"/>
</g>
<!-- :data:coverart&#45;&gt;:shared:domain -->
<g id="edge27" class="edge">
<title>:data:coverart&#45;&gt;:shared:domain</title>
<path fill="none" stroke="black" stroke-dasharray="1,5" d="M567.39,-275.47C567.39,-275.47 567.39,-181.16 567.39,-181.16"/>
<polygon fill="black" stroke="black" points="570.89,-181.16 567.39,-171.16 563.89,-181.16 570.89,-181.16"/>
</g>
<!-- :data:coverart&#45;&gt;:core:logging:api -->
<g id="edge25" class="edge">
<title>:data:coverart&#45;&gt;:core:logging:api</title>
<path fill="none" stroke="black" stroke-dasharray="1,5" d="M460.05,-292C449.02,-292 441.31,-292 441.31,-292 441.31,-292 441.31,-177.64 441.31,-177.64"/>
<polygon fill="black" stroke="black" points="444.81,-177.64 441.31,-167.64 437.81,-177.64 444.81,-177.64"/>
</g>
<!-- :data:musicbrainz&#45;&gt;:core:models -->
<g id="edge29" class="edge">
<title>:data:musicbrainz&#45;&gt;:core:models</title>
<path fill="none" stroke="black" stroke-dasharray="1,5" d="M253.15,-277.37C253.15,-221.82 253.15,-27 253.15,-27 253.15,-27 307.84,-27 307.84,-27"/>
<polygon fill="black" stroke="black" points="307.84,-30.5 317.84,-27 307.84,-23.5 307.84,-30.5"/>
</g>
<!-- :data:musicbrainz&#45;&gt;:core:logging:api -->
<g id="edge28" class="edge">
<title>:data:musicbrainz&#45;&gt;:core:logging:api</title>
<path fill="none" stroke="black" stroke-dasharray="1,5" d="M346.74,-275.2C346.74,-275.2 346.74,-181.94 346.74,-181.94"/>
<polygon fill="black" stroke="black" points="350.24,-181.94 346.74,-171.94 343.24,-181.94 350.24,-181.94"/>
</g>
<!-- :core:preferences&#45;&gt;:core:models -->
<g id="edge31" class="edge">
<title>:core:preferences&#45;&gt;:core:models</title>
<path fill="none" stroke="black" stroke-dasharray="1,5" d="M184.53,-282.26C184.53,-232.5 184.53,-9 184.53,-9 184.53,-9 307.68,-9 307.68,-9"/>
<polygon fill="black" stroke="black" points="307.68,-12.5 317.68,-9 307.68,-5.5 307.68,-12.5"/>
</g>
<!-- :core:preferences&#45;&gt;:core:coroutines -->
<g id="edge30" class="edge">
<title>:core:preferences&#45;&gt;:core:coroutines</title>
<path fill="none" stroke="black" stroke-dasharray="1,5" d="M92.89,-274.09C92.89,-274.09 92.89,-183.35 92.89,-183.35"/>
<polygon fill="black" stroke="black" points="96.39,-183.35 92.89,-173.35 89.39,-183.35 96.39,-183.35"/>
</g>
<!-- :ui:image&#45;&gt;:core:models -->
<g id="edge32" class="edge">
<title>:ui:image&#45;&gt;:core:models</title>
<path fill="none" stroke="black" stroke-dasharray="1,5" d="M1004.14,-273.61C1004.14,-210.27 1004.14,-5 1004.14,-5 1004.14,-5 436.48,-5 436.48,-5"/>
<polygon fill="black" stroke="black" points="436.48,-1.5 426.48,-5 436.48,-8.5 436.48,-1.5"/>
</g>
<!-- :ui:image&#45;&gt;:ui:core -->
<g id="edge33" class="edge">
<title>:ui:image&#45;&gt;:ui:core</title>
<path fill="none" stroke="black" stroke-dasharray="1,5" d="M1058.12,-292C1082.34,-292 1105.56,-292 1105.56,-292 1105.56,-292 1105.56,-171.61 1105.56,-171.61"/>
<polygon fill="black" stroke="black" points="1109.06,-171.61 1105.56,-161.61 1102.06,-171.61 1109.06,-171.61"/>
</g>
</g>
</svg>
