<?xml version="1.0" encoding="UTF-8" standalone="no"?>
<!DOCTYPE svg PUBLIC "-//W3C//DTD SVG 1.1//EN"
 "http://www.w3.org/Graphics/SVG/1.1/DTD/svg11.dtd">
<!-- Generated by graphviz version 2.43.0 (0)
 -->
<!-- Title: %3 Pages: 1 -->
<svg width="1130pt" height="666pt"
 viewBox="0.00 0.00 1129.98 666.00" xmlns="http://www.w3.org/2000/svg" xmlns:xlink="http://www.w3.org/1999/xlink">
<g id="graph0" class="graph" transform="scale(1 1) rotate(0) translate(4 662)">
<title>%3</title>
<polygon fill="white" stroke="transparent" points="-4,4 -4,-662 1125.98,-662 1125.98,4 -4,4"/>
<text text-anchor="middle" x="560.99" y="-630" font-family="Times,serif" font-size="30.00">Dependencies</text>
<text text-anchor="middle" x="560.99" y="-597" font-family="Times,serif" font-size="30.00"> </text>
<!-- :shared:feature:stats -->
<g id="node1" class="node">
<title>:shared:feature:stats</title>
<polygon fill="#b59aff" stroke="black" points="746.84,-584 580.84,-584 580.84,-548 746.84,-548 746.84,-584"/>
<text text-anchor="middle" x="663.84" y="-562.3" font-family="Times,serif" font-size="14.00">:shared:feature:stats</text>
</g>
<!-- :ui:test:screenshot -->
<g id="node2" class="node">
<title>:ui:test:screenshot</title>
<ellipse fill="#9affb5" stroke="black" cx="96.84" cy="-292" rx="96.68" ry="18"/>
<text text-anchor="middle" x="96.84" y="-288.3" font-family="Times,serif" font-size="14.00">:ui:test:screenshot</text>
</g>
<!-- :shared:feature:stats&#45;&gt;:ui:test:screenshot -->
<g id="edge1" class="edge">
<title>:shared:feature:stats&#45;&gt;:ui:test:screenshot</title>
<path fill="none" stroke="#ff9ab1" stroke-dasharray="1,5" d="M580.83,-566C416.3,-566 64.56,-566 64.56,-566 64.56,-566 64.56,-319.14 64.56,-319.14"/>
<polygon fill="#ff9ab1" stroke="#ff9ab1" points="68.06,-319.14 64.56,-309.14 61.06,-319.14 68.06,-319.14"/>
</g>
<!-- :ui:common -->
<g id="node3" class="node">
<title>:ui:common</title>
<ellipse fill="#b59aff" stroke="black" cx="489.84" cy="-429" rx="64.19" ry="18"/>
<text text-anchor="middle" x="489.84" y="-425.3" font-family="Times,serif" font-size="14.00">:ui:common</text>
</g>
<!-- :shared:feature:stats&#45;&gt;:ui:common -->
<g id="edge2" class="edge">
<title>:shared:feature:stats&#45;&gt;:ui:common</title>
<path fill="none" stroke="black" stroke-dasharray="1,5" d="M605.69,-547.81C605.69,-510.54 605.69,-429 605.69,-429 605.69,-429 564.2,-429 564.2,-429"/>
<polygon fill="black" stroke="black" points="564.2,-425.5 554.2,-429 564.2,-432.5 564.2,-425.5"/>
</g>
<!-- :shared:domain -->
<g id="node4" class="node">
<title>:shared:domain</title>
<ellipse fill="#b59aff" stroke="black" cx="715.84" cy="-155" rx="82.59" ry="18"/>
<text text-anchor="middle" x="715.84" y="-151.3" font-family="Times,serif" font-size="14.00">:shared:domain</text>
</g>
<!-- :shared:feature:stats&#45;&gt;:shared:domain -->
<g id="edge3" class="edge">
<title>:shared:feature:stats&#45;&gt;:shared:domain</title>
<path fill="none" stroke="black" stroke-dasharray="1,5" d="M613.97,-547.99C613.97,-469.96 613.97,-165 613.97,-165 613.97,-165 637.04,-165 637.04,-165"/>
<polygon fill="black" stroke="black" points="637.04,-168.5 647.04,-165 637.04,-161.5 637.04,-168.5"/>
</g>
<!-- :data:database -->
<g id="node5" class="node">
<title>:data:database</title>
<ellipse fill="#b59aff" stroke="black" cx="1010.84" cy="-429" rx="79.09" ry="18"/>
<text text-anchor="middle" x="1010.84" y="-425.3" font-family="Times,serif" font-size="14.00">:data:database</text>
</g>
<!-- :shared:feature:stats&#45;&gt;:data:database -->
<g id="edge4" class="edge">
<title>:shared:feature:stats&#45;&gt;:data:database</title>
<path fill="none" stroke="black" stroke-dasharray="1,5" d="M705.31,-547.97C705.31,-513.58 705.31,-442 705.31,-442 705.31,-442 945.87,-442 945.87,-442"/>
<polygon fill="black" stroke="black" points="945.87,-445.5 955.87,-442 945.87,-438.5 945.87,-445.5"/>
</g>
<!-- :ui:core -->
<g id="node6" class="node">
<title>:ui:core</title>
<ellipse fill="#b59aff" stroke="black" cx="222.84" cy="-155" rx="45.49" ry="18"/>
<text text-anchor="middle" x="222.84" y="-151.3" font-family="Times,serif" font-size="14.00">:ui:core</text>
</g>
<!-- :ui:test:screenshot&#45;&gt;:ui:core -->
<g id="edge5" class="edge">
<title>:ui:test:screenshot&#45;&gt;:ui:core</title>
<path fill="none" stroke="black" stroke-dasharray="1,5" d="M185.51,-284.63C185.51,-284.63 185.51,-175.67 185.51,-175.67"/>
<polygon fill="black" stroke="black" points="189.01,-175.67 185.51,-165.67 182.01,-175.67 189.01,-175.67"/>
</g>
<!-- :test:image -->
<g id="node7" class="node">
<title>:test:image</title>
<ellipse fill="#9affb5" stroke="black" cx="95.84" cy="-155" rx="63.09" ry="18"/>
<text text-anchor="middle" x="95.84" y="-151.3" font-family="Times,serif" font-size="14.00">:test:image</text>
</g>
<!-- :ui:test:screenshot&#45;&gt;:test:image -->
<g id="edge6" class="edge">
<title>:ui:test:screenshot&#45;&gt;:test:image</title>
<path fill="none" stroke="black" stroke-dasharray="1,5" d="M95.84,-273.81C95.84,-273.81 95.84,-183.27 95.84,-183.27"/>
<polygon fill="black" stroke="black" points="99.34,-183.27 95.84,-173.27 92.34,-183.27 99.34,-183.27"/>
</g>
<!-- :ui:common&#45;&gt;:ui:test:screenshot -->
<g id="edge7" class="edge">
<title>:ui:common&#45;&gt;:ui:test:screenshot</title>
<path fill="none" stroke="#ff9ab1" stroke-dasharray="1,5" d="M436.23,-439C335.74,-439 129.12,-439 129.12,-439 129.12,-439 129.12,-319.15 129.12,-319.15"/>
<polygon fill="#ff9ab1" stroke="#ff9ab1" points="132.62,-319.15 129.12,-309.15 125.62,-319.15 132.62,-319.15"/>
</g>
<!-- :ui:common&#45;&gt;:shared:domain -->
<g id="edge8" class="edge">
<title>:ui:common&#45;&gt;:shared:domain</title>
<path fill="none" stroke="black" d="M530.51,-415C560.97,-415 597.4,-415 597.4,-415 597.4,-415 597.4,-158 597.4,-158 597.4,-158 624.23,-158 624.23,-158"/>
<polygon fill="black" stroke="black" points="624.23,-161.5 634.23,-158 624.23,-154.5 624.23,-161.5"/>
</g>
<!-- :ui:common&#45;&gt;:ui:core -->
<g id="edge9" class="edge">
<title>:ui:common&#45;&gt;:ui:core</title>
<path fill="none" stroke="black" d="M426.32,-432C347.05,-432 221.79,-432 221.79,-432 221.79,-432 221.79,-183.17 221.79,-183.17"/>
<polygon fill="black" stroke="black" points="225.29,-183.17 221.79,-173.17 218.29,-183.17 225.29,-183.17"/>
</g>
<!-- :data:coverart -->
<g id="node8" class="node">
<title>:data:coverart</title>
<ellipse fill="#b59aff" stroke="black" cx="489.84" cy="-292" rx="76.09" ry="18"/>
<text text-anchor="middle" x="489.84" y="-288.3" font-family="Times,serif" font-size="14.00">:data:coverart</text>
</g>
<!-- :ui:common&#45;&gt;:data:coverart -->
<g id="edge10" class="edge">
<title>:ui:common&#45;&gt;:data:coverart</title>
<path fill="none" stroke="black" stroke-dasharray="1,5" d="M489.84,-410.81C489.84,-410.81 489.84,-320.27 489.84,-320.27"/>
<polygon fill="black" stroke="black" points="493.34,-320.27 489.84,-310.27 486.34,-320.27 493.34,-320.27"/>
</g>
<!-- :data:musicbrainz -->
<g id="node9" class="node">
<title>:data:musicbrainz</title>
<ellipse fill="#b59aff" stroke="black" cx="715.84" cy="-292" rx="93.68" ry="18"/>
<text text-anchor="middle" x="715.84" y="-288.3" font-family="Times,serif" font-size="14.00">:data:musicbrainz</text>
</g>
<!-- :ui:common&#45;&gt;:data:musicbrainz -->
<g id="edge11" class="edge">
<title>:ui:common&#45;&gt;:data:musicbrainz</title>
<path fill="none" stroke="black" stroke-dasharray="1,5" d="M545.83,-420C596.68,-420 663.78,-420 663.78,-420 663.78,-420 663.78,-317.19 663.78,-317.19"/>
<polygon fill="black" stroke="black" points="667.28,-317.19 663.78,-307.19 660.28,-317.19 667.28,-317.19"/>
</g>
<!-- :core:preferences -->
<g id="node10" class="node">
<title>:core:preferences</title>
<ellipse fill="#b59aff" stroke="black" cx="957.84" cy="-292" rx="91.78" ry="18"/>
<text text-anchor="middle" x="957.84" y="-288.3" font-family="Times,serif" font-size="14.00">:core:preferences</text>
</g>
<!-- :ui:common&#45;&gt;:core:preferences -->
<g id="edge12" class="edge">
<title>:ui:common&#45;&gt;:core:preferences</title>
<path fill="none" stroke="black" stroke-dasharray="1,5" d="M551.96,-424C666.39,-424 898.87,-424 898.87,-424 898.87,-424 898.87,-316.13 898.87,-316.13"/>
<polygon fill="black" stroke="black" points="902.37,-316.13 898.87,-306.13 895.37,-316.13 902.37,-316.13"/>
</g>
<!-- :core:logging:api -->
<g id="node11" class="node">
<title>:core:logging:api</title>
<ellipse fill="#b59aff" stroke="black" cx="489.84" cy="-155" rx="88.28" ry="18"/>
<text text-anchor="middle" x="489.84" y="-151.3" font-family="Times,serif" font-size="14.00">:core:logging:api</text>
</g>
<!-- :ui:common&#45;&gt;:core:logging:api -->
<g id="edge13" class="edge">
<title>:ui:common&#45;&gt;:core:logging:api</title>
<path fill="none" stroke="black" stroke-dasharray="1,5" d="M438.71,-418C421.99,-418 407.62,-418 407.62,-418 407.62,-418 407.62,-171.77 407.62,-171.77"/>
<polygon fill="black" stroke="black" points="411.12,-171.77 407.62,-161.77 404.12,-171.77 411.12,-171.77"/>
</g>
<!-- :ui:image -->
<g id="node12" class="node">
<title>:ui:image</title>
<ellipse fill="#b59aff" stroke="black" cx="303.84" cy="-292" rx="53.89" ry="18"/>
<text text-anchor="middle" x="303.84" y="-288.3" font-family="Times,serif" font-size="14.00">:ui:image</text>
</g>
<!-- :ui:common&#45;&gt;:ui:image -->
<g id="edge14" class="edge">
<title>:ui:common&#45;&gt;:ui:image</title>
<path fill="none" stroke="black" stroke-dasharray="1,5" d="M426.87,-425C372.91,-425 303.84,-425 303.84,-425 303.84,-425 303.84,-320.21 303.84,-320.21"/>
<polygon fill="black" stroke="black" points="307.34,-320.21 303.84,-310.21 300.34,-320.21 307.34,-320.21"/>
</g>
<!-- :data:database&#45;&gt;:shared:domain -->
<g id="edge15" class="edge">
<title>:data:database&#45;&gt;:shared:domain</title>
<path fill="none" stroke="black" stroke-dasharray="1,5" d="M933.44,-433C887.37,-433 837.82,-433 837.82,-433 837.82,-433 837.82,-161 837.82,-161 837.82,-161 803.78,-161 803.78,-161"/>
<polygon fill="black" stroke="black" points="803.78,-157.5 793.78,-161 803.78,-164.5 803.78,-157.5"/>
</g>
<!-- :data:database&#45;&gt;:data:musicbrainz -->
<g id="edge17" class="edge">
<title>:data:database&#45;&gt;:data:musicbrainz</title>
<path fill="none" stroke="black" stroke-dasharray="1,5" d="M941.97,-438C873.35,-438 778.14,-438 778.14,-438 778.14,-438 778.14,-315.47 778.14,-315.47"/>
<polygon fill="black" stroke="black" points="781.64,-315.47 778.14,-305.47 774.64,-315.47 781.64,-315.47"/>
</g>
<!-- :core:coroutines -->
<g id="node13" class="node">
<title>:core:coroutines</title>
<ellipse fill="#b59aff" stroke="black" cx="1036.84" cy="-155" rx="85.29" ry="18"/>
<text text-anchor="middle" x="1036.84" y="-151.3" font-family="Times,serif" font-size="14.00">:core:coroutines</text>
</g>
<!-- :data:database&#45;&gt;:core:coroutines -->
<g id="edge16" class="edge">
<title>:data:database&#45;&gt;:core:coroutines</title>
<path fill="none" stroke="black" stroke-dasharray="1,5" d="M1069.81,-416.87C1069.81,-416.87 1069.81,-181.66 1069.81,-181.66"/>
<polygon fill="black" stroke="black" points="1073.31,-181.66 1069.81,-171.66 1066.31,-181.66 1073.31,-181.66"/>
</g>
<!-- :shared:strings -->
<g id="node14" class="node">
<title>:shared:strings</title>
<ellipse fill="#b59aff" stroke="black" cx="222.84" cy="-18" rx="81.49" ry="18"/>
<text text-anchor="middle" x="222.84" y="-14.3" font-family="Times,serif" font-size="14.00">:shared:strings</text>
</g>
<!-- :ui:core&#45;&gt;:shared:strings -->
<g id="edge18" class="edge">
<title>:ui:core&#45;&gt;:shared:strings</title>
<path fill="none" stroke="black" d="M222.84,-136.81C222.84,-136.81 222.84,-46.27 222.84,-46.27"/>
<polygon fill="black" stroke="black" points="226.34,-46.27 222.84,-36.27 219.34,-46.27 226.34,-46.27"/>
</g>
<!-- :data:coverart&#45;&gt;:shared:domain -->
<g id="edge19" class="edge">
<title>:data:coverart&#45;&gt;:shared:domain</title>
<path fill="none" stroke="black" stroke-dasharray="1,5" d="M566.1,-292C579.43,-292 589.12,-292 589.12,-292 589.12,-292 589.12,-151 589.12,-151 589.12,-151 625.23,-151 625.23,-151"/>
<polygon fill="black" stroke="black" points="625.23,-154.5 635.23,-151 625.23,-147.5 625.23,-154.5"/>
</g>
<!-- :data:coverart&#45;&gt;:core:logging:api -->
<g id="edge20" class="edge">
<title>:data:coverart&#45;&gt;:core:logging:api</title>
<path fill="none" stroke="black" stroke-dasharray="1,5" d="M489.84,-273.81C489.84,-273.81 489.84,-183.27 489.84,-183.27"/>
<polygon fill="black" stroke="black" points="493.34,-183.27 489.84,-173.27 486.34,-183.27 493.34,-183.27"/>
</g>
<!-- :data:musicbrainz&#45;&gt;:shared:domain -->
<g id="edge21" class="edge">
<title>:data:musicbrainz&#45;&gt;:shared:domain</title>
<path fill="none" stroke="black" stroke-dasharray="1,5" d="M743.36,-274.65C743.36,-274.65 743.36,-182.21 743.36,-182.21"/>
<polygon fill="black" stroke="black" points="746.86,-182.21 743.36,-172.21 739.86,-182.21 746.86,-182.21"/>
</g>
<!-- :data:musicbrainz&#45;&gt;:core:logging:api -->
<g id="edge22" class="edge">
<title>:data:musicbrainz&#45;&gt;:core:logging:api</title>
<path fill="none" stroke="black" stroke-dasharray="1,5" d="M627.77,-285.64C627.77,-257.31 627.77,-144 627.77,-144 627.77,-144 570.02,-144 570.02,-144"/>
<polygon fill="black" stroke="black" points="570.02,-140.5 560.02,-144 570.02,-147.5 570.02,-140.5"/>
</g>
<!-- :core:preferences&#45;&gt;:shared:domain -->
<g id="edge23" class="edge">
<title>:core:preferences&#45;&gt;:shared:domain</title>
<path fill="none" stroke="black" stroke-dasharray="1,5" d="M908.95,-276.7C908.95,-239.81 908.95,-149 908.95,-149 908.95,-149 803.83,-149 803.83,-149"/>
<polygon fill="black" stroke="black" points="803.83,-145.5 793.83,-149 803.83,-152.5 803.83,-145.5"/>
</g>
<!-- :core:preferences&#45;&gt;:core:coroutines -->
<g id="edge24" class="edge">
<title>:core:preferences&#45;&gt;:core:coroutines</title>
<path fill="none" stroke="black" stroke-dasharray="1,5" d="M1000.59,-276.02C1000.59,-276.02 1000.59,-181.31 1000.59,-181.31"/>
<polygon fill="black" stroke="black" points="1004.09,-181.31 1000.59,-171.31 997.09,-181.31 1004.09,-181.31"/>
</g>
<!-- :ui:image&#45;&gt;:shared:domain -->
<g id="edge25" class="edge">
<title>:ui:image&#45;&gt;:shared:domain</title>
<path fill="none" stroke="black" stroke-dasharray="1,5" d="M330.94,-276.34C330.94,-255.98 330.94,-223 330.94,-223 330.94,-223 688.33,-223 688.33,-223 688.33,-223 688.33,-182.16 688.33,-182.16"/>
<polygon fill="black" stroke="black" points="691.83,-182.16 688.33,-172.16 684.83,-182.16 691.83,-182.16"/>
</g>
<!-- :ui:image&#45;&gt;:ui:core -->
<g id="edge26" class="edge">
<title>:ui:image&#45;&gt;:ui:core</title>
<path fill="none" stroke="black" stroke-dasharray="1,5" d="M259.12,-281.7C259.12,-281.7 259.12,-176.18 259.12,-176.18"/>
<polygon fill="black" stroke="black" points="262.62,-176.18 259.12,-166.18 255.62,-176.18 262.62,-176.18"/>
</g>
</g>
</svg>
