<?xml version="1.0" encoding="UTF-8" standalone="no"?>
<!DOCTYPE svg PUBLIC "-//W3C//DTD SVG 1.1//EN"
 "http://www.w3.org/Graphics/SVG/1.1/DTD/svg11.dtd">
<!-- Generated by graphviz version 2.43.0 (0)
 -->
<!-- Title: %3 Pages: 1 -->
<svg width="1052pt" height="1077pt"
 viewBox="0.00 0.00 1052.13 1077.00" xmlns="http://www.w3.org/2000/svg" xmlns:xlink="http://www.w3.org/1999/xlink">
<g id="graph0" class="graph" transform="scale(1 1) rotate(0) translate(4 1073)">
<title>%3</title>
<polygon fill="white" stroke="transparent" points="-4,4 -4,-1073 1048.13,-1073 1048.13,4 -4,4"/>
<text text-anchor="middle" x="522.07" y="-1041" font-family="Times,serif" font-size="30.00">Dependencies</text>
<text text-anchor="middle" x="522.07" y="-1008" font-family="Times,serif" font-size="30.00"> </text>
<!-- :shared:feature:stats -->
<g id="node1" class="node">
<title>:shared:feature:stats</title>
<polygon fill="#b59aff" stroke="black" points="687.29,-995 521.29,-995 521.29,-959 687.29,-959 687.29,-995"/>
<text text-anchor="middle" x="604.29" y="-973.3" font-family="Times,serif" font-size="14.00">:shared:feature:stats</text>
</g>
<!-- :ui:test:screenshot -->
<g id="node2" class="node">
<title>:ui:test:screenshot</title>
<ellipse fill="#9affb5" stroke="black" cx="947.29" cy="-703" rx="96.68" ry="18"/>
<text text-anchor="middle" x="947.29" y="-699.3" font-family="Times,serif" font-size="14.00">:ui:test:screenshot</text>
</g>
<!-- :shared:feature:stats&#45;&gt;:ui:test:screenshot -->
<g id="edge1" class="edge">
<title>:shared:feature:stats&#45;&gt;:ui:test:screenshot</title>
<path fill="none" stroke="#ff9ab1" stroke-dasharray="1,5" d="M687.58,-977C798.14,-977 979.57,-977 979.57,-977 979.57,-977 979.57,-730.14 979.57,-730.14"/>
<polygon fill="#ff9ab1" stroke="#ff9ab1" points="983.07,-730.14 979.57,-720.14 976.07,-730.14 983.07,-730.14"/>
</g>
<!-- :ui:common -->
<g id="node3" class="node">
<title>:ui:common</title>
<ellipse fill="#b59aff" stroke="black" cx="604.29" cy="-840" rx="64.19" ry="18"/>
<text text-anchor="middle" x="604.29" y="-836.3" font-family="Times,serif" font-size="14.00">:ui:common</text>
</g>
<!-- :shared:feature:stats&#45;&gt;:ui:common -->
<g id="edge2" class="edge">
<title>:shared:feature:stats&#45;&gt;:ui:common</title>
<path fill="none" stroke="black" stroke-dasharray="1,5" d="M604.29,-958.81C604.29,-958.81 604.29,-868.27 604.29,-868.27"/>
<polygon fill="black" stroke="black" points="607.79,-868.27 604.29,-858.27 600.79,-868.27 607.79,-868.27"/>
</g>
<!-- :shared:domain -->
<g id="node4" class="node">
<title>:shared:domain</title>
<ellipse fill="#b59aff" stroke="black" cx="85.29" cy="-155" rx="82.59" ry="18"/>
<text text-anchor="middle" x="85.29" y="-151.3" font-family="Times,serif" font-size="14.00">:shared:domain</text>
</g>
<!-- :shared:feature:stats&#45;&gt;:shared:domain -->
<g id="edge3" class="edge">
<title>:shared:feature:stats&#45;&gt;:shared:domain</title>
<path fill="none" stroke="black" stroke-dasharray="1,5" d="M527.24,-958.71C527.24,-854.76 527.24,-343 527.24,-343 527.24,-343 85.96,-343 85.96,-343 85.96,-343 85.96,-183.03 85.96,-183.03"/>
<polygon fill="black" stroke="black" points="89.46,-183.03 85.96,-173.03 82.46,-183.03 89.46,-183.03"/>
</g>
<!-- :test:image -->
<g id="node5" class="node">
<title>:test:image</title>
<ellipse fill="#9affb5" stroke="black" cx="884.29" cy="-566" rx="63.09" ry="18"/>
<text text-anchor="middle" x="884.29" y="-562.3" font-family="Times,serif" font-size="14.00">:test:image</text>
</g>
<!-- :ui:test:screenshot&#45;&gt;:test:image -->
<g id="edge4" class="edge">
<title>:ui:test:screenshot&#45;&gt;:test:image</title>
<path fill="none" stroke="black" stroke-dasharray="1,5" d="M898.89,-687.28C898.89,-687.28 898.89,-593.69 898.89,-593.69"/>
<polygon fill="black" stroke="black" points="902.39,-593.69 898.89,-583.69 895.39,-593.69 902.39,-593.69"/>
</g>
<!-- :ui:common&#45;&gt;:ui:test:screenshot -->
<g id="edge7" class="edge">
<title>:ui:common&#45;&gt;:ui:test:screenshot</title>
<path fill="none" stroke="#ff9ab1" stroke-dasharray="1,5" d="M665.31,-846C755.8,-846 915.01,-846 915.01,-846 915.01,-846 915.01,-730.25 915.01,-730.25"/>
<polygon fill="#ff9ab1" stroke="#ff9ab1" points="918.51,-730.25 915.01,-720.25 911.51,-730.25 918.51,-730.25"/>
</g>
<!-- :ui:common&#45;&gt;:shared:domain -->
<g id="edge9" class="edge">
<title>:ui:common&#45;&gt;:shared:domain</title>
<path fill="none" stroke="black" d="M586,-822.53C586,-722.12 586,-223 586,-223 586,-223 149.79,-223 149.79,-223 149.79,-223 149.79,-176.54 149.79,-176.54"/>
<polygon fill="black" stroke="black" points="153.29,-176.54 149.79,-166.54 146.29,-176.54 153.29,-176.54"/>
</g>
<!-- :ui:common&#45;&gt;:test:image -->
<g id="edge5" class="edge">
<title>:ui:common&#45;&gt;:test:image</title>
<path fill="none" stroke="black" stroke-dasharray="1,5" d="M665.13,-834C733.74,-834 835.85,-834 835.85,-834 835.85,-834 835.85,-587.86 835.85,-587.86"/>
<polygon fill="black" stroke="black" points="839.35,-587.86 835.85,-577.86 832.35,-587.86 839.35,-587.86"/>
</g>
<!-- :test&#45;data -->
<g id="node6" class="node">
<title>:test&#45;data</title>
<ellipse fill="#b59aff" stroke="black" cx="238.29" cy="-703" rx="55.49" ry="18"/>
<text text-anchor="middle" x="238.29" y="-699.3" font-family="Times,serif" font-size="14.00">:test&#45;data</text>
</g>
<!-- :ui:common&#45;&gt;:test&#45;data -->
<g id="edge6" class="edge">
<title>:ui:common&#45;&gt;:test&#45;data</title>
<path fill="none" stroke="#ff9ab1" stroke-dasharray="1,5" d="M570.65,-824.43C570.65,-790.51 570.65,-713 570.65,-713 570.65,-713 294.51,-713 294.51,-713"/>
<polygon fill="#ff9ab1" stroke="#ff9ab1" points="294.51,-709.5 284.51,-713 294.51,-716.5 294.51,-709.5"/>
</g>
<!-- :core:coroutines -->
<g id="node7" class="node">
<title>:core:coroutines</title>
<ellipse fill="#b59aff" stroke="black" cx="396.29" cy="-18" rx="85.29" ry="18"/>
<text text-anchor="middle" x="396.29" y="-14.3" font-family="Times,serif" font-size="14.00">:core:coroutines</text>
</g>
<!-- :ui:common&#45;&gt;:core:coroutines -->
<g id="edge8" class="edge">
<title>:ui:common&#45;&gt;:core:coroutines</title>
<path fill="none" stroke="#ff9ab1" stroke-dasharray="1,5" d="M616.7,-822.32C616.7,-702.33 616.7,-12 616.7,-12 616.7,-12 486.8,-12 486.8,-12"/>
<polygon fill="#ff9ab1" stroke="#ff9ab1" points="486.8,-8.5 476.8,-12 486.8,-15.5 486.8,-8.5"/>
</g>
<!-- :shared:strings -->
<g id="node8" class="node">
<title>:shared:strings</title>
<ellipse fill="#b59aff" stroke="black" cx="713.29" cy="-703" rx="81.49" ry="18"/>
<text text-anchor="middle" x="713.29" y="-699.3" font-family="Times,serif" font-size="14.00">:shared:strings</text>
</g>
<!-- :ui:common&#45;&gt;:shared:strings -->
<g id="edge10" class="edge">
<title>:ui:common&#45;&gt;:shared:strings</title>
<path fill="none" stroke="black" d="M650.34,-827.36C650.34,-827.36 650.34,-724.44 650.34,-724.44"/>
<polygon fill="black" stroke="black" points="653.84,-724.44 650.34,-714.44 646.84,-724.44 653.84,-724.44"/>
</g>
<!-- :core:logging:api -->
<g id="node9" class="node">
<title>:core:logging:api</title>
<ellipse fill="#b59aff" stroke="black" cx="396.29" cy="-155" rx="88.28" ry="18"/>
<text text-anchor="middle" x="396.29" y="-151.3" font-family="Times,serif" font-size="14.00">:core:logging:api</text>
</g>
<!-- :ui:common&#45;&gt;:core:logging:api -->
<g id="edge11" class="edge">
<title>:ui:common&#45;&gt;:core:logging:api</title>
<path fill="none" stroke="black" stroke-dasharray="1,5" d="M601.35,-821.68C601.35,-712.74 601.35,-155 601.35,-155 601.35,-155 494.74,-155 494.74,-155"/>
<polygon fill="black" stroke="black" points="494.74,-151.5 484.74,-155 494.74,-158.5 494.74,-151.5"/>
</g>
<!-- :test&#45;data&#45;&gt;:shared:domain -->
<g id="edge12" class="edge">
<title>:test&#45;data&#45;&gt;:shared:domain</title>
<path fill="none" stroke="black" stroke-dasharray="1,5" d="M282.04,-692C293.29,-692 302.29,-692 302.29,-692 302.29,-692 302.29,-161 302.29,-161 302.29,-161 173.33,-161 173.33,-161"/>
<polygon fill="black" stroke="black" points="173.33,-157.5 163.33,-161 173.33,-164.5 173.33,-157.5"/>
</g>
<!-- :test&#45;data&#45;&gt;:core:coroutines -->
<g id="edge13" class="edge">
<title>:test&#45;data&#45;&gt;:core:coroutines</title>
<path fill="none" stroke="black" stroke-dasharray="1,5" d="M292.79,-706C383.42,-706 555.3,-706 555.3,-706 555.3,-706 555.3,-24 555.3,-24 555.3,-24 486.73,-24 486.73,-24"/>
<polygon fill="black" stroke="black" points="486.73,-20.5 476.73,-24 486.73,-27.5 486.73,-20.5"/>
</g>
<!-- :data:database -->
<g id="node10" class="node">
<title>:data:database</title>
<ellipse fill="#b59aff" stroke="black" cx="79.29" cy="-429" rx="79.09" ry="18"/>
<text text-anchor="middle" x="79.29" y="-425.3" font-family="Times,serif" font-size="14.00">:data:database</text>
</g>
<!-- :test&#45;data&#45;&gt;:data:database -->
<g id="edge14" class="edge">
<title>:test&#45;data&#45;&gt;:data:database</title>
<path fill="none" stroke="black" stroke-dasharray="1,5" d="M272.74,-688.59C272.74,-632.92 272.74,-435 272.74,-435 272.74,-435 164.08,-435 164.08,-435"/>
<polygon fill="black" stroke="black" points="164.08,-431.5 154.08,-435 164.08,-438.5 164.08,-431.5"/>
</g>
<!-- :data:musicbrainz -->
<g id="node11" class="node">
<title>:data:musicbrainz</title>
<ellipse fill="#b59aff" stroke="black" cx="207.29" cy="-292" rx="93.68" ry="18"/>
<text text-anchor="middle" x="207.29" y="-288.3" font-family="Times,serif" font-size="14.00">:data:musicbrainz</text>
</g>
<!-- :test&#45;data&#45;&gt;:data:musicbrainz -->
<g id="edge15" class="edge">
<title>:test&#45;data&#45;&gt;:data:musicbrainz</title>
<path fill="none" stroke="black" stroke-dasharray="1,5" d="M283.14,-692.43C283.14,-692.43 283.14,-312.88 283.14,-312.88"/>
<polygon fill="black" stroke="black" points="286.64,-312.88 283.14,-302.88 279.64,-312.88 286.64,-312.88"/>
</g>
<!-- :data:coverart -->
<g id="node12" class="node">
<title>:data:coverart</title>
<ellipse fill="#b59aff" stroke="black" cx="186.29" cy="-566" rx="76.09" ry="18"/>
<text text-anchor="middle" x="186.29" y="-562.3" font-family="Times,serif" font-size="14.00">:data:coverart</text>
</g>
<!-- :test&#45;data&#45;&gt;:data:coverart -->
<g id="edge16" class="edge">
<title>:test&#45;data&#45;&gt;:data:coverart</title>
<path fill="none" stroke="black" stroke-dasharray="1,5" d="M209.48,-687.55C209.48,-687.55 209.48,-593.33 209.48,-593.33"/>
<polygon fill="black" stroke="black" points="212.98,-593.33 209.48,-583.33 205.98,-593.33 212.98,-593.33"/>
</g>
<!-- :data:spotify -->
<g id="node13" class="node">
<title>:data:spotify</title>
<ellipse fill="#b59aff" stroke="black" cx="464.29" cy="-292" rx="68.79" ry="18"/>
<text text-anchor="middle" x="464.29" y="-288.3" font-family="Times,serif" font-size="14.00">:data:spotify</text>
</g>
<!-- :test&#45;data&#45;&gt;:data:spotify -->
<g id="edge17" class="edge">
<title>:test&#45;data&#45;&gt;:data:spotify</title>
<path fill="none" stroke="black" stroke-dasharray="1,5" d="M292.41,-699C357.56,-699 458.35,-699 458.35,-699 458.35,-699 458.35,-320.01 458.35,-320.01"/>
<polygon fill="black" stroke="black" points="461.85,-320.01 458.35,-310.01 454.85,-320.01 461.85,-320.01"/>
</g>
<!-- :core:logging:api&#45;&gt;:core:coroutines -->
<g id="edge18" class="edge">
<title>:core:logging:api&#45;&gt;:core:coroutines</title>
<path fill="none" stroke="black" d="M396.29,-136.81C396.29,-136.81 396.29,-46.27 396.29,-46.27"/>
<polygon fill="black" stroke="black" points="399.79,-46.27 396.29,-36.27 392.79,-46.27 399.79,-46.27"/>
</g>
<!-- :data:database&#45;&gt;:shared:domain -->
<g id="edge19" class="edge">
<title>:data:database&#45;&gt;:shared:domain</title>
<path fill="none" stroke="black" stroke-dasharray="1,5" d="M30.49,-414.65C30.49,-414.65 30.49,-178.55 30.49,-178.55"/>
<polygon fill="black" stroke="black" points="33.99,-178.55 30.49,-168.55 26.99,-178.55 33.99,-178.55"/>
</g>
<!-- :data:database&#45;&gt;:core:coroutines -->
<g id="edge20" class="edge">
<title>:data:database&#45;&gt;:core:coroutines</title>
<path fill="none" stroke="black" stroke-dasharray="1,5" d="M154.33,-423C219.56,-423 303.69,-423 303.69,-423 303.69,-423 303.69,-12 303.69,-12 303.69,-12 305.8,-12 305.8,-12"/>
<polygon fill="black" stroke="black" points="305.8,-15.5 315.8,-12 305.8,-8.5 305.8,-15.5"/>
</g>
<!-- :data:database&#45;&gt;:data:musicbrainz -->
<g id="edge21" class="edge">
<title>:data:database&#45;&gt;:data:musicbrainz</title>
<path fill="none" stroke="black" stroke-dasharray="1,5" d="M136.14,-416.36C136.14,-416.36 136.14,-313.83 136.14,-313.83"/>
<polygon fill="black" stroke="black" points="139.64,-313.83 136.14,-303.83 132.64,-313.83 139.64,-313.83"/>
</g>
<!-- :data:musicbrainz&#45;&gt;:shared:domain -->
<g id="edge22" class="edge">
<title>:data:musicbrainz&#45;&gt;:shared:domain</title>
<path fill="none" stroke="black" stroke-dasharray="1,5" d="M131.75,-281.25C131.75,-281.25 131.75,-180.18 131.75,-180.18"/>
<polygon fill="black" stroke="black" points="135.25,-180.18 131.75,-170.18 128.25,-180.18 135.25,-180.18"/>
</g>
<!-- :data:musicbrainz&#45;&gt;:core:logging:api -->
<g id="edge23" class="edge">
<title>:data:musicbrainz&#45;&gt;:core:logging:api</title>
<path fill="none" stroke="black" stroke-dasharray="1,5" d="M295.65,-286C318.63,-286 337.07,-286 337.07,-286 337.07,-286 337.07,-178.53 337.07,-178.53"/>
<polygon fill="black" stroke="black" points="340.57,-178.53 337.07,-168.53 333.57,-178.53 340.57,-178.53"/>
</g>
<!-- :data:coverart&#45;&gt;:shared:domain -->
<g id="edge24" class="edge">
<title>:data:coverart&#45;&gt;:shared:domain</title>
<path fill="none" stroke="black" stroke-dasharray="1,5" d="M193.17,-547.88C193.17,-500.57 193.17,-377 193.17,-377 193.17,-377 58.23,-377 58.23,-377 58.23,-377 58.23,-182.05 58.23,-182.05"/>
<polygon fill="black" stroke="black" points="61.73,-182.05 58.23,-172.05 54.73,-182.05 61.73,-182.05"/>
</g>
<!-- :data:coverart&#45;&gt;:test&#45;data -->
<g id="edge27" class="edge">
<title>:data:coverart&#45;&gt;:test&#45;data</title>
<path fill="none" stroke="#ff9ab1" stroke-dasharray="1,5" d="M235.91,-579.89C235.91,-579.89 235.91,-674.75 235.91,-674.75"/>
<polygon fill="#ff9ab1" stroke="#ff9ab1" points="232.41,-674.75 235.91,-684.75 239.41,-674.75 232.41,-674.75"/>
</g>
<!-- :data:coverart&#45;&gt;:core:coroutines -->
<g id="edge26" class="edge">
<title>:data:coverart&#45;&gt;:core:coroutines</title>
<path fill="none" stroke="black" stroke-dasharray="1,5" d="M258.14,-560C283.16,-560 305.09,-560 305.09,-560 305.09,-560 305.09,-24 305.09,-24 305.09,-24 306.18,-24 306.18,-24"/>
<polygon fill="black" stroke="black" points="305.91,-27.5 315.91,-24 305.91,-20.5 305.91,-27.5"/>
</g>
<!-- :data:coverart&#45;&gt;:core:logging:api -->
<g id="edge25" class="edge">
<title>:data:coverart&#45;&gt;:core:logging:api</title>
<path fill="none" stroke="black" stroke-dasharray="1,5" d="M258.19,-572C308.31,-572 366.23,-572 366.23,-572 366.23,-572 366.23,-182.12 366.23,-182.12"/>
<polygon fill="black" stroke="black" points="369.73,-182.12 366.23,-172.12 362.73,-182.12 369.73,-182.12"/>
</g>
<!-- :data:coverart&#45;&gt;:data:database -->
<g id="edge29" class="edge">
<title>:data:coverart&#45;&gt;:data:database</title>
<path fill="none" stroke="#ff9ab1" stroke-dasharray="1,5" d="M134.42,-552.61C134.42,-552.61 134.42,-452.24 134.42,-452.24"/>
<polygon fill="#ff9ab1" stroke="#ff9ab1" points="137.92,-452.24 134.42,-442.24 130.92,-452.24 137.92,-452.24"/>
</g>
<!-- :data:coverart&#45;&gt;:data:musicbrainz -->
<g id="edge28" class="edge">
<title>:data:coverart&#45;&gt;:data:musicbrainz</title>
<path fill="none" stroke="#ff9ab1" stroke-dasharray="1,5" d="M227.75,-550.88C227.75,-550.88 227.75,-319.87 227.75,-319.87"/>
<polygon fill="#ff9ab1" stroke="#ff9ab1" points="231.25,-319.87 227.75,-309.87 224.25,-319.87 231.25,-319.87"/>
</g>
<!-- :data:spotify&#45;&gt;:shared:domain -->
<g id="edge30" class="edge">
<title>:data:spotify&#45;&gt;:shared:domain</title>
<path fill="none" stroke="black" stroke-dasharray="1,5" d="M399.2,-298C355.73,-298 306.5,-298 306.5,-298 306.5,-298 306.5,-149 306.5,-149 306.5,-149 173.28,-149 173.28,-149"/>
<polygon fill="black" stroke="black" points="173.28,-145.5 163.28,-149 173.28,-152.5 173.28,-145.5"/>
</g>
<!-- :data:spotify&#45;&gt;:core:logging:api -->
<g id="edge31" class="edge">
<title>:data:spotify&#45;&gt;:core:logging:api</title>
<path fill="none" stroke="black" stroke-dasharray="1,5" d="M440.04,-274.93C440.04,-274.93 440.04,-181.01 440.04,-181.01"/>
<polygon fill="black" stroke="black" points="443.54,-181.01 440.04,-171.01 436.54,-181.01 443.54,-181.01"/>
</g>
</g>
</svg>
