<?xml version="1.0" encoding="UTF-8" standalone="no"?>
<!DOCTYPE svg PUBLIC "-//W3C//DTD SVG 1.1//EN"
 "http://www.w3.org/Graphics/SVG/1.1/DTD/svg11.dtd">
<!-- Generated by graphviz version 2.43.0 (0)
 -->
<!-- Title: %3 Pages: 1 -->
<svg width="1039pt" height="940pt"
 viewBox="0.00 0.00 1039.38 940.00" xmlns="http://www.w3.org/2000/svg" xmlns:xlink="http://www.w3.org/1999/xlink">
<g id="graph0" class="graph" transform="scale(1 1) rotate(0) translate(4 936)">
<title>%3</title>
<polygon fill="white" stroke="transparent" points="-4,4 -4,-936 1035.38,-936 1035.38,4 -4,4"/>
<text text-anchor="middle" x="515.69" y="-904" font-family="Times,serif" font-size="30.00">Dependencies</text>
<text text-anchor="middle" x="515.69" y="-871" font-family="Times,serif" font-size="30.00"> </text>
<!-- :shared:feature:stats -->
<g id="node1" class="node">
<title>:shared:feature:stats</title>
<polygon fill="#b59aff" stroke="black" points="726.84,-858 560.84,-858 560.84,-822 726.84,-822 726.84,-858"/>
<text text-anchor="middle" x="643.84" y="-836.3" font-family="Times,serif" font-size="14.00">:shared:feature:stats</text>
</g>
<!-- :ui:test:screenshot -->
<g id="node2" class="node">
<title>:ui:test:screenshot</title>
<ellipse fill="#9affb5" stroke="black" cx="96.84" cy="-566" rx="96.68" ry="18"/>
<text text-anchor="middle" x="96.84" y="-562.3" font-family="Times,serif" font-size="14.00">:ui:test:screenshot</text>
</g>
<!-- :shared:feature:stats&#45;&gt;:ui:test:screenshot -->
<g id="edge1" class="edge">
<title>:shared:feature:stats&#45;&gt;:ui:test:screenshot</title>
<path fill="none" stroke="#ff9ab1" stroke-dasharray="1,5" d="M560.54,-840C400.24,-840 64.56,-840 64.56,-840 64.56,-840 64.56,-593.14 64.56,-593.14"/>
<polygon fill="#ff9ab1" stroke="#ff9ab1" points="68.06,-593.14 64.56,-583.14 61.06,-593.14 68.06,-593.14"/>
</g>
<!-- :ui:common -->
<g id="node3" class="node">
<title>:ui:common</title>
<ellipse fill="#b59aff" stroke="black" cx="414.84" cy="-703" rx="64.19" ry="18"/>
<text text-anchor="middle" x="414.84" y="-699.3" font-family="Times,serif" font-size="14.00">:ui:common</text>
</g>
<!-- :shared:feature:stats&#45;&gt;:ui:common -->
<g id="edge2" class="edge">
<title>:shared:feature:stats&#45;&gt;:ui:common</title>
<path fill="none" stroke="black" stroke-dasharray="1,5" d="M570.75,-821.79C570.75,-785.79 570.75,-709 570.75,-709 570.75,-709 485.56,-709 485.56,-709"/>
<polygon fill="black" stroke="black" points="485.56,-705.5 475.56,-709 485.56,-712.5 485.56,-705.5"/>
</g>
<!-- :shared:domain -->
<g id="node4" class="node">
<title>:shared:domain</title>
<ellipse fill="#b59aff" stroke="black" cx="948.84" cy="-18" rx="82.59" ry="18"/>
<text text-anchor="middle" x="948.84" y="-14.3" font-family="Times,serif" font-size="14.00">:shared:domain</text>
</g>
<!-- :shared:feature:stats&#45;&gt;:shared:domain -->
<g id="edge3" class="edge">
<title>:shared:feature:stats&#45;&gt;:shared:domain</title>
<path fill="none" stroke="black" stroke-dasharray="1,5" d="M727.17,-846C836.64,-846 1015.13,-846 1015.13,-846 1015.13,-846 1015.13,-38.77 1015.13,-38.77"/>
<polygon fill="black" stroke="black" points="1018.63,-38.77 1015.13,-28.77 1011.63,-38.77 1018.63,-38.77"/>
</g>
<!-- :data:database -->
<g id="node5" class="node">
<title>:data:database</title>
<ellipse fill="#b59aff" stroke="black" cx="870.84" cy="-292" rx="79.09" ry="18"/>
<text text-anchor="middle" x="870.84" y="-288.3" font-family="Times,serif" font-size="14.00">:data:database</text>
</g>
<!-- :shared:feature:stats&#45;&gt;:data:database -->
<g id="edge4" class="edge">
<title>:shared:feature:stats&#45;&gt;:data:database</title>
<path fill="none" stroke="black" stroke-dasharray="1,5" d="M727.18,-834C801.04,-834 897.27,-834 897.27,-834 897.27,-834 897.27,-319.12 897.27,-319.12"/>
<polygon fill="black" stroke="black" points="900.77,-319.12 897.27,-309.12 893.77,-319.12 900.77,-319.12"/>
</g>
<!-- :ui:core -->
<g id="node6" class="node">
<title>:ui:core</title>
<ellipse fill="#b59aff" stroke="black" cx="221.84" cy="-429" rx="45.49" ry="18"/>
<text text-anchor="middle" x="221.84" y="-425.3" font-family="Times,serif" font-size="14.00">:ui:core</text>
</g>
<!-- :ui:test:screenshot&#45;&gt;:ui:core -->
<g id="edge5" class="edge">
<title>:ui:test:screenshot&#45;&gt;:ui:core</title>
<path fill="none" stroke="black" stroke-dasharray="1,5" d="M185.01,-558.24C185.01,-558.24 185.01,-449.58 185.01,-449.58"/>
<polygon fill="black" stroke="black" points="188.51,-449.58 185.01,-439.58 181.51,-449.58 188.51,-449.58"/>
</g>
<!-- :test:image -->
<g id="node7" class="node">
<title>:test:image</title>
<ellipse fill="#9affb5" stroke="black" cx="94.84" cy="-429" rx="63.09" ry="18"/>
<text text-anchor="middle" x="94.84" y="-425.3" font-family="Times,serif" font-size="14.00">:test:image</text>
</g>
<!-- :ui:test:screenshot&#45;&gt;:test:image -->
<g id="edge6" class="edge">
<title>:ui:test:screenshot&#45;&gt;:test:image</title>
<path fill="none" stroke="black" stroke-dasharray="1,5" d="M94.84,-547.81C94.84,-547.81 94.84,-457.27 94.84,-457.27"/>
<polygon fill="black" stroke="black" points="98.34,-457.27 94.84,-447.27 91.34,-457.27 98.34,-457.27"/>
</g>
<!-- :ui:common&#45;&gt;:ui:test:screenshot -->
<g id="edge7" class="edge">
<title>:ui:common&#45;&gt;:ui:test:screenshot</title>
<path fill="none" stroke="#ff9ab1" stroke-dasharray="1,5" d="M350.36,-703C266.09,-703 129.12,-703 129.12,-703 129.12,-703 129.12,-593.07 129.12,-593.07"/>
<polygon fill="#ff9ab1" stroke="#ff9ab1" points="132.62,-593.07 129.12,-583.07 125.62,-593.07 132.62,-593.07"/>
</g>
<!-- :ui:common&#45;&gt;:shared:domain -->
<g id="edge8" class="edge">
<title>:ui:common&#45;&gt;:shared:domain</title>
<path fill="none" stroke="black" d="M475.69,-697C625.28,-697 998.88,-697 998.88,-697 998.88,-697 998.88,-42.5 998.88,-42.5"/>
<polygon fill="black" stroke="black" points="1002.38,-42.5 998.88,-32.5 995.38,-42.5 1002.38,-42.5"/>
</g>
<!-- :ui:common&#45;&gt;:ui:core -->
<g id="edge9" class="edge">
<title>:ui:common&#45;&gt;:ui:core</title>
<path fill="none" stroke="black" d="M360.9,-693.03C360.9,-643.16 360.9,-423 360.9,-423 360.9,-423 275.08,-423 275.08,-423"/>
<polygon fill="black" stroke="black" points="275.08,-419.5 265.08,-423 275.08,-426.5 275.08,-419.5"/>
</g>
<!-- :data:coverart -->
<g id="node8" class="node">
<title>:data:coverart</title>
<ellipse fill="#b59aff" stroke="black" cx="653.84" cy="-566" rx="76.09" ry="18"/>
<text text-anchor="middle" x="653.84" y="-562.3" font-family="Times,serif" font-size="14.00">:data:coverart</text>
</g>
<!-- :ui:common&#45;&gt;:data:coverart -->
<g id="edge10" class="edge">
<title>:ui:common&#45;&gt;:data:coverart</title>
<path fill="none" stroke="black" stroke-dasharray="1,5" d="M442.87,-686.66C442.87,-652.36 442.87,-576 442.87,-576 442.87,-576 580.54,-576 580.54,-576"/>
<polygon fill="black" stroke="black" points="580.54,-579.5 590.54,-576 580.54,-572.5 580.54,-579.5"/>
</g>
<!-- :data:musicbrainz -->
<g id="node9" class="node">
<title>:data:musicbrainz</title>
<ellipse fill="#b59aff" stroke="black" cx="463.84" cy="-155" rx="93.68" ry="18"/>
<text text-anchor="middle" x="463.84" y="-151.3" font-family="Times,serif" font-size="14.00">:data:musicbrainz</text>
</g>
<!-- :ui:common&#45;&gt;:data:musicbrainz -->
<g id="edge11" class="edge">
<title>:ui:common&#45;&gt;:data:musicbrainz</title>
<path fill="none" stroke="black" stroke-dasharray="1,5" d="M406.56,-685.08C406.56,-685.08 406.56,-179.62 406.56,-179.62"/>
<polygon fill="black" stroke="black" points="410.06,-179.62 406.56,-169.62 403.06,-179.62 410.06,-179.62"/>
</g>
<!-- :core:logging:api -->
<g id="node10" class="node">
<title>:core:logging:api</title>
<ellipse fill="#b59aff" stroke="black" cx="402.84" cy="-18" rx="88.28" ry="18"/>
<text text-anchor="middle" x="402.84" y="-14.3" font-family="Times,serif" font-size="14.00">:core:logging:api</text>
</g>
<!-- :ui:common&#45;&gt;:core:logging:api -->
<g id="edge12" class="edge">
<title>:ui:common&#45;&gt;:core:logging:api</title>
<path fill="none" stroke="black" stroke-dasharray="1,5" d="M364.02,-691.68C364.02,-691.68 364.02,-44.33 364.02,-44.33"/>
<polygon fill="black" stroke="black" points="367.52,-44.33 364.02,-34.33 360.52,-44.33 367.52,-44.33"/>
</g>
<!-- :ui:image -->
<g id="node11" class="node">
<title>:ui:image</title>
<ellipse fill="#b59aff" stroke="black" cx="303.84" cy="-566" rx="53.89" ry="18"/>
<text text-anchor="middle" x="303.84" y="-562.3" font-family="Times,serif" font-size="14.00">:ui:image</text>
</g>
<!-- :ui:common&#45;&gt;:ui:image -->
<g id="edge13" class="edge">
<title>:ui:common&#45;&gt;:ui:image</title>
<path fill="none" stroke="black" stroke-dasharray="1,5" d="M354.14,-696.76C354.14,-696.76 354.14,-582.6 354.14,-582.6"/>
<polygon fill="black" stroke="black" points="357.64,-582.6 354.14,-572.6 350.64,-582.6 357.64,-582.6"/>
</g>
<!-- :data:database&#45;&gt;:shared:domain -->
<g id="edge14" class="edge">
<title>:data:database&#45;&gt;:shared:domain</title>
<path fill="none" stroke="black" stroke-dasharray="1,5" d="M925.93,-278.78C925.93,-278.78 925.93,-45.52 925.93,-45.52"/>
<polygon fill="black" stroke="black" points="929.43,-45.52 925.93,-35.52 922.43,-45.52 929.43,-45.52"/>
</g>
<!-- :data:database&#45;&gt;:data:musicbrainz -->
<g id="edge16" class="edge">
<title>:data:database&#45;&gt;:data:musicbrainz</title>
<path fill="none" stroke="black" stroke-dasharray="1,5" d="M791.51,-292C693.02,-292 537.87,-292 537.87,-292 537.87,-292 537.87,-176.21 537.87,-176.21"/>
<polygon fill="black" stroke="black" points="541.37,-176.21 537.87,-166.21 534.37,-176.21 541.37,-176.21"/>
</g>
<!-- :core:coroutines -->
<g id="node12" class="node">
<title>:core:coroutines</title>
<ellipse fill="#b59aff" stroke="black" cx="660.84" cy="-155" rx="85.29" ry="18"/>
<text text-anchor="middle" x="660.84" y="-151.3" font-family="Times,serif" font-size="14.00">:core:coroutines</text>
</g>
<!-- :data:database&#45;&gt;:core:coroutines -->
<g id="edge15" class="edge">
<title>:data:database&#45;&gt;:core:coroutines</title>
<path fill="none" stroke="black" stroke-dasharray="1,5" d="M802,-283C751.9,-283 692.79,-283 692.79,-283 692.79,-283 692.79,-181.73 692.79,-181.73"/>
<polygon fill="black" stroke="black" points="696.29,-181.73 692.79,-171.73 689.29,-181.73 696.29,-181.73"/>
</g>
<!-- :shared:strings -->
<g id="node13" class="node">
<title>:shared:strings</title>
<ellipse fill="#b59aff" stroke="black" cx="194.84" cy="-292" rx="81.49" ry="18"/>
<text text-anchor="middle" x="194.84" y="-288.3" font-family="Times,serif" font-size="14.00">:shared:strings</text>
</g>
<!-- :ui:core&#45;&gt;:shared:strings -->
<g id="edge17" class="edge">
<title>:ui:core&#45;&gt;:shared:strings</title>
<path fill="none" stroke="black" d="M221.84,-410.81C221.84,-410.81 221.84,-319.4 221.84,-319.4"/>
<polygon fill="black" stroke="black" points="225.34,-319.4 221.84,-309.4 218.34,-319.4 225.34,-319.4"/>
</g>
<!-- :data:coverart&#45;&gt;:shared:domain -->
<g id="edge18" class="edge">
<title>:data:coverart&#45;&gt;:shared:domain</title>
<path fill="none" stroke="black" stroke-dasharray="1,5" d="M725.59,-572C822.33,-572 982.63,-572 982.63,-572 982.63,-572 982.63,-44.58 982.63,-44.58"/>
<polygon fill="black" stroke="black" points="986.13,-44.58 982.63,-34.58 979.13,-44.58 986.13,-44.58"/>
</g>
<!-- :data:coverart&#45;&gt;:data:database -->
<g id="edge23" class="edge">
<title>:data:coverart&#45;&gt;:data:database</title>
<path fill="none" stroke="#ff9ab1" stroke-dasharray="1,5" d="M725.62,-560C779.64,-560 844.41,-560 844.41,-560 844.41,-560 844.41,-319.17 844.41,-319.17"/>
<polygon fill="#ff9ab1" stroke="#ff9ab1" points="847.91,-319.17 844.41,-309.17 840.91,-319.17 847.91,-319.17"/>
</g>
<!-- :data:coverart&#45;&gt;:data:musicbrainz -->
<g id="edge22" class="edge">
<title>:data:coverart&#45;&gt;:data:musicbrainz</title>
<path fill="none" stroke="#ff9ab1" stroke-dasharray="1,5" d="M593.43,-555C549.89,-555 498.75,-555 498.75,-555 498.75,-555 498.75,-181.93 498.75,-181.93"/>
<polygon fill="#ff9ab1" stroke="#ff9ab1" points="502.25,-181.93 498.75,-171.93 495.25,-181.93 502.25,-181.93"/>
</g>
<!-- :data:coverart&#45;&gt;:core:logging:api -->
<g id="edge19" class="edge">
<title>:data:coverart&#45;&gt;:core:logging:api</title>
<path fill="none" stroke="black" stroke-dasharray="1,5" d="M578.51,-569C493.57,-569 367.13,-569 367.13,-569 367.13,-569 367.13,-44.49 367.13,-44.49"/>
<polygon fill="black" stroke="black" points="370.63,-44.49 367.13,-34.49 363.63,-44.49 370.63,-44.49"/>
</g>
<!-- :data:coverart&#45;&gt;:core:coroutines -->
<g id="edge20" class="edge">
<title>:data:coverart&#45;&gt;:core:coroutines</title>
<path fill="none" stroke="black" stroke-dasharray="1,5" d="M608.7,-551.37C608.7,-551.37 608.7,-179.45 608.7,-179.45"/>
<polygon fill="black" stroke="black" points="612.2,-179.45 608.7,-169.45 605.2,-179.45 612.2,-179.45"/>
</g>
<!-- :test&#45;data -->
<g id="node14" class="node">
<title>:test&#45;data</title>
<ellipse fill="#b59aff" stroke="black" cx="694.84" cy="-429" rx="55.49" ry="18"/>
<text text-anchor="middle" x="694.84" y="-425.3" font-family="Times,serif" font-size="14.00">:test&#45;data</text>
</g>
<!-- :data:coverart&#45;&gt;:test&#45;data -->
<g id="edge21" class="edge">
<title>:data:coverart&#45;&gt;:test&#45;data</title>
<path fill="none" stroke="#ff9ab1" stroke-dasharray="1,5" d="M669.69,-548.37C669.69,-548.37 669.69,-455.28 669.69,-455.28"/>
<polygon fill="#ff9ab1" stroke="#ff9ab1" points="673.19,-455.28 669.69,-445.28 666.19,-455.28 673.19,-455.28"/>
</g>
<!-- :data:musicbrainz&#45;&gt;:shared:domain -->
<g id="edge24" class="edge">
<title>:data:musicbrainz&#45;&gt;:shared:domain</title>
<path fill="none" stroke="black" stroke-dasharray="1,5" d="M524.33,-141.11C524.33,-106.28 524.33,-18 524.33,-18 524.33,-18 856.24,-18 856.24,-18"/>
<polygon fill="black" stroke="black" points="856.24,-21.5 866.24,-18 856.24,-14.5 856.24,-21.5"/>
</g>
<!-- :data:musicbrainz&#45;&gt;:core:logging:api -->
<g id="edge25" class="edge">
<title>:data:musicbrainz&#45;&gt;:core:logging:api</title>
<path fill="none" stroke="black" stroke-dasharray="1,5" d="M430.74,-137.93C430.74,-137.93 430.74,-45.29 430.74,-45.29"/>
<polygon fill="black" stroke="black" points="434.24,-45.29 430.74,-35.29 427.24,-45.29 434.24,-45.29"/>
</g>
<!-- :ui:image&#45;&gt;:shared:domain -->
<g id="edge26" class="edge">
<title>:ui:image&#45;&gt;:shared:domain</title>
<path fill="none" stroke="black" stroke-dasharray="1,5" d="M356.54,-562C433.03,-562 565.79,-562 565.79,-562 565.79,-562 565.79,-27 565.79,-27 565.79,-27 867.24,-27 867.24,-27"/>
<polygon fill="black" stroke="black" points="867.24,-30.5 877.24,-27 867.24,-23.5 867.24,-30.5"/>
</g>
<!-- :ui:image&#45;&gt;:ui:core -->
<g id="edge27" class="edge">
<title>:ui:image&#45;&gt;:ui:core</title>
<path fill="none" stroke="black" stroke-dasharray="1,5" d="M258.62,-556.15C258.62,-556.15 258.62,-449.89 258.62,-449.89"/>
<polygon fill="black" stroke="black" points="262.12,-449.89 258.62,-439.89 255.12,-449.89 262.12,-449.89"/>
</g>
<!-- :test&#45;data&#45;&gt;:shared:domain -->
<g id="edge28" class="edge">
<title>:test&#45;data&#45;&gt;:shared:domain</title>
<path fill="none" stroke="black" stroke-dasharray="1,5" d="M747.2,-435C826.1,-435 966.38,-435 966.38,-435 966.38,-435 966.38,-45.65 966.38,-45.65"/>
<polygon fill="black" stroke="black" points="969.88,-45.65 966.38,-35.65 962.88,-45.65 969.88,-45.65"/>
</g>
<!-- :test&#45;data&#45;&gt;:data:database -->
<g id="edge32" class="edge">
<title>:test&#45;data&#45;&gt;:data:database</title>
<path fill="none" stroke="black" stroke-dasharray="1,5" d="M719.39,-412.79C719.39,-378.35 719.39,-301 719.39,-301 719.39,-301 791.76,-301 791.76,-301"/>
<polygon fill="black" stroke="black" points="791.76,-304.5 801.76,-301 791.76,-297.5 791.76,-304.5"/>
</g>
<!-- :test&#45;data&#45;&gt;:data:coverart -->
<g id="edge30" class="edge">
<title>:test&#45;data&#45;&gt;:data:coverart</title>
<path fill="none" stroke="black" stroke-dasharray="1,5" d="M699.79,-447.19C699.79,-447.19 699.79,-541.5 699.79,-541.5"/>
<polygon fill="black" stroke="black" points="696.29,-541.5 699.79,-551.5 703.29,-541.5 696.29,-541.5"/>
</g>
<!-- :test&#45;data&#45;&gt;:data:musicbrainz -->
<g id="edge29" class="edge">
<title>:test&#45;data&#45;&gt;:data:musicbrainz</title>
<path fill="none" stroke="black" stroke-dasharray="1,5" d="M642.35,-435C590.32,-435 518.31,-435 518.31,-435 518.31,-435 518.31,-179.66 518.31,-179.66"/>
<polygon fill="black" stroke="black" points="521.81,-179.66 518.31,-169.66 514.81,-179.66 521.81,-179.66"/>
</g>
<!-- :test&#45;data&#45;&gt;:core:coroutines -->
<g id="edge33" class="edge">
<title>:test&#45;data&#45;&gt;:core:coroutines</title>
<path fill="none" stroke="black" stroke-dasharray="1,5" d="M666.19,-413.48C666.19,-413.48 666.19,-183.15 666.19,-183.15"/>
<polygon fill="black" stroke="black" points="669.69,-183.15 666.19,-173.15 662.69,-183.15 669.69,-183.15"/>
</g>
<!-- :data:spotify -->
<g id="node15" class="node">
<title>:data:spotify</title>
<ellipse fill="#b59aff" stroke="black" cx="832.84" cy="-155" rx="68.79" ry="18"/>
<text text-anchor="middle" x="832.84" y="-151.3" font-family="Times,serif" font-size="14.00">:data:spotify</text>
</g>
<!-- :test&#45;data&#45;&gt;:data:spotify -->
<g id="edge31" class="edge">
<title>:test&#45;data&#45;&gt;:data:spotify</title>
<path fill="none" stroke="black" stroke-dasharray="1,5" d="M747.35,-423C763.8,-423 777.75,-423 777.75,-423 777.75,-423 777.75,-175.84 777.75,-175.84"/>
<polygon fill="black" stroke="black" points="781.25,-175.84 777.75,-165.84 774.25,-175.84 781.25,-175.84"/>
</g>
<!-- :data:spotify&#45;&gt;:shared:domain -->
<g id="edge34" class="edge">
<title>:data:spotify&#45;&gt;:shared:domain</title>
<path fill="none" stroke="black" stroke-dasharray="1,5" d="M884.02,-142.84C884.02,-142.84 884.02,-39.17 884.02,-39.17"/>
<polygon fill="black" stroke="black" points="887.52,-39.17 884.02,-29.17 880.52,-39.17 887.52,-39.17"/>
</g>
<!-- :data:spotify&#45;&gt;:core:logging:api -->
<g id="edge35" class="edge">
<title>:data:spotify&#45;&gt;:core:logging:api</title>
<path fill="none" stroke="black" stroke-dasharray="1,5" d="M815.12,-137.39C815.12,-98.56 815.12,-9 815.12,-9 815.12,-9 489.42,-9 489.42,-9"/>
<polygon fill="black" stroke="black" points="489.42,-5.5 479.42,-9 489.42,-12.5 489.42,-5.5"/>
</g>
</g>
</svg>
