<?xml version="1.0" encoding="UTF-8" standalone="no"?>
<!DOCTYPE svg PUBLIC "-//W3C//DTD SVG 1.1//EN"
 "http://www.w3.org/Graphics/SVG/1.1/DTD/svg11.dtd">
<!-- Generated by graphviz version 2.43.0 (0)
 -->
<!-- Title: %3 Pages: 1 -->
<svg width="1278pt" height="666pt"
 viewBox="0.00 0.00 1277.98 666.00" xmlns="http://www.w3.org/2000/svg" xmlns:xlink="http://www.w3.org/1999/xlink">
<g id="graph0" class="graph" transform="scale(1 1) rotate(0) translate(4 662)">
<title>%3</title>
<polygon fill="white" stroke="transparent" points="-4,4 -4,-662 1273.98,-662 1273.98,4 -4,4"/>
<text text-anchor="middle" x="634.99" y="-630" font-family="Times,serif" font-size="30.00">Dependencies</text>
<text text-anchor="middle" x="634.99" y="-597" font-family="Times,serif" font-size="30.00"> </text>
<!-- :shared:feature:stats -->
<g id="node1" class="node">
<title>:shared:feature:stats</title>
<polygon fill="#b59aff" stroke="black" points="538.84,-584 372.84,-584 372.84,-548 538.84,-548 538.84,-584"/>
<text text-anchor="middle" x="455.84" y="-562.3" font-family="Times,serif" font-size="14.00">:shared:feature:stats</text>
</g>
<!-- :ui:test:screenshot -->
<g id="node2" class="node">
<title>:ui:test:screenshot</title>
<ellipse fill="#9affb5" stroke="black" cx="96.84" cy="-292" rx="96.68" ry="18"/>
<text text-anchor="middle" x="96.84" y="-288.3" font-family="Times,serif" font-size="14.00">:ui:test:screenshot</text>
</g>
<!-- :shared:feature:stats&#45;&gt;:ui:test:screenshot -->
<g id="edge1" class="edge">
<title>:shared:feature:stats&#45;&gt;:ui:test:screenshot</title>
<path fill="none" stroke="#ff9ab1" stroke-dasharray="1,5" d="M372.38,-572C257.47,-572 64.56,-572 64.56,-572 64.56,-572 64.56,-319.09 64.56,-319.09"/>
<polygon fill="#ff9ab1" stroke="#ff9ab1" points="68.06,-319.09 64.56,-309.09 61.06,-319.09 68.06,-319.09"/>
</g>
<!-- :core:models -->
<g id="node3" class="node">
<title>:core:models</title>
<ellipse fill="#b59aff" stroke="black" cx="887.84" cy="-18" rx="69.59" ry="18"/>
<text text-anchor="middle" x="887.84" y="-14.3" font-family="Times,serif" font-size="14.00">:core:models</text>
</g>
<!-- :shared:feature:stats&#45;&gt;:core:models -->
<g id="edge2" class="edge">
<title>:shared:feature:stats&#45;&gt;:core:models</title>
<path fill="none" stroke="black" stroke-dasharray="1,5" d="M539.06,-560C656.71,-560 857.5,-560 857.5,-560 857.5,-560 857.5,-44.22 857.5,-44.22"/>
<polygon fill="black" stroke="black" points="861,-44.22 857.5,-34.22 854,-44.22 861,-44.22"/>
</g>
<!-- :ui:common -->
<g id="node4" class="node">
<title>:ui:common</title>
<ellipse fill="#b59aff" stroke="black" cx="526.84" cy="-429" rx="64.19" ry="18"/>
<text text-anchor="middle" x="526.84" y="-425.3" font-family="Times,serif" font-size="14.00">:ui:common</text>
</g>
<!-- :shared:feature:stats&#45;&gt;:ui:common -->
<g id="edge3" class="edge">
<title>:shared:feature:stats&#45;&gt;:ui:common</title>
<path fill="none" stroke="black" stroke-dasharray="1,5" d="M500.67,-547.81C500.67,-547.81 500.67,-455.55 500.67,-455.55"/>
<polygon fill="black" stroke="black" points="504.17,-455.55 500.67,-445.55 497.17,-455.55 504.17,-455.55"/>
</g>
<!-- :shared:domain -->
<g id="node5" class="node">
<title>:shared:domain</title>
<ellipse fill="#b59aff" stroke="black" cx="495.84" cy="-155" rx="82.59" ry="18"/>
<text text-anchor="middle" x="495.84" y="-151.3" font-family="Times,serif" font-size="14.00">:shared:domain</text>
</g>
<!-- :shared:feature:stats&#45;&gt;:shared:domain -->
<g id="edge4" class="edge">
<title>:shared:feature:stats&#45;&gt;:shared:domain</title>
<path fill="none" stroke="black" stroke-dasharray="1,5" d="M426.23,-547.81C426.23,-547.81 426.23,-174.81 426.23,-174.81"/>
<polygon fill="black" stroke="black" points="429.73,-174.81 426.23,-164.81 422.73,-174.81 429.73,-174.81"/>
</g>
<!-- :data:database -->
<g id="node6" class="node">
<title>:data:database</title>
<ellipse fill="#b59aff" stroke="black" cx="1105.84" cy="-429" rx="79.09" ry="18"/>
<text text-anchor="middle" x="1105.84" y="-425.3" font-family="Times,serif" font-size="14.00">:data:database</text>
</g>
<!-- :shared:feature:stats&#45;&gt;:data:database -->
<g id="edge5" class="edge">
<title>:shared:feature:stats&#45;&gt;:data:database</title>
<path fill="none" stroke="black" stroke-dasharray="1,5" d="M539.16,-572C714.55,-572 1105.84,-572 1105.84,-572 1105.84,-572 1105.84,-457.11 1105.84,-457.11"/>
<polygon fill="black" stroke="black" points="1109.34,-457.11 1105.84,-447.11 1102.34,-457.11 1109.34,-457.11"/>
</g>
<!-- :ui:core -->
<g id="node7" class="node">
<title>:ui:core</title>
<ellipse fill="#b59aff" stroke="black" cx="159.84" cy="-155" rx="45.49" ry="18"/>
<text text-anchor="middle" x="159.84" y="-151.3" font-family="Times,serif" font-size="14.00">:ui:core</text>
</g>
<!-- :shared:feature:stats&#45;&gt;:ui:core -->
<g id="edge6" class="edge">
<title>:shared:feature:stats&#45;&gt;:ui:core</title>
<path fill="none" stroke="black" stroke-dasharray="1,5" d="M372.74,-560C296.92,-560 196.6,-560 196.6,-560 196.6,-560 196.6,-175.83 196.6,-175.83"/>
<polygon fill="black" stroke="black" points="200.1,-175.83 196.6,-165.83 193.1,-175.83 200.1,-175.83"/>
</g>
<!-- :ui:test:screenshot&#45;&gt;:ui:core -->
<g id="edge7" class="edge">
<title>:ui:test:screenshot&#45;&gt;:ui:core</title>
<path fill="none" stroke="black" stroke-dasharray="1,5" d="M154.01,-277.34C154.01,-277.34 154.01,-183.01 154.01,-183.01"/>
<polygon fill="black" stroke="black" points="157.51,-183.01 154.01,-173.01 150.51,-183.01 157.51,-183.01"/>
</g>
<!-- :ui:common&#45;&gt;:ui:test:screenshot -->
<g id="edge9" class="edge">
<title>:ui:common&#45;&gt;:ui:test:screenshot</title>
<path fill="none" stroke="#ff9ab1" stroke-dasharray="1,5" d="M473.2,-439C364.64,-439 129.12,-439 129.12,-439 129.12,-439 129.12,-319.15 129.12,-319.15"/>
<polygon fill="#ff9ab1" stroke="#ff9ab1" points="132.62,-319.15 129.12,-309.15 125.62,-319.15 132.62,-319.15"/>
</g>
<!-- :ui:common&#45;&gt;:core:models -->
<g id="edge10" class="edge">
<title>:ui:common&#45;&gt;:core:models</title>
<path fill="none" stroke="black" d="M590.44,-432C684.25,-432 848.74,-432 848.74,-432 848.74,-432 848.74,-43.23 848.74,-43.23"/>
<polygon fill="black" stroke="black" points="852.24,-43.23 848.74,-33.23 845.24,-43.23 852.24,-43.23"/>
</g>
<!-- :ui:common&#45;&gt;:shared:domain -->
<g id="edge15" class="edge">
<title>:ui:common&#45;&gt;:shared:domain</title>
<path fill="none" stroke="black" stroke-dasharray="1,5" d="M475.84,-418C456.55,-418 439.16,-418 439.16,-418 439.16,-418 439.16,-178.4 439.16,-178.4"/>
<polygon fill="black" stroke="black" points="442.67,-178.4 439.16,-168.4 435.67,-178.4 442.67,-178.4"/>
</g>
<!-- :ui:common&#45;&gt;:ui:core -->
<g id="edge16" class="edge">
<title>:ui:common&#45;&gt;:ui:core</title>
<path fill="none" stroke="black" stroke-dasharray="1,5" d="M463.34,-432C368.15,-432 199.51,-432 199.51,-432 199.51,-432 199.51,-173.9 199.51,-173.9"/>
<polygon fill="black" stroke="black" points="203.01,-173.9 199.51,-163.9 196.01,-173.9 203.01,-173.9"/>
</g>
<!-- :ui:test:image -->
<g id="node8" class="node">
<title>:ui:test:image</title>
<ellipse fill="#9affb5" stroke="black" cx="526.84" cy="-292" rx="74.99" ry="18"/>
<text text-anchor="middle" x="526.84" y="-288.3" font-family="Times,serif" font-size="14.00">:ui:test:image</text>
</g>
<!-- :ui:common&#45;&gt;:ui:test:image -->
<g id="edge8" class="edge">
<title>:ui:common&#45;&gt;:ui:test:image</title>
<path fill="none" stroke="#ff9ab1" stroke-dasharray="1,5" d="M505.39,-411.93C505.39,-411.93 505.39,-319.29 505.39,-319.29"/>
<polygon fill="#ff9ab1" stroke="#ff9ab1" points="508.89,-319.29 505.39,-309.29 501.89,-319.29 508.89,-319.29"/>
</g>
<!-- :data:coverart -->
<g id="node9" class="node">
<title>:data:coverart</title>
<ellipse fill="#b59aff" stroke="black" cx="695.84" cy="-292" rx="76.09" ry="18"/>
<text text-anchor="middle" x="695.84" y="-288.3" font-family="Times,serif" font-size="14.00">:data:coverart</text>
</g>
<!-- :ui:common&#45;&gt;:data:coverart -->
<g id="edge11" class="edge">
<title>:ui:common&#45;&gt;:data:coverart</title>
<path fill="none" stroke="black" stroke-dasharray="1,5" d="M578.01,-418C627.75,-418 695.84,-418 695.84,-418 695.84,-418 695.84,-320.05 695.84,-320.05"/>
<polygon fill="black" stroke="black" points="699.34,-320.05 695.84,-310.05 692.34,-320.05 699.34,-320.05"/>
</g>
<!-- :data:musicbrainz -->
<g id="node10" class="node">
<title>:data:musicbrainz</title>
<ellipse fill="#b59aff" stroke="black" cx="959.84" cy="-292" rx="93.68" ry="18"/>
<text text-anchor="middle" x="959.84" y="-288.3" font-family="Times,serif" font-size="14.00">:data:musicbrainz</text>
</g>
<!-- :ui:common&#45;&gt;:data:musicbrainz -->
<g id="edge12" class="edge">
<title>:ui:common&#45;&gt;:data:musicbrainz</title>
<path fill="none" stroke="black" stroke-dasharray="1,5" d="M580.4,-439C693.51,-439 946.4,-439 946.4,-439 946.4,-439 946.4,-320.03 946.4,-320.03"/>
<polygon fill="black" stroke="black" points="949.9,-320.03 946.4,-310.03 942.9,-320.03 949.9,-320.03"/>
</g>
<!-- :core:preferences -->
<g id="node11" class="node">
<title>:core:preferences</title>
<ellipse fill="#b59aff" stroke="black" cx="1162.84" cy="-292" rx="91.78" ry="18"/>
<text text-anchor="middle" x="1162.84" y="-288.3" font-family="Times,serif" font-size="14.00">:core:preferences</text>
</g>
<!-- :ui:common&#45;&gt;:core:preferences -->
<g id="edge13" class="edge">
<title>:ui:common&#45;&gt;:core:preferences</title>
<path fill="none" stroke="black" stroke-dasharray="1,5" d="M548.29,-411.94C548.29,-391.51 548.29,-360 548.29,-360 548.29,-360 1128.17,-360 1128.17,-360 1128.17,-360 1128.17,-318.81 1128.17,-318.81"/>
<polygon fill="black" stroke="black" points="1131.67,-318.81 1128.17,-308.81 1124.67,-318.81 1131.67,-318.81"/>
</g>
<!-- :core:logging:api -->
<g id="node12" class="node">
<title>:core:logging:api</title>
<ellipse fill="#b59aff" stroke="black" cx="742.84" cy="-155" rx="88.28" ry="18"/>
<text text-anchor="middle" x="742.84" y="-151.3" font-family="Times,serif" font-size="14.00">:core:logging:api</text>
</g>
<!-- :ui:common&#45;&gt;:core:logging:api -->
<g id="edge14" class="edge">
<title>:ui:common&#45;&gt;:core:logging:api</title>
<path fill="none" stroke="black" stroke-dasharray="1,5" d="M589.6,-425C667.91,-425 791.67,-425 791.67,-425 791.67,-425 791.67,-180.29 791.67,-180.29"/>
<polygon fill="black" stroke="black" points="795.17,-180.29 791.67,-170.29 788.17,-180.29 795.17,-180.29"/>
</g>
<!-- :ui:image -->
<g id="node13" class="node">
<title>:ui:image</title>
<ellipse fill="#b59aff" stroke="black" cx="303.84" cy="-292" rx="53.89" ry="18"/>
<text text-anchor="middle" x="303.84" y="-288.3" font-family="Times,serif" font-size="14.00">:ui:image</text>
</g>
<!-- :ui:common&#45;&gt;:ui:image -->
<g id="edge17" class="edge">
<title>:ui:common&#45;&gt;:ui:image</title>
<path fill="none" stroke="black" stroke-dasharray="1,5" d="M463.83,-425C397.89,-425 303.84,-425 303.84,-425 303.84,-425 303.84,-320.21 303.84,-320.21"/>
<polygon fill="black" stroke="black" points="307.34,-320.21 303.84,-310.21 300.34,-320.21 307.34,-320.21"/>
</g>
<!-- :shared:domain&#45;&gt;:core:models -->
<g id="edge18" class="edge">
<title>:shared:domain&#45;&gt;:core:models</title>
<path fill="none" stroke="black" stroke-dasharray="1,5" d="M495.84,-136.79C495.84,-100.79 495.84,-24 495.84,-24 495.84,-24 812.23,-24 812.23,-24"/>
<polygon fill="black" stroke="black" points="812.23,-27.5 822.23,-24 812.23,-20.5 812.23,-27.5"/>
</g>
<!-- :data:database&#45;&gt;:core:models -->
<g id="edge20" class="edge">
<title>:data:database&#45;&gt;:core:models</title>
<path fill="none" stroke="black" stroke-dasharray="1,5" d="M1059.36,-414.11C1059.36,-341.04 1059.36,-24 1059.36,-24 1059.36,-24 963.66,-24 963.66,-24"/>
<polygon fill="black" stroke="black" points="963.66,-20.5 953.66,-24 963.66,-27.5 963.66,-20.5"/>
</g>
<!-- :data:database&#45;&gt;:data:musicbrainz -->
<g id="edge21" class="edge">
<title>:data:database&#45;&gt;:data:musicbrainz</title>
<path fill="none" stroke="black" stroke-dasharray="1,5" d="M1039.99,-418.7C1039.99,-418.7 1039.99,-311.32 1039.99,-311.32"/>
<polygon fill="black" stroke="black" points="1043.49,-311.32 1039.99,-301.32 1036.49,-311.32 1043.49,-311.32"/>
</g>
<!-- :core:coroutines -->
<g id="node14" class="node">
<title>:core:coroutines</title>
<ellipse fill="#b59aff" stroke="black" cx="1184.84" cy="-155" rx="85.29" ry="18"/>
<text text-anchor="middle" x="1184.84" y="-151.3" font-family="Times,serif" font-size="14.00">:core:coroutines</text>
</g>
<!-- :data:database&#45;&gt;:core:coroutines -->
<g id="edge19" class="edge">
<title>:data:database&#45;&gt;:core:coroutines</title>
<path fill="none" stroke="black" stroke-dasharray="1,5" d="M1065.28,-413.48C1065.28,-355.52 1065.28,-155 1065.28,-155 1065.28,-155 1089.54,-155 1089.54,-155"/>
<polygon fill="black" stroke="black" points="1089.54,-158.5 1099.54,-155 1089.54,-151.5 1089.54,-158.5"/>
</g>
<!-- :shared:strings -->
<g id="node15" class="node">
<title>:shared:strings</title>
<ellipse fill="#b59aff" stroke="black" cx="159.84" cy="-18" rx="81.49" ry="18"/>
<text text-anchor="middle" x="159.84" y="-14.3" font-family="Times,serif" font-size="14.00">:shared:strings</text>
</g>
<!-- :ui:core&#45;&gt;:shared:strings -->
<g id="edge22" class="edge">
<title>:ui:core&#45;&gt;:shared:strings</title>
<path fill="none" stroke="black" d="M159.84,-136.81C159.84,-136.81 159.84,-46.27 159.84,-46.27"/>
<polygon fill="black" stroke="black" points="163.34,-46.27 159.84,-36.27 156.34,-46.27 163.34,-46.27"/>
</g>
<!-- :data:coverart&#45;&gt;:core:models -->
<g id="edge24" class="edge">
<title>:data:coverart&#45;&gt;:core:models</title>
<path fill="none" stroke="black" stroke-dasharray="1,5" d="M767.91,-298C803.95,-298 839.99,-298 839.99,-298 839.99,-298 839.99,-41.13 839.99,-41.13"/>
<polygon fill="black" stroke="black" points="843.49,-41.13 839.99,-31.13 836.49,-41.13 843.49,-41.13"/>
</g>
<!-- :data:coverart&#45;&gt;:shared:domain -->
<g id="edge25" class="edge">
<title>:data:coverart&#45;&gt;:shared:domain</title>
<path fill="none" stroke="black" stroke-dasharray="1,5" d="M637.12,-280.32C637.12,-247.19 637.12,-155 637.12,-155 637.12,-155 588.43,-155 588.43,-155"/>
<polygon fill="black" stroke="black" points="588.43,-151.5 578.43,-155 588.43,-158.5 588.43,-151.5"/>
</g>
<!-- :data:coverart&#45;&gt;:core:logging:api -->
<g id="edge23" class="edge">
<title>:data:coverart&#45;&gt;:core:logging:api</title>
<path fill="none" stroke="black" stroke-dasharray="1,5" d="M713.17,-274.37C713.17,-274.37 713.17,-182.13 713.17,-182.13"/>
<polygon fill="black" stroke="black" points="716.67,-182.13 713.17,-172.13 709.67,-182.13 716.67,-182.13"/>
</g>
<!-- :data:musicbrainz&#45;&gt;:core:models -->
<g id="edge27" class="edge">
<title>:data:musicbrainz&#45;&gt;:core:models</title>
<path fill="none" stroke="black" stroke-dasharray="1,5" d="M911.82,-276.48C911.82,-276.48 911.82,-45.08 911.82,-45.08"/>
<polygon fill="black" stroke="black" points="915.32,-45.08 911.82,-35.08 908.32,-45.08 915.32,-45.08"/>
</g>
<!-- :data:musicbrainz&#45;&gt;:core:logging:api -->
<g id="edge26" class="edge">
<title>:data:musicbrainz&#45;&gt;:core:logging:api</title>
<path fill="none" stroke="black" stroke-dasharray="1,5" d="M871.38,-286C839.6,-286 811.45,-286 811.45,-286 811.45,-286 811.45,-176.63 811.45,-176.63"/>
<polygon fill="black" stroke="black" points="814.95,-176.63 811.45,-166.63 807.95,-176.63 814.95,-176.63"/>
</g>
<!-- :core:preferences&#45;&gt;:core:models -->
<g id="edge29" class="edge">
<title>:core:preferences&#45;&gt;:core:models</title>
<path fill="none" stroke="black" stroke-dasharray="1,5" d="M1085.45,-282.03C1085.45,-232.16 1085.45,-12 1085.45,-12 1085.45,-12 963.64,-12 963.64,-12"/>
<polygon fill="black" stroke="black" points="963.64,-8.5 953.64,-12 963.64,-15.5 963.64,-8.5"/>
</g>
<!-- :core:preferences&#45;&gt;:core:coroutines -->
<g id="edge28" class="edge">
<title>:core:preferences&#45;&gt;:core:coroutines</title>
<path fill="none" stroke="black" stroke-dasharray="1,5" d="M1177.09,-274.09C1177.09,-274.09 1177.09,-183.35 1177.09,-183.35"/>
<polygon fill="black" stroke="black" points="1180.59,-183.35 1177.09,-173.35 1173.59,-183.35 1180.59,-183.35"/>
</g>
<!-- :ui:image&#45;&gt;:core:models -->
<g id="edge30" class="edge">
<title>:ui:image&#45;&gt;:core:models</title>
<path fill="none" stroke="black" stroke-dasharray="1,5" d="M303.84,-273.63C303.84,-211.34 303.84,-12 303.84,-12 303.84,-12 812.27,-12 812.27,-12"/>
<polygon fill="black" stroke="black" points="812.27,-15.5 822.27,-12 812.27,-8.5 812.27,-15.5"/>
</g>
<!-- :ui:image&#45;&gt;:ui:core -->
<g id="edge31" class="edge">
<title>:ui:image&#45;&gt;:ui:core</title>
<path fill="none" stroke="black" stroke-dasharray="1,5" d="M249.87,-292C225.65,-292 202.42,-292 202.42,-292 202.42,-292 202.42,-171.61 202.42,-171.61"/>
<polygon fill="black" stroke="black" points="205.92,-171.61 202.42,-161.61 198.92,-171.61 205.92,-171.61"/>
</g>
</g>
</svg>
