<?xml version="1.0" encoding="UTF-8" standalone="no"?>
<!DOCTYPE svg PUBLIC "-//W3C//DTD SVG 1.1//EN"
 "http://www.w3.org/Graphics/SVG/1.1/DTD/svg11.dtd">
<!-- Generated by graphviz version 2.43.0 (0)
 -->
<!-- Title: %3 Pages: 1 -->
<svg width="1106pt" height="940pt"
 viewBox="0.00 0.00 1105.74 940.00" xmlns="http://www.w3.org/2000/svg" xmlns:xlink="http://www.w3.org/1999/xlink">
<g id="graph0" class="graph" transform="scale(1 1) rotate(0) translate(4 936)">
<title>%3</title>
<polygon fill="white" stroke="transparent" points="-4,4 -4,-936 1101.74,-936 1101.74,4 -4,4"/>
<text text-anchor="middle" x="548.87" y="-904" font-family="Times,serif" font-size="30.00">Dependencies</text>
<text text-anchor="middle" x="548.87" y="-871" font-family="Times,serif" font-size="30.00"> </text>
<!-- :shared:feature:stats -->
<g id="node1" class="node">
<title>:shared:feature:stats</title>
<polygon fill="#b59aff" stroke="black" points="334.84,-858 168.84,-858 168.84,-822 334.84,-822 334.84,-858"/>
<text text-anchor="middle" x="251.84" y="-836.3" font-family="Times,serif" font-size="14.00">:shared:feature:stats</text>
</g>
<!-- :ui:test:screenshot -->
<g id="node2" class="node">
<title>:ui:test:screenshot</title>
<ellipse fill="#9affb5" stroke="black" cx="96.84" cy="-566" rx="96.68" ry="18"/>
<text text-anchor="middle" x="96.84" y="-562.3" font-family="Times,serif" font-size="14.00">:ui:test:screenshot</text>
</g>
<!-- :shared:feature:stats&#45;&gt;:ui:test:screenshot -->
<g id="edge1" class="edge">
<title>:shared:feature:stats&#45;&gt;:ui:test:screenshot</title>
<path fill="none" stroke="#ff9ab1" stroke-dasharray="1,5" d="M177.12,-821.6C177.12,-821.6 177.12,-586.33 177.12,-586.33"/>
<polygon fill="#ff9ab1" stroke="#ff9ab1" points="180.62,-586.33 177.12,-576.33 173.62,-586.33 180.62,-586.33"/>
</g>
<!-- :ui:common -->
<g id="node3" class="node">
<title>:ui:common</title>
<ellipse fill="#b59aff" stroke="black" cx="344.84" cy="-703" rx="64.19" ry="18"/>
<text text-anchor="middle" x="344.84" y="-699.3" font-family="Times,serif" font-size="14.00">:ui:common</text>
</g>
<!-- :shared:feature:stats&#45;&gt;:ui:common -->
<g id="edge2" class="edge">
<title>:shared:feature:stats&#45;&gt;:ui:common</title>
<path fill="none" stroke="black" stroke-dasharray="1,5" d="M307.67,-821.81C307.67,-821.81 307.67,-727.9 307.67,-727.9"/>
<polygon fill="black" stroke="black" points="311.17,-727.9 307.67,-717.9 304.17,-727.9 311.17,-727.9"/>
</g>
<!-- :shared:domain -->
<g id="node4" class="node">
<title>:shared:domain</title>
<ellipse fill="#b59aff" stroke="black" cx="536.84" cy="-18" rx="82.59" ry="18"/>
<text text-anchor="middle" x="536.84" y="-14.3" font-family="Times,serif" font-size="14.00">:shared:domain</text>
</g>
<!-- :shared:feature:stats&#45;&gt;:shared:domain -->
<g id="edge3" class="edge">
<title>:shared:feature:stats&#45;&gt;:shared:domain</title>
<path fill="none" stroke="black" stroke-dasharray="1,5" d="M334.84,-834C377.16,-834 419.81,-834 419.81,-834 419.81,-834 419.81,-18 419.81,-18 419.81,-18 444.29,-18 444.29,-18"/>
<polygon fill="black" stroke="black" points="444.29,-21.5 454.29,-18 444.29,-14.5 444.29,-21.5"/>
</g>
<!-- :data:database -->
<g id="node5" class="node">
<title>:data:database</title>
<ellipse fill="#b59aff" stroke="black" cx="644.84" cy="-292" rx="79.09" ry="18"/>
<text text-anchor="middle" x="644.84" y="-288.3" font-family="Times,serif" font-size="14.00">:data:database</text>
</g>
<!-- :shared:feature:stats&#45;&gt;:data:database -->
<g id="edge4" class="edge">
<title>:shared:feature:stats&#45;&gt;:data:database</title>
<path fill="none" stroke="black" stroke-dasharray="1,5" d="M335.26,-846C435.7,-846 591.07,-846 591.07,-846 591.07,-846 591.07,-315.42 591.07,-315.42"/>
<polygon fill="black" stroke="black" points="594.57,-315.42 591.07,-305.42 587.57,-315.42 594.57,-315.42"/>
</g>
<!-- :ui:core -->
<g id="node6" class="node">
<title>:ui:core</title>
<ellipse fill="#b59aff" stroke="black" cx="222.84" cy="-429" rx="45.49" ry="18"/>
<text text-anchor="middle" x="222.84" y="-425.3" font-family="Times,serif" font-size="14.00">:ui:core</text>
</g>
<!-- :ui:test:screenshot&#45;&gt;:ui:core -->
<g id="edge5" class="edge">
<title>:ui:test:screenshot&#45;&gt;:ui:core</title>
<path fill="none" stroke="black" stroke-dasharray="1,5" d="M185.51,-558.63C185.51,-558.63 185.51,-449.67 185.51,-449.67"/>
<polygon fill="black" stroke="black" points="189.01,-449.67 185.51,-439.67 182.01,-449.67 189.01,-449.67"/>
</g>
<!-- :test:image -->
<g id="node7" class="node">
<title>:test:image</title>
<ellipse fill="#9affb5" stroke="black" cx="95.84" cy="-429" rx="63.09" ry="18"/>
<text text-anchor="middle" x="95.84" y="-425.3" font-family="Times,serif" font-size="14.00">:test:image</text>
</g>
<!-- :ui:test:screenshot&#45;&gt;:test:image -->
<g id="edge6" class="edge">
<title>:ui:test:screenshot&#45;&gt;:test:image</title>
<path fill="none" stroke="black" stroke-dasharray="1,5" d="M95.84,-547.81C95.84,-547.81 95.84,-457.27 95.84,-457.27"/>
<polygon fill="black" stroke="black" points="99.34,-457.27 95.84,-447.27 92.34,-457.27 99.34,-457.27"/>
</g>
<!-- :ui:common&#45;&gt;:ui:test:screenshot -->
<g id="edge8" class="edge">
<title>:ui:common&#45;&gt;:ui:test:screenshot</title>
<path fill="none" stroke="#ff9ab1" stroke-dasharray="1,5" d="M284.11,-709C239.05,-709 185.4,-709 185.4,-709 185.4,-709 185.4,-583.29 185.4,-583.29"/>
<polygon fill="#ff9ab1" stroke="#ff9ab1" points="188.9,-583.29 185.4,-573.29 181.9,-583.29 188.9,-583.29"/>
</g>
<!-- :ui:common&#45;&gt;:shared:domain -->
<g id="edge10" class="edge">
<title>:ui:common&#45;&gt;:shared:domain</title>
<path fill="none" stroke="black" d="M370.64,-686.26C370.64,-580.73 370.64,-12 370.64,-12 370.64,-12 448.61,-12 448.61,-12"/>
<polygon fill="black" stroke="black" points="448.61,-15.5 458.61,-12 448.61,-8.5 448.61,-15.5"/>
</g>
<!-- :ui:common&#45;&gt;:ui:core -->
<g id="edge11" class="edge">
<title>:ui:common&#45;&gt;:ui:core</title>
<path fill="none" stroke="black" d="M284.04,-697C253.04,-697 221.79,-697 221.79,-697 221.79,-697 221.79,-457 221.79,-457"/>
<polygon fill="black" stroke="black" points="225.29,-457 221.79,-447 218.29,-457 225.29,-457"/>
</g>
<!-- :test&#45;data -->
<g id="node8" class="node">
<title>:test&#45;data</title>
<ellipse fill="#b59aff" stroke="black" cx="671.84" cy="-566" rx="55.49" ry="18"/>
<text text-anchor="middle" x="671.84" y="-562.3" font-family="Times,serif" font-size="14.00">:test&#45;data</text>
</g>
<!-- :ui:common&#45;&gt;:test&#45;data -->
<g id="edge7" class="edge">
<title>:ui:common&#45;&gt;:test&#45;data</title>
<path fill="none" stroke="#ff9ab1" stroke-dasharray="1,5" d="M396.34,-692.09C396.34,-661.13 396.34,-575 396.34,-575 396.34,-575 613.85,-575 613.85,-575"/>
<polygon fill="#ff9ab1" stroke="#ff9ab1" points="613.85,-578.5 623.85,-575 613.85,-571.5 613.85,-578.5"/>
</g>
<!-- :core:coroutines -->
<g id="node9" class="node">
<title>:core:coroutines</title>
<ellipse fill="#b59aff" stroke="black" cx="536.84" cy="-155" rx="85.29" ry="18"/>
<text text-anchor="middle" x="536.84" y="-151.3" font-family="Times,serif" font-size="14.00">:core:coroutines</text>
</g>
<!-- :ui:common&#45;&gt;:core:coroutines -->
<g id="edge9" class="edge">
<title>:ui:common&#45;&gt;:core:coroutines</title>
<path fill="none" stroke="#ff9ab1" stroke-dasharray="1,5" d="M383.49,-688.34C383.49,-601.19 383.49,-155 383.49,-155 383.49,-155 441.64,-155 441.64,-155"/>
<polygon fill="#ff9ab1" stroke="#ff9ab1" points="441.64,-158.5 451.64,-155 441.64,-151.5 441.64,-158.5"/>
</g>
<!-- :core:logging:api -->
<g id="node10" class="node">
<title>:core:logging:api</title>
<ellipse fill="#b59aff" stroke="black" cx="979.84" cy="-18" rx="88.28" ry="18"/>
<text text-anchor="middle" x="979.84" y="-14.3" font-family="Times,serif" font-size="14.00">:core:logging:api</text>
</g>
<!-- :ui:common&#45;&gt;:core:logging:api -->
<g id="edge12" class="edge">
<title>:ui:common&#45;&gt;:core:logging:api</title>
<path fill="none" stroke="black" stroke-dasharray="1,5" d="M409.22,-703C563.4,-703 941.11,-703 941.11,-703 941.11,-703 941.11,-44.26 941.11,-44.26"/>
<polygon fill="black" stroke="black" points="944.61,-44.26 941.11,-34.26 937.61,-44.26 944.61,-44.26"/>
</g>
<!-- :ui:image -->
<g id="node11" class="node">
<title>:ui:image</title>
<ellipse fill="#b59aff" stroke="black" cx="303.84" cy="-566" rx="53.89" ry="18"/>
<text text-anchor="middle" x="303.84" y="-562.3" font-family="Times,serif" font-size="14.00">:ui:image</text>
</g>
<!-- :ui:common&#45;&gt;:ui:image -->
<g id="edge13" class="edge">
<title>:ui:common&#45;&gt;:ui:image</title>
<path fill="none" stroke="black" stroke-dasharray="1,5" d="M319.14,-686.47C319.14,-686.47 319.14,-593.45 319.14,-593.45"/>
<polygon fill="black" stroke="black" points="322.64,-593.45 319.14,-583.45 315.64,-593.45 322.64,-593.45"/>
</g>
<!-- :data:database&#45;&gt;:shared:domain -->
<g id="edge14" class="edge">
<title>:data:database&#45;&gt;:shared:domain</title>
<path fill="none" stroke="black" stroke-dasharray="1,5" d="M669.12,-274.83C669.12,-215.68 669.12,-24 669.12,-24 669.12,-24 624.93,-24 624.93,-24"/>
<polygon fill="black" stroke="black" points="624.93,-20.5 614.93,-24 624.93,-27.5 624.93,-20.5"/>
</g>
<!-- :data:database&#45;&gt;:core:coroutines -->
<g id="edge15" class="edge">
<title>:data:database&#45;&gt;:core:coroutines</title>
<path fill="none" stroke="black" stroke-dasharray="1,5" d="M593.77,-278.11C593.77,-278.11 593.77,-178.52 593.77,-178.52"/>
<polygon fill="black" stroke="black" points="597.27,-178.52 593.77,-168.52 590.27,-178.52 597.27,-178.52"/>
</g>
<!-- :data:musicbrainz -->
<g id="node12" class="node">
<title>:data:musicbrainz</title>
<ellipse fill="#b59aff" stroke="black" cx="809.84" cy="-155" rx="93.68" ry="18"/>
<text text-anchor="middle" x="809.84" y="-151.3" font-family="Times,serif" font-size="14.00">:data:musicbrainz</text>
</g>
<!-- :data:database&#45;&gt;:data:musicbrainz -->
<g id="edge16" class="edge">
<title>:data:database&#45;&gt;:data:musicbrainz</title>
<path fill="none" stroke="black" stroke-dasharray="1,5" d="M720.19,-286.11C720.19,-286.11 720.19,-170.41 720.19,-170.41"/>
<polygon fill="black" stroke="black" points="723.69,-170.41 720.19,-160.41 716.69,-170.41 723.69,-170.41"/>
</g>
<!-- :shared:strings -->
<g id="node13" class="node">
<title>:shared:strings</title>
<ellipse fill="#b59aff" stroke="black" cx="222.84" cy="-292" rx="81.49" ry="18"/>
<text text-anchor="middle" x="222.84" y="-288.3" font-family="Times,serif" font-size="14.00">:shared:strings</text>
</g>
<!-- :ui:core&#45;&gt;:shared:strings -->
<g id="edge17" class="edge">
<title>:ui:core&#45;&gt;:shared:strings</title>
<path fill="none" stroke="black" d="M222.84,-410.81C222.84,-410.81 222.84,-320.27 222.84,-320.27"/>
<polygon fill="black" stroke="black" points="226.34,-320.27 222.84,-310.27 219.34,-320.27 226.34,-320.27"/>
</g>
<!-- :test&#45;data&#45;&gt;:shared:domain -->
<g id="edge18" class="edge">
<title>:test&#45;data&#45;&gt;:shared:domain</title>
<path fill="none" stroke="black" stroke-dasharray="1,5" d="M616.46,-566C545.19,-566 430.44,-566 430.44,-566 430.44,-566 430.44,-24 430.44,-24 430.44,-24 448.96,-24 448.96,-24"/>
<polygon fill="black" stroke="black" points="448.96,-27.5 458.96,-24 448.96,-20.5 448.96,-27.5"/>
</g>
<!-- :test&#45;data&#45;&gt;:data:database -->
<g id="edge20" class="edge">
<title>:test&#45;data&#45;&gt;:data:database</title>
<path fill="none" stroke="black" stroke-dasharray="1,5" d="M632.2,-553.15C632.2,-553.15 632.2,-319.96 632.2,-319.96"/>
<polygon fill="black" stroke="black" points="635.7,-319.96 632.2,-309.96 628.7,-319.96 635.7,-319.96"/>
</g>
<!-- :test&#45;data&#45;&gt;:core:coroutines -->
<g id="edge19" class="edge">
<title>:test&#45;data&#45;&gt;:core:coroutines</title>
<path fill="none" stroke="black" stroke-dasharray="1,5" d="M623.97,-557C569.99,-557 489.65,-557 489.65,-557 489.65,-557 489.65,-180.27 489.65,-180.27"/>
<polygon fill="black" stroke="black" points="493.15,-180.27 489.65,-170.27 486.15,-180.27 493.15,-180.27"/>
</g>
<!-- :test&#45;data&#45;&gt;:data:musicbrainz -->
<g id="edge21" class="edge">
<title>:test&#45;data&#45;&gt;:data:musicbrainz</title>
<path fill="none" stroke="black" stroke-dasharray="1,5" d="M724.34,-560C777.41,-560 851.66,-560 851.66,-560 851.66,-560 851.66,-181.13 851.66,-181.13"/>
<polygon fill="black" stroke="black" points="855.16,-181.13 851.66,-171.13 848.16,-181.13 855.16,-181.13"/>
</g>
<!-- :data:coverart -->
<g id="node14" class="node">
<title>:data:coverart</title>
<ellipse fill="#b59aff" stroke="black" cx="723.84" cy="-429" rx="76.09" ry="18"/>
<text text-anchor="middle" x="723.84" y="-425.3" font-family="Times,serif" font-size="14.00">:data:coverart</text>
</g>
<!-- :test&#45;data&#45;&gt;:data:coverart -->
<g id="edge22" class="edge">
<title>:test&#45;data&#45;&gt;:data:coverart</title>
<path fill="none" stroke="black" stroke-dasharray="1,5" d="M674.23,-547.81C674.23,-547.81 674.23,-452.71 674.23,-452.71"/>
<polygon fill="black" stroke="black" points="677.73,-452.71 674.23,-442.71 670.73,-452.71 677.73,-452.71"/>
</g>
<!-- :data:spotify -->
<g id="node15" class="node">
<title>:data:spotify</title>
<ellipse fill="#b59aff" stroke="black" cx="1028.84" cy="-155" rx="68.79" ry="18"/>
<text text-anchor="middle" x="1028.84" y="-151.3" font-family="Times,serif" font-size="14.00">:data:spotify</text>
</g>
<!-- :test&#45;data&#45;&gt;:data:spotify -->
<g id="edge23" class="edge">
<title>:test&#45;data&#45;&gt;:data:spotify</title>
<path fill="none" stroke="black" stroke-dasharray="1,5" d="M724.13,-572C823.29,-572 1028.84,-572 1028.84,-572 1028.84,-572 1028.84,-183.19 1028.84,-183.19"/>
<polygon fill="black" stroke="black" points="1032.34,-183.19 1028.84,-173.19 1025.34,-183.19 1032.34,-183.19"/>
</g>
<!-- :ui:image&#45;&gt;:shared:domain -->
<g id="edge24" class="edge">
<title>:ui:image&#45;&gt;:shared:domain</title>
<path fill="none" stroke="black" stroke-dasharray="1,5" d="M330.94,-550.41C330.94,-459.8 330.94,-5 330.94,-5 330.94,-5 469.49,-5 469.49,-5"/>
<polygon fill="black" stroke="black" points="469.49,-8.5 479.49,-5 469.49,-1.5 469.49,-8.5"/>
</g>
<!-- :ui:image&#45;&gt;:ui:core -->
<g id="edge25" class="edge">
<title>:ui:image&#45;&gt;:ui:core</title>
<path fill="none" stroke="black" stroke-dasharray="1,5" d="M259.12,-555.7C259.12,-555.7 259.12,-450.18 259.12,-450.18"/>
<polygon fill="black" stroke="black" points="262.62,-450.18 259.12,-440.18 255.62,-450.18 262.62,-450.18"/>
</g>
<!-- :data:musicbrainz&#45;&gt;:shared:domain -->
<g id="edge26" class="edge">
<title>:data:musicbrainz&#45;&gt;:shared:domain</title>
<path fill="none" stroke="black" stroke-dasharray="1,5" d="M803.85,-136.89C803.85,-98.41 803.85,-12 803.85,-12 803.85,-12 624.79,-12 624.79,-12"/>
<polygon fill="black" stroke="black" points="624.79,-8.5 614.79,-12 624.79,-15.5 624.79,-8.5"/>
</g>
<!-- :data:musicbrainz&#45;&gt;:core:logging:api -->
<g id="edge27" class="edge">
<title>:data:musicbrainz&#45;&gt;:core:logging:api</title>
<path fill="none" stroke="black" stroke-dasharray="1,5" d="M897.44,-148.39C897.44,-148.39 897.44,-34.54 897.44,-34.54"/>
<polygon fill="black" stroke="black" points="900.94,-34.54 897.44,-24.54 893.94,-34.54 900.94,-34.54"/>
</g>
<!-- :data:coverart&#45;&gt;:shared:domain -->
<g id="edge28" class="edge">
<title>:data:coverart&#45;&gt;:shared:domain</title>
<path fill="none" stroke="black" stroke-dasharray="1,5" d="M652.12,-435C568.35,-435 441.07,-435 441.07,-435 441.07,-435 441.07,-30 441.07,-30 441.07,-30 465.11,-30 465.11,-30"/>
<polygon fill="black" stroke="black" points="465.11,-33.5 475.11,-30 465.11,-26.5 465.11,-33.5"/>
</g>
<!-- :data:coverart&#45;&gt;:data:database -->
<g id="edge33" class="edge">
<title>:data:coverart&#45;&gt;:data:database</title>
<path fill="none" stroke="#ff9ab1" stroke-dasharray="1,5" d="M685.97,-413.28C685.97,-413.28 685.97,-317.53 685.97,-317.53"/>
<polygon fill="#ff9ab1" stroke="#ff9ab1" points="689.47,-317.53 685.97,-307.53 682.47,-317.53 689.47,-317.53"/>
</g>
<!-- :data:coverart&#45;&gt;:test&#45;data -->
<g id="edge31" class="edge">
<title>:data:coverart&#45;&gt;:test&#45;data</title>
<path fill="none" stroke="#ff9ab1" stroke-dasharray="1,5" d="M700.66,-446.35C700.66,-446.35 700.66,-540.48 700.66,-540.48"/>
<polygon fill="#ff9ab1" stroke="#ff9ab1" points="697.16,-540.48 700.66,-550.48 704.16,-540.48 697.16,-540.48"/>
</g>
<!-- :data:coverart&#45;&gt;:core:coroutines -->
<g id="edge30" class="edge">
<title>:data:coverart&#45;&gt;:core:coroutines</title>
<path fill="none" stroke="black" stroke-dasharray="1,5" d="M651.88,-423C595.87,-423 527.6,-423 527.6,-423 527.6,-423 527.6,-183 527.6,-183"/>
<polygon fill="black" stroke="black" points="531.1,-183 527.6,-173 524.1,-183 531.1,-183"/>
</g>
<!-- :data:coverart&#45;&gt;:core:logging:api -->
<g id="edge29" class="edge">
<title>:data:coverart&#45;&gt;:core:logging:api</title>
<path fill="none" stroke="black" stroke-dasharray="1,5" d="M799.99,-429C855.95,-429 922.27,-429 922.27,-429 922.27,-429 922.27,-41.67 922.27,-41.67"/>
<polygon fill="black" stroke="black" points="925.77,-41.67 922.27,-31.67 918.77,-41.67 925.77,-41.67"/>
</g>
<!-- :data:coverart&#45;&gt;:data:musicbrainz -->
<g id="edge32" class="edge">
<title>:data:coverart&#45;&gt;:data:musicbrainz</title>
<path fill="none" stroke="#ff9ab1" stroke-dasharray="1,5" d="M762.01,-413.08C762.01,-413.08 762.01,-180.62 762.01,-180.62"/>
<polygon fill="#ff9ab1" stroke="#ff9ab1" points="765.51,-180.62 762.01,-170.62 758.51,-180.62 765.51,-180.62"/>
</g>
<!-- :data:spotify&#45;&gt;:shared:domain -->
<g id="edge34" class="edge">
<title>:data:spotify&#45;&gt;:shared:domain</title>
<path fill="none" stroke="black" stroke-dasharray="1,5" d="M996.04,-139C996.04,-118.61 996.04,-86 996.04,-86 996.04,-86 536.84,-86 536.84,-86 536.84,-86 536.84,-46.22 536.84,-46.22"/>
<polygon fill="black" stroke="black" points="540.34,-46.22 536.84,-36.22 533.34,-46.22 540.34,-46.22"/>
</g>
<!-- :data:spotify&#45;&gt;:core:logging:api -->
<g id="edge35" class="edge">
<title>:data:spotify&#45;&gt;:core:logging:api</title>
<path fill="none" stroke="black" stroke-dasharray="1,5" d="M1032.14,-136.81C1032.14,-136.81 1032.14,-42.9 1032.14,-42.9"/>
<polygon fill="black" stroke="black" points="1035.64,-42.9 1032.14,-32.9 1028.64,-42.9 1035.64,-42.9"/>
</g>
</g>
</svg>
