<?xml version="1.0" encoding="UTF-8" standalone="no"?>
<!DOCTYPE svg PUBLIC "-//W3C//DTD SVG 1.1//EN"
 "http://www.w3.org/Graphics/SVG/1.1/DTD/svg11.dtd">
<!-- Generated by graphviz version 2.43.0 (0)
 -->
<!-- Title: %3 Pages: 1 -->
<svg width="1082pt" height="666pt"
 viewBox="0.00 0.00 1081.98 666.00" xmlns="http://www.w3.org/2000/svg" xmlns:xlink="http://www.w3.org/1999/xlink">
<g id="graph0" class="graph" transform="scale(1 1) rotate(0) translate(4 662)">
<title>%3</title>
<polygon fill="white" stroke="transparent" points="-4,4 -4,-662 1077.98,-662 1077.98,4 -4,4"/>
<text text-anchor="middle" x="536.99" y="-630" font-family="Times,serif" font-size="30.00">Dependencies</text>
<text text-anchor="middle" x="536.99" y="-597" font-family="Times,serif" font-size="30.00"> </text>
<!-- :shared:feature:stats -->
<g id="node1" class="node">
<title>:shared:feature:stats</title>
<polygon fill="#b59aff" stroke="black" points="746.84,-584 580.84,-584 580.84,-548 746.84,-548 746.84,-584"/>
<text text-anchor="middle" x="663.84" y="-562.3" font-family="Times,serif" font-size="14.00">:shared:feature:stats</text>
</g>
<!-- :ui:test:screenshot -->
<g id="node2" class="node">
<title>:ui:test:screenshot</title>
<ellipse fill="#9affb5" stroke="black" cx="96.84" cy="-292" rx="96.68" ry="18"/>
<text text-anchor="middle" x="96.84" y="-288.3" font-family="Times,serif" font-size="14.00">:ui:test:screenshot</text>
</g>
<!-- :shared:feature:stats&#45;&gt;:ui:test:screenshot -->
<g id="edge1" class="edge">
<title>:shared:feature:stats&#45;&gt;:ui:test:screenshot</title>
<path fill="none" stroke="#ff9ab1" stroke-dasharray="1,5" d="M580.83,-566C416.3,-566 64.56,-566 64.56,-566 64.56,-566 64.56,-319.14 64.56,-319.14"/>
<polygon fill="#ff9ab1" stroke="#ff9ab1" points="68.06,-319.14 64.56,-309.14 61.06,-319.14 68.06,-319.14"/>
</g>
<!-- :ui:common -->
<g id="node3" class="node">
<title>:ui:common</title>
<ellipse fill="#b59aff" stroke="black" cx="437.84" cy="-429" rx="64.19" ry="18"/>
<text text-anchor="middle" x="437.84" y="-425.3" font-family="Times,serif" font-size="14.00">:ui:common</text>
</g>
<!-- :shared:feature:stats&#45;&gt;:ui:common -->
<g id="edge2" class="edge">
<title>:shared:feature:stats&#45;&gt;:ui:common</title>
<path fill="none" stroke="black" stroke-dasharray="1,5" d="M597.57,-547.93C597.57,-511.35 597.57,-432 597.57,-432 597.57,-432 511.43,-432 511.43,-432"/>
<polygon fill="black" stroke="black" points="511.43,-428.5 501.43,-432 511.43,-435.5 511.43,-428.5"/>
</g>
<!-- :shared:domain -->
<g id="node4" class="node">
<title>:shared:domain</title>
<ellipse fill="#b59aff" stroke="black" cx="696.84" cy="-155" rx="82.59" ry="18"/>
<text text-anchor="middle" x="696.84" y="-151.3" font-family="Times,serif" font-size="14.00">:shared:domain</text>
</g>
<!-- :shared:feature:stats&#45;&gt;:shared:domain -->
<g id="edge3" class="edge">
<title>:shared:feature:stats&#45;&gt;:shared:domain</title>
<path fill="none" stroke="black" stroke-dasharray="1,5" d="M620.26,-547.81C620.26,-547.81 620.26,-171.89 620.26,-171.89"/>
<polygon fill="black" stroke="black" points="623.76,-171.89 620.26,-161.89 616.76,-171.89 623.76,-171.89"/>
</g>
<!-- :data:database -->
<g id="node5" class="node">
<title>:data:database</title>
<ellipse fill="#b59aff" stroke="black" cx="944.84" cy="-429" rx="79.09" ry="18"/>
<text text-anchor="middle" x="944.84" y="-425.3" font-family="Times,serif" font-size="14.00">:data:database</text>
</g>
<!-- :shared:feature:stats&#45;&gt;:data:database -->
<g id="edge4" class="edge">
<title>:shared:feature:stats&#45;&gt;:data:database</title>
<path fill="none" stroke="black" stroke-dasharray="1,5" d="M705.31,-547.8C705.31,-512.69 705.31,-439 705.31,-439 705.31,-439 868.75,-439 868.75,-439"/>
<polygon fill="black" stroke="black" points="868.75,-442.5 878.75,-439 868.75,-435.5 868.75,-442.5"/>
</g>
<!-- :ui:core -->
<g id="node6" class="node">
<title>:ui:core</title>
<ellipse fill="#b59aff" stroke="black" cx="222.84" cy="-155" rx="45.49" ry="18"/>
<text text-anchor="middle" x="222.84" y="-151.3" font-family="Times,serif" font-size="14.00">:ui:core</text>
</g>
<!-- :ui:test:screenshot&#45;&gt;:ui:core -->
<g id="edge5" class="edge">
<title>:ui:test:screenshot&#45;&gt;:ui:core</title>
<path fill="none" stroke="black" stroke-dasharray="1,5" d="M185.51,-284.63C185.51,-284.63 185.51,-175.67 185.51,-175.67"/>
<polygon fill="black" stroke="black" points="189.01,-175.67 185.51,-165.67 182.01,-175.67 189.01,-175.67"/>
</g>
<!-- :test:image -->
<g id="node7" class="node">
<title>:test:image</title>
<ellipse fill="#9affb5" stroke="black" cx="95.84" cy="-155" rx="63.09" ry="18"/>
<text text-anchor="middle" x="95.84" y="-151.3" font-family="Times,serif" font-size="14.00">:test:image</text>
</g>
<!-- :ui:test:screenshot&#45;&gt;:test:image -->
<g id="edge6" class="edge">
<title>:ui:test:screenshot&#45;&gt;:test:image</title>
<path fill="none" stroke="black" stroke-dasharray="1,5" d="M95.84,-273.81C95.84,-273.81 95.84,-183.27 95.84,-183.27"/>
<polygon fill="black" stroke="black" points="99.34,-183.27 95.84,-173.27 92.34,-183.27 99.34,-183.27"/>
</g>
<!-- :ui:common&#45;&gt;:ui:test:screenshot -->
<g id="edge7" class="edge">
<title>:ui:common&#45;&gt;:ui:test:screenshot</title>
<path fill="none" stroke="#ff9ab1" stroke-dasharray="1,5" d="M373.12,-429C282.6,-429 129.12,-429 129.12,-429 129.12,-429 129.12,-319.07 129.12,-319.07"/>
<polygon fill="#ff9ab1" stroke="#ff9ab1" points="132.62,-319.07 129.12,-309.07 125.62,-319.07 132.62,-319.07"/>
</g>
<!-- :ui:common&#45;&gt;:shared:domain -->
<g id="edge8" class="edge">
<title>:ui:common&#45;&gt;:shared:domain</title>
<path fill="none" stroke="black" d="M489.06,-418C542.41,-418 618.27,-418 618.27,-418 618.27,-418 618.27,-170.99 618.27,-170.99"/>
<polygon fill="black" stroke="black" points="621.77,-170.99 618.27,-160.99 614.77,-170.99 621.77,-170.99"/>
</g>
<!-- :ui:common&#45;&gt;:ui:core -->
<g id="edge9" class="edge">
<title>:ui:common&#45;&gt;:ui:core</title>
<path fill="none" stroke="black" d="M392.13,-416.15C392.13,-361.98 392.13,-155 392.13,-155 392.13,-155 278.65,-155 278.65,-155"/>
<polygon fill="black" stroke="black" points="278.65,-151.5 268.65,-155 278.65,-158.5 278.65,-151.5"/>
</g>
<!-- :data:coverart -->
<g id="node8" class="node">
<title>:data:coverart</title>
<ellipse fill="#b59aff" stroke="black" cx="489.84" cy="-292" rx="76.09" ry="18"/>
<text text-anchor="middle" x="489.84" y="-288.3" font-family="Times,serif" font-size="14.00">:data:coverart</text>
</g>
<!-- :ui:common&#45;&gt;:data:coverart -->
<g id="edge10" class="edge">
<title>:ui:common&#45;&gt;:data:coverart</title>
<path fill="none" stroke="black" stroke-dasharray="1,5" d="M457.99,-411.65C457.99,-411.65 457.99,-318.36 457.99,-318.36"/>
<polygon fill="black" stroke="black" points="461.49,-318.36 457.99,-308.36 454.49,-318.36 461.49,-318.36"/>
</g>
<!-- :data:musicbrainz -->
<g id="node9" class="node">
<title>:data:musicbrainz</title>
<ellipse fill="#b59aff" stroke="black" cx="715.84" cy="-292" rx="93.68" ry="18"/>
<text text-anchor="middle" x="715.84" y="-288.3" font-family="Times,serif" font-size="14.00">:data:musicbrainz</text>
</g>
<!-- :ui:common&#45;&gt;:data:musicbrainz -->
<g id="edge11" class="edge">
<title>:ui:common&#45;&gt;:data:musicbrainz</title>
<path fill="none" stroke="black" stroke-dasharray="1,5" d="M500.78,-425C567.63,-425 663.78,-425 663.78,-425 663.78,-425 663.78,-317 663.78,-317"/>
<polygon fill="black" stroke="black" points="667.28,-317 663.78,-307 660.28,-317 667.28,-317"/>
</g>
<!-- :core:logging:api -->
<g id="node10" class="node">
<title>:core:logging:api</title>
<ellipse fill="#b59aff" stroke="black" cx="489.84" cy="-155" rx="88.28" ry="18"/>
<text text-anchor="middle" x="489.84" y="-151.3" font-family="Times,serif" font-size="14.00">:core:logging:api</text>
</g>
<!-- :ui:common&#45;&gt;:core:logging:api -->
<g id="edge12" class="edge">
<title>:ui:common&#45;&gt;:core:logging:api</title>
<path fill="none" stroke="black" stroke-dasharray="1,5" d="M407.62,-413.08C407.62,-413.08 407.62,-171.72 407.62,-171.72"/>
<polygon fill="black" stroke="black" points="411.12,-171.72 407.62,-161.72 404.12,-171.72 411.12,-171.72"/>
</g>
<!-- :ui:image -->
<g id="node11" class="node">
<title>:ui:image</title>
<ellipse fill="#b59aff" stroke="black" cx="303.84" cy="-292" rx="53.89" ry="18"/>
<text text-anchor="middle" x="303.84" y="-288.3" font-family="Times,serif" font-size="14.00">:ui:image</text>
</g>
<!-- :ui:common&#45;&gt;:ui:image -->
<g id="edge13" class="edge">
<title>:ui:common&#45;&gt;:ui:image</title>
<path fill="none" stroke="black" stroke-dasharray="1,5" d="M382.81,-419.58C382.81,-388.63 382.81,-292 382.81,-292 382.81,-292 367.83,-292 367.83,-292"/>
<polygon fill="black" stroke="black" points="367.83,-288.5 357.83,-292 367.83,-295.5 367.83,-288.5"/>
</g>
<!-- :data:database&#45;&gt;:shared:domain -->
<g id="edge14" class="edge">
<title>:data:database&#45;&gt;:shared:domain</title>
<path fill="none" stroke="black" stroke-dasharray="1,5" d="M890.98,-415.78C890.98,-361.05 890.98,-155 890.98,-155 890.98,-155 789.46,-155 789.46,-155"/>
<polygon fill="black" stroke="black" points="789.46,-151.5 779.46,-155 789.46,-158.5 789.46,-151.5"/>
</g>
<!-- :data:database&#45;&gt;:data:musicbrainz -->
<g id="edge16" class="edge">
<title>:data:database&#45;&gt;:data:musicbrainz</title>
<path fill="none" stroke="black" stroke-dasharray="1,5" d="M878.27,-419.15C878.27,-387.73 878.27,-292 878.27,-292 878.27,-292 819.85,-292 819.85,-292"/>
<polygon fill="black" stroke="black" points="819.85,-288.5 809.85,-292 819.85,-295.5 819.85,-288.5"/>
</g>
<!-- :core:coroutines -->
<g id="node12" class="node">
<title>:core:coroutines</title>
<ellipse fill="#b59aff" stroke="black" cx="988.84" cy="-292" rx="85.29" ry="18"/>
<text text-anchor="middle" x="988.84" y="-288.3" font-family="Times,serif" font-size="14.00">:core:coroutines</text>
</g>
<!-- :data:database&#45;&gt;:core:coroutines -->
<g id="edge15" class="edge">
<title>:data:database&#45;&gt;:core:coroutines</title>
<path fill="none" stroke="black" stroke-dasharray="1,5" d="M963.92,-411.37C963.92,-411.37 963.92,-319.56 963.92,-319.56"/>
<polygon fill="black" stroke="black" points="967.42,-319.56 963.92,-309.56 960.42,-319.56 967.42,-319.56"/>
</g>
<!-- :shared:strings -->
<g id="node13" class="node">
<title>:shared:strings</title>
<ellipse fill="#b59aff" stroke="black" cx="222.84" cy="-18" rx="81.49" ry="18"/>
<text text-anchor="middle" x="222.84" y="-14.3" font-family="Times,serif" font-size="14.00">:shared:strings</text>
</g>
<!-- :ui:core&#45;&gt;:shared:strings -->
<g id="edge17" class="edge">
<title>:ui:core&#45;&gt;:shared:strings</title>
<path fill="none" stroke="black" d="M222.84,-136.81C222.84,-136.81 222.84,-46.27 222.84,-46.27"/>
<polygon fill="black" stroke="black" points="226.34,-46.27 222.84,-36.27 219.34,-46.27 226.34,-46.27"/>
</g>
<!-- :data:coverart&#45;&gt;:shared:domain -->
<g id="edge18" class="edge">
<title>:data:coverart&#45;&gt;:shared:domain</title>
<path fill="none" stroke="black" stroke-dasharray="1,5" d="M561.56,-286C590.1,-286 616.29,-286 616.29,-286 616.29,-286 616.29,-169.06 616.29,-169.06"/>
<polygon fill="black" stroke="black" points="619.79,-169.06 616.29,-159.06 612.79,-169.06 619.79,-169.06"/>
</g>
<!-- :data:coverart&#45;&gt;:core:logging:api -->
<g id="edge19" class="edge">
<title>:data:coverart&#45;&gt;:core:logging:api</title>
<path fill="none" stroke="black" stroke-dasharray="1,5" d="M489.84,-273.81C489.84,-273.81 489.84,-183.27 489.84,-183.27"/>
<polygon fill="black" stroke="black" points="493.34,-183.27 489.84,-173.27 486.34,-183.27 493.34,-183.27"/>
</g>
<!-- :data:musicbrainz&#45;&gt;:shared:domain -->
<g id="edge20" class="edge">
<title>:data:musicbrainz&#45;&gt;:shared:domain</title>
<path fill="none" stroke="black" stroke-dasharray="1,5" d="M727.01,-274.09C727.01,-274.09 727.01,-182.05 727.01,-182.05"/>
<polygon fill="black" stroke="black" points="730.51,-182.05 727.01,-172.05 723.51,-182.05 730.51,-182.05"/>
</g>
<!-- :data:musicbrainz&#45;&gt;:core:logging:api -->
<g id="edge21" class="edge">
<title>:data:musicbrainz&#45;&gt;:core:logging:api</title>
<path fill="none" stroke="black" stroke-dasharray="1,5" d="M627.24,-298C597.65,-298 572.06,-298 572.06,-298 572.06,-298 572.06,-171.9 572.06,-171.9"/>
<polygon fill="black" stroke="black" points="575.56,-171.9 572.06,-161.9 568.56,-171.9 575.56,-171.9"/>
</g>
<!-- :ui:image&#45;&gt;:shared:domain -->
<g id="edge22" class="edge">
<title>:ui:image&#45;&gt;:shared:domain</title>
<path fill="none" stroke="black" stroke-dasharray="1,5" d="M330.94,-276.34C330.94,-255.98 330.94,-223 330.94,-223 330.94,-223 674.63,-223 674.63,-223 674.63,-223 674.63,-182.51 674.63,-182.51"/>
<polygon fill="black" stroke="black" points="678.13,-182.51 674.63,-172.51 671.13,-182.51 678.13,-182.51"/>
</g>
<!-- :ui:image&#45;&gt;:ui:core -->
<g id="edge23" class="edge">
<title>:ui:image&#45;&gt;:ui:core</title>
<path fill="none" stroke="black" stroke-dasharray="1,5" d="M259.12,-281.7C259.12,-281.7 259.12,-176.18 259.12,-176.18"/>
<polygon fill="black" stroke="black" points="262.62,-176.18 259.12,-166.18 255.62,-176.18 262.62,-176.18"/>
</g>
</g>
</svg>
