<?xml version="1.0" encoding="UTF-8" standalone="no"?>
<!DOCTYPE svg PUBLIC "-//W3C//DTD SVG 1.1//EN"
 "http://www.w3.org/Graphics/SVG/1.1/DTD/svg11.dtd">
<!-- Generated by graphviz version 2.43.0 (0)
 -->
<!-- Title: %3 Pages: 1 -->
<svg width="1163pt" height="1077pt"
 viewBox="0.00 0.00 1162.98 1077.00" xmlns="http://www.w3.org/2000/svg" xmlns:xlink="http://www.w3.org/1999/xlink">
<g id="graph0" class="graph" transform="scale(1 1) rotate(0) translate(4 1073)">
<title>%3</title>
<polygon fill="white" stroke="transparent" points="-4,4 -4,-1073 1158.98,-1073 1158.98,4 -4,4"/>
<text text-anchor="middle" x="577.49" y="-1041" font-family="Times,serif" font-size="30.00">Dependencies</text>
<text text-anchor="middle" x="577.49" y="-1008" font-family="Times,serif" font-size="30.00"> </text>
<!-- :shared:feature:stats -->
<g id="node1" class="node">
<title>:shared:feature:stats</title>
<polygon fill="#b59aff" stroke="black" points="478.84,-995 312.84,-995 312.84,-959 478.84,-959 478.84,-995"/>
<text text-anchor="middle" x="395.84" y="-973.3" font-family="Times,serif" font-size="14.00">:shared:feature:stats</text>
</g>
<!-- :ui:test:screenshot -->
<g id="node2" class="node">
<title>:ui:test:screenshot</title>
<ellipse fill="#9affb5" stroke="black" cx="96.84" cy="-703" rx="96.68" ry="18"/>
<text text-anchor="middle" x="96.84" y="-699.3" font-family="Times,serif" font-size="14.00">:ui:test:screenshot</text>
</g>
<!-- :shared:feature:stats&#45;&gt;:ui:test:screenshot -->
<g id="edge1" class="edge">
<title>:shared:feature:stats&#45;&gt;:ui:test:screenshot</title>
<path fill="none" stroke="#ff9ab1" stroke-dasharray="1,5" d="M312.55,-977C224.08,-977 96.84,-977 96.84,-977 96.84,-977 96.84,-731.4 96.84,-731.4"/>
<polygon fill="#ff9ab1" stroke="#ff9ab1" points="100.34,-731.4 96.84,-721.4 93.34,-731.4 100.34,-731.4"/>
</g>
<!-- :ui:common -->
<g id="node3" class="node">
<title>:ui:common</title>
<ellipse fill="#b59aff" stroke="black" cx="349.84" cy="-840" rx="64.19" ry="18"/>
<text text-anchor="middle" x="349.84" y="-836.3" font-family="Times,serif" font-size="14.00">:ui:common</text>
</g>
<!-- :shared:feature:stats&#45;&gt;:ui:common -->
<g id="edge2" class="edge">
<title>:shared:feature:stats&#45;&gt;:ui:common</title>
<path fill="none" stroke="black" stroke-dasharray="1,5" d="M363.51,-958.81C363.51,-958.81 363.51,-867.83 363.51,-867.83"/>
<polygon fill="black" stroke="black" points="367.01,-867.83 363.51,-857.83 360.01,-867.83 367.01,-867.83"/>
</g>
<!-- :shared:domain -->
<g id="node4" class="node">
<title>:shared:domain</title>
<ellipse fill="#b59aff" stroke="black" cx="498.84" cy="-155" rx="82.59" ry="18"/>
<text text-anchor="middle" x="498.84" y="-151.3" font-family="Times,serif" font-size="14.00">:shared:domain</text>
</g>
<!-- :shared:feature:stats&#45;&gt;:shared:domain -->
<g id="edge3" class="edge">
<title>:shared:feature:stats&#45;&gt;:shared:domain</title>
<path fill="none" stroke="black" stroke-dasharray="1,5" d="M453.82,-958.68C453.82,-958.68 453.82,-180.29 453.82,-180.29"/>
<polygon fill="black" stroke="black" points="457.32,-180.29 453.82,-170.29 450.32,-180.29 457.32,-180.29"/>
</g>
<!-- :data:database -->
<g id="node5" class="node">
<title>:data:database</title>
<ellipse fill="#b59aff" stroke="black" cx="924.84" cy="-429" rx="79.09" ry="18"/>
<text text-anchor="middle" x="924.84" y="-425.3" font-family="Times,serif" font-size="14.00">:data:database</text>
</g>
<!-- :shared:feature:stats&#45;&gt;:data:database -->
<g id="edge4" class="edge">
<title>:shared:feature:stats&#45;&gt;:data:database</title>
<path fill="none" stroke="black" stroke-dasharray="1,5" d="M466.33,-958.77C466.33,-863.68 466.33,-429 466.33,-429 466.33,-429 835.5,-429 835.5,-429"/>
<polygon fill="black" stroke="black" points="835.5,-432.5 845.5,-429 835.5,-425.5 835.5,-432.5"/>
</g>
<!-- :ui:core -->
<g id="node6" class="node">
<title>:ui:core</title>
<ellipse fill="#b59aff" stroke="black" cx="314.84" cy="-566" rx="45.49" ry="18"/>
<text text-anchor="middle" x="314.84" y="-562.3" font-family="Times,serif" font-size="14.00">:ui:core</text>
</g>
<!-- :ui:test:screenshot&#45;&gt;:ui:core -->
<g id="edge5" class="edge">
<title>:ui:test:screenshot&#45;&gt;:ui:core</title>
<path fill="none" stroke="black" stroke-dasharray="1,5" d="M173.69,-692C222.83,-692 277.42,-692 277.42,-692 277.42,-692 277.42,-586.31 277.42,-586.31"/>
<polygon fill="black" stroke="black" points="280.92,-586.31 277.42,-576.31 273.92,-586.31 280.92,-586.31"/>
</g>
<!-- :test:image -->
<g id="node7" class="node">
<title>:test:image</title>
<ellipse fill="#9affb5" stroke="black" cx="96.84" cy="-566" rx="63.09" ry="18"/>
<text text-anchor="middle" x="96.84" y="-562.3" font-family="Times,serif" font-size="14.00">:test:image</text>
</g>
<!-- :ui:test:screenshot&#45;&gt;:test:image -->
<g id="edge6" class="edge">
<title>:ui:test:screenshot&#45;&gt;:test:image</title>
<path fill="none" stroke="black" stroke-dasharray="1,5" d="M96.84,-684.81C96.84,-684.81 96.84,-594.27 96.84,-594.27"/>
<polygon fill="black" stroke="black" points="100.34,-594.27 96.84,-584.27 93.34,-594.27 100.34,-594.27"/>
</g>
<!-- :ui:common&#45;&gt;:ui:test:screenshot -->
<g id="edge8" class="edge">
<title>:ui:common&#45;&gt;:ui:test:screenshot</title>
<path fill="none" stroke="#ff9ab1" stroke-dasharray="1,5" d="M310.44,-825.7C310.44,-789.86 310.44,-699 310.44,-699 310.44,-699 201.46,-699 201.46,-699"/>
<polygon fill="#ff9ab1" stroke="#ff9ab1" points="201.46,-695.5 191.46,-699 201.46,-702.5 201.46,-695.5"/>
</g>
<!-- :ui:common&#45;&gt;:shared:domain -->
<g id="edge10" class="edge">
<title>:ui:common&#45;&gt;:shared:domain</title>
<path fill="none" stroke="black" d="M405.69,-831C424.73,-831 441.32,-831 441.32,-831 441.32,-831 441.32,-178.2 441.32,-178.2"/>
<polygon fill="black" stroke="black" points="444.82,-178.2 441.32,-168.2 437.82,-178.2 444.82,-178.2"/>
</g>
<!-- :ui:common&#45;&gt;:ui:core -->
<g id="edge11" class="edge">
<title>:ui:common&#45;&gt;:ui:core</title>
<path fill="none" stroke="black" d="M335.39,-822.44C335.39,-822.44 335.39,-592.37 335.39,-592.37"/>
<polygon fill="black" stroke="black" points="338.89,-592.37 335.39,-582.37 331.89,-592.37 338.89,-592.37"/>
</g>
<!-- :test&#45;data -->
<g id="node8" class="node">
<title>:test&#45;data</title>
<ellipse fill="#b59aff" stroke="black" cx="673.84" cy="-703" rx="55.49" ry="18"/>
<text text-anchor="middle" x="673.84" y="-699.3" font-family="Times,serif" font-size="14.00">:test&#45;data</text>
</g>
<!-- :ui:common&#45;&gt;:test&#45;data -->
<g id="edge7" class="edge">
<title>:ui:common&#45;&gt;:test&#45;data</title>
<path fill="none" stroke="#ff9ab1" stroke-dasharray="1,5" d="M387.21,-824.93C387.21,-791.29 387.21,-713 387.21,-713 387.21,-713 617.79,-713 617.79,-713"/>
<polygon fill="#ff9ab1" stroke="#ff9ab1" points="617.79,-716.5 627.79,-713 617.79,-709.5 617.79,-716.5"/>
</g>
<!-- :core:coroutines -->
<g id="node9" class="node">
<title>:core:coroutines</title>
<ellipse fill="#b59aff" stroke="black" cx="1069.84" cy="-18" rx="85.29" ry="18"/>
<text text-anchor="middle" x="1069.84" y="-14.3" font-family="Times,serif" font-size="14.00">:core:coroutines</text>
</g>
<!-- :ui:common&#45;&gt;:core:coroutines -->
<g id="edge9" class="edge">
<title>:ui:common&#45;&gt;:core:coroutines</title>
<path fill="none" stroke="#ff9ab1" stroke-dasharray="1,5" d="M405.72,-849C583.87,-849 1126.8,-849 1126.8,-849 1126.8,-849 1126.8,-41.39 1126.8,-41.39"/>
<polygon fill="#ff9ab1" stroke="#ff9ab1" points="1130.3,-41.39 1126.8,-31.39 1123.3,-41.39 1130.3,-41.39"/>
</g>
<!-- :core:logging:api -->
<g id="node10" class="node">
<title>:core:logging:api</title>
<ellipse fill="#b59aff" stroke="black" cx="953.84" cy="-155" rx="88.28" ry="18"/>
<text text-anchor="middle" x="953.84" y="-151.3" font-family="Times,serif" font-size="14.00">:core:logging:api</text>
</g>
<!-- :ui:common&#45;&gt;:core:logging:api -->
<g id="edge12" class="edge">
<title>:ui:common&#45;&gt;:core:logging:api</title>
<path fill="none" stroke="black" stroke-dasharray="1,5" d="M414.4,-840C582.94,-840 1023.18,-840 1023.18,-840 1023.18,-840 1023.18,-176.32 1023.18,-176.32"/>
<polygon fill="black" stroke="black" points="1026.68,-176.32 1023.18,-166.32 1019.68,-176.32 1026.68,-176.32"/>
</g>
<!-- :data:database&#45;&gt;:shared:domain -->
<g id="edge13" class="edge">
<title>:data:database&#45;&gt;:shared:domain</title>
<path fill="none" stroke="black" stroke-dasharray="1,5" d="M855.86,-420C741.14,-420 523.58,-420 523.58,-420 523.58,-420 523.58,-182.39 523.58,-182.39"/>
<polygon fill="black" stroke="black" points="527.08,-182.39 523.58,-172.39 520.08,-182.39 527.08,-182.39"/>
</g>
<!-- :data:database&#45;&gt;:core:coroutines -->
<g id="edge14" class="edge">
<title>:data:database&#45;&gt;:core:coroutines</title>
<path fill="none" stroke="black" stroke-dasharray="1,5" d="M1004.45,-429C1038.43,-429 1070.42,-429 1070.42,-429 1070.42,-429 1070.42,-46.19 1070.42,-46.19"/>
<polygon fill="black" stroke="black" points="1073.92,-46.19 1070.42,-36.19 1066.92,-46.19 1073.92,-46.19"/>
</g>
<!-- :data:musicbrainz -->
<g id="node11" class="node">
<title>:data:musicbrainz</title>
<ellipse fill="#b59aff" stroke="black" cx="833.84" cy="-292" rx="93.68" ry="18"/>
<text text-anchor="middle" x="833.84" y="-288.3" font-family="Times,serif" font-size="14.00">:data:musicbrainz</text>
</g>
<!-- :data:database&#45;&gt;:data:musicbrainz -->
<g id="edge15" class="edge">
<title>:data:database&#45;&gt;:data:musicbrainz</title>
<path fill="none" stroke="black" stroke-dasharray="1,5" d="M886.49,-413.02C886.49,-413.02 886.49,-317.05 886.49,-317.05"/>
<polygon fill="black" stroke="black" points="889.99,-317.05 886.49,-307.05 882.99,-317.05 889.99,-317.05"/>
</g>
<!-- :ui:core&#45;&gt;:shared:domain -->
<g id="edge17" class="edge">
<title>:ui:core&#45;&gt;:shared:domain</title>
<path fill="none" stroke="black" stroke-dasharray="1,5" d="M360.54,-566C392.25,-566 428.81,-566 428.81,-566 428.81,-566 428.81,-174.75 428.81,-174.75"/>
<polygon fill="black" stroke="black" points="432.31,-174.75 428.81,-164.75 425.31,-174.75 432.31,-174.75"/>
</g>
<!-- :shared:strings -->
<g id="node12" class="node">
<title>:shared:strings</title>
<ellipse fill="#b59aff" stroke="black" cx="332.84" cy="-429" rx="81.49" ry="18"/>
<text text-anchor="middle" x="332.84" y="-425.3" font-family="Times,serif" font-size="14.00">:shared:strings</text>
</g>
<!-- :ui:core&#45;&gt;:shared:strings -->
<g id="edge16" class="edge">
<title>:ui:core&#45;&gt;:shared:strings</title>
<path fill="none" stroke="black" d="M314.84,-547.81C314.84,-547.81 314.84,-456.83 314.84,-456.83"/>
<polygon fill="black" stroke="black" points="318.34,-456.83 314.84,-446.83 311.34,-456.83 318.34,-456.83"/>
</g>
<!-- :test&#45;data&#45;&gt;:shared:domain -->
<g id="edge18" class="edge">
<title>:test&#45;data&#45;&gt;:shared:domain</title>
<path fill="none" stroke="black" stroke-dasharray="1,5" d="M619.22,-706C568.64,-706 501.21,-706 501.21,-706 501.21,-706 501.21,-183.02 501.21,-183.02"/>
<polygon fill="black" stroke="black" points="504.71,-183.02 501.21,-173.02 497.71,-183.02 504.71,-183.02"/>
</g>
<!-- :test&#45;data&#45;&gt;:data:database -->
<g id="edge20" class="edge">
<title>:test&#45;data&#45;&gt;:data:database</title>
<path fill="none" stroke="black" stroke-dasharray="1,5" d="M729.24,-703C803.15,-703 924.84,-703 924.84,-703 924.84,-703 924.84,-457.4 924.84,-457.4"/>
<polygon fill="black" stroke="black" points="928.34,-457.4 924.84,-447.4 921.34,-457.4 928.34,-457.4"/>
</g>
<!-- :test&#45;data&#45;&gt;:core:coroutines -->
<g id="edge19" class="edge">
<title>:test&#45;data&#45;&gt;:core:coroutines</title>
<path fill="none" stroke="black" stroke-dasharray="1,5" d="M721.74,-712C832.83,-712 1098.61,-712 1098.61,-712 1098.61,-712 1098.61,-45.16 1098.61,-45.16"/>
<polygon fill="black" stroke="black" points="1102.11,-45.16 1098.61,-35.16 1095.11,-45.16 1102.11,-45.16"/>
</g>
<!-- :test&#45;data&#45;&gt;:data:musicbrainz -->
<g id="edge21" class="edge">
<title>:test&#45;data&#45;&gt;:data:musicbrainz</title>
<path fill="none" stroke="black" stroke-dasharray="1,5" d="M722.09,-694C765.9,-694 823.72,-694 823.72,-694 823.72,-694 823.72,-320.05 823.72,-320.05"/>
<polygon fill="black" stroke="black" points="827.22,-320.05 823.72,-310.05 820.22,-320.05 827.22,-320.05"/>
</g>
<!-- :data:coverart -->
<g id="node13" class="node">
<title>:data:coverart</title>
<ellipse fill="#b59aff" stroke="black" cx="725.84" cy="-566" rx="76.09" ry="18"/>
<text text-anchor="middle" x="725.84" y="-562.3" font-family="Times,serif" font-size="14.00">:data:coverart</text>
</g>
<!-- :test&#45;data&#45;&gt;:data:coverart -->
<g id="edge22" class="edge">
<title>:test&#45;data&#45;&gt;:data:coverart</title>
<path fill="none" stroke="black" stroke-dasharray="1,5" d="M676.23,-684.81C676.23,-684.81 676.23,-589.71 676.23,-589.71"/>
<polygon fill="black" stroke="black" points="679.73,-589.71 676.23,-579.71 672.73,-589.71 679.73,-589.71"/>
</g>
<!-- :data:spotify -->
<g id="node14" class="node">
<title>:data:spotify</title>
<ellipse fill="#b59aff" stroke="black" cx="614.84" cy="-292" rx="68.79" ry="18"/>
<text text-anchor="middle" x="614.84" y="-288.3" font-family="Times,serif" font-size="14.00">:data:spotify</text>
</g>
<!-- :test&#45;data&#45;&gt;:data:spotify -->
<g id="edge23" class="edge">
<title>:test&#45;data&#45;&gt;:data:spotify</title>
<path fill="none" stroke="black" stroke-dasharray="1,5" d="M634.2,-690.25C634.2,-690.25 634.2,-319.4 634.2,-319.4"/>
<polygon fill="black" stroke="black" points="637.7,-319.4 634.2,-309.4 630.7,-319.4 637.7,-319.4"/>
</g>
<!-- :core:logging:api&#45;&gt;:core:coroutines -->
<g id="edge24" class="edge">
<title>:core:logging:api&#45;&gt;:core:coroutines</title>
<path fill="none" stroke="black" d="M1013.47,-141.61C1013.47,-141.61 1013.47,-41.64 1013.47,-41.64"/>
<polygon fill="black" stroke="black" points="1016.97,-41.64 1013.47,-31.64 1009.97,-41.64 1016.97,-41.64"/>
</g>
<!-- :data:musicbrainz&#45;&gt;:shared:domain -->
<g id="edge25" class="edge">
<title>:data:musicbrainz&#45;&gt;:shared:domain</title>
<path fill="none" stroke="black" stroke-dasharray="1,5" d="M802.85,-274.73C802.85,-235.69 802.85,-144 802.85,-144 802.85,-144 574.43,-144 574.43,-144"/>
<polygon fill="black" stroke="black" points="574.43,-140.5 564.43,-144 574.43,-147.5 574.43,-140.5"/>
</g>
<!-- :data:musicbrainz&#45;&gt;:core:logging:api -->
<g id="edge26" class="edge">
<title>:data:musicbrainz&#45;&gt;:core:logging:api</title>
<path fill="none" stroke="black" stroke-dasharray="1,5" d="M896.44,-278.61C896.44,-278.61 896.44,-179.05 896.44,-179.05"/>
<polygon fill="black" stroke="black" points="899.94,-179.05 896.44,-169.05 892.94,-179.05 899.94,-179.05"/>
</g>
<!-- :data:coverart&#45;&gt;:shared:domain -->
<g id="edge27" class="edge">
<title>:data:coverart&#45;&gt;:shared:domain</title>
<path fill="none" stroke="black" stroke-dasharray="1,5" d="M697.86,-549.25C697.86,-472.47 697.86,-158 697.86,-158 697.86,-158 590.37,-158 590.37,-158"/>
<polygon fill="black" stroke="black" points="590.37,-154.5 580.37,-158 590.37,-161.5 590.37,-154.5"/>
</g>
<!-- :data:coverart&#45;&gt;:data:database -->
<g id="edge32" class="edge">
<title>:data:coverart&#45;&gt;:data:database</title>
<path fill="none" stroke="#ff9ab1" stroke-dasharray="1,5" d="M781.34,-553.26C781.34,-520.88 781.34,-438 781.34,-438 781.34,-438 846.03,-438 846.03,-438"/>
<polygon fill="#ff9ab1" stroke="#ff9ab1" points="846.03,-441.5 856.03,-438 846.03,-434.5 846.03,-441.5"/>
</g>
<!-- :data:coverart&#45;&gt;:test&#45;data -->
<g id="edge30" class="edge">
<title>:data:coverart&#45;&gt;:test&#45;data</title>
<path fill="none" stroke="#ff9ab1" stroke-dasharray="1,5" d="M702.66,-583.35C702.66,-583.35 702.66,-677.48 702.66,-677.48"/>
<polygon fill="#ff9ab1" stroke="#ff9ab1" points="699.16,-677.48 702.66,-687.48 706.16,-677.48 699.16,-677.48"/>
</g>
<!-- :data:coverart&#45;&gt;:core:coroutines -->
<g id="edge29" class="edge">
<title>:data:coverart&#45;&gt;:core:coroutines</title>
<path fill="none" stroke="black" stroke-dasharray="1,5" d="M711.99,-548.08C711.99,-453.63 711.99,-18 711.99,-18 711.99,-18 974.58,-18 974.58,-18"/>
<polygon fill="black" stroke="black" points="974.58,-21.5 984.58,-18 974.58,-14.5 974.58,-21.5"/>
</g>
<!-- :data:coverart&#45;&gt;:core:logging:api -->
<g id="edge28" class="edge">
<title>:data:coverart&#45;&gt;:core:logging:api</title>
<path fill="none" stroke="black" stroke-dasharray="1,5" d="M726.12,-547.99C726.12,-469.96 726.12,-165 726.12,-165 726.12,-165 870.22,-165 870.22,-165"/>
<polygon fill="black" stroke="black" points="870.22,-168.5 880.22,-165 870.22,-161.5 870.22,-168.5"/>
</g>
<!-- :data:coverart&#45;&gt;:data:musicbrainz -->
<g id="edge31" class="edge">
<title>:data:coverart&#45;&gt;:data:musicbrainz</title>
<path fill="none" stroke="#ff9ab1" stroke-dasharray="1,5" d="M760.79,-549.68C760.79,-549.68 760.79,-313.43 760.79,-313.43"/>
<polygon fill="#ff9ab1" stroke="#ff9ab1" points="764.29,-313.43 760.79,-303.43 757.29,-313.43 764.29,-313.43"/>
</g>
<!-- :data:spotify&#45;&gt;:shared:domain -->
<g id="edge33" class="edge">
<title>:data:spotify&#45;&gt;:shared:domain</title>
<path fill="none" stroke="black" stroke-dasharray="1,5" d="M563.67,-279.84C563.67,-279.84 563.67,-176.17 563.67,-176.17"/>
<polygon fill="black" stroke="black" points="567.17,-176.17 563.67,-166.17 560.17,-176.17 567.17,-176.17"/>
</g>
<!-- :data:spotify&#45;&gt;:core:logging:api -->
<g id="edge34" class="edge">
<title>:data:spotify&#45;&gt;:core:logging:api</title>
<path fill="none" stroke="black" stroke-dasharray="1,5" d="M632.56,-274.43C632.56,-236.63 632.56,-151 632.56,-151 632.56,-151 857.32,-151 857.32,-151"/>
<polygon fill="black" stroke="black" points="857.32,-154.5 867.32,-151 857.32,-147.5 857.32,-154.5"/>
</g>
</g>
</svg>
