<?xml version="1.0" encoding="UTF-8" standalone="no"?>
<!DOCTYPE svg PUBLIC "-//W3C//DTD SVG 1.1//EN"
 "http://www.w3.org/Graphics/SVG/1.1/DTD/svg11.dtd">
<!-- Generated by graphviz version 2.43.0 (0)
 -->
<!-- Title: %3 Pages: 1 -->
<svg width="1091pt" height="940pt"
 viewBox="0.00 0.00 1091.23 940.00" xmlns="http://www.w3.org/2000/svg" xmlns:xlink="http://www.w3.org/1999/xlink">
<g id="graph0" class="graph" transform="scale(1 1) rotate(0) translate(4 936)">
<title>%3</title>
<polygon fill="white" stroke="transparent" points="-4,4 -4,-936 1087.23,-936 1087.23,4 -4,4"/>
<text text-anchor="middle" x="541.62" y="-904" font-family="Times,serif" font-size="30.00">Dependencies</text>
<text text-anchor="middle" x="541.62" y="-871" font-family="Times,serif" font-size="30.00"> </text>
<!-- :shared:feature:stats -->
<g id="node1" class="node">
<title>:shared:feature:stats</title>
<polygon fill="#b59aff" stroke="black" points="367.84,-858 201.84,-858 201.84,-822 367.84,-822 367.84,-858"/>
<text text-anchor="middle" x="284.84" y="-836.3" font-family="Times,serif" font-size="14.00">:shared:feature:stats</text>
</g>
<!-- :ui:test:screenshot -->
<g id="node2" class="node">
<title>:ui:test:screenshot</title>
<ellipse fill="#9affb5" stroke="black" cx="96.84" cy="-566" rx="96.68" ry="18"/>
<text text-anchor="middle" x="96.84" y="-562.3" font-family="Times,serif" font-size="14.00">:ui:test:screenshot</text>
</g>
<!-- :shared:feature:stats&#45;&gt;:ui:test:screenshot -->
<g id="edge1" class="edge">
<title>:shared:feature:stats&#45;&gt;:ui:test:screenshot</title>
<path fill="none" stroke="#ff9ab1" stroke-dasharray="1,5" d="M206.87,-821.6C206.87,-760.16 206.87,-566 206.87,-566 206.87,-566 203.82,-566 203.82,-566"/>
<polygon fill="#ff9ab1" stroke="#ff9ab1" points="203.82,-562.5 193.82,-566 203.82,-569.5 203.82,-562.5"/>
</g>
<!-- :ui:common -->
<g id="node3" class="node">
<title>:ui:common</title>
<ellipse fill="#b59aff" stroke="black" cx="358.84" cy="-703" rx="64.19" ry="18"/>
<text text-anchor="middle" x="358.84" y="-699.3" font-family="Times,serif" font-size="14.00">:ui:common</text>
</g>
<!-- :shared:feature:stats&#45;&gt;:ui:common -->
<g id="edge2" class="edge">
<title>:shared:feature:stats&#45;&gt;:ui:common</title>
<path fill="none" stroke="black" stroke-dasharray="1,5" d="M331.17,-821.81C331.17,-821.81 331.17,-729.55 331.17,-729.55"/>
<polygon fill="black" stroke="black" points="334.67,-729.55 331.17,-719.55 327.67,-729.55 334.67,-729.55"/>
</g>
<!-- :shared:domain -->
<g id="node4" class="node">
<title>:shared:domain</title>
<ellipse fill="#b59aff" stroke="black" cx="493.84" cy="-18" rx="82.59" ry="18"/>
<text text-anchor="middle" x="493.84" y="-14.3" font-family="Times,serif" font-size="14.00">:shared:domain</text>
</g>
<!-- :shared:feature:stats&#45;&gt;:shared:domain -->
<g id="edge3" class="edge">
<title>:shared:feature:stats&#45;&gt;:shared:domain</title>
<path fill="none" stroke="black" stroke-dasharray="1,5" d="M253.2,-821.72C253.2,-771.3 253.2,-634 253.2,-634 253.2,-634 374.96,-634 374.96,-634 374.96,-634 374.96,-12 374.96,-12 374.96,-12 405.87,-12 405.87,-12"/>
<polygon fill="black" stroke="black" points="405.87,-15.5 415.87,-12 405.87,-8.5 405.87,-15.5"/>
</g>
<!-- :data:database -->
<g id="node5" class="node">
<title>:data:database</title>
<ellipse fill="#b59aff" stroke="black" cx="606.84" cy="-292" rx="79.09" ry="18"/>
<text text-anchor="middle" x="606.84" y="-288.3" font-family="Times,serif" font-size="14.00">:data:database</text>
</g>
<!-- :shared:feature:stats&#45;&gt;:data:database -->
<g id="edge4" class="edge">
<title>:shared:feature:stats&#45;&gt;:data:database</title>
<path fill="none" stroke="black" stroke-dasharray="1,5" d="M367.94,-840C407.11,-840 445.39,-840 445.39,-840 445.39,-840 445.39,-292 445.39,-292 445.39,-292 517.53,-292 517.53,-292"/>
<polygon fill="black" stroke="black" points="517.53,-295.5 527.53,-292 517.53,-288.5 517.53,-295.5"/>
</g>
<!-- :ui:core -->
<g id="node6" class="node">
<title>:ui:core</title>
<ellipse fill="#b59aff" stroke="black" cx="271.84" cy="-429" rx="45.49" ry="18"/>
<text text-anchor="middle" x="271.84" y="-425.3" font-family="Times,serif" font-size="14.00">:ui:core</text>
</g>
<!-- :ui:test:screenshot&#45;&gt;:ui:core -->
<g id="edge5" class="edge">
<title>:ui:test:screenshot&#45;&gt;:ui:core</title>
<path fill="none" stroke="black" stroke-dasharray="1,5" d="M166.78,-553.36C166.78,-519.44 166.78,-429 166.78,-429 166.78,-429 216.07,-429 216.07,-429"/>
<polygon fill="black" stroke="black" points="216.07,-432.5 226.07,-429 216.07,-425.5 216.07,-432.5"/>
</g>
<!-- :test:image -->
<g id="node7" class="node">
<title>:test:image</title>
<ellipse fill="#9affb5" stroke="black" cx="76.84" cy="-429" rx="63.09" ry="18"/>
<text text-anchor="middle" x="76.84" y="-425.3" font-family="Times,serif" font-size="14.00">:test:image</text>
</g>
<!-- :ui:test:screenshot&#45;&gt;:test:image -->
<g id="edge6" class="edge">
<title>:ui:test:screenshot&#45;&gt;:test:image</title>
<path fill="none" stroke="black" stroke-dasharray="1,5" d="M76.84,-548.37C76.84,-548.37 76.84,-457.44 76.84,-457.44"/>
<polygon fill="black" stroke="black" points="80.34,-457.44 76.84,-447.44 73.34,-457.44 80.34,-457.44"/>
</g>
<!-- :ui:common&#45;&gt;:ui:test:screenshot -->
<g id="edge8" class="edge">
<title>:ui:common&#45;&gt;:ui:test:screenshot</title>
<path fill="none" stroke="#ff9ab1" stroke-dasharray="1,5" d="M294.41,-703C216.84,-703 96.84,-703 96.84,-703 96.84,-703 96.84,-594.19 96.84,-594.19"/>
<polygon fill="#ff9ab1" stroke="#ff9ab1" points="100.34,-594.19 96.84,-584.19 93.34,-594.19 100.34,-594.19"/>
</g>
<!-- :ui:common&#45;&gt;:shared:domain -->
<g id="edge10" class="edge">
<title>:ui:common&#45;&gt;:shared:domain</title>
<path fill="none" stroke="black" d="M383.39,-686.07C383.39,-580.58 383.39,-18 383.39,-18 383.39,-18 401.26,-18 401.26,-18"/>
<polygon fill="black" stroke="black" points="401.26,-21.5 411.26,-18 401.26,-14.5 401.26,-21.5"/>
</g>
<!-- :ui:common&#45;&gt;:ui:core -->
<g id="edge11" class="edge">
<title>:ui:common&#45;&gt;:ui:core</title>
<path fill="none" stroke="black" d="M338.94,-685.72C338.94,-624.28 338.94,-420 338.94,-420 338.94,-420 321.26,-420 321.26,-420"/>
<polygon fill="black" stroke="black" points="321.26,-416.5 311.26,-420 321.26,-423.5 321.26,-416.5"/>
</g>
<!-- :test&#45;data -->
<g id="node8" class="node">
<title>:test&#45;data</title>
<ellipse fill="#b59aff" stroke="black" cx="688.84" cy="-566" rx="55.49" ry="18"/>
<text text-anchor="middle" x="688.84" y="-562.3" font-family="Times,serif" font-size="14.00">:test&#45;data</text>
</g>
<!-- :ui:common&#45;&gt;:test&#45;data -->
<g id="edge7" class="edge">
<title>:ui:common&#45;&gt;:test&#45;data</title>
<path fill="none" stroke="#ff9ab1" stroke-dasharray="1,5" d="M419.56,-696.89C419.56,-670.68 419.56,-569 419.56,-569 419.56,-569 624.35,-569 624.35,-569"/>
<polygon fill="#ff9ab1" stroke="#ff9ab1" points="624.35,-572.5 634.35,-569 624.35,-565.5 624.35,-572.5"/>
</g>
<!-- :core:coroutines -->
<g id="node9" class="node">
<title>:core:coroutines</title>
<ellipse fill="#b59aff" stroke="black" cx="493.84" cy="-155" rx="85.29" ry="18"/>
<text text-anchor="middle" x="493.84" y="-151.3" font-family="Times,serif" font-size="14.00">:core:coroutines</text>
</g>
<!-- :ui:common&#45;&gt;:core:coroutines -->
<g id="edge9" class="edge">
<title>:ui:common&#45;&gt;:core:coroutines</title>
<path fill="none" stroke="#ff9ab1" stroke-dasharray="1,5" d="M412.32,-692.54C412.32,-692.54 412.32,-170.2 412.32,-170.2"/>
<polygon fill="#ff9ab1" stroke="#ff9ab1" points="415.82,-170.2 412.32,-160.2 408.82,-170.2 415.82,-170.2"/>
</g>
<!-- :data:coverart -->
<g id="node10" class="node">
<title>:data:coverart</title>
<ellipse fill="#b59aff" stroke="black" cx="565.84" cy="-429" rx="76.09" ry="18"/>
<text text-anchor="middle" x="565.84" y="-425.3" font-family="Times,serif" font-size="14.00">:data:coverart</text>
</g>
<!-- :ui:common&#45;&gt;:data:coverart -->
<g id="edge12" class="edge">
<title>:ui:common&#45;&gt;:data:coverart</title>
<path fill="none" stroke="black" stroke-dasharray="1,5" d="M415.94,-694.48C415.94,-649.12 415.94,-438 415.94,-438 415.94,-438 489.66,-438 489.66,-438"/>
<polygon fill="black" stroke="black" points="489.66,-441.5 499.66,-438 489.66,-434.5 489.66,-441.5"/>
</g>
<!-- :data:musicbrainz -->
<g id="node11" class="node">
<title>:data:musicbrainz</title>
<ellipse fill="#b59aff" stroke="black" cx="766.84" cy="-155" rx="93.68" ry="18"/>
<text text-anchor="middle" x="766.84" y="-151.3" font-family="Times,serif" font-size="14.00">:data:musicbrainz</text>
</g>
<!-- :ui:common&#45;&gt;:data:musicbrainz -->
<g id="edge13" class="edge">
<title>:ui:common&#45;&gt;:data:musicbrainz</title>
<path fill="none" stroke="black" stroke-dasharray="1,5" d="M419.57,-697C541.01,-697 802.26,-697 802.26,-697 802.26,-697 802.26,-181.82 802.26,-181.82"/>
<polygon fill="black" stroke="black" points="805.76,-181.82 802.26,-171.82 798.76,-181.82 805.76,-181.82"/>
</g>
<!-- :core:logging:api -->
<g id="node12" class="node">
<title>:core:logging:api</title>
<ellipse fill="#b59aff" stroke="black" cx="994.84" cy="-18" rx="88.28" ry="18"/>
<text text-anchor="middle" x="994.84" y="-14.3" font-family="Times,serif" font-size="14.00">:core:logging:api</text>
</g>
<!-- :ui:common&#45;&gt;:core:logging:api -->
<g id="edge14" class="edge">
<title>:ui:common&#45;&gt;:core:logging:api</title>
<path fill="none" stroke="black" stroke-dasharray="1,5" d="M419.6,-709C590.11,-709 1060.73,-709 1060.73,-709 1060.73,-709 1060.73,-40.29 1060.73,-40.29"/>
<polygon fill="black" stroke="black" points="1064.23,-40.29 1060.73,-30.29 1057.23,-40.29 1064.23,-40.29"/>
</g>
<!-- :ui:image -->
<g id="node13" class="node">
<title>:ui:image</title>
<ellipse fill="#b59aff" stroke="black" cx="265.84" cy="-566" rx="53.89" ry="18"/>
<text text-anchor="middle" x="265.84" y="-562.3" font-family="Times,serif" font-size="14.00">:ui:image</text>
</g>
<!-- :ui:common&#45;&gt;:ui:image -->
<g id="edge15" class="edge">
<title>:ui:common&#45;&gt;:ui:image</title>
<path fill="none" stroke="black" stroke-dasharray="1,5" d="M307.14,-692.25C307.14,-692.25 307.14,-587.86 307.14,-587.86"/>
<polygon fill="black" stroke="black" points="310.64,-587.86 307.14,-577.86 303.64,-587.86 310.64,-587.86"/>
</g>
<!-- :data:database&#45;&gt;:shared:domain -->
<g id="edge16" class="edge">
<title>:data:database&#45;&gt;:shared:domain</title>
<path fill="none" stroke="black" stroke-dasharray="1,5" d="M626.12,-274.27C626.12,-215.08 626.12,-28 626.12,-28 626.12,-28 572.69,-28 572.69,-28"/>
<polygon fill="black" stroke="black" points="572.69,-24.5 562.69,-28 572.69,-31.5 572.69,-24.5"/>
</g>
<!-- :data:database&#45;&gt;:core:coroutines -->
<g id="edge17" class="edge">
<title>:data:database&#45;&gt;:core:coroutines</title>
<path fill="none" stroke="black" stroke-dasharray="1,5" d="M553.27,-278.61C553.27,-278.61 553.27,-178.24 553.27,-178.24"/>
<polygon fill="black" stroke="black" points="556.77,-178.24 553.27,-168.24 549.77,-178.24 556.77,-178.24"/>
</g>
<!-- :data:database&#45;&gt;:data:musicbrainz -->
<g id="edge18" class="edge">
<title>:data:database&#45;&gt;:data:musicbrainz</title>
<path fill="none" stroke="black" stroke-dasharray="1,5" d="M679.69,-284.63C679.69,-284.63 679.69,-171.75 679.69,-171.75"/>
<polygon fill="black" stroke="black" points="683.19,-171.75 679.69,-161.75 676.19,-171.75 683.19,-171.75"/>
</g>
<!-- :shared:strings -->
<g id="node14" class="node">
<title>:shared:strings</title>
<ellipse fill="#b59aff" stroke="black" cx="276.84" cy="-292" rx="81.49" ry="18"/>
<text text-anchor="middle" x="276.84" y="-288.3" font-family="Times,serif" font-size="14.00">:shared:strings</text>
</g>
<!-- :ui:core&#45;&gt;:shared:strings -->
<g id="edge19" class="edge">
<title>:ui:core&#45;&gt;:shared:strings</title>
<path fill="none" stroke="black" d="M271.84,-410.81C271.84,-410.81 271.84,-320.27 271.84,-320.27"/>
<polygon fill="black" stroke="black" points="275.34,-320.27 271.84,-310.27 268.34,-320.27 275.34,-320.27"/>
</g>
<!-- :test&#45;data&#45;&gt;:shared:domain -->
<g id="edge20" class="edge">
<title>:test&#45;data&#45;&gt;:shared:domain</title>
<path fill="none" stroke="black" stroke-dasharray="1,5" d="M634.71,-562C549.04,-562 391.83,-562 391.83,-562 391.83,-562 391.83,-24 391.83,-24 391.83,-24 406,-24 406,-24"/>
<polygon fill="black" stroke="black" points="406,-27.5 416,-24 406,-20.5 406,-27.5"/>
</g>
<!-- :test&#45;data&#45;&gt;:data:database -->
<g id="edge22" class="edge">
<title>:test&#45;data&#45;&gt;:data:database</title>
<path fill="none" stroke="black" stroke-dasharray="1,5" d="M664.01,-549.68C664.01,-549.68 664.01,-314.64 664.01,-314.64"/>
<polygon fill="black" stroke="black" points="667.51,-314.64 664.01,-304.64 660.51,-314.64 667.51,-314.64"/>
</g>
<!-- :test&#45;data&#45;&gt;:core:coroutines -->
<g id="edge21" class="edge">
<title>:test&#45;data&#45;&gt;:core:coroutines</title>
<path fill="none" stroke="black" stroke-dasharray="1,5" d="M644.87,-555C580.34,-555 467.59,-555 467.59,-555 467.59,-555 467.59,-182.19 467.59,-182.19"/>
<polygon fill="black" stroke="black" points="471.09,-182.19 467.59,-172.19 464.09,-182.19 471.09,-182.19"/>
</g>
<!-- :test&#45;data&#45;&gt;:data:coverart -->
<g id="edge24" class="edge">
<title>:test&#45;data&#45;&gt;:data:coverart</title>
<path fill="none" stroke="black" stroke-dasharray="1,5" d="M636.36,-560.11C636.36,-560.11 636.36,-445.98 636.36,-445.98"/>
<polygon fill="black" stroke="black" points="639.86,-445.98 636.36,-435.98 632.86,-445.98 639.86,-445.98"/>
</g>
<!-- :test&#45;data&#45;&gt;:data:musicbrainz -->
<g id="edge23" class="edge">
<title>:test&#45;data&#45;&gt;:data:musicbrainz</title>
<path fill="none" stroke="black" stroke-dasharray="1,5" d="M724.77,-552.33C724.77,-552.33 724.77,-181.34 724.77,-181.34"/>
<polygon fill="black" stroke="black" points="728.27,-181.34 724.77,-171.34 721.27,-181.34 728.27,-181.34"/>
</g>
<!-- :data:spotify -->
<g id="node15" class="node">
<title>:data:spotify</title>
<ellipse fill="#b59aff" stroke="black" cx="946.84" cy="-155" rx="68.79" ry="18"/>
<text text-anchor="middle" x="946.84" y="-151.3" font-family="Times,serif" font-size="14.00">:data:spotify</text>
</g>
<!-- :test&#45;data&#45;&gt;:data:spotify -->
<g id="edge25" class="edge">
<title>:test&#45;data&#45;&gt;:data:spotify</title>
<path fill="none" stroke="black" stroke-dasharray="1,5" d="M744.19,-566C820,-566 946.84,-566 946.84,-566 946.84,-566 946.84,-183.19 946.84,-183.19"/>
<polygon fill="black" stroke="black" points="950.34,-183.19 946.84,-173.19 943.34,-183.19 950.34,-183.19"/>
</g>
<!-- :data:coverart&#45;&gt;:shared:domain -->
<g id="edge26" class="edge">
<title>:data:coverart&#45;&gt;:shared:domain</title>
<path fill="none" stroke="black" stroke-dasharray="1,5" d="M489.35,-429C445.97,-429 400.26,-429 400.26,-429 400.26,-429 400.26,-30 400.26,-30 400.26,-30 422.21,-30 422.21,-30"/>
<polygon fill="black" stroke="black" points="422.21,-33.5 432.21,-30 422.21,-26.5 422.21,-33.5"/>
</g>
<!-- :data:coverart&#45;&gt;:data:database -->
<g id="edge31" class="edge">
<title>:data:coverart&#45;&gt;:data:database</title>
<path fill="none" stroke="#ff9ab1" stroke-dasharray="1,5" d="M584.72,-411.37C584.72,-411.37 584.72,-319.56 584.72,-319.56"/>
<polygon fill="#ff9ab1" stroke="#ff9ab1" points="588.22,-319.56 584.72,-309.56 581.22,-319.56 588.22,-319.56"/>
</g>
<!-- :data:coverart&#45;&gt;:test&#45;data -->
<g id="edge29" class="edge">
<title>:data:coverart&#45;&gt;:test&#45;data</title>
<path fill="none" stroke="#ff9ab1" stroke-dasharray="1,5" d="M639.12,-433.88C639.12,-433.88 639.12,-548.15 639.12,-548.15"/>
<polygon fill="#ff9ab1" stroke="#ff9ab1" points="635.62,-548.15 639.12,-558.15 642.62,-548.15 635.62,-548.15"/>
</g>
<!-- :data:coverart&#45;&gt;:core:coroutines -->
<g id="edge28" class="edge">
<title>:data:coverart&#45;&gt;:core:coroutines</title>
<path fill="none" stroke="black" stroke-dasharray="1,5" d="M508.67,-416.87C508.67,-416.87 508.67,-182.74 508.67,-182.74"/>
<polygon fill="black" stroke="black" points="512.17,-182.74 508.67,-172.74 505.17,-182.74 512.17,-182.74"/>
</g>
<!-- :data:coverart&#45;&gt;:data:musicbrainz -->
<g id="edge30" class="edge">
<title>:data:coverart&#45;&gt;:data:musicbrainz</title>
<path fill="none" stroke="#ff9ab1" stroke-dasharray="1,5" d="M637.69,-423C671.9,-423 705.45,-423 705.45,-423 705.45,-423 705.45,-178.66 705.45,-178.66"/>
<polygon fill="#ff9ab1" stroke="#ff9ab1" points="708.95,-178.66 705.45,-168.66 701.95,-178.66 708.95,-178.66"/>
</g>
<!-- :data:coverart&#45;&gt;:core:logging:api -->
<g id="edge27" class="edge">
<title>:data:coverart&#45;&gt;:core:logging:api</title>
<path fill="none" stroke="black" stroke-dasharray="1,5" d="M637.59,-435C769.74,-435 1038.23,-435 1038.23,-435 1038.23,-435 1038.23,-43.84 1038.23,-43.84"/>
<polygon fill="black" stroke="black" points="1041.73,-43.84 1038.23,-33.84 1034.73,-43.84 1041.73,-43.84"/>
</g>
<!-- :data:musicbrainz&#45;&gt;:shared:domain -->
<g id="edge32" class="edge">
<title>:data:musicbrainz&#45;&gt;:shared:domain</title>
<path fill="none" stroke="black" stroke-dasharray="1,5" d="M735.64,-138.03C735.64,-101.97 735.64,-21 735.64,-21 735.64,-21 585.37,-21 585.37,-21"/>
<polygon fill="black" stroke="black" points="585.37,-17.5 575.37,-21 585.37,-24.5 585.37,-17.5"/>
</g>
<!-- :data:musicbrainz&#45;&gt;:core:logging:api -->
<g id="edge33" class="edge">
<title>:data:musicbrainz&#45;&gt;:core:logging:api</title>
<path fill="none" stroke="black" stroke-dasharray="1,5" d="M798.04,-137.99C798.04,-100.49 798.04,-14 798.04,-14 798.04,-14 898.52,-14 898.52,-14"/>
<polygon fill="black" stroke="black" points="898.52,-17.5 908.52,-14 898.52,-10.5 898.52,-17.5"/>
</g>
<!-- :ui:image&#45;&gt;:shared:domain -->
<g id="edge34" class="edge">
<title>:ui:image&#45;&gt;:shared:domain</title>
<path fill="none" stroke="black" stroke-dasharray="1,5" d="M310.88,-576C337.69,-576 366.52,-576 366.52,-576 366.52,-576 366.52,-5 366.52,-5 366.52,-5 426.51,-5 426.51,-5"/>
<polygon fill="black" stroke="black" points="426.51,-8.5 436.51,-5 426.51,-1.5 426.51,-8.5"/>
</g>
<!-- :ui:image&#45;&gt;:ui:core -->
<g id="edge35" class="edge">
<title>:ui:image&#45;&gt;:ui:core</title>
<path fill="none" stroke="black" stroke-dasharray="1,5" d="M271.84,-548.09C271.84,-548.09 271.84,-457.35 271.84,-457.35"/>
<polygon fill="black" stroke="black" points="275.34,-457.35 271.84,-447.35 268.34,-457.35 275.34,-457.35"/>
</g>
<!-- :data:spotify&#45;&gt;:shared:domain -->
<g id="edge36" class="edge">
<title>:data:spotify&#45;&gt;:shared:domain</title>
<path fill="none" stroke="black" stroke-dasharray="1,5" d="M892.2,-143.88C892.2,-109.46 892.2,-7 892.2,-7 892.2,-7 569.62,-7 569.62,-7"/>
<polygon fill="black" stroke="black" points="569.62,-3.5 559.62,-7 569.62,-10.5 569.62,-3.5"/>
</g>
<!-- :data:spotify&#45;&gt;:core:logging:api -->
<g id="edge37" class="edge">
<title>:data:spotify&#45;&gt;:core:logging:api</title>
<path fill="none" stroke="black" stroke-dasharray="1,5" d="M961.09,-137.37C961.09,-137.37 961.09,-44.7 961.09,-44.7"/>
<polygon fill="black" stroke="black" points="964.59,-44.7 961.09,-34.7 957.59,-44.7 964.59,-44.7"/>
</g>
</g>
</svg>
