<?xml version="1.0" encoding="UTF-8" standalone="no"?>
<!DOCTYPE svg PUBLIC "-//W3C//DTD SVG 1.1//EN"
 "http://www.w3.org/Graphics/SVG/1.1/DTD/svg11.dtd">
<!-- Generated by graphviz version 2.43.0 (0)
 -->
<!-- Title: %3 Pages: 1 -->
<svg width="884pt" height="1077pt"
 viewBox="0.00 0.00 883.59 1077.00" xmlns="http://www.w3.org/2000/svg" xmlns:xlink="http://www.w3.org/1999/xlink">
<g id="graph0" class="graph" transform="scale(1 1) rotate(0) translate(4 1073)">
<title>%3</title>
<polygon fill="white" stroke="transparent" points="-4,4 -4,-1073 879.59,-1073 879.59,4 -4,4"/>
<text text-anchor="middle" x="437.79" y="-1041" font-family="Times,serif" font-size="30.00">Dependencies</text>
<text text-anchor="middle" x="437.79" y="-1008" font-family="Times,serif" font-size="30.00"> </text>
<!-- :shared:feature:stats -->
<g id="node1" class="node">
<title>:shared:feature:stats</title>
<polygon fill="#b59aff" stroke="black" points="836.04,-995 670.04,-995 670.04,-959 836.04,-959 836.04,-995"/>
<text text-anchor="middle" x="753.04" y="-973.3" font-family="Times,serif" font-size="14.00">:shared:feature:stats</text>
</g>
<!-- :ui:test:screenshot -->
<g id="node2" class="node">
<title>:ui:test:screenshot</title>
<ellipse fill="#9affb5" stroke="black" cx="137.04" cy="-703" rx="96.68" ry="18"/>
<text text-anchor="middle" x="137.04" y="-699.3" font-family="Times,serif" font-size="14.00">:ui:test:screenshot</text>
</g>
<!-- :shared:feature:stats&#45;&gt;:ui:test:screenshot -->
<g id="edge1" class="edge">
<title>:shared:feature:stats&#45;&gt;:ui:test:screenshot</title>
<path fill="none" stroke="#ff9ab1" stroke-dasharray="1,5" d="M669.97,-977C501.83,-977 137.04,-977 137.04,-977 137.04,-977 137.04,-731.4 137.04,-731.4"/>
<polygon fill="#ff9ab1" stroke="#ff9ab1" points="140.54,-731.4 137.04,-721.4 133.54,-731.4 140.54,-731.4"/>
</g>
<!-- :ui:common -->
<g id="node3" class="node">
<title>:ui:common</title>
<ellipse fill="#b59aff" stroke="black" cx="529.04" cy="-840" rx="64.19" ry="18"/>
<text text-anchor="middle" x="529.04" y="-836.3" font-family="Times,serif" font-size="14.00">:ui:common</text>
</g>
<!-- :shared:feature:stats&#45;&gt;:ui:common -->
<g id="edge2" class="edge">
<title>:shared:feature:stats&#45;&gt;:ui:common</title>
<path fill="none" stroke="black" stroke-dasharray="1,5" d="M701.81,-958.79C701.81,-922.79 701.81,-846 701.81,-846 701.81,-846 599.95,-846 599.95,-846"/>
<polygon fill="black" stroke="black" points="599.95,-842.5 589.95,-846 599.95,-849.5 599.95,-842.5"/>
</g>
<!-- :shared:domain -->
<g id="node4" class="node">
<title>:shared:domain</title>
<ellipse fill="#b59aff" stroke="black" cx="793.04" cy="-155" rx="82.59" ry="18"/>
<text text-anchor="middle" x="793.04" y="-151.3" font-family="Times,serif" font-size="14.00">:shared:domain</text>
</g>
<!-- :shared:feature:stats&#45;&gt;:shared:domain -->
<g id="edge3" class="edge">
<title>:shared:feature:stats&#45;&gt;:shared:domain</title>
<path fill="none" stroke="black" stroke-dasharray="1,5" d="M836.11,-977C856.28,-977 872.17,-977 872.17,-977 872.17,-977 872.17,-170.25 872.17,-170.25"/>
<polygon fill="black" stroke="black" points="875.67,-170.25 872.17,-160.25 868.67,-170.25 875.67,-170.25"/>
</g>
<!-- :data:database -->
<g id="node5" class="node">
<title>:data:database</title>
<ellipse fill="#b59aff" stroke="black" cx="686.04" cy="-429" rx="79.09" ry="18"/>
<text text-anchor="middle" x="686.04" y="-425.3" font-family="Times,serif" font-size="14.00">:data:database</text>
</g>
<!-- :shared:feature:stats&#45;&gt;:data:database -->
<g id="edge4" class="edge">
<title>:shared:feature:stats&#45;&gt;:data:database</title>
<path fill="none" stroke="black" stroke-dasharray="1,5" d="M733.57,-958.77C733.57,-958.77 733.57,-453.59 733.57,-453.59"/>
<polygon fill="black" stroke="black" points="737.07,-453.59 733.57,-443.59 730.07,-453.59 737.07,-453.59"/>
</g>
<!-- :ui:core -->
<g id="node6" class="node">
<title>:ui:core</title>
<ellipse fill="#b59aff" stroke="black" cx="190.04" cy="-566" rx="45.49" ry="18"/>
<text text-anchor="middle" x="190.04" y="-562.3" font-family="Times,serif" font-size="14.00">:ui:core</text>
</g>
<!-- :ui:test:screenshot&#45;&gt;:ui:core -->
<g id="edge5" class="edge">
<title>:ui:test:screenshot&#45;&gt;:ui:core</title>
<path fill="none" stroke="black" stroke-dasharray="1,5" d="M189.22,-687.82C189.22,-687.82 189.22,-594.29 189.22,-594.29"/>
<polygon fill="black" stroke="black" points="192.72,-594.29 189.22,-584.29 185.72,-594.29 192.72,-594.29"/>
</g>
<!-- :test:image -->
<g id="node7" class="node">
<title>:test:image</title>
<ellipse fill="#9affb5" stroke="black" cx="63.04" cy="-566" rx="63.09" ry="18"/>
<text text-anchor="middle" x="63.04" y="-562.3" font-family="Times,serif" font-size="14.00">:test:image</text>
</g>
<!-- :ui:test:screenshot&#45;&gt;:test:image -->
<g id="edge6" class="edge">
<title>:ui:test:screenshot&#45;&gt;:test:image</title>
<path fill="none" stroke="black" stroke-dasharray="1,5" d="M83.15,-687.82C83.15,-687.82 83.15,-593.4 83.15,-593.4"/>
<polygon fill="black" stroke="black" points="86.65,-593.4 83.15,-583.4 79.65,-593.4 86.65,-593.4"/>
</g>
<!-- :ui:common&#45;&gt;:ui:test:screenshot -->
<g id="edge8" class="edge">
<title>:ui:common&#45;&gt;:ui:test:screenshot</title>
<path fill="none" stroke="#ff9ab1" stroke-dasharray="1,5" d="M469.25,-833.12C469.25,-806.53 469.25,-712 469.25,-712 469.25,-712 231.3,-712 231.3,-712"/>
<polygon fill="#ff9ab1" stroke="#ff9ab1" points="231.3,-708.5 221.3,-712 231.3,-715.5 231.3,-708.5"/>
</g>
<!-- :ui:common&#45;&gt;:shared:domain -->
<g id="edge10" class="edge">
<title>:ui:common&#45;&gt;:shared:domain</title>
<path fill="none" stroke="black" d="M589.78,-834C687.49,-834 868.76,-834 868.76,-834 868.76,-834 868.76,-172.63 868.76,-172.63"/>
<polygon fill="black" stroke="black" points="872.26,-172.63 868.76,-162.63 865.26,-172.63 872.26,-172.63"/>
</g>
<!-- :ui:common&#45;&gt;:ui:core -->
<g id="edge11" class="edge">
<title>:ui:common&#45;&gt;:ui:core</title>
<path fill="none" stroke="black" d="M473.25,-831C446.69,-831 420.64,-831 420.64,-831 420.64,-831 420.64,-566 420.64,-566 420.64,-566 245.6,-566 245.6,-566"/>
<polygon fill="black" stroke="black" points="245.6,-562.5 235.6,-566 245.6,-569.5 245.6,-562.5"/>
</g>
<!-- :test&#45;data -->
<g id="node8" class="node">
<title>:test&#45;data</title>
<ellipse fill="#b59aff" stroke="black" cx="529.04" cy="-703" rx="55.49" ry="18"/>
<text text-anchor="middle" x="529.04" y="-699.3" font-family="Times,serif" font-size="14.00">:test&#45;data</text>
</g>
<!-- :ui:common&#45;&gt;:test&#45;data -->
<g id="edge7" class="edge">
<title>:ui:common&#45;&gt;:test&#45;data</title>
<path fill="none" stroke="#ff9ab1" stroke-dasharray="1,5" d="M529.04,-821.81C529.04,-821.81 529.04,-731.27 529.04,-731.27"/>
<polygon fill="#ff9ab1" stroke="#ff9ab1" points="532.54,-731.27 529.04,-721.27 525.54,-731.27 532.54,-731.27"/>
</g>
<!-- :core:coroutines -->
<g id="node9" class="node">
<title>:core:coroutines</title>
<ellipse fill="#b59aff" stroke="black" cx="476.04" cy="-18" rx="85.29" ry="18"/>
<text text-anchor="middle" x="476.04" y="-14.3" font-family="Times,serif" font-size="14.00">:core:coroutines</text>
</g>
<!-- :ui:common&#45;&gt;:core:coroutines -->
<g id="edge9" class="edge">
<title>:ui:common&#45;&gt;:core:coroutines</title>
<path fill="none" stroke="#ff9ab1" stroke-dasharray="1,5" d="M473.04,-849C401.33,-849 286.24,-849 286.24,-849 286.24,-849 286.24,-12 286.24,-12 286.24,-12 385.55,-12 385.55,-12"/>
<polygon fill="#ff9ab1" stroke="#ff9ab1" points="385.55,-15.5 395.55,-12 385.55,-8.5 385.55,-15.5"/>
</g>
<!-- :core:logging:api -->
<g id="node10" class="node">
<title>:core:logging:api</title>
<ellipse fill="#b59aff" stroke="black" cx="476.04" cy="-155" rx="88.28" ry="18"/>
<text text-anchor="middle" x="476.04" y="-151.3" font-family="Times,serif" font-size="14.00">:core:logging:api</text>
</g>
<!-- :ui:common&#45;&gt;:core:logging:api -->
<g id="edge12" class="edge">
<title>:ui:common&#45;&gt;:core:logging:api</title>
<path fill="none" stroke="black" stroke-dasharray="1,5" d="M464.5,-840C430.61,-840 396.05,-840 396.05,-840 396.05,-840 396.05,-172.69 396.05,-172.69"/>
<polygon fill="black" stroke="black" points="399.55,-172.69 396.05,-162.69 392.55,-172.69 399.55,-172.69"/>
</g>
<!-- :data:database&#45;&gt;:shared:domain -->
<g id="edge13" class="edge">
<title>:data:database&#45;&gt;:shared:domain</title>
<path fill="none" stroke="black" stroke-dasharray="1,5" d="M719.6,-412.68C719.6,-412.68 719.6,-173.65 719.6,-173.65"/>
<polygon fill="black" stroke="black" points="723.1,-173.65 719.6,-163.65 716.1,-173.65 723.1,-173.65"/>
</g>
<!-- :data:database&#45;&gt;:core:coroutines -->
<g id="edge14" class="edge">
<title>:data:database&#45;&gt;:core:coroutines</title>
<path fill="none" stroke="black" stroke-dasharray="1,5" d="M658.63,-411.88C658.63,-333.41 658.63,-12 658.63,-12 658.63,-12 566.39,-12 566.39,-12"/>
<polygon fill="black" stroke="black" points="566.39,-8.5 556.39,-12 566.39,-15.5 566.39,-8.5"/>
</g>
<!-- :data:musicbrainz -->
<g id="node11" class="node">
<title>:data:musicbrainz</title>
<ellipse fill="#b59aff" stroke="black" cx="498.04" cy="-292" rx="93.68" ry="18"/>
<text text-anchor="middle" x="498.04" y="-288.3" font-family="Times,serif" font-size="14.00">:data:musicbrainz</text>
</g>
<!-- :data:database&#45;&gt;:data:musicbrainz -->
<g id="edge15" class="edge">
<title>:data:database&#45;&gt;:data:musicbrainz</title>
<path fill="none" stroke="black" stroke-dasharray="1,5" d="M632.69,-415.3C632.69,-382.28 632.69,-301 632.69,-301 632.69,-301 589.47,-301 589.47,-301"/>
<polygon fill="black" stroke="black" points="589.47,-297.5 579.47,-301 589.47,-304.5 589.47,-297.5"/>
</g>
<!-- :shared:strings -->
<g id="node12" class="node">
<title>:shared:strings</title>
<ellipse fill="#b59aff" stroke="black" cx="153.04" cy="-429" rx="81.49" ry="18"/>
<text text-anchor="middle" x="153.04" y="-425.3" font-family="Times,serif" font-size="14.00">:shared:strings</text>
</g>
<!-- :ui:core&#45;&gt;:shared:strings -->
<g id="edge16" class="edge">
<title>:ui:core&#45;&gt;:shared:strings</title>
<path fill="none" stroke="black" d="M189.42,-547.81C189.42,-547.81 189.42,-455.13 189.42,-455.13"/>
<polygon fill="black" stroke="black" points="192.92,-455.13 189.42,-445.13 185.92,-455.13 192.92,-455.13"/>
</g>
<!-- :test&#45;data&#45;&gt;:shared:domain -->
<g id="edge17" class="edge">
<title>:test&#45;data&#45;&gt;:shared:domain</title>
<path fill="none" stroke="black" stroke-dasharray="1,5" d="M577.23,-712C670.22,-712 865.35,-712 865.35,-712 865.35,-712 865.35,-173.75 865.35,-173.75"/>
<polygon fill="black" stroke="black" points="868.85,-173.75 865.35,-163.75 861.85,-173.75 868.85,-173.75"/>
</g>
<!-- :test&#45;data&#45;&gt;:data:database -->
<g id="edge19" class="edge">
<title>:test&#45;data&#45;&gt;:data:database</title>
<path fill="none" stroke="black" stroke-dasharray="1,5" d="M577.01,-694C606.39,-694 638.4,-694 638.4,-694 638.4,-694 638.4,-453.63 638.4,-453.63"/>
<polygon fill="black" stroke="black" points="641.9,-453.62 638.4,-443.63 634.9,-453.63 641.9,-453.62"/>
</g>
<!-- :test&#45;data&#45;&gt;:core:coroutines -->
<g id="edge18" class="edge">
<title>:test&#45;data&#45;&gt;:core:coroutines</title>
<path fill="none" stroke="black" stroke-dasharray="1,5" d="M473.74,-703C416.99,-703 336.95,-703 336.95,-703 336.95,-703 336.95,-24 336.95,-24 336.95,-24 385.53,-24 385.53,-24"/>
<polygon fill="black" stroke="black" points="385.53,-27.5 395.53,-24 385.53,-20.5 385.53,-27.5"/>
</g>
<!-- :test&#45;data&#45;&gt;:data:musicbrainz -->
<g id="edge20" class="edge">
<title>:test&#45;data&#45;&gt;:data:musicbrainz</title>
<path fill="none" stroke="black" stroke-dasharray="1,5" d="M481.04,-694C458.63,-694 436.82,-694 436.82,-694 436.82,-694 436.82,-315.84 436.82,-315.84"/>
<polygon fill="black" stroke="black" points="440.32,-315.84 436.82,-305.84 433.32,-315.84 440.32,-315.84"/>
</g>
<!-- :data:coverart -->
<g id="node13" class="node">
<title>:data:coverart</title>
<ellipse fill="#b59aff" stroke="black" cx="529.04" cy="-566" rx="76.09" ry="18"/>
<text text-anchor="middle" x="529.04" y="-562.3" font-family="Times,serif" font-size="14.00">:data:coverart</text>
</g>
<!-- :test&#45;data&#45;&gt;:data:coverart -->
<g id="edge21" class="edge">
<title>:test&#45;data&#45;&gt;:data:coverart</title>
<path fill="none" stroke="black" stroke-dasharray="1,5" d="M510.63,-685.93C510.63,-685.93 510.63,-593.72 510.63,-593.72"/>
<polygon fill="black" stroke="black" points="514.13,-593.72 510.63,-583.72 507.13,-593.72 514.13,-593.72"/>
</g>
<!-- :data:spotify -->
<g id="node14" class="node">
<title>:data:spotify</title>
<ellipse fill="#b59aff" stroke="black" cx="793.04" cy="-292" rx="68.79" ry="18"/>
<text text-anchor="middle" x="793.04" y="-288.3" font-family="Times,serif" font-size="14.00">:data:spotify</text>
</g>
<!-- :test&#45;data&#45;&gt;:data:spotify -->
<g id="edge22" class="edge">
<title>:test&#45;data&#45;&gt;:data:spotify</title>
<path fill="none" stroke="black" stroke-dasharray="1,5" d="M584.34,-703C663.77,-703 800.69,-703 800.69,-703 800.69,-703 800.69,-319.92 800.69,-319.92"/>
<polygon fill="black" stroke="black" points="804.19,-319.92 800.69,-309.92 797.19,-319.92 804.19,-319.92"/>
</g>
<!-- :core:logging:api&#45;&gt;:core:coroutines -->
<g id="edge23" class="edge">
<title>:core:logging:api&#45;&gt;:core:coroutines</title>
<path fill="none" stroke="black" d="M476.04,-136.81C476.04,-136.81 476.04,-46.27 476.04,-46.27"/>
<polygon fill="black" stroke="black" points="479.54,-46.27 476.04,-36.27 472.54,-46.27 479.54,-46.27"/>
</g>
<!-- :data:musicbrainz&#45;&gt;:shared:domain -->
<g id="edge24" class="edge">
<title>:data:musicbrainz&#45;&gt;:shared:domain</title>
<path fill="none" stroke="black" stroke-dasharray="1,5" d="M579.16,-283C640.8,-283 715.05,-283 715.05,-283 715.05,-283 715.05,-171.17 715.05,-171.17"/>
<polygon fill="black" stroke="black" points="718.55,-171.17 715.05,-161.17 711.55,-171.17 718.55,-171.17"/>
</g>
<!-- :data:musicbrainz&#45;&gt;:core:logging:api -->
<g id="edge25" class="edge">
<title>:data:musicbrainz&#45;&gt;:core:logging:api</title>
<path fill="none" stroke="black" stroke-dasharray="1,5" d="M484.44,-274.09C484.44,-274.09 484.44,-183.35 484.44,-183.35"/>
<polygon fill="black" stroke="black" points="487.94,-183.35 484.44,-173.35 480.94,-183.35 487.94,-183.35"/>
</g>
<!-- :data:coverart&#45;&gt;:shared:domain -->
<g id="edge26" class="edge">
<title>:data:coverart&#45;&gt;:shared:domain</title>
<path fill="none" stroke="black" stroke-dasharray="1,5" d="M599.71,-559.02C599.71,-505.64 599.71,-164 599.71,-164 599.71,-164 711.33,-164 711.33,-164"/>
<polygon fill="black" stroke="black" points="711.33,-167.5 721.33,-164 711.33,-160.5 711.33,-167.5"/>
</g>
<!-- :data:coverart&#45;&gt;:data:database -->
<g id="edge31" class="edge">
<title>:data:coverart&#45;&gt;:data:database</title>
<path fill="none" stroke="#ff9ab1" stroke-dasharray="1,5" d="M602.4,-561.12C602.4,-536.72 602.4,-429 602.4,-429 602.4,-429 602.8,-429 602.8,-429"/>
<polygon fill="#ff9ab1" stroke="#ff9ab1" points="596.43,-432.5 606.43,-429 596.43,-425.5 596.43,-432.5"/>
</g>
<!-- :data:coverart&#45;&gt;:test&#45;data -->
<g id="edge29" class="edge">
<title>:data:coverart&#45;&gt;:test&#45;data</title>
<path fill="none" stroke="#ff9ab1" stroke-dasharray="1,5" d="M547.46,-583.63C547.46,-583.63 547.46,-675.87 547.46,-675.87"/>
<polygon fill="#ff9ab1" stroke="#ff9ab1" points="543.96,-675.87 547.46,-685.87 550.96,-675.87 543.96,-675.87"/>
</g>
<!-- :data:coverart&#45;&gt;:core:coroutines -->
<g id="edge28" class="edge">
<title>:data:coverart&#45;&gt;:core:coroutines</title>
<path fill="none" stroke="black" stroke-dasharray="1,5" d="M597.02,-557.92C597.02,-490.49 597.02,-24 597.02,-24 597.02,-24 566.4,-24 566.4,-24"/>
<polygon fill="black" stroke="black" points="566.4,-20.5 556.4,-24 566.4,-27.5 566.4,-20.5"/>
</g>
<!-- :data:coverart&#45;&gt;:core:logging:api -->
<g id="edge27" class="edge">
<title>:data:coverart&#45;&gt;:core:logging:api</title>
<path fill="none" stroke="black" stroke-dasharray="1,5" d="M594.33,-556.64C594.33,-495.47 594.33,-155 594.33,-155 594.33,-155 574.48,-155 574.48,-155"/>
<polygon fill="black" stroke="black" points="574.48,-151.5 564.48,-155 574.48,-158.5 574.48,-151.5"/>
</g>
<!-- :data:coverart&#45;&gt;:data:musicbrainz -->
<g id="edge30" class="edge">
<title>:data:coverart&#45;&gt;:data:musicbrainz</title>
<path fill="none" stroke="#ff9ab1" stroke-dasharray="1,5" d="M522.32,-548.02C522.32,-548.02 522.32,-319.69 522.32,-319.69"/>
<polygon fill="#ff9ab1" stroke="#ff9ab1" points="525.82,-319.69 522.32,-309.69 518.82,-319.69 525.82,-319.69"/>
</g>
<!-- :data:spotify&#45;&gt;:shared:domain -->
<g id="edge32" class="edge">
<title>:data:spotify&#45;&gt;:shared:domain</title>
<path fill="none" stroke="black" stroke-dasharray="1,5" d="M793.04,-273.81C793.04,-273.81 793.04,-183.27 793.04,-183.27"/>
<polygon fill="black" stroke="black" points="796.54,-183.27 793.04,-173.27 789.54,-183.27 796.54,-183.27"/>
</g>
<!-- :data:spotify&#45;&gt;:core:logging:api -->
<g id="edge33" class="edge">
<title>:data:spotify&#45;&gt;:core:logging:api</title>
<path fill="none" stroke="black" stroke-dasharray="1,5" d="M724.03,-292C702.64,-292 684.56,-292 684.56,-292 684.56,-292 684.56,-146 684.56,-146 684.56,-146 562.8,-146 562.8,-146"/>
<polygon fill="black" stroke="black" points="562.8,-142.5 552.8,-146 562.8,-149.5 562.8,-142.5"/>
</g>
</g>
</svg>
