<?xml version="1.0" encoding="UTF-8" standalone="no"?>
<!DOCTYPE svg PUBLIC "-//W3C//DTD SVG 1.1//EN"
 "http://www.w3.org/Graphics/SVG/1.1/DTD/svg11.dtd">
<!-- Generated by graphviz version 2.43.0 (0)
 -->
<!-- Title: %3 Pages: 1 -->
<svg width="484pt" height="928pt"
 viewBox="0.00 0.00 483.58 928.00" xmlns="http://www.w3.org/2000/svg" xmlns:xlink="http://www.w3.org/1999/xlink">
<g id="graph0" class="graph" transform="scale(1 1) rotate(0) translate(4 924)">
<title>%3</title>
<polygon fill="white" stroke="transparent" points="-4,4 -4,-924 479.58,-924 479.58,4 -4,4"/>
<text text-anchor="middle" x="237.79" y="-892" font-family="Times,serif" font-size="30.00">Dependents</text>
<text text-anchor="middle" x="237.79" y="-859" font-family="Times,serif" font-size="30.00"> </text>
<!-- :ui:common -->
<g id="node1" class="node">
<title>:ui:common</title>
<polygon fill="#b59aff" stroke="black" points="99,-441 0,-441 0,-405 99,-405 99,-441"/>
<text text-anchor="middle" x="49.5" y="-419.3" font-family="Times,serif" font-size="14.00">:ui:common</text>
</g>
<!-- :shared -->
<g id="node2" class="node">
<title>:shared</title>
<ellipse fill="#b59aff" stroke="black" cx="337.79" cy="-828" rx="45.49" ry="18"/>
<text text-anchor="middle" x="337.79" y="-824.3" font-family="Times,serif" font-size="14.00">:shared</text>
</g>
<!-- :shared&#45;&gt;:ui:common -->
<g id="edge1" class="edge">
<title>:shared&#45;&gt;:ui:common</title>
<path fill="none" stroke="black" stroke-dasharray="1,5" d="M292.08,-828C202.83,-828 14,-828 14,-828 14,-828 14,-451.19 14,-451.19"/>
<polygon fill="black" stroke="black" points="17.5,-451.19 14,-441.19 10.5,-451.19 17.5,-451.19"/>
</g>
<!-- :desktop:app -->
<g id="node3" class="node">
<title>:desktop:app</title>
<ellipse fill="#9affb5" stroke="black" cx="337.79" cy="-774" rx="70.39" ry="18"/>
<text text-anchor="middle" x="337.79" y="-770.3" font-family="Times,serif" font-size="14.00">:desktop:app</text>
</g>
<!-- :desktop:app&#45;&gt;:ui:common -->
<g id="edge2" class="edge">
<title>:desktop:app&#45;&gt;:ui:common</title>
<path fill="none" stroke="black" stroke-dasharray="1,5" d="M267.49,-774C176.09,-774 28,-774 28,-774 28,-774 28,-451.38 28,-451.38"/>
<polygon fill="black" stroke="black" points="31.5,-451.38 28,-441.38 24.5,-451.38 31.5,-451.38"/>
</g>
<!-- :android:app -->
<g id="node4" class="node">
<title>:android:app</title>
<ellipse fill="#9affb5" stroke="black" cx="337.79" cy="-720" rx="69.59" ry="18"/>
<text text-anchor="middle" x="337.79" y="-716.3" font-family="Times,serif" font-size="14.00">:android:app</text>
</g>
<!-- :android:app&#45;&gt;:ui:common -->
<g id="edge3" class="edge">
<title>:android:app&#45;&gt;:ui:common</title>
<path fill="none" stroke="black" stroke-dasharray="1,5" d="M268.06,-720C180.62,-720 42,-720 42,-720 42,-720 42,-451.13 42,-451.13"/>
<polygon fill="black" stroke="black" points="45.5,-451.13 42,-441.13 38.5,-451.13 45.5,-451.13"/>
</g>
<!-- :shared:feature:settings -->
<g id="node5" class="node">
<title>:shared:feature:settings</title>
<ellipse fill="#b59aff" stroke="black" cx="337.79" cy="-666" rx="122.38" ry="18"/>
<text text-anchor="middle" x="337.79" y="-662.3" font-family="Times,serif" font-size="14.00">:shared:feature:settings</text>
</g>
<!-- :shared:feature:settings&#45;&gt;:ui:common -->
<g id="edge4" class="edge">
<title>:shared:feature:settings&#45;&gt;:ui:common</title>
<path fill="none" stroke="black" stroke-dasharray="1,5" d="M215.42,-666C139.37,-666 56,-666 56,-666 56,-666 56,-451.26 56,-451.26"/>
<polygon fill="black" stroke="black" points="59.5,-451.26 56,-441.26 52.5,-451.26 59.5,-451.26"/>
</g>
<!-- :shared:feature:images -->
<g id="node6" class="node">
<title>:shared:feature:images</title>
<ellipse fill="#b59aff" stroke="black" cx="337.79" cy="-612" rx="118.08" ry="18"/>
<text text-anchor="middle" x="337.79" y="-608.3" font-family="Times,serif" font-size="14.00">:shared:feature:images</text>
</g>
<!-- :shared:feature:images&#45;&gt;:ui:common -->
<g id="edge5" class="edge">
<title>:shared:feature:images&#45;&gt;:ui:common</title>
<path fill="none" stroke="black" stroke-dasharray="1,5" d="M219.16,-612C147.53,-612 70,-612 70,-612 70,-612 70,-451.12 70,-451.12"/>
<polygon fill="black" stroke="black" points="73.5,-451.12 70,-441.12 66.5,-451.12 73.5,-451.12"/>
</g>
<!-- :shared:feature:nowplaying -->
<g id="node7" class="node">
<title>:shared:feature:nowplaying</title>
<ellipse fill="#b59aff" stroke="black" cx="337.79" cy="-558" rx="137.58" ry="18"/>
<text text-anchor="middle" x="337.79" y="-554.3" font-family="Times,serif" font-size="14.00">:shared:feature:nowplaying</text>
</g>
<!-- :shared:feature:nowplaying&#45;&gt;:ui:common -->
<g id="edge6" class="edge">
<title>:shared:feature:nowplaying&#45;&gt;:ui:common</title>
<path fill="none" stroke="black" stroke-dasharray="1,5" d="M206,-552.53C206,-529.06 206,-438 206,-438 206,-438 109.02,-438 109.02,-438"/>
<polygon fill="black" stroke="black" points="109.02,-434.5 99.02,-438 109.02,-441.5 109.02,-434.5"/>
</g>
<!-- :shared:feature:spotify -->
<g id="node8" class="node">
<title>:shared:feature:spotify</title>
<ellipse fill="#b59aff" stroke="black" cx="337.79" cy="-504" rx="116.18" ry="18"/>
<text text-anchor="middle" x="337.79" y="-500.3" font-family="Times,serif" font-size="14.00">:shared:feature:spotify</text>
</g>
<!-- :shared:feature:spotify&#45;&gt;:ui:common -->
<g id="edge7" class="edge">
<title>:shared:feature:spotify&#45;&gt;:ui:common</title>
<path fill="none" stroke="black" stroke-dasharray="1,5" d="M221.29,-504C154.58,-504 84,-504 84,-504 84,-504 84,-451.38 84,-451.38"/>
<polygon fill="black" stroke="black" points="87.5,-451.38 84,-441.38 80.5,-451.38 87.5,-451.38"/>
</g>
<!-- :shared:feature:history -->
<g id="node9" class="node">
<title>:shared:feature:history</title>
<ellipse fill="#b59aff" stroke="black" cx="337.79" cy="-450" rx="117.78" ry="18"/>
<text text-anchor="middle" x="337.79" y="-446.3" font-family="Times,serif" font-size="14.00">:shared:feature:history</text>
</g>
<!-- :shared:feature:history&#45;&gt;:ui:common -->
<g id="edge8" class="edge">
<title>:shared:feature:history&#45;&gt;:ui:common</title>
<path fill="none" stroke="black" stroke-dasharray="1,5" d="M272.73,-435C272.73,-435 109.07,-435 109.07,-435"/>
<polygon fill="black" stroke="black" points="109.07,-431.5 99.07,-435 109.07,-438.5 109.07,-431.5"/>
</g>
<!-- :shared:feature:graph -->
<g id="node10" class="node">
<title>:shared:feature:graph</title>
<ellipse fill="#b59aff" stroke="black" cx="337.79" cy="-396" rx="112.38" ry="18"/>
<text text-anchor="middle" x="337.79" y="-392.3" font-family="Times,serif" font-size="14.00">:shared:feature:graph</text>
</g>
<!-- :shared:feature:graph&#45;&gt;:ui:common -->
<g id="edge9" class="edge">
<title>:shared:feature:graph&#45;&gt;:ui:common</title>
<path fill="none" stroke="black" stroke-dasharray="1,5" d="M283.22,-411.75C283.22,-411.75 109.03,-411.75 109.03,-411.75"/>
<polygon fill="black" stroke="black" points="109.03,-408.25 99.03,-411.75 109.03,-415.25 109.03,-408.25"/>
</g>
<!-- :shared:feature:database -->
<g id="node11" class="node">
<title>:shared:feature:database</title>
<ellipse fill="#b59aff" stroke="black" cx="337.79" cy="-342" rx="126.98" ry="18"/>
<text text-anchor="middle" x="337.79" y="-338.3" font-family="Times,serif" font-size="14.00">:shared:feature:database</text>
</g>
<!-- :shared:feature:database&#45;&gt;:ui:common -->
<g id="edge10" class="edge">
<title>:shared:feature:database&#45;&gt;:ui:common</title>
<path fill="none" stroke="black" stroke-dasharray="1,5" d="M215,-346.85C215,-362.33 215,-409.5 215,-409.5 215,-409.5 109.16,-409.5 109.16,-409.5"/>
<polygon fill="black" stroke="black" points="109.16,-406 99.16,-409.5 109.16,-413 109.16,-406"/>
</g>
<!-- :shared:feature:licenses -->
<g id="node12" class="node">
<title>:shared:feature:licenses</title>
<ellipse fill="#b59aff" stroke="black" cx="337.79" cy="-288" rx="122.38" ry="18"/>
<text text-anchor="middle" x="337.79" y="-284.3" font-family="Times,serif" font-size="14.00">:shared:feature:licenses</text>
</g>
<!-- :shared:feature:licenses&#45;&gt;:ui:common -->
<g id="edge11" class="edge">
<title>:shared:feature:licenses&#45;&gt;:ui:common</title>
<path fill="none" stroke="black" stroke-dasharray="1,5" d="M215.51,-288C149.75,-288 82,-288 82,-288 82,-288 82,-394.79 82,-394.79"/>
<polygon fill="black" stroke="black" points="78.5,-394.79 82,-404.79 85.5,-394.79 78.5,-394.79"/>
</g>
<!-- :shared:feature:search -->
<g id="node13" class="node">
<title>:shared:feature:search</title>
<ellipse fill="#b59aff" stroke="black" cx="337.79" cy="-234" rx="115.88" ry="18"/>
<text text-anchor="middle" x="337.79" y="-230.3" font-family="Times,serif" font-size="14.00">:shared:feature:search</text>
</g>
<!-- :shared:feature:search&#45;&gt;:ui:common -->
<g id="edge12" class="edge">
<title>:shared:feature:search&#45;&gt;:ui:common</title>
<path fill="none" stroke="black" stroke-dasharray="1,5" d="M221.74,-234C147.87,-234 66,-234 66,-234 66,-234 66,-394.88 66,-394.88"/>
<polygon fill="black" stroke="black" points="62.5,-394.88 66,-404.88 69.5,-394.88 62.5,-394.88"/>
</g>
<!-- :shared:feature:listens -->
<g id="node14" class="node">
<title>:shared:feature:listens</title>
<ellipse fill="#b59aff" stroke="black" cx="337.79" cy="-180" rx="115.88" ry="18"/>
<text text-anchor="middle" x="337.79" y="-176.3" font-family="Times,serif" font-size="14.00">:shared:feature:listens</text>
</g>
<!-- :shared:feature:listens&#45;&gt;:ui:common -->
<g id="edge13" class="edge">
<title>:shared:feature:listens&#45;&gt;:ui:common</title>
<path fill="none" stroke="black" stroke-dasharray="1,5" d="M221.99,-180C141.65,-180 49,-180 49,-180 49,-180 49,-394.74 49,-394.74"/>
<polygon fill="black" stroke="black" points="45.5,-394.74 49,-404.74 52.5,-394.74 45.5,-394.74"/>
</g>
<!-- :shared:feature:collections -->
<g id="node15" class="node">
<title>:shared:feature:collections</title>
<ellipse fill="#b59aff" stroke="black" cx="337.79" cy="-126" rx="133.78" ry="18"/>
<text text-anchor="middle" x="337.79" y="-122.3" font-family="Times,serif" font-size="14.00">:shared:feature:collections</text>
</g>
<!-- :shared:feature:collections&#45;&gt;:ui:common -->
<g id="edge14" class="edge">
<title>:shared:feature:collections&#45;&gt;:ui:common</title>
<path fill="none" stroke="black" stroke-dasharray="1,5" d="M208,-130.88C208,-168.23 208,-407.25 208,-407.25 208,-407.25 109.22,-407.25 109.22,-407.25"/>
<polygon fill="black" stroke="black" points="109.22,-403.75 99.22,-407.25 109.22,-410.75 109.22,-403.75"/>
</g>
<!-- :shared:feature:stats -->
<g id="node16" class="node">
<title>:shared:feature:stats</title>
<ellipse fill="#b59aff" stroke="black" cx="337.79" cy="-72" rx="107.78" ry="18"/>
<text text-anchor="middle" x="337.79" y="-68.3" font-family="Times,serif" font-size="14.00">:shared:feature:stats</text>
</g>
<!-- :shared:feature:stats&#45;&gt;:ui:common -->
<g id="edge15" class="edge">
<title>:shared:feature:stats&#45;&gt;:ui:common</title>
<path fill="none" stroke="black" stroke-dasharray="1,5" d="M229.47,-72C141.87,-72 33,-72 33,-72 33,-72 33,-394.62 33,-394.62"/>
<polygon fill="black" stroke="black" points="29.5,-394.62 33,-404.62 36.5,-394.62 29.5,-394.62"/>
</g>
<!-- :shared:feature:details -->
<g id="node17" class="node">
<title>:shared:feature:details</title>
<ellipse fill="#b59aff" stroke="black" cx="337.79" cy="-18" rx="116.18" ry="18"/>
<text text-anchor="middle" x="337.79" y="-14.3" font-family="Times,serif" font-size="14.00">:shared:feature:details</text>
</g>
<!-- :shared:feature:details&#45;&gt;:ui:common -->
<g id="edge16" class="edge">
<title>:shared:feature:details&#45;&gt;:ui:common</title>
<path fill="none" stroke="black" stroke-dasharray="1,5" d="M221.16,-18C129.07,-18 16,-18 16,-18 16,-18 16,-394.81 16,-394.81"/>
<polygon fill="black" stroke="black" points="12.5,-394.81 16,-404.81 19.5,-394.81 12.5,-394.81"/>
</g>
</g>
</svg>
