<?xml version="1.0" encoding="UTF-8" standalone="no"?>
<!DOCTYPE svg PUBLIC "-//W3C//DTD SVG 1.1//EN"
 "http://www.w3.org/Graphics/SVG/1.1/DTD/svg11.dtd">
<!-- Generated by graphviz version 2.43.0 (0)
 -->
<!-- Title: %3 Pages: 1 -->
<svg width="1262pt" height="529pt"
 viewBox="0.00 0.00 1262.39 529.00" xmlns="http://www.w3.org/2000/svg" xmlns:xlink="http://www.w3.org/1999/xlink">
<g id="graph0" class="graph" transform="scale(1 1) rotate(0) translate(4 525)">
<title>%3</title>
<polygon fill="white" stroke="transparent" points="-4,4 -4,-525 1258.39,-525 1258.39,4 -4,4"/>
<text text-anchor="middle" x="627.19" y="-493" font-family="Times,serif" font-size="30.00">Dependencies</text>
<text text-anchor="middle" x="627.19" y="-460" font-family="Times,serif" font-size="30.00"> </text>
<!-- :ui:common -->
<g id="node1" class="node">
<title>:ui:common</title>
<polygon fill="#b59aff" stroke="black" points="771.74,-447 411.74,-447 411.74,-411 771.74,-411 771.74,-447"/>
<text text-anchor="middle" x="591.74" y="-425.3" font-family="Times,serif" font-size="14.00">:ui:common</text>
</g>
<!-- :ui:test:image -->
<g id="node2" class="node">
<title>:ui:test:image</title>
<ellipse fill="#9affb5" stroke="black" cx="74.74" cy="-292" rx="74.99" ry="18"/>
<text text-anchor="middle" x="74.74" y="-288.3" font-family="Times,serif" font-size="14.00">:ui:test:image</text>
</g>
<!-- :ui:common&#45;&gt;:ui:test:image -->
<g id="edge1" class="edge">
<title>:ui:common&#45;&gt;:ui:test:image</title>
<path fill="none" stroke="#ff9ab1" d="M411.65,-435C262.44,-435 74.74,-435 74.74,-435 74.74,-435 74.74,-320.11 74.74,-320.11"/>
<polygon fill="#ff9ab1" stroke="#ff9ab1" points="78.24,-320.11 74.74,-310.11 71.24,-320.11 78.24,-320.11"/>
</g>
<!-- :ui:test:screenshot -->
<g id="node3" class="node">
<title>:ui:test:screenshot</title>
<ellipse fill="#9affb5" stroke="black" cx="302.74" cy="-292" rx="96.68" ry="18"/>
<text text-anchor="middle" x="302.74" y="-288.3" font-family="Times,serif" font-size="14.00">:ui:test:screenshot</text>
</g>
<!-- :ui:common&#45;&gt;:ui:test:screenshot -->
<g id="edge2" class="edge">
<title>:ui:common&#45;&gt;:ui:test:screenshot</title>
<path fill="none" stroke="#ff9ab1" d="M426.43,-410.79C426.43,-374.79 426.43,-298 426.43,-298 426.43,-298 404.25,-298 404.25,-298"/>
<polygon fill="#ff9ab1" stroke="#ff9ab1" points="404.25,-294.5 394.25,-298 404.25,-301.5 404.25,-294.5"/>
</g>
<!-- :core:models -->
<g id="node4" class="node">
<title>:core:models</title>
<ellipse fill="#b59aff" stroke="black" cx="705.74" cy="-18" rx="69.59" ry="18"/>
<text text-anchor="middle" x="705.74" y="-14.3" font-family="Times,serif" font-size="14.00">:core:models</text>
</g>
<!-- :ui:common&#45;&gt;:core:models -->
<g id="edge3" class="edge">
<title>:ui:common&#45;&gt;:core:models</title>
<path fill="none" stroke="black" d="M591.67,-410.81C591.67,-331.27 591.67,-18 591.67,-18 591.67,-18 626.1,-18 626.1,-18"/>
<polygon fill="black" stroke="black" points="626.1,-21.5 636.1,-18 626.1,-14.5 626.1,-21.5"/>
</g>
<!-- :data:coverart -->
<g id="node5" class="node">
<title>:data:coverart</title>
<ellipse fill="#b59aff" stroke="black" cx="733.74" cy="-292" rx="76.09" ry="18"/>
<text text-anchor="middle" x="733.74" y="-288.3" font-family="Times,serif" font-size="14.00">:data:coverart</text>
</g>
<!-- :ui:common&#45;&gt;:data:coverart -->
<g id="edge4" class="edge">
<title>:ui:common&#45;&gt;:data:coverart</title>
<path fill="none" stroke="orange" d="M714.72,-410.81C714.72,-410.81 714.72,-319.83 714.72,-319.83"/>
<polygon fill="orange" stroke="orange" points="718.22,-319.83 714.72,-309.83 711.22,-319.83 718.22,-319.83"/>
</g>
<!-- :data:musicbrainz -->
<g id="node6" class="node">
<title>:data:musicbrainz</title>
<ellipse fill="#b59aff" stroke="black" cx="959.74" cy="-292" rx="93.68" ry="18"/>
<text text-anchor="middle" x="959.74" y="-288.3" font-family="Times,serif" font-size="14.00">:data:musicbrainz</text>
</g>
<!-- :ui:common&#45;&gt;:data:musicbrainz -->
<g id="edge5" class="edge">
<title>:ui:common&#45;&gt;:data:musicbrainz</title>
<path fill="none" stroke="orange" d="M771.97,-429C865.21,-429 959.74,-429 959.74,-429 959.74,-429 959.74,-320.19 959.74,-320.19"/>
<polygon fill="orange" stroke="orange" points="963.24,-320.19 959.74,-310.19 956.24,-320.19 963.24,-320.19"/>
</g>
<!-- :core:preferences -->
<g id="node7" class="node">
<title>:core:preferences</title>
<ellipse fill="#b59aff" stroke="black" cx="1162.74" cy="-292" rx="91.78" ry="18"/>
<text text-anchor="middle" x="1162.74" y="-288.3" font-family="Times,serif" font-size="14.00">:core:preferences</text>
</g>
<!-- :ui:common&#45;&gt;:core:preferences -->
<g id="edge6" class="edge">
<title>:ui:common&#45;&gt;:core:preferences</title>
<path fill="none" stroke="black" stroke-dasharray="1,5" d="M772.02,-438C939.35,-438 1162.74,-438 1162.74,-438 1162.74,-438 1162.74,-320.2 1162.74,-320.2"/>
<polygon fill="black" stroke="black" points="1166.24,-320.2 1162.74,-310.2 1159.24,-320.2 1166.24,-320.2"/>
</g>
<!-- :core:logging:api -->
<g id="node8" class="node">
<title>:core:logging:api</title>
<ellipse fill="#b59aff" stroke="black" cx="859.74" cy="-155" rx="88.28" ry="18"/>
<text text-anchor="middle" x="859.74" y="-151.3" font-family="Times,serif" font-size="14.00">:core:logging:api</text>
</g>
<!-- :ui:common&#45;&gt;:core:logging:api -->
<g id="edge7" class="edge">
<title>:ui:common&#45;&gt;:core:logging:api</title>
<path fill="none" stroke="black" stroke-dasharray="1,5" d="M771.99,-420C809.53,-420 837.97,-420 837.97,-420 837.97,-420 837.97,-182.8 837.97,-182.8"/>
<polygon fill="black" stroke="black" points="841.47,-182.8 837.97,-172.8 834.47,-182.8 841.47,-182.8"/>
</g>
<!-- :domain -->
<g id="node9" class="node">
<title>:domain</title>
<ellipse fill="#b59aff" stroke="black" cx="667.74" cy="-155" rx="48.19" ry="18"/>
<text text-anchor="middle" x="667.74" y="-151.3" font-family="Times,serif" font-size="14.00">:domain</text>
</g>
<!-- :ui:common&#45;&gt;:domain -->
<g id="edge8" class="edge">
<title>:ui:common&#45;&gt;:domain</title>
<path fill="none" stroke="black" stroke-dasharray="1,5" d="M638.67,-410.6C638.67,-410.6 638.67,-179.56 638.67,-179.56"/>
<polygon fill="black" stroke="black" points="642.17,-179.56 638.67,-169.56 635.17,-179.56 642.17,-179.56"/>
</g>
<!-- :strings -->
<g id="node10" class="node">
<title>:strings</title>
<ellipse fill="#b59aff" stroke="black" cx="240.74" cy="-18" rx="46.29" ry="18"/>
<text text-anchor="middle" x="240.74" y="-14.3" font-family="Times,serif" font-size="14.00">:strings</text>
</g>
<!-- :ui:common&#45;&gt;:strings -->
<g id="edge9" class="edge">
<title>:ui:common&#45;&gt;:strings</title>
<path fill="none" stroke="black" stroke-dasharray="1,5" d="M441.11,-410.95C441.11,-332.72 441.11,-27 441.11,-27 441.11,-27 290.81,-27 290.81,-27"/>
<polygon fill="black" stroke="black" points="290.81,-23.5 280.81,-27 290.81,-30.5 290.81,-23.5"/>
</g>
<!-- :ui:core -->
<g id="node11" class="node">
<title>:ui:core</title>
<ellipse fill="#b59aff" stroke="black" cx="365.74" cy="-155" rx="45.49" ry="18"/>
<text text-anchor="middle" x="365.74" y="-151.3" font-family="Times,serif" font-size="14.00">:ui:core</text>
</g>
<!-- :ui:common&#45;&gt;:ui:core -->
<g id="edge10" class="edge">
<title>:ui:common&#45;&gt;:ui:core</title>
<path fill="none" stroke="red" d="M411.56,-423C406.41,-423 403.47,-423 403.47,-423 403.47,-423 403.47,-175.18 403.47,-175.18"/>
<polygon fill="red" stroke="red" points="406.97,-175.18 403.47,-165.18 399.97,-175.18 406.97,-175.18"/>
</g>
<!-- :ui:image -->
<g id="node12" class="node">
<title>:ui:image</title>
<ellipse fill="#b59aff" stroke="black" cx="509.74" cy="-292" rx="53.89" ry="18"/>
<text text-anchor="middle" x="509.74" y="-288.3" font-family="Times,serif" font-size="14.00">:ui:image</text>
</g>
<!-- :ui:common&#45;&gt;:ui:image -->
<g id="edge11" class="edge">
<title>:ui:common&#45;&gt;:ui:image</title>
<path fill="none" stroke="red" d="M509.74,-410.81C509.74,-410.81 509.74,-320.27 509.74,-320.27"/>
<polygon fill="red" stroke="red" points="513.24,-320.27 509.74,-310.27 506.24,-320.27 513.24,-320.27"/>
</g>
<!-- :ui:test:screenshot&#45;&gt;:ui:core -->
<g id="edge12" class="edge">
<title>:ui:test:screenshot&#45;&gt;:ui:core</title>
<path fill="none" stroke="red" d="M359.92,-277.34C359.92,-277.34 359.92,-183.01 359.92,-183.01"/>
<polygon fill="red" stroke="red" points="363.42,-183.01 359.92,-173.01 356.42,-183.01 363.42,-183.01"/>
</g>
<!-- :data:coverart&#45;&gt;:core:models -->
<g id="edge14" class="edge">
<title>:data:coverart&#45;&gt;:core:models</title>
<path fill="none" stroke="black" stroke-dasharray="1,5" d="M743.6,-274.02C743.6,-274.02 743.6,-43.28 743.6,-43.28"/>
<polygon fill="black" stroke="black" points="747.1,-43.28 743.6,-33.28 740.1,-43.28 747.1,-43.28"/>
</g>
<!-- :data:coverart&#45;&gt;:core:logging:api -->
<g id="edge13" class="edge">
<title>:data:coverart&#45;&gt;:core:logging:api</title>
<path fill="none" stroke="black" stroke-dasharray="1,5" d="M790.57,-279.84C790.57,-279.84 790.57,-176.55 790.57,-176.55"/>
<polygon fill="black" stroke="black" points="794.07,-176.55 790.57,-166.55 787.07,-176.55 794.07,-176.55"/>
</g>
<!-- :data:coverart&#45;&gt;:domain -->
<g id="edge15" class="edge">
<title>:data:coverart&#45;&gt;:domain</title>
<path fill="none" stroke="black" stroke-dasharray="1,5" d="M686.77,-277.6C686.77,-277.6 686.77,-181.75 686.77,-181.75"/>
<polygon fill="black" stroke="black" points="690.27,-181.75 686.77,-171.75 683.27,-181.75 690.27,-181.75"/>
</g>
<!-- :data:musicbrainz&#45;&gt;:core:models -->
<g id="edge17" class="edge">
<title>:data:musicbrainz&#45;&gt;:core:models</title>
<path fill="none" stroke="black" stroke-dasharray="1,5" d="M1000.74,-275.64C1000.74,-217.45 1000.74,-24 1000.74,-24 1000.74,-24 781.58,-24 781.58,-24"/>
<polygon fill="black" stroke="black" points="781.58,-20.5 771.58,-24 781.58,-27.5 781.58,-20.5"/>
</g>
<!-- :data:musicbrainz&#45;&gt;:core:logging:api -->
<g id="edge16" class="edge">
<title>:data:musicbrainz&#45;&gt;:core:logging:api</title>
<path fill="none" stroke="black" stroke-dasharray="1,5" d="M907.14,-277.08C907.14,-277.08 907.14,-180.32 907.14,-180.32"/>
<polygon fill="black" stroke="black" points="910.64,-180.32 907.14,-170.32 903.64,-180.32 910.64,-180.32"/>
</g>
<!-- :core:preferences&#45;&gt;:core:models -->
<g id="edge19" class="edge">
<title>:core:preferences&#45;&gt;:core:models</title>
<path fill="none" stroke="black" stroke-dasharray="1,5" d="M1070.79,-292C1065.46,-292 1062.22,-292 1062.22,-292 1062.22,-292 1062.22,-12 1062.22,-12 1062.22,-12 781.54,-12 781.54,-12"/>
<polygon fill="black" stroke="black" points="781.54,-8.5 771.54,-12 781.54,-15.5 781.54,-8.5"/>
</g>
<!-- :core:coroutines -->
<g id="node13" class="node">
<title>:core:coroutines</title>
<ellipse fill="#b59aff" stroke="black" cx="1162.74" cy="-155" rx="85.29" ry="18"/>
<text text-anchor="middle" x="1162.74" y="-151.3" font-family="Times,serif" font-size="14.00">:core:coroutines</text>
</g>
<!-- :core:preferences&#45;&gt;:core:coroutines -->
<g id="edge18" class="edge">
<title>:core:preferences&#45;&gt;:core:coroutines</title>
<path fill="none" stroke="black" stroke-dasharray="1,5" d="M1162.74,-273.81C1162.74,-273.81 1162.74,-183.27 1162.74,-183.27"/>
<polygon fill="black" stroke="black" points="1166.24,-183.27 1162.74,-173.27 1159.24,-183.27 1166.24,-183.27"/>
</g>
<!-- :domain&#45;&gt;:core:models -->
<g id="edge20" class="edge">
<title>:domain&#45;&gt;:core:models</title>
<path fill="none" stroke="black" stroke-dasharray="1,5" d="M676.02,-137.09C676.02,-137.09 676.02,-44.63 676.02,-44.63"/>
<polygon fill="black" stroke="black" points="679.52,-44.63 676.02,-34.63 672.52,-44.63 679.52,-44.63"/>
</g>
<!-- :ui:core&#45;&gt;:strings -->
<g id="edge21" class="edge">
<title>:ui:core&#45;&gt;:strings</title>
<path fill="none" stroke="black" d="M319.94,-155C286.29,-155 246.4,-155 246.4,-155 246.4,-155 246.4,-45.91 246.4,-45.91"/>
<polygon fill="black" stroke="black" points="249.9,-45.91 246.4,-35.91 242.9,-45.91 249.9,-45.91"/>
</g>
<!-- :ui:image&#45;&gt;:core:models -->
<g id="edge22" class="edge">
<title>:ui:image&#45;&gt;:core:models</title>
<path fill="none" stroke="black" stroke-dasharray="1,5" d="M509.74,-273.87C509.74,-211.41 509.74,-9 509.74,-9 509.74,-9 635.34,-9 635.34,-9"/>
<polygon fill="black" stroke="black" points="635.34,-12.5 645.34,-9 635.34,-5.5 635.34,-12.5"/>
</g>
<!-- :ui:image&#45;&gt;:ui:core -->
<g id="edge23" class="edge">
<title>:ui:image&#45;&gt;:ui:core</title>
<path fill="none" stroke="red" d="M458.85,-286C433.15,-286 407.35,-286 407.35,-286 407.35,-286 407.35,-172.42 407.35,-172.42"/>
<polygon fill="red" stroke="red" points="410.85,-172.42 407.35,-162.42 403.85,-172.42 410.85,-172.42"/>
</g>
</g>
</svg>
