<?xml version="1.0" encoding="UTF-8" standalone="no"?>
<!DOCTYPE svg PUBLIC "-//W3C//DTD SVG 1.1//EN"
 "http://www.w3.org/Graphics/SVG/1.1/DTD/svg11.dtd">
<!-- Generated by graphviz version 11.0.0 (20240428.1522)
 -->
<!-- Pages: 1 -->
<svg width="1084pt" height="531pt"
 viewBox="0.00 0.00 1083.97 530.50" xmlns="http://www.w3.org/2000/svg" xmlns:xlink="http://www.w3.org/1999/xlink">
<g id="graph0" class="graph" transform="scale(1 1) rotate(0) translate(4 526.5)">
<polygon fill="white" stroke="none" points="-4,4 -4,-526.5 1079.97,-526.5 1079.97,4 -4,4"/>
<text text-anchor="middle" x="537.99" y="-490" font-family="Times,serif" font-size="30.00">common</text>
<text text-anchor="middle" x="537.99" y="-456.25" font-family="Times,serif" font-size="30.00"> </text>
<!-- :ui:common -->
<g id="node1" class="node">
<title>:ui:common</title>
<polygon fill="#b59aff" stroke="black" points="689.59,-447 329.59,-447 329.59,-411 689.59,-411 689.59,-447"/>
<text text-anchor="middle" x="509.59" y="-423.95" font-family="Times,serif" font-size="14.00">:ui:common</text>
</g>
<!-- :ui:test:image -->
<g id="node2" class="node">
<title>:ui:test:image</title>
<ellipse fill="#9affb5" stroke="black" cx="61.59" cy="-292" rx="61.59" ry="18"/>
<text text-anchor="middle" x="61.59" y="-286.95" font-family="Times,serif" font-size="14.00">:ui:test:image</text>
</g>
<!-- :ui:common&#45;&gt;:ui:test:image -->
<g id="edge1" class="edge">
<title>:ui:common&#45;&gt;:ui:test:image</title>
<path fill="none" stroke="#ff9ab1" d="M329.31,-429C204.82,-429 61.59,-429 61.59,-429 61.59,-429 61.59,-321.99 61.59,-321.99"/>
<polygon fill="#ff9ab1" stroke="#ff9ab1" points="65.09,-321.99 61.59,-311.99 58.09,-321.99 65.09,-321.99"/>
</g>
<!-- :ui:test:screenshot -->
<g id="node3" class="node">
<title>:ui:test:screenshot</title>
<ellipse fill="#9affb5" stroke="black" cx="256.59" cy="-292" rx="77.45" ry="18"/>
<text text-anchor="middle" x="256.59" y="-286.95" font-family="Times,serif" font-size="14.00">:ui:test:screenshot</text>
</g>
<!-- :ui:common&#45;&gt;:ui:test:screenshot -->
<g id="edge2" class="edge">
<title>:ui:common&#45;&gt;:ui:test:screenshot</title>
<path fill="none" stroke="#ff9ab1" d="M337.69,-410.51C337.69,-374.4 337.69,-298 337.69,-298 337.69,-298 336.95,-298 336.95,-298"/>
<polygon fill="#ff9ab1" stroke="#ff9ab1" points="341.72,-294.5 331.72,-298 341.72,-301.5 341.72,-294.5"/>
</g>
<!-- :core:models -->
<g id="node4" class="node">
<title>:core:models</title>
<ellipse fill="#b59aff" stroke="black" cx="614.59" cy="-18" rx="59.03" ry="18"/>
<text text-anchor="middle" x="614.59" y="-12.95" font-family="Times,serif" font-size="14.00">:core:models</text>
</g>
<!-- :ui:common&#45;&gt;:core:models -->
<g id="edge3" class="edge">
<title>:ui:common&#45;&gt;:core:models</title>
<path fill="none" stroke="black" d="M509.89,-410.54C509.89,-330.57 509.89,-18 509.89,-18 509.89,-18 543.69,-18 543.69,-18"/>
<polygon fill="black" stroke="black" points="543.69,-21.5 553.69,-18 543.69,-14.5 543.69,-21.5"/>
</g>
<!-- :data:coverart -->
<g id="node5" class="node">
<title>:data:coverart</title>
<ellipse fill="#b59aff" stroke="black" cx="637.59" cy="-292" rx="61.59" ry="18"/>
<text text-anchor="middle" x="637.59" y="-286.95" font-family="Times,serif" font-size="14.00">:data:coverart</text>
</g>
<!-- :ui:common&#45;&gt;:data:coverart -->
<g id="edge4" class="edge">
<title>:ui:common&#45;&gt;:data:coverart</title>
<path fill="none" stroke="orange" d="M632.79,-410.52C632.79,-410.52 632.79,-321.7 632.79,-321.7"/>
<polygon fill="orange" stroke="orange" points="636.29,-321.7 632.79,-311.7 629.29,-321.7 636.29,-321.7"/>
</g>
<!-- :data:musicbrainz -->
<g id="node6" class="node">
<title>:data:musicbrainz</title>
<ellipse fill="#b59aff" stroke="black" cx="832.59" cy="-292" rx="76.94" ry="18"/>
<text text-anchor="middle" x="832.59" y="-286.95" font-family="Times,serif" font-size="14.00">:data:musicbrainz</text>
</g>
<!-- :ui:common&#45;&gt;:data:musicbrainz -->
<g id="edge5" class="edge">
<title>:ui:common&#45;&gt;:data:musicbrainz</title>
<path fill="none" stroke="orange" d="M689.97,-429C763.96,-429 832.59,-429 832.59,-429 832.59,-429 832.59,-321.99 832.59,-321.99"/>
<polygon fill="orange" stroke="orange" points="836.09,-321.99 832.59,-311.99 829.09,-321.99 836.09,-321.99"/>
</g>
<!-- :core:preferences -->
<g id="node7" class="node">
<title>:core:preferences</title>
<ellipse fill="#b59aff" stroke="black" cx="1001.59" cy="-292" rx="74.38" ry="18"/>
<text text-anchor="middle" x="1001.59" y="-286.95" font-family="Times,serif" font-size="14.00">:core:preferences</text>
</g>
<!-- :ui:common&#45;&gt;:core:preferences -->
<g id="edge6" class="edge">
<title>:ui:common&#45;&gt;:core:preferences</title>
<path fill="none" stroke="black" stroke-dasharray="1,5" d="M690,-438C830.41,-438 1001.59,-438 1001.59,-438 1001.59,-438 1001.59,-322 1001.59,-322"/>
<polygon fill="black" stroke="black" points="1005.09,-322 1001.59,-312 998.09,-322 1005.09,-322"/>
</g>
<!-- :core:logging:api -->
<g id="node8" class="node">
<title>:core:logging:api</title>
<ellipse fill="#b59aff" stroke="black" cx="751.59" cy="-155" rx="73.87" ry="18"/>
<text text-anchor="middle" x="751.59" y="-149.95" font-family="Times,serif" font-size="14.00">:core:logging:api</text>
</g>
<!-- :ui:common&#45;&gt;:core:logging:api -->
<g id="edge7" class="edge">
<title>:ui:common&#45;&gt;:core:logging:api</title>
<path fill="none" stroke="black" stroke-dasharray="1,5" d="M689.97,-420C712.27,-420 727.41,-420 727.41,-420 727.41,-420 727.41,-183.9 727.41,-183.9"/>
<polygon fill="black" stroke="black" points="730.91,-183.9 727.41,-173.9 723.91,-183.9 730.91,-183.9"/>
</g>
<!-- :domain -->
<g id="node9" class="node">
<title>:domain</title>
<ellipse fill="#b59aff" stroke="black" cx="579.59" cy="-155" rx="41.63" ry="18"/>
<text text-anchor="middle" x="579.59" y="-149.95" font-family="Times,serif" font-size="14.00">:domain</text>
</g>
<!-- :ui:common&#45;&gt;:domain -->
<g id="edge8" class="edge">
<title>:ui:common&#45;&gt;:domain</title>
<path fill="none" stroke="black" stroke-dasharray="1,5" d="M556.98,-410.6C556.98,-410.6 556.98,-182.06 556.98,-182.06"/>
<polygon fill="black" stroke="black" points="560.48,-182.06 556.98,-172.06 553.48,-182.06 560.48,-182.06"/>
</g>
<!-- :strings -->
<g id="node10" class="node">
<title>:strings</title>
<ellipse fill="#b59aff" stroke="black" cx="204.59" cy="-18" rx="38.04" ry="18"/>
<text text-anchor="middle" x="204.59" y="-12.95" font-family="Times,serif" font-size="14.00">:strings</text>
</g>
<!-- :ui:common&#45;&gt;:strings -->
<g id="edge9" class="edge">
<title>:ui:common&#45;&gt;:strings</title>
<path fill="none" stroke="black" stroke-dasharray="1,5" d="M369,-410.68C369,-332.04 369,-27 369,-27 369,-27 249.77,-27 249.77,-27"/>
<polygon fill="black" stroke="black" points="249.77,-23.5 239.77,-27 249.77,-30.5 249.77,-23.5"/>
</g>
<!-- :ui:core -->
<g id="node11" class="node">
<title>:ui:core</title>
<ellipse fill="#b59aff" stroke="black" cx="309.59" cy="-155" rx="39.07" ry="18"/>
<text text-anchor="middle" x="309.59" y="-149.95" font-family="Times,serif" font-size="14.00">:ui:core</text>
</g>
<!-- :ui:common&#45;&gt;:ui:core -->
<g id="edge10" class="edge">
<title>:ui:common&#45;&gt;:ui:core</title>
<path fill="none" stroke="red" d="M341.35,-410.6C341.35,-410.6 341.35,-177.41 341.35,-177.41"/>
<polygon fill="red" stroke="red" points="344.85,-177.41 341.35,-167.41 337.85,-177.41 344.85,-177.41"/>
</g>
<!-- :ui:image -->
<g id="node12" class="node">
<title>:ui:image</title>
<ellipse fill="#b59aff" stroke="black" cx="435.59" cy="-292" rx="46.23" ry="18"/>
<text text-anchor="middle" x="435.59" y="-286.95" font-family="Times,serif" font-size="14.00">:ui:image</text>
</g>
<!-- :ui:common&#45;&gt;:ui:image -->
<g id="edge11" class="edge">
<title>:ui:common&#45;&gt;:ui:image</title>
<path fill="none" stroke="red" d="M435.59,-410.52C435.59,-410.52 435.59,-321.7 435.59,-321.7"/>
<polygon fill="red" stroke="red" points="439.09,-321.7 435.59,-311.7 432.09,-321.7 439.09,-321.7"/>
</g>
<!-- :ui:test:screenshot&#45;&gt;:ui:core -->
<g id="edge12" class="edge">
<title>:ui:test:screenshot&#45;&gt;:ui:core</title>
<path fill="none" stroke="red" d="M302.28,-277.08C302.28,-277.08 302.28,-184.44 302.28,-184.44"/>
<polygon fill="red" stroke="red" points="305.78,-184.44 302.28,-174.44 298.78,-184.44 305.78,-184.44"/>
</g>
<!-- :data:coverart&#45;&gt;:core:models -->
<g id="edge14" class="edge">
<title>:data:coverart&#45;&gt;:core:models</title>
<path fill="none" stroke="black" stroke-dasharray="1,5" d="M647.42,-274.02C647.42,-274.02 647.42,-44.8 647.42,-44.8"/>
<polygon fill="black" stroke="black" points="650.92,-44.8 647.42,-34.8 643.92,-44.8 650.92,-44.8"/>
</g>
<!-- :data:coverart&#45;&gt;:core:logging:api -->
<g id="edge13" class="edge">
<title>:data:coverart&#45;&gt;:core:logging:api</title>
<path fill="none" stroke="black" stroke-dasharray="1,5" d="M688.45,-281.7C688.45,-281.7 688.45,-176.19 688.45,-176.19"/>
<polygon fill="black" stroke="black" points="691.95,-176.19 688.45,-166.19 684.95,-176.19 691.95,-176.19"/>
</g>
<!-- :data:coverart&#45;&gt;:domain -->
<g id="edge15" class="edge">
<title>:data:coverart&#45;&gt;:domain</title>
<path fill="none" stroke="black" stroke-dasharray="1,5" d="M598.61,-277.85C598.61,-277.85 598.61,-182.9 598.61,-182.9"/>
<polygon fill="black" stroke="black" points="602.11,-182.9 598.61,-172.9 595.11,-182.91 602.11,-182.9"/>
</g>
<!-- :data:musicbrainz&#45;&gt;:core:models -->
<g id="edge17" class="edge">
<title>:data:musicbrainz&#45;&gt;:core:models</title>
<path fill="none" stroke="black" stroke-dasharray="1,5" d="M867.49,-275.64C867.49,-217.45 867.49,-24 867.49,-24 867.49,-24 682.23,-24 682.23,-24"/>
<polygon fill="black" stroke="black" points="682.23,-20.5 672.23,-24 682.23,-27.5 682.23,-20.5"/>
</g>
<!-- :data:musicbrainz&#45;&gt;:core:logging:api -->
<g id="edge16" class="edge">
<title>:data:musicbrainz&#45;&gt;:core:logging:api</title>
<path fill="none" stroke="black" stroke-dasharray="1,5" d="M790.55,-276.55C790.55,-276.55 790.55,-182.12 790.55,-182.12"/>
<polygon fill="black" stroke="black" points="794.05,-182.12 790.55,-172.12 787.05,-182.12 794.05,-182.12"/>
</g>
<!-- :core:preferences&#45;&gt;:core:models -->
<g id="edge19" class="edge">
<title>:core:preferences&#45;&gt;:core:models</title>
<path fill="none" stroke="black" stroke-dasharray="1,5" d="M926.96,-292C921.67,-292 918.37,-292 918.37,-292 918.37,-292 918.37,-12 918.37,-12 918.37,-12 682.17,-12 682.17,-12"/>
<polygon fill="black" stroke="black" points="682.17,-8.5 672.17,-12 682.17,-15.5 682.17,-8.5"/>
</g>
<!-- :core:coroutines -->
<g id="node13" class="node">
<title>:core:coroutines</title>
<ellipse fill="#b59aff" stroke="black" cx="1001.59" cy="-155" rx="70.29" ry="18"/>
<text text-anchor="middle" x="1001.59" y="-149.95" font-family="Times,serif" font-size="14.00">:core:coroutines</text>
</g>
<!-- :core:preferences&#45;&gt;:core:coroutines -->
<g id="edge18" class="edge">
<title>:core:preferences&#45;&gt;:core:coroutines</title>
<path fill="none" stroke="black" stroke-dasharray="1,5" d="M1001.59,-273.52C1001.59,-273.52 1001.59,-184.7 1001.59,-184.7"/>
<polygon fill="black" stroke="black" points="1005.09,-184.7 1001.59,-174.7 998.09,-184.7 1005.09,-184.7"/>
</g>
<!-- :domain&#45;&gt;:core:models -->
<g id="edge20" class="edge">
<title>:domain&#45;&gt;:core:models</title>
<path fill="none" stroke="black" stroke-dasharray="1,5" d="M588.39,-137.09C588.39,-137.09 588.39,-45.72 588.39,-45.72"/>
<polygon fill="black" stroke="black" points="591.89,-45.72 588.39,-35.72 584.89,-45.72 591.89,-45.72"/>
</g>
<!-- :ui:core&#45;&gt;:strings -->
<g id="edge21" class="edge">
<title>:ui:core&#45;&gt;:strings</title>
<path fill="none" stroke="black" d="M270.29,-155C242.77,-155 210.88,-155 210.88,-155 210.88,-155 210.88,-47.71 210.88,-47.71"/>
<polygon fill="black" stroke="black" points="214.38,-47.71 210.88,-37.71 207.38,-47.71 214.38,-47.71"/>
</g>
<!-- :ui:image&#45;&gt;:core:models -->
<g id="edge22" class="edge">
<title>:ui:image&#45;&gt;:core:models</title>
<path fill="none" stroke="black" stroke-dasharray="1,5" d="M435.59,-273.87C435.59,-211.41 435.59,-9 435.59,-9 435.59,-9 551.3,-9 551.3,-9"/>
<polygon fill="black" stroke="black" points="551.3,-12.5 561.3,-9 551.3,-5.5 551.3,-12.5"/>
</g>
<!-- :ui:image&#45;&gt;:ui:core -->
<g id="edge23" class="edge">
<title>:ui:image&#45;&gt;:ui:core</title>
<path fill="none" stroke="red" d="M391.62,-286C368.54,-286 345,-286 345,-286 345,-286 345,-174.71 345,-174.71"/>
<polygon fill="red" stroke="red" points="348.5,-174.71 345,-164.71 341.5,-174.71 348.5,-174.71"/>
</g>
</g>
</svg>
