<?xml version="1.0" encoding="UTF-8" standalone="no"?>
<!DOCTYPE svg PUBLIC "-//W3C//DTD SVG 1.1//EN"
 "http://www.w3.org/Graphics/SVG/1.1/DTD/svg11.dtd">
<!-- Generated by graphviz version 2.43.0 (0)
 -->
<!-- Title: %3 Pages: 1 -->
<svg width="1273pt" height="529pt"
 viewBox="0.00 0.00 1272.89 529.00" xmlns="http://www.w3.org/2000/svg" xmlns:xlink="http://www.w3.org/1999/xlink">
<g id="graph0" class="graph" transform="scale(1 1) rotate(0) translate(4 525)">
<title>%3</title>
<polygon fill="white" stroke="transparent" points="-4,4 -4,-525 1268.89,-525 1268.89,4 -4,4"/>
<text text-anchor="middle" x="632.44" y="-493" font-family="Times,serif" font-size="30.00">Dependencies</text>
<text text-anchor="middle" x="632.44" y="-460" font-family="Times,serif" font-size="30.00"> </text>
<!-- :ui:common -->
<g id="node1" class="node">
<title>:ui:common</title>
<polygon fill="#b59aff" stroke="black" points="641.24,-447 542.24,-447 542.24,-411 641.24,-411 641.24,-447"/>
<text text-anchor="middle" x="591.74" y="-425.3" font-family="Times,serif" font-size="14.00">:ui:common</text>
</g>
<!-- :ui:test:image -->
<g id="node2" class="node">
<title>:ui:test:image</title>
<ellipse fill="#9affb5" stroke="black" cx="74.74" cy="-292" rx="74.99" ry="18"/>
<text text-anchor="middle" x="74.74" y="-288.3" font-family="Times,serif" font-size="14.00">:ui:test:image</text>
</g>
<!-- :ui:common&#45;&gt;:ui:test:image -->
<g id="edge1" class="edge">
<title>:ui:common&#45;&gt;:ui:test:image</title>
<path fill="none" stroke="#ff9ab1" stroke-dasharray="1,5" d="M542.17,-438C412.77,-438 74.74,-438 74.74,-438 74.74,-438 74.74,-320.2 74.74,-320.2"/>
<polygon fill="#ff9ab1" stroke="#ff9ab1" points="78.24,-320.2 74.74,-310.2 71.24,-320.2 78.24,-320.2"/>
</g>
<!-- :ui:test:screenshot -->
<g id="node3" class="node">
<title>:ui:test:screenshot</title>
<ellipse fill="#9affb5" stroke="black" cx="302.74" cy="-292" rx="96.68" ry="18"/>
<text text-anchor="middle" x="302.74" y="-288.3" font-family="Times,serif" font-size="14.00">:ui:test:screenshot</text>
</g>
<!-- :ui:common&#45;&gt;:ui:test:screenshot -->
<g id="edge2" class="edge">
<title>:ui:common&#45;&gt;:ui:test:screenshot</title>
<path fill="none" stroke="#ff9ab1" stroke-dasharray="1,5" d="M542.06,-429C459.43,-429 302.74,-429 302.74,-429 302.74,-429 302.74,-320.19 302.74,-320.19"/>
<polygon fill="#ff9ab1" stroke="#ff9ab1" points="306.24,-320.19 302.74,-310.19 299.24,-320.19 306.24,-320.19"/>
</g>
<!-- :core:models -->
<g id="node4" class="node">
<title>:core:models</title>
<ellipse fill="#b59aff" stroke="black" cx="740.74" cy="-18" rx="69.59" ry="18"/>
<text text-anchor="middle" x="740.74" y="-14.3" font-family="Times,serif" font-size="14.00">:core:models</text>
</g>
<!-- :ui:common&#45;&gt;:core:models -->
<g id="edge3" class="edge">
<title>:ui:common&#45;&gt;:core:models</title>
<path fill="none" stroke="black" d="M590.03,-410.99C590.03,-332.96 590.03,-28 590.03,-28 590.03,-28 672.9,-28 672.9,-28"/>
<polygon fill="black" stroke="black" points="672.9,-31.5 682.9,-28 672.9,-24.5 672.9,-31.5"/>
</g>
<!-- :data:coverart -->
<g id="node5" class="node">
<title>:data:coverart</title>
<ellipse fill="#b59aff" stroke="black" cx="733.74" cy="-292" rx="76.09" ry="18"/>
<text text-anchor="middle" x="733.74" y="-288.3" font-family="Times,serif" font-size="14.00">:data:coverart</text>
</g>
<!-- :ui:common&#45;&gt;:data:coverart -->
<g id="edge4" class="edge">
<title>:ui:common&#45;&gt;:data:coverart</title>
<path fill="none" stroke="black" stroke-dasharray="1,5" d="M628.56,-410.81C628.56,-373.54 628.56,-292 628.56,-292 628.56,-292 647.58,-292 647.58,-292"/>
<polygon fill="black" stroke="black" points="647.58,-295.5 657.58,-292 647.58,-288.5 647.58,-295.5"/>
</g>
<!-- :data:musicbrainz -->
<g id="node6" class="node">
<title>:data:musicbrainz</title>
<ellipse fill="#b59aff" stroke="black" cx="959.74" cy="-292" rx="93.68" ry="18"/>
<text text-anchor="middle" x="959.74" y="-288.3" font-family="Times,serif" font-size="14.00">:data:musicbrainz</text>
</g>
<!-- :ui:common&#45;&gt;:data:musicbrainz -->
<g id="edge5" class="edge">
<title>:ui:common&#45;&gt;:data:musicbrainz</title>
<path fill="none" stroke="black" stroke-dasharray="1,5" d="M641.37,-429C741.82,-429 959.74,-429 959.74,-429 959.74,-429 959.74,-320.19 959.74,-320.19"/>
<polygon fill="black" stroke="black" points="963.24,-320.19 959.74,-310.19 956.24,-320.19 963.24,-320.19"/>
</g>
<!-- :core:preferences -->
<g id="node7" class="node">
<title>:core:preferences</title>
<ellipse fill="#b59aff" stroke="black" cx="1162.74" cy="-292" rx="91.78" ry="18"/>
<text text-anchor="middle" x="1162.74" y="-288.3" font-family="Times,serif" font-size="14.00">:core:preferences</text>
</g>
<!-- :ui:common&#45;&gt;:core:preferences -->
<g id="edge6" class="edge">
<title>:ui:common&#45;&gt;:core:preferences</title>
<path fill="none" stroke="black" stroke-dasharray="1,5" d="M641.42,-438C780.34,-438 1162.74,-438 1162.74,-438 1162.74,-438 1162.74,-320.2 1162.74,-320.2"/>
<polygon fill="black" stroke="black" points="1166.24,-320.2 1162.74,-310.2 1159.24,-320.2 1166.24,-320.2"/>
</g>
<!-- :core:logging:api -->
<g id="node8" class="node">
<title>:core:logging:api</title>
<ellipse fill="#b59aff" stroke="black" cx="912.74" cy="-155" rx="88.28" ry="18"/>
<text text-anchor="middle" x="912.74" y="-151.3" font-family="Times,serif" font-size="14.00">:core:logging:api</text>
</g>
<!-- :ui:common&#45;&gt;:core:logging:api -->
<g id="edge7" class="edge">
<title>:ui:common&#45;&gt;:core:logging:api</title>
<path fill="none" stroke="black" stroke-dasharray="1,5" d="M641.35,-420C716.92,-420 852.22,-420 852.22,-420 852.22,-420 852.22,-178.14 852.22,-178.14"/>
<polygon fill="black" stroke="black" points="855.72,-178.14 852.22,-168.14 848.72,-178.14 855.72,-178.14"/>
</g>
<!-- :shared:domain -->
<g id="node9" class="node">
<title>:shared:domain</title>
<ellipse fill="#b59aff" stroke="black" cx="685.74" cy="-155" rx="82.59" ry="18"/>
<text text-anchor="middle" x="685.74" y="-151.3" font-family="Times,serif" font-size="14.00">:shared:domain</text>
</g>
<!-- :ui:common&#45;&gt;:shared:domain -->
<g id="edge8" class="edge">
<title>:ui:common&#45;&gt;:shared:domain</title>
<path fill="none" stroke="black" stroke-dasharray="1,5" d="M615.88,-410.6C615.88,-410.6 615.88,-174.78 615.88,-174.78"/>
<polygon fill="black" stroke="black" points="619.38,-174.78 615.88,-164.78 612.38,-174.78 619.38,-174.78"/>
</g>
<!-- :shared:strings -->
<g id="node10" class="node">
<title>:shared:strings</title>
<ellipse fill="#b59aff" stroke="black" cx="240.74" cy="-18" rx="81.49" ry="18"/>
<text text-anchor="middle" x="240.74" y="-14.3" font-family="Times,serif" font-size="14.00">:shared:strings</text>
</g>
<!-- :ui:common&#45;&gt;:shared:strings -->
<g id="edge9" class="edge">
<title>:ui:common&#45;&gt;:shared:strings</title>
<path fill="none" stroke="black" stroke-dasharray="1,5" d="M576.86,-410.87C576.86,-330.09 576.86,-7 576.86,-7 576.86,-7 315.15,-7 315.15,-7"/>
<polygon fill="black" stroke="black" points="315.15,-3.5 305.15,-7 315.15,-10.5 315.15,-3.5"/>
</g>
<!-- :ui:core -->
<g id="node11" class="node">
<title>:ui:core</title>
<ellipse fill="#b59aff" stroke="black" cx="365.74" cy="-155" rx="45.49" ry="18"/>
<text text-anchor="middle" x="365.74" y="-151.3" font-family="Times,serif" font-size="14.00">:ui:core</text>
</g>
<!-- :ui:common&#45;&gt;:ui:core -->
<g id="edge10" class="edge">
<title>:ui:common&#45;&gt;:ui:core</title>
<path fill="none" stroke="black" stroke-dasharray="1,5" d="M541.78,-420C486.01,-420 403.47,-420 403.47,-420 403.47,-420 403.47,-175.06 403.47,-175.06"/>
<polygon fill="black" stroke="black" points="406.97,-175.06 403.47,-165.06 399.97,-175.06 406.97,-175.06"/>
</g>
<!-- :ui:image -->
<g id="node12" class="node">
<title>:ui:image</title>
<ellipse fill="#b59aff" stroke="black" cx="509.74" cy="-292" rx="53.89" ry="18"/>
<text text-anchor="middle" x="509.74" y="-288.3" font-family="Times,serif" font-size="14.00">:ui:image</text>
</g>
<!-- :ui:common&#45;&gt;:ui:image -->
<g id="edge11" class="edge">
<title>:ui:common&#45;&gt;:ui:image</title>
<path fill="none" stroke="black" stroke-dasharray="1,5" d="M552.97,-410.81C552.97,-410.81 552.97,-313.09 552.97,-313.09"/>
<polygon fill="black" stroke="black" points="556.47,-313.09 552.97,-303.09 549.47,-313.09 556.47,-313.09"/>
</g>
<!-- :ui:test:screenshot&#45;&gt;:ui:core -->
<g id="edge12" class="edge">
<title>:ui:test:screenshot&#45;&gt;:ui:core</title>
<path fill="none" stroke="black" stroke-dasharray="1,5" d="M359.92,-277.34C359.92,-277.34 359.92,-183.01 359.92,-183.01"/>
<polygon fill="black" stroke="black" points="363.42,-183.01 359.92,-173.01 356.42,-183.01 363.42,-183.01"/>
</g>
<!-- :data:coverart&#45;&gt;:core:models -->
<g id="edge14" class="edge">
<title>:data:coverart&#45;&gt;:core:models</title>
<path fill="none" stroke="black" stroke-dasharray="1,5" d="M789.04,-279.51C789.04,-279.51 789.04,-41.2 789.04,-41.2"/>
<polygon fill="black" stroke="black" points="792.54,-41.2 789.04,-31.2 785.54,-41.2 792.54,-41.2"/>
</g>
<!-- :data:coverart&#45;&gt;:core:logging:api -->
<g id="edge13" class="edge">
<title>:data:coverart&#45;&gt;:core:logging:api</title>
<path fill="none" stroke="black" stroke-dasharray="1,5" d="M809.99,-292C826.07,-292 838.28,-292 838.28,-292 838.28,-292 838.28,-174.85 838.28,-174.85"/>
<polygon fill="black" stroke="black" points="841.78,-174.85 838.28,-164.85 834.78,-174.85 841.78,-174.85"/>
</g>
<!-- :data:coverart&#45;&gt;:shared:domain -->
<g id="edge15" class="edge">
<title>:data:coverart&#45;&gt;:shared:domain</title>
<path fill="none" stroke="black" stroke-dasharray="1,5" d="M712.99,-274.65C712.99,-274.65 712.99,-182.21 712.99,-182.21"/>
<polygon fill="black" stroke="black" points="716.49,-182.21 712.99,-172.21 709.49,-182.21 716.49,-182.21"/>
</g>
<!-- :data:musicbrainz&#45;&gt;:core:models -->
<g id="edge17" class="edge">
<title>:data:musicbrainz&#45;&gt;:core:models</title>
<path fill="none" stroke="black" stroke-dasharray="1,5" d="M1027.24,-279.43C1027.24,-226.45 1027.24,-24 1027.24,-24 1027.24,-24 816.47,-24 816.47,-24"/>
<polygon fill="black" stroke="black" points="816.47,-20.5 806.47,-24 816.47,-27.5 816.47,-20.5"/>
</g>
<!-- :data:musicbrainz&#45;&gt;:core:logging:api -->
<g id="edge16" class="edge">
<title>:data:musicbrainz&#45;&gt;:core:logging:api</title>
<path fill="none" stroke="black" stroke-dasharray="1,5" d="M933.64,-274.65C933.64,-274.65 933.64,-182.64 933.64,-182.64"/>
<polygon fill="black" stroke="black" points="937.14,-182.64 933.64,-172.64 930.14,-182.64 937.14,-182.64"/>
</g>
<!-- :core:preferences&#45;&gt;:core:models -->
<g id="edge19" class="edge">
<title>:core:preferences&#45;&gt;:core:models</title>
<path fill="none" stroke="black" stroke-dasharray="1,5" d="M1082.85,-283C1082.85,-235.07 1082.85,-12 1082.85,-12 1082.85,-12 816.71,-12 816.71,-12"/>
<polygon fill="black" stroke="black" points="816.71,-8.5 806.71,-12 816.71,-15.5 816.71,-8.5"/>
</g>
<!-- :core:coroutines -->
<g id="node13" class="node">
<title>:core:coroutines</title>
<ellipse fill="#b59aff" stroke="black" cx="1179.74" cy="-155" rx="85.29" ry="18"/>
<text text-anchor="middle" x="1179.74" y="-151.3" font-family="Times,serif" font-size="14.00">:core:coroutines</text>
</g>
<!-- :core:preferences&#45;&gt;:core:coroutines -->
<g id="edge18" class="edge">
<title>:core:preferences&#45;&gt;:core:coroutines</title>
<path fill="none" stroke="black" stroke-dasharray="1,5" d="M1174.49,-274.09C1174.49,-274.09 1174.49,-183.35 1174.49,-183.35"/>
<polygon fill="black" stroke="black" points="1177.99,-183.35 1174.49,-173.35 1170.99,-183.35 1177.99,-183.35"/>
</g>
<!-- :shared:domain&#45;&gt;:core:models -->
<g id="edge20" class="edge">
<title>:shared:domain&#45;&gt;:core:models</title>
<path fill="none" stroke="black" stroke-dasharray="1,5" d="M719.74,-138.47C719.74,-138.47 719.74,-45.45 719.74,-45.45"/>
<polygon fill="black" stroke="black" points="723.24,-45.45 719.74,-35.45 716.24,-45.45 723.24,-45.45"/>
</g>
<!-- :ui:core&#45;&gt;:shared:strings -->
<g id="edge21" class="edge">
<title>:ui:core&#45;&gt;:shared:strings</title>
<path fill="none" stroke="black" d="M366.61,-136.86C366.61,-98.77 366.61,-14 366.61,-14 366.61,-14 330.1,-14 330.1,-14"/>
<polygon fill="black" stroke="black" points="330.1,-10.5 320.1,-14 330.1,-17.5 330.1,-10.5"/>
</g>
<!-- :ui:image&#45;&gt;:core:models -->
<g id="edge22" class="edge">
<title>:ui:image&#45;&gt;:core:models</title>
<path fill="none" stroke="black" stroke-dasharray="1,5" d="M509.74,-273.8C509.74,-213.04 509.74,-21 509.74,-21 509.74,-21 662.06,-21 662.06,-21"/>
<polygon fill="black" stroke="black" points="662.06,-24.5 672.06,-21 662.06,-17.5 662.06,-24.5"/>
</g>
<!-- :ui:image&#45;&gt;:ui:core -->
<g id="edge23" class="edge">
<title>:ui:image&#45;&gt;:ui:core</title>
<path fill="none" stroke="black" stroke-dasharray="1,5" d="M455.55,-292C430.99,-292 407.35,-292 407.35,-292 407.35,-292 407.35,-172.37 407.35,-172.37"/>
<polygon fill="black" stroke="black" points="410.85,-172.37 407.35,-162.37 403.85,-172.37 410.85,-172.37"/>
</g>
</g>
</svg>
