<?xml version="1.0" encoding="UTF-8" standalone="no"?>
<!DOCTYPE svg PUBLIC "-//W3C//DTD SVG 1.1//EN"
 "http://www.w3.org/Graphics/SVG/1.1/DTD/svg11.dtd">
<!-- Generated by graphviz version 2.43.0 (0)
 -->
<!-- Title: %3 Pages: 1 -->
<svg width="1093pt" height="666pt"
 viewBox="0.00 0.00 1093.29 666.00" xmlns="http://www.w3.org/2000/svg" xmlns:xlink="http://www.w3.org/1999/xlink">
<g id="graph0" class="graph" transform="scale(1 1) rotate(0) translate(4 662)">
<title>%3</title>
<polygon fill="white" stroke="transparent" points="-4,4 -4,-662 1089.29,-662 1089.29,4 -4,4"/>
<text text-anchor="middle" x="542.64" y="-630" font-family="Times,serif" font-size="30.00">Dependencies</text>
<text text-anchor="middle" x="542.64" y="-597" font-family="Times,serif" font-size="30.00"> </text>
<!-- :ui:common -->
<g id="node1" class="node">
<title>:ui:common</title>
<polygon fill="#b59aff" stroke="black" points="425.54,-584 326.54,-584 326.54,-548 425.54,-548 425.54,-584"/>
<text text-anchor="middle" x="376.04" y="-562.3" font-family="Times,serif" font-size="14.00">:ui:common</text>
</g>
<!-- :test:image -->
<g id="node2" class="node">
<title>:test:image</title>
<ellipse fill="#9affb5" stroke="black" cx="63.04" cy="-292" rx="63.09" ry="18"/>
<text text-anchor="middle" x="63.04" y="-288.3" font-family="Times,serif" font-size="14.00">:test:image</text>
</g>
<!-- :ui:common&#45;&gt;:test:image -->
<g id="edge1" class="edge">
<title>:ui:common&#45;&gt;:test:image</title>
<path fill="none" stroke="black" stroke-dasharray="1,5" d="M326.48,-572C227.35,-572 14.1,-572 14.1,-572 14.1,-572 14.1,-313.67 14.1,-313.67"/>
<polygon fill="black" stroke="black" points="17.6,-313.67 14.1,-303.67 10.6,-313.67 17.6,-313.67"/>
</g>
<!-- :test&#45;data -->
<g id="node3" class="node">
<title>:test&#45;data</title>
<ellipse fill="#b59aff" stroke="black" cx="449.04" cy="-429" rx="55.49" ry="18"/>
<text text-anchor="middle" x="449.04" y="-425.3" font-family="Times,serif" font-size="14.00">:test&#45;data</text>
</g>
<!-- :ui:common&#45;&gt;:test&#45;data -->
<g id="edge2" class="edge">
<title>:ui:common&#45;&gt;:test&#45;data</title>
<path fill="none" stroke="#ff9ab1" stroke-dasharray="1,5" d="M409.67,-547.81C409.67,-547.81 409.67,-451.94 409.67,-451.94"/>
<polygon fill="#ff9ab1" stroke="#ff9ab1" points="413.17,-451.94 409.67,-441.94 406.17,-451.94 413.17,-451.94"/>
</g>
<!-- :ui:test:screenshot -->
<g id="node4" class="node">
<title>:ui:test:screenshot</title>
<ellipse fill="#9affb5" stroke="black" cx="125.04" cy="-429" rx="96.68" ry="18"/>
<text text-anchor="middle" x="125.04" y="-425.3" font-family="Times,serif" font-size="14.00">:ui:test:screenshot</text>
</g>
<!-- :ui:common&#45;&gt;:ui:test:screenshot -->
<g id="edge3" class="edge">
<title>:ui:common&#45;&gt;:ui:test:screenshot</title>
<path fill="none" stroke="#ff9ab1" stroke-dasharray="1,5" d="M360.17,-547.81C360.17,-510.54 360.17,-429 360.17,-429 360.17,-429 232.04,-429 232.04,-429"/>
<polygon fill="#ff9ab1" stroke="#ff9ab1" points="232.04,-425.5 222.04,-429 232.04,-432.5 232.04,-425.5"/>
</g>
<!-- :shared:domain -->
<g id="node5" class="node">
<title>:shared:domain</title>
<ellipse fill="#b59aff" stroke="black" cx="415.04" cy="-18" rx="82.59" ry="18"/>
<text text-anchor="middle" x="415.04" y="-14.3" font-family="Times,serif" font-size="14.00">:shared:domain</text>
</g>
<!-- :ui:common&#45;&gt;:shared:domain -->
<g id="edge4" class="edge">
<title>:ui:common&#45;&gt;:shared:domain</title>
<path fill="none" stroke="black" d="M326.51,-560C298.42,-560 268.82,-560 268.82,-560 268.82,-560 268.82,-18 268.82,-18 268.82,-18 322.1,-18 322.1,-18"/>
<polygon fill="black" stroke="black" points="322.1,-21.5 332.1,-18 322.1,-14.5 322.1,-21.5"/>
</g>
<!-- :shared:strings -->
<g id="node6" class="node">
<title>:shared:strings</title>
<ellipse fill="#b59aff" stroke="black" cx="1004.04" cy="-429" rx="81.49" ry="18"/>
<text text-anchor="middle" x="1004.04" y="-425.3" font-family="Times,serif" font-size="14.00">:shared:strings</text>
</g>
<!-- :ui:common&#45;&gt;:shared:strings -->
<g id="edge5" class="edge">
<title>:ui:common&#45;&gt;:shared:strings</title>
<path fill="none" stroke="black" d="M425.58,-572C573.88,-572 1004.04,-572 1004.04,-572 1004.04,-572 1004.04,-457.11 1004.04,-457.11"/>
<polygon fill="black" stroke="black" points="1007.54,-457.11 1004.04,-447.11 1000.54,-457.11 1007.54,-457.11"/>
</g>
<!-- :core:logging:api -->
<g id="node7" class="node">
<title>:core:logging:api</title>
<ellipse fill="#b59aff" stroke="black" cx="660.04" cy="-18" rx="88.28" ry="18"/>
<text text-anchor="middle" x="660.04" y="-14.3" font-family="Times,serif" font-size="14.00">:core:logging:api</text>
</g>
<!-- :ui:common&#45;&gt;:core:logging:api -->
<g id="edge6" class="edge">
<title>:ui:common&#45;&gt;:core:logging:api</title>
<path fill="none" stroke="black" stroke-dasharray="1,5" d="M425.79,-560C517.96,-560 705.97,-560 705.97,-560 705.97,-560 705.97,-43.64 705.97,-43.64"/>
<polygon fill="black" stroke="black" points="709.47,-43.64 705.97,-33.64 702.47,-43.64 709.47,-43.64"/>
</g>
<!-- :test&#45;data&#45;&gt;:shared:domain -->
<g id="edge7" class="edge">
<title>:test&#45;data&#45;&gt;:shared:domain</title>
<path fill="none" stroke="black" stroke-dasharray="1,5" d="M497.05,-420C523.24,-420 550.39,-420 550.39,-420 550.39,-420 550.39,-27 550.39,-27 550.39,-27 496.68,-27 496.68,-27"/>
<polygon fill="black" stroke="black" points="496.68,-23.5 486.68,-27 496.68,-30.5 496.68,-23.5"/>
</g>
<!-- :data:database -->
<g id="node8" class="node">
<title>:data:database</title>
<ellipse fill="#b59aff" stroke="black" cx="395.04" cy="-292" rx="79.09" ry="18"/>
<text text-anchor="middle" x="395.04" y="-288.3" font-family="Times,serif" font-size="14.00">:data:database</text>
</g>
<!-- :test&#45;data&#45;&gt;:data:database -->
<g id="edge8" class="edge">
<title>:test&#45;data&#45;&gt;:data:database</title>
<path fill="none" stroke="black" stroke-dasharray="1,5" d="M434.07,-411.65C434.07,-411.65 434.07,-317.94 434.07,-317.94"/>
<polygon fill="black" stroke="black" points="437.57,-317.94 434.07,-307.94 430.57,-317.94 437.57,-317.94"/>
</g>
<!-- :data:musicbrainz -->
<g id="node9" class="node">
<title>:data:musicbrainz</title>
<ellipse fill="#b59aff" stroke="black" cx="448.04" cy="-155" rx="93.68" ry="18"/>
<text text-anchor="middle" x="448.04" y="-151.3" font-family="Times,serif" font-size="14.00">:data:musicbrainz</text>
</g>
<!-- :test&#45;data&#45;&gt;:data:musicbrainz -->
<g id="edge9" class="edge">
<title>:test&#45;data&#45;&gt;:data:musicbrainz</title>
<path fill="none" stroke="black" stroke-dasharray="1,5" d="M489.31,-416.51C489.31,-416.51 489.31,-181.23 489.31,-181.23"/>
<polygon fill="black" stroke="black" points="492.81,-181.23 489.31,-171.23 485.81,-181.23 492.81,-181.23"/>
</g>
<!-- :data:coverart -->
<g id="node10" class="node">
<title>:data:coverart</title>
<ellipse fill="#b59aff" stroke="black" cx="791.04" cy="-155" rx="76.09" ry="18"/>
<text text-anchor="middle" x="791.04" y="-151.3" font-family="Times,serif" font-size="14.00">:data:coverart</text>
</g>
<!-- :test&#45;data&#45;&gt;:data:coverart -->
<g id="edge10" class="edge">
<title>:test&#45;data&#45;&gt;:data:coverart</title>
<path fill="none" stroke="black" stroke-dasharray="1,5" d="M496.96,-438C591.08,-438 791.04,-438 791.04,-438 791.04,-438 791.04,-183.13 791.04,-183.13"/>
<polygon fill="black" stroke="black" points="794.54,-183.13 791.04,-173.13 787.54,-183.13 794.54,-183.13"/>
</g>
<!-- :data:spotify -->
<g id="node11" class="node">
<title>:data:spotify</title>
<ellipse fill="#b59aff" stroke="black" cx="628.04" cy="-155" rx="68.79" ry="18"/>
<text text-anchor="middle" x="628.04" y="-151.3" font-family="Times,serif" font-size="14.00">:data:spotify</text>
</g>
<!-- :test&#45;data&#45;&gt;:data:spotify -->
<g id="edge11" class="edge">
<title>:test&#45;data&#45;&gt;:data:spotify</title>
<path fill="none" stroke="black" stroke-dasharray="1,5" d="M504.7,-429C557.25,-429 628.04,-429 628.04,-429 628.04,-429 628.04,-183.4 628.04,-183.4"/>
<polygon fill="black" stroke="black" points="631.54,-183.4 628.04,-173.4 624.54,-183.4 631.54,-183.4"/>
</g>
<!-- :ui:test:screenshot&#45;&gt;:test:image -->
<g id="edge12" class="edge">
<title>:ui:test:screenshot&#45;&gt;:test:image</title>
<path fill="none" stroke="black" stroke-dasharray="1,5" d="M77.15,-413.28C77.15,-413.28 77.15,-319.69 77.15,-319.69"/>
<polygon fill="black" stroke="black" points="80.65,-319.69 77.15,-309.69 73.65,-319.69 80.65,-319.69"/>
</g>
<!-- :data:database&#45;&gt;:shared:domain -->
<g id="edge13" class="edge">
<title>:data:database&#45;&gt;:shared:domain</title>
<path fill="none" stroke="black" stroke-dasharray="1,5" d="M343.48,-278.04C343.48,-278.04 343.48,-37.15 343.48,-37.15"/>
<polygon fill="black" stroke="black" points="346.98,-37.15 343.48,-27.15 339.98,-37.15 346.98,-37.15"/>
</g>
<!-- :data:database&#45;&gt;:data:musicbrainz -->
<g id="edge14" class="edge">
<title>:data:database&#45;&gt;:data:musicbrainz</title>
<path fill="none" stroke="black" stroke-dasharray="1,5" d="M414.4,-274.37C414.4,-274.37 414.4,-182.13 414.4,-182.13"/>
<polygon fill="black" stroke="black" points="417.9,-182.13 414.4,-172.13 410.9,-182.13 417.9,-182.13"/>
</g>
<!-- :data:musicbrainz&#45;&gt;:shared:domain -->
<g id="edge15" class="edge">
<title>:data:musicbrainz&#45;&gt;:shared:domain</title>
<path fill="none" stroke="black" stroke-dasharray="1,5" d="M402.16,-139.28C402.16,-139.28 402.16,-46.13 402.16,-46.13"/>
<polygon fill="black" stroke="black" points="405.66,-46.13 402.16,-36.13 398.66,-46.13 405.66,-46.13"/>
</g>
<!-- :data:musicbrainz&#45;&gt;:core:logging:api -->
<g id="edge16" class="edge">
<title>:data:musicbrainz&#45;&gt;:core:logging:api</title>
<path fill="none" stroke="black" stroke-dasharray="1,5" d="M519.61,-143.3C519.61,-108.65 519.61,-9 519.61,-9 519.61,-9 573.25,-9 573.25,-9"/>
<polygon fill="black" stroke="black" points="573.25,-12.5 583.25,-9 573.25,-5.5 573.25,-12.5"/>
</g>
<!-- :data:coverart&#45;&gt;:shared:domain -->
<g id="edge17" class="edge">
<title>:data:coverart&#45;&gt;:shared:domain</title>
<path fill="none" stroke="black" stroke-dasharray="1,5" d="M726.15,-145.41C726.15,-126.45 726.15,-86 726.15,-86 726.15,-86 449.88,-86 449.88,-86 449.88,-86 449.88,-44.46 449.88,-44.46"/>
<polygon fill="black" stroke="black" points="453.38,-44.46 449.88,-34.46 446.38,-44.46 453.38,-44.46"/>
</g>
<!-- :data:coverart&#45;&gt;:core:logging:api -->
<g id="edge18" class="edge">
<title>:data:coverart&#45;&gt;:core:logging:api</title>
<path fill="none" stroke="black" stroke-dasharray="1,5" d="M737.29,-142.11C737.29,-142.11 737.29,-36.87 737.29,-36.87"/>
<polygon fill="black" stroke="black" points="740.79,-36.87 737.29,-26.87 733.79,-36.87 740.79,-36.87"/>
</g>
<!-- :data:spotify&#45;&gt;:shared:domain -->
<g id="edge19" class="edge">
<title>:data:spotify&#45;&gt;:shared:domain</title>
<path fill="none" stroke="black" stroke-dasharray="1,5" d="M565.4,-147.24C565.4,-118.26 565.4,-18 565.4,-18 565.4,-18 507.7,-18 507.7,-18"/>
<polygon fill="black" stroke="black" points="507.7,-14.5 497.7,-18 507.7,-21.5 507.7,-14.5"/>
</g>
<!-- :data:spotify&#45;&gt;:core:logging:api -->
<g id="edge20" class="edge">
<title>:data:spotify&#45;&gt;:core:logging:api</title>
<path fill="none" stroke="black" stroke-dasharray="1,5" d="M634.3,-136.81C634.3,-136.81 634.3,-45.4 634.3,-45.4"/>
<polygon fill="black" stroke="black" points="637.8,-45.4 634.3,-35.4 630.8,-45.4 637.8,-45.4"/>
</g>
</g>
</svg>
