<?xml version="1.0" encoding="UTF-8" standalone="no"?>
<!DOCTYPE svg PUBLIC "-//W3C//DTD SVG 1.1//EN"
 "http://www.w3.org/Graphics/SVG/1.1/DTD/svg11.dtd">
<!-- Generated by graphviz version 2.43.0 (0)
 -->
<!-- Title: %3 Pages: 1 -->
<svg width="1043pt" height="803pt"
 viewBox="0.00 0.00 1043.29 803.00" xmlns="http://www.w3.org/2000/svg" xmlns:xlink="http://www.w3.org/1999/xlink">
<g id="graph0" class="graph" transform="scale(1 1) rotate(0) translate(4 799)">
<title>%3</title>
<polygon fill="white" stroke="transparent" points="-4,4 -4,-799 1039.29,-799 1039.29,4 -4,4"/>
<text text-anchor="middle" x="517.64" y="-767" font-family="Times,serif" font-size="30.00">Dependencies</text>
<text text-anchor="middle" x="517.64" y="-734" font-family="Times,serif" font-size="30.00"> </text>
<!-- :ui:common -->
<g id="node1" class="node">
<title>:ui:common</title>
<polygon fill="#b59aff" stroke="black" points="423.54,-721 324.54,-721 324.54,-685 423.54,-685 423.54,-721"/>
<text text-anchor="middle" x="374.04" y="-699.3" font-family="Times,serif" font-size="14.00">:ui:common</text>
</g>
<!-- :test:image -->
<g id="node2" class="node">
<title>:test:image</title>
<ellipse fill="#9affb5" stroke="black" cx="63.04" cy="-429" rx="63.09" ry="18"/>
<text text-anchor="middle" x="63.04" y="-425.3" font-family="Times,serif" font-size="14.00">:test:image</text>
</g>
<!-- :ui:common&#45;&gt;:test:image -->
<g id="edge1" class="edge">
<title>:ui:common&#45;&gt;:test:image</title>
<path fill="none" stroke="black" stroke-dasharray="1,5" d="M363.93,-685C363.93,-624.91 363.93,-435 363.93,-435 363.93,-435 132.49,-435 132.49,-435"/>
<polygon fill="black" stroke="black" points="132.49,-431.5 122.49,-435 132.49,-438.5 132.49,-431.5"/>
</g>
<!-- :test&#45;data -->
<g id="node3" class="node">
<title>:test&#45;data</title>
<ellipse fill="#b59aff" stroke="black" cx="499.04" cy="-566" rx="55.49" ry="18"/>
<text text-anchor="middle" x="499.04" y="-562.3" font-family="Times,serif" font-size="14.00">:test&#45;data</text>
</g>
<!-- :ui:common&#45;&gt;:test&#45;data -->
<g id="edge2" class="edge">
<title>:ui:common&#45;&gt;:test&#45;data</title>
<path fill="none" stroke="#ff9ab1" stroke-dasharray="1,5" d="M403.31,-684.93C403.31,-648.35 403.31,-569 403.31,-569 403.31,-569 434.47,-569 434.47,-569"/>
<polygon fill="#ff9ab1" stroke="#ff9ab1" points="434.47,-572.5 444.47,-569 434.47,-565.5 434.47,-572.5"/>
</g>
<!-- :ui:test:screenshot -->
<g id="node4" class="node">
<title>:ui:test:screenshot</title>
<ellipse fill="#9affb5" stroke="black" cx="125.04" cy="-566" rx="96.68" ry="18"/>
<text text-anchor="middle" x="125.04" y="-562.3" font-family="Times,serif" font-size="14.00">:ui:test:screenshot</text>
</g>
<!-- :ui:common&#45;&gt;:ui:test:screenshot -->
<g id="edge3" class="edge">
<title>:ui:common&#45;&gt;:ui:test:screenshot</title>
<path fill="none" stroke="#ff9ab1" stroke-dasharray="1,5" d="M344.24,-684.8C344.24,-649.69 344.24,-576 344.24,-576 344.24,-576 215.73,-576 215.73,-576"/>
<polygon fill="#ff9ab1" stroke="#ff9ab1" points="215.73,-572.5 205.73,-576 215.73,-579.5 215.73,-572.5"/>
</g>
<!-- :shared:domain -->
<g id="node5" class="node">
<title>:shared:domain</title>
<ellipse fill="#b59aff" stroke="black" cx="388.04" cy="-18" rx="82.59" ry="18"/>
<text text-anchor="middle" x="388.04" y="-14.3" font-family="Times,serif" font-size="14.00">:shared:domain</text>
</g>
<!-- :ui:common&#45;&gt;:shared:domain -->
<g id="edge4" class="edge">
<title>:ui:common&#45;&gt;:shared:domain</title>
<path fill="none" stroke="black" d="M324.37,-703C315,-703 308.06,-703 308.06,-703 308.06,-703 308.06,-32.74 308.06,-32.74"/>
<polygon fill="black" stroke="black" points="311.56,-32.74 308.06,-22.74 304.56,-32.74 311.56,-32.74"/>
</g>
<!-- :shared:strings -->
<g id="node6" class="node">
<title>:shared:strings</title>
<ellipse fill="#b59aff" stroke="black" cx="954.04" cy="-566" rx="81.49" ry="18"/>
<text text-anchor="middle" x="954.04" y="-562.3" font-family="Times,serif" font-size="14.00">:shared:strings</text>
</g>
<!-- :ui:common&#45;&gt;:shared:strings -->
<g id="edge5" class="edge">
<title>:ui:common&#45;&gt;:shared:strings</title>
<path fill="none" stroke="black" d="M423.75,-709C564.22,-709 954.04,-709 954.04,-709 954.04,-709 954.04,-594.11 954.04,-594.11"/>
<polygon fill="black" stroke="black" points="957.54,-594.11 954.04,-584.11 950.54,-594.11 957.54,-594.11"/>
</g>
<!-- :core:logging:api -->
<g id="node7" class="node">
<title>:core:logging:api</title>
<ellipse fill="#b59aff" stroke="black" cx="699.04" cy="-18" rx="88.28" ry="18"/>
<text text-anchor="middle" x="699.04" y="-14.3" font-family="Times,serif" font-size="14.00">:core:logging:api</text>
</g>
<!-- :ui:common&#45;&gt;:core:logging:api -->
<g id="edge6" class="edge">
<title>:ui:common&#45;&gt;:core:logging:api</title>
<path fill="none" stroke="black" stroke-dasharray="1,5" d="M423.58,-697C505.52,-697 660.31,-697 660.31,-697 660.31,-697 660.31,-44.45 660.31,-44.45"/>
<polygon fill="black" stroke="black" points="663.81,-44.45 660.31,-34.45 656.81,-44.45 663.81,-44.45"/>
</g>
<!-- :test&#45;data&#45;&gt;:shared:domain -->
<g id="edge7" class="edge">
<title>:test&#45;data&#45;&gt;:shared:domain</title>
<path fill="none" stroke="black" stroke-dasharray="1,5" d="M445.05,-562C389.37,-562 310.63,-562 310.63,-562 310.63,-562 310.63,-34.49 310.63,-34.49"/>
<polygon fill="black" stroke="black" points="314.13,-34.49 310.63,-24.49 307.13,-34.49 314.13,-34.49"/>
</g>
<!-- :data:database -->
<g id="node8" class="node">
<title>:data:database</title>
<ellipse fill="#b59aff" stroke="black" cx="395.04" cy="-292" rx="79.09" ry="18"/>
<text text-anchor="middle" x="395.04" y="-288.3" font-family="Times,serif" font-size="14.00">:data:database</text>
</g>
<!-- :test&#45;data&#45;&gt;:data:database -->
<g id="edge8" class="edge">
<title>:test&#45;data&#45;&gt;:data:database</title>
<path fill="none" stroke="black" stroke-dasharray="1,5" d="M455.08,-555C422.46,-555 383.62,-555 383.62,-555 383.62,-555 383.62,-320.08 383.62,-320.08"/>
<polygon fill="black" stroke="black" points="387.12,-320.08 383.62,-310.08 380.12,-320.08 387.12,-320.08"/>
</g>
<!-- :data:musicbrainz -->
<g id="node9" class="node">
<title>:data:musicbrainz</title>
<ellipse fill="#b59aff" stroke="black" cx="529.04" cy="-155" rx="93.68" ry="18"/>
<text text-anchor="middle" x="529.04" y="-151.3" font-family="Times,serif" font-size="14.00">:data:musicbrainz</text>
</g>
<!-- :test&#45;data&#45;&gt;:data:musicbrainz -->
<g id="edge9" class="edge">
<title>:test&#45;data&#45;&gt;:data:musicbrainz</title>
<path fill="none" stroke="black" stroke-dasharray="1,5" d="M551.29,-560C575.44,-560 598.86,-560 598.86,-560 598.86,-560 598.86,-177.12 598.86,-177.12"/>
<polygon fill="black" stroke="black" points="602.36,-177.12 598.86,-167.12 595.36,-177.12 602.36,-177.12"/>
</g>
<!-- :data:coverart -->
<g id="node10" class="node">
<title>:data:coverart</title>
<ellipse fill="#b59aff" stroke="black" cx="499.04" cy="-429" rx="76.09" ry="18"/>
<text text-anchor="middle" x="499.04" y="-425.3" font-family="Times,serif" font-size="14.00">:data:coverart</text>
</g>
<!-- :test&#45;data&#45;&gt;:data:coverart -->
<g id="edge10" class="edge">
<title>:test&#45;data&#45;&gt;:data:coverart</title>
<path fill="none" stroke="black" stroke-dasharray="1,5" d="M480.63,-548.93C480.63,-548.93 480.63,-456.72 480.63,-456.72"/>
<polygon fill="black" stroke="black" points="484.13,-456.72 480.63,-446.72 477.13,-456.72 484.13,-456.72"/>
</g>
<!-- :data:spotify -->
<g id="node11" class="node">
<title>:data:spotify</title>
<ellipse fill="#b59aff" stroke="black" cx="748.04" cy="-155" rx="68.79" ry="18"/>
<text text-anchor="middle" x="748.04" y="-151.3" font-family="Times,serif" font-size="14.00">:data:spotify</text>
</g>
<!-- :test&#45;data&#45;&gt;:data:spotify -->
<g id="edge11" class="edge">
<title>:test&#45;data&#45;&gt;:data:spotify</title>
<path fill="none" stroke="black" stroke-dasharray="1,5" d="M551.24,-572C624.26,-572 748.04,-572 748.04,-572 748.04,-572 748.04,-183.19 748.04,-183.19"/>
<polygon fill="black" stroke="black" points="751.54,-183.19 748.04,-173.19 744.54,-183.19 751.54,-183.19"/>
</g>
<!-- :ui:test:screenshot&#45;&gt;:test:image -->
<g id="edge12" class="edge">
<title>:ui:test:screenshot&#45;&gt;:test:image</title>
<path fill="none" stroke="black" stroke-dasharray="1,5" d="M77.15,-550.28C77.15,-550.28 77.15,-456.69 77.15,-456.69"/>
<polygon fill="black" stroke="black" points="80.65,-456.69 77.15,-446.69 73.65,-456.69 80.65,-456.69"/>
</g>
<!-- :data:database&#45;&gt;:shared:domain -->
<g id="edge13" class="edge">
<title>:data:database&#45;&gt;:shared:domain</title>
<path fill="none" stroke="black" stroke-dasharray="1,5" d="M375.6,-274.44C375.6,-274.44 375.6,-46.12 375.6,-46.12"/>
<polygon fill="black" stroke="black" points="379.1,-46.12 375.6,-36.12 372.1,-46.12 379.1,-46.12"/>
</g>
<!-- :data:database&#45;&gt;:data:musicbrainz -->
<g id="edge14" class="edge">
<title>:data:database&#45;&gt;:data:musicbrainz</title>
<path fill="none" stroke="black" stroke-dasharray="1,5" d="M454.9,-279.84C454.9,-279.84 454.9,-176.17 454.9,-176.17"/>
<polygon fill="black" stroke="black" points="458.4,-176.17 454.9,-166.17 451.4,-176.17 458.4,-176.17"/>
</g>
<!-- :data:musicbrainz&#45;&gt;:shared:domain -->
<g id="edge15" class="edge">
<title>:data:musicbrainz&#45;&gt;:shared:domain</title>
<path fill="none" stroke="black" stroke-dasharray="1,5" d="M447.16,-146.01C447.16,-146.01 447.16,-40.69 447.16,-40.69"/>
<polygon fill="black" stroke="black" points="450.66,-40.69 447.16,-30.69 443.66,-40.69 450.66,-40.69"/>
</g>
<!-- :data:musicbrainz&#45;&gt;:core:logging:api -->
<g id="edge16" class="edge">
<title>:data:musicbrainz&#45;&gt;:core:logging:api</title>
<path fill="none" stroke="black" stroke-dasharray="1,5" d="M616.64,-148.39C616.64,-148.39 616.64,-34.54 616.64,-34.54"/>
<polygon fill="black" stroke="black" points="620.14,-34.54 616.64,-24.54 613.14,-34.54 620.14,-34.54"/>
</g>
<!-- :data:coverart&#45;&gt;:test&#45;data -->
<g id="edge19" class="edge">
<title>:data:coverart&#45;&gt;:test&#45;data</title>
<path fill="none" stroke="#ff9ab1" stroke-dasharray="1,5" d="M517.46,-446.63C517.46,-446.63 517.46,-538.87 517.46,-538.87"/>
<polygon fill="#ff9ab1" stroke="#ff9ab1" points="513.96,-538.87 517.46,-548.87 520.96,-538.87 513.96,-538.87"/>
</g>
<!-- :data:coverart&#45;&gt;:shared:domain -->
<g id="edge17" class="edge">
<title>:data:coverart&#45;&gt;:shared:domain</title>
<path fill="none" stroke="black" stroke-dasharray="1,5" d="M427.19,-423C374.89,-423 313.19,-423 313.19,-423 313.19,-423 313.19,-35.73 313.19,-35.73"/>
<polygon fill="black" stroke="black" points="316.69,-35.73 313.19,-25.73 309.69,-35.73 316.69,-35.73"/>
</g>
<!-- :data:coverart&#45;&gt;:core:logging:api -->
<g id="edge18" class="edge">
<title>:data:coverart&#45;&gt;:core:logging:api</title>
<path fill="none" stroke="black" stroke-dasharray="1,5" d="M575.26,-429C609.13,-429 641.47,-429 641.47,-429 641.47,-429 641.47,-41.67 641.47,-41.67"/>
<polygon fill="black" stroke="black" points="644.97,-41.67 641.47,-31.67 637.97,-41.67 644.97,-41.67"/>
</g>
<!-- :data:coverart&#45;&gt;:data:database -->
<g id="edge21" class="edge">
<title>:data:coverart&#45;&gt;:data:database</title>
<path fill="none" stroke="#ff9ab1" stroke-dasharray="1,5" d="M448.67,-415.36C448.67,-415.36 448.67,-315.58 448.67,-315.58"/>
<polygon fill="#ff9ab1" stroke="#ff9ab1" points="452.17,-315.58 448.67,-305.58 445.17,-315.58 452.17,-315.58"/>
</g>
<!-- :data:coverart&#45;&gt;:data:musicbrainz -->
<g id="edge20" class="edge">
<title>:data:coverart&#45;&gt;:data:musicbrainz</title>
<path fill="none" stroke="#ff9ab1" stroke-dasharray="1,5" d="M524.71,-411.86C524.71,-411.86 524.71,-183.2 524.71,-183.2"/>
<polygon fill="#ff9ab1" stroke="#ff9ab1" points="528.21,-183.2 524.71,-173.2 521.21,-183.2 528.21,-183.2"/>
</g>
<!-- :data:spotify&#45;&gt;:shared:domain -->
<g id="edge22" class="edge">
<title>:data:spotify&#45;&gt;:shared:domain</title>
<path fill="none" stroke="black" stroke-dasharray="1,5" d="M715.25,-139C715.25,-118.61 715.25,-86 715.25,-86 715.25,-86 458.88,-86 458.88,-86 458.88,-86 458.88,-37.46 458.88,-37.46"/>
<polygon fill="black" stroke="black" points="462.38,-37.46 458.88,-27.46 455.38,-37.46 462.38,-37.46"/>
</g>
<!-- :data:spotify&#45;&gt;:core:logging:api -->
<g id="edge23" class="edge">
<title>:data:spotify&#45;&gt;:core:logging:api</title>
<path fill="none" stroke="black" stroke-dasharray="1,5" d="M751.34,-136.81C751.34,-136.81 751.34,-42.9 751.34,-42.9"/>
<polygon fill="black" stroke="black" points="754.84,-42.9 751.34,-32.9 747.84,-42.9 754.84,-42.9"/>
</g>
</g>
</svg>
