<?xml version="1.0" encoding="UTF-8" standalone="no"?>
<!DOCTYPE svg PUBLIC "-//W3C//DTD SVG 1.1//EN"
 "http://www.w3.org/Graphics/SVG/1.1/DTD/svg11.dtd">
<!-- Generated by graphviz version 2.43.0 (0)
 -->
<!-- Title: %3 Pages: 1 -->
<svg width="1106pt" height="803pt"
 viewBox="0.00 0.00 1105.84 803.00" xmlns="http://www.w3.org/2000/svg" xmlns:xlink="http://www.w3.org/1999/xlink">
<g id="graph0" class="graph" transform="scale(1 1) rotate(0) translate(4 799)">
<title>%3</title>
<polygon fill="white" stroke="transparent" points="-4,4 -4,-799 1101.84,-799 1101.84,4 -4,4"/>
<text text-anchor="middle" x="548.92" y="-767" font-family="Times,serif" font-size="30.00">Dependencies</text>
<text text-anchor="middle" x="548.92" y="-734" font-family="Times,serif" font-size="30.00"> </text>
<!-- :ui:common -->
<g id="node1" class="node">
<title>:ui:common</title>
<polygon fill="#b59aff" stroke="black" points="761.39,-721 662.39,-721 662.39,-685 761.39,-685 761.39,-721"/>
<text text-anchor="middle" x="711.89" y="-699.3" font-family="Times,serif" font-size="14.00">:ui:common</text>
</g>
<!-- :test&#45;data -->
<g id="node2" class="node">
<title>:test&#45;data</title>
<ellipse fill="#b59aff" stroke="black" cx="400.89" cy="-566" rx="55.49" ry="18"/>
<text text-anchor="middle" x="400.89" y="-562.3" font-family="Times,serif" font-size="14.00">:test&#45;data</text>
</g>
<!-- :ui:common&#45;&gt;:test&#45;data -->
<g id="edge1" class="edge">
<title>:ui:common&#45;&gt;:test&#45;data</title>
<path fill="none" stroke="#ff9ab1" stroke-dasharray="1,5" d="M681.81,-684.93C681.81,-649.65 681.81,-575 681.81,-575 681.81,-575 458.87,-575 458.87,-575"/>
<polygon fill="#ff9ab1" stroke="#ff9ab1" points="458.87,-571.5 448.87,-575 458.87,-578.5 458.87,-571.5"/>
</g>
<!-- :ui:test:screenshot -->
<g id="node3" class="node">
<title>:ui:test:screenshot</title>
<ellipse fill="#9affb5" stroke="black" cx="836.89" cy="-566" rx="96.68" ry="18"/>
<text text-anchor="middle" x="836.89" y="-562.3" font-family="Times,serif" font-size="14.00">:ui:test:screenshot</text>
</g>
<!-- :ui:common&#45;&gt;:ui:test:screenshot -->
<g id="edge2" class="edge">
<title>:ui:common&#45;&gt;:ui:test:screenshot</title>
<path fill="none" stroke="#ff9ab1" stroke-dasharray="1,5" d="M750.72,-684.81C750.72,-684.81 750.72,-584.39 750.72,-584.39"/>
<polygon fill="#ff9ab1" stroke="#ff9ab1" points="754.22,-584.39 750.72,-574.39 747.22,-584.39 754.22,-584.39"/>
</g>
<!-- :core:coroutines -->
<g id="node4" class="node">
<title>:core:coroutines</title>
<ellipse fill="#b59aff" stroke="black" cx="560.89" cy="-155" rx="85.29" ry="18"/>
<text text-anchor="middle" x="560.89" y="-151.3" font-family="Times,serif" font-size="14.00">:core:coroutines</text>
</g>
<!-- :ui:common&#45;&gt;:core:coroutines -->
<g id="edge3" class="edge">
<title>:ui:common&#45;&gt;:core:coroutines</title>
<path fill="none" stroke="#ff9ab1" stroke-dasharray="1,5" d="M701.22,-684.77C701.22,-589.68 701.22,-155 701.22,-155 701.22,-155 656.16,-155 656.16,-155"/>
<polygon fill="#ff9ab1" stroke="#ff9ab1" points="656.16,-151.5 646.16,-155 656.16,-158.5 656.16,-151.5"/>
</g>
<!-- :shared:domain -->
<g id="node5" class="node">
<title>:shared:domain</title>
<ellipse fill="#b59aff" stroke="black" cx="447.89" cy="-18" rx="82.59" ry="18"/>
<text text-anchor="middle" x="447.89" y="-14.3" font-family="Times,serif" font-size="14.00">:shared:domain</text>
</g>
<!-- :ui:common&#45;&gt;:shared:domain -->
<g id="edge4" class="edge">
<title>:ui:common&#45;&gt;:shared:domain</title>
<path fill="none" stroke="black" d="M720.64,-684.68C720.64,-575.74 720.64,-18 720.64,-18 720.64,-18 540.47,-18 540.47,-18"/>
<polygon fill="black" stroke="black" points="540.47,-14.5 530.47,-18 540.47,-21.5 540.47,-14.5"/>
</g>
<!-- :ui:core -->
<g id="node6" class="node">
<title>:ui:core</title>
<ellipse fill="#b59aff" stroke="black" cx="961.89" cy="-429" rx="45.49" ry="18"/>
<text text-anchor="middle" x="961.89" y="-425.3" font-family="Times,serif" font-size="14.00">:ui:core</text>
</g>
<!-- :ui:common&#45;&gt;:ui:core -->
<g id="edge5" class="edge">
<title>:ui:common&#45;&gt;:ui:core</title>
<path fill="none" stroke="black" d="M761.57,-697C834.47,-697 961.84,-697 961.84,-697 961.84,-697 961.84,-457 961.84,-457"/>
<polygon fill="black" stroke="black" points="965.34,-457 961.84,-447 958.34,-457 965.34,-457"/>
</g>
<!-- :core:logging:api -->
<g id="node7" class="node">
<title>:core:logging:api</title>
<ellipse fill="#b59aff" stroke="black" cx="117.89" cy="-18" rx="88.28" ry="18"/>
<text text-anchor="middle" x="117.89" y="-14.3" font-family="Times,serif" font-size="14.00">:core:logging:api</text>
</g>
<!-- :ui:common&#45;&gt;:core:logging:api -->
<g id="edge6" class="edge">
<title>:ui:common&#45;&gt;:core:logging:api</title>
<path fill="none" stroke="black" stroke-dasharray="1,5" d="M662.13,-703C525.84,-703 156.63,-703 156.63,-703 156.63,-703 156.63,-44.26 156.63,-44.26"/>
<polygon fill="black" stroke="black" points="160.13,-44.26 156.63,-34.26 153.13,-44.26 160.13,-44.26"/>
</g>
<!-- :ui:image -->
<g id="node8" class="node">
<title>:ui:image</title>
<ellipse fill="#b59aff" stroke="black" cx="1043.89" cy="-566" rx="53.89" ry="18"/>
<text text-anchor="middle" x="1043.89" y="-562.3" font-family="Times,serif" font-size="14.00">:ui:image</text>
</g>
<!-- :ui:common&#45;&gt;:ui:image -->
<g id="edge7" class="edge">
<title>:ui:common&#45;&gt;:ui:image</title>
<path fill="none" stroke="black" stroke-dasharray="1,5" d="M761.6,-709C854.21,-709 1043.89,-709 1043.89,-709 1043.89,-709 1043.89,-594.11 1043.89,-594.11"/>
<polygon fill="black" stroke="black" points="1047.39,-594.11 1043.89,-584.11 1040.39,-594.11 1047.39,-594.11"/>
</g>
<!-- :test&#45;data&#45;&gt;:core:coroutines -->
<g id="edge9" class="edge">
<title>:test&#45;data&#45;&gt;:core:coroutines</title>
<path fill="none" stroke="black" stroke-dasharray="1,5" d="M448.95,-557C510.16,-557 608.09,-557 608.09,-557 608.09,-557 608.09,-180.27 608.09,-180.27"/>
<polygon fill="black" stroke="black" points="611.59,-180.27 608.09,-170.27 604.59,-180.27 611.59,-180.27"/>
</g>
<!-- :test&#45;data&#45;&gt;:shared:domain -->
<g id="edge8" class="edge">
<title>:test&#45;data&#45;&gt;:shared:domain</title>
<path fill="none" stroke="black" stroke-dasharray="1,5" d="M456.17,-566C530.71,-566 654.22,-566 654.22,-566 654.22,-566 654.22,-27 654.22,-27 654.22,-27 529.48,-27 529.48,-27"/>
<polygon fill="black" stroke="black" points="529.48,-23.5 519.48,-27 529.48,-30.5 529.48,-23.5"/>
</g>
<!-- :data:database -->
<g id="node9" class="node">
<title>:data:database</title>
<ellipse fill="#b59aff" stroke="black" cx="452.89" cy="-292" rx="79.09" ry="18"/>
<text text-anchor="middle" x="452.89" y="-288.3" font-family="Times,serif" font-size="14.00">:data:database</text>
</g>
<!-- :test&#45;data&#45;&gt;:data:database -->
<g id="edge10" class="edge">
<title>:test&#45;data&#45;&gt;:data:database</title>
<path fill="none" stroke="black" stroke-dasharray="1,5" d="M440.54,-553.15C440.54,-553.15 440.54,-319.96 440.54,-319.96"/>
<polygon fill="black" stroke="black" points="444.04,-319.96 440.54,-309.96 437.04,-319.96 444.04,-319.96"/>
</g>
<!-- :data:musicbrainz -->
<g id="node10" class="node">
<title>:data:musicbrainz</title>
<ellipse fill="#b59aff" stroke="black" cx="287.89" cy="-155" rx="93.68" ry="18"/>
<text text-anchor="middle" x="287.89" y="-151.3" font-family="Times,serif" font-size="14.00">:data:musicbrainz</text>
</g>
<!-- :test&#45;data&#45;&gt;:data:musicbrainz -->
<g id="edge11" class="edge">
<title>:test&#45;data&#45;&gt;:data:musicbrainz</title>
<path fill="none" stroke="black" stroke-dasharray="1,5" d="M348.41,-560C299.34,-560 233.58,-560 233.58,-560 233.58,-560 233.58,-179.89 233.58,-179.89"/>
<polygon fill="black" stroke="black" points="237.08,-179.89 233.58,-169.89 230.08,-179.89 237.08,-179.89"/>
</g>
<!-- :data:coverart -->
<g id="node11" class="node">
<title>:data:coverart</title>
<ellipse fill="#b59aff" stroke="black" cx="348.89" cy="-429" rx="76.09" ry="18"/>
<text text-anchor="middle" x="348.89" y="-425.3" font-family="Times,serif" font-size="14.00">:data:coverart</text>
</g>
<!-- :test&#45;data&#45;&gt;:data:coverart -->
<g id="edge12" class="edge">
<title>:test&#45;data&#45;&gt;:data:coverart</title>
<path fill="none" stroke="black" stroke-dasharray="1,5" d="M372.08,-550.55C372.08,-550.55 372.08,-456.33 372.08,-456.33"/>
<polygon fill="black" stroke="black" points="375.58,-456.33 372.08,-446.33 368.58,-456.33 375.58,-456.33"/>
</g>
<!-- :data:spotify -->
<g id="node12" class="node">
<title>:data:spotify</title>
<ellipse fill="#b59aff" stroke="black" cx="68.89" cy="-155" rx="68.79" ry="18"/>
<text text-anchor="middle" x="68.89" y="-151.3" font-family="Times,serif" font-size="14.00">:data:spotify</text>
</g>
<!-- :test&#45;data&#45;&gt;:data:spotify -->
<g id="edge13" class="edge">
<title>:test&#45;data&#45;&gt;:data:spotify</title>
<path fill="none" stroke="black" stroke-dasharray="1,5" d="M348.65,-572C255.16,-572 68.89,-572 68.89,-572 68.89,-572 68.89,-183.19 68.89,-183.19"/>
<polygon fill="black" stroke="black" points="72.39,-183.19 68.89,-173.19 65.39,-183.19 72.39,-183.19"/>
</g>
<!-- :ui:test:screenshot&#45;&gt;:ui:core -->
<g id="edge14" class="edge">
<title>:ui:test:screenshot&#45;&gt;:ui:core</title>
<path fill="none" stroke="black" stroke-dasharray="1,5" d="M925.07,-558.24C925.07,-558.24 925.07,-449.58 925.07,-449.58"/>
<polygon fill="black" stroke="black" points="928.57,-449.58 925.07,-439.58 921.57,-449.58 928.57,-449.58"/>
</g>
<!-- :test:image -->
<g id="node13" class="node">
<title>:test:image</title>
<ellipse fill="#9affb5" stroke="black" cx="834.89" cy="-429" rx="63.09" ry="18"/>
<text text-anchor="middle" x="834.89" y="-425.3" font-family="Times,serif" font-size="14.00">:test:image</text>
</g>
<!-- :ui:test:screenshot&#45;&gt;:test:image -->
<g id="edge15" class="edge">
<title>:ui:test:screenshot&#45;&gt;:test:image</title>
<path fill="none" stroke="black" stroke-dasharray="1,5" d="M834.89,-547.81C834.89,-547.81 834.89,-457.27 834.89,-457.27"/>
<polygon fill="black" stroke="black" points="838.39,-457.27 834.89,-447.27 831.39,-457.27 838.39,-457.27"/>
</g>
<!-- :shared:strings -->
<g id="node14" class="node">
<title>:shared:strings</title>
<ellipse fill="#b59aff" stroke="black" cx="934.89" cy="-292" rx="81.49" ry="18"/>
<text text-anchor="middle" x="934.89" y="-288.3" font-family="Times,serif" font-size="14.00">:shared:strings</text>
</g>
<!-- :ui:core&#45;&gt;:shared:strings -->
<g id="edge16" class="edge">
<title>:ui:core&#45;&gt;:shared:strings</title>
<path fill="none" stroke="black" d="M961.89,-410.81C961.89,-410.81 961.89,-319.4 961.89,-319.4"/>
<polygon fill="black" stroke="black" points="965.39,-319.4 961.89,-309.4 958.39,-319.4 965.39,-319.4"/>
</g>
<!-- :ui:image&#45;&gt;:shared:domain -->
<g id="edge17" class="edge">
<title>:ui:image&#45;&gt;:shared:domain</title>
<path fill="none" stroke="black" stroke-dasharray="1,5" d="M1056.99,-548.41C1056.99,-453.73 1056.99,-9 1056.99,-9 1056.99,-9 529.56,-9 529.56,-9"/>
<polygon fill="black" stroke="black" points="529.56,-5.5 519.56,-9 529.56,-12.5 529.56,-5.5"/>
</g>
<!-- :ui:image&#45;&gt;:ui:core -->
<g id="edge18" class="edge">
<title>:ui:image&#45;&gt;:ui:core</title>
<path fill="none" stroke="black" stroke-dasharray="1,5" d="M998.67,-556.15C998.67,-556.15 998.67,-449.89 998.67,-449.89"/>
<polygon fill="black" stroke="black" points="1002.17,-449.89 998.67,-439.89 995.17,-449.89 1002.17,-449.89"/>
</g>
<!-- :data:database&#45;&gt;:core:coroutines -->
<g id="edge20" class="edge">
<title>:data:database&#45;&gt;:core:coroutines</title>
<path fill="none" stroke="black" stroke-dasharray="1,5" d="M503.97,-278.11C503.97,-278.11 503.97,-178.52 503.97,-178.52"/>
<polygon fill="black" stroke="black" points="507.47,-178.52 503.97,-168.52 500.47,-178.52 507.47,-178.52"/>
</g>
<!-- :data:database&#45;&gt;:shared:domain -->
<g id="edge19" class="edge">
<title>:data:database&#45;&gt;:shared:domain</title>
<path fill="none" stroke="black" stroke-dasharray="1,5" d="M444.33,-274.02C444.33,-274.02 444.33,-46.04 444.33,-46.04"/>
<polygon fill="black" stroke="black" points="447.83,-46.04 444.33,-36.04 440.83,-46.04 447.83,-46.04"/>
</g>
<!-- :data:database&#45;&gt;:data:musicbrainz -->
<g id="edge21" class="edge">
<title>:data:database&#45;&gt;:data:musicbrainz</title>
<path fill="none" stroke="black" stroke-dasharray="1,5" d="M377.54,-286.11C377.54,-286.11 377.54,-170.41 377.54,-170.41"/>
<polygon fill="black" stroke="black" points="381.04,-170.41 377.54,-160.41 374.04,-170.41 381.04,-170.41"/>
</g>
<!-- :data:musicbrainz&#45;&gt;:shared:domain -->
<g id="edge22" class="edge">
<title>:data:musicbrainz&#45;&gt;:shared:domain</title>
<path fill="none" stroke="black" stroke-dasharray="1,5" d="M376.11,-148.76C376.11,-148.76 376.11,-37.02 376.11,-37.02"/>
<polygon fill="black" stroke="black" points="379.61,-37.02 376.11,-27.02 372.61,-37.02 379.61,-37.02"/>
</g>
<!-- :data:musicbrainz&#45;&gt;:core:logging:api -->
<g id="edge23" class="edge">
<title>:data:musicbrainz&#45;&gt;:core:logging:api</title>
<path fill="none" stroke="black" stroke-dasharray="1,5" d="M200.29,-148.39C200.29,-148.39 200.29,-34.54 200.29,-34.54"/>
<polygon fill="black" stroke="black" points="203.79,-34.54 200.29,-24.54 196.79,-34.54 203.79,-34.54"/>
</g>
<!-- :data:coverart&#45;&gt;:test&#45;data -->
<g id="edge27" class="edge">
<title>:data:coverart&#45;&gt;:test&#45;data</title>
<path fill="none" stroke="#ff9ab1" stroke-dasharray="1,5" d="M398.51,-442.89C398.51,-442.89 398.51,-537.75 398.51,-537.75"/>
<polygon fill="#ff9ab1" stroke="#ff9ab1" points="395.01,-537.75 398.51,-547.75 402.01,-537.75 395.01,-537.75"/>
</g>
<!-- :data:coverart&#45;&gt;:core:coroutines -->
<g id="edge26" class="edge">
<title>:data:coverart&#45;&gt;:core:coroutines</title>
<path fill="none" stroke="black" stroke-dasharray="1,5" d="M425.03,-429C489.03,-429 570.14,-429 570.14,-429 570.14,-429 570.14,-182.98 570.14,-182.98"/>
<polygon fill="black" stroke="black" points="573.64,-182.98 570.14,-172.98 566.64,-182.98 573.64,-182.98"/>
</g>
<!-- :data:coverart&#45;&gt;:shared:domain -->
<g id="edge24" class="edge">
<title>:data:coverart&#45;&gt;:shared:domain</title>
<path fill="none" stroke="black" stroke-dasharray="1,5" d="M340.02,-411.08C340.02,-360.96 340.02,-223 340.02,-223 340.02,-223 412.91,-223 412.91,-223 412.91,-223 412.91,-44.43 412.91,-44.43"/>
<polygon fill="black" stroke="black" points="416.41,-44.43 412.91,-34.43 409.41,-44.43 416.41,-44.43"/>
</g>
<!-- :data:coverart&#45;&gt;:core:logging:api -->
<g id="edge25" class="edge">
<title>:data:coverart&#45;&gt;:core:logging:api</title>
<path fill="none" stroke="black" stroke-dasharray="1,5" d="M272.83,-429C226.23,-429 175.46,-429 175.46,-429 175.46,-429 175.46,-41.67 175.46,-41.67"/>
<polygon fill="black" stroke="black" points="178.96,-41.67 175.46,-31.67 171.96,-41.67 178.96,-41.67"/>
</g>
<!-- :data:coverart&#45;&gt;:data:database -->
<g id="edge29" class="edge">
<title>:data:coverart&#45;&gt;:data:database</title>
<path fill="none" stroke="#ff9ab1" stroke-dasharray="1,5" d="M399.27,-415.36C399.27,-415.36 399.27,-315.58 399.27,-315.58"/>
<polygon fill="#ff9ab1" stroke="#ff9ab1" points="402.77,-315.58 399.27,-305.58 395.77,-315.58 402.77,-315.58"/>
</g>
<!-- :data:coverart&#45;&gt;:data:musicbrainz -->
<g id="edge28" class="edge">
<title>:data:coverart&#45;&gt;:data:musicbrainz</title>
<path fill="none" stroke="#ff9ab1" stroke-dasharray="1,5" d="M306.43,-413.88C306.43,-413.88 306.43,-182.87 306.43,-182.87"/>
<polygon fill="#ff9ab1" stroke="#ff9ab1" points="309.93,-182.87 306.43,-172.87 302.93,-182.87 309.93,-182.87"/>
</g>
<!-- :data:spotify&#45;&gt;:shared:domain -->
<g id="edge30" class="edge">
<title>:data:spotify&#45;&gt;:shared:domain</title>
<path fill="none" stroke="black" stroke-dasharray="1,5" d="M101.69,-139C101.69,-118.61 101.69,-86 101.69,-86 101.69,-86 370.73,-86 370.73,-86 370.73,-86 370.73,-34.52 370.73,-34.52"/>
<polygon fill="black" stroke="black" points="374.23,-34.52 370.73,-24.52 367.23,-34.52 374.23,-34.52"/>
</g>
<!-- :data:spotify&#45;&gt;:core:logging:api -->
<g id="edge31" class="edge">
<title>:data:spotify&#45;&gt;:core:logging:api</title>
<path fill="none" stroke="black" stroke-dasharray="1,5" d="M65.6,-136.81C65.6,-136.81 65.6,-42.9 65.6,-42.9"/>
<polygon fill="black" stroke="black" points="69.1,-42.9 65.6,-32.9 62.1,-42.9 69.1,-42.9"/>
</g>
</g>
</svg>
