<?xml version="1.0" encoding="UTF-8" standalone="no"?>
<!DOCTYPE svg PUBLIC "-//W3C//DTD SVG 1.1//EN"
 "http://www.w3.org/Graphics/SVG/1.1/DTD/svg11.dtd">
<!-- Generated by graphviz version 2.43.0 (0)
 -->
<!-- Title: %3 Pages: 1 -->
<svg width="491pt" height="874pt"
 viewBox="0.00 0.00 491.37 874.00" xmlns="http://www.w3.org/2000/svg" xmlns:xlink="http://www.w3.org/1999/xlink">
<g id="graph0" class="graph" transform="scale(1 1) rotate(0) translate(4 870)">
<title>%3</title>
<polygon fill="white" stroke="transparent" points="-4,4 -4,-870 487.37,-870 487.37,4 -4,4"/>
<text text-anchor="middle" x="241.69" y="-838" font-family="Times,serif" font-size="30.00">Dependents</text>
<text text-anchor="middle" x="241.69" y="-805" font-family="Times,serif" font-size="30.00"> </text>
<!-- :ui:common -->
<g id="node1" class="node">
<title>:ui:common</title>
<polygon fill="#b59aff" stroke="black" points="99,-414 0,-414 0,-378 99,-378 99,-414"/>
<text text-anchor="middle" x="49.5" y="-392.3" font-family="Times,serif" font-size="14.00">:ui:common</text>
</g>
<!-- :shared -->
<g id="node2" class="node">
<title>:shared</title>
<ellipse fill="#b59aff" stroke="black" cx="341.69" cy="-774" rx="45.49" ry="18"/>
<text text-anchor="middle" x="341.69" y="-770.3" font-family="Times,serif" font-size="14.00">:shared</text>
</g>
<!-- :shared&#45;&gt;:ui:common -->
<g id="edge1" class="edge">
<title>:shared&#45;&gt;:ui:common</title>
<path fill="none" stroke="black" stroke-dasharray="1,5" d="M295.85,-774C205.26,-774 12,-774 12,-774 12,-774 12,-424.23 12,-424.23"/>
<polygon fill="black" stroke="black" points="15.5,-424.23 12,-414.23 8.5,-424.23 15.5,-424.23"/>
</g>
<!-- :desktop:app -->
<g id="node3" class="node">
<title>:desktop:app</title>
<ellipse fill="#9affb5" stroke="black" cx="341.69" cy="-720" rx="70.39" ry="18"/>
<text text-anchor="middle" x="341.69" y="-716.3" font-family="Times,serif" font-size="14.00">:desktop:app</text>
</g>
<!-- :desktop:app&#45;&gt;:ui:common -->
<g id="edge2" class="edge">
<title>:desktop:app&#45;&gt;:ui:common</title>
<path fill="none" stroke="black" stroke-dasharray="1,5" d="M271.18,-720C177.59,-720 24,-720 24,-720 24,-720 24,-424.35 24,-424.35"/>
<polygon fill="black" stroke="black" points="27.5,-424.35 24,-414.35 20.5,-424.35 27.5,-424.35"/>
</g>
<!-- :android:app -->
<g id="node4" class="node">
<title>:android:app</title>
<ellipse fill="#9affb5" stroke="black" cx="341.69" cy="-666" rx="69.59" ry="18"/>
<text text-anchor="middle" x="341.69" y="-662.3" font-family="Times,serif" font-size="14.00">:android:app</text>
</g>
<!-- :android:app&#45;&gt;:ui:common -->
<g id="edge3" class="edge">
<title>:android:app&#45;&gt;:ui:common</title>
<path fill="none" stroke="black" stroke-dasharray="1,5" d="M271.79,-666C181.83,-666 37,-666 37,-666 37,-666 37,-424.13 37,-424.13"/>
<polygon fill="black" stroke="black" points="40.5,-424.13 37,-414.13 33.5,-424.13 40.5,-424.13"/>
</g>
<!-- :shared:feature:settings -->
<g id="node5" class="node">
<title>:shared:feature:settings</title>
<ellipse fill="#b59aff" stroke="black" cx="341.69" cy="-612" rx="122.38" ry="18"/>
<text text-anchor="middle" x="341.69" y="-608.3" font-family="Times,serif" font-size="14.00">:shared:feature:settings</text>
</g>
<!-- :shared:feature:settings&#45;&gt;:ui:common -->
<g id="edge4" class="edge">
<title>:shared:feature:settings&#45;&gt;:ui:common</title>
<path fill="none" stroke="black" stroke-dasharray="1,5" d="M219.26,-612C139.05,-612 49,-612 49,-612 49,-612 49,-424.04 49,-424.04"/>
<polygon fill="black" stroke="black" points="52.5,-424.04 49,-414.04 45.5,-424.04 52.5,-424.04"/>
</g>
<!-- :shared:feature:database -->
<g id="node6" class="node">
<title>:shared:feature:database</title>
<ellipse fill="#b59aff" stroke="black" cx="341.69" cy="-558" rx="126.98" ry="18"/>
<text text-anchor="middle" x="341.69" y="-554.3" font-family="Times,serif" font-size="14.00">:shared:feature:database</text>
</g>
<!-- :shared:feature:database&#45;&gt;:ui:common -->
<g id="edge5" class="edge">
<title>:shared:feature:database&#45;&gt;:ui:common</title>
<path fill="none" stroke="black" stroke-dasharray="1,5" d="M214.89,-558C140.51,-558 61,-558 61,-558 61,-558 61,-424.27 61,-424.27"/>
<polygon fill="black" stroke="black" points="64.5,-424.27 61,-414.27 57.5,-424.27 64.5,-424.27"/>
</g>
<!-- :shared:feature:images -->
<g id="node7" class="node">
<title>:shared:feature:images</title>
<ellipse fill="#b59aff" stroke="black" cx="341.69" cy="-504" rx="118.08" ry="18"/>
<text text-anchor="middle" x="341.69" y="-500.3" font-family="Times,serif" font-size="14.00">:shared:feature:images</text>
</g>
<!-- :shared:feature:images&#45;&gt;:ui:common -->
<g id="edge6" class="edge">
<title>:shared:feature:images&#45;&gt;:ui:common</title>
<path fill="none" stroke="black" stroke-dasharray="1,5" d="M223.11,-504C151.51,-504 74,-504 74,-504 74,-504 74,-424.32 74,-424.32"/>
<polygon fill="black" stroke="black" points="77.5,-424.32 74,-414.32 70.5,-424.32 77.5,-424.32"/>
</g>
<!-- :shared:feature:licenses -->
<g id="node8" class="node">
<title>:shared:feature:licenses</title>
<ellipse fill="#b59aff" stroke="black" cx="341.69" cy="-450" rx="122.38" ry="18"/>
<text text-anchor="middle" x="341.69" y="-446.3" font-family="Times,serif" font-size="14.00">:shared:feature:licenses</text>
</g>
<!-- :shared:feature:licenses&#45;&gt;:ui:common -->
<g id="edge7" class="edge">
<title>:shared:feature:licenses&#45;&gt;:ui:common</title>
<path fill="none" stroke="black" stroke-dasharray="1,5" d="M219.46,-450C153.72,-450 86,-450 86,-450 86,-450 86,-424.28 86,-424.28"/>
<polygon fill="black" stroke="black" points="89.5,-424.28 86,-414.28 82.5,-424.28 89.5,-424.28"/>
</g>
<!-- :shared:feature:search -->
<g id="node9" class="node">
<title>:shared:feature:search</title>
<ellipse fill="#b59aff" stroke="black" cx="341.69" cy="-396" rx="115.88" ry="18"/>
<text text-anchor="middle" x="341.69" y="-392.3" font-family="Times,serif" font-size="14.00">:shared:feature:search</text>
</g>
<!-- :shared:feature:search&#45;&gt;:ui:common -->
<g id="edge8" class="edge">
<title>:shared:feature:search&#45;&gt;:ui:common</title>
<path fill="none" stroke="black" stroke-dasharray="1,5" d="M241.13,-405C241.13,-405 109.34,-405 109.34,-405"/>
<polygon fill="black" stroke="black" points="109.34,-401.5 99.34,-405 109.34,-408.5 109.34,-401.5"/>
</g>
<!-- :shared:feature:collections -->
<g id="node10" class="node">
<title>:shared:feature:collections</title>
<ellipse fill="#b59aff" stroke="black" cx="341.69" cy="-342" rx="133.78" ry="18"/>
<text text-anchor="middle" x="341.69" y="-338.3" font-family="Times,serif" font-size="14.00">:shared:feature:collections</text>
</g>
<!-- :shared:feature:collections&#45;&gt;:ui:common -->
<g id="edge9" class="edge">
<title>:shared:feature:collections&#45;&gt;:ui:common</title>
<path fill="none" stroke="black" stroke-dasharray="1,5" d="M211,-346.24C211,-358.97 211,-396 211,-396 211,-396 109.27,-396 109.27,-396"/>
<polygon fill="black" stroke="black" points="109.27,-392.5 99.27,-396 109.27,-399.5 109.27,-392.5"/>
</g>
<!-- :shared:feature:stats -->
<g id="node11" class="node">
<title>:shared:feature:stats</title>
<ellipse fill="#b59aff" stroke="black" cx="341.69" cy="-288" rx="107.78" ry="18"/>
<text text-anchor="middle" x="341.69" y="-284.3" font-family="Times,serif" font-size="14.00">:shared:feature:stats</text>
</g>
<!-- :shared:feature:stats&#45;&gt;:ui:common -->
<g id="edge10" class="edge">
<title>:shared:feature:stats&#45;&gt;:ui:common</title>
<path fill="none" stroke="black" stroke-dasharray="1,5" d="M233.44,-288C162.18,-288 82,-288 82,-288 82,-288 82,-367.68 82,-367.68"/>
<polygon fill="black" stroke="black" points="78.5,-367.68 82,-377.68 85.5,-367.68 78.5,-367.68"/>
</g>
<!-- :shared:feature:details -->
<g id="node12" class="node">
<title>:shared:feature:details</title>
<ellipse fill="#b59aff" stroke="black" cx="341.69" cy="-234" rx="116.18" ry="18"/>
<text text-anchor="middle" x="341.69" y="-230.3" font-family="Times,serif" font-size="14.00">:shared:feature:details</text>
</g>
<!-- :shared:feature:details&#45;&gt;:ui:common -->
<g id="edge11" class="edge">
<title>:shared:feature:details&#45;&gt;:ui:common</title>
<path fill="none" stroke="black" stroke-dasharray="1,5" d="M225.17,-234C149.93,-234 66,-234 66,-234 66,-234 66,-367.73 66,-367.73"/>
<polygon fill="black" stroke="black" points="62.5,-367.73 66,-377.73 69.5,-367.73 62.5,-367.73"/>
</g>
<!-- :shared:feature:history -->
<g id="node13" class="node">
<title>:shared:feature:history</title>
<ellipse fill="#b59aff" stroke="black" cx="341.69" cy="-180" rx="117.78" ry="18"/>
<text text-anchor="middle" x="341.69" y="-176.3" font-family="Times,serif" font-size="14.00">:shared:feature:history</text>
</g>
<!-- :shared:feature:history&#45;&gt;:ui:common -->
<g id="edge12" class="edge">
<title>:shared:feature:history&#45;&gt;:ui:common</title>
<path fill="none" stroke="black" stroke-dasharray="1,5" d="M223.91,-180C142.58,-180 49,-180 49,-180 49,-180 49,-367.96 49,-367.96"/>
<polygon fill="black" stroke="black" points="45.5,-367.96 49,-377.96 52.5,-367.96 45.5,-367.96"/>
</g>
<!-- :shared:feature:graph -->
<g id="node14" class="node">
<title>:shared:feature:graph</title>
<ellipse fill="#b59aff" stroke="black" cx="341.69" cy="-126" rx="112.38" ry="18"/>
<text text-anchor="middle" x="341.69" y="-122.3" font-family="Times,serif" font-size="14.00">:shared:feature:graph</text>
</g>
<!-- :shared:feature:graph&#45;&gt;:ui:common -->
<g id="edge13" class="edge">
<title>:shared:feature:graph&#45;&gt;:ui:common</title>
<path fill="none" stroke="black" stroke-dasharray="1,5" d="M228.93,-126C140.75,-126 33,-126 33,-126 33,-126 33,-367.87 33,-367.87"/>
<polygon fill="black" stroke="black" points="29.5,-367.87 33,-377.87 36.5,-367.87 29.5,-367.87"/>
</g>
<!-- :android:feature:nowplaying -->
<g id="node15" class="node">
<title>:android:feature:nowplaying</title>
<ellipse fill="#9affb5" stroke="black" cx="341.69" cy="-72" rx="141.88" ry="18"/>
<text text-anchor="middle" x="341.69" y="-68.3" font-family="Times,serif" font-size="14.00">:android:feature:nowplaying</text>
</g>
<!-- :android:feature:nowplaying&#45;&gt;:ui:common -->
<g id="edge14" class="edge">
<title>:android:feature:nowplaying&#45;&gt;:ui:common</title>
<path fill="none" stroke="black" stroke-dasharray="1,5" d="M203,-75.98C203,-112.45 203,-387 203,-387 203,-387 109.34,-387 109.34,-387"/>
<polygon fill="black" stroke="black" points="109.34,-383.5 99.34,-387 109.34,-390.5 109.34,-383.5"/>
</g>
<!-- :android:feature:spotify -->
<g id="node16" class="node">
<title>:android:feature:spotify</title>
<ellipse fill="#9affb5" stroke="black" cx="341.69" cy="-18" rx="120.48" ry="18"/>
<text text-anchor="middle" x="341.69" y="-14.3" font-family="Times,serif" font-size="14.00">:android:feature:spotify</text>
</g>
<!-- :android:feature:spotify&#45;&gt;:ui:common -->
<g id="edge15" class="edge">
<title>:android:feature:spotify&#45;&gt;:ui:common</title>
<path fill="none" stroke="black" stroke-dasharray="1,5" d="M221.34,-18C128.56,-18 16,-18 16,-18 16,-18 16,-367.77 16,-367.77"/>
<polygon fill="black" stroke="black" points="12.5,-367.77 16,-377.77 19.5,-367.77 12.5,-367.77"/>
</g>
</g>
</svg>
