<?xml version="1.0" encoding="UTF-8" standalone="no"?>
<!DOCTYPE svg PUBLIC "-//W3C//DTD SVG 1.1//EN"
 "http://www.w3.org/Graphics/SVG/1.1/DTD/svg11.dtd">
<!-- Generated by graphviz version 2.43.0 (0)
 -->
<!-- Title: %3 Pages: 1 -->
<svg width="491pt" height="712pt"
 viewBox="0.00 0.00 491.37 712.00" xmlns="http://www.w3.org/2000/svg" xmlns:xlink="http://www.w3.org/1999/xlink">
<g id="graph0" class="graph" transform="scale(1 1) rotate(0) translate(4 708)">
<title>%3</title>
<polygon fill="white" stroke="transparent" points="-4,4 -4,-708 487.37,-708 487.37,4 -4,4"/>
<text text-anchor="middle" x="241.69" y="-676" font-family="Times,serif" font-size="30.00">Dependents</text>
<text text-anchor="middle" x="241.69" y="-643" font-family="Times,serif" font-size="30.00"> </text>
<!-- :ui:common -->
<g id="node1" class="node">
<title>:ui:common</title>
<polygon fill="#b59aff" stroke="black" points="99,-333 0,-333 0,-297 99,-297 99,-333"/>
<text text-anchor="middle" x="49.5" y="-311.3" font-family="Times,serif" font-size="14.00">:ui:common</text>
</g>
<!-- :shared -->
<g id="node2" class="node">
<title>:shared</title>
<ellipse fill="#b59aff" stroke="black" cx="341.69" cy="-612" rx="45.49" ry="18"/>
<text text-anchor="middle" x="341.69" y="-608.3" font-family="Times,serif" font-size="14.00">:shared</text>
</g>
<!-- :shared&#45;&gt;:ui:common -->
<g id="edge1" class="edge">
<title>:shared&#45;&gt;:ui:common</title>
<path fill="none" stroke="black" stroke-dasharray="1,5" d="M296.06,-612C206.43,-612 16,-612 16,-612 16,-612 16,-343.13 16,-343.13"/>
<polygon fill="black" stroke="black" points="19.5,-343.13 16,-333.13 12.5,-343.13 19.5,-343.13"/>
</g>
<!-- :desktop:app -->
<g id="node3" class="node">
<title>:desktop:app</title>
<ellipse fill="#9affb5" stroke="black" cx="341.69" cy="-558" rx="70.39" ry="18"/>
<text text-anchor="middle" x="341.69" y="-554.3" font-family="Times,serif" font-size="14.00">:desktop:app</text>
</g>
<!-- :desktop:app&#45;&gt;:ui:common -->
<g id="edge2" class="edge">
<title>:desktop:app&#45;&gt;:ui:common</title>
<path fill="none" stroke="black" stroke-dasharray="1,5" d="M271.26,-558C180.15,-558 33,-558 33,-558 33,-558 33,-343.26 33,-343.26"/>
<polygon fill="black" stroke="black" points="36.5,-343.26 33,-333.26 29.5,-343.26 36.5,-343.26"/>
</g>
<!-- :android:app -->
<g id="node4" class="node">
<title>:android:app</title>
<ellipse fill="#9affb5" stroke="black" cx="341.69" cy="-504" rx="69.59" ry="18"/>
<text text-anchor="middle" x="341.69" y="-500.3" font-family="Times,serif" font-size="14.00">:android:app</text>
</g>
<!-- :android:app&#45;&gt;:ui:common -->
<g id="edge3" class="edge">
<title>:android:app&#45;&gt;:ui:common</title>
<path fill="none" stroke="black" stroke-dasharray="1,5" d="M271.95,-504C185.38,-504 49,-504 49,-504 49,-504 49,-343.12 49,-343.12"/>
<polygon fill="black" stroke="black" points="52.5,-343.12 49,-333.12 45.5,-343.12 52.5,-343.12"/>
</g>
<!-- :shared:feature:settings -->
<g id="node5" class="node">
<title>:shared:feature:settings</title>
<ellipse fill="#b59aff" stroke="black" cx="341.69" cy="-450" rx="122.38" ry="18"/>
<text text-anchor="middle" x="341.69" y="-446.3" font-family="Times,serif" font-size="14.00">:shared:feature:settings</text>
</g>
<!-- :shared:feature:settings&#45;&gt;:ui:common -->
<g id="edge4" class="edge">
<title>:shared:feature:settings&#45;&gt;:ui:common</title>
<path fill="none" stroke="black" stroke-dasharray="1,5" d="M219.16,-450C145.53,-450 66,-450 66,-450 66,-450 66,-343.21 66,-343.21"/>
<polygon fill="black" stroke="black" points="69.5,-343.21 66,-333.21 62.5,-343.21 69.5,-343.21"/>
</g>
<!-- :shared:feature:licenses -->
<g id="node6" class="node">
<title>:shared:feature:licenses</title>
<ellipse fill="#b59aff" stroke="black" cx="341.69" cy="-396" rx="122.38" ry="18"/>
<text text-anchor="middle" x="341.69" y="-392.3" font-family="Times,serif" font-size="14.00">:shared:feature:licenses</text>
</g>
<!-- :shared:feature:licenses&#45;&gt;:ui:common -->
<g id="edge5" class="edge">
<title>:shared:feature:licenses&#45;&gt;:ui:common</title>
<path fill="none" stroke="black" stroke-dasharray="1,5" d="M219.45,-396C152.09,-396 82,-396 82,-396 82,-396 82,-343.38 82,-343.38"/>
<polygon fill="black" stroke="black" points="85.5,-343.38 82,-333.38 78.5,-343.38 85.5,-343.38"/>
</g>
<!-- :shared:feature:search -->
<g id="node7" class="node">
<title>:shared:feature:search</title>
<ellipse fill="#b59aff" stroke="black" cx="341.69" cy="-342" rx="115.88" ry="18"/>
<text text-anchor="middle" x="341.69" y="-338.3" font-family="Times,serif" font-size="14.00">:shared:feature:search</text>
</g>
<!-- :shared:feature:search&#45;&gt;:ui:common -->
<g id="edge6" class="edge">
<title>:shared:feature:search&#45;&gt;:ui:common</title>
<path fill="none" stroke="black" stroke-dasharray="1,5" d="M264.92,-328.5C264.92,-328.5 109.16,-328.5 109.16,-328.5"/>
<polygon fill="black" stroke="black" points="109.16,-325 99.16,-328.5 109.16,-332 109.16,-325"/>
</g>
<!-- :shared:feature:collections -->
<g id="node8" class="node">
<title>:shared:feature:collections</title>
<ellipse fill="#b59aff" stroke="black" cx="341.69" cy="-288" rx="133.78" ry="18"/>
<text text-anchor="middle" x="341.69" y="-284.3" font-family="Times,serif" font-size="14.00">:shared:feature:collections</text>
</g>
<!-- :shared:feature:collections&#45;&gt;:ui:common -->
<g id="edge7" class="edge">
<title>:shared:feature:collections&#45;&gt;:ui:common</title>
<path fill="none" stroke="black" stroke-dasharray="1,5" d="M267.58,-303C267.58,-303 109.18,-303 109.18,-303"/>
<polygon fill="black" stroke="black" points="109.18,-299.5 99.18,-303 109.18,-306.5 109.18,-299.5"/>
</g>
<!-- :shared:feature:stats -->
<g id="node9" class="node">
<title>:shared:feature:stats</title>
<ellipse fill="#b59aff" stroke="black" cx="341.69" cy="-234" rx="107.78" ry="18"/>
<text text-anchor="middle" x="341.69" y="-230.3" font-family="Times,serif" font-size="14.00">:shared:feature:stats</text>
</g>
<!-- :shared:feature:stats&#45;&gt;:ui:common -->
<g id="edge8" class="edge">
<title>:shared:feature:stats&#45;&gt;:ui:common</title>
<path fill="none" stroke="black" stroke-dasharray="1,5" d="M233.71,-234C161.25,-234 79,-234 79,-234 79,-234 79,-286.62 79,-286.62"/>
<polygon fill="black" stroke="black" points="75.5,-286.62 79,-296.62 82.5,-286.62 75.5,-286.62"/>
</g>
<!-- :shared:feature:details -->
<g id="node10" class="node">
<title>:shared:feature:details</title>
<ellipse fill="#b59aff" stroke="black" cx="341.69" cy="-180" rx="116.18" ry="18"/>
<text text-anchor="middle" x="341.69" y="-176.3" font-family="Times,serif" font-size="14.00">:shared:feature:details</text>
</g>
<!-- :shared:feature:details&#45;&gt;:ui:common -->
<g id="edge9" class="edge">
<title>:shared:feature:details&#45;&gt;:ui:common</title>
<path fill="none" stroke="black" stroke-dasharray="1,5" d="M225.08,-180C147.21,-180 59,-180 59,-180 59,-180 59,-286.79 59,-286.79"/>
<polygon fill="black" stroke="black" points="55.5,-286.79 59,-296.79 62.5,-286.79 55.5,-286.79"/>
</g>
<!-- :shared:feature:history -->
<g id="node11" class="node">
<title>:shared:feature:history</title>
<ellipse fill="#b59aff" stroke="black" cx="341.69" cy="-126" rx="117.78" ry="18"/>
<text text-anchor="middle" x="341.69" y="-122.3" font-family="Times,serif" font-size="14.00">:shared:feature:history</text>
</g>
<!-- :shared:feature:history&#45;&gt;:ui:common -->
<g id="edge10" class="edge">
<title>:shared:feature:history&#45;&gt;:ui:common</title>
<path fill="none" stroke="black" stroke-dasharray="1,5" d="M223.79,-126C138.8,-126 39,-126 39,-126 39,-126 39,-286.88 39,-286.88"/>
<polygon fill="black" stroke="black" points="35.5,-286.88 39,-296.88 42.5,-286.88 35.5,-286.88"/>
</g>
<!-- :android:feature:nowplaying -->
<g id="node12" class="node">
<title>:android:feature:nowplaying</title>
<ellipse fill="#9affb5" stroke="black" cx="341.69" cy="-72" rx="141.88" ry="18"/>
<text text-anchor="middle" x="341.69" y="-68.3" font-family="Times,serif" font-size="14.00">:android:feature:nowplaying</text>
</g>
<!-- :android:feature:nowplaying&#45;&gt;:ui:common -->
<g id="edge11" class="edge">
<title>:android:feature:nowplaying&#45;&gt;:ui:common</title>
<path fill="none" stroke="black" stroke-dasharray="1,5" d="M203,-75.96C203,-106.23 203,-300 203,-300 203,-300 109.34,-300 109.34,-300"/>
<polygon fill="black" stroke="black" points="109.34,-296.5 99.34,-300 109.34,-303.5 109.34,-296.5"/>
</g>
<!-- :android:feature:spotify -->
<g id="node13" class="node">
<title>:android:feature:spotify</title>
<ellipse fill="#9affb5" stroke="black" cx="341.69" cy="-18" rx="120.48" ry="18"/>
<text text-anchor="middle" x="341.69" y="-14.3" font-family="Times,serif" font-size="14.00">:android:feature:spotify</text>
</g>
<!-- :android:feature:spotify&#45;&gt;:ui:common -->
<g id="edge12" class="edge">
<title>:android:feature:spotify&#45;&gt;:ui:common</title>
<path fill="none" stroke="black" stroke-dasharray="1,5" d="M221.07,-18C129.42,-18 19,-18 19,-18 19,-18 19,-286.87 19,-286.87"/>
<polygon fill="black" stroke="black" points="15.5,-286.87 19,-296.87 22.5,-286.87 15.5,-286.87"/>
</g>
</g>
</svg>
