<?xml version="1.0" encoding="UTF-8" standalone="no"?>
<!DOCTYPE svg PUBLIC "-//W3C//DTD SVG 1.1//EN"
 "http://www.w3.org/Graphics/SVG/1.1/DTD/svg11.dtd">
<!-- Generated by graphviz version 2.43.0 (0)
 -->
<!-- Title: %3 Pages: 1 -->
<svg width="1118pt" height="803pt"
 viewBox="0.00 0.00 1118.23 803.00" xmlns="http://www.w3.org/2000/svg" xmlns:xlink="http://www.w3.org/1999/xlink">
<g id="graph0" class="graph" transform="scale(1 1) rotate(0) translate(4 799)">
<title>%3</title>
<polygon fill="white" stroke="transparent" points="-4,4 -4,-799 1114.23,-799 1114.23,4 -4,4"/>
<text text-anchor="middle" x="555.12" y="-767" font-family="Times,serif" font-size="30.00">Dependencies</text>
<text text-anchor="middle" x="555.12" y="-734" font-family="Times,serif" font-size="30.00"> </text>
<!-- :ui:common -->
<g id="node1" class="node">
<title>:ui:common</title>
<polygon fill="#b59aff" stroke="black" points="435.34,-721 336.34,-721 336.34,-685 435.34,-685 435.34,-721"/>
<text text-anchor="middle" x="385.84" y="-699.3" font-family="Times,serif" font-size="14.00">:ui:common</text>
</g>
<!-- :ui:test:screenshot -->
<g id="node2" class="node">
<title>:ui:test:screenshot</title>
<ellipse fill="#9affb5" stroke="black" cx="96.84" cy="-566" rx="96.68" ry="18"/>
<text text-anchor="middle" x="96.84" y="-562.3" font-family="Times,serif" font-size="14.00">:ui:test:screenshot</text>
</g>
<!-- :ui:common&#45;&gt;:ui:test:screenshot -->
<g id="edge1" class="edge">
<title>:ui:common&#45;&gt;:ui:test:screenshot</title>
<path fill="none" stroke="#ff9ab1" stroke-dasharray="1,5" d="M336.16,-709C253.53,-709 96.84,-709 96.84,-709 96.84,-709 96.84,-594.11 96.84,-594.11"/>
<polygon fill="#ff9ab1" stroke="#ff9ab1" points="100.34,-594.11 96.84,-584.11 93.34,-594.11 100.34,-594.11"/>
</g>
<!-- :shared:domain -->
<g id="node3" class="node">
<title>:shared:domain</title>
<ellipse fill="#b59aff" stroke="black" cx="645.84" cy="-18" rx="82.59" ry="18"/>
<text text-anchor="middle" x="645.84" y="-14.3" font-family="Times,serif" font-size="14.00">:shared:domain</text>
</g>
<!-- :ui:common&#45;&gt;:shared:domain -->
<g id="edge2" class="edge">
<title>:ui:common&#45;&gt;:shared:domain</title>
<path fill="none" stroke="black" d="M383.64,-684.84C383.64,-576.86 383.64,-24 383.64,-24 383.64,-24 557.88,-24 557.88,-24"/>
<polygon fill="black" stroke="black" points="557.88,-27.5 567.88,-24 557.88,-20.5 557.88,-27.5"/>
</g>
<!-- :ui:core -->
<g id="node4" class="node">
<title>:ui:core</title>
<ellipse fill="#b59aff" stroke="black" cx="222.84" cy="-429" rx="45.49" ry="18"/>
<text text-anchor="middle" x="222.84" y="-425.3" font-family="Times,serif" font-size="14.00">:ui:core</text>
</g>
<!-- :ui:common&#45;&gt;:ui:core -->
<g id="edge3" class="edge">
<title>:ui:common&#45;&gt;:ui:core</title>
<path fill="none" stroke="black" d="M336.18,-697C287.89,-697 221.79,-697 221.79,-697 221.79,-697 221.79,-457 221.79,-457"/>
<polygon fill="black" stroke="black" points="225.29,-457 221.79,-447 218.29,-457 225.29,-457"/>
</g>
<!-- :data:coverart -->
<g id="node5" class="node">
<title>:data:coverart</title>
<ellipse fill="#b59aff" stroke="black" cx="676.84" cy="-566" rx="76.09" ry="18"/>
<text text-anchor="middle" x="676.84" y="-562.3" font-family="Times,serif" font-size="14.00">:data:coverart</text>
</g>
<!-- :ui:common&#45;&gt;:data:coverart -->
<g id="edge4" class="edge">
<title>:ui:common&#45;&gt;:data:coverart</title>
<path fill="none" stroke="black" stroke-dasharray="1,5" d="M409.49,-684.79C409.49,-648.79 409.49,-572 409.49,-572 409.49,-572 594.84,-572 594.84,-572"/>
<polygon fill="black" stroke="black" points="594.84,-575.5 604.84,-572 594.84,-568.5 594.84,-575.5"/>
</g>
<!-- :data:musicbrainz -->
<g id="node6" class="node">
<title>:data:musicbrainz</title>
<ellipse fill="#b59aff" stroke="black" cx="960.84" cy="-155" rx="93.68" ry="18"/>
<text text-anchor="middle" x="960.84" y="-151.3" font-family="Times,serif" font-size="14.00">:data:musicbrainz</text>
</g>
<!-- :ui:common&#45;&gt;:data:musicbrainz -->
<g id="edge5" class="edge">
<title>:ui:common&#45;&gt;:data:musicbrainz</title>
<path fill="none" stroke="black" stroke-dasharray="1,5" d="M435.37,-697C584.16,-697 1017,-697 1017,-697 1017,-697 1017,-179.5 1017,-179.5"/>
<polygon fill="black" stroke="black" points="1020.5,-179.5 1017,-169.5 1013.5,-179.5 1020.5,-179.5"/>
</g>
<!-- :core:logging:api -->
<g id="node7" class="node">
<title>:core:logging:api</title>
<ellipse fill="#b59aff" stroke="black" cx="1021.84" cy="-18" rx="88.28" ry="18"/>
<text text-anchor="middle" x="1021.84" y="-14.3" font-family="Times,serif" font-size="14.00">:core:logging:api</text>
</g>
<!-- :ui:common&#45;&gt;:core:logging:api -->
<g id="edge6" class="edge">
<title>:ui:common&#45;&gt;:core:logging:api</title>
<path fill="none" stroke="black" stroke-dasharray="1,5" d="M435.47,-709C596.12,-709 1091.63,-709 1091.63,-709 1091.63,-709 1091.63,-39.13 1091.63,-39.13"/>
<polygon fill="black" stroke="black" points="1095.13,-39.13 1091.63,-29.13 1088.13,-39.13 1095.13,-39.13"/>
</g>
<!-- :ui:image -->
<g id="node8" class="node">
<title>:ui:image</title>
<ellipse fill="#b59aff" stroke="black" cx="303.84" cy="-566" rx="53.89" ry="18"/>
<text text-anchor="middle" x="303.84" y="-562.3" font-family="Times,serif" font-size="14.00">:ui:image</text>
</g>
<!-- :ui:common&#45;&gt;:ui:image -->
<g id="edge7" class="edge">
<title>:ui:common&#45;&gt;:ui:image</title>
<path fill="none" stroke="black" stroke-dasharray="1,5" d="M347.06,-684.81C347.06,-684.81 347.06,-587.09 347.06,-587.09"/>
<polygon fill="black" stroke="black" points="350.56,-587.09 347.06,-577.09 343.56,-587.09 350.56,-587.09"/>
</g>
<!-- :ui:test:screenshot&#45;&gt;:ui:core -->
<g id="edge8" class="edge">
<title>:ui:test:screenshot&#45;&gt;:ui:core</title>
<path fill="none" stroke="black" stroke-dasharray="1,5" d="M185.51,-558.63C185.51,-558.63 185.51,-449.67 185.51,-449.67"/>
<polygon fill="black" stroke="black" points="189.01,-449.67 185.51,-439.67 182.01,-449.67 189.01,-449.67"/>
</g>
<!-- :test:image -->
<g id="node9" class="node">
<title>:test:image</title>
<ellipse fill="#9affb5" stroke="black" cx="95.84" cy="-429" rx="63.09" ry="18"/>
<text text-anchor="middle" x="95.84" y="-425.3" font-family="Times,serif" font-size="14.00">:test:image</text>
</g>
<!-- :ui:test:screenshot&#45;&gt;:test:image -->
<g id="edge9" class="edge">
<title>:ui:test:screenshot&#45;&gt;:test:image</title>
<path fill="none" stroke="black" stroke-dasharray="1,5" d="M95.84,-547.81C95.84,-547.81 95.84,-457.27 95.84,-457.27"/>
<polygon fill="black" stroke="black" points="99.34,-457.27 95.84,-447.27 92.34,-457.27 99.34,-457.27"/>
</g>
<!-- :shared:strings -->
<g id="node10" class="node">
<title>:shared:strings</title>
<ellipse fill="#b59aff" stroke="black" cx="222.84" cy="-292" rx="81.49" ry="18"/>
<text text-anchor="middle" x="222.84" y="-288.3" font-family="Times,serif" font-size="14.00">:shared:strings</text>
</g>
<!-- :ui:core&#45;&gt;:shared:strings -->
<g id="edge10" class="edge">
<title>:ui:core&#45;&gt;:shared:strings</title>
<path fill="none" stroke="black" d="M222.84,-410.81C222.84,-410.81 222.84,-320.27 222.84,-320.27"/>
<polygon fill="black" stroke="black" points="226.34,-320.27 222.84,-310.27 219.34,-320.27 226.34,-320.27"/>
</g>
<!-- :data:coverart&#45;&gt;:shared:domain -->
<g id="edge11" class="edge">
<title>:data:coverart&#45;&gt;:shared:domain</title>
<path fill="none" stroke="black" stroke-dasharray="1,5" d="M742.94,-557C794.87,-557 858.49,-557 858.49,-557 858.49,-557 858.49,-27 858.49,-27 858.49,-27 727.54,-27 727.54,-27"/>
<polygon fill="black" stroke="black" points="727.54,-23.5 717.54,-27 727.54,-30.5 727.54,-23.5"/>
</g>
<!-- :data:coverart&#45;&gt;:data:musicbrainz -->
<g id="edge15" class="edge">
<title>:data:coverart&#45;&gt;:data:musicbrainz</title>
<path fill="none" stroke="#ff9ab1" stroke-dasharray="1,5" d="M753.23,-566C842.91,-566 979.56,-566 979.56,-566 979.56,-566 979.56,-182.66 979.56,-182.66"/>
<polygon fill="#ff9ab1" stroke="#ff9ab1" points="983.06,-182.66 979.56,-172.66 976.06,-182.66 983.06,-182.66"/>
</g>
<!-- :data:coverart&#45;&gt;:core:logging:api -->
<g id="edge12" class="edge">
<title>:data:coverart&#45;&gt;:core:logging:api</title>
<path fill="none" stroke="black" stroke-dasharray="1,5" d="M742.71,-575C855.37,-575 1073.03,-575 1073.03,-575 1073.03,-575 1073.03,-42.9 1073.03,-42.9"/>
<polygon fill="black" stroke="black" points="1076.53,-42.9 1073.03,-32.9 1069.53,-42.9 1076.53,-42.9"/>
</g>
<!-- :core:coroutines -->
<g id="node11" class="node">
<title>:core:coroutines</title>
<ellipse fill="#b59aff" stroke="black" cx="532.84" cy="-155" rx="85.29" ry="18"/>
<text text-anchor="middle" x="532.84" y="-151.3" font-family="Times,serif" font-size="14.00">:core:coroutines</text>
</g>
<!-- :data:coverart&#45;&gt;:core:coroutines -->
<g id="edge13" class="edge">
<title>:data:coverart&#45;&gt;:core:coroutines</title>
<path fill="none" stroke="black" stroke-dasharray="1,5" d="M605.03,-560C550.2,-560 483.98,-560 483.98,-560 483.98,-560 483.98,-179.89 483.98,-179.89"/>
<polygon fill="black" stroke="black" points="487.48,-179.89 483.98,-169.89 480.48,-179.89 487.48,-179.89"/>
</g>
<!-- :test&#45;data -->
<g id="node12" class="node">
<title>:test&#45;data</title>
<ellipse fill="#b59aff" stroke="black" cx="718.84" cy="-429" rx="55.49" ry="18"/>
<text text-anchor="middle" x="718.84" y="-425.3" font-family="Times,serif" font-size="14.00">:test&#45;data</text>
</g>
<!-- :data:coverart&#45;&gt;:test&#45;data -->
<g id="edge14" class="edge">
<title>:data:coverart&#45;&gt;:test&#45;data</title>
<path fill="none" stroke="#ff9ab1" stroke-dasharray="1,5" d="M693.36,-548.37C693.36,-548.37 693.36,-455.28 693.36,-455.28"/>
<polygon fill="#ff9ab1" stroke="#ff9ab1" points="696.86,-455.28 693.36,-445.28 689.86,-455.28 696.86,-455.28"/>
</g>
<!-- :data:database -->
<g id="node13" class="node">
<title>:data:database</title>
<ellipse fill="#b59aff" stroke="black" cx="635.84" cy="-292" rx="79.09" ry="18"/>
<text text-anchor="middle" x="635.84" y="-288.3" font-family="Times,serif" font-size="14.00">:data:database</text>
</g>
<!-- :data:coverart&#45;&gt;:data:database -->
<g id="edge16" class="edge">
<title>:data:coverart&#45;&gt;:data:database</title>
<path fill="none" stroke="#ff9ab1" stroke-dasharray="1,5" d="M632.2,-551.27C632.2,-551.27 632.2,-320.31 632.2,-320.31"/>
<polygon fill="#ff9ab1" stroke="#ff9ab1" points="635.7,-320.31 632.2,-310.31 628.7,-320.31 635.7,-320.31"/>
</g>
<!-- :data:musicbrainz&#45;&gt;:shared:domain -->
<g id="edge17" class="edge">
<title>:data:musicbrainz&#45;&gt;:shared:domain</title>
<path fill="none" stroke="black" stroke-dasharray="1,5" d="M900.35,-141.11C900.35,-106.28 900.35,-18 900.35,-18 900.35,-18 738.47,-18 738.47,-18"/>
<polygon fill="black" stroke="black" points="738.47,-14.5 728.47,-18 738.47,-21.5 738.47,-14.5"/>
</g>
<!-- :data:musicbrainz&#45;&gt;:core:logging:api -->
<g id="edge18" class="edge">
<title>:data:musicbrainz&#45;&gt;:core:logging:api</title>
<path fill="none" stroke="black" stroke-dasharray="1,5" d="M993.94,-137.93C993.94,-137.93 993.94,-45.29 993.94,-45.29"/>
<polygon fill="black" stroke="black" points="997.44,-45.29 993.94,-35.29 990.44,-45.29 997.44,-45.29"/>
</g>
<!-- :ui:image&#45;&gt;:shared:domain -->
<g id="edge19" class="edge">
<title>:ui:image&#45;&gt;:shared:domain</title>
<path fill="none" stroke="black" stroke-dasharray="1,5" d="M330.94,-550.31C330.94,-460.16 330.94,-12 330.94,-12 330.94,-12 558,-12 558,-12"/>
<polygon fill="black" stroke="black" points="558,-15.5 568,-12 558,-8.5 558,-15.5"/>
</g>
<!-- :ui:image&#45;&gt;:ui:core -->
<g id="edge20" class="edge">
<title>:ui:image&#45;&gt;:ui:core</title>
<path fill="none" stroke="black" stroke-dasharray="1,5" d="M259.12,-555.7C259.12,-555.7 259.12,-450.18 259.12,-450.18"/>
<polygon fill="black" stroke="black" points="262.62,-450.18 259.12,-440.18 255.62,-450.18 262.62,-450.18"/>
</g>
<!-- :test&#45;data&#45;&gt;:shared:domain -->
<g id="edge21" class="edge">
<title>:test&#45;data&#45;&gt;:shared:domain</title>
<path fill="none" stroke="black" stroke-dasharray="1,5" d="M734.79,-411.44C734.79,-361.62 734.79,-223 734.79,-223 734.79,-223 680.63,-223 680.63,-223 680.63,-223 680.63,-44.43 680.63,-44.43"/>
<polygon fill="black" stroke="black" points="684.13,-44.43 680.63,-34.43 677.13,-44.43 684.13,-44.43"/>
</g>
<!-- :test&#45;data&#45;&gt;:data:coverart -->
<g id="edge23" class="edge">
<title>:test&#45;data&#45;&gt;:data:coverart</title>
<path fill="none" stroke="black" stroke-dasharray="1,5" d="M723.12,-447.19C723.12,-447.19 723.12,-541.5 723.12,-541.5"/>
<polygon fill="black" stroke="black" points="719.62,-541.5 723.12,-551.5 726.62,-541.5 719.62,-541.5"/>
</g>
<!-- :test&#45;data&#45;&gt;:data:musicbrainz -->
<g id="edge22" class="edge">
<title>:test&#45;data&#45;&gt;:data:musicbrainz</title>
<path fill="none" stroke="black" stroke-dasharray="1,5" d="M774.32,-429C840.45,-429 942.12,-429 942.12,-429 942.12,-429 942.12,-182.98 942.12,-182.98"/>
<polygon fill="black" stroke="black" points="945.62,-182.98 942.12,-172.98 938.62,-182.98 945.62,-182.98"/>
</g>
<!-- :test&#45;data&#45;&gt;:core:coroutines -->
<g id="edge26" class="edge">
<title>:test&#45;data&#45;&gt;:core:coroutines</title>
<path fill="none" stroke="black" stroke-dasharray="1,5" d="M663.53,-429C604.77,-429 520.27,-429 520.27,-429 520.27,-429 520.27,-182.98 520.27,-182.98"/>
<polygon fill="black" stroke="black" points="523.77,-182.98 520.27,-172.98 516.77,-182.98 523.77,-182.98"/>
</g>
<!-- :test&#45;data&#45;&gt;:data:database -->
<g id="edge25" class="edge">
<title>:test&#45;data&#45;&gt;:data:database</title>
<path fill="none" stroke="black" stroke-dasharray="1,5" d="M689.37,-413.55C689.37,-413.55 689.37,-315.55 689.37,-315.55"/>
<polygon fill="black" stroke="black" points="692.87,-315.55 689.37,-305.55 685.87,-315.55 692.87,-315.55"/>
</g>
<!-- :data:spotify -->
<g id="node14" class="node">
<title>:data:spotify</title>
<ellipse fill="#b59aff" stroke="black" cx="780.84" cy="-155" rx="68.79" ry="18"/>
<text text-anchor="middle" x="780.84" y="-151.3" font-family="Times,serif" font-size="14.00">:data:spotify</text>
</g>
<!-- :test&#45;data&#45;&gt;:data:spotify -->
<g id="edge24" class="edge">
<title>:test&#45;data&#45;&gt;:data:spotify</title>
<path fill="none" stroke="black" stroke-dasharray="1,5" d="M754.44,-415.04C754.44,-415.04 754.44,-181.66 754.44,-181.66"/>
<polygon fill="black" stroke="black" points="757.94,-181.66 754.44,-171.66 750.94,-181.66 757.94,-181.66"/>
</g>
<!-- :data:database&#45;&gt;:shared:domain -->
<g id="edge27" class="edge">
<title>:data:database&#45;&gt;:shared:domain</title>
<path fill="none" stroke="black" stroke-dasharray="1,5" d="M649.31,-274.02C649.31,-274.02 649.31,-46.04 649.31,-46.04"/>
<polygon fill="black" stroke="black" points="652.81,-46.04 649.31,-36.04 645.81,-46.04 652.81,-46.04"/>
</g>
<!-- :data:database&#45;&gt;:data:musicbrainz -->
<g id="edge29" class="edge">
<title>:data:database&#45;&gt;:data:musicbrainz</title>
<path fill="none" stroke="black" stroke-dasharray="1,5" d="M715.41,-292C794.69,-292 904.69,-292 904.69,-292 904.69,-292 904.69,-179.4 904.69,-179.4"/>
<polygon fill="black" stroke="black" points="908.19,-179.4 904.69,-169.4 901.19,-179.4 908.19,-179.4"/>
</g>
<!-- :data:database&#45;&gt;:core:coroutines -->
<g id="edge28" class="edge">
<title>:data:database&#45;&gt;:core:coroutines</title>
<path fill="none" stroke="black" stroke-dasharray="1,5" d="M587.27,-277.6C587.27,-277.6 587.27,-179.21 587.27,-179.21"/>
<polygon fill="black" stroke="black" points="590.77,-179.21 587.27,-169.21 583.77,-179.21 590.77,-179.21"/>
</g>
<!-- :data:spotify&#45;&gt;:shared:domain -->
<g id="edge30" class="edge">
<title>:data:spotify&#45;&gt;:shared:domain</title>
<path fill="none" stroke="black" stroke-dasharray="1,5" d="M720.17,-146.43C720.17,-146.43 720.17,-35.88 720.17,-35.88"/>
<polygon fill="black" stroke="black" points="723.67,-35.88 720.17,-25.88 716.67,-35.88 723.67,-35.88"/>
</g>
<!-- :data:spotify&#45;&gt;:core:logging:api -->
<g id="edge31" class="edge">
<title>:data:spotify&#45;&gt;:core:logging:api</title>
<path fill="none" stroke="black" stroke-dasharray="1,5" d="M789.06,-137.1C789.06,-98.11 789.06,-9 789.06,-9 789.06,-9 934.97,-9 934.97,-9"/>
<polygon fill="black" stroke="black" points="934.97,-12.5 944.97,-9 934.97,-5.5 934.97,-12.5"/>
</g>
</g>
</svg>
