<?xml version="1.0" encoding="UTF-8" standalone="no"?>
<!DOCTYPE svg PUBLIC "-//W3C//DTD SVG 1.1//EN"
 "http://www.w3.org/Graphics/SVG/1.1/DTD/svg11.dtd">
<!-- Generated by graphviz version 2.43.0 (0)
 -->
<!-- Title: %3 Pages: 1 -->
<svg width="1094pt" height="529pt"
 viewBox="0.00 0.00 1094.38 529.00" xmlns="http://www.w3.org/2000/svg" xmlns:xlink="http://www.w3.org/1999/xlink">
<g id="graph0" class="graph" transform="scale(1 1) rotate(0) translate(4 525)">
<title>%3</title>
<polygon fill="white" stroke="transparent" points="-4,4 -4,-525 1090.38,-525 1090.38,4 -4,4"/>
<text text-anchor="middle" x="543.19" y="-493" font-family="Times,serif" font-size="30.00">Dependencies</text>
<text text-anchor="middle" x="543.19" y="-460" font-family="Times,serif" font-size="30.00"> </text>
<!-- :ui:common -->
<g id="node1" class="node">
<title>:ui:common</title>
<ellipse fill="#b59aff" stroke="black" cx="587.84" cy="-429" rx="64.19" ry="18"/>
<text text-anchor="middle" x="587.84" y="-425.3" font-family="Times,serif" font-size="14.00">:ui:common</text>
</g>
<!-- :ui:test:screenshot -->
<g id="node2" class="node">
<title>:ui:test:screenshot</title>
<ellipse fill="#9affb5" stroke="black" cx="96.84" cy="-292" rx="96.68" ry="18"/>
<text text-anchor="middle" x="96.84" y="-288.3" font-family="Times,serif" font-size="14.00">:ui:test:screenshot</text>
</g>
<!-- :ui:common&#45;&gt;:ui:test:screenshot -->
<g id="edge1" class="edge">
<title>:ui:common&#45;&gt;:ui:test:screenshot</title>
<path fill="none" stroke="#ff9ab1" stroke-dasharray="1,5" d="M532,-438C403.3,-438 96.84,-438 96.84,-438 96.84,-438 96.84,-320.2 96.84,-320.2"/>
<polygon fill="#ff9ab1" stroke="#ff9ab1" points="100.34,-320.2 96.84,-310.2 93.34,-320.2 100.34,-320.2"/>
</g>
<!-- :core:models -->
<g id="node3" class="node">
<title>:core:models</title>
<ellipse fill="#b59aff" stroke="black" cx="660.84" cy="-18" rx="69.59" ry="18"/>
<text text-anchor="middle" x="660.84" y="-14.3" font-family="Times,serif" font-size="14.00">:core:models</text>
</g>
<!-- :ui:common&#45;&gt;:core:models -->
<g id="edge2" class="edge">
<title>:ui:common&#45;&gt;:core:models</title>
<path fill="none" stroke="black" d="M603.77,-411.34C603.77,-411.34 603.77,-38.57 603.77,-38.57"/>
<polygon fill="black" stroke="black" points="607.27,-38.57 603.77,-28.57 600.27,-38.57 607.27,-38.57"/>
</g>
<!-- :ui:core -->
<g id="node4" class="node">
<title>:ui:core</title>
<ellipse fill="#b59aff" stroke="black" cx="222.84" cy="-155" rx="45.49" ry="18"/>
<text text-anchor="middle" x="222.84" y="-151.3" font-family="Times,serif" font-size="14.00">:ui:core</text>
</g>
<!-- :ui:common&#45;&gt;:ui:core -->
<g id="edge3" class="edge">
<title>:ui:common&#45;&gt;:ui:core</title>
<path fill="none" stroke="black" d="M523.24,-429C418.16,-429 221.79,-429 221.79,-429 221.79,-429 221.79,-183.4 221.79,-183.4"/>
<polygon fill="black" stroke="black" points="225.29,-183.4 221.79,-173.4 218.29,-183.4 225.29,-183.4"/>
</g>
<!-- :data:coverart -->
<g id="node5" class="node">
<title>:data:coverart</title>
<ellipse fill="#b59aff" stroke="black" cx="935.84" cy="-292" rx="76.09" ry="18"/>
<text text-anchor="middle" x="935.84" y="-288.3" font-family="Times,serif" font-size="14.00">:data:coverart</text>
</g>
<!-- :ui:common&#45;&gt;:data:coverart -->
<g id="edge4" class="edge">
<title>:ui:common&#45;&gt;:data:coverart</title>
<path fill="none" stroke="black" stroke-dasharray="1,5" d="M648.86,-423C748.66,-423 935.84,-423 935.84,-423 935.84,-423 935.84,-320.21 935.84,-320.21"/>
<polygon fill="black" stroke="black" points="939.34,-320.21 935.84,-310.21 932.34,-320.22 939.34,-320.21"/>
</g>
<!-- :data:musicbrainz -->
<g id="node6" class="node">
<title>:data:musicbrainz</title>
<ellipse fill="#b59aff" stroke="black" cx="709.84" cy="-292" rx="93.68" ry="18"/>
<text text-anchor="middle" x="709.84" y="-288.3" font-family="Times,serif" font-size="14.00">:data:musicbrainz</text>
</g>
<!-- :ui:common&#45;&gt;:data:musicbrainz -->
<g id="edge5" class="edge">
<title>:ui:common&#45;&gt;:data:musicbrainz</title>
<path fill="none" stroke="black" stroke-dasharray="1,5" d="M634.22,-416.36C634.22,-416.36 634.22,-312.69 634.22,-312.69"/>
<polygon fill="black" stroke="black" points="637.72,-312.69 634.22,-302.69 630.72,-312.69 637.72,-312.69"/>
</g>
<!-- :core:preferences -->
<g id="node7" class="node">
<title>:core:preferences</title>
<ellipse fill="#b59aff" stroke="black" cx="467.84" cy="-292" rx="91.78" ry="18"/>
<text text-anchor="middle" x="467.84" y="-288.3" font-family="Times,serif" font-size="14.00">:core:preferences</text>
</g>
<!-- :ui:common&#45;&gt;:core:preferences -->
<g id="edge6" class="edge">
<title>:ui:common&#45;&gt;:core:preferences</title>
<path fill="none" stroke="black" stroke-dasharray="1,5" d="M541.49,-416.36C541.49,-416.36 541.49,-313.07 541.49,-313.07"/>
<polygon fill="black" stroke="black" points="544.99,-313.07 541.49,-303.07 537.99,-313.07 544.99,-313.07"/>
</g>
<!-- :core:logging:api -->
<g id="node8" class="node">
<title>:core:logging:api</title>
<ellipse fill="#b59aff" stroke="black" cx="776.84" cy="-155" rx="88.28" ry="18"/>
<text text-anchor="middle" x="776.84" y="-151.3" font-family="Times,serif" font-size="14.00">:core:logging:api</text>
</g>
<!-- :ui:common&#45;&gt;:core:logging:api -->
<g id="edge7" class="edge">
<title>:ui:common&#45;&gt;:core:logging:api</title>
<path fill="none" stroke="black" stroke-dasharray="1,5" d="M610.01,-411.86C610.01,-351.87 610.01,-155 610.01,-155 610.01,-155 678.05,-155 678.05,-155"/>
<polygon fill="black" stroke="black" points="678.05,-158.5 688.05,-155 678.05,-151.5 678.05,-158.5"/>
</g>
<!-- :shared:domain -->
<g id="node9" class="node">
<title>:shared:domain</title>
<ellipse fill="#b59aff" stroke="black" cx="1003.84" cy="-155" rx="82.59" ry="18"/>
<text text-anchor="middle" x="1003.84" y="-151.3" font-family="Times,serif" font-size="14.00">:shared:domain</text>
</g>
<!-- :ui:common&#45;&gt;:shared:domain -->
<g id="edge8" class="edge">
<title>:ui:common&#45;&gt;:shared:domain</title>
<path fill="none" stroke="black" stroke-dasharray="1,5" d="M648.62,-435C773.88,-435 1049.13,-435 1049.13,-435 1049.13,-435 1049.13,-180.05 1049.13,-180.05"/>
<polygon fill="black" stroke="black" points="1052.63,-180.05 1049.13,-170.05 1045.63,-180.05 1052.63,-180.05"/>
</g>
<!-- :ui:image -->
<g id="node10" class="node">
<title>:ui:image</title>
<ellipse fill="#b59aff" stroke="black" cx="303.84" cy="-292" rx="53.89" ry="18"/>
<text text-anchor="middle" x="303.84" y="-288.3" font-family="Times,serif" font-size="14.00">:ui:image</text>
</g>
<!-- :ui:common&#45;&gt;:ui:image -->
<g id="edge9" class="edge">
<title>:ui:common&#45;&gt;:ui:image</title>
<path fill="none" stroke="black" stroke-dasharray="1,5" d="M532.07,-420C449.36,-420 303.84,-420 303.84,-420 303.84,-420 303.84,-320.07 303.84,-320.07"/>
<polygon fill="black" stroke="black" points="307.34,-320.07 303.84,-310.07 300.34,-320.07 307.34,-320.07"/>
</g>
<!-- :ui:test:screenshot&#45;&gt;:ui:core -->
<g id="edge10" class="edge">
<title>:ui:test:screenshot&#45;&gt;:ui:core</title>
<path fill="none" stroke="black" stroke-dasharray="1,5" d="M185.51,-284.63C185.51,-284.63 185.51,-175.67 185.51,-175.67"/>
<polygon fill="black" stroke="black" points="189.01,-175.67 185.51,-165.67 182.01,-175.67 189.01,-175.67"/>
</g>
<!-- :test:image -->
<g id="node11" class="node">
<title>:test:image</title>
<ellipse fill="#9affb5" stroke="black" cx="95.84" cy="-155" rx="63.09" ry="18"/>
<text text-anchor="middle" x="95.84" y="-151.3" font-family="Times,serif" font-size="14.00">:test:image</text>
</g>
<!-- :ui:test:screenshot&#45;&gt;:test:image -->
<g id="edge11" class="edge">
<title>:ui:test:screenshot&#45;&gt;:test:image</title>
<path fill="none" stroke="black" stroke-dasharray="1,5" d="M95.84,-273.81C95.84,-273.81 95.84,-183.27 95.84,-183.27"/>
<polygon fill="black" stroke="black" points="99.34,-183.27 95.84,-173.27 92.34,-183.27 99.34,-183.27"/>
</g>
<!-- :shared:strings -->
<g id="node12" class="node">
<title>:shared:strings</title>
<ellipse fill="#b59aff" stroke="black" cx="222.84" cy="-18" rx="81.49" ry="18"/>
<text text-anchor="middle" x="222.84" y="-14.3" font-family="Times,serif" font-size="14.00">:shared:strings</text>
</g>
<!-- :ui:core&#45;&gt;:shared:strings -->
<g id="edge12" class="edge">
<title>:ui:core&#45;&gt;:shared:strings</title>
<path fill="none" stroke="black" d="M200.09,-139.28C200.09,-139.28 200.09,-45.69 200.09,-45.69"/>
<polygon fill="black" stroke="black" points="203.59,-45.69 200.09,-35.69 196.59,-45.69 203.59,-45.69"/>
</g>
<!-- :ui:core&#45;&gt;:shared:strings -->
<g id="edge23" class="edge">
<title>:ui:core&#45;&gt;:shared:strings</title>
<path fill="none" stroke="black" d="M222.84,-136.81C222.84,-136.81 222.84,-46.27 222.84,-46.27"/>
<polygon fill="black" stroke="black" points="226.34,-46.27 222.84,-36.27 219.34,-46.27 226.34,-46.27"/>
</g>
<!-- :ui:core&#45;&gt;:shared:strings -->
<g id="edge25" class="edge">
<title>:ui:core&#45;&gt;:shared:strings</title>
<path fill="none" stroke="black" d="M245.59,-139.28C245.59,-139.28 245.59,-45.69 245.59,-45.69"/>
<polygon fill="black" stroke="black" points="249.09,-45.69 245.59,-35.69 242.09,-45.69 249.09,-45.69"/>
</g>
<!-- :data:coverart&#45;&gt;:core:models -->
<g id="edge14" class="edge">
<title>:data:coverart&#45;&gt;:core:models</title>
<path fill="none" stroke="black" stroke-dasharray="1,5" d="M893.27,-276.99C893.27,-220.93 893.27,-27 893.27,-27 893.27,-27 731.3,-27 731.3,-27"/>
<polygon fill="black" stroke="black" points="731.3,-23.5 721.3,-27 731.3,-30.5 731.3,-23.5"/>
</g>
<!-- :data:coverart&#45;&gt;:core:logging:api -->
<g id="edge13" class="edge">
<title>:data:coverart&#45;&gt;:core:logging:api</title>
<path fill="none" stroke="black" stroke-dasharray="1,5" d="M859.55,-292C843.65,-292 831.62,-292 831.62,-292 831.62,-292 831.62,-179.15 831.62,-179.15"/>
<polygon fill="black" stroke="black" points="835.12,-179.15 831.62,-169.15 828.12,-179.15 835.12,-179.15"/>
</g>
<!-- :data:coverart&#45;&gt;:shared:domain -->
<g id="edge15" class="edge">
<title>:data:coverart&#45;&gt;:shared:domain</title>
<path fill="none" stroke="black" stroke-dasharray="1,5" d="M966.59,-275.47C966.59,-275.47 966.59,-181.16 966.59,-181.16"/>
<polygon fill="black" stroke="black" points="970.09,-181.16 966.59,-171.16 963.09,-181.16 970.09,-181.16"/>
</g>
<!-- :data:musicbrainz&#45;&gt;:core:models -->
<g id="edge17" class="edge">
<title>:data:musicbrainz&#45;&gt;:core:models</title>
<path fill="none" stroke="black" stroke-dasharray="1,5" d="M652.35,-277.65C652.35,-277.65 652.35,-46.02 652.35,-46.02"/>
<polygon fill="black" stroke="black" points="655.85,-46.02 652.35,-36.02 648.85,-46.02 655.85,-46.02"/>
</g>
<!-- :data:musicbrainz&#45;&gt;:core:logging:api -->
<g id="edge16" class="edge">
<title>:data:musicbrainz&#45;&gt;:core:logging:api</title>
<path fill="none" stroke="black" stroke-dasharray="1,5" d="M745.94,-275.2C745.94,-275.2 745.94,-181.94 745.94,-181.94"/>
<polygon fill="black" stroke="black" points="749.44,-181.94 745.94,-171.94 742.44,-181.94 749.44,-181.94"/>
</g>
<!-- :core:preferences&#45;&gt;:core:models -->
<g id="edge19" class="edge">
<title>:core:preferences&#45;&gt;:core:models</title>
<path fill="none" stroke="black" stroke-dasharray="1,5" d="M559.67,-292C580.97,-292 597.54,-292 597.54,-292 597.54,-292 597.54,-35.61 597.54,-35.61"/>
<polygon fill="black" stroke="black" points="601.04,-35.61 597.54,-25.61 594.04,-35.61 601.04,-35.61"/>
</g>
<!-- :core:coroutines -->
<g id="node13" class="node">
<title>:core:coroutines</title>
<ellipse fill="#b59aff" stroke="black" cx="474.84" cy="-155" rx="85.29" ry="18"/>
<text text-anchor="middle" x="474.84" y="-151.3" font-family="Times,serif" font-size="14.00">:core:coroutines</text>
</g>
<!-- :core:preferences&#45;&gt;:core:coroutines -->
<g id="edge18" class="edge">
<title>:core:preferences&#45;&gt;:core:coroutines</title>
<path fill="none" stroke="black" stroke-dasharray="1,5" d="M474.59,-273.81C474.59,-273.81 474.59,-183.27 474.59,-183.27"/>
<polygon fill="black" stroke="black" points="478.09,-183.27 474.59,-173.27 471.09,-183.27 478.09,-183.27"/>
</g>
<!-- :shared:domain&#45;&gt;:core:models -->
<g id="edge20" class="edge">
<title>:shared:domain&#45;&gt;:core:models</title>
<path fill="none" stroke="black" stroke-dasharray="1,5" d="M976.33,-137.93C976.33,-101.2 976.33,-18 976.33,-18 976.33,-18 740.47,-18 740.47,-18"/>
<polygon fill="black" stroke="black" points="740.47,-14.5 730.47,-18 740.47,-21.5 740.47,-14.5"/>
</g>
<!-- :shared:domain&#45;&gt;:core:models -->
<g id="edge24" class="edge">
<title>:shared:domain&#45;&gt;:core:models</title>
<path fill="none" stroke="black" stroke-dasharray="1,5" d="M1031.36,-137.97C1031.36,-99.45 1031.36,-9 1031.36,-9 1031.36,-9 731.2,-9 731.2,-9"/>
<polygon fill="black" stroke="black" points="731.2,-5.5 721.2,-9 731.2,-12.5 731.2,-5.5"/>
</g>
<!-- :ui:image&#45;&gt;:core:models -->
<g id="edge21" class="edge">
<title>:ui:image&#45;&gt;:core:models</title>
<path fill="none" stroke="black" stroke-dasharray="1,5" d="M330.94,-276.08C330.94,-217.61 330.94,-18 330.94,-18 330.94,-18 581.28,-18 581.28,-18"/>
<polygon fill="black" stroke="black" points="581.28,-21.5 591.28,-18 581.28,-14.5 581.28,-21.5"/>
</g>
<!-- :ui:image&#45;&gt;:ui:core -->
<g id="edge22" class="edge">
<title>:ui:image&#45;&gt;:ui:core</title>
<path fill="none" stroke="black" stroke-dasharray="1,5" d="M259.12,-281.7C259.12,-281.7 259.12,-176.18 259.12,-176.18"/>
<polygon fill="black" stroke="black" points="262.62,-176.18 259.12,-166.18 255.62,-176.18 262.62,-176.18"/>
</g>
</g>
</svg>
