<?xml version="1.0" encoding="UTF-8" standalone="no"?>
<!DOCTYPE svg PUBLIC "-//W3C//DTD SVG 1.1//EN"
 "http://www.w3.org/Graphics/SVG/1.1/DTD/svg11.dtd">
<!-- Generated by graphviz version 2.43.0 (0)
 -->
<!-- Title: %3 Pages: 1 -->
<svg width="1186pt" height="529pt"
 viewBox="0.00 0.00 1186.39 529.00" xmlns="http://www.w3.org/2000/svg" xmlns:xlink="http://www.w3.org/1999/xlink">
<g id="graph0" class="graph" transform="scale(1 1) rotate(0) translate(4 525)">
<title>%3</title>
<polygon fill="white" stroke="transparent" points="-4,4 -4,-525 1182.39,-525 1182.39,4 -4,4"/>
<text text-anchor="middle" x="589.19" y="-493" font-family="Times,serif" font-size="30.00">Dependencies</text>
<text text-anchor="middle" x="589.19" y="-460" font-family="Times,serif" font-size="30.00"> </text>
<!-- :ui:common -->
<g id="node1" class="node">
<title>:ui:common</title>
<polygon fill="#b59aff" stroke="black" points="655.24,-447 556.24,-447 556.24,-411 655.24,-411 655.24,-447"/>
<text text-anchor="middle" x="605.74" y="-425.3" font-family="Times,serif" font-size="14.00">:ui:common</text>
</g>
<!-- :ui:test:image -->
<g id="node2" class="node">
<title>:ui:test:image</title>
<ellipse fill="#9affb5" stroke="black" cx="74.74" cy="-292" rx="74.99" ry="18"/>
<text text-anchor="middle" x="74.74" y="-288.3" font-family="Times,serif" font-size="14.00">:ui:test:image</text>
</g>
<!-- :ui:common&#45;&gt;:ui:test:image -->
<g id="edge1" class="edge">
<title>:ui:common&#45;&gt;:ui:test:image</title>
<path fill="none" stroke="#ff9ab1" stroke-dasharray="1,5" d="M555.79,-439C423.6,-439 74.74,-439 74.74,-439 74.74,-439 74.74,-320.03 74.74,-320.03"/>
<polygon fill="#ff9ab1" stroke="#ff9ab1" points="78.24,-320.03 74.74,-310.03 71.24,-320.03 78.24,-320.03"/>
</g>
<!-- :ui:test:screenshot -->
<g id="node3" class="node">
<title>:ui:test:screenshot</title>
<ellipse fill="#9affb5" stroke="black" cx="302.74" cy="-292" rx="96.68" ry="18"/>
<text text-anchor="middle" x="302.74" y="-288.3" font-family="Times,serif" font-size="14.00">:ui:test:screenshot</text>
</g>
<!-- :ui:common&#45;&gt;:ui:test:screenshot -->
<g id="edge2" class="edge">
<title>:ui:common&#45;&gt;:ui:test:screenshot</title>
<path fill="none" stroke="#ff9ab1" stroke-dasharray="1,5" d="M556.05,-432C470.09,-432 302.74,-432 302.74,-432 302.74,-432 302.74,-320.02 302.74,-320.02"/>
<polygon fill="#ff9ab1" stroke="#ff9ab1" points="306.24,-320.02 302.74,-310.02 299.24,-320.02 306.24,-320.02"/>
</g>
<!-- :core:models -->
<g id="node4" class="node">
<title>:core:models</title>
<ellipse fill="#b59aff" stroke="black" cx="780.74" cy="-18" rx="69.59" ry="18"/>
<text text-anchor="middle" x="780.74" y="-14.3" font-family="Times,serif" font-size="14.00">:core:models</text>
</g>
<!-- :ui:common&#45;&gt;:core:models -->
<g id="edge3" class="edge">
<title>:ui:common&#45;&gt;:core:models</title>
<path fill="none" stroke="black" d="M556.03,-418C498.55,-418 411.73,-418 411.73,-418 411.73,-418 411.73,-7 411.73,-7 411.73,-7 715.5,-7 715.5,-7"/>
<polygon fill="black" stroke="black" points="715.5,-10.5 725.5,-7 715.5,-3.5 715.5,-10.5"/>
</g>
<!-- :ui:core -->
<g id="node5" class="node">
<title>:ui:core</title>
<ellipse fill="#b59aff" stroke="black" cx="302.74" cy="-155" rx="45.49" ry="18"/>
<text text-anchor="middle" x="302.74" y="-151.3" font-family="Times,serif" font-size="14.00">:ui:core</text>
</g>
<!-- :ui:common&#45;&gt;:ui:core -->
<g id="edge4" class="edge">
<title>:ui:common&#45;&gt;:ui:core</title>
<path fill="none" stroke="black" d="M556.03,-425C496.77,-425 405.66,-425 405.66,-425 405.66,-425 405.66,-161 405.66,-161 405.66,-161 355.79,-161 355.79,-161"/>
<polygon fill="black" stroke="black" points="355.79,-157.5 345.79,-161 355.79,-164.5 355.79,-157.5"/>
</g>
<!-- :data:coverart -->
<g id="node6" class="node">
<title>:data:coverart</title>
<ellipse fill="#b59aff" stroke="black" cx="657.74" cy="-292" rx="76.09" ry="18"/>
<text text-anchor="middle" x="657.74" y="-288.3" font-family="Times,serif" font-size="14.00">:data:coverart</text>
</g>
<!-- :ui:common&#45;&gt;:data:coverart -->
<g id="edge5" class="edge">
<title>:ui:common&#45;&gt;:data:coverart</title>
<path fill="none" stroke="black" stroke-dasharray="1,5" d="M618.47,-410.81C618.47,-410.81 618.47,-317.72 618.47,-317.72"/>
<polygon fill="black" stroke="black" points="621.97,-317.72 618.47,-307.72 614.97,-317.72 621.97,-317.72"/>
</g>
<!-- :data:musicbrainz -->
<g id="node7" class="node">
<title>:data:musicbrainz</title>
<ellipse fill="#b59aff" stroke="black" cx="883.74" cy="-292" rx="93.68" ry="18"/>
<text text-anchor="middle" x="883.74" y="-288.3" font-family="Times,serif" font-size="14.00">:data:musicbrainz</text>
</g>
<!-- :ui:common&#45;&gt;:data:musicbrainz -->
<g id="edge6" class="edge">
<title>:ui:common&#45;&gt;:data:musicbrainz</title>
<path fill="none" stroke="black" stroke-dasharray="1,5" d="M655.44,-429C735.41,-429 883.74,-429 883.74,-429 883.74,-429 883.74,-320.19 883.74,-320.19"/>
<polygon fill="black" stroke="black" points="887.24,-320.19 883.74,-310.19 880.24,-320.19 887.24,-320.19"/>
</g>
<!-- :core:preferences -->
<g id="node8" class="node">
<title>:core:preferences</title>
<ellipse fill="#b59aff" stroke="black" cx="1086.74" cy="-292" rx="91.78" ry="18"/>
<text text-anchor="middle" x="1086.74" y="-288.3" font-family="Times,serif" font-size="14.00">:core:preferences</text>
</g>
<!-- :ui:common&#45;&gt;:core:preferences -->
<g id="edge7" class="edge">
<title>:ui:common&#45;&gt;:core:preferences</title>
<path fill="none" stroke="black" stroke-dasharray="1,5" d="M655.41,-438C778.3,-438 1086.74,-438 1086.74,-438 1086.74,-438 1086.74,-320.2 1086.74,-320.2"/>
<polygon fill="black" stroke="black" points="1090.24,-320.2 1086.74,-310.2 1083.24,-320.2 1090.24,-320.2"/>
</g>
<!-- :core:logging:api -->
<g id="node9" class="node">
<title>:core:logging:api</title>
<ellipse fill="#b59aff" stroke="black" cx="780.74" cy="-155" rx="88.28" ry="18"/>
<text text-anchor="middle" x="780.74" y="-151.3" font-family="Times,serif" font-size="14.00">:core:logging:api</text>
</g>
<!-- :ui:common&#45;&gt;:core:logging:api -->
<g id="edge8" class="edge">
<title>:ui:common&#45;&gt;:core:logging:api</title>
<path fill="none" stroke="black" stroke-dasharray="1,5" d="M655.6,-420C701.32,-420 761.97,-420 761.97,-420 761.97,-420 761.97,-182.8 761.97,-182.8"/>
<polygon fill="black" stroke="black" points="765.47,-182.8 761.97,-172.8 758.47,-182.8 765.47,-182.8"/>
</g>
<!-- :shared:domain -->
<g id="node10" class="node">
<title>:shared:domain</title>
<ellipse fill="#b59aff" stroke="black" cx="553.74" cy="-155" rx="82.59" ry="18"/>
<text text-anchor="middle" x="553.74" y="-151.3" font-family="Times,serif" font-size="14.00">:shared:domain</text>
</g>
<!-- :ui:common&#45;&gt;:shared:domain -->
<g id="edge9" class="edge">
<title>:ui:common&#45;&gt;:shared:domain</title>
<path fill="none" stroke="black" stroke-dasharray="1,5" d="M573.21,-410.6C573.21,-410.6 573.21,-182.61 573.21,-182.61"/>
<polygon fill="black" stroke="black" points="576.71,-182.61 573.21,-172.61 569.71,-182.61 576.71,-182.61"/>
</g>
<!-- :ui:image -->
<g id="node11" class="node">
<title>:ui:image</title>
<ellipse fill="#b59aff" stroke="black" cx="471.74" cy="-292" rx="53.89" ry="18"/>
<text text-anchor="middle" x="471.74" y="-288.3" font-family="Times,serif" font-size="14.00">:ui:image</text>
</g>
<!-- :ui:common&#45;&gt;:ui:image -->
<g id="edge10" class="edge">
<title>:ui:common&#45;&gt;:ui:image</title>
<path fill="none" stroke="black" stroke-dasharray="1,5" d="M564.73,-410.81C564.73,-373.54 564.73,-292 564.73,-292 564.73,-292 535.83,-292 535.83,-292"/>
<polygon fill="black" stroke="black" points="535.83,-288.5 525.83,-292 535.83,-295.5 535.83,-288.5"/>
</g>
<!-- :ui:test:screenshot&#45;&gt;:ui:core -->
<g id="edge11" class="edge">
<title>:ui:test:screenshot&#45;&gt;:ui:core</title>
<path fill="none" stroke="black" stroke-dasharray="1,5" d="M302.74,-273.81C302.74,-273.81 302.74,-183.27 302.74,-183.27"/>
<polygon fill="black" stroke="black" points="306.24,-183.27 302.74,-173.27 299.24,-183.27 306.24,-183.27"/>
</g>
<!-- :shared:strings -->
<g id="node12" class="node">
<title>:shared:strings</title>
<ellipse fill="#b59aff" stroke="black" cx="302.74" cy="-18" rx="81.49" ry="18"/>
<text text-anchor="middle" x="302.74" y="-14.3" font-family="Times,serif" font-size="14.00">:shared:strings</text>
</g>
<!-- :ui:core&#45;&gt;:shared:strings -->
<g id="edge12" class="edge">
<title>:ui:core&#45;&gt;:shared:strings</title>
<path fill="none" stroke="black" d="M302.74,-136.81C302.74,-136.81 302.74,-46.27 302.74,-46.27"/>
<polygon fill="black" stroke="black" points="306.24,-46.27 302.74,-36.27 299.24,-46.27 306.24,-46.27"/>
</g>
<!-- :data:coverart&#45;&gt;:core:models -->
<g id="edge14" class="edge">
<title>:data:coverart&#45;&gt;:core:models</title>
<path fill="none" stroke="black" stroke-dasharray="1,5" d="M664.32,-273.85C664.32,-214.21 664.32,-28 664.32,-28 664.32,-28 712.87,-28 712.87,-28"/>
<polygon fill="black" stroke="black" points="712.87,-31.5 722.87,-28 712.87,-24.5 712.87,-31.5"/>
</g>
<!-- :data:coverart&#45;&gt;:core:logging:api -->
<g id="edge13" class="edge">
<title>:data:coverart&#45;&gt;:core:logging:api</title>
<path fill="none" stroke="black" stroke-dasharray="1,5" d="M713.07,-279.36C713.07,-279.36 713.07,-176.83 713.07,-176.83"/>
<polygon fill="black" stroke="black" points="716.57,-176.83 713.07,-166.83 709.57,-176.83 716.57,-176.83"/>
</g>
<!-- :data:coverart&#45;&gt;:shared:domain -->
<g id="edge15" class="edge">
<title>:data:coverart&#45;&gt;:shared:domain</title>
<path fill="none" stroke="black" stroke-dasharray="1,5" d="M608.99,-278.11C608.99,-278.11 608.99,-178.52 608.99,-178.52"/>
<polygon fill="black" stroke="black" points="612.49,-178.52 608.99,-168.52 605.49,-178.52 612.49,-178.52"/>
</g>
<!-- :data:musicbrainz&#45;&gt;:core:models -->
<g id="edge17" class="edge">
<title>:data:musicbrainz&#45;&gt;:core:models</title>
<path fill="none" stroke="black" stroke-dasharray="1,5" d="M896.87,-274C896.87,-213.91 896.87,-24 896.87,-24 896.87,-24 856.61,-24 856.61,-24"/>
<polygon fill="black" stroke="black" points="856.61,-20.5 846.61,-24 856.61,-27.5 856.61,-20.5"/>
</g>
<!-- :data:musicbrainz&#45;&gt;:core:logging:api -->
<g id="edge16" class="edge">
<title>:data:musicbrainz&#45;&gt;:core:logging:api</title>
<path fill="none" stroke="black" stroke-dasharray="1,5" d="M829.64,-277.08C829.64,-277.08 829.64,-180.32 829.64,-180.32"/>
<polygon fill="black" stroke="black" points="833.14,-180.32 829.64,-170.32 826.14,-180.32 833.14,-180.32"/>
</g>
<!-- :core:preferences&#45;&gt;:core:models -->
<g id="edge19" class="edge">
<title>:core:preferences&#45;&gt;:core:models</title>
<path fill="none" stroke="black" stroke-dasharray="1,5" d="M1136.64,-276.55C1136.64,-217.85 1136.64,-12 1136.64,-12 1136.64,-12 856.43,-12 856.43,-12"/>
<polygon fill="black" stroke="black" points="856.43,-8.5 846.43,-12 856.43,-15.5 856.43,-8.5"/>
</g>
<!-- :core:coroutines -->
<g id="node13" class="node">
<title>:core:coroutines</title>
<ellipse fill="#b59aff" stroke="black" cx="1009.74" cy="-155" rx="85.29" ry="18"/>
<text text-anchor="middle" x="1009.74" y="-151.3" font-family="Times,serif" font-size="14.00">:core:coroutines</text>
</g>
<!-- :core:preferences&#45;&gt;:core:coroutines -->
<g id="edge18" class="edge">
<title>:core:preferences&#45;&gt;:core:coroutines</title>
<path fill="none" stroke="black" stroke-dasharray="1,5" d="M1044.99,-275.75C1044.99,-275.75 1044.99,-181.66 1044.99,-181.66"/>
<polygon fill="black" stroke="black" points="1048.49,-181.66 1044.99,-171.66 1041.49,-181.66 1048.49,-181.66"/>
</g>
<!-- :shared:domain&#45;&gt;:core:models -->
<g id="edge20" class="edge">
<title>:shared:domain&#45;&gt;:core:models</title>
<path fill="none" stroke="black" stroke-dasharray="1,5" d="M553.74,-136.93C553.74,-100.35 553.74,-21 553.74,-21 553.74,-21 702.02,-21 702.02,-21"/>
<polygon fill="black" stroke="black" points="702.02,-24.5 712.02,-21 702.02,-17.5 702.02,-24.5"/>
</g>
<!-- :ui:image&#45;&gt;:core:models -->
<g id="edge21" class="edge">
<title>:ui:image&#45;&gt;:core:models</title>
<path fill="none" stroke="black" stroke-dasharray="1,5" d="M453.4,-275.03C453.4,-214.67 453.4,-14 453.4,-14 453.4,-14 702.92,-14 702.92,-14"/>
<polygon fill="black" stroke="black" points="702.92,-17.5 712.92,-14 702.92,-10.5 702.92,-17.5"/>
</g>
<!-- :ui:image&#45;&gt;:ui:core -->
<g id="edge22" class="edge">
<title>:ui:image&#45;&gt;:ui:core</title>
<path fill="none" stroke="black" stroke-dasharray="1,5" d="M435.6,-278.55C435.6,-242.95 435.6,-149 435.6,-149 435.6,-149 355.88,-149 355.88,-149"/>
<polygon fill="black" stroke="black" points="355.88,-145.5 345.88,-149 355.88,-152.5 355.88,-145.5"/>
</g>
</g>
</svg>
