<?xml version="1.0" encoding="UTF-8" standalone="no"?>
<!DOCTYPE svg PUBLIC "-//W3C//DTD SVG 1.1//EN"
 "http://www.w3.org/Graphics/SVG/1.1/DTD/svg11.dtd">
<!-- Generated by graphviz version 2.43.0 (0)
 -->
<!-- Title: %3 Pages: 1 -->
<svg width="491pt" height="766pt"
 viewBox="0.00 0.00 491.37 766.00" xmlns="http://www.w3.org/2000/svg" xmlns:xlink="http://www.w3.org/1999/xlink">
<g id="graph0" class="graph" transform="scale(1 1) rotate(0) translate(4 762)">
<title>%3</title>
<polygon fill="white" stroke="transparent" points="-4,4 -4,-762 487.37,-762 487.37,4 -4,4"/>
<text text-anchor="middle" x="241.69" y="-730" font-family="Times,serif" font-size="30.00">Dependents</text>
<text text-anchor="middle" x="241.69" y="-697" font-family="Times,serif" font-size="30.00"> </text>
<!-- :ui:common -->
<g id="node1" class="node">
<title>:ui:common</title>
<polygon fill="#b59aff" stroke="black" points="99,-360 0,-360 0,-324 99,-324 99,-360"/>
<text text-anchor="middle" x="49.5" y="-338.3" font-family="Times,serif" font-size="14.00">:ui:common</text>
</g>
<!-- :shared -->
<g id="node2" class="node">
<title>:shared</title>
<ellipse fill="#b59aff" stroke="black" cx="341.69" cy="-666" rx="45.49" ry="18"/>
<text text-anchor="middle" x="341.69" y="-662.3" font-family="Times,serif" font-size="14.00">:shared</text>
</g>
<!-- :shared&#45;&gt;:ui:common -->
<g id="edge1" class="edge">
<title>:shared&#45;&gt;:ui:common</title>
<path fill="none" stroke="black" stroke-dasharray="1,5" d="M296.12,-666C206.08,-666 14,-666 14,-666 14,-666 14,-370.35 14,-370.35"/>
<polygon fill="black" stroke="black" points="17.5,-370.35 14,-360.35 10.5,-370.35 17.5,-370.35"/>
</g>
<!-- :desktop:app -->
<g id="node3" class="node">
<title>:desktop:app</title>
<ellipse fill="#9affb5" stroke="black" cx="341.69" cy="-612" rx="70.39" ry="18"/>
<text text-anchor="middle" x="341.69" y="-608.3" font-family="Times,serif" font-size="14.00">:desktop:app</text>
</g>
<!-- :desktop:app&#45;&gt;:ui:common -->
<g id="edge2" class="edge">
<title>:desktop:app&#45;&gt;:ui:common</title>
<path fill="none" stroke="black" stroke-dasharray="1,5" d="M271.29,-612C178.8,-612 28,-612 28,-612 28,-612 28,-370.13 28,-370.13"/>
<polygon fill="black" stroke="black" points="31.5,-370.13 28,-360.13 24.5,-370.13 31.5,-370.13"/>
</g>
<!-- :android:app -->
<g id="node4" class="node">
<title>:android:app</title>
<ellipse fill="#9affb5" stroke="black" cx="341.69" cy="-558" rx="69.59" ry="18"/>
<text text-anchor="middle" x="341.69" y="-554.3" font-family="Times,serif" font-size="14.00">:android:app</text>
</g>
<!-- :android:app&#45;&gt;:ui:common -->
<g id="edge3" class="edge">
<title>:android:app&#45;&gt;:ui:common</title>
<path fill="none" stroke="black" stroke-dasharray="1,5" d="M271.8,-558C183.25,-558 42,-558 42,-558 42,-558 42,-370.04 42,-370.04"/>
<polygon fill="black" stroke="black" points="45.5,-370.04 42,-360.04 38.5,-370.04 45.5,-370.04"/>
</g>
<!-- :shared:feature:settings -->
<g id="node5" class="node">
<title>:shared:feature:settings</title>
<ellipse fill="#b59aff" stroke="black" cx="341.69" cy="-504" rx="122.38" ry="18"/>
<text text-anchor="middle" x="341.69" y="-500.3" font-family="Times,serif" font-size="14.00">:shared:feature:settings</text>
</g>
<!-- :shared:feature:settings&#45;&gt;:ui:common -->
<g id="edge4" class="edge">
<title>:shared:feature:settings&#45;&gt;:ui:common</title>
<path fill="none" stroke="black" stroke-dasharray="1,5" d="M219.29,-504C141.75,-504 56,-504 56,-504 56,-504 56,-370.27 56,-370.27"/>
<polygon fill="black" stroke="black" points="59.5,-370.27 56,-360.27 52.5,-370.27 59.5,-370.27"/>
</g>
<!-- :shared:feature:images -->
<g id="node6" class="node">
<title>:shared:feature:images</title>
<ellipse fill="#b59aff" stroke="black" cx="341.69" cy="-450" rx="118.08" ry="18"/>
<text text-anchor="middle" x="341.69" y="-446.3" font-family="Times,serif" font-size="14.00">:shared:feature:images</text>
</g>
<!-- :shared:feature:images&#45;&gt;:ui:common -->
<g id="edge5" class="edge">
<title>:shared:feature:images&#45;&gt;:ui:common</title>
<path fill="none" stroke="black" stroke-dasharray="1,5" d="M223.31,-450C150.1,-450 70,-450 70,-450 70,-450 70,-370.32 70,-370.32"/>
<polygon fill="black" stroke="black" points="73.5,-370.32 70,-360.32 66.5,-370.32 73.5,-370.32"/>
</g>
<!-- :shared:feature:licenses -->
<g id="node7" class="node">
<title>:shared:feature:licenses</title>
<ellipse fill="#b59aff" stroke="black" cx="341.69" cy="-396" rx="122.38" ry="18"/>
<text text-anchor="middle" x="341.69" y="-392.3" font-family="Times,serif" font-size="14.00">:shared:feature:licenses</text>
</g>
<!-- :shared:feature:licenses&#45;&gt;:ui:common -->
<g id="edge6" class="edge">
<title>:shared:feature:licenses&#45;&gt;:ui:common</title>
<path fill="none" stroke="black" stroke-dasharray="1,5" d="M219.26,-396C152.77,-396 84,-396 84,-396 84,-396 84,-370.28 84,-370.28"/>
<polygon fill="black" stroke="black" points="87.5,-370.28 84,-360.28 80.5,-370.28 87.5,-370.28"/>
</g>
<!-- :shared:feature:search -->
<g id="node8" class="node">
<title>:shared:feature:search</title>
<ellipse fill="#b59aff" stroke="black" cx="341.69" cy="-342" rx="115.88" ry="18"/>
<text text-anchor="middle" x="341.69" y="-338.3" font-family="Times,serif" font-size="14.00">:shared:feature:search</text>
</g>
<!-- :shared:feature:search&#45;&gt;:ui:common -->
<g id="edge7" class="edge">
<title>:shared:feature:search&#45;&gt;:ui:common</title>
<path fill="none" stroke="black" stroke-dasharray="1,5" d="M241.13,-351C241.13,-351 109.34,-351 109.34,-351"/>
<polygon fill="black" stroke="black" points="109.34,-347.5 99.34,-351 109.34,-354.5 109.34,-347.5"/>
</g>
<!-- :shared:feature:collections -->
<g id="node9" class="node">
<title>:shared:feature:collections</title>
<ellipse fill="#b59aff" stroke="black" cx="341.69" cy="-288" rx="133.78" ry="18"/>
<text text-anchor="middle" x="341.69" y="-284.3" font-family="Times,serif" font-size="14.00">:shared:feature:collections</text>
</g>
<!-- :shared:feature:collections&#45;&gt;:ui:common -->
<g id="edge8" class="edge">
<title>:shared:feature:collections&#45;&gt;:ui:common</title>
<path fill="none" stroke="black" stroke-dasharray="1,5" d="M213,-292.98C213,-306.35 213,-342 213,-342 213,-342 109.44,-342 109.44,-342"/>
<polygon fill="black" stroke="black" points="109.44,-338.5 99.44,-342 109.44,-345.5 109.44,-338.5"/>
</g>
<!-- :shared:feature:stats -->
<g id="node10" class="node">
<title>:shared:feature:stats</title>
<ellipse fill="#b59aff" stroke="black" cx="341.69" cy="-234" rx="107.78" ry="18"/>
<text text-anchor="middle" x="341.69" y="-230.3" font-family="Times,serif" font-size="14.00">:shared:feature:stats</text>
</g>
<!-- :shared:feature:stats&#45;&gt;:ui:common -->
<g id="edge9" class="edge">
<title>:shared:feature:stats&#45;&gt;:ui:common</title>
<path fill="none" stroke="black" stroke-dasharray="1,5" d="M233.71,-234C161.25,-234 79,-234 79,-234 79,-234 79,-313.68 79,-313.68"/>
<polygon fill="black" stroke="black" points="75.5,-313.68 79,-323.68 82.5,-313.68 75.5,-313.68"/>
</g>
<!-- :shared:feature:details -->
<g id="node11" class="node">
<title>:shared:feature:details</title>
<ellipse fill="#b59aff" stroke="black" cx="341.69" cy="-180" rx="116.18" ry="18"/>
<text text-anchor="middle" x="341.69" y="-176.3" font-family="Times,serif" font-size="14.00">:shared:feature:details</text>
</g>
<!-- :shared:feature:details&#45;&gt;:ui:common -->
<g id="edge10" class="edge">
<title>:shared:feature:details&#45;&gt;:ui:common</title>
<path fill="none" stroke="black" stroke-dasharray="1,5" d="M225.08,-180C147.21,-180 59,-180 59,-180 59,-180 59,-313.73 59,-313.73"/>
<polygon fill="black" stroke="black" points="55.5,-313.73 59,-323.73 62.5,-313.73 55.5,-313.73"/>
</g>
<!-- :shared:feature:history -->
<g id="node12" class="node">
<title>:shared:feature:history</title>
<ellipse fill="#b59aff" stroke="black" cx="341.69" cy="-126" rx="117.78" ry="18"/>
<text text-anchor="middle" x="341.69" y="-122.3" font-family="Times,serif" font-size="14.00">:shared:feature:history</text>
</g>
<!-- :shared:feature:history&#45;&gt;:ui:common -->
<g id="edge11" class="edge">
<title>:shared:feature:history&#45;&gt;:ui:common</title>
<path fill="none" stroke="black" stroke-dasharray="1,5" d="M223.79,-126C138.8,-126 39,-126 39,-126 39,-126 39,-313.96 39,-313.96"/>
<polygon fill="black" stroke="black" points="35.5,-313.96 39,-323.96 42.5,-313.96 35.5,-313.96"/>
</g>
<!-- :android:feature:nowplaying -->
<g id="node13" class="node">
<title>:android:feature:nowplaying</title>
<ellipse fill="#9affb5" stroke="black" cx="341.69" cy="-72" rx="141.88" ry="18"/>
<text text-anchor="middle" x="341.69" y="-68.3" font-family="Times,serif" font-size="14.00">:android:feature:nowplaying</text>
</g>
<!-- :android:feature:nowplaying&#45;&gt;:ui:common -->
<g id="edge12" class="edge">
<title>:android:feature:nowplaying&#45;&gt;:ui:common</title>
<path fill="none" stroke="black" stroke-dasharray="1,5" d="M203,-75.69C203,-107.41 203,-333 203,-333 203,-333 109.34,-333 109.34,-333"/>
<polygon fill="black" stroke="black" points="109.34,-329.5 99.34,-333 109.34,-336.5 109.34,-329.5"/>
</g>
<!-- :android:feature:spotify -->
<g id="node14" class="node">
<title>:android:feature:spotify</title>
<ellipse fill="#9affb5" stroke="black" cx="341.69" cy="-18" rx="120.48" ry="18"/>
<text text-anchor="middle" x="341.69" y="-14.3" font-family="Times,serif" font-size="14.00">:android:feature:spotify</text>
</g>
<!-- :android:feature:spotify&#45;&gt;:ui:common -->
<g id="edge13" class="edge">
<title>:android:feature:spotify&#45;&gt;:ui:common</title>
<path fill="none" stroke="black" stroke-dasharray="1,5" d="M221.07,-18C129.42,-18 19,-18 19,-18 19,-18 19,-313.65 19,-313.65"/>
<polygon fill="black" stroke="black" points="15.5,-313.65 19,-323.65 22.5,-313.65 15.5,-313.65"/>
</g>
</g>
</svg>
