<?xml version="1.0" encoding="UTF-8" standalone="no"?>
<!DOCTYPE svg PUBLIC "-//W3C//DTD SVG 1.1//EN"
 "http://www.w3.org/Graphics/SVG/1.1/DTD/svg11.dtd">
<!-- Generated by graphviz version 2.43.0 (0)
 -->
<!-- Title: %3 Pages: 1 -->
<svg width="792pt" height="529pt"
 viewBox="0.00 0.00 792.23 529.00" xmlns="http://www.w3.org/2000/svg" xmlns:xlink="http://www.w3.org/1999/xlink">
<g id="graph0" class="graph" transform="scale(1 1) rotate(0) translate(4 525)">
<title>%3</title>
<polygon fill="white" stroke="transparent" points="-4,4 -4,-525 788.23,-525 788.23,4 -4,4"/>
<text text-anchor="middle" x="392.12" y="-493" font-family="Times,serif" font-size="30.00">Dependencies</text>
<text text-anchor="middle" x="392.12" y="-460" font-family="Times,serif" font-size="30.00"> </text>
<!-- :ui:common -->
<g id="node1" class="node">
<title>:ui:common</title>
<polygon fill="#b59aff" stroke="black" points="435.34,-447 336.34,-447 336.34,-411 435.34,-411 435.34,-447"/>
<text text-anchor="middle" x="385.84" y="-425.3" font-family="Times,serif" font-size="14.00">:ui:common</text>
</g>
<!-- :ui:test:screenshot -->
<g id="node2" class="node">
<title>:ui:test:screenshot</title>
<ellipse fill="#9affb5" stroke="black" cx="96.84" cy="-292" rx="96.68" ry="18"/>
<text text-anchor="middle" x="96.84" y="-288.3" font-family="Times,serif" font-size="14.00">:ui:test:screenshot</text>
</g>
<!-- :ui:common&#45;&gt;:ui:test:screenshot -->
<g id="edge1" class="edge">
<title>:ui:common&#45;&gt;:ui:test:screenshot</title>
<path fill="none" stroke="#ff9ab1" stroke-dasharray="1,5" d="M336.16,-435C253.53,-435 96.84,-435 96.84,-435 96.84,-435 96.84,-320.11 96.84,-320.11"/>
<polygon fill="#ff9ab1" stroke="#ff9ab1" points="100.34,-320.11 96.84,-310.11 93.34,-320.11 100.34,-320.11"/>
</g>
<!-- :shared:domain -->
<g id="node3" class="node">
<title>:shared:domain</title>
<ellipse fill="#b59aff" stroke="black" cx="445.84" cy="-155" rx="82.59" ry="18"/>
<text text-anchor="middle" x="445.84" y="-151.3" font-family="Times,serif" font-size="14.00">:shared:domain</text>
</g>
<!-- :ui:common&#45;&gt;:shared:domain -->
<g id="edge2" class="edge">
<title>:ui:common&#45;&gt;:shared:domain</title>
<path fill="none" stroke="black" d="M397.27,-410.6C397.27,-410.6 397.27,-179.56 397.27,-179.56"/>
<polygon fill="black" stroke="black" points="400.77,-179.56 397.27,-169.56 393.77,-179.56 400.77,-179.56"/>
</g>
<!-- :ui:core -->
<g id="node4" class="node">
<title>:ui:core</title>
<ellipse fill="#b59aff" stroke="black" cx="222.84" cy="-155" rx="45.49" ry="18"/>
<text text-anchor="middle" x="222.84" y="-151.3" font-family="Times,serif" font-size="14.00">:ui:core</text>
</g>
<!-- :ui:common&#45;&gt;:ui:core -->
<g id="edge3" class="edge">
<title>:ui:common&#45;&gt;:ui:core</title>
<path fill="none" stroke="black" d="M336.18,-423C287.89,-423 221.79,-423 221.79,-423 221.79,-423 221.79,-183 221.79,-183"/>
<polygon fill="black" stroke="black" points="225.29,-183 221.79,-173 218.29,-183 225.29,-183"/>
</g>
<!-- :data:coverart -->
<g id="node5" class="node">
<title>:data:coverart</title>
<ellipse fill="#b59aff" stroke="black" cx="695.84" cy="-292" rx="76.09" ry="18"/>
<text text-anchor="middle" x="695.84" y="-288.3" font-family="Times,serif" font-size="14.00">:data:coverart</text>
</g>
<!-- :ui:common&#45;&gt;:data:coverart -->
<g id="edge4" class="edge">
<title>:ui:common&#45;&gt;:data:coverart</title>
<path fill="none" stroke="black" stroke-dasharray="1,5" d="M435.65,-435C523.28,-435 695.84,-435 695.84,-435 695.84,-435 695.84,-320.11 695.84,-320.11"/>
<polygon fill="black" stroke="black" points="699.34,-320.11 695.84,-310.11 692.34,-320.11 699.34,-320.11"/>
</g>
<!-- :data:musicbrainz -->
<g id="node6" class="node">
<title>:data:musicbrainz</title>
<ellipse fill="#b59aff" stroke="black" cx="507.84" cy="-292" rx="93.68" ry="18"/>
<text text-anchor="middle" x="507.84" y="-288.3" font-family="Times,serif" font-size="14.00">:data:musicbrainz</text>
</g>
<!-- :ui:common&#45;&gt;:data:musicbrainz -->
<g id="edge5" class="edge">
<title>:ui:common&#45;&gt;:data:musicbrainz</title>
<path fill="none" stroke="black" stroke-dasharray="1,5" d="M424.8,-410.81C424.8,-410.81 424.8,-310.39 424.8,-310.39"/>
<polygon fill="black" stroke="black" points="428.3,-310.39 424.8,-300.39 421.3,-310.39 428.3,-310.39"/>
</g>
<!-- :core:logging:api -->
<g id="node7" class="node">
<title>:core:logging:api</title>
<ellipse fill="#b59aff" stroke="black" cx="695.84" cy="-155" rx="88.28" ry="18"/>
<text text-anchor="middle" x="695.84" y="-151.3" font-family="Times,serif" font-size="14.00">:core:logging:api</text>
</g>
<!-- :ui:common&#45;&gt;:core:logging:api -->
<g id="edge6" class="edge">
<title>:ui:common&#45;&gt;:core:logging:api</title>
<path fill="none" stroke="black" stroke-dasharray="1,5" d="M435.43,-423C503,-423 615.68,-423 615.68,-423 615.68,-423 615.68,-172.73 615.68,-172.73"/>
<polygon fill="black" stroke="black" points="619.18,-172.73 615.68,-162.73 612.18,-172.73 619.18,-172.73"/>
</g>
<!-- :ui:image -->
<g id="node8" class="node">
<title>:ui:image</title>
<ellipse fill="#b59aff" stroke="black" cx="303.84" cy="-292" rx="53.89" ry="18"/>
<text text-anchor="middle" x="303.84" y="-288.3" font-family="Times,serif" font-size="14.00">:ui:image</text>
</g>
<!-- :ui:common&#45;&gt;:ui:image -->
<g id="edge7" class="edge">
<title>:ui:common&#45;&gt;:ui:image</title>
<path fill="none" stroke="black" stroke-dasharray="1,5" d="M347.06,-410.81C347.06,-410.81 347.06,-313.09 347.06,-313.09"/>
<polygon fill="black" stroke="black" points="350.56,-313.09 347.06,-303.09 343.56,-313.09 350.56,-313.09"/>
</g>
<!-- :ui:test:screenshot&#45;&gt;:ui:core -->
<g id="edge8" class="edge">
<title>:ui:test:screenshot&#45;&gt;:ui:core</title>
<path fill="none" stroke="black" stroke-dasharray="1,5" d="M185.51,-284.63C185.51,-284.63 185.51,-175.67 185.51,-175.67"/>
<polygon fill="black" stroke="black" points="189.01,-175.67 185.51,-165.67 182.01,-175.67 189.01,-175.67"/>
</g>
<!-- :test:image -->
<g id="node9" class="node">
<title>:test:image</title>
<ellipse fill="#9affb5" stroke="black" cx="95.84" cy="-155" rx="63.09" ry="18"/>
<text text-anchor="middle" x="95.84" y="-151.3" font-family="Times,serif" font-size="14.00">:test:image</text>
</g>
<!-- :ui:test:screenshot&#45;&gt;:test:image -->
<g id="edge9" class="edge">
<title>:ui:test:screenshot&#45;&gt;:test:image</title>
<path fill="none" stroke="black" stroke-dasharray="1,5" d="M95.84,-273.81C95.84,-273.81 95.84,-183.27 95.84,-183.27"/>
<polygon fill="black" stroke="black" points="99.34,-183.27 95.84,-173.27 92.34,-183.27 99.34,-183.27"/>
</g>
<!-- :shared:strings -->
<g id="node10" class="node">
<title>:shared:strings</title>
<ellipse fill="#b59aff" stroke="black" cx="222.84" cy="-18" rx="81.49" ry="18"/>
<text text-anchor="middle" x="222.84" y="-14.3" font-family="Times,serif" font-size="14.00">:shared:strings</text>
</g>
<!-- :ui:core&#45;&gt;:shared:strings -->
<g id="edge10" class="edge">
<title>:ui:core&#45;&gt;:shared:strings</title>
<path fill="none" stroke="black" d="M222.84,-136.81C222.84,-136.81 222.84,-46.27 222.84,-46.27"/>
<polygon fill="black" stroke="black" points="226.34,-46.27 222.84,-36.27 219.34,-46.27 226.34,-46.27"/>
</g>
<!-- :data:coverart&#45;&gt;:shared:domain -->
<g id="edge11" class="edge">
<title>:data:coverart&#45;&gt;:shared:domain</title>
<path fill="none" stroke="black" stroke-dasharray="1,5" d="M670.49,-274.94C670.49,-254.51 670.49,-223 670.49,-223 670.49,-223 490.34,-223 490.34,-223 490.34,-223 490.34,-180.43 490.34,-180.43"/>
<polygon fill="black" stroke="black" points="493.84,-180.43 490.34,-170.43 486.84,-180.43 493.84,-180.43"/>
</g>
<!-- :data:coverart&#45;&gt;:core:logging:api -->
<g id="edge12" class="edge">
<title>:data:coverart&#45;&gt;:core:logging:api</title>
<path fill="none" stroke="black" stroke-dasharray="1,5" d="M721.19,-274.93C721.19,-274.93 721.19,-182.29 721.19,-182.29"/>
<polygon fill="black" stroke="black" points="724.69,-182.29 721.19,-172.29 717.69,-182.29 724.69,-182.29"/>
</g>
<!-- :data:musicbrainz&#45;&gt;:shared:domain -->
<g id="edge13" class="edge">
<title>:data:musicbrainz&#45;&gt;:shared:domain</title>
<path fill="none" stroke="black" stroke-dasharray="1,5" d="M452.29,-277.34C452.29,-277.34 452.29,-183.01 452.29,-183.01"/>
<polygon fill="black" stroke="black" points="455.79,-183.01 452.29,-173.01 448.79,-183.01 455.79,-183.01"/>
</g>
<!-- :data:musicbrainz&#45;&gt;:core:logging:api -->
<g id="edge14" class="edge">
<title>:data:musicbrainz&#45;&gt;:core:logging:api</title>
<path fill="none" stroke="black" stroke-dasharray="1,5" d="M601.62,-292C607.77,-292 611.57,-292 611.57,-292 611.57,-292 611.57,-170.54 611.57,-170.54"/>
<polygon fill="black" stroke="black" points="615.07,-170.54 611.57,-160.54 608.07,-170.54 615.07,-170.54"/>
</g>
<!-- :ui:image&#45;&gt;:shared:domain -->
<g id="edge15" class="edge">
<title>:ui:image&#45;&gt;:shared:domain</title>
<path fill="none" stroke="black" stroke-dasharray="1,5" d="M358.17,-292C370.62,-292 380.28,-292 380.28,-292 380.28,-292 380.28,-176.21 380.28,-176.21"/>
<polygon fill="black" stroke="black" points="383.78,-176.21 380.28,-166.21 376.78,-176.21 383.78,-176.21"/>
</g>
<!-- :ui:image&#45;&gt;:ui:core -->
<g id="edge16" class="edge">
<title>:ui:image&#45;&gt;:ui:core</title>
<path fill="none" stroke="black" stroke-dasharray="1,5" d="M259.12,-281.7C259.12,-281.7 259.12,-176.18 259.12,-176.18"/>
<polygon fill="black" stroke="black" points="262.62,-176.18 259.12,-166.18 255.62,-176.18 262.62,-176.18"/>
</g>
</g>
</svg>
