<?xml version="1.0" encoding="UTF-8" standalone="no"?>
<!DOCTYPE svg PUBLIC "-//W3C//DTD SVG 1.1//EN"
 "http://www.w3.org/Graphics/SVG/1.1/DTD/svg11.dtd">
<!-- Generated by graphviz version 2.43.0 (0)
 -->
<!-- Title: %3 Pages: 1 -->
<svg width="491pt" height="820pt"
 viewBox="0.00 0.00 491.37 820.00" xmlns="http://www.w3.org/2000/svg" xmlns:xlink="http://www.w3.org/1999/xlink">
<g id="graph0" class="graph" transform="scale(1 1) rotate(0) translate(4 816)">
<title>%3</title>
<polygon fill="white" stroke="transparent" points="-4,4 -4,-816 487.37,-816 487.37,4 -4,4"/>
<text text-anchor="middle" x="241.69" y="-784" font-family="Times,serif" font-size="30.00">Dependents</text>
<text text-anchor="middle" x="241.69" y="-751" font-family="Times,serif" font-size="30.00"> </text>
<!-- :ui:common -->
<g id="node1" class="node">
<title>:ui:common</title>
<polygon fill="#b59aff" stroke="black" points="99,-387 0,-387 0,-351 99,-351 99,-387"/>
<text text-anchor="middle" x="49.5" y="-365.3" font-family="Times,serif" font-size="14.00">:ui:common</text>
</g>
<!-- :shared -->
<g id="node2" class="node">
<title>:shared</title>
<ellipse fill="#b59aff" stroke="black" cx="341.69" cy="-720" rx="45.49" ry="18"/>
<text text-anchor="middle" x="341.69" y="-716.3" font-family="Times,serif" font-size="14.00">:shared</text>
</g>
<!-- :shared&#45;&gt;:ui:common -->
<g id="edge1" class="edge">
<title>:shared&#45;&gt;:ui:common</title>
<path fill="none" stroke="black" stroke-dasharray="1,5" d="M296.12,-720C206.08,-720 14,-720 14,-720 14,-720 14,-397.38 14,-397.38"/>
<polygon fill="black" stroke="black" points="17.5,-397.38 14,-387.38 10.5,-397.38 17.5,-397.38"/>
</g>
<!-- :desktop:app -->
<g id="node3" class="node">
<title>:desktop:app</title>
<ellipse fill="#9affb5" stroke="black" cx="341.69" cy="-666" rx="70.39" ry="18"/>
<text text-anchor="middle" x="341.69" y="-662.3" font-family="Times,serif" font-size="14.00">:desktop:app</text>
</g>
<!-- :desktop:app&#45;&gt;:ui:common -->
<g id="edge2" class="edge">
<title>:desktop:app&#45;&gt;:ui:common</title>
<path fill="none" stroke="black" stroke-dasharray="1,5" d="M271.29,-666C178.8,-666 28,-666 28,-666 28,-666 28,-397.13 28,-397.13"/>
<polygon fill="black" stroke="black" points="31.5,-397.13 28,-387.13 24.5,-397.13 31.5,-397.13"/>
</g>
<!-- :android:app -->
<g id="node4" class="node">
<title>:android:app</title>
<ellipse fill="#9affb5" stroke="black" cx="341.69" cy="-612" rx="69.59" ry="18"/>
<text text-anchor="middle" x="341.69" y="-608.3" font-family="Times,serif" font-size="14.00">:android:app</text>
</g>
<!-- :android:app&#45;&gt;:ui:common -->
<g id="edge3" class="edge">
<title>:android:app&#45;&gt;:ui:common</title>
<path fill="none" stroke="black" stroke-dasharray="1,5" d="M271.8,-612C183.25,-612 42,-612 42,-612 42,-612 42,-397.26 42,-397.26"/>
<polygon fill="black" stroke="black" points="45.5,-397.26 42,-387.26 38.5,-397.26 45.5,-397.26"/>
</g>
<!-- :shared:feature:settings -->
<g id="node5" class="node">
<title>:shared:feature:settings</title>
<ellipse fill="#b59aff" stroke="black" cx="341.69" cy="-558" rx="122.38" ry="18"/>
<text text-anchor="middle" x="341.69" y="-554.3" font-family="Times,serif" font-size="14.00">:shared:feature:settings</text>
</g>
<!-- :shared:feature:settings&#45;&gt;:ui:common -->
<g id="edge4" class="edge">
<title>:shared:feature:settings&#45;&gt;:ui:common</title>
<path fill="none" stroke="black" stroke-dasharray="1,5" d="M219.29,-558C141.75,-558 56,-558 56,-558 56,-558 56,-397.12 56,-397.12"/>
<polygon fill="black" stroke="black" points="59.5,-397.12 56,-387.12 52.5,-397.12 59.5,-397.12"/>
</g>
<!-- :shared:feature:images -->
<g id="node6" class="node">
<title>:shared:feature:images</title>
<ellipse fill="#b59aff" stroke="black" cx="341.69" cy="-504" rx="118.08" ry="18"/>
<text text-anchor="middle" x="341.69" y="-500.3" font-family="Times,serif" font-size="14.00">:shared:feature:images</text>
</g>
<!-- :shared:feature:images&#45;&gt;:ui:common -->
<g id="edge5" class="edge">
<title>:shared:feature:images&#45;&gt;:ui:common</title>
<path fill="none" stroke="black" stroke-dasharray="1,5" d="M223.31,-504C150.1,-504 70,-504 70,-504 70,-504 70,-397.21 70,-397.21"/>
<polygon fill="black" stroke="black" points="73.5,-397.21 70,-387.21 66.5,-397.21 73.5,-397.21"/>
</g>
<!-- :shared:feature:licenses -->
<g id="node7" class="node">
<title>:shared:feature:licenses</title>
<ellipse fill="#b59aff" stroke="black" cx="341.69" cy="-450" rx="122.38" ry="18"/>
<text text-anchor="middle" x="341.69" y="-446.3" font-family="Times,serif" font-size="14.00">:shared:feature:licenses</text>
</g>
<!-- :shared:feature:licenses&#45;&gt;:ui:common -->
<g id="edge6" class="edge">
<title>:shared:feature:licenses&#45;&gt;:ui:common</title>
<path fill="none" stroke="black" stroke-dasharray="1,5" d="M219.26,-450C152.77,-450 84,-450 84,-450 84,-450 84,-397.38 84,-397.38"/>
<polygon fill="black" stroke="black" points="87.5,-397.38 84,-387.38 80.5,-397.38 87.5,-397.38"/>
</g>
<!-- :shared:feature:search -->
<g id="node8" class="node">
<title>:shared:feature:search</title>
<ellipse fill="#b59aff" stroke="black" cx="341.69" cy="-396" rx="115.88" ry="18"/>
<text text-anchor="middle" x="341.69" y="-392.3" font-family="Times,serif" font-size="14.00">:shared:feature:search</text>
</g>
<!-- :shared:feature:search&#45;&gt;:ui:common -->
<g id="edge7" class="edge">
<title>:shared:feature:search&#45;&gt;:ui:common</title>
<path fill="none" stroke="black" stroke-dasharray="1,5" d="M264.92,-382.5C264.92,-382.5 109.16,-382.5 109.16,-382.5"/>
<polygon fill="black" stroke="black" points="109.16,-379 99.16,-382.5 109.16,-386 109.16,-379"/>
</g>
<!-- :shared:feature:collections -->
<g id="node9" class="node">
<title>:shared:feature:collections</title>
<ellipse fill="#b59aff" stroke="black" cx="341.69" cy="-342" rx="133.78" ry="18"/>
<text text-anchor="middle" x="341.69" y="-338.3" font-family="Times,serif" font-size="14.00">:shared:feature:collections</text>
</g>
<!-- :shared:feature:collections&#45;&gt;:ui:common -->
<g id="edge8" class="edge">
<title>:shared:feature:collections&#45;&gt;:ui:common</title>
<path fill="none" stroke="black" stroke-dasharray="1,5" d="M267.58,-357C267.58,-357 109.18,-357 109.18,-357"/>
<polygon fill="black" stroke="black" points="109.18,-353.5 99.18,-357 109.18,-360.5 109.18,-353.5"/>
</g>
<!-- :shared:feature:stats -->
<g id="node10" class="node">
<title>:shared:feature:stats</title>
<ellipse fill="#b59aff" stroke="black" cx="341.69" cy="-288" rx="107.78" ry="18"/>
<text text-anchor="middle" x="341.69" y="-284.3" font-family="Times,serif" font-size="14.00">:shared:feature:stats</text>
</g>
<!-- :shared:feature:stats&#45;&gt;:ui:common -->
<g id="edge9" class="edge">
<title>:shared:feature:stats&#45;&gt;:ui:common</title>
<path fill="none" stroke="black" stroke-dasharray="1,5" d="M233.44,-288C162.18,-288 82,-288 82,-288 82,-288 82,-340.62 82,-340.62"/>
<polygon fill="black" stroke="black" points="78.5,-340.62 82,-350.62 85.5,-340.62 78.5,-340.62"/>
</g>
<!-- :shared:feature:details -->
<g id="node11" class="node">
<title>:shared:feature:details</title>
<ellipse fill="#b59aff" stroke="black" cx="341.69" cy="-234" rx="116.18" ry="18"/>
<text text-anchor="middle" x="341.69" y="-230.3" font-family="Times,serif" font-size="14.00">:shared:feature:details</text>
</g>
<!-- :shared:feature:details&#45;&gt;:ui:common -->
<g id="edge10" class="edge">
<title>:shared:feature:details&#45;&gt;:ui:common</title>
<path fill="none" stroke="black" stroke-dasharray="1,5" d="M225.17,-234C149.93,-234 66,-234 66,-234 66,-234 66,-340.79 66,-340.79"/>
<polygon fill="black" stroke="black" points="62.5,-340.79 66,-350.79 69.5,-340.79 62.5,-340.79"/>
</g>
<!-- :shared:feature:history -->
<g id="node12" class="node">
<title>:shared:feature:history</title>
<ellipse fill="#b59aff" stroke="black" cx="341.69" cy="-180" rx="117.78" ry="18"/>
<text text-anchor="middle" x="341.69" y="-176.3" font-family="Times,serif" font-size="14.00">:shared:feature:history</text>
</g>
<!-- :shared:feature:history&#45;&gt;:ui:common -->
<g id="edge11" class="edge">
<title>:shared:feature:history&#45;&gt;:ui:common</title>
<path fill="none" stroke="black" stroke-dasharray="1,5" d="M223.91,-180C142.58,-180 49,-180 49,-180 49,-180 49,-340.88 49,-340.88"/>
<polygon fill="black" stroke="black" points="45.5,-340.88 49,-350.88 52.5,-340.88 45.5,-340.88"/>
</g>
<!-- :shared:feature:graph -->
<g id="node13" class="node">
<title>:shared:feature:graph</title>
<ellipse fill="#b59aff" stroke="black" cx="341.69" cy="-126" rx="112.38" ry="18"/>
<text text-anchor="middle" x="341.69" y="-122.3" font-family="Times,serif" font-size="14.00">:shared:feature:graph</text>
</g>
<!-- :shared:feature:graph&#45;&gt;:ui:common -->
<g id="edge12" class="edge">
<title>:shared:feature:graph&#45;&gt;:ui:common</title>
<path fill="none" stroke="black" stroke-dasharray="1,5" d="M228.93,-126C140.75,-126 33,-126 33,-126 33,-126 33,-340.74 33,-340.74"/>
<polygon fill="black" stroke="black" points="29.5,-340.74 33,-350.74 36.5,-340.74 29.5,-340.74"/>
</g>
<!-- :android:feature:nowplaying -->
<g id="node14" class="node">
<title>:android:feature:nowplaying</title>
<ellipse fill="#9affb5" stroke="black" cx="341.69" cy="-72" rx="141.88" ry="18"/>
<text text-anchor="middle" x="341.69" y="-68.3" font-family="Times,serif" font-size="14.00">:android:feature:nowplaying</text>
</g>
<!-- :android:feature:nowplaying&#45;&gt;:ui:common -->
<g id="edge13" class="edge">
<title>:android:feature:nowplaying&#45;&gt;:ui:common</title>
<path fill="none" stroke="black" stroke-dasharray="1,5" d="M203,-75.99C203,-110.26 203,-354 203,-354 203,-354 109.34,-354 109.34,-354"/>
<polygon fill="black" stroke="black" points="109.34,-350.5 99.34,-354 109.34,-357.5 109.34,-350.5"/>
</g>
<!-- :android:feature:spotify -->
<g id="node15" class="node">
<title>:android:feature:spotify</title>
<ellipse fill="#9affb5" stroke="black" cx="341.69" cy="-18" rx="120.48" ry="18"/>
<text text-anchor="middle" x="341.69" y="-14.3" font-family="Times,serif" font-size="14.00">:android:feature:spotify</text>
</g>
<!-- :android:feature:spotify&#45;&gt;:ui:common -->
<g id="edge14" class="edge">
<title>:android:feature:spotify&#45;&gt;:ui:common</title>
<path fill="none" stroke="black" stroke-dasharray="1,5" d="M221.34,-18C128.56,-18 16,-18 16,-18 16,-18 16,-340.62 16,-340.62"/>
<polygon fill="black" stroke="black" points="12.5,-340.62 16,-350.62 19.5,-340.62 12.5,-340.62"/>
</g>
</g>
</svg>
