<?xml version="1.0" encoding="UTF-8" standalone="no"?>
<!DOCTYPE svg PUBLIC "-//W3C//DTD SVG 1.1//EN"
 "http://www.w3.org/Graphics/SVG/1.1/DTD/svg11.dtd">
<!-- Generated by graphviz version 2.43.0 (0)
 -->
<!-- Title: %3 Pages: 1 -->
<svg width="521pt" height="820pt"
 viewBox="0.00 0.00 521.06 820.00" xmlns="http://www.w3.org/2000/svg" xmlns:xlink="http://www.w3.org/1999/xlink">
<g id="graph0" class="graph" transform="scale(1 1) rotate(0) translate(4 816)">
<title>%3</title>
<polygon fill="white" stroke="transparent" points="-4,4 -4,-816 517.06,-816 517.06,4 -4,4"/>
<text text-anchor="middle" x="256.53" y="-784" font-family="Times,serif" font-size="30.00">Dependents</text>
<text text-anchor="middle" x="256.53" y="-751" font-family="Times,serif" font-size="30.00"> </text>
<!-- :ui:common -->
<g id="node1" class="node">
<title>:ui:common</title>
<ellipse fill="#b59aff" stroke="black" cx="64.34" cy="-369" rx="64.19" ry="18"/>
<text text-anchor="middle" x="64.34" y="-365.3" font-family="Times,serif" font-size="14.00">:ui:common</text>
</g>
<!-- :shared -->
<g id="node2" class="node">
<title>:shared</title>
<ellipse fill="#b59aff" stroke="black" cx="371.38" cy="-720" rx="45.49" ry="18"/>
<text text-anchor="middle" x="371.38" y="-716.3" font-family="Times,serif" font-size="14.00">:shared</text>
</g>
<!-- :shared&#45;&gt;:ui:common -->
<g id="edge1" class="edge">
<title>:shared&#45;&gt;:ui:common</title>
<path fill="none" stroke="black" stroke-dasharray="1,5" d="M325.54,-720C229.93,-720 18,-720 18,-720 18,-720 18,-391.49 18,-391.49"/>
<polygon fill="black" stroke="black" points="21.5,-391.49 18,-381.49 14.5,-391.49 21.5,-391.49"/>
</g>
<!-- :desktop:app -->
<g id="node3" class="node">
<title>:desktop:app</title>
<ellipse fill="#9affb5" stroke="black" cx="371.38" cy="-666" rx="70.39" ry="18"/>
<text text-anchor="middle" x="371.38" y="-662.3" font-family="Times,serif" font-size="14.00">:desktop:app</text>
</g>
<!-- :desktop:app&#45;&gt;:ui:common -->
<g id="edge2" class="edge">
<title>:desktop:app&#45;&gt;:ui:common</title>
<path fill="none" stroke="black" stroke-dasharray="1,5" d="M301.07,-666C202.73,-666 36,-666 36,-666 36,-666 36,-395.39 36,-395.39"/>
<polygon fill="black" stroke="black" points="39.5,-395.39 36,-385.39 32.5,-395.39 39.5,-395.39"/>
</g>
<!-- :android:app -->
<g id="node4" class="node">
<title>:android:app</title>
<ellipse fill="#9affb5" stroke="black" cx="371.38" cy="-612" rx="69.59" ry="18"/>
<text text-anchor="middle" x="371.38" y="-608.3" font-family="Times,serif" font-size="14.00">:android:app</text>
</g>
<!-- :android:app&#45;&gt;:ui:common -->
<g id="edge3" class="edge">
<title>:android:app&#45;&gt;:ui:common</title>
<path fill="none" stroke="black" stroke-dasharray="1,5" d="M301.55,-612C208.38,-612 55,-612 55,-612 55,-612 55,-396.87 55,-396.87"/>
<polygon fill="black" stroke="black" points="58.5,-396.87 55,-386.87 51.5,-396.87 58.5,-396.87"/>
</g>
<!-- :shared:feature:settings -->
<g id="node5" class="node">
<title>:shared:feature:settings</title>
<ellipse fill="#b59aff" stroke="black" cx="371.38" cy="-558" rx="122.38" ry="18"/>
<text text-anchor="middle" x="371.38" y="-554.3" font-family="Times,serif" font-size="14.00">:shared:feature:settings</text>
</g>
<!-- :shared:feature:settings&#45;&gt;:ui:common -->
<g id="edge4" class="edge">
<title>:shared:feature:settings&#45;&gt;:ui:common</title>
<path fill="none" stroke="black" stroke-dasharray="1,5" d="M249.15,-558C166.75,-558 73,-558 73,-558 73,-558 73,-397.12 73,-397.12"/>
<polygon fill="black" stroke="black" points="76.5,-397.12 73,-387.12 69.5,-397.12 76.5,-397.12"/>
</g>
<!-- :shared:feature:images -->
<g id="node6" class="node">
<title>:shared:feature:images</title>
<ellipse fill="#b59aff" stroke="black" cx="371.38" cy="-504" rx="118.08" ry="18"/>
<text text-anchor="middle" x="371.38" y="-500.3" font-family="Times,serif" font-size="14.00">:shared:feature:images</text>
</g>
<!-- :shared:feature:images&#45;&gt;:ui:common -->
<g id="edge5" class="edge">
<title>:shared:feature:images&#45;&gt;:ui:common</title>
<path fill="none" stroke="black" stroke-dasharray="1,5" d="M252.88,-504C176.36,-504 91,-504 91,-504 91,-504 91,-395.55 91,-395.55"/>
<polygon fill="black" stroke="black" points="94.5,-395.55 91,-385.55 87.5,-395.55 94.5,-395.55"/>
</g>
<!-- :shared:feature:licenses -->
<g id="node7" class="node">
<title>:shared:feature:licenses</title>
<ellipse fill="#b59aff" stroke="black" cx="371.38" cy="-450" rx="122.38" ry="18"/>
<text text-anchor="middle" x="371.38" y="-446.3" font-family="Times,serif" font-size="14.00">:shared:feature:licenses</text>
</g>
<!-- :shared:feature:licenses&#45;&gt;:ui:common -->
<g id="edge6" class="edge">
<title>:shared:feature:licenses&#45;&gt;:ui:common</title>
<path fill="none" stroke="black" stroke-dasharray="1,5" d="M249.11,-450C181.08,-450 110,-450 110,-450 110,-450 110,-392.01 110,-392.01"/>
<polygon fill="black" stroke="black" points="113.5,-392.01 110,-382.01 106.5,-392.01 113.5,-392.01"/>
</g>
<!-- :shared:feature:search -->
<g id="node8" class="node">
<title>:shared:feature:search</title>
<ellipse fill="#b59aff" stroke="black" cx="371.38" cy="-396" rx="115.88" ry="18"/>
<text text-anchor="middle" x="371.38" y="-392.3" font-family="Times,serif" font-size="14.00">:shared:feature:search</text>
</g>
<!-- :shared:feature:search&#45;&gt;:ui:common -->
<g id="edge7" class="edge">
<title>:shared:feature:search&#45;&gt;:ui:common</title>
<path fill="none" stroke="black" stroke-dasharray="1,5" d="M294.69,-382.5C294.69,-382.5 117,-382.5 117,-382.5"/>
<polygon fill="black" stroke="black" points="117,-379 107,-382.5 117,-386 117,-379"/>
</g>
<!-- :shared:feature:collections -->
<g id="node9" class="node">
<title>:shared:feature:collections</title>
<ellipse fill="#b59aff" stroke="black" cx="371.38" cy="-342" rx="133.78" ry="18"/>
<text text-anchor="middle" x="371.38" y="-338.3" font-family="Times,serif" font-size="14.00">:shared:feature:collections</text>
</g>
<!-- :shared:feature:collections&#45;&gt;:ui:common -->
<g id="edge8" class="edge">
<title>:shared:feature:collections&#45;&gt;:ui:common</title>
<path fill="none" stroke="black" stroke-dasharray="1,5" d="M297.05,-357C297.05,-357 122.63,-357 122.63,-357"/>
<polygon fill="black" stroke="black" points="122.63,-353.5 112.63,-357 122.63,-360.5 122.63,-353.5"/>
</g>
<!-- :shared:feature:stats -->
<g id="node10" class="node">
<title>:shared:feature:stats</title>
<ellipse fill="#b59aff" stroke="black" cx="371.38" cy="-288" rx="107.78" ry="18"/>
<text text-anchor="middle" x="371.38" y="-284.3" font-family="Times,serif" font-size="14.00">:shared:feature:stats</text>
</g>
<!-- :shared:feature:stats&#45;&gt;:ui:common -->
<g id="edge9" class="edge">
<title>:shared:feature:stats&#45;&gt;:ui:common</title>
<path fill="none" stroke="black" stroke-dasharray="1,5" d="M263.46,-288C190.36,-288 107,-288 107,-288 107,-288 107,-345.26 107,-345.26"/>
<polygon fill="black" stroke="black" points="103.5,-345.26 107,-355.26 110.5,-345.26 103.5,-345.26"/>
</g>
<!-- :shared:feature:details -->
<g id="node11" class="node">
<title>:shared:feature:details</title>
<ellipse fill="#b59aff" stroke="black" cx="371.38" cy="-234" rx="116.18" ry="18"/>
<text text-anchor="middle" x="371.38" y="-230.3" font-family="Times,serif" font-size="14.00">:shared:feature:details</text>
</g>
<!-- :shared:feature:details&#45;&gt;:ui:common -->
<g id="edge10" class="edge">
<title>:shared:feature:details&#45;&gt;:ui:common</title>
<path fill="none" stroke="black" stroke-dasharray="1,5" d="M254.9,-234C175.61,-234 85,-234 85,-234 85,-234 85,-341.9 85,-341.9"/>
<polygon fill="black" stroke="black" points="81.5,-341.9 85,-351.9 88.5,-341.9 81.5,-341.9"/>
</g>
<!-- :shared:feature:history -->
<g id="node12" class="node">
<title>:shared:feature:history</title>
<ellipse fill="#b59aff" stroke="black" cx="371.38" cy="-180" rx="117.78" ry="18"/>
<text text-anchor="middle" x="371.38" y="-176.3" font-family="Times,serif" font-size="14.00">:shared:feature:history</text>
</g>
<!-- :shared:feature:history&#45;&gt;:ui:common -->
<g id="edge11" class="edge">
<title>:shared:feature:history&#45;&gt;:ui:common</title>
<path fill="none" stroke="black" stroke-dasharray="1,5" d="M253.42,-180C166.73,-180 64,-180 64,-180 64,-180 64,-340.88 64,-340.88"/>
<polygon fill="black" stroke="black" points="60.5,-340.88 64,-350.88 67.5,-340.88 60.5,-340.88"/>
</g>
<!-- :shared:feature:graph -->
<g id="node13" class="node">
<title>:shared:feature:graph</title>
<ellipse fill="#b59aff" stroke="black" cx="371.38" cy="-126" rx="112.38" ry="18"/>
<text text-anchor="middle" x="371.38" y="-122.3" font-family="Times,serif" font-size="14.00">:shared:feature:graph</text>
</g>
<!-- :shared:feature:graph&#45;&gt;:ui:common -->
<g id="edge12" class="edge">
<title>:shared:feature:graph&#45;&gt;:ui:common</title>
<path fill="none" stroke="black" stroke-dasharray="1,5" d="M258.48,-126C163.14,-126 42,-126 42,-126 42,-126 42,-341.91 42,-341.91"/>
<polygon fill="black" stroke="black" points="38.5,-341.91 42,-351.91 45.5,-341.91 38.5,-341.91"/>
</g>
<!-- :android:feature:nowplaying -->
<g id="node14" class="node">
<title>:android:feature:nowplaying</title>
<ellipse fill="#9affb5" stroke="black" cx="371.38" cy="-72" rx="141.88" ry="18"/>
<text text-anchor="middle" x="371.38" y="-68.3" font-family="Times,serif" font-size="14.00">:android:feature:nowplaying</text>
</g>
<!-- :android:feature:nowplaying&#45;&gt;:ui:common -->
<g id="edge13" class="edge">
<title>:android:feature:nowplaying&#45;&gt;:ui:common</title>
<path fill="none" stroke="black" stroke-dasharray="1,5" d="M233,-75.99C233,-110.26 233,-354 233,-354 233,-354 110.11,-354 110.11,-354"/>
<polygon fill="black" stroke="black" points="110.11,-350.5 100.11,-354 110.11,-357.5 110.11,-350.5"/>
</g>
<!-- :android:feature:spotify -->
<g id="node15" class="node">
<title>:android:feature:spotify</title>
<ellipse fill="#9affb5" stroke="black" cx="371.38" cy="-18" rx="120.48" ry="18"/>
<text text-anchor="middle" x="371.38" y="-14.3" font-family="Times,serif" font-size="14.00">:android:feature:spotify</text>
</g>
<!-- :android:feature:spotify&#45;&gt;:ui:common -->
<g id="edge14" class="edge">
<title>:android:feature:spotify&#45;&gt;:ui:common</title>
<path fill="none" stroke="black" stroke-dasharray="1,5" d="M250.8,-18C149.45,-18 21,-18 21,-18 21,-18 21,-345.67 21,-345.67"/>
<polygon fill="black" stroke="black" points="17.5,-345.67 21,-355.67 24.5,-345.67 17.5,-345.67"/>
</g>
</g>
</svg>
