<?xml version="1.0" encoding="UTF-8" standalone="no"?>
<!DOCTYPE svg PUBLIC "-//W3C//DTD SVG 1.1//EN"
 "http://www.w3.org/Graphics/SVG/1.1/DTD/svg11.dtd">
<!-- Generated by graphviz version 2.43.0 (0)
 -->
<!-- Title: %3 Pages: 1 -->
<svg width="853pt" height="940pt"
 viewBox="0.00 0.00 853.09 940.00" xmlns="http://www.w3.org/2000/svg" xmlns:xlink="http://www.w3.org/1999/xlink">
<g id="graph0" class="graph" transform="scale(1 1) rotate(0) translate(4 936)">
<title>%3</title>
<polygon fill="white" stroke="transparent" points="-4,4 -4,-936 849.09,-936 849.09,4 -4,4"/>
<text text-anchor="middle" x="422.54" y="-904" font-family="Times,serif" font-size="30.00">Dependencies</text>
<text text-anchor="middle" x="422.54" y="-871" font-family="Times,serif" font-size="30.00"> </text>
<!-- :ui:common -->
<g id="node1" class="node">
<title>:ui:common</title>
<polygon fill="#b59aff" stroke="black" points="650.54,-858 551.54,-858 551.54,-822 650.54,-822 650.54,-858"/>
<text text-anchor="middle" x="601.04" y="-836.3" font-family="Times,serif" font-size="14.00">:ui:common</text>
</g>
<!-- :test&#45;data -->
<g id="node2" class="node">
<title>:test&#45;data</title>
<ellipse fill="#b59aff" stroke="black" cx="234.04" cy="-703" rx="55.49" ry="18"/>
<text text-anchor="middle" x="234.04" y="-699.3" font-family="Times,serif" font-size="14.00">:test&#45;data</text>
</g>
<!-- :ui:common&#45;&gt;:test&#45;data -->
<g id="edge1" class="edge">
<title>:ui:common&#45;&gt;:test&#45;data</title>
<path fill="none" stroke="#ff9ab1" stroke-dasharray="1,5" d="M566.04,-821.8C566.04,-786.69 566.04,-713 566.04,-713 566.04,-713 290.21,-713 290.21,-713"/>
<polygon fill="#ff9ab1" stroke="#ff9ab1" points="290.21,-709.5 280.21,-713 290.21,-716.5 290.21,-709.5"/>
</g>
<!-- :ui:test:screenshot -->
<g id="node3" class="node">
<title>:ui:test:screenshot</title>
<ellipse fill="#9affb5" stroke="black" cx="745.04" cy="-703" rx="96.68" ry="18"/>
<text text-anchor="middle" x="745.04" y="-699.3" font-family="Times,serif" font-size="14.00">:ui:test:screenshot</text>
</g>
<!-- :ui:common&#45;&gt;:ui:test:screenshot -->
<g id="edge2" class="edge">
<title>:ui:common&#45;&gt;:ui:test:screenshot</title>
<path fill="none" stroke="#ff9ab1" stroke-dasharray="1,5" d="M635.32,-821.85C635.32,-782.33 635.32,-692 635.32,-692 635.32,-692 658.24,-692 658.24,-692"/>
<polygon fill="#ff9ab1" stroke="#ff9ab1" points="658.24,-695.5 668.24,-692 658.24,-688.5 658.24,-695.5"/>
</g>
<!-- :core:coroutines -->
<g id="node4" class="node">
<title>:core:coroutines</title>
<ellipse fill="#b59aff" stroke="black" cx="149.04" cy="-18" rx="85.29" ry="18"/>
<text text-anchor="middle" x="149.04" y="-14.3" font-family="Times,serif" font-size="14.00">:core:coroutines</text>
</g>
<!-- :ui:common&#45;&gt;:core:coroutines -->
<g id="edge3" class="edge">
<title>:ui:common&#45;&gt;:core:coroutines</title>
<path fill="none" stroke="#ff9ab1" stroke-dasharray="1,5" d="M595.05,-821.94C595.05,-700.85 595.05,-12 595.05,-12 595.05,-12 239.55,-12 239.55,-12"/>
<polygon fill="#ff9ab1" stroke="#ff9ab1" points="239.55,-8.5 229.55,-12 239.55,-15.5 239.55,-8.5"/>
</g>
<!-- :shared:domain -->
<g id="node5" class="node">
<title>:shared:domain</title>
<ellipse fill="#b59aff" stroke="black" cx="447.04" cy="-155" rx="82.59" ry="18"/>
<text text-anchor="middle" x="447.04" y="-151.3" font-family="Times,serif" font-size="14.00">:shared:domain</text>
</g>
<!-- :ui:common&#45;&gt;:shared:domain -->
<g id="edge4" class="edge">
<title>:ui:common&#45;&gt;:shared:domain</title>
<path fill="none" stroke="black" d="M551.46,-840C536.58,-840 524.13,-840 524.13,-840 524.13,-840 524.13,-171.78 524.13,-171.78"/>
<polygon fill="black" stroke="black" points="527.63,-171.78 524.13,-161.78 520.63,-171.78 527.63,-171.78"/>
</g>
<!-- :ui:core -->
<g id="node6" class="node">
<title>:ui:core</title>
<ellipse fill="#b59aff" stroke="black" cx="655.04" cy="-566" rx="45.49" ry="18"/>
<text text-anchor="middle" x="655.04" y="-562.3" font-family="Times,serif" font-size="14.00">:ui:core</text>
</g>
<!-- :ui:common&#45;&gt;:ui:core -->
<g id="edge5" class="edge">
<title>:ui:common&#45;&gt;:ui:core</title>
<path fill="none" stroke="black" d="M622.43,-821.6C622.43,-821.6 622.43,-588.67 622.43,-588.67"/>
<polygon fill="black" stroke="black" points="625.93,-588.67 622.43,-578.67 618.93,-588.67 625.93,-588.67"/>
</g>
<!-- :core:logging:api -->
<g id="node7" class="node">
<title>:core:logging:api</title>
<ellipse fill="#b59aff" stroke="black" cx="149.04" cy="-155" rx="88.28" ry="18"/>
<text text-anchor="middle" x="149.04" y="-151.3" font-family="Times,serif" font-size="14.00">:core:logging:api</text>
</g>
<!-- :ui:common&#45;&gt;:core:logging:api -->
<g id="edge6" class="edge">
<title>:ui:common&#45;&gt;:core:logging:api</title>
<path fill="none" stroke="black" stroke-dasharray="1,5" d="M580.55,-821.87C580.55,-719.95 580.55,-223 580.55,-223 580.55,-223 190.44,-223 190.44,-223 190.44,-223 190.44,-181.12 190.44,-181.12"/>
<polygon fill="black" stroke="black" points="193.94,-181.12 190.44,-171.12 186.94,-181.12 193.94,-181.12"/>
</g>
<!-- :test&#45;data&#45;&gt;:core:coroutines -->
<g id="edge8" class="edge">
<title>:test&#45;data&#45;&gt;:core:coroutines</title>
<path fill="none" stroke="black" stroke-dasharray="1,5" d="M178.58,-703C109.37,-703 0,-703 0,-703 0,-703 0,-12 0,-12 0,-12 58.41,-12 58.41,-12"/>
<polygon fill="black" stroke="black" points="58.41,-15.5 68.41,-12 58.41,-8.5 58.41,-15.5"/>
</g>
<!-- :test&#45;data&#45;&gt;:shared:domain -->
<g id="edge7" class="edge">
<title>:test&#45;data&#45;&gt;:shared:domain</title>
<path fill="none" stroke="black" stroke-dasharray="1,5" d="M288.77,-706C372.14,-706 521.4,-706 521.4,-706 521.4,-706 521.4,-173.22 521.4,-173.22"/>
<polygon fill="black" stroke="black" points="524.9,-173.22 521.4,-163.22 517.9,-173.22 524.9,-173.22"/>
</g>
<!-- :data:database -->
<g id="node8" class="node">
<title>:data:database</title>
<ellipse fill="#b59aff" stroke="black" cx="305.04" cy="-429" rx="79.09" ry="18"/>
<text text-anchor="middle" x="305.04" y="-425.3" font-family="Times,serif" font-size="14.00">:data:database</text>
</g>
<!-- :test&#45;data&#45;&gt;:data:database -->
<g id="edge9" class="edge">
<title>:test&#45;data&#45;&gt;:data:database</title>
<path fill="none" stroke="black" stroke-dasharray="1,5" d="M268.11,-688.65C268.11,-688.65 268.11,-455.24 268.11,-455.24"/>
<polygon fill="black" stroke="black" points="271.61,-455.24 268.11,-445.24 264.61,-455.24 271.61,-455.24"/>
</g>
<!-- :data:musicbrainz -->
<g id="node9" class="node">
<title>:data:musicbrainz</title>
<ellipse fill="#b59aff" stroke="black" cx="190.04" cy="-292" rx="93.68" ry="18"/>
<text text-anchor="middle" x="190.04" y="-288.3" font-family="Times,serif" font-size="14.00">:data:musicbrainz</text>
</g>
<!-- :test&#45;data&#45;&gt;:data:musicbrainz -->
<g id="edge10" class="edge">
<title>:test&#45;data&#45;&gt;:data:musicbrainz</title>
<path fill="none" stroke="black" stroke-dasharray="1,5" d="M214.01,-686.12C214.01,-686.12 214.01,-319.71 214.01,-319.71"/>
<polygon fill="black" stroke="black" points="217.51,-319.71 214.01,-309.71 210.51,-319.71 217.51,-319.71"/>
</g>
<!-- :data:coverart -->
<g id="node10" class="node">
<title>:data:coverart</title>
<ellipse fill="#b59aff" stroke="black" cx="94.04" cy="-566" rx="76.09" ry="18"/>
<text text-anchor="middle" x="94.04" y="-562.3" font-family="Times,serif" font-size="14.00">:data:coverart</text>
</g>
<!-- :test&#45;data&#45;&gt;:data:coverart -->
<g id="edge11" class="edge">
<title>:test&#45;data&#45;&gt;:data:coverart</title>
<path fill="none" stroke="black" stroke-dasharray="1,5" d="M190.54,-691.83C190.54,-660.15 190.54,-572 190.54,-572 190.54,-572 175.94,-572 175.94,-572"/>
<polygon fill="black" stroke="black" points="175.94,-568.5 165.94,-572 175.94,-575.5 175.94,-568.5"/>
</g>
<!-- :data:spotify -->
<g id="node11" class="node">
<title>:data:spotify</title>
<ellipse fill="#b59aff" stroke="black" cx="447.04" cy="-292" rx="68.79" ry="18"/>
<text text-anchor="middle" x="447.04" y="-288.3" font-family="Times,serif" font-size="14.00">:data:spotify</text>
</g>
<!-- :test&#45;data&#45;&gt;:data:spotify -->
<g id="edge12" class="edge">
<title>:test&#45;data&#45;&gt;:data:spotify</title>
<path fill="none" stroke="black" stroke-dasharray="1,5" d="M288.02,-699C352.02,-699 450.14,-699 450.14,-699 450.14,-699 450.14,-320.01 450.14,-320.01"/>
<polygon fill="black" stroke="black" points="453.64,-320.01 450.14,-310.01 446.64,-320.01 453.64,-320.01"/>
</g>
<!-- :ui:test:screenshot&#45;&gt;:ui:core -->
<g id="edge13" class="edge">
<title>:ui:test:screenshot&#45;&gt;:ui:core</title>
<path fill="none" stroke="black" stroke-dasharray="1,5" d="M674.37,-690.36C674.37,-690.36 674.37,-592.39 674.37,-592.39"/>
<polygon fill="black" stroke="black" points="677.87,-592.39 674.37,-582.39 670.87,-592.39 677.87,-592.39"/>
</g>
<!-- :test:image -->
<g id="node12" class="node">
<title>:test:image</title>
<ellipse fill="#9affb5" stroke="black" cx="782.04" cy="-566" rx="63.09" ry="18"/>
<text text-anchor="middle" x="782.04" y="-562.3" font-family="Times,serif" font-size="14.00">:test:image</text>
</g>
<!-- :ui:test:screenshot&#45;&gt;:test:image -->
<g id="edge14" class="edge">
<title>:ui:test:screenshot&#45;&gt;:test:image</title>
<path fill="none" stroke="black" stroke-dasharray="1,5" d="M780.44,-686.2C780.44,-686.2 780.44,-594.25 780.44,-594.25"/>
<polygon fill="black" stroke="black" points="783.94,-594.25 780.44,-584.25 776.94,-594.25 783.94,-594.25"/>
</g>
<!-- :ui:core&#45;&gt;:shared:domain -->
<g id="edge16" class="edge">
<title>:ui:core&#45;&gt;:shared:domain</title>
<path fill="none" stroke="black" stroke-dasharray="1,5" d="M621.03,-578C583.05,-578 526.86,-578 526.86,-578 526.86,-578 526.86,-169.75 526.86,-169.75"/>
<polygon fill="black" stroke="black" points="530.36,-169.75 526.86,-159.75 523.36,-169.75 530.36,-169.75"/>
</g>
<!-- :shared:strings -->
<g id="node13" class="node">
<title>:shared:strings</title>
<ellipse fill="#b59aff" stroke="black" cx="729.04" cy="-429" rx="81.49" ry="18"/>
<text text-anchor="middle" x="729.04" y="-425.3" font-family="Times,serif" font-size="14.00">:shared:strings</text>
</g>
<!-- :ui:core&#45;&gt;:shared:strings -->
<g id="edge15" class="edge">
<title>:ui:core&#45;&gt;:shared:strings</title>
<path fill="none" stroke="black" d="M674.17,-549.47C674.17,-549.47 674.17,-452.31 674.17,-452.31"/>
<polygon fill="black" stroke="black" points="677.67,-452.31 674.17,-442.31 670.67,-452.31 677.67,-452.31"/>
</g>
<!-- :core:logging:api&#45;&gt;:core:coroutines -->
<g id="edge17" class="edge">
<title>:core:logging:api&#45;&gt;:core:coroutines</title>
<path fill="none" stroke="black" d="M149.04,-136.81C149.04,-136.81 149.04,-46.27 149.04,-46.27"/>
<polygon fill="black" stroke="black" points="152.54,-46.27 149.04,-36.27 145.54,-46.27 152.54,-46.27"/>
</g>
<!-- :data:database&#45;&gt;:core:coroutines -->
<g id="edge19" class="edge">
<title>:data:database&#45;&gt;:core:coroutines</title>
<path fill="none" stroke="black" stroke-dasharray="1,5" d="M310.59,-410.81C310.59,-332.01 310.59,-24 310.59,-24 310.59,-24 239.34,-24 239.34,-24"/>
<polygon fill="black" stroke="black" points="239.34,-20.5 229.34,-24 239.34,-27.5 239.34,-20.5"/>
</g>
<!-- :data:database&#45;&gt;:shared:domain -->
<g id="edge18" class="edge">
<title>:data:database&#45;&gt;:shared:domain</title>
<path fill="none" stroke="black" stroke-dasharray="1,5" d="M373.6,-419.88C373.6,-419.88 373.6,-173.33 373.6,-173.33"/>
<polygon fill="black" stroke="black" points="377.1,-173.33 373.6,-163.33 370.1,-173.33 377.1,-173.33"/>
</g>
<!-- :data:database&#45;&gt;:data:musicbrainz -->
<g id="edge20" class="edge">
<title>:data:database&#45;&gt;:data:musicbrainz</title>
<path fill="none" stroke="black" stroke-dasharray="1,5" d="M254.69,-414.85C254.69,-414.85 254.69,-315.06 254.69,-315.06"/>
<polygon fill="black" stroke="black" points="258.19,-315.06 254.69,-305.06 251.19,-315.06 258.19,-315.06"/>
</g>
<!-- :data:musicbrainz&#45;&gt;:shared:domain -->
<g id="edge21" class="edge">
<title>:data:musicbrainz&#45;&gt;:shared:domain</title>
<path fill="none" stroke="black" stroke-dasharray="1,5" d="M278.5,-286C323.6,-286 369.05,-286 369.05,-286 369.05,-286 369.05,-170.97 369.05,-170.97"/>
<polygon fill="black" stroke="black" points="372.55,-170.97 369.05,-160.97 365.55,-170.97 372.55,-170.97"/>
</g>
<!-- :data:musicbrainz&#45;&gt;:core:logging:api -->
<g id="edge22" class="edge">
<title>:data:musicbrainz&#45;&gt;:core:logging:api</title>
<path fill="none" stroke="black" stroke-dasharray="1,5" d="M143.45,-276.28C143.45,-276.28 143.45,-183.13 143.45,-183.13"/>
<polygon fill="black" stroke="black" points="146.95,-183.13 143.45,-173.13 139.95,-183.13 146.95,-183.13"/>
</g>
<!-- :data:coverart&#45;&gt;:test&#45;data -->
<g id="edge26" class="edge">
<title>:data:coverart&#45;&gt;:test&#45;data</title>
<path fill="none" stroke="#ff9ab1" stroke-dasharray="1,5" d="M170.09,-566C188.14,-566 202.27,-566 202.27,-566 202.27,-566 202.27,-678.08 202.27,-678.08"/>
<polygon fill="#ff9ab1" stroke="#ff9ab1" points="198.77,-678.08 202.27,-688.08 205.77,-678.08 198.77,-678.08"/>
</g>
<!-- :data:coverart&#45;&gt;:core:coroutines -->
<g id="edge25" class="edge">
<title>:data:coverart&#45;&gt;:core:coroutines</title>
<path fill="none" stroke="black" stroke-dasharray="1,5" d="M39.33,-553.4C39.33,-472.02 39.33,-24 39.33,-24 39.33,-24 58.73,-24 58.73,-24"/>
<polygon fill="black" stroke="black" points="58.73,-27.5 68.73,-24 58.73,-20.5 58.73,-27.5"/>
</g>
<!-- :data:coverart&#45;&gt;:shared:domain -->
<g id="edge23" class="edge">
<title>:data:coverart&#45;&gt;:shared:domain</title>
<path fill="none" stroke="black" stroke-dasharray="1,5" d="M166.07,-560C287.22,-560 518.67,-560 518.67,-560 518.67,-560 518.67,-174.22 518.67,-174.22"/>
<polygon fill="black" stroke="black" points="522.17,-174.22 518.67,-164.22 515.17,-174.22 522.17,-174.22"/>
</g>
<!-- :data:coverart&#45;&gt;:core:logging:api -->
<g id="edge24" class="edge">
<title>:data:coverart&#45;&gt;:core:logging:api</title>
<path fill="none" stroke="black" stroke-dasharray="1,5" d="M78.55,-548.34C78.55,-548.34 78.55,-175.94 78.55,-175.94"/>
<polygon fill="black" stroke="black" points="82.05,-175.94 78.55,-165.94 75.05,-175.94 82.05,-175.94"/>
</g>
<!-- :data:coverart&#45;&gt;:data:database -->
<g id="edge28" class="edge">
<title>:data:coverart&#45;&gt;:data:database</title>
<path fill="none" stroke="#ff9ab1" stroke-dasharray="1,5" d="M150.97,-554C194.44,-554 246.93,-554 246.93,-554 246.93,-554 246.93,-451.44 246.93,-451.44"/>
<polygon fill="#ff9ab1" stroke="#ff9ab1" points="250.43,-451.44 246.93,-441.44 243.43,-451.44 250.43,-451.44"/>
</g>
<!-- :data:coverart&#45;&gt;:data:musicbrainz -->
<g id="edge27" class="edge">
<title>:data:coverart&#45;&gt;:data:musicbrainz</title>
<path fill="none" stroke="#ff9ab1" stroke-dasharray="1,5" d="M133.27,-550.48C133.27,-550.48 133.27,-316.35 133.27,-316.35"/>
<polygon fill="#ff9ab1" stroke="#ff9ab1" points="136.77,-316.35 133.27,-306.35 129.77,-316.35 136.77,-316.35"/>
</g>
<!-- :data:spotify&#45;&gt;:shared:domain -->
<g id="edge29" class="edge">
<title>:data:spotify&#45;&gt;:shared:domain</title>
<path fill="none" stroke="black" stroke-dasharray="1,5" d="M447.04,-273.81C447.04,-273.81 447.04,-183.27 447.04,-183.27"/>
<polygon fill="black" stroke="black" points="450.54,-183.27 447.04,-173.27 443.54,-183.27 450.54,-183.27"/>
</g>
<!-- :data:spotify&#45;&gt;:core:logging:api -->
<g id="edge30" class="edge">
<title>:data:spotify&#45;&gt;:core:logging:api</title>
<path fill="none" stroke="black" stroke-dasharray="1,5" d="M382.08,-298C358.5,-298 337.55,-298 337.55,-298 337.55,-298 337.55,-155 337.55,-155 337.55,-155 247.5,-155 247.5,-155"/>
<polygon fill="black" stroke="black" points="247.5,-151.5 237.5,-155 247.5,-158.5 247.5,-151.5"/>
</g>
</g>
</svg>
