<?xml version="1.0" encoding="UTF-8" standalone="no"?>
<!DOCTYPE svg PUBLIC "-//W3C//DTD SVG 1.1//EN"
 "http://www.w3.org/Graphics/SVG/1.1/DTD/svg11.dtd">
<!-- Generated by graphviz version 2.43.0 (0)
 -->
<!-- Title: %3 Pages: 1 -->
<svg width="980pt" height="529pt"
 viewBox="0.00 0.00 980.48 529.00" xmlns="http://www.w3.org/2000/svg" xmlns:xlink="http://www.w3.org/1999/xlink">
<g id="graph0" class="graph" transform="scale(1 1) rotate(0) translate(4 525)">
<title>%3</title>
<polygon fill="white" stroke="transparent" points="-4,4 -4,-525 976.48,-525 976.48,4 -4,4"/>
<text text-anchor="middle" x="486.24" y="-493" font-family="Times,serif" font-size="30.00">Dependencies</text>
<text text-anchor="middle" x="486.24" y="-460" font-family="Times,serif" font-size="30.00"> </text>
<!-- :ui:common -->
<g id="node1" class="node">
<title>:ui:common</title>
<polygon fill="#b59aff" stroke="black" points="487.34,-447 388.34,-447 388.34,-411 487.34,-411 487.34,-447"/>
<text text-anchor="middle" x="437.84" y="-425.3" font-family="Times,serif" font-size="14.00">:ui:common</text>
</g>
<!-- :ui:test:screenshot -->
<g id="node2" class="node">
<title>:ui:test:screenshot</title>
<ellipse fill="#9affb5" stroke="black" cx="96.84" cy="-292" rx="96.68" ry="18"/>
<text text-anchor="middle" x="96.84" y="-288.3" font-family="Times,serif" font-size="14.00">:ui:test:screenshot</text>
</g>
<!-- :ui:common&#45;&gt;:ui:test:screenshot -->
<g id="edge1" class="edge">
<title>:ui:common&#45;&gt;:ui:test:screenshot</title>
<path fill="none" stroke="#ff9ab1" stroke-dasharray="1,5" d="M388.26,-429C293.68,-429 96.84,-429 96.84,-429 96.84,-429 96.84,-320.19 96.84,-320.19"/>
<polygon fill="#ff9ab1" stroke="#ff9ab1" points="100.34,-320.19 96.84,-310.19 93.34,-320.19 100.34,-320.19"/>
</g>
<!-- :shared:domain -->
<g id="node3" class="node">
<title>:shared:domain</title>
<ellipse fill="#b59aff" stroke="black" cx="488.84" cy="-155" rx="82.59" ry="18"/>
<text text-anchor="middle" x="488.84" y="-151.3" font-family="Times,serif" font-size="14.00">:shared:domain</text>
</g>
<!-- :ui:common&#45;&gt;:shared:domain -->
<g id="edge2" class="edge">
<title>:ui:common&#45;&gt;:shared:domain</title>
<path fill="none" stroke="black" d="M411.3,-410.6C411.3,-410.6 411.3,-171.54 411.3,-171.54"/>
<polygon fill="black" stroke="black" points="414.8,-171.54 411.3,-161.54 407.8,-171.54 414.8,-171.54"/>
</g>
<!-- :ui:core -->
<g id="node4" class="node">
<title>:ui:core</title>
<ellipse fill="#b59aff" stroke="black" cx="222.84" cy="-155" rx="45.49" ry="18"/>
<text text-anchor="middle" x="222.84" y="-151.3" font-family="Times,serif" font-size="14.00">:ui:core</text>
</g>
<!-- :ui:common&#45;&gt;:ui:core -->
<g id="edge3" class="edge">
<title>:ui:common&#45;&gt;:ui:core</title>
<path fill="none" stroke="black" d="M400.31,-410.6C400.31,-349.16 400.31,-155 400.31,-155 400.31,-155 278.54,-155 278.54,-155"/>
<polygon fill="black" stroke="black" points="278.54,-151.5 268.54,-155 278.54,-158.5 278.54,-151.5"/>
</g>
<!-- :data:coverart -->
<g id="node5" class="node">
<title>:data:coverart</title>
<ellipse fill="#b59aff" stroke="black" cx="489.84" cy="-292" rx="76.09" ry="18"/>
<text text-anchor="middle" x="489.84" y="-288.3" font-family="Times,serif" font-size="14.00">:data:coverart</text>
</g>
<!-- :ui:common&#45;&gt;:data:coverart -->
<g id="edge4" class="edge">
<title>:ui:common&#45;&gt;:data:coverart</title>
<path fill="none" stroke="black" stroke-dasharray="1,5" d="M450.57,-410.81C450.57,-410.81 450.57,-317.72 450.57,-317.72"/>
<polygon fill="black" stroke="black" points="454.07,-317.72 450.57,-307.72 447.07,-317.72 454.07,-317.72"/>
</g>
<!-- :data:musicbrainz -->
<g id="node6" class="node">
<title>:data:musicbrainz</title>
<ellipse fill="#b59aff" stroke="black" cx="677.84" cy="-292" rx="93.68" ry="18"/>
<text text-anchor="middle" x="677.84" y="-288.3" font-family="Times,serif" font-size="14.00">:data:musicbrainz</text>
</g>
<!-- :ui:common&#45;&gt;:data:musicbrainz -->
<g id="edge5" class="edge">
<title>:ui:common&#45;&gt;:data:musicbrainz</title>
<path fill="none" stroke="black" stroke-dasharray="1,5" d="M487.57,-429C557.87,-429 677.84,-429 677.84,-429 677.84,-429 677.84,-320.19 677.84,-320.19"/>
<polygon fill="black" stroke="black" points="681.34,-320.19 677.84,-310.19 674.34,-320.19 681.34,-320.19"/>
</g>
<!-- :core:preferences -->
<g id="node7" class="node">
<title>:core:preferences</title>
<ellipse fill="#b59aff" stroke="black" cx="880.84" cy="-292" rx="91.78" ry="18"/>
<text text-anchor="middle" x="880.84" y="-288.3" font-family="Times,serif" font-size="14.00">:core:preferences</text>
</g>
<!-- :ui:common&#45;&gt;:core:preferences -->
<g id="edge6" class="edge">
<title>:ui:common&#45;&gt;:core:preferences</title>
<path fill="none" stroke="black" stroke-dasharray="1,5" d="M487.37,-438C602.97,-438 880.84,-438 880.84,-438 880.84,-438 880.84,-320.2 880.84,-320.2"/>
<polygon fill="black" stroke="black" points="884.34,-320.2 880.84,-310.2 877.34,-320.2 884.34,-320.2"/>
</g>
<!-- :core:logging:api -->
<g id="node8" class="node">
<title>:core:logging:api</title>
<ellipse fill="#b59aff" stroke="black" cx="677.84" cy="-155" rx="88.28" ry="18"/>
<text text-anchor="middle" x="677.84" y="-151.3" font-family="Times,serif" font-size="14.00">:core:logging:api</text>
</g>
<!-- :ui:common&#45;&gt;:core:logging:api -->
<g id="edge7" class="edge">
<title>:ui:common&#45;&gt;:core:logging:api</title>
<path fill="none" stroke="black" stroke-dasharray="1,5" d="M487.59,-420C527.82,-420 577.82,-420 577.82,-420 577.82,-420 577.82,-155 577.82,-155 577.82,-155 579.29,-155 579.29,-155"/>
<polygon fill="black" stroke="black" points="579.29,-158.5 589.29,-155 579.29,-151.5 579.29,-158.5"/>
</g>
<!-- :ui:image -->
<g id="node9" class="node">
<title>:ui:image</title>
<ellipse fill="#b59aff" stroke="black" cx="303.84" cy="-292" rx="53.89" ry="18"/>
<text text-anchor="middle" x="303.84" y="-288.3" font-family="Times,serif" font-size="14.00">:ui:image</text>
</g>
<!-- :ui:common&#45;&gt;:ui:image -->
<g id="edge8" class="edge">
<title>:ui:common&#45;&gt;:ui:image</title>
<path fill="none" stroke="black" stroke-dasharray="1,5" d="M394.33,-410.79C394.33,-374.79 394.33,-298 394.33,-298 394.33,-298 364.9,-298 364.9,-298"/>
<polygon fill="black" stroke="black" points="364.9,-294.5 354.9,-298 364.9,-301.5 364.9,-294.5"/>
</g>
<!-- :ui:test:screenshot&#45;&gt;:ui:core -->
<g id="edge9" class="edge">
<title>:ui:test:screenshot&#45;&gt;:ui:core</title>
<path fill="none" stroke="black" stroke-dasharray="1,5" d="M185.51,-284.63C185.51,-284.63 185.51,-175.67 185.51,-175.67"/>
<polygon fill="black" stroke="black" points="189.01,-175.67 185.51,-165.67 182.01,-175.67 189.01,-175.67"/>
</g>
<!-- :test:image -->
<g id="node10" class="node">
<title>:test:image</title>
<ellipse fill="#9affb5" stroke="black" cx="95.84" cy="-155" rx="63.09" ry="18"/>
<text text-anchor="middle" x="95.84" y="-151.3" font-family="Times,serif" font-size="14.00">:test:image</text>
</g>
<!-- :ui:test:screenshot&#45;&gt;:test:image -->
<g id="edge10" class="edge">
<title>:ui:test:screenshot&#45;&gt;:test:image</title>
<path fill="none" stroke="black" stroke-dasharray="1,5" d="M95.84,-273.81C95.84,-273.81 95.84,-183.27 95.84,-183.27"/>
<polygon fill="black" stroke="black" points="99.34,-183.27 95.84,-173.27 92.34,-183.27 99.34,-183.27"/>
</g>
<!-- :shared:strings -->
<g id="node11" class="node">
<title>:shared:strings</title>
<ellipse fill="#b59aff" stroke="black" cx="222.84" cy="-18" rx="81.49" ry="18"/>
<text text-anchor="middle" x="222.84" y="-14.3" font-family="Times,serif" font-size="14.00">:shared:strings</text>
</g>
<!-- :ui:core&#45;&gt;:shared:strings -->
<g id="edge11" class="edge">
<title>:ui:core&#45;&gt;:shared:strings</title>
<path fill="none" stroke="black" d="M222.84,-136.81C222.84,-136.81 222.84,-46.27 222.84,-46.27"/>
<polygon fill="black" stroke="black" points="226.34,-46.27 222.84,-36.27 219.34,-46.27 226.34,-46.27"/>
</g>
<!-- :data:coverart&#45;&gt;:shared:domain -->
<g id="edge12" class="edge">
<title>:data:coverart&#45;&gt;:shared:domain</title>
<path fill="none" stroke="black" stroke-dasharray="1,5" d="M464.49,-274.93C464.49,-274.93 464.49,-182.29 464.49,-182.29"/>
<polygon fill="black" stroke="black" points="467.99,-182.29 464.49,-172.29 460.99,-182.29 467.99,-182.29"/>
</g>
<!-- :data:coverart&#45;&gt;:core:logging:api -->
<g id="edge13" class="edge">
<title>:data:coverart&#45;&gt;:core:logging:api</title>
<path fill="none" stroke="black" stroke-dasharray="1,5" d="M561.73,-286C569.47,-286 574.6,-286 574.6,-286 574.6,-286 574.6,-146 574.6,-146 574.6,-146 591.19,-146 591.19,-146"/>
<polygon fill="black" stroke="black" points="591.19,-149.5 601.19,-146 591.19,-142.5 591.19,-149.5"/>
</g>
<!-- :data:musicbrainz&#45;&gt;:shared:domain -->
<g id="edge14" class="edge">
<title>:data:musicbrainz&#45;&gt;:shared:domain</title>
<path fill="none" stroke="black" stroke-dasharray="1,5" d="M589.29,-298C584.16,-298 581.03,-298 581.03,-298 581.03,-298 581.03,-164 581.03,-164 581.03,-164 570.57,-164 570.57,-164"/>
<polygon fill="black" stroke="black" points="570.57,-160.5 560.57,-164 570.57,-167.5 570.57,-160.5"/>
</g>
<!-- :data:musicbrainz&#45;&gt;:core:logging:api -->
<g id="edge15" class="edge">
<title>:data:musicbrainz&#45;&gt;:core:logging:api</title>
<path fill="none" stroke="black" stroke-dasharray="1,5" d="M677.84,-273.81C677.84,-273.81 677.84,-183.27 677.84,-183.27"/>
<polygon fill="black" stroke="black" points="681.34,-183.27 677.84,-173.27 674.34,-183.27 681.34,-183.27"/>
</g>
<!-- :core:preferences&#45;&gt;:shared:domain -->
<g id="edge16" class="edge">
<title>:core:preferences&#45;&gt;:shared:domain</title>
<path fill="none" stroke="black" stroke-dasharray="1,5" d="M852.46,-274.59C852.46,-254.15 852.46,-223 852.46,-223 852.46,-223 515.19,-223 515.19,-223 515.19,-223 515.19,-182.16 515.19,-182.16"/>
<polygon fill="black" stroke="black" points="518.69,-182.16 515.19,-172.16 511.69,-182.16 518.69,-182.16"/>
</g>
<!-- :core:coroutines -->
<g id="node12" class="node">
<title>:core:coroutines</title>
<ellipse fill="#b59aff" stroke="black" cx="880.84" cy="-155" rx="85.29" ry="18"/>
<text text-anchor="middle" x="880.84" y="-151.3" font-family="Times,serif" font-size="14.00">:core:coroutines</text>
</g>
<!-- :core:preferences&#45;&gt;:core:coroutines -->
<g id="edge17" class="edge">
<title>:core:preferences&#45;&gt;:core:coroutines</title>
<path fill="none" stroke="black" stroke-dasharray="1,5" d="M909.22,-274.65C909.22,-274.65 909.22,-182.21 909.22,-182.21"/>
<polygon fill="black" stroke="black" points="912.72,-182.21 909.22,-172.21 905.72,-182.21 912.72,-182.21"/>
</g>
<!-- :ui:image&#45;&gt;:shared:domain -->
<g id="edge18" class="edge">
<title>:ui:image&#45;&gt;:shared:domain</title>
<path fill="none" stroke="black" stroke-dasharray="1,5" d="M354.78,-286C381.52,-286 408.8,-286 408.8,-286 408.8,-286 408.8,-169.66 408.8,-169.66"/>
<polygon fill="black" stroke="black" points="412.3,-169.66 408.8,-159.66 405.3,-169.66 412.3,-169.66"/>
</g>
<!-- :ui:image&#45;&gt;:ui:core -->
<g id="edge19" class="edge">
<title>:ui:image&#45;&gt;:ui:core</title>
<path fill="none" stroke="black" stroke-dasharray="1,5" d="M259.12,-281.7C259.12,-281.7 259.12,-176.18 259.12,-176.18"/>
<polygon fill="black" stroke="black" points="262.62,-176.18 259.12,-166.18 255.62,-176.18 262.62,-176.18"/>
</g>
</g>
</svg>
