<?xml version="1.0" encoding="UTF-8" standalone="no"?>
<!DOCTYPE svg PUBLIC "-//W3C//DTD SVG 1.1//EN"
 "http://www.w3.org/Graphics/SVG/1.1/DTD/svg11.dtd">
<!-- Generated by graphviz version 2.43.0 (0)
 -->
<!-- Title: %3 Pages: 1 -->
<svg width="1308pt" height="666pt"
 viewBox="0.00 0.00 1308.43 666.00" xmlns="http://www.w3.org/2000/svg" xmlns:xlink="http://www.w3.org/1999/xlink">
<g id="graph0" class="graph" transform="scale(1 1) rotate(0) translate(4 662)">
<title>%3</title>
<polygon fill="white" stroke="transparent" points="-4,4 -4,-662 1304.43,-662 1304.43,4 -4,4"/>
<text text-anchor="middle" x="650.22" y="-630" font-family="Times,serif" font-size="30.00">Dependencies</text>
<text text-anchor="middle" x="650.22" y="-597" font-family="Times,serif" font-size="30.00"> </text>
<!-- :shared:feature:settings -->
<g id="node1" class="node">
<title>:shared:feature:settings</title>
<polygon fill="#b59aff" stroke="black" points="680.84,-584 492.84,-584 492.84,-548 680.84,-548 680.84,-584"/>
<text text-anchor="middle" x="586.84" y="-562.3" font-family="Times,serif" font-size="14.00">:shared:feature:settings</text>
</g>
<!-- :ui:test:screenshot -->
<g id="node2" class="node">
<title>:ui:test:screenshot</title>
<ellipse fill="#9affb5" stroke="black" cx="96.84" cy="-292" rx="96.68" ry="18"/>
<text text-anchor="middle" x="96.84" y="-288.3" font-family="Times,serif" font-size="14.00">:ui:test:screenshot</text>
</g>
<!-- :shared:feature:settings&#45;&gt;:ui:test:screenshot -->
<g id="edge1" class="edge">
<title>:shared:feature:settings&#45;&gt;:ui:test:screenshot</title>
<path fill="none" stroke="#ff9ab1" stroke-dasharray="1,5" d="M492.56,-572C342.13,-572 64.56,-572 64.56,-572 64.56,-572 64.56,-319.09 64.56,-319.09"/>
<polygon fill="#ff9ab1" stroke="#ff9ab1" points="68.06,-319.09 64.56,-309.09 61.06,-319.09 68.06,-319.09"/>
</g>
<!-- :ui:common -->
<g id="node3" class="node">
<title>:ui:common</title>
<ellipse fill="#b59aff" stroke="black" cx="586.84" cy="-429" rx="64.19" ry="18"/>
<text text-anchor="middle" x="586.84" y="-425.3" font-family="Times,serif" font-size="14.00">:ui:common</text>
</g>
<!-- :shared:feature:settings&#45;&gt;:ui:common -->
<g id="edge2" class="edge">
<title>:shared:feature:settings&#45;&gt;:ui:common</title>
<path fill="none" stroke="black" stroke-dasharray="1,5" d="M586.84,-547.81C586.84,-547.81 586.84,-457.27 586.84,-457.27"/>
<polygon fill="black" stroke="black" points="590.34,-457.27 586.84,-447.27 583.34,-457.27 590.34,-457.27"/>
</g>
<!-- :shared:domain -->
<g id="node4" class="node">
<title>:shared:domain</title>
<ellipse fill="#b59aff" stroke="black" cx="690.84" cy="-155" rx="82.59" ry="18"/>
<text text-anchor="middle" x="690.84" y="-151.3" font-family="Times,serif" font-size="14.00">:shared:domain</text>
</g>
<!-- :shared:feature:settings&#45;&gt;:shared:domain -->
<g id="edge3" class="edge">
<title>:shared:feature:settings&#45;&gt;:shared:domain</title>
<path fill="none" stroke="black" stroke-dasharray="1,5" d="M681.09,-560C730.57,-560 781.03,-560 781.03,-560 781.03,-560 781.03,-164 781.03,-164 781.03,-164 772.34,-164 772.34,-164"/>
<polygon fill="black" stroke="black" points="772.34,-160.5 762.34,-164 772.34,-167.5 772.34,-160.5"/>
</g>
<!-- :core:preferences -->
<g id="node5" class="node">
<title>:core:preferences</title>
<ellipse fill="#b59aff" stroke="black" cx="302.84" cy="-292" rx="91.78" ry="18"/>
<text text-anchor="middle" x="302.84" y="-288.3" font-family="Times,serif" font-size="14.00">:core:preferences</text>
</g>
<!-- :shared:feature:settings&#45;&gt;:core:preferences -->
<g id="edge4" class="edge">
<title>:shared:feature:settings&#45;&gt;:core:preferences</title>
<path fill="none" stroke="black" stroke-dasharray="1,5" d="M492.47,-560C399.81,-560 272.29,-560 272.29,-560 272.29,-560 272.29,-319.17 272.29,-319.17"/>
<polygon fill="black" stroke="black" points="275.79,-319.17 272.29,-309.17 268.79,-319.17 275.79,-319.17"/>
</g>
<!-- :data:musicbrainz -->
<g id="node6" class="node">
<title>:data:musicbrainz</title>
<ellipse fill="#b59aff" stroke="black" cx="1206.84" cy="-292" rx="93.68" ry="18"/>
<text text-anchor="middle" x="1206.84" y="-288.3" font-family="Times,serif" font-size="14.00">:data:musicbrainz</text>
</g>
<!-- :shared:feature:settings&#45;&gt;:data:musicbrainz -->
<g id="edge5" class="edge">
<title>:shared:feature:settings&#45;&gt;:data:musicbrainz</title>
<path fill="none" stroke="black" stroke-dasharray="1,5" d="M681.18,-572C861.66,-572 1238.04,-572 1238.04,-572 1238.04,-572 1238.04,-319.09 1238.04,-319.09"/>
<polygon fill="black" stroke="black" points="1241.54,-319.09 1238.04,-309.09 1234.54,-319.09 1241.54,-319.09"/>
</g>
<!-- :ui:core -->
<g id="node7" class="node">
<title>:ui:core</title>
<ellipse fill="#b59aff" stroke="black" cx="436.84" cy="-155" rx="45.49" ry="18"/>
<text text-anchor="middle" x="436.84" y="-151.3" font-family="Times,serif" font-size="14.00">:ui:core</text>
</g>
<!-- :ui:test:screenshot&#45;&gt;:ui:core -->
<g id="edge6" class="edge">
<title>:ui:test:screenshot&#45;&gt;:ui:core</title>
<path fill="none" stroke="black" stroke-dasharray="1,5" d="M176.78,-281.58C176.78,-257.11 176.78,-198 176.78,-198 176.78,-198 413.29,-198 413.29,-198 413.29,-198 413.29,-180.52 413.29,-180.52"/>
<polygon fill="black" stroke="black" points="416.79,-180.52 413.29,-170.52 409.79,-180.52 416.79,-180.52"/>
</g>
<!-- :test:image -->
<g id="node8" class="node">
<title>:test:image</title>
<ellipse fill="#9affb5" stroke="black" cx="96.84" cy="-155" rx="63.09" ry="18"/>
<text text-anchor="middle" x="96.84" y="-151.3" font-family="Times,serif" font-size="14.00">:test:image</text>
</g>
<!-- :ui:test:screenshot&#45;&gt;:test:image -->
<g id="edge7" class="edge">
<title>:ui:test:screenshot&#45;&gt;:test:image</title>
<path fill="none" stroke="black" stroke-dasharray="1,5" d="M96.84,-273.81C96.84,-273.81 96.84,-183.27 96.84,-183.27"/>
<polygon fill="black" stroke="black" points="100.34,-183.27 96.84,-173.27 93.34,-183.27 100.34,-183.27"/>
</g>
<!-- :ui:common&#45;&gt;:ui:test:screenshot -->
<g id="edge8" class="edge">
<title>:ui:common&#45;&gt;:ui:test:screenshot</title>
<path fill="none" stroke="#ff9ab1" stroke-dasharray="1,5" d="M530.72,-438C408.49,-438 129.12,-438 129.12,-438 129.12,-438 129.12,-319.03 129.12,-319.03"/>
<polygon fill="#ff9ab1" stroke="#ff9ab1" points="132.62,-319.03 129.12,-309.03 125.62,-319.03 132.62,-319.03"/>
</g>
<!-- :ui:common&#45;&gt;:shared:domain -->
<g id="edge9" class="edge">
<title>:ui:common&#45;&gt;:shared:domain</title>
<path fill="none" stroke="black" d="M583.54,-411C583.54,-350.91 583.54,-161 583.54,-161 583.54,-161 602.86,-161 602.86,-161"/>
<polygon fill="black" stroke="black" points="602.86,-164.5 612.86,-161 602.86,-157.5 602.86,-164.5"/>
</g>
<!-- :ui:common&#45;&gt;:core:preferences -->
<g id="edge14" class="edge">
<title>:ui:common&#45;&gt;:core:preferences</title>
<path fill="none" stroke="black" stroke-dasharray="1,5" d="M522.23,-429C447.14,-429 333.39,-429 333.39,-429 333.39,-429 333.39,-319.07 333.39,-319.07"/>
<polygon fill="black" stroke="black" points="336.89,-319.07 333.39,-309.07 329.89,-319.07 336.89,-319.07"/>
</g>
<!-- :ui:common&#45;&gt;:data:musicbrainz -->
<g id="edge12" class="edge">
<title>:ui:common&#45;&gt;:data:musicbrainz</title>
<path fill="none" stroke="black" stroke-dasharray="1,5" d="M642.77,-438C789.74,-438 1175.64,-438 1175.64,-438 1175.64,-438 1175.64,-319.03 1175.64,-319.03"/>
<polygon fill="black" stroke="black" points="1179.14,-319.03 1175.64,-309.03 1172.14,-319.03 1179.14,-319.03"/>
</g>
<!-- :ui:common&#45;&gt;:ui:core -->
<g id="edge10" class="edge">
<title>:ui:common&#45;&gt;:ui:core</title>
<path fill="none" stroke="black" d="M530.97,-420C486.65,-420 432.09,-420 432.09,-420 432.09,-420 432.09,-183.21 432.09,-183.21"/>
<polygon fill="black" stroke="black" points="435.59,-183.21 432.09,-173.21 428.59,-183.21 435.59,-183.21"/>
</g>
<!-- :data:coverart -->
<g id="node9" class="node">
<title>:data:coverart</title>
<ellipse fill="#b59aff" stroke="black" cx="690.84" cy="-292" rx="76.09" ry="18"/>
<text text-anchor="middle" x="690.84" y="-288.3" font-family="Times,serif" font-size="14.00">:data:coverart</text>
</g>
<!-- :ui:common&#45;&gt;:data:coverart -->
<g id="edge11" class="edge">
<title>:ui:common&#45;&gt;:data:coverart</title>
<path fill="none" stroke="black" stroke-dasharray="1,5" d="M632.99,-416.36C632.99,-416.36 632.99,-313.83 632.99,-313.83"/>
<polygon fill="black" stroke="black" points="636.49,-313.83 632.99,-303.83 629.49,-313.83 636.49,-313.83"/>
</g>
<!-- :data:common:network -->
<g id="node10" class="node">
<title>:data:common:network</title>
<ellipse fill="#b59aff" stroke="black" cx="901.84" cy="-292" rx="116.98" ry="18"/>
<text text-anchor="middle" x="901.84" y="-288.3" font-family="Times,serif" font-size="14.00">:data:common:network</text>
</g>
<!-- :ui:common&#45;&gt;:data:common:network -->
<g id="edge13" class="edge">
<title>:ui:common&#45;&gt;:data:common:network</title>
<path fill="none" stroke="black" stroke-dasharray="1,5" d="M642.79,-420C733.31,-420 901.84,-420 901.84,-420 901.84,-420 901.84,-320.07 901.84,-320.07"/>
<polygon fill="black" stroke="black" points="905.34,-320.07 901.84,-310.07 898.34,-320.07 905.34,-320.07"/>
</g>
<!-- :core:logging:api -->
<g id="node11" class="node">
<title>:core:logging:api</title>
<ellipse fill="#b59aff" stroke="black" cx="992.84" cy="-155" rx="88.28" ry="18"/>
<text text-anchor="middle" x="992.84" y="-151.3" font-family="Times,serif" font-size="14.00">:core:logging:api</text>
</g>
<!-- :ui:common&#45;&gt;:core:logging:api -->
<g id="edge15" class="edge">
<title>:ui:common&#45;&gt;:core:logging:api</title>
<path fill="none" stroke="black" stroke-dasharray="1,5" d="M651.23,-429C776.24,-429 1039.63,-429 1039.63,-429 1039.63,-429 1039.63,-180.52 1039.63,-180.52"/>
<polygon fill="black" stroke="black" points="1043.13,-180.52 1039.63,-170.52 1036.13,-180.52 1043.13,-180.52"/>
</g>
<!-- :ui:image -->
<g id="node12" class="node">
<title>:ui:image</title>
<ellipse fill="#b59aff" stroke="black" cx="504.84" cy="-292" rx="53.89" ry="18"/>
<text text-anchor="middle" x="504.84" y="-288.3" font-family="Times,serif" font-size="14.00">:ui:image</text>
</g>
<!-- :ui:common&#45;&gt;:ui:image -->
<g id="edge16" class="edge">
<title>:ui:common&#45;&gt;:ui:image</title>
<path fill="none" stroke="black" stroke-dasharray="1,5" d="M540.64,-416.36C540.64,-416.36 540.64,-315.83 540.64,-315.83"/>
<polygon fill="black" stroke="black" points="544.14,-315.83 540.64,-305.83 537.14,-315.83 544.14,-315.83"/>
</g>
<!-- :core:preferences&#45;&gt;:shared:domain -->
<g id="edge17" class="edge">
<title>:core:preferences&#45;&gt;:shared:domain</title>
<path fill="none" stroke="black" stroke-dasharray="1,5" d="M382.16,-282.98C382.16,-264.28 382.16,-223 382.16,-223 382.16,-223 652.82,-223 652.82,-223 652.82,-223 652.82,-181.12 652.82,-181.12"/>
<polygon fill="black" stroke="black" points="656.32,-181.12 652.82,-171.12 649.32,-181.12 656.32,-181.12"/>
</g>
<!-- :core:coroutines -->
<g id="node13" class="node">
<title>:core:coroutines</title>
<ellipse fill="#b59aff" stroke="black" cx="287.84" cy="-155" rx="85.29" ry="18"/>
<text text-anchor="middle" x="287.84" y="-151.3" font-family="Times,serif" font-size="14.00">:core:coroutines</text>
</g>
<!-- :core:preferences&#45;&gt;:core:coroutines -->
<g id="edge18" class="edge">
<title>:core:preferences&#45;&gt;:core:coroutines</title>
<path fill="none" stroke="black" stroke-dasharray="1,5" d="M292.09,-274.09C292.09,-274.09 292.09,-183.35 292.09,-183.35"/>
<polygon fill="black" stroke="black" points="295.59,-183.35 292.09,-173.35 288.59,-183.35 295.59,-183.35"/>
</g>
<!-- :data:musicbrainz&#45;&gt;:shared:domain -->
<g id="edge19" class="edge">
<title>:data:musicbrainz&#45;&gt;:shared:domain</title>
<path fill="none" stroke="black" stroke-dasharray="1,5" d="M1206.84,-273.85C1206.84,-261.73 1206.84,-248 1206.84,-248 1206.84,-248 728.86,-248 728.86,-248 728.86,-248 728.86,-181.2 728.86,-181.2"/>
<polygon fill="black" stroke="black" points="732.36,-181.2 728.86,-171.2 725.36,-181.2 732.36,-181.2"/>
</g>
<!-- :data:musicbrainz&#45;&gt;:core:logging:api -->
<g id="edge20" class="edge">
<title>:data:musicbrainz&#45;&gt;:core:logging:api</title>
<path fill="none" stroke="black" stroke-dasharray="1,5" d="M1112.88,-292C1084.36,-292 1060.43,-292 1060.43,-292 1060.43,-292 1060.43,-176.68 1060.43,-176.68"/>
<polygon fill="black" stroke="black" points="1063.93,-176.68 1060.43,-166.68 1056.93,-176.68 1063.93,-176.68"/>
</g>
<!-- :shared:strings -->
<g id="node14" class="node">
<title>:shared:strings</title>
<ellipse fill="#b59aff" stroke="black" cx="436.84" cy="-18" rx="81.49" ry="18"/>
<text text-anchor="middle" x="436.84" y="-14.3" font-family="Times,serif" font-size="14.00">:shared:strings</text>
</g>
<!-- :ui:core&#45;&gt;:shared:strings -->
<g id="edge21" class="edge">
<title>:ui:core&#45;&gt;:shared:strings</title>
<path fill="none" stroke="black" d="M436.84,-136.81C436.84,-136.81 436.84,-46.27 436.84,-46.27"/>
<polygon fill="black" stroke="black" points="440.34,-46.27 436.84,-36.27 433.34,-46.27 440.34,-46.27"/>
</g>
<!-- :data:coverart&#45;&gt;:shared:domain -->
<g id="edge22" class="edge">
<title>:data:coverart&#45;&gt;:shared:domain</title>
<path fill="none" stroke="black" stroke-dasharray="1,5" d="M690.84,-273.81C690.84,-273.81 690.84,-183.27 690.84,-183.27"/>
<polygon fill="black" stroke="black" points="694.34,-183.27 690.84,-173.27 687.34,-183.27 694.34,-183.27"/>
</g>
<!-- :data:coverart&#45;&gt;:core:logging:api -->
<g id="edge23" class="edge">
<title>:data:coverart&#45;&gt;:core:logging:api</title>
<path fill="none" stroke="black" stroke-dasharray="1,5" d="M766.96,-292C773.22,-292 777.21,-292 777.21,-292 777.21,-292 777.21,-155 777.21,-155 777.21,-155 894.2,-155 894.2,-155"/>
<polygon fill="black" stroke="black" points="894.2,-158.5 904.2,-155 894.2,-151.5 894.2,-158.5"/>
</g>
<!-- :data:common:network&#45;&gt;:shared:domain -->
<g id="edge25" class="edge">
<title>:data:common:network&#45;&gt;:shared:domain</title>
<path fill="none" stroke="black" stroke-dasharray="1,5" d="M844.65,-276.1C844.65,-238.26 844.65,-146 844.65,-146 844.65,-146 772.34,-146 772.34,-146"/>
<polygon fill="black" stroke="black" points="772.34,-142.5 762.34,-146 772.34,-149.5 772.34,-142.5"/>
</g>
<!-- :data:common:network&#45;&gt;:core:logging:api -->
<g id="edge24" class="edge">
<title>:data:common:network&#45;&gt;:core:logging:api</title>
<path fill="none" stroke="black" stroke-dasharray="1,5" d="M961.64,-276.28C961.64,-276.28 961.64,-182.25 961.64,-182.25"/>
<polygon fill="black" stroke="black" points="965.14,-182.25 961.64,-172.25 958.14,-182.25 965.14,-182.25"/>
</g>
<!-- :ui:image&#45;&gt;:shared:domain -->
<g id="edge26" class="edge">
<title>:ui:image&#45;&gt;:shared:domain</title>
<path fill="none" stroke="black" stroke-dasharray="1,5" d="M538.44,-277.77C538.44,-241.6 538.44,-149 538.44,-149 538.44,-149 602.85,-149 602.85,-149"/>
<polygon fill="black" stroke="black" points="602.85,-152.5 612.85,-149 602.85,-145.5 602.85,-152.5"/>
</g>
<!-- :ui:image&#45;&gt;:ui:core -->
<g id="edge27" class="edge">
<title>:ui:image&#45;&gt;:ui:core</title>
<path fill="none" stroke="black" stroke-dasharray="1,5" d="M466.62,-279.11C466.62,-279.11 466.62,-178.77 466.62,-178.77"/>
<polygon fill="black" stroke="black" points="470.12,-178.77 466.62,-168.77 463.12,-178.77 470.12,-178.77"/>
</g>
</g>
</svg>
