<?xml version="1.0" encoding="UTF-8" standalone="no"?>
<!DOCTYPE svg PUBLIC "-//W3C//DTD SVG 1.1//EN"
 "http://www.w3.org/Graphics/SVG/1.1/DTD/svg11.dtd">
<!-- Generated by graphviz version 2.43.0 (0)
 -->
<!-- Title: %3 Pages: 1 -->
<svg width="1224pt" height="666pt"
 viewBox="0.00 0.00 1224.48 666.00" xmlns="http://www.w3.org/2000/svg" xmlns:xlink="http://www.w3.org/1999/xlink">
<g id="graph0" class="graph" transform="scale(1 1) rotate(0) translate(4 662)">
<title>%3</title>
<polygon fill="white" stroke="transparent" points="-4,4 -4,-662 1220.48,-662 1220.48,4 -4,4"/>
<text text-anchor="middle" x="608.24" y="-630" font-family="Times,serif" font-size="30.00">Dependencies</text>
<text text-anchor="middle" x="608.24" y="-597" font-family="Times,serif" font-size="30.00"> </text>
<!-- :shared:feature:settings -->
<g id="node1" class="node">
<title>:shared:feature:settings</title>
<polygon fill="#b59aff" stroke="black" points="647.64,-584 459.64,-584 459.64,-548 647.64,-548 647.64,-584"/>
<text text-anchor="middle" x="553.64" y="-562.3" font-family="Times,serif" font-size="14.00">:shared:feature:settings</text>
</g>
<!-- :ui:test:screenshot -->
<g id="node2" class="node">
<title>:ui:test:screenshot</title>
<ellipse fill="#9affb5" stroke="black" cx="1119.64" cy="-292" rx="96.68" ry="18"/>
<text text-anchor="middle" x="1119.64" y="-288.3" font-family="Times,serif" font-size="14.00">:ui:test:screenshot</text>
</g>
<!-- :shared:feature:settings&#45;&gt;:ui:test:screenshot -->
<g id="edge1" class="edge">
<title>:shared:feature:settings&#45;&gt;:ui:test:screenshot</title>
<path fill="none" stroke="#ff9ab1" stroke-dasharray="1,5" d="M647.78,-572C816.27,-572 1151.92,-572 1151.92,-572 1151.92,-572 1151.92,-319.09 1151.92,-319.09"/>
<polygon fill="#ff9ab1" stroke="#ff9ab1" points="1155.42,-319.09 1151.92,-309.09 1148.42,-319.09 1155.42,-319.09"/>
</g>
<!-- :core:models -->
<g id="node3" class="node">
<title>:core:models</title>
<ellipse fill="#b59aff" stroke="black" cx="416.64" cy="-18" rx="69.59" ry="18"/>
<text text-anchor="middle" x="416.64" y="-14.3" font-family="Times,serif" font-size="14.00">:core:models</text>
</g>
<!-- :shared:feature:settings&#45;&gt;:core:models -->
<g id="edge2" class="edge">
<title>:shared:feature:settings&#45;&gt;:core:models</title>
<path fill="none" stroke="black" stroke-dasharray="1,5" d="M459.59,-566C352.47,-566 192.09,-566 192.09,-566 192.09,-566 192.09,-18 192.09,-18 192.09,-18 336.82,-18 336.82,-18"/>
<polygon fill="black" stroke="black" points="336.82,-21.5 346.82,-18 336.82,-14.5 336.82,-21.5"/>
</g>
<!-- :core:preferences -->
<g id="node4" class="node">
<title>:core:preferences</title>
<ellipse fill="#b59aff" stroke="black" cx="91.64" cy="-292" rx="91.78" ry="18"/>
<text text-anchor="middle" x="91.64" y="-288.3" font-family="Times,serif" font-size="14.00">:core:preferences</text>
</g>
<!-- :shared:feature:settings&#45;&gt;:core:preferences -->
<g id="edge3" class="edge">
<title>:shared:feature:settings&#45;&gt;:core:preferences</title>
<path fill="none" stroke="black" stroke-dasharray="1,5" d="M459.55,-575C316.58,-575 61.09,-575 61.09,-575 61.09,-575 61.09,-319.28 61.09,-319.28"/>
<polygon fill="black" stroke="black" points="64.59,-319.28 61.09,-309.28 57.59,-319.28 64.59,-319.28"/>
</g>
<!-- :data:musicbrainz -->
<g id="node5" class="node">
<title>:data:musicbrainz</title>
<ellipse fill="#b59aff" stroke="black" cx="746.64" cy="-292" rx="93.68" ry="18"/>
<text text-anchor="middle" x="746.64" y="-288.3" font-family="Times,serif" font-size="14.00">:data:musicbrainz</text>
</g>
<!-- :shared:feature:settings&#45;&gt;:data:musicbrainz -->
<g id="edge4" class="edge">
<title>:shared:feature:settings&#45;&gt;:data:musicbrainz</title>
<path fill="none" stroke="black" stroke-dasharray="1,5" d="M632.81,-548C632.81,-487.91 632.81,-298 632.81,-298 632.81,-298 648.36,-298 648.36,-298"/>
<polygon fill="black" stroke="black" points="648.36,-301.5 658.36,-298 648.36,-294.5 648.36,-301.5"/>
</g>
<!-- :shared:domain -->
<g id="node6" class="node">
<title>:shared:domain</title>
<ellipse fill="#b59aff" stroke="black" cx="416.64" cy="-155" rx="82.59" ry="18"/>
<text text-anchor="middle" x="416.64" y="-151.3" font-family="Times,serif" font-size="14.00">:shared:domain</text>
</g>
<!-- :shared:feature:settings&#45;&gt;:shared:domain -->
<g id="edge5" class="edge">
<title>:shared:feature:settings&#45;&gt;:shared:domain</title>
<path fill="none" stroke="black" stroke-dasharray="1,5" d="M459.42,-557C419.39,-557 381.79,-557 381.79,-557 381.79,-557 381.79,-181.51 381.79,-181.51"/>
<polygon fill="black" stroke="black" points="385.29,-181.51 381.79,-171.51 378.29,-181.51 385.29,-181.51"/>
</g>
<!-- :ui:common -->
<g id="node7" class="node">
<title>:ui:common</title>
<ellipse fill="#b59aff" stroke="black" cx="553.64" cy="-429" rx="64.19" ry="18"/>
<text text-anchor="middle" x="553.64" y="-425.3" font-family="Times,serif" font-size="14.00">:ui:common</text>
</g>
<!-- :shared:feature:settings&#45;&gt;:ui:common -->
<g id="edge6" class="edge">
<title>:shared:feature:settings&#45;&gt;:ui:common</title>
<path fill="none" stroke="black" stroke-dasharray="1,5" d="M553.64,-547.81C553.64,-547.81 553.64,-457.27 553.64,-457.27"/>
<polygon fill="black" stroke="black" points="557.14,-457.27 553.64,-447.27 550.14,-457.27 557.14,-457.27"/>
</g>
<!-- :ui:core -->
<g id="node8" class="node">
<title>:ui:core</title>
<ellipse fill="#b59aff" stroke="black" cx="1056.64" cy="-155" rx="45.49" ry="18"/>
<text text-anchor="middle" x="1056.64" y="-151.3" font-family="Times,serif" font-size="14.00">:ui:core</text>
</g>
<!-- :shared:feature:settings&#45;&gt;:ui:core -->
<g id="edge7" class="edge">
<title>:shared:feature:settings&#45;&gt;:ui:core</title>
<path fill="none" stroke="black" stroke-dasharray="1,5" d="M647.71,-560C783.91,-560 1019.89,-560 1019.89,-560 1019.89,-560 1019.89,-175.83 1019.89,-175.83"/>
<polygon fill="black" stroke="black" points="1023.39,-175.83 1019.89,-165.83 1016.39,-175.83 1023.39,-175.83"/>
</g>
<!-- :ui:test:screenshot&#45;&gt;:ui:core -->
<g id="edge8" class="edge">
<title>:ui:test:screenshot&#45;&gt;:ui:core</title>
<path fill="none" stroke="black" stroke-dasharray="1,5" d="M1062.47,-277.34C1062.47,-277.34 1062.47,-183.01 1062.47,-183.01"/>
<polygon fill="black" stroke="black" points="1065.97,-183.01 1062.47,-173.01 1058.97,-183.01 1065.97,-183.01"/>
</g>
<!-- :core:preferences&#45;&gt;:core:models -->
<g id="edge10" class="edge">
<title>:core:preferences&#45;&gt;:core:models</title>
<path fill="none" stroke="black" stroke-dasharray="1,5" d="M183.31,-292C186.09,-292 187.69,-292 187.69,-292 187.69,-292 187.69,-9 187.69,-9 187.69,-9 346.19,-9 346.19,-9"/>
<polygon fill="black" stroke="black" points="346.19,-12.5 356.19,-9 346.19,-5.5 346.19,-12.5"/>
</g>
<!-- :core:coroutines -->
<g id="node9" class="node">
<title>:core:coroutines</title>
<ellipse fill="#b59aff" stroke="black" cx="91.64" cy="-155" rx="85.29" ry="18"/>
<text text-anchor="middle" x="91.64" y="-151.3" font-family="Times,serif" font-size="14.00">:core:coroutines</text>
</g>
<!-- :core:preferences&#45;&gt;:core:coroutines -->
<g id="edge9" class="edge">
<title>:core:preferences&#45;&gt;:core:coroutines</title>
<path fill="none" stroke="black" stroke-dasharray="1,5" d="M91.64,-273.81C91.64,-273.81 91.64,-183.27 91.64,-183.27"/>
<polygon fill="black" stroke="black" points="95.14,-183.27 91.64,-173.27 88.14,-183.27 95.14,-183.27"/>
</g>
<!-- :data:musicbrainz&#45;&gt;:core:models -->
<g id="edge12" class="edge">
<title>:data:musicbrainz&#45;&gt;:core:models</title>
<path fill="none" stroke="black" stroke-dasharray="1,5" d="M786.13,-275.68C786.13,-216.69 786.13,-18 786.13,-18 786.13,-18 496.57,-18 496.57,-18"/>
<polygon fill="black" stroke="black" points="496.57,-14.5 486.57,-18 496.57,-21.5 496.57,-14.5"/>
</g>
<!-- :core:logging:api -->
<g id="node10" class="node">
<title>:core:logging:api</title>
<ellipse fill="#b59aff" stroke="black" cx="643.64" cy="-155" rx="88.28" ry="18"/>
<text text-anchor="middle" x="643.64" y="-151.3" font-family="Times,serif" font-size="14.00">:core:logging:api</text>
</g>
<!-- :data:musicbrainz&#45;&gt;:core:logging:api -->
<g id="edge11" class="edge">
<title>:data:musicbrainz&#45;&gt;:core:logging:api</title>
<path fill="none" stroke="black" stroke-dasharray="1,5" d="M692.54,-277.08C692.54,-277.08 692.54,-180.32 692.54,-180.32"/>
<polygon fill="black" stroke="black" points="696.04,-180.32 692.54,-170.32 689.04,-180.32 696.04,-180.32"/>
</g>
<!-- :shared:domain&#45;&gt;:core:models -->
<g id="edge13" class="edge">
<title>:shared:domain&#45;&gt;:core:models</title>
<path fill="none" stroke="black" stroke-dasharray="1,5" d="M416.64,-136.81C416.64,-136.81 416.64,-46.27 416.64,-46.27"/>
<polygon fill="black" stroke="black" points="420.14,-46.27 416.64,-36.27 413.14,-46.27 420.14,-46.27"/>
</g>
<!-- :ui:common&#45;&gt;:ui:test:screenshot -->
<g id="edge15" class="edge">
<title>:ui:common&#45;&gt;:ui:test:screenshot</title>
<path fill="none" stroke="#ff9ab1" stroke-dasharray="1,5" d="M609.5,-438C746.36,-438 1087.36,-438 1087.36,-438 1087.36,-438 1087.36,-319.03 1087.36,-319.03"/>
<polygon fill="#ff9ab1" stroke="#ff9ab1" points="1090.86,-319.03 1087.36,-309.03 1083.86,-319.03 1090.86,-319.03"/>
</g>
<!-- :ui:common&#45;&gt;:core:models -->
<g id="edge16" class="edge">
<title>:ui:common&#45;&gt;:core:models</title>
<path fill="none" stroke="black" d="M489.79,-432C387.06,-432 196.49,-432 196.49,-432 196.49,-432 196.49,-27 196.49,-27 196.49,-27 346.19,-27 346.19,-27"/>
<polygon fill="black" stroke="black" points="346.19,-30.5 356.19,-27 346.19,-23.5 346.19,-30.5"/>
</g>
<!-- :ui:common&#45;&gt;:core:preferences -->
<g id="edge19" class="edge">
<title>:ui:common&#45;&gt;:core:preferences</title>
<path fill="none" stroke="black" stroke-dasharray="1,5" d="M499.87,-439C384.21,-439 122.19,-439 122.19,-439 122.19,-439 122.19,-319.15 122.19,-319.15"/>
<polygon fill="black" stroke="black" points="125.69,-319.15 122.19,-309.15 118.69,-319.15 125.69,-319.15"/>
</g>
<!-- :ui:common&#45;&gt;:data:musicbrainz -->
<g id="edge18" class="edge">
<title>:ui:common&#45;&gt;:data:musicbrainz</title>
<path fill="none" stroke="black" stroke-dasharray="1,5" d="M610.89,-420.48C610.89,-389.7 610.89,-286 610.89,-286 610.89,-286 648.37,-286 648.37,-286"/>
<polygon fill="black" stroke="black" points="648.37,-289.5 658.37,-286 648.37,-282.5 648.37,-289.5"/>
</g>
<!-- :ui:common&#45;&gt;:shared:domain -->
<g id="edge21" class="edge">
<title>:ui:common&#45;&gt;:shared:domain</title>
<path fill="none" stroke="black" stroke-dasharray="1,5" d="M502.54,-418C462.38,-418 413.19,-418 413.19,-418 413.19,-418 413.19,-183.08 413.19,-183.08"/>
<polygon fill="black" stroke="black" points="416.69,-183.08 413.19,-173.08 409.69,-183.08 416.69,-183.08"/>
</g>
<!-- :ui:common&#45;&gt;:ui:core -->
<g id="edge22" class="edge">
<title>:ui:common&#45;&gt;:ui:core</title>
<path fill="none" stroke="black" stroke-dasharray="1,5" d="M618.07,-429C745.38,-429 1016.97,-429 1016.97,-429 1016.97,-429 1016.97,-174.12 1016.97,-174.12"/>
<polygon fill="black" stroke="black" points="1020.47,-174.12 1016.97,-164.12 1013.47,-174.12 1020.47,-174.12"/>
</g>
<!-- :ui:common&#45;&gt;:core:logging:api -->
<g id="edge20" class="edge">
<title>:ui:common&#45;&gt;:core:logging:api</title>
<path fill="none" stroke="black" stroke-dasharray="1,5" d="M603.79,-417.58C603.79,-417.58 603.79,-181.08 603.79,-181.08"/>
<polygon fill="black" stroke="black" points="607.29,-181.08 603.79,-171.08 600.29,-181.08 607.29,-181.08"/>
</g>
<!-- :ui:test:image -->
<g id="node11" class="node">
<title>:ui:test:image</title>
<ellipse fill="#9affb5" stroke="black" cx="275.64" cy="-292" rx="74.99" ry="18"/>
<text text-anchor="middle" x="275.64" y="-288.3" font-family="Times,serif" font-size="14.00">:ui:test:image</text>
</g>
<!-- :ui:common&#45;&gt;:ui:test:image -->
<g id="edge14" class="edge">
<title>:ui:common&#45;&gt;:ui:test:image</title>
<path fill="none" stroke="#ff9ab1" stroke-dasharray="1,5" d="M490.56,-425C408.54,-425 275.64,-425 275.64,-425 275.64,-425 275.64,-320.21 275.64,-320.21"/>
<polygon fill="#ff9ab1" stroke="#ff9ab1" points="279.14,-320.21 275.64,-310.21 272.14,-320.21 279.14,-320.21"/>
</g>
<!-- :data:coverart -->
<g id="node12" class="node">
<title>:data:coverart</title>
<ellipse fill="#b59aff" stroke="black" cx="520.64" cy="-292" rx="76.09" ry="18"/>
<text text-anchor="middle" x="520.64" y="-288.3" font-family="Times,serif" font-size="14.00">:data:coverart</text>
</g>
<!-- :ui:common&#45;&gt;:data:coverart -->
<g id="edge17" class="edge">
<title>:ui:common&#45;&gt;:data:coverart</title>
<path fill="none" stroke="black" stroke-dasharray="1,5" d="M542.99,-411.09C542.99,-411.09 542.99,-319.48 542.99,-319.48"/>
<polygon fill="black" stroke="black" points="546.49,-319.48 542.99,-309.48 539.49,-319.48 546.49,-319.48"/>
</g>
<!-- :ui:image -->
<g id="node13" class="node">
<title>:ui:image</title>
<ellipse fill="#b59aff" stroke="black" cx="912.64" cy="-292" rx="53.89" ry="18"/>
<text text-anchor="middle" x="912.64" y="-288.3" font-family="Times,serif" font-size="14.00">:ui:image</text>
</g>
<!-- :ui:common&#45;&gt;:ui:image -->
<g id="edge23" class="edge">
<title>:ui:common&#45;&gt;:ui:image</title>
<path fill="none" stroke="black" stroke-dasharray="1,5" d="M609.74,-420C710.7,-420 912.64,-420 912.64,-420 912.64,-420 912.64,-320.07 912.64,-320.07"/>
<polygon fill="black" stroke="black" points="916.14,-320.07 912.64,-310.07 909.14,-320.07 916.14,-320.07"/>
</g>
<!-- :shared:strings -->
<g id="node14" class="node">
<title>:shared:strings</title>
<ellipse fill="#b59aff" stroke="black" cx="1056.64" cy="-18" rx="81.49" ry="18"/>
<text text-anchor="middle" x="1056.64" y="-14.3" font-family="Times,serif" font-size="14.00">:shared:strings</text>
</g>
<!-- :ui:core&#45;&gt;:shared:strings -->
<g id="edge24" class="edge">
<title>:ui:core&#45;&gt;:shared:strings</title>
<path fill="none" stroke="black" d="M1056.64,-136.81C1056.64,-136.81 1056.64,-46.27 1056.64,-46.27"/>
<polygon fill="black" stroke="black" points="1060.14,-46.27 1056.64,-36.27 1053.14,-46.27 1060.14,-46.27"/>
</g>
<!-- :data:coverart&#45;&gt;:core:models -->
<g id="edge26" class="edge">
<title>:data:coverart&#45;&gt;:core:models</title>
<path fill="none" stroke="black" stroke-dasharray="1,5" d="M527.22,-273.79C527.22,-213.91 527.22,-27 527.22,-27 527.22,-27 487.11,-27 487.11,-27"/>
<polygon fill="black" stroke="black" points="487.11,-23.5 477.11,-27 487.11,-30.5 487.11,-23.5"/>
</g>
<!-- :data:coverart&#45;&gt;:shared:domain -->
<g id="edge27" class="edge">
<title>:data:coverart&#45;&gt;:shared:domain</title>
<path fill="none" stroke="black" stroke-dasharray="1,5" d="M471.89,-278.11C471.89,-278.11 471.89,-178.52 471.89,-178.52"/>
<polygon fill="black" stroke="black" points="475.39,-178.52 471.89,-168.52 468.39,-178.52 475.39,-178.52"/>
</g>
<!-- :data:coverart&#45;&gt;:core:logging:api -->
<g id="edge25" class="edge">
<title>:data:coverart&#45;&gt;:core:logging:api</title>
<path fill="none" stroke="black" stroke-dasharray="1,5" d="M575.97,-279.36C575.97,-279.36 575.97,-176.83 575.97,-176.83"/>
<polygon fill="black" stroke="black" points="579.47,-176.83 575.97,-166.83 572.47,-176.83 579.47,-176.83"/>
</g>
<!-- :ui:image&#45;&gt;:core:models -->
<g id="edge28" class="edge">
<title>:ui:image&#45;&gt;:core:models</title>
<path fill="none" stroke="black" stroke-dasharray="1,5" d="M912.64,-273.87C912.64,-211.41 912.64,-9 912.64,-9 912.64,-9 486.97,-9 486.97,-9"/>
<polygon fill="black" stroke="black" points="486.97,-5.5 476.97,-9 486.97,-12.5 486.97,-5.5"/>
</g>
<!-- :ui:image&#45;&gt;:ui:core -->
<g id="edge29" class="edge">
<title>:ui:image&#45;&gt;:ui:core</title>
<path fill="none" stroke="black" stroke-dasharray="1,5" d="M966.62,-292C990.84,-292 1014.06,-292 1014.06,-292 1014.06,-292 1014.06,-171.61 1014.06,-171.61"/>
<polygon fill="black" stroke="black" points="1017.56,-171.61 1014.06,-161.61 1010.56,-171.61 1017.56,-171.61"/>
</g>
</g>
</svg>
