<?xml version="1.0" encoding="UTF-8" standalone="no"?>
<!DOCTYPE svg PUBLIC "-//W3C//DTD SVG 1.1//EN"
 "http://www.w3.org/Graphics/SVG/1.1/DTD/svg11.dtd">
<!-- Generated by graphviz version 2.43.0 (0)
 -->
<!-- Title: %3 Pages: 1 -->
<svg width="1056pt" height="666pt"
 viewBox="0.00 0.00 1056.23 666.00" xmlns="http://www.w3.org/2000/svg" xmlns:xlink="http://www.w3.org/1999/xlink">
<g id="graph0" class="graph" transform="scale(1 1) rotate(0) translate(4 662)">
<title>%3</title>
<polygon fill="white" stroke="transparent" points="-4,4 -4,-662 1052.23,-662 1052.23,4 -4,4"/>
<text text-anchor="middle" x="524.12" y="-630" font-family="Times,serif" font-size="30.00">Dependencies</text>
<text text-anchor="middle" x="524.12" y="-597" font-family="Times,serif" font-size="30.00"> </text>
<!-- :shared:feature:settings -->
<g id="node1" class="node">
<title>:shared:feature:settings</title>
<polygon fill="#b59aff" stroke="black" points="910.64,-584 722.64,-584 722.64,-548 910.64,-548 910.64,-584"/>
<text text-anchor="middle" x="816.64" y="-562.3" font-family="Times,serif" font-size="14.00">:shared:feature:settings</text>
</g>
<!-- :ui:test:screenshot -->
<g id="node2" class="node">
<title>:ui:test:screenshot</title>
<ellipse fill="#9affb5" stroke="black" cx="297.64" cy="-292" rx="96.68" ry="18"/>
<text text-anchor="middle" x="297.64" y="-288.3" font-family="Times,serif" font-size="14.00">:ui:test:screenshot</text>
</g>
<!-- :shared:feature:settings&#45;&gt;:ui:test:screenshot -->
<g id="edge1" class="edge">
<title>:shared:feature:settings&#45;&gt;:ui:test:screenshot</title>
<path fill="none" stroke="#ff9ab1" stroke-dasharray="1,5" d="M722.5,-560C565.05,-560 265.36,-560 265.36,-560 265.36,-560 265.36,-319.17 265.36,-319.17"/>
<polygon fill="#ff9ab1" stroke="#ff9ab1" points="268.86,-319.17 265.36,-309.17 261.86,-319.17 268.86,-319.17"/>
</g>
<!-- :core:models -->
<g id="node3" class="node">
<title>:core:models</title>
<ellipse fill="#b59aff" stroke="black" cx="624.64" cy="-18" rx="69.59" ry="18"/>
<text text-anchor="middle" x="624.64" y="-14.3" font-family="Times,serif" font-size="14.00">:core:models</text>
</g>
<!-- :shared:feature:settings&#45;&gt;:core:models -->
<g id="edge2" class="edge">
<title>:shared:feature:settings&#45;&gt;:core:models</title>
<path fill="none" stroke="black" stroke-dasharray="1,5" d="M838.07,-547.76C838.07,-453.6 838.07,-27 838.07,-27 838.07,-27 694.95,-27 694.95,-27"/>
<polygon fill="black" stroke="black" points="694.95,-23.5 684.95,-27 694.95,-30.5 694.95,-23.5"/>
</g>
<!-- :core:preferences -->
<g id="node4" class="node">
<title>:core:preferences</title>
<ellipse fill="#b59aff" stroke="black" cx="91.64" cy="-292" rx="91.78" ry="18"/>
<text text-anchor="middle" x="91.64" y="-288.3" font-family="Times,serif" font-size="14.00">:core:preferences</text>
</g>
<!-- :shared:feature:settings&#45;&gt;:core:preferences -->
<g id="edge3" class="edge">
<title>:shared:feature:settings&#45;&gt;:core:preferences</title>
<path fill="none" stroke="black" stroke-dasharray="1,5" d="M722.48,-572C519.94,-572 61.09,-572 61.09,-572 61.09,-572 61.09,-319.09 61.09,-319.09"/>
<polygon fill="black" stroke="black" points="64.59,-319.09 61.09,-309.09 57.59,-319.09 64.59,-319.09"/>
</g>
<!-- :data:musicbrainz -->
<g id="node5" class="node">
<title>:data:musicbrainz</title>
<ellipse fill="#b59aff" stroke="black" cx="954.64" cy="-292" rx="93.68" ry="18"/>
<text text-anchor="middle" x="954.64" y="-288.3" font-family="Times,serif" font-size="14.00">:data:musicbrainz</text>
</g>
<!-- :shared:feature:settings&#45;&gt;:data:musicbrainz -->
<g id="edge4" class="edge">
<title>:shared:feature:settings&#45;&gt;:data:musicbrainz</title>
<path fill="none" stroke="black" stroke-dasharray="1,5" d="M894.11,-547.6C894.11,-547.6 894.11,-315.91 894.11,-315.91"/>
<polygon fill="black" stroke="black" points="897.61,-315.91 894.11,-305.91 890.61,-315.91 897.61,-315.91"/>
</g>
<!-- :shared:domain -->
<g id="node6" class="node">
<title>:shared:domain</title>
<ellipse fill="#b59aff" stroke="black" cx="929.64" cy="-155" rx="82.59" ry="18"/>
<text text-anchor="middle" x="929.64" y="-151.3" font-family="Times,serif" font-size="14.00">:shared:domain</text>
</g>
<!-- :shared:feature:settings&#45;&gt;:shared:domain -->
<g id="edge5" class="edge">
<title>:shared:feature:settings&#45;&gt;:shared:domain</title>
<path fill="none" stroke="black" stroke-dasharray="1,5" d="M857.56,-547.81C857.56,-547.81 857.56,-173.78 857.56,-173.78"/>
<polygon fill="black" stroke="black" points="861.06,-173.78 857.56,-163.78 854.06,-173.78 861.06,-173.78"/>
</g>
<!-- :ui:common -->
<g id="node7" class="node">
<title>:ui:common</title>
<ellipse fill="#b59aff" stroke="black" cx="632.64" cy="-429" rx="64.19" ry="18"/>
<text text-anchor="middle" x="632.64" y="-425.3" font-family="Times,serif" font-size="14.00">:ui:common</text>
</g>
<!-- :shared:feature:settings&#45;&gt;:ui:common -->
<g id="edge6" class="edge">
<title>:shared:feature:settings&#45;&gt;:ui:common</title>
<path fill="none" stroke="black" stroke-dasharray="1,5" d="M744.66,-547.93C744.66,-512.65 744.66,-438 744.66,-438 744.66,-438 698.65,-438 698.65,-438"/>
<polygon fill="black" stroke="black" points="698.65,-434.5 688.65,-438 698.65,-441.5 698.65,-434.5"/>
</g>
<!-- :ui:core -->
<g id="node8" class="node">
<title>:ui:core</title>
<ellipse fill="#b59aff" stroke="black" cx="422.64" cy="-155" rx="45.49" ry="18"/>
<text text-anchor="middle" x="422.64" y="-151.3" font-family="Times,serif" font-size="14.00">:ui:core</text>
</g>
<!-- :ui:test:screenshot&#45;&gt;:ui:core -->
<g id="edge7" class="edge">
<title>:ui:test:screenshot&#45;&gt;:ui:core</title>
<path fill="none" stroke="black" stroke-dasharray="1,5" d="M385.81,-284.24C385.81,-284.24 385.81,-175.58 385.81,-175.58"/>
<polygon fill="black" stroke="black" points="389.31,-175.58 385.81,-165.58 382.31,-175.58 389.31,-175.58"/>
</g>
<!-- :core:preferences&#45;&gt;:core:models -->
<g id="edge9" class="edge">
<title>:core:preferences&#45;&gt;:core:models</title>
<path fill="none" stroke="black" stroke-dasharray="1,5" d="M120.02,-274.59C120.02,-254.15 120.02,-223 120.02,-223 120.02,-223 561.82,-223 561.82,-223 561.82,-223 561.82,-35.79 561.82,-35.79"/>
<polygon fill="black" stroke="black" points="565.32,-35.79 561.82,-25.79 558.32,-35.79 565.32,-35.79"/>
</g>
<!-- :core:coroutines -->
<g id="node9" class="node">
<title>:core:coroutines</title>
<ellipse fill="#b59aff" stroke="black" cx="91.64" cy="-155" rx="85.29" ry="18"/>
<text text-anchor="middle" x="91.64" y="-151.3" font-family="Times,serif" font-size="14.00">:core:coroutines</text>
</g>
<!-- :core:preferences&#45;&gt;:core:coroutines -->
<g id="edge8" class="edge">
<title>:core:preferences&#45;&gt;:core:coroutines</title>
<path fill="none" stroke="black" stroke-dasharray="1,5" d="M63.26,-274.65C63.26,-274.65 63.26,-182.21 63.26,-182.21"/>
<polygon fill="black" stroke="black" points="66.76,-182.21 63.26,-172.21 59.76,-182.21 66.76,-182.21"/>
</g>
<!-- :data:musicbrainz&#45;&gt;:core:models -->
<g id="edge11" class="edge">
<title>:data:musicbrainz&#45;&gt;:core:models</title>
<path fill="none" stroke="black" stroke-dasharray="1,5" d="M1030.21,-281.25C1030.21,-229.56 1030.21,-9 1030.21,-9 1030.21,-9 694.92,-9 694.92,-9"/>
<polygon fill="black" stroke="black" points="694.92,-5.5 684.92,-9 694.92,-12.5 694.92,-5.5"/>
</g>
<!-- :core:logging:api -->
<g id="node10" class="node">
<title>:core:logging:api</title>
<ellipse fill="#b59aff" stroke="black" cx="740.64" cy="-155" rx="88.28" ry="18"/>
<text text-anchor="middle" x="740.64" y="-151.3" font-family="Times,serif" font-size="14.00">:core:logging:api</text>
</g>
<!-- :data:musicbrainz&#45;&gt;:core:logging:api -->
<g id="edge10" class="edge">
<title>:data:musicbrainz&#45;&gt;:core:logging:api</title>
<path fill="none" stroke="black" stroke-dasharray="1,5" d="M866.17,-286C830.61,-286 797.86,-286 797.86,-286 797.86,-286 797.86,-179.02 797.86,-179.02"/>
<polygon fill="black" stroke="black" points="801.36,-179.02 797.86,-169.02 794.36,-179.02 801.36,-179.02"/>
</g>
<!-- :shared:domain&#45;&gt;:core:models -->
<g id="edge12" class="edge">
<title>:shared:domain&#45;&gt;:core:models</title>
<path fill="none" stroke="black" stroke-dasharray="1,5" d="M929.64,-136.81C929.64,-99.54 929.64,-18 929.64,-18 929.64,-18 704.23,-18 704.23,-18"/>
<polygon fill="black" stroke="black" points="704.23,-14.5 694.23,-18 704.23,-21.5 704.23,-14.5"/>
</g>
<!-- :ui:common&#45;&gt;:ui:test:screenshot -->
<g id="edge13" class="edge">
<title>:ui:common&#45;&gt;:ui:test:screenshot</title>
<path fill="none" stroke="#ff9ab1" stroke-dasharray="1,5" d="M571.75,-423C483.35,-423 329.92,-423 329.92,-423 329.92,-423 329.92,-319.13 329.92,-319.13"/>
<polygon fill="#ff9ab1" stroke="#ff9ab1" points="333.42,-319.13 329.92,-309.13 326.42,-319.13 333.42,-319.13"/>
</g>
<!-- :ui:common&#45;&gt;:core:models -->
<g id="edge14" class="edge">
<title>:ui:common&#45;&gt;:core:models</title>
<path fill="none" stroke="black" d="M596.08,-413.88C596.08,-413.88 596.08,-44.59 596.08,-44.59"/>
<polygon fill="black" stroke="black" points="599.58,-44.59 596.08,-34.59 592.58,-44.59 599.58,-44.59"/>
</g>
<!-- :ui:common&#45;&gt;:core:preferences -->
<g id="edge18" class="edge">
<title>:ui:common&#45;&gt;:core:preferences</title>
<path fill="none" stroke="black" stroke-dasharray="1,5" d="M571.83,-435C436.48,-435 122.19,-435 122.19,-435 122.19,-435 122.19,-319.25 122.19,-319.25"/>
<polygon fill="black" stroke="black" points="125.69,-319.25 122.19,-309.25 118.69,-319.25 125.69,-319.25"/>
</g>
<!-- :ui:common&#45;&gt;:data:musicbrainz -->
<g id="edge17" class="edge">
<title>:ui:common&#45;&gt;:data:musicbrainz</title>
<path fill="none" stroke="black" stroke-dasharray="1,5" d="M697,-429C769.57,-429 877.58,-429 877.58,-429 877.58,-429 877.58,-312.3 877.58,-312.3"/>
<polygon fill="black" stroke="black" points="881.08,-312.3 877.58,-302.3 874.08,-312.3 881.08,-312.3"/>
</g>
<!-- :ui:common&#45;&gt;:shared:domain -->
<g id="edge20" class="edge">
<title>:ui:common&#45;&gt;:shared:domain</title>
<path fill="none" stroke="black" stroke-dasharray="1,5" d="M688.52,-420C754.12,-420 854.07,-420 854.07,-420 854.07,-420 854.07,-172.36 854.07,-172.36"/>
<polygon fill="black" stroke="black" points="857.57,-172.36 854.07,-162.36 850.57,-172.36 857.57,-172.36"/>
</g>
<!-- :ui:common&#45;&gt;:ui:core -->
<g id="edge15" class="edge">
<title>:ui:common&#45;&gt;:ui:core</title>
<path fill="none" stroke="black" d="M586.82,-416.07C586.82,-362.54 586.82,-161 586.82,-161 586.82,-161 475.78,-161 475.78,-161"/>
<polygon fill="black" stroke="black" points="475.78,-157.5 465.78,-161 475.78,-164.5 475.78,-157.5"/>
</g>
<!-- :ui:common&#45;&gt;:core:logging:api -->
<g id="edge19" class="edge">
<title>:ui:common&#45;&gt;:core:logging:api</title>
<path fill="none" stroke="black" stroke-dasharray="1,5" d="M605.34,-412.32C605.34,-352.04 605.34,-149 605.34,-149 605.34,-149 647.26,-149 647.26,-149"/>
<polygon fill="black" stroke="black" points="647.26,-152.5 657.26,-149 647.26,-145.5 647.26,-152.5"/>
</g>
<!-- :data:coverart -->
<g id="node11" class="node">
<title>:data:coverart</title>
<ellipse fill="#b59aff" stroke="black" cx="690.64" cy="-292" rx="76.09" ry="18"/>
<text text-anchor="middle" x="690.64" y="-288.3" font-family="Times,serif" font-size="14.00">:data:coverart</text>
</g>
<!-- :ui:common&#45;&gt;:data:coverart -->
<g id="edge16" class="edge">
<title>:ui:common&#45;&gt;:data:coverart</title>
<path fill="none" stroke="black" stroke-dasharray="1,5" d="M655.79,-412.2C655.79,-412.2 655.79,-318.08 655.79,-318.08"/>
<polygon fill="black" stroke="black" points="659.29,-318.08 655.79,-308.08 652.29,-318.08 659.29,-318.08"/>
</g>
<!-- :ui:image -->
<g id="node12" class="node">
<title>:ui:image</title>
<ellipse fill="#b59aff" stroke="black" cx="504.64" cy="-292" rx="53.89" ry="18"/>
<text text-anchor="middle" x="504.64" y="-288.3" font-family="Times,serif" font-size="14.00">:ui:image</text>
</g>
<!-- :ui:common&#45;&gt;:ui:image -->
<g id="edge21" class="edge">
<title>:ui:common&#45;&gt;:ui:image</title>
<path fill="none" stroke="black" stroke-dasharray="1,5" d="M577.56,-419.62C577.56,-387.8 577.56,-286 577.56,-286 577.56,-286 565.68,-286 565.68,-286"/>
<polygon fill="black" stroke="black" points="565.68,-282.5 555.68,-286 565.68,-289.5 565.68,-282.5"/>
</g>
<!-- :shared:strings -->
<g id="node13" class="node">
<title>:shared:strings</title>
<ellipse fill="#b59aff" stroke="black" cx="422.64" cy="-18" rx="81.49" ry="18"/>
<text text-anchor="middle" x="422.64" y="-14.3" font-family="Times,serif" font-size="14.00">:shared:strings</text>
</g>
<!-- :ui:core&#45;&gt;:shared:strings -->
<g id="edge22" class="edge">
<title>:ui:core&#45;&gt;:shared:strings</title>
<path fill="none" stroke="black" d="M422.64,-136.81C422.64,-136.81 422.64,-46.27 422.64,-46.27"/>
<polygon fill="black" stroke="black" points="426.14,-46.27 422.64,-36.27 419.14,-46.27 426.14,-46.27"/>
</g>
<!-- :data:coverart&#45;&gt;:core:models -->
<g id="edge24" class="edge">
<title>:data:coverart&#45;&gt;:core:models</title>
<path fill="none" stroke="black" stroke-dasharray="1,5" d="M633.42,-279.87C633.42,-279.87 633.42,-46.11 633.42,-46.11"/>
<polygon fill="black" stroke="black" points="636.92,-46.11 633.42,-36.11 629.92,-46.11 636.92,-46.11"/>
</g>
<!-- :data:coverart&#45;&gt;:shared:domain -->
<g id="edge25" class="edge">
<title>:data:coverart&#45;&gt;:shared:domain</title>
<path fill="none" stroke="black" stroke-dasharray="1,5" d="M762.66,-298C805.11,-298 850.59,-298 850.59,-298 850.59,-298 850.59,-170.43 850.59,-170.43"/>
<polygon fill="black" stroke="black" points="854.09,-170.43 850.59,-160.43 847.09,-170.43 854.09,-170.43"/>
</g>
<!-- :data:coverart&#45;&gt;:core:logging:api -->
<g id="edge23" class="edge">
<title>:data:coverart&#45;&gt;:core:logging:api</title>
<path fill="none" stroke="black" stroke-dasharray="1,5" d="M709.47,-274.37C709.47,-274.37 709.47,-182.13 709.47,-182.13"/>
<polygon fill="black" stroke="black" points="712.97,-182.13 709.47,-172.13 705.97,-182.13 712.97,-182.13"/>
</g>
<!-- :ui:image&#45;&gt;:core:models -->
<g id="edge26" class="edge">
<title>:ui:image&#45;&gt;:core:models</title>
<path fill="none" stroke="black" stroke-dasharray="1,5" d="M555.62,-298C561.28,-298 565.06,-298 565.06,-298 565.06,-298 565.06,-37.32 565.06,-37.32"/>
<polygon fill="black" stroke="black" points="568.56,-37.32 565.06,-27.32 561.56,-37.32 568.56,-37.32"/>
</g>
<!-- :ui:image&#45;&gt;:ui:core -->
<g id="edge27" class="edge">
<title>:ui:image&#45;&gt;:ui:core</title>
<path fill="none" stroke="black" stroke-dasharray="1,5" d="M459.42,-282.15C459.42,-282.15 459.42,-175.89 459.42,-175.89"/>
<polygon fill="black" stroke="black" points="462.92,-175.89 459.42,-165.89 455.92,-175.89 462.92,-175.89"/>
</g>
</g>
</svg>
