<?xml version="1.0" encoding="UTF-8" standalone="no"?>
<!DOCTYPE svg PUBLIC "-//W3C//DTD SVG 1.1//EN"
 "http://www.w3.org/Graphics/SVG/1.1/DTD/svg11.dtd">
<!-- Generated by graphviz version 2.43.0 (0)
 -->
<!-- Title: %3 Pages: 1 -->
<svg width="1190pt" height="940pt"
 viewBox="0.00 0.00 1190.23 940.00" xmlns="http://www.w3.org/2000/svg" xmlns:xlink="http://www.w3.org/1999/xlink">
<g id="graph0" class="graph" transform="scale(1 1) rotate(0) translate(4 936)">
<title>%3</title>
<polygon fill="white" stroke="transparent" points="-4,4 -4,-936 1186.23,-936 1186.23,4 -4,4"/>
<text text-anchor="middle" x="591.12" y="-904" font-family="Times,serif" font-size="30.00">Dependencies</text>
<text text-anchor="middle" x="591.12" y="-871" font-family="Times,serif" font-size="30.00"> </text>
<!-- :shared:feature:settings -->
<g id="node1" class="node">
<title>:shared:feature:settings</title>
<polygon fill="#b59aff" stroke="black" points="554.84,-858 366.84,-858 366.84,-822 554.84,-822 554.84,-858"/>
<text text-anchor="middle" x="460.84" y="-836.3" font-family="Times,serif" font-size="14.00">:shared:feature:settings</text>
</g>
<!-- :ui:test:screenshot -->
<g id="node2" class="node">
<title>:ui:test:screenshot</title>
<ellipse fill="#9affb5" stroke="black" cx="96.84" cy="-566" rx="96.68" ry="18"/>
<text text-anchor="middle" x="96.84" y="-562.3" font-family="Times,serif" font-size="14.00">:ui:test:screenshot</text>
</g>
<!-- :shared:feature:settings&#45;&gt;:ui:test:screenshot -->
<g id="edge1" class="edge">
<title>:shared:feature:settings&#45;&gt;:ui:test:screenshot</title>
<path fill="none" stroke="#ff9ab1" stroke-dasharray="1,5" d="M366.68,-840C249.48,-840 64.56,-840 64.56,-840 64.56,-840 64.56,-593.14 64.56,-593.14"/>
<polygon fill="#ff9ab1" stroke="#ff9ab1" points="68.06,-593.14 64.56,-583.14 61.06,-593.14 68.06,-593.14"/>
</g>
<!-- :ui:common -->
<g id="node3" class="node">
<title>:ui:common</title>
<ellipse fill="#b59aff" stroke="black" cx="460.84" cy="-703" rx="64.19" ry="18"/>
<text text-anchor="middle" x="460.84" y="-699.3" font-family="Times,serif" font-size="14.00">:ui:common</text>
</g>
<!-- :shared:feature:settings&#45;&gt;:ui:common -->
<g id="edge2" class="edge">
<title>:shared:feature:settings&#45;&gt;:ui:common</title>
<path fill="none" stroke="black" stroke-dasharray="1,5" d="M460.84,-821.81C460.84,-821.81 460.84,-731.27 460.84,-731.27"/>
<polygon fill="black" stroke="black" points="464.34,-731.27 460.84,-721.27 457.34,-731.27 464.34,-731.27"/>
</g>
<!-- :shared:domain -->
<g id="node4" class="node">
<title>:shared:domain</title>
<ellipse fill="#b59aff" stroke="black" cx="685.84" cy="-18" rx="82.59" ry="18"/>
<text text-anchor="middle" x="685.84" y="-14.3" font-family="Times,serif" font-size="14.00">:shared:domain</text>
</g>
<!-- :shared:feature:settings&#45;&gt;:shared:domain -->
<g id="edge3" class="edge">
<title>:shared:feature:settings&#45;&gt;:shared:domain</title>
<path fill="none" stroke="black" stroke-dasharray="1,5" d="M529.55,-821.72C529.55,-721.16 529.55,-240 529.55,-240 529.55,-240 668.27,-240 668.27,-240 668.27,-240 668.27,-45.79 668.27,-45.79"/>
<polygon fill="black" stroke="black" points="671.77,-45.79 668.27,-35.79 664.77,-45.79 671.77,-45.79"/>
</g>
<!-- :ui:core -->
<g id="node5" class="node">
<title>:ui:core</title>
<ellipse fill="#b59aff" stroke="black" cx="346.84" cy="-429" rx="45.49" ry="18"/>
<text text-anchor="middle" x="346.84" y="-425.3" font-family="Times,serif" font-size="14.00">:ui:core</text>
</g>
<!-- :ui:test:screenshot&#45;&gt;:ui:core -->
<g id="edge4" class="edge">
<title>:ui:test:screenshot&#45;&gt;:ui:core</title>
<path fill="none" stroke="black" stroke-dasharray="1,5" d="M176.78,-555.7C176.78,-523.84 176.78,-429 176.78,-429 176.78,-429 291.27,-429 291.27,-429"/>
<polygon fill="black" stroke="black" points="291.27,-432.5 301.27,-429 291.27,-425.5 291.27,-432.5"/>
</g>
<!-- :test:image -->
<g id="node6" class="node">
<title>:test:image</title>
<ellipse fill="#9affb5" stroke="black" cx="96.84" cy="-429" rx="63.09" ry="18"/>
<text text-anchor="middle" x="96.84" y="-425.3" font-family="Times,serif" font-size="14.00">:test:image</text>
</g>
<!-- :ui:test:screenshot&#45;&gt;:test:image -->
<g id="edge5" class="edge">
<title>:ui:test:screenshot&#45;&gt;:test:image</title>
<path fill="none" stroke="black" stroke-dasharray="1,5" d="M96.84,-547.81C96.84,-547.81 96.84,-457.27 96.84,-457.27"/>
<polygon fill="black" stroke="black" points="100.34,-457.27 96.84,-447.27 93.34,-457.27 100.34,-457.27"/>
</g>
<!-- :ui:common&#45;&gt;:ui:test:screenshot -->
<g id="edge7" class="edge">
<title>:ui:common&#45;&gt;:ui:test:screenshot</title>
<path fill="none" stroke="#ff9ab1" stroke-dasharray="1,5" d="M400,-709C304.23,-709 129.12,-709 129.12,-709 129.12,-709 129.12,-593.25 129.12,-593.25"/>
<polygon fill="#ff9ab1" stroke="#ff9ab1" points="132.62,-593.25 129.12,-583.25 125.62,-593.25 132.62,-593.25"/>
</g>
<!-- :ui:common&#45;&gt;:shared:domain -->
<g id="edge9" class="edge">
<title>:ui:common&#45;&gt;:shared:domain</title>
<path fill="none" stroke="black" d="M479.13,-685.6C479.13,-597.64 479.13,-206 479.13,-206 479.13,-206 635.79,-206 635.79,-206 635.79,-206 635.79,-42.44 635.79,-42.44"/>
<polygon fill="black" stroke="black" points="639.29,-42.44 635.79,-32.44 632.29,-42.44 639.29,-42.44"/>
</g>
<!-- :ui:common&#45;&gt;:ui:core -->
<g id="edge10" class="edge">
<title>:ui:common&#45;&gt;:ui:core</title>
<path fill="none" stroke="black" d="M414.79,-690.24C414.79,-635.47 414.79,-423 414.79,-423 414.79,-423 399.87,-423 399.87,-423"/>
<polygon fill="black" stroke="black" points="399.87,-419.5 389.87,-423 399.87,-426.5 399.87,-419.5"/>
</g>
<!-- :test&#45;data -->
<g id="node7" class="node">
<title>:test&#45;data</title>
<ellipse fill="#b59aff" stroke="black" cx="665.84" cy="-566" rx="55.49" ry="18"/>
<text text-anchor="middle" x="665.84" y="-562.3" font-family="Times,serif" font-size="14.00">:test&#45;data</text>
</g>
<!-- :ui:common&#45;&gt;:test&#45;data -->
<g id="edge6" class="edge">
<title>:ui:common&#45;&gt;:test&#45;data</title>
<path fill="none" stroke="#ff9ab1" stroke-dasharray="1,5" d="M502.16,-688.98C502.16,-655.19 502.16,-572 502.16,-572 502.16,-572 603.6,-572 603.6,-572"/>
<polygon fill="#ff9ab1" stroke="#ff9ab1" points="603.6,-575.5 613.6,-572 603.6,-568.5 603.6,-575.5"/>
</g>
<!-- :core:coroutines -->
<g id="node8" class="node">
<title>:core:coroutines</title>
<ellipse fill="#b59aff" stroke="black" cx="461.84" cy="-155" rx="85.29" ry="18"/>
<text text-anchor="middle" x="461.84" y="-151.3" font-family="Times,serif" font-size="14.00">:core:coroutines</text>
</g>
<!-- :ui:common&#45;&gt;:core:coroutines -->
<g id="edge8" class="edge">
<title>:ui:common&#45;&gt;:core:coroutines</title>
<path fill="none" stroke="#ff9ab1" stroke-dasharray="1,5" d="M456.11,-684.77C456.11,-684.77 456.11,-183.02 456.11,-183.02"/>
<polygon fill="#ff9ab1" stroke="#ff9ab1" points="459.61,-183.02 456.11,-173.02 452.61,-183.02 459.61,-183.02"/>
</g>
<!-- :data:coverart -->
<g id="node9" class="node">
<title>:data:coverart</title>
<ellipse fill="#b59aff" stroke="black" cx="624.84" cy="-429" rx="76.09" ry="18"/>
<text text-anchor="middle" x="624.84" y="-425.3" font-family="Times,serif" font-size="14.00">:data:coverart</text>
</g>
<!-- :ui:common&#45;&gt;:data:coverart -->
<g id="edge11" class="edge">
<title>:ui:common&#45;&gt;:data:coverart</title>
<path fill="none" stroke="black" stroke-dasharray="1,5" d="M516.79,-694C548.83,-694 582.72,-694 582.72,-694 582.72,-694 582.72,-454.01 582.72,-454.01"/>
<polygon fill="black" stroke="black" points="586.22,-454.01 582.72,-444.01 579.22,-454.01 586.22,-454.01"/>
</g>
<!-- :data:musicbrainz -->
<g id="node10" class="node">
<title>:data:musicbrainz</title>
<ellipse fill="#b59aff" stroke="black" cx="826.84" cy="-155" rx="93.68" ry="18"/>
<text text-anchor="middle" x="826.84" y="-151.3" font-family="Times,serif" font-size="14.00">:data:musicbrainz</text>
</g>
<!-- :ui:common&#45;&gt;:data:musicbrainz -->
<g id="edge12" class="edge">
<title>:ui:common&#45;&gt;:data:musicbrainz</title>
<path fill="none" stroke="black" stroke-dasharray="1,5" d="M525.51,-703C643.26,-703 880.61,-703 880.61,-703 880.61,-703 880.61,-179.94 880.61,-179.94"/>
<polygon fill="black" stroke="black" points="884.11,-179.94 880.61,-169.94 877.11,-179.94 884.11,-179.94"/>
</g>
<!-- :core:logging:api -->
<g id="node11" class="node">
<title>:core:logging:api</title>
<ellipse fill="#b59aff" stroke="black" cx="1093.84" cy="-18" rx="88.28" ry="18"/>
<text text-anchor="middle" x="1093.84" y="-14.3" font-family="Times,serif" font-size="14.00">:core:logging:api</text>
</g>
<!-- :ui:common&#45;&gt;:core:logging:api -->
<g id="edge13" class="edge">
<title>:ui:common&#45;&gt;:core:logging:api</title>
<path fill="none" stroke="black" stroke-dasharray="1,5" d="M516.85,-712C682.7,-712 1159.73,-712 1159.73,-712 1159.73,-712 1159.73,-40.05 1159.73,-40.05"/>
<polygon fill="black" stroke="black" points="1163.23,-40.05 1159.73,-30.05 1156.23,-40.05 1163.23,-40.05"/>
</g>
<!-- :ui:image -->
<g id="node12" class="node">
<title>:ui:image</title>
<ellipse fill="#b59aff" stroke="black" cx="340.84" cy="-566" rx="53.89" ry="18"/>
<text text-anchor="middle" x="340.84" y="-562.3" font-family="Times,serif" font-size="14.00">:ui:image</text>
</g>
<!-- :ui:common&#45;&gt;:ui:image -->
<g id="edge14" class="edge">
<title>:ui:common&#45;&gt;:ui:image</title>
<path fill="none" stroke="black" stroke-dasharray="1,5" d="M399.78,-697C388.83,-697 380.81,-697 380.81,-697 380.81,-697 380.81,-588.09 380.81,-588.09"/>
<polygon fill="black" stroke="black" points="384.31,-588.09 380.81,-578.09 377.31,-588.09 384.31,-588.09"/>
</g>
<!-- :shared:strings -->
<g id="node13" class="node">
<title>:shared:strings</title>
<ellipse fill="#b59aff" stroke="black" cx="351.84" cy="-292" rx="81.49" ry="18"/>
<text text-anchor="middle" x="351.84" y="-288.3" font-family="Times,serif" font-size="14.00">:shared:strings</text>
</g>
<!-- :ui:core&#45;&gt;:shared:strings -->
<g id="edge15" class="edge">
<title>:ui:core&#45;&gt;:shared:strings</title>
<path fill="none" stroke="black" d="M346.84,-410.81C346.84,-410.81 346.84,-320.27 346.84,-320.27"/>
<polygon fill="black" stroke="black" points="350.34,-320.27 346.84,-310.27 343.34,-320.27 350.34,-320.27"/>
</g>
<!-- :test&#45;data&#45;&gt;:shared:domain -->
<g id="edge16" class="edge">
<title>:test&#45;data&#45;&gt;:shared:domain</title>
<path fill="none" stroke="black" stroke-dasharray="1,5" d="M721.39,-566C803.76,-566 948.69,-566 948.69,-566 948.69,-566 948.69,-27 948.69,-27 948.69,-27 767.67,-27 767.67,-27"/>
<polygon fill="black" stroke="black" points="767.67,-23.5 757.67,-27 767.67,-30.5 767.67,-23.5"/>
</g>
<!-- :test&#45;data&#45;&gt;:core:coroutines -->
<g id="edge17" class="edge">
<title>:test&#45;data&#45;&gt;:core:coroutines</title>
<path fill="none" stroke="black" stroke-dasharray="1,5" d="M613.7,-560C576.82,-560 533.9,-560 533.9,-560 533.9,-560 533.9,-174.61 533.9,-174.61"/>
<polygon fill="black" stroke="black" points="537.41,-174.61 533.9,-164.61 530.41,-174.61 537.41,-174.61"/>
</g>
<!-- :test&#45;data&#45;&gt;:data:coverart -->
<g id="edge20" class="edge">
<title>:test&#45;data&#45;&gt;:data:coverart</title>
<path fill="none" stroke="black" stroke-dasharray="1,5" d="M640.69,-549.75C640.69,-549.75 640.69,-456.97 640.69,-456.97"/>
<polygon fill="black" stroke="black" points="644.19,-456.97 640.69,-446.97 637.19,-456.97 644.19,-456.97"/>
</g>
<!-- :test&#45;data&#45;&gt;:data:musicbrainz -->
<g id="edge19" class="edge">
<title>:test&#45;data&#45;&gt;:data:musicbrainz</title>
<path fill="none" stroke="black" stroke-dasharray="1,5" d="M714.11,-557C765.89,-557 840.78,-557 840.78,-557 840.78,-557 840.78,-183.05 840.78,-183.05"/>
<polygon fill="black" stroke="black" points="844.28,-183.05 840.78,-173.05 837.28,-183.05 844.28,-183.05"/>
</g>
<!-- :data:database -->
<g id="node14" class="node">
<title>:data:database</title>
<ellipse fill="#b59aff" stroke="black" cx="681.84" cy="-292" rx="79.09" ry="18"/>
<text text-anchor="middle" x="681.84" y="-288.3" font-family="Times,serif" font-size="14.00">:data:database</text>
</g>
<!-- :test&#45;data&#45;&gt;:data:database -->
<g id="edge18" class="edge">
<title>:test&#45;data&#45;&gt;:data:database</title>
<path fill="none" stroke="black" stroke-dasharray="1,5" d="M710.99,-555.59C710.99,-555.59 710.99,-319.01 710.99,-319.01"/>
<polygon fill="black" stroke="black" points="714.49,-319.01 710.99,-309.01 707.49,-319.01 714.49,-319.01"/>
</g>
<!-- :data:spotify -->
<g id="node15" class="node">
<title>:data:spotify</title>
<ellipse fill="#b59aff" stroke="black" cx="1045.84" cy="-155" rx="68.79" ry="18"/>
<text text-anchor="middle" x="1045.84" y="-151.3" font-family="Times,serif" font-size="14.00">:data:spotify</text>
</g>
<!-- :test&#45;data&#45;&gt;:data:spotify -->
<g id="edge21" class="edge">
<title>:test&#45;data&#45;&gt;:data:spotify</title>
<path fill="none" stroke="black" stroke-dasharray="1,5" d="M713.97,-575C816.22,-575 1045.84,-575 1045.84,-575 1045.84,-575 1045.84,-183.05 1045.84,-183.05"/>
<polygon fill="black" stroke="black" points="1049.34,-183.05 1045.84,-173.05 1042.34,-183.05 1049.34,-183.05"/>
</g>
<!-- :data:coverart&#45;&gt;:shared:domain -->
<g id="edge22" class="edge">
<title>:data:coverart&#45;&gt;:shared:domain</title>
<path fill="none" stroke="black" stroke-dasharray="1,5" d="M575.67,-415.06C575.67,-343.84 575.67,-24 575.67,-24 575.67,-24 597.83,-24 597.83,-24"/>
<polygon fill="black" stroke="black" points="597.83,-27.5 607.83,-24 597.83,-20.5 597.83,-27.5"/>
</g>
<!-- :data:coverart&#45;&gt;:test&#45;data -->
<g id="edge25" class="edge">
<title>:data:coverart&#45;&gt;:test&#45;data</title>
<path fill="none" stroke="#ff9ab1" stroke-dasharray="1,5" d="M670.79,-443.4C670.79,-443.4 670.79,-537.91 670.79,-537.91"/>
<polygon fill="#ff9ab1" stroke="#ff9ab1" points="667.29,-537.91 670.79,-547.91 674.29,-537.91 667.29,-537.91"/>
</g>
<!-- :data:coverart&#45;&gt;:core:coroutines -->
<g id="edge24" class="edge">
<title>:data:coverart&#45;&gt;:core:coroutines</title>
<path fill="none" stroke="black" stroke-dasharray="1,5" d="M552.95,-435C544.19,-435 538.26,-435 538.26,-435 538.26,-435 538.26,-173.08 538.26,-173.08"/>
<polygon fill="black" stroke="black" points="541.76,-173.08 538.26,-163.08 534.76,-173.08 541.76,-173.08"/>
</g>
<!-- :data:coverart&#45;&gt;:data:musicbrainz -->
<g id="edge26" class="edge">
<title>:data:coverart&#45;&gt;:data:musicbrainz</title>
<path fill="none" stroke="#ff9ab1" stroke-dasharray="1,5" d="M696.73,-423C745.43,-423 800.96,-423 800.96,-423 800.96,-423 800.96,-182.58 800.96,-182.58"/>
<polygon fill="#ff9ab1" stroke="#ff9ab1" points="804.46,-182.58 800.96,-172.58 797.46,-182.58 804.46,-182.58"/>
</g>
<!-- :data:coverart&#45;&gt;:core:logging:api -->
<g id="edge23" class="edge">
<title>:data:coverart&#45;&gt;:core:logging:api</title>
<path fill="none" stroke="black" stroke-dasharray="1,5" d="M696.63,-435C837.64,-435 1137.23,-435 1137.23,-435 1137.23,-435 1137.23,-43.84 1137.23,-43.84"/>
<polygon fill="black" stroke="black" points="1140.73,-43.84 1137.23,-33.84 1133.73,-43.84 1140.73,-43.84"/>
</g>
<!-- :data:coverart&#45;&gt;:data:database -->
<g id="edge27" class="edge">
<title>:data:coverart&#45;&gt;:data:database</title>
<path fill="none" stroke="#ff9ab1" stroke-dasharray="1,5" d="M651.72,-411.93C651.72,-411.93 651.72,-318.86 651.72,-318.86"/>
<polygon fill="#ff9ab1" stroke="#ff9ab1" points="655.22,-318.86 651.72,-308.86 648.22,-318.86 655.22,-318.86"/>
</g>
<!-- :data:musicbrainz&#45;&gt;:shared:domain -->
<g id="edge28" class="edge">
<title>:data:musicbrainz&#45;&gt;:shared:domain</title>
<path fill="none" stroke="black" stroke-dasharray="1,5" d="M750.82,-144.25C750.82,-144.25 750.82,-39.47 750.82,-39.47"/>
<polygon fill="black" stroke="black" points="754.32,-39.47 750.82,-29.47 747.32,-39.47 754.32,-39.47"/>
</g>
<!-- :data:musicbrainz&#45;&gt;:core:logging:api -->
<g id="edge29" class="edge">
<title>:data:musicbrainz&#45;&gt;:core:logging:api</title>
<path fill="none" stroke="black" stroke-dasharray="1,5" d="M844.41,-137.1C844.41,-98.11 844.41,-9 844.41,-9 844.41,-9 1006.97,-9 1006.97,-9"/>
<polygon fill="black" stroke="black" points="1006.97,-12.5 1016.97,-9 1006.97,-5.5 1006.97,-12.5"/>
</g>
<!-- :ui:image&#45;&gt;:shared:domain -->
<g id="edge30" class="edge">
<title>:ui:image&#45;&gt;:shared:domain</title>
<path fill="none" stroke="black" stroke-dasharray="1,5" d="M286.81,-566C259.53,-566 232.14,-566 232.14,-566 232.14,-566 232.14,-12 232.14,-12 232.14,-12 597.85,-12 597.85,-12"/>
<polygon fill="black" stroke="black" points="597.85,-15.5 607.85,-12 597.85,-8.5 597.85,-15.5"/>
</g>
<!-- :ui:image&#45;&gt;:ui:core -->
<g id="edge31" class="edge">
<title>:ui:image&#45;&gt;:ui:core</title>
<path fill="none" stroke="black" stroke-dasharray="1,5" d="M346.84,-548.09C346.84,-548.09 346.84,-457.35 346.84,-457.35"/>
<polygon fill="black" stroke="black" points="350.34,-457.35 346.84,-447.35 343.34,-457.35 350.34,-457.35"/>
</g>
<!-- :data:database&#45;&gt;:shared:domain -->
<g id="edge32" class="edge">
<title>:data:database&#45;&gt;:shared:domain</title>
<path fill="none" stroke="black" stroke-dasharray="1,5" d="M700.76,-274.44C700.76,-274.44 700.76,-45.77 700.76,-45.77"/>
<polygon fill="black" stroke="black" points="704.26,-45.77 700.76,-35.77 697.26,-45.77 704.26,-45.77"/>
</g>
<!-- :data:database&#45;&gt;:core:coroutines -->
<g id="edge33" class="edge">
<title>:data:database&#45;&gt;:core:coroutines</title>
<path fill="none" stroke="black" stroke-dasharray="1,5" d="M602.47,-292C571.21,-292 542.62,-292 542.62,-292 542.62,-292 542.62,-170.89 542.62,-170.89"/>
<polygon fill="black" stroke="black" points="546.12,-170.89 542.62,-160.89 539.12,-170.89 546.12,-170.89"/>
</g>
<!-- :data:database&#45;&gt;:data:musicbrainz -->
<g id="edge34" class="edge">
<title>:data:database&#45;&gt;:data:musicbrainz</title>
<path fill="none" stroke="black" stroke-dasharray="1,5" d="M747.19,-281.7C747.19,-281.7 747.19,-174.68 747.19,-174.68"/>
<polygon fill="black" stroke="black" points="750.69,-174.68 747.19,-164.68 743.69,-174.68 750.69,-174.68"/>
</g>
<!-- :data:spotify&#45;&gt;:shared:domain -->
<g id="edge35" class="edge">
<title>:data:spotify&#45;&gt;:shared:domain</title>
<path fill="none" stroke="black" stroke-dasharray="1,5" d="M991.2,-143.79C991.2,-111.07 991.2,-18 991.2,-18 991.2,-18 778.48,-18 778.48,-18"/>
<polygon fill="black" stroke="black" points="778.48,-14.5 768.48,-18 778.48,-21.5 778.48,-14.5"/>
</g>
<!-- :data:spotify&#45;&gt;:core:logging:api -->
<g id="edge36" class="edge">
<title>:data:spotify&#45;&gt;:core:logging:api</title>
<path fill="none" stroke="black" stroke-dasharray="1,5" d="M1060.09,-137.37C1060.09,-137.37 1060.09,-44.7 1060.09,-44.7"/>
<polygon fill="black" stroke="black" points="1063.59,-44.7 1060.09,-34.7 1056.59,-44.7 1063.59,-44.7"/>
</g>
</g>
</svg>
