<?xml version="1.0" encoding="UTF-8" standalone="no"?>
<!DOCTYPE svg PUBLIC "-//W3C//DTD SVG 1.1//EN"
 "http://www.w3.org/Graphics/SVG/1.1/DTD/svg11.dtd">
<!-- Generated by graphviz version 2.43.0 (0)
 -->
<!-- Title: %3 Pages: 1 -->
<svg width="1264pt" height="666pt"
 viewBox="0.00 0.00 1263.98 666.00" xmlns="http://www.w3.org/2000/svg" xmlns:xlink="http://www.w3.org/1999/xlink">
<g id="graph0" class="graph" transform="scale(1 1) rotate(0) translate(4 662)">
<title>%3</title>
<polygon fill="white" stroke="transparent" points="-4,4 -4,-662 1259.98,-662 1259.98,4 -4,4"/>
<text text-anchor="middle" x="627.99" y="-630" font-family="Times,serif" font-size="30.00">Dependencies</text>
<text text-anchor="middle" x="627.99" y="-597" font-family="Times,serif" font-size="30.00"> </text>
<!-- :shared:feature:settings -->
<g id="node1" class="node">
<title>:shared:feature:settings</title>
<polygon fill="#b59aff" stroke="black" points="480.14,-584 292.14,-584 292.14,-548 480.14,-548 480.14,-584"/>
<text text-anchor="middle" x="386.14" y="-562.3" font-family="Times,serif" font-size="14.00">:shared:feature:settings</text>
</g>
<!-- :ui:test:screenshot -->
<g id="node2" class="node">
<title>:ui:test:screenshot</title>
<ellipse fill="#9affb5" stroke="black" cx="1159.14" cy="-292" rx="96.68" ry="18"/>
<text text-anchor="middle" x="1159.14" y="-288.3" font-family="Times,serif" font-size="14.00">:ui:test:screenshot</text>
</g>
<!-- :shared:feature:settings&#45;&gt;:ui:test:screenshot -->
<g id="edge1" class="edge">
<title>:shared:feature:settings&#45;&gt;:ui:test:screenshot</title>
<path fill="none" stroke="#ff9ab1" stroke-dasharray="1,5" d="M480.49,-572C693.14,-572 1191.42,-572 1191.42,-572 1191.42,-572 1191.42,-319.09 1191.42,-319.09"/>
<polygon fill="#ff9ab1" stroke="#ff9ab1" points="1194.92,-319.09 1191.42,-309.09 1187.92,-319.09 1194.92,-319.09"/>
</g>
<!-- :core:models -->
<g id="node3" class="node">
<title>:core:models</title>
<ellipse fill="#b59aff" stroke="black" cx="420.14" cy="-18" rx="69.59" ry="18"/>
<text text-anchor="middle" x="420.14" y="-14.3" font-family="Times,serif" font-size="14.00">:core:models</text>
</g>
<!-- :shared:feature:settings&#45;&gt;:core:models -->
<g id="edge2" class="edge">
<title>:shared:feature:settings&#45;&gt;:core:models</title>
<path fill="none" stroke="black" stroke-dasharray="1,5" d="M436.04,-547.77C436.04,-547.77 436.04,-45.75 436.04,-45.75"/>
<polygon fill="black" stroke="black" points="439.54,-45.75 436.04,-35.75 432.54,-45.75 439.54,-45.75"/>
</g>
<!-- :core:preferences -->
<g id="node4" class="node">
<title>:core:preferences</title>
<ellipse fill="#b59aff" stroke="black" cx="92.14" cy="-292" rx="91.78" ry="18"/>
<text text-anchor="middle" x="92.14" y="-288.3" font-family="Times,serif" font-size="14.00">:core:preferences</text>
</g>
<!-- :shared:feature:settings&#45;&gt;:core:preferences -->
<g id="edge3" class="edge">
<title>:shared:feature:settings&#45;&gt;:core:preferences</title>
<path fill="none" stroke="black" stroke-dasharray="1,5" d="M291.83,-572C196.01,-572 61.6,-572 61.6,-572 61.6,-572 61.6,-319.09 61.6,-319.09"/>
<polygon fill="black" stroke="black" points="65.1,-319.09 61.6,-309.09 58.1,-319.09 65.1,-319.09"/>
</g>
<!-- :data:musicbrainz -->
<g id="node5" class="node">
<title>:data:musicbrainz</title>
<ellipse fill="#b59aff" stroke="black" cx="786.14" cy="-292" rx="93.68" ry="18"/>
<text text-anchor="middle" x="786.14" y="-288.3" font-family="Times,serif" font-size="14.00">:data:musicbrainz</text>
</g>
<!-- :shared:feature:settings&#45;&gt;:data:musicbrainz -->
<g id="edge4" class="edge">
<title>:shared:feature:settings&#45;&gt;:data:musicbrainz</title>
<path fill="none" stroke="black" stroke-dasharray="1,5" d="M480.24,-560C607.11,-560 817.34,-560 817.34,-560 817.34,-560 817.34,-319.17 817.34,-319.17"/>
<polygon fill="black" stroke="black" points="820.84,-319.17 817.34,-309.17 813.84,-319.17 820.84,-319.17"/>
</g>
<!-- :shared:domain -->
<g id="node6" class="node">
<title>:shared:domain</title>
<ellipse fill="#b59aff" stroke="black" cx="309.14" cy="-155" rx="82.59" ry="18"/>
<text text-anchor="middle" x="309.14" y="-151.3" font-family="Times,serif" font-size="14.00">:shared:domain</text>
</g>
<!-- :shared:feature:settings&#45;&gt;:shared:domain -->
<g id="edge5" class="edge">
<title>:shared:feature:settings&#45;&gt;:shared:domain</title>
<path fill="none" stroke="black" stroke-dasharray="1,5" d="M291.97,-560C265.49,-560 243.77,-560 243.77,-560 243.77,-560 243.77,-176.25 243.77,-176.25"/>
<polygon fill="black" stroke="black" points="247.27,-176.25 243.77,-166.25 240.27,-176.25 247.27,-176.25"/>
</g>
<!-- :ui:common -->
<g id="node7" class="node">
<title>:ui:common</title>
<ellipse fill="#b59aff" stroke="black" cx="561.14" cy="-429" rx="64.19" ry="18"/>
<text text-anchor="middle" x="561.14" y="-425.3" font-family="Times,serif" font-size="14.00">:ui:common</text>
</g>
<!-- :shared:feature:settings&#45;&gt;:ui:common -->
<g id="edge6" class="edge">
<title>:shared:feature:settings&#45;&gt;:ui:common</title>
<path fill="none" stroke="black" stroke-dasharray="1,5" d="M472.04,-547.82C472.04,-513.16 472.04,-441 472.04,-441 472.04,-441 502.94,-441 502.94,-441"/>
<polygon fill="black" stroke="black" points="502.94,-444.5 512.94,-441 502.94,-437.5 502.94,-444.5"/>
</g>
<!-- :ui:core -->
<g id="node8" class="node">
<title>:ui:core</title>
<ellipse fill="#b59aff" stroke="black" cx="1034.14" cy="-155" rx="45.49" ry="18"/>
<text text-anchor="middle" x="1034.14" y="-151.3" font-family="Times,serif" font-size="14.00">:ui:core</text>
</g>
<!-- :ui:test:screenshot&#45;&gt;:ui:core -->
<g id="edge7" class="edge">
<title>:ui:test:screenshot&#45;&gt;:ui:core</title>
<path fill="none" stroke="black" stroke-dasharray="1,5" d="M1070.97,-284.24C1070.97,-284.24 1070.97,-175.58 1070.97,-175.58"/>
<polygon fill="black" stroke="black" points="1074.47,-175.58 1070.97,-165.58 1067.47,-175.58 1074.47,-175.58"/>
</g>
<!-- :core:preferences&#45;&gt;:core:models -->
<g id="edge9" class="edge">
<title>:core:preferences&#45;&gt;:core:models</title>
<path fill="none" stroke="black" stroke-dasharray="1,5" d="M177.03,-284.95C177.03,-242.06 177.03,-18 177.03,-18 177.03,-18 340.48,-18 340.48,-18"/>
<polygon fill="black" stroke="black" points="340.48,-21.5 350.48,-18 340.48,-14.5 340.48,-21.5"/>
</g>
<!-- :core:coroutines -->
<g id="node9" class="node">
<title>:core:coroutines</title>
<ellipse fill="#b59aff" stroke="black" cx="85.14" cy="-155" rx="85.29" ry="18"/>
<text text-anchor="middle" x="85.14" y="-151.3" font-family="Times,serif" font-size="14.00">:core:coroutines</text>
</g>
<!-- :core:preferences&#45;&gt;:core:coroutines -->
<g id="edge8" class="edge">
<title>:core:preferences&#45;&gt;:core:coroutines</title>
<path fill="none" stroke="black" stroke-dasharray="1,5" d="M85.39,-273.81C85.39,-273.81 85.39,-183.27 85.39,-183.27"/>
<polygon fill="black" stroke="black" points="88.89,-183.27 85.39,-173.27 81.89,-183.27 88.89,-183.27"/>
</g>
<!-- :data:musicbrainz&#45;&gt;:core:models -->
<g id="edge11" class="edge">
<title>:data:musicbrainz&#45;&gt;:core:models</title>
<path fill="none" stroke="black" stroke-dasharray="1,5" d="M817.34,-274.83C817.34,-215.68 817.34,-24 817.34,-24 817.34,-24 495.73,-24 495.73,-24"/>
<polygon fill="black" stroke="black" points="495.73,-20.5 485.73,-24 495.73,-27.5 495.73,-20.5"/>
</g>
<!-- :core:logging:api -->
<g id="node10" class="node">
<title>:core:logging:api</title>
<ellipse fill="#b59aff" stroke="black" cx="536.14" cy="-155" rx="88.28" ry="18"/>
<text text-anchor="middle" x="536.14" y="-151.3" font-family="Times,serif" font-size="14.00">:core:logging:api</text>
</g>
<!-- :data:musicbrainz&#45;&gt;:core:logging:api -->
<g id="edge10" class="edge">
<title>:data:musicbrainz&#45;&gt;:core:logging:api</title>
<path fill="none" stroke="black" stroke-dasharray="1,5" d="M754.95,-274.93C754.95,-238.2 754.95,-155 754.95,-155 754.95,-155 634.82,-155 634.82,-155"/>
<polygon fill="black" stroke="black" points="634.82,-151.5 624.82,-155 634.82,-158.5 634.82,-151.5"/>
</g>
<!-- :shared:domain&#45;&gt;:core:models -->
<g id="edge12" class="edge">
<title>:shared:domain&#45;&gt;:core:models</title>
<path fill="none" stroke="black" stroke-dasharray="1,5" d="M371.14,-142.84C371.14,-142.84 371.14,-41.13 371.14,-41.13"/>
<polygon fill="black" stroke="black" points="374.64,-41.13 371.14,-31.13 367.64,-41.13 374.64,-41.13"/>
</g>
<!-- :ui:common&#45;&gt;:ui:test:screenshot -->
<g id="edge14" class="edge">
<title>:ui:common&#45;&gt;:ui:test:screenshot</title>
<path fill="none" stroke="#ff9ab1" stroke-dasharray="1,5" d="M614.87,-439C756.09,-439 1126.86,-439 1126.86,-439 1126.86,-439 1126.86,-319.15 1126.86,-319.15"/>
<polygon fill="#ff9ab1" stroke="#ff9ab1" points="1130.36,-319.15 1126.86,-309.15 1123.36,-319.15 1130.36,-319.15"/>
</g>
<!-- :ui:common&#45;&gt;:core:models -->
<g id="edge15" class="edge">
<title>:ui:common&#45;&gt;:core:models</title>
<path fill="none" stroke="black" d="M503.27,-421C472.88,-421 441.9,-421 441.9,-421 441.9,-421 441.9,-45.32 441.9,-45.32"/>
<polygon fill="black" stroke="black" points="445.4,-45.32 441.9,-35.32 438.4,-45.32 445.4,-45.32"/>
</g>
<!-- :ui:common&#45;&gt;:core:preferences -->
<g id="edge19" class="edge">
<title>:ui:common&#45;&gt;:core:preferences</title>
<path fill="none" stroke="black" stroke-dasharray="1,5" d="M501.55,-436C381.67,-436 122.69,-436 122.69,-436 122.69,-436 122.69,-319.08 122.69,-319.08"/>
<polygon fill="black" stroke="black" points="126.19,-319.08 122.69,-309.08 119.19,-319.08 126.19,-319.08"/>
</g>
<!-- :ui:common&#45;&gt;:data:musicbrainz -->
<g id="edge18" class="edge">
<title>:ui:common&#45;&gt;:data:musicbrainz</title>
<path fill="none" stroke="black" stroke-dasharray="1,5" d="M612.32,-418C669.73,-418 754.95,-418 754.95,-418 754.95,-418 754.95,-318.99 754.95,-318.99"/>
<polygon fill="black" stroke="black" points="758.45,-318.99 754.95,-308.99 751.45,-318.99 758.45,-318.99"/>
</g>
<!-- :ui:common&#45;&gt;:shared:domain -->
<g id="edge21" class="edge">
<title>:ui:common&#45;&gt;:shared:domain</title>
<path fill="none" stroke="black" stroke-dasharray="1,5" d="M497.11,-431C408.94,-431 260.93,-431 260.93,-431 260.93,-431 260.93,-179.84 260.93,-179.84"/>
<polygon fill="black" stroke="black" points="264.43,-179.84 260.93,-169.84 257.43,-179.84 264.43,-179.84"/>
</g>
<!-- :ui:common&#45;&gt;:ui:core -->
<g id="edge16" class="edge">
<title>:ui:common&#45;&gt;:ui:core</title>
<path fill="none" stroke="black" d="M624.94,-432C754.06,-432 1034.19,-432 1034.19,-432 1034.19,-432 1034.19,-183.17 1034.19,-183.17"/>
<polygon fill="black" stroke="black" points="1037.69,-183.17 1034.19,-173.17 1030.69,-183.17 1037.69,-183.17"/>
</g>
<!-- :ui:common&#45;&gt;:core:logging:api -->
<g id="edge20" class="edge">
<title>:ui:common&#45;&gt;:core:logging:api</title>
<path fill="none" stroke="black" stroke-dasharray="1,5" d="M516.53,-416C490.98,-416 463.95,-416 463.95,-416 463.95,-416 463.95,-175.55 463.95,-175.55"/>
<polygon fill="black" stroke="black" points="467.45,-175.55 463.95,-165.55 460.45,-175.55 467.45,-175.55"/>
</g>
<!-- :ui:test:image -->
<g id="node11" class="node">
<title>:ui:test:image</title>
<ellipse fill="#9affb5" stroke="black" cx="561.14" cy="-292" rx="74.99" ry="18"/>
<text text-anchor="middle" x="561.14" y="-288.3" font-family="Times,serif" font-size="14.00">:ui:test:image</text>
</g>
<!-- :ui:common&#45;&gt;:ui:test:image -->
<g id="edge13" class="edge">
<title>:ui:common&#45;&gt;:ui:test:image</title>
<path fill="none" stroke="#ff9ab1" stroke-dasharray="1,5" d="M561.14,-410.81C561.14,-410.81 561.14,-320.27 561.14,-320.27"/>
<polygon fill="#ff9ab1" stroke="#ff9ab1" points="564.64,-320.27 561.14,-310.27 557.64,-320.27 564.64,-320.27"/>
</g>
<!-- :data:coverart -->
<g id="node12" class="node">
<title>:data:coverart</title>
<ellipse fill="#b59aff" stroke="black" cx="354.14" cy="-292" rx="76.09" ry="18"/>
<text text-anchor="middle" x="354.14" y="-288.3" font-family="Times,serif" font-size="14.00">:data:coverart</text>
</g>
<!-- :ui:common&#45;&gt;:data:coverart -->
<g id="edge17" class="edge">
<title>:ui:common&#45;&gt;:data:coverart</title>
<path fill="none" stroke="black" stroke-dasharray="1,5" d="M497.59,-426C439.04,-426 361.16,-426 361.16,-426 361.16,-426 361.16,-320.07 361.16,-320.07"/>
<polygon fill="black" stroke="black" points="364.66,-320.07 361.16,-310.07 357.66,-320.07 364.66,-320.07"/>
</g>
<!-- :ui:image -->
<g id="node13" class="node">
<title>:ui:image</title>
<ellipse fill="#b59aff" stroke="black" cx="952.14" cy="-292" rx="53.89" ry="18"/>
<text text-anchor="middle" x="952.14" y="-288.3" font-family="Times,serif" font-size="14.00">:ui:image</text>
</g>
<!-- :ui:common&#45;&gt;:ui:image -->
<g id="edge22" class="edge">
<title>:ui:common&#45;&gt;:ui:image</title>
<path fill="none" stroke="black" stroke-dasharray="1,5" d="M623.96,-425C734.49,-425 952.14,-425 952.14,-425 952.14,-425 952.14,-320.21 952.14,-320.21"/>
<polygon fill="black" stroke="black" points="955.64,-320.21 952.14,-310.21 948.64,-320.21 955.64,-320.21"/>
</g>
<!-- :shared:strings -->
<g id="node14" class="node">
<title>:shared:strings</title>
<ellipse fill="#b59aff" stroke="black" cx="1034.14" cy="-18" rx="81.49" ry="18"/>
<text text-anchor="middle" x="1034.14" y="-14.3" font-family="Times,serif" font-size="14.00">:shared:strings</text>
</g>
<!-- :ui:core&#45;&gt;:shared:strings -->
<g id="edge23" class="edge">
<title>:ui:core&#45;&gt;:shared:strings</title>
<path fill="none" stroke="black" d="M1034.14,-136.81C1034.14,-136.81 1034.14,-46.27 1034.14,-46.27"/>
<polygon fill="black" stroke="black" points="1037.64,-46.27 1034.14,-36.27 1030.64,-46.27 1037.64,-46.27"/>
</g>
<!-- :data:coverart&#45;&gt;:core:models -->
<g id="edge25" class="edge">
<title>:data:coverart&#45;&gt;:core:models</title>
<path fill="none" stroke="black" stroke-dasharray="1,5" d="M410.94,-279.87C410.94,-279.87 410.94,-46.11 410.94,-46.11"/>
<polygon fill="black" stroke="black" points="414.44,-46.11 410.94,-36.11 407.44,-46.11 414.44,-46.11"/>
</g>
<!-- :data:coverart&#45;&gt;:shared:domain -->
<g id="edge26" class="edge">
<title>:data:coverart&#45;&gt;:shared:domain</title>
<path fill="none" stroke="black" stroke-dasharray="1,5" d="M334.89,-274.37C334.89,-274.37 334.89,-182.13 334.89,-182.13"/>
<polygon fill="black" stroke="black" points="338.39,-182.13 334.89,-172.13 331.39,-182.13 338.39,-182.13"/>
</g>
<!-- :data:coverart&#45;&gt;:core:logging:api -->
<g id="edge24" class="edge">
<title>:data:coverart&#45;&gt;:core:logging:api</title>
<path fill="none" stroke="black" stroke-dasharray="1,5" d="M430.45,-292C445.03,-292 455.85,-292 455.85,-292 455.85,-292 455.85,-172.76 455.85,-172.76"/>
<polygon fill="black" stroke="black" points="459.35,-172.76 455.85,-162.76 452.35,-172.76 459.35,-172.76"/>
</g>
<!-- :ui:image&#45;&gt;:core:models -->
<g id="edge27" class="edge">
<title>:ui:image&#45;&gt;:core:models</title>
<path fill="none" stroke="black" stroke-dasharray="1,5" d="M925.55,-276.14C925.55,-216.91 925.55,-12 925.55,-12 925.55,-12 495.96,-12 495.96,-12"/>
<polygon fill="black" stroke="black" points="495.96,-8.5 485.96,-12 495.96,-15.5 495.96,-8.5"/>
</g>
<!-- :ui:image&#45;&gt;:ui:core -->
<g id="edge28" class="edge">
<title>:ui:image&#45;&gt;:ui:core</title>
<path fill="none" stroke="black" stroke-dasharray="1,5" d="M997.37,-282.15C997.37,-282.15 997.37,-175.89 997.37,-175.89"/>
<polygon fill="black" stroke="black" points="1000.87,-175.89 997.37,-165.89 993.87,-175.89 1000.87,-175.89"/>
</g>
</g>
</svg>
