<?xml version="1.0" encoding="UTF-8" standalone="no"?>
<!DOCTYPE svg PUBLIC "-//W3C//DTD SVG 1.1//EN"
 "http://www.w3.org/Graphics/SVG/1.1/DTD/svg11.dtd">
<!-- Generated by graphviz version 2.43.0 (0)
 -->
<!-- Title: %3 Pages: 1 -->
<svg width="1263pt" height="666pt"
 viewBox="0.00 0.00 1263.43 666.00" xmlns="http://www.w3.org/2000/svg" xmlns:xlink="http://www.w3.org/1999/xlink">
<g id="graph0" class="graph" transform="scale(1 1) rotate(0) translate(4 662)">
<title>%3</title>
<polygon fill="white" stroke="transparent" points="-4,4 -4,-662 1259.43,-662 1259.43,4 -4,4"/>
<text text-anchor="middle" x="627.72" y="-630" font-family="Times,serif" font-size="30.00">Dependencies</text>
<text text-anchor="middle" x="627.72" y="-597" font-family="Times,serif" font-size="30.00"> </text>
<!-- :shared:feature:settings -->
<g id="node1" class="node">
<title>:shared:feature:settings</title>
<polygon fill="#b59aff" stroke="black" points="709.84,-584 349.84,-584 349.84,-548 709.84,-548 709.84,-584"/>
<text text-anchor="middle" x="529.84" y="-562.3" font-family="Times,serif" font-size="14.00">:shared:feature:settings</text>
</g>
<!-- :ui:test:screenshot -->
<g id="node2" class="node">
<title>:ui:test:screenshot</title>
<ellipse fill="#9affb5" stroke="black" cx="96.84" cy="-292" rx="96.68" ry="18"/>
<text text-anchor="middle" x="96.84" y="-288.3" font-family="Times,serif" font-size="14.00">:ui:test:screenshot</text>
</g>
<!-- :shared:feature:settings&#45;&gt;:ui:test:screenshot -->
<g id="edge1" class="edge">
<title>:shared:feature:settings&#45;&gt;:ui:test:screenshot</title>
<path fill="none" stroke="#ff9ab1" stroke-dasharray="1,5" d="M349.62,-572C218.76,-572 64.56,-572 64.56,-572 64.56,-572 64.56,-319.09 64.56,-319.09"/>
<polygon fill="#ff9ab1" stroke="#ff9ab1" points="68.06,-319.09 64.56,-309.09 61.06,-319.09 68.06,-319.09"/>
</g>
<!-- :core:models -->
<g id="node3" class="node">
<title>:core:models</title>
<ellipse fill="#b59aff" stroke="black" cx="1025.84" cy="-18" rx="69.59" ry="18"/>
<text text-anchor="middle" x="1025.84" y="-14.3" font-family="Times,serif" font-size="14.00">:core:models</text>
</g>
<!-- :shared:feature:settings&#45;&gt;:core:models -->
<g id="edge2" class="edge">
<title>:shared:feature:settings&#45;&gt;:core:models</title>
<path fill="none" stroke="black" stroke-dasharray="1,5" d="M710.09,-557C850.71,-557 1022.35,-557 1022.35,-557 1022.35,-557 1022.35,-46.24 1022.35,-46.24"/>
<polygon fill="black" stroke="black" points="1025.85,-46.24 1022.35,-36.24 1018.85,-46.24 1025.85,-46.24"/>
</g>
<!-- :core:preferences -->
<g id="node4" class="node">
<title>:core:preferences</title>
<ellipse fill="#b59aff" stroke="black" cx="341.84" cy="-292" rx="91.78" ry="18"/>
<text text-anchor="middle" x="341.84" y="-288.3" font-family="Times,serif" font-size="14.00">:core:preferences</text>
</g>
<!-- :shared:feature:settings&#45;&gt;:core:preferences -->
<g id="edge3" class="edge">
<title>:shared:feature:settings&#45;&gt;:core:preferences</title>
<path fill="none" stroke="black" stroke-dasharray="1,5" d="M377.72,-547.6C377.72,-547.6 377.72,-318.57 377.72,-318.57"/>
<polygon fill="black" stroke="black" points="381.22,-318.57 377.72,-308.57 374.22,-318.57 381.22,-318.57"/>
</g>
<!-- :data:musicbrainz -->
<g id="node5" class="node">
<title>:data:musicbrainz</title>
<ellipse fill="#b59aff" stroke="black" cx="1161.84" cy="-292" rx="93.68" ry="18"/>
<text text-anchor="middle" x="1161.84" y="-288.3" font-family="Times,serif" font-size="14.00">:data:musicbrainz</text>
</g>
<!-- :shared:feature:settings&#45;&gt;:data:musicbrainz -->
<g id="edge4" class="edge">
<title>:shared:feature:settings&#45;&gt;:data:musicbrainz</title>
<path fill="none" stroke="black" stroke-dasharray="1,5" d="M710.19,-575C906.57,-575 1193.04,-575 1193.04,-575 1193.04,-575 1193.04,-319.28 1193.04,-319.28"/>
<polygon fill="black" stroke="black" points="1196.54,-319.28 1193.04,-309.28 1189.54,-319.28 1196.54,-319.28"/>
</g>
<!-- :domain -->
<g id="node6" class="node">
<title>:domain</title>
<ellipse fill="#b59aff" stroke="black" cx="1101.84" cy="-155" rx="48.19" ry="18"/>
<text text-anchor="middle" x="1101.84" y="-151.3" font-family="Times,serif" font-size="14.00">:domain</text>
</g>
<!-- :shared:feature:settings&#45;&gt;:domain -->
<g id="edge5" class="edge">
<title>:shared:feature:settings&#45;&gt;:domain</title>
<path fill="none" stroke="black" stroke-dasharray="1,5" d="M710.11,-566C864.96,-566 1063.42,-566 1063.42,-566 1063.42,-566 1063.42,-175.99 1063.42,-175.99"/>
<polygon fill="black" stroke="black" points="1066.92,-175.99 1063.42,-165.99 1059.92,-175.99 1066.92,-175.99"/>
</g>
<!-- :strings -->
<g id="node7" class="node">
<title>:strings</title>
<ellipse fill="#b59aff" stroke="black" cx="144.84" cy="-18" rx="46.29" ry="18"/>
<text text-anchor="middle" x="144.84" y="-14.3" font-family="Times,serif" font-size="14.00">:strings</text>
</g>
<!-- :shared:feature:settings&#45;&gt;:strings -->
<g id="edge6" class="edge">
<title>:shared:feature:settings&#45;&gt;:strings</title>
<path fill="none" stroke="black" stroke-dasharray="1,5" d="M471.09,-547.86C471.09,-454.23 471.09,-30 471.09,-30 471.09,-30 189.45,-30 189.45,-30"/>
<polygon fill="black" stroke="black" points="189.45,-26.5 179.45,-30 189.45,-33.5 189.45,-26.5"/>
</g>
<!-- :ui:common -->
<g id="node8" class="node">
<title>:ui:common</title>
<ellipse fill="#b59aff" stroke="black" cx="616.84" cy="-429" rx="64.19" ry="18"/>
<text text-anchor="middle" x="616.84" y="-425.3" font-family="Times,serif" font-size="14.00">:ui:common</text>
</g>
<!-- :shared:feature:settings&#45;&gt;:ui:common -->
<g id="edge7" class="edge">
<title>:shared:feature:settings&#45;&gt;:ui:common</title>
<path fill="none" stroke="black" stroke-dasharray="1,5" d="M616.84,-547.81C616.84,-547.81 616.84,-457.27 616.84,-457.27"/>
<polygon fill="black" stroke="black" points="620.34,-457.27 616.84,-447.27 613.34,-457.27 620.34,-457.27"/>
</g>
<!-- :ui:core -->
<g id="node9" class="node">
<title>:ui:core</title>
<ellipse fill="#b59aff" stroke="black" cx="144.84" cy="-155" rx="45.49" ry="18"/>
<text text-anchor="middle" x="144.84" y="-151.3" font-family="Times,serif" font-size="14.00">:ui:core</text>
</g>
<!-- :shared:feature:settings&#45;&gt;:ui:core -->
<g id="edge8" class="edge">
<title>:shared:feature:settings&#45;&gt;:ui:core</title>
<path fill="none" stroke="black" stroke-dasharray="1,5" d="M349.4,-560C277.96,-560 212.52,-560 212.52,-560 212.52,-560 212.52,-161 212.52,-161 212.52,-161 198.09,-161 198.09,-161"/>
<polygon fill="black" stroke="black" points="198.09,-157.5 188.09,-161 198.09,-164.5 198.09,-157.5"/>
</g>
<!-- :ui:test:screenshot&#45;&gt;:ui:core -->
<g id="edge9" class="edge">
<title>:ui:test:screenshot&#45;&gt;:ui:core</title>
<path fill="none" stroke="red" d="M129.68,-274.93C129.68,-274.93 129.68,-182.29 129.68,-182.29"/>
<polygon fill="red" stroke="red" points="133.18,-182.29 129.68,-172.29 126.18,-182.29 133.18,-182.29"/>
</g>
<!-- :core:preferences&#45;&gt;:core:models -->
<g id="edge11" class="edge">
<title>:core:preferences&#45;&gt;:core:models</title>
<path fill="none" stroke="black" stroke-dasharray="1,5" d="M433.55,-292C444.72,-292 452.29,-292 452.29,-292 452.29,-292 452.29,-5 452.29,-5 452.29,-5 967.43,-5 967.43,-5"/>
<polygon fill="black" stroke="black" points="967.43,-8.5 977.43,-5 967.43,-1.5 967.43,-8.5"/>
</g>
<!-- :core:coroutines -->
<g id="node10" class="node">
<title>:core:coroutines</title>
<ellipse fill="#b59aff" stroke="black" cx="341.84" cy="-155" rx="85.29" ry="18"/>
<text text-anchor="middle" x="341.84" y="-151.3" font-family="Times,serif" font-size="14.00">:core:coroutines</text>
</g>
<!-- :core:preferences&#45;&gt;:core:coroutines -->
<g id="edge10" class="edge">
<title>:core:preferences&#45;&gt;:core:coroutines</title>
<path fill="none" stroke="black" stroke-dasharray="1,5" d="M341.84,-273.81C341.84,-273.81 341.84,-183.27 341.84,-183.27"/>
<polygon fill="black" stroke="black" points="345.34,-183.27 341.84,-173.27 338.34,-183.27 345.34,-183.27"/>
</g>
<!-- :data:musicbrainz&#45;&gt;:core:models -->
<g id="edge13" class="edge">
<title>:data:musicbrainz&#45;&gt;:core:models</title>
<path fill="none" stroke="black" stroke-dasharray="1,5" d="M1073.51,-286C1056.2,-286 1043.28,-286 1043.28,-286 1043.28,-286 1043.28,-45.58 1043.28,-45.58"/>
<polygon fill="black" stroke="black" points="1046.78,-45.58 1043.28,-35.58 1039.78,-45.58 1046.78,-45.58"/>
</g>
<!-- :core:logging:api -->
<g id="node11" class="node">
<title>:core:logging:api</title>
<ellipse fill="#b59aff" stroke="black" cx="909.84" cy="-155" rx="88.28" ry="18"/>
<text text-anchor="middle" x="909.84" y="-151.3" font-family="Times,serif" font-size="14.00">:core:logging:api</text>
</g>
<!-- :data:musicbrainz&#45;&gt;:core:logging:api -->
<g id="edge12" class="edge">
<title>:data:musicbrainz&#45;&gt;:core:logging:api</title>
<path fill="none" stroke="black" stroke-dasharray="1,5" d="M1073.29,-298C1050.77,-298 1032.82,-298 1032.82,-298 1032.82,-298 1032.82,-161 1032.82,-161 1032.82,-161 1003.23,-161 1003.23,-161"/>
<polygon fill="black" stroke="black" points="1003.23,-157.5 993.23,-161 1003.23,-164.5 1003.23,-157.5"/>
</g>
<!-- :domain&#45;&gt;:core:models -->
<g id="edge14" class="edge">
<title>:domain&#45;&gt;:core:models</title>
<path fill="none" stroke="black" stroke-dasharray="1,5" d="M1074.57,-140.08C1074.57,-140.08 1074.57,-40.88 1074.57,-40.88"/>
<polygon fill="black" stroke="black" points="1078.07,-40.88 1074.57,-30.88 1071.07,-40.88 1078.07,-40.88"/>
</g>
<!-- :ui:common&#45;&gt;:ui:test:screenshot -->
<g id="edge16" class="edge">
<title>:ui:common&#45;&gt;:ui:test:screenshot</title>
<path fill="none" stroke="#ff9ab1" d="M560.89,-438C432.79,-438 129.12,-438 129.12,-438 129.12,-438 129.12,-319.03 129.12,-319.03"/>
<polygon fill="#ff9ab1" stroke="#ff9ab1" points="132.62,-319.03 129.12,-309.03 125.62,-319.03 132.62,-319.03"/>
</g>
<!-- :ui:common&#45;&gt;:core:models -->
<g id="edge17" class="edge">
<title>:ui:common&#45;&gt;:core:models</title>
<path fill="none" stroke="black" d="M609.99,-411.08C609.99,-331.97 609.99,-18 609.99,-18 609.99,-18 946.24,-18 946.24,-18"/>
<polygon fill="black" stroke="black" points="946.24,-21.5 956.24,-18 946.24,-14.5 946.24,-21.5"/>
</g>
<!-- :ui:common&#45;&gt;:core:preferences -->
<g id="edge20" class="edge">
<title>:ui:common&#45;&gt;:core:preferences</title>
<path fill="none" stroke="black" stroke-dasharray="1,5" d="M561.06,-420C498.48,-420 405.6,-420 405.6,-420 405.6,-420 405.6,-315.22 405.6,-315.22"/>
<polygon fill="black" stroke="black" points="409.1,-315.22 405.6,-305.22 402.1,-315.22 409.1,-315.22"/>
</g>
<!-- :ui:common&#45;&gt;:data:musicbrainz -->
<g id="edge19" class="edge">
<title>:ui:common&#45;&gt;:data:musicbrainz</title>
<path fill="none" stroke="orange" d="M670.37,-439C801.97,-439 1130.64,-439 1130.64,-439 1130.64,-439 1130.64,-319.15 1130.64,-319.15"/>
<polygon fill="orange" stroke="orange" points="1134.14,-319.15 1130.64,-309.15 1127.14,-319.15 1134.14,-319.15"/>
</g>
<!-- :ui:common&#45;&gt;:domain -->
<g id="edge22" class="edge">
<title>:ui:common&#45;&gt;:domain</title>
<path fill="none" stroke="black" stroke-dasharray="1,5" d="M680.6,-432C802.93,-432 1058.58,-432 1058.58,-432 1058.58,-432 1058.58,-172.99 1058.58,-172.99"/>
<polygon fill="black" stroke="black" points="1062.08,-172.99 1058.58,-162.99 1055.08,-172.99 1062.08,-172.99"/>
</g>
<!-- :ui:common&#45;&gt;:strings -->
<g id="edge23" class="edge">
<title>:ui:common&#45;&gt;:strings</title>
<path fill="none" stroke="black" stroke-dasharray="1,5" d="M603.89,-411.34C603.89,-333.39 603.89,-24 603.89,-24 603.89,-24 198.44,-24 198.44,-24"/>
<polygon fill="black" stroke="black" points="198.44,-20.5 188.44,-24 198.44,-27.5 198.44,-20.5"/>
</g>
<!-- :ui:common&#45;&gt;:ui:core -->
<g id="edge24" class="edge">
<title>:ui:common&#45;&gt;:ui:core</title>
<path fill="none" stroke="red" d="M552.32,-429C442.58,-429 231.36,-429 231.36,-429 231.36,-429 231.36,-149 231.36,-149 231.36,-149 197.85,-149 197.85,-149"/>
<polygon fill="red" stroke="red" points="197.85,-145.5 187.85,-149 197.85,-152.5 197.85,-145.5"/>
</g>
<!-- :ui:common&#45;&gt;:core:logging:api -->
<g id="edge21" class="edge">
<title>:ui:common&#45;&gt;:core:logging:api</title>
<path fill="none" stroke="black" stroke-dasharray="1,5" d="M667.9,-418C733.95,-418 840.62,-418 840.62,-418 840.62,-418 840.62,-176.3 840.62,-176.3"/>
<polygon fill="black" stroke="black" points="844.12,-176.3 840.62,-166.3 837.12,-176.3 844.12,-176.3"/>
</g>
<!-- :ui:test:image -->
<g id="node12" class="node">
<title>:ui:test:image</title>
<ellipse fill="#9affb5" stroke="black" cx="690.84" cy="-292" rx="74.99" ry="18"/>
<text text-anchor="middle" x="690.84" y="-288.3" font-family="Times,serif" font-size="14.00">:ui:test:image</text>
</g>
<!-- :ui:common&#45;&gt;:ui:test:image -->
<g id="edge15" class="edge">
<title>:ui:common&#45;&gt;:ui:test:image</title>
<path fill="none" stroke="#ff9ab1" d="M648.64,-413.28C648.64,-413.28 648.64,-317.11 648.64,-317.11"/>
<polygon fill="#ff9ab1" stroke="#ff9ab1" points="652.14,-317.11 648.64,-307.11 645.14,-317.11 652.14,-317.11"/>
</g>
<!-- :data:coverart -->
<g id="node13" class="node">
<title>:data:coverart</title>
<ellipse fill="#b59aff" stroke="black" cx="935.84" cy="-292" rx="76.09" ry="18"/>
<text text-anchor="middle" x="935.84" y="-288.3" font-family="Times,serif" font-size="14.00">:data:coverart</text>
</g>
<!-- :ui:common&#45;&gt;:data:coverart -->
<g id="edge18" class="edge">
<title>:ui:common&#45;&gt;:data:coverart</title>
<path fill="none" stroke="orange" d="M679.87,-425C772.83,-425 935.84,-425 935.84,-425 935.84,-425 935.84,-320.21 935.84,-320.21"/>
<polygon fill="orange" stroke="orange" points="939.34,-320.21 935.84,-310.21 932.34,-320.21 939.34,-320.21"/>
</g>
<!-- :ui:image -->
<g id="node14" class="node">
<title>:ui:image</title>
<ellipse fill="#b59aff" stroke="black" cx="543.84" cy="-292" rx="53.89" ry="18"/>
<text text-anchor="middle" x="543.84" y="-288.3" font-family="Times,serif" font-size="14.00">:ui:image</text>
</g>
<!-- :ui:common&#45;&gt;:ui:image -->
<g id="edge25" class="edge">
<title>:ui:common&#45;&gt;:ui:image</title>
<path fill="none" stroke="red" d="M575.14,-415.11C575.14,-415.11 575.14,-316.75 575.14,-316.75"/>
<polygon fill="red" stroke="red" points="578.64,-316.75 575.14,-306.75 571.64,-316.75 578.64,-316.75"/>
</g>
<!-- :ui:core&#45;&gt;:strings -->
<g id="edge26" class="edge">
<title>:ui:core&#45;&gt;:strings</title>
<path fill="none" stroke="black" d="M144.84,-136.81C144.84,-136.81 144.84,-46.27 144.84,-46.27"/>
<polygon fill="black" stroke="black" points="148.34,-46.27 144.84,-36.27 141.34,-46.27 148.34,-46.27"/>
</g>
<!-- :data:coverart&#45;&gt;:core:models -->
<g id="edge28" class="edge">
<title>:data:coverart&#45;&gt;:core:models</title>
<path fill="none" stroke="black" stroke-dasharray="1,5" d="M1002.78,-283.19C1002.78,-283.19 1002.78,-45 1002.78,-45"/>
<polygon fill="black" stroke="black" points="1006.28,-45 1002.78,-35 999.28,-45 1006.28,-45"/>
</g>
<!-- :data:coverart&#45;&gt;:domain -->
<g id="edge29" class="edge">
<title>:data:coverart&#45;&gt;:domain</title>
<path fill="none" stroke="black" stroke-dasharray="1,5" d="M1007.33,-285.86C1007.33,-258.48 1007.33,-149 1007.33,-149 1007.33,-149 1046.25,-149 1046.25,-149"/>
<polygon fill="black" stroke="black" points="1046.25,-152.5 1056.25,-149 1046.25,-145.5 1046.25,-152.5"/>
</g>
<!-- :data:coverart&#45;&gt;:core:logging:api -->
<g id="edge27" class="edge">
<title>:data:coverart&#45;&gt;:core:logging:api</title>
<path fill="none" stroke="black" stroke-dasharray="1,5" d="M929.02,-273.81C929.02,-273.81 929.02,-182.83 929.02,-182.83"/>
<polygon fill="black" stroke="black" points="932.52,-182.83 929.02,-172.83 925.52,-182.83 932.52,-182.83"/>
</g>
<!-- :ui:image&#45;&gt;:core:models -->
<g id="edge30" class="edge">
<title>:ui:image&#45;&gt;:core:models</title>
<path fill="none" stroke="black" stroke-dasharray="1,5" d="M561.82,-274.91C561.82,-214.11 561.82,-12 561.82,-12 561.82,-12 949.85,-12 949.85,-12"/>
<polygon fill="black" stroke="black" points="949.85,-15.5 959.85,-12 949.85,-8.5 949.85,-15.5"/>
</g>
<!-- :ui:image&#45;&gt;:ui:core -->
<g id="edge31" class="edge">
<title>:ui:image&#45;&gt;:ui:core</title>
<path fill="none" stroke="red" d="M525.86,-274.94C525.86,-254.51 525.86,-223 525.86,-223 525.86,-223 160.01,-223 160.01,-223 160.01,-223 160.01,-182.16 160.01,-182.16"/>
<polygon fill="red" stroke="red" points="163.51,-182.16 160.01,-172.16 156.51,-182.16 163.51,-182.16"/>
</g>
</g>
</svg>
