<?xml version="1.0" encoding="UTF-8" standalone="no"?>
<!DOCTYPE svg PUBLIC "-//W3C//DTD SVG 1.1//EN"
 "http://www.w3.org/Graphics/SVG/1.1/DTD/svg11.dtd">
<!-- Generated by graphviz version 2.43.0 (0)
 -->
<!-- Title: %3 Pages: 1 -->
<svg width="846pt" height="940pt"
 viewBox="0.00 0.00 845.63 940.00" xmlns="http://www.w3.org/2000/svg" xmlns:xlink="http://www.w3.org/1999/xlink">
<g id="graph0" class="graph" transform="scale(1 1) rotate(0) translate(4 936)">
<title>%3</title>
<polygon fill="white" stroke="transparent" points="-4,4 -4,-936 841.63,-936 841.63,4 -4,4"/>
<text text-anchor="middle" x="418.82" y="-904" font-family="Times,serif" font-size="30.00">Dependencies</text>
<text text-anchor="middle" x="418.82" y="-871" font-family="Times,serif" font-size="30.00"> </text>
<!-- :shared:feature:settings -->
<g id="node1" class="node">
<title>:shared:feature:settings</title>
<polygon fill="#b59aff" stroke="black" points="457.39,-858 269.39,-858 269.39,-822 457.39,-822 457.39,-858"/>
<text text-anchor="middle" x="363.39" y="-836.3" font-family="Times,serif" font-size="14.00">:shared:feature:settings</text>
</g>
<!-- :ui:test:screenshot -->
<g id="node2" class="node">
<title>:ui:test:screenshot</title>
<ellipse fill="#9affb5" stroke="black" cx="110.39" cy="-566" rx="96.68" ry="18"/>
<text text-anchor="middle" x="110.39" y="-562.3" font-family="Times,serif" font-size="14.00">:ui:test:screenshot</text>
</g>
<!-- :shared:feature:settings&#45;&gt;:ui:test:screenshot -->
<g id="edge1" class="edge">
<title>:shared:feature:settings&#45;&gt;:ui:test:screenshot</title>
<path fill="none" stroke="#ff9ab1" stroke-dasharray="1,5" d="M278.37,-821.85C278.37,-762.21 278.37,-576 278.37,-576 278.37,-576 200.94,-576 200.94,-576"/>
<polygon fill="#ff9ab1" stroke="#ff9ab1" points="200.94,-572.5 190.94,-576 200.94,-579.5 200.94,-572.5"/>
</g>
<!-- :ui:common -->
<g id="node3" class="node">
<title>:ui:common</title>
<ellipse fill="#b59aff" stroke="black" cx="363.39" cy="-703" rx="64.19" ry="18"/>
<text text-anchor="middle" x="363.39" y="-699.3" font-family="Times,serif" font-size="14.00">:ui:common</text>
</g>
<!-- :shared:feature:settings&#45;&gt;:ui:common -->
<g id="edge2" class="edge">
<title>:shared:feature:settings&#45;&gt;:ui:common</title>
<path fill="none" stroke="black" stroke-dasharray="1,5" d="M363.39,-821.81C363.39,-821.81 363.39,-731.27 363.39,-731.27"/>
<polygon fill="black" stroke="black" points="366.89,-731.27 363.39,-721.27 359.89,-731.27 366.89,-731.27"/>
</g>
<!-- :shared:domain -->
<g id="node4" class="node">
<title>:shared:domain</title>
<ellipse fill="#b59aff" stroke="black" cx="577.39" cy="-18" rx="82.59" ry="18"/>
<text text-anchor="middle" x="577.39" y="-14.3" font-family="Times,serif" font-size="14.00">:shared:domain</text>
</g>
<!-- :shared:feature:settings&#45;&gt;:shared:domain -->
<g id="edge3" class="edge">
<title>:shared:feature:settings&#45;&gt;:shared:domain</title>
<path fill="none" stroke="black" stroke-dasharray="1,5" d="M269.3,-840C255.86,-840 246.49,-840 246.49,-840 246.49,-840 246.49,-12 246.49,-12 246.49,-12 489.39,-12 489.39,-12"/>
<polygon fill="black" stroke="black" points="489.39,-15.5 499.39,-12 489.39,-8.5 489.39,-15.5"/>
</g>
<!-- :ui:core -->
<g id="node5" class="node">
<title>:ui:core</title>
<ellipse fill="#b59aff" stroke="black" cx="720.39" cy="-429" rx="45.49" ry="18"/>
<text text-anchor="middle" x="720.39" y="-425.3" font-family="Times,serif" font-size="14.00">:ui:core</text>
</g>
<!-- :ui:test:screenshot&#45;&gt;:ui:core -->
<g id="edge4" class="edge">
<title>:ui:test:screenshot&#45;&gt;:ui:core</title>
<path fill="none" stroke="black" stroke-dasharray="1,5" d="M173.34,-552.04C173.34,-531.87 173.34,-497 173.34,-497 173.34,-497 705.23,-497 705.23,-497 705.23,-497 705.23,-456.16 705.23,-456.16"/>
<polygon fill="black" stroke="black" points="708.73,-456.16 705.23,-446.16 701.73,-456.16 708.73,-456.16"/>
</g>
<!-- :test:image -->
<g id="node6" class="node">
<title>:test:image</title>
<ellipse fill="#9affb5" stroke="black" cx="76.39" cy="-429" rx="63.09" ry="18"/>
<text text-anchor="middle" x="76.39" y="-425.3" font-family="Times,serif" font-size="14.00">:test:image</text>
</g>
<!-- :ui:test:screenshot&#45;&gt;:test:image -->
<g id="edge5" class="edge">
<title>:ui:test:screenshot&#45;&gt;:test:image</title>
<path fill="none" stroke="black" stroke-dasharray="1,5" d="M76.49,-548.93C76.49,-548.93 76.49,-457.16 76.49,-457.16"/>
<polygon fill="black" stroke="black" points="79.99,-457.16 76.49,-447.16 72.99,-457.16 79.99,-457.16"/>
</g>
<!-- :ui:common&#45;&gt;:ui:test:screenshot -->
<g id="edge6" class="edge">
<title>:ui:common&#45;&gt;:ui:test:screenshot</title>
<path fill="none" stroke="#ff9ab1" stroke-dasharray="1,5" d="M299.88,-706C224.93,-706 110.39,-706 110.39,-706 110.39,-706 110.39,-594.02 110.39,-594.02"/>
<polygon fill="#ff9ab1" stroke="#ff9ab1" points="113.89,-594.02 110.39,-584.02 106.89,-594.02 113.89,-594.02"/>
</g>
<!-- :ui:common&#45;&gt;:shared:domain -->
<g id="edge7" class="edge">
<title>:ui:common&#45;&gt;:shared:domain</title>
<path fill="none" stroke="black" d="M312.33,-692C282.23,-692 249.99,-692 249.99,-692 249.99,-692 249.99,-16 249.99,-16 249.99,-16 485.2,-16 485.2,-16"/>
<polygon fill="black" stroke="black" points="485.2,-19.5 495.2,-16 485.2,-12.5 485.2,-19.5"/>
</g>
<!-- :ui:common&#45;&gt;:ui:core -->
<g id="edge8" class="edge">
<title>:ui:common&#45;&gt;:ui:core</title>
<path fill="none" stroke="black" d="M424.28,-697C437.91,-697 448.41,-697 448.41,-697 448.41,-697 448.41,-438 448.41,-438 448.41,-438 670.84,-438 670.84,-438"/>
<polygon fill="black" stroke="black" points="670.84,-441.5 680.84,-438 670.84,-434.5 670.84,-441.5"/>
</g>
<!-- :data:coverart -->
<g id="node7" class="node">
<title>:data:coverart</title>
<ellipse fill="#b59aff" stroke="black" cx="363.39" cy="-566" rx="76.09" ry="18"/>
<text text-anchor="middle" x="363.39" y="-562.3" font-family="Times,serif" font-size="14.00">:data:coverart</text>
</g>
<!-- :ui:common&#45;&gt;:data:coverart -->
<g id="edge9" class="edge">
<title>:ui:common&#45;&gt;:data:coverart</title>
<path fill="none" stroke="black" stroke-dasharray="1,5" d="M363.39,-684.81C363.39,-684.81 363.39,-594.27 363.39,-594.27"/>
<polygon fill="black" stroke="black" points="366.89,-594.27 363.39,-584.27 359.89,-594.27 366.89,-594.27"/>
</g>
<!-- :data:musicbrainz -->
<g id="node8" class="node">
<title>:data:musicbrainz</title>
<ellipse fill="#b59aff" stroke="black" cx="149.39" cy="-155" rx="93.68" ry="18"/>
<text text-anchor="middle" x="149.39" y="-151.3" font-family="Times,serif" font-size="14.00">:data:musicbrainz</text>
</g>
<!-- :ui:common&#45;&gt;:data:musicbrainz -->
<g id="edge10" class="edge">
<title>:ui:common&#45;&gt;:data:musicbrainz</title>
<path fill="none" stroke="black" stroke-dasharray="1,5" d="M300.63,-699C259.91,-699 214.38,-699 214.38,-699 214.38,-699 214.38,-178.18 214.38,-178.18"/>
<polygon fill="black" stroke="black" points="217.88,-178.18 214.38,-168.18 210.88,-178.18 217.88,-178.18"/>
</g>
<!-- :core:logging:api -->
<g id="node9" class="node">
<title>:core:logging:api</title>
<ellipse fill="#b59aff" stroke="black" cx="88.39" cy="-18" rx="88.28" ry="18"/>
<text text-anchor="middle" x="88.39" y="-14.3" font-family="Times,serif" font-size="14.00">:core:logging:api</text>
</g>
<!-- :ui:common&#45;&gt;:core:logging:api -->
<g id="edge11" class="edge">
<title>:ui:common&#45;&gt;:core:logging:api</title>
<path fill="none" stroke="black" stroke-dasharray="1,5" d="M309.6,-713C209.95,-713 6.67,-713 6.67,-713 6.67,-713 6.67,-34.88 6.67,-34.88"/>
<polygon fill="black" stroke="black" points="10.17,-34.88 6.67,-24.88 3.17,-34.88 10.17,-34.88"/>
</g>
<!-- :ui:image -->
<g id="node10" class="node">
<title>:ui:image</title>
<ellipse fill="#b59aff" stroke="black" cx="720.39" cy="-566" rx="53.89" ry="18"/>
<text text-anchor="middle" x="720.39" y="-562.3" font-family="Times,serif" font-size="14.00">:ui:image</text>
</g>
<!-- :ui:common&#45;&gt;:ui:image -->
<g id="edge12" class="edge">
<title>:ui:common&#45;&gt;:ui:image</title>
<path fill="none" stroke="black" stroke-dasharray="1,5" d="M424.36,-709C526.32,-709 720.39,-709 720.39,-709 720.39,-709 720.39,-594.11 720.39,-594.11"/>
<polygon fill="black" stroke="black" points="723.89,-594.11 720.39,-584.11 716.89,-594.11 723.89,-594.11"/>
</g>
<!-- :shared:strings -->
<g id="node11" class="node">
<title>:shared:strings</title>
<ellipse fill="#b59aff" stroke="black" cx="756.39" cy="-292" rx="81.49" ry="18"/>
<text text-anchor="middle" x="756.39" y="-288.3" font-family="Times,serif" font-size="14.00">:shared:strings</text>
</g>
<!-- :ui:core&#45;&gt;:shared:strings -->
<g id="edge13" class="edge">
<title>:ui:core&#45;&gt;:shared:strings</title>
<path fill="none" stroke="black" d="M720.52,-410.81C720.52,-410.81 720.52,-318.55 720.52,-318.55"/>
<polygon fill="black" stroke="black" points="724.02,-318.55 720.52,-308.55 717.02,-318.55 724.02,-318.55"/>
</g>
<!-- :data:coverart&#45;&gt;:shared:domain -->
<g id="edge14" class="edge">
<title>:data:coverart&#45;&gt;:shared:domain</title>
<path fill="none" stroke="black" stroke-dasharray="1,5" d="M303.04,-555C279.03,-555 257,-555 257,-555 257,-555 257,-20 257,-20 257,-20 485.3,-20 485.3,-20"/>
<polygon fill="black" stroke="black" points="485.3,-23.5 495.3,-20 485.3,-16.5 485.3,-23.5"/>
</g>
<!-- :data:coverart&#45;&gt;:data:musicbrainz -->
<g id="edge18" class="edge">
<title>:data:coverart&#45;&gt;:data:musicbrainz</title>
<path fill="none" stroke="#ff9ab1" stroke-dasharray="1,5" d="M288.31,-569C254.28,-569 221.53,-569 221.53,-569 221.53,-569 221.53,-176.5 221.53,-176.5"/>
<polygon fill="#ff9ab1" stroke="#ff9ab1" points="225.03,-176.5 221.53,-166.5 218.03,-176.5 225.03,-176.5"/>
</g>
<!-- :data:coverart&#45;&gt;:core:logging:api -->
<g id="edge15" class="edge">
<title>:data:coverart&#45;&gt;:core:logging:api</title>
<path fill="none" stroke="black" stroke-dasharray="1,5" d="M289.17,-562C269.43,-562 253.49,-562 253.49,-562 253.49,-562 253.49,-32 253.49,-32 253.49,-32 154.29,-32 154.29,-32"/>
<polygon fill="black" stroke="black" points="154.29,-28.5 144.29,-32 154.29,-35.5 154.29,-28.5"/>
</g>
<!-- :core:coroutines -->
<g id="node12" class="node">
<title>:core:coroutines</title>
<ellipse fill="#b59aff" stroke="black" cx="577.39" cy="-155" rx="85.29" ry="18"/>
<text text-anchor="middle" x="577.39" y="-151.3" font-family="Times,serif" font-size="14.00">:core:coroutines</text>
</g>
<!-- :data:coverart&#45;&gt;:core:coroutines -->
<g id="edge16" class="edge">
<title>:data:coverart&#45;&gt;:core:coroutines</title>
<path fill="none" stroke="black" stroke-dasharray="1,5" d="M439.5,-566C516.08,-566 622.92,-566 622.92,-566 622.92,-566 622.92,-180.61 622.92,-180.61"/>
<polygon fill="black" stroke="black" points="626.42,-180.61 622.92,-170.61 619.42,-180.61 626.42,-180.61"/>
</g>
<!-- :test&#45;data -->
<g id="node13" class="node">
<title>:test&#45;data</title>
<ellipse fill="#b59aff" stroke="black" cx="363.39" cy="-429" rx="55.49" ry="18"/>
<text text-anchor="middle" x="363.39" y="-425.3" font-family="Times,serif" font-size="14.00">:test&#45;data</text>
</g>
<!-- :data:coverart&#45;&gt;:test&#45;data -->
<g id="edge17" class="edge">
<title>:data:coverart&#45;&gt;:test&#45;data</title>
<path fill="none" stroke="#ff9ab1" stroke-dasharray="1,5" d="M344.98,-548.37C344.98,-548.37 344.98,-456.13 344.98,-456.13"/>
<polygon fill="#ff9ab1" stroke="#ff9ab1" points="348.48,-456.13 344.98,-446.13 341.48,-456.13 348.48,-456.13"/>
</g>
<!-- :data:database -->
<g id="node14" class="node">
<title>:data:database</title>
<ellipse fill="#b59aff" stroke="black" cx="464.39" cy="-292" rx="79.09" ry="18"/>
<text text-anchor="middle" x="464.39" y="-288.3" font-family="Times,serif" font-size="14.00">:data:database</text>
</g>
<!-- :data:coverart&#45;&gt;:data:database -->
<g id="edge19" class="edge">
<title>:data:coverart&#45;&gt;:data:database</title>
<path fill="none" stroke="#ff9ab1" stroke-dasharray="1,5" d="M429.04,-556.88C429.04,-556.88 429.04,-318.2 429.04,-318.2"/>
<polygon fill="#ff9ab1" stroke="#ff9ab1" points="432.54,-318.2 429.04,-308.2 425.54,-318.2 432.54,-318.2"/>
</g>
<!-- :data:musicbrainz&#45;&gt;:shared:domain -->
<g id="edge20" class="edge">
<title>:data:musicbrainz&#45;&gt;:shared:domain</title>
<path fill="none" stroke="black" stroke-dasharray="1,5" d="M209.88,-141.06C209.88,-103.68 209.88,-4 209.88,-4 209.88,-4 515.13,-4 515.13,-4"/>
<polygon fill="black" stroke="black" points="515.13,-7.5 525.13,-4 515.13,-0.5 515.13,-7.5"/>
</g>
<!-- :data:musicbrainz&#45;&gt;:core:logging:api -->
<g id="edge21" class="edge">
<title>:data:musicbrainz&#45;&gt;:core:logging:api</title>
<path fill="none" stroke="black" stroke-dasharray="1,5" d="M116.29,-137.93C116.29,-137.93 116.29,-45.29 116.29,-45.29"/>
<polygon fill="black" stroke="black" points="119.79,-45.29 116.29,-35.29 112.79,-45.29 119.79,-45.29"/>
</g>
<!-- :ui:image&#45;&gt;:shared:domain -->
<g id="edge22" class="edge">
<title>:ui:image&#45;&gt;:shared:domain</title>
<path fill="none" stroke="black" stroke-dasharray="1,5" d="M672.08,-557.74C672.08,-488.82 672.08,-12 672.08,-12 672.08,-12 665.59,-12 665.59,-12"/>
<polygon fill="black" stroke="black" points="665.59,-8.5 655.59,-12 665.59,-15.5 665.59,-8.5"/>
</g>
<!-- :ui:image&#45;&gt;:ui:core -->
<g id="edge23" class="edge">
<title>:ui:image&#45;&gt;:ui:core</title>
<path fill="none" stroke="black" stroke-dasharray="1,5" d="M735.56,-548.65C735.56,-548.65 735.56,-456.21 735.56,-456.21"/>
<polygon fill="black" stroke="black" points="739.06,-456.21 735.56,-446.21 732.06,-456.21 739.06,-456.21"/>
</g>
<!-- :test&#45;data&#45;&gt;:shared:domain -->
<g id="edge24" class="edge">
<title>:test&#45;data&#45;&gt;:shared:domain</title>
<path fill="none" stroke="black" stroke-dasharray="1,5" d="M418.78,-429C506.93,-429 669.26,-429 669.26,-429 669.26,-429 669.26,-24 669.26,-24 669.26,-24 665.31,-24 665.31,-24"/>
<polygon fill="black" stroke="black" points="665.31,-20.5 655.31,-24 665.31,-27.5 665.31,-20.5"/>
</g>
<!-- :test&#45;data&#45;&gt;:data:coverart -->
<g id="edge26" class="edge">
<title>:test&#45;data&#45;&gt;:data:coverart</title>
<path fill="none" stroke="black" stroke-dasharray="1,5" d="M381.81,-446.07C381.81,-446.07 381.81,-538.28 381.81,-538.28"/>
<polygon fill="black" stroke="black" points="378.31,-538.28 381.81,-548.28 385.31,-538.28 378.31,-538.28"/>
</g>
<!-- :test&#45;data&#45;&gt;:data:musicbrainz -->
<g id="edge25" class="edge">
<title>:test&#45;data&#45;&gt;:data:musicbrainz</title>
<path fill="none" stroke="black" stroke-dasharray="1,5" d="M307.82,-429C270.72,-429 228.68,-429 228.68,-429 228.68,-429 228.68,-174.75 228.68,-174.75"/>
<polygon fill="black" stroke="black" points="232.18,-174.75 228.68,-164.75 225.18,-174.75 232.18,-174.75"/>
</g>
<!-- :test&#45;data&#45;&gt;:core:coroutines -->
<g id="edge29" class="edge">
<title>:test&#45;data&#45;&gt;:core:coroutines</title>
<path fill="none" stroke="black" stroke-dasharray="1,5" d="M411.38,-420C476.09,-420 583.3,-420 583.3,-420 583.3,-420 583.3,-183.21 583.3,-183.21"/>
<polygon fill="black" stroke="black" points="586.8,-183.21 583.3,-173.21 579.8,-183.21 586.8,-183.21"/>
</g>
<!-- :test&#45;data&#45;&gt;:data:database -->
<g id="edge28" class="edge">
<title>:test&#45;data&#45;&gt;:data:database</title>
<path fill="none" stroke="black" stroke-dasharray="1,5" d="M401.87,-415.86C401.87,-415.86 401.87,-313.34 401.87,-313.34"/>
<polygon fill="black" stroke="black" points="405.37,-313.34 401.87,-303.34 398.37,-313.34 405.37,-313.34"/>
</g>
<!-- :data:spotify -->
<g id="node15" class="node">
<title>:data:spotify</title>
<ellipse fill="#b59aff" stroke="black" cx="329.39" cy="-155" rx="68.79" ry="18"/>
<text text-anchor="middle" x="329.39" y="-151.3" font-family="Times,serif" font-size="14.00">:data:spotify</text>
</g>
<!-- :test&#45;data&#45;&gt;:data:spotify -->
<g id="edge27" class="edge">
<title>:test&#45;data&#45;&gt;:data:spotify</title>
<path fill="none" stroke="black" stroke-dasharray="1,5" d="M346.62,-411.44C346.62,-411.44 346.62,-182.77 346.62,-182.77"/>
<polygon fill="black" stroke="black" points="350.12,-182.77 346.62,-172.77 343.12,-182.77 350.12,-182.77"/>
</g>
<!-- :data:database&#45;&gt;:shared:domain -->
<g id="edge30" class="edge">
<title>:data:database&#45;&gt;:shared:domain</title>
<path fill="none" stroke="black" stroke-dasharray="1,5" d="M445.27,-274.27C445.27,-215.08 445.27,-28 445.27,-28 445.27,-28 498.62,-28 498.62,-28"/>
<polygon fill="black" stroke="black" points="498.62,-31.5 508.62,-28 498.62,-24.5 498.62,-31.5"/>
</g>
<!-- :data:database&#45;&gt;:data:musicbrainz -->
<g id="edge32" class="edge">
<title>:data:database&#45;&gt;:data:musicbrainz</title>
<path fill="none" stroke="black" stroke-dasharray="1,5" d="M385.09,-292C319.08,-292 235.83,-292 235.83,-292 235.83,-292 235.83,-171.98 235.83,-171.98"/>
<polygon fill="black" stroke="black" points="239.33,-171.98 235.83,-161.98 232.33,-171.98 239.33,-171.98"/>
</g>
<!-- :data:database&#45;&gt;:core:coroutines -->
<g id="edge31" class="edge">
<title>:data:database&#45;&gt;:core:coroutines</title>
<path fill="none" stroke="black" stroke-dasharray="1,5" d="M517.97,-278.61C517.97,-278.61 517.97,-178.24 517.97,-178.24"/>
<polygon fill="black" stroke="black" points="521.47,-178.24 517.97,-168.24 514.47,-178.24 521.47,-178.24"/>
</g>
<!-- :data:spotify&#45;&gt;:shared:domain -->
<g id="edge33" class="edge">
<title>:data:spotify&#45;&gt;:shared:domain</title>
<path fill="none" stroke="black" stroke-dasharray="1,5" d="M352.36,-137.87C352.36,-102.36 352.36,-24 352.36,-24 352.36,-24 489.32,-24 489.32,-24"/>
<polygon fill="black" stroke="black" points="489.32,-27.5 499.32,-24 489.32,-20.5 489.32,-27.5"/>
</g>
<!-- :data:spotify&#45;&gt;:core:logging:api -->
<g id="edge34" class="edge">
<title>:data:spotify&#45;&gt;:core:logging:api</title>
<path fill="none" stroke="black" stroke-dasharray="1,5" d="M306.43,-137.85C306.43,-99.07 306.43,-8 306.43,-8 306.43,-8 171.91,-8 171.91,-8"/>
<polygon fill="black" stroke="black" points="171.91,-4.5 161.91,-8 171.9,-11.5 171.91,-4.5"/>
</g>
</g>
</svg>
