<?xml version="1.0" encoding="UTF-8" standalone="no"?>
<!DOCTYPE svg PUBLIC "-//W3C//DTD SVG 1.1//EN"
 "http://www.w3.org/Graphics/SVG/1.1/DTD/svg11.dtd">
<!-- Generated by graphviz version 2.43.0 (0)
 -->
<!-- Title: %3 Pages: 1 -->
<svg width="996pt" height="1077pt"
 viewBox="0.00 0.00 995.98 1077.00" xmlns="http://www.w3.org/2000/svg" xmlns:xlink="http://www.w3.org/1999/xlink">
<g id="graph0" class="graph" transform="scale(1 1) rotate(0) translate(4 1073)">
<title>%3</title>
<polygon fill="white" stroke="transparent" points="-4,4 -4,-1073 991.98,-1073 991.98,4 -4,4"/>
<text text-anchor="middle" x="493.99" y="-1041" font-family="Times,serif" font-size="30.00">Dependencies</text>
<text text-anchor="middle" x="493.99" y="-1008" font-family="Times,serif" font-size="30.00"> </text>
<!-- :shared:feature:settings -->
<g id="node1" class="node">
<title>:shared:feature:settings</title>
<polygon fill="#b59aff" stroke="black" points="190.84,-995 2.84,-995 2.84,-959 190.84,-959 190.84,-995"/>
<text text-anchor="middle" x="96.84" y="-973.3" font-family="Times,serif" font-size="14.00">:shared:feature:settings</text>
</g>
<!-- :ui:test:screenshot -->
<g id="node2" class="node">
<title>:ui:test:screenshot</title>
<ellipse fill="#9affb5" stroke="black" cx="96.84" cy="-703" rx="96.68" ry="18"/>
<text text-anchor="middle" x="96.84" y="-699.3" font-family="Times,serif" font-size="14.00">:ui:test:screenshot</text>
</g>
<!-- :shared:feature:settings&#45;&gt;:ui:test:screenshot -->
<g id="edge1" class="edge">
<title>:shared:feature:settings&#45;&gt;:ui:test:screenshot</title>
<path fill="none" stroke="#ff9ab1" stroke-dasharray="1,5" d="M65.51,-958.6C65.51,-958.6 65.51,-730.26 65.51,-730.26"/>
<polygon fill="#ff9ab1" stroke="#ff9ab1" points="69.01,-730.26 65.51,-720.26 62.01,-730.26 69.01,-730.26"/>
</g>
<!-- :ui:common -->
<g id="node3" class="node">
<title>:ui:common</title>
<ellipse fill="#b59aff" stroke="black" cx="344.84" cy="-840" rx="64.19" ry="18"/>
<text text-anchor="middle" x="344.84" y="-836.3" font-family="Times,serif" font-size="14.00">:ui:common</text>
</g>
<!-- :shared:feature:settings&#45;&gt;:ui:common -->
<g id="edge2" class="edge">
<title>:shared:feature:settings&#45;&gt;:ui:common</title>
<path fill="none" stroke="black" stroke-dasharray="1,5" d="M190.95,-971C261.11,-971 344.84,-971 344.84,-971 344.84,-971 344.84,-868.21 344.84,-868.21"/>
<polygon fill="black" stroke="black" points="348.34,-868.21 344.84,-858.21 341.34,-868.22 348.34,-868.21"/>
</g>
<!-- :shared:domain -->
<g id="node4" class="node">
<title>:shared:domain</title>
<ellipse fill="#b59aff" stroke="black" cx="408.84" cy="-155" rx="82.59" ry="18"/>
<text text-anchor="middle" x="408.84" y="-151.3" font-family="Times,serif" font-size="14.00">:shared:domain</text>
</g>
<!-- :shared:feature:settings&#45;&gt;:shared:domain -->
<g id="edge3" class="edge">
<title>:shared:feature:settings&#45;&gt;:shared:domain</title>
<path fill="none" stroke="black" stroke-dasharray="1,5" d="M191.24,-983C293.53,-983 442.32,-983 442.32,-983 442.32,-983 442.32,-181.54 442.32,-181.54"/>
<polygon fill="black" stroke="black" points="445.82,-181.54 442.32,-171.54 438.82,-181.54 445.82,-181.54"/>
</g>
<!-- :ui:core -->
<g id="node5" class="node">
<title>:ui:core</title>
<ellipse fill="#b59aff" stroke="black" cx="333.84" cy="-566" rx="45.49" ry="18"/>
<text text-anchor="middle" x="333.84" y="-562.3" font-family="Times,serif" font-size="14.00">:ui:core</text>
</g>
<!-- :ui:test:screenshot&#45;&gt;:ui:core -->
<g id="edge4" class="edge">
<title>:ui:test:screenshot&#45;&gt;:ui:core</title>
<path fill="none" stroke="black" stroke-dasharray="1,5" d="M176.78,-692.7C176.78,-660.84 176.78,-566 176.78,-566 176.78,-566 277.99,-566 277.99,-566"/>
<polygon fill="black" stroke="black" points="277.99,-569.5 287.99,-566 277.99,-562.5 277.99,-569.5"/>
</g>
<!-- :test:image -->
<g id="node6" class="node">
<title>:test:image</title>
<ellipse fill="#9affb5" stroke="black" cx="96.84" cy="-566" rx="63.09" ry="18"/>
<text text-anchor="middle" x="96.84" y="-562.3" font-family="Times,serif" font-size="14.00">:test:image</text>
</g>
<!-- :ui:test:screenshot&#45;&gt;:test:image -->
<g id="edge5" class="edge">
<title>:ui:test:screenshot&#45;&gt;:test:image</title>
<path fill="none" stroke="black" stroke-dasharray="1,5" d="M96.84,-684.81C96.84,-684.81 96.84,-594.27 96.84,-594.27"/>
<polygon fill="black" stroke="black" points="100.34,-594.27 96.84,-584.27 93.34,-594.27 100.34,-594.27"/>
</g>
<!-- :ui:common&#45;&gt;:ui:test:screenshot -->
<g id="edge7" class="edge">
<title>:ui:common&#45;&gt;:ui:test:screenshot</title>
<path fill="none" stroke="#ff9ab1" stroke-dasharray="1,5" d="M280.42,-840C216.55,-840 128.17,-840 128.17,-840 128.17,-840 128.17,-730.07 128.17,-730.07"/>
<polygon fill="#ff9ab1" stroke="#ff9ab1" points="131.67,-730.07 128.17,-720.07 124.67,-730.07 131.67,-730.07"/>
</g>
<!-- :ui:common&#45;&gt;:shared:domain -->
<g id="edge9" class="edge">
<title>:ui:common&#45;&gt;:shared:domain</title>
<path fill="none" stroke="black" d="M400.73,-831C420.4,-831 437.7,-831 437.7,-831 437.7,-831 437.7,-182.05 437.7,-182.05"/>
<polygon fill="black" stroke="black" points="441.2,-182.05 437.7,-172.05 434.2,-182.05 441.2,-182.05"/>
</g>
<!-- :ui:common&#45;&gt;:ui:core -->
<g id="edge10" class="edge">
<title>:ui:common&#45;&gt;:ui:core</title>
<path fill="none" stroke="black" d="M368.56,-822.86C368.56,-822.86 368.56,-587.92 368.56,-587.92"/>
<polygon fill="black" stroke="black" points="372.06,-587.92 368.56,-577.92 365.06,-587.92 372.06,-587.92"/>
</g>
<!-- :test&#45;data -->
<g id="node7" class="node">
<title>:test&#45;data</title>
<ellipse fill="#b59aff" stroke="black" cx="741.84" cy="-703" rx="55.49" ry="18"/>
<text text-anchor="middle" x="741.84" y="-699.3" font-family="Times,serif" font-size="14.00">:test&#45;data</text>
</g>
<!-- :ui:common&#45;&gt;:test&#45;data -->
<g id="edge6" class="edge">
<title>:ui:common&#45;&gt;:test&#45;data</title>
<path fill="none" stroke="#ff9ab1" stroke-dasharray="1,5" d="M394.26,-828.28C394.26,-796.84 394.26,-713 394.26,-713 394.26,-713 685.69,-713 685.69,-713"/>
<polygon fill="#ff9ab1" stroke="#ff9ab1" points="685.69,-716.5 695.69,-713 685.69,-709.5 685.69,-716.5"/>
</g>
<!-- :core:coroutines -->
<g id="node8" class="node">
<title>:core:coroutines</title>
<ellipse fill="#b59aff" stroke="black" cx="902.84" cy="-18" rx="85.29" ry="18"/>
<text text-anchor="middle" x="902.84" y="-14.3" font-family="Times,serif" font-size="14.00">:core:coroutines</text>
</g>
<!-- :ui:common&#45;&gt;:core:coroutines -->
<g id="edge8" class="edge">
<title>:ui:common&#45;&gt;:core:coroutines</title>
<path fill="none" stroke="#ff9ab1" stroke-dasharray="1,5" d="M400.73,-849C553.28,-849 965.43,-849 965.43,-849 965.43,-849 965.43,-40.39 965.43,-40.39"/>
<polygon fill="#ff9ab1" stroke="#ff9ab1" points="968.93,-40.39 965.43,-30.39 961.93,-40.39 968.93,-40.39"/>
</g>
<!-- :core:logging:api -->
<g id="node9" class="node">
<title>:core:logging:api</title>
<ellipse fill="#b59aff" stroke="black" cx="786.84" cy="-155" rx="88.28" ry="18"/>
<text text-anchor="middle" x="786.84" y="-151.3" font-family="Times,serif" font-size="14.00">:core:logging:api</text>
</g>
<!-- :ui:common&#45;&gt;:core:logging:api -->
<g id="edge11" class="edge">
<title>:ui:common&#45;&gt;:core:logging:api</title>
<path fill="none" stroke="black" stroke-dasharray="1,5" d="M409.32,-840C546.73,-840 855.98,-840 855.98,-840 855.98,-840 855.98,-176.32 855.98,-176.32"/>
<polygon fill="black" stroke="black" points="859.48,-176.32 855.98,-166.32 852.48,-176.32 859.48,-176.32"/>
</g>
<!-- :ui:image -->
<g id="node10" class="node">
<title>:ui:image</title>
<ellipse fill="#b59aff" stroke="black" cx="303.84" cy="-703" rx="53.89" ry="18"/>
<text text-anchor="middle" x="303.84" y="-699.3" font-family="Times,serif" font-size="14.00">:ui:image</text>
</g>
<!-- :ui:common&#45;&gt;:ui:image -->
<g id="edge12" class="edge">
<title>:ui:common&#45;&gt;:ui:image</title>
<path fill="none" stroke="black" stroke-dasharray="1,5" d="M319.14,-823.47C319.14,-823.47 319.14,-730.45 319.14,-730.45"/>
<polygon fill="black" stroke="black" points="322.64,-730.45 319.14,-720.45 315.64,-730.45 322.64,-730.45"/>
</g>
<!-- :shared:strings -->
<g id="node11" class="node">
<title>:shared:strings</title>
<ellipse fill="#b59aff" stroke="black" cx="351.84" cy="-429" rx="81.49" ry="18"/>
<text text-anchor="middle" x="351.84" y="-425.3" font-family="Times,serif" font-size="14.00">:shared:strings</text>
</g>
<!-- :ui:core&#45;&gt;:shared:strings -->
<g id="edge13" class="edge">
<title>:ui:core&#45;&gt;:shared:strings</title>
<path fill="none" stroke="black" d="M333.84,-547.81C333.84,-547.81 333.84,-456.83 333.84,-456.83"/>
<polygon fill="black" stroke="black" points="337.34,-456.83 333.84,-446.83 330.34,-456.83 337.34,-456.83"/>
</g>
<!-- :test&#45;data&#45;&gt;:shared:domain -->
<g id="edge14" class="edge">
<title>:test&#45;data&#45;&gt;:shared:domain</title>
<path fill="none" stroke="black" stroke-dasharray="1,5" d="M687.06,-706C601.78,-706 446.93,-706 446.93,-706 446.93,-706 446.93,-181.19 446.93,-181.19"/>
<polygon fill="black" stroke="black" points="450.43,-181.19 446.93,-171.19 443.43,-181.19 450.43,-181.19"/>
</g>
<!-- :test&#45;data&#45;&gt;:core:coroutines -->
<g id="edge15" class="edge">
<title>:test&#45;data&#45;&gt;:core:coroutines</title>
<path fill="none" stroke="black" stroke-dasharray="1,5" d="M794.14,-709C853.71,-709 942.88,-709 942.88,-709 942.88,-709 942.88,-44.06 942.88,-44.06"/>
<polygon fill="black" stroke="black" points="946.38,-44.06 942.88,-34.06 939.38,-44.06 946.38,-44.06"/>
</g>
<!-- :data:database -->
<g id="node12" class="node">
<title>:data:database</title>
<ellipse fill="#b59aff" stroke="black" cx="530.84" cy="-429" rx="79.09" ry="18"/>
<text text-anchor="middle" x="530.84" y="-425.3" font-family="Times,serif" font-size="14.00">:data:database</text>
</g>
<!-- :test&#45;data&#45;&gt;:data:database -->
<g id="edge16" class="edge">
<title>:test&#45;data&#45;&gt;:data:database</title>
<path fill="none" stroke="black" stroke-dasharray="1,5" d="M687.78,-699C625.26,-699 530.84,-699 530.84,-699 530.84,-699 530.84,-457.13 530.84,-457.13"/>
<polygon fill="black" stroke="black" points="534.34,-457.13 530.84,-447.13 527.34,-457.13 534.34,-457.13"/>
</g>
<!-- :data:musicbrainz -->
<g id="node13" class="node">
<title>:data:musicbrainz</title>
<ellipse fill="#b59aff" stroke="black" cx="587.84" cy="-292" rx="93.68" ry="18"/>
<text text-anchor="middle" x="587.84" y="-288.3" font-family="Times,serif" font-size="14.00">:data:musicbrainz</text>
</g>
<!-- :test&#45;data&#45;&gt;:data:musicbrainz -->
<g id="edge17" class="edge">
<title>:test&#45;data&#45;&gt;:data:musicbrainz</title>
<path fill="none" stroke="black" stroke-dasharray="1,5" d="M698.09,-692C669.7,-692 637.97,-692 637.97,-692 637.97,-692 637.97,-317.68 637.97,-317.68"/>
<polygon fill="black" stroke="black" points="641.47,-317.68 637.97,-307.68 634.47,-317.68 641.47,-317.68"/>
</g>
<!-- :data:coverart -->
<g id="node14" class="node">
<title>:data:coverart</title>
<ellipse fill="#b59aff" stroke="black" cx="741.84" cy="-566" rx="76.09" ry="18"/>
<text text-anchor="middle" x="741.84" y="-562.3" font-family="Times,serif" font-size="14.00">:data:coverart</text>
</g>
<!-- :test&#45;data&#45;&gt;:data:coverart -->
<g id="edge18" class="edge">
<title>:test&#45;data&#45;&gt;:data:coverart</title>
<path fill="none" stroke="black" stroke-dasharray="1,5" d="M723.43,-685.93C723.43,-685.93 723.43,-593.72 723.43,-593.72"/>
<polygon fill="black" stroke="black" points="726.93,-593.72 723.43,-583.72 719.93,-593.72 726.93,-593.72"/>
</g>
<!-- :data:spotify -->
<g id="node15" class="node">
<title>:data:spotify</title>
<ellipse fill="#b59aff" stroke="black" cx="767.84" cy="-292" rx="68.79" ry="18"/>
<text text-anchor="middle" x="767.84" y="-288.3" font-family="Times,serif" font-size="14.00">:data:spotify</text>
</g>
<!-- :test&#45;data&#45;&gt;:data:spotify -->
<g id="edge19" class="edge">
<title>:test&#45;data&#45;&gt;:data:spotify</title>
<path fill="none" stroke="black" stroke-dasharray="1,5" d="M794.02,-697C811.82,-697 827.31,-697 827.31,-697 827.31,-697 827.31,-311.22 827.31,-311.22"/>
<polygon fill="black" stroke="black" points="830.81,-311.22 827.31,-301.22 823.81,-311.22 830.81,-311.22"/>
</g>
<!-- :core:logging:api&#45;&gt;:core:coroutines -->
<g id="edge20" class="edge">
<title>:core:logging:api&#45;&gt;:core:coroutines</title>
<path fill="none" stroke="black" d="M846.47,-141.61C846.47,-141.61 846.47,-41.64 846.47,-41.64"/>
<polygon fill="black" stroke="black" points="849.97,-41.64 846.47,-31.64 842.97,-41.64 849.97,-41.64"/>
</g>
<!-- :ui:image&#45;&gt;:shared:domain -->
<g id="edge21" class="edge">
<title>:ui:image&#45;&gt;:shared:domain</title>
<path fill="none" stroke="black" stroke-dasharray="1,5" d="M260.25,-692.05C260.25,-614.82 260.25,-155 260.25,-155 260.25,-155 316.29,-155 316.29,-155"/>
<polygon fill="black" stroke="black" points="316.29,-158.5 326.29,-155 316.29,-151.5 316.29,-158.5"/>
</g>
<!-- :ui:image&#45;&gt;:ui:core -->
<g id="edge22" class="edge">
<title>:ui:image&#45;&gt;:ui:core</title>
<path fill="none" stroke="black" stroke-dasharray="1,5" d="M323.07,-685.93C323.07,-685.93 323.07,-593.72 323.07,-593.72"/>
<polygon fill="black" stroke="black" points="326.57,-593.72 323.07,-583.72 319.57,-593.72 326.57,-593.72"/>
</g>
<!-- :data:database&#45;&gt;:shared:domain -->
<g id="edge23" class="edge">
<title>:data:database&#45;&gt;:shared:domain</title>
<path fill="none" stroke="black" stroke-dasharray="1,5" d="M464.83,-418.92C464.83,-418.92 464.83,-178.26 464.83,-178.26"/>
<polygon fill="black" stroke="black" points="468.33,-178.26 464.83,-168.26 461.33,-178.26 468.33,-178.26"/>
</g>
<!-- :data:database&#45;&gt;:core:coroutines -->
<g id="edge24" class="edge">
<title>:data:database&#45;&gt;:core:coroutines</title>
<path fill="none" stroke="black" stroke-dasharray="1,5" d="M605.98,-423C713.34,-423 897.78,-423 897.78,-423 897.78,-423 897.78,-46.19 897.78,-46.19"/>
<polygon fill="black" stroke="black" points="901.28,-46.19 897.78,-36.19 894.28,-46.19 901.28,-46.19"/>
</g>
<!-- :data:database&#45;&gt;:data:musicbrainz -->
<g id="edge25" class="edge">
<title>:data:database&#45;&gt;:data:musicbrainz</title>
<path fill="none" stroke="black" stroke-dasharray="1,5" d="M552.19,-411.65C552.19,-411.65 552.19,-318.78 552.19,-318.78"/>
<polygon fill="black" stroke="black" points="555.69,-318.78 552.19,-308.78 548.69,-318.78 555.69,-318.78"/>
</g>
<!-- :data:musicbrainz&#45;&gt;:shared:domain -->
<g id="edge26" class="edge">
<title>:data:musicbrainz&#45;&gt;:shared:domain</title>
<path fill="none" stroke="black" stroke-dasharray="1,5" d="M493.83,-292C484.34,-292 478.11,-292 478.11,-292 478.11,-292 478.11,-174.85 478.11,-174.85"/>
<polygon fill="black" stroke="black" points="481.61,-174.85 478.11,-164.85 474.61,-174.85 481.61,-174.85"/>
</g>
<!-- :data:musicbrainz&#45;&gt;:core:logging:api -->
<g id="edge27" class="edge">
<title>:data:musicbrainz&#45;&gt;:core:logging:api</title>
<path fill="none" stroke="black" stroke-dasharray="1,5" d="M587.84,-273.8C587.84,-238.69 587.84,-165 587.84,-165 587.84,-165 703.31,-165 703.31,-165"/>
<polygon fill="black" stroke="black" points="703.31,-168.5 713.31,-165 703.31,-161.5 703.31,-168.5"/>
</g>
<!-- :data:coverart&#45;&gt;:shared:domain -->
<g id="edge28" class="edge">
<title>:data:coverart&#45;&gt;:shared:domain</title>
<path fill="none" stroke="black" stroke-dasharray="1,5" d="M685.69,-553.79C685.69,-485.9 685.69,-158 685.69,-158 685.69,-158 500.41,-158 500.41,-158"/>
<polygon fill="black" stroke="black" points="500.41,-154.5 490.41,-158 500.41,-161.5 500.41,-154.5"/>
</g>
<!-- :data:coverart&#45;&gt;:test&#45;data -->
<g id="edge31" class="edge">
<title>:data:coverart&#45;&gt;:test&#45;data</title>
<path fill="none" stroke="#ff9ab1" stroke-dasharray="1,5" d="M760.26,-583.63C760.26,-583.63 760.26,-675.87 760.26,-675.87"/>
<polygon fill="#ff9ab1" stroke="#ff9ab1" points="756.76,-675.87 760.26,-685.87 763.76,-675.87 756.76,-675.87"/>
</g>
<!-- :data:coverart&#45;&gt;:core:coroutines -->
<g id="edge30" class="edge">
<title>:data:coverart&#45;&gt;:core:coroutines</title>
<path fill="none" stroke="black" stroke-dasharray="1,5" d="M818.06,-566C866.57,-566 920.33,-566 920.33,-566 920.33,-566 920.33,-45.92 920.33,-45.92"/>
<polygon fill="black" stroke="black" points="923.83,-45.92 920.33,-35.92 916.83,-45.92 923.83,-45.92"/>
</g>
<!-- :data:coverart&#45;&gt;:core:logging:api -->
<g id="edge29" class="edge">
<title>:data:coverart&#45;&gt;:core:logging:api</title>
<path fill="none" stroke="black" stroke-dasharray="1,5" d="M689.94,-552.44C689.94,-480.21 689.94,-144 689.94,-144 689.94,-144 706.68,-144 706.68,-144"/>
<polygon fill="black" stroke="black" points="706.68,-147.5 716.68,-144 706.68,-140.5 706.68,-147.5"/>
</g>
<!-- :data:coverart&#45;&gt;:data:database -->
<g id="edge33" class="edge">
<title>:data:coverart&#45;&gt;:data:database</title>
<path fill="none" stroke="#ff9ab1" stroke-dasharray="1,5" d="M671.01,-559.32C671.01,-532.63 671.01,-435 671.01,-435 671.01,-435 615.85,-435 615.85,-435"/>
<polygon fill="#ff9ab1" stroke="#ff9ab1" points="615.85,-431.5 605.85,-435 615.85,-438.5 615.85,-431.5"/>
</g>
<!-- :data:coverart&#45;&gt;:data:musicbrainz -->
<g id="edge32" class="edge">
<title>:data:coverart&#45;&gt;:data:musicbrainz</title>
<path fill="none" stroke="#ff9ab1" stroke-dasharray="1,5" d="M676.22,-556.88C676.22,-556.88 676.22,-308.32 676.22,-308.32"/>
<polygon fill="#ff9ab1" stroke="#ff9ab1" points="679.72,-308.32 676.22,-298.32 672.72,-308.32 679.72,-308.32"/>
</g>
<!-- :data:spotify&#45;&gt;:shared:domain -->
<g id="edge34" class="edge">
<title>:data:spotify&#45;&gt;:shared:domain</title>
<path fill="none" stroke="black" stroke-dasharray="1,5" d="M698.58,-292C695.82,-292 694.2,-292 694.2,-292 694.2,-292 694.2,-151 694.2,-151 694.2,-151 499.47,-151 499.47,-151"/>
<polygon fill="black" stroke="black" points="499.47,-147.5 489.47,-151 499.47,-154.5 499.47,-147.5"/>
</g>
<!-- :data:spotify&#45;&gt;:core:logging:api -->
<g id="edge35" class="edge">
<title>:data:spotify&#45;&gt;:core:logging:api</title>
<path fill="none" stroke="black" stroke-dasharray="1,5" d="M767.84,-273.81C767.84,-273.81 767.84,-182.83 767.84,-182.83"/>
<polygon fill="black" stroke="black" points="771.34,-182.83 767.84,-172.83 764.34,-182.83 771.34,-182.83"/>
</g>
</g>
</svg>
