<?xml version="1.0" encoding="UTF-8" standalone="no"?>
<!DOCTYPE svg PUBLIC "-//W3C//DTD SVG 1.1//EN"
 "http://www.w3.org/Graphics/SVG/1.1/DTD/svg11.dtd">
<!-- Generated by graphviz version 2.43.0 (0)
 -->
<!-- Title: %3 Pages: 1 -->
<svg width="1057pt" height="666pt"
 viewBox="0.00 0.00 1057.48 666.00" xmlns="http://www.w3.org/2000/svg" xmlns:xlink="http://www.w3.org/1999/xlink">
<g id="graph0" class="graph" transform="scale(1 1) rotate(0) translate(4 662)">
<title>%3</title>
<polygon fill="white" stroke="transparent" points="-4,4 -4,-662 1053.48,-662 1053.48,4 -4,4"/>
<text text-anchor="middle" x="524.74" y="-630" font-family="Times,serif" font-size="30.00">Dependencies</text>
<text text-anchor="middle" x="524.74" y="-597" font-family="Times,serif" font-size="30.00"> </text>
<!-- :shared:feature:settings -->
<g id="node1" class="node">
<title>:shared:feature:settings</title>
<polygon fill="#b59aff" stroke="black" points="567.84,-584 379.84,-584 379.84,-548 567.84,-548 567.84,-584"/>
<text text-anchor="middle" x="473.84" y="-562.3" font-family="Times,serif" font-size="14.00">:shared:feature:settings</text>
</g>
<!-- :ui:test:screenshot -->
<g id="node2" class="node">
<title>:ui:test:screenshot</title>
<ellipse fill="#9affb5" stroke="black" cx="96.84" cy="-292" rx="96.68" ry="18"/>
<text text-anchor="middle" x="96.84" y="-288.3" font-family="Times,serif" font-size="14.00">:ui:test:screenshot</text>
</g>
<!-- :shared:feature:settings&#45;&gt;:ui:test:screenshot -->
<g id="edge1" class="edge">
<title>:shared:feature:settings&#45;&gt;:ui:test:screenshot</title>
<path fill="none" stroke="#ff9ab1" stroke-dasharray="1,5" d="M379.69,-566C258.84,-566 64.56,-566 64.56,-566 64.56,-566 64.56,-319.14 64.56,-319.14"/>
<polygon fill="#ff9ab1" stroke="#ff9ab1" points="68.06,-319.14 64.56,-309.14 61.06,-319.14 68.06,-319.14"/>
</g>
<!-- :ui:common -->
<g id="node3" class="node">
<title>:ui:common</title>
<ellipse fill="#b59aff" stroke="black" cx="473.84" cy="-429" rx="64.19" ry="18"/>
<text text-anchor="middle" x="473.84" y="-425.3" font-family="Times,serif" font-size="14.00">:ui:common</text>
</g>
<!-- :shared:feature:settings&#45;&gt;:ui:common -->
<g id="edge2" class="edge">
<title>:shared:feature:settings&#45;&gt;:ui:common</title>
<path fill="none" stroke="black" stroke-dasharray="1,5" d="M473.84,-547.81C473.84,-547.81 473.84,-457.27 473.84,-457.27"/>
<polygon fill="black" stroke="black" points="477.34,-457.27 473.84,-447.27 470.34,-457.27 477.34,-457.27"/>
</g>
<!-- :shared:domain -->
<g id="node4" class="node">
<title>:shared:domain</title>
<ellipse fill="#b59aff" stroke="black" cx="474.84" cy="-155" rx="82.59" ry="18"/>
<text text-anchor="middle" x="474.84" y="-151.3" font-family="Times,serif" font-size="14.00">:shared:domain</text>
</g>
<!-- :shared:feature:settings&#45;&gt;:shared:domain -->
<g id="edge3" class="edge">
<title>:shared:feature:settings&#45;&gt;:shared:domain</title>
<path fill="none" stroke="black" stroke-dasharray="1,5" d="M404.93,-547.81C404.93,-547.81 404.93,-174.81 404.93,-174.81"/>
<polygon fill="black" stroke="black" points="408.43,-174.81 404.93,-164.81 401.43,-174.81 408.43,-174.81"/>
</g>
<!-- :core:preferences -->
<g id="node5" class="node">
<title>:core:preferences</title>
<ellipse fill="#b59aff" stroke="black" cx="957.84" cy="-292" rx="91.78" ry="18"/>
<text text-anchor="middle" x="957.84" y="-288.3" font-family="Times,serif" font-size="14.00">:core:preferences</text>
</g>
<!-- :shared:feature:settings&#45;&gt;:core:preferences -->
<g id="edge4" class="edge">
<title>:shared:feature:settings&#45;&gt;:core:preferences</title>
<path fill="none" stroke="black" stroke-dasharray="1,5" d="M567.92,-572C716.4,-572 988.39,-572 988.39,-572 988.39,-572 988.39,-319.09 988.39,-319.09"/>
<polygon fill="black" stroke="black" points="991.89,-319.09 988.39,-309.09 984.89,-319.09 991.89,-319.09"/>
</g>
<!-- :data:musicbrainz -->
<g id="node6" class="node">
<title>:data:musicbrainz</title>
<ellipse fill="#b59aff" stroke="black" cx="715.84" cy="-292" rx="93.68" ry="18"/>
<text text-anchor="middle" x="715.84" y="-288.3" font-family="Times,serif" font-size="14.00">:data:musicbrainz</text>
</g>
<!-- :shared:feature:settings&#45;&gt;:data:musicbrainz -->
<g id="edge5" class="edge">
<title>:shared:feature:settings&#45;&gt;:data:musicbrainz</title>
<path fill="none" stroke="black" stroke-dasharray="1,5" d="M567.86,-560C646.89,-560 747.04,-560 747.04,-560 747.04,-560 747.04,-319.17 747.04,-319.17"/>
<polygon fill="black" stroke="black" points="750.54,-319.17 747.04,-309.17 743.54,-319.17 750.54,-319.17"/>
</g>
<!-- :ui:core -->
<g id="node7" class="node">
<title>:ui:core</title>
<ellipse fill="#b59aff" stroke="black" cx="222.84" cy="-155" rx="45.49" ry="18"/>
<text text-anchor="middle" x="222.84" y="-151.3" font-family="Times,serif" font-size="14.00">:ui:core</text>
</g>
<!-- :ui:test:screenshot&#45;&gt;:ui:core -->
<g id="edge6" class="edge">
<title>:ui:test:screenshot&#45;&gt;:ui:core</title>
<path fill="none" stroke="black" stroke-dasharray="1,5" d="M185.51,-284.63C185.51,-284.63 185.51,-175.67 185.51,-175.67"/>
<polygon fill="black" stroke="black" points="189.01,-175.67 185.51,-165.67 182.01,-175.67 189.01,-175.67"/>
</g>
<!-- :test:image -->
<g id="node8" class="node">
<title>:test:image</title>
<ellipse fill="#9affb5" stroke="black" cx="95.84" cy="-155" rx="63.09" ry="18"/>
<text text-anchor="middle" x="95.84" y="-151.3" font-family="Times,serif" font-size="14.00">:test:image</text>
</g>
<!-- :ui:test:screenshot&#45;&gt;:test:image -->
<g id="edge7" class="edge">
<title>:ui:test:screenshot&#45;&gt;:test:image</title>
<path fill="none" stroke="black" stroke-dasharray="1,5" d="M95.84,-273.81C95.84,-273.81 95.84,-183.27 95.84,-183.27"/>
<polygon fill="black" stroke="black" points="99.34,-183.27 95.84,-173.27 92.34,-183.27 99.34,-183.27"/>
</g>
<!-- :ui:common&#45;&gt;:ui:test:screenshot -->
<g id="edge8" class="edge">
<title>:ui:common&#45;&gt;:ui:test:screenshot</title>
<path fill="none" stroke="#ff9ab1" stroke-dasharray="1,5" d="M418.07,-438C320.51,-438 129.12,-438 129.12,-438 129.12,-438 129.12,-319.03 129.12,-319.03"/>
<polygon fill="#ff9ab1" stroke="#ff9ab1" points="132.62,-319.03 129.12,-309.03 125.62,-319.03 132.62,-319.03"/>
</g>
<!-- :ui:common&#45;&gt;:shared:domain -->
<g id="edge9" class="edge">
<title>:ui:common&#45;&gt;:shared:domain</title>
<path fill="none" stroke="black" d="M430.65,-415.41C430.65,-415.41 430.65,-180.34 430.65,-180.34"/>
<polygon fill="black" stroke="black" points="434.15,-180.34 430.65,-170.34 427.15,-180.34 434.15,-180.34"/>
</g>
<!-- :ui:common&#45;&gt;:core:preferences -->
<g id="edge13" class="edge">
<title>:ui:common&#45;&gt;:core:preferences</title>
<path fill="none" stroke="black" stroke-dasharray="1,5" d="M529.9,-438C651.22,-438 927.29,-438 927.29,-438 927.29,-438 927.29,-319.03 927.29,-319.03"/>
<polygon fill="black" stroke="black" points="930.79,-319.03 927.29,-309.03 923.79,-319.03 930.79,-319.03"/>
</g>
<!-- :ui:common&#45;&gt;:data:musicbrainz -->
<g id="edge12" class="edge">
<title>:ui:common&#45;&gt;:data:musicbrainz</title>
<path fill="none" stroke="black" stroke-dasharray="1,5" d="M538.23,-429C600.23,-429 684.64,-429 684.64,-429 684.64,-429 684.64,-319.07 684.64,-319.07"/>
<polygon fill="black" stroke="black" points="688.14,-319.07 684.64,-309.07 681.14,-319.07 688.14,-319.07"/>
</g>
<!-- :ui:common&#45;&gt;:ui:core -->
<g id="edge10" class="edge">
<title>:ui:common&#45;&gt;:ui:core</title>
<path fill="none" stroke="black" d="M409.4,-429C337.46,-429 231.01,-429 231.01,-429 231.01,-429 231.01,-182.98 231.01,-182.98"/>
<polygon fill="black" stroke="black" points="234.51,-182.98 231.01,-172.98 227.51,-182.98 234.51,-182.98"/>
</g>
<!-- :data:coverart -->
<g id="node9" class="node">
<title>:data:coverart</title>
<ellipse fill="#b59aff" stroke="black" cx="527.84" cy="-292" rx="76.09" ry="18"/>
<text text-anchor="middle" x="527.84" y="-288.3" font-family="Times,serif" font-size="14.00">:data:coverart</text>
</g>
<!-- :ui:common&#45;&gt;:data:coverart -->
<g id="edge11" class="edge">
<title>:ui:common&#45;&gt;:data:coverart</title>
<path fill="none" stroke="black" stroke-dasharray="1,5" d="M494.99,-411.93C494.99,-411.93 494.99,-318.43 494.99,-318.43"/>
<polygon fill="black" stroke="black" points="498.49,-318.43 494.99,-308.43 491.49,-318.43 498.49,-318.43"/>
</g>
<!-- :core:logging:api -->
<g id="node10" class="node">
<title>:core:logging:api</title>
<ellipse fill="#b59aff" stroke="black" cx="715.84" cy="-155" rx="88.28" ry="18"/>
<text text-anchor="middle" x="715.84" y="-151.3" font-family="Times,serif" font-size="14.00">:core:logging:api</text>
</g>
<!-- :ui:common&#45;&gt;:core:logging:api -->
<g id="edge14" class="edge">
<title>:ui:common&#45;&gt;:core:logging:api</title>
<path fill="none" stroke="black" stroke-dasharray="1,5" d="M529.62,-420C567.22,-420 610.01,-420 610.01,-420 610.01,-420 610.01,-164 610.01,-164 610.01,-164 629.21,-164 629.21,-164"/>
<polygon fill="black" stroke="black" points="629.21,-167.5 639.21,-164 629.21,-160.5 629.21,-167.5"/>
</g>
<!-- :ui:image -->
<g id="node11" class="node">
<title>:ui:image</title>
<ellipse fill="#b59aff" stroke="black" cx="341.84" cy="-292" rx="53.89" ry="18"/>
<text text-anchor="middle" x="341.84" y="-288.3" font-family="Times,serif" font-size="14.00">:ui:image</text>
</g>
<!-- :ui:common&#45;&gt;:ui:image -->
<g id="edge15" class="edge">
<title>:ui:common&#45;&gt;:ui:image</title>
<path fill="none" stroke="black" stroke-dasharray="1,5" d="M417.9,-420C401.47,-420 387.81,-420 387.81,-420 387.81,-420 387.81,-311.62 387.81,-311.62"/>
<polygon fill="black" stroke="black" points="391.31,-311.62 387.81,-301.62 384.31,-311.62 391.31,-311.62"/>
</g>
<!-- :core:preferences&#45;&gt;:shared:domain -->
<g id="edge16" class="edge">
<title>:core:preferences&#45;&gt;:shared:domain</title>
<path fill="none" stroke="black" stroke-dasharray="1,5" d="M929.46,-274.59C929.46,-254.15 929.46,-223 929.46,-223 929.46,-223 522.19,-223 522.19,-223 522.19,-223 522.19,-179.75 522.19,-179.75"/>
<polygon fill="black" stroke="black" points="525.69,-179.75 522.19,-169.75 518.69,-179.76 525.69,-179.75"/>
</g>
<!-- :core:coroutines -->
<g id="node12" class="node">
<title>:core:coroutines</title>
<ellipse fill="#b59aff" stroke="black" cx="957.84" cy="-155" rx="85.29" ry="18"/>
<text text-anchor="middle" x="957.84" y="-151.3" font-family="Times,serif" font-size="14.00">:core:coroutines</text>
</g>
<!-- :core:preferences&#45;&gt;:core:coroutines -->
<g id="edge17" class="edge">
<title>:core:preferences&#45;&gt;:core:coroutines</title>
<path fill="none" stroke="black" stroke-dasharray="1,5" d="M986.22,-274.65C986.22,-274.65 986.22,-182.21 986.22,-182.21"/>
<polygon fill="black" stroke="black" points="989.72,-182.21 986.22,-172.21 982.72,-182.21 989.72,-182.21"/>
</g>
<!-- :data:musicbrainz&#45;&gt;:shared:domain -->
<g id="edge18" class="edge">
<title>:data:musicbrainz&#45;&gt;:shared:domain</title>
<path fill="none" stroke="black" stroke-dasharray="1,5" d="M622.07,-292C618.33,-292 616.13,-292 616.13,-292 616.13,-292 616.13,-155 616.13,-155 616.13,-155 567.44,-155 567.44,-155"/>
<polygon fill="black" stroke="black" points="567.44,-151.5 557.44,-155 567.44,-158.5 567.44,-151.5"/>
</g>
<!-- :data:musicbrainz&#45;&gt;:core:logging:api -->
<g id="edge19" class="edge">
<title>:data:musicbrainz&#45;&gt;:core:logging:api</title>
<path fill="none" stroke="black" stroke-dasharray="1,5" d="M715.84,-273.81C715.84,-273.81 715.84,-183.27 715.84,-183.27"/>
<polygon fill="black" stroke="black" points="719.34,-183.27 715.84,-173.27 712.34,-183.27 719.34,-183.27"/>
</g>
<!-- :shared:strings -->
<g id="node13" class="node">
<title>:shared:strings</title>
<ellipse fill="#b59aff" stroke="black" cx="222.84" cy="-18" rx="81.49" ry="18"/>
<text text-anchor="middle" x="222.84" y="-14.3" font-family="Times,serif" font-size="14.00">:shared:strings</text>
</g>
<!-- :ui:core&#45;&gt;:shared:strings -->
<g id="edge20" class="edge">
<title>:ui:core&#45;&gt;:shared:strings</title>
<path fill="none" stroke="black" d="M222.84,-136.81C222.84,-136.81 222.84,-46.27 222.84,-46.27"/>
<polygon fill="black" stroke="black" points="226.34,-46.27 222.84,-36.27 219.34,-46.27 226.34,-46.27"/>
</g>
<!-- :data:coverart&#45;&gt;:shared:domain -->
<g id="edge21" class="edge">
<title>:data:coverart&#45;&gt;:shared:domain</title>
<path fill="none" stroke="black" stroke-dasharray="1,5" d="M486.99,-276.82C486.99,-276.82 486.99,-182.85 486.99,-182.85"/>
<polygon fill="black" stroke="black" points="490.49,-182.85 486.99,-172.85 483.49,-182.85 490.49,-182.85"/>
</g>
<!-- :data:coverart&#45;&gt;:core:logging:api -->
<g id="edge22" class="edge">
<title>:data:coverart&#45;&gt;:core:logging:api</title>
<path fill="none" stroke="black" stroke-dasharray="1,5" d="M580.63,-279.04C580.63,-243.31 580.63,-146 580.63,-146 580.63,-146 629.15,-146 629.15,-146"/>
<polygon fill="black" stroke="black" points="629.15,-149.5 639.15,-146 629.15,-142.5 629.15,-149.5"/>
</g>
<!-- :ui:image&#45;&gt;:shared:domain -->
<g id="edge23" class="edge">
<title>:ui:image&#45;&gt;:shared:domain</title>
<path fill="none" stroke="black" stroke-dasharray="1,5" d="M396.15,-292C398.78,-292 400.36,-292 400.36,-292 400.36,-292 400.36,-172.76 400.36,-172.76"/>
<polygon fill="black" stroke="black" points="403.86,-172.76 400.36,-162.76 396.86,-172.76 403.86,-172.76"/>
</g>
<!-- :ui:image&#45;&gt;:ui:core -->
<g id="edge24" class="edge">
<title>:ui:image&#45;&gt;:ui:core</title>
<path fill="none" stroke="black" stroke-dasharray="1,5" d="M295.99,-282.15C295.99,-250.73 295.99,-155 295.99,-155 295.99,-155 278.75,-155 278.75,-155"/>
<polygon fill="black" stroke="black" points="278.75,-151.5 268.75,-155 278.75,-158.5 278.75,-151.5"/>
</g>
</g>
</svg>
