<?xml version="1.0" encoding="UTF-8" standalone="no"?>
<!DOCTYPE svg PUBLIC "-//W3C//DTD SVG 1.1//EN"
 "http://www.w3.org/Graphics/SVG/1.1/DTD/svg11.dtd">
<!-- Generated by graphviz version 2.43.0 (0)
 -->
<!-- Title: %3 Pages: 1 -->
<svg width="855pt" height="666pt"
 viewBox="0.00 0.00 855.43 666.00" xmlns="http://www.w3.org/2000/svg" xmlns:xlink="http://www.w3.org/1999/xlink">
<g id="graph0" class="graph" transform="scale(1 1) rotate(0) translate(4 662)">
<title>%3</title>
<polygon fill="white" stroke="transparent" points="-4,4 -4,-662 851.43,-662 851.43,4 -4,4"/>
<text text-anchor="middle" x="423.72" y="-630" font-family="Times,serif" font-size="30.00">Dependencies</text>
<text text-anchor="middle" x="423.72" y="-597" font-family="Times,serif" font-size="30.00"> </text>
<!-- :shared:feature:settings -->
<g id="node1" class="node">
<title>:shared:feature:settings</title>
<polygon fill="#b59aff" stroke="black" points="399.84,-584 211.84,-584 211.84,-548 399.84,-548 399.84,-584"/>
<text text-anchor="middle" x="305.84" y="-562.3" font-family="Times,serif" font-size="14.00">:shared:feature:settings</text>
</g>
<!-- :ui:test:screenshot -->
<g id="node2" class="node">
<title>:ui:test:screenshot</title>
<ellipse fill="#9affb5" stroke="black" cx="96.84" cy="-292" rx="96.68" ry="18"/>
<text text-anchor="middle" x="96.84" y="-288.3" font-family="Times,serif" font-size="14.00">:ui:test:screenshot</text>
</g>
<!-- :shared:feature:settings&#45;&gt;:ui:test:screenshot -->
<g id="edge1" class="edge">
<title>:shared:feature:settings&#45;&gt;:ui:test:screenshot</title>
<path fill="none" stroke="#ff9ab1" stroke-dasharray="1,5" d="M230.67,-547.6C230.67,-486.16 230.67,-292 230.67,-292 230.67,-292 203.75,-292 203.75,-292"/>
<polygon fill="#ff9ab1" stroke="#ff9ab1" points="203.75,-288.5 193.75,-292 203.75,-295.5 203.75,-288.5"/>
</g>
<!-- :ui:common -->
<g id="node3" class="node">
<title>:ui:common</title>
<ellipse fill="#b59aff" stroke="black" cx="387.84" cy="-429" rx="64.19" ry="18"/>
<text text-anchor="middle" x="387.84" y="-425.3" font-family="Times,serif" font-size="14.00">:ui:common</text>
</g>
<!-- :shared:feature:settings&#45;&gt;:ui:common -->
<g id="edge2" class="edge">
<title>:shared:feature:settings&#45;&gt;:ui:common</title>
<path fill="none" stroke="black" stroke-dasharray="1,5" d="M361.67,-547.81C361.67,-547.81 361.67,-455.55 361.67,-455.55"/>
<polygon fill="black" stroke="black" points="365.17,-455.55 361.67,-445.55 358.17,-455.55 365.17,-455.55"/>
</g>
<!-- :shared:domain -->
<g id="node4" class="node">
<title>:shared:domain</title>
<ellipse fill="#b59aff" stroke="black" cx="423.84" cy="-155" rx="82.59" ry="18"/>
<text text-anchor="middle" x="423.84" y="-151.3" font-family="Times,serif" font-size="14.00">:shared:domain</text>
</g>
<!-- :shared:feature:settings&#45;&gt;:shared:domain -->
<g id="edge3" class="edge">
<title>:shared:feature:settings&#45;&gt;:shared:domain</title>
<path fill="none" stroke="black" stroke-dasharray="1,5" d="M278.12,-547.81C278.12,-467.55 278.12,-149 278.12,-149 278.12,-149 335.86,-149 335.86,-149"/>
<polygon fill="black" stroke="black" points="335.86,-152.5 345.86,-149 335.86,-145.5 335.86,-152.5"/>
</g>
<!-- :data:musicbrainz -->
<g id="node5" class="node">
<title>:data:musicbrainz</title>
<ellipse fill="#b59aff" stroke="black" cx="753.84" cy="-292" rx="93.68" ry="18"/>
<text text-anchor="middle" x="753.84" y="-288.3" font-family="Times,serif" font-size="14.00">:data:musicbrainz</text>
</g>
<!-- :shared:feature:settings&#45;&gt;:data:musicbrainz -->
<g id="edge4" class="edge">
<title>:shared:feature:settings&#45;&gt;:data:musicbrainz</title>
<path fill="none" stroke="black" stroke-dasharray="1,5" d="M399.94,-566C539.5,-566 785.04,-566 785.04,-566 785.04,-566 785.04,-319.14 785.04,-319.14"/>
<polygon fill="black" stroke="black" points="788.54,-319.14 785.04,-309.14 781.54,-319.14 788.54,-319.14"/>
</g>
<!-- :ui:core -->
<g id="node6" class="node">
<title>:ui:core</title>
<ellipse fill="#b59aff" stroke="black" cx="222.84" cy="-155" rx="45.49" ry="18"/>
<text text-anchor="middle" x="222.84" y="-151.3" font-family="Times,serif" font-size="14.00">:ui:core</text>
</g>
<!-- :ui:test:screenshot&#45;&gt;:ui:core -->
<g id="edge5" class="edge">
<title>:ui:test:screenshot&#45;&gt;:ui:core</title>
<path fill="none" stroke="black" stroke-dasharray="1,5" d="M185.51,-284.63C185.51,-284.63 185.51,-175.67 185.51,-175.67"/>
<polygon fill="black" stroke="black" points="189.01,-175.67 185.51,-165.67 182.01,-175.67 189.01,-175.67"/>
</g>
<!-- :test:image -->
<g id="node7" class="node">
<title>:test:image</title>
<ellipse fill="#9affb5" stroke="black" cx="95.84" cy="-155" rx="63.09" ry="18"/>
<text text-anchor="middle" x="95.84" y="-151.3" font-family="Times,serif" font-size="14.00">:test:image</text>
</g>
<!-- :ui:test:screenshot&#45;&gt;:test:image -->
<g id="edge6" class="edge">
<title>:ui:test:screenshot&#45;&gt;:test:image</title>
<path fill="none" stroke="black" stroke-dasharray="1,5" d="M95.84,-273.81C95.84,-273.81 95.84,-183.27 95.84,-183.27"/>
<polygon fill="black" stroke="black" points="99.34,-183.27 95.84,-173.27 92.34,-183.27 99.34,-183.27"/>
</g>
<!-- :ui:common&#45;&gt;:ui:test:screenshot -->
<g id="edge7" class="edge">
<title>:ui:common&#45;&gt;:ui:test:screenshot</title>
<path fill="none" stroke="#ff9ab1" stroke-dasharray="1,5" d="M326.84,-435C241.51,-435 96.84,-435 96.84,-435 96.84,-435 96.84,-320.11 96.84,-320.11"/>
<polygon fill="#ff9ab1" stroke="#ff9ab1" points="100.34,-320.11 96.84,-310.11 93.34,-320.11 100.34,-320.11"/>
</g>
<!-- :ui:common&#45;&gt;:shared:domain -->
<g id="edge8" class="edge">
<title>:ui:common&#45;&gt;:shared:domain</title>
<path fill="none" stroke="black" d="M414.46,-412.27C414.46,-412.27 414.46,-182.92 414.46,-182.92"/>
<polygon fill="black" stroke="black" points="417.96,-182.92 414.46,-172.92 410.96,-182.92 417.96,-182.92"/>
</g>
<!-- :ui:common&#45;&gt;:data:musicbrainz -->
<g id="edge11" class="edge">
<title>:ui:common&#45;&gt;:data:musicbrainz</title>
<path fill="none" stroke="black" stroke-dasharray="1,5" d="M448.86,-435C545.43,-435 722.64,-435 722.64,-435 722.64,-435 722.64,-319.25 722.64,-319.25"/>
<polygon fill="black" stroke="black" points="726.14,-319.25 722.64,-309.25 719.14,-319.25 726.14,-319.25"/>
</g>
<!-- :ui:common&#45;&gt;:ui:core -->
<g id="edge9" class="edge">
<title>:ui:common&#45;&gt;:ui:core</title>
<path fill="none" stroke="black" d="M327.17,-423C290,-423 249.51,-423 249.51,-423 249.51,-423 249.51,-179.79 249.51,-179.79"/>
<polygon fill="black" stroke="black" points="253.01,-179.79 249.51,-169.79 246.01,-179.79 253.01,-179.79"/>
</g>
<!-- :data:coverart -->
<g id="node8" class="node">
<title>:data:coverart</title>
<ellipse fill="#b59aff" stroke="black" cx="527.84" cy="-292" rx="76.09" ry="18"/>
<text text-anchor="middle" x="527.84" y="-288.3" font-family="Times,serif" font-size="14.00">:data:coverart</text>
</g>
<!-- :ui:common&#45;&gt;:data:coverart -->
<g id="edge10" class="edge">
<title>:ui:common&#45;&gt;:data:coverart</title>
<path fill="none" stroke="black" stroke-dasharray="1,5" d="M433.13,-416.11C433.13,-382.01 433.13,-292 433.13,-292 433.13,-292 441.39,-292 441.39,-292"/>
<polygon fill="black" stroke="black" points="441.39,-295.5 451.39,-292 441.39,-288.5 441.39,-295.5"/>
</g>
<!-- :core:logging:api -->
<g id="node9" class="node">
<title>:core:logging:api</title>
<ellipse fill="#b59aff" stroke="black" cx="631.84" cy="-155" rx="88.28" ry="18"/>
<text text-anchor="middle" x="631.84" y="-151.3" font-family="Times,serif" font-size="14.00">:core:logging:api</text>
</g>
<!-- :ui:common&#45;&gt;:core:logging:api -->
<g id="edge12" class="edge">
<title>:ui:common&#45;&gt;:core:logging:api</title>
<path fill="none" stroke="black" stroke-dasharray="1,5" d="M448.53,-423C520.86,-423 632.07,-423 632.07,-423 632.07,-423 632.07,-183 632.07,-183"/>
<polygon fill="black" stroke="black" points="635.57,-183 632.07,-173 628.57,-183 635.57,-183"/>
</g>
<!-- :ui:image -->
<g id="node10" class="node">
<title>:ui:image</title>
<ellipse fill="#b59aff" stroke="black" cx="341.84" cy="-292" rx="53.89" ry="18"/>
<text text-anchor="middle" x="341.84" y="-288.3" font-family="Times,serif" font-size="14.00">:ui:image</text>
</g>
<!-- :ui:common&#45;&gt;:ui:image -->
<g id="edge13" class="edge">
<title>:ui:common&#45;&gt;:ui:image</title>
<path fill="none" stroke="black" stroke-dasharray="1,5" d="M359.64,-412.75C359.64,-412.75 359.64,-319.09 359.64,-319.09"/>
<polygon fill="black" stroke="black" points="363.14,-319.09 359.64,-309.09 356.14,-319.09 363.14,-319.09"/>
</g>
<!-- :data:musicbrainz&#45;&gt;:shared:domain -->
<g id="edge14" class="edge">
<title>:data:musicbrainz&#45;&gt;:shared:domain</title>
<path fill="none" stroke="black" stroke-dasharray="1,5" d="M680.24,-280.61C680.24,-261.01 680.24,-223 680.24,-223 680.24,-223 488.19,-223 488.19,-223 488.19,-223 488.19,-176.54 488.19,-176.54"/>
<polygon fill="black" stroke="black" points="491.69,-176.54 488.19,-166.54 484.69,-176.54 491.69,-176.54"/>
</g>
<!-- :data:musicbrainz&#45;&gt;:core:logging:api -->
<g id="edge15" class="edge">
<title>:data:musicbrainz&#45;&gt;:core:logging:api</title>
<path fill="none" stroke="black" stroke-dasharray="1,5" d="M700.24,-277.08C700.24,-277.08 700.24,-176.73 700.24,-176.73"/>
<polygon fill="black" stroke="black" points="703.74,-176.73 700.24,-166.73 696.74,-176.73 703.74,-176.73"/>
</g>
<!-- :shared:strings -->
<g id="node11" class="node">
<title>:shared:strings</title>
<ellipse fill="#b59aff" stroke="black" cx="222.84" cy="-18" rx="81.49" ry="18"/>
<text text-anchor="middle" x="222.84" y="-14.3" font-family="Times,serif" font-size="14.00">:shared:strings</text>
</g>
<!-- :ui:core&#45;&gt;:shared:strings -->
<g id="edge16" class="edge">
<title>:ui:core&#45;&gt;:shared:strings</title>
<path fill="none" stroke="black" d="M222.84,-136.81C222.84,-136.81 222.84,-46.27 222.84,-46.27"/>
<polygon fill="black" stroke="black" points="226.34,-46.27 222.84,-36.27 219.34,-46.27 226.34,-46.27"/>
</g>
<!-- :data:coverart&#45;&gt;:shared:domain -->
<g id="edge17" class="edge">
<title>:data:coverart&#45;&gt;:shared:domain</title>
<path fill="none" stroke="black" stroke-dasharray="1,5" d="M469.99,-279.84C469.99,-279.84 469.99,-180.22 469.99,-180.22"/>
<polygon fill="black" stroke="black" points="473.49,-180.22 469.99,-170.22 466.49,-180.22 473.49,-180.22"/>
</g>
<!-- :data:coverart&#45;&gt;:core:logging:api -->
<g id="edge18" class="edge">
<title>:data:coverart&#45;&gt;:core:logging:api</title>
<path fill="none" stroke="black" stroke-dasharray="1,5" d="M573.67,-277.6C573.67,-277.6 573.67,-178.8 573.67,-178.8"/>
<polygon fill="black" stroke="black" points="577.17,-178.8 573.67,-168.8 570.17,-178.8 577.17,-178.8"/>
</g>
<!-- :ui:image&#45;&gt;:shared:domain -->
<g id="edge19" class="edge">
<title>:ui:image&#45;&gt;:shared:domain</title>
<path fill="none" stroke="black" stroke-dasharray="1,5" d="M368.54,-276.28C368.54,-276.28 368.54,-178.49 368.54,-178.49"/>
<polygon fill="black" stroke="black" points="372.04,-178.49 368.54,-168.49 365.04,-178.49 372.04,-178.49"/>
</g>
<!-- :ui:image&#45;&gt;:ui:core -->
<g id="edge20" class="edge">
<title>:ui:image&#45;&gt;:ui:core</title>
<path fill="none" stroke="black" stroke-dasharray="1,5" d="M295.99,-282.15C295.99,-251.69 295.99,-161 295.99,-161 295.99,-161 275.82,-161 275.82,-161"/>
<polygon fill="black" stroke="black" points="275.82,-157.5 265.82,-161 275.82,-164.5 275.82,-157.5"/>
</g>
</g>
</svg>
