<?xml version="1.0" encoding="UTF-8" standalone="no"?>
<!DOCTYPE svg PUBLIC "-//W3C//DTD SVG 1.1//EN"
 "http://www.w3.org/Graphics/SVG/1.1/DTD/svg11.dtd">
<!-- Generated by graphviz version 2.43.0 (0)
 -->
<!-- Title: %3 Pages: 1 -->
<svg width="1051pt" height="1077pt"
 viewBox="0.00 0.00 1051.38 1077.00" xmlns="http://www.w3.org/2000/svg" xmlns:xlink="http://www.w3.org/1999/xlink">
<g id="graph0" class="graph" transform="scale(1 1) rotate(0) translate(4 1073)">
<title>%3</title>
<polygon fill="white" stroke="transparent" points="-4,4 -4,-1073 1047.38,-1073 1047.38,4 -4,4"/>
<text text-anchor="middle" x="521.69" y="-1041" font-family="Times,serif" font-size="30.00">Dependencies</text>
<text text-anchor="middle" x="521.69" y="-1008" font-family="Times,serif" font-size="30.00"> </text>
<!-- :shared:feature:settings -->
<g id="node1" class="node">
<title>:shared:feature:settings</title>
<polygon fill="#b59aff" stroke="black" points="839.54,-995 651.54,-995 651.54,-959 839.54,-959 839.54,-995"/>
<text text-anchor="middle" x="745.54" y="-973.3" font-family="Times,serif" font-size="14.00">:shared:feature:settings</text>
</g>
<!-- :ui:test:screenshot -->
<g id="node2" class="node">
<title>:ui:test:screenshot</title>
<ellipse fill="#9affb5" stroke="black" cx="946.54" cy="-703" rx="96.68" ry="18"/>
<text text-anchor="middle" x="946.54" y="-699.3" font-family="Times,serif" font-size="14.00">:ui:test:screenshot</text>
</g>
<!-- :shared:feature:settings&#45;&gt;:ui:test:screenshot -->
<g id="edge1" class="edge">
<title>:shared:feature:settings&#45;&gt;:ui:test:screenshot</title>
<path fill="none" stroke="#ff9ab1" stroke-dasharray="1,5" d="M824.71,-958.99C824.71,-899.8 824.71,-715 824.71,-715 824.71,-715 864.27,-715 864.27,-715"/>
<polygon fill="#ff9ab1" stroke="#ff9ab1" points="864.27,-718.5 874.27,-715 864.27,-711.5 864.27,-718.5"/>
</g>
<!-- :ui:common -->
<g id="node3" class="node">
<title>:ui:common</title>
<ellipse fill="#b59aff" stroke="black" cx="745.54" cy="-840" rx="64.19" ry="18"/>
<text text-anchor="middle" x="745.54" y="-836.3" font-family="Times,serif" font-size="14.00">:ui:common</text>
</g>
<!-- :shared:feature:settings&#45;&gt;:ui:common -->
<g id="edge2" class="edge">
<title>:shared:feature:settings&#45;&gt;:ui:common</title>
<path fill="none" stroke="black" stroke-dasharray="1,5" d="M745.54,-958.81C745.54,-958.81 745.54,-868.27 745.54,-868.27"/>
<polygon fill="black" stroke="black" points="749.04,-868.27 745.54,-858.27 742.04,-868.27 749.04,-868.27"/>
</g>
<!-- :shared:domain -->
<g id="node4" class="node">
<title>:shared:domain</title>
<ellipse fill="#b59aff" stroke="black" cx="82.54" cy="-155" rx="82.59" ry="18"/>
<text text-anchor="middle" x="82.54" y="-151.3" font-family="Times,serif" font-size="14.00">:shared:domain</text>
</g>
<!-- :shared:feature:settings&#45;&gt;:shared:domain -->
<g id="edge3" class="edge">
<title>:shared:feature:settings&#45;&gt;:shared:domain</title>
<path fill="none" stroke="black" stroke-dasharray="1,5" d="M651.31,-977C454.74,-977 19.06,-977 19.06,-977 19.06,-977 19.06,-176.62 19.06,-176.62"/>
<polygon fill="black" stroke="black" points="22.56,-176.62 19.06,-166.62 15.56,-176.62 22.56,-176.62"/>
</g>
<!-- :test:image -->
<g id="node5" class="node">
<title>:test:image</title>
<ellipse fill="#9affb5" stroke="black" cx="910.54" cy="-566" rx="63.09" ry="18"/>
<text text-anchor="middle" x="910.54" y="-562.3" font-family="Times,serif" font-size="14.00">:test:image</text>
</g>
<!-- :ui:test:screenshot&#45;&gt;:test:image -->
<g id="edge4" class="edge">
<title>:ui:test:screenshot&#45;&gt;:test:image</title>
<path fill="none" stroke="black" stroke-dasharray="1,5" d="M911.64,-686.2C911.64,-686.2 911.64,-594.25 911.64,-594.25"/>
<polygon fill="black" stroke="black" points="915.14,-594.25 911.64,-584.25 908.14,-594.25 915.14,-594.25"/>
</g>
<!-- :ui:common&#45;&gt;:ui:test:screenshot -->
<g id="edge7" class="edge">
<title>:ui:common&#45;&gt;:ui:test:screenshot</title>
<path fill="none" stroke="#ff9ab1" stroke-dasharray="1,5" d="M791.49,-827.3C791.49,-791.26 791.49,-691 791.49,-691 791.49,-691 864.01,-691 864.01,-691"/>
<polygon fill="#ff9ab1" stroke="#ff9ab1" points="864.01,-694.5 874.01,-691 864.01,-687.5 864.01,-694.5"/>
</g>
<!-- :ui:common&#45;&gt;:shared:domain -->
<g id="edge9" class="edge">
<title>:ui:common&#45;&gt;:shared:domain</title>
<path fill="none" stroke="black" d="M684.62,-846C513.02,-846 38.12,-846 38.12,-846 38.12,-846 38.12,-180.4 38.12,-180.4"/>
<polygon fill="black" stroke="black" points="41.62,-180.4 38.12,-170.4 34.62,-180.4 41.62,-180.4"/>
</g>
<!-- :ui:common&#45;&gt;:test:image -->
<g id="edge5" class="edge">
<title>:ui:common&#45;&gt;:test:image</title>
<path fill="none" stroke="black" stroke-dasharray="1,5" d="M773.09,-823.32C773.09,-763.04 773.09,-560 773.09,-560 773.09,-560 841.05,-560 841.05,-560"/>
<polygon fill="black" stroke="black" points="841.05,-563.5 851.05,-560 841.05,-556.5 841.05,-563.5"/>
</g>
<!-- :test&#45;data -->
<g id="node6" class="node">
<title>:test&#45;data</title>
<ellipse fill="#b59aff" stroke="black" cx="465.54" cy="-703" rx="55.49" ry="18"/>
<text text-anchor="middle" x="465.54" y="-699.3" font-family="Times,serif" font-size="14.00">:test&#45;data</text>
</g>
<!-- :ui:common&#45;&gt;:test&#45;data -->
<g id="edge6" class="edge">
<title>:ui:common&#45;&gt;:test&#45;data</title>
<path fill="none" stroke="#ff9ab1" stroke-dasharray="1,5" d="M699.57,-826.96C699.57,-793.83 699.57,-709 699.57,-709 699.57,-709 527.77,-709 527.77,-709"/>
<polygon fill="#ff9ab1" stroke="#ff9ab1" points="527.77,-705.5 517.77,-709 527.77,-712.5 527.77,-705.5"/>
</g>
<!-- :core:coroutines -->
<g id="node7" class="node">
<title>:core:coroutines</title>
<ellipse fill="#b59aff" stroke="black" cx="669.54" cy="-18" rx="85.29" ry="18"/>
<text text-anchor="middle" x="669.54" y="-14.3" font-family="Times,serif" font-size="14.00">:core:coroutines</text>
</g>
<!-- :ui:common&#45;&gt;:core:coroutines -->
<g id="edge8" class="edge">
<title>:ui:common&#45;&gt;:core:coroutines</title>
<path fill="none" stroke="#ff9ab1" stroke-dasharray="1,5" d="M736.31,-822.07C736.31,-822.07 736.31,-39.35 736.31,-39.35"/>
<polygon fill="#ff9ab1" stroke="#ff9ab1" points="739.81,-39.35 736.31,-29.35 732.81,-39.35 739.81,-39.35"/>
</g>
<!-- :ui:core -->
<g id="node8" class="node">
<title>:ui:core</title>
<ellipse fill="#b59aff" stroke="black" cx="176.54" cy="-703" rx="45.49" ry="18"/>
<text text-anchor="middle" x="176.54" y="-699.3" font-family="Times,serif" font-size="14.00">:ui:core</text>
</g>
<!-- :ui:common&#45;&gt;:ui:core -->
<g id="edge10" class="edge">
<title>:ui:common&#45;&gt;:ui:core</title>
<path fill="none" stroke="black" d="M684.65,-834C537.86,-834 176.54,-834 176.54,-834 176.54,-834 176.54,-731.21 176.54,-731.21"/>
<polygon fill="black" stroke="black" points="180.04,-731.21 176.54,-721.21 173.04,-731.22 180.04,-731.21"/>
</g>
<!-- :core:logging:api -->
<g id="node9" class="node">
<title>:core:logging:api</title>
<ellipse fill="#b59aff" stroke="black" cx="553.54" cy="-155" rx="88.28" ry="18"/>
<text text-anchor="middle" x="553.54" y="-151.3" font-family="Times,serif" font-size="14.00">:core:logging:api</text>
</g>
<!-- :ui:common&#45;&gt;:core:logging:api -->
<g id="edge11" class="edge">
<title>:ui:common&#45;&gt;:core:logging:api</title>
<path fill="none" stroke="black" stroke-dasharray="1,5" d="M717.94,-823.41C717.94,-718.8 717.94,-155 717.94,-155 717.94,-155 652,-155 652,-155"/>
<polygon fill="black" stroke="black" points="652,-151.5 642,-155 652,-158.5 652,-151.5"/>
</g>
<!-- :test&#45;data&#45;&gt;:shared:domain -->
<g id="edge12" class="edge">
<title>:test&#45;data&#45;&gt;:shared:domain</title>
<path fill="none" stroke="black" stroke-dasharray="1,5" d="M437.92,-687.34C437.92,-666.98 437.92,-634 437.92,-634 437.92,-634 76.24,-634 76.24,-634 76.24,-634 76.24,-183.19 76.24,-183.19"/>
<polygon fill="black" stroke="black" points="79.74,-183.19 76.24,-173.19 72.74,-183.19 79.74,-183.19"/>
</g>
<!-- :test&#45;data&#45;&gt;:core:coroutines -->
<g id="edge13" class="edge">
<title>:test&#45;data&#45;&gt;:core:coroutines</title>
<path fill="none" stroke="black" stroke-dasharray="1,5" d="M521.13,-703C575.16,-703 649.14,-703 649.14,-703 649.14,-703 649.14,-45.62 649.14,-45.62"/>
<polygon fill="black" stroke="black" points="652.64,-45.62 649.14,-35.62 645.64,-45.62 652.64,-45.62"/>
</g>
<!-- :data:database -->
<g id="node10" class="node">
<title>:data:database</title>
<ellipse fill="#b59aff" stroke="black" cx="254.54" cy="-429" rx="79.09" ry="18"/>
<text text-anchor="middle" x="254.54" y="-425.3" font-family="Times,serif" font-size="14.00">:data:database</text>
</g>
<!-- :test&#45;data&#45;&gt;:data:database -->
<g id="edge14" class="edge">
<title>:test&#45;data&#45;&gt;:data:database</title>
<path fill="none" stroke="black" stroke-dasharray="1,5" d="M413.23,-709C363.36,-709 295.81,-709 295.81,-709 295.81,-709 295.81,-454.45 295.81,-454.45"/>
<polygon fill="black" stroke="black" points="299.31,-454.45 295.81,-444.45 292.31,-454.45 299.31,-454.45"/>
</g>
<!-- :data:musicbrainz -->
<g id="node11" class="node">
<title>:data:musicbrainz</title>
<ellipse fill="#b59aff" stroke="black" cx="315.54" cy="-292" rx="93.68" ry="18"/>
<text text-anchor="middle" x="315.54" y="-288.3" font-family="Times,serif" font-size="14.00">:data:musicbrainz</text>
</g>
<!-- :test&#45;data&#45;&gt;:data:musicbrainz -->
<g id="edge15" class="edge">
<title>:test&#45;data&#45;&gt;:data:musicbrainz</title>
<path fill="none" stroke="black" stroke-dasharray="1,5" d="M413.3,-697C387.43,-697 361.67,-697 361.67,-697 361.67,-697 361.67,-317.88 361.67,-317.88"/>
<polygon fill="black" stroke="black" points="365.17,-317.88 361.67,-307.88 358.17,-317.88 365.17,-317.88"/>
</g>
<!-- :data:coverart -->
<g id="node12" class="node">
<title>:data:coverart</title>
<ellipse fill="#b59aff" stroke="black" cx="465.54" cy="-566" rx="76.09" ry="18"/>
<text text-anchor="middle" x="465.54" y="-562.3" font-family="Times,serif" font-size="14.00">:data:coverart</text>
</g>
<!-- :test&#45;data&#45;&gt;:data:coverart -->
<g id="edge16" class="edge">
<title>:test&#45;data&#45;&gt;:data:coverart</title>
<path fill="none" stroke="black" stroke-dasharray="1,5" d="M465.54,-684.81C465.54,-684.81 465.54,-594.27 465.54,-594.27"/>
<polygon fill="black" stroke="black" points="469.04,-594.27 465.54,-584.27 462.04,-594.27 469.04,-594.27"/>
</g>
<!-- :data:spotify -->
<g id="node13" class="node">
<title>:data:spotify</title>
<ellipse fill="#b59aff" stroke="black" cx="572.54" cy="-292" rx="68.79" ry="18"/>
<text text-anchor="middle" x="572.54" y="-288.3" font-family="Times,serif" font-size="14.00">:data:spotify</text>
</g>
<!-- :test&#45;data&#45;&gt;:data:spotify -->
<g id="edge17" class="edge">
<title>:test&#45;data&#45;&gt;:data:spotify</title>
<path fill="none" stroke="black" stroke-dasharray="1,5" d="M517.87,-697C552.48,-697 591.51,-697 591.51,-697 591.51,-697 591.51,-319.4 591.51,-319.4"/>
<polygon fill="black" stroke="black" points="595.01,-319.4 591.51,-309.4 588.01,-319.4 595.01,-319.4"/>
</g>
<!-- :ui:core&#45;&gt;:shared:domain -->
<g id="edge19" class="edge">
<title>:ui:core&#45;&gt;:shared:domain</title>
<path fill="none" stroke="black" stroke-dasharray="1,5" d="M130.74,-703C97.07,-703 57.18,-703 57.18,-703 57.18,-703 57.18,-182.31 57.18,-182.31"/>
<polygon fill="black" stroke="black" points="60.68,-182.31 57.18,-172.31 53.68,-182.31 60.68,-182.31"/>
</g>
<!-- :shared:strings -->
<g id="node14" class="node">
<title>:shared:strings</title>
<ellipse fill="#b59aff" stroke="black" cx="176.54" cy="-566" rx="81.49" ry="18"/>
<text text-anchor="middle" x="176.54" y="-562.3" font-family="Times,serif" font-size="14.00">:shared:strings</text>
</g>
<!-- :ui:core&#45;&gt;:shared:strings -->
<g id="edge18" class="edge">
<title>:ui:core&#45;&gt;:shared:strings</title>
<path fill="none" stroke="black" d="M176.54,-684.81C176.54,-684.81 176.54,-594.27 176.54,-594.27"/>
<polygon fill="black" stroke="black" points="180.04,-594.27 176.54,-584.27 173.04,-594.27 180.04,-594.27"/>
</g>
<!-- :core:logging:api&#45;&gt;:core:coroutines -->
<g id="edge20" class="edge">
<title>:core:logging:api&#45;&gt;:core:coroutines</title>
<path fill="none" stroke="black" d="M613.17,-141.61C613.17,-141.61 613.17,-41.64 613.17,-41.64"/>
<polygon fill="black" stroke="black" points="616.67,-41.64 613.17,-31.64 609.67,-41.64 616.67,-41.64"/>
</g>
<!-- :data:database&#45;&gt;:shared:domain -->
<g id="edge21" class="edge">
<title>:data:database&#45;&gt;:shared:domain</title>
<path fill="none" stroke="black" stroke-dasharray="1,5" d="M198.6,-416.22C198.6,-363.28 198.6,-164 198.6,-164 198.6,-164 164.06,-164 164.06,-164"/>
<polygon fill="black" stroke="black" points="164.06,-160.5 154.06,-164 164.06,-167.5 164.06,-160.5"/>
</g>
<!-- :data:database&#45;&gt;:core:coroutines -->
<g id="edge22" class="edge">
<title>:data:database&#45;&gt;:core:coroutines</title>
<path fill="none" stroke="black" stroke-dasharray="1,5" d="M329.7,-423C442.97,-423 644.34,-423 644.34,-423 644.34,-423 644.34,-45.4 644.34,-45.4"/>
<polygon fill="black" stroke="black" points="647.84,-45.4 644.34,-35.4 640.84,-45.4 647.84,-45.4"/>
</g>
<!-- :data:database&#45;&gt;:data:musicbrainz -->
<g id="edge23" class="edge">
<title>:data:database&#45;&gt;:data:musicbrainz</title>
<path fill="none" stroke="black" stroke-dasharray="1,5" d="M277.89,-411.65C277.89,-411.65 277.89,-318.78 277.89,-318.78"/>
<polygon fill="black" stroke="black" points="281.39,-318.78 277.89,-308.78 274.39,-318.78 281.39,-318.78"/>
</g>
<!-- :data:musicbrainz&#45;&gt;:shared:domain -->
<g id="edge24" class="edge">
<title>:data:musicbrainz&#45;&gt;:shared:domain</title>
<path fill="none" stroke="black" stroke-dasharray="1,5" d="M221.78,-292C175.81,-292 130.19,-292 130.19,-292 130.19,-292 130.19,-179.92 130.19,-179.92"/>
<polygon fill="black" stroke="black" points="133.69,-179.92 130.19,-169.92 126.69,-179.92 133.69,-179.92"/>
</g>
<!-- :data:musicbrainz&#45;&gt;:core:logging:api -->
<g id="edge25" class="edge">
<title>:data:musicbrainz&#45;&gt;:core:logging:api</title>
<path fill="none" stroke="black" stroke-dasharray="1,5" d="M403.89,-286C441.99,-286 477.98,-286 477.98,-286 477.98,-286 477.98,-174.42 477.98,-174.42"/>
<polygon fill="black" stroke="black" points="481.48,-174.42 477.98,-164.42 474.48,-174.42 481.48,-174.42"/>
</g>
<!-- :data:coverart&#45;&gt;:shared:domain -->
<g id="edge26" class="edge">
<title>:data:coverart&#45;&gt;:shared:domain</title>
<path fill="none" stroke="black" stroke-dasharray="1,5" d="M427.81,-550.14C427.81,-474.61 427.81,-155 427.81,-155 427.81,-155 175.24,-155 175.24,-155"/>
<polygon fill="black" stroke="black" points="175.24,-151.5 165.24,-155 175.24,-158.5 175.24,-151.5"/>
</g>
<!-- :data:coverart&#45;&gt;:test&#45;data -->
<g id="edge29" class="edge">
<title>:data:coverart&#45;&gt;:test&#45;data</title>
<path fill="none" stroke="#ff9ab1" stroke-dasharray="1,5" d="M493.17,-582.8C493.17,-582.8 493.17,-677.33 493.17,-677.33"/>
<polygon fill="#ff9ab1" stroke="#ff9ab1" points="489.67,-677.33 493.17,-687.33 496.67,-677.33 489.67,-677.33"/>
</g>
<!-- :data:coverart&#45;&gt;:core:coroutines -->
<g id="edge28" class="edge">
<title>:data:coverart&#45;&gt;:core:coroutines</title>
<path fill="none" stroke="black" stroke-dasharray="1,5" d="M537.42,-572C588.01,-572 646.74,-572 646.74,-572 646.74,-572 646.74,-45.5 646.74,-45.5"/>
<polygon fill="black" stroke="black" points="650.24,-45.5 646.74,-35.5 643.24,-45.5 650.24,-45.5"/>
</g>
<!-- :data:coverart&#45;&gt;:core:logging:api -->
<g id="edge27" class="edge">
<title>:data:coverart&#45;&gt;:core:logging:api</title>
<path fill="none" stroke="black" stroke-dasharray="1,5" d="M490.82,-548.86C490.82,-548.86 490.82,-177.92 490.82,-177.92"/>
<polygon fill="black" stroke="black" points="494.32,-177.92 490.82,-167.92 487.32,-177.92 494.32,-177.92"/>
</g>
<!-- :data:coverart&#45;&gt;:data:database -->
<g id="edge31" class="edge">
<title>:data:coverart&#45;&gt;:data:database</title>
<path fill="none" stroke="#ff9ab1" stroke-dasharray="1,5" d="M396.04,-558.58C396.04,-530.87 396.04,-435 396.04,-435 396.04,-435 339.44,-435 339.44,-435"/>
<polygon fill="#ff9ab1" stroke="#ff9ab1" points="339.44,-431.5 329.44,-435 339.44,-438.5 339.44,-431.5"/>
</g>
<!-- :data:coverart&#45;&gt;:data:musicbrainz -->
<g id="edge30" class="edge">
<title>:data:coverart&#45;&gt;:data:musicbrainz</title>
<path fill="none" stroke="#ff9ab1" stroke-dasharray="1,5" d="M402.59,-555.59C402.59,-555.59 402.59,-308.68 402.59,-308.68"/>
<polygon fill="#ff9ab1" stroke="#ff9ab1" points="406.09,-308.68 402.59,-298.68 399.09,-308.68 406.09,-308.68"/>
</g>
<!-- :data:spotify&#45;&gt;:shared:domain -->
<g id="edge32" class="edge">
<title>:data:spotify&#45;&gt;:shared:domain</title>
<path fill="none" stroke="black" stroke-dasharray="1,5" d="M507.3,-298C476.53,-298 446.48,-298 446.48,-298 446.48,-298 446.48,-146 446.48,-146 446.48,-146 164.44,-146 164.44,-146"/>
<polygon fill="black" stroke="black" points="164.44,-142.5 154.44,-146 164.44,-149.5 164.44,-142.5"/>
</g>
<!-- :data:spotify&#45;&gt;:core:logging:api -->
<g id="edge33" class="edge">
<title>:data:spotify&#45;&gt;:core:logging:api</title>
<path fill="none" stroke="black" stroke-dasharray="1,5" d="M572.54,-273.81C572.54,-273.81 572.54,-182.83 572.54,-182.83"/>
<polygon fill="black" stroke="black" points="576.04,-182.83 572.54,-172.83 569.04,-182.83 576.04,-182.83"/>
</g>
</g>
</svg>
