<?xml version="1.0" encoding="UTF-8" standalone="no"?>
<!DOCTYPE svg PUBLIC "-//W3C//DTD SVG 1.1//EN"
 "http://www.w3.org/Graphics/SVG/1.1/DTD/svg11.dtd">
<!-- Generated by graphviz version 2.43.0 (0)
 -->
<!-- Title: %3 Pages: 1 -->
<svg width="1046pt" height="1077pt"
 viewBox="0.00 0.00 1045.98 1077.00" xmlns="http://www.w3.org/2000/svg" xmlns:xlink="http://www.w3.org/1999/xlink">
<g id="graph0" class="graph" transform="scale(1 1) rotate(0) translate(4 1073)">
<title>%3</title>
<polygon fill="white" stroke="transparent" points="-4,4 -4,-1073 1041.98,-1073 1041.98,4 -4,4"/>
<text text-anchor="middle" x="518.99" y="-1041" font-family="Times,serif" font-size="30.00">Dependencies</text>
<text text-anchor="middle" x="518.99" y="-1008" font-family="Times,serif" font-size="30.00"> </text>
<!-- :shared:feature:settings -->
<g id="node1" class="node">
<title>:shared:feature:settings</title>
<polygon fill="#b59aff" stroke="black" points="597.84,-995 409.84,-995 409.84,-959 597.84,-959 597.84,-995"/>
<text text-anchor="middle" x="503.84" y="-973.3" font-family="Times,serif" font-size="14.00">:shared:feature:settings</text>
</g>
<!-- :ui:test:screenshot -->
<g id="node2" class="node">
<title>:ui:test:screenshot</title>
<ellipse fill="#9affb5" stroke="black" cx="96.84" cy="-703" rx="96.68" ry="18"/>
<text text-anchor="middle" x="96.84" y="-699.3" font-family="Times,serif" font-size="14.00">:ui:test:screenshot</text>
</g>
<!-- :shared:feature:settings&#45;&gt;:ui:test:screenshot -->
<g id="edge1" class="edge">
<title>:shared:feature:settings&#45;&gt;:ui:test:screenshot</title>
<path fill="none" stroke="#ff9ab1" stroke-dasharray="1,5" d="M427.12,-958.85C427.12,-899.21 427.12,-713 427.12,-713 427.12,-713 187.64,-713 187.64,-713"/>
<polygon fill="#ff9ab1" stroke="#ff9ab1" points="187.64,-709.5 177.64,-713 187.64,-716.5 187.64,-709.5"/>
</g>
<!-- :ui:common -->
<g id="node3" class="node">
<title>:ui:common</title>
<ellipse fill="#b59aff" stroke="black" cx="503.84" cy="-840" rx="64.19" ry="18"/>
<text text-anchor="middle" x="503.84" y="-836.3" font-family="Times,serif" font-size="14.00">:ui:common</text>
</g>
<!-- :shared:feature:settings&#45;&gt;:ui:common -->
<g id="edge2" class="edge">
<title>:shared:feature:settings&#45;&gt;:ui:common</title>
<path fill="none" stroke="black" stroke-dasharray="1,5" d="M503.84,-958.81C503.84,-958.81 503.84,-868.27 503.84,-868.27"/>
<polygon fill="black" stroke="black" points="507.34,-868.27 503.84,-858.27 500.34,-868.27 507.34,-868.27"/>
</g>
<!-- :shared:domain -->
<g id="node4" class="node">
<title>:shared:domain</title>
<ellipse fill="#b59aff" stroke="black" cx="835.84" cy="-155" rx="82.59" ry="18"/>
<text text-anchor="middle" x="835.84" y="-151.3" font-family="Times,serif" font-size="14.00">:shared:domain</text>
</g>
<!-- :shared:feature:settings&#45;&gt;:shared:domain -->
<g id="edge3" class="edge">
<title>:shared:feature:settings&#45;&gt;:shared:domain</title>
<path fill="none" stroke="black" stroke-dasharray="1,5" d="M597.91,-977C715.59,-977 901.84,-977 901.84,-977 901.84,-977 901.84,-176 901.84,-176"/>
<polygon fill="black" stroke="black" points="905.34,-176 901.84,-166 898.34,-176 905.34,-176"/>
</g>
<!-- :ui:core -->
<g id="node5" class="node">
<title>:ui:core</title>
<ellipse fill="#b59aff" stroke="black" cx="313.84" cy="-566" rx="45.49" ry="18"/>
<text text-anchor="middle" x="313.84" y="-562.3" font-family="Times,serif" font-size="14.00">:ui:core</text>
</g>
<!-- :ui:test:screenshot&#45;&gt;:ui:core -->
<g id="edge4" class="edge">
<title>:ui:test:screenshot&#45;&gt;:ui:core</title>
<path fill="none" stroke="black" stroke-dasharray="1,5" d="M176.78,-692.7C176.78,-660.84 176.78,-566 176.78,-566 176.78,-566 258.2,-566 258.2,-566"/>
<polygon fill="black" stroke="black" points="258.2,-569.5 268.2,-566 258.2,-562.5 258.2,-569.5"/>
</g>
<!-- :test:image -->
<g id="node6" class="node">
<title>:test:image</title>
<ellipse fill="#9affb5" stroke="black" cx="96.84" cy="-566" rx="63.09" ry="18"/>
<text text-anchor="middle" x="96.84" y="-562.3" font-family="Times,serif" font-size="14.00">:test:image</text>
</g>
<!-- :ui:test:screenshot&#45;&gt;:test:image -->
<g id="edge5" class="edge">
<title>:ui:test:screenshot&#45;&gt;:test:image</title>
<path fill="none" stroke="black" stroke-dasharray="1,5" d="M96.84,-684.81C96.84,-684.81 96.84,-594.27 96.84,-594.27"/>
<polygon fill="black" stroke="black" points="100.34,-594.27 96.84,-584.27 93.34,-594.27 100.34,-594.27"/>
</g>
<!-- :ui:common&#45;&gt;:ui:test:screenshot -->
<g id="edge7" class="edge">
<title>:ui:common&#45;&gt;:ui:test:screenshot</title>
<path fill="none" stroke="#ff9ab1" stroke-dasharray="1,5" d="M453.45,-828.58C453.45,-796.17 453.45,-706 453.45,-706 453.45,-706 202.41,-706 202.41,-706"/>
<polygon fill="#ff9ab1" stroke="#ff9ab1" points="202.41,-702.5 192.41,-706 202.41,-709.5 202.41,-702.5"/>
</g>
<!-- :ui:common&#45;&gt;:shared:domain -->
<g id="edge9" class="edge">
<title>:ui:common&#45;&gt;:shared:domain</title>
<path fill="none" stroke="black" d="M564.71,-834C672.4,-834 885.3,-834 885.3,-834 885.3,-834 885.3,-179.5 885.3,-179.5"/>
<polygon fill="black" stroke="black" points="888.8,-179.5 885.3,-169.5 881.8,-179.5 888.8,-179.5"/>
</g>
<!-- :ui:common&#45;&gt;:ui:core -->
<g id="edge10" class="edge">
<title>:ui:common&#45;&gt;:ui:core</title>
<path fill="none" stroke="black" d="M467.4,-824.82C467.4,-768.13 467.4,-572 467.4,-572 467.4,-572 367.02,-572 367.02,-572"/>
<polygon fill="black" stroke="black" points="367.02,-568.5 357.02,-572 367.02,-575.5 367.02,-568.5"/>
</g>
<!-- :test&#45;data -->
<g id="node7" class="node">
<title>:test&#45;data</title>
<ellipse fill="#b59aff" stroke="black" cx="594.84" cy="-703" rx="55.49" ry="18"/>
<text text-anchor="middle" x="594.84" y="-699.3" font-family="Times,serif" font-size="14.00">:test&#45;data</text>
</g>
<!-- :ui:common&#45;&gt;:test&#45;data -->
<g id="edge6" class="edge">
<title>:ui:common&#45;&gt;:test&#45;data</title>
<path fill="none" stroke="#ff9ab1" stroke-dasharray="1,5" d="M553.89,-828.32C553.89,-828.32 553.89,-725.44 553.89,-725.44"/>
<polygon fill="#ff9ab1" stroke="#ff9ab1" points="557.39,-725.44 553.89,-715.44 550.39,-725.44 557.39,-725.44"/>
</g>
<!-- :core:coroutines -->
<g id="node8" class="node">
<title>:core:coroutines</title>
<ellipse fill="#b59aff" stroke="black" cx="952.84" cy="-18" rx="85.29" ry="18"/>
<text text-anchor="middle" x="952.84" y="-14.3" font-family="Times,serif" font-size="14.00">:core:coroutines</text>
</g>
<!-- :ui:common&#45;&gt;:core:coroutines -->
<g id="edge8" class="edge">
<title>:ui:common&#45;&gt;:core:coroutines</title>
<path fill="none" stroke="#ff9ab1" stroke-dasharray="1,5" d="M564.66,-846C698.78,-846 1008.08,-846 1008.08,-846 1008.08,-846 1008.08,-42.02 1008.08,-42.02"/>
<polygon fill="#ff9ab1" stroke="#ff9ab1" points="1011.58,-42.02 1008.08,-32.02 1004.58,-42.02 1011.58,-42.02"/>
</g>
<!-- :core:logging:api -->
<g id="node9" class="node">
<title>:core:logging:api</title>
<ellipse fill="#b59aff" stroke="black" cx="480.84" cy="-155" rx="88.28" ry="18"/>
<text text-anchor="middle" x="480.84" y="-151.3" font-family="Times,serif" font-size="14.00">:core:logging:api</text>
</g>
<!-- :ui:common&#45;&gt;:core:logging:api -->
<g id="edge11" class="edge">
<title>:ui:common&#45;&gt;:core:logging:api</title>
<path fill="none" stroke="black" stroke-dasharray="1,5" d="M481.35,-823.07C481.35,-823.07 481.35,-183.21 481.35,-183.21"/>
<polygon fill="black" stroke="black" points="484.85,-183.21 481.35,-173.21 477.85,-183.21 484.85,-183.21"/>
</g>
<!-- :ui:core&#45;&gt;:shared:domain -->
<g id="edge13" class="edge">
<title>:ui:core&#45;&gt;:shared:domain</title>
<path fill="none" stroke="black" stroke-dasharray="1,5" d="M329.01,-548.94C329.01,-528.51 329.01,-497 329.01,-497 329.01,-497 835.68,-497 835.68,-497 835.68,-497 835.68,-183.39 835.68,-183.39"/>
<polygon fill="black" stroke="black" points="839.18,-183.39 835.68,-173.39 832.18,-183.39 839.18,-183.39"/>
</g>
<!-- :shared:strings -->
<g id="node10" class="node">
<title>:shared:strings</title>
<ellipse fill="#b59aff" stroke="black" cx="295.84" cy="-429" rx="81.49" ry="18"/>
<text text-anchor="middle" x="295.84" y="-425.3" font-family="Times,serif" font-size="14.00">:shared:strings</text>
</g>
<!-- :ui:core&#45;&gt;:shared:strings -->
<g id="edge12" class="edge">
<title>:ui:core&#45;&gt;:shared:strings</title>
<path fill="none" stroke="black" d="M298.68,-548.93C298.68,-548.93 298.68,-457.16 298.68,-457.16"/>
<polygon fill="black" stroke="black" points="302.18,-457.16 298.68,-447.16 295.18,-457.16 302.18,-457.16"/>
</g>
<!-- :test&#45;data&#45;&gt;:shared:domain -->
<g id="edge14" class="edge">
<title>:test&#45;data&#45;&gt;:shared:domain</title>
<path fill="none" stroke="black" stroke-dasharray="1,5" d="M650.27,-703C730.31,-703 868.76,-703 868.76,-703 868.76,-703 868.76,-181.7 868.76,-181.7"/>
<polygon fill="black" stroke="black" points="872.26,-181.7 868.76,-171.7 865.26,-181.7 872.26,-181.7"/>
</g>
<!-- :test&#45;data&#45;&gt;:core:coroutines -->
<g id="edge15" class="edge">
<title>:test&#45;data&#45;&gt;:core:coroutines</title>
<path fill="none" stroke="black" stroke-dasharray="1,5" d="M643,-712C745.96,-712 978.18,-712 978.18,-712 978.18,-712 978.18,-45.5 978.18,-45.5"/>
<polygon fill="black" stroke="black" points="981.68,-45.5 978.18,-35.5 974.68,-45.5 981.68,-45.5"/>
</g>
<!-- :data:database -->
<g id="node11" class="node">
<title>:data:database</title>
<ellipse fill="#b59aff" stroke="black" cx="739.84" cy="-429" rx="79.09" ry="18"/>
<text text-anchor="middle" x="739.84" y="-425.3" font-family="Times,serif" font-size="14.00">:data:database</text>
</g>
<!-- :test&#45;data&#45;&gt;:data:database -->
<g id="edge16" class="edge">
<title>:test&#45;data&#45;&gt;:data:database</title>
<path fill="none" stroke="black" stroke-dasharray="1,5" d="M642.77,-694C686.72,-694 745.01,-694 745.01,-694 745.01,-694 745.01,-457.21 745.01,-457.21"/>
<polygon fill="black" stroke="black" points="748.51,-457.21 745.01,-447.21 741.51,-457.21 748.51,-457.21"/>
</g>
<!-- :data:musicbrainz -->
<g id="node12" class="node">
<title>:data:musicbrainz</title>
<ellipse fill="#b59aff" stroke="black" cx="602.84" cy="-292" rx="93.68" ry="18"/>
<text text-anchor="middle" x="602.84" y="-288.3" font-family="Times,serif" font-size="14.00">:data:musicbrainz</text>
</g>
<!-- :test&#45;data&#45;&gt;:data:musicbrainz -->
<g id="edge17" class="edge">
<title>:test&#45;data&#45;&gt;:data:musicbrainz</title>
<path fill="none" stroke="black" stroke-dasharray="1,5" d="M550.65,-692C531.78,-692 514.02,-692 514.02,-692 514.02,-692 514.02,-307.96 514.02,-307.96"/>
<polygon fill="black" stroke="black" points="517.52,-307.96 514.02,-297.96 510.52,-307.96 517.52,-307.96"/>
</g>
<!-- :data:coverart -->
<g id="node13" class="node">
<title>:data:coverart</title>
<ellipse fill="#b59aff" stroke="black" cx="594.84" cy="-566" rx="76.09" ry="18"/>
<text text-anchor="middle" x="594.84" y="-562.3" font-family="Times,serif" font-size="14.00">:data:coverart</text>
</g>
<!-- :test&#45;data&#45;&gt;:data:coverart -->
<g id="edge18" class="edge">
<title>:test&#45;data&#45;&gt;:data:coverart</title>
<path fill="none" stroke="black" stroke-dasharray="1,5" d="M576.43,-685.93C576.43,-685.93 576.43,-593.72 576.43,-593.72"/>
<polygon fill="black" stroke="black" points="579.93,-593.72 576.43,-583.72 572.93,-593.72 579.93,-593.72"/>
</g>
<!-- :data:spotify -->
<g id="node14" class="node">
<title>:data:spotify</title>
<ellipse fill="#b59aff" stroke="black" cx="345.84" cy="-292" rx="68.79" ry="18"/>
<text text-anchor="middle" x="345.84" y="-288.3" font-family="Times,serif" font-size="14.00">:data:spotify</text>
</g>
<!-- :test&#45;data&#45;&gt;:data:spotify -->
<g id="edge19" class="edge">
<title>:test&#45;data&#45;&gt;:data:spotify</title>
<path fill="none" stroke="black" stroke-dasharray="1,5" d="M540.88,-699C481.22,-699 393.46,-699 393.46,-699 393.46,-699 393.46,-315.08 393.46,-315.08"/>
<polygon fill="black" stroke="black" points="396.96,-315.08 393.46,-305.08 389.96,-315.08 396.96,-315.08"/>
</g>
<!-- :core:logging:api&#45;&gt;:core:coroutines -->
<g id="edge20" class="edge">
<title>:core:logging:api&#45;&gt;:core:coroutines</title>
<path fill="none" stroke="black" d="M480.84,-136.89C480.84,-98.41 480.84,-12 480.84,-12 480.84,-12 862.51,-12 862.51,-12"/>
<polygon fill="black" stroke="black" points="862.51,-15.5 872.51,-12 862.51,-8.5 862.51,-15.5"/>
</g>
<!-- :data:database&#45;&gt;:shared:domain -->
<g id="edge21" class="edge">
<title>:data:database&#45;&gt;:shared:domain</title>
<path fill="none" stroke="black" stroke-dasharray="1,5" d="M802.68,-417.92C802.68,-417.92 802.68,-181.51 802.68,-181.51"/>
<polygon fill="black" stroke="black" points="806.18,-181.51 802.68,-171.51 799.18,-181.51 806.18,-181.51"/>
</g>
<!-- :data:database&#45;&gt;:core:coroutines -->
<g id="edge22" class="edge">
<title>:data:database&#45;&gt;:core:coroutines</title>
<path fill="none" stroke="black" stroke-dasharray="1,5" d="M724.87,-411.08C724.87,-332.7 724.87,-24 724.87,-24 724.87,-24 862.47,-24 862.47,-24"/>
<polygon fill="black" stroke="black" points="862.47,-27.5 872.47,-24 862.47,-20.5 862.47,-27.5"/>
</g>
<!-- :data:database&#45;&gt;:data:musicbrainz -->
<g id="edge23" class="edge">
<title>:data:database&#45;&gt;:data:musicbrainz</title>
<path fill="none" stroke="black" stroke-dasharray="1,5" d="M678.49,-417.32C678.49,-417.32 678.49,-312.89 678.49,-312.89"/>
<polygon fill="black" stroke="black" points="681.99,-312.89 678.49,-302.89 674.99,-312.89 681.99,-312.89"/>
</g>
<!-- :data:musicbrainz&#45;&gt;:shared:domain -->
<g id="edge24" class="edge">
<title>:data:musicbrainz&#45;&gt;:shared:domain</title>
<path fill="none" stroke="black" stroke-dasharray="1,5" d="M696.68,-292C741.79,-292 786.22,-292 786.22,-292 786.22,-292 786.22,-179.4 786.22,-179.4"/>
<polygon fill="black" stroke="black" points="789.72,-179.4 786.22,-169.4 782.72,-179.4 789.72,-179.4"/>
</g>
<!-- :data:musicbrainz&#45;&gt;:core:logging:api -->
<g id="edge25" class="edge">
<title>:data:musicbrainz&#45;&gt;:core:logging:api</title>
<path fill="none" stroke="black" stroke-dasharray="1,5" d="M539.24,-278.61C539.24,-278.61 539.24,-178.64 539.24,-178.64"/>
<polygon fill="black" stroke="black" points="542.74,-178.64 539.24,-168.64 535.74,-178.64 542.74,-178.64"/>
</g>
<!-- :data:coverart&#45;&gt;:shared:domain -->
<g id="edge26" class="edge">
<title>:data:coverart&#45;&gt;:shared:domain</title>
<path fill="none" stroke="black" stroke-dasharray="1,5" d="M666.88,-560C743.02,-560 852.22,-560 852.22,-560 852.22,-560 852.22,-182.66 852.22,-182.66"/>
<polygon fill="black" stroke="black" points="855.72,-182.66 852.22,-172.66 848.72,-182.66 855.72,-182.66"/>
</g>
<!-- :data:coverart&#45;&gt;:test&#45;data -->
<g id="edge29" class="edge">
<title>:data:coverart&#45;&gt;:test&#45;data</title>
<path fill="none" stroke="#ff9ab1" stroke-dasharray="1,5" d="M613.26,-583.63C613.26,-583.63 613.26,-675.87 613.26,-675.87"/>
<polygon fill="#ff9ab1" stroke="#ff9ab1" points="609.76,-675.87 613.26,-685.87 616.76,-675.87 609.76,-675.87"/>
</g>
<!-- :data:coverart&#45;&gt;:core:coroutines -->
<g id="edge28" class="edge">
<title>:data:coverart&#45;&gt;:core:coroutines</title>
<path fill="none" stroke="black" stroke-dasharray="1,5" d="M666.79,-572C770.13,-572 948.28,-572 948.28,-572 948.28,-572 948.28,-46.12 948.28,-46.12"/>
<polygon fill="black" stroke="black" points="951.78,-46.12 948.28,-36.12 944.78,-46.12 951.78,-46.12"/>
</g>
<!-- :data:coverart&#45;&gt;:core:logging:api -->
<g id="edge27" class="edge">
<title>:data:coverart&#45;&gt;:core:logging:api</title>
<path fill="none" stroke="black" stroke-dasharray="1,5" d="M523.03,-560C507.33,-560 495.3,-560 495.3,-560 495.3,-560 495.3,-182.92 495.3,-182.92"/>
<polygon fill="black" stroke="black" points="498.8,-182.92 495.3,-172.92 491.8,-182.92 498.8,-182.92"/>
</g>
<!-- :data:coverart&#45;&gt;:data:database -->
<g id="edge31" class="edge">
<title>:data:coverart&#45;&gt;:data:database</title>
<path fill="none" stroke="#ff9ab1" stroke-dasharray="1,5" d="M665.72,-559.39C665.72,-559.39 665.72,-445.54 665.72,-445.54"/>
<polygon fill="#ff9ab1" stroke="#ff9ab1" points="669.22,-445.54 665.72,-435.54 662.22,-445.54 669.22,-445.54"/>
</g>
<!-- :data:coverart&#45;&gt;:data:musicbrainz -->
<g id="edge30" class="edge">
<title>:data:coverart&#45;&gt;:data:musicbrainz</title>
<path fill="none" stroke="#ff9ab1" stroke-dasharray="1,5" d="M589.67,-548.02C589.67,-548.02 589.67,-320.04 589.67,-320.04"/>
<polygon fill="#ff9ab1" stroke="#ff9ab1" points="593.17,-320.04 589.67,-310.04 586.17,-320.04 593.17,-320.04"/>
</g>
<!-- :data:spotify&#45;&gt;:shared:domain -->
<g id="edge32" class="edge">
<title>:data:spotify&#45;&gt;:shared:domain</title>
<path fill="none" stroke="black" stroke-dasharray="1,5" d="M407.31,-283.81C407.31,-265.54 407.31,-223 407.31,-223 407.31,-223 769.76,-223 769.76,-223 769.76,-223 769.76,-175.93 769.76,-175.93"/>
<polygon fill="black" stroke="black" points="773.26,-175.93 769.76,-165.93 766.26,-175.93 773.26,-175.93"/>
</g>
<!-- :data:spotify&#45;&gt;:core:logging:api -->
<g id="edge33" class="edge">
<title>:data:spotify&#45;&gt;:core:logging:api</title>
<path fill="none" stroke="black" stroke-dasharray="1,5" d="M399.88,-280.79C399.88,-280.79 399.88,-172.47 399.88,-172.47"/>
<polygon fill="black" stroke="black" points="403.38,-172.47 399.88,-162.47 396.38,-172.47 403.38,-172.47"/>
</g>
</g>
</svg>
