<?xml version="1.0" encoding="UTF-8" standalone="no"?>
<!DOCTYPE svg PUBLIC "-//W3C//DTD SVG 1.1//EN"
 "http://www.w3.org/Graphics/SVG/1.1/DTD/svg11.dtd">
<!-- Generated by graphviz version 2.43.0 (0)
 -->
<!-- Title: %3 Pages: 1 -->
<svg width="1263pt" height="666pt"
 viewBox="0.00 0.00 1263.43 666.00" xmlns="http://www.w3.org/2000/svg" xmlns:xlink="http://www.w3.org/1999/xlink">
<g id="graph0" class="graph" transform="scale(1 1) rotate(0) translate(4 662)">
<title>%3</title>
<polygon fill="white" stroke="transparent" points="-4,4 -4,-662 1259.43,-662 1259.43,4 -4,4"/>
<text text-anchor="middle" x="627.72" y="-630" font-family="Times,serif" font-size="30.00">Dependencies</text>
<text text-anchor="middle" x="627.72" y="-597" font-family="Times,serif" font-size="30.00"> </text>
<!-- :shared:feature:settings -->
<g id="node1" class="node">
<title>:shared:feature:settings</title>
<polygon fill="#b59aff" stroke="black" points="623.84,-584 435.84,-584 435.84,-548 623.84,-548 623.84,-584"/>
<text text-anchor="middle" x="529.84" y="-562.3" font-family="Times,serif" font-size="14.00">:shared:feature:settings</text>
</g>
<!-- :ui:test:screenshot -->
<g id="node2" class="node">
<title>:ui:test:screenshot</title>
<ellipse fill="#9affb5" stroke="black" cx="96.84" cy="-292" rx="96.68" ry="18"/>
<text text-anchor="middle" x="96.84" y="-288.3" font-family="Times,serif" font-size="14.00">:ui:test:screenshot</text>
</g>
<!-- :shared:feature:settings&#45;&gt;:ui:test:screenshot -->
<g id="edge1" class="edge">
<title>:shared:feature:settings&#45;&gt;:ui:test:screenshot</title>
<path fill="none" stroke="#ff9ab1" stroke-dasharray="1,5" d="M435.68,-575C299.73,-575 64.56,-575 64.56,-575 64.56,-575 64.56,-319.28 64.56,-319.28"/>
<polygon fill="#ff9ab1" stroke="#ff9ab1" points="68.06,-319.28 64.56,-309.28 61.06,-319.28 68.06,-319.28"/>
</g>
<!-- :core:models -->
<g id="node3" class="node">
<title>:core:models</title>
<ellipse fill="#b59aff" stroke="black" cx="1025.84" cy="-18" rx="69.59" ry="18"/>
<text text-anchor="middle" x="1025.84" y="-14.3" font-family="Times,serif" font-size="14.00">:core:models</text>
</g>
<!-- :shared:feature:settings&#45;&gt;:core:models -->
<g id="edge2" class="edge">
<title>:shared:feature:settings&#45;&gt;:core:models</title>
<path fill="none" stroke="black" stroke-dasharray="1,5" d="M623.95,-557C766.95,-557 1022.49,-557 1022.49,-557 1022.49,-557 1022.49,-46.24 1022.49,-46.24"/>
<polygon fill="black" stroke="black" points="1025.99,-46.24 1022.49,-36.24 1018.99,-46.24 1025.99,-46.24"/>
</g>
<!-- :core:preferences -->
<g id="node4" class="node">
<title>:core:preferences</title>
<ellipse fill="#b59aff" stroke="black" cx="341.84" cy="-292" rx="91.78" ry="18"/>
<text text-anchor="middle" x="341.84" y="-288.3" font-family="Times,serif" font-size="14.00">:core:preferences</text>
</g>
<!-- :shared:feature:settings&#45;&gt;:core:preferences -->
<g id="edge3" class="edge">
<title>:shared:feature:settings&#45;&gt;:core:preferences</title>
<path fill="none" stroke="black" stroke-dasharray="1,5" d="M471.88,-548C471.88,-487.91 471.88,-298 471.88,-298 471.88,-298 438.58,-298 438.58,-298"/>
<polygon fill="black" stroke="black" points="438.58,-294.5 428.58,-298 438.58,-301.5 438.58,-294.5"/>
</g>
<!-- :data:musicbrainz -->
<g id="node5" class="node">
<title>:data:musicbrainz</title>
<ellipse fill="#b59aff" stroke="black" cx="1161.84" cy="-292" rx="93.68" ry="18"/>
<text text-anchor="middle" x="1161.84" y="-288.3" font-family="Times,serif" font-size="14.00">:data:musicbrainz</text>
</g>
<!-- :shared:feature:settings&#45;&gt;:data:musicbrainz -->
<g id="edge4" class="edge">
<title>:shared:feature:settings&#45;&gt;:data:musicbrainz</title>
<path fill="none" stroke="black" stroke-dasharray="1,5" d="M624.16,-575C807.25,-575 1193.04,-575 1193.04,-575 1193.04,-575 1193.04,-319.28 1193.04,-319.28"/>
<polygon fill="black" stroke="black" points="1196.54,-319.28 1193.04,-309.28 1189.54,-319.28 1196.54,-319.28"/>
</g>
<!-- :shared:domain -->
<g id="node6" class="node">
<title>:shared:domain</title>
<ellipse fill="#b59aff" stroke="black" cx="1136.84" cy="-155" rx="82.59" ry="18"/>
<text text-anchor="middle" x="1136.84" y="-151.3" font-family="Times,serif" font-size="14.00">:shared:domain</text>
</g>
<!-- :shared:feature:settings&#45;&gt;:shared:domain -->
<g id="edge5" class="edge">
<title>:shared:feature:settings&#45;&gt;:shared:domain</title>
<path fill="none" stroke="black" stroke-dasharray="1,5" d="M624.04,-566C777.27,-566 1063.6,-566 1063.6,-566 1063.6,-566 1063.6,-173.58 1063.6,-173.58"/>
<polygon fill="black" stroke="black" points="1067.1,-173.58 1063.6,-163.58 1060.1,-173.58 1067.1,-173.58"/>
</g>
<!-- :shared:strings -->
<g id="node7" class="node">
<title>:shared:strings</title>
<ellipse fill="#b59aff" stroke="black" cx="144.84" cy="-18" rx="81.49" ry="18"/>
<text text-anchor="middle" x="144.84" y="-14.3" font-family="Times,serif" font-size="14.00">:shared:strings</text>
</g>
<!-- :shared:feature:settings&#45;&gt;:shared:strings -->
<g id="edge6" class="edge">
<title>:shared:feature:settings&#45;&gt;:shared:strings</title>
<path fill="none" stroke="black" stroke-dasharray="1,5" d="M435.73,-566C339.64,-566 204.48,-566 204.48,-566 204.48,-566 204.48,-40.48 204.48,-40.48"/>
<polygon fill="black" stroke="black" points="207.98,-40.48 204.48,-30.48 200.98,-40.48 207.98,-40.48"/>
</g>
<!-- :ui:common -->
<g id="node8" class="node">
<title>:ui:common</title>
<ellipse fill="#b59aff" stroke="black" cx="616.84" cy="-429" rx="64.19" ry="18"/>
<text text-anchor="middle" x="616.84" y="-425.3" font-family="Times,serif" font-size="14.00">:ui:common</text>
</g>
<!-- :shared:feature:settings&#45;&gt;:ui:common -->
<g id="edge7" class="edge">
<title>:shared:feature:settings&#45;&gt;:ui:common</title>
<path fill="none" stroke="black" stroke-dasharray="1,5" d="M588.17,-547.81C588.17,-547.81 588.17,-455.13 588.17,-455.13"/>
<polygon fill="black" stroke="black" points="591.67,-455.13 588.17,-445.13 584.67,-455.13 591.67,-455.13"/>
</g>
<!-- :ui:core -->
<g id="node9" class="node">
<title>:ui:core</title>
<ellipse fill="#b59aff" stroke="black" cx="144.84" cy="-155" rx="45.49" ry="18"/>
<text text-anchor="middle" x="144.84" y="-151.3" font-family="Times,serif" font-size="14.00">:ui:core</text>
</g>
<!-- :shared:feature:settings&#45;&gt;:ui:core -->
<g id="edge8" class="edge">
<title>:shared:feature:settings&#45;&gt;:ui:core</title>
<path fill="none" stroke="black" stroke-dasharray="1,5" d="M435.46,-557C348.92,-557 234.12,-557 234.12,-557 234.12,-557 234.12,-161 234.12,-161 234.12,-161 197.91,-161 197.91,-161"/>
<polygon fill="black" stroke="black" points="197.91,-157.5 187.91,-161 197.91,-164.5 197.91,-157.5"/>
</g>
<!-- :ui:test:screenshot&#45;&gt;:ui:core -->
<g id="edge9" class="edge">
<title>:ui:test:screenshot&#45;&gt;:ui:core</title>
<path fill="none" stroke="black" stroke-dasharray="1,5" d="M129.68,-274.93C129.68,-274.93 129.68,-182.29 129.68,-182.29"/>
<polygon fill="black" stroke="black" points="133.18,-182.29 129.68,-172.29 126.18,-182.29 133.18,-182.29"/>
</g>
<!-- :core:preferences&#45;&gt;:core:models -->
<g id="edge11" class="edge">
<title>:core:preferences&#45;&gt;:core:models</title>
<path fill="none" stroke="black" stroke-dasharray="1,5" d="M428.44,-286C443.19,-286 453.86,-286 453.86,-286 453.86,-286 453.86,-9 453.86,-9 453.86,-9 955.44,-9 955.44,-9"/>
<polygon fill="black" stroke="black" points="955.44,-12.5 965.44,-9 955.44,-5.5 955.44,-12.5"/>
</g>
<!-- :core:coroutines -->
<g id="node10" class="node">
<title>:core:coroutines</title>
<ellipse fill="#b59aff" stroke="black" cx="341.84" cy="-155" rx="85.29" ry="18"/>
<text text-anchor="middle" x="341.84" y="-151.3" font-family="Times,serif" font-size="14.00">:core:coroutines</text>
</g>
<!-- :core:preferences&#45;&gt;:core:coroutines -->
<g id="edge10" class="edge">
<title>:core:preferences&#45;&gt;:core:coroutines</title>
<path fill="none" stroke="black" stroke-dasharray="1,5" d="M341.84,-273.81C341.84,-273.81 341.84,-183.27 341.84,-183.27"/>
<polygon fill="black" stroke="black" points="345.34,-183.27 341.84,-173.27 338.34,-183.27 345.34,-183.27"/>
</g>
<!-- :data:musicbrainz&#45;&gt;:core:models -->
<g id="edge13" class="edge">
<title>:data:musicbrainz&#45;&gt;:core:models</title>
<path fill="none" stroke="black" stroke-dasharray="1,5" d="M1073.51,-286C1056.42,-286 1043.7,-286 1043.7,-286 1043.7,-286 1043.7,-45.58 1043.7,-45.58"/>
<polygon fill="black" stroke="black" points="1047.2,-45.58 1043.7,-35.58 1040.2,-45.58 1047.2,-45.58"/>
</g>
<!-- :core:logging:api -->
<g id="node11" class="node">
<title>:core:logging:api</title>
<ellipse fill="#b59aff" stroke="black" cx="909.84" cy="-155" rx="88.28" ry="18"/>
<text text-anchor="middle" x="909.84" y="-151.3" font-family="Times,serif" font-size="14.00">:core:logging:api</text>
</g>
<!-- :data:musicbrainz&#45;&gt;:core:logging:api -->
<g id="edge12" class="edge">
<title>:data:musicbrainz&#45;&gt;:core:logging:api</title>
<path fill="none" stroke="black" stroke-dasharray="1,5" d="M1073.48,-298C1051.01,-298 1033.09,-298 1033.09,-298 1033.09,-298 1033.09,-161 1033.09,-161 1033.09,-161 1003.42,-161 1003.42,-161"/>
<polygon fill="black" stroke="black" points="1003.42,-157.5 993.42,-161 1003.42,-164.5 1003.42,-157.5"/>
</g>
<!-- :shared:domain&#45;&gt;:core:models -->
<g id="edge14" class="edge">
<title>:shared:domain&#45;&gt;:core:models</title>
<path fill="none" stroke="black" stroke-dasharray="1,5" d="M1074.84,-142.84C1074.84,-142.84 1074.84,-41.13 1074.84,-41.13"/>
<polygon fill="black" stroke="black" points="1078.34,-41.13 1074.84,-31.13 1071.34,-41.13 1078.34,-41.13"/>
</g>
<!-- :ui:common&#45;&gt;:ui:test:screenshot -->
<g id="edge16" class="edge">
<title>:ui:common&#45;&gt;:ui:test:screenshot</title>
<path fill="none" stroke="#ff9ab1" stroke-dasharray="1,5" d="M563.25,-439C436.56,-439 129.12,-439 129.12,-439 129.12,-439 129.12,-319.15 129.12,-319.15"/>
<polygon fill="#ff9ab1" stroke="#ff9ab1" points="132.62,-319.15 129.12,-309.15 125.62,-319.15 132.62,-319.15"/>
</g>
<!-- :ui:common&#45;&gt;:core:models -->
<g id="edge17" class="edge">
<title>:ui:common&#45;&gt;:core:models</title>
<path fill="none" stroke="black" d="M606.94,-411.21C606.94,-333.41 606.94,-27 606.94,-27 606.94,-27 955.38,-27 955.38,-27"/>
<polygon fill="black" stroke="black" points="955.38,-30.5 965.38,-27 955.38,-23.5 955.38,-30.5"/>
</g>
<!-- :ui:common&#45;&gt;:core:preferences -->
<g id="edge20" class="edge">
<title>:ui:common&#45;&gt;:core:preferences</title>
<path fill="none" stroke="black" stroke-dasharray="1,5" d="M565.76,-418C486.23,-418 341.84,-418 341.84,-418 341.84,-418 341.84,-320.05 341.84,-320.05"/>
<polygon fill="black" stroke="black" points="345.34,-320.05 341.84,-310.05 338.34,-320.05 345.34,-320.05"/>
</g>
<!-- :ui:common&#45;&gt;:data:musicbrainz -->
<g id="edge19" class="edge">
<title>:ui:common&#45;&gt;:data:musicbrainz</title>
<path fill="none" stroke="black" stroke-dasharray="1,5" d="M670.37,-439C801.97,-439 1130.64,-439 1130.64,-439 1130.64,-439 1130.64,-319.15 1130.64,-319.15"/>
<polygon fill="black" stroke="black" points="1134.14,-319.15 1130.64,-309.15 1127.14,-319.15 1134.14,-319.15"/>
</g>
<!-- :ui:common&#45;&gt;:shared:domain -->
<g id="edge22" class="edge">
<title>:ui:common&#45;&gt;:shared:domain</title>
<path fill="none" stroke="black" stroke-dasharray="1,5" d="M680.66,-432C803.09,-432 1058.95,-432 1058.95,-432 1058.95,-432 1058.95,-171.04 1058.95,-171.04"/>
<polygon fill="black" stroke="black" points="1062.45,-171.04 1058.95,-161.04 1055.45,-171.04 1062.45,-171.04"/>
</g>
<!-- :ui:common&#45;&gt;:shared:strings -->
<g id="edge23" class="edge">
<title>:ui:common&#45;&gt;:shared:strings</title>
<path fill="none" stroke="black" stroke-dasharray="1,5" d="M553.21,-432C439.99,-432 215.28,-432 215.28,-432 215.28,-432 215.28,-37.03 215.28,-37.03"/>
<polygon fill="black" stroke="black" points="218.78,-37.03 215.28,-27.03 211.78,-37.03 218.78,-37.03"/>
</g>
<!-- :ui:common&#45;&gt;:ui:core -->
<g id="edge24" class="edge">
<title>:ui:common&#45;&gt;:ui:core</title>
<path fill="none" stroke="black" stroke-dasharray="1,5" d="M553.71,-425C446.92,-425 242.16,-425 242.16,-425 242.16,-425 242.16,-149 242.16,-149 242.16,-149 197.81,-149 197.81,-149"/>
<polygon fill="black" stroke="black" points="197.81,-145.5 187.81,-149 197.81,-152.5 197.81,-145.5"/>
</g>
<!-- :ui:common&#45;&gt;:core:logging:api -->
<g id="edge21" class="edge">
<title>:ui:common&#45;&gt;:core:logging:api</title>
<path fill="none" stroke="black" stroke-dasharray="1,5" d="M667.9,-418C733.95,-418 840.62,-418 840.62,-418 840.62,-418 840.62,-176.3 840.62,-176.3"/>
<polygon fill="black" stroke="black" points="844.12,-176.3 840.62,-166.3 837.12,-176.3 844.12,-176.3"/>
</g>
<!-- :ui:test:image -->
<g id="node12" class="node">
<title>:ui:test:image</title>
<ellipse fill="#9affb5" stroke="black" cx="690.84" cy="-292" rx="74.99" ry="18"/>
<text text-anchor="middle" x="690.84" y="-288.3" font-family="Times,serif" font-size="14.00">:ui:test:image</text>
</g>
<!-- :ui:common&#45;&gt;:ui:test:image -->
<g id="edge15" class="edge">
<title>:ui:common&#45;&gt;:ui:test:image</title>
<path fill="none" stroke="#ff9ab1" stroke-dasharray="1,5" d="M648.64,-413.28C648.64,-413.28 648.64,-317.11 648.64,-317.11"/>
<polygon fill="#ff9ab1" stroke="#ff9ab1" points="652.14,-317.11 648.64,-307.11 645.14,-317.11 652.14,-317.11"/>
</g>
<!-- :data:coverart -->
<g id="node13" class="node">
<title>:data:coverart</title>
<ellipse fill="#b59aff" stroke="black" cx="935.84" cy="-292" rx="76.09" ry="18"/>
<text text-anchor="middle" x="935.84" y="-288.3" font-family="Times,serif" font-size="14.00">:data:coverart</text>
</g>
<!-- :ui:common&#45;&gt;:data:coverart -->
<g id="edge18" class="edge">
<title>:ui:common&#45;&gt;:data:coverart</title>
<path fill="none" stroke="black" stroke-dasharray="1,5" d="M679.87,-425C772.83,-425 935.84,-425 935.84,-425 935.84,-425 935.84,-320.21 935.84,-320.21"/>
<polygon fill="black" stroke="black" points="939.34,-320.21 935.84,-310.21 932.34,-320.21 939.34,-320.21"/>
</g>
<!-- :ui:image -->
<g id="node14" class="node">
<title>:ui:image</title>
<ellipse fill="#b59aff" stroke="black" cx="543.84" cy="-292" rx="53.89" ry="18"/>
<text text-anchor="middle" x="543.84" y="-288.3" font-family="Times,serif" font-size="14.00">:ui:image</text>
</g>
<!-- :ui:common&#45;&gt;:ui:image -->
<g id="edge25" class="edge">
<title>:ui:common&#45;&gt;:ui:image</title>
<path fill="none" stroke="black" stroke-dasharray="1,5" d="M575.14,-415.11C575.14,-415.11 575.14,-316.75 575.14,-316.75"/>
<polygon fill="black" stroke="black" points="578.64,-316.75 575.14,-306.75 571.64,-316.75 578.64,-316.75"/>
</g>
<!-- :ui:core&#45;&gt;:shared:strings -->
<g id="edge26" class="edge">
<title>:ui:core&#45;&gt;:shared:strings</title>
<path fill="none" stroke="black" d="M144.84,-136.81C144.84,-136.81 144.84,-46.27 144.84,-46.27"/>
<polygon fill="black" stroke="black" points="148.34,-46.27 144.84,-36.27 141.34,-46.27 148.34,-46.27"/>
</g>
<!-- :data:coverart&#45;&gt;:core:models -->
<g id="edge28" class="edge">
<title>:data:coverart&#45;&gt;:core:models</title>
<path fill="none" stroke="black" stroke-dasharray="1,5" d="M1002.78,-283.19C1002.78,-283.19 1002.78,-45 1002.78,-45"/>
<polygon fill="black" stroke="black" points="1006.28,-45 1002.78,-35 999.28,-45 1006.28,-45"/>
</g>
<!-- :data:coverart&#45;&gt;:shared:domain -->
<g id="edge29" class="edge">
<title>:data:coverart&#45;&gt;:shared:domain</title>
<path fill="none" stroke="black" stroke-dasharray="1,5" d="M1007.33,-285.86C1007.33,-258.48 1007.33,-149 1007.33,-149 1007.33,-149 1048.89,-149 1048.89,-149"/>
<polygon fill="black" stroke="black" points="1048.89,-152.5 1058.89,-149 1048.89,-145.5 1048.89,-152.5"/>
</g>
<!-- :data:coverart&#45;&gt;:core:logging:api -->
<g id="edge27" class="edge">
<title>:data:coverart&#45;&gt;:core:logging:api</title>
<path fill="none" stroke="black" stroke-dasharray="1,5" d="M929.02,-273.81C929.02,-273.81 929.02,-182.83 929.02,-182.83"/>
<polygon fill="black" stroke="black" points="932.52,-182.83 929.02,-172.83 925.52,-182.83 932.52,-182.83"/>
</g>
<!-- :ui:image&#45;&gt;:core:models -->
<g id="edge30" class="edge">
<title>:ui:image&#45;&gt;:core:models</title>
<path fill="none" stroke="black" stroke-dasharray="1,5" d="M561.82,-274.86C561.82,-214.87 561.82,-18 561.82,-18 561.82,-18 946.12,-18 946.12,-18"/>
<polygon fill="black" stroke="black" points="946.12,-21.5 956.12,-18 946.12,-14.5 946.12,-21.5"/>
</g>
<!-- :ui:image&#45;&gt;:ui:core -->
<g id="edge31" class="edge">
<title>:ui:image&#45;&gt;:ui:core</title>
<path fill="none" stroke="black" stroke-dasharray="1,5" d="M525.86,-274.94C525.86,-254.51 525.86,-223 525.86,-223 525.86,-223 160.01,-223 160.01,-223 160.01,-223 160.01,-182.16 160.01,-182.16"/>
<polygon fill="black" stroke="black" points="163.51,-182.16 160.01,-172.16 156.51,-182.16 163.51,-182.16"/>
</g>
</g>
</svg>
