<?xml version="1.0" encoding="UTF-8" standalone="no"?>
<!DOCTYPE svg PUBLIC "-//W3C//DTD SVG 1.1//EN"
 "http://www.w3.org/Graphics/SVG/1.1/DTD/svg11.dtd">
<!-- Generated by graphviz version 2.43.0 (0)
 -->
<!-- Title: %3 Pages: 1 -->
<svg width="1060pt" height="940pt"
 viewBox="0.00 0.00 1060.19 940.00" xmlns="http://www.w3.org/2000/svg" xmlns:xlink="http://www.w3.org/1999/xlink">
<g id="graph0" class="graph" transform="scale(1 1) rotate(0) translate(4 936)">
<title>%3</title>
<polygon fill="white" stroke="transparent" points="-4,4 -4,-936 1056.19,-936 1056.19,4 -4,4"/>
<text text-anchor="middle" x="526.09" y="-904" font-family="Times,serif" font-size="30.00">Dependencies</text>
<text text-anchor="middle" x="526.09" y="-871" font-family="Times,serif" font-size="30.00"> </text>
<!-- :shared:feature:settings -->
<g id="node1" class="node">
<title>:shared:feature:settings</title>
<polygon fill="#b59aff" stroke="black" points="357.04,-858 169.04,-858 169.04,-822 357.04,-822 357.04,-858"/>
<text text-anchor="middle" x="263.04" y="-836.3" font-family="Times,serif" font-size="14.00">:shared:feature:settings</text>
</g>
<!-- :ui:test:screenshot -->
<g id="node2" class="node">
<title>:ui:test:screenshot</title>
<ellipse fill="#9affb5" stroke="black" cx="100.04" cy="-566" rx="96.68" ry="18"/>
<text text-anchor="middle" x="100.04" y="-562.3" font-family="Times,serif" font-size="14.00">:ui:test:screenshot</text>
</g>
<!-- :shared:feature:settings&#45;&gt;:ui:test:screenshot -->
<g id="edge1" class="edge">
<title>:shared:feature:settings&#45;&gt;:ui:test:screenshot</title>
<path fill="none" stroke="#ff9ab1" stroke-dasharray="1,5" d="M178.32,-821.6C178.32,-821.6 178.32,-586.61 178.32,-586.61"/>
<polygon fill="#ff9ab1" stroke="#ff9ab1" points="181.82,-586.61 178.32,-576.61 174.82,-586.61 181.82,-586.61"/>
</g>
<!-- :ui:common -->
<g id="node3" class="node">
<title>:ui:common</title>
<ellipse fill="#b59aff" stroke="black" cx="427.04" cy="-703" rx="64.19" ry="18"/>
<text text-anchor="middle" x="427.04" y="-699.3" font-family="Times,serif" font-size="14.00">:ui:common</text>
</g>
<!-- :shared:feature:settings&#45;&gt;:ui:common -->
<g id="edge2" class="edge">
<title>:shared:feature:settings&#45;&gt;:ui:common</title>
<path fill="none" stroke="black" stroke-dasharray="1,5" d="M324.07,-821.93C324.07,-786.65 324.07,-712 324.07,-712 324.07,-712 361.04,-712 361.04,-712"/>
<polygon fill="black" stroke="black" points="361.04,-715.5 371.04,-712 361.04,-708.5 361.04,-715.5"/>
</g>
<!-- :shared:domain -->
<g id="node4" class="node">
<title>:shared:domain</title>
<ellipse fill="#b59aff" stroke="black" cx="477.04" cy="-18" rx="82.59" ry="18"/>
<text text-anchor="middle" x="477.04" y="-14.3" font-family="Times,serif" font-size="14.00">:shared:domain</text>
</g>
<!-- :shared:feature:settings&#45;&gt;:shared:domain -->
<g id="edge3" class="edge">
<title>:shared:feature:settings&#45;&gt;:shared:domain</title>
<path fill="none" stroke="black" stroke-dasharray="1,5" d="M263.32,-821.68C263.32,-700.39 263.32,-18 263.32,-18 263.32,-18 384.41,-18 384.41,-18"/>
<polygon fill="black" stroke="black" points="384.41,-21.5 394.41,-18 384.41,-14.5 384.41,-21.5"/>
</g>
<!-- :ui:core -->
<g id="node5" class="node">
<title>:ui:core</title>
<ellipse fill="#b59aff" stroke="black" cx="190.04" cy="-429" rx="45.49" ry="18"/>
<text text-anchor="middle" x="190.04" y="-425.3" font-family="Times,serif" font-size="14.00">:ui:core</text>
</g>
<!-- :ui:test:screenshot&#45;&gt;:ui:core -->
<g id="edge4" class="edge">
<title>:ui:test:screenshot&#45;&gt;:ui:core</title>
<path fill="none" stroke="black" stroke-dasharray="1,5" d="M170.72,-553.36C170.72,-553.36 170.72,-455.39 170.72,-455.39"/>
<polygon fill="black" stroke="black" points="174.22,-455.39 170.72,-445.39 167.22,-455.39 174.22,-455.39"/>
</g>
<!-- :test:image -->
<g id="node6" class="node">
<title>:test:image</title>
<ellipse fill="#9affb5" stroke="black" cx="63.04" cy="-429" rx="63.09" ry="18"/>
<text text-anchor="middle" x="63.04" y="-425.3" font-family="Times,serif" font-size="14.00">:test:image</text>
</g>
<!-- :ui:test:screenshot&#45;&gt;:test:image -->
<g id="edge5" class="edge">
<title>:ui:test:screenshot&#45;&gt;:test:image</title>
<path fill="none" stroke="black" stroke-dasharray="1,5" d="M64.65,-549.2C64.65,-549.2 64.65,-457.25 64.65,-457.25"/>
<polygon fill="black" stroke="black" points="68.15,-457.25 64.65,-447.25 61.15,-457.25 68.15,-457.25"/>
</g>
<!-- :ui:common&#45;&gt;:ui:test:screenshot -->
<g id="edge7" class="edge">
<title>:ui:common&#45;&gt;:ui:test:screenshot</title>
<path fill="none" stroke="#ff9ab1" stroke-dasharray="1,5" d="M362.56,-703C291.65,-703 187.61,-703 187.61,-703 187.61,-703 187.61,-583.76 187.61,-583.76"/>
<polygon fill="#ff9ab1" stroke="#ff9ab1" points="191.11,-583.76 187.61,-573.76 184.11,-583.76 191.11,-583.76"/>
</g>
<!-- :ui:common&#45;&gt;:shared:domain -->
<g id="edge9" class="edge">
<title>:ui:common&#45;&gt;:shared:domain</title>
<path fill="none" stroke="black" d="M417.17,-685.03C417.17,-685.03 417.17,-40.53 417.17,-40.53"/>
<polygon fill="black" stroke="black" points="420.67,-40.53 417.17,-30.53 413.67,-40.53 420.67,-40.53"/>
</g>
<!-- :ui:common&#45;&gt;:ui:core -->
<g id="edge10" class="edge">
<title>:ui:common&#45;&gt;:ui:core</title>
<path fill="none" stroke="black" d="M371.09,-694C306.71,-694 209.77,-694 209.77,-694 209.77,-694 209.77,-455.58 209.77,-455.58"/>
<polygon fill="black" stroke="black" points="213.27,-455.58 209.77,-445.58 206.27,-455.58 213.27,-455.58"/>
</g>
<!-- :test&#45;data -->
<g id="node7" class="node">
<title>:test&#45;data</title>
<ellipse fill="#b59aff" stroke="black" cx="639.04" cy="-566" rx="55.49" ry="18"/>
<text text-anchor="middle" x="639.04" y="-562.3" font-family="Times,serif" font-size="14.00">:test&#45;data</text>
</g>
<!-- :ui:common&#45;&gt;:test&#45;data -->
<g id="edge6" class="edge">
<title>:ui:common&#45;&gt;:test&#45;data</title>
<path fill="none" stroke="#ff9ab1" stroke-dasharray="1,5" d="M475.74,-691.11C475.74,-658.31 475.74,-569 475.74,-569 475.74,-569 574.21,-569 574.21,-569"/>
<polygon fill="#ff9ab1" stroke="#ff9ab1" points="574.21,-572.5 584.21,-569 574.21,-565.5 574.21,-572.5"/>
</g>
<!-- :core:coroutines -->
<g id="node8" class="node">
<title>:core:coroutines</title>
<ellipse fill="#b59aff" stroke="black" cx="967.04" cy="-155" rx="85.29" ry="18"/>
<text text-anchor="middle" x="967.04" y="-151.3" font-family="Times,serif" font-size="14.00">:core:coroutines</text>
</g>
<!-- :ui:common&#45;&gt;:core:coroutines -->
<g id="edge8" class="edge">
<title>:ui:common&#45;&gt;:core:coroutines</title>
<path fill="none" stroke="#ff9ab1" stroke-dasharray="1,5" d="M487.8,-709C638.63,-709 1018.13,-709 1018.13,-709 1018.13,-709 1018.13,-179.53 1018.13,-179.53"/>
<polygon fill="#ff9ab1" stroke="#ff9ab1" points="1021.63,-179.53 1018.13,-169.53 1014.63,-179.53 1021.63,-179.53"/>
</g>
<!-- :core:logging:api -->
<g id="node9" class="node">
<title>:core:logging:api</title>
<ellipse fill="#b59aff" stroke="black" cx="937.04" cy="-18" rx="88.28" ry="18"/>
<text text-anchor="middle" x="937.04" y="-14.3" font-family="Times,serif" font-size="14.00">:core:logging:api</text>
</g>
<!-- :ui:common&#45;&gt;:core:logging:api -->
<g id="edge11" class="edge">
<title>:ui:common&#45;&gt;:core:logging:api</title>
<path fill="none" stroke="black" stroke-dasharray="1,5" d="M488.05,-697C610.78,-697 875.91,-697 875.91,-697 875.91,-697 875.91,-41.26 875.91,-41.26"/>
<polygon fill="black" stroke="black" points="879.41,-41.26 875.91,-31.26 872.41,-41.26 879.41,-41.26"/>
</g>
<!-- :ui:image -->
<g id="node10" class="node">
<title>:ui:image</title>
<ellipse fill="#b59aff" stroke="black" cx="345.04" cy="-566" rx="53.89" ry="18"/>
<text text-anchor="middle" x="345.04" y="-562.3" font-family="Times,serif" font-size="14.00">:ui:image</text>
</g>
<!-- :ui:common&#45;&gt;:ui:image -->
<g id="edge12" class="edge">
<title>:ui:common&#45;&gt;:ui:image</title>
<path fill="none" stroke="black" stroke-dasharray="1,5" d="M380.84,-690.36C380.84,-690.36 380.84,-589.83 380.84,-589.83"/>
<polygon fill="black" stroke="black" points="384.34,-589.83 380.84,-579.83 377.34,-589.83 384.34,-589.83"/>
</g>
<!-- :data:musicbrainz -->
<g id="node11" class="node">
<title>:data:musicbrainz</title>
<ellipse fill="#b59aff" stroke="black" cx="538.04" cy="-155" rx="93.68" ry="18"/>
<text text-anchor="middle" x="538.04" y="-151.3" font-family="Times,serif" font-size="14.00">:data:musicbrainz</text>
</g>
<!-- :ui:common&#45;&gt;:data:musicbrainz -->
<g id="edge13" class="edge">
<title>:ui:common&#45;&gt;:data:musicbrainz</title>
<path fill="none" stroke="black" stroke-dasharray="1,5" d="M460.1,-687.48C460.1,-687.48 460.1,-175.16 460.1,-175.16"/>
<polygon fill="black" stroke="black" points="463.6,-175.16 460.1,-165.16 456.6,-175.16 463.6,-175.16"/>
</g>
<!-- :shared:strings -->
<g id="node12" class="node">
<title>:shared:strings</title>
<ellipse fill="#b59aff" stroke="black" cx="154.04" cy="-292" rx="81.49" ry="18"/>
<text text-anchor="middle" x="154.04" y="-288.3" font-family="Times,serif" font-size="14.00">:shared:strings</text>
</g>
<!-- :ui:core&#45;&gt;:shared:strings -->
<g id="edge14" class="edge">
<title>:ui:core&#45;&gt;:shared:strings</title>
<path fill="none" stroke="black" d="M189.92,-410.81C189.92,-410.81 189.92,-318.55 189.92,-318.55"/>
<polygon fill="black" stroke="black" points="193.42,-318.55 189.92,-308.55 186.42,-318.55 193.42,-318.55"/>
</g>
<!-- :test&#45;data&#45;&gt;:shared:domain -->
<g id="edge15" class="edge">
<title>:test&#45;data&#45;&gt;:shared:domain</title>
<path fill="none" stroke="black" stroke-dasharray="1,5" d="M585.08,-562C522.04,-562 426.27,-562 426.27,-562 426.27,-562 426.27,-42.27 426.27,-42.27"/>
<polygon fill="black" stroke="black" points="429.77,-42.27 426.27,-32.27 422.77,-42.27 429.77,-42.27"/>
</g>
<!-- :test&#45;data&#45;&gt;:core:coroutines -->
<g id="edge16" class="edge">
<title>:test&#45;data&#45;&gt;:core:coroutines</title>
<path fill="none" stroke="black" stroke-dasharray="1,5" d="M691.45,-572C787.97,-572 984.07,-572 984.07,-572 984.07,-572 984.07,-182.65 984.07,-182.65"/>
<polygon fill="black" stroke="black" points="987.57,-182.65 984.07,-172.65 980.57,-182.65 987.57,-182.65"/>
</g>
<!-- :test&#45;data&#45;&gt;:data:musicbrainz -->
<g id="edge18" class="edge">
<title>:test&#45;data&#45;&gt;:data:musicbrainz</title>
<path fill="none" stroke="black" stroke-dasharray="1,5" d="M595.05,-555C560.14,-555 517.18,-555 517.18,-555 517.18,-555 517.18,-182.7 517.18,-182.7"/>
<polygon fill="black" stroke="black" points="520.68,-182.7 517.18,-172.7 513.68,-182.7 520.68,-182.7"/>
</g>
<!-- :data:database -->
<g id="node13" class="node">
<title>:data:database</title>
<ellipse fill="#b59aff" stroke="black" cx="648.04" cy="-292" rx="79.09" ry="18"/>
<text text-anchor="middle" x="648.04" y="-288.3" font-family="Times,serif" font-size="14.00">:data:database</text>
</g>
<!-- :test&#45;data&#45;&gt;:data:database -->
<g id="edge17" class="edge">
<title>:test&#45;data&#45;&gt;:data:database</title>
<path fill="none" stroke="black" stroke-dasharray="1,5" d="M599.4,-553.15C599.4,-553.15 599.4,-316.45 599.4,-316.45"/>
<polygon fill="black" stroke="black" points="602.9,-316.45 599.4,-306.45 595.9,-316.45 602.9,-316.45"/>
</g>
<!-- :data:coverart -->
<g id="node14" class="node">
<title>:data:coverart</title>
<ellipse fill="#b59aff" stroke="black" cx="691.04" cy="-429" rx="76.09" ry="18"/>
<text text-anchor="middle" x="691.04" y="-425.3" font-family="Times,serif" font-size="14.00">:data:coverart</text>
</g>
<!-- :test&#45;data&#45;&gt;:data:coverart -->
<g id="edge19" class="edge">
<title>:test&#45;data&#45;&gt;:data:coverart</title>
<path fill="none" stroke="black" stroke-dasharray="1,5" d="M641.43,-547.81C641.43,-547.81 641.43,-452.71 641.43,-452.71"/>
<polygon fill="black" stroke="black" points="644.93,-452.71 641.43,-442.71 637.93,-452.71 644.93,-452.71"/>
</g>
<!-- :data:spotify -->
<g id="node15" class="node">
<title>:data:spotify</title>
<ellipse fill="#b59aff" stroke="black" cx="795.04" cy="-155" rx="68.79" ry="18"/>
<text text-anchor="middle" x="795.04" y="-151.3" font-family="Times,serif" font-size="14.00">:data:spotify</text>
</g>
<!-- :test&#45;data&#45;&gt;:data:spotify -->
<g id="edge20" class="edge">
<title>:test&#45;data&#45;&gt;:data:spotify</title>
<path fill="none" stroke="black" stroke-dasharray="1,5" d="M691.51,-560C743.53,-560 815.51,-560 815.51,-560 815.51,-560 815.51,-182.4 815.51,-182.4"/>
<polygon fill="black" stroke="black" points="819.01,-182.4 815.51,-172.4 812.01,-182.4 819.01,-182.4"/>
</g>
<!-- :ui:image&#45;&gt;:shared:domain -->
<g id="edge21" class="edge">
<title>:ui:image&#45;&gt;:shared:domain</title>
<path fill="none" stroke="black" stroke-dasharray="1,5" d="M390.19,-576C400.29,-576 408.08,-576 408.08,-576 408.08,-576 408.08,-38.16 408.08,-38.16"/>
<polygon fill="black" stroke="black" points="411.58,-38.16 408.08,-28.16 404.58,-38.16 411.58,-38.16"/>
</g>
<!-- :ui:image&#45;&gt;:ui:core -->
<g id="edge22" class="edge">
<title>:ui:image&#45;&gt;:ui:core</title>
<path fill="none" stroke="black" stroke-dasharray="1,5" d="M291.01,-566C258.22,-566 222.66,-566 222.66,-566 222.66,-566 222.66,-451.64 222.66,-451.64"/>
<polygon fill="black" stroke="black" points="226.16,-451.64 222.66,-441.64 219.16,-451.64 226.16,-451.64"/>
</g>
<!-- :data:musicbrainz&#45;&gt;:shared:domain -->
<g id="edge23" class="edge">
<title>:data:musicbrainz&#45;&gt;:shared:domain</title>
<path fill="none" stroke="black" stroke-dasharray="1,5" d="M502.02,-138.2C502.02,-138.2 502.02,-45.37 502.02,-45.37"/>
<polygon fill="black" stroke="black" points="505.52,-45.37 502.02,-35.37 498.52,-45.37 505.52,-45.37"/>
</g>
<!-- :data:musicbrainz&#45;&gt;:core:logging:api -->
<g id="edge24" class="edge">
<title>:data:musicbrainz&#45;&gt;:core:logging:api</title>
<path fill="none" stroke="black" stroke-dasharray="1,5" d="M595.61,-140.6C595.61,-105.42 595.61,-18 595.61,-18 595.61,-18 838.23,-18 838.23,-18"/>
<polygon fill="black" stroke="black" points="838.23,-21.5 848.23,-18 838.23,-14.5 838.23,-21.5"/>
</g>
<!-- :data:database&#45;&gt;:shared:domain -->
<g id="edge25" class="edge">
<title>:data:database&#45;&gt;:shared:domain</title>
<path fill="none" stroke="black" stroke-dasharray="1,5" d="M678.89,-275.02C678.89,-216.53 678.89,-27 678.89,-27 678.89,-27 558.78,-27 558.78,-27"/>
<polygon fill="black" stroke="black" points="558.78,-23.5 548.78,-27 558.78,-30.5 558.78,-23.5"/>
</g>
<!-- :data:database&#45;&gt;:core:coroutines -->
<g id="edge26" class="edge">
<title>:data:database&#45;&gt;:core:coroutines</title>
<path fill="none" stroke="black" stroke-dasharray="1,5" d="M727.34,-292C806.34,-292 915.96,-292 915.96,-292 915.96,-292 915.96,-179.4 915.96,-179.4"/>
<polygon fill="black" stroke="black" points="919.46,-179.4 915.96,-169.4 912.46,-179.4 919.46,-179.4"/>
</g>
<!-- :data:database&#45;&gt;:data:musicbrainz -->
<g id="edge27" class="edge">
<title>:data:database&#45;&gt;:data:musicbrainz</title>
<path fill="none" stroke="black" stroke-dasharray="1,5" d="M600.19,-277.6C600.19,-277.6 600.19,-178.8 600.19,-178.8"/>
<polygon fill="black" stroke="black" points="603.69,-178.8 600.19,-168.8 596.69,-178.8 603.69,-178.8"/>
</g>
<!-- :data:coverart&#45;&gt;:shared:domain -->
<g id="edge28" class="edge">
<title>:data:coverart&#45;&gt;:shared:domain</title>
<path fill="none" stroke="black" stroke-dasharray="1,5" d="M619.14,-435C543.52,-435 435.36,-435 435.36,-435 435.36,-435 435.36,-43.84 435.36,-43.84"/>
<polygon fill="black" stroke="black" points="438.86,-43.84 435.36,-33.84 431.86,-43.84 438.86,-43.84"/>
</g>
<!-- :data:coverart&#45;&gt;:test&#45;data -->
<g id="edge31" class="edge">
<title>:data:coverart&#45;&gt;:test&#45;data</title>
<path fill="none" stroke="#ff9ab1" stroke-dasharray="1,5" d="M667.86,-446.35C667.86,-446.35 667.86,-540.48 667.86,-540.48"/>
<polygon fill="#ff9ab1" stroke="#ff9ab1" points="664.36,-540.48 667.86,-550.48 671.36,-540.48 664.36,-540.48"/>
</g>
<!-- :data:coverart&#45;&gt;:core:coroutines -->
<g id="edge30" class="edge">
<title>:data:coverart&#45;&gt;:core:coroutines</title>
<path fill="none" stroke="black" stroke-dasharray="1,5" d="M762.84,-435C839.48,-435 950.02,-435 950.02,-435 950.02,-435 950.02,-182.94 950.02,-182.94"/>
<polygon fill="black" stroke="black" points="953.52,-182.94 950.02,-172.94 946.52,-182.94 953.52,-182.94"/>
</g>
<!-- :data:coverart&#45;&gt;:core:logging:api -->
<g id="edge29" class="edge">
<title>:data:coverart&#45;&gt;:core:logging:api</title>
<path fill="none" stroke="black" stroke-dasharray="1,5" d="M762.77,-423C812.54,-423 869.93,-423 869.93,-423 869.93,-423 869.93,-40.12 869.93,-40.12"/>
<polygon fill="black" stroke="black" points="873.43,-40.12 869.93,-30.12 866.43,-40.12 873.43,-40.12"/>
</g>
<!-- :data:coverart&#45;&gt;:data:musicbrainz -->
<g id="edge32" class="edge">
<title>:data:coverart&#45;&gt;:data:musicbrainz</title>
<path fill="none" stroke="#ff9ab1" stroke-dasharray="1,5" d="M619.17,-423C581.44,-423 542.96,-423 542.96,-423 542.96,-423 542.96,-183 542.96,-183"/>
<polygon fill="#ff9ab1" stroke="#ff9ab1" points="546.46,-183 542.96,-173 539.46,-183 546.46,-183"/>
</g>
<!-- :data:coverart&#45;&gt;:data:database -->
<g id="edge33" class="edge">
<title>:data:coverart&#45;&gt;:data:database</title>
<path fill="none" stroke="#ff9ab1" stroke-dasharray="1,5" d="M671.17,-411.37C671.17,-411.37 671.17,-319.56 671.17,-319.56"/>
<polygon fill="#ff9ab1" stroke="#ff9ab1" points="674.67,-319.56 671.17,-309.56 667.67,-319.56 674.67,-319.56"/>
</g>
<!-- :data:spotify&#45;&gt;:shared:domain -->
<g id="edge34" class="edge">
<title>:data:spotify&#45;&gt;:shared:domain</title>
<path fill="none" stroke="black" stroke-dasharray="1,5" d="M787.4,-137.1C787.4,-98.11 787.4,-9 787.4,-9 787.4,-9 558.64,-9 558.64,-9"/>
<polygon fill="black" stroke="black" points="558.64,-5.5 548.64,-9 558.64,-12.5 558.64,-5.5"/>
</g>
<!-- :data:spotify&#45;&gt;:core:logging:api -->
<g id="edge35" class="edge">
<title>:data:spotify&#45;&gt;:core:logging:api</title>
<path fill="none" stroke="black" stroke-dasharray="1,5" d="M856.3,-146.43C856.3,-146.43 856.3,-35.54 856.3,-35.54"/>
<polygon fill="black" stroke="black" points="859.8,-35.54 856.3,-25.54 852.8,-35.54 859.8,-35.54"/>
</g>
</g>
</svg>
