<?xml version="1.0" encoding="UTF-8" standalone="no"?>
<!DOCTYPE svg PUBLIC "-//W3C//DTD SVG 1.1//EN"
 "http://www.w3.org/Graphics/SVG/1.1/DTD/svg11.dtd">
<!-- Generated by graphviz version 2.43.0 (0)
 -->
<!-- Title: %3 Pages: 1 -->
<svg width="540pt" height="550pt"
 viewBox="0.00 0.00 540.07 550.00" xmlns="http://www.w3.org/2000/svg" xmlns:xlink="http://www.w3.org/1999/xlink">
<g id="graph0" class="graph" transform="scale(1 1) rotate(0) translate(4 546)">
<title>%3</title>
<polygon fill="white" stroke="transparent" points="-4,4 -4,-546 536.07,-546 536.07,4 -4,4"/>
<text text-anchor="middle" x="266.04" y="-514" font-family="Times,serif" font-size="30.00">Dependents</text>
<text text-anchor="middle" x="266.04" y="-481" font-family="Times,serif" font-size="30.00"> </text>
<!-- :core:logging:api -->
<g id="node1" class="node">
<title>:core:logging:api</title>
<polygon fill="#b59aff" stroke="black" points="136,-252 0,-252 0,-216 136,-216 136,-252"/>
<text text-anchor="middle" x="68" y="-230.3" font-family="Times,serif" font-size="14.00">:core:logging:api</text>
</g>
<!-- :data:coverart -->
<g id="node2" class="node">
<title>:data:coverart</title>
<ellipse fill="#b59aff" stroke="black" cx="384.54" cy="-450" rx="76.09" ry="18"/>
<text text-anchor="middle" x="384.54" y="-446.3" font-family="Times,serif" font-size="14.00">:data:coverart</text>
</g>
<!-- :data:coverart&#45;&gt;:core:logging:api -->
<g id="edge1" class="edge">
<title>:data:coverart&#45;&gt;:core:logging:api</title>
<path fill="none" stroke="black" stroke-dasharray="1,5" d="M308.48,-450C205.38,-450 34,-450 34,-450 34,-450 34,-262.04 34,-262.04"/>
<polygon fill="black" stroke="black" points="37.5,-262.04 34,-252.04 30.5,-262.04 37.5,-262.04"/>
</g>
<!-- :data:wikimedia -->
<g id="node3" class="node">
<title>:data:wikimedia</title>
<ellipse fill="#b59aff" stroke="black" cx="384.54" cy="-396" rx="84.49" ry="18"/>
<text text-anchor="middle" x="384.54" y="-392.3" font-family="Times,serif" font-size="14.00">:data:wikimedia</text>
</g>
<!-- :data:wikimedia&#45;&gt;:core:logging:api -->
<g id="edge2" class="edge">
<title>:data:wikimedia&#45;&gt;:core:logging:api</title>
<path fill="none" stroke="black" stroke-dasharray="1,5" d="M299.71,-396C205.95,-396 68,-396 68,-396 68,-396 68,-262.27 68,-262.27"/>
<polygon fill="black" stroke="black" points="71.5,-262.27 68,-252.27 64.5,-262.27 71.5,-262.27"/>
</g>
<!-- :data:spotify -->
<g id="node4" class="node">
<title>:data:spotify</title>
<ellipse fill="#b59aff" stroke="black" cx="384.54" cy="-342" rx="68.79" ry="18"/>
<text text-anchor="middle" x="384.54" y="-338.3" font-family="Times,serif" font-size="14.00">:data:spotify</text>
</g>
<!-- :data:spotify&#45;&gt;:core:logging:api -->
<g id="edge3" class="edge">
<title>:data:spotify&#45;&gt;:core:logging:api</title>
<path fill="none" stroke="black" stroke-dasharray="1,5" d="M315.42,-342C231.78,-342 102,-342 102,-342 102,-342 102,-262.32 102,-262.32"/>
<polygon fill="black" stroke="black" points="105.5,-262.32 102,-252.32 98.5,-262.32 105.5,-262.32"/>
</g>
<!-- :data:musicbrainz -->
<g id="node5" class="node">
<title>:data:musicbrainz</title>
<ellipse fill="#b59aff" stroke="black" cx="384.54" cy="-288" rx="93.68" ry="18"/>
<text text-anchor="middle" x="384.54" y="-284.3" font-family="Times,serif" font-size="14.00">:data:musicbrainz</text>
</g>
<!-- :data:musicbrainz&#45;&gt;:core:logging:api -->
<g id="edge4" class="edge">
<title>:data:musicbrainz&#45;&gt;:core:logging:api</title>
<path fill="none" stroke="black" stroke-dasharray="1,5" d="M295,-282.48C295,-270.47 295,-243 295,-243 295,-243 146.11,-243 146.11,-243"/>
<polygon fill="black" stroke="black" points="146.11,-239.5 136.11,-243 146.11,-246.5 146.11,-239.5"/>
</g>
<!-- :data:repository -->
<g id="node6" class="node">
<title>:data:repository</title>
<ellipse fill="#b59aff" stroke="black" cx="384.54" cy="-234" rx="85.29" ry="18"/>
<text text-anchor="middle" x="384.54" y="-230.3" font-family="Times,serif" font-size="14.00">:data:repository</text>
</g>
<!-- :data:repository&#45;&gt;:core:logging:api -->
<g id="edge5" class="edge">
<title>:data:repository&#45;&gt;:core:logging:api</title>
<path fill="none" stroke="black" stroke-dasharray="1,5" d="M299.29,-234C299.29,-234 146.11,-234 146.11,-234"/>
<polygon fill="black" stroke="black" points="146.11,-230.5 136.11,-234 146.11,-237.5 146.11,-230.5"/>
</g>
<!-- :ui:common -->
<g id="node7" class="node">
<title>:ui:common</title>
<ellipse fill="#b59aff" stroke="black" cx="384.54" cy="-180" rx="64.19" ry="18"/>
<text text-anchor="middle" x="384.54" y="-176.3" font-family="Times,serif" font-size="14.00">:ui:common</text>
</g>
<!-- :ui:common&#45;&gt;:core:logging:api -->
<g id="edge6" class="edge">
<title>:ui:common&#45;&gt;:core:logging:api</title>
<path fill="none" stroke="black" stroke-dasharray="1,5" d="M320.07,-180C236.68,-180 102,-180 102,-180 102,-180 102,-205.72 102,-205.72"/>
<polygon fill="black" stroke="black" points="98.5,-205.72 102,-215.72 105.5,-205.72 98.5,-205.72"/>
</g>
<!-- :core:logging:implementation -->
<g id="node8" class="node">
<title>:core:logging:implementation</title>
<ellipse fill="#b59aff" stroke="black" cx="384.54" cy="-126" rx="147.57" ry="18"/>
<text text-anchor="middle" x="384.54" y="-122.3" font-family="Times,serif" font-size="14.00">:core:logging:implementation</text>
</g>
<!-- :core:logging:implementation&#45;&gt;:core:logging:api -->
<g id="edge7" class="edge">
<title>:core:logging:implementation&#45;&gt;:core:logging:api</title>
<path fill="none" stroke="black" stroke-dasharray="1,5" d="M263,-136.22C263,-161.52 263,-225 263,-225 263,-225 146.2,-225 146.2,-225"/>
<polygon fill="black" stroke="black" points="146.2,-221.5 136.2,-225 146.2,-228.5 146.2,-221.5"/>
</g>
<!-- :shared:feature:details -->
<g id="node9" class="node">
<title>:shared:feature:details</title>
<ellipse fill="#b59aff" stroke="black" cx="384.54" cy="-72" rx="116.18" ry="18"/>
<text text-anchor="middle" x="384.54" y="-68.3" font-family="Times,serif" font-size="14.00">:shared:feature:details</text>
</g>
<!-- :shared:feature:details&#45;&gt;:core:logging:api -->
<g id="edge8" class="edge">
<title>:shared:feature:details&#45;&gt;:core:logging:api</title>
<path fill="none" stroke="black" stroke-dasharray="1,5" d="M268.02,-72C177.76,-72 68,-72 68,-72 68,-72 68,-205.73 68,-205.73"/>
<polygon fill="black" stroke="black" points="64.5,-205.73 68,-215.73 71.5,-205.73 64.5,-205.73"/>
</g>
<!-- :data:common:network -->
<g id="node10" class="node">
<title>:data:common:network</title>
<ellipse fill="#b59aff" stroke="black" cx="384.54" cy="-18" rx="116.98" ry="18"/>
<text text-anchor="middle" x="384.54" y="-14.3" font-family="Times,serif" font-size="14.00">:data:common:network</text>
</g>
<!-- :data:common:network&#45;&gt;:core:logging:api -->
<g id="edge9" class="edge">
<title>:data:common:network&#45;&gt;:core:logging:api</title>
<path fill="none" stroke="black" stroke-dasharray="1,5" d="M267.33,-18C165.42,-18 34,-18 34,-18 34,-18 34,-205.96 34,-205.96"/>
<polygon fill="black" stroke="black" points="30.5,-205.96 34,-215.96 37.5,-205.96 30.5,-205.96"/>
</g>
</g>
</svg>
