<?xml version="1.0" encoding="UTF-8" standalone="no"?>
<!DOCTYPE svg PUBLIC "-//W3C//DTD SVG 1.1//EN"
 "http://www.w3.org/Graphics/SVG/1.1/DTD/svg11.dtd">
<!-- Generated by graphviz version 2.43.0 (0)
 -->
<!-- Title: %3 Pages: 1 -->
<svg width="540pt" height="496pt"
 viewBox="0.00 0.00 540.07 496.00" xmlns="http://www.w3.org/2000/svg" xmlns:xlink="http://www.w3.org/1999/xlink">
<g id="graph0" class="graph" transform="scale(1 1) rotate(0) translate(4 492)">
<title>%3</title>
<polygon fill="white" stroke="transparent" points="-4,4 -4,-492 536.07,-492 536.07,4 -4,4"/>
<text text-anchor="middle" x="266.04" y="-460" font-family="Times,serif" font-size="30.00">Dependents</text>
<text text-anchor="middle" x="266.04" y="-427" font-family="Times,serif" font-size="30.00"> </text>
<!-- :core:logging:api -->
<g id="node1" class="node">
<title>:core:logging:api</title>
<polygon fill="#b59aff" stroke="black" points="136,-225 0,-225 0,-189 136,-189 136,-225"/>
<text text-anchor="middle" x="68" y="-203.3" font-family="Times,serif" font-size="14.00">:core:logging:api</text>
</g>
<!-- :data:coverart -->
<g id="node2" class="node">
<title>:data:coverart</title>
<ellipse fill="#b59aff" stroke="black" cx="384.54" cy="-396" rx="76.09" ry="18"/>
<text text-anchor="middle" x="384.54" y="-392.3" font-family="Times,serif" font-size="14.00">:data:coverart</text>
</g>
<!-- :data:coverart&#45;&gt;:core:logging:api -->
<g id="edge1" class="edge">
<title>:data:coverart&#45;&gt;:core:logging:api</title>
<path fill="none" stroke="black" stroke-dasharray="1,5" d="M308.34,-396C208.23,-396 45,-396 45,-396 45,-396 45,-235.12 45,-235.12"/>
<polygon fill="black" stroke="black" points="48.5,-235.12 45,-225.12 41.5,-235.12 48.5,-235.12"/>
</g>
<!-- :data:spotify -->
<g id="node3" class="node">
<title>:data:spotify</title>
<ellipse fill="#b59aff" stroke="black" cx="384.54" cy="-342" rx="68.79" ry="18"/>
<text text-anchor="middle" x="384.54" y="-338.3" font-family="Times,serif" font-size="14.00">:data:spotify</text>
</g>
<!-- :data:spotify&#45;&gt;:core:logging:api -->
<g id="edge2" class="edge">
<title>:data:spotify&#45;&gt;:core:logging:api</title>
<path fill="none" stroke="black" stroke-dasharray="1,5" d="M315.48,-342C228.42,-342 90,-342 90,-342 90,-342 90,-235.21 90,-235.21"/>
<polygon fill="black" stroke="black" points="93.5,-235.21 90,-225.21 86.5,-235.21 93.5,-235.21"/>
</g>
<!-- :data:musicbrainz -->
<g id="node4" class="node">
<title>:data:musicbrainz</title>
<ellipse fill="#b59aff" stroke="black" cx="384.54" cy="-288" rx="93.68" ry="18"/>
<text text-anchor="middle" x="384.54" y="-284.3" font-family="Times,serif" font-size="14.00">:data:musicbrainz</text>
</g>
<!-- :data:musicbrainz&#45;&gt;:core:logging:api -->
<g id="edge3" class="edge">
<title>:data:musicbrainz&#45;&gt;:core:logging:api</title>
<path fill="none" stroke="black" stroke-dasharray="1,5" d="M295,-282.37C295,-266.41 295,-222 295,-222 295,-222 146.11,-222 146.11,-222"/>
<polygon fill="black" stroke="black" points="146.11,-218.5 136.11,-222 146.11,-225.5 146.11,-218.5"/>
</g>
<!-- :data:repository -->
<g id="node5" class="node">
<title>:data:repository</title>
<ellipse fill="#b59aff" stroke="black" cx="384.54" cy="-234" rx="85.29" ry="18"/>
<text text-anchor="middle" x="384.54" y="-230.3" font-family="Times,serif" font-size="14.00">:data:repository</text>
</g>
<!-- :data:repository&#45;&gt;:core:logging:api -->
<g id="edge4" class="edge">
<title>:data:repository&#45;&gt;:core:logging:api</title>
<path fill="none" stroke="black" stroke-dasharray="1,5" d="M337.15,-219C337.15,-219 146.25,-219 146.25,-219"/>
<polygon fill="black" stroke="black" points="146.25,-215.5 136.25,-219 146.25,-222.5 146.25,-215.5"/>
</g>
<!-- :ui:common -->
<g id="node6" class="node">
<title>:ui:common</title>
<ellipse fill="#b59aff" stroke="black" cx="384.54" cy="-180" rx="64.19" ry="18"/>
<text text-anchor="middle" x="384.54" y="-176.3" font-family="Times,serif" font-size="14.00">:ui:common</text>
</g>
<!-- :ui:common&#45;&gt;:core:logging:api -->
<g id="edge5" class="edge">
<title>:ui:common&#45;&gt;:core:logging:api</title>
<path fill="none" stroke="black" stroke-dasharray="1,5" d="M348.84,-195C348.84,-195 146.26,-195 146.26,-195"/>
<polygon fill="black" stroke="black" points="146.26,-191.5 136.26,-195 146.26,-198.5 146.26,-191.5"/>
</g>
<!-- :core:logging:implementation -->
<g id="node7" class="node">
<title>:core:logging:implementation</title>
<ellipse fill="#b59aff" stroke="black" cx="384.54" cy="-126" rx="147.57" ry="18"/>
<text text-anchor="middle" x="384.54" y="-122.3" font-family="Times,serif" font-size="14.00">:core:logging:implementation</text>
</g>
<!-- :core:logging:implementation&#45;&gt;:core:logging:api -->
<g id="edge6" class="edge">
<title>:core:logging:implementation&#45;&gt;:core:logging:api</title>
<path fill="none" stroke="black" stroke-dasharray="1,5" d="M263,-136.31C263,-154.88 263,-192 263,-192 263,-192 146.2,-192 146.2,-192"/>
<polygon fill="black" stroke="black" points="146.2,-188.5 136.2,-192 146.2,-195.5 146.2,-188.5"/>
</g>
<!-- :shared:feature:details -->
<g id="node8" class="node">
<title>:shared:feature:details</title>
<ellipse fill="#b59aff" stroke="black" cx="384.54" cy="-72" rx="116.18" ry="18"/>
<text text-anchor="middle" x="384.54" y="-68.3" font-family="Times,serif" font-size="14.00">:shared:feature:details</text>
</g>
<!-- :shared:feature:details&#45;&gt;:core:logging:api -->
<g id="edge7" class="edge">
<title>:shared:feature:details&#45;&gt;:core:logging:api</title>
<path fill="none" stroke="black" stroke-dasharray="1,5" d="M268.13,-72C185.8,-72 90,-72 90,-72 90,-72 90,-178.79 90,-178.79"/>
<polygon fill="black" stroke="black" points="86.5,-178.79 90,-188.79 93.5,-178.79 86.5,-178.79"/>
</g>
<!-- :data:common:network -->
<g id="node9" class="node">
<title>:data:common:network</title>
<ellipse fill="#b59aff" stroke="black" cx="384.54" cy="-18" rx="116.98" ry="18"/>
<text text-anchor="middle" x="384.54" y="-14.3" font-family="Times,serif" font-size="14.00">:data:common:network</text>
</g>
<!-- :data:common:network&#45;&gt;:core:logging:api -->
<g id="edge8" class="edge">
<title>:data:common:network&#45;&gt;:core:logging:api</title>
<path fill="none" stroke="black" stroke-dasharray="1,5" d="M267.21,-18C169.07,-18 45,-18 45,-18 45,-18 45,-178.88 45,-178.88"/>
<polygon fill="black" stroke="black" points="41.5,-178.88 45,-188.88 48.5,-178.88 41.5,-178.88"/>
</g>
</g>
</svg>
