<?xml version="1.0" encoding="UTF-8" standalone="no"?>
<!DOCTYPE svg PUBLIC "-//W3C//DTD SVG 1.1//EN"
 "http://www.w3.org/Graphics/SVG/1.1/DTD/svg11.dtd">
<!-- Generated by graphviz version 2.43.0 (0)
 -->
<!-- Title: %3 Pages: 1 -->
<svg width="540pt" height="712pt"
 viewBox="0.00 0.00 540.07 712.00" xmlns="http://www.w3.org/2000/svg" xmlns:xlink="http://www.w3.org/1999/xlink">
<g id="graph0" class="graph" transform="scale(1 1) rotate(0) translate(4 708)">
<title>%3</title>
<polygon fill="white" stroke="transparent" points="-4,4 -4,-708 536.07,-708 536.07,4 -4,4"/>
<text text-anchor="middle" x="266.04" y="-676" font-family="Times,serif" font-size="30.00">Dependents</text>
<text text-anchor="middle" x="266.04" y="-643" font-family="Times,serif" font-size="30.00"> </text>
<!-- :core:logging:api -->
<g id="node1" class="node">
<title>:core:logging:api</title>
<polygon fill="#b59aff" stroke="black" points="136,-333 0,-333 0,-297 136,-297 136,-333"/>
<text text-anchor="middle" x="68" y="-311.3" font-family="Times,serif" font-size="14.00">:core:logging:api</text>
</g>
<!-- :core:preferences -->
<g id="node2" class="node">
<title>:core:preferences</title>
<ellipse fill="#b59aff" stroke="black" cx="384.54" cy="-612" rx="91.78" ry="18"/>
<text text-anchor="middle" x="384.54" y="-608.3" font-family="Times,serif" font-size="14.00">:core:preferences</text>
</g>
<!-- :core:preferences&#45;&gt;:core:logging:api -->
<g id="edge1" class="edge">
<title>:core:preferences&#45;&gt;:core:logging:api</title>
<path fill="none" stroke="black" stroke-dasharray="1,5" d="M292.58,-612C185.18,-612 22,-612 22,-612 22,-612 22,-343.13 22,-343.13"/>
<polygon fill="black" stroke="black" points="25.5,-343.13 22,-333.13 18.5,-343.13 25.5,-343.13"/>
</g>
<!-- :data:coverart -->
<g id="node3" class="node">
<title>:data:coverart</title>
<ellipse fill="#b59aff" stroke="black" cx="384.54" cy="-558" rx="76.09" ry="18"/>
<text text-anchor="middle" x="384.54" y="-554.3" font-family="Times,serif" font-size="14.00">:data:coverart</text>
</g>
<!-- :data:coverart&#45;&gt;:core:logging:api -->
<g id="edge2" class="edge">
<title>:data:coverart&#45;&gt;:core:logging:api</title>
<path fill="none" stroke="black" stroke-dasharray="1,5" d="M308.34,-558C208.23,-558 45,-558 45,-558 45,-558 45,-343.26 45,-343.26"/>
<polygon fill="black" stroke="black" points="48.5,-343.26 45,-333.26 41.5,-343.26 48.5,-343.26"/>
</g>
<!-- :data:wikimedia -->
<g id="node4" class="node">
<title>:data:wikimedia</title>
<ellipse fill="#b59aff" stroke="black" cx="384.54" cy="-504" rx="84.49" ry="18"/>
<text text-anchor="middle" x="384.54" y="-500.3" font-family="Times,serif" font-size="14.00">:data:wikimedia</text>
</g>
<!-- :data:wikimedia&#45;&gt;:core:logging:api -->
<g id="edge3" class="edge">
<title>:data:wikimedia&#45;&gt;:core:logging:api</title>
<path fill="none" stroke="black" stroke-dasharray="1,5" d="M299.71,-504C205.95,-504 68,-504 68,-504 68,-504 68,-343.12 68,-343.12"/>
<polygon fill="black" stroke="black" points="71.5,-343.12 68,-333.12 64.5,-343.12 71.5,-343.12"/>
</g>
<!-- :data:spotify -->
<g id="node5" class="node">
<title>:data:spotify</title>
<ellipse fill="#b59aff" stroke="black" cx="384.54" cy="-450" rx="68.79" ry="18"/>
<text text-anchor="middle" x="384.54" y="-446.3" font-family="Times,serif" font-size="14.00">:data:spotify</text>
</g>
<!-- :data:spotify&#45;&gt;:core:logging:api -->
<g id="edge4" class="edge">
<title>:data:spotify&#45;&gt;:core:logging:api</title>
<path fill="none" stroke="black" stroke-dasharray="1,5" d="M315.48,-450C228.42,-450 90,-450 90,-450 90,-450 90,-343.21 90,-343.21"/>
<polygon fill="black" stroke="black" points="93.5,-343.21 90,-333.21 86.5,-343.21 93.5,-343.21"/>
</g>
<!-- :data:listenbrainz -->
<g id="node6" class="node">
<title>:data:listenbrainz</title>
<ellipse fill="#b59aff" stroke="black" cx="384.54" cy="-396" rx="92.08" ry="18"/>
<text text-anchor="middle" x="384.54" y="-392.3" font-family="Times,serif" font-size="14.00">:data:listenbrainz</text>
</g>
<!-- :data:listenbrainz&#45;&gt;:core:logging:api -->
<g id="edge5" class="edge">
<title>:data:listenbrainz&#45;&gt;:core:logging:api</title>
<path fill="none" stroke="black" stroke-dasharray="1,5" d="M292.23,-396C213.51,-396 113,-396 113,-396 113,-396 113,-343.38 113,-343.38"/>
<polygon fill="black" stroke="black" points="116.5,-343.38 113,-333.38 109.5,-343.38 116.5,-343.38"/>
</g>
<!-- :data:musicbrainz -->
<g id="node7" class="node">
<title>:data:musicbrainz</title>
<ellipse fill="#b59aff" stroke="black" cx="384.54" cy="-342" rx="93.68" ry="18"/>
<text text-anchor="middle" x="384.54" y="-338.3" font-family="Times,serif" font-size="14.00">:data:musicbrainz</text>
</g>
<!-- :data:musicbrainz&#45;&gt;:core:logging:api -->
<g id="edge6" class="edge">
<title>:data:musicbrainz&#45;&gt;:core:logging:api</title>
<path fill="none" stroke="black" stroke-dasharray="1,5" d="M322.38,-328.5C322.38,-328.5 146.05,-328.5 146.05,-328.5"/>
<polygon fill="black" stroke="black" points="146.05,-325 136.05,-328.5 146.05,-332 146.05,-325"/>
</g>
<!-- :data:repository -->
<g id="node8" class="node">
<title>:data:repository</title>
<ellipse fill="#b59aff" stroke="black" cx="384.54" cy="-288" rx="85.29" ry="18"/>
<text text-anchor="middle" x="384.54" y="-284.3" font-family="Times,serif" font-size="14.00">:data:repository</text>
</g>
<!-- :data:repository&#45;&gt;:core:logging:api -->
<g id="edge7" class="edge">
<title>:data:repository&#45;&gt;:core:logging:api</title>
<path fill="none" stroke="black" stroke-dasharray="1,5" d="M337.15,-303C337.15,-303 146.25,-303 146.25,-303"/>
<polygon fill="black" stroke="black" points="146.25,-299.5 136.25,-303 146.25,-306.5 146.25,-299.5"/>
</g>
<!-- :ui:common -->
<g id="node9" class="node">
<title>:ui:common</title>
<ellipse fill="#b59aff" stroke="black" cx="384.54" cy="-234" rx="64.19" ry="18"/>
<text text-anchor="middle" x="384.54" y="-230.3" font-family="Times,serif" font-size="14.00">:ui:common</text>
</g>
<!-- :ui:common&#45;&gt;:core:logging:api -->
<g id="edge8" class="edge">
<title>:ui:common&#45;&gt;:core:logging:api</title>
<path fill="none" stroke="black" stroke-dasharray="1,5" d="M320.05,-234C238.34,-234 108,-234 108,-234 108,-234 108,-286.62 108,-286.62"/>
<polygon fill="black" stroke="black" points="104.5,-286.62 108,-296.62 111.5,-286.62 104.5,-286.62"/>
</g>
<!-- :android:app -->
<g id="node10" class="node">
<title>:android:app</title>
<ellipse fill="#9affb5" stroke="black" cx="384.54" cy="-180" rx="69.59" ry="18"/>
<text text-anchor="middle" x="384.54" y="-176.3" font-family="Times,serif" font-size="14.00">:android:app</text>
</g>
<!-- :android:app&#45;&gt;:core:logging:api -->
<g id="edge9" class="edge">
<title>:android:app&#45;&gt;:core:logging:api</title>
<path fill="none" stroke="black" stroke-dasharray="1,5" d="M314.9,-180C225.28,-180 81,-180 81,-180 81,-180 81,-286.79 81,-286.79"/>
<polygon fill="black" stroke="black" points="77.5,-286.79 81,-296.79 84.5,-286.79 77.5,-286.79"/>
</g>
<!-- :core:logging:implementation -->
<g id="node11" class="node">
<title>:core:logging:implementation</title>
<ellipse fill="#b59aff" stroke="black" cx="384.54" cy="-126" rx="147.57" ry="18"/>
<text text-anchor="middle" x="384.54" y="-122.3" font-family="Times,serif" font-size="14.00">:core:logging:implementation</text>
</g>
<!-- :core:logging:implementation&#45;&gt;:core:logging:api -->
<g id="edge10" class="edge">
<title>:core:logging:implementation&#45;&gt;:core:logging:api</title>
<path fill="none" stroke="black" stroke-dasharray="1,5" d="M263,-136.36C263,-173.82 263,-300 263,-300 263,-300 146.2,-300 146.2,-300"/>
<polygon fill="black" stroke="black" points="146.2,-296.5 136.2,-300 146.2,-303.5 146.2,-296.5"/>
</g>
<!-- :shared:feature:details -->
<g id="node12" class="node">
<title>:shared:feature:details</title>
<ellipse fill="#b59aff" stroke="black" cx="384.54" cy="-72" rx="116.18" ry="18"/>
<text text-anchor="middle" x="384.54" y="-68.3" font-family="Times,serif" font-size="14.00">:shared:feature:details</text>
</g>
<!-- :shared:feature:details&#45;&gt;:core:logging:api -->
<g id="edge11" class="edge">
<title>:shared:feature:details&#45;&gt;:core:logging:api</title>
<path fill="none" stroke="black" stroke-dasharray="1,5" d="M268,-72C172.84,-72 54,-72 54,-72 54,-72 54,-286.74 54,-286.74"/>
<polygon fill="black" stroke="black" points="50.5,-286.74 54,-296.74 57.5,-286.74 50.5,-286.74"/>
</g>
<!-- :data:common:network -->
<g id="node13" class="node">
<title>:data:common:network</title>
<ellipse fill="#b59aff" stroke="black" cx="384.54" cy="-18" rx="116.98" ry="18"/>
<text text-anchor="middle" x="384.54" y="-14.3" font-family="Times,serif" font-size="14.00">:data:common:network</text>
</g>
<!-- :data:common:network&#45;&gt;:core:logging:api -->
<g id="edge12" class="edge">
<title>:data:common:network&#45;&gt;:core:logging:api</title>
<path fill="none" stroke="black" stroke-dasharray="1,5" d="M267.47,-18C163.19,-18 27,-18 27,-18 27,-18 27,-286.87 27,-286.87"/>
<polygon fill="black" stroke="black" points="23.5,-286.87 27,-296.87 30.5,-286.87 23.5,-286.87"/>
</g>
</g>
</svg>
