<?xml version="1.0" encoding="UTF-8" standalone="no"?>
<!DOCTYPE svg PUBLIC "-//W3C//DTD SVG 1.1//EN"
 "http://www.w3.org/Graphics/SVG/1.1/DTD/svg11.dtd">
<!-- Generated by graphviz version 2.43.0 (0)
 -->
<!-- Title: %3 Pages: 1 -->
<svg width="924pt" height="803pt"
 viewBox="0.00 0.00 923.74 803.00" xmlns="http://www.w3.org/2000/svg" xmlns:xlink="http://www.w3.org/1999/xlink">
<g id="graph0" class="graph" transform="scale(1 1) rotate(0) translate(4 799)">
<title>%3</title>
<polygon fill="white" stroke="transparent" points="-4,4 -4,-799 919.74,-799 919.74,4 -4,4"/>
<text text-anchor="middle" x="457.87" y="-767" font-family="Times,serif" font-size="30.00">Dependencies</text>
<text text-anchor="middle" x="457.87" y="-734" font-family="Times,serif" font-size="30.00"> </text>
<!-- :shared:feature:nowplaying -->
<g id="node1" class="node">
<title>:shared:feature:nowplaying</title>
<polygon fill="#b59aff" stroke="black" points="815.89,-721 603.89,-721 603.89,-685 815.89,-685 815.89,-721"/>
<text text-anchor="middle" x="709.89" y="-699.3" font-family="Times,serif" font-size="14.00">:shared:feature:nowplaying</text>
</g>
<!-- :ui:test:screenshot -->
<g id="node2" class="node">
<title>:ui:test:screenshot</title>
<ellipse fill="#9affb5" stroke="black" cx="818.89" cy="-429" rx="96.68" ry="18"/>
<text text-anchor="middle" x="818.89" y="-425.3" font-family="Times,serif" font-size="14.00">:ui:test:screenshot</text>
</g>
<!-- :shared:feature:nowplaying&#45;&gt;:ui:test:screenshot -->
<g id="edge1" class="edge">
<title>:shared:feature:nowplaying&#45;&gt;:ui:test:screenshot</title>
<path fill="none" stroke="#ff9ab1" stroke-dasharray="1,5" d="M795.07,-684.6C795.07,-684.6 795.07,-456.61 795.07,-456.61"/>
<polygon fill="#ff9ab1" stroke="#ff9ab1" points="798.57,-456.61 795.07,-446.61 791.57,-456.61 798.57,-456.61"/>
</g>
<!-- :ui:common -->
<g id="node3" class="node">
<title>:ui:common</title>
<ellipse fill="#b59aff" stroke="black" cx="709.89" cy="-566" rx="64.19" ry="18"/>
<text text-anchor="middle" x="709.89" y="-562.3" font-family="Times,serif" font-size="14.00">:ui:common</text>
</g>
<!-- :shared:feature:nowplaying&#45;&gt;:ui:common -->
<g id="edge2" class="edge">
<title>:shared:feature:nowplaying&#45;&gt;:ui:common</title>
<path fill="none" stroke="black" stroke-dasharray="1,5" d="M709.89,-684.81C709.89,-684.81 709.89,-594.27 709.89,-594.27"/>
<polygon fill="black" stroke="black" points="713.39,-594.27 709.89,-584.27 706.39,-594.27 713.39,-594.27"/>
</g>
<!-- :shared:domain -->
<g id="node4" class="node">
<title>:shared:domain</title>
<ellipse fill="#b59aff" stroke="black" cx="541.89" cy="-18" rx="82.59" ry="18"/>
<text text-anchor="middle" x="541.89" y="-14.3" font-family="Times,serif" font-size="14.00">:shared:domain</text>
</g>
<!-- :shared:feature:nowplaying&#45;&gt;:shared:domain -->
<g id="edge3" class="edge">
<title>:shared:feature:nowplaying&#45;&gt;:shared:domain</title>
<path fill="none" stroke="black" stroke-dasharray="1,5" d="M610.74,-684.68C610.74,-684.68 610.74,-38.21 610.74,-38.21"/>
<polygon fill="black" stroke="black" points="614.24,-38.21 610.74,-28.21 607.24,-38.21 614.24,-38.21"/>
</g>
<!-- :test:image -->
<g id="node5" class="node">
<title>:test:image</title>
<ellipse fill="#9affb5" stroke="black" cx="782.89" cy="-292" rx="63.09" ry="18"/>
<text text-anchor="middle" x="782.89" y="-288.3" font-family="Times,serif" font-size="14.00">:test:image</text>
</g>
<!-- :ui:test:screenshot&#45;&gt;:test:image -->
<g id="edge4" class="edge">
<title>:ui:test:screenshot&#45;&gt;:test:image</title>
<path fill="none" stroke="black" stroke-dasharray="1,5" d="M784,-412.2C784,-412.2 784,-320.25 784,-320.25"/>
<polygon fill="black" stroke="black" points="787.5,-320.25 784,-310.25 780.5,-320.25 787.5,-320.25"/>
</g>
<!-- :ui:common&#45;&gt;:ui:test:screenshot -->
<g id="edge7" class="edge">
<title>:ui:common&#45;&gt;:ui:test:screenshot</title>
<path fill="none" stroke="#ff9ab1" stroke-dasharray="1,5" d="M748.15,-551.34C748.15,-551.34 748.15,-451.55 748.15,-451.55"/>
<polygon fill="#ff9ab1" stroke="#ff9ab1" points="751.65,-451.55 748.15,-441.55 744.65,-451.55 751.65,-451.55"/>
</g>
<!-- :ui:common&#45;&gt;:shared:domain -->
<g id="edge8" class="edge">
<title>:ui:common&#45;&gt;:shared:domain</title>
<path fill="none" stroke="black" d="M649.1,-560C631.81,-560 617.59,-560 617.59,-560 617.59,-560 617.59,-35.25 617.59,-35.25"/>
<polygon fill="black" stroke="black" points="621.09,-35.25 617.59,-25.25 614.09,-35.25 621.09,-35.25"/>
</g>
<!-- :ui:common&#45;&gt;:test:image -->
<g id="edge5" class="edge">
<title>:ui:common&#45;&gt;:test:image</title>
<path fill="none" stroke="black" stroke-dasharray="1,5" d="M695.08,-548.44C695.08,-487.97 695.08,-292 695.08,-292 695.08,-292 709.54,-292 709.54,-292"/>
<polygon fill="black" stroke="black" points="709.54,-295.5 719.54,-292 709.54,-288.5 709.54,-295.5"/>
</g>
<!-- :test&#45;data -->
<g id="node6" class="node">
<title>:test&#45;data</title>
<ellipse fill="#b59aff" stroke="black" cx="341.89" cy="-429" rx="55.49" ry="18"/>
<text text-anchor="middle" x="341.89" y="-425.3" font-family="Times,serif" font-size="14.00">:test&#45;data</text>
</g>
<!-- :ui:common&#45;&gt;:test&#45;data -->
<g id="edge6" class="edge">
<title>:ui:common&#45;&gt;:test&#45;data</title>
<path fill="none" stroke="#ff9ab1" stroke-dasharray="1,5" d="M670.32,-551.6C670.32,-516.42 670.32,-429 670.32,-429 670.32,-429 407.23,-429 407.23,-429"/>
<polygon fill="#ff9ab1" stroke="#ff9ab1" points="407.23,-425.5 397.23,-429 407.23,-432.5 407.23,-425.5"/>
</g>
<!-- :core:logging:api -->
<g id="node7" class="node">
<title>:core:logging:api</title>
<ellipse fill="#b59aff" stroke="black" cx="150.89" cy="-18" rx="88.28" ry="18"/>
<text text-anchor="middle" x="150.89" y="-14.3" font-family="Times,serif" font-size="14.00">:core:logging:api</text>
</g>
<!-- :ui:common&#45;&gt;:core:logging:api -->
<g id="edge9" class="edge">
<title>:ui:common&#45;&gt;:core:logging:api</title>
<path fill="none" stroke="black" stroke-dasharray="1,5" d="M649.1,-572C503.5,-572 146.82,-572 146.82,-572 146.82,-572 146.82,-46.12 146.82,-46.12"/>
<polygon fill="black" stroke="black" points="150.32,-46.12 146.82,-36.12 143.32,-46.12 150.32,-46.12"/>
</g>
<!-- :test&#45;data&#45;&gt;:shared:domain -->
<g id="edge10" class="edge">
<title>:test&#45;data&#45;&gt;:shared:domain</title>
<path fill="none" stroke="black" stroke-dasharray="1,5" d="M317.12,-412.74C317.12,-337.54 317.12,-27 317.12,-27 317.12,-27 460.16,-27 460.16,-27"/>
<polygon fill="black" stroke="black" points="460.16,-30.5 470.16,-27 460.16,-23.5 460.16,-30.5"/>
</g>
<!-- :data:database -->
<g id="node8" class="node">
<title>:data:database</title>
<ellipse fill="#b59aff" stroke="black" cx="448.89" cy="-292" rx="79.09" ry="18"/>
<text text-anchor="middle" x="448.89" y="-288.3" font-family="Times,serif" font-size="14.00">:data:database</text>
</g>
<!-- :test&#45;data&#45;&gt;:data:database -->
<g id="edge11" class="edge">
<title>:test&#45;data&#45;&gt;:data:database</title>
<path fill="none" stroke="black" stroke-dasharray="1,5" d="M383.37,-416.84C383.37,-416.84 383.37,-312.42 383.37,-312.42"/>
<polygon fill="black" stroke="black" points="386.87,-312.42 383.37,-302.42 379.87,-312.42 386.87,-312.42"/>
</g>
<!-- :data:musicbrainz -->
<g id="node9" class="node">
<title>:data:musicbrainz</title>
<ellipse fill="#b59aff" stroke="black" cx="419.89" cy="-155" rx="93.68" ry="18"/>
<text text-anchor="middle" x="419.89" y="-151.3" font-family="Times,serif" font-size="14.00">:data:musicbrainz</text>
</g>
<!-- :test&#45;data&#45;&gt;:data:musicbrainz -->
<g id="edge12" class="edge">
<title>:test&#45;data&#45;&gt;:data:musicbrainz</title>
<path fill="none" stroke="black" stroke-dasharray="1,5" d="M347.95,-411.02C347.95,-411.02 347.95,-176.52 347.95,-176.52"/>
<polygon fill="black" stroke="black" points="351.45,-176.52 347.95,-166.52 344.45,-176.52 351.45,-176.52"/>
</g>
<!-- :data:coverart -->
<g id="node10" class="node">
<title>:data:coverart</title>
<ellipse fill="#b59aff" stroke="black" cx="231.89" cy="-155" rx="76.09" ry="18"/>
<text text-anchor="middle" x="231.89" y="-151.3" font-family="Times,serif" font-size="14.00">:data:coverart</text>
</g>
<!-- :test&#45;data&#45;&gt;:data:coverart -->
<g id="edge13" class="edge">
<title>:test&#45;data&#45;&gt;:data:coverart</title>
<path fill="none" stroke="black" stroke-dasharray="1,5" d="M297.29,-418.26C297.29,-418.26 297.29,-174.23 297.29,-174.23"/>
<polygon fill="black" stroke="black" points="300.79,-174.23 297.29,-164.23 293.79,-174.23 300.79,-174.23"/>
</g>
<!-- :data:spotify -->
<g id="node11" class="node">
<title>:data:spotify</title>
<ellipse fill="#b59aff" stroke="black" cx="68.89" cy="-155" rx="68.79" ry="18"/>
<text text-anchor="middle" x="68.89" y="-151.3" font-family="Times,serif" font-size="14.00">:data:spotify</text>
</g>
<!-- :test&#45;data&#45;&gt;:data:spotify -->
<g id="edge14" class="edge">
<title>:test&#45;data&#45;&gt;:data:spotify</title>
<path fill="none" stroke="black" stroke-dasharray="1,5" d="M289.66,-435C204.7,-435 45.93,-435 45.93,-435 45.93,-435 45.93,-182.09 45.93,-182.09"/>
<polygon fill="black" stroke="black" points="49.43,-182.09 45.93,-172.09 42.43,-182.09 49.43,-182.09"/>
</g>
<!-- :data:database&#45;&gt;:shared:domain -->
<g id="edge15" class="edge">
<title>:data:database&#45;&gt;:shared:domain</title>
<path fill="none" stroke="black" stroke-dasharray="1,5" d="M520.84,-284.39C520.84,-284.39 520.84,-45.66 520.84,-45.66"/>
<polygon fill="black" stroke="black" points="524.34,-45.66 520.84,-35.66 517.34,-45.66 524.34,-45.66"/>
</g>
<!-- :data:database&#45;&gt;:data:musicbrainz -->
<g id="edge16" class="edge">
<title>:data:database&#45;&gt;:data:musicbrainz</title>
<path fill="none" stroke="black" stroke-dasharray="1,5" d="M441.54,-273.81C441.54,-273.81 441.54,-182.83 441.54,-182.83"/>
<polygon fill="black" stroke="black" points="445.04,-182.83 441.54,-172.83 438.04,-182.83 445.04,-182.83"/>
</g>
<!-- :data:musicbrainz&#45;&gt;:shared:domain -->
<g id="edge17" class="edge">
<title>:data:musicbrainz&#45;&gt;:shared:domain</title>
<path fill="none" stroke="black" stroke-dasharray="1,5" d="M495.44,-144.25C495.44,-144.25 495.44,-43.18 495.44,-43.18"/>
<polygon fill="black" stroke="black" points="498.94,-43.18 495.44,-33.18 491.94,-43.18 498.94,-43.18"/>
</g>
<!-- :data:musicbrainz&#45;&gt;:core:logging:api -->
<g id="edge18" class="edge">
<title>:data:musicbrainz&#45;&gt;:core:logging:api</title>
<path fill="none" stroke="black" stroke-dasharray="1,5" d="M392.83,-137.68C392.83,-99 392.83,-9 392.83,-9 392.83,-9 237.78,-9 237.78,-9"/>
<polygon fill="black" stroke="black" points="237.78,-5.5 227.78,-9 237.78,-12.5 237.78,-5.5"/>
</g>
<!-- :data:coverart&#45;&gt;:shared:domain -->
<g id="edge19" class="edge">
<title>:data:coverart&#45;&gt;:shared:domain</title>
<path fill="none" stroke="black" stroke-dasharray="1,5" d="M273.61,-139.82C273.61,-104.15 273.61,-18 273.61,-18 273.61,-18 449.21,-18 449.21,-18"/>
<polygon fill="black" stroke="black" points="449.21,-21.5 459.21,-18 449.21,-14.5 449.21,-21.5"/>
</g>
<!-- :data:coverart&#45;&gt;:core:logging:api -->
<g id="edge20" class="edge">
<title>:data:coverart&#45;&gt;:core:logging:api</title>
<path fill="none" stroke="black" stroke-dasharray="1,5" d="M197.57,-138.75C197.57,-138.75 197.57,-43.39 197.57,-43.39"/>
<polygon fill="black" stroke="black" points="201.07,-43.39 197.57,-33.39 194.07,-43.39 201.07,-43.39"/>
</g>
<!-- :data:spotify&#45;&gt;:shared:domain -->
<g id="edge21" class="edge">
<title>:data:spotify&#45;&gt;:shared:domain</title>
<path fill="none" stroke="black" stroke-dasharray="1,5" d="M112.69,-141.04C112.69,-120.87 112.69,-86 112.69,-86 112.69,-86 477.4,-86 477.4,-86 477.4,-86 477.4,-39.54 477.4,-39.54"/>
<polygon fill="black" stroke="black" points="480.9,-39.54 477.4,-29.54 473.9,-39.54 480.9,-39.54"/>
</g>
<!-- :data:spotify&#45;&gt;:test&#45;data -->
<g id="edge23" class="edge">
<title>:data:spotify&#45;&gt;:test&#45;data</title>
<path fill="none" stroke="#ff9ab1" stroke-dasharray="1,5" d="M91.86,-172.17C91.86,-231.32 91.86,-423 91.86,-423 91.86,-423 279.78,-423 279.78,-423"/>
<polygon fill="#ff9ab1" stroke="#ff9ab1" points="279.78,-426.5 289.78,-423 279.78,-419.5 279.78,-426.5"/>
</g>
<!-- :data:spotify&#45;&gt;:core:logging:api -->
<g id="edge22" class="edge">
<title>:data:spotify&#45;&gt;:core:logging:api</title>
<path fill="none" stroke="black" stroke-dasharray="1,5" d="M87.6,-137.65C87.6,-137.65 87.6,-40.74 87.6,-40.74"/>
<polygon fill="black" stroke="black" points="91.1,-40.74 87.6,-30.74 84.1,-40.74 91.1,-40.74"/>
</g>
</g>
</svg>
