<?xml version="1.0" encoding="UTF-8" standalone="no"?>
<!DOCTYPE svg PUBLIC "-//W3C//DTD SVG 1.1//EN"
 "http://www.w3.org/Graphics/SVG/1.1/DTD/svg11.dtd">
<!-- Generated by graphviz version 2.43.0 (0)
 -->
<!-- Title: %3 Pages: 1 -->
<svg width="1134pt" height="940pt"
 viewBox="0.00 0.00 1134.34 940.00" xmlns="http://www.w3.org/2000/svg" xmlns:xlink="http://www.w3.org/1999/xlink">
<g id="graph0" class="graph" transform="scale(1 1) rotate(0) translate(4 936)">
<title>%3</title>
<polygon fill="white" stroke="transparent" points="-4,4 -4,-936 1130.34,-936 1130.34,4 -4,4"/>
<text text-anchor="middle" x="563.17" y="-904" font-family="Times,serif" font-size="30.00">Dependencies</text>
<text text-anchor="middle" x="563.17" y="-871" font-family="Times,serif" font-size="30.00"> </text>
<!-- :shared:feature:graph -->
<g id="node1" class="node">
<title>:shared:feature:graph</title>
<polygon fill="#b59aff" stroke="black" points="425.45,-858 252.45,-858 252.45,-822 425.45,-822 425.45,-858"/>
<text text-anchor="middle" x="338.95" y="-836.3" font-family="Times,serif" font-size="14.00">:shared:feature:graph</text>
</g>
<!-- :ui:test:screenshot -->
<g id="node2" class="node">
<title>:ui:test:screenshot</title>
<ellipse fill="#9affb5" stroke="black" cx="222.95" cy="-566" rx="96.68" ry="18"/>
<text text-anchor="middle" x="222.95" y="-562.3" font-family="Times,serif" font-size="14.00">:ui:test:screenshot</text>
</g>
<!-- :shared:feature:graph&#45;&gt;:ui:test:screenshot -->
<g id="edge1" class="edge">
<title>:shared:feature:graph&#45;&gt;:ui:test:screenshot</title>
<path fill="none" stroke="#ff9ab1" stroke-dasharray="1,5" d="M286.12,-821.6C286.12,-821.6 286.12,-589.91 286.12,-589.91"/>
<polygon fill="#ff9ab1" stroke="#ff9ab1" points="289.62,-589.91 286.12,-579.91 282.62,-589.91 289.62,-589.91"/>
</g>
<!-- :ui:common -->
<g id="node3" class="node">
<title>:ui:common</title>
<ellipse fill="#b59aff" stroke="black" cx="385.95" cy="-703" rx="64.19" ry="18"/>
<text text-anchor="middle" x="385.95" y="-699.3" font-family="Times,serif" font-size="14.00">:ui:common</text>
</g>
<!-- :shared:feature:graph&#45;&gt;:ui:common -->
<g id="edge2" class="edge">
<title>:shared:feature:graph&#45;&gt;:ui:common</title>
<path fill="none" stroke="black" stroke-dasharray="1,5" d="M373.52,-821.81C373.52,-821.81 373.52,-730.83 373.52,-730.83"/>
<polygon fill="black" stroke="black" points="377.02,-730.83 373.52,-720.83 370.02,-730.83 377.02,-730.83"/>
</g>
<!-- :shared:domain -->
<g id="node4" class="node">
<title>:shared:domain</title>
<ellipse fill="#b59aff" stroke="black" cx="668.95" cy="-18" rx="82.59" ry="18"/>
<text text-anchor="middle" x="668.95" y="-14.3" font-family="Times,serif" font-size="14.00">:shared:domain</text>
</g>
<!-- :shared:feature:graph&#45;&gt;:shared:domain -->
<g id="edge3" class="edge">
<title>:shared:feature:graph&#45;&gt;:shared:domain</title>
<path fill="none" stroke="black" stroke-dasharray="1,5" d="M425.53,-840C586.4,-840 915.21,-840 915.21,-840 915.21,-840 915.21,-21 915.21,-21 915.21,-21 760.61,-21 760.61,-21"/>
<polygon fill="black" stroke="black" points="760.61,-17.5 750.61,-21 760.61,-24.5 760.61,-17.5"/>
</g>
<!-- :ui:image -->
<g id="node5" class="node">
<title>:ui:image</title>
<ellipse fill="#b59aff" stroke="black" cx="53.95" cy="-566" rx="53.89" ry="18"/>
<text text-anchor="middle" x="53.95" y="-562.3" font-family="Times,serif" font-size="14.00">:ui:image</text>
</g>
<!-- :shared:feature:graph&#45;&gt;:ui:image -->
<g id="edge4" class="edge">
<title>:shared:feature:graph&#45;&gt;:ui:image</title>
<path fill="none" stroke="black" stroke-dasharray="1,5" d="M252.12,-840C162.59,-840 35.96,-840 35.96,-840 35.96,-840 35.96,-593.14 35.96,-593.14"/>
<polygon fill="black" stroke="black" points="39.46,-593.14 35.96,-583.14 32.46,-593.14 39.46,-593.14"/>
</g>
<!-- :ui:core -->
<g id="node6" class="node">
<title>:ui:core</title>
<ellipse fill="#b59aff" stroke="black" cx="165.95" cy="-429" rx="45.49" ry="18"/>
<text text-anchor="middle" x="165.95" y="-425.3" font-family="Times,serif" font-size="14.00">:ui:core</text>
</g>
<!-- :ui:test:screenshot&#45;&gt;:ui:core -->
<g id="edge5" class="edge">
<title>:ui:test:screenshot&#45;&gt;:ui:core</title>
<path fill="none" stroke="black" stroke-dasharray="1,5" d="M154.55,-553.11C154.55,-553.11 154.55,-456.66 154.55,-456.66"/>
<polygon fill="black" stroke="black" points="158.05,-456.66 154.55,-446.66 151.05,-456.66 158.05,-456.66"/>
</g>
<!-- :test:image -->
<g id="node7" class="node">
<title>:test:image</title>
<ellipse fill="#9affb5" stroke="black" cx="292.95" cy="-429" rx="63.09" ry="18"/>
<text text-anchor="middle" x="292.95" y="-425.3" font-family="Times,serif" font-size="14.00">:test:image</text>
</g>
<!-- :ui:test:screenshot&#45;&gt;:test:image -->
<g id="edge6" class="edge">
<title>:ui:test:screenshot&#45;&gt;:test:image</title>
<path fill="none" stroke="black" stroke-dasharray="1,5" d="M274.84,-550.55C274.84,-550.55 274.84,-456.33 274.84,-456.33"/>
<polygon fill="black" stroke="black" points="278.34,-456.33 274.84,-446.33 271.34,-456.33 278.34,-456.33"/>
</g>
<!-- :ui:common&#45;&gt;:ui:test:screenshot -->
<g id="edge8" class="edge">
<title>:ui:common&#45;&gt;:ui:test:screenshot</title>
<path fill="none" stroke="#ff9ab1" stroke-dasharray="1,5" d="M333.06,-692.5C333.06,-659.02 333.06,-557 333.06,-557 333.06,-557 316.97,-557 316.97,-557"/>
<polygon fill="#ff9ab1" stroke="#ff9ab1" points="316.97,-553.5 306.97,-557 316.97,-560.5 316.97,-553.5"/>
</g>
<!-- :ui:common&#45;&gt;:shared:domain -->
<g id="edge10" class="edge">
<title>:ui:common&#45;&gt;:shared:domain</title>
<path fill="none" stroke="black" d="M379.56,-684.84C379.56,-576.86 379.56,-24 379.56,-24 379.56,-24 581.02,-24 581.02,-24"/>
<polygon fill="black" stroke="black" points="581.02,-27.5 591.02,-24 581.02,-20.5 581.02,-27.5"/>
</g>
<!-- :ui:common&#45;&gt;:ui:image -->
<g id="edge13" class="edge">
<title>:ui:common&#45;&gt;:ui:image</title>
<path fill="none" stroke="black" stroke-dasharray="1,5" d="M321.26,-703C229.34,-703 71.93,-703 71.93,-703 71.93,-703 71.93,-593.07 71.93,-593.07"/>
<polygon fill="black" stroke="black" points="75.43,-593.07 71.93,-583.07 68.43,-593.07 75.43,-593.07"/>
</g>
<!-- :ui:common&#45;&gt;:ui:core -->
<g id="edge11" class="edge">
<title>:ui:common&#45;&gt;:ui:core</title>
<path fill="none" stroke="black" d="M344.53,-689.16C344.53,-642.98 344.53,-497 344.53,-497 344.53,-497 183,-497 183,-497 183,-497 183,-455.81 183,-455.81"/>
<polygon fill="black" stroke="black" points="186.5,-455.81 183,-445.81 179.5,-455.81 186.5,-455.81"/>
</g>
<!-- :test&#45;data -->
<g id="node8" class="node">
<title>:test&#45;data</title>
<ellipse fill="#b59aff" stroke="black" cx="671.95" cy="-566" rx="55.49" ry="18"/>
<text text-anchor="middle" x="671.95" y="-562.3" font-family="Times,serif" font-size="14.00">:test&#45;data</text>
</g>
<!-- :ui:common&#45;&gt;:test&#45;data -->
<g id="edge7" class="edge">
<title>:ui:common&#45;&gt;:test&#45;data</title>
<path fill="none" stroke="#ff9ab1" stroke-dasharray="1,5" d="M426.71,-688.81C426.71,-655.49 426.71,-575 426.71,-575 426.71,-575 614.08,-575 614.08,-575"/>
<polygon fill="#ff9ab1" stroke="#ff9ab1" points="614.08,-578.5 624.08,-575 614.08,-571.5 614.08,-578.5"/>
</g>
<!-- :core:coroutines -->
<g id="node9" class="node">
<title>:core:coroutines</title>
<ellipse fill="#b59aff" stroke="black" cx="536.95" cy="-155" rx="85.29" ry="18"/>
<text text-anchor="middle" x="536.95" y="-151.3" font-family="Times,serif" font-size="14.00">:core:coroutines</text>
</g>
<!-- :ui:common&#45;&gt;:core:coroutines -->
<g id="edge9" class="edge">
<title>:ui:common&#45;&gt;:core:coroutines</title>
<path fill="none" stroke="#ff9ab1" stroke-dasharray="1,5" d="M403.14,-685.39C403.14,-591.59 403.14,-155 403.14,-155 403.14,-155 441.45,-155 441.45,-155"/>
<polygon fill="#ff9ab1" stroke="#ff9ab1" points="441.45,-158.5 451.45,-155 441.45,-151.5 441.45,-158.5"/>
</g>
<!-- :core:logging:api -->
<g id="node10" class="node">
<title>:core:logging:api</title>
<ellipse fill="#b59aff" stroke="black" cx="1037.95" cy="-18" rx="88.28" ry="18"/>
<text text-anchor="middle" x="1037.95" y="-14.3" font-family="Times,serif" font-size="14.00">:core:logging:api</text>
</g>
<!-- :ui:common&#45;&gt;:core:logging:api -->
<g id="edge12" class="edge">
<title>:ui:common&#45;&gt;:core:logging:api</title>
<path fill="none" stroke="black" stroke-dasharray="1,5" d="M446.84,-709C620.18,-709 1103.84,-709 1103.84,-709 1103.84,-709 1103.84,-40.29 1103.84,-40.29"/>
<polygon fill="black" stroke="black" points="1107.34,-40.29 1103.84,-30.29 1100.34,-40.29 1107.34,-40.29"/>
</g>
<!-- :data:musicbrainz -->
<g id="node11" class="node">
<title>:data:musicbrainz</title>
<ellipse fill="#b59aff" stroke="black" cx="809.95" cy="-155" rx="93.68" ry="18"/>
<text text-anchor="middle" x="809.95" y="-151.3" font-family="Times,serif" font-size="14.00">:data:musicbrainz</text>
</g>
<!-- :ui:common&#45;&gt;:data:musicbrainz -->
<g id="edge14" class="edge">
<title>:ui:common&#45;&gt;:data:musicbrainz</title>
<path fill="none" stroke="black" stroke-dasharray="1,5" d="M446.64,-697C576.38,-697 869.02,-697 869.02,-697 869.02,-697 869.02,-179.22 869.02,-179.22"/>
<polygon fill="black" stroke="black" points="872.52,-179.22 869.02,-169.22 865.52,-179.22 872.52,-179.22"/>
</g>
<!-- :ui:image&#45;&gt;:shared:domain -->
<g id="edge15" class="edge">
<title>:ui:image&#45;&gt;:shared:domain</title>
<path fill="none" stroke="black" stroke-dasharray="1,5" d="M42.35,-548.19C42.35,-453.37 42.35,-12 42.35,-12 42.35,-12 580.85,-12 580.85,-12"/>
<polygon fill="black" stroke="black" points="580.85,-15.5 590.85,-12 580.85,-8.5 580.85,-15.5"/>
</g>
<!-- :ui:image&#45;&gt;:ui:core -->
<g id="edge16" class="edge">
<title>:ui:image&#45;&gt;:ui:core</title>
<path fill="none" stroke="black" stroke-dasharray="1,5" d="M96.3,-554.79C96.3,-522.07 96.3,-429 96.3,-429 96.3,-429 110.27,-429 110.27,-429"/>
<polygon fill="black" stroke="black" points="110.27,-432.5 120.27,-429 110.27,-425.5 110.27,-432.5"/>
</g>
<!-- :shared:strings -->
<g id="node12" class="node">
<title>:shared:strings</title>
<ellipse fill="#b59aff" stroke="black" cx="165.95" cy="-292" rx="81.49" ry="18"/>
<text text-anchor="middle" x="165.95" y="-288.3" font-family="Times,serif" font-size="14.00">:shared:strings</text>
</g>
<!-- :ui:core&#45;&gt;:shared:strings -->
<g id="edge17" class="edge">
<title>:ui:core&#45;&gt;:shared:strings</title>
<path fill="none" stroke="black" d="M165.95,-410.81C165.95,-410.81 165.95,-320.27 165.95,-320.27"/>
<polygon fill="black" stroke="black" points="169.45,-320.27 165.95,-310.27 162.45,-320.27 169.45,-320.27"/>
</g>
<!-- :test&#45;data&#45;&gt;:shared:domain -->
<g id="edge18" class="edge">
<title>:test&#45;data&#45;&gt;:shared:domain</title>
<path fill="none" stroke="black" stroke-dasharray="1,5" d="M727.31,-566C797.47,-566 909.38,-566 909.38,-566 909.38,-566 909.38,-28 909.38,-28 909.38,-28 747.84,-28 747.84,-28"/>
<polygon fill="black" stroke="black" points="747.84,-24.5 737.84,-28 747.84,-31.5 747.84,-24.5"/>
</g>
<!-- :test&#45;data&#45;&gt;:core:coroutines -->
<g id="edge19" class="edge">
<title>:test&#45;data&#45;&gt;:core:coroutines</title>
<path fill="none" stroke="black" stroke-dasharray="1,5" d="M616.29,-566C562.71,-566 489.75,-566 489.75,-566 489.75,-566 489.75,-180.12 489.75,-180.12"/>
<polygon fill="black" stroke="black" points="493.25,-180.12 489.75,-170.12 486.25,-180.12 493.25,-180.12"/>
</g>
<!-- :test&#45;data&#45;&gt;:data:musicbrainz -->
<g id="edge21" class="edge">
<title>:test&#45;data&#45;&gt;:data:musicbrainz</title>
<path fill="none" stroke="black" stroke-dasharray="1,5" d="M719.84,-557C767.79,-557 834.5,-557 834.5,-557 834.5,-557 834.5,-182.53 834.5,-182.53"/>
<polygon fill="black" stroke="black" points="838,-182.53 834.5,-172.53 831,-182.53 838,-182.53"/>
</g>
<!-- :data:database -->
<g id="node13" class="node">
<title>:data:database</title>
<ellipse fill="#b59aff" stroke="black" cx="644.95" cy="-292" rx="79.09" ry="18"/>
<text text-anchor="middle" x="644.95" y="-288.3" font-family="Times,serif" font-size="14.00">:data:database</text>
</g>
<!-- :test&#45;data&#45;&gt;:data:database -->
<g id="edge20" class="edge">
<title>:test&#45;data&#45;&gt;:data:database</title>
<path fill="none" stroke="black" stroke-dasharray="1,5" d="M632.3,-553.15C632.3,-553.15 632.3,-319.96 632.3,-319.96"/>
<polygon fill="black" stroke="black" points="635.8,-319.96 632.3,-309.96 628.8,-319.96 635.8,-319.96"/>
</g>
<!-- :data:coverart -->
<g id="node14" class="node">
<title>:data:coverart</title>
<ellipse fill="#b59aff" stroke="black" cx="723.95" cy="-429" rx="76.09" ry="18"/>
<text text-anchor="middle" x="723.95" y="-425.3" font-family="Times,serif" font-size="14.00">:data:coverart</text>
</g>
<!-- :test&#45;data&#45;&gt;:data:coverart -->
<g id="edge22" class="edge">
<title>:test&#45;data&#45;&gt;:data:coverart</title>
<path fill="none" stroke="black" stroke-dasharray="1,5" d="M674.33,-547.81C674.33,-547.81 674.33,-452.71 674.33,-452.71"/>
<polygon fill="black" stroke="black" points="677.83,-452.71 674.33,-442.71 670.83,-452.71 677.83,-452.71"/>
</g>
<!-- :data:spotify -->
<g id="node15" class="node">
<title>:data:spotify</title>
<ellipse fill="#b59aff" stroke="black" cx="989.95" cy="-155" rx="68.79" ry="18"/>
<text text-anchor="middle" x="989.95" y="-151.3" font-family="Times,serif" font-size="14.00">:data:spotify</text>
</g>
<!-- :test&#45;data&#45;&gt;:data:spotify -->
<g id="edge23" class="edge">
<title>:test&#45;data&#45;&gt;:data:spotify</title>
<path fill="none" stroke="black" stroke-dasharray="1,5" d="M719.9,-575C808.73,-575 989.95,-575 989.95,-575 989.95,-575 989.95,-183.05 989.95,-183.05"/>
<polygon fill="black" stroke="black" points="993.45,-183.05 989.95,-173.05 986.45,-183.05 993.45,-183.05"/>
</g>
<!-- :data:musicbrainz&#45;&gt;:shared:domain -->
<g id="edge24" class="edge">
<title>:data:musicbrainz&#45;&gt;:shared:domain</title>
<path fill="none" stroke="black" stroke-dasharray="1,5" d="M733.92,-144.25C733.92,-144.25 733.92,-39.47 733.92,-39.47"/>
<polygon fill="black" stroke="black" points="737.42,-39.47 733.92,-29.47 730.42,-39.47 737.42,-39.47"/>
</g>
<!-- :data:musicbrainz&#45;&gt;:core:logging:api -->
<g id="edge25" class="edge">
<title>:data:musicbrainz&#45;&gt;:core:logging:api</title>
<path fill="none" stroke="black" stroke-dasharray="1,5" d="M827.51,-137.15C827.51,-97.78 827.51,-7 827.51,-7 827.51,-7 957.87,-7 957.87,-7"/>
<polygon fill="black" stroke="black" points="957.87,-10.5 967.87,-7 957.87,-3.5 957.87,-10.5"/>
</g>
<!-- :data:database&#45;&gt;:shared:domain -->
<g id="edge26" class="edge">
<title>:data:database&#45;&gt;:shared:domain</title>
<path fill="none" stroke="black" stroke-dasharray="1,5" d="M653.51,-274.02C653.51,-274.02 653.51,-45.69 653.51,-45.69"/>
<polygon fill="black" stroke="black" points="657.01,-45.69 653.51,-35.69 650.01,-45.69 657.01,-45.69"/>
</g>
<!-- :data:database&#45;&gt;:core:coroutines -->
<g id="edge27" class="edge">
<title>:data:database&#45;&gt;:core:coroutines</title>
<path fill="none" stroke="black" stroke-dasharray="1,5" d="M593.87,-278.11C593.87,-278.11 593.87,-178.52 593.87,-178.52"/>
<polygon fill="black" stroke="black" points="597.37,-178.52 593.87,-168.52 590.37,-178.52 597.37,-178.52"/>
</g>
<!-- :data:database&#45;&gt;:data:musicbrainz -->
<g id="edge28" class="edge">
<title>:data:database&#45;&gt;:data:musicbrainz</title>
<path fill="none" stroke="black" stroke-dasharray="1,5" d="M720.3,-286.11C720.3,-286.11 720.3,-170.41 720.3,-170.41"/>
<polygon fill="black" stroke="black" points="723.8,-170.41 720.3,-160.41 716.8,-170.41 723.8,-170.41"/>
</g>
<!-- :data:coverart&#45;&gt;:shared:domain -->
<g id="edge29" class="edge">
<title>:data:coverart&#45;&gt;:shared:domain</title>
<path fill="none" stroke="black" stroke-dasharray="1,5" d="M749.49,-411.79C749.49,-362.28 749.49,-223 749.49,-223 749.49,-223 684.93,-223 684.93,-223 684.93,-223 684.93,-45.83 684.93,-45.83"/>
<polygon fill="black" stroke="black" points="688.43,-45.83 684.93,-35.83 681.43,-45.83 688.43,-45.83"/>
</g>
<!-- :data:coverart&#45;&gt;:test&#45;data -->
<g id="edge32" class="edge">
<title>:data:coverart&#45;&gt;:test&#45;data</title>
<path fill="none" stroke="#ff9ab1" stroke-dasharray="1,5" d="M700.76,-446.35C700.76,-446.35 700.76,-540.48 700.76,-540.48"/>
<polygon fill="#ff9ab1" stroke="#ff9ab1" points="697.26,-540.48 700.76,-550.48 704.26,-540.48 697.26,-540.48"/>
</g>
<!-- :data:coverart&#45;&gt;:core:coroutines -->
<g id="edge31" class="edge">
<title>:data:coverart&#45;&gt;:core:coroutines</title>
<path fill="none" stroke="black" stroke-dasharray="1,5" d="M647.79,-429C592.63,-429 527.7,-429 527.7,-429 527.7,-429 527.7,-182.98 527.7,-182.98"/>
<polygon fill="black" stroke="black" points="531.2,-182.98 527.7,-172.98 524.2,-182.98 531.2,-182.98"/>
</g>
<!-- :data:coverart&#45;&gt;:core:logging:api -->
<g id="edge30" class="edge">
<title>:data:coverart&#45;&gt;:core:logging:api</title>
<path fill="none" stroke="black" stroke-dasharray="1,5" d="M800.18,-429C905.14,-429 1081.34,-429 1081.34,-429 1081.34,-429 1081.34,-43.86 1081.34,-43.86"/>
<polygon fill="black" stroke="black" points="1084.84,-43.86 1081.34,-33.86 1077.84,-43.86 1084.84,-43.86"/>
</g>
<!-- :data:coverart&#45;&gt;:data:musicbrainz -->
<g id="edge33" class="edge">
<title>:data:coverart&#45;&gt;:data:musicbrainz</title>
<path fill="none" stroke="#ff9ab1" stroke-dasharray="1,5" d="M774.74,-415.41C774.74,-415.41 774.74,-181.73 774.74,-181.73"/>
<polygon fill="#ff9ab1" stroke="#ff9ab1" points="778.24,-181.73 774.74,-171.73 771.24,-181.73 778.24,-181.73"/>
</g>
<!-- :data:coverart&#45;&gt;:data:database -->
<g id="edge34" class="edge">
<title>:data:coverart&#45;&gt;:data:database</title>
<path fill="none" stroke="#ff9ab1" stroke-dasharray="1,5" d="M686.07,-413.28C686.07,-413.28 686.07,-317.53 686.07,-317.53"/>
<polygon fill="#ff9ab1" stroke="#ff9ab1" points="689.57,-317.53 686.07,-307.53 682.57,-317.53 689.57,-317.53"/>
</g>
<!-- :data:spotify&#45;&gt;:shared:domain -->
<g id="edge35" class="edge">
<title>:data:spotify&#45;&gt;:shared:domain</title>
<path fill="none" stroke="black" stroke-dasharray="1,5" d="M935.3,-143.94C935.3,-110.7 935.3,-14 935.3,-14 935.3,-14 759.58,-14 759.58,-14"/>
<polygon fill="black" stroke="black" points="759.58,-10.5 749.58,-14 759.58,-17.5 759.58,-10.5"/>
</g>
<!-- :data:spotify&#45;&gt;:core:logging:api -->
<g id="edge36" class="edge">
<title>:data:spotify&#45;&gt;:core:logging:api</title>
<path fill="none" stroke="black" stroke-dasharray="1,5" d="M1004.2,-137.37C1004.2,-137.37 1004.2,-44.7 1004.2,-44.7"/>
<polygon fill="black" stroke="black" points="1007.7,-44.7 1004.2,-34.7 1000.7,-44.7 1007.7,-44.7"/>
</g>
</g>
</svg>
