<?xml version="1.0" encoding="UTF-8" standalone="no"?>
<!DOCTYPE svg PUBLIC "-//W3C//DTD SVG 1.1//EN"
 "http://www.w3.org/Graphics/SVG/1.1/DTD/svg11.dtd">
<!-- Generated by graphviz version 2.43.0 (0)
 -->
<!-- Title: %3 Pages: 1 -->
<svg width="1309pt" height="666pt"
 viewBox="0.00 0.00 1309.48 666.00" xmlns="http://www.w3.org/2000/svg" xmlns:xlink="http://www.w3.org/1999/xlink">
<g id="graph0" class="graph" transform="scale(1 1) rotate(0) translate(4 662)">
<title>%3</title>
<polygon fill="white" stroke="transparent" points="-4,4 -4,-662 1305.48,-662 1305.48,4 -4,4"/>
<text text-anchor="middle" x="650.74" y="-630" font-family="Times,serif" font-size="30.00">Dependencies</text>
<text text-anchor="middle" x="650.74" y="-597" font-family="Times,serif" font-size="30.00"> </text>
<!-- :shared:feature:graph -->
<g id="node1" class="node">
<title>:shared:feature:graph</title>
<polygon fill="#b59aff" stroke="black" points="617.34,-584 444.34,-584 444.34,-548 617.34,-548 617.34,-584"/>
<text text-anchor="middle" x="530.84" y="-562.3" font-family="Times,serif" font-size="14.00">:shared:feature:graph</text>
</g>
<!-- :ui:test:screenshot -->
<g id="node2" class="node">
<title>:ui:test:screenshot</title>
<ellipse fill="#9affb5" stroke="black" cx="96.84" cy="-292" rx="96.68" ry="18"/>
<text text-anchor="middle" x="96.84" y="-288.3" font-family="Times,serif" font-size="14.00">:ui:test:screenshot</text>
</g>
<!-- :shared:feature:graph&#45;&gt;:ui:test:screenshot -->
<g id="edge1" class="edge">
<title>:shared:feature:graph&#45;&gt;:ui:test:screenshot</title>
<path fill="none" stroke="#ff9ab1" stroke-dasharray="1,5" d="M444.23,-572C309.39,-572 64.56,-572 64.56,-572 64.56,-572 64.56,-319.09 64.56,-319.09"/>
<polygon fill="#ff9ab1" stroke="#ff9ab1" points="68.06,-319.09 64.56,-309.09 61.06,-319.09 68.06,-319.09"/>
</g>
<!-- :ui:common -->
<g id="node3" class="node">
<title>:ui:common</title>
<ellipse fill="#b59aff" stroke="black" cx="530.84" cy="-429" rx="64.19" ry="18"/>
<text text-anchor="middle" x="530.84" y="-425.3" font-family="Times,serif" font-size="14.00">:ui:common</text>
</g>
<!-- :shared:feature:graph&#45;&gt;:ui:common -->
<g id="edge2" class="edge">
<title>:shared:feature:graph&#45;&gt;:ui:common</title>
<path fill="none" stroke="black" stroke-dasharray="1,5" d="M530.84,-547.81C530.84,-547.81 530.84,-457.27 530.84,-457.27"/>
<polygon fill="black" stroke="black" points="534.34,-457.27 530.84,-447.27 527.34,-457.27 534.34,-457.27"/>
</g>
<!-- :shared:domain -->
<g id="node4" class="node">
<title>:shared:domain</title>
<ellipse fill="#b59aff" stroke="black" cx="929.84" cy="-155" rx="82.59" ry="18"/>
<text text-anchor="middle" x="929.84" y="-151.3" font-family="Times,serif" font-size="14.00">:shared:domain</text>
</g>
<!-- :shared:feature:graph&#45;&gt;:shared:domain -->
<g id="edge3" class="edge">
<title>:shared:feature:graph&#45;&gt;:shared:domain</title>
<path fill="none" stroke="black" stroke-dasharray="1,5" d="M617.41,-560C705.8,-560 830.13,-560 830.13,-560 830.13,-560 830.13,-165 830.13,-165 830.13,-165 851.13,-165 851.13,-165"/>
<polygon fill="black" stroke="black" points="851.13,-168.5 861.13,-165 851.13,-161.5 851.13,-168.5"/>
</g>
<!-- :core:preferences -->
<g id="node5" class="node">
<title>:core:preferences</title>
<ellipse fill="#b59aff" stroke="black" cx="1209.84" cy="-292" rx="91.78" ry="18"/>
<text text-anchor="middle" x="1209.84" y="-288.3" font-family="Times,serif" font-size="14.00">:core:preferences</text>
</g>
<!-- :shared:feature:graph&#45;&gt;:core:preferences -->
<g id="edge4" class="edge">
<title>:shared:feature:graph&#45;&gt;:core:preferences</title>
<path fill="none" stroke="black" stroke-dasharray="1,5" d="M617.49,-572C806.77,-572 1240.39,-572 1240.39,-572 1240.39,-572 1240.39,-319.09 1240.39,-319.09"/>
<polygon fill="black" stroke="black" points="1243.89,-319.09 1240.39,-309.09 1236.89,-319.09 1243.89,-319.09"/>
</g>
<!-- :ui:image -->
<g id="node6" class="node">
<title>:ui:image</title>
<ellipse fill="#b59aff" stroke="black" cx="265.84" cy="-292" rx="53.89" ry="18"/>
<text text-anchor="middle" x="265.84" y="-288.3" font-family="Times,serif" font-size="14.00">:ui:image</text>
</g>
<!-- :shared:feature:graph&#45;&gt;:ui:image -->
<g id="edge5" class="edge">
<title>:shared:feature:graph&#45;&gt;:ui:image</title>
<path fill="none" stroke="black" stroke-dasharray="1,5" d="M444.01,-560C360.83,-560 247.86,-560 247.86,-560 247.86,-560 247.86,-319.17 247.86,-319.17"/>
<polygon fill="black" stroke="black" points="251.36,-319.17 247.86,-309.17 244.36,-319.17 251.36,-319.17"/>
</g>
<!-- :ui:core -->
<g id="node7" class="node">
<title>:ui:core</title>
<ellipse fill="#b59aff" stroke="black" cx="265.84" cy="-155" rx="45.49" ry="18"/>
<text text-anchor="middle" x="265.84" y="-151.3" font-family="Times,serif" font-size="14.00">:ui:core</text>
</g>
<!-- :ui:test:screenshot&#45;&gt;:ui:core -->
<g id="edge6" class="edge">
<title>:ui:test:screenshot&#45;&gt;:ui:core</title>
<path fill="none" stroke="black" stroke-dasharray="1,5" d="M189.14,-286.46C189.14,-260.83 189.14,-155 189.14,-155 189.14,-155 210.34,-155 210.34,-155"/>
<polygon fill="black" stroke="black" points="210.34,-158.5 220.34,-155 210.34,-151.5 210.34,-158.5"/>
</g>
<!-- :test:image -->
<g id="node8" class="node">
<title>:test:image</title>
<ellipse fill="#9affb5" stroke="black" cx="96.84" cy="-155" rx="63.09" ry="18"/>
<text text-anchor="middle" x="96.84" y="-151.3" font-family="Times,serif" font-size="14.00">:test:image</text>
</g>
<!-- :ui:test:screenshot&#45;&gt;:test:image -->
<g id="edge7" class="edge">
<title>:ui:test:screenshot&#45;&gt;:test:image</title>
<path fill="none" stroke="black" stroke-dasharray="1,5" d="M96.84,-273.81C96.84,-273.81 96.84,-183.27 96.84,-183.27"/>
<polygon fill="black" stroke="black" points="100.34,-183.27 96.84,-173.27 93.34,-183.27 100.34,-183.27"/>
</g>
<!-- :ui:common&#45;&gt;:ui:test:screenshot -->
<g id="edge8" class="edge">
<title>:ui:common&#45;&gt;:ui:test:screenshot</title>
<path fill="none" stroke="#ff9ab1" stroke-dasharray="1,5" d="M474.98,-438C364.6,-438 129.12,-438 129.12,-438 129.12,-438 129.12,-319.03 129.12,-319.03"/>
<polygon fill="#ff9ab1" stroke="#ff9ab1" points="132.62,-319.03 129.12,-309.03 125.62,-319.03 132.62,-319.03"/>
</g>
<!-- :ui:common&#45;&gt;:shared:domain -->
<g id="edge9" class="edge">
<title>:ui:common&#45;&gt;:shared:domain</title>
<path fill="none" stroke="black" d="M595.54,-429C681.87,-429 824.01,-429 824.01,-429 824.01,-429 824.01,-158 824.01,-158 824.01,-158 838.29,-158 838.29,-158"/>
<polygon fill="black" stroke="black" points="838.29,-161.5 848.29,-158 838.29,-154.5 838.29,-161.5"/>
</g>
<!-- :ui:common&#45;&gt;:core:preferences -->
<g id="edge14" class="edge">
<title>:ui:common&#45;&gt;:core:preferences</title>
<path fill="none" stroke="black" stroke-dasharray="1,5" d="M579.05,-441C729.33,-441 1179.29,-441 1179.29,-441 1179.29,-441 1179.29,-319.09 1179.29,-319.09"/>
<polygon fill="black" stroke="black" points="1182.79,-319.09 1179.29,-309.09 1175.79,-319.09 1182.79,-319.09"/>
</g>
<!-- :ui:common&#45;&gt;:ui:image -->
<g id="edge16" class="edge">
<title>:ui:common&#45;&gt;:ui:image</title>
<path fill="none" stroke="black" stroke-dasharray="1,5" d="M466.26,-429C393.07,-429 283.82,-429 283.82,-429 283.82,-429 283.82,-319.07 283.82,-319.07"/>
<polygon fill="black" stroke="black" points="287.32,-319.07 283.82,-309.07 280.32,-319.07 287.32,-319.07"/>
</g>
<!-- :ui:common&#45;&gt;:ui:core -->
<g id="edge10" class="edge">
<title>:ui:common&#45;&gt;:ui:core</title>
<path fill="none" stroke="black" d="M475.06,-420C416.69,-420 333.44,-420 333.44,-420 333.44,-420 333.44,-155 333.44,-155 333.44,-155 321.68,-155 321.68,-155"/>
<polygon fill="black" stroke="black" points="321.68,-151.5 311.68,-155 321.68,-158.5 321.68,-151.5"/>
</g>
<!-- :data:coverart -->
<g id="node9" class="node">
<title>:data:coverart</title>
<ellipse fill="#b59aff" stroke="black" cx="741.84" cy="-292" rx="76.09" ry="18"/>
<text text-anchor="middle" x="741.84" y="-288.3" font-family="Times,serif" font-size="14.00">:data:coverart</text>
</g>
<!-- :ui:common&#45;&gt;:data:coverart -->
<g id="edge11" class="edge">
<title>:ui:common&#45;&gt;:data:coverart</title>
<path fill="none" stroke="black" stroke-dasharray="1,5" d="M591.59,-423C653.92,-423 741.84,-423 741.84,-423 741.84,-423 741.84,-320.21 741.84,-320.21"/>
<polygon fill="black" stroke="black" points="745.34,-320.21 741.84,-310.21 738.34,-320.22 745.34,-320.21"/>
</g>
<!-- :data:musicbrainz -->
<g id="node10" class="node">
<title>:data:musicbrainz</title>
<ellipse fill="#b59aff" stroke="black" cx="929.84" cy="-292" rx="93.68" ry="18"/>
<text text-anchor="middle" x="929.84" y="-288.3" font-family="Times,serif" font-size="14.00">:data:musicbrainz</text>
</g>
<!-- :ui:common&#45;&gt;:data:musicbrainz -->
<g id="edge12" class="edge">
<title>:ui:common&#45;&gt;:data:musicbrainz</title>
<path fill="none" stroke="black" stroke-dasharray="1,5" d="M591.88,-435C703.65,-435 929.84,-435 929.84,-435 929.84,-435 929.84,-320.11 929.84,-320.11"/>
<polygon fill="black" stroke="black" points="933.34,-320.11 929.84,-310.11 926.34,-320.11 933.34,-320.11"/>
</g>
<!-- :data:common:network -->
<g id="node11" class="node">
<title>:data:common:network</title>
<ellipse fill="#b59aff" stroke="black" cx="530.84" cy="-292" rx="116.98" ry="18"/>
<text text-anchor="middle" x="530.84" y="-288.3" font-family="Times,serif" font-size="14.00">:data:common:network</text>
</g>
<!-- :ui:common&#45;&gt;:data:common:network -->
<g id="edge13" class="edge">
<title>:ui:common&#45;&gt;:data:common:network</title>
<path fill="none" stroke="black" stroke-dasharray="1,5" d="M530.84,-410.81C530.84,-410.81 530.84,-320.27 530.84,-320.27"/>
<polygon fill="black" stroke="black" points="534.34,-320.27 530.84,-310.27 527.34,-320.27 534.34,-320.27"/>
</g>
<!-- :core:logging:api -->
<g id="node12" class="node">
<title>:core:logging:api</title>
<ellipse fill="#b59aff" stroke="black" cx="635.84" cy="-155" rx="88.28" ry="18"/>
<text text-anchor="middle" x="635.84" y="-151.3" font-family="Times,serif" font-size="14.00">:core:logging:api</text>
</g>
<!-- :ui:common&#45;&gt;:core:logging:api -->
<g id="edge15" class="edge">
<title>:ui:common&#45;&gt;:core:logging:api</title>
<path fill="none" stroke="black" stroke-dasharray="1,5" d="M578.83,-417C614.43,-417 656.81,-417 656.81,-417 656.81,-417 656.81,-182.6 656.81,-182.6"/>
<polygon fill="black" stroke="black" points="660.31,-182.6 656.81,-172.6 653.31,-182.6 660.31,-182.6"/>
</g>
<!-- :core:preferences&#45;&gt;:shared:domain -->
<g id="edge17" class="edge">
<title>:core:preferences&#45;&gt;:shared:domain</title>
<path fill="none" stroke="black" stroke-dasharray="1,5" d="M1117.88,-292C1092.03,-292 1070.82,-292 1070.82,-292 1070.82,-292 1070.82,-155 1070.82,-155 1070.82,-155 1022.66,-155 1022.66,-155"/>
<polygon fill="black" stroke="black" points="1022.66,-151.5 1012.66,-155 1022.66,-158.5 1022.66,-151.5"/>
</g>
<!-- :core:coroutines -->
<g id="node13" class="node">
<title>:core:coroutines</title>
<ellipse fill="#b59aff" stroke="black" cx="1209.84" cy="-155" rx="85.29" ry="18"/>
<text text-anchor="middle" x="1209.84" y="-151.3" font-family="Times,serif" font-size="14.00">:core:coroutines</text>
</g>
<!-- :core:preferences&#45;&gt;:core:coroutines -->
<g id="edge18" class="edge">
<title>:core:preferences&#45;&gt;:core:coroutines</title>
<path fill="none" stroke="black" stroke-dasharray="1,5" d="M1209.84,-273.81C1209.84,-273.81 1209.84,-183.27 1209.84,-183.27"/>
<polygon fill="black" stroke="black" points="1213.34,-183.27 1209.84,-173.27 1206.34,-183.27 1213.34,-183.27"/>
</g>
<!-- :ui:image&#45;&gt;:shared:domain -->
<g id="edge19" class="edge">
<title>:ui:image&#45;&gt;:shared:domain</title>
<path fill="none" stroke="black" stroke-dasharray="1,5" d="M315.56,-284.96C315.56,-264.42 315.56,-206 315.56,-206 315.56,-206 888.57,-206 888.57,-206 888.57,-206 888.57,-180.86 888.57,-180.86"/>
<polygon fill="black" stroke="black" points="892.07,-180.86 888.57,-170.86 885.07,-180.86 892.07,-180.86"/>
</g>
<!-- :ui:image&#45;&gt;:ui:core -->
<g id="edge20" class="edge">
<title>:ui:image&#45;&gt;:ui:core</title>
<path fill="none" stroke="black" stroke-dasharray="1,5" d="M265.84,-273.81C265.84,-273.81 265.84,-183.27 265.84,-183.27"/>
<polygon fill="black" stroke="black" points="269.34,-183.27 265.84,-173.27 262.34,-183.27 269.34,-183.27"/>
</g>
<!-- :shared:strings -->
<g id="node14" class="node">
<title>:shared:strings</title>
<ellipse fill="#b59aff" stroke="black" cx="265.84" cy="-18" rx="81.49" ry="18"/>
<text text-anchor="middle" x="265.84" y="-14.3" font-family="Times,serif" font-size="14.00">:shared:strings</text>
</g>
<!-- :ui:core&#45;&gt;:shared:strings -->
<g id="edge21" class="edge">
<title>:ui:core&#45;&gt;:shared:strings</title>
<path fill="none" stroke="black" d="M265.84,-136.81C265.84,-136.81 265.84,-46.27 265.84,-46.27"/>
<polygon fill="black" stroke="black" points="269.34,-46.27 265.84,-36.27 262.34,-46.27 269.34,-46.27"/>
</g>
<!-- :data:coverart&#45;&gt;:shared:domain -->
<g id="edge22" class="edge">
<title>:data:coverart&#45;&gt;:shared:domain</title>
<path fill="none" stroke="black" stroke-dasharray="1,5" d="M771.06,-275.31C771.06,-236.6 771.06,-144 771.06,-144 771.06,-144 854.34,-144 854.34,-144"/>
<polygon fill="black" stroke="black" points="854.34,-147.5 864.34,-144 854.34,-140.5 854.34,-147.5"/>
</g>
<!-- :data:coverart&#45;&gt;:core:logging:api -->
<g id="edge23" class="edge">
<title>:data:coverart&#45;&gt;:core:logging:api</title>
<path fill="none" stroke="black" stroke-dasharray="1,5" d="M695.02,-277.6C695.02,-277.6 695.02,-178.4 695.02,-178.4"/>
<polygon fill="black" stroke="black" points="698.52,-178.4 695.02,-168.4 691.52,-178.4 698.52,-178.4"/>
</g>
<!-- :data:musicbrainz&#45;&gt;:shared:domain -->
<g id="edge24" class="edge">
<title>:data:musicbrainz&#45;&gt;:shared:domain</title>
<path fill="none" stroke="black" stroke-dasharray="1,5" d="M971.11,-275.75C971.11,-275.75 971.11,-180.81 971.11,-180.81"/>
<polygon fill="black" stroke="black" points="974.61,-180.81 971.11,-170.81 967.61,-180.81 974.61,-180.81"/>
</g>
<!-- :data:musicbrainz&#45;&gt;:core:logging:api -->
<g id="edge25" class="edge">
<title>:data:musicbrainz&#45;&gt;:core:logging:api</title>
<path fill="none" stroke="black" stroke-dasharray="1,5" d="M841.77,-285.58C841.77,-257.99 841.77,-151 841.77,-151 841.77,-151 732.28,-151 732.28,-151"/>
<polygon fill="black" stroke="black" points="732.28,-147.5 722.28,-151 732.28,-154.5 732.28,-147.5"/>
</g>
<!-- :data:common:network&#45;&gt;:shared:domain -->
<g id="edge27" class="edge">
<title>:data:common:network&#45;&gt;:shared:domain</title>
<path fill="none" stroke="black" stroke-dasharray="1,5" d="M614.37,-279.15C614.37,-263.75 614.37,-240 614.37,-240 614.37,-240 929.84,-240 929.84,-240 929.84,-240 929.84,-183.03 929.84,-183.03"/>
<polygon fill="black" stroke="black" points="933.34,-183.03 929.84,-173.03 926.34,-183.03 933.34,-183.03"/>
</g>
<!-- :data:common:network&#45;&gt;:core:logging:api -->
<g id="edge26" class="edge">
<title>:data:common:network&#45;&gt;:core:logging:api</title>
<path fill="none" stroke="black" stroke-dasharray="1,5" d="M580.91,-275.47C580.91,-275.47 580.91,-179.5 580.91,-179.5"/>
<polygon fill="black" stroke="black" points="584.41,-179.5 580.91,-169.5 577.41,-179.5 584.41,-179.5"/>
</g>
</g>
</svg>
