<?xml version="1.0" encoding="UTF-8" standalone="no"?>
<!DOCTYPE svg PUBLIC "-//W3C//DTD SVG 1.1//EN"
 "http://www.w3.org/Graphics/SVG/1.1/DTD/svg11.dtd">
<!-- Generated by graphviz version 2.43.0 (0)
 -->
<!-- Title: %3 Pages: 1 -->
<svg width="1112pt" height="666pt"
 viewBox="0.00 0.00 1112.38 666.00" xmlns="http://www.w3.org/2000/svg" xmlns:xlink="http://www.w3.org/1999/xlink">
<g id="graph0" class="graph" transform="scale(1 1) rotate(0) translate(4 662)">
<title>%3</title>
<polygon fill="white" stroke="transparent" points="-4,4 -4,-662 1108.38,-662 1108.38,4 -4,4"/>
<text text-anchor="middle" x="552.19" y="-630" font-family="Times,serif" font-size="30.00">Dependencies</text>
<text text-anchor="middle" x="552.19" y="-597" font-family="Times,serif" font-size="30.00"> </text>
<!-- :shared:feature:graph -->
<g id="node1" class="node">
<title>:shared:feature:graph</title>
<polygon fill="#b59aff" stroke="black" points="621.34,-584 448.34,-584 448.34,-548 621.34,-548 621.34,-584"/>
<text text-anchor="middle" x="534.84" y="-562.3" font-family="Times,serif" font-size="14.00">:shared:feature:graph</text>
</g>
<!-- :ui:test:screenshot -->
<g id="node2" class="node">
<title>:ui:test:screenshot</title>
<ellipse fill="#9affb5" stroke="black" cx="96.84" cy="-292" rx="96.68" ry="18"/>
<text text-anchor="middle" x="96.84" y="-288.3" font-family="Times,serif" font-size="14.00">:ui:test:screenshot</text>
</g>
<!-- :shared:feature:graph&#45;&gt;:ui:test:screenshot -->
<g id="edge1" class="edge">
<title>:shared:feature:graph&#45;&gt;:ui:test:screenshot</title>
<path fill="none" stroke="#ff9ab1" stroke-dasharray="1,5" d="M448.31,-575C312.49,-575 64.56,-575 64.56,-575 64.56,-575 64.56,-319.28 64.56,-319.28"/>
<polygon fill="#ff9ab1" stroke="#ff9ab1" points="68.06,-319.28 64.56,-309.28 61.06,-319.28 68.06,-319.28"/>
</g>
<!-- :core:models -->
<g id="node3" class="node">
<title>:core:models</title>
<ellipse fill="#b59aff" stroke="black" cx="678.84" cy="-18" rx="69.59" ry="18"/>
<text text-anchor="middle" x="678.84" y="-14.3" font-family="Times,serif" font-size="14.00">:core:models</text>
</g>
<!-- :shared:feature:graph&#45;&gt;:core:models -->
<g id="edge2" class="edge">
<title>:shared:feature:graph&#45;&gt;:core:models</title>
<path fill="none" stroke="black" stroke-dasharray="1,5" d="M448.24,-557C396.95,-557 341.89,-557 341.89,-557 341.89,-557 341.89,-14 341.89,-14 341.89,-14 600.65,-14 600.65,-14"/>
<polygon fill="black" stroke="black" points="600.65,-17.5 610.65,-14 600.65,-10.5 600.65,-17.5"/>
</g>
<!-- :core:preferences -->
<g id="node4" class="node">
<title>:core:preferences</title>
<ellipse fill="#b59aff" stroke="black" cx="467.84" cy="-292" rx="91.78" ry="18"/>
<text text-anchor="middle" x="467.84" y="-288.3" font-family="Times,serif" font-size="14.00">:core:preferences</text>
</g>
<!-- :shared:feature:graph&#45;&gt;:core:preferences -->
<g id="edge3" class="edge">
<title>:shared:feature:graph&#45;&gt;:core:preferences</title>
<path fill="none" stroke="black" stroke-dasharray="1,5" d="M478.92,-547.6C478.92,-547.6 478.92,-319.97 478.92,-319.97"/>
<polygon fill="black" stroke="black" points="482.42,-319.97 478.92,-309.97 475.42,-319.97 482.42,-319.97"/>
</g>
<!-- :shared:domain -->
<g id="node5" class="node">
<title>:shared:domain</title>
<ellipse fill="#b59aff" stroke="black" cx="1021.84" cy="-155" rx="82.59" ry="18"/>
<text text-anchor="middle" x="1021.84" y="-151.3" font-family="Times,serif" font-size="14.00">:shared:domain</text>
</g>
<!-- :shared:feature:graph&#45;&gt;:shared:domain -->
<g id="edge4" class="edge">
<title>:shared:feature:graph&#45;&gt;:shared:domain</title>
<path fill="none" stroke="black" stroke-dasharray="1,5" d="M621.39,-566C773.68,-566 1073.55,-566 1073.55,-566 1073.55,-566 1073.55,-179.15 1073.55,-179.15"/>
<polygon fill="black" stroke="black" points="1077.05,-179.15 1073.55,-169.15 1070.05,-179.15 1077.05,-179.15"/>
</g>
<!-- :ui:common -->
<g id="node6" class="node">
<title>:ui:common</title>
<ellipse fill="#b59aff" stroke="black" cx="573.84" cy="-429" rx="64.19" ry="18"/>
<text text-anchor="middle" x="573.84" y="-425.3" font-family="Times,serif" font-size="14.00">:ui:common</text>
</g>
<!-- :shared:feature:graph&#45;&gt;:ui:common -->
<g id="edge5" class="edge">
<title>:shared:feature:graph&#45;&gt;:ui:common</title>
<path fill="none" stroke="black" stroke-dasharray="1,5" d="M565.42,-547.81C565.42,-547.81 565.42,-457.27 565.42,-457.27"/>
<polygon fill="black" stroke="black" points="568.92,-457.27 565.42,-447.27 561.92,-457.27 568.92,-457.27"/>
</g>
<!-- :ui:image -->
<g id="node7" class="node">
<title>:ui:image</title>
<ellipse fill="#b59aff" stroke="black" cx="265.84" cy="-292" rx="53.89" ry="18"/>
<text text-anchor="middle" x="265.84" y="-288.3" font-family="Times,serif" font-size="14.00">:ui:image</text>
</g>
<!-- :shared:feature:graph&#45;&gt;:ui:image -->
<g id="edge6" class="edge">
<title>:shared:feature:graph&#45;&gt;:ui:image</title>
<path fill="none" stroke="black" stroke-dasharray="1,5" d="M447.96,-566C363.49,-566 247.86,-566 247.86,-566 247.86,-566 247.86,-319.14 247.86,-319.14"/>
<polygon fill="black" stroke="black" points="251.36,-319.14 247.86,-309.14 244.36,-319.14 251.36,-319.14"/>
</g>
<!-- :ui:core -->
<g id="node8" class="node">
<title>:ui:core</title>
<ellipse fill="#b59aff" stroke="black" cx="250.84" cy="-155" rx="45.49" ry="18"/>
<text text-anchor="middle" x="250.84" y="-151.3" font-family="Times,serif" font-size="14.00">:ui:core</text>
</g>
<!-- :ui:test:screenshot&#45;&gt;:ui:core -->
<g id="edge7" class="edge">
<title>:ui:test:screenshot&#45;&gt;:ui:core</title>
<path fill="none" stroke="black" stroke-dasharray="1,5" d="M181.64,-283.01C181.64,-252.53 181.64,-155 181.64,-155 181.64,-155 195.07,-155 195.07,-155"/>
<polygon fill="black" stroke="black" points="195.07,-158.5 205.07,-155 195.07,-151.5 195.07,-158.5"/>
</g>
<!-- :test:image -->
<g id="node9" class="node">
<title>:test:image</title>
<ellipse fill="#9affb5" stroke="black" cx="96.84" cy="-155" rx="63.09" ry="18"/>
<text text-anchor="middle" x="96.84" y="-151.3" font-family="Times,serif" font-size="14.00">:test:image</text>
</g>
<!-- :ui:test:screenshot&#45;&gt;:test:image -->
<g id="edge8" class="edge">
<title>:ui:test:screenshot&#45;&gt;:test:image</title>
<path fill="none" stroke="black" stroke-dasharray="1,5" d="M96.84,-273.81C96.84,-273.81 96.84,-183.27 96.84,-183.27"/>
<polygon fill="black" stroke="black" points="100.34,-183.27 96.84,-173.27 93.34,-183.27 100.34,-183.27"/>
</g>
<!-- :core:preferences&#45;&gt;:core:models -->
<g id="edge10" class="edge">
<title>:core:preferences&#45;&gt;:core:models</title>
<path fill="none" stroke="black" stroke-dasharray="1,5" d="M540.73,-281.04C540.73,-230.34 540.73,-21 540.73,-21 540.73,-21 600.19,-21 600.19,-21"/>
<polygon fill="black" stroke="black" points="600.19,-24.5 610.19,-21 600.19,-17.5 600.19,-24.5"/>
</g>
<!-- :core:coroutines -->
<g id="node10" class="node">
<title>:core:coroutines</title>
<ellipse fill="#b59aff" stroke="black" cx="436.84" cy="-155" rx="85.29" ry="18"/>
<text text-anchor="middle" x="436.84" y="-151.3" font-family="Times,serif" font-size="14.00">:core:coroutines</text>
</g>
<!-- :core:preferences&#45;&gt;:core:coroutines -->
<g id="edge9" class="edge">
<title>:core:preferences&#45;&gt;:core:coroutines</title>
<path fill="none" stroke="black" stroke-dasharray="1,5" d="M449.09,-274.37C449.09,-274.37 449.09,-183 449.09,-183"/>
<polygon fill="black" stroke="black" points="452.59,-183 449.09,-173 445.59,-183 452.59,-183"/>
</g>
<!-- :shared:domain&#45;&gt;:core:models -->
<g id="edge11" class="edge">
<title>:shared:domain&#45;&gt;:core:models</title>
<path fill="none" stroke="black" stroke-dasharray="1,5" d="M1021.84,-136.89C1021.84,-98.41 1021.84,-12 1021.84,-12 1021.84,-12 754.57,-12 754.57,-12"/>
<polygon fill="black" stroke="black" points="754.57,-8.5 744.57,-12 754.57,-15.5 754.57,-8.5"/>
</g>
<!-- :ui:common&#45;&gt;:ui:test:screenshot -->
<g id="edge12" class="edge">
<title>:ui:common&#45;&gt;:ui:test:screenshot</title>
<path fill="none" stroke="#ff9ab1" stroke-dasharray="1,5" d="M517.97,-438C398.53,-438 129.12,-438 129.12,-438 129.12,-438 129.12,-319.03 129.12,-319.03"/>
<polygon fill="#ff9ab1" stroke="#ff9ab1" points="132.62,-319.03 129.12,-309.03 125.62,-319.03 132.62,-319.03"/>
</g>
<!-- :ui:common&#45;&gt;:core:models -->
<g id="edge13" class="edge">
<title>:ui:common&#45;&gt;:core:models</title>
<path fill="none" stroke="black" d="M576.09,-410.99C576.09,-332.96 576.09,-28 576.09,-28 576.09,-28 610.86,-28 610.86,-28"/>
<polygon fill="black" stroke="black" points="610.86,-31.5 620.86,-28 610.86,-24.5 610.86,-31.5"/>
</g>
<!-- :ui:common&#45;&gt;:core:preferences -->
<g id="edge17" class="edge">
<title>:ui:common&#45;&gt;:core:preferences</title>
<path fill="none" stroke="black" stroke-dasharray="1,5" d="M534.49,-414.6C534.49,-414.6 534.49,-314.61 534.49,-314.61"/>
<polygon fill="black" stroke="black" points="537.99,-314.61 534.49,-304.61 530.99,-314.61 537.99,-314.61"/>
</g>
<!-- :ui:common&#45;&gt;:shared:domain -->
<g id="edge19" class="edge">
<title>:ui:common&#45;&gt;:shared:domain</title>
<path fill="none" stroke="black" stroke-dasharray="1,5" d="M634.66,-435C761.52,-435 1042.72,-435 1042.72,-435 1042.72,-435 1042.72,-182.52 1042.72,-182.52"/>
<polygon fill="black" stroke="black" points="1046.22,-182.52 1042.72,-172.52 1039.22,-182.52 1046.22,-182.52"/>
</g>
<!-- :ui:common&#45;&gt;:ui:image -->
<g id="edge20" class="edge">
<title>:ui:common&#45;&gt;:ui:image</title>
<path fill="none" stroke="black" stroke-dasharray="1,5" d="M509.48,-429C424.04,-429 283.82,-429 283.82,-429 283.82,-429 283.82,-319.07 283.82,-319.07"/>
<polygon fill="black" stroke="black" points="287.32,-319.07 283.82,-309.07 280.32,-319.07 287.32,-319.07"/>
</g>
<!-- :ui:common&#45;&gt;:ui:core -->
<g id="edge14" class="edge">
<title>:ui:common&#45;&gt;:ui:core</title>
<path fill="none" stroke="black" d="M518.01,-420C450.78,-420 346.8,-420 346.8,-420 346.8,-420 346.8,-155 346.8,-155 346.8,-155 306.57,-155 306.57,-155"/>
<polygon fill="black" stroke="black" points="306.57,-151.5 296.57,-155 306.57,-158.5 306.57,-151.5"/>
</g>
<!-- :data:coverart -->
<g id="node11" class="node">
<title>:data:coverart</title>
<ellipse fill="#b59aff" stroke="black" cx="935.84" cy="-292" rx="76.09" ry="18"/>
<text text-anchor="middle" x="935.84" y="-288.3" font-family="Times,serif" font-size="14.00">:data:coverart</text>
</g>
<!-- :ui:common&#45;&gt;:data:coverart -->
<g id="edge15" class="edge">
<title>:ui:common&#45;&gt;:data:coverart</title>
<path fill="none" stroke="black" stroke-dasharray="1,5" d="M634.84,-423C738.01,-423 935.84,-423 935.84,-423 935.84,-423 935.84,-320.21 935.84,-320.21"/>
<polygon fill="black" stroke="black" points="939.34,-320.21 935.84,-310.21 932.34,-320.22 939.34,-320.21"/>
</g>
<!-- :data:musicbrainz -->
<g id="node12" class="node">
<title>:data:musicbrainz</title>
<ellipse fill="#b59aff" stroke="black" cx="709.84" cy="-292" rx="93.68" ry="18"/>
<text text-anchor="middle" x="709.84" y="-288.3" font-family="Times,serif" font-size="14.00">:data:musicbrainz</text>
</g>
<!-- :ui:common&#45;&gt;:data:musicbrainz -->
<g id="edge16" class="edge">
<title>:ui:common&#45;&gt;:data:musicbrainz</title>
<path fill="none" stroke="black" stroke-dasharray="1,5" d="M627.22,-418.7C627.22,-418.7 627.22,-310.61 627.22,-310.61"/>
<polygon fill="black" stroke="black" points="630.72,-310.61 627.22,-300.61 623.72,-310.61 630.72,-310.61"/>
</g>
<!-- :core:logging:api -->
<g id="node13" class="node">
<title>:core:logging:api</title>
<ellipse fill="#b59aff" stroke="black" cx="794.84" cy="-155" rx="88.28" ry="18"/>
<text text-anchor="middle" x="794.84" y="-151.3" font-family="Times,serif" font-size="14.00">:core:logging:api</text>
</g>
<!-- :ui:common&#45;&gt;:core:logging:api -->
<g id="edge18" class="edge">
<title>:ui:common&#45;&gt;:core:logging:api</title>
<path fill="none" stroke="black" stroke-dasharray="1,5" d="M592.69,-411.44C592.69,-350.97 592.69,-155 592.69,-155 592.69,-155 696.18,-155 696.18,-155"/>
<polygon fill="black" stroke="black" points="696.18,-158.5 706.18,-155 696.18,-151.5 696.18,-158.5"/>
</g>
<!-- :ui:image&#45;&gt;:core:models -->
<g id="edge21" class="edge">
<title>:ui:image&#45;&gt;:core:models</title>
<path fill="none" stroke="black" stroke-dasharray="1,5" d="M320.13,-292C329.87,-292 336.99,-292 336.99,-292 336.99,-292 336.99,-7 336.99,-7 336.99,-7 613.54,-7 613.54,-7"/>
<polygon fill="black" stroke="black" points="613.54,-10.5 623.54,-7 613.54,-3.5 613.54,-10.5"/>
</g>
<!-- :ui:image&#45;&gt;:ui:core -->
<g id="edge22" class="edge">
<title>:ui:image&#45;&gt;:ui:core</title>
<path fill="none" stroke="black" stroke-dasharray="1,5" d="M254.12,-274.37C254.12,-274.37 254.12,-183 254.12,-183"/>
<polygon fill="black" stroke="black" points="257.62,-183 254.12,-173 250.62,-183 257.62,-183"/>
</g>
<!-- :shared:strings -->
<g id="node14" class="node">
<title>:shared:strings</title>
<ellipse fill="#b59aff" stroke="black" cx="250.84" cy="-18" rx="81.49" ry="18"/>
<text text-anchor="middle" x="250.84" y="-14.3" font-family="Times,serif" font-size="14.00">:shared:strings</text>
</g>
<!-- :ui:core&#45;&gt;:shared:strings -->
<g id="edge23" class="edge">
<title>:ui:core&#45;&gt;:shared:strings</title>
<path fill="none" stroke="black" d="M250.84,-136.81C250.84,-136.81 250.84,-46.27 250.84,-46.27"/>
<polygon fill="black" stroke="black" points="254.34,-46.27 250.84,-36.27 247.34,-46.27 254.34,-46.27"/>
</g>
<!-- :data:coverart&#45;&gt;:core:models -->
<g id="edge25" class="edge">
<title>:data:coverart&#45;&gt;:core:models</title>
<path fill="none" stroke="black" stroke-dasharray="1,5" d="M911.27,-274.83C911.27,-215.68 911.27,-24 911.27,-24 911.27,-24 754.51,-24 754.51,-24"/>
<polygon fill="black" stroke="black" points="754.51,-20.5 744.51,-24 754.51,-27.5 754.51,-20.5"/>
</g>
<!-- :data:coverart&#45;&gt;:shared:domain -->
<g id="edge26" class="edge">
<title>:data:coverart&#45;&gt;:shared:domain</title>
<path fill="none" stroke="black" stroke-dasharray="1,5" d="M975.59,-276.55C975.59,-276.55 975.59,-180.18 975.59,-180.18"/>
<polygon fill="black" stroke="black" points="979.09,-180.18 975.59,-170.18 972.09,-180.18 979.09,-180.18"/>
</g>
<!-- :data:coverart&#45;&gt;:core:logging:api -->
<g id="edge24" class="edge">
<title>:data:coverart&#45;&gt;:core:logging:api</title>
<path fill="none" stroke="black" stroke-dasharray="1,5" d="M871.52,-282.15C871.52,-282.15 871.52,-174.04 871.52,-174.04"/>
<polygon fill="black" stroke="black" points="875.02,-174.04 871.52,-164.04 868.02,-174.04 875.02,-174.04"/>
</g>
<!-- :data:musicbrainz&#45;&gt;:core:models -->
<g id="edge28" class="edge">
<title>:data:musicbrainz&#45;&gt;:core:models</title>
<path fill="none" stroke="black" stroke-dasharray="1,5" d="M661.35,-276.48C661.35,-276.48 661.35,-45.43 661.35,-45.43"/>
<polygon fill="black" stroke="black" points="664.85,-45.43 661.35,-35.43 657.85,-45.43 664.85,-45.43"/>
</g>
<!-- :data:musicbrainz&#45;&gt;:core:logging:api -->
<g id="edge27" class="edge">
<title>:data:musicbrainz&#45;&gt;:core:logging:api</title>
<path fill="none" stroke="black" stroke-dasharray="1,5" d="M754.94,-276.02C754.94,-276.02 754.94,-181.31 754.94,-181.31"/>
<polygon fill="black" stroke="black" points="758.44,-181.31 754.94,-171.31 751.44,-181.31 758.44,-181.31"/>
</g>
</g>
</svg>
