<?xml version="1.0" encoding="UTF-8" standalone="no"?>
<!DOCTYPE svg PUBLIC "-//W3C//DTD SVG 1.1//EN"
 "http://www.w3.org/Graphics/SVG/1.1/DTD/svg11.dtd">
<!-- Generated by graphviz version 2.43.0 (0)
 -->
<!-- Title: %3 Pages: 1 -->
<svg width="1144pt" height="940pt"
 viewBox="0.00 0.00 1143.74 940.00" xmlns="http://www.w3.org/2000/svg" xmlns:xlink="http://www.w3.org/1999/xlink">
<g id="graph0" class="graph" transform="scale(1 1) rotate(0) translate(4 936)">
<title>%3</title>
<polygon fill="white" stroke="transparent" points="-4,4 -4,-936 1139.74,-936 1139.74,4 -4,4"/>
<text text-anchor="middle" x="567.87" y="-904" font-family="Times,serif" font-size="30.00">Dependencies</text>
<text text-anchor="middle" x="567.87" y="-871" font-family="Times,serif" font-size="30.00"> </text>
<!-- :shared:feature:graph -->
<g id="node1" class="node">
<title>:shared:feature:graph</title>
<polygon fill="#b59aff" stroke="black" points="413.34,-858 240.34,-858 240.34,-822 413.34,-822 413.34,-858"/>
<text text-anchor="middle" x="326.84" y="-836.3" font-family="Times,serif" font-size="14.00">:shared:feature:graph</text>
</g>
<!-- :ui:test:screenshot -->
<g id="node2" class="node">
<title>:ui:test:screenshot</title>
<ellipse fill="#9affb5" stroke="black" cx="96.84" cy="-566" rx="96.68" ry="18"/>
<text text-anchor="middle" x="96.84" y="-562.3" font-family="Times,serif" font-size="14.00">:ui:test:screenshot</text>
</g>
<!-- :shared:feature:graph&#45;&gt;:ui:test:screenshot -->
<g id="edge1" class="edge">
<title>:shared:feature:graph&#45;&gt;:ui:test:screenshot</title>
<path fill="none" stroke="#ff9ab1" stroke-dasharray="1,5" d="M240.23,-840C163.84,-840 64.56,-840 64.56,-840 64.56,-840 64.56,-593.14 64.56,-593.14"/>
<polygon fill="#ff9ab1" stroke="#ff9ab1" points="68.06,-593.14 64.56,-583.14 61.06,-593.14 68.06,-593.14"/>
</g>
<!-- :ui:common -->
<g id="node3" class="node">
<title>:ui:common</title>
<ellipse fill="#b59aff" stroke="black" cx="439.84" cy="-703" rx="64.19" ry="18"/>
<text text-anchor="middle" x="439.84" y="-699.3" font-family="Times,serif" font-size="14.00">:ui:common</text>
</g>
<!-- :shared:feature:graph&#45;&gt;:ui:common -->
<g id="edge2" class="edge">
<title>:shared:feature:graph&#45;&gt;:ui:common</title>
<path fill="none" stroke="black" stroke-dasharray="1,5" d="M394.42,-821.81C394.42,-821.81 394.42,-725.94 394.42,-725.94"/>
<polygon fill="black" stroke="black" points="397.92,-725.94 394.42,-715.94 390.92,-725.94 397.92,-725.94"/>
</g>
<!-- :shared:domain -->
<g id="node4" class="node">
<title>:shared:domain</title>
<ellipse fill="#b59aff" stroke="black" cx="574.84" cy="-18" rx="82.59" ry="18"/>
<text text-anchor="middle" x="574.84" y="-14.3" font-family="Times,serif" font-size="14.00">:shared:domain</text>
</g>
<!-- :shared:feature:graph&#45;&gt;:shared:domain -->
<g id="edge3" class="edge">
<title>:shared:feature:graph&#45;&gt;:shared:domain</title>
<path fill="none" stroke="black" stroke-dasharray="1,5" d="M347.64,-821.94C347.64,-700.85 347.64,-12 347.64,-12 347.64,-12 486.97,-12 486.97,-12"/>
<polygon fill="black" stroke="black" points="486.97,-15.5 496.97,-12 486.97,-8.5 486.97,-15.5"/>
</g>
<!-- :ui:image -->
<g id="node5" class="node">
<title>:ui:image</title>
<ellipse fill="#b59aff" stroke="black" cx="265.84" cy="-566" rx="53.89" ry="18"/>
<text text-anchor="middle" x="265.84" y="-562.3" font-family="Times,serif" font-size="14.00">:ui:image</text>
</g>
<!-- :shared:feature:graph&#45;&gt;:ui:image -->
<g id="edge4" class="edge">
<title>:shared:feature:graph&#45;&gt;:ui:image</title>
<path fill="none" stroke="black" stroke-dasharray="1,5" d="M266.82,-821.6C266.82,-821.6 266.82,-594.32 266.82,-594.32"/>
<polygon fill="black" stroke="black" points="270.32,-594.32 266.82,-584.32 263.32,-594.32 270.32,-594.32"/>
</g>
<!-- :ui:core -->
<g id="node6" class="node">
<title>:ui:core</title>
<ellipse fill="#b59aff" stroke="black" cx="230.84" cy="-429" rx="45.49" ry="18"/>
<text text-anchor="middle" x="230.84" y="-425.3" font-family="Times,serif" font-size="14.00">:ui:core</text>
</g>
<!-- :ui:test:screenshot&#45;&gt;:ui:core -->
<g id="edge5" class="edge">
<title>:ui:test:screenshot&#45;&gt;:ui:core</title>
<path fill="none" stroke="black" stroke-dasharray="1,5" d="M189.51,-560.46C189.51,-560.46 189.51,-446.72 189.51,-446.72"/>
<polygon fill="black" stroke="black" points="193.01,-446.72 189.51,-436.72 186.01,-446.72 193.01,-446.72"/>
</g>
<!-- :test:image -->
<g id="node7" class="node">
<title>:test:image</title>
<ellipse fill="#9affb5" stroke="black" cx="96.84" cy="-429" rx="63.09" ry="18"/>
<text text-anchor="middle" x="96.84" y="-425.3" font-family="Times,serif" font-size="14.00">:test:image</text>
</g>
<!-- :ui:test:screenshot&#45;&gt;:test:image -->
<g id="edge6" class="edge">
<title>:ui:test:screenshot&#45;&gt;:test:image</title>
<path fill="none" stroke="black" stroke-dasharray="1,5" d="M96.84,-547.81C96.84,-547.81 96.84,-457.27 96.84,-457.27"/>
<polygon fill="black" stroke="black" points="100.34,-457.27 96.84,-447.27 93.34,-457.27 100.34,-457.27"/>
</g>
<!-- :ui:common&#45;&gt;:ui:test:screenshot -->
<g id="edge8" class="edge">
<title>:ui:common&#45;&gt;:ui:test:screenshot</title>
<path fill="none" stroke="#ff9ab1" stroke-dasharray="1,5" d="M378.82,-709C288.33,-709 129.12,-709 129.12,-709 129.12,-709 129.12,-593.25 129.12,-593.25"/>
<polygon fill="#ff9ab1" stroke="#ff9ab1" points="132.62,-593.25 129.12,-583.25 125.62,-593.25 132.62,-593.25"/>
</g>
<!-- :ui:common&#45;&gt;:shared:domain -->
<g id="edge10" class="edge">
<title>:ui:common&#45;&gt;:shared:domain</title>
<path fill="none" stroke="black" d="M421.18,-685.72C421.18,-579.37 421.18,-18 421.18,-18 421.18,-18 482.16,-18 482.16,-18"/>
<polygon fill="black" stroke="black" points="482.16,-21.5 492.16,-18 482.16,-14.5 482.16,-21.5"/>
</g>
<!-- :ui:common&#45;&gt;:ui:image -->
<g id="edge13" class="edge">
<title>:ui:common&#45;&gt;:ui:image</title>
<path fill="none" stroke="black" stroke-dasharray="1,5" d="M378.97,-697C338.71,-697 293.3,-697 293.3,-697 293.3,-697 293.3,-591.54 293.3,-591.54"/>
<polygon fill="black" stroke="black" points="296.8,-591.54 293.3,-581.54 289.8,-591.54 296.8,-591.54"/>
</g>
<!-- :ui:common&#45;&gt;:ui:core -->
<g id="edge11" class="edge">
<title>:ui:common&#45;&gt;:ui:core</title>
<path fill="none" stroke="black" d="M398.34,-689.13C398.34,-634.6 398.34,-438 398.34,-438 398.34,-438 280.54,-438 280.54,-438"/>
<polygon fill="black" stroke="black" points="280.54,-434.5 270.54,-438 280.54,-441.5 280.54,-434.5"/>
</g>
<!-- :test&#45;data -->
<g id="node8" class="node">
<title>:test&#45;data</title>
<ellipse fill="#b59aff" stroke="black" cx="709.84" cy="-566" rx="55.49" ry="18"/>
<text text-anchor="middle" x="709.84" y="-562.3" font-family="Times,serif" font-size="14.00">:test&#45;data</text>
</g>
<!-- :ui:common&#45;&gt;:test&#45;data -->
<g id="edge7" class="edge">
<title>:ui:common&#45;&gt;:test&#45;data</title>
<path fill="none" stroke="#ff9ab1" stroke-dasharray="1,5" d="M499.36,-696.12C499.36,-669.53 499.36,-575 499.36,-575 499.36,-575 651.82,-575 651.82,-575"/>
<polygon fill="#ff9ab1" stroke="#ff9ab1" points="651.82,-578.5 661.82,-575 651.82,-571.5 651.82,-578.5"/>
</g>
<!-- :core:coroutines -->
<g id="node9" class="node">
<title>:core:coroutines</title>
<ellipse fill="#b59aff" stroke="black" cx="574.84" cy="-155" rx="85.29" ry="18"/>
<text text-anchor="middle" x="574.84" y="-151.3" font-family="Times,serif" font-size="14.00">:core:coroutines</text>
</g>
<!-- :ui:common&#45;&gt;:core:coroutines -->
<g id="edge9" class="edge">
<title>:ui:common&#45;&gt;:core:coroutines</title>
<path fill="none" stroke="#ff9ab1" stroke-dasharray="1,5" d="M494.53,-693.49C494.53,-693.49 494.53,-171.25 494.53,-171.25"/>
<polygon fill="#ff9ab1" stroke="#ff9ab1" points="498.03,-171.25 494.53,-161.25 491.03,-171.25 498.03,-171.25"/>
</g>
<!-- :core:logging:api -->
<g id="node10" class="node">
<title>:core:logging:api</title>
<ellipse fill="#b59aff" stroke="black" cx="1017.84" cy="-18" rx="88.28" ry="18"/>
<text text-anchor="middle" x="1017.84" y="-14.3" font-family="Times,serif" font-size="14.00">:core:logging:api</text>
</g>
<!-- :ui:common&#45;&gt;:core:logging:api -->
<g id="edge12" class="edge">
<title>:ui:common&#45;&gt;:core:logging:api</title>
<path fill="none" stroke="black" stroke-dasharray="1,5" d="M504.35,-703C647.49,-703 979.11,-703 979.11,-703 979.11,-703 979.11,-44.26 979.11,-44.26"/>
<polygon fill="black" stroke="black" points="982.61,-44.26 979.11,-34.26 975.61,-44.26 982.61,-44.26"/>
</g>
<!-- :ui:image&#45;&gt;:shared:domain -->
<g id="edge14" class="edge">
<title>:ui:image&#45;&gt;:shared:domain</title>
<path fill="none" stroke="black" stroke-dasharray="1,5" d="M300.94,-552.13C300.94,-465.74 300.94,-5 300.94,-5 300.94,-5 507.42,-5 507.42,-5"/>
<polygon fill="black" stroke="black" points="507.42,-8.5 517.42,-5 507.42,-1.5 507.42,-8.5"/>
</g>
<!-- :ui:image&#45;&gt;:ui:core -->
<g id="edge15" class="edge">
<title>:ui:image&#45;&gt;:ui:core</title>
<path fill="none" stroke="black" stroke-dasharray="1,5" d="M244.12,-549.47C244.12,-549.47 244.12,-456.45 244.12,-456.45"/>
<polygon fill="black" stroke="black" points="247.62,-456.45 244.12,-446.45 240.62,-456.45 247.62,-456.45"/>
</g>
<!-- :shared:strings -->
<g id="node11" class="node">
<title>:shared:strings</title>
<ellipse fill="#b59aff" stroke="black" cx="200.84" cy="-292" rx="81.49" ry="18"/>
<text text-anchor="middle" x="200.84" y="-288.3" font-family="Times,serif" font-size="14.00">:shared:strings</text>
</g>
<!-- :ui:core&#45;&gt;:shared:strings -->
<g id="edge16" class="edge">
<title>:ui:core&#45;&gt;:shared:strings</title>
<path fill="none" stroke="black" d="M230.84,-410.81C230.84,-410.81 230.84,-318.97 230.84,-318.97"/>
<polygon fill="black" stroke="black" points="234.34,-318.97 230.84,-308.97 227.34,-318.97 234.34,-318.97"/>
</g>
<!-- :test&#45;data&#45;&gt;:shared:domain -->
<g id="edge17" class="edge">
<title>:test&#45;data&#45;&gt;:shared:domain</title>
<path fill="none" stroke="black" stroke-dasharray="1,5" d="M654.44,-566C576.53,-566 444.02,-566 444.02,-566 444.02,-566 444.02,-24 444.02,-24 444.02,-24 486.85,-24 486.85,-24"/>
<polygon fill="black" stroke="black" points="486.85,-27.5 496.85,-24 486.85,-20.5 486.85,-27.5"/>
</g>
<!-- :test&#45;data&#45;&gt;:core:coroutines -->
<g id="edge18" class="edge">
<title>:test&#45;data&#45;&gt;:core:coroutines</title>
<path fill="none" stroke="black" stroke-dasharray="1,5" d="M661.78,-557C610.73,-557 537.31,-557 537.31,-557 537.31,-557 537.31,-181.26 537.31,-181.26"/>
<polygon fill="black" stroke="black" points="540.81,-181.26 537.31,-171.26 533.81,-181.26 540.81,-181.26"/>
</g>
<!-- :data:database -->
<g id="node12" class="node">
<title>:data:database</title>
<ellipse fill="#b59aff" stroke="black" cx="682.84" cy="-292" rx="79.09" ry="18"/>
<text text-anchor="middle" x="682.84" y="-288.3" font-family="Times,serif" font-size="14.00">:data:database</text>
</g>
<!-- :test&#45;data&#45;&gt;:data:database -->
<g id="edge19" class="edge">
<title>:test&#45;data&#45;&gt;:data:database</title>
<path fill="none" stroke="black" stroke-dasharray="1,5" d="M670.2,-553.15C670.2,-553.15 670.2,-319.96 670.2,-319.96"/>
<polygon fill="black" stroke="black" points="673.7,-319.96 670.2,-309.96 666.7,-319.96 673.7,-319.96"/>
</g>
<!-- :data:musicbrainz -->
<g id="node13" class="node">
<title>:data:musicbrainz</title>
<ellipse fill="#b59aff" stroke="black" cx="847.84" cy="-155" rx="93.68" ry="18"/>
<text text-anchor="middle" x="847.84" y="-151.3" font-family="Times,serif" font-size="14.00">:data:musicbrainz</text>
</g>
<!-- :test&#45;data&#45;&gt;:data:musicbrainz -->
<g id="edge20" class="edge">
<title>:test&#45;data&#45;&gt;:data:musicbrainz</title>
<path fill="none" stroke="black" stroke-dasharray="1,5" d="M762.34,-560C815.41,-560 889.66,-560 889.66,-560 889.66,-560 889.66,-181.13 889.66,-181.13"/>
<polygon fill="black" stroke="black" points="893.16,-181.13 889.66,-171.13 886.16,-181.13 893.16,-181.13"/>
</g>
<!-- :data:coverart -->
<g id="node14" class="node">
<title>:data:coverart</title>
<ellipse fill="#b59aff" stroke="black" cx="761.84" cy="-429" rx="76.09" ry="18"/>
<text text-anchor="middle" x="761.84" y="-425.3" font-family="Times,serif" font-size="14.00">:data:coverart</text>
</g>
<!-- :test&#45;data&#45;&gt;:data:coverart -->
<g id="edge21" class="edge">
<title>:test&#45;data&#45;&gt;:data:coverart</title>
<path fill="none" stroke="black" stroke-dasharray="1,5" d="M712.23,-547.81C712.23,-547.81 712.23,-452.71 712.23,-452.71"/>
<polygon fill="black" stroke="black" points="715.73,-452.71 712.23,-442.71 708.73,-452.71 715.73,-452.71"/>
</g>
<!-- :data:spotify -->
<g id="node15" class="node">
<title>:data:spotify</title>
<ellipse fill="#b59aff" stroke="black" cx="1066.84" cy="-155" rx="68.79" ry="18"/>
<text text-anchor="middle" x="1066.84" y="-151.3" font-family="Times,serif" font-size="14.00">:data:spotify</text>
</g>
<!-- :test&#45;data&#45;&gt;:data:spotify -->
<g id="edge22" class="edge">
<title>:test&#45;data&#45;&gt;:data:spotify</title>
<path fill="none" stroke="black" stroke-dasharray="1,5" d="M762.13,-572C861.29,-572 1066.84,-572 1066.84,-572 1066.84,-572 1066.84,-183.19 1066.84,-183.19"/>
<polygon fill="black" stroke="black" points="1070.34,-183.19 1066.84,-173.19 1063.34,-183.19 1070.34,-183.19"/>
</g>
<!-- :data:database&#45;&gt;:shared:domain -->
<g id="edge23" class="edge">
<title>:data:database&#45;&gt;:shared:domain</title>
<path fill="none" stroke="black" stroke-dasharray="1,5" d="M707.12,-274.83C707.12,-215.68 707.12,-24 707.12,-24 707.12,-24 662.93,-24 662.93,-24"/>
<polygon fill="black" stroke="black" points="662.93,-20.5 652.93,-24 662.93,-27.5 662.93,-20.5"/>
</g>
<!-- :data:database&#45;&gt;:core:coroutines -->
<g id="edge24" class="edge">
<title>:data:database&#45;&gt;:core:coroutines</title>
<path fill="none" stroke="black" stroke-dasharray="1,5" d="M631.77,-278.11C631.77,-278.11 631.77,-178.52 631.77,-178.52"/>
<polygon fill="black" stroke="black" points="635.27,-178.52 631.77,-168.52 628.27,-178.52 635.27,-178.52"/>
</g>
<!-- :data:database&#45;&gt;:data:musicbrainz -->
<g id="edge25" class="edge">
<title>:data:database&#45;&gt;:data:musicbrainz</title>
<path fill="none" stroke="black" stroke-dasharray="1,5" d="M758.19,-286.11C758.19,-286.11 758.19,-170.41 758.19,-170.41"/>
<polygon fill="black" stroke="black" points="761.69,-170.41 758.19,-160.41 754.69,-170.41 761.69,-170.41"/>
</g>
<!-- :data:musicbrainz&#45;&gt;:shared:domain -->
<g id="edge26" class="edge">
<title>:data:musicbrainz&#45;&gt;:shared:domain</title>
<path fill="none" stroke="black" stroke-dasharray="1,5" d="M841.85,-136.89C841.85,-98.41 841.85,-12 841.85,-12 841.85,-12 662.79,-12 662.79,-12"/>
<polygon fill="black" stroke="black" points="662.79,-8.5 652.79,-12 662.79,-15.5 662.79,-8.5"/>
</g>
<!-- :data:musicbrainz&#45;&gt;:core:logging:api -->
<g id="edge27" class="edge">
<title>:data:musicbrainz&#45;&gt;:core:logging:api</title>
<path fill="none" stroke="black" stroke-dasharray="1,5" d="M935.44,-148.39C935.44,-148.39 935.44,-34.54 935.44,-34.54"/>
<polygon fill="black" stroke="black" points="938.94,-34.54 935.44,-24.54 931.94,-34.54 938.94,-34.54"/>
</g>
<!-- :data:coverart&#45;&gt;:shared:domain -->
<g id="edge28" class="edge">
<title>:data:coverart&#45;&gt;:shared:domain</title>
<path fill="none" stroke="black" stroke-dasharray="1,5" d="M685.49,-429C598.09,-429 466.86,-429 466.86,-429 466.86,-429 466.86,-30 466.86,-30 466.86,-30 503.28,-30 503.28,-30"/>
<polygon fill="black" stroke="black" points="503.28,-33.5 513.28,-30 503.28,-26.5 503.28,-33.5"/>
</g>
<!-- :data:coverart&#45;&gt;:test&#45;data -->
<g id="edge31" class="edge">
<title>:data:coverart&#45;&gt;:test&#45;data</title>
<path fill="none" stroke="#ff9ab1" stroke-dasharray="1,5" d="M738.66,-446.35C738.66,-446.35 738.66,-540.48 738.66,-540.48"/>
<polygon fill="#ff9ab1" stroke="#ff9ab1" points="735.16,-540.48 738.66,-550.48 742.16,-540.48 735.16,-540.48"/>
</g>
<!-- :data:coverart&#45;&gt;:core:coroutines -->
<g id="edge30" class="edge">
<title>:data:coverart&#45;&gt;:core:coroutines</title>
<path fill="none" stroke="black" stroke-dasharray="1,5" d="M695.97,-420C640.6,-420 570.43,-420 570.43,-420 570.43,-420 570.43,-183.21 570.43,-183.21"/>
<polygon fill="black" stroke="black" points="573.93,-183.21 570.43,-173.21 566.93,-183.21 573.93,-183.21"/>
</g>
<!-- :data:coverart&#45;&gt;:core:logging:api -->
<g id="edge29" class="edge">
<title>:data:coverart&#45;&gt;:core:logging:api</title>
<path fill="none" stroke="black" stroke-dasharray="1,5" d="M837.99,-429C893.95,-429 960.27,-429 960.27,-429 960.27,-429 960.27,-41.67 960.27,-41.67"/>
<polygon fill="black" stroke="black" points="963.77,-41.67 960.27,-31.67 956.77,-41.67 963.77,-41.67"/>
</g>
<!-- :data:coverart&#45;&gt;:data:database -->
<g id="edge33" class="edge">
<title>:data:coverart&#45;&gt;:data:database</title>
<path fill="none" stroke="#ff9ab1" stroke-dasharray="1,5" d="M723.97,-413.28C723.97,-413.28 723.97,-317.53 723.97,-317.53"/>
<polygon fill="#ff9ab1" stroke="#ff9ab1" points="727.47,-317.53 723.97,-307.53 720.47,-317.53 727.47,-317.53"/>
</g>
<!-- :data:coverart&#45;&gt;:data:musicbrainz -->
<g id="edge32" class="edge">
<title>:data:coverart&#45;&gt;:data:musicbrainz</title>
<path fill="none" stroke="#ff9ab1" stroke-dasharray="1,5" d="M800.01,-413.08C800.01,-413.08 800.01,-180.62 800.01,-180.62"/>
<polygon fill="#ff9ab1" stroke="#ff9ab1" points="803.51,-180.62 800.01,-170.62 796.51,-180.62 803.51,-180.62"/>
</g>
<!-- :data:spotify&#45;&gt;:shared:domain -->
<g id="edge34" class="edge">
<title>:data:spotify&#45;&gt;:shared:domain</title>
<path fill="none" stroke="black" stroke-dasharray="1,5" d="M1034.04,-139C1034.04,-118.61 1034.04,-86 1034.04,-86 1034.04,-86 574.84,-86 574.84,-86 574.84,-86 574.84,-46.22 574.84,-46.22"/>
<polygon fill="black" stroke="black" points="578.34,-46.22 574.84,-36.22 571.34,-46.22 578.34,-46.22"/>
</g>
<!-- :data:spotify&#45;&gt;:core:logging:api -->
<g id="edge35" class="edge">
<title>:data:spotify&#45;&gt;:core:logging:api</title>
<path fill="none" stroke="black" stroke-dasharray="1,5" d="M1070.14,-136.81C1070.14,-136.81 1070.14,-42.9 1070.14,-42.9"/>
<polygon fill="black" stroke="black" points="1073.64,-42.9 1070.14,-32.9 1066.64,-42.9 1073.64,-42.9"/>
</g>
</g>
</svg>
