<?xml version="1.0" encoding="UTF-8" standalone="no"?>
<!DOCTYPE svg PUBLIC "-//W3C//DTD SVG 1.1//EN"
 "http://www.w3.org/Graphics/SVG/1.1/DTD/svg11.dtd">
<!-- Generated by graphviz version 2.43.0 (0)
 -->
<!-- Title: %3 Pages: 1 -->
<svg width="1119pt" height="940pt"
 viewBox="0.00 0.00 1119.23 940.00" xmlns="http://www.w3.org/2000/svg" xmlns:xlink="http://www.w3.org/1999/xlink">
<g id="graph0" class="graph" transform="scale(1 1) rotate(0) translate(4 936)">
<title>%3</title>
<polygon fill="white" stroke="transparent" points="-4,4 -4,-936 1115.23,-936 1115.23,4 -4,4"/>
<text text-anchor="middle" x="555.62" y="-904" font-family="Times,serif" font-size="30.00">Dependencies</text>
<text text-anchor="middle" x="555.62" y="-871" font-family="Times,serif" font-size="30.00"> </text>
<!-- :shared:feature:graph -->
<g id="node1" class="node">
<title>:shared:feature:graph</title>
<polygon fill="#b59aff" stroke="black" points="426.34,-858 253.34,-858 253.34,-822 426.34,-822 426.34,-858"/>
<text text-anchor="middle" x="339.84" y="-836.3" font-family="Times,serif" font-size="14.00">:shared:feature:graph</text>
</g>
<!-- :ui:test:screenshot -->
<g id="node2" class="node">
<title>:ui:test:screenshot</title>
<ellipse fill="#9affb5" stroke="black" cx="96.84" cy="-566" rx="96.68" ry="18"/>
<text text-anchor="middle" x="96.84" y="-562.3" font-family="Times,serif" font-size="14.00">:ui:test:screenshot</text>
</g>
<!-- :shared:feature:graph&#45;&gt;:ui:test:screenshot -->
<g id="edge1" class="edge">
<title>:shared:feature:graph&#45;&gt;:ui:test:screenshot</title>
<path fill="none" stroke="#ff9ab1" stroke-dasharray="1,5" d="M253.12,-840C172.43,-840 64.56,-840 64.56,-840 64.56,-840 64.56,-593.14 64.56,-593.14"/>
<polygon fill="#ff9ab1" stroke="#ff9ab1" points="68.06,-593.14 64.56,-583.14 61.06,-593.14 68.06,-593.14"/>
</g>
<!-- :ui:common -->
<g id="node3" class="node">
<title>:ui:common</title>
<ellipse fill="#b59aff" stroke="black" cx="404.84" cy="-703" rx="64.19" ry="18"/>
<text text-anchor="middle" x="404.84" y="-699.3" font-family="Times,serif" font-size="14.00">:ui:common</text>
</g>
<!-- :shared:feature:graph&#45;&gt;:ui:common -->
<g id="edge2" class="edge">
<title>:shared:feature:graph&#45;&gt;:ui:common</title>
<path fill="none" stroke="black" stroke-dasharray="1,5" d="M383.42,-821.81C383.42,-821.81 383.42,-729.97 383.42,-729.97"/>
<polygon fill="black" stroke="black" points="386.92,-729.97 383.42,-719.97 379.92,-729.97 386.92,-729.97"/>
</g>
<!-- :shared:domain -->
<g id="node4" class="node">
<title>:shared:domain</title>
<ellipse fill="#b59aff" stroke="black" cx="694.84" cy="-18" rx="82.59" ry="18"/>
<text text-anchor="middle" x="694.84" y="-14.3" font-family="Times,serif" font-size="14.00">:shared:domain</text>
</g>
<!-- :shared:feature:graph&#45;&gt;:shared:domain -->
<g id="edge3" class="edge">
<title>:shared:feature:graph&#45;&gt;:shared:domain</title>
<path fill="none" stroke="black" stroke-dasharray="1,5" d="M426.42,-840C461.23,-840 493.28,-840 493.28,-840 493.28,-840 493.28,-240 493.28,-240 493.28,-240 631.97,-240 631.97,-240 631.97,-240 631.97,-39.94 631.97,-39.94"/>
<polygon fill="black" stroke="black" points="635.47,-39.94 631.97,-29.94 628.47,-39.94 635.47,-39.94"/>
</g>
<!-- :ui:image -->
<g id="node5" class="node">
<title>:ui:image</title>
<ellipse fill="#b59aff" stroke="black" cx="265.84" cy="-566" rx="53.89" ry="18"/>
<text text-anchor="middle" x="265.84" y="-562.3" font-family="Times,serif" font-size="14.00">:ui:image</text>
</g>
<!-- :shared:feature:graph&#45;&gt;:ui:image -->
<g id="edge4" class="edge">
<title>:shared:feature:graph&#45;&gt;:ui:image</title>
<path fill="none" stroke="black" stroke-dasharray="1,5" d="M286.56,-821.6C286.56,-821.6 286.56,-592.91 286.56,-592.91"/>
<polygon fill="black" stroke="black" points="290.06,-592.91 286.56,-582.91 283.06,-592.91 290.06,-592.91"/>
</g>
<!-- :ui:core -->
<g id="node6" class="node">
<title>:ui:core</title>
<ellipse fill="#b59aff" stroke="black" cx="268.84" cy="-429" rx="45.49" ry="18"/>
<text text-anchor="middle" x="268.84" y="-425.3" font-family="Times,serif" font-size="14.00">:ui:core</text>
</g>
<!-- :ui:test:screenshot&#45;&gt;:ui:core -->
<g id="edge5" class="edge">
<title>:ui:test:screenshot&#45;&gt;:ui:core</title>
<path fill="none" stroke="black" stroke-dasharray="1,5" d="M163.74,-552.86C163.74,-518.57 163.74,-429 163.74,-429 163.74,-429 213.05,-429 213.05,-429"/>
<polygon fill="black" stroke="black" points="213.05,-432.5 223.05,-429 213.05,-425.5 213.05,-432.5"/>
</g>
<!-- :test:image -->
<g id="node7" class="node">
<title>:test:image</title>
<ellipse fill="#9affb5" stroke="black" cx="72.84" cy="-429" rx="63.09" ry="18"/>
<text text-anchor="middle" x="72.84" y="-425.3" font-family="Times,serif" font-size="14.00">:test:image</text>
</g>
<!-- :ui:test:screenshot&#45;&gt;:test:image -->
<g id="edge6" class="edge">
<title>:ui:test:screenshot&#45;&gt;:test:image</title>
<path fill="none" stroke="black" stroke-dasharray="1,5" d="M72.84,-548.37C72.84,-548.37 72.84,-457.44 72.84,-457.44"/>
<polygon fill="black" stroke="black" points="76.34,-457.44 72.84,-447.44 69.34,-457.44 76.34,-457.44"/>
</g>
<!-- :ui:common&#45;&gt;:ui:test:screenshot -->
<g id="edge8" class="edge">
<title>:ui:common&#45;&gt;:ui:test:screenshot</title>
<path fill="none" stroke="#ff9ab1" stroke-dasharray="1,5" d="M340.2,-703C258.7,-703 129.12,-703 129.12,-703 129.12,-703 129.12,-593.07 129.12,-593.07"/>
<polygon fill="#ff9ab1" stroke="#ff9ab1" points="132.62,-593.07 129.12,-583.07 125.62,-593.07 132.62,-593.07"/>
</g>
<!-- :ui:common&#45;&gt;:shared:domain -->
<g id="edge10" class="edge">
<title>:ui:common&#45;&gt;:shared:domain</title>
<path fill="none" stroke="black" d="M416.49,-685.19C416.49,-578.06 416.49,-24 416.49,-24 416.49,-24 606.94,-24 606.94,-24"/>
<polygon fill="black" stroke="black" points="606.94,-27.5 616.94,-24 606.94,-20.5 606.94,-27.5"/>
</g>
<!-- :ui:common&#45;&gt;:ui:image -->
<g id="edge15" class="edge">
<title>:ui:common&#45;&gt;:ui:image</title>
<path fill="none" stroke="black" stroke-dasharray="1,5" d="M345.03,-696.2C345.03,-668.03 345.03,-562 345.03,-562 345.03,-562 328.66,-562 328.66,-562"/>
<polygon fill="black" stroke="black" points="328.66,-558.5 318.66,-562 328.66,-565.5 328.66,-558.5"/>
</g>
<!-- :ui:common&#45;&gt;:ui:core -->
<g id="edge11" class="edge">
<title>:ui:common&#45;&gt;:ui:core</title>
<path fill="none" stroke="black" d="M349.56,-693.68C349.56,-647 349.56,-441 349.56,-441 349.56,-441 313.07,-441 313.07,-441"/>
<polygon fill="black" stroke="black" points="313.07,-437.5 303.07,-441 313.07,-444.5 313.07,-437.5"/>
</g>
<!-- :test&#45;data -->
<g id="node8" class="node">
<title>:test&#45;data</title>
<ellipse fill="#b59aff" stroke="black" cx="732.84" cy="-566" rx="55.49" ry="18"/>
<text text-anchor="middle" x="732.84" y="-562.3" font-family="Times,serif" font-size="14.00">:test&#45;data</text>
</g>
<!-- :ui:common&#45;&gt;:test&#45;data -->
<g id="edge7" class="edge">
<title>:ui:common&#45;&gt;:test&#45;data</title>
<path fill="none" stroke="#ff9ab1" stroke-dasharray="1,5" d="M463.81,-695.44C463.81,-668.1 463.81,-576 463.81,-576 463.81,-576 676.9,-576 676.9,-576"/>
<polygon fill="#ff9ab1" stroke="#ff9ab1" points="676.9,-579.5 686.9,-576 676.9,-572.5 676.9,-579.5"/>
</g>
<!-- :core:coroutines -->
<g id="node9" class="node">
<title>:core:coroutines</title>
<ellipse fill="#b59aff" stroke="black" cx="532.84" cy="-155" rx="85.29" ry="18"/>
<text text-anchor="middle" x="532.84" y="-151.3" font-family="Times,serif" font-size="14.00">:core:coroutines</text>
</g>
<!-- :ui:common&#45;&gt;:core:coroutines -->
<g id="edge9" class="edge">
<title>:ui:common&#45;&gt;:core:coroutines</title>
<path fill="none" stroke="#ff9ab1" stroke-dasharray="1,5" d="M453.07,-691.04C453.07,-691.04 453.07,-171.47 453.07,-171.47"/>
<polygon fill="#ff9ab1" stroke="#ff9ab1" points="456.57,-171.47 453.07,-161.47 449.57,-171.47 456.57,-171.47"/>
</g>
<!-- :data:coverart -->
<g id="node10" class="node">
<title>:data:coverart</title>
<ellipse fill="#b59aff" stroke="black" cx="893.84" cy="-429" rx="76.09" ry="18"/>
<text text-anchor="middle" x="893.84" y="-425.3" font-family="Times,serif" font-size="14.00">:data:coverart</text>
</g>
<!-- :ui:common&#45;&gt;:data:coverart -->
<g id="edge12" class="edge">
<title>:ui:common&#45;&gt;:data:coverart</title>
<path fill="none" stroke="black" stroke-dasharray="1,5" d="M458.44,-692.81C458.44,-642.84 458.44,-426 458.44,-426 458.44,-426 808.5,-426 808.5,-426"/>
<polygon fill="black" stroke="black" points="808.5,-429.5 818.5,-426 808.5,-422.5 808.5,-429.5"/>
</g>
<!-- :data:musicbrainz -->
<g id="node11" class="node">
<title>:data:musicbrainz</title>
<ellipse fill="#b59aff" stroke="black" cx="961.84" cy="-155" rx="93.68" ry="18"/>
<text text-anchor="middle" x="961.84" y="-151.3" font-family="Times,serif" font-size="14.00">:data:musicbrainz</text>
</g>
<!-- :ui:common&#45;&gt;:data:musicbrainz -->
<g id="edge13" class="edge">
<title>:ui:common&#45;&gt;:data:musicbrainz</title>
<path fill="none" stroke="black" stroke-dasharray="1,5" d="M465.62,-697C622.15,-697 1026.92,-697 1026.92,-697 1026.92,-697 1026.92,-178.13 1026.92,-178.13"/>
<polygon fill="black" stroke="black" points="1030.42,-178.13 1026.92,-168.13 1023.42,-178.13 1030.42,-178.13"/>
</g>
<!-- :core:logging:api -->
<g id="node12" class="node">
<title>:core:logging:api</title>
<ellipse fill="#b59aff" stroke="black" cx="1022.84" cy="-18" rx="88.28" ry="18"/>
<text text-anchor="middle" x="1022.84" y="-14.3" font-family="Times,serif" font-size="14.00">:core:logging:api</text>
</g>
<!-- :ui:common&#45;&gt;:core:logging:api -->
<g id="edge14" class="edge">
<title>:ui:common&#45;&gt;:core:logging:api</title>
<path fill="none" stroke="black" stroke-dasharray="1,5" d="M465.65,-709C632.19,-709 1083.33,-709 1083.33,-709 1083.33,-709 1083.33,-41.19 1083.33,-41.19"/>
<polygon fill="black" stroke="black" points="1086.83,-41.19 1083.33,-31.19 1079.83,-41.19 1086.83,-41.19"/>
</g>
<!-- :ui:image&#45;&gt;:shared:domain -->
<g id="edge16" class="edge">
<title>:ui:image&#45;&gt;:shared:domain</title>
<path fill="none" stroke="black" stroke-dasharray="1,5" d="M308.63,-555C342.9,-555 385.29,-555 385.29,-555 385.29,-555 385.29,-12 385.29,-12 385.29,-12 606.73,-12 606.73,-12"/>
<polygon fill="black" stroke="black" points="606.73,-15.5 616.73,-12 606.73,-8.5 606.73,-15.5"/>
</g>
<!-- :ui:image&#45;&gt;:ui:core -->
<g id="edge17" class="edge">
<title>:ui:image&#45;&gt;:ui:core</title>
<path fill="none" stroke="black" stroke-dasharray="1,5" d="M268.84,-547.81C268.84,-547.81 268.84,-457.27 268.84,-457.27"/>
<polygon fill="black" stroke="black" points="272.34,-457.27 268.84,-447.27 265.34,-457.27 272.34,-457.27"/>
</g>
<!-- :shared:strings -->
<g id="node13" class="node">
<title>:shared:strings</title>
<ellipse fill="#b59aff" stroke="black" cx="272.84" cy="-292" rx="81.49" ry="18"/>
<text text-anchor="middle" x="272.84" y="-288.3" font-family="Times,serif" font-size="14.00">:shared:strings</text>
</g>
<!-- :ui:core&#45;&gt;:shared:strings -->
<g id="edge18" class="edge">
<title>:ui:core&#45;&gt;:shared:strings</title>
<path fill="none" stroke="black" d="M268.84,-410.81C268.84,-410.81 268.84,-320.27 268.84,-320.27"/>
<polygon fill="black" stroke="black" points="272.34,-320.27 268.84,-310.27 265.34,-320.27 272.34,-320.27"/>
</g>
<!-- :test&#45;data&#45;&gt;:shared:domain -->
<g id="edge19" class="edge">
<title>:test&#45;data&#45;&gt;:shared:domain</title>
<path fill="none" stroke="black" stroke-dasharray="1,5" d="M736.92,-547.65C736.92,-474.29 736.92,-206 736.92,-206 736.92,-206 659.96,-206 659.96,-206 659.96,-206 659.96,-44.35 659.96,-44.35"/>
<polygon fill="black" stroke="black" points="663.46,-44.35 659.96,-34.35 656.46,-44.35 663.46,-44.35"/>
</g>
<!-- :test&#45;data&#45;&gt;:core:coroutines -->
<g id="edge20" class="edge">
<title>:test&#45;data&#45;&gt;:core:coroutines</title>
<path fill="none" stroke="black" stroke-dasharray="1,5" d="M678.19,-569C614.35,-569 517.37,-569 517.37,-569 517.37,-569 517.37,-182.79 517.37,-182.79"/>
<polygon fill="black" stroke="black" points="520.87,-182.79 517.37,-172.79 513.87,-182.79 520.87,-182.79"/>
</g>
<!-- :test&#45;data&#45;&gt;:data:coverart -->
<g id="edge23" class="edge">
<title>:test&#45;data&#45;&gt;:data:coverart</title>
<path fill="none" stroke="black" stroke-dasharray="1,5" d="M775.3,-554.46C775.3,-522.65 775.3,-436 775.3,-436 775.3,-436 813.51,-436 813.51,-436"/>
<polygon fill="black" stroke="black" points="813.51,-439.5 823.51,-436 813.51,-432.5 813.51,-439.5"/>
</g>
<!-- :test&#45;data&#45;&gt;:data:musicbrainz -->
<g id="edge22" class="edge">
<title>:test&#45;data&#45;&gt;:data:musicbrainz</title>
<path fill="none" stroke="black" stroke-dasharray="1,5" d="M788.19,-566C866.02,-566 998.4,-566 998.4,-566 998.4,-566 998.4,-181.62 998.4,-181.62"/>
<polygon fill="black" stroke="black" points="1001.9,-181.62 998.4,-171.62 994.9,-181.62 1001.9,-181.62"/>
</g>
<!-- :data:database -->
<g id="node14" class="node">
<title>:data:database</title>
<ellipse fill="#b59aff" stroke="black" cx="644.84" cy="-292" rx="79.09" ry="18"/>
<text text-anchor="middle" x="644.84" y="-288.3" font-family="Times,serif" font-size="14.00">:data:database</text>
</g>
<!-- :test&#45;data&#45;&gt;:data:database -->
<g id="edge21" class="edge">
<title>:test&#45;data&#45;&gt;:data:database</title>
<path fill="none" stroke="black" stroke-dasharray="1,5" d="M693.11,-553.15C693.11,-553.15 693.11,-316.45 693.11,-316.45"/>
<polygon fill="black" stroke="black" points="696.61,-316.45 693.11,-306.45 689.61,-316.45 696.61,-316.45"/>
</g>
<!-- :data:spotify -->
<g id="node15" class="node">
<title>:data:spotify</title>
<ellipse fill="#b59aff" stroke="black" cx="742.84" cy="-155" rx="68.79" ry="18"/>
<text text-anchor="middle" x="742.84" y="-151.3" font-family="Times,serif" font-size="14.00">:data:spotify</text>
</g>
<!-- :test&#45;data&#45;&gt;:data:spotify -->
<g id="edge24" class="edge">
<title>:test&#45;data&#45;&gt;:data:spotify</title>
<path fill="none" stroke="black" stroke-dasharray="1,5" d="M749.72,-548.6C749.72,-548.6 749.72,-183.1 749.72,-183.1"/>
<polygon fill="black" stroke="black" points="753.22,-183.1 749.72,-173.1 746.22,-183.1 753.22,-183.1"/>
</g>
<!-- :data:coverart&#45;&gt;:shared:domain -->
<g id="edge25" class="edge">
<title>:data:coverart&#45;&gt;:shared:domain</title>
<path fill="none" stroke="black" stroke-dasharray="1,5" d="M834.62,-417.43C834.62,-351.68 834.62,-28 834.62,-28 834.62,-28 773.5,-28 773.5,-28"/>
<polygon fill="black" stroke="black" points="773.5,-24.5 763.5,-28 773.5,-31.5 773.5,-24.5"/>
</g>
<!-- :data:coverart&#45;&gt;:test&#45;data -->
<g id="edge28" class="edge">
<title>:data:coverart&#45;&gt;:test&#45;data</title>
<path fill="none" stroke="#ff9ab1" stroke-dasharray="1,5" d="M818.2,-431C789.01,-431 762.51,-431 762.51,-431 762.51,-431 762.51,-540.78 762.51,-540.78"/>
<polygon fill="#ff9ab1" stroke="#ff9ab1" points="759.01,-540.78 762.51,-550.78 766.01,-540.78 759.01,-540.78"/>
</g>
<!-- :data:coverart&#45;&gt;:core:coroutines -->
<g id="edge27" class="edge">
<title>:data:coverart&#45;&gt;:core:coroutines</title>
<path fill="none" stroke="black" stroke-dasharray="1,5" d="M825.48,-421C723.01,-421 541.46,-421 541.46,-421 541.46,-421 541.46,-183.28 541.46,-183.28"/>
<polygon fill="black" stroke="black" points="544.96,-183.28 541.46,-173.28 537.96,-183.28 544.96,-183.28"/>
</g>
<!-- :data:coverart&#45;&gt;:data:musicbrainz -->
<g id="edge29" class="edge">
<title>:data:coverart&#45;&gt;:data:musicbrainz</title>
<path fill="none" stroke="#ff9ab1" stroke-dasharray="1,5" d="M936.01,-413.88C936.01,-413.88 936.01,-182.51 936.01,-182.51"/>
<polygon fill="#ff9ab1" stroke="#ff9ab1" points="939.51,-182.51 936.01,-172.51 932.51,-182.51 939.51,-182.51"/>
</g>
<!-- :data:coverart&#45;&gt;:core:logging:api -->
<g id="edge26" class="edge">
<title>:data:coverart&#45;&gt;:core:logging:api</title>
<path fill="none" stroke="black" stroke-dasharray="1,5" d="M851.43,-414C851.43,-340.39 851.43,-21 851.43,-21 851.43,-21 925.63,-21 925.63,-21"/>
<polygon fill="black" stroke="black" points="925.63,-24.5 935.63,-21 925.63,-17.5 925.63,-24.5"/>
</g>
<!-- :data:coverart&#45;&gt;:data:database -->
<g id="edge30" class="edge">
<title>:data:coverart&#45;&gt;:data:database</title>
<path fill="none" stroke="#ff9ab1" stroke-dasharray="1,5" d="M840.76,-416C786.03,-416 708.62,-416 708.62,-416 708.62,-416 708.62,-313 708.62,-313"/>
<polygon fill="#ff9ab1" stroke="#ff9ab1" points="712.12,-313 708.62,-303 705.12,-313 712.12,-313"/>
</g>
<!-- :data:musicbrainz&#45;&gt;:shared:domain -->
<g id="edge31" class="edge">
<title>:data:musicbrainz&#45;&gt;:shared:domain</title>
<path fill="none" stroke="black" stroke-dasharray="1,5" d="M901.35,-141.08C901.35,-104.23 901.35,-7 901.35,-7 901.35,-7 770.18,-7 770.18,-7"/>
<polygon fill="black" stroke="black" points="770.18,-3.5 760.18,-7 770.18,-10.5 770.18,-3.5"/>
</g>
<!-- :data:musicbrainz&#45;&gt;:core:logging:api -->
<g id="edge32" class="edge">
<title>:data:musicbrainz&#45;&gt;:core:logging:api</title>
<path fill="none" stroke="black" stroke-dasharray="1,5" d="M994.94,-137.93C994.94,-137.93 994.94,-45.29 994.94,-45.29"/>
<polygon fill="black" stroke="black" points="998.44,-45.29 994.94,-35.29 991.44,-45.29 998.44,-45.29"/>
</g>
<!-- :data:database&#45;&gt;:shared:domain -->
<g id="edge33" class="edge">
<title>:data:database&#45;&gt;:shared:domain</title>
<path fill="none" stroke="black" stroke-dasharray="1,5" d="M645.97,-273.6C645.97,-273.6 645.97,-42.56 645.97,-42.56"/>
<polygon fill="black" stroke="black" points="649.47,-42.56 645.97,-32.56 642.47,-42.56 649.47,-42.56"/>
</g>
<!-- :data:database&#45;&gt;:core:coroutines -->
<g id="edge34" class="edge">
<title>:data:database&#45;&gt;:core:coroutines</title>
<path fill="none" stroke="black" stroke-dasharray="1,5" d="M591.77,-278.61C591.77,-278.61 591.77,-178.24 591.77,-178.24"/>
<polygon fill="black" stroke="black" points="595.27,-178.24 591.77,-168.24 588.27,-178.24 595.27,-178.24"/>
</g>
<!-- :data:database&#45;&gt;:data:musicbrainz -->
<g id="edge35" class="edge">
<title>:data:database&#45;&gt;:data:musicbrainz</title>
<path fill="none" stroke="black" stroke-dasharray="1,5" d="M724.14,-292C799.73,-292 902.13,-292 902.13,-292 902.13,-292 902.13,-178.89 902.13,-178.89"/>
<polygon fill="black" stroke="black" points="905.63,-178.89 902.13,-168.89 898.63,-178.89 905.63,-178.89"/>
</g>
<!-- :data:spotify&#45;&gt;:shared:domain -->
<g id="edge36" class="edge">
<title>:data:spotify&#45;&gt;:shared:domain</title>
<path fill="none" stroke="black" stroke-dasharray="1,5" d="M725.67,-137.37C725.67,-137.37 725.67,-44.7 725.67,-44.7"/>
<polygon fill="black" stroke="black" points="729.17,-44.7 725.67,-34.7 722.17,-44.7 729.17,-44.7"/>
</g>
<!-- :data:spotify&#45;&gt;:core:logging:api -->
<g id="edge37" class="edge">
<title>:data:spotify&#45;&gt;:core:logging:api</title>
<path fill="none" stroke="black" stroke-dasharray="1,5" d="M794.56,-142.98C794.56,-108.88 794.56,-14 794.56,-14 794.56,-14 926.54,-14 926.54,-14"/>
<polygon fill="black" stroke="black" points="926.54,-17.5 936.54,-14 926.54,-10.5 926.54,-17.5"/>
</g>
</g>
</svg>
