<?xml version="1.0" encoding="UTF-8" standalone="no"?>
<!DOCTYPE svg PUBLIC "-//W3C//DTD SVG 1.1//EN"
 "http://www.w3.org/Graphics/SVG/1.1/DTD/svg11.dtd">
<!-- Generated by graphviz version 2.43.0 (0)
 -->
<!-- Title: %3 Pages: 1 -->
<svg width="1087pt" height="1077pt"
 viewBox="0.00 0.00 1087.23 1077.00" xmlns="http://www.w3.org/2000/svg" xmlns:xlink="http://www.w3.org/1999/xlink">
<g id="graph0" class="graph" transform="scale(1 1) rotate(0) translate(4 1073)">
<title>%3</title>
<polygon fill="white" stroke="transparent" points="-4,4 -4,-1073 1083.23,-1073 1083.23,4 -4,4"/>
<text text-anchor="middle" x="539.62" y="-1041" font-family="Times,serif" font-size="30.00">Dependencies</text>
<text text-anchor="middle" x="539.62" y="-1008" font-family="Times,serif" font-size="30.00"> </text>
<!-- :shared:feature:graph -->
<g id="node1" class="node">
<title>:shared:feature:graph</title>
<polygon fill="#b59aff" stroke="black" points="309.34,-995 136.34,-995 136.34,-959 309.34,-959 309.34,-995"/>
<text text-anchor="middle" x="222.84" y="-973.3" font-family="Times,serif" font-size="14.00">:shared:feature:graph</text>
</g>
<!-- :ui:test:screenshot -->
<g id="node2" class="node">
<title>:ui:test:screenshot</title>
<ellipse fill="#9affb5" stroke="black" cx="96.84" cy="-703" rx="96.68" ry="18"/>
<text text-anchor="middle" x="96.84" y="-699.3" font-family="Times,serif" font-size="14.00">:ui:test:screenshot</text>
</g>
<!-- :shared:feature:graph&#45;&gt;:ui:test:screenshot -->
<g id="edge1" class="edge">
<title>:shared:feature:graph&#45;&gt;:ui:test:screenshot</title>
<path fill="none" stroke="#ff9ab1" stroke-dasharray="1,5" d="M155.46,-958.6C155.46,-958.6 155.46,-727.56 155.46,-727.56"/>
<polygon fill="#ff9ab1" stroke="#ff9ab1" points="158.96,-727.56 155.46,-717.56 151.96,-727.56 158.96,-727.56"/>
</g>
<!-- :ui:common -->
<g id="node3" class="node">
<title>:ui:common</title>
<ellipse fill="#b59aff" stroke="black" cx="404.84" cy="-840" rx="64.19" ry="18"/>
<text text-anchor="middle" x="404.84" y="-836.3" font-family="Times,serif" font-size="14.00">:ui:common</text>
</g>
<!-- :shared:feature:graph&#45;&gt;:ui:common -->
<g id="edge2" class="edge">
<title>:shared:feature:graph&#45;&gt;:ui:common</title>
<path fill="none" stroke="black" stroke-dasharray="1,5" d="M276.86,-958.93C276.86,-923.65 276.86,-849 276.86,-849 276.86,-849 339.08,-849 339.08,-849"/>
<polygon fill="black" stroke="black" points="339.08,-852.5 349.08,-849 339.08,-845.5 339.08,-852.5"/>
</g>
<!-- :shared:domain -->
<g id="node4" class="node">
<title>:shared:domain</title>
<ellipse fill="#b59aff" stroke="black" cx="385.84" cy="-18" rx="82.59" ry="18"/>
<text text-anchor="middle" x="385.84" y="-14.3" font-family="Times,serif" font-size="14.00">:shared:domain</text>
</g>
<!-- :shared:feature:graph&#45;&gt;:shared:domain -->
<g id="edge3" class="edge">
<title>:shared:feature:graph&#45;&gt;:shared:domain</title>
<path fill="none" stroke="black" stroke-dasharray="1,5" d="M309.45,-977C321.65,-977 330.14,-977 330.14,-977 330.14,-977 330.14,-41.56 330.14,-41.56"/>
<polygon fill="black" stroke="black" points="333.64,-41.56 330.14,-31.56 326.64,-41.56 333.64,-41.56"/>
</g>
<!-- :ui:image -->
<g id="node5" class="node">
<title>:ui:image</title>
<ellipse fill="#b59aff" stroke="black" cx="265.84" cy="-703" rx="53.89" ry="18"/>
<text text-anchor="middle" x="265.84" y="-699.3" font-family="Times,serif" font-size="14.00">:ui:image</text>
</g>
<!-- :shared:feature:graph&#45;&gt;:ui:image -->
<g id="edge4" class="edge">
<title>:shared:feature:graph&#45;&gt;:ui:image</title>
<path fill="none" stroke="black" stroke-dasharray="1,5" d="M244.38,-958.6C244.38,-958.6 244.38,-729.57 244.38,-729.57"/>
<polygon fill="black" stroke="black" points="247.88,-729.57 244.38,-719.57 240.88,-729.57 247.88,-729.57"/>
</g>
<!-- :ui:core -->
<g id="node6" class="node">
<title>:ui:core</title>
<ellipse fill="#b59aff" stroke="black" cx="198.84" cy="-566" rx="45.49" ry="18"/>
<text text-anchor="middle" x="198.84" y="-562.3" font-family="Times,serif" font-size="14.00">:ui:core</text>
</g>
<!-- :ui:test:screenshot&#45;&gt;:ui:core -->
<g id="edge5" class="edge">
<title>:ui:test:screenshot&#45;&gt;:ui:core</title>
<path fill="none" stroke="black" stroke-dasharray="1,5" d="M173.51,-691.79C173.51,-691.79 173.51,-591.05 173.51,-591.05"/>
<polygon fill="black" stroke="black" points="177.01,-591.05 173.51,-581.05 170.01,-591.05 177.01,-591.05"/>
</g>
<!-- :test:image -->
<g id="node7" class="node">
<title>:test:image</title>
<ellipse fill="#9affb5" stroke="black" cx="71.84" cy="-566" rx="63.09" ry="18"/>
<text text-anchor="middle" x="71.84" y="-562.3" font-family="Times,serif" font-size="14.00">:test:image</text>
</g>
<!-- :ui:test:screenshot&#45;&gt;:test:image -->
<g id="edge6" class="edge">
<title>:ui:test:screenshot&#45;&gt;:test:image</title>
<path fill="none" stroke="black" stroke-dasharray="1,5" d="M71.84,-685.37C71.84,-685.37 71.84,-594.44 71.84,-594.44"/>
<polygon fill="black" stroke="black" points="75.34,-594.44 71.84,-584.44 68.34,-594.44 75.34,-594.44"/>
</g>
<!-- :ui:common&#45;&gt;:ui:test:screenshot -->
<g id="edge8" class="edge">
<title>:ui:common&#45;&gt;:ui:test:screenshot</title>
<path fill="none" stroke="#ff9ab1" stroke-dasharray="1,5" d="M340.39,-840C272.27,-840 174.57,-840 174.57,-840 174.57,-840 174.57,-723.75 174.57,-723.75"/>
<polygon fill="#ff9ab1" stroke="#ff9ab1" points="178.07,-723.75 174.57,-713.75 171.07,-723.75 178.07,-723.75"/>
</g>
<!-- :ui:common&#45;&gt;:shared:domain -->
<g id="edge10" class="edge">
<title>:ui:common&#45;&gt;:shared:domain</title>
<path fill="none" stroke="black" d="M364.9,-825.73C364.9,-825.73 364.9,-45.71 364.9,-45.71"/>
<polygon fill="black" stroke="black" points="368.4,-45.71 364.9,-35.71 361.4,-45.71 368.4,-45.71"/>
</g>
<!-- :ui:common&#45;&gt;:ui:image -->
<g id="edge15" class="edge">
<title>:ui:common&#45;&gt;:ui:image</title>
<path fill="none" stroke="black" stroke-dasharray="1,5" d="M348.95,-831C330.48,-831 314.56,-831 314.56,-831 314.56,-831 314.56,-721.01 314.56,-721.01"/>
<polygon fill="black" stroke="black" points="318.06,-721.01 314.56,-711.01 311.06,-721.01 318.06,-721.01"/>
</g>
<!-- :ui:common&#45;&gt;:ui:core -->
<g id="edge11" class="edge">
<title>:ui:common&#45;&gt;:ui:core</title>
<path fill="none" stroke="black" d="M352.7,-829.16C352.7,-779.02 352.7,-572 352.7,-572 352.7,-572 252.11,-572 252.11,-572"/>
<polygon fill="black" stroke="black" points="252.11,-568.5 242.11,-572 252.11,-575.5 252.11,-568.5"/>
</g>
<!-- :test&#45;data -->
<g id="node8" class="node">
<title>:test&#45;data</title>
<ellipse fill="#b59aff" stroke="black" cx="658.84" cy="-566" rx="55.49" ry="18"/>
<text text-anchor="middle" x="658.84" y="-562.3" font-family="Times,serif" font-size="14.00">:test&#45;data</text>
</g>
<!-- :ui:common&#45;&gt;:test&#45;data -->
<g id="edge7" class="edge">
<title>:ui:common&#45;&gt;:test&#45;data</title>
<path fill="none" stroke="#ff9ab1" stroke-dasharray="1,5" d="M441.03,-824.78C441.03,-768.86 441.03,-578 441.03,-578 441.03,-578 607.62,-578 607.62,-578"/>
<polygon fill="#ff9ab1" stroke="#ff9ab1" points="607.62,-581.5 617.62,-578 607.62,-574.5 607.62,-581.5"/>
</g>
<!-- :core:coroutines -->
<g id="node9" class="node">
<title>:core:coroutines</title>
<ellipse fill="#b59aff" stroke="black" cx="498.84" cy="-155" rx="85.29" ry="18"/>
<text text-anchor="middle" x="498.84" y="-151.3" font-family="Times,serif" font-size="14.00">:core:coroutines</text>
</g>
<!-- :ui:common&#45;&gt;:core:coroutines -->
<g id="edge9" class="edge">
<title>:ui:common&#45;&gt;:core:coroutines</title>
<path fill="none" stroke="#ff9ab1" stroke-dasharray="1,5" d="M427.37,-823.07C427.37,-823.07 427.37,-174.81 427.37,-174.81"/>
<polygon fill="#ff9ab1" stroke="#ff9ab1" points="430.87,-174.81 427.37,-164.81 423.87,-174.82 430.87,-174.81"/>
</g>
<!-- :data:repository -->
<g id="node10" class="node">
<title>:data:repository</title>
<ellipse fill="#b59aff" stroke="black" cx="539.84" cy="-703" rx="85.29" ry="18"/>
<text text-anchor="middle" x="539.84" y="-699.3" font-family="Times,serif" font-size="14.00">:data:repository</text>
</g>
<!-- :ui:common&#45;&gt;:data:repository -->
<g id="edge12" class="edge">
<title>:ui:common&#45;&gt;:data:repository</title>
<path fill="none" stroke="black" stroke-dasharray="1,5" d="M461.94,-831.43C461.94,-831.43 461.94,-720.54 461.94,-720.54"/>
<polygon fill="black" stroke="black" points="465.44,-720.54 461.94,-710.54 458.44,-720.54 465.44,-720.54"/>
</g>
<!-- :data:musicbrainz -->
<g id="node11" class="node">
<title>:data:musicbrainz</title>
<ellipse fill="#b59aff" stroke="black" cx="771.84" cy="-155" rx="93.68" ry="18"/>
<text text-anchor="middle" x="771.84" y="-151.3" font-family="Times,serif" font-size="14.00">:data:musicbrainz</text>
</g>
<!-- :ui:common&#45;&gt;:data:musicbrainz -->
<g id="edge13" class="edge">
<title>:ui:common&#45;&gt;:data:musicbrainz</title>
<path fill="none" stroke="black" stroke-dasharray="1,5" d="M465.87,-834C585.04,-834 837.17,-834 837.17,-834 837.17,-834 837.17,-177.96 837.17,-177.96"/>
<polygon fill="black" stroke="black" points="840.67,-177.96 837.17,-167.96 833.67,-177.96 840.67,-177.96"/>
</g>
<!-- :core:logging:api -->
<g id="node12" class="node">
<title>:core:logging:api</title>
<ellipse fill="#b59aff" stroke="black" cx="990.84" cy="-18" rx="88.28" ry="18"/>
<text text-anchor="middle" x="990.84" y="-14.3" font-family="Times,serif" font-size="14.00">:core:logging:api</text>
</g>
<!-- :ui:common&#45;&gt;:core:logging:api -->
<g id="edge14" class="edge">
<title>:ui:common&#45;&gt;:core:logging:api</title>
<path fill="none" stroke="black" stroke-dasharray="1,5" d="M465.73,-846C601.67,-846 918.05,-846 918.05,-846 918.05,-846 918.05,-38.47 918.05,-38.47"/>
<polygon fill="black" stroke="black" points="921.55,-38.47 918.05,-28.47 914.55,-38.47 921.55,-38.47"/>
</g>
<!-- :ui:image&#45;&gt;:shared:domain -->
<g id="edge16" class="edge">
<title>:ui:image&#45;&gt;:shared:domain</title>
<path fill="none" stroke="black" stroke-dasharray="1,5" d="M311.54,-693.32C311.54,-693.32 311.54,-35.95 311.54,-35.95"/>
<polygon fill="black" stroke="black" points="315.04,-35.95 311.54,-25.95 308.04,-35.95 315.04,-35.95"/>
</g>
<!-- :ui:image&#45;&gt;:ui:core -->
<g id="edge17" class="edge">
<title>:ui:image&#45;&gt;:ui:core</title>
<path fill="none" stroke="black" stroke-dasharray="1,5" d="M228.12,-690.11C228.12,-690.11 228.12,-590.18 228.12,-590.18"/>
<polygon fill="black" stroke="black" points="231.62,-590.18 228.12,-580.18 224.62,-590.18 231.62,-590.18"/>
</g>
<!-- :shared:strings -->
<g id="node13" class="node">
<title>:shared:strings</title>
<ellipse fill="#b59aff" stroke="black" cx="162.84" cy="-429" rx="81.49" ry="18"/>
<text text-anchor="middle" x="162.84" y="-425.3" font-family="Times,serif" font-size="14.00">:shared:strings</text>
</g>
<!-- :ui:core&#45;&gt;:shared:strings -->
<g id="edge18" class="edge">
<title>:ui:core&#45;&gt;:shared:strings</title>
<path fill="none" stroke="black" d="M198.71,-547.81C198.71,-547.81 198.71,-455.55 198.71,-455.55"/>
<polygon fill="black" stroke="black" points="202.21,-455.55 198.71,-445.55 195.21,-455.55 202.21,-455.55"/>
</g>
<!-- :test&#45;data&#45;&gt;:shared:domain -->
<g id="edge19" class="edge">
<title>:test&#45;data&#45;&gt;:shared:domain</title>
<path fill="none" stroke="black" stroke-dasharray="1,5" d="M603.32,-566C524.41,-566 389.3,-566 389.3,-566 389.3,-566 389.3,-46.23 389.3,-46.23"/>
<polygon fill="black" stroke="black" points="392.8,-46.23 389.3,-36.23 385.8,-46.23 392.8,-46.23"/>
</g>
<!-- :test&#45;data&#45;&gt;:core:coroutines -->
<g id="edge20" class="edge">
<title>:test&#45;data&#45;&gt;:core:coroutines</title>
<path fill="none" stroke="black" stroke-dasharray="1,5" d="M606.4,-560C557.37,-560 491.65,-560 491.65,-560 491.65,-560 491.65,-183.19 491.65,-183.19"/>
<polygon fill="black" stroke="black" points="495.15,-183.19 491.65,-173.19 488.15,-183.19 495.15,-183.19"/>
</g>
<!-- :test&#45;data&#45;&gt;:data:musicbrainz -->
<g id="edge22" class="edge">
<title>:test&#45;data&#45;&gt;:data:musicbrainz</title>
<path fill="none" stroke="black" stroke-dasharray="1,5" d="M711.21,-560C744.22,-560 780.65,-560 780.65,-560 780.65,-560 780.65,-182.92 780.65,-182.92"/>
<polygon fill="black" stroke="black" points="784.15,-182.92 780.65,-172.92 777.15,-182.92 784.15,-182.92"/>
</g>
<!-- :data:database -->
<g id="node14" class="node">
<title>:data:database</title>
<ellipse fill="#b59aff" stroke="black" cx="644.84" cy="-292" rx="79.09" ry="18"/>
<text text-anchor="middle" x="644.84" y="-288.3" font-family="Times,serif" font-size="14.00">:data:database</text>
</g>
<!-- :test&#45;data&#45;&gt;:data:database -->
<g id="edge21" class="edge">
<title>:test&#45;data&#45;&gt;:data:database</title>
<path fill="none" stroke="black" stroke-dasharray="1,5" d="M617.54,-554C585.7,-554 547.07,-554 547.07,-554 547.07,-554 547.07,-298 547.07,-298 547.07,-298 559.75,-298 559.75,-298"/>
<polygon fill="black" stroke="black" points="559.75,-301.5 569.75,-298 559.75,-294.5 559.75,-301.5"/>
</g>
<!-- :data:coverart -->
<g id="node15" class="node">
<title>:data:coverart</title>
<ellipse fill="#b59aff" stroke="black" cx="641.84" cy="-429" rx="76.09" ry="18"/>
<text text-anchor="middle" x="641.84" y="-425.3" font-family="Times,serif" font-size="14.00">:data:coverart</text>
</g>
<!-- :test&#45;data&#45;&gt;:data:coverart -->
<g id="edge23" class="edge">
<title>:test&#45;data&#45;&gt;:data:coverart</title>
<path fill="none" stroke="black" stroke-dasharray="1,5" d="M640.43,-548.93C640.43,-548.93 640.43,-457.16 640.43,-457.16"/>
<polygon fill="black" stroke="black" points="643.93,-457.16 640.43,-447.16 636.93,-457.16 643.93,-457.16"/>
</g>
<!-- :data:spotify -->
<g id="node16" class="node">
<title>:data:spotify</title>
<ellipse fill="#b59aff" stroke="black" cx="990.84" cy="-155" rx="68.79" ry="18"/>
<text text-anchor="middle" x="990.84" y="-151.3" font-family="Times,serif" font-size="14.00">:data:spotify</text>
</g>
<!-- :test&#45;data&#45;&gt;:data:spotify -->
<g id="edge24" class="edge">
<title>:test&#45;data&#45;&gt;:data:spotify</title>
<path fill="none" stroke="black" stroke-dasharray="1,5" d="M711.08,-572C804.58,-572 990.84,-572 990.84,-572 990.84,-572 990.84,-183.19 990.84,-183.19"/>
<polygon fill="black" stroke="black" points="994.34,-183.19 990.84,-173.19 987.34,-183.19 994.34,-183.19"/>
</g>
<!-- :data:repository&#45;&gt;:shared:domain -->
<g id="edge25" class="edge">
<title>:data:repository&#45;&gt;:shared:domain</title>
<path fill="none" stroke="black" stroke-dasharray="1,5" d="M454.66,-703C415.28,-703 377.1,-703 377.1,-703 377.1,-703 377.1,-45.97 377.1,-45.97"/>
<polygon fill="black" stroke="black" points="380.6,-45.97 377.1,-35.97 373.6,-45.97 380.6,-45.97"/>
</g>
<!-- :data:repository&#45;&gt;:test&#45;data -->
<g id="edge30" class="edge">
<title>:data:repository&#45;&gt;:test&#45;data</title>
<path fill="none" stroke="#ff9ab1" stroke-dasharray="1,5" d="M614.29,-694.01C614.29,-694.01 614.29,-586.69 614.29,-586.69"/>
<polygon fill="#ff9ab1" stroke="#ff9ab1" points="617.79,-586.69 614.29,-576.69 610.79,-586.69 617.79,-586.69"/>
</g>
<!-- :data:repository&#45;&gt;:core:coroutines -->
<g id="edge31" class="edge">
<title>:data:repository&#45;&gt;:core:coroutines</title>
<path fill="none" stroke="#ff9ab1" stroke-dasharray="1,5" d="M473.17,-691.55C473.17,-691.55 473.17,-182.24 473.17,-182.24"/>
<polygon fill="#ff9ab1" stroke="#ff9ab1" points="476.67,-182.24 473.17,-172.24 469.67,-182.24 476.67,-182.24"/>
</g>
<!-- :data:repository&#45;&gt;:data:musicbrainz -->
<g id="edge27" class="edge">
<title>:data:repository&#45;&gt;:data:musicbrainz</title>
<path fill="none" stroke="black" stroke-dasharray="1,5" d="M620.21,-697C699.49,-697 808.91,-697 808.91,-697 808.91,-697 808.91,-181.82 808.91,-181.82"/>
<polygon fill="black" stroke="black" points="812.41,-181.82 808.91,-171.82 805.41,-181.82 812.41,-181.82"/>
</g>
<!-- :data:repository&#45;&gt;:core:logging:api -->
<g id="edge29" class="edge">
<title>:data:repository&#45;&gt;:core:logging:api</title>
<path fill="none" stroke="black" stroke-dasharray="1,5" d="M620.14,-709C730.12,-709 914.15,-709 914.15,-709 914.15,-709 914.15,-36.99 914.15,-36.99"/>
<polygon fill="black" stroke="black" points="917.65,-36.99 914.15,-26.99 910.65,-36.99 917.65,-36.99"/>
</g>
<!-- :data:repository&#45;&gt;:data:database -->
<g id="edge26" class="edge">
<title>:data:repository&#45;&gt;:data:database</title>
<path fill="none" stroke="black" stroke-dasharray="1,5" d="M510.12,-685.88C510.12,-607.41 510.12,-286 510.12,-286 510.12,-286 560,-286 560,-286"/>
<polygon fill="black" stroke="black" points="560,-289.5 570,-286 560,-282.5 560,-289.5"/>
</g>
<!-- :data:repository&#45;&gt;:data:coverart -->
<g id="edge28" class="edge">
<title>:data:repository&#45;&gt;:data:coverart</title>
<path fill="none" stroke="black" stroke-dasharray="1,5" d="M584.7,-687.48C584.7,-687.48 584.7,-451.13 584.7,-451.13"/>
<polygon fill="black" stroke="black" points="588.2,-451.13 584.7,-441.13 581.2,-451.13 588.2,-451.13"/>
</g>
<!-- :data:musicbrainz&#45;&gt;:shared:domain -->
<g id="edge32" class="edge">
<title>:data:musicbrainz&#45;&gt;:shared:domain</title>
<path fill="none" stroke="black" stroke-dasharray="1,5" d="M771.84,-136.81C771.84,-99.54 771.84,-18 771.84,-18 771.84,-18 478.65,-18 478.65,-18"/>
<polygon fill="black" stroke="black" points="478.65,-14.5 468.65,-18 478.65,-21.5 478.65,-14.5"/>
</g>
<!-- :data:musicbrainz&#45;&gt;:core:logging:api -->
<g id="edge33" class="edge">
<title>:data:musicbrainz&#45;&gt;:core:logging:api</title>
<path fill="none" stroke="black" stroke-dasharray="1,5" d="M860.44,-149C885.62,-149 906.35,-149 906.35,-149 906.35,-149 906.35,-33.3 906.35,-33.3"/>
<polygon fill="black" stroke="black" points="909.85,-33.3 906.35,-23.3 902.85,-33.3 909.85,-33.3"/>
</g>
<!-- :data:database&#45;&gt;:shared:domain -->
<g id="edge34" class="edge">
<title>:data:database&#45;&gt;:shared:domain</title>
<path fill="none" stroke="black" stroke-dasharray="1,5" d="M631.12,-274.2C631.12,-214.78 631.12,-27 631.12,-27 631.12,-27 467.44,-27 467.44,-27"/>
<polygon fill="black" stroke="black" points="467.44,-23.5 457.44,-27 467.44,-30.5 467.44,-23.5"/>
</g>
<!-- :data:database&#45;&gt;:core:coroutines -->
<g id="edge35" class="edge">
<title>:data:database&#45;&gt;:core:coroutines</title>
<path fill="none" stroke="black" stroke-dasharray="1,5" d="M574.77,-283.43C574.77,-283.43 574.77,-173.22 574.77,-173.22"/>
<polygon fill="black" stroke="black" points="578.27,-173.22 574.77,-163.22 571.27,-173.22 578.27,-173.22"/>
</g>
<!-- :data:database&#45;&gt;:data:musicbrainz -->
<g id="edge36" class="edge">
<title>:data:database&#45;&gt;:data:musicbrainz</title>
<path fill="none" stroke="black" stroke-dasharray="1,5" d="M701.19,-279.11C701.19,-279.11 701.19,-177.16 701.19,-177.16"/>
<polygon fill="black" stroke="black" points="704.69,-177.16 701.19,-167.16 697.69,-177.16 704.69,-177.16"/>
</g>
<!-- :data:coverart&#45;&gt;:shared:domain -->
<g id="edge37" class="edge">
<title>:data:coverart&#45;&gt;:shared:domain</title>
<path fill="none" stroke="black" stroke-dasharray="1,5" d="M570.06,-435C499.24,-435 401.5,-435 401.5,-435 401.5,-435 401.5,-45.92 401.5,-45.92"/>
<polygon fill="black" stroke="black" points="405,-45.92 401.5,-35.92 398,-45.92 405,-45.92"/>
</g>
<!-- :data:coverart&#45;&gt;:test&#45;data -->
<g id="edge40" class="edge">
<title>:data:coverart&#45;&gt;:test&#45;data</title>
<path fill="none" stroke="#ff9ab1" stroke-dasharray="1,5" d="M677.26,-444.98C677.26,-444.98 677.26,-538.83 677.26,-538.83"/>
<polygon fill="#ff9ab1" stroke="#ff9ab1" points="673.76,-538.83 677.26,-548.83 680.76,-538.83 673.76,-538.83"/>
</g>
<!-- :data:coverart&#45;&gt;:core:coroutines -->
<g id="edge39" class="edge">
<title>:data:coverart&#45;&gt;:core:coroutines</title>
<path fill="none" stroke="black" stroke-dasharray="1,5" d="M570.12,-423C547.65,-423 528.6,-423 528.6,-423 528.6,-423 528.6,-182.17 528.6,-182.17"/>
<polygon fill="black" stroke="black" points="532.1,-182.17 528.6,-172.17 525.1,-182.17 532.1,-182.17"/>
</g>
<!-- :data:coverart&#45;&gt;:data:musicbrainz -->
<g id="edge41" class="edge">
<title>:data:coverart&#45;&gt;:data:musicbrainz</title>
<path fill="none" stroke="#ff9ab1" stroke-dasharray="1,5" d="M713.73,-423C734.84,-423 752.39,-423 752.39,-423 752.39,-423 752.39,-183 752.39,-183"/>
<polygon fill="#ff9ab1" stroke="#ff9ab1" points="755.89,-183 752.39,-173 748.89,-183 755.89,-183"/>
</g>
<!-- :data:coverart&#45;&gt;:core:logging:api -->
<g id="edge38" class="edge">
<title>:data:coverart&#45;&gt;:core:logging:api</title>
<path fill="none" stroke="black" stroke-dasharray="1,5" d="M713.77,-435C793.28,-435 910.25,-435 910.25,-435 910.25,-435 910.25,-35.59 910.25,-35.59"/>
<polygon fill="black" stroke="black" points="913.75,-35.59 910.25,-25.59 906.75,-35.59 913.75,-35.59"/>
</g>
<!-- :data:coverart&#45;&gt;:data:database -->
<g id="edge42" class="edge">
<title>:data:coverart&#45;&gt;:data:database</title>
<path fill="none" stroke="#ff9ab1" stroke-dasharray="1,5" d="M641.84,-410.81C641.84,-410.81 641.84,-320.27 641.84,-320.27"/>
<polygon fill="#ff9ab1" stroke="#ff9ab1" points="645.34,-320.27 641.84,-310.27 638.34,-320.27 645.34,-320.27"/>
</g>
<!-- :data:spotify&#45;&gt;:shared:domain -->
<g id="edge43" class="edge">
<title>:data:spotify&#45;&gt;:shared:domain</title>
<path fill="none" stroke="black" stroke-dasharray="1,5" d="M925.88,-161C903.5,-161 883.94,-161 883.94,-161 883.94,-161 883.94,-9 883.94,-9 883.94,-9 467.47,-9 467.47,-9"/>
<polygon fill="black" stroke="black" points="467.47,-5.5 457.47,-9 467.47,-12.5 467.47,-5.5"/>
</g>
<!-- :data:spotify&#45;&gt;:core:logging:api -->
<g id="edge44" class="edge">
<title>:data:spotify&#45;&gt;:core:logging:api</title>
<path fill="none" stroke="black" stroke-dasharray="1,5" d="M990.84,-136.81C990.84,-136.81 990.84,-46.27 990.84,-46.27"/>
<polygon fill="black" stroke="black" points="994.34,-46.27 990.84,-36.27 987.34,-46.27 994.34,-46.27"/>
</g>
</g>
</svg>
