<?xml version="1.0" encoding="UTF-8" standalone="no"?>
<!DOCTYPE svg PUBLIC "-//W3C//DTD SVG 1.1//EN"
 "http://www.w3.org/Graphics/SVG/1.1/DTD/svg11.dtd">
<!-- Generated by graphviz version 2.43.0 (0)
 -->
<!-- Title: %3 Pages: 1 -->
<svg width="1146pt" height="940pt"
 viewBox="0.00 0.00 1146.44 940.00" xmlns="http://www.w3.org/2000/svg" xmlns:xlink="http://www.w3.org/1999/xlink">
<g id="graph0" class="graph" transform="scale(1 1) rotate(0) translate(4 936)">
<title>%3</title>
<polygon fill="white" stroke="transparent" points="-4,4 -4,-936 1142.44,-936 1142.44,4 -4,4"/>
<text text-anchor="middle" x="569.22" y="-904" font-family="Times,serif" font-size="30.00">Dependencies</text>
<text text-anchor="middle" x="569.22" y="-871" font-family="Times,serif" font-size="30.00"> </text>
<!-- :shared:feature:graph -->
<g id="node1" class="node">
<title>:shared:feature:graph</title>
<polygon fill="#b59aff" stroke="black" points="417.54,-858 244.54,-858 244.54,-822 417.54,-822 417.54,-858"/>
<text text-anchor="middle" x="331.04" y="-836.3" font-family="Times,serif" font-size="14.00">:shared:feature:graph</text>
</g>
<!-- :ui:test:screenshot -->
<g id="node2" class="node">
<title>:ui:test:screenshot</title>
<ellipse fill="#9affb5" stroke="black" cx="101.04" cy="-566" rx="96.68" ry="18"/>
<text text-anchor="middle" x="101.04" y="-562.3" font-family="Times,serif" font-size="14.00">:ui:test:screenshot</text>
</g>
<!-- :shared:feature:graph&#45;&gt;:ui:test:screenshot -->
<g id="edge1" class="edge">
<title>:shared:feature:graph&#45;&gt;:ui:test:screenshot</title>
<path fill="none" stroke="#ff9ab1" stroke-dasharray="1,5" d="M244.44,-840C168.04,-840 68.76,-840 68.76,-840 68.76,-840 68.76,-593.14 68.76,-593.14"/>
<polygon fill="#ff9ab1" stroke="#ff9ab1" points="72.26,-593.14 68.76,-583.14 65.26,-593.14 72.26,-593.14"/>
</g>
<!-- :ui:common -->
<g id="node3" class="node">
<title>:ui:common</title>
<ellipse fill="#b59aff" stroke="black" cx="444.04" cy="-703" rx="64.19" ry="18"/>
<text text-anchor="middle" x="444.04" y="-699.3" font-family="Times,serif" font-size="14.00">:ui:common</text>
</g>
<!-- :shared:feature:graph&#45;&gt;:ui:common -->
<g id="edge2" class="edge">
<title>:shared:feature:graph&#45;&gt;:ui:common</title>
<path fill="none" stroke="black" stroke-dasharray="1,5" d="M398.62,-821.81C398.62,-821.81 398.62,-725.94 398.62,-725.94"/>
<polygon fill="black" stroke="black" points="402.12,-725.94 398.62,-715.94 395.12,-725.94 402.12,-725.94"/>
</g>
<!-- :shared:domain -->
<g id="node4" class="node">
<title>:shared:domain</title>
<ellipse fill="#b59aff" stroke="black" cx="561.04" cy="-18" rx="82.59" ry="18"/>
<text text-anchor="middle" x="561.04" y="-14.3" font-family="Times,serif" font-size="14.00">:shared:domain</text>
</g>
<!-- :shared:feature:graph&#45;&gt;:shared:domain -->
<g id="edge3" class="edge">
<title>:shared:feature:graph&#45;&gt;:shared:domain</title>
<path fill="none" stroke="black" stroke-dasharray="1,5" d="M367.9,-821.94C367.9,-700.85 367.9,-12 367.9,-12 367.9,-12 473.04,-12 473.04,-12"/>
<polygon fill="black" stroke="black" points="473.04,-15.5 483.04,-12 473.04,-8.5 473.04,-15.5"/>
</g>
<!-- :ui:image -->
<g id="node5" class="node">
<title>:ui:image</title>
<ellipse fill="#b59aff" stroke="black" cx="270.04" cy="-566" rx="53.89" ry="18"/>
<text text-anchor="middle" x="270.04" y="-562.3" font-family="Times,serif" font-size="14.00">:ui:image</text>
</g>
<!-- :shared:feature:graph&#45;&gt;:ui:image -->
<g id="edge4" class="edge">
<title>:shared:feature:graph&#45;&gt;:ui:image</title>
<path fill="none" stroke="black" stroke-dasharray="1,5" d="M271.03,-821.6C271.03,-821.6 271.03,-594.32 271.03,-594.32"/>
<polygon fill="black" stroke="black" points="274.53,-594.32 271.03,-584.32 267.53,-594.32 274.53,-594.32"/>
</g>
<!-- :ui:core -->
<g id="node6" class="node">
<title>:ui:core</title>
<ellipse fill="#b59aff" stroke="black" cx="266.04" cy="-429" rx="45.49" ry="18"/>
<text text-anchor="middle" x="266.04" y="-425.3" font-family="Times,serif" font-size="14.00">:ui:core</text>
</g>
<!-- :ui:test:screenshot&#45;&gt;:ui:core -->
<g id="edge5" class="edge">
<title>:ui:test:screenshot&#45;&gt;:ui:core</title>
<path fill="none" stroke="black" stroke-dasharray="1,5" d="M189.84,-558.63C189.84,-530.18 189.84,-429 189.84,-429 189.84,-429 210.4,-429 210.4,-429"/>
<polygon fill="black" stroke="black" points="210.4,-432.5 220.4,-429 210.4,-425.5 210.4,-432.5"/>
</g>
<!-- :test:image -->
<g id="node7" class="node">
<title>:test:image</title>
<ellipse fill="#9affb5" stroke="black" cx="63.04" cy="-429" rx="63.09" ry="18"/>
<text text-anchor="middle" x="63.04" y="-425.3" font-family="Times,serif" font-size="14.00">:test:image</text>
</g>
<!-- :ui:test:screenshot&#45;&gt;:test:image -->
<g id="edge6" class="edge">
<title>:ui:test:screenshot&#45;&gt;:test:image</title>
<path fill="none" stroke="black" stroke-dasharray="1,5" d="M65.15,-549.2C65.15,-549.2 65.15,-457.25 65.15,-457.25"/>
<polygon fill="black" stroke="black" points="68.65,-457.25 65.15,-447.25 61.65,-457.25 68.65,-457.25"/>
</g>
<!-- :ui:common&#45;&gt;:ui:test:screenshot -->
<g id="edge7" class="edge">
<title>:ui:common&#45;&gt;:ui:test:screenshot</title>
<path fill="none" stroke="#ff9ab1" stroke-dasharray="1,5" d="M383.03,-709C292.54,-709 133.32,-709 133.32,-709 133.32,-709 133.32,-593.25 133.32,-593.25"/>
<polygon fill="#ff9ab1" stroke="#ff9ab1" points="136.82,-593.25 133.32,-583.25 129.82,-593.25 136.82,-593.25"/>
</g>
<!-- :ui:common&#45;&gt;:shared:domain -->
<g id="edge8" class="edge">
<title>:ui:common&#45;&gt;:shared:domain</title>
<path fill="none" stroke="black" d="M418.18,-686.41C418.18,-581.8 418.18,-18 418.18,-18 418.18,-18 468.35,-18 468.35,-18"/>
<polygon fill="black" stroke="black" points="468.35,-21.5 478.35,-18 468.35,-14.5 468.35,-21.5"/>
</g>
<!-- :ui:common&#45;&gt;:ui:image -->
<g id="edge13" class="edge">
<title>:ui:common&#45;&gt;:ui:image</title>
<path fill="none" stroke="black" stroke-dasharray="1,5" d="M383.17,-697C342.91,-697 297.51,-697 297.51,-697 297.51,-697 297.51,-591.54 297.51,-591.54"/>
<polygon fill="black" stroke="black" points="301.01,-591.54 297.51,-581.54 294.01,-591.54 301.01,-591.54"/>
</g>
<!-- :ui:common&#45;&gt;:ui:core -->
<g id="edge9" class="edge">
<title>:ui:common&#45;&gt;:ui:core</title>
<path fill="none" stroke="black" d="M398.94,-689.86C398.94,-636.39 398.94,-438 398.94,-438 398.94,-438 315.56,-438 315.56,-438"/>
<polygon fill="black" stroke="black" points="315.56,-434.5 305.56,-438 315.56,-441.5 315.56,-434.5"/>
</g>
<!-- :data:coverart -->
<g id="node8" class="node">
<title>:data:coverart</title>
<ellipse fill="#b59aff" stroke="black" cx="705.04" cy="-566" rx="76.09" ry="18"/>
<text text-anchor="middle" x="705.04" y="-562.3" font-family="Times,serif" font-size="14.00">:data:coverart</text>
</g>
<!-- :ui:common&#45;&gt;:data:coverart -->
<g id="edge10" class="edge">
<title>:ui:common&#45;&gt;:data:coverart</title>
<path fill="none" stroke="black" stroke-dasharray="1,5" d="M492.15,-690.63C492.15,-657.46 492.15,-569 492.15,-569 492.15,-569 619.98,-569 619.98,-569"/>
<polygon fill="black" stroke="black" points="619.98,-572.5 629.98,-569 619.98,-565.5 619.98,-572.5"/>
</g>
<!-- :data:musicbrainz -->
<g id="node9" class="node">
<title>:data:musicbrainz</title>
<ellipse fill="#b59aff" stroke="black" cx="989.04" cy="-155" rx="93.68" ry="18"/>
<text text-anchor="middle" x="989.04" y="-151.3" font-family="Times,serif" font-size="14.00">:data:musicbrainz</text>
</g>
<!-- :ui:common&#45;&gt;:data:musicbrainz -->
<g id="edge11" class="edge">
<title>:ui:common&#45;&gt;:data:musicbrainz</title>
<path fill="none" stroke="black" stroke-dasharray="1,5" d="M504.72,-697C657.35,-697 1045.2,-697 1045.2,-697 1045.2,-697 1045.2,-179.5 1045.2,-179.5"/>
<polygon fill="black" stroke="black" points="1048.7,-179.5 1045.2,-169.5 1041.7,-179.5 1048.7,-179.5"/>
</g>
<!-- :core:logging:api -->
<g id="node10" class="node">
<title>:core:logging:api</title>
<ellipse fill="#b59aff" stroke="black" cx="1050.04" cy="-18" rx="88.28" ry="18"/>
<text text-anchor="middle" x="1050.04" y="-14.3" font-family="Times,serif" font-size="14.00">:core:logging:api</text>
</g>
<!-- :ui:common&#45;&gt;:core:logging:api -->
<g id="edge12" class="edge">
<title>:ui:common&#45;&gt;:core:logging:api</title>
<path fill="none" stroke="black" stroke-dasharray="1,5" d="M504.91,-709C671.02,-709 1119.84,-709 1119.84,-709 1119.84,-709 1119.84,-39.13 1119.84,-39.13"/>
<polygon fill="black" stroke="black" points="1123.34,-39.13 1119.84,-29.13 1116.34,-39.13 1123.34,-39.13"/>
</g>
<!-- :ui:image&#45;&gt;:shared:domain -->
<g id="edge14" class="edge">
<title>:ui:image&#45;&gt;:shared:domain</title>
<path fill="none" stroke="black" stroke-dasharray="1,5" d="M315.08,-576C335.9,-576 356.09,-576 356.09,-576 356.09,-576 356.09,-5 356.09,-5 356.09,-5 493.68,-5 493.68,-5"/>
<polygon fill="black" stroke="black" points="493.68,-8.5 503.68,-5 493.68,-1.5 493.68,-8.5"/>
</g>
<!-- :ui:image&#45;&gt;:ui:core -->
<g id="edge15" class="edge">
<title>:ui:image&#45;&gt;:ui:core</title>
<path fill="none" stroke="black" stroke-dasharray="1,5" d="M266.04,-547.81C266.04,-547.81 266.04,-457.27 266.04,-457.27"/>
<polygon fill="black" stroke="black" points="269.54,-457.27 266.04,-447.27 262.54,-457.27 269.54,-457.27"/>
</g>
<!-- :shared:strings -->
<g id="node11" class="node">
<title>:shared:strings</title>
<ellipse fill="#b59aff" stroke="black" cx="263.04" cy="-292" rx="81.49" ry="18"/>
<text text-anchor="middle" x="263.04" y="-288.3" font-family="Times,serif" font-size="14.00">:shared:strings</text>
</g>
<!-- :ui:core&#45;&gt;:shared:strings -->
<g id="edge16" class="edge">
<title>:ui:core&#45;&gt;:shared:strings</title>
<path fill="none" stroke="black" d="M266.04,-410.81C266.04,-410.81 266.04,-320.27 266.04,-320.27"/>
<polygon fill="black" stroke="black" points="269.54,-320.27 266.04,-310.27 262.54,-320.27 269.54,-320.27"/>
</g>
<!-- :data:coverart&#45;&gt;:shared:domain -->
<g id="edge17" class="edge">
<title>:data:coverart&#45;&gt;:shared:domain</title>
<path fill="none" stroke="black" stroke-dasharray="1,5" d="M630.85,-562C551.65,-562 437.42,-562 437.42,-562 437.42,-562 437.42,-24 437.42,-24 437.42,-24 473.1,-24 473.1,-24"/>
<polygon fill="black" stroke="black" points="473.1,-27.5 483.1,-24 473.1,-20.5 473.1,-27.5"/>
</g>
<!-- :data:coverart&#45;&gt;:data:musicbrainz -->
<g id="edge21" class="edge">
<title>:data:coverart&#45;&gt;:data:musicbrainz</title>
<path fill="none" stroke="#ff9ab1" stroke-dasharray="1,5" d="M776.78,-560C866.3,-560 1007.76,-560 1007.76,-560 1007.76,-560 1007.76,-182.66 1007.76,-182.66"/>
<polygon fill="#ff9ab1" stroke="#ff9ab1" points="1011.26,-182.66 1007.76,-172.66 1004.26,-182.66 1011.26,-182.66"/>
</g>
<!-- :data:coverart&#45;&gt;:core:logging:api -->
<g id="edge18" class="edge">
<title>:data:coverart&#45;&gt;:core:logging:api</title>
<path fill="none" stroke="black" stroke-dasharray="1,5" d="M776.79,-572C890.96,-572 1101.24,-572 1101.24,-572 1101.24,-572 1101.24,-42.82 1101.24,-42.82"/>
<polygon fill="black" stroke="black" points="1104.74,-42.82 1101.24,-32.82 1097.74,-42.82 1104.74,-42.82"/>
</g>
<!-- :core:coroutines -->
<g id="node12" class="node">
<title>:core:coroutines</title>
<ellipse fill="#b59aff" stroke="black" cx="561.04" cy="-155" rx="85.29" ry="18"/>
<text text-anchor="middle" x="561.04" y="-151.3" font-family="Times,serif" font-size="14.00">:core:coroutines</text>
</g>
<!-- :data:coverart&#45;&gt;:core:coroutines -->
<g id="edge19" class="edge">
<title>:data:coverart&#45;&gt;:core:coroutines</title>
<path fill="none" stroke="black" stroke-dasharray="1,5" d="M644.69,-555C595.4,-555 533.84,-555 533.84,-555 533.84,-555 533.84,-182.19 533.84,-182.19"/>
<polygon fill="black" stroke="black" points="537.34,-182.19 533.84,-172.19 530.34,-182.19 537.34,-182.19"/>
</g>
<!-- :test&#45;data -->
<g id="node13" class="node">
<title>:test&#45;data</title>
<ellipse fill="#b59aff" stroke="black" cx="747.04" cy="-429" rx="55.49" ry="18"/>
<text text-anchor="middle" x="747.04" y="-425.3" font-family="Times,serif" font-size="14.00">:test&#45;data</text>
</g>
<!-- :data:coverart&#45;&gt;:test&#45;data -->
<g id="edge20" class="edge">
<title>:data:coverart&#45;&gt;:test&#45;data</title>
<path fill="none" stroke="#ff9ab1" stroke-dasharray="1,5" d="M721.56,-548.37C721.56,-548.37 721.56,-455.28 721.56,-455.28"/>
<polygon fill="#ff9ab1" stroke="#ff9ab1" points="725.06,-455.28 721.56,-445.28 718.06,-455.28 725.06,-455.28"/>
</g>
<!-- :data:database -->
<g id="node14" class="node">
<title>:data:database</title>
<ellipse fill="#b59aff" stroke="black" cx="664.04" cy="-292" rx="79.09" ry="18"/>
<text text-anchor="middle" x="664.04" y="-288.3" font-family="Times,serif" font-size="14.00">:data:database</text>
</g>
<!-- :data:coverart&#45;&gt;:data:database -->
<g id="edge22" class="edge">
<title>:data:coverart&#45;&gt;:data:database</title>
<path fill="none" stroke="#ff9ab1" stroke-dasharray="1,5" d="M660.4,-551.27C660.4,-551.27 660.4,-320.31 660.4,-320.31"/>
<polygon fill="#ff9ab1" stroke="#ff9ab1" points="663.9,-320.31 660.4,-310.31 656.9,-320.31 663.9,-320.31"/>
</g>
<!-- :data:musicbrainz&#45;&gt;:shared:domain -->
<g id="edge23" class="edge">
<title>:data:musicbrainz&#45;&gt;:shared:domain</title>
<path fill="none" stroke="black" stroke-dasharray="1,5" d="M928.55,-141.08C928.55,-104.23 928.55,-7 928.55,-7 928.55,-7 636.75,-7 636.75,-7"/>
<polygon fill="black" stroke="black" points="636.75,-3.5 626.75,-7 636.75,-10.5 636.75,-3.5"/>
</g>
<!-- :data:musicbrainz&#45;&gt;:core:logging:api -->
<g id="edge24" class="edge">
<title>:data:musicbrainz&#45;&gt;:core:logging:api</title>
<path fill="none" stroke="black" stroke-dasharray="1,5" d="M1022.14,-137.93C1022.14,-137.93 1022.14,-45.29 1022.14,-45.29"/>
<polygon fill="black" stroke="black" points="1025.64,-45.29 1022.14,-35.29 1018.64,-45.29 1025.64,-45.29"/>
</g>
<!-- :test&#45;data&#45;&gt;:shared:domain -->
<g id="edge25" class="edge">
<title>:test&#45;data&#45;&gt;:shared:domain</title>
<path fill="none" stroke="black" stroke-dasharray="1,5" d="M691.74,-429C607.49,-429 456.66,-429 456.66,-429 456.66,-429 456.66,-30 456.66,-30 456.66,-30 489.42,-30 489.42,-30"/>
<polygon fill="black" stroke="black" points="489.42,-33.5 499.42,-30 489.42,-26.5 489.42,-33.5"/>
</g>
<!-- :test&#45;data&#45;&gt;:data:coverart -->
<g id="edge27" class="edge">
<title>:test&#45;data&#45;&gt;:data:coverart</title>
<path fill="none" stroke="black" stroke-dasharray="1,5" d="M751.32,-447.19C751.32,-447.19 751.32,-541.5 751.32,-541.5"/>
<polygon fill="black" stroke="black" points="747.82,-541.5 751.32,-551.5 754.82,-541.5 747.82,-541.5"/>
</g>
<!-- :test&#45;data&#45;&gt;:data:musicbrainz -->
<g id="edge26" class="edge">
<title>:test&#45;data&#45;&gt;:data:musicbrainz</title>
<path fill="none" stroke="black" stroke-dasharray="1,5" d="M802.52,-429C868.65,-429 970.33,-429 970.33,-429 970.33,-429 970.33,-182.98 970.33,-182.98"/>
<polygon fill="black" stroke="black" points="973.83,-182.98 970.33,-172.98 966.83,-182.98 973.83,-182.98"/>
</g>
<!-- :test&#45;data&#45;&gt;:core:coroutines -->
<g id="edge30" class="edge">
<title>:test&#45;data&#45;&gt;:core:coroutines</title>
<path fill="none" stroke="black" stroke-dasharray="1,5" d="M699.18,-420C643.56,-420 559.3,-420 559.3,-420 559.3,-420 559.3,-183.21 559.3,-183.21"/>
<polygon fill="black" stroke="black" points="562.8,-183.21 559.3,-173.21 555.8,-183.21 562.8,-183.21"/>
</g>
<!-- :test&#45;data&#45;&gt;:data:database -->
<g id="edge29" class="edge">
<title>:test&#45;data&#45;&gt;:data:database</title>
<path fill="none" stroke="black" stroke-dasharray="1,5" d="M717.57,-413.55C717.57,-413.55 717.57,-315.55 717.57,-315.55"/>
<polygon fill="black" stroke="black" points="721.07,-315.55 717.57,-305.55 714.07,-315.55 721.07,-315.55"/>
</g>
<!-- :data:spotify -->
<g id="node15" class="node">
<title>:data:spotify</title>
<ellipse fill="#b59aff" stroke="black" cx="809.04" cy="-155" rx="68.79" ry="18"/>
<text text-anchor="middle" x="809.04" y="-151.3" font-family="Times,serif" font-size="14.00">:data:spotify</text>
</g>
<!-- :test&#45;data&#45;&gt;:data:spotify -->
<g id="edge28" class="edge">
<title>:test&#45;data&#45;&gt;:data:spotify</title>
<path fill="none" stroke="black" stroke-dasharray="1,5" d="M772.81,-412.68C772.81,-412.68 772.81,-180.55 772.81,-180.55"/>
<polygon fill="black" stroke="black" points="776.31,-180.55 772.81,-170.55 769.31,-180.55 776.31,-180.55"/>
</g>
<!-- :data:database&#45;&gt;:shared:domain -->
<g id="edge31" class="edge">
<title>:data:database&#45;&gt;:shared:domain</title>
<path fill="none" stroke="black" stroke-dasharray="1,5" d="M693.17,-275.08C693.17,-216.82 693.17,-28 693.17,-28 693.17,-28 639.82,-28 639.82,-28"/>
<polygon fill="black" stroke="black" points="639.82,-24.5 629.82,-28 639.82,-31.5 639.82,-24.5"/>
</g>
<!-- :data:database&#45;&gt;:data:musicbrainz -->
<g id="edge33" class="edge">
<title>:data:database&#45;&gt;:data:musicbrainz</title>
<path fill="none" stroke="black" stroke-dasharray="1,5" d="M743.62,-292C822.89,-292 932.89,-292 932.89,-292 932.89,-292 932.89,-179.4 932.89,-179.4"/>
<polygon fill="black" stroke="black" points="936.39,-179.4 932.89,-169.4 929.39,-179.4 936.39,-179.4"/>
</g>
<!-- :data:database&#45;&gt;:core:coroutines -->
<g id="edge32" class="edge">
<title>:data:database&#45;&gt;:core:coroutines</title>
<path fill="none" stroke="black" stroke-dasharray="1,5" d="M615.47,-277.6C615.47,-277.6 615.47,-179.21 615.47,-179.21"/>
<polygon fill="black" stroke="black" points="618.97,-179.21 615.47,-169.21 611.97,-179.21 618.97,-179.21"/>
</g>
<!-- :data:spotify&#45;&gt;:shared:domain -->
<g id="edge34" class="edge">
<title>:data:spotify&#45;&gt;:shared:domain</title>
<path fill="none" stroke="black" stroke-dasharray="1,5" d="M786.08,-138.03C786.08,-101.97 786.08,-21 786.08,-21 786.08,-21 652.61,-21 652.61,-21"/>
<polygon fill="black" stroke="black" points="652.61,-17.5 642.61,-21 652.61,-24.5 652.61,-17.5"/>
</g>
<!-- :data:spotify&#45;&gt;:core:logging:api -->
<g id="edge35" class="edge">
<title>:data:spotify&#45;&gt;:core:logging:api</title>
<path fill="none" stroke="black" stroke-dasharray="1,5" d="M832.01,-137.99C832.01,-100.49 832.01,-14 832.01,-14 832.01,-14 953.56,-14 953.56,-14"/>
<polygon fill="black" stroke="black" points="953.56,-17.5 963.56,-14 953.56,-10.5 953.56,-17.5"/>
</g>
</g>
</svg>
