<?xml version="1.0" encoding="UTF-8" standalone="no"?>
<!DOCTYPE svg PUBLIC "-//W3C//DTD SVG 1.1//EN"
 "http://www.w3.org/Graphics/SVG/1.1/DTD/svg11.dtd">
<!-- Generated by graphviz version 2.43.0 (0)
 -->
<!-- Title: %3 Pages: 1 -->
<svg width="972pt" height="940pt"
 viewBox="0.00 0.00 971.74 940.00" xmlns="http://www.w3.org/2000/svg" xmlns:xlink="http://www.w3.org/1999/xlink">
<g id="graph0" class="graph" transform="scale(1 1) rotate(0) translate(4 936)">
<title>%3</title>
<polygon fill="white" stroke="transparent" points="-4,4 -4,-936 967.74,-936 967.74,4 -4,4"/>
<text text-anchor="middle" x="481.87" y="-904" font-family="Times,serif" font-size="30.00">Dependencies</text>
<text text-anchor="middle" x="481.87" y="-871" font-family="Times,serif" font-size="30.00"> </text>
<!-- :shared:feature:graph -->
<g id="node1" class="node">
<title>:shared:feature:graph</title>
<polygon fill="#b59aff" stroke="black" points="953.39,-858 780.39,-858 780.39,-822 953.39,-822 953.39,-858"/>
<text text-anchor="middle" x="866.89" y="-836.3" font-family="Times,serif" font-size="14.00">:shared:feature:graph</text>
</g>
<!-- :ui:test:screenshot -->
<g id="node2" class="node">
<title>:ui:test:screenshot</title>
<ellipse fill="#9affb5" stroke="black" cx="866.89" cy="-566" rx="96.68" ry="18"/>
<text text-anchor="middle" x="866.89" y="-562.3" font-family="Times,serif" font-size="14.00">:ui:test:screenshot</text>
</g>
<!-- :shared:feature:graph&#45;&gt;:ui:test:screenshot -->
<g id="edge1" class="edge">
<title>:shared:feature:graph&#45;&gt;:ui:test:screenshot</title>
<path fill="none" stroke="#ff9ab1" stroke-dasharray="1,5" d="M866.89,-821.6C866.89,-821.6 866.89,-594.32 866.89,-594.32"/>
<polygon fill="#ff9ab1" stroke="#ff9ab1" points="870.39,-594.32 866.89,-584.32 863.39,-594.32 870.39,-594.32"/>
</g>
<!-- :ui:common -->
<g id="node3" class="node">
<title>:ui:common</title>
<ellipse fill="#b59aff" stroke="black" cx="632.89" cy="-703" rx="64.19" ry="18"/>
<text text-anchor="middle" x="632.89" y="-699.3" font-family="Times,serif" font-size="14.00">:ui:common</text>
</g>
<!-- :shared:feature:graph&#45;&gt;:ui:common -->
<g id="edge2" class="edge">
<title>:shared:feature:graph&#45;&gt;:ui:common</title>
<path fill="none" stroke="black" stroke-dasharray="1,5" d="M780.09,-834C713.5,-834 632.89,-834 632.89,-834 632.89,-834 632.89,-731.21 632.89,-731.21"/>
<polygon fill="black" stroke="black" points="636.39,-731.21 632.89,-721.21 629.39,-731.22 636.39,-731.21"/>
</g>
<!-- :shared:domain -->
<g id="node4" class="node">
<title>:shared:domain</title>
<ellipse fill="#b59aff" stroke="black" cx="447.89" cy="-18" rx="82.59" ry="18"/>
<text text-anchor="middle" x="447.89" y="-14.3" font-family="Times,serif" font-size="14.00">:shared:domain</text>
</g>
<!-- :shared:feature:graph&#45;&gt;:shared:domain -->
<g id="edge3" class="edge">
<title>:shared:feature:graph&#45;&gt;:shared:domain</title>
<path fill="none" stroke="black" stroke-dasharray="1,5" d="M780.31,-846C672.27,-846 501.54,-846 501.54,-846 501.54,-846 501.54,-42.02 501.54,-42.02"/>
<polygon fill="black" stroke="black" points="505.04,-42.02 501.54,-32.02 498.04,-42.02 505.04,-42.02"/>
</g>
<!-- :test:image -->
<g id="node5" class="node">
<title>:test:image</title>
<ellipse fill="#9affb5" stroke="black" cx="804.89" cy="-429" rx="63.09" ry="18"/>
<text text-anchor="middle" x="804.89" y="-425.3" font-family="Times,serif" font-size="14.00">:test:image</text>
</g>
<!-- :ui:test:screenshot&#45;&gt;:test:image -->
<g id="edge4" class="edge">
<title>:ui:test:screenshot&#45;&gt;:test:image</title>
<path fill="none" stroke="black" stroke-dasharray="1,5" d="M819,-550.28C819,-550.28 819,-456.69 819,-456.69"/>
<polygon fill="black" stroke="black" points="822.5,-456.69 819,-446.69 815.5,-456.69 822.5,-456.69"/>
</g>
<!-- :ui:common&#45;&gt;:ui:test:screenshot -->
<g id="edge7" class="edge">
<title>:ui:common&#45;&gt;:ui:test:screenshot</title>
<path fill="none" stroke="#ff9ab1" stroke-dasharray="1,5" d="M693.67,-709C732.35,-709 775.22,-709 775.22,-709 775.22,-709 775.22,-582.14 775.22,-582.14"/>
<polygon fill="#ff9ab1" stroke="#ff9ab1" points="778.72,-582.14 775.22,-572.14 771.72,-582.14 778.72,-582.14"/>
</g>
<!-- :ui:common&#45;&gt;:shared:domain -->
<g id="edge8" class="edge">
<title>:ui:common&#45;&gt;:shared:domain</title>
<path fill="none" stroke="black" d="M576.84,-694C546.83,-694 515.99,-694 515.99,-694 515.99,-694 515.99,-38.35 515.99,-38.35"/>
<polygon fill="black" stroke="black" points="519.49,-38.35 515.99,-28.35 512.49,-38.35 519.49,-38.35"/>
</g>
<!-- :ui:common&#45;&gt;:test:image -->
<g id="edge5" class="edge">
<title>:ui:common&#45;&gt;:test:image</title>
<path fill="none" stroke="black" stroke-dasharray="1,5" d="M693.7,-697C724.7,-697 755.95,-697 755.95,-697 755.95,-697 755.95,-450.52 755.95,-450.52"/>
<polygon fill="black" stroke="black" points="759.45,-450.52 755.95,-440.52 752.45,-450.52 759.45,-450.52"/>
</g>
<!-- :test&#45;data -->
<g id="node6" class="node">
<title>:test&#45;data</title>
<ellipse fill="#b59aff" stroke="black" cx="271.89" cy="-566" rx="55.49" ry="18"/>
<text text-anchor="middle" x="271.89" y="-562.3" font-family="Times,serif" font-size="14.00">:test&#45;data</text>
</g>
<!-- :ui:common&#45;&gt;:test&#45;data -->
<g id="edge6" class="edge">
<title>:ui:common&#45;&gt;:test&#45;data</title>
<path fill="none" stroke="#ff9ab1" stroke-dasharray="1,5" d="M568.35,-703C464.52,-703 271.89,-703 271.89,-703 271.89,-703 271.89,-594.19 271.89,-594.19"/>
<polygon fill="#ff9ab1" stroke="#ff9ab1" points="275.39,-594.19 271.89,-584.19 268.39,-594.19 275.39,-594.19"/>
</g>
<!-- :shared:strings -->
<g id="node7" class="node">
<title>:shared:strings</title>
<ellipse fill="#b59aff" stroke="black" cx="632.89" cy="-566" rx="81.49" ry="18"/>
<text text-anchor="middle" x="632.89" y="-562.3" font-family="Times,serif" font-size="14.00">:shared:strings</text>
</g>
<!-- :ui:common&#45;&gt;:shared:strings -->
<g id="edge9" class="edge">
<title>:ui:common&#45;&gt;:shared:strings</title>
<path fill="none" stroke="black" d="M632.89,-684.81C632.89,-684.81 632.89,-594.27 632.89,-594.27"/>
<polygon fill="black" stroke="black" points="636.39,-594.27 632.89,-584.27 629.39,-594.27 636.39,-594.27"/>
</g>
<!-- :core:logging:api -->
<g id="node8" class="node">
<title>:core:logging:api</title>
<ellipse fill="#b59aff" stroke="black" cx="117.89" cy="-18" rx="88.28" ry="18"/>
<text text-anchor="middle" x="117.89" y="-14.3" font-family="Times,serif" font-size="14.00">:core:logging:api</text>
</g>
<!-- :ui:common&#45;&gt;:core:logging:api -->
<g id="edge10" class="edge">
<title>:ui:common&#45;&gt;:core:logging:api</title>
<path fill="none" stroke="black" stroke-dasharray="1,5" d="M576.78,-712C449.9,-712 151.92,-712 151.92,-712 151.92,-712 151.92,-44.81 151.92,-44.81"/>
<polygon fill="black" stroke="black" points="155.42,-44.81 151.92,-34.81 148.42,-44.81 155.42,-44.81"/>
</g>
<!-- :test&#45;data&#45;&gt;:shared:domain -->
<g id="edge11" class="edge">
<title>:test&#45;data&#45;&gt;:shared:domain</title>
<path fill="none" stroke="black" stroke-dasharray="1,5" d="M323.99,-572C387.67,-572 487.09,-572 487.09,-572 487.09,-572 487.09,-43.98 487.09,-43.98"/>
<polygon fill="black" stroke="black" points="490.59,-43.98 487.09,-33.98 483.59,-43.98 490.59,-43.98"/>
</g>
<!-- :data:database -->
<g id="node9" class="node">
<title>:data:database</title>
<ellipse fill="#b59aff" stroke="black" cx="378.89" cy="-292" rx="79.09" ry="18"/>
<text text-anchor="middle" x="378.89" y="-288.3" font-family="Times,serif" font-size="14.00">:data:database</text>
</g>
<!-- :test&#45;data&#45;&gt;:data:database -->
<g id="edge12" class="edge">
<title>:test&#45;data&#45;&gt;:data:database</title>
<path fill="none" stroke="black" stroke-dasharray="1,5" d="M324.11,-560C360.69,-560 403.06,-560 403.06,-560 403.06,-560 403.06,-319.17 403.06,-319.17"/>
<polygon fill="black" stroke="black" points="406.56,-319.17 403.06,-309.17 399.56,-319.17 406.56,-319.17"/>
</g>
<!-- :data:musicbrainz -->
<g id="node10" class="node">
<title>:data:musicbrainz</title>
<ellipse fill="#b59aff" stroke="black" cx="287.89" cy="-155" rx="93.68" ry="18"/>
<text text-anchor="middle" x="287.89" y="-151.3" font-family="Times,serif" font-size="14.00">:data:musicbrainz</text>
</g>
<!-- :test&#45;data&#45;&gt;:data:musicbrainz -->
<g id="edge13" class="edge">
<title>:test&#45;data&#45;&gt;:data:musicbrainz</title>
<path fill="none" stroke="black" stroke-dasharray="1,5" d="M219.6,-560C199.01,-560 180.17,-560 180.17,-560 180.17,-560 180.17,-155 180.17,-155 180.17,-155 184.26,-155 184.26,-155"/>
<polygon fill="black" stroke="black" points="184.26,-158.5 194.26,-155 184.26,-151.5 184.26,-158.5"/>
</g>
<!-- :data:coverart -->
<g id="node11" class="node">
<title>:data:coverart</title>
<ellipse fill="#b59aff" stroke="black" cx="271.89" cy="-429" rx="76.09" ry="18"/>
<text text-anchor="middle" x="271.89" y="-425.3" font-family="Times,serif" font-size="14.00">:data:coverart</text>
</g>
<!-- :test&#45;data&#45;&gt;:data:coverart -->
<g id="edge14" class="edge">
<title>:test&#45;data&#45;&gt;:data:coverart</title>
<path fill="none" stroke="black" stroke-dasharray="1,5" d="M253.48,-548.93C253.48,-548.93 253.48,-456.72 253.48,-456.72"/>
<polygon fill="black" stroke="black" points="256.98,-456.72 253.48,-446.72 249.98,-456.72 256.98,-456.72"/>
</g>
<!-- :data:spotify -->
<g id="node12" class="node">
<title>:data:spotify</title>
<ellipse fill="#b59aff" stroke="black" cx="68.89" cy="-155" rx="68.79" ry="18"/>
<text text-anchor="middle" x="68.89" y="-151.3" font-family="Times,serif" font-size="14.00">:data:spotify</text>
</g>
<!-- :test&#45;data&#45;&gt;:data:spotify -->
<g id="edge15" class="edge">
<title>:test&#45;data&#45;&gt;:data:spotify</title>
<path fill="none" stroke="black" stroke-dasharray="1,5" d="M219.62,-572C159.47,-572 68.89,-572 68.89,-572 68.89,-572 68.89,-183.19 68.89,-183.19"/>
<polygon fill="black" stroke="black" points="72.39,-183.19 68.89,-173.19 65.39,-183.19 72.39,-183.19"/>
</g>
<!-- :data:database&#45;&gt;:shared:domain -->
<g id="edge16" class="edge">
<title>:data:database&#45;&gt;:shared:domain</title>
<path fill="none" stroke="black" stroke-dasharray="1,5" d="M419.84,-276.48C419.84,-276.48 419.84,-45.08 419.84,-45.08"/>
<polygon fill="black" stroke="black" points="423.34,-45.08 419.84,-35.08 416.34,-45.08 423.34,-45.08"/>
</g>
<!-- :data:database&#45;&gt;:data:musicbrainz -->
<g id="edge17" class="edge">
<title>:data:database&#45;&gt;:data:musicbrainz</title>
<path fill="none" stroke="black" stroke-dasharray="1,5" d="M340.54,-276.02C340.54,-276.02 340.54,-180.05 340.54,-180.05"/>
<polygon fill="black" stroke="black" points="344.04,-180.05 340.54,-170.05 337.04,-180.05 344.04,-180.05"/>
</g>
<!-- :data:musicbrainz&#45;&gt;:shared:domain -->
<g id="edge18" class="edge">
<title>:data:musicbrainz&#45;&gt;:shared:domain</title>
<path fill="none" stroke="black" stroke-dasharray="1,5" d="M376.11,-148.76C376.11,-148.76 376.11,-37.02 376.11,-37.02"/>
<polygon fill="black" stroke="black" points="379.61,-37.02 376.11,-27.02 372.61,-37.02 379.61,-37.02"/>
</g>
<!-- :data:musicbrainz&#45;&gt;:core:logging:api -->
<g id="edge19" class="edge">
<title>:data:musicbrainz&#45;&gt;:core:logging:api</title>
<path fill="none" stroke="black" stroke-dasharray="1,5" d="M200.29,-148.39C200.29,-148.39 200.29,-34.54 200.29,-34.54"/>
<polygon fill="black" stroke="black" points="203.79,-34.54 200.29,-24.54 196.79,-34.54 203.79,-34.54"/>
</g>
<!-- :data:coverart&#45;&gt;:shared:domain -->
<g id="edge20" class="edge">
<title>:data:coverart&#45;&gt;:shared:domain</title>
<path fill="none" stroke="black" stroke-dasharray="1,5" d="M348.07,-429C404.86,-429 472.64,-429 472.64,-429 472.64,-429 472.64,-45.4 472.64,-45.4"/>
<polygon fill="black" stroke="black" points="476.14,-45.4 472.64,-35.4 469.14,-45.4 476.14,-45.4"/>
</g>
<!-- :data:coverart&#45;&gt;:test&#45;data -->
<g id="edge22" class="edge">
<title>:data:coverart&#45;&gt;:test&#45;data</title>
<path fill="none" stroke="#ff9ab1" stroke-dasharray="1,5" d="M290.31,-446.63C290.31,-446.63 290.31,-538.87 290.31,-538.87"/>
<polygon fill="#ff9ab1" stroke="#ff9ab1" points="286.81,-538.87 290.31,-548.87 293.81,-538.87 286.81,-538.87"/>
</g>
<!-- :data:coverart&#45;&gt;:core:logging:api -->
<g id="edge21" class="edge">
<title>:data:coverart&#45;&gt;:core:logging:api</title>
<path fill="none" stroke="black" stroke-dasharray="1,5" d="M195.81,-429C178.98,-429 166.04,-429 166.04,-429 166.04,-429 166.04,-43.12 166.04,-43.12"/>
<polygon fill="black" stroke="black" points="169.55,-43.12 166.04,-33.12 162.55,-43.12 169.55,-43.12"/>
</g>
<!-- :data:coverart&#45;&gt;:data:database -->
<g id="edge24" class="edge">
<title>:data:coverart&#45;&gt;:data:database</title>
<path fill="none" stroke="#ff9ab1" stroke-dasharray="1,5" d="M323.77,-415.61C323.77,-415.61 323.77,-315.24 323.77,-315.24"/>
<polygon fill="#ff9ab1" stroke="#ff9ab1" points="327.27,-315.24 323.77,-305.24 320.27,-315.24 327.27,-315.24"/>
</g>
<!-- :data:coverart&#45;&gt;:data:musicbrainz -->
<g id="edge23" class="edge">
<title>:data:coverart&#45;&gt;:data:musicbrainz</title>
<path fill="none" stroke="#ff9ab1" stroke-dasharray="1,5" d="M247.73,-411.86C247.73,-411.86 247.73,-181.44 247.73,-181.44"/>
<polygon fill="#ff9ab1" stroke="#ff9ab1" points="251.23,-181.44 247.73,-171.44 244.23,-181.44 251.23,-181.44"/>
</g>
<!-- :data:spotify&#45;&gt;:shared:domain -->
<g id="edge25" class="edge">
<title>:data:spotify&#45;&gt;:shared:domain</title>
<path fill="none" stroke="black" stroke-dasharray="1,5" d="M101.69,-139C101.69,-118.61 101.69,-86 101.69,-86 101.69,-86 370.73,-86 370.73,-86 370.73,-86 370.73,-34.52 370.73,-34.52"/>
<polygon fill="black" stroke="black" points="374.23,-34.52 370.73,-24.52 367.23,-34.52 374.23,-34.52"/>
</g>
<!-- :data:spotify&#45;&gt;:core:logging:api -->
<g id="edge26" class="edge">
<title>:data:spotify&#45;&gt;:core:logging:api</title>
<path fill="none" stroke="black" stroke-dasharray="1,5" d="M65.6,-136.81C65.6,-136.81 65.6,-42.9 65.6,-42.9"/>
<polygon fill="black" stroke="black" points="69.1,-42.9 65.6,-32.9 62.1,-42.9 69.1,-42.9"/>
</g>
</g>
</svg>
