<?xml version="1.0" encoding="UTF-8" standalone="no"?>
<!DOCTYPE svg PUBLIC "-//W3C//DTD SVG 1.1//EN"
 "http://www.w3.org/Graphics/SVG/1.1/DTD/svg11.dtd">
<!-- Generated by graphviz version 2.43.0 (0)
 -->
<!-- Title: %3 Pages: 1 -->
<svg width="1106pt" height="1077pt"
 viewBox="0.00 0.00 1105.98 1077.00" xmlns="http://www.w3.org/2000/svg" xmlns:xlink="http://www.w3.org/1999/xlink">
<g id="graph0" class="graph" transform="scale(1 1) rotate(0) translate(4 1073)">
<title>%3</title>
<polygon fill="white" stroke="transparent" points="-4,4 -4,-1073 1101.98,-1073 1101.98,4 -4,4"/>
<text text-anchor="middle" x="548.99" y="-1041" font-family="Times,serif" font-size="30.00">Dependencies</text>
<text text-anchor="middle" x="548.99" y="-1008" font-family="Times,serif" font-size="30.00"> </text>
<!-- :shared:feature:graph -->
<g id="node1" class="node">
<title>:shared:feature:graph</title>
<polygon fill="#b59aff" stroke="black" points="407.34,-995 234.34,-995 234.34,-959 407.34,-959 407.34,-995"/>
<text text-anchor="middle" x="320.84" y="-973.3" font-family="Times,serif" font-size="14.00">:shared:feature:graph</text>
</g>
<!-- :ui:test:screenshot -->
<g id="node2" class="node">
<title>:ui:test:screenshot</title>
<ellipse fill="#9affb5" stroke="black" cx="96.84" cy="-703" rx="96.68" ry="18"/>
<text text-anchor="middle" x="96.84" y="-699.3" font-family="Times,serif" font-size="14.00">:ui:test:screenshot</text>
</g>
<!-- :shared:feature:graph&#45;&gt;:ui:test:screenshot -->
<g id="edge1" class="edge">
<title>:shared:feature:graph&#45;&gt;:ui:test:screenshot</title>
<path fill="none" stroke="#ff9ab1" stroke-dasharray="1,5" d="M234.08,-977C159.73,-977 64.56,-977 64.56,-977 64.56,-977 64.56,-730.14 64.56,-730.14"/>
<polygon fill="#ff9ab1" stroke="#ff9ab1" points="68.06,-730.14 64.56,-720.14 61.06,-730.14 68.06,-730.14"/>
</g>
<!-- :ui:common -->
<g id="node3" class="node">
<title>:ui:common</title>
<ellipse fill="#b59aff" stroke="black" cx="363.84" cy="-840" rx="64.19" ry="18"/>
<text text-anchor="middle" x="363.84" y="-836.3" font-family="Times,serif" font-size="14.00">:ui:common</text>
</g>
<!-- :shared:feature:graph&#45;&gt;:ui:common -->
<g id="edge2" class="edge">
<title>:shared:feature:graph&#45;&gt;:ui:common</title>
<path fill="none" stroke="black" stroke-dasharray="1,5" d="M353.42,-958.81C353.42,-958.81 353.42,-867.83 353.42,-867.83"/>
<polygon fill="black" stroke="black" points="356.92,-867.83 353.42,-857.83 349.92,-867.83 356.92,-867.83"/>
</g>
<!-- :shared:domain -->
<g id="node4" class="node">
<title>:shared:domain</title>
<ellipse fill="#b59aff" stroke="black" cx="480.84" cy="-155" rx="82.59" ry="18"/>
<text text-anchor="middle" x="480.84" y="-151.3" font-family="Times,serif" font-size="14.00">:shared:domain</text>
</g>
<!-- :shared:feature:graph&#45;&gt;:shared:domain -->
<g id="edge3" class="edge">
<title>:shared:feature:graph&#45;&gt;:shared:domain</title>
<path fill="none" stroke="black" stroke-dasharray="1,5" d="M407.5,-977C430.29,-977 448.64,-977 448.64,-977 448.64,-977 448.64,-181.79 448.64,-181.79"/>
<polygon fill="black" stroke="black" points="452.14,-181.79 448.64,-171.79 445.14,-181.79 452.14,-181.79"/>
</g>
<!-- :ui:image -->
<g id="node5" class="node">
<title>:ui:image</title>
<ellipse fill="#b59aff" stroke="black" cx="265.84" cy="-703" rx="53.89" ry="18"/>
<text text-anchor="middle" x="265.84" y="-699.3" font-family="Times,serif" font-size="14.00">:ui:image</text>
</g>
<!-- :shared:feature:graph&#45;&gt;:ui:image -->
<g id="edge4" class="edge">
<title>:shared:feature:graph&#45;&gt;:ui:image</title>
<path fill="none" stroke="black" stroke-dasharray="1,5" d="M266.92,-958.6C266.92,-958.6 266.92,-731.32 266.92,-731.32"/>
<polygon fill="black" stroke="black" points="270.42,-731.32 266.92,-721.32 263.42,-731.32 270.42,-731.32"/>
</g>
<!-- :ui:core -->
<g id="node6" class="node">
<title>:ui:core</title>
<ellipse fill="#b59aff" stroke="black" cx="270.84" cy="-566" rx="45.49" ry="18"/>
<text text-anchor="middle" x="270.84" y="-562.3" font-family="Times,serif" font-size="14.00">:ui:core</text>
</g>
<!-- :ui:test:screenshot&#45;&gt;:ui:core -->
<g id="edge5" class="edge">
<title>:ui:test:screenshot&#45;&gt;:ui:core</title>
<path fill="none" stroke="black" stroke-dasharray="1,5" d="M166.78,-690.36C166.78,-656.44 166.78,-566 166.78,-566 166.78,-566 215.2,-566 215.2,-566"/>
<polygon fill="black" stroke="black" points="215.2,-569.5 225.2,-566 215.2,-562.5 215.2,-569.5"/>
</g>
<!-- :test:image -->
<g id="node7" class="node">
<title>:test:image</title>
<ellipse fill="#9affb5" stroke="black" cx="76.84" cy="-566" rx="63.09" ry="18"/>
<text text-anchor="middle" x="76.84" y="-562.3" font-family="Times,serif" font-size="14.00">:test:image</text>
</g>
<!-- :ui:test:screenshot&#45;&gt;:test:image -->
<g id="edge6" class="edge">
<title>:ui:test:screenshot&#45;&gt;:test:image</title>
<path fill="none" stroke="black" stroke-dasharray="1,5" d="M76.84,-685.37C76.84,-685.37 76.84,-594.44 76.84,-594.44"/>
<polygon fill="black" stroke="black" points="80.34,-594.44 76.84,-584.44 73.34,-594.44 80.34,-594.44"/>
</g>
<!-- :ui:common&#45;&gt;:ui:test:screenshot -->
<g id="edge8" class="edge">
<title>:ui:common&#45;&gt;:ui:test:screenshot</title>
<path fill="none" stroke="#ff9ab1" stroke-dasharray="1,5" d="M299.39,-840C229.91,-840 129.12,-840 129.12,-840 129.12,-840 129.12,-730.07 129.12,-730.07"/>
<polygon fill="#ff9ab1" stroke="#ff9ab1" points="132.62,-730.07 129.12,-720.07 125.62,-730.07 132.62,-730.07"/>
</g>
<!-- :ui:common&#45;&gt;:shared:domain -->
<g id="edge10" class="edge">
<title>:ui:common&#45;&gt;:shared:domain</title>
<path fill="none" stroke="black" d="M413.24,-828.4C413.24,-828.4 413.24,-175.42 413.24,-175.42"/>
<polygon fill="black" stroke="black" points="416.74,-175.42 413.24,-165.42 409.74,-175.42 416.74,-175.42"/>
</g>
<!-- :ui:common&#45;&gt;:ui:image -->
<g id="edge13" class="edge">
<title>:ui:common&#45;&gt;:ui:image</title>
<path fill="none" stroke="black" stroke-dasharray="1,5" d="M309.64,-830.15C309.64,-830.15 309.64,-723.51 309.64,-723.51"/>
<polygon fill="black" stroke="black" points="313.14,-723.51 309.64,-713.51 306.14,-723.51 313.14,-723.51"/>
</g>
<!-- :ui:common&#45;&gt;:ui:core -->
<g id="edge11" class="edge">
<title>:ui:common&#45;&gt;:ui:core</title>
<path fill="none" stroke="black" d="M338.94,-823.32C338.94,-763.04 338.94,-560 338.94,-560 338.94,-560 323.97,-560 323.97,-560"/>
<polygon fill="black" stroke="black" points="323.97,-556.5 313.97,-560 323.97,-563.5 323.97,-556.5"/>
</g>
<!-- :test&#45;data -->
<g id="node8" class="node">
<title>:test&#45;data</title>
<ellipse fill="#b59aff" stroke="black" cx="765.84" cy="-703" rx="55.49" ry="18"/>
<text text-anchor="middle" x="765.84" y="-699.3" font-family="Times,serif" font-size="14.00">:test&#45;data</text>
</g>
<!-- :ui:common&#45;&gt;:test&#45;data -->
<g id="edge7" class="edge">
<title>:ui:common&#45;&gt;:test&#45;data</title>
<path fill="none" stroke="#ff9ab1" stroke-dasharray="1,5" d="M420.71,-831.4C420.71,-802.26 420.71,-709 420.71,-709 420.71,-709 703.42,-709 703.42,-709"/>
<polygon fill="#ff9ab1" stroke="#ff9ab1" points="703.42,-712.5 713.42,-709 703.42,-705.5 703.42,-712.5"/>
</g>
<!-- :core:coroutines -->
<g id="node9" class="node">
<title>:core:coroutines</title>
<ellipse fill="#b59aff" stroke="black" cx="1012.84" cy="-18" rx="85.29" ry="18"/>
<text text-anchor="middle" x="1012.84" y="-14.3" font-family="Times,serif" font-size="14.00">:core:coroutines</text>
</g>
<!-- :ui:common&#45;&gt;:core:coroutines -->
<g id="edge9" class="edge">
<title>:ui:common&#45;&gt;:core:coroutines</title>
<path fill="none" stroke="#ff9ab1" stroke-dasharray="1,5" d="M378.19,-822.32C378.19,-702.33 378.19,-12 378.19,-12 378.19,-12 922.46,-12 922.46,-12"/>
<polygon fill="#ff9ab1" stroke="#ff9ab1" points="922.46,-15.5 932.46,-12 922.46,-8.5 922.46,-15.5"/>
</g>
<!-- :core:logging:api -->
<g id="node10" class="node">
<title>:core:logging:api</title>
<ellipse fill="#b59aff" stroke="black" cx="896.84" cy="-155" rx="88.28" ry="18"/>
<text text-anchor="middle" x="896.84" y="-151.3" font-family="Times,serif" font-size="14.00">:core:logging:api</text>
</g>
<!-- :ui:common&#45;&gt;:core:logging:api -->
<g id="edge12" class="edge">
<title>:ui:common&#45;&gt;:core:logging:api</title>
<path fill="none" stroke="black" stroke-dasharray="1,5" d="M428.45,-840C582.69,-840 959.63,-840 959.63,-840 959.63,-840 959.63,-177.77 959.63,-177.77"/>
<polygon fill="black" stroke="black" points="963.13,-177.77 959.63,-167.77 956.13,-177.77 963.13,-177.77"/>
</g>
<!-- :ui:image&#45;&gt;:shared:domain -->
<g id="edge14" class="edge">
<title>:ui:image&#45;&gt;:shared:domain</title>
<path fill="none" stroke="black" stroke-dasharray="1,5" d="M316.75,-697C356.76,-697 405.77,-697 405.77,-697 405.77,-697 405.77,-172.66 405.77,-172.66"/>
<polygon fill="black" stroke="black" points="409.27,-172.66 405.77,-162.66 402.27,-172.66 409.27,-172.66"/>
</g>
<!-- :ui:image&#45;&gt;:ui:core -->
<g id="edge15" class="edge">
<title>:ui:image&#45;&gt;:ui:core</title>
<path fill="none" stroke="black" stroke-dasharray="1,5" d="M270.84,-684.81C270.84,-684.81 270.84,-594.27 270.84,-594.27"/>
<polygon fill="black" stroke="black" points="274.34,-594.27 270.84,-584.27 267.34,-594.27 274.34,-594.27"/>
</g>
<!-- :shared:strings -->
<g id="node11" class="node">
<title>:shared:strings</title>
<ellipse fill="#b59aff" stroke="black" cx="276.84" cy="-429" rx="81.49" ry="18"/>
<text text-anchor="middle" x="276.84" y="-425.3" font-family="Times,serif" font-size="14.00">:shared:strings</text>
</g>
<!-- :ui:core&#45;&gt;:shared:strings -->
<g id="edge16" class="edge">
<title>:ui:core&#45;&gt;:shared:strings</title>
<path fill="none" stroke="black" d="M270.84,-547.81C270.84,-547.81 270.84,-457.27 270.84,-457.27"/>
<polygon fill="black" stroke="black" points="274.34,-457.27 270.84,-447.27 267.34,-457.27 274.34,-457.27"/>
</g>
<!-- :test&#45;data&#45;&gt;:shared:domain -->
<g id="edge17" class="edge">
<title>:test&#45;data&#45;&gt;:shared:domain</title>
<path fill="none" stroke="black" stroke-dasharray="1,5" d="M716.99,-694.53C716.99,-625.96 716.99,-164 716.99,-164 716.99,-164 562.33,-164 562.33,-164"/>
<polygon fill="black" stroke="black" points="562.33,-160.5 552.33,-164 562.33,-167.5 562.33,-160.5"/>
</g>
<!-- :test&#45;data&#45;&gt;:core:coroutines -->
<g id="edge18" class="edge">
<title>:test&#45;data&#45;&gt;:core:coroutines</title>
<path fill="none" stroke="black" stroke-dasharray="1,5" d="M719.12,-693.14C719.12,-609.64 719.12,-24 719.12,-24 719.12,-24 922.19,-24 922.19,-24"/>
<polygon fill="black" stroke="black" points="922.19,-27.5 932.19,-24 922.19,-20.5 922.19,-27.5"/>
</g>
<!-- :data:database -->
<g id="node12" class="node">
<title>:data:database</title>
<ellipse fill="#b59aff" stroke="black" cx="568.84" cy="-429" rx="79.09" ry="18"/>
<text text-anchor="middle" x="568.84" y="-425.3" font-family="Times,serif" font-size="14.00">:data:database</text>
</g>
<!-- :test&#45;data&#45;&gt;:data:database -->
<g id="edge19" class="edge">
<title>:test&#45;data&#45;&gt;:data:database</title>
<path fill="none" stroke="black" stroke-dasharray="1,5" d="M712.73,-697.96C712.73,-661.46 712.73,-439 712.73,-439 712.73,-439 644.89,-439 644.89,-439"/>
<polygon fill="black" stroke="black" points="644.89,-435.5 634.89,-439 644.89,-442.5 644.89,-435.5"/>
</g>
<!-- :data:musicbrainz -->
<g id="node13" class="node">
<title>:data:musicbrainz</title>
<ellipse fill="#b59aff" stroke="black" cx="814.84" cy="-292" rx="93.68" ry="18"/>
<text text-anchor="middle" x="814.84" y="-288.3" font-family="Times,serif" font-size="14.00">:data:musicbrainz</text>
</g>
<!-- :test&#45;data&#45;&gt;:data:musicbrainz -->
<g id="edge20" class="edge">
<title>:test&#45;data&#45;&gt;:data:musicbrainz</title>
<path fill="none" stroke="black" stroke-dasharray="1,5" d="M734.95,-687.88C734.95,-687.88 734.95,-311.71 734.95,-311.71"/>
<polygon fill="black" stroke="black" points="738.45,-311.71 734.95,-301.71 731.45,-311.71 738.45,-311.71"/>
</g>
<!-- :data:coverart -->
<g id="node14" class="node">
<title>:data:coverart</title>
<ellipse fill="#b59aff" stroke="black" cx="817.84" cy="-566" rx="76.09" ry="18"/>
<text text-anchor="middle" x="817.84" y="-562.3" font-family="Times,serif" font-size="14.00">:data:coverart</text>
</g>
<!-- :test&#45;data&#45;&gt;:data:coverart -->
<g id="edge21" class="edge">
<title>:test&#45;data&#45;&gt;:data:coverart</title>
<path fill="none" stroke="black" stroke-dasharray="1,5" d="M768.23,-684.81C768.23,-684.81 768.23,-589.71 768.23,-589.71"/>
<polygon fill="black" stroke="black" points="771.73,-589.71 768.23,-579.71 764.73,-589.71 771.73,-589.71"/>
</g>
<!-- :data:spotify -->
<g id="node15" class="node">
<title>:data:spotify</title>
<ellipse fill="#b59aff" stroke="black" cx="634.84" cy="-292" rx="68.79" ry="18"/>
<text text-anchor="middle" x="634.84" y="-288.3" font-family="Times,serif" font-size="14.00">:data:spotify</text>
</g>
<!-- :test&#45;data&#45;&gt;:data:spotify -->
<g id="edge22" class="edge">
<title>:test&#45;data&#45;&gt;:data:spotify</title>
<path fill="none" stroke="black" stroke-dasharray="1,5" d="M714.86,-695.87C714.86,-641.29 714.86,-292 714.86,-292 714.86,-292 713.78,-292 713.78,-292"/>
<polygon fill="black" stroke="black" points="714.07,-288.5 704.07,-292 714.07,-295.5 714.07,-288.5"/>
</g>
<!-- :core:logging:api&#45;&gt;:core:coroutines -->
<g id="edge23" class="edge">
<title>:core:logging:api&#45;&gt;:core:coroutines</title>
<path fill="none" stroke="black" d="M956.47,-141.61C956.47,-141.61 956.47,-41.64 956.47,-41.64"/>
<polygon fill="black" stroke="black" points="959.97,-41.64 956.47,-31.64 952.97,-41.64 959.97,-41.64"/>
</g>
<!-- :data:database&#45;&gt;:shared:domain -->
<g id="edge24" class="edge">
<title>:data:database&#45;&gt;:shared:domain</title>
<path fill="none" stroke="black" stroke-dasharray="1,5" d="M514.16,-415.78C514.16,-415.78 514.16,-181.8 514.16,-181.8"/>
<polygon fill="black" stroke="black" points="517.66,-181.8 514.16,-171.8 510.66,-181.8 517.66,-181.8"/>
</g>
<!-- :data:database&#45;&gt;:core:coroutines -->
<g id="edge25" class="edge">
<title>:data:database&#45;&gt;:core:coroutines</title>
<path fill="none" stroke="black" stroke-dasharray="1,5" d="M646.37,-425C776.03,-425 1022.82,-425 1022.82,-425 1022.82,-425 1022.82,-46.01 1022.82,-46.01"/>
<polygon fill="black" stroke="black" points="1026.32,-46.01 1022.82,-36.01 1019.32,-46.01 1026.32,-46.01"/>
</g>
<!-- :data:database&#45;&gt;:data:musicbrainz -->
<g id="edge26" class="edge">
<title>:data:database&#45;&gt;:data:musicbrainz</title>
<path fill="none" stroke="black" stroke-dasharray="1,5" d="M631.78,-418C676.3,-418 728.1,-418 728.1,-418 728.1,-418 728.1,-308.77 728.1,-308.77"/>
<polygon fill="black" stroke="black" points="731.6,-308.77 728.1,-298.77 724.6,-308.77 731.6,-308.77"/>
</g>
<!-- :data:musicbrainz&#45;&gt;:shared:domain -->
<g id="edge27" class="edge">
<title>:data:musicbrainz&#45;&gt;:shared:domain</title>
<path fill="none" stroke="black" stroke-dasharray="1,5" d="M764.85,-276.65C764.85,-239.17 764.85,-146 764.85,-146 764.85,-146 562.51,-146 562.51,-146"/>
<polygon fill="black" stroke="black" points="562.51,-142.5 552.51,-146 562.51,-149.5 562.51,-142.5"/>
</g>
<!-- :data:musicbrainz&#45;&gt;:core:logging:api -->
<g id="edge28" class="edge">
<title>:data:musicbrainz&#45;&gt;:core:logging:api</title>
<path fill="none" stroke="black" stroke-dasharray="1,5" d="M858.44,-276.02C858.44,-276.02 858.44,-181.31 858.44,-181.31"/>
<polygon fill="black" stroke="black" points="861.94,-181.31 858.44,-171.31 854.94,-181.31 861.94,-181.31"/>
</g>
<!-- :data:coverart&#45;&gt;:shared:domain -->
<g id="edge29" class="edge">
<title>:data:coverart&#45;&gt;:shared:domain</title>
<path fill="none" stroke="black" stroke-dasharray="1,5" d="M746,-572C643.91,-572 469.09,-572 469.09,-572 469.09,-572 469.09,-182.92 469.09,-182.92"/>
<polygon fill="black" stroke="black" points="472.59,-182.92 469.09,-172.92 465.59,-182.92 472.59,-182.92"/>
</g>
<!-- :data:coverart&#45;&gt;:test&#45;data -->
<g id="edge32" class="edge">
<title>:data:coverart&#45;&gt;:test&#45;data</title>
<path fill="none" stroke="#ff9ab1" stroke-dasharray="1,5" d="M794.66,-583.35C794.66,-583.35 794.66,-677.48 794.66,-677.48"/>
<polygon fill="#ff9ab1" stroke="#ff9ab1" points="791.16,-677.48 794.66,-687.48 798.16,-677.48 791.16,-677.48"/>
</g>
<!-- :data:coverart&#45;&gt;:core:coroutines -->
<g id="edge31" class="edge">
<title>:data:coverart&#45;&gt;:core:coroutines</title>
<path fill="none" stroke="black" stroke-dasharray="1,5" d="M889.63,-572C961.16,-572 1060.4,-572 1060.4,-572 1060.4,-572 1060.4,-43.11 1060.4,-43.11"/>
<polygon fill="black" stroke="black" points="1063.9,-43.11 1060.4,-33.11 1056.9,-43.11 1063.9,-43.11"/>
</g>
<!-- :data:coverart&#45;&gt;:core:logging:api -->
<g id="edge30" class="edge">
<title>:data:coverart&#45;&gt;:core:logging:api</title>
<path fill="none" stroke="black" stroke-dasharray="1,5" d="M889.77,-560C913.54,-560 934.03,-560 934.03,-560 934.03,-560 934.03,-181.38 934.03,-181.38"/>
<polygon fill="black" stroke="black" points="937.53,-181.38 934.03,-171.38 930.53,-181.38 937.53,-181.38"/>
</g>
<!-- :data:coverart&#45;&gt;:data:database -->
<g id="edge34" class="edge">
<title>:data:coverart&#45;&gt;:data:database</title>
<path fill="none" stroke="#ff9ab1" stroke-dasharray="1,5" d="M792.49,-549.03C792.49,-512.97 792.49,-432 792.49,-432 792.49,-432 657.06,-432 657.06,-432"/>
<polygon fill="#ff9ab1" stroke="#ff9ab1" points="657.06,-428.5 647.06,-432 657.06,-435.5 657.06,-428.5"/>
</g>
<!-- :data:coverart&#45;&gt;:data:musicbrainz -->
<g id="edge33" class="edge">
<title>:data:coverart&#45;&gt;:data:musicbrainz</title>
<path fill="none" stroke="#ff9ab1" stroke-dasharray="1,5" d="M843.19,-548.86C843.19,-548.86 843.19,-319.49 843.19,-319.49"/>
<polygon fill="#ff9ab1" stroke="#ff9ab1" points="846.69,-319.49 843.19,-309.49 839.69,-319.49 846.69,-319.49"/>
</g>
<!-- :data:spotify&#45;&gt;:shared:domain -->
<g id="edge35" class="edge">
<title>:data:spotify&#45;&gt;:shared:domain</title>
<path fill="none" stroke="black" stroke-dasharray="1,5" d="M565.79,-292C550.51,-292 538.77,-292 538.77,-292 538.77,-292 538.77,-177.89 538.77,-177.89"/>
<polygon fill="black" stroke="black" points="542.27,-177.89 538.77,-167.89 535.27,-177.89 542.27,-177.89"/>
</g>
<!-- :data:spotify&#45;&gt;:core:logging:api -->
<g id="edge36" class="edge">
<title>:data:spotify&#45;&gt;:core:logging:api</title>
<path fill="none" stroke="black" stroke-dasharray="1,5" d="M634.84,-273.81C634.84,-236.54 634.84,-155 634.84,-155 634.84,-155 798.14,-155 798.14,-155"/>
<polygon fill="black" stroke="black" points="798.14,-158.5 808.14,-155 798.14,-151.5 798.14,-158.5"/>
</g>
</g>
</svg>
