<?xml version="1.0" encoding="UTF-8" standalone="no"?>
<!-- Created with Inkscape (http://www.inkscape.org/) -->

<svg
   width="512"
   height="510"
   viewBox="0 0 135.46666 134.9375"
   version="1.1"
   id="svg5"
   inkscape:version="1.2.1 (9c6d41e410, 2022-07-14)"
   sodipodi:docname="logo_no_bg.svg"
   inkscape:export-filename="logo_no_bg.png"
   inkscape:export-xdpi="96"
   inkscape:export-ydpi="96"
   xmlns:inkscape="http://www.inkscape.org/namespaces/inkscape"
   xmlns:sodipodi="http://sodipodi.sourceforge.net/DTD/sodipodi-0.dtd"
   xmlns="http://www.w3.org/2000/svg"
   xmlns:svg="http://www.w3.org/2000/svg">
  <sodipodi:namedview
     id="namedview7"
     pagecolor="#ffffff"
     bordercolor="#000000"
     borderopacity="0.25"
     inkscape:showpageshadow="true"
     inkscape:pageopacity="0.0"
     inkscape:pagecheckerboard="false"
     inkscape:deskcolor="#d1d1d1"
     inkscape:document-units="px"
     showgrid="true"
     showborder="false"
     borderlayer="true"
     showguides="true"
     inkscape:zoom="2"
     inkscape:cx="199.25"
     inkscape:cy="243.5"
     inkscape:window-width="2560"
     inkscape:window-height="1377"
     inkscape:window-x="1912"
     inkscape:window-y="-8"
     inkscape:window-maximized="1"
     inkscape:current-layer="layer1">
    <inkscape:grid
       type="xygrid"
       id="grid38956" />
  </sodipodi:namedview>
  <defs
     id="defs2" />
  <g
     inkscape:label="Layer 1"
     inkscape:groupmode="layer"
     id="layer1">
    <path
       id="path38951"
       style="fill:#571aff;stroke-width:0.381719;opacity:1;fill-opacity:1"
       d="M 67.733332 46.566666 A 21.166666 21.166666 0 0 0 46.566666 67.733332 A 21.166666 21.166666 0 0 0 67.733332 88.899998 A 21.166666 21.166666 0 0 0 88.899998 67.733332 A 21.166666 21.166666 0 0 0 67.733332 46.566666 z M 67.733332 51.858332 A 15.874997 15.874997 0 0 1 83.608331 67.733332 A 15.874997 15.874997 0 0 1 67.733332 83.608331 A 15.874997 15.874997 0 0 1 51.858332 67.733332 A 15.874997 15.874997 0 0 1 67.733332 51.858332 z " />
    <circle
       style="opacity:1;fill:#571aff;stroke-width:0.846667;fill-opacity:1"
       id="path39382"
       cx="67.73333"
       cy="67.73333"
       r="10.583333" />
    <rect
       style="opacity:1;fill:#571aff;stroke-width:0.498903;fill-opacity:1"
       id="rect39438"
       width="5.2916665"
       height="42.333336"
       x="72.760414"
       y="27.78125"
       ry="2.6458325"
       rx="0" />
    <path
       id="rect294"
       style="opacity:1;fill:#571aff;stroke-width:0.498903;fill-opacity:1"
       d="M -1.8708866 -111.55089 A 15.875 15.875 0 0 1 3.4209455 -111.28048 L 3.4209455 -140.71552 C 3.4209455 -142.18131 2.2408192 -143.36144 0.77502941 -143.36144 C -0.69076035 -143.36144 -1.8708866 -142.18131 -1.8708866 -140.71552 L -1.8708866 -111.55089 z "
       transform="rotate(135)" />
  </g>
</svg>
