<?xml version="1.0" encoding="UTF-8" standalone="no"?>
<!DOCTYPE svg PUBLIC "-//W3C//DTD SVG 1.1//EN"
 "http://www.w3.org/Graphics/SVG/1.1/DTD/svg11.dtd">
<!-- Generated by graphviz version 8.1.0 (20230707.0739)
 -->
<!-- Pages: 1 -->
<svg width="1661pt" height="1217pt"
 viewBox="0.00 0.00 1660.54 1217.00" xmlns="http://www.w3.org/2000/svg" xmlns:xlink="http://www.w3.org/1999/xlink">
<g id="graph0" class="graph" transform="scale(1 1) rotate(0) translate(4 1213)">
<polygon fill="white" stroke="none" points="-4,4 -4,-1213 1656.54,-1213 1656.54,4 -4,4"/>
<text text-anchor="middle" x="826.27" y="-1176.5" font-family="Times New Roman,serif" font-size="30.00">MusicSearch</text>
<text text-anchor="middle" x="826.27" y="-1142" font-family="Times New Roman,serif" font-size="30.00"> </text>
<!-- :app -->
<g id="node1" class="node">
<title>:app</title>
<polygon fill="#9affb5" stroke="black" points="776.54,-1132 416.54,-1132 416.54,-1096 776.54,-1096 776.54,-1132"/>
<text text-anchor="middle" x="596.54" y="-1108.58" font-family="Times New Roman,serif" font-size="14.00">:app</text>
</g>
<!-- :test&#45;data -->
<g id="node2" class="node">
<title>:test&#45;data</title>
<ellipse fill="#b59aff" stroke="black" cx="316.54" cy="-429" rx="44.08" ry="18"/>
<text text-anchor="middle" x="316.54" y="-423.57" font-family="Times New Roman,serif" font-size="14.00">:test&#45;data</text>
</g>
<!-- :app&#45;&gt;:test&#45;data -->
<g id="edge1" class="edge">
<title>:app&#45;&gt;:test&#45;data</title>
<path fill="none" stroke="#ff9ab1" stroke-dasharray="1,5" d="M533.78,-1095.7C533.78,-988.16 533.78,-443 533.78,-443 533.78,-443 356.39,-443 356.39,-443"/>
<polygon fill="#ff9ab1" stroke="#ff9ab1" points="356.39,-439.5 346.39,-443 356.39,-446.5 356.39,-439.5"/>
</g>
<!-- :data&#45;android -->
<g id="node3" class="node">
<title>:data&#45;android</title>
<ellipse fill="#9affb5" stroke="black" cx="316.54" cy="-566" rx="59.55" ry="18"/>
<text text-anchor="middle" x="316.54" y="-560.58" font-family="Times New Roman,serif" font-size="14.00">:data&#45;android</text>
</g>
<!-- :app&#45;&gt;:data&#45;android -->
<g id="edge2" class="edge">
<title>:app&#45;&gt;:data&#45;android</title>
<path fill="none" stroke="black" stroke-dasharray="1,5" d="M416.07,-1105C354.21,-1105 300.25,-1105 300.25,-1105 300.25,-1105 300.25,-594.63 300.25,-594.63"/>
<polygon fill="black" stroke="black" points="303.75,-594.63 300.25,-584.63 296.75,-594.63 303.75,-594.63"/>
</g>
<!-- :data:database -->
<g id="node4" class="node">
<title>:data:database</title>
<ellipse fill="#b59aff" stroke="black" cx="62.54" cy="-429" rx="62.54" ry="18"/>
<text text-anchor="middle" x="62.54" y="-423.57" font-family="Times New Roman,serif" font-size="14.00">:data:database</text>
</g>
<!-- :app&#45;&gt;:data:database -->
<g id="edge3" class="edge">
<title>:app&#45;&gt;:data:database</title>
<path fill="none" stroke="black" stroke-dasharray="1,5" d="M416.15,-1123C250.34,-1123 30.11,-1123 30.11,-1123 30.11,-1123 30.11,-455.8 30.11,-455.8"/>
<polygon fill="black" stroke="black" points="33.61,-455.8 30.11,-445.8 26.61,-455.8 33.61,-455.8"/>
</g>
<!-- :domain -->
<g id="node5" class="node">
<title>:domain</title>
<ellipse fill="#b59aff" stroke="black" cx="160.54" cy="-566" rx="40.09" ry="18"/>
<text text-anchor="middle" x="160.54" y="-560.58" font-family="Times New Roman,serif" font-size="14.00">:domain</text>
</g>
<!-- :app&#45;&gt;:domain -->
<g id="edge4" class="edge">
<title>:app&#45;&gt;:domain</title>
<path fill="none" stroke="black" stroke-dasharray="1,5" d="M416.24,-1114C285.63,-1114 131.91,-1114 131.91,-1114 131.91,-1114 131.91,-590.01 131.91,-590.01"/>
<polygon fill="black" stroke="black" points="135.41,-590.01 131.91,-580.01 128.41,-590.01 135.41,-590.01"/>
</g>
<!-- :ui:common -->
<g id="node6" class="node">
<title>:ui:common</title>
<ellipse fill="#9affb5" stroke="black" cx="600.54" cy="-703" rx="54.06" ry="18"/>
<text text-anchor="middle" x="600.54" y="-697.58" font-family="Times New Roman,serif" font-size="14.00">:ui:common</text>
</g>
<!-- :app&#45;&gt;:ui:common -->
<g id="edge5" class="edge">
<title>:app&#45;&gt;:ui:common</title>
<path fill="none" stroke="black" stroke-dasharray="1,5" d="M600.54,-1095.54C600.54,-1095.54 600.54,-732.41 600.54,-732.41"/>
<polygon fill="black" stroke="black" points="604.04,-732.41 600.54,-722.41 597.04,-732.41 604.04,-732.41"/>
</g>
<!-- :ui:core -->
<g id="node7" class="node">
<title>:ui:core</title>
<ellipse fill="#b59aff" stroke="black" cx="1090.54" cy="-429" rx="37.59" ry="18"/>
<text text-anchor="middle" x="1090.54" y="-423.57" font-family="Times New Roman,serif" font-size="14.00">:ui:core</text>
</g>
<!-- :app&#45;&gt;:ui:core -->
<g id="edge6" class="edge">
<title>:app&#45;&gt;:ui:core</title>
<path fill="none" stroke="black" stroke-dasharray="1,5" d="M536.96,-1095.62C536.96,-986.37 536.96,-427 536.96,-427 536.96,-427 1041.93,-427 1041.93,-427"/>
<polygon fill="black" stroke="black" points="1041.93,-430.5 1051.93,-427 1041.93,-423.5 1041.93,-430.5"/>
</g>
<!-- :ui:collections -->
<g id="node8" class="node">
<title>:ui:collections</title>
<ellipse fill="#9affb5" stroke="black" cx="404.54" cy="-977" rx="61.04" ry="18"/>
<text text-anchor="middle" x="404.54" y="-971.58" font-family="Times New Roman,serif" font-size="14.00">:ui:collections</text>
</g>
<!-- :app&#45;&gt;:ui:collections -->
<g id="edge7" class="edge">
<title>:app&#45;&gt;:ui:collections</title>
<path fill="none" stroke="black" stroke-dasharray="1,5" d="M441.06,-1095.52C441.06,-1095.52 441.06,-1002.83 441.06,-1002.83"/>
<polygon fill="black" stroke="black" points="444.56,-1002.83 441.06,-992.83 437.56,-1002.83 444.56,-1002.83"/>
</g>
<!-- :ui:history -->
<g id="node9" class="node">
<title>:ui:history</title>
<ellipse fill="#9affb5" stroke="black" cx="709.54" cy="-977" rx="46.57" ry="18"/>
<text text-anchor="middle" x="709.54" y="-971.58" font-family="Times New Roman,serif" font-size="14.00">:ui:history</text>
</g>
<!-- :app&#45;&gt;:ui:history -->
<g id="edge8" class="edge">
<title>:app&#45;&gt;:ui:history</title>
<path fill="none" stroke="black" stroke-dasharray="1,5" d="M709.54,-1095.52C709.54,-1095.52 709.54,-1006.18 709.54,-1006.18"/>
<polygon fill="black" stroke="black" points="713.04,-1006.18 709.54,-996.18 706.04,-1006.18 713.04,-1006.18"/>
</g>
<!-- :ui:image -->
<g id="node10" class="node">
<title>:ui:image</title>
<ellipse fill="#9affb5" stroke="black" cx="1247.54" cy="-566" rx="42.58" ry="18"/>
<text text-anchor="middle" x="1247.54" y="-560.58" font-family="Times New Roman,serif" font-size="14.00">:ui:image</text>
</g>
<!-- :app&#45;&gt;:ui:image -->
<g id="edge9" class="edge">
<title>:app&#45;&gt;:ui:image</title>
<path fill="none" stroke="black" stroke-dasharray="1,5" d="M776.98,-1114C899.5,-1114 1039.37,-1114 1039.37,-1114 1039.37,-1114 1039.37,-578 1039.37,-578 1039.37,-578 1204.01,-578 1204.01,-578"/>
<polygon fill="black" stroke="black" points="1204.01,-581.5 1214.01,-578 1204.01,-574.5 1204.01,-581.5"/>
</g>
<!-- :ui:nowplaying -->
<g id="node11" class="node">
<title>:ui:nowplaying</title>
<ellipse fill="#9affb5" stroke="black" cx="764.54" cy="-840" rx="63.54" ry="18"/>
<text text-anchor="middle" x="764.54" y="-834.58" font-family="Times New Roman,serif" font-size="14.00">:ui:nowplaying</text>
</g>
<!-- :app&#45;&gt;:ui:nowplaying -->
<g id="edge10" class="edge">
<title>:app&#45;&gt;:ui:nowplaying</title>
<path fill="none" stroke="black" stroke-dasharray="1,5" d="M766.33,-1095.6C766.33,-1095.6 766.33,-869.32 766.33,-869.32"/>
<polygon fill="black" stroke="black" points="769.83,-869.32 766.33,-859.32 762.83,-869.32 769.83,-869.32"/>
</g>
<!-- :ui:settings -->
<g id="node12" class="node">
<title>:ui:settings</title>
<ellipse fill="#9affb5" stroke="black" cx="481.54" cy="-840" rx="49.07" ry="18"/>
<text text-anchor="middle" x="481.54" y="-834.58" font-family="Times New Roman,serif" font-size="14.00">:ui:settings</text>
</g>
<!-- :app&#45;&gt;:ui:settings -->
<g id="edge11" class="edge">
<title>:app&#45;&gt;:ui:settings</title>
<path fill="none" stroke="black" stroke-dasharray="1,5" d="M498.1,-1095.6C498.1,-1095.6 498.1,-868.26 498.1,-868.26"/>
<polygon fill="black" stroke="black" points="501.6,-868.26 498.1,-858.26 494.6,-868.26 501.6,-868.26"/>
</g>
<!-- :ui:spotify&#45;broadcast&#45;receiver -->
<g id="node13" class="node">
<title>:ui:spotify&#45;broadcast&#45;receiver</title>
<ellipse fill="#9affb5" stroke="black" cx="1173.54" cy="-840" rx="118.93" ry="18"/>
<text text-anchor="middle" x="1173.54" y="-834.58" font-family="Times New Roman,serif" font-size="14.00">:ui:spotify&#45;broadcast&#45;receiver</text>
</g>
<!-- :app&#45;&gt;:ui:spotify&#45;broadcast&#45;receiver -->
<g id="edge12" class="edge">
<title>:app&#45;&gt;:ui:spotify&#45;broadcast&#45;receiver</title>
<path fill="none" stroke="black" stroke-dasharray="1,5" d="M776.73,-1123C946.03,-1123 1173.54,-1123 1173.54,-1123 1173.54,-1123 1173.54,-869.13 1173.54,-869.13"/>
<polygon fill="black" stroke="black" points="1177.04,-869.13 1173.54,-859.13 1170.04,-869.13 1177.04,-869.13"/>
</g>
<!-- :ui:stats -->
<g id="node14" class="node">
<title>:ui:stats</title>
<ellipse fill="#9affb5" stroke="black" cx="960.54" cy="-840" rx="38.09" ry="18"/>
<text text-anchor="middle" x="960.54" y="-834.58" font-family="Times New Roman,serif" font-size="14.00">:ui:stats</text>
</g>
<!-- :app&#45;&gt;:ui:stats -->
<g id="edge13" class="edge">
<title>:app&#45;&gt;:ui:stats</title>
<path fill="none" stroke="black" stroke-dasharray="1,5" d="M776.94,-1105C868.47,-1105 960.54,-1105 960.54,-1105 960.54,-1105 960.54,-869.21 960.54,-869.21"/>
<polygon fill="black" stroke="black" points="964.04,-869.21 960.54,-859.21 957.04,-869.21 964.04,-869.21"/>
</g>
<!-- :data -->
<g id="node15" class="node">
<title>:data</title>
<ellipse fill="#ffb59a" stroke="black" cx="468.54" cy="-292" rx="28.11" ry="18"/>
<text text-anchor="middle" x="468.54" y="-286.57" font-family="Times New Roman,serif" font-size="14.00">:data</text>
</g>
<!-- :test&#45;data&#45;&gt;:data -->
<g id="edge21" class="edge">
<title>:test&#45;data&#45;&gt;:data</title>
<path fill="none" stroke="black" stroke-dasharray="1,5" d="M345.49,-415C389.59,-415 468.54,-415 468.54,-415 468.54,-415 468.54,-321.41 468.54,-321.41"/>
<polygon fill="black" stroke="black" points="472.04,-321.41 468.54,-311.41 465.04,-321.41 472.04,-321.41"/>
</g>
<!-- :data&#45;android&#45;&gt;:test&#45;data -->
<g id="edge15" class="edge">
<title>:data&#45;android&#45;&gt;:test&#45;data</title>
<path fill="none" stroke="#ff9ab1" stroke-dasharray="1,5" d="M316.54,-547.52C316.54,-547.52 316.54,-458.18 316.54,-458.18"/>
<polygon fill="#ff9ab1" stroke="#ff9ab1" points="320.04,-458.18 316.54,-448.18 313.04,-458.18 320.04,-458.18"/>
</g>
<!-- :data&#45;android&#45;&gt;:data -->
<g id="edge14" class="edge">
<title>:data&#45;android&#45;&gt;:data</title>
<path fill="none" stroke="black" d="M368.35,-556.67C368.35,-509.02 368.35,-295 368.35,-295 368.35,-295 429.37,-295 429.37,-295"/>
<polygon fill="black" stroke="black" points="429.37,-298.5 439.37,-295 429.37,-291.5 429.37,-298.5"/>
</g>
<!-- :data:core -->
<g id="node16" class="node">
<title>:data:core</title>
<ellipse fill="#b59aff" stroke="black" cx="510.54" cy="-18" rx="46.57" ry="18"/>
<text text-anchor="middle" x="510.54" y="-12.57" font-family="Times New Roman,serif" font-size="14.00">:data:core</text>
</g>
<!-- :data:database&#45;&gt;:data:core -->
<g id="edge28" class="edge">
<title>:data:database&#45;&gt;:data:core</title>
<path fill="none" stroke="black" stroke-dasharray="1,5" d="M18.78,-415.97C18.78,-345.08 18.78,-9 18.78,-9 18.78,-9 458.46,-9 458.46,-9"/>
<polygon fill="black" stroke="black" points="458.46,-12.5 468.46,-9 458.46,-5.5 458.46,-12.5"/>
</g>
<!-- :data:common:network -->
<g id="node17" class="node">
<title>:data:common:network</title>
<ellipse fill="#b59aff" stroke="black" cx="132.54" cy="-155" rx="94.98" ry="18"/>
<text text-anchor="middle" x="132.54" y="-149.57" font-family="Times New Roman,serif" font-size="14.00">:data:common:network</text>
</g>
<!-- :data:database&#45;&gt;:data:common:network -->
<g id="edge29" class="edge">
<title>:data:database&#45;&gt;:data:common:network</title>
<path fill="none" stroke="black" stroke-dasharray="1,5" d="M81.32,-411.44C81.32,-411.44 81.32,-181.35 81.32,-181.35"/>
<polygon fill="black" stroke="black" points="84.82,-181.35 81.32,-171.35 77.82,-181.35 84.82,-181.35"/>
</g>
<!-- :data:musicbrainz -->
<g id="node20" class="node">
<title>:data:musicbrainz</title>
<ellipse fill="#b59aff" stroke="black" cx="319.54" cy="-155" rx="74.52" ry="18"/>
<text text-anchor="middle" x="319.54" y="-149.57" font-family="Times New Roman,serif" font-size="14.00">:data:musicbrainz</text>
</g>
<!-- :data:database&#45;&gt;:data:musicbrainz -->
<g id="edge30" class="edge">
<title>:data:database&#45;&gt;:data:musicbrainz</title>
<path fill="none" stroke="black" stroke-dasharray="1,5" d="M122.05,-423C176.63,-423 249.01,-423 249.01,-423 249.01,-423 249.01,-172.1 249.01,-172.1"/>
<polygon fill="black" stroke="black" points="252.51,-172.1 249.01,-162.1 245.51,-172.1 252.51,-172.1"/>
</g>
<!-- :domain&#45;&gt;:data:database -->
<g id="edge25" class="edge">
<title>:domain&#45;&gt;:data:database</title>
<path fill="none" stroke="black" stroke-dasharray="1,5" d="M162.85,-547.79C162.85,-511.79 162.85,-435 162.85,-435 162.85,-435 133.05,-435 133.05,-435"/>
<polygon fill="black" stroke="black" points="133.05,-431.5 123.05,-435 133.05,-438.5 133.05,-431.5"/>
</g>
<!-- :domain&#45;&gt;:data:core -->
<g id="edge22" class="edge">
<title>:domain&#45;&gt;:data:core</title>
<path fill="none" stroke="black" stroke-dasharray="1,5" d="M198.85,-560C217.63,-560 236.27,-560 236.27,-560 236.27,-560 236.27,-18 236.27,-18 236.27,-18 452.7,-18 452.7,-18"/>
<polygon fill="black" stroke="black" points="452.7,-21.5 462.7,-18 452.7,-14.5 452.7,-21.5"/>
</g>
<!-- :domain&#45;&gt;:data:common:network -->
<g id="edge23" class="edge">
<title>:domain&#45;&gt;:data:common:network</title>
<path fill="none" stroke="black" stroke-dasharray="1,5" d="M181.74,-550.39C181.74,-550.39 181.74,-181.63 181.74,-181.63"/>
<polygon fill="black" stroke="black" points="185.24,-181.63 181.74,-171.63 178.24,-181.63 185.24,-181.63"/>
</g>
<!-- :data:coverart -->
<g id="node18" class="node">
<title>:data:coverart</title>
<ellipse fill="#b59aff" stroke="black" cx="641.54" cy="-155" rx="60.54" ry="18"/>
<text text-anchor="middle" x="641.54" y="-149.57" font-family="Times New Roman,serif" font-size="14.00">:data:coverart</text>
</g>
<!-- :domain&#45;&gt;:data:coverart -->
<g id="edge24" class="edge">
<title>:domain&#45;&gt;:data:coverart</title>
<path fill="none" stroke="black" stroke-dasharray="1,5" d="M143.97,-549.3C143.97,-528.88 143.97,-497 143.97,-497 143.97,-497 603.66,-497 603.66,-497 603.66,-497 603.66,-180.26 603.66,-180.26"/>
<polygon fill="black" stroke="black" points="607.16,-180.26 603.66,-170.26 600.16,-180.26 607.16,-180.26"/>
</g>
<!-- :domain&#45;&gt;:data:musicbrainz -->
<g id="edge26" class="edge">
<title>:domain&#45;&gt;:data:musicbrainz</title>
<path fill="none" stroke="black" stroke-dasharray="1,5" d="M198.68,-572C224.15,-572 253,-572 253,-572 253,-572 253,-174.33 253,-174.33"/>
<polygon fill="black" stroke="black" points="256.5,-174.33 253,-164.33 249.5,-174.33 256.5,-174.33"/>
</g>
<!-- :ui:common&#45;&gt;:data&#45;android -->
<g id="edge48" class="edge">
<title>:ui:common&#45;&gt;:data&#45;android</title>
<path fill="none" stroke="black" stroke-dasharray="1,5" d="M550.03,-696.1C550.03,-667.54 550.03,-560 550.03,-560 550.03,-560 384.06,-560 384.06,-560"/>
<polygon fill="black" stroke="black" points="384.06,-556.5 374.06,-560 384.06,-563.5 384.06,-556.5"/>
</g>
<!-- :ui:common&#45;&gt;:data:database -->
<g id="edge49" class="edge">
<title>:ui:common&#45;&gt;:data:database</title>
<path fill="none" stroke="black" stroke-dasharray="1,5" d="M547.38,-699C416.71,-699 90.34,-699 90.34,-699 90.34,-699 90.34,-456.48 90.34,-456.48"/>
<polygon fill="black" stroke="black" points="93.84,-456.48 90.34,-446.48 86.84,-456.48 93.84,-456.48"/>
</g>
<!-- :ui:common&#45;&gt;:domain -->
<g id="edge50" class="edge">
<title>:ui:common&#45;&gt;:domain</title>
<path fill="none" stroke="black" stroke-dasharray="1,5" d="M556.91,-692C446.79,-692 166.27,-692 166.27,-692 166.27,-692 166.27,-595.05 166.27,-595.05"/>
<polygon fill="black" stroke="black" points="169.77,-595.05 166.27,-585.05 162.77,-595.05 169.77,-595.05"/>
</g>
<!-- :ui:common&#45;&gt;:ui:core -->
<g id="edge51" class="edge">
<title>:ui:common&#45;&gt;:ui:core</title>
<path fill="none" stroke="black" stroke-dasharray="1,5" d="M646.32,-693C769.13,-693 1096.62,-693 1096.62,-693 1096.62,-693 1096.62,-458.15 1096.62,-458.15"/>
<polygon fill="black" stroke="black" points="1100.12,-458.15 1096.62,-448.15 1093.12,-458.15 1100.12,-458.15"/>
</g>
<!-- :ui:common&#45;&gt;:ui:image -->
<g id="edge52" class="edge">
<title>:ui:common&#45;&gt;:ui:image</title>
<path fill="none" stroke="black" stroke-dasharray="1,5" d="M652.06,-697C802.95,-697 1233.35,-697 1233.35,-697 1233.35,-697 1233.35,-594.4 1233.35,-594.4"/>
<polygon fill="black" stroke="black" points="1236.85,-594.4 1233.35,-584.4 1229.85,-594.4 1236.85,-594.4"/>
</g>
<!-- :ui:test:screenshot -->
<g id="node22" class="node">
<title>:ui:test:screenshot</title>
<ellipse fill="#9affb5" stroke="black" cx="905.54" cy="-566" rx="76.01" ry="18"/>
<text text-anchor="middle" x="905.54" y="-560.58" font-family="Times New Roman,serif" font-size="14.00">:ui:test:screenshot</text>
</g>
<!-- :ui:common&#45;&gt;:ui:test:screenshot -->
<g id="edge54" class="edge">
<title>:ui:common&#45;&gt;:ui:test:screenshot</title>
<path fill="none" stroke="#ff9ab1" stroke-dasharray="1,5" d="M636.14,-689C707.34,-689 860.5,-689 860.5,-689 860.5,-689 860.5,-591.59 860.5,-591.59"/>
<polygon fill="#ff9ab1" stroke="#ff9ab1" points="864,-591.59 860.5,-581.59 857,-591.59 864,-591.59"/>
</g>
<!-- :ui:test:image -->
<g id="node23" class="node">
<title>:ui:test:image</title>
<ellipse fill="#9affb5" stroke="black" cx="672.54" cy="-566" rx="57.55" ry="18"/>
<text text-anchor="middle" x="672.54" y="-560.58" font-family="Times New Roman,serif" font-size="14.00">:ui:test:image</text>
</g>
<!-- :ui:common&#45;&gt;:ui:test:image -->
<g id="edge53" class="edge">
<title>:ui:common&#45;&gt;:ui:test:image</title>
<path fill="none" stroke="#ff9ab1" stroke-dasharray="1,5" d="M634.79,-688.85C634.79,-688.85 634.79,-590.86 634.79,-590.86"/>
<polygon fill="#ff9ab1" stroke="#ff9ab1" points="638.29,-590.86 634.79,-580.86 631.29,-590.86 638.29,-590.86"/>
</g>
<!-- :ui:collections&#45;&gt;:data&#45;android -->
<g id="edge61" class="edge">
<title>:ui:collections&#45;&gt;:data&#45;android</title>
<path fill="none" stroke="black" stroke-dasharray="1,5" d="M359.79,-964.7C359.79,-964.7 359.79,-589.66 359.79,-589.66"/>
<polygon fill="black" stroke="black" points="363.29,-589.66 359.79,-579.66 356.29,-589.66 363.29,-589.66"/>
</g>
<!-- :ui:collections&#45;&gt;:data:database -->
<g id="edge60" class="edge">
<title>:ui:collections&#45;&gt;:data:database</title>
<path fill="none" stroke="black" stroke-dasharray="1,5" d="M346.52,-983C248.4,-983 60.23,-983 60.23,-983 60.23,-983 60.23,-458.43 60.23,-458.43"/>
<polygon fill="black" stroke="black" points="63.73,-458.43 60.23,-448.43 56.73,-458.43 63.73,-458.43"/>
</g>
<!-- :ui:collections&#45;&gt;:domain -->
<g id="edge62" class="edge">
<title>:ui:collections&#45;&gt;:domain</title>
<path fill="none" stroke="black" stroke-dasharray="1,5" d="M346.58,-971C269.63,-971 143.36,-971 143.36,-971 143.36,-971 143.36,-593.63 143.36,-593.63"/>
<polygon fill="black" stroke="black" points="146.86,-593.63 143.36,-583.63 139.86,-593.63 146.86,-593.63"/>
</g>
<!-- :ui:collections&#45;&gt;:ui:common -->
<g id="edge63" class="edge">
<title>:ui:collections&#45;&gt;:ui:common</title>
<path fill="none" stroke="black" stroke-dasharray="1,5" d="M427.48,-960.05C427.48,-900.72 427.48,-706 427.48,-706 427.48,-706 535.73,-706 535.73,-706"/>
<polygon fill="black" stroke="black" points="535.73,-709.5 545.73,-706 535.73,-702.5 535.73,-709.5"/>
</g>
<!-- :ui:collections&#45;&gt;:ui:core -->
<g id="edge64" class="edge">
<title>:ui:collections&#45;&gt;:ui:core</title>
<path fill="none" stroke="black" stroke-dasharray="1,5" d="M422.48,-959.38C422.48,-864.53 422.48,-419 422.48,-419 422.48,-419 1047.77,-419 1047.77,-419"/>
<polygon fill="black" stroke="black" points="1047.77,-422.5 1057.77,-419 1047.77,-415.5 1047.77,-422.5"/>
</g>
<!-- :ui:collections&#45;&gt;:ui:settings -->
<g id="edge65" class="edge">
<title>:ui:collections&#45;&gt;:ui:settings</title>
<path fill="none" stroke="black" stroke-dasharray="1,5" d="M443.51,-962.85C443.51,-962.85 443.51,-862.51 443.51,-862.51"/>
<polygon fill="black" stroke="black" points="447.01,-862.51 443.51,-852.51 440.01,-862.51 447.01,-862.51"/>
</g>
<!-- :ui:collections&#45;&gt;:data -->
<g id="edge59" class="edge">
<title>:ui:collections&#45;&gt;:data</title>
<path fill="none" stroke="black" stroke-dasharray="1,5" d="M417.48,-958.95C417.48,-851.6 417.48,-302 417.48,-302 417.48,-302 433.51,-302 433.51,-302"/>
<polygon fill="black" stroke="black" points="433.51,-305.5 443.51,-302 433.51,-298.5 433.51,-305.5"/>
</g>
<!-- :ui:collections&#45;&gt;:ui:test:screenshot -->
<g id="edge66" class="edge">
<title>:ui:collections&#45;&gt;:ui:test:screenshot</title>
<path fill="none" stroke="#ff9ab1" stroke-dasharray="1,5" d="M454.55,-966.22C454.55,-946.81 454.55,-908 454.55,-908 454.55,-908 891.48,-908 891.48,-908 891.48,-908 891.48,-594.91 891.48,-594.91"/>
<polygon fill="#ff9ab1" stroke="#ff9ab1" points="894.98,-594.91 891.48,-584.91 887.98,-594.91 894.98,-594.91"/>
</g>
<!-- :ui:history&#45;&gt;:domain -->
<g id="edge72" class="edge">
<title>:ui:history&#45;&gt;:domain</title>
<path fill="none" stroke="black" stroke-dasharray="1,5" d="M685.79,-961.23C685.79,-897.06 685.79,-659 685.79,-659 685.79,-659 177.72,-659 177.72,-659 177.72,-659 177.72,-593.63 177.72,-593.63"/>
<polygon fill="black" stroke="black" points="181.22,-593.63 177.72,-583.63 174.22,-593.63 181.22,-593.63"/>
</g>
<!-- :ui:history&#45;&gt;:ui:common -->
<g id="edge73" class="edge">
<title>:ui:history&#45;&gt;:ui:common</title>
<path fill="none" stroke="black" stroke-dasharray="1,5" d="M678.18,-963.55C678.18,-909.75 678.18,-713 678.18,-713 678.18,-713 657.15,-713 657.15,-713"/>
<polygon fill="black" stroke="black" points="657.15,-709.5 647.15,-713 657.15,-716.5 657.15,-709.5"/>
</g>
<!-- :ui:history&#45;&gt;:ui:core -->
<g id="edge74" class="edge">
<title>:ui:history&#45;&gt;:ui:core</title>
<path fill="none" stroke="black" stroke-dasharray="1,5" d="M756.5,-977C841.52,-977 1012.21,-977 1012.21,-977 1012.21,-977 1012.21,-439 1012.21,-439 1012.21,-439 1047.68,-439 1047.68,-439"/>
<polygon fill="black" stroke="black" points="1047.68,-442.5 1057.68,-439 1047.68,-435.5 1047.68,-442.5"/>
</g>
<!-- :ui:history&#45;&gt;:ui:image -->
<g id="edge75" class="edge">
<title>:ui:history&#45;&gt;:ui:image</title>
<path fill="none" stroke="black" stroke-dasharray="1,5" d="M750.56,-986C836.13,-986 1025.79,-986 1025.79,-986 1025.79,-986 1025.79,-572 1025.79,-572 1025.79,-572 1195.87,-572 1195.87,-572"/>
<polygon fill="black" stroke="black" points="1195.87,-575.5 1205.87,-572 1195.87,-568.5 1195.87,-575.5"/>
</g>
<!-- :ui:history&#45;&gt;:ui:settings -->
<g id="edge76" class="edge">
<title>:ui:history&#45;&gt;:ui:settings</title>
<path fill="none" stroke="black" stroke-dasharray="1,5" d="M670.57,-966.7C670.57,-934.84 670.57,-840 670.57,-840 670.57,-840 541.71,-840 541.71,-840"/>
<polygon fill="black" stroke="black" points="541.71,-836.5 531.71,-840 541.71,-843.5 541.71,-836.5"/>
</g>
<!-- :ui:history&#45;&gt;:data -->
<g id="edge71" class="edge">
<title>:ui:history&#45;&gt;:data</title>
<path fill="none" stroke="black" stroke-dasharray="1,5" d="M662.8,-977C612.66,-977 540.13,-977 540.13,-977 540.13,-977 540.13,-304 540.13,-304 540.13,-304 501.02,-304 501.02,-304"/>
<polygon fill="black" stroke="black" points="501.02,-300.5 491.02,-304 501.02,-307.5 501.02,-300.5"/>
</g>
<!-- :ui:history&#45;&gt;:ui:test:screenshot -->
<g id="edge78" class="edge">
<title>:ui:history&#45;&gt;:ui:test:screenshot</title>
<path fill="none" stroke="#ff9ab1" stroke-dasharray="1,5" d="M750.45,-968C808.27,-968 906.96,-968 906.96,-968 906.96,-968 906.96,-595.32 906.96,-595.32"/>
<polygon fill="#ff9ab1" stroke="#ff9ab1" points="910.46,-595.32 906.96,-585.32 903.46,-595.32 910.46,-595.32"/>
</g>
<!-- :ui:history&#45;&gt;:ui:test:image -->
<g id="edge77" class="edge">
<title>:ui:history&#45;&gt;:ui:test:image</title>
<path fill="none" stroke="#ff9ab1" stroke-dasharray="1,5" d="M693.4,-959.86C693.4,-959.86 693.4,-594.21 693.4,-594.21"/>
<polygon fill="#ff9ab1" stroke="#ff9ab1" points="696.9,-594.21 693.4,-584.21 689.9,-594.21 696.9,-594.21"/>
</g>
<!-- :ui:image&#45;&gt;:ui:core -->
<g id="edge35" class="edge">
<title>:ui:image&#45;&gt;:ui:core</title>
<path fill="none" stroke="black" stroke-dasharray="1,5" d="M1214.76,-554C1176.27,-554 1117.63,-554 1117.63,-554 1117.63,-554 1117.63,-452.91 1117.63,-452.91"/>
<polygon fill="black" stroke="black" points="1121.13,-452.91 1117.63,-442.91 1114.13,-452.91 1121.13,-452.91"/>
</g>
<!-- :ui:image&#45;&gt;:data:core -->
<g id="edge34" class="edge">
<title>:ui:image&#45;&gt;:data:core</title>
<path fill="none" stroke="black" stroke-dasharray="1,5" d="M1247.54,-547.57C1247.54,-451.44 1247.54,-12 1247.54,-12 1247.54,-12 565.98,-12 565.98,-12"/>
<polygon fill="black" stroke="black" points="565.98,-8.5 555.98,-12 565.98,-15.5 565.98,-8.5"/>
</g>
<!-- :ui:nowplaying&#45;&gt;:domain -->
<g id="edge42" class="edge">
<title>:ui:nowplaying&#45;&gt;:domain</title>
<path fill="none" stroke="black" stroke-dasharray="1,5" d="M715.55,-828.33C715.55,-784.76 715.55,-634 715.55,-634 715.55,-634 189.17,-634 189.17,-634 189.17,-634 189.17,-590.11 189.17,-590.11"/>
<polygon fill="black" stroke="black" points="192.67,-590.11 189.17,-580.11 185.67,-590.11 192.67,-590.11"/>
</g>
<!-- :ui:nowplaying&#45;&gt;:ui:common -->
<g id="edge43" class="edge">
<title>:ui:nowplaying&#45;&gt;:ui:common</title>
<path fill="none" stroke="black" stroke-dasharray="1,5" d="M708.27,-831.4C708.27,-802.26 708.27,-709 708.27,-709 708.27,-709 662.88,-709 662.88,-709"/>
<polygon fill="black" stroke="black" points="662.88,-705.5 652.88,-709 662.88,-712.5 662.88,-705.5"/>
</g>
<!-- :ui:nowplaying&#45;&gt;:ui:core -->
<g id="edge44" class="edge">
<title>:ui:nowplaying&#45;&gt;:ui:core</title>
<path fill="none" stroke="black" stroke-dasharray="1,5" d="M779.09,-822.16C779.09,-743.44 779.09,-431 779.09,-431 779.09,-431 1041.97,-431 1041.97,-431"/>
<polygon fill="black" stroke="black" points="1041.97,-434.5 1051.97,-431 1041.97,-427.5 1041.97,-434.5"/>
</g>
<!-- :ui:nowplaying&#45;&gt;:ui:image -->
<g id="edge45" class="edge">
<title>:ui:nowplaying&#45;&gt;:ui:image</title>
<path fill="none" stroke="black" stroke-dasharray="1,5" d="M803.58,-825.41C803.58,-792.83 803.58,-717 803.58,-717 803.58,-717 1261.73,-717 1261.73,-717 1261.73,-717 1261.73,-594.32 1261.73,-594.32"/>
<polygon fill="black" stroke="black" points="1265.23,-594.32 1261.73,-584.32 1258.23,-594.32 1265.23,-594.32"/>
</g>
<!-- :ui:nowplaying&#45;&gt;:data -->
<g id="edge41" class="edge">
<title>:ui:nowplaying&#45;&gt;:data</title>
<path fill="none" stroke="black" stroke-dasharray="1,5" d="M754.59,-821.97C754.59,-727.92 754.59,-298 754.59,-298 754.59,-298 506.45,-298 506.45,-298"/>
<polygon fill="black" stroke="black" points="506.45,-294.5 496.45,-298 506.45,-301.5 506.45,-294.5"/>
</g>
<!-- :ui:nowplaying&#45;&gt;:ui:test:screenshot -->
<g id="edge47" class="edge">
<title>:ui:nowplaying&#45;&gt;:ui:test:screenshot</title>
<path fill="none" stroke="#ff9ab1" stroke-dasharray="1,5" d="M828.4,-840C853.3,-840 875.99,-840 875.99,-840 875.99,-840 875.99,-593.73 875.99,-593.73"/>
<polygon fill="#ff9ab1" stroke="#ff9ab1" points="879.49,-593.73 875.99,-583.73 872.49,-593.73 879.49,-593.73"/>
</g>
<!-- :ui:nowplaying&#45;&gt;:ui:test:image -->
<g id="edge46" class="edge">
<title>:ui:nowplaying&#45;&gt;:ui:test:image</title>
<path fill="none" stroke="#ff9ab1" stroke-dasharray="1,5" d="M722.82,-826.04C722.82,-826.04 722.82,-586.15 722.82,-586.15"/>
<polygon fill="#ff9ab1" stroke="#ff9ab1" points="726.32,-586.15 722.82,-576.15 719.32,-586.15 726.32,-586.15"/>
</g>
<!-- :ui:settings&#45;&gt;:data&#45;android -->
<g id="edge36" class="edge">
<title>:ui:settings&#45;&gt;:data&#45;android</title>
<path fill="none" stroke="black" stroke-dasharray="1,5" d="M436.45,-832.55C436.45,-789.27 436.45,-572 436.45,-572 436.45,-572 384.34,-572 384.34,-572"/>
<polygon fill="black" stroke="black" points="384.34,-568.5 374.34,-572 384.34,-575.5 384.34,-568.5"/>
</g>
<!-- :ui:settings&#45;&gt;:domain -->
<g id="edge37" class="edge">
<title>:ui:settings&#45;&gt;:domain</title>
<path fill="none" stroke="black" stroke-dasharray="1,5" d="M432.27,-840C341,-840 154.81,-840 154.81,-840 154.81,-840 154.81,-594.98 154.81,-594.98"/>
<polygon fill="black" stroke="black" points="158.31,-594.98 154.81,-584.98 151.31,-594.98 158.31,-594.98"/>
</g>
<!-- :ui:settings&#45;&gt;:ui:common -->
<g id="edge38" class="edge">
<title>:ui:settings&#45;&gt;:ui:common</title>
<path fill="none" stroke="black" stroke-dasharray="1,5" d="M517.61,-827.36C517.61,-795.24 517.61,-713 517.61,-713 517.61,-713 543.71,-713 543.71,-713"/>
<polygon fill="black" stroke="black" points="543.71,-716.5 553.71,-713 543.71,-709.5 543.71,-716.5"/>
</g>
<!-- :ui:settings&#45;&gt;:ui:core -->
<g id="edge39" class="edge">
<title>:ui:settings&#45;&gt;:ui:core</title>
<path fill="none" stroke="black" stroke-dasharray="1,5" d="M503.64,-823.65C503.64,-746.56 503.64,-423 503.64,-423 503.64,-423 1043.71,-423 1043.71,-423"/>
<polygon fill="black" stroke="black" points="1043.71,-426.5 1053.71,-423 1043.71,-419.5 1043.71,-426.5"/>
</g>
<!-- :ui:settings&#45;&gt;:ui:test:screenshot -->
<g id="edge40" class="edge">
<title>:ui:settings&#45;&gt;:ui:test:screenshot</title>
<path fill="none" stroke="#ff9ab1" stroke-dasharray="1,5" d="M510.62,-825.2C510.62,-774.21 510.62,-609 510.62,-609 510.62,-609 845.01,-609 845.01,-609 845.01,-609 845.01,-588.3 845.01,-588.3"/>
<polygon fill="#ff9ab1" stroke="#ff9ab1" points="848.51,-588.3 845.01,-578.3 841.51,-588.3 848.51,-588.3"/>
</g>
<!-- :ui:spotify&#45;broadcast&#45;receiver&#45;&gt;:ui:common -->
<g id="edge57" class="edge">
<title>:ui:spotify&#45;broadcast&#45;receiver&#45;&gt;:ui:common</title>
<path fill="none" stroke="black" stroke-dasharray="1,5" d="M1065.12,-832.53C1065.12,-803.66 1065.12,-701 1065.12,-701 1065.12,-701 665.74,-701 665.74,-701"/>
<polygon fill="black" stroke="black" points="665.74,-697.5 655.74,-701 665.74,-704.5 665.74,-697.5"/>
</g>
<!-- :ui:spotify&#45;broadcast&#45;receiver&#45;&gt;:ui:core -->
<g id="edge56" class="edge">
<title>:ui:spotify&#45;broadcast&#45;receiver&#45;&gt;:ui:core</title>
<path fill="none" stroke="black" stroke-dasharray="1,5" d="M1107.13,-824.88C1107.13,-824.88 1107.13,-456.59 1107.13,-456.59"/>
<polygon fill="black" stroke="black" points="1110.63,-456.59 1107.13,-446.59 1103.63,-456.59 1110.63,-456.59"/>
</g>
<!-- :ui:spotify&#45;broadcast&#45;receiver&#45;&gt;:data:core -->
<g id="edge55" class="edge">
<title>:ui:spotify&#45;broadcast&#45;receiver&#45;&gt;:data:core</title>
<path fill="none" stroke="black" stroke-dasharray="1,5" d="M1166.55,-821.81C1166.55,-701.41 1166.55,-24 1166.55,-24 1166.55,-24 565.86,-24 565.86,-24"/>
<polygon fill="black" stroke="black" points="565.86,-20.5 555.86,-24 565.86,-27.5 565.86,-20.5"/>
</g>
<!-- :ui:spotify&#45;broadcast&#45;receiver&#45;&gt;:ui:test:screenshot -->
<g id="edge58" class="edge">
<title>:ui:spotify&#45;broadcast&#45;receiver&#45;&gt;:ui:test:screenshot</title>
<path fill="none" stroke="#ff9ab1" stroke-dasharray="1,5" d="M1075.62,-829.59C1075.62,-779.54 1075.62,-566 1075.62,-566 1075.62,-566 992.63,-566 992.63,-566"/>
<polygon fill="#ff9ab1" stroke="#ff9ab1" points="992.63,-562.5 982.63,-566 992.63,-569.5 992.63,-562.5"/>
</g>
<!-- :ui:stats&#45;&gt;:ui:common -->
<g id="edge68" class="edge">
<title>:ui:stats&#45;&gt;:ui:common</title>
<path fill="none" stroke="black" stroke-dasharray="1,5" d="M942.15,-823.98C942.15,-788.22 942.15,-705 942.15,-705 942.15,-705 665.67,-705 665.67,-705"/>
<polygon fill="black" stroke="black" points="665.67,-701.5 655.67,-705 665.67,-708.5 665.67,-701.5"/>
</g>
<!-- :ui:stats&#45;&gt;:ui:core -->
<g id="edge69" class="edge">
<title>:ui:stats&#45;&gt;:ui:core</title>
<path fill="none" stroke="black" stroke-dasharray="1,5" d="M992.94,-829.99C992.94,-767.62 992.94,-435 992.94,-435 992.94,-435 1043.75,-435 1043.75,-435"/>
<polygon fill="black" stroke="black" points="1043.75,-438.5 1053.75,-435 1043.75,-431.5 1043.75,-438.5"/>
</g>
<!-- :ui:stats&#45;&gt;:data -->
<g id="edge67" class="edge">
<title>:ui:stats&#45;&gt;:data</title>
<path fill="none" stroke="black" stroke-dasharray="1,5" d="M987.25,-826.73C987.25,-743.04 987.25,-292 987.25,-292 987.25,-292 507.8,-292 507.8,-292"/>
<polygon fill="black" stroke="black" points="507.8,-288.5 497.8,-292 507.8,-295.5 507.8,-288.5"/>
</g>
<!-- :ui:stats&#45;&gt;:ui:test:screenshot -->
<g id="edge70" class="edge">
<title>:ui:stats&#45;&gt;:ui:test:screenshot</title>
<path fill="none" stroke="#ff9ab1" stroke-dasharray="1,5" d="M961.85,-821.6C961.85,-821.6 961.85,-589.36 961.85,-589.36"/>
<polygon fill="#ff9ab1" stroke="#ff9ab1" points="965.35,-589.36 961.85,-579.36 958.35,-589.36 965.35,-589.36"/>
</g>
<!-- :data&#45;&gt;:data:core -->
<g id="edge16" class="edge">
<title>:data&#45;&gt;:data:core</title>
<path fill="none" stroke="black" d="M490.17,-280C512.25,-280 543.31,-280 543.31,-280 543.31,-280 543.31,-41.99 543.31,-41.99"/>
<polygon fill="black" stroke="black" points="546.81,-41.99 543.31,-31.99 539.81,-41.99 546.81,-41.99"/>
</g>
<!-- :data&#45;&gt;:data:common:network -->
<g id="edge17" class="edge">
<title>:data&#45;&gt;:data:common:network</title>
<path fill="none" stroke="black" d="M440.82,-288C374.87,-288 214.07,-288 214.07,-288 214.07,-288 214.07,-175.57 214.07,-175.57"/>
<polygon fill="black" stroke="black" points="217.57,-175.57 214.07,-165.57 210.57,-175.57 217.57,-175.57"/>
</g>
<!-- :data&#45;&gt;:data:coverart -->
<g id="edge18" class="edge">
<title>:data&#45;&gt;:data:coverart</title>
<path fill="none" stroke="black" d="M495.4,-286C531.81,-286 592.33,-286 592.33,-286 592.33,-286 592.33,-176.72 592.33,-176.72"/>
<polygon fill="black" stroke="black" points="595.83,-176.72 592.33,-166.72 588.83,-176.72 595.83,-176.72"/>
</g>
<!-- :data:spotify -->
<g id="node19" class="node">
<title>:data:spotify</title>
<ellipse fill="#b59aff" stroke="black" cx="468.54" cy="-155" rx="56.05" ry="18"/>
<text text-anchor="middle" x="468.54" y="-149.57" font-family="Times New Roman,serif" font-size="14.00">:data:spotify</text>
</g>
<!-- :data&#45;&gt;:data:spotify -->
<g id="edge19" class="edge">
<title>:data&#45;&gt;:data:spotify</title>
<path fill="none" stroke="black" d="M468.54,-273.52C468.54,-273.52 468.54,-184.18 468.54,-184.18"/>
<polygon fill="black" stroke="black" points="472.04,-184.18 468.54,-174.18 465.04,-184.18 472.04,-184.18"/>
</g>
<!-- :data&#45;&gt;:data:musicbrainz -->
<g id="edge20" class="edge">
<title>:data&#45;&gt;:data:musicbrainz</title>
<path fill="none" stroke="black" d="M445.73,-281C421.02,-281 385.07,-281 385.07,-281 385.07,-281 385.07,-174.66 385.07,-174.66"/>
<polygon fill="black" stroke="black" points="388.57,-174.66 385.07,-164.66 381.57,-174.66 388.57,-174.66"/>
</g>
<!-- :data:coverart&#45;&gt;:data:core -->
<g id="edge31" class="edge">
<title>:data:coverart&#45;&gt;:data:core</title>
<path fill="none" stroke="black" stroke-dasharray="1,5" d="M580.92,-155C565.68,-155 553.57,-155 553.57,-155 553.57,-155 553.57,-36.37 553.57,-36.37"/>
<polygon fill="black" stroke="black" points="557.07,-36.37 553.57,-26.37 550.07,-36.37 557.07,-36.37"/>
</g>
<!-- :data:spotify&#45;&gt;:data:core -->
<g id="edge32" class="edge">
<title>:data:spotify&#45;&gt;:data:core</title>
<path fill="none" stroke="black" stroke-dasharray="1,5" d="M494.28,-138.75C494.28,-138.75 494.28,-46.09 494.28,-46.09"/>
<polygon fill="black" stroke="black" points="497.78,-46.09 494.28,-36.09 490.78,-46.09 497.78,-46.09"/>
</g>
<!-- :data:musicbrainz&#45;&gt;:data:core -->
<g id="edge33" class="edge">
<title>:data:musicbrainz&#45;&gt;:data:core</title>
<path fill="none" stroke="black" stroke-dasharray="1,5" d="M319.54,-136.66C319.54,-101.27 319.54,-27 319.54,-27 319.54,-27 458.57,-27 458.57,-27"/>
<polygon fill="black" stroke="black" points="458.57,-30.5 468.57,-27 458.57,-23.5 458.57,-30.5"/>
</g>
<!-- :desktop:app -->
<g id="node21" class="node">
<title>:desktop:app</title>
<polygon fill="#ffb59a" stroke="black" points="1652.54,-1132 1292.54,-1132 1292.54,-1096 1652.54,-1096 1652.54,-1132"/>
<text text-anchor="middle" x="1472.54" y="-1108.58" font-family="Times New Roman,serif" font-size="14.00">:desktop:app</text>
</g>
<!-- :desktop:app&#45;&gt;:ui:core -->
<g id="edge27" class="edge">
<title>:desktop:app&#45;&gt;:ui:core</title>
<path fill="none" stroke="black" stroke-dasharray="1,5" d="M1472.54,-1095.68C1472.54,-986.74 1472.54,-429 1472.54,-429 1472.54,-429 1139.56,-429 1139.56,-429"/>
<polygon fill="black" stroke="black" points="1139.57,-425.5 1129.56,-429 1139.56,-432.5 1139.57,-425.5"/>
</g>
<!-- :ui:test:screenshot&#45;&gt;:ui:core -->
<g id="edge79" class="edge">
<title>:ui:test:screenshot&#45;&gt;:ui:core</title>
<path fill="none" stroke="black" stroke-dasharray="1,5" d="M977.69,-560C1027.99,-560 1086.12,-560 1086.12,-560 1086.12,-560 1086.12,-458.21 1086.12,-458.21"/>
<polygon fill="black" stroke="black" points="1089.62,-458.21 1086.12,-448.21 1082.62,-458.22 1089.62,-458.21"/>
</g>
</g>
</svg>
