<?xml version="1.0" encoding="UTF-8" standalone="no"?>
<!DOCTYPE svg PUBLIC "-//W3C//DTD SVG 1.1//EN"
 "http://www.w3.org/Graphics/SVG/1.1/DTD/svg11.dtd">
<!-- Generated by graphviz version 2.43.0 (0)
 -->
<!-- Title: modules Pages: 1 -->
<svg width="1288pt" height="769pt"
 viewBox="0.00 0.00 1287.95 769.00" xmlns="http://www.w3.org/2000/svg" xmlns:xlink="http://www.w3.org/1999/xlink">
<g id="graph0" class="graph" transform="scale(1 1) rotate(0) translate(4 765)">
<title>modules</title>
<polygon fill="white" stroke="transparent" points="-4,4 -4,-765 1283.95,-765 1283.95,4 -4,4"/>
<text text-anchor="middle" x="639.97" y="-7.8" font-family="Times,serif" font-size="14.00">Module dependencies</text>
<g id="clust1" class="cluster">
<title>cluster_01</title>
<polygon fill="none" stroke="black" points="1054.95,-599 1054.95,-753 1271.95,-753 1271.95,-599 1054.95,-599"/>
<text text-anchor="middle" x="1163.45" y="-741" font-family="Times,serif" font-size="10.00">Legend</text>
</g>
<!-- app -->
<g id="node1" class="node">
<title>app</title>
<ellipse fill="none" stroke="black" cx="524.95" cy="-708" rx="27.9" ry="18"/>
<text text-anchor="middle" x="524.95" y="-704.3" font-family="Times,serif" font-size="14.00">app</text>
</g>
<!-- data&#45;android -->
<g id="node2" class="node">
<title>data&#45;android</title>
<ellipse fill="none" stroke="black" cx="896.95" cy="-406" rx="69.59" ry="18"/>
<text text-anchor="middle" x="896.95" y="-402.3" font-family="Times,serif" font-size="14.00">data&#45;android</text>
</g>
<!-- app&#45;&gt;data&#45;android -->
<g id="edge1" class="edge">
<title>app&#45;&gt;data&#45;android</title>
<path fill="none" stroke="black" d="M552.84,-705.56C659.68,-699.69 1036.95,-675.44 1036.95,-626 1036.95,-626 1036.95,-626 1036.95,-478 1036.95,-457.8 989.98,-437.18 950.45,-423.4"/>
<polygon fill="black" stroke="black" points="951.45,-420.05 940.86,-420.14 949.2,-426.67 951.45,-420.05"/>
</g>
<!-- ui:common -->
<g id="node3" class="node">
<title>ui:common</title>
<ellipse fill="none" stroke="black" cx="556.95" cy="-479" rx="61.99" ry="18"/>
<text text-anchor="middle" x="556.95" y="-475.3" font-family="Times,serif" font-size="14.00">ui:common</text>
</g>
<!-- app&#45;&gt;ui:common -->
<g id="edge2" class="edge">
<title>app&#45;&gt;ui:common</title>
<path fill="none" stroke="black" d="M527.35,-689.94C532.85,-650.91 546.39,-554.85 553.08,-507.41"/>
<polygon fill="black" stroke="black" points="556.58,-507.65 554.51,-497.26 549.65,-506.67 556.58,-507.65"/>
</g>
<!-- ui:core -->
<g id="node4" class="node">
<title>ui:core</title>
<ellipse fill="none" stroke="black" cx="471.95" cy="-333" rx="42.49" ry="18"/>
<text text-anchor="middle" x="471.95" y="-329.3" font-family="Times,serif" font-size="14.00">ui:core</text>
</g>
<!-- app&#45;&gt;ui:core -->
<g id="edge3" class="edge">
<title>app&#45;&gt;ui:core</title>
<path fill="none" stroke="black" d="M497.03,-705.76C432.28,-702.58 273.64,-692.82 224.95,-672 206.37,-664.06 200.18,-660.42 189.95,-643 177.59,-621.95 182.69,-613.25 179.95,-589 169.89,-500.18 125.56,-463.79 172.95,-388 198.57,-347.01 340.75,-337.04 419.46,-334.67"/>
<polygon fill="black" stroke="black" points="419.76,-338.17 429.67,-334.4 419.58,-331.17 419.76,-338.17"/>
</g>
<!-- ui:collections -->
<g id="node5" class="node">
<title>ui:collections</title>
<ellipse fill="none" stroke="black" cx="816.95" cy="-625" rx="71.49" ry="18"/>
<text text-anchor="middle" x="816.95" y="-621.3" font-family="Times,serif" font-size="14.00">ui:collections</text>
</g>
<!-- app&#45;&gt;ui:collections -->
<g id="edge4" class="edge">
<title>app&#45;&gt;ui:collections</title>
<path fill="none" stroke="black" d="M550.09,-700.02C596.64,-687.11 697.27,-659.2 760.79,-641.58"/>
<polygon fill="black" stroke="black" points="761.95,-644.89 770.65,-638.84 760.08,-638.14 761.95,-644.89"/>
</g>
<!-- ui:history -->
<g id="node6" class="node">
<title>ui:history</title>
<ellipse fill="none" stroke="black" cx="643.95" cy="-625" rx="55.49" ry="18"/>
<text text-anchor="middle" x="643.95" y="-621.3" font-family="Times,serif" font-size="14.00">ui:history</text>
</g>
<!-- app&#45;&gt;ui:history -->
<g id="edge5" class="edge">
<title>app&#45;&gt;ui:history</title>
<path fill="none" stroke="black" d="M543.54,-694.34C562.01,-681.77 590.66,-662.27 612.64,-647.31"/>
<polygon fill="black" stroke="black" points="614.7,-650.14 621,-641.62 610.76,-644.35 614.7,-650.14"/>
</g>
<!-- ui:image -->
<g id="node7" class="node">
<title>ui:image</title>
<ellipse fill="none" stroke="black" cx="247.95" cy="-406" rx="50.89" ry="18"/>
<text text-anchor="middle" x="247.95" y="-402.3" font-family="Times,serif" font-size="14.00">ui:image</text>
</g>
<!-- app&#45;&gt;ui:image -->
<g id="edge6" class="edge">
<title>app&#45;&gt;ui:image</title>
<path fill="none" stroke="black" d="M497.01,-706.12C417.21,-702.86 193.95,-688.19 193.95,-626 193.95,-626 193.95,-626 193.95,-478 193.95,-459.1 206.22,-442.08 219.06,-429.45"/>
<polygon fill="black" stroke="black" points="221.6,-431.88 226.6,-422.54 216.87,-426.72 221.6,-431.88"/>
</g>
<!-- ui:nowplaying -->
<g id="node8" class="node">
<title>ui:nowplaying</title>
<ellipse fill="none" stroke="black" cx="332.95" cy="-552" rx="75.29" ry="18"/>
<text text-anchor="middle" x="332.95" y="-548.3" font-family="Times,serif" font-size="14.00">ui:nowplaying</text>
</g>
<!-- app&#45;&gt;ui:nowplaying -->
<g id="edge7" class="edge">
<title>app&#45;&gt;ui:nowplaying</title>
<path fill="none" stroke="black" d="M507.91,-693.33C474.85,-666.82 401.72,-608.16 361.25,-575.7"/>
<polygon fill="black" stroke="black" points="363.37,-572.91 353.38,-569.39 358.99,-578.38 363.37,-572.91"/>
</g>
<!-- ui:settings -->
<g id="node9" class="node">
<title>ui:settings</title>
<ellipse fill="none" stroke="black" cx="860.95" cy="-552" rx="59.59" ry="18"/>
<text text-anchor="middle" x="860.95" y="-548.3" font-family="Times,serif" font-size="14.00">ui:settings</text>
</g>
<!-- app&#45;&gt;ui:settings -->
<g id="edge8" class="edge">
<title>app&#45;&gt;ui:settings</title>
<path fill="none" stroke="black" d="M552.93,-706.63C631.74,-704.93 852.71,-695.49 896.95,-643 912.98,-623.97 898.48,-596.9 883.37,-577.42"/>
<polygon fill="black" stroke="black" points="885.99,-575.1 876.94,-569.58 880.58,-579.53 885.99,-575.1"/>
</g>
<!-- ui:spotify -->
<g id="node10" class="node">
<title>ui:spotify</title>
<ellipse fill="none" stroke="black" cx="53.95" cy="-552" rx="53.89" ry="18"/>
<text text-anchor="middle" x="53.95" y="-548.3" font-family="Times,serif" font-size="14.00">ui:spotify</text>
</g>
<!-- app&#45;&gt;ui:spotify -->
<g id="edge9" class="edge">
<title>app&#45;&gt;ui:spotify</title>
<path fill="none" stroke="black" d="M497.02,-706.06C410.91,-702.97 153.41,-692.13 121.95,-672 89.1,-650.99 70.44,-608.11 61.26,-579.98"/>
<polygon fill="black" stroke="black" points="64.59,-578.88 58.3,-570.35 57.9,-580.93 64.59,-578.88"/>
</g>
<!-- ui:stats -->
<g id="node11" class="node">
<title>ui:stats</title>
<ellipse fill="none" stroke="black" cx="471.95" cy="-552" rx="45.49" ry="18"/>
<text text-anchor="middle" x="471.95" y="-548.3" font-family="Times,serif" font-size="14.00">ui:stats</text>
</g>
<!-- app&#45;&gt;ui:stats -->
<g id="edge10" class="edge">
<title>app&#45;&gt;ui:stats</title>
<path fill="none" stroke="black" d="M519.17,-690.23C510.02,-663.64 492.1,-611.57 481.16,-579.78"/>
<polygon fill="black" stroke="black" points="484.44,-578.54 477.87,-570.22 477.82,-580.82 484.44,-578.54"/>
</g>
<!-- data -->
<g id="node12" class="node">
<title>data</title>
<ellipse fill="none" stroke="black" cx="646.95" cy="-333" rx="31.4" ry="18"/>
<text text-anchor="middle" x="646.95" y="-329.3" font-family="Times,serif" font-size="14.00">data</text>
</g>
<!-- data&#45;android&#45;&gt;data -->
<g id="edge18" class="edge">
<title>data&#45;android&#45;&gt;data</title>
<path fill="none" stroke="red" d="M870,-389.36C856.79,-382.25 840.42,-374.28 824.95,-369 779.1,-353.35 724.08,-343.87 687.47,-338.8"/>
<polygon fill="red" stroke="red" points="687.57,-335.28 677.19,-337.42 686.64,-342.22 687.57,-335.28"/>
</g>
<!-- ui:common&#45;&gt;data&#45;android -->
<g id="edge39" class="edge">
<title>ui:common&#45;&gt;data&#45;android</title>
<path fill="none" stroke="black" d="M605.66,-467.83C666,-455.23 768.89,-433.74 834.84,-419.97"/>
<polygon fill="black" stroke="black" points="835.62,-423.38 844.69,-417.91 834.19,-416.53 835.62,-423.38"/>
</g>
<!-- ui:common&#45;&gt;ui:core -->
<g id="edge40" class="edge">
<title>ui:common&#45;&gt;ui:core</title>
<path fill="none" stroke="black" d="M560.26,-460.73C563.7,-437.62 566.18,-396.36 546.95,-369 539.78,-358.81 528.86,-351.5 517.56,-346.3"/>
<polygon fill="black" stroke="black" points="518.62,-342.96 508.04,-342.41 515.97,-349.44 518.62,-342.96"/>
</g>
<!-- ui:common&#45;&gt;ui:image -->
<g id="edge41" class="edge">
<title>ui:common&#45;&gt;ui:image</title>
<path fill="none" stroke="black" d="M507.13,-468.15C456.71,-457.96 376.61,-441.16 307.95,-424 303.87,-422.98 299.65,-421.88 295.42,-420.75"/>
<polygon fill="black" stroke="black" points="296.19,-417.33 285.62,-418.06 294.34,-424.08 296.19,-417.33"/>
</g>
<!-- ui:collections&#45;&gt;data&#45;android -->
<g id="edge35" class="edge">
<title>ui:collections&#45;&gt;data&#45;android</title>
<path fill="none" stroke="black" d="M868.71,-612.56C891.61,-604.65 916.38,-591.52 929.95,-570 956.83,-527.36 931.7,-467.07 912.99,-433.03"/>
<polygon fill="black" stroke="black" points="915.93,-431.12 907.94,-424.17 909.85,-434.59 915.93,-431.12"/>
</g>
<!-- ui:collections&#45;&gt;ui:common -->
<g id="edge36" class="edge">
<title>ui:collections&#45;&gt;ui:common</title>
<path fill="none" stroke="black" d="M788.63,-608.32C741.2,-582.05 645.76,-529.19 593.39,-500.19"/>
<polygon fill="black" stroke="black" points="594.89,-497.01 584.44,-495.23 591.5,-503.14 594.89,-497.01"/>
</g>
<!-- ui:collections&#45;&gt;ui:core -->
<g id="edge37" class="edge">
<title>ui:collections&#45;&gt;ui:core</title>
<path fill="none" stroke="black" d="M809.08,-606.93C794.16,-575.67 759.37,-508.13 716.95,-461 666.88,-405.39 646.02,-395.23 575.95,-369 555.89,-361.49 533.4,-353.83 514.47,-347.6"/>
<polygon fill="black" stroke="black" points="515.52,-344.26 504.93,-344.48 513.35,-350.91 515.52,-344.26"/>
</g>
<!-- ui:collections&#45;&gt;ui:settings -->
<g id="edge38" class="edge">
<title>ui:collections&#45;&gt;ui:settings</title>
<path fill="none" stroke="black" d="M827.37,-607.17C832.61,-598.72 839.07,-588.29 844.92,-578.85"/>
<polygon fill="black" stroke="black" points="847.99,-580.54 850.29,-570.2 842.04,-576.85 847.99,-580.54"/>
</g>
<!-- ui:collections&#45;&gt;data -->
<g id="edge34" class="edge">
<title>ui:collections&#45;&gt;data</title>
<path fill="none" stroke="black" d="M868.46,-612.46C887.83,-606.93 909.59,-599.24 927.95,-589 1030.12,-532 1175.6,-475.51 1097.95,-388 1070.94,-357.57 794.37,-341.11 688.17,-335.87"/>
<polygon fill="black" stroke="black" points="688.3,-332.37 678.14,-335.38 687.96,-339.36 688.3,-332.37"/>
</g>
<!-- ui:history&#45;&gt;ui:common -->
<g id="edge43" class="edge">
<title>ui:history&#45;&gt;ui:common</title>
<path fill="none" stroke="black" d="M624.06,-607.81C618.06,-602.27 611.79,-595.76 606.95,-589 588.46,-563.2 574.26,-529.48 565.8,-506.41"/>
<polygon fill="black" stroke="black" points="569.07,-505.18 562.42,-496.94 562.48,-507.53 569.07,-505.18"/>
</g>
<!-- ui:history&#45;&gt;ui:core -->
<g id="edge44" class="edge">
<title>ui:history&#45;&gt;ui:core</title>
<path fill="none" stroke="black" d="M648.83,-606.87C656.65,-576.08 668.97,-510.06 646.95,-461 624.02,-409.94 607.24,-400.46 560.95,-369 547.43,-359.81 531.15,-352.52 516.23,-347.02"/>
<polygon fill="black" stroke="black" points="517.25,-343.67 506.66,-343.66 514.94,-350.27 517.25,-343.67"/>
</g>
<!-- ui:history&#45;&gt;ui:image -->
<g id="edge45" class="edge">
<title>ui:history&#45;&gt;ui:image</title>
<path fill="none" stroke="black" d="M643.46,-606.96C642.17,-567.28 638.04,-471.27 627.95,-461 577.77,-409.95 378.16,-437.91 307.95,-424 303.59,-423.14 299.08,-422.11 294.59,-421"/>
<polygon fill="black" stroke="black" points="295.41,-417.6 284.85,-418.46 293.64,-424.37 295.41,-417.6"/>
</g>
<!-- ui:history&#45;&gt;ui:settings -->
<g id="edge46" class="edge">
<title>ui:history&#45;&gt;ui:settings</title>
<path fill="none" stroke="black" d="M681.74,-611.63C718.01,-599.77 772.95,-581.79 812.43,-568.87"/>
<polygon fill="black" stroke="black" points="813.7,-572.14 822.12,-565.7 811.53,-565.49 813.7,-572.14"/>
</g>
<!-- ui:history&#45;&gt;data -->
<g id="edge42" class="edge">
<title>ui:history&#45;&gt;data</title>
<path fill="none" stroke="black" d="M659.94,-607.58C664.67,-602.03 669.5,-595.57 672.95,-589 692.7,-551.38 693.11,-539.09 698.95,-497 706.75,-440.65 725.68,-419.22 698.95,-369 694.72,-361.06 687.8,-354.6 680.37,-349.49"/>
<polygon fill="black" stroke="black" points="681.9,-346.32 671.54,-344.1 678.26,-352.3 681.9,-346.32"/>
</g>
<!-- ui:image&#45;&gt;ui:core -->
<g id="edge48" class="edge">
<title>ui:image&#45;&gt;ui:core</title>
<path fill="none" stroke="black" d="M284.43,-393.43C324.14,-380.85 387.56,-360.75 429.48,-347.46"/>
<polygon fill="black" stroke="black" points="430.65,-350.76 439.12,-344.4 428.53,-344.09 430.65,-350.76"/>
</g>
<!-- data:core -->
<g id="node13" class="node">
<title>data:core</title>
<ellipse fill="none" stroke="black" cx="250.95" cy="-41" rx="53.89" ry="18"/>
<text text-anchor="middle" x="250.95" y="-37.3" font-family="Times,serif" font-size="14.00">data:core</text>
</g>
<!-- ui:image&#45;&gt;data:core -->
<g id="edge47" class="edge">
<title>ui:image&#45;&gt;data:core</title>
<path fill="none" stroke="black" d="M211.58,-393.25C185.87,-382.41 155.95,-363.46 155.95,-334 155.95,-334 155.95,-334 155.95,-113 155.95,-86.73 179.53,-69.01 203.2,-57.85"/>
<polygon fill="black" stroke="black" points="204.82,-60.96 212.58,-53.74 202.01,-54.55 204.82,-60.96"/>
</g>
<!-- ui:nowplaying&#45;&gt;ui:common -->
<g id="edge50" class="edge">
<title>ui:nowplaying&#45;&gt;ui:common</title>
<path fill="none" stroke="black" d="M376.4,-537.23C413.82,-525.37 467.81,-508.25 507,-495.83"/>
<polygon fill="black" stroke="black" points="508.15,-499.14 516.62,-492.78 506.03,-492.47 508.15,-499.14"/>
</g>
<!-- ui:nowplaying&#45;&gt;ui:core -->
<g id="edge51" class="edge">
<title>ui:nowplaying&#45;&gt;ui:core</title>
<path fill="none" stroke="black" d="M300.73,-535.59C245.24,-507.03 141.82,-443.73 187.95,-388 216.83,-353.11 346.18,-340.57 419.96,-336.21"/>
<polygon fill="black" stroke="black" points="420.19,-339.71 429.98,-335.65 419.8,-332.72 420.19,-339.71"/>
</g>
<!-- ui:nowplaying&#45;&gt;ui:image -->
<g id="edge52" class="edge">
<title>ui:nowplaying&#45;&gt;ui:image</title>
<path fill="none" stroke="black" d="M322.86,-533.92C308.1,-508.91 280.49,-462.14 263.23,-432.89"/>
<polygon fill="black" stroke="black" points="266.11,-430.89 258.02,-424.06 260.09,-434.45 266.11,-430.89"/>
</g>
<!-- ui:nowplaying&#45;&gt;data -->
<g id="edge49" class="edge">
<title>ui:nowplaying&#45;&gt;data</title>
<path fill="none" stroke="black" d="M356.54,-534.6C383.26,-516.2 428.23,-485.68 467.95,-461 495.85,-443.66 504.72,-442.39 531.95,-424 564.31,-402.13 599.38,-373.99 622.17,-355.04"/>
<polygon fill="black" stroke="black" points="624.55,-357.61 629.98,-348.5 620.06,-352.24 624.55,-357.61"/>
</g>
<!-- ui:settings&#45;&gt;data&#45;android -->
<g id="edge53" class="edge">
<title>ui:settings&#45;&gt;data&#45;android</title>
<path fill="none" stroke="black" d="M865.22,-533.92C871.39,-509.23 882.86,-463.35 890.19,-434.04"/>
<polygon fill="black" stroke="black" points="893.65,-434.61 892.68,-424.06 886.86,-432.91 893.65,-434.61"/>
</g>
<!-- ui:settings&#45;&gt;ui:common -->
<g id="edge54" class="edge">
<title>ui:settings&#45;&gt;ui:common</title>
<path fill="none" stroke="black" d="M816.02,-540.07C786.23,-532.86 746.28,-523.26 710.95,-515 679.06,-507.55 643.41,-499.44 614.45,-492.9"/>
<polygon fill="black" stroke="black" points="615.03,-489.44 604.5,-490.65 613.49,-496.27 615.03,-489.44"/>
</g>
<!-- ui:settings&#45;&gt;ui:core -->
<g id="edge55" class="edge">
<title>ui:settings&#45;&gt;ui:core</title>
<path fill="none" stroke="black" d="M855.05,-534.08C840.39,-492.95 801.3,-389.62 771.95,-369 741.76,-347.8 643.58,-355.3 606.95,-351 578.8,-347.69 547.38,-343.75 521.95,-340.5"/>
<polygon fill="black" stroke="black" points="522.16,-337 511.8,-339.19 521.27,-343.94 522.16,-337"/>
</g>
<!-- ui:spotify&#45;&gt;ui:common -->
<g id="edge59" class="edge">
<title>ui:spotify&#45;&gt;ui:common</title>
<path fill="none" stroke="black" d="M102.63,-544.13C193.81,-531.26 390.28,-503.53 492.38,-489.11"/>
<polygon fill="black" stroke="black" points="493.14,-492.54 502.55,-487.68 492.16,-485.61 493.14,-492.54"/>
</g>
<!-- ui:spotify&#45;&gt;ui:core -->
<g id="edge58" class="edge">
<title>ui:spotify&#45;&gt;ui:core</title>
<path fill="none" stroke="black" d="M61.58,-534.03C64.04,-528.35 66.71,-521.94 68.95,-516 93.17,-451.68 63.36,-412.04 116.95,-369 128.61,-359.63 324.88,-344.47 420.46,-337.59"/>
<polygon fill="black" stroke="black" points="420.76,-341.08 430.49,-336.88 420.27,-334.1 420.76,-341.08"/>
</g>
<!-- ui:spotify&#45;&gt;data:core -->
<g id="edge56" class="edge">
<title>ui:spotify&#45;&gt;data:core</title>
<path fill="none" stroke="black" d="M39.53,-534.46C29.15,-520.81 16.95,-500.43 16.95,-480 16.95,-480 16.95,-480 16.95,-113 16.95,-76.78 120.88,-57.31 190.21,-48.34"/>
<polygon fill="black" stroke="black" points="190.68,-51.81 200.17,-47.09 189.81,-44.86 190.68,-51.81"/>
</g>
<!-- data:spotify -->
<g id="node18" class="node">
<title>data:spotify</title>
<ellipse fill="none" stroke="black" cx="287.95" cy="-260" rx="65.79" ry="18"/>
<text text-anchor="middle" x="287.95" y="-256.3" font-family="Times,serif" font-size="14.00">data:spotify</text>
</g>
<!-- ui:spotify&#45;&gt;data:spotify -->
<g id="edge57" class="edge">
<title>ui:spotify&#45;&gt;data:spotify</title>
<path fill="none" stroke="black" d="M52.25,-533.85C50,-502.18 49.4,-433.59 79.95,-388 117.48,-331.98 188.9,-296.49 237.46,-277.68"/>
<polygon fill="black" stroke="black" points="238.73,-280.94 246.85,-274.14 236.26,-274.39 238.73,-280.94"/>
</g>
<!-- ui:stats&#45;&gt;ui:common -->
<g id="edge61" class="edge">
<title>ui:stats&#45;&gt;ui:common</title>
<path fill="none" stroke="black" d="M490.81,-535.24C502.2,-525.73 516.92,-513.43 529.58,-502.86"/>
<polygon fill="black" stroke="black" points="532.11,-505.3 537.54,-496.21 527.63,-499.93 532.11,-505.3"/>
</g>
<!-- ui:stats&#45;&gt;ui:core -->
<g id="edge62" class="edge">
<title>ui:stats&#45;&gt;ui:core</title>
<path fill="none" stroke="black" d="M455.41,-535.1C433.87,-512.47 401.59,-470.55 424.95,-442 450.5,-410.76 488.39,-455.24 513.95,-424 530.35,-403.94 513.02,-376.42 495.91,-357.1"/>
<polygon fill="black" stroke="black" points="498.32,-354.55 488.94,-349.63 493.2,-359.33 498.32,-354.55"/>
</g>
<!-- ui:stats&#45;&gt;data -->
<g id="edge60" class="edge">
<title>ui:stats&#45;&gt;data</title>
<path fill="none" stroke="black" d="M469.82,-533.71C468.38,-513.92 469.16,-481.59 485.95,-461 515.62,-424.59 547.91,-452.9 584.95,-424 606.93,-406.85 624.1,-379.73 634.75,-359.74"/>
<polygon fill="black" stroke="black" points="638,-361.07 639.44,-350.58 631.77,-357.88 638,-361.07"/>
</g>
<!-- data&#45;&gt;data:core -->
<g id="edge11" class="edge">
<title>data&#45;&gt;data:core</title>
<path fill="none" stroke="red" d="M616.9,-327.67C591.81,-324.1 555.07,-319 522.95,-315 449.42,-305.85 193.95,-335.09 193.95,-261 193.95,-261 193.95,-261 193.95,-113 193.95,-93.84 206.72,-76.91 220.18,-64.39"/>
<polygon fill="red" stroke="red" points="222.82,-66.73 228.09,-57.54 218.24,-61.44 222.82,-66.73"/>
</g>
<!-- data:common:network -->
<g id="node14" class="node">
<title>data:common:network</title>
<ellipse fill="none" stroke="black" cx="646.95" cy="-41" rx="114.28" ry="18"/>
<text text-anchor="middle" x="646.95" y="-37.3" font-family="Times,serif" font-size="14.00">data:common:network</text>
</g>
<!-- data&#45;&gt;data:common:network -->
<g id="edge12" class="edge">
<title>data&#45;&gt;data:common:network</title>
<path fill="none" stroke="red" d="M677.79,-329.68C718.74,-324.72 785.95,-309.23 785.95,-261 785.95,-261 785.95,-261 785.95,-113 785.95,-84.76 762.91,-67.75 735.6,-57.5"/>
<polygon fill="red" stroke="red" points="736.38,-54.07 725.79,-54.15 734.12,-60.69 736.38,-54.07"/>
</g>
<!-- data:coverart -->
<g id="node15" class="node">
<title>data:coverart</title>
<ellipse fill="none" stroke="black" cx="646.95" cy="-114" rx="73.39" ry="18"/>
<text text-anchor="middle" x="646.95" y="-110.3" font-family="Times,serif" font-size="14.00">data:coverart</text>
</g>
<!-- data&#45;&gt;data:coverart -->
<g id="edge13" class="edge">
<title>data&#45;&gt;data:coverart</title>
<path fill="none" stroke="red" d="M669.77,-320.66C685.74,-311.45 706.09,-296.9 716.95,-278 729.22,-256.63 731.45,-246.47 723.95,-223 713.6,-190.67 689.63,-159.75 671.16,-139.35"/>
<polygon fill="red" stroke="red" points="673.52,-136.74 664.14,-131.8 668.39,-141.51 673.52,-136.74"/>
</g>
<!-- data:domain -->
<g id="node16" class="node">
<title>data:domain</title>
<ellipse fill="none" stroke="black" cx="639.95" cy="-260" rx="68.49" ry="18"/>
<text text-anchor="middle" x="639.95" y="-256.3" font-family="Times,serif" font-size="14.00">data:domain</text>
</g>
<!-- data&#45;&gt;data:domain -->
<g id="edge14" class="edge">
<title>data&#45;&gt;data:domain</title>
<path fill="none" stroke="red" d="M645.25,-314.81C644.46,-306.79 643.5,-297.05 642.61,-288.07"/>
<polygon fill="red" stroke="red" points="646.09,-287.64 641.62,-278.03 639.12,-288.32 646.09,-287.64"/>
</g>
<!-- data:room -->
<g id="node17" class="node">
<title>data:room</title>
<ellipse fill="none" stroke="black" cx="522.95" cy="-187" rx="57.69" ry="18"/>
<text text-anchor="middle" x="522.95" y="-183.3" font-family="Times,serif" font-size="14.00">data:room</text>
</g>
<!-- data&#45;&gt;data:room -->
<g id="edge15" class="edge">
<title>data&#45;&gt;data:room</title>
<path fill="none" stroke="red" d="M622.87,-321.3C604.43,-312.08 579.42,-297.21 562.95,-278 547.19,-259.63 536.63,-234.05 530.33,-214.86"/>
<polygon fill="red" stroke="red" points="533.65,-213.73 527.35,-205.21 526.96,-215.8 533.65,-213.73"/>
</g>
<!-- data&#45;&gt;data:spotify -->
<g id="edge16" class="edge">
<title>data&#45;&gt;data:spotify</title>
<path fill="none" stroke="red" d="M616.9,-327.7C591.8,-324.16 555.07,-319.07 522.95,-315 454.14,-306.29 434.8,-315.45 367.95,-297 353.65,-293.06 338.66,-286.9 325.56,-280.79"/>
<polygon fill="red" stroke="red" points="326.93,-277.57 316.4,-276.39 323.9,-283.88 326.93,-277.57"/>
</g>
<!-- data:musicbrainz -->
<g id="node19" class="node">
<title>data:musicbrainz</title>
<ellipse fill="none" stroke="black" cx="464.95" cy="-114" rx="90.98" ry="18"/>
<text text-anchor="middle" x="464.95" y="-110.3" font-family="Times,serif" font-size="14.00">data:musicbrainz</text>
</g>
<!-- data&#45;&gt;data:musicbrainz -->
<g id="edge17" class="edge">
<title>data&#45;&gt;data:musicbrainz</title>
<path fill="none" stroke="red" d="M619.44,-324.1C574.29,-309.39 486.42,-272.94 455.95,-205 447.04,-185.15 450.41,-160.42 455.38,-141.9"/>
<polygon fill="red" stroke="red" points="458.81,-142.65 458.32,-132.07 452.1,-140.65 458.81,-142.65"/>
</g>
<!-- data:coverart&#45;&gt;data:core -->
<g id="edge20" class="edge">
<title>data:coverart&#45;&gt;data:core</title>
<path fill="none" stroke="black" d="M593.18,-101.58C583.78,-99.66 574.09,-97.73 564.95,-96 475.63,-79.07 371.58,-61.62 308.52,-51.3"/>
<polygon fill="black" stroke="black" points="308.81,-47.8 298.38,-49.64 307.69,-54.71 308.81,-47.8"/>
</g>
<!-- data:coverart&#45;&gt;data:common:network -->
<g id="edge21" class="edge">
<title>data:coverart&#45;&gt;data:common:network</title>
<path fill="none" stroke="black" d="M646.95,-95.81C646.95,-87.79 646.95,-78.05 646.95,-69.07"/>
<polygon fill="black" stroke="black" points="650.45,-69.03 646.95,-59.03 643.45,-69.03 650.45,-69.03"/>
</g>
<!-- data:domain&#45;&gt;data:core -->
<g id="edge22" class="edge">
<title>data:domain&#45;&gt;data:core</title>
<path fill="none" stroke="black" d="M588.48,-248.05C522.46,-231.91 407.15,-196.44 328.95,-132 305.59,-112.76 283.45,-86.1 268.76,-66.8"/>
<polygon fill="black" stroke="black" points="271.55,-64.68 262.76,-58.76 265.94,-68.87 271.55,-64.68"/>
</g>
<!-- data:domain&#45;&gt;data:common:network -->
<g id="edge23" class="edge">
<title>data:domain&#45;&gt;data:common:network</title>
<path fill="none" stroke="black" d="M656.78,-242.4C678.38,-219.78 714.77,-176.93 728.95,-132 733.76,-116.74 736.53,-110.09 728.95,-96 721.52,-82.21 708.86,-71.37 695.68,-63.13"/>
<polygon fill="black" stroke="black" points="697.4,-60.08 687,-58.08 693.89,-66.13 697.4,-60.08"/>
</g>
<!-- data:domain&#45;&gt;data:coverart -->
<g id="edge24" class="edge">
<title>data:domain&#45;&gt;data:coverart</title>
<path fill="none" stroke="black" d="M640.78,-241.92C641.97,-217.34 644.19,-171.75 645.61,-142.43"/>
<polygon fill="black" stroke="black" points="649.13,-142.22 646.12,-132.06 642.13,-141.88 649.13,-142.22"/>
</g>
<!-- data:domain&#45;&gt;data:room -->
<g id="edge26" class="edge">
<title>data:domain&#45;&gt;data:room</title>
<path fill="none" stroke="black" d="M613.98,-243.24C597.09,-232.99 574.88,-219.52 556.64,-208.44"/>
<polygon fill="black" stroke="black" points="558.4,-205.42 548.04,-203.23 554.77,-211.41 558.4,-205.42"/>
</g>
<!-- data:domain&#45;&gt;data:musicbrainz -->
<g id="edge25" class="edge">
<title>data:domain&#45;&gt;data:musicbrainz</title>
<path fill="none" stroke="black" d="M634.31,-241.91C626.96,-222 612.34,-189.27 589.95,-169 571.93,-152.69 548.23,-140.77 526.32,-132.35"/>
<polygon fill="black" stroke="black" points="527.32,-128.99 516.73,-128.84 524.91,-135.56 527.32,-128.99"/>
</g>
<!-- data:room&#45;&gt;data:core -->
<g id="edge29" class="edge">
<title>data:room&#45;&gt;data:core</title>
<path fill="none" stroke="black" d="M478.7,-175.22C446.07,-166.25 401.22,-151.76 364.95,-132 331.22,-113.63 297.28,-85.26 275.31,-65.3"/>
<polygon fill="black" stroke="black" points="277.5,-62.56 267.78,-58.36 272.76,-67.71 277.5,-62.56"/>
</g>
<!-- data:room&#45;&gt;data:coverart -->
<g id="edge30" class="edge">
<title>data:room&#45;&gt;data:coverart</title>
<path fill="none" stroke="black" d="M549.24,-170.94C567.12,-160.71 591.01,-147.03 610.69,-135.76"/>
<polygon fill="black" stroke="black" points="612.46,-138.78 619.4,-130.77 608.98,-132.71 612.46,-138.78"/>
</g>
<!-- data:room&#45;&gt;data:musicbrainz -->
<g id="edge31" class="edge">
<title>data:room&#45;&gt;data:musicbrainz</title>
<path fill="none" stroke="black" d="M509.2,-169.17C502.08,-160.46 493.25,-149.65 485.35,-139.98"/>
<polygon fill="black" stroke="black" points="488.03,-137.73 478.99,-132.2 482.61,-142.16 488.03,-137.73"/>
</g>
<!-- data:spotify&#45;&gt;data:core -->
<g id="edge32" class="edge">
<title>data:spotify&#45;&gt;data:core</title>
<path fill="none" stroke="black" d="M274.86,-242.05C267.84,-231.89 259.84,-218.39 255.95,-205 242.53,-158.83 244.71,-102.2 247.7,-69.29"/>
<polygon fill="black" stroke="black" points="251.21,-69.39 248.72,-59.09 244.24,-68.69 251.21,-69.39"/>
</g>
<!-- data:spotify&#45;&gt;data:common:network -->
<g id="edge33" class="edge">
<title>data:spotify&#45;&gt;data:common:network</title>
<path fill="none" stroke="black" d="M290.76,-242.01C297.28,-208.39 316.71,-133.39 364.95,-96 392.36,-74.75 473.29,-60.65 541.46,-52.2"/>
<polygon fill="black" stroke="black" points="541.92,-55.67 551.42,-51 541.07,-48.72 541.92,-55.67"/>
</g>
<!-- data:musicbrainz&#45;&gt;data:core -->
<g id="edge27" class="edge">
<title>data:musicbrainz&#45;&gt;data:core</title>
<path fill="none" stroke="black" d="M420.34,-98.2C384.51,-86.32 334.34,-69.67 297.9,-57.58"/>
<polygon fill="black" stroke="black" points="298.6,-54.12 288.01,-54.3 296.4,-60.77 298.6,-54.12"/>
</g>
<!-- data:musicbrainz&#45;&gt;data:common:network -->
<g id="edge28" class="edge">
<title>data:musicbrainz&#45;&gt;data:common:network</title>
<path fill="none" stroke="black" d="M504.44,-97.59C531.49,-87.04 567.59,-72.96 596.69,-61.6"/>
<polygon fill="black" stroke="black" points="598.23,-64.76 606.27,-57.87 595.68,-58.24 598.23,-64.76"/>
</g>
<!-- test&#45;data -->
<g id="node20" class="node">
<title>test&#45;data</title>
<ellipse fill="none" stroke="black" cx="1036.95" cy="-406" rx="51.99" ry="18"/>
<text text-anchor="middle" x="1036.95" y="-402.3" font-family="Times,serif" font-size="14.00">test&#45;data</text>
</g>
<!-- test&#45;data&#45;&gt;data -->
<g id="edge19" class="edge">
<title>test&#45;data&#45;&gt;data</title>
<path fill="none" stroke="black" d="M998.71,-393.66C991.2,-391.62 983.35,-389.63 975.95,-388 872.82,-365.24 749.58,-347.49 687.28,-339.18"/>
<polygon fill="black" stroke="black" points="687.47,-335.67 677.09,-337.83 686.55,-342.61 687.47,-335.67"/>
</g>
<!-- ui:test:screenshot -->
<g id="node21" class="node">
<title>ui:test:screenshot</title>
<ellipse fill="none" stroke="black" cx="410.95" cy="-406" rx="94.48" ry="18"/>
<text text-anchor="middle" x="410.95" y="-402.3" font-family="Times,serif" font-size="14.00">ui:test:screenshot</text>
</g>
<!-- ui:test:screenshot&#45;&gt;ui:core -->
<g id="edge63" class="edge">
<title>ui:test:screenshot&#45;&gt;ui:core</title>
<path fill="none" stroke="black" d="M425.4,-388.17C433.19,-379.11 442.92,-367.79 451.47,-357.83"/>
<polygon fill="black" stroke="black" points="454.15,-360.08 458.01,-350.22 448.84,-355.52 454.15,-360.08"/>
</g>
<!-- module -->
<g id="node22" class="node">
<title>module</title>
<ellipse fill="none" stroke="black" cx="1119.95" cy="-708" rx="32.25" ry="18"/>
<text text-anchor="middle" x="1119.95" y="-705.5" font-family="Times,serif" font-size="10.00">module</text>
</g>
<!-- dependency -->
<g id="node23" class="node">
<title>dependency</title>
<ellipse fill="none" stroke="black" cx="1119.95" cy="-625" rx="47.19" ry="18"/>
<text text-anchor="middle" x="1119.95" y="-622.5" font-family="Times,serif" font-size="10.00">dependency</text>
</g>
<!-- module&#45;&gt;dependency -->
<g id="edge64" class="edge">
<title>module&#45;&gt;dependency</title>
<path fill="none" stroke="red" d="M1099.63,-693.67C1092.66,-687.92 1085.69,-680.54 1081.95,-672 1078.16,-663.36 1081.87,-655.05 1088.23,-647.92"/>
<polygon fill="red" stroke="red" points="1091.04,-650.09 1095.94,-640.7 1086.25,-644.98 1091.04,-650.09"/>
<text text-anchor="middle" x="1089.95" y="-664" font-family="Times,serif" font-size="10.00">api</text>
</g>
<!-- module&#45;&gt;dependency -->
<g id="edge65" class="edge">
<title>module&#45;&gt;dependency</title>
<path fill="none" stroke="black" d="M1119.95,-689.82C1119.95,-679.19 1119.95,-665.31 1119.95,-653.2"/>
<polygon fill="black" stroke="black" points="1123.45,-653.15 1119.95,-643.15 1116.45,-653.15 1123.45,-653.15"/>
<text text-anchor="middle" x="1160.45" y="-664" font-family="Times,serif" font-size="10.00">implementation</text>
</g>
<!-- module&#45;&gt;dependency -->
<g id="edge66" class="edge">
<title>module&#45;&gt;dependency</title>
<path fill="none" stroke="green" d="M1151.1,-702.32C1169.24,-697.82 1190.69,-689.05 1201.95,-672 1213.16,-655.02 1194,-643.66 1171.39,-636.49"/>
<polygon fill="green" stroke="green" points="1172.15,-633.06 1161.57,-633.66 1170.21,-639.79 1172.15,-633.06"/>
<text text-anchor="middle" x="1224.95" y="-664" font-family="Times,serif" font-size="10.00">compile</text>
</g>
</g>
</svg>
