<?xml version="1.0" encoding="UTF-8" standalone="no"?>
<!DOCTYPE svg PUBLIC "-//W3C//DTD SVG 1.1//EN"
 "http://www.w3.org/Graphics/SVG/1.1/DTD/svg11.dtd">
<!-- Generated by graphviz version 8.1.0 (20230707.0739)
 -->
<!-- Title: modules Pages: 1 -->
<svg width="1289pt" height="770pt"
 viewBox="0.00 0.00 1289.00 770.25" xmlns="http://www.w3.org/2000/svg" xmlns:xlink="http://www.w3.org/1999/xlink">
<g id="graph0" class="graph" transform="scale(1 1) rotate(0) translate(4 766.25)">
<title>modules</title>
<polygon fill="white" stroke="none" points="-4,4 -4,-766.25 1285,-766.25 1285,4 -4,4"/>
<text text-anchor="middle" x="640.5" y="-6.45" font-family="Times New Roman,serif" font-size="14.00">Module dependencies</text>
<g id="clust1" class="cluster">
<title>cluster_01</title>
<polygon fill="none" stroke="black" points="1089,-599.75 1089,-754.25 1273,-754.25 1273,-599.75 1089,-599.75"/>
<text text-anchor="middle" x="1181" y="-740.75" font-family="Times New Roman,serif" font-size="10.00">Legend</text>
</g>
<!-- app -->
<g id="node1" class="node">
<title>app</title>
<ellipse fill="none" stroke="black" cx="636" cy="-709" rx="27" ry="18"/>
<text text-anchor="middle" x="636" y="-703.58" font-family="Times New Roman,serif" font-size="14.00">app</text>
</g>
<!-- data&#45;android -->
<g id="node2" class="node">
<title>data&#45;android</title>
<ellipse fill="none" stroke="black" cx="86" cy="-406.75" rx="57.55" ry="18"/>
<text text-anchor="middle" x="86" y="-401.32" font-family="Times New Roman,serif" font-size="14.00">data&#45;android</text>
</g>
<!-- app&#45;&gt;data&#45;android -->
<g id="edge1" class="edge">
<title>app&#45;&gt;data&#45;android</title>
<path fill="none" stroke="black" d="M608.75,-707.21C491.76,-703.46 38,-685.16 38,-626.75 38,-626.75 38,-626.75 38,-478.75 38,-461.05 48.36,-444.47 59.46,-431.79"/>
<polygon fill="black" stroke="black" points="61.44,-434.73 65.75,-425.05 56.35,-429.93 61.44,-434.73"/>
</g>
<!-- ui:common -->
<g id="node3" class="node">
<title>ui:common</title>
<ellipse fill="none" stroke="black" cx="581" cy="-479.75" rx="52.06" ry="18"/>
<text text-anchor="middle" x="581" y="-474.32" font-family="Times New Roman,serif" font-size="14.00">ui:common</text>
</g>
<!-- app&#45;&gt;ui:common -->
<g id="edge2" class="edge">
<title>app&#45;&gt;ui:common</title>
<path fill="none" stroke="black" d="M631.31,-690.86C627.82,-677.93 622.98,-659.76 619,-643.75 607.2,-596.33 594.5,-540.87 587.18,-508.4"/>
<polygon fill="black" stroke="black" points="590.43,-507.91 584.83,-498.92 583.61,-509.45 590.43,-507.91"/>
</g>
<!-- ui:core -->
<g id="node4" class="node">
<title>ui:core</title>
<ellipse fill="none" stroke="black" cx="738" cy="-333.75" rx="35.6" ry="18"/>
<text text-anchor="middle" x="738" y="-328.32" font-family="Times New Roman,serif" font-size="14.00">ui:core</text>
</g>
<!-- app&#45;&gt;ui:core -->
<g id="edge3" class="edge">
<title>app&#45;&gt;ui:core</title>
<path fill="none" stroke="black" d="M657.01,-697.13C677.04,-685.93 707.02,-666.87 727,-643.75 798.34,-561.18 812.64,-530.88 838,-424.75 841.72,-409.19 843.71,-403.7 838,-388.75 833.95,-378.17 830.22,-376.33 821,-369.75 808.09,-360.54 792.39,-353.13 778.13,-347.55"/>
<polygon fill="black" stroke="black" points="779.66,-344.01 769.06,-343.8 777.22,-350.57 779.66,-344.01"/>
</g>
<!-- ui:collections -->
<g id="node5" class="node">
<title>ui:collections</title>
<ellipse fill="none" stroke="black" cx="305" cy="-625.75" rx="59.05" ry="18"/>
<text text-anchor="middle" x="305" y="-620.33" font-family="Times New Roman,serif" font-size="14.00">ui:collections</text>
</g>
<!-- app&#45;&gt;ui:collections -->
<g id="edge4" class="edge">
<title>app&#45;&gt;ui:collections</title>
<path fill="none" stroke="black" d="M608.71,-707.66C561.58,-706.33 462.45,-700.21 384,-673 367.28,-667.2 350.17,-657.7 336.16,-648.82"/>
<polygon fill="black" stroke="black" points="338.29,-645.37 328,-642.82 334.45,-651.22 338.29,-645.37"/>
</g>
<!-- ui:history -->
<g id="node6" class="node">
<title>ui:history</title>
<ellipse fill="none" stroke="black" cx="673" cy="-625.75" rx="44.58" ry="18"/>
<text text-anchor="middle" x="673" y="-620.33" font-family="Times New Roman,serif" font-size="14.00">ui:history</text>
</g>
<!-- app&#45;&gt;ui:history -->
<g id="edge5" class="edge">
<title>app&#45;&gt;ui:history</title>
<path fill="none" stroke="black" d="M643.49,-691.56C648.44,-680.69 655.04,-666.19 660.74,-653.66"/>
<polygon fill="black" stroke="black" points="664.31,-655.28 665.27,-644.73 657.94,-652.38 664.31,-655.28"/>
</g>
<!-- ui:image -->
<g id="node7" class="node">
<title>ui:image</title>
<ellipse fill="none" stroke="black" cx="985" cy="-406.75" rx="40.58" ry="18"/>
<text text-anchor="middle" x="985" y="-401.32" font-family="Times New Roman,serif" font-size="14.00">ui:image</text>
</g>
<!-- app&#45;&gt;ui:image -->
<g id="edge6" class="edge">
<title>app&#45;&gt;ui:image</title>
<path fill="none" stroke="black" d="M663.33,-707.99C750.46,-707.21 1016,-698.94 1016,-626.75 1016,-626.75 1016,-626.75 1016,-478.75 1016,-462.89 1009.42,-446.57 1002.32,-433.59"/>
<polygon fill="black" stroke="black" points="1004.99,-432.21 996.9,-425.37 998.95,-435.76 1004.99,-432.21"/>
</g>
<!-- ui:nowplaying -->
<g id="node8" class="node">
<title>ui:nowplaying</title>
<ellipse fill="none" stroke="black" cx="888" cy="-552.75" rx="61.54" ry="18"/>
<text text-anchor="middle" x="888" y="-547.33" font-family="Times New Roman,serif" font-size="14.00">ui:nowplaying</text>
</g>
<!-- app&#45;&gt;ui:nowplaying -->
<g id="edge7" class="edge">
<title>app&#45;&gt;ui:nowplaying</title>
<path fill="none" stroke="black" d="M663.25,-708.95C700.15,-708.92 766.61,-704.04 812,-673 844.74,-650.61 866.42,-608.99 877.97,-581.32"/>
<polygon fill="black" stroke="black" points="881.58,-582.71 882.03,-572.12 875.08,-580.12 881.58,-582.71"/>
</g>
<!-- ui:settings -->
<g id="node9" class="node">
<title>ui:settings</title>
<ellipse fill="none" stroke="black" cx="359" cy="-552.75" rx="47.07" ry="18"/>
<text text-anchor="middle" x="359" y="-547.33" font-family="Times New Roman,serif" font-size="14.00">ui:settings</text>
</g>
<!-- app&#45;&gt;ui:settings -->
<g id="edge8" class="edge">
<title>app&#45;&gt;ui:settings</title>
<path fill="none" stroke="black" d="M615.51,-696.86C602.93,-690.01 586.51,-681.03 572,-673 509.18,-638.24 436.22,-597.26 394.05,-573.52"/>
<polygon fill="black" stroke="black" points="395.96,-570.01 385.53,-568.15 392.52,-576.11 395.96,-570.01"/>
</g>
<!-- ui:spotify -->
<g id="node10" class="node">
<title>ui:spotify</title>
<ellipse fill="none" stroke="black" cx="1089" cy="-552.75" rx="45.08" ry="18"/>
<text text-anchor="middle" x="1089" y="-547.33" font-family="Times New Roman,serif" font-size="14.00">ui:spotify</text>
</g>
<!-- app&#45;&gt;ui:spotify -->
<g id="edge9" class="edge">
<title>app&#45;&gt;ui:spotify</title>
<path fill="none" stroke="black" d="M663.06,-707.12C747.1,-704.17 999.82,-693.65 1030,-673 1060.97,-651.82 1076.39,-609.5 1083.53,-581.4"/>
<polygon fill="black" stroke="black" points="1087.08,-582.58 1085.95,-572.05 1080.26,-580.99 1087.08,-582.58"/>
</g>
<!-- ui:stats -->
<g id="node11" class="node">
<title>ui:stats</title>
<ellipse fill="none" stroke="black" cx="498" cy="-552.75" rx="36.09" ry="18"/>
<text text-anchor="middle" x="498" y="-547.33" font-family="Times New Roman,serif" font-size="14.00">ui:stats</text>
</g>
<!-- app&#45;&gt;ui:stats -->
<g id="edge10" class="edge">
<title>app&#45;&gt;ui:stats</title>
<path fill="none" stroke="black" d="M616.37,-696.38C606.66,-690.12 595.1,-681.88 586,-673 556.6,-644.33 529.65,-605.05 513.53,-579.54"/>
<polygon fill="black" stroke="black" points="516.15,-578.13 507.89,-571.49 510.21,-581.83 516.15,-578.13"/>
</g>
<!-- data -->
<g id="node12" class="node">
<title>data</title>
<ellipse fill="none" stroke="black" cx="388" cy="-333.75" rx="27" ry="18"/>
<text text-anchor="middle" x="388" y="-328.32" font-family="Times New Roman,serif" font-size="14.00">data</text>
</g>
<!-- data&#45;android&#45;&gt;data -->
<g id="edge18" class="edge">
<title>data&#45;android&#45;&gt;data</title>
<path fill="none" stroke="red" d="M111.84,-390.36C125.19,-383.05 142.01,-374.82 158,-369.75 223.62,-348.92 303.82,-340.31 350.09,-336.89"/>
<polygon fill="red" stroke="red" points="350.09,-340.33 359.82,-336.14 349.6,-333.34 350.09,-340.33"/>
</g>
<!-- ui:common&#45;&gt;data&#45;android -->
<g id="edge37" class="edge">
<title>ui:common&#45;&gt;data&#45;android</title>
<path fill="none" stroke="black" d="M532.92,-472.45C459.24,-462.72 314.02,-443.22 191,-424.75 176.52,-422.58 160.95,-420.12 146.34,-417.76"/>
<polygon fill="black" stroke="black" points="147.33,-414.22 136.9,-416.07 146.21,-421.13 147.33,-414.22"/>
</g>
<!-- ui:common&#45;&gt;ui:core -->
<g id="edge38" class="edge">
<title>ui:common&#45;&gt;ui:core</title>
<path fill="none" stroke="black" d="M558.15,-463.3C533.86,-444.97 501.45,-413.75 521,-388.75 541.89,-362.03 635.36,-346.63 692.6,-339.54"/>
<polygon fill="black" stroke="black" points="692.67,-342.94 702.19,-338.27 691.84,-335.99 692.67,-342.94"/>
</g>
<!-- ui:common&#45;&gt;ui:image -->
<g id="edge39" class="edge">
<title>ui:common&#45;&gt;ui:image</title>
<path fill="none" stroke="black" d="M626.56,-470.74C703.52,-457.22 858.55,-429.97 937.08,-416.17"/>
<polygon fill="black" stroke="black" points="937.39,-419.49 946.64,-414.32 936.18,-412.6 937.39,-419.49"/>
</g>
<!-- ui:collections&#45;&gt;data&#45;android -->
<g id="edge33" class="edge">
<title>ui:collections&#45;&gt;data&#45;android</title>
<path fill="none" stroke="black" d="M288.18,-608.08C249.71,-569.96 155.18,-476.29 110.35,-431.87"/>
<polygon fill="black" stroke="black" points="113.14,-429.73 103.58,-425.18 108.22,-434.7 113.14,-429.73"/>
</g>
<!-- ui:collections&#45;&gt;ui:common -->
<g id="edge34" class="edge">
<title>ui:collections&#45;&gt;ui:common</title>
<path fill="none" stroke="black" d="M359.27,-618.24C420.62,-609.91 515.55,-593.74 543,-570.75 561.56,-555.2 571.24,-529 576.17,-508.87"/>
<polygon fill="black" stroke="black" points="579.8,-509.64 578.5,-499.13 572.96,-508.16 579.8,-509.64"/>
</g>
<!-- ui:collections&#45;&gt;ui:core -->
<g id="edge35" class="edge">
<title>ui:collections&#45;&gt;ui:core</title>
<path fill="none" stroke="black" d="M301.82,-607.5C299.08,-589.13 296.49,-559.38 303,-534.75 322.08,-462.59 324.52,-431.08 386,-388.75 434.79,-355.15 607.8,-341.59 691.7,-336.9"/>
<polygon fill="black" stroke="black" points="691.65,-340.36 701.44,-336.32 691.27,-333.37 691.65,-340.36"/>
</g>
<!-- ui:collections&#45;&gt;ui:settings -->
<g id="edge36" class="edge">
<title>ui:collections&#45;&gt;ui:settings</title>
<path fill="none" stroke="black" d="M317.8,-607.92C324.32,-599.35 332.39,-588.74 339.65,-579.19"/>
<polygon fill="black" stroke="black" points="343.03,-581.53 346.29,-571.46 337.45,-577.3 343.03,-581.53"/>
</g>
<!-- ui:collections&#45;&gt;data -->
<g id="edge32" class="edge">
<title>ui:collections&#45;&gt;data</title>
<path fill="none" stroke="black" d="M264.84,-612.15C167.44,-579.64 -67.19,-488.47 19,-388.75 61.49,-339.59 264.23,-334.32 349.78,-334.34"/>
<polygon fill="black" stroke="black" points="349.56,-337.84 359.57,-334.37 349.58,-330.84 349.56,-337.84"/>
</g>
<!-- ui:history&#45;&gt;ui:common -->
<g id="edge41" class="edge">
<title>ui:history&#45;&gt;ui:common</title>
<path fill="none" stroke="black" d="M665.47,-607.7C655.31,-585.54 635.94,-546.09 614,-515.75 611.36,-512.1 608.36,-508.43 605.28,-504.91"/>
<polygon fill="black" stroke="black" points="608.4,-503.05 599.05,-498.06 603.25,-507.79 608.4,-503.05"/>
</g>
<!-- ui:history&#45;&gt;ui:core -->
<g id="edge42" class="edge">
<title>ui:history&#45;&gt;ui:core</title>
<path fill="none" stroke="black" d="M684.98,-607.95C706.22,-578.24 752.04,-514.56 792,-461.75 804.61,-445.09 814.18,-444.5 821,-424.75 826.22,-409.63 828.63,-402.81 821,-388.75 811.41,-371.07 793.24,-358.26 776.34,-349.58"/>
<polygon fill="black" stroke="black" points="778.14,-346.08 767.61,-344.93 775.13,-352.4 778.14,-346.08"/>
</g>
<!-- ui:history&#45;&gt;ui:image -->
<g id="edge43" class="edge">
<title>ui:history&#45;&gt;ui:image</title>
<path fill="none" stroke="black" d="M717.24,-622.46C789.01,-617.79 926.11,-604.58 959,-570.75 993.87,-534.87 993.27,-472.11 989.36,-435.82"/>
<polygon fill="black" stroke="black" points="992.73,-435.53 988.02,-426.04 985.78,-436.4 992.73,-435.53"/>
</g>
<!-- ui:history&#45;&gt;ui:settings -->
<g id="edge44" class="edge">
<title>ui:history&#45;&gt;ui:settings</title>
<path fill="none" stroke="black" d="M633.39,-617.08C583.44,-607.23 495.02,-589.19 420,-570.75 415.43,-569.63 410.69,-568.41 405.95,-567.15"/>
<polygon fill="black" stroke="black" points="407.24,-563.6 396.68,-564.37 405.41,-570.36 407.24,-563.6"/>
</g>
<!-- ui:history&#45;&gt;data -->
<g id="edge40" class="edge">
<title>ui:history&#45;&gt;data</title>
<path fill="none" stroke="black" d="M634.61,-616.38C573.33,-602.88 459.57,-577.14 453,-570.75 395.31,-514.66 387.4,-412.46 387.19,-363.03"/>
<polygon fill="black" stroke="black" points="390.7,-363.23 387.27,-353.2 383.7,-363.18 390.7,-363.23"/>
</g>
<!-- ui:image&#45;&gt;ui:core -->
<g id="edge46" class="edge">
<title>ui:image&#45;&gt;ui:core</title>
<path fill="none" stroke="black" d="M966.19,-390.73C956.03,-383.33 942.93,-374.91 930,-369.75 882.4,-350.74 824.01,-341.98 784.2,-337.99"/>
<polygon fill="black" stroke="black" points="784.78,-334.43 774.49,-336.98 784.12,-341.4 784.78,-334.43"/>
</g>
<!-- data:core -->
<g id="node13" class="node">
<title>data:core</title>
<ellipse fill="none" stroke="black" cx="533" cy="-41.75" rx="44.58" ry="18"/>
<text text-anchor="middle" x="533" y="-36.33" font-family="Times New Roman,serif" font-size="14.00">data:core</text>
</g>
<!-- ui:image&#45;&gt;data:core -->
<g id="edge45" class="edge">
<title>ui:image&#45;&gt;data:core</title>
<path fill="none" stroke="black" d="M1014.6,-394.29C1038.09,-383.04 1067,-363.37 1067,-334.75 1067,-334.75 1067,-334.75 1067,-113.75 1067,-65.83 724.74,-49.13 588.24,-44.38"/>
<polygon fill="black" stroke="black" points="588.72,-40.86 578.61,-44.02 588.48,-47.85 588.72,-40.86"/>
</g>
<!-- ui:nowplaying&#45;&gt;ui:common -->
<g id="edge48" class="edge">
<title>ui:nowplaying&#45;&gt;ui:common</title>
<path fill="none" stroke="black" d="M840.7,-540.81C784.81,-527.89 692.07,-506.44 633.85,-492.97"/>
<polygon fill="black" stroke="black" points="634.93,-489.4 624.4,-490.56 633.36,-496.22 634.93,-489.4"/>
</g>
<!-- ui:nowplaying&#45;&gt;ui:core -->
<g id="edge49" class="edge">
<title>ui:nowplaying&#45;&gt;ui:core</title>
<path fill="none" stroke="black" d="M894.92,-534.42C907.77,-499.13 930.64,-418.16 892,-369.75 878.64,-353.02 824.26,-343.67 783.89,-338.93"/>
<polygon fill="black" stroke="black" points="784.5,-335.37 774.18,-337.74 783.73,-342.32 784.5,-335.37"/>
</g>
<!-- ui:nowplaying&#45;&gt;ui:image -->
<g id="edge50" class="edge">
<title>ui:nowplaying&#45;&gt;ui:image</title>
<path fill="none" stroke="black" d="M899.51,-534.67C916.44,-509.52 948.2,-462.39 967.87,-433.17"/>
<polygon fill="black" stroke="black" points="971.12,-435.62 973.81,-425.37 965.32,-431.71 971.12,-435.62"/>
</g>
<!-- ui:nowplaying&#45;&gt;data -->
<g id="edge47" class="edge">
<title>ui:nowplaying&#45;&gt;data</title>
<path fill="none" stroke="black" d="M851.95,-537.87C804.2,-519.64 717.23,-486.99 642,-461.75 588.68,-443.86 571.74,-449 521,-424.75 480.72,-405.5 438.8,-375.12 413.04,-355.07"/>
<polygon fill="black" stroke="black" points="415.66,-351.88 405.64,-348.44 411.32,-357.38 415.66,-351.88"/>
</g>
<!-- ui:settings&#45;&gt;data&#45;android -->
<g id="edge51" class="edge">
<title>ui:settings&#45;&gt;data&#45;android</title>
<path fill="none" stroke="black" d="M324.36,-540.22C297.65,-530.63 260.29,-515.69 230,-497.75 196.26,-477.77 194.33,-463.41 161,-442.75 151.28,-436.73 140.36,-431.07 129.92,-426.13"/>
<polygon fill="black" stroke="black" points="131.66,-422.62 121.11,-421.62 128.74,-428.98 131.66,-422.62"/>
</g>
<!-- ui:settings&#45;&gt;ui:common -->
<g id="edge52" class="edge">
<title>ui:settings&#45;&gt;ui:common</title>
<path fill="none" stroke="black" d="M394.18,-540.5C431.82,-528.46 491.75,-509.29 533.55,-495.92"/>
<polygon fill="black" stroke="black" points="534.31,-499.04 542.76,-492.66 532.17,-492.37 534.31,-499.04"/>
</g>
<!-- ui:settings&#45;&gt;ui:core -->
<g id="edge53" class="edge">
<title>ui:settings&#45;&gt;ui:core</title>
<path fill="none" stroke="black" d="M356.61,-534.38C354.38,-511.14 353.96,-469.74 374,-442.75 420.35,-380.31 458.71,-392.71 533,-369.75 586.36,-353.26 650.07,-343.92 692.15,-339.11"/>
<polygon fill="black" stroke="black" points="692.34,-342.5 701.89,-337.93 691.57,-335.54 692.34,-342.5"/>
</g>
<!-- ui:spotify&#45;&gt;ui:common -->
<g id="edge57" class="edge">
<title>ui:spotify&#45;&gt;ui:common</title>
<path fill="none" stroke="black" d="M1046.99,-545.88C956.51,-533.23 743.02,-503.39 639.42,-488.92"/>
<polygon fill="black" stroke="black" points="639.93,-485.31 629.54,-487.4 638.96,-492.25 639.93,-485.31"/>
</g>
<!-- ui:spotify&#45;&gt;ui:core -->
<g id="edge56" class="edge">
<title>ui:spotify&#45;&gt;ui:core</title>
<path fill="none" stroke="black" d="M1083.57,-534.62C1070.44,-493.29 1037.83,-391.28 1035,-388.75 998.67,-356.27 858.41,-342.49 784.38,-337.37"/>
<polygon fill="black" stroke="black" points="784.73,-333.82 774.52,-336.65 784.27,-340.81 784.73,-333.82"/>
</g>
<!-- ui:spotify&#45;&gt;data:core -->
<g id="edge54" class="edge">
<title>ui:spotify&#45;&gt;data:core</title>
<path fill="none" stroke="black" d="M1104.97,-535.48C1116.48,-521.98 1130,-501.67 1130,-480.75 1130,-480.75 1130,-480.75 1130,-113.75 1130,-59.53 736.64,-46.55 588.52,-43.59"/>
<polygon fill="black" stroke="black" points="588.94,-40.07 578.87,-43.38 588.8,-47.07 588.94,-40.07"/>
</g>
<!-- data:spotify -->
<g id="node18" class="node">
<title>data:spotify</title>
<ellipse fill="none" stroke="black" cx="641" cy="-260.75" rx="54.06" ry="18"/>
<text text-anchor="middle" x="641" y="-255.32" font-family="Times New Roman,serif" font-size="14.00">data:spotify</text>
</g>
<!-- ui:spotify&#45;&gt;data:spotify -->
<g id="edge55" class="edge">
<title>ui:spotify&#45;&gt;data:spotify</title>
<path fill="none" stroke="black" d="M1090.71,-534.33C1092.92,-501.58 1092.8,-430.4 1056,-388.75 966.46,-287.43 798.53,-265.75 706.1,-261.85"/>
<polygon fill="black" stroke="black" points="706.34,-258.32 696.22,-261.46 706.09,-265.31 706.34,-258.32"/>
</g>
<!-- ui:stats&#45;&gt;ui:common -->
<g id="edge59" class="edge">
<title>ui:stats&#45;&gt;ui:common</title>
<path fill="none" stroke="black" d="M515.6,-536.69C526.74,-527.17 541.35,-514.66 553.94,-503.89"/>
<polygon fill="black" stroke="black" points="555.94,-505.93 561.27,-496.77 551.39,-500.61 555.94,-505.93"/>
</g>
<!-- ui:stats&#45;&gt;ui:core -->
<g id="edge60" class="edge">
<title>ui:stats&#45;&gt;ui:core</title>
<path fill="none" stroke="black" d="M494.5,-534.34C489.12,-502.53 482.29,-434.14 512,-388.75 531.55,-358.88 632.09,-344.5 692.29,-338.47"/>
<polygon fill="black" stroke="black" points="692.41,-341.88 702.03,-337.44 691.74,-334.91 692.41,-341.88"/>
</g>
<!-- ui:stats&#45;&gt;data -->
<g id="edge58" class="edge">
<title>ui:stats&#45;&gt;data</title>
<path fill="none" stroke="black" d="M466.57,-543.5C394.95,-524 223.3,-473.06 191,-424.75 150.72,-364.49 282.8,-343.95 350.51,-337.48"/>
<polygon fill="black" stroke="black" points="350.53,-340.9 360.18,-336.53 349.9,-333.93 350.53,-340.9"/>
</g>
<!-- data&#45;&gt;data:core -->
<g id="edge11" class="edge">
<title>data&#45;&gt;data:core</title>
<path fill="none" stroke="red" d="M415.47,-333.22C463.81,-332.45 559,-323.15 559,-261.75 559,-261.75 559,-261.75 559,-113.75 559,-98.42 553.59,-82.3 547.7,-69.3"/>
<polygon fill="red" stroke="red" points="550.51,-68.07 542.98,-60.62 544.22,-71.15 550.51,-68.07"/>
</g>
<!-- data:common:network -->
<g id="node14" class="node">
<title>data:common:network</title>
<ellipse fill="none" stroke="black" cx="324" cy="-187.75" rx="92.98" ry="18"/>
<text text-anchor="middle" x="324" y="-182.32" font-family="Times New Roman,serif" font-size="14.00">data:common:network</text>
</g>
<!-- data&#45;&gt;data:common:network -->
<g id="edge12" class="edge">
<title>data&#45;&gt;data:common:network</title>
<path fill="none" stroke="red" d="M391.94,-315.46C396.13,-292.67 400.06,-252.17 383,-223.75 380.01,-218.77 376.02,-214.42 371.52,-210.64"/>
<polygon fill="red" stroke="red" points="374.12,-207.47 363.97,-204.43 370.01,-213.14 374.12,-207.47"/>
</g>
<!-- data:coverart -->
<g id="node15" class="node">
<title>data:coverart</title>
<ellipse fill="none" stroke="black" cx="295" cy="-114.75" rx="58.55" ry="18"/>
<text text-anchor="middle" x="295" y="-109.33" font-family="Times New Roman,serif" font-size="14.00">data:coverart</text>
</g>
<!-- data&#45;&gt;data:coverart -->
<g id="edge13" class="edge">
<title>data&#45;&gt;data:coverart</title>
<path fill="none" stroke="red" d="M399.12,-316.94C419.37,-286.05 457.36,-216.59 426,-169.75 416.61,-155.73 379.68,-141.23 347.42,-130.79"/>
<polygon fill="red" stroke="red" points="348.73,-127.22 338.14,-127.55 346.63,-133.9 348.73,-127.22"/>
</g>
<!-- data:domain -->
<g id="node16" class="node">
<title>data:domain</title>
<ellipse fill="none" stroke="black" cx="255" cy="-260.75" rx="55.55" ry="18"/>
<text text-anchor="middle" x="255" y="-255.32" font-family="Times New Roman,serif" font-size="14.00">data:domain</text>
</g>
<!-- data&#45;&gt;data:domain -->
<g id="edge14" class="edge">
<title>data&#45;&gt;data:domain</title>
<path fill="none" stroke="red" d="M367.22,-321.66C347.31,-311.03 316.81,-294.75 292.63,-281.84"/>
<polygon fill="red" stroke="red" points="294.51,-278.34 284.04,-276.72 291.22,-284.52 294.51,-278.34"/>
</g>
<!-- data:room -->
<g id="node17" class="node">
<title>data:room</title>
<ellipse fill="none" stroke="black" cx="165" cy="-187.75" rx="48.07" ry="18"/>
<text text-anchor="middle" x="165" y="-182.32" font-family="Times New Roman,serif" font-size="14.00">data:room</text>
</g>
<!-- data&#45;&gt;data:room -->
<g id="edge15" class="edge">
<title>data&#45;&gt;data:room</title>
<path fill="none" stroke="red" d="M379.63,-316.44C368.56,-296.39 347.23,-262.58 320,-242.75 310.87,-236.1 253.58,-216.97 211.3,-203.37"/>
<polygon fill="red" stroke="red" points="212.5,-199.76 201.91,-200.05 210.37,-206.43 212.5,-199.76"/>
</g>
<!-- data&#45;&gt;data:spotify -->
<g id="edge16" class="edge">
<title>data&#45;&gt;data:spotify</title>
<path fill="none" stroke="red" d="M414.69,-330.24C451.24,-326.23 518.55,-316.82 573,-297.75 584.48,-293.73 596.41,-288.01 607,-282.31"/>
<polygon fill="red" stroke="red" points="608.27,-285.05 615.31,-277.13 604.87,-278.93 608.27,-285.05"/>
</g>
<!-- data:musicbrainz -->
<g id="node19" class="node">
<title>data:musicbrainz</title>
<ellipse fill="none" stroke="black" cx="458" cy="-114.75" rx="72.52" ry="18"/>
<text text-anchor="middle" x="458" y="-109.33" font-family="Times New Roman,serif" font-size="14.00">data:musicbrainz</text>
</g>
<!-- data&#45;&gt;data:musicbrainz -->
<g id="edge17" class="edge">
<title>data&#45;&gt;data:musicbrainz</title>
<path fill="none" stroke="red" d="M413.35,-327.15C429.25,-322.22 448.64,-313.31 459,-297.75 490.07,-251.06 477.58,-181.63 466.99,-143.44"/>
<polygon fill="red" stroke="red" points="470.13,-142.7 463.96,-134.09 463.41,-144.67 470.13,-142.7"/>
</g>
<!-- data:coverart&#45;&gt;data:core -->
<g id="edge21" class="edge">
<title>data:coverart&#45;&gt;data:core</title>
<path fill="none" stroke="black" d="M335.91,-101.54C378.15,-88.94 443.88,-69.33 487.67,-56.27"/>
<polygon fill="black" stroke="black" points="488.45,-59.39 497.03,-53.18 486.45,-52.69 488.45,-59.39"/>
</g>
<!-- data:domain&#45;&gt;data:core -->
<g id="edge22" class="edge">
<title>data:domain&#45;&gt;data:core</title>
<path fill="none" stroke="black" d="M199.84,-258.31C162.77,-253.95 117.15,-241.15 97,-205.75 89.08,-191.85 90.04,-184.16 97,-169.75 119.7,-122.75 141.89,-119.23 189,-96.75 283.12,-51.82 406.61,-42.93 477.14,-41.9"/>
<polygon fill="black" stroke="black" points="477.03,-45.39 487,-41.8 476.96,-38.39 477.03,-45.39"/>
</g>
<!-- data:domain&#45;&gt;data:common:network -->
<g id="edge23" class="edge">
<title>data:domain&#45;&gt;data:common:network</title>
<path fill="none" stroke="black" d="M271,-243.28C279.67,-234.36 290.56,-223.16 300.2,-213.24"/>
<polygon fill="black" stroke="black" points="302.14,-216.23 306.6,-206.62 297.12,-211.35 302.14,-216.23"/>
</g>
<!-- data:domain&#45;&gt;data:coverart -->
<g id="edge24" class="edge">
<title>data:domain&#45;&gt;data:coverart</title>
<path fill="none" stroke="black" d="M208.85,-250.55C154.95,-237.68 76.88,-211.12 108,-169.75 123.2,-149.54 184.55,-134.5 232.89,-125.5"/>
<polygon fill="black" stroke="black" points="233.39,-128.78 242.61,-123.56 232.15,-121.89 233.39,-128.78"/>
</g>
<!-- data:domain&#45;&gt;data:room -->
<g id="edge26" class="edge">
<title>data:domain&#45;&gt;data:room</title>
<path fill="none" stroke="black" d="M234.58,-243.64C222.41,-234.04 206.78,-221.71 193.42,-211.17"/>
<polygon fill="black" stroke="black" points="196.05,-208 186.03,-204.55 191.71,-213.49 196.05,-208"/>
</g>
<!-- data:domain&#45;&gt;data:musicbrainz -->
<g id="edge25" class="edge">
<title>data:domain&#45;&gt;data:musicbrainz</title>
<path fill="none" stroke="black" d="M308.39,-255.3C345.74,-249.52 394.41,-236.23 426,-205.75 442.86,-189.48 450.86,-163.76 454.64,-143.97"/>
<polygon fill="black" stroke="black" points="458.25,-144.56 456.41,-134.13 451.34,-143.43 458.25,-144.56"/>
</g>
<!-- data:room&#45;&gt;data:core -->
<g id="edge28" class="edge">
<title>data:room&#45;&gt;data:core</title>
<path fill="none" stroke="black" d="M171.78,-169.74C180.99,-148.95 199.54,-114.39 227,-96.75 267.77,-70.55 402.03,-54.53 478.48,-47.3"/>
<polygon fill="black" stroke="black" points="478.68,-50.71 488.32,-46.3 478.04,-43.74 478.68,-50.71"/>
</g>
<!-- data:room&#45;&gt;data:coverart -->
<g id="edge29" class="edge">
<title>data:room&#45;&gt;data:coverart</title>
<path fill="none" stroke="black" d="M191.31,-172.38C210.48,-161.91 236.71,-147.58 258,-135.96"/>
<polygon fill="black" stroke="black" points="259.29,-138.7 266.38,-130.83 255.93,-132.55 259.29,-138.7"/>
</g>
<!-- data:room&#45;&gt;data:musicbrainz -->
<g id="edge30" class="edge">
<title>data:room&#45;&gt;data:musicbrainz</title>
<path fill="none" stroke="black" d="M201.39,-175.51C208.22,-173.52 215.31,-171.51 222,-169.75 279.63,-154.58 345.81,-139.65 393.39,-129.35"/>
<polygon fill="black" stroke="black" points="393.82,-132.62 402.86,-127.09 392.35,-125.78 393.82,-132.62"/>
</g>
<!-- data:spotify&#45;&gt;data:core -->
<g id="edge31" class="edge">
<title>data:spotify&#45;&gt;data:core</title>
<path fill="none" stroke="black" d="M637.51,-242.37C630.07,-208.34 610.2,-131.58 573,-77.75 569.87,-73.22 566.02,-68.89 561.96,-64.93"/>
<polygon fill="black" stroke="black" points="564.8,-62.88 555.03,-58.79 560.12,-68.08 564.8,-62.88"/>
</g>
<!-- data:musicbrainz&#45;&gt;data:core -->
<g id="edge27" class="edge">
<title>data:musicbrainz&#45;&gt;data:core</title>
<path fill="none" stroke="black" d="M475.77,-96.92C485.51,-87.71 497.72,-76.15 508.36,-66.07"/>
<polygon fill="black" stroke="black" points="510.27,-69.14 515.13,-59.72 505.46,-64.06 510.27,-69.14"/>
</g>
<!-- desktop&#45;app -->
<g id="node20" class="node">
<title>desktop&#45;app</title>
<ellipse fill="none" stroke="black" cx="588" cy="-406.75" rx="57.55" ry="18"/>
<text text-anchor="middle" x="588" y="-401.32" font-family="Times New Roman,serif" font-size="14.00">desktop&#45;app</text>
</g>
<!-- desktop&#45;app&#45;&gt;ui:core -->
<g id="edge19" class="edge">
<title>desktop&#45;app&#45;&gt;ui:core</title>
<path fill="none" stroke="black" d="M618.72,-391.21C643.23,-379.61 677.58,-363.35 703.13,-351.25"/>
<polygon fill="black" stroke="black" points="704.25,-354.12 711.79,-346.68 701.26,-347.79 704.25,-354.12"/>
</g>
<!-- test&#45;data -->
<g id="node21" class="node">
<title>test&#45;data</title>
<ellipse fill="none" stroke="black" cx="242" cy="-406.75" rx="42.08" ry="18"/>
<text text-anchor="middle" x="242" y="-401.32" font-family="Times New Roman,serif" font-size="14.00">test&#45;data</text>
</g>
<!-- test&#45;data&#45;&gt;data -->
<g id="edge20" class="edge">
<title>test&#45;data&#45;&gt;data</title>
<path fill="none" stroke="black" d="M262.94,-390.86C273.22,-383.93 285.95,-375.89 298,-369.75 315.94,-360.61 336.85,-352.35 354,-346.15"/>
<polygon fill="black" stroke="black" points="354.87,-349.2 363.13,-342.56 352.53,-342.6 354.87,-349.2"/>
</g>
<!-- ui:test:screenshot -->
<g id="node22" class="node">
<title>ui:test:screenshot</title>
<ellipse fill="none" stroke="black" cx="738" cy="-406.75" rx="74.02" ry="18"/>
<text text-anchor="middle" x="738" y="-401.32" font-family="Times New Roman,serif" font-size="14.00">ui:test:screenshot</text>
</g>
<!-- ui:test:screenshot&#45;&gt;ui:core -->
<g id="edge61" class="edge">
<title>ui:test:screenshot&#45;&gt;ui:core</title>
<path fill="none" stroke="black" d="M738,-388.56C738,-380.8 738,-371.43 738,-362.7"/>
<polygon fill="black" stroke="black" points="741.5,-362.78 738,-352.78 734.5,-362.78 741.5,-362.78"/>
</g>
<!-- module -->
<g id="node23" class="node">
<title>module</title>
<ellipse fill="none" stroke="black" cx="1150" cy="-709" rx="27" ry="18"/>
<text text-anchor="middle" x="1150" y="-705.12" font-family="Times New Roman,serif" font-size="10.00">module</text>
</g>
<!-- dependency -->
<g id="node24" class="node">
<title>dependency</title>
<ellipse fill="none" stroke="black" cx="1150" cy="-625.75" rx="38.76" ry="18"/>
<text text-anchor="middle" x="1150" y="-621.88" font-family="Times New Roman,serif" font-size="10.00">dependency</text>
</g>
<!-- module&#45;&gt;dependency -->
<g id="edge62" class="edge">
<title>module&#45;&gt;dependency</title>
<path fill="none" stroke="red" d="M1132.5,-694.93C1126.03,-689.03 1119.44,-681.48 1116,-673 1112.55,-664.5 1115.97,-656.14 1121.77,-648.91"/>
<polygon fill="red" stroke="red" points="1123.97,-651.64 1128.4,-642.01 1118.94,-646.77 1123.97,-651.64"/>
<text text-anchor="middle" x="1122" y="-663.5" font-family="Times New Roman,serif" font-size="10.00">api</text>
</g>
<!-- module&#45;&gt;dependency -->
<g id="edge63" class="edge">
<title>module&#45;&gt;dependency</title>
<path fill="none" stroke="black" d="M1150,-690.77C1150,-680.39 1150,-666.92 1150,-655.02"/>
<polygon fill="black" stroke="black" points="1153.5,-655.24 1150,-645.24 1146.5,-655.24 1153.5,-655.24"/>
<text text-anchor="middle" x="1180.37" y="-663.5" font-family="Times New Roman,serif" font-size="10.00">implementation</text>
</g>
<!-- module&#45;&gt;dependency -->
<g id="edge64" class="edge">
<title>module&#45;&gt;dependency</title>
<path fill="none" stroke="green" d="M1174.7,-700.87C1188.28,-695.55 1203.96,-686.77 1212,-673 1220.04,-659.23 1207.29,-648.29 1191.31,-640.51"/>
<polygon fill="green" stroke="green" points="1193.22,-637.09 1182.65,-636.3 1190.42,-643.51 1193.22,-637.09"/>
<text text-anchor="middle" x="1229.37" y="-663.5" font-family="Times New Roman,serif" font-size="10.00">compile</text>
</g>
</g>
</svg>
