<?xml version="1.0" encoding="UTF-8" standalone="no"?>
<!DOCTYPE svg PUBLIC "-//W3C//DTD SVG 1.1//EN"
 "http://www.w3.org/Graphics/SVG/1.1/DTD/svg11.dtd">
<!-- Generated by graphviz version 2.43.0 (0)
 -->
<!-- Title: %3 Pages: 1 -->
<svg width="2288pt" height="940pt"
 viewBox="0.00 0.00 2288.09 940.00" xmlns="http://www.w3.org/2000/svg" xmlns:xlink="http://www.w3.org/1999/xlink">
<g id="graph0" class="graph" transform="scale(1 1) rotate(0) translate(4 936)">
<title>%3</title>
<polygon fill="white" stroke="transparent" points="-4,4 -4,-936 2284.09,-936 2284.09,4 -4,4"/>
<text text-anchor="middle" x="1140.04" y="-904" font-family="Times,serif" font-size="30.00">MusicSearch</text>
<text text-anchor="middle" x="1140.04" y="-871" font-family="Times,serif" font-size="30.00"> </text>
<!-- :app -->
<g id="node1" class="node">
<title>:app</title>
<polygon fill="#9affb5" stroke="black" points="1396.99,-858 1036.99,-858 1036.99,-822 1396.99,-822 1396.99,-858"/>
<text text-anchor="middle" x="1216.99" y="-836.3" font-family="Times,serif" font-size="14.00">:app</text>
</g>
<!-- :test&#45;data -->
<g id="node2" class="node">
<title>:test&#45;data</title>
<ellipse fill="#b59aff" stroke="black" cx="475.99" cy="-292" rx="55.49" ry="18"/>
<text text-anchor="middle" x="475.99" y="-288.3" font-family="Times,serif" font-size="14.00">:test&#45;data</text>
</g>
<!-- :app&#45;&gt;:test&#45;data -->
<g id="edge1" class="edge">
<title>:app&#45;&gt;:test&#45;data</title>
<path fill="none" stroke="#ff9ab1" stroke-dasharray="1,5" d="M1131.32,-821.72C1131.32,-732.06 1131.32,-343 1131.32,-343 1131.32,-343 516.56,-343 516.56,-343 516.56,-343 516.56,-314.35 516.56,-314.35"/>
<polygon fill="#ff9ab1" stroke="#ff9ab1" points="520.06,-314.35 516.56,-304.35 513.06,-314.35 520.06,-314.35"/>
</g>
<!-- :core:preferences -->
<g id="node3" class="node">
<title>:core:preferences</title>
<ellipse fill="#9affb5" stroke="black" cx="863.99" cy="-566" rx="91.78" ry="18"/>
<text text-anchor="middle" x="863.99" y="-562.3" font-family="Times,serif" font-size="14.00">:core:preferences</text>
</g>
<!-- :app&#45;&gt;:core:preferences -->
<g id="edge2" class="edge">
<title>:app&#45;&gt;:core:preferences</title>
<path fill="none" stroke="black" stroke-dasharray="1,5" d="M1036.97,-834C951.68,-834 868.18,-834 868.18,-834 868.18,-834 868.18,-594 868.18,-594"/>
<polygon fill="black" stroke="black" points="871.68,-594 868.18,-584 864.68,-594 871.68,-594"/>
</g>
<!-- :data&#45;android -->
<g id="node4" class="node">
<title>:data&#45;android</title>
<ellipse fill="#9affb5" stroke="black" cx="559.99" cy="-429" rx="72.59" ry="18"/>
<text text-anchor="middle" x="559.99" y="-425.3" font-family="Times,serif" font-size="14.00">:data&#45;android</text>
</g>
<!-- :app&#45;&gt;:data&#45;android -->
<g id="edge3" class="edge">
<title>:app&#45;&gt;:data&#45;android</title>
<path fill="none" stroke="black" stroke-dasharray="1,5" d="M1036.81,-852C844.95,-852 568.62,-852 568.62,-852 568.62,-852 568.62,-456.91 568.62,-456.91"/>
<polygon fill="black" stroke="black" points="572.12,-456.91 568.62,-446.91 565.12,-456.91 572.12,-456.91"/>
</g>
<!-- :data:database -->
<g id="node5" class="node">
<title>:data:database</title>
<ellipse fill="#b59aff" stroke="black" cx="118.99" cy="-292" rx="79.09" ry="18"/>
<text text-anchor="middle" x="118.99" y="-288.3" font-family="Times,serif" font-size="14.00">:data:database</text>
</g>
<!-- :app&#45;&gt;:data:database -->
<g id="edge4" class="edge">
<title>:app&#45;&gt;:data:database</title>
<path fill="none" stroke="black" stroke-dasharray="1,5" d="M1122.46,-821.85C1122.46,-736.25 1122.46,-377 1122.46,-377 1122.46,-377 181.14,-377 181.14,-377 181.14,-377 181.14,-313.46 181.14,-313.46"/>
<polygon fill="black" stroke="black" points="184.64,-313.46 181.14,-303.46 177.64,-313.46 184.64,-313.46"/>
</g>
<!-- :data:repository -->
<g id="node6" class="node">
<title>:data:repository</title>
<ellipse fill="#b59aff" stroke="black" cx="231.99" cy="-429" rx="85.29" ry="18"/>
<text text-anchor="middle" x="231.99" y="-425.3" font-family="Times,serif" font-size="14.00">:data:repository</text>
</g>
<!-- :app&#45;&gt;:data:repository -->
<g id="edge5" class="edge">
<title>:app&#45;&gt;:data:repository</title>
<path fill="none" stroke="black" stroke-dasharray="1,5" d="M1064,-821.87C1064,-801.43 1064,-771 1064,-771 1064,-771 231.99,-771 231.99,-771 231.99,-771 231.99,-457.39 231.99,-457.39"/>
<polygon fill="black" stroke="black" points="235.49,-457.39 231.99,-447.39 228.49,-457.39 235.49,-457.39"/>
</g>
<!-- :domain -->
<g id="node7" class="node">
<title>:domain</title>
<ellipse fill="#b59aff" stroke="black" cx="983.99" cy="-155" rx="48.19" ry="18"/>
<text text-anchor="middle" x="983.99" y="-151.3" font-family="Times,serif" font-size="14.00">:domain</text>
</g>
<!-- :app&#45;&gt;:domain -->
<g id="edge6" class="edge">
<title>:app&#45;&gt;:domain</title>
<path fill="none" stroke="black" stroke-dasharray="1,5" d="M1036.74,-828C1000.76,-828 973.79,-828 973.79,-828 973.79,-828 973.79,-182.66 973.79,-182.66"/>
<polygon fill="black" stroke="black" points="977.29,-182.66 973.79,-172.66 970.29,-182.66 977.29,-182.66"/>
</g>
<!-- :feature:search -->
<g id="node8" class="node">
<title>:feature:search</title>
<ellipse fill="#9affb5" stroke="black" cx="1216.99" cy="-703" rx="81.49" ry="18"/>
<text text-anchor="middle" x="1216.99" y="-699.3" font-family="Times,serif" font-size="14.00">:feature:search</text>
</g>
<!-- :app&#45;&gt;:feature:search -->
<g id="edge7" class="edge">
<title>:app&#45;&gt;:feature:search</title>
<path fill="none" stroke="black" stroke-dasharray="1,5" d="M1216.99,-821.81C1216.99,-821.81 1216.99,-731.27 1216.99,-731.27"/>
<polygon fill="black" stroke="black" points="1220.49,-731.27 1216.99,-721.27 1213.49,-731.27 1220.49,-731.27"/>
</g>
<!-- :strings -->
<g id="node9" class="node">
<title>:strings</title>
<ellipse fill="#b59aff" stroke="black" cx="1285.99" cy="-429" rx="46.29" ry="18"/>
<text text-anchor="middle" x="1285.99" y="-425.3" font-family="Times,serif" font-size="14.00">:strings</text>
</g>
<!-- :app&#45;&gt;:strings -->
<g id="edge8" class="edge">
<title>:app&#45;&gt;:strings</title>
<path fill="none" stroke="black" stroke-dasharray="1,5" d="M1303.08,-821.81C1303.08,-821.81 1303.08,-456.06 1303.08,-456.06"/>
<polygon fill="black" stroke="black" points="1306.58,-456.06 1303.08,-446.06 1299.58,-456.06 1306.58,-456.06"/>
</g>
<!-- :ui:common -->
<g id="node10" class="node">
<title>:ui:common</title>
<ellipse fill="#9affb5" stroke="black" cx="1569.99" cy="-566" rx="64.19" ry="18"/>
<text text-anchor="middle" x="1569.99" y="-562.3" font-family="Times,serif" font-size="14.00">:ui:common</text>
</g>
<!-- :app&#45;&gt;:ui:common -->
<g id="edge9" class="edge">
<title>:app&#45;&gt;:ui:common</title>
<path fill="none" stroke="black" stroke-dasharray="1,5" d="M1364.56,-821.72C1364.56,-762.54 1364.56,-580 1364.56,-580 1364.56,-580 1519.4,-580 1519.4,-580"/>
<polygon fill="black" stroke="black" points="1519.4,-583.5 1529.4,-580 1519.4,-576.5 1519.4,-583.5"/>
</g>
<!-- :ui:core -->
<g id="node11" class="node">
<title>:ui:core</title>
<ellipse fill="#b59aff" stroke="black" cx="1622.99" cy="-292" rx="45.49" ry="18"/>
<text text-anchor="middle" x="1622.99" y="-288.3" font-family="Times,serif" font-size="14.00">:ui:core</text>
</g>
<!-- :app&#45;&gt;:ui:core -->
<g id="edge10" class="edge">
<title>:app&#45;&gt;:ui:core</title>
<path fill="none" stroke="black" stroke-dasharray="1,5" d="M1348.35,-821.79C1348.35,-727.81 1348.35,-302 1348.35,-302 1348.35,-302 1575.09,-302 1575.09,-302"/>
<polygon fill="black" stroke="black" points="1575.09,-305.5 1585.09,-302 1575.09,-298.5 1575.09,-305.5"/>
</g>
<!-- :ui:collections -->
<g id="node12" class="node">
<title>:ui:collections</title>
<ellipse fill="#9affb5" stroke="black" cx="705.99" cy="-703" rx="74.99" ry="18"/>
<text text-anchor="middle" x="705.99" y="-699.3" font-family="Times,serif" font-size="14.00">:ui:collections</text>
</g>
<!-- :app&#45;&gt;:ui:collections -->
<g id="edge11" class="edge">
<title>:app&#45;&gt;:ui:collections</title>
<path fill="none" stroke="black" stroke-dasharray="1,5" d="M1036.83,-840C889.71,-840 705.99,-840 705.99,-840 705.99,-840 705.99,-731.19 705.99,-731.19"/>
<polygon fill="black" stroke="black" points="709.49,-731.19 705.99,-721.19 702.49,-731.19 709.49,-731.19"/>
</g>
<!-- :ui:history -->
<g id="node13" class="node">
<title>:ui:history</title>
<ellipse fill="#9affb5" stroke="black" cx="1477.99" cy="-703" rx="57.69" ry="18"/>
<text text-anchor="middle" x="1477.99" y="-699.3" font-family="Times,serif" font-size="14.00">:ui:history</text>
</g>
<!-- :app&#45;&gt;:ui:history -->
<g id="edge12" class="edge">
<title>:app&#45;&gt;:ui:history</title>
<path fill="none" stroke="black" stroke-dasharray="1,5" d="M1380.78,-821.93C1380.78,-786.65 1380.78,-712 1380.78,-712 1380.78,-712 1417.67,-712 1417.67,-712"/>
<polygon fill="black" stroke="black" points="1417.67,-715.5 1427.67,-712 1417.67,-708.5 1417.67,-715.5"/>
</g>
<!-- :ui:image -->
<g id="node14" class="node">
<title>:ui:image</title>
<ellipse fill="#b59aff" stroke="black" cx="2011.99" cy="-429" rx="53.89" ry="18"/>
<text text-anchor="middle" x="2011.99" y="-425.3" font-family="Times,serif" font-size="14.00">:ui:image</text>
</g>
<!-- :app&#45;&gt;:ui:image -->
<g id="edge13" class="edge">
<title>:app&#45;&gt;:ui:image</title>
<path fill="none" stroke="black" stroke-dasharray="1,5" d="M1397.12,-843C1640.63,-843 2044.78,-843 2044.78,-843 2044.78,-843 2044.78,-453.73 2044.78,-453.73"/>
<polygon fill="black" stroke="black" points="2048.28,-453.73 2044.78,-443.73 2041.28,-453.73 2048.28,-453.73"/>
</g>
<!-- :ui:nowplaying -->
<g id="node15" class="node">
<title>:ui:nowplaying</title>
<ellipse fill="#9affb5" stroke="black" cx="1944.99" cy="-703" rx="78.79" ry="18"/>
<text text-anchor="middle" x="1944.99" y="-699.3" font-family="Times,serif" font-size="14.00">:ui:nowplaying</text>
</g>
<!-- :app&#45;&gt;:ui:nowplaying -->
<g id="edge14" class="edge">
<title>:app&#45;&gt;:ui:nowplaying</title>
<path fill="none" stroke="black" stroke-dasharray="1,5" d="M1397.41,-836C1613.01,-836 1944.99,-836 1944.99,-836 1944.99,-836 1944.99,-731.21 1944.99,-731.21"/>
<polygon fill="black" stroke="black" points="1948.49,-731.21 1944.99,-721.21 1941.49,-731.21 1948.49,-731.21"/>
</g>
<!-- :ui:settings -->
<g id="node16" class="node">
<title>:ui:settings</title>
<ellipse fill="#9affb5" stroke="black" cx="1054.99" cy="-703" rx="63.09" ry="18"/>
<text text-anchor="middle" x="1054.99" y="-699.3" font-family="Times,serif" font-size="14.00">:ui:settings</text>
</g>
<!-- :app&#45;&gt;:ui:settings -->
<g id="edge15" class="edge">
<title>:app&#45;&gt;:ui:settings</title>
<path fill="none" stroke="black" stroke-dasharray="1,5" d="M1091.02,-821.81C1091.02,-821.81 1091.02,-727.9 1091.02,-727.9"/>
<polygon fill="black" stroke="black" points="1094.52,-727.9 1091.02,-717.9 1087.52,-727.9 1094.52,-727.9"/>
</g>
<!-- :ui:spotify&#45;broadcast&#45;receiver -->
<g id="node17" class="node">
<title>:ui:spotify&#45;broadcast&#45;receiver</title>
<ellipse fill="#9affb5" stroke="black" cx="1700.99" cy="-703" rx="146.77" ry="18"/>
<text text-anchor="middle" x="1700.99" y="-699.3" font-family="Times,serif" font-size="14.00">:ui:spotify&#45;broadcast&#45;receiver</text>
</g>
<!-- :app&#45;&gt;:ui:spotify&#45;broadcast&#45;receiver -->
<g id="edge16" class="edge">
<title>:app&#45;&gt;:ui:spotify&#45;broadcast&#45;receiver</title>
<path fill="none" stroke="black" stroke-dasharray="1,5" d="M1397.21,-829C1534.82,-829 1700.99,-829 1700.99,-829 1700.99,-829 1700.99,-731.05 1700.99,-731.05"/>
<polygon fill="black" stroke="black" points="1704.49,-731.05 1700.99,-721.05 1697.49,-731.05 1704.49,-731.05"/>
</g>
<!-- :ui:stats -->
<g id="node18" class="node">
<title>:ui:stats</title>
<ellipse fill="#9affb5" stroke="black" cx="2231.99" cy="-703" rx="48.19" ry="18"/>
<text text-anchor="middle" x="2231.99" y="-699.3" font-family="Times,serif" font-size="14.00">:ui:stats</text>
</g>
<!-- :app&#45;&gt;:ui:stats -->
<g id="edge17" class="edge">
<title>:app&#45;&gt;:ui:stats</title>
<path fill="none" stroke="black" stroke-dasharray="1,5" d="M1396.99,-850C1688.59,-850 2231.99,-850 2231.99,-850 2231.99,-850 2231.99,-731.03 2231.99,-731.03"/>
<polygon fill="black" stroke="black" points="2235.49,-731.03 2231.99,-721.03 2228.49,-731.03 2235.49,-731.03"/>
</g>
<!-- :test&#45;data&#45;&gt;:domain -->
<g id="edge30" class="edge">
<title>:test&#45;data&#45;&gt;:domain</title>
<path fill="none" stroke="black" stroke-dasharray="1,5" d="M522.45,-281.92C522.45,-272.21 522.45,-259 522.45,-259 522.45,-259 949.05,-259 949.05,-259 949.05,-259 949.05,-177.75 949.05,-177.75"/>
<polygon fill="black" stroke="black" points="952.55,-177.75 949.05,-167.75 945.55,-177.75 952.55,-177.75"/>
</g>
<!-- :core:models -->
<g id="node20" class="node">
<title>:core:models</title>
<ellipse fill="#b59aff" stroke="black" cx="907.99" cy="-18" rx="69.59" ry="18"/>
<text text-anchor="middle" x="907.99" y="-14.3" font-family="Times,serif" font-size="14.00">:core:models</text>
</g>
<!-- :test&#45;data&#45;&gt;:core:models -->
<g id="edge25" class="edge">
<title>:test&#45;data&#45;&gt;:core:models</title>
<path fill="none" stroke="black" stroke-dasharray="1,5" d="M467.84,-274.15C467.84,-213.64 467.84,-20 467.84,-20 467.84,-20 828.73,-20 828.73,-20"/>
<polygon fill="black" stroke="black" points="828.73,-23.5 838.73,-20 828.73,-16.5 828.73,-23.5"/>
</g>
<!-- :data:common:network -->
<g id="node21" class="node">
<title>:data:common:network</title>
<ellipse fill="#b59aff" stroke="black" cx="116.99" cy="-155" rx="116.98" ry="18"/>
<text text-anchor="middle" x="116.99" y="-151.3" font-family="Times,serif" font-size="14.00">:data:common:network</text>
</g>
<!-- :test&#45;data&#45;&gt;:data:common:network -->
<g id="edge26" class="edge">
<title>:test&#45;data&#45;&gt;:data:common:network</title>
<path fill="none" stroke="black" stroke-dasharray="1,5" d="M421.51,-295C345.32,-295 216.13,-295 216.13,-295 216.13,-295 216.13,-174.62 216.13,-174.62"/>
<polygon fill="black" stroke="black" points="219.63,-174.62 216.13,-164.62 212.63,-174.62 219.63,-174.62"/>
</g>
<!-- :data:coverart -->
<g id="node22" class="node">
<title>:data:coverart</title>
<ellipse fill="#b59aff" stroke="black" cx="727.99" cy="-155" rx="76.09" ry="18"/>
<text text-anchor="middle" x="727.99" y="-151.3" font-family="Times,serif" font-size="14.00">:data:coverart</text>
</g>
<!-- :test&#45;data&#45;&gt;:data:coverart -->
<g id="edge28" class="edge">
<title>:test&#45;data&#45;&gt;:data:coverart</title>
<path fill="none" stroke="black" stroke-dasharray="1,5" d="M513.67,-278.76C513.67,-256.99 513.67,-216 513.67,-216 513.67,-216 676.03,-216 676.03,-216 676.03,-216 676.03,-178.24 676.03,-178.24"/>
<polygon fill="black" stroke="black" points="679.53,-178.24 676.03,-168.24 672.53,-178.24 679.53,-178.24"/>
</g>
<!-- :data:spotify -->
<g id="node23" class="node">
<title>:data:spotify</title>
<ellipse fill="#b59aff" stroke="black" cx="564.99" cy="-155" rx="68.79" ry="18"/>
<text text-anchor="middle" x="564.99" y="-151.3" font-family="Times,serif" font-size="14.00">:data:spotify</text>
</g>
<!-- :test&#45;data&#45;&gt;:data:spotify -->
<g id="edge29" class="edge">
<title>:test&#45;data&#45;&gt;:data:spotify</title>
<path fill="none" stroke="black" stroke-dasharray="1,5" d="M504.88,-276.55C504.88,-276.55 504.88,-173.8 504.88,-173.8"/>
<polygon fill="black" stroke="black" points="508.38,-173.8 504.88,-163.8 501.38,-173.8 508.38,-173.8"/>
</g>
<!-- :data:musicbrainz -->
<g id="node24" class="node">
<title>:data:musicbrainz</title>
<ellipse fill="#b59aff" stroke="black" cx="345.99" cy="-155" rx="93.68" ry="18"/>
<text text-anchor="middle" x="345.99" y="-151.3" font-family="Times,serif" font-size="14.00">:data:musicbrainz</text>
</g>
<!-- :test&#45;data&#45;&gt;:data:musicbrainz -->
<g id="edge27" class="edge">
<title>:test&#45;data&#45;&gt;:data:musicbrainz</title>
<path fill="none" stroke="black" stroke-dasharray="1,5" d="M425.45,-284.63C425.45,-284.63 425.45,-174.52 425.45,-174.52"/>
<polygon fill="black" stroke="black" points="428.95,-174.52 425.45,-164.52 421.95,-174.52 428.95,-174.52"/>
</g>
<!-- :core:preferences&#45;&gt;:core:models -->
<g id="edge32" class="edge">
<title>:core:preferences&#45;&gt;:core:models</title>
<path fill="none" stroke="black" stroke-dasharray="1,5" d="M911.53,-550.48C911.53,-550.48 911.53,-46.09 911.53,-46.09"/>
<polygon fill="black" stroke="black" points="915.03,-46.09 911.53,-36.09 908.03,-46.09 915.03,-46.09"/>
</g>
<!-- :data&#45;android&#45;&gt;:test&#45;data -->
<g id="edge19" class="edge">
<title>:data&#45;android&#45;&gt;:test&#45;data</title>
<path fill="none" stroke="#ff9ab1" stroke-dasharray="1,5" d="M501.88,-417.79C501.88,-417.79 501.88,-317.93 501.88,-317.93"/>
<polygon fill="#ff9ab1" stroke="#ff9ab1" points="505.38,-317.93 501.88,-307.93 498.38,-317.93 505.38,-317.93"/>
</g>
<!-- :data -->
<g id="node19" class="node">
<title>:data</title>
<ellipse fill="#ffb59a" stroke="black" cx="583.99" cy="-292" rx="34.39" ry="18"/>
<text text-anchor="middle" x="583.99" y="-288.3" font-family="Times,serif" font-size="14.00">:data</text>
</g>
<!-- :data&#45;android&#45;&gt;:data -->
<g id="edge18" class="edge">
<title>:data&#45;android&#45;&gt;:data</title>
<path fill="none" stroke="black" d="M583.99,-411.93C583.99,-411.93 583.99,-320.16 583.99,-320.16"/>
<polygon fill="black" stroke="black" points="587.49,-320.16 583.99,-310.16 580.49,-320.16 587.49,-320.16"/>
</g>
<!-- :data:database&#45;&gt;:core:models -->
<g id="edge34" class="edge">
<title>:data:database&#45;&gt;:core:models</title>
<path fill="none" stroke="black" stroke-dasharray="1,5" d="M182.04,-281C211.47,-281 240.12,-281 240.12,-281 240.12,-281 240.12,-5 240.12,-5 240.12,-5 849.69,-5 849.69,-5"/>
<polygon fill="black" stroke="black" points="849.69,-8.5 859.69,-5 849.69,-1.5 849.69,-8.5"/>
</g>
<!-- :data:database&#45;&gt;:data:common:network -->
<g id="edge35" class="edge">
<title>:data:database&#45;&gt;:data:common:network</title>
<path fill="none" stroke="black" stroke-dasharray="1,5" d="M118.99,-273.81C118.99,-273.81 118.99,-183.27 118.99,-183.27"/>
<polygon fill="black" stroke="black" points="122.49,-183.27 118.99,-173.27 115.49,-183.27 122.49,-183.27"/>
</g>
<!-- :data:database&#45;&gt;:data:musicbrainz -->
<g id="edge36" class="edge">
<title>:data:database&#45;&gt;:data:musicbrainz</title>
<path fill="none" stroke="black" stroke-dasharray="1,5" d="M196.45,-288C231.56,-288 265.34,-288 265.34,-288 265.34,-288 265.34,-174.14 265.34,-174.14"/>
<polygon fill="black" stroke="black" points="268.84,-174.14 265.34,-164.14 261.84,-174.14 268.84,-174.14"/>
</g>
<!-- :data:repository&#45;&gt;:test&#45;data -->
<g id="edge45" class="edge">
<title>:data:repository&#45;&gt;:test&#45;data</title>
<path fill="none" stroke="#ff9ab1" stroke-dasharray="1,5" d="M304.19,-419.45C304.19,-389.92 304.19,-302 304.19,-302 304.19,-302 419.95,-302 419.95,-302"/>
<polygon fill="#ff9ab1" stroke="#ff9ab1" points="419.95,-305.5 429.95,-302 419.95,-298.5 419.95,-305.5"/>
</g>
<!-- :data:repository&#45;&gt;:data:database -->
<g id="edge41" class="edge">
<title>:data:repository&#45;&gt;:data:database</title>
<path fill="none" stroke="black" stroke-dasharray="1,5" d="M163.99,-417.79C163.99,-417.79 163.99,-317.05 163.99,-317.05"/>
<polygon fill="black" stroke="black" points="167.49,-317.05 163.99,-307.05 160.49,-317.05 167.49,-317.05"/>
</g>
<!-- :data:repository&#45;&gt;:domain -->
<g id="edge44" class="edge">
<title>:data:repository&#45;&gt;:domain</title>
<path fill="none" stroke="black" stroke-dasharray="1,5" d="M291.24,-416.06C291.24,-374.18 291.24,-245 291.24,-245 291.24,-245 942.47,-245 942.47,-245 942.47,-245 942.47,-174.29 942.47,-174.29"/>
<polygon fill="black" stroke="black" points="945.97,-174.29 942.47,-164.29 938.97,-174.29 945.97,-174.29"/>
</g>
<!-- :data:repository&#45;&gt;:core:models -->
<g id="edge40" class="edge">
<title>:data:repository&#45;&gt;:core:models</title>
<path fill="none" stroke="black" stroke-dasharray="1,5" d="M246.26,-411C246.26,-330.8 246.26,-10 246.26,-10 246.26,-10 835.44,-10 835.44,-10"/>
<polygon fill="black" stroke="black" points="835.44,-13.5 845.44,-10 835.44,-6.5 835.44,-13.5"/>
</g>
<!-- :data:repository&#45;&gt;:data:common:network -->
<g id="edge43" class="edge">
<title>:data:repository&#45;&gt;:data:common:network</title>
<path fill="none" stroke="black" stroke-dasharray="1,5" d="M207.21,-411.44C207.21,-411.44 207.21,-176.57 207.21,-176.57"/>
<polygon fill="black" stroke="black" points="210.71,-176.57 207.21,-166.57 203.71,-176.57 210.71,-176.57"/>
</g>
<!-- :data:repository&#45;&gt;:data:musicbrainz -->
<g id="edge42" class="edge">
<title>:data:repository&#45;&gt;:data:musicbrainz</title>
<path fill="none" stroke="black" stroke-dasharray="1,5" d="M278.29,-413.88C278.29,-413.88 278.29,-177.49 278.29,-177.49"/>
<polygon fill="black" stroke="black" points="281.79,-177.49 278.29,-167.49 274.79,-177.49 281.79,-177.49"/>
</g>
<!-- :domain&#45;&gt;:core:models -->
<g id="edge31" class="edge">
<title>:domain&#45;&gt;:core:models</title>
<path fill="none" stroke="black" stroke-dasharray="1,5" d="M956.71,-140.08C956.71,-140.08 956.71,-40.88 956.71,-40.88"/>
<polygon fill="black" stroke="black" points="960.21,-40.88 956.71,-30.88 953.21,-40.88 960.21,-40.88"/>
</g>
<!-- :feature:search&#45;&gt;:domain -->
<g id="edge47" class="edge">
<title>:feature:search&#45;&gt;:domain</title>
<path fill="none" stroke="black" stroke-dasharray="1,5" d="M1161.77,-689.68C1161.77,-606.67 1161.77,-164 1161.77,-164 1161.77,-164 1035.67,-164 1035.67,-164"/>
<polygon fill="black" stroke="black" points="1035.67,-160.5 1025.67,-164 1035.67,-167.5 1035.67,-160.5"/>
</g>
<!-- :feature:search&#45;&gt;:strings -->
<g id="edge48" class="edge">
<title>:feature:search&#45;&gt;:strings</title>
<path fill="none" stroke="black" stroke-dasharray="1,5" d="M1259.31,-687.48C1259.31,-687.48 1259.31,-454.01 1259.31,-454.01"/>
<polygon fill="black" stroke="black" points="1262.81,-454.01 1259.31,-444.01 1255.81,-454.01 1262.81,-454.01"/>
</g>
<!-- :feature:search&#45;&gt;:ui:common -->
<g id="edge49" class="edge">
<title>:feature:search&#45;&gt;:ui:common</title>
<path fill="none" stroke="black" stroke-dasharray="1,5" d="M1278.77,-691.28C1278.77,-659.84 1278.77,-576 1278.77,-576 1278.77,-576 1506.24,-576 1506.24,-576"/>
<polygon fill="black" stroke="black" points="1506.24,-579.5 1516.24,-576 1506.24,-572.5 1506.24,-579.5"/>
</g>
<!-- :feature:search&#45;&gt;:ui:core -->
<g id="edge50" class="edge">
<title>:feature:search&#45;&gt;:ui:core</title>
<path fill="none" stroke="black" stroke-dasharray="1,5" d="M1213.82,-684.81C1213.82,-606.01 1213.82,-298 1213.82,-298 1213.82,-298 1569.97,-298 1569.97,-298"/>
<polygon fill="black" stroke="black" points="1569.97,-301.5 1579.97,-298 1569.97,-294.5 1569.97,-301.5"/>
</g>
<!-- :feature:search&#45;&gt;:core:models -->
<g id="edge46" class="edge">
<title>:feature:search&#45;&gt;:core:models</title>
<path fill="none" stroke="black" stroke-dasharray="1,5" d="M1187.8,-685.95C1187.8,-581 1187.8,-27 1187.8,-27 1187.8,-27 978.36,-27 978.36,-27"/>
<polygon fill="black" stroke="black" points="978.36,-23.5 968.36,-27 978.36,-30.5 978.36,-23.5"/>
</g>
<!-- :ui:test:screenshot -->
<g id="node26" class="node">
<title>:ui:test:screenshot</title>
<ellipse fill="#9affb5" stroke="black" cx="1560.99" cy="-429" rx="96.68" ry="18"/>
<text text-anchor="middle" x="1560.99" y="-425.3" font-family="Times,serif" font-size="14.00">:ui:test:screenshot</text>
</g>
<!-- :feature:search&#45;&gt;:ui:test:screenshot -->
<g id="edge51" class="edge">
<title>:feature:search&#45;&gt;:ui:test:screenshot</title>
<path fill="none" stroke="#ff9ab1" stroke-dasharray="1,5" d="M1298.24,-703C1350.45,-703 1408.57,-703 1408.57,-703 1408.57,-703 1408.57,-429 1408.57,-429 1408.57,-429 1454.03,-429 1454.03,-429"/>
<polygon fill="#ff9ab1" stroke="#ff9ab1" points="1454.03,-432.5 1464.03,-429 1454.03,-425.5 1454.03,-432.5"/>
</g>
<!-- :ui:common&#45;&gt;:data&#45;android -->
<g id="edge70" class="edge">
<title>:ui:common&#45;&gt;:data&#45;android</title>
<path fill="none" stroke="orange" d="M1518.73,-555C1402.09,-555 1126.89,-555 1126.89,-555 1126.89,-555 1126.89,-438 1126.89,-438 1126.89,-438 633.1,-438 633.1,-438"/>
<polygon fill="orange" stroke="orange" points="633.1,-434.5 623.1,-438 633.1,-441.5 633.1,-434.5"/>
</g>
<!-- :ui:common&#45;&gt;:domain -->
<g id="edge71" class="edge">
<title>:ui:common&#45;&gt;:domain</title>
<path fill="none" stroke="black" stroke-dasharray="1,5" d="M1512.34,-558C1372.01,-558 1024.06,-558 1024.06,-558 1024.06,-558 1024.06,-174.96 1024.06,-174.96"/>
<polygon fill="black" stroke="black" points="1027.56,-174.96 1024.06,-164.96 1020.56,-174.96 1027.56,-174.96"/>
</g>
<!-- :ui:common&#45;&gt;:strings -->
<g id="edge72" class="edge">
<title>:ui:common&#45;&gt;:strings</title>
<path fill="none" stroke="black" stroke-dasharray="1,5" d="M1534.18,-551C1466.67,-551 1327.29,-551 1327.29,-551 1327.29,-551 1327.29,-447.39 1327.29,-447.39"/>
<polygon fill="black" stroke="black" points="1330.79,-447.39 1327.29,-437.39 1323.79,-447.39 1330.79,-447.39"/>
</g>
<!-- :ui:common&#45;&gt;:ui:core -->
<g id="edge73" class="edge">
<title>:ui:common&#45;&gt;:ui:core</title>
<path fill="none" stroke="red" d="M1614.62,-553C1637.81,-553 1661.38,-553 1661.38,-553 1661.38,-553 1661.38,-311.91 1661.38,-311.91"/>
<polygon fill="red" stroke="red" points="1664.88,-311.91 1661.38,-301.91 1657.88,-311.91 1664.88,-311.91"/>
</g>
<!-- :ui:common&#45;&gt;:ui:image -->
<g id="edge74" class="edge">
<title>:ui:common&#45;&gt;:ui:image</title>
<path fill="none" stroke="red" d="M1633.63,-563C1747.53,-563 1974.44,-563 1974.44,-563 1974.44,-563 1974.44,-452.34 1974.44,-452.34"/>
<polygon fill="red" stroke="red" points="1977.94,-452.34 1974.44,-442.34 1970.94,-452.34 1977.94,-452.34"/>
</g>
<!-- :ui:common&#45;&gt;:ui:test:screenshot -->
<g id="edge76" class="edge">
<title>:ui:common&#45;&gt;:ui:test:screenshot</title>
<path fill="none" stroke="#ff9ab1" d="M1569.99,-547.81C1569.99,-547.81 1569.99,-457.27 1569.99,-457.27"/>
<polygon fill="#ff9ab1" stroke="#ff9ab1" points="1573.49,-457.27 1569.99,-447.27 1566.49,-457.27 1573.49,-457.27"/>
</g>
<!-- :ui:test:image -->
<g id="node27" class="node">
<title>:ui:test:image</title>
<ellipse fill="#9affb5" stroke="black" cx="1788.99" cy="-429" rx="74.99" ry="18"/>
<text text-anchor="middle" x="1788.99" y="-425.3" font-family="Times,serif" font-size="14.00">:ui:test:image</text>
</g>
<!-- :ui:common&#45;&gt;:ui:test:image -->
<g id="edge75" class="edge">
<title>:ui:common&#45;&gt;:ui:test:image</title>
<path fill="none" stroke="#ff9ab1" d="M1627.66,-558C1683.18,-558 1758.79,-558 1758.79,-558 1758.79,-558 1758.79,-455.6 1758.79,-455.6"/>
<polygon fill="#ff9ab1" stroke="#ff9ab1" points="1762.29,-455.6 1758.79,-445.6 1755.29,-455.6 1762.29,-455.6"/>
</g>
<!-- :ui:collections&#45;&gt;:core:preferences -->
<g id="edge83" class="edge">
<title>:ui:collections&#45;&gt;:core:preferences</title>
<path fill="none" stroke="black" stroke-dasharray="1,5" d="M774.44,-695.63C774.44,-695.63 774.44,-579.89 774.44,-579.89"/>
<polygon fill="black" stroke="black" points="777.94,-579.89 774.44,-569.89 770.94,-579.89 777.94,-579.89"/>
</g>
<!-- :ui:collections&#45;&gt;:domain -->
<g id="edge85" class="edge">
<title>:ui:collections&#45;&gt;:domain</title>
<path fill="none" stroke="black" stroke-dasharray="1,5" d="M780.82,-703C857.23,-703 964.71,-703 964.71,-703 964.71,-703 964.71,-181.7 964.71,-181.7"/>
<polygon fill="black" stroke="black" points="968.21,-181.7 964.71,-171.7 961.21,-181.7 968.21,-181.7"/>
</g>
<!-- :ui:collections&#45;&gt;:strings -->
<g id="edge86" class="edge">
<title>:ui:collections&#45;&gt;:strings</title>
<path fill="none" stroke="black" stroke-dasharray="1,5" d="M748.27,-687.78C748.27,-629 748.27,-420 748.27,-420 748.27,-420 1236.01,-420 1236.01,-420"/>
<polygon fill="black" stroke="black" points="1236.01,-423.5 1246.01,-420 1236.01,-416.5 1236.01,-423.5"/>
</g>
<!-- :ui:collections&#45;&gt;:ui:common -->
<g id="edge87" class="edge">
<title>:ui:collections&#45;&gt;:ui:common</title>
<path fill="none" stroke="red" d="M778.64,-698.58C778.64,-679.6 778.64,-606 778.64,-606 778.64,-606 1511.68,-606 1511.68,-606 1511.68,-606 1511.68,-583.71 1511.68,-583.71"/>
<polygon fill="red" stroke="red" points="1515.18,-583.71 1511.68,-573.71 1508.18,-583.71 1515.18,-583.71"/>
</g>
<!-- :ui:collections&#45;&gt;:ui:core -->
<g id="edge88" class="edge">
<title>:ui:collections&#45;&gt;:ui:core</title>
<path fill="none" stroke="red" d="M724.19,-685.35C724.19,-605.98 724.19,-286 724.19,-286 724.19,-286 1569.94,-286 1569.94,-286"/>
<polygon fill="red" stroke="red" points="1569.94,-289.5 1579.94,-286 1569.94,-282.5 1569.94,-289.5"/>
</g>
<!-- :ui:collections&#45;&gt;:core:models -->
<g id="edge82" class="edge">
<title>:ui:collections&#45;&gt;:core:models</title>
<path fill="none" stroke="black" stroke-dasharray="1,5" d="M642.91,-693.23C642.91,-610.47 642.91,-30 642.91,-30 642.91,-30 845.94,-30 845.94,-30"/>
<polygon fill="black" stroke="black" points="845.94,-33.5 855.94,-30 845.94,-26.5 845.94,-33.5"/>
</g>
<!-- :ui:collections&#45;&gt;:data:musicbrainz -->
<g id="edge84" class="edge">
<title>:ui:collections&#45;&gt;:data:musicbrainz</title>
<path fill="none" stroke="orange" d="M631.19,-703C531.89,-703 368.94,-703 368.94,-703 368.94,-703 368.94,-182.61 368.94,-182.61"/>
<polygon fill="orange" stroke="orange" points="372.44,-182.61 368.94,-172.61 365.44,-182.61 372.44,-182.61"/>
</g>
<!-- :ui:collections&#45;&gt;:ui:test:screenshot -->
<g id="edge89" class="edge">
<title>:ui:collections&#45;&gt;:ui:test:screenshot</title>
<path fill="none" stroke="#ff9ab1" d="M776.54,-696.88C776.54,-674.04 776.54,-595 776.54,-595 776.54,-595 1484.9,-595 1484.9,-595 1484.9,-595 1484.9,-450.15 1484.9,-450.15"/>
<polygon fill="#ff9ab1" stroke="#ff9ab1" points="1488.4,-450.15 1484.9,-440.15 1481.4,-450.15 1488.4,-450.15"/>
</g>
<!-- :ui:history&#45;&gt;:core:preferences -->
<g id="edge96" class="edge">
<title>:ui:history&#45;&gt;:core:preferences</title>
<path fill="none" stroke="black" stroke-dasharray="1,5" d="M1428.95,-693.31C1428.95,-661.45 1428.95,-562 1428.95,-562 1428.95,-562 963.51,-562 963.51,-562"/>
<polygon fill="black" stroke="black" points="963.51,-558.5 953.51,-562 963.51,-565.5 963.51,-558.5"/>
</g>
<!-- :ui:history&#45;&gt;:domain -->
<g id="edge97" class="edge">
<title>:ui:history&#45;&gt;:domain</title>
<path fill="none" stroke="black" stroke-dasharray="1,5" d="M1437.75,-689.99C1437.75,-607.01 1437.75,-155 1437.75,-155 1437.75,-155 1042.12,-155 1042.12,-155"/>
<polygon fill="black" stroke="black" points="1042.12,-151.5 1032.12,-155 1042.12,-158.5 1042.12,-151.5"/>
</g>
<!-- :ui:history&#45;&gt;:strings -->
<g id="edge98" class="edge">
<title>:ui:history&#45;&gt;:strings</title>
<path fill="none" stroke="black" stroke-dasharray="1,5" d="M1427.88,-694C1377.72,-694 1307.92,-694 1307.92,-694 1307.92,-694 1307.92,-455.18 1307.92,-455.18"/>
<polygon fill="black" stroke="black" points="1311.42,-455.18 1307.92,-445.18 1304.42,-455.18 1311.42,-455.18"/>
</g>
<!-- :ui:history&#45;&gt;:ui:common -->
<g id="edge99" class="edge">
<title>:ui:history&#45;&gt;:ui:common</title>
<path fill="none" stroke="red" d="M1517.72,-689.86C1517.72,-689.86 1517.72,-586.6 1517.72,-586.6"/>
<polygon fill="red" stroke="red" points="1521.22,-586.6 1517.72,-576.6 1514.22,-586.6 1521.22,-586.6"/>
</g>
<!-- :ui:history&#45;&gt;:ui:core -->
<g id="edge100" class="edge">
<title>:ui:history&#45;&gt;:ui:core</title>
<path fill="none" stroke="red" d="M1455.35,-685.94C1455.35,-609.95 1455.35,-306 1455.35,-306 1455.35,-306 1584.17,-306 1584.17,-306"/>
<polygon fill="red" stroke="red" points="1584.17,-309.5 1594.17,-306 1584.17,-302.5 1584.17,-309.5"/>
</g>
<!-- :ui:history&#45;&gt;:ui:image -->
<g id="edge101" class="edge">
<title>:ui:history&#45;&gt;:ui:image</title>
<path fill="none" stroke="red" d="M1529.8,-694.8C1529.8,-685.92 1529.8,-673 1529.8,-673 1529.8,-673 1990.84,-673 1990.84,-673 1990.84,-673 1990.84,-455.77 1990.84,-455.77"/>
<polygon fill="red" stroke="red" points="1994.34,-455.77 1990.84,-445.77 1987.34,-455.77 1994.34,-455.77"/>
</g>
<!-- :ui:history&#45;&gt;:core:models -->
<g id="edge95" class="edge">
<title>:ui:history&#45;&gt;:core:models</title>
<path fill="none" stroke="black" stroke-dasharray="1,5" d="M1446.55,-687.82C1446.55,-587.34 1446.55,-22 1446.55,-22 1446.55,-22 985.93,-22 985.93,-22"/>
<polygon fill="black" stroke="black" points="985.93,-18.5 975.93,-22 985.93,-25.5 985.93,-18.5"/>
</g>
<!-- :ui:history&#45;&gt;:ui:test:screenshot -->
<g id="edge103" class="edge">
<title>:ui:history&#45;&gt;:ui:test:screenshot</title>
<path fill="none" stroke="#ff9ab1" d="M1495.27,-685.44C1495.27,-685.44 1495.27,-452.4 1495.27,-452.4"/>
<polygon fill="#ff9ab1" stroke="#ff9ab1" points="1498.77,-452.4 1495.27,-442.4 1491.77,-452.4 1498.77,-452.4"/>
</g>
<!-- :ui:history&#45;&gt;:ui:test:image -->
<g id="edge102" class="edge">
<title>:ui:history&#45;&gt;:ui:test:image</title>
<path fill="none" stroke="#ff9ab1" d="M1523.76,-691.76C1523.76,-668.45 1523.76,-617 1523.76,-617 1523.76,-617 1803.33,-617 1803.33,-617 1803.33,-617 1803.33,-456.69 1803.33,-456.69"/>
<polygon fill="#ff9ab1" stroke="#ff9ab1" points="1806.83,-456.69 1803.33,-446.69 1799.83,-456.69 1806.83,-456.69"/>
</g>
<!-- :ui:image&#45;&gt;:ui:core -->
<g id="edge53" class="edge">
<title>:ui:image&#45;&gt;:ui:core</title>
<path fill="none" stroke="red" d="M1994.01,-411.93C1994.01,-375.2 1994.01,-292 1994.01,-292 1994.01,-292 1678.86,-292 1678.86,-292"/>
<polygon fill="red" stroke="red" points="1678.86,-288.5 1668.86,-292 1678.86,-295.5 1678.86,-288.5"/>
</g>
<!-- :ui:image&#45;&gt;:core:models -->
<g id="edge52" class="edge">
<title>:ui:image&#45;&gt;:core:models</title>
<path fill="none" stroke="black" stroke-dasharray="1,5" d="M2029.97,-412.02C2029.97,-333.44 2029.97,-9 2029.97,-9 2029.97,-9 978.31,-9 978.31,-9"/>
<polygon fill="black" stroke="black" points="978.31,-5.5 968.31,-9 978.31,-12.5 978.31,-5.5"/>
</g>
<!-- :ui:nowplaying&#45;&gt;:domain -->
<g id="edge63" class="edge">
<title>:ui:nowplaying&#45;&gt;:domain</title>
<path fill="none" stroke="black" stroke-dasharray="1,5" d="M1931.85,-685.1C1931.85,-589.76 1931.85,-146 1931.85,-146 1931.85,-146 1035.94,-146 1035.94,-146"/>
<polygon fill="black" stroke="black" points="1035.94,-142.5 1025.94,-146 1035.94,-149.5 1035.94,-142.5"/>
</g>
<!-- :ui:nowplaying&#45;&gt;:strings -->
<g id="edge64" class="edge">
<title>:ui:nowplaying&#45;&gt;:strings</title>
<path fill="none" stroke="black" stroke-dasharray="1,5" d="M1879.45,-692.97C1879.45,-677.86 1879.45,-651 1879.45,-651 1879.45,-651 1317.61,-651 1317.61,-651 1317.61,-651 1317.61,-452.22 1317.61,-452.22"/>
<polygon fill="black" stroke="black" points="1321.11,-452.22 1317.61,-442.22 1314.11,-452.22 1321.11,-452.22"/>
</g>
<!-- :ui:nowplaying&#45;&gt;:ui:common -->
<g id="edge65" class="edge">
<title>:ui:nowplaying&#45;&gt;:ui:common</title>
<path fill="none" stroke="red" d="M1892.55,-689.15C1892.55,-656.6 1892.55,-578 1892.55,-578 1892.55,-578 1628.28,-578 1628.28,-578"/>
<polygon fill="red" stroke="red" points="1628.28,-574.5 1618.28,-578 1628.28,-581.5 1628.28,-574.5"/>
</g>
<!-- :ui:nowplaying&#45;&gt;:ui:core -->
<g id="edge66" class="edge">
<title>:ui:nowplaying&#45;&gt;:ui:core</title>
<path fill="none" stroke="red" d="M1918.75,-685.98C1918.75,-609.47 1918.75,-301 1918.75,-301 1918.75,-301 1672.57,-301 1672.57,-301"/>
<polygon fill="red" stroke="red" points="1672.57,-297.5 1662.57,-301 1672.57,-304.5 1672.57,-297.5"/>
</g>
<!-- :ui:nowplaying&#45;&gt;:ui:image -->
<g id="edge67" class="edge">
<title>:ui:nowplaying&#45;&gt;:ui:image</title>
<path fill="none" stroke="red" d="M2007.24,-691.92C2007.24,-691.92 2007.24,-456.97 2007.24,-456.97"/>
<polygon fill="red" stroke="red" points="2010.74,-456.97 2007.24,-446.97 2003.74,-456.97 2010.74,-456.97"/>
</g>
<!-- :ui:nowplaying&#45;&gt;:core:models -->
<g id="edge62" class="edge">
<title>:ui:nowplaying&#45;&gt;:core:models</title>
<path fill="none" stroke="black" stroke-dasharray="1,5" d="M1944.94,-684.9C1944.94,-576.03 1944.94,-13 1944.94,-13 1944.94,-13 984.83,-13 984.83,-13"/>
<polygon fill="black" stroke="black" points="984.83,-9.5 974.83,-13 984.83,-16.5 984.83,-9.5"/>
</g>
<!-- :ui:nowplaying&#45;&gt;:ui:test:screenshot -->
<g id="edge69" class="edge">
<title>:ui:nowplaying&#45;&gt;:ui:test:screenshot</title>
<path fill="none" stroke="#ff9ab1" d="M1905.65,-687.25C1905.65,-651.64 1905.65,-568 1905.65,-568 1905.65,-568 1651.96,-568 1651.96,-568 1651.96,-568 1651.96,-445.33 1651.96,-445.33"/>
<polygon fill="#ff9ab1" stroke="#ff9ab1" points="1655.46,-445.33 1651.96,-435.33 1648.46,-445.33 1655.46,-445.33"/>
</g>
<!-- :ui:nowplaying&#45;&gt;:ui:test:image -->
<g id="edge68" class="edge">
<title>:ui:nowplaying&#45;&gt;:ui:test:image</title>
<path fill="none" stroke="#ff9ab1" d="M1866.04,-703C1859.77,-703 1855.8,-703 1855.8,-703 1855.8,-703 1855.8,-447.2 1855.8,-447.2"/>
<polygon fill="#ff9ab1" stroke="#ff9ab1" points="1859.3,-447.2 1855.8,-437.2 1852.3,-447.2 1859.3,-447.2"/>
</g>
<!-- :ui:settings&#45;&gt;:core:preferences -->
<g id="edge55" class="edge">
<title>:ui:settings&#45;&gt;:core:preferences</title>
<path fill="none" stroke="black" stroke-dasharray="1,5" d="M999.97,-694.01C999.97,-663.53 999.97,-566 999.97,-566 999.97,-566 965.82,-566 965.82,-566"/>
<polygon fill="black" stroke="black" points="965.82,-562.5 955.82,-566 965.82,-569.5 965.82,-562.5"/>
</g>
<!-- :ui:settings&#45;&gt;:domain -->
<g id="edge57" class="edge">
<title>:ui:settings&#45;&gt;:domain</title>
<path fill="none" stroke="black" stroke-dasharray="1,5" d="M1016.03,-688.62C1016.03,-688.62 1016.03,-178.48 1016.03,-178.48"/>
<polygon fill="black" stroke="black" points="1019.53,-178.48 1016.03,-168.48 1012.53,-178.48 1019.53,-178.48"/>
</g>
<!-- :ui:settings&#45;&gt;:strings -->
<g id="edge58" class="edge">
<title>:ui:settings&#45;&gt;:strings</title>
<path fill="none" stroke="black" stroke-dasharray="1,5" d="M1075.06,-685.86C1075.06,-625.87 1075.06,-429 1075.06,-429 1075.06,-429 1229.7,-429 1229.7,-429"/>
<polygon fill="black" stroke="black" points="1229.7,-432.5 1239.7,-429 1229.7,-425.5 1229.7,-432.5"/>
</g>
<!-- :ui:settings&#45;&gt;:ui:common -->
<g id="edge59" class="edge">
<title>:ui:settings&#45;&gt;:ui:common</title>
<path fill="none" stroke="red" d="M1103.71,-691.46C1103.71,-659.65 1103.71,-573 1103.71,-573 1103.71,-573 1500.46,-573 1500.46,-573"/>
<polygon fill="red" stroke="red" points="1500.46,-576.5 1510.46,-573 1500.46,-569.5 1500.46,-576.5"/>
</g>
<!-- :ui:settings&#45;&gt;:ui:core -->
<g id="edge60" class="edge">
<title>:ui:settings&#45;&gt;:ui:core</title>
<path fill="none" stroke="red" d="M1060.73,-684.9C1060.73,-605.74 1060.73,-294 1060.73,-294 1060.73,-294 1567.45,-294 1567.45,-294"/>
<polygon fill="red" stroke="red" points="1567.45,-297.5 1577.45,-294 1567.45,-290.5 1567.45,-297.5"/>
</g>
<!-- :ui:settings&#45;&gt;:core:models -->
<g id="edge54" class="edge">
<title>:ui:settings&#45;&gt;:core:models</title>
<path fill="none" stroke="black" stroke-dasharray="1,5" d="M1046.41,-685.03C1046.41,-578.16 1046.41,-31 1046.41,-31 1046.41,-31 966.4,-31 966.4,-31"/>
<polygon fill="black" stroke="black" points="966.4,-27.5 956.4,-31 966.4,-34.5 966.4,-27.5"/>
</g>
<!-- :ui:settings&#45;&gt;:data:musicbrainz -->
<g id="edge56" class="edge">
<title>:ui:settings&#45;&gt;:data:musicbrainz</title>
<path fill="none" stroke="orange" d="M1008,-690.75C1008,-612.61 1008,-187 1008,-187 1008,-187 434.87,-187 434.87,-187 434.87,-187 434.87,-170.87 434.87,-170.87"/>
<polygon fill="orange" stroke="orange" points="438.37,-170.87 434.87,-160.87 431.37,-170.87 438.37,-170.87"/>
</g>
<!-- :ui:settings&#45;&gt;:ui:test:screenshot -->
<g id="edge61" class="edge">
<title>:ui:settings&#45;&gt;:ui:test:screenshot</title>
<path fill="none" stroke="#ff9ab1" d="M1089.38,-687.89C1089.38,-652.84 1089.38,-569 1089.38,-569 1089.38,-569 1474.52,-569 1474.52,-569 1474.52,-569 1474.52,-447.34 1474.52,-447.34"/>
<polygon fill="#ff9ab1" stroke="#ff9ab1" points="1478.02,-447.34 1474.52,-437.34 1471.02,-447.34 1478.02,-447.34"/>
</g>
<!-- :ui:spotify&#45;broadcast&#45;receiver&#45;&gt;:strings -->
<g id="edge80" class="edge">
<title>:ui:spotify&#45;broadcast&#45;receiver&#45;&gt;:strings</title>
<path fill="none" stroke="black" stroke-dasharray="1,5" d="M1580.85,-692.23C1580.85,-680.08 1580.85,-662 1580.85,-662 1580.85,-662 1312.76,-662 1312.76,-662 1312.76,-662 1312.76,-453.93 1312.76,-453.93"/>
<polygon fill="black" stroke="black" points="1316.26,-453.93 1312.76,-443.93 1309.26,-453.93 1316.26,-453.93"/>
</g>
<!-- :ui:spotify&#45;broadcast&#45;receiver&#45;&gt;:ui:common -->
<g id="edge79" class="edge">
<title>:ui:spotify&#45;broadcast&#45;receiver&#45;&gt;:ui:common</title>
<path fill="none" stroke="red" d="M1607.59,-688.85C1607.59,-688.85 1607.59,-590.69 1607.59,-590.69"/>
<polygon fill="red" stroke="red" points="1611.09,-590.69 1607.59,-580.69 1604.09,-590.69 1611.09,-590.69"/>
</g>
<!-- :ui:spotify&#45;broadcast&#45;receiver&#45;&gt;:ui:core -->
<g id="edge78" class="edge">
<title>:ui:spotify&#45;broadcast&#45;receiver&#45;&gt;:ui:core</title>
<path fill="none" stroke="red" d="M1664.93,-685.34C1664.93,-685.34 1664.93,-309.22 1664.93,-309.22"/>
<polygon fill="red" stroke="red" points="1668.43,-309.22 1664.93,-299.22 1661.43,-309.22 1668.43,-309.22"/>
</g>
<!-- :ui:spotify&#45;broadcast&#45;receiver&#45;&gt;:core:models -->
<g id="edge77" class="edge">
<title>:ui:spotify&#45;broadcast&#45;receiver&#45;&gt;:core:models</title>
<path fill="none" stroke="black" stroke-dasharray="1,5" d="M1691.37,-685.03C1691.37,-576.95 1691.37,-18 1691.37,-18 1691.37,-18 987.85,-18 987.85,-18"/>
<polygon fill="black" stroke="black" points="987.85,-14.5 977.85,-18 987.85,-21.5 987.85,-14.5"/>
</g>
<!-- :ui:spotify&#45;broadcast&#45;receiver&#45;&gt;:ui:test:screenshot -->
<g id="edge81" class="edge">
<title>:ui:spotify&#45;broadcast&#45;receiver&#45;&gt;:ui:test:screenshot</title>
<path fill="none" stroke="#ff9ab1" d="M1640.21,-686.27C1640.21,-686.27 1640.21,-449.51 1640.21,-449.51"/>
<polygon fill="#ff9ab1" stroke="#ff9ab1" points="1643.71,-449.51 1640.21,-439.51 1636.71,-449.51 1643.71,-449.51"/>
</g>
<!-- :ui:stats&#45;&gt;:strings -->
<g id="edge93" class="edge">
<title>:ui:stats&#45;&gt;:strings</title>
<path fill="none" stroke="black" stroke-dasharray="1,5" d="M2199.93,-689.33C2199.93,-670.8 2199.93,-640 2199.93,-640 2199.93,-640 1322.45,-640 1322.45,-640 1322.45,-640 1322.45,-450.05 1322.45,-450.05"/>
<polygon fill="black" stroke="black" points="1325.95,-450.05 1322.45,-440.05 1318.95,-450.05 1325.95,-450.05"/>
</g>
<!-- :ui:stats&#45;&gt;:ui:common -->
<g id="edge91" class="edge">
<title>:ui:stats&#45;&gt;:ui:common</title>
<path fill="none" stroke="red" d="M2231.99,-684.92C2231.99,-649.2 2231.99,-573 2231.99,-573 2231.99,-573 1639.32,-573 1639.32,-573"/>
<polygon fill="red" stroke="red" points="1639.32,-569.5 1629.32,-573 1639.32,-576.5 1639.32,-569.5"/>
</g>
<!-- :ui:stats&#45;&gt;:ui:core -->
<g id="edge92" class="edge">
<title>:ui:stats&#45;&gt;:ui:core</title>
<path fill="none" stroke="red" d="M2248.02,-686.02C2248.02,-607.44 2248.02,-283 2248.02,-283 2248.02,-283 1672.56,-283 1672.56,-283"/>
<polygon fill="red" stroke="red" points="1672.56,-279.5 1662.56,-283 1672.56,-286.5 1672.56,-279.5"/>
</g>
<!-- :ui:stats&#45;&gt;:core:models -->
<g id="edge90" class="edge">
<title>:ui:stats&#45;&gt;:core:models</title>
<path fill="none" stroke="black" stroke-dasharray="1,5" d="M2264.05,-689.35C2264.05,-591.77 2264.05,-4 2264.05,-4 2264.05,-4 961.95,-4 961.95,-4"/>
<polygon fill="black" stroke="black" points="961.95,-0.5 951.95,-4 961.95,-7.5 961.95,-0.5"/>
</g>
<!-- :ui:stats&#45;&gt;:ui:test:screenshot -->
<g id="edge94" class="edge">
<title>:ui:stats&#45;&gt;:ui:test:screenshot</title>
<path fill="none" stroke="#ff9ab1" d="M2215.96,-685.98C2215.96,-663.85 2215.96,-628 2215.96,-628 2215.96,-628 1646.08,-628 1646.08,-628 1646.08,-628 1646.08,-447.81 1646.08,-447.81"/>
<polygon fill="#ff9ab1" stroke="#ff9ab1" points="1649.58,-447.81 1646.08,-437.81 1642.58,-447.81 1649.58,-447.81"/>
</g>
<!-- :data&#45;&gt;:core:models -->
<g id="edge20" class="edge">
<title>:data&#45;&gt;:core:models</title>
<path fill="none" stroke="black" d="M612.79,-282C688.46,-282 887.17,-282 887.17,-282 887.17,-282 887.17,-45.32 887.17,-45.32"/>
<polygon fill="black" stroke="black" points="890.67,-45.32 887.17,-35.32 883.67,-45.32 890.67,-45.32"/>
</g>
<!-- :data&#45;&gt;:data:common:network -->
<g id="edge21" class="edge">
<title>:data&#45;&gt;:data:common:network</title>
<path fill="none" stroke="black" d="M566.77,-276.35C566.77,-257.99 566.77,-230 566.77,-230 566.77,-230 225.06,-230 225.06,-230 225.06,-230 225.06,-171.92 225.06,-171.92"/>
<polygon fill="black" stroke="black" points="228.56,-171.92 225.06,-161.92 221.56,-171.92 228.56,-171.92"/>
</g>
<!-- :data&#45;&gt;:data:coverart -->
<g id="edge22" class="edge">
<title>:data&#45;&gt;:data:coverart</title>
<path fill="none" stroke="black" d="M605.83,-278C639.47,-278 700.11,-278 700.11,-278 700.11,-278 700.11,-181.84 700.11,-181.84"/>
<polygon fill="black" stroke="black" points="703.61,-181.84 700.11,-171.84 696.61,-181.84 703.61,-181.84"/>
</g>
<!-- :data&#45;&gt;:data:spotify -->
<g id="edge23" class="edge">
<title>:data&#45;&gt;:data:spotify</title>
<path fill="none" stroke="black" d="M601.21,-276.28C601.21,-276.28 601.21,-180.53 601.21,-180.53"/>
<polygon fill="black" stroke="black" points="604.71,-180.53 601.21,-170.53 597.71,-180.53 604.71,-180.53"/>
</g>
<!-- :data&#45;&gt;:data:musicbrainz -->
<g id="edge24" class="edge">
<title>:data&#45;&gt;:data:musicbrainz</title>
<path fill="none" stroke="black" d="M583.99,-273.58C583.99,-246.99 583.99,-201 583.99,-201 583.99,-201 430.16,-201 430.16,-201 430.16,-201 430.16,-173.01 430.16,-173.01"/>
<polygon fill="black" stroke="black" points="433.66,-173.01 430.16,-163.01 426.66,-173.01 433.66,-173.01"/>
</g>
<!-- :data:coverart&#45;&gt;:core:models -->
<g id="edge37" class="edge">
<title>:data:coverart&#45;&gt;:core:models</title>
<path fill="none" stroke="black" stroke-dasharray="1,5" d="M804.07,-155C834.65,-155 862.81,-155 862.81,-155 862.81,-155 862.81,-41.89 862.81,-41.89"/>
<polygon fill="black" stroke="black" points="866.31,-41.89 862.81,-31.89 859.31,-41.89 866.31,-41.89"/>
</g>
<!-- :data:spotify&#45;&gt;:core:models -->
<g id="edge38" class="edge">
<title>:data:spotify&#45;&gt;:core:models</title>
<path fill="none" stroke="black" stroke-dasharray="1,5" d="M564.99,-136.92C564.99,-101.2 564.99,-25 564.99,-25 564.99,-25 833.88,-25 833.88,-25"/>
<polygon fill="black" stroke="black" points="833.88,-28.5 843.88,-25 833.88,-21.5 833.88,-28.5"/>
</g>
<!-- :data:musicbrainz&#45;&gt;:core:models -->
<g id="edge39" class="edge">
<title>:data:musicbrainz&#45;&gt;:core:models</title>
<path fill="none" stroke="black" stroke-dasharray="1,5" d="M345.99,-136.98C345.99,-99.17 345.99,-15 345.99,-15 345.99,-15 829.36,-15 829.36,-15"/>
<polygon fill="black" stroke="black" points="829.36,-18.5 839.36,-15 829.36,-11.5 829.36,-18.5"/>
</g>
<!-- :desktop:app -->
<g id="node25" class="node">
<title>:desktop:app</title>
<polygon fill="#ffb59a" stroke="black" points="505.99,-858 145.99,-858 145.99,-822 505.99,-822 505.99,-858"/>
<text text-anchor="middle" x="325.99" y="-836.3" font-family="Times,serif" font-size="14.00">:desktop:app</text>
</g>
<!-- :desktop:app&#45;&gt;:ui:core -->
<g id="edge33" class="edge">
<title>:desktop:app&#45;&gt;:ui:core</title>
<path fill="none" stroke="black" stroke-dasharray="1,5" d="M506.35,-846C700.81,-846 982.87,-846 982.87,-846 982.87,-846 982.87,-290 982.87,-290 982.87,-290 1567.72,-290 1567.72,-290"/>
<polygon fill="black" stroke="black" points="1567.72,-293.5 1577.72,-290 1567.72,-286.5 1567.72,-293.5"/>
</g>
<!-- :ui:test:screenshot&#45;&gt;:ui:core -->
<g id="edge104" class="edge">
<title>:ui:test:screenshot&#45;&gt;:ui:core</title>
<path fill="none" stroke="red" d="M1617.66,-414.34C1617.66,-414.34 1617.66,-320.01 1617.66,-320.01"/>
<polygon fill="red" stroke="red" points="1621.16,-320.01 1617.66,-310.01 1614.16,-320.01 1621.16,-320.01"/>
</g>
</g>
</svg>
