<?xml version="1.0" encoding="UTF-8" standalone="no"?>
<!DOCTYPE svg PUBLIC "-//W3C//DTD SVG 1.1//EN"
 "http://www.w3.org/Graphics/SVG/1.1/DTD/svg11.dtd">
<!-- Generated by graphviz version 8.1.0 (20230707.0739)
 -->
<!-- Title: modules Pages: 1 -->
<svg width="1464pt" height="624pt"
 viewBox="0.00 0.00 1463.54 624.25" xmlns="http://www.w3.org/2000/svg" xmlns:xlink="http://www.w3.org/1999/xlink">
<g id="graph0" class="graph" transform="scale(1 1) rotate(0) translate(4 620.25)">
<title>modules</title>
<polygon fill="white" stroke="none" points="-4,4 -4,-620.25 1459.54,-620.25 1459.54,4 -4,4"/>
<text text-anchor="middle" x="727.77" y="-6.45" font-family="Times New Roman,serif" font-size="14.00">Module dependencies</text>
<g id="clust1" class="cluster">
<title>cluster_01</title>
<polygon fill="none" stroke="black" points="1263.54,-453.75 1263.54,-608.25 1447.54,-608.25 1447.54,-453.75 1263.54,-453.75"/>
<text text-anchor="middle" x="1355.54" y="-594.75" font-family="Times New Roman,serif" font-size="10.00">Legend</text>
</g>
<!-- app -->
<g id="node1" class="node">
<title>app</title>
<ellipse fill="none" stroke="black" cx="606.54" cy="-563" rx="27" ry="18"/>
<text text-anchor="middle" x="606.54" y="-557.58" font-family="Times New Roman,serif" font-size="14.00">app</text>
</g>
<!-- data&#45;android -->
<g id="node2" class="node">
<title>data&#45;android</title>
<ellipse fill="none" stroke="black" cx="438.54" cy="-260.75" rx="57.55" ry="18"/>
<text text-anchor="middle" x="438.54" y="-255.32" font-family="Times New Roman,serif" font-size="14.00">data&#45;android</text>
</g>
<!-- app&#45;&gt;data&#45;android -->
<g id="edge1" class="edge">
<title>app&#45;&gt;data&#45;android</title>
<path fill="none" stroke="black" d="M580.43,-557.58C525.35,-546.64 398.47,-512.54 351.54,-424.75 324.95,-374.99 375.98,-316.66 410.51,-285.02"/>
<polygon fill="black" stroke="black" points="412.31,-288.21 417.45,-278.95 407.66,-282.99 412.31,-288.21"/>
</g>
<!-- data:database -->
<g id="node3" class="node">
<title>data:database</title>
<ellipse fill="none" stroke="black" cx="60.54" cy="-41.75" rx="60.54" ry="18"/>
<text text-anchor="middle" x="60.54" y="-36.33" font-family="Times New Roman,serif" font-size="14.00">data:database</text>
</g>
<!-- app&#45;&gt;data:database -->
<g id="edge2" class="edge">
<title>app&#45;&gt;data:database</title>
<path fill="none" stroke="black" d="M579.47,-560.86C469.3,-555.88 60.54,-533.82 60.54,-480.75 60.54,-480.75 60.54,-480.75 60.54,-113.75 60.54,-99.54 60.54,-83.74 60.54,-70.66"/>
<polygon fill="black" stroke="black" points="64.04,-70.97 60.54,-60.97 57.04,-70.97 64.04,-70.97"/>
</g>
<!-- ui:common -->
<g id="node4" class="node">
<title>ui:common</title>
<ellipse fill="none" stroke="black" cx="521.54" cy="-333.75" rx="52.06" ry="18"/>
<text text-anchor="middle" x="521.54" y="-328.32" font-family="Times New Roman,serif" font-size="14.00">ui:common</text>
</g>
<!-- app&#45;&gt;ui:common -->
<g id="edge3" class="edge">
<title>app&#45;&gt;ui:common</title>
<path fill="none" stroke="black" d="M599.23,-545.26C588.12,-519.56 566.59,-468.76 550.54,-424.75 543,-404.06 535.4,-380.34 529.87,-362.44"/>
<polygon fill="black" stroke="black" points="532.99,-361.67 526.72,-353.14 526.3,-363.72 532.99,-361.67"/>
</g>
<!-- ui:core -->
<g id="node5" class="node">
<title>ui:core</title>
<ellipse fill="none" stroke="black" cx="816.54" cy="-187.75" rx="35.6" ry="18"/>
<text text-anchor="middle" x="816.54" y="-182.32" font-family="Times New Roman,serif" font-size="14.00">ui:core</text>
</g>
<!-- app&#45;&gt;ui:core -->
<g id="edge4" class="edge">
<title>app&#45;&gt;ui:core</title>
<path fill="none" stroke="black" d="M633.91,-562.07C705.81,-561.8 905.78,-558.07 1068.54,-527 1125.5,-516.13 1190.54,-538.74 1190.54,-480.75 1190.54,-480.75 1190.54,-480.75 1190.54,-259.75 1190.54,-193.82 963.37,-187.53 863.13,-187.97"/>
<polygon fill="black" stroke="black" points="863.38,-184.47 853.41,-188.04 863.43,-191.47 863.38,-184.47"/>
</g>
<!-- ui:collections -->
<g id="node6" class="node">
<title>ui:collections</title>
<ellipse fill="none" stroke="black" cx="265.54" cy="-479.75" rx="59.05" ry="18"/>
<text text-anchor="middle" x="265.54" y="-474.32" font-family="Times New Roman,serif" font-size="14.00">ui:collections</text>
</g>
<!-- app&#45;&gt;ui:collections -->
<g id="edge5" class="edge">
<title>app&#45;&gt;ui:collections</title>
<path fill="none" stroke="black" d="M579.4,-562.27C529.96,-561.95 422.6,-557.42 338.54,-527 322.99,-521.37 307.3,-512.01 294.47,-503.18"/>
<polygon fill="black" stroke="black" points="296.85,-499.87 286.67,-496.91 292.78,-505.56 296.85,-499.87"/>
</g>
<!-- ui:history -->
<g id="node7" class="node">
<title>ui:history</title>
<ellipse fill="none" stroke="black" cx="680.54" cy="-479.75" rx="44.58" ry="18"/>
<text text-anchor="middle" x="680.54" y="-474.32" font-family="Times New Roman,serif" font-size="14.00">ui:history</text>
</g>
<!-- app&#45;&gt;ui:history -->
<g id="edge6" class="edge">
<title>app&#45;&gt;ui:history</title>
<path fill="none" stroke="black" d="M620.12,-547.1C630.83,-535.34 645.99,-518.69 658.45,-505.01"/>
<polygon fill="black" stroke="black" points="660.64,-507.7 664.79,-497.95 655.47,-502.99 660.64,-507.7"/>
</g>
<!-- ui:image -->
<g id="node8" class="node">
<title>ui:image</title>
<ellipse fill="none" stroke="black" cx="1121.54" cy="-260.75" rx="40.58" ry="18"/>
<text text-anchor="middle" x="1121.54" y="-255.32" font-family="Times New Roman,serif" font-size="14.00">ui:image</text>
</g>
<!-- app&#45;&gt;ui:image -->
<g id="edge7" class="edge">
<title>app&#45;&gt;ui:image</title>
<path fill="none" stroke="black" d="M633.62,-560.86C743.79,-555.88 1152.54,-533.82 1152.54,-480.75 1152.54,-480.75 1152.54,-480.75 1152.54,-332.75 1152.54,-316.89 1145.97,-300.57 1138.87,-287.59"/>
<polygon fill="black" stroke="black" points="1141.53,-286.21 1133.44,-279.37 1135.5,-289.76 1141.53,-286.21"/>
</g>
<!-- ui:nowplaying -->
<g id="node9" class="node">
<title>ui:nowplaying</title>
<ellipse fill="none" stroke="black" cx="817.54" cy="-406.75" rx="61.54" ry="18"/>
<text text-anchor="middle" x="817.54" y="-401.32" font-family="Times New Roman,serif" font-size="14.00">ui:nowplaying</text>
</g>
<!-- app&#45;&gt;ui:nowplaying -->
<g id="edge8" class="edge">
<title>app&#45;&gt;ui:nowplaying</title>
<path fill="none" stroke="black" d="M629.69,-553.35C656.48,-542.7 701.18,-522.88 734.54,-497.75 759.28,-479.12 782.74,-452.55 798.37,-433.1"/>
<polygon fill="black" stroke="black" points="801.53,-435.75 804.98,-425.73 796.04,-431.41 801.53,-435.75"/>
</g>
<!-- ui:settings -->
<g id="node10" class="node">
<title>ui:settings</title>
<ellipse fill="none" stroke="black" cx="606.54" cy="-406.75" rx="47.07" ry="18"/>
<text text-anchor="middle" x="606.54" y="-401.32" font-family="Times New Roman,serif" font-size="14.00">ui:settings</text>
</g>
<!-- app&#45;&gt;ui:settings -->
<g id="edge9" class="edge">
<title>app&#45;&gt;ui:settings</title>
<path fill="none" stroke="black" d="M606.54,-544.61C606.54,-518.08 606.54,-467.27 606.54,-435.58"/>
<polygon fill="black" stroke="black" points="610.04,-435.85 606.54,-425.85 603.04,-435.85 610.04,-435.85"/>
</g>
<!-- ui:spotify -->
<g id="node11" class="node">
<title>ui:spotify</title>
<ellipse fill="none" stroke="black" cx="1263.54" cy="-406.75" rx="45.08" ry="18"/>
<text text-anchor="middle" x="1263.54" y="-401.32" font-family="Times New Roman,serif" font-size="14.00">ui:spotify</text>
</g>
<!-- app&#45;&gt;ui:spotify -->
<g id="edge10" class="edge">
<title>app&#45;&gt;ui:spotify</title>
<path fill="none" stroke="black" d="M633.96,-562C744.85,-561.77 1156.58,-558.76 1204.54,-527 1235.83,-506.28 1251.17,-463.85 1258.2,-435.59"/>
<polygon fill="black" stroke="black" points="1261.76,-436.7 1260.58,-426.17 1254.94,-435.14 1261.76,-436.7"/>
</g>
<!-- ui:stats -->
<g id="node12" class="node">
<title>ui:stats</title>
<ellipse fill="none" stroke="black" cx="467.54" cy="-406.75" rx="36.09" ry="18"/>
<text text-anchor="middle" x="467.54" y="-401.32" font-family="Times New Roman,serif" font-size="14.00">ui:stats</text>
</g>
<!-- app&#45;&gt;ui:stats -->
<g id="edge11" class="edge">
<title>app&#45;&gt;ui:stats</title>
<path fill="none" stroke="black" d="M580.57,-557.46C561.02,-552.83 534.76,-543.83 517.54,-527 492.13,-502.14 479.02,-462.4 472.72,-435.7"/>
<polygon fill="black" stroke="black" points="475.97,-435.17 470.42,-426.14 469.13,-436.66 475.97,-435.17"/>
</g>
<!-- data -->
<g id="node13" class="node">
<title>data</title>
<ellipse fill="none" stroke="black" cx="361.54" cy="-187.75" rx="27" ry="18"/>
<text text-anchor="middle" x="361.54" y="-182.32" font-family="Times New Roman,serif" font-size="14.00">data</text>
</g>
<!-- data&#45;android&#45;&gt;data -->
<g id="edge19" class="edge">
<title>data&#45;android&#45;&gt;data</title>
<path fill="none" stroke="red" d="M420.69,-243.28C410.03,-233.46 396.39,-220.88 384.89,-210.27"/>
<polygon fill="red" stroke="red" points="387.69,-208.17 377.96,-203.97 382.94,-213.32 387.69,-208.17"/>
</g>
<!-- data:room -->
<g id="node20" class="node">
<title>data:room</title>
<ellipse fill="none" stroke="black" cx="551.54" cy="-114.75" rx="48.07" ry="18"/>
<text text-anchor="middle" x="551.54" y="-109.33" font-family="Times New Roman,serif" font-size="14.00">data:room</text>
</g>
<!-- data&#45;android&#45;&gt;data:room -->
<g id="edge18" class="edge">
<title>data&#45;android&#45;&gt;data:room</title>
<path fill="none" stroke="black" d="M451.73,-242.95C471.46,-217.8 508.81,-170.21 531.81,-140.91"/>
<polygon fill="black" stroke="black" points="535.03,-143.47 538.45,-133.44 529.52,-139.15 535.03,-143.47"/>
</g>
<!-- ui:common&#45;&gt;data&#45;android -->
<g id="edge36" class="edge">
<title>ui:common&#45;&gt;data&#45;android</title>
<path fill="none" stroke="black" d="M502.71,-316.64C491.75,-307.26 477.75,-295.29 465.63,-284.92"/>
<polygon fill="black" stroke="black" points="468.47,-281.88 458.59,-278.04 463.92,-287.2 468.47,-281.88"/>
</g>
<!-- ui:common&#45;&gt;data:database -->
<g id="edge39" class="edge">
<title>ui:common&#45;&gt;data:database</title>
<path fill="none" stroke="black" d="M470.82,-329.18C366.27,-320.43 136.54,-293.39 136.54,-224.75 136.54,-224.75 136.54,-224.75 136.54,-113.75 136.54,-92.07 119.83,-75.11 102.07,-63.21"/>
<polygon fill="black" stroke="black" points="104.12,-59.74 93.78,-57.45 100.43,-65.69 104.12,-59.74"/>
</g>
<!-- ui:common&#45;&gt;ui:core -->
<g id="edge37" class="edge">
<title>ui:common&#45;&gt;ui:core</title>
<path fill="none" stroke="black" d="M526.63,-315.49C534.87,-290.78 553.64,-245.88 586.54,-223.75 615.75,-204.11 711.77,-194.99 770.11,-191.17"/>
<polygon fill="black" stroke="black" points="770.13,-194.61 779.9,-190.49 769.7,-187.63 770.13,-194.61"/>
</g>
<!-- ui:common&#45;&gt;ui:image -->
<g id="edge38" class="edge">
<title>ui:common&#45;&gt;ui:image</title>
<path fill="none" stroke="black" d="M571.87,-328.88C663.85,-321.5 865.13,-303.85 1033.54,-278.75 1047.15,-276.72 1061.84,-274.07 1075.26,-271.46"/>
<polygon fill="black" stroke="black" points="1075.57,-274.77 1084.7,-269.4 1074.21,-267.91 1075.57,-274.77"/>
</g>
<!-- ui:collections&#45;&gt;data&#45;android -->
<g id="edge32" class="edge">
<title>ui:collections&#45;&gt;data&#45;android</title>
<path fill="none" stroke="black" d="M262.13,-461.75C256.78,-430.61 249.56,-363.26 275.54,-315.75 285.9,-296.82 336.65,-282.04 378.8,-272.76"/>
<polygon fill="black" stroke="black" points="379.26,-276.03 388.31,-270.52 377.8,-269.18 379.26,-276.03"/>
</g>
<!-- ui:collections&#45;&gt;data:database -->
<g id="edge31" class="edge">
<title>ui:collections&#45;&gt;data:database</title>
<path fill="none" stroke="black" d="M207.14,-477.02C158.98,-472.11 98.54,-456.27 98.54,-407.75 98.54,-407.75 98.54,-407.75 98.54,-113.75 98.54,-97.32 90.54,-81.02 81.88,-68.19"/>
<polygon fill="black" stroke="black" points="84.28,-66.53 75.56,-60.5 78.62,-70.65 84.28,-66.53"/>
</g>
<!-- ui:collections&#45;&gt;ui:common -->
<g id="edge33" class="edge">
<title>ui:collections&#45;&gt;ui:common</title>
<path fill="none" stroke="black" d="M299.44,-464.58C312.8,-458.62 328.14,-451.32 341.54,-443.75 379.44,-422.35 385.4,-411.42 422.54,-388.75 442.38,-376.65 465.1,-364.16 483.76,-354.25"/>
<polygon fill="black" stroke="black" points="485.18,-356.93 492.4,-349.17 481.92,-350.74 485.18,-356.93"/>
</g>
<!-- ui:collections&#45;&gt;ui:core -->
<g id="edge34" class="edge">
<title>ui:collections&#45;&gt;ui:core</title>
<path fill="none" stroke="black" d="M283.95,-462.26C304.4,-444.03 338.51,-413.91 368.54,-388.75 383.51,-376.21 491.2,-291.99 505.54,-278.75 521.72,-263.83 521.57,-255.45 539.54,-242.75 556.61,-230.7 562.48,-229.57 582.54,-223.75 646.28,-205.27 722.76,-196.17 770.52,-191.98"/>
<polygon fill="black" stroke="black" points="770.76,-195.39 780.43,-191.06 770.17,-188.41 770.76,-195.39"/>
</g>
<!-- ui:collections&#45;&gt;ui:settings -->
<g id="edge35" class="edge">
<title>ui:collections&#45;&gt;ui:settings</title>
<path fill="none" stroke="black" d="M313.32,-468.8C377.13,-455.52 489.72,-432.07 555.26,-418.43"/>
<polygon fill="black" stroke="black" points="555.68,-421.71 564.76,-416.24 554.25,-414.85 555.68,-421.71"/>
</g>
<!-- ui:collections&#45;&gt;data -->
<g id="edge30" class="edge">
<title>ui:collections&#45;&gt;data</title>
<path fill="none" stroke="black" d="M226.95,-465.74C202.15,-454.67 174.54,-436 174.54,-407.75 174.54,-407.75 174.54,-407.75 174.54,-259.75 174.54,-227.91 270.49,-205.26 324.93,-194.96"/>
<polygon fill="black" stroke="black" points="325.34,-198.26 334.54,-193.01 324.08,-191.38 325.34,-198.26"/>
</g>
<!-- ui:history&#45;&gt;ui:common -->
<g id="edge41" class="edge">
<title>ui:history&#45;&gt;ui:common</title>
<path fill="none" stroke="black" d="M681.75,-461.41C682.17,-441.57 679.82,-409.2 662.54,-388.75 641.91,-364.31 608.91,-350.9 580.03,-343.56"/>
<polygon fill="black" stroke="black" points="581.14,-339.99 570.6,-341.12 579.54,-346.81 581.14,-339.99"/>
</g>
<!-- ui:history&#45;&gt;ui:core -->
<g id="edge42" class="edge">
<title>ui:history&#45;&gt;ui:core</title>
<path fill="none" stroke="black" d="M688.79,-461.58C691.23,-455.99 693.73,-449.69 695.54,-443.75 722.05,-356.78 682.93,-318.27 733.54,-242.75 744.75,-226.04 763.05,-213.32 779.63,-204.44"/>
<polygon fill="black" stroke="black" points="780.76,-207.28 788.12,-199.65 777.61,-201.03 780.76,-207.28"/>
</g>
<!-- ui:history&#45;&gt;ui:image -->
<g id="edge43" class="edge">
<title>ui:history&#45;&gt;ui:image</title>
<path fill="none" stroke="black" d="M722.18,-472.97C795.44,-461.56 950.69,-431.78 1067.54,-370.75 1079.6,-364.45 1083.73,-362.89 1091.54,-351.75 1104.6,-333.12 1112.3,-308.4 1116.63,-289.58"/>
<polygon fill="black" stroke="black" points="1120.22,-290.5 1118.85,-280 1113.37,-289.07 1120.22,-290.5"/>
</g>
<!-- ui:history&#45;&gt;ui:settings -->
<g id="edge44" class="edge">
<title>ui:history&#45;&gt;ui:settings</title>
<path fill="none" stroke="black" d="M663.75,-462.64C654.1,-453.38 641.81,-441.58 631.09,-431.3"/>
<polygon fill="black" stroke="black" points="633.91,-429.2 624.27,-424.8 629.06,-434.25 633.91,-429.2"/>
</g>
<!-- ui:history&#45;&gt;data -->
<g id="edge40" class="edge">
<title>ui:history&#45;&gt;data</title>
<path fill="none" stroke="black" d="M637.25,-474.82C572.33,-468.1 454.01,-452.38 422.54,-424.75 362.04,-371.63 357.78,-267.12 359.58,-216.95"/>
<polygon fill="black" stroke="black" points="363.12,-217.13 360.1,-206.98 356.13,-216.8 363.12,-217.13"/>
</g>
<!-- ui:image&#45;&gt;ui:core -->
<g id="edge46" class="edge">
<title>ui:image&#45;&gt;ui:core</title>
<path fill="none" stroke="black" d="M1102.83,-244.51C1092.68,-237.05 1079.58,-228.65 1066.54,-223.75 998.89,-198.34 914.66,-191.14 863.29,-189.24"/>
<polygon fill="black" stroke="black" points="863.63,-185.72 853.53,-188.9 863.41,-192.71 863.63,-185.72"/>
</g>
<!-- data:core -->
<g id="node14" class="node">
<title>data:core</title>
<ellipse fill="none" stroke="black" cx="686.54" cy="-41.75" rx="44.58" ry="18"/>
<text text-anchor="middle" x="686.54" y="-36.33" font-family="Times New Roman,serif" font-size="14.00">data:core</text>
</g>
<!-- ui:image&#45;&gt;data:core -->
<g id="edge45" class="edge">
<title>ui:image&#45;&gt;data:core</title>
<path fill="none" stroke="black" d="M1153.96,-249.47C1203.39,-232.1 1288.45,-194.53 1254.54,-150.75 1192.21,-70.26 872.07,-49.52 741.79,-44.38"/>
<polygon fill="black" stroke="black" points="742.02,-40.84 731.89,-43.96 741.76,-47.84 742.02,-40.84"/>
</g>
<!-- ui:nowplaying&#45;&gt;ui:common -->
<g id="edge48" class="edge">
<title>ui:nowplaying&#45;&gt;ui:common</title>
<path fill="none" stroke="black" d="M770.97,-394.58C717.44,-381.74 629.79,-360.71 573.93,-347.31"/>
<polygon fill="black" stroke="black" points="575.08,-343.75 564.54,-344.82 573.45,-350.56 575.08,-343.75"/>
</g>
<!-- ui:nowplaying&#45;&gt;ui:core -->
<g id="edge49" class="edge">
<title>ui:nowplaying&#45;&gt;ui:core</title>
<path fill="none" stroke="black" d="M861.41,-393.7C939.43,-370.12 1089.17,-313.91 1033.54,-242.75 1012.66,-216.03 919.18,-200.63 861.94,-193.54"/>
<polygon fill="black" stroke="black" points="862.7,-189.99 852.36,-192.27 861.87,-196.94 862.7,-189.99"/>
</g>
<!-- ui:nowplaying&#45;&gt;ui:image -->
<g id="edge50" class="edge">
<title>ui:nowplaying&#45;&gt;ui:image</title>
<path fill="none" stroke="black" d="M877.73,-402.45C937.61,-398.18 1024.5,-389.01 1052.54,-370.75 1056.63,-368.09 1087.04,-318.69 1106.1,-287.32"/>
<polygon fill="black" stroke="black" points="1109.42,-289.6 1111.61,-279.23 1103.43,-285.97 1109.42,-289.6"/>
</g>
<!-- ui:nowplaying&#45;&gt;data -->
<g id="edge47" class="edge">
<title>ui:nowplaying&#45;&gt;data</title>
<path fill="none" stroke="black" d="M792.83,-389.92C757.71,-367.74 691.02,-326.77 631.54,-296.75 577.16,-269.29 562.08,-265.45 505.54,-242.75 468.03,-227.69 424.52,-211.55 395.23,-200.88"/>
<polygon fill="black" stroke="black" points="396.71,-197.34 386.12,-197.21 394.32,-203.91 396.71,-197.34"/>
</g>
<!-- ui:settings&#45;&gt;data&#45;android -->
<g id="edge51" class="edge">
<title>ui:settings&#45;&gt;data&#45;android</title>
<path fill="none" stroke="black" d="M562.03,-400.47C529.4,-394.25 486.44,-380.8 460.54,-351.75 445.51,-334.89 440.35,-309.44 438.76,-289.9"/>
<polygon fill="black" stroke="black" points="442.21,-289.99 438.18,-280.19 435.22,-290.37 442.21,-289.99"/>
</g>
<!-- ui:settings&#45;&gt;ui:common -->
<g id="edge52" class="edge">
<title>ui:settings&#45;&gt;ui:common</title>
<path fill="none" stroke="black" d="M587.68,-389.99C576.32,-380.5 561.64,-368.24 549.01,-357.69"/>
<polygon fill="black" stroke="black" points="551.57,-354.43 541.65,-350.71 547.08,-359.81 551.57,-354.43"/>
</g>
<!-- ui:settings&#45;&gt;ui:core -->
<g id="edge53" class="edge">
<title>ui:settings&#45;&gt;ui:core</title>
<path fill="none" stroke="black" d="M610.64,-388.34C620.05,-352.17 646.67,-268.54 700.54,-223.75 720.37,-207.27 747.81,-198.54 771.02,-193.93"/>
<polygon fill="black" stroke="black" points="771.46,-197.23 780.69,-192.03 770.23,-190.34 771.46,-197.23"/>
</g>
<!-- ui:spotify&#45;&gt;ui:common -->
<g id="edge57" class="edge">
<title>ui:spotify&#45;&gt;ui:common</title>
<path fill="none" stroke="black" d="M1219.9,-401.57C1093.65,-389.49 727.81,-354.49 582.29,-340.56"/>
<polygon fill="black" stroke="black" points="582.66,-336.99 572.37,-339.52 581.99,-343.95 582.66,-336.99"/>
</g>
<!-- ui:spotify&#45;&gt;ui:core -->
<g id="edge56" class="edge">
<title>ui:spotify&#45;&gt;ui:core</title>
<path fill="none" stroke="black" d="M1258.07,-388.45C1243.76,-343.26 1206.22,-225.09 1204.54,-223.75 1178.39,-202.87 960.77,-193.36 863.37,-190.11"/>
<polygon fill="black" stroke="black" points="863.49,-186.58 853.38,-189.76 863.26,-193.58 863.49,-186.58"/>
</g>
<!-- ui:spotify&#45;&gt;data:core -->
<g id="edge54" class="edge">
<title>ui:spotify&#45;&gt;data:core</title>
<path fill="none" stroke="black" d="M1284.19,-390.39C1299.07,-377.42 1316.54,-357.36 1316.54,-334.75 1316.54,-334.75 1316.54,-334.75 1316.54,-113.75 1316.54,-56.18 895.72,-45.29 741.95,-43.23"/>
<polygon fill="black" stroke="black" points="742.39,-39.72 732.35,-43.1 742.3,-46.72 742.39,-39.72"/>
</g>
<!-- data:spotify -->
<g id="node18" class="node">
<title>data:spotify</title>
<ellipse fill="none" stroke="black" cx="982.54" cy="-114.75" rx="54.06" ry="18"/>
<text text-anchor="middle" x="982.54" y="-109.33" font-family="Times New Roman,serif" font-size="14.00">data:spotify</text>
</g>
<!-- ui:spotify&#45;&gt;data:spotify -->
<g id="edge55" class="edge">
<title>ui:spotify&#45;&gt;data:spotify</title>
<path fill="none" stroke="black" d="M1265.26,-388.47C1267.84,-351.8 1268.04,-266.07 1219.54,-223.75 1164.88,-176.05 1085.64,-145.72 1034.11,-129.72"/>
<polygon fill="black" stroke="black" points="1035.45,-126.17 1024.87,-126.62 1033.42,-132.87 1035.45,-126.17"/>
</g>
<!-- ui:stats&#45;&gt;ui:common -->
<g id="edge59" class="edge">
<title>ui:stats&#45;&gt;ui:common</title>
<path fill="none" stroke="black" d="M479.8,-389.64C486.47,-380.87 494.87,-369.82 502.39,-359.94"/>
<polygon fill="black" stroke="black" points="505.7,-362.37 508.97,-352.29 500.13,-358.13 505.7,-362.37"/>
</g>
<!-- ui:stats&#45;&gt;ui:core -->
<g id="edge60" class="edge">
<title>ui:stats&#45;&gt;ui:core</title>
<path fill="none" stroke="black" d="M498.1,-396.73C522.98,-388.21 557.9,-373.49 582.54,-351.75 625.55,-313.83 607.8,-279.82 651.54,-242.75 668.11,-228.71 676.09,-231.02 696.54,-223.75 722.14,-214.65 751.4,-206.08 774.61,-199.7"/>
<polygon fill="black" stroke="black" points="775.42,-202.84 784.15,-196.84 773.58,-196.08 775.42,-202.84"/>
</g>
<!-- ui:stats&#45;&gt;data -->
<g id="edge58" class="edge">
<title>ui:stats&#45;&gt;data</title>
<path fill="none" stroke="black" d="M434.21,-399.12C380.4,-386.42 275.93,-353.04 231.54,-278.75 223.34,-265.01 222.66,-256.06 231.54,-242.75 251.97,-212.15 293.31,-198.87 323.92,-193.12"/>
<polygon fill="black" stroke="black" points="324.37,-196.42 333.65,-191.32 323.21,-189.52 324.37,-196.42"/>
</g>
<!-- data&#45;&gt;data:core -->
<g id="edge12" class="edge">
<title>data&#45;&gt;data:core</title>
<path fill="none" stroke="red" d="M388.79,-186.3C436.58,-184.36 537.22,-175.12 608.54,-132.75 634.94,-117.07 656.96,-89.3 670.79,-68.74"/>
<polygon fill="red" stroke="red" points="674.23,-70.89 676.74,-60.59 668.36,-67.07 674.23,-70.89"/>
</g>
<!-- data:common:network -->
<g id="node15" class="node">
<title>data:common:network</title>
<ellipse fill="none" stroke="black" cx="232.54" cy="-41.75" rx="92.98" ry="18"/>
<text text-anchor="middle" x="232.54" y="-36.33" font-family="Times New Roman,serif" font-size="14.00">data:common:network</text>
</g>
<!-- data&#45;&gt;data:common:network -->
<g id="edge13" class="edge">
<title>data&#45;&gt;data:common:network</title>
<path fill="none" stroke="red" d="M347.8,-171.8C342.13,-165.61 335.5,-158.35 329.54,-151.75 303.78,-123.19 274.45,-90.16 254.86,-68.01"/>
<polygon fill="red" stroke="red" points="257.84,-65.98 248.6,-60.81 252.6,-70.61 257.84,-65.98"/>
</g>
<!-- data:coverart -->
<g id="node16" class="node">
<title>data:coverart</title>
<ellipse fill="none" stroke="black" cx="402.54" cy="-41.75" rx="58.55" ry="18"/>
<text text-anchor="middle" x="402.54" y="-36.33" font-family="Times New Roman,serif" font-size="14.00">data:coverart</text>
</g>
<!-- data&#45;&gt;data:coverart -->
<g id="edge14" class="edge">
<title>data&#45;&gt;data:coverart</title>
<path fill="none" stroke="red" d="M347.88,-172.02C332.79,-153.86 312.27,-122.28 325.54,-96.75 333.07,-82.27 346.46,-70.87 359.98,-62.35"/>
<polygon fill="red" stroke="red" points="361.43,-64.97 368.29,-56.9 357.89,-58.93 361.43,-64.97"/>
</g>
<!-- data:domain -->
<g id="node17" class="node">
<title>data:domain</title>
<ellipse fill="none" stroke="black" cx="390.54" cy="-114.75" rx="55.55" ry="18"/>
<text text-anchor="middle" x="390.54" y="-109.33" font-family="Times New Roman,serif" font-size="14.00">data:domain</text>
</g>
<!-- data&#45;&gt;data:domain -->
<g id="edge15" class="edge">
<title>data&#45;&gt;data:domain</title>
<path fill="none" stroke="red" d="M368.42,-169.92C371.69,-161.91 375.69,-152.11 379.39,-143.07"/>
<polygon fill="red" stroke="red" points="382.98,-144.53 383.52,-133.95 376.5,-141.88 382.98,-144.53"/>
</g>
<!-- data&#45;&gt;data:spotify -->
<g id="edge16" class="edge">
<title>data&#45;&gt;data:spotify</title>
<path fill="none" stroke="red" d="M388.36,-183.88C443.1,-178 571.66,-164.1 679.54,-151.75 763.58,-142.13 860.65,-130.51 921.81,-123.12"/>
<polygon fill="red" stroke="red" points="921.92,-126.51 931.43,-121.84 921.08,-119.56 921.92,-126.51"/>
</g>
<!-- data:musicbrainz -->
<g id="node19" class="node">
<title>data:musicbrainz</title>
<ellipse fill="none" stroke="black" cx="551.54" cy="-41.75" rx="72.52" ry="18"/>
<text text-anchor="middle" x="551.54" y="-36.33" font-family="Times New Roman,serif" font-size="14.00">data:musicbrainz</text>
</g>
<!-- data&#45;&gt;data:musicbrainz -->
<g id="edge17" class="edge">
<title>data&#45;&gt;data:musicbrainz</title>
<path fill="none" stroke="red" d="M382.95,-176.27C402.58,-166.24 432.1,-150.11 455.54,-132.75 459.37,-129.92 498.94,-92.59 526.07,-66.91"/>
<polygon fill="red" stroke="red" points="528.18,-69.78 533.04,-60.36 523.37,-64.7 528.18,-69.78"/>
</g>
<!-- data:domain&#45;&gt;data:database -->
<g id="edge25" class="edge">
<title>data:domain&#45;&gt;data:database</title>
<path fill="none" stroke="black" d="M343.95,-104.56C291.84,-94.17 204.98,-76.51 130.54,-59.75 125.96,-58.72 121.21,-57.62 116.45,-56.5"/>
<polygon fill="black" stroke="black" points="117.59,-52.94 107.05,-54.04 115.98,-59.75 117.59,-52.94"/>
</g>
<!-- data:domain&#45;&gt;data:core -->
<g id="edge22" class="edge">
<title>data:domain&#45;&gt;data:core</title>
<path fill="none" stroke="black" d="M437.44,-104.66C486.61,-94.82 565.97,-78.05 633.54,-59.75 636.52,-58.94 639.57,-58.08 642.64,-57.17"/>
<polygon fill="black" stroke="black" points="643.49,-60.27 652.04,-54.01 641.45,-53.57 643.49,-60.27"/>
</g>
<!-- data:domain&#45;&gt;data:common:network -->
<g id="edge23" class="edge">
<title>data:domain&#45;&gt;data:common:network</title>
<path fill="none" stroke="black" d="M358.95,-99.55C335.82,-89.16 304.07,-74.89 278.19,-63.26"/>
<polygon fill="black" stroke="black" points="279.78,-59.69 269.22,-58.78 276.91,-66.07 279.78,-59.69"/>
</g>
<!-- data:domain&#45;&gt;data:coverart -->
<g id="edge24" class="edge">
<title>data:domain&#45;&gt;data:coverart</title>
<path fill="none" stroke="black" d="M393.45,-96.56C394.78,-88.71 396.38,-79.22 397.87,-70.41"/>
<polygon fill="black" stroke="black" points="401.45,-71.22 399.67,-60.78 394.55,-70.06 401.45,-71.22"/>
</g>
<!-- data:domain&#45;&gt;data:musicbrainz -->
<g id="edge26" class="edge">
<title>data:domain&#45;&gt;data:musicbrainz</title>
<path fill="none" stroke="black" d="M418.14,-98.69C430.89,-91.95 446.33,-84.12 460.54,-77.75 473.59,-71.91 487.94,-66.11 501.3,-60.96"/>
<polygon fill="black" stroke="black" points="502.19,-63.99 510.3,-57.16 499.7,-57.45 502.19,-63.99"/>
</g>
<!-- data:room&#45;&gt;data:core -->
<g id="edge27" class="edge">
<title>data:room&#45;&gt;data:core</title>
<path fill="none" stroke="black" d="M578.54,-99.55C599.18,-88.7 627.85,-73.62 650.46,-61.73"/>
<polygon fill="black" stroke="black" points="651.84,-64.43 659.06,-56.68 648.58,-58.24 651.84,-64.43"/>
</g>
<!-- data:room&#45;&gt;data:coverart -->
<g id="edge28" class="edge">
<title>data:room&#45;&gt;data:coverart</title>
<path fill="none" stroke="black" d="M522.82,-100.06C500.2,-89.28 468.38,-74.12 443.16,-62.1"/>
<polygon fill="black" stroke="black" points="445.03,-58.64 434.5,-57.5 442.02,-64.96 445.03,-58.64"/>
</g>
<!-- data:room&#45;&gt;data:musicbrainz -->
<g id="edge29" class="edge">
<title>data:room&#45;&gt;data:musicbrainz</title>
<path fill="none" stroke="black" d="M551.54,-96.56C551.54,-88.8 551.54,-79.43 551.54,-70.7"/>
<polygon fill="black" stroke="black" points="555.04,-70.78 551.54,-60.78 548.04,-70.78 555.04,-70.78"/>
</g>
<!-- desktop&#45;app -->
<g id="node21" class="node">
<title>desktop&#45;app</title>
<ellipse fill="none" stroke="black" cx="966.54" cy="-260.75" rx="57.55" ry="18"/>
<text text-anchor="middle" x="966.54" y="-255.32" font-family="Times New Roman,serif" font-size="14.00">desktop&#45;app</text>
</g>
<!-- desktop&#45;app&#45;&gt;ui:core -->
<g id="edge20" class="edge">
<title>desktop&#45;app&#45;&gt;ui:core</title>
<path fill="none" stroke="black" d="M935.83,-245.21C911.31,-233.61 876.96,-217.35 851.41,-205.25"/>
<polygon fill="black" stroke="black" points="853.29,-201.79 842.75,-200.68 850.29,-208.12 853.29,-201.79"/>
</g>
<!-- test&#45;data -->
<g id="node22" class="node">
<title>test&#45;data</title>
<ellipse fill="none" stroke="black" cx="282.54" cy="-260.75" rx="42.08" ry="18"/>
<text text-anchor="middle" x="282.54" y="-255.32" font-family="Times New Roman,serif" font-size="14.00">test&#45;data</text>
</g>
<!-- test&#45;data&#45;&gt;data -->
<g id="edge21" class="edge">
<title>test&#45;data&#45;&gt;data</title>
<path fill="none" stroke="black" d="M300.08,-243.99C311.23,-233.97 325.81,-220.86 337.97,-209.93"/>
<polygon fill="black" stroke="black" points="339.84,-213.07 344.93,-203.78 335.16,-207.86 339.84,-213.07"/>
</g>
<!-- ui:test:screenshot -->
<g id="node23" class="node">
<title>ui:test:screenshot</title>
<ellipse fill="none" stroke="black" cx="816.54" cy="-260.75" rx="74.02" ry="18"/>
<text text-anchor="middle" x="816.54" y="-255.32" font-family="Times New Roman,serif" font-size="14.00">ui:test:screenshot</text>
</g>
<!-- ui:test:screenshot&#45;&gt;ui:core -->
<g id="edge61" class="edge">
<title>ui:test:screenshot&#45;&gt;ui:core</title>
<path fill="none" stroke="black" d="M816.54,-242.56C816.54,-234.8 816.54,-225.43 816.54,-216.7"/>
<polygon fill="black" stroke="black" points="820.04,-216.78 816.54,-206.78 813.04,-216.78 820.04,-216.78"/>
</g>
<!-- module -->
<g id="node24" class="node">
<title>module</title>
<ellipse fill="none" stroke="black" cx="1324.54" cy="-563" rx="27" ry="18"/>
<text text-anchor="middle" x="1324.54" y="-559.12" font-family="Times New Roman,serif" font-size="10.00">module</text>
</g>
<!-- dependency -->
<g id="node25" class="node">
<title>dependency</title>
<ellipse fill="none" stroke="black" cx="1324.54" cy="-479.75" rx="38.76" ry="18"/>
<text text-anchor="middle" x="1324.54" y="-475.88" font-family="Times New Roman,serif" font-size="10.00">dependency</text>
</g>
<!-- module&#45;&gt;dependency -->
<g id="edge62" class="edge">
<title>module&#45;&gt;dependency</title>
<path fill="none" stroke="red" d="M1307.04,-548.93C1300.57,-543.03 1293.98,-535.48 1290.54,-527 1287.1,-518.5 1290.52,-510.14 1296.32,-502.91"/>
<polygon fill="red" stroke="red" points="1298.52,-505.64 1302.95,-496.01 1293.48,-500.77 1298.52,-505.64"/>
<text text-anchor="middle" x="1296.54" y="-517.5" font-family="Times New Roman,serif" font-size="10.00">api</text>
</g>
<!-- module&#45;&gt;dependency -->
<g id="edge63" class="edge">
<title>module&#45;&gt;dependency</title>
<path fill="none" stroke="black" d="M1324.54,-544.77C1324.54,-534.39 1324.54,-520.92 1324.54,-509.02"/>
<polygon fill="black" stroke="black" points="1328.04,-509.24 1324.54,-499.24 1321.04,-509.24 1328.04,-509.24"/>
<text text-anchor="middle" x="1354.92" y="-517.5" font-family="Times New Roman,serif" font-size="10.00">implementation</text>
</g>
<!-- module&#45;&gt;dependency -->
<g id="edge64" class="edge">
<title>module&#45;&gt;dependency</title>
<path fill="none" stroke="green" d="M1349.25,-554.87C1362.83,-549.55 1378.51,-540.77 1386.54,-527 1394.58,-513.23 1381.84,-502.29 1365.85,-494.51"/>
<polygon fill="green" stroke="green" points="1367.76,-491.09 1357.2,-490.3 1364.96,-497.51 1367.76,-491.09"/>
<text text-anchor="middle" x="1403.92" y="-517.5" font-family="Times New Roman,serif" font-size="10.00">compile</text>
</g>
</g>
</svg>
