<?xml version="1.0" encoding="UTF-8" standalone="no"?>
<!DOCTYPE svg PUBLIC "-//W3C//DTD SVG 1.1//EN"
 "http://www.w3.org/Graphics/SVG/1.1/DTD/svg11.dtd">
<!-- Generated by graphviz version 8.1.0 (20230707.0739)
 -->
<!-- Title: modules Pages: 1 -->
<svg width="1533pt" height="551pt"
 viewBox="0.00 0.00 1532.54 551.25" xmlns="http://www.w3.org/2000/svg" xmlns:xlink="http://www.w3.org/1999/xlink">
<g id="graph0" class="graph" transform="scale(1 1) rotate(0) translate(4 547.25)">
<title>modules</title>
<polygon fill="white" stroke="none" points="-4,4 -4,-547.25 1528.54,-547.25 1528.54,4 -4,4"/>
<text text-anchor="middle" x="762.27" y="-6.45" font-family="Times New Roman,serif" font-size="14.00">Module dependencies</text>
<g id="clust1" class="cluster">
<title>cluster_01</title>
<polygon fill="none" stroke="black" points="1332.54,-380.75 1332.54,-535.25 1516.54,-535.25 1516.54,-380.75 1332.54,-380.75"/>
<text text-anchor="middle" x="1424.54" y="-521.75" font-family="Times New Roman,serif" font-size="10.00">Legend</text>
</g>
<!-- app -->
<g id="node1" class="node">
<title>app</title>
<ellipse fill="none" stroke="black" cx="559.54" cy="-490" rx="27" ry="18"/>
<text text-anchor="middle" x="559.54" y="-484.57" font-family="Times New Roman,serif" font-size="14.00">app</text>
</g>
<!-- data&#45;android -->
<g id="node2" class="node">
<title>data&#45;android</title>
<ellipse fill="none" stroke="black" cx="235.54" cy="-187.75" rx="57.55" ry="18"/>
<text text-anchor="middle" x="235.54" y="-182.32" font-family="Times New Roman,serif" font-size="14.00">data&#45;android</text>
</g>
<!-- app&#45;&gt;data&#45;android -->
<g id="edge1" class="edge">
<title>app&#45;&gt;data&#45;android</title>
<path fill="none" stroke="black" d="M532.12,-488.72C454.36,-487.27 235.48,-478.4 194.54,-424.75 146.6,-361.92 192.44,-262.3 219.24,-215.15"/>
<polygon fill="black" stroke="black" points="222.77,-217.06 224.79,-206.66 216.72,-213.53 222.77,-217.06"/>
</g>
<!-- data:database -->
<g id="node3" class="node">
<title>data:database</title>
<ellipse fill="none" stroke="black" cx="60.54" cy="-187.75" rx="60.54" ry="18"/>
<text text-anchor="middle" x="60.54" y="-182.32" font-family="Times New Roman,serif" font-size="14.00">data:database</text>
</g>
<!-- app&#45;&gt;data:database -->
<g id="edge2" class="edge">
<title>app&#45;&gt;data:database</title>
<path fill="none" stroke="black" d="M532.5,-487.52C428.02,-481.44 56.54,-456.4 56.54,-407.75 56.54,-407.75 56.54,-407.75 56.54,-259.75 56.54,-245.62 57.34,-229.93 58.23,-216.9"/>
<polygon fill="black" stroke="black" points="61.77,-217.47 59.01,-207.24 54.79,-216.96 61.77,-217.47"/>
</g>
<!-- domain -->
<g id="node4" class="node">
<title>domain</title>
<ellipse fill="none" stroke="black" cx="463.54" cy="-187.75" rx="38.09" ry="18"/>
<text text-anchor="middle" x="463.54" y="-182.32" font-family="Times New Roman,serif" font-size="14.00">domain</text>
</g>
<!-- app&#45;&gt;domain -->
<g id="edge3" class="edge">
<title>app&#45;&gt;domain</title>
<path fill="none" stroke="black" d="M532.29,-489.65C473.83,-489.81 333.91,-483.52 237.54,-424.75 211.35,-408.78 204.67,-399.71 194.54,-370.75 158.42,-267.38 331.89,-216.11 417.76,-197.38"/>
<polygon fill="black" stroke="black" points="418.22,-200.65 427.27,-195.15 416.77,-193.8 418.22,-200.65"/>
</g>
<!-- ui:common -->
<g id="node5" class="node">
<title>ui:common</title>
<ellipse fill="none" stroke="black" cx="619.54" cy="-260.75" rx="52.06" ry="18"/>
<text text-anchor="middle" x="619.54" y="-255.32" font-family="Times New Roman,serif" font-size="14.00">ui:common</text>
</g>
<!-- app&#45;&gt;ui:common -->
<g id="edge4" class="edge">
<title>app&#45;&gt;ui:common</title>
<path fill="none" stroke="black" d="M550.68,-472.52C534.65,-440.26 504.99,-367.39 533.54,-315.75 542.52,-299.52 558.63,-287.52 574.51,-279"/>
<polygon fill="black" stroke="black" points="575.89,-281.72 583.29,-274.14 572.78,-275.45 575.89,-281.72"/>
</g>
<!-- ui:core -->
<g id="node6" class="node">
<title>ui:core</title>
<ellipse fill="none" stroke="black" cx="997.54" cy="-114.75" rx="35.6" ry="18"/>
<text text-anchor="middle" x="997.54" y="-109.33" font-family="Times New Roman,serif" font-size="14.00">ui:core</text>
</g>
<!-- app&#45;&gt;ui:core -->
<g id="edge5" class="edge">
<title>app&#45;&gt;ui:core</title>
<path fill="none" stroke="black" d="M586.56,-488.76C715.2,-487.25 1259.54,-476.8 1259.54,-407.75 1259.54,-407.75 1259.54,-407.75 1259.54,-186.75 1259.54,-142.51 1118.6,-124.97 1043.46,-118.76"/>
<polygon fill="black" stroke="black" points="1044.12,-115.23 1033.88,-117.93 1043.57,-122.2 1044.12,-115.23"/>
</g>
<!-- ui:collections -->
<g id="node7" class="node">
<title>ui:collections</title>
<ellipse fill="none" stroke="black" cx="305.54" cy="-406.75" rx="59.05" ry="18"/>
<text text-anchor="middle" x="305.54" y="-401.32" font-family="Times New Roman,serif" font-size="14.00">ui:collections</text>
</g>
<!-- app&#45;&gt;ui:collections -->
<g id="edge6" class="edge">
<title>app&#45;&gt;ui:collections</title>
<path fill="none" stroke="black" d="M534.55,-482.74C508.81,-476.16 467.62,-465.2 432.54,-454 405.38,-445.33 375.39,-434.47 351.38,-425.45"/>
<polygon fill="black" stroke="black" points="352.73,-421.84 342.14,-421.58 350.25,-428.39 352.73,-421.84"/>
</g>
<!-- ui:history -->
<g id="node8" class="node">
<title>ui:history</title>
<ellipse fill="none" stroke="black" cx="743.54" cy="-406.75" rx="44.58" ry="18"/>
<text text-anchor="middle" x="743.54" y="-401.32" font-family="Times New Roman,serif" font-size="14.00">ui:history</text>
</g>
<!-- app&#45;&gt;ui:history -->
<g id="edge7" class="edge">
<title>app&#45;&gt;ui:history</title>
<path fill="none" stroke="black" d="M581.74,-479.2C612.06,-465.81 666.91,-441.59 704.26,-425.1"/>
<polygon fill="black" stroke="black" points="705.56,-427.91 713.3,-420.67 702.73,-421.5 705.56,-427.91"/>
</g>
<!-- ui:image -->
<g id="node9" class="node">
<title>ui:image</title>
<ellipse fill="none" stroke="black" cx="1076.54" cy="-187.75" rx="40.58" ry="18"/>
<text text-anchor="middle" x="1076.54" y="-182.32" font-family="Times New Roman,serif" font-size="14.00">ui:image</text>
</g>
<!-- app&#45;&gt;ui:image -->
<g id="edge8" class="edge">
<title>app&#45;&gt;ui:image</title>
<path fill="none" stroke="black" d="M586.61,-487.64C692.99,-481.92 1076.54,-457.84 1076.54,-407.75 1076.54,-407.75 1076.54,-407.75 1076.54,-259.75 1076.54,-245.54 1076.54,-229.74 1076.54,-216.66"/>
<polygon fill="black" stroke="black" points="1080.04,-216.97 1076.54,-206.97 1073.04,-216.97 1080.04,-216.97"/>
</g>
<!-- ui:nowplaying -->
<g id="node10" class="node">
<title>ui:nowplaying</title>
<ellipse fill="none" stroke="black" cx="604.54" cy="-333.75" rx="61.54" ry="18"/>
<text text-anchor="middle" x="604.54" y="-328.32" font-family="Times New Roman,serif" font-size="14.00">ui:nowplaying</text>
</g>
<!-- app&#45;&gt;ui:nowplaying -->
<g id="edge9" class="edge">
<title>app&#45;&gt;ui:nowplaying</title>
<path fill="none" stroke="black" d="M564.53,-471.9C572.27,-445.38 587.24,-394.07 596.51,-362.28"/>
<polygon fill="black" stroke="black" points="600.09,-363.5 599.53,-352.92 593.37,-361.54 600.09,-363.5"/>
</g>
<!-- ui:settings -->
<g id="node11" class="node">
<title>ui:settings</title>
<ellipse fill="none" stroke="black" cx="439.54" cy="-333.75" rx="47.07" ry="18"/>
<text text-anchor="middle" x="439.54" y="-328.32" font-family="Times New Roman,serif" font-size="14.00">ui:settings</text>
</g>
<!-- app&#45;&gt;ui:settings -->
<g id="edge10" class="edge">
<title>app&#45;&gt;ui:settings</title>
<path fill="none" stroke="black" d="M537.01,-479.41C525.04,-473.45 510.74,-464.85 500.54,-454 475.47,-427.3 458.16,-388.32 448.55,-362.27"/>
<polygon fill="black" stroke="black" points="451.54,-361.23 444.9,-352.97 444.94,-363.57 451.54,-361.23"/>
</g>
<!-- ui:spotify -->
<g id="node12" class="node">
<title>ui:spotify</title>
<ellipse fill="none" stroke="black" cx="1332.54" cy="-333.75" rx="45.08" ry="18"/>
<text text-anchor="middle" x="1332.54" y="-328.32" font-family="Times New Roman,serif" font-size="14.00">ui:spotify</text>
</g>
<!-- app&#45;&gt;ui:spotify -->
<g id="edge11" class="edge">
<title>app&#45;&gt;ui:spotify</title>
<path fill="none" stroke="black" d="M586.67,-489.27C710.11,-490.31 1215.29,-492.18 1273.54,-454 1305.1,-433.32 1320.4,-390.49 1327.35,-362.19"/>
<polygon fill="black" stroke="black" points="1330.91,-363.3 1329.69,-352.77 1324.09,-361.76 1330.91,-363.3"/>
</g>
<!-- ui:stats -->
<g id="node13" class="node">
<title>ui:stats</title>
<ellipse fill="none" stroke="black" cx="1140.54" cy="-333.75" rx="36.09" ry="18"/>
<text text-anchor="middle" x="1140.54" y="-328.32" font-family="Times New Roman,serif" font-size="14.00">ui:stats</text>
</g>
<!-- app&#45;&gt;ui:stats -->
<g id="edge12" class="edge">
<title>app&#45;&gt;ui:stats</title>
<path fill="none" stroke="black" d="M586.68,-488.86C689.22,-488.12 1049.32,-483.42 1090.54,-454 1120.1,-432.91 1132.27,-390.88 1137.22,-362.78"/>
<polygon fill="black" stroke="black" points="1140.81,-363.47 1138.88,-353.05 1133.89,-362.39 1140.81,-363.47"/>
</g>
<!-- data -->
<g id="node14" class="node">
<title>data</title>
<ellipse fill="none" stroke="black" cx="590.54" cy="-114.75" rx="27" ry="18"/>
<text text-anchor="middle" x="590.54" y="-109.33" font-family="Times New Roman,serif" font-size="14.00">data</text>
</g>
<!-- data&#45;android&#45;&gt;data -->
<g id="edge18" class="edge">
<title>data&#45;android&#45;&gt;data</title>
<path fill="none" stroke="red" d="M260.99,-171.35C274.39,-163.95 291.36,-155.64 307.54,-150.75 392.49,-125.09 497.23,-118.2 552.39,-116.38"/>
<polygon fill="red" stroke="red" points="552.49,-119.85 562.39,-116.07 552.29,-112.85 552.49,-119.85"/>
</g>
<!-- ui:common&#45;&gt;data&#45;android -->
<g id="edge28" class="edge">
<title>ui:common&#45;&gt;data&#45;android</title>
<path fill="none" stroke="black" d="M574.37,-251.4C504.87,-238.55 371.73,-213.93 294.66,-199.68"/>
<polygon fill="black" stroke="black" points="295.64,-196.12 285.17,-197.74 294.37,-203 295.64,-196.12"/>
</g>
<!-- ui:common&#45;&gt;data:database -->
<g id="edge29" class="edge">
<title>ui:common&#45;&gt;data:database</title>
<path fill="none" stroke="black" d="M570.42,-254.47C487.47,-245.42 314.42,-225.96 168.54,-205.75 153.87,-203.72 138.1,-201.34 123.28,-199.03"/>
<polygon fill="black" stroke="black" points="124.1,-195.45 113.67,-197.35 123.01,-202.37 124.1,-195.45"/>
</g>
<!-- ui:common&#45;&gt;domain -->
<g id="edge30" class="edge">
<title>ui:common&#45;&gt;domain</title>
<path fill="none" stroke="black" d="M593.92,-244.78C581.86,-237.98 567.16,-230.08 553.54,-223.75 544.03,-219.33 522.3,-210.86 502.58,-203.36"/>
<polygon fill="black" stroke="black" points="504.11,-199.82 493.52,-199.56 501.64,-206.37 504.11,-199.82"/>
</g>
<!-- ui:common&#45;&gt;ui:core -->
<g id="edge31" class="edge">
<title>ui:common&#45;&gt;ui:core</title>
<path fill="none" stroke="black" d="M619.79,-242.57C621.14,-217.98 627.58,-173.22 655.54,-150.75 678.13,-132.6 863.25,-121.85 951.32,-117.71"/>
<polygon fill="black" stroke="black" points="951.24,-121.17 961.06,-117.22 950.91,-114.18 951.24,-121.17"/>
</g>
<!-- ui:common&#45;&gt;ui:image -->
<g id="edge32" class="edge">
<title>ui:common&#45;&gt;ui:image</title>
<path fill="none" stroke="black" d="M661.84,-250.01C698.78,-241.84 753.95,-230.46 802.54,-223.75 901.48,-210.09 928.74,-225.98 1026.54,-205.75 1029.72,-205.09 1032.97,-204.29 1036.22,-203.4"/>
<polygon fill="black" stroke="black" points="1036.91,-206.55 1045.47,-200.31 1034.89,-199.85 1036.91,-206.55"/>
</g>
<!-- ui:collections&#45;&gt;data&#45;android -->
<g id="edge23" class="edge">
<title>ui:collections&#45;&gt;data&#45;android</title>
<path fill="none" stroke="black" d="M285.42,-389.66C279.81,-384.22 274.25,-377.73 270.54,-370.75 244.11,-320.9 237.46,-253.95 235.91,-216.71"/>
<polygon fill="black" stroke="black" points="239.39,-217.05 235.57,-207.16 232.39,-217.27 239.39,-217.05"/>
</g>
<!-- ui:collections&#45;&gt;data:database -->
<g id="edge22" class="edge">
<title>ui:collections&#45;&gt;data:database</title>
<path fill="none" stroke="black" d="M256.1,-396.5C236.6,-391.19 214.8,-383.05 197.54,-370.75 139.17,-329.12 94.76,-255.17 73.82,-215.56"/>
<polygon fill="black" stroke="black" points="76.48,-214.09 68.77,-206.81 70.26,-217.3 76.48,-214.09"/>
</g>
<!-- ui:collections&#45;&gt;domain -->
<g id="edge24" class="edge">
<title>ui:collections&#45;&gt;domain</title>
<path fill="none" stroke="black" d="M311.74,-388.42C319.02,-369.46 332.32,-338.71 349.54,-315.75 385.6,-267.68 415.53,-274.29 449.54,-224.75 451.42,-222.02 453.09,-219 454.57,-215.91"/>
<polygon fill="black" stroke="black" points="458.07,-217.62 458.64,-207.04 451.6,-214.95 458.07,-217.62"/>
</g>
<!-- ui:collections&#45;&gt;ui:common -->
<g id="edge25" class="edge">
<title>ui:collections&#45;&gt;ui:common</title>
<path fill="none" stroke="black" d="M322.14,-389.33C327.78,-383.56 334.05,-376.98 339.54,-370.75 360.25,-347.27 357.03,-332.39 383.54,-315.75 412.79,-297.4 501.68,-280.36 561.63,-270.51"/>
<polygon fill="black" stroke="black" points="562.15,-273.81 571.46,-268.76 561.03,-266.9 562.15,-273.81"/>
</g>
<!-- ui:collections&#45;&gt;ui:core -->
<g id="edge26" class="edge">
<title>ui:collections&#45;&gt;ui:core</title>
<path fill="none" stroke="black" d="M306.29,-388.43C309.25,-343.64 323.93,-223.69 396.54,-169.75 440.77,-136.9 818.04,-121.58 951.22,-117.16"/>
<polygon fill="black" stroke="black" points="950.98,-120.63 960.86,-116.81 950.75,-113.64 950.98,-120.63"/>
</g>
<!-- ui:collections&#45;&gt;ui:settings -->
<g id="edge27" class="edge">
<title>ui:collections&#45;&gt;ui:settings</title>
<path fill="none" stroke="black" d="M337.46,-391.18C350.35,-385.11 365.28,-377.83 378.54,-370.75 387.63,-365.9 397.29,-360.38 406.19,-355.13"/>
<polygon fill="black" stroke="black" points="407.68,-357.73 414.48,-349.6 404.09,-351.71 407.68,-357.73"/>
</g>
<!-- ui:collections&#45;&gt;data -->
<g id="edge21" class="edge">
<title>ui:collections&#45;&gt;data</title>
<path fill="none" stroke="black" d="M283.44,-389.83C230.43,-349.8 105.07,-242.94 168.54,-169.75 193.57,-140.9 453.57,-123.42 552.56,-117.77"/>
<polygon fill="black" stroke="black" points="552.75,-121.21 562.54,-117.15 552.36,-114.22 552.75,-121.21"/>
</g>
<!-- ui:history&#45;&gt;domain -->
<g id="edge34" class="edge">
<title>ui:history&#45;&gt;domain</title>
<path fill="none" stroke="black" d="M742.45,-388.32C739.3,-354.24 727.14,-278.96 680.54,-242.75 619.49,-195.3 584.84,-227.17 510.54,-205.75 507.95,-205 505.3,-204.19 502.64,-203.33"/>
<polygon fill="black" stroke="black" points="504.02,-199.77 493.43,-199.88 501.78,-206.4 504.02,-199.77"/>
</g>
<!-- ui:history&#45;&gt;ui:common -->
<g id="edge35" class="edge">
<title>ui:history&#45;&gt;ui:common</title>
<path fill="none" stroke="black" d="M732,-388.88C719.03,-370.33 696.98,-339.93 675.54,-315.75 666.24,-305.25 655.26,-294.38 645.5,-285.16"/>
<polygon fill="black" stroke="black" points="648.36,-283.11 638.65,-278.86 643.59,-288.24 648.36,-283.11"/>
</g>
<!-- ui:history&#45;&gt;ui:core -->
<g id="edge36" class="edge">
<title>ui:history&#45;&gt;ui:core</title>
<path fill="none" stroke="black" d="M787.55,-403.57C894.07,-397.86 1158.95,-380.86 1185.54,-351.75 1240.13,-292.01 1221.67,-239.44 1180.54,-169.75 1173.63,-158.03 1168.84,-156.58 1156.54,-150.75 1120.53,-133.65 1075.93,-124.77 1043.14,-120.24"/>
<polygon fill="black" stroke="black" points="1043.87,-116.68 1033.5,-118.87 1042.97,-123.62 1043.87,-116.68"/>
</g>
<!-- ui:history&#45;&gt;ui:image -->
<g id="edge37" class="edge">
<title>ui:history&#45;&gt;ui:image</title>
<path fill="none" stroke="black" d="M770.02,-392C781.67,-385.76 795.44,-378.14 807.54,-370.75 897.09,-316.14 998.53,-244.8 1047.3,-209.88"/>
<polygon fill="black" stroke="black" points="1048.97,-212.27 1055.06,-203.59 1044.89,-206.58 1048.97,-212.27"/>
</g>
<!-- ui:history&#45;&gt;ui:settings -->
<g id="edge38" class="edge">
<title>ui:history&#45;&gt;ui:settings</title>
<path fill="none" stroke="black" d="M705.66,-396.9C651,-384.14 549.96,-360.54 489.34,-346.38"/>
<polygon fill="black" stroke="black" points="490.41,-342.8 479.87,-343.94 488.82,-349.62 490.41,-342.8"/>
</g>
<!-- ui:history&#45;&gt;data -->
<g id="edge33" class="edge">
<title>ui:history&#45;&gt;data</title>
<path fill="none" stroke="black" d="M750.09,-388.55C751.91,-382.96 753.64,-376.67 754.54,-370.75 758.28,-346.39 754.8,-339.3 747.54,-315.75 723.67,-238.29 653.28,-169.06 615.38,-136.1"/>
<polygon fill="black" stroke="black" points="618.25,-133.09 608.37,-129.26 613.7,-138.41 618.25,-133.09"/>
</g>
<!-- ui:image&#45;&gt;ui:core -->
<g id="edge40" class="edge">
<title>ui:image&#45;&gt;ui:core</title>
<path fill="none" stroke="black" d="M1059.4,-171.34C1048.56,-161.6 1034.37,-148.85 1022.32,-138.02"/>
<polygon fill="black" stroke="black" points="1025.16,-135.96 1015.38,-131.88 1020.48,-141.17 1025.16,-135.96"/>
</g>
<!-- data:core -->
<g id="node15" class="node">
<title>data:core</title>
<ellipse fill="none" stroke="black" cx="1202.54" cy="-41.75" rx="44.58" ry="18"/>
<text text-anchor="middle" x="1202.54" y="-36.33" font-family="Times New Roman,serif" font-size="14.00">data:core</text>
</g>
<!-- ui:image&#45;&gt;data:core -->
<g id="edge39" class="edge">
<title>ui:image&#45;&gt;data:core</title>
<path fill="none" stroke="black" d="M1090.75,-170.51C1112.78,-145.34 1155.3,-96.74 1181.09,-67.28"/>
<polygon fill="black" stroke="black" points="1184.24,-69.98 1188.19,-60.15 1178.98,-65.37 1184.24,-69.98"/>
</g>
<!-- ui:nowplaying&#45;&gt;domain -->
<g id="edge42" class="edge">
<title>ui:nowplaying&#45;&gt;domain</title>
<path fill="none" stroke="black" d="M588.09,-315.95C562.99,-290.32 515.05,-241.35 486.53,-212.22"/>
<polygon fill="black" stroke="black" points="489.53,-210.26 480.03,-205.56 484.53,-215.16 489.53,-210.26"/>
</g>
<!-- ui:nowplaying&#45;&gt;ui:common -->
<g id="edge43" class="edge">
<title>ui:nowplaying&#45;&gt;ui:common</title>
<path fill="none" stroke="black" d="M608.18,-315.56C609.83,-307.71 611.84,-298.22 613.7,-289.41"/>
<polygon fill="black" stroke="black" points="617.3,-290.29 615.95,-279.78 610.46,-288.84 617.3,-290.29"/>
</g>
<!-- ui:nowplaying&#45;&gt;ui:core -->
<g id="edge44" class="edge">
<title>ui:nowplaying&#45;&gt;ui:core</title>
<path fill="none" stroke="black" d="M633.56,-317.42C649.17,-307.99 667.78,-294.66 680.54,-278.75 713.45,-237.74 685.79,-202.98 726.54,-169.75 760.44,-142.11 883.55,-126.45 951.58,-119.72"/>
<polygon fill="black" stroke="black" points="951.78,-123.12 961.4,-118.68 951.11,-116.16 951.78,-123.12"/>
</g>
<!-- ui:nowplaying&#45;&gt;ui:image -->
<g id="edge45" class="edge">
<title>ui:nowplaying&#45;&gt;ui:image</title>
<path fill="none" stroke="black" d="M643.56,-319.54C728.13,-290.93 921.37,-225.61 928.54,-223.75 971.42,-212.66 983.69,-216.91 1026.54,-205.75 1029.5,-204.98 1032.53,-204.12 1035.57,-203.22"/>
<polygon fill="black" stroke="black" points="1036.34,-206.33 1044.82,-199.98 1034.23,-199.65 1036.34,-206.33"/>
</g>
<!-- ui:nowplaying&#45;&gt;data -->
<g id="edge41" class="edge">
<title>ui:nowplaying&#45;&gt;data</title>
<path fill="none" stroke="black" d="M565.32,-319.64C519.63,-301.96 446.59,-265.59 416.54,-205.75 409.37,-191.45 407.05,-182.63 416.54,-169.75 447.58,-127.62 511.18,-117.39 552.28,-115.43"/>
<polygon fill="black" stroke="black" points="552.35,-118.89 562.24,-115.07 552.13,-111.9 552.35,-118.89"/>
</g>
<!-- ui:settings&#45;&gt;data&#45;android -->
<g id="edge46" class="edge">
<title>ui:settings&#45;&gt;data&#45;android</title>
<path fill="none" stroke="black" d="M410.96,-319.02C399.11,-312.97 385.38,-305.47 373.54,-297.75 332.71,-271.11 289.11,-235.28 262.09,-212.1"/>
<polygon fill="black" stroke="black" points="264.78,-208.94 254.93,-205.05 260.21,-214.23 264.78,-208.94"/>
</g>
<!-- ui:settings&#45;&gt;domain -->
<g id="edge47" class="edge">
<title>ui:settings&#45;&gt;domain</title>
<path fill="none" stroke="black" d="M454.83,-316.71C463.32,-306.66 473.05,-292.96 477.54,-278.75 484.92,-255.45 482.17,-247.75 477.54,-223.75 477.05,-221.2 476.38,-218.6 475.59,-216.03"/>
<polygon fill="black" stroke="black" points="478.58,-215 471.87,-206.8 472,-217.4 478.58,-215"/>
</g>
<!-- ui:settings&#45;&gt;ui:common -->
<g id="edge48" class="edge">
<title>ui:settings&#45;&gt;ui:common</title>
<path fill="none" stroke="black" d="M462.29,-317.5C473.47,-310.49 487.35,-302.48 500.54,-296.75 521.58,-287.62 545.71,-280.02 566.72,-274.27"/>
<polygon fill="black" stroke="black" points="567.31,-277.47 576.07,-271.52 565.51,-270.71 567.31,-277.47"/>
</g>
<!-- ui:settings&#45;&gt;ui:core -->
<g id="edge49" class="edge">
<title>ui:settings&#45;&gt;ui:core</title>
<path fill="none" stroke="black" d="M429.58,-315.91C411.66,-283.21 379.2,-210.73 416.54,-169.75 434.53,-150.02 816.93,-126.16 951.33,-118.36"/>
<polygon fill="black" stroke="black" points="951.28,-121.81 961.06,-117.74 950.88,-114.82 951.28,-121.81"/>
</g>
<!-- ui:spotify&#45;&gt;ui:common -->
<g id="edge53" class="edge">
<title>ui:spotify&#45;&gt;ui:common</title>
<path fill="none" stroke="black" d="M1289.79,-327.58C1260.48,-324.09 1220.67,-319.46 1185.54,-315.75 1001.8,-296.36 784.16,-276.46 680.43,-267.16"/>
<polygon fill="black" stroke="black" points="680.82,-263.59 670.55,-266.18 680.2,-270.56 680.82,-263.59"/>
</g>
<!-- ui:spotify&#45;&gt;ui:core -->
<g id="edge52" class="edge">
<title>ui:spotify&#45;&gt;ui:core</title>
<path fill="none" stroke="black" d="M1327.07,-315.45C1312.75,-270.27 1275.2,-152.12 1273.54,-150.75 1239.56,-122.6 1113.48,-116.81 1044.08,-115.79"/>
<polygon fill="black" stroke="black" points="1044.5,-112.29 1034.46,-115.67 1044.41,-119.29 1044.5,-112.29"/>
</g>
<!-- ui:spotify&#45;&gt;data:core -->
<g id="edge50" class="edge">
<title>ui:spotify&#45;&gt;data:core</title>
<path fill="none" stroke="black" d="M1348.51,-316.48C1360.03,-302.98 1373.54,-282.67 1373.54,-261.75 1373.54,-261.75 1373.54,-261.75 1373.54,-113.75 1373.54,-62.84 1308.09,-47.75 1258.18,-43.64"/>
<polygon fill="black" stroke="black" points="1258.69,-40.1 1248.47,-42.9 1258.21,-47.08 1258.69,-40.1"/>
</g>
<!-- data:spotify -->
<g id="node18" class="node">
<title>data:spotify</title>
<ellipse fill="none" stroke="black" cx="1050.54" cy="-41.75" rx="54.06" ry="18"/>
<text text-anchor="middle" x="1050.54" y="-36.33" font-family="Times New Roman,serif" font-size="14.00">data:spotify</text>
</g>
<!-- ui:spotify&#45;&gt;data:spotify -->
<g id="edge51" class="edge">
<title>ui:spotify&#45;&gt;data:spotify</title>
<path fill="none" stroke="black" d="M1334.27,-315.47C1336.86,-278.78 1337.07,-193.03 1288.54,-150.75 1233.66,-102.92 1154.08,-72.62 1102.32,-56.67"/>
<polygon fill="black" stroke="black" points="1103.63,-53.1 1093.04,-53.57 1101.61,-59.81 1103.63,-53.1"/>
</g>
<!-- ui:stats&#45;&gt;ui:common -->
<g id="edge55" class="edge">
<title>ui:stats&#45;&gt;ui:common</title>
<path fill="none" stroke="black" d="M1105.96,-328.04C1018.4,-316.1 787.19,-284.6 678.1,-269.73"/>
<polygon fill="black" stroke="black" points="678.69,-266.14 668.3,-268.26 677.74,-273.08 678.69,-266.14"/>
</g>
<!-- ui:stats&#45;&gt;ui:core -->
<g id="edge56" class="edge">
<title>ui:stats&#45;&gt;ui:core</title>
<path fill="none" stroke="black" d="M1149.27,-316.1C1164.57,-284.35 1191.7,-214.36 1159.54,-169.75 1133.43,-133.52 1081.96,-121.23 1044.02,-117.25"/>
<polygon fill="black" stroke="black" points="1044.48,-113.69 1034.21,-116.3 1043.87,-120.66 1044.48,-113.69"/>
</g>
<!-- ui:stats&#45;&gt;data -->
<g id="edge54" class="edge">
<title>ui:stats&#45;&gt;data</title>
<path fill="none" stroke="black" d="M1145.28,-315.61C1153.32,-282.37 1165.22,-209 1126.54,-169.75 1091.64,-134.33 744.82,-120.49 628.42,-116.82"/>
<polygon fill="black" stroke="black" points="628.68,-113.3 618.57,-116.49 628.46,-120.3 628.68,-113.3"/>
</g>
<!-- data&#45;&gt;data:core -->
<g id="edge13" class="edge">
<title>data&#45;&gt;data:core</title>
<path fill="none" stroke="red" d="M617.59,-111.78C695.1,-105.96 924.57,-87.5 1113.54,-59.75 1126.43,-57.86 1140.3,-55.41 1153.16,-52.97"/>
<polygon fill="red" stroke="red" points="1153.53,-56.26 1162.68,-50.92 1152.19,-49.39 1153.53,-56.26"/>
</g>
<!-- data:common:network -->
<g id="node16" class="node">
<title>data:common:network</title>
<ellipse fill="none" stroke="black" cx="590.54" cy="-41.75" rx="92.98" ry="18"/>
<text text-anchor="middle" x="590.54" y="-36.33" font-family="Times New Roman,serif" font-size="14.00">data:common:network</text>
</g>
<!-- data&#45;&gt;data:common:network -->
<g id="edge14" class="edge">
<title>data&#45;&gt;data:common:network</title>
<path fill="none" stroke="red" d="M590.54,-96.56C590.54,-88.8 590.54,-79.43 590.54,-70.7"/>
<polygon fill="red" stroke="red" points="594.04,-70.78 590.54,-60.78 587.04,-70.78 594.04,-70.78"/>
</g>
<!-- data:coverart -->
<g id="node17" class="node">
<title>data:coverart</title>
<ellipse fill="none" stroke="black" cx="760.54" cy="-41.75" rx="58.55" ry="18"/>
<text text-anchor="middle" x="760.54" y="-36.33" font-family="Times New Roman,serif" font-size="14.00">data:coverart</text>
</g>
<!-- data&#45;&gt;data:coverart -->
<g id="edge15" class="edge">
<title>data&#45;&gt;data:coverart</title>
<path fill="none" stroke="red" d="M613.12,-104.32C639.48,-93.31 683.68,-74.85 716.82,-61.01"/>
<polygon fill="red" stroke="red" points="717.84,-63.96 725.72,-56.88 715.15,-57.5 717.84,-63.96"/>
</g>
<!-- data&#45;&gt;data:spotify -->
<g id="edge16" class="edge">
<title>data&#45;&gt;data:spotify</title>
<path fill="none" stroke="red" d="M616.93,-109.68C689.04,-98.55 890.77,-67.41 991.61,-51.85"/>
<polygon fill="red" stroke="red" points="991.87,-55.19 1001.22,-50.21 990.8,-48.28 991.87,-55.19"/>
</g>
<!-- data:musicbrainz -->
<g id="node19" class="node">
<title>data:musicbrainz</title>
<ellipse fill="none" stroke="black" cx="406.54" cy="-41.75" rx="72.52" ry="18"/>
<text text-anchor="middle" x="406.54" y="-36.33" font-family="Times New Roman,serif" font-size="14.00">data:musicbrainz</text>
</g>
<!-- data&#45;&gt;data:musicbrainz -->
<g id="edge17" class="edge">
<title>data&#45;&gt;data:musicbrainz</title>
<path fill="none" stroke="red" d="M567.61,-104.9C539.43,-94.03 490.88,-75.29 454.44,-61.23"/>
<polygon fill="red" stroke="red" points="456.09,-57.73 445.5,-57.4 453.57,-64.26 456.09,-57.73"/>
</g>
<!-- desktop&#45;app -->
<g id="node20" class="node">
<title>desktop&#45;app</title>
<ellipse fill="none" stroke="black" cx="793.54" cy="-187.75" rx="57.55" ry="18"/>
<text text-anchor="middle" x="793.54" y="-182.32" font-family="Times New Roman,serif" font-size="14.00">desktop&#45;app</text>
</g>
<!-- desktop&#45;app&#45;&gt;ui:core -->
<g id="edge19" class="edge">
<title>desktop&#45;app&#45;&gt;ui:core</title>
<path fill="none" stroke="black" d="M830.96,-173.73C867.18,-161.12 921.87,-142.09 958.6,-129.3"/>
<polygon fill="black" stroke="black" points="959.62,-132.31 967.92,-125.71 957.32,-125.69 959.62,-132.31"/>
</g>
<!-- test&#45;data -->
<g id="node21" class="node">
<title>test&#45;data</title>
<ellipse fill="none" stroke="black" cx="561.54" cy="-187.75" rx="42.08" ry="18"/>
<text text-anchor="middle" x="561.54" y="-182.32" font-family="Times New Roman,serif" font-size="14.00">test&#45;data</text>
</g>
<!-- test&#45;data&#45;&gt;data -->
<g id="edge20" class="edge">
<title>test&#45;data&#45;&gt;data</title>
<path fill="none" stroke="black" d="M568.56,-169.56C571.89,-161.42 575.94,-151.51 579.65,-142.42"/>
<polygon fill="black" stroke="black" points="583.25,-143.87 583.79,-133.29 576.77,-141.22 583.25,-143.87"/>
</g>
<!-- ui:test:screenshot -->
<g id="node22" class="node">
<title>ui:test:screenshot</title>
<ellipse fill="none" stroke="black" cx="943.54" cy="-187.75" rx="74.02" ry="18"/>
<text text-anchor="middle" x="943.54" y="-182.32" font-family="Times New Roman,serif" font-size="14.00">ui:test:screenshot</text>
</g>
<!-- ui:test:screenshot&#45;&gt;ui:core -->
<g id="edge57" class="edge">
<title>ui:test:screenshot&#45;&gt;ui:core</title>
<path fill="none" stroke="black" d="M966.18,-170.26C972.42,-164.89 978.78,-158.55 983.54,-151.75 985.45,-149.04 987.14,-146.03 988.62,-142.94"/>
<polygon fill="black" stroke="black" points="992.12,-144.66 992.7,-134.08 985.65,-141.98 992.12,-144.66"/>
</g>
<!-- module -->
<g id="node23" class="node">
<title>module</title>
<ellipse fill="none" stroke="black" cx="1393.54" cy="-490" rx="27" ry="18"/>
<text text-anchor="middle" x="1393.54" y="-486.12" font-family="Times New Roman,serif" font-size="10.00">module</text>
</g>
<!-- dependency -->
<g id="node24" class="node">
<title>dependency</title>
<ellipse fill="none" stroke="black" cx="1393.54" cy="-406.75" rx="38.76" ry="18"/>
<text text-anchor="middle" x="1393.54" y="-402.88" font-family="Times New Roman,serif" font-size="10.00">dependency</text>
</g>
<!-- module&#45;&gt;dependency -->
<g id="edge58" class="edge">
<title>module&#45;&gt;dependency</title>
<path fill="none" stroke="red" d="M1376.04,-475.93C1369.57,-470.03 1362.98,-462.48 1359.54,-454 1356.1,-445.5 1359.52,-437.14 1365.32,-429.91"/>
<polygon fill="red" stroke="red" points="1367.52,-432.64 1371.95,-423.01 1362.48,-427.77 1367.52,-432.64"/>
<text text-anchor="middle" x="1365.54" y="-444.5" font-family="Times New Roman,serif" font-size="10.00">api</text>
</g>
<!-- module&#45;&gt;dependency -->
<g id="edge59" class="edge">
<title>module&#45;&gt;dependency</title>
<path fill="none" stroke="black" d="M1393.54,-471.77C1393.54,-461.39 1393.54,-447.92 1393.54,-436.02"/>
<polygon fill="black" stroke="black" points="1397.04,-436.24 1393.54,-426.24 1390.04,-436.24 1397.04,-436.24"/>
<text text-anchor="middle" x="1423.92" y="-444.5" font-family="Times New Roman,serif" font-size="10.00">implementation</text>
</g>
<!-- module&#45;&gt;dependency -->
<g id="edge60" class="edge">
<title>module&#45;&gt;dependency</title>
<path fill="none" stroke="green" d="M1418.25,-481.87C1431.83,-476.55 1447.51,-467.77 1455.54,-454 1463.58,-440.23 1450.84,-429.29 1434.85,-421.51"/>
<polygon fill="green" stroke="green" points="1436.76,-418.09 1426.2,-417.3 1433.96,-424.51 1436.76,-418.09"/>
<text text-anchor="middle" x="1472.92" y="-444.5" font-family="Times New Roman,serif" font-size="10.00">compile</text>
</g>
</g>
</svg>
