<?xml version="1.0" encoding="UTF-8" standalone="no"?>
<!DOCTYPE svg PUBLIC "-//W3C//DTD SVG 1.1//EN"
 "http://www.w3.org/Graphics/SVG/1.1/DTD/svg11.dtd">
<!-- Generated by graphviz version 2.43.0 (0)
 -->
<!-- Title: %3 Pages: 1 -->
<svg width="2520pt" height="1214pt"
 viewBox="0.00 0.00 2520.14 1214.00" xmlns="http://www.w3.org/2000/svg" xmlns:xlink="http://www.w3.org/1999/xlink">
<g id="graph0" class="graph" transform="scale(1 1) rotate(0) translate(4 1210)">
<title>%3</title>
<polygon fill="white" stroke="transparent" points="-4,4 -4,-1210 2516.14,-1210 2516.14,4 -4,4"/>
<text text-anchor="middle" x="1256.07" y="-1178" font-family="Times,serif" font-size="30.00">MusicSearch</text>
<text text-anchor="middle" x="1256.07" y="-1145" font-family="Times,serif" font-size="30.00"> </text>
<!-- :app -->
<g id="node1" class="node">
<title>:app</title>
<polygon fill="#9affb5" stroke="black" points="1199.14,-1132 839.14,-1132 839.14,-1096 1199.14,-1096 1199.14,-1132"/>
<text text-anchor="middle" x="1019.14" y="-1110.3" font-family="Times,serif" font-size="14.00">:app</text>
</g>
<!-- :test&#45;data -->
<g id="node2" class="node">
<title>:test&#45;data</title>
<ellipse fill="#b59aff" stroke="black" cx="697.14" cy="-429" rx="55.49" ry="18"/>
<text text-anchor="middle" x="697.14" y="-425.3" font-family="Times,serif" font-size="14.00">:test&#45;data</text>
</g>
<!-- :app&#45;&gt;:test&#45;data -->
<g id="edge1" class="edge">
<title>:app&#45;&gt;:test&#45;data</title>
<path fill="none" stroke="#ff9ab1" stroke-dasharray="1,5" d="M1019.24,-1095.7C1019.24,-988.16 1019.24,-443 1019.24,-443 1019.24,-443 741.92,-443 741.92,-443"/>
<polygon fill="#ff9ab1" stroke="#ff9ab1" points="741.92,-439.5 731.92,-443 741.92,-446.5 741.92,-439.5"/>
</g>
<!-- :data&#45;android -->
<g id="node3" class="node">
<title>:data&#45;android</title>
<ellipse fill="#9affb5" stroke="black" cx="717.14" cy="-566" rx="72.59" ry="18"/>
<text text-anchor="middle" x="717.14" y="-562.3" font-family="Times,serif" font-size="14.00">:data&#45;android</text>
</g>
<!-- :app&#45;&gt;:data&#45;android -->
<g id="edge2" class="edge">
<title>:app&#45;&gt;:data&#45;android</title>
<path fill="none" stroke="black" stroke-dasharray="1,5" d="M839.11,-1106C745.28,-1106 649.87,-1106 649.87,-1106 649.87,-1106 649.87,-583.23 649.87,-583.23"/>
<polygon fill="black" stroke="black" points="653.37,-583.23 649.87,-573.23 646.37,-583.23 653.37,-583.23"/>
</g>
<!-- :data:database -->
<g id="node4" class="node">
<title>:data:database</title>
<ellipse fill="#b59aff" stroke="black" cx="205.14" cy="-429" rx="79.09" ry="18"/>
<text text-anchor="middle" x="205.14" y="-425.3" font-family="Times,serif" font-size="14.00">:data:database</text>
</g>
<!-- :app&#45;&gt;:data:database -->
<g id="edge3" class="edge">
<title>:app&#45;&gt;:data:database</title>
<path fill="none" stroke="black" stroke-dasharray="1,5" d="M838.89,-1121C595.84,-1121 193.11,-1121 193.11,-1121 193.11,-1121 193.11,-456.8 193.11,-456.8"/>
<polygon fill="black" stroke="black" points="196.62,-456.8 193.11,-446.8 189.62,-456.8 196.62,-456.8"/>
</g>
<!-- :data:repository -->
<g id="node5" class="node">
<title>:data:repository</title>
<ellipse fill="#b59aff" stroke="black" cx="85.14" cy="-566" rx="85.29" ry="18"/>
<text text-anchor="middle" x="85.14" y="-562.3" font-family="Times,serif" font-size="14.00">:data:repository</text>
</g>
<!-- :app&#45;&gt;:data:repository -->
<g id="edge4" class="edge">
<title>:app&#45;&gt;:data:repository</title>
<path fill="none" stroke="black" stroke-dasharray="1,5" d="M839.06,-1126C567.65,-1126 85.14,-1126 85.14,-1126 85.14,-1126 85.14,-594.31 85.14,-594.31"/>
<polygon fill="black" stroke="black" points="88.64,-594.31 85.14,-584.31 81.64,-594.31 88.64,-594.31"/>
</g>
<!-- :domain -->
<g id="node6" class="node">
<title>:domain</title>
<ellipse fill="#b59aff" stroke="black" cx="578.14" cy="-566" rx="48.19" ry="18"/>
<text text-anchor="middle" x="578.14" y="-562.3" font-family="Times,serif" font-size="14.00">:domain</text>
</g>
<!-- :app&#45;&gt;:domain -->
<g id="edge5" class="edge">
<title>:app&#45;&gt;:domain</title>
<path fill="none" stroke="black" stroke-dasharray="1,5" d="M839.12,-1111C703.95,-1111 542.07,-1111 542.07,-1111 542.07,-1111 542.07,-588.15 542.07,-588.15"/>
<polygon fill="black" stroke="black" points="545.57,-588.15 542.07,-578.15 538.57,-588.15 545.57,-588.15"/>
</g>
<!-- :inverted&#45;domain -->
<g id="node7" class="node">
<title>:inverted&#45;domain</title>
<ellipse fill="#b59aff" stroke="black" cx="350.14" cy="-292" rx="89.88" ry="18"/>
<text text-anchor="middle" x="350.14" y="-288.3" font-family="Times,serif" font-size="14.00">:inverted&#45;domain</text>
</g>
<!-- :app&#45;&gt;:inverted&#45;domain -->
<g id="edge6" class="edge">
<title>:app&#45;&gt;:inverted&#45;domain</title>
<path fill="none" stroke="black" stroke-dasharray="1,5" d="M838.85,-1116C630.38,-1116 315.52,-1116 315.52,-1116 315.52,-1116 315.52,-318.83 315.52,-318.83"/>
<polygon fill="black" stroke="black" points="319.02,-318.83 315.52,-308.83 312.02,-318.83 319.02,-318.83"/>
</g>
<!-- :feature:search -->
<g id="node8" class="node">
<title>:feature:search</title>
<ellipse fill="#9affb5" stroke="black" cx="910.14" cy="-840" rx="81.49" ry="18"/>
<text text-anchor="middle" x="910.14" y="-836.3" font-family="Times,serif" font-size="14.00">:feature:search</text>
</g>
<!-- :app&#45;&gt;:feature:search -->
<g id="edge7" class="edge">
<title>:app&#45;&gt;:feature:search</title>
<path fill="none" stroke="black" stroke-dasharray="1,5" d="M915.26,-1095.6C915.26,-1095.6 915.26,-867.97 915.26,-867.97"/>
<polygon fill="black" stroke="black" points="918.76,-867.97 915.26,-857.97 911.76,-867.97 918.76,-867.97"/>
</g>
<!-- :strings -->
<g id="node9" class="node">
<title>:strings</title>
<ellipse fill="#b59aff" stroke="black" cx="1262.14" cy="-566" rx="46.29" ry="18"/>
<text text-anchor="middle" x="1262.14" y="-562.3" font-family="Times,serif" font-size="14.00">:strings</text>
</g>
<!-- :app&#45;&gt;:strings -->
<g id="edge8" class="edge">
<title>:app&#45;&gt;:strings</title>
<path fill="none" stroke="black" stroke-dasharray="1,5" d="M1181.84,-1095.86C1181.84,-1002.23 1181.84,-578 1181.84,-578 1181.84,-578 1217.62,-578 1217.62,-578"/>
<polygon fill="black" stroke="black" points="1217.62,-581.5 1227.62,-578 1217.62,-574.5 1217.62,-581.5"/>
</g>
<!-- :ui:common -->
<g id="node10" class="node">
<title>:ui:common</title>
<ellipse fill="#9affb5" stroke="black" cx="1392.14" cy="-703" rx="64.19" ry="18"/>
<text text-anchor="middle" x="1392.14" y="-699.3" font-family="Times,serif" font-size="14.00">:ui:common</text>
</g>
<!-- :app&#45;&gt;:ui:common -->
<g id="edge9" class="edge">
<title>:app&#45;&gt;:ui:common</title>
<path fill="none" stroke="black" stroke-dasharray="1,5" d="M1186.16,-1095.86C1186.16,-1018 1186.16,-716 1186.16,-716 1186.16,-716 1337.45,-716 1337.45,-716"/>
<polygon fill="black" stroke="black" points="1337.45,-719.5 1347.45,-716 1337.45,-712.5 1337.45,-719.5"/>
</g>
<!-- :ui:core -->
<g id="node11" class="node">
<title>:ui:core</title>
<ellipse fill="#b59aff" stroke="black" cx="1878.14" cy="-429" rx="45.49" ry="18"/>
<text text-anchor="middle" x="1878.14" y="-425.3" font-family="Times,serif" font-size="14.00">:ui:core</text>
</g>
<!-- :app&#45;&gt;:ui:core -->
<g id="edge10" class="edge">
<title>:app&#45;&gt;:ui:core</title>
<path fill="none" stroke="black" stroke-dasharray="1,5" d="M1177.51,-1095.98C1177.51,-987.58 1177.51,-427 1177.51,-427 1177.51,-427 1822.71,-427 1822.71,-427"/>
<polygon fill="black" stroke="black" points="1822.71,-430.5 1832.71,-427 1822.71,-423.5 1822.71,-430.5"/>
</g>
<!-- :ui:collections -->
<g id="node12" class="node">
<title>:ui:collections</title>
<ellipse fill="#9affb5" stroke="black" cx="730.14" cy="-977" rx="74.99" ry="18"/>
<text text-anchor="middle" x="730.14" y="-973.3" font-family="Times,serif" font-size="14.00">:ui:collections</text>
</g>
<!-- :app&#45;&gt;:ui:collections -->
<g id="edge11" class="edge">
<title>:app&#45;&gt;:ui:collections</title>
<path fill="none" stroke="black" stroke-dasharray="1,5" d="M838.99,-1101C780.39,-1101 730.14,-1101 730.14,-1101 730.14,-1101 730.14,-1005.03 730.14,-1005.03"/>
<polygon fill="black" stroke="black" points="733.64,-1005.03 730.14,-995.03 726.64,-1005.03 733.64,-1005.03"/>
</g>
<!-- :ui:history -->
<g id="node13" class="node">
<title>:ui:history</title>
<ellipse fill="#9affb5" stroke="black" cx="1424.14" cy="-977" rx="57.69" ry="18"/>
<text text-anchor="middle" x="1424.14" y="-973.3" font-family="Times,serif" font-size="14.00">:ui:history</text>
</g>
<!-- :app&#45;&gt;:ui:history -->
<g id="edge12" class="edge">
<title>:app&#45;&gt;:ui:history</title>
<path fill="none" stroke="black" stroke-dasharray="1,5" d="M1194.82,-1095.97C1194.82,-1061.58 1194.82,-990 1194.82,-990 1194.82,-990 1373.93,-990 1373.93,-990"/>
<polygon fill="black" stroke="black" points="1373.93,-993.5 1383.93,-990 1373.93,-986.5 1373.93,-993.5"/>
</g>
<!-- :ui:image -->
<g id="node14" class="node">
<title>:ui:image</title>
<ellipse fill="#b59aff" stroke="black" cx="2136.14" cy="-566" rx="53.89" ry="18"/>
<text text-anchor="middle" x="2136.14" y="-562.3" font-family="Times,serif" font-size="14.00">:ui:image</text>
</g>
<!-- :app&#45;&gt;:ui:image -->
<g id="edge13" class="edge">
<title>:app&#45;&gt;:ui:image</title>
<path fill="none" stroke="black" stroke-dasharray="1,5" d="M1199.24,-1123C1515.66,-1123 2138.15,-1123 2138.15,-1123 2138.15,-1123 2138.15,-594.22 2138.15,-594.22"/>
<polygon fill="black" stroke="black" points="2141.65,-594.22 2138.15,-584.22 2134.65,-594.22 2141.65,-594.22"/>
</g>
<!-- :ui:nowplaying -->
<g id="node15" class="node">
<title>:ui:nowplaying</title>
<ellipse fill="#9affb5" stroke="black" cx="1445.14" cy="-840" rx="78.79" ry="18"/>
<text text-anchor="middle" x="1445.14" y="-836.3" font-family="Times,serif" font-size="14.00">:ui:nowplaying</text>
</g>
<!-- :app&#45;&gt;:ui:nowplaying -->
<g id="edge14" class="edge">
<title>:app&#45;&gt;:ui:nowplaying</title>
<path fill="none" stroke="black" stroke-dasharray="1,5" d="M1190.49,-1095.85C1190.49,-1036.21 1190.49,-850 1190.49,-850 1190.49,-850 1369.56,-850 1369.56,-850"/>
<polygon fill="black" stroke="black" points="1369.56,-853.5 1379.56,-850 1369.56,-846.5 1369.56,-853.5"/>
</g>
<!-- :ui:settings -->
<g id="node16" class="node">
<title>:ui:settings</title>
<ellipse fill="#9affb5" stroke="black" cx="1110.14" cy="-840" rx="63.09" ry="18"/>
<text text-anchor="middle" x="1110.14" y="-836.3" font-family="Times,serif" font-size="14.00">:ui:settings</text>
</g>
<!-- :app&#45;&gt;:ui:settings -->
<g id="edge15" class="edge">
<title>:app&#45;&gt;:ui:settings</title>
<path fill="none" stroke="black" stroke-dasharray="1,5" d="M1110.14,-1095.6C1110.14,-1095.6 1110.14,-868.32 1110.14,-868.32"/>
<polygon fill="black" stroke="black" points="1113.64,-868.32 1110.14,-858.32 1106.64,-868.32 1113.64,-868.32"/>
</g>
<!-- :ui:spotify&#45;broadcast&#45;receiver -->
<g id="node17" class="node">
<title>:ui:spotify&#45;broadcast&#45;receiver</title>
<ellipse fill="#9affb5" stroke="black" cx="1917.14" cy="-840" rx="146.77" ry="18"/>
<text text-anchor="middle" x="1917.14" y="-836.3" font-family="Times,serif" font-size="14.00">:ui:spotify&#45;broadcast&#45;receiver</text>
</g>
<!-- :app&#45;&gt;:ui:spotify&#45;broadcast&#45;receiver -->
<g id="edge16" class="edge">
<title>:app&#45;&gt;:ui:spotify&#45;broadcast&#45;receiver</title>
<path fill="none" stroke="black" stroke-dasharray="1,5" d="M1199.25,-1114C1461.39,-1114 1917.14,-1114 1917.14,-1114 1917.14,-1114 1917.14,-868.4 1917.14,-868.4"/>
<polygon fill="black" stroke="black" points="1920.64,-868.4 1917.14,-858.4 1913.64,-868.4 1920.64,-868.4"/>
</g>
<!-- :ui:stats -->
<g id="node18" class="node">
<title>:ui:stats</title>
<ellipse fill="#9affb5" stroke="black" cx="1704.14" cy="-840" rx="48.19" ry="18"/>
<text text-anchor="middle" x="1704.14" y="-836.3" font-family="Times,serif" font-size="14.00">:ui:stats</text>
</g>
<!-- :app&#45;&gt;:ui:stats -->
<g id="edge17" class="edge">
<title>:app&#45;&gt;:ui:stats</title>
<path fill="none" stroke="black" stroke-dasharray="1,5" d="M1199.57,-1105C1402.52,-1105 1704.14,-1105 1704.14,-1105 1704.14,-1105 1704.14,-868.21 1704.14,-868.21"/>
<polygon fill="black" stroke="black" points="1707.64,-868.21 1704.14,-858.21 1700.64,-868.21 1707.64,-868.21"/>
</g>
<!-- :test&#45;data&#45;&gt;:inverted&#45;domain -->
<g id="edge26" class="edge">
<title>:test&#45;data&#45;&gt;:inverted&#45;domain</title>
<path fill="none" stroke="black" stroke-dasharray="1,5" d="M678.73,-411.88C678.73,-377.65 678.73,-304 678.73,-304 678.73,-304 427.03,-304 427.03,-304"/>
<polygon fill="black" stroke="black" points="427.03,-300.5 417.03,-304 427.03,-307.5 427.03,-300.5"/>
</g>
<!-- :data -->
<g id="node19" class="node">
<title>:data</title>
<ellipse fill="#ffb59a" stroke="black" cx="830.14" cy="-292" rx="34.39" ry="18"/>
<text text-anchor="middle" x="830.14" y="-288.3" font-family="Times,serif" font-size="14.00">:data</text>
</g>
<!-- :test&#45;data&#45;&gt;:data -->
<g id="edge25" class="edge">
<title>:test&#45;data&#45;&gt;:data</title>
<path fill="none" stroke="black" stroke-dasharray="1,5" d="M727.92,-414C757.26,-414 797.01,-414 797.01,-414 797.01,-414 797.01,-306.93 797.01,-306.93"/>
<polygon fill="black" stroke="black" points="800.51,-306.93 797.01,-296.93 793.51,-306.93 800.51,-306.93"/>
</g>
<!-- :data&#45;android&#45;&gt;:test&#45;data -->
<g id="edge19" class="edge">
<title>:data&#45;android&#45;&gt;:test&#45;data</title>
<path fill="none" stroke="#ff9ab1" stroke-dasharray="1,5" d="M698.37,-548.37C698.37,-548.37 698.37,-457 698.37,-457"/>
<polygon fill="#ff9ab1" stroke="#ff9ab1" points="701.87,-457 698.37,-447 694.87,-457 701.87,-457"/>
</g>
<!-- :data&#45;android&#45;&gt;:data -->
<g id="edge18" class="edge">
<title>:data&#45;android&#45;&gt;:data</title>
<path fill="none" stroke="black" d="M771.74,-554C786.42,-554 798.32,-554 798.32,-554 798.32,-554 798.32,-309.01 798.32,-309.01"/>
<polygon fill="black" stroke="black" points="801.82,-309.01 798.32,-299.01 794.82,-309.01 801.82,-309.01"/>
</g>
<!-- :data:core -->
<g id="node20" class="node">
<title>:data:core</title>
<ellipse fill="#b59aff" stroke="black" cx="628.14" cy="-18" rx="57.39" ry="18"/>
<text text-anchor="middle" x="628.14" y="-14.3" font-family="Times,serif" font-size="14.00">:data:core</text>
</g>
<!-- :data:database&#45;&gt;:data:core -->
<g id="edge34" class="edge">
<title>:data:database&#45;&gt;:data:core</title>
<path fill="none" stroke="black" stroke-dasharray="1,5" d="M284.61,-429C395.76,-429 584.21,-429 584.21,-429 584.21,-429 584.21,-39.86 584.21,-39.86"/>
<polygon fill="black" stroke="black" points="587.71,-39.86 584.21,-29.86 580.71,-39.86 587.71,-39.86"/>
</g>
<!-- :data:common:network -->
<g id="node21" class="node">
<title>:data:common:network</title>
<ellipse fill="#b59aff" stroke="black" cx="431.14" cy="-155" rx="116.98" ry="18"/>
<text text-anchor="middle" x="431.14" y="-151.3" font-family="Times,serif" font-size="14.00">:data:common:network</text>
</g>
<!-- :data:database&#45;&gt;:data:common:network -->
<g id="edge35" class="edge">
<title>:data:database&#45;&gt;:data:common:network</title>
<path fill="none" stroke="black" stroke-dasharray="1,5" d="M273.95,-420C356.79,-420 484.94,-420 484.94,-420 484.94,-420 484.94,-181.18 484.94,-181.18"/>
<polygon fill="black" stroke="black" points="488.44,-181.18 484.94,-171.18 481.44,-181.18 488.44,-181.18"/>
</g>
<!-- :data:musicbrainz -->
<g id="node24" class="node">
<title>:data:musicbrainz</title>
<ellipse fill="#b59aff" stroke="black" cx="164.14" cy="-155" rx="93.68" ry="18"/>
<text text-anchor="middle" x="164.14" y="-151.3" font-family="Times,serif" font-size="14.00">:data:musicbrainz</text>
</g>
<!-- :data:database&#45;&gt;:data:musicbrainz -->
<g id="edge36" class="edge">
<title>:data:database&#45;&gt;:data:musicbrainz</title>
<path fill="none" stroke="black" stroke-dasharray="1,5" d="M158.82,-414.27C158.82,-414.27 158.82,-183.31 158.82,-183.31"/>
<polygon fill="black" stroke="black" points="162.32,-183.31 158.82,-173.31 155.32,-183.31 162.32,-183.31"/>
</g>
<!-- :data:repository&#45;&gt;:data:database -->
<g id="edge41" class="edge">
<title>:data:repository&#45;&gt;:data:database</title>
<path fill="none" stroke="black" stroke-dasharray="1,5" d="M148.07,-553.84C148.07,-553.84 148.07,-451.73 148.07,-451.73"/>
<polygon fill="black" stroke="black" points="151.57,-451.73 148.07,-441.73 144.57,-451.73 151.57,-451.73"/>
</g>
<!-- :data:repository&#45;&gt;:inverted&#45;domain -->
<g id="edge43" class="edge">
<title>:data:repository&#45;&gt;:inverted&#45;domain</title>
<path fill="none" stroke="black" stroke-dasharray="1,5" d="M107.42,-548.44C107.42,-487.97 107.42,-292 107.42,-292 107.42,-292 250.45,-292 250.45,-292"/>
<polygon fill="black" stroke="black" points="250.45,-295.5 260.45,-292 250.45,-288.5 250.45,-295.5"/>
</g>
<!-- :data:repository&#45;&gt;:data:core -->
<g id="edge40" class="edge">
<title>:data:repository&#45;&gt;:data:core</title>
<path fill="none" stroke="black" stroke-dasharray="1,5" d="M35.28,-551.18C35.28,-463.08 35.28,-12 35.28,-12 35.28,-12 563.96,-12 563.96,-12"/>
<polygon fill="black" stroke="black" points="563.96,-15.5 573.96,-12 563.96,-8.5 563.96,-15.5"/>
</g>
<!-- :data:repository&#45;&gt;:data:musicbrainz -->
<g id="edge42" class="edge">
<title>:data:repository&#45;&gt;:data:musicbrainz</title>
<path fill="none" stroke="black" stroke-dasharray="1,5" d="M88.98,-547.81C88.98,-547.81 88.98,-175.89 88.98,-175.89"/>
<polygon fill="black" stroke="black" points="92.48,-175.89 88.98,-165.89 85.48,-175.89 92.48,-175.89"/>
</g>
<!-- :domain&#45;&gt;:data:database -->
<g id="edge30" class="edge">
<title>:domain&#45;&gt;:data:database</title>
<path fill="none" stroke="black" stroke-dasharray="1,5" d="M533.66,-559.12C533.66,-532.53 533.66,-438 533.66,-438 533.66,-438 284.01,-438 284.01,-438"/>
<polygon fill="black" stroke="black" points="284.01,-434.5 274.01,-438 284.01,-441.5 284.01,-434.5"/>
</g>
<!-- :domain&#45;&gt;:data:core -->
<g id="edge27" class="edge">
<title>:domain&#45;&gt;:data:core</title>
<path fill="none" stroke="black" stroke-dasharray="1,5" d="M590.84,-548.39C590.84,-548.39 590.84,-41.66 590.84,-41.66"/>
<polygon fill="black" stroke="black" points="594.34,-41.66 590.84,-31.66 587.34,-41.66 594.34,-41.66"/>
</g>
<!-- :domain&#45;&gt;:data:common:network -->
<g id="edge28" class="edge">
<title>:domain&#45;&gt;:data:common:network</title>
<path fill="none" stroke="black" stroke-dasharray="1,5" d="M540.9,-554.58C540.9,-554.58 540.9,-171.4 540.9,-171.4"/>
<polygon fill="black" stroke="black" points="544.4,-171.4 540.9,-161.4 537.4,-171.4 544.4,-171.4"/>
</g>
<!-- :data:coverart -->
<g id="node22" class="node">
<title>:data:coverart</title>
<ellipse fill="#b59aff" stroke="black" cx="680.14" cy="-155" rx="76.09" ry="18"/>
<text text-anchor="middle" x="680.14" y="-151.3" font-family="Times,serif" font-size="14.00">:data:coverart</text>
</g>
<!-- :domain&#45;&gt;:data:coverart -->
<g id="edge29" class="edge">
<title>:domain&#45;&gt;:data:coverart</title>
<path fill="none" stroke="black" stroke-dasharray="1,5" d="M615.17,-554.14C615.17,-554.14 615.17,-174.64 615.17,-174.64"/>
<polygon fill="black" stroke="black" points="618.67,-174.64 615.17,-164.64 611.67,-174.64 618.67,-174.64"/>
</g>
<!-- :domain&#45;&gt;:data:musicbrainz -->
<g id="edge31" class="edge">
<title>:domain&#45;&gt;:data:musicbrainz</title>
<path fill="none" stroke="black" stroke-dasharray="1,5" d="M537.28,-556.34C537.28,-515.61 537.28,-360 537.28,-360 537.28,-360 191.79,-360 191.79,-360 191.79,-360 191.79,-182.48 191.79,-182.48"/>
<polygon fill="black" stroke="black" points="195.29,-182.48 191.79,-172.48 188.29,-182.48 195.29,-182.48"/>
</g>
<!-- :inverted&#45;domain&#45;&gt;:data:core -->
<g id="edge32" class="edge">
<title>:inverted&#45;domain&#45;&gt;:data:core</title>
<path fill="none" stroke="black" stroke-dasharray="1,5" d="M440.03,-292C503.6,-292 577.58,-292 577.58,-292 577.58,-292 577.58,-36.5 577.58,-36.5"/>
<polygon fill="black" stroke="black" points="581.08,-36.5 577.58,-26.5 574.08,-36.5 581.08,-36.5"/>
</g>
<!-- :feature:search&#45;&gt;:data:database -->
<g id="edge46" class="edge">
<title>:feature:search&#45;&gt;:data:database</title>
<path fill="none" stroke="black" stroke-dasharray="1,5" d="M833.46,-846C657.3,-846 238.78,-846 238.78,-846 238.78,-846 238.78,-455.35 238.78,-455.35"/>
<polygon fill="black" stroke="black" points="242.28,-455.35 238.78,-445.35 235.28,-455.35 242.28,-455.35"/>
</g>
<!-- :feature:search&#45;&gt;:domain -->
<g id="edge45" class="edge">
<title>:feature:search&#45;&gt;:domain</title>
<path fill="none" stroke="black" stroke-dasharray="1,5" d="M833.14,-834C735.06,-834 578.14,-834 578.14,-834 578.14,-834 578.14,-594 578.14,-594"/>
<polygon fill="black" stroke="black" points="581.64,-594 578.14,-584 574.64,-594 581.64,-594"/>
</g>
<!-- :feature:search&#45;&gt;:strings -->
<g id="edge47" class="edge">
<title>:feature:search&#45;&gt;:strings</title>
<path fill="none" stroke="black" stroke-dasharray="1,5" d="M959.65,-825.65C959.65,-769.28 959.65,-566 959.65,-566 959.65,-566 1205.87,-566 1205.87,-566"/>
<polygon fill="black" stroke="black" points="1205.87,-569.5 1215.87,-566 1205.87,-562.5 1205.87,-569.5"/>
</g>
<!-- :feature:search&#45;&gt;:ui:common -->
<g id="edge48" class="edge">
<title>:feature:search&#45;&gt;:ui:common</title>
<path fill="none" stroke="black" stroke-dasharray="1,5" d="M975.52,-829.09C975.52,-798.13 975.52,-712 975.52,-712 975.52,-712 1326.39,-712 1326.39,-712"/>
<polygon fill="black" stroke="black" points="1326.39,-715.5 1336.39,-712 1326.39,-708.5 1326.39,-715.5"/>
</g>
<!-- :feature:search&#45;&gt;:ui:core -->
<g id="edge49" class="edge">
<title>:feature:search&#45;&gt;:ui:core</title>
<path fill="none" stroke="black" stroke-dasharray="1,5" d="M927.91,-822.22C927.91,-742.28 927.91,-420 927.91,-420 927.91,-420 1828.52,-420 1828.52,-420"/>
<polygon fill="black" stroke="black" points="1828.52,-423.5 1838.52,-420 1828.52,-416.5 1828.52,-423.5"/>
</g>
<!-- :feature:search&#45;&gt;:data -->
<g id="edge44" class="edge">
<title>:feature:search&#45;&gt;:data</title>
<path fill="none" stroke="black" stroke-dasharray="1,5" d="M846.74,-828.55C846.74,-828.55 846.74,-317.87 846.74,-317.87"/>
<polygon fill="black" stroke="black" points="850.24,-317.87 846.74,-307.87 843.24,-317.87 850.24,-317.87"/>
</g>
<!-- :ui:test:screenshot -->
<g id="node26" class="node">
<title>:ui:test:screenshot</title>
<ellipse fill="#9affb5" stroke="black" cx="1815.14" cy="-566" rx="96.68" ry="18"/>
<text text-anchor="middle" x="1815.14" y="-562.3" font-family="Times,serif" font-size="14.00">:ui:test:screenshot</text>
</g>
<!-- :feature:search&#45;&gt;:ui:test:screenshot -->
<g id="edge50" class="edge">
<title>:feature:search&#45;&gt;:ui:test:screenshot</title>
<path fill="none" stroke="#ff9ab1" stroke-dasharray="1,5" d="M943.78,-823.55C943.78,-808.31 943.78,-788 943.78,-788 943.78,-788 1737.69,-788 1737.69,-788 1737.69,-788 1737.69,-587.01 1737.69,-587.01"/>
<polygon fill="#ff9ab1" stroke="#ff9ab1" points="1741.19,-587.01 1737.69,-577.01 1734.19,-587.01 1741.19,-587.01"/>
</g>
<!-- :ui:common&#45;&gt;:data&#45;android -->
<g id="edge68" class="edge">
<title>:ui:common&#45;&gt;:data&#45;android</title>
<path fill="none" stroke="orange" d="M1336.42,-694C1179.46,-694 745.09,-694 745.09,-694 745.09,-694 745.09,-592.73 745.09,-592.73"/>
<polygon fill="orange" stroke="orange" points="748.59,-592.73 745.09,-582.73 741.59,-592.73 748.59,-592.73"/>
</g>
<!-- :ui:common&#45;&gt;:data:database -->
<g id="edge69" class="edge">
<title>:ui:common&#45;&gt;:data:database</title>
<path fill="none" stroke="orange" d="M1327.71,-703C1088.02,-703 261.61,-703 261.61,-703 261.61,-703 261.61,-451.85 261.61,-451.85"/>
<polygon fill="orange" stroke="orange" points="265.11,-451.85 261.61,-441.85 258.11,-451.85 265.11,-451.85"/>
</g>
<!-- :ui:common&#45;&gt;:domain -->
<g id="edge70" class="edge">
<title>:ui:common&#45;&gt;:domain</title>
<path fill="none" stroke="black" stroke-dasharray="1,5" d="M1330.12,-698C1145.82,-698 614.21,-698 614.21,-698 614.21,-698 614.21,-588.18 614.21,-588.18"/>
<polygon fill="black" stroke="black" points="617.71,-588.18 614.21,-578.18 610.71,-588.18 617.71,-588.18"/>
</g>
<!-- :ui:common&#45;&gt;:strings -->
<g id="edge71" class="edge">
<title>:ui:common&#45;&gt;:strings</title>
<path fill="none" stroke="black" stroke-dasharray="1,5" d="M1351.49,-689C1324.09,-689 1292.91,-689 1292.91,-689 1292.91,-689 1292.91,-589.63 1292.91,-589.63"/>
<polygon fill="black" stroke="black" points="1296.41,-589.63 1292.91,-579.63 1289.41,-589.63 1296.41,-589.63"/>
</g>
<!-- :ui:common&#45;&gt;:ui:core -->
<g id="edge72" class="edge">
<title>:ui:common&#45;&gt;:ui:core</title>
<path fill="none" stroke="red" d="M1392.14,-684.66C1392.14,-623.45 1392.14,-430 1392.14,-430 1392.14,-430 1822.42,-430 1822.42,-430"/>
<polygon fill="red" stroke="red" points="1822.42,-433.5 1832.42,-430 1822.42,-426.5 1822.42,-433.5"/>
</g>
<!-- :ui:common&#45;&gt;:ui:image -->
<g id="edge73" class="edge">
<title>:ui:common&#45;&gt;:ui:image</title>
<path fill="none" stroke="red" d="M1456.49,-703C1630.29,-703 2096.19,-703 2096.19,-703 2096.19,-703 2096.19,-588.16 2096.19,-588.16"/>
<polygon fill="red" stroke="red" points="2099.69,-588.16 2096.19,-578.16 2092.69,-588.16 2099.69,-588.16"/>
</g>
<!-- :ui:common&#45;&gt;:ui:test:screenshot -->
<g id="edge75" class="edge">
<title>:ui:common&#45;&gt;:ui:test:screenshot</title>
<path fill="none" stroke="#ff9ab1" d="M1447.98,-694C1543.48,-694 1728,-694 1728,-694 1728,-694 1728,-584.01 1728,-584.01"/>
<polygon fill="#ff9ab1" stroke="#ff9ab1" points="1731.5,-584.01 1728,-574.01 1724.5,-584.01 1731.5,-584.01"/>
</g>
<!-- :ui:test:image -->
<g id="node27" class="node">
<title>:ui:test:image</title>
<ellipse fill="#9affb5" stroke="black" cx="1625.14" cy="-566" rx="74.99" ry="18"/>
<text text-anchor="middle" x="1625.14" y="-562.3" font-family="Times,serif" font-size="14.00">:ui:test:image</text>
</g>
<!-- :ui:common&#45;&gt;:ui:test:image -->
<g id="edge74" class="edge">
<title>:ui:common&#45;&gt;:ui:test:image</title>
<path fill="none" stroke="#ff9ab1" d="M1432.7,-689C1489.43,-689 1585.61,-689 1585.61,-689 1585.61,-689 1585.61,-591.33 1585.61,-591.33"/>
<polygon fill="#ff9ab1" stroke="#ff9ab1" points="1589.12,-591.33 1585.61,-581.33 1582.12,-591.33 1589.12,-591.33"/>
</g>
<!-- :ui:collections&#45;&gt;:data&#45;android -->
<g id="edge83" class="edge">
<title>:ui:collections&#45;&gt;:data&#45;android</title>
<path fill="none" stroke="orange" d="M700.24,-960.38C700.24,-960.38 700.24,-593.74 700.24,-593.74"/>
<polygon fill="orange" stroke="orange" points="703.74,-593.74 700.24,-583.74 696.74,-593.74 703.74,-593.74"/>
</g>
<!-- :ui:collections&#45;&gt;:data:database -->
<g id="edge82" class="edge">
<title>:ui:collections&#45;&gt;:data:database</title>
<path fill="none" stroke="orange" d="M665.28,-986C527.05,-986 215.95,-986 215.95,-986 215.95,-986 215.95,-456.9 215.95,-456.9"/>
<polygon fill="orange" stroke="orange" points="219.45,-456.9 215.95,-446.9 212.45,-456.9 219.45,-456.9"/>
</g>
<!-- :ui:collections&#45;&gt;:domain -->
<g id="edge84" class="edge">
<title>:ui:collections&#45;&gt;:domain</title>
<path fill="none" stroke="black" stroke-dasharray="1,5" d="M665.09,-968C614.94,-968 554.09,-968 554.09,-968 554.09,-968 554.09,-591.76 554.09,-591.76"/>
<polygon fill="black" stroke="black" points="557.59,-591.76 554.09,-581.76 550.59,-591.76 557.59,-591.76"/>
</g>
<!-- :ui:collections&#45;&gt;:inverted&#45;domain -->
<g id="edge85" class="edge">
<title>:ui:collections&#45;&gt;:inverted&#45;domain</title>
<path fill="none" stroke="black" stroke-dasharray="1,5" d="M655.28,-977C543.66,-977 346.6,-977 346.6,-977 346.6,-977 346.6,-320.32 346.6,-320.32"/>
<polygon fill="black" stroke="black" points="350.1,-320.32 346.6,-310.32 343.1,-320.32 350.1,-320.32"/>
</g>
<!-- :ui:collections&#45;&gt;:strings -->
<g id="edge86" class="edge">
<title>:ui:collections&#45;&gt;:strings</title>
<path fill="none" stroke="black" stroke-dasharray="1,5" d="M800.95,-971.11C800.95,-920.42 800.95,-560 800.95,-560 800.95,-560 1208.34,-560 1208.34,-560"/>
<polygon fill="black" stroke="black" points="1208.34,-563.5 1218.34,-560 1208.34,-556.5 1208.34,-563.5"/>
</g>
<!-- :ui:collections&#45;&gt;:ui:common -->
<g id="edge87" class="edge">
<title>:ui:collections&#45;&gt;:ui:common</title>
<path fill="none" stroke="red" d="M803.57,-973.59C803.57,-942.33 803.57,-707 803.57,-707 803.57,-707 1319.16,-707 1319.16,-707"/>
<polygon fill="red" stroke="red" points="1319.16,-710.5 1329.16,-707 1319.16,-703.5 1319.16,-710.5"/>
</g>
<!-- :ui:collections&#45;&gt;:ui:core -->
<g id="edge88" class="edge">
<title>:ui:collections&#45;&gt;:ui:core</title>
<path fill="none" stroke="red" d="M803.4,-981C813.72,-981 820.9,-981 820.9,-981 820.9,-981 820.9,-417 820.9,-417 820.9,-417 1834.16,-417 1834.16,-417"/>
<polygon fill="red" stroke="red" points="1834.16,-420.5 1844.16,-417 1834.16,-413.5 1834.16,-420.5"/>
</g>
<!-- :ui:collections&#45;&gt;:ui:settings -->
<g id="edge89" class="edge">
<title>:ui:collections&#45;&gt;:ui:settings</title>
<path fill="none" stroke="red" d="M804.9,-977C907.29,-977 1078.62,-977 1078.62,-977 1078.62,-977 1078.62,-865.72 1078.62,-865.72"/>
<polygon fill="red" stroke="red" points="1082.12,-865.72 1078.62,-855.72 1075.12,-865.72 1082.12,-865.72"/>
</g>
<!-- :ui:collections&#45;&gt;:data -->
<g id="edge81" class="edge">
<title>:ui:collections&#45;&gt;:data</title>
<path fill="none" stroke="orange" d="M799.63,-970.22C799.63,-970.22 799.63,-310.61 799.63,-310.61"/>
<polygon fill="orange" stroke="orange" points="803.13,-310.61 799.63,-300.61 796.13,-310.61 803.13,-310.61"/>
</g>
<!-- :ui:collections&#45;&gt;:ui:test:screenshot -->
<g id="edge90" class="edge">
<title>:ui:collections&#45;&gt;:ui:test:screenshot</title>
<path fill="none" stroke="#ff9ab1" d="M802.26,-972.15C802.26,-930.46 802.26,-634 802.26,-634 802.26,-634 1723.15,-634 1723.15,-634 1723.15,-634 1723.15,-581.8 1723.15,-581.8"/>
<polygon fill="#ff9ab1" stroke="#ff9ab1" points="1726.65,-581.8 1723.15,-571.8 1719.65,-581.8 1726.65,-581.8"/>
</g>
<!-- :ui:history&#45;&gt;:domain -->
<g id="edge97" class="edge">
<title>:ui:history&#45;&gt;:domain</title>
<path fill="none" stroke="black" stroke-dasharray="1,5" d="M1443.49,-960.01C1443.49,-934.95 1443.49,-891 1443.49,-891 1443.49,-891 566.12,-891 566.12,-891 566.12,-891 566.12,-593.47 566.12,-593.47"/>
<polygon fill="black" stroke="black" points="569.62,-593.47 566.12,-583.47 562.62,-593.47 569.62,-593.47"/>
</g>
<!-- :ui:history&#45;&gt;:inverted&#45;domain -->
<g id="edge98" class="edge">
<title>:ui:history&#45;&gt;:inverted&#45;domain</title>
<path fill="none" stroke="black" stroke-dasharray="1,5" d="M1405,-959.97C1405,-944.81 1405,-925 1405,-925 1405,-925 377.67,-925 377.67,-925 377.67,-925 377.67,-319.26 377.67,-319.26"/>
<polygon fill="black" stroke="black" points="381.17,-319.26 377.67,-309.26 374.17,-319.26 381.17,-319.26"/>
</g>
<!-- :ui:history&#45;&gt;:strings -->
<g id="edge99" class="edge">
<title>:ui:history&#45;&gt;:strings</title>
<path fill="none" stroke="black" stroke-dasharray="1,5" d="M1373.79,-968C1321.34,-968 1246.76,-968 1246.76,-968 1246.76,-968 1246.76,-593.02 1246.76,-593.02"/>
<polygon fill="black" stroke="black" points="1250.26,-593.02 1246.76,-583.02 1243.26,-593.02 1250.26,-593.02"/>
</g>
<!-- :ui:history&#45;&gt;:ui:common -->
<g id="edge100" class="edge">
<title>:ui:history&#45;&gt;:ui:common</title>
<path fill="none" stroke="red" d="M1387.56,-963C1370.32,-963 1353.46,-963 1353.46,-963 1353.46,-963 1353.46,-727.72 1353.46,-727.72"/>
<polygon fill="red" stroke="red" points="1356.96,-727.72 1353.46,-717.72 1349.96,-727.72 1356.96,-727.72"/>
</g>
<!-- :ui:history&#45;&gt;:ui:core -->
<g id="edge101" class="edge">
<title>:ui:history&#45;&gt;:ui:core</title>
<path fill="none" stroke="red" d="M1470.16,-966C1499.74,-966 1532.66,-966 1532.66,-966 1532.66,-966 1532.66,-437 1532.66,-437 1532.66,-437 1827.15,-437 1827.15,-437"/>
<polygon fill="red" stroke="red" points="1827.15,-440.5 1837.15,-437 1827.15,-433.5 1827.15,-440.5"/>
</g>
<!-- :ui:history&#45;&gt;:ui:image -->
<g id="edge102" class="edge">
<title>:ui:history&#45;&gt;:ui:image</title>
<path fill="none" stroke="red" d="M1472.26,-987C1630.41,-987 2124.16,-987 2124.16,-987 2124.16,-987 2124.16,-593.55 2124.16,-593.55"/>
<polygon fill="red" stroke="red" points="2127.66,-593.55 2124.16,-583.55 2120.66,-593.55 2127.66,-593.55"/>
</g>
<!-- :ui:history&#45;&gt;:ui:settings -->
<g id="edge103" class="edge">
<title>:ui:history&#45;&gt;:ui:settings</title>
<path fill="none" stroke="red" d="M1368.33,-972C1286.01,-972 1141.66,-972 1141.66,-972 1141.66,-972 1141.66,-865.66 1141.66,-865.66"/>
<polygon fill="red" stroke="red" points="1145.16,-865.66 1141.66,-855.66 1138.16,-865.66 1145.16,-865.66"/>
</g>
<!-- :ui:history&#45;&gt;:data -->
<g id="edge96" class="edge">
<title>:ui:history&#45;&gt;:data</title>
<path fill="none" stroke="orange" d="M1373.86,-986C1227.64,-986 812.89,-986 812.89,-986 812.89,-986 812.89,-317.8 812.89,-317.8"/>
<polygon fill="orange" stroke="orange" points="816.39,-317.8 812.89,-307.8 809.39,-317.8 816.39,-317.8"/>
</g>
<!-- :ui:history&#45;&gt;:ui:test:screenshot -->
<g id="edge105" class="edge">
<title>:ui:history&#45;&gt;:ui:test:screenshot</title>
<path fill="none" stroke="#ff9ab1" d="M1481.33,-980C1577.5,-980 1761.25,-980 1761.25,-980 1761.25,-980 1761.25,-591.23 1761.25,-591.23"/>
<polygon fill="#ff9ab1" stroke="#ff9ab1" points="1764.75,-591.23 1761.25,-581.23 1757.75,-591.23 1764.75,-591.23"/>
</g>
<!-- :ui:history&#45;&gt;:ui:test:image -->
<g id="edge104" class="edge">
<title>:ui:history&#45;&gt;:ui:test:image</title>
<path fill="none" stroke="#ff9ab1" d="M1480.77,-973C1538.87,-973 1620.83,-973 1620.83,-973 1620.83,-973 1620.83,-594.01 1620.83,-594.01"/>
<polygon fill="#ff9ab1" stroke="#ff9ab1" points="1624.33,-594.01 1620.83,-584.01 1617.33,-594.01 1624.33,-594.01"/>
</g>
<!-- :ui:image&#45;&gt;:ui:core -->
<g id="edge52" class="edge">
<title>:ui:image&#45;&gt;:ui:core</title>
<path fill="none" stroke="red" d="M2082.1,-566C2018,-566 1919.75,-566 1919.75,-566 1919.75,-566 1919.75,-446.37 1919.75,-446.37"/>
<polygon fill="red" stroke="red" points="1923.25,-446.37 1919.75,-436.37 1916.25,-446.37 1923.25,-446.37"/>
</g>
<!-- :ui:image&#45;&gt;:data:core -->
<g id="edge51" class="edge">
<title>:ui:image&#45;&gt;:data:core</title>
<path fill="none" stroke="orange" d="M2136.14,-547.78C2136.14,-451.79 2136.14,-9 2136.14,-9 2136.14,-9 687.89,-9 687.89,-9"/>
<polygon fill="orange" stroke="orange" points="687.89,-5.5 677.89,-9 687.89,-12.5 687.89,-5.5"/>
</g>
<!-- :ui:nowplaying&#45;&gt;:domain -->
<g id="edge61" class="edge">
<title>:ui:nowplaying&#45;&gt;:domain</title>
<path fill="none" stroke="black" stroke-dasharray="1,5" d="M1396.5,-825.8C1396.5,-801.37 1396.5,-754 1396.5,-754 1396.5,-754 602.19,-754 602.19,-754 602.19,-754 602.19,-591.71 602.19,-591.71"/>
<polygon fill="black" stroke="black" points="605.69,-591.71 602.19,-581.71 598.69,-591.71 605.69,-591.71"/>
</g>
<!-- :ui:nowplaying&#45;&gt;:strings -->
<g id="edge62" class="edge">
<title>:ui:nowplaying&#45;&gt;:strings</title>
<path fill="none" stroke="black" stroke-dasharray="1,5" d="M1367.53,-843C1317.66,-843 1262.14,-843 1262.14,-843 1262.14,-843 1262.14,-594.17 1262.14,-594.17"/>
<polygon fill="black" stroke="black" points="1265.64,-594.17 1262.14,-584.17 1258.64,-594.17 1265.64,-594.17"/>
</g>
<!-- :ui:nowplaying&#45;&gt;:ui:common -->
<g id="edge63" class="edge">
<title>:ui:nowplaying&#45;&gt;:ui:common</title>
<path fill="none" stroke="red" d="M1426.49,-822.37C1426.49,-822.37 1426.49,-728.45 1426.49,-728.45"/>
<polygon fill="red" stroke="red" points="1429.99,-728.45 1426.49,-718.45 1422.99,-728.45 1429.99,-728.45"/>
</g>
<!-- :ui:nowplaying&#45;&gt;:ui:core -->
<g id="edge64" class="edge">
<title>:ui:nowplaying&#45;&gt;:ui:core</title>
<path fill="none" stroke="red" d="M1478.92,-823.54C1478.92,-747.4 1478.92,-433 1478.92,-433 1478.92,-433 1823.51,-433 1823.51,-433"/>
<polygon fill="red" stroke="red" points="1823.51,-436.5 1833.51,-433 1823.51,-429.5 1823.51,-436.5"/>
</g>
<!-- :ui:nowplaying&#45;&gt;:ui:image -->
<g id="edge65" class="edge">
<title>:ui:nowplaying&#45;&gt;:ui:image</title>
<path fill="none" stroke="red" d="M1512.57,-830.43C1512.57,-799.94 1512.57,-707 1512.57,-707 1512.57,-707 2110.18,-707 2110.18,-707 2110.18,-707 2110.18,-591.9 2110.18,-591.9"/>
<polygon fill="red" stroke="red" points="2113.68,-591.9 2110.18,-581.9 2106.68,-591.9 2113.68,-591.9"/>
</g>
<!-- :ui:nowplaying&#45;&gt;:data -->
<g id="edge60" class="edge">
<title>:ui:nowplaying&#45;&gt;:data</title>
<path fill="none" stroke="orange" d="M1467.7,-822.58C1467.7,-729.81 1467.7,-298 1467.7,-298 1467.7,-298 872.64,-298 872.64,-298"/>
<polygon fill="orange" stroke="orange" points="872.64,-294.5 862.64,-298 872.64,-301.5 872.64,-294.5"/>
</g>
<!-- :ui:nowplaying&#45;&gt;:ui:test:screenshot -->
<g id="edge67" class="edge">
<title>:ui:nowplaying&#45;&gt;:ui:test:screenshot</title>
<path fill="none" stroke="#ff9ab1" d="M1501.35,-827.4C1501.35,-792.65 1501.35,-698 1501.35,-698 1501.35,-698 1732.85,-698 1732.85,-698 1732.85,-698 1732.85,-585.49 1732.85,-585.49"/>
<polygon fill="#ff9ab1" stroke="#ff9ab1" points="1736.35,-585.49 1732.85,-575.49 1729.35,-585.49 1736.35,-585.49"/>
</g>
<!-- :ui:nowplaying&#45;&gt;:ui:test:image -->
<g id="edge66" class="edge">
<title>:ui:nowplaying&#45;&gt;:ui:test:image</title>
<path fill="none" stroke="#ff9ab1" d="M1490.14,-825.21C1490.14,-769.03 1490.14,-572 1490.14,-572 1490.14,-572 1544.48,-572 1544.48,-572"/>
<polygon fill="#ff9ab1" stroke="#ff9ab1" points="1544.48,-575.5 1554.48,-572 1544.48,-568.5 1544.48,-575.5"/>
</g>
<!-- :ui:settings&#45;&gt;:data&#45;android -->
<g id="edge53" class="edge">
<title>:ui:settings&#45;&gt;:data&#45;android</title>
<path fill="none" stroke="orange" d="M1089.13,-822.83C1089.13,-763.68 1089.13,-572 1089.13,-572 1089.13,-572 795.8,-572 795.8,-572"/>
<polygon fill="orange" stroke="orange" points="795.8,-568.5 785.8,-572 795.8,-575.5 795.8,-568.5"/>
</g>
<!-- :ui:settings&#45;&gt;:domain -->
<g id="edge54" class="edge">
<title>:ui:settings&#45;&gt;:domain</title>
<path fill="none" stroke="black" stroke-dasharray="1,5" d="M1068.11,-826.37C1068.11,-806.26 1068.11,-771 1068.11,-771 1068.11,-771 590.17,-771 590.17,-771 590.17,-771 590.17,-593.48 590.17,-593.48"/>
<polygon fill="black" stroke="black" points="593.67,-593.48 590.17,-583.48 586.67,-593.48 593.67,-593.48"/>
</g>
<!-- :ui:settings&#45;&gt;:inverted&#45;domain -->
<g id="edge55" class="edge">
<title>:ui:settings&#45;&gt;:inverted&#45;domain</title>
<path fill="none" stroke="black" stroke-dasharray="1,5" d="M1110.14,-821.56C1110.14,-750.31 1110.14,-497 1110.14,-497 1110.14,-497 408.75,-497 408.75,-497 408.75,-497 408.75,-315.77 408.75,-315.77"/>
<polygon fill="black" stroke="black" points="412.25,-315.77 408.75,-305.77 405.25,-315.77 412.25,-315.77"/>
</g>
<!-- :ui:settings&#45;&gt;:strings -->
<g id="edge56" class="edge">
<title>:ui:settings&#45;&gt;:strings</title>
<path fill="none" stroke="black" stroke-dasharray="1,5" d="M1160.15,-829C1193.55,-829 1231.38,-829 1231.38,-829 1231.38,-829 1231.38,-589.77 1231.38,-589.77"/>
<polygon fill="black" stroke="black" points="1234.88,-589.77 1231.38,-579.77 1227.88,-589.77 1234.88,-589.77"/>
</g>
<!-- :ui:settings&#45;&gt;:ui:common -->
<g id="edge57" class="edge">
<title>:ui:settings&#45;&gt;:ui:common</title>
<path fill="none" stroke="red" d="M1171.91,-836C1240.18,-836 1340.63,-836 1340.63,-836 1340.63,-836 1340.63,-723.88 1340.63,-723.88"/>
<polygon fill="red" stroke="red" points="1344.13,-723.88 1340.63,-713.88 1337.13,-723.88 1344.13,-723.88"/>
</g>
<!-- :ui:settings&#45;&gt;:ui:core -->
<g id="edge58" class="edge">
<title>:ui:settings&#45;&gt;:ui:core</title>
<path fill="none" stroke="red" d="M1131.16,-822.92C1131.16,-744.64 1131.16,-424 1131.16,-424 1131.16,-424 1824.2,-424 1824.2,-424"/>
<polygon fill="red" stroke="red" points="1824.2,-427.5 1834.2,-424 1824.2,-420.5 1824.2,-427.5"/>
</g>
<!-- :ui:settings&#45;&gt;:ui:test:screenshot -->
<g id="edge59" class="edge">
<title>:ui:settings&#45;&gt;:ui:test:screenshot</title>
<path fill="none" stroke="#ff9ab1" d="M1152.17,-826.57C1152.17,-816.7 1152.17,-805 1152.17,-805 1152.17,-805 1742.54,-805 1742.54,-805 1742.54,-805 1742.54,-588.18 1742.54,-588.18"/>
<polygon fill="#ff9ab1" stroke="#ff9ab1" points="1746.04,-588.18 1742.54,-578.18 1739.04,-588.18 1746.04,-588.18"/>
</g>
<!-- :ui:spotify&#45;broadcast&#45;receiver&#45;&gt;:strings -->
<g id="edge79" class="edge">
<title>:ui:spotify&#45;broadcast&#45;receiver&#45;&gt;:strings</title>
<path fill="none" stroke="black" stroke-dasharray="1,5" d="M1805.69,-828.18C1805.69,-801.13 1805.69,-737 1805.69,-737 1805.69,-737 1277.52,-737 1277.52,-737 1277.52,-737 1277.52,-593.02 1277.52,-593.02"/>
<polygon fill="black" stroke="black" points="1281.02,-593.02 1277.52,-583.02 1274.02,-593.02 1281.02,-593.02"/>
</g>
<!-- :ui:spotify&#45;broadcast&#45;receiver&#45;&gt;:ui:common -->
<g id="edge78" class="edge">
<title>:ui:spotify&#45;broadcast&#45;receiver&#45;&gt;:ui:common</title>
<path fill="none" stroke="red" d="M1841.12,-824.56C1841.12,-790.52 1841.12,-712 1841.12,-712 1841.12,-712 1458.1,-712 1458.1,-712"/>
<polygon fill="red" stroke="red" points="1458.1,-708.5 1448.1,-712 1458.1,-715.5 1458.1,-708.5"/>
</g>
<!-- :ui:spotify&#45;broadcast&#45;receiver&#45;&gt;:ui:core -->
<g id="edge77" class="edge">
<title>:ui:spotify&#45;broadcast&#45;receiver&#45;&gt;:ui:core</title>
<path fill="none" stroke="red" d="M1915.87,-821.81C1915.87,-821.81 1915.87,-449.17 1915.87,-449.17"/>
<polygon fill="red" stroke="red" points="1919.37,-449.17 1915.87,-439.17 1912.37,-449.17 1919.37,-449.17"/>
</g>
<!-- :ui:spotify&#45;broadcast&#45;receiver&#45;&gt;:data:core -->
<g id="edge76" class="edge">
<title>:ui:spotify&#45;broadcast&#45;receiver&#45;&gt;:data:core</title>
<path fill="none" stroke="orange" d="M1993.83,-824.31C1993.83,-710.67 1993.83,-18 1993.83,-18 1993.83,-18 695.52,-18 695.52,-18"/>
<polygon fill="orange" stroke="orange" points="695.52,-14.5 685.52,-18 695.52,-21.5 695.52,-14.5"/>
</g>
<!-- :ui:spotify&#45;broadcast&#45;receiver&#45;&gt;:ui:test:screenshot -->
<g id="edge80" class="edge">
<title>:ui:spotify&#45;broadcast&#45;receiver&#45;&gt;:ui:test:screenshot</title>
<path fill="none" stroke="#ff9ab1" d="M1876.55,-822.44C1876.55,-822.44 1876.55,-590.04 1876.55,-590.04"/>
<polygon fill="#ff9ab1" stroke="#ff9ab1" points="1880.05,-590.04 1876.55,-580.04 1873.05,-590.04 1880.05,-590.04"/>
</g>
<!-- :ui:stats&#45;&gt;:strings -->
<g id="edge94" class="edge">
<title>:ui:stats&#45;&gt;:strings</title>
<path fill="none" stroke="black" stroke-dasharray="1,5" d="M1655.79,-840C1607.86,-840 1541.53,-840 1541.53,-840 1541.53,-840 1541.53,-560 1541.53,-560 1541.53,-560 1315.8,-560 1315.8,-560"/>
<polygon fill="black" stroke="black" points="1315.8,-556.5 1305.8,-560 1315.8,-563.5 1315.8,-556.5"/>
</g>
<!-- :ui:stats&#45;&gt;:ui:common -->
<g id="edge92" class="edge">
<title>:ui:stats&#45;&gt;:ui:common</title>
<path fill="none" stroke="red" d="M1677.97,-824.8C1677.97,-791.68 1677.97,-716 1677.97,-716 1677.97,-716 1446.8,-716 1446.8,-716"/>
<polygon fill="red" stroke="red" points="1446.8,-712.5 1436.8,-716 1446.8,-719.5 1446.8,-712.5"/>
</g>
<!-- :ui:stats&#45;&gt;:ui:core -->
<g id="edge93" class="edge">
<title>:ui:stats&#45;&gt;:ui:core</title>
<path fill="none" stroke="red" d="M1712.16,-822.04C1712.16,-744.2 1712.16,-440 1712.16,-440 1712.16,-440 1832.13,-440 1832.13,-440"/>
<polygon fill="red" stroke="red" points="1832.13,-443.5 1842.13,-440 1832.13,-436.5 1832.13,-443.5"/>
</g>
<!-- :ui:stats&#45;&gt;:data -->
<g id="edge91" class="edge">
<title>:ui:stats&#45;&gt;:data</title>
<path fill="none" stroke="orange" d="M1706.02,-821.88C1706.02,-726.4 1706.02,-286 1706.02,-286 1706.02,-286 872.88,-286 872.88,-286"/>
<polygon fill="orange" stroke="orange" points="872.88,-282.5 862.88,-286 872.88,-289.5 872.88,-282.5"/>
</g>
<!-- :ui:stats&#45;&gt;:ui:test:screenshot -->
<g id="edge95" class="edge">
<title>:ui:stats&#45;&gt;:ui:test:screenshot</title>
<path fill="none" stroke="#ff9ab1" d="M1747.39,-832.1C1747.39,-832.1 1747.39,-588.99 1747.39,-588.99"/>
<polygon fill="#ff9ab1" stroke="#ff9ab1" points="1750.89,-588.99 1747.39,-578.99 1743.89,-588.99 1750.89,-588.99"/>
</g>
<!-- :data&#45;&gt;:data:core -->
<g id="edge20" class="edge">
<title>:data&#45;&gt;:data:core</title>
<path fill="none" stroke="black" d="M797.3,-286C733.16,-286 597.47,-286 597.47,-286 597.47,-286 597.47,-43.57 597.47,-43.57"/>
<polygon fill="black" stroke="black" points="600.97,-43.57 597.47,-33.57 593.97,-43.57 600.97,-43.57"/>
</g>
<!-- :data&#45;&gt;:data:common:network -->
<g id="edge21" class="edge">
<title>:data&#45;&gt;:data:common:network</title>
<path fill="none" stroke="black" d="M797.66,-298C722.79,-298 544.51,-298 544.51,-298 544.51,-298 544.51,-169.76 544.51,-169.76"/>
<polygon fill="black" stroke="black" points="548.02,-169.76 544.51,-159.76 541.02,-169.76 548.02,-169.76"/>
</g>
<!-- :data&#45;&gt;:data:coverart -->
<g id="edge22" class="edge">
<title>:data&#45;&gt;:data:coverart</title>
<path fill="none" stroke="black" d="M804.43,-280C770.64,-280 715.56,-280 715.56,-280 715.56,-280 715.56,-181.09 715.56,-181.09"/>
<polygon fill="black" stroke="black" points="719.06,-181.09 715.56,-171.09 712.06,-181.09 719.06,-181.09"/>
</g>
<!-- :data:spotify -->
<g id="node23" class="node">
<title>:data:spotify</title>
<ellipse fill="#b59aff" stroke="black" cx="843.14" cy="-155" rx="68.79" ry="18"/>
<text text-anchor="middle" x="843.14" y="-151.3" font-family="Times,serif" font-size="14.00">:data:spotify</text>
</g>
<!-- :data&#45;&gt;:data:spotify -->
<g id="edge23" class="edge">
<title>:data&#45;&gt;:data:spotify</title>
<path fill="none" stroke="black" d="M841.62,-274.93C841.62,-274.93 841.62,-183.16 841.62,-183.16"/>
<polygon fill="black" stroke="black" points="845.12,-183.16 841.62,-173.16 838.12,-183.16 845.12,-183.16"/>
</g>
<!-- :data&#45;&gt;:data:musicbrainz -->
<g id="edge24" class="edge">
<title>:data&#45;&gt;:data:musicbrainz</title>
<path fill="none" stroke="black" d="M818.66,-274.94C818.66,-254.51 818.66,-223 818.66,-223 818.66,-223 224.76,-223 224.76,-223 224.76,-223 224.76,-178.76 224.76,-178.76"/>
<polygon fill="black" stroke="black" points="228.26,-178.76 224.76,-168.76 221.26,-178.76 228.26,-178.76"/>
</g>
<!-- :data:coverart&#45;&gt;:data:core -->
<g id="edge37" class="edge">
<title>:data:coverart&#45;&gt;:data:core</title>
<path fill="none" stroke="black" stroke-dasharray="1,5" d="M644.72,-139.02C644.72,-139.02 644.72,-45.61 644.72,-45.61"/>
<polygon fill="black" stroke="black" points="648.22,-45.61 644.72,-35.61 641.22,-45.61 648.22,-45.61"/>
</g>
<!-- :data:spotify&#45;&gt;:data:core -->
<g id="edge38" class="edge">
<title>:data:spotify&#45;&gt;:data:core</title>
<path fill="none" stroke="black" stroke-dasharray="1,5" d="M843.14,-136.93C843.14,-101.65 843.14,-27 843.14,-27 843.14,-27 687.74,-27 687.74,-27"/>
<polygon fill="black" stroke="black" points="687.74,-23.5 677.74,-27 687.74,-30.5 687.74,-23.5"/>
</g>
<!-- :data:musicbrainz&#45;&gt;:data:core -->
<g id="edge39" class="edge">
<title>:data:musicbrainz&#45;&gt;:data:core</title>
<path fill="none" stroke="black" stroke-dasharray="1,5" d="M164.14,-136.79C164.14,-100.79 164.14,-24 164.14,-24 164.14,-24 564.01,-24 564.01,-24"/>
<polygon fill="black" stroke="black" points="564.01,-27.5 574.01,-24 564.01,-20.5 564.01,-27.5"/>
</g>
<!-- :desktop:app -->
<g id="node25" class="node">
<title>:desktop:app</title>
<polygon fill="#ffb59a" stroke="black" points="2512.14,-1132 2152.14,-1132 2152.14,-1096 2512.14,-1096 2512.14,-1132"/>
<text text-anchor="middle" x="2332.14" y="-1110.3" font-family="Times,serif" font-size="14.00">:desktop:app</text>
</g>
<!-- :desktop:app&#45;&gt;:ui:core -->
<g id="edge33" class="edge">
<title>:desktop:app&#45;&gt;:ui:core</title>
<path fill="none" stroke="black" stroke-dasharray="1,5" d="M2351.12,-1095.68C2351.12,-986.74 2351.12,-429 2351.12,-429 2351.12,-429 1933.92,-429 1933.92,-429"/>
<polygon fill="black" stroke="black" points="1933.92,-425.5 1923.92,-429 1933.92,-432.5 1933.92,-425.5"/>
</g>
<!-- :ui:test:screenshot&#45;&gt;:ui:core -->
<g id="edge106" class="edge">
<title>:ui:test:screenshot&#45;&gt;:ui:core</title>
<path fill="none" stroke="red" d="M1872.32,-551.34C1872.32,-551.34 1872.32,-457.01 1872.32,-457.01"/>
<polygon fill="red" stroke="red" points="1875.82,-457.01 1872.32,-447.01 1868.82,-457.01 1875.82,-457.01"/>
</g>
</g>
</svg>
