<?xml version="1.0" encoding="UTF-8" standalone="no"?>
<!DOCTYPE svg PUBLIC "-//W3C//DTD SVG 1.1//EN"
 "http://www.w3.org/Graphics/SVG/1.1/DTD/svg11.dtd">
<!-- Generated by graphviz version 8.1.0 (20230707.0739)
 -->
<!-- Title: modules Pages: 1 -->
<svg width="1131pt" height="770pt"
 viewBox="0.00 0.00 1131.01 770.25" xmlns="http://www.w3.org/2000/svg" xmlns:xlink="http://www.w3.org/1999/xlink">
<g id="graph0" class="graph" transform="scale(1 1) rotate(0) translate(4 766.25)">
<title>modules</title>
<polygon fill="white" stroke="none" points="-4,4 -4,-766.25 1127.01,-766.25 1127.01,4 -4,4"/>
<text text-anchor="middle" x="561.51" y="-6.45" font-family="Times New Roman,serif" font-size="14.00">Module dependencies</text>
<g id="clust1" class="cluster">
<title>cluster_01</title>
<polygon fill="none" stroke="black" points="931.01,-599.75 931.01,-754.25 1115.01,-754.25 1115.01,-599.75 931.01,-599.75"/>
<text text-anchor="middle" x="1023.01" y="-740.75" font-family="Times New Roman,serif" font-size="10.00">Legend</text>
</g>
<!-- app -->
<g id="node1" class="node">
<title>app</title>
<ellipse fill="none" stroke="black" cx="567.01" cy="-709" rx="27" ry="18"/>
<text text-anchor="middle" x="567.01" y="-703.58" font-family="Times New Roman,serif" font-size="14.00">app</text>
</g>
<!-- data&#45;android -->
<g id="node2" class="node">
<title>data&#45;android</title>
<ellipse fill="none" stroke="black" cx="316.01" cy="-406.75" rx="57.55" ry="18"/>
<text text-anchor="middle" x="316.01" y="-401.32" font-family="Times New Roman,serif" font-size="14.00">data&#45;android</text>
</g>
<!-- app&#45;&gt;data&#45;android -->
<g id="edge1" class="edge">
<title>app&#45;&gt;data&#45;android</title>
<path fill="none" stroke="black" d="M539.97,-706.05C442.24,-698.62 113.01,-670.39 113.01,-626.75 113.01,-626.75 113.01,-626.75 113.01,-478.75 113.01,-448.46 194.56,-428.04 254.29,-417.15"/>
<polygon fill="black" stroke="black" points="254.55,-420.48 263.79,-415.3 253.33,-413.59 254.55,-420.48"/>
</g>
<!-- ui:common -->
<g id="node3" class="node">
<title>ui:common</title>
<ellipse fill="none" stroke="black" cx="525.01" cy="-479.75" rx="52.06" ry="18"/>
<text text-anchor="middle" x="525.01" y="-474.32" font-family="Times New Roman,serif" font-size="14.00">ui:common</text>
</g>
<!-- app&#45;&gt;ui:common -->
<g id="edge2" class="edge">
<title>app&#45;&gt;ui:common</title>
<path fill="none" stroke="black" d="M572.43,-691.01C581.63,-659.07 597.38,-588.49 576.01,-534.75 571.38,-523.1 562.91,-512.51 554.18,-503.85"/>
<polygon fill="black" stroke="black" points="556.92,-501.69 547.2,-497.47 552.17,-506.83 556.92,-501.69"/>
</g>
<!-- ui:core -->
<g id="node4" class="node">
<title>ui:core</title>
<ellipse fill="none" stroke="black" cx="631.01" cy="-333.75" rx="35.6" ry="18"/>
<text text-anchor="middle" x="631.01" y="-328.32" font-family="Times New Roman,serif" font-size="14.00">ui:core</text>
</g>
<!-- app&#45;&gt;ui:core -->
<g id="edge3" class="edge">
<title>app&#45;&gt;ui:core</title>
<path fill="none" stroke="black" d="M594.13,-706.24C666.37,-700.8 858.01,-681.24 858.01,-626.75 858.01,-626.75 858.01,-626.75 858.01,-405.75 858.01,-368 742.24,-347.96 676.05,-339.58"/>
<polygon fill="black" stroke="black" points="676.84,-336.03 666.49,-338.29 675.99,-342.98 676.84,-336.03"/>
</g>
<!-- ui:collections -->
<g id="node5" class="node">
<title>ui:collections</title>
<ellipse fill="none" stroke="black" cx="420.01" cy="-625.75" rx="59.05" ry="18"/>
<text text-anchor="middle" x="420.01" y="-620.33" font-family="Times New Roman,serif" font-size="14.00">ui:collections</text>
</g>
<!-- app&#45;&gt;ui:collections -->
<g id="edge4" class="edge">
<title>app&#45;&gt;ui:collections</title>
<path fill="none" stroke="black" d="M546.57,-696.7C523.57,-683.99 485.71,-663.06 457.39,-647.41"/>
<polygon fill="black" stroke="black" points="459.25,-643.88 448.8,-642.11 455.86,-650.01 459.25,-643.88"/>
</g>
<!-- ui:history -->
<g id="node6" class="node">
<title>ui:history</title>
<ellipse fill="none" stroke="black" cx="665.01" cy="-625.75" rx="44.58" ry="18"/>
<text text-anchor="middle" x="665.01" y="-620.33" font-family="Times New Roman,serif" font-size="14.00">ui:history</text>
</g>
<!-- app&#45;&gt;ui:history -->
<g id="edge5" class="edge">
<title>app&#45;&gt;ui:history</title>
<path fill="none" stroke="black" d="M583.2,-694.58C598.05,-682.27 620.36,-663.77 637.93,-649.2"/>
<polygon fill="black" stroke="black" points="639.66,-651.49 645.12,-642.41 635.19,-646.1 639.66,-651.49"/>
</g>
<!-- ui:image -->
<g id="node7" class="node">
<title>ui:image</title>
<ellipse fill="none" stroke="black" cx="751.01" cy="-406.75" rx="40.58" ry="18"/>
<text text-anchor="middle" x="751.01" y="-401.32" font-family="Times New Roman,serif" font-size="14.00">ui:image</text>
</g>
<!-- app&#45;&gt;ui:image -->
<g id="edge6" class="edge">
<title>app&#45;&gt;ui:image</title>
<path fill="none" stroke="black" d="M594.26,-707.81C645.03,-705.86 749.01,-693.71 749.01,-626.75 749.01,-626.75 749.01,-626.75 749.01,-478.75 749.01,-464.54 749.42,-448.73 749.86,-435.65"/>
<polygon fill="black" stroke="black" points="753.39,-436.08 750.26,-425.96 746.39,-435.83 753.39,-436.08"/>
</g>
<!-- ui:nowplaying -->
<g id="node8" class="node">
<title>ui:nowplaying</title>
<ellipse fill="none" stroke="black" cx="241.01" cy="-552.75" rx="61.54" ry="18"/>
<text text-anchor="middle" x="241.01" y="-547.33" font-family="Times New Roman,serif" font-size="14.00">ui:nowplaying</text>
</g>
<!-- app&#45;&gt;ui:nowplaying -->
<g id="edge7" class="edge">
<title>app&#45;&gt;ui:nowplaying</title>
<path fill="none" stroke="black" d="M540.94,-703.62C499.19,-695.87 415.57,-677.31 352.01,-643.75 318.89,-626.26 286.24,-598.1 265.01,-577.94"/>
<polygon fill="black" stroke="black" points="267.81,-575.81 258.19,-571.38 262.95,-580.84 267.81,-575.81"/>
</g>
<!-- ui:settings -->
<g id="node9" class="node">
<title>ui:settings</title>
<ellipse fill="none" stroke="black" cx="520.01" cy="-552.75" rx="47.07" ry="18"/>
<text text-anchor="middle" x="520.01" y="-547.33" font-family="Times New Roman,serif" font-size="14.00">ui:settings</text>
</g>
<!-- app&#45;&gt;ui:settings -->
<g id="edge8" class="edge">
<title>app&#45;&gt;ui:settings</title>
<path fill="none" stroke="black" d="M561.8,-690.9C553.72,-664.38 538.09,-613.07 528.4,-581.28"/>
<polygon fill="black" stroke="black" points="531.51,-580.47 525.25,-571.92 524.81,-582.51 531.51,-580.47"/>
</g>
<!-- ui:spotify -->
<g id="node10" class="node">
<title>ui:spotify</title>
<ellipse fill="none" stroke="black" cx="931.01" cy="-552.75" rx="45.08" ry="18"/>
<text text-anchor="middle" x="931.01" y="-547.33" font-family="Times New Roman,serif" font-size="14.00">ui:spotify</text>
</g>
<!-- app&#45;&gt;ui:spotify -->
<g id="edge9" class="edge">
<title>app&#45;&gt;ui:spotify</title>
<path fill="none" stroke="black" d="M594.15,-708.12C660.27,-707.93 827.54,-704.27 872.01,-673 902.57,-651.52 918.07,-609.59 925.33,-581.62"/>
<polygon fill="black" stroke="black" points="928.97,-582.48 927.89,-571.94 922.16,-580.85 928.97,-582.48"/>
</g>
<!-- ui:stats -->
<g id="node11" class="node">
<title>ui:stats</title>
<ellipse fill="none" stroke="black" cx="43.01" cy="-552.75" rx="36.09" ry="18"/>
<text text-anchor="middle" x="43.01" y="-547.33" font-family="Times New Roman,serif" font-size="14.00">ui:stats</text>
</g>
<!-- app&#45;&gt;ui:stats -->
<g id="edge10" class="edge">
<title>app&#45;&gt;ui:stats</title>
<path fill="none" stroke="black" d="M540.92,-703.59C506.1,-697.53 442.59,-685.92 389.01,-673 273.7,-645.18 142.55,-594.51 80,-569.12"/>
<polygon fill="black" stroke="black" points="81.43,-565.51 70.85,-564.98 78.78,-572 81.43,-565.51"/>
</g>
<!-- data -->
<g id="node12" class="node">
<title>data</title>
<ellipse fill="none" stroke="black" cx="354.01" cy="-333.75" rx="27" ry="18"/>
<text text-anchor="middle" x="354.01" y="-328.32" font-family="Times New Roman,serif" font-size="14.00">data</text>
</g>
<!-- data&#45;android&#45;&gt;data -->
<g id="edge17" class="edge">
<title>data&#45;android&#45;&gt;data</title>
<path fill="none" stroke="red" d="M325.21,-388.56C329.73,-380.12 335.26,-369.78 340.27,-360.43"/>
<polygon fill="red" stroke="red" points="343.79,-362.27 345.42,-351.81 337.62,-358.97 343.79,-362.27"/>
</g>
<!-- ui:common&#45;&gt;data&#45;android -->
<g id="edge34" class="edge">
<title>ui:common&#45;&gt;data&#45;android</title>
<path fill="none" stroke="black" d="M489.09,-466.54C454.63,-454.84 402.36,-437.08 364.28,-424.15"/>
<polygon fill="black" stroke="black" points="365.54,-420.54 354.94,-420.63 363.28,-427.17 365.54,-420.54"/>
</g>
<!-- ui:common&#45;&gt;ui:core -->
<g id="edge35" class="edge">
<title>ui:common&#45;&gt;ui:core</title>
<path fill="none" stroke="black" d="M511.67,-461.89C498.3,-442.8 481.72,-411.4 497.01,-388.75 516.66,-359.65 554.89,-346.23 585.51,-340.04"/>
<polygon fill="black" stroke="black" points="585.76,-343.37 594.97,-338.14 584.51,-336.48 585.76,-343.37"/>
</g>
<!-- ui:common&#45;&gt;ui:image -->
<g id="edge36" class="edge">
<title>ui:common&#45;&gt;ui:image</title>
<path fill="none" stroke="black" d="M562.59,-466.95C602.65,-454.36 666,-434.46 708.03,-421.25"/>
<polygon fill="black" stroke="black" points="709,-424.3 717.49,-417.97 706.9,-417.63 709,-424.3"/>
</g>
<!-- ui:collections&#45;&gt;data&#45;android -->
<g id="edge30" class="edge">
<title>ui:collections&#45;&gt;data&#45;android</title>
<path fill="none" stroke="black" d="M398.25,-608.62C392.03,-603.17 385.68,-596.7 381.01,-589.75 348.14,-540.77 329.76,-473.23 321.47,-435.72"/>
<polygon fill="black" stroke="black" points="324.72,-435.15 319.22,-426.1 317.87,-436.6 324.72,-435.15"/>
</g>
<!-- ui:collections&#45;&gt;ui:common -->
<g id="edge31" class="edge">
<title>ui:collections&#45;&gt;ui:common</title>
<path fill="none" stroke="black" d="M426.15,-607.38C433.38,-588.37 446.64,-557.59 464.01,-534.75 472.8,-523.2 484.34,-512.24 495.01,-503.25"/>
<polygon fill="black" stroke="black" points="496.78,-505.51 502.32,-496.48 492.36,-500.08 496.78,-505.51"/>
</g>
<!-- ui:collections&#45;&gt;ui:core -->
<g id="edge32" class="edge">
<title>ui:collections&#45;&gt;ui:core</title>
<path fill="none" stroke="black" d="M421.1,-607.4C424.46,-565.98 437.65,-459.47 487.01,-388.75 508.98,-357.28 551.68,-344.12 584.91,-338.64"/>
<polygon fill="black" stroke="black" points="585.38,-341.96 594.77,-337.06 584.37,-335.04 585.38,-341.96"/>
</g>
<!-- ui:collections&#45;&gt;ui:settings -->
<g id="edge33" class="edge">
<title>ui:collections&#45;&gt;ui:settings</title>
<path fill="none" stroke="black" d="M442.21,-608.99C456.25,-599.02 474.59,-586 489.93,-575.11"/>
<polygon fill="black" stroke="black" points="491.44,-577.62 497.57,-568.98 487.39,-571.91 491.44,-577.62"/>
</g>
<!-- ui:collections&#45;&gt;data -->
<g id="edge29" class="edge">
<title>ui:collections&#45;&gt;data</title>
<path fill="none" stroke="black" d="M366.32,-617.91C302.75,-609 201.53,-592.02 170.01,-570.75 137.52,-548.82 82.52,-462.22 71.01,-424.75 66.32,-409.45 60.82,-401.08 71.01,-388.75 101.67,-351.69 245.95,-339.84 315.86,-336.23"/>
<polygon fill="black" stroke="black" points="315.99,-339.68 325.81,-335.71 315.65,-332.69 315.99,-339.68"/>
</g>
<!-- ui:history&#45;&gt;ui:common -->
<g id="edge38" class="edge">
<title>ui:history&#45;&gt;ui:common</title>
<path fill="none" stroke="black" d="M659.97,-607.75C652.18,-584.17 635.12,-541.55 607.01,-515.75 597.84,-507.33 586.34,-500.75 574.87,-495.68"/>
<polygon fill="black" stroke="black" points="576.45,-492.13 565.87,-491.6 573.81,-498.61 576.45,-492.13"/>
</g>
<!-- ui:history&#45;&gt;ui:core -->
<g id="edge39" class="edge">
<title>ui:history&#45;&gt;ui:core</title>
<path fill="none" stroke="black" d="M709.43,-622.77C755.23,-618.06 820.01,-602.74 820.01,-553.75 820.01,-553.75 820.01,-553.75 820.01,-405.75 820.01,-374.94 730.9,-352.97 675.06,-342.22"/>
<polygon fill="black" stroke="black" points="675.84,-338.62 665.37,-340.22 674.55,-345.5 675.84,-338.62"/>
</g>
<!-- ui:history&#45;&gt;ui:image -->
<g id="edge40" class="edge">
<title>ui:history&#45;&gt;ui:image</title>
<path fill="none" stroke="black" d="M675.45,-608C678.75,-602.33 682.25,-595.87 685.01,-589.75 713.37,-526.84 709.52,-506.88 735.01,-442.75 736.09,-440.05 737.26,-437.26 738.46,-434.48"/>
<polygon fill="black" stroke="black" points="741.95,-436.25 742.85,-425.69 735.57,-433.38 741.95,-436.25"/>
</g>
<!-- ui:history&#45;&gt;ui:settings -->
<g id="edge41" class="edge">
<title>ui:history&#45;&gt;ui:settings</title>
<path fill="none" stroke="black" d="M637.4,-611.23C614.87,-600.2 582.8,-584.49 557.87,-572.29"/>
<polygon fill="black" stroke="black" points="559.54,-568.72 549.02,-567.46 556.46,-575 559.54,-568.72"/>
</g>
<!-- ui:history&#45;&gt;data -->
<g id="edge37" class="edge">
<title>ui:history&#45;&gt;data</title>
<path fill="none" stroke="black" d="M664.63,-607.34C663.61,-588.58 660.19,-558.25 649.01,-534.75 630.61,-496.05 620.73,-486.87 586.01,-461.75 551.31,-436.64 535.05,-444.45 497.01,-424.75 454.89,-402.93 408.92,-372.77 380.77,-353.5"/>
<polygon fill="black" stroke="black" points="383.16,-350.21 372.94,-347.42 379.19,-355.97 383.16,-350.21"/>
</g>
<!-- ui:image&#45;&gt;ui:core -->
<g id="edge43" class="edge">
<title>ui:image&#45;&gt;ui:core</title>
<path fill="none" stroke="black" d="M729.6,-391.12C719.54,-384.41 707.29,-376.46 696.01,-369.75 686.1,-363.85 675.12,-357.77 665.06,-352.37"/>
<polygon fill="black" stroke="black" points="666.84,-348.83 656.37,-347.23 663.56,-355.01 666.84,-348.83"/>
</g>
<!-- data:core -->
<g id="node13" class="node">
<title>data:core</title>
<ellipse fill="none" stroke="black" cx="665.01" cy="-41.75" rx="44.58" ry="18"/>
<text text-anchor="middle" x="665.01" y="-36.33" font-family="Times New Roman,serif" font-size="14.00">data:core</text>
</g>
<!-- ui:image&#45;&gt;data:core -->
<g id="edge42" class="edge">
<title>ui:image&#45;&gt;data:core</title>
<path fill="none" stroke="black" d="M761.62,-389.02C780.27,-357.95 817.01,-288.63 817.01,-224.75 817.01,-224.75 817.01,-224.75 817.01,-113.75 817.01,-69.45 763.35,-52.73 719.79,-46.45"/>
<polygon fill="black" stroke="black" points="720.34,-42.86 709.98,-45.07 719.45,-49.81 720.34,-42.86"/>
</g>
<!-- ui:nowplaying&#45;&gt;ui:common -->
<g id="edge45" class="edge">
<title>ui:nowplaying&#45;&gt;ui:common</title>
<path fill="none" stroke="black" d="M287.08,-540.48C314.87,-533.66 350.99,-524.76 383.01,-516.75 413.07,-509.24 446.68,-500.72 473.65,-493.86"/>
<polygon fill="black" stroke="black" points="474.19,-497.08 483.02,-491.22 472.47,-490.29 474.19,-497.08"/>
</g>
<!-- ui:nowplaying&#45;&gt;ui:core -->
<g id="edge46" class="edge">
<title>ui:nowplaying&#45;&gt;ui:core</title>
<path fill="none" stroke="black" d="M235.53,-534.33C226.32,-501.28 212.15,-429.14 249.01,-388.75 271.38,-364.24 487.99,-345.32 584.74,-338.02"/>
<polygon fill="black" stroke="black" points="584.94,-341.44 594.65,-337.21 584.42,-334.46 584.94,-341.44"/>
</g>
<!-- ui:nowplaying&#45;&gt;ui:image -->
<g id="edge47" class="edge">
<title>ui:nowplaying&#45;&gt;ui:image</title>
<path fill="none" stroke="black" d="M272.07,-536.9C314.52,-517.14 393.47,-482.32 464.01,-461.75 550.38,-436.57 574.63,-441.5 663.01,-424.75 676.15,-422.26 690.39,-419.53 703.5,-416.99"/>
<polygon fill="black" stroke="black" points="704.05,-420.26 713.2,-414.92 702.72,-413.38 704.05,-420.26"/>
</g>
<!-- ui:nowplaying&#45;&gt;data -->
<g id="edge44" class="edge">
<title>ui:nowplaying&#45;&gt;data</title>
<path fill="none" stroke="black" d="M203.44,-538.16C129.17,-509.37 -24.11,-439.13 38.01,-369.75 56.3,-349.33 236.49,-339.52 316.3,-336.16"/>
<polygon fill="black" stroke="black" points="316.02,-339.63 325.87,-335.72 315.74,-332.64 316.02,-339.63"/>
</g>
<!-- ui:settings&#45;&gt;data&#45;android -->
<g id="edge48" class="edge">
<title>ui:settings&#45;&gt;data&#45;android</title>
<path fill="none" stroke="black" d="M498.18,-536.34C461.97,-510.77 389.32,-459.5 347.54,-430"/>
<polygon fill="black" stroke="black" points="349.81,-426.61 339.62,-423.71 345.77,-432.33 349.81,-426.61"/>
</g>
<!-- ui:settings&#45;&gt;ui:common -->
<g id="edge49" class="edge">
<title>ui:settings&#45;&gt;ui:common</title>
<path fill="none" stroke="black" d="M521.22,-534.56C521.77,-526.8 522.43,-517.43 523.05,-508.7"/>
<polygon fill="black" stroke="black" points="526.6,-509 523.81,-498.78 519.62,-508.51 526.6,-509"/>
</g>
<!-- ui:settings&#45;&gt;ui:core -->
<g id="edge50" class="edge">
<title>ui:settings&#45;&gt;ui:core</title>
<path fill="none" stroke="black" d="M547.01,-537.69C581.67,-517.88 640.06,-478.13 663.01,-424.75 672.23,-403.31 661.65,-378.25 650.25,-360.03"/>
<polygon fill="black" stroke="black" points="652.61,-358.27 644.13,-351.92 646.8,-362.17 652.61,-358.27"/>
</g>
<!-- ui:spotify&#45;&gt;ui:common -->
<g id="edge54" class="edge">
<title>ui:spotify&#45;&gt;ui:common</title>
<path fill="none" stroke="black" d="M890.23,-544.62C817.29,-531.86 664.4,-505.13 581.45,-490.62"/>
<polygon fill="black" stroke="black" points="582.17,-487.02 571.71,-488.74 580.96,-493.91 582.17,-487.02"/>
</g>
<!-- ui:spotify&#45;&gt;ui:core -->
<g id="edge53" class="edge">
<title>ui:spotify&#45;&gt;ui:core</title>
<path fill="none" stroke="black" d="M925.43,-534.6C910.82,-489.8 872.33,-372.51 869.01,-369.75 840.69,-346.17 738.27,-338.47 677.41,-335.96"/>
<polygon fill="black" stroke="black" points="677.68,-332.43 667.55,-335.55 677.41,-339.42 677.68,-332.43"/>
</g>
<!-- ui:spotify&#45;&gt;data:core -->
<g id="edge51" class="edge">
<title>ui:spotify&#45;&gt;data:core</title>
<path fill="none" stroke="black" d="M950.49,-536.15C964.53,-523.03 981.01,-502.91 981.01,-480.75 981.01,-480.75 981.01,-480.75 981.01,-113.75 981.01,-60.99 811.19,-47.43 720.53,-43.95"/>
<polygon fill="black" stroke="black" points="720.74,-40.42 710.62,-43.56 720.49,-47.41 720.74,-40.42"/>
</g>
<!-- data:spotify -->
<g id="node17" class="node">
<title>data:spotify</title>
<ellipse fill="none" stroke="black" cx="899.01" cy="-260.75" rx="54.06" ry="18"/>
<text text-anchor="middle" x="899.01" y="-255.32" font-family="Times New Roman,serif" font-size="14.00">data:spotify</text>
</g>
<!-- ui:spotify&#45;&gt;data:spotify -->
<g id="edge52" class="edge">
<title>ui:spotify&#45;&gt;data:spotify</title>
<path fill="none" stroke="black" d="M932.15,-534.54C933,-520.17 934.01,-499.13 934.01,-480.75 934.01,-480.75 934.01,-480.75 934.01,-332.75 934.01,-316.65 926.69,-300.42 918.74,-287.55"/>
<polygon fill="black" stroke="black" points="921.11,-285.79 912.65,-279.42 915.28,-289.68 921.11,-285.79"/>
</g>
<!-- ui:stats&#45;&gt;ui:common -->
<g id="edge56" class="edge">
<title>ui:stats&#45;&gt;ui:common</title>
<path fill="none" stroke="black" d="M77.29,-546.7C158.95,-534.67 365.69,-504.22 467.11,-489.28"/>
<polygon fill="black" stroke="black" points="467.38,-492.63 476.77,-487.71 466.36,-485.7 467.38,-492.63"/>
</g>
<!-- ui:stats&#45;&gt;ui:core -->
<g id="edge57" class="edge">
<title>ui:stats&#45;&gt;ui:core</title>
<path fill="none" stroke="black" d="M47.05,-534.5C53.64,-510.22 69.1,-466.32 99.01,-442.75 125.6,-421.8 142.07,-438.48 173.01,-424.75 199.04,-413.2 200.1,-400.55 226.01,-388.75 289.15,-360 492.22,-343.66 584.55,-337.55"/>
<polygon fill="black" stroke="black" points="584.75,-340.98 594.51,-336.84 584.3,-333.99 584.75,-340.98"/>
</g>
<!-- ui:stats&#45;&gt;data -->
<g id="edge55" class="edge">
<title>ui:stats&#45;&gt;data</title>
<path fill="none" stroke="black" d="M31.49,-535.4C28.11,-529.75 24.84,-523.21 23.01,-516.75 5.17,-453.71 -22.77,-402.44 34.01,-369.75 81.23,-342.57 242.17,-336.49 316.2,-335.13"/>
<polygon fill="black" stroke="black" points="315.94,-338.62 325.88,-334.96 315.83,-331.62 315.94,-338.62"/>
</g>
<!-- data&#45;&gt;data:core -->
<g id="edge11" class="edge">
<title>data&#45;&gt;data:core</title>
<path fill="none" stroke="red" d="M380.7,-329.89C459.72,-321.08 687.01,-293.01 687.01,-261.75 687.01,-261.75 687.01,-261.75 687.01,-113.75 687.01,-98.83 682.53,-82.9 677.6,-69.92"/>
<polygon fill="red" stroke="red" points="680.49,-68.73 673.46,-60.8 674.01,-71.38 680.49,-68.73"/>
</g>
<!-- data:coverart -->
<g id="node14" class="node">
<title>data:coverart</title>
<ellipse fill="none" stroke="black" cx="600.01" cy="-114.75" rx="58.55" ry="18"/>
<text text-anchor="middle" x="600.01" y="-109.33" font-family="Times New Roman,serif" font-size="14.00">data:coverart</text>
</g>
<!-- data&#45;&gt;data:coverart -->
<g id="edge12" class="edge">
<title>data&#45;&gt;data:coverart</title>
<path fill="none" stroke="red" d="M381.06,-331.24C419.42,-327.79 489.96,-316.38 535.01,-278.75 576.12,-244.42 591.43,-180.36 596.98,-143.6"/>
<polygon fill="red" stroke="red" points="600.52,-144.52 598.4,-134.13 593.59,-143.57 600.52,-144.52"/>
</g>
<!-- data:domain -->
<g id="node15" class="node">
<title>data:domain</title>
<ellipse fill="none" stroke="black" cx="470.01" cy="-260.75" rx="55.55" ry="18"/>
<text text-anchor="middle" x="470.01" y="-255.32" font-family="Times New Roman,serif" font-size="14.00">data:domain</text>
</g>
<!-- data&#45;&gt;data:domain -->
<g id="edge13" class="edge">
<title>data&#45;&gt;data:domain</title>
<path fill="none" stroke="red" d="M373.43,-320.87C390.36,-310.51 415.31,-295.23 435.61,-282.81"/>
<polygon fill="red" stroke="red" points="437.15,-285.36 443.85,-277.15 433.5,-279.39 437.15,-285.36"/>
</g>
<!-- data:room -->
<g id="node16" class="node">
<title>data:room</title>
<ellipse fill="none" stroke="black" cx="437.01" cy="-187.75" rx="48.07" ry="18"/>
<text text-anchor="middle" x="437.01" y="-182.32" font-family="Times New Roman,serif" font-size="14.00">data:room</text>
</g>
<!-- data&#45;&gt;data:room -->
<g id="edge14" class="edge">
<title>data&#45;&gt;data:room</title>
<path fill="none" stroke="red" d="M363.13,-316.44C373.26,-298.37 390.15,-268.39 405.01,-242.75 410.25,-233.71 416.06,-223.86 421.27,-215.08"/>
<polygon fill="red" stroke="red" points="424.73,-217.11 426.84,-206.72 418.72,-213.53 424.73,-217.11"/>
</g>
<!-- data&#45;&gt;data:spotify -->
<g id="edge15" class="edge">
<title>data&#45;&gt;data:spotify</title>
<path fill="none" stroke="red" d="M381.1,-330.75C439.65,-326.28 582.3,-314.5 701.01,-297.75 749.24,-290.94 803.65,-280.88 843.21,-273.12"/>
<polygon fill="red" stroke="red" points="843.83,-276.37 852.96,-270.99 842.47,-269.5 843.83,-276.37"/>
</g>
<!-- data:musicbrainz -->
<g id="node18" class="node">
<title>data:musicbrainz</title>
<ellipse fill="none" stroke="black" cx="364.01" cy="-114.75" rx="72.52" ry="18"/>
<text text-anchor="middle" x="364.01" y="-109.33" font-family="Times New Roman,serif" font-size="14.00">data:musicbrainz</text>
</g>
<!-- data&#45;&gt;data:musicbrainz -->
<g id="edge16" class="edge">
<title>data&#45;&gt;data:musicbrainz</title>
<path fill="none" stroke="red" d="M354.12,-315.41C354.42,-283.02 355.58,-211.13 360.01,-150.75 360.18,-148.51 360.38,-146.19 360.6,-143.87"/>
<polygon fill="red" stroke="red" points="364.16,-144.49 361.74,-134.17 357.2,-143.74 364.16,-144.49"/>
</g>
<!-- data:coverart&#45;&gt;data:core -->
<g id="edge19" class="edge">
<title>data:coverart&#45;&gt;data:core</title>
<path fill="none" stroke="black" d="M615.42,-96.92C623.63,-87.95 633.88,-76.76 642.92,-66.88"/>
<polygon fill="black" stroke="black" points="645,-69.71 649.17,-59.97 639.83,-64.98 645,-69.71"/>
</g>
<!-- data:domain&#45;&gt;data:core -->
<g id="edge20" class="edge">
<title>data:domain&#45;&gt;data:core</title>
<path fill="none" stroke="black" d="M477.94,-242.88C482.81,-232.31 489.03,-218.34 494.01,-205.75 512.89,-158.05 496.66,-133.93 532.01,-96.75 553.87,-73.77 586.85,-60.29 614.51,-52.55"/>
<polygon fill="black" stroke="black" points="615.02,-55.77 623.81,-49.86 613.25,-49 615.02,-55.77"/>
</g>
<!-- data:domain&#45;&gt;data:coverart -->
<g id="edge21" class="edge">
<title>data:domain&#45;&gt;data:coverart</title>
<path fill="none" stroke="black" d="M499.27,-245.05C508.74,-239.47 518.89,-232.56 527.01,-224.75 552.3,-200.44 573.58,-165.94 586.52,-142.3"/>
<polygon fill="black" stroke="black" points="589.92,-144.36 591.55,-133.89 583.75,-141.06 589.92,-144.36"/>
</g>
<!-- data:domain&#45;&gt;data:room -->
<g id="edge23" class="edge">
<title>data:domain&#45;&gt;data:room</title>
<path fill="none" stroke="black" d="M462.03,-242.56C458.26,-234.45 453.67,-224.59 449.46,-215.53"/>
<polygon fill="black" stroke="black" points="452.32,-214.37 444.93,-206.78 445.97,-217.32 452.32,-214.37"/>
</g>
<!-- data:domain&#45;&gt;data:musicbrainz -->
<g id="edge22" class="edge">
<title>data:domain&#45;&gt;data:musicbrainz</title>
<path fill="none" stroke="black" d="M434.03,-246.74C415.04,-238.04 393.04,-224.66 380.01,-205.75 367.56,-187.68 363.9,-162.86 363.15,-143.87"/>
<polygon fill="black" stroke="black" points="366.64,-143.86 363.02,-133.91 359.64,-143.95 366.64,-143.86"/>
</g>
<!-- data:room&#45;&gt;data:core -->
<g id="edge25" class="edge">
<title>data:room&#45;&gt;data:core</title>
<path fill="none" stroke="black" d="M441.79,-169.74C449.57,-145.36 467.37,-100.86 499.01,-77.75 530.78,-54.55 574.58,-46.03 609.21,-43.19"/>
<polygon fill="black" stroke="black" points="609.36,-46.62 619.1,-42.46 608.89,-39.64 609.36,-46.62"/>
</g>
<!-- data:room&#45;&gt;data:coverart -->
<g id="edge26" class="edge">
<title>data:room&#45;&gt;data:coverart</title>
<path fill="none" stroke="black" d="M467.29,-173.56C492.55,-162.56 528.84,-146.75 557.09,-134.45"/>
<polygon fill="black" stroke="black" points="558.33,-137.29 566.1,-130.09 555.53,-130.87 558.33,-137.29"/>
</g>
<!-- data:room&#45;&gt;data:musicbrainz -->
<g id="edge27" class="edge">
<title>data:room&#45;&gt;data:musicbrainz</title>
<path fill="none" stroke="black" d="M420.45,-170.64C411.13,-161.58 399.31,-150.08 388.9,-139.95"/>
<polygon fill="black" stroke="black" points="391.88,-138 382.27,-133.54 387,-143.02 391.88,-138"/>
</g>
<!-- data:spotify&#45;&gt;data:core -->
<g id="edge28" class="edge">
<title>data:spotify&#45;&gt;data:core</title>
<path fill="none" stroke="black" d="M897.89,-242.39C894.57,-205.93 881.51,-121.2 831.01,-77.75 814.36,-63.42 760.75,-53.91 718.91,-48.46"/>
<polygon fill="black" stroke="black" points="719.37,-44.87 709.01,-47.1 718.5,-51.81 719.37,-44.87"/>
</g>
<!-- data:musicbrainz&#45;&gt;data:core -->
<g id="edge24" class="edge">
<title>data:musicbrainz&#45;&gt;data:core</title>
<path fill="none" stroke="black" d="M398.34,-98.54C415.65,-91.37 437.15,-83.21 457.01,-77.75 508.55,-63.6 568.94,-54.2 611.32,-48.75"/>
<polygon fill="black" stroke="black" points="611.75,-52.09 621.24,-47.38 610.88,-45.15 611.75,-52.09"/>
</g>
<!-- test&#45;data -->
<g id="node19" class="node">
<title>test&#45;data</title>
<ellipse fill="none" stroke="black" cx="122.01" cy="-406.75" rx="42.08" ry="18"/>
<text text-anchor="middle" x="122.01" y="-401.32" font-family="Times New Roman,serif" font-size="14.00">test&#45;data</text>
</g>
<!-- test&#45;data&#45;&gt;data -->
<g id="edge18" class="edge">
<title>test&#45;data&#45;&gt;data</title>
<path fill="none" stroke="red" d="M141.75,-390.46C152.04,-383.18 165.15,-374.94 178.01,-369.75 223.7,-351.3 280.1,-342.29 316.55,-338.1"/>
<polygon fill="red" stroke="red" points="316.62,-341.5 326.18,-336.94 315.87,-334.54 316.62,-341.5"/>
</g>
<!-- ui:test:screenshot -->
<g id="node20" class="node">
<title>ui:test:screenshot</title>
<ellipse fill="none" stroke="black" cx="580.01" cy="-406.75" rx="74.02" ry="18"/>
<text text-anchor="middle" x="580.01" y="-401.32" font-family="Times New Roman,serif" font-size="14.00">ui:test:screenshot</text>
</g>
<!-- ui:test:screenshot&#45;&gt;ui:core -->
<g id="edge58" class="edge">
<title>ui:test:screenshot&#45;&gt;ui:core</title>
<path fill="none" stroke="black" d="M592.36,-388.56C598.61,-379.85 606.32,-369.12 613.21,-359.54"/>
<polygon fill="black" stroke="black" points="616.49,-361.97 619.48,-351.81 610.8,-357.89 616.49,-361.97"/>
</g>
<!-- module -->
<g id="node21" class="node">
<title>module</title>
<ellipse fill="none" stroke="black" cx="992.01" cy="-709" rx="27" ry="18"/>
<text text-anchor="middle" x="992.01" y="-705.12" font-family="Times New Roman,serif" font-size="10.00">module</text>
</g>
<!-- dependency -->
<g id="node22" class="node">
<title>dependency</title>
<ellipse fill="none" stroke="black" cx="992.01" cy="-625.75" rx="38.76" ry="18"/>
<text text-anchor="middle" x="992.01" y="-621.88" font-family="Times New Roman,serif" font-size="10.00">dependency</text>
</g>
<!-- module&#45;&gt;dependency -->
<g id="edge59" class="edge">
<title>module&#45;&gt;dependency</title>
<path fill="none" stroke="red" d="M974.51,-694.93C968.04,-689.03 961.45,-681.48 958.01,-673 954.57,-664.5 957.99,-656.14 963.79,-648.91"/>
<polygon fill="red" stroke="red" points="965.99,-651.64 970.42,-642.01 960.95,-646.77 965.99,-651.64"/>
<text text-anchor="middle" x="964.01" y="-663.5" font-family="Times New Roman,serif" font-size="10.00">api</text>
</g>
<!-- module&#45;&gt;dependency -->
<g id="edge60" class="edge">
<title>module&#45;&gt;dependency</title>
<path fill="none" stroke="black" d="M992.01,-690.77C992.01,-680.39 992.01,-666.92 992.01,-655.02"/>
<polygon fill="black" stroke="black" points="995.51,-655.24 992.01,-645.24 988.51,-655.24 995.51,-655.24"/>
<text text-anchor="middle" x="1022.39" y="-663.5" font-family="Times New Roman,serif" font-size="10.00">implementation</text>
</g>
<!-- module&#45;&gt;dependency -->
<g id="edge61" class="edge">
<title>module&#45;&gt;dependency</title>
<path fill="none" stroke="green" d="M1016.71,-700.87C1030.29,-695.55 1045.97,-686.77 1054.01,-673 1062.05,-659.23 1049.3,-648.29 1033.32,-640.51"/>
<polygon fill="green" stroke="green" points="1035.23,-637.09 1024.67,-636.3 1032.43,-643.51 1035.23,-637.09"/>
<text text-anchor="middle" x="1071.39" y="-663.5" font-family="Times New Roman,serif" font-size="10.00">compile</text>
</g>
</g>
</svg>
