<?xml version="1.0" encoding="UTF-8" standalone="no"?>
<!DOCTYPE svg PUBLIC "-//W3C//DTD SVG 1.1//EN"
 "http://www.w3.org/Graphics/SVG/1.1/DTD/svg11.dtd">
<!-- Generated by graphviz version 2.43.0 (0)
 -->
<!-- Title: %3 Pages: 1 -->
<svg width="2330pt" height="940pt"
 viewBox="0.00 0.00 2330.09 940.00" xmlns="http://www.w3.org/2000/svg" xmlns:xlink="http://www.w3.org/1999/xlink">
<g id="graph0" class="graph" transform="scale(1 1) rotate(0) translate(4 936)">
<title>%3</title>
<polygon fill="white" stroke="transparent" points="-4,4 -4,-936 2326.09,-936 2326.09,4 -4,4"/>
<text text-anchor="middle" x="1161.04" y="-904" font-family="Times,serif" font-size="30.00">MusicSearch</text>
<text text-anchor="middle" x="1161.04" y="-871" font-family="Times,serif" font-size="30.00"> </text>
<!-- :app -->
<g id="node1" class="node">
<title>:app</title>
<polygon fill="#9affb5" stroke="black" points="1438.99,-858 1078.99,-858 1078.99,-822 1438.99,-822 1438.99,-858"/>
<text text-anchor="middle" x="1258.99" y="-836.3" font-family="Times,serif" font-size="14.00">:app</text>
</g>
<!-- :test&#45;data -->
<g id="node2" class="node">
<title>:test&#45;data</title>
<ellipse fill="#b59aff" stroke="black" cx="496.99" cy="-292" rx="55.49" ry="18"/>
<text text-anchor="middle" x="496.99" y="-288.3" font-family="Times,serif" font-size="14.00">:test&#45;data</text>
</g>
<!-- :app&#45;&gt;:test&#45;data -->
<g id="edge1" class="edge">
<title>:app&#45;&gt;:test&#45;data</title>
<path fill="none" stroke="#ff9ab1" stroke-dasharray="1,5" d="M1168.89,-821.98C1168.89,-733.58 1168.89,-350 1168.89,-350 1168.89,-350 538.22,-350 538.22,-350 538.22,-350 538.22,-314.02 538.22,-314.02"/>
<polygon fill="#ff9ab1" stroke="#ff9ab1" points="541.72,-314.02 538.22,-304.02 534.72,-314.02 541.72,-314.02"/>
</g>
<!-- :core:preferences -->
<g id="node3" class="node">
<title>:core:preferences</title>
<ellipse fill="#9affb5" stroke="black" cx="905.99" cy="-566" rx="91.78" ry="18"/>
<text text-anchor="middle" x="905.99" y="-562.3" font-family="Times,serif" font-size="14.00">:core:preferences</text>
</g>
<!-- :app&#45;&gt;:core:preferences -->
<g id="edge2" class="edge">
<title>:app&#45;&gt;:core:preferences</title>
<path fill="none" stroke="black" stroke-dasharray="1,5" d="M1078.97,-829C993.68,-829 910.18,-829 910.18,-829 910.18,-829 910.18,-594.08 910.18,-594.08"/>
<polygon fill="black" stroke="black" points="913.68,-594.08 910.18,-584.08 906.68,-594.08 913.68,-594.08"/>
</g>
<!-- :data&#45;android -->
<g id="node4" class="node">
<title>:data&#45;android</title>
<ellipse fill="#9affb5" stroke="black" cx="582.99" cy="-429" rx="72.59" ry="18"/>
<text text-anchor="middle" x="582.99" y="-425.3" font-family="Times,serif" font-size="14.00">:data&#45;android</text>
</g>
<!-- :app&#45;&gt;:data&#45;android -->
<g id="edge3" class="edge">
<title>:app&#45;&gt;:data&#45;android</title>
<path fill="none" stroke="black" stroke-dasharray="1,5" d="M1078.56,-850C884.04,-850 601.89,-850 601.89,-850 601.89,-850 601.89,-456.55 601.89,-456.55"/>
<polygon fill="black" stroke="black" points="605.39,-456.55 601.89,-446.55 598.39,-456.55 605.39,-456.55"/>
</g>
<!-- :data:database -->
<g id="node5" class="node">
<title>:data:database</title>
<ellipse fill="#b59aff" stroke="black" cx="141.99" cy="-292" rx="79.09" ry="18"/>
<text text-anchor="middle" x="141.99" y="-288.3" font-family="Times,serif" font-size="14.00">:data:database</text>
</g>
<!-- :app&#45;&gt;:data:database -->
<g id="edge4" class="edge">
<title>:app&#45;&gt;:data:database</title>
<path fill="none" stroke="black" stroke-dasharray="1,5" d="M1164.46,-821.8C1164.46,-737.61 1164.46,-390 1164.46,-390 1164.46,-390 204.14,-390 204.14,-390 204.14,-390 204.14,-313.24 204.14,-313.24"/>
<polygon fill="black" stroke="black" points="207.64,-313.24 204.14,-303.24 200.64,-313.24 207.64,-313.24"/>
</g>
<!-- :data:repository -->
<g id="node6" class="node">
<title>:data:repository</title>
<ellipse fill="#b59aff" stroke="black" cx="254.99" cy="-429" rx="85.29" ry="18"/>
<text text-anchor="middle" x="254.99" y="-425.3" font-family="Times,serif" font-size="14.00">:data:repository</text>
</g>
<!-- :app&#45;&gt;:data:repository -->
<g id="edge5" class="edge">
<title>:app&#45;&gt;:data:repository</title>
<path fill="none" stroke="black" stroke-dasharray="1,5" d="M1106,-821.87C1106,-801.43 1106,-771 1106,-771 1106,-771 264.06,-771 264.06,-771 264.06,-771 264.06,-456.91 264.06,-456.91"/>
<polygon fill="black" stroke="black" points="267.56,-456.91 264.06,-446.91 260.56,-456.91 267.56,-456.91"/>
</g>
<!-- :inverted&#45;domain -->
<g id="node7" class="node">
<title>:inverted&#45;domain</title>
<ellipse fill="#b59aff" stroke="black" cx="1025.99" cy="-155" rx="89.88" ry="18"/>
<text text-anchor="middle" x="1025.99" y="-151.3" font-family="Times,serif" font-size="14.00">:inverted&#45;domain</text>
</g>
<!-- :app&#45;&gt;:inverted&#45;domain -->
<g id="edge6" class="edge">
<title>:app&#45;&gt;:inverted&#45;domain</title>
<path fill="none" stroke="black" stroke-dasharray="1,5" d="M1173.32,-821.95C1173.32,-714.6 1173.32,-165 1173.32,-165 1173.32,-165 1110.95,-165 1110.95,-165"/>
<polygon fill="black" stroke="black" points="1110.95,-161.5 1100.95,-165 1110.95,-168.5 1110.95,-161.5"/>
</g>
<!-- :feature:search -->
<g id="node8" class="node">
<title>:feature:search</title>
<ellipse fill="#9affb5" stroke="black" cx="1258.99" cy="-703" rx="81.49" ry="18"/>
<text text-anchor="middle" x="1258.99" y="-699.3" font-family="Times,serif" font-size="14.00">:feature:search</text>
</g>
<!-- :app&#45;&gt;:feature:search -->
<g id="edge7" class="edge">
<title>:app&#45;&gt;:feature:search</title>
<path fill="none" stroke="black" stroke-dasharray="1,5" d="M1258.99,-821.81C1258.99,-821.81 1258.99,-731.27 1258.99,-731.27"/>
<polygon fill="black" stroke="black" points="1262.49,-731.27 1258.99,-721.27 1255.49,-731.27 1262.49,-731.27"/>
</g>
<!-- :strings -->
<g id="node9" class="node">
<title>:strings</title>
<ellipse fill="#b59aff" stroke="black" cx="1332.99" cy="-429" rx="46.29" ry="18"/>
<text text-anchor="middle" x="1332.99" y="-425.3" font-family="Times,serif" font-size="14.00">:strings</text>
</g>
<!-- :app&#45;&gt;:strings -->
<g id="edge8" class="edge">
<title>:app&#45;&gt;:strings</title>
<path fill="none" stroke="black" stroke-dasharray="1,5" d="M1345.79,-821.81C1345.79,-821.81 1345.79,-456.52 1345.79,-456.52"/>
<polygon fill="black" stroke="black" points="1349.29,-456.52 1345.79,-446.52 1342.29,-456.52 1349.29,-456.52"/>
</g>
<!-- :ui:common -->
<g id="node10" class="node">
<title>:ui:common</title>
<ellipse fill="#9affb5" stroke="black" cx="1611.99" cy="-566" rx="64.19" ry="18"/>
<text text-anchor="middle" x="1611.99" y="-562.3" font-family="Times,serif" font-size="14.00">:ui:common</text>
</g>
<!-- :app&#45;&gt;:ui:common -->
<g id="edge9" class="edge">
<title>:app&#45;&gt;:ui:common</title>
<path fill="none" stroke="black" stroke-dasharray="1,5" d="M1415.05,-821.72C1415.05,-762.54 1415.05,-580 1415.05,-580 1415.05,-580 1561.18,-580 1561.18,-580"/>
<polygon fill="black" stroke="black" points="1561.18,-583.5 1571.18,-580 1561.18,-576.5 1561.18,-583.5"/>
</g>
<!-- :ui:core -->
<g id="node11" class="node">
<title>:ui:core</title>
<ellipse fill="#b59aff" stroke="black" cx="1670.99" cy="-292" rx="45.49" ry="18"/>
<text text-anchor="middle" x="1670.99" y="-288.3" font-family="Times,serif" font-size="14.00">:ui:core</text>
</g>
<!-- :app&#45;&gt;:ui:core -->
<g id="edge10" class="edge">
<title>:app&#45;&gt;:ui:core</title>
<path fill="none" stroke="black" stroke-dasharray="1,5" d="M1391.11,-821.79C1391.11,-727.81 1391.11,-302 1391.11,-302 1391.11,-302 1622.95,-302 1622.95,-302"/>
<polygon fill="black" stroke="black" points="1622.95,-305.5 1632.95,-302 1622.95,-298.5 1622.95,-305.5"/>
</g>
<!-- :ui:collections -->
<g id="node12" class="node">
<title>:ui:collections</title>
<ellipse fill="#9affb5" stroke="black" cx="747.99" cy="-703" rx="74.99" ry="18"/>
<text text-anchor="middle" x="747.99" y="-699.3" font-family="Times,serif" font-size="14.00">:ui:collections</text>
</g>
<!-- :app&#45;&gt;:ui:collections -->
<g id="edge11" class="edge">
<title>:app&#45;&gt;:ui:collections</title>
<path fill="none" stroke="black" stroke-dasharray="1,5" d="M1078.83,-836C931.71,-836 747.99,-836 747.99,-836 747.99,-836 747.99,-731.21 747.99,-731.21"/>
<polygon fill="black" stroke="black" points="751.49,-731.21 747.99,-721.21 744.49,-731.21 751.49,-731.21"/>
</g>
<!-- :ui:history -->
<g id="node13" class="node">
<title>:ui:history</title>
<ellipse fill="#9affb5" stroke="black" cx="1519.99" cy="-703" rx="57.69" ry="18"/>
<text text-anchor="middle" x="1519.99" y="-699.3" font-family="Times,serif" font-size="14.00">:ui:history</text>
</g>
<!-- :app&#45;&gt;:ui:history -->
<g id="edge12" class="edge">
<title>:app&#45;&gt;:ui:history</title>
<path fill="none" stroke="black" stroke-dasharray="1,5" d="M1427.02,-821.93C1427.02,-786.65 1427.02,-712 1427.02,-712 1427.02,-712 1459.69,-712 1459.69,-712"/>
<polygon fill="black" stroke="black" points="1459.69,-715.5 1469.69,-712 1459.69,-708.5 1459.69,-715.5"/>
</g>
<!-- :ui:image -->
<g id="node14" class="node">
<title>:ui:image</title>
<ellipse fill="#b59aff" stroke="black" cx="2058.99" cy="-429" rx="53.89" ry="18"/>
<text text-anchor="middle" x="2058.99" y="-425.3" font-family="Times,serif" font-size="14.00">:ui:image</text>
</g>
<!-- :app&#45;&gt;:ui:image -->
<g id="edge13" class="edge">
<title>:app&#45;&gt;:ui:image</title>
<path fill="none" stroke="black" stroke-dasharray="1,5" d="M1439.15,-843C1683.35,-843 2089.28,-843 2089.28,-843 2089.28,-843 2089.28,-454.23 2089.28,-454.23"/>
<polygon fill="black" stroke="black" points="2092.78,-454.23 2089.28,-444.23 2085.78,-454.23 2092.78,-454.23"/>
</g>
<!-- :ui:nowplaying -->
<g id="node15" class="node">
<title>:ui:nowplaying</title>
<ellipse fill="#9affb5" stroke="black" cx="1986.99" cy="-703" rx="78.79" ry="18"/>
<text text-anchor="middle" x="1986.99" y="-699.3" font-family="Times,serif" font-size="14.00">:ui:nowplaying</text>
</g>
<!-- :app&#45;&gt;:ui:nowplaying -->
<g id="edge14" class="edge">
<title>:app&#45;&gt;:ui:nowplaying</title>
<path fill="none" stroke="black" stroke-dasharray="1,5" d="M1439.41,-836C1655.01,-836 1986.99,-836 1986.99,-836 1986.99,-836 1986.99,-731.21 1986.99,-731.21"/>
<polygon fill="black" stroke="black" points="1990.49,-731.21 1986.99,-721.21 1983.49,-731.21 1990.49,-731.21"/>
</g>
<!-- :ui:settings -->
<g id="node16" class="node">
<title>:ui:settings</title>
<ellipse fill="#9affb5" stroke="black" cx="1096.99" cy="-703" rx="63.09" ry="18"/>
<text text-anchor="middle" x="1096.99" y="-699.3" font-family="Times,serif" font-size="14.00">:ui:settings</text>
</g>
<!-- :app&#45;&gt;:ui:settings -->
<g id="edge15" class="edge">
<title>:app&#45;&gt;:ui:settings</title>
<path fill="none" stroke="black" stroke-dasharray="1,5" d="M1133.02,-821.81C1133.02,-821.81 1133.02,-727.9 1133.02,-727.9"/>
<polygon fill="black" stroke="black" points="1136.52,-727.9 1133.02,-717.9 1129.52,-727.9 1136.52,-727.9"/>
</g>
<!-- :ui:spotify&#45;broadcast&#45;receiver -->
<g id="node17" class="node">
<title>:ui:spotify&#45;broadcast&#45;receiver</title>
<ellipse fill="#9affb5" stroke="black" cx="1742.99" cy="-703" rx="146.77" ry="18"/>
<text text-anchor="middle" x="1742.99" y="-699.3" font-family="Times,serif" font-size="14.00">:ui:spotify&#45;broadcast&#45;receiver</text>
</g>
<!-- :app&#45;&gt;:ui:spotify&#45;broadcast&#45;receiver -->
<g id="edge16" class="edge">
<title>:app&#45;&gt;:ui:spotify&#45;broadcast&#45;receiver</title>
<path fill="none" stroke="black" stroke-dasharray="1,5" d="M1439.21,-829C1576.82,-829 1742.99,-829 1742.99,-829 1742.99,-829 1742.99,-731.05 1742.99,-731.05"/>
<polygon fill="black" stroke="black" points="1746.49,-731.05 1742.99,-721.05 1739.49,-731.05 1746.49,-731.05"/>
</g>
<!-- :ui:stats -->
<g id="node18" class="node">
<title>:ui:stats</title>
<ellipse fill="#9affb5" stroke="black" cx="2273.99" cy="-703" rx="48.19" ry="18"/>
<text text-anchor="middle" x="2273.99" y="-699.3" font-family="Times,serif" font-size="14.00">:ui:stats</text>
</g>
<!-- :app&#45;&gt;:ui:stats -->
<g id="edge17" class="edge">
<title>:app&#45;&gt;:ui:stats</title>
<path fill="none" stroke="black" stroke-dasharray="1,5" d="M1438.99,-850C1730.59,-850 2273.99,-850 2273.99,-850 2273.99,-850 2273.99,-731.03 2273.99,-731.03"/>
<polygon fill="black" stroke="black" points="2277.49,-731.03 2273.99,-721.03 2270.49,-731.03 2277.49,-731.03"/>
</g>
<!-- :test&#45;data&#45;&gt;:inverted&#45;domain -->
<g id="edge30" class="edge">
<title>:test&#45;data&#45;&gt;:inverted&#45;domain</title>
<path fill="none" stroke="black" stroke-dasharray="1,5" d="M538.2,-279.66C538.2,-268.23 538.2,-253 538.2,-253 538.2,-253 956.74,-253 956.74,-253 956.74,-253 956.74,-176.63 956.74,-176.63"/>
<polygon fill="black" stroke="black" points="960.24,-176.63 956.74,-166.63 953.24,-176.63 960.24,-176.63"/>
</g>
<!-- :core:models -->
<g id="node20" class="node">
<title>:core:models</title>
<ellipse fill="#b59aff" stroke="black" cx="907.99" cy="-18" rx="69.59" ry="18"/>
<text text-anchor="middle" x="907.99" y="-14.3" font-family="Times,serif" font-size="14.00">:core:models</text>
</g>
<!-- :test&#45;data&#45;&gt;:core:models -->
<g id="edge25" class="edge">
<title>:test&#45;data&#45;&gt;:core:models</title>
<path fill="none" stroke="black" stroke-dasharray="1,5" d="M477.98,-274.99C477.98,-215.44 477.98,-20 477.98,-20 477.98,-20 828.42,-20 828.42,-20"/>
<polygon fill="black" stroke="black" points="828.42,-23.5 838.42,-20 828.42,-16.5 828.42,-23.5"/>
</g>
<!-- :data:common:network -->
<g id="node21" class="node">
<title>:data:common:network</title>
<ellipse fill="#b59aff" stroke="black" cx="116.99" cy="-155" rx="116.98" ry="18"/>
<text text-anchor="middle" x="116.99" y="-151.3" font-family="Times,serif" font-size="14.00">:data:common:network</text>
</g>
<!-- :test&#45;data&#45;&gt;:data:common:network -->
<g id="edge26" class="edge">
<title>:test&#45;data&#45;&gt;:data:common:network</title>
<path fill="none" stroke="black" stroke-dasharray="1,5" d="M449.14,-301C371.74,-301 227.63,-301 227.63,-301 227.63,-301 227.63,-170.9 227.63,-170.9"/>
<polygon fill="black" stroke="black" points="231.13,-170.9 227.63,-160.9 224.13,-170.9 231.13,-170.9"/>
</g>
<!-- :data:coverart -->
<g id="node22" class="node">
<title>:data:coverart</title>
<ellipse fill="#b59aff" stroke="black" cx="727.99" cy="-155" rx="76.09" ry="18"/>
<text text-anchor="middle" x="727.99" y="-151.3" font-family="Times,serif" font-size="14.00">:data:coverart</text>
</g>
<!-- :test&#45;data&#45;&gt;:data:coverart -->
<g id="edge28" class="edge">
<title>:test&#45;data&#45;&gt;:data:coverart</title>
<path fill="none" stroke="black" stroke-dasharray="1,5" d="M524.17,-276.09C524.17,-248.11 524.17,-193 524.17,-193 524.17,-193 660.15,-193 660.15,-193 660.15,-193 660.15,-173.43 660.15,-173.43"/>
<polygon fill="black" stroke="black" points="663.65,-173.43 660.15,-163.43 656.65,-173.43 663.65,-173.43"/>
</g>
<!-- :data:spotify -->
<g id="node23" class="node">
<title>:data:spotify</title>
<ellipse fill="#b59aff" stroke="black" cx="564.99" cy="-155" rx="68.79" ry="18"/>
<text text-anchor="middle" x="564.99" y="-151.3" font-family="Times,serif" font-size="14.00">:data:spotify</text>
</g>
<!-- :test&#45;data&#45;&gt;:data:spotify -->
<g id="edge29" class="edge">
<title>:test&#45;data&#45;&gt;:data:spotify</title>
<path fill="none" stroke="black" stroke-dasharray="1,5" d="M510.13,-274.37C510.13,-274.37 510.13,-176.2 510.13,-176.2"/>
<polygon fill="black" stroke="black" points="513.63,-176.2 510.13,-166.2 506.63,-176.2 513.63,-176.2"/>
</g>
<!-- :data:musicbrainz -->
<g id="node24" class="node">
<title>:data:musicbrainz</title>
<ellipse fill="#b59aff" stroke="black" cx="345.99" cy="-155" rx="93.68" ry="18"/>
<text text-anchor="middle" x="345.99" y="-151.3" font-family="Times,serif" font-size="14.00">:data:musicbrainz</text>
</g>
<!-- :test&#45;data&#45;&gt;:data:musicbrainz -->
<g id="edge27" class="edge">
<title>:test&#45;data&#45;&gt;:data:musicbrainz</title>
<path fill="none" stroke="black" stroke-dasharray="1,5" d="M459.86,-278.61C459.86,-244.14 459.86,-155 459.86,-155 459.86,-155 449.77,-155 449.77,-155"/>
<polygon fill="black" stroke="black" points="449.77,-151.5 439.77,-155 449.77,-158.5 449.77,-151.5"/>
</g>
<!-- :core:preferences&#45;&gt;:core:models -->
<g id="edge32" class="edge">
<title>:core:preferences&#45;&gt;:core:models</title>
<path fill="none" stroke="black" stroke-dasharray="1,5" d="M911.83,-547.77C911.83,-547.77 911.83,-46.02 911.83,-46.02"/>
<polygon fill="black" stroke="black" points="915.33,-46.02 911.83,-36.02 908.33,-46.02 915.33,-46.02"/>
</g>
<!-- :data&#45;android&#45;&gt;:test&#45;data -->
<g id="edge19" class="edge">
<title>:data&#45;android&#45;&gt;:test&#45;data</title>
<path fill="none" stroke="#ff9ab1" stroke-dasharray="1,5" d="M524.21,-418.25C524.21,-418.25 524.21,-318.07 524.21,-318.07"/>
<polygon fill="#ff9ab1" stroke="#ff9ab1" points="527.71,-318.07 524.21,-308.07 520.71,-318.07 527.71,-318.07"/>
</g>
<!-- :data -->
<g id="node19" class="node">
<title>:data</title>
<ellipse fill="#ffb59a" stroke="black" cx="604.99" cy="-292" rx="34.39" ry="18"/>
<text text-anchor="middle" x="604.99" y="-288.3" font-family="Times,serif" font-size="14.00">:data</text>
</g>
<!-- :data&#45;android&#45;&gt;:data -->
<g id="edge18" class="edge">
<title>:data&#45;android&#45;&gt;:data</title>
<path fill="none" stroke="black" d="M604.99,-411.65C604.99,-411.65 604.99,-320.08 604.99,-320.08"/>
<polygon fill="black" stroke="black" points="608.49,-320.08 604.99,-310.08 601.49,-320.08 608.49,-320.08"/>
</g>
<!-- :data:database&#45;&gt;:core:models -->
<g id="edge34" class="edge">
<title>:data:database&#45;&gt;:core:models</title>
<path fill="none" stroke="black" stroke-dasharray="1,5" d="M210.68,-283C227.17,-283 240.12,-283 240.12,-283 240.12,-283 240.12,-5 240.12,-5 240.12,-5 849.69,-5 849.69,-5"/>
<polygon fill="black" stroke="black" points="849.69,-8.5 859.69,-5 849.69,-1.5 849.69,-8.5"/>
</g>
<!-- :data:database&#45;&gt;:data:common:network -->
<g id="edge35" class="edge">
<title>:data:database&#45;&gt;:data:common:network</title>
<path fill="none" stroke="black" stroke-dasharray="1,5" d="M141.99,-273.81C141.99,-273.81 141.99,-182.83 141.99,-182.83"/>
<polygon fill="black" stroke="black" points="145.49,-182.83 141.99,-172.83 138.49,-182.83 145.49,-182.83"/>
</g>
<!-- :data:database&#45;&gt;:data:musicbrainz -->
<g id="edge36" class="edge">
<title>:data:database&#45;&gt;:data:musicbrainz</title>
<path fill="none" stroke="black" stroke-dasharray="1,5" d="M221.39,-292C259.19,-292 296.26,-292 296.26,-292 296.26,-292 296.26,-180.45 296.26,-180.45"/>
<polygon fill="black" stroke="black" points="299.77,-180.45 296.26,-170.45 292.77,-180.45 299.77,-180.45"/>
</g>
<!-- :data:repository&#45;&gt;:test&#45;data -->
<g id="edge45" class="edge">
<title>:data:repository&#45;&gt;:test&#45;data</title>
<path fill="none" stroke="#ff9ab1" stroke-dasharray="1,5" d="M340.43,-429C402.61,-429 475.97,-429 475.97,-429 475.97,-429 475.97,-318.8 475.97,-318.8"/>
<polygon fill="#ff9ab1" stroke="#ff9ab1" points="479.47,-318.8 475.97,-308.8 472.47,-318.8 479.47,-318.8"/>
</g>
<!-- :data:repository&#45;&gt;:data:database -->
<g id="edge41" class="edge">
<title>:data:repository&#45;&gt;:data:database</title>
<path fill="none" stroke="black" stroke-dasharray="1,5" d="M186.99,-417.79C186.99,-417.79 186.99,-317.05 186.99,-317.05"/>
<polygon fill="black" stroke="black" points="190.49,-317.05 186.99,-307.05 183.49,-317.05 190.49,-317.05"/>
</g>
<!-- :data:repository&#45;&gt;:inverted&#45;domain -->
<g id="edge44" class="edge">
<title>:data:repository&#45;&gt;:inverted&#45;domain</title>
<path fill="none" stroke="black" stroke-dasharray="1,5" d="M274.33,-411.3C274.33,-382.82 274.33,-330 274.33,-330 274.33,-330 977.19,-330 977.19,-330 977.19,-330 977.19,-180.22 977.19,-180.22"/>
<polygon fill="black" stroke="black" points="980.69,-180.22 977.19,-170.22 973.69,-180.22 980.69,-180.22"/>
</g>
<!-- :data:repository&#45;&gt;:core:models -->
<g id="edge40" class="edge">
<title>:data:repository&#45;&gt;:core:models</title>
<path fill="none" stroke="black" stroke-dasharray="1,5" d="M246.26,-411C246.26,-330.8 246.26,-10 246.26,-10 246.26,-10 835.44,-10 835.44,-10"/>
<polygon fill="black" stroke="black" points="835.44,-13.5 845.44,-10 835.44,-6.5 835.44,-13.5"/>
</g>
<!-- :data:repository&#45;&gt;:data:common:network -->
<g id="edge43" class="edge">
<title>:data:repository&#45;&gt;:data:common:network</title>
<path fill="none" stroke="black" stroke-dasharray="1,5" d="M224.46,-411.86C224.46,-411.86 224.46,-172.57 224.46,-172.57"/>
<polygon fill="black" stroke="black" points="227.96,-172.57 224.46,-162.57 220.96,-172.57 227.96,-172.57"/>
</g>
<!-- :data:repository&#45;&gt;:data:musicbrainz -->
<g id="edge42" class="edge">
<title>:data:repository&#45;&gt;:data:musicbrainz</title>
<path fill="none" stroke="black" stroke-dasharray="1,5" d="M318.2,-416.87C318.2,-416.87 318.2,-182.38 318.2,-182.38"/>
<polygon fill="black" stroke="black" points="321.7,-182.38 318.2,-172.38 314.7,-182.38 321.7,-182.38"/>
</g>
<!-- :inverted&#45;domain&#45;&gt;:core:models -->
<g id="edge31" class="edge">
<title>:inverted&#45;domain&#45;&gt;:core:models</title>
<path fill="none" stroke="black" stroke-dasharray="1,5" d="M956.92,-143.32C956.92,-143.32 956.92,-40.84 956.92,-40.84"/>
<polygon fill="black" stroke="black" points="960.42,-40.84 956.92,-30.84 953.42,-40.84 960.42,-40.84"/>
</g>
<!-- :feature:search&#45;&gt;:inverted&#45;domain -->
<g id="edge47" class="edge">
<title>:feature:search&#45;&gt;:inverted&#45;domain</title>
<path fill="none" stroke="black" stroke-dasharray="1,5" d="M1221.39,-686.98C1221.39,-596.96 1221.39,-158 1221.39,-158 1221.39,-158 1124.54,-158 1124.54,-158"/>
<polygon fill="black" stroke="black" points="1124.54,-154.5 1114.54,-158 1124.54,-161.5 1124.54,-154.5"/>
</g>
<!-- :feature:search&#45;&gt;:strings -->
<g id="edge48" class="edge">
<title>:feature:search&#45;&gt;:strings</title>
<path fill="none" stroke="black" stroke-dasharray="1,5" d="M1304.64,-687.88C1304.64,-687.88 1304.64,-453.41 1304.64,-453.41"/>
<polygon fill="black" stroke="black" points="1308.14,-453.41 1304.64,-443.41 1301.14,-453.41 1308.14,-453.41"/>
</g>
<!-- :feature:search&#45;&gt;:ui:common -->
<g id="edge49" class="edge">
<title>:feature:search&#45;&gt;:ui:common</title>
<path fill="none" stroke="black" stroke-dasharray="1,5" d="M1322.44,-691.73C1322.44,-660.65 1322.44,-576 1322.44,-576 1322.44,-576 1548.21,-576 1548.21,-576"/>
<polygon fill="black" stroke="black" points="1548.21,-579.5 1558.21,-576 1548.21,-572.5 1548.21,-579.5"/>
</g>
<!-- :feature:search&#45;&gt;:ui:core -->
<g id="edge50" class="edge">
<title>:feature:search&#45;&gt;:ui:core</title>
<path fill="none" stroke="black" stroke-dasharray="1,5" d="M1265.02,-684.81C1265.02,-606.01 1265.02,-298 1265.02,-298 1265.02,-298 1617.93,-298 1617.93,-298"/>
<polygon fill="black" stroke="black" points="1617.93,-301.5 1627.93,-298 1617.93,-294.5 1617.93,-301.5"/>
</g>
<!-- :feature:search&#45;&gt;:core:models -->
<g id="edge46" class="edge">
<title>:feature:search&#45;&gt;:core:models</title>
<path fill="none" stroke="black" stroke-dasharray="1,5" d="M1243.2,-685.27C1243.2,-578.61 1243.2,-27 1243.2,-27 1243.2,-27 978.31,-27 978.31,-27"/>
<polygon fill="black" stroke="black" points="978.31,-23.5 968.31,-27 978.31,-30.5 978.31,-23.5"/>
</g>
<!-- :ui:test:screenshot -->
<g id="node26" class="node">
<title>:ui:test:screenshot</title>
<ellipse fill="#9affb5" stroke="black" cx="1607.99" cy="-429" rx="96.68" ry="18"/>
<text text-anchor="middle" x="1607.99" y="-425.3" font-family="Times,serif" font-size="14.00">:ui:test:screenshot</text>
</g>
<!-- :feature:search&#45;&gt;:ui:test:screenshot -->
<g id="edge51" class="edge">
<title>:feature:search&#45;&gt;:ui:test:screenshot</title>
<path fill="none" stroke="#ff9ab1" stroke-dasharray="1,5" d="M1329.77,-694C1366.21,-694 1403.08,-694 1403.08,-694 1403.08,-694 1403.08,-429 1403.08,-429 1403.08,-429 1500.93,-429 1500.93,-429"/>
<polygon fill="#ff9ab1" stroke="#ff9ab1" points="1500.93,-432.5 1510.93,-429 1500.93,-425.5 1500.93,-432.5"/>
</g>
<!-- :ui:common&#45;&gt;:data&#45;android -->
<g id="edge70" class="edge">
<title>:ui:common&#45;&gt;:data&#45;android</title>
<path fill="none" stroke="orange" d="M1558.07,-556C1446.28,-556 1199.57,-556 1199.57,-556 1199.57,-556 1199.57,-420 1199.57,-420 1199.57,-420 656.08,-420 656.08,-420"/>
<polygon fill="orange" stroke="orange" points="656.08,-416.5 646.08,-420 656.08,-423.5 656.08,-416.5"/>
</g>
<!-- :ui:common&#45;&gt;:inverted&#45;domain -->
<g id="edge71" class="edge">
<title>:ui:common&#45;&gt;:inverted&#45;domain</title>
<path fill="none" stroke="black" stroke-dasharray="1,5" d="M1551.17,-560C1415.37,-560 1099.33,-560 1099.33,-560 1099.33,-560 1099.33,-175.42 1099.33,-175.42"/>
<polygon fill="black" stroke="black" points="1102.83,-175.42 1099.33,-165.42 1095.83,-175.42 1102.83,-175.42"/>
</g>
<!-- :ui:common&#45;&gt;:strings -->
<g id="edge72" class="edge">
<title>:ui:common&#45;&gt;:strings</title>
<path fill="none" stroke="black" stroke-dasharray="1,5" d="M1571.55,-552C1503.53,-552 1373.58,-552 1373.58,-552 1373.58,-552 1373.58,-447.85 1373.58,-447.85"/>
<polygon fill="black" stroke="black" points="1377.08,-447.85 1373.58,-437.85 1370.08,-447.85 1377.08,-447.85"/>
</g>
<!-- :ui:common&#45;&gt;:ui:core -->
<g id="edge73" class="edge">
<title>:ui:common&#45;&gt;:ui:core</title>
<path fill="none" stroke="red" d="M1660.07,-554C1684.35,-554 1708.72,-554 1708.72,-554 1708.72,-554 1708.72,-312.27 1708.72,-312.27"/>
<polygon fill="red" stroke="red" points="1712.22,-312.27 1708.72,-302.27 1705.22,-312.27 1712.22,-312.27"/>
</g>
<!-- :ui:common&#45;&gt;:ui:image -->
<g id="edge74" class="edge">
<title>:ui:common&#45;&gt;:ui:image</title>
<path fill="none" stroke="red" d="M1676.67,-566C1791.77,-566 2020.19,-566 2020.19,-566 2020.19,-566 2020.19,-451.64 2020.19,-451.64"/>
<polygon fill="red" stroke="red" points="2023.69,-451.64 2020.19,-441.64 2016.69,-451.64 2023.69,-451.64"/>
</g>
<!-- :ui:common&#45;&gt;:ui:test:screenshot -->
<g id="edge76" class="edge">
<title>:ui:common&#45;&gt;:ui:test:screenshot</title>
<path fill="none" stroke="#ff9ab1" d="M1611.99,-547.81C1611.99,-547.81 1611.99,-457.27 1611.99,-457.27"/>
<polygon fill="#ff9ab1" stroke="#ff9ab1" points="1615.49,-457.27 1611.99,-447.27 1608.49,-457.27 1615.49,-457.27"/>
</g>
<!-- :ui:test:image -->
<g id="node27" class="node">
<title>:ui:test:image</title>
<ellipse fill="#9affb5" stroke="black" cx="1835.99" cy="-429" rx="74.99" ry="18"/>
<text text-anchor="middle" x="1835.99" y="-425.3" font-family="Times,serif" font-size="14.00">:ui:test:image</text>
</g>
<!-- :ui:common&#45;&gt;:ui:test:image -->
<g id="edge75" class="edge">
<title>:ui:common&#45;&gt;:ui:test:image</title>
<path fill="none" stroke="#ff9ab1" d="M1672.78,-560C1729.07,-560 1804.12,-560 1804.12,-560 1804.12,-560 1804.12,-455.33 1804.12,-455.33"/>
<polygon fill="#ff9ab1" stroke="#ff9ab1" points="1807.62,-455.33 1804.12,-445.33 1800.62,-455.33 1807.62,-455.33"/>
</g>
<!-- :ui:collections&#45;&gt;:core:preferences -->
<g id="edge83" class="edge">
<title>:ui:collections&#45;&gt;:core:preferences</title>
<path fill="none" stroke="black" stroke-dasharray="1,5" d="M816.44,-695.63C816.44,-695.63 816.44,-579.89 816.44,-579.89"/>
<polygon fill="black" stroke="black" points="819.94,-579.89 816.44,-569.89 812.94,-579.89 819.94,-579.89"/>
</g>
<!-- :ui:collections&#45;&gt;:inverted&#45;domain -->
<g id="edge85" class="edge">
<title>:ui:collections&#45;&gt;:inverted&#45;domain</title>
<path fill="none" stroke="black" stroke-dasharray="1,5" d="M808.16,-692.17C808.16,-615.78 808.16,-161 808.16,-161 808.16,-161 931.15,-161 931.15,-161"/>
<polygon fill="black" stroke="black" points="931.15,-164.5 941.15,-161 931.15,-157.5 931.15,-164.5"/>
</g>
<!-- :ui:collections&#45;&gt;:strings -->
<g id="edge86" class="edge">
<title>:ui:collections&#45;&gt;:strings</title>
<path fill="none" stroke="black" stroke-dasharray="1,5" d="M812.28,-693.57C812.28,-645.39 812.28,-429 812.28,-429 812.28,-429 1276.78,-429 1276.78,-429"/>
<polygon fill="black" stroke="black" points="1276.78,-432.5 1286.78,-429 1276.78,-425.5 1276.78,-432.5"/>
</g>
<!-- :ui:collections&#45;&gt;:ui:common -->
<g id="edge87" class="edge">
<title>:ui:collections&#45;&gt;:ui:common</title>
<path fill="none" stroke="red" d="M820.64,-698.66C820.64,-679.33 820.64,-602 820.64,-602 820.64,-602 1553.68,-602 1553.68,-602 1553.68,-602 1553.68,-583.63 1553.68,-583.63"/>
<polygon fill="red" stroke="red" points="1557.18,-583.63 1553.68,-573.63 1550.18,-583.63 1557.18,-583.63"/>
</g>
<!-- :ui:collections&#45;&gt;:ui:core -->
<g id="edge88" class="edge">
<title>:ui:collections&#45;&gt;:ui:core</title>
<path fill="none" stroke="red" d="M810.22,-692.79C810.22,-629.19 810.22,-290 810.22,-290 810.22,-290 1615.62,-290 1615.62,-290"/>
<polygon fill="red" stroke="red" points="1615.62,-293.5 1625.62,-290 1615.62,-286.5 1615.62,-293.5"/>
</g>
<!-- :ui:collections&#45;&gt;:core:models -->
<g id="edge82" class="edge">
<title>:ui:collections&#45;&gt;:core:models</title>
<path fill="none" stroke="black" stroke-dasharray="1,5" d="M806.1,-691.6C806.1,-603.16 806.1,-30 806.1,-30 806.1,-30 846.15,-30 846.15,-30"/>
<polygon fill="black" stroke="black" points="846.15,-33.5 856.15,-30 846.15,-26.5 846.15,-33.5"/>
</g>
<!-- :ui:collections&#45;&gt;:data:musicbrainz -->
<g id="edge84" class="edge">
<title>:ui:collections&#45;&gt;:data:musicbrainz</title>
<path fill="none" stroke="orange" d="M673.24,-703C561.78,-703 364.99,-703 364.99,-703 364.99,-703 364.99,-182.92 364.99,-182.92"/>
<polygon fill="orange" stroke="orange" points="368.49,-182.92 364.99,-172.92 361.49,-182.92 368.49,-182.92"/>
</g>
<!-- :ui:collections&#45;&gt;:ui:test:screenshot -->
<g id="edge89" class="edge">
<title>:ui:collections&#45;&gt;:ui:test:screenshot</title>
<path fill="none" stroke="#ff9ab1" d="M818.54,-696.77C818.54,-673.5 818.54,-593 818.54,-593 818.54,-593 1520.27,-593 1520.27,-593 1520.27,-593 1520.27,-446.91 1520.27,-446.91"/>
<polygon fill="#ff9ab1" stroke="#ff9ab1" points="1523.77,-446.91 1520.27,-436.91 1516.77,-446.91 1523.77,-446.91"/>
</g>
<!-- :ui:history&#45;&gt;:core:preferences -->
<g id="edge96" class="edge">
<title>:ui:history&#45;&gt;:core:preferences</title>
<path fill="none" stroke="black" stroke-dasharray="1,5" d="M1471.95,-692.55C1471.95,-660.23 1471.95,-564 1471.95,-564 1471.95,-564 1007.23,-564 1007.23,-564"/>
<polygon fill="black" stroke="black" points="1007.23,-560.5 997.23,-564 1007.23,-567.5 1007.23,-560.5"/>
</g>
<!-- :ui:history&#45;&gt;:inverted&#45;domain -->
<g id="edge97" class="edge">
<title>:ui:history&#45;&gt;:inverted&#45;domain</title>
<path fill="none" stroke="black" stroke-dasharray="1,5" d="M1481.75,-689.35C1481.75,-604.35 1481.75,-151 1481.75,-151 1481.75,-151 1123.59,-151 1123.59,-151"/>
<polygon fill="black" stroke="black" points="1123.59,-147.5 1113.59,-151 1123.59,-154.5 1123.59,-147.5"/>
</g>
<!-- :ui:history&#45;&gt;:strings -->
<g id="edge98" class="edge">
<title>:ui:history&#45;&gt;:strings</title>
<path fill="none" stroke="black" stroke-dasharray="1,5" d="M1461.95,-703C1413.17,-703 1351.35,-703 1351.35,-703 1351.35,-703 1351.35,-455.73 1351.35,-455.73"/>
<polygon fill="black" stroke="black" points="1354.85,-455.73 1351.35,-445.73 1347.85,-455.73 1354.85,-455.73"/>
</g>
<!-- :ui:history&#45;&gt;:ui:common -->
<g id="edge99" class="edge">
<title>:ui:history&#45;&gt;:ui:common</title>
<path fill="none" stroke="red" d="M1559.72,-689.86C1559.72,-689.86 1559.72,-586.6 1559.72,-586.6"/>
<polygon fill="red" stroke="red" points="1563.22,-586.6 1559.72,-576.6 1556.22,-586.6 1563.22,-586.6"/>
</g>
<!-- :ui:history&#45;&gt;:ui:core -->
<g id="edge100" class="edge">
<title>:ui:history&#45;&gt;:ui:core</title>
<path fill="none" stroke="red" d="M1501.35,-685.94C1501.35,-609.95 1501.35,-306 1501.35,-306 1501.35,-306 1632.21,-306 1632.21,-306"/>
<polygon fill="red" stroke="red" points="1632.21,-309.5 1642.21,-306 1632.21,-302.5 1632.21,-309.5"/>
</g>
<!-- :ui:history&#45;&gt;:ui:image -->
<g id="edge101" class="edge">
<title>:ui:history&#45;&gt;:ui:image</title>
<path fill="none" stroke="red" d="M1571.8,-694.75C1571.8,-686.49 1571.8,-675 1571.8,-675 1571.8,-675 2035.34,-675 2035.34,-675 2035.34,-675 2035.34,-455.52 2035.34,-455.52"/>
<polygon fill="red" stroke="red" points="2038.84,-455.52 2035.34,-445.52 2031.84,-455.52 2038.84,-455.52"/>
</g>
<!-- :ui:history&#45;&gt;:core:models -->
<g id="edge95" class="edge">
<title>:ui:history&#45;&gt;:core:models</title>
<path fill="none" stroke="black" stroke-dasharray="1,5" d="M1491.55,-687.17C1491.55,-584.92 1491.55,-22 1491.55,-22 1491.55,-22 986.07,-22 986.07,-22"/>
<polygon fill="black" stroke="black" points="986.07,-18.5 976.07,-22 986.07,-25.5 986.07,-18.5"/>
</g>
<!-- :ui:history&#45;&gt;:ui:test:screenshot -->
<g id="edge103" class="edge">
<title>:ui:history&#45;&gt;:ui:test:screenshot</title>
<path fill="none" stroke="#ff9ab1" d="M1538.52,-685.86C1538.52,-685.86 1538.52,-451.84 1538.52,-451.84"/>
<polygon fill="#ff9ab1" stroke="#ff9ab1" points="1542.02,-451.84 1538.52,-441.84 1535.02,-451.84 1542.02,-451.84"/>
</g>
<!-- :ui:history&#45;&gt;:ui:test:image -->
<g id="edge102" class="edge">
<title>:ui:history&#45;&gt;:ui:test:image</title>
<path fill="none" stroke="#ff9ab1" d="M1565.76,-691.72C1565.76,-667.15 1565.76,-611 1565.76,-611 1565.76,-611 1847,-611 1847,-611 1847,-611 1847,-457.12 1847,-457.12"/>
<polygon fill="#ff9ab1" stroke="#ff9ab1" points="1850.5,-457.12 1847,-447.12 1843.5,-457.12 1850.5,-457.12"/>
</g>
<!-- :ui:image&#45;&gt;:ui:core -->
<g id="edge53" class="edge">
<title>:ui:image&#45;&gt;:ui:core</title>
<path fill="none" stroke="red" d="M2041.01,-411.93C2041.01,-375.2 2041.01,-292 2041.01,-292 2041.01,-292 1726.73,-292 1726.73,-292"/>
<polygon fill="red" stroke="red" points="1726.73,-288.5 1716.73,-292 1726.73,-295.5 1726.73,-288.5"/>
</g>
<!-- :ui:image&#45;&gt;:core:models -->
<g id="edge52" class="edge">
<title>:ui:image&#45;&gt;:core:models</title>
<path fill="none" stroke="black" stroke-dasharray="1,5" d="M2076.97,-412.02C2076.97,-333.44 2076.97,-9 2076.97,-9 2076.97,-9 978.38,-9 978.38,-9"/>
<polygon fill="black" stroke="black" points="978.38,-5.5 968.38,-9 978.38,-12.5 978.38,-5.5"/>
</g>
<!-- :ui:nowplaying&#45;&gt;:inverted&#45;domain -->
<g id="edge63" class="edge">
<title>:ui:nowplaying&#45;&gt;:inverted&#45;domain</title>
<path fill="none" stroke="black" stroke-dasharray="1,5" d="M1978.1,-685.03C1978.1,-589.35 1978.1,-144 1978.1,-144 1978.1,-144 1107.16,-144 1107.16,-144"/>
<polygon fill="black" stroke="black" points="1107.16,-140.5 1097.16,-144 1107.16,-147.5 1107.16,-140.5"/>
</g>
<!-- :ui:nowplaying&#45;&gt;:strings -->
<g id="edge64" class="edge">
<title>:ui:nowplaying&#45;&gt;:strings</title>
<path fill="none" stroke="black" stroke-dasharray="1,5" d="M1924.21,-692.13C1924.21,-676.11 1924.21,-648 1924.21,-648 1924.21,-648 1362.46,-648 1362.46,-648 1362.46,-648 1362.46,-453.03 1362.46,-453.03"/>
<polygon fill="black" stroke="black" points="1365.96,-453.03 1362.46,-443.03 1358.96,-453.03 1365.96,-453.03"/>
</g>
<!-- :ui:nowplaying&#45;&gt;:ui:common -->
<g id="edge65" class="edge">
<title>:ui:nowplaying&#45;&gt;:ui:common</title>
<path fill="none" stroke="red" d="M1951.15,-686.91C1951.15,-653.15 1951.15,-578 1951.15,-578 1951.15,-578 1670.22,-578 1670.22,-578"/>
<polygon fill="red" stroke="red" points="1670.22,-574.5 1660.22,-578 1670.22,-581.5 1670.22,-574.5"/>
</g>
<!-- :ui:nowplaying&#45;&gt;:ui:core -->
<g id="edge66" class="edge">
<title>:ui:nowplaying&#45;&gt;:ui:core</title>
<path fill="none" stroke="red" d="M1964.63,-685.73C1964.63,-608.78 1964.63,-301 1964.63,-301 1964.63,-301 1720.59,-301 1720.59,-301"/>
<polygon fill="red" stroke="red" points="1720.59,-297.5 1710.59,-301 1720.59,-304.5 1720.59,-297.5"/>
</g>
<!-- :ui:nowplaying&#45;&gt;:ui:image -->
<g id="edge67" class="edge">
<title>:ui:nowplaying&#45;&gt;:ui:image</title>
<path fill="none" stroke="red" d="M2050.49,-692.26C2050.49,-692.26 2050.49,-457.04 2050.49,-457.04"/>
<polygon fill="red" stroke="red" points="2053.99,-457.04 2050.49,-447.04 2046.99,-457.04 2053.99,-457.04"/>
</g>
<!-- :ui:nowplaying&#45;&gt;:core:models -->
<g id="edge62" class="edge">
<title>:ui:nowplaying&#45;&gt;:core:models</title>
<path fill="none" stroke="black" stroke-dasharray="1,5" d="M1991.57,-684.9C1991.57,-576.03 1991.57,-13 1991.57,-13 1991.57,-13 984.95,-13 984.95,-13"/>
<polygon fill="black" stroke="black" points="984.95,-9.5 974.95,-13 984.95,-16.5 984.95,-9.5"/>
</g>
<!-- :ui:nowplaying&#45;&gt;:ui:test:screenshot -->
<g id="edge69" class="edge">
<title>:ui:nowplaying&#45;&gt;:ui:test:screenshot</title>
<path fill="none" stroke="#ff9ab1" d="M1937.68,-688.73C1937.68,-667.23 1937.68,-629 1937.68,-629 1937.68,-629 1690.58,-629 1690.58,-629 1690.58,-629 1690.58,-448.65 1690.58,-448.65"/>
<polygon fill="#ff9ab1" stroke="#ff9ab1" points="1694.08,-448.65 1690.58,-438.65 1687.08,-448.65 1694.08,-448.65"/>
</g>
<!-- :ui:nowplaying&#45;&gt;:ui:test:image -->
<g id="edge68" class="edge">
<title>:ui:nowplaying&#45;&gt;:ui:test:image</title>
<path fill="none" stroke="#ff9ab1" d="M1908.19,-703C1902.6,-703 1899.11,-703 1899.11,-703 1899.11,-703 1899.11,-448.75 1899.11,-448.75"/>
<polygon fill="#ff9ab1" stroke="#ff9ab1" points="1902.61,-448.75 1899.11,-438.75 1895.61,-448.75 1902.61,-448.75"/>
</g>
<!-- :ui:settings&#45;&gt;:core:preferences -->
<g id="edge55" class="edge">
<title>:ui:settings&#45;&gt;:core:preferences</title>
<path fill="none" stroke="black" stroke-dasharray="1,5" d="M1050.29,-690.54C1050.29,-657.12 1050.29,-568 1050.29,-568 1050.29,-568 1007.38,-568 1007.38,-568"/>
<polygon fill="black" stroke="black" points="1007.38,-564.5 997.38,-568 1007.38,-571.5 1007.38,-564.5"/>
</g>
<!-- :ui:settings&#45;&gt;:inverted&#45;domain -->
<g id="edge57" class="edge">
<title>:ui:settings&#45;&gt;:inverted&#45;domain</title>
<path fill="none" stroke="black" stroke-dasharray="1,5" d="M1082.99,-685.39C1082.99,-685.39 1082.99,-179.15 1082.99,-179.15"/>
<polygon fill="black" stroke="black" points="1086.49,-179.15 1082.99,-169.15 1079.49,-179.15 1086.49,-179.15"/>
</g>
<!-- :ui:settings&#45;&gt;:strings -->
<g id="edge58" class="edge">
<title>:ui:settings&#45;&gt;:strings</title>
<path fill="none" stroke="black" stroke-dasharray="1,5" d="M1145.25,-691.27C1145.25,-639.99 1145.25,-438 1145.25,-438 1145.25,-438 1282.71,-438 1282.71,-438"/>
<polygon fill="black" stroke="black" points="1282.71,-441.5 1292.71,-438 1282.71,-434.5 1282.71,-441.5"/>
</g>
<!-- :ui:settings&#45;&gt;:ui:common -->
<g id="edge59" class="edge">
<title>:ui:settings&#45;&gt;:ui:common</title>
<path fill="none" stroke="red" d="M1152.64,-694.4C1152.64,-665.26 1152.64,-572 1152.64,-572 1152.64,-572 1540.99,-572 1540.99,-572"/>
<polygon fill="red" stroke="red" points="1540.99,-575.5 1550.99,-572 1540.99,-568.5 1540.99,-575.5"/>
</g>
<!-- :ui:settings&#45;&gt;:ui:core -->
<g id="edge60" class="edge">
<title>:ui:settings&#45;&gt;:ui:core</title>
<path fill="none" stroke="red" d="M1130.47,-687.47C1130.47,-612.76 1130.47,-294 1130.47,-294 1130.47,-294 1615.37,-294 1615.37,-294"/>
<polygon fill="red" stroke="red" points="1615.37,-297.5 1625.37,-294 1615.37,-290.5 1615.37,-297.5"/>
</g>
<!-- :ui:settings&#45;&gt;:core:models -->
<g id="edge54" class="edge">
<title>:ui:settings&#45;&gt;:core:models</title>
<path fill="none" stroke="black" stroke-dasharray="1,5" d="M1123.07,-686.39C1123.07,-582.91 1123.07,-31 1123.07,-31 1123.07,-31 966.26,-31 966.26,-31"/>
<polygon fill="black" stroke="black" points="966.26,-27.5 956.26,-31 966.26,-34.5 966.26,-27.5"/>
</g>
<!-- :ui:settings&#45;&gt;:data:musicbrainz -->
<g id="edge56" class="edge">
<title>:ui:settings&#45;&gt;:data:musicbrainz</title>
<path fill="none" stroke="orange" d="M1066.64,-686.94C1066.64,-620.42 1066.64,-370 1066.64,-370 1066.64,-370 389.86,-370 389.86,-370 389.86,-370 389.86,-181.16 389.86,-181.16"/>
<polygon fill="orange" stroke="orange" points="393.36,-181.16 389.86,-171.16 386.36,-181.16 393.36,-181.16"/>
</g>
<!-- :ui:settings&#45;&gt;:ui:test:screenshot -->
<g id="edge61" class="edge">
<title>:ui:settings&#45;&gt;:ui:test:screenshot</title>
<path fill="none" stroke="#ff9ab1" d="M1137.86,-689.22C1137.86,-678.7 1137.86,-666 1137.86,-666 1137.86,-666 1529.4,-666 1529.4,-666 1529.4,-666 1529.4,-449.8 1529.4,-449.8"/>
<polygon fill="#ff9ab1" stroke="#ff9ab1" points="1532.9,-449.8 1529.4,-439.8 1525.9,-449.8 1532.9,-449.8"/>
</g>
<!-- :ui:spotify&#45;broadcast&#45;receiver&#45;&gt;:strings -->
<g id="edge80" class="edge">
<title>:ui:spotify&#45;broadcast&#45;receiver&#45;&gt;:strings</title>
<path fill="none" stroke="black" stroke-dasharray="1,5" d="M1622.85,-692.33C1622.85,-678.74 1622.85,-657 1622.85,-657 1622.85,-657 1356.91,-657 1356.91,-657 1356.91,-657 1356.91,-454.67 1356.91,-454.67"/>
<polygon fill="black" stroke="black" points="1360.41,-454.67 1356.91,-444.67 1353.41,-454.67 1360.41,-454.67"/>
</g>
<!-- :ui:spotify&#45;broadcast&#45;receiver&#45;&gt;:ui:common -->
<g id="edge79" class="edge">
<title>:ui:spotify&#45;broadcast&#45;receiver&#45;&gt;:ui:common</title>
<path fill="none" stroke="red" d="M1649.59,-688.85C1649.59,-688.85 1649.59,-590.69 1649.59,-590.69"/>
<polygon fill="red" stroke="red" points="1653.09,-590.69 1649.59,-580.69 1646.09,-590.69 1653.09,-590.69"/>
</g>
<!-- :ui:spotify&#45;broadcast&#45;receiver&#45;&gt;:ui:core -->
<g id="edge78" class="edge">
<title>:ui:spotify&#45;broadcast&#45;receiver&#45;&gt;:ui:core</title>
<path fill="none" stroke="red" d="M1712.6,-685.34C1712.6,-685.34 1712.6,-309.53 1712.6,-309.53"/>
<polygon fill="red" stroke="red" points="1716.1,-309.53 1712.6,-299.53 1709.1,-309.53 1716.1,-309.53"/>
</g>
<!-- :ui:spotify&#45;broadcast&#45;receiver&#45;&gt;:core:models -->
<g id="edge77" class="edge">
<title>:ui:spotify&#45;broadcast&#45;receiver&#45;&gt;:core:models</title>
<path fill="none" stroke="black" stroke-dasharray="1,5" d="M1738.87,-684.68C1738.87,-575.74 1738.87,-18 1738.87,-18 1738.87,-18 987.76,-18 987.76,-18"/>
<polygon fill="black" stroke="black" points="987.76,-14.5 977.76,-18 987.76,-21.5 987.76,-14.5"/>
</g>
<!-- :ui:spotify&#45;broadcast&#45;receiver&#45;&gt;:ui:test:screenshot -->
<g id="edge81" class="edge">
<title>:ui:spotify&#45;broadcast&#45;receiver&#45;&gt;:ui:test:screenshot</title>
<path fill="none" stroke="#ff9ab1" d="M1683.46,-686.27C1683.46,-686.27 1683.46,-450.38 1683.46,-450.38"/>
<polygon fill="#ff9ab1" stroke="#ff9ab1" points="1686.96,-450.38 1683.46,-440.38 1679.96,-450.38 1686.96,-450.38"/>
</g>
<!-- :ui:stats&#45;&gt;:strings -->
<g id="edge93" class="edge">
<title>:ui:stats&#45;&gt;:strings</title>
<path fill="none" stroke="black" stroke-dasharray="1,5" d="M2241.93,-689.43C2241.93,-670.64 2241.93,-639 2241.93,-639 2241.93,-639 1368.02,-639 1368.02,-639 1368.02,-639 1368.02,-450.89 1368.02,-450.89"/>
<polygon fill="black" stroke="black" points="1371.52,-450.89 1368.02,-440.89 1364.52,-450.89 1371.52,-450.89"/>
</g>
<!-- :ui:stats&#45;&gt;:ui:common -->
<g id="edge91" class="edge">
<title>:ui:stats&#45;&gt;:ui:common</title>
<path fill="none" stroke="red" d="M2273.99,-684.79C2273.99,-648.79 2273.99,-572 2273.99,-572 2273.99,-572 1682.79,-572 1682.79,-572"/>
<polygon fill="red" stroke="red" points="1682.79,-568.5 1672.79,-572 1682.79,-575.5 1682.79,-568.5"/>
</g>
<!-- :ui:stats&#45;&gt;:ui:core -->
<g id="edge92" class="edge">
<title>:ui:stats&#45;&gt;:ui:core</title>
<path fill="none" stroke="red" d="M2290.02,-686.02C2290.02,-607.44 2290.02,-283 2290.02,-283 2290.02,-283 1720.65,-283 1720.65,-283"/>
<polygon fill="red" stroke="red" points="1720.65,-279.5 1710.65,-283 1720.65,-286.5 1720.65,-279.5"/>
</g>
<!-- :ui:stats&#45;&gt;:core:models -->
<g id="edge90" class="edge">
<title>:ui:stats&#45;&gt;:core:models</title>
<path fill="none" stroke="black" stroke-dasharray="1,5" d="M2306.05,-689.35C2306.05,-591.77 2306.05,-4 2306.05,-4 2306.05,-4 961.75,-4 961.75,-4"/>
<polygon fill="black" stroke="black" points="961.75,-0.5 951.75,-4 961.75,-7.5 961.75,-0.5"/>
</g>
<!-- :ui:stats&#45;&gt;:ui:test:screenshot -->
<g id="edge94" class="edge">
<title>:ui:stats&#45;&gt;:ui:test:screenshot</title>
<path fill="none" stroke="#ff9ab1" d="M2257.96,-685.8C2257.96,-661.49 2257.96,-620 2257.96,-620 2257.96,-620 1697.71,-620 1697.71,-620 1697.71,-620 1697.71,-445.8 1697.71,-445.8"/>
<polygon fill="#ff9ab1" stroke="#ff9ab1" points="1701.21,-445.8 1697.71,-435.8 1694.21,-445.8 1701.21,-445.8"/>
</g>
<!-- :data&#45;&gt;:core:models -->
<g id="edge20" class="edge">
<title>:data&#45;&gt;:core:models</title>
<path fill="none" stroke="black" d="M633.88,-282C705.85,-282 887.37,-282 887.37,-282 887.37,-282 887.37,-45.32 887.37,-45.32"/>
<polygon fill="black" stroke="black" points="890.87,-45.32 887.37,-35.32 883.87,-45.32 890.87,-45.32"/>
</g>
<!-- :data&#45;&gt;:data:common:network -->
<g id="edge21" class="edge">
<title>:data&#45;&gt;:data:common:network</title>
<path fill="none" stroke="black" d="M586.38,-276.81C586.38,-259.32 586.38,-233 586.38,-233 586.38,-233 230.81,-233 230.81,-233 230.81,-233 230.81,-169.19 230.81,-169.19"/>
<polygon fill="black" stroke="black" points="234.31,-169.19 230.81,-159.19 227.31,-169.19 234.31,-169.19"/>
</g>
<!-- :data&#45;&gt;:data:coverart -->
<g id="edge22" class="edge">
<title>:data&#45;&gt;:data:coverart</title>
<path fill="none" stroke="black" d="M626.82,-278C643.8,-278 664.51,-278 664.51,-278 664.51,-278 664.51,-175.07 664.51,-175.07"/>
<polygon fill="black" stroke="black" points="668.01,-175.07 664.51,-165.07 661.01,-175.07 668.01,-175.07"/>
</g>
<!-- :data&#45;&gt;:data:spotify -->
<g id="edge23" class="edge">
<title>:data&#45;&gt;:data:spotify</title>
<path fill="none" stroke="black" d="M618.05,-275.2C618.05,-275.2 618.05,-176.72 618.05,-176.72"/>
<polygon fill="black" stroke="black" points="621.55,-176.72 618.05,-166.72 614.55,-176.72 621.55,-176.72"/>
</g>
<!-- :data&#45;&gt;:data:musicbrainz -->
<g id="edge24" class="edge">
<title>:data&#45;&gt;:data:musicbrainz</title>
<path fill="none" stroke="black" d="M602.21,-273.68C602.21,-250.34 602.21,-213 602.21,-213 602.21,-213 414.72,-213 414.72,-213 414.72,-213 414.72,-177.3 414.72,-177.3"/>
<polygon fill="black" stroke="black" points="418.22,-177.3 414.72,-167.3 411.22,-177.3 418.22,-177.3"/>
</g>
<!-- :data:coverart&#45;&gt;:core:models -->
<g id="edge37" class="edge">
<title>:data:coverart&#45;&gt;:core:models</title>
<path fill="none" stroke="black" stroke-dasharray="1,5" d="M799.79,-149C832.02,-149 862.91,-149 862.91,-149 862.91,-149 862.91,-42.02 862.91,-42.02"/>
<polygon fill="black" stroke="black" points="866.41,-42.02 862.91,-32.02 859.41,-42.02 866.41,-42.02"/>
</g>
<!-- :data:spotify&#45;&gt;:core:models -->
<g id="edge38" class="edge">
<title>:data:spotify&#45;&gt;:core:models</title>
<path fill="none" stroke="black" stroke-dasharray="1,5" d="M564.99,-136.92C564.99,-101.2 564.99,-25 564.99,-25 564.99,-25 833.88,-25 833.88,-25"/>
<polygon fill="black" stroke="black" points="833.88,-28.5 843.88,-25 833.88,-21.5 833.88,-28.5"/>
</g>
<!-- :data:musicbrainz&#45;&gt;:core:models -->
<g id="edge39" class="edge">
<title>:data:musicbrainz&#45;&gt;:core:models</title>
<path fill="none" stroke="black" stroke-dasharray="1,5" d="M345.99,-136.98C345.99,-99.17 345.99,-15 345.99,-15 345.99,-15 829.36,-15 829.36,-15"/>
<polygon fill="black" stroke="black" points="829.36,-18.5 839.36,-15 829.36,-11.5 829.36,-18.5"/>
</g>
<!-- :desktop:app -->
<g id="node25" class="node">
<title>:desktop:app</title>
<polygon fill="#ffb59a" stroke="black" points="547.99,-858 187.99,-858 187.99,-822 547.99,-822 547.99,-858"/>
<text text-anchor="middle" x="367.99" y="-836.3" font-family="Times,serif" font-size="14.00">:desktop:app</text>
</g>
<!-- :desktop:app&#45;&gt;:ui:core -->
<g id="edge33" class="edge">
<title>:desktop:app&#45;&gt;:ui:core</title>
<path fill="none" stroke="black" stroke-dasharray="1,5" d="M548.23,-843C612.31,-843 668.88,-843 668.88,-843 668.88,-843 668.88,-286 668.88,-286 668.88,-286 1617.93,-286 1617.93,-286"/>
<polygon fill="black" stroke="black" points="1617.93,-289.5 1627.93,-286 1617.93,-282.5 1617.93,-289.5"/>
</g>
<!-- :ui:test:screenshot&#45;&gt;:ui:core -->
<g id="edge104" class="edge">
<title>:ui:test:screenshot&#45;&gt;:ui:core</title>
<path fill="none" stroke="red" d="M1665.16,-414.34C1665.16,-414.34 1665.16,-320.01 1665.16,-320.01"/>
<polygon fill="red" stroke="red" points="1668.66,-320.01 1665.16,-310.01 1661.66,-320.01 1668.66,-320.01"/>
</g>
</g>
</svg>
