<?xml version="1.0" encoding="UTF-8" standalone="no"?>
<!DOCTYPE svg PUBLIC "-//W3C//DTD SVG 1.1//EN"
 "http://www.w3.org/Graphics/SVG/1.1/DTD/svg11.dtd">
<!-- Generated by graphviz version 2.43.0 (0)
 -->
<!-- Title: %3 Pages: 1 -->
<svg width="2182pt" height="1214pt"
 viewBox="0.00 0.00 2182.29 1214.00" xmlns="http://www.w3.org/2000/svg" xmlns:xlink="http://www.w3.org/1999/xlink">
<g id="graph0" class="graph" transform="scale(1 1) rotate(0) translate(4 1210)">
<title>%3</title>
<polygon fill="white" stroke="transparent" points="-4,4 -4,-1210 2178.29,-1210 2178.29,4 -4,4"/>
<text text-anchor="middle" x="1087.15" y="-1178" font-family="Times,serif" font-size="30.00">MusicSearch</text>
<text text-anchor="middle" x="1087.15" y="-1145" font-family="Times,serif" font-size="30.00"> </text>
<!-- :app -->
<g id="node1" class="node">
<title>:app</title>
<polygon fill="#9affb5" stroke="black" points="1168.29,-1132 808.29,-1132 808.29,-1096 1168.29,-1096 1168.29,-1132"/>
<text text-anchor="middle" x="988.29" y="-1110.3" font-family="Times,serif" font-size="14.00">:app</text>
</g>
<!-- :test&#45;data -->
<g id="node2" class="node">
<title>:test&#45;data</title>
<ellipse fill="#b59aff" stroke="black" cx="553.29" cy="-429" rx="55.49" ry="18"/>
<text text-anchor="middle" x="553.29" y="-425.3" font-family="Times,serif" font-size="14.00">:test&#45;data</text>
</g>
<!-- :app&#45;&gt;:test&#45;data -->
<g id="edge1" class="edge">
<title>:app&#45;&gt;:test&#45;data</title>
<path fill="none" stroke="#ff9ab1" stroke-dasharray="1,5" d="M914.88,-1095.7C914.88,-988.16 914.88,-443 914.88,-443 914.88,-443 598.29,-443 598.29,-443"/>
<polygon fill="#ff9ab1" stroke="#ff9ab1" points="598.29,-439.5 588.29,-443 598.29,-446.5 598.29,-439.5"/>
</g>
<!-- :data&#45;android -->
<g id="node3" class="node">
<title>:data&#45;android</title>
<ellipse fill="#9affb5" stroke="black" cx="553.29" cy="-566" rx="72.59" ry="18"/>
<text text-anchor="middle" x="553.29" y="-562.3" font-family="Times,serif" font-size="14.00">:data&#45;android</text>
</g>
<!-- :app&#45;&gt;:data&#45;android -->
<g id="edge2" class="edge">
<title>:app&#45;&gt;:data&#45;android</title>
<path fill="none" stroke="black" stroke-dasharray="1,5" d="M808.13,-1103C748.91,-1103 697.95,-1103 697.95,-1103 697.95,-1103 697.95,-572 697.95,-572 697.95,-572 632.23,-572 632.23,-572"/>
<polygon fill="black" stroke="black" points="632.23,-568.5 622.23,-572 632.23,-575.5 632.23,-568.5"/>
</g>
<!-- :data:database -->
<g id="node4" class="node">
<title>:data:database</title>
<ellipse fill="#b59aff" stroke="black" cx="79.29" cy="-429" rx="79.09" ry="18"/>
<text text-anchor="middle" x="79.29" y="-425.3" font-family="Times,serif" font-size="14.00">:data:database</text>
</g>
<!-- :app&#45;&gt;:data:database -->
<g id="edge3" class="edge">
<title>:app&#45;&gt;:data:database</title>
<path fill="none" stroke="black" stroke-dasharray="1,5" d="M808.19,-1124C533.05,-1124 39.65,-1124 39.65,-1124 39.65,-1124 39.65,-454.82 39.65,-454.82"/>
<polygon fill="black" stroke="black" points="43.15,-454.82 39.65,-444.82 36.15,-454.82 43.15,-454.82"/>
</g>
<!-- :domain -->
<g id="node5" class="node">
<title>:domain</title>
<ellipse fill="#b59aff" stroke="black" cx="300.29" cy="-566" rx="48.19" ry="18"/>
<text text-anchor="middle" x="300.29" y="-562.3" font-family="Times,serif" font-size="14.00">:domain</text>
</g>
<!-- :app&#45;&gt;:domain -->
<g id="edge4" class="edge">
<title>:app&#45;&gt;:domain</title>
<path fill="none" stroke="black" stroke-dasharray="1,5" d="M807.88,-1117C593.92,-1117 265.94,-1117 265.94,-1117 265.94,-1117 265.94,-588.81 265.94,-588.81"/>
<polygon fill="black" stroke="black" points="269.44,-588.81 265.94,-578.81 262.44,-588.81 269.44,-588.81"/>
</g>
<!-- :feature:search -->
<g id="node6" class="node">
<title>:feature:search</title>
<ellipse fill="#9affb5" stroke="black" cx="551.29" cy="-840" rx="81.49" ry="18"/>
<text text-anchor="middle" x="551.29" y="-836.3" font-family="Times,serif" font-size="14.00">:feature:search</text>
</g>
<!-- :app&#45;&gt;:feature:search -->
<g id="edge5" class="edge">
<title>:app&#45;&gt;:feature:search</title>
<path fill="none" stroke="black" stroke-dasharray="1,5" d="M808.03,-1110C687.65,-1110 551.29,-1110 551.29,-1110 551.29,-1110 551.29,-868.13 551.29,-868.13"/>
<polygon fill="black" stroke="black" points="554.79,-868.13 551.29,-858.13 547.79,-868.13 554.79,-868.13"/>
</g>
<!-- :strings -->
<g id="node7" class="node">
<title>:strings</title>
<ellipse fill="#b59aff" stroke="black" cx="1424.29" cy="-566" rx="46.29" ry="18"/>
<text text-anchor="middle" x="1424.29" y="-562.3" font-family="Times,serif" font-size="14.00">:strings</text>
</g>
<!-- :app&#45;&gt;:strings -->
<g id="edge6" class="edge">
<title>:app&#45;&gt;:strings</title>
<path fill="none" stroke="black" stroke-dasharray="1,5" d="M1168.42,-1105C1287.55,-1105 1421.9,-1105 1421.9,-1105 1421.9,-1105 1421.9,-594.24 1421.9,-594.24"/>
<polygon fill="black" stroke="black" points="1425.4,-594.24 1421.9,-584.24 1418.4,-594.24 1425.4,-594.24"/>
</g>
<!-- :ui:common -->
<g id="node8" class="node">
<title>:ui:common</title>
<ellipse fill="#9affb5" stroke="black" cx="990.29" cy="-703" rx="64.19" ry="18"/>
<text text-anchor="middle" x="990.29" y="-699.3" font-family="Times,serif" font-size="14.00">:ui:common</text>
</g>
<!-- :app&#45;&gt;:ui:common -->
<g id="edge7" class="edge">
<title>:app&#45;&gt;:ui:common</title>
<path fill="none" stroke="black" stroke-dasharray="1,5" d="M993.67,-1095.81C993.67,-1095.81 993.67,-730.98 993.67,-730.98"/>
<polygon fill="black" stroke="black" points="997.17,-730.98 993.67,-720.98 990.17,-730.98 997.17,-730.98"/>
</g>
<!-- :ui:core -->
<g id="node9" class="node">
<title>:ui:core</title>
<ellipse fill="#b59aff" stroke="black" cx="1426.29" cy="-429" rx="45.49" ry="18"/>
<text text-anchor="middle" x="1426.29" y="-425.3" font-family="Times,serif" font-size="14.00">:ui:core</text>
</g>
<!-- :app&#45;&gt;:ui:core -->
<g id="edge8" class="edge">
<title>:app&#45;&gt;:ui:core</title>
<path fill="none" stroke="black" stroke-dasharray="1,5" d="M918.57,-1095.9C918.57,-987.03 918.57,-424 918.57,-424 918.57,-424 1372.57,-424 1372.57,-424"/>
<polygon fill="black" stroke="black" points="1372.57,-427.5 1382.57,-424 1372.57,-420.5 1372.57,-427.5"/>
</g>
<!-- :ui:collections -->
<g id="node10" class="node">
<title>:ui:collections</title>
<ellipse fill="#9affb5" stroke="black" cx="775.29" cy="-977" rx="74.99" ry="18"/>
<text text-anchor="middle" x="775.29" y="-973.3" font-family="Times,serif" font-size="14.00">:ui:collections</text>
</g>
<!-- :app&#45;&gt;:ui:collections -->
<g id="edge9" class="edge">
<title>:app&#45;&gt;:ui:collections</title>
<path fill="none" stroke="black" stroke-dasharray="1,5" d="M829.16,-1095.81C829.16,-1095.81 829.16,-999.56 829.16,-999.56"/>
<polygon fill="black" stroke="black" points="832.66,-999.56 829.16,-989.56 825.66,-999.56 832.66,-999.56"/>
</g>
<!-- :ui:history -->
<g id="node11" class="node">
<title>:ui:history</title>
<ellipse fill="#9affb5" stroke="black" cx="1227.29" cy="-977" rx="57.69" ry="18"/>
<text text-anchor="middle" x="1227.29" y="-973.3" font-family="Times,serif" font-size="14.00">:ui:history</text>
</g>
<!-- :app&#45;&gt;:ui:history -->
<g id="edge10" class="edge">
<title>:app&#45;&gt;:ui:history</title>
<path fill="none" stroke="black" stroke-dasharray="1,5" d="M1161.8,-1095.82C1161.8,-1061.16 1161.8,-989 1161.8,-989 1161.8,-989 1173.98,-989 1173.98,-989"/>
<polygon fill="black" stroke="black" points="1173.98,-992.5 1183.98,-989 1173.98,-985.5 1173.98,-992.5"/>
</g>
<!-- :ui:image -->
<g id="node12" class="node">
<title>:ui:image</title>
<ellipse fill="#9affb5" stroke="black" cx="1734.29" cy="-566" rx="53.89" ry="18"/>
<text text-anchor="middle" x="1734.29" y="-562.3" font-family="Times,serif" font-size="14.00">:ui:image</text>
</g>
<!-- :app&#45;&gt;:ui:image -->
<g id="edge11" class="edge">
<title>:app&#45;&gt;:ui:image</title>
<path fill="none" stroke="black" stroke-dasharray="1,5" d="M1168.57,-1123C1398.18,-1123 1765.55,-1123 1765.55,-1123 1765.55,-1123 1765.55,-590.9 1765.55,-590.9"/>
<polygon fill="black" stroke="black" points="1769.05,-590.9 1765.55,-580.9 1762.05,-590.9 1769.05,-590.9"/>
</g>
<!-- :ui:nowplaying -->
<g id="node13" class="node">
<title>:ui:nowplaying</title>
<ellipse fill="#9affb5" stroke="black" cx="805.29" cy="-840" rx="78.79" ry="18"/>
<text text-anchor="middle" x="805.29" y="-836.3" font-family="Times,serif" font-size="14.00">:ui:nowplaying</text>
</g>
<!-- :app&#45;&gt;:ui:nowplaying -->
<g id="edge12" class="edge">
<title>:app&#45;&gt;:ui:nowplaying</title>
<path fill="none" stroke="black" stroke-dasharray="1,5" d="M866.99,-1095.6C866.99,-1095.6 866.99,-861.18 866.99,-861.18"/>
<polygon fill="black" stroke="black" points="870.49,-861.18 866.99,-851.18 863.49,-861.18 870.49,-861.18"/>
</g>
<!-- :ui:settings -->
<g id="node14" class="node">
<title>:ui:settings</title>
<ellipse fill="#9affb5" stroke="black" cx="1079.29" cy="-840" rx="63.09" ry="18"/>
<text text-anchor="middle" x="1079.29" y="-836.3" font-family="Times,serif" font-size="14.00">:ui:settings</text>
</g>
<!-- :app&#45;&gt;:ui:settings -->
<g id="edge13" class="edge">
<title>:app&#45;&gt;:ui:settings</title>
<path fill="none" stroke="black" stroke-dasharray="1,5" d="M1100.31,-1095.6C1100.31,-1095.6 1100.31,-867.26 1100.31,-867.26"/>
<polygon fill="black" stroke="black" points="1103.81,-867.26 1100.31,-857.26 1096.81,-867.26 1103.81,-867.26"/>
</g>
<!-- :ui:spotify&#45;broadcast&#45;receiver -->
<g id="node15" class="node">
<title>:ui:spotify&#45;broadcast&#45;receiver</title>
<ellipse fill="#9affb5" stroke="black" cx="1573.29" cy="-840" rx="146.77" ry="18"/>
<text text-anchor="middle" x="1573.29" y="-836.3" font-family="Times,serif" font-size="14.00">:ui:spotify&#45;broadcast&#45;receiver</text>
</g>
<!-- :app&#45;&gt;:ui:spotify&#45;broadcast&#45;receiver -->
<g id="edge14" class="edge">
<title>:app&#45;&gt;:ui:spotify&#45;broadcast&#45;receiver</title>
<path fill="none" stroke="black" stroke-dasharray="1,5" d="M1168.59,-1114C1340.47,-1114 1573.29,-1114 1573.29,-1114 1573.29,-1114 1573.29,-868.4 1573.29,-868.4"/>
<polygon fill="black" stroke="black" points="1576.79,-868.4 1573.29,-858.4 1569.79,-868.4 1576.79,-868.4"/>
</g>
<!-- :ui:stats -->
<g id="node16" class="node">
<title>:ui:stats</title>
<ellipse fill="#9affb5" stroke="black" cx="1360.29" cy="-840" rx="48.19" ry="18"/>
<text text-anchor="middle" x="1360.29" y="-836.3" font-family="Times,serif" font-size="14.00">:ui:stats</text>
</g>
<!-- :app&#45;&gt;:ui:stats -->
<g id="edge15" class="edge">
<title>:app&#45;&gt;:ui:stats</title>
<path fill="none" stroke="black" stroke-dasharray="1,5" d="M1155.32,-1095.8C1155.32,-1035.04 1155.32,-843 1155.32,-843 1155.32,-843 1302.75,-843 1302.75,-843"/>
<polygon fill="black" stroke="black" points="1302.75,-846.5 1312.75,-843 1302.75,-839.5 1302.75,-846.5"/>
</g>
<!-- :data -->
<g id="node17" class="node">
<title>:data</title>
<ellipse fill="#ffb59a" stroke="black" cx="658.29" cy="-292" rx="34.39" ry="18"/>
<text text-anchor="middle" x="658.29" y="-288.3" font-family="Times,serif" font-size="14.00">:data</text>
</g>
<!-- :test&#45;data&#45;&gt;:data -->
<g id="edge23" class="edge">
<title>:test&#45;data&#45;&gt;:data</title>
<path fill="none" stroke="black" stroke-dasharray="1,5" d="M594.27,-416.56C594.27,-384.94 594.27,-304 594.27,-304 594.27,-304 622.25,-304 622.25,-304"/>
<polygon fill="black" stroke="black" points="622.25,-307.5 632.25,-304 622.25,-300.5 622.25,-307.5"/>
</g>
<!-- :data&#45;android&#45;&gt;:test&#45;data -->
<g id="edge17" class="edge">
<title>:data&#45;android&#45;&gt;:test&#45;data</title>
<path fill="none" stroke="#ff9ab1" stroke-dasharray="1,5" d="M553.29,-547.81C553.29,-547.81 553.29,-457.27 553.29,-457.27"/>
<polygon fill="#ff9ab1" stroke="#ff9ab1" points="556.79,-457.27 553.29,-447.27 549.79,-457.27 556.79,-457.27"/>
</g>
<!-- :data&#45;android&#45;&gt;:data -->
<g id="edge16" class="edge">
<title>:data&#45;android&#45;&gt;:data</title>
<path fill="none" stroke="black" d="M618.74,-558.1C618.74,-513.17 618.74,-292 618.74,-292 618.74,-292 619.23,-292 619.23,-292"/>
<polygon fill="black" stroke="black" points="613.59,-295.5 623.59,-292 613.59,-288.5 613.59,-295.5"/>
</g>
<!-- :data:core -->
<g id="node18" class="node">
<title>:data:core</title>
<ellipse fill="#b59aff" stroke="black" cx="760.29" cy="-18" rx="57.39" ry="18"/>
<text text-anchor="middle" x="760.29" y="-14.3" font-family="Times,serif" font-size="14.00">:data:core</text>
</g>
<!-- :data:database&#45;&gt;:data:core -->
<g id="edge30" class="edge">
<title>:data:database&#45;&gt;:data:core</title>
<path fill="none" stroke="black" stroke-dasharray="1,5" d="M72.85,-410.95C72.85,-330.56 72.85,-9 72.85,-9 72.85,-9 700.58,-9 700.58,-9"/>
<polygon fill="black" stroke="black" points="700.58,-12.5 710.58,-9 700.58,-5.5 700.58,-12.5"/>
</g>
<!-- :data:common:network -->
<g id="node19" class="node">
<title>:data:common:network</title>
<ellipse fill="#b59aff" stroke="black" cx="468.29" cy="-155" rx="116.98" ry="18"/>
<text text-anchor="middle" x="468.29" y="-151.3" font-family="Times,serif" font-size="14.00">:data:common:network</text>
</g>
<!-- :data:database&#45;&gt;:data:common:network -->
<g id="edge31" class="edge">
<title>:data:database&#45;&gt;:data:common:network</title>
<path fill="none" stroke="black" stroke-dasharray="1,5" d="M148.36,-420C245.48,-420 410.68,-420 410.68,-420 410.68,-420 410.68,-180.78 410.68,-180.78"/>
<polygon fill="black" stroke="black" points="414.18,-180.78 410.68,-170.78 407.18,-180.78 414.18,-180.78"/>
</g>
<!-- :data:musicbrainz -->
<g id="node22" class="node">
<title>:data:musicbrainz</title>
<ellipse fill="#b59aff" stroke="black" cx="239.29" cy="-155" rx="93.68" ry="18"/>
<text text-anchor="middle" x="239.29" y="-151.3" font-family="Times,serif" font-size="14.00">:data:musicbrainz</text>
</g>
<!-- :data:database&#45;&gt;:data:musicbrainz -->
<g id="edge32" class="edge">
<title>:data:database&#45;&gt;:data:musicbrainz</title>
<path fill="none" stroke="black" stroke-dasharray="1,5" d="M152.14,-421.67C152.14,-421.67 152.14,-171.97 152.14,-171.97"/>
<polygon fill="black" stroke="black" points="155.64,-171.97 152.14,-161.97 148.64,-171.97 155.64,-171.97"/>
</g>
<!-- :domain&#45;&gt;:data:database -->
<g id="edge27" class="edge">
<title>:domain&#45;&gt;:data:database</title>
<path fill="none" stroke="black" stroke-dasharray="1,5" d="M272.37,-551.32C272.37,-517.7 272.37,-438 272.37,-438 272.37,-438 158.18,-438 158.18,-438"/>
<polygon fill="black" stroke="black" points="158.18,-434.5 148.18,-438 158.18,-441.5 158.18,-434.5"/>
</g>
<!-- :domain&#45;&gt;:data:core -->
<g id="edge24" class="edge">
<title>:domain&#45;&gt;:data:core</title>
<path fill="none" stroke="black" stroke-dasharray="1,5" d="M336.76,-554.24C336.76,-475.42 336.76,-27 336.76,-27 336.76,-27 700.46,-27 700.46,-27"/>
<polygon fill="black" stroke="black" points="700.46,-30.5 710.46,-27 700.46,-23.5 700.46,-30.5"/>
</g>
<!-- :domain&#45;&gt;:data:common:network -->
<g id="edge25" class="edge">
<title>:domain&#45;&gt;:data:common:network</title>
<path fill="none" stroke="black" stroke-dasharray="1,5" d="M340.64,-555.84C340.64,-492.55 340.64,-155 340.64,-155 340.64,-155 341.68,-155 341.68,-155"/>
<polygon fill="black" stroke="black" points="341.08,-158.5 351.08,-155 341.08,-151.5 341.08,-158.5"/>
</g>
<!-- :data:coverart -->
<g id="node20" class="node">
<title>:data:coverart</title>
<ellipse fill="#b59aff" stroke="black" cx="679.29" cy="-155" rx="76.09" ry="18"/>
<text text-anchor="middle" x="679.29" y="-151.3" font-family="Times,serif" font-size="14.00">:data:coverart</text>
</g>
<!-- :domain&#45;&gt;:data:coverart -->
<g id="edge26" class="edge">
<title>:domain&#45;&gt;:data:coverart</title>
<path fill="none" stroke="black" stroke-dasharray="1,5" d="M344.51,-558.83C344.51,-516.21 344.51,-298 344.51,-298 344.51,-298 613.64,-298 613.64,-298 613.64,-298 613.64,-174.38 613.64,-174.38"/>
<polygon fill="black" stroke="black" points="617.14,-174.38 613.64,-164.38 610.14,-174.38 617.14,-174.38"/>
</g>
<!-- :domain&#45;&gt;:data:musicbrainz -->
<g id="edge28" class="edge">
<title>:domain&#45;&gt;:data:musicbrainz</title>
<path fill="none" stroke="black" stroke-dasharray="1,5" d="M292.54,-548.08C292.54,-548.08 292.54,-179.9 292.54,-179.9"/>
<polygon fill="black" stroke="black" points="296.04,-179.9 292.54,-169.9 289.04,-179.9 296.04,-179.9"/>
</g>
<!-- :feature:search&#45;&gt;:data:database -->
<g id="edge38" class="edge">
<title>:feature:search&#45;&gt;:data:database</title>
<path fill="none" stroke="black" stroke-dasharray="1,5" d="M477.02,-832.52C477.02,-776.81 477.02,-429 477.02,-429 477.02,-429 168.82,-429 168.82,-429"/>
<polygon fill="black" stroke="black" points="168.82,-425.5 158.82,-429 168.82,-432.5 168.82,-425.5"/>
</g>
<!-- :feature:search&#45;&gt;:domain -->
<g id="edge37" class="edge">
<title>:feature:search&#45;&gt;:domain</title>
<path fill="none" stroke="black" stroke-dasharray="1,5" d="M473.53,-834.77C473.53,-796.89 473.53,-566 473.53,-566 473.53,-566 358.55,-566 358.55,-566"/>
<polygon fill="black" stroke="black" points="358.55,-562.5 348.55,-566 358.55,-569.5 358.55,-562.5"/>
</g>
<!-- :feature:search&#45;&gt;:strings -->
<g id="edge39" class="edge">
<title>:feature:search&#45;&gt;:strings</title>
<path fill="none" stroke="black" stroke-dasharray="1,5" d="M529.03,-822.4C529.03,-798.03 529.03,-757 529.03,-757 529.03,-757 1390.24,-757 1390.24,-757 1390.24,-757 1390.24,-588.24 1390.24,-588.24"/>
<polygon fill="black" stroke="black" points="1393.74,-588.24 1390.24,-578.24 1386.74,-588.24 1393.74,-588.24"/>
</g>
<!-- :feature:search&#45;&gt;:ui:common -->
<g id="edge40" class="edge">
<title>:feature:search&#45;&gt;:ui:common</title>
<path fill="none" stroke="black" stroke-dasharray="1,5" d="M577.56,-822.88C577.56,-788.65 577.56,-715 577.56,-715 577.56,-715 932.14,-715 932.14,-715"/>
<polygon fill="black" stroke="black" points="932.14,-718.5 942.14,-715 932.14,-711.5 932.14,-718.5"/>
</g>
<!-- :feature:search&#45;&gt;:ui:core -->
<g id="edge41" class="edge">
<title>:feature:search&#45;&gt;:ui:core</title>
<path fill="none" stroke="black" stroke-dasharray="1,5" d="M627.96,-846C662.36,-846 695.34,-846 695.34,-846 695.34,-846 695.34,-414 695.34,-414 695.34,-414 1391.13,-414 1391.13,-414"/>
<polygon fill="black" stroke="black" points="1391.13,-417.5 1401.13,-414 1391.13,-410.5 1391.13,-417.5"/>
</g>
<!-- :feature:search&#45;&gt;:data -->
<g id="edge36" class="edge">
<title>:feature:search&#45;&gt;:data</title>
<path fill="none" stroke="black" stroke-dasharray="1,5" d="M628.08,-834C642.21,-834 652.6,-834 652.6,-834 652.6,-834 652.6,-320.03 652.6,-320.03"/>
<polygon fill="black" stroke="black" points="656.1,-320.03 652.6,-310.03 649.1,-320.03 656.1,-320.03"/>
</g>
<!-- :ui:test:screenshot -->
<g id="node24" class="node">
<title>:ui:test:screenshot</title>
<ellipse fill="#9affb5" stroke="black" cx="1196.29" cy="-566" rx="96.68" ry="18"/>
<text text-anchor="middle" x="1196.29" y="-562.3" font-family="Times,serif" font-size="14.00">:ui:test:screenshot</text>
</g>
<!-- :feature:search&#45;&gt;:ui:test:screenshot -->
<g id="edge42" class="edge">
<title>:feature:search&#45;&gt;:ui:test:screenshot</title>
<path fill="none" stroke="#ff9ab1" stroke-dasharray="1,5" d="M504.76,-825.1C504.76,-797 504.76,-739 504.76,-739 504.76,-739 1120.89,-739 1120.89,-739 1120.89,-739 1120.89,-587.35 1120.89,-587.35"/>
<polygon fill="#ff9ab1" stroke="#ff9ab1" points="1124.39,-587.35 1120.89,-577.35 1117.39,-587.35 1124.39,-587.35"/>
</g>
<!-- :ui:common&#45;&gt;:data&#45;android -->
<g id="edge59" class="edge">
<title>:ui:common&#45;&gt;:data&#45;android</title>
<path fill="none" stroke="black" stroke-dasharray="1,5" d="M929.59,-697C820.34,-697 601.82,-697 601.82,-697 601.82,-697 601.82,-589.53 601.82,-589.53"/>
<polygon fill="black" stroke="black" points="605.32,-589.53 601.82,-579.53 598.32,-589.53 605.32,-589.53"/>
</g>
<!-- :ui:common&#45;&gt;:data:database -->
<g id="edge60" class="edge">
<title>:ui:common&#45;&gt;:data:database</title>
<path fill="none" stroke="black" stroke-dasharray="1,5" d="M929.37,-709C731.4,-709 118.94,-709 118.94,-709 118.94,-709 118.94,-454.86 118.94,-454.86"/>
<polygon fill="black" stroke="black" points="122.44,-454.86 118.94,-444.86 115.44,-454.86 122.44,-454.86"/>
</g>
<!-- :ui:common&#45;&gt;:domain -->
<g id="edge61" class="edge">
<title>:ui:common&#45;&gt;:domain</title>
<path fill="none" stroke="black" stroke-dasharray="1,5" d="M925.93,-703C760.74,-703 334.65,-703 334.65,-703 334.65,-703 334.65,-588.64 334.65,-588.64"/>
<polygon fill="black" stroke="black" points="338.15,-588.64 334.65,-578.64 331.15,-588.64 338.15,-588.64"/>
</g>
<!-- :ui:common&#45;&gt;:strings -->
<g id="edge62" class="edge">
<title>:ui:common&#45;&gt;:strings</title>
<path fill="none" stroke="black" stroke-dasharray="1,5" d="M1047.99,-695C1157.4,-695 1384.2,-695 1384.2,-695 1384.2,-695 1384.2,-585.28 1384.2,-585.28"/>
<polygon fill="black" stroke="black" points="1387.7,-585.28 1384.2,-575.28 1380.7,-585.28 1387.7,-585.28"/>
</g>
<!-- :ui:common&#45;&gt;:ui:core -->
<g id="edge63" class="edge">
<title>:ui:common&#45;&gt;:ui:core</title>
<path fill="none" stroke="black" stroke-dasharray="1,5" d="M990.29,-684.89C990.29,-623.49 990.29,-427 990.29,-427 990.29,-427 1370.87,-427 1370.87,-427"/>
<polygon fill="black" stroke="black" points="1370.87,-430.5 1380.87,-427 1370.87,-423.5 1370.87,-430.5"/>
</g>
<!-- :ui:common&#45;&gt;:ui:image -->
<g id="edge64" class="edge">
<title>:ui:common&#45;&gt;:ui:image</title>
<path fill="none" stroke="black" stroke-dasharray="1,5" d="M1053.95,-700C1227.08,-700 1693.63,-700 1693.63,-700 1693.63,-700 1693.63,-587.89 1693.63,-587.89"/>
<polygon fill="black" stroke="black" points="1697.13,-587.89 1693.63,-577.89 1690.13,-587.89 1697.13,-587.89"/>
</g>
<!-- :ui:common&#45;&gt;:ui:test:screenshot -->
<g id="edge66" class="edge">
<title>:ui:common&#45;&gt;:ui:test:screenshot</title>
<path fill="none" stroke="#ff9ab1" stroke-dasharray="1,5" d="M1034.93,-690C1069.02,-690 1110.17,-690 1110.17,-690 1110.17,-690 1110.17,-584.52 1110.17,-584.52"/>
<polygon fill="#ff9ab1" stroke="#ff9ab1" points="1113.67,-584.52 1110.17,-574.52 1106.67,-584.52 1113.67,-584.52"/>
</g>
<!-- :ui:test:image -->
<g id="node25" class="node">
<title>:ui:test:image</title>
<ellipse fill="#9affb5" stroke="black" cx="833.29" cy="-566" rx="74.99" ry="18"/>
<text text-anchor="middle" x="833.29" y="-562.3" font-family="Times,serif" font-size="14.00">:ui:test:image</text>
</g>
<!-- :ui:common&#45;&gt;:ui:test:image -->
<g id="edge65" class="edge">
<title>:ui:common&#45;&gt;:ui:test:image</title>
<path fill="none" stroke="#ff9ab1" stroke-dasharray="1,5" d="M942.24,-691C920.68,-691 900,-691 900,-691 900,-691 900,-584.2 900,-584.2"/>
<polygon fill="#ff9ab1" stroke="#ff9ab1" points="903.5,-584.2 900,-574.2 896.5,-584.2 903.5,-584.2"/>
</g>
<!-- :ui:collections&#45;&gt;:data&#45;android -->
<g id="edge74" class="edge">
<title>:ui:collections&#45;&gt;:data&#45;android</title>
<path fill="none" stroke="black" stroke-dasharray="1,5" d="M707.07,-969.41C707.07,-912.89 707.07,-560 707.07,-560 707.07,-560 632.09,-560 632.09,-560"/>
<polygon fill="black" stroke="black" points="632.09,-556.5 622.09,-560 632.09,-563.5 632.09,-556.5"/>
</g>
<!-- :ui:collections&#45;&gt;:data:database -->
<g id="edge73" class="edge">
<title>:ui:collections&#45;&gt;:data:database</title>
<path fill="none" stroke="black" stroke-dasharray="1,5" d="M704.73,-983C527.78,-983 79.29,-983 79.29,-983 79.29,-983 79.29,-457.12 79.29,-457.12"/>
<polygon fill="black" stroke="black" points="82.79,-457.12 79.29,-447.12 75.79,-457.12 82.79,-457.12"/>
</g>
<!-- :ui:collections&#45;&gt;:domain -->
<g id="edge75" class="edge">
<title>:ui:collections&#45;&gt;:domain</title>
<path fill="none" stroke="black" stroke-dasharray="1,5" d="M704.81,-971C567.98,-971 279.68,-971 279.68,-971 279.68,-971 279.68,-592.38 279.68,-592.38"/>
<polygon fill="black" stroke="black" points="283.18,-592.38 279.68,-582.38 276.18,-592.38 283.18,-592.38"/>
</g>
<!-- :ui:collections&#45;&gt;:strings -->
<g id="edge76" class="edge">
<title>:ui:collections&#45;&gt;:strings</title>
<path fill="none" stroke="black" stroke-dasharray="1,5" d="M788.34,-959.23C788.34,-938.79 788.34,-908 788.34,-908 788.34,-908 1412.89,-908 1412.89,-908 1412.89,-908 1412.89,-593.91 1412.89,-593.91"/>
<polygon fill="black" stroke="black" points="1416.39,-593.91 1412.89,-583.91 1409.39,-593.91 1416.39,-593.91"/>
</g>
<!-- :ui:collections&#45;&gt;:ui:common -->
<g id="edge77" class="edge">
<title>:ui:collections&#45;&gt;:ui:common</title>
<path fill="none" stroke="black" stroke-dasharray="1,5" d="M845.98,-971C902.07,-971 971.1,-971 971.1,-971 971.1,-971 971.1,-730.58 971.1,-730.58"/>
<polygon fill="black" stroke="black" points="974.6,-730.58 971.1,-720.58 967.6,-730.58 974.6,-730.58"/>
</g>
<!-- :ui:collections&#45;&gt;:ui:core -->
<g id="edge78" class="edge">
<title>:ui:collections&#45;&gt;:ui:core</title>
<path fill="none" stroke="black" stroke-dasharray="1,5" d="M720.12,-964.78C720.12,-882.89 720.12,-417 720.12,-417 720.12,-417 1382.23,-417 1382.23,-417"/>
<polygon fill="black" stroke="black" points="1382.23,-420.5 1392.23,-417 1382.23,-413.5 1382.23,-420.5"/>
</g>
<!-- :ui:collections&#45;&gt;:ui:settings -->
<g id="edge79" class="edge">
<title>:ui:collections&#45;&gt;:ui:settings</title>
<path fill="none" stroke="black" stroke-dasharray="1,5" d="M850.38,-977C934.22,-977 1058.28,-977 1058.28,-977 1058.28,-977 1058.28,-867.07 1058.28,-867.07"/>
<polygon fill="black" stroke="black" points="1061.78,-867.07 1058.28,-857.07 1054.78,-867.07 1061.78,-867.07"/>
</g>
<!-- :ui:collections&#45;&gt;:data -->
<g id="edge72" class="edge">
<title>:ui:collections&#45;&gt;:data</title>
<path fill="none" stroke="black" stroke-dasharray="1,5" d="M713.6,-966.7C713.6,-882.03 713.6,-304 713.6,-304 713.6,-304 694,-304 694,-304"/>
<polygon fill="black" stroke="black" points="694,-300.5 684,-304 694,-307.5 694,-300.5"/>
</g>
<!-- :ui:collections&#45;&gt;:ui:test:screenshot -->
<g id="edge80" class="edge">
<title>:ui:collections&#45;&gt;:ui:test:screenshot</title>
<path fill="none" stroke="#ff9ab1" stroke-dasharray="1,5" d="M845.99,-983C954.28,-983 1148.83,-983 1148.83,-983 1148.83,-983 1148.83,-591.84 1148.83,-591.84"/>
<polygon fill="#ff9ab1" stroke="#ff9ab1" points="1152.33,-591.84 1148.83,-581.84 1145.33,-591.84 1152.33,-591.84"/>
</g>
<!-- :ui:history&#45;&gt;:domain -->
<g id="edge87" class="edge">
<title>:ui:history&#45;&gt;:domain</title>
<path fill="none" stroke="black" stroke-dasharray="1,5" d="M1208.01,-959.86C1208.01,-911.26 1208.01,-776 1208.01,-776 1208.01,-776 320.91,-776 320.91,-776 320.91,-776 320.91,-592.48 320.91,-592.48"/>
<polygon fill="black" stroke="black" points="324.41,-592.48 320.91,-582.48 317.41,-592.48 324.41,-592.48"/>
</g>
<!-- :ui:history&#45;&gt;:strings -->
<g id="edge88" class="edge">
<title>:ui:history&#45;&gt;:strings</title>
<path fill="none" stroke="black" stroke-dasharray="1,5" d="M1285.36,-977C1341.27,-977 1417.4,-977 1417.4,-977 1417.4,-977 1417.4,-593.92 1417.4,-593.92"/>
<polygon fill="black" stroke="black" points="1420.9,-593.92 1417.4,-583.92 1413.9,-593.92 1420.9,-593.92"/>
</g>
<!-- :ui:history&#45;&gt;:ui:common -->
<g id="edge89" class="edge">
<title>:ui:history&#45;&gt;:ui:common</title>
<path fill="none" stroke="black" stroke-dasharray="1,5" d="M1246.57,-959.81C1246.57,-901.52 1246.57,-715 1246.57,-715 1246.57,-715 1048.5,-715 1048.5,-715"/>
<polygon fill="black" stroke="black" points="1048.5,-711.5 1038.5,-715 1048.5,-718.5 1048.5,-711.5"/>
</g>
<!-- :ui:history&#45;&gt;:ui:core -->
<g id="edge90" class="edge">
<title>:ui:history&#45;&gt;:ui:core</title>
<path fill="none" stroke="black" stroke-dasharray="1,5" d="M1277.44,-968C1289.75,-968 1299.49,-968 1299.49,-968 1299.49,-968 1299.49,-437 1299.49,-437 1299.49,-437 1375.47,-437 1375.47,-437"/>
<polygon fill="black" stroke="black" points="1375.47,-440.5 1385.47,-437 1375.47,-433.5 1375.47,-440.5"/>
</g>
<!-- :ui:history&#45;&gt;:ui:image -->
<g id="edge91" class="edge">
<title>:ui:history&#45;&gt;:ui:image</title>
<path fill="none" stroke="black" stroke-dasharray="1,5" d="M1277.67,-986C1407.4,-986 1742.87,-986 1742.87,-986 1742.87,-986 1742.87,-593.78 1742.87,-593.78"/>
<polygon fill="black" stroke="black" points="1746.37,-593.78 1742.87,-583.78 1739.37,-593.78 1746.37,-593.78"/>
</g>
<!-- :ui:history&#45;&gt;:ui:settings -->
<g id="edge92" class="edge">
<title>:ui:history&#45;&gt;:ui:settings</title>
<path fill="none" stroke="black" stroke-dasharray="1,5" d="M1188.73,-963.41C1188.73,-930.65 1188.73,-850 1188.73,-850 1188.73,-850 1141.77,-850 1141.77,-850"/>
<polygon fill="black" stroke="black" points="1141.77,-846.5 1131.77,-850 1141.77,-853.5 1141.77,-846.5"/>
</g>
<!-- :ui:history&#45;&gt;:data -->
<g id="edge86" class="edge">
<title>:ui:history&#45;&gt;:data</title>
<path fill="none" stroke="black" stroke-dasharray="1,5" d="M1227.29,-958.65C1227.29,-904.31 1227.29,-748 1227.29,-748 1227.29,-748 672.67,-748 672.67,-748 672.67,-748 672.67,-318.5 672.67,-318.5"/>
<polygon fill="black" stroke="black" points="676.17,-318.5 672.67,-308.5 669.17,-318.5 676.17,-318.5"/>
</g>
<!-- :ui:history&#45;&gt;:ui:test:screenshot -->
<g id="edge94" class="edge">
<title>:ui:history&#45;&gt;:ui:test:screenshot</title>
<path fill="none" stroke="#ff9ab1" stroke-dasharray="1,5" d="M1265.86,-963.33C1265.86,-963.33 1265.86,-588.9 1265.86,-588.9"/>
<polygon fill="#ff9ab1" stroke="#ff9ab1" points="1269.36,-588.9 1265.86,-578.9 1262.36,-588.9 1269.36,-588.9"/>
</g>
<!-- :ui:history&#45;&gt;:ui:test:image -->
<g id="edge93" class="edge">
<title>:ui:history&#45;&gt;:ui:test:image</title>
<path fill="none" stroke="#ff9ab1" stroke-dasharray="1,5" d="M1184.14,-965C1093.58,-965 891.97,-965 891.97,-965 891.97,-965 891.97,-587.51 891.97,-587.51"/>
<polygon fill="#ff9ab1" stroke="#ff9ab1" points="895.47,-587.51 891.97,-577.51 888.47,-587.51 895.47,-587.51"/>
</g>
<!-- :ui:image&#45;&gt;:ui:core -->
<g id="edge44" class="edge">
<title>:ui:image&#45;&gt;:ui:core</title>
<path fill="none" stroke="black" stroke-dasharray="1,5" d="M1716.31,-548.93C1716.31,-512.2 1716.31,-429 1716.31,-429 1716.31,-429 1481.93,-429 1481.93,-429"/>
<polygon fill="black" stroke="black" points="1481.93,-425.5 1471.93,-429 1481.93,-432.5 1481.93,-425.5"/>
</g>
<!-- :ui:image&#45;&gt;:data:core -->
<g id="edge43" class="edge">
<title>:ui:image&#45;&gt;:data:core</title>
<path fill="none" stroke="black" stroke-dasharray="1,5" d="M1752.27,-548.81C1752.27,-455.3 1752.27,-12 1752.27,-12 1752.27,-12 824.33,-12 824.33,-12"/>
<polygon fill="black" stroke="black" points="824.33,-8.5 814.33,-12 824.33,-15.5 824.33,-8.5"/>
</g>
<!-- :ui:nowplaying&#45;&gt;:domain -->
<g id="edge52" class="edge">
<title>:ui:nowplaying&#45;&gt;:domain</title>
<path fill="none" stroke="black" stroke-dasharray="1,5" d="M733.82,-832.4C733.82,-819.34 733.82,-794 733.82,-794 733.82,-794 293.42,-794 293.42,-794 293.42,-794 293.42,-593.89 293.42,-593.89"/>
<polygon fill="black" stroke="black" points="296.92,-593.89 293.42,-583.89 289.92,-593.89 296.92,-593.89"/>
</g>
<!-- :ui:nowplaying&#45;&gt;:strings -->
<g id="edge53" class="edge">
<title>:ui:nowplaying&#45;&gt;:strings</title>
<path fill="none" stroke="black" stroke-dasharray="1,5" d="M789.9,-821.93C789.9,-812.54 789.9,-803 789.9,-803 789.9,-803 1396.29,-803 1396.29,-803 1396.29,-803 1396.29,-590.47 1396.29,-590.47"/>
<polygon fill="black" stroke="black" points="1399.79,-590.47 1396.29,-580.47 1392.79,-590.47 1399.79,-590.47"/>
</g>
<!-- :ui:nowplaying&#45;&gt;:ui:common -->
<g id="edge54" class="edge">
<title>:ui:nowplaying&#45;&gt;:ui:common</title>
<path fill="none" stroke="black" stroke-dasharray="1,5" d="M879.84,-846C914.65,-846 948.52,-846 948.52,-846 948.52,-846 948.52,-726.71 948.52,-726.71"/>
<polygon fill="black" stroke="black" points="952.02,-726.71 948.52,-716.71 945.02,-726.71 952.02,-726.71"/>
</g>
<!-- :ui:nowplaying&#45;&gt;:ui:core -->
<g id="edge55" class="edge">
<title>:ui:nowplaying&#45;&gt;:ui:core</title>
<path fill="none" stroke="black" stroke-dasharray="1,5" d="M748.16,-827.43C748.16,-757.55 748.16,-420 748.16,-420 748.16,-420 1376.4,-420 1376.4,-420"/>
<polygon fill="black" stroke="black" points="1376.4,-423.5 1386.4,-420 1376.4,-416.5 1376.4,-423.5"/>
</g>
<!-- :ui:nowplaying&#45;&gt;:ui:image -->
<g id="edge56" class="edge">
<title>:ui:nowplaying&#45;&gt;:ui:image</title>
<path fill="none" stroke="black" stroke-dasharray="1,5" d="M821.24,-822.11C821.24,-816.62 821.24,-812 821.24,-812 821.24,-812 1706.9,-812 1706.9,-812 1706.9,-812 1706.9,-591.76 1706.9,-591.76"/>
<polygon fill="black" stroke="black" points="1710.4,-591.76 1706.9,-581.76 1703.4,-591.76 1710.4,-591.76"/>
</g>
<!-- :ui:nowplaying&#45;&gt;:data -->
<g id="edge51" class="edge">
<title>:ui:nowplaying&#45;&gt;:data</title>
<path fill="none" stroke="black" stroke-dasharray="1,5" d="M740.99,-829.17C740.99,-752.78 740.99,-298 740.99,-298 740.99,-298 700.98,-298 700.98,-298"/>
<polygon fill="black" stroke="black" points="700.98,-294.5 690.98,-298 700.98,-301.5 700.98,-294.5"/>
</g>
<!-- :ui:nowplaying&#45;&gt;:ui:test:screenshot -->
<g id="edge58" class="edge">
<title>:ui:nowplaying&#45;&gt;:ui:test:screenshot</title>
<path fill="none" stroke="#ff9ab1" stroke-dasharray="1,5" d="M879.7,-834C902.77,-834 922.26,-834 922.26,-834 922.26,-834 922.26,-566 922.26,-566 922.26,-566 1089.29,-566 1089.29,-566"/>
<polygon fill="#ff9ab1" stroke="#ff9ab1" points="1089.29,-569.5 1099.29,-566 1089.29,-562.5 1089.29,-569.5"/>
</g>
<!-- :ui:nowplaying&#45;&gt;:ui:test:image -->
<g id="edge57" class="edge">
<title>:ui:nowplaying&#45;&gt;:ui:test:image</title>
<path fill="none" stroke="#ff9ab1" stroke-dasharray="1,5" d="M852.59,-825.27C852.59,-825.27 852.59,-593.58 852.59,-593.58"/>
<polygon fill="#ff9ab1" stroke="#ff9ab1" points="856.09,-593.58 852.59,-583.58 849.09,-593.58 856.09,-593.58"/>
</g>
<!-- :ui:settings&#45;&gt;:data&#45;android -->
<g id="edge45" class="edge">
<title>:ui:settings&#45;&gt;:data&#45;android</title>
<path fill="none" stroke="black" stroke-dasharray="1,5" d="M1035.44,-826.77C1035.44,-805.49 1035.44,-766 1035.44,-766 1035.44,-766 553.29,-766 553.29,-766 553.29,-766 553.29,-594.1 553.29,-594.1"/>
<polygon fill="black" stroke="black" points="556.79,-594.1 553.29,-584.1 549.79,-594.1 556.79,-594.1"/>
</g>
<!-- :ui:settings&#45;&gt;:domain -->
<g id="edge46" class="edge">
<title>:ui:settings&#45;&gt;:domain</title>
<path fill="none" stroke="black" stroke-dasharray="1,5" d="M1025.85,-830.42C1025.85,-814.66 1025.85,-785 1025.85,-785 1025.85,-785 307.16,-785 307.16,-785 307.16,-785 307.16,-593.92 307.16,-593.92"/>
<polygon fill="black" stroke="black" points="310.66,-593.92 307.16,-583.92 303.66,-593.92 310.66,-593.92"/>
</g>
<!-- :ui:settings&#45;&gt;:strings -->
<g id="edge47" class="edge">
<title>:ui:settings&#45;&gt;:strings</title>
<path fill="none" stroke="black" stroke-dasharray="1,5" d="M1129.29,-829C1196.01,-829 1305.84,-829 1305.84,-829 1305.84,-829 1305.84,-566 1305.84,-566 1305.84,-566 1367.82,-566 1367.82,-566"/>
<polygon fill="black" stroke="black" points="1367.82,-569.5 1377.82,-566 1367.82,-562.5 1367.82,-569.5"/>
</g>
<!-- :ui:settings&#45;&gt;:ui:common -->
<g id="edge48" class="edge">
<title>:ui:settings&#45;&gt;:ui:common</title>
<path fill="none" stroke="black" stroke-dasharray="1,5" d="M1045.04,-824.82C1045.04,-824.82 1045.04,-722.52 1045.04,-722.52"/>
<polygon fill="black" stroke="black" points="1048.54,-722.52 1045.04,-712.52 1041.54,-722.52 1048.54,-722.52"/>
</g>
<!-- :ui:settings&#45;&gt;:ui:core -->
<g id="edge49" class="edge">
<title>:ui:settings&#45;&gt;:ui:core</title>
<path fill="none" stroke="black" stroke-dasharray="1,5" d="M1077.04,-821.85C1077.04,-742.51 1077.04,-430 1077.04,-430 1077.04,-430 1370.63,-430 1370.63,-430"/>
<polygon fill="black" stroke="black" points="1370.63,-433.5 1380.63,-430 1370.63,-426.5 1370.63,-433.5"/>
</g>
<!-- :ui:settings&#45;&gt;:ui:test:screenshot -->
<g id="edge50" class="edge">
<title>:ui:settings&#45;&gt;:ui:test:screenshot</title>
<path fill="none" stroke="#ff9ab1" stroke-dasharray="1,5" d="M1131.62,-829.92C1131.62,-829.92 1131.62,-589.59 1131.62,-589.59"/>
<polygon fill="#ff9ab1" stroke="#ff9ab1" points="1135.12,-589.59 1131.62,-579.59 1128.12,-589.59 1135.12,-589.59"/>
</g>
<!-- :ui:spotify&#45;broadcast&#45;receiver&#45;&gt;:strings -->
<g id="edge70" class="edge">
<title>:ui:spotify&#45;broadcast&#45;receiver&#45;&gt;:strings</title>
<path fill="none" stroke="black" stroke-dasharray="1,5" d="M1459.43,-828.58C1459.43,-828.58 1459.43,-587.78 1459.43,-587.78"/>
<polygon fill="black" stroke="black" points="1462.93,-587.78 1459.43,-577.78 1455.93,-587.78 1462.93,-587.78"/>
</g>
<!-- :ui:spotify&#45;broadcast&#45;receiver&#45;&gt;:ui:common -->
<g id="edge69" class="edge">
<title>:ui:spotify&#45;broadcast&#45;receiver&#45;&gt;:ui:common</title>
<path fill="none" stroke="black" stroke-dasharray="1,5" d="M1448.42,-830.29C1448.42,-799.34 1448.42,-705 1448.42,-705 1448.42,-705 1064.48,-705 1064.48,-705"/>
<polygon fill="black" stroke="black" points="1064.48,-701.5 1054.48,-705 1064.48,-708.5 1064.48,-701.5"/>
</g>
<!-- :ui:spotify&#45;broadcast&#45;receiver&#45;&gt;:ui:core -->
<g id="edge68" class="edge">
<title>:ui:spotify&#45;broadcast&#45;receiver&#45;&gt;:ui:core</title>
<path fill="none" stroke="black" stroke-dasharray="1,5" d="M1541.31,-822.21C1541.31,-744.41 1541.31,-438 1541.31,-438 1541.31,-438 1475.87,-438 1475.87,-438"/>
<polygon fill="black" stroke="black" points="1475.87,-434.5 1465.87,-438 1475.87,-441.5 1475.87,-434.5"/>
</g>
<!-- :ui:spotify&#45;broadcast&#45;receiver&#45;&gt;:data:core -->
<g id="edge67" class="edge">
<title>:ui:spotify&#45;broadcast&#45;receiver&#45;&gt;:data:core</title>
<path fill="none" stroke="black" stroke-dasharray="1,5" d="M1610.83,-822.58C1610.83,-704.32 1610.83,-24 1610.83,-24 1610.83,-24 824.47,-24 824.47,-24"/>
<polygon fill="black" stroke="black" points="824.47,-20.5 814.47,-24 824.47,-27.5 824.47,-20.5"/>
</g>
<!-- :ui:spotify&#45;broadcast&#45;receiver&#45;&gt;:ui:test:screenshot -->
<g id="edge71" class="edge">
<title>:ui:spotify&#45;broadcast&#45;receiver&#45;&gt;:ui:test:screenshot</title>
<path fill="none" stroke="#ff9ab1" stroke-dasharray="1,5" d="M1437.41,-833.12C1437.41,-809.04 1437.41,-730 1437.41,-730 1437.41,-730 1290.47,-730 1290.47,-730 1290.47,-730 1290.47,-580.39 1290.47,-580.39"/>
<polygon fill="#ff9ab1" stroke="#ff9ab1" points="1293.97,-580.39 1290.47,-570.39 1286.97,-580.39 1293.97,-580.39"/>
</g>
<!-- :ui:stats&#45;&gt;:strings -->
<g id="edge84" class="edge">
<title>:ui:stats&#45;&gt;:strings</title>
<path fill="none" stroke="black" stroke-dasharray="1,5" d="M1402.34,-831.19C1402.34,-831.19 1402.34,-591.91 1402.34,-591.91"/>
<polygon fill="black" stroke="black" points="1405.84,-591.91 1402.34,-581.91 1398.84,-591.91 1405.84,-591.91"/>
</g>
<!-- :ui:stats&#45;&gt;:ui:common -->
<g id="edge82" class="edge">
<title>:ui:stats&#45;&gt;:ui:common</title>
<path fill="none" stroke="black" stroke-dasharray="1,5" d="M1328.68,-826.09C1328.68,-792.55 1328.68,-710 1328.68,-710 1328.68,-710 1059.62,-710 1059.62,-710"/>
<polygon fill="black" stroke="black" points="1059.62,-706.5 1049.62,-710 1059.62,-713.5 1059.62,-706.5"/>
</g>
<!-- :ui:stats&#45;&gt;:ui:core -->
<g id="edge83" class="edge">
<title>:ui:stats&#45;&gt;:ui:core</title>
<path fill="none" stroke="black" stroke-dasharray="1,5" d="M1361.66,-821.77C1361.66,-743.52 1361.66,-440 1361.66,-440 1361.66,-440 1380.2,-440 1380.2,-440"/>
<polygon fill="black" stroke="black" points="1380.2,-443.5 1390.2,-440 1380.2,-436.5 1380.2,-443.5"/>
</g>
<!-- :ui:stats&#45;&gt;:data -->
<g id="edge81" class="edge">
<title>:ui:stats&#45;&gt;:data</title>
<path fill="none" stroke="black" stroke-dasharray="1,5" d="M1345.17,-822.69C1345.17,-729.55 1345.17,-292 1345.17,-292 1345.17,-292 702.83,-292 702.83,-292"/>
<polygon fill="black" stroke="black" points="702.83,-288.5 692.83,-292 702.83,-295.5 702.83,-288.5"/>
</g>
<!-- :ui:stats&#45;&gt;:ui:test:screenshot -->
<g id="edge85" class="edge">
<title>:ui:stats&#45;&gt;:ui:test:screenshot</title>
<path fill="none" stroke="#ff9ab1" stroke-dasharray="1,5" d="M1313.16,-836C1299.31,-836 1287.8,-836 1287.8,-836 1287.8,-836 1287.8,-581.89 1287.8,-581.89"/>
<polygon fill="#ff9ab1" stroke="#ff9ab1" points="1291.3,-581.89 1287.8,-571.89 1284.3,-581.89 1291.3,-581.89"/>
</g>
<!-- :data&#45;&gt;:data:core -->
<g id="edge18" class="edge">
<title>:data&#45;&gt;:data:core</title>
<path fill="none" stroke="black" d="M684.09,-280C715.94,-280 765.97,-280 765.97,-280 765.97,-280 765.97,-46.01 765.97,-46.01"/>
<polygon fill="black" stroke="black" points="769.47,-46.01 765.97,-36.01 762.47,-46.01 769.47,-46.01"/>
</g>
<!-- :data&#45;&gt;:data:common:network -->
<g id="edge19" class="edge">
<title>:data&#45;&gt;:data:common:network</title>
<path fill="none" stroke="black" d="M632.41,-280C598.05,-280 541.67,-280 541.67,-280 541.67,-280 541.67,-179.34 541.67,-179.34"/>
<polygon fill="black" stroke="black" points="545.17,-179.34 541.67,-169.34 538.17,-179.34 545.17,-179.34"/>
</g>
<!-- :data&#45;&gt;:data:coverart -->
<g id="edge20" class="edge">
<title>:data&#45;&gt;:data:coverart</title>
<path fill="none" stroke="black" d="M658.29,-273.81C658.29,-273.81 658.29,-182.4 658.29,-182.4"/>
<polygon fill="black" stroke="black" points="661.79,-182.4 658.29,-172.4 654.79,-182.4 661.79,-182.4"/>
</g>
<!-- :data:spotify -->
<g id="node21" class="node">
<title>:data:spotify</title>
<ellipse fill="#b59aff" stroke="black" cx="842.29" cy="-155" rx="68.79" ry="18"/>
<text text-anchor="middle" x="842.29" y="-151.3" font-family="Times,serif" font-size="14.00">:data:spotify</text>
</g>
<!-- :data&#45;&gt;:data:spotify -->
<g id="edge21" class="edge">
<title>:data&#45;&gt;:data:spotify</title>
<path fill="none" stroke="black" d="M690.91,-286C743.38,-286 840.72,-286 840.72,-286 840.72,-286 840.72,-183.21 840.72,-183.21"/>
<polygon fill="black" stroke="black" points="844.22,-183.21 840.72,-173.21 837.22,-183.22 844.22,-183.21"/>
</g>
<!-- :data&#45;&gt;:data:musicbrainz -->
<g id="edge22" class="edge">
<title>:data&#45;&gt;:data:musicbrainz</title>
<path fill="none" stroke="black" d="M625.78,-286C539.75,-286 312.71,-286 312.71,-286 312.71,-286 312.71,-176.17 312.71,-176.17"/>
<polygon fill="black" stroke="black" points="316.21,-176.17 312.71,-166.17 309.21,-176.17 316.21,-176.17"/>
</g>
<!-- :data:coverart&#45;&gt;:data:core -->
<g id="edge33" class="edge">
<title>:data:coverart&#45;&gt;:data:core</title>
<path fill="none" stroke="black" stroke-dasharray="1,5" d="M729.22,-141.36C729.22,-141.36 729.22,-43.24 729.22,-43.24"/>
<polygon fill="black" stroke="black" points="732.72,-43.24 729.22,-33.24 725.72,-43.24 732.72,-43.24"/>
</g>
<!-- :data:spotify&#45;&gt;:data:core -->
<g id="edge34" class="edge">
<title>:data:spotify&#45;&gt;:data:core</title>
<path fill="none" stroke="black" stroke-dasharray="1,5" d="M795.44,-141.61C795.44,-141.61 795.44,-42.47 795.44,-42.47"/>
<polygon fill="black" stroke="black" points="798.94,-42.47 795.44,-32.47 791.94,-42.47 798.94,-42.47"/>
</g>
<!-- :data:musicbrainz&#45;&gt;:data:core -->
<g id="edge35" class="edge">
<title>:data:musicbrainz&#45;&gt;:data:core</title>
<path fill="none" stroke="black" stroke-dasharray="1,5" d="M239.29,-136.81C239.29,-99.54 239.29,-18 239.29,-18 239.29,-18 693.05,-18 693.05,-18"/>
<polygon fill="black" stroke="black" points="693.05,-21.5 703.05,-18 693.05,-14.5 693.05,-21.5"/>
</g>
<!-- :desktop:app -->
<g id="node23" class="node">
<title>:desktop:app</title>
<polygon fill="#ffb59a" stroke="black" points="2174.29,-1132 1814.29,-1132 1814.29,-1096 2174.29,-1096 2174.29,-1132"/>
<text text-anchor="middle" x="1994.29" y="-1110.3" font-family="Times,serif" font-size="14.00">:desktop:app</text>
</g>
<!-- :desktop:app&#45;&gt;:ui:core -->
<g id="edge29" class="edge">
<title>:desktop:app&#45;&gt;:ui:core</title>
<path fill="none" stroke="black" stroke-dasharray="1,5" d="M1994.29,-1095.79C1994.29,-986.3 1994.29,-420 1994.29,-420 1994.29,-420 1475.78,-420 1475.78,-420"/>
<polygon fill="black" stroke="black" points="1475.78,-416.5 1465.78,-420 1475.78,-423.5 1475.78,-416.5"/>
</g>
<!-- :ui:test:screenshot&#45;&gt;:ui:core -->
<g id="edge95" class="edge">
<title>:ui:test:screenshot&#45;&gt;:ui:core</title>
<path fill="none" stroke="black" stroke-dasharray="1,5" d="M1196.29,-547.79C1196.29,-511.36 1196.29,-433 1196.29,-433 1196.29,-433 1371.67,-433 1371.67,-433"/>
<polygon fill="black" stroke="black" points="1371.67,-436.5 1381.67,-433 1371.67,-429.5 1371.67,-436.5"/>
</g>
</g>
</svg>
