<?xml version="1.0" encoding="UTF-8" standalone="no"?>
<!DOCTYPE svg PUBLIC "-//W3C//DTD SVG 1.1//EN"
 "http://www.w3.org/Graphics/SVG/1.1/DTD/svg11.dtd">
<!-- Generated by graphviz version 8.1.0 (20230707.0739)
 -->
<!-- Pages: 1 -->
<svg width="2444pt" height="1217pt"
 viewBox="0.00 0.00 2444.03 1217.00" xmlns="http://www.w3.org/2000/svg" xmlns:xlink="http://www.w3.org/1999/xlink">
<g id="graph0" class="graph" transform="scale(1 1) rotate(0) translate(4 1213)">
<polygon fill="white" stroke="none" points="-4,4 -4,-1213 2440.03,-1213 2440.03,4 -4,4"/>
<text text-anchor="middle" x="1218.01" y="-1176.5" font-family="Times New Roman,serif" font-size="30.00">MusicSearch</text>
<text text-anchor="middle" x="1218.01" y="-1142" font-family="Times New Roman,serif" font-size="30.00"> </text>
<!-- :app -->
<g id="node1" class="node">
<title>:app</title>
<polygon fill="#9affb5" stroke="black" points="1158.03,-1132 798.03,-1132 798.03,-1096 1158.03,-1096 1158.03,-1132"/>
<text text-anchor="middle" x="978.03" y="-1108.58" font-family="Times New Roman,serif" font-size="14.00">:app</text>
</g>
<!-- :test&#45;data -->
<g id="node2" class="node">
<title>:test&#45;data</title>
<ellipse fill="#b59aff" stroke="black" cx="632.03" cy="-429" rx="44.08" ry="18"/>
<text text-anchor="middle" x="632.03" y="-423.57" font-family="Times New Roman,serif" font-size="14.00">:test&#45;data</text>
</g>
<!-- :app&#45;&gt;:test&#45;data -->
<g id="edge1" class="edge">
<title>:app&#45;&gt;:test&#45;data</title>
<path fill="none" stroke="#ff9ab1" stroke-dasharray="1,5" d="M817.39,-1095.7C817.39,-988.16 817.39,-443 817.39,-443 817.39,-443 671.99,-443 671.99,-443"/>
<polygon fill="#ff9ab1" stroke="#ff9ab1" points="671.99,-439.5 661.99,-443 671.99,-446.5 671.99,-439.5"/>
</g>
<!-- :data&#45;android -->
<g id="node3" class="node">
<title>:data&#45;android</title>
<ellipse fill="#9affb5" stroke="black" cx="654.03" cy="-566" rx="59.55" ry="18"/>
<text text-anchor="middle" x="654.03" y="-560.58" font-family="Times New Roman,serif" font-size="14.00">:data&#45;android</text>
</g>
<!-- :app&#45;&gt;:data&#45;android -->
<g id="edge2" class="edge">
<title>:app&#45;&gt;:data&#45;android</title>
<path fill="none" stroke="black" stroke-dasharray="1,5" d="M812.29,-1095.55C812.29,-1001.3 812.29,-578 812.29,-578 812.29,-578 710.38,-578 710.38,-578"/>
<polygon fill="black" stroke="black" points="710.38,-574.5 700.38,-578 710.38,-581.5 710.38,-574.5"/>
</g>
<!-- :data:database -->
<g id="node4" class="node">
<title>:data:database</title>
<ellipse fill="#b59aff" stroke="black" cx="187.03" cy="-429" rx="62.54" ry="18"/>
<text text-anchor="middle" x="187.03" y="-423.57" font-family="Times New Roman,serif" font-size="14.00">:data:database</text>
</g>
<!-- :app&#45;&gt;:data:database -->
<g id="edge3" class="edge">
<title>:app&#45;&gt;:data:database</title>
<path fill="none" stroke="black" stroke-dasharray="1,5" d="M797.73,-1117C556.52,-1117 158.76,-1117 158.76,-1117 158.76,-1117 158.76,-456.33 158.76,-456.33"/>
<polygon fill="black" stroke="black" points="162.26,-456.33 158.76,-446.33 155.26,-456.33 162.26,-456.33"/>
</g>
<!-- :data:repository -->
<g id="node5" class="node">
<title>:data:repository</title>
<ellipse fill="#b59aff" stroke="black" cx="68.03" cy="-566" rx="68.03" ry="18"/>
<text text-anchor="middle" x="68.03" y="-560.58" font-family="Times New Roman,serif" font-size="14.00">:data:repository</text>
</g>
<!-- :app&#45;&gt;:data:repository -->
<g id="edge4" class="edge">
<title>:app&#45;&gt;:data:repository</title>
<path fill="none" stroke="black" stroke-dasharray="1,5" d="M797.7,-1124C532.41,-1124 68.03,-1124 68.03,-1124 68.03,-1124 68.03,-595.25 68.03,-595.25"/>
<polygon fill="black" stroke="black" points="71.53,-595.25 68.03,-585.25 64.53,-595.25 71.53,-595.25"/>
</g>
<!-- :domain -->
<g id="node6" class="node">
<title>:domain</title>
<ellipse fill="#b59aff" stroke="black" cx="536.03" cy="-566" rx="40.09" ry="18"/>
<text text-anchor="middle" x="536.03" y="-560.58" font-family="Times New Roman,serif" font-size="14.00">:domain</text>
</g>
<!-- :app&#45;&gt;:domain -->
<g id="edge5" class="edge">
<title>:app&#45;&gt;:domain</title>
<path fill="none" stroke="black" stroke-dasharray="1,5" d="M797.54,-1103C664.28,-1103 505.97,-1103 505.97,-1103 505.97,-1103 505.97,-589.22 505.97,-589.22"/>
<polygon fill="black" stroke="black" points="509.47,-589.22 505.97,-579.22 502.47,-589.22 509.47,-589.22"/>
</g>
<!-- :inverted&#45;domain -->
<g id="node7" class="node">
<title>:inverted&#45;domain</title>
<ellipse fill="#b59aff" stroke="black" cx="316.03" cy="-292" rx="72.52" ry="18"/>
<text text-anchor="middle" x="316.03" y="-286.57" font-family="Times New Roman,serif" font-size="14.00">:inverted&#45;domain</text>
</g>
<!-- :app&#45;&gt;:inverted&#45;domain -->
<g id="edge6" class="edge">
<title>:app&#45;&gt;:inverted&#45;domain</title>
<path fill="none" stroke="black" stroke-dasharray="1,5" d="M797.59,-1110C589.99,-1110 277.37,-1110 277.37,-1110 277.37,-1110 277.37,-318.61 277.37,-318.61"/>
<polygon fill="black" stroke="black" points="280.87,-318.61 277.37,-308.61 273.87,-318.61 280.87,-318.61"/>
</g>
<!-- :feature:search -->
<g id="node8" class="node">
<title>:feature:search</title>
<ellipse fill="#9affb5" stroke="black" cx="886.03" cy="-840" rx="63.54" ry="18"/>
<text text-anchor="middle" x="886.03" y="-834.58" font-family="Times New Roman,serif" font-size="14.00">:feature:search</text>
</g>
<!-- :app&#45;&gt;:feature:search -->
<g id="edge7" class="edge">
<title>:app&#45;&gt;:feature:search</title>
<path fill="none" stroke="black" stroke-dasharray="1,5" d="M886.03,-1095.6C886.03,-1095.6 886.03,-869.32 886.03,-869.32"/>
<polygon fill="black" stroke="black" points="889.53,-869.32 886.03,-859.32 882.53,-869.32 889.53,-869.32"/>
</g>
<!-- :strings -->
<g id="node9" class="node">
<title>:strings</title>
<ellipse fill="#b59aff" stroke="black" cx="1228.03" cy="-566" rx="37.09" ry="18"/>
<text text-anchor="middle" x="1228.03" y="-560.58" font-family="Times New Roman,serif" font-size="14.00">:strings</text>
</g>
<!-- :app&#45;&gt;:strings -->
<g id="edge8" class="edge">
<title>:app&#45;&gt;:strings</title>
<path fill="none" stroke="black" stroke-dasharray="1,5" d="M1132.27,-1095.66C1132.27,-1000.98 1132.27,-572 1132.27,-572 1132.27,-572 1181.64,-572 1181.64,-572"/>
<polygon fill="black" stroke="black" points="1181.64,-575.5 1191.64,-572 1181.64,-568.5 1181.64,-575.5"/>
</g>
<!-- :ui:common -->
<g id="node10" class="node">
<title>:ui:common</title>
<ellipse fill="#9affb5" stroke="black" cx="1348.03" cy="-703" rx="54.06" ry="18"/>
<text text-anchor="middle" x="1348.03" y="-697.58" font-family="Times New Roman,serif" font-size="14.00">:ui:common</text>
</g>
<!-- :app&#45;&gt;:ui:common -->
<g id="edge9" class="edge">
<title>:app&#45;&gt;:ui:common</title>
<path fill="none" stroke="black" stroke-dasharray="1,5" d="M1158.51,-1103C1241.94,-1103 1322.84,-1103 1322.84,-1103 1322.84,-1103 1322.84,-730.18 1322.84,-730.18"/>
<polygon fill="black" stroke="black" points="1326.34,-730.18 1322.84,-720.18 1319.34,-730.18 1326.34,-730.18"/>
</g>
<!-- :ui:core -->
<g id="node11" class="node">
<title>:ui:core</title>
<ellipse fill="#b59aff" stroke="black" cx="1815.03" cy="-429" rx="37.59" ry="18"/>
<text text-anchor="middle" x="1815.03" y="-423.57" font-family="Times New Roman,serif" font-size="14.00">:ui:core</text>
</g>
<!-- :app&#45;&gt;:ui:core -->
<g id="edge10" class="edge">
<title>:app&#45;&gt;:ui:core</title>
<path fill="none" stroke="black" stroke-dasharray="1,5" d="M1123.68,-1095.62C1123.68,-986.37 1123.68,-427 1123.68,-427 1123.68,-427 1766.37,-427 1766.37,-427"/>
<polygon fill="black" stroke="black" points="1766.37,-430.5 1776.37,-427 1766.37,-423.5 1766.37,-430.5"/>
</g>
<!-- :ui:collections -->
<g id="node12" class="node">
<title>:ui:collections</title>
<ellipse fill="#9affb5" stroke="black" cx="696.03" cy="-977" rx="61.04" ry="18"/>
<text text-anchor="middle" x="696.03" y="-971.58" font-family="Times New Roman,serif" font-size="14.00">:ui:collections</text>
</g>
<!-- :app&#45;&gt;:ui:collections -->
<g id="edge11" class="edge">
<title>:app&#45;&gt;:ui:collections</title>
<path fill="none" stroke="black" stroke-dasharray="1,5" d="M807.19,-1095.65C807.19,-1059.82 807.19,-984 807.19,-984 807.19,-984 763.91,-984 763.91,-984"/>
<polygon fill="black" stroke="black" points="763.91,-980.5 753.91,-984 763.91,-987.5 763.91,-980.5"/>
</g>
<!-- :ui:history -->
<g id="node13" class="node">
<title>:ui:history</title>
<ellipse fill="#9affb5" stroke="black" cx="1379.03" cy="-977" rx="46.57" ry="18"/>
<text text-anchor="middle" x="1379.03" y="-971.58" font-family="Times New Roman,serif" font-size="14.00">:ui:history</text>
</g>
<!-- :app&#45;&gt;:ui:history -->
<g id="edge12" class="edge">
<title>:app&#45;&gt;:ui:history</title>
<path fill="none" stroke="black" stroke-dasharray="1,5" d="M1149.44,-1095.56C1149.44,-1060.78 1149.44,-989 1149.44,-989 1149.44,-989 1332.41,-989 1332.41,-989"/>
<polygon fill="black" stroke="black" points="1332.41,-992.5 1342.41,-989 1332.41,-985.5 1332.41,-992.5"/>
</g>
<!-- :ui:image -->
<g id="node14" class="node">
<title>:ui:image</title>
<ellipse fill="#9affb5" stroke="black" cx="2071.03" cy="-566" rx="42.58" ry="18"/>
<text text-anchor="middle" x="2071.03" y="-560.58" font-family="Times New Roman,serif" font-size="14.00">:ui:image</text>
</g>
<!-- :app&#45;&gt;:ui:image -->
<g id="edge13" class="edge">
<title>:app&#45;&gt;:ui:image</title>
<path fill="none" stroke="black" stroke-dasharray="1,5" d="M1158.38,-1124C1467.72,-1124 2066.51,-1124 2066.51,-1124 2066.51,-1124 2066.51,-595.25 2066.51,-595.25"/>
<polygon fill="black" stroke="black" points="2070.01,-595.25 2066.51,-585.25 2063.01,-595.25 2070.01,-595.25"/>
</g>
<!-- :ui:nowplaying -->
<g id="node15" class="node">
<title>:ui:nowplaying</title>
<ellipse fill="#9affb5" stroke="black" cx="1439.03" cy="-840" rx="63.54" ry="18"/>
<text text-anchor="middle" x="1439.03" y="-834.58" font-family="Times New Roman,serif" font-size="14.00">:ui:nowplaying</text>
</g>
<!-- :app&#45;&gt;:ui:nowplaying -->
<g id="edge14" class="edge">
<title>:app&#45;&gt;:ui:nowplaying</title>
<path fill="none" stroke="black" stroke-dasharray="1,5" d="M1140.86,-1095.58C1140.86,-1035.94 1140.86,-852 1140.86,-852 1140.86,-852 1379.46,-852 1379.46,-852"/>
<polygon fill="black" stroke="black" points="1379.46,-855.5 1389.46,-852 1379.46,-848.5 1379.46,-855.5"/>
</g>
<!-- :ui:settings -->
<g id="node16" class="node">
<title>:ui:settings</title>
<ellipse fill="#9affb5" stroke="black" cx="1066.03" cy="-840" rx="49.07" ry="18"/>
<text text-anchor="middle" x="1066.03" y="-834.58" font-family="Times New Roman,serif" font-size="14.00">:ui:settings</text>
</g>
<!-- :app&#45;&gt;:ui:settings -->
<g id="edge15" class="edge">
<title>:app&#45;&gt;:ui:settings</title>
<path fill="none" stroke="black" stroke-dasharray="1,5" d="M1082.39,-1095.6C1082.39,-1095.6 1082.39,-868.26 1082.39,-868.26"/>
<polygon fill="black" stroke="black" points="1085.89,-868.26 1082.39,-858.26 1078.89,-868.26 1085.89,-868.26"/>
</g>
<!-- :ui:spotify&#45;broadcast&#45;receiver -->
<g id="node17" class="node">
<title>:ui:spotify&#45;broadcast&#45;receiver</title>
<ellipse fill="#9affb5" stroke="black" cx="1848.03" cy="-840" rx="118.93" ry="18"/>
<text text-anchor="middle" x="1848.03" y="-834.58" font-family="Times New Roman,serif" font-size="14.00">:ui:spotify&#45;broadcast&#45;receiver</text>
</g>
<!-- :app&#45;&gt;:ui:spotify&#45;broadcast&#45;receiver -->
<g id="edge16" class="edge">
<title>:app&#45;&gt;:ui:spotify&#45;broadcast&#45;receiver</title>
<path fill="none" stroke="black" stroke-dasharray="1,5" d="M1158.29,-1117C1413.12,-1117 1848.03,-1117 1848.03,-1117 1848.03,-1117 1848.03,-869.17 1848.03,-869.17"/>
<polygon fill="black" stroke="black" points="1851.53,-869.17 1848.03,-859.17 1844.53,-869.17 1851.53,-869.17"/>
</g>
<!-- :ui:stats -->
<g id="node18" class="node">
<title>:ui:stats</title>
<ellipse fill="#9affb5" stroke="black" cx="1673.03" cy="-840" rx="38.09" ry="18"/>
<text text-anchor="middle" x="1673.03" y="-834.58" font-family="Times New Roman,serif" font-size="14.00">:ui:stats</text>
</g>
<!-- :app&#45;&gt;:ui:stats -->
<g id="edge17" class="edge">
<title>:app&#45;&gt;:ui:stats</title>
<path fill="none" stroke="black" stroke-dasharray="1,5" d="M1158.37,-1110C1364.29,-1110 1673.03,-1110 1673.03,-1110 1673.03,-1110 1673.03,-869.13 1673.03,-869.13"/>
<polygon fill="black" stroke="black" points="1676.53,-869.13 1673.03,-859.13 1669.53,-869.13 1676.53,-869.13"/>
</g>
<!-- :test&#45;data&#45;&gt;:inverted&#45;domain -->
<g id="edge26" class="edge">
<title>:test&#45;data&#45;&gt;:inverted&#45;domain</title>
<path fill="none" stroke="black" stroke-dasharray="1,5" d="M615.83,-411.88C615.83,-377.65 615.83,-304 615.83,-304 615.83,-304 382.37,-304 382.37,-304"/>
<polygon fill="black" stroke="black" points="382.37,-300.5 372.37,-304 382.37,-307.5 382.37,-300.5"/>
</g>
<!-- :data -->
<g id="node19" class="node">
<title>:data</title>
<ellipse fill="#ffb59a" stroke="black" cx="744.03" cy="-292" rx="28.11" ry="18"/>
<text text-anchor="middle" x="744.03" y="-286.57" font-family="Times New Roman,serif" font-size="14.00">:data</text>
</g>
<!-- :test&#45;data&#45;&gt;:data -->
<g id="edge25" class="edge">
<title>:test&#45;data&#45;&gt;:data</title>
<path fill="none" stroke="black" stroke-dasharray="1,5" d="M657.79,-414C684.62,-414 722.78,-414 722.78,-414 722.78,-414 722.78,-315.14 722.78,-315.14"/>
<polygon fill="black" stroke="black" points="726.28,-315.14 722.78,-305.14 719.28,-315.14 726.28,-315.14"/>
</g>
<!-- :data&#45;android&#45;&gt;:test&#45;data -->
<g id="edge19" class="edge">
<title>:data&#45;android&#45;&gt;:test&#45;data</title>
<path fill="none" stroke="#ff9ab1" stroke-dasharray="1,5" d="M635.3,-548.65C635.3,-548.65 635.3,-458.08 635.3,-458.08"/>
<polygon fill="#ff9ab1" stroke="#ff9ab1" points="638.8,-458.08 635.3,-448.08 631.8,-458.08 638.8,-458.08"/>
</g>
<!-- :data&#45;android&#45;&gt;:data -->
<g id="edge18" class="edge">
<title>:data&#45;android&#45;&gt;:data</title>
<path fill="none" stroke="black" d="M701.78,-554.87C701.78,-504.34 701.78,-299 701.78,-299 701.78,-299 706.99,-299 706.99,-299"/>
<polygon fill="black" stroke="black" points="706.99,-302.5 716.99,-299 706.99,-295.5 706.99,-302.5"/>
</g>
<!-- :data:core -->
<g id="node20" class="node">
<title>:data:core</title>
<ellipse fill="#b59aff" stroke="black" cx="566.03" cy="-18" rx="46.57" ry="18"/>
<text text-anchor="middle" x="566.03" y="-12.57" font-family="Times New Roman,serif" font-size="14.00">:data:core</text>
</g>
<!-- :data:database&#45;&gt;:data:core -->
<g id="edge34" class="edge">
<title>:data:database&#45;&gt;:data:core</title>
<path fill="none" stroke="black" stroke-dasharray="1,5" d="M249.88,-429C349.34,-429 531.87,-429 531.87,-429 531.87,-429 531.87,-41.3 531.87,-41.3"/>
<polygon fill="black" stroke="black" points="535.37,-41.3 531.87,-31.3 528.37,-41.3 535.37,-41.3"/>
</g>
<!-- :data:common:network -->
<g id="node21" class="node">
<title>:data:common:network</title>
<ellipse fill="#b59aff" stroke="black" cx="399.03" cy="-155" rx="94.98" ry="18"/>
<text text-anchor="middle" x="399.03" y="-149.57" font-family="Times New Roman,serif" font-size="14.00">:data:common:network</text>
</g>
<!-- :data:database&#45;&gt;:data:common:network -->
<g id="edge35" class="edge">
<title>:data:database&#45;&gt;:data:common:network</title>
<path fill="none" stroke="black" stroke-dasharray="1,5" d="M241.92,-420C311.84,-420 423.7,-420 423.7,-420 423.7,-420 423.7,-183.8 423.7,-183.8"/>
<polygon fill="black" stroke="black" points="427.2,-183.8 423.7,-173.8 420.2,-183.8 427.2,-183.8"/>
</g>
<!-- :data:musicbrainz -->
<g id="node24" class="node">
<title>:data:musicbrainz</title>
<ellipse fill="#b59aff" stroke="black" cx="173.03" cy="-155" rx="74.52" ry="18"/>
<text text-anchor="middle" x="173.03" y="-149.57" font-family="Times New Roman,serif" font-size="14.00">:data:musicbrainz</text>
</g>
<!-- :data:database&#45;&gt;:data:musicbrainz -->
<g id="edge36" class="edge">
<title>:data:database&#45;&gt;:data:musicbrainz</title>
<path fill="none" stroke="black" stroke-dasharray="1,5" d="M154.24,-413.48C154.24,-413.48 154.24,-183.79 154.24,-183.79"/>
<polygon fill="black" stroke="black" points="157.74,-183.79 154.24,-173.79 150.74,-183.79 157.74,-183.79"/>
</g>
<!-- :data:repository&#45;&gt;:data:database -->
<g id="edge41" class="edge">
<title>:data:repository&#45;&gt;:data:database</title>
<path fill="none" stroke="black" stroke-dasharray="1,5" d="M130.27,-558.63C130.27,-558.63 130.27,-447.74 130.27,-447.74"/>
<polygon fill="black" stroke="black" points="133.77,-447.74 130.27,-437.74 126.77,-447.74 133.77,-447.74"/>
</g>
<!-- :data:repository&#45;&gt;:inverted&#45;domain -->
<g id="edge43" class="edge">
<title>:data:repository&#45;&gt;:inverted&#45;domain</title>
<path fill="none" stroke="black" stroke-dasharray="1,5" d="M115.83,-552.78C115.83,-498.05 115.83,-292 115.83,-292 115.83,-292 232.19,-292 232.19,-292"/>
<polygon fill="black" stroke="black" points="232.19,-295.5 242.19,-292 232.19,-288.5 232.19,-295.5"/>
</g>
<!-- :data:repository&#45;&gt;:data:core -->
<g id="edge40" class="edge">
<title>:data:repository&#45;&gt;:data:core</title>
<path fill="none" stroke="black" stroke-dasharray="1,5" d="M49.26,-548.5C49.26,-454.34 49.26,-12 49.26,-12 49.26,-12 510.52,-12 510.52,-12"/>
<polygon fill="black" stroke="black" points="510.52,-15.5 520.52,-12 510.52,-8.5 510.52,-15.5"/>
</g>
<!-- :data:repository&#45;&gt;:data:musicbrainz -->
<g id="edge42" class="edge">
<title>:data:repository&#45;&gt;:data:musicbrainz</title>
<path fill="none" stroke="black" stroke-dasharray="1,5" d="M107.17,-550.88C107.17,-550.88 107.17,-174.67 107.17,-174.67"/>
<polygon fill="black" stroke="black" points="110.67,-174.67 107.17,-164.67 103.67,-174.67 110.67,-174.67"/>
</g>
<!-- :domain&#45;&gt;:data:database -->
<g id="edge30" class="edge">
<title>:domain&#45;&gt;:data:database</title>
<path fill="none" stroke="black" stroke-dasharray="1,5" d="M501.82,-556.38C501.82,-526.61 501.82,-438 501.82,-438 501.82,-438 252.86,-438 252.86,-438"/>
<polygon fill="black" stroke="black" points="252.86,-434.5 242.86,-438 252.86,-441.5 252.86,-434.5"/>
</g>
<!-- :domain&#45;&gt;:data:core -->
<g id="edge27" class="edge">
<title>:domain&#45;&gt;:data:core</title>
<path fill="none" stroke="black" stroke-dasharray="1,5" d="M538.07,-547.77C538.07,-547.77 538.07,-43.84 538.07,-43.84"/>
<polygon fill="black" stroke="black" points="541.57,-43.84 538.07,-33.84 534.57,-43.84 541.57,-43.84"/>
</g>
<!-- :domain&#45;&gt;:data:common:network -->
<g id="edge28" class="edge">
<title>:domain&#45;&gt;:data:common:network</title>
<path fill="none" stroke="black" stroke-dasharray="1,5" d="M513.58,-550.88C513.58,-476.73 513.58,-155 513.58,-155 513.58,-155 505.41,-155 505.41,-155"/>
<polygon fill="black" stroke="black" points="505.41,-151.5 495.41,-155 505.41,-158.5 505.41,-151.5"/>
</g>
<!-- :data:coverart -->
<g id="node22" class="node">
<title>:data:coverart</title>
<ellipse fill="#b59aff" stroke="black" cx="611.03" cy="-155" rx="60.54" ry="18"/>
<text text-anchor="middle" x="611.03" y="-149.57" font-family="Times New Roman,serif" font-size="14.00">:data:coverart</text>
</g>
<!-- :domain&#45;&gt;:data:coverart -->
<g id="edge29" class="edge">
<title>:domain&#45;&gt;:data:coverart</title>
<path fill="none" stroke="black" stroke-dasharray="1,5" d="M563.3,-552.33C563.3,-552.33 563.3,-177.32 563.3,-177.32"/>
<polygon fill="black" stroke="black" points="566.8,-177.32 563.3,-167.32 559.8,-177.32 566.8,-177.32"/>
</g>
<!-- :domain&#45;&gt;:data:musicbrainz -->
<g id="edge31" class="edge">
<title>:domain&#45;&gt;:data:musicbrainz</title>
<path fill="none" stroke="black" stroke-dasharray="1,5" d="M507.7,-552.8C507.7,-507.33 507.7,-360 507.7,-360 507.7,-360 184,-360 184,-360 184,-360 184,-184.19 184,-184.19"/>
<polygon fill="black" stroke="black" points="187.5,-184.19 184,-174.19 180.5,-184.19 187.5,-184.19"/>
</g>
<!-- :inverted&#45;domain&#45;&gt;:data:core -->
<g id="edge32" class="edge">
<title>:inverted&#45;domain&#45;&gt;:data:core</title>
<path fill="none" stroke="black" stroke-dasharray="1,5" d="M387.88,-289C448.56,-289 525.66,-289 525.66,-289 525.66,-289 525.66,-38.33 525.66,-38.33"/>
<polygon fill="black" stroke="black" points="529.16,-38.33 525.66,-28.33 522.16,-38.33 529.16,-38.33"/>
</g>
<!-- :feature:search&#45;&gt;:data:database -->
<g id="edge46" class="edge">
<title>:feature:search&#45;&gt;:data:database</title>
<path fill="none" stroke="black" stroke-dasharray="1,5" d="M830.23,-849C667.38,-849 204.17,-849 204.17,-849 204.17,-849 204.17,-457.78 204.17,-457.78"/>
<polygon fill="black" stroke="black" points="207.67,-457.78 204.17,-447.78 200.67,-457.78 207.67,-457.78"/>
</g>
<!-- :feature:search&#45;&gt;:domain -->
<g id="edge45" class="edge">
<title>:feature:search&#45;&gt;:domain</title>
<path fill="none" stroke="black" stroke-dasharray="1,5" d="M822.24,-840C721.29,-840 536.03,-840 536.03,-840 536.03,-840 536.03,-595.4 536.03,-595.4"/>
<polygon fill="black" stroke="black" points="539.53,-595.4 536.03,-585.4 532.53,-595.4 539.53,-595.4"/>
</g>
<!-- :feature:search&#45;&gt;:strings -->
<g id="edge47" class="edge">
<title>:feature:search&#45;&gt;:strings</title>
<path fill="none" stroke="black" stroke-dasharray="1,5" d="M898.74,-822.06C898.74,-760.26 898.74,-560 898.74,-560 898.74,-560 1181.48,-560 1181.48,-560"/>
<polygon fill="black" stroke="black" points="1181.48,-563.5 1191.48,-560 1181.48,-556.5 1181.48,-563.5"/>
</g>
<!-- :feature:search&#45;&gt;:ui:common -->
<g id="edge48" class="edge">
<title>:feature:search&#45;&gt;:ui:common</title>
<path fill="none" stroke="black" stroke-dasharray="1,5" d="M924.15,-825.17C924.15,-792.06 924.15,-715 924.15,-715 924.15,-715 1295.61,-715 1295.61,-715"/>
<polygon fill="black" stroke="black" points="1295.61,-718.5 1305.61,-715 1295.61,-711.5 1295.61,-718.5"/>
</g>
<!-- :feature:search&#45;&gt;:ui:core -->
<g id="edge49" class="edge">
<title>:feature:search&#45;&gt;:ui:core</title>
<path fill="none" stroke="black" stroke-dasharray="1,5" d="M847.91,-825.54C847.91,-751.69 847.91,-420 847.91,-420 847.91,-420 1771.02,-420 1771.02,-420"/>
<polygon fill="black" stroke="black" points="1771.02,-423.5 1781.02,-420 1771.02,-416.5 1771.02,-423.5"/>
</g>
<!-- :feature:search&#45;&gt;:data -->
<g id="edge44" class="edge">
<title>:feature:search&#45;&gt;:data</title>
<path fill="none" stroke="black" stroke-dasharray="1,5" d="M830.4,-831C799.46,-831 767.12,-831 767.12,-831 767.12,-831 767.12,-313.77 767.12,-313.77"/>
<polygon fill="black" stroke="black" points="770.62,-313.77 767.12,-303.77 763.62,-313.77 770.62,-313.77"/>
</g>
<!-- :ui:test:screenshot -->
<g id="node26" class="node">
<title>:ui:test:screenshot</title>
<ellipse fill="#9affb5" stroke="black" cx="1744.03" cy="-566" rx="76.01" ry="18"/>
<text text-anchor="middle" x="1744.03" y="-560.58" font-family="Times New Roman,serif" font-size="14.00">:ui:test:screenshot</text>
</g>
<!-- :feature:search&#45;&gt;:ui:test:screenshot -->
<g id="edge50" class="edge">
<title>:feature:search&#45;&gt;:ui:test:screenshot</title>
<path fill="none" stroke="#ff9ab1" stroke-dasharray="1,5" d="M873.32,-822.21C873.32,-794.21 873.32,-743 873.32,-743 873.32,-743 1686.49,-743 1686.49,-743 1686.49,-743 1686.49,-589.17 1686.49,-589.17"/>
<polygon fill="#ff9ab1" stroke="#ff9ab1" points="1689.99,-589.17 1686.49,-579.17 1682.99,-589.17 1689.99,-589.17"/>
</g>
<!-- :ui:common&#45;&gt;:data&#45;android -->
<g id="edge68" class="edge">
<title>:ui:common&#45;&gt;:data&#45;android</title>
<path fill="none" stroke="orange" d="M1296.46,-697C1140.98,-697 687.38,-697 687.38,-697 687.38,-697 687.38,-592.28 687.38,-592.28"/>
<polygon fill="orange" stroke="orange" points="690.88,-592.28 687.38,-582.28 683.88,-592.28 690.88,-592.28"/>
</g>
<!-- :ui:common&#45;&gt;:data:database -->
<g id="edge69" class="edge">
<title>:ui:common&#45;&gt;:data:database</title>
<path fill="none" stroke="orange" d="M1296.57,-709C1076.66,-709 226.87,-709 226.87,-709 226.87,-709 226.87,-454.27 226.87,-454.27"/>
<polygon fill="orange" stroke="orange" points="230.37,-454.27 226.87,-444.27 223.37,-454.27 230.37,-454.27"/>
</g>
<!-- :ui:common&#45;&gt;:domain -->
<g id="edge70" class="edge">
<title>:ui:common&#45;&gt;:domain</title>
<path fill="none" stroke="black" stroke-dasharray="1,5" d="M1293.67,-703C1116.34,-703 566.09,-703 566.09,-703 566.09,-703 566.09,-589.16 566.09,-589.16"/>
<polygon fill="black" stroke="black" points="569.59,-589.16 566.09,-579.16 562.59,-589.16 569.59,-589.16"/>
</g>
<!-- :ui:common&#45;&gt;:strings -->
<g id="edge71" class="edge">
<title>:ui:common&#45;&gt;:strings</title>
<path fill="none" stroke="black" stroke-dasharray="1,5" d="M1306.52,-691C1280.85,-691 1252.76,-691 1252.76,-691 1252.76,-691 1252.76,-590.85 1252.76,-590.85"/>
<polygon fill="black" stroke="black" points="1256.26,-590.85 1252.76,-580.85 1249.26,-590.85 1256.26,-590.85"/>
</g>
<!-- :ui:common&#45;&gt;:ui:core -->
<g id="edge72" class="edge">
<title>:ui:common&#45;&gt;:ui:core</title>
<path fill="none" stroke="red" d="M1348.03,-684.66C1348.03,-623.45 1348.03,-430 1348.03,-430 1348.03,-430 1766.21,-430 1766.21,-430"/>
<polygon fill="red" stroke="red" points="1766.21,-433.5 1776.21,-430 1766.21,-426.5 1766.21,-433.5"/>
</g>
<!-- :ui:common&#45;&gt;:ui:image -->
<g id="edge73" class="edge">
<title>:ui:common&#45;&gt;:ui:image</title>
<path fill="none" stroke="red" d="M1402.46,-703C1565.37,-703 2037.96,-703 2037.96,-703 2037.96,-703 2037.96,-588.68 2037.96,-588.68"/>
<polygon fill="red" stroke="red" points="2041.47,-588.68 2037.96,-578.68 2034.47,-588.68 2041.47,-588.68"/>
</g>
<!-- :ui:common&#45;&gt;:ui:test:screenshot -->
<g id="edge75" class="edge">
<title>:ui:common&#45;&gt;:ui:test:screenshot</title>
<path fill="none" stroke="#ff9ab1" d="M1399.35,-697C1491.2,-697 1674.17,-697 1674.17,-697 1674.17,-697 1674.17,-584.42 1674.17,-584.42"/>
<polygon fill="#ff9ab1" stroke="#ff9ab1" points="1677.67,-584.42 1674.17,-574.42 1670.67,-584.42 1677.67,-584.42"/>
</g>
<!-- :ui:test:image -->
<g id="node27" class="node">
<title>:ui:test:image</title>
<ellipse fill="#9affb5" stroke="black" cx="1592.03" cy="-566" rx="57.55" ry="18"/>
<text text-anchor="middle" x="1592.03" y="-560.58" font-family="Times New Roman,serif" font-size="14.00">:ui:test:image</text>
</g>
<!-- :ui:common&#45;&gt;:ui:test:image -->
<g id="edge74" class="edge">
<title>:ui:common&#45;&gt;:ui:test:image</title>
<path fill="none" stroke="#ff9ab1" d="M1389.32,-691C1450.89,-691 1559.59,-691 1559.59,-691 1559.59,-691 1559.59,-592.33 1559.59,-592.33"/>
<polygon fill="#ff9ab1" stroke="#ff9ab1" points="1563.09,-592.33 1559.59,-582.33 1556.09,-592.33 1563.09,-592.33"/>
</g>
<!-- :ui:collections&#45;&gt;:data&#45;android -->
<g id="edge83" class="edge">
<title>:ui:collections&#45;&gt;:data&#45;android</title>
<path fill="none" stroke="orange" d="M661.18,-961.88C661.18,-961.88 661.18,-594.97 661.18,-594.97"/>
<polygon fill="orange" stroke="orange" points="664.68,-594.97 661.18,-584.97 657.68,-594.97 664.68,-594.97"/>
</g>
<!-- :ui:collections&#45;&gt;:data:database -->
<g id="edge82" class="edge">
<title>:ui:collections&#45;&gt;:data:database</title>
<path fill="none" stroke="orange" d="M642.42,-986C510.63,-986 181.46,-986 181.46,-986 181.46,-986 181.46,-458.22 181.46,-458.22"/>
<polygon fill="orange" stroke="orange" points="184.96,-458.22 181.46,-448.22 177.96,-458.22 184.96,-458.22"/>
</g>
<!-- :ui:collections&#45;&gt;:domain -->
<g id="edge84" class="edge">
<title>:ui:collections&#45;&gt;:domain</title>
<path fill="none" stroke="black" stroke-dasharray="1,5" d="M642.5,-968C589.43,-968 515.99,-968 515.99,-968 515.99,-968 515.99,-592.76 515.99,-592.76"/>
<polygon fill="black" stroke="black" points="519.49,-592.76 515.99,-582.76 512.49,-592.76 519.49,-592.76"/>
</g>
<!-- :ui:collections&#45;&gt;:inverted&#45;domain -->
<g id="edge85" class="edge">
<title>:ui:collections&#45;&gt;:inverted&#45;domain</title>
<path fill="none" stroke="black" stroke-dasharray="1,5" d="M634.53,-977C524.45,-977 305.16,-977 305.16,-977 305.16,-977 305.16,-320.97 305.16,-320.97"/>
<polygon fill="black" stroke="black" points="308.66,-320.97 305.16,-310.97 301.66,-320.97 308.66,-320.97"/>
</g>
<!-- :ui:collections&#45;&gt;:strings -->
<g id="edge86" class="edge">
<title>:ui:collections&#45;&gt;:strings</title>
<path fill="none" stroke="black" stroke-dasharray="1,5" d="M743.36,-965.25C743.36,-896.93 743.36,-554 743.36,-554 743.36,-554 1188.52,-554 1188.52,-554"/>
<polygon fill="black" stroke="black" points="1188.52,-557.5 1198.52,-554 1188.52,-550.5 1188.52,-557.5"/>
</g>
<!-- :ui:collections&#45;&gt;:ui:common -->
<g id="edge87" class="edge">
<title>:ui:collections&#45;&gt;:ui:common</title>
<path fill="none" stroke="red" d="M751.34,-969C902.83,-969 1313.21,-969 1313.21,-969 1313.21,-969 1313.21,-727.93 1313.21,-727.93"/>
<polygon fill="red" stroke="red" points="1316.71,-727.93 1313.21,-717.93 1309.71,-727.93 1316.71,-727.93"/>
</g>
<!-- :ui:collections&#45;&gt;:ui:core -->
<g id="edge88" class="edge">
<title>:ui:collections&#45;&gt;:ui:core</title>
<path fill="none" stroke="red" d="M736.5,-963.16C736.5,-876.92 736.5,-417 736.5,-417 736.5,-417 1775.18,-417 1775.18,-417"/>
<polygon fill="red" stroke="red" points="1775.18,-420.5 1785.18,-417 1775.18,-413.5 1775.18,-420.5"/>
</g>
<!-- :ui:collections&#45;&gt;:ui:settings -->
<g id="edge89" class="edge">
<title>:ui:collections&#45;&gt;:ui:settings</title>
<path fill="none" stroke="red" d="M739.75,-964C834.37,-964 1049.67,-964 1049.67,-964 1049.67,-964 1049.67,-868.24 1049.67,-868.24"/>
<polygon fill="red" stroke="red" points="1053.17,-868.24 1049.67,-858.24 1046.17,-868.24 1053.17,-868.24"/>
</g>
<!-- :ui:collections&#45;&gt;:data -->
<g id="edge81" class="edge">
<title>:ui:collections&#45;&gt;:data</title>
<path fill="none" stroke="orange" d="M729.64,-961.73C729.64,-961.73 729.64,-318.9 729.64,-318.9"/>
<polygon fill="orange" stroke="orange" points="733.14,-318.9 729.64,-308.9 726.14,-318.9 733.14,-318.9"/>
</g>
<!-- :ui:collections&#45;&gt;:ui:test:screenshot -->
<g id="edge90" class="edge">
<title>:ui:collections&#45;&gt;:ui:test:screenshot</title>
<path fill="none" stroke="#ff9ab1" d="M750.21,-968.28C750.21,-924.64 750.21,-732 750.21,-732 750.21,-732 1680.33,-732 1680.33,-732 1680.33,-732 1680.33,-586.89 1680.33,-586.89"/>
<polygon fill="#ff9ab1" stroke="#ff9ab1" points="1683.83,-586.89 1680.33,-576.89 1676.83,-586.89 1683.83,-586.89"/>
</g>
<!-- :ui:history&#45;&gt;:domain -->
<g id="edge97" class="edge">
<title>:ui:history&#45;&gt;:domain</title>
<path fill="none" stroke="black" stroke-dasharray="1,5" d="M1349.67,-962.8C1349.67,-938.37 1349.67,-891 1349.67,-891 1349.67,-891 526.01,-891 526.01,-891 526.01,-891 526.01,-594.47 526.01,-594.47"/>
<polygon fill="black" stroke="black" points="529.51,-594.47 526.01,-584.47 522.51,-594.47 529.51,-594.47"/>
</g>
<!-- :ui:history&#45;&gt;:inverted&#45;domain -->
<g id="edge98" class="edge">
<title>:ui:history&#45;&gt;:inverted&#45;domain</title>
<path fill="none" stroke="black" stroke-dasharray="1,5" d="M1341.06,-966.23C1341.06,-950.99 1341.06,-925 1341.06,-925 1341.06,-925 332.96,-925 332.96,-925 332.96,-925 332.96,-320.92 332.96,-320.92"/>
<polygon fill="black" stroke="black" points="336.46,-320.92 332.96,-310.92 329.46,-320.92 336.46,-320.92"/>
</g>
<!-- :ui:history&#45;&gt;:strings -->
<g id="edge99" class="edge">
<title>:ui:history&#45;&gt;:strings</title>
<path fill="none" stroke="black" stroke-dasharray="1,5" d="M1332.65,-974C1284.36,-974 1215.67,-974 1215.67,-974 1215.67,-974 1215.67,-594.27 1215.67,-594.27"/>
<polygon fill="black" stroke="black" points="1219.17,-594.27 1215.67,-584.27 1212.17,-594.27 1219.17,-594.27"/>
</g>
<!-- :ui:history&#45;&gt;:ui:common -->
<g id="edge100" class="edge">
<title>:ui:history&#45;&gt;:ui:common</title>
<path fill="none" stroke="red" d="M1366.88,-959.44C1366.88,-959.44 1366.88,-731.06 1366.88,-731.06"/>
<polygon fill="red" stroke="red" points="1370.38,-731.06 1366.88,-721.06 1363.38,-731.06 1370.38,-731.06"/>
</g>
<!-- :ui:history&#45;&gt;:ui:core -->
<g id="edge101" class="edge">
<title>:ui:history&#45;&gt;:ui:core</title>
<path fill="none" stroke="red" d="M1416.76,-966C1456.45,-966 1513.21,-966 1513.21,-966 1513.21,-966 1513.21,-437 1513.21,-437 1513.21,-437 1769.7,-437 1769.7,-437"/>
<polygon fill="red" stroke="red" points="1769.7,-440.5 1779.7,-437 1769.7,-433.5 1769.7,-440.5"/>
</g>
<!-- :ui:history&#45;&gt;:ui:image -->
<g id="edge102" class="edge">
<title>:ui:history&#45;&gt;:ui:image</title>
<path fill="none" stroke="red" d="M1418.41,-987C1563.11,-987 2057,-987 2057,-987 2057,-987 2057,-594.29 2057,-594.29"/>
<polygon fill="red" stroke="red" points="2060.5,-594.29 2057,-584.29 2053.5,-594.29 2060.5,-594.29"/>
</g>
<!-- :ui:history&#45;&gt;:ui:settings -->
<g id="edge103" class="edge">
<title>:ui:history&#45;&gt;:ui:settings</title>
<path fill="none" stroke="red" d="M1358.28,-960.41C1358.28,-925.16 1358.28,-846 1358.28,-846 1358.28,-846 1123.66,-846 1123.66,-846"/>
<polygon fill="red" stroke="red" points="1123.66,-842.5 1113.66,-846 1123.66,-849.5 1123.66,-842.5"/>
</g>
<!-- :ui:history&#45;&gt;:data -->
<g id="edge96" class="edge">
<title>:ui:history&#45;&gt;:data</title>
<path fill="none" stroke="orange" d="M1332.41,-979C1188.68,-979 762.1,-979 762.1,-979 762.1,-979 762.1,-317.03 762.1,-317.03"/>
<polygon fill="orange" stroke="orange" points="765.6,-317.03 762.1,-307.03 758.6,-317.03 765.6,-317.03"/>
</g>
<!-- :ui:history&#45;&gt;:ui:test:screenshot -->
<g id="edge105" class="edge">
<title>:ui:history&#45;&gt;:ui:test:screenshot</title>
<path fill="none" stroke="#ff9ab1" d="M1425.38,-980C1518.64,-980 1720.11,-980 1720.11,-980 1720.11,-980 1720.11,-594.52 1720.11,-594.52"/>
<polygon fill="#ff9ab1" stroke="#ff9ab1" points="1723.61,-594.52 1720.11,-584.52 1716.61,-594.52 1723.61,-594.52"/>
</g>
<!-- :ui:history&#45;&gt;:ui:test:image -->
<g id="edge104" class="edge">
<title>:ui:history&#45;&gt;:ui:test:image</title>
<path fill="none" stroke="#ff9ab1" d="M1424.9,-973C1492.21,-973 1609.82,-973 1609.82,-973 1609.82,-973 1609.82,-594.49 1609.82,-594.49"/>
<polygon fill="#ff9ab1" stroke="#ff9ab1" points="1613.32,-594.49 1609.82,-584.49 1606.32,-594.49 1613.32,-594.49"/>
</g>
<!-- :ui:image&#45;&gt;:ui:core -->
<g id="edge52" class="edge">
<title>:ui:image&#45;&gt;:ui:core</title>
<path fill="none" stroke="red" d="M2028.18,-566C1961.82,-566 1841.76,-566 1841.76,-566 1841.76,-566 1841.76,-453.14 1841.76,-453.14"/>
<polygon fill="red" stroke="red" points="1845.26,-453.14 1841.76,-443.14 1838.26,-453.14 1845.26,-453.14"/>
</g>
<!-- :ui:image&#45;&gt;:data:core -->
<g id="edge51" class="edge">
<title>:ui:image&#45;&gt;:data:core</title>
<path fill="none" stroke="orange" d="M2071.03,-547.78C2071.03,-451.79 2071.03,-9 2071.03,-9 2071.03,-9 618.07,-9 618.07,-9"/>
<polygon fill="orange" stroke="orange" points="618.07,-5.5 608.07,-9 618.07,-12.5 618.07,-5.5"/>
</g>
<!-- :ui:nowplaying&#45;&gt;:domain -->
<g id="edge61" class="edge">
<title>:ui:nowplaying&#45;&gt;:domain</title>
<path fill="none" stroke="black" stroke-dasharray="1,5" d="M1384.36,-830.46C1384.36,-815.45 1384.36,-788 1384.36,-788 1384.36,-788 556.07,-788 556.07,-788 556.07,-788 556.07,-592.97 556.07,-592.97"/>
<polygon fill="black" stroke="black" points="559.57,-592.97 556.07,-582.97 552.57,-592.97 559.57,-592.97"/>
</g>
<!-- :ui:nowplaying&#45;&gt;:strings -->
<g id="edge62" class="edge">
<title>:ui:nowplaying&#45;&gt;:strings</title>
<path fill="none" stroke="black" stroke-dasharray="1,5" d="M1375.15,-840C1313.05,-840 1228.03,-840 1228.03,-840 1228.03,-840 1228.03,-595.4 1228.03,-595.4"/>
<polygon fill="black" stroke="black" points="1231.53,-595.4 1228.03,-585.4 1224.53,-595.4 1231.53,-595.4"/>
</g>
<!-- :ui:nowplaying&#45;&gt;:ui:common -->
<g id="edge63" class="edge">
<title>:ui:nowplaying&#45;&gt;:ui:common</title>
<path fill="none" stroke="red" d="M1393.22,-827.11C1393.22,-827.11 1393.22,-724.28 1393.22,-724.28"/>
<polygon fill="red" stroke="red" points="1396.72,-724.28 1393.22,-714.28 1389.72,-724.28 1396.72,-724.28"/>
</g>
<!-- :ui:nowplaying&#45;&gt;:ui:core -->
<g id="edge64" class="edge">
<title>:ui:nowplaying&#45;&gt;:ui:core</title>
<path fill="none" stroke="red" d="M1482.47,-826.46C1482.47,-755.84 1482.47,-433 1482.47,-433 1482.47,-433 1766.85,-433 1766.85,-433"/>
<polygon fill="red" stroke="red" points="1766.85,-436.5 1776.85,-433 1766.85,-429.5 1766.85,-436.5"/>
</g>
<!-- :ui:nowplaying&#45;&gt;:ui:image -->
<g id="edge65" class="edge">
<title>:ui:nowplaying&#45;&gt;:ui:image</title>
<path fill="none" stroke="red" d="M1462.38,-822.9C1462.38,-816.16 1462.38,-810 1462.38,-810 1462.38,-810 2047.48,-810 2047.48,-810 2047.48,-810 2047.48,-592.26 2047.48,-592.26"/>
<polygon fill="red" stroke="red" points="2050.98,-592.26 2047.48,-582.26 2043.98,-592.26 2050.98,-592.26"/>
</g>
<!-- :ui:nowplaying&#45;&gt;:data -->
<g id="edge60" class="edge">
<title>:ui:nowplaying&#45;&gt;:data</title>
<path fill="none" stroke="orange" d="M1422.18,-822.27C1422.18,-728.86 1422.18,-298 1422.18,-298 1422.18,-298 782.03,-298 782.03,-298"/>
<polygon fill="orange" stroke="orange" points="782.03,-294.5 772.03,-298 782.03,-301.5 782.03,-294.5"/>
</g>
<!-- :ui:nowplaying&#45;&gt;:ui:test:screenshot -->
<g id="edge67" class="edge">
<title>:ui:nowplaying&#45;&gt;:ui:test:screenshot</title>
<path fill="none" stroke="#ff9ab1" d="M1442.28,-821.84C1442.28,-799.65 1442.28,-765 1442.28,-765 1442.28,-765 1698.8,-765 1698.8,-765 1698.8,-765 1698.8,-591.63 1698.8,-591.63"/>
<polygon fill="#ff9ab1" stroke="#ff9ab1" points="1702.3,-591.63 1698.8,-581.63 1695.3,-591.63 1702.3,-591.63"/>
</g>
<!-- :ui:nowplaying&#45;&gt;:ui:test:image -->
<g id="edge66" class="edge">
<title>:ui:nowplaying&#45;&gt;:ui:test:image</title>
<path fill="none" stroke="#ff9ab1" d="M1499.55,-834C1539.57,-834 1584.71,-834 1584.71,-834 1584.71,-834 1584.71,-595 1584.71,-595"/>
<polygon fill="#ff9ab1" stroke="#ff9ab1" points="1588.21,-595 1584.71,-585 1581.21,-595 1588.21,-595"/>
</g>
<!-- :ui:settings&#45;&gt;:data&#45;android -->
<g id="edge53" class="edge">
<title>:ui:settings&#45;&gt;:data&#45;android</title>
<path fill="none" stroke="orange" d="M1049.67,-822.86C1049.67,-762.87 1049.67,-566 1049.67,-566 1049.67,-566 724.69,-566 724.69,-566"/>
<polygon fill="orange" stroke="orange" points="724.69,-562.5 714.69,-566 724.69,-569.5 724.69,-562.5"/>
</g>
<!-- :ui:settings&#45;&gt;:domain -->
<g id="edge54" class="edge">
<title>:ui:settings&#45;&gt;:domain</title>
<path fill="none" stroke="black" stroke-dasharray="1,5" d="M1033.32,-826.12C1033.32,-814.22 1033.32,-799 1033.32,-799 1033.32,-799 546.05,-799 546.05,-799 546.05,-799 546.05,-594.9 546.05,-594.9"/>
<polygon fill="black" stroke="black" points="549.55,-594.9 546.05,-584.9 542.55,-594.9 549.55,-594.9"/>
</g>
<!-- :ui:settings&#45;&gt;:inverted&#45;domain -->
<g id="edge55" class="edge">
<title>:ui:settings&#45;&gt;:inverted&#45;domain</title>
<path fill="none" stroke="black" stroke-dasharray="1,5" d="M1066.03,-821.56C1066.03,-750.31 1066.03,-497 1066.03,-497 1066.03,-497 360.75,-497 360.75,-497 360.75,-497 360.75,-317.42 360.75,-317.42"/>
<polygon fill="black" stroke="black" points="364.25,-317.42 360.75,-307.42 357.25,-317.42 364.25,-317.42"/>
</g>
<!-- :ui:settings&#45;&gt;:strings -->
<g id="edge56" class="edge">
<title>:ui:settings&#45;&gt;:strings</title>
<path fill="none" stroke="black" stroke-dasharray="1,5" d="M1103.54,-828C1144.18,-828 1203.3,-828 1203.3,-828 1203.3,-828 1203.3,-590.72 1203.3,-590.72"/>
<polygon fill="black" stroke="black" points="1206.8,-590.72 1203.3,-580.72 1199.8,-590.72 1206.8,-590.72"/>
</g>
<!-- :ui:settings&#45;&gt;:ui:common -->
<g id="edge57" class="edge">
<title>:ui:settings&#45;&gt;:ui:common</title>
<path fill="none" stroke="red" d="M1112.68,-834C1181.87,-834 1303.59,-834 1303.59,-834 1303.59,-834 1303.59,-724.72 1303.59,-724.72"/>
<polygon fill="red" stroke="red" points="1307.09,-724.72 1303.59,-714.72 1300.09,-724.72 1307.09,-724.72"/>
</g>
<!-- :ui:settings&#45;&gt;:ui:core -->
<g id="edge58" class="edge">
<title>:ui:settings&#45;&gt;:ui:core</title>
<path fill="none" stroke="red" d="M1082.39,-822.65C1082.39,-743.92 1082.39,-424 1082.39,-424 1082.39,-424 1767.45,-424 1767.45,-424"/>
<polygon fill="red" stroke="red" points="1767.45,-427.5 1777.45,-424 1767.45,-420.5 1767.45,-427.5"/>
</g>
<!-- :ui:settings&#45;&gt;:ui:test:screenshot -->
<g id="edge59" class="edge">
<title>:ui:settings&#45;&gt;:ui:test:screenshot</title>
<path fill="none" stroke="#ff9ab1" d="M1098.74,-826.18C1098.74,-801.87 1098.74,-754 1098.74,-754 1098.74,-754 1692.65,-754 1692.65,-754 1692.65,-754 1692.65,-590.52 1692.65,-590.52"/>
<polygon fill="#ff9ab1" stroke="#ff9ab1" points="1696.15,-590.52 1692.65,-580.52 1689.15,-590.52 1696.15,-590.52"/>
</g>
<!-- :ui:spotify&#45;broadcast&#45;receiver&#45;&gt;:strings -->
<g id="edge79" class="edge">
<title>:ui:spotify&#45;broadcast&#45;receiver&#45;&gt;:strings</title>
<path fill="none" stroke="black" stroke-dasharray="1,5" d="M1751.84,-829.31C1751.84,-811.34 1751.84,-777 1751.84,-777 1751.84,-777 1240.39,-777 1240.39,-777 1240.39,-777 1240.39,-594.27 1240.39,-594.27"/>
<polygon fill="black" stroke="black" points="1243.89,-594.27 1240.39,-584.27 1236.89,-594.27 1243.89,-594.27"/>
</g>
<!-- :ui:spotify&#45;broadcast&#45;receiver&#45;&gt;:ui:common -->
<g id="edge78" class="edge">
<title>:ui:spotify&#45;broadcast&#45;receiver&#45;&gt;:ui:common</title>
<path fill="none" stroke="red" d="M1774.57,-825.48C1774.57,-791.37 1774.57,-709 1774.57,-709 1774.57,-709 1410.48,-709 1410.48,-709"/>
<polygon fill="red" stroke="red" points="1410.48,-705.5 1400.48,-709 1410.48,-712.5 1410.48,-705.5"/>
</g>
<!-- :ui:spotify&#45;broadcast&#45;receiver&#45;&gt;:ui:core -->
<g id="edge77" class="edge">
<title>:ui:spotify&#45;broadcast&#45;receiver&#45;&gt;:ui:core</title>
<path fill="none" stroke="red" d="M1830.9,-821.81C1830.9,-821.81 1830.9,-456.61 1830.9,-456.61"/>
<polygon fill="red" stroke="red" points="1834.4,-456.61 1830.9,-446.61 1827.4,-456.61 1834.4,-456.61"/>
</g>
<!-- :ui:spotify&#45;broadcast&#45;receiver&#45;&gt;:data:core -->
<g id="edge76" class="edge">
<title>:ui:spotify&#45;broadcast&#45;receiver&#45;&gt;:data:core</title>
<path fill="none" stroke="orange" d="M1909.79,-824.31C1909.79,-710.67 1909.79,-18 1909.79,-18 1909.79,-18 624.07,-18 624.07,-18"/>
<polygon fill="orange" stroke="orange" points="624.07,-14.5 614.07,-18 624.07,-21.5 624.07,-14.5"/>
</g>
<!-- :ui:spotify&#45;broadcast&#45;receiver&#45;&gt;:ui:test:screenshot -->
<g id="edge80" class="edge">
<title>:ui:spotify&#45;broadcast&#45;receiver&#45;&gt;:ui:test:screenshot</title>
<path fill="none" stroke="#ff9ab1" d="M1797.31,-823.27C1797.31,-823.27 1797.31,-590.2 1797.31,-590.2"/>
<polygon fill="#ff9ab1" stroke="#ff9ab1" points="1800.81,-590.2 1797.31,-580.2 1793.81,-590.2 1800.81,-590.2"/>
</g>
<!-- :ui:stats&#45;&gt;:strings -->
<g id="edge94" class="edge">
<title>:ui:stats&#45;&gt;:strings</title>
<path fill="none" stroke="black" stroke-dasharray="1,5" d="M1636.53,-846C1592.37,-846 1523.84,-846 1523.84,-846 1523.84,-846 1523.84,-566 1523.84,-566 1523.84,-566 1276.49,-566 1276.49,-566"/>
<polygon fill="black" stroke="black" points="1276.49,-562.5 1266.49,-566 1276.49,-569.5 1276.49,-562.5"/>
</g>
<!-- :ui:stats&#45;&gt;:ui:common -->
<g id="edge92" class="edge">
<title>:ui:stats&#45;&gt;:ui:common</title>
<path fill="none" stroke="red" d="M1642.26,-828.91C1642.26,-798.31 1642.26,-715 1642.26,-715 1642.26,-715 1400.25,-715 1400.25,-715"/>
<polygon fill="red" stroke="red" points="1400.25,-711.5 1390.25,-715 1400.25,-718.5 1400.25,-711.5"/>
</g>
<!-- :ui:stats&#45;&gt;:ui:core -->
<g id="edge93" class="edge">
<title>:ui:stats&#45;&gt;:ui:core</title>
<path fill="none" stroke="red" d="M1661.87,-822.3C1661.87,-744.88 1661.87,-440 1661.87,-440 1661.87,-440 1773.4,-440 1773.4,-440"/>
<polygon fill="red" stroke="red" points="1773.4,-443.5 1783.4,-440 1773.4,-436.5 1773.4,-443.5"/>
</g>
<!-- :ui:stats&#45;&gt;:data -->
<g id="edge91" class="edge">
<title>:ui:stats&#45;&gt;:data</title>
<path fill="none" stroke="orange" d="M1655.73,-823.72C1655.73,-732.21 1655.73,-286 1655.73,-286 1655.73,-286 781.82,-286 781.82,-286"/>
<polygon fill="orange" stroke="orange" points="781.82,-282.5 771.82,-286 781.82,-289.5 781.82,-282.5"/>
</g>
<!-- :ui:stats&#45;&gt;:ui:test:screenshot -->
<g id="edge95" class="edge">
<title>:ui:stats&#45;&gt;:ui:test:screenshot</title>
<path fill="none" stroke="#ff9ab1" d="M1704.96,-829.92C1704.96,-829.92 1704.96,-592.64 1704.96,-592.64"/>
<polygon fill="#ff9ab1" stroke="#ff9ab1" points="1708.46,-592.64 1704.96,-582.64 1701.46,-592.64 1708.46,-592.64"/>
</g>
<!-- :data&#45;&gt;:data:core -->
<g id="edge20" class="edge">
<title>:data&#45;&gt;:data:core</title>
<path fill="none" stroke="black" d="M718.32,-284C664.38,-284 544.28,-284 544.28,-284 544.28,-284 544.28,-45.24 544.28,-45.24"/>
<polygon fill="black" stroke="black" points="547.78,-45.24 544.28,-35.24 540.78,-45.24 547.78,-45.24"/>
</g>
<!-- :data&#45;&gt;:data:common:network -->
<g id="edge21" class="edge">
<title>:data&#45;&gt;:data:common:network</title>
<path fill="none" stroke="black" d="M715.64,-294C643.51,-294 458.85,-294 458.85,-294 458.85,-294 458.85,-180.35 458.85,-180.35"/>
<polygon fill="black" stroke="black" points="462.35,-180.35 458.85,-170.35 455.35,-180.35 462.35,-180.35"/>
</g>
<!-- :data&#45;&gt;:data:coverart -->
<g id="edge22" class="edge">
<title>:data&#45;&gt;:data:coverart</title>
<path fill="none" stroke="black" d="M723.73,-279C694.41,-279 643.7,-279 643.7,-279 643.7,-279 643.7,-181.45 643.7,-181.45"/>
<polygon fill="black" stroke="black" points="647.2,-181.45 643.7,-171.45 640.2,-181.45 647.2,-181.45"/>
</g>
<!-- :data:spotify -->
<g id="node23" class="node">
<title>:data:spotify</title>
<ellipse fill="#b59aff" stroke="black" cx="746.03" cy="-155" rx="56.05" ry="18"/>
<text text-anchor="middle" x="746.03" y="-149.57" font-family="Times New Roman,serif" font-size="14.00">:data:spotify</text>
</g>
<!-- :data&#45;&gt;:data:spotify -->
<g id="edge23" class="edge">
<title>:data&#45;&gt;:data:spotify</title>
<path fill="none" stroke="black" d="M753.4,-274.65C753.4,-274.65 753.4,-184.08 753.4,-184.08"/>
<polygon fill="black" stroke="black" points="756.9,-184.08 753.4,-174.08 749.9,-184.08 756.9,-184.08"/>
</g>
<!-- :data&#45;&gt;:data:musicbrainz -->
<g id="edge24" class="edge">
<title>:data&#45;&gt;:data:musicbrainz</title>
<path fill="none" stroke="black" d="M734.66,-274.59C734.66,-254.15 734.66,-223 734.66,-223 734.66,-223 213.75,-223 213.75,-223 213.75,-223 213.75,-181.43 213.75,-181.43"/>
<polygon fill="black" stroke="black" points="217.25,-181.43 213.75,-171.43 210.25,-181.43 217.25,-181.43"/>
</g>
<!-- :data:coverart&#45;&gt;:data:core -->
<g id="edge37" class="edge">
<title>:data:coverart&#45;&gt;:data:core</title>
<path fill="none" stroke="black" stroke-dasharray="1,5" d="M581.54,-139.02C581.54,-139.02 581.54,-46.17 581.54,-46.17"/>
<polygon fill="black" stroke="black" points="585.04,-46.17 581.54,-36.17 578.04,-46.17 585.04,-46.17"/>
</g>
<!-- :data:spotify&#45;&gt;:data:core -->
<g id="edge38" class="edge">
<title>:data:spotify&#45;&gt;:data:core</title>
<path fill="none" stroke="black" stroke-dasharray="1,5" d="M746.03,-136.66C746.03,-101.27 746.03,-27 746.03,-27 746.03,-27 617.87,-27 617.87,-27"/>
<polygon fill="black" stroke="black" points="617.87,-23.5 607.87,-27 617.87,-30.5 617.87,-23.5"/>
</g>
<!-- :data:musicbrainz&#45;&gt;:data:core -->
<g id="edge39" class="edge">
<title>:data:musicbrainz&#45;&gt;:data:core</title>
<path fill="none" stroke="black" stroke-dasharray="1,5" d="M173.03,-136.51C173.03,-100.4 173.03,-24 173.03,-24 173.03,-24 510.71,-24 510.71,-24"/>
<polygon fill="black" stroke="black" points="510.71,-27.5 520.71,-24 510.71,-20.5 510.71,-27.5"/>
</g>
<!-- :desktop:app -->
<g id="node25" class="node">
<title>:desktop:app</title>
<polygon fill="#ffb59a" stroke="black" points="2436.03,-1132 2076.03,-1132 2076.03,-1096 2436.03,-1096 2436.03,-1132"/>
<text text-anchor="middle" x="2256.03" y="-1108.58" font-family="Times New Roman,serif" font-size="14.00">:desktop:app</text>
</g>
<!-- :desktop:app&#45;&gt;:ui:core -->
<g id="edge33" class="edge">
<title>:desktop:app&#45;&gt;:ui:core</title>
<path fill="none" stroke="black" stroke-dasharray="1,5" d="M2274.82,-1095.68C2274.82,-986.74 2274.82,-429 2274.82,-429 2274.82,-429 1864.05,-429 1864.05,-429"/>
<polygon fill="black" stroke="black" points="1864.05,-425.5 1854.05,-429 1864.05,-432.5 1864.05,-425.5"/>
</g>
<!-- :ui:test:screenshot&#45;&gt;:ui:core -->
<g id="edge106" class="edge">
<title>:ui:test:screenshot&#45;&gt;:ui:core</title>
<path fill="none" stroke="red" d="M1798.74,-553.11C1798.74,-553.11 1798.74,-456.32 1798.74,-456.32"/>
<polygon fill="red" stroke="red" points="1802.24,-456.32 1798.74,-446.32 1795.24,-456.32 1802.24,-456.32"/>
</g>
</g>
</svg>
