<?xml version="1.0" encoding="UTF-8" standalone="no"?>
<!DOCTYPE svg PUBLIC "-//W3C//DTD SVG 1.1//EN"
 "http://www.w3.org/Graphics/SVG/1.1/DTD/svg11.dtd">
<!-- Generated by graphviz version 2.43.0 (0)
 -->
<!-- Title: modules Pages: 1 -->
<svg width="1447pt" height="769pt"
 viewBox="0.00 0.00 1446.85 769.00" xmlns="http://www.w3.org/2000/svg" xmlns:xlink="http://www.w3.org/1999/xlink">
<g id="graph0" class="graph" transform="scale(1 1) rotate(0) translate(4 765)">
<title>modules</title>
<polygon fill="white" stroke="transparent" points="-4,4 -4,-765 1442.85,-765 1442.85,4 -4,4"/>
<text text-anchor="middle" x="719.42" y="-7.8" font-family="Times,serif" font-size="14.00">Module dependencies</text>
<g id="clust1" class="cluster">
<title>cluster_01</title>
<polygon fill="none" stroke="black" points="1213.85,-599 1213.85,-753 1430.85,-753 1430.85,-599 1213.85,-599"/>
<text text-anchor="middle" x="1322.35" y="-741" font-family="Times,serif" font-size="10.00">Legend</text>
</g>
<!-- app -->
<g id="node1" class="node">
<title>app</title>
<ellipse fill="none" stroke="black" cx="697.85" cy="-708" rx="27.9" ry="18"/>
<text text-anchor="middle" x="697.85" y="-704.3" font-family="Times,serif" font-size="14.00">app</text>
</g>
<!-- data&#45;android -->
<g id="node2" class="node">
<title>data&#45;android</title>
<ellipse fill="none" stroke="black" cx="98.85" cy="-406" rx="69.59" ry="18"/>
<text text-anchor="middle" x="98.85" y="-402.3" font-family="Times,serif" font-size="14.00">data&#45;android</text>
</g>
<!-- app&#45;&gt;data&#45;android -->
<g id="edge1" class="edge">
<title>app&#45;&gt;data&#45;android</title>
<path fill="none" stroke="black" d="M669.95,-706.55C544.52,-704.18 38.85,-690.62 38.85,-626 38.85,-626 38.85,-626 38.85,-478 38.85,-458.66 51.99,-441.88 65.97,-429.49"/>
<polygon fill="black" stroke="black" points="68.27,-432.13 73.75,-423.07 63.81,-426.73 68.27,-432.13"/>
</g>
<!-- ui:common -->
<g id="node3" class="node">
<title>ui:common</title>
<ellipse fill="none" stroke="black" cx="666.85" cy="-479" rx="61.99" ry="18"/>
<text text-anchor="middle" x="666.85" y="-475.3" font-family="Times,serif" font-size="14.00">ui:common</text>
</g>
<!-- app&#45;&gt;ui:common -->
<g id="edge2" class="edge">
<title>app&#45;&gt;ui:common</title>
<path fill="none" stroke="black" d="M695.59,-690.04C691.13,-656.57 680.84,-579.63 671.85,-515 671.49,-512.45 671.12,-509.79 670.74,-507.13"/>
<polygon fill="black" stroke="black" points="674.19,-506.49 669.31,-497.09 667.26,-507.48 674.19,-506.49"/>
</g>
<!-- ui:core -->
<g id="node4" class="node">
<title>ui:core</title>
<ellipse fill="none" stroke="black" cx="822.85" cy="-333" rx="42.49" ry="18"/>
<text text-anchor="middle" x="822.85" y="-329.3" font-family="Times,serif" font-size="14.00">ui:core</text>
</g>
<!-- app&#45;&gt;ui:core -->
<g id="edge3" class="edge">
<title>app&#45;&gt;ui:core</title>
<path fill="none" stroke="black" d="M723.43,-700.39C753,-691.61 801.59,-673.55 832.85,-643 871.79,-604.93 930.29,-476.99 942.85,-424 946.54,-408.43 948.77,-402.86 942.85,-388 938.54,-377.19 934.63,-375.29 924.85,-369 908.11,-358.23 887.68,-350.37 869.51,-344.86"/>
<polygon fill="black" stroke="black" points="870.27,-341.44 859.69,-342.04 868.34,-348.17 870.27,-341.44"/>
</g>
<!-- ui:collections -->
<g id="node5" class="node">
<title>ui:collections</title>
<ellipse fill="none" stroke="black" cx="328.85" cy="-625" rx="71.49" ry="18"/>
<text text-anchor="middle" x="328.85" y="-621.3" font-family="Times,serif" font-size="14.00">ui:collections</text>
</g>
<!-- app&#45;&gt;ui:collections -->
<g id="edge4" class="edge">
<title>app&#45;&gt;ui:collections</title>
<path fill="none" stroke="black" d="M669.68,-706.55C618.87,-705.07 508.98,-698.75 420.85,-672 401.09,-666.01 380.42,-656.05 363.69,-646.92"/>
<polygon fill="black" stroke="black" points="365.26,-643.79 354.83,-641.97 361.85,-649.91 365.26,-643.79"/>
</g>
<!-- ui:history -->
<g id="node6" class="node">
<title>ui:history</title>
<ellipse fill="none" stroke="black" cx="768.85" cy="-625" rx="55.49" ry="18"/>
<text text-anchor="middle" x="768.85" y="-621.3" font-family="Times,serif" font-size="14.00">ui:history</text>
</g>
<!-- app&#45;&gt;ui:history -->
<g id="edge5" class="edge">
<title>app&#45;&gt;ui:history</title>
<path fill="none" stroke="black" d="M711.2,-691.76C721.48,-680.04 735.87,-663.62 747.71,-650.12"/>
<polygon fill="black" stroke="black" points="750.37,-652.39 754.33,-642.56 745.11,-647.77 750.37,-652.39"/>
</g>
<!-- ui:image -->
<g id="node7" class="node">
<title>ui:image</title>
<ellipse fill="none" stroke="black" cx="1099.85" cy="-406" rx="50.89" ry="18"/>
<text text-anchor="middle" x="1099.85" y="-402.3" font-family="Times,serif" font-size="14.00">ui:image</text>
</g>
<!-- app&#45;&gt;ui:image -->
<g id="edge6" class="edge">
<title>app&#45;&gt;ui:image</title>
<path fill="none" stroke="black" d="M725.58,-704.83C821.86,-696.92 1135.85,-667.9 1135.85,-626 1135.85,-626 1135.85,-626 1135.85,-478 1135.85,-461.38 1127.9,-444.71 1119.48,-431.7"/>
<polygon fill="black" stroke="black" points="1122.24,-429.54 1113.66,-423.33 1116.49,-433.54 1122.24,-429.54"/>
</g>
<!-- ui:nowplaying -->
<g id="node8" class="node">
<title>ui:nowplaying</title>
<ellipse fill="none" stroke="black" cx="994.85" cy="-552" rx="75.29" ry="18"/>
<text text-anchor="middle" x="994.85" y="-548.3" font-family="Times,serif" font-size="14.00">ui:nowplaying</text>
</g>
<!-- app&#45;&gt;ui:nowplaying -->
<g id="edge7" class="edge">
<title>app&#45;&gt;ui:nowplaying</title>
<path fill="none" stroke="black" d="M725.49,-704.9C774.9,-700.73 875.99,-690.21 905.85,-672 942.1,-649.89 968.53,-607.02 982.78,-579.22"/>
<polygon fill="black" stroke="black" points="986,-580.59 987.3,-570.08 979.73,-577.49 986,-580.59"/>
</g>
<!-- ui:settings -->
<g id="node9" class="node">
<title>ui:settings</title>
<ellipse fill="none" stroke="black" cx="413.85" cy="-552" rx="59.59" ry="18"/>
<text text-anchor="middle" x="413.85" y="-548.3" font-family="Times,serif" font-size="14.00">ui:settings</text>
</g>
<!-- app&#45;&gt;ui:settings -->
<g id="edge8" class="edge">
<title>app&#45;&gt;ui:settings</title>
<path fill="none" stroke="black" d="M676.96,-695.68C629.08,-669.71 510.86,-605.61 450.54,-572.9"/>
<polygon fill="black" stroke="black" points="452.18,-569.81 441.72,-568.12 448.84,-575.96 452.18,-569.81"/>
</g>
<!-- ui:spotify -->
<g id="node10" class="node">
<title>ui:spotify</title>
<ellipse fill="none" stroke="black" cx="1217.85" cy="-552" rx="53.89" ry="18"/>
<text text-anchor="middle" x="1217.85" y="-548.3" font-family="Times,serif" font-size="14.00">ui:spotify</text>
</g>
<!-- app&#45;&gt;ui:spotify -->
<g id="edge9" class="edge">
<title>app&#45;&gt;ui:spotify</title>
<path fill="none" stroke="black" d="M725.84,-706.34C818.9,-703.96 1114.06,-694.66 1149.85,-672 1182.97,-651.03 1201.62,-607.76 1210.71,-579.58"/>
<polygon fill="black" stroke="black" points="1214.08,-580.53 1213.64,-569.95 1207.38,-578.5 1214.08,-580.53"/>
</g>
<!-- ui:stats -->
<g id="node11" class="node">
<title>ui:stats</title>
<ellipse fill="none" stroke="black" cx="574.85" cy="-552" rx="45.49" ry="18"/>
<text text-anchor="middle" x="574.85" y="-548.3" font-family="Times,serif" font-size="14.00">ui:stats</text>
</g>
<!-- app&#45;&gt;ui:stats -->
<g id="edge10" class="edge">
<title>app&#45;&gt;ui:stats</title>
<path fill="none" stroke="black" d="M685.6,-691.67C664.3,-664.99 620.22,-609.81 594.56,-577.68"/>
<polygon fill="black" stroke="black" points="597.13,-575.29 588.15,-569.66 591.66,-579.66 597.13,-575.29"/>
</g>
<!-- data -->
<g id="node12" class="node">
<title>data</title>
<ellipse fill="none" stroke="black" cx="432.85" cy="-333" rx="31.4" ry="18"/>
<text text-anchor="middle" x="432.85" y="-329.3" font-family="Times,serif" font-size="14.00">data</text>
</g>
<!-- data&#45;android&#45;&gt;data -->
<g id="edge18" class="edge">
<title>data&#45;android&#45;&gt;data</title>
<path fill="none" stroke="red" d="M129.25,-389.65C144.9,-382.34 164.51,-374.11 182.85,-369 254.77,-348.94 341.7,-340.08 391.8,-336.39"/>
<polygon fill="red" stroke="red" points="392.18,-339.88 401.91,-335.68 391.69,-332.89 392.18,-339.88"/>
</g>
<!-- ui:common&#45;&gt;data&#45;android -->
<g id="edge37" class="edge">
<title>ui:common&#45;&gt;data&#45;android</title>
<path fill="none" stroke="black" d="M610.19,-471.68C524.67,-462.03 357.54,-442.77 215.85,-424 200.24,-421.93 183.48,-419.58 167.67,-417.29"/>
<polygon fill="black" stroke="black" points="167.83,-413.78 157.43,-415.81 166.82,-420.71 167.83,-413.78"/>
</g>
<!-- ui:common&#45;&gt;ui:core -->
<g id="edge38" class="edge">
<title>ui:common&#45;&gt;ui:core</title>
<path fill="none" stroke="black" d="M623.05,-466.21C601.84,-458.05 578.32,-444.81 565.85,-424 557.62,-410.28 555.76,-400.42 565.85,-388 591.2,-356.77 703.69,-342.94 771.16,-337.36"/>
<polygon fill="black" stroke="black" points="771.48,-340.84 781.17,-336.56 770.93,-333.86 771.48,-340.84"/>
</g>
<!-- ui:common&#45;&gt;ui:image -->
<g id="edge39" class="edge">
<title>ui:common&#45;&gt;ui:image</title>
<path fill="none" stroke="black" d="M719.51,-469.36C801.94,-455.85 960.69,-429.82 1044.65,-416.05"/>
<polygon fill="black" stroke="black" points="1045.45,-419.47 1054.76,-414.39 1044.32,-412.56 1045.45,-419.47"/>
</g>
<!-- ui:collections&#45;&gt;data&#45;android -->
<g id="edge33" class="edge">
<title>ui:collections&#45;&gt;data&#45;android</title>
<path fill="none" stroke="black" d="M311.18,-607.33C270.53,-568.98 170.26,-474.38 123.54,-430.3"/>
<polygon fill="black" stroke="black" points="125.93,-427.74 116.26,-423.43 121.13,-432.84 125.93,-427.74"/>
</g>
<!-- ui:collections&#45;&gt;ui:common -->
<g id="edge34" class="edge">
<title>ui:collections&#45;&gt;ui:common</title>
<path fill="none" stroke="black" d="M396.8,-619.24C474.02,-612.56 593.87,-597.97 628.85,-570 648.13,-554.57 657.77,-527.58 662.5,-507.16"/>
<polygon fill="black" stroke="black" points="665.97,-507.69 664.55,-497.19 659.11,-506.28 665.97,-507.69"/>
</g>
<!-- ui:collections&#45;&gt;ui:core -->
<g id="edge35" class="edge">
<title>ui:collections&#45;&gt;ui:core</title>
<path fill="none" stroke="black" d="M330.07,-606.7C334.3,-561.4 352.62,-439.31 428.85,-388 483.64,-351.12 676.61,-339.2 770.61,-335.54"/>
<polygon fill="black" stroke="black" points="770.89,-339.03 780.75,-335.16 770.62,-332.03 770.89,-339.03"/>
</g>
<!-- ui:collections&#45;&gt;ui:settings -->
<g id="edge36" class="edge">
<title>ui:collections&#45;&gt;ui:settings</title>
<path fill="none" stroke="black" d="M348.56,-607.53C359.91,-598.06 374.33,-586.01 386.73,-575.65"/>
<polygon fill="black" stroke="black" points="389.1,-578.23 394.53,-569.13 384.61,-572.86 389.1,-578.23"/>
</g>
<!-- ui:collections&#45;&gt;data -->
<g id="edge32" class="edge">
<title>ui:collections&#45;&gt;data</title>
<path fill="none" stroke="black" d="M282.97,-611.08C176.72,-579.04 -70.55,-490.98 19.85,-388 44.18,-360.28 292.06,-342.44 391.7,-336.35"/>
<polygon fill="black" stroke="black" points="391.94,-339.84 401.71,-335.74 391.52,-332.85 391.94,-339.84"/>
</g>
<!-- ui:history&#45;&gt;ui:common -->
<g id="edge41" class="edge">
<title>ui:history&#45;&gt;ui:common</title>
<path fill="none" stroke="black" d="M759.5,-607.09C747.03,-585.07 723.75,-545.78 699.85,-515 697,-511.34 693.84,-507.62 690.64,-504.04"/>
<polygon fill="black" stroke="black" points="693.01,-501.46 683.64,-496.5 687.88,-506.22 693.01,-501.46"/>
</g>
<!-- ui:history&#45;&gt;ui:core -->
<g id="edge42" class="edge">
<title>ui:history&#45;&gt;ui:core</title>
<path fill="none" stroke="black" d="M779.8,-607.11C799.8,-576.71 844.22,-511.28 887.85,-461 903.3,-443.2 916.68,-445.72 925.85,-424 932.07,-409.26 934.13,-401.69 925.85,-388 913.3,-367.25 889.85,-354.08 868.5,-345.95"/>
<polygon fill="black" stroke="black" points="869.47,-342.59 858.88,-342.56 867.15,-349.19 869.47,-342.59"/>
</g>
<!-- ui:history&#45;&gt;ui:image -->
<g id="edge43" class="edge">
<title>ui:history&#45;&gt;ui:image</title>
<path fill="none" stroke="black" d="M823.62,-622.04C903.08,-617.99 1044.58,-605.82 1078.85,-570 1113.52,-533.75 1110.47,-470.41 1105.16,-434.29"/>
<polygon fill="black" stroke="black" points="1108.55,-433.32 1103.48,-424.01 1101.64,-434.45 1108.55,-433.32"/>
</g>
<!-- ui:history&#45;&gt;ui:settings -->
<g id="edge44" class="edge">
<title>ui:history&#45;&gt;ui:settings</title>
<path fill="none" stroke="black" d="M721.51,-615.44C665.57,-605.2 569.75,-587.27 487.85,-570 481.98,-568.76 475.86,-567.43 469.77,-566.07"/>
<polygon fill="black" stroke="black" points="470.11,-562.56 459.58,-563.78 468.57,-569.39 470.11,-562.56"/>
</g>
<!-- ui:history&#45;&gt;data -->
<g id="edge40" class="edge">
<title>ui:history&#45;&gt;data</title>
<path fill="none" stroke="black" d="M723.37,-614.67C652.84,-600.12 524.7,-573.34 520.85,-570 457.72,-515.28 439.8,-410.79 434.78,-361.3"/>
<polygon fill="black" stroke="black" points="438.24,-360.7 433.84,-351.06 431.26,-361.33 438.24,-360.7"/>
</g>
<!-- ui:image&#45;&gt;ui:core -->
<g id="edge46" class="edge">
<title>ui:image&#45;&gt;ui:core</title>
<path fill="none" stroke="black" d="M1076.98,-389.8C1064.92,-382.45 1049.59,-374.13 1034.85,-369 982,-350.62 918.32,-341.76 874.62,-337.58"/>
<polygon fill="black" stroke="black" points="874.79,-334.08 864.52,-336.66 874.16,-341.05 874.79,-334.08"/>
</g>
<!-- data:core -->
<g id="node13" class="node">
<title>data:core</title>
<ellipse fill="none" stroke="black" cx="591.85" cy="-41" rx="53.89" ry="18"/>
<text text-anchor="middle" x="591.85" y="-37.3" font-family="Times,serif" font-size="14.00">data:core</text>
</g>
<!-- ui:image&#45;&gt;data:core -->
<g id="edge45" class="edge">
<title>ui:image&#45;&gt;data:core</title>
<path fill="none" stroke="black" d="M1136.21,-393.25C1161.92,-382.41 1191.85,-363.46 1191.85,-334 1191.85,-334 1191.85,-334 1191.85,-113 1191.85,-59.49 810.61,-46.17 655.92,-42.97"/>
<polygon fill="black" stroke="black" points="655.69,-39.47 645.62,-42.77 655.55,-46.47 655.69,-39.47"/>
</g>
<!-- ui:nowplaying&#45;&gt;ui:common -->
<g id="edge48" class="edge">
<title>ui:nowplaying&#45;&gt;ui:common</title>
<path fill="none" stroke="black" d="M941.05,-539.36C881.48,-526.46 785.82,-505.75 724.68,-492.52"/>
<polygon fill="black" stroke="black" points="725.31,-489.07 714.8,-490.38 723.83,-495.92 725.31,-489.07"/>
</g>
<!-- ui:nowplaying&#45;&gt;ui:core -->
<g id="edge49" class="edge">
<title>ui:nowplaying&#45;&gt;ui:core</title>
<path fill="none" stroke="black" d="M1001.5,-533.86C1013.96,-498.56 1036.19,-417.04 996.85,-369 981.6,-350.38 920.19,-341.45 874.62,-337.32"/>
<polygon fill="black" stroke="black" points="874.84,-333.83 864.58,-336.46 874.25,-340.8 874.84,-333.83"/>
</g>
<!-- ui:nowplaying&#45;&gt;ui:image -->
<g id="edge50" class="edge">
<title>ui:nowplaying&#45;&gt;ui:image</title>
<path fill="none" stroke="black" d="M1013.07,-534.25C1018.71,-528.68 1024.78,-522.29 1029.85,-516 1051.42,-489.22 1072.2,-455.53 1085.44,-432.75"/>
<polygon fill="black" stroke="black" points="1088.51,-434.42 1090.46,-424.01 1082.44,-430.94 1088.51,-434.42"/>
</g>
<!-- ui:nowplaying&#45;&gt;data -->
<g id="edge47" class="edge">
<title>ui:nowplaying&#45;&gt;data</title>
<path fill="none" stroke="black" d="M957.43,-536.24C907.82,-517.05 817.26,-483.35 737.85,-461 662.58,-439.81 637.76,-454.69 565.85,-424 524.84,-406.5 483.16,-375.74 457.66,-355.12"/>
<polygon fill="black" stroke="black" points="459.6,-352.19 449.65,-348.55 455.16,-357.6 459.6,-352.19"/>
</g>
<!-- ui:settings&#45;&gt;data&#45;android -->
<g id="edge51" class="edge">
<title>ui:settings&#45;&gt;data&#45;android</title>
<path fill="none" stroke="black" d="M381.4,-536.85C356.78,-526.05 322.11,-510.75 291.85,-497 239.41,-473.17 179.31,-445.01 140.3,-426.62"/>
<polygon fill="black" stroke="black" points="141.4,-423.26 130.86,-422.16 138.41,-429.59 141.4,-423.26"/>
</g>
<!-- ui:settings&#45;&gt;ui:common -->
<g id="edge52" class="edge">
<title>ui:settings&#45;&gt;ui:common</title>
<path fill="none" stroke="black" d="M455.91,-539.2C499.33,-527.01 567.18,-507.97 614.15,-494.79"/>
<polygon fill="black" stroke="black" points="615.16,-498.14 623.84,-492.07 613.26,-491.4 615.16,-498.14"/>
</g>
<!-- ui:settings&#45;&gt;ui:core -->
<g id="edge53" class="edge">
<title>ui:settings&#45;&gt;ui:core</title>
<path fill="none" stroke="black" d="M409.57,-533.83C404.88,-510.83 400.28,-469.69 418.85,-442 461.7,-378.09 502.06,-390.86 575.85,-369 641.5,-349.55 720.28,-340.77 770.92,-336.91"/>
<polygon fill="black" stroke="black" points="771.25,-340.39 780.97,-336.18 770.74,-333.41 771.25,-340.39"/>
</g>
<!-- ui:spotify&#45;&gt;ui:common -->
<g id="edge57" class="edge">
<title>ui:spotify&#45;&gt;ui:common</title>
<path fill="none" stroke="black" d="M1168.46,-544.64C1068.82,-531.8 843.72,-502.79 732.11,-488.41"/>
<polygon fill="black" stroke="black" points="732.36,-484.91 722,-487.11 731.47,-491.86 732.36,-484.91"/>
</g>
<!-- ui:spotify&#45;&gt;ui:core -->
<g id="edge56" class="edge">
<title>ui:spotify&#45;&gt;ui:core</title>
<path fill="none" stroke="black" d="M1210.24,-534.02C1207.78,-528.33 1205.11,-521.93 1202.85,-516 1181.45,-459.93 1205.4,-427.07 1159.85,-388 1117.96,-352.08 958.67,-339.85 874.96,-335.84"/>
<polygon fill="black" stroke="black" points="875.04,-332.34 864.9,-335.38 874.73,-339.34 875.04,-332.34"/>
</g>
<!-- ui:spotify&#45;&gt;data:core -->
<g id="edge54" class="edge">
<title>ui:spotify&#45;&gt;data:core</title>
<path fill="none" stroke="black" d="M1232.26,-534.46C1242.65,-520.81 1254.85,-500.43 1254.85,-480 1254.85,-480 1254.85,-480 1254.85,-113 1254.85,-53.15 822.22,-43.66 655.91,-42.23"/>
<polygon fill="black" stroke="black" points="655.85,-38.73 645.82,-42.15 655.79,-45.73 655.85,-38.73"/>
</g>
<!-- data:spotify -->
<g id="node18" class="node">
<title>data:spotify</title>
<ellipse fill="none" stroke="black" cx="715.85" cy="-260" rx="65.79" ry="18"/>
<text text-anchor="middle" x="715.85" y="-256.3" font-family="Times,serif" font-size="14.00">data:spotify</text>
</g>
<!-- ui:spotify&#45;&gt;data:spotify -->
<g id="edge55" class="edge">
<title>ui:spotify&#45;&gt;data:spotify</title>
<path fill="none" stroke="black" d="M1219.96,-533.93C1223,-501.14 1224.61,-428.99 1186.85,-388 1132.41,-328.92 899.98,-287.65 783.27,-270.25"/>
<polygon fill="black" stroke="black" points="783.77,-266.79 773.36,-268.79 782.75,-273.71 783.77,-266.79"/>
</g>
<!-- ui:stats&#45;&gt;ui:common -->
<g id="edge59" class="edge">
<title>ui:stats&#45;&gt;ui:common</title>
<path fill="none" stroke="black" d="M594.81,-535.59C607.44,-525.84 623.99,-513.08 638.03,-502.24"/>
<polygon fill="black" stroke="black" points="640.19,-505 645.97,-496.12 635.91,-499.45 640.19,-505"/>
</g>
<!-- ui:stats&#45;&gt;ui:core -->
<g id="edge60" class="edge">
<title>ui:stats&#45;&gt;ui:core</title>
<path fill="none" stroke="black" d="M566.41,-533.86C552.29,-502.48 528.02,-434.76 555.85,-388 577.48,-351.64 699.34,-339.72 770.73,-335.85"/>
<polygon fill="black" stroke="black" points="771.06,-339.34 780.87,-335.33 770.71,-332.34 771.06,-339.34"/>
</g>
<!-- ui:stats&#45;&gt;data -->
<g id="edge58" class="edge">
<title>ui:stats&#45;&gt;data</title>
<path fill="none" stroke="black" d="M538.82,-540.83C451.67,-515.87 235.19,-451.62 215.85,-424 170.71,-359.55 316.84,-341.13 391.6,-335.96"/>
<polygon fill="black" stroke="black" points="391.89,-339.45 401.65,-335.32 391.44,-332.46 391.89,-339.45"/>
</g>
<!-- data&#45;&gt;data:core -->
<g id="edge11" class="edge">
<title>data&#45;&gt;data:core</title>
<path fill="none" stroke="red" d="M462.79,-327.14C516.09,-317.64 621.85,-294.56 621.85,-261 621.85,-261 621.85,-261 621.85,-113 621.85,-97.06 615.35,-80.59 608.41,-67.53"/>
<polygon fill="red" stroke="red" points="611.35,-65.62 603.36,-58.67 605.27,-69.09 611.35,-65.62"/>
</g>
<!-- data:common:network -->
<g id="node14" class="node">
<title>data:common:network</title>
<ellipse fill="none" stroke="black" cx="347.85" cy="-187" rx="114.28" ry="18"/>
<text text-anchor="middle" x="347.85" y="-183.3" font-family="Times,serif" font-size="14.00">data:common:network</text>
</g>
<!-- data&#45;&gt;data:common:network -->
<g id="edge12" class="edge">
<title>data&#45;&gt;data:common:network</title>
<path fill="none" stroke="red" d="M437.14,-315.16C441.96,-292.16 446.84,-250.63 427.85,-223 423.71,-216.99 418.31,-212 412.25,-207.86"/>
<polygon fill="red" stroke="red" points="414.04,-204.85 403.65,-202.73 410.45,-210.86 414.04,-204.85"/>
</g>
<!-- data:coverart -->
<g id="node15" class="node">
<title>data:coverart</title>
<ellipse fill="none" stroke="black" cx="305.85" cy="-114" rx="73.39" ry="18"/>
<text text-anchor="middle" x="305.85" y="-110.3" font-family="Times,serif" font-size="14.00">data:coverart</text>
</g>
<!-- data&#45;&gt;data:coverart -->
<g id="edge13" class="edge">
<title>data&#45;&gt;data:coverart</title>
<path fill="none" stroke="red" d="M444.28,-315.98C465.05,-284.71 503.93,-214.64 470.85,-169 458.67,-152.2 411.88,-137.86 371.23,-128.18"/>
<polygon fill="red" stroke="red" points="371.85,-124.74 361.32,-125.89 370.27,-131.55 371.85,-124.74"/>
</g>
<!-- data:domain -->
<g id="node16" class="node">
<title>data:domain</title>
<ellipse fill="none" stroke="black" cx="237.85" cy="-260" rx="68.49" ry="18"/>
<text text-anchor="middle" x="237.85" y="-256.3" font-family="Times,serif" font-size="14.00">data:domain</text>
</g>
<!-- data&#45;&gt;data:domain -->
<g id="edge14" class="edge">
<title>data&#45;&gt;data:domain</title>
<path fill="none" stroke="red" d="M406.95,-322.57C376.1,-311.34 323.94,-292.35 285.69,-278.42"/>
<polygon fill="red" stroke="red" points="286.88,-275.13 276.28,-275 284.48,-281.71 286.88,-275.13"/>
</g>
<!-- data:room -->
<g id="node17" class="node">
<title>data:room</title>
<ellipse fill="none" stroke="black" cx="157.85" cy="-187" rx="57.69" ry="18"/>
<text text-anchor="middle" x="157.85" y="-183.3" font-family="Times,serif" font-size="14.00">data:room</text>
</g>
<!-- data&#45;&gt;data:room -->
<g id="edge15" class="edge">
<title>data&#45;&gt;data:room</title>
<path fill="none" stroke="red" d="M417.19,-317.39C395.61,-297.91 354.83,-263.4 314.85,-242 282.05,-224.45 242.43,-210.87 211.2,-201.72"/>
<polygon fill="red" stroke="red" points="211.95,-198.3 201.37,-198.91 210.02,-205.02 211.95,-198.3"/>
</g>
<!-- data&#45;&gt;data:spotify -->
<g id="edge16" class="edge">
<title>data&#45;&gt;data:spotify</title>
<path fill="none" stroke="red" d="M463.67,-329.13C503.94,-324.83 576.34,-315.2 635.85,-297 649.91,-292.7 664.75,-286.52 677.77,-280.49"/>
<polygon fill="red" stroke="red" points="679.37,-283.61 686.9,-276.16 676.36,-277.29 679.37,-283.61"/>
</g>
<!-- data:musicbrainz -->
<g id="node19" class="node">
<title>data:musicbrainz</title>
<ellipse fill="none" stroke="black" cx="502.85" cy="-114" rx="90.98" ry="18"/>
<text text-anchor="middle" x="502.85" y="-110.3" font-family="Times,serif" font-size="14.00">data:musicbrainz</text>
</g>
<!-- data&#45;&gt;data:musicbrainz -->
<g id="edge17" class="edge">
<title>data&#45;&gt;data:musicbrainz</title>
<path fill="none" stroke="red" d="M461.4,-325.36C476.63,-320.26 494.18,-311.53 503.85,-297 535.13,-249.99 522.25,-179.93 511.62,-141.9"/>
<polygon fill="red" stroke="red" points="514.91,-140.67 508.72,-132.07 508.19,-142.66 514.91,-140.67"/>
</g>
<!-- data:coverart&#45;&gt;data:core -->
<g id="edge21" class="edge">
<title>data:coverart&#45;&gt;data:core</title>
<path fill="none" stroke="black" d="M355.66,-100.63C407.38,-87.79 487.91,-67.8 540.27,-54.8"/>
<polygon fill="black" stroke="black" points="541.17,-58.19 550.03,-52.38 539.48,-51.39 541.17,-58.19"/>
</g>
<!-- data:domain&#45;&gt;data:core -->
<g id="edge22" class="edge">
<title>data:domain&#45;&gt;data:core</title>
<path fill="none" stroke="black" d="M170.97,-255.92C136.47,-250.32 97.92,-236.74 79.85,-205 71.93,-191.1 72.44,-183.18 79.85,-169 106.18,-118.63 132.75,-118.72 184.85,-96 245.27,-69.65 430.83,-53.19 529.17,-46.08"/>
<polygon fill="black" stroke="black" points="529.54,-49.56 539.27,-45.36 529.05,-42.58 529.54,-49.56"/>
</g>
<!-- data:domain&#45;&gt;data:common:network -->
<g id="edge23" class="edge">
<title>data:domain&#45;&gt;data:common:network</title>
<path fill="none" stroke="black" d="M262.53,-243.07C277.5,-233.41 296.82,-220.94 313.29,-210.31"/>
<polygon fill="black" stroke="black" points="315.59,-212.98 322.1,-204.62 311.8,-207.1 315.59,-212.98"/>
</g>
<!-- data:domain&#45;&gt;data:coverart -->
<g id="edge24" class="edge">
<title>data:domain&#45;&gt;data:coverart</title>
<path fill="none" stroke="black" d="M185.76,-248.22C132.03,-234.7 60.11,-208.41 90.85,-169 108.17,-146.79 175.98,-132.32 230.88,-124.01"/>
<polygon fill="black" stroke="black" points="231.58,-127.44 240.97,-122.52 230.56,-120.51 231.58,-127.44"/>
</g>
<!-- data:domain&#45;&gt;data:room -->
<g id="edge26" class="edge">
<title>data:domain&#45;&gt;data:room</title>
<path fill="none" stroke="black" d="M219.29,-242.53C208.72,-233.15 195.3,-221.24 183.7,-210.95"/>
<polygon fill="black" stroke="black" points="185.83,-208.15 176.03,-204.13 181.18,-213.39 185.83,-208.15"/>
</g>
<!-- data:domain&#45;&gt;data:musicbrainz -->
<g id="edge25" class="edge">
<title>data:domain&#45;&gt;data:musicbrainz</title>
<path fill="none" stroke="black" d="M298.31,-251.64C358.57,-243.16 445.67,-227.46 470.85,-205 488.68,-189.09 496.57,-162.58 500.07,-142.44"/>
<polygon fill="black" stroke="black" points="503.57,-142.7 501.56,-132.29 496.64,-141.68 503.57,-142.7"/>
</g>
<!-- data:room&#45;&gt;data:core -->
<g id="edge28" class="edge">
<title>data:room&#45;&gt;data:core</title>
<path fill="none" stroke="black" d="M165.28,-168.84C175.32,-147.91 195.29,-113.19 223.85,-96 273.92,-65.86 437.19,-51.34 528.52,-45.43"/>
<polygon fill="black" stroke="black" points="528.99,-48.9 538.75,-44.78 528.55,-41.92 528.99,-48.9"/>
</g>
<!-- data:room&#45;&gt;data:coverart -->
<g id="edge29" class="edge">
<title>data:room&#45;&gt;data:coverart</title>
<path fill="none" stroke="black" d="M188.15,-171.46C210.25,-160.86 240.45,-146.37 264.73,-134.73"/>
<polygon fill="black" stroke="black" points="266.54,-137.74 274.05,-130.26 263.52,-131.43 266.54,-137.74"/>
</g>
<!-- data:room&#45;&gt;data:musicbrainz -->
<g id="edge30" class="edge">
<title>data:room&#45;&gt;data:musicbrainz</title>
<path fill="none" stroke="black" d="M200.65,-174.76C208.67,-172.76 217,-170.76 224.85,-169 293.19,-153.7 371.55,-138.71 427.62,-128.42"/>
<polygon fill="black" stroke="black" points="428.26,-131.86 437.47,-126.62 427.01,-124.97 428.26,-131.86"/>
</g>
<!-- data:spotify&#45;&gt;data:core -->
<g id="edge31" class="edge">
<title>data:spotify&#45;&gt;data:core</title>
<path fill="none" stroke="black" d="M711.38,-242.01C701.84,-208.01 676.93,-130.31 635.85,-77 632.18,-72.24 627.74,-67.75 623.1,-63.68"/>
<polygon fill="black" stroke="black" points="625.18,-60.85 615.22,-57.23 620.75,-66.27 625.18,-60.85"/>
</g>
<!-- data:musicbrainz&#45;&gt;data:core -->
<g id="edge27" class="edge">
<title>data:musicbrainz&#45;&gt;data:core</title>
<path fill="none" stroke="black" d="M523.94,-96.17C535.83,-86.69 550.84,-74.71 563.72,-64.44"/>
<polygon fill="black" stroke="black" points="566.19,-66.95 571.82,-57.97 561.82,-61.47 566.19,-66.95"/>
</g>
<!-- desktop&#45;app -->
<g id="node20" class="node">
<title>desktop&#45;app</title>
<ellipse fill="none" stroke="black" cx="642.85" cy="-406" rx="67.69" ry="18"/>
<text text-anchor="middle" x="642.85" y="-402.3" font-family="Times,serif" font-size="14.00">desktop&#45;app</text>
</g>
<!-- desktop&#45;app&#45;&gt;ui:core -->
<g id="edge19" class="edge">
<title>desktop&#45;app&#45;&gt;ui:core</title>
<path fill="none" stroke="black" d="M679.27,-390.63C709.49,-378.71 752.38,-361.8 783.4,-349.56"/>
<polygon fill="black" stroke="black" points="785.01,-352.69 793.03,-345.76 782.44,-346.18 785.01,-352.69"/>
</g>
<!-- test&#45;data -->
<g id="node21" class="node">
<title>test&#45;data</title>
<ellipse fill="none" stroke="black" cx="276.85" cy="-406" rx="51.99" ry="18"/>
<text text-anchor="middle" x="276.85" y="-402.3" font-family="Times,serif" font-size="14.00">test&#45;data</text>
</g>
<!-- test&#45;data&#45;&gt;data -->
<g id="edge20" class="edge">
<title>test&#45;data&#45;&gt;data</title>
<path fill="none" stroke="black" d="M302.16,-390.2C314.28,-383.37 329.12,-375.38 342.85,-369 360.51,-360.79 380.68,-352.82 397.44,-346.57"/>
<polygon fill="black" stroke="black" points="398.7,-349.83 406.88,-343.09 396.28,-343.27 398.7,-349.83"/>
</g>
<!-- ui:test:screenshot -->
<g id="node22" class="node">
<title>ui:test:screenshot</title>
<ellipse fill="none" stroke="black" cx="822.85" cy="-406" rx="94.48" ry="18"/>
<text text-anchor="middle" x="822.85" y="-402.3" font-family="Times,serif" font-size="14.00">ui:test:screenshot</text>
</g>
<!-- ui:test:screenshot&#45;&gt;ui:core -->
<g id="edge61" class="edge">
<title>ui:test:screenshot&#45;&gt;ui:core</title>
<path fill="none" stroke="black" d="M822.85,-387.81C822.85,-379.79 822.85,-370.05 822.85,-361.07"/>
<polygon fill="black" stroke="black" points="826.35,-361.03 822.85,-351.03 819.35,-361.03 826.35,-361.03"/>
</g>
<!-- module -->
<g id="node23" class="node">
<title>module</title>
<ellipse fill="none" stroke="black" cx="1278.85" cy="-708" rx="32.25" ry="18"/>
<text text-anchor="middle" x="1278.85" y="-705.5" font-family="Times,serif" font-size="10.00">module</text>
</g>
<!-- dependency -->
<g id="node24" class="node">
<title>dependency</title>
<ellipse fill="none" stroke="black" cx="1278.85" cy="-625" rx="47.19" ry="18"/>
<text text-anchor="middle" x="1278.85" y="-622.5" font-family="Times,serif" font-size="10.00">dependency</text>
</g>
<!-- module&#45;&gt;dependency -->
<g id="edge62" class="edge">
<title>module&#45;&gt;dependency</title>
<path fill="none" stroke="red" d="M1258.53,-693.67C1251.57,-687.92 1244.59,-680.54 1240.85,-672 1237.06,-663.36 1240.77,-655.05 1247.13,-647.92"/>
<polygon fill="red" stroke="red" points="1249.94,-650.09 1254.84,-640.7 1245.15,-644.98 1249.94,-650.09"/>
<text text-anchor="middle" x="1248.85" y="-664" font-family="Times,serif" font-size="10.00">api</text>
</g>
<!-- module&#45;&gt;dependency -->
<g id="edge63" class="edge">
<title>module&#45;&gt;dependency</title>
<path fill="none" stroke="black" d="M1278.85,-689.82C1278.85,-679.19 1278.85,-665.31 1278.85,-653.2"/>
<polygon fill="black" stroke="black" points="1282.35,-653.15 1278.85,-643.15 1275.35,-653.15 1282.35,-653.15"/>
<text text-anchor="middle" x="1319.35" y="-664" font-family="Times,serif" font-size="10.00">implementation</text>
</g>
<!-- module&#45;&gt;dependency -->
<g id="edge64" class="edge">
<title>module&#45;&gt;dependency</title>
<path fill="none" stroke="green" d="M1310,-702.32C1328.14,-697.82 1349.59,-689.05 1360.85,-672 1372.06,-655.02 1352.9,-643.66 1330.29,-636.49"/>
<polygon fill="green" stroke="green" points="1331.05,-633.06 1320.47,-633.66 1329.11,-639.79 1331.05,-633.06"/>
<text text-anchor="middle" x="1383.85" y="-664" font-family="Times,serif" font-size="10.00">compile</text>
</g>
</g>
</svg>
