<?xml version="1.0" encoding="UTF-8" standalone="no"?>
<!DOCTYPE svg PUBLIC "-//W3C//DTD SVG 1.1//EN"
 "http://www.w3.org/Graphics/SVG/1.1/DTD/svg11.dtd">
<!-- Generated by graphviz version 2.43.0 (0)
 -->
<!-- Title: %3 Pages: 1 -->
<svg width="2482pt" height="1488pt"
 viewBox="0.00 0.00 2482.14 1488.00" xmlns="http://www.w3.org/2000/svg" xmlns:xlink="http://www.w3.org/1999/xlink">
<g id="graph0" class="graph" transform="scale(1 1) rotate(0) translate(4 1484)">
<title>%3</title>
<polygon fill="white" stroke="transparent" points="-4,4 -4,-1484 2478.14,-1484 2478.14,4 -4,4"/>
<text text-anchor="middle" x="1237.07" y="-1452" font-family="Times,serif" font-size="30.00">MusicSearch</text>
<text text-anchor="middle" x="1237.07" y="-1419" font-family="Times,serif" font-size="30.00"> </text>
<!-- :app -->
<g id="node1" class="node">
<title>:app</title>
<polygon fill="#9affb5" stroke="black" points="949.14,-1406 589.14,-1406 589.14,-1370 949.14,-1370 949.14,-1406"/>
<text text-anchor="middle" x="769.14" y="-1384.3" font-family="Times,serif" font-size="14.00">:app</text>
</g>
<!-- :test&#45;data -->
<g id="node2" class="node">
<title>:test&#45;data</title>
<ellipse fill="#b59aff" stroke="black" cx="543.14" cy="-703" rx="55.49" ry="18"/>
<text text-anchor="middle" x="543.14" y="-699.3" font-family="Times,serif" font-size="14.00">:test&#45;data</text>
</g>
<!-- :app&#45;&gt;:test&#45;data -->
<g id="edge1" class="edge">
<title>:app&#45;&gt;:test&#45;data</title>
<path fill="none" stroke="#ff9ab1" stroke-dasharray="1,5" d="M833.78,-1370C833.78,-1262.97 833.78,-715 833.78,-715 833.78,-715 594.47,-715 594.47,-715"/>
<polygon fill="#ff9ab1" stroke="#ff9ab1" points="594.47,-711.5 584.47,-715 594.47,-718.5 594.47,-711.5"/>
</g>
<!-- :data&#45;android -->
<g id="node3" class="node">
<title>:data&#45;android</title>
<ellipse fill="#9affb5" stroke="black" cx="565.14" cy="-840" rx="72.59" ry="18"/>
<text text-anchor="middle" x="565.14" y="-836.3" font-family="Times,serif" font-size="14.00">:data&#45;android</text>
</g>
<!-- :app&#45;&gt;:data&#45;android -->
<g id="edge2" class="edge">
<title>:app&#45;&gt;:data&#45;android</title>
<path fill="none" stroke="black" stroke-dasharray="1,5" d="M588.9,-1379C560.74,-1379 540.75,-1379 540.75,-1379 540.75,-1379 540.75,-867.02 540.75,-867.02"/>
<polygon fill="black" stroke="black" points="544.25,-867.02 540.75,-857.02 537.25,-867.02 544.25,-867.02"/>
</g>
<!-- :data:database -->
<g id="node4" class="node">
<title>:data:database</title>
<ellipse fill="#b59aff" stroke="black" cx="710.14" cy="-292" rx="79.09" ry="18"/>
<text text-anchor="middle" x="710.14" y="-288.3" font-family="Times,serif" font-size="14.00">:data:database</text>
</g>
<!-- :app&#45;&gt;:data:database -->
<g id="edge3" class="edge">
<title>:app&#45;&gt;:data:database</title>
<path fill="none" stroke="black" stroke-dasharray="1,5" d="M828.72,-1369.76C828.72,-1275.6 828.72,-849 828.72,-849 828.72,-849 753.7,-849 753.7,-849 753.7,-849 753.7,-317.19 753.7,-317.19"/>
<polygon fill="black" stroke="black" points="757.2,-317.19 753.7,-307.19 750.2,-317.19 757.2,-317.19"/>
</g>
<!-- :data:repository -->
<g id="node5" class="node">
<title>:data:repository</title>
<ellipse fill="#b59aff" stroke="black" cx="85.14" cy="-703" rx="85.29" ry="18"/>
<text text-anchor="middle" x="85.14" y="-699.3" font-family="Times,serif" font-size="14.00">:data:repository</text>
</g>
<!-- :app&#45;&gt;:data:repository -->
<g id="edge4" class="edge">
<title>:app&#45;&gt;:data:repository</title>
<path fill="none" stroke="black" stroke-dasharray="1,5" d="M588.98,-1397C386.33,-1397 85.14,-1397 85.14,-1397 85.14,-1397 85.14,-731.21 85.14,-731.21"/>
<polygon fill="black" stroke="black" points="88.64,-731.21 85.14,-721.21 81.64,-731.21 88.64,-731.21"/>
</g>
<!-- :domain -->
<g id="node6" class="node">
<title>:domain</title>
<ellipse fill="#b59aff" stroke="black" cx="856.14" cy="-429" rx="48.19" ry="18"/>
<text text-anchor="middle" x="856.14" y="-425.3" font-family="Times,serif" font-size="14.00">:domain</text>
</g>
<!-- :app&#45;&gt;:domain -->
<g id="edge5" class="edge">
<title>:app&#45;&gt;:domain</title>
<path fill="none" stroke="black" stroke-dasharray="1,5" d="M836.31,-1369.7C836.31,-1369.7 836.31,-455.59 836.31,-455.59"/>
<polygon fill="black" stroke="black" points="839.81,-455.59 836.31,-445.59 832.81,-455.59 839.81,-455.59"/>
</g>
<!-- :inverted&#45;domain -->
<g id="node7" class="node">
<title>:inverted&#45;domain</title>
<ellipse fill="#b59aff" stroke="black" cx="464.14" cy="-566" rx="89.88" ry="18"/>
<text text-anchor="middle" x="464.14" y="-562.3" font-family="Times,serif" font-size="14.00">:inverted&#45;domain</text>
</g>
<!-- :app&#45;&gt;:inverted&#45;domain -->
<g id="edge6" class="edge">
<title>:app&#45;&gt;:inverted&#45;domain</title>
<path fill="none" stroke="black" stroke-dasharray="1,5" d="M589.1,-1388C516.73,-1388 450.08,-1388 450.08,-1388 450.08,-1388 450.08,-593.93 450.08,-593.93"/>
<polygon fill="black" stroke="black" points="453.58,-593.93 450.08,-583.93 446.58,-593.93 453.58,-593.93"/>
</g>
<!-- :feature:search -->
<g id="node8" class="node">
<title>:feature:search</title>
<ellipse fill="#9affb5" stroke="black" cx="925.14" cy="-1114" rx="81.49" ry="18"/>
<text text-anchor="middle" x="925.14" y="-1110.3" font-family="Times,serif" font-size="14.00">:feature:search</text>
</g>
<!-- :app&#45;&gt;:feature:search -->
<g id="edge7" class="edge">
<title>:app&#45;&gt;:feature:search</title>
<path fill="none" stroke="black" stroke-dasharray="1,5" d="M878.98,-1369.6C878.98,-1369.6 878.98,-1138.88 878.98,-1138.88"/>
<polygon fill="black" stroke="black" points="882.48,-1138.88 878.98,-1128.88 875.48,-1138.88 882.48,-1138.88"/>
</g>
<!-- :strings -->
<g id="node9" class="node">
<title>:strings</title>
<ellipse fill="#b59aff" stroke="black" cx="1071.14" cy="-840" rx="46.29" ry="18"/>
<text text-anchor="middle" x="1071.14" y="-836.3" font-family="Times,serif" font-size="14.00">:strings</text>
</g>
<!-- :app&#45;&gt;:strings -->
<g id="edge8" class="edge">
<title>:app&#45;&gt;:strings</title>
<path fill="none" stroke="black" stroke-dasharray="1,5" d="M949.44,-1376C1006.85,-1376 1055.76,-1376 1055.76,-1376 1055.76,-1376 1055.76,-867.23 1055.76,-867.23"/>
<polygon fill="black" stroke="black" points="1059.26,-867.23 1055.76,-857.23 1052.26,-867.23 1059.26,-867.23"/>
</g>
<!-- :ui:common -->
<g id="node10" class="node">
<title>:ui:common</title>
<ellipse fill="#9affb5" stroke="black" cx="1392.14" cy="-977" rx="64.19" ry="18"/>
<text text-anchor="middle" x="1392.14" y="-973.3" font-family="Times,serif" font-size="14.00">:ui:common</text>
</g>
<!-- :app&#45;&gt;:ui:common -->
<g id="edge9" class="edge">
<title>:app&#45;&gt;:ui:common</title>
<path fill="none" stroke="black" stroke-dasharray="1,5" d="M841.37,-1369.95C841.37,-1291.72 841.37,-986 841.37,-986 841.37,-986 1326.3,-986 1326.3,-986"/>
<polygon fill="black" stroke="black" points="1326.3,-989.5 1336.3,-986 1326.3,-982.5 1326.3,-989.5"/>
</g>
<!-- :ui:core -->
<g id="node11" class="node">
<title>:ui:core</title>
<ellipse fill="#b59aff" stroke="black" cx="1466.14" cy="-703" rx="45.49" ry="18"/>
<text text-anchor="middle" x="1466.14" y="-699.3" font-family="Times,serif" font-size="14.00">:ui:core</text>
</g>
<!-- :app&#45;&gt;:ui:core -->
<g id="edge10" class="edge">
<title>:app&#45;&gt;:ui:core</title>
<path fill="none" stroke="black" stroke-dasharray="1,5" d="M838.84,-1369.95C838.84,-1261.4 838.84,-700 838.84,-700 838.84,-700 1411.28,-700 1411.28,-700"/>
<polygon fill="black" stroke="black" points="1411.28,-703.5 1421.28,-700 1411.28,-696.5 1411.28,-703.5"/>
</g>
<!-- :ui:collections -->
<g id="node12" class="node">
<title>:ui:collections</title>
<ellipse fill="#9affb5" stroke="black" cx="666.14" cy="-1251" rx="74.99" ry="18"/>
<text text-anchor="middle" x="666.14" y="-1247.3" font-family="Times,serif" font-size="14.00">:ui:collections</text>
</g>
<!-- :app&#45;&gt;:ui:collections -->
<g id="edge11" class="edge">
<title>:app&#45;&gt;:ui:collections</title>
<path fill="none" stroke="black" stroke-dasharray="1,5" d="M666.14,-1369.81C666.14,-1369.81 666.14,-1279.27 666.14,-1279.27"/>
<polygon fill="black" stroke="black" points="669.64,-1279.27 666.14,-1269.27 662.64,-1279.27 669.64,-1279.27"/>
</g>
<!-- :ui:history -->
<g id="node13" class="node">
<title>:ui:history</title>
<ellipse fill="#9affb5" stroke="black" cx="1674.14" cy="-1251" rx="57.69" ry="18"/>
<text text-anchor="middle" x="1674.14" y="-1247.3" font-family="Times,serif" font-size="14.00">:ui:history</text>
</g>
<!-- :app&#45;&gt;:ui:history -->
<g id="edge12" class="edge">
<title>:app&#45;&gt;:ui:history</title>
<path fill="none" stroke="black" stroke-dasharray="1,5" d="M914.06,-1369.85C914.06,-1335.64 914.06,-1265 914.06,-1265 914.06,-1265 1627.74,-1265 1627.74,-1265"/>
<polygon fill="black" stroke="black" points="1627.74,-1268.5 1637.74,-1265 1627.74,-1261.5 1627.74,-1268.5"/>
</g>
<!-- :ui:image -->
<g id="node14" class="node">
<title>:ui:image</title>
<ellipse fill="#b59aff" stroke="black" cx="2174.14" cy="-840" rx="53.89" ry="18"/>
<text text-anchor="middle" x="2174.14" y="-836.3" font-family="Times,serif" font-size="14.00">:ui:image</text>
</g>
<!-- :app&#45;&gt;:ui:image -->
<g id="edge13" class="edge">
<title>:app&#45;&gt;:ui:image</title>
<path fill="none" stroke="black" stroke-dasharray="1,5" d="M949.16,-1394C1295.55,-1394 2020.92,-1394 2020.92,-1394 2020.92,-1394 2020.92,-846 2020.92,-846 2020.92,-846 2113.12,-846 2113.12,-846"/>
<polygon fill="black" stroke="black" points="2113.12,-849.5 2123.12,-846 2113.12,-842.5 2113.12,-849.5"/>
</g>
<!-- :ui:nowplaying -->
<g id="node15" class="node">
<title>:ui:nowplaying</title>
<ellipse fill="#9affb5" stroke="black" cx="1933.14" cy="-1114" rx="78.79" ry="18"/>
<text text-anchor="middle" x="1933.14" y="-1110.3" font-family="Times,serif" font-size="14.00">:ui:nowplaying</text>
</g>
<!-- :app&#45;&gt;:ui:nowplaying -->
<g id="edge14" class="edge">
<title>:app&#45;&gt;:ui:nowplaying</title>
<path fill="none" stroke="black" stroke-dasharray="1,5" d="M949.42,-1388C1276.26,-1388 1933.14,-1388 1933.14,-1388 1933.14,-1388 1933.14,-1142.4 1933.14,-1142.4"/>
<polygon fill="black" stroke="black" points="1936.64,-1142.4 1933.14,-1132.4 1929.64,-1142.4 1936.64,-1142.4"/>
</g>
<!-- :ui:settings -->
<g id="node16" class="node">
<title>:ui:settings</title>
<ellipse fill="#9affb5" stroke="black" cx="763.14" cy="-1114" rx="63.09" ry="18"/>
<text text-anchor="middle" x="763.14" y="-1110.3" font-family="Times,serif" font-size="14.00">:ui:settings</text>
</g>
<!-- :app&#45;&gt;:ui:settings -->
<g id="edge15" class="edge">
<title>:app&#45;&gt;:ui:settings</title>
<path fill="none" stroke="black" stroke-dasharray="1,5" d="M769.32,-1369.6C769.32,-1369.6 769.32,-1141.97 769.32,-1141.97"/>
<polygon fill="black" stroke="black" points="772.82,-1141.97 769.32,-1131.97 765.82,-1141.97 772.82,-1141.97"/>
</g>
<!-- :ui:spotify&#45;broadcast&#45;receiver -->
<g id="node17" class="node">
<title>:ui:spotify&#45;broadcast&#45;receiver</title>
<ellipse fill="#9affb5" stroke="black" cx="1437.14" cy="-1114" rx="146.77" ry="18"/>
<text text-anchor="middle" x="1437.14" y="-1110.3" font-family="Times,serif" font-size="14.00">:ui:spotify&#45;broadcast&#45;receiver</text>
</g>
<!-- :app&#45;&gt;:ui:spotify&#45;broadcast&#45;receiver -->
<g id="edge16" class="edge">
<title>:app&#45;&gt;:ui:spotify&#45;broadcast&#45;receiver</title>
<path fill="none" stroke="black" stroke-dasharray="1,5" d="M949.47,-1382C1147.31,-1382 1437.14,-1382 1437.14,-1382 1437.14,-1382 1437.14,-1142 1437.14,-1142"/>
<polygon fill="black" stroke="black" points="1440.64,-1142 1437.14,-1132 1433.64,-1142 1440.64,-1142"/>
</g>
<!-- :ui:stats -->
<g id="node18" class="node">
<title>:ui:stats</title>
<ellipse fill="#9affb5" stroke="black" cx="2078.14" cy="-1114" rx="48.19" ry="18"/>
<text text-anchor="middle" x="2078.14" y="-1110.3" font-family="Times,serif" font-size="14.00">:ui:stats</text>
</g>
<!-- :app&#45;&gt;:ui:stats -->
<g id="edge17" class="edge">
<title>:app&#45;&gt;:ui:stats</title>
<path fill="none" stroke="black" stroke-dasharray="1,5" d="M949.29,-1400C1306.87,-1400 2072.09,-1400 2072.09,-1400 2072.09,-1400 2072.09,-1141.89 2072.09,-1141.89"/>
<polygon fill="black" stroke="black" points="2075.59,-1141.89 2072.09,-1131.89 2068.59,-1141.89 2075.59,-1141.89"/>
</g>
<!-- :test&#45;data&#45;&gt;:inverted&#45;domain -->
<g id="edge26" class="edge">
<title>:test&#45;data&#45;&gt;:inverted&#45;domain</title>
<path fill="none" stroke="black" stroke-dasharray="1,5" d="M520.87,-686.47C520.87,-686.47 520.87,-590.1 520.87,-590.1"/>
<polygon fill="black" stroke="black" points="524.37,-590.1 520.87,-580.1 517.37,-590.1 524.37,-590.1"/>
</g>
<!-- :data -->
<g id="node19" class="node">
<title>:data</title>
<ellipse fill="#ffb59a" stroke="black" cx="1536.14" cy="-566" rx="34.39" ry="18"/>
<text text-anchor="middle" x="1536.14" y="-562.3" font-family="Times,serif" font-size="14.00">:data</text>
</g>
<!-- :test&#45;data&#45;&gt;:data -->
<g id="edge25" class="edge">
<title>:test&#45;data&#45;&gt;:data</title>
<path fill="none" stroke="black" stroke-dasharray="1,5" d="M576.11,-688.54C576.11,-652.78 576.11,-563 576.11,-563 576.11,-563 1491.97,-563 1491.97,-563"/>
<polygon fill="black" stroke="black" points="1491.97,-566.5 1501.97,-563 1491.97,-559.5 1491.97,-566.5"/>
</g>
<!-- :data&#45;android&#45;&gt;:test&#45;data -->
<g id="edge19" class="edge">
<title>:data&#45;android&#45;&gt;:test&#45;data</title>
<path fill="none" stroke="#ff9ab1" stroke-dasharray="1,5" d="M545.37,-822.65C545.37,-822.65 545.37,-731.08 545.37,-731.08"/>
<polygon fill="#ff9ab1" stroke="#ff9ab1" points="548.87,-731.08 545.37,-721.08 541.87,-731.08 548.87,-731.08"/>
</g>
<!-- :data&#45;android&#45;&gt;:data -->
<g id="edge18" class="edge">
<title>:data&#45;android&#45;&gt;:data</title>
<path fill="none" stroke="black" d="M614.62,-826.49C614.62,-772.49 614.62,-575 614.62,-575 614.62,-575 1496.27,-575 1496.27,-575"/>
<polygon fill="black" stroke="black" points="1496.27,-578.5 1506.27,-575 1496.27,-571.5 1496.27,-578.5"/>
</g>
<!-- :data:core -->
<g id="node20" class="node">
<title>:data:core</title>
<ellipse fill="#b59aff" stroke="black" cx="1099.14" cy="-18" rx="57.39" ry="18"/>
<text text-anchor="middle" x="1099.14" y="-14.3" font-family="Times,serif" font-size="14.00">:data:core</text>
</g>
<!-- :data:database&#45;&gt;:data:core -->
<g id="edge35" class="edge">
<title>:data:database&#45;&gt;:data:core</title>
<path fill="none" stroke="black" stroke-dasharray="1,5" d="M684.7,-274.86C684.7,-214.87 684.7,-18 684.7,-18 684.7,-18 1031.52,-18 1031.52,-18"/>
<polygon fill="black" stroke="black" points="1031.52,-21.5 1041.52,-18 1031.52,-14.5 1031.52,-21.5"/>
</g>
<!-- :data:common:network -->
<g id="node21" class="node">
<title>:data:common:network</title>
<ellipse fill="#b59aff" stroke="black" cx="1099.14" cy="-155" rx="116.98" ry="18"/>
<text text-anchor="middle" x="1099.14" y="-151.3" font-family="Times,serif" font-size="14.00">:data:common:network</text>
</g>
<!-- :data:database&#45;&gt;:data:common:network -->
<g id="edge36" class="edge">
<title>:data:database&#45;&gt;:data:common:network</title>
<path fill="none" stroke="black" stroke-dasharray="1,5" d="M778.86,-283C862.45,-283 992.54,-283 992.54,-283 992.54,-283 992.54,-172.62 992.54,-172.62"/>
<polygon fill="black" stroke="black" points="996.04,-172.62 992.54,-162.62 989.04,-172.62 996.04,-172.62"/>
</g>
<!-- :data:musicbrainz -->
<g id="node24" class="node">
<title>:data:musicbrainz</title>
<ellipse fill="#b59aff" stroke="black" cx="832.14" cy="-155" rx="93.68" ry="18"/>
<text text-anchor="middle" x="832.14" y="-151.3" font-family="Times,serif" font-size="14.00">:data:musicbrainz</text>
</g>
<!-- :data:database&#45;&gt;:data:musicbrainz -->
<g id="edge37" class="edge">
<title>:data:database&#45;&gt;:data:musicbrainz</title>
<path fill="none" stroke="black" stroke-dasharray="1,5" d="M763.99,-278.61C763.99,-278.61 763.99,-177.44 763.99,-177.44"/>
<polygon fill="black" stroke="black" points="767.49,-177.44 763.99,-167.44 760.49,-177.44 767.49,-177.44"/>
</g>
<!-- :data:repository&#45;&gt;:data:database -->
<g id="edge42" class="edge">
<title>:data:repository&#45;&gt;:data:database</title>
<path fill="none" stroke="black" stroke-dasharray="1,5" d="M127.71,-687.39C127.71,-612.32 127.71,-292 127.71,-292 127.71,-292 620.68,-292 620.68,-292"/>
<polygon fill="black" stroke="black" points="620.68,-295.5 630.68,-292 620.68,-288.5 620.68,-295.5"/>
</g>
<!-- :data:repository&#45;&gt;:inverted&#45;domain -->
<g id="edge44" class="edge">
<title>:data:repository&#45;&gt;:inverted&#45;domain</title>
<path fill="none" stroke="black" stroke-dasharray="1,5" d="M170.66,-703C267.59,-703 412.27,-703 412.27,-703 412.27,-703 412.27,-590.92 412.27,-590.92"/>
<polygon fill="black" stroke="black" points="415.77,-590.92 412.27,-580.92 408.77,-590.92 415.77,-590.92"/>
</g>
<!-- :data:repository&#45;&gt;:data:core -->
<g id="edge41" class="edge">
<title>:data:repository&#45;&gt;:data:core</title>
<path fill="none" stroke="black" stroke-dasharray="1,5" d="M42.57,-687.11C42.57,-583.21 42.57,-5 42.57,-5 42.57,-5 1049.33,-5 1049.33,-5"/>
<polygon fill="black" stroke="black" points="1049.33,-8.5 1059.33,-5 1049.33,-1.5 1049.33,-8.5"/>
</g>
<!-- :data:repository&#45;&gt;:data:musicbrainz -->
<g id="edge43" class="edge">
<title>:data:repository&#45;&gt;:data:musicbrainz</title>
<path fill="none" stroke="black" stroke-dasharray="1,5" d="M85.14,-684.77C85.14,-589.68 85.14,-155 85.14,-155 85.14,-155 728.29,-155 728.29,-155"/>
<polygon fill="black" stroke="black" points="728.29,-158.5 738.29,-155 728.29,-151.5 728.29,-158.5"/>
</g>
<!-- :domain&#45;&gt;:data:database -->
<g id="edge30" class="edge">
<title>:domain&#45;&gt;:data:database</title>
<path fill="none" stroke="black" stroke-dasharray="1,5" d="M807.93,-429C788.93,-429 771.57,-429 771.57,-429 771.57,-429 771.57,-313.68 771.57,-313.68"/>
<polygon fill="black" stroke="black" points="775.07,-313.68 771.57,-303.68 768.07,-313.68 775.07,-313.68"/>
</g>
<!-- :domain&#45;&gt;:data:core -->
<g id="edge27" class="edge">
<title>:domain&#45;&gt;:data:core</title>
<path fill="none" stroke="black" stroke-dasharray="1,5" d="M897.9,-420C924.48,-420 953.94,-420 953.94,-420 953.94,-420 953.94,-30 953.94,-30 953.94,-30 1046.36,-30 1046.36,-30"/>
<polygon fill="black" stroke="black" points="1046.36,-33.5 1056.36,-30 1046.36,-26.5 1046.36,-33.5"/>
</g>
<!-- :domain&#45;&gt;:data:common:network -->
<g id="edge28" class="edge">
<title>:domain&#45;&gt;:data:common:network</title>
<path fill="none" stroke="black" stroke-dasharray="1,5" d="M904.27,-429C944.73,-429 996,-429 996,-429 996,-429 996,-173.5 996,-173.5"/>
<polygon fill="black" stroke="black" points="999.5,-173.5 996,-163.5 992.5,-173.5 999.5,-173.5"/>
</g>
<!-- :data:coverart -->
<g id="node22" class="node">
<title>:data:coverart</title>
<ellipse fill="#b59aff" stroke="black" cx="1244.14" cy="-292" rx="76.09" ry="18"/>
<text text-anchor="middle" x="1244.14" y="-288.3" font-family="Times,serif" font-size="14.00">:data:coverart</text>
</g>
<!-- :domain&#45;&gt;:data:coverart -->
<g id="edge29" class="edge">
<title>:domain&#45;&gt;:data:coverart</title>
<path fill="none" stroke="black" stroke-dasharray="1,5" d="M872.17,-411.93C872.17,-375.2 872.17,-292 872.17,-292 872.17,-292 1157.97,-292 1157.97,-292"/>
<polygon fill="black" stroke="black" points="1157.97,-295.5 1167.97,-292 1157.97,-288.5 1157.97,-295.5"/>
</g>
<!-- :domain&#45;&gt;:data:musicbrainz -->
<g id="edge31" class="edge">
<title>:domain&#45;&gt;:data:musicbrainz</title>
<path fill="none" stroke="black" stroke-dasharray="1,5" d="M840.11,-411.86C840.11,-411.86 840.11,-183.2 840.11,-183.2"/>
<polygon fill="black" stroke="black" points="843.61,-183.2 840.11,-173.2 836.61,-183.2 843.61,-183.2"/>
</g>
<!-- :inverted&#45;domain&#45;&gt;:domain -->
<g id="edge33" class="edge">
<title>:inverted&#45;domain&#45;&gt;:domain</title>
<path fill="none" stroke="black" stroke-dasharray="1,5" d="M541.9,-557C644.06,-557 810.64,-557 810.64,-557 810.64,-557 810.64,-444.83 810.64,-444.83"/>
<polygon fill="black" stroke="black" points="814.14,-444.83 810.64,-434.83 807.14,-444.83 814.14,-444.83"/>
</g>
<!-- :inverted&#45;domain&#45;&gt;:data:core -->
<g id="edge32" class="edge">
<title>:inverted&#45;domain&#45;&gt;:data:core</title>
<path fill="none" stroke="black" stroke-dasharray="1,5" d="M464.14,-547.88C464.14,-452.4 464.14,-12 464.14,-12 464.14,-12 1035,-12 1035,-12"/>
<polygon fill="black" stroke="black" points="1035,-15.5 1045,-12 1035,-8.5 1035,-15.5"/>
</g>
<!-- :feature:search&#45;&gt;:data:database -->
<g id="edge47" class="edge">
<title>:feature:search&#45;&gt;:data:database</title>
<path fill="none" stroke="black" stroke-dasharray="1,5" d="M911.4,-1095.88C911.4,-975.92 911.4,-301 911.4,-301 911.4,-301 788.84,-301 788.84,-301"/>
<polygon fill="black" stroke="black" points="788.84,-297.5 778.84,-301 788.84,-304.5 788.84,-297.5"/>
</g>
<!-- :feature:search&#45;&gt;:domain -->
<g id="edge46" class="edge">
<title>:feature:search&#45;&gt;:domain</title>
<path fill="none" stroke="black" stroke-dasharray="1,5" d="M858.98,-1103.51C858.98,-1103.51 858.98,-457.03 858.98,-457.03"/>
<polygon fill="black" stroke="black" points="862.48,-457.03 858.98,-447.03 855.48,-457.03 862.48,-457.03"/>
</g>
<!-- :feature:search&#45;&gt;:strings -->
<g id="edge48" class="edge">
<title>:feature:search&#45;&gt;:strings</title>
<path fill="none" stroke="black" stroke-dasharray="1,5" d="M999.46,-1106.67C999.46,-1063.1 999.46,-840 999.46,-840 999.46,-840 1014.94,-840 1014.94,-840"/>
<polygon fill="black" stroke="black" points="1014.94,-843.5 1024.94,-840 1014.94,-836.5 1014.94,-843.5"/>
</g>
<!-- :feature:search&#45;&gt;:ui:common -->
<g id="edge49" class="edge">
<title>:feature:search&#45;&gt;:ui:common</title>
<path fill="none" stroke="black" stroke-dasharray="1,5" d="M1002.92,-1108.67C1002.92,-1084.94 1002.92,-990 1002.92,-990 1002.92,-990 1337.49,-990 1337.49,-990"/>
<polygon fill="black" stroke="black" points="1337.49,-993.5 1347.49,-990 1337.49,-986.5 1337.49,-993.5"/>
</g>
<!-- :feature:search&#45;&gt;:ui:core -->
<g id="edge50" class="edge">
<title>:feature:search&#45;&gt;:ui:core</title>
<path fill="none" stroke="black" stroke-dasharray="1,5" d="M989.08,-1102.63C989.08,-1036.58 989.08,-705 989.08,-705 989.08,-705 1410.83,-705 1410.83,-705"/>
<polygon fill="black" stroke="black" points="1410.83,-708.5 1420.83,-705 1410.83,-701.5 1410.83,-708.5"/>
</g>
<!-- :feature:search&#45;&gt;:data -->
<g id="edge45" class="edge">
<title>:feature:search&#45;&gt;:data</title>
<path fill="none" stroke="black" stroke-dasharray="1,5" d="M985.61,-1101.87C985.61,-1022.53 985.61,-581 985.61,-581 985.61,-581 1506.87,-581 1506.87,-581"/>
<polygon fill="black" stroke="black" points="1506.87,-584.5 1516.87,-581 1506.87,-577.5 1506.87,-584.5"/>
</g>
<!-- :ui:test:screenshot -->
<g id="node26" class="node">
<title>:ui:test:screenshot</title>
<ellipse fill="#9affb5" stroke="black" cx="1435.14" cy="-840" rx="96.68" ry="18"/>
<text text-anchor="middle" x="1435.14" y="-836.3" font-family="Times,serif" font-size="14.00">:ui:test:screenshot</text>
</g>
<!-- :feature:search&#45;&gt;:ui:test:screenshot -->
<g id="edge51" class="edge">
<title>:feature:search&#45;&gt;:ui:test:screenshot</title>
<path fill="none" stroke="#ff9ab1" stroke-dasharray="1,5" d="M1006.58,-1114C1065.29,-1114 1134.23,-1114 1134.23,-1114 1134.23,-1114 1134.23,-836 1134.23,-836 1134.23,-836 1330.34,-836 1330.34,-836"/>
<polygon fill="#ff9ab1" stroke="#ff9ab1" points="1330.34,-839.5 1340.34,-836 1330.34,-832.5 1330.34,-839.5"/>
</g>
<!-- :ui:common&#45;&gt;:data&#45;android -->
<g id="edge69" class="edge">
<title>:ui:common&#45;&gt;:data&#45;android</title>
<path fill="none" stroke="orange" d="M1330.12,-972C1147.8,-972 626.3,-972 626.3,-972 626.3,-972 626.3,-859.92 626.3,-859.92"/>
<polygon fill="orange" stroke="orange" points="629.8,-859.92 626.3,-849.92 622.8,-859.92 629.8,-859.92"/>
</g>
<!-- :ui:common&#45;&gt;:data:database -->
<g id="edge70" class="edge">
<title>:ui:common&#45;&gt;:data:database</title>
<path fill="none" stroke="orange" d="M1336.19,-968C1177.47,-968 735.83,-968 735.83,-968 735.83,-968 735.83,-319.05 735.83,-319.05"/>
<polygon fill="orange" stroke="orange" points="739.33,-319.05 735.83,-309.05 732.33,-319.05 739.33,-319.05"/>
</g>
<!-- :ui:common&#45;&gt;:domain -->
<g id="edge71" class="edge">
<title>:ui:common&#45;&gt;:domain</title>
<path fill="none" stroke="black" stroke-dasharray="1,5" d="M1351.41,-963C1231.66,-963 889.15,-963 889.15,-963 889.15,-963 889.15,-452.2 889.15,-452.2"/>
<polygon fill="black" stroke="black" points="892.65,-452.2 889.15,-442.2 885.65,-452.2 892.65,-452.2"/>
</g>
<!-- :ui:common&#45;&gt;:strings -->
<g id="edge72" class="edge">
<title>:ui:common&#45;&gt;:strings</title>
<path fill="none" stroke="black" stroke-dasharray="1,5" d="M1331.3,-971.01C1331.3,-943.33 1331.3,-829 1331.3,-829 1331.3,-829 1117.86,-829 1117.86,-829"/>
<polygon fill="black" stroke="black" points="1117.86,-825.5 1107.86,-829 1117.86,-832.5 1117.86,-825.5"/>
</g>
<!-- :ui:common&#45;&gt;:ui:core -->
<g id="edge73" class="edge">
<title>:ui:common&#45;&gt;:ui:core</title>
<path fill="none" stroke="red" d="M1334.8,-968.72C1334.8,-923.65 1334.8,-710 1334.8,-710 1334.8,-710 1414.22,-710 1414.22,-710"/>
<polygon fill="red" stroke="red" points="1414.22,-713.5 1424.22,-710 1414.22,-706.5 1414.22,-713.5"/>
</g>
<!-- :ui:common&#45;&gt;:ui:image -->
<g id="edge74" class="edge">
<title>:ui:common&#45;&gt;:ui:image</title>
<path fill="none" stroke="red" d="M1453.05,-971C1634.71,-971 2160.19,-971 2160.19,-971 2160.19,-971 2160.19,-867.4 2160.19,-867.4"/>
<polygon fill="red" stroke="red" points="2163.69,-867.4 2160.19,-857.4 2156.69,-867.4 2163.69,-867.4"/>
</g>
<!-- :ui:common&#45;&gt;:ui:test:screenshot -->
<g id="edge76" class="edge">
<title>:ui:common&#45;&gt;:ui:test:screenshot</title>
<path fill="none" stroke="#ff9ab1" d="M1417.09,-960.2C1417.09,-960.2 1417.09,-867.8 1417.09,-867.8"/>
<polygon fill="#ff9ab1" stroke="#ff9ab1" points="1420.59,-867.8 1417.09,-857.8 1413.59,-867.81 1420.59,-867.8"/>
</g>
<!-- :ui:test:image -->
<g id="node27" class="node">
<title>:ui:test:image</title>
<ellipse fill="#9affb5" stroke="black" cx="1793.14" cy="-840" rx="74.99" ry="18"/>
<text text-anchor="middle" x="1793.14" y="-836.3" font-family="Times,serif" font-size="14.00">:ui:test:image</text>
</g>
<!-- :ui:common&#45;&gt;:ui:test:image -->
<g id="edge75" class="edge">
<title>:ui:common&#45;&gt;:ui:test:image</title>
<path fill="none" stroke="#ff9ab1" d="M1440.24,-965C1531.98,-965 1722.93,-965 1722.93,-965 1722.93,-965 1722.93,-856.37 1722.93,-856.37"/>
<polygon fill="#ff9ab1" stroke="#ff9ab1" points="1726.43,-856.37 1722.93,-846.37 1719.43,-856.37 1726.43,-856.37"/>
</g>
<!-- :ui:collections&#45;&gt;:data&#45;android -->
<g id="edge84" class="edge">
<title>:ui:collections&#45;&gt;:data&#45;android</title>
<path fill="none" stroke="orange" d="M603.03,-1241.25C603.03,-1241.25 603.03,-865.58 603.03,-865.58"/>
<polygon fill="orange" stroke="orange" points="606.53,-865.58 603.03,-855.58 599.53,-865.58 606.53,-865.58"/>
</g>
<!-- :ui:collections&#45;&gt;:data:database -->
<g id="edge83" class="edge">
<title>:ui:collections&#45;&gt;:data:database</title>
<path fill="none" stroke="orange" d="M658.66,-1232.7C658.66,-1232.7 658.66,-315.75 658.66,-315.75"/>
<polygon fill="orange" stroke="orange" points="662.16,-315.75 658.66,-305.75 655.16,-315.75 662.16,-315.75"/>
</g>
<!-- :ui:collections&#45;&gt;:domain -->
<g id="edge85" class="edge">
<title>:ui:collections&#45;&gt;:domain</title>
<path fill="none" stroke="black" stroke-dasharray="1,5" d="M713.45,-1237C762.24,-1237 831.25,-1237 831.25,-1237 831.25,-1237 831.25,-454.42 831.25,-454.42"/>
<polygon fill="black" stroke="black" points="834.75,-454.42 831.25,-444.42 827.75,-454.42 834.75,-454.42"/>
</g>
<!-- :ui:collections&#45;&gt;:inverted&#45;domain -->
<g id="edge86" class="edge">
<title>:ui:collections&#45;&gt;:inverted&#45;domain</title>
<path fill="none" stroke="black" stroke-dasharray="1,5" d="M648.3,-1233.19C648.3,-1126.06 648.3,-572 648.3,-572 648.3,-572 558.94,-572 558.94,-572"/>
<polygon fill="black" stroke="black" points="558.94,-568.5 548.94,-572 558.94,-575.5 558.94,-568.5"/>
</g>
<!-- :ui:collections&#45;&gt;:strings -->
<g id="edge87" class="edge">
<title>:ui:collections&#45;&gt;:strings</title>
<path fill="none" stroke="black" stroke-dasharray="1,5" d="M728.36,-1241C834.78,-1241 1040.38,-1241 1040.38,-1241 1040.38,-1241 1040.38,-863.8 1040.38,-863.8"/>
<polygon fill="black" stroke="black" points="1043.88,-863.8 1040.38,-853.8 1036.88,-863.8 1043.88,-863.8"/>
</g>
<!-- :ui:collections&#45;&gt;:ui:common -->
<g id="edge88" class="edge">
<title>:ui:collections&#45;&gt;:ui:common</title>
<path fill="none" stroke="red" d="M689.74,-1233.86C689.74,-1173.87 689.74,-977 689.74,-977 689.74,-977 1317.63,-977 1317.63,-977"/>
<polygon fill="red" stroke="red" points="1317.63,-980.5 1327.63,-977 1317.63,-973.5 1317.63,-980.5"/>
</g>
<!-- :ui:collections&#45;&gt;:ui:core -->
<g id="edge89" class="edge">
<title>:ui:collections&#45;&gt;:ui:core</title>
<path fill="none" stroke="red" d="M679.38,-1233.28C679.38,-1137.92 679.38,-690 679.38,-690 679.38,-690 1424.33,-690 1424.33,-690"/>
<polygon fill="red" stroke="red" points="1424.33,-693.5 1434.33,-690 1424.33,-686.5 1424.33,-693.5"/>
</g>
<!-- :ui:collections&#45;&gt;:ui:settings -->
<g id="edge90" class="edge">
<title>:ui:collections&#45;&gt;:ui:settings</title>
<path fill="none" stroke="red" d="M720.49,-1238.36C720.49,-1238.36 720.49,-1137.42 720.49,-1137.42"/>
<polygon fill="red" stroke="red" points="723.99,-1137.42 720.49,-1127.42 716.99,-1137.42 723.99,-1137.42"/>
</g>
<!-- :ui:collections&#45;&gt;:data -->
<g id="edge82" class="edge">
<title>:ui:collections&#45;&gt;:data</title>
<path fill="none" stroke="orange" d="M669.02,-1233C669.02,-1125.97 669.02,-578 669.02,-578 669.02,-578 1500.19,-578 1500.19,-578"/>
<polygon fill="orange" stroke="orange" points="1500.19,-581.5 1510.19,-578 1500.19,-574.5 1500.19,-581.5"/>
</g>
<!-- :ui:collections&#45;&gt;:ui:test:screenshot -->
<g id="edge91" class="edge">
<title>:ui:collections&#45;&gt;:ui:test:screenshot</title>
<path fill="none" stroke="#ff9ab1" d="M736.67,-1257C871.19,-1257 1151.16,-1257 1151.16,-1257 1151.16,-1257 1151.16,-843 1151.16,-843 1151.16,-843 1329.4,-843 1329.4,-843"/>
<polygon fill="#ff9ab1" stroke="#ff9ab1" points="1329.4,-846.5 1339.4,-843 1329.4,-839.5 1329.4,-846.5"/>
</g>
<!-- :ui:history&#45;&gt;:domain -->
<g id="edge98" class="edge">
<title>:ui:history&#45;&gt;:domain</title>
<path fill="none" stroke="black" stroke-dasharray="1,5" d="M1619.5,-1245C1504.82,-1245 1249.54,-1245 1249.54,-1245 1249.54,-1245 1249.54,-438 1249.54,-438 1249.54,-438 907.87,-438 907.87,-438"/>
<polygon fill="black" stroke="black" points="907.87,-434.5 897.87,-438 907.87,-441.5 907.87,-434.5"/>
</g>
<!-- :ui:history&#45;&gt;:inverted&#45;domain -->
<g id="edge99" class="edge">
<title>:ui:history&#45;&gt;:inverted&#45;domain</title>
<path fill="none" stroke="black" stroke-dasharray="1,5" d="M1616.62,-1249C1492.12,-1249 1208.82,-1249 1208.82,-1249 1208.82,-1249 1208.82,-566 1208.82,-566 1208.82,-566 563.97,-566 563.97,-566"/>
<polygon fill="black" stroke="black" points="563.97,-562.5 553.97,-566 563.97,-569.5 563.97,-562.5"/>
</g>
<!-- :ui:history&#45;&gt;:strings -->
<g id="edge100" class="edge">
<title>:ui:history&#45;&gt;:strings</title>
<path fill="none" stroke="black" stroke-dasharray="1,5" d="M1616.6,-1253C1465.87,-1253 1071.14,-1253 1071.14,-1253 1071.14,-1253 1071.14,-868.01 1071.14,-868.01"/>
<polygon fill="black" stroke="black" points="1074.64,-868.01 1071.14,-858.01 1067.64,-868.01 1074.64,-868.01"/>
</g>
<!-- :ui:history&#45;&gt;:ui:common -->
<g id="edge101" class="edge">
<title>:ui:history&#45;&gt;:ui:common</title>
<path fill="none" stroke="red" d="M1633.31,-1238.01C1633.31,-1185.14 1633.31,-989 1633.31,-989 1633.31,-989 1450.37,-989 1450.37,-989"/>
<polygon fill="red" stroke="red" points="1450.37,-985.5 1440.37,-989 1450.37,-992.5 1450.37,-985.5"/>
</g>
<!-- :ui:history&#45;&gt;:ui:core -->
<g id="edge102" class="edge">
<title>:ui:history&#45;&gt;:ui:core</title>
<path fill="none" stroke="red" d="M1667.35,-1233C1667.35,-1139.13 1667.35,-710 1667.35,-710 1667.35,-710 1518.32,-710 1518.32,-710"/>
<polygon fill="red" stroke="red" points="1518.32,-706.5 1508.32,-710 1518.32,-713.5 1518.32,-706.5"/>
</g>
<!-- :ui:history&#45;&gt;:ui:image -->
<g id="edge103" class="edge">
<title>:ui:history&#45;&gt;:ui:image</title>
<path fill="none" stroke="red" d="M1732.03,-1251C1867.57,-1251 2194.14,-1251 2194.14,-1251 2194.14,-1251 2194.14,-866.88 2194.14,-866.88"/>
<polygon fill="red" stroke="red" points="2197.64,-866.88 2194.14,-856.88 2190.64,-866.88 2197.64,-866.88"/>
</g>
<!-- :ui:history&#45;&gt;:ui:settings -->
<g id="edge104" class="edge">
<title>:ui:history&#45;&gt;:ui:settings</title>
<path fill="none" stroke="red" d="M1625.78,-1261C1442.05,-1261 797.75,-1261 797.75,-1261 797.75,-1261 797.75,-1139.18 797.75,-1139.18"/>
<polygon fill="red" stroke="red" points="801.25,-1139.18 797.75,-1129.18 794.25,-1139.18 801.25,-1139.18"/>
</g>
<!-- :ui:history&#45;&gt;:data -->
<g id="edge97" class="edge">
<title>:ui:history&#45;&gt;:data</title>
<path fill="none" stroke="orange" d="M1684.37,-1233.27C1684.37,-1126.61 1684.37,-575 1684.37,-575 1684.37,-575 1576.14,-575 1576.14,-575"/>
<polygon fill="orange" stroke="orange" points="1576.14,-571.5 1566.14,-575 1576.14,-578.5 1576.14,-571.5"/>
</g>
<!-- :ui:history&#45;&gt;:ui:test:screenshot -->
<g id="edge106" class="edge">
<title>:ui:history&#45;&gt;:ui:test:screenshot</title>
<path fill="none" stroke="#ff9ab1" d="M1650.33,-1234.37C1650.33,-1158.16 1650.33,-846 1650.33,-846 1650.33,-846 1536.71,-846 1536.71,-846"/>
<polygon fill="#ff9ab1" stroke="#ff9ab1" points="1536.71,-842.5 1526.71,-846 1536.71,-849.5 1536.71,-842.5"/>
</g>
<!-- :ui:history&#45;&gt;:ui:test:image -->
<g id="edge105" class="edge">
<title>:ui:history&#45;&gt;:ui:test:image</title>
<path fill="none" stroke="#ff9ab1" d="M1727.46,-1243.87C1727.46,-1243.87 1727.46,-858.68 1727.46,-858.68"/>
<polygon fill="#ff9ab1" stroke="#ff9ab1" points="1730.96,-858.68 1727.46,-848.68 1723.96,-858.68 1730.96,-858.68"/>
</g>
<!-- :ui:image&#45;&gt;:ui:core -->
<g id="edge53" class="edge">
<title>:ui:image&#45;&gt;:ui:core</title>
<path fill="none" stroke="red" d="M2156.16,-822.8C2156.16,-784.39 2156.16,-695 2156.16,-695 2156.16,-695 1516.98,-695 1516.98,-695"/>
<polygon fill="red" stroke="red" points="1516.98,-691.5 1506.98,-695 1516.98,-698.5 1516.98,-691.5"/>
</g>
<!-- :ui:image&#45;&gt;:data:core -->
<g id="edge52" class="edge">
<title>:ui:image&#45;&gt;:data:core</title>
<path fill="none" stroke="orange" d="M2192.12,-822.94C2192.12,-704.14 2192.12,-5 2192.12,-5 2192.12,-5 1149.01,-5 1149.01,-5"/>
<polygon fill="orange" stroke="orange" points="1149.01,-1.5 1139.01,-5 1149.01,-8.5 1149.01,-1.5"/>
</g>
<!-- :ui:nowplaying&#45;&gt;:domain -->
<g id="edge62" class="edge">
<title>:ui:nowplaying&#45;&gt;:domain</title>
<path fill="none" stroke="black" stroke-dasharray="1,5" d="M1857.18,-1109.22C1857.18,-1098.8 1857.18,-1075 1857.18,-1075 1857.18,-1075 874.07,-1075 874.07,-1075 874.07,-1075 874.07,-455.95 874.07,-455.95"/>
<polygon fill="black" stroke="black" points="877.57,-455.95 874.07,-445.95 870.57,-455.95 877.57,-455.95"/>
</g>
<!-- :ui:nowplaying&#45;&gt;:strings -->
<g id="edge63" class="edge">
<title>:ui:nowplaying&#45;&gt;:strings</title>
<path fill="none" stroke="black" stroke-dasharray="1,5" d="M1859.85,-1107.23C1859.85,-1091.73 1859.85,-1055 1859.85,-1055 1859.85,-1055 1086.52,-1055 1086.52,-1055 1086.52,-1055 1086.52,-867.23 1086.52,-867.23"/>
<polygon fill="black" stroke="black" points="1090.02,-867.23 1086.52,-857.23 1083.02,-867.23 1090.02,-867.23"/>
</g>
<!-- :ui:nowplaying&#45;&gt;:ui:common -->
<g id="edge64" class="edge">
<title>:ui:nowplaying&#45;&gt;:ui:common</title>
<path fill="none" stroke="red" d="M1862.53,-1105.81C1862.53,-1077.13 1862.53,-983 1862.53,-983 1862.53,-983 1463.16,-983 1463.16,-983"/>
<polygon fill="red" stroke="red" points="1463.16,-979.5 1453.16,-983 1463.16,-986.5 1463.16,-979.5"/>
</g>
<!-- :ui:nowplaying&#45;&gt;:ui:core -->
<g id="edge65" class="edge">
<title>:ui:nowplaying&#45;&gt;:ui:core</title>
<path fill="none" stroke="red" d="M1903.86,-1097.2C1903.86,-1020.24 1903.86,-705 1903.86,-705 1903.86,-705 1521.75,-705 1521.75,-705"/>
<polygon fill="red" stroke="red" points="1521.75,-701.5 1511.75,-705 1521.75,-708.5 1521.75,-701.5"/>
</g>
<!-- :ui:nowplaying&#45;&gt;:ui:image -->
<g id="edge66" class="edge">
<title>:ui:nowplaying&#45;&gt;:ui:image</title>
<path fill="none" stroke="red" d="M1975.81,-1098.55C1975.81,-1039.85 1975.81,-834 1975.81,-834 1975.81,-834 2113.07,-834 2113.07,-834"/>
<polygon fill="red" stroke="red" points="2113.07,-837.5 2123.07,-834 2113.07,-830.5 2113.07,-837.5"/>
</g>
<!-- :ui:nowplaying&#45;&gt;:data -->
<g id="edge61" class="edge">
<title>:ui:nowplaying&#45;&gt;:data</title>
<path fill="none" stroke="orange" d="M1939.84,-1095.77C1939.84,-1000.68 1939.84,-566 1939.84,-566 1939.84,-566 1580.91,-566 1580.91,-566"/>
<polygon fill="orange" stroke="orange" points="1580.91,-562.5 1570.91,-566 1580.91,-569.5 1580.91,-562.5"/>
</g>
<!-- :ui:nowplaying&#45;&gt;:ui:test:screenshot -->
<g id="edge68" class="edge">
<title>:ui:nowplaying&#45;&gt;:ui:test:screenshot</title>
<path fill="none" stroke="#ff9ab1" d="M1854.36,-1114C1787.17,-1114 1701.38,-1114 1701.38,-1114 1701.38,-1114 1701.38,-834 1701.38,-834 1701.38,-834 1536.77,-834 1536.77,-834"/>
<polygon fill="#ff9ab1" stroke="#ff9ab1" points="1536.77,-830.5 1526.77,-834 1536.77,-837.5 1536.77,-830.5"/>
</g>
<!-- :ui:nowplaying&#45;&gt;:ui:test:image -->
<g id="edge67" class="edge">
<title>:ui:nowplaying&#45;&gt;:ui:test:image</title>
<path fill="none" stroke="#ff9ab1" d="M1865.21,-1104.88C1865.21,-1104.88 1865.21,-854.98 1865.21,-854.98"/>
<polygon fill="#ff9ab1" stroke="#ff9ab1" points="1868.71,-854.98 1865.21,-844.98 1861.71,-854.98 1868.71,-854.98"/>
</g>
<!-- :ui:settings&#45;&gt;:data&#45;android -->
<g id="edge54" class="edge">
<title>:ui:settings&#45;&gt;:data&#45;android</title>
<path fill="none" stroke="orange" d="M699.75,-1114C659.39,-1114 614.67,-1114 614.67,-1114 614.67,-1114 614.67,-863.22 614.67,-863.22"/>
<polygon fill="orange" stroke="orange" points="618.17,-863.22 614.67,-853.22 611.17,-863.22 618.17,-863.22"/>
</g>
<!-- :ui:settings&#45;&gt;:domain -->
<g id="edge55" class="edge">
<title>:ui:settings&#45;&gt;:domain</title>
<path fill="none" stroke="black" stroke-dasharray="1,5" d="M813.23,-1102.96C813.23,-1102.96 813.23,-447.31 813.23,-447.31"/>
<polygon fill="black" stroke="black" points="816.73,-447.31 813.23,-437.31 809.73,-447.31 816.73,-447.31"/>
</g>
<!-- :ui:settings&#45;&gt;:inverted&#45;domain -->
<g id="edge56" class="edge">
<title>:ui:settings&#45;&gt;:inverted&#45;domain</title>
<path fill="none" stroke="black" stroke-dasharray="1,5" d="M717.97,-1101.33C717.97,-1019.5 717.97,-569 717.97,-569 717.97,-569 562.92,-569 562.92,-569"/>
<polygon fill="black" stroke="black" points="562.92,-565.5 552.92,-569 562.92,-572.5 562.92,-565.5"/>
</g>
<!-- :ui:settings&#45;&gt;:strings -->
<g id="edge57" class="edge">
<title>:ui:settings&#45;&gt;:strings</title>
<path fill="none" stroke="black" stroke-dasharray="1,5" d="M818.41,-1105.22C818.41,-1057.45 818.41,-831 818.41,-831 818.41,-831 1021.1,-831 1021.1,-831"/>
<polygon fill="black" stroke="black" points="1021.1,-834.5 1031.1,-831 1021.1,-827.5 1021.1,-834.5"/>
</g>
<!-- :ui:settings&#45;&gt;:ui:common -->
<g id="edge58" class="edge">
<title>:ui:settings&#45;&gt;:ui:common</title>
<path fill="none" stroke="red" d="M823.6,-1108.62C823.6,-1083.74 823.6,-981 823.6,-981 823.6,-981 1319.4,-981 1319.4,-981"/>
<polygon fill="red" stroke="red" points="1319.4,-984.5 1329.4,-981 1319.4,-977.5 1319.4,-984.5"/>
</g>
<!-- :ui:settings&#45;&gt;:ui:core -->
<g id="edge59" class="edge">
<title>:ui:settings&#45;&gt;:ui:core</title>
<path fill="none" stroke="red" d="M815.82,-1104.06C815.82,-1040.6 815.82,-695 815.82,-695 815.82,-695 1414.97,-695 1414.97,-695"/>
<polygon fill="red" stroke="red" points="1414.97,-698.5 1424.97,-695 1414.97,-691.5 1414.97,-698.5"/>
</g>
<!-- :ui:settings&#45;&gt;:ui:test:screenshot -->
<g id="edge60" class="edge">
<title>:ui:settings&#45;&gt;:ui:test:screenshot</title>
<path fill="none" stroke="#ff9ab1" d="M821,-1106.67C821,-1069.97 821,-908 821,-908 821,-908 1377.7,-908 1377.7,-908 1377.7,-908 1377.7,-864.75 1377.7,-864.75"/>
<polygon fill="#ff9ab1" stroke="#ff9ab1" points="1381.2,-864.75 1377.7,-854.75 1374.2,-864.76 1381.2,-864.75"/>
</g>
<!-- :ui:spotify&#45;broadcast&#45;receiver&#45;&gt;:strings -->
<g id="edge80" class="edge">
<title>:ui:spotify&#45;broadcast&#45;receiver&#45;&gt;:strings</title>
<path fill="none" stroke="black" stroke-dasharray="1,5" d="M1297.92,-1107.99C1297.92,-1068.69 1297.92,-850 1297.92,-850 1297.92,-850 1119.61,-850 1119.61,-850"/>
<polygon fill="black" stroke="black" points="1119.61,-846.5 1109.61,-850 1119.61,-853.5 1119.61,-846.5"/>
</g>
<!-- :ui:spotify&#45;broadcast&#45;receiver&#45;&gt;:ui:common -->
<g id="edge79" class="edge">
<title>:ui:spotify&#45;broadcast&#45;receiver&#45;&gt;:ui:common</title>
<path fill="none" stroke="red" d="M1392.14,-1096.65C1392.14,-1096.65 1392.14,-1005.08 1392.14,-1005.08"/>
<polygon fill="red" stroke="red" points="1395.64,-1005.08 1392.14,-995.08 1388.64,-1005.08 1395.64,-1005.08"/>
</g>
<!-- :ui:spotify&#45;broadcast&#45;receiver&#45;&gt;:ui:core -->
<g id="edge78" class="edge">
<title>:ui:spotify&#45;broadcast&#45;receiver&#45;&gt;:ui:core</title>
<path fill="none" stroke="red" d="M1551.29,-1102.49C1551.29,-1037.07 1551.29,-715 1551.29,-715 1551.29,-715 1510.28,-715 1510.28,-715"/>
<polygon fill="red" stroke="red" points="1510.28,-711.5 1500.28,-715 1510.28,-718.5 1510.28,-711.5"/>
</g>
<!-- :ui:spotify&#45;broadcast&#45;receiver&#45;&gt;:data:core -->
<g id="edge77" class="edge">
<title>:ui:spotify&#45;broadcast&#45;receiver&#45;&gt;:data:core</title>
<path fill="none" stroke="orange" d="M1577.31,-1108.59C1577.31,-1025.46 1577.31,-12 1577.31,-12 1577.31,-12 1163.53,-12 1163.53,-12"/>
<polygon fill="orange" stroke="orange" points="1163.53,-8.5 1153.53,-12 1163.53,-15.5 1163.53,-8.5"/>
</g>
<!-- :ui:spotify&#45;broadcast&#45;receiver&#45;&gt;:ui:test:screenshot -->
<g id="edge81" class="edge">
<title>:ui:spotify&#45;broadcast&#45;receiver&#45;&gt;:ui:test:screenshot</title>
<path fill="none" stroke="#ff9ab1" d="M1481.65,-1096.44C1481.65,-1096.44 1481.65,-866.02 1481.65,-866.02"/>
<polygon fill="#ff9ab1" stroke="#ff9ab1" points="1485.15,-866.02 1481.65,-856.02 1478.15,-866.02 1485.15,-866.02"/>
</g>
<!-- :ui:stats&#45;&gt;:strings -->
<g id="edge95" class="edge">
<title>:ui:stats&#45;&gt;:strings</title>
<path fill="none" stroke="black" stroke-dasharray="1,5" d="M2045.07,-1100.6C2045.07,-1078.06 2045.07,-1035 2045.07,-1035 2045.07,-1035 1101.91,-1035 1101.91,-1035 1101.91,-1035 1101.91,-863.71 1101.91,-863.71"/>
<polygon fill="black" stroke="black" points="1105.41,-863.71 1101.91,-853.71 1098.41,-863.71 1105.41,-863.71"/>
</g>
<!-- :ui:stats&#45;&gt;:ui:common -->
<g id="edge93" class="edge">
<title>:ui:stats&#45;&gt;:ui:common</title>
<path fill="none" stroke="red" d="M2075.12,-1095.81C2075.12,-1058.54 2075.12,-977 2075.12,-977 2075.12,-977 1466.7,-977 1466.7,-977"/>
<polygon fill="red" stroke="red" points="1466.7,-973.5 1456.7,-977 1466.7,-980.5 1466.7,-973.5"/>
</g>
<!-- :ui:stats&#45;&gt;:ui:core -->
<g id="edge94" class="edge">
<title>:ui:stats&#45;&gt;:ui:core</title>
<path fill="none" stroke="red" d="M2090.15,-1096.48C2090.15,-1017.68 2090.15,-700 2090.15,-700 2090.15,-700 1521.02,-700 1521.02,-700"/>
<polygon fill="red" stroke="red" points="1521.02,-696.5 1511.02,-700 1521.02,-703.5 1521.02,-696.5"/>
</g>
<!-- :ui:stats&#45;&gt;:data -->
<g id="edge92" class="edge">
<title>:ui:stats&#45;&gt;:data</title>
<path fill="none" stroke="orange" d="M2105.17,-1099.1C2105.17,-1010.52 2105.17,-557 2105.17,-557 2105.17,-557 1576.33,-557 1576.33,-557"/>
<polygon fill="orange" stroke="orange" points="1576.33,-553.5 1566.33,-557 1576.33,-560.5 1576.33,-553.5"/>
</g>
<!-- :ui:stats&#45;&gt;:ui:test:screenshot -->
<g id="edge96" class="edge">
<title>:ui:stats&#45;&gt;:ui:test:screenshot</title>
<path fill="none" stroke="#ff9ab1" d="M2060.1,-1097.21C2060.1,-1068.96 2060.1,-1015 2060.1,-1015 2060.1,-1015 1506.82,-1015 1506.82,-1015 1506.82,-1015 1506.82,-862.31 1506.82,-862.31"/>
<polygon fill="#ff9ab1" stroke="#ff9ab1" points="1510.32,-862.31 1506.82,-852.31 1503.32,-862.31 1510.32,-862.31"/>
</g>
<!-- :data&#45;&gt;:data:core -->
<g id="edge20" class="edge">
<title>:data&#45;&gt;:data:core</title>
<path fill="none" stroke="black" d="M1547.62,-549C1547.62,-456.5 1547.62,-18 1547.62,-18 1547.62,-18 1166.4,-18 1166.4,-18"/>
<polygon fill="black" stroke="black" points="1166.4,-14.5 1156.4,-18 1166.4,-21.5 1166.4,-14.5"/>
</g>
<!-- :data&#45;&gt;:data:common:network -->
<g id="edge21" class="edge">
<title>:data&#45;&gt;:data:common:network</title>
<path fill="none" stroke="black" d="M1524.66,-548.86C1524.66,-471.08 1524.66,-155 1524.66,-155 1524.66,-155 1226.26,-155 1226.26,-155"/>
<polygon fill="black" stroke="black" points="1226.26,-151.5 1216.26,-155 1226.26,-158.5 1226.26,-151.5"/>
</g>
<!-- :data&#45;&gt;:data:coverart -->
<g id="edge22" class="edge">
<title>:data&#45;&gt;:data:coverart</title>
<path fill="none" stroke="black" d="M1510.14,-554C1449.85,-554 1305.58,-554 1305.58,-554 1305.58,-554 1305.58,-312.92 1305.58,-312.92"/>
<polygon fill="black" stroke="black" points="1309.08,-312.92 1305.58,-302.92 1302.08,-312.92 1309.08,-312.92"/>
</g>
<!-- :data:spotify -->
<g id="node23" class="node">
<title>:data:spotify</title>
<ellipse fill="#b59aff" stroke="black" cx="1382.14" cy="-429" rx="68.79" ry="18"/>
<text text-anchor="middle" x="1382.14" y="-425.3" font-family="Times,serif" font-size="14.00">:data:spotify</text>
</g>
<!-- :data&#45;&gt;:data:spotify -->
<g id="edge23" class="edge">
<title>:data&#45;&gt;:data:spotify</title>
<path fill="none" stroke="black" d="M1516.8,-551C1487.66,-551 1435.84,-551 1435.84,-551 1435.84,-551 1435.84,-450.7 1435.84,-450.7"/>
<polygon fill="black" stroke="black" points="1439.34,-450.7 1435.84,-440.7 1432.34,-450.7 1439.34,-450.7"/>
</g>
<!-- :data&#45;&gt;:data:musicbrainz -->
<g id="edge24" class="edge">
<title>:data&#45;&gt;:data:musicbrainz</title>
<path fill="none" stroke="black" d="M1503.38,-560C1375.7,-560 918.57,-560 918.57,-560 918.57,-560 918.57,-172.03 918.57,-172.03"/>
<polygon fill="black" stroke="black" points="922.07,-172.03 918.57,-162.03 915.07,-172.03 922.07,-172.03"/>
</g>
<!-- :data:coverart&#45;&gt;:data:core -->
<g id="edge38" class="edge">
<title>:data:coverart&#45;&gt;:data:core</title>
<path fill="none" stroke="black" stroke-dasharray="1,5" d="M1268.16,-274.81C1268.16,-216.52 1268.16,-30 1268.16,-30 1268.16,-30 1151.79,-30 1151.79,-30"/>
<polygon fill="black" stroke="black" points="1151.79,-26.5 1141.79,-30 1151.79,-33.5 1151.79,-26.5"/>
</g>
<!-- :data:spotify&#45;&gt;:data:core -->
<g id="edge39" class="edge">
<title>:data:spotify&#45;&gt;:data:core</title>
<path fill="none" stroke="black" stroke-dasharray="1,5" d="M1385.61,-410.81C1385.61,-332.01 1385.61,-24 1385.61,-24 1385.61,-24 1163.36,-24 1163.36,-24"/>
<polygon fill="black" stroke="black" points="1163.36,-20.5 1153.36,-24 1163.36,-27.5 1163.36,-20.5"/>
</g>
<!-- :data:musicbrainz&#45;&gt;:data:core -->
<g id="edge40" class="edge">
<title>:data:musicbrainz&#45;&gt;:data:core</title>
<path fill="none" stroke="black" stroke-dasharray="1,5" d="M832.14,-136.79C832.14,-100.79 832.14,-24 832.14,-24 832.14,-24 1035.11,-24 1035.11,-24"/>
<polygon fill="black" stroke="black" points="1035.11,-27.5 1045.11,-24 1035.11,-20.5 1035.11,-27.5"/>
</g>
<!-- :desktop:app -->
<g id="node25" class="node">
<title>:desktop:app</title>
<polygon fill="#ffb59a" stroke="black" points="2474.14,-1406 2114.14,-1406 2114.14,-1370 2474.14,-1370 2474.14,-1406"/>
<text text-anchor="middle" x="2294.14" y="-1384.3" font-family="Times,serif" font-size="14.00">:desktop:app</text>
</g>
<!-- :desktop:app&#45;&gt;:ui:core -->
<g id="edge34" class="edge">
<title>:desktop:app&#45;&gt;:ui:core</title>
<path fill="none" stroke="black" stroke-dasharray="1,5" d="M2351.12,-1369.69C2351.12,-1259.56 2351.12,-690 2351.12,-690 2351.12,-690 1507.64,-690 1507.64,-690"/>
<polygon fill="black" stroke="black" points="1507.64,-686.5 1497.64,-690 1507.64,-693.5 1507.64,-686.5"/>
</g>
<!-- :ui:test:screenshot&#45;&gt;:ui:core -->
<g id="edge107" class="edge">
<title>:ui:test:screenshot&#45;&gt;:ui:core</title>
<path fill="none" stroke="red" d="M1466.14,-822.93C1466.14,-822.93 1466.14,-731.16 1466.14,-731.16"/>
<polygon fill="red" stroke="red" points="1469.64,-731.16 1466.14,-721.16 1462.64,-731.16 1469.64,-731.16"/>
</g>
</g>
</svg>
