<?xml version="1.0" encoding="UTF-8" standalone="no"?>
<!DOCTYPE svg PUBLIC "-//W3C//DTD SVG 1.1//EN"
 "http://www.w3.org/Graphics/SVG/1.1/DTD/svg11.dtd">
<!-- Generated by graphviz version 2.43.0 (0)
 -->
<!-- Title: modules Pages: 1 -->
<svg width="1266pt" height="769pt"
 viewBox="0.00 0.00 1265.58 769.00" xmlns="http://www.w3.org/2000/svg" xmlns:xlink="http://www.w3.org/1999/xlink">
<g id="graph0" class="graph" transform="scale(1 1) rotate(0) translate(4 765)">
<title>modules</title>
<polygon fill="white" stroke="transparent" points="-4,4 -4,-765 1261.58,-765 1261.58,4 -4,4"/>
<text text-anchor="middle" x="628.79" y="-7.8" font-family="Times,serif" font-size="14.00">Module dependencies</text>
<g id="clust1" class="cluster">
<title>cluster_01</title>
<polygon fill="none" stroke="black" points="1032.58,-599 1032.58,-753 1249.58,-753 1249.58,-599 1032.58,-599"/>
<text text-anchor="middle" x="1141.08" y="-741" font-family="Times,serif" font-size="10.00">Legend</text>
</g>
<!-- app -->
<g id="node1" class="node">
<title>app</title>
<ellipse fill="none" stroke="black" cx="614.58" cy="-708" rx="27.9" ry="18"/>
<text text-anchor="middle" x="614.58" y="-704.3" font-family="Times,serif" font-size="14.00">app</text>
</g>
<!-- data&#45;android -->
<g id="node2" class="node">
<title>data&#45;android</title>
<ellipse fill="none" stroke="black" cx="340.58" cy="-406" rx="69.59" ry="18"/>
<text text-anchor="middle" x="340.58" y="-402.3" font-family="Times,serif" font-size="14.00">data&#45;android</text>
</g>
<!-- app&#45;&gt;data&#45;android -->
<g id="edge1" class="edge">
<title>app&#45;&gt;data&#45;android</title>
<path fill="none" stroke="black" d="M586.59,-705.34C482.9,-698.81 126.58,-672.97 126.58,-626 126.58,-626 126.58,-626 126.58,-478 126.58,-447.18 207.57,-427.41 269.9,-416.76"/>
<polygon fill="black" stroke="black" points="270.83,-420.15 280.12,-415.06 269.68,-413.25 270.83,-420.15"/>
</g>
<!-- ui:common -->
<g id="node3" class="node">
<title>ui:common</title>
<ellipse fill="none" stroke="black" cx="574.58" cy="-479" rx="61.99" ry="18"/>
<text text-anchor="middle" x="574.58" y="-475.3" font-family="Times,serif" font-size="14.00">ui:common</text>
</g>
<!-- app&#45;&gt;ui:common -->
<g id="edge2" class="edge">
<title>app&#45;&gt;ui:common</title>
<path fill="none" stroke="black" d="M623.05,-690.83C638.41,-659.12 667.03,-587.2 641.58,-534 635.2,-520.66 623.74,-509.56 612.08,-500.97"/>
<polygon fill="black" stroke="black" points="613.85,-497.94 603.63,-495.16 609.88,-503.71 613.85,-497.94"/>
</g>
<!-- ui:core -->
<g id="node4" class="node">
<title>ui:core</title>
<ellipse fill="none" stroke="black" cx="697.58" cy="-333" rx="42.49" ry="18"/>
<text text-anchor="middle" x="697.58" y="-329.3" font-family="Times,serif" font-size="14.00">ui:core</text>
</g>
<!-- app&#45;&gt;ui:core -->
<g id="edge3" class="edge">
<title>app&#45;&gt;ui:core</title>
<path fill="none" stroke="black" d="M642.41,-706.31C723.61,-703.53 954.58,-690.02 954.58,-626 954.58,-626 954.58,-626 954.58,-405 954.58,-362.78 824.09,-344.68 749.07,-337.76"/>
<polygon fill="black" stroke="black" points="749.15,-334.25 738.88,-336.86 748.53,-341.23 749.15,-334.25"/>
</g>
<!-- ui:collections -->
<g id="node5" class="node">
<title>ui:collections</title>
<ellipse fill="none" stroke="black" cx="456.58" cy="-625" rx="71.49" ry="18"/>
<text text-anchor="middle" x="456.58" y="-621.3" font-family="Times,serif" font-size="14.00">ui:collections</text>
</g>
<!-- app&#45;&gt;ui:collections -->
<g id="edge4" class="edge">
<title>app&#45;&gt;ui:collections</title>
<path fill="none" stroke="black" d="M593.28,-696.08C568.39,-683.32 526.71,-661.95 495.91,-646.16"/>
<polygon fill="black" stroke="black" points="497.22,-642.9 486.72,-641.45 494.03,-649.13 497.22,-642.9"/>
</g>
<!-- ui:history -->
<g id="node6" class="node">
<title>ui:history</title>
<ellipse fill="none" stroke="black" cx="735.58" cy="-625" rx="55.49" ry="18"/>
<text text-anchor="middle" x="735.58" y="-621.3" font-family="Times,serif" font-size="14.00">ui:history</text>
</g>
<!-- app&#45;&gt;ui:history -->
<g id="edge5" class="edge">
<title>app&#45;&gt;ui:history</title>
<path fill="none" stroke="black" d="M633.23,-694.52C652.07,-681.91 681.54,-662.18 704.03,-647.12"/>
<polygon fill="black" stroke="black" points="706.21,-649.87 712.58,-641.4 702.32,-644.06 706.21,-649.87"/>
</g>
<!-- ui:image -->
<g id="node7" class="node">
<title>ui:image</title>
<ellipse fill="none" stroke="black" cx="837.58" cy="-406" rx="50.89" ry="18"/>
<text text-anchor="middle" x="837.58" y="-402.3" font-family="Times,serif" font-size="14.00">ui:image</text>
</g>
<!-- app&#45;&gt;ui:image -->
<g id="edge6" class="edge">
<title>app&#45;&gt;ui:image</title>
<path fill="none" stroke="black" d="M641.63,-702.77C699.8,-692.9 831.58,-666.11 831.58,-626 831.58,-626 831.58,-626 831.58,-478 831.58,-463.6 832.83,-447.62 834.18,-434.47"/>
<polygon fill="black" stroke="black" points="837.69,-434.51 835.32,-424.18 830.74,-433.74 837.69,-434.51"/>
</g>
<!-- ui:nowplaying -->
<g id="node8" class="node">
<title>ui:nowplaying</title>
<ellipse fill="none" stroke="black" cx="267.58" cy="-552" rx="75.29" ry="18"/>
<text text-anchor="middle" x="267.58" y="-548.3" font-family="Times,serif" font-size="14.00">ui:nowplaying</text>
</g>
<!-- app&#45;&gt;ui:nowplaying -->
<g id="edge7" class="edge">
<title>app&#45;&gt;ui:nowplaying</title>
<path fill="none" stroke="black" d="M587.16,-703.5C541.4,-696.84 447.5,-679.6 376.58,-643 343.37,-625.86 311.1,-597.26 290.4,-576.9"/>
<polygon fill="black" stroke="black" points="292.86,-574.41 283.32,-569.81 287.91,-579.36 292.86,-574.41"/>
</g>
<!-- ui:settings -->
<g id="node9" class="node">
<title>ui:settings</title>
<ellipse fill="none" stroke="black" cx="572.58" cy="-552" rx="59.59" ry="18"/>
<text text-anchor="middle" x="572.58" y="-548.3" font-family="Times,serif" font-size="14.00">ui:settings</text>
</g>
<!-- app&#45;&gt;ui:settings -->
<g id="edge8" class="edge">
<title>app&#45;&gt;ui:settings</title>
<path fill="none" stroke="black" d="M610.01,-690.23C602.79,-663.75 588.68,-612.02 580,-580.19"/>
<polygon fill="black" stroke="black" points="583.29,-578.95 577.28,-570.22 576.54,-580.79 583.29,-578.95"/>
</g>
<!-- ui:spotify -->
<g id="node10" class="node">
<title>ui:spotify</title>
<ellipse fill="none" stroke="black" cx="1036.58" cy="-552" rx="53.89" ry="18"/>
<text text-anchor="middle" x="1036.58" y="-548.3" font-family="Times,serif" font-size="14.00">ui:spotify</text>
</g>
<!-- app&#45;&gt;ui:spotify -->
<g id="edge9" class="edge">
<title>app&#45;&gt;ui:spotify</title>
<path fill="none" stroke="black" d="M642.63,-707.47C716.6,-708.19 914.95,-706.77 968.58,-672 1001.31,-650.79 1020,-607.97 1029.22,-579.9"/>
<polygon fill="black" stroke="black" points="1032.58,-580.88 1032.19,-570.29 1025.89,-578.81 1032.58,-580.88"/>
</g>
<!-- ui:stats -->
<g id="node11" class="node">
<title>ui:stats</title>
<ellipse fill="none" stroke="black" cx="52.58" cy="-552" rx="45.49" ry="18"/>
<text text-anchor="middle" x="52.58" y="-548.3" font-family="Times,serif" font-size="14.00">ui:stats</text>
</g>
<!-- app&#45;&gt;ui:stats -->
<g id="edge10" class="edge">
<title>app&#45;&gt;ui:stats</title>
<path fill="none" stroke="black" d="M587.42,-703.21C548.61,-697.59 475.2,-686.17 413.58,-672 294.6,-644.64 159.06,-594.68 93.03,-569.07"/>
<polygon fill="black" stroke="black" points="94.01,-565.69 83.42,-565.32 91.47,-572.22 94.01,-565.69"/>
</g>
<!-- data -->
<g id="node12" class="node">
<title>data</title>
<ellipse fill="none" stroke="black" cx="384.58" cy="-333" rx="31.4" ry="18"/>
<text text-anchor="middle" x="384.58" y="-329.3" font-family="Times,serif" font-size="14.00">data</text>
</g>
<!-- data&#45;android&#45;&gt;data -->
<g id="edge17" class="edge">
<title>data&#45;android&#45;&gt;data</title>
<path fill="none" stroke="red" d="M351.01,-388.17C356.46,-379.38 363.23,-368.46 369.26,-358.72"/>
<polygon fill="red" stroke="red" points="372.24,-360.56 374.53,-350.22 366.29,-356.87 372.24,-360.56"/>
</g>
<!-- ui:common&#45;&gt;data&#45;android -->
<g id="edge34" class="edge">
<title>ui:common&#45;&gt;data&#45;android</title>
<path fill="none" stroke="black" d="M533.29,-465.47C494.34,-453.65 435.77,-435.88 393.43,-423.03"/>
<polygon fill="black" stroke="black" points="394.43,-419.68 383.84,-420.13 392.4,-426.38 394.43,-419.68"/>
</g>
<!-- ui:common&#45;&gt;ui:core -->
<g id="edge35" class="edge">
<title>ui:common&#45;&gt;ui:core</title>
<path fill="none" stroke="black" d="M557.39,-461.69C539.62,-442.83 516.68,-411.37 533.58,-388 558.8,-353.15 607.28,-340.4 645.02,-335.93"/>
<polygon fill="black" stroke="black" points="645.76,-339.37 655.35,-334.87 645.05,-332.41 645.76,-339.37"/>
</g>
<!-- ui:common&#45;&gt;ui:image -->
<g id="edge36" class="edge">
<title>ui:common&#45;&gt;ui:image</title>
<path fill="none" stroke="black" d="M618.31,-466.2C665.32,-453.51 739.87,-433.38 788.76,-420.18"/>
<polygon fill="black" stroke="black" points="789.74,-423.54 798.48,-417.56 787.91,-416.78 789.74,-423.54"/>
</g>
<!-- ui:collections&#45;&gt;data&#45;android -->
<g id="edge30" class="edge">
<title>ui:collections&#45;&gt;data&#45;android</title>
<path fill="none" stroke="black" d="M436.82,-607.42C431.09,-601.96 425.16,-595.59 420.58,-589 385.68,-538.72 360.75,-470.77 348.72,-433.76"/>
<polygon fill="black" stroke="black" points="352.04,-432.64 345.67,-424.18 345.37,-434.77 352.04,-432.64"/>
</g>
<!-- ui:collections&#45;&gt;ui:common -->
<g id="edge31" class="edge">
<title>ui:collections&#45;&gt;ui:common</title>
<path fill="none" stroke="black" d="M462.93,-606.74C470.55,-587.57 484.71,-556.36 503.58,-534 514.05,-521.59 527.85,-510.3 540.5,-501.28"/>
<polygon fill="black" stroke="black" points="542.76,-503.97 549.01,-495.41 538.79,-498.2 542.76,-503.97"/>
</g>
<!-- ui:collections&#45;&gt;ui:core -->
<g id="edge32" class="edge">
<title>ui:collections&#45;&gt;ui:core</title>
<path fill="none" stroke="black" d="M457.87,-606.73C461.69,-565.47 475.9,-459.31 524.58,-388 550.83,-349.55 604.53,-337.51 645.18,-334.19"/>
<polygon fill="black" stroke="black" points="645.46,-337.68 655.21,-333.53 645,-330.7 645.46,-337.68"/>
</g>
<!-- ui:collections&#45;&gt;ui:settings -->
<g id="edge33" class="edge">
<title>ui:collections&#45;&gt;ui:settings</title>
<path fill="none" stroke="black" d="M482.62,-608.07C499.11,-597.97 520.63,-584.8 538.48,-573.87"/>
<polygon fill="black" stroke="black" points="540.73,-576.6 547.44,-568.39 537.08,-570.63 540.73,-576.6"/>
</g>
<!-- ui:collections&#45;&gt;data -->
<g id="edge29" class="edge">
<title>ui:collections&#45;&gt;data</title>
<path fill="none" stroke="black" d="M393.4,-616.51C324.15,-607.43 218.26,-590.74 183.58,-570 147.54,-548.44 77.75,-463.54 63.58,-424 58.19,-408.94 53.25,-400.22 63.58,-388 98.95,-346.19 264.73,-336.74 343.21,-334.61"/>
<polygon fill="black" stroke="black" points="343.32,-338.11 353.23,-334.37 343.15,-331.11 343.32,-338.11"/>
</g>
<!-- ui:history&#45;&gt;ui:common -->
<g id="edge38" class="edge">
<title>ui:history&#45;&gt;ui:common</title>
<path fill="none" stroke="black" d="M727.53,-606.93C714.38,-579.66 688.2,-528.02 672.58,-515 661.2,-505.51 647.04,-498.5 633.06,-493.37"/>
<polygon fill="black" stroke="black" points="634.04,-490.01 623.44,-490.11 631.79,-496.63 634.04,-490.01"/>
</g>
<!-- ui:history&#45;&gt;ui:core -->
<g id="edge39" class="edge">
<title>ui:history&#45;&gt;ui:core</title>
<path fill="none" stroke="black" d="M782.2,-615.26C835.83,-603.84 916.58,-581.86 916.58,-553 916.58,-553 916.58,-553 916.58,-405 916.58,-369.72 812.42,-349.33 747.77,-340.08"/>
<polygon fill="black" stroke="black" points="748.14,-336.59 737.75,-338.68 747.18,-343.53 748.14,-336.59"/>
</g>
<!-- ui:history&#45;&gt;ui:image -->
<g id="edge40" class="edge">
<title>ui:history&#45;&gt;ui:image</title>
<path fill="none" stroke="black" d="M743,-607C760.03,-568 801.73,-473.11 817.58,-442 819.11,-439.01 820.77,-435.91 822.45,-432.84"/>
<polygon fill="black" stroke="black" points="825.62,-434.34 827.49,-423.91 819.53,-430.9 825.62,-434.34"/>
</g>
<!-- ui:history&#45;&gt;ui:settings -->
<g id="edge41" class="edge">
<title>ui:history&#45;&gt;ui:settings</title>
<path fill="none" stroke="black" d="M703.77,-610.14C678.33,-599.06 642.44,-583.43 614.63,-571.31"/>
<polygon fill="black" stroke="black" points="615.72,-567.97 605.16,-567.19 612.93,-574.39 615.72,-567.97"/>
</g>
<!-- ui:history&#45;&gt;data -->
<g id="edge37" class="edge">
<title>ui:history&#45;&gt;data</title>
<path fill="none" stroke="black" d="M733.74,-606.84C731.15,-588.02 725.26,-557.4 712.58,-534 691.61,-495.28 682.57,-484.9 645.58,-461 601.55,-432.55 581.21,-445.91 533.58,-424 489.05,-403.51 441.13,-372.85 411.99,-353.14"/>
<polygon fill="black" stroke="black" points="413.81,-350.14 403.58,-347.39 409.86,-355.92 413.81,-350.14"/>
</g>
<!-- ui:image&#45;&gt;ui:core -->
<g id="edge43" class="edge">
<title>ui:image&#45;&gt;ui:core</title>
<path fill="none" stroke="black" d="M812.18,-390.4C800.26,-383.68 785.8,-375.73 772.58,-369 760.46,-362.82 747.05,-356.43 734.95,-350.82"/>
<polygon fill="black" stroke="black" points="736.14,-347.51 725.59,-346.51 733.21,-353.87 736.14,-347.51"/>
</g>
<!-- data:core -->
<g id="node13" class="node">
<title>data:core</title>
<ellipse fill="none" stroke="black" cx="739.58" cy="-41" rx="53.89" ry="18"/>
<text text-anchor="middle" x="739.58" y="-37.3" font-family="Times,serif" font-size="14.00">data:core</text>
</g>
<!-- ui:image&#45;&gt;data:core -->
<g id="edge42" class="edge">
<title>ui:image&#45;&gt;data:core</title>
<path fill="none" stroke="black" d="M847.39,-388.17C864.63,-356.92 898.58,-287.34 898.58,-224 898.58,-224 898.58,-224 898.58,-113 898.58,-69.11 847.44,-52.16 803.17,-45.72"/>
<polygon fill="black" stroke="black" points="803.34,-42.21 792.97,-44.4 802.44,-49.16 803.34,-42.21"/>
</g>
<!-- ui:nowplaying&#45;&gt;ui:common -->
<g id="edge45" class="edge">
<title>ui:nowplaying&#45;&gt;ui:common</title>
<path fill="none" stroke="black" d="M320.7,-539.15C350.64,-532.43 388.72,-523.83 422.58,-516 454.37,-508.65 489.86,-500.25 518.54,-493.42"/>
<polygon fill="black" stroke="black" points="519.47,-496.8 528.38,-491.08 517.84,-489.99 519.47,-496.8"/>
</g>
<!-- ui:nowplaying&#45;&gt;ui:core -->
<g id="edge46" class="edge">
<title>ui:nowplaying&#45;&gt;ui:core</title>
<path fill="none" stroke="black" d="M260.2,-533.94C247.29,-501.17 225.3,-429.06 261.58,-388 286.66,-359.63 535.22,-342.78 645.43,-336.65"/>
<polygon fill="black" stroke="black" points="645.86,-340.13 655.65,-336.09 645.47,-333.14 645.86,-340.13"/>
</g>
<!-- ui:nowplaying&#45;&gt;ui:image -->
<g id="edge47" class="edge">
<title>ui:nowplaying&#45;&gt;ui:image</title>
<path fill="none" stroke="black" d="M300.85,-535.77C345.9,-515.74 429.21,-480.78 503.58,-461 606.19,-433.71 634.83,-441.3 739.58,-424 753.71,-421.67 768.96,-419.06 783.12,-416.61"/>
<polygon fill="black" stroke="black" points="783.96,-420.02 793.22,-414.85 782.76,-413.12 783.96,-420.02"/>
</g>
<!-- ui:nowplaying&#45;&gt;data -->
<g id="edge44" class="edge">
<title>ui:nowplaying&#45;&gt;data</title>
<path fill="none" stroke="black" d="M221.73,-537.59C135.28,-510.16 -37.25,-443.87 30.58,-369 51.25,-346.19 254.41,-337.68 343.3,-335.03"/>
<polygon fill="black" stroke="black" points="343.4,-338.53 353.3,-334.74 343.2,-331.53 343.4,-338.53"/>
</g>
<!-- ui:settings&#45;&gt;data&#45;android -->
<g id="edge48" class="edge">
<title>ui:settings&#45;&gt;data&#45;android</title>
<path fill="none" stroke="black" d="M547.76,-535.59C506.14,-509.76 422.21,-457.67 374.95,-428.33"/>
<polygon fill="black" stroke="black" points="376.63,-425.26 366.29,-422.96 372.94,-431.2 376.63,-425.26"/>
</g>
<!-- ui:settings&#45;&gt;ui:common -->
<g id="edge49" class="edge">
<title>ui:settings&#45;&gt;ui:common</title>
<path fill="none" stroke="black" d="M573.07,-533.81C573.29,-525.79 573.57,-516.05 573.82,-507.07"/>
<polygon fill="black" stroke="black" points="577.32,-507.12 574.1,-497.03 570.32,-506.93 577.32,-507.12"/>
</g>
<!-- ui:settings&#45;&gt;ui:core -->
<g id="edge50" class="edge">
<title>ui:settings&#45;&gt;ui:core</title>
<path fill="none" stroke="black" d="M606.18,-536.96C646.5,-518.04 712.12,-480.11 739.58,-424 746.62,-409.63 744.78,-403.13 739.58,-388 735.75,-376.82 728.55,-366.17 721.18,-357.33"/>
<polygon fill="black" stroke="black" points="723.71,-354.91 714.45,-349.75 718.47,-359.56 723.71,-354.91"/>
</g>
<!-- ui:spotify&#45;&gt;ui:common -->
<g id="edge54" class="edge">
<title>ui:spotify&#45;&gt;ui:common</title>
<path fill="none" stroke="black" d="M988.45,-543.6C904.5,-530.7 731.34,-504.09 637.82,-489.72"/>
<polygon fill="black" stroke="black" points="638.33,-486.26 627.92,-488.2 637.27,-493.17 638.33,-486.26"/>
</g>
<!-- ui:spotify&#45;&gt;ui:core -->
<g id="edge53" class="edge">
<title>ui:spotify&#45;&gt;ui:core</title>
<path fill="none" stroke="black" d="M1027.94,-534.07C1025.15,-528.38 1022.12,-521.97 1019.58,-516 992.35,-451.95 1019.95,-412.46 965.58,-369 933.29,-343.19 818.49,-336.33 750.05,-334.56"/>
<polygon fill="black" stroke="black" points="749.98,-331.06 739.9,-334.32 749.82,-338.05 749.98,-331.06"/>
</g>
<!-- ui:spotify&#45;&gt;data:core -->
<g id="edge51" class="edge">
<title>ui:spotify&#45;&gt;data:core</title>
<path fill="none" stroke="black" d="M1056.35,-535.13C1070.32,-522.01 1086.58,-502.01 1086.58,-480 1086.58,-480 1086.58,-480 1086.58,-113 1086.58,-55.93 904.14,-44.29 803.84,-42.21"/>
<polygon fill="black" stroke="black" points="803.87,-38.71 793.8,-42.03 803.74,-45.71 803.87,-38.71"/>
</g>
<!-- data:spotify -->
<g id="node17" class="node">
<title>data:spotify</title>
<ellipse fill="none" stroke="black" cx="992.58" cy="-260" rx="65.79" ry="18"/>
<text text-anchor="middle" x="992.58" y="-256.3" font-family="Times,serif" font-size="14.00">data:spotify</text>
</g>
<!-- ui:spotify&#45;&gt;data:spotify -->
<g id="edge52" class="edge">
<title>ui:spotify&#45;&gt;data:spotify</title>
<path fill="none" stroke="black" d="M1035.45,-533.79C1034.6,-519.42 1033.58,-498.38 1033.58,-480 1033.58,-480 1033.58,-480 1033.58,-332 1033.58,-314.95 1024.61,-298.32 1015.06,-285.44"/>
<polygon fill="black" stroke="black" points="1017.75,-283.2 1008.79,-277.55 1012.27,-287.56 1017.75,-283.2"/>
</g>
<!-- ui:stats&#45;&gt;ui:common -->
<g id="edge56" class="edge">
<title>ui:stats&#45;&gt;ui:common</title>
<path fill="none" stroke="black" d="M94.86,-545.25C185.97,-532.86 401.36,-503.56 509.81,-488.81"/>
<polygon fill="black" stroke="black" points="510.53,-492.24 519.97,-487.43 509.59,-485.31 510.53,-492.24"/>
</g>
<!-- ui:stats&#45;&gt;ui:core -->
<g id="edge57" class="edge">
<title>ui:stats&#45;&gt;ui:core</title>
<path fill="none" stroke="black" d="M57.28,-533.74C64.8,-509.45 81.91,-465.54 112.58,-442 139.09,-421.65 154.95,-437.34 185.58,-424 212.37,-412.34 213.98,-400.07 240.58,-388 311.8,-355.68 541.37,-341.21 645.43,-336.19"/>
<polygon fill="black" stroke="black" points="645.88,-339.68 655.7,-335.71 645.55,-332.68 645.88,-339.68"/>
</g>
<!-- ui:stats&#45;&gt;data -->
<g id="edge55" class="edge">
<title>ui:stats&#45;&gt;data</title>
<path fill="none" stroke="black" d="M42.05,-534.25C18.9,-495.36 -30,-399.91 26.58,-369 80.14,-339.74 260.57,-334.76 342.94,-334.04"/>
<polygon fill="black" stroke="black" points="343.22,-337.54 353.19,-333.97 343.17,-330.54 343.22,-337.54"/>
</g>
<!-- data&#45;&gt;data:core -->
<g id="edge11" class="edge">
<title>data&#45;&gt;data:core</title>
<path fill="none" stroke="red" d="M415.44,-329.51C506.14,-321.77 765.58,-296.53 765.58,-261 765.58,-261 765.58,-261 765.58,-113 765.58,-97.52 760.07,-81.23 754.11,-68.17"/>
<polygon fill="red" stroke="red" points="757.1,-66.32 749.56,-58.87 750.82,-69.39 757.1,-66.32"/>
</g>
<!-- data:coverart -->
<g id="node14" class="node">
<title>data:coverart</title>
<ellipse fill="none" stroke="black" cx="664.58" cy="-114" rx="73.39" ry="18"/>
<text text-anchor="middle" x="664.58" y="-110.3" font-family="Times,serif" font-size="14.00">data:coverart</text>
</g>
<!-- data&#45;&gt;data:coverart -->
<g id="edge12" class="edge">
<title>data&#45;&gt;data:coverart</title>
<path fill="none" stroke="red" d="M415.83,-331.41C459.29,-329.03 538.41,-318.9 589.58,-278 632.66,-243.57 652.03,-178.82 659.87,-142.14"/>
<polygon fill="red" stroke="red" points="663.34,-142.65 661.87,-132.15 656.48,-141.27 663.34,-142.65"/>
</g>
<!-- data:domain -->
<g id="node15" class="node">
<title>data:domain</title>
<ellipse fill="none" stroke="black" cx="512.58" cy="-260" rx="68.49" ry="18"/>
<text text-anchor="middle" x="512.58" y="-256.3" font-family="Times,serif" font-size="14.00">data:domain</text>
</g>
<!-- data&#45;&gt;data:domain -->
<g id="edge13" class="edge">
<title>data&#45;&gt;data:domain</title>
<path fill="none" stroke="red" d="M406.3,-319.96C425.23,-309.45 453.1,-294 475.55,-281.54"/>
<polygon fill="red" stroke="red" points="477.44,-284.5 484.48,-276.59 474.04,-278.38 477.44,-284.5"/>
</g>
<!-- data:room -->
<g id="node16" class="node">
<title>data:room</title>
<ellipse fill="none" stroke="black" cx="477.58" cy="-187" rx="57.69" ry="18"/>
<text text-anchor="middle" x="477.58" y="-183.3" font-family="Times,serif" font-size="14.00">data:room</text>
</g>
<!-- data&#45;&gt;data:room -->
<g id="edge14" class="edge">
<title>data&#45;&gt;data:room</title>
<path fill="none" stroke="red" d="M392.93,-315.65C402.51,-297.28 419.04,-266.8 435.58,-242 442.25,-232.01 450.19,-221.5 457.37,-212.42"/>
<polygon fill="red" stroke="red" points="460.16,-214.54 463.69,-204.56 454.7,-210.16 460.16,-214.54"/>
</g>
<!-- data&#45;&gt;data:spotify -->
<g id="edge15" class="edge">
<title>data&#45;&gt;data:spotify</title>
<path fill="none" stroke="red" d="M415.4,-330.1C482.03,-325.82 644.38,-314.39 779.58,-297 830.55,-290.45 887.98,-280.59 930.35,-272.85"/>
<polygon fill="red" stroke="red" points="931.03,-276.29 940.24,-271.04 929.77,-269.4 931.03,-276.29"/>
</g>
<!-- data:musicbrainz -->
<g id="node18" class="node">
<title>data:musicbrainz</title>
<ellipse fill="none" stroke="black" cx="395.58" cy="-114" rx="90.98" ry="18"/>
<text text-anchor="middle" x="395.58" y="-110.3" font-family="Times,serif" font-size="14.00">data:musicbrainz</text>
</g>
<!-- data&#45;&gt;data:musicbrainz -->
<g id="edge16" class="edge">
<title>data&#45;&gt;data:musicbrainz</title>
<path fill="none" stroke="red" d="M384.53,-314.9C384.56,-282.61 385.28,-210.47 390.58,-150 390.81,-147.43 391.1,-144.76 391.42,-142.1"/>
<polygon fill="red" stroke="red" points="394.9,-142.42 392.77,-132.05 387.97,-141.49 394.9,-142.42"/>
</g>
<!-- data:coverart&#45;&gt;data:core -->
<g id="edge19" class="edge">
<title>data:coverart&#45;&gt;data:core</title>
<path fill="none" stroke="black" d="M682.36,-96.17C692.12,-86.93 704.37,-75.34 715.03,-65.24"/>
<polygon fill="black" stroke="black" points="717.6,-67.63 722.45,-58.22 712.79,-62.55 717.6,-67.63"/>
</g>
<!-- data:domain&#45;&gt;data:core -->
<g id="edge20" class="edge">
<title>data:domain&#45;&gt;data:core</title>
<path fill="none" stroke="black" d="M523.87,-241.97C530.45,-231.57 538.61,-217.85 544.58,-205 566.21,-158.48 546.23,-132.2 582.58,-96 608.41,-70.29 647.01,-56.8 679.48,-49.74"/>
<polygon fill="black" stroke="black" points="680.23,-53.16 689.34,-47.74 678.84,-46.29 680.23,-53.16"/>
</g>
<!-- data:domain&#45;&gt;data:coverart -->
<g id="edge21" class="edge">
<title>data:domain&#45;&gt;data:coverart</title>
<path fill="none" stroke="black" d="M546.28,-244.14C556.88,-238.63 568.24,-231.8 577.58,-224 606.76,-199.65 632.86,-164.19 648.69,-140.39"/>
<polygon fill="black" stroke="black" points="651.71,-142.17 654.24,-131.89 645.85,-138.35 651.71,-142.17"/>
</g>
<!-- data:domain&#45;&gt;data:room -->
<g id="edge23" class="edge">
<title>data:domain&#45;&gt;data:room</title>
<path fill="none" stroke="black" d="M504.11,-241.81C500.03,-233.53 495.04,-223.41 490.5,-214.19"/>
<polygon fill="black" stroke="black" points="493.54,-212.45 485.98,-205.03 487.26,-215.55 493.54,-212.45"/>
</g>
<!-- data:domain&#45;&gt;data:musicbrainz -->
<g id="edge22" class="edge">
<title>data:domain&#45;&gt;data:musicbrainz</title>
<path fill="none" stroke="black" d="M468.97,-246.09C448.13,-237.7 424.7,-224.59 410.58,-205 397.59,-186.98 394.34,-161.69 394.04,-142.5"/>
<polygon fill="black" stroke="black" points="397.55,-142.33 394.15,-132.29 390.55,-142.25 397.55,-142.33"/>
</g>
<!-- data:room&#45;&gt;data:core -->
<g id="edge25" class="edge">
<title>data:room&#45;&gt;data:core</title>
<path fill="none" stroke="black" d="M483.85,-168.84C493.78,-144.26 515.54,-99.53 549.58,-77 570.37,-63.25 631.04,-53.67 678.29,-48.05"/>
<polygon fill="black" stroke="black" points="678.92,-51.5 688.45,-46.88 678.12,-44.55 678.92,-51.5"/>
</g>
<!-- data:room&#45;&gt;data:coverart -->
<g id="edge26" class="edge">
<title>data:room&#45;&gt;data:coverart</title>
<path fill="none" stroke="black" d="M512.76,-172.65C542.1,-161.51 584.19,-145.52 616.62,-133.21"/>
<polygon fill="black" stroke="black" points="618.24,-136.34 626.35,-129.52 615.76,-129.79 618.24,-136.34"/>
</g>
<!-- data:room&#45;&gt;data:musicbrainz -->
<g id="edge27" class="edge">
<title>data:room&#45;&gt;data:musicbrainz</title>
<path fill="none" stroke="black" d="M458.98,-169.89C448.3,-160.65 434.71,-148.88 422.85,-138.61"/>
<polygon fill="black" stroke="black" points="424.82,-135.69 414.97,-131.79 420.24,-140.98 424.82,-135.69"/>
</g>
<!-- data:spotify&#45;&gt;data:core -->
<g id="edge28" class="edge">
<title>data:spotify&#45;&gt;data:core</title>
<path fill="none" stroke="black" d="M990.32,-241.81C984.56,-205.3 965.8,-119.87 912.58,-77 895.46,-63.21 843.18,-53.88 800.53,-48.35"/>
<polygon fill="black" stroke="black" points="800.84,-44.86 790.49,-47.09 799.97,-51.8 800.84,-44.86"/>
</g>
<!-- data:musicbrainz&#45;&gt;data:core -->
<g id="edge24" class="edge">
<title>data:musicbrainz&#45;&gt;data:core</title>
<path fill="none" stroke="black" d="M437.15,-97.87C458.06,-90.72 483.92,-82.55 507.58,-77 565.04,-63.53 631.76,-54.09 678.86,-48.44"/>
<polygon fill="black" stroke="black" points="679.38,-51.91 688.9,-47.26 678.56,-44.95 679.38,-51.91"/>
</g>
<!-- test&#45;data -->
<g id="node19" class="node">
<title>test&#45;data</title>
<ellipse fill="none" stroke="black" cx="124.58" cy="-406" rx="51.99" ry="18"/>
<text text-anchor="middle" x="124.58" y="-402.3" font-family="Times,serif" font-size="14.00">test&#45;data</text>
</g>
<!-- test&#45;data&#45;&gt;data -->
<g id="edge18" class="edge">
<title>test&#45;data&#45;&gt;data</title>
<path fill="none" stroke="black" d="M148.17,-389.72C160.39,-382.44 175.81,-374.21 190.58,-369 241.7,-350.98 303.8,-341.86 343.75,-337.53"/>
<polygon fill="black" stroke="black" points="344.31,-340.99 353.9,-336.48 343.59,-334.02 344.31,-340.99"/>
</g>
<!-- ui:test:screenshot -->
<g id="node20" class="node">
<title>ui:test:screenshot</title>
<ellipse fill="none" stroke="black" cx="636.58" cy="-406" rx="94.48" ry="18"/>
<text text-anchor="middle" x="636.58" y="-402.3" font-family="Times,serif" font-size="14.00">ui:test:screenshot</text>
</g>
<!-- ui:test:screenshot&#45;&gt;ui:core -->
<g id="edge58" class="edge">
<title>ui:test:screenshot&#45;&gt;ui:core</title>
<path fill="none" stroke="black" d="M651.04,-388.17C658.82,-379.11 668.56,-367.79 677.11,-357.83"/>
<polygon fill="black" stroke="black" points="679.79,-360.08 683.65,-350.22 674.48,-355.52 679.79,-360.08"/>
</g>
<!-- module -->
<g id="node21" class="node">
<title>module</title>
<ellipse fill="none" stroke="black" cx="1097.58" cy="-708" rx="32.25" ry="18"/>
<text text-anchor="middle" x="1097.58" y="-705.5" font-family="Times,serif" font-size="10.00">module</text>
</g>
<!-- dependency -->
<g id="node22" class="node">
<title>dependency</title>
<ellipse fill="none" stroke="black" cx="1097.58" cy="-625" rx="47.19" ry="18"/>
<text text-anchor="middle" x="1097.58" y="-622.5" font-family="Times,serif" font-size="10.00">dependency</text>
</g>
<!-- module&#45;&gt;dependency -->
<g id="edge59" class="edge">
<title>module&#45;&gt;dependency</title>
<path fill="none" stroke="red" d="M1077.27,-693.67C1070.3,-687.92 1063.33,-680.54 1059.58,-672 1055.8,-663.36 1059.51,-655.05 1065.87,-647.92"/>
<polygon fill="red" stroke="red" points="1068.68,-650.09 1073.58,-640.7 1063.89,-644.98 1068.68,-650.09"/>
<text text-anchor="middle" x="1067.58" y="-664" font-family="Times,serif" font-size="10.00">api</text>
</g>
<!-- module&#45;&gt;dependency -->
<g id="edge60" class="edge">
<title>module&#45;&gt;dependency</title>
<path fill="none" stroke="black" d="M1097.58,-689.82C1097.58,-679.19 1097.58,-665.31 1097.58,-653.2"/>
<polygon fill="black" stroke="black" points="1101.08,-653.15 1097.58,-643.15 1094.08,-653.15 1101.08,-653.15"/>
<text text-anchor="middle" x="1138.08" y="-664" font-family="Times,serif" font-size="10.00">implementation</text>
</g>
<!-- module&#45;&gt;dependency -->
<g id="edge61" class="edge">
<title>module&#45;&gt;dependency</title>
<path fill="none" stroke="green" d="M1128.74,-702.32C1146.88,-697.82 1168.32,-689.05 1179.58,-672 1190.8,-655.02 1171.64,-643.66 1149.03,-636.49"/>
<polygon fill="green" stroke="green" points="1149.78,-633.06 1139.21,-633.66 1147.85,-639.79 1149.78,-633.06"/>
<text text-anchor="middle" x="1202.58" y="-664" font-family="Times,serif" font-size="10.00">compile</text>
</g>
</g>
</svg>
