<?xml version="1.0" encoding="UTF-8" standalone="no"?>
<!DOCTYPE svg PUBLIC "-//W3C//DTD SVG 1.1//EN"
 "http://www.w3.org/Graphics/SVG/1.1/DTD/svg11.dtd">
<!-- Generated by graphviz version 2.43.0 (0)
 -->
<!-- Title: %3 Pages: 1 -->
<svg width="1764pt" height="1214pt"
 viewBox="0.00 0.00 1763.87 1214.00" xmlns="http://www.w3.org/2000/svg" xmlns:xlink="http://www.w3.org/1999/xlink">
<g id="graph0" class="graph" transform="scale(1 1) rotate(0) translate(4 1210)">
<title>%3</title>
<polygon fill="white" stroke="transparent" points="-4,4 -4,-1210 1759.87,-1210 1759.87,4 -4,4"/>
<text text-anchor="middle" x="877.94" y="-1178" font-family="Times,serif" font-size="30.00">MusicSearch</text>
<text text-anchor="middle" x="877.94" y="-1145" font-family="Times,serif" font-size="30.00"> </text>
<!-- :app -->
<g id="node1" class="node">
<title>:app</title>
<polygon fill="#baffc9" stroke="black" points="746.87,-1132 692.87,-1132 692.87,-1096 746.87,-1096 746.87,-1132"/>
<text text-anchor="middle" x="719.87" y="-1110.3" font-family="Times,serif" font-size="14.00">:app</text>
</g>
<!-- :test&#45;data -->
<g id="node2" class="node">
<title>:test&#45;data</title>
<ellipse fill="#ffd2b3" stroke="black" cx="432.87" cy="-429" rx="55.49" ry="18"/>
<text text-anchor="middle" x="432.87" y="-425.3" font-family="Times,serif" font-size="14.00">:test&#45;data</text>
</g>
<!-- :app&#45;&gt;:test&#45;data -->
<g id="edge1" class="edge">
<title>:app&#45;&gt;:test&#45;data</title>
<path fill="none" stroke="black" stroke-dasharray="1,5" d="M692.77,-1112.92C578.5,-1111.05 141.87,-1087.76 141.87,-841 141.87,-841 141.87,-841 141.87,-702 141.87,-629.02 150.25,-602.43 198.87,-548 247.99,-493.01 328.69,-460.36 381.31,-443.79"/>
<polygon fill="black" stroke="black" points="382.58,-447.07 391.11,-440.79 380.53,-440.37 382.58,-447.07"/>
</g>
<!-- :data&#45;android -->
<g id="node3" class="node">
<title>:data&#45;android</title>
<ellipse fill="#baffc9" stroke="black" cx="432.87" cy="-566" rx="72.59" ry="18"/>
<text text-anchor="middle" x="432.87" y="-562.3" font-family="Times,serif" font-size="14.00">:data&#45;android</text>
</g>
<!-- :app&#45;&gt;:data&#45;android -->
<g id="edge2" class="edge">
<title>:app&#45;&gt;:data&#45;android</title>
<path fill="none" stroke="black" stroke-dasharray="1,5" d="M692.7,-1112C630.9,-1108.09 480.15,-1088.9 415.87,-995 328.79,-867.79 393.89,-665.94 421.81,-593.76"/>
<polygon fill="black" stroke="black" points="425.21,-594.66 425.63,-584.07 418.7,-592.09 425.21,-594.66"/>
</g>
<!-- :data:database -->
<g id="node4" class="node">
<title>:data:database</title>
<ellipse fill="#ffd2b3" stroke="black" cx="148.87" cy="-429" rx="79.09" ry="18"/>
<text text-anchor="middle" x="148.87" y="-425.3" font-family="Times,serif" font-size="14.00">:data:database</text>
</g>
<!-- :app&#45;&gt;:data:database -->
<g id="edge3" class="edge">
<title>:app&#45;&gt;:data:database</title>
<path fill="none" stroke="black" stroke-dasharray="1,5" d="M692.61,-1113.6C573.39,-1114.66 103.87,-1102.29 103.87,-841 103.87,-841 103.87,-841 103.87,-702 103.87,-611.03 128.67,-505.22 141.45,-456.74"/>
<polygon fill="black" stroke="black" points="144.85,-457.59 144.05,-447.02 138.09,-455.78 144.85,-457.59"/>
</g>
<!-- :domain -->
<g id="node5" class="node">
<title>:domain</title>
<ellipse fill="#ffd2b3" stroke="black" cx="255.87" cy="-566" rx="48.19" ry="18"/>
<text text-anchor="middle" x="255.87" y="-562.3" font-family="Times,serif" font-size="14.00">:domain</text>
</g>
<!-- :app&#45;&gt;:domain -->
<g id="edge4" class="edge">
<title>:app&#45;&gt;:domain</title>
<path fill="none" stroke="black" stroke-dasharray="1,5" d="M692.67,-1108.55C607.57,-1092.92 346.86,-1031.81 258.87,-858 214.37,-770.1 235.92,-647.27 248.72,-593.72"/>
<polygon fill="black" stroke="black" points="252.13,-594.51 251.14,-583.97 245.34,-592.83 252.13,-594.51"/>
</g>
<!-- :ui:common -->
<g id="node6" class="node">
<title>:ui:common</title>
<ellipse fill="#baffc9" stroke="black" cx="727.87" cy="-703" rx="64.19" ry="18"/>
<text text-anchor="middle" x="727.87" y="-699.3" font-family="Times,serif" font-size="14.00">:ui:common</text>
</g>
<!-- :app&#45;&gt;:ui:common -->
<g id="edge5" class="edge">
<title>:app&#45;&gt;:ui:common</title>
<path fill="none" stroke="black" stroke-dasharray="1,5" d="M720.2,-1095.95C721.45,-1032.41 725.81,-809.13 727.34,-731.14"/>
<polygon fill="black" stroke="black" points="730.84,-731.19 727.54,-721.13 723.84,-731.06 730.84,-731.19"/>
</g>
<!-- :ui:core -->
<g id="node7" class="node">
<title>:ui:core</title>
<ellipse fill="#ffd2b3" stroke="black" cx="1245.87" cy="-429" rx="45.49" ry="18"/>
<text text-anchor="middle" x="1245.87" y="-425.3" font-family="Times,serif" font-size="14.00">:ui:core</text>
</g>
<!-- :app&#45;&gt;:ui:core -->
<g id="edge6" class="edge">
<title>:app&#45;&gt;:ui:core</title>
<path fill="none" stroke="black" stroke-dasharray="1,5" d="M747.1,-1111.22C901.88,-1100.4 1663.87,-1037.14 1663.87,-841 1663.87,-841 1663.87,-841 1663.87,-702 1663.87,-529.04 1409.35,-460.39 1297.52,-438.57"/>
<polygon fill="black" stroke="black" points="1297.96,-435.09 1287.48,-436.66 1296.65,-441.97 1297.96,-435.09"/>
</g>
<!-- :ui:collections -->
<g id="node8" class="node">
<title>:ui:collections</title>
<ellipse fill="#baffc9" stroke="black" cx="499.87" cy="-977" rx="74.99" ry="18"/>
<text text-anchor="middle" x="499.87" y="-973.3" font-family="Times,serif" font-size="14.00">:ui:collections</text>
</g>
<!-- :app&#45;&gt;:ui:collections -->
<g id="edge7" class="edge">
<title>:app&#45;&gt;:ui:collections</title>
<path fill="none" stroke="black" stroke-dasharray="1,5" d="M692.45,-1096.18C652.47,-1071.64 578.2,-1026.06 534.5,-999.25"/>
<polygon fill="black" stroke="black" points="536.27,-996.23 525.92,-993.98 532.61,-1002.2 536.27,-996.23"/>
</g>
<!-- :ui:history -->
<g id="node9" class="node">
<title>:ui:history</title>
<ellipse fill="#baffc9" stroke="black" cx="843.87" cy="-977" rx="57.69" ry="18"/>
<text text-anchor="middle" x="843.87" y="-973.3" font-family="Times,serif" font-size="14.00">:ui:history</text>
</g>
<!-- :app&#45;&gt;:ui:history -->
<g id="edge8" class="edge">
<title>:app&#45;&gt;:ui:history</title>
<path fill="none" stroke="black" stroke-dasharray="1,5" d="M735.58,-1095.9C757.4,-1072.14 797.02,-1029.01 821.81,-1002.02"/>
<polygon fill="black" stroke="black" points="824.49,-1004.27 828.68,-994.54 819.34,-999.53 824.49,-1004.27"/>
</g>
<!-- :ui:image -->
<g id="node10" class="node">
<title>:ui:image</title>
<ellipse fill="#baffc9" stroke="black" cx="1406.87" cy="-566" rx="53.89" ry="18"/>
<text text-anchor="middle" x="1406.87" y="-562.3" font-family="Times,serif" font-size="14.00">:ui:image</text>
</g>
<!-- :app&#45;&gt;:ui:image -->
<g id="edge9" class="edge">
<title>:app&#45;&gt;:ui:image</title>
<path fill="none" stroke="black" stroke-dasharray="1,5" d="M746.91,-1109.05C878.77,-1089.18 1451.99,-995.69 1553.87,-858 1575.49,-828.78 1592.79,-794.25 1535.87,-685 1513.98,-642.98 1470.83,-608.33 1440.48,-587.69"/>
<polygon fill="black" stroke="black" points="1442.16,-584.61 1431.9,-581.99 1438.29,-590.44 1442.16,-584.61"/>
</g>
<!-- :ui:nowplaying -->
<g id="node11" class="node">
<title>:ui:nowplaying</title>
<ellipse fill="#baffc9" stroke="black" cx="902.87" cy="-840" rx="78.79" ry="18"/>
<text text-anchor="middle" x="902.87" y="-836.3" font-family="Times,serif" font-size="14.00">:ui:nowplaying</text>
</g>
<!-- :app&#45;&gt;:ui:nowplaying -->
<g id="edge10" class="edge">
<title>:app&#45;&gt;:ui:nowplaying</title>
<path fill="none" stroke="black" stroke-dasharray="1,5" d="M723.52,-1095.63C730.38,-1065.77 747.22,-1003.64 776.87,-959 802.57,-920.31 843.33,-885.22 871.49,-863.55"/>
<polygon fill="black" stroke="black" points="873.94,-866.09 879.8,-857.27 869.71,-860.51 873.94,-866.09"/>
</g>
<!-- :ui:settings -->
<g id="node12" class="node">
<title>:ui:settings</title>
<ellipse fill="#baffc9" stroke="black" cx="590.87" cy="-840" rx="63.09" ry="18"/>
<text text-anchor="middle" x="590.87" y="-836.3" font-family="Times,serif" font-size="14.00">:ui:settings</text>
</g>
<!-- :app&#45;&gt;:ui:settings -->
<g id="edge11" class="edge">
<title>:app&#45;&gt;:ui:settings</title>
<path fill="none" stroke="black" stroke-dasharray="1,5" d="M711.8,-1095.99C689.95,-1049.9 629.5,-922.45 603.27,-867.15"/>
<polygon fill="black" stroke="black" points="606.38,-865.54 598.94,-858.01 600.06,-868.54 606.38,-865.54"/>
</g>
<!-- :ui:spotify&#45;broadcast&#45;receiver -->
<g id="node13" class="node">
<title>:ui:spotify&#45;broadcast&#45;receiver</title>
<ellipse fill="#baffc9" stroke="black" cx="1374.87" cy="-840" rx="146.77" ry="18"/>
<text text-anchor="middle" x="1374.87" y="-836.3" font-family="Times,serif" font-size="14.00">:ui:spotify&#45;broadcast&#45;receiver</text>
</g>
<!-- :app&#45;&gt;:ui:spotify&#45;broadcast&#45;receiver -->
<g id="edge12" class="edge">
<title>:app&#45;&gt;:ui:spotify&#45;broadcast&#45;receiver</title>
<path fill="none" stroke="black" stroke-dasharray="1,5" d="M747.18,-1101.66C847.45,-1060.02 1196.18,-915.2 1325.83,-861.36"/>
<polygon fill="black" stroke="black" points="1327.25,-864.56 1335.14,-857.5 1324.57,-858.1 1327.25,-864.56"/>
</g>
<!-- :ui:stats -->
<g id="node14" class="node">
<title>:ui:stats</title>
<ellipse fill="#baffc9" stroke="black" cx="1123.87" cy="-840" rx="48.19" ry="18"/>
<text text-anchor="middle" x="1123.87" y="-836.3" font-family="Times,serif" font-size="14.00">:ui:stats</text>
</g>
<!-- :app&#45;&gt;:ui:stats -->
<g id="edge13" class="edge">
<title>:app&#45;&gt;:ui:stats</title>
<path fill="none" stroke="black" stroke-dasharray="1,5" d="M747.15,-1097C784.57,-1074.85 853.69,-1033.26 910.87,-995 978.5,-949.75 1055.26,-892.82 1095.62,-862.44"/>
<polygon fill="black" stroke="black" points="1097.78,-865.18 1103.66,-856.37 1093.57,-859.6 1097.78,-865.18"/>
</g>
<!-- :data -->
<g id="node15" class="node">
<title>:data</title>
<ellipse fill="#ffb3ba" stroke="black" cx="633.87" cy="-292" rx="34.39" ry="18"/>
<text text-anchor="middle" x="633.87" y="-288.3" font-family="Times,serif" font-size="14.00">:data</text>
</g>
<!-- :test&#45;data&#45;&gt;:data -->
<g id="edge21" class="edge">
<title>:test&#45;data&#45;&gt;:data</title>
<path fill="none" stroke="black" stroke-dasharray="1,5" d="M455.93,-412.51C492.74,-387.79 564.73,-339.44 604.94,-312.43"/>
<polygon fill="black" stroke="black" points="607.14,-315.17 613.49,-306.69 603.24,-309.36 607.14,-315.17"/>
</g>
<!-- :data&#45;android&#45;&gt;:test&#45;data -->
<g id="edge15" class="edge">
<title>:data&#45;android&#45;&gt;:test&#45;data</title>
<path fill="none" stroke="black" stroke-dasharray="1,5" d="M432.87,-547.9C432.87,-525.1 432.87,-484.48 432.87,-457.39"/>
<polygon fill="black" stroke="black" points="436.37,-457.39 432.87,-447.39 429.37,-457.39 436.37,-457.39"/>
</g>
<!-- :data&#45;android&#45;&gt;:data -->
<g id="edge14" class="edge">
<title>:data&#45;android&#45;&gt;:data</title>
<path fill="none" stroke="black" d="M445.44,-547.99C479.88,-501.38 575.82,-371.55 615.91,-317.31"/>
<polygon fill="black" stroke="black" points="618.94,-319.1 622.06,-308.98 613.31,-314.94 618.94,-319.1"/>
</g>
<!-- :data:core -->
<g id="node16" class="node">
<title>:data:core</title>
<ellipse fill="#ffd2b3" stroke="black" cx="681.87" cy="-18" rx="57.39" ry="18"/>
<text text-anchor="middle" x="681.87" y="-14.3" font-family="Times,serif" font-size="14.00">:data:core</text>
</g>
<!-- :data:database&#45;&gt;:data:core -->
<g id="edge28" class="edge">
<title>:data:database&#45;&gt;:data:core</title>
<path fill="none" stroke="black" stroke-dasharray="1,5" d="M137.79,-410.91C107.66,-362.09 30.88,-220.13 98.87,-137 163.61,-57.85 477.09,-30.54 615.71,-22.23"/>
<polygon fill="black" stroke="black" points="616.01,-25.72 625.78,-21.65 615.6,-18.74 616.01,-25.72"/>
</g>
<!-- :data:common:network -->
<g id="node17" class="node">
<title>:data:common:network</title>
<ellipse fill="#ffd2b3" stroke="black" cx="224.87" cy="-155" rx="116.98" ry="18"/>
<text text-anchor="middle" x="224.87" y="-151.3" font-family="Times,serif" font-size="14.00">:data:common:network</text>
</g>
<!-- :data:database&#45;&gt;:data:common:network -->
<g id="edge29" class="edge">
<title>:data:database&#45;&gt;:data:common:network</title>
<path fill="none" stroke="black" stroke-dasharray="1,5" d="M153.62,-410.99C166.45,-365.1 201.82,-238.5 217.37,-182.84"/>
<polygon fill="black" stroke="black" points="220.8,-183.58 220.12,-173.01 214.06,-181.7 220.8,-183.58"/>
</g>
<!-- :data:musicbrainz -->
<g id="node20" class="node">
<title>:data:musicbrainz</title>
<ellipse fill="#ffd2b3" stroke="black" cx="453.87" cy="-155" rx="93.68" ry="18"/>
<text text-anchor="middle" x="453.87" y="-151.3" font-family="Times,serif" font-size="14.00">:data:musicbrainz</text>
</g>
<!-- :data:database&#45;&gt;:data:musicbrainz -->
<g id="edge30" class="edge">
<title>:data:database&#45;&gt;:data:musicbrainz</title>
<path fill="none" stroke="black" stroke-dasharray="1,5" d="M163.88,-411.02C190.06,-381.76 246.33,-320.51 298.87,-274 339.15,-238.35 389.2,-201.45 421.34,-178.61"/>
<polygon fill="black" stroke="black" points="423.77,-181.19 429.91,-172.56 419.73,-175.47 423.77,-181.19"/>
</g>
<!-- :domain&#45;&gt;:data:database -->
<g id="edge25" class="edge">
<title>:domain&#45;&gt;:data:database</title>
<path fill="none" stroke="black" stroke-dasharray="1,5" d="M242.75,-548.45C224.24,-525.09 190.31,-482.29 168.71,-455.03"/>
<polygon fill="black" stroke="black" points="171.39,-452.78 162.44,-447.11 165.9,-457.13 171.39,-452.78"/>
</g>
<!-- :domain&#45;&gt;:data:core -->
<g id="edge22" class="edge">
<title>:domain&#45;&gt;:data:core</title>
<path fill="none" stroke="black" stroke-dasharray="1,5" d="M218.27,-554.64C171.72,-539.56 94.49,-506.63 60.87,-447 39.74,-409.52 -73.08,-308.58 76.87,-137 146.86,-56.92 472.92,-30.05 615.19,-22.05"/>
<polygon fill="black" stroke="black" points="615.72,-25.52 625.52,-21.48 615.34,-18.53 615.72,-25.52"/>
</g>
<!-- :domain&#45;&gt;:data:common:network -->
<g id="edge23" class="edge">
<title>:domain&#45;&gt;:data:common:network</title>
<path fill="none" stroke="black" stroke-dasharray="1,5" d="M254.58,-547.95C249.76,-484.41 232.84,-261.13 226.93,-183.14"/>
<polygon fill="black" stroke="black" points="230.41,-182.83 226.17,-173.13 223.43,-183.36 230.41,-182.83"/>
</g>
<!-- :data:coverart -->
<g id="node18" class="node">
<title>:data:coverart</title>
<ellipse fill="#ffd2b3" stroke="black" cx="834.87" cy="-155" rx="76.09" ry="18"/>
<text text-anchor="middle" x="834.87" y="-151.3" font-family="Times,serif" font-size="14.00">:data:coverart</text>
</g>
<!-- :domain&#45;&gt;:data:coverart -->
<g id="edge24" class="edge">
<title>:domain&#45;&gt;:data:coverart</title>
<path fill="none" stroke="black" stroke-dasharray="1,5" d="M286.94,-552.12C333.85,-532.16 424.92,-491.41 496.87,-447 582.42,-394.2 600.73,-375.65 676.87,-310 727.15,-266.65 781.77,-211.41 811.8,-180.25"/>
<polygon fill="black" stroke="black" points="814.49,-182.51 818.89,-172.87 809.44,-177.66 814.49,-182.51"/>
</g>
<!-- :domain&#45;&gt;:data:musicbrainz -->
<g id="edge26" class="edge">
<title>:domain&#45;&gt;:data:musicbrainz</title>
<path fill="none" stroke="black" stroke-dasharray="1,5" d="M263.58,-547.83C276.44,-519.3 303.2,-460.38 326.87,-411 367.29,-326.69 417.27,-227.83 440.65,-181.9"/>
<polygon fill="black" stroke="black" points="443.8,-183.42 445.22,-172.92 437.56,-180.25 443.8,-183.42"/>
</g>
<!-- :ui:common&#45;&gt;:data&#45;android -->
<g id="edge48" class="edge">
<title>:ui:common&#45;&gt;:data&#45;android</title>
<path fill="none" stroke="black" stroke-dasharray="1,5" d="M695.74,-687.3C642.16,-662.78 534.58,-613.54 475,-586.28"/>
<polygon fill="black" stroke="black" points="476.41,-583.08 465.86,-582.1 473.5,-589.44 476.41,-583.08"/>
</g>
<!-- :ui:common&#45;&gt;:data:database -->
<g id="edge49" class="edge">
<title>:ui:common&#45;&gt;:data:database</title>
<path fill="none" stroke="black" stroke-dasharray="1,5" d="M709.52,-685.6C674.18,-654.77 593.23,-587.7 514.87,-548 414.98,-497.39 288.88,-462.45 213.79,-444.37"/>
<polygon fill="black" stroke="black" points="214.53,-440.94 203.99,-442.03 212.91,-447.75 214.53,-440.94"/>
</g>
<!-- :ui:common&#45;&gt;:domain -->
<g id="edge50" class="edge">
<title>:ui:common&#45;&gt;:domain</title>
<path fill="none" stroke="black" stroke-dasharray="1,5" d="M684.31,-689.54C595.55,-664.16 394.42,-606.63 302.86,-580.44"/>
<polygon fill="black" stroke="black" points="303.61,-577.01 293.03,-577.63 301.68,-583.74 303.61,-577.01"/>
</g>
<!-- :ui:common&#45;&gt;:ui:core -->
<g id="edge51" class="edge">
<title>:ui:common&#45;&gt;:ui:core</title>
<path fill="none" stroke="black" stroke-dasharray="1,5" d="M716.73,-685.09C697.97,-654.28 665.18,-588.48 697.87,-548 759.57,-471.6 1064.59,-442.32 1190.93,-433.35"/>
<polygon fill="black" stroke="black" points="1191.41,-436.83 1201.15,-432.64 1190.93,-429.84 1191.41,-436.83"/>
</g>
<!-- :ui:common&#45;&gt;:ui:image -->
<g id="edge52" class="edge">
<title>:ui:common&#45;&gt;:ui:image</title>
<path fill="none" stroke="black" stroke-dasharray="1,5" d="M778.63,-691.91C903.03,-667.17 1222.35,-603.69 1351.46,-578.02"/>
<polygon fill="black" stroke="black" points="1352.4,-581.4 1361.53,-576.02 1351.03,-574.53 1352.4,-581.4"/>
</g>
<!-- :ui:test:screenshot -->
<g id="node22" class="node">
<title>:ui:test:screenshot</title>
<ellipse fill="#baffc9" stroke="black" cx="1047.87" cy="-566" rx="96.68" ry="18"/>
<text text-anchor="middle" x="1047.87" y="-562.3" font-family="Times,serif" font-size="14.00">:ui:test:screenshot</text>
</g>
<!-- :ui:common&#45;&gt;:ui:test:screenshot -->
<g id="edge54" class="edge">
<title>:ui:common&#45;&gt;:ui:test:screenshot</title>
<path fill="none" stroke="black" stroke-dasharray="1,5" d="M761.81,-687.68C819.38,-663.39 936.24,-614.09 1001.37,-586.62"/>
<polygon fill="black" stroke="black" points="1002.74,-589.84 1010.59,-582.73 1000.02,-583.39 1002.74,-589.84"/>
</g>
<!-- :ui:test:image -->
<g id="node23" class="node">
<title>:ui:test:image</title>
<ellipse fill="#baffc9" stroke="black" cx="781.87" cy="-566" rx="74.99" ry="18"/>
<text text-anchor="middle" x="781.87" y="-562.3" font-family="Times,serif" font-size="14.00">:ui:test:image</text>
</g>
<!-- :ui:common&#45;&gt;:ui:test:image -->
<g id="edge53" class="edge">
<title>:ui:common&#45;&gt;:ui:test:image</title>
<path fill="none" stroke="black" stroke-dasharray="1,5" d="M734.71,-684.9C743.92,-661.88 760.4,-620.67 771.24,-593.58"/>
<polygon fill="black" stroke="black" points="774.62,-594.54 775.09,-583.96 768.12,-591.94 774.62,-594.54"/>
</g>
<!-- :ui:collections&#45;&gt;:data&#45;android -->
<g id="edge61" class="edge">
<title>:ui:collections&#45;&gt;:data&#45;android</title>
<path fill="none" stroke="black" stroke-dasharray="1,5" d="M497.08,-958.95C486.67,-895.41 450.09,-672.13 437.32,-594.14"/>
<polygon fill="black" stroke="black" points="440.75,-593.43 435.68,-584.13 433.84,-594.56 440.75,-593.43"/>
</g>
<!-- :ui:collections&#45;&gt;:data:database -->
<g id="edge60" class="edge">
<title>:ui:collections&#45;&gt;:data:database</title>
<path fill="none" stroke="black" stroke-dasharray="1,5" d="M447.31,-964.12C392.2,-948.91 307.05,-917.15 258.87,-858 158.64,-734.94 148.57,-531.26 148.4,-457.63"/>
<polygon fill="black" stroke="black" points="151.9,-457.36 148.44,-447.35 144.9,-457.34 151.9,-457.36"/>
</g>
<!-- :ui:collections&#45;&gt;:domain -->
<g id="edge62" class="edge">
<title>:ui:collections&#45;&gt;:domain</title>
<path fill="none" stroke="black" stroke-dasharray="1,5" d="M448.72,-963.85C396.73,-948.57 318.49,-916.9 279.87,-858 225.54,-775.14 240.18,-649.16 250.15,-594.22"/>
<polygon fill="black" stroke="black" points="253.62,-594.69 252.06,-584.21 246.75,-593.38 253.62,-594.69"/>
</g>
<!-- :ui:collections&#45;&gt;:ui:common -->
<g id="edge63" class="edge">
<title>:ui:collections&#45;&gt;:ui:common</title>
<path fill="none" stroke="black" stroke-dasharray="1,5" d="M530.5,-960.56C566.51,-941.05 626.02,-904.35 662.87,-858 693.67,-819.26 712.28,-763.79 721.27,-731.08"/>
<polygon fill="black" stroke="black" points="724.69,-731.86 723.86,-721.3 717.92,-730.08 724.69,-731.86"/>
</g>
<!-- :ui:collections&#45;&gt;:ui:core -->
<g id="edge64" class="edge">
<title>:ui:collections&#45;&gt;:ui:core</title>
<path fill="none" stroke="black" stroke-dasharray="1,5" d="M499.62,-958.87C499.68,-893.03 509.55,-654.51 644.87,-548 729.98,-481.01 1060.27,-445.91 1191.59,-434.37"/>
<polygon fill="black" stroke="black" points="1192.15,-437.83 1201.81,-433.48 1191.54,-430.86 1192.15,-437.83"/>
</g>
<!-- :ui:collections&#45;&gt;:ui:settings -->
<g id="edge65" class="edge">
<title>:ui:collections&#45;&gt;:ui:settings</title>
<path fill="none" stroke="black" stroke-dasharray="1,5" d="M511.21,-959.18C526.88,-935.93 555.28,-893.8 573.59,-866.63"/>
<polygon fill="black" stroke="black" points="576.7,-868.29 579.39,-858.04 570.89,-864.37 576.7,-868.29"/>
</g>
<!-- :ui:collections&#45;&gt;:data -->
<g id="edge59" class="edge">
<title>:ui:collections&#45;&gt;:data</title>
<path fill="none" stroke="black" stroke-dasharray="1,5" d="M487.21,-959.22C433.64,-886.11 234.55,-590.94 368.87,-411 422.7,-338.9 530.47,-309.96 590.67,-299.06"/>
<polygon fill="black" stroke="black" points="591.36,-302.49 600.62,-297.34 590.17,-295.59 591.36,-302.49"/>
</g>
<!-- :ui:collections&#45;&gt;:ui:test:screenshot -->
<g id="edge66" class="edge">
<title>:ui:collections&#45;&gt;:ui:test:screenshot</title>
<path fill="none" stroke="black" stroke-dasharray="1,5" d="M566.61,-968.84C686.85,-954.57 932.79,-918.6 990.87,-858 1061.15,-784.68 1056.96,-651.54 1051.34,-594.33"/>
<polygon fill="black" stroke="black" points="1054.81,-593.82 1050.26,-584.25 1047.85,-594.57 1054.81,-593.82"/>
</g>
<!-- :ui:history&#45;&gt;:domain -->
<g id="edge72" class="edge">
<title>:ui:history&#45;&gt;:domain</title>
<path fill="none" stroke="black" stroke-dasharray="1,5" d="M796.71,-966.48C730.37,-951.48 607.66,-917.72 518.87,-858 406.2,-782.22 309.49,-647.94 272.23,-592.27"/>
<polygon fill="black" stroke="black" points="275.01,-590.13 266.57,-583.73 269.18,-594 275.01,-590.13"/>
</g>
<!-- :ui:history&#45;&gt;:ui:common -->
<g id="edge73" class="edge">
<title>:ui:history&#45;&gt;:ui:common</title>
<path fill="none" stroke="black" stroke-dasharray="1,5" d="M834.03,-959.19C821.07,-936.64 798.03,-895.13 781.87,-858 762.87,-814.35 745.55,-761.67 735.89,-730.61"/>
<polygon fill="black" stroke="black" points="739.2,-729.47 732.92,-720.94 732.51,-731.53 739.2,-729.47"/>
</g>
<!-- :ui:history&#45;&gt;:ui:core -->
<g id="edge74" class="edge">
<title>:ui:history&#45;&gt;:ui:core</title>
<path fill="none" stroke="black" stroke-dasharray="1,5" d="M900.45,-972.85C976.16,-965.43 1109.2,-940.67 1180.87,-858 1283.17,-740.01 1262.23,-531.6 1250.71,-457.27"/>
<polygon fill="black" stroke="black" points="1254.15,-456.62 1249.09,-447.31 1247.24,-457.74 1254.15,-456.62"/>
</g>
<!-- :ui:history&#45;&gt;:ui:image -->
<g id="edge75" class="edge">
<title>:ui:history&#45;&gt;:ui:image</title>
<path fill="none" stroke="black" stroke-dasharray="1,5" d="M901.69,-975.19C1052.24,-971.75 1450.29,-953.6 1530.87,-858 1601.71,-773.95 1485.98,-643.44 1432.11,-590.5"/>
<polygon fill="black" stroke="black" points="1434.26,-587.71 1424.64,-583.27 1429.39,-592.74 1434.26,-587.71"/>
</g>
<!-- :ui:history&#45;&gt;:ui:settings -->
<g id="edge76" class="edge">
<title>:ui:history&#45;&gt;:ui:settings</title>
<path fill="none" stroke="black" stroke-dasharray="1,5" d="M815.83,-961.04C770.17,-936.67 679.72,-888.41 628.51,-861.08"/>
<polygon fill="black" stroke="black" points="629.9,-857.86 619.43,-856.24 626.6,-864.03 629.9,-857.86"/>
</g>
<!-- :ui:history&#45;&gt;:data -->
<g id="edge71" class="edge">
<title>:ui:history&#45;&gt;:data</title>
<path fill="none" stroke="black" stroke-dasharray="1,5" d="M901.36,-974.48C1053.25,-969.25 1459.99,-947.07 1553.87,-858 1604.72,-809.76 1587.87,-774.09 1587.87,-704 1587.87,-704 1587.87,-704 1587.87,-565 1587.87,-373.15 865.35,-309.22 677.87,-295.86"/>
<polygon fill="black" stroke="black" points="678.04,-292.36 667.82,-295.16 677.55,-299.35 678.04,-292.36"/>
</g>
<!-- :ui:history&#45;&gt;:ui:test:screenshot -->
<g id="edge78" class="edge">
<title>:ui:history&#45;&gt;:ui:test:screenshot</title>
<path fill="none" stroke="black" stroke-dasharray="1,5" d="M881.3,-963.03C923.89,-946.12 991.69,-912.12 1023.87,-858 1074.39,-773.03 1061.87,-648.67 1053.04,-594.22"/>
<polygon fill="black" stroke="black" points="1056.48,-593.56 1051.34,-584.3 1049.58,-594.74 1056.48,-593.56"/>
</g>
<!-- :ui:history&#45;&gt;:ui:test:image -->
<g id="edge77" class="edge">
<title>:ui:history&#45;&gt;:ui:test:image</title>
<path fill="none" stroke="black" stroke-dasharray="1,5" d="M838.77,-958.98C832.16,-936.2 820.78,-894.44 814.87,-858 802.51,-781.86 810.12,-761.58 800.87,-685 797.09,-653.74 791.12,-618.07 786.88,-594.21"/>
<polygon fill="black" stroke="black" points="790.28,-593.36 785.07,-584.14 783.39,-594.6 790.28,-593.36"/>
</g>
<!-- :ui:image&#45;&gt;:ui:core -->
<g id="edge35" class="edge">
<title>:ui:image&#45;&gt;:ui:core</title>
<path fill="none" stroke="black" stroke-dasharray="1,5" d="M1387.77,-548.98C1359.05,-524.9 1304.66,-479.3 1272.2,-452.08"/>
<polygon fill="black" stroke="black" points="1274.36,-449.32 1264.45,-445.58 1269.86,-454.69 1274.36,-449.32"/>
</g>
<!-- :ui:image&#45;&gt;:data:core -->
<g id="edge34" class="edge">
<title>:ui:image&#45;&gt;:data:core</title>
<path fill="none" stroke="black" stroke-dasharray="1,5" d="M1397.58,-547.89C1380.77,-517.91 1343,-454.89 1299.87,-411 1117.04,-224.95 829.99,-85.2 723.47,-37.14"/>
<polygon fill="black" stroke="black" points="724.88,-33.94 714.33,-33.04 722.02,-40.33 724.88,-33.94"/>
</g>
<!-- :ui:nowplaying&#45;&gt;:domain -->
<g id="edge42" class="edge">
<title>:ui:nowplaying&#45;&gt;:domain</title>
<path fill="none" stroke="black" stroke-dasharray="1,5" d="M866.7,-823.79C754.62,-776.67 413.62,-633.32 296.15,-583.93"/>
<polygon fill="black" stroke="black" points="297.35,-580.64 286.78,-579.99 294.64,-587.1 297.35,-580.64"/>
</g>
<!-- :ui:nowplaying&#45;&gt;:ui:common -->
<g id="edge43" class="edge">
<title>:ui:nowplaying&#45;&gt;:ui:common</title>
<path fill="none" stroke="black" stroke-dasharray="1,5" d="M881.41,-822.45C850.06,-798.26 791.68,-753.22 756.64,-726.19"/>
<polygon fill="black" stroke="black" points="758.74,-723.39 748.69,-720.06 754.47,-728.94 758.74,-723.39"/>
</g>
<!-- :ui:nowplaying&#45;&gt;:ui:core -->
<g id="edge44" class="edge">
<title>:ui:nowplaying&#45;&gt;:ui:core</title>
<path fill="none" stroke="black" stroke-dasharray="1,5" d="M904.15,-821.9C908.71,-762.82 924.81,-569.68 941.87,-548 1002.91,-470.46 1121.76,-443.81 1191.4,-434.69"/>
<polygon fill="black" stroke="black" points="1192.22,-438.12 1201.72,-433.42 1191.37,-431.17 1192.22,-438.12"/>
</g>
<!-- :ui:nowplaying&#45;&gt;:ui:image -->
<g id="edge45" class="edge">
<title>:ui:nowplaying&#45;&gt;:ui:image</title>
<path fill="none" stroke="black" stroke-dasharray="1,5" d="M932.15,-823.2C1019.07,-776.29 1275.49,-637.91 1370.72,-586.51"/>
<polygon fill="black" stroke="black" points="1372.55,-589.5 1379.69,-581.67 1369.22,-583.34 1372.55,-589.5"/>
</g>
<!-- :ui:nowplaying&#45;&gt;:data -->
<g id="edge41" class="edge">
<title>:ui:nowplaying&#45;&gt;:data</title>
<path fill="none" stroke="black" stroke-dasharray="1,5" d="M904.16,-821.96C906.96,-775.54 910.15,-643.95 865.87,-548 817.75,-443.71 711.41,-352.49 661.17,-313.34"/>
<polygon fill="black" stroke="black" points="663.1,-310.41 653.04,-307.08 658.83,-315.95 663.1,-310.41"/>
</g>
<!-- :ui:nowplaying&#45;&gt;:ui:test:screenshot -->
<g id="edge47" class="edge">
<title>:ui:nowplaying&#45;&gt;:ui:test:screenshot</title>
<path fill="none" stroke="black" stroke-dasharray="1,5" d="M911.94,-821.99C936.51,-775.9 1004.45,-648.45 1033.93,-593.15"/>
<polygon fill="black" stroke="black" points="1037.19,-594.48 1038.8,-584.01 1031.01,-591.19 1037.19,-594.48"/>
</g>
<!-- :ui:nowplaying&#45;&gt;:ui:test:image -->
<g id="edge46" class="edge">
<title>:ui:nowplaying&#45;&gt;:ui:test:image</title>
<path fill="none" stroke="black" stroke-dasharray="1,5" d="M895.3,-821.99C874.8,-775.9 818.1,-648.45 793.51,-593.15"/>
<polygon fill="black" stroke="black" points="796.7,-591.72 789.44,-584.01 790.3,-594.57 796.7,-591.72"/>
</g>
<!-- :ui:settings&#45;&gt;:data&#45;android -->
<g id="edge36" class="edge">
<title>:ui:settings&#45;&gt;:data&#45;android</title>
<path fill="none" stroke="black" stroke-dasharray="1,5" d="M580.99,-821.99C554.16,-775.81 479.87,-647.92 447.86,-592.81"/>
<polygon fill="black" stroke="black" points="450.8,-590.9 442.75,-584.01 444.75,-594.41 450.8,-590.9"/>
</g>
<!-- :ui:settings&#45;&gt;:domain -->
<g id="edge37" class="edge">
<title>:ui:settings&#45;&gt;:domain</title>
<path fill="none" stroke="black" stroke-dasharray="1,5" d="M570.92,-822.8C513.64,-776.3 348.64,-642.33 283.14,-589.14"/>
<polygon fill="black" stroke="black" points="285.27,-586.36 275.3,-582.77 280.86,-591.8 285.27,-586.36"/>
</g>
<!-- :ui:settings&#45;&gt;:ui:common -->
<g id="edge38" class="edge">
<title>:ui:settings&#45;&gt;:ui:common</title>
<path fill="none" stroke="black" stroke-dasharray="1,5" d="M607.67,-822.45C631.7,-798.76 676.04,-755.07 703.63,-727.89"/>
<polygon fill="black" stroke="black" points="706.27,-730.2 710.93,-720.69 701.35,-725.21 706.27,-730.2"/>
</g>
<!-- :ui:settings&#45;&gt;:ui:core -->
<g id="edge39" class="edge">
<title>:ui:settings&#45;&gt;:ui:core</title>
<path fill="none" stroke="black" stroke-dasharray="1,5" d="M590.21,-821.8C589.29,-770.76 594.19,-619.31 679.87,-548 757.82,-483.12 1065.36,-447.14 1191.47,-434.87"/>
<polygon fill="black" stroke="black" points="1192.05,-438.33 1201.67,-433.89 1191.38,-431.36 1192.05,-438.33"/>
</g>
<!-- :ui:settings&#45;&gt;:ui:test:screenshot -->
<g id="edge40" class="edge">
<title>:ui:settings&#45;&gt;:ui:test:screenshot</title>
<path fill="none" stroke="black" stroke-dasharray="1,5" d="M593.13,-821.92C598.24,-790.25 613.61,-722.25 654.87,-685 735.62,-612.11 859.87,-584.19 946.99,-573.53"/>
<polygon fill="black" stroke="black" points="947.63,-576.98 957.16,-572.34 946.82,-570.02 947.63,-576.98"/>
</g>
<!-- :ui:spotify&#45;broadcast&#45;receiver&#45;&gt;:ui:common -->
<g id="edge57" class="edge">
<title>:ui:spotify&#45;broadcast&#45;receiver&#45;&gt;:ui:common</title>
<path fill="none" stroke="black" stroke-dasharray="1,5" d="M1303.78,-824.17C1175.55,-797.41 907.77,-741.54 788.01,-716.55"/>
<polygon fill="black" stroke="black" points="788.43,-713.06 777.92,-714.44 787,-719.91 788.43,-713.06"/>
</g>
<!-- :ui:spotify&#45;broadcast&#45;receiver&#45;&gt;:ui:core -->
<g id="edge56" class="edge">
<title>:ui:spotify&#45;broadcast&#45;receiver&#45;&gt;:ui:core</title>
<path fill="none" stroke="black" stroke-dasharray="1,5" d="M1369.49,-821.95C1349.45,-758.41 1279.03,-535.13 1254.43,-457.14"/>
<polygon fill="black" stroke="black" points="1257.62,-455.61 1251.27,-447.13 1250.94,-457.72 1257.62,-455.61"/>
</g>
<!-- :ui:spotify&#45;broadcast&#45;receiver&#45;&gt;:data:core -->
<g id="edge55" class="edge">
<title>:ui:spotify&#45;broadcast&#45;receiver&#45;&gt;:data:core</title>
<path fill="none" stroke="black" stroke-dasharray="1,5" d="M1395.98,-822.07C1442.52,-782.66 1549.87,-679.58 1549.87,-567 1549.87,-567 1549.87,-567 1549.87,-291 1549.87,-122.49 946.63,-45.9 745.94,-25.09"/>
<polygon fill="black" stroke="black" points="746.14,-21.59 735.84,-24.05 745.43,-28.55 746.14,-21.59"/>
</g>
<!-- :ui:spotify&#45;broadcast&#45;receiver&#45;&gt;:ui:test:screenshot -->
<g id="edge58" class="edge">
<title>:ui:spotify&#45;broadcast&#45;receiver&#45;&gt;:ui:test:screenshot</title>
<path fill="none" stroke="black" stroke-dasharray="1,5" d="M1354.42,-821.99C1297.97,-775.03 1139.93,-643.58 1075.62,-590.08"/>
<polygon fill="black" stroke="black" points="1077.83,-587.37 1067.9,-583.66 1073.35,-592.75 1077.83,-587.37"/>
</g>
<!-- :ui:stats&#45;&gt;:ui:common -->
<g id="edge68" class="edge">
<title>:ui:stats&#45;&gt;:ui:common</title>
<path fill="none" stroke="black" stroke-dasharray="1,5" d="M1089.42,-827.26C1018.9,-803.21 857.91,-748.33 776.67,-720.64"/>
<polygon fill="black" stroke="black" points="777.77,-717.31 767.17,-717.4 775.51,-723.94 777.77,-717.31"/>
</g>
<!-- :ui:stats&#45;&gt;:ui:core -->
<g id="edge69" class="edge">
<title>:ui:stats&#45;&gt;:ui:core</title>
<path fill="none" stroke="black" stroke-dasharray="1,5" d="M1134.91,-822.14C1149.01,-799.87 1173.2,-759.02 1186.87,-721 1220.5,-627.48 1236.94,-509.78 1243.01,-457.36"/>
<polygon fill="black" stroke="black" points="1246.51,-457.52 1244.15,-447.2 1239.55,-456.74 1246.51,-457.52"/>
</g>
<!-- :ui:stats&#45;&gt;:data -->
<g id="edge67" class="edge">
<title>:ui:stats&#45;&gt;:data</title>
<path fill="none" stroke="black" stroke-dasharray="1,5" d="M1132.37,-821.94C1154.76,-774.38 1209.89,-637.86 1153.87,-548 1045.75,-374.56 781.49,-315.78 677.21,-298.92"/>
<polygon fill="black" stroke="black" points="677.46,-295.42 667.04,-297.33 676.38,-302.34 677.46,-295.42"/>
</g>
<!-- :ui:stats&#45;&gt;:ui:test:screenshot -->
<g id="edge70" class="edge">
<title>:ui:stats&#45;&gt;:ui:test:screenshot</title>
<path fill="none" stroke="black" stroke-dasharray="1,5" d="M1119.12,-821.99C1106.29,-776.1 1070.92,-649.5 1055.37,-593.84"/>
<polygon fill="black" stroke="black" points="1058.69,-592.7 1052.62,-584.01 1051.94,-594.58 1058.69,-592.7"/>
</g>
<!-- :data&#45;&gt;:data:core -->
<g id="edge16" class="edge">
<title>:data&#45;&gt;:data:core</title>
<path fill="none" stroke="black" d="M648.64,-275.4C667.59,-254.19 699.5,-214.16 711.87,-173 725.1,-128.98 707.86,-76.09 694.56,-45.14"/>
<polygon fill="black" stroke="black" points="697.71,-43.6 690.43,-35.9 691.32,-46.46 697.71,-43.6"/>
</g>
<!-- :data&#45;&gt;:data:common:network -->
<g id="edge17" class="edge">
<title>:data&#45;&gt;:data:common:network</title>
<path fill="none" stroke="black" d="M605.44,-281.61C538.56,-259.54 370.28,-204 281.59,-174.72"/>
<polygon fill="black" stroke="black" points="282.55,-171.35 271.96,-171.54 280.36,-178 282.55,-171.35"/>
</g>
<!-- :data&#45;&gt;:data:coverart -->
<g id="edge18" class="edge">
<title>:data&#45;&gt;:data:coverart</title>
<path fill="none" stroke="black" d="M654.25,-277.31C689.1,-253.91 760.42,-206.01 802.26,-177.9"/>
<polygon fill="black" stroke="black" points="804.36,-180.71 810.71,-172.22 800.46,-174.89 804.36,-180.71"/>
</g>
<!-- :data:spotify -->
<g id="node19" class="node">
<title>:data:spotify</title>
<ellipse fill="#ffd2b3" stroke="black" cx="633.87" cy="-155" rx="68.79" ry="18"/>
<text text-anchor="middle" x="633.87" y="-151.3" font-family="Times,serif" font-size="14.00">:data:spotify</text>
</g>
<!-- :data&#45;&gt;:data:spotify -->
<g id="edge19" class="edge">
<title>:data&#45;&gt;:data:spotify</title>
<path fill="none" stroke="black" d="M633.87,-273.9C633.87,-251.1 633.87,-210.48 633.87,-183.39"/>
<polygon fill="black" stroke="black" points="637.37,-183.39 633.87,-173.39 630.37,-183.39 637.37,-183.39"/>
</g>
<!-- :data&#45;&gt;:data:musicbrainz -->
<g id="edge20" class="edge">
<title>:data&#45;&gt;:data:musicbrainz</title>
<path fill="none" stroke="black" d="M614.95,-276.81C583.73,-253.4 521.19,-206.49 483.89,-178.51"/>
<polygon fill="black" stroke="black" points="485.98,-175.71 475.88,-172.51 481.78,-181.31 485.98,-175.71"/>
</g>
<!-- :data:coverart&#45;&gt;:data:core -->
<g id="edge31" class="edge">
<title>:data:coverart&#45;&gt;:data:core</title>
<path fill="none" stroke="black" stroke-dasharray="1,5" d="M816.11,-137.45C789.01,-113.53 738.79,-69.22 708.05,-42.1"/>
<polygon fill="black" stroke="black" points="710.12,-39.26 700.31,-35.27 705.49,-44.51 710.12,-39.26"/>
</g>
<!-- :data:spotify&#45;&gt;:data:core -->
<g id="edge32" class="edge">
<title>:data:spotify&#45;&gt;:data:core</title>
<path fill="none" stroke="black" stroke-dasharray="1,5" d="M639.95,-136.9C648.14,-113.88 662.79,-72.67 672.42,-45.58"/>
<polygon fill="black" stroke="black" points="675.79,-46.55 675.84,-35.96 669.19,-44.21 675.79,-46.55"/>
</g>
<!-- :data:musicbrainz&#45;&gt;:data:core -->
<g id="edge33" class="edge">
<title>:data:musicbrainz&#45;&gt;:data:core</title>
<path fill="none" stroke="black" stroke-dasharray="1,5" d="M481.37,-137.72C523.01,-113.06 602,-66.29 647.41,-39.4"/>
<polygon fill="black" stroke="black" points="649.21,-42.41 656.03,-34.3 645.64,-36.39 649.21,-42.41"/>
</g>
<!-- :desktop&#45;app -->
<g id="node21" class="node">
<title>:desktop&#45;app</title>
<polygon fill="#ffb3ba" stroke="black" points="1755.87,-1132 1647.87,-1132 1647.87,-1096 1755.87,-1096 1755.87,-1132"/>
<text text-anchor="middle" x="1701.87" y="-1110.3" font-family="Times,serif" font-size="14.00">:desktop&#45;app</text>
</g>
<!-- :desktop&#45;app&#45;&gt;:ui:core -->
<g id="edge27" class="edge">
<title>:desktop&#45;app&#45;&gt;:ui:core</title>
<path fill="none" stroke="black" stroke-dasharray="1,5" d="M1701.87,-1095.82C1701.87,-1052.86 1701.87,-937.33 1701.87,-841 1701.87,-841 1701.87,-841 1701.87,-702 1701.87,-632.73 1724.03,-599.65 1677.87,-548 1627.23,-491.34 1402.02,-452.4 1298.38,-437.16"/>
<polygon fill="black" stroke="black" points="1298.84,-433.69 1288.44,-435.72 1297.83,-440.62 1298.84,-433.69"/>
</g>
<!-- :ui:test:screenshot&#45;&gt;:ui:core -->
<g id="edge79" class="edge">
<title>:ui:test:screenshot&#45;&gt;:ui:core</title>
<path fill="none" stroke="black" stroke-dasharray="1,5" d="M1072.15,-548.45C1108.34,-523.77 1176.39,-477.37 1215.72,-450.56"/>
<polygon fill="black" stroke="black" points="1217.84,-453.35 1224.13,-444.83 1213.89,-447.57 1217.84,-453.35"/>
</g>
</g>
</svg>
