<?xml version="1.0" encoding="UTF-8" standalone="no"?>
<!DOCTYPE svg PUBLIC "-//W3C//DTD SVG 1.1//EN"
 "http://www.w3.org/Graphics/SVG/1.1/DTD/svg11.dtd">
<!-- Generated by graphviz version 2.43.0 (0)
 -->
<!-- Title: %3 Pages: 1 -->
<svg width="2338pt" height="1214pt"
 viewBox="0.00 0.00 2337.69 1214.00" xmlns="http://www.w3.org/2000/svg" xmlns:xlink="http://www.w3.org/1999/xlink">
<g id="graph0" class="graph" transform="scale(1 1) rotate(0) translate(4 1210)">
<title>%3</title>
<polygon fill="white" stroke="transparent" points="-4,4 -4,-1210 2333.69,-1210 2333.69,4 -4,4"/>
<text text-anchor="middle" x="1164.85" y="-1178" font-family="Times,serif" font-size="30.00">MusicSearch</text>
<text text-anchor="middle" x="1164.85" y="-1145" font-family="Times,serif" font-size="30.00"> </text>
<!-- :app -->
<g id="node1" class="node">
<title>:app</title>
<polygon fill="#9affb5" stroke="black" points="1047.69,-1132 687.69,-1132 687.69,-1096 1047.69,-1096 1047.69,-1132"/>
<text text-anchor="middle" x="867.69" y="-1110.3" font-family="Times,serif" font-size="14.00">:app</text>
</g>
<!-- :test&#45;data -->
<g id="node2" class="node">
<title>:test&#45;data</title>
<ellipse fill="#b59aff" stroke="black" cx="366.69" cy="-429" rx="55.49" ry="18"/>
<text text-anchor="middle" x="366.69" y="-425.3" font-family="Times,serif" font-size="14.00">:test&#45;data</text>
</g>
<!-- :app&#45;&gt;:test&#45;data -->
<g id="edge1" class="edge">
<title>:app&#45;&gt;:test&#45;data</title>
<path fill="none" stroke="#ff9ab1" stroke-dasharray="1,5" d="M687.43,-1110C544.41,-1110 368.39,-1110 368.39,-1110 368.39,-1110 368.39,-457.22 368.39,-457.22"/>
<polygon fill="#ff9ab1" stroke="#ff9ab1" points="371.89,-457.22 368.39,-447.22 364.89,-457.22 371.89,-457.22"/>
</g>
<!-- :data&#45;android -->
<g id="node3" class="node">
<title>:data&#45;android</title>
<ellipse fill="#9affb5" stroke="black" cx="571.69" cy="-566" rx="72.59" ry="18"/>
<text text-anchor="middle" x="571.69" y="-562.3" font-family="Times,serif" font-size="14.00">:data&#45;android</text>
</g>
<!-- :app&#45;&gt;:data&#45;android -->
<g id="edge2" class="edge">
<title>:app&#45;&gt;:data&#45;android</title>
<path fill="none" stroke="black" stroke-dasharray="1,5" d="M687.35,-1103C634.66,-1103 590.94,-1103 590.94,-1103 590.94,-1103 590.94,-593.56 590.94,-593.56"/>
<polygon fill="black" stroke="black" points="594.44,-593.56 590.94,-583.56 587.44,-593.56 594.44,-593.56"/>
</g>
<!-- :data:database -->
<g id="node4" class="node">
<title>:data:database</title>
<ellipse fill="#b59aff" stroke="black" cx="519.69" cy="-429" rx="79.09" ry="18"/>
<text text-anchor="middle" x="519.69" y="-425.3" font-family="Times,serif" font-size="14.00">:data:database</text>
</g>
<!-- :app&#45;&gt;:data:database -->
<g id="edge3" class="edge">
<title>:app&#45;&gt;:data:database</title>
<path fill="none" stroke="black" stroke-dasharray="1,5" d="M798.75,-1095.69C798.75,-985.56 798.75,-416 798.75,-416 798.75,-416 584.83,-416 584.83,-416"/>
<polygon fill="black" stroke="black" points="584.83,-412.5 574.83,-416 584.83,-419.5 584.83,-412.5"/>
</g>
<!-- :data:repository -->
<g id="node5" class="node">
<title>:data:repository</title>
<ellipse fill="#b59aff" stroke="black" cx="243.69" cy="-566" rx="85.29" ry="18"/>
<text text-anchor="middle" x="243.69" y="-562.3" font-family="Times,serif" font-size="14.00">:data:repository</text>
</g>
<!-- :app&#45;&gt;:data:repository -->
<g id="edge4" class="edge">
<title>:app&#45;&gt;:data:repository</title>
<path fill="none" stroke="black" stroke-dasharray="1,5" d="M687.62,-1117C503.31,-1117 243.69,-1117 243.69,-1117 243.69,-1117 243.69,-594.02 243.69,-594.02"/>
<polygon fill="black" stroke="black" points="247.19,-594.02 243.69,-584.02 240.19,-594.02 247.19,-594.02"/>
</g>
<!-- :domain -->
<g id="node6" class="node">
<title>:domain</title>
<ellipse fill="#b59aff" stroke="black" cx="748.69" cy="-566" rx="48.19" ry="18"/>
<text text-anchor="middle" x="748.69" y="-562.3" font-family="Times,serif" font-size="14.00">:domain</text>
</g>
<!-- :app&#45;&gt;:domain -->
<g id="edge5" class="edge">
<title>:app&#45;&gt;:domain</title>
<path fill="none" stroke="black" stroke-dasharray="1,5" d="M790.22,-1095.77C790.22,-1095.77 790.22,-585.14 790.22,-585.14"/>
<polygon fill="black" stroke="black" points="793.72,-585.14 790.22,-575.14 786.72,-585.14 793.72,-585.14"/>
</g>
<!-- :inverted&#45;domain -->
<g id="node7" class="node">
<title>:inverted&#45;domain</title>
<ellipse fill="#b59aff" stroke="black" cx="89.69" cy="-292" rx="89.88" ry="18"/>
<text text-anchor="middle" x="89.69" y="-288.3" font-family="Times,serif" font-size="14.00">:inverted&#45;domain</text>
</g>
<!-- :app&#45;&gt;:inverted&#45;domain -->
<g id="edge6" class="edge">
<title>:app&#45;&gt;:inverted&#45;domain</title>
<path fill="none" stroke="black" stroke-dasharray="1,5" d="M687.31,-1124C454.58,-1124 79.27,-1124 79.27,-1124 79.27,-1124 79.27,-320.15 79.27,-320.15"/>
<polygon fill="black" stroke="black" points="82.77,-320.15 79.27,-310.15 75.77,-320.15 82.77,-320.15"/>
</g>
<!-- :feature:search -->
<g id="node8" class="node">
<title>:feature:search</title>
<ellipse fill="#9affb5" stroke="black" cx="705.69" cy="-840" rx="81.49" ry="18"/>
<text text-anchor="middle" x="705.69" y="-836.3" font-family="Times,serif" font-size="14.00">:feature:search</text>
</g>
<!-- :app&#45;&gt;:feature:search -->
<g id="edge7" class="edge">
<title>:app&#45;&gt;:feature:search</title>
<path fill="none" stroke="black" stroke-dasharray="1,5" d="M753.85,-1095.6C753.85,-1095.6 753.85,-864.56 753.85,-864.56"/>
<polygon fill="black" stroke="black" points="757.35,-864.56 753.85,-854.56 750.35,-864.56 757.35,-864.56"/>
</g>
<!-- :strings -->
<g id="node9" class="node">
<title>:strings</title>
<ellipse fill="#b59aff" stroke="black" cx="1050.69" cy="-566" rx="46.29" ry="18"/>
<text text-anchor="middle" x="1050.69" y="-562.3" font-family="Times,serif" font-size="14.00">:strings</text>
</g>
<!-- :app&#45;&gt;:strings -->
<g id="edge8" class="edge">
<title>:app&#45;&gt;:strings</title>
<path fill="none" stroke="black" stroke-dasharray="1,5" d="M966.33,-1095.86C966.33,-1002.23 966.33,-578 966.33,-578 966.33,-578 1005.89,-578 1005.89,-578"/>
<polygon fill="black" stroke="black" points="1005.89,-581.5 1015.89,-578 1005.89,-574.5 1005.89,-581.5"/>
</g>
<!-- :ui:common -->
<g id="node10" class="node">
<title>:ui:common</title>
<ellipse fill="#9affb5" stroke="black" cx="1258.69" cy="-703" rx="64.19" ry="18"/>
<text text-anchor="middle" x="1258.69" y="-699.3" font-family="Times,serif" font-size="14.00">:ui:common</text>
</g>
<!-- :app&#45;&gt;:ui:common -->
<g id="edge9" class="edge">
<title>:app&#45;&gt;:ui:common</title>
<path fill="none" stroke="black" stroke-dasharray="1,5" d="M971.52,-1095.99C971.52,-1017.96 971.52,-713 971.52,-713 971.52,-713 1195.01,-713 1195.01,-713"/>
<polygon fill="black" stroke="black" points="1195.01,-716.5 1205.01,-713 1195.01,-709.5 1195.01,-716.5"/>
</g>
<!-- :ui:core -->
<g id="node11" class="node">
<title>:ui:core</title>
<ellipse fill="#b59aff" stroke="black" cx="1528.69" cy="-429" rx="45.49" ry="18"/>
<text text-anchor="middle" x="1528.69" y="-425.3" font-family="Times,serif" font-size="14.00">:ui:core</text>
</g>
<!-- :app&#45;&gt;:ui:core -->
<g id="edge10" class="edge">
<title>:app&#45;&gt;:ui:core</title>
<path fill="none" stroke="black" stroke-dasharray="1,5" d="M961.14,-1095.7C961.14,-986.93 961.14,-430 961.14,-430 961.14,-430 1473.21,-430 1473.21,-430"/>
<polygon fill="black" stroke="black" points="1473.21,-433.5 1483.21,-430 1473.21,-426.5 1473.21,-433.5"/>
</g>
<!-- :ui:collections -->
<g id="node12" class="node">
<title>:ui:collections</title>
<ellipse fill="#9affb5" stroke="black" cx="482.69" cy="-977" rx="74.99" ry="18"/>
<text text-anchor="middle" x="482.69" y="-973.3" font-family="Times,serif" font-size="14.00">:ui:collections</text>
</g>
<!-- :app&#45;&gt;:ui:collections -->
<g id="edge11" class="edge">
<title>:app&#45;&gt;:ui:collections</title>
<path fill="none" stroke="black" stroke-dasharray="1,5" d="M720.77,-1095.92C720.77,-1060.2 720.77,-984 720.77,-984 720.77,-984 561.55,-984 561.55,-984"/>
<polygon fill="black" stroke="black" points="561.55,-980.5 551.55,-984 561.55,-987.5 561.55,-980.5"/>
</g>
<!-- :ui:history -->
<g id="node13" class="node">
<title>:ui:history</title>
<ellipse fill="#9affb5" stroke="black" cx="1044.69" cy="-977" rx="57.69" ry="18"/>
<text text-anchor="middle" x="1044.69" y="-973.3" font-family="Times,serif" font-size="14.00">:ui:history</text>
</g>
<!-- :app&#45;&gt;:ui:history -->
<g id="edge12" class="edge">
<title>:app&#45;&gt;:ui:history</title>
<path fill="none" stroke="black" stroke-dasharray="1,5" d="M1017.27,-1095.81C1017.27,-1095.81 1017.27,-1003.13 1017.27,-1003.13"/>
<polygon fill="black" stroke="black" points="1020.77,-1003.13 1017.27,-993.13 1013.77,-1003.13 1020.77,-1003.13"/>
</g>
<!-- :ui:image -->
<g id="node14" class="node">
<title>:ui:image</title>
<ellipse fill="#b59aff" stroke="black" cx="1991.69" cy="-566" rx="53.89" ry="18"/>
<text text-anchor="middle" x="1991.69" y="-562.3" font-family="Times,serif" font-size="14.00">:ui:image</text>
</g>
<!-- :app&#45;&gt;:ui:image -->
<g id="edge13" class="edge">
<title>:app&#45;&gt;:ui:image</title>
<path fill="none" stroke="black" stroke-dasharray="1,5" d="M1048,-1124C1359,-1124 1963.3,-1124 1963.3,-1124 1963.3,-1124 1963.3,-591.51 1963.3,-591.51"/>
<polygon fill="black" stroke="black" points="1966.8,-591.51 1963.3,-581.51 1959.8,-591.51 1966.8,-591.51"/>
</g>
<!-- :ui:nowplaying -->
<g id="node15" class="node">
<title>:ui:nowplaying</title>
<ellipse fill="#9affb5" stroke="black" cx="1463.69" cy="-840" rx="78.79" ry="18"/>
<text text-anchor="middle" x="1463.69" y="-836.3" font-family="Times,serif" font-size="14.00">:ui:nowplaying</text>
</g>
<!-- :app&#45;&gt;:ui:nowplaying -->
<g id="edge14" class="edge">
<title>:app&#45;&gt;:ui:nowplaying</title>
<path fill="none" stroke="black" stroke-dasharray="1,5" d="M1047.72,-1110C1223.18,-1110 1463.69,-1110 1463.69,-1110 1463.69,-1110 1463.69,-868.13 1463.69,-868.13"/>
<polygon fill="black" stroke="black" points="1467.19,-868.13 1463.69,-858.13 1460.19,-868.13 1467.19,-868.13"/>
</g>
<!-- :ui:settings -->
<g id="node16" class="node">
<title>:ui:settings</title>
<ellipse fill="#9affb5" stroke="black" cx="867.69" cy="-840" rx="63.09" ry="18"/>
<text text-anchor="middle" x="867.69" y="-836.3" font-family="Times,serif" font-size="14.00">:ui:settings</text>
</g>
<!-- :app&#45;&gt;:ui:settings -->
<g id="edge15" class="edge">
<title>:app&#45;&gt;:ui:settings</title>
<path fill="none" stroke="black" stroke-dasharray="1,5" d="M888.71,-1095.6C888.71,-1095.6 888.71,-867.26 888.71,-867.26"/>
<polygon fill="black" stroke="black" points="892.21,-867.26 888.71,-857.26 885.21,-867.26 892.21,-867.26"/>
</g>
<!-- :ui:spotify&#45;broadcast&#45;receiver -->
<g id="node17" class="node">
<title>:ui:spotify&#45;broadcast&#45;receiver</title>
<ellipse fill="#9affb5" stroke="black" cx="1707.69" cy="-840" rx="146.77" ry="18"/>
<text text-anchor="middle" x="1707.69" y="-836.3" font-family="Times,serif" font-size="14.00">:ui:spotify&#45;broadcast&#45;receiver</text>
</g>
<!-- :app&#45;&gt;:ui:spotify&#45;broadcast&#45;receiver -->
<g id="edge16" class="edge">
<title>:app&#45;&gt;:ui:spotify&#45;broadcast&#45;receiver</title>
<path fill="none" stroke="black" stroke-dasharray="1,5" d="M1047.89,-1117C1294.71,-1117 1707.69,-1117 1707.69,-1117 1707.69,-1117 1707.69,-868.17 1707.69,-868.17"/>
<polygon fill="black" stroke="black" points="1711.19,-868.17 1707.69,-858.17 1704.19,-868.17 1711.19,-868.17"/>
</g>
<!-- :ui:stats -->
<g id="node18" class="node">
<title>:ui:stats</title>
<ellipse fill="#9affb5" stroke="black" cx="1242.69" cy="-840" rx="48.19" ry="18"/>
<text text-anchor="middle" x="1242.69" y="-836.3" font-family="Times,serif" font-size="14.00">:ui:stats</text>
</g>
<!-- :app&#45;&gt;:ui:stats -->
<g id="edge17" class="edge">
<title>:app&#45;&gt;:ui:stats</title>
<path fill="none" stroke="black" stroke-dasharray="1,5" d="M1047.78,-1103C1143.93,-1103 1242.69,-1103 1242.69,-1103 1242.69,-1103 1242.69,-868.08 1242.69,-868.08"/>
<polygon fill="black" stroke="black" points="1246.19,-868.08 1242.69,-858.08 1239.19,-868.08 1246.19,-868.08"/>
</g>
<!-- :test&#45;data&#45;&gt;:inverted&#45;domain -->
<g id="edge26" class="edge">
<title>:test&#45;data&#45;&gt;:inverted&#45;domain</title>
<path fill="none" stroke="black" stroke-dasharray="1,5" d="M311.3,-429C252.17,-429 166.88,-429 166.88,-429 166.88,-429 166.88,-311.42 166.88,-311.42"/>
<polygon fill="black" stroke="black" points="170.38,-311.42 166.88,-301.42 163.38,-311.42 170.38,-311.42"/>
</g>
<!-- :data -->
<g id="node19" class="node">
<title>:data</title>
<ellipse fill="#ffb59a" stroke="black" cx="850.69" cy="-292" rx="34.39" ry="18"/>
<text text-anchor="middle" x="850.69" y="-288.3" font-family="Times,serif" font-size="14.00">:data</text>
</g>
<!-- :test&#45;data&#45;&gt;:data -->
<g id="edge25" class="edge">
<title>:test&#45;data&#45;&gt;:data</title>
<path fill="none" stroke="black" stroke-dasharray="1,5" d="M386.02,-412.03C386.02,-374.16 386.02,-286 386.02,-286 386.02,-286 808.02,-286 808.02,-286"/>
<polygon fill="black" stroke="black" points="808.02,-289.5 818.02,-286 808.02,-282.5 808.02,-289.5"/>
</g>
<!-- :data&#45;android&#45;&gt;:test&#45;data -->
<g id="edge19" class="edge">
<title>:data&#45;android&#45;&gt;:test&#45;data</title>
<path fill="none" stroke="#ff9ab1" stroke-dasharray="1,5" d="M508.39,-557C464.88,-557 414.94,-557 414.94,-557 414.94,-557 414.94,-447.8 414.94,-447.8"/>
<polygon fill="#ff9ab1" stroke="#ff9ab1" points="418.44,-447.8 414.94,-437.8 411.44,-447.8 418.44,-447.8"/>
</g>
<!-- :data&#45;android&#45;&gt;:data -->
<g id="edge18" class="edge">
<title>:data&#45;android&#45;&gt;:data</title>
<path fill="none" stroke="black" d="M629.32,-555C629.32,-504.11 629.32,-294 629.32,-294 629.32,-294 806.1,-294 806.1,-294"/>
<polygon fill="black" stroke="black" points="806.1,-297.5 816.1,-294 806.1,-290.5 806.1,-297.5"/>
</g>
<!-- :data:core -->
<g id="node20" class="node">
<title>:data:core</title>
<ellipse fill="#b59aff" stroke="black" cx="924.69" cy="-18" rx="57.39" ry="18"/>
<text text-anchor="middle" x="924.69" y="-14.3" font-family="Times,serif" font-size="14.00">:data:core</text>
</g>
<!-- :data:database&#45;&gt;:data:core -->
<g id="edge34" class="edge">
<title>:data:database&#45;&gt;:data:core</title>
<path fill="none" stroke="black" stroke-dasharray="1,5" d="M546.49,-411.86C546.49,-334.77 546.49,-24 546.49,-24 546.49,-24 860.51,-24 860.51,-24"/>
<polygon fill="black" stroke="black" points="860.51,-27.5 870.51,-24 860.51,-20.5 860.51,-27.5"/>
</g>
<!-- :data:common:network -->
<g id="node21" class="node">
<title>:data:common:network</title>
<ellipse fill="#b59aff" stroke="black" cx="672.69" cy="-155" rx="116.98" ry="18"/>
<text text-anchor="middle" x="672.69" y="-151.3" font-family="Times,serif" font-size="14.00">:data:common:network</text>
</g>
<!-- :data:database&#45;&gt;:data:common:network -->
<g id="edge35" class="edge">
<title>:data:database&#45;&gt;:data:common:network</title>
<path fill="none" stroke="black" stroke-dasharray="1,5" d="M577.34,-416.51C577.34,-416.51 577.34,-175.44 577.34,-175.44"/>
<polygon fill="black" stroke="black" points="580.84,-175.44 577.34,-165.44 573.84,-175.44 580.84,-175.44"/>
</g>
<!-- :data:musicbrainz -->
<g id="node24" class="node">
<title>:data:musicbrainz</title>
<ellipse fill="#b59aff" stroke="black" cx="443.69" cy="-155" rx="93.68" ry="18"/>
<text text-anchor="middle" x="443.69" y="-151.3" font-family="Times,serif" font-size="14.00">:data:musicbrainz</text>
</g>
<!-- :data:database&#45;&gt;:data:musicbrainz -->
<g id="edge36" class="edge">
<title>:data:database&#45;&gt;:data:musicbrainz</title>
<path fill="none" stroke="black" stroke-dasharray="1,5" d="M464.62,-415.78C464.62,-415.78 464.62,-182.89 464.62,-182.89"/>
<polygon fill="black" stroke="black" points="468.12,-182.89 464.62,-172.89 461.12,-182.89 468.12,-182.89"/>
</g>
<!-- :data:repository&#45;&gt;:test&#45;data -->
<g id="edge45" class="edge">
<title>:data:repository&#45;&gt;:test&#45;data</title>
<path fill="none" stroke="#ff9ab1" stroke-dasharray="1,5" d="M317.24,-556.58C317.24,-556.58 317.24,-447.08 317.24,-447.08"/>
<polygon fill="#ff9ab1" stroke="#ff9ab1" points="320.74,-447.08 317.24,-437.08 313.74,-447.08 320.74,-447.08"/>
</g>
<!-- :data:repository&#45;&gt;:data:database -->
<g id="edge41" class="edge">
<title>:data:repository&#45;&gt;:data:database</title>
<path fill="none" stroke="black" stroke-dasharray="1,5" d="M317.49,-575C380.13,-575 459.9,-575 459.9,-575 459.9,-575 459.9,-450.95 459.9,-450.95"/>
<polygon fill="black" stroke="black" points="463.4,-450.95 459.9,-440.95 456.4,-450.95 463.4,-450.95"/>
</g>
<!-- :data:repository&#45;&gt;:inverted&#45;domain -->
<g id="edge44" class="edge">
<title>:data:repository&#45;&gt;:inverted&#45;domain</title>
<path fill="none" stroke="black" stroke-dasharray="1,5" d="M162.72,-560.28C162.72,-560.28 162.72,-312.52 162.72,-312.52"/>
<polygon fill="black" stroke="black" points="166.22,-312.52 162.72,-302.52 159.22,-312.52 166.22,-312.52"/>
</g>
<!-- :data:repository&#45;&gt;:data:core -->
<g id="edge40" class="edge">
<title>:data:repository&#45;&gt;:data:core</title>
<path fill="none" stroke="black" stroke-dasharray="1,5" d="M245.42,-547.88C245.42,-452.4 245.42,-12 245.42,-12 245.42,-12 860.54,-12 860.54,-12"/>
<polygon fill="black" stroke="black" points="860.54,-15.5 870.54,-12 860.54,-8.5 860.54,-15.5"/>
</g>
<!-- :data:repository&#45;&gt;:data:common:network -->
<g id="edge43" class="edge">
<title>:data:repository&#45;&gt;:data:common:network</title>
<path fill="none" stroke="black" stroke-dasharray="1,5" d="M323.04,-559.38C323.04,-542.11 323.04,-497 323.04,-497 323.04,-497 614.15,-497 614.15,-497 614.15,-497 614.15,-181.04 614.15,-181.04"/>
<polygon fill="black" stroke="black" points="617.65,-181.04 614.15,-171.04 610.65,-181.04 617.65,-181.04"/>
</g>
<!-- :data:repository&#45;&gt;:data:musicbrainz -->
<g id="edge42" class="edge">
<title>:data:repository&#45;&gt;:data:musicbrainz</title>
<path fill="none" stroke="black" stroke-dasharray="1,5" d="M328.93,-566C378.45,-566 431.17,-566 431.17,-566 431.17,-566 431.17,-182.92 431.17,-182.92"/>
<polygon fill="black" stroke="black" points="434.67,-182.92 431.17,-172.92 427.67,-182.92 434.67,-182.92"/>
</g>
<!-- :domain&#45;&gt;:data:database -->
<g id="edge30" class="edge">
<title>:domain&#45;&gt;:data:database</title>
<path fill="none" stroke="black" stroke-dasharray="1,5" d="M718.41,-551.91C718.41,-515.11 718.41,-419 718.41,-419 718.41,-419 595.86,-419 595.86,-419"/>
<polygon fill="black" stroke="black" points="595.86,-415.5 585.86,-419 595.86,-422.5 595.86,-415.5"/>
</g>
<!-- :domain&#45;&gt;:data:core -->
<g id="edge27" class="edge">
<title>:domain&#45;&gt;:data:core</title>
<path fill="none" stroke="black" stroke-dasharray="1,5" d="M793.23,-558.83C793.23,-495.22 793.23,-30 793.23,-30 793.23,-30 872.01,-30 872.01,-30"/>
<polygon fill="black" stroke="black" points="872.01,-33.5 882.01,-30 872.01,-26.5 872.01,-33.5"/>
</g>
<!-- :domain&#45;&gt;:data:common:network -->
<g id="edge28" class="edge">
<title>:domain&#45;&gt;:data:common:network</title>
<path fill="none" stroke="black" stroke-dasharray="1,5" d="M754.05,-548.08C754.05,-548.08 754.05,-178.24 754.05,-178.24"/>
<polygon fill="black" stroke="black" points="757.55,-178.24 754.05,-168.24 750.55,-178.24 757.55,-178.24"/>
</g>
<!-- :data:coverart -->
<g id="node22" class="node">
<title>:data:coverart</title>
<ellipse fill="#b59aff" stroke="black" cx="1077.69" cy="-155" rx="76.09" ry="18"/>
<text text-anchor="middle" x="1077.69" y="-151.3" font-family="Times,serif" font-size="14.00">:data:coverart</text>
</g>
<!-- :domain&#45;&gt;:data:coverart -->
<g id="edge29" class="edge">
<title>:domain&#45;&gt;:data:coverart</title>
<path fill="none" stroke="black" stroke-dasharray="1,5" d="M784.79,-554C844.18,-554 955.96,-554 955.96,-554 955.96,-554 955.96,-161 955.96,-161 955.96,-161 995.82,-161 995.82,-161"/>
<polygon fill="black" stroke="black" points="995.82,-164.5 1005.82,-161 995.82,-157.5 995.82,-164.5"/>
</g>
<!-- :domain&#45;&gt;:data:musicbrainz -->
<g id="edge31" class="edge">
<title>:domain&#45;&gt;:data:musicbrainz</title>
<path fill="none" stroke="black" stroke-dasharray="1,5" d="M736.23,-548.26C736.23,-494.17 736.23,-335 736.23,-335 736.23,-335 488.84,-335 488.84,-335 488.84,-335 488.84,-180.97 488.84,-180.97"/>
<polygon fill="black" stroke="black" points="492.34,-180.97 488.84,-170.97 485.34,-180.97 492.34,-180.97"/>
</g>
<!-- :inverted&#45;domain&#45;&gt;:data:core -->
<g id="edge32" class="edge">
<title>:inverted&#45;domain&#45;&gt;:data:core</title>
<path fill="none" stroke="black" stroke-dasharray="1,5" d="M89.69,-273.61C89.69,-210.27 89.69,-5 89.69,-5 89.69,-5 874.98,-5 874.98,-5"/>
<polygon fill="black" stroke="black" points="874.98,-8.5 884.98,-5 874.98,-1.5 874.98,-8.5"/>
</g>
<!-- :feature:search&#45;&gt;:data:database -->
<g id="edge48" class="edge">
<title>:feature:search&#45;&gt;:data:database</title>
<path fill="none" stroke="black" stroke-dasharray="1,5" d="M655.71,-825.44C655.71,-753.99 655.71,-444 655.71,-444 655.71,-444 573.85,-444 573.85,-444"/>
<polygon fill="black" stroke="black" points="573.85,-440.5 563.85,-444 573.85,-447.5 573.85,-440.5"/>
</g>
<!-- :feature:search&#45;&gt;:inverted&#45;domain -->
<g id="edge47" class="edge">
<title>:feature:search&#45;&gt;:inverted&#45;domain</title>
<path fill="none" stroke="black" stroke-dasharray="1,5" d="M666.93,-823.9C666.93,-734.38 666.93,-302 666.93,-302 666.93,-302 174.56,-302 174.56,-302"/>
<polygon fill="black" stroke="black" points="174.56,-298.5 164.56,-302 174.56,-305.5 174.56,-298.5"/>
</g>
<!-- :feature:search&#45;&gt;:strings -->
<g id="edge49" class="edge">
<title>:feature:search&#45;&gt;:strings</title>
<path fill="none" stroke="black" stroke-dasharray="1,5" d="M782.4,-846C793.2,-846 800.72,-846 800.72,-846 800.72,-846 800.72,-560 800.72,-560 800.72,-560 997.15,-560 997.15,-560"/>
<polygon fill="black" stroke="black" points="997.15,-563.5 1007.15,-560 997.15,-556.5 997.15,-563.5"/>
</g>
<!-- :feature:search&#45;&gt;:ui:common -->
<g id="edge50" class="edge">
<title>:feature:search&#45;&gt;:ui:common</title>
<path fill="none" stroke="black" stroke-dasharray="1,5" d="M765.35,-827.54C765.35,-794.12 765.35,-705 765.35,-705 765.35,-705 1184.7,-705 1184.7,-705"/>
<polygon fill="black" stroke="black" points="1184.7,-708.5 1194.7,-705 1184.7,-701.5 1184.7,-708.5"/>
</g>
<!-- :feature:search&#45;&gt;:ui:core -->
<g id="edge51" class="edge">
<title>:feature:search&#45;&gt;:ui:core</title>
<path fill="none" stroke="black" stroke-dasharray="1,5" d="M689.37,-822.31C689.37,-742.75 689.37,-422 689.37,-422 689.37,-422 1476.49,-422 1476.49,-422"/>
<polygon fill="black" stroke="black" points="1476.49,-425.5 1486.49,-422 1476.49,-418.5 1476.49,-425.5"/>
</g>
<!-- :feature:search&#45;&gt;:data -->
<g id="edge46" class="edge">
<title>:feature:search&#45;&gt;:data</title>
<path fill="none" stroke="black" stroke-dasharray="1,5" d="M678.15,-822.88C678.15,-730.75 678.15,-298 678.15,-298 678.15,-298 807.83,-298 807.83,-298"/>
<polygon fill="black" stroke="black" points="807.83,-301.5 817.83,-298 807.83,-294.5 807.83,-301.5"/>
</g>
<!-- :ui:test:screenshot -->
<g id="node26" class="node">
<title>:ui:test:screenshot</title>
<ellipse fill="#9affb5" stroke="black" cx="1502.69" cy="-566" rx="96.68" ry="18"/>
<text text-anchor="middle" x="1502.69" y="-562.3" font-family="Times,serif" font-size="14.00">:ui:test:screenshot</text>
</g>
<!-- :feature:search&#45;&gt;:ui:test:screenshot -->
<g id="edge52" class="edge">
<title>:feature:search&#45;&gt;:ui:test:screenshot</title>
<path fill="none" stroke="#ff9ab1" stroke-dasharray="1,5" d="M722.18,-822.21C722.18,-794.21 722.18,-743 722.18,-743 722.18,-743 1451.35,-743 1451.35,-743 1451.35,-743 1451.35,-591.4 1451.35,-591.4"/>
<polygon fill="#ff9ab1" stroke="#ff9ab1" points="1454.85,-591.4 1451.35,-581.4 1447.85,-591.4 1454.85,-591.4"/>
</g>
<!-- :ui:common&#45;&gt;:data&#45;android -->
<g id="edge70" class="edge">
<title>:ui:common&#45;&gt;:data&#45;android</title>
<path fill="none" stroke="orange" d="M1197.74,-697C1041.31,-697 637.81,-697 637.81,-697 637.81,-697 637.81,-583.8 637.81,-583.8"/>
<polygon fill="orange" stroke="orange" points="641.31,-583.8 637.81,-573.8 634.31,-583.8 641.31,-583.8"/>
</g>
<!-- :ui:common&#45;&gt;:data:database -->
<g id="edge71" class="edge">
<title>:ui:common&#45;&gt;:data:database</title>
<path fill="none" stroke="orange" d="M1226.52,-687.41C1226.52,-627.17 1226.52,-413 1226.52,-413 1226.52,-413 566.21,-413 566.21,-413"/>
<polygon fill="orange" stroke="orange" points="566.21,-409.5 556.21,-413 566.21,-416.5 566.21,-409.5"/>
</g>
<!-- :ui:common&#45;&gt;:domain -->
<g id="edge72" class="edge">
<title>:ui:common&#45;&gt;:domain</title>
<path fill="none" stroke="black" stroke-dasharray="1,5" d="M1205.06,-693C1083.04,-693 795.15,-693 795.15,-693 795.15,-693 795.15,-580.82 795.15,-580.82"/>
<polygon fill="black" stroke="black" points="798.65,-580.82 795.15,-570.82 791.65,-580.82 798.65,-580.82"/>
</g>
<!-- :ui:common&#45;&gt;:strings -->
<g id="edge73" class="edge">
<title>:ui:common&#45;&gt;:strings</title>
<path fill="none" stroke="black" stroke-dasharray="1,5" d="M1218.09,-689C1166.39,-689 1083.65,-689 1083.65,-689 1083.65,-689 1083.65,-588.7 1083.65,-588.7"/>
<polygon fill="black" stroke="black" points="1087.15,-588.7 1083.65,-578.7 1080.15,-588.7 1087.15,-588.7"/>
</g>
<!-- :ui:common&#45;&gt;:ui:core -->
<g id="edge74" class="edge">
<title>:ui:common&#45;&gt;:ui:core</title>
<path fill="none" stroke="red" d="M1258.69,-685C1258.69,-624.91 1258.69,-435 1258.69,-435 1258.69,-435 1475.61,-435 1475.61,-435"/>
<polygon fill="red" stroke="red" points="1475.61,-438.5 1485.61,-435 1475.61,-431.5 1475.61,-438.5"/>
</g>
<!-- :ui:common&#45;&gt;:ui:image -->
<g id="edge75" class="edge">
<title>:ui:common&#45;&gt;:ui:image</title>
<path fill="none" stroke="red" d="M1321.64,-699C1491.09,-699 1944.14,-699 1944.14,-699 1944.14,-699 1944.14,-584.73 1944.14,-584.73"/>
<polygon fill="red" stroke="red" points="1947.64,-584.73 1944.14,-574.73 1940.64,-584.73 1947.64,-584.73"/>
</g>
<!-- :ui:common&#45;&gt;:ui:test:screenshot -->
<g id="edge77" class="edge">
<title>:ui:common&#45;&gt;:ui:test:screenshot</title>
<path fill="none" stroke="#ff9ab1" d="M1290.86,-687.37C1290.86,-652.02 1290.86,-569 1290.86,-569 1290.86,-569 1397,-569 1397,-569"/>
<polygon fill="#ff9ab1" stroke="#ff9ab1" points="1397,-572.5 1407,-569 1397,-565.5 1397,-572.5"/>
</g>
<!-- :ui:test:image -->
<g id="node27" class="node">
<title>:ui:test:image</title>
<ellipse fill="#9affb5" stroke="black" cx="1730.69" cy="-566" rx="74.99" ry="18"/>
<text text-anchor="middle" x="1730.69" y="-562.3" font-family="Times,serif" font-size="14.00">:ui:test:image</text>
</g>
<!-- :ui:common&#45;&gt;:ui:test:image -->
<g id="edge76" class="edge">
<title>:ui:common&#45;&gt;:ui:test:image</title>
<path fill="none" stroke="#ff9ab1" d="M1309.83,-692C1424.72,-692 1693.32,-692 1693.32,-692 1693.32,-692 1693.32,-591.7 1693.32,-591.7"/>
<polygon fill="#ff9ab1" stroke="#ff9ab1" points="1696.82,-591.7 1693.32,-581.7 1689.82,-591.7 1696.82,-591.7"/>
</g>
<!-- :ui:collections&#45;&gt;:data&#45;android -->
<g id="edge85" class="edge">
<title>:ui:collections&#45;&gt;:data&#45;android</title>
<path fill="none" stroke="orange" d="M513.53,-960.38C513.53,-960.38 513.53,-587.03 513.53,-587.03"/>
<polygon fill="orange" stroke="orange" points="517.03,-587.03 513.53,-577.03 510.03,-587.03 517.03,-587.03"/>
</g>
<!-- :ui:collections&#45;&gt;:data:database -->
<g id="edge84" class="edge">
<title>:ui:collections&#45;&gt;:data:database</title>
<path fill="none" stroke="orange" d="M479.4,-958.77C479.4,-958.77 479.4,-454.61 479.4,-454.61"/>
<polygon fill="orange" stroke="orange" points="482.9,-454.61 479.4,-444.61 475.9,-454.61 482.9,-454.61"/>
</g>
<!-- :ui:collections&#45;&gt;:domain -->
<g id="edge86" class="edge">
<title>:ui:collections&#45;&gt;:domain</title>
<path fill="none" stroke="black" stroke-dasharray="1,5" d="M534.58,-964C621.85,-964 788.58,-964 788.58,-964 788.58,-964 788.58,-586.24 788.58,-586.24"/>
<polygon fill="black" stroke="black" points="792.08,-586.24 788.58,-576.24 785.08,-586.24 792.08,-586.24"/>
</g>
<!-- :ui:collections&#45;&gt;:inverted&#45;domain -->
<g id="edge87" class="edge">
<title>:ui:collections&#45;&gt;:inverted&#45;domain</title>
<path fill="none" stroke="black" stroke-dasharray="1,5" d="M426.55,-965.07C426.55,-875.04 426.55,-306 426.55,-306 426.55,-306 156.07,-306 156.07,-306"/>
<polygon fill="black" stroke="black" points="156.07,-302.5 146.07,-306 156.07,-309.5 156.07,-302.5"/>
</g>
<!-- :ui:collections&#45;&gt;:strings -->
<g id="edge88" class="edge">
<title>:ui:collections&#45;&gt;:strings</title>
<path fill="none" stroke="black" stroke-dasharray="1,5" d="M549.77,-969C643.6,-969 802.68,-969 802.68,-969 802.68,-969 802.68,-566 802.68,-566 802.68,-566 994.33,-566 994.33,-566"/>
<polygon fill="black" stroke="black" points="994.33,-569.5 1004.33,-566 994.33,-562.5 994.33,-569.5"/>
</g>
<!-- :ui:collections&#45;&gt;:ui:common -->
<g id="edge89" class="edge">
<title>:ui:collections&#45;&gt;:ui:common</title>
<path fill="none" stroke="red" d="M528.17,-962.55C528.17,-905.76 528.17,-701 528.17,-701 528.17,-701 1184.5,-701 1184.5,-701"/>
<polygon fill="red" stroke="red" points="1184.5,-704.5 1194.5,-701 1184.5,-697.5 1184.5,-704.5"/>
</g>
<!-- :ui:collections&#45;&gt;:ui:core -->
<g id="edge90" class="edge">
<title>:ui:collections&#45;&gt;:ui:core</title>
<path fill="none" stroke="red" d="M557.14,-979C686.28,-979 938.16,-979 938.16,-979 938.16,-979 938.16,-427 938.16,-427 938.16,-427 1473.33,-427 1473.33,-427"/>
<polygon fill="red" stroke="red" points="1473.33,-430.5 1483.33,-427 1473.33,-423.5 1473.33,-430.5"/>
</g>
<!-- :ui:collections&#45;&gt;:ui:settings -->
<g id="edge91" class="edge">
<title>:ui:collections&#45;&gt;:ui:settings</title>
<path fill="none" stroke="red" d="M556.79,-974C663.21,-974 846.68,-974 846.68,-974 846.68,-974 846.68,-866.97 846.68,-866.97"/>
<polygon fill="red" stroke="red" points="850.18,-866.97 846.68,-856.97 843.18,-866.97 850.18,-866.97"/>
</g>
<!-- :ui:collections&#45;&gt;:data -->
<g id="edge83" class="edge">
<title>:ui:collections&#45;&gt;:data</title>
<path fill="none" stroke="orange" d="M435.78,-962.97C435.78,-865.22 435.78,-290 435.78,-290 435.78,-290 806.39,-290 806.39,-290"/>
<polygon fill="orange" stroke="orange" points="806.39,-293.5 816.39,-290 806.39,-286.5 806.39,-293.5"/>
</g>
<!-- :ui:collections&#45;&gt;:ui:test:screenshot -->
<g id="edge92" class="edge">
<title>:ui:collections&#45;&gt;:ui:test:screenshot</title>
<path fill="none" stroke="#ff9ab1" d="M542.8,-966.16C542.8,-918.74 542.8,-732 542.8,-732 542.8,-732 1428.6,-732 1428.6,-732 1428.6,-732 1428.6,-587.67 1428.6,-587.67"/>
<polygon fill="#ff9ab1" stroke="#ff9ab1" points="1432.1,-587.67 1428.6,-577.67 1425.1,-587.67 1432.1,-587.67"/>
</g>
<!-- :ui:history&#45;&gt;:domain -->
<g id="edge99" class="edge">
<title>:ui:history&#45;&gt;:domain</title>
<path fill="none" stroke="black" stroke-dasharray="1,5" d="M1001.52,-989C929.3,-989 791.86,-989 791.86,-989 791.86,-989 791.86,-584.07 791.86,-584.07"/>
<polygon fill="black" stroke="black" points="795.36,-584.07 791.86,-574.07 788.36,-584.07 795.36,-584.07"/>
</g>
<!-- :ui:history&#45;&gt;:inverted&#45;domain -->
<g id="edge100" class="edge">
<title>:ui:history&#45;&gt;:inverted&#45;domain</title>
<path fill="none" stroke="black" stroke-dasharray="1,5" d="M992.77,-968.74C992.77,-895.53 992.77,-360 992.77,-360 992.77,-360 175.22,-360 175.22,-360 175.22,-360 175.22,-307.8 175.22,-307.8"/>
<polygon fill="black" stroke="black" points="178.72,-307.8 175.22,-297.8 171.72,-307.8 178.72,-307.8"/>
</g>
<!-- :ui:history&#45;&gt;:strings -->
<g id="edge101" class="edge">
<title>:ui:history&#45;&gt;:strings</title>
<path fill="none" stroke="black" stroke-dasharray="1,5" d="M1017.73,-960.89C1017.73,-960.89 1017.73,-588.63 1017.73,-588.63"/>
<polygon fill="black" stroke="black" points="1021.23,-588.63 1017.73,-578.63 1014.23,-588.63 1021.23,-588.63"/>
</g>
<!-- :ui:history&#45;&gt;:ui:common -->
<g id="edge102" class="edge">
<title>:ui:history&#45;&gt;:ui:common</title>
<path fill="none" stroke="red" d="M1030.92,-959.13C1030.92,-900.39 1030.92,-717 1030.92,-717 1030.92,-717 1208.23,-717 1208.23,-717"/>
<polygon fill="red" stroke="red" points="1208.23,-720.5 1218.23,-717 1208.23,-713.5 1208.23,-720.5"/>
</g>
<!-- :ui:history&#45;&gt;:ui:core -->
<g id="edge103" class="edge">
<title>:ui:history&#45;&gt;:ui:core</title>
<path fill="none" stroke="red" d="M998.69,-965.64C998.69,-887.52 998.69,-433 998.69,-433 998.69,-433 1473.96,-433 1473.96,-433"/>
<polygon fill="red" stroke="red" points="1473.96,-436.5 1483.96,-433 1473.96,-429.5 1473.96,-436.5"/>
</g>
<!-- :ui:history&#45;&gt;:ui:image -->
<g id="edge104" class="edge">
<title>:ui:history&#45;&gt;:ui:image</title>
<path fill="none" stroke="red" d="M1099.36,-983C1296.17,-983 1956.91,-983 1956.91,-983 1956.91,-983 1956.91,-589.87 1956.91,-589.87"/>
<polygon fill="red" stroke="red" points="1960.41,-589.87 1956.91,-579.87 1953.41,-589.87 1960.41,-589.87"/>
</g>
<!-- :ui:history&#45;&gt;:ui:settings -->
<g id="edge105" class="edge">
<title>:ui:history&#45;&gt;:ui:settings</title>
<path fill="none" stroke="red" d="M989.81,-971.3C989.81,-944.92 989.81,-836 989.81,-836 989.81,-836 939.47,-836 939.47,-836"/>
<polygon fill="red" stroke="red" points="939.47,-832.5 929.47,-836 939.47,-839.5 939.47,-832.5"/>
</g>
<!-- :ui:history&#45;&gt;:data -->
<g id="edge98" class="edge">
<title>:ui:history&#45;&gt;:data</title>
<path fill="none" stroke="orange" d="M995.73,-967.23C995.73,-884.47 995.73,-304 995.73,-304 995.73,-304 886.62,-304 886.62,-304"/>
<polygon fill="orange" stroke="orange" points="886.62,-300.5 876.62,-304 886.62,-307.5 886.62,-300.5"/>
</g>
<!-- :ui:history&#45;&gt;:ui:test:screenshot -->
<g id="edge107" class="edge">
<title>:ui:history&#45;&gt;:ui:test:screenshot</title>
<path fill="none" stroke="#ff9ab1" d="M1099.42,-971C1230.49,-971 1551.57,-971 1551.57,-971 1551.57,-971 1551.57,-591.63 1551.57,-591.63"/>
<polygon fill="#ff9ab1" stroke="#ff9ab1" points="1555.07,-591.63 1551.57,-581.63 1548.07,-591.63 1555.07,-591.63"/>
</g>
<!-- :ui:history&#45;&gt;:ui:test:image -->
<g id="edge106" class="edge">
<title>:ui:history&#45;&gt;:ui:test:image</title>
<path fill="none" stroke="#ff9ab1" d="M1044.1,-958.75C1044.1,-905.49 1044.1,-754 1044.1,-754 1044.1,-754 1730.69,-754 1730.69,-754 1730.69,-754 1730.69,-594.03 1730.69,-594.03"/>
<polygon fill="#ff9ab1" stroke="#ff9ab1" points="1734.19,-594.03 1730.69,-584.03 1727.19,-594.03 1734.19,-594.03"/>
</g>
<!-- :ui:image&#45;&gt;:ui:core -->
<g id="edge54" class="edge">
<title>:ui:image&#45;&gt;:ui:core</title>
<path fill="none" stroke="red" d="M1973.71,-548.93C1973.71,-512.2 1973.71,-429 1973.71,-429 1973.71,-429 1584.23,-429 1584.23,-429"/>
<polygon fill="red" stroke="red" points="1584.23,-425.5 1574.23,-429 1584.23,-432.5 1584.23,-425.5"/>
</g>
<!-- :ui:image&#45;&gt;:data:core -->
<g id="edge53" class="edge">
<title>:ui:image&#45;&gt;:data:core</title>
<path fill="none" stroke="orange" d="M2009.67,-548.81C2009.67,-455.3 2009.67,-12 2009.67,-12 2009.67,-12 988.87,-12 988.87,-12"/>
<polygon fill="orange" stroke="orange" points="988.87,-8.5 978.87,-12 988.87,-15.5 988.87,-8.5"/>
</g>
<!-- :ui:nowplaying&#45;&gt;:domain -->
<g id="edge63" class="edge">
<title>:ui:nowplaying&#45;&gt;:domain</title>
<path fill="none" stroke="black" stroke-dasharray="1,5" d="M1388.52,-834.44C1388.52,-821.02 1388.52,-788 1388.52,-788 1388.52,-788 743.77,-788 743.77,-788 743.77,-788 743.77,-594.17 743.77,-594.17"/>
<polygon fill="black" stroke="black" points="747.27,-594.17 743.77,-584.17 740.27,-594.17 747.27,-594.17"/>
</g>
<!-- :ui:nowplaying&#45;&gt;:strings -->
<g id="edge64" class="edge">
<title>:ui:nowplaying&#45;&gt;:strings</title>
<path fill="none" stroke="black" stroke-dasharray="1,5" d="M1395.45,-830.84C1395.45,-782.06 1395.45,-555 1395.45,-555 1395.45,-555 1097.26,-555 1097.26,-555"/>
<polygon fill="black" stroke="black" points="1097.26,-551.5 1087.26,-555 1097.26,-558.5 1097.26,-551.5"/>
</g>
<!-- :ui:nowplaying&#45;&gt;:ui:common -->
<g id="edge65" class="edge">
<title>:ui:nowplaying&#45;&gt;:ui:common</title>
<path fill="none" stroke="red" d="M1391.98,-832.44C1391.98,-805.1 1391.98,-713 1391.98,-713 1391.98,-713 1322.52,-713 1322.52,-713"/>
<polygon fill="red" stroke="red" points="1322.52,-709.5 1312.52,-713 1322.52,-716.5 1322.52,-709.5"/>
</g>
<!-- :ui:nowplaying&#45;&gt;:ui:core -->
<g id="edge66" class="edge">
<title>:ui:nowplaying&#45;&gt;:ui:core</title>
<path fill="none" stroke="red" d="M1402.38,-828.49C1402.38,-763.07 1402.38,-441 1402.38,-441 1402.38,-441 1484.51,-441 1484.51,-441"/>
<polygon fill="red" stroke="red" points="1484.51,-444.5 1494.51,-441 1484.51,-437.5 1484.51,-444.5"/>
</g>
<!-- :ui:nowplaying&#45;&gt;:ui:image -->
<g id="edge67" class="edge">
<title>:ui:nowplaying&#45;&gt;:ui:image</title>
<path fill="none" stroke="red" d="M1496.84,-823.6C1496.84,-816.59 1496.84,-810 1496.84,-810 1496.84,-810 1950.52,-810 1950.52,-810 1950.52,-810 1950.52,-587.77 1950.52,-587.77"/>
<polygon fill="red" stroke="red" points="1954.03,-587.77 1950.52,-577.77 1947.03,-587.77 1954.03,-587.77"/>
</g>
<!-- :ui:nowplaying&#45;&gt;:data -->
<g id="edge62" class="edge">
<title>:ui:nowplaying&#45;&gt;:data</title>
<path fill="none" stroke="orange" d="M1398.92,-829.54C1398.92,-753.78 1398.92,-292 1398.92,-292 1398.92,-292 895.4,-292 895.4,-292"/>
<polygon fill="orange" stroke="orange" points="895.4,-288.5 885.4,-292 895.4,-295.5 895.4,-288.5"/>
</g>
<!-- :ui:nowplaying&#45;&gt;:ui:test:screenshot -->
<g id="edge69" class="edge">
<title>:ui:nowplaying&#45;&gt;:ui:test:screenshot</title>
<path fill="none" stroke="#ff9ab1" d="M1519.59,-827.15C1519.59,-827.15 1519.59,-593.96 1519.59,-593.96"/>
<polygon fill="#ff9ab1" stroke="#ff9ab1" points="1523.09,-593.96 1519.59,-583.96 1516.09,-593.96 1523.09,-593.96"/>
</g>
<!-- :ui:nowplaying&#45;&gt;:ui:test:image -->
<g id="edge68" class="edge">
<title>:ui:nowplaying&#45;&gt;:ui:test:image</title>
<path fill="none" stroke="#ff9ab1" d="M1474.09,-821.84C1474.09,-799.65 1474.09,-765 1474.09,-765 1474.09,-765 1768.06,-765 1768.06,-765 1768.06,-765 1768.06,-591.62 1768.06,-591.62"/>
<polygon fill="#ff9ab1" stroke="#ff9ab1" points="1771.56,-591.62 1768.06,-581.62 1764.56,-591.62 1771.56,-591.62"/>
</g>
<!-- :ui:settings&#45;&gt;:data&#45;android -->
<g id="edge55" class="edge">
<title>:ui:settings&#45;&gt;:data&#45;android</title>
<path fill="none" stroke="orange" d="M810.61,-832.09C810.61,-820.18 810.61,-799 810.61,-799 810.61,-799 631.13,-799 631.13,-799 631.13,-799 631.13,-586.62 631.13,-586.62"/>
<polygon fill="orange" stroke="orange" points="634.63,-586.62 631.13,-576.62 627.63,-586.62 634.63,-586.62"/>
</g>
<!-- :ui:settings&#45;&gt;:domain -->
<g id="edge56" class="edge">
<title>:ui:settings&#45;&gt;:domain</title>
<path fill="none" stroke="black" stroke-dasharray="1,5" d="M808.16,-834C799.54,-834 793.5,-834 793.5,-834 793.5,-834 793.5,-582.62 793.5,-582.62"/>
<polygon fill="black" stroke="black" points="797,-582.62 793.5,-572.62 790,-582.62 797,-582.62"/>
</g>
<!-- :ui:settings&#45;&gt;:inverted&#45;domain -->
<g id="edge57" class="edge">
<title>:ui:settings&#45;&gt;:inverted&#45;domain</title>
<path fill="none" stroke="black" stroke-dasharray="1,5" d="M813.43,-830.5C813.43,-765.16 813.43,-385 813.43,-385 813.43,-385 171.05,-385 171.05,-385 171.05,-385 171.05,-309.61 171.05,-309.61"/>
<polygon fill="black" stroke="black" points="174.55,-309.61 171.05,-299.61 167.55,-309.61 174.55,-309.61"/>
</g>
<!-- :ui:settings&#45;&gt;:strings -->
<g id="edge58" class="edge">
<title>:ui:settings&#45;&gt;:strings</title>
<path fill="none" stroke="black" stroke-dasharray="1,5" d="M907.94,-825.97C907.94,-770.83 907.94,-572 907.94,-572 907.94,-572 997.09,-572 997.09,-572"/>
<polygon fill="black" stroke="black" points="997.09,-575.5 1007.09,-572 997.09,-568.5 997.09,-575.5"/>
</g>
<!-- :ui:settings&#45;&gt;:ui:common -->
<g id="edge59" class="edge">
<title>:ui:settings&#45;&gt;:ui:common</title>
<path fill="none" stroke="red" d="M919.34,-829.28C919.34,-797.99 919.34,-709 919.34,-709 919.34,-709 1188.02,-709 1188.02,-709"/>
<polygon fill="red" stroke="red" points="1188.02,-712.5 1198.02,-709 1188.02,-705.5 1188.02,-712.5"/>
</g>
<!-- :ui:settings&#45;&gt;:ui:core -->
<g id="edge60" class="edge">
<title>:ui:settings&#45;&gt;:ui:core</title>
<path fill="none" stroke="red" d="M896.54,-823.95C896.54,-747.5 896.54,-424 896.54,-424 896.54,-424 1474.74,-424 1474.74,-424"/>
<polygon fill="red" stroke="red" points="1474.74,-427.5 1484.74,-424 1474.74,-420.5 1474.74,-427.5"/>
</g>
<!-- :ui:settings&#45;&gt;:ui:test:screenshot -->
<g id="edge61" class="edge">
<title>:ui:settings&#45;&gt;:ui:test:screenshot</title>
<path fill="none" stroke="#ff9ab1" d="M917.65,-829C995.44,-829 1136.67,-829 1136.67,-829 1136.67,-829 1136.67,-562 1136.67,-562 1136.67,-562 1397.96,-562 1397.96,-562"/>
<polygon fill="#ff9ab1" stroke="#ff9ab1" points="1397.96,-565.5 1407.96,-562 1397.96,-558.5 1397.96,-565.5"/>
</g>
<!-- :ui:spotify&#45;broadcast&#45;receiver&#45;&gt;:strings -->
<g id="edge81" class="edge">
<title>:ui:spotify&#45;broadcast&#45;receiver&#45;&gt;:strings</title>
<path fill="none" stroke="black" stroke-dasharray="1,5" d="M1570.49,-833.26C1570.49,-817.01 1570.49,-777 1570.49,-777 1570.49,-777 1070.47,-777 1070.47,-777 1070.47,-777 1070.47,-592.56 1070.47,-592.56"/>
<polygon fill="black" stroke="black" points="1073.97,-592.56 1070.47,-582.56 1066.97,-592.56 1073.97,-592.56"/>
</g>
<!-- :ui:spotify&#45;broadcast&#45;receiver&#45;&gt;:ui:common -->
<g id="edge80" class="edge">
<title>:ui:spotify&#45;broadcast&#45;receiver&#45;&gt;:ui:common</title>
<path fill="none" stroke="red" d="M1580.17,-830.79C1580.17,-800.52 1580.17,-706 1580.17,-706 1580.17,-706 1332.21,-706 1332.21,-706"/>
<polygon fill="red" stroke="red" points="1332.21,-702.5 1322.21,-706 1332.21,-709.5 1332.21,-702.5"/>
</g>
<!-- :ui:spotify&#45;broadcast&#45;receiver&#45;&gt;:ui:core -->
<g id="edge79" class="edge">
<title>:ui:spotify&#45;broadcast&#45;receiver&#45;&gt;:ui:core</title>
<path fill="none" stroke="red" d="M1618.34,-825.69C1618.34,-754.08 1618.34,-438 1618.34,-438 1618.34,-438 1578.27,-438 1578.27,-438"/>
<polygon fill="red" stroke="red" points="1578.27,-434.5 1568.27,-438 1578.27,-441.5 1578.27,-434.5"/>
</g>
<!-- :ui:spotify&#45;broadcast&#45;receiver&#45;&gt;:data:core -->
<g id="edge78" class="edge">
<title>:ui:spotify&#45;broadcast&#45;receiver&#45;&gt;:data:core</title>
<path fill="none" stroke="orange" d="M1637.14,-824.07C1637.14,-710.15 1637.14,-24 1637.14,-24 1637.14,-24 988.83,-24 988.83,-24"/>
<polygon fill="orange" stroke="orange" points="988.83,-20.5 978.83,-24 988.83,-27.5 988.83,-20.5"/>
</g>
<!-- :ui:spotify&#45;broadcast&#45;receiver&#45;&gt;:ui:test:screenshot -->
<g id="edge82" class="edge">
<title>:ui:spotify&#45;broadcast&#45;receiver&#45;&gt;:ui:test:screenshot</title>
<path fill="none" stroke="#ff9ab1" d="M1589.85,-828.92C1589.85,-828.92 1589.85,-583.86 1589.85,-583.86"/>
<polygon fill="#ff9ab1" stroke="#ff9ab1" points="1593.35,-583.86 1589.85,-573.86 1586.35,-583.86 1593.35,-583.86"/>
</g>
<!-- :ui:stats&#45;&gt;:strings -->
<g id="edge96" class="edge">
<title>:ui:stats&#45;&gt;:strings</title>
<path fill="none" stroke="black" stroke-dasharray="1,5" d="M1202.46,-850C1147.93,-850 1057.28,-850 1057.28,-850 1057.28,-850 1057.28,-594.2 1057.28,-594.2"/>
<polygon fill="black" stroke="black" points="1060.78,-594.2 1057.28,-584.2 1053.78,-594.2 1060.78,-594.2"/>
</g>
<!-- :ui:stats&#45;&gt;:ui:common -->
<g id="edge94" class="edge">
<title>:ui:stats&#45;&gt;:ui:common</title>
<path fill="none" stroke="red" d="M1242.69,-821.81C1242.69,-821.81 1242.69,-730.83 1242.69,-730.83"/>
<polygon fill="red" stroke="red" points="1246.19,-730.83 1242.69,-720.83 1239.19,-730.83 1246.19,-730.83"/>
</g>
<!-- :ui:stats&#45;&gt;:ui:core -->
<g id="edge95" class="edge">
<title>:ui:stats&#45;&gt;:ui:core</title>
<path fill="none" stroke="red" d="M1288.18,-834C1314.99,-834 1343.71,-834 1343.71,-834 1343.71,-834 1343.71,-438 1343.71,-438 1343.71,-438 1479.01,-438 1479.01,-438"/>
<polygon fill="red" stroke="red" points="1479.01,-441.5 1489.01,-438 1479.01,-434.5 1479.01,-441.5"/>
</g>
<!-- :ui:stats&#45;&gt;:data -->
<g id="edge93" class="edge">
<title>:ui:stats&#45;&gt;:data</title>
<path fill="none" stroke="orange" d="M1195.1,-843C1160.47,-843 1119.6,-843 1119.6,-843 1119.6,-843 1119.6,-298 1119.6,-298 1119.6,-298 893.4,-298 893.4,-298"/>
<polygon fill="orange" stroke="orange" points="893.4,-294.5 883.4,-298 893.4,-301.5 893.4,-294.5"/>
</g>
<!-- :ui:stats&#45;&gt;:ui:test:screenshot -->
<g id="edge97" class="edge">
<title>:ui:stats&#45;&gt;:ui:test:screenshot</title>
<path fill="none" stroke="#ff9ab1" d="M1288.35,-846C1322.88,-846 1364.38,-846 1364.38,-846 1364.38,-846 1364.38,-576 1364.38,-576 1364.38,-576 1411.83,-576 1411.83,-576"/>
<polygon fill="#ff9ab1" stroke="#ff9ab1" points="1411.83,-579.5 1421.83,-576 1411.83,-572.5 1411.83,-579.5"/>
</g>
<!-- :data&#45;&gt;:data:core -->
<g id="edge20" class="edge">
<title>:data&#45;&gt;:data:core</title>
<path fill="none" stroke="black" d="M876.47,-280C906.12,-280 950.77,-280 950.77,-280 950.77,-280 950.77,-44.39 950.77,-44.39"/>
<polygon fill="black" stroke="black" points="954.27,-44.39 950.77,-34.39 947.27,-44.39 954.27,-44.39"/>
</g>
<!-- :data&#45;&gt;:data:common:network -->
<g id="edge21" class="edge">
<title>:data&#45;&gt;:data:common:network</title>
<path fill="none" stroke="black" d="M828.73,-278C805.41,-278 771.86,-278 771.86,-278 771.86,-278 771.86,-174.65 771.86,-174.65"/>
<polygon fill="black" stroke="black" points="775.36,-174.65 771.86,-164.65 768.36,-174.65 775.36,-174.65"/>
</g>
<!-- :data&#45;&gt;:data:coverart -->
<g id="edge22" class="edge">
<title>:data&#45;&gt;:data:coverart</title>
<path fill="none" stroke="black" d="M883.27,-286C939.94,-286 1050.69,-286 1050.69,-286 1050.69,-286 1050.69,-181.86 1050.69,-181.86"/>
<polygon fill="black" stroke="black" points="1054.19,-181.86 1050.69,-171.86 1047.19,-181.86 1054.19,-181.86"/>
</g>
<!-- :data:spotify -->
<g id="node23" class="node">
<title>:data:spotify</title>
<ellipse fill="#b59aff" stroke="black" cx="876.69" cy="-155" rx="68.79" ry="18"/>
<text text-anchor="middle" x="876.69" y="-151.3" font-family="Times,serif" font-size="14.00">:data:spotify</text>
</g>
<!-- :data&#45;&gt;:data:spotify -->
<g id="edge23" class="edge">
<title>:data&#45;&gt;:data:spotify</title>
<path fill="none" stroke="black" d="M850.69,-273.81C850.69,-273.81 850.69,-181.97 850.69,-181.97"/>
<polygon fill="black" stroke="black" points="854.19,-181.97 850.69,-171.97 847.19,-181.97 854.19,-181.97"/>
</g>
<!-- :data&#45;&gt;:data:musicbrainz -->
<g id="edge24" class="edge">
<title>:data&#45;&gt;:data:musicbrainz</title>
<path fill="none" stroke="black" d="M821.91,-282C740.26,-282 513.06,-282 513.06,-282 513.06,-282 513.06,-177.18 513.06,-177.18"/>
<polygon fill="black" stroke="black" points="516.56,-177.18 513.06,-167.18 509.56,-177.18 516.56,-177.18"/>
</g>
<!-- :data:coverart&#45;&gt;:data:core -->
<g id="edge37" class="edge">
<title>:data:coverart&#45;&gt;:data:core</title>
<path fill="none" stroke="black" stroke-dasharray="1,5" d="M1005.91,-149C989.46,-149 976.7,-149 976.7,-149 976.7,-149 976.7,-35.8 976.7,-35.8"/>
<polygon fill="black" stroke="black" points="980.2,-35.8 976.7,-25.8 973.2,-35.8 980.2,-35.8"/>
</g>
<!-- :data:spotify&#45;&gt;:data:core -->
<g id="edge38" class="edge">
<title>:data:spotify&#45;&gt;:data:core</title>
<path fill="none" stroke="black" stroke-dasharray="1,5" d="M906.54,-138.75C906.54,-138.75 906.54,-45.09 906.54,-45.09"/>
<polygon fill="black" stroke="black" points="910.04,-45.09 906.54,-35.09 903.04,-45.09 910.04,-45.09"/>
</g>
<!-- :data:musicbrainz&#45;&gt;:data:core -->
<g id="edge39" class="edge">
<title>:data:musicbrainz&#45;&gt;:data:core</title>
<path fill="none" stroke="black" stroke-dasharray="1,5" d="M443.69,-136.81C443.69,-99.54 443.69,-18 443.69,-18 443.69,-18 857.15,-18 857.15,-18"/>
<polygon fill="black" stroke="black" points="857.15,-21.5 867.15,-18 857.15,-14.5 857.15,-21.5"/>
</g>
<!-- :desktop:app -->
<g id="node25" class="node">
<title>:desktop:app</title>
<polygon fill="#ffb59a" stroke="black" points="2329.69,-1132 1969.69,-1132 1969.69,-1096 2329.69,-1096 2329.69,-1132"/>
<text text-anchor="middle" x="2149.69" y="-1110.3" font-family="Times,serif" font-size="14.00">:desktop:app</text>
</g>
<!-- :desktop:app&#45;&gt;:ui:core -->
<g id="edge33" class="edge">
<title>:desktop:app&#45;&gt;:ui:core</title>
<path fill="none" stroke="black" stroke-dasharray="1,5" d="M2187.66,-1095.79C2187.66,-986.3 2187.66,-420 2187.66,-420 2187.66,-420 1578.43,-420 1578.43,-420"/>
<polygon fill="black" stroke="black" points="1578.43,-416.5 1568.43,-420 1578.43,-423.5 1578.43,-416.5"/>
</g>
<!-- :ui:test:screenshot&#45;&gt;:ui:core -->
<g id="edge108" class="edge">
<title>:ui:test:screenshot&#45;&gt;:ui:core</title>
<path fill="none" stroke="red" d="M1528.69,-548.65C1528.69,-548.65 1528.69,-457.08 1528.69,-457.08"/>
<polygon fill="red" stroke="red" points="1532.19,-457.08 1528.69,-447.08 1525.19,-457.08 1532.19,-457.08"/>
</g>
</g>
</svg>
