<?xml version="1.0" encoding="UTF-8" standalone="no"?>
<!DOCTYPE svg PUBLIC "-//W3C//DTD SVG 1.1//EN"
 "http://www.w3.org/Graphics/SVG/1.1/DTD/svg11.dtd">
<!-- Generated by graphviz version 2.43.0 (0)
 -->
<!-- Title: %3 Pages: 1 -->
<svg width="396pt" height="226pt"
 viewBox="0.00 0.00 396.28 226.00" xmlns="http://www.w3.org/2000/svg" xmlns:xlink="http://www.w3.org/1999/xlink">
<g id="graph0" class="graph" transform="scale(1 1) rotate(0) translate(4 222)">
<title>%3</title>
<polygon fill="white" stroke="transparent" points="-4,4 -4,-222 392.28,-222 392.28,4 -4,4"/>
<text text-anchor="middle" x="194.14" y="-190" font-family="Times,serif" font-size="30.00">Dependents</text>
<text text-anchor="middle" x="194.14" y="-157" font-family="Times,serif" font-size="30.00"> </text>
<!-- :data:coverart -->
<g id="node1" class="node">
<title>:data:coverart</title>
<polygon fill="#b59aff" stroke="black" points="117,-90 0,-90 0,-54 117,-54 117,-90"/>
<text text-anchor="middle" x="58.5" y="-68.3" font-family="Times,serif" font-size="14.00">:data:coverart</text>
</g>
<!-- :shared -->
<g id="node2" class="node">
<title>:shared</title>
<ellipse fill="#b59aff" stroke="black" cx="303.14" cy="-126" rx="45.49" ry="18"/>
<text text-anchor="middle" x="303.14" y="-122.3" font-family="Times,serif" font-size="14.00">:shared</text>
</g>
<!-- :shared&#45;&gt;:data:coverart -->
<g id="edge1" class="edge">
<title>:shared&#45;&gt;:data:coverart</title>
<path fill="none" stroke="black" stroke-dasharray="1,5" d="M257.61,-126C186.71,-126 58,-126 58,-126 58,-126 58,-100.28 58,-100.28"/>
<polygon fill="black" stroke="black" points="61.5,-100.28 58,-90.28 54.5,-100.28 61.5,-100.28"/>
</g>
<!-- :test&#45;data -->
<g id="node3" class="node">
<title>:test&#45;data</title>
<ellipse fill="#b59aff" stroke="black" cx="303.14" cy="-72" rx="55.49" ry="18"/>
<text text-anchor="middle" x="303.14" y="-68.3" font-family="Times,serif" font-size="14.00">:test&#45;data</text>
</g>
<!-- :test&#45;data&#45;&gt;:data:coverart -->
<g id="edge2" class="edge">
<title>:test&#45;data&#45;&gt;:data:coverart</title>
<path fill="none" stroke="black" stroke-dasharray="1,5" d="M250.96,-78C250.96,-78 127.03,-78 127.03,-78"/>
<polygon fill="black" stroke="black" points="127.03,-74.5 117.03,-78 127.03,-81.5 127.03,-74.5"/>
</g>
<!-- :data:repository -->
<g id="node4" class="node">
<title>:data:repository</title>
<ellipse fill="#b59aff" stroke="black" cx="303.14" cy="-18" rx="85.29" ry="18"/>
<text text-anchor="middle" x="303.14" y="-14.3" font-family="Times,serif" font-size="14.00">:data:repository</text>
</g>
<!-- :data:repository&#45;&gt;:data:coverart -->
<g id="edge3" class="edge">
<title>:data:repository&#45;&gt;:data:coverart</title>
<path fill="none" stroke="black" stroke-dasharray="1,5" d="M232,-28.18C232,-42.27 232,-66 232,-66 232,-66 127.24,-66 127.24,-66"/>
<polygon fill="black" stroke="black" points="127.24,-62.5 117.24,-66 127.24,-69.5 127.24,-62.5"/>
</g>
</g>
</svg>
