<?xml version="1.0" encoding="UTF-8" standalone="no"?>
<!DOCTYPE svg PUBLIC "-//W3C//DTD SVG 1.1//EN"
 "http://www.w3.org/Graphics/SVG/1.1/DTD/svg11.dtd">
<!-- Generated by graphviz version 11.0.0 (20240428.1522)
 -->
<!-- Pages: 1 -->
<svg width="368pt" height="394pt"
 viewBox="0.00 0.00 368.00 393.50" xmlns="http://www.w3.org/2000/svg" xmlns:xlink="http://www.w3.org/1999/xlink">
<g id="graph0" class="graph" transform="scale(1 1) rotate(0) translate(4 389.5)">
<polygon fill="white" stroke="none" points="-4,4 -4,-389.5 364,-389.5 364,4 -4,4"/>
<text text-anchor="middle" x="180" y="-353" font-family="Times,serif" font-size="30.00">coverart</text>
<text text-anchor="middle" x="180" y="-319.25" font-family="Times,serif" font-size="30.00"> </text>
<!-- :data:coverart -->
<g id="node1" class="node">
<title>:data:coverart</title>
<polygon fill="#b59aff" stroke="black" points="360,-310 0,-310 0,-274 360,-274 360,-310"/>
<text text-anchor="middle" x="180" y="-286.95" font-family="Times,serif" font-size="14.00">:data:coverart</text>
</g>
<!-- :core:logging:api -->
<g id="node2" class="node">
<title>:core:logging:api</title>
<ellipse fill="#b59aff" stroke="black" cx="78" cy="-155" rx="73.87" ry="18"/>
<text text-anchor="middle" x="78" y="-149.95" font-family="Times,serif" font-size="14.00">:core:logging:api</text>
</g>
<!-- :data:coverart&#45;&gt;:core:logging:api -->
<g id="edge1" class="edge">
<title>:data:coverart&#45;&gt;:core:logging:api</title>
<path fill="none" stroke="black" stroke-dasharray="1,5" d="M78,-273.52C78,-273.52 78,-184.7 78,-184.7"/>
<polygon fill="black" stroke="black" points="81.5,-184.7 78,-174.7 74.5,-184.7 81.5,-184.7"/>
</g>
<!-- :core:models -->
<g id="node3" class="node">
<title>:core:models</title>
<ellipse fill="#b59aff" stroke="black" cx="215" cy="-18" rx="59.03" ry="18"/>
<text text-anchor="middle" x="215" y="-12.95" font-family="Times,serif" font-size="14.00">:core:models</text>
</g>
<!-- :data:coverart&#45;&gt;:core:models -->
<g id="edge2" class="edge">
<title>:data:coverart&#45;&gt;:core:models</title>
<path fill="none" stroke="black" stroke-dasharray="1,5" d="M182.17,-273.6C182.17,-273.6 182.17,-44.73 182.17,-44.73"/>
<polygon fill="black" stroke="black" points="185.67,-44.73 182.17,-34.73 178.67,-44.73 185.67,-44.73"/>
</g>
<!-- :domain -->
<g id="node4" class="node">
<title>:domain</title>
<ellipse fill="#b59aff" stroke="black" cx="250" cy="-155" rx="41.63" ry="18"/>
<text text-anchor="middle" x="250" y="-149.95" font-family="Times,serif" font-size="14.00">:domain</text>
</g>
<!-- :data:coverart&#45;&gt;:domain -->
<g id="edge3" class="edge">
<title>:data:coverart&#45;&gt;:domain</title>
<path fill="none" stroke="black" stroke-dasharray="1,5" d="M250,-273.52C250,-273.52 250,-184.7 250,-184.7"/>
<polygon fill="black" stroke="black" points="253.5,-184.7 250,-174.7 246.5,-184.7 253.5,-184.7"/>
</g>
<!-- :domain&#45;&gt;:core:models -->
<g id="edge4" class="edge">
<title>:domain&#45;&gt;:core:models</title>
<path fill="none" stroke="black" stroke-dasharray="1,5" d="M241.2,-137.09C241.2,-137.09 241.2,-45.72 241.2,-45.72"/>
<polygon fill="black" stroke="black" points="244.7,-45.72 241.2,-35.72 237.7,-45.72 244.7,-45.72"/>
</g>
</g>
</svg>
