<?xml version="1.0" encoding="UTF-8" standalone="no"?>
<!DOCTYPE svg PUBLIC "-//W3C//DTD SVG 1.1//EN"
 "http://www.w3.org/Graphics/SVG/1.1/DTD/svg11.dtd">
<!-- Generated by graphviz version 2.43.0 (0)
 -->
<!-- Title: %3 Pages: 1 -->
<svg width="406pt" height="392pt"
 viewBox="0.00 0.00 405.93 392.00" xmlns="http://www.w3.org/2000/svg" xmlns:xlink="http://www.w3.org/1999/xlink">
<g id="graph0" class="graph" transform="scale(1 1) rotate(0) translate(4 388)">
<title>%3</title>
<polygon fill="white" stroke="transparent" points="-4,4 -4,-388 401.93,-388 401.93,4 -4,4"/>
<text text-anchor="middle" x="198.97" y="-356" font-family="Times,serif" font-size="30.00">Dependencies</text>
<text text-anchor="middle" x="198.97" y="-323" font-family="Times,serif" font-size="30.00"> </text>
<!-- :data:coverart -->
<g id="node1" class="node">
<title>:data:coverart</title>
<polygon fill="#b59aff" stroke="black" points="262.89,-310 145.89,-310 145.89,-274 262.89,-274 262.89,-310"/>
<text text-anchor="middle" x="204.39" y="-288.3" font-family="Times,serif" font-size="14.00">:data:coverart</text>
</g>
<!-- :core:logging:api -->
<g id="node2" class="node">
<title>:core:logging:api</title>
<ellipse fill="#b59aff" stroke="black" cx="88.39" cy="-155" rx="88.28" ry="18"/>
<text text-anchor="middle" x="88.39" y="-151.3" font-family="Times,serif" font-size="14.00">:core:logging:api</text>
</g>
<!-- :data:coverart&#45;&gt;:core:logging:api -->
<g id="edge1" class="edge">
<title>:data:coverart&#45;&gt;:core:logging:api</title>
<path fill="none" stroke="black" stroke-dasharray="1,5" d="M161.34,-273.81C161.34,-273.81 161.34,-175.39 161.34,-175.39"/>
<polygon fill="black" stroke="black" points="164.84,-175.39 161.34,-165.39 157.84,-175.39 164.84,-175.39"/>
</g>
<!-- :core:models -->
<g id="node3" class="node">
<title>:core:models</title>
<ellipse fill="#b59aff" stroke="black" cx="259.39" cy="-18" rx="69.59" ry="18"/>
<text text-anchor="middle" x="259.39" y="-14.3" font-family="Times,serif" font-size="14.00">:core:models</text>
</g>
<!-- :data:coverart&#45;&gt;:core:models -->
<g id="edge2" class="edge">
<title>:data:coverart&#45;&gt;:core:models</title>
<path fill="none" stroke="black" stroke-dasharray="1,5" d="M211.35,-273.6C211.35,-273.6 211.35,-41.28 211.35,-41.28"/>
<polygon fill="black" stroke="black" points="214.85,-41.28 211.35,-31.28 207.85,-41.28 214.85,-41.28"/>
</g>
<!-- :shared:domain -->
<g id="node4" class="node">
<title>:shared:domain</title>
<ellipse fill="#b59aff" stroke="black" cx="315.39" cy="-155" rx="82.59" ry="18"/>
<text text-anchor="middle" x="315.39" y="-151.3" font-family="Times,serif" font-size="14.00">:shared:domain</text>
</g>
<!-- :data:coverart&#45;&gt;:shared:domain -->
<g id="edge3" class="edge">
<title>:data:coverart&#45;&gt;:shared:domain</title>
<path fill="none" stroke="black" stroke-dasharray="1,5" d="M247.87,-273.81C247.87,-273.81 247.87,-175.39 247.87,-175.39"/>
<polygon fill="black" stroke="black" points="251.37,-175.39 247.87,-165.39 244.37,-175.39 251.37,-175.39"/>
</g>
<!-- :shared:domain&#45;&gt;:core:models -->
<g id="edge4" class="edge">
<title>:shared:domain&#45;&gt;:core:models</title>
<path fill="none" stroke="black" stroke-dasharray="1,5" d="M280.89,-138.47C280.89,-138.47 280.89,-45.45 280.89,-45.45"/>
<polygon fill="black" stroke="black" points="284.39,-45.45 280.89,-35.45 277.39,-45.45 284.39,-45.45"/>
</g>
</g>
</svg>
