<?xml version="1.0" encoding="UTF-8" standalone="no"?>
<!DOCTYPE svg PUBLIC "-//W3C//DTD SVG 1.1//EN"
 "http://www.w3.org/Graphics/SVG/1.1/DTD/svg11.dtd">
<!-- Generated by graphviz version 2.43.0 (0)
 -->
<!-- Title: %3 Pages: 1 -->
<svg width="336pt" height="392pt"
 viewBox="0.00 0.00 336.49 392.00" xmlns="http://www.w3.org/2000/svg" xmlns:xlink="http://www.w3.org/1999/xlink">
<g id="graph0" class="graph" transform="scale(1 1) rotate(0) translate(4 388)">
<title>%3</title>
<polygon fill="white" stroke="transparent" points="-4,4 -4,-388 332.49,-388 332.49,4 -4,4"/>
<text text-anchor="middle" x="164.24" y="-356" font-family="Times,serif" font-size="30.00">Dependencies</text>
<text text-anchor="middle" x="164.24" y="-323" font-family="Times,serif" font-size="30.00"> </text>
<!-- :data:coverart -->
<g id="node1" class="node">
<title>:data:coverart</title>
<polygon fill="#b59aff" stroke="black" points="262.89,-310 145.89,-310 145.89,-274 262.89,-274 262.89,-310"/>
<text text-anchor="middle" x="204.39" y="-288.3" font-family="Times,serif" font-size="14.00">:data:coverart</text>
</g>
<!-- :core:logging:api -->
<g id="node2" class="node">
<title>:core:logging:api</title>
<ellipse fill="#b59aff" stroke="black" cx="88.39" cy="-155" rx="88.28" ry="18"/>
<text text-anchor="middle" x="88.39" y="-151.3" font-family="Times,serif" font-size="14.00">:core:logging:api</text>
</g>
<!-- :data:coverart&#45;&gt;:core:logging:api -->
<g id="edge1" class="edge">
<title>:data:coverart&#45;&gt;:core:logging:api</title>
<path fill="none" stroke="black" stroke-dasharray="1,5" d="M161.34,-273.81C161.34,-273.81 161.34,-175.39 161.34,-175.39"/>
<polygon fill="black" stroke="black" points="164.84,-175.39 161.34,-165.39 157.84,-175.39 164.84,-175.39"/>
</g>
<!-- :core:models -->
<g id="node3" class="node">
<title>:core:models</title>
<ellipse fill="#b59aff" stroke="black" cx="242.39" cy="-18" rx="69.59" ry="18"/>
<text text-anchor="middle" x="242.39" y="-14.3" font-family="Times,serif" font-size="14.00">:core:models</text>
</g>
<!-- :data:coverart&#45;&gt;:core:models -->
<g id="edge2" class="edge">
<title>:data:coverart&#45;&gt;:core:models</title>
<path fill="none" stroke="black" stroke-dasharray="1,5" d="M204.54,-273.6C204.54,-273.6 204.54,-43.21 204.54,-43.21"/>
<polygon fill="black" stroke="black" points="208.04,-43.21 204.54,-33.21 201.04,-43.21 208.04,-43.21"/>
</g>
<!-- :domain -->
<g id="node4" class="node">
<title>:domain</title>
<ellipse fill="#b59aff" stroke="black" cx="280.39" cy="-155" rx="48.19" ry="18"/>
<text text-anchor="middle" x="280.39" y="-151.3" font-family="Times,serif" font-size="14.00">:domain</text>
</g>
<!-- :data:coverart&#45;&gt;:domain -->
<g id="edge3" class="edge">
<title>:data:coverart&#45;&gt;:domain</title>
<path fill="none" stroke="black" stroke-dasharray="1,5" d="M247.59,-273.81C247.59,-273.81 247.59,-178.32 247.59,-178.32"/>
<polygon fill="black" stroke="black" points="251.09,-178.32 247.59,-168.32 244.09,-178.32 251.09,-178.32"/>
</g>
<!-- :domain&#45;&gt;:core:models -->
<g id="edge4" class="edge">
<title>:domain&#45;&gt;:core:models</title>
<path fill="none" stroke="black" stroke-dasharray="1,5" d="M272.12,-137.09C272.12,-137.09 272.12,-44.63 272.12,-44.63"/>
<polygon fill="black" stroke="black" points="275.62,-44.63 272.12,-34.63 268.62,-44.63 275.62,-44.63"/>
</g>
</g>
</svg>
