<?xml version="1.0" encoding="UTF-8" standalone="no"?>
<!DOCTYPE svg PUBLIC "-//W3C//DTD SVG 1.1//EN"
 "http://www.w3.org/Graphics/SVG/1.1/DTD/svg11.dtd">
<!-- Generated by graphviz version 2.43.0 (0)
 -->
<!-- Title: %3 Pages: 1 -->
<svg width="390pt" height="226pt"
 viewBox="0.00 0.00 389.78 226.00" xmlns="http://www.w3.org/2000/svg" xmlns:xlink="http://www.w3.org/1999/xlink">
<g id="graph0" class="graph" transform="scale(1 1) rotate(0) translate(4 222)">
<title>%3</title>
<polygon fill="white" stroke="transparent" points="-4,4 -4,-222 385.78,-222 385.78,4 -4,4"/>
<text text-anchor="middle" x="190.89" y="-190" font-family="Times,serif" font-size="30.00">Dependents</text>
<text text-anchor="middle" x="190.89" y="-157" font-family="Times,serif" font-size="30.00"> </text>
<!-- :data:coverart -->
<g id="node1" class="node">
<title>:data:coverart</title>
<ellipse fill="#b59aff" stroke="black" cx="76.04" cy="-72" rx="76.09" ry="18"/>
<text text-anchor="middle" x="76.04" y="-68.3" font-family="Times,serif" font-size="14.00">:data:coverart</text>
</g>
<!-- :shared -->
<g id="node2" class="node">
<title>:shared</title>
<ellipse fill="#b59aff" stroke="black" cx="317.43" cy="-126" rx="45.49" ry="18"/>
<text text-anchor="middle" x="317.43" y="-122.3" font-family="Times,serif" font-size="14.00">:shared</text>
</g>
<!-- :shared&#45;&gt;:data:coverart -->
<g id="edge1" class="edge">
<title>:shared&#45;&gt;:data:coverart</title>
<path fill="none" stroke="black" stroke-dasharray="1,5" d="M271.74,-126C201.74,-126 76,-126 76,-126 76,-126 76,-100.28 76,-100.28"/>
<polygon fill="black" stroke="black" points="79.5,-100.28 76,-90.28 72.5,-100.28 79.5,-100.28"/>
</g>
<!-- :test&#45;data -->
<g id="node3" class="node">
<title>:test&#45;data</title>
<ellipse fill="#b59aff" stroke="black" cx="317.43" cy="-72" rx="55.49" ry="18"/>
<text text-anchor="middle" x="317.43" y="-68.3" font-family="Times,serif" font-size="14.00">:test&#45;data</text>
</g>
<!-- :test&#45;data&#45;&gt;:data:coverart -->
<g id="edge2" class="edge">
<title>:test&#45;data&#45;&gt;:data:coverart</title>
<path fill="none" stroke="black" stroke-dasharray="1,5" d="M265.05,-78C265.05,-78 158.01,-78 158.01,-78"/>
<polygon fill="black" stroke="black" points="158.01,-74.5 148.01,-78 158.01,-81.5 158.01,-74.5"/>
</g>
<!-- :ui:common -->
<g id="node4" class="node">
<title>:ui:common</title>
<ellipse fill="#b59aff" stroke="black" cx="317.43" cy="-18" rx="64.19" ry="18"/>
<text text-anchor="middle" x="317.43" y="-14.3" font-family="Times,serif" font-size="14.00">:ui:common</text>
</g>
<!-- :ui:common&#45;&gt;:data:coverart -->
<g id="edge3" class="edge">
<title>:ui:common&#45;&gt;:data:coverart</title>
<path fill="none" stroke="black" stroke-dasharray="1,5" d="M257,-24.28C257,-37.29 257,-66 257,-66 257,-66 157.82,-66 157.82,-66"/>
<polygon fill="black" stroke="black" points="157.82,-62.5 147.82,-66 157.82,-69.5 157.82,-62.5"/>
</g>
</g>
</svg>
