<?xml version="1.0" encoding="UTF-8" standalone="no"?>
<!DOCTYPE svg PUBLIC "-//W3C//DTD SVG 1.1//EN"
 "http://www.w3.org/Graphics/SVG/1.1/DTD/svg11.dtd">
<!-- Generated by graphviz version 2.43.0 (0)
 -->
<!-- Title: %3 Pages: 1 -->
<svg width="534pt" height="666pt"
 viewBox="0.00 0.00 533.69 666.00" xmlns="http://www.w3.org/2000/svg" xmlns:xlink="http://www.w3.org/1999/xlink">
<g id="graph0" class="graph" transform="scale(1 1) rotate(0) translate(4 662)">
<title>%3</title>
<polygon fill="white" stroke="transparent" points="-4,4 -4,-662 529.69,-662 529.69,4 -4,4"/>
<text text-anchor="middle" x="262.84" y="-630" font-family="Times,serif" font-size="30.00">Dependencies</text>
<text text-anchor="middle" x="262.84" y="-597" font-family="Times,serif" font-size="30.00"> </text>
<!-- :data:coverart -->
<g id="node1" class="node">
<title>:data:coverart</title>
<polygon fill="#b59aff" stroke="black" points="259.79,-584 142.79,-584 142.79,-548 259.79,-548 259.79,-584"/>
<text text-anchor="middle" x="201.29" y="-562.3" font-family="Times,serif" font-size="14.00">:data:coverart</text>
</g>
<!-- :shared:domain -->
<g id="node2" class="node">
<title>:shared:domain</title>
<ellipse fill="#b59aff" stroke="black" cx="135.29" cy="-18" rx="82.59" ry="18"/>
<text text-anchor="middle" x="135.29" y="-14.3" font-family="Times,serif" font-size="14.00">:shared:domain</text>
</g>
<!-- :data:coverart&#45;&gt;:shared:domain -->
<g id="edge1" class="edge">
<title>:data:coverart&#45;&gt;:shared:domain</title>
<path fill="none" stroke="black" stroke-dasharray="1,5" d="M142.53,-572C83.12,-572 0,-572 0,-572 0,-572 0,-18 0,-18 0,-18 42.7,-18 42.7,-18"/>
<polygon fill="black" stroke="black" points="42.7,-21.5 52.7,-18 42.7,-14.5 42.7,-21.5"/>
</g>
<!-- :core:logging:api -->
<g id="node3" class="node">
<title>:core:logging:api</title>
<ellipse fill="#b59aff" stroke="black" cx="437.29" cy="-18" rx="88.28" ry="18"/>
<text text-anchor="middle" x="437.29" y="-14.3" font-family="Times,serif" font-size="14.00">:core:logging:api</text>
</g>
<!-- :data:coverart&#45;&gt;:core:logging:api -->
<g id="edge2" class="edge">
<title>:data:coverart&#45;&gt;:core:logging:api</title>
<path fill="none" stroke="black" stroke-dasharray="1,5" d="M259.97,-572C306.08,-572 362.56,-572 362.56,-572 362.56,-572 362.56,-37.62 362.56,-37.62"/>
<polygon fill="black" stroke="black" points="366.06,-37.62 362.56,-27.62 359.06,-37.62 366.06,-37.62"/>
</g>
<!-- :test&#45;data -->
<g id="node4" class="node">
<title>:test&#45;data</title>
<ellipse fill="#b59aff" stroke="black" cx="201.29" cy="-429" rx="55.49" ry="18"/>
<text text-anchor="middle" x="201.29" y="-425.3" font-family="Times,serif" font-size="14.00">:test&#45;data</text>
</g>
<!-- :data:coverart&#45;&gt;:test&#45;data -->
<g id="edge3" class="edge">
<title>:data:coverart&#45;&gt;:test&#45;data</title>
<path fill="none" stroke="#ff9ab1" stroke-dasharray="1,5" d="M182.88,-547.81C182.88,-547.81 182.88,-455.97 182.88,-455.97"/>
<polygon fill="#ff9ab1" stroke="#ff9ab1" points="186.38,-455.97 182.88,-445.97 179.38,-455.97 186.38,-455.97"/>
</g>
<!-- :data:musicbrainz -->
<g id="node5" class="node">
<title>:data:musicbrainz</title>
<ellipse fill="#b59aff" stroke="black" cx="257.29" cy="-155" rx="93.68" ry="18"/>
<text text-anchor="middle" x="257.29" y="-151.3" font-family="Times,serif" font-size="14.00">:data:musicbrainz</text>
</g>
<!-- :data:coverart&#45;&gt;:data:musicbrainz -->
<g id="edge4" class="edge">
<title>:data:coverart&#45;&gt;:data:musicbrainz</title>
<path fill="none" stroke="#ff9ab1" stroke-dasharray="1,5" d="M260.01,-560C283.61,-560 305.34,-560 305.34,-560 305.34,-560 305.34,-180.63 305.34,-180.63"/>
<polygon fill="#ff9ab1" stroke="#ff9ab1" points="308.84,-180.63 305.34,-170.63 301.84,-180.63 308.84,-180.63"/>
</g>
<!-- :data:database -->
<g id="node6" class="node">
<title>:data:database</title>
<ellipse fill="#b59aff" stroke="black" cx="97.29" cy="-292" rx="79.09" ry="18"/>
<text text-anchor="middle" x="97.29" y="-288.3" font-family="Times,serif" font-size="14.00">:data:database</text>
</g>
<!-- :data:coverart&#45;&gt;:data:database -->
<g id="edge5" class="edge">
<title>:data:coverart&#45;&gt;:data:database</title>
<path fill="none" stroke="#ff9ab1" stroke-dasharray="1,5" d="M142.62,-560C111.81,-560 80.4,-560 80.4,-560 80.4,-560 80.4,-320 80.4,-320"/>
<polygon fill="#ff9ab1" stroke="#ff9ab1" points="83.9,-320 80.4,-310 76.9,-320 83.9,-320"/>
</g>
<!-- :test&#45;data&#45;&gt;:data:coverart -->
<g id="edge9" class="edge">
<title>:test&#45;data&#45;&gt;:data:coverart</title>
<path fill="none" stroke="black" stroke-dasharray="1,5" d="M219.71,-446.07C219.71,-446.07 219.71,-537.84 219.71,-537.84"/>
<polygon fill="black" stroke="black" points="216.21,-537.84 219.71,-547.84 223.21,-537.84 216.21,-537.84"/>
</g>
<!-- :test&#45;data&#45;&gt;:shared:domain -->
<g id="edge6" class="edge">
<title>:test&#45;data&#45;&gt;:shared:domain</title>
<path fill="none" stroke="black" stroke-dasharray="1,5" d="M203.24,-410.72C203.24,-360.3 203.24,-223 203.24,-223 203.24,-223 126.72,-223 126.72,-223 126.72,-223 126.72,-46.19 126.72,-46.19"/>
<polygon fill="black" stroke="black" points="130.22,-46.19 126.72,-36.19 123.22,-46.19 130.22,-46.19"/>
</g>
<!-- :test&#45;data&#45;&gt;:data:musicbrainz -->
<g id="edge8" class="edge">
<title>:test&#45;data&#45;&gt;:data:musicbrainz</title>
<path fill="none" stroke="black" stroke-dasharray="1,5" d="M229.89,-413.48C229.89,-413.48 229.89,-182.43 229.89,-182.43"/>
<polygon fill="black" stroke="black" points="233.39,-182.43 229.89,-172.43 226.39,-182.43 233.39,-182.43"/>
</g>
<!-- :test&#45;data&#45;&gt;:data:database -->
<g id="edge7" class="edge">
<title>:test&#45;data&#45;&gt;:data:database</title>
<path fill="none" stroke="black" stroke-dasharray="1,5" d="M161.32,-416.36C161.32,-416.36 161.32,-312.69 161.32,-312.69"/>
<polygon fill="black" stroke="black" points="164.82,-312.69 161.32,-302.69 157.82,-312.69 164.82,-312.69"/>
</g>
<!-- :data:spotify -->
<g id="node7" class="node">
<title>:data:spotify</title>
<ellipse fill="#b59aff" stroke="black" cx="437.29" cy="-155" rx="68.79" ry="18"/>
<text text-anchor="middle" x="437.29" y="-151.3" font-family="Times,serif" font-size="14.00">:data:spotify</text>
</g>
<!-- :test&#45;data&#45;&gt;:data:spotify -->
<g id="edge10" class="edge">
<title>:test&#45;data&#45;&gt;:data:spotify</title>
<path fill="none" stroke="black" stroke-dasharray="1,5" d="M256.62,-429C326.38,-429 437.29,-429 437.29,-429 437.29,-429 437.29,-183.4 437.29,-183.4"/>
<polygon fill="black" stroke="black" points="440.79,-183.4 437.29,-173.4 433.79,-183.4 440.79,-183.4"/>
</g>
<!-- :data:musicbrainz&#45;&gt;:shared:domain -->
<g id="edge11" class="edge">
<title>:data:musicbrainz&#45;&gt;:shared:domain</title>
<path fill="none" stroke="black" stroke-dasharray="1,5" d="M181.75,-144.25C181.75,-144.25 181.75,-43.18 181.75,-43.18"/>
<polygon fill="black" stroke="black" points="185.25,-43.18 181.75,-33.18 178.25,-43.18 185.25,-43.18"/>
</g>
<!-- :data:musicbrainz&#45;&gt;:core:logging:api -->
<g id="edge12" class="edge">
<title>:data:musicbrainz&#45;&gt;:core:logging:api</title>
<path fill="none" stroke="black" stroke-dasharray="1,5" d="M351.09,-155C354.65,-155 356.72,-155 356.72,-155 356.72,-155 356.72,-35.76 356.72,-35.76"/>
<polygon fill="black" stroke="black" points="360.22,-35.76 356.72,-25.76 353.22,-35.76 360.22,-35.76"/>
</g>
<!-- :data:database&#45;&gt;:shared:domain -->
<g id="edge13" class="edge">
<title>:data:database&#45;&gt;:shared:domain</title>
<path fill="none" stroke="black" stroke-dasharray="1,5" d="M89.73,-274.02C89.73,-274.02 89.73,-43.28 89.73,-43.28"/>
<polygon fill="black" stroke="black" points="93.23,-43.28 89.73,-33.28 86.23,-43.28 93.23,-43.28"/>
</g>
<!-- :data:database&#45;&gt;:data:musicbrainz -->
<g id="edge14" class="edge">
<title>:data:database&#45;&gt;:data:musicbrainz</title>
<path fill="none" stroke="black" stroke-dasharray="1,5" d="M170.14,-284.63C170.14,-284.63 170.14,-171.75 170.14,-171.75"/>
<polygon fill="black" stroke="black" points="173.64,-171.75 170.14,-161.75 166.64,-171.75 173.64,-171.75"/>
</g>
<!-- :data:spotify&#45;&gt;:shared:domain -->
<g id="edge15" class="edge">
<title>:data:spotify&#45;&gt;:shared:domain</title>
<path fill="none" stroke="black" stroke-dasharray="1,5" d="M414.33,-137.94C414.33,-117.51 414.33,-86 414.33,-86 414.33,-86 199.79,-86 199.79,-86 199.79,-86 199.79,-39.54 199.79,-39.54"/>
<polygon fill="black" stroke="black" points="203.29,-39.54 199.79,-29.54 196.29,-39.54 203.29,-39.54"/>
</g>
<!-- :data:spotify&#45;&gt;:core:logging:api -->
<g id="edge16" class="edge">
<title>:data:spotify&#45;&gt;:core:logging:api</title>
<path fill="none" stroke="black" stroke-dasharray="1,5" d="M460.26,-137.93C460.26,-137.93 460.26,-45.72 460.26,-45.72"/>
<polygon fill="black" stroke="black" points="463.76,-45.72 460.26,-35.72 456.76,-45.72 463.76,-45.72"/>
</g>
</g>
</svg>
