<?xml version="1.0" encoding="UTF-8" standalone="no"?>
<!DOCTYPE svg PUBLIC "-//W3C//DTD SVG 1.1//EN"
 "http://www.w3.org/Graphics/SVG/1.1/DTD/svg11.dtd">
<!-- Generated by graphviz version 2.43.0 (0)
 -->
<!-- Title: %3 Pages: 1 -->
<svg width="486pt" height="803pt"
 viewBox="0.00 0.00 485.73 803.00" xmlns="http://www.w3.org/2000/svg" xmlns:xlink="http://www.w3.org/1999/xlink">
<g id="graph0" class="graph" transform="scale(1 1) rotate(0) translate(4 799)">
<title>%3</title>
<polygon fill="white" stroke="transparent" points="-4,4 -4,-799 481.73,-799 481.73,4 -4,4"/>
<text text-anchor="middle" x="238.87" y="-767" font-family="Times,serif" font-size="30.00">Dependencies</text>
<text text-anchor="middle" x="238.87" y="-734" font-family="Times,serif" font-size="30.00"> </text>
<!-- :data:coverart -->
<g id="node1" class="node">
<title>:data:coverart</title>
<polygon fill="#b59aff" stroke="black" points="421.09,-721 304.09,-721 304.09,-685 421.09,-685 421.09,-721"/>
<text text-anchor="middle" x="362.59" y="-699.3" font-family="Times,serif" font-size="14.00">:data:coverart</text>
</g>
<!-- :shared:domain -->
<g id="node2" class="node">
<title>:shared:domain</title>
<ellipse fill="#b59aff" stroke="black" cx="368.59" cy="-155" rx="82.59" ry="18"/>
<text text-anchor="middle" x="368.59" y="-151.3" font-family="Times,serif" font-size="14.00">:shared:domain</text>
</g>
<!-- :data:coverart&#45;&gt;:shared:domain -->
<g id="edge1" class="edge">
<title>:data:coverart&#45;&gt;:shared:domain</title>
<path fill="none" stroke="black" stroke-dasharray="1,5" d="M421.38,-697C435.5,-697 446.58,-697 446.58,-697 446.58,-697 446.58,-171.09 446.58,-171.09"/>
<polygon fill="black" stroke="black" points="450.08,-171.09 446.58,-161.09 443.08,-171.09 450.08,-171.09"/>
</g>
<!-- :core:logging:api -->
<g id="node3" class="node">
<title>:core:logging:api</title>
<ellipse fill="#b59aff" stroke="black" cx="114.59" cy="-155" rx="88.28" ry="18"/>
<text text-anchor="middle" x="114.59" y="-151.3" font-family="Times,serif" font-size="14.00">:core:logging:api</text>
</g>
<!-- :data:coverart&#45;&gt;:core:logging:api -->
<g id="edge2" class="edge">
<title>:data:coverart&#45;&gt;:core:logging:api</title>
<path fill="none" stroke="black" stroke-dasharray="1,5" d="M303.93,-712C201.31,-712 0,-712 0,-712 0,-712 0,-155 0,-155 0,-155 16,-155 16,-155"/>
<polygon fill="black" stroke="black" points="16,-158.5 26,-155 16,-151.5 16,-158.5"/>
</g>
<!-- :core:coroutines -->
<g id="node4" class="node">
<title>:core:coroutines</title>
<ellipse fill="#b59aff" stroke="black" cx="368.59" cy="-18" rx="85.29" ry="18"/>
<text text-anchor="middle" x="368.59" y="-14.3" font-family="Times,serif" font-size="14.00">:core:coroutines</text>
</g>
<!-- :data:coverart&#45;&gt;:core:coroutines -->
<g id="edge3" class="edge">
<title>:data:coverart&#45;&gt;:core:coroutines</title>
<path fill="none" stroke="black" stroke-dasharray="1,5" d="M421.17,-709C449.62,-709 477.73,-709 477.73,-709 477.73,-709 477.73,-12 477.73,-12 477.73,-12 459.06,-12 459.06,-12"/>
<polygon fill="black" stroke="black" points="459.06,-8.5 449.06,-12 459.06,-15.5 459.06,-8.5"/>
</g>
<!-- :test&#45;data -->
<g id="node5" class="node">
<title>:test&#45;data</title>
<ellipse fill="#b59aff" stroke="black" cx="362.59" cy="-566" rx="55.49" ry="18"/>
<text text-anchor="middle" x="362.59" y="-562.3" font-family="Times,serif" font-size="14.00">:test&#45;data</text>
</g>
<!-- :data:coverart&#45;&gt;:test&#45;data -->
<g id="edge4" class="edge">
<title>:data:coverart&#45;&gt;:test&#45;data</title>
<path fill="none" stroke="#ff9ab1" stroke-dasharray="1,5" d="M344.18,-684.81C344.18,-684.81 344.18,-592.97 344.18,-592.97"/>
<polygon fill="#ff9ab1" stroke="#ff9ab1" points="347.68,-592.97 344.18,-582.97 340.68,-592.97 347.68,-592.97"/>
</g>
<!-- :data:musicbrainz -->
<g id="node6" class="node">
<title>:data:musicbrainz</title>
<ellipse fill="#b59aff" stroke="black" cx="111.59" cy="-292" rx="93.68" ry="18"/>
<text text-anchor="middle" x="111.59" y="-288.3" font-family="Times,serif" font-size="14.00">:data:musicbrainz</text>
</g>
<!-- :data:coverart&#45;&gt;:data:musicbrainz -->
<g id="edge5" class="edge">
<title>:data:coverart&#45;&gt;:data:musicbrainz</title>
<path fill="none" stroke="#ff9ab1" stroke-dasharray="1,5" d="M303.94,-703C219.25,-703 72.77,-703 72.77,-703 72.77,-703 72.77,-318.62 72.77,-318.62"/>
<polygon fill="#ff9ab1" stroke="#ff9ab1" points="76.27,-318.62 72.77,-308.62 69.27,-318.62 76.27,-318.62"/>
</g>
<!-- :data:database -->
<g id="node7" class="node">
<title>:data:database</title>
<ellipse fill="#b59aff" stroke="black" cx="261.59" cy="-429" rx="79.09" ry="18"/>
<text text-anchor="middle" x="261.59" y="-425.3" font-family="Times,serif" font-size="14.00">:data:database</text>
</g>
<!-- :data:coverart&#45;&gt;:data:database -->
<g id="edge6" class="edge">
<title>:data:coverart&#45;&gt;:data:database</title>
<path fill="none" stroke="#ff9ab1" stroke-dasharray="1,5" d="M303.94,-694C273.75,-694 243.2,-694 243.2,-694 243.2,-694 243.2,-456.8 243.2,-456.8"/>
<polygon fill="#ff9ab1" stroke="#ff9ab1" points="246.7,-456.8 243.2,-446.8 239.7,-456.8 246.7,-456.8"/>
</g>
<!-- :core:logging:api&#45;&gt;:core:coroutines -->
<g id="edge7" class="edge">
<title>:core:logging:api&#45;&gt;:core:coroutines</title>
<path fill="none" stroke="black" d="M114.59,-136.89C114.59,-98.41 114.59,-12 114.59,-12 114.59,-12 278.22,-12 278.22,-12"/>
<polygon fill="black" stroke="black" points="278.22,-15.5 288.22,-12 278.22,-8.5 278.22,-15.5"/>
</g>
<!-- :test&#45;data&#45;&gt;:data:coverart -->
<g id="edge12" class="edge">
<title>:test&#45;data&#45;&gt;:data:coverart</title>
<path fill="none" stroke="black" stroke-dasharray="1,5" d="M381.01,-583.07C381.01,-583.07 381.01,-674.84 381.01,-674.84"/>
<polygon fill="black" stroke="black" points="377.51,-674.84 381.01,-684.84 384.51,-674.84 377.51,-674.84"/>
</g>
<!-- :test&#45;data&#45;&gt;:shared:domain -->
<g id="edge8" class="edge">
<title>:test&#45;data&#45;&gt;:shared:domain</title>
<path fill="none" stroke="black" stroke-dasharray="1,5" d="M414.7,-560C429.67,-560 442.04,-560 442.04,-560 442.04,-560 442.04,-173.46 442.04,-173.46"/>
<polygon fill="black" stroke="black" points="445.54,-173.46 442.04,-163.46 438.54,-173.46 445.54,-173.46"/>
</g>
<!-- :test&#45;data&#45;&gt;:core:coroutines -->
<g id="edge9" class="edge">
<title>:test&#45;data&#45;&gt;:core:coroutines</title>
<path fill="none" stroke="black" stroke-dasharray="1,5" d="M414.77,-572C440.35,-572 465.73,-572 465.73,-572 465.73,-572 465.73,-24 465.73,-24 465.73,-24 459.26,-24 459.26,-24"/>
<polygon fill="black" stroke="black" points="459.26,-20.5 449.26,-24 459.26,-27.5 459.26,-20.5"/>
</g>
<!-- :test&#45;data&#45;&gt;:data:musicbrainz -->
<g id="edge11" class="edge">
<title>:test&#45;data&#45;&gt;:data:musicbrainz</title>
<path fill="none" stroke="black" stroke-dasharray="1,5" d="M307.18,-566C237.69,-566 127.53,-566 127.53,-566 127.53,-566 127.53,-319.98 127.53,-319.98"/>
<polygon fill="black" stroke="black" points="131.03,-319.98 127.53,-309.98 124.03,-319.98 131.03,-319.98"/>
</g>
<!-- :test&#45;data&#45;&gt;:data:database -->
<g id="edge10" class="edge">
<title>:test&#45;data&#45;&gt;:data:database</title>
<path fill="none" stroke="black" stroke-dasharray="1,5" d="M324.12,-552.86C324.12,-552.86 324.12,-450.34 324.12,-450.34"/>
<polygon fill="black" stroke="black" points="327.62,-450.34 324.12,-440.34 320.62,-450.34 327.62,-450.34"/>
</g>
<!-- :data:spotify -->
<g id="node8" class="node">
<title>:data:spotify</title>
<ellipse fill="#b59aff" stroke="black" cx="368.59" cy="-292" rx="68.79" ry="18"/>
<text text-anchor="middle" x="368.59" y="-288.3" font-family="Times,serif" font-size="14.00">:data:spotify</text>
</g>
<!-- :test&#45;data&#45;&gt;:data:spotify -->
<g id="edge13" class="edge">
<title>:test&#45;data&#45;&gt;:data:spotify</title>
<path fill="none" stroke="black" stroke-dasharray="1,5" d="M379.36,-548.44C379.36,-548.44 379.36,-320.12 379.36,-320.12"/>
<polygon fill="black" stroke="black" points="382.86,-320.12 379.36,-310.12 375.86,-320.12 382.86,-320.12"/>
</g>
<!-- :data:musicbrainz&#45;&gt;:shared:domain -->
<g id="edge14" class="edge">
<title>:data:musicbrainz&#45;&gt;:shared:domain</title>
<path fill="none" stroke="black" stroke-dasharray="1,5" d="M200.05,-298C245.14,-298 290.6,-298 290.6,-298 290.6,-298 290.6,-171.14 290.6,-171.14"/>
<polygon fill="black" stroke="black" points="294.1,-171.14 290.6,-161.14 287.1,-171.14 294.1,-171.14"/>
</g>
<!-- :data:musicbrainz&#45;&gt;:core:logging:api -->
<g id="edge15" class="edge">
<title>:data:musicbrainz&#45;&gt;:core:logging:api</title>
<path fill="none" stroke="black" stroke-dasharray="1,5" d="M114.59,-273.81C114.59,-273.81 114.59,-183.27 114.59,-183.27"/>
<polygon fill="black" stroke="black" points="118.09,-183.27 114.59,-173.27 111.09,-183.27 118.09,-183.27"/>
</g>
<!-- :data:database&#45;&gt;:shared:domain -->
<g id="edge16" class="edge">
<title>:data:database&#45;&gt;:shared:domain</title>
<path fill="none" stroke="black" stroke-dasharray="1,5" d="M295.15,-412.68C295.15,-412.68 295.15,-173.65 295.15,-173.65"/>
<polygon fill="black" stroke="black" points="298.65,-173.65 295.15,-163.65 291.65,-173.65 298.65,-173.65"/>
</g>
<!-- :data:database&#45;&gt;:core:coroutines -->
<g id="edge17" class="edge">
<title>:data:database&#45;&gt;:core:coroutines</title>
<path fill="none" stroke="black" stroke-dasharray="1,5" d="M231.27,-412.11C231.27,-335.46 231.27,-24 231.27,-24 231.27,-24 278.31,-24 278.31,-24"/>
<polygon fill="black" stroke="black" points="278.31,-27.5 288.31,-24 278.31,-20.5 278.31,-27.5"/>
</g>
<!-- :data:database&#45;&gt;:data:musicbrainz -->
<g id="edge18" class="edge">
<title>:data:database&#45;&gt;:data:musicbrainz</title>
<path fill="none" stroke="black" stroke-dasharray="1,5" d="M193.74,-419.58C193.74,-419.58 193.74,-310.77 193.74,-310.77"/>
<polygon fill="black" stroke="black" points="197.24,-310.77 193.74,-300.77 190.24,-310.77 197.24,-310.77"/>
</g>
<!-- :data:spotify&#45;&gt;:shared:domain -->
<g id="edge19" class="edge">
<title>:data:spotify&#45;&gt;:shared:domain</title>
<path fill="none" stroke="black" stroke-dasharray="1,5" d="M368.59,-273.81C368.59,-273.81 368.59,-183.27 368.59,-183.27"/>
<polygon fill="black" stroke="black" points="372.09,-183.27 368.59,-173.27 365.09,-183.27 372.09,-183.27"/>
</g>
<!-- :data:spotify&#45;&gt;:core:logging:api -->
<g id="edge20" class="edge">
<title>:data:spotify&#45;&gt;:core:logging:api</title>
<path fill="none" stroke="black" stroke-dasharray="1,5" d="M303.57,-286C279.23,-286 257.36,-286 257.36,-286 257.36,-286 257.36,-155 257.36,-155 257.36,-155 213.39,-155 213.39,-155"/>
<polygon fill="black" stroke="black" points="213.39,-151.5 203.39,-155 213.39,-158.5 213.39,-151.5"/>
</g>
</g>
</svg>
