<?xml version="1.0" encoding="UTF-8" standalone="no"?>
<!DOCTYPE svg PUBLIC "-//W3C//DTD SVG 1.1//EN"
 "http://www.w3.org/Graphics/SVG/1.1/DTD/svg11.dtd">
<!-- Generated by graphviz version 2.43.0 (0)
 -->
<!-- Title: %3 Pages: 1 -->
<svg width="653pt" height="666pt"
 viewBox="0.00 0.00 652.53 666.00" xmlns="http://www.w3.org/2000/svg" xmlns:xlink="http://www.w3.org/1999/xlink">
<g id="graph0" class="graph" transform="scale(1 1) rotate(0) translate(4 662)">
<title>%3</title>
<polygon fill="white" stroke="transparent" points="-4,4 -4,-662 648.53,-662 648.53,4 -4,4"/>
<text text-anchor="middle" x="322.27" y="-630" font-family="Times,serif" font-size="30.00">Dependencies</text>
<text text-anchor="middle" x="322.27" y="-597" font-family="Times,serif" font-size="30.00"> </text>
<!-- :data:coverart -->
<g id="node1" class="node">
<title>:data:coverart</title>
<polygon fill="#b59aff" stroke="black" points="350.64,-584 233.64,-584 233.64,-548 350.64,-548 350.64,-584"/>
<text text-anchor="middle" x="292.14" y="-562.3" font-family="Times,serif" font-size="14.00">:data:coverart</text>
</g>
<!-- :shared:domain -->
<g id="node2" class="node">
<title>:shared:domain</title>
<ellipse fill="#b59aff" stroke="black" cx="254.14" cy="-18" rx="82.59" ry="18"/>
<text text-anchor="middle" x="254.14" y="-14.3" font-family="Times,serif" font-size="14.00">:shared:domain</text>
</g>
<!-- :data:coverart&#45;&gt;:shared:domain -->
<g id="edge1" class="edge">
<title>:data:coverart&#45;&gt;:shared:domain</title>
<path fill="none" stroke="black" stroke-dasharray="1,5" d="M233.37,-575C148.06,-575 0,-575 0,-575 0,-575 0,-18 0,-18 0,-18 161.28,-18 161.28,-18"/>
<polygon fill="black" stroke="black" points="161.28,-21.5 171.28,-18 161.28,-14.5 161.28,-21.5"/>
</g>
<!-- :core:logging:api -->
<g id="node3" class="node">
<title>:core:logging:api</title>
<ellipse fill="#b59aff" stroke="black" cx="556.14" cy="-18" rx="88.28" ry="18"/>
<text text-anchor="middle" x="556.14" y="-14.3" font-family="Times,serif" font-size="14.00">:core:logging:api</text>
</g>
<!-- :data:coverart&#45;&gt;:core:logging:api -->
<g id="edge2" class="edge">
<title>:data:coverart&#45;&gt;:core:logging:api</title>
<path fill="none" stroke="black" stroke-dasharray="1,5" d="M350.73,-572C406.32,-572 481.41,-572 481.41,-572 481.41,-572 481.41,-37.62 481.41,-37.62"/>
<polygon fill="black" stroke="black" points="484.91,-37.62 481.41,-27.62 477.91,-37.62 484.91,-37.62"/>
</g>
<!-- :core:coroutines -->
<g id="node4" class="node">
<title>:core:coroutines</title>
<ellipse fill="#b59aff" stroke="black" cx="103.14" cy="-155" rx="85.29" ry="18"/>
<text text-anchor="middle" x="103.14" y="-151.3" font-family="Times,serif" font-size="14.00">:core:coroutines</text>
</g>
<!-- :data:coverart&#45;&gt;:core:coroutines -->
<g id="edge3" class="edge">
<title>:data:coverart&#45;&gt;:core:coroutines</title>
<path fill="none" stroke="black" stroke-dasharray="1,5" d="M233.63,-566C166.31,-566 64.92,-566 64.92,-566 64.92,-566 64.92,-181.11 64.92,-181.11"/>
<polygon fill="black" stroke="black" points="68.42,-181.11 64.92,-171.11 61.42,-181.11 68.42,-181.11"/>
</g>
<!-- :test&#45;data -->
<g id="node5" class="node">
<title>:test&#45;data</title>
<ellipse fill="#b59aff" stroke="black" cx="292.14" cy="-429" rx="55.49" ry="18"/>
<text text-anchor="middle" x="292.14" y="-425.3" font-family="Times,serif" font-size="14.00">:test&#45;data</text>
</g>
<!-- :data:coverart&#45;&gt;:test&#45;data -->
<g id="edge4" class="edge">
<title>:data:coverart&#45;&gt;:test&#45;data</title>
<path fill="none" stroke="#ff9ab1" stroke-dasharray="1,5" d="M273.73,-547.81C273.73,-547.81 273.73,-455.97 273.73,-455.97"/>
<polygon fill="#ff9ab1" stroke="#ff9ab1" points="277.23,-455.97 273.73,-445.97 270.23,-455.97 277.23,-455.97"/>
</g>
<!-- :data:musicbrainz -->
<g id="node6" class="node">
<title>:data:musicbrainz</title>
<ellipse fill="#b59aff" stroke="black" cx="376.14" cy="-155" rx="93.68" ry="18"/>
<text text-anchor="middle" x="376.14" y="-151.3" font-family="Times,serif" font-size="14.00">:data:musicbrainz</text>
</g>
<!-- :data:coverart&#45;&gt;:data:musicbrainz -->
<g id="edge5" class="edge">
<title>:data:coverart&#45;&gt;:data:musicbrainz</title>
<path fill="none" stroke="#ff9ab1" stroke-dasharray="1,5" d="M350.82,-560C380.45,-560 410.19,-560 410.19,-560 410.19,-560 410.19,-181.89 410.19,-181.89"/>
<polygon fill="#ff9ab1" stroke="#ff9ab1" points="413.69,-181.89 410.19,-171.89 406.69,-181.89 413.69,-181.89"/>
</g>
<!-- :data:database -->
<g id="node7" class="node">
<title>:data:database</title>
<ellipse fill="#b59aff" stroke="black" cx="191.14" cy="-292" rx="79.09" ry="18"/>
<text text-anchor="middle" x="191.14" y="-288.3" font-family="Times,serif" font-size="14.00">:data:database</text>
</g>
<!-- :data:coverart&#45;&gt;:data:database -->
<g id="edge6" class="edge">
<title>:data:coverart&#45;&gt;:data:database</title>
<path fill="none" stroke="#ff9ab1" stroke-dasharray="1,5" d="M233.49,-557C203.3,-557 172.75,-557 172.75,-557 172.75,-557 172.75,-319.8 172.75,-319.8"/>
<polygon fill="#ff9ab1" stroke="#ff9ab1" points="176.25,-319.8 172.75,-309.8 169.25,-319.8 176.25,-319.8"/>
</g>
<!-- :test&#45;data&#45;&gt;:data:coverart -->
<g id="edge11" class="edge">
<title>:test&#45;data&#45;&gt;:data:coverart</title>
<path fill="none" stroke="black" stroke-dasharray="1,5" d="M310.56,-446.07C310.56,-446.07 310.56,-537.84 310.56,-537.84"/>
<polygon fill="black" stroke="black" points="307.06,-537.84 310.56,-547.84 314.06,-537.84 307.06,-537.84"/>
</g>
<!-- :test&#45;data&#45;&gt;:shared:domain -->
<g id="edge7" class="edge">
<title>:test&#45;data&#45;&gt;:shared:domain</title>
<path fill="none" stroke="black" stroke-dasharray="1,5" d="M278.51,-411.34C278.51,-411.34 278.51,-45.59 278.51,-45.59"/>
<polygon fill="black" stroke="black" points="282.01,-45.59 278.51,-35.59 275.01,-45.59 282.01,-45.59"/>
</g>
<!-- :test&#45;data&#45;&gt;:core:coroutines -->
<g id="edge8" class="edge">
<title>:test&#45;data&#45;&gt;:core:coroutines</title>
<path fill="none" stroke="black" stroke-dasharray="1,5" d="M274.47,-411.86C274.47,-351.87 274.47,-155 274.47,-155 274.47,-155 198.31,-155 198.31,-155"/>
<polygon fill="black" stroke="black" points="198.31,-151.5 188.31,-155 198.31,-158.5 198.31,-151.5"/>
</g>
<!-- :test&#45;data&#45;&gt;:data:musicbrainz -->
<g id="edge10" class="edge">
<title>:test&#45;data&#45;&gt;:data:musicbrainz</title>
<path fill="none" stroke="black" stroke-dasharray="1,5" d="M325.78,-414.65C325.78,-414.65 325.78,-180.21 325.78,-180.21"/>
<polygon fill="black" stroke="black" points="329.28,-180.21 325.78,-170.21 322.28,-180.21 329.28,-180.21"/>
</g>
<!-- :test&#45;data&#45;&gt;:data:database -->
<g id="edge9" class="edge">
<title>:test&#45;data&#45;&gt;:data:database</title>
<path fill="none" stroke="black" stroke-dasharray="1,5" d="M253.67,-415.86C253.67,-415.86 253.67,-313.34 253.67,-313.34"/>
<polygon fill="black" stroke="black" points="257.17,-313.34 253.67,-303.34 250.17,-313.34 257.17,-313.34"/>
</g>
<!-- :data:spotify -->
<g id="node8" class="node">
<title>:data:spotify</title>
<ellipse fill="#b59aff" stroke="black" cx="556.14" cy="-155" rx="68.79" ry="18"/>
<text text-anchor="middle" x="556.14" y="-151.3" font-family="Times,serif" font-size="14.00">:data:spotify</text>
</g>
<!-- :test&#45;data&#45;&gt;:data:spotify -->
<g id="edge12" class="edge">
<title>:test&#45;data&#45;&gt;:data:spotify</title>
<path fill="none" stroke="black" stroke-dasharray="1,5" d="M347.49,-429C424.9,-429 556.14,-429 556.14,-429 556.14,-429 556.14,-183.4 556.14,-183.4"/>
<polygon fill="black" stroke="black" points="559.64,-183.4 556.14,-173.4 552.64,-183.4 559.64,-183.4"/>
</g>
<!-- :data:musicbrainz&#45;&gt;:shared:domain -->
<g id="edge13" class="edge">
<title>:data:musicbrainz&#45;&gt;:shared:domain</title>
<path fill="none" stroke="black" stroke-dasharray="1,5" d="M300.6,-144.25C300.6,-144.25 300.6,-43.18 300.6,-43.18"/>
<polygon fill="black" stroke="black" points="304.1,-43.18 300.6,-33.18 297.1,-43.18 304.1,-43.18"/>
</g>
<!-- :data:musicbrainz&#45;&gt;:core:logging:api -->
<g id="edge14" class="edge">
<title>:data:musicbrainz&#45;&gt;:core:logging:api</title>
<path fill="none" stroke="black" stroke-dasharray="1,5" d="M469.94,-155C473.5,-155 475.57,-155 475.57,-155 475.57,-155 475.57,-35.76 475.57,-35.76"/>
<polygon fill="black" stroke="black" points="479.07,-35.76 475.57,-25.76 472.07,-35.76 479.07,-35.76"/>
</g>
<!-- :data:database&#45;&gt;:shared:domain -->
<g id="edge15" class="edge">
<title>:data:database&#45;&gt;:shared:domain</title>
<path fill="none" stroke="black" stroke-dasharray="1,5" d="M229.36,-276.08C229.36,-276.08 229.36,-45.36 229.36,-45.36"/>
<polygon fill="black" stroke="black" points="232.86,-45.36 229.36,-35.36 225.86,-45.36 232.86,-45.36"/>
</g>
<!-- :data:database&#45;&gt;:core:coroutines -->
<g id="edge16" class="edge">
<title>:data:database&#45;&gt;:core:coroutines</title>
<path fill="none" stroke="black" stroke-dasharray="1,5" d="M150.07,-276.55C150.07,-276.55 150.07,-180.18 150.07,-180.18"/>
<polygon fill="black" stroke="black" points="153.57,-180.18 150.07,-170.18 146.57,-180.18 153.57,-180.18"/>
</g>
<!-- :data:database&#45;&gt;:data:musicbrainz -->
<g id="edge17" class="edge">
<title>:data:database&#45;&gt;:data:musicbrainz</title>
<path fill="none" stroke="black" stroke-dasharray="1,5" d="M270.56,-292C289.41,-292 304.16,-292 304.16,-292 304.16,-292 304.16,-176.68 304.16,-176.68"/>
<polygon fill="black" stroke="black" points="307.66,-176.68 304.16,-166.68 300.66,-176.68 307.66,-176.68"/>
</g>
<!-- :data:spotify&#45;&gt;:shared:domain -->
<g id="edge18" class="edge">
<title>:data:spotify&#45;&gt;:shared:domain</title>
<path fill="none" stroke="black" stroke-dasharray="1,5" d="M533.18,-137.94C533.18,-117.51 533.18,-86 533.18,-86 533.18,-86 318.64,-86 318.64,-86 318.64,-86 318.64,-39.54 318.64,-39.54"/>
<polygon fill="black" stroke="black" points="322.14,-39.54 318.64,-29.54 315.14,-39.54 322.14,-39.54"/>
</g>
<!-- :data:spotify&#45;&gt;:core:logging:api -->
<g id="edge19" class="edge">
<title>:data:spotify&#45;&gt;:core:logging:api</title>
<path fill="none" stroke="black" stroke-dasharray="1,5" d="M579.11,-137.93C579.11,-137.93 579.11,-45.72 579.11,-45.72"/>
<polygon fill="black" stroke="black" points="582.61,-45.72 579.11,-35.72 575.61,-45.72 582.61,-45.72"/>
</g>
</g>
</svg>
