<?xml version="1.0" encoding="UTF-8" standalone="no"?>
<!DOCTYPE svg PUBLIC "-//W3C//DTD SVG 1.1//EN"
 "http://www.w3.org/Graphics/SVG/1.1/DTD/svg11.dtd">
<!-- Generated by graphviz version 2.43.0 (0)
 -->
<!-- Title: %3 Pages: 1 -->
<svg width="342pt" height="255pt"
 viewBox="0.00 0.00 341.94 255.00" xmlns="http://www.w3.org/2000/svg" xmlns:xlink="http://www.w3.org/1999/xlink">
<g id="graph0" class="graph" transform="scale(1 1) rotate(0) translate(4 251)">
<title>%3</title>
<polygon fill="white" stroke="transparent" points="-4,4 -4,-251 337.94,-251 337.94,4 -4,4"/>
<text text-anchor="middle" x="166.97" y="-219" font-family="Times,serif" font-size="30.00">Dependencies</text>
<text text-anchor="middle" x="166.97" y="-186" font-family="Times,serif" font-size="30.00"> </text>
<!-- :data:spotify -->
<g id="node1" class="node">
<title>:data:spotify</title>
<polygon fill="#b59aff" stroke="black" points="229.39,-173 123.39,-173 123.39,-137 229.39,-137 229.39,-173"/>
<text text-anchor="middle" x="176.39" y="-151.3" font-family="Times,serif" font-size="14.00">:data:spotify</text>
</g>
<!-- :core:logging:api -->
<g id="node2" class="node">
<title>:core:logging:api</title>
<ellipse fill="#b59aff" stroke="black" cx="88.39" cy="-18" rx="88.28" ry="18"/>
<text text-anchor="middle" x="88.39" y="-14.3" font-family="Times,serif" font-size="14.00">:core:logging:api</text>
</g>
<!-- :data:spotify&#45;&gt;:core:logging:api -->
<g id="edge1" class="edge">
<title>:data:spotify&#45;&gt;:core:logging:api</title>
<path fill="none" stroke="black" stroke-dasharray="1,5" d="M150.09,-136.81C150.09,-136.81 150.09,-40.94 150.09,-40.94"/>
<polygon fill="black" stroke="black" points="153.59,-40.94 150.09,-30.94 146.59,-40.94 153.59,-40.94"/>
</g>
<!-- :core:models -->
<g id="node3" class="node">
<title>:core:models</title>
<ellipse fill="#b59aff" stroke="black" cx="264.39" cy="-18" rx="69.59" ry="18"/>
<text text-anchor="middle" x="264.39" y="-14.3" font-family="Times,serif" font-size="14.00">:core:models</text>
</g>
<!-- :data:spotify&#45;&gt;:core:models -->
<g id="edge2" class="edge">
<title>:data:spotify&#45;&gt;:core:models</title>
<path fill="none" stroke="black" stroke-dasharray="1,5" d="M212.12,-136.81C212.12,-136.81 212.12,-40.19 212.12,-40.19"/>
<polygon fill="black" stroke="black" points="215.62,-40.19 212.12,-30.19 208.62,-40.19 215.62,-40.19"/>
</g>
</g>
</svg>
