<?xml version="1.0" encoding="UTF-8" standalone="no"?>
<!DOCTYPE svg PUBLIC "-//W3C//DTD SVG 1.1//EN"
 "http://www.w3.org/Graphics/SVG/1.1/DTD/svg11.dtd">
<!-- Generated by graphviz version 11.0.0 (20240428.1522)
 -->
<!-- Pages: 1 -->
<svg width="368pt" height="257pt"
 viewBox="0.00 0.00 368.00 256.50" xmlns="http://www.w3.org/2000/svg" xmlns:xlink="http://www.w3.org/1999/xlink">
<g id="graph0" class="graph" transform="scale(1 1) rotate(0) translate(4 252.5)">
<polygon fill="white" stroke="none" points="-4,4 -4,-252.5 364,-252.5 364,4 -4,4"/>
<text text-anchor="middle" x="180" y="-216" font-family="Times,serif" font-size="30.00">spotify</text>
<text text-anchor="middle" x="180" y="-182.25" font-family="Times,serif" font-size="30.00"> </text>
<!-- :data:spotify -->
<g id="node1" class="node">
<title>:data:spotify</title>
<polygon fill="#b59aff" stroke="black" points="360,-173 0,-173 0,-137 360,-137 360,-173"/>
<text text-anchor="middle" x="180" y="-149.95" font-family="Times,serif" font-size="14.00">:data:spotify</text>
</g>
<!-- :core:logging:api -->
<g id="node2" class="node">
<title>:core:logging:api</title>
<ellipse fill="#b59aff" stroke="black" cx="105" cy="-18" rx="73.87" ry="18"/>
<text text-anchor="middle" x="105" y="-12.95" font-family="Times,serif" font-size="14.00">:core:logging:api</text>
</g>
<!-- :data:spotify&#45;&gt;:core:logging:api -->
<g id="edge1" class="edge">
<title>:data:spotify&#45;&gt;:core:logging:api</title>
<path fill="none" stroke="black" stroke-dasharray="1,5" d="M105,-136.52C105,-136.52 105,-47.7 105,-47.7"/>
<polygon fill="black" stroke="black" points="108.5,-47.7 105,-37.7 101.5,-47.7 108.5,-47.7"/>
</g>
<!-- :core:models -->
<g id="node3" class="node">
<title>:core:models</title>
<ellipse fill="#b59aff" stroke="black" cx="256" cy="-18" rx="59.03" ry="18"/>
<text text-anchor="middle" x="256" y="-12.95" font-family="Times,serif" font-size="14.00">:core:models</text>
</g>
<!-- :data:spotify&#45;&gt;:core:models -->
<g id="edge2" class="edge">
<title>:data:spotify&#45;&gt;:core:models</title>
<path fill="none" stroke="black" stroke-dasharray="1,5" d="M256,-136.52C256,-136.52 256,-47.7 256,-47.7"/>
<polygon fill="black" stroke="black" points="259.5,-47.7 256,-37.7 252.5,-47.7 259.5,-47.7"/>
</g>
</g>
</svg>
