<?xml version="1.0" encoding="UTF-8" standalone="no"?>
<!DOCTYPE svg PUBLIC "-//W3C//DTD SVG 1.1//EN"
 "http://www.w3.org/Graphics/SVG/1.1/DTD/svg11.dtd">
<!-- Generated by graphviz version 14.1.2 (0)
 -->
<!-- Pages: 1 -->
<svg width="332pt" height="178pt"
 viewBox="0.00 0.00 332.00 178.00" xmlns="http://www.w3.org/2000/svg" xmlns:xlink="http://www.w3.org/1999/xlink">
<g id="graph0" class="graph" transform="scale(1 1) rotate(0) translate(4 174)">
<polygon fill="white" stroke="none" points="-4,4 -4,-174 328.45,-174 328.45,4 -4,4"/>
<text xml:space="preserve" text-anchor="middle" x="162.22" y="-137.5" font-family="Times,serif" font-size="30.00">Dependents</text>
<text xml:space="preserve" text-anchor="middle" x="162.22" y="-101.5" font-family="Times,serif" font-size="30.00"> </text>
<!-- :data:spotify -->
<g id="node1" class="node">
<title>:data:spotify</title>
<polygon fill="#b59aff" stroke="black" points="105.25,-63 0,-63 0,-27 105.25,-27 105.25,-63"/>
<text xml:space="preserve" text-anchor="middle" x="52.62" y="-40.33" font-family="Times,serif" font-size="14.00">:data:spotify</text>
</g>
<!-- :shared -->
<g id="node2" class="node">
<title>:shared</title>
<ellipse fill="#b59aff" stroke="black" cx="265.35" cy="-72" rx="48.58" ry="18"/>
<text xml:space="preserve" text-anchor="middle" x="265.35" y="-67.33" font-family="Times,serif" font-size="14.00">:shared</text>
</g>
<!-- :shared&#45;&gt;:data:spotify -->
<g id="edge1" class="edge">
<title>:shared&#45;&gt;:data:spotify</title>
<path fill="none" stroke="black" stroke-dasharray="1,5" d="M232.11,-58.5C232.11,-58.5 117,-58.5 117,-58.5"/>
<polygon fill="black" stroke="black" points="117,-55 107,-58.5 117,-62 117,-55"/>
</g>
<!-- :test&#45;data -->
<g id="node3" class="node">
<title>:test&#45;data</title>
<ellipse fill="#b59aff" stroke="black" cx="265.35" cy="-18" rx="59.1" ry="18"/>
<text xml:space="preserve" text-anchor="middle" x="265.35" y="-13.32" font-family="Times,serif" font-size="14.00">:test&#45;data</text>
</g>
<!-- :test&#45;data&#45;&gt;:data:spotify -->
<g id="edge2" class="edge">
<title>:test&#45;data&#45;&gt;:data:spotify</title>
<path fill="none" stroke="black" stroke-dasharray="1,5" d="M224.84,-31.5C224.84,-31.5 116.99,-31.5 116.99,-31.5"/>
<polygon fill="black" stroke="black" points="116.99,-28 106.99,-31.5 116.99,-35 116.99,-28"/>
</g>
</g>
</svg>
