<?xml version="1.0" encoding="UTF-8" standalone="no"?>
<!DOCTYPE svg PUBLIC "-//W3C//DTD SVG 1.1//EN"
 "http://www.w3.org/Graphics/SVG/1.1/DTD/svg11.dtd">
<!-- Generated by graphviz version 2.43.0 (0)
 -->
<!-- Title: %3 Pages: 1 -->
<svg width="479pt" height="226pt"
 viewBox="0.00 0.00 479.47 226.00" xmlns="http://www.w3.org/2000/svg" xmlns:xlink="http://www.w3.org/1999/xlink">
<g id="graph0" class="graph" transform="scale(1 1) rotate(0) translate(4 222)">
<title>%3</title>
<polygon fill="white" stroke="transparent" points="-4,4 -4,-222 475.47,-222 475.47,4 -4,4"/>
<text text-anchor="middle" x="235.73" y="-190" font-family="Times,serif" font-size="30.00">Dependents</text>
<text text-anchor="middle" x="235.73" y="-157" font-family="Times,serif" font-size="30.00"> </text>
<!-- :data:spotify -->
<g id="node1" class="node">
<title>:data:spotify</title>
<ellipse fill="#b59aff" stroke="black" cx="68.89" cy="-72" rx="68.79" ry="18"/>
<text text-anchor="middle" x="68.89" y="-68.3" font-family="Times,serif" font-size="14.00">:data:spotify</text>
</g>
<!-- :shared -->
<g id="node2" class="node">
<title>:shared</title>
<ellipse fill="#b59aff" stroke="black" cx="355.13" cy="-126" rx="45.49" ry="18"/>
<text text-anchor="middle" x="355.13" y="-122.3" font-family="Times,serif" font-size="14.00">:shared</text>
</g>
<!-- :shared&#45;&gt;:data:spotify -->
<g id="edge1" class="edge">
<title>:shared&#45;&gt;:data:spotify</title>
<path fill="none" stroke="black" stroke-dasharray="1,5" d="M309.63,-126C228.67,-126 68,-126 68,-126 68,-126 68,-100.28 68,-100.28"/>
<polygon fill="black" stroke="black" points="71.5,-100.28 68,-90.28 64.5,-100.28 71.5,-100.28"/>
</g>
<!-- :test&#45;data -->
<g id="node3" class="node">
<title>:test&#45;data</title>
<ellipse fill="#b59aff" stroke="black" cx="355.13" cy="-72" rx="55.49" ry="18"/>
<text text-anchor="middle" x="355.13" y="-68.3" font-family="Times,serif" font-size="14.00">:test&#45;data</text>
</g>
<!-- :test&#45;data&#45;&gt;:data:spotify -->
<g id="edge2" class="edge">
<title>:test&#45;data&#45;&gt;:data:spotify</title>
<path fill="none" stroke="black" stroke-dasharray="1,5" d="M302.96,-78C302.96,-78 144.02,-78 144.02,-78"/>
<polygon fill="black" stroke="black" points="144.02,-74.5 134.02,-78 144.02,-81.5 144.02,-74.5"/>
</g>
<!-- :shared:feature:details -->
<g id="node4" class="node">
<title>:shared:feature:details</title>
<ellipse fill="#b59aff" stroke="black" cx="355.13" cy="-18" rx="116.18" ry="18"/>
<text text-anchor="middle" x="355.13" y="-14.3" font-family="Times,serif" font-size="14.00">:shared:feature:details</text>
</g>
<!-- :shared:feature:details&#45;&gt;:data:spotify -->
<g id="edge3" class="edge">
<title>:shared:feature:details&#45;&gt;:data:spotify</title>
<path fill="none" stroke="black" stroke-dasharray="1,5" d="M269,-30.11C269,-44.33 269,-66 269,-66 269,-66 143.86,-66 143.86,-66"/>
<polygon fill="black" stroke="black" points="143.86,-62.5 133.86,-66 143.86,-69.5 143.86,-62.5"/>
</g>
</g>
</svg>
