<?xml version="1.0" encoding="UTF-8" standalone="no"?>
<!DOCTYPE svg PUBLIC "-//W3C//DTD SVG 1.1//EN"
 "http://www.w3.org/Graphics/SVG/1.1/DTD/svg11.dtd">
<!-- Generated by graphviz version 2.43.0 (0)
 -->
<!-- Title: %3 Pages: 1 -->
<svg width="448pt" height="226pt"
 viewBox="0.00 0.00 447.68 226.00" xmlns="http://www.w3.org/2000/svg" xmlns:xlink="http://www.w3.org/1999/xlink">
<g id="graph0" class="graph" transform="scale(1 1) rotate(0) translate(4 222)">
<title>%3</title>
<polygon fill="white" stroke="transparent" points="-4,4 -4,-222 443.68,-222 443.68,4 -4,4"/>
<text text-anchor="middle" x="219.84" y="-190" font-family="Times,serif" font-size="30.00">Dependents</text>
<text text-anchor="middle" x="219.84" y="-157" font-family="Times,serif" font-size="30.00"> </text>
<!-- :data:spotify -->
<g id="node1" class="node">
<title>:data:spotify</title>
<polygon fill="#b59aff" stroke="black" points="106,-90 0,-90 0,-54 106,-54 106,-90"/>
<text text-anchor="middle" x="53" y="-68.3" font-family="Times,serif" font-size="14.00">:data:spotify</text>
</g>
<!-- :shared -->
<g id="node2" class="node">
<title>:shared</title>
<ellipse fill="#b59aff" stroke="black" cx="323.34" cy="-126" rx="45.49" ry="18"/>
<text text-anchor="middle" x="323.34" y="-122.3" font-family="Times,serif" font-size="14.00">:shared</text>
</g>
<!-- :shared&#45;&gt;:data:spotify -->
<g id="edge1" class="edge">
<title>:shared&#45;&gt;:data:spotify</title>
<path fill="none" stroke="black" stroke-dasharray="1,5" d="M277.62,-126C200.29,-126 52,-126 52,-126 52,-126 52,-100.28 52,-100.28"/>
<polygon fill="black" stroke="black" points="55.5,-100.28 52,-90.28 48.5,-100.28 55.5,-100.28"/>
</g>
<!-- :test&#45;data -->
<g id="node3" class="node">
<title>:test&#45;data</title>
<ellipse fill="#b59aff" stroke="black" cx="323.34" cy="-72" rx="55.49" ry="18"/>
<text text-anchor="middle" x="323.34" y="-68.3" font-family="Times,serif" font-size="14.00">:test&#45;data</text>
</g>
<!-- :test&#45;data&#45;&gt;:data:spotify -->
<g id="edge2" class="edge">
<title>:test&#45;data&#45;&gt;:data:spotify</title>
<path fill="none" stroke="black" stroke-dasharray="1,5" d="M271.22,-78C271.22,-78 116.35,-78 116.35,-78"/>
<polygon fill="black" stroke="black" points="116.35,-74.5 106.35,-78 116.35,-81.5 116.35,-74.5"/>
</g>
<!-- :shared:feature:details -->
<g id="node4" class="node">
<title>:shared:feature:details</title>
<ellipse fill="#b59aff" stroke="black" cx="323.34" cy="-18" rx="116.18" ry="18"/>
<text text-anchor="middle" x="323.34" y="-14.3" font-family="Times,serif" font-size="14.00">:shared:feature:details</text>
</g>
<!-- :shared:feature:details&#45;&gt;:data:spotify -->
<g id="edge3" class="edge">
<title>:shared:feature:details&#45;&gt;:data:spotify</title>
<path fill="none" stroke="black" stroke-dasharray="1,5" d="M237,-30.11C237,-44.33 237,-66 237,-66 237,-66 116.22,-66 116.22,-66"/>
<polygon fill="black" stroke="black" points="116.22,-62.5 106.22,-66 116.22,-69.5 116.22,-62.5"/>
</g>
</g>
</svg>
