<?xml version="1.0" encoding="UTF-8" standalone="no"?>
<!DOCTYPE svg PUBLIC "-//W3C//DTD SVG 1.1//EN"
 "http://www.w3.org/Graphics/SVG/1.1/DTD/svg11.dtd">
<!-- Generated by graphviz version 2.43.0 (0)
 -->
<!-- Title: %3 Pages: 1 -->
<svg width="489pt" height="666pt"
 viewBox="0.00 0.00 488.93 666.00" xmlns="http://www.w3.org/2000/svg" xmlns:xlink="http://www.w3.org/1999/xlink">
<g id="graph0" class="graph" transform="scale(1 1) rotate(0) translate(4 662)">
<title>%3</title>
<polygon fill="white" stroke="transparent" points="-4,4 -4,-662 484.93,-662 484.93,4 -4,4"/>
<text text-anchor="middle" x="240.47" y="-630" font-family="Times,serif" font-size="30.00">Dependencies</text>
<text text-anchor="middle" x="240.47" y="-597" font-family="Times,serif" font-size="30.00"> </text>
<!-- :data:spotify -->
<g id="node1" class="node">
<title>:data:spotify</title>
<polygon fill="#b59aff" stroke="black" points="257.54,-584 151.54,-584 151.54,-548 257.54,-548 257.54,-584"/>
<text text-anchor="middle" x="204.54" y="-562.3" font-family="Times,serif" font-size="14.00">:data:spotify</text>
</g>
<!-- :shared:domain -->
<g id="node2" class="node">
<title>:shared:domain</title>
<ellipse fill="#b59aff" stroke="black" cx="82.54" cy="-18" rx="82.59" ry="18"/>
<text text-anchor="middle" x="82.54" y="-14.3" font-family="Times,serif" font-size="14.00">:shared:domain</text>
</g>
<!-- :data:spotify&#45;&gt;:shared:domain -->
<g id="edge1" class="edge">
<title>:data:spotify&#45;&gt;:shared:domain</title>
<path fill="none" stroke="black" stroke-dasharray="1,5" d="M151.37,-566C98.14,-566 24.08,-566 24.08,-566 24.08,-566 24.08,-40.74 24.08,-40.74"/>
<polygon fill="black" stroke="black" points="27.58,-40.74 24.08,-30.74 20.58,-40.74 27.58,-40.74"/>
</g>
<!-- :core:logging:api -->
<g id="node3" class="node">
<title>:core:logging:api</title>
<ellipse fill="#b59aff" stroke="black" cx="392.54" cy="-18" rx="88.28" ry="18"/>
<text text-anchor="middle" x="392.54" y="-14.3" font-family="Times,serif" font-size="14.00">:core:logging:api</text>
</g>
<!-- :data:spotify&#45;&gt;:core:logging:api -->
<g id="edge2" class="edge">
<title>:data:spotify&#45;&gt;:core:logging:api</title>
<path fill="none" stroke="black" stroke-dasharray="1,5" d="M257.83,-566C285,-566 312.38,-566 312.38,-566 312.38,-566 312.38,-35.75 312.38,-35.75"/>
<polygon fill="black" stroke="black" points="315.88,-35.75 312.38,-25.75 308.88,-35.75 315.88,-35.75"/>
</g>
<!-- :test&#45;data -->
<g id="node4" class="node">
<title>:test&#45;data</title>
<ellipse fill="#b59aff" stroke="black" cx="204.54" cy="-429" rx="55.49" ry="18"/>
<text text-anchor="middle" x="204.54" y="-425.3" font-family="Times,serif" font-size="14.00">:test&#45;data</text>
</g>
<!-- :data:spotify&#45;&gt;:test&#45;data -->
<g id="edge3" class="edge">
<title>:data:spotify&#45;&gt;:test&#45;data</title>
<path fill="none" stroke="#ff9ab1" stroke-dasharray="1,5" d="M186.88,-547.81C186.88,-547.81 186.88,-456.4 186.88,-456.4"/>
<polygon fill="#ff9ab1" stroke="#ff9ab1" points="190.38,-456.4 186.88,-446.4 183.38,-456.4 190.38,-456.4"/>
</g>
<!-- :test&#45;data&#45;&gt;:data:spotify -->
<g id="edge8" class="edge">
<title>:test&#45;data&#45;&gt;:data:spotify</title>
<path fill="none" stroke="black" stroke-dasharray="1,5" d="M222.21,-446.07C222.21,-446.07 222.21,-537.84 222.21,-537.84"/>
<polygon fill="black" stroke="black" points="218.71,-537.84 222.21,-547.84 225.71,-537.84 218.71,-537.84"/>
</g>
<!-- :test&#45;data&#45;&gt;:shared:domain -->
<g id="edge4" class="edge">
<title>:test&#45;data&#45;&gt;:shared:domain</title>
<path fill="none" stroke="black" stroke-dasharray="1,5" d="M148.97,-429C104.02,-429 48.17,-429 48.17,-429 48.17,-429 48.17,-44.37 48.17,-44.37"/>
<polygon fill="black" stroke="black" points="51.67,-44.37 48.17,-34.37 44.67,-44.37 51.67,-44.37"/>
</g>
<!-- :data:database -->
<g id="node5" class="node">
<title>:data:database</title>
<ellipse fill="#b59aff" stroke="black" cx="151.54" cy="-292" rx="79.09" ry="18"/>
<text text-anchor="middle" x="151.54" y="-288.3" font-family="Times,serif" font-size="14.00">:data:database</text>
</g>
<!-- :test&#45;data&#45;&gt;:data:database -->
<g id="edge5" class="edge">
<title>:test&#45;data&#45;&gt;:data:database</title>
<path fill="none" stroke="black" stroke-dasharray="1,5" d="M190.07,-411.37C190.07,-411.37 190.07,-317.86 190.07,-317.86"/>
<polygon fill="black" stroke="black" points="193.57,-317.86 190.07,-307.86 186.57,-317.86 193.57,-317.86"/>
</g>
<!-- :data:musicbrainz -->
<g id="node6" class="node">
<title>:data:musicbrainz</title>
<ellipse fill="#b59aff" stroke="black" cx="204.54" cy="-155" rx="93.68" ry="18"/>
<text text-anchor="middle" x="204.54" y="-151.3" font-family="Times,serif" font-size="14.00">:data:musicbrainz</text>
</g>
<!-- :test&#45;data&#45;&gt;:data:musicbrainz -->
<g id="edge6" class="edge">
<title>:test&#45;data&#45;&gt;:data:musicbrainz</title>
<path fill="none" stroke="black" stroke-dasharray="1,5" d="M245.31,-416.51C245.31,-416.51 245.31,-181.23 245.31,-181.23"/>
<polygon fill="black" stroke="black" points="248.81,-181.23 245.31,-171.23 241.81,-181.23 248.81,-181.23"/>
</g>
<!-- :data:coverart -->
<g id="node7" class="node">
<title>:data:coverart</title>
<ellipse fill="#b59aff" stroke="black" cx="392.54" cy="-155" rx="76.09" ry="18"/>
<text text-anchor="middle" x="392.54" y="-151.3" font-family="Times,serif" font-size="14.00">:data:coverart</text>
</g>
<!-- :test&#45;data&#45;&gt;:data:coverart -->
<g id="edge7" class="edge">
<title>:test&#45;data&#45;&gt;:data:coverart</title>
<path fill="none" stroke="black" stroke-dasharray="1,5" d="M259.93,-429C315.39,-429 392.54,-429 392.54,-429 392.54,-429 392.54,-183.4 392.54,-183.4"/>
<polygon fill="black" stroke="black" points="396.04,-183.4 392.54,-173.4 389.04,-183.4 396.04,-183.4"/>
</g>
<!-- :data:database&#45;&gt;:shared:domain -->
<g id="edge9" class="edge">
<title>:data:database&#45;&gt;:shared:domain</title>
<path fill="none" stroke="black" stroke-dasharray="1,5" d="M91.6,-279.87C91.6,-279.87 91.6,-46.11 91.6,-46.11"/>
<polygon fill="black" stroke="black" points="95.1,-46.11 91.6,-36.11 88.1,-46.11 95.1,-46.11"/>
</g>
<!-- :data:database&#45;&gt;:data:musicbrainz -->
<g id="edge10" class="edge">
<title>:data:database&#45;&gt;:data:musicbrainz</title>
<path fill="none" stroke="black" stroke-dasharray="1,5" d="M170.89,-274.37C170.89,-274.37 170.89,-182.13 170.89,-182.13"/>
<polygon fill="black" stroke="black" points="174.39,-182.13 170.89,-172.13 167.39,-182.13 174.39,-182.13"/>
</g>
<!-- :data:musicbrainz&#45;&gt;:shared:domain -->
<g id="edge11" class="edge">
<title>:data:musicbrainz&#45;&gt;:shared:domain</title>
<path fill="none" stroke="black" stroke-dasharray="1,5" d="M129,-144.25C129,-144.25 129,-43.18 129,-43.18"/>
<polygon fill="black" stroke="black" points="132.5,-43.18 129,-33.18 125.5,-43.18 132.5,-43.18"/>
</g>
<!-- :data:musicbrainz&#45;&gt;:core:logging:api -->
<g id="edge12" class="edge">
<title>:data:musicbrainz&#45;&gt;:core:logging:api</title>
<path fill="none" stroke="black" stroke-dasharray="1,5" d="M298.32,-155C304.47,-155 308.27,-155 308.27,-155 308.27,-155 308.27,-33.54 308.27,-33.54"/>
<polygon fill="black" stroke="black" points="311.77,-33.54 308.27,-23.54 304.77,-33.54 311.77,-33.54"/>
</g>
<!-- :data:coverart&#45;&gt;:shared:domain -->
<g id="edge13" class="edge">
<title>:data:coverart&#45;&gt;:shared:domain</title>
<path fill="none" stroke="black" stroke-dasharray="1,5" d="M367.19,-137.94C367.19,-117.51 367.19,-86 367.19,-86 367.19,-86 147.04,-86 147.04,-86 147.04,-86 147.04,-39.54 147.04,-39.54"/>
<polygon fill="black" stroke="black" points="150.54,-39.54 147.04,-29.54 143.54,-39.54 150.54,-39.54"/>
</g>
<!-- :data:coverart&#45;&gt;:core:logging:api -->
<g id="edge14" class="edge">
<title>:data:coverart&#45;&gt;:core:logging:api</title>
<path fill="none" stroke="black" stroke-dasharray="1,5" d="M417.89,-137.93C417.89,-137.93 417.89,-45.29 417.89,-45.29"/>
<polygon fill="black" stroke="black" points="421.39,-45.29 417.89,-35.29 414.39,-45.29 421.39,-45.29"/>
</g>
</g>
</svg>
