<?xml version="1.0" encoding="UTF-8" standalone="no"?>
<!DOCTYPE svg PUBLIC "-//W3C//DTD SVG 1.1//EN"
 "http://www.w3.org/Graphics/SVG/1.1/DTD/svg11.dtd">
<!-- Generated by graphviz version 2.43.0 (0)
 -->
<!-- Title: %3 Pages: 1 -->
<svg width="325pt" height="172pt"
 viewBox="0.00 0.00 325.49 172.00" xmlns="http://www.w3.org/2000/svg" xmlns:xlink="http://www.w3.org/1999/xlink">
<g id="graph0" class="graph" transform="scale(1 1) rotate(0) translate(4 168)">
<title>%3</title>
<polygon fill="white" stroke="transparent" points="-4,4 -4,-168 321.49,-168 321.49,4 -4,4"/>
<text text-anchor="middle" x="158.75" y="-136" font-family="Times,serif" font-size="30.00">Dependents</text>
<text text-anchor="middle" x="158.75" y="-103" font-family="Times,serif" font-size="30.00"> </text>
<!-- :data:spotify -->
<g id="node1" class="node">
<title>:data:spotify</title>
<polygon fill="#b59aff" stroke="black" points="106,-63 0,-63 0,-27 106,-27 106,-63"/>
<text text-anchor="middle" x="53" y="-41.3" font-family="Times,serif" font-size="14.00">:data:spotify</text>
</g>
<!-- :shared -->
<g id="node2" class="node">
<title>:shared</title>
<ellipse fill="#b59aff" stroke="black" cx="262.25" cy="-72" rx="45.49" ry="18"/>
<text text-anchor="middle" x="262.25" y="-68.3" font-family="Times,serif" font-size="14.00">:shared</text>
</g>
<!-- :shared&#45;&gt;:data:spotify -->
<g id="edge1" class="edge">
<title>:shared&#45;&gt;:data:spotify</title>
<path fill="none" stroke="black" stroke-dasharray="1,5" d="M231.82,-58.5C231.82,-58.5 116.16,-58.5 116.16,-58.5"/>
<polygon fill="black" stroke="black" points="116.16,-55 106.16,-58.5 116.16,-62 116.16,-55"/>
</g>
<!-- :test&#45;data -->
<g id="node3" class="node">
<title>:test&#45;data</title>
<ellipse fill="#b59aff" stroke="black" cx="262.25" cy="-18" rx="55.49" ry="18"/>
<text text-anchor="middle" x="262.25" y="-14.3" font-family="Times,serif" font-size="14.00">:test&#45;data</text>
</g>
<!-- :test&#45;data&#45;&gt;:data:spotify -->
<g id="edge2" class="edge">
<title>:test&#45;data&#45;&gt;:data:spotify</title>
<path fill="none" stroke="black" stroke-dasharray="1,5" d="M225.32,-31.5C225.32,-31.5 116.05,-31.5 116.05,-31.5"/>
<polygon fill="black" stroke="black" points="116.05,-28 106.05,-31.5 116.05,-35 116.05,-28"/>
</g>
</g>
</svg>
