<?xml version="1.0" encoding="UTF-8" standalone="no"?>
<!DOCTYPE svg PUBLIC "-//W3C//DTD SVG 1.1//EN"
 "http://www.w3.org/Graphics/SVG/1.1/DTD/svg11.dtd">
<!-- Generated by graphviz version 2.43.0 (0)
 -->
<!-- Title: %3 Pages: 1 -->
<svg width="1020pt" height="1077pt"
 viewBox="0.00 0.00 1019.59 1077.00" xmlns="http://www.w3.org/2000/svg" xmlns:xlink="http://www.w3.org/1999/xlink">
<g id="graph0" class="graph" transform="scale(1 1) rotate(0) translate(4 1073)">
<title>%3</title>
<polygon fill="white" stroke="transparent" points="-4,4 -4,-1073 1015.59,-1073 1015.59,4 -4,4"/>
<text text-anchor="middle" x="505.79" y="-1041" font-family="Times,serif" font-size="30.00">Dependencies</text>
<text text-anchor="middle" x="505.79" y="-1008" font-family="Times,serif" font-size="30.00"> </text>
<!-- :shared:feature:images -->
<g id="node1" class="node">
<title>:shared:feature:images</title>
<polygon fill="#b59aff" stroke="black" points="424.04,-995 242.04,-995 242.04,-959 424.04,-959 424.04,-995"/>
<text text-anchor="middle" x="333.04" y="-973.3" font-family="Times,serif" font-size="14.00">:shared:feature:images</text>
</g>
<!-- :test:image -->
<g id="node2" class="node">
<title>:test:image</title>
<ellipse fill="#9affb5" stroke="black" cx="63.04" cy="-566" rx="63.09" ry="18"/>
<text text-anchor="middle" x="63.04" y="-562.3" font-family="Times,serif" font-size="14.00">:test:image</text>
</g>
<!-- :shared:feature:images&#45;&gt;:test:image -->
<g id="edge1" class="edge">
<title>:shared:feature:images&#45;&gt;:test:image</title>
<path fill="none" stroke="black" stroke-dasharray="1,5" d="M259.81,-958.81C259.81,-879.27 259.81,-566 259.81,-566 259.81,-566 136.12,-566 136.12,-566"/>
<polygon fill="black" stroke="black" points="136.12,-562.5 126.12,-566 136.12,-569.5 136.12,-562.5"/>
</g>
<!-- :test&#45;data -->
<g id="node3" class="node">
<title>:test&#45;data</title>
<ellipse fill="#b59aff" stroke="black" cx="620.04" cy="-703" rx="55.49" ry="18"/>
<text text-anchor="middle" x="620.04" y="-699.3" font-family="Times,serif" font-size="14.00">:test&#45;data</text>
</g>
<!-- :shared:feature:images&#45;&gt;:test&#45;data -->
<g id="edge2" class="edge">
<title>:shared:feature:images&#45;&gt;:test&#45;data</title>
<path fill="none" stroke="#ff9ab1" stroke-dasharray="1,5" d="M410.72,-958.99C410.72,-899.8 410.72,-715 410.72,-715 410.72,-715 568.69,-715 568.69,-715"/>
<polygon fill="#ff9ab1" stroke="#ff9ab1" points="568.69,-718.5 578.69,-715 568.69,-711.5 568.69,-718.5"/>
</g>
<!-- :ui:test:screenshot -->
<g id="node4" class="node">
<title>:ui:test:screenshot</title>
<ellipse fill="#9affb5" stroke="black" cx="125.04" cy="-703" rx="96.68" ry="18"/>
<text text-anchor="middle" x="125.04" y="-699.3" font-family="Times,serif" font-size="14.00">:ui:test:screenshot</text>
</g>
<!-- :shared:feature:images&#45;&gt;:ui:test:screenshot -->
<g id="edge3" class="edge">
<title>:shared:feature:images&#45;&gt;:ui:test:screenshot</title>
<path fill="none" stroke="#ff9ab1" stroke-dasharray="1,5" d="M250.93,-959C250.93,-898.91 250.93,-709 250.93,-709 250.93,-709 226.53,-709 226.53,-709"/>
<polygon fill="#ff9ab1" stroke="#ff9ab1" points="226.53,-705.5 216.53,-709 226.53,-712.5 226.53,-705.5"/>
</g>
<!-- :shared:domain -->
<g id="node5" class="node">
<title>:shared:domain</title>
<ellipse fill="#b59aff" stroke="black" cx="929.04" cy="-155" rx="82.59" ry="18"/>
<text text-anchor="middle" x="929.04" y="-151.3" font-family="Times,serif" font-size="14.00">:shared:domain</text>
</g>
<!-- :shared:feature:images&#45;&gt;:shared:domain -->
<g id="edge4" class="edge">
<title>:shared:feature:images&#45;&gt;:shared:domain</title>
<path fill="none" stroke="black" stroke-dasharray="1,5" d="M424.21,-977C603.83,-977 986.21,-977 986.21,-977 986.21,-977 986.21,-178.24 986.21,-178.24"/>
<polygon fill="black" stroke="black" points="989.71,-178.24 986.21,-168.24 982.71,-178.24 989.71,-178.24"/>
</g>
<!-- :ui:common -->
<g id="node6" class="node">
<title>:ui:common</title>
<ellipse fill="#b59aff" stroke="black" cx="333.04" cy="-840" rx="64.19" ry="18"/>
<text text-anchor="middle" x="333.04" y="-836.3" font-family="Times,serif" font-size="14.00">:ui:common</text>
</g>
<!-- :shared:feature:images&#45;&gt;:ui:common -->
<g id="edge5" class="edge">
<title>:shared:feature:images&#45;&gt;:ui:common</title>
<path fill="none" stroke="black" stroke-dasharray="1,5" d="M333.04,-958.81C333.04,-958.81 333.04,-868.27 333.04,-868.27"/>
<polygon fill="black" stroke="black" points="336.54,-868.27 333.04,-858.27 329.54,-868.27 336.54,-868.27"/>
</g>
<!-- :test&#45;data&#45;&gt;:shared:domain -->
<g id="edge6" class="edge">
<title>:test&#45;data&#45;&gt;:shared:domain</title>
<path fill="none" stroke="black" stroke-dasharray="1,5" d="M675.35,-703C765.81,-703 935.46,-703 935.46,-703 935.46,-703 935.46,-183.23 935.46,-183.23"/>
<polygon fill="black" stroke="black" points="938.96,-183.23 935.46,-173.23 931.96,-183.23 938.96,-183.23"/>
</g>
<!-- :core:coroutines -->
<g id="node7" class="node">
<title>:core:coroutines</title>
<ellipse fill="#b59aff" stroke="black" cx="397.04" cy="-18" rx="85.29" ry="18"/>
<text text-anchor="middle" x="397.04" y="-14.3" font-family="Times,serif" font-size="14.00">:core:coroutines</text>
</g>
<!-- :test&#45;data&#45;&gt;:core:coroutines -->
<g id="edge7" class="edge">
<title>:test&#45;data&#45;&gt;:core:coroutines</title>
<path fill="none" stroke="black" stroke-dasharray="1,5" d="M589.51,-687.66C589.51,-624.14 589.51,-385 589.51,-385 589.51,-385 348.3,-385 348.3,-385 348.3,-385 348.3,-42.84 348.3,-42.84"/>
<polygon fill="black" stroke="black" points="351.8,-42.84 348.3,-32.84 344.8,-42.84 351.8,-42.84"/>
</g>
<!-- :data:database -->
<g id="node8" class="node">
<title>:data:database</title>
<ellipse fill="#b59aff" stroke="black" cx="727.04" cy="-429" rx="79.09" ry="18"/>
<text text-anchor="middle" x="727.04" y="-425.3" font-family="Times,serif" font-size="14.00">:data:database</text>
</g>
<!-- :test&#45;data&#45;&gt;:data:database -->
<g id="edge8" class="edge">
<title>:test&#45;data&#45;&gt;:data:database</title>
<path fill="none" stroke="black" stroke-dasharray="1,5" d="M654.64,-688.65C654.64,-688.65 654.64,-446.81 654.64,-446.81"/>
<polygon fill="black" stroke="black" points="658.14,-446.81 654.64,-436.81 651.14,-446.81 658.14,-446.81"/>
</g>
<!-- :data:musicbrainz -->
<g id="node9" class="node">
<title>:data:musicbrainz</title>
<ellipse fill="#b59aff" stroke="black" cx="750.04" cy="-292" rx="93.68" ry="18"/>
<text text-anchor="middle" x="750.04" y="-288.3" font-family="Times,serif" font-size="14.00">:data:musicbrainz</text>
</g>
<!-- :test&#45;data&#45;&gt;:data:musicbrainz -->
<g id="edge9" class="edge">
<title>:test&#45;data&#45;&gt;:data:musicbrainz</title>
<path fill="none" stroke="black" stroke-dasharray="1,5" d="M644.81,-686.87C644.81,-611.55 644.81,-298 644.81,-298 644.81,-298 651.72,-298 651.72,-298"/>
<polygon fill="black" stroke="black" points="651.72,-301.5 661.72,-298 651.72,-294.5 651.72,-301.5"/>
</g>
<!-- :data:coverart -->
<g id="node10" class="node">
<title>:data:coverart</title>
<ellipse fill="#b59aff" stroke="black" cx="834.04" cy="-566" rx="76.09" ry="18"/>
<text text-anchor="middle" x="834.04" y="-562.3" font-family="Times,serif" font-size="14.00">:data:coverart</text>
</g>
<!-- :test&#45;data&#45;&gt;:data:coverart -->
<g id="edge10" class="edge">
<title>:test&#45;data&#45;&gt;:data:coverart</title>
<path fill="none" stroke="black" stroke-dasharray="1,5" d="M668.4,-694.2C668.4,-665.28 668.4,-575 668.4,-575 668.4,-575 758.1,-575 758.1,-575"/>
<polygon fill="black" stroke="black" points="758.1,-578.5 768.1,-575 758.1,-571.5 758.1,-578.5"/>
</g>
<!-- :data:spotify -->
<g id="node11" class="node">
<title>:data:spotify</title>
<ellipse fill="#b59aff" stroke="black" cx="570.04" cy="-292" rx="68.79" ry="18"/>
<text text-anchor="middle" x="570.04" y="-288.3" font-family="Times,serif" font-size="14.00">:data:spotify</text>
</g>
<!-- :test&#45;data&#45;&gt;:data:spotify -->
<g id="edge11" class="edge">
<title>:test&#45;data&#45;&gt;:data:spotify</title>
<path fill="none" stroke="black" stroke-dasharray="1,5" d="M614.23,-685.08C614.23,-685.08 614.23,-316.06 614.23,-316.06"/>
<polygon fill="black" stroke="black" points="617.73,-316.06 614.23,-306.06 610.73,-316.06 617.73,-316.06"/>
</g>
<!-- :ui:test:screenshot&#45;&gt;:test:image -->
<g id="edge13" class="edge">
<title>:ui:test:screenshot&#45;&gt;:test:image</title>
<path fill="none" stroke="black" stroke-dasharray="1,5" d="M77.15,-687.28C77.15,-687.28 77.15,-593.69 77.15,-593.69"/>
<polygon fill="black" stroke="black" points="80.65,-593.69 77.15,-583.69 73.65,-593.69 80.65,-593.69"/>
</g>
<!-- :ui:core -->
<g id="node12" class="node">
<title>:ui:core</title>
<ellipse fill="#b59aff" stroke="black" cx="379.04" cy="-566" rx="45.49" ry="18"/>
<text text-anchor="middle" x="379.04" y="-562.3" font-family="Times,serif" font-size="14.00">:ui:core</text>
</g>
<!-- :ui:test:screenshot&#45;&gt;:ui:core -->
<g id="edge12" class="edge">
<title>:ui:test:screenshot&#45;&gt;:ui:core</title>
<path fill="none" stroke="black" stroke-dasharray="1,5" d="M197.3,-691C262.92,-691 349.51,-691 349.51,-691 349.51,-691 349.51,-589.85 349.51,-589.85"/>
<polygon fill="black" stroke="black" points="353.01,-589.85 349.51,-579.85 346.01,-589.85 353.01,-589.85"/>
</g>
<!-- :ui:common&#45;&gt;:test&#45;data -->
<g id="edge14" class="edge">
<title>:ui:common&#45;&gt;:test&#45;data</title>
<path fill="none" stroke="#ff9ab1" stroke-dasharray="1,5" d="M381.43,-827.84C381.43,-794.31 381.43,-703 381.43,-703 381.43,-703 554.7,-703 554.7,-703"/>
<polygon fill="#ff9ab1" stroke="#ff9ab1" points="554.7,-706.5 564.7,-703 554.7,-699.5 554.7,-706.5"/>
</g>
<!-- :ui:common&#45;&gt;:ui:test:screenshot -->
<g id="edge15" class="edge">
<title>:ui:common&#45;&gt;:ui:test:screenshot</title>
<path fill="none" stroke="#ff9ab1" stroke-dasharray="1,5" d="M283.1,-828.3C283.1,-794.15 283.1,-697 283.1,-697 283.1,-697 226.53,-697 226.53,-697"/>
<polygon fill="#ff9ab1" stroke="#ff9ab1" points="226.53,-693.5 216.53,-697 226.53,-700.5 226.53,-693.5"/>
</g>
<!-- :ui:common&#45;&gt;:shared:domain -->
<g id="edge17" class="edge">
<title>:ui:common&#45;&gt;:shared:domain</title>
<path fill="none" stroke="black" d="M393.81,-846C551.36,-846 960.84,-846 960.84,-846 960.84,-846 960.84,-181.74 960.84,-181.74"/>
<polygon fill="black" stroke="black" points="964.34,-181.74 960.84,-171.74 957.34,-181.74 964.34,-181.74"/>
</g>
<!-- :ui:common&#45;&gt;:core:coroutines -->
<g id="edge16" class="edge">
<title>:ui:common&#45;&gt;:core:coroutines</title>
<path fill="none" stroke="#ff9ab1" stroke-dasharray="1,5" d="M297.5,-824.67C297.5,-712.15 297.5,-18 297.5,-18 297.5,-18 301.76,-18 301.76,-18"/>
<polygon fill="#ff9ab1" stroke="#ff9ab1" points="301.76,-21.5 311.76,-18 301.76,-14.5 301.76,-21.5"/>
</g>
<!-- :ui:common&#45;&gt;:ui:core -->
<g id="edge18" class="edge">
<title>:ui:common&#45;&gt;:ui:core</title>
<path fill="none" stroke="black" d="M365.47,-824.08C365.47,-824.08 365.47,-593.36 365.47,-593.36"/>
<polygon fill="black" stroke="black" points="368.97,-593.36 365.47,-583.36 361.97,-593.36 368.97,-593.36"/>
</g>
<!-- :core:logging:api -->
<g id="node13" class="node">
<title>:core:logging:api</title>
<ellipse fill="#b59aff" stroke="black" cx="570.04" cy="-155" rx="88.28" ry="18"/>
<text text-anchor="middle" x="570.04" y="-151.3" font-family="Times,serif" font-size="14.00">:core:logging:api</text>
</g>
<!-- :ui:common&#45;&gt;:core:logging:api -->
<g id="edge19" class="edge">
<title>:ui:common&#45;&gt;:core:logging:api</title>
<path fill="none" stroke="black" stroke-dasharray="1,5" d="M393.82,-834C438.47,-834 491.4,-834 491.4,-834 491.4,-834 491.4,-173.59 491.4,-173.59"/>
<polygon fill="black" stroke="black" points="494.9,-173.59 491.4,-163.59 487.9,-173.59 494.9,-173.59"/>
</g>
<!-- :data:database&#45;&gt;:shared:domain -->
<g id="edge20" class="edge">
<title>:data:database&#45;&gt;:shared:domain</title>
<path fill="none" stroke="black" stroke-dasharray="1,5" d="M806.66,-429C843.09,-429 878.29,-429 878.29,-429 878.29,-429 878.29,-179.35 878.29,-179.35"/>
<polygon fill="black" stroke="black" points="881.79,-179.35 878.29,-169.35 874.79,-179.35 881.79,-179.35"/>
</g>
<!-- :data:database&#45;&gt;:core:coroutines -->
<g id="edge21" class="edge">
<title>:data:database&#45;&gt;:core:coroutines</title>
<path fill="none" stroke="black" stroke-dasharray="1,5" d="M650.65,-424.04C650.65,-408.22 650.65,-360 650.65,-360 650.65,-360 380.8,-360 380.8,-360 380.8,-360 380.8,-45.91 380.8,-45.91"/>
<polygon fill="black" stroke="black" points="384.3,-45.91 380.8,-35.91 377.3,-45.91 384.3,-45.91"/>
</g>
<!-- :data:database&#45;&gt;:data:musicbrainz -->
<g id="edge22" class="edge">
<title>:data:database&#45;&gt;:data:musicbrainz</title>
<path fill="none" stroke="black" stroke-dasharray="1,5" d="M731.4,-410.81C731.4,-410.81 731.4,-319.83 731.4,-319.83"/>
<polygon fill="black" stroke="black" points="734.9,-319.83 731.4,-309.83 727.9,-319.83 734.9,-319.83"/>
</g>
<!-- :data:musicbrainz&#45;&gt;:shared:domain -->
<g id="edge23" class="edge">
<title>:data:musicbrainz&#45;&gt;:shared:domain</title>
<path fill="none" stroke="black" stroke-dasharray="1,5" d="M843.89,-292C857.87,-292 867.7,-292 867.7,-292 867.7,-292 867.7,-177.16 867.7,-177.16"/>
<polygon fill="black" stroke="black" points="871.2,-177.16 867.7,-167.16 864.2,-177.16 871.2,-177.16"/>
</g>
<!-- :data:musicbrainz&#45;&gt;:core:logging:api -->
<g id="edge24" class="edge">
<title>:data:musicbrainz&#45;&gt;:core:logging:api</title>
<path fill="none" stroke="black" stroke-dasharray="1,5" d="M661.78,-286C656.67,-286 653.55,-286 653.55,-286 653.55,-286 653.55,-170.97 653.55,-170.97"/>
<polygon fill="black" stroke="black" points="657.05,-170.97 653.55,-160.97 650.05,-170.97 657.05,-170.97"/>
</g>
<!-- :data:coverart&#45;&gt;:test&#45;data -->
<g id="edge28" class="edge">
<title>:data:coverart&#45;&gt;:test&#45;data</title>
<path fill="none" stroke="#ff9ab1" stroke-dasharray="1,5" d="M757.87,-566C711.65,-566 661.52,-566 661.52,-566 661.52,-566 661.52,-680.84 661.52,-680.84"/>
<polygon fill="#ff9ab1" stroke="#ff9ab1" points="658.02,-680.84 661.52,-690.84 665.02,-680.84 658.02,-680.84"/>
</g>
<!-- :data:coverart&#45;&gt;:shared:domain -->
<g id="edge25" class="edge">
<title>:data:coverart&#45;&gt;:shared:domain</title>
<path fill="none" stroke="black" stroke-dasharray="1,5" d="M899.49,-556.64C899.49,-556.64 899.49,-182.03 899.49,-182.03"/>
<polygon fill="black" stroke="black" points="902.99,-182.03 899.49,-172.03 895.99,-182.03 902.99,-182.03"/>
</g>
<!-- :data:coverart&#45;&gt;:core:coroutines -->
<g id="edge27" class="edge">
<title>:data:coverart&#45;&gt;:core:coroutines</title>
<path fill="none" stroke="black" stroke-dasharray="1,5" d="M818.77,-548.26C818.77,-494.17 818.77,-335 818.77,-335 818.77,-335 413.29,-335 413.29,-335 413.29,-335 413.29,-45.95 413.29,-45.95"/>
<polygon fill="black" stroke="black" points="416.79,-45.95 413.29,-35.95 409.79,-45.95 416.79,-45.95"/>
</g>
<!-- :data:coverart&#45;&gt;:data:database -->
<g id="edge30" class="edge">
<title>:data:coverart&#45;&gt;:data:database</title>
<path fill="none" stroke="#ff9ab1" stroke-dasharray="1,5" d="M782.17,-552.61C782.17,-552.61 782.17,-452.24 782.17,-452.24"/>
<polygon fill="#ff9ab1" stroke="#ff9ab1" points="785.67,-452.24 782.17,-442.24 778.67,-452.24 785.67,-452.24"/>
</g>
<!-- :data:coverart&#45;&gt;:data:musicbrainz -->
<g id="edge29" class="edge">
<title>:data:coverart&#45;&gt;:data:musicbrainz</title>
<path fill="none" stroke="#ff9ab1" stroke-dasharray="1,5" d="M831.2,-547.6C831.2,-547.6 831.2,-310.98 831.2,-310.98"/>
<polygon fill="#ff9ab1" stroke="#ff9ab1" points="834.7,-310.98 831.2,-300.98 827.7,-310.98 834.7,-310.98"/>
</g>
<!-- :data:coverart&#45;&gt;:core:logging:api -->
<g id="edge26" class="edge">
<title>:data:coverart&#45;&gt;:core:logging:api</title>
<path fill="none" stroke="black" stroke-dasharray="1,5" d="M768.18,-557C712.55,-557 641.88,-557 641.88,-557 641.88,-557 641.88,-175.75 641.88,-175.75"/>
<polygon fill="black" stroke="black" points="645.38,-175.75 641.88,-165.75 638.38,-175.75 645.38,-175.75"/>
</g>
<!-- :data:spotify&#45;&gt;:shared:domain -->
<g id="edge31" class="edge">
<title>:data:spotify&#45;&gt;:shared:domain</title>
<path fill="none" stroke="black" stroke-dasharray="1,5" d="M593.01,-274.94C593.01,-254.51 593.01,-223 593.01,-223 593.01,-223 857.1,-223 857.1,-223 857.1,-223 857.1,-173.89 857.1,-173.89"/>
<polygon fill="black" stroke="black" points="860.6,-173.89 857.1,-163.89 853.6,-173.89 860.6,-173.89"/>
</g>
<!-- :data:spotify&#45;&gt;:core:logging:api -->
<g id="edge32" class="edge">
<title>:data:spotify&#45;&gt;:core:logging:api</title>
<path fill="none" stroke="black" stroke-dasharray="1,5" d="M547.08,-274.93C547.08,-274.93 547.08,-182.72 547.08,-182.72"/>
<polygon fill="black" stroke="black" points="550.58,-182.72 547.08,-172.72 543.58,-182.72 550.58,-182.72"/>
</g>
<!-- :ui:core&#45;&gt;:shared:domain -->
<g id="edge34" class="edge">
<title>:ui:core&#45;&gt;:shared:domain</title>
<path fill="none" stroke="black" stroke-dasharray="1,5" d="M394.21,-548.94C394.21,-528.51 394.21,-497 394.21,-497 394.21,-497 888.89,-497 888.89,-497 888.89,-497 888.89,-181.04 888.89,-181.04"/>
<polygon fill="black" stroke="black" points="892.39,-181.04 888.89,-171.04 885.39,-181.04 892.39,-181.04"/>
</g>
<!-- :shared:strings -->
<g id="node14" class="node">
<title>:shared:strings</title>
<ellipse fill="#b59aff" stroke="black" cx="397.04" cy="-429" rx="81.49" ry="18"/>
<text text-anchor="middle" x="397.04" y="-425.3" font-family="Times,serif" font-size="14.00">:shared:strings</text>
</g>
<!-- :ui:core&#45;&gt;:shared:strings -->
<g id="edge33" class="edge">
<title>:ui:core&#45;&gt;:shared:strings</title>
<path fill="none" stroke="black" d="M363.88,-548.93C363.88,-548.93 363.88,-455.43 363.88,-455.43"/>
<polygon fill="black" stroke="black" points="367.38,-455.43 363.88,-445.43 360.38,-455.43 367.38,-455.43"/>
</g>
<!-- :core:logging:api&#45;&gt;:core:coroutines -->
<g id="edge35" class="edge">
<title>:core:logging:api&#45;&gt;:core:coroutines</title>
<path fill="none" stroke="black" d="M481.4,-155C461.32,-155 445.79,-155 445.79,-155 445.79,-155 445.79,-42.92 445.79,-42.92"/>
<polygon fill="black" stroke="black" points="449.29,-42.92 445.79,-32.92 442.29,-42.92 449.29,-42.92"/>
</g>
</g>
</svg>
