<?xml version="1.0" encoding="UTF-8" standalone="no"?>
<!DOCTYPE svg PUBLIC "-//W3C//DTD SVG 1.1//EN"
 "http://www.w3.org/Graphics/SVG/1.1/DTD/svg11.dtd">
<!-- Generated by graphviz version 2.43.0 (0)
 -->
<!-- Title: %3 Pages: 1 -->
<svg width="1136pt" height="940pt"
 viewBox="0.00 0.00 1135.94 940.00" xmlns="http://www.w3.org/2000/svg" xmlns:xlink="http://www.w3.org/1999/xlink">
<g id="graph0" class="graph" transform="scale(1 1) rotate(0) translate(4 936)">
<title>%3</title>
<polygon fill="white" stroke="transparent" points="-4,4 -4,-936 1131.94,-936 1131.94,4 -4,4"/>
<text text-anchor="middle" x="563.97" y="-904" font-family="Times,serif" font-size="30.00">Dependencies</text>
<text text-anchor="middle" x="563.97" y="-871" font-family="Times,serif" font-size="30.00"> </text>
<!-- :shared:feature:images -->
<g id="node1" class="node">
<title>:shared:feature:images</title>
<polygon fill="#b59aff" stroke="black" points="344.04,-858 162.04,-858 162.04,-822 344.04,-822 344.04,-858"/>
<text text-anchor="middle" x="253.04" y="-836.3" font-family="Times,serif" font-size="14.00">:shared:feature:images</text>
</g>
<!-- :test:image -->
<g id="node2" class="node">
<title>:test:image</title>
<ellipse fill="#9affb5" stroke="black" cx="81.04" cy="-429" rx="63.09" ry="18"/>
<text text-anchor="middle" x="81.04" y="-425.3" font-family="Times,serif" font-size="14.00">:test:image</text>
</g>
<!-- :shared:feature:images&#45;&gt;:test:image -->
<g id="edge1" class="edge">
<title>:shared:feature:images&#45;&gt;:test:image</title>
<path fill="none" stroke="black" stroke-dasharray="1,5" d="M233.95,-821.81C233.95,-743.01 233.95,-435 233.95,-435 233.95,-435 150.6,-435 150.6,-435"/>
<polygon fill="black" stroke="black" points="150.6,-431.5 140.6,-435 150.6,-438.5 150.6,-431.5"/>
</g>
<!-- :test&#45;data -->
<g id="node3" class="node">
<title>:test&#45;data</title>
<ellipse fill="#b59aff" stroke="black" cx="633.04" cy="-566" rx="55.49" ry="18"/>
<text text-anchor="middle" x="633.04" y="-562.3" font-family="Times,serif" font-size="14.00">:test&#45;data</text>
</g>
<!-- :shared:feature:images&#45;&gt;:test&#45;data -->
<g id="edge2" class="edge">
<title>:shared:feature:images&#45;&gt;:test&#45;data</title>
<path fill="none" stroke="#ff9ab1" stroke-dasharray="1,5" d="M344.06,-840C456.48,-840 633.04,-840 633.04,-840 633.04,-840 633.04,-594.4 633.04,-594.4"/>
<polygon fill="#ff9ab1" stroke="#ff9ab1" points="636.54,-594.4 633.04,-584.4 629.54,-594.4 636.54,-594.4"/>
</g>
<!-- :ui:test:screenshot -->
<g id="node4" class="node">
<title>:ui:test:screenshot</title>
<ellipse fill="#9affb5" stroke="black" cx="127.04" cy="-566" rx="96.68" ry="18"/>
<text text-anchor="middle" x="127.04" y="-562.3" font-family="Times,serif" font-size="14.00">:ui:test:screenshot</text>
</g>
<!-- :shared:feature:images&#45;&gt;:ui:test:screenshot -->
<g id="edge3" class="edge">
<title>:shared:feature:images&#45;&gt;:ui:test:screenshot</title>
<path fill="none" stroke="#ff9ab1" stroke-dasharray="1,5" d="M182.66,-821.6C182.66,-821.6 182.66,-590.88 182.66,-590.88"/>
<polygon fill="#ff9ab1" stroke="#ff9ab1" points="186.16,-590.88 182.66,-580.88 179.16,-590.88 186.16,-590.88"/>
</g>
<!-- :shared:domain -->
<g id="node5" class="node">
<title>:shared:domain</title>
<ellipse fill="#b59aff" stroke="black" cx="567.04" cy="-18" rx="82.59" ry="18"/>
<text text-anchor="middle" x="567.04" y="-14.3" font-family="Times,serif" font-size="14.00">:shared:domain</text>
</g>
<!-- :shared:feature:images&#45;&gt;:shared:domain -->
<g id="edge4" class="edge">
<title>:shared:feature:images&#45;&gt;:shared:domain</title>
<path fill="none" stroke="black" stroke-dasharray="1,5" d="M161.69,-840C89.21,-840 0,-840 0,-840 0,-840 0,-5 0,-5 0,-5 499.82,-5 499.82,-5"/>
<polygon fill="black" stroke="black" points="499.82,-8.5 509.82,-5 499.82,-1.5 499.82,-8.5"/>
</g>
<!-- :ui:image -->
<g id="node6" class="node">
<title>:ui:image</title>
<ellipse fill="#b59aff" stroke="black" cx="296.04" cy="-566" rx="53.89" ry="18"/>
<text text-anchor="middle" x="296.04" y="-562.3" font-family="Times,serif" font-size="14.00">:ui:image</text>
</g>
<!-- :shared:feature:images&#45;&gt;:ui:image -->
<g id="edge5" class="edge">
<title>:shared:feature:images&#45;&gt;:ui:image</title>
<path fill="none" stroke="black" stroke-dasharray="1,5" d="M276.08,-821.6C276.08,-821.6 276.08,-592.91 276.08,-592.91"/>
<polygon fill="black" stroke="black" points="279.58,-592.91 276.08,-582.91 272.58,-592.91 279.58,-592.91"/>
</g>
<!-- :ui:common -->
<g id="node7" class="node">
<title>:ui:common</title>
<ellipse fill="#b59aff" stroke="black" cx="416.04" cy="-703" rx="64.19" ry="18"/>
<text text-anchor="middle" x="416.04" y="-699.3" font-family="Times,serif" font-size="14.00">:ui:common</text>
</g>
<!-- :shared:feature:images&#45;&gt;:ui:common -->
<g id="edge6" class="edge">
<title>:shared:feature:images&#45;&gt;:ui:common</title>
<path fill="none" stroke="black" stroke-dasharray="1,5" d="M310.06,-821.79C310.06,-785.79 310.06,-709 310.06,-709 310.06,-709 345.32,-709 345.32,-709"/>
<polygon fill="black" stroke="black" points="345.32,-712.5 355.32,-709 345.32,-705.5 345.32,-712.5"/>
</g>
<!-- :test&#45;data&#45;&gt;:shared:domain -->
<g id="edge7" class="edge">
<title>:test&#45;data&#45;&gt;:shared:domain</title>
<path fill="none" stroke="black" stroke-dasharray="1,5" d="M578.5,-569C521.7,-569 440.92,-569 440.92,-569 440.92,-569 440.92,-24 440.92,-24 440.92,-24 478.96,-24 478.96,-24"/>
<polygon fill="black" stroke="black" points="478.96,-27.5 488.96,-24 478.96,-20.5 478.96,-27.5"/>
</g>
<!-- :core:coroutines -->
<g id="node8" class="node">
<title>:core:coroutines</title>
<ellipse fill="#b59aff" stroke="black" cx="567.04" cy="-155" rx="85.29" ry="18"/>
<text text-anchor="middle" x="567.04" y="-151.3" font-family="Times,serif" font-size="14.00">:core:coroutines</text>
</g>
<!-- :test&#45;data&#45;&gt;:core:coroutines -->
<g id="edge8" class="edge">
<title>:test&#45;data&#45;&gt;:core:coroutines</title>
<path fill="none" stroke="black" stroke-dasharray="1,5" d="M583.78,-557.79C583.78,-557.79 583.78,-182.72 583.78,-182.72"/>
<polygon fill="black" stroke="black" points="587.28,-182.72 583.78,-172.72 580.28,-182.72 587.28,-182.72"/>
</g>
<!-- :data:database -->
<g id="node9" class="node">
<title>:data:database</title>
<ellipse fill="#b59aff" stroke="black" cx="675.04" cy="-292" rx="79.09" ry="18"/>
<text text-anchor="middle" x="675.04" y="-288.3" font-family="Times,serif" font-size="14.00">:data:database</text>
</g>
<!-- :test&#45;data&#45;&gt;:data:database -->
<g id="edge9" class="edge">
<title>:test&#45;data&#45;&gt;:data:database</title>
<path fill="none" stroke="black" stroke-dasharray="1,5" d="M628.38,-548.02C628.38,-548.02 628.38,-316.62 628.38,-316.62"/>
<polygon fill="black" stroke="black" points="631.88,-316.62 628.38,-306.62 624.88,-316.62 631.88,-316.62"/>
</g>
<!-- :data:musicbrainz -->
<g id="node10" class="node">
<title>:data:musicbrainz</title>
<ellipse fill="#b59aff" stroke="black" cx="840.04" cy="-155" rx="93.68" ry="18"/>
<text text-anchor="middle" x="840.04" y="-151.3" font-family="Times,serif" font-size="14.00">:data:musicbrainz</text>
</g>
<!-- :test&#45;data&#45;&gt;:data:musicbrainz -->
<g id="edge10" class="edge">
<title>:test&#45;data&#45;&gt;:data:musicbrainz</title>
<path fill="none" stroke="black" stroke-dasharray="1,5" d="M685.23,-560C750.36,-560 853.27,-560 853.27,-560 853.27,-560 853.27,-182.92 853.27,-182.92"/>
<polygon fill="black" stroke="black" points="856.77,-182.92 853.27,-172.92 849.77,-182.92 856.77,-182.92"/>
</g>
<!-- :data:coverart -->
<g id="node11" class="node">
<title>:data:coverart</title>
<ellipse fill="#b59aff" stroke="black" cx="737.04" cy="-429" rx="76.09" ry="18"/>
<text text-anchor="middle" x="737.04" y="-425.3" font-family="Times,serif" font-size="14.00">:data:coverart</text>
</g>
<!-- :test&#45;data&#45;&gt;:data:coverart -->
<g id="edge11" class="edge">
<title>:test&#45;data&#45;&gt;:data:coverart</title>
<path fill="none" stroke="black" stroke-dasharray="1,5" d="M670.1,-552.61C670.1,-552.61 670.1,-447.79 670.1,-447.79"/>
<polygon fill="black" stroke="black" points="673.6,-447.79 670.1,-437.79 666.6,-447.79 673.6,-447.79"/>
</g>
<!-- :data:spotify -->
<g id="node12" class="node">
<title>:data:spotify</title>
<ellipse fill="#b59aff" stroke="black" cx="1059.04" cy="-155" rx="68.79" ry="18"/>
<text text-anchor="middle" x="1059.04" y="-151.3" font-family="Times,serif" font-size="14.00">:data:spotify</text>
</g>
<!-- :test&#45;data&#45;&gt;:data:spotify -->
<g id="edge12" class="edge">
<title>:test&#45;data&#45;&gt;:data:spotify</title>
<path fill="none" stroke="black" stroke-dasharray="1,5" d="M685.28,-572C799.03,-572 1059.04,-572 1059.04,-572 1059.04,-572 1059.04,-183.19 1059.04,-183.19"/>
<polygon fill="black" stroke="black" points="1062.54,-183.19 1059.04,-173.19 1055.54,-183.19 1062.54,-183.19"/>
</g>
<!-- :ui:test:screenshot&#45;&gt;:test:image -->
<g id="edge14" class="edge">
<title>:ui:test:screenshot&#45;&gt;:test:image</title>
<path fill="none" stroke="black" stroke-dasharray="1,5" d="M87.15,-549.47C87.15,-549.47 87.15,-457.33 87.15,-457.33"/>
<polygon fill="black" stroke="black" points="90.65,-457.33 87.15,-447.33 83.65,-457.33 90.65,-457.33"/>
</g>
<!-- :ui:core -->
<g id="node13" class="node">
<title>:ui:core</title>
<ellipse fill="#b59aff" stroke="black" cx="301.04" cy="-429" rx="45.49" ry="18"/>
<text text-anchor="middle" x="301.04" y="-425.3" font-family="Times,serif" font-size="14.00">:ui:core</text>
</g>
<!-- :ui:test:screenshot&#45;&gt;:ui:core -->
<g id="edge13" class="edge">
<title>:ui:test:screenshot&#45;&gt;:ui:core</title>
<path fill="none" stroke="black" stroke-dasharray="1,5" d="M183.99,-551.24C183.99,-514.7 183.99,-423 183.99,-423 183.99,-423 248.12,-423 248.12,-423"/>
<polygon fill="black" stroke="black" points="248.12,-426.5 258.12,-423 248.12,-419.5 248.12,-426.5"/>
</g>
<!-- :ui:image&#45;&gt;:shared:domain -->
<g id="edge15" class="edge">
<title>:ui:image&#45;&gt;:shared:domain</title>
<path fill="none" stroke="black" stroke-dasharray="1,5" d="M338.91,-555C368.1,-555 401.44,-555 401.44,-555 401.44,-555 401.44,-12 401.44,-12 401.44,-12 479.09,-12 479.09,-12"/>
<polygon fill="black" stroke="black" points="479.09,-15.5 489.09,-12 479.09,-8.5 479.09,-15.5"/>
</g>
<!-- :ui:image&#45;&gt;:ui:core -->
<g id="edge16" class="edge">
<title>:ui:image&#45;&gt;:ui:core</title>
<path fill="none" stroke="black" stroke-dasharray="1,5" d="M301.04,-547.81C301.04,-547.81 301.04,-457.27 301.04,-457.27"/>
<polygon fill="black" stroke="black" points="304.54,-457.27 301.04,-447.27 297.54,-457.27 304.54,-457.27"/>
</g>
<!-- :ui:common&#45;&gt;:test&#45;data -->
<g id="edge17" class="edge">
<title>:ui:common&#45;&gt;:test&#45;data</title>
<path fill="none" stroke="#ff9ab1" stroke-dasharray="1,5" d="M467.23,-691.73C467.23,-660.65 467.23,-576 467.23,-576 467.23,-576 576.86,-576 576.86,-576"/>
<polygon fill="#ff9ab1" stroke="#ff9ab1" points="576.86,-579.5 586.86,-576 576.86,-572.5 576.86,-579.5"/>
</g>
<!-- :ui:common&#45;&gt;:ui:test:screenshot -->
<g id="edge18" class="edge">
<title>:ui:common&#45;&gt;:ui:test:screenshot</title>
<path fill="none" stroke="#ff9ab1" stroke-dasharray="1,5" d="M355.36,-697C292.47,-697 203.27,-697 203.27,-697 203.27,-697 203.27,-587.17 203.27,-587.17"/>
<polygon fill="#ff9ab1" stroke="#ff9ab1" points="206.77,-587.17 203.27,-577.17 199.77,-587.17 206.77,-587.17"/>
</g>
<!-- :ui:common&#45;&gt;:shared:domain -->
<g id="edge20" class="edge">
<title>:ui:common&#45;&gt;:shared:domain</title>
<path fill="none" stroke="black" d="M414.6,-684.68C414.6,-575.74 414.6,-18 414.6,-18 414.6,-18 474.13,-18 474.13,-18"/>
<polygon fill="black" stroke="black" points="474.13,-21.5 484.13,-18 474.13,-14.5 474.13,-21.5"/>
</g>
<!-- :ui:common&#45;&gt;:ui:image -->
<g id="edge23" class="edge">
<title>:ui:common&#45;&gt;:ui:image</title>
<path fill="none" stroke="black" stroke-dasharray="1,5" d="M363.9,-692.4C363.9,-659.61 363.9,-562 363.9,-562 363.9,-562 358.84,-562 358.84,-562"/>
<polygon fill="black" stroke="black" points="358.84,-558.5 348.84,-562 358.84,-565.5 358.84,-558.5"/>
</g>
<!-- :ui:common&#45;&gt;:core:coroutines -->
<g id="edge19" class="edge">
<title>:ui:common&#45;&gt;:core:coroutines</title>
<path fill="none" stroke="#ff9ab1" stroke-dasharray="1,5" d="M427.76,-685.08C427.76,-590.63 427.76,-155 427.76,-155 427.76,-155 471.61,-155 471.61,-155"/>
<polygon fill="#ff9ab1" stroke="#ff9ab1" points="471.61,-158.5 481.61,-155 471.61,-151.5 471.61,-158.5"/>
</g>
<!-- :ui:common&#45;&gt;:data:musicbrainz -->
<g id="edge24" class="edge">
<title>:ui:common&#45;&gt;:data:musicbrainz</title>
<path fill="none" stroke="black" stroke-dasharray="1,5" d="M476.99,-697C605.7,-697 893.45,-697 893.45,-697 893.45,-697 893.45,-180.06 893.45,-180.06"/>
<polygon fill="black" stroke="black" points="896.95,-180.06 893.45,-170.06 889.95,-180.06 896.95,-180.06"/>
</g>
<!-- :ui:common&#45;&gt;:ui:core -->
<g id="edge21" class="edge">
<title>:ui:common&#45;&gt;:ui:core</title>
<path fill="none" stroke="black" d="M376.09,-688.58C376.09,-630.91 376.09,-420 376.09,-420 376.09,-420 350.77,-420 350.77,-420"/>
<polygon fill="black" stroke="black" points="350.77,-416.5 340.77,-420 350.77,-423.5 350.77,-416.5"/>
</g>
<!-- :core:logging:api -->
<g id="node14" class="node">
<title>:core:logging:api</title>
<ellipse fill="#b59aff" stroke="black" cx="1010.04" cy="-18" rx="88.28" ry="18"/>
<text text-anchor="middle" x="1010.04" y="-14.3" font-family="Times,serif" font-size="14.00">:core:logging:api</text>
</g>
<!-- :ui:common&#45;&gt;:core:logging:api -->
<g id="edge22" class="edge">
<title>:ui:common&#45;&gt;:core:logging:api</title>
<path fill="none" stroke="black" stroke-dasharray="1,5" d="M476.79,-709C620.87,-709 971.31,-709 971.31,-709 971.31,-709 971.31,-44.4 971.31,-44.4"/>
<polygon fill="black" stroke="black" points="974.81,-44.4 971.31,-34.4 967.81,-44.4 974.81,-44.4"/>
</g>
<!-- :data:database&#45;&gt;:shared:domain -->
<g id="edge25" class="edge">
<title>:data:database&#45;&gt;:shared:domain</title>
<path fill="none" stroke="black" stroke-dasharray="1,5" d="M699.32,-274.83C699.32,-215.68 699.32,-24 699.32,-24 699.32,-24 655.14,-24 655.14,-24"/>
<polygon fill="black" stroke="black" points="655.14,-20.5 645.14,-24 655.14,-27.5 655.14,-20.5"/>
</g>
<!-- :data:database&#45;&gt;:core:coroutines -->
<g id="edge26" class="edge">
<title>:data:database&#45;&gt;:core:coroutines</title>
<path fill="none" stroke="black" stroke-dasharray="1,5" d="M623.97,-278.11C623.97,-278.11 623.97,-178.52 623.97,-178.52"/>
<polygon fill="black" stroke="black" points="627.47,-178.52 623.97,-168.52 620.47,-178.52 627.47,-178.52"/>
</g>
<!-- :data:database&#45;&gt;:data:musicbrainz -->
<g id="edge27" class="edge">
<title>:data:database&#45;&gt;:data:musicbrainz</title>
<path fill="none" stroke="black" stroke-dasharray="1,5" d="M750.4,-286.11C750.4,-286.11 750.4,-170.41 750.4,-170.41"/>
<polygon fill="black" stroke="black" points="753.9,-170.41 750.4,-160.41 746.9,-170.41 753.9,-170.41"/>
</g>
<!-- :data:musicbrainz&#45;&gt;:shared:domain -->
<g id="edge28" class="edge">
<title>:data:musicbrainz&#45;&gt;:shared:domain</title>
<path fill="none" stroke="black" stroke-dasharray="1,5" d="M834.05,-136.89C834.05,-98.41 834.05,-12 834.05,-12 834.05,-12 654.99,-12 654.99,-12"/>
<polygon fill="black" stroke="black" points="654.99,-8.5 644.99,-12 654.99,-15.5 654.99,-8.5"/>
</g>
<!-- :data:musicbrainz&#45;&gt;:core:logging:api -->
<g id="edge29" class="edge">
<title>:data:musicbrainz&#45;&gt;:core:logging:api</title>
<path fill="none" stroke="black" stroke-dasharray="1,5" d="M927.64,-148.39C927.64,-148.39 927.64,-34.54 927.64,-34.54"/>
<polygon fill="black" stroke="black" points="931.14,-34.54 927.64,-24.54 924.14,-34.54 931.14,-34.54"/>
</g>
<!-- :data:coverart&#45;&gt;:test&#45;data -->
<g id="edge33" class="edge">
<title>:data:coverart&#45;&gt;:test&#45;data</title>
<path fill="none" stroke="#ff9ab1" stroke-dasharray="1,5" d="M679.19,-441.16C679.19,-441.16 679.19,-545.95 679.19,-545.95"/>
<polygon fill="#ff9ab1" stroke="#ff9ab1" points="675.69,-545.95 679.19,-555.95 682.69,-545.95 675.69,-545.95"/>
</g>
<!-- :data:coverart&#45;&gt;:shared:domain -->
<g id="edge30" class="edge">
<title>:data:coverart&#45;&gt;:shared:domain</title>
<path fill="none" stroke="black" stroke-dasharray="1,5" d="M671.06,-438C587.44,-438 454.07,-438 454.07,-438 454.07,-438 454.07,-30 454.07,-30 454.07,-30 495.27,-30 495.27,-30"/>
<polygon fill="black" stroke="black" points="495.27,-33.5 505.27,-30 495.27,-26.5 495.27,-33.5"/>
</g>
<!-- :data:coverart&#45;&gt;:core:coroutines -->
<g id="edge32" class="edge">
<title>:data:coverart&#45;&gt;:core:coroutines</title>
<path fill="none" stroke="black" stroke-dasharray="1,5" d="M660.82,-429C624.88,-429 589.77,-429 589.77,-429 589.77,-429 589.77,-182.56 589.77,-182.56"/>
<polygon fill="black" stroke="black" points="593.27,-182.56 589.77,-172.56 586.27,-182.56 593.27,-182.56"/>
</g>
<!-- :data:coverart&#45;&gt;:data:database -->
<g id="edge35" class="edge">
<title>:data:coverart&#45;&gt;:data:database</title>
<path fill="none" stroke="#ff9ab1" stroke-dasharray="1,5" d="M707.67,-412.2C707.67,-412.2 707.67,-318.51 707.67,-318.51"/>
<polygon fill="#ff9ab1" stroke="#ff9ab1" points="711.17,-318.51 707.67,-308.51 704.17,-318.51 711.17,-318.51"/>
</g>
<!-- :data:coverart&#45;&gt;:data:musicbrainz -->
<g id="edge34" class="edge">
<title>:data:coverart&#45;&gt;:data:musicbrainz</title>
<path fill="none" stroke="#ff9ab1" stroke-dasharray="1,5" d="M783.71,-414.65C783.71,-414.65 783.71,-179.53 783.71,-179.53"/>
<polygon fill="#ff9ab1" stroke="#ff9ab1" points="787.21,-179.53 783.71,-169.53 780.21,-179.53 787.21,-179.53"/>
</g>
<!-- :data:coverart&#45;&gt;:core:logging:api -->
<g id="edge31" class="edge">
<title>:data:coverart&#45;&gt;:core:logging:api</title>
<path fill="none" stroke="black" stroke-dasharray="1,5" d="M813.3,-429C875.27,-429 952.47,-429 952.47,-429 952.47,-429 952.47,-41.67 952.47,-41.67"/>
<polygon fill="black" stroke="black" points="955.97,-41.67 952.47,-31.67 948.97,-41.67 955.97,-41.67"/>
</g>
<!-- :data:spotify&#45;&gt;:shared:domain -->
<g id="edge36" class="edge">
<title>:data:spotify&#45;&gt;:shared:domain</title>
<path fill="none" stroke="black" stroke-dasharray="1,5" d="M1026.25,-139C1026.25,-118.61 1026.25,-86 1026.25,-86 1026.25,-86 567.04,-86 567.04,-86 567.04,-86 567.04,-46.22 567.04,-46.22"/>
<polygon fill="black" stroke="black" points="570.54,-46.22 567.04,-36.22 563.54,-46.22 570.54,-46.22"/>
</g>
<!-- :data:spotify&#45;&gt;:core:logging:api -->
<g id="edge37" class="edge">
<title>:data:spotify&#45;&gt;:core:logging:api</title>
<path fill="none" stroke="black" stroke-dasharray="1,5" d="M1062.34,-136.81C1062.34,-136.81 1062.34,-42.9 1062.34,-42.9"/>
<polygon fill="black" stroke="black" points="1065.84,-42.9 1062.34,-32.9 1058.84,-42.9 1065.84,-42.9"/>
</g>
<!-- :shared:strings -->
<g id="node15" class="node">
<title>:shared:strings</title>
<ellipse fill="#b59aff" stroke="black" cx="307.04" cy="-292" rx="81.49" ry="18"/>
<text text-anchor="middle" x="307.04" y="-288.3" font-family="Times,serif" font-size="14.00">:shared:strings</text>
</g>
<!-- :ui:core&#45;&gt;:shared:strings -->
<g id="edge38" class="edge">
<title>:ui:core&#45;&gt;:shared:strings</title>
<path fill="none" stroke="black" d="M301.04,-410.81C301.04,-410.81 301.04,-320.27 301.04,-320.27"/>
<polygon fill="black" stroke="black" points="304.54,-320.27 301.04,-310.27 297.54,-320.27 304.54,-320.27"/>
</g>
</g>
</svg>
