<?xml version="1.0" encoding="UTF-8" standalone="no"?>
<!DOCTYPE svg PUBLIC "-//W3C//DTD SVG 1.1//EN"
 "http://www.w3.org/Graphics/SVG/1.1/DTD/svg11.dtd">
<!-- Generated by graphviz version 2.43.0 (0)
 -->
<!-- Title: %3 Pages: 1 -->
<svg width="1037pt" height="803pt"
 viewBox="0.00 0.00 1037.19 803.00" xmlns="http://www.w3.org/2000/svg" xmlns:xlink="http://www.w3.org/1999/xlink">
<g id="graph0" class="graph" transform="scale(1 1) rotate(0) translate(4 799)">
<title>%3</title>
<polygon fill="white" stroke="transparent" points="-4,4 -4,-799 1033.19,-799 1033.19,4 -4,4"/>
<text text-anchor="middle" x="514.59" y="-767" font-family="Times,serif" font-size="30.00">Dependencies</text>
<text text-anchor="middle" x="514.59" y="-734" font-family="Times,serif" font-size="30.00"> </text>
<!-- :shared:feature:images -->
<g id="node1" class="node">
<title>:shared:feature:images</title>
<polygon fill="#b59aff" stroke="black" points="499.04,-721 317.04,-721 317.04,-685 499.04,-685 499.04,-721"/>
<text text-anchor="middle" x="408.04" y="-699.3" font-family="Times,serif" font-size="14.00">:shared:feature:images</text>
</g>
<!-- :test:image -->
<g id="node2" class="node">
<title>:test:image</title>
<ellipse fill="#9affb5" stroke="black" cx="63.04" cy="-292" rx="63.09" ry="18"/>
<text text-anchor="middle" x="63.04" y="-288.3" font-family="Times,serif" font-size="14.00">:test:image</text>
</g>
<!-- :shared:feature:images&#45;&gt;:test:image -->
<g id="edge1" class="edge">
<title>:shared:feature:images&#45;&gt;:test:image</title>
<path fill="none" stroke="black" stroke-dasharray="1,5" d="M316.69,-709C206.13,-709 34.6,-709 34.6,-709 34.6,-709 34.6,-318.09 34.6,-318.09"/>
<polygon fill="black" stroke="black" points="38.1,-318.09 34.6,-308.09 31.1,-318.09 38.1,-318.09"/>
</g>
<!-- :test&#45;data -->
<g id="node3" class="node">
<title>:test&#45;data</title>
<ellipse fill="#b59aff" stroke="black" cx="749.04" cy="-566" rx="55.49" ry="18"/>
<text text-anchor="middle" x="749.04" y="-562.3" font-family="Times,serif" font-size="14.00">:test&#45;data</text>
</g>
<!-- :shared:feature:images&#45;&gt;:test&#45;data -->
<g id="edge2" class="edge">
<title>:shared:feature:images&#45;&gt;:test&#45;data</title>
<path fill="none" stroke="#ff9ab1" stroke-dasharray="1,5" d="M474.83,-684.82C474.83,-650.16 474.83,-578 474.83,-578 474.83,-578 697.69,-578 697.69,-578"/>
<polygon fill="#ff9ab1" stroke="#ff9ab1" points="697.69,-581.5 707.69,-578 697.69,-574.5 697.69,-581.5"/>
</g>
<!-- :ui:test:screenshot -->
<g id="node4" class="node">
<title>:ui:test:screenshot</title>
<ellipse fill="#9affb5" stroke="black" cx="166.04" cy="-429" rx="96.68" ry="18"/>
<text text-anchor="middle" x="166.04" y="-425.3" font-family="Times,serif" font-size="14.00">:ui:test:screenshot</text>
</g>
<!-- :shared:feature:images&#45;&gt;:ui:test:screenshot -->
<g id="edge3" class="edge">
<title>:shared:feature:images&#45;&gt;:ui:test:screenshot</title>
<path fill="none" stroke="#ff9ab1" stroke-dasharray="1,5" d="M316.9,-697C248.3,-697 166.04,-697 166.04,-697 166.04,-697 166.04,-457 166.04,-457"/>
<polygon fill="#ff9ab1" stroke="#ff9ab1" points="169.54,-457 166.04,-447 162.54,-457 169.54,-457"/>
</g>
<!-- :shared:domain -->
<g id="node5" class="node">
<title>:shared:domain</title>
<ellipse fill="#b59aff" stroke="black" cx="713.04" cy="-18" rx="82.59" ry="18"/>
<text text-anchor="middle" x="713.04" y="-14.3" font-family="Times,serif" font-size="14.00">:shared:domain</text>
</g>
<!-- :shared:feature:images&#45;&gt;:shared:domain -->
<g id="edge4" class="edge">
<title>:shared:feature:images&#45;&gt;:shared:domain</title>
<path fill="none" stroke="black" stroke-dasharray="1,5" d="M499.17,-703C517.47,-703 531.21,-703 531.21,-703 531.21,-703 531.21,-111 531.21,-111 531.21,-111 700.18,-111 700.18,-111 700.18,-111 700.18,-45.93 700.18,-45.93"/>
<polygon fill="black" stroke="black" points="703.68,-45.93 700.18,-35.93 696.68,-45.93 703.68,-45.93"/>
</g>
<!-- :ui:image -->
<g id="node6" class="node">
<title>:ui:image</title>
<ellipse fill="#b59aff" stroke="black" cx="449.04" cy="-429" rx="53.89" ry="18"/>
<text text-anchor="middle" x="449.04" y="-425.3" font-family="Times,serif" font-size="14.00">:ui:image</text>
</g>
<!-- :shared:feature:images&#45;&gt;:ui:image -->
<g id="edge5" class="edge">
<title>:shared:feature:images&#45;&gt;:ui:image</title>
<path fill="none" stroke="black" stroke-dasharray="1,5" d="M450.61,-684.6C450.61,-684.6 450.61,-457.32 450.61,-457.32"/>
<polygon fill="black" stroke="black" points="454.11,-457.32 450.61,-447.32 447.11,-457.32 454.11,-457.32"/>
</g>
<!-- :ui:common -->
<g id="node7" class="node">
<title>:ui:common</title>
<ellipse fill="#b59aff" stroke="black" cx="362.04" cy="-566" rx="64.19" ry="18"/>
<text text-anchor="middle" x="362.04" y="-562.3" font-family="Times,serif" font-size="14.00">:ui:common</text>
</g>
<!-- :shared:feature:images&#45;&gt;:ui:common -->
<g id="edge6" class="edge">
<title>:shared:feature:images&#45;&gt;:ui:common</title>
<path fill="none" stroke="black" stroke-dasharray="1,5" d="M371.72,-684.81C371.72,-684.81 371.72,-593.83 371.72,-593.83"/>
<polygon fill="black" stroke="black" points="375.22,-593.83 371.72,-583.83 368.22,-593.83 375.22,-593.83"/>
</g>
<!-- :test&#45;data&#45;&gt;:shared:domain -->
<g id="edge7" class="edge">
<title>:test&#45;data&#45;&gt;:shared:domain</title>
<path fill="none" stroke="black" stroke-dasharray="1,5" d="M797.2,-575C877.3,-575 1029.19,-575 1029.19,-575 1029.19,-575 1029.19,-18 1029.19,-18 1029.19,-18 805.69,-18 805.69,-18"/>
<polygon fill="black" stroke="black" points="805.69,-14.5 795.69,-18 805.69,-21.5 805.69,-14.5"/>
</g>
<!-- :data:musicbrainz -->
<g id="node8" class="node">
<title>:data:musicbrainz</title>
<ellipse fill="#b59aff" stroke="black" cx="653.04" cy="-155" rx="93.68" ry="18"/>
<text text-anchor="middle" x="653.04" y="-151.3" font-family="Times,serif" font-size="14.00">:data:musicbrainz</text>
</g>
<!-- :test&#45;data&#45;&gt;:data:musicbrainz -->
<g id="edge8" class="edge">
<title>:test&#45;data&#45;&gt;:data:musicbrainz</title>
<path fill="none" stroke="black" stroke-dasharray="1,5" d="M694.1,-568C664.98,-568 635.15,-568 635.15,-568 635.15,-568 635.15,-182.75 635.15,-182.75"/>
<polygon fill="black" stroke="black" points="638.65,-182.75 635.15,-172.75 631.65,-182.75 638.65,-182.75"/>
</g>
<!-- :data:coverart -->
<g id="node9" class="node">
<title>:data:coverart</title>
<ellipse fill="#b59aff" stroke="black" cx="749.04" cy="-429" rx="76.09" ry="18"/>
<text text-anchor="middle" x="749.04" y="-425.3" font-family="Times,serif" font-size="14.00">:data:coverart</text>
</g>
<!-- :test&#45;data&#45;&gt;:data:coverart -->
<g id="edge9" class="edge">
<title>:test&#45;data&#45;&gt;:data:coverart</title>
<path fill="none" stroke="black" stroke-dasharray="1,5" d="M730.63,-548.93C730.63,-548.93 730.63,-456.72 730.63,-456.72"/>
<polygon fill="black" stroke="black" points="734.13,-456.72 730.63,-446.72 727.13,-456.72 734.13,-456.72"/>
</g>
<!-- :data:spotify -->
<g id="node10" class="node">
<title>:data:spotify</title>
<ellipse fill="#b59aff" stroke="black" cx="358.04" cy="-155" rx="68.79" ry="18"/>
<text text-anchor="middle" x="358.04" y="-151.3" font-family="Times,serif" font-size="14.00">:data:spotify</text>
</g>
<!-- :test&#45;data&#45;&gt;:data:spotify -->
<g id="edge10" class="edge">
<title>:test&#45;data&#45;&gt;:data:spotify</title>
<path fill="none" stroke="black" stroke-dasharray="1,5" d="M697.99,-573C628.42,-573 512.4,-573 512.4,-573 512.4,-573 512.4,-161 512.4,-161 512.4,-161 433.06,-161 433.06,-161"/>
<polygon fill="black" stroke="black" points="433.06,-157.5 423.06,-161 433.06,-164.5 433.06,-157.5"/>
</g>
<!-- :data:database -->
<g id="node11" class="node">
<title>:data:database</title>
<ellipse fill="#b59aff" stroke="black" cx="841.04" cy="-292" rx="79.09" ry="18"/>
<text text-anchor="middle" x="841.04" y="-288.3" font-family="Times,serif" font-size="14.00">:data:database</text>
</g>
<!-- :test&#45;data&#45;&gt;:data:database -->
<g id="edge11" class="edge">
<title>:test&#45;data&#45;&gt;:data:database</title>
<path fill="none" stroke="black" stroke-dasharray="1,5" d="M797.21,-557C831.94,-557 872.71,-557 872.71,-557 872.71,-557 872.71,-318.58 872.71,-318.58"/>
<polygon fill="black" stroke="black" points="876.21,-318.58 872.71,-308.58 869.21,-318.58 876.21,-318.58"/>
</g>
<!-- :core:coroutines -->
<g id="node12" class="node">
<title>:core:coroutines</title>
<ellipse fill="#b59aff" stroke="black" cx="926.04" cy="-155" rx="85.29" ry="18"/>
<text text-anchor="middle" x="926.04" y="-151.3" font-family="Times,serif" font-size="14.00">:core:coroutines</text>
</g>
<!-- :test&#45;data&#45;&gt;:core:coroutines -->
<g id="edge12" class="edge">
<title>:test&#45;data&#45;&gt;:core:coroutines</title>
<path fill="none" stroke="black" stroke-dasharray="1,5" d="M804.29,-566C868.5,-566 965.76,-566 965.76,-566 965.76,-566 965.76,-181.11 965.76,-181.11"/>
<polygon fill="black" stroke="black" points="969.26,-181.11 965.76,-171.11 962.26,-181.11 969.26,-181.11"/>
</g>
<!-- :ui:test:screenshot&#45;&gt;:test:image -->
<g id="edge14" class="edge">
<title>:ui:test:screenshot&#45;&gt;:test:image</title>
<path fill="none" stroke="black" stroke-dasharray="1,5" d="M97.65,-416.11C97.65,-416.11 97.65,-317.45 97.65,-317.45"/>
<polygon fill="black" stroke="black" points="101.15,-317.45 97.65,-307.45 94.15,-317.45 101.15,-317.45"/>
</g>
<!-- :ui:core -->
<g id="node13" class="node">
<title>:ui:core</title>
<ellipse fill="#b59aff" stroke="black" cx="200.04" cy="-292" rx="45.49" ry="18"/>
<text text-anchor="middle" x="200.04" y="-288.3" font-family="Times,serif" font-size="14.00">:ui:core</text>
</g>
<!-- :ui:test:screenshot&#45;&gt;:ui:core -->
<g id="edge13" class="edge">
<title>:ui:test:screenshot&#45;&gt;:ui:core</title>
<path fill="none" stroke="black" stroke-dasharray="1,5" d="M200.04,-411.93C200.04,-411.93 200.04,-320.16 200.04,-320.16"/>
<polygon fill="black" stroke="black" points="203.54,-320.16 200.04,-310.16 196.54,-320.16 203.54,-320.16"/>
</g>
<!-- :ui:image&#45;&gt;:shared:domain -->
<g id="edge15" class="edge">
<title>:ui:image&#45;&gt;:shared:domain</title>
<path fill="none" stroke="black" stroke-dasharray="1,5" d="M464.96,-411.52C464.96,-341.62 464.96,-86 464.96,-86 464.96,-86 676.96,-86 676.96,-86 676.96,-86 676.96,-44.46 676.96,-44.46"/>
<polygon fill="black" stroke="black" points="680.46,-44.46 676.96,-34.46 673.46,-44.46 680.46,-44.46"/>
</g>
<!-- :ui:image&#45;&gt;:ui:core -->
<g id="edge16" class="edge">
<title>:ui:image&#45;&gt;:ui:core</title>
<path fill="none" stroke="black" stroke-dasharray="1,5" d="M411.02,-416.04C411.02,-380.31 411.02,-283 411.02,-283 411.02,-283 249.73,-283 249.73,-283"/>
<polygon fill="black" stroke="black" points="249.73,-279.5 239.73,-283 249.73,-286.5 249.73,-279.5"/>
</g>
<!-- :ui:common&#45;&gt;:ui:test:screenshot -->
<g id="edge17" class="edge">
<title>:ui:common&#45;&gt;:ui:test:screenshot</title>
<path fill="none" stroke="#ff9ab1" stroke-dasharray="1,5" d="M322.05,-551.85C322.05,-516.85 322.05,-429 322.05,-429 322.05,-429 273.07,-429 273.07,-429"/>
<polygon fill="#ff9ab1" stroke="#ff9ab1" points="273.07,-425.5 263.07,-429 273.07,-432.5 273.07,-425.5"/>
</g>
<!-- :ui:common&#45;&gt;:shared:domain -->
<g id="edge18" class="edge">
<title>:ui:common&#45;&gt;:shared:domain</title>
<path fill="none" stroke="black" d="M370.75,-547.79C370.75,-487.91 370.75,-301 370.75,-301 370.75,-301 750.41,-301 750.41,-301 750.41,-301 750.41,-44.44 750.41,-44.44"/>
<polygon fill="black" stroke="black" points="753.92,-44.44 750.41,-34.44 746.92,-44.44 753.92,-44.44"/>
</g>
<!-- :ui:common&#45;&gt;:ui:image -->
<g id="edge23" class="edge">
<title>:ui:common&#45;&gt;:ui:image</title>
<path fill="none" stroke="black" stroke-dasharray="1,5" d="M410.74,-553.84C410.74,-553.84 410.74,-451.73 410.74,-451.73"/>
<polygon fill="black" stroke="black" points="414.24,-451.73 410.74,-441.73 407.24,-451.73 414.24,-451.73"/>
</g>
<!-- :ui:common&#45;&gt;:data:musicbrainz -->
<g id="edge21" class="edge">
<title>:ui:common&#45;&gt;:data:musicbrainz</title>
<path fill="none" stroke="black" stroke-dasharray="1,5" d="M419.9,-558C489.55,-558 597.3,-558 597.3,-558 597.3,-558 597.3,-179.82 597.3,-179.82"/>
<polygon fill="black" stroke="black" points="600.8,-179.82 597.3,-169.82 593.8,-179.82 600.8,-179.82"/>
</g>
<!-- :ui:common&#45;&gt;:data:coverart -->
<g id="edge20" class="edge">
<title>:ui:common&#45;&gt;:data:coverart</title>
<path fill="none" stroke="black" stroke-dasharray="1,5" d="M425.53,-563C519.19,-563 683.4,-563 683.4,-563 683.4,-563 683.4,-448.21 683.4,-448.21"/>
<polygon fill="black" stroke="black" points="686.9,-448.21 683.4,-438.21 679.9,-448.21 686.9,-448.21"/>
</g>
<!-- :ui:common&#45;&gt;:ui:core -->
<g id="edge19" class="edge">
<title>:ui:common&#45;&gt;:ui:core</title>
<path fill="none" stroke="black" d="M346.4,-548.44C346.4,-487.97 346.4,-292 346.4,-292 346.4,-292 255.55,-292 255.55,-292"/>
<polygon fill="black" stroke="black" points="255.55,-288.5 245.55,-292 255.55,-295.5 255.55,-288.5"/>
</g>
<!-- :core:logging:api -->
<g id="node14" class="node">
<title>:core:logging:api</title>
<ellipse fill="#b59aff" stroke="black" cx="471.04" cy="-18" rx="88.28" ry="18"/>
<text text-anchor="middle" x="471.04" y="-14.3" font-family="Times,serif" font-size="14.00">:core:logging:api</text>
</g>
<!-- :ui:common&#45;&gt;:core:logging:api -->
<g id="edge22" class="edge">
<title>:ui:common&#45;&gt;:core:logging:api</title>
<path fill="none" stroke="black" stroke-dasharray="1,5" d="M406.97,-553C454.23,-553 521.81,-553 521.81,-553 521.81,-553 521.81,-42.87 521.81,-42.87"/>
<polygon fill="black" stroke="black" points="525.31,-42.87 521.81,-32.87 518.31,-42.87 525.31,-42.87"/>
</g>
<!-- :data:musicbrainz&#45;&gt;:shared:domain -->
<g id="edge24" class="edge">
<title>:data:musicbrainz&#45;&gt;:shared:domain</title>
<path fill="none" stroke="black" stroke-dasharray="1,5" d="M723.41,-142.84C723.41,-142.84 723.41,-45.89 723.41,-45.89"/>
<polygon fill="black" stroke="black" points="726.91,-45.89 723.41,-35.89 719.91,-45.89 726.91,-45.89"/>
</g>
<!-- :data:musicbrainz&#45;&gt;:core:logging:api -->
<g id="edge25" class="edge">
<title>:data:musicbrainz&#45;&gt;:core:logging:api</title>
<path fill="none" stroke="black" stroke-dasharray="1,5" d="M564.79,-149C555.88,-149 550.03,-149 550.03,-149 550.03,-149 550.03,-36.19 550.03,-36.19"/>
<polygon fill="black" stroke="black" points="553.53,-36.19 550.03,-26.19 546.53,-36.19 553.53,-36.19"/>
</g>
<!-- :data:coverart&#45;&gt;:test&#45;data -->
<g id="edge29" class="edge">
<title>:data:coverart&#45;&gt;:test&#45;data</title>
<path fill="none" stroke="#ff9ab1" stroke-dasharray="1,5" d="M767.46,-446.63C767.46,-446.63 767.46,-538.87 767.46,-538.87"/>
<polygon fill="#ff9ab1" stroke="#ff9ab1" points="763.96,-538.87 767.46,-548.87 770.96,-538.87 763.96,-538.87"/>
</g>
<!-- :data:coverart&#45;&gt;:shared:domain -->
<g id="edge26" class="edge">
<title>:data:coverart&#45;&gt;:shared:domain</title>
<path fill="none" stroke="black" stroke-dasharray="1,5" d="M754.19,-410.81C754.19,-410.81 754.19,-43.73 754.19,-43.73"/>
<polygon fill="black" stroke="black" points="757.69,-43.73 754.19,-33.73 750.69,-43.73 757.69,-43.73"/>
</g>
<!-- :data:coverart&#45;&gt;:data:musicbrainz -->
<g id="edge30" class="edge">
<title>:data:coverart&#45;&gt;:data:musicbrainz</title>
<path fill="none" stroke="#ff9ab1" stroke-dasharray="1,5" d="M709.82,-413.48C709.82,-413.48 709.82,-179.35 709.82,-179.35"/>
<polygon fill="#ff9ab1" stroke="#ff9ab1" points="713.32,-179.35 709.82,-169.35 706.32,-179.35 713.32,-179.35"/>
</g>
<!-- :data:coverart&#45;&gt;:data:database -->
<g id="edge31" class="edge">
<title>:data:coverart&#45;&gt;:data:database</title>
<path fill="none" stroke="#ff9ab1" stroke-dasharray="1,5" d="M793.42,-414.34C793.42,-414.34 793.42,-316.56 793.42,-316.56"/>
<polygon fill="#ff9ab1" stroke="#ff9ab1" points="796.92,-316.56 793.42,-306.56 789.92,-316.56 796.92,-316.56"/>
</g>
<!-- :data:coverart&#45;&gt;:core:coroutines -->
<g id="edge28" class="edge">
<title>:data:coverart&#45;&gt;:core:coroutines</title>
<path fill="none" stroke="black" stroke-dasharray="1,5" d="M757.97,-411.06C757.97,-349.26 757.97,-149 757.97,-149 757.97,-149 835.45,-149 835.45,-149"/>
<polygon fill="black" stroke="black" points="835.45,-152.5 845.45,-149 835.45,-145.5 835.45,-152.5"/>
</g>
<!-- :data:coverart&#45;&gt;:core:logging:api -->
<g id="edge27" class="edge">
<title>:data:coverart&#45;&gt;:core:logging:api</title>
<path fill="none" stroke="black" stroke-dasharray="1,5" d="M672.91,-429C613.38,-429 540.62,-429 540.62,-429 540.62,-429 540.62,-39.42 540.62,-39.42"/>
<polygon fill="black" stroke="black" points="544.12,-39.42 540.62,-29.42 537.12,-39.42 544.12,-39.42"/>
</g>
<!-- :data:spotify&#45;&gt;:shared:domain -->
<g id="edge32" class="edge">
<title>:data:spotify&#45;&gt;:shared:domain</title>
<path fill="none" stroke="black" stroke-dasharray="1,5" d="M412.18,-143.85C412.18,-118.95 412.18,-61 412.18,-61 412.18,-61 653.73,-61 653.73,-61 653.73,-61 653.73,-40.67 653.73,-40.67"/>
<polygon fill="black" stroke="black" points="657.23,-40.67 653.73,-30.67 650.23,-40.67 657.23,-40.67"/>
</g>
<!-- :data:spotify&#45;&gt;:core:logging:api -->
<g id="edge33" class="edge">
<title>:data:spotify&#45;&gt;:core:logging:api</title>
<path fill="none" stroke="black" stroke-dasharray="1,5" d="M397.41,-140.08C397.41,-140.08 397.41,-38.26 397.41,-38.26"/>
<polygon fill="black" stroke="black" points="400.91,-38.26 397.41,-28.26 393.91,-38.26 400.91,-38.26"/>
</g>
<!-- :data:database&#45;&gt;:shared:domain -->
<g id="edge34" class="edge">
<title>:data:database&#45;&gt;:shared:domain</title>
<path fill="none" stroke="black" stroke-dasharray="1,5" d="M784.31,-279.15C784.31,-279.15 784.31,-37.27 784.31,-37.27"/>
<polygon fill="black" stroke="black" points="787.81,-37.27 784.31,-27.27 780.81,-37.27 787.81,-37.27"/>
</g>
<!-- :data:database&#45;&gt;:data:musicbrainz -->
<g id="edge36" class="edge">
<title>:data:database&#45;&gt;:data:musicbrainz</title>
<path fill="none" stroke="black" stroke-dasharray="1,5" d="M773.03,-282.58C773.03,-252.54 773.03,-161 773.03,-161 773.03,-161 751.51,-161 751.51,-161"/>
<polygon fill="black" stroke="black" points="751.51,-157.5 741.51,-161 751.51,-164.5 751.51,-157.5"/>
</g>
<!-- :data:database&#45;&gt;:core:coroutines -->
<g id="edge35" class="edge">
<title>:data:database&#45;&gt;:core:coroutines</title>
<path fill="none" stroke="black" stroke-dasharray="1,5" d="M880.62,-276.28C880.62,-276.28 880.62,-180.53 880.62,-180.53"/>
<polygon fill="black" stroke="black" points="884.12,-180.53 880.62,-170.53 877.12,-180.53 884.12,-180.53"/>
</g>
<!-- :shared:strings -->
<g id="node15" class="node">
<title>:shared:strings</title>
<ellipse fill="#b59aff" stroke="black" cx="152.04" cy="-155" rx="81.49" ry="18"/>
<text text-anchor="middle" x="152.04" y="-151.3" font-family="Times,serif" font-size="14.00">:shared:strings</text>
</g>
<!-- :ui:core&#45;&gt;:shared:strings -->
<g id="edge37" class="edge">
<title>:ui:core&#45;&gt;:shared:strings</title>
<path fill="none" stroke="black" d="M193.92,-274.09C193.92,-274.09 193.92,-180.79 193.92,-180.79"/>
<polygon fill="black" stroke="black" points="197.42,-180.79 193.92,-170.79 190.42,-180.79 197.42,-180.79"/>
</g>
</g>
</svg>
