<?xml version="1.0" encoding="UTF-8" standalone="no"?>
<!DOCTYPE svg PUBLIC "-//W3C//DTD SVG 1.1//EN"
 "http://www.w3.org/Graphics/SVG/1.1/DTD/svg11.dtd">
<!-- Generated by graphviz version 2.43.0 (0)
 -->
<!-- Title: %3 Pages: 1 -->
<svg width="1166pt" height="1077pt"
 viewBox="0.00 0.00 1165.94 1077.00" xmlns="http://www.w3.org/2000/svg" xmlns:xlink="http://www.w3.org/1999/xlink">
<g id="graph0" class="graph" transform="scale(1 1) rotate(0) translate(4 1073)">
<title>%3</title>
<polygon fill="white" stroke="transparent" points="-4,4 -4,-1073 1161.94,-1073 1161.94,4 -4,4"/>
<text text-anchor="middle" x="578.97" y="-1041" font-family="Times,serif" font-size="30.00">Dependencies</text>
<text text-anchor="middle" x="578.97" y="-1008" font-family="Times,serif" font-size="30.00"> </text>
<!-- :shared:feature:images -->
<g id="node1" class="node">
<title>:shared:feature:images</title>
<polygon fill="#b59aff" stroke="black" points="449.04,-995 267.04,-995 267.04,-959 449.04,-959 449.04,-995"/>
<text text-anchor="middle" x="358.04" y="-973.3" font-family="Times,serif" font-size="14.00">:shared:feature:images</text>
</g>
<!-- :test:image -->
<g id="node2" class="node">
<title>:test:image</title>
<ellipse fill="#9affb5" stroke="black" cx="63.04" cy="-566" rx="63.09" ry="18"/>
<text text-anchor="middle" x="63.04" y="-562.3" font-family="Times,serif" font-size="14.00">:test:image</text>
</g>
<!-- :shared:feature:images&#45;&gt;:test:image -->
<g id="edge1" class="edge">
<title>:shared:feature:images&#45;&gt;:test:image</title>
<path fill="none" stroke="black" stroke-dasharray="1,5" d="M266.68,-977C165.69,-977 17.1,-977 17.1,-977 17.1,-977 17.1,-588.75 17.1,-588.75"/>
<polygon fill="black" stroke="black" points="20.6,-588.75 17.1,-578.75 13.6,-588.75 20.6,-588.75"/>
</g>
<!-- :test&#45;data -->
<g id="node3" class="node">
<title>:test&#45;data</title>
<ellipse fill="#b59aff" stroke="black" cx="776.04" cy="-703" rx="55.49" ry="18"/>
<text text-anchor="middle" x="776.04" y="-699.3" font-family="Times,serif" font-size="14.00">:test&#45;data</text>
</g>
<!-- :shared:feature:images&#45;&gt;:test&#45;data -->
<g id="edge2" class="edge">
<title>:shared:feature:images&#45;&gt;:test&#45;data</title>
<path fill="none" stroke="#ff9ab1" stroke-dasharray="1,5" d="M449.26,-983C572.25,-983 776.04,-983 776.04,-983 776.04,-983 776.04,-731.37 776.04,-731.37"/>
<polygon fill="#ff9ab1" stroke="#ff9ab1" points="779.54,-731.37 776.04,-721.37 772.54,-731.37 779.54,-731.37"/>
</g>
<!-- :ui:test:screenshot -->
<g id="node4" class="node">
<title>:ui:test:screenshot</title>
<ellipse fill="#9affb5" stroke="black" cx="131.04" cy="-703" rx="96.68" ry="18"/>
<text text-anchor="middle" x="131.04" y="-699.3" font-family="Times,serif" font-size="14.00">:ui:test:screenshot</text>
</g>
<!-- :shared:feature:images&#45;&gt;:ui:test:screenshot -->
<g id="edge3" class="edge">
<title>:shared:feature:images&#45;&gt;:ui:test:screenshot</title>
<path fill="none" stroke="#ff9ab1" stroke-dasharray="1,5" d="M272.73,-958.6C272.73,-897.16 272.73,-703 272.73,-703 272.73,-703 237.9,-703 237.9,-703"/>
<polygon fill="#ff9ab1" stroke="#ff9ab1" points="237.9,-699.5 227.9,-703 237.9,-706.5 237.9,-699.5"/>
</g>
<!-- :shared:domain -->
<g id="node5" class="node">
<title>:shared:domain</title>
<ellipse fill="#b59aff" stroke="black" cx="619.04" cy="-155" rx="82.59" ry="18"/>
<text text-anchor="middle" x="619.04" y="-151.3" font-family="Times,serif" font-size="14.00">:shared:domain</text>
</g>
<!-- :shared:feature:images&#45;&gt;:shared:domain -->
<g id="edge4" class="edge">
<title>:shared:feature:images&#45;&gt;:shared:domain</title>
<path fill="none" stroke="black" stroke-dasharray="1,5" d="M449.14,-971C535.98,-971 653.61,-971 653.61,-971 653.61,-971 653.61,-181.67 653.61,-181.67"/>
<polygon fill="black" stroke="black" points="657.11,-181.67 653.61,-171.67 650.11,-181.67 657.11,-181.67"/>
</g>
<!-- :ui:image -->
<g id="node6" class="node">
<title>:ui:image</title>
<ellipse fill="#b59aff" stroke="black" cx="338.04" cy="-703" rx="53.89" ry="18"/>
<text text-anchor="middle" x="338.04" y="-699.3" font-family="Times,serif" font-size="14.00">:ui:image</text>
</g>
<!-- :shared:feature:images&#45;&gt;:ui:image -->
<g id="edge5" class="edge">
<title>:shared:feature:images&#45;&gt;:ui:image</title>
<path fill="none" stroke="black" stroke-dasharray="1,5" d="M311.9,-958.6C311.9,-958.6 311.9,-728.88 311.9,-728.88"/>
<polygon fill="black" stroke="black" points="315.4,-728.88 311.9,-718.88 308.4,-728.88 315.4,-728.88"/>
</g>
<!-- :ui:common -->
<g id="node7" class="node">
<title>:ui:common</title>
<ellipse fill="#b59aff" stroke="black" cx="404.04" cy="-840" rx="64.19" ry="18"/>
<text text-anchor="middle" x="404.04" y="-836.3" font-family="Times,serif" font-size="14.00">:ui:common</text>
</g>
<!-- :shared:feature:images&#45;&gt;:ui:common -->
<g id="edge6" class="edge">
<title>:shared:feature:images&#45;&gt;:ui:common</title>
<path fill="none" stroke="black" stroke-dasharray="1,5" d="M394.37,-958.81C394.37,-958.81 394.37,-867.83 394.37,-867.83"/>
<polygon fill="black" stroke="black" points="397.87,-867.83 394.37,-857.83 390.87,-867.83 397.87,-867.83"/>
</g>
<!-- :test&#45;data&#45;&gt;:shared:domain -->
<g id="edge7" class="edge">
<title>:test&#45;data&#45;&gt;:shared:domain</title>
<path fill="none" stroke="black" stroke-dasharray="1,5" d="M732.3,-692C700.46,-692 662.89,-692 662.89,-692 662.89,-692 662.89,-180.49 662.89,-180.49"/>
<polygon fill="black" stroke="black" points="666.39,-180.49 662.89,-170.49 659.39,-180.49 666.39,-180.49"/>
</g>
<!-- :core:coroutines -->
<g id="node8" class="node">
<title>:core:coroutines</title>
<ellipse fill="#b59aff" stroke="black" cx="748.04" cy="-18" rx="85.29" ry="18"/>
<text text-anchor="middle" x="748.04" y="-14.3" font-family="Times,serif" font-size="14.00">:core:coroutines</text>
</g>
<!-- :test&#45;data&#45;&gt;:core:coroutines -->
<g id="edge8" class="edge">
<title>:test&#45;data&#45;&gt;:core:coroutines</title>
<path fill="none" stroke="black" stroke-dasharray="1,5" d="M721.56,-706C635.32,-706 477.07,-706 477.07,-706 477.07,-706 477.07,-24 477.07,-24 477.07,-24 657.48,-24 657.48,-24"/>
<polygon fill="black" stroke="black" points="657.48,-27.5 667.48,-24 657.48,-20.5 657.48,-27.5"/>
</g>
<!-- :data:database -->
<g id="node9" class="node">
<title>:data:database</title>
<ellipse fill="#b59aff" stroke="black" cx="565.04" cy="-429" rx="79.09" ry="18"/>
<text text-anchor="middle" x="565.04" y="-425.3" font-family="Times,serif" font-size="14.00">:data:database</text>
</g>
<!-- :test&#45;data&#45;&gt;:data:database -->
<g id="edge9" class="edge">
<title>:test&#45;data&#45;&gt;:data:database</title>
<path fill="none" stroke="black" stroke-dasharray="1,5" d="M721.98,-699C659.46,-699 565.04,-699 565.04,-699 565.04,-699 565.04,-457.13 565.04,-457.13"/>
<polygon fill="black" stroke="black" points="568.54,-457.13 565.04,-447.13 561.54,-457.13 568.54,-457.13"/>
</g>
<!-- :data:musicbrainz -->
<g id="node10" class="node">
<title>:data:musicbrainz</title>
<ellipse fill="#b59aff" stroke="black" cx="870.04" cy="-292" rx="93.68" ry="18"/>
<text text-anchor="middle" x="870.04" y="-288.3" font-family="Times,serif" font-size="14.00">:data:musicbrainz</text>
</g>
<!-- :test&#45;data&#45;&gt;:data:musicbrainz -->
<g id="edge10" class="edge">
<title>:test&#45;data&#45;&gt;:data:musicbrainz</title>
<path fill="none" stroke="black" stroke-dasharray="1,5" d="M828.14,-697C864.99,-697 907.86,-697 907.86,-697 907.86,-697 907.86,-318.63 907.86,-318.63"/>
<polygon fill="black" stroke="black" points="911.36,-318.63 907.86,-308.63 904.36,-318.63 911.36,-318.63"/>
</g>
<!-- :data:coverart -->
<g id="node11" class="node">
<title>:data:coverart</title>
<ellipse fill="#b59aff" stroke="black" cx="776.04" cy="-566" rx="76.09" ry="18"/>
<text text-anchor="middle" x="776.04" y="-562.3" font-family="Times,serif" font-size="14.00">:data:coverart</text>
</g>
<!-- :test&#45;data&#45;&gt;:data:coverart -->
<g id="edge11" class="edge">
<title>:test&#45;data&#45;&gt;:data:coverart</title>
<path fill="none" stroke="black" stroke-dasharray="1,5" d="M757.63,-685.93C757.63,-685.93 757.63,-593.72 757.63,-593.72"/>
<polygon fill="black" stroke="black" points="761.13,-593.72 757.63,-583.72 754.13,-593.72 761.13,-593.72"/>
</g>
<!-- :data:spotify -->
<g id="node12" class="node">
<title>:data:spotify</title>
<ellipse fill="#b59aff" stroke="black" cx="1089.04" cy="-292" rx="68.79" ry="18"/>
<text text-anchor="middle" x="1089.04" y="-288.3" font-family="Times,serif" font-size="14.00">:data:spotify</text>
</g>
<!-- :test&#45;data&#45;&gt;:data:spotify -->
<g id="edge12" class="edge">
<title>:test&#45;data&#45;&gt;:data:spotify</title>
<path fill="none" stroke="black" stroke-dasharray="1,5" d="M828.43,-709C917.54,-709 1089.04,-709 1089.04,-709 1089.04,-709 1089.04,-320.19 1089.04,-320.19"/>
<polygon fill="black" stroke="black" points="1092.54,-320.19 1089.04,-310.19 1085.54,-320.19 1092.54,-320.19"/>
</g>
<!-- :ui:test:screenshot&#45;&gt;:test:image -->
<g id="edge14" class="edge">
<title>:ui:test:screenshot&#45;&gt;:test:image</title>
<path fill="none" stroke="black" stroke-dasharray="1,5" d="M80.15,-687.55C80.15,-687.55 80.15,-593.77 80.15,-593.77"/>
<polygon fill="black" stroke="black" points="83.65,-593.77 80.15,-583.77 76.65,-593.77 83.65,-593.77"/>
</g>
<!-- :ui:core -->
<g id="node13" class="node">
<title>:ui:core</title>
<ellipse fill="#b59aff" stroke="black" cx="246.04" cy="-566" rx="45.49" ry="18"/>
<text text-anchor="middle" x="246.04" y="-562.3" font-family="Times,serif" font-size="14.00">:ui:core</text>
</g>
<!-- :ui:test:screenshot&#45;&gt;:ui:core -->
<g id="edge13" class="edge">
<title>:ui:test:screenshot&#45;&gt;:ui:core</title>
<path fill="none" stroke="black" stroke-dasharray="1,5" d="M214.22,-693.58C214.22,-693.58 214.22,-588.99 214.22,-588.99"/>
<polygon fill="black" stroke="black" points="217.72,-588.99 214.22,-578.99 210.72,-588.99 217.72,-588.99"/>
</g>
<!-- :ui:image&#45;&gt;:shared:domain -->
<g id="edge15" class="edge">
<title>:ui:image&#45;&gt;:shared:domain</title>
<path fill="none" stroke="black" stroke-dasharray="1,5" d="M354.14,-685.81C354.14,-592.3 354.14,-149 354.14,-149 354.14,-149 531,-149 531,-149"/>
<polygon fill="black" stroke="black" points="531,-152.5 541,-149 531,-145.5 531,-152.5"/>
</g>
<!-- :ui:image&#45;&gt;:ui:core -->
<g id="edge16" class="edge">
<title>:ui:image&#45;&gt;:ui:core</title>
<path fill="none" stroke="black" stroke-dasharray="1,5" d="M287.82,-696.39C287.82,-696.39 287.82,-583.19 287.82,-583.19"/>
<polygon fill="black" stroke="black" points="291.32,-583.19 287.82,-573.19 284.32,-583.19 291.32,-583.19"/>
</g>
<!-- :ui:common&#45;&gt;:test&#45;data -->
<g id="edge17" class="edge">
<title>:ui:common&#45;&gt;:test&#45;data</title>
<path fill="none" stroke="#ff9ab1" stroke-dasharray="1,5" d="M449.29,-826.89C449.29,-794.44 449.29,-713 449.29,-713 449.29,-713 719.92,-713 719.92,-713"/>
<polygon fill="#ff9ab1" stroke="#ff9ab1" points="719.92,-716.5 729.92,-713 719.92,-709.5 719.92,-716.5"/>
</g>
<!-- :ui:common&#45;&gt;:ui:test:screenshot -->
<g id="edge18" class="edge">
<title>:ui:common&#45;&gt;:ui:test:screenshot</title>
<path fill="none" stroke="#ff9ab1" stroke-dasharray="1,5" d="M343.12,-846C262.66,-846 131.04,-846 131.04,-846 131.04,-846 131.04,-731.11 131.04,-731.11"/>
<polygon fill="#ff9ab1" stroke="#ff9ab1" points="134.54,-731.11 131.04,-721.11 127.54,-731.11 134.54,-731.11"/>
</g>
<!-- :ui:common&#45;&gt;:shared:domain -->
<g id="edge20" class="edge">
<title>:ui:common&#45;&gt;:shared:domain</title>
<path fill="none" stroke="black" d="M430.19,-823.55C430.19,-719.86 430.19,-161 430.19,-161 430.19,-161 531.14,-161 531.14,-161"/>
<polygon fill="black" stroke="black" points="531.14,-164.5 541.14,-161 531.14,-157.5 531.14,-164.5"/>
</g>
<!-- :ui:common&#45;&gt;:ui:image -->
<g id="edge23" class="edge">
<title>:ui:common&#45;&gt;:ui:image</title>
<path fill="none" stroke="black" stroke-dasharray="1,5" d="M365.84,-825.34C365.84,-825.34 365.84,-728.82 365.84,-728.82"/>
<polygon fill="black" stroke="black" points="369.34,-728.82 365.84,-718.82 362.34,-728.82 369.34,-728.82"/>
</g>
<!-- :ui:common&#45;&gt;:core:coroutines -->
<g id="edge19" class="edge">
<title>:ui:common&#45;&gt;:core:coroutines</title>
<path fill="none" stroke="#ff9ab1" stroke-dasharray="1,5" d="M411.09,-821.94C411.09,-700.85 411.09,-12 411.09,-12 411.09,-12 657.76,-12 657.76,-12"/>
<polygon fill="#ff9ab1" stroke="#ff9ab1" points="657.76,-15.5 667.76,-12 657.76,-8.5 657.76,-15.5"/>
</g>
<!-- :ui:common&#45;&gt;:ui:core -->
<g id="edge21" class="edge">
<title>:ui:common&#45;&gt;:ui:core</title>
<path fill="none" stroke="black" d="M343.07,-834C311.06,-834 278.41,-834 278.41,-834 278.41,-834 278.41,-588.93 278.41,-588.93"/>
<polygon fill="black" stroke="black" points="281.91,-588.93 278.41,-578.93 274.91,-588.93 281.91,-588.93"/>
</g>
<!-- :core:logging:api -->
<g id="node14" class="node">
<title>:core:logging:api</title>
<ellipse fill="#b59aff" stroke="black" cx="992.04" cy="-155" rx="88.28" ry="18"/>
<text text-anchor="middle" x="992.04" y="-151.3" font-family="Times,serif" font-size="14.00">:core:logging:api</text>
</g>
<!-- :ui:common&#45;&gt;:core:logging:api -->
<g id="edge22" class="edge">
<title>:ui:common&#45;&gt;:core:logging:api</title>
<path fill="none" stroke="black" stroke-dasharray="1,5" d="M468.53,-840C622.97,-840 1001.31,-840 1001.31,-840 1001.31,-840 1001.31,-182.97 1001.31,-182.97"/>
<polygon fill="black" stroke="black" points="1004.81,-182.97 1001.31,-172.97 997.81,-182.97 1004.81,-182.97"/>
</g>
<!-- :data:database&#45;&gt;:shared:domain -->
<g id="edge24" class="edge">
<title>:data:database&#45;&gt;:shared:domain</title>
<path fill="none" stroke="black" stroke-dasharray="1,5" d="M590.42,-411.86C590.42,-411.86 590.42,-182.13 590.42,-182.13"/>
<polygon fill="black" stroke="black" points="593.92,-182.13 590.42,-172.13 586.92,-182.13 593.92,-182.13"/>
</g>
<!-- :data:database&#45;&gt;:core:coroutines -->
<g id="edge25" class="edge">
<title>:data:database&#45;&gt;:core:coroutines</title>
<path fill="none" stroke="black" stroke-dasharray="1,5" d="M634.05,-420C675.51,-420 720.3,-420 720.3,-420 720.3,-420 720.3,-45.27 720.3,-45.27"/>
<polygon fill="black" stroke="black" points="723.8,-45.27 720.3,-35.27 716.8,-45.27 723.8,-45.27"/>
</g>
<!-- :data:database&#45;&gt;:data:musicbrainz -->
<g id="edge26" class="edge">
<title>:data:database&#45;&gt;:data:musicbrainz</title>
<path fill="none" stroke="black" stroke-dasharray="1,5" d="M644.49,-429C713.23,-429 801.66,-429 801.66,-429 801.66,-429 801.66,-314.64 801.66,-314.64"/>
<polygon fill="black" stroke="black" points="805.16,-314.64 801.66,-304.64 798.16,-314.64 805.16,-314.64"/>
</g>
<!-- :data:musicbrainz&#45;&gt;:shared:domain -->
<g id="edge27" class="edge">
<title>:data:musicbrainz&#45;&gt;:shared:domain</title>
<path fill="none" stroke="black" stroke-dasharray="1,5" d="M776.3,-292C728.97,-292 681.45,-292 681.45,-292 681.45,-292 681.45,-177.16 681.45,-177.16"/>
<polygon fill="black" stroke="black" points="684.95,-177.16 681.45,-167.16 677.95,-177.16 684.95,-177.16"/>
</g>
<!-- :data:musicbrainz&#45;&gt;:core:logging:api -->
<g id="edge28" class="edge">
<title>:data:musicbrainz&#45;&gt;:core:logging:api</title>
<path fill="none" stroke="black" stroke-dasharray="1,5" d="M933.64,-278.61C933.64,-278.61 933.64,-178.64 933.64,-178.64"/>
<polygon fill="black" stroke="black" points="937.14,-178.64 933.64,-168.64 930.14,-178.64 937.14,-178.64"/>
</g>
<!-- :data:coverart&#45;&gt;:test&#45;data -->
<g id="edge32" class="edge">
<title>:data:coverart&#45;&gt;:test&#45;data</title>
<path fill="none" stroke="#ff9ab1" stroke-dasharray="1,5" d="M794.46,-583.63C794.46,-583.63 794.46,-675.87 794.46,-675.87"/>
<polygon fill="#ff9ab1" stroke="#ff9ab1" points="790.96,-675.87 794.46,-685.87 797.96,-675.87 790.96,-675.87"/>
</g>
<!-- :data:coverart&#45;&gt;:shared:domain -->
<g id="edge29" class="edge">
<title>:data:coverart&#45;&gt;:shared:domain</title>
<path fill="none" stroke="black" stroke-dasharray="1,5" d="M699.73,-566C684.03,-566 672.17,-566 672.17,-566 672.17,-566 672.17,-179.15 672.17,-179.15"/>
<polygon fill="black" stroke="black" points="675.67,-179.15 672.17,-169.15 668.67,-179.15 675.67,-179.15"/>
</g>
<!-- :data:coverart&#45;&gt;:core:coroutines -->
<g id="edge31" class="edge">
<title>:data:coverart&#45;&gt;:core:coroutines</title>
<path fill="none" stroke="black" stroke-dasharray="1,5" d="M757.74,-548.39C757.74,-548.39 757.74,-46.1 757.74,-46.1"/>
<polygon fill="black" stroke="black" points="761.24,-46.1 757.74,-36.1 754.24,-46.1 761.24,-46.1"/>
</g>
<!-- :data:coverart&#45;&gt;:data:database -->
<g id="edge34" class="edge">
<title>:data:coverart&#45;&gt;:data:database</title>
<path fill="none" stroke="#ff9ab1" stroke-dasharray="1,5" d="M739.02,-550.05C739.02,-515.73 739.02,-438 739.02,-438 739.02,-438 643.8,-438 643.8,-438"/>
<polygon fill="#ff9ab1" stroke="#ff9ab1" points="643.8,-434.5 633.8,-438 643.8,-441.5 643.8,-434.5"/>
</g>
<!-- :data:coverart&#45;&gt;:data:musicbrainz -->
<g id="edge33" class="edge">
<title>:data:coverart&#45;&gt;:data:musicbrainz</title>
<path fill="none" stroke="#ff9ab1" stroke-dasharray="1,5" d="M826.88,-552.41C826.88,-552.41 826.88,-318.03 826.88,-318.03"/>
<polygon fill="#ff9ab1" stroke="#ff9ab1" points="830.38,-318.03 826.88,-308.03 823.38,-318.03 830.38,-318.03"/>
</g>
<!-- :data:coverart&#45;&gt;:core:logging:api -->
<g id="edge30" class="edge">
<title>:data:coverart&#45;&gt;:core:logging:api</title>
<path fill="none" stroke="black" stroke-dasharray="1,5" d="M852.32,-566C911.13,-566 982.47,-566 982.47,-566 982.47,-566 982.47,-182.92 982.47,-182.92"/>
<polygon fill="black" stroke="black" points="985.97,-182.92 982.47,-172.92 978.97,-182.92 985.97,-182.92"/>
</g>
<!-- :data:spotify&#45;&gt;:shared:domain -->
<g id="edge35" class="edge">
<title>:data:spotify&#45;&gt;:shared:domain</title>
<path fill="none" stroke="black" stroke-dasharray="1,5" d="M1040.25,-279.02C1040.25,-259.03 1040.25,-223 1040.25,-223 1040.25,-223 690.72,-223 690.72,-223 690.72,-223 690.72,-174.17 690.72,-174.17"/>
<polygon fill="black" stroke="black" points="694.22,-174.17 690.72,-164.17 687.22,-174.17 694.22,-174.17"/>
</g>
<!-- :data:spotify&#45;&gt;:core:logging:api -->
<g id="edge36" class="edge">
<title>:data:spotify&#45;&gt;:core:logging:api</title>
<path fill="none" stroke="black" stroke-dasharray="1,5" d="M1060.34,-275.47C1060.34,-275.47 1060.34,-176.78 1060.34,-176.78"/>
<polygon fill="black" stroke="black" points="1063.84,-176.78 1060.34,-166.78 1056.84,-176.78 1063.84,-176.78"/>
</g>
<!-- :shared:strings -->
<g id="node15" class="node">
<title>:shared:strings</title>
<ellipse fill="#b59aff" stroke="black" cx="235.04" cy="-429" rx="81.49" ry="18"/>
<text text-anchor="middle" x="235.04" y="-425.3" font-family="Times,serif" font-size="14.00">:shared:strings</text>
</g>
<!-- :ui:core&#45;&gt;:shared:strings -->
<g id="edge37" class="edge">
<title>:ui:core&#45;&gt;:shared:strings</title>
<path fill="none" stroke="black" d="M246.04,-547.81C246.04,-547.81 246.04,-457.27 246.04,-457.27"/>
<polygon fill="black" stroke="black" points="249.54,-457.27 246.04,-447.27 242.54,-457.27 249.54,-457.27"/>
</g>
<!-- :core:logging:api&#45;&gt;:core:coroutines -->
<g id="edge38" class="edge">
<title>:core:logging:api&#45;&gt;:core:coroutines</title>
<path fill="none" stroke="black" d="M903.64,-155C855.16,-155 804.82,-155 804.82,-155 804.82,-155 804.82,-41.64 804.82,-41.64"/>
<polygon fill="black" stroke="black" points="808.32,-41.64 804.82,-31.64 801.32,-41.64 808.32,-41.64"/>
</g>
</g>
</svg>
