<?xml version="1.0" encoding="UTF-8" standalone="no"?>
<!DOCTYPE svg PUBLIC "-//W3C//DTD SVG 1.1//EN"
 "http://www.w3.org/Graphics/SVG/1.1/DTD/svg11.dtd">
<!-- Generated by graphviz version 2.43.0 (0)
 -->
<!-- Title: %3 Pages: 1 -->
<svg width="1116pt" height="940pt"
 viewBox="0.00 0.00 1116.44 940.00" xmlns="http://www.w3.org/2000/svg" xmlns:xlink="http://www.w3.org/1999/xlink">
<g id="graph0" class="graph" transform="scale(1 1) rotate(0) translate(4 936)">
<title>%3</title>
<polygon fill="white" stroke="transparent" points="-4,4 -4,-936 1112.44,-936 1112.44,4 -4,4"/>
<text text-anchor="middle" x="554.22" y="-904" font-family="Times,serif" font-size="30.00">Dependencies</text>
<text text-anchor="middle" x="554.22" y="-871" font-family="Times,serif" font-size="30.00"> </text>
<!-- :shared:feature:images -->
<g id="node1" class="node">
<title>:shared:feature:images</title>
<polygon fill="#b59aff" stroke="black" points="307.04,-858 125.04,-858 125.04,-822 307.04,-822 307.04,-858"/>
<text text-anchor="middle" x="216.04" y="-836.3" font-family="Times,serif" font-size="14.00">:shared:feature:images</text>
</g>
<!-- :test:image -->
<g id="node2" class="node">
<title>:test:image</title>
<ellipse fill="#9affb5" stroke="black" cx="81.04" cy="-429" rx="63.09" ry="18"/>
<text text-anchor="middle" x="81.04" y="-425.3" font-family="Times,serif" font-size="14.00">:test:image</text>
</g>
<!-- :shared:feature:images&#45;&gt;:test:image -->
<g id="edge1" class="edge">
<title>:shared:feature:images&#45;&gt;:test:image</title>
<path fill="none" stroke="black" stroke-dasharray="1,5" d="M222.99,-821.56C222.99,-750.31 222.99,-497 222.99,-497 222.99,-497 102.79,-497 102.79,-497 102.79,-497 102.79,-456.16 102.79,-456.16"/>
<polygon fill="black" stroke="black" points="106.29,-456.16 102.79,-446.16 99.29,-456.16 106.29,-456.16"/>
</g>
<!-- :test&#45;data -->
<g id="node3" class="node">
<title>:test&#45;data</title>
<ellipse fill="#b59aff" stroke="black" cx="585.04" cy="-566" rx="55.49" ry="18"/>
<text text-anchor="middle" x="585.04" y="-562.3" font-family="Times,serif" font-size="14.00">:test&#45;data</text>
</g>
<!-- :shared:feature:images&#45;&gt;:test&#45;data -->
<g id="edge2" class="edge">
<title>:shared:feature:images&#45;&gt;:test&#45;data</title>
<path fill="none" stroke="#ff9ab1" stroke-dasharray="1,5" d="M307.26,-840C416.53,-840 585.04,-840 585.04,-840 585.04,-840 585.04,-594.4 585.04,-594.4"/>
<polygon fill="#ff9ab1" stroke="#ff9ab1" points="588.54,-594.4 585.04,-584.4 581.54,-594.4 588.54,-594.4"/>
</g>
<!-- :ui:test:screenshot -->
<g id="node4" class="node">
<title>:ui:test:screenshot</title>
<ellipse fill="#9affb5" stroke="black" cx="117.04" cy="-566" rx="96.68" ry="18"/>
<text text-anchor="middle" x="117.04" y="-562.3" font-family="Times,serif" font-size="14.00">:ui:test:screenshot</text>
</g>
<!-- :shared:feature:images&#45;&gt;:ui:test:screenshot -->
<g id="edge3" class="edge">
<title>:shared:feature:images&#45;&gt;:ui:test:screenshot</title>
<path fill="none" stroke="#ff9ab1" stroke-dasharray="1,5" d="M154.66,-821.6C154.66,-821.6 154.66,-592.91 154.66,-592.91"/>
<polygon fill="#ff9ab1" stroke="#ff9ab1" points="158.16,-592.91 154.66,-582.91 151.16,-592.91 158.16,-592.91"/>
</g>
<!-- :shared:domain -->
<g id="node5" class="node">
<title>:shared:domain</title>
<ellipse fill="#b59aff" stroke="black" cx="519.04" cy="-18" rx="82.59" ry="18"/>
<text text-anchor="middle" x="519.04" y="-14.3" font-family="Times,serif" font-size="14.00">:shared:domain</text>
</g>
<!-- :shared:feature:images&#45;&gt;:shared:domain -->
<g id="edge4" class="edge">
<title>:shared:feature:images&#45;&gt;:shared:domain</title>
<path fill="none" stroke="black" stroke-dasharray="1,5" d="M124.74,-840C65.77,-840 0,-840 0,-840 0,-840 0,-5 0,-5 0,-5 451.51,-5 451.51,-5"/>
<polygon fill="black" stroke="black" points="451.51,-8.5 461.51,-5 451.51,-1.5 451.51,-8.5"/>
</g>
<!-- :ui:image -->
<g id="node6" class="node">
<title>:ui:image</title>
<ellipse fill="#b59aff" stroke="black" cx="286.04" cy="-566" rx="53.89" ry="18"/>
<text text-anchor="middle" x="286.04" y="-562.3" font-family="Times,serif" font-size="14.00">:ui:image</text>
</g>
<!-- :shared:feature:images&#45;&gt;:ui:image -->
<g id="edge5" class="edge">
<title>:shared:feature:images&#45;&gt;:ui:image</title>
<path fill="none" stroke="black" stroke-dasharray="1,5" d="M257.08,-821.6C257.08,-821.6 257.08,-591.21 257.08,-591.21"/>
<polygon fill="black" stroke="black" points="260.58,-591.21 257.08,-581.21 253.58,-591.21 260.58,-591.21"/>
</g>
<!-- :ui:common -->
<g id="node7" class="node">
<title>:ui:common</title>
<ellipse fill="#b59aff" stroke="black" cx="387.04" cy="-703" rx="64.19" ry="18"/>
<text text-anchor="middle" x="387.04" y="-699.3" font-family="Times,serif" font-size="14.00">:ui:common</text>
</g>
<!-- :shared:feature:images&#45;&gt;:ui:common -->
<g id="edge6" class="edge">
<title>:shared:feature:images&#45;&gt;:ui:common</title>
<path fill="none" stroke="black" stroke-dasharray="1,5" d="M282.06,-821.79C282.06,-785.79 282.06,-709 282.06,-709 282.06,-709 316.28,-709 316.28,-709"/>
<polygon fill="black" stroke="black" points="316.28,-712.5 326.28,-709 316.28,-705.5 316.28,-712.5"/>
</g>
<!-- :test&#45;data&#45;&gt;:shared:domain -->
<g id="edge7" class="edge">
<title>:test&#45;data&#45;&gt;:shared:domain</title>
<path fill="none" stroke="black" stroke-dasharray="1,5" d="M532.73,-560C476.88,-560 396.34,-560 396.34,-560 396.34,-560 396.34,-24 396.34,-24 396.34,-24 430.98,-24 430.98,-24"/>
<polygon fill="black" stroke="black" points="430.98,-27.5 440.98,-24 430.98,-20.5 430.98,-27.5"/>
</g>
<!-- :core:coroutines -->
<g id="node8" class="node">
<title>:core:coroutines</title>
<ellipse fill="#b59aff" stroke="black" cx="519.04" cy="-155" rx="85.29" ry="18"/>
<text text-anchor="middle" x="519.04" y="-151.3" font-family="Times,serif" font-size="14.00">:core:coroutines</text>
</g>
<!-- :test&#45;data&#45;&gt;:core:coroutines -->
<g id="edge8" class="edge">
<title>:test&#45;data&#45;&gt;:core:coroutines</title>
<path fill="none" stroke="black" stroke-dasharray="1,5" d="M535.78,-557.79C535.78,-557.79 535.78,-182.72 535.78,-182.72"/>
<polygon fill="black" stroke="black" points="539.28,-182.72 535.78,-172.72 532.28,-182.72 539.28,-182.72"/>
</g>
<!-- :data:database -->
<g id="node9" class="node">
<title>:data:database</title>
<ellipse fill="#b59aff" stroke="black" cx="627.04" cy="-292" rx="79.09" ry="18"/>
<text text-anchor="middle" x="627.04" y="-288.3" font-family="Times,serif" font-size="14.00">:data:database</text>
</g>
<!-- :test&#45;data&#45;&gt;:data:database -->
<g id="edge9" class="edge">
<title>:test&#45;data&#45;&gt;:data:database</title>
<path fill="none" stroke="black" stroke-dasharray="1,5" d="M580.38,-548.02C580.38,-548.02 580.38,-316.62 580.38,-316.62"/>
<polygon fill="black" stroke="black" points="583.88,-316.62 580.38,-306.62 576.88,-316.62 583.88,-316.62"/>
</g>
<!-- :data:musicbrainz -->
<g id="node10" class="node">
<title>:data:musicbrainz</title>
<ellipse fill="#b59aff" stroke="black" cx="792.04" cy="-155" rx="93.68" ry="18"/>
<text text-anchor="middle" x="792.04" y="-151.3" font-family="Times,serif" font-size="14.00">:data:musicbrainz</text>
</g>
<!-- :test&#45;data&#45;&gt;:data:musicbrainz -->
<g id="edge10" class="edge">
<title>:test&#45;data&#45;&gt;:data:musicbrainz</title>
<path fill="none" stroke="black" stroke-dasharray="1,5" d="M637.19,-560C707.87,-560 825.36,-560 825.36,-560 825.36,-560 825.36,-181.89 825.36,-181.89"/>
<polygon fill="black" stroke="black" points="828.86,-181.89 825.36,-171.89 821.86,-181.89 828.86,-181.89"/>
</g>
<!-- :data:coverart -->
<g id="node11" class="node">
<title>:data:coverart</title>
<ellipse fill="#b59aff" stroke="black" cx="689.04" cy="-429" rx="76.09" ry="18"/>
<text text-anchor="middle" x="689.04" y="-425.3" font-family="Times,serif" font-size="14.00">:data:coverart</text>
</g>
<!-- :test&#45;data&#45;&gt;:data:coverart -->
<g id="edge11" class="edge">
<title>:test&#45;data&#45;&gt;:data:coverart</title>
<path fill="none" stroke="black" stroke-dasharray="1,5" d="M622.1,-552.61C622.1,-552.61 622.1,-447.79 622.1,-447.79"/>
<polygon fill="black" stroke="black" points="625.6,-447.79 622.1,-437.79 618.6,-447.79 625.6,-447.79"/>
</g>
<!-- :data:spotify -->
<g id="node12" class="node">
<title>:data:spotify</title>
<ellipse fill="#b59aff" stroke="black" cx="972.04" cy="-155" rx="68.79" ry="18"/>
<text text-anchor="middle" x="972.04" y="-151.3" font-family="Times,serif" font-size="14.00">:data:spotify</text>
</g>
<!-- :test&#45;data&#45;&gt;:data:spotify -->
<g id="edge12" class="edge">
<title>:test&#45;data&#45;&gt;:data:spotify</title>
<path fill="none" stroke="black" stroke-dasharray="1,5" d="M637.24,-572C742.87,-572 972.04,-572 972.04,-572 972.04,-572 972.04,-183.19 972.04,-183.19"/>
<polygon fill="black" stroke="black" points="975.54,-183.19 972.04,-173.19 968.54,-183.19 975.54,-183.19"/>
</g>
<!-- :ui:test:screenshot&#45;&gt;:test:image -->
<g id="edge14" class="edge">
<title>:ui:test:screenshot&#45;&gt;:test:image</title>
<path fill="none" stroke="black" stroke-dasharray="1,5" d="M61.5,-551.08C61.5,-551.08 61.5,-456.48 61.5,-456.48"/>
<polygon fill="black" stroke="black" points="65,-456.48 61.5,-446.48 58,-456.48 65,-456.48"/>
</g>
<!-- :ui:core -->
<g id="node13" class="node">
<title>:ui:core</title>
<ellipse fill="#b59aff" stroke="black" cx="251.04" cy="-429" rx="45.49" ry="18"/>
<text text-anchor="middle" x="251.04" y="-425.3" font-family="Times,serif" font-size="14.00">:ui:core</text>
</g>
<!-- :ui:test:screenshot&#45;&gt;:ui:core -->
<g id="edge13" class="edge">
<title>:ui:test:screenshot&#45;&gt;:ui:core</title>
<path fill="none" stroke="black" stroke-dasharray="1,5" d="M209.72,-560.46C209.72,-560.46 209.72,-446.72 209.72,-446.72"/>
<polygon fill="black" stroke="black" points="213.22,-446.72 209.72,-436.72 206.22,-446.72 213.22,-446.72"/>
</g>
<!-- :ui:image&#45;&gt;:shared:domain -->
<g id="edge15" class="edge">
<title>:ui:image&#45;&gt;:shared:domain</title>
<path fill="none" stroke="black" stroke-dasharray="1,5" d="M321.14,-552.31C321.14,-466.99 321.14,-12 321.14,-12 321.14,-12 431.11,-12 431.11,-12"/>
<polygon fill="black" stroke="black" points="431.11,-15.5 441.11,-12 431.11,-8.5 431.11,-15.5"/>
</g>
<!-- :ui:image&#45;&gt;:ui:core -->
<g id="edge16" class="edge">
<title>:ui:image&#45;&gt;:ui:core</title>
<path fill="none" stroke="black" stroke-dasharray="1,5" d="M264.32,-549.47C264.32,-549.47 264.32,-456.45 264.32,-456.45"/>
<polygon fill="black" stroke="black" points="267.82,-456.45 264.32,-446.45 260.82,-456.45 267.82,-456.45"/>
</g>
<!-- :ui:common&#45;&gt;:test&#45;data -->
<g id="edge17" class="edge">
<title>:ui:common&#45;&gt;:test&#45;data</title>
<path fill="none" stroke="#ff9ab1" stroke-dasharray="1,5" d="M445.56,-695.2C445.56,-667 445.56,-572 445.56,-572 445.56,-572 522.71,-572 522.71,-572"/>
<polygon fill="#ff9ab1" stroke="#ff9ab1" points="522.71,-575.5 532.71,-572 522.71,-568.5 522.71,-575.5"/>
</g>
<!-- :ui:common&#45;&gt;:ui:test:screenshot -->
<g id="edge18" class="edge">
<title>:ui:common&#45;&gt;:ui:test:screenshot</title>
<path fill="none" stroke="#ff9ab1" stroke-dasharray="1,5" d="M326.21,-697C266.48,-697 184.27,-697 184.27,-697 184.27,-697 184.27,-589.04 184.27,-589.04"/>
<polygon fill="#ff9ab1" stroke="#ff9ab1" points="187.77,-589.04 184.27,-579.04 180.77,-589.04 187.77,-589.04"/>
</g>
<!-- :ui:common&#45;&gt;:shared:domain -->
<g id="edge20" class="edge">
<title>:ui:common&#45;&gt;:shared:domain</title>
<path fill="none" stroke="black" d="M377.55,-685.03C377.55,-576.95 377.55,-18 377.55,-18 377.55,-18 426.33,-18 426.33,-18"/>
<polygon fill="black" stroke="black" points="426.33,-21.5 436.33,-18 426.33,-14.5 426.33,-21.5"/>
</g>
<!-- :ui:common&#45;&gt;:ui:image -->
<g id="edge23" class="edge">
<title>:ui:common&#45;&gt;:ui:image</title>
<path fill="none" stroke="black" stroke-dasharray="1,5" d="M331.34,-693.58C331.34,-693.58 331.34,-585.85 331.34,-585.85"/>
<polygon fill="black" stroke="black" points="334.84,-585.85 331.34,-575.85 327.84,-585.85 334.84,-585.85"/>
</g>
<!-- :ui:common&#45;&gt;:core:coroutines -->
<g id="edge19" class="edge">
<title>:ui:common&#45;&gt;:core:coroutines</title>
<path fill="none" stroke="#ff9ab1" stroke-dasharray="1,5" d="M439.73,-692.54C439.73,-692.54 439.73,-171.55 439.73,-171.55"/>
<polygon fill="#ff9ab1" stroke="#ff9ab1" points="443.23,-171.55 439.73,-161.55 436.23,-171.55 443.23,-171.55"/>
</g>
<!-- :ui:common&#45;&gt;:ui:core -->
<g id="edge21" class="edge">
<title>:ui:common&#45;&gt;:ui:core</title>
<path fill="none" stroke="black" d="M358.77,-686.82C358.77,-629.29 358.77,-438 358.77,-438 358.77,-438 300.55,-438 300.55,-438"/>
<polygon fill="black" stroke="black" points="300.55,-434.5 290.55,-438 300.55,-441.5 300.55,-434.5"/>
</g>
<!-- :core:logging:api -->
<g id="node14" class="node">
<title>:core:logging:api</title>
<ellipse fill="#b59aff" stroke="black" cx="1020.04" cy="-18" rx="88.28" ry="18"/>
<text text-anchor="middle" x="1020.04" y="-14.3" font-family="Times,serif" font-size="14.00">:core:logging:api</text>
</g>
<!-- :ui:common&#45;&gt;:core:logging:api -->
<g id="edge22" class="edge">
<title>:ui:common&#45;&gt;:core:logging:api</title>
<path fill="none" stroke="black" stroke-dasharray="1,5" d="M451.54,-703C624.56,-703 1085.94,-703 1085.94,-703 1085.94,-703 1085.94,-40.18 1085.94,-40.18"/>
<polygon fill="black" stroke="black" points="1089.44,-40.18 1085.94,-30.18 1082.44,-40.18 1089.44,-40.18"/>
</g>
<!-- :data:database&#45;&gt;:shared:domain -->
<g id="edge24" class="edge">
<title>:data:database&#45;&gt;:shared:domain</title>
<path fill="none" stroke="black" stroke-dasharray="1,5" d="M651.32,-274.68C651.32,-215.95 651.32,-28 651.32,-28 651.32,-28 597.89,-28 597.89,-28"/>
<polygon fill="black" stroke="black" points="597.89,-24.5 587.89,-28 597.89,-31.5 597.89,-24.5"/>
</g>
<!-- :data:database&#45;&gt;:core:coroutines -->
<g id="edge25" class="edge">
<title>:data:database&#45;&gt;:core:coroutines</title>
<path fill="none" stroke="black" stroke-dasharray="1,5" d="M575.97,-278.11C575.97,-278.11 575.97,-178.52 575.97,-178.52"/>
<polygon fill="black" stroke="black" points="579.47,-178.52 575.97,-168.52 572.47,-178.52 579.47,-178.52"/>
</g>
<!-- :data:database&#45;&gt;:data:musicbrainz -->
<g id="edge26" class="edge">
<title>:data:database&#45;&gt;:data:musicbrainz</title>
<path fill="none" stroke="black" stroke-dasharray="1,5" d="M702.4,-286.11C702.4,-286.11 702.4,-170.41 702.4,-170.41"/>
<polygon fill="black" stroke="black" points="705.9,-170.41 702.4,-160.41 698.9,-170.41 705.9,-170.41"/>
</g>
<!-- :data:musicbrainz&#45;&gt;:shared:domain -->
<g id="edge27" class="edge">
<title>:data:musicbrainz&#45;&gt;:shared:domain</title>
<path fill="none" stroke="black" stroke-dasharray="1,5" d="M760.85,-138.03C760.85,-101.97 760.85,-21 760.85,-21 760.85,-21 610.57,-21 610.57,-21"/>
<polygon fill="black" stroke="black" points="610.57,-17.5 600.57,-21 610.57,-24.5 610.57,-17.5"/>
</g>
<!-- :data:musicbrainz&#45;&gt;:core:logging:api -->
<g id="edge28" class="edge">
<title>:data:musicbrainz&#45;&gt;:core:logging:api</title>
<path fill="none" stroke="black" stroke-dasharray="1,5" d="M823.24,-137.99C823.24,-100.49 823.24,-14 823.24,-14 823.24,-14 923.72,-14 923.72,-14"/>
<polygon fill="black" stroke="black" points="923.72,-17.5 933.72,-14 923.72,-10.5 923.72,-17.5"/>
</g>
<!-- :data:coverart&#45;&gt;:test&#45;data -->
<g id="edge32" class="edge">
<title>:data:coverart&#45;&gt;:test&#45;data</title>
<path fill="none" stroke="#ff9ab1" stroke-dasharray="1,5" d="M631.19,-441.16C631.19,-441.16 631.19,-545.95 631.19,-545.95"/>
<polygon fill="#ff9ab1" stroke="#ff9ab1" points="627.69,-545.95 631.19,-555.95 634.69,-545.95 627.69,-545.95"/>
</g>
<!-- :data:coverart&#45;&gt;:shared:domain -->
<g id="edge29" class="edge">
<title>:data:coverart&#45;&gt;:shared:domain</title>
<path fill="none" stroke="black" stroke-dasharray="1,5" d="M612.74,-429C531.69,-429 415.12,-429 415.12,-429 415.12,-429 415.12,-30 415.12,-30 415.12,-30 447.39,-30 447.39,-30"/>
<polygon fill="black" stroke="black" points="447.39,-33.5 457.39,-30 447.39,-26.5 447.39,-33.5"/>
</g>
<!-- :data:coverart&#45;&gt;:core:coroutines -->
<g id="edge31" class="edge">
<title>:data:coverart&#45;&gt;:core:coroutines</title>
<path fill="none" stroke="black" stroke-dasharray="1,5" d="M623.16,-420C583.95,-420 541.77,-420 541.77,-420 541.77,-420 541.77,-182.39 541.77,-182.39"/>
<polygon fill="black" stroke="black" points="545.27,-182.39 541.77,-172.39 538.27,-182.39 545.27,-182.39"/>
</g>
<!-- :data:coverart&#45;&gt;:data:database -->
<g id="edge34" class="edge">
<title>:data:coverart&#45;&gt;:data:database</title>
<path fill="none" stroke="#ff9ab1" stroke-dasharray="1,5" d="M659.67,-412.2C659.67,-412.2 659.67,-318.51 659.67,-318.51"/>
<polygon fill="#ff9ab1" stroke="#ff9ab1" points="663.17,-318.51 659.67,-308.51 656.17,-318.51 663.17,-318.51"/>
</g>
<!-- :data:coverart&#45;&gt;:data:musicbrainz -->
<g id="edge33" class="edge">
<title>:data:coverart&#45;&gt;:data:musicbrainz</title>
<path fill="none" stroke="#ff9ab1" stroke-dasharray="1,5" d="M735.71,-414.65C735.71,-414.65 735.71,-179.53 735.71,-179.53"/>
<polygon fill="#ff9ab1" stroke="#ff9ab1" points="739.21,-179.53 735.71,-169.53 732.21,-179.53 739.21,-179.53"/>
</g>
<!-- :data:coverart&#45;&gt;:core:logging:api -->
<g id="edge30" class="edge">
<title>:data:coverart&#45;&gt;:core:logging:api</title>
<path fill="none" stroke="black" stroke-dasharray="1,5" d="M765.26,-429C874.73,-429 1063.44,-429 1063.44,-429 1063.44,-429 1063.44,-43.86 1063.44,-43.86"/>
<polygon fill="black" stroke="black" points="1066.94,-43.86 1063.44,-33.86 1059.94,-43.86 1066.94,-43.86"/>
</g>
<!-- :data:spotify&#45;&gt;:shared:domain -->
<g id="edge35" class="edge">
<title>:data:spotify&#45;&gt;:shared:domain</title>
<path fill="none" stroke="black" stroke-dasharray="1,5" d="M917.4,-143.88C917.4,-109.46 917.4,-7 917.4,-7 917.4,-7 594.82,-7 594.82,-7"/>
<polygon fill="black" stroke="black" points="594.82,-3.5 584.82,-7 594.82,-10.5 594.82,-3.5"/>
</g>
<!-- :data:spotify&#45;&gt;:core:logging:api -->
<g id="edge36" class="edge">
<title>:data:spotify&#45;&gt;:core:logging:api</title>
<path fill="none" stroke="black" stroke-dasharray="1,5" d="M986.3,-137.37C986.3,-137.37 986.3,-44.7 986.3,-44.7"/>
<polygon fill="black" stroke="black" points="989.8,-44.7 986.3,-34.7 982.8,-44.7 989.8,-44.7"/>
</g>
<!-- :shared:strings -->
<g id="node15" class="node">
<title>:shared:strings</title>
<ellipse fill="#b59aff" stroke="black" cx="221.04" cy="-292" rx="81.49" ry="18"/>
<text text-anchor="middle" x="221.04" y="-288.3" font-family="Times,serif" font-size="14.00">:shared:strings</text>
</g>
<!-- :ui:core&#45;&gt;:shared:strings -->
<g id="edge37" class="edge">
<title>:ui:core&#45;&gt;:shared:strings</title>
<path fill="none" stroke="black" d="M251.04,-410.81C251.04,-410.81 251.04,-318.97 251.04,-318.97"/>
<polygon fill="black" stroke="black" points="254.54,-318.97 251.04,-308.97 247.54,-318.97 254.54,-318.97"/>
</g>
</g>
</svg>
