<?xml version="1.0" encoding="UTF-8" standalone="no"?>
<!DOCTYPE svg PUBLIC "-//W3C//DTD SVG 1.1//EN"
 "http://www.w3.org/Graphics/SVG/1.1/DTD/svg11.dtd">
<!-- Generated by graphviz version 2.43.0 (0)
 -->
<!-- Title: %3 Pages: 1 -->
<svg width="1158pt" height="666pt"
 viewBox="0.00 0.00 1157.59 666.00" xmlns="http://www.w3.org/2000/svg" xmlns:xlink="http://www.w3.org/1999/xlink">
<g id="graph0" class="graph" transform="scale(1 1) rotate(0) translate(4 662)">
<title>%3</title>
<polygon fill="white" stroke="transparent" points="-4,4 -4,-662 1153.59,-662 1153.59,4 -4,4"/>
<text text-anchor="middle" x="574.79" y="-630" font-family="Times,serif" font-size="30.00">Dependencies</text>
<text text-anchor="middle" x="574.79" y="-597" font-family="Times,serif" font-size="30.00"> </text>
<!-- :shared:feature:images -->
<g id="node1" class="node">
<title>:shared:feature:images</title>
<polygon fill="#b59aff" stroke="black" points="385.04,-584 203.04,-584 203.04,-548 385.04,-548 385.04,-584"/>
<text text-anchor="middle" x="294.04" y="-562.3" font-family="Times,serif" font-size="14.00">:shared:feature:images</text>
</g>
<!-- :test:image -->
<g id="node2" class="node">
<title>:test:image</title>
<ellipse fill="#9affb5" stroke="black" cx="63.04" cy="-155" rx="63.09" ry="18"/>
<text text-anchor="middle" x="63.04" y="-151.3" font-family="Times,serif" font-size="14.00">:test:image</text>
</g>
<!-- :shared:feature:images&#45;&gt;:test:image -->
<g id="edge1" class="edge">
<title>:shared:feature:images&#45;&gt;:test:image</title>
<path fill="none" stroke="black" stroke-dasharray="1,5" d="M230.99,-547.81C230.99,-469.01 230.99,-161 230.99,-161 230.99,-161 132.73,-161 132.73,-161"/>
<polygon fill="black" stroke="black" points="132.73,-157.5 122.73,-161 132.73,-164.5 132.73,-157.5"/>
</g>
<!-- :ui:test:screenshot -->
<g id="node3" class="node">
<title>:ui:test:screenshot</title>
<ellipse fill="#9affb5" stroke="black" cx="125.04" cy="-292" rx="96.68" ry="18"/>
<text text-anchor="middle" x="125.04" y="-288.3" font-family="Times,serif" font-size="14.00">:ui:test:screenshot</text>
</g>
<!-- :shared:feature:images&#45;&gt;:ui:test:screenshot -->
<g id="edge2" class="edge">
<title>:shared:feature:images&#45;&gt;:ui:test:screenshot</title>
<path fill="none" stroke="#ff9ab1" stroke-dasharray="1,5" d="M209.32,-547.6C209.32,-547.6 209.32,-310.98 209.32,-310.98"/>
<polygon fill="#ff9ab1" stroke="#ff9ab1" points="212.82,-310.98 209.32,-300.98 205.82,-310.98 212.82,-310.98"/>
</g>
<!-- :shared:domain -->
<g id="node4" class="node">
<title>:shared:domain</title>
<ellipse fill="#b59aff" stroke="black" cx="1067.04" cy="-155" rx="82.59" ry="18"/>
<text text-anchor="middle" x="1067.04" y="-151.3" font-family="Times,serif" font-size="14.00">:shared:domain</text>
</g>
<!-- :shared:feature:images&#45;&gt;:shared:domain -->
<g id="edge3" class="edge">
<title>:shared:feature:images&#45;&gt;:shared:domain</title>
<path fill="none" stroke="black" stroke-dasharray="1,5" d="M385.18,-566C598.58,-566 1112.75,-566 1112.75,-566 1112.75,-566 1112.75,-180.12 1112.75,-180.12"/>
<polygon fill="black" stroke="black" points="1116.25,-180.12 1112.75,-170.12 1109.25,-180.12 1116.25,-180.12"/>
</g>
<!-- :ui:image -->
<g id="node5" class="node">
<title>:ui:image</title>
<ellipse fill="#b59aff" stroke="black" cx="294.04" cy="-292" rx="53.89" ry="18"/>
<text text-anchor="middle" x="294.04" y="-288.3" font-family="Times,serif" font-size="14.00">:ui:image</text>
</g>
<!-- :shared:feature:images&#45;&gt;:ui:image -->
<g id="edge4" class="edge">
<title>:shared:feature:images&#45;&gt;:ui:image</title>
<path fill="none" stroke="black" stroke-dasharray="1,5" d="M294.04,-547.6C294.04,-547.6 294.04,-320.32 294.04,-320.32"/>
<polygon fill="black" stroke="black" points="297.54,-320.32 294.04,-310.32 290.54,-320.32 297.54,-320.32"/>
</g>
<!-- :ui:common -->
<g id="node6" class="node">
<title>:ui:common</title>
<ellipse fill="#b59aff" stroke="black" cx="474.04" cy="-429" rx="64.19" ry="18"/>
<text text-anchor="middle" x="474.04" y="-425.3" font-family="Times,serif" font-size="14.00">:ui:common</text>
</g>
<!-- :shared:feature:images&#45;&gt;:ui:common -->
<g id="edge5" class="edge">
<title>:shared:feature:images&#45;&gt;:ui:common</title>
<path fill="none" stroke="black" stroke-dasharray="1,5" d="M380.17,-547.79C380.17,-511.79 380.17,-435 380.17,-435 380.17,-435 403.26,-435 403.26,-435"/>
<polygon fill="black" stroke="black" points="403.26,-438.5 413.26,-435 403.26,-431.5 403.26,-438.5"/>
</g>
<!-- :ui:test:screenshot&#45;&gt;:test:image -->
<g id="edge7" class="edge">
<title>:ui:test:screenshot&#45;&gt;:test:image</title>
<path fill="none" stroke="black" stroke-dasharray="1,5" d="M77.15,-276.28C77.15,-276.28 77.15,-182.69 77.15,-182.69"/>
<polygon fill="black" stroke="black" points="80.65,-182.69 77.15,-172.69 73.65,-182.69 80.65,-182.69"/>
</g>
<!-- :ui:core -->
<g id="node7" class="node">
<title>:ui:core</title>
<ellipse fill="#b59aff" stroke="black" cx="294.04" cy="-155" rx="45.49" ry="18"/>
<text text-anchor="middle" x="294.04" y="-151.3" font-family="Times,serif" font-size="14.00">:ui:core</text>
</g>
<!-- :ui:test:screenshot&#45;&gt;:ui:core -->
<g id="edge6" class="edge">
<title>:ui:test:screenshot&#45;&gt;:ui:core</title>
<path fill="none" stroke="black" stroke-dasharray="1,5" d="M217.34,-286.22C217.34,-259.46 217.34,-149 217.34,-149 217.34,-149 240.76,-149 240.76,-149"/>
<polygon fill="black" stroke="black" points="240.76,-152.5 250.76,-149 240.76,-145.5 240.76,-152.5"/>
</g>
<!-- :core:models -->
<g id="node8" class="node">
<title>:core:models</title>
<ellipse fill="#b59aff" stroke="black" cx="685.04" cy="-18" rx="69.59" ry="18"/>
<text text-anchor="middle" x="685.04" y="-14.3" font-family="Times,serif" font-size="14.00">:core:models</text>
</g>
<!-- :shared:domain&#45;&gt;:core:models -->
<g id="edge8" class="edge">
<title>:shared:domain&#45;&gt;:core:models</title>
<path fill="none" stroke="black" stroke-dasharray="1,5" d="M1067.04,-136.89C1067.04,-98.41 1067.04,-12 1067.04,-12 1067.04,-12 760.71,-12 760.71,-12"/>
<polygon fill="black" stroke="black" points="760.71,-8.5 750.71,-12 760.71,-15.5 760.71,-8.5"/>
</g>
<!-- :ui:image&#45;&gt;:ui:core -->
<g id="edge10" class="edge">
<title>:ui:image&#45;&gt;:ui:core</title>
<path fill="none" stroke="black" stroke-dasharray="1,5" d="M294.04,-273.81C294.04,-273.81 294.04,-183.27 294.04,-183.27"/>
<polygon fill="black" stroke="black" points="297.54,-183.27 294.04,-173.27 290.54,-183.27 297.54,-183.27"/>
</g>
<!-- :ui:image&#45;&gt;:core:models -->
<g id="edge9" class="edge">
<title>:ui:image&#45;&gt;:core:models</title>
<path fill="none" stroke="black" stroke-dasharray="1,5" d="M343.76,-284.67C343.76,-247.97 343.76,-86 343.76,-86 343.76,-86 630.13,-86 630.13,-86 630.13,-86 630.13,-39.23 630.13,-39.23"/>
<polygon fill="black" stroke="black" points="633.63,-39.23 630.13,-29.23 626.63,-39.23 633.63,-39.23"/>
</g>
<!-- :ui:common&#45;&gt;:ui:test:screenshot -->
<g id="edge11" class="edge">
<title>:ui:common&#45;&gt;:ui:test:screenshot</title>
<path fill="none" stroke="#ff9ab1" stroke-dasharray="1,5" d="M413.13,-423C336.72,-423 215.61,-423 215.61,-423 215.61,-423 215.61,-308.68 215.61,-308.68"/>
<polygon fill="#ff9ab1" stroke="#ff9ab1" points="219.11,-308.68 215.61,-298.68 212.11,-308.68 219.11,-308.68"/>
</g>
<!-- :ui:common&#45;&gt;:shared:domain -->
<g id="edge18" class="edge">
<title>:ui:common&#45;&gt;:shared:domain</title>
<path fill="none" stroke="black" stroke-dasharray="1,5" d="M522.03,-441C664.62,-441 1075.92,-441 1075.92,-441 1075.92,-441 1075.92,-183.33 1075.92,-183.33"/>
<polygon fill="black" stroke="black" points="1079.42,-183.33 1075.92,-173.33 1072.42,-183.33 1079.42,-183.33"/>
</g>
<!-- :ui:common&#45;&gt;:ui:image -->
<g id="edge19" class="edge">
<title>:ui:common&#45;&gt;:ui:image</title>
<path fill="none" stroke="black" stroke-dasharray="1,5" d="M420.6,-418.7C420.6,-386.84 420.6,-292 420.6,-292 420.6,-292 358.08,-292 358.08,-292"/>
<polygon fill="black" stroke="black" points="358.08,-288.5 348.08,-292 358.08,-295.5 358.08,-288.5"/>
</g>
<!-- :ui:common&#45;&gt;:ui:core -->
<g id="edge13" class="edge">
<title>:ui:common&#45;&gt;:ui:core</title>
<path fill="none" stroke="black" d="M431.5,-415.41C431.5,-360.12 431.5,-155 431.5,-155 431.5,-155 349.82,-155 349.82,-155"/>
<polygon fill="black" stroke="black" points="349.82,-151.5 339.82,-155 349.82,-158.5 349.82,-151.5"/>
</g>
<!-- :ui:common&#45;&gt;:core:models -->
<g id="edge12" class="edge">
<title>:ui:common&#45;&gt;:core:models</title>
<path fill="none" stroke="black" d="M522.2,-417C570.9,-417 639.01,-417 639.01,-417 639.01,-417 639.01,-41.73 639.01,-41.73"/>
<polygon fill="black" stroke="black" points="642.51,-41.73 639.01,-31.73 635.51,-41.73 642.51,-41.73"/>
</g>
<!-- :data:coverart -->
<g id="node9" class="node">
<title>:data:coverart</title>
<ellipse fill="#b59aff" stroke="black" cx="963.04" cy="-292" rx="76.09" ry="18"/>
<text text-anchor="middle" x="963.04" y="-288.3" font-family="Times,serif" font-size="14.00">:data:coverart</text>
</g>
<!-- :ui:common&#45;&gt;:data:coverart -->
<g id="edge14" class="edge">
<title>:ui:common&#45;&gt;:data:coverart</title>
<path fill="none" stroke="black" stroke-dasharray="1,5" d="M534.99,-435C666.07,-435 963.04,-435 963.04,-435 963.04,-435 963.04,-320.11 963.04,-320.11"/>
<polygon fill="black" stroke="black" points="966.54,-320.11 963.04,-310.11 959.54,-320.11 966.54,-320.11"/>
</g>
<!-- :data:musicbrainz -->
<g id="node10" class="node">
<title>:data:musicbrainz</title>
<ellipse fill="#b59aff" stroke="black" cx="737.04" cy="-292" rx="93.68" ry="18"/>
<text text-anchor="middle" x="737.04" y="-288.3" font-family="Times,serif" font-size="14.00">:data:musicbrainz</text>
</g>
<!-- :ui:common&#45;&gt;:data:musicbrainz -->
<g id="edge15" class="edge">
<title>:ui:common&#45;&gt;:data:musicbrainz</title>
<path fill="none" stroke="black" stroke-dasharray="1,5" d="M534.71,-423C612.38,-423 737.04,-423 737.04,-423 737.04,-423 737.04,-320.21 737.04,-320.21"/>
<polygon fill="black" stroke="black" points="740.54,-320.21 737.04,-310.21 733.54,-320.22 740.54,-320.21"/>
</g>
<!-- :core:preferences -->
<g id="node11" class="node">
<title>:core:preferences</title>
<ellipse fill="#b59aff" stroke="black" cx="534.04" cy="-292" rx="91.78" ry="18"/>
<text text-anchor="middle" x="534.04" y="-288.3" font-family="Times,serif" font-size="14.00">:core:preferences</text>
</g>
<!-- :ui:common&#45;&gt;:core:preferences -->
<g id="edge16" class="edge">
<title>:ui:common&#45;&gt;:core:preferences</title>
<path fill="none" stroke="black" stroke-dasharray="1,5" d="M490.4,-411.37C490.4,-411.37 490.4,-317.86 490.4,-317.86"/>
<polygon fill="black" stroke="black" points="493.9,-317.86 490.4,-307.86 486.9,-317.86 493.9,-317.86"/>
</g>
<!-- :core:logging:api -->
<g id="node12" class="node">
<title>:core:logging:api</title>
<ellipse fill="#b59aff" stroke="black" cx="840.04" cy="-155" rx="88.28" ry="18"/>
<text text-anchor="middle" x="840.04" y="-151.3" font-family="Times,serif" font-size="14.00">:core:logging:api</text>
</g>
<!-- :ui:common&#45;&gt;:core:logging:api -->
<g id="edge17" class="edge">
<title>:ui:common&#45;&gt;:core:logging:api</title>
<path fill="none" stroke="black" stroke-dasharray="1,5" d="M538.45,-429C647.98,-429 858.82,-429 858.82,-429 858.82,-429 858.82,-182.98 858.82,-182.98"/>
<polygon fill="black" stroke="black" points="862.32,-182.98 858.82,-172.98 855.32,-182.98 862.32,-182.98"/>
</g>
<!-- :shared:strings -->
<g id="node13" class="node">
<title>:shared:strings</title>
<ellipse fill="#b59aff" stroke="black" cx="294.04" cy="-18" rx="81.49" ry="18"/>
<text text-anchor="middle" x="294.04" y="-14.3" font-family="Times,serif" font-size="14.00">:shared:strings</text>
</g>
<!-- :ui:core&#45;&gt;:shared:strings -->
<g id="edge20" class="edge">
<title>:ui:core&#45;&gt;:shared:strings</title>
<path fill="none" stroke="black" d="M294.04,-136.81C294.04,-136.81 294.04,-46.27 294.04,-46.27"/>
<polygon fill="black" stroke="black" points="297.54,-46.27 294.04,-36.27 290.54,-46.27 297.54,-46.27"/>
</g>
<!-- :data:coverart&#45;&gt;:shared:domain -->
<g id="edge23" class="edge">
<title>:data:coverart&#45;&gt;:shared:domain</title>
<path fill="none" stroke="black" stroke-dasharray="1,5" d="M1011.79,-278.11C1011.79,-278.11 1011.79,-178.52 1011.79,-178.52"/>
<polygon fill="black" stroke="black" points="1015.29,-178.52 1011.79,-168.52 1008.29,-178.52 1015.29,-178.52"/>
</g>
<!-- :data:coverart&#45;&gt;:core:models -->
<g id="edge22" class="edge">
<title>:data:coverart&#45;&gt;:core:models</title>
<path fill="none" stroke="black" stroke-dasharray="1,5" d="M956.47,-274C956.47,-213.91 956.47,-24 956.47,-24 956.47,-24 760.75,-24 760.75,-24"/>
<polygon fill="black" stroke="black" points="760.75,-20.5 750.75,-24 760.75,-27.5 760.75,-20.5"/>
</g>
<!-- :data:coverart&#45;&gt;:core:logging:api -->
<g id="edge21" class="edge">
<title>:data:coverart&#45;&gt;:core:logging:api</title>
<path fill="none" stroke="black" stroke-dasharray="1,5" d="M907.72,-279.36C907.72,-279.36 907.72,-176.83 907.72,-176.83"/>
<polygon fill="black" stroke="black" points="911.22,-176.83 907.72,-166.83 904.22,-176.83 911.22,-176.83"/>
</g>
<!-- :data:musicbrainz&#45;&gt;:core:models -->
<g id="edge25" class="edge">
<title>:data:musicbrainz&#45;&gt;:core:models</title>
<path fill="none" stroke="black" stroke-dasharray="1,5" d="M697.55,-275.68C697.55,-275.68 697.55,-46 697.55,-46"/>
<polygon fill="black" stroke="black" points="701.05,-46 697.55,-36 694.05,-46 701.05,-46"/>
</g>
<!-- :data:musicbrainz&#45;&gt;:core:logging:api -->
<g id="edge24" class="edge">
<title>:data:musicbrainz&#45;&gt;:core:logging:api</title>
<path fill="none" stroke="black" stroke-dasharray="1,5" d="M791.14,-277.08C791.14,-277.08 791.14,-180.32 791.14,-180.32"/>
<polygon fill="black" stroke="black" points="794.64,-180.32 791.14,-170.32 787.64,-180.32 794.64,-180.32"/>
</g>
<!-- :core:preferences&#45;&gt;:core:models -->
<g id="edge27" class="edge">
<title>:core:preferences&#45;&gt;:core:models</title>
<path fill="none" stroke="black" stroke-dasharray="1,5" d="M626,-292C631.32,-292 634.57,-292 634.57,-292 634.57,-292 634.57,-40.49 634.57,-40.49"/>
<polygon fill="black" stroke="black" points="638.07,-40.49 634.57,-30.49 631.07,-40.49 638.07,-40.49"/>
</g>
<!-- :core:coroutines -->
<g id="node14" class="node">
<title>:core:coroutines</title>
<ellipse fill="#b59aff" stroke="black" cx="534.04" cy="-155" rx="85.29" ry="18"/>
<text text-anchor="middle" x="534.04" y="-151.3" font-family="Times,serif" font-size="14.00">:core:coroutines</text>
</g>
<!-- :core:preferences&#45;&gt;:core:coroutines -->
<g id="edge26" class="edge">
<title>:core:preferences&#45;&gt;:core:coroutines</title>
<path fill="none" stroke="black" stroke-dasharray="1,5" d="M534.04,-273.81C534.04,-273.81 534.04,-183.27 534.04,-183.27"/>
<polygon fill="black" stroke="black" points="537.54,-183.27 534.04,-173.27 530.54,-183.27 537.54,-183.27"/>
</g>
</g>
</svg>
