<?xml version="1.0" encoding="UTF-8" standalone="no"?>
<!DOCTYPE svg PUBLIC "-//W3C//DTD SVG 1.1//EN"
 "http://www.w3.org/Graphics/SVG/1.1/DTD/svg11.dtd">
<!-- Generated by graphviz version 2.43.0 (0)
 -->
<!-- Title: %3 Pages: 1 -->
<svg width="1113pt" height="1077pt"
 viewBox="0.00 0.00 1113.44 1077.00" xmlns="http://www.w3.org/2000/svg" xmlns:xlink="http://www.w3.org/1999/xlink">
<g id="graph0" class="graph" transform="scale(1 1) rotate(0) translate(4 1073)">
<title>%3</title>
<polygon fill="white" stroke="transparent" points="-4,4 -4,-1073 1109.44,-1073 1109.44,4 -4,4"/>
<text text-anchor="middle" x="552.72" y="-1041" font-family="Times,serif" font-size="30.00">Dependencies</text>
<text text-anchor="middle" x="552.72" y="-1008" font-family="Times,serif" font-size="30.00"> </text>
<!-- :shared:feature:images -->
<g id="node1" class="node">
<title>:shared:feature:images</title>
<polygon fill="#b59aff" stroke="black" points="340.04,-995 158.04,-995 158.04,-959 340.04,-959 340.04,-995"/>
<text text-anchor="middle" x="249.04" y="-973.3" font-family="Times,serif" font-size="14.00">:shared:feature:images</text>
</g>
<!-- :test:image -->
<g id="node2" class="node">
<title>:test:image</title>
<ellipse fill="#9affb5" stroke="black" cx="63.04" cy="-566" rx="63.09" ry="18"/>
<text text-anchor="middle" x="63.04" y="-562.3" font-family="Times,serif" font-size="14.00">:test:image</text>
</g>
<!-- :shared:feature:images&#45;&gt;:test:image -->
<g id="edge1" class="edge">
<title>:shared:feature:images&#45;&gt;:test:image</title>
<path fill="none" stroke="black" stroke-dasharray="1,5" d="M157.82,-977C91.43,-977 13.1,-977 13.1,-977 13.1,-977 13.1,-586.99 13.1,-586.99"/>
<polygon fill="black" stroke="black" points="16.6,-586.99 13.1,-576.99 9.6,-586.99 16.6,-586.99"/>
</g>
<!-- :test&#45;data -->
<g id="node3" class="node">
<title>:test&#45;data</title>
<ellipse fill="#b59aff" stroke="black" cx="707.04" cy="-566" rx="55.49" ry="18"/>
<text text-anchor="middle" x="707.04" y="-562.3" font-family="Times,serif" font-size="14.00">:test&#45;data</text>
</g>
<!-- :shared:feature:images&#45;&gt;:test&#45;data -->
<g id="edge2" class="edge">
<title>:shared:feature:images&#45;&gt;:test&#45;data</title>
<path fill="none" stroke="#ff9ab1" stroke-dasharray="1,5" d="M340.08,-983C473.64,-983 707.04,-983 707.04,-983 707.04,-983 707.04,-594.19 707.04,-594.19"/>
<polygon fill="#ff9ab1" stroke="#ff9ab1" points="710.54,-594.19 707.04,-584.19 703.54,-594.19 710.54,-594.19"/>
</g>
<!-- :ui:test:screenshot -->
<g id="node4" class="node">
<title>:ui:test:screenshot</title>
<ellipse fill="#9affb5" stroke="black" cx="123.04" cy="-703" rx="96.68" ry="18"/>
<text text-anchor="middle" x="123.04" y="-699.3" font-family="Times,serif" font-size="14.00">:ui:test:screenshot</text>
</g>
<!-- :shared:feature:images&#45;&gt;:ui:test:screenshot -->
<g id="edge3" class="edge">
<title>:shared:feature:images&#45;&gt;:ui:test:screenshot</title>
<path fill="none" stroke="#ff9ab1" stroke-dasharray="1,5" d="M178.66,-958.6C178.66,-958.6 178.66,-727.88 178.66,-727.88"/>
<polygon fill="#ff9ab1" stroke="#ff9ab1" points="182.16,-727.88 178.66,-717.88 175.16,-727.88 182.16,-727.88"/>
</g>
<!-- :shared:domain -->
<g id="node5" class="node">
<title>:shared:domain</title>
<ellipse fill="#b59aff" stroke="black" cx="412.04" cy="-18" rx="82.59" ry="18"/>
<text text-anchor="middle" x="412.04" y="-14.3" font-family="Times,serif" font-size="14.00">:shared:domain</text>
</g>
<!-- :shared:feature:images&#45;&gt;:shared:domain -->
<g id="edge4" class="edge">
<title>:shared:feature:images&#45;&gt;:shared:domain</title>
<path fill="none" stroke="black" stroke-dasharray="1,5" d="M340.05,-971C349.85,-971 356.34,-971 356.34,-971 356.34,-971 356.34,-41.47 356.34,-41.47"/>
<polygon fill="black" stroke="black" points="359.84,-41.47 356.34,-31.47 352.84,-41.47 359.84,-41.47"/>
</g>
<!-- :ui:image -->
<g id="node6" class="node">
<title>:ui:image</title>
<ellipse fill="#b59aff" stroke="black" cx="292.04" cy="-703" rx="53.89" ry="18"/>
<text text-anchor="middle" x="292.04" y="-699.3" font-family="Times,serif" font-size="14.00">:ui:image</text>
</g>
<!-- :shared:feature:images&#45;&gt;:ui:image -->
<g id="edge5" class="edge">
<title>:shared:feature:images&#45;&gt;:ui:image</title>
<path fill="none" stroke="black" stroke-dasharray="1,5" d="M272.08,-958.6C272.08,-958.6 272.08,-729.91 272.08,-729.91"/>
<polygon fill="black" stroke="black" points="275.58,-729.91 272.08,-719.91 268.58,-729.91 275.58,-729.91"/>
</g>
<!-- :ui:common -->
<g id="node7" class="node">
<title>:ui:common</title>
<ellipse fill="#b59aff" stroke="black" cx="431.04" cy="-840" rx="64.19" ry="18"/>
<text text-anchor="middle" x="431.04" y="-836.3" font-family="Times,serif" font-size="14.00">:ui:common</text>
</g>
<!-- :shared:feature:images&#45;&gt;:ui:common -->
<g id="edge6" class="edge">
<title>:shared:feature:images&#45;&gt;:ui:common</title>
<path fill="none" stroke="black" stroke-dasharray="1,5" d="M306.06,-958.93C306.06,-923.65 306.06,-849 306.06,-849 306.06,-849 365.13,-849 365.13,-849"/>
<polygon fill="black" stroke="black" points="365.13,-852.5 375.13,-849 365.13,-845.5 365.13,-852.5"/>
</g>
<!-- :test&#45;data&#45;&gt;:shared:domain -->
<g id="edge7" class="edge">
<title>:test&#45;data&#45;&gt;:shared:domain</title>
<path fill="none" stroke="black" stroke-dasharray="1,5" d="M652.89,-562C568.58,-562 415.5,-562 415.5,-562 415.5,-562 415.5,-46.1 415.5,-46.1"/>
<polygon fill="black" stroke="black" points="419,-46.1 415.5,-36.1 412,-46.1 419,-46.1"/>
</g>
<!-- :core:coroutines -->
<g id="node8" class="node">
<title>:core:coroutines</title>
<ellipse fill="#b59aff" stroke="black" cx="525.04" cy="-155" rx="85.29" ry="18"/>
<text text-anchor="middle" x="525.04" y="-151.3" font-family="Times,serif" font-size="14.00">:core:coroutines</text>
</g>
<!-- :test&#45;data&#45;&gt;:core:coroutines -->
<g id="edge8" class="edge">
<title>:test&#45;data&#45;&gt;:core:coroutines</title>
<path fill="none" stroke="black" stroke-dasharray="1,5" d="M663.07,-555C608.75,-555 523.44,-555 523.44,-555 523.44,-555 523.44,-183.23 523.44,-183.23"/>
<polygon fill="black" stroke="black" points="526.94,-183.23 523.44,-173.23 519.94,-183.23 526.94,-183.23"/>
</g>
<!-- :data:database -->
<g id="node9" class="node">
<title>:data:database</title>
<ellipse fill="#b59aff" stroke="black" cx="671.04" cy="-292" rx="79.09" ry="18"/>
<text text-anchor="middle" x="671.04" y="-288.3" font-family="Times,serif" font-size="14.00">:data:database</text>
</g>
<!-- :test&#45;data&#45;&gt;:data:database -->
<g id="edge9" class="edge">
<title>:test&#45;data&#45;&gt;:data:database</title>
<path fill="none" stroke="black" stroke-dasharray="1,5" d="M756.31,-557.8C756.31,-512.21 756.31,-292 756.31,-292 756.31,-292 755.73,-292 755.73,-292"/>
<polygon fill="black" stroke="black" points="760.45,-288.5 750.45,-292 760.45,-295.5 760.45,-288.5"/>
</g>
<!-- :data:musicbrainz -->
<g id="node10" class="node">
<title>:data:musicbrainz</title>
<ellipse fill="#b59aff" stroke="black" cx="798.04" cy="-155" rx="93.68" ry="18"/>
<text text-anchor="middle" x="798.04" y="-151.3" font-family="Times,serif" font-size="14.00">:data:musicbrainz</text>
</g>
<!-- :test&#45;data&#45;&gt;:data:musicbrainz -->
<g id="edge10" class="edge">
<title>:test&#45;data&#45;&gt;:data:musicbrainz</title>
<path fill="none" stroke="black" stroke-dasharray="1,5" d="M759.3,-559.87C759.3,-559.87 759.3,-181.7 759.3,-181.7"/>
<polygon fill="black" stroke="black" points="762.8,-181.7 759.3,-171.7 755.8,-181.7 762.8,-181.7"/>
</g>
<!-- :data:coverart -->
<g id="node11" class="node">
<title>:data:coverart</title>
<ellipse fill="#b59aff" stroke="black" cx="668.04" cy="-429" rx="76.09" ry="18"/>
<text text-anchor="middle" x="668.04" y="-425.3" font-family="Times,serif" font-size="14.00">:data:coverart</text>
</g>
<!-- :test&#45;data&#45;&gt;:data:coverart -->
<g id="edge11" class="edge">
<title>:test&#45;data&#45;&gt;:data:coverart</title>
<path fill="none" stroke="black" stroke-dasharray="1,5" d="M682.56,-549.75C682.56,-549.75 682.56,-456.97 682.56,-456.97"/>
<polygon fill="black" stroke="black" points="686.06,-456.97 682.56,-446.97 679.06,-456.97 686.06,-456.97"/>
</g>
<!-- :data:spotify -->
<g id="node12" class="node">
<title>:data:spotify</title>
<ellipse fill="#b59aff" stroke="black" cx="1017.04" cy="-155" rx="68.79" ry="18"/>
<text text-anchor="middle" x="1017.04" y="-151.3" font-family="Times,serif" font-size="14.00">:data:spotify</text>
</g>
<!-- :test&#45;data&#45;&gt;:data:spotify -->
<g id="edge12" class="edge">
<title>:test&#45;data&#45;&gt;:data:spotify</title>
<path fill="none" stroke="black" stroke-dasharray="1,5" d="M762.47,-566C851.63,-566 1017.04,-566 1017.04,-566 1017.04,-566 1017.04,-183.19 1017.04,-183.19"/>
<polygon fill="black" stroke="black" points="1020.54,-183.19 1017.04,-173.19 1013.54,-183.19 1020.54,-183.19"/>
</g>
<!-- :ui:test:screenshot&#45;&gt;:test:image -->
<g id="edge14" class="edge">
<title>:ui:test:screenshot&#45;&gt;:test:image</title>
<path fill="none" stroke="black" stroke-dasharray="1,5" d="M76.15,-687.02C76.15,-687.02 76.15,-594.05 76.15,-594.05"/>
<polygon fill="black" stroke="black" points="79.65,-594.05 76.15,-584.05 72.65,-594.05 79.65,-594.05"/>
</g>
<!-- :ui:core -->
<g id="node13" class="node">
<title>:ui:core</title>
<ellipse fill="#b59aff" stroke="black" cx="213.04" cy="-566" rx="45.49" ry="18"/>
<text text-anchor="middle" x="213.04" y="-562.3" font-family="Times,serif" font-size="14.00">:ui:core</text>
</g>
<!-- :ui:test:screenshot&#45;&gt;:ui:core -->
<g id="edge13" class="edge">
<title>:ui:test:screenshot&#45;&gt;:ui:core</title>
<path fill="none" stroke="black" stroke-dasharray="1,5" d="M193.72,-690.36C193.72,-690.36 193.72,-592.39 193.72,-592.39"/>
<polygon fill="black" stroke="black" points="197.22,-592.39 193.72,-582.39 190.22,-592.39 197.22,-592.39"/>
</g>
<!-- :ui:image&#45;&gt;:shared:domain -->
<g id="edge15" class="edge">
<title>:ui:image&#45;&gt;:shared:domain</title>
<path fill="none" stroke="black" stroke-dasharray="1,5" d="M337.75,-693.32C337.75,-693.32 337.75,-35.95 337.75,-35.95"/>
<polygon fill="black" stroke="black" points="341.25,-35.95 337.75,-25.95 334.25,-35.95 341.25,-35.95"/>
</g>
<!-- :ui:image&#45;&gt;:ui:core -->
<g id="edge16" class="edge">
<title>:ui:image&#45;&gt;:ui:core</title>
<path fill="none" stroke="black" stroke-dasharray="1,5" d="M248.32,-692.25C248.32,-692.25 248.32,-587.47 248.32,-587.47"/>
<polygon fill="black" stroke="black" points="251.82,-587.47 248.32,-577.47 244.82,-587.47 251.82,-587.47"/>
</g>
<!-- :ui:common&#45;&gt;:test&#45;data -->
<g id="edge17" class="edge">
<title>:ui:common&#45;&gt;:test&#45;data</title>
<path fill="none" stroke="#ff9ab1" stroke-dasharray="1,5" d="M465.24,-824.65C465.24,-767.33 465.24,-569 465.24,-569 465.24,-569 642.48,-569 642.48,-569"/>
<polygon fill="#ff9ab1" stroke="#ff9ab1" points="642.48,-572.5 652.48,-569 642.48,-565.5 642.48,-572.5"/>
</g>
<!-- :ui:common&#45;&gt;:ui:test:screenshot -->
<g id="edge18" class="edge">
<title>:ui:common&#45;&gt;:ui:test:screenshot</title>
<path fill="none" stroke="#ff9ab1" stroke-dasharray="1,5" d="M366.48,-840C297.9,-840 199.27,-840 199.27,-840 199.27,-840 199.27,-724.21 199.27,-724.21"/>
<polygon fill="#ff9ab1" stroke="#ff9ab1" points="202.77,-724.21 199.27,-714.21 195.77,-724.21 202.77,-724.21"/>
</g>
<!-- :ui:common&#45;&gt;:shared:domain -->
<g id="edge20" class="edge">
<title>:ui:common&#45;&gt;:shared:domain</title>
<path fill="none" stroke="black" d="M391.1,-825.73C391.1,-825.73 391.1,-45.71 391.1,-45.71"/>
<polygon fill="black" stroke="black" points="394.6,-45.71 391.1,-35.71 387.6,-45.71 394.6,-45.71"/>
</g>
<!-- :ui:common&#45;&gt;:ui:image -->
<g id="edge25" class="edge">
<title>:ui:common&#45;&gt;:ui:image</title>
<path fill="none" stroke="black" stroke-dasharray="1,5" d="M378.9,-829.28C378.9,-797.99 378.9,-709 378.9,-709 378.9,-709 353.07,-709 353.07,-709"/>
<polygon fill="black" stroke="black" points="353.07,-705.5 343.07,-709 353.07,-712.5 353.07,-705.5"/>
</g>
<!-- :ui:common&#45;&gt;:core:coroutines -->
<g id="edge19" class="edge">
<title>:ui:common&#45;&gt;:core:coroutines</title>
<path fill="none" stroke="#ff9ab1" stroke-dasharray="1,5" d="M452.57,-822.72C452.57,-822.72 452.57,-174.79 452.57,-174.79"/>
<polygon fill="#ff9ab1" stroke="#ff9ab1" points="456.07,-174.79 452.57,-164.79 449.07,-174.79 456.07,-174.79"/>
</g>
<!-- :ui:common&#45;&gt;:data:musicbrainz -->
<g id="edge23" class="edge">
<title>:ui:common&#45;&gt;:data:musicbrainz</title>
<path fill="none" stroke="black" stroke-dasharray="1,5" d="M491.75,-834C607.54,-834 848.52,-834 848.52,-834 848.52,-834 848.52,-180.46 848.52,-180.46"/>
<polygon fill="black" stroke="black" points="852.02,-180.46 848.52,-170.46 845.02,-180.46 852.02,-180.46"/>
</g>
<!-- :ui:common&#45;&gt;:ui:core -->
<g id="edge21" class="edge">
<title>:ui:common&#45;&gt;:ui:core</title>
<path fill="none" stroke="black" d="M375.3,-831C315.49,-831 228.99,-831 228.99,-831 228.99,-831 228.99,-592.98 228.99,-592.98"/>
<polygon fill="black" stroke="black" points="232.49,-592.98 228.99,-582.98 225.49,-592.98 232.49,-592.98"/>
</g>
<!-- :data:repository -->
<g id="node14" class="node">
<title>:data:repository</title>
<ellipse fill="#b59aff" stroke="black" cx="563.04" cy="-703" rx="85.29" ry="18"/>
<text text-anchor="middle" x="563.04" y="-699.3" font-family="Times,serif" font-size="14.00">:data:repository</text>
</g>
<!-- :ui:common&#45;&gt;:data:repository -->
<g id="edge22" class="edge">
<title>:ui:common&#45;&gt;:data:repository</title>
<path fill="none" stroke="black" stroke-dasharray="1,5" d="M486.65,-830.58C486.65,-830.58 486.65,-721.08 486.65,-721.08"/>
<polygon fill="black" stroke="black" points="490.15,-721.08 486.65,-711.08 483.15,-721.08 490.15,-721.08"/>
</g>
<!-- :core:logging:api -->
<g id="node15" class="node">
<title>:core:logging:api</title>
<ellipse fill="#b59aff" stroke="black" cx="1017.04" cy="-18" rx="88.28" ry="18"/>
<text text-anchor="middle" x="1017.04" y="-14.3" font-family="Times,serif" font-size="14.00">:core:logging:api</text>
</g>
<!-- :ui:common&#45;&gt;:core:logging:api -->
<g id="edge24" class="edge">
<title>:ui:common&#45;&gt;:core:logging:api</title>
<path fill="none" stroke="black" stroke-dasharray="1,5" d="M491.93,-846C627.87,-846 944.25,-846 944.25,-846 944.25,-846 944.25,-38.47 944.25,-38.47"/>
<polygon fill="black" stroke="black" points="947.75,-38.47 944.25,-28.47 940.75,-38.47 947.75,-38.47"/>
</g>
<!-- :data:database&#45;&gt;:shared:domain -->
<g id="edge26" class="edge">
<title>:data:database&#45;&gt;:shared:domain</title>
<path fill="none" stroke="black" stroke-dasharray="1,5" d="M657.32,-274.2C657.32,-214.78 657.32,-27 657.32,-27 657.32,-27 493.65,-27 493.65,-27"/>
<polygon fill="black" stroke="black" points="493.65,-23.5 483.65,-27 493.65,-30.5 493.65,-23.5"/>
</g>
<!-- :data:database&#45;&gt;:core:coroutines -->
<g id="edge27" class="edge">
<title>:data:database&#45;&gt;:core:coroutines</title>
<path fill="none" stroke="black" stroke-dasharray="1,5" d="M600.97,-283.43C600.97,-283.43 600.97,-173.22 600.97,-173.22"/>
<polygon fill="black" stroke="black" points="604.47,-173.22 600.97,-163.22 597.47,-173.22 604.47,-173.22"/>
</g>
<!-- :data:database&#45;&gt;:data:musicbrainz -->
<g id="edge28" class="edge">
<title>:data:database&#45;&gt;:data:musicbrainz</title>
<path fill="none" stroke="black" stroke-dasharray="1,5" d="M727.4,-279.11C727.4,-279.11 727.4,-177.16 727.4,-177.16"/>
<polygon fill="black" stroke="black" points="730.9,-177.16 727.4,-167.16 723.9,-177.16 730.9,-177.16"/>
</g>
<!-- :data:musicbrainz&#45;&gt;:shared:domain -->
<g id="edge29" class="edge">
<title>:data:musicbrainz&#45;&gt;:shared:domain</title>
<path fill="none" stroke="black" stroke-dasharray="1,5" d="M798.04,-136.81C798.04,-99.54 798.04,-18 798.04,-18 798.04,-18 504.85,-18 504.85,-18"/>
<polygon fill="black" stroke="black" points="504.85,-14.5 494.85,-18 504.85,-21.5 504.85,-14.5"/>
</g>
<!-- :data:musicbrainz&#45;&gt;:core:logging:api -->
<g id="edge30" class="edge">
<title>:data:musicbrainz&#45;&gt;:core:logging:api</title>
<path fill="none" stroke="black" stroke-dasharray="1,5" d="M886.64,-149C911.82,-149 932.55,-149 932.55,-149 932.55,-149 932.55,-33.3 932.55,-33.3"/>
<polygon fill="black" stroke="black" points="936.05,-33.3 932.55,-23.3 929.05,-33.3 936.05,-33.3"/>
</g>
<!-- :data:coverart&#45;&gt;:test&#45;data -->
<g id="edge34" class="edge">
<title>:data:coverart&#45;&gt;:test&#45;data</title>
<path fill="none" stroke="#ff9ab1" stroke-dasharray="1,5" d="M713.32,-443.66C713.32,-443.66 713.32,-537.99 713.32,-537.99"/>
<polygon fill="#ff9ab1" stroke="#ff9ab1" points="709.82,-537.99 713.32,-547.99 716.82,-537.99 709.82,-537.99"/>
</g>
<!-- :data:coverart&#45;&gt;:shared:domain -->
<g id="edge31" class="edge">
<title>:data:coverart&#45;&gt;:shared:domain</title>
<path fill="none" stroke="black" stroke-dasharray="1,5" d="M596.26,-435C525.44,-435 427.7,-435 427.7,-435 427.7,-435 427.7,-45.92 427.7,-45.92"/>
<polygon fill="black" stroke="black" points="431.2,-45.92 427.7,-35.92 424.2,-45.92 431.2,-45.92"/>
</g>
<!-- :data:coverart&#45;&gt;:core:coroutines -->
<g id="edge33" class="edge">
<title>:data:coverart&#45;&gt;:core:coroutines</title>
<path fill="none" stroke="black" stroke-dasharray="1,5" d="M596.31,-423C580.82,-423 568.98,-423 568.98,-423 568.98,-423 568.98,-180.57 568.98,-180.57"/>
<polygon fill="black" stroke="black" points="572.48,-180.57 568.98,-170.57 565.48,-180.57 572.48,-180.57"/>
</g>
<!-- :data:coverart&#45;&gt;:data:database -->
<g id="edge36" class="edge">
<title>:data:coverart&#45;&gt;:data:database</title>
<path fill="none" stroke="#ff9ab1" stroke-dasharray="1,5" d="M668.04,-410.81C668.04,-410.81 668.04,-320.27 668.04,-320.27"/>
<polygon fill="#ff9ab1" stroke="#ff9ab1" points="671.54,-320.27 668.04,-310.27 664.54,-320.27 671.54,-320.27"/>
</g>
<!-- :data:coverart&#45;&gt;:data:musicbrainz -->
<g id="edge35" class="edge">
<title>:data:coverart&#45;&gt;:data:musicbrainz</title>
<path fill="none" stroke="#ff9ab1" stroke-dasharray="1,5" d="M740,-423C748,-423 753.33,-423 753.33,-423 753.33,-423 753.33,-180.96 753.33,-180.96"/>
<polygon fill="#ff9ab1" stroke="#ff9ab1" points="756.83,-180.96 753.33,-170.96 749.83,-180.96 756.83,-180.96"/>
</g>
<!-- :data:coverart&#45;&gt;:core:logging:api -->
<g id="edge32" class="edge">
<title>:data:coverart&#45;&gt;:core:logging:api</title>
<path fill="none" stroke="black" stroke-dasharray="1,5" d="M739.97,-435C819.48,-435 936.45,-435 936.45,-435 936.45,-435 936.45,-35.59 936.45,-35.59"/>
<polygon fill="black" stroke="black" points="939.95,-35.59 936.45,-25.59 932.95,-35.59 939.95,-35.59"/>
</g>
<!-- :data:spotify&#45;&gt;:shared:domain -->
<g id="edge37" class="edge">
<title>:data:spotify&#45;&gt;:shared:domain</title>
<path fill="none" stroke="black" stroke-dasharray="1,5" d="M952.09,-161C929.7,-161 910.14,-161 910.14,-161 910.14,-161 910.14,-9 910.14,-9 910.14,-9 493.68,-9 493.68,-9"/>
<polygon fill="black" stroke="black" points="493.68,-5.5 483.68,-9 493.67,-12.5 493.68,-5.5"/>
</g>
<!-- :data:spotify&#45;&gt;:core:logging:api -->
<g id="edge38" class="edge">
<title>:data:spotify&#45;&gt;:core:logging:api</title>
<path fill="none" stroke="black" stroke-dasharray="1,5" d="M1017.04,-136.81C1017.04,-136.81 1017.04,-46.27 1017.04,-46.27"/>
<polygon fill="black" stroke="black" points="1020.54,-46.27 1017.04,-36.27 1013.54,-46.27 1020.54,-46.27"/>
</g>
<!-- :shared:strings -->
<g id="node16" class="node">
<title>:shared:strings</title>
<ellipse fill="#b59aff" stroke="black" cx="189.04" cy="-429" rx="81.49" ry="18"/>
<text text-anchor="middle" x="189.04" y="-425.3" font-family="Times,serif" font-size="14.00">:shared:strings</text>
</g>
<!-- :ui:core&#45;&gt;:shared:strings -->
<g id="edge39" class="edge">
<title>:ui:core&#45;&gt;:shared:strings</title>
<path fill="none" stroke="black" d="M213.04,-547.81C213.04,-547.81 213.04,-456.4 213.04,-456.4"/>
<polygon fill="black" stroke="black" points="216.54,-456.4 213.04,-446.4 209.54,-456.4 216.54,-456.4"/>
</g>
<!-- :data:repository&#45;&gt;:test&#45;data -->
<g id="edge45" class="edge">
<title>:data:repository&#45;&gt;:test&#45;data</title>
<path fill="none" stroke="#ff9ab1" stroke-dasharray="1,5" d="M629.46,-691.73C629.46,-660.65 629.46,-576 629.46,-576 629.46,-576 651.02,-576 651.02,-576"/>
<polygon fill="#ff9ab1" stroke="#ff9ab1" points="651.02,-579.5 661.02,-576 651.02,-572.5 651.02,-579.5"/>
</g>
<!-- :data:repository&#45;&gt;:shared:domain -->
<g id="edge40" class="edge">
<title>:data:repository&#45;&gt;:shared:domain</title>
<path fill="none" stroke="black" stroke-dasharray="1,5" d="M482.7,-697C442.93,-697 403.3,-697 403.3,-697 403.3,-697 403.3,-46.16 403.3,-46.16"/>
<polygon fill="black" stroke="black" points="406.8,-46.16 403.3,-36.16 399.8,-46.16 406.8,-46.16"/>
</g>
<!-- :data:repository&#45;&gt;:core:coroutines -->
<g id="edge46" class="edge">
<title>:data:repository&#45;&gt;:core:coroutines</title>
<path fill="none" stroke="#ff9ab1" stroke-dasharray="1,5" d="M500.67,-690.52C500.67,-690.52 500.67,-182.37 500.67,-182.37"/>
<polygon fill="#ff9ab1" stroke="#ff9ab1" points="504.17,-182.37 500.67,-172.37 497.17,-182.37 504.17,-182.37"/>
</g>
<!-- :data:repository&#45;&gt;:data:database -->
<g id="edge41" class="edge">
<title>:data:repository&#45;&gt;:data:database</title>
<path fill="none" stroke="black" stroke-dasharray="1,5" d="M546.21,-685.34C546.21,-606.67 546.21,-292 546.21,-292 546.21,-292 581.63,-292 581.63,-292"/>
<polygon fill="black" stroke="black" points="581.63,-295.5 591.63,-292 581.63,-288.5 581.63,-295.5"/>
</g>
<!-- :data:repository&#45;&gt;:data:musicbrainz -->
<g id="edge42" class="edge">
<title>:data:repository&#45;&gt;:data:musicbrainz</title>
<path fill="none" stroke="black" stroke-dasharray="1,5" d="M643.41,-697C713.96,-697 805.41,-697 805.41,-697 805.41,-697 805.41,-183.03 805.41,-183.03"/>
<polygon fill="black" stroke="black" points="808.91,-183.03 805.41,-173.03 801.91,-183.03 808.91,-183.03"/>
</g>
<!-- :data:repository&#45;&gt;:data:coverart -->
<g id="edge43" class="edge">
<title>:data:repository&#45;&gt;:data:coverart</title>
<path fill="none" stroke="black" stroke-dasharray="1,5" d="M610.73,-687.88C610.73,-687.88 610.73,-450.88 610.73,-450.88"/>
<polygon fill="black" stroke="black" points="614.23,-450.88 610.73,-440.88 607.23,-450.88 614.23,-450.88"/>
</g>
<!-- :data:repository&#45;&gt;:core:logging:api -->
<g id="edge44" class="edge">
<title>:data:repository&#45;&gt;:core:logging:api</title>
<path fill="none" stroke="black" stroke-dasharray="1,5" d="M643.52,-709C754.33,-709 940.35,-709 940.35,-709 940.35,-709 940.35,-36.99 940.35,-36.99"/>
<polygon fill="black" stroke="black" points="943.85,-36.99 940.35,-26.99 936.85,-36.99 943.85,-36.99"/>
</g>
</g>
</svg>
