<?xml version="1.0" encoding="UTF-8" standalone="no"?>
<!DOCTYPE svg PUBLIC "-//W3C//DTD SVG 1.1//EN"
 "http://www.w3.org/Graphics/SVG/1.1/DTD/svg11.dtd">
<!-- Generated by graphviz version 2.43.0 (0)
 -->
<!-- Title: %3 Pages: 1 -->
<svg width="808pt" height="666pt"
 viewBox="0.00 0.00 807.64 666.00" xmlns="http://www.w3.org/2000/svg" xmlns:xlink="http://www.w3.org/1999/xlink">
<g id="graph0" class="graph" transform="scale(1 1) rotate(0) translate(4 662)">
<title>%3</title>
<polygon fill="white" stroke="transparent" points="-4,4 -4,-662 803.64,-662 803.64,4 -4,4"/>
<text text-anchor="middle" x="399.82" y="-630" font-family="Times,serif" font-size="30.00">Dependencies</text>
<text text-anchor="middle" x="399.82" y="-597" font-family="Times,serif" font-size="30.00"> </text>
<!-- :shared:feature:images -->
<g id="node1" class="node">
<title>:shared:feature:images</title>
<polygon fill="#b59aff" stroke="black" points="385.04,-584 203.04,-584 203.04,-548 385.04,-548 385.04,-584"/>
<text text-anchor="middle" x="294.04" y="-562.3" font-family="Times,serif" font-size="14.00">:shared:feature:images</text>
</g>
<!-- :test:image -->
<g id="node2" class="node">
<title>:test:image</title>
<ellipse fill="#9affb5" stroke="black" cx="63.04" cy="-155" rx="63.09" ry="18"/>
<text text-anchor="middle" x="63.04" y="-151.3" font-family="Times,serif" font-size="14.00">:test:image</text>
</g>
<!-- :shared:feature:images&#45;&gt;:test:image -->
<g id="edge1" class="edge">
<title>:shared:feature:images&#45;&gt;:test:image</title>
<path fill="none" stroke="black" stroke-dasharray="1,5" d="M230.99,-547.81C230.99,-469.01 230.99,-161 230.99,-161 230.99,-161 132.73,-161 132.73,-161"/>
<polygon fill="black" stroke="black" points="132.73,-157.5 122.73,-161 132.73,-164.5 132.73,-157.5"/>
</g>
<!-- :ui:test:screenshot -->
<g id="node3" class="node">
<title>:ui:test:screenshot</title>
<ellipse fill="#9affb5" stroke="black" cx="125.04" cy="-292" rx="96.68" ry="18"/>
<text text-anchor="middle" x="125.04" y="-288.3" font-family="Times,serif" font-size="14.00">:ui:test:screenshot</text>
</g>
<!-- :shared:feature:images&#45;&gt;:ui:test:screenshot -->
<g id="edge2" class="edge">
<title>:shared:feature:images&#45;&gt;:ui:test:screenshot</title>
<path fill="none" stroke="#ff9ab1" stroke-dasharray="1,5" d="M209.32,-547.6C209.32,-547.6 209.32,-310.98 209.32,-310.98"/>
<polygon fill="#ff9ab1" stroke="#ff9ab1" points="212.82,-310.98 209.32,-300.98 205.82,-310.98 212.82,-310.98"/>
</g>
<!-- :shared:domain -->
<g id="node4" class="node">
<title>:shared:domain</title>
<ellipse fill="#b59aff" stroke="black" cx="517.04" cy="-155" rx="82.59" ry="18"/>
<text text-anchor="middle" x="517.04" y="-151.3" font-family="Times,serif" font-size="14.00">:shared:domain</text>
</g>
<!-- :shared:feature:images&#45;&gt;:shared:domain -->
<g id="edge3" class="edge">
<title>:shared:feature:images&#45;&gt;:shared:domain</title>
<path fill="none" stroke="black" stroke-dasharray="1,5" d="M303.83,-547.72C303.83,-497.3 303.83,-360 303.83,-360 303.83,-360 438.25,-360 438.25,-360 438.25,-360 438.25,-170.48 438.25,-170.48"/>
<polygon fill="black" stroke="black" points="441.75,-170.48 438.25,-160.48 434.75,-170.48 441.75,-170.48"/>
</g>
<!-- :ui:image -->
<g id="node5" class="node">
<title>:ui:image</title>
<ellipse fill="#b59aff" stroke="black" cx="294.04" cy="-292" rx="53.89" ry="18"/>
<text text-anchor="middle" x="294.04" y="-288.3" font-family="Times,serif" font-size="14.00">:ui:image</text>
</g>
<!-- :shared:feature:images&#45;&gt;:ui:image -->
<g id="edge4" class="edge">
<title>:shared:feature:images&#45;&gt;:ui:image</title>
<path fill="none" stroke="black" stroke-dasharray="1,5" d="M271.97,-547.6C271.97,-547.6 271.97,-318.57 271.97,-318.57"/>
<polygon fill="black" stroke="black" points="275.47,-318.57 271.97,-308.57 268.47,-318.57 275.47,-318.57"/>
</g>
<!-- :ui:common -->
<g id="node6" class="node">
<title>:ui:common</title>
<ellipse fill="#b59aff" stroke="black" cx="400.04" cy="-429" rx="64.19" ry="18"/>
<text text-anchor="middle" x="400.04" y="-425.3" font-family="Times,serif" font-size="14.00">:ui:common</text>
</g>
<!-- :shared:feature:images&#45;&gt;:ui:common -->
<g id="edge5" class="edge">
<title>:shared:feature:images&#45;&gt;:ui:common</title>
<path fill="none" stroke="black" stroke-dasharray="1,5" d="M360.37,-547.81C360.37,-547.81 360.37,-453.5 360.37,-453.5"/>
<polygon fill="black" stroke="black" points="363.87,-453.5 360.37,-443.5 356.87,-453.5 363.87,-453.5"/>
</g>
<!-- :ui:test:screenshot&#45;&gt;:test:image -->
<g id="edge7" class="edge">
<title>:ui:test:screenshot&#45;&gt;:test:image</title>
<path fill="none" stroke="black" stroke-dasharray="1,5" d="M77.15,-276.28C77.15,-276.28 77.15,-182.69 77.15,-182.69"/>
<polygon fill="black" stroke="black" points="80.65,-182.69 77.15,-172.69 73.65,-182.69 80.65,-182.69"/>
</g>
<!-- :ui:core -->
<g id="node7" class="node">
<title>:ui:core</title>
<ellipse fill="#b59aff" stroke="black" cx="294.04" cy="-155" rx="45.49" ry="18"/>
<text text-anchor="middle" x="294.04" y="-151.3" font-family="Times,serif" font-size="14.00">:ui:core</text>
</g>
<!-- :ui:test:screenshot&#45;&gt;:ui:core -->
<g id="edge6" class="edge">
<title>:ui:test:screenshot&#45;&gt;:ui:core</title>
<path fill="none" stroke="black" stroke-dasharray="1,5" d="M217.34,-286.22C217.34,-259.46 217.34,-149 217.34,-149 217.34,-149 240.76,-149 240.76,-149"/>
<polygon fill="black" stroke="black" points="240.76,-152.5 250.76,-149 240.76,-145.5 240.76,-152.5"/>
</g>
<!-- :ui:image&#45;&gt;:shared:domain -->
<g id="edge8" class="edge">
<title>:ui:image&#45;&gt;:shared:domain</title>
<path fill="none" stroke="black" stroke-dasharray="1,5" d="M348.26,-292C388.48,-292 436.38,-292 436.38,-292 436.38,-292 436.38,-168.95 436.38,-168.95"/>
<polygon fill="black" stroke="black" points="439.88,-168.95 436.38,-158.95 432.88,-168.95 439.88,-168.95"/>
</g>
<!-- :ui:image&#45;&gt;:ui:core -->
<g id="edge9" class="edge">
<title>:ui:image&#45;&gt;:ui:core</title>
<path fill="none" stroke="black" stroke-dasharray="1,5" d="M294.04,-273.81C294.04,-273.81 294.04,-183.27 294.04,-183.27"/>
<polygon fill="black" stroke="black" points="297.54,-183.27 294.04,-173.27 290.54,-183.27 297.54,-183.27"/>
</g>
<!-- :ui:common&#45;&gt;:ui:test:screenshot -->
<g id="edge10" class="edge">
<title>:ui:common&#45;&gt;:ui:test:screenshot</title>
<path fill="none" stroke="#ff9ab1" stroke-dasharray="1,5" d="M335.54,-429C282.35,-429 215.61,-429 215.61,-429 215.61,-429 215.61,-308.61 215.61,-308.61"/>
<polygon fill="#ff9ab1" stroke="#ff9ab1" points="219.11,-308.61 215.61,-298.61 212.11,-308.61 219.11,-308.61"/>
</g>
<!-- :ui:common&#45;&gt;:shared:domain -->
<g id="edge11" class="edge">
<title>:ui:common&#45;&gt;:shared:domain</title>
<path fill="none" stroke="black" d="M440.13,-414.65C440.13,-414.65 440.13,-171.84 440.13,-171.84"/>
<polygon fill="black" stroke="black" points="443.63,-171.84 440.13,-161.84 436.63,-171.84 443.63,-171.84"/>
</g>
<!-- :ui:common&#45;&gt;:ui:image -->
<g id="edge16" class="edge">
<title>:ui:common&#45;&gt;:ui:image</title>
<path fill="none" stroke="black" stroke-dasharray="1,5" d="M341.84,-421.24C341.84,-421.24 341.84,-310.36 341.84,-310.36"/>
<polygon fill="black" stroke="black" points="345.34,-310.36 341.84,-300.36 338.34,-310.36 345.34,-310.36"/>
</g>
<!-- :ui:common&#45;&gt;:ui:core -->
<g id="edge12" class="edge">
<title>:ui:common&#45;&gt;:ui:core</title>
<path fill="none" stroke="black" d="M361.64,-414.27C361.64,-357.36 361.64,-155 361.64,-155 361.64,-155 349.88,-155 349.88,-155"/>
<polygon fill="black" stroke="black" points="349.88,-151.5 339.88,-155 349.88,-158.5 349.88,-151.5"/>
</g>
<!-- :data:coverart -->
<g id="node8" class="node">
<title>:data:coverart</title>
<ellipse fill="#b59aff" stroke="black" cx="518.04" cy="-292" rx="76.09" ry="18"/>
<text text-anchor="middle" x="518.04" y="-288.3" font-family="Times,serif" font-size="14.00">:data:coverart</text>
</g>
<!-- :ui:common&#45;&gt;:data:coverart -->
<g id="edge13" class="edge">
<title>:ui:common&#45;&gt;:data:coverart</title>
<path fill="none" stroke="black" stroke-dasharray="1,5" d="M453.19,-418.7C453.19,-418.7 453.19,-311.68 453.19,-311.68"/>
<polygon fill="black" stroke="black" points="456.7,-311.68 453.19,-301.68 449.7,-311.68 456.7,-311.68"/>
</g>
<!-- :data:musicbrainz -->
<g id="node9" class="node">
<title>:data:musicbrainz</title>
<ellipse fill="#b59aff" stroke="black" cx="706.04" cy="-292" rx="93.68" ry="18"/>
<text text-anchor="middle" x="706.04" y="-288.3" font-family="Times,serif" font-size="14.00">:data:musicbrainz</text>
</g>
<!-- :ui:common&#45;&gt;:data:musicbrainz -->
<g id="edge14" class="edge">
<title>:ui:common&#45;&gt;:data:musicbrainz</title>
<path fill="none" stroke="black" stroke-dasharray="1,5" d="M460.87,-435C550.1,-435 706.04,-435 706.04,-435 706.04,-435 706.04,-320.11 706.04,-320.11"/>
<polygon fill="black" stroke="black" points="709.54,-320.11 706.04,-310.11 702.54,-320.11 709.54,-320.11"/>
</g>
<!-- :core:logging:api -->
<g id="node10" class="node">
<title>:core:logging:api</title>
<ellipse fill="#b59aff" stroke="black" cx="706.04" cy="-155" rx="88.28" ry="18"/>
<text text-anchor="middle" x="706.04" y="-151.3" font-family="Times,serif" font-size="14.00">:core:logging:api</text>
</g>
<!-- :ui:common&#45;&gt;:core:logging:api -->
<g id="edge15" class="edge">
<title>:ui:common&#45;&gt;:core:logging:api</title>
<path fill="none" stroke="black" stroke-dasharray="1,5" d="M460.73,-423C521.49,-423 606.02,-423 606.02,-423 606.02,-423 606.02,-155 606.02,-155 606.02,-155 607.49,-155 607.49,-155"/>
<polygon fill="black" stroke="black" points="607.49,-158.5 617.49,-155 607.49,-151.5 607.49,-158.5"/>
</g>
<!-- :shared:strings -->
<g id="node11" class="node">
<title>:shared:strings</title>
<ellipse fill="#b59aff" stroke="black" cx="294.04" cy="-18" rx="81.49" ry="18"/>
<text text-anchor="middle" x="294.04" y="-14.3" font-family="Times,serif" font-size="14.00">:shared:strings</text>
</g>
<!-- :ui:core&#45;&gt;:shared:strings -->
<g id="edge17" class="edge">
<title>:ui:core&#45;&gt;:shared:strings</title>
<path fill="none" stroke="black" d="M294.04,-136.81C294.04,-136.81 294.04,-46.27 294.04,-46.27"/>
<polygon fill="black" stroke="black" points="297.54,-46.27 294.04,-36.27 290.54,-46.27 297.54,-46.27"/>
</g>
<!-- :data:coverart&#45;&gt;:shared:domain -->
<g id="edge18" class="edge">
<title>:data:coverart&#45;&gt;:shared:domain</title>
<path fill="none" stroke="black" stroke-dasharray="1,5" d="M518.04,-273.81C518.04,-273.81 518.04,-183.27 518.04,-183.27"/>
<polygon fill="black" stroke="black" points="521.54,-183.27 518.04,-173.27 514.54,-183.27 521.54,-183.27"/>
</g>
<!-- :data:coverart&#45;&gt;:core:logging:api -->
<g id="edge19" class="edge">
<title>:data:coverart&#45;&gt;:core:logging:api</title>
<path fill="none" stroke="black" stroke-dasharray="1,5" d="M589.93,-286C597.67,-286 602.8,-286 602.8,-286 602.8,-286 602.8,-146 602.8,-146 602.8,-146 619.39,-146 619.39,-146"/>
<polygon fill="black" stroke="black" points="619.39,-149.5 629.39,-146 619.39,-142.5 619.39,-149.5"/>
</g>
<!-- :data:musicbrainz&#45;&gt;:shared:domain -->
<g id="edge20" class="edge">
<title>:data:musicbrainz&#45;&gt;:shared:domain</title>
<path fill="none" stroke="black" stroke-dasharray="1,5" d="M617.49,-298C612.36,-298 609.24,-298 609.24,-298 609.24,-298 609.24,-164 609.24,-164 609.24,-164 598.78,-164 598.78,-164"/>
<polygon fill="black" stroke="black" points="598.78,-160.5 588.78,-164 598.78,-167.5 598.78,-160.5"/>
</g>
<!-- :data:musicbrainz&#45;&gt;:core:logging:api -->
<g id="edge21" class="edge">
<title>:data:musicbrainz&#45;&gt;:core:logging:api</title>
<path fill="none" stroke="black" stroke-dasharray="1,5" d="M706.04,-273.81C706.04,-273.81 706.04,-183.27 706.04,-183.27"/>
<polygon fill="black" stroke="black" points="709.54,-183.27 706.04,-173.27 702.54,-183.27 709.54,-183.27"/>
</g>
</g>
</svg>
