<?xml version="1.0" encoding="UTF-8" standalone="no"?>
<!DOCTYPE svg PUBLIC "-//W3C//DTD SVG 1.1//EN"
 "http://www.w3.org/Graphics/SVG/1.1/DTD/svg11.dtd">
<!-- Generated by graphviz version 2.43.0 (0)
 -->
<!-- Title: %3 Pages: 1 -->
<svg width="1119pt" height="666pt"
 viewBox="0.00 0.00 1119.38 666.00" xmlns="http://www.w3.org/2000/svg" xmlns:xlink="http://www.w3.org/1999/xlink">
<g id="graph0" class="graph" transform="scale(1 1) rotate(0) translate(4 662)">
<title>%3</title>
<polygon fill="white" stroke="transparent" points="-4,4 -4,-662 1115.38,-662 1115.38,4 -4,4"/>
<text text-anchor="middle" x="555.69" y="-630" font-family="Times,serif" font-size="30.00">Dependencies</text>
<text text-anchor="middle" x="555.69" y="-597" font-family="Times,serif" font-size="30.00"> </text>
<!-- :shared:feature:images -->
<g id="node1" class="node">
<title>:shared:feature:images</title>
<ellipse fill="#b59aff" stroke="black" cx="303.84" cy="-566" rx="118.08" ry="18"/>
<text text-anchor="middle" x="303.84" y="-562.3" font-family="Times,serif" font-size="14.00">:shared:feature:images</text>
</g>
<!-- :test:image -->
<g id="node2" class="node">
<title>:test:image</title>
<ellipse fill="#9affb5" stroke="black" cx="95.84" cy="-155" rx="63.09" ry="18"/>
<text text-anchor="middle" x="95.84" y="-151.3" font-family="Times,serif" font-size="14.00">:test:image</text>
</g>
<!-- :shared:feature:images&#45;&gt;:test:image -->
<g id="edge1" class="edge">
<title>:shared:feature:images&#45;&gt;:test:image</title>
<path fill="none" stroke="black" stroke-dasharray="1,5" d="M221.79,-552.97C221.79,-490.32 221.79,-223 221.79,-223 221.79,-223 127.36,-223 127.36,-223 127.36,-223 127.36,-180.77 127.36,-180.77"/>
<polygon fill="black" stroke="black" points="130.86,-180.77 127.36,-170.77 123.86,-180.77 130.86,-180.77"/>
</g>
<!-- :ui:test:screenshot -->
<g id="node3" class="node">
<title>:ui:test:screenshot</title>
<ellipse fill="#9affb5" stroke="black" cx="96.84" cy="-292" rx="96.68" ry="18"/>
<text text-anchor="middle" x="96.84" y="-288.3" font-family="Times,serif" font-size="14.00">:ui:test:screenshot</text>
</g>
<!-- :shared:feature:images&#45;&gt;:ui:test:screenshot -->
<g id="edge2" class="edge">
<title>:shared:feature:images&#45;&gt;:ui:test:screenshot</title>
<path fill="none" stroke="#ff9ab1" stroke-dasharray="1,5" d="M188.26,-562.13C188.26,-562.13 188.26,-308.12 188.26,-308.12"/>
<polygon fill="#ff9ab1" stroke="#ff9ab1" points="191.76,-308.12 188.26,-298.12 184.76,-308.12 191.76,-308.12"/>
</g>
<!-- :shared:domain -->
<g id="node4" class="node">
<title>:shared:domain</title>
<ellipse fill="#b59aff" stroke="black" cx="1028.84" cy="-155" rx="82.59" ry="18"/>
<text text-anchor="middle" x="1028.84" y="-151.3" font-family="Times,serif" font-size="14.00">:shared:domain</text>
</g>
<!-- :shared:feature:images&#45;&gt;:shared:domain -->
<g id="edge3" class="edge">
<title>:shared:feature:images&#45;&gt;:shared:domain</title>
<path fill="none" stroke="black" stroke-dasharray="1,5" d="M422.24,-566C639.08,-566 1077.88,-566 1077.88,-566 1077.88,-566 1077.88,-179.63 1077.88,-179.63"/>
<polygon fill="black" stroke="black" points="1081.38,-179.63 1077.88,-169.63 1074.38,-179.63 1081.38,-179.63"/>
</g>
<!-- :ui:image -->
<g id="node5" class="node">
<title>:ui:image</title>
<ellipse fill="#b59aff" stroke="black" cx="303.84" cy="-292" rx="53.89" ry="18"/>
<text text-anchor="middle" x="303.84" y="-288.3" font-family="Times,serif" font-size="14.00">:ui:image</text>
</g>
<!-- :shared:feature:images&#45;&gt;:ui:image -->
<g id="edge4" class="edge">
<title>:shared:feature:images&#45;&gt;:ui:image</title>
<path fill="none" stroke="black" stroke-dasharray="1,5" d="M303.84,-547.6C303.84,-547.6 303.84,-320.32 303.84,-320.32"/>
<polygon fill="black" stroke="black" points="307.34,-320.32 303.84,-310.32 300.34,-320.32 307.34,-320.32"/>
</g>
<!-- :ui:common -->
<g id="node6" class="node">
<title>:ui:common</title>
<ellipse fill="#b59aff" stroke="black" cx="450.84" cy="-429" rx="64.19" ry="18"/>
<text text-anchor="middle" x="450.84" y="-425.3" font-family="Times,serif" font-size="14.00">:ui:common</text>
</g>
<!-- :shared:feature:images&#45;&gt;:ui:common -->
<g id="edge5" class="edge">
<title>:shared:feature:images&#45;&gt;:ui:common</title>
<path fill="none" stroke="black" stroke-dasharray="1,5" d="M404.31,-556.15C404.31,-556.15 404.31,-451.47 404.31,-451.47"/>
<polygon fill="black" stroke="black" points="407.81,-451.47 404.31,-441.47 400.81,-451.47 407.81,-451.47"/>
</g>
<!-- :ui:test:screenshot&#45;&gt;:test:image -->
<g id="edge7" class="edge">
<title>:ui:test:screenshot&#45;&gt;:test:image</title>
<path fill="none" stroke="black" stroke-dasharray="1,5" d="M64.32,-274.93C64.32,-274.93 64.32,-180.59 64.32,-180.59"/>
<polygon fill="black" stroke="black" points="67.82,-180.59 64.32,-170.59 60.82,-180.59 67.82,-180.59"/>
</g>
<!-- :ui:test:screenshot&#45;&gt;:test:image -->
<g id="edge23" class="edge">
<title>:ui:test:screenshot&#45;&gt;:test:image</title>
<path fill="none" stroke="black" stroke-dasharray="1,5" d="M95.84,-273.81C95.84,-273.81 95.84,-183.27 95.84,-183.27"/>
<polygon fill="black" stroke="black" points="99.34,-183.27 95.84,-173.27 92.34,-183.27 99.34,-183.27"/>
</g>
<!-- :ui:core -->
<g id="node7" class="node">
<title>:ui:core</title>
<ellipse fill="#b59aff" stroke="black" cx="222.84" cy="-155" rx="45.49" ry="18"/>
<text text-anchor="middle" x="222.84" y="-151.3" font-family="Times,serif" font-size="14.00">:ui:core</text>
</g>
<!-- :ui:test:screenshot&#45;&gt;:ui:core -->
<g id="edge6" class="edge">
<title>:ui:test:screenshot&#45;&gt;:ui:core</title>
<path fill="none" stroke="black" stroke-dasharray="1,5" d="M182.79,-283.43C182.79,-283.43 182.79,-173.57 182.79,-173.57"/>
<polygon fill="black" stroke="black" points="186.29,-173.57 182.79,-163.57 179.29,-173.57 186.29,-173.57"/>
</g>
<!-- :ui:test:screenshot&#45;&gt;:ui:core -->
<g id="edge22" class="edge">
<title>:ui:test:screenshot&#45;&gt;:ui:core</title>
<path fill="none" stroke="black" stroke-dasharray="1,5" d="M188.24,-285.76C188.24,-285.76 188.24,-176.76 188.24,-176.76"/>
<polygon fill="black" stroke="black" points="191.74,-176.76 188.24,-166.76 184.74,-176.76 191.74,-176.76"/>
</g>
<!-- :core:models -->
<g id="node8" class="node">
<title>:core:models</title>
<ellipse fill="#b59aff" stroke="black" cx="685.84" cy="-18" rx="69.59" ry="18"/>
<text text-anchor="middle" x="685.84" y="-14.3" font-family="Times,serif" font-size="14.00">:core:models</text>
</g>
<!-- :shared:domain&#45;&gt;:core:models -->
<g id="edge8" class="edge">
<title>:shared:domain&#45;&gt;:core:models</title>
<path fill="none" stroke="black" stroke-dasharray="1,5" d="M987.57,-139.37C987.57,-104.02 987.57,-21 987.57,-21 987.57,-21 764.69,-21 764.69,-21"/>
<polygon fill="black" stroke="black" points="764.69,-17.5 754.69,-21 764.69,-24.5 764.69,-17.5"/>
</g>
<!-- :shared:domain&#45;&gt;:core:models -->
<g id="edge32" class="edge">
<title>:shared:domain&#45;&gt;:core:models</title>
<path fill="none" stroke="black" stroke-dasharray="1,5" d="M1028.84,-136.86C1028.84,-98.77 1028.84,-14 1028.84,-14 1028.84,-14 764.02,-14 764.02,-14"/>
<polygon fill="black" stroke="black" points="764.02,-10.5 754.02,-14 764.02,-17.5 764.02,-10.5"/>
</g>
<!-- :shared:domain&#45;&gt;:core:models -->
<g id="edge35" class="edge">
<title>:shared:domain&#45;&gt;:core:models</title>
<path fill="none" stroke="black" stroke-dasharray="1,5" d="M1070.11,-139.16C1070.11,-100.98 1070.11,-7 1070.11,-7 1070.11,-7 750.9,-7 750.9,-7"/>
<polygon fill="black" stroke="black" points="750.9,-3.5 740.9,-7 750.9,-10.5 750.9,-3.5"/>
</g>
<!-- :ui:image&#45;&gt;:ui:core -->
<g id="edge10" class="edge">
<title>:ui:image&#45;&gt;:ui:core</title>
<path fill="none" stroke="black" stroke-dasharray="1,5" d="M256.04,-283.43C256.04,-283.43 256.04,-177.38 256.04,-177.38"/>
<polygon fill="black" stroke="black" points="259.54,-177.38 256.04,-167.38 252.54,-177.38 259.54,-177.38"/>
</g>
<!-- :ui:image&#45;&gt;:ui:core -->
<g id="edge34" class="edge">
<title>:ui:image&#45;&gt;:ui:core</title>
<path fill="none" stroke="black" stroke-dasharray="1,5" d="M262.19,-280.32C262.19,-280.32 262.19,-174.07 262.19,-174.07"/>
<polygon fill="black" stroke="black" points="265.69,-174.07 262.19,-164.07 258.69,-174.07 265.69,-174.07"/>
</g>
<!-- :ui:image&#45;&gt;:core:models -->
<g id="edge9" class="edge">
<title>:ui:image&#45;&gt;:core:models</title>
<path fill="none" stroke="black" stroke-dasharray="1,5" d="M339.89,-278.59C339.89,-223.06 339.89,-14 339.89,-14 339.89,-14 607.9,-14 607.9,-14"/>
<polygon fill="black" stroke="black" points="607.9,-17.5 617.9,-14 607.9,-10.5 607.9,-17.5"/>
</g>
<!-- :ui:image&#45;&gt;:core:models -->
<g id="edge33" class="edge">
<title>:ui:image&#45;&gt;:core:models</title>
<path fill="none" stroke="black" stroke-dasharray="1,5" d="M321.99,-275.03C321.99,-213.67 321.99,-7 321.99,-7 321.99,-7 620.58,-7 620.58,-7"/>
<polygon fill="black" stroke="black" points="620.58,-10.5 630.58,-7 620.58,-3.5 620.58,-10.5"/>
</g>
<!-- :ui:common&#45;&gt;:ui:test:screenshot -->
<g id="edge11" class="edge">
<title>:ui:common&#45;&gt;:ui:test:screenshot</title>
<path fill="none" stroke="#ff9ab1" stroke-dasharray="1,5" d="M386.27,-429C309.31,-429 190.97,-429 190.97,-429 190.97,-429 190.97,-306.25 190.97,-306.25"/>
<polygon fill="#ff9ab1" stroke="#ff9ab1" points="194.47,-306.25 190.97,-296.25 187.47,-306.25 194.47,-306.25"/>
</g>
<!-- :ui:common&#45;&gt;:shared:domain -->
<g id="edge18" class="edge">
<title>:ui:common&#45;&gt;:shared:domain</title>
<path fill="none" stroke="black" stroke-dasharray="1,5" d="M504.56,-439C650.67,-439 1044.38,-439 1044.38,-439 1044.38,-439 1044.38,-182.77 1044.38,-182.77"/>
<polygon fill="black" stroke="black" points="1047.88,-182.77 1044.38,-172.77 1040.88,-182.77 1047.88,-182.77"/>
</g>
<!-- :ui:common&#45;&gt;:ui:image -->
<g id="edge19" class="edge">
<title>:ui:common&#45;&gt;:ui:image</title>
<path fill="none" stroke="black" stroke-dasharray="1,5" d="M393.42,-420.84C393.42,-391.35 393.42,-292 393.42,-292 393.42,-292 368.02,-292 368.02,-292"/>
<polygon fill="black" stroke="black" points="368.02,-288.5 358.02,-292 368.02,-295.5 368.02,-288.5"/>
</g>
<!-- :ui:common&#45;&gt;:ui:core -->
<g id="edge13" class="edge">
<title>:ui:common&#45;&gt;:ui:core</title>
<path fill="none" stroke="black" d="M400.35,-417.58C400.35,-365.72 400.35,-155 400.35,-155 400.35,-155 278.55,-155 278.55,-155"/>
<polygon fill="black" stroke="black" points="278.55,-151.5 268.55,-155 278.55,-158.5 278.55,-151.5"/>
</g>
<!-- :ui:common&#45;&gt;:core:models -->
<g id="edge12" class="edge">
<title>:ui:common&#45;&gt;:core:models</title>
<path fill="none" stroke="black" d="M407.27,-415.43C407.27,-344.63 407.27,-21 407.27,-21 407.27,-21 606.98,-21 606.98,-21"/>
<polygon fill="black" stroke="black" points="606.98,-24.5 616.98,-21 606.98,-17.5 606.98,-24.5"/>
</g>
<!-- :data:coverart -->
<g id="node9" class="node">
<title>:data:coverart</title>
<ellipse fill="#b59aff" stroke="black" cx="934.84" cy="-292" rx="76.09" ry="18"/>
<text text-anchor="middle" x="934.84" y="-288.3" font-family="Times,serif" font-size="14.00">:data:coverart</text>
</g>
<!-- :ui:common&#45;&gt;:data:coverart -->
<g id="edge14" class="edge">
<title>:ui:common&#45;&gt;:data:coverart</title>
<path fill="none" stroke="black" stroke-dasharray="1,5" d="M514.61,-432C646.04,-432 934.84,-432 934.84,-432 934.84,-432 934.84,-320.02 934.84,-320.02"/>
<polygon fill="black" stroke="black" points="938.34,-320.02 934.84,-310.02 931.34,-320.02 938.34,-320.02"/>
</g>
<!-- :data:musicbrainz -->
<g id="node10" class="node">
<title>:data:musicbrainz</title>
<ellipse fill="#b59aff" stroke="black" cx="708.84" cy="-292" rx="93.68" ry="18"/>
<text text-anchor="middle" x="708.84" y="-288.3" font-family="Times,serif" font-size="14.00">:data:musicbrainz</text>
</g>
<!-- :ui:common&#45;&gt;:data:musicbrainz -->
<g id="edge15" class="edge">
<title>:ui:common&#45;&gt;:data:musicbrainz</title>
<path fill="none" stroke="black" stroke-dasharray="1,5" d="M501.81,-418C577,-418 708.84,-418 708.84,-418 708.84,-418 708.84,-320.05 708.84,-320.05"/>
<polygon fill="black" stroke="black" points="712.34,-320.05 708.84,-310.05 705.34,-320.05 712.34,-320.05"/>
</g>
<!-- :core:preferences -->
<g id="node11" class="node">
<title>:core:preferences</title>
<ellipse fill="#b59aff" stroke="black" cx="505.84" cy="-292" rx="91.78" ry="18"/>
<text text-anchor="middle" x="505.84" y="-288.3" font-family="Times,serif" font-size="14.00">:core:preferences</text>
</g>
<!-- :ui:common&#45;&gt;:core:preferences -->
<g id="edge16" class="edge">
<title>:ui:common&#45;&gt;:core:preferences</title>
<path fill="none" stroke="black" stroke-dasharray="1,5" d="M464.69,-411.37C464.69,-411.37 464.69,-318.28 464.69,-318.28"/>
<polygon fill="black" stroke="black" points="468.19,-318.28 464.69,-308.28 461.19,-318.28 468.19,-318.28"/>
</g>
<!-- :core:logging:api -->
<g id="node12" class="node">
<title>:core:logging:api</title>
<ellipse fill="#b59aff" stroke="black" cx="801.84" cy="-155" rx="88.28" ry="18"/>
<text text-anchor="middle" x="801.84" y="-151.3" font-family="Times,serif" font-size="14.00">:core:logging:api</text>
</g>
<!-- :ui:common&#45;&gt;:core:logging:api -->
<g id="edge17" class="edge">
<title>:ui:common&#45;&gt;:core:logging:api</title>
<path fill="none" stroke="black" stroke-dasharray="1,5" d="M513.98,-425C621.97,-425 830.62,-425 830.62,-425 830.62,-425 830.62,-182.3 830.62,-182.3"/>
<polygon fill="black" stroke="black" points="834.12,-182.3 830.62,-172.3 827.12,-182.3 834.12,-182.3"/>
</g>
<!-- :shared:strings -->
<g id="node13" class="node">
<title>:shared:strings</title>
<ellipse fill="#b59aff" stroke="black" cx="222.84" cy="-18" rx="81.49" ry="18"/>
<text text-anchor="middle" x="222.84" y="-14.3" font-family="Times,serif" font-size="14.00">:shared:strings</text>
</g>
<!-- :ui:core&#45;&gt;:shared:strings -->
<g id="edge20" class="edge">
<title>:ui:core&#45;&gt;:shared:strings</title>
<path fill="none" stroke="black" d="M200.09,-139.28C200.09,-139.28 200.09,-45.69 200.09,-45.69"/>
<polygon fill="black" stroke="black" points="203.59,-45.69 200.09,-35.69 196.59,-45.69 203.59,-45.69"/>
</g>
<!-- :ui:core&#45;&gt;:shared:strings -->
<g id="edge21" class="edge">
<title>:ui:core&#45;&gt;:shared:strings</title>
<path fill="none" stroke="black" d="M222.84,-136.81C222.84,-136.81 222.84,-46.27 222.84,-46.27"/>
<polygon fill="black" stroke="black" points="226.34,-46.27 222.84,-36.27 219.34,-46.27 226.34,-46.27"/>
</g>
<!-- :ui:core&#45;&gt;:shared:strings -->
<g id="edge24" class="edge">
<title>:ui:core&#45;&gt;:shared:strings</title>
<path fill="none" stroke="black" d="M245.59,-139.28C245.59,-139.28 245.59,-45.69 245.59,-45.69"/>
<polygon fill="black" stroke="black" points="249.09,-45.69 245.59,-35.69 242.09,-45.69 249.09,-45.69"/>
</g>
<!-- :data:coverart&#45;&gt;:shared:domain -->
<g id="edge27" class="edge">
<title>:data:coverart&#45;&gt;:shared:domain</title>
<path fill="none" stroke="black" stroke-dasharray="1,5" d="M978.59,-277.08C978.59,-277.08 978.59,-179.49 978.59,-179.49"/>
<polygon fill="black" stroke="black" points="982.09,-179.49 978.59,-169.49 975.09,-179.49 982.09,-179.49"/>
</g>
<!-- :data:coverart&#45;&gt;:core:models -->
<g id="edge26" class="edge">
<title>:data:coverart&#45;&gt;:core:models</title>
<path fill="none" stroke="black" stroke-dasharray="1,5" d="M918.27,-274.27C918.27,-215.08 918.27,-28 918.27,-28 918.27,-28 753.89,-28 753.89,-28"/>
<polygon fill="black" stroke="black" points="753.89,-24.5 743.89,-28 753.89,-31.5 753.89,-24.5"/>
</g>
<!-- :data:coverart&#45;&gt;:core:logging:api -->
<g id="edge25" class="edge">
<title>:data:coverart&#45;&gt;:core:logging:api</title>
<path fill="none" stroke="black" stroke-dasharray="1,5" d="M874.52,-280.79C874.52,-280.79 874.52,-175.61 874.52,-175.61"/>
<polygon fill="black" stroke="black" points="878.02,-175.61 874.52,-165.61 871.02,-175.61 878.02,-175.61"/>
</g>
<!-- :data:musicbrainz&#45;&gt;:core:models -->
<g id="edge29" class="edge">
<title>:data:musicbrainz&#45;&gt;:core:models</title>
<path fill="none" stroke="black" stroke-dasharray="1,5" d="M664.87,-276.08C664.87,-276.08 664.87,-45.36 664.87,-45.36"/>
<polygon fill="black" stroke="black" points="668.37,-45.36 664.87,-35.36 661.37,-45.36 668.37,-45.36"/>
</g>
<!-- :data:musicbrainz&#45;&gt;:core:logging:api -->
<g id="edge28" class="edge">
<title>:data:musicbrainz&#45;&gt;:core:logging:api</title>
<path fill="none" stroke="black" stroke-dasharray="1,5" d="M757.94,-276.55C757.94,-276.55 757.94,-181.03 757.94,-181.03"/>
<polygon fill="black" stroke="black" points="761.44,-181.03 757.94,-171.03 754.44,-181.03 761.44,-181.03"/>
</g>
<!-- :core:preferences&#45;&gt;:core:models -->
<g id="edge31" class="edge">
<title>:core:preferences&#45;&gt;:core:models</title>
<path fill="none" stroke="black" stroke-dasharray="1,5" d="M597.8,-292C603.12,-292 606.37,-292 606.37,-292 606.37,-292 606.37,-28 606.37,-28 606.37,-28 617.66,-28 617.66,-28"/>
<polygon fill="black" stroke="black" points="617.66,-31.5 627.66,-28 617.66,-24.5 617.66,-31.5"/>
</g>
<!-- :core:coroutines -->
<g id="node14" class="node">
<title>:core:coroutines</title>
<ellipse fill="#b59aff" stroke="black" cx="505.84" cy="-155" rx="85.29" ry="18"/>
<text text-anchor="middle" x="505.84" y="-151.3" font-family="Times,serif" font-size="14.00">:core:coroutines</text>
</g>
<!-- :core:preferences&#45;&gt;:core:coroutines -->
<g id="edge30" class="edge">
<title>:core:preferences&#45;&gt;:core:coroutines</title>
<path fill="none" stroke="black" stroke-dasharray="1,5" d="M505.84,-273.81C505.84,-273.81 505.84,-183.27 505.84,-183.27"/>
<polygon fill="black" stroke="black" points="509.34,-183.27 505.84,-173.27 502.34,-183.27 509.34,-183.27"/>
</g>
</g>
</svg>
