<?xml version="1.0" encoding="UTF-8" standalone="no"?>
<!DOCTYPE svg PUBLIC "-//W3C//DTD SVG 1.1//EN"
 "http://www.w3.org/Graphics/SVG/1.1/DTD/svg11.dtd">
<!-- Generated by graphviz version 2.43.0 (0)
 -->
<!-- Title: %3 Pages: 1 -->
<svg width="905pt" height="803pt"
 viewBox="0.00 0.00 904.74 803.00" xmlns="http://www.w3.org/2000/svg" xmlns:xlink="http://www.w3.org/1999/xlink">
<g id="graph0" class="graph" transform="scale(1 1) rotate(0) translate(4 799)">
<title>%3</title>
<polygon fill="white" stroke="transparent" points="-4,4 -4,-799 900.74,-799 900.74,4 -4,4"/>
<text text-anchor="middle" x="448.37" y="-767" font-family="Times,serif" font-size="30.00">Dependencies</text>
<text text-anchor="middle" x="448.37" y="-734" font-family="Times,serif" font-size="30.00"> </text>
<!-- :shared:feature:images -->
<g id="node1" class="node">
<title>:shared:feature:images</title>
<polygon fill="#b59aff" stroke="black" points="312.84,-721 130.84,-721 130.84,-685 312.84,-685 312.84,-721"/>
<text text-anchor="middle" x="221.84" y="-699.3" font-family="Times,serif" font-size="14.00">:shared:feature:images</text>
</g>
<!-- :test:image -->
<g id="node2" class="node">
<title>:test:image</title>
<ellipse fill="#9affb5" stroke="black" cx="96.84" cy="-292" rx="63.09" ry="18"/>
<text text-anchor="middle" x="96.84" y="-288.3" font-family="Times,serif" font-size="14.00">:test:image</text>
</g>
<!-- :shared:feature:images&#45;&gt;:test:image -->
<g id="edge1" class="edge">
<title>:shared:feature:images&#45;&gt;:test:image</title>
<path fill="none" stroke="black" stroke-dasharray="1,5" d="M212.29,-684.81C212.29,-606.01 212.29,-298 212.29,-298 212.29,-298 166.59,-298 166.59,-298"/>
<polygon fill="black" stroke="black" points="166.59,-294.5 156.59,-298 166.59,-301.5 166.59,-294.5"/>
</g>
<!-- :test&#45;data -->
<g id="node3" class="node">
<title>:test&#45;data</title>
<ellipse fill="#b59aff" stroke="black" cx="499.84" cy="-429" rx="55.49" ry="18"/>
<text text-anchor="middle" x="499.84" y="-425.3" font-family="Times,serif" font-size="14.00">:test&#45;data</text>
</g>
<!-- :shared:feature:images&#45;&gt;:test&#45;data -->
<g id="edge2" class="edge">
<title>:shared:feature:images&#45;&gt;:test&#45;data</title>
<path fill="none" stroke="#ff9ab1" stroke-dasharray="1,5" d="M312.87,-703C393.95,-703 499.84,-703 499.84,-703 499.84,-703 499.84,-457.4 499.84,-457.4"/>
<polygon fill="#ff9ab1" stroke="#ff9ab1" points="503.34,-457.4 499.84,-447.4 496.34,-457.4 503.34,-457.4"/>
</g>
<!-- :ui:test:screenshot -->
<g id="node4" class="node">
<title>:ui:test:screenshot</title>
<ellipse fill="#9affb5" stroke="black" cx="96.84" cy="-429" rx="96.68" ry="18"/>
<text text-anchor="middle" x="96.84" y="-425.3" font-family="Times,serif" font-size="14.00">:ui:test:screenshot</text>
</g>
<!-- :shared:feature:images&#45;&gt;:ui:test:screenshot -->
<g id="edge3" class="edge">
<title>:shared:feature:images&#45;&gt;:ui:test:screenshot</title>
<path fill="none" stroke="#ff9ab1" stroke-dasharray="1,5" d="M162.26,-684.6C162.26,-684.6 162.26,-452.28 162.26,-452.28"/>
<polygon fill="#ff9ab1" stroke="#ff9ab1" points="165.76,-452.28 162.26,-442.28 158.76,-452.28 165.76,-452.28"/>
</g>
<!-- :shared:domain -->
<g id="node5" class="node">
<title>:shared:domain</title>
<ellipse fill="#b59aff" stroke="black" cx="354.84" cy="-18" rx="82.59" ry="18"/>
<text text-anchor="middle" x="354.84" y="-14.3" font-family="Times,serif" font-size="14.00">:shared:domain</text>
</g>
<!-- :shared:feature:images&#45;&gt;:shared:domain -->
<g id="edge4" class="edge">
<title>:shared:feature:images&#45;&gt;:shared:domain</title>
<path fill="none" stroke="black" stroke-dasharray="1,5" d="M230.89,-684.68C230.89,-575.74 230.89,-18 230.89,-18 230.89,-18 262.17,-18 262.17,-18"/>
<polygon fill="black" stroke="black" points="262.17,-21.5 272.17,-18 262.17,-14.5 262.17,-21.5"/>
</g>
<!-- :ui:common -->
<g id="node6" class="node">
<title>:ui:common</title>
<ellipse fill="#b59aff" stroke="black" cx="313.84" cy="-566" rx="64.19" ry="18"/>
<text text-anchor="middle" x="313.84" y="-562.3" font-family="Times,serif" font-size="14.00">:ui:common</text>
</g>
<!-- :shared:feature:images&#45;&gt;:ui:common -->
<g id="edge5" class="edge">
<title>:shared:feature:images&#45;&gt;:ui:common</title>
<path fill="none" stroke="black" stroke-dasharray="1,5" d="M281.17,-684.81C281.17,-684.81 281.17,-591.72 281.17,-591.72"/>
<polygon fill="black" stroke="black" points="284.67,-591.72 281.17,-581.72 277.67,-591.72 284.67,-591.72"/>
</g>
<!-- :test&#45;data&#45;&gt;:shared:domain -->
<g id="edge6" class="edge">
<title>:test&#45;data&#45;&gt;:shared:domain</title>
<path fill="none" stroke="black" stroke-dasharray="1,5" d="M451.77,-420C398.64,-420 320.47,-420 320.47,-420 320.47,-420 320.47,-44.51 320.47,-44.51"/>
<polygon fill="black" stroke="black" points="323.97,-44.51 320.47,-34.51 316.97,-44.51 323.97,-44.51"/>
</g>
<!-- :data:database -->
<g id="node7" class="node">
<title>:data:database</title>
<ellipse fill="#b59aff" stroke="black" cx="423.84" cy="-292" rx="79.09" ry="18"/>
<text text-anchor="middle" x="423.84" y="-288.3" font-family="Times,serif" font-size="14.00">:data:database</text>
</g>
<!-- :test&#45;data&#45;&gt;:data:database -->
<g id="edge7" class="edge">
<title>:test&#45;data&#45;&gt;:data:database</title>
<path fill="none" stroke="black" stroke-dasharray="1,5" d="M473.87,-413.02C473.87,-413.02 473.87,-316.23 473.87,-316.23"/>
<polygon fill="black" stroke="black" points="477.37,-316.23 473.87,-306.23 470.37,-316.23 477.37,-316.23"/>
</g>
<!-- :data:musicbrainz -->
<g id="node8" class="node">
<title>:data:musicbrainz</title>
<ellipse fill="#b59aff" stroke="black" cx="476.84" cy="-155" rx="93.68" ry="18"/>
<text text-anchor="middle" x="476.84" y="-151.3" font-family="Times,serif" font-size="14.00">:data:musicbrainz</text>
</g>
<!-- :test&#45;data&#45;&gt;:data:musicbrainz -->
<g id="edge8" class="edge">
<title>:test&#45;data&#45;&gt;:data:musicbrainz</title>
<path fill="none" stroke="black" stroke-dasharray="1,5" d="M529.11,-413.48C529.11,-413.48 529.11,-180.01 529.11,-180.01"/>
<polygon fill="black" stroke="black" points="532.61,-180.01 529.11,-170.01 525.61,-180.01 532.61,-180.01"/>
</g>
<!-- :data:coverart -->
<g id="node9" class="node">
<title>:data:coverart</title>
<ellipse fill="#b59aff" stroke="black" cx="664.84" cy="-155" rx="76.09" ry="18"/>
<text text-anchor="middle" x="664.84" y="-151.3" font-family="Times,serif" font-size="14.00">:data:coverart</text>
</g>
<!-- :test&#45;data&#45;&gt;:data:coverart -->
<g id="edge9" class="edge">
<title>:test&#45;data&#45;&gt;:data:coverart</title>
<path fill="none" stroke="black" stroke-dasharray="1,5" d="M548.01,-420C596.71,-420 664.84,-420 664.84,-420 664.84,-420 664.84,-183.21 664.84,-183.21"/>
<polygon fill="black" stroke="black" points="668.34,-183.21 664.84,-173.21 661.34,-183.21 668.34,-183.21"/>
</g>
<!-- :data:spotify -->
<g id="node10" class="node">
<title>:data:spotify</title>
<ellipse fill="#b59aff" stroke="black" cx="827.84" cy="-155" rx="68.79" ry="18"/>
<text text-anchor="middle" x="827.84" y="-151.3" font-family="Times,serif" font-size="14.00">:data:spotify</text>
</g>
<!-- :test&#45;data&#45;&gt;:data:spotify -->
<g id="edge10" class="edge">
<title>:test&#45;data&#45;&gt;:data:spotify</title>
<path fill="none" stroke="black" stroke-dasharray="1,5" d="M547.91,-438C644.03,-438 850.81,-438 850.81,-438 850.81,-438 850.81,-182.28 850.81,-182.28"/>
<polygon fill="black" stroke="black" points="854.31,-182.28 850.81,-172.28 847.31,-182.28 854.31,-182.28"/>
</g>
<!-- :ui:test:screenshot&#45;&gt;:test:image -->
<g id="edge11" class="edge">
<title>:ui:test:screenshot&#45;&gt;:test:image</title>
<path fill="none" stroke="black" stroke-dasharray="1,5" d="M96.84,-410.81C96.84,-410.81 96.84,-320.27 96.84,-320.27"/>
<polygon fill="black" stroke="black" points="100.34,-320.27 96.84,-310.27 93.34,-320.27 100.34,-320.27"/>
</g>
<!-- :ui:common&#45;&gt;:test:image -->
<g id="edge12" class="edge">
<title>:ui:common&#45;&gt;:test:image</title>
<path fill="none" stroke="black" stroke-dasharray="1,5" d="M264.7,-554.33C264.7,-501.33 264.7,-286 264.7,-286 264.7,-286 166.49,-286 166.49,-286"/>
<polygon fill="black" stroke="black" points="166.49,-282.5 156.49,-286 166.49,-289.5 166.49,-282.5"/>
</g>
<!-- :ui:common&#45;&gt;:test&#45;data -->
<g id="edge13" class="edge">
<title>:ui:common&#45;&gt;:test&#45;data</title>
<path fill="none" stroke="#ff9ab1" stroke-dasharray="1,5" d="M361.37,-553.84C361.37,-520.31 361.37,-429 361.37,-429 361.37,-429 434.32,-429 434.32,-429"/>
<polygon fill="#ff9ab1" stroke="#ff9ab1" points="434.32,-432.5 444.32,-429 434.32,-425.5 434.32,-432.5"/>
</g>
<!-- :ui:common&#45;&gt;:ui:test:screenshot -->
<g id="edge14" class="edge">
<title>:ui:common&#45;&gt;:ui:test:screenshot</title>
<path fill="none" stroke="#ff9ab1" stroke-dasharray="1,5" d="M257.1,-557.2C257.1,-528.28 257.1,-438 257.1,-438 257.1,-438 190.72,-438 190.72,-438"/>
<polygon fill="#ff9ab1" stroke="#ff9ab1" points="190.72,-434.5 180.72,-438 190.72,-441.5 190.72,-434.5"/>
</g>
<!-- :ui:common&#45;&gt;:shared:domain -->
<g id="edge15" class="edge">
<title>:ui:common&#45;&gt;:shared:domain</title>
<path fill="none" stroke="black" d="M296.38,-548.39C296.38,-548.39 296.38,-41.17 296.38,-41.17"/>
<polygon fill="black" stroke="black" points="299.88,-41.17 296.38,-31.17 292.88,-41.17 299.88,-41.17"/>
</g>
<!-- :core:logging:api -->
<g id="node11" class="node">
<title>:core:logging:api</title>
<ellipse fill="#b59aff" stroke="black" cx="745.84" cy="-18" rx="88.28" ry="18"/>
<text text-anchor="middle" x="745.84" y="-14.3" font-family="Times,serif" font-size="14.00">:core:logging:api</text>
</g>
<!-- :ui:common&#45;&gt;:core:logging:api -->
<g id="edge16" class="edge">
<title>:ui:common&#45;&gt;:core:logging:api</title>
<path fill="none" stroke="black" stroke-dasharray="1,5" d="M378.19,-566C499.49,-566 749.92,-566 749.92,-566 749.92,-566 749.92,-46.23 749.92,-46.23"/>
<polygon fill="black" stroke="black" points="753.42,-46.23 749.92,-36.23 746.42,-46.23 753.42,-46.23"/>
</g>
<!-- :data:database&#45;&gt;:shared:domain -->
<g id="edge17" class="edge">
<title>:data:database&#45;&gt;:shared:domain</title>
<path fill="none" stroke="black" stroke-dasharray="1,5" d="M363.9,-279.87C363.9,-279.87 363.9,-46.11 363.9,-46.11"/>
<polygon fill="black" stroke="black" points="367.4,-46.11 363.9,-36.11 360.4,-46.11 367.4,-46.11"/>
</g>
<!-- :data:database&#45;&gt;:data:musicbrainz -->
<g id="edge18" class="edge">
<title>:data:database&#45;&gt;:data:musicbrainz</title>
<path fill="none" stroke="black" stroke-dasharray="1,5" d="M443.19,-274.37C443.19,-274.37 443.19,-182.13 443.19,-182.13"/>
<polygon fill="black" stroke="black" points="446.69,-182.13 443.19,-172.13 439.69,-182.13 446.69,-182.13"/>
</g>
<!-- :data:musicbrainz&#45;&gt;:shared:domain -->
<g id="edge19" class="edge">
<title>:data:musicbrainz&#45;&gt;:shared:domain</title>
<path fill="none" stroke="black" stroke-dasharray="1,5" d="M401.29,-144.25C401.29,-144.25 401.29,-43.18 401.29,-43.18"/>
<polygon fill="black" stroke="black" points="404.79,-43.18 401.29,-33.18 397.79,-43.18 404.79,-43.18"/>
</g>
<!-- :data:musicbrainz&#45;&gt;:core:logging:api -->
<g id="edge20" class="edge">
<title>:data:musicbrainz&#45;&gt;:core:logging:api</title>
<path fill="none" stroke="black" stroke-dasharray="1,5" d="M503.91,-137.75C503.91,-99.72 503.91,-12 503.91,-12 503.91,-12 652.24,-12 652.24,-12"/>
<polygon fill="black" stroke="black" points="652.24,-15.5 662.24,-12 652.24,-8.5 652.24,-15.5"/>
</g>
<!-- :data:coverart&#45;&gt;:shared:domain -->
<g id="edge21" class="edge">
<title>:data:coverart&#45;&gt;:shared:domain</title>
<path fill="none" stroke="black" stroke-dasharray="1,5" d="M623.12,-139.72C623.12,-105.16 623.12,-24 623.12,-24 623.12,-24 442.8,-24 442.8,-24"/>
<polygon fill="black" stroke="black" points="442.8,-20.5 432.8,-24 442.8,-27.5 442.8,-20.5"/>
</g>
<!-- :data:coverart&#45;&gt;:core:logging:api -->
<g id="edge22" class="edge">
<title>:data:coverart&#45;&gt;:core:logging:api</title>
<path fill="none" stroke="black" stroke-dasharray="1,5" d="M699.17,-138.75C699.17,-138.75 699.17,-43.39 699.17,-43.39"/>
<polygon fill="black" stroke="black" points="702.67,-43.39 699.17,-33.39 695.67,-43.39 702.67,-43.39"/>
</g>
<!-- :data:spotify&#45;&gt;:test&#45;data -->
<g id="edge25" class="edge">
<title>:data:spotify&#45;&gt;:test&#45;data</title>
<path fill="none" stroke="#ff9ab1" stroke-dasharray="1,5" d="M804.88,-172.14C804.88,-232.13 804.88,-429 804.88,-429 804.88,-429 565.43,-429 565.43,-429"/>
<polygon fill="#ff9ab1" stroke="#ff9ab1" points="565.43,-425.5 555.43,-429 565.43,-432.5 565.43,-425.5"/>
</g>
<!-- :data:spotify&#45;&gt;:shared:domain -->
<g id="edge23" class="edge">
<title>:data:spotify&#45;&gt;:shared:domain</title>
<path fill="none" stroke="black" stroke-dasharray="1,5" d="M784.04,-141.04C784.04,-120.87 784.04,-86 784.04,-86 784.04,-86 419.34,-86 419.34,-86 419.34,-86 419.34,-39.54 419.34,-39.54"/>
<polygon fill="black" stroke="black" points="422.84,-39.54 419.34,-29.54 415.84,-39.54 422.84,-39.54"/>
</g>
<!-- :data:spotify&#45;&gt;:core:logging:api -->
<g id="edge24" class="edge">
<title>:data:spotify&#45;&gt;:core:logging:api</title>
<path fill="none" stroke="black" stroke-dasharray="1,5" d="M809.14,-137.65C809.14,-137.65 809.14,-40.74 809.14,-40.74"/>
<polygon fill="black" stroke="black" points="812.64,-40.74 809.14,-30.74 805.64,-40.74 812.64,-40.74"/>
</g>
</g>
</svg>
