<?xml version="1.0" encoding="UTF-8" standalone="no"?>
<!DOCTYPE svg PUBLIC "-//W3C//DTD SVG 1.1//EN"
 "http://www.w3.org/Graphics/SVG/1.1/DTD/svg11.dtd">
<!-- Generated by graphviz version 2.43.0 (0)
 -->
<!-- Title: %3 Pages: 1 -->
<svg width="1132pt" height="666pt"
 viewBox="0.00 0.00 1132.38 666.00" xmlns="http://www.w3.org/2000/svg" xmlns:xlink="http://www.w3.org/1999/xlink">
<g id="graph0" class="graph" transform="scale(1 1) rotate(0) translate(4 662)">
<title>%3</title>
<polygon fill="white" stroke="transparent" points="-4,4 -4,-662 1128.38,-662 1128.38,4 -4,4"/>
<text text-anchor="middle" x="562.19" y="-630" font-family="Times,serif" font-size="30.00">Dependencies</text>
<text text-anchor="middle" x="562.19" y="-597" font-family="Times,serif" font-size="30.00"> </text>
<!-- :shared:feature:images -->
<g id="node1" class="node">
<title>:shared:feature:images</title>
<polygon fill="#b59aff" stroke="black" points="430.84,-584 248.84,-584 248.84,-548 430.84,-548 430.84,-584"/>
<text text-anchor="middle" x="339.84" y="-562.3" font-family="Times,serif" font-size="14.00">:shared:feature:images</text>
</g>
<!-- :ui:test:screenshot -->
<g id="node2" class="node">
<title>:ui:test:screenshot</title>
<ellipse fill="#9affb5" stroke="black" cx="96.84" cy="-292" rx="96.68" ry="18"/>
<text text-anchor="middle" x="96.84" y="-288.3" font-family="Times,serif" font-size="14.00">:ui:test:screenshot</text>
</g>
<!-- :shared:feature:images&#45;&gt;:ui:test:screenshot -->
<g id="edge1" class="edge">
<title>:shared:feature:images&#45;&gt;:ui:test:screenshot</title>
<path fill="none" stroke="#ff9ab1" stroke-dasharray="1,5" d="M248.56,-566C168.43,-566 64.56,-566 64.56,-566 64.56,-566 64.56,-319.14 64.56,-319.14"/>
<polygon fill="#ff9ab1" stroke="#ff9ab1" points="68.06,-319.14 64.56,-309.14 61.06,-319.14 68.06,-319.14"/>
</g>
<!-- :shared:domain -->
<g id="node3" class="node">
<title>:shared:domain</title>
<ellipse fill="#b59aff" stroke="black" cx="1041.84" cy="-155" rx="82.59" ry="18"/>
<text text-anchor="middle" x="1041.84" y="-151.3" font-family="Times,serif" font-size="14.00">:shared:domain</text>
</g>
<!-- :shared:feature:images&#45;&gt;:shared:domain -->
<g id="edge2" class="edge">
<title>:shared:feature:images&#45;&gt;:shared:domain</title>
<path fill="none" stroke="black" stroke-dasharray="1,5" d="M431.03,-566C630.23,-566 1086.55,-566 1086.55,-566 1086.55,-566 1086.55,-180.61 1086.55,-180.61"/>
<polygon fill="black" stroke="black" points="1090.05,-180.61 1086.55,-170.61 1083.05,-180.61 1090.05,-180.61"/>
</g>
<!-- :ui:image -->
<g id="node4" class="node">
<title>:ui:image</title>
<ellipse fill="#b59aff" stroke="black" cx="265.84" cy="-292" rx="53.89" ry="18"/>
<text text-anchor="middle" x="265.84" y="-288.3" font-family="Times,serif" font-size="14.00">:ui:image</text>
</g>
<!-- :shared:feature:images&#45;&gt;:ui:image -->
<g id="edge3" class="edge">
<title>:shared:feature:images&#45;&gt;:ui:image</title>
<path fill="none" stroke="black" stroke-dasharray="1,5" d="M284.31,-547.6C284.31,-547.6 284.31,-319.26 284.31,-319.26"/>
<polygon fill="black" stroke="black" points="287.81,-319.26 284.31,-309.26 280.81,-319.26 287.81,-319.26"/>
</g>
<!-- :ui:common -->
<g id="node5" class="node">
<title>:ui:common</title>
<ellipse fill="#b59aff" stroke="black" cx="445.84" cy="-429" rx="64.19" ry="18"/>
<text text-anchor="middle" x="445.84" y="-425.3" font-family="Times,serif" font-size="14.00">:ui:common</text>
</g>
<!-- :shared:feature:images&#45;&gt;:ui:common -->
<g id="edge4" class="edge">
<title>:shared:feature:images&#45;&gt;:ui:common</title>
<path fill="none" stroke="black" stroke-dasharray="1,5" d="M406.17,-547.81C406.17,-547.81 406.17,-453.5 406.17,-453.5"/>
<polygon fill="black" stroke="black" points="409.67,-453.5 406.17,-443.5 402.67,-453.5 409.67,-453.5"/>
</g>
<!-- :ui:core -->
<g id="node6" class="node">
<title>:ui:core</title>
<ellipse fill="#b59aff" stroke="black" cx="265.84" cy="-155" rx="45.49" ry="18"/>
<text text-anchor="middle" x="265.84" y="-151.3" font-family="Times,serif" font-size="14.00">:ui:core</text>
</g>
<!-- :ui:test:screenshot&#45;&gt;:ui:core -->
<g id="edge5" class="edge">
<title>:ui:test:screenshot&#45;&gt;:ui:core</title>
<path fill="none" stroke="black" stroke-dasharray="1,5" d="M189.14,-286.46C189.14,-260.83 189.14,-155 189.14,-155 189.14,-155 210.34,-155 210.34,-155"/>
<polygon fill="black" stroke="black" points="210.34,-158.5 220.34,-155 210.34,-151.5 210.34,-158.5"/>
</g>
<!-- :core:models -->
<g id="node7" class="node">
<title>:core:models</title>
<ellipse fill="#b59aff" stroke="black" cx="585.84" cy="-18" rx="69.59" ry="18"/>
<text text-anchor="middle" x="585.84" y="-14.3" font-family="Times,serif" font-size="14.00">:core:models</text>
</g>
<!-- :shared:domain&#45;&gt;:core:models -->
<g id="edge6" class="edge">
<title>:shared:domain&#45;&gt;:core:models</title>
<path fill="none" stroke="black" stroke-dasharray="1,5" d="M1041.84,-136.8C1041.84,-97.67 1041.84,-9 1041.84,-9 1041.84,-9 656.39,-9 656.39,-9"/>
<polygon fill="black" stroke="black" points="656.39,-5.5 646.39,-9 656.39,-12.5 656.39,-5.5"/>
</g>
<!-- :ui:image&#45;&gt;:ui:core -->
<g id="edge8" class="edge">
<title>:ui:image&#45;&gt;:ui:core</title>
<path fill="none" stroke="black" stroke-dasharray="1,5" d="M265.84,-273.81C265.84,-273.81 265.84,-183.27 265.84,-183.27"/>
<polygon fill="black" stroke="black" points="269.34,-183.27 265.84,-173.27 262.34,-183.27 269.34,-183.27"/>
</g>
<!-- :ui:image&#45;&gt;:core:models -->
<g id="edge7" class="edge">
<title>:ui:image&#45;&gt;:core:models</title>
<path fill="none" stroke="black" stroke-dasharray="1,5" d="M316.8,-286C340.82,-286 364.29,-286 364.29,-286 364.29,-286 364.29,-9 364.29,-9 364.29,-9 515.59,-9 515.59,-9"/>
<polygon fill="black" stroke="black" points="515.59,-12.5 525.59,-9 515.59,-5.5 515.59,-12.5"/>
</g>
<!-- :ui:common&#45;&gt;:ui:test:screenshot -->
<g id="edge9" class="edge">
<title>:ui:common&#45;&gt;:ui:test:screenshot</title>
<path fill="none" stroke="#ff9ab1" stroke-dasharray="1,5" d="M381.37,-429C288.76,-429 129.12,-429 129.12,-429 129.12,-429 129.12,-319.07 129.12,-319.07"/>
<polygon fill="#ff9ab1" stroke="#ff9ab1" points="132.62,-319.07 129.12,-309.07 125.62,-319.07 132.62,-319.07"/>
</g>
<!-- :ui:common&#45;&gt;:shared:domain -->
<g id="edge16" class="edge">
<title>:ui:common&#45;&gt;:shared:domain</title>
<path fill="none" stroke="black" stroke-dasharray="1,5" d="M499.34,-439C646.89,-439 1048.72,-439 1048.72,-439 1048.72,-439 1048.72,-183.2 1048.72,-183.2"/>
<polygon fill="black" stroke="black" points="1052.22,-183.2 1048.72,-173.2 1045.22,-183.2 1052.22,-183.2"/>
</g>
<!-- :ui:common&#45;&gt;:ui:image -->
<g id="edge17" class="edge">
<title>:ui:common&#45;&gt;:ui:image</title>
<path fill="none" stroke="black" stroke-dasharray="1,5" d="M389.67,-420C389.67,-390.4 389.67,-298 389.67,-298 389.67,-298 326.92,-298 326.92,-298"/>
<polygon fill="black" stroke="black" points="326.92,-294.5 316.92,-298 326.92,-301.5 326.92,-294.5"/>
</g>
<!-- :ui:common&#45;&gt;:ui:core -->
<g id="edge11" class="edge">
<title>:ui:common&#45;&gt;:ui:core</title>
<path fill="none" stroke="black" d="M397.85,-416.87C397.85,-363.85 397.85,-155 397.85,-155 397.85,-155 321.64,-155 321.64,-155"/>
<polygon fill="black" stroke="black" points="321.64,-151.5 311.64,-155 321.64,-158.5 321.64,-151.5"/>
</g>
<!-- :ui:common&#45;&gt;:core:models -->
<g id="edge10" class="edge">
<title>:ui:common&#45;&gt;:core:models</title>
<path fill="none" stroke="black" d="M406.02,-414.85C406.02,-342.58 406.02,-18 406.02,-18 406.02,-18 506.06,-18 506.06,-18"/>
<polygon fill="black" stroke="black" points="506.06,-21.5 516.06,-18 506.06,-14.5 506.06,-21.5"/>
</g>
<!-- :data:coverart -->
<g id="node8" class="node">
<title>:data:coverart</title>
<ellipse fill="#b59aff" stroke="black" cx="934.84" cy="-292" rx="76.09" ry="18"/>
<text text-anchor="middle" x="934.84" y="-288.3" font-family="Times,serif" font-size="14.00">:data:coverart</text>
</g>
<!-- :ui:common&#45;&gt;:data:coverart -->
<g id="edge12" class="edge">
<title>:ui:common&#45;&gt;:data:coverart</title>
<path fill="none" stroke="black" stroke-dasharray="1,5" d="M509.77,-432C642.32,-432 934.84,-432 934.84,-432 934.84,-432 934.84,-320.02 934.84,-320.02"/>
<polygon fill="black" stroke="black" points="938.34,-320.02 934.84,-310.02 931.34,-320.02 938.34,-320.02"/>
</g>
<!-- :data:musicbrainz -->
<g id="node9" class="node">
<title>:data:musicbrainz</title>
<ellipse fill="#b59aff" stroke="black" cx="708.84" cy="-292" rx="93.68" ry="18"/>
<text text-anchor="middle" x="708.84" y="-288.3" font-family="Times,serif" font-size="14.00">:data:musicbrainz</text>
</g>
<!-- :ui:common&#45;&gt;:data:musicbrainz -->
<g id="edge13" class="edge">
<title>:ui:common&#45;&gt;:data:musicbrainz</title>
<path fill="none" stroke="black" stroke-dasharray="1,5" d="M496.86,-418C573.34,-418 708.84,-418 708.84,-418 708.84,-418 708.84,-320.05 708.84,-320.05"/>
<polygon fill="black" stroke="black" points="712.34,-320.05 708.84,-310.05 705.34,-320.05 712.34,-320.05"/>
</g>
<!-- :core:preferences -->
<g id="node10" class="node">
<title>:core:preferences</title>
<ellipse fill="#b59aff" stroke="black" cx="505.84" cy="-292" rx="91.78" ry="18"/>
<text text-anchor="middle" x="505.84" y="-288.3" font-family="Times,serif" font-size="14.00">:core:preferences</text>
</g>
<!-- :ui:common&#45;&gt;:core:preferences -->
<g id="edge14" class="edge">
<title>:ui:common&#45;&gt;:core:preferences</title>
<path fill="none" stroke="black" stroke-dasharray="1,5" d="M462.19,-411.37C462.19,-411.37 462.19,-317.86 462.19,-317.86"/>
<polygon fill="black" stroke="black" points="465.69,-317.86 462.19,-307.86 458.69,-317.86 465.69,-317.86"/>
</g>
<!-- :core:logging:api -->
<g id="node11" class="node">
<title>:core:logging:api</title>
<ellipse fill="#b59aff" stroke="black" cx="814.84" cy="-155" rx="88.28" ry="18"/>
<text text-anchor="middle" x="814.84" y="-151.3" font-family="Times,serif" font-size="14.00">:core:logging:api</text>
</g>
<!-- :ui:common&#45;&gt;:core:logging:api -->
<g id="edge15" class="edge">
<title>:ui:common&#45;&gt;:core:logging:api</title>
<path fill="none" stroke="black" stroke-dasharray="1,5" d="M508.95,-425C618.11,-425 830.62,-425 830.62,-425 830.62,-425 830.62,-182.72 830.62,-182.72"/>
<polygon fill="black" stroke="black" points="834.12,-182.72 830.62,-172.72 827.12,-182.72 834.12,-182.72"/>
</g>
<!-- :shared:strings -->
<g id="node12" class="node">
<title>:shared:strings</title>
<ellipse fill="#b59aff" stroke="black" cx="265.84" cy="-18" rx="81.49" ry="18"/>
<text text-anchor="middle" x="265.84" y="-14.3" font-family="Times,serif" font-size="14.00">:shared:strings</text>
</g>
<!-- :ui:core&#45;&gt;:shared:strings -->
<g id="edge18" class="edge">
<title>:ui:core&#45;&gt;:shared:strings</title>
<path fill="none" stroke="black" d="M265.84,-136.81C265.84,-136.81 265.84,-46.27 265.84,-46.27"/>
<polygon fill="black" stroke="black" points="269.34,-46.27 265.84,-36.27 262.34,-46.27 269.34,-46.27"/>
</g>
<!-- :data:coverart&#45;&gt;:shared:domain -->
<g id="edge21" class="edge">
<title>:data:coverart&#45;&gt;:shared:domain</title>
<path fill="none" stroke="black" stroke-dasharray="1,5" d="M985.09,-278.36C985.09,-278.36 985.09,-178.18 985.09,-178.18"/>
<polygon fill="black" stroke="black" points="988.59,-178.18 985.09,-168.18 981.59,-178.18 988.59,-178.18"/>
</g>
<!-- :data:coverart&#45;&gt;:core:models -->
<g id="edge20" class="edge">
<title>:data:coverart&#45;&gt;:core:models</title>
<path fill="none" stroke="black" stroke-dasharray="1,5" d="M931.27,-273.6C931.27,-212.16 931.27,-18 931.27,-18 931.27,-18 665.74,-18 665.74,-18"/>
<polygon fill="black" stroke="black" points="665.74,-14.5 655.74,-18 665.74,-21.5 665.74,-14.5"/>
</g>
<!-- :data:coverart&#45;&gt;:core:logging:api -->
<g id="edge19" class="edge">
<title>:data:coverart&#45;&gt;:core:logging:api</title>
<path fill="none" stroke="black" stroke-dasharray="1,5" d="M881.02,-279.11C881.02,-279.11 881.02,-177.16 881.02,-177.16"/>
<polygon fill="black" stroke="black" points="884.52,-177.16 881.02,-167.16 877.52,-177.16 884.52,-177.16"/>
</g>
<!-- :data:musicbrainz&#45;&gt;:core:models -->
<g id="edge23" class="edge">
<title>:data:musicbrainz&#45;&gt;:core:models</title>
<path fill="none" stroke="black" stroke-dasharray="1,5" d="M698.72,-273.79C698.72,-213.91 698.72,-27 698.72,-27 698.72,-27 656.24,-27 656.24,-27"/>
<polygon fill="black" stroke="black" points="656.24,-23.5 646.24,-27 656.24,-30.5 656.24,-23.5"/>
</g>
<!-- :data:musicbrainz&#45;&gt;:core:logging:api -->
<g id="edge22" class="edge">
<title>:data:musicbrainz&#45;&gt;:core:logging:api</title>
<path fill="none" stroke="black" stroke-dasharray="1,5" d="M764.44,-277.34C764.44,-277.34 764.44,-179.97 764.44,-179.97"/>
<polygon fill="black" stroke="black" points="767.94,-179.97 764.44,-169.97 760.94,-179.97 767.94,-179.97"/>
</g>
<!-- :core:preferences&#45;&gt;:core:models -->
<g id="edge25" class="edge">
<title>:core:preferences&#45;&gt;:core:models</title>
<path fill="none" stroke="black" stroke-dasharray="1,5" d="M457.45,-276.61C457.45,-220.05 457.45,-27 457.45,-27 457.45,-27 515.4,-27 515.4,-27"/>
<polygon fill="black" stroke="black" points="515.4,-30.5 525.4,-27 515.4,-23.5 515.4,-30.5"/>
</g>
<!-- :core:coroutines -->
<g id="node13" class="node">
<title>:core:coroutines</title>
<ellipse fill="#b59aff" stroke="black" cx="585.84" cy="-155" rx="85.29" ry="18"/>
<text text-anchor="middle" x="585.84" y="-151.3" font-family="Times,serif" font-size="14.00">:core:coroutines</text>
</g>
<!-- :core:preferences&#45;&gt;:core:coroutines -->
<g id="edge24" class="edge">
<title>:core:preferences&#45;&gt;:core:coroutines</title>
<path fill="none" stroke="black" stroke-dasharray="1,5" d="M549.09,-276.02C549.09,-276.02 549.09,-181.31 549.09,-181.31"/>
<polygon fill="black" stroke="black" points="552.59,-181.31 549.09,-171.31 545.59,-181.31 552.59,-181.31"/>
</g>
</g>
</svg>
