<?xml version="1.0" encoding="UTF-8" standalone="no"?>
<!DOCTYPE svg PUBLIC "-//W3C//DTD SVG 1.1//EN"
 "http://www.w3.org/Graphics/SVG/1.1/DTD/svg11.dtd">
<!-- Generated by graphviz version 2.43.0 (0)
 -->
<!-- Title: %3 Pages: 1 -->
<svg width="1300pt" height="666pt"
 viewBox="0.00 0.00 1300.09 666.00" xmlns="http://www.w3.org/2000/svg" xmlns:xlink="http://www.w3.org/1999/xlink">
<g id="graph0" class="graph" transform="scale(1 1) rotate(0) translate(4 662)">
<title>%3</title>
<polygon fill="white" stroke="transparent" points="-4,4 -4,-662 1296.09,-662 1296.09,4 -4,4"/>
<text text-anchor="middle" x="646.04" y="-630" font-family="Times,serif" font-size="30.00">Dependencies</text>
<text text-anchor="middle" x="646.04" y="-597" font-family="Times,serif" font-size="30.00"> </text>
<!-- :shared:feature:images -->
<g id="node1" class="node">
<title>:shared:feature:images</title>
<polygon fill="#b59aff" stroke="black" points="385.04,-584 203.04,-584 203.04,-548 385.04,-548 385.04,-584"/>
<text text-anchor="middle" x="294.04" y="-562.3" font-family="Times,serif" font-size="14.00">:shared:feature:images</text>
</g>
<!-- :test:image -->
<g id="node2" class="node">
<title>:test:image</title>
<ellipse fill="#9affb5" stroke="black" cx="63.04" cy="-155" rx="63.09" ry="18"/>
<text text-anchor="middle" x="63.04" y="-151.3" font-family="Times,serif" font-size="14.00">:test:image</text>
</g>
<!-- :shared:feature:images&#45;&gt;:test:image -->
<g id="edge1" class="edge">
<title>:shared:feature:images&#45;&gt;:test:image</title>
<path fill="none" stroke="black" stroke-dasharray="1,5" d="M230.99,-547.81C230.99,-469.01 230.99,-161 230.99,-161 230.99,-161 132.73,-161 132.73,-161"/>
<polygon fill="black" stroke="black" points="132.73,-157.5 122.73,-161 132.73,-164.5 132.73,-157.5"/>
</g>
<!-- :ui:test:screenshot -->
<g id="node3" class="node">
<title>:ui:test:screenshot</title>
<ellipse fill="#9affb5" stroke="black" cx="125.04" cy="-292" rx="96.68" ry="18"/>
<text text-anchor="middle" x="125.04" y="-288.3" font-family="Times,serif" font-size="14.00">:ui:test:screenshot</text>
</g>
<!-- :shared:feature:images&#45;&gt;:ui:test:screenshot -->
<g id="edge2" class="edge">
<title>:shared:feature:images&#45;&gt;:ui:test:screenshot</title>
<path fill="none" stroke="#ff9ab1" stroke-dasharray="1,5" d="M209.32,-547.6C209.32,-547.6 209.32,-310.98 209.32,-310.98"/>
<polygon fill="#ff9ab1" stroke="#ff9ab1" points="212.82,-310.98 209.32,-300.98 205.82,-310.98 212.82,-310.98"/>
</g>
<!-- :shared:domain -->
<g id="node4" class="node">
<title>:shared:domain</title>
<ellipse fill="#b59aff" stroke="black" cx="687.04" cy="-155" rx="82.59" ry="18"/>
<text text-anchor="middle" x="687.04" y="-151.3" font-family="Times,serif" font-size="14.00">:shared:domain</text>
</g>
<!-- :shared:feature:images&#45;&gt;:shared:domain -->
<g id="edge3" class="edge">
<title>:shared:feature:images&#45;&gt;:shared:domain</title>
<path fill="none" stroke="black" stroke-dasharray="1,5" d="M385.15,-566C496.54,-566 670.42,-566 670.42,-566 670.42,-566 670.42,-182.66 670.42,-182.66"/>
<polygon fill="black" stroke="black" points="673.92,-182.66 670.42,-172.66 666.92,-182.66 673.92,-182.66"/>
</g>
<!-- :ui:image -->
<g id="node5" class="node">
<title>:ui:image</title>
<ellipse fill="#b59aff" stroke="black" cx="294.04" cy="-292" rx="53.89" ry="18"/>
<text text-anchor="middle" x="294.04" y="-288.3" font-family="Times,serif" font-size="14.00">:ui:image</text>
</g>
<!-- :shared:feature:images&#45;&gt;:ui:image -->
<g id="edge4" class="edge">
<title>:shared:feature:images&#45;&gt;:ui:image</title>
<path fill="none" stroke="black" stroke-dasharray="1,5" d="M276.06,-547.6C276.06,-547.6 276.06,-319.26 276.06,-319.26"/>
<polygon fill="black" stroke="black" points="279.56,-319.26 276.06,-309.26 272.56,-319.26 279.56,-319.26"/>
</g>
<!-- :ui:common -->
<g id="node6" class="node">
<title>:ui:common</title>
<ellipse fill="#b59aff" stroke="black" cx="594.04" cy="-429" rx="64.19" ry="18"/>
<text text-anchor="middle" x="594.04" y="-425.3" font-family="Times,serif" font-size="14.00">:ui:common</text>
</g>
<!-- :shared:feature:images&#45;&gt;:ui:common -->
<g id="edge5" class="edge">
<title>:shared:feature:images&#45;&gt;:ui:common</title>
<path fill="none" stroke="black" stroke-dasharray="1,5" d="M381.79,-547.8C381.79,-512.69 381.79,-439 381.79,-439 381.79,-439 530.48,-439 530.48,-439"/>
<polygon fill="black" stroke="black" points="530.48,-442.5 540.48,-439 530.48,-435.5 530.48,-442.5"/>
</g>
<!-- :ui:test:screenshot&#45;&gt;:test:image -->
<g id="edge7" class="edge">
<title>:ui:test:screenshot&#45;&gt;:test:image</title>
<path fill="none" stroke="black" stroke-dasharray="1,5" d="M77.15,-276.28C77.15,-276.28 77.15,-182.69 77.15,-182.69"/>
<polygon fill="black" stroke="black" points="80.65,-182.69 77.15,-172.69 73.65,-182.69 80.65,-182.69"/>
</g>
<!-- :ui:core -->
<g id="node7" class="node">
<title>:ui:core</title>
<ellipse fill="#b59aff" stroke="black" cx="294.04" cy="-155" rx="45.49" ry="18"/>
<text text-anchor="middle" x="294.04" y="-151.3" font-family="Times,serif" font-size="14.00">:ui:core</text>
</g>
<!-- :ui:test:screenshot&#45;&gt;:ui:core -->
<g id="edge6" class="edge">
<title>:ui:test:screenshot&#45;&gt;:ui:core</title>
<path fill="none" stroke="black" stroke-dasharray="1,5" d="M217.34,-286.22C217.34,-259.46 217.34,-149 217.34,-149 217.34,-149 240.76,-149 240.76,-149"/>
<polygon fill="black" stroke="black" points="240.76,-152.5 250.76,-149 240.76,-145.5 240.76,-152.5"/>
</g>
<!-- :ui:image&#45;&gt;:shared:domain -->
<g id="edge8" class="edge">
<title>:ui:image&#45;&gt;:shared:domain</title>
<path fill="none" stroke="black" stroke-dasharray="1,5" d="M343.76,-284.96C343.76,-264.42 343.76,-206 343.76,-206 343.76,-206 611.56,-206 611.56,-206 611.56,-206 611.56,-172.53 611.56,-172.53"/>
<polygon fill="black" stroke="black" points="615.06,-172.53 611.56,-162.53 608.06,-172.53 615.06,-172.53"/>
</g>
<!-- :ui:image&#45;&gt;:ui:core -->
<g id="edge9" class="edge">
<title>:ui:image&#45;&gt;:ui:core</title>
<path fill="none" stroke="black" stroke-dasharray="1,5" d="M294.04,-273.81C294.04,-273.81 294.04,-183.27 294.04,-183.27"/>
<polygon fill="black" stroke="black" points="297.54,-183.27 294.04,-173.27 290.54,-183.27 297.54,-183.27"/>
</g>
<!-- :ui:common&#45;&gt;:ui:test:screenshot -->
<g id="edge10" class="edge">
<title>:ui:common&#45;&gt;:ui:test:screenshot</title>
<path fill="none" stroke="#ff9ab1" stroke-dasharray="1,5" d="M530.28,-432C422.42,-432 215.61,-432 215.61,-432 215.61,-432 215.61,-308.38 215.61,-308.38"/>
<polygon fill="#ff9ab1" stroke="#ff9ab1" points="219.11,-308.38 215.61,-298.38 212.11,-308.38 219.11,-308.38"/>
</g>
<!-- :ui:common&#45;&gt;:shared:domain -->
<g id="edge11" class="edge">
<title>:ui:common&#45;&gt;:shared:domain</title>
<path fill="none" stroke="black" d="M636.59,-415.41C636.59,-415.41 636.59,-179.33 636.59,-179.33"/>
<polygon fill="black" stroke="black" points="640.09,-179.33 636.59,-169.33 633.09,-179.33 640.09,-179.33"/>
</g>
<!-- :ui:common&#45;&gt;:ui:image -->
<g id="edge18" class="edge">
<title>:ui:common&#45;&gt;:ui:image</title>
<path fill="none" stroke="black" stroke-dasharray="1,5" d="M531.11,-425C447.99,-425 312.03,-425 312.03,-425 312.03,-425 312.03,-319.12 312.03,-319.12"/>
<polygon fill="black" stroke="black" points="315.53,-319.12 312.03,-309.12 308.53,-319.12 315.53,-319.12"/>
</g>
<!-- :ui:common&#45;&gt;:ui:core -->
<g id="edge12" class="edge">
<title>:ui:common&#45;&gt;:ui:core</title>
<path fill="none" stroke="black" d="M542.97,-418C479.25,-418 378.54,-418 378.54,-418 378.54,-418 378.54,-155 378.54,-155 378.54,-155 349.75,-155 349.75,-155"/>
<polygon fill="black" stroke="black" points="349.75,-151.5 339.75,-155 349.75,-158.5 349.75,-151.5"/>
</g>
<!-- :data:coverart -->
<g id="node8" class="node">
<title>:data:coverart</title>
<ellipse fill="#b59aff" stroke="black" cx="1216.04" cy="-292" rx="76.09" ry="18"/>
<text text-anchor="middle" x="1216.04" y="-288.3" font-family="Times,serif" font-size="14.00">:data:coverart</text>
</g>
<!-- :ui:common&#45;&gt;:data:coverart -->
<g id="edge13" class="edge">
<title>:ui:common&#45;&gt;:data:coverart</title>
<path fill="none" stroke="black" stroke-dasharray="1,5" d="M649.79,-438C802.46,-438 1216.04,-438 1216.04,-438 1216.04,-438 1216.04,-320.2 1216.04,-320.2"/>
<polygon fill="black" stroke="black" points="1219.54,-320.2 1216.04,-310.2 1212.54,-320.2 1219.54,-320.2"/>
</g>
<!-- :data:musicbrainz -->
<g id="node9" class="node">
<title>:data:musicbrainz</title>
<ellipse fill="#b59aff" stroke="black" cx="776.04" cy="-292" rx="93.68" ry="18"/>
<text text-anchor="middle" x="776.04" y="-288.3" font-family="Times,serif" font-size="14.00">:data:musicbrainz</text>
</g>
<!-- :ui:common&#45;&gt;:data:musicbrainz -->
<g id="edge14" class="edge">
<title>:ui:common&#45;&gt;:data:musicbrainz</title>
<path fill="none" stroke="black" stroke-dasharray="1,5" d="M647.49,-418.7C647.49,-386.84 647.49,-292 647.49,-292 647.49,-292 672.28,-292 672.28,-292"/>
<polygon fill="black" stroke="black" points="672.28,-295.5 682.28,-292 672.28,-288.5 672.28,-295.5"/>
</g>
<!-- :data:common:network -->
<g id="node10" class="node">
<title>:data:common:network</title>
<ellipse fill="#b59aff" stroke="black" cx="1005.04" cy="-292" rx="116.98" ry="18"/>
<text text-anchor="middle" x="1005.04" y="-288.3" font-family="Times,serif" font-size="14.00">:data:common:network</text>
</g>
<!-- :ui:common&#45;&gt;:data:common:network -->
<g id="edge15" class="edge">
<title>:ui:common&#45;&gt;:data:common:network</title>
<path fill="none" stroke="black" stroke-dasharray="1,5" d="M649.9,-420C762.28,-420 1005.04,-420 1005.04,-420 1005.04,-420 1005.04,-320.07 1005.04,-320.07"/>
<polygon fill="black" stroke="black" points="1008.54,-320.07 1005.04,-310.07 1001.54,-320.07 1008.54,-320.07"/>
</g>
<!-- :core:preferences -->
<g id="node11" class="node">
<title>:core:preferences</title>
<ellipse fill="#b59aff" stroke="black" cx="534.04" cy="-292" rx="91.78" ry="18"/>
<text text-anchor="middle" x="534.04" y="-288.3" font-family="Times,serif" font-size="14.00">:core:preferences</text>
</g>
<!-- :ui:common&#45;&gt;:core:preferences -->
<g id="edge16" class="edge">
<title>:ui:common&#45;&gt;:core:preferences</title>
<path fill="none" stroke="black" stroke-dasharray="1,5" d="M577.69,-411.37C577.69,-411.37 577.69,-317.86 577.69,-317.86"/>
<polygon fill="black" stroke="black" points="581.19,-317.86 577.69,-307.86 574.19,-317.86 581.19,-317.86"/>
</g>
<!-- :core:logging:api -->
<g id="node12" class="node">
<title>:core:logging:api</title>
<ellipse fill="#b59aff" stroke="black" cx="1110.04" cy="-155" rx="88.28" ry="18"/>
<text text-anchor="middle" x="1110.04" y="-151.3" font-family="Times,serif" font-size="14.00">:core:logging:api</text>
</g>
<!-- :ui:common&#45;&gt;:core:logging:api -->
<g id="edge17" class="edge">
<title>:ui:common&#45;&gt;:core:logging:api</title>
<path fill="none" stroke="black" stroke-dasharray="1,5" d="M658.55,-429C801.22,-429 1131.02,-429 1131.02,-429 1131.02,-429 1131.02,-182.56 1131.02,-182.56"/>
<polygon fill="black" stroke="black" points="1134.52,-182.56 1131.02,-172.56 1127.52,-182.56 1134.52,-182.56"/>
</g>
<!-- :shared:strings -->
<g id="node13" class="node">
<title>:shared:strings</title>
<ellipse fill="#b59aff" stroke="black" cx="294.04" cy="-18" rx="81.49" ry="18"/>
<text text-anchor="middle" x="294.04" y="-14.3" font-family="Times,serif" font-size="14.00">:shared:strings</text>
</g>
<!-- :ui:core&#45;&gt;:shared:strings -->
<g id="edge19" class="edge">
<title>:ui:core&#45;&gt;:shared:strings</title>
<path fill="none" stroke="black" d="M294.04,-136.81C294.04,-136.81 294.04,-46.27 294.04,-46.27"/>
<polygon fill="black" stroke="black" points="297.54,-46.27 294.04,-36.27 290.54,-46.27 297.54,-46.27"/>
</g>
<!-- :data:coverart&#45;&gt;:shared:domain -->
<g id="edge20" class="edge">
<title>:data:coverart&#45;&gt;:shared:domain</title>
<path fill="none" stroke="black" stroke-dasharray="1,5" d="M1159.48,-279.94C1159.48,-264.58 1159.48,-240 1159.48,-240 1159.48,-240 740.54,-240 740.54,-240 740.54,-240 740.54,-179.04 740.54,-179.04"/>
<polygon fill="black" stroke="black" points="744.04,-179.04 740.54,-169.04 737.04,-179.04 744.04,-179.04"/>
</g>
<!-- :data:coverart&#45;&gt;:core:logging:api -->
<g id="edge21" class="edge">
<title>:data:coverart&#45;&gt;:core:logging:api</title>
<path fill="none" stroke="black" stroke-dasharray="1,5" d="M1178.96,-276.28C1178.96,-276.28 1178.96,-176.57 1178.96,-176.57"/>
<polygon fill="black" stroke="black" points="1182.46,-176.57 1178.96,-166.57 1175.46,-176.57 1182.46,-176.57"/>
</g>
<!-- :data:musicbrainz&#45;&gt;:shared:domain -->
<g id="edge22" class="edge">
<title>:data:musicbrainz&#45;&gt;:shared:domain</title>
<path fill="none" stroke="black" stroke-dasharray="1,5" d="M711.5,-278.86C711.5,-278.86 711.5,-182.58 711.5,-182.58"/>
<polygon fill="black" stroke="black" points="715,-182.58 711.5,-172.58 708,-182.58 715,-182.58"/>
</g>
<!-- :data:musicbrainz&#45;&gt;:core:logging:api -->
<g id="edge23" class="edge">
<title>:data:musicbrainz&#45;&gt;:core:logging:api</title>
<path fill="none" stroke="black" stroke-dasharray="1,5" d="M819.61,-275.94C819.61,-240.96 819.61,-161 819.61,-161 819.61,-161 1016.43,-161 1016.43,-161"/>
<polygon fill="black" stroke="black" points="1016.43,-164.5 1026.43,-161 1016.43,-157.5 1016.43,-164.5"/>
</g>
<!-- :data:common:network&#45;&gt;:shared:domain -->
<g id="edge25" class="edge">
<title>:data:common:network&#45;&gt;:shared:domain</title>
<path fill="none" stroke="black" stroke-dasharray="1,5" d="M954.85,-275.6C954.85,-238.03 954.85,-149 954.85,-149 954.85,-149 775.23,-149 775.23,-149"/>
<polygon fill="black" stroke="black" points="775.23,-145.5 765.23,-149 775.23,-152.5 775.23,-145.5"/>
</g>
<!-- :data:common:network&#45;&gt;:core:logging:api -->
<g id="edge24" class="edge">
<title>:data:common:network&#45;&gt;:core:logging:api</title>
<path fill="none" stroke="black" stroke-dasharray="1,5" d="M1071.84,-277.08C1071.84,-277.08 1071.84,-181.6 1071.84,-181.6"/>
<polygon fill="black" stroke="black" points="1075.34,-181.6 1071.84,-171.6 1068.34,-181.6 1075.34,-181.6"/>
</g>
<!-- :core:preferences&#45;&gt;:shared:domain -->
<g id="edge26" class="edge">
<title>:core:preferences&#45;&gt;:shared:domain</title>
<path fill="none" stroke="black" stroke-dasharray="1,5" d="M618.62,-285.02C618.62,-285.02 618.62,-175.37 618.62,-175.37"/>
<polygon fill="black" stroke="black" points="622.12,-175.37 618.62,-165.37 615.12,-175.37 622.12,-175.37"/>
</g>
<!-- :core:coroutines -->
<g id="node14" class="node">
<title>:core:coroutines</title>
<ellipse fill="#b59aff" stroke="black" cx="501.04" cy="-155" rx="85.29" ry="18"/>
<text text-anchor="middle" x="501.04" y="-151.3" font-family="Times,serif" font-size="14.00">:core:coroutines</text>
</g>
<!-- :core:preferences&#45;&gt;:core:coroutines -->
<g id="edge27" class="edge">
<title>:core:preferences&#45;&gt;:core:coroutines</title>
<path fill="none" stroke="black" stroke-dasharray="1,5" d="M514.29,-274.37C514.29,-274.37 514.29,-183 514.29,-183"/>
<polygon fill="black" stroke="black" points="517.79,-183 514.29,-173 510.79,-183 517.79,-183"/>
</g>
</g>
</svg>
