<?xml version="1.0" encoding="UTF-8" standalone="no"?>
<!DOCTYPE svg PUBLIC "-//W3C//DTD SVG 1.1//EN"
 "http://www.w3.org/Graphics/SVG/1.1/DTD/svg11.dtd">
<!-- Generated by graphviz version 2.43.0 (0)
 -->
<!-- Title: %3 Pages: 1 -->
<svg width="995pt" height="1077pt"
 viewBox="0.00 0.00 994.94 1077.00" xmlns="http://www.w3.org/2000/svg" xmlns:xlink="http://www.w3.org/1999/xlink">
<g id="graph0" class="graph" transform="scale(1 1) rotate(0) translate(4 1073)">
<title>%3</title>
<polygon fill="white" stroke="transparent" points="-4,4 -4,-1073 990.94,-1073 990.94,4 -4,4"/>
<text text-anchor="middle" x="493.47" y="-1041" font-family="Times,serif" font-size="30.00">Dependencies</text>
<text text-anchor="middle" x="493.47" y="-1008" font-family="Times,serif" font-size="30.00"> </text>
<!-- :shared:feature:images -->
<g id="node1" class="node">
<title>:shared:feature:images</title>
<polygon fill="#b59aff" stroke="black" points="400.04,-995 218.04,-995 218.04,-959 400.04,-959 400.04,-995"/>
<text text-anchor="middle" x="309.04" y="-973.3" font-family="Times,serif" font-size="14.00">:shared:feature:images</text>
</g>
<!-- :test:image -->
<g id="node2" class="node">
<title>:test:image</title>
<ellipse fill="#9affb5" stroke="black" cx="63.04" cy="-566" rx="63.09" ry="18"/>
<text text-anchor="middle" x="63.04" y="-562.3" font-family="Times,serif" font-size="14.00">:test:image</text>
</g>
<!-- :shared:feature:images&#45;&gt;:test:image -->
<g id="edge1" class="edge">
<title>:shared:feature:images&#45;&gt;:test:image</title>
<path fill="none" stroke="black" stroke-dasharray="1,5" d="M217.76,-977C137.24,-977 32.6,-977 32.6,-977 32.6,-977 32.6,-591.86 32.6,-591.86"/>
<polygon fill="black" stroke="black" points="36.1,-591.86 32.6,-581.86 29.1,-591.86 36.1,-591.86"/>
</g>
<!-- :test&#45;data -->
<g id="node3" class="node">
<title>:test&#45;data</title>
<ellipse fill="#b59aff" stroke="black" cx="652.04" cy="-703" rx="55.49" ry="18"/>
<text text-anchor="middle" x="652.04" y="-699.3" font-family="Times,serif" font-size="14.00">:test&#45;data</text>
</g>
<!-- :shared:feature:images&#45;&gt;:test&#45;data -->
<g id="edge2" class="edge">
<title>:shared:feature:images&#45;&gt;:test&#45;data</title>
<path fill="none" stroke="#ff9ab1" stroke-dasharray="1,5" d="M391.16,-958.85C391.16,-899.21 391.16,-713 391.16,-713 391.16,-713 596,-713 596,-713"/>
<polygon fill="#ff9ab1" stroke="#ff9ab1" points="596,-716.5 606,-713 596,-709.5 596,-716.5"/>
</g>
<!-- :ui:test:screenshot -->
<g id="node4" class="node">
<title>:ui:test:screenshot</title>
<ellipse fill="#9affb5" stroke="black" cx="162.04" cy="-703" rx="96.68" ry="18"/>
<text text-anchor="middle" x="162.04" y="-699.3" font-family="Times,serif" font-size="14.00">:ui:test:screenshot</text>
</g>
<!-- :shared:feature:images&#45;&gt;:ui:test:screenshot -->
<g id="edge3" class="edge">
<title>:shared:feature:images&#45;&gt;:ui:test:screenshot</title>
<path fill="none" stroke="#ff9ab1" stroke-dasharray="1,5" d="M231.37,-958.6C231.37,-958.6 231.37,-725.67 231.37,-725.67"/>
<polygon fill="#ff9ab1" stroke="#ff9ab1" points="234.87,-725.67 231.37,-715.67 227.87,-725.67 234.87,-725.67"/>
</g>
<!-- :shared:domain -->
<g id="node5" class="node">
<title>:shared:domain</title>
<ellipse fill="#b59aff" stroke="black" cx="550.04" cy="-155" rx="82.59" ry="18"/>
<text text-anchor="middle" x="550.04" y="-151.3" font-family="Times,serif" font-size="14.00">:shared:domain</text>
</g>
<!-- :shared:feature:images&#45;&gt;:shared:domain -->
<g id="edge4" class="edge">
<title>:shared:feature:images&#45;&gt;:shared:domain</title>
<path fill="none" stroke="black" stroke-dasharray="1,5" d="M382.27,-958.68C382.27,-837.39 382.27,-155 382.27,-155 382.27,-155 457.14,-155 457.14,-155"/>
<polygon fill="black" stroke="black" points="457.14,-158.5 467.14,-155 457.14,-151.5 457.14,-158.5"/>
</g>
<!-- :ui:common -->
<g id="node6" class="node">
<title>:ui:common</title>
<ellipse fill="#b59aff" stroke="black" cx="309.04" cy="-840" rx="64.19" ry="18"/>
<text text-anchor="middle" x="309.04" y="-836.3" font-family="Times,serif" font-size="14.00">:ui:common</text>
</g>
<!-- :shared:feature:images&#45;&gt;:ui:common -->
<g id="edge5" class="edge">
<title>:shared:feature:images&#45;&gt;:ui:common</title>
<path fill="none" stroke="black" stroke-dasharray="1,5" d="M309.04,-958.81C309.04,-958.81 309.04,-868.27 309.04,-868.27"/>
<polygon fill="black" stroke="black" points="312.54,-868.27 309.04,-858.27 305.54,-868.27 312.54,-868.27"/>
</g>
<!-- :test&#45;data&#45;&gt;:shared:domain -->
<g id="edge6" class="edge">
<title>:test&#45;data&#45;&gt;:shared:domain</title>
<path fill="none" stroke="black" stroke-dasharray="1,5" d="M598.17,-699C530.26,-699 422.28,-699 422.28,-699 422.28,-699 422.28,-164 422.28,-164 422.28,-164 468.32,-164 468.32,-164"/>
<polygon fill="black" stroke="black" points="468.32,-167.5 478.32,-164 468.32,-160.5 468.32,-167.5"/>
</g>
<!-- :core:coroutines -->
<g id="node7" class="node">
<title>:core:coroutines</title>
<ellipse fill="#b59aff" stroke="black" cx="836.04" cy="-18" rx="85.29" ry="18"/>
<text text-anchor="middle" x="836.04" y="-14.3" font-family="Times,serif" font-size="14.00">:core:coroutines</text>
</g>
<!-- :test&#45;data&#45;&gt;:core:coroutines -->
<g id="edge7" class="edge">
<title>:test&#45;data&#45;&gt;:core:coroutines</title>
<path fill="none" stroke="black" stroke-dasharray="1,5" d="M700.03,-712C792.63,-712 986.94,-712 986.94,-712 986.94,-712 986.94,-12 986.94,-12 986.94,-12 926.35,-12 926.35,-12"/>
<polygon fill="black" stroke="black" points="926.35,-8.5 916.35,-12 926.35,-15.5 926.35,-8.5"/>
</g>
<!-- :data:database -->
<g id="node8" class="node">
<title>:data:database</title>
<ellipse fill="#b59aff" stroke="black" cx="546.04" cy="-429" rx="79.09" ry="18"/>
<text text-anchor="middle" x="546.04" y="-425.3" font-family="Times,serif" font-size="14.00">:data:database</text>
</g>
<!-- :test&#45;data&#45;&gt;:data:database -->
<g id="edge8" class="edge">
<title>:test&#45;data&#45;&gt;:data:database</title>
<path fill="none" stroke="black" stroke-dasharray="1,5" d="M608.17,-692C570.21,-692 521.38,-692 521.38,-692 521.38,-692 521.38,-456.26 521.38,-456.26"/>
<polygon fill="black" stroke="black" points="524.88,-456.26 521.38,-446.26 517.88,-456.26 524.88,-456.26"/>
</g>
<!-- :data:musicbrainz -->
<g id="node9" class="node">
<title>:data:musicbrainz</title>
<ellipse fill="#b59aff" stroke="black" cx="675.04" cy="-292" rx="93.68" ry="18"/>
<text text-anchor="middle" x="675.04" y="-288.3" font-family="Times,serif" font-size="14.00">:data:musicbrainz</text>
</g>
<!-- :test&#45;data&#45;&gt;:data:musicbrainz -->
<g id="edge9" class="edge">
<title>:test&#45;data&#45;&gt;:data:musicbrainz</title>
<path fill="none" stroke="black" stroke-dasharray="1,5" d="M699.92,-694C724.09,-694 748.36,-694 748.36,-694 748.36,-694 748.36,-313.6 748.36,-313.6"/>
<polygon fill="black" stroke="black" points="751.86,-313.6 748.36,-303.6 744.86,-313.6 751.86,-313.6"/>
</g>
<!-- :data:coverart -->
<g id="node10" class="node">
<title>:data:coverart</title>
<ellipse fill="#b59aff" stroke="black" cx="652.04" cy="-566" rx="76.09" ry="18"/>
<text text-anchor="middle" x="652.04" y="-562.3" font-family="Times,serif" font-size="14.00">:data:coverart</text>
</g>
<!-- :test&#45;data&#45;&gt;:data:coverart -->
<g id="edge10" class="edge">
<title>:test&#45;data&#45;&gt;:data:coverart</title>
<path fill="none" stroke="black" stroke-dasharray="1,5" d="M633.63,-685.93C633.63,-685.93 633.63,-593.72 633.63,-593.72"/>
<polygon fill="black" stroke="black" points="637.13,-593.72 633.63,-583.72 630.13,-593.72 637.13,-593.72"/>
</g>
<!-- :data:spotify -->
<g id="node11" class="node">
<title>:data:spotify</title>
<ellipse fill="#b59aff" stroke="black" cx="894.04" cy="-292" rx="68.79" ry="18"/>
<text text-anchor="middle" x="894.04" y="-288.3" font-family="Times,serif" font-size="14.00">:data:spotify</text>
</g>
<!-- :test&#45;data&#45;&gt;:data:spotify -->
<g id="edge11" class="edge">
<title>:test&#45;data&#45;&gt;:data:spotify</title>
<path fill="none" stroke="black" stroke-dasharray="1,5" d="M707.56,-703C779.01,-703 894.04,-703 894.04,-703 894.04,-703 894.04,-320.19 894.04,-320.19"/>
<polygon fill="black" stroke="black" points="897.54,-320.19 894.04,-310.19 890.54,-320.19 897.54,-320.19"/>
</g>
<!-- :ui:test:screenshot&#45;&gt;:test:image -->
<g id="edge13" class="edge">
<title>:ui:test:screenshot&#45;&gt;:test:image</title>
<path fill="none" stroke="black" stroke-dasharray="1,5" d="M95.65,-689.86C95.65,-689.86 95.65,-591.81 95.65,-591.81"/>
<polygon fill="black" stroke="black" points="99.15,-591.81 95.65,-581.81 92.15,-591.81 99.15,-591.81"/>
</g>
<!-- :ui:core -->
<g id="node12" class="node">
<title>:ui:core</title>
<ellipse fill="#b59aff" stroke="black" cx="203.04" cy="-566" rx="45.49" ry="18"/>
<text text-anchor="middle" x="203.04" y="-562.3" font-family="Times,serif" font-size="14.00">:ui:core</text>
</g>
<!-- :ui:test:screenshot&#45;&gt;:ui:core -->
<g id="edge12" class="edge">
<title>:ui:test:screenshot&#45;&gt;:ui:core</title>
<path fill="none" stroke="black" stroke-dasharray="1,5" d="M203.04,-686.47C203.04,-686.47 203.04,-594.33 203.04,-594.33"/>
<polygon fill="black" stroke="black" points="206.54,-594.33 203.04,-584.33 199.54,-594.33 206.54,-594.33"/>
</g>
<!-- :ui:common&#45;&gt;:test&#45;data -->
<g id="edge14" class="edge">
<title>:ui:common&#45;&gt;:test&#45;data</title>
<path fill="none" stroke="#ff9ab1" stroke-dasharray="1,5" d="M351.11,-826.16C351.11,-791.93 351.11,-706 351.11,-706 351.11,-706 587.55,-706 587.55,-706"/>
<polygon fill="#ff9ab1" stroke="#ff9ab1" points="587.55,-709.5 597.55,-706 587.55,-702.5 587.55,-709.5"/>
</g>
<!-- :ui:common&#45;&gt;:ui:test:screenshot -->
<g id="edge15" class="edge">
<title>:ui:common&#45;&gt;:ui:test:screenshot</title>
<path fill="none" stroke="#ff9ab1" stroke-dasharray="1,5" d="M251.79,-831.43C251.79,-831.43 251.79,-719.89 251.79,-719.89"/>
<polygon fill="#ff9ab1" stroke="#ff9ab1" points="255.29,-719.89 251.79,-709.89 248.29,-719.89 255.29,-719.89"/>
</g>
<!-- :ui:common&#45;&gt;:shared:domain -->
<g id="edge17" class="edge">
<title>:ui:common&#45;&gt;:shared:domain</title>
<path fill="none" stroke="black" d="M328.84,-822.84C328.84,-715.97 328.84,-146 328.84,-146 328.84,-146 468.53,-146 468.53,-146"/>
<polygon fill="black" stroke="black" points="468.53,-149.5 478.53,-146 468.53,-142.5 468.53,-149.5"/>
</g>
<!-- :ui:common&#45;&gt;:core:coroutines -->
<g id="edge16" class="edge">
<title>:ui:common&#45;&gt;:core:coroutines</title>
<path fill="none" stroke="#ff9ab1" stroke-dasharray="1,5" d="M306.56,-821.94C306.56,-700.85 306.56,-12 306.56,-12 306.56,-12 745.63,-12 745.63,-12"/>
<polygon fill="#ff9ab1" stroke="#ff9ab1" points="745.63,-15.5 755.63,-12 745.63,-8.5 745.63,-15.5"/>
</g>
<!-- :ui:common&#45;&gt;:ui:core -->
<g id="edge18" class="edge">
<title>:ui:common&#45;&gt;:ui:core</title>
<path fill="none" stroke="black" d="M271.59,-825.27C271.59,-768.36 271.59,-566 271.59,-566 271.59,-566 258.76,-566 258.76,-566"/>
<polygon fill="black" stroke="black" points="258.76,-562.5 248.76,-566 258.76,-569.5 258.76,-562.5"/>
</g>
<!-- :core:logging:api -->
<g id="node13" class="node">
<title>:core:logging:api</title>
<ellipse fill="#b59aff" stroke="black" cx="836.04" cy="-155" rx="88.28" ry="18"/>
<text text-anchor="middle" x="836.04" y="-151.3" font-family="Times,serif" font-size="14.00">:core:logging:api</text>
</g>
<!-- :ui:common&#45;&gt;:core:logging:api -->
<g id="edge19" class="edge">
<title>:ui:common&#45;&gt;:core:logging:api</title>
<path fill="none" stroke="black" stroke-dasharray="1,5" d="M373.54,-840C508.09,-840 806.31,-840 806.31,-840 806.31,-840 806.31,-182.28 806.31,-182.28"/>
<polygon fill="black" stroke="black" points="809.81,-182.28 806.31,-172.28 802.81,-182.28 809.81,-182.28"/>
</g>
<!-- :data:database&#45;&gt;:shared:domain -->
<g id="edge20" class="edge">
<title>:data:database&#45;&gt;:shared:domain</title>
<path fill="none" stroke="black" stroke-dasharray="1,5" d="M505.49,-413.48C505.49,-413.48 505.49,-180.35 505.49,-180.35"/>
<polygon fill="black" stroke="black" points="508.99,-180.35 505.49,-170.35 501.99,-180.35 508.99,-180.35"/>
</g>
<!-- :data:database&#45;&gt;:core:coroutines -->
<g id="edge21" class="edge">
<title>:data:database&#45;&gt;:core:coroutines</title>
<path fill="none" stroke="black" stroke-dasharray="1,5" d="M466.55,-429C453.7,-429 444.52,-429 444.52,-429 444.52,-429 444.52,-24 444.52,-24 444.52,-24 745.39,-24 745.39,-24"/>
<polygon fill="black" stroke="black" points="745.39,-27.5 755.39,-24 745.39,-20.5 745.39,-27.5"/>
</g>
<!-- :data:database&#45;&gt;:data:musicbrainz -->
<g id="edge22" class="edge">
<title>:data:database&#45;&gt;:data:musicbrainz</title>
<path fill="none" stroke="black" stroke-dasharray="1,5" d="M603.4,-416.36C603.4,-416.36 603.4,-313.83 603.4,-313.83"/>
<polygon fill="black" stroke="black" points="606.9,-313.83 603.4,-303.83 599.9,-313.83 606.9,-313.83"/>
</g>
<!-- :data:musicbrainz&#45;&gt;:shared:domain -->
<g id="edge23" class="edge">
<title>:data:musicbrainz&#45;&gt;:shared:domain</title>
<path fill="none" stroke="black" stroke-dasharray="1,5" d="M598.5,-281.25C598.5,-281.25 598.5,-179.75 598.5,-179.75"/>
<polygon fill="black" stroke="black" points="602,-179.75 598.5,-169.75 595,-179.75 602,-179.75"/>
</g>
<!-- :data:musicbrainz&#45;&gt;:core:logging:api -->
<g id="edge24" class="edge">
<title>:data:musicbrainz&#45;&gt;:core:logging:api</title>
<path fill="none" stroke="black" stroke-dasharray="1,5" d="M758.14,-283.43C758.14,-283.43 758.14,-173.57 758.14,-173.57"/>
<polygon fill="black" stroke="black" points="761.64,-173.57 758.14,-163.57 754.64,-173.57 761.64,-173.57"/>
</g>
<!-- :data:coverart&#45;&gt;:test&#45;data -->
<g id="edge28" class="edge">
<title>:data:coverart&#45;&gt;:test&#45;data</title>
<path fill="none" stroke="#ff9ab1" stroke-dasharray="1,5" d="M670.46,-583.63C670.46,-583.63 670.46,-675.87 670.46,-675.87"/>
<polygon fill="#ff9ab1" stroke="#ff9ab1" points="666.96,-675.87 670.46,-685.87 673.96,-675.87 666.96,-675.87"/>
</g>
<!-- :data:coverart&#45;&gt;:shared:domain -->
<g id="edge25" class="edge">
<title>:data:coverart&#45;&gt;:shared:domain</title>
<path fill="none" stroke="black" stroke-dasharray="1,5" d="M659.59,-548.08C659.59,-497.96 659.59,-360 659.59,-360 659.59,-360 543.47,-360 543.47,-360 543.47,-360 543.47,-183.19 543.47,-183.19"/>
<polygon fill="black" stroke="black" points="546.97,-183.19 543.47,-173.19 539.97,-183.19 546.97,-183.19"/>
</g>
<!-- :data:coverart&#45;&gt;:core:coroutines -->
<g id="edge27" class="edge">
<title>:data:coverart&#45;&gt;:core:coroutines</title>
<path fill="none" stroke="black" stroke-dasharray="1,5" d="M724.11,-572C819.27,-572 974.94,-572 974.94,-572 974.94,-572 974.94,-24 974.94,-24 974.94,-24 926.44,-24 926.44,-24"/>
<polygon fill="black" stroke="black" points="926.44,-20.5 916.44,-24 926.44,-27.5 926.44,-20.5"/>
</g>
<!-- :data:coverart&#45;&gt;:data:database -->
<g id="edge30" class="edge">
<title>:data:coverart&#45;&gt;:data:database</title>
<path fill="none" stroke="#ff9ab1" stroke-dasharray="1,5" d="M600.67,-552.61C600.67,-552.61 600.67,-452.24 600.67,-452.24"/>
<polygon fill="#ff9ab1" stroke="#ff9ab1" points="604.17,-452.24 600.67,-442.24 597.17,-452.24 604.17,-452.24"/>
</g>
<!-- :data:coverart&#45;&gt;:data:musicbrainz -->
<g id="edge29" class="edge">
<title>:data:coverart&#45;&gt;:data:musicbrainz</title>
<path fill="none" stroke="#ff9ab1" stroke-dasharray="1,5" d="M693.84,-550.88C693.84,-550.88 693.84,-319.87 693.84,-319.87"/>
<polygon fill="#ff9ab1" stroke="#ff9ab1" points="697.34,-319.87 693.84,-309.87 690.34,-319.87 697.34,-319.87"/>
</g>
<!-- :data:coverart&#45;&gt;:core:logging:api -->
<g id="edge26" class="edge">
<title>:data:coverart&#45;&gt;:core:logging:api</title>
<path fill="none" stroke="black" stroke-dasharray="1,5" d="M724.12,-560C756.46,-560 787.47,-560 787.47,-560 787.47,-560 787.47,-180.38 787.47,-180.38"/>
<polygon fill="black" stroke="black" points="790.97,-180.38 787.47,-170.38 783.97,-180.38 790.97,-180.38"/>
</g>
<!-- :data:spotify&#45;&gt;:shared:domain -->
<g id="edge31" class="edge">
<title>:data:spotify&#45;&gt;:shared:domain</title>
<path fill="none" stroke="black" stroke-dasharray="1,5" d="M858.25,-276.34C858.25,-255.98 858.25,-223 858.25,-223 858.25,-223 615.54,-223 615.54,-223 615.54,-223 615.54,-176.23 615.54,-176.23"/>
<polygon fill="black" stroke="black" points="619.04,-176.23 615.54,-166.23 612.04,-176.23 619.04,-176.23"/>
</g>
<!-- :data:spotify&#45;&gt;:core:logging:api -->
<g id="edge32" class="edge">
<title>:data:spotify&#45;&gt;:core:logging:api</title>
<path fill="none" stroke="black" stroke-dasharray="1,5" d="M891.34,-273.81C891.34,-273.81 891.34,-179.1 891.34,-179.1"/>
<polygon fill="black" stroke="black" points="894.84,-179.1 891.34,-169.1 887.84,-179.1 894.84,-179.1"/>
</g>
<!-- :shared:strings -->
<g id="node14" class="node">
<title>:shared:strings</title>
<ellipse fill="#b59aff" stroke="black" cx="203.04" cy="-429" rx="81.49" ry="18"/>
<text text-anchor="middle" x="203.04" y="-425.3" font-family="Times,serif" font-size="14.00">:shared:strings</text>
</g>
<!-- :ui:core&#45;&gt;:shared:strings -->
<g id="edge33" class="edge">
<title>:ui:core&#45;&gt;:shared:strings</title>
<path fill="none" stroke="black" d="M203.04,-547.81C203.04,-547.81 203.04,-457.27 203.04,-457.27"/>
<polygon fill="black" stroke="black" points="206.54,-457.27 203.04,-447.27 199.54,-457.27 206.54,-457.27"/>
</g>
<!-- :core:logging:api&#45;&gt;:core:coroutines -->
<g id="edge34" class="edge">
<title>:core:logging:api&#45;&gt;:core:coroutines</title>
<path fill="none" stroke="black" d="M836.04,-136.81C836.04,-136.81 836.04,-46.27 836.04,-46.27"/>
<polygon fill="black" stroke="black" points="839.54,-46.27 836.04,-36.27 832.54,-46.27 839.54,-46.27"/>
</g>
</g>
</svg>
