<?xml version="1.0" encoding="UTF-8" standalone="no"?>
<!DOCTYPE svg PUBLIC "-//W3C//DTD SVG 1.1//EN"
 "http://www.w3.org/Graphics/SVG/1.1/DTD/svg11.dtd">
<!-- Generated by graphviz version 2.43.0 (0)
 -->
<!-- Title: %3 Pages: 1 -->
<svg width="946pt" height="1077pt"
 viewBox="0.00 0.00 946.19 1077.00" xmlns="http://www.w3.org/2000/svg" xmlns:xlink="http://www.w3.org/1999/xlink">
<g id="graph0" class="graph" transform="scale(1 1) rotate(0) translate(4 1073)">
<title>%3</title>
<polygon fill="white" stroke="transparent" points="-4,4 -4,-1073 942.19,-1073 942.19,4 -4,4"/>
<text text-anchor="middle" x="469.09" y="-1041" font-family="Times,serif" font-size="30.00">Dependencies</text>
<text text-anchor="middle" x="469.09" y="-1008" font-family="Times,serif" font-size="30.00"> </text>
<!-- :shared:feature:images -->
<g id="node1" class="node">
<title>:shared:feature:images</title>
<polygon fill="#b59aff" stroke="black" points="264.04,-995 82.04,-995 82.04,-959 264.04,-959 264.04,-995"/>
<text text-anchor="middle" x="173.04" y="-973.3" font-family="Times,serif" font-size="14.00">:shared:feature:images</text>
</g>
<!-- :test:image -->
<g id="node2" class="node">
<title>:test:image</title>
<ellipse fill="#9affb5" stroke="black" cx="63.04" cy="-566" rx="63.09" ry="18"/>
<text text-anchor="middle" x="63.04" y="-562.3" font-family="Times,serif" font-size="14.00">:test:image</text>
</g>
<!-- :shared:feature:images&#45;&gt;:test:image -->
<g id="edge1" class="edge">
<title>:shared:feature:images&#45;&gt;:test:image</title>
<path fill="none" stroke="black" stroke-dasharray="1,5" d="M81.64,-977C51.44,-977 25.4,-977 25.4,-977 25.4,-977 25.4,-590.63 25.4,-590.63"/>
<polygon fill="black" stroke="black" points="28.9,-590.63 25.4,-580.63 21.9,-590.63 28.9,-590.63"/>
</g>
<!-- :test&#45;data -->
<g id="node3" class="node">
<title>:test&#45;data</title>
<ellipse fill="#b59aff" stroke="black" cx="487.04" cy="-703" rx="55.49" ry="18"/>
<text text-anchor="middle" x="487.04" y="-699.3" font-family="Times,serif" font-size="14.00">:test&#45;data</text>
</g>
<!-- :shared:feature:images&#45;&gt;:test&#45;data -->
<g id="edge2" class="edge">
<title>:shared:feature:images&#45;&gt;:test&#45;data</title>
<path fill="none" stroke="#ff9ab1" stroke-dasharray="1,5" d="M264.29,-977C357,-977 487.04,-977 487.04,-977 487.04,-977 487.04,-731.4 487.04,-731.4"/>
<polygon fill="#ff9ab1" stroke="#ff9ab1" points="490.54,-731.4 487.04,-721.4 483.54,-731.4 490.54,-731.4"/>
</g>
<!-- :ui:test:screenshot -->
<g id="node4" class="node">
<title>:ui:test:screenshot</title>
<ellipse fill="#9affb5" stroke="black" cx="173.04" cy="-703" rx="96.68" ry="18"/>
<text text-anchor="middle" x="173.04" y="-699.3" font-family="Times,serif" font-size="14.00">:ui:test:screenshot</text>
</g>
<!-- :shared:feature:images&#45;&gt;:ui:test:screenshot -->
<g id="edge3" class="edge">
<title>:shared:feature:images&#45;&gt;:ui:test:screenshot</title>
<path fill="none" stroke="#ff9ab1" stroke-dasharray="1,5" d="M126.93,-958.6C126.93,-958.6 126.93,-728.88 126.93,-728.88"/>
<polygon fill="#ff9ab1" stroke="#ff9ab1" points="130.43,-728.88 126.93,-718.88 123.43,-728.88 130.43,-728.88"/>
</g>
<!-- :shared:domain -->
<g id="node5" class="node">
<title>:shared:domain</title>
<ellipse fill="#b59aff" stroke="black" cx="349.04" cy="-155" rx="82.59" ry="18"/>
<text text-anchor="middle" x="349.04" y="-151.3" font-family="Times,serif" font-size="14.00">:shared:domain</text>
</g>
<!-- :shared:feature:images&#45;&gt;:shared:domain -->
<g id="edge4" class="edge">
<title>:shared:feature:images&#45;&gt;:shared:domain</title>
<path fill="none" stroke="black" stroke-dasharray="1,5" d="M171.81,-958.72C171.81,-908.3 171.81,-771 171.81,-771 171.81,-771 293.59,-771 293.59,-771 293.59,-771 293.59,-178.44 293.59,-178.44"/>
<polygon fill="black" stroke="black" points="297.09,-178.44 293.59,-168.44 290.09,-178.44 297.09,-178.44"/>
</g>
<!-- :ui:common -->
<g id="node6" class="node">
<title>:ui:common</title>
<ellipse fill="#b59aff" stroke="black" cx="281.04" cy="-840" rx="64.19" ry="18"/>
<text text-anchor="middle" x="281.04" y="-836.3" font-family="Times,serif" font-size="14.00">:ui:common</text>
</g>
<!-- :shared:feature:images&#45;&gt;:ui:common -->
<g id="edge5" class="edge">
<title>:shared:feature:images&#45;&gt;:ui:common</title>
<path fill="none" stroke="black" stroke-dasharray="1,5" d="M240.37,-958.81C240.37,-958.81 240.37,-864.1 240.37,-864.1"/>
<polygon fill="black" stroke="black" points="243.87,-864.1 240.37,-854.1 236.87,-864.1 243.87,-864.1"/>
</g>
<!-- :test&#45;data&#45;&gt;:shared:domain -->
<g id="edge6" class="edge">
<title>:test&#45;data&#45;&gt;:shared:domain</title>
<path fill="none" stroke="black" stroke-dasharray="1,5" d="M478.89,-685.1C478.89,-591.75 478.89,-165 478.89,-165 478.89,-165 427.77,-165 427.77,-165"/>
<polygon fill="black" stroke="black" points="427.77,-161.5 417.77,-165 427.77,-168.5 427.77,-161.5"/>
</g>
<!-- :core:coroutines -->
<g id="node7" class="node">
<title>:core:coroutines</title>
<ellipse fill="#b59aff" stroke="black" cx="853.04" cy="-18" rx="85.29" ry="18"/>
<text text-anchor="middle" x="853.04" y="-14.3" font-family="Times,serif" font-size="14.00">:core:coroutines</text>
</g>
<!-- :test&#45;data&#45;&gt;:core:coroutines -->
<g id="edge7" class="edge">
<title>:test&#45;data&#45;&gt;:core:coroutines</title>
<path fill="none" stroke="black" stroke-dasharray="1,5" d="M490.84,-685.03C490.84,-576.95 490.84,-18 490.84,-18 490.84,-18 757.67,-18 757.67,-18"/>
<polygon fill="black" stroke="black" points="757.67,-21.5 767.67,-18 757.67,-14.5 757.67,-21.5"/>
</g>
<!-- :data:database -->
<g id="node8" class="node">
<title>:data:database</title>
<ellipse fill="#b59aff" stroke="black" cx="594.04" cy="-429" rx="79.09" ry="18"/>
<text text-anchor="middle" x="594.04" y="-425.3" font-family="Times,serif" font-size="14.00">:data:database</text>
</g>
<!-- :test&#45;data&#45;&gt;:data:database -->
<g id="edge8" class="edge">
<title>:test&#45;data&#45;&gt;:data:database</title>
<path fill="none" stroke="black" stroke-dasharray="1,5" d="M521.64,-688.65C521.64,-688.65 521.64,-446.81 521.64,-446.81"/>
<polygon fill="black" stroke="black" points="525.14,-446.81 521.64,-436.81 518.14,-446.81 525.14,-446.81"/>
</g>
<!-- :data:musicbrainz -->
<g id="node9" class="node">
<title>:data:musicbrainz</title>
<ellipse fill="#b59aff" stroke="black" cx="617.04" cy="-292" rx="93.68" ry="18"/>
<text text-anchor="middle" x="617.04" y="-288.3" font-family="Times,serif" font-size="14.00">:data:musicbrainz</text>
</g>
<!-- :test&#45;data&#45;&gt;:data:musicbrainz -->
<g id="edge9" class="edge">
<title>:test&#45;data&#45;&gt;:data:musicbrainz</title>
<path fill="none" stroke="black" stroke-dasharray="1,5" d="M502.8,-685.6C502.8,-607.37 502.8,-292 502.8,-292 502.8,-292 513.22,-292 513.22,-292"/>
<polygon fill="black" stroke="black" points="513.22,-295.5 523.22,-292 513.22,-288.5 513.22,-295.5"/>
</g>
<!-- :data:coverart -->
<g id="node10" class="node">
<title>:data:coverart</title>
<ellipse fill="#b59aff" stroke="black" cx="701.04" cy="-566" rx="76.09" ry="18"/>
<text text-anchor="middle" x="701.04" y="-562.3" font-family="Times,serif" font-size="14.00">:data:coverart</text>
</g>
<!-- :test&#45;data&#45;&gt;:data:coverart -->
<g id="edge10" class="edge">
<title>:test&#45;data&#45;&gt;:data:coverart</title>
<path fill="none" stroke="black" stroke-dasharray="1,5" d="M535.4,-694.21C535.4,-664.4 535.4,-569 535.4,-569 535.4,-569 615.98,-569 615.98,-569"/>
<polygon fill="black" stroke="black" points="615.98,-572.5 625.98,-569 615.98,-565.5 615.98,-572.5"/>
</g>
<!-- :data:spotify -->
<g id="node11" class="node">
<title>:data:spotify</title>
<ellipse fill="#b59aff" stroke="black" cx="398.04" cy="-292" rx="68.79" ry="18"/>
<text text-anchor="middle" x="398.04" y="-288.3" font-family="Times,serif" font-size="14.00">:data:spotify</text>
</g>
<!-- :test&#45;data&#45;&gt;:data:spotify -->
<g id="edge11" class="edge">
<title>:test&#45;data&#45;&gt;:data:spotify</title>
<path fill="none" stroke="black" stroke-dasharray="1,5" d="M449.37,-689.79C449.37,-689.79 449.37,-314.15 449.37,-314.15"/>
<polygon fill="black" stroke="black" points="452.87,-314.15 449.37,-304.15 445.87,-314.15 452.87,-314.15"/>
</g>
<!-- :ui:test:screenshot&#45;&gt;:test:image -->
<g id="edge13" class="edge">
<title>:ui:test:screenshot&#45;&gt;:test:image</title>
<path fill="none" stroke="black" stroke-dasharray="1,5" d="M101.15,-690.84C101.15,-690.84 101.15,-590.37 101.15,-590.37"/>
<polygon fill="black" stroke="black" points="104.65,-590.37 101.15,-580.37 97.65,-590.37 104.65,-590.37"/>
</g>
<!-- :ui:core -->
<g id="node12" class="node">
<title>:ui:core</title>
<ellipse fill="#b59aff" stroke="black" cx="190.04" cy="-566" rx="45.49" ry="18"/>
<text text-anchor="middle" x="190.04" y="-562.3" font-family="Times,serif" font-size="14.00">:ui:core</text>
</g>
<!-- :ui:test:screenshot&#45;&gt;:ui:core -->
<g id="edge12" class="edge">
<title>:ui:test:screenshot&#45;&gt;:ui:core</title>
<path fill="none" stroke="black" stroke-dasharray="1,5" d="M190.04,-685.09C190.04,-685.09 190.04,-594.35 190.04,-594.35"/>
<polygon fill="black" stroke="black" points="193.54,-594.35 190.04,-584.35 186.54,-594.35 193.54,-594.35"/>
</g>
<!-- :ui:common&#45;&gt;:test:image -->
<g id="edge14" class="edge">
<title>:ui:common&#45;&gt;:test:image</title>
<path fill="none" stroke="black" stroke-dasharray="1,5" d="M216.6,-840C148.49,-840 50.8,-840 50.8,-840 50.8,-840 50.8,-593.98 50.8,-593.98"/>
<polygon fill="black" stroke="black" points="54.3,-593.98 50.8,-583.98 47.3,-593.98 54.3,-593.98"/>
</g>
<!-- :ui:common&#45;&gt;:test&#45;data -->
<g id="edge15" class="edge">
<title>:ui:common&#45;&gt;:test&#45;data</title>
<path fill="none" stroke="#ff9ab1" stroke-dasharray="1,5" d="M337.27,-831.01C337.27,-800.53 337.27,-703 337.27,-703 337.27,-703 421.7,-703 421.7,-703"/>
<polygon fill="#ff9ab1" stroke="#ff9ab1" points="421.7,-706.5 431.7,-703 421.7,-699.5 421.7,-706.5"/>
</g>
<!-- :ui:common&#45;&gt;:ui:test:screenshot -->
<g id="edge16" class="edge">
<title>:ui:common&#45;&gt;:ui:test:screenshot</title>
<path fill="none" stroke="#ff9ab1" stroke-dasharray="1,5" d="M243.29,-825.34C243.29,-825.34 243.29,-725.55 243.29,-725.55"/>
<polygon fill="#ff9ab1" stroke="#ff9ab1" points="246.79,-725.55 243.29,-715.55 239.79,-725.55 246.79,-725.55"/>
</g>
<!-- :ui:common&#45;&gt;:shared:domain -->
<g id="edge18" class="edge">
<title>:ui:common&#45;&gt;:shared:domain</title>
<path fill="none" stroke="black" d="M305.44,-823.07C305.44,-823.07 305.44,-180.44 305.44,-180.44"/>
<polygon fill="black" stroke="black" points="308.94,-180.44 305.44,-170.44 301.94,-180.44 308.94,-180.44"/>
</g>
<!-- :ui:common&#45;&gt;:core:coroutines -->
<g id="edge17" class="edge">
<title>:ui:common&#45;&gt;:core:coroutines</title>
<path fill="none" stroke="#ff9ab1" stroke-dasharray="1,5" d="M341.92,-846C499.77,-846 910,-846 910,-846 910,-846 910,-41.68 910,-41.68"/>
<polygon fill="#ff9ab1" stroke="#ff9ab1" points="913.5,-41.68 910,-31.68 906.5,-41.68 913.5,-41.68"/>
</g>
<!-- :ui:common&#45;&gt;:ui:core -->
<g id="edge19" class="edge">
<title>:ui:common&#45;&gt;:ui:core</title>
<path fill="none" stroke="black" d="M281.74,-821.85C281.74,-762.21 281.74,-576 281.74,-576 281.74,-576 238.13,-576 238.13,-576"/>
<polygon fill="black" stroke="black" points="238.13,-572.5 228.13,-576 238.13,-579.5 238.13,-572.5"/>
</g>
<!-- :core:logging:api -->
<g id="node13" class="node">
<title>:core:logging:api</title>
<ellipse fill="#b59aff" stroke="black" cx="737.04" cy="-155" rx="88.28" ry="18"/>
<text text-anchor="middle" x="737.04" y="-151.3" font-family="Times,serif" font-size="14.00">:core:logging:api</text>
</g>
<!-- :ui:common&#45;&gt;:core:logging:api -->
<g id="edge20" class="edge">
<title>:ui:common&#45;&gt;:core:logging:api</title>
<path fill="none" stroke="black" stroke-dasharray="1,5" d="M341.74,-834C478.97,-834 801.26,-834 801.26,-834 801.26,-834 801.26,-177.66 801.26,-177.66"/>
<polygon fill="black" stroke="black" points="804.76,-177.66 801.26,-167.66 797.76,-177.66 804.76,-177.66"/>
</g>
<!-- :data:database&#45;&gt;:shared:domain -->
<g id="edge21" class="edge">
<title>:data:database&#45;&gt;:shared:domain</title>
<path fill="none" stroke="black" stroke-dasharray="1,5" d="M519.1,-423.09C519.1,-383.46 519.1,-158 519.1,-158 519.1,-158 440.59,-158 440.59,-158"/>
<polygon fill="black" stroke="black" points="440.59,-154.5 430.59,-158 440.59,-161.5 440.59,-154.5"/>
</g>
<!-- :data:database&#45;&gt;:core:coroutines -->
<g id="edge22" class="edge">
<title>:data:database&#45;&gt;:core:coroutines</title>
<path fill="none" stroke="black" stroke-dasharray="1,5" d="M673.69,-429C750,-429 853.62,-429 853.62,-429 853.62,-429 853.62,-46.19 853.62,-46.19"/>
<polygon fill="black" stroke="black" points="857.12,-46.19 853.62,-36.19 850.12,-46.19 857.12,-46.19"/>
</g>
<!-- :data:database&#45;&gt;:data:musicbrainz -->
<g id="edge23" class="edge">
<title>:data:database&#45;&gt;:data:musicbrainz</title>
<path fill="none" stroke="black" stroke-dasharray="1,5" d="M598.4,-410.81C598.4,-410.81 598.4,-319.83 598.4,-319.83"/>
<polygon fill="black" stroke="black" points="601.9,-319.83 598.4,-309.83 594.9,-319.83 601.9,-319.83"/>
</g>
<!-- :data:musicbrainz&#45;&gt;:shared:domain -->
<g id="edge24" class="edge">
<title>:data:musicbrainz&#45;&gt;:shared:domain</title>
<path fill="none" stroke="black" stroke-dasharray="1,5" d="M586.05,-274.73C586.05,-235.69 586.05,-144 586.05,-144 586.05,-144 424.44,-144 424.44,-144"/>
<polygon fill="black" stroke="black" points="424.44,-140.5 414.44,-144 424.44,-147.5 424.44,-140.5"/>
</g>
<!-- :data:musicbrainz&#45;&gt;:core:logging:api -->
<g id="edge25" class="edge">
<title>:data:musicbrainz&#45;&gt;:core:logging:api</title>
<path fill="none" stroke="black" stroke-dasharray="1,5" d="M679.64,-278.61C679.64,-278.61 679.64,-179.05 679.64,-179.05"/>
<polygon fill="black" stroke="black" points="683.14,-179.05 679.64,-169.05 676.14,-179.05 683.14,-179.05"/>
</g>
<!-- :data:coverart&#45;&gt;:test&#45;data -->
<g id="edge29" class="edge">
<title>:data:coverart&#45;&gt;:test&#45;data</title>
<path fill="none" stroke="#ff9ab1" stroke-dasharray="1,5" d="M626.88,-562C580.12,-562 528.52,-562 528.52,-562 528.52,-562 528.52,-680.98 528.52,-680.98"/>
<polygon fill="#ff9ab1" stroke="#ff9ab1" points="525.02,-680.98 528.52,-690.98 532.02,-680.98 525.02,-680.98"/>
</g>
<!-- :data:coverart&#45;&gt;:shared:domain -->
<g id="edge26" class="edge">
<title>:data:coverart&#45;&gt;:shared:domain</title>
<path fill="none" stroke="black" stroke-dasharray="1,5" d="M640.66,-555C532.59,-555 317.3,-555 317.3,-555 317.3,-555 317.3,-181.68 317.3,-181.68"/>
<polygon fill="black" stroke="black" points="320.8,-181.68 317.3,-171.68 313.8,-181.68 320.8,-181.68"/>
</g>
<!-- :data:coverart&#45;&gt;:core:coroutines -->
<g id="edge28" class="edge">
<title>:data:coverart&#45;&gt;:core:coroutines</title>
<path fill="none" stroke="black" stroke-dasharray="1,5" d="M777.18,-566C826.58,-566 881.81,-566 881.81,-566 881.81,-566 881.81,-45 881.81,-45"/>
<polygon fill="black" stroke="black" points="885.31,-45 881.81,-35 878.31,-45 885.31,-45"/>
</g>
<!-- :data:coverart&#45;&gt;:data:database -->
<g id="edge31" class="edge">
<title>:data:coverart&#45;&gt;:data:database</title>
<path fill="none" stroke="#ff9ab1" stroke-dasharray="1,5" d="M649.17,-552.61C649.17,-552.61 649.17,-452.24 649.17,-452.24"/>
<polygon fill="#ff9ab1" stroke="#ff9ab1" points="652.67,-452.24 649.17,-442.24 645.67,-452.24 652.67,-452.24"/>
</g>
<!-- :data:coverart&#45;&gt;:data:musicbrainz -->
<g id="edge30" class="edge">
<title>:data:coverart&#45;&gt;:data:musicbrainz</title>
<path fill="none" stroke="#ff9ab1" stroke-dasharray="1,5" d="M691.99,-548.02C691.99,-548.02 691.99,-312.94 691.99,-312.94"/>
<polygon fill="#ff9ab1" stroke="#ff9ab1" points="695.49,-312.94 691.99,-302.94 688.49,-312.94 695.49,-312.94"/>
</g>
<!-- :data:coverart&#45;&gt;:core:logging:api -->
<g id="edge27" class="edge">
<title>:data:coverart&#45;&gt;:core:logging:api</title>
<path fill="none" stroke="black" stroke-dasharray="1,5" d="M743.86,-550.88C743.86,-550.88 743.86,-182.97 743.86,-182.97"/>
<polygon fill="black" stroke="black" points="747.36,-182.97 743.86,-172.97 740.36,-182.97 747.36,-182.97"/>
</g>
<!-- :data:spotify&#45;&gt;:shared:domain -->
<g id="edge32" class="edge">
<title>:data:spotify&#45;&gt;:shared:domain</title>
<path fill="none" stroke="black" stroke-dasharray="1,5" d="M380.37,-274.37C380.37,-274.37 380.37,-181.7 380.37,-181.7"/>
<polygon fill="black" stroke="black" points="383.87,-181.7 380.37,-171.7 376.87,-181.7 383.87,-181.7"/>
</g>
<!-- :data:spotify&#45;&gt;:core:logging:api -->
<g id="edge33" class="edge">
<title>:data:spotify&#45;&gt;:core:logging:api</title>
<path fill="none" stroke="black" stroke-dasharray="1,5" d="M449.26,-279.49C449.26,-244.98 449.26,-151 449.26,-151 449.26,-151 640.7,-151 640.7,-151"/>
<polygon fill="black" stroke="black" points="640.7,-154.5 650.7,-151 640.7,-147.5 640.7,-154.5"/>
</g>
<!-- :ui:core&#45;&gt;:shared:domain -->
<g id="edge35" class="edge">
<title>:ui:core&#45;&gt;:shared:domain</title>
<path fill="none" stroke="black" stroke-dasharray="1,5" d="M216.41,-550.88C216.41,-476.73 216.41,-155 216.41,-155 216.41,-155 256.18,-155 256.18,-155"/>
<polygon fill="black" stroke="black" points="256.18,-158.5 266.18,-155 256.18,-151.5 256.18,-158.5"/>
</g>
<!-- :shared:strings -->
<g id="node14" class="node">
<title>:shared:strings</title>
<ellipse fill="#b59aff" stroke="black" cx="116.04" cy="-429" rx="81.49" ry="18"/>
<text text-anchor="middle" x="116.04" y="-425.3" font-family="Times,serif" font-size="14.00">:shared:strings</text>
</g>
<!-- :ui:core&#45;&gt;:shared:strings -->
<g id="edge34" class="edge">
<title>:ui:core&#45;&gt;:shared:strings</title>
<path fill="none" stroke="black" d="M170.92,-549.47C170.92,-549.47 170.92,-452.31 170.92,-452.31"/>
<polygon fill="black" stroke="black" points="174.42,-452.31 170.92,-442.31 167.42,-452.31 174.42,-452.31"/>
</g>
<!-- :core:logging:api&#45;&gt;:core:coroutines -->
<g id="edge36" class="edge">
<title>:core:logging:api&#45;&gt;:core:coroutines</title>
<path fill="none" stroke="black" d="M796.67,-141.61C796.67,-141.61 796.67,-41.64 796.67,-41.64"/>
<polygon fill="black" stroke="black" points="800.17,-41.64 796.67,-31.64 793.17,-41.64 800.17,-41.64"/>
</g>
</g>
</svg>
