<?xml version="1.0" encoding="UTF-8" standalone="no"?>
<!DOCTYPE svg PUBLIC "-//W3C//DTD SVG 1.1//EN"
 "http://www.w3.org/Graphics/SVG/1.1/DTD/svg11.dtd">
<!-- Generated by graphviz version 2.43.0 (0)
 -->
<!-- Title: %3 Pages: 1 -->
<svg width="1011pt" height="666pt"
 viewBox="0.00 0.00 1010.64 666.00" xmlns="http://www.w3.org/2000/svg" xmlns:xlink="http://www.w3.org/1999/xlink">
<g id="graph0" class="graph" transform="scale(1 1) rotate(0) translate(4 662)">
<title>%3</title>
<polygon fill="white" stroke="transparent" points="-4,4 -4,-662 1006.64,-662 1006.64,4 -4,4"/>
<text text-anchor="middle" x="501.32" y="-630" font-family="Times,serif" font-size="30.00">Dependencies</text>
<text text-anchor="middle" x="501.32" y="-597" font-family="Times,serif" font-size="30.00"> </text>
<!-- :shared:feature:images -->
<g id="node1" class="node">
<title>:shared:feature:images</title>
<polygon fill="#b59aff" stroke="black" points="424.04,-584 242.04,-584 242.04,-548 424.04,-548 424.04,-584"/>
<text text-anchor="middle" x="333.04" y="-562.3" font-family="Times,serif" font-size="14.00">:shared:feature:images</text>
</g>
<!-- :test:image -->
<g id="node2" class="node">
<title>:test:image</title>
<ellipse fill="#9affb5" stroke="black" cx="63.04" cy="-155" rx="63.09" ry="18"/>
<text text-anchor="middle" x="63.04" y="-151.3" font-family="Times,serif" font-size="14.00">:test:image</text>
</g>
<!-- :shared:feature:images&#45;&gt;:test:image -->
<g id="edge1" class="edge">
<title>:shared:feature:images&#45;&gt;:test:image</title>
<path fill="none" stroke="black" stroke-dasharray="1,5" d="M241.79,-566C147.69,-566 14.6,-566 14.6,-566 14.6,-566 14.6,-176.86 14.6,-176.86"/>
<polygon fill="black" stroke="black" points="18.1,-176.86 14.6,-166.86 11.1,-176.86 18.1,-176.86"/>
</g>
<!-- :ui:test:screenshot -->
<g id="node3" class="node">
<title>:ui:test:screenshot</title>
<ellipse fill="#9affb5" stroke="black" cx="126.04" cy="-292" rx="96.68" ry="18"/>
<text text-anchor="middle" x="126.04" y="-288.3" font-family="Times,serif" font-size="14.00">:ui:test:screenshot</text>
</g>
<!-- :shared:feature:images&#45;&gt;:ui:test:screenshot -->
<g id="edge2" class="edge">
<title>:shared:feature:images&#45;&gt;:ui:test:screenshot</title>
<path fill="none" stroke="#ff9ab1" stroke-dasharray="1,5" d="M254.4,-547.6C254.4,-486.16 254.4,-292 254.4,-292 254.4,-292 233,-292 233,-292"/>
<polygon fill="#ff9ab1" stroke="#ff9ab1" points="233,-288.5 223,-292 233,-295.5 233,-288.5"/>
</g>
<!-- :shared:domain -->
<g id="node4" class="node">
<title>:shared:domain</title>
<ellipse fill="#b59aff" stroke="black" cx="702.04" cy="-155" rx="82.59" ry="18"/>
<text text-anchor="middle" x="702.04" y="-151.3" font-family="Times,serif" font-size="14.00">:shared:domain</text>
</g>
<!-- :shared:feature:images&#45;&gt;:shared:domain -->
<g id="edge3" class="edge">
<title>:shared:feature:images&#45;&gt;:shared:domain</title>
<path fill="none" stroke="black" stroke-dasharray="1,5" d="M424.28,-566C514.73,-566 639.9,-566 639.9,-566 639.9,-566 639.9,-176.86 639.9,-176.86"/>
<polygon fill="black" stroke="black" points="643.4,-176.86 639.9,-166.86 636.4,-176.86 643.4,-176.86"/>
</g>
<!-- :ui:image -->
<g id="node5" class="node">
<title>:ui:image</title>
<ellipse fill="#b59aff" stroke="black" cx="333.04" cy="-292" rx="53.89" ry="18"/>
<text text-anchor="middle" x="333.04" y="-288.3" font-family="Times,serif" font-size="14.00">:ui:image</text>
</g>
<!-- :shared:feature:images&#45;&gt;:ui:image -->
<g id="edge4" class="edge">
<title>:shared:feature:images&#45;&gt;:ui:image</title>
<path fill="none" stroke="black" stroke-dasharray="1,5" d="M315.06,-547.6C315.06,-547.6 315.06,-319.26 315.06,-319.26"/>
<polygon fill="black" stroke="black" points="318.56,-319.26 315.06,-309.26 311.56,-319.26 318.56,-319.26"/>
</g>
<!-- :ui:common -->
<g id="node6" class="node">
<title>:ui:common</title>
<ellipse fill="#b59aff" stroke="black" cx="497.04" cy="-429" rx="64.19" ry="18"/>
<text text-anchor="middle" x="497.04" y="-425.3" font-family="Times,serif" font-size="14.00">:ui:common</text>
</g>
<!-- :shared:feature:images&#45;&gt;:ui:common -->
<g id="edge5" class="edge">
<title>:shared:feature:images&#45;&gt;:ui:common</title>
<path fill="none" stroke="black" stroke-dasharray="1,5" d="M414.72,-547.8C414.72,-512.69 414.72,-439 414.72,-439 414.72,-439 433.52,-439 433.52,-439"/>
<polygon fill="black" stroke="black" points="433.52,-442.5 443.52,-439 433.52,-435.5 433.52,-442.5"/>
</g>
<!-- :ui:test:screenshot&#45;&gt;:test:image -->
<g id="edge7" class="edge">
<title>:ui:test:screenshot&#45;&gt;:test:image</title>
<path fill="none" stroke="black" stroke-dasharray="1,5" d="M77.65,-276.28C77.65,-276.28 77.65,-182.69 77.65,-182.69"/>
<polygon fill="black" stroke="black" points="81.15,-182.69 77.65,-172.69 74.15,-182.69 81.15,-182.69"/>
</g>
<!-- :ui:core -->
<g id="node7" class="node">
<title>:ui:core</title>
<ellipse fill="#b59aff" stroke="black" cx="251.04" cy="-155" rx="45.49" ry="18"/>
<text text-anchor="middle" x="251.04" y="-151.3" font-family="Times,serif" font-size="14.00">:ui:core</text>
</g>
<!-- :ui:test:screenshot&#45;&gt;:ui:core -->
<g id="edge6" class="edge">
<title>:ui:test:screenshot&#45;&gt;:ui:core</title>
<path fill="none" stroke="black" stroke-dasharray="1,5" d="M214.22,-284.24C214.22,-284.24 214.22,-175.58 214.22,-175.58"/>
<polygon fill="black" stroke="black" points="217.72,-175.58 214.22,-165.58 210.72,-175.58 217.72,-175.58"/>
</g>
<!-- :ui:image&#45;&gt;:shared:domain -->
<g id="edge8" class="edge">
<title>:ui:image&#45;&gt;:shared:domain</title>
<path fill="none" stroke="black" stroke-dasharray="1,5" d="M359.64,-276C359.64,-255.61 359.64,-223 359.64,-223 359.64,-223 624.6,-223 624.6,-223 624.6,-223 624.6,-171.28 624.6,-171.28"/>
<polygon fill="black" stroke="black" points="628.1,-171.28 624.6,-161.28 621.1,-171.28 628.1,-171.28"/>
</g>
<!-- :ui:image&#45;&gt;:ui:core -->
<g id="edge9" class="edge">
<title>:ui:image&#45;&gt;:ui:core</title>
<path fill="none" stroke="black" stroke-dasharray="1,5" d="M287.82,-282.15C287.82,-282.15 287.82,-175.89 287.82,-175.89"/>
<polygon fill="black" stroke="black" points="291.32,-175.89 287.82,-165.89 284.32,-175.89 291.32,-175.89"/>
</g>
<!-- :ui:common&#45;&gt;:ui:test:screenshot -->
<g id="edge10" class="edge">
<title>:ui:common&#45;&gt;:ui:test:screenshot</title>
<path fill="none" stroke="#ff9ab1" stroke-dasharray="1,5" d="M433.27,-432C327.19,-432 126.04,-432 126.04,-432 126.04,-432 126.04,-320.02 126.04,-320.02"/>
<polygon fill="#ff9ab1" stroke="#ff9ab1" points="129.54,-320.02 126.04,-310.02 122.54,-320.02 129.54,-320.02"/>
</g>
<!-- :ui:common&#45;&gt;:shared:domain -->
<g id="edge11" class="edge">
<title>:ui:common&#45;&gt;:shared:domain</title>
<path fill="none" stroke="black" d="M548.34,-418C587.51,-418 634.8,-418 634.8,-418 634.8,-418 634.8,-175.64 634.8,-175.64"/>
<polygon fill="black" stroke="black" points="638.3,-175.64 634.8,-165.64 631.3,-175.64 638.3,-175.64"/>
</g>
<!-- :ui:common&#45;&gt;:ui:image -->
<g id="edge17" class="edge">
<title>:ui:common&#45;&gt;:ui:image</title>
<path fill="none" stroke="black" stroke-dasharray="1,5" d="M445.97,-418C403.87,-418 351.03,-418 351.03,-418 351.03,-418 351.03,-318.99 351.03,-318.99"/>
<polygon fill="black" stroke="black" points="354.53,-318.99 351.03,-308.99 347.53,-318.99 354.53,-318.99"/>
</g>
<!-- :ui:common&#45;&gt;:ui:core -->
<g id="edge12" class="edge">
<title>:ui:common&#45;&gt;:ui:core</title>
<path fill="none" stroke="black" d="M434.11,-425C365.93,-425 266.75,-425 266.75,-425 266.75,-425 266.75,-182.3 266.75,-182.3"/>
<polygon fill="black" stroke="black" points="270.25,-182.3 266.75,-172.3 263.25,-182.3 270.25,-182.3"/>
</g>
<!-- :data:coverart -->
<g id="node8" class="node">
<title>:data:coverart</title>
<ellipse fill="#b59aff" stroke="black" cx="721.04" cy="-292" rx="76.09" ry="18"/>
<text text-anchor="middle" x="721.04" y="-288.3" font-family="Times,serif" font-size="14.00">:data:coverart</text>
</g>
<!-- :ui:common&#45;&gt;:data:coverart -->
<g id="edge13" class="edge">
<title>:ui:common&#45;&gt;:data:coverart</title>
<path fill="none" stroke="black" stroke-dasharray="1,5" d="M560.04,-425C626.29,-425 721.04,-425 721.04,-425 721.04,-425 721.04,-320.21 721.04,-320.21"/>
<polygon fill="black" stroke="black" points="724.54,-320.21 721.04,-310.21 717.54,-320.21 724.54,-320.21"/>
</g>
<!-- :data:musicbrainz -->
<g id="node9" class="node">
<title>:data:musicbrainz</title>
<ellipse fill="#b59aff" stroke="black" cx="909.04" cy="-292" rx="93.68" ry="18"/>
<text text-anchor="middle" x="909.04" y="-288.3" font-family="Times,serif" font-size="14.00">:data:musicbrainz</text>
</g>
<!-- :ui:common&#45;&gt;:data:musicbrainz -->
<g id="edge14" class="edge">
<title>:ui:common&#45;&gt;:data:musicbrainz</title>
<path fill="none" stroke="black" stroke-dasharray="1,5" d="M550.91,-439C662.58,-439 909.04,-439 909.04,-439 909.04,-439 909.04,-320.03 909.04,-320.03"/>
<polygon fill="black" stroke="black" points="912.54,-320.03 909.04,-310.03 905.54,-320.03 912.54,-320.03"/>
</g>
<!-- :core:preferences -->
<g id="node10" class="node">
<title>:core:preferences</title>
<ellipse fill="#b59aff" stroke="black" cx="497.04" cy="-292" rx="91.78" ry="18"/>
<text text-anchor="middle" x="497.04" y="-288.3" font-family="Times,serif" font-size="14.00">:core:preferences</text>
</g>
<!-- :ui:common&#45;&gt;:core:preferences -->
<g id="edge15" class="edge">
<title>:ui:common&#45;&gt;:core:preferences</title>
<path fill="none" stroke="black" stroke-dasharray="1,5" d="M497.04,-410.81C497.04,-410.81 497.04,-320.27 497.04,-320.27"/>
<polygon fill="black" stroke="black" points="500.54,-320.27 497.04,-310.27 493.54,-320.27 500.54,-320.27"/>
</g>
<!-- :core:logging:api -->
<g id="node11" class="node">
<title>:core:logging:api</title>
<ellipse fill="#b59aff" stroke="black" cx="909.04" cy="-155" rx="88.28" ry="18"/>
<text text-anchor="middle" x="909.04" y="-151.3" font-family="Times,serif" font-size="14.00">:core:logging:api</text>
</g>
<!-- :ui:common&#45;&gt;:core:logging:api -->
<g id="edge16" class="edge">
<title>:ui:common&#45;&gt;:core:logging:api</title>
<path fill="none" stroke="black" stroke-dasharray="1,5" d="M560.85,-432C650.58,-432 803.21,-432 803.21,-432 803.21,-432 803.21,-164 803.21,-164 803.21,-164 822.41,-164 822.41,-164"/>
<polygon fill="black" stroke="black" points="822.41,-167.5 832.41,-164 822.41,-160.5 822.41,-167.5"/>
</g>
<!-- :shared:strings -->
<g id="node12" class="node">
<title>:shared:strings</title>
<ellipse fill="#b59aff" stroke="black" cx="251.04" cy="-18" rx="81.49" ry="18"/>
<text text-anchor="middle" x="251.04" y="-14.3" font-family="Times,serif" font-size="14.00">:shared:strings</text>
</g>
<!-- :ui:core&#45;&gt;:shared:strings -->
<g id="edge18" class="edge">
<title>:ui:core&#45;&gt;:shared:strings</title>
<path fill="none" stroke="black" d="M251.04,-136.81C251.04,-136.81 251.04,-46.27 251.04,-46.27"/>
<polygon fill="black" stroke="black" points="254.54,-46.27 251.04,-36.27 247.54,-46.27 254.54,-46.27"/>
</g>
<!-- :data:coverart&#45;&gt;:shared:domain -->
<g id="edge19" class="edge">
<title>:data:coverart&#45;&gt;:shared:domain</title>
<path fill="none" stroke="black" stroke-dasharray="1,5" d="M714.79,-273.81C714.79,-273.81 714.79,-182.83 714.79,-182.83"/>
<polygon fill="black" stroke="black" points="718.29,-182.83 714.79,-172.83 711.29,-182.83 718.29,-182.83"/>
</g>
<!-- :data:coverart&#45;&gt;:core:logging:api -->
<g id="edge20" class="edge">
<title>:data:coverart&#45;&gt;:core:logging:api</title>
<path fill="none" stroke="black" stroke-dasharray="1,5" d="M790.84,-284.56C790.84,-254.81 790.84,-146 790.84,-146 790.84,-146 822.18,-146 822.18,-146"/>
<polygon fill="black" stroke="black" points="822.18,-149.5 832.18,-146 822.18,-142.5 822.18,-149.5"/>
</g>
<!-- :data:musicbrainz&#45;&gt;:shared:domain -->
<g id="edge21" class="edge">
<title>:data:musicbrainz&#45;&gt;:shared:domain</title>
<path fill="none" stroke="black" stroke-dasharray="1,5" d="M815.27,-292C811.53,-292 809.33,-292 809.33,-292 809.33,-292 809.33,-155 809.33,-155 809.33,-155 794.72,-155 794.72,-155"/>
<polygon fill="black" stroke="black" points="794.72,-151.5 784.72,-155 794.72,-158.5 794.72,-151.5"/>
</g>
<!-- :data:musicbrainz&#45;&gt;:core:logging:api -->
<g id="edge22" class="edge">
<title>:data:musicbrainz&#45;&gt;:core:logging:api</title>
<path fill="none" stroke="black" stroke-dasharray="1,5" d="M909.04,-273.81C909.04,-273.81 909.04,-183.27 909.04,-183.27"/>
<polygon fill="black" stroke="black" points="912.54,-183.27 909.04,-173.27 905.54,-183.27 912.54,-183.27"/>
</g>
<!-- :core:preferences&#45;&gt;:shared:domain -->
<g id="edge23" class="edge">
<title>:core:preferences&#45;&gt;:shared:domain</title>
<path fill="none" stroke="black" stroke-dasharray="1,5" d="M588.82,-292C611.63,-292 629.7,-292 629.7,-292 629.7,-292 629.7,-173.99 629.7,-173.99"/>
<polygon fill="black" stroke="black" points="633.2,-173.99 629.7,-163.99 626.2,-173.99 633.2,-173.99"/>
</g>
<!-- :core:coroutines -->
<g id="node13" class="node">
<title>:core:coroutines</title>
<ellipse fill="#b59aff" stroke="black" cx="497.04" cy="-155" rx="85.29" ry="18"/>
<text text-anchor="middle" x="497.04" y="-151.3" font-family="Times,serif" font-size="14.00">:core:coroutines</text>
</g>
<!-- :core:preferences&#45;&gt;:core:coroutines -->
<g id="edge24" class="edge">
<title>:core:preferences&#45;&gt;:core:coroutines</title>
<path fill="none" stroke="black" stroke-dasharray="1,5" d="M497.04,-273.81C497.04,-273.81 497.04,-183.27 497.04,-183.27"/>
<polygon fill="black" stroke="black" points="500.54,-183.27 497.04,-173.27 493.54,-183.27 500.54,-183.27"/>
</g>
</g>
</svg>
