<?xml version="1.0" encoding="UTF-8" standalone="no"?>
<!DOCTYPE svg PUBLIC "-//W3C//DTD SVG 1.1//EN"
 "http://www.w3.org/Graphics/SVG/1.1/DTD/svg11.dtd">
<!-- Generated by graphviz version 2.43.0 (0)
 -->
<!-- Title: %3 Pages: 1 -->
<svg width="855pt" height="803pt"
 viewBox="0.00 0.00 855.38 803.00" xmlns="http://www.w3.org/2000/svg" xmlns:xlink="http://www.w3.org/1999/xlink">
<g id="graph0" class="graph" transform="scale(1 1) rotate(0) translate(4 799)">
<title>%3</title>
<polygon fill="white" stroke="transparent" points="-4,4 -4,-799 851.38,-799 851.38,4 -4,4"/>
<text text-anchor="middle" x="423.69" y="-767" font-family="Times,serif" font-size="30.00">Dependencies</text>
<text text-anchor="middle" x="423.69" y="-734" font-family="Times,serif" font-size="30.00"> </text>
<!-- :shared:feature:images -->
<g id="node1" class="node">
<title>:shared:feature:images</title>
<polygon fill="#b59aff" stroke="black" points="678.54,-721 496.54,-721 496.54,-685 678.54,-685 678.54,-721"/>
<text text-anchor="middle" x="587.54" y="-699.3" font-family="Times,serif" font-size="14.00">:shared:feature:images</text>
</g>
<!-- :test&#45;data -->
<g id="node2" class="node">
<title>:test&#45;data</title>
<ellipse fill="#b59aff" stroke="black" cx="426.54" cy="-429" rx="55.49" ry="18"/>
<text text-anchor="middle" x="426.54" y="-425.3" font-family="Times,serif" font-size="14.00">:test&#45;data</text>
</g>
<!-- :shared:feature:images&#45;&gt;:test&#45;data -->
<g id="edge1" class="edge">
<title>:shared:feature:images&#45;&gt;:test&#45;data</title>
<path fill="none" stroke="#ff9ab1" stroke-dasharray="1,5" d="M505.43,-684.85C505.43,-625.21 505.43,-439 505.43,-439 505.43,-439 482.89,-439 482.89,-439"/>
<polygon fill="#ff9ab1" stroke="#ff9ab1" points="482.89,-435.5 472.89,-439 482.89,-442.5 482.89,-435.5"/>
</g>
<!-- :ui:test:screenshot -->
<g id="node3" class="node">
<title>:ui:test:screenshot</title>
<ellipse fill="#b59aff" stroke="black" cx="750.54" cy="-429" rx="96.68" ry="18"/>
<text text-anchor="middle" x="750.54" y="-425.3" font-family="Times,serif" font-size="14.00">:ui:test:screenshot</text>
</g>
<!-- :shared:feature:images&#45;&gt;:ui:test:screenshot -->
<g id="edge2" class="edge">
<title>:shared:feature:images&#45;&gt;:ui:test:screenshot</title>
<path fill="none" stroke="#ff9ab1" stroke-dasharray="1,5" d="M670.26,-684.6C670.26,-684.6 670.26,-449.33 670.26,-449.33"/>
<polygon fill="#ff9ab1" stroke="#ff9ab1" points="673.76,-449.33 670.26,-439.33 666.76,-449.33 673.76,-449.33"/>
</g>
<!-- :test:image -->
<g id="node4" class="node">
<title>:test:image</title>
<ellipse fill="#b59aff" stroke="black" cx="750.54" cy="-292" rx="63.09" ry="18"/>
<text text-anchor="middle" x="750.54" y="-288.3" font-family="Times,serif" font-size="14.00">:test:image</text>
</g>
<!-- :shared:feature:images&#45;&gt;:test:image -->
<g id="edge3" class="edge">
<title>:shared:feature:images&#45;&gt;:test:image</title>
<path fill="none" stroke="black" stroke-dasharray="1,5" d="M514.31,-684.81C514.31,-605.27 514.31,-292 514.31,-292 514.31,-292 677.24,-292 677.24,-292"/>
<polygon fill="black" stroke="black" points="677.24,-295.5 687.24,-292 677.24,-288.5 677.24,-295.5"/>
</g>
<!-- :shared:domain -->
<g id="node5" class="node">
<title>:shared:domain</title>
<ellipse fill="#b59aff" stroke="black" cx="82.54" cy="-18" rx="82.59" ry="18"/>
<text text-anchor="middle" x="82.54" y="-14.3" font-family="Times,serif" font-size="14.00">:shared:domain</text>
</g>
<!-- :shared:feature:images&#45;&gt;:shared:domain -->
<g id="edge4" class="edge">
<title>:shared:feature:images&#45;&gt;:shared:domain</title>
<path fill="none" stroke="black" stroke-dasharray="1,5" d="M496.4,-703C336.49,-703 22.19,-703 22.19,-703 22.19,-703 22.19,-40.47 22.19,-40.47"/>
<polygon fill="black" stroke="black" points="25.69,-40.47 22.19,-30.47 18.69,-40.47 25.69,-40.47"/>
</g>
<!-- :ui:common -->
<g id="node6" class="node">
<title>:ui:common</title>
<ellipse fill="#b59aff" stroke="black" cx="587.54" cy="-566" rx="64.19" ry="18"/>
<text text-anchor="middle" x="587.54" y="-562.3" font-family="Times,serif" font-size="14.00">:ui:common</text>
</g>
<!-- :shared:feature:images&#45;&gt;:ui:common -->
<g id="edge5" class="edge">
<title>:shared:feature:images&#45;&gt;:ui:common</title>
<path fill="none" stroke="black" stroke-dasharray="1,5" d="M587.54,-684.81C587.54,-684.81 587.54,-594.27 587.54,-594.27"/>
<polygon fill="black" stroke="black" points="591.04,-594.27 587.54,-584.27 584.04,-594.27 591.04,-594.27"/>
</g>
<!-- :test&#45;data&#45;&gt;:shared:domain -->
<g id="edge6" class="edge">
<title>:test&#45;data&#45;&gt;:shared:domain</title>
<path fill="none" stroke="black" stroke-dasharray="1,5" d="M374.2,-435C274.36,-435 66.57,-435 66.57,-435 66.57,-435 66.57,-45.92 66.57,-45.92"/>
<polygon fill="black" stroke="black" points="70.07,-45.92 66.57,-35.92 63.07,-45.92 70.07,-45.92"/>
</g>
<!-- :data:database -->
<g id="node7" class="node">
<title>:data:database</title>
<ellipse fill="#b59aff" stroke="black" cx="204.54" cy="-292" rx="79.09" ry="18"/>
<text text-anchor="middle" x="204.54" y="-288.3" font-family="Times,serif" font-size="14.00">:data:database</text>
</g>
<!-- :test&#45;data&#45;&gt;:data:database -->
<g id="edge7" class="edge">
<title>:test&#45;data&#45;&gt;:data:database</title>
<path fill="none" stroke="black" stroke-dasharray="1,5" d="M403.73,-412.54C403.73,-374.35 403.73,-283 403.73,-283 403.73,-283 283.37,-283 283.37,-283"/>
<polygon fill="black" stroke="black" points="283.37,-279.5 273.37,-283 283.37,-286.5 283.37,-279.5"/>
</g>
<!-- :data:musicbrainz -->
<g id="node8" class="node">
<title>:data:musicbrainz</title>
<ellipse fill="#b59aff" stroke="black" cx="204.54" cy="-155" rx="93.68" ry="18"/>
<text text-anchor="middle" x="204.54" y="-151.3" font-family="Times,serif" font-size="14.00">:data:musicbrainz</text>
</g>
<!-- :test&#45;data&#45;&gt;:data:musicbrainz -->
<g id="edge8" class="edge">
<title>:test&#45;data&#45;&gt;:data:musicbrainz</title>
<path fill="none" stroke="black" stroke-dasharray="1,5" d="M374.13,-423C335.99,-423 290.99,-423 290.99,-423 290.99,-423 290.99,-172.17 290.99,-172.17"/>
<polygon fill="black" stroke="black" points="294.49,-172.17 290.99,-162.17 287.49,-172.17 294.49,-172.17"/>
</g>
<!-- :data:coverart -->
<g id="node9" class="node">
<title>:data:coverart</title>
<ellipse fill="#b59aff" stroke="black" cx="392.54" cy="-155" rx="76.09" ry="18"/>
<text text-anchor="middle" x="392.54" y="-151.3" font-family="Times,serif" font-size="14.00">:data:coverart</text>
</g>
<!-- :test&#45;data&#45;&gt;:data:coverart -->
<g id="edge9" class="edge">
<title>:test&#45;data&#45;&gt;:data:coverart</title>
<path fill="none" stroke="black" stroke-dasharray="1,5" d="M436.16,-411.02C436.16,-411.02 436.16,-179.95 436.16,-179.95"/>
<polygon fill="black" stroke="black" points="439.66,-179.95 436.16,-169.95 432.66,-179.95 439.66,-179.95"/>
</g>
<!-- :data:spotify -->
<g id="node10" class="node">
<title>:data:spotify</title>
<ellipse fill="#b59aff" stroke="black" cx="555.54" cy="-155" rx="68.79" ry="18"/>
<text text-anchor="middle" x="555.54" y="-151.3" font-family="Times,serif" font-size="14.00">:data:spotify</text>
</g>
<!-- :test&#45;data&#45;&gt;:data:spotify -->
<g id="edge10" class="edge">
<title>:test&#45;data&#45;&gt;:data:spotify</title>
<path fill="none" stroke="black" stroke-dasharray="1,5" d="M480.7,-425C488.11,-425 493.24,-425 493.24,-425 493.24,-425 493.24,-172.79 493.24,-172.79"/>
<polygon fill="black" stroke="black" points="496.74,-172.79 493.24,-162.79 489.74,-172.79 496.74,-172.79"/>
</g>
<!-- :ui:test:screenshot&#45;&gt;:test:image -->
<g id="edge11" class="edge">
<title>:ui:test:screenshot&#45;&gt;:test:image</title>
<path fill="none" stroke="black" stroke-dasharray="1,5" d="M750.54,-410.81C750.54,-410.81 750.54,-320.27 750.54,-320.27"/>
<polygon fill="black" stroke="black" points="754.04,-320.27 750.54,-310.27 747.04,-320.27 754.04,-320.27"/>
</g>
<!-- :ui:common&#45;&gt;:test&#45;data -->
<g id="edge12" class="edge">
<title>:ui:common&#45;&gt;:test&#45;data</title>
<path fill="none" stroke="#ff9ab1" stroke-dasharray="1,5" d="M573.82,-548.21C573.82,-511.76 573.82,-432 573.82,-432 573.82,-432 491.38,-432 491.38,-432"/>
<polygon fill="#ff9ab1" stroke="#ff9ab1" points="491.38,-428.5 481.38,-432 491.38,-435.5 491.38,-428.5"/>
</g>
<!-- :ui:common&#45;&gt;:ui:test:screenshot -->
<g id="edge13" class="edge">
<title>:ui:common&#45;&gt;:ui:test:screenshot</title>
<path fill="none" stroke="#ff9ab1" stroke-dasharray="1,5" d="M651.94,-566C658.03,-566 661.98,-566 661.98,-566 661.98,-566 661.98,-446.37 661.98,-446.37"/>
<polygon fill="#ff9ab1" stroke="#ff9ab1" points="665.48,-446.37 661.98,-436.37 658.48,-446.37 665.48,-446.37"/>
</g>
<!-- :ui:common&#45;&gt;:test:image -->
<g id="edge14" class="edge">
<title>:ui:common&#45;&gt;:test:image</title>
<path fill="none" stroke="black" stroke-dasharray="1,5" d="M642.74,-556.57C642.74,-509.36 642.74,-301 642.74,-301 642.74,-301 685.69,-301 685.69,-301"/>
<polygon fill="black" stroke="black" points="685.69,-304.5 695.69,-301 685.69,-297.5 685.69,-304.5"/>
</g>
<!-- :ui:common&#45;&gt;:shared:domain -->
<g id="edge15" class="edge">
<title>:ui:common&#45;&gt;:shared:domain</title>
<path fill="none" stroke="black" d="M523.1,-566C379.22,-566 44.38,-566 44.38,-566 44.38,-566 44.38,-44.1 44.38,-44.1"/>
<polygon fill="black" stroke="black" points="47.88,-44.1 44.38,-34.1 40.88,-44.1 47.88,-44.1"/>
</g>
<!-- :core:logging:api -->
<g id="node11" class="node">
<title>:core:logging:api</title>
<ellipse fill="#b59aff" stroke="black" cx="473.54" cy="-18" rx="88.28" ry="18"/>
<text text-anchor="middle" x="473.54" y="-14.3" font-family="Times,serif" font-size="14.00">:core:logging:api</text>
</g>
<!-- :ui:common&#45;&gt;:core:logging:api -->
<g id="edge16" class="edge">
<title>:ui:common&#45;&gt;:core:logging:api</title>
<path fill="none" stroke="black" stroke-dasharray="1,5" d="M633.59,-553.26C633.59,-470.98 633.59,-18 633.59,-18 633.59,-18 571.99,-18 571.99,-18"/>
<polygon fill="black" stroke="black" points="571.99,-14.5 561.99,-18 571.99,-21.5 571.99,-14.5"/>
</g>
<!-- :data:database&#45;&gt;:shared:domain -->
<g id="edge17" class="edge">
<title>:data:database&#45;&gt;:shared:domain</title>
<path fill="none" stroke="black" stroke-dasharray="1,5" d="M125.08,-292C104.87,-292 88.76,-292 88.76,-292 88.76,-292 88.76,-45.98 88.76,-45.98"/>
<polygon fill="black" stroke="black" points="92.26,-45.98 88.76,-35.98 85.26,-45.98 92.26,-45.98"/>
</g>
<!-- :data:database&#45;&gt;:data:musicbrainz -->
<g id="edge18" class="edge">
<title>:data:database&#45;&gt;:data:musicbrainz</title>
<path fill="none" stroke="black" stroke-dasharray="1,5" d="M204.54,-273.81C204.54,-273.81 204.54,-183.27 204.54,-183.27"/>
<polygon fill="black" stroke="black" points="208.04,-183.27 204.54,-173.27 201.04,-183.27 208.04,-183.27"/>
</g>
<!-- :data:musicbrainz&#45;&gt;:shared:domain -->
<g id="edge19" class="edge">
<title>:data:musicbrainz&#45;&gt;:shared:domain</title>
<path fill="none" stroke="black" stroke-dasharray="1,5" d="M129,-144.25C129,-144.25 129,-43.18 129,-43.18"/>
<polygon fill="black" stroke="black" points="132.5,-43.18 129,-33.18 125.5,-43.18 132.5,-43.18"/>
</g>
<!-- :data:musicbrainz&#45;&gt;:core:logging:api -->
<g id="edge20" class="edge">
<title>:data:musicbrainz&#45;&gt;:core:logging:api</title>
<path fill="none" stroke="black" stroke-dasharray="1,5" d="M231.61,-137.75C231.61,-99.72 231.61,-12 231.61,-12 231.61,-12 379.94,-12 379.94,-12"/>
<polygon fill="black" stroke="black" points="379.94,-15.5 389.94,-12 379.94,-8.5 379.94,-15.5"/>
</g>
<!-- :data:coverart&#45;&gt;:shared:domain -->
<g id="edge21" class="edge">
<title>:data:coverart&#45;&gt;:shared:domain</title>
<path fill="none" stroke="black" stroke-dasharray="1,5" d="M350.82,-139.72C350.82,-105.16 350.82,-24 350.82,-24 350.82,-24 170.5,-24 170.5,-24"/>
<polygon fill="black" stroke="black" points="170.5,-20.5 160.5,-24 170.5,-27.5 170.5,-20.5"/>
</g>
<!-- :data:coverart&#45;&gt;:core:logging:api -->
<g id="edge22" class="edge">
<title>:data:coverart&#45;&gt;:core:logging:api</title>
<path fill="none" stroke="black" stroke-dasharray="1,5" d="M426.87,-138.75C426.87,-138.75 426.87,-43.39 426.87,-43.39"/>
<polygon fill="black" stroke="black" points="430.37,-43.39 426.87,-33.39 423.37,-43.39 430.37,-43.39"/>
</g>
<!-- :data:spotify&#45;&gt;:test&#45;data -->
<g id="edge25" class="edge">
<title>:data:spotify&#45;&gt;:test&#45;data</title>
<path fill="none" stroke="#ff9ab1" stroke-dasharray="1,5" d="M489.95,-160.99C489.95,-200.13 489.95,-418 489.95,-418 489.95,-418 480.58,-418 480.58,-418"/>
<polygon fill="#ff9ab1" stroke="#ff9ab1" points="480.58,-414.5 470.58,-418 480.58,-421.5 480.58,-414.5"/>
</g>
<!-- :data:spotify&#45;&gt;:shared:domain -->
<g id="edge23" class="edge">
<title>:data:spotify&#45;&gt;:shared:domain</title>
<path fill="none" stroke="black" stroke-dasharray="1,5" d="M511.74,-141.04C511.74,-120.87 511.74,-86 511.74,-86 511.74,-86 147.04,-86 147.04,-86 147.04,-86 147.04,-39.54 147.04,-39.54"/>
<polygon fill="black" stroke="black" points="150.54,-39.54 147.04,-29.54 143.54,-39.54 150.54,-39.54"/>
</g>
<!-- :data:spotify&#45;&gt;:core:logging:api -->
<g id="edge24" class="edge">
<title>:data:spotify&#45;&gt;:core:logging:api</title>
<path fill="none" stroke="black" stroke-dasharray="1,5" d="M536.84,-137.65C536.84,-137.65 536.84,-40.74 536.84,-40.74"/>
<polygon fill="black" stroke="black" points="540.34,-40.74 536.84,-30.74 533.34,-40.74 540.34,-40.74"/>
</g>
</g>
</svg>
