<?xml version="1.0" encoding="UTF-8" standalone="no"?>
<!DOCTYPE svg PUBLIC "-//W3C//DTD SVG 1.1//EN"
 "http://www.w3.org/Graphics/SVG/1.1/DTD/svg11.dtd">
<!-- Generated by graphviz version 2.43.0 (0)
 -->
<!-- Title: %3 Pages: 1 -->
<svg width="902pt" height="1077pt"
 viewBox="0.00 0.00 902.38 1077.00" xmlns="http://www.w3.org/2000/svg" xmlns:xlink="http://www.w3.org/1999/xlink">
<g id="graph0" class="graph" transform="scale(1 1) rotate(0) translate(4 1073)">
<title>%3</title>
<polygon fill="white" stroke="transparent" points="-4,4 -4,-1073 898.38,-1073 898.38,4 -4,4"/>
<text text-anchor="middle" x="447.19" y="-1041" font-family="Times,serif" font-size="30.00">Dependencies</text>
<text text-anchor="middle" x="447.19" y="-1008" font-family="Times,serif" font-size="30.00"> </text>
<!-- :shared:feature:images -->
<g id="node1" class="node">
<title>:shared:feature:images</title>
<polygon fill="#b59aff" stroke="black" points="459.84,-995 277.84,-995 277.84,-959 459.84,-959 459.84,-995"/>
<text text-anchor="middle" x="368.84" y="-973.3" font-family="Times,serif" font-size="14.00">:shared:feature:images</text>
</g>
<!-- :test:image -->
<g id="node2" class="node">
<title>:test:image</title>
<ellipse fill="#9affb5" stroke="black" cx="96.84" cy="-566" rx="63.09" ry="18"/>
<text text-anchor="middle" x="96.84" y="-562.3" font-family="Times,serif" font-size="14.00">:test:image</text>
</g>
<!-- :shared:feature:images&#45;&gt;:test:image -->
<g id="edge1" class="edge">
<title>:shared:feature:images&#45;&gt;:test:image</title>
<path fill="none" stroke="black" stroke-dasharray="1,5" d="M282.72,-958.94C282.72,-879.98 282.72,-569 282.72,-569 282.72,-569 169.25,-569 169.25,-569"/>
<polygon fill="black" stroke="black" points="169.25,-565.5 159.25,-569 169.25,-572.5 169.25,-565.5"/>
</g>
<!-- :test&#45;data -->
<g id="node3" class="node">
<title>:test&#45;data</title>
<ellipse fill="#b59aff" stroke="black" cx="522.84" cy="-703" rx="55.49" ry="18"/>
<text text-anchor="middle" x="522.84" y="-699.3" font-family="Times,serif" font-size="14.00">:test&#45;data</text>
</g>
<!-- :shared:feature:images&#45;&gt;:test&#45;data -->
<g id="edge2" class="edge">
<title>:shared:feature:images&#45;&gt;:test&#45;data</title>
<path fill="none" stroke="#ff9ab1" stroke-dasharray="1,5" d="M454.96,-958.6C454.96,-897.16 454.96,-703 454.96,-703 454.96,-703 457.41,-703 457.41,-703"/>
<polygon fill="#ff9ab1" stroke="#ff9ab1" points="457.41,-706.5 467.41,-703 457.41,-699.5 457.41,-706.5"/>
</g>
<!-- :ui:test:screenshot -->
<g id="node4" class="node">
<title>:ui:test:screenshot</title>
<ellipse fill="#9affb5" stroke="black" cx="96.84" cy="-703" rx="96.68" ry="18"/>
<text text-anchor="middle" x="96.84" y="-699.3" font-family="Times,serif" font-size="14.00">:ui:test:screenshot</text>
</g>
<!-- :shared:feature:images&#45;&gt;:ui:test:screenshot -->
<g id="edge3" class="edge">
<title>:shared:feature:images&#45;&gt;:ui:test:screenshot</title>
<path fill="none" stroke="#ff9ab1" stroke-dasharray="1,5" d="M280.28,-958.6C280.28,-897.16 280.28,-703 280.28,-703 280.28,-703 203.93,-703 203.93,-703"/>
<polygon fill="#ff9ab1" stroke="#ff9ab1" points="203.93,-699.5 193.93,-703 203.93,-706.5 203.93,-699.5"/>
</g>
<!-- :shared:domain -->
<g id="node5" class="node">
<title>:shared:domain</title>
<ellipse fill="#b59aff" stroke="black" cx="811.84" cy="-155" rx="82.59" ry="18"/>
<text text-anchor="middle" x="811.84" y="-151.3" font-family="Times,serif" font-size="14.00">:shared:domain</text>
</g>
<!-- :shared:feature:images&#45;&gt;:shared:domain -->
<g id="edge4" class="edge">
<title>:shared:feature:images&#45;&gt;:shared:domain</title>
<path fill="none" stroke="black" stroke-dasharray="1,5" d="M460.01,-977C605.08,-977 872.25,-977 872.25,-977 872.25,-977 872.25,-177.58 872.25,-177.58"/>
<polygon fill="black" stroke="black" points="875.75,-177.58 872.25,-167.58 868.75,-177.58 875.75,-177.58"/>
</g>
<!-- :ui:common -->
<g id="node6" class="node">
<title>:ui:common</title>
<ellipse fill="#b59aff" stroke="black" cx="368.84" cy="-840" rx="64.19" ry="18"/>
<text text-anchor="middle" x="368.84" y="-836.3" font-family="Times,serif" font-size="14.00">:ui:common</text>
</g>
<!-- :shared:feature:images&#45;&gt;:ui:common -->
<g id="edge5" class="edge">
<title>:shared:feature:images&#45;&gt;:ui:common</title>
<path fill="none" stroke="black" stroke-dasharray="1,5" d="M368.84,-958.81C368.84,-958.81 368.84,-868.27 368.84,-868.27"/>
<polygon fill="black" stroke="black" points="372.34,-868.27 368.84,-858.27 365.34,-868.27 372.34,-868.27"/>
</g>
<!-- :test&#45;data&#45;&gt;:shared:domain -->
<g id="edge6" class="edge">
<title>:test&#45;data&#45;&gt;:shared:domain</title>
<path fill="none" stroke="black" stroke-dasharray="1,5" d="M574.95,-709C662.11,-709 827.99,-709 827.99,-709 827.99,-709 827.99,-182.81 827.99,-182.81"/>
<polygon fill="black" stroke="black" points="831.49,-182.81 827.99,-172.81 824.49,-182.81 831.49,-182.81"/>
</g>
<!-- :core:coroutines -->
<g id="node7" class="node">
<title>:core:coroutines</title>
<ellipse fill="#b59aff" stroke="black" cx="435.84" cy="-18" rx="85.29" ry="18"/>
<text text-anchor="middle" x="435.84" y="-14.3" font-family="Times,serif" font-size="14.00">:core:coroutines</text>
</g>
<!-- :test&#45;data&#45;&gt;:core:coroutines -->
<g id="edge7" class="edge">
<title>:test&#45;data&#45;&gt;:core:coroutines</title>
<path fill="none" stroke="black" stroke-dasharray="1,5" d="M487.67,-689.04C487.67,-668.87 487.67,-634 487.67,-634 487.67,-634 307.55,-634 307.55,-634 307.55,-634 307.55,-18 307.55,-18 307.55,-18 340.63,-18 340.63,-18"/>
<polygon fill="black" stroke="black" points="340.63,-21.5 350.63,-18 340.63,-14.5 340.63,-21.5"/>
</g>
<!-- :data:database -->
<g id="node8" class="node">
<title>:data:database</title>
<ellipse fill="#b59aff" stroke="black" cx="575.84" cy="-429" rx="79.09" ry="18"/>
<text text-anchor="middle" x="575.84" y="-425.3" font-family="Times,serif" font-size="14.00">:data:database</text>
</g>
<!-- :test&#45;data&#45;&gt;:data:database -->
<g id="edge8" class="edge">
<title>:test&#45;data&#45;&gt;:data:database</title>
<path fill="none" stroke="black" stroke-dasharray="1,5" d="M568.02,-692.59C568.02,-692.59 568.02,-457.12 568.02,-457.12"/>
<polygon fill="black" stroke="black" points="571.52,-457.12 568.02,-447.12 564.52,-457.12 571.52,-457.12"/>
</g>
<!-- :data:musicbrainz -->
<g id="node9" class="node">
<title>:data:musicbrainz</title>
<ellipse fill="#b59aff" stroke="black" cx="457.84" cy="-292" rx="93.68" ry="18"/>
<text text-anchor="middle" x="457.84" y="-288.3" font-family="Times,serif" font-size="14.00">:data:musicbrainz</text>
</g>
<!-- :test&#45;data&#45;&gt;:data:musicbrainz -->
<g id="edge9" class="edge">
<title>:test&#45;data&#45;&gt;:data:musicbrainz</title>
<path fill="none" stroke="black" stroke-dasharray="1,5" d="M557.95,-688.84C557.95,-642.3 557.95,-497 557.95,-497 557.95,-497 462.97,-497 462.97,-497 462.97,-497 462.97,-320.19 462.97,-320.19"/>
<polygon fill="black" stroke="black" points="466.47,-320.19 462.97,-310.19 459.47,-320.19 466.47,-320.19"/>
</g>
<!-- :data:coverart -->
<g id="node10" class="node">
<title>:data:coverart</title>
<ellipse fill="#b59aff" stroke="black" cx="471.84" cy="-566" rx="76.09" ry="18"/>
<text text-anchor="middle" x="471.84" y="-562.3" font-family="Times,serif" font-size="14.00">:data:coverart</text>
</g>
<!-- :test&#45;data&#45;&gt;:data:coverart -->
<g id="edge10" class="edge">
<title>:test&#45;data&#45;&gt;:data:coverart</title>
<path fill="none" stroke="black" stroke-dasharray="1,5" d="M507.74,-685.65C507.74,-685.65 507.74,-591.94 507.74,-591.94"/>
<polygon fill="black" stroke="black" points="511.24,-591.94 507.74,-581.94 504.24,-591.94 511.24,-591.94"/>
</g>
<!-- :data:spotify -->
<g id="node11" class="node">
<title>:data:spotify</title>
<ellipse fill="#b59aff" stroke="black" cx="714.84" cy="-292" rx="68.79" ry="18"/>
<text text-anchor="middle" x="714.84" y="-288.3" font-family="Times,serif" font-size="14.00">:data:spotify</text>
</g>
<!-- :test&#45;data&#45;&gt;:data:spotify -->
<g id="edge11" class="edge">
<title>:test&#45;data&#45;&gt;:data:spotify</title>
<path fill="none" stroke="black" stroke-dasharray="1,5" d="M575.01,-697C633.25,-697 719.43,-697 719.43,-697 719.43,-697 719.43,-320.19 719.43,-320.19"/>
<polygon fill="black" stroke="black" points="722.93,-320.19 719.43,-310.19 715.93,-320.19 722.93,-320.19"/>
</g>
<!-- :ui:test:screenshot&#45;&gt;:test:image -->
<g id="edge12" class="edge">
<title>:ui:test:screenshot&#45;&gt;:test:image</title>
<path fill="none" stroke="black" stroke-dasharray="1,5" d="M96.84,-684.81C96.84,-684.81 96.84,-594.27 96.84,-594.27"/>
<polygon fill="black" stroke="black" points="100.34,-594.27 96.84,-584.27 93.34,-594.27 100.34,-594.27"/>
</g>
<!-- :ui:common&#45;&gt;:test:image -->
<g id="edge13" class="edge">
<title>:ui:common&#45;&gt;:test:image</title>
<path fill="none" stroke="black" stroke-dasharray="1,5" d="M317.75,-829C300.33,-829 285.16,-829 285.16,-829 285.16,-829 285.16,-555 285.16,-555 285.16,-555 156.81,-555 156.81,-555"/>
<polygon fill="black" stroke="black" points="156.81,-551.5 146.81,-555 156.81,-558.5 156.81,-551.5"/>
</g>
<!-- :ui:common&#45;&gt;:test&#45;data -->
<g id="edge14" class="edge">
<title>:ui:common&#45;&gt;:test&#45;data</title>
<path fill="none" stroke="#ff9ab1" stroke-dasharray="1,5" d="M429.71,-834C472.75,-834 522.84,-834 522.84,-834 522.84,-834 522.84,-731.21 522.84,-731.21"/>
<polygon fill="#ff9ab1" stroke="#ff9ab1" points="526.34,-731.21 522.84,-721.21 519.34,-731.22 526.34,-731.21"/>
</g>
<!-- :ui:common&#45;&gt;:ui:test:screenshot -->
<g id="edge15" class="edge">
<title>:ui:common&#45;&gt;:ui:test:screenshot</title>
<path fill="none" stroke="#ff9ab1" stroke-dasharray="1,5" d="M315.1,-850C235.83,-850 96.84,-850 96.84,-850 96.84,-850 96.84,-731.03 96.84,-731.03"/>
<polygon fill="#ff9ab1" stroke="#ff9ab1" points="100.34,-731.03 96.84,-721.03 93.34,-731.03 100.34,-731.03"/>
</g>
<!-- :ui:common&#45;&gt;:shared:domain -->
<g id="edge17" class="edge">
<title>:ui:common&#45;&gt;:shared:domain</title>
<path fill="none" stroke="black" d="M429.8,-846C559.3,-846 850.12,-846 850.12,-846 850.12,-846 850.12,-181.06 850.12,-181.06"/>
<polygon fill="black" stroke="black" points="853.62,-181.06 850.12,-171.06 846.62,-181.06 853.62,-181.06"/>
</g>
<!-- :ui:common&#45;&gt;:core:coroutines -->
<g id="edge16" class="edge">
<title>:ui:common&#45;&gt;:core:coroutines</title>
<path fill="none" stroke="#ff9ab1" stroke-dasharray="1,5" d="M305.17,-843C265.42,-843 221.74,-843 221.74,-843 221.74,-843 221.74,-9 221.74,-9 221.74,-9 351.86,-9 351.86,-9"/>
<polygon fill="#ff9ab1" stroke="#ff9ab1" points="351.86,-12.5 361.86,-9 351.86,-5.5 351.86,-12.5"/>
</g>
<!-- :shared:strings -->
<g id="node12" class="node">
<title>:shared:strings</title>
<ellipse fill="#b59aff" stroke="black" cx="368.84" cy="-703" rx="81.49" ry="18"/>
<text text-anchor="middle" x="368.84" y="-699.3" font-family="Times,serif" font-size="14.00">:shared:strings</text>
</g>
<!-- :ui:common&#45;&gt;:shared:strings -->
<g id="edge18" class="edge">
<title>:ui:common&#45;&gt;:shared:strings</title>
<path fill="none" stroke="black" d="M368.84,-821.81C368.84,-821.81 368.84,-731.27 368.84,-731.27"/>
<polygon fill="black" stroke="black" points="372.34,-731.27 368.84,-721.27 365.34,-731.27 372.34,-731.27"/>
</g>
<!-- :core:logging:api -->
<g id="node13" class="node">
<title>:core:logging:api</title>
<ellipse fill="#b59aff" stroke="black" cx="435.84" cy="-155" rx="88.28" ry="18"/>
<text text-anchor="middle" x="435.84" y="-151.3" font-family="Times,serif" font-size="14.00">:core:logging:api</text>
</g>
<!-- :ui:common&#45;&gt;:core:logging:api -->
<g id="edge19" class="edge">
<title>:ui:common&#45;&gt;:core:logging:api</title>
<path fill="none" stroke="black" stroke-dasharray="1,5" d="M305.83,-836C277.27,-836 249.79,-836 249.79,-836 249.79,-836 249.79,-155 249.79,-155 249.79,-155 337.45,-155 337.45,-155"/>
<polygon fill="black" stroke="black" points="337.45,-158.5 347.45,-155 337.45,-151.5 337.45,-158.5"/>
</g>
<!-- :data:database&#45;&gt;:shared:domain -->
<g id="edge20" class="edge">
<title>:data:database&#45;&gt;:shared:domain</title>
<path fill="none" stroke="black" stroke-dasharray="1,5" d="M614.44,-413.22C614.44,-356.17 614.44,-164 614.44,-164 614.44,-164 730.3,-164 730.3,-164"/>
<polygon fill="black" stroke="black" points="730.3,-167.5 740.3,-164 730.3,-160.5 730.3,-167.5"/>
</g>
<!-- :data:database&#45;&gt;:core:coroutines -->
<g id="edge21" class="edge">
<title>:data:database&#45;&gt;:core:coroutines</title>
<path fill="none" stroke="black" stroke-dasharray="1,5" d="M582.94,-410.81C582.94,-331.27 582.94,-18 582.94,-18 582.94,-18 531.41,-18 531.41,-18"/>
<polygon fill="black" stroke="black" points="531.41,-14.5 521.41,-18 531.41,-21.5 531.41,-14.5"/>
</g>
<!-- :data:database&#45;&gt;:data:musicbrainz -->
<g id="edge22" class="edge">
<title>:data:database&#45;&gt;:data:musicbrainz</title>
<path fill="none" stroke="black" stroke-dasharray="1,5" d="M523.99,-415.36C523.99,-415.36 523.99,-314.78 523.99,-314.78"/>
<polygon fill="black" stroke="black" points="527.49,-314.78 523.99,-304.78 520.49,-314.78 527.49,-314.78"/>
</g>
<!-- :data:musicbrainz&#45;&gt;:shared:domain -->
<g id="edge23" class="edge">
<title>:data:musicbrainz&#45;&gt;:shared:domain</title>
<path fill="none" stroke="black" stroke-dasharray="1,5" d="M537.83,-282.58C537.83,-251.63 537.83,-155 537.83,-155 537.83,-155 719.26,-155 719.26,-155"/>
<polygon fill="black" stroke="black" points="719.26,-158.5 729.26,-155 719.26,-151.5 719.26,-158.5"/>
</g>
<!-- :data:musicbrainz&#45;&gt;:core:logging:api -->
<g id="edge24" class="edge">
<title>:data:musicbrainz&#45;&gt;:core:logging:api</title>
<path fill="none" stroke="black" stroke-dasharray="1,5" d="M444.24,-274.09C444.24,-274.09 444.24,-183.35 444.24,-183.35"/>
<polygon fill="black" stroke="black" points="447.74,-183.35 444.24,-173.35 440.74,-183.35 447.74,-183.35"/>
</g>
<!-- :data:coverart&#45;&gt;:test&#45;data -->
<g id="edge28" class="edge">
<title>:data:coverart&#45;&gt;:test&#45;data</title>
<path fill="none" stroke="#ff9ab1" stroke-dasharray="1,5" d="M527.81,-578.64C527.81,-578.64 527.81,-674.81 527.81,-674.81"/>
<polygon fill="#ff9ab1" stroke="#ff9ab1" points="524.31,-674.81 527.81,-684.81 531.31,-674.81 524.31,-674.81"/>
</g>
<!-- :data:coverart&#45;&gt;:shared:domain -->
<g id="edge25" class="edge">
<title>:data:coverart&#45;&gt;:shared:domain</title>
<path fill="none" stroke="black" stroke-dasharray="1,5" d="M548.05,-566C646.64,-566 805.87,-566 805.87,-566 805.87,-566 805.87,-183.19 805.87,-183.19"/>
<polygon fill="black" stroke="black" points="809.37,-183.19 805.87,-173.19 802.37,-183.19 809.37,-183.19"/>
</g>
<!-- :data:coverart&#45;&gt;:core:coroutines -->
<g id="edge27" class="edge">
<title>:data:coverart&#45;&gt;:core:coroutines</title>
<path fill="none" stroke="black" stroke-dasharray="1,5" d="M408.53,-576C369.75,-576 327.5,-576 327.5,-576 327.5,-576 327.5,-27 327.5,-27 327.5,-27 352.08,-27 352.08,-27"/>
<polygon fill="black" stroke="black" points="352.08,-30.5 362.08,-27 352.08,-23.5 352.08,-30.5"/>
</g>
<!-- :data:coverart&#45;&gt;:data:database -->
<g id="edge30" class="edge">
<title>:data:coverart&#45;&gt;:data:database</title>
<path fill="none" stroke="#ff9ab1" stroke-dasharray="1,5" d="M522.22,-552.36C522.22,-552.36 522.22,-452.58 522.22,-452.58"/>
<polygon fill="#ff9ab1" stroke="#ff9ab1" points="525.72,-452.58 522.22,-442.58 518.72,-452.58 525.72,-452.58"/>
</g>
<!-- :data:coverart&#45;&gt;:data:musicbrainz -->
<g id="edge29" class="edge">
<title>:data:coverart&#45;&gt;:data:musicbrainz</title>
<path fill="none" stroke="#ff9ab1" stroke-dasharray="1,5" d="M429.38,-550.88C429.38,-550.88 429.38,-319.15 429.38,-319.15"/>
<polygon fill="#ff9ab1" stroke="#ff9ab1" points="432.88,-319.15 429.38,-309.15 425.88,-319.15 432.88,-319.15"/>
</g>
<!-- :data:coverart&#45;&gt;:core:logging:api -->
<g id="edge26" class="edge">
<title>:data:coverart&#45;&gt;:core:logging:api</title>
<path fill="none" stroke="black" stroke-dasharray="1,5" d="M397.4,-562C374.81,-562 355.85,-562 355.85,-562 355.85,-562 355.85,-172.77 355.85,-172.77"/>
<polygon fill="black" stroke="black" points="359.35,-172.77 355.85,-162.77 352.35,-172.77 359.35,-172.77"/>
</g>
<!-- :data:spotify&#45;&gt;:shared:domain -->
<g id="edge31" class="edge">
<title>:data:spotify&#45;&gt;:shared:domain</title>
<path fill="none" stroke="black" stroke-dasharray="1,5" d="M756.52,-277.6C756.52,-277.6 756.52,-178.4 756.52,-178.4"/>
<polygon fill="black" stroke="black" points="760.02,-178.4 756.52,-168.4 753.02,-178.4 760.02,-178.4"/>
</g>
<!-- :data:spotify&#45;&gt;:core:logging:api -->
<g id="edge32" class="edge">
<title>:data:spotify&#45;&gt;:core:logging:api</title>
<path fill="none" stroke="black" stroke-dasharray="1,5" d="M687.62,-275.25C687.62,-236.9 687.62,-146 687.62,-146 687.62,-146 522.41,-146 522.41,-146"/>
<polygon fill="black" stroke="black" points="522.41,-142.5 512.41,-146 522.41,-149.5 522.41,-142.5"/>
</g>
<!-- :core:logging:api&#45;&gt;:core:coroutines -->
<g id="edge33" class="edge">
<title>:core:logging:api&#45;&gt;:core:coroutines</title>
<path fill="none" stroke="black" d="M435.84,-136.81C435.84,-136.81 435.84,-46.27 435.84,-46.27"/>
<polygon fill="black" stroke="black" points="439.34,-46.27 435.84,-36.27 432.34,-46.27 439.34,-46.27"/>
</g>
</g>
</svg>
