<?xml version="1.0" encoding="UTF-8" standalone="no"?>
<!DOCTYPE svg PUBLIC "-//W3C//DTD SVG 1.1//EN"
 "http://www.w3.org/Graphics/SVG/1.1/DTD/svg11.dtd">
<!-- Generated by graphviz version 2.43.0 (0)
 -->
<!-- Title: %3 Pages: 1 -->
<svg width="821pt" height="940pt"
 viewBox="0.00 0.00 821.13 940.00" xmlns="http://www.w3.org/2000/svg" xmlns:xlink="http://www.w3.org/1999/xlink">
<g id="graph0" class="graph" transform="scale(1 1) rotate(0) translate(4 936)">
<title>%3</title>
<polygon fill="white" stroke="transparent" points="-4,4 -4,-936 817.13,-936 817.13,4 -4,4"/>
<text text-anchor="middle" x="406.57" y="-904" font-family="Times,serif" font-size="30.00">Dependencies</text>
<text text-anchor="middle" x="406.57" y="-871" font-family="Times,serif" font-size="30.00"> </text>
<!-- :shared:feature:images -->
<g id="node1" class="node">
<title>:shared:feature:images</title>
<polygon fill="#b59aff" stroke="black" points="404.84,-858 222.84,-858 222.84,-822 404.84,-822 404.84,-858"/>
<text text-anchor="middle" x="313.84" y="-836.3" font-family="Times,serif" font-size="14.00">:shared:feature:images</text>
</g>
<!-- :test:image -->
<g id="node2" class="node">
<title>:test:image</title>
<ellipse fill="#9affb5" stroke="black" cx="96.84" cy="-429" rx="63.09" ry="18"/>
<text text-anchor="middle" x="96.84" y="-425.3" font-family="Times,serif" font-size="14.00">:test:image</text>
</g>
<!-- :shared:feature:images&#45;&gt;:test:image -->
<g id="edge1" class="edge">
<title>:shared:feature:images&#45;&gt;:test:image</title>
<path fill="none" stroke="black" stroke-dasharray="1,5" d="M240.61,-821.81C240.61,-742.27 240.61,-429 240.61,-429 240.61,-429 169.9,-429 169.9,-429"/>
<polygon fill="black" stroke="black" points="169.9,-425.5 159.9,-429 169.9,-432.5 169.9,-425.5"/>
</g>
<!-- :test&#45;data -->
<g id="node3" class="node">
<title>:test&#45;data</title>
<ellipse fill="#b59aff" stroke="black" cx="597.84" cy="-566" rx="55.49" ry="18"/>
<text text-anchor="middle" x="597.84" y="-562.3" font-family="Times,serif" font-size="14.00">:test&#45;data</text>
</g>
<!-- :shared:feature:images&#45;&gt;:test&#45;data -->
<g id="edge2" class="edge">
<title>:shared:feature:images&#45;&gt;:test&#45;data</title>
<path fill="none" stroke="#ff9ab1" stroke-dasharray="1,5" d="M404.99,-846C494.03,-846 616.26,-846 616.26,-846 616.26,-846 616.26,-593.09 616.26,-593.09"/>
<polygon fill="#ff9ab1" stroke="#ff9ab1" points="619.76,-593.09 616.26,-583.09 612.76,-593.09 619.76,-593.09"/>
</g>
<!-- :ui:test:screenshot -->
<g id="node4" class="node">
<title>:ui:test:screenshot</title>
<ellipse fill="#9affb5" stroke="black" cx="96.84" cy="-566" rx="96.68" ry="18"/>
<text text-anchor="middle" x="96.84" y="-562.3" font-family="Times,serif" font-size="14.00">:ui:test:screenshot</text>
</g>
<!-- :shared:feature:images&#45;&gt;:ui:test:screenshot -->
<g id="edge3" class="edge">
<title>:shared:feature:images&#45;&gt;:ui:test:screenshot</title>
<path fill="none" stroke="#ff9ab1" stroke-dasharray="1,5" d="M231.73,-822C231.73,-761.91 231.73,-572 231.73,-572 231.73,-572 198.31,-572 198.31,-572"/>
<polygon fill="#ff9ab1" stroke="#ff9ab1" points="198.31,-568.5 188.31,-572 198.31,-575.5 198.31,-568.5"/>
</g>
<!-- :shared:domain -->
<g id="node5" class="node">
<title>:shared:domain</title>
<ellipse fill="#b59aff" stroke="black" cx="728.84" cy="-18" rx="82.59" ry="18"/>
<text text-anchor="middle" x="728.84" y="-14.3" font-family="Times,serif" font-size="14.00">:shared:domain</text>
</g>
<!-- :shared:feature:images&#45;&gt;:shared:domain -->
<g id="edge4" class="edge">
<title>:shared:feature:images&#45;&gt;:shared:domain</title>
<path fill="none" stroke="black" stroke-dasharray="1,5" d="M404.93,-834C445.8,-834 484.99,-834 484.99,-834 484.99,-834 484.99,-28 484.99,-28 484.99,-28 649.94,-28 649.94,-28"/>
<polygon fill="black" stroke="black" points="649.94,-31.5 659.94,-28 649.94,-24.5 649.94,-31.5"/>
</g>
<!-- :ui:common -->
<g id="node6" class="node">
<title>:ui:common</title>
<ellipse fill="#b59aff" stroke="black" cx="313.84" cy="-703" rx="64.19" ry="18"/>
<text text-anchor="middle" x="313.84" y="-699.3" font-family="Times,serif" font-size="14.00">:ui:common</text>
</g>
<!-- :shared:feature:images&#45;&gt;:ui:common -->
<g id="edge5" class="edge">
<title>:shared:feature:images&#45;&gt;:ui:common</title>
<path fill="none" stroke="black" stroke-dasharray="1,5" d="M313.84,-821.81C313.84,-821.81 313.84,-731.27 313.84,-731.27"/>
<polygon fill="black" stroke="black" points="317.34,-731.27 313.84,-721.27 310.34,-731.27 317.34,-731.27"/>
</g>
<!-- :test&#45;data&#45;&gt;:shared:domain -->
<g id="edge6" class="edge">
<title>:test&#45;data&#45;&gt;:shared:domain</title>
<path fill="none" stroke="black" stroke-dasharray="1,5" d="M548.06,-558.15C548.06,-505.5 548.06,-206 548.06,-206 548.06,-206 728.17,-206 728.17,-206 728.17,-206 728.17,-46.03 728.17,-46.03"/>
<polygon fill="black" stroke="black" points="731.67,-46.03 728.17,-36.03 724.67,-46.03 731.67,-46.03"/>
</g>
<!-- :data:database -->
<g id="node7" class="node">
<title>:data:database</title>
<ellipse fill="#b59aff" stroke="black" cx="733.84" cy="-292" rx="79.09" ry="18"/>
<text text-anchor="middle" x="733.84" y="-288.3" font-family="Times,serif" font-size="14.00">:data:database</text>
</g>
<!-- :test&#45;data&#45;&gt;:data:database -->
<g id="edge7" class="edge">
<title>:test&#45;data&#45;&gt;:data:database</title>
<path fill="none" stroke="black" stroke-dasharray="1,5" d="M653.41,-566C699.67,-566 758.01,-566 758.01,-566 758.01,-566 758.01,-319.56 758.01,-319.56"/>
<polygon fill="black" stroke="black" points="761.51,-319.56 758.01,-309.56 754.51,-319.56 761.51,-319.56"/>
</g>
<!-- :data:musicbrainz -->
<g id="node8" class="node">
<title>:data:musicbrainz</title>
<ellipse fill="#b59aff" stroke="black" cx="606.84" cy="-155" rx="93.68" ry="18"/>
<text text-anchor="middle" x="606.84" y="-151.3" font-family="Times,serif" font-size="14.00">:data:musicbrainz</text>
</g>
<!-- :test&#45;data&#45;&gt;:data:musicbrainz -->
<g id="edge8" class="edge">
<title>:test&#45;data&#45;&gt;:data:musicbrainz</title>
<path fill="none" stroke="black" stroke-dasharray="1,5" d="M545.33,-560.19C545.33,-560.19 545.33,-178.57 545.33,-178.57"/>
<polygon fill="black" stroke="black" points="548.83,-178.57 545.33,-168.57 541.83,-178.57 548.83,-178.57"/>
</g>
<!-- :data:coverart -->
<g id="node9" class="node">
<title>:data:coverart</title>
<ellipse fill="#b59aff" stroke="black" cx="626.84" cy="-429" rx="76.09" ry="18"/>
<text text-anchor="middle" x="626.84" y="-425.3" font-family="Times,serif" font-size="14.00">:data:coverart</text>
</g>
<!-- :test&#45;data&#45;&gt;:data:coverart -->
<g id="edge9" class="edge">
<title>:test&#45;data&#45;&gt;:data:coverart</title>
<path fill="none" stroke="black" stroke-dasharray="1,5" d="M584.89,-548.37C584.89,-548.37 584.89,-454.04 584.89,-454.04"/>
<polygon fill="black" stroke="black" points="588.39,-454.04 584.89,-444.04 581.39,-454.04 588.39,-454.04"/>
</g>
<!-- :data:spotify -->
<g id="node10" class="node">
<title>:data:spotify</title>
<ellipse fill="#b59aff" stroke="black" cx="387.84" cy="-155" rx="68.79" ry="18"/>
<text text-anchor="middle" x="387.84" y="-151.3" font-family="Times,serif" font-size="14.00">:data:spotify</text>
</g>
<!-- :test&#45;data&#45;&gt;:data:spotify -->
<g id="edge10" class="edge">
<title>:test&#45;data&#45;&gt;:data:spotify</title>
<path fill="none" stroke="black" stroke-dasharray="1,5" d="M542.42,-566C519.92,-566 499.12,-566 499.12,-566 499.12,-566 499.12,-155 499.12,-155 499.12,-155 467.05,-155 467.05,-155"/>
<polygon fill="black" stroke="black" points="467.05,-151.5 457.05,-155 467.05,-158.5 467.05,-151.5"/>
</g>
<!-- :ui:test:screenshot&#45;&gt;:test:image -->
<g id="edge11" class="edge">
<title>:ui:test:screenshot&#45;&gt;:test:image</title>
<path fill="none" stroke="black" stroke-dasharray="1,5" d="M96.84,-547.81C96.84,-547.81 96.84,-457.27 96.84,-457.27"/>
<polygon fill="black" stroke="black" points="100.34,-457.27 96.84,-447.27 93.34,-457.27 100.34,-457.27"/>
</g>
<!-- :ui:common&#45;&gt;:test:image -->
<g id="edge12" class="edge">
<title>:ui:common&#45;&gt;:test:image</title>
<path fill="none" stroke="black" stroke-dasharray="1,5" d="M269.52,-689.73C269.52,-633.78 269.52,-420 269.52,-420 269.52,-420 161.48,-420 161.48,-420"/>
<polygon fill="black" stroke="black" points="161.48,-416.5 151.48,-420 161.48,-423.5 161.48,-416.5"/>
</g>
<!-- :ui:common&#45;&gt;:test&#45;data -->
<g id="edge13" class="edge">
<title>:ui:common&#45;&gt;:test&#45;data</title>
<path fill="none" stroke="#ff9ab1" stroke-dasharray="1,5" d="M374.77,-709C453.18,-709 579.43,-709 579.43,-709 579.43,-709 579.43,-593.25 579.43,-593.25"/>
<polygon fill="#ff9ab1" stroke="#ff9ab1" points="582.93,-593.25 579.43,-583.25 575.93,-593.25 582.93,-593.25"/>
</g>
<!-- :ui:common&#45;&gt;:ui:test:screenshot -->
<g id="edge14" class="edge">
<title>:ui:common&#45;&gt;:ui:test:screenshot</title>
<path fill="none" stroke="#ff9ab1" stroke-dasharray="1,5" d="M260.49,-692.72C260.49,-659.93 260.49,-560 260.49,-560 260.49,-560 198.23,-560 198.23,-560"/>
<polygon fill="#ff9ab1" stroke="#ff9ab1" points="198.23,-556.5 188.23,-560 198.23,-563.5 198.23,-556.5"/>
</g>
<!-- :ui:common&#45;&gt;:shared:domain -->
<g id="edge15" class="edge">
<title>:ui:common&#45;&gt;:shared:domain</title>
<path fill="none" stroke="black" d="M374.55,-697C418.74,-697 470.86,-697 470.86,-697 470.86,-697 470.86,-21 470.86,-21 470.86,-21 637.22,-21 637.22,-21"/>
<polygon fill="black" stroke="black" points="637.22,-24.5 647.22,-21 637.22,-17.5 637.22,-24.5"/>
</g>
<!-- :shared:strings -->
<g id="node11" class="node">
<title>:shared:strings</title>
<ellipse fill="#b59aff" stroke="black" cx="368.84" cy="-566" rx="81.49" ry="18"/>
<text text-anchor="middle" x="368.84" y="-562.3" font-family="Times,serif" font-size="14.00">:shared:strings</text>
</g>
<!-- :ui:common&#45;&gt;:shared:strings -->
<g id="edge16" class="edge">
<title>:ui:common&#45;&gt;:shared:strings</title>
<path fill="none" stroke="black" d="M332.89,-685.65C332.89,-685.65 332.89,-592.36 332.89,-592.36"/>
<polygon fill="black" stroke="black" points="336.39,-592.36 332.89,-582.36 329.39,-592.36 336.39,-592.36"/>
</g>
<!-- :core:logging:api -->
<g id="node12" class="node">
<title>:core:logging:api</title>
<ellipse fill="#b59aff" stroke="black" cx="339.84" cy="-18" rx="88.28" ry="18"/>
<text text-anchor="middle" x="339.84" y="-14.3" font-family="Times,serif" font-size="14.00">:core:logging:api</text>
</g>
<!-- :ui:common&#45;&gt;:core:logging:api -->
<g id="edge17" class="edge">
<title>:ui:common&#45;&gt;:core:logging:api</title>
<path fill="none" stroke="black" stroke-dasharray="1,5" d="M278.56,-687.73C278.56,-687.73 278.56,-41.02 278.56,-41.02"/>
<polygon fill="black" stroke="black" points="282.06,-41.02 278.56,-31.02 275.06,-41.02 282.06,-41.02"/>
</g>
<!-- :data:database&#45;&gt;:shared:domain -->
<g id="edge18" class="edge">
<title>:data:database&#45;&gt;:shared:domain</title>
<path fill="none" stroke="black" stroke-dasharray="1,5" d="M783.65,-277.65C783.65,-277.65 783.65,-41.55 783.65,-41.55"/>
<polygon fill="black" stroke="black" points="787.15,-41.55 783.65,-31.55 780.15,-41.55 787.15,-41.55"/>
</g>
<!-- :data:database&#45;&gt;:data:musicbrainz -->
<g id="edge19" class="edge">
<title>:data:database&#45;&gt;:data:musicbrainz</title>
<path fill="none" stroke="black" stroke-dasharray="1,5" d="M677.49,-279.11C677.49,-279.11 677.49,-177.16 677.49,-177.16"/>
<polygon fill="black" stroke="black" points="680.99,-177.16 677.49,-167.16 673.99,-177.16 680.99,-177.16"/>
</g>
<!-- :data:musicbrainz&#45;&gt;:shared:domain -->
<g id="edge20" class="edge">
<title>:data:musicbrainz&#45;&gt;:shared:domain</title>
<path fill="none" stroke="black" stroke-dasharray="1,5" d="M673.37,-142.11C673.37,-142.11 673.37,-41.36 673.37,-41.36"/>
<polygon fill="black" stroke="black" points="676.87,-41.36 673.37,-31.36 669.87,-41.36 676.87,-41.36"/>
</g>
<!-- :data:musicbrainz&#45;&gt;:core:logging:api -->
<g id="edge21" class="edge">
<title>:data:musicbrainz&#45;&gt;:core:logging:api</title>
<path fill="none" stroke="black" stroke-dasharray="1,5" d="M579.77,-137.73C579.77,-98.69 579.77,-7 579.77,-7 579.77,-7 419.88,-7 419.88,-7"/>
<polygon fill="black" stroke="black" points="419.88,-3.5 409.88,-7 419.88,-10.5 419.88,-3.5"/>
</g>
<!-- :data:coverart&#45;&gt;:test&#45;data -->
<g id="edge24" class="edge">
<title>:data:coverart&#45;&gt;:test&#45;data</title>
<path fill="none" stroke="#ff9ab1" stroke-dasharray="1,5" d="M618.99,-446.91C618.99,-446.91 618.99,-538.95 618.99,-538.95"/>
<polygon fill="#ff9ab1" stroke="#ff9ab1" points="615.49,-538.95 618.99,-548.95 622.49,-538.95 615.49,-538.95"/>
</g>
<!-- :data:coverart&#45;&gt;:shared:domain -->
<g id="edge22" class="edge">
<title>:data:coverart&#45;&gt;:shared:domain</title>
<path fill="none" stroke="black" stroke-dasharray="1,5" d="M619.97,-410.88C619.97,-363.57 619.97,-240 619.97,-240 619.97,-240 755.91,-240 755.91,-240 755.91,-240 755.91,-45.05 755.91,-45.05"/>
<polygon fill="black" stroke="black" points="759.41,-45.05 755.91,-35.05 752.41,-45.05 759.41,-45.05"/>
</g>
<!-- :data:coverart&#45;&gt;:data:database -->
<g id="edge26" class="edge">
<title>:data:coverart&#45;&gt;:data:database</title>
<path fill="none" stroke="#ff9ab1" stroke-dasharray="1,5" d="M678.72,-415.61C678.72,-415.61 678.72,-315.24 678.72,-315.24"/>
<polygon fill="#ff9ab1" stroke="#ff9ab1" points="682.22,-315.24 678.72,-305.24 675.22,-315.24 682.22,-315.24"/>
</g>
<!-- :data:coverart&#45;&gt;:data:musicbrainz -->
<g id="edge25" class="edge">
<title>:data:coverart&#45;&gt;:data:musicbrainz</title>
<path fill="none" stroke="#ff9ab1" stroke-dasharray="1,5" d="M585.38,-413.88C585.38,-413.88 585.38,-182.87 585.38,-182.87"/>
<polygon fill="#ff9ab1" stroke="#ff9ab1" points="588.88,-182.87 585.38,-172.87 581.88,-182.87 588.88,-182.87"/>
</g>
<!-- :data:coverart&#45;&gt;:core:logging:api -->
<g id="edge23" class="edge">
<title>:data:coverart&#45;&gt;:core:logging:api</title>
<path fill="none" stroke="black" stroke-dasharray="1,5" d="M560.97,-438C466.37,-438 303.27,-438 303.27,-438 303.27,-438 303.27,-44.46 303.27,-44.46"/>
<polygon fill="black" stroke="black" points="306.77,-44.46 303.27,-34.46 299.77,-44.46 306.77,-44.46"/>
</g>
<!-- :data:spotify&#45;&gt;:shared:domain -->
<g id="edge27" class="edge">
<title>:data:spotify&#45;&gt;:shared:domain</title>
<path fill="none" stroke="black" stroke-dasharray="1,5" d="M442.48,-143.94C442.48,-110.7 442.48,-14 442.48,-14 442.48,-14 638.31,-14 638.31,-14"/>
<polygon fill="black" stroke="black" points="638.31,-17.5 648.31,-14 638.31,-10.5 638.31,-17.5"/>
</g>
<!-- :data:spotify&#45;&gt;:core:logging:api -->
<g id="edge28" class="edge">
<title>:data:spotify&#45;&gt;:core:logging:api</title>
<path fill="none" stroke="black" stroke-dasharray="1,5" d="M373.59,-137.37C373.59,-137.37 373.59,-44.7 373.59,-44.7"/>
<polygon fill="black" stroke="black" points="377.09,-44.7 373.59,-34.7 370.09,-44.7 377.09,-44.7"/>
</g>
</g>
</svg>
