<?xml version="1.0" encoding="UTF-8" standalone="no"?>
<!DOCTYPE svg PUBLIC "-//W3C//DTD SVG 1.1//EN"
 "http://www.w3.org/Graphics/SVG/1.1/DTD/svg11.dtd">
<!-- Generated by graphviz version 2.43.0 (0)
 -->
<!-- Title: %3 Pages: 1 -->
<svg width="956pt" height="1077pt"
 viewBox="0.00 0.00 956.08 1077.00" xmlns="http://www.w3.org/2000/svg" xmlns:xlink="http://www.w3.org/1999/xlink">
<g id="graph0" class="graph" transform="scale(1 1) rotate(0) translate(4 1073)">
<title>%3</title>
<polygon fill="white" stroke="transparent" points="-4,4 -4,-1073 952.08,-1073 952.08,4 -4,4"/>
<text text-anchor="middle" x="474.04" y="-1041" font-family="Times,serif" font-size="30.00">Dependencies</text>
<text text-anchor="middle" x="474.04" y="-1008" font-family="Times,serif" font-size="30.00"> </text>
<!-- :shared:feature:images -->
<g id="node1" class="node">
<title>:shared:feature:images</title>
<polygon fill="#b59aff" stroke="black" points="415.84,-995 233.84,-995 233.84,-959 415.84,-959 415.84,-995"/>
<text text-anchor="middle" x="324.84" y="-973.3" font-family="Times,serif" font-size="14.00">:shared:feature:images</text>
</g>
<!-- :test:image -->
<g id="node2" class="node">
<title>:test:image</title>
<ellipse fill="#9affb5" stroke="black" cx="99.84" cy="-566" rx="63.09" ry="18"/>
<text text-anchor="middle" x="99.84" y="-562.3" font-family="Times,serif" font-size="14.00">:test:image</text>
</g>
<!-- :shared:feature:images&#45;&gt;:test:image -->
<g id="edge1" class="edge">
<title>:shared:feature:images&#45;&gt;:test:image</title>
<path fill="none" stroke="black" stroke-dasharray="1,5" d="M243.02,-958.81C243.02,-880.01 243.02,-572 243.02,-572 243.02,-572 169.32,-572 169.32,-572"/>
<polygon fill="black" stroke="black" points="169.32,-568.5 159.32,-572 169.32,-575.5 169.32,-568.5"/>
</g>
<!-- :test&#45;data -->
<g id="node3" class="node">
<title>:test&#45;data</title>
<ellipse fill="#b59aff" stroke="black" cx="416.84" cy="-703" rx="55.49" ry="18"/>
<text text-anchor="middle" x="416.84" y="-699.3" font-family="Times,serif" font-size="14.00">:test&#45;data</text>
</g>
<!-- :shared:feature:images&#45;&gt;:test&#45;data -->
<g id="edge2" class="edge">
<title>:shared:feature:images&#45;&gt;:test&#45;data</title>
<path fill="none" stroke="#ff9ab1" stroke-dasharray="1,5" d="M402.51,-958.6C402.51,-958.6 402.51,-730.61 402.51,-730.61"/>
<polygon fill="#ff9ab1" stroke="#ff9ab1" points="406.01,-730.61 402.51,-720.61 399.01,-730.61 406.01,-730.61"/>
</g>
<!-- :ui:test:screenshot -->
<g id="node4" class="node">
<title>:ui:test:screenshot</title>
<ellipse fill="#9affb5" stroke="black" cx="120.84" cy="-703" rx="96.68" ry="18"/>
<text text-anchor="middle" x="120.84" y="-699.3" font-family="Times,serif" font-size="14.00">:ui:test:screenshot</text>
</g>
<!-- :shared:feature:images&#45;&gt;:ui:test:screenshot -->
<g id="edge3" class="edge">
<title>:shared:feature:images&#45;&gt;:ui:test:screenshot</title>
<path fill="none" stroke="#ff9ab1" stroke-dasharray="1,5" d="M238.43,-958.79C238.43,-898.91 238.43,-712 238.43,-712 238.43,-712 214.74,-712 214.74,-712"/>
<polygon fill="#ff9ab1" stroke="#ff9ab1" points="214.74,-708.5 204.74,-712 214.74,-715.5 214.74,-708.5"/>
</g>
<!-- :shared:domain -->
<g id="node5" class="node">
<title>:shared:domain</title>
<ellipse fill="#b59aff" stroke="black" cx="607.84" cy="-155" rx="82.59" ry="18"/>
<text text-anchor="middle" x="607.84" y="-151.3" font-family="Times,serif" font-size="14.00">:shared:domain</text>
</g>
<!-- :shared:feature:images&#45;&gt;:shared:domain -->
<g id="edge4" class="edge">
<title>:shared:feature:images&#45;&gt;:shared:domain</title>
<path fill="none" stroke="black" stroke-dasharray="1,5" d="M416.05,-977C515.37,-977 660.25,-977 660.25,-977 660.25,-977 660.25,-178.92 660.25,-178.92"/>
<polygon fill="black" stroke="black" points="663.75,-178.92 660.25,-168.92 656.75,-178.92 663.75,-178.92"/>
</g>
<!-- :ui:common -->
<g id="node6" class="node">
<title>:ui:common</title>
<ellipse fill="#b59aff" stroke="black" cx="324.84" cy="-840" rx="64.19" ry="18"/>
<text text-anchor="middle" x="324.84" y="-836.3" font-family="Times,serif" font-size="14.00">:ui:common</text>
</g>
<!-- :shared:feature:images&#45;&gt;:ui:common -->
<g id="edge5" class="edge">
<title>:shared:feature:images&#45;&gt;:ui:common</title>
<path fill="none" stroke="black" stroke-dasharray="1,5" d="M324.84,-958.81C324.84,-958.81 324.84,-868.27 324.84,-868.27"/>
<polygon fill="black" stroke="black" points="328.34,-868.27 324.84,-858.27 321.34,-868.27 328.34,-868.27"/>
</g>
<!-- :test&#45;data&#45;&gt;:shared:domain -->
<g id="edge6" class="edge">
<title>:test&#45;data&#45;&gt;:shared:domain</title>
<path fill="none" stroke="black" stroke-dasharray="1,5" d="M472.29,-703C526.2,-703 599.99,-703 599.99,-703 599.99,-703 599.99,-182.92 599.99,-182.92"/>
<polygon fill="black" stroke="black" points="603.49,-182.92 599.99,-172.92 596.49,-182.92 603.49,-182.92"/>
</g>
<!-- :core:coroutines -->
<g id="node7" class="node">
<title>:core:coroutines</title>
<ellipse fill="#b59aff" stroke="black" cx="373.84" cy="-18" rx="85.29" ry="18"/>
<text text-anchor="middle" x="373.84" y="-14.3" font-family="Times,serif" font-size="14.00">:core:coroutines</text>
</g>
<!-- :test&#45;data&#45;&gt;:core:coroutines -->
<g id="edge7" class="edge">
<title>:test&#45;data&#45;&gt;:core:coroutines</title>
<path fill="none" stroke="black" stroke-dasharray="1,5" d="M459.45,-691.31C459.45,-633.93 459.45,-385 459.45,-385 459.45,-385 385.8,-385 385.8,-385 385.8,-385 385.8,-45.95 385.8,-45.95"/>
<polygon fill="black" stroke="black" points="389.3,-45.95 385.8,-35.95 382.3,-45.95 389.3,-45.95"/>
</g>
<!-- :data:database -->
<g id="node8" class="node">
<title>:data:database</title>
<ellipse fill="#b59aff" stroke="black" cx="373.84" cy="-429" rx="79.09" ry="18"/>
<text text-anchor="middle" x="373.84" y="-425.3" font-family="Times,serif" font-size="14.00">:data:database</text>
</g>
<!-- :test&#45;data&#45;&gt;:data:database -->
<g id="edge8" class="edge">
<title>:test&#45;data&#45;&gt;:data:database</title>
<path fill="none" stroke="black" stroke-dasharray="1,5" d="M431.01,-685.44C431.01,-685.44 431.01,-451.78 431.01,-451.78"/>
<polygon fill="black" stroke="black" points="434.51,-451.78 431.01,-441.78 427.51,-451.78 434.51,-451.78"/>
</g>
<!-- :data:musicbrainz -->
<g id="node9" class="node">
<title>:data:musicbrainz</title>
<ellipse fill="#b59aff" stroke="black" cx="251.84" cy="-292" rx="93.68" ry="18"/>
<text text-anchor="middle" x="251.84" y="-288.3" font-family="Times,serif" font-size="14.00">:data:musicbrainz</text>
</g>
<!-- :test&#45;data&#45;&gt;:data:musicbrainz -->
<g id="edge9" class="edge">
<title>:test&#45;data&#45;&gt;:data:musicbrainz</title>
<path fill="none" stroke="black" stroke-dasharray="1,5" d="M368.78,-694C320.19,-694 252.21,-694 252.21,-694 252.21,-694 252.21,-320.05 252.21,-320.05"/>
<polygon fill="black" stroke="black" points="255.71,-320.05 252.21,-310.05 248.71,-320.05 255.71,-320.05"/>
</g>
<!-- :data:coverart -->
<g id="node10" class="node">
<title>:data:coverart</title>
<ellipse fill="#b59aff" stroke="black" cx="332.84" cy="-566" rx="76.09" ry="18"/>
<text text-anchor="middle" x="332.84" y="-562.3" font-family="Times,serif" font-size="14.00">:data:coverart</text>
</g>
<!-- :test&#45;data&#45;&gt;:data:coverart -->
<g id="edge10" class="edge">
<title>:test&#45;data&#45;&gt;:data:coverart</title>
<path fill="none" stroke="black" stroke-dasharray="1,5" d="M377.36,-690.36C377.36,-690.36 377.36,-590.66 377.36,-590.66"/>
<polygon fill="black" stroke="black" points="380.86,-590.66 377.36,-580.66 373.86,-590.66 380.86,-590.66"/>
</g>
<!-- :data:spotify -->
<g id="node11" class="node">
<title>:data:spotify</title>
<ellipse fill="#b59aff" stroke="black" cx="470.84" cy="-292" rx="68.79" ry="18"/>
<text text-anchor="middle" x="470.84" y="-288.3" font-family="Times,serif" font-size="14.00">:data:spotify</text>
</g>
<!-- :test&#45;data&#45;&gt;:data:spotify -->
<g id="edge11" class="edge">
<title>:test&#45;data&#45;&gt;:data:spotify</title>
<path fill="none" stroke="black" stroke-dasharray="1,5" d="M465.77,-694.42C465.77,-694.42 465.77,-320.14 465.77,-320.14"/>
<polygon fill="black" stroke="black" points="469.27,-320.14 465.77,-310.14 462.27,-320.14 469.27,-320.14"/>
</g>
<!-- :ui:test:screenshot&#45;&gt;:test:image -->
<g id="edge12" class="edge">
<title>:ui:test:screenshot&#45;&gt;:test:image</title>
<path fill="none" stroke="black" stroke-dasharray="1,5" d="M99.84,-685.37C99.84,-685.37 99.84,-594.44 99.84,-594.44"/>
<polygon fill="black" stroke="black" points="103.34,-594.44 99.84,-584.44 96.34,-594.44 103.34,-594.44"/>
</g>
<!-- :ui:common&#45;&gt;:test:image -->
<g id="edge13" class="edge">
<title>:ui:common&#45;&gt;:test:image</title>
<path fill="none" stroke="black" stroke-dasharray="1,5" d="M268.72,-831C256.74,-831 247.62,-831 247.62,-831 247.62,-831 247.62,-560 247.62,-560 247.62,-560 169.52,-560 169.52,-560"/>
<polygon fill="black" stroke="black" points="169.52,-556.5 159.52,-560 169.52,-563.5 169.52,-556.5"/>
</g>
<!-- :ui:common&#45;&gt;:test&#45;data -->
<g id="edge14" class="edge">
<title>:ui:common&#45;&gt;:test&#45;data</title>
<path fill="none" stroke="#ff9ab1" stroke-dasharray="1,5" d="M375.39,-828.79C375.39,-828.79 375.39,-725.15 375.39,-725.15"/>
<polygon fill="#ff9ab1" stroke="#ff9ab1" points="378.89,-725.15 375.39,-715.15 371.89,-725.15 378.89,-725.15"/>
</g>
<!-- :ui:common&#45;&gt;:ui:test:screenshot -->
<g id="edge15" class="edge">
<title>:ui:common&#45;&gt;:ui:test:screenshot</title>
<path fill="none" stroke="#ff9ab1" stroke-dasharray="1,5" d="M311.05,-822.37C311.05,-785.37 311.05,-703 311.05,-703 311.05,-703 227.89,-703 227.89,-703"/>
<polygon fill="#ff9ab1" stroke="#ff9ab1" points="227.89,-699.5 217.89,-703 227.89,-706.5 227.89,-699.5"/>
</g>
<!-- :ui:common&#45;&gt;:shared:domain -->
<g id="edge17" class="edge">
<title>:ui:common&#45;&gt;:shared:domain</title>
<path fill="none" stroke="black" d="M385.52,-834C474.55,-834 630.12,-834 630.12,-834 630.12,-834 630.12,-182.47 630.12,-182.47"/>
<polygon fill="black" stroke="black" points="633.62,-182.47 630.12,-172.47 626.62,-182.47 633.62,-182.47"/>
</g>
<!-- :ui:common&#45;&gt;:core:coroutines -->
<g id="edge16" class="edge">
<title>:ui:common&#45;&gt;:core:coroutines</title>
<path fill="none" stroke="#ff9ab1" stroke-dasharray="1,5" d="M269,-849C176.12,-849 0,-849 0,-849 0,-849 0,-18 0,-18 0,-18 278.54,-18 278.54,-18"/>
<polygon fill="#ff9ab1" stroke="#ff9ab1" points="278.54,-21.5 288.54,-18 278.54,-14.5 278.54,-21.5"/>
</g>
<!-- :ui:core -->
<g id="node12" class="node">
<title>:ui:core</title>
<ellipse fill="#b59aff" stroke="black" cx="757.84" cy="-703" rx="45.49" ry="18"/>
<text text-anchor="middle" x="757.84" y="-699.3" font-family="Times,serif" font-size="14.00">:ui:core</text>
</g>
<!-- :ui:common&#45;&gt;:ui:core -->
<g id="edge18" class="edge">
<title>:ui:common&#45;&gt;:ui:core</title>
<path fill="none" stroke="black" d="M385.96,-846C505.32,-846 757.84,-846 757.84,-846 757.84,-846 757.84,-731.11 757.84,-731.11"/>
<polygon fill="black" stroke="black" points="761.34,-731.11 757.84,-721.11 754.34,-731.11 761.34,-731.11"/>
</g>
<!-- :core:logging:api -->
<g id="node13" class="node">
<title>:core:logging:api</title>
<ellipse fill="#b59aff" stroke="black" cx="251.84" cy="-155" rx="88.28" ry="18"/>
<text text-anchor="middle" x="251.84" y="-151.3" font-family="Times,serif" font-size="14.00">:core:logging:api</text>
</g>
<!-- :ui:common&#45;&gt;:core:logging:api -->
<g id="edge19" class="edge">
<title>:ui:common&#45;&gt;:core:logging:api</title>
<path fill="none" stroke="black" stroke-dasharray="1,5" d="M260.4,-840C168.82,-840 12,-840 12,-840 12,-840 12,-155 12,-155 12,-155 153.21,-155 153.21,-155"/>
<polygon fill="black" stroke="black" points="153.21,-158.5 163.21,-155 153.21,-151.5 153.21,-158.5"/>
</g>
<!-- :data:database&#45;&gt;:shared:domain -->
<g id="edge20" class="edge">
<title>:data:database&#45;&gt;:shared:domain</title>
<path fill="none" stroke="black" stroke-dasharray="1,5" d="M393.87,-411.22C393.87,-350.93 393.87,-158 393.87,-158 393.87,-158 516.34,-158 516.34,-158"/>
<polygon fill="black" stroke="black" points="516.34,-161.5 526.34,-158 516.34,-154.5 516.34,-161.5"/>
</g>
<!-- :data:database&#45;&gt;:core:coroutines -->
<g id="edge21" class="edge">
<title>:data:database&#45;&gt;:core:coroutines</title>
<path fill="none" stroke="black" stroke-dasharray="1,5" d="M377.73,-410.81C377.73,-410.81 377.73,-46.45 377.73,-46.45"/>
<polygon fill="black" stroke="black" points="381.23,-46.45 377.73,-36.45 374.23,-46.45 381.23,-46.45"/>
</g>
<!-- :data:database&#45;&gt;:data:musicbrainz -->
<g id="edge22" class="edge">
<title>:data:database&#45;&gt;:data:musicbrainz</title>
<path fill="none" stroke="black" stroke-dasharray="1,5" d="M319.99,-415.61C319.99,-415.61 319.99,-314.44 319.99,-314.44"/>
<polygon fill="black" stroke="black" points="323.49,-314.44 319.99,-304.44 316.49,-314.44 323.49,-314.44"/>
</g>
<!-- :data:musicbrainz&#45;&gt;:shared:domain -->
<g id="edge23" class="edge">
<title>:data:musicbrainz&#45;&gt;:shared:domain</title>
<path fill="none" stroke="black" stroke-dasharray="1,5" d="M345.53,-292C350.5,-292 353.51,-292 353.51,-292 353.51,-292 353.51,-151 353.51,-151 353.51,-151 517.02,-151 517.02,-151"/>
<polygon fill="black" stroke="black" points="517.02,-154.5 527.02,-151 517.02,-147.5 517.02,-154.5"/>
</g>
<!-- :data:musicbrainz&#45;&gt;:core:logging:api -->
<g id="edge24" class="edge">
<title>:data:musicbrainz&#45;&gt;:core:logging:api</title>
<path fill="none" stroke="black" stroke-dasharray="1,5" d="M251.84,-273.81C251.84,-273.81 251.84,-183.27 251.84,-183.27"/>
<polygon fill="black" stroke="black" points="255.34,-183.27 251.84,-173.27 248.34,-183.27 255.34,-183.27"/>
</g>
<!-- :data:coverart&#45;&gt;:test&#45;data -->
<g id="edge28" class="edge">
<title>:data:coverart&#45;&gt;:test&#45;data</title>
<path fill="none" stroke="#ff9ab1" stroke-dasharray="1,5" d="M393.12,-577.21C393.12,-577.21 393.12,-676.63 393.12,-676.63"/>
<polygon fill="#ff9ab1" stroke="#ff9ab1" points="389.62,-676.63 393.12,-686.63 396.62,-676.63 389.62,-676.63"/>
</g>
<!-- :data:coverart&#45;&gt;:shared:domain -->
<g id="edge25" class="edge">
<title>:data:coverart&#45;&gt;:shared:domain</title>
<path fill="none" stroke="black" stroke-dasharray="1,5" d="M409.14,-566C478.43,-566 569.87,-566 569.87,-566 569.87,-566 569.87,-181.11 569.87,-181.11"/>
<polygon fill="black" stroke="black" points="573.37,-181.11 569.87,-171.11 566.37,-181.11 573.37,-181.11"/>
</g>
<!-- :data:coverart&#45;&gt;:core:coroutines -->
<g id="edge27" class="edge">
<title>:data:coverart&#45;&gt;:core:coroutines</title>
<path fill="none" stroke="black" stroke-dasharray="1,5" d="M285.11,-551.84C285.11,-505.3 285.11,-360 285.11,-360 285.11,-360 369.65,-360 369.65,-360 369.65,-360 369.65,-46.39 369.65,-46.39"/>
<polygon fill="black" stroke="black" points="373.15,-46.39 369.65,-36.39 366.15,-46.39 373.15,-46.39"/>
</g>
<!-- :data:coverart&#45;&gt;:data:database -->
<g id="edge30" class="edge">
<title>:data:coverart&#45;&gt;:data:database</title>
<path fill="none" stroke="#ff9ab1" stroke-dasharray="1,5" d="M351.72,-548.37C351.72,-548.37 351.72,-456.56 351.72,-456.56"/>
<polygon fill="#ff9ab1" stroke="#ff9ab1" points="355.22,-456.56 351.72,-446.56 348.22,-456.56 355.22,-456.56"/>
</g>
<!-- :data:coverart&#45;&gt;:data:musicbrainz -->
<g id="edge29" class="edge">
<title>:data:coverart&#45;&gt;:data:musicbrainz</title>
<path fill="none" stroke="#ff9ab1" stroke-dasharray="1,5" d="M266.24,-557.19C266.24,-557.19 266.24,-320.12 266.24,-320.12"/>
<polygon fill="#ff9ab1" stroke="#ff9ab1" points="269.74,-320.12 266.24,-310.12 262.74,-320.12 269.74,-320.12"/>
</g>
<!-- :data:coverart&#45;&gt;:core:logging:api -->
<g id="edge26" class="edge">
<title>:data:coverart&#45;&gt;:core:logging:api</title>
<path fill="none" stroke="black" stroke-dasharray="1,5" d="M275.67,-553.91C275.67,-506.38 275.67,-335 275.67,-335 275.67,-335 361.58,-335 361.58,-335 361.58,-335 361.58,-165 361.58,-165 361.58,-165 335.34,-165 335.34,-165"/>
<polygon fill="black" stroke="black" points="335.34,-161.5 325.34,-165 335.34,-168.5 335.34,-161.5"/>
</g>
<!-- :data:spotify&#45;&gt;:shared:domain -->
<g id="edge31" class="edge">
<title>:data:spotify&#45;&gt;:shared:domain</title>
<path fill="none" stroke="black" stroke-dasharray="1,5" d="M532.52,-283.84C532.52,-283.84 532.52,-172.61 532.52,-172.61"/>
<polygon fill="black" stroke="black" points="536.02,-172.61 532.52,-162.61 529.02,-172.61 536.02,-172.61"/>
</g>
<!-- :data:spotify&#45;&gt;:core:logging:api -->
<g id="edge32" class="edge">
<title>:data:spotify&#45;&gt;:core:logging:api</title>
<path fill="none" stroke="black" stroke-dasharray="1,5" d="M430.47,-277.27C430.47,-239.83 430.47,-144 430.47,-144 430.47,-144 331.93,-144 331.93,-144"/>
<polygon fill="black" stroke="black" points="331.93,-140.5 321.93,-144 331.93,-147.5 331.93,-140.5"/>
</g>
<!-- :ui:core&#45;&gt;:shared:domain -->
<g id="edge34" class="edge">
<title>:ui:core&#45;&gt;:shared:domain</title>
<path fill="none" stroke="black" stroke-dasharray="1,5" d="M748.97,-685.08C748.97,-590.63 748.97,-155 748.97,-155 748.97,-155 700.75,-155 700.75,-155"/>
<polygon fill="black" stroke="black" points="700.75,-151.5 690.75,-155 700.75,-158.5 700.75,-151.5"/>
</g>
<!-- :shared:strings -->
<g id="node14" class="node">
<title>:shared:strings</title>
<ellipse fill="#b59aff" stroke="black" cx="866.84" cy="-566" rx="81.49" ry="18"/>
<text text-anchor="middle" x="866.84" y="-562.3" font-family="Times,serif" font-size="14.00">:shared:strings</text>
</g>
<!-- :ui:core&#45;&gt;:shared:strings -->
<g id="edge33" class="edge">
<title>:ui:core&#45;&gt;:shared:strings</title>
<path fill="none" stroke="black" d="M794.47,-692.25C794.47,-692.25 794.47,-584.2 794.47,-584.2"/>
<polygon fill="black" stroke="black" points="797.97,-584.2 794.47,-574.2 790.97,-584.2 797.97,-584.2"/>
</g>
<!-- :core:logging:api&#45;&gt;:core:coroutines -->
<g id="edge35" class="edge">
<title>:core:logging:api&#45;&gt;:core:coroutines</title>
<path fill="none" stroke="black" d="M314.47,-142.11C314.47,-142.11 314.47,-40.95 314.47,-40.95"/>
<polygon fill="black" stroke="black" points="317.97,-40.95 314.47,-30.95 310.97,-40.95 317.97,-40.95"/>
</g>
</g>
</svg>
