<?xml version="1.0" encoding="UTF-8" standalone="no"?>
<!DOCTYPE svg PUBLIC "-//W3C//DTD SVG 1.1//EN"
 "http://www.w3.org/Graphics/SVG/1.1/DTD/svg11.dtd">
<!-- Generated by graphviz version 2.43.0 (0)
 -->
<!-- Title: %3 Pages: 1 -->
<svg width="1226pt" height="940pt"
 viewBox="0.00 0.00 1226.44 940.00" xmlns="http://www.w3.org/2000/svg" xmlns:xlink="http://www.w3.org/1999/xlink">
<g id="graph0" class="graph" transform="scale(1 1) rotate(0) translate(4 936)">
<title>%3</title>
<polygon fill="white" stroke="transparent" points="-4,4 -4,-936 1222.44,-936 1222.44,4 -4,4"/>
<text text-anchor="middle" x="609.22" y="-904" font-family="Times,serif" font-size="30.00">Dependencies</text>
<text text-anchor="middle" x="609.22" y="-871" font-family="Times,serif" font-size="30.00"> </text>
<!-- :shared:feature:images -->
<g id="node1" class="node">
<title>:shared:feature:images</title>
<polygon fill="#b59aff" stroke="black" points="475.04,-858 293.04,-858 293.04,-822 475.04,-822 475.04,-858"/>
<text text-anchor="middle" x="384.04" y="-836.3" font-family="Times,serif" font-size="14.00">:shared:feature:images</text>
</g>
<!-- :test:image -->
<g id="node2" class="node">
<title>:test:image</title>
<ellipse fill="#9affb5" stroke="black" cx="63.04" cy="-429" rx="63.09" ry="18"/>
<text text-anchor="middle" x="63.04" y="-425.3" font-family="Times,serif" font-size="14.00">:test:image</text>
</g>
<!-- :shared:feature:images&#45;&gt;:test:image -->
<g id="edge1" class="edge">
<title>:shared:feature:images&#45;&gt;:test:image</title>
<path fill="none" stroke="black" stroke-dasharray="1,5" d="M292.97,-846C187.66,-846 28.6,-846 28.6,-846 28.6,-846 28.6,-454.34 28.6,-454.34"/>
<polygon fill="black" stroke="black" points="32.1,-454.34 28.6,-444.34 25.1,-454.34 32.1,-454.34"/>
</g>
<!-- :test&#45;data -->
<g id="node3" class="node">
<title>:test&#45;data</title>
<ellipse fill="#b59aff" stroke="black" cx="699.04" cy="-566" rx="55.49" ry="18"/>
<text text-anchor="middle" x="699.04" y="-562.3" font-family="Times,serif" font-size="14.00">:test&#45;data</text>
</g>
<!-- :shared:feature:images&#45;&gt;:test&#45;data -->
<g id="edge2" class="edge">
<title>:shared:feature:images&#45;&gt;:test&#45;data</title>
<path fill="none" stroke="#ff9ab1" stroke-dasharray="1,5" d="M475.15,-840C573.87,-840 717.46,-840 717.46,-840 717.46,-840 717.46,-593.14 717.46,-593.14"/>
<polygon fill="#ff9ab1" stroke="#ff9ab1" points="720.96,-593.14 717.46,-583.14 713.96,-593.14 720.96,-593.14"/>
</g>
<!-- :ui:test:screenshot -->
<g id="node4" class="node">
<title>:ui:test:screenshot</title>
<ellipse fill="#9affb5" stroke="black" cx="154.04" cy="-566" rx="96.68" ry="18"/>
<text text-anchor="middle" x="154.04" y="-562.3" font-family="Times,serif" font-size="14.00">:ui:test:screenshot</text>
</g>
<!-- :shared:feature:images&#45;&gt;:ui:test:screenshot -->
<g id="edge3" class="edge">
<title>:shared:feature:images&#45;&gt;:ui:test:screenshot</title>
<path fill="none" stroke="#ff9ab1" stroke-dasharray="1,5" d="M292.68,-834C216.99,-834 121.76,-834 121.76,-834 121.76,-834 121.76,-593.17 121.76,-593.17"/>
<polygon fill="#ff9ab1" stroke="#ff9ab1" points="125.26,-593.17 121.76,-583.17 118.26,-593.17 125.26,-593.17"/>
</g>
<!-- :shared:domain -->
<g id="node5" class="node">
<title>:shared:domain</title>
<ellipse fill="#b59aff" stroke="black" cx="534.04" cy="-18" rx="82.59" ry="18"/>
<text text-anchor="middle" x="534.04" y="-14.3" font-family="Times,serif" font-size="14.00">:shared:domain</text>
</g>
<!-- :shared:feature:images&#45;&gt;:shared:domain -->
<g id="edge4" class="edge">
<title>:shared:feature:images&#45;&gt;:shared:domain</title>
<path fill="none" stroke="black" stroke-dasharray="1,5" d="M413.99,-821.68C413.99,-700.39 413.99,-18 413.99,-18 413.99,-18 441.32,-18 441.32,-18"/>
<polygon fill="black" stroke="black" points="441.32,-21.5 451.32,-18 441.32,-14.5 441.32,-21.5"/>
</g>
<!-- :ui:image -->
<g id="node6" class="node">
<title>:ui:image</title>
<ellipse fill="#b59aff" stroke="black" cx="323.04" cy="-566" rx="53.89" ry="18"/>
<text text-anchor="middle" x="323.04" y="-562.3" font-family="Times,serif" font-size="14.00">:ui:image</text>
</g>
<!-- :shared:feature:images&#45;&gt;:ui:image -->
<g id="edge5" class="edge">
<title>:shared:feature:images&#45;&gt;:ui:image</title>
<path fill="none" stroke="black" stroke-dasharray="1,5" d="M335.02,-821.6C335.02,-821.6 335.02,-593.61 335.02,-593.61"/>
<polygon fill="black" stroke="black" points="338.52,-593.61 335.02,-583.61 331.52,-593.61 338.52,-593.61"/>
</g>
<!-- :ui:common -->
<g id="node7" class="node">
<title>:ui:common</title>
<ellipse fill="#b59aff" stroke="black" cx="508.04" cy="-703" rx="64.19" ry="18"/>
<text text-anchor="middle" x="508.04" y="-699.3" font-family="Times,serif" font-size="14.00">:ui:common</text>
</g>
<!-- :shared:feature:images&#45;&gt;:ui:common -->
<g id="edge6" class="edge">
<title>:shared:feature:images&#45;&gt;:ui:common</title>
<path fill="none" stroke="black" stroke-dasharray="1,5" d="M459.37,-821.81C459.37,-821.81 459.37,-724.82 459.37,-724.82"/>
<polygon fill="black" stroke="black" points="462.87,-724.82 459.37,-714.82 455.87,-724.82 462.87,-724.82"/>
</g>
<!-- :test&#45;data&#45;&gt;:shared:domain -->
<g id="edge7" class="edge">
<title>:test&#45;data&#45;&gt;:shared:domain</title>
<path fill="none" stroke="black" stroke-dasharray="1,5" d="M653.08,-576C617.65,-576 574.65,-576 574.65,-576 574.65,-576 574.65,-43.8 574.65,-43.8"/>
<polygon fill="black" stroke="black" points="578.15,-43.8 574.65,-33.8 571.15,-43.8 578.15,-43.8"/>
</g>
<!-- :core:coroutines -->
<g id="node8" class="node">
<title>:core:coroutines</title>
<ellipse fill="#b59aff" stroke="black" cx="910.04" cy="-155" rx="85.29" ry="18"/>
<text text-anchor="middle" x="910.04" y="-151.3" font-family="Times,serif" font-size="14.00">:core:coroutines</text>
</g>
<!-- :test&#45;data&#45;&gt;:core:coroutines -->
<g id="edge8" class="edge">
<title>:test&#45;data&#45;&gt;:core:coroutines</title>
<path fill="none" stroke="black" stroke-dasharray="1,5" d="M754.53,-566C822.37,-566 928.26,-566 928.26,-566 928.26,-566 928.26,-182.66 928.26,-182.66"/>
<polygon fill="black" stroke="black" points="931.76,-182.66 928.26,-172.66 924.76,-182.66 931.76,-182.66"/>
</g>
<!-- :data:database -->
<g id="node9" class="node">
<title>:data:database</title>
<ellipse fill="#b59aff" stroke="black" cx="782.04" cy="-292" rx="79.09" ry="18"/>
<text text-anchor="middle" x="782.04" y="-288.3" font-family="Times,serif" font-size="14.00">:data:database</text>
</g>
<!-- :test&#45;data&#45;&gt;:data:database -->
<g id="edge9" class="edge">
<title>:test&#45;data&#45;&gt;:data:database</title>
<path fill="none" stroke="black" stroke-dasharray="1,5" d="M747.17,-557C780.24,-557 818.21,-557 818.21,-557 818.21,-557 818.21,-318.18 818.21,-318.18"/>
<polygon fill="black" stroke="black" points="821.71,-318.18 818.21,-308.18 814.71,-318.18 821.71,-318.18"/>
</g>
<!-- :data:musicbrainz -->
<g id="node10" class="node">
<title>:data:musicbrainz</title>
<ellipse fill="#b59aff" stroke="black" cx="675.04" cy="-155" rx="93.68" ry="18"/>
<text text-anchor="middle" x="675.04" y="-151.3" font-family="Times,serif" font-size="14.00">:data:musicbrainz</text>
</g>
<!-- :test&#45;data&#45;&gt;:data:musicbrainz -->
<g id="edge10" class="edge">
<title>:test&#45;data&#45;&gt;:data:musicbrainz</title>
<path fill="none" stroke="black" stroke-dasharray="1,5" d="M644.42,-569C625.6,-569 609.15,-569 609.15,-569 609.15,-569 609.15,-177.84 609.15,-177.84"/>
<polygon fill="black" stroke="black" points="612.65,-177.84 609.15,-167.84 605.65,-177.84 612.65,-177.84"/>
</g>
<!-- :data:coverart -->
<g id="node11" class="node">
<title>:data:coverart</title>
<ellipse fill="#b59aff" stroke="black" cx="699.04" cy="-429" rx="76.09" ry="18"/>
<text text-anchor="middle" x="699.04" y="-425.3" font-family="Times,serif" font-size="14.00">:data:coverart</text>
</g>
<!-- :test&#45;data&#45;&gt;:data:coverart -->
<g id="edge11" class="edge">
<title>:test&#45;data&#45;&gt;:data:coverart</title>
<path fill="none" stroke="black" stroke-dasharray="1,5" d="M680.63,-548.93C680.63,-548.93 680.63,-456.72 680.63,-456.72"/>
<polygon fill="black" stroke="black" points="684.13,-456.72 680.63,-446.72 677.13,-456.72 684.13,-456.72"/>
</g>
<!-- :data:spotify -->
<g id="node12" class="node">
<title>:data:spotify</title>
<ellipse fill="#b59aff" stroke="black" cx="1082.04" cy="-155" rx="68.79" ry="18"/>
<text text-anchor="middle" x="1082.04" y="-151.3" font-family="Times,serif" font-size="14.00">:data:spotify</text>
</g>
<!-- :test&#45;data&#45;&gt;:data:spotify -->
<g id="edge12" class="edge">
<title>:test&#45;data&#45;&gt;:data:spotify</title>
<path fill="none" stroke="black" stroke-dasharray="1,5" d="M747.16,-575C850.03,-575 1082.04,-575 1082.04,-575 1082.04,-575 1082.04,-183.05 1082.04,-183.05"/>
<polygon fill="black" stroke="black" points="1085.54,-183.05 1082.04,-173.05 1078.54,-183.05 1085.54,-183.05"/>
</g>
<!-- :ui:test:screenshot&#45;&gt;:test:image -->
<g id="edge14" class="edge">
<title>:ui:test:screenshot&#45;&gt;:test:image</title>
<path fill="none" stroke="black" stroke-dasharray="1,5" d="M91.65,-552.11C91.65,-552.11 91.65,-455.46 91.65,-455.46"/>
<polygon fill="black" stroke="black" points="95.15,-455.46 91.65,-445.46 88.15,-455.46 95.15,-455.46"/>
</g>
<!-- :ui:core -->
<g id="node13" class="node">
<title>:ui:core</title>
<ellipse fill="#b59aff" stroke="black" cx="310.04" cy="-429" rx="45.49" ry="18"/>
<text text-anchor="middle" x="310.04" y="-425.3" font-family="Times,serif" font-size="14.00">:ui:core</text>
</g>
<!-- :ui:test:screenshot&#45;&gt;:ui:core -->
<g id="edge13" class="edge">
<title>:ui:test:screenshot&#45;&gt;:ui:core</title>
<path fill="none" stroke="black" stroke-dasharray="1,5" d="M236.34,-556.15C236.34,-524.73 236.34,-429 236.34,-429 236.34,-429 254.21,-429 254.21,-429"/>
<polygon fill="black" stroke="black" points="254.21,-432.5 264.21,-429 254.21,-425.5 254.21,-432.5"/>
</g>
<!-- :ui:image&#45;&gt;:shared:domain -->
<g id="edge15" class="edge">
<title>:ui:image&#45;&gt;:shared:domain</title>
<path fill="none" stroke="black" stroke-dasharray="1,5" d="M366.06,-555C416.06,-555 491.8,-555 491.8,-555 491.8,-555 491.8,-43.49 491.8,-43.49"/>
<polygon fill="black" stroke="black" points="495.3,-43.49 491.8,-33.49 488.3,-43.49 495.3,-43.49"/>
</g>
<!-- :ui:image&#45;&gt;:ui:core -->
<g id="edge16" class="edge">
<title>:ui:image&#45;&gt;:ui:core</title>
<path fill="none" stroke="black" stroke-dasharray="1,5" d="M312.32,-548.09C312.32,-548.09 312.32,-457.35 312.32,-457.35"/>
<polygon fill="black" stroke="black" points="315.82,-457.35 312.32,-447.35 308.82,-457.35 315.82,-457.35"/>
</g>
<!-- :ui:common&#45;&gt;:test&#45;data -->
<g id="edge17" class="edge">
<title>:ui:common&#45;&gt;:test&#45;data</title>
<path fill="none" stroke="#ff9ab1" stroke-dasharray="1,5" d="M572.8,-703C621.77,-703 680.63,-703 680.63,-703 680.63,-703 680.63,-593.07 680.63,-593.07"/>
<polygon fill="#ff9ab1" stroke="#ff9ab1" points="684.13,-593.07 680.63,-583.07 677.13,-593.07 684.13,-593.07"/>
</g>
<!-- :ui:common&#45;&gt;:ui:test:screenshot -->
<g id="edge18" class="edge">
<title>:ui:common&#45;&gt;:ui:test:screenshot</title>
<path fill="none" stroke="#ff9ab1" stroke-dasharray="1,5" d="M443.33,-703C349.38,-703 186.32,-703 186.32,-703 186.32,-703 186.32,-593.07 186.32,-593.07"/>
<polygon fill="#ff9ab1" stroke="#ff9ab1" points="189.82,-593.07 186.32,-583.07 182.82,-593.07 189.82,-593.07"/>
</g>
<!-- :ui:common&#45;&gt;:shared:domain -->
<g id="edge20" class="edge">
<title>:ui:common&#45;&gt;:shared:domain</title>
<path fill="none" stroke="black" d="M532.09,-686.07C532.09,-686.07 532.09,-46.21 532.09,-46.21"/>
<polygon fill="black" stroke="black" points="535.59,-46.21 532.09,-36.21 528.59,-46.21 535.59,-46.21"/>
</g>
<!-- :ui:common&#45;&gt;:ui:image -->
<g id="edge25" class="edge">
<title>:ui:common&#45;&gt;:ui:image</title>
<path fill="none" stroke="black" stroke-dasharray="1,5" d="M446.3,-697.64C446.3,-671.89 446.3,-562 446.3,-562 446.3,-562 385.67,-562 385.67,-562"/>
<polygon fill="black" stroke="black" points="385.67,-558.5 375.67,-562 385.67,-565.5 385.67,-558.5"/>
</g>
<!-- :ui:common&#45;&gt;:core:coroutines -->
<g id="edge19" class="edge">
<title>:ui:common&#45;&gt;:core:coroutines</title>
<path fill="none" stroke="#ff9ab1" stroke-dasharray="1,5" d="M568.76,-709C692.38,-709 961.72,-709 961.72,-709 961.72,-709 961.72,-179.53 961.72,-179.53"/>
<polygon fill="#ff9ab1" stroke="#ff9ab1" points="965.22,-179.53 961.72,-169.53 958.22,-179.53 965.22,-179.53"/>
</g>
<!-- :ui:common&#45;&gt;:data:musicbrainz -->
<g id="edge23" class="edge">
<title>:ui:common&#45;&gt;:data:musicbrainz</title>
<path fill="none" stroke="black" stroke-dasharray="1,5" d="M556.01,-691C576.29,-691 595.3,-691 595.3,-691 595.3,-691 595.3,-174.76 595.3,-174.76"/>
<polygon fill="black" stroke="black" points="598.8,-174.76 595.3,-164.76 591.8,-174.76 598.8,-174.76"/>
</g>
<!-- :ui:common&#45;&gt;:data:coverart -->
<g id="edge22" class="edge">
<title>:ui:common&#45;&gt;:data:coverart</title>
<path fill="none" stroke="black" stroke-dasharray="1,5" d="M568.89,-697C600.83,-697 633.4,-697 633.4,-697 633.4,-697 633.4,-448.23 633.4,-448.23"/>
<polygon fill="black" stroke="black" points="636.9,-448.23 633.4,-438.23 629.9,-448.23 636.9,-448.23"/>
</g>
<!-- :ui:common&#45;&gt;:ui:core -->
<g id="edge21" class="edge">
<title>:ui:common&#45;&gt;:ui:core</title>
<path fill="none" stroke="black" d="M448.9,-695.8C448.9,-651.97 448.9,-423 448.9,-423 448.9,-423 363.22,-423 363.22,-423"/>
<polygon fill="black" stroke="black" points="363.22,-419.5 353.22,-423 363.22,-426.5 363.22,-419.5"/>
</g>
<!-- :core:logging:api -->
<g id="node14" class="node">
<title>:core:logging:api</title>
<ellipse fill="#b59aff" stroke="black" cx="1130.04" cy="-18" rx="88.28" ry="18"/>
<text text-anchor="middle" x="1130.04" y="-14.3" font-family="Times,serif" font-size="14.00">:core:logging:api</text>
</g>
<!-- :ui:common&#45;&gt;:core:logging:api -->
<g id="edge24" class="edge">
<title>:ui:common&#45;&gt;:core:logging:api</title>
<path fill="none" stroke="black" stroke-dasharray="1,5" d="M556.14,-715C712.43,-715 1195.94,-715 1195.94,-715 1195.94,-715 1195.94,-40.1 1195.94,-40.1"/>
<polygon fill="black" stroke="black" points="1199.44,-40.1 1195.94,-30.1 1192.44,-40.1 1199.44,-40.1"/>
</g>
<!-- :data:database&#45;&gt;:shared:domain -->
<g id="edge26" class="edge">
<title>:data:database&#45;&gt;:shared:domain</title>
<path fill="none" stroke="black" stroke-dasharray="1,5" d="M702.74,-292C645.85,-292 579.19,-292 579.19,-292 579.19,-292 579.19,-43.12 579.19,-43.12"/>
<polygon fill="black" stroke="black" points="582.69,-43.12 579.19,-33.12 575.69,-43.12 582.69,-43.12"/>
</g>
<!-- :data:database&#45;&gt;:core:coroutines -->
<g id="edge27" class="edge">
<title>:data:database&#45;&gt;:core:coroutines</title>
<path fill="none" stroke="black" stroke-dasharray="1,5" d="M843.12,-280.32C843.12,-280.32 843.12,-176.27 843.12,-176.27"/>
<polygon fill="black" stroke="black" points="846.62,-176.27 843.12,-166.27 839.62,-176.27 846.62,-176.27"/>
</g>
<!-- :data:database&#45;&gt;:data:musicbrainz -->
<g id="edge28" class="edge">
<title>:data:database&#45;&gt;:data:musicbrainz</title>
<path fill="none" stroke="black" stroke-dasharray="1,5" d="M735.69,-277.34C735.69,-277.34 735.69,-178.74 735.69,-178.74"/>
<polygon fill="black" stroke="black" points="739.19,-178.74 735.69,-168.74 732.19,-178.74 739.19,-178.74"/>
</g>
<!-- :data:musicbrainz&#45;&gt;:shared:domain -->
<g id="edge29" class="edge">
<title>:data:musicbrainz&#45;&gt;:shared:domain</title>
<path fill="none" stroke="black" stroke-dasharray="1,5" d="M599.02,-144.25C599.02,-144.25 599.02,-39.47 599.02,-39.47"/>
<polygon fill="black" stroke="black" points="602.52,-39.47 599.02,-29.47 595.52,-39.47 602.52,-39.47"/>
</g>
<!-- :data:musicbrainz&#45;&gt;:core:logging:api -->
<g id="edge30" class="edge">
<title>:data:musicbrainz&#45;&gt;:core:logging:api</title>
<path fill="none" stroke="black" stroke-dasharray="1,5" d="M692.61,-137.18C692.61,-98.84 692.61,-12 692.61,-12 692.61,-12 1036.48,-12 1036.48,-12"/>
<polygon fill="black" stroke="black" points="1036.48,-15.5 1046.48,-12 1036.48,-8.5 1036.48,-15.5"/>
</g>
<!-- :data:coverart&#45;&gt;:test&#45;data -->
<g id="edge34" class="edge">
<title>:data:coverart&#45;&gt;:test&#45;data</title>
<path fill="none" stroke="#ff9ab1" stroke-dasharray="1,5" d="M717.46,-446.63C717.46,-446.63 717.46,-538.87 717.46,-538.87"/>
<polygon fill="#ff9ab1" stroke="#ff9ab1" points="713.96,-538.87 717.46,-548.87 720.96,-538.87 713.96,-538.87"/>
</g>
<!-- :data:coverart&#45;&gt;:shared:domain -->
<g id="edge31" class="edge">
<title>:data:coverart&#45;&gt;:shared:domain</title>
<path fill="none" stroke="black" stroke-dasharray="1,5" d="M627.3,-435C600.72,-435 576.92,-435 576.92,-435 576.92,-435 576.92,-43.84 576.92,-43.84"/>
<polygon fill="black" stroke="black" points="580.42,-43.84 576.92,-33.84 573.42,-43.84 580.42,-43.84"/>
</g>
<!-- :data:coverart&#45;&gt;:core:coroutines -->
<g id="edge33" class="edge">
<title>:data:coverart&#45;&gt;:core:coroutines</title>
<path fill="none" stroke="black" stroke-dasharray="1,5" d="M770.82,-423C826.69,-423 894.8,-423 894.8,-423 894.8,-423 894.8,-183 894.8,-183"/>
<polygon fill="black" stroke="black" points="898.3,-183 894.8,-173 891.3,-183 898.3,-183"/>
</g>
<!-- :data:coverart&#45;&gt;:data:database -->
<g id="edge36" class="edge">
<title>:data:coverart&#45;&gt;:data:database</title>
<path fill="none" stroke="#ff9ab1" stroke-dasharray="1,5" d="M738.92,-413.55C738.92,-413.55 738.92,-317.18 738.92,-317.18"/>
<polygon fill="#ff9ab1" stroke="#ff9ab1" points="742.42,-317.18 738.92,-307.18 735.42,-317.18 742.42,-317.18"/>
</g>
<!-- :data:coverart&#45;&gt;:data:musicbrainz -->
<g id="edge35" class="edge">
<title>:data:coverart&#45;&gt;:data:musicbrainz</title>
<path fill="none" stroke="#ff9ab1" stroke-dasharray="1,5" d="M662.88,-413.08C662.88,-413.08 662.88,-183.08 662.88,-183.08"/>
<polygon fill="#ff9ab1" stroke="#ff9ab1" points="666.38,-183.08 662.88,-173.08 659.38,-183.08 666.38,-183.08"/>
</g>
<!-- :data:coverart&#45;&gt;:core:logging:api -->
<g id="edge32" class="edge">
<title>:data:coverart&#45;&gt;:core:logging:api</title>
<path fill="none" stroke="black" stroke-dasharray="1,5" d="M770.84,-435C903.46,-435 1173.44,-435 1173.44,-435 1173.44,-435 1173.44,-43.84 1173.44,-43.84"/>
<polygon fill="black" stroke="black" points="1176.94,-43.84 1173.44,-33.84 1169.94,-43.84 1176.94,-43.84"/>
</g>
<!-- :data:spotify&#45;&gt;:shared:domain -->
<g id="edge37" class="edge">
<title>:data:spotify&#45;&gt;:shared:domain</title>
<path fill="none" stroke="black" stroke-dasharray="1,5" d="M1027.4,-143.83C1027.4,-112.15 1027.4,-24 1027.4,-24 1027.4,-24 621.95,-24 621.95,-24"/>
<polygon fill="black" stroke="black" points="621.95,-20.5 611.95,-24 621.95,-27.5 621.95,-20.5"/>
</g>
<!-- :data:spotify&#45;&gt;:core:logging:api -->
<g id="edge38" class="edge">
<title>:data:spotify&#45;&gt;:core:logging:api</title>
<path fill="none" stroke="black" stroke-dasharray="1,5" d="M1096.3,-137.37C1096.3,-137.37 1096.3,-44.7 1096.3,-44.7"/>
<polygon fill="black" stroke="black" points="1099.8,-44.7 1096.3,-34.7 1092.8,-44.7 1099.8,-44.7"/>
</g>
<!-- :shared:strings -->
<g id="node15" class="node">
<title>:shared:strings</title>
<ellipse fill="#b59aff" stroke="black" cx="303.04" cy="-292" rx="81.49" ry="18"/>
<text text-anchor="middle" x="303.04" y="-288.3" font-family="Times,serif" font-size="14.00">:shared:strings</text>
</g>
<!-- :ui:core&#45;&gt;:shared:strings -->
<g id="edge39" class="edge">
<title>:ui:core&#45;&gt;:shared:strings</title>
<path fill="none" stroke="black" d="M310.04,-410.81C310.04,-410.81 310.04,-320.27 310.04,-320.27"/>
<polygon fill="black" stroke="black" points="313.54,-320.27 310.04,-310.27 306.54,-320.27 313.54,-320.27"/>
</g>
</g>
</svg>
