<?xml version="1.0" encoding="UTF-8" standalone="no"?>
<!DOCTYPE svg PUBLIC "-//W3C//DTD SVG 1.1//EN"
 "http://www.w3.org/Graphics/SVG/1.1/DTD/svg11.dtd">
<!-- Generated by graphviz version 2.43.0 (0)
 -->
<!-- Title: %3 Pages: 1 -->
<svg width="1078pt" height="666pt"
 viewBox="0.00 0.00 1077.94 666.00" xmlns="http://www.w3.org/2000/svg" xmlns:xlink="http://www.w3.org/1999/xlink">
<g id="graph0" class="graph" transform="scale(1 1) rotate(0) translate(4 662)">
<title>%3</title>
<polygon fill="white" stroke="transparent" points="-4,4 -4,-662 1073.94,-662 1073.94,4 -4,4"/>
<text text-anchor="middle" x="534.97" y="-630" font-family="Times,serif" font-size="30.00">Dependencies</text>
<text text-anchor="middle" x="534.97" y="-597" font-family="Times,serif" font-size="30.00"> </text>
<!-- :shared:feature:images -->
<g id="node1" class="node">
<title>:shared:feature:images</title>
<polygon fill="#b59aff" stroke="black" points="405.04,-584 223.04,-584 223.04,-548 405.04,-548 405.04,-584"/>
<text text-anchor="middle" x="314.04" y="-562.3" font-family="Times,serif" font-size="14.00">:shared:feature:images</text>
</g>
<!-- :test:image -->
<g id="node2" class="node">
<title>:test:image</title>
<ellipse fill="#9affb5" stroke="black" cx="63.04" cy="-155" rx="63.09" ry="18"/>
<text text-anchor="middle" x="63.04" y="-151.3" font-family="Times,serif" font-size="14.00">:test:image</text>
</g>
<!-- :shared:feature:images&#45;&gt;:test:image -->
<g id="edge1" class="edge">
<title>:shared:feature:images&#45;&gt;:test:image</title>
<path fill="none" stroke="black" stroke-dasharray="1,5" d="M234.41,-547.81C234.41,-469.01 234.41,-161 234.41,-161 234.41,-161 132.5,-161 132.5,-161"/>
<polygon fill="black" stroke="black" points="132.5,-157.5 122.5,-161 132.5,-164.5 132.5,-157.5"/>
</g>
<!-- :test&#45;data -->
<g id="node3" class="node">
<title>:test&#45;data</title>
<ellipse fill="#b59aff" stroke="black" cx="744.04" cy="-429" rx="55.49" ry="18"/>
<text text-anchor="middle" x="744.04" y="-425.3" font-family="Times,serif" font-size="14.00">:test&#45;data</text>
</g>
<!-- :shared:feature:images&#45;&gt;:test&#45;data -->
<g id="edge2" class="edge">
<title>:shared:feature:images&#45;&gt;:test&#45;data</title>
<path fill="none" stroke="#ff9ab1" stroke-dasharray="1,5" d="M405.24,-572C531.46,-572 744.04,-572 744.04,-572 744.04,-572 744.04,-457.11 744.04,-457.11"/>
<polygon fill="#ff9ab1" stroke="#ff9ab1" points="747.54,-457.11 744.04,-447.11 740.54,-457.11 747.54,-457.11"/>
</g>
<!-- :ui:test:screenshot -->
<g id="node4" class="node">
<title>:ui:test:screenshot</title>
<ellipse fill="#9affb5" stroke="black" cx="125.04" cy="-292" rx="96.68" ry="18"/>
<text text-anchor="middle" x="125.04" y="-288.3" font-family="Times,serif" font-size="14.00">:ui:test:screenshot</text>
</g>
<!-- :shared:feature:images&#45;&gt;:ui:test:screenshot -->
<g id="edge3" class="edge">
<title>:shared:feature:images&#45;&gt;:ui:test:screenshot</title>
<path fill="none" stroke="#ff9ab1" stroke-dasharray="1,5" d="M228.73,-547.6C228.73,-486.16 228.73,-292 228.73,-292 228.73,-292 228.05,-292 228.05,-292"/>
<polygon fill="#ff9ab1" stroke="#ff9ab1" points="231.93,-288.5 221.93,-292 231.93,-295.5 231.93,-288.5"/>
</g>
<!-- :shared:domain -->
<g id="node5" class="node">
<title>:shared:domain</title>
<ellipse fill="#b59aff" stroke="black" cx="556.04" cy="-155" rx="82.59" ry="18"/>
<text text-anchor="middle" x="556.04" y="-151.3" font-family="Times,serif" font-size="14.00">:shared:domain</text>
</g>
<!-- :shared:feature:images&#45;&gt;:shared:domain -->
<g id="edge4" class="edge">
<title>:shared:feature:images&#45;&gt;:shared:domain</title>
<path fill="none" stroke="black" stroke-dasharray="1,5" d="M405.15,-560C429.38,-560 448.95,-560 448.95,-560 448.95,-560 448.95,-165 448.95,-165 448.95,-165 477.31,-165 477.31,-165"/>
<polygon fill="black" stroke="black" points="477.31,-168.5 487.31,-165 477.31,-161.5 477.31,-168.5"/>
</g>
<!-- :ui:image -->
<g id="node6" class="node">
<title>:ui:image</title>
<ellipse fill="#b59aff" stroke="black" cx="294.04" cy="-292" rx="53.89" ry="18"/>
<text text-anchor="middle" x="294.04" y="-288.3" font-family="Times,serif" font-size="14.00">:ui:image</text>
</g>
<!-- :shared:feature:images&#45;&gt;:ui:image -->
<g id="edge5" class="edge">
<title>:shared:feature:images&#45;&gt;:ui:image</title>
<path fill="none" stroke="black" stroke-dasharray="1,5" d="M267.9,-547.6C267.9,-547.6 267.9,-317.88 267.9,-317.88"/>
<polygon fill="black" stroke="black" points="271.4,-317.88 267.9,-307.88 264.4,-317.88 271.4,-317.88"/>
</g>
<!-- :ui:common -->
<g id="node7" class="node">
<title>:ui:common</title>
<ellipse fill="#b59aff" stroke="black" cx="360.04" cy="-429" rx="64.19" ry="18"/>
<text text-anchor="middle" x="360.04" y="-425.3" font-family="Times,serif" font-size="14.00">:ui:common</text>
</g>
<!-- :shared:feature:images&#45;&gt;:ui:common -->
<g id="edge6" class="edge">
<title>:shared:feature:images&#45;&gt;:ui:common</title>
<path fill="none" stroke="black" stroke-dasharray="1,5" d="M350.37,-547.81C350.37,-547.81 350.37,-456.83 350.37,-456.83"/>
<polygon fill="black" stroke="black" points="353.87,-456.83 350.37,-446.83 346.87,-456.83 353.87,-456.83"/>
</g>
<!-- :test&#45;data&#45;&gt;:shared:domain -->
<g id="edge7" class="edge">
<title>:test&#45;data&#45;&gt;:shared:domain</title>
<path fill="none" stroke="black" stroke-dasharray="1,5" d="M700.29,-418C674.74,-418 647.49,-418 647.49,-418 647.49,-418 647.49,-165 647.49,-165 647.49,-165 634.88,-165 634.88,-165"/>
<polygon fill="black" stroke="black" points="634.88,-161.5 624.88,-165 634.88,-168.5 634.88,-161.5"/>
</g>
<!-- :data:musicbrainz -->
<g id="node8" class="node">
<title>:data:musicbrainz</title>
<ellipse fill="#b59aff" stroke="black" cx="744.04" cy="-292" rx="93.68" ry="18"/>
<text text-anchor="middle" x="744.04" y="-288.3" font-family="Times,serif" font-size="14.00">:data:musicbrainz</text>
</g>
<!-- :test&#45;data&#45;&gt;:data:musicbrainz -->
<g id="edge8" class="edge">
<title>:test&#45;data&#45;&gt;:data:musicbrainz</title>
<path fill="none" stroke="black" stroke-dasharray="1,5" d="M744.04,-410.81C744.04,-410.81 744.04,-320.27 744.04,-320.27"/>
<polygon fill="black" stroke="black" points="747.54,-320.27 744.04,-310.27 740.54,-320.27 747.54,-320.27"/>
</g>
<!-- :data:coverart -->
<g id="node9" class="node">
<title>:data:coverart</title>
<ellipse fill="#b59aff" stroke="black" cx="556.04" cy="-292" rx="76.09" ry="18"/>
<text text-anchor="middle" x="556.04" y="-288.3" font-family="Times,serif" font-size="14.00">:data:coverart</text>
</g>
<!-- :test&#45;data&#45;&gt;:data:coverart -->
<g id="edge9" class="edge">
<title>:test&#45;data&#45;&gt;:data:coverart</title>
<path fill="none" stroke="black" stroke-dasharray="1,5" d="M690.17,-425C634.62,-425 556.04,-425 556.04,-425 556.04,-425 556.04,-320.21 556.04,-320.21"/>
<polygon fill="black" stroke="black" points="559.54,-320.21 556.04,-310.21 552.54,-320.21 559.54,-320.21"/>
</g>
<!-- :data:spotify -->
<g id="node10" class="node">
<title>:data:spotify</title>
<ellipse fill="#b59aff" stroke="black" cx="1001.04" cy="-292" rx="68.79" ry="18"/>
<text text-anchor="middle" x="1001.04" y="-288.3" font-family="Times,serif" font-size="14.00">:data:spotify</text>
</g>
<!-- :test&#45;data&#45;&gt;:data:spotify -->
<g id="edge10" class="edge">
<title>:test&#45;data&#45;&gt;:data:spotify</title>
<path fill="none" stroke="black" stroke-dasharray="1,5" d="M799.49,-429C875.04,-429 1001.04,-429 1001.04,-429 1001.04,-429 1001.04,-320.19 1001.04,-320.19"/>
<polygon fill="black" stroke="black" points="1004.54,-320.19 1001.04,-310.19 997.54,-320.19 1004.54,-320.19"/>
</g>
<!-- :ui:test:screenshot&#45;&gt;:test:image -->
<g id="edge12" class="edge">
<title>:ui:test:screenshot&#45;&gt;:test:image</title>
<path fill="none" stroke="black" stroke-dasharray="1,5" d="M77.15,-276.28C77.15,-276.28 77.15,-182.69 77.15,-182.69"/>
<polygon fill="black" stroke="black" points="80.65,-182.69 77.15,-172.69 73.65,-182.69 80.65,-182.69"/>
</g>
<!-- :ui:core -->
<g id="node11" class="node">
<title>:ui:core</title>
<ellipse fill="#b59aff" stroke="black" cx="294.04" cy="-155" rx="45.49" ry="18"/>
<text text-anchor="middle" x="294.04" y="-151.3" font-family="Times,serif" font-size="14.00">:ui:core</text>
</g>
<!-- :ui:test:screenshot&#45;&gt;:ui:core -->
<g id="edge11" class="edge">
<title>:ui:test:screenshot&#45;&gt;:ui:core</title>
<path fill="none" stroke="black" stroke-dasharray="1,5" d="M217.34,-286.22C217.34,-259.46 217.34,-149 217.34,-149 217.34,-149 240.76,-149 240.76,-149"/>
<polygon fill="black" stroke="black" points="240.76,-152.5 250.76,-149 240.76,-145.5 240.76,-152.5"/>
</g>
<!-- :ui:image&#45;&gt;:shared:domain -->
<g id="edge13" class="edge">
<title>:ui:image&#45;&gt;:shared:domain</title>
<path fill="none" stroke="black" stroke-dasharray="1,5" d="M343.76,-284.86C343.76,-255.3 343.76,-144 343.76,-144 343.76,-144 480.62,-144 480.62,-144"/>
<polygon fill="black" stroke="black" points="480.62,-147.5 490.62,-144 480.62,-140.5 480.62,-147.5"/>
</g>
<!-- :ui:image&#45;&gt;:ui:core -->
<g id="edge14" class="edge">
<title>:ui:image&#45;&gt;:ui:core</title>
<path fill="none" stroke="black" stroke-dasharray="1,5" d="M294.04,-273.81C294.04,-273.81 294.04,-183.27 294.04,-183.27"/>
<polygon fill="black" stroke="black" points="297.54,-183.27 294.04,-173.27 290.54,-183.27 297.54,-183.27"/>
</g>
<!-- :ui:common&#45;&gt;:ui:test:screenshot -->
<g id="edge15" class="edge">
<title>:ui:common&#45;&gt;:ui:test:screenshot</title>
<path fill="none" stroke="#ff9ab1" stroke-dasharray="1,5" d="M295.52,-429C225.95,-429 125.04,-429 125.04,-429 125.04,-429 125.04,-320.19 125.04,-320.19"/>
<polygon fill="#ff9ab1" stroke="#ff9ab1" points="128.54,-320.19 125.04,-310.19 121.54,-320.19 128.54,-320.19"/>
</g>
<!-- :ui:common&#45;&gt;:shared:domain -->
<g id="edge16" class="edge">
<title>:ui:common&#45;&gt;:shared:domain</title>
<path fill="none" stroke="black" d="M391.65,-413.26C391.65,-355.42 391.65,-158 391.65,-158 391.65,-158 464.33,-158 464.33,-158"/>
<polygon fill="black" stroke="black" points="464.33,-161.5 474.33,-158 464.33,-154.5 464.33,-161.5"/>
</g>
<!-- :ui:common&#45;&gt;:ui:image -->
<g id="edge21" class="edge">
<title>:ui:common&#45;&gt;:ui:image</title>
<path fill="none" stroke="black" stroke-dasharray="1,5" d="M321.84,-414.34C321.84,-414.34 321.84,-317.82 321.84,-317.82"/>
<polygon fill="black" stroke="black" points="325.34,-317.82 321.84,-307.82 318.34,-317.82 325.34,-317.82"/>
</g>
<!-- :ui:common&#45;&gt;:data:musicbrainz -->
<g id="edge19" class="edge">
<title>:ui:common&#45;&gt;:data:musicbrainz</title>
<path fill="none" stroke="black" stroke-dasharray="1,5" d="M413.62,-439C502.22,-439 669.63,-439 669.63,-439 669.63,-439 669.63,-313.05 669.63,-313.05"/>
<polygon fill="black" stroke="black" points="673.13,-313.05 669.63,-303.05 666.13,-313.05 673.13,-313.05"/>
</g>
<!-- :ui:common&#45;&gt;:data:coverart -->
<g id="edge18" class="edge">
<title>:ui:common&#45;&gt;:data:coverart</title>
<path fill="none" stroke="black" stroke-dasharray="1,5" d="M408.02,-416.84C408.02,-383.31 408.02,-292 408.02,-292 408.02,-292 469.86,-292 469.86,-292"/>
<polygon fill="black" stroke="black" points="469.86,-295.5 479.86,-292 469.86,-288.5 469.86,-295.5"/>
</g>
<!-- :ui:common&#45;&gt;:ui:core -->
<g id="edge17" class="edge">
<title>:ui:common&#45;&gt;:ui:core</title>
<path fill="none" stroke="black" d="M361.64,-410.76C361.64,-348.91 361.64,-151 361.64,-151 361.64,-151 348.75,-151 348.75,-151"/>
<polygon fill="black" stroke="black" points="348.75,-147.5 338.75,-151 348.75,-154.5 348.75,-147.5"/>
</g>
<!-- :core:logging:api -->
<g id="node12" class="node">
<title>:core:logging:api</title>
<ellipse fill="#b59aff" stroke="black" cx="824.04" cy="-155" rx="88.28" ry="18"/>
<text text-anchor="middle" x="824.04" y="-151.3" font-family="Times,serif" font-size="14.00">:core:logging:api</text>
</g>
<!-- :ui:common&#45;&gt;:core:logging:api -->
<g id="edge20" class="edge">
<title>:ui:common&#45;&gt;:core:logging:api</title>
<path fill="none" stroke="black" stroke-dasharray="1,5" d="M423.53,-432C507.37,-432 644.52,-432 644.52,-432 644.52,-432 644.52,-158 644.52,-158 644.52,-158 726.65,-158 726.65,-158"/>
<polygon fill="black" stroke="black" points="726.65,-161.5 736.65,-158 726.65,-154.5 726.65,-161.5"/>
</g>
<!-- :data:musicbrainz&#45;&gt;:shared:domain -->
<g id="edge22" class="edge">
<title>:data:musicbrainz&#45;&gt;:shared:domain</title>
<path fill="none" stroke="black" stroke-dasharray="1,5" d="M693.05,-276.72C693.05,-238.91 693.05,-144 693.05,-144 693.05,-144 631.74,-144 631.74,-144"/>
<polygon fill="black" stroke="black" points="631.74,-140.5 621.74,-144 631.74,-147.5 631.74,-140.5"/>
</g>
<!-- :data:musicbrainz&#45;&gt;:core:logging:api -->
<g id="edge23" class="edge">
<title>:data:musicbrainz&#45;&gt;:core:logging:api</title>
<path fill="none" stroke="black" stroke-dasharray="1,5" d="M786.64,-275.75C786.64,-275.75 786.64,-181.66 786.64,-181.66"/>
<polygon fill="black" stroke="black" points="790.14,-181.66 786.64,-171.66 783.14,-181.66 790.14,-181.66"/>
</g>
<!-- :data:coverart&#45;&gt;:shared:domain -->
<g id="edge24" class="edge">
<title>:data:coverart&#45;&gt;:shared:domain</title>
<path fill="none" stroke="black" stroke-dasharray="1,5" d="M530.7,-274.93C530.7,-274.93 530.7,-182.29 530.7,-182.29"/>
<polygon fill="black" stroke="black" points="534.2,-182.29 530.7,-172.29 527.2,-182.29 534.2,-182.29"/>
</g>
<!-- :data:coverart&#45;&gt;:core:logging:api -->
<g id="edge25" class="edge">
<title>:data:coverart&#45;&gt;:core:logging:api</title>
<path fill="none" stroke="black" stroke-dasharray="1,5" d="M632.4,-292C638.03,-292 641.55,-292 641.55,-292 641.55,-292 641.55,-151 641.55,-151 641.55,-151 727.61,-151 727.61,-151"/>
<polygon fill="black" stroke="black" points="727.61,-154.5 737.61,-151 727.61,-147.5 727.61,-154.5"/>
</g>
<!-- :data:spotify&#45;&gt;:shared:domain -->
<g id="edge26" class="edge">
<title>:data:spotify&#45;&gt;:shared:domain</title>
<path fill="none" stroke="black" stroke-dasharray="1,5" d="M1001.04,-273.87C1001.04,-253.43 1001.04,-223 1001.04,-223 1001.04,-223 581.39,-223 581.39,-223 581.39,-223 581.39,-182.16 581.39,-182.16"/>
<polygon fill="black" stroke="black" points="584.89,-182.16 581.39,-172.16 577.89,-182.16 584.89,-182.16"/>
</g>
<!-- :data:spotify&#45;&gt;:core:logging:api -->
<g id="edge27" class="edge">
<title>:data:spotify&#45;&gt;:core:logging:api</title>
<path fill="none" stroke="black" stroke-dasharray="1,5" d="M932.14,-292C902.72,-292 875.04,-292 875.04,-292 875.04,-292 875.04,-179.92 875.04,-179.92"/>
<polygon fill="black" stroke="black" points="878.54,-179.92 875.04,-169.92 871.54,-179.92 878.54,-179.92"/>
</g>
<!-- :shared:strings -->
<g id="node13" class="node">
<title>:shared:strings</title>
<ellipse fill="#b59aff" stroke="black" cx="294.04" cy="-18" rx="81.49" ry="18"/>
<text text-anchor="middle" x="294.04" y="-14.3" font-family="Times,serif" font-size="14.00">:shared:strings</text>
</g>
<!-- :ui:core&#45;&gt;:shared:strings -->
<g id="edge28" class="edge">
<title>:ui:core&#45;&gt;:shared:strings</title>
<path fill="none" stroke="black" d="M294.04,-136.81C294.04,-136.81 294.04,-46.27 294.04,-46.27"/>
<polygon fill="black" stroke="black" points="297.54,-46.27 294.04,-36.27 290.54,-46.27 297.54,-46.27"/>
</g>
</g>
</svg>
