<?xml version="1.0" encoding="UTF-8" standalone="no"?>
<!DOCTYPE svg PUBLIC "-//W3C//DTD SVG 1.1//EN"
 "http://www.w3.org/Graphics/SVG/1.1/DTD/svg11.dtd">
<!-- Generated by graphviz version 2.43.0 (0)
 -->
<!-- Title: %3 Pages: 1 -->
<svg width="447pt" height="496pt"
 viewBox="0.00 0.00 447.48 496.00" xmlns="http://www.w3.org/2000/svg" xmlns:xlink="http://www.w3.org/1999/xlink">
<g id="graph0" class="graph" transform="scale(1 1) rotate(0) translate(4 492)">
<title>%3</title>
<polygon fill="white" stroke="transparent" points="-4,4 -4,-492 443.48,-492 443.48,4 -4,4"/>
<text text-anchor="middle" x="219.74" y="-460" font-family="Times,serif" font-size="30.00">Dependents</text>
<text text-anchor="middle" x="219.74" y="-427" font-family="Times,serif" font-size="30.00"> </text>
<!-- :test&#45;data -->
<g id="node1" class="node">
<title>:test&#45;data</title>
<polygon fill="#b59aff" stroke="black" points="85,-225 0,-225 0,-189 85,-189 85,-225"/>
<text text-anchor="middle" x="42.5" y="-203.3" font-family="Times,serif" font-size="14.00">:test&#45;data</text>
</g>
<!-- :data:spotify -->
<g id="node2" class="node">
<title>:data:spotify</title>
<ellipse fill="#b59aff" stroke="black" cx="312.74" cy="-396" rx="68.79" ry="18"/>
<text text-anchor="middle" x="312.74" y="-392.3" font-family="Times,serif" font-size="14.00">:data:spotify</text>
</g>
<!-- :data:spotify&#45;&gt;:test&#45;data -->
<g id="edge1" class="edge">
<title>:data:spotify&#45;&gt;:test&#45;data</title>
<path fill="none" stroke="#ff9ab1" stroke-dasharray="1,5" d="M243.6,-396C157.33,-396 21,-396 21,-396 21,-396 21,-235.12 21,-235.12"/>
<polygon fill="#ff9ab1" stroke="#ff9ab1" points="24.5,-235.12 21,-225.12 17.5,-235.12 24.5,-235.12"/>
</g>
<!-- :data:repository -->
<g id="node3" class="node">
<title>:data:repository</title>
<ellipse fill="#b59aff" stroke="black" cx="312.74" cy="-342" rx="85.29" ry="18"/>
<text text-anchor="middle" x="312.74" y="-338.3" font-family="Times,serif" font-size="14.00">:data:repository</text>
</g>
<!-- :data:repository&#45;&gt;:test&#45;data -->
<g id="edge2" class="edge">
<title>:data:repository&#45;&gt;:test&#45;data</title>
<path fill="none" stroke="#ff9ab1" stroke-dasharray="1,5" d="M227.45,-342C148.09,-342 42,-342 42,-342 42,-342 42,-235.21 42,-235.21"/>
<polygon fill="#ff9ab1" stroke="#ff9ab1" points="45.5,-235.21 42,-225.21 38.5,-235.21 45.5,-235.21"/>
</g>
<!-- :ui:common -->
<g id="node4" class="node">
<title>:ui:common</title>
<ellipse fill="#b59aff" stroke="black" cx="312.74" cy="-288" rx="64.19" ry="18"/>
<text text-anchor="middle" x="312.74" y="-284.3" font-family="Times,serif" font-size="14.00">:ui:common</text>
</g>
<!-- :ui:common&#45;&gt;:test&#45;data -->
<g id="edge3" class="edge">
<title>:ui:common&#45;&gt;:test&#45;data</title>
<path fill="none" stroke="#ff9ab1" stroke-dasharray="1,5" d="M248.1,-288C174.1,-288 63,-288 63,-288 63,-288 63,-235.38 63,-235.38"/>
<polygon fill="#ff9ab1" stroke="#ff9ab1" points="66.5,-235.38 63,-225.38 59.5,-235.38 66.5,-235.38"/>
</g>
<!-- :shared:feature:images -->
<g id="node5" class="node">
<title>:shared:feature:images</title>
<ellipse fill="#b59aff" stroke="black" cx="312.74" cy="-234" rx="118.08" ry="18"/>
<text text-anchor="middle" x="312.74" y="-230.3" font-family="Times,serif" font-size="14.00">:shared:feature:images</text>
</g>
<!-- :shared:feature:images&#45;&gt;:test&#45;data -->
<g id="edge4" class="edge">
<title>:shared:feature:images&#45;&gt;:test&#45;data</title>
<path fill="none" stroke="#ff9ab1" stroke-dasharray="1,5" d="M234.21,-220.5C234.21,-220.5 95.15,-220.5 95.15,-220.5"/>
<polygon fill="#ff9ab1" stroke="#ff9ab1" points="95.15,-217 85.15,-220.5 95.15,-224 95.15,-217"/>
</g>
<!-- :shared:feature:history -->
<g id="node6" class="node">
<title>:shared:feature:history</title>
<ellipse fill="#b59aff" stroke="black" cx="312.74" cy="-180" rx="117.78" ry="18"/>
<text text-anchor="middle" x="312.74" y="-176.3" font-family="Times,serif" font-size="14.00">:shared:feature:history</text>
</g>
<!-- :shared:feature:history&#45;&gt;:test&#45;data -->
<g id="edge5" class="edge">
<title>:shared:feature:history&#45;&gt;:test&#45;data</title>
<path fill="none" stroke="#ff9ab1" stroke-dasharray="1,5" d="M247.67,-195C247.67,-195 95.11,-195 95.11,-195"/>
<polygon fill="#ff9ab1" stroke="#ff9ab1" points="95.11,-191.5 85.11,-195 95.11,-198.5 95.11,-191.5"/>
</g>
<!-- :shared:feature:database -->
<g id="node7" class="node">
<title>:shared:feature:database</title>
<ellipse fill="#b59aff" stroke="black" cx="312.74" cy="-126" rx="126.98" ry="18"/>
<text text-anchor="middle" x="312.74" y="-122.3" font-family="Times,serif" font-size="14.00">:shared:feature:database</text>
</g>
<!-- :shared:feature:database&#45;&gt;:test&#45;data -->
<g id="edge6" class="edge">
<title>:shared:feature:database&#45;&gt;:test&#45;data</title>
<path fill="none" stroke="#ff9ab1" stroke-dasharray="1,5" d="M190,-130.75C190,-145.88 190,-192 190,-192 190,-192 95.16,-192 95.16,-192"/>
<polygon fill="#ff9ab1" stroke="#ff9ab1" points="95.16,-188.5 85.16,-192 95.16,-195.5 95.16,-188.5"/>
</g>
<!-- :shared:feature:listens -->
<g id="node8" class="node">
<title>:shared:feature:listens</title>
<ellipse fill="#b59aff" stroke="black" cx="312.74" cy="-72" rx="115.88" ry="18"/>
<text text-anchor="middle" x="312.74" y="-68.3" font-family="Times,serif" font-size="14.00">:shared:feature:listens</text>
</g>
<!-- :shared:feature:listens&#45;&gt;:test&#45;data -->
<g id="edge7" class="edge">
<title>:shared:feature:listens&#45;&gt;:test&#45;data</title>
<path fill="none" stroke="#ff9ab1" stroke-dasharray="1,5" d="M196.76,-72C128.73,-72 56,-72 56,-72 56,-72 56,-178.79 56,-178.79"/>
<polygon fill="#ff9ab1" stroke="#ff9ab1" points="52.5,-178.79 56,-188.79 59.5,-178.79 52.5,-178.79"/>
</g>
<!-- :shared:feature:details -->
<g id="node9" class="node">
<title>:shared:feature:details</title>
<ellipse fill="#b59aff" stroke="black" cx="312.74" cy="-18" rx="116.18" ry="18"/>
<text text-anchor="middle" x="312.74" y="-14.3" font-family="Times,serif" font-size="14.00">:shared:feature:details</text>
</g>
<!-- :shared:feature:details&#45;&gt;:test&#45;data -->
<g id="edge8" class="edge">
<title>:shared:feature:details&#45;&gt;:test&#45;data</title>
<path fill="none" stroke="#ff9ab1" stroke-dasharray="1,5" d="M196.1,-18C117.47,-18 28,-18 28,-18 28,-18 28,-178.88 28,-178.88"/>
<polygon fill="#ff9ab1" stroke="#ff9ab1" points="24.5,-178.88 28,-188.88 31.5,-178.88 24.5,-178.88"/>
</g>
</g>
</svg>
