<?xml version="1.0" encoding="UTF-8" standalone="no"?>
<!DOCTYPE svg PUBLIC "-//W3C//DTD SVG 1.1//EN"
 "http://www.w3.org/Graphics/SVG/1.1/DTD/svg11.dtd">
<!-- Generated by graphviz version 14.1.2 (0)
 -->
<!-- Pages: 1 -->
<svg width="466pt" height="556pt"
 viewBox="0.00 0.00 466.00 556.00" xmlns="http://www.w3.org/2000/svg" xmlns:xlink="http://www.w3.org/1999/xlink">
<g id="graph0" class="graph" transform="scale(1 1) rotate(0) translate(4 552)">
<polygon fill="white" stroke="none" points="-4,4 -4,-552 462.13,-552 462.13,4 -4,4"/>
<text xml:space="preserve" text-anchor="middle" x="229.06" y="-515.5" font-family="Times,serif" font-size="30.00">Dependents</text>
<text xml:space="preserve" text-anchor="middle" x="229.06" y="-479.5" font-family="Times,serif" font-size="30.00"> </text>
<!-- :test&#45;data -->
<g id="node1" class="node">
<title>:test&#45;data</title>
<polygon fill="#b59aff" stroke="black" points="84.25,-252 0,-252 0,-216 84.25,-216 84.25,-252"/>
<text xml:space="preserve" text-anchor="middle" x="42.12" y="-229.32" font-family="Times,serif" font-size="14.00">:test&#45;data</text>
</g>
<!-- :data:spotify -->
<g id="node2" class="node">
<title>:data:spotify</title>
<ellipse fill="#b59aff" stroke="black" cx="321.69" cy="-450" rx="73.83" ry="18"/>
<text xml:space="preserve" text-anchor="middle" x="321.69" y="-445.32" font-family="Times,serif" font-size="14.00">:data:spotify</text>
</g>
<!-- :data:spotify&#45;&gt;:test&#45;data -->
<g id="edge1" class="edge">
<title>:data:spotify&#45;&gt;:test&#45;data</title>
<path fill="none" stroke="#ff9ab1" stroke-dasharray="1,5" d="M247.54,-450C157.35,-450 17,-450 17,-450 17,-450 17,-263.93 17,-263.93"/>
<polygon fill="#ff9ab1" stroke="#ff9ab1" points="20.5,-263.93 17,-253.93 13.5,-263.93 20.5,-263.93"/>
</g>
<!-- :data:repository -->
<g id="node3" class="node">
<title>:data:repository</title>
<ellipse fill="#b59aff" stroke="black" cx="321.69" cy="-396" rx="91.19" ry="18"/>
<text xml:space="preserve" text-anchor="middle" x="321.69" y="-391.32" font-family="Times,serif" font-size="14.00">:data:repository</text>
</g>
<!-- :data:repository&#45;&gt;:test&#45;data -->
<g id="edge2" class="edge">
<title>:data:repository&#45;&gt;:test&#45;data</title>
<path fill="none" stroke="#ff9ab1" stroke-dasharray="1,5" d="M230.27,-396C146.03,-396 34,-396 34,-396 34,-396 34,-263.78 34,-263.78"/>
<polygon fill="#ff9ab1" stroke="#ff9ab1" points="37.5,-263.78 34,-253.78 30.5,-263.78 37.5,-263.78"/>
</g>
<!-- :ui:common -->
<g id="node4" class="node">
<title>:ui:common</title>
<ellipse fill="#b59aff" stroke="black" cx="321.69" cy="-342" rx="69.1" ry="18"/>
<text xml:space="preserve" text-anchor="middle" x="321.69" y="-337.32" font-family="Times,serif" font-size="14.00">:ui:common</text>
</g>
<!-- :ui:common&#45;&gt;:test&#45;data -->
<g id="edge3" class="edge">
<title>:ui:common&#45;&gt;:test&#45;data</title>
<path fill="none" stroke="#ff9ab1" stroke-dasharray="1,5" d="M252.33,-342C172.13,-342 51,-342 51,-342 51,-342 51,-263.83 51,-263.83"/>
<polygon fill="#ff9ab1" stroke="#ff9ab1" points="54.5,-263.83 51,-253.83 47.5,-263.83 54.5,-263.83"/>
</g>
<!-- :shared:feature:settings -->
<g id="node5" class="node">
<title>:shared:feature:settings</title>
<ellipse fill="#b59aff" stroke="black" cx="321.69" cy="-288" rx="131.7" ry="18"/>
<text xml:space="preserve" text-anchor="middle" x="321.69" y="-283.32" font-family="Times,serif" font-size="14.00">:shared:feature:settings</text>
</g>
<!-- :shared:feature:settings&#45;&gt;:test&#45;data -->
<g id="edge4" class="edge">
<title>:shared:feature:settings&#45;&gt;:test&#45;data</title>
<path fill="none" stroke="#ff9ab1" stroke-dasharray="1,5" d="M189.49,-288C127.48,-288 67,-288 67,-288 67,-288 67,-263.8 67,-263.8"/>
<polygon fill="#ff9ab1" stroke="#ff9ab1" points="70.5,-263.8 67,-253.8 63.5,-263.8 70.5,-263.8"/>
</g>
<!-- :shared:feature:images -->
<g id="node6" class="node">
<title>:shared:feature:images</title>
<ellipse fill="#b59aff" stroke="black" cx="321.69" cy="-234" rx="126.97" ry="18"/>
<text xml:space="preserve" text-anchor="middle" x="321.69" y="-229.32" font-family="Times,serif" font-size="14.00">:shared:feature:images</text>
</g>
<!-- :shared:feature:images&#45;&gt;:test&#45;data -->
<g id="edge5" class="edge">
<title>:shared:feature:images&#45;&gt;:test&#45;data</title>
<path fill="none" stroke="#ff9ab1" stroke-dasharray="1,5" d="M194.59,-234C194.59,-234 96.22,-234 96.22,-234"/>
<polygon fill="#ff9ab1" stroke="#ff9ab1" points="96.22,-230.5 86.22,-234 96.22,-237.5 96.22,-230.5"/>
</g>
<!-- :shared:feature:history -->
<g id="node7" class="node">
<title>:shared:feature:history</title>
<ellipse fill="#b59aff" stroke="black" cx="321.69" cy="-180" rx="126.44" ry="18"/>
<text xml:space="preserve" text-anchor="middle" x="321.69" y="-175.32" font-family="Times,serif" font-size="14.00">:shared:feature:history</text>
</g>
<!-- :shared:feature:history&#45;&gt;:test&#45;data -->
<g id="edge6" class="edge">
<title>:shared:feature:history&#45;&gt;:test&#45;data</title>
<path fill="none" stroke="#ff9ab1" stroke-dasharray="1,5" d="M195.09,-180C131.17,-180 67,-180 67,-180 67,-180 67,-204.2 67,-204.2"/>
<polygon fill="#ff9ab1" stroke="#ff9ab1" points="63.5,-204.2 67,-214.2 70.5,-204.2 63.5,-204.2"/>
</g>
<!-- :shared:feature:database -->
<g id="node8" class="node">
<title>:shared:feature:database</title>
<ellipse fill="#b59aff" stroke="black" cx="321.69" cy="-126" rx="136.44" ry="18"/>
<text xml:space="preserve" text-anchor="middle" x="321.69" y="-121.33" font-family="Times,serif" font-size="14.00">:shared:feature:database</text>
</g>
<!-- :shared:feature:database&#45;&gt;:test&#45;data -->
<g id="edge7" class="edge">
<title>:shared:feature:database&#45;&gt;:test&#45;data</title>
<path fill="none" stroke="#ff9ab1" stroke-dasharray="1,5" d="M184.76,-126C117.62,-126 51,-126 51,-126 51,-126 51,-204.17 51,-204.17"/>
<polygon fill="#ff9ab1" stroke="#ff9ab1" points="47.5,-204.17 51,-214.17 54.5,-204.17 47.5,-204.17"/>
</g>
<!-- :shared:feature:listens -->
<g id="node9" class="node">
<title>:shared:feature:listens</title>
<ellipse fill="#b59aff" stroke="black" cx="321.69" cy="-72" rx="124.34" ry="18"/>
<text xml:space="preserve" text-anchor="middle" x="321.69" y="-67.33" font-family="Times,serif" font-size="14.00">:shared:feature:listens</text>
</g>
<!-- :shared:feature:listens&#45;&gt;:test&#45;data -->
<g id="edge8" class="edge">
<title>:shared:feature:listens&#45;&gt;:test&#45;data</title>
<path fill="none" stroke="#ff9ab1" stroke-dasharray="1,5" d="M197.18,-72C119.43,-72 34,-72 34,-72 34,-72 34,-204.22 34,-204.22"/>
<polygon fill="#ff9ab1" stroke="#ff9ab1" points="30.5,-204.22 34,-214.22 37.5,-204.22 30.5,-204.22"/>
</g>
<!-- :shared:feature:details -->
<g id="node10" class="node">
<title>:shared:feature:details</title>
<ellipse fill="#b59aff" stroke="black" cx="321.69" cy="-18" rx="124.86" ry="18"/>
<text xml:space="preserve" text-anchor="middle" x="321.69" y="-13.32" font-family="Times,serif" font-size="14.00">:shared:feature:details</text>
</g>
<!-- :shared:feature:details&#45;&gt;:test&#45;data -->
<g id="edge9" class="edge">
<title>:shared:feature:details&#45;&gt;:test&#45;data</title>
<path fill="none" stroke="#ff9ab1" stroke-dasharray="1,5" d="M196.44,-18C112.4,-18 17,-18 17,-18 17,-18 17,-204.07 17,-204.07"/>
<polygon fill="#ff9ab1" stroke="#ff9ab1" points="13.5,-204.07 17,-214.07 20.5,-204.07 13.5,-204.07"/>
</g>
</g>
</svg>
