<?xml version="1.0" encoding="UTF-8" standalone="no"?>
<!DOCTYPE svg PUBLIC "-//W3C//DTD SVG 1.1//EN"
 "http://www.w3.org/Graphics/SVG/1.1/DTD/svg11.dtd">
<!-- Generated by graphviz version 2.43.0 (0)
 -->
<!-- Title: %3 Pages: 1 -->
<svg width="819pt" height="1077pt"
 viewBox="0.00 0.00 818.94 1077.00" xmlns="http://www.w3.org/2000/svg" xmlns:xlink="http://www.w3.org/1999/xlink">
<g id="graph0" class="graph" transform="scale(1 1) rotate(0) translate(4 1073)">
<title>%3</title>
<polygon fill="white" stroke="transparent" points="-4,4 -4,-1073 814.94,-1073 814.94,4 -4,4"/>
<text text-anchor="middle" x="405.47" y="-1041" font-family="Times,serif" font-size="30.00">Dependencies</text>
<text text-anchor="middle" x="405.47" y="-1008" font-family="Times,serif" font-size="30.00"> </text>
<!-- :android:feature:spotify -->
<g id="node1" class="node">
<title>:android:feature:spotify</title>
<polygon fill="#9affb5" stroke="black" points="189.54,-995 4.54,-995 4.54,-959 189.54,-959 189.54,-995"/>
<text text-anchor="middle" x="97.04" y="-973.3" font-family="Times,serif" font-size="14.00">:android:feature:spotify</text>
</g>
<!-- :ui:common -->
<g id="node2" class="node">
<title>:ui:common</title>
<ellipse fill="#b59aff" stroke="black" cx="314.04" cy="-840" rx="64.19" ry="18"/>
<text text-anchor="middle" x="314.04" y="-836.3" font-family="Times,serif" font-size="14.00">:ui:common</text>
</g>
<!-- :android:feature:spotify&#45;&gt;:ui:common -->
<g id="edge1" class="edge">
<title>:android:feature:spotify&#45;&gt;:ui:common</title>
<path fill="none" stroke="black" stroke-dasharray="1,5" d="M189.7,-983C248.68,-983 314.04,-983 314.04,-983 314.04,-983 314.04,-868.11 314.04,-868.11"/>
<polygon fill="black" stroke="black" points="317.54,-868.11 314.04,-858.11 310.54,-868.11 317.54,-868.11"/>
</g>
<!-- :shared:domain -->
<g id="node3" class="node">
<title>:shared:domain</title>
<ellipse fill="#b59aff" stroke="black" cx="336.04" cy="-155" rx="82.59" ry="18"/>
<text text-anchor="middle" x="336.04" y="-151.3" font-family="Times,serif" font-size="14.00">:shared:domain</text>
</g>
<!-- :android:feature:spotify&#45;&gt;:shared:domain -->
<g id="edge2" class="edge">
<title>:android:feature:spotify&#45;&gt;:shared:domain</title>
<path fill="none" stroke="black" stroke-dasharray="1,5" d="M189.78,-971C212.83,-971 231.1,-971 231.1,-971 231.1,-971 231.1,-155 231.1,-155 231.1,-155 243.35,-155 243.35,-155"/>
<polygon fill="black" stroke="black" points="243.35,-158.5 253.35,-155 243.35,-151.5 243.35,-158.5"/>
</g>
<!-- :ui:test:screenshot -->
<g id="node4" class="node">
<title>:ui:test:screenshot</title>
<ellipse fill="#9affb5" stroke="black" cx="97.04" cy="-703" rx="96.68" ry="18"/>
<text text-anchor="middle" x="97.04" y="-699.3" font-family="Times,serif" font-size="14.00">:ui:test:screenshot</text>
</g>
<!-- :android:feature:spotify&#45;&gt;:ui:test:screenshot -->
<g id="edge3" class="edge">
<title>:android:feature:spotify&#45;&gt;:ui:test:screenshot</title>
<path fill="none" stroke="#ff9ab1" stroke-dasharray="1,5" d="M97.04,-958.6C97.04,-958.6 97.04,-731.32 97.04,-731.32"/>
<polygon fill="#ff9ab1" stroke="#ff9ab1" points="100.54,-731.32 97.04,-721.32 93.54,-731.32 100.54,-731.32"/>
</g>
<!-- :ui:common&#45;&gt;:shared:domain -->
<g id="edge8" class="edge">
<title>:ui:common&#45;&gt;:shared:domain</title>
<path fill="none" stroke="black" d="M279.23,-824.73C279.23,-824.73 279.23,-178.3 279.23,-178.3"/>
<polygon fill="black" stroke="black" points="282.73,-178.3 279.23,-168.3 275.73,-178.3 282.73,-178.3"/>
</g>
<!-- :ui:common&#45;&gt;:ui:test:screenshot -->
<g id="edge6" class="edge">
<title>:ui:common&#45;&gt;:ui:test:screenshot</title>
<path fill="none" stroke="#ff9ab1" stroke-dasharray="1,5" d="M262.08,-829.25C262.08,-796.95 262.08,-703 262.08,-703 262.08,-703 204,-703 204,-703"/>
<polygon fill="#ff9ab1" stroke="#ff9ab1" points="204,-699.5 194,-703 204,-706.5 204,-699.5"/>
</g>
<!-- :test:image -->
<g id="node5" class="node">
<title>:test:image</title>
<ellipse fill="#9affb5" stroke="black" cx="63.04" cy="-566" rx="63.09" ry="18"/>
<text text-anchor="middle" x="63.04" y="-562.3" font-family="Times,serif" font-size="14.00">:test:image</text>
</g>
<!-- :ui:common&#45;&gt;:test:image -->
<g id="edge4" class="edge">
<title>:ui:common&#45;&gt;:test:image</title>
<path fill="none" stroke="black" stroke-dasharray="1,5" d="M270.65,-826.5C270.65,-770.56 270.65,-560 270.65,-560 270.65,-560 132.54,-560 132.54,-560"/>
<polygon fill="black" stroke="black" points="132.54,-556.5 122.54,-560 132.54,-563.5 132.54,-556.5"/>
</g>
<!-- :test&#45;data -->
<g id="node6" class="node">
<title>:test&#45;data</title>
<ellipse fill="#b59aff" stroke="black" cx="523.04" cy="-703" rx="55.49" ry="18"/>
<text text-anchor="middle" x="523.04" y="-699.3" font-family="Times,serif" font-size="14.00">:test&#45;data</text>
</g>
<!-- :ui:common&#45;&gt;:test&#45;data -->
<g id="edge5" class="edge">
<title>:ui:common&#45;&gt;:test&#45;data</title>
<path fill="none" stroke="#ff9ab1" stroke-dasharray="1,5" d="M374.78,-834C436.48,-834 523.04,-834 523.04,-834 523.04,-834 523.04,-731.21 523.04,-731.21"/>
<polygon fill="#ff9ab1" stroke="#ff9ab1" points="526.54,-731.21 523.04,-721.21 519.54,-731.22 526.54,-731.21"/>
</g>
<!-- :core:coroutines -->
<g id="node7" class="node">
<title>:core:coroutines</title>
<ellipse fill="#b59aff" stroke="black" cx="657.04" cy="-18" rx="85.29" ry="18"/>
<text text-anchor="middle" x="657.04" y="-14.3" font-family="Times,serif" font-size="14.00">:core:coroutines</text>
</g>
<!-- :ui:common&#45;&gt;:core:coroutines -->
<g id="edge7" class="edge">
<title>:ui:common&#45;&gt;:core:coroutines</title>
<path fill="none" stroke="#ff9ab1" stroke-dasharray="1,5" d="M249.44,-840C229.41,-840 212.49,-840 212.49,-840 212.49,-840 212.49,-18 212.49,-18 212.49,-18 561.86,-18 561.86,-18"/>
<polygon fill="#ff9ab1" stroke="#ff9ab1" points="561.86,-21.5 571.86,-18 561.86,-14.5 561.86,-21.5"/>
</g>
<!-- :shared:strings -->
<g id="node8" class="node">
<title>:shared:strings</title>
<ellipse fill="#b59aff" stroke="black" cx="369.04" cy="-703" rx="81.49" ry="18"/>
<text text-anchor="middle" x="369.04" y="-699.3" font-family="Times,serif" font-size="14.00">:shared:strings</text>
</g>
<!-- :ui:common&#45;&gt;:shared:strings -->
<g id="edge9" class="edge">
<title>:ui:common&#45;&gt;:shared:strings</title>
<path fill="none" stroke="black" d="M333.1,-822.65C333.1,-822.65 333.1,-729.36 333.1,-729.36"/>
<polygon fill="black" stroke="black" points="336.6,-729.36 333.1,-719.36 329.6,-729.36 336.6,-729.36"/>
</g>
<!-- :core:logging:api -->
<g id="node9" class="node">
<title>:core:logging:api</title>
<ellipse fill="#b59aff" stroke="black" cx="657.04" cy="-155" rx="88.28" ry="18"/>
<text text-anchor="middle" x="657.04" y="-151.3" font-family="Times,serif" font-size="14.00">:core:logging:api</text>
</g>
<!-- :ui:common&#45;&gt;:core:logging:api -->
<g id="edge10" class="edge">
<title>:ui:common&#45;&gt;:core:logging:api</title>
<path fill="none" stroke="black" stroke-dasharray="1,5" d="M375.05,-846C467,-846 630.46,-846 630.46,-846 630.46,-846 630.46,-182.43 630.46,-182.43"/>
<polygon fill="black" stroke="black" points="633.96,-182.43 630.46,-172.43 626.96,-182.43 633.96,-182.43"/>
</g>
<!-- :ui:test:screenshot&#45;&gt;:test:image -->
<g id="edge11" class="edge">
<title>:ui:test:screenshot&#45;&gt;:test:image</title>
<path fill="none" stroke="black" stroke-dasharray="1,5" d="M63.15,-685.93C63.15,-685.93 63.15,-594.16 63.15,-594.16"/>
<polygon fill="black" stroke="black" points="66.65,-594.16 63.15,-584.16 59.65,-594.16 66.65,-594.16"/>
</g>
<!-- :test&#45;data&#45;&gt;:shared:domain -->
<g id="edge12" class="edge">
<title>:test&#45;data&#45;&gt;:shared:domain</title>
<path fill="none" stroke="black" stroke-dasharray="1,5" d="M489.9,-688.52C489.9,-673.13 489.9,-651 489.9,-651 489.9,-651 300.45,-651 300.45,-651 300.45,-651 300.45,-181.5 300.45,-181.5"/>
<polygon fill="black" stroke="black" points="303.95,-181.5 300.45,-171.5 296.95,-181.5 303.95,-181.5"/>
</g>
<!-- :test&#45;data&#45;&gt;:core:coroutines -->
<g id="edge13" class="edge">
<title>:test&#45;data&#45;&gt;:core:coroutines</title>
<path fill="none" stroke="black" stroke-dasharray="1,5" d="M570.91,-712C652.77,-712 810.94,-712 810.94,-712 810.94,-712 810.94,-9 810.94,-9 810.94,-9 740.84,-9 740.84,-9"/>
<polygon fill="black" stroke="black" points="740.84,-5.5 730.84,-9 740.84,-12.5 740.84,-5.5"/>
</g>
<!-- :data:database -->
<g id="node10" class="node">
<title>:data:database</title>
<ellipse fill="#b59aff" stroke="black" cx="405.04" cy="-429" rx="79.09" ry="18"/>
<text text-anchor="middle" x="405.04" y="-425.3" font-family="Times,serif" font-size="14.00">:data:database</text>
</g>
<!-- :test&#45;data&#45;&gt;:data:database -->
<g id="edge14" class="edge">
<title>:test&#45;data&#45;&gt;:data:database</title>
<path fill="none" stroke="black" stroke-dasharray="1,5" d="M512,-685.18C512,-659.99 512,-617 512,-617 512,-617 386.38,-617 386.38,-617 386.38,-617 386.38,-456.69 386.38,-456.69"/>
<polygon fill="black" stroke="black" points="389.88,-456.69 386.38,-446.69 382.88,-456.69 389.88,-456.69"/>
</g>
<!-- :data:musicbrainz -->
<g id="node11" class="node">
<title>:data:musicbrainz</title>
<ellipse fill="#b59aff" stroke="black" cx="496.04" cy="-292" rx="93.68" ry="18"/>
<text text-anchor="middle" x="496.04" y="-288.3" font-family="Times,serif" font-size="14.00">:data:musicbrainz</text>
</g>
<!-- :test&#45;data&#45;&gt;:data:musicbrainz -->
<g id="edge15" class="edge">
<title>:test&#45;data&#45;&gt;:data:musicbrainz</title>
<path fill="none" stroke="black" stroke-dasharray="1,5" d="M571.06,-694C593.25,-694 614.78,-694 614.78,-694 614.78,-694 614.78,-292 614.78,-292 614.78,-292 599.89,-292 599.89,-292"/>
<polygon fill="black" stroke="black" points="599.89,-288.5 589.89,-292 599.89,-295.5 599.89,-288.5"/>
</g>
<!-- :data:coverart -->
<g id="node12" class="node">
<title>:data:coverart</title>
<ellipse fill="#b59aff" stroke="black" cx="523.04" cy="-566" rx="76.09" ry="18"/>
<text text-anchor="middle" x="523.04" y="-562.3" font-family="Times,serif" font-size="14.00">:data:coverart</text>
</g>
<!-- :test&#45;data&#45;&gt;:data:coverart -->
<g id="edge16" class="edge">
<title>:test&#45;data&#45;&gt;:data:coverart</title>
<path fill="none" stroke="black" stroke-dasharray="1,5" d="M534.09,-685.09C534.09,-685.09 534.09,-593.91 534.09,-593.91"/>
<polygon fill="black" stroke="black" points="537.59,-593.91 534.09,-583.91 530.59,-593.91 537.59,-593.91"/>
</g>
<!-- :data:spotify -->
<g id="node13" class="node">
<title>:data:spotify</title>
<ellipse fill="#b59aff" stroke="black" cx="715.04" cy="-292" rx="68.79" ry="18"/>
<text text-anchor="middle" x="715.04" y="-288.3" font-family="Times,serif" font-size="14.00">:data:spotify</text>
</g>
<!-- :test&#45;data&#45;&gt;:data:spotify -->
<g id="edge17" class="edge">
<title>:test&#45;data&#45;&gt;:data:spotify</title>
<path fill="none" stroke="black" stroke-dasharray="1,5" d="M578.32,-703C635.04,-703 715.04,-703 715.04,-703 715.04,-703 715.04,-320.19 715.04,-320.19"/>
<polygon fill="black" stroke="black" points="718.54,-320.19 715.04,-310.19 711.54,-320.19 718.54,-320.19"/>
</g>
<!-- :core:logging:api&#45;&gt;:core:coroutines -->
<g id="edge18" class="edge">
<title>:core:logging:api&#45;&gt;:core:coroutines</title>
<path fill="none" stroke="black" d="M657.04,-136.81C657.04,-136.81 657.04,-46.27 657.04,-46.27"/>
<polygon fill="black" stroke="black" points="660.54,-46.27 657.04,-36.27 653.54,-46.27 660.54,-46.27"/>
</g>
<!-- :data:database&#45;&gt;:shared:domain -->
<g id="edge19" class="edge">
<title>:data:database&#45;&gt;:shared:domain</title>
<path fill="none" stroke="black" stroke-dasharray="1,5" d="M364.1,-413.48C364.1,-413.48 364.1,-182.08 364.1,-182.08"/>
<polygon fill="black" stroke="black" points="367.6,-182.08 364.1,-172.08 360.6,-182.08 367.6,-182.08"/>
</g>
<!-- :data:database&#45;&gt;:core:coroutines -->
<g id="edge20" class="edge">
<title>:data:database&#45;&gt;:core:coroutines</title>
<path fill="none" stroke="black" stroke-dasharray="1,5" d="M484.48,-429C597.96,-429 792.94,-429 792.94,-429 792.94,-429 792.94,-27 792.94,-27 792.94,-27 740.96,-27 740.96,-27"/>
<polygon fill="black" stroke="black" points="740.96,-23.5 730.96,-27 740.96,-30.5 740.96,-23.5"/>
</g>
<!-- :data:database&#45;&gt;:data:musicbrainz -->
<g id="edge21" class="edge">
<title>:data:database&#45;&gt;:data:musicbrainz</title>
<path fill="none" stroke="black" stroke-dasharray="1,5" d="M443.4,-413.02C443.4,-413.02 443.4,-317.05 443.4,-317.05"/>
<polygon fill="black" stroke="black" points="446.9,-317.05 443.4,-307.05 439.9,-317.05 446.9,-317.05"/>
</g>
<!-- :data:musicbrainz&#45;&gt;:shared:domain -->
<g id="edge22" class="edge">
<title>:data:musicbrainz&#45;&gt;:shared:domain</title>
<path fill="none" stroke="black" stroke-dasharray="1,5" d="M407.83,-285.76C407.83,-285.76 407.83,-174.02 407.83,-174.02"/>
<polygon fill="black" stroke="black" points="411.33,-174.02 407.83,-164.02 404.33,-174.02 411.33,-174.02"/>
</g>
<!-- :data:musicbrainz&#45;&gt;:core:logging:api -->
<g id="edge23" class="edge">
<title>:data:musicbrainz&#45;&gt;:core:logging:api</title>
<path fill="none" stroke="black" stroke-dasharray="1,5" d="M579.14,-283.43C579.14,-283.43 579.14,-173.57 579.14,-173.57"/>
<polygon fill="black" stroke="black" points="582.64,-173.57 579.14,-163.57 575.64,-173.57 582.64,-173.57"/>
</g>
<!-- :data:coverart&#45;&gt;:shared:domain -->
<g id="edge24" class="edge">
<title>:data:coverart&#45;&gt;:shared:domain</title>
<path fill="none" stroke="black" stroke-dasharray="1,5" d="M451.09,-572C390.31,-572 313.1,-572 313.1,-572 313.1,-572 313.1,-182.39 313.1,-182.39"/>
<polygon fill="black" stroke="black" points="316.6,-182.39 313.1,-172.39 309.6,-182.39 316.6,-182.39"/>
</g>
<!-- :data:coverart&#45;&gt;:test&#45;data -->
<g id="edge27" class="edge">
<title>:data:coverart&#45;&gt;:test&#45;data</title>
<path fill="none" stroke="#ff9ab1" stroke-dasharray="1,5" d="M556.19,-582.25C556.19,-582.25 556.19,-678.43 556.19,-678.43"/>
<polygon fill="#ff9ab1" stroke="#ff9ab1" points="552.69,-678.43 556.19,-688.43 559.69,-678.43 552.69,-678.43"/>
</g>
<!-- :data:coverart&#45;&gt;:core:coroutines -->
<g id="edge26" class="edge">
<title>:data:coverart&#45;&gt;:core:coroutines</title>
<path fill="none" stroke="black" stroke-dasharray="1,5" d="M599.25,-566C681.83,-566 801.94,-566 801.94,-566 801.94,-566 801.94,-18 801.94,-18 801.94,-18 752.59,-18 752.59,-18"/>
<polygon fill="black" stroke="black" points="752.59,-14.5 742.59,-18 752.59,-21.5 752.59,-14.5"/>
</g>
<!-- :data:coverart&#45;&gt;:core:logging:api -->
<g id="edge25" class="edge">
<title>:data:coverart&#45;&gt;:core:logging:api</title>
<path fill="none" stroke="black" stroke-dasharray="1,5" d="M594.36,-559.54C594.36,-559.54 594.36,-178.03 594.36,-178.03"/>
<polygon fill="black" stroke="black" points="597.86,-178.03 594.36,-168.03 590.86,-178.03 597.86,-178.03"/>
</g>
<!-- :data:coverart&#45;&gt;:data:database -->
<g id="edge29" class="edge">
<title>:data:coverart&#45;&gt;:data:database</title>
<path fill="none" stroke="#ff9ab1" stroke-dasharray="1,5" d="M465.67,-553.84C465.67,-553.84 465.67,-450.93 465.67,-450.93"/>
<polygon fill="#ff9ab1" stroke="#ff9ab1" points="469.17,-450.93 465.67,-440.93 462.17,-450.94 469.17,-450.93"/>
</g>
<!-- :data:coverart&#45;&gt;:data:musicbrainz -->
<g id="edge28" class="edge">
<title>:data:coverart&#45;&gt;:data:musicbrainz</title>
<path fill="none" stroke="#ff9ab1" stroke-dasharray="1,5" d="M536.99,-548.02C536.99,-548.02 536.99,-318.29 536.99,-318.29"/>
<polygon fill="#ff9ab1" stroke="#ff9ab1" points="540.49,-318.29 536.99,-308.29 533.49,-318.29 540.49,-318.29"/>
</g>
<!-- :data:spotify&#45;&gt;:shared:domain -->
<g id="edge30" class="edge">
<title>:data:spotify&#45;&gt;:shared:domain</title>
<path fill="none" stroke="black" stroke-dasharray="1,5" d="M679.25,-276.34C679.25,-255.98 679.25,-223 679.25,-223 679.25,-223 413.21,-223 413.21,-223 413.21,-223 413.21,-171.52 413.21,-171.52"/>
<polygon fill="black" stroke="black" points="416.71,-171.52 413.21,-161.52 409.71,-171.52 416.71,-171.52"/>
</g>
<!-- :data:spotify&#45;&gt;:core:logging:api -->
<g id="edge31" class="edge">
<title>:data:spotify&#45;&gt;:core:logging:api</title>
<path fill="none" stroke="black" stroke-dasharray="1,5" d="M712.34,-273.81C712.34,-273.81 712.34,-179.1 712.34,-179.1"/>
<polygon fill="black" stroke="black" points="715.84,-179.1 712.34,-169.1 708.84,-179.1 715.84,-179.1"/>
</g>
</g>
</svg>
