<?xml version="1.0" encoding="UTF-8" standalone="no"?>
<!DOCTYPE svg PUBLIC "-//W3C//DTD SVG 1.1//EN"
 "http://www.w3.org/Graphics/SVG/1.1/DTD/svg11.dtd">
<!-- Generated by graphviz version 2.43.0 (0)
 -->
<!-- Title: %3 Pages: 1 -->
<svg width="522pt" height="280pt"
 viewBox="0.00 0.00 521.68 280.00" xmlns="http://www.w3.org/2000/svg" xmlns:xlink="http://www.w3.org/1999/xlink">
<g id="graph0" class="graph" transform="scale(1 1) rotate(0) translate(4 276)">
<title>%3</title>
<polygon fill="white" stroke="transparent" points="-4,4 -4,-276 517.68,-276 517.68,4 -4,4"/>
<text text-anchor="middle" x="256.84" y="-244" font-family="Times,serif" font-size="30.00">Dependents</text>
<text text-anchor="middle" x="256.84" y="-211" font-family="Times,serif" font-size="30.00"> </text>
<!-- :data:common:network -->
<g id="node1" class="node">
<title>:data:common:network</title>
<polygon fill="#b59aff" stroke="black" points="180,-117 0,-117 0,-81 180,-81 180,-117"/>
<text text-anchor="middle" x="90" y="-95.3" font-family="Times,serif" font-size="14.00">:data:common:network</text>
</g>
<!-- :shared -->
<g id="node2" class="node">
<title>:shared</title>
<ellipse fill="#b59aff" stroke="black" cx="397.34" cy="-180" rx="45.49" ry="18"/>
<text text-anchor="middle" x="397.34" y="-176.3" font-family="Times,serif" font-size="14.00">:shared</text>
</g>
<!-- :shared&#45;&gt;:data:common:network -->
<g id="edge1" class="edge">
<title>:shared&#45;&gt;:data:common:network</title>
<path fill="none" stroke="black" stroke-dasharray="1,5" d="M351.66,-180C266.04,-180 90,-180 90,-180 90,-180 90,-127.38 90,-127.38"/>
<polygon fill="black" stroke="black" points="93.5,-127.38 90,-117.38 86.5,-127.38 93.5,-127.38"/>
</g>
<!-- :test&#45;data -->
<g id="node3" class="node">
<title>:test&#45;data</title>
<ellipse fill="#b59aff" stroke="black" cx="397.34" cy="-126" rx="55.49" ry="18"/>
<text text-anchor="middle" x="397.34" y="-122.3" font-family="Times,serif" font-size="14.00">:test&#45;data</text>
</g>
<!-- :test&#45;data&#45;&gt;:data:common:network -->
<g id="edge2" class="edge">
<title>:test&#45;data&#45;&gt;:data:common:network</title>
<path fill="none" stroke="black" stroke-dasharray="1,5" d="M360.57,-112.5C360.57,-112.5 190.13,-112.5 190.13,-112.5"/>
<polygon fill="black" stroke="black" points="190.13,-109 180.13,-112.5 190.13,-116 190.13,-109"/>
</g>
<!-- :data:repository -->
<g id="node4" class="node">
<title>:data:repository</title>
<ellipse fill="#b59aff" stroke="black" cx="397.34" cy="-72" rx="85.29" ry="18"/>
<text text-anchor="middle" x="397.34" y="-68.3" font-family="Times,serif" font-size="14.00">:data:repository</text>
</g>
<!-- :data:repository&#45;&gt;:data:common:network -->
<g id="edge3" class="edge">
<title>:data:repository&#45;&gt;:data:common:network</title>
<path fill="none" stroke="black" stroke-dasharray="1,5" d="M349.99,-87C349.99,-87 190.12,-87 190.12,-87"/>
<polygon fill="black" stroke="black" points="190.12,-83.5 180.12,-87 190.12,-90.5 190.12,-83.5"/>
</g>
<!-- :shared:feature:details -->
<g id="node5" class="node">
<title>:shared:feature:details</title>
<ellipse fill="#b59aff" stroke="black" cx="397.34" cy="-18" rx="116.18" ry="18"/>
<text text-anchor="middle" x="397.34" y="-14.3" font-family="Times,serif" font-size="14.00">:shared:feature:details</text>
</g>
<!-- :shared:feature:details&#45;&gt;:data:common:network -->
<g id="edge4" class="edge">
<title>:shared:feature:details&#45;&gt;:data:common:network</title>
<path fill="none" stroke="black" stroke-dasharray="1,5" d="M296,-26.9C296,-44.92 296,-84 296,-84 296,-84 190.05,-84 190.05,-84"/>
<polygon fill="black" stroke="black" points="190.05,-80.5 180.05,-84 190.05,-87.5 190.05,-80.5"/>
</g>
</g>
</svg>
