<?xml version="1.0" encoding="UTF-8" standalone="no"?>
<!DOCTYPE svg PUBLIC "-//W3C//DTD SVG 1.1//EN"
 "http://www.w3.org/Graphics/SVG/1.1/DTD/svg11.dtd">
<!-- Generated by graphviz version 2.43.0 (0)
 -->
<!-- Title: %3 Pages: 1 -->
<svg width="576pt" height="280pt"
 viewBox="0.00 0.00 575.66 280.00" xmlns="http://www.w3.org/2000/svg" xmlns:xlink="http://www.w3.org/1999/xlink">
<g id="graph0" class="graph" transform="scale(1 1) rotate(0) translate(4 276)">
<title>%3</title>
<polygon fill="white" stroke="transparent" points="-4,4 -4,-276 571.66,-276 571.66,4 -4,4"/>
<text text-anchor="middle" x="283.83" y="-244" font-family="Times,serif" font-size="30.00">Dependents</text>
<text text-anchor="middle" x="283.83" y="-211" font-family="Times,serif" font-size="30.00"> </text>
<!-- :data:common:network -->
<g id="node1" class="node">
<title>:data:common:network</title>
<ellipse fill="#b59aff" stroke="black" cx="116.99" cy="-99" rx="116.98" ry="18"/>
<text text-anchor="middle" x="116.99" y="-95.3" font-family="Times,serif" font-size="14.00">:data:common:network</text>
</g>
<!-- :shared -->
<g id="node2" class="node">
<title>:shared</title>
<ellipse fill="#b59aff" stroke="black" cx="451.32" cy="-180" rx="45.49" ry="18"/>
<text text-anchor="middle" x="451.32" y="-176.3" font-family="Times,serif" font-size="14.00">:shared</text>
</g>
<!-- :shared&#45;&gt;:data:common:network -->
<g id="edge1" class="edge">
<title>:shared&#45;&gt;:data:common:network</title>
<path fill="none" stroke="black" stroke-dasharray="1,5" d="M405.75,-180C314.06,-180 116,-180 116,-180 116,-180 116,-127.38 116,-127.38"/>
<polygon fill="black" stroke="black" points="119.5,-127.38 116,-117.38 112.5,-127.38 119.5,-127.38"/>
</g>
<!-- :test&#45;data -->
<g id="node3" class="node">
<title>:test&#45;data</title>
<ellipse fill="#b59aff" stroke="black" cx="451.32" cy="-126" rx="55.49" ry="18"/>
<text text-anchor="middle" x="451.32" y="-122.3" font-family="Times,serif" font-size="14.00">:test&#45;data</text>
</g>
<!-- :test&#45;data&#45;&gt;:data:common:network -->
<g id="edge2" class="edge">
<title>:test&#45;data&#45;&gt;:data:common:network</title>
<path fill="none" stroke="black" stroke-dasharray="1,5" d="M414.58,-112.5C414.58,-112.5 204.51,-112.5 204.51,-112.5"/>
<polygon fill="black" stroke="black" points="204.51,-109 194.51,-112.5 204.51,-116 204.51,-109"/>
</g>
<!-- :data:repository -->
<g id="node4" class="node">
<title>:data:repository</title>
<ellipse fill="#b59aff" stroke="black" cx="451.32" cy="-72" rx="85.29" ry="18"/>
<text text-anchor="middle" x="451.32" y="-68.3" font-family="Times,serif" font-size="14.00">:data:repository</text>
</g>
<!-- :data:repository&#45;&gt;:data:common:network -->
<g id="edge3" class="edge">
<title>:data:repository&#45;&gt;:data:common:network</title>
<path fill="none" stroke="black" stroke-dasharray="1,5" d="M404.13,-87C404.13,-87 214.35,-87 214.35,-87"/>
<polygon fill="black" stroke="black" points="214.35,-83.5 204.35,-87 214.35,-90.5 214.35,-83.5"/>
</g>
<!-- :shared:feature:details -->
<g id="node5" class="node">
<title>:shared:feature:details</title>
<ellipse fill="#b59aff" stroke="black" cx="451.32" cy="-18" rx="116.18" ry="18"/>
<text text-anchor="middle" x="451.32" y="-14.3" font-family="Times,serif" font-size="14.00">:shared:feature:details</text>
</g>
<!-- :shared:feature:details&#45;&gt;:data:common:network -->
<g id="edge4" class="edge">
<title>:shared:feature:details&#45;&gt;:data:common:network</title>
<path fill="none" stroke="black" stroke-dasharray="1,5" d="M350,-26.9C350,-44.92 350,-84 350,-84 350,-84 191.9,-84 191.9,-84"/>
<polygon fill="black" stroke="black" points="191.9,-80.5 181.9,-84 191.9,-87.5 191.9,-80.5"/>
</g>
</g>
</svg>
