<?xml version="1.0" encoding="UTF-8" standalone="no"?>
<!DOCTYPE svg PUBLIC "-//W3C//DTD SVG 1.1//EN"
 "http://www.w3.org/Graphics/SVG/1.1/DTD/svg11.dtd">
<!-- Generated by graphviz version 2.43.0 (0)
 -->
<!-- Title: %3 Pages: 1 -->
<svg width="522pt" height="334pt"
 viewBox="0.00 0.00 521.68 334.00" xmlns="http://www.w3.org/2000/svg" xmlns:xlink="http://www.w3.org/1999/xlink">
<g id="graph0" class="graph" transform="scale(1 1) rotate(0) translate(4 330)">
<title>%3</title>
<polygon fill="white" stroke="transparent" points="-4,4 -4,-330 517.68,-330 517.68,4 -4,4"/>
<text text-anchor="middle" x="256.84" y="-298" font-family="Times,serif" font-size="30.00">Dependents</text>
<text text-anchor="middle" x="256.84" y="-265" font-family="Times,serif" font-size="30.00"> </text>
<!-- :data:common:network -->
<g id="node1" class="node">
<title>:data:common:network</title>
<polygon fill="#b59aff" stroke="black" points="180,-144 0,-144 0,-108 180,-108 180,-144"/>
<text text-anchor="middle" x="90" y="-122.3" font-family="Times,serif" font-size="14.00">:data:common:network</text>
</g>
<!-- :shared -->
<g id="node2" class="node">
<title>:shared</title>
<ellipse fill="#b59aff" stroke="black" cx="397.34" cy="-234" rx="45.49" ry="18"/>
<text text-anchor="middle" x="397.34" y="-230.3" font-family="Times,serif" font-size="14.00">:shared</text>
</g>
<!-- :shared&#45;&gt;:data:common:network -->
<g id="edge1" class="edge">
<title>:shared&#45;&gt;:data:common:network</title>
<path fill="none" stroke="black" stroke-dasharray="1,5" d="M351.49,-234C259.26,-234 60,-234 60,-234 60,-234 60,-154.32 60,-154.32"/>
<polygon fill="black" stroke="black" points="63.5,-154.32 60,-144.32 56.5,-154.32 63.5,-154.32"/>
</g>
<!-- :test&#45;data -->
<g id="node3" class="node">
<title>:test&#45;data</title>
<ellipse fill="#b59aff" stroke="black" cx="397.34" cy="-180" rx="55.49" ry="18"/>
<text text-anchor="middle" x="397.34" y="-176.3" font-family="Times,serif" font-size="14.00">:test&#45;data</text>
</g>
<!-- :test&#45;data&#45;&gt;:data:common:network -->
<g id="edge2" class="edge">
<title>:test&#45;data&#45;&gt;:data:common:network</title>
<path fill="none" stroke="black" stroke-dasharray="1,5" d="M341.88,-180C260.95,-180 120,-180 120,-180 120,-180 120,-154.28 120,-154.28"/>
<polygon fill="black" stroke="black" points="123.5,-154.28 120,-144.28 116.5,-154.28 123.5,-154.28"/>
</g>
<!-- :data:repository -->
<g id="node4" class="node">
<title>:data:repository</title>
<ellipse fill="#b59aff" stroke="black" cx="397.34" cy="-126" rx="85.29" ry="18"/>
<text text-anchor="middle" x="397.34" y="-122.3" font-family="Times,serif" font-size="14.00">:data:repository</text>
</g>
<!-- :data:repository&#45;&gt;:data:common:network -->
<g id="edge3" class="edge">
<title>:data:repository&#45;&gt;:data:common:network</title>
<path fill="none" stroke="black" stroke-dasharray="1,5" d="M316.99,-132C316.99,-132 190.18,-132 190.18,-132"/>
<polygon fill="black" stroke="black" points="190.18,-128.5 180.18,-132 190.18,-135.5 190.18,-128.5"/>
</g>
<!-- :ui:common -->
<g id="node5" class="node">
<title>:ui:common</title>
<ellipse fill="#b59aff" stroke="black" cx="397.34" cy="-72" rx="64.19" ry="18"/>
<text text-anchor="middle" x="397.34" y="-68.3" font-family="Times,serif" font-size="14.00">:ui:common</text>
</g>
<!-- :ui:common&#45;&gt;:data:common:network -->
<g id="edge4" class="edge">
<title>:ui:common&#45;&gt;:data:common:network</title>
<path fill="none" stroke="black" stroke-dasharray="1,5" d="M332.91,-72C242.79,-72 90,-72 90,-72 90,-72 90,-97.72 90,-97.72"/>
<polygon fill="black" stroke="black" points="86.5,-97.72 90,-107.72 93.5,-97.72 86.5,-97.72"/>
</g>
<!-- :shared:feature:details -->
<g id="node6" class="node">
<title>:shared:feature:details</title>
<ellipse fill="#b59aff" stroke="black" cx="397.34" cy="-18" rx="116.18" ry="18"/>
<text text-anchor="middle" x="397.34" y="-14.3" font-family="Times,serif" font-size="14.00">:shared:feature:details</text>
</g>
<!-- :shared:feature:details&#45;&gt;:data:common:network -->
<g id="edge5" class="edge">
<title>:shared:feature:details&#45;&gt;:data:common:network</title>
<path fill="none" stroke="black" stroke-dasharray="1,5" d="M296,-27.05C296,-52.02 296,-120 296,-120 296,-120 190.05,-120 190.05,-120"/>
<polygon fill="black" stroke="black" points="190.05,-116.5 180.05,-120 190.05,-123.5 190.05,-116.5"/>
</g>
</g>
</svg>
