<?xml version="1.0" encoding="UTF-8" standalone="no"?>
<!DOCTYPE svg PUBLIC "-//W3C//DTD SVG 1.1//EN"
 "http://www.w3.org/Graphics/SVG/1.1/DTD/svg11.dtd">
<!-- Generated by graphviz version 2.43.0 (0)
 -->
<!-- Title: %3 Pages: 1 -->
<svg width="368pt" height="392pt"
 viewBox="0.00 0.00 367.93 392.00" xmlns="http://www.w3.org/2000/svg" xmlns:xlink="http://www.w3.org/1999/xlink">
<g id="graph0" class="graph" transform="scale(1 1) rotate(0) translate(4 388)">
<title>%3</title>
<polygon fill="white" stroke="transparent" points="-4,4 -4,-388 363.93,-388 363.93,4 -4,4"/>
<text text-anchor="middle" x="179.97" y="-356" font-family="Times,serif" font-size="30.00">Dependencies</text>
<text text-anchor="middle" x="179.97" y="-323" font-family="Times,serif" font-size="30.00"> </text>
<!-- :data:common:network -->
<g id="node1" class="node">
<title>:data:common:network</title>
<polygon fill="#b59aff" stroke="black" points="272.39,-310 92.39,-310 92.39,-274 272.39,-274 272.39,-310"/>
<text text-anchor="middle" x="182.39" y="-288.3" font-family="Times,serif" font-size="14.00">:data:common:network</text>
</g>
<!-- :core:logging:api -->
<g id="node2" class="node">
<title>:core:logging:api</title>
<ellipse fill="#b59aff" stroke="black" cx="88.39" cy="-155" rx="88.28" ry="18"/>
<text text-anchor="middle" x="88.39" y="-151.3" font-family="Times,serif" font-size="14.00">:core:logging:api</text>
</g>
<!-- :data:common:network&#45;&gt;:core:logging:api -->
<g id="edge1" class="edge">
<title>:data:common:network&#45;&gt;:core:logging:api</title>
<path fill="none" stroke="black" stroke-dasharray="1,5" d="M134.59,-273.81C134.59,-273.81 134.59,-180.72 134.59,-180.72"/>
<polygon fill="black" stroke="black" points="138.09,-180.72 134.59,-170.72 131.09,-180.72 138.09,-180.72"/>
</g>
<!-- :shared:domain -->
<g id="node3" class="node">
<title>:shared:domain</title>
<ellipse fill="#b59aff" stroke="black" cx="277.39" cy="-155" rx="82.59" ry="18"/>
<text text-anchor="middle" x="277.39" y="-151.3" font-family="Times,serif" font-size="14.00">:shared:domain</text>
</g>
<!-- :data:common:network&#45;&gt;:shared:domain -->
<g id="edge2" class="edge">
<title>:data:common:network&#45;&gt;:shared:domain</title>
<path fill="none" stroke="black" stroke-dasharray="1,5" d="M233.62,-273.81C233.62,-273.81 233.62,-180.31 233.62,-180.31"/>
<polygon fill="black" stroke="black" points="237.12,-180.31 233.62,-170.31 230.12,-180.31 237.12,-180.31"/>
</g>
<!-- :core:coroutines -->
<g id="node4" class="node">
<title>:core:coroutines</title>
<ellipse fill="#b59aff" stroke="black" cx="88.39" cy="-18" rx="85.29" ry="18"/>
<text text-anchor="middle" x="88.39" y="-14.3" font-family="Times,serif" font-size="14.00">:core:coroutines</text>
</g>
<!-- :core:logging:api&#45;&gt;:core:coroutines -->
<g id="edge3" class="edge">
<title>:core:logging:api&#45;&gt;:core:coroutines</title>
<path fill="none" stroke="black" d="M88.39,-136.81C88.39,-136.81 88.39,-46.27 88.39,-46.27"/>
<polygon fill="black" stroke="black" points="91.89,-46.27 88.39,-36.27 84.89,-46.27 91.89,-46.27"/>
</g>
</g>
</svg>
