<?xml version="1.0" encoding="UTF-8" standalone="no"?>
<!DOCTYPE svg PUBLIC "-//W3C//DTD SVG 1.1//EN"
 "http://www.w3.org/Graphics/SVG/1.1/DTD/svg11.dtd">
<!-- Generated by graphviz version 2.43.0 (0)
 -->
<!-- Title: %3 Pages: 1 -->
<svg width="423pt" height="550pt"
 viewBox="0.00 0.00 423.28 550.00" xmlns="http://www.w3.org/2000/svg" xmlns:xlink="http://www.w3.org/1999/xlink">
<g id="graph0" class="graph" transform="scale(1 1) rotate(0) translate(4 546)">
<title>%3</title>
<polygon fill="white" stroke="transparent" points="-4,4 -4,-546 419.28,-546 419.28,4 -4,4"/>
<text text-anchor="middle" x="207.64" y="-514" font-family="Times,serif" font-size="30.00">Dependents</text>
<text text-anchor="middle" x="207.64" y="-481" font-family="Times,serif" font-size="30.00"> </text>
<!-- :core:coroutines -->
<g id="node1" class="node">
<title>:core:coroutines</title>
<polygon fill="#b59aff" stroke="black" points="131,-252 0,-252 0,-216 131,-216 131,-252"/>
<text text-anchor="middle" x="65.5" y="-230.3" font-family="Times,serif" font-size="14.00">:core:coroutines</text>
</g>
<!-- :shared -->
<g id="node2" class="node">
<title>:shared</title>
<ellipse fill="#b59aff" stroke="black" cx="323.64" cy="-450" rx="45.49" ry="18"/>
<text text-anchor="middle" x="323.64" y="-446.3" font-family="Times,serif" font-size="14.00">:shared</text>
</g>
<!-- :shared&#45;&gt;:core:coroutines -->
<g id="edge1" class="edge">
<title>:shared&#45;&gt;:core:coroutines</title>
<path fill="none" stroke="black" stroke-dasharray="1,5" d="M278.11,-450C194.73,-450 26,-450 26,-450 26,-450 26,-262.04 26,-262.04"/>
<polygon fill="black" stroke="black" points="29.5,-262.04 26,-252.04 22.5,-262.04 29.5,-262.04"/>
</g>
<!-- :test&#45;data -->
<g id="node3" class="node">
<title>:test&#45;data</title>
<ellipse fill="#b59aff" stroke="black" cx="323.64" cy="-396" rx="55.49" ry="18"/>
<text text-anchor="middle" x="323.64" y="-392.3" font-family="Times,serif" font-size="14.00">:test&#45;data</text>
</g>
<!-- :test&#45;data&#45;&gt;:core:coroutines -->
<g id="edge2" class="edge">
<title>:test&#45;data&#45;&gt;:core:coroutines</title>
<path fill="none" stroke="black" stroke-dasharray="1,5" d="M268.34,-396C188.92,-396 52,-396 52,-396 52,-396 52,-262.27 52,-262.27"/>
<polygon fill="black" stroke="black" points="55.5,-262.27 52,-252.27 48.5,-262.27 55.5,-262.27"/>
</g>
<!-- :core:preferences -->
<g id="node4" class="node">
<title>:core:preferences</title>
<ellipse fill="#b59aff" stroke="black" cx="323.64" cy="-342" rx="91.78" ry="18"/>
<text text-anchor="middle" x="323.64" y="-338.3" font-family="Times,serif" font-size="14.00">:core:preferences</text>
</g>
<!-- :core:preferences&#45;&gt;:core:coroutines -->
<g id="edge3" class="edge">
<title>:core:preferences&#45;&gt;:core:coroutines</title>
<path fill="none" stroke="black" stroke-dasharray="1,5" d="M231.82,-342C162.05,-342 78,-342 78,-342 78,-342 78,-262.32 78,-262.32"/>
<polygon fill="black" stroke="black" points="81.5,-262.32 78,-252.32 74.5,-262.32 81.5,-262.32"/>
</g>
<!-- :data:database -->
<g id="node5" class="node">
<title>:data:database</title>
<ellipse fill="#b59aff" stroke="black" cx="323.64" cy="-288" rx="79.09" ry="18"/>
<text text-anchor="middle" x="323.64" y="-284.3" font-family="Times,serif" font-size="14.00">:data:database</text>
</g>
<!-- :data:database&#45;&gt;:core:coroutines -->
<g id="edge4" class="edge">
<title>:data:database&#45;&gt;:core:coroutines</title>
<path fill="none" stroke="black" stroke-dasharray="1,5" d="M244.35,-288C181.43,-288 104,-288 104,-288 104,-288 104,-262.28 104,-262.28"/>
<polygon fill="black" stroke="black" points="107.5,-262.28 104,-252.28 100.5,-262.28 107.5,-262.28"/>
</g>
<!-- :data:coverart -->
<g id="node6" class="node">
<title>:data:coverart</title>
<ellipse fill="#b59aff" stroke="black" cx="323.64" cy="-234" rx="76.09" ry="18"/>
<text text-anchor="middle" x="323.64" y="-230.3" font-family="Times,serif" font-size="14.00">:data:coverart</text>
</g>
<!-- :data:coverart&#45;&gt;:core:coroutines -->
<g id="edge5" class="edge">
<title>:data:coverart&#45;&gt;:core:coroutines</title>
<path fill="none" stroke="black" stroke-dasharray="1,5" d="M247.59,-234C247.59,-234 141.39,-234 141.39,-234"/>
<polygon fill="black" stroke="black" points="141.39,-230.5 131.39,-234 141.39,-237.5 141.39,-230.5"/>
</g>
<!-- :data:repository -->
<g id="node7" class="node">
<title>:data:repository</title>
<ellipse fill="#b59aff" stroke="black" cx="323.64" cy="-180" rx="85.29" ry="18"/>
<text text-anchor="middle" x="323.64" y="-176.3" font-family="Times,serif" font-size="14.00">:data:repository</text>
</g>
<!-- :data:repository&#45;&gt;:core:coroutines -->
<g id="edge6" class="edge">
<title>:data:repository&#45;&gt;:core:coroutines</title>
<path fill="none" stroke="#ff9ab1" stroke-dasharray="1,5" d="M238.41,-180C176.67,-180 104,-180 104,-180 104,-180 104,-205.72 104,-205.72"/>
<polygon fill="#ff9ab1" stroke="#ff9ab1" points="100.5,-205.72 104,-215.72 107.5,-205.72 100.5,-205.72"/>
</g>
<!-- :ui:common -->
<g id="node8" class="node">
<title>:ui:common</title>
<ellipse fill="#b59aff" stroke="black" cx="323.64" cy="-126" rx="64.19" ry="18"/>
<text text-anchor="middle" x="323.64" y="-122.3" font-family="Times,serif" font-size="14.00">:ui:common</text>
</g>
<!-- :ui:common&#45;&gt;:core:coroutines -->
<g id="edge7" class="edge">
<title>:ui:common&#45;&gt;:core:coroutines</title>
<path fill="none" stroke="#ff9ab1" stroke-dasharray="1,5" d="M259.1,-126C186.32,-126 78,-126 78,-126 78,-126 78,-205.68 78,-205.68"/>
<polygon fill="#ff9ab1" stroke="#ff9ab1" points="74.5,-205.68 78,-215.68 81.5,-205.68 74.5,-205.68"/>
</g>
<!-- :android:app -->
<g id="node9" class="node">
<title>:android:app</title>
<ellipse fill="#9affb5" stroke="black" cx="323.64" cy="-72" rx="69.59" ry="18"/>
<text text-anchor="middle" x="323.64" y="-68.3" font-family="Times,serif" font-size="14.00">:android:app</text>
</g>
<!-- :android:app&#45;&gt;:core:coroutines -->
<g id="edge8" class="edge">
<title>:android:app&#45;&gt;:core:coroutines</title>
<path fill="none" stroke="black" stroke-dasharray="1,5" d="M254.04,-72C173.56,-72 52,-72 52,-72 52,-72 52,-205.73 52,-205.73"/>
<polygon fill="black" stroke="black" points="48.5,-205.73 52,-215.73 55.5,-205.73 48.5,-205.73"/>
</g>
<!-- :core:logging:api -->
<g id="node10" class="node">
<title>:core:logging:api</title>
<ellipse fill="#b59aff" stroke="black" cx="323.64" cy="-18" rx="88.28" ry="18"/>
<text text-anchor="middle" x="323.64" y="-14.3" font-family="Times,serif" font-size="14.00">:core:logging:api</text>
</g>
<!-- :core:logging:api&#45;&gt;:core:coroutines -->
<g id="edge9" class="edge">
<title>:core:logging:api&#45;&gt;:core:coroutines</title>
<path fill="none" stroke="black" d="M235.15,-18C147.41,-18 26,-18 26,-18 26,-18 26,-205.96 26,-205.96"/>
<polygon fill="black" stroke="black" points="22.5,-205.96 26,-215.96 29.5,-205.96 22.5,-205.96"/>
</g>
</g>
</svg>
