<?xml version="1.0" encoding="UTF-8" standalone="no"?>
<!DOCTYPE svg PUBLIC "-//W3C//DTD SVG 1.1//EN"
 "http://www.w3.org/Graphics/SVG/1.1/DTD/svg11.dtd">
<!-- Generated by graphviz version 2.43.0 (0)
 -->
<!-- Title: %3 Pages: 1 -->
<svg width="423pt" height="442pt"
 viewBox="0.00 0.00 423.28 442.00" xmlns="http://www.w3.org/2000/svg" xmlns:xlink="http://www.w3.org/1999/xlink">
<g id="graph0" class="graph" transform="scale(1 1) rotate(0) translate(4 438)">
<title>%3</title>
<polygon fill="white" stroke="transparent" points="-4,4 -4,-438 419.28,-438 419.28,4 -4,4"/>
<text text-anchor="middle" x="207.64" y="-406" font-family="Times,serif" font-size="30.00">Dependents</text>
<text text-anchor="middle" x="207.64" y="-373" font-family="Times,serif" font-size="30.00"> </text>
<!-- :core:coroutines -->
<g id="node1" class="node">
<title>:core:coroutines</title>
<polygon fill="#b59aff" stroke="black" points="131,-198 0,-198 0,-162 131,-162 131,-198"/>
<text text-anchor="middle" x="65.5" y="-176.3" font-family="Times,serif" font-size="14.00">:core:coroutines</text>
</g>
<!-- :shared -->
<g id="node2" class="node">
<title>:shared</title>
<ellipse fill="#b59aff" stroke="black" cx="323.64" cy="-342" rx="45.49" ry="18"/>
<text text-anchor="middle" x="323.64" y="-338.3" font-family="Times,serif" font-size="14.00">:shared</text>
</g>
<!-- :shared&#45;&gt;:core:coroutines -->
<g id="edge1" class="edge">
<title>:shared&#45;&gt;:core:coroutines</title>
<path fill="none" stroke="black" stroke-dasharray="1,5" d="M278.07,-342C196.05,-342 32,-342 32,-342 32,-342 32,-208.27 32,-208.27"/>
<polygon fill="black" stroke="black" points="35.5,-208.27 32,-198.27 28.5,-208.27 35.5,-208.27"/>
</g>
<!-- :test&#45;data -->
<g id="node3" class="node">
<title>:test&#45;data</title>
<ellipse fill="#b59aff" stroke="black" cx="323.64" cy="-288" rx="55.49" ry="18"/>
<text text-anchor="middle" x="323.64" y="-284.3" font-family="Times,serif" font-size="14.00">:test&#45;data</text>
</g>
<!-- :test&#45;data&#45;&gt;:core:coroutines -->
<g id="edge2" class="edge">
<title>:test&#45;data&#45;&gt;:core:coroutines</title>
<path fill="none" stroke="black" stroke-dasharray="1,5" d="M268.16,-288C192.16,-288 65,-288 65,-288 65,-288 65,-208.32 65,-208.32"/>
<polygon fill="black" stroke="black" points="68.5,-208.32 65,-198.32 61.5,-208.32 68.5,-208.32"/>
</g>
<!-- :core:preferences -->
<g id="node4" class="node">
<title>:core:preferences</title>
<ellipse fill="#b59aff" stroke="black" cx="323.64" cy="-234" rx="91.78" ry="18"/>
<text text-anchor="middle" x="323.64" y="-230.3" font-family="Times,serif" font-size="14.00">:core:preferences</text>
</g>
<!-- :core:preferences&#45;&gt;:core:coroutines -->
<g id="edge3" class="edge">
<title>:core:preferences&#45;&gt;:core:coroutines</title>
<path fill="none" stroke="black" stroke-dasharray="1,5" d="M231.86,-234C169.39,-234 98,-234 98,-234 98,-234 98,-208.28 98,-208.28"/>
<polygon fill="black" stroke="black" points="101.5,-208.28 98,-198.28 94.5,-208.28 101.5,-208.28"/>
</g>
<!-- :data:database -->
<g id="node5" class="node">
<title>:data:database</title>
<ellipse fill="#b59aff" stroke="black" cx="323.64" cy="-180" rx="79.09" ry="18"/>
<text text-anchor="middle" x="323.64" y="-176.3" font-family="Times,serif" font-size="14.00">:data:database</text>
</g>
<!-- :data:database&#45;&gt;:core:coroutines -->
<g id="edge4" class="edge">
<title>:data:database&#45;&gt;:core:coroutines</title>
<path fill="none" stroke="black" stroke-dasharray="1,5" d="M244.08,-180C244.08,-180 141.36,-180 141.36,-180"/>
<polygon fill="black" stroke="black" points="141.36,-176.5 131.36,-180 141.36,-183.5 141.36,-176.5"/>
</g>
<!-- :data:coverart -->
<g id="node6" class="node">
<title>:data:coverart</title>
<ellipse fill="#b59aff" stroke="black" cx="323.64" cy="-126" rx="76.09" ry="18"/>
<text text-anchor="middle" x="323.64" y="-122.3" font-family="Times,serif" font-size="14.00">:data:coverart</text>
</g>
<!-- :data:coverart&#45;&gt;:core:coroutines -->
<g id="edge5" class="edge">
<title>:data:coverart&#45;&gt;:core:coroutines</title>
<path fill="none" stroke="black" stroke-dasharray="1,5" d="M247.56,-126C182.06,-126 98,-126 98,-126 98,-126 98,-151.72 98,-151.72"/>
<polygon fill="black" stroke="black" points="94.5,-151.72 98,-161.72 101.5,-151.72 94.5,-151.72"/>
</g>
<!-- :data:repository -->
<g id="node7" class="node">
<title>:data:repository</title>
<ellipse fill="#b59aff" stroke="black" cx="323.64" cy="-72" rx="85.29" ry="18"/>
<text text-anchor="middle" x="323.64" y="-68.3" font-family="Times,serif" font-size="14.00">:data:repository</text>
</g>
<!-- :data:repository&#45;&gt;:core:coroutines -->
<g id="edge6" class="edge">
<title>:data:repository&#45;&gt;:core:coroutines</title>
<path fill="none" stroke="#ff9ab1" stroke-dasharray="1,5" d="M238.24,-72C162.9,-72 65,-72 65,-72 65,-72 65,-151.68 65,-151.68"/>
<polygon fill="#ff9ab1" stroke="#ff9ab1" points="61.5,-151.68 65,-161.68 68.5,-151.68 61.5,-151.68"/>
</g>
<!-- :android:app -->
<g id="node8" class="node">
<title>:android:app</title>
<ellipse fill="#9affb5" stroke="black" cx="323.64" cy="-18" rx="69.59" ry="18"/>
<text text-anchor="middle" x="323.64" y="-14.3" font-family="Times,serif" font-size="14.00">:android:app</text>
</g>
<!-- :android:app&#45;&gt;:core:coroutines -->
<g id="edge7" class="edge">
<title>:android:app&#45;&gt;:core:coroutines</title>
<path fill="none" stroke="black" stroke-dasharray="1,5" d="M253.79,-18C167.51,-18 32,-18 32,-18 32,-18 32,-151.73 32,-151.73"/>
<polygon fill="black" stroke="black" points="28.5,-151.73 32,-161.73 35.5,-151.73 28.5,-151.73"/>
</g>
</g>
</svg>
