<?xml version="1.0" encoding="UTF-8" standalone="no"?>
<!DOCTYPE svg PUBLIC "-//W3C//DTD SVG 1.1//EN"
 "http://www.w3.org/Graphics/SVG/1.1/DTD/svg11.dtd">
<!-- Generated by graphviz version 2.43.0 (0)
 -->
<!-- Title: %3 Pages: 1 -->
<svg width="463pt" height="334pt"
 viewBox="0.00 0.00 462.57 334.00" xmlns="http://www.w3.org/2000/svg" xmlns:xlink="http://www.w3.org/1999/xlink">
<g id="graph0" class="graph" transform="scale(1 1) rotate(0) translate(4 330)">
<title>%3</title>
<polygon fill="white" stroke="transparent" points="-4,4 -4,-330 458.57,-330 458.57,4 -4,4"/>
<text text-anchor="middle" x="227.28" y="-298" font-family="Times,serif" font-size="30.00">Dependents</text>
<text text-anchor="middle" x="227.28" y="-265" font-family="Times,serif" font-size="30.00"> </text>
<!-- :core:coroutines -->
<g id="node1" class="node">
<title>:core:coroutines</title>
<ellipse fill="#b59aff" stroke="black" cx="85.14" cy="-126" rx="85.29" ry="18"/>
<text text-anchor="middle" x="85.14" y="-122.3" font-family="Times,serif" font-size="14.00">:core:coroutines</text>
</g>
<!-- :shared -->
<g id="node2" class="node">
<title>:shared</title>
<ellipse fill="#b59aff" stroke="black" cx="362.93" cy="-234" rx="45.49" ry="18"/>
<text text-anchor="middle" x="362.93" y="-230.3" font-family="Times,serif" font-size="14.00">:shared</text>
</g>
<!-- :shared&#45;&gt;:core:coroutines -->
<g id="edge1" class="edge">
<title>:shared&#45;&gt;:core:coroutines</title>
<path fill="none" stroke="black" stroke-dasharray="1,5" d="M317.31,-234C231.81,-234 56,-234 56,-234 56,-234 56,-153.35 56,-153.35"/>
<polygon fill="black" stroke="black" points="59.5,-153.35 56,-143.35 52.5,-153.35 59.5,-153.35"/>
</g>
<!-- :core:preferences -->
<g id="node3" class="node">
<title>:core:preferences</title>
<ellipse fill="#b59aff" stroke="black" cx="362.93" cy="-180" rx="91.78" ry="18"/>
<text text-anchor="middle" x="362.93" y="-176.3" font-family="Times,serif" font-size="14.00">:core:preferences</text>
</g>
<!-- :core:preferences&#45;&gt;:core:coroutines -->
<g id="edge2" class="edge">
<title>:core:preferences&#45;&gt;:core:coroutines</title>
<path fill="none" stroke="black" stroke-dasharray="1,5" d="M271.28,-180C199.95,-180 113,-180 113,-180 113,-180 113,-153.09 113,-153.09"/>
<polygon fill="black" stroke="black" points="116.5,-153.09 113,-143.09 109.5,-153.09 116.5,-153.09"/>
</g>
<!-- :data:database -->
<g id="node4" class="node">
<title>:data:database</title>
<ellipse fill="#b59aff" stroke="black" cx="362.93" cy="-126" rx="79.09" ry="18"/>
<text text-anchor="middle" x="362.93" y="-122.3" font-family="Times,serif" font-size="14.00">:data:database</text>
</g>
<!-- :data:database&#45;&gt;:core:coroutines -->
<g id="edge3" class="edge">
<title>:data:database&#45;&gt;:core:coroutines</title>
<path fill="none" stroke="black" stroke-dasharray="1,5" d="M283.32,-126C283.32,-126 180.58,-126 180.58,-126"/>
<polygon fill="black" stroke="black" points="180.58,-122.5 170.58,-126 180.58,-129.5 180.58,-122.5"/>
</g>
<!-- :data:repository -->
<g id="node5" class="node">
<title>:data:repository</title>
<ellipse fill="#b59aff" stroke="black" cx="362.93" cy="-72" rx="85.29" ry="18"/>
<text text-anchor="middle" x="362.93" y="-68.3" font-family="Times,serif" font-size="14.00">:data:repository</text>
</g>
<!-- :data:repository&#45;&gt;:core:coroutines -->
<g id="edge4" class="edge">
<title>:data:repository&#45;&gt;:core:coroutines</title>
<path fill="none" stroke="#ff9ab1" stroke-dasharray="1,5" d="M277.62,-72C205.21,-72 113,-72 113,-72 113,-72 113,-98.91 113,-98.91"/>
<polygon fill="#ff9ab1" stroke="#ff9ab1" points="109.5,-98.91 113,-108.91 116.5,-98.91 109.5,-98.91"/>
</g>
<!-- :android:app -->
<g id="node6" class="node">
<title>:android:app</title>
<ellipse fill="#9affb5" stroke="black" cx="362.93" cy="-18" rx="69.59" ry="18"/>
<text text-anchor="middle" x="362.93" y="-14.3" font-family="Times,serif" font-size="14.00">:android:app</text>
</g>
<!-- :android:app&#45;&gt;:core:coroutines -->
<g id="edge5" class="edge">
<title>:android:app&#45;&gt;:core:coroutines</title>
<path fill="none" stroke="black" stroke-dasharray="1,5" d="M293.28,-18C202.72,-18 56,-18 56,-18 56,-18 56,-98.65 56,-98.65"/>
<polygon fill="black" stroke="black" points="52.5,-98.65 56,-108.65 59.5,-98.65 52.5,-98.65"/>
</g>
</g>
</svg>
