<?xml version="1.0" encoding="UTF-8" standalone="no"?>
<!DOCTYPE svg PUBLIC "-//W3C//DTD SVG 1.1//EN"
 "http://www.w3.org/Graphics/SVG/1.1/DTD/svg11.dtd">
<!-- Generated by graphviz version 2.43.0 (0)
 -->
<!-- Title: %3 Pages: 1 -->
<svg width="423pt" height="496pt"
 viewBox="0.00 0.00 423.28 496.00" xmlns="http://www.w3.org/2000/svg" xmlns:xlink="http://www.w3.org/1999/xlink">
<g id="graph0" class="graph" transform="scale(1 1) rotate(0) translate(4 492)">
<title>%3</title>
<polygon fill="white" stroke="transparent" points="-4,4 -4,-492 419.28,-492 419.28,4 -4,4"/>
<text text-anchor="middle" x="207.64" y="-460" font-family="Times,serif" font-size="30.00">Dependents</text>
<text text-anchor="middle" x="207.64" y="-427" font-family="Times,serif" font-size="30.00"> </text>
<!-- :core:coroutines -->
<g id="node1" class="node">
<title>:core:coroutines</title>
<polygon fill="#b59aff" stroke="black" points="131,-225 0,-225 0,-189 131,-189 131,-225"/>
<text text-anchor="middle" x="65.5" y="-203.3" font-family="Times,serif" font-size="14.00">:core:coroutines</text>
</g>
<!-- :shared -->
<g id="node2" class="node">
<title>:shared</title>
<ellipse fill="#b59aff" stroke="black" cx="323.64" cy="-396" rx="45.49" ry="18"/>
<text text-anchor="middle" x="323.64" y="-392.3" font-family="Times,serif" font-size="14.00">:shared</text>
</g>
<!-- :shared&#45;&gt;:core:coroutines -->
<g id="edge1" class="edge">
<title>:shared&#45;&gt;:core:coroutines</title>
<path fill="none" stroke="black" stroke-dasharray="1,5" d="M278.07,-396C196.05,-396 32,-396 32,-396 32,-396 32,-235.12 32,-235.12"/>
<polygon fill="black" stroke="black" points="35.5,-235.12 32,-225.12 28.5,-235.12 35.5,-235.12"/>
</g>
<!-- :test&#45;data -->
<g id="node3" class="node">
<title>:test&#45;data</title>
<ellipse fill="#b59aff" stroke="black" cx="323.64" cy="-342" rx="55.49" ry="18"/>
<text text-anchor="middle" x="323.64" y="-338.3" font-family="Times,serif" font-size="14.00">:test&#45;data</text>
</g>
<!-- :test&#45;data&#45;&gt;:core:coroutines -->
<g id="edge2" class="edge">
<title>:test&#45;data&#45;&gt;:core:coroutines</title>
<path fill="none" stroke="black" stroke-dasharray="1,5" d="M268.16,-342C192.16,-342 65,-342 65,-342 65,-342 65,-235.21 65,-235.21"/>
<polygon fill="black" stroke="black" points="68.5,-235.21 65,-225.21 61.5,-235.21 68.5,-235.21"/>
</g>
<!-- :core:preferences -->
<g id="node4" class="node">
<title>:core:preferences</title>
<ellipse fill="#b59aff" stroke="black" cx="323.64" cy="-288" rx="91.78" ry="18"/>
<text text-anchor="middle" x="323.64" y="-284.3" font-family="Times,serif" font-size="14.00">:core:preferences</text>
</g>
<!-- :core:preferences&#45;&gt;:core:coroutines -->
<g id="edge3" class="edge">
<title>:core:preferences&#45;&gt;:core:coroutines</title>
<path fill="none" stroke="black" stroke-dasharray="1,5" d="M231.86,-288C169.39,-288 98,-288 98,-288 98,-288 98,-235.38 98,-235.38"/>
<polygon fill="black" stroke="black" points="101.5,-235.38 98,-225.38 94.5,-235.38 101.5,-235.38"/>
</g>
<!-- :data:database -->
<g id="node5" class="node">
<title>:data:database</title>
<ellipse fill="#b59aff" stroke="black" cx="323.64" cy="-234" rx="79.09" ry="18"/>
<text text-anchor="middle" x="323.64" y="-230.3" font-family="Times,serif" font-size="14.00">:data:database</text>
</g>
<!-- :data:database&#45;&gt;:core:coroutines -->
<g id="edge4" class="edge">
<title>:data:database&#45;&gt;:core:coroutines</title>
<path fill="none" stroke="black" stroke-dasharray="1,5" d="M271.09,-220.5C271.09,-220.5 141.29,-220.5 141.29,-220.5"/>
<polygon fill="black" stroke="black" points="141.29,-217 131.29,-220.5 141.29,-224 141.29,-217"/>
</g>
<!-- :data:coverart -->
<g id="node6" class="node">
<title>:data:coverart</title>
<ellipse fill="#b59aff" stroke="black" cx="323.64" cy="-180" rx="76.09" ry="18"/>
<text text-anchor="middle" x="323.64" y="-176.3" font-family="Times,serif" font-size="14.00">:data:coverart</text>
</g>
<!-- :data:coverart&#45;&gt;:core:coroutines -->
<g id="edge5" class="edge">
<title>:data:coverart&#45;&gt;:core:coroutines</title>
<path fill="none" stroke="black" stroke-dasharray="1,5" d="M273.26,-193.5C273.26,-193.5 141.42,-193.5 141.42,-193.5"/>
<polygon fill="black" stroke="black" points="141.42,-190 131.42,-193.5 141.42,-197 141.42,-190"/>
</g>
<!-- :data:repository -->
<g id="node7" class="node">
<title>:data:repository</title>
<ellipse fill="#b59aff" stroke="black" cx="323.64" cy="-126" rx="85.29" ry="18"/>
<text text-anchor="middle" x="323.64" y="-122.3" font-family="Times,serif" font-size="14.00">:data:repository</text>
</g>
<!-- :data:repository&#45;&gt;:core:coroutines -->
<g id="edge6" class="edge">
<title>:data:repository&#45;&gt;:core:coroutines</title>
<path fill="none" stroke="#ff9ab1" stroke-dasharray="1,5" d="M238.34,-126C174.44,-126 98,-126 98,-126 98,-126 98,-178.62 98,-178.62"/>
<polygon fill="#ff9ab1" stroke="#ff9ab1" points="94.5,-178.62 98,-188.62 101.5,-178.62 94.5,-178.62"/>
</g>
<!-- :ui:common -->
<g id="node8" class="node">
<title>:ui:common</title>
<ellipse fill="#b59aff" stroke="black" cx="323.64" cy="-72" rx="64.19" ry="18"/>
<text text-anchor="middle" x="323.64" y="-68.3" font-family="Times,serif" font-size="14.00">:ui:common</text>
</g>
<!-- :ui:common&#45;&gt;:core:coroutines -->
<g id="edge7" class="edge">
<title>:ui:common&#45;&gt;:core:coroutines</title>
<path fill="none" stroke="#ff9ab1" stroke-dasharray="1,5" d="M259.04,-72C182.43,-72 65,-72 65,-72 65,-72 65,-178.79 65,-178.79"/>
<polygon fill="#ff9ab1" stroke="#ff9ab1" points="61.5,-178.79 65,-188.79 68.5,-178.79 61.5,-178.79"/>
</g>
<!-- :android:app -->
<g id="node9" class="node">
<title>:android:app</title>
<ellipse fill="#9affb5" stroke="black" cx="323.64" cy="-18" rx="69.59" ry="18"/>
<text text-anchor="middle" x="323.64" y="-14.3" font-family="Times,serif" font-size="14.00">:android:app</text>
</g>
<!-- :android:app&#45;&gt;:core:coroutines -->
<g id="edge8" class="edge">
<title>:android:app&#45;&gt;:core:coroutines</title>
<path fill="none" stroke="black" stroke-dasharray="1,5" d="M253.79,-18C167.51,-18 32,-18 32,-18 32,-18 32,-178.88 32,-178.88"/>
<polygon fill="black" stroke="black" points="28.5,-178.88 32,-188.88 35.5,-178.88 28.5,-178.88"/>
</g>
</g>
</svg>
