<?xml version="1.0" encoding="UTF-8" standalone="no"?>
<!DOCTYPE svg PUBLIC "-//W3C//DTD SVG 1.1//EN"
 "http://www.w3.org/Graphics/SVG/1.1/DTD/svg11.dtd">
<!-- Generated by graphviz version 2.43.0 (0)
 -->
<!-- Title: %3 Pages: 1 -->
<svg width="423pt" height="280pt"
 viewBox="0.00 0.00 423.28 280.00" xmlns="http://www.w3.org/2000/svg" xmlns:xlink="http://www.w3.org/1999/xlink">
<g id="graph0" class="graph" transform="scale(1 1) rotate(0) translate(4 276)">
<title>%3</title>
<polygon fill="white" stroke="transparent" points="-4,4 -4,-276 419.28,-276 419.28,4 -4,4"/>
<text text-anchor="middle" x="207.64" y="-244" font-family="Times,serif" font-size="30.00">Dependents</text>
<text text-anchor="middle" x="207.64" y="-211" font-family="Times,serif" font-size="30.00"> </text>
<!-- :core:coroutines -->
<g id="node1" class="node">
<title>:core:coroutines</title>
<polygon fill="#b59aff" stroke="black" points="131,-117 0,-117 0,-81 131,-81 131,-117"/>
<text text-anchor="middle" x="65.5" y="-95.3" font-family="Times,serif" font-size="14.00">:core:coroutines</text>
</g>
<!-- :shared -->
<g id="node2" class="node">
<title>:shared</title>
<ellipse fill="#b59aff" stroke="black" cx="323.64" cy="-180" rx="45.49" ry="18"/>
<text text-anchor="middle" x="323.64" y="-176.3" font-family="Times,serif" font-size="14.00">:shared</text>
</g>
<!-- :shared&#45;&gt;:core:coroutines -->
<g id="edge1" class="edge">
<title>:shared&#45;&gt;:core:coroutines</title>
<path fill="none" stroke="black" stroke-dasharray="1,5" d="M278,-180C203.75,-180 65,-180 65,-180 65,-180 65,-127.38 65,-127.38"/>
<polygon fill="black" stroke="black" points="68.5,-127.38 65,-117.38 61.5,-127.38 68.5,-127.38"/>
</g>
<!-- :core:preferences -->
<g id="node3" class="node">
<title>:core:preferences</title>
<ellipse fill="#b59aff" stroke="black" cx="323.64" cy="-126" rx="91.78" ry="18"/>
<text text-anchor="middle" x="323.64" y="-122.3" font-family="Times,serif" font-size="14.00">:core:preferences</text>
</g>
<!-- :core:preferences&#45;&gt;:core:coroutines -->
<g id="edge2" class="edge">
<title>:core:preferences&#45;&gt;:core:coroutines</title>
<path fill="none" stroke="black" stroke-dasharray="1,5" d="M262.79,-112.5C262.79,-112.5 141.37,-112.5 141.37,-112.5"/>
<polygon fill="black" stroke="black" points="141.37,-109 131.37,-112.5 141.37,-116 141.37,-109"/>
</g>
<!-- :data:database -->
<g id="node4" class="node">
<title>:data:database</title>
<ellipse fill="#b59aff" stroke="black" cx="323.64" cy="-72" rx="79.09" ry="18"/>
<text text-anchor="middle" x="323.64" y="-68.3" font-family="Times,serif" font-size="14.00">:data:database</text>
</g>
<!-- :data:database&#45;&gt;:core:coroutines -->
<g id="edge3" class="edge">
<title>:data:database&#45;&gt;:core:coroutines</title>
<path fill="none" stroke="black" stroke-dasharray="1,5" d="M271.09,-85.5C271.09,-85.5 141.29,-85.5 141.29,-85.5"/>
<polygon fill="black" stroke="black" points="141.29,-82 131.29,-85.5 141.29,-89 141.29,-82"/>
</g>
<!-- :android:app -->
<g id="node5" class="node">
<title>:android:app</title>
<ellipse fill="#9affb5" stroke="black" cx="323.64" cy="-18" rx="69.59" ry="18"/>
<text text-anchor="middle" x="323.64" y="-14.3" font-family="Times,serif" font-size="14.00">:android:app</text>
</g>
<!-- :android:app&#45;&gt;:core:coroutines -->
<g id="edge4" class="edge">
<title>:android:app&#45;&gt;:core:coroutines</title>
<path fill="none" stroke="black" stroke-dasharray="1,5" d="M253.99,-18C177.38,-18 65,-18 65,-18 65,-18 65,-70.62 65,-70.62"/>
<polygon fill="black" stroke="black" points="61.5,-70.62 65,-80.62 68.5,-70.62 61.5,-70.62"/>
</g>
</g>
</svg>
