<?xml version="1.0" encoding="UTF-8" standalone="no"?>
<!DOCTYPE svg PUBLIC "-//W3C//DTD SVG 1.1//EN"
 "http://www.w3.org/Graphics/SVG/1.1/DTD/svg11.dtd">
<!-- Generated by graphviz version 2.43.0 (0)
 -->
<!-- Title: %3 Pages: 1 -->
<svg width="433pt" height="392pt"
 viewBox="0.00 0.00 433.13 392.00" xmlns="http://www.w3.org/2000/svg" xmlns:xlink="http://www.w3.org/1999/xlink">
<g id="graph0" class="graph" transform="scale(1 1) rotate(0) translate(4 388)">
<title>%3</title>
<polygon fill="white" stroke="transparent" points="-4,4 -4,-388 429.13,-388 429.13,4 -4,4"/>
<text text-anchor="middle" x="212.57" y="-356" font-family="Times,serif" font-size="30.00">Dependencies</text>
<text text-anchor="middle" x="212.57" y="-323" font-family="Times,serif" font-size="30.00"> </text>
<!-- :data:database -->
<g id="node1" class="node">
<title>:data:database</title>
<polygon fill="#b59aff" stroke="black" points="195.54,-310 73.54,-310 73.54,-274 195.54,-274 195.54,-310"/>
<text text-anchor="middle" x="134.54" y="-288.3" font-family="Times,serif" font-size="14.00">:data:database</text>
</g>
<!-- :shared:domain -->
<g id="node2" class="node">
<title>:shared:domain</title>
<ellipse fill="#b59aff" stroke="black" cx="82.54" cy="-18" rx="82.59" ry="18"/>
<text text-anchor="middle" x="82.54" y="-14.3" font-family="Times,serif" font-size="14.00">:shared:domain</text>
</g>
<!-- :data:database&#45;&gt;:shared:domain -->
<g id="edge1" class="edge">
<title>:data:database&#45;&gt;:shared:domain</title>
<path fill="none" stroke="black" stroke-dasharray="1,5" d="M73.52,-292C48.24,-292 24.7,-292 24.7,-292 24.7,-292 24.7,-40.85 24.7,-40.85"/>
<polygon fill="black" stroke="black" points="28.2,-40.85 24.7,-30.85 21.2,-40.85 28.2,-40.85"/>
</g>
<!-- :core:coroutines -->
<g id="node3" class="node">
<title>:core:coroutines</title>
<ellipse fill="#b59aff" stroke="black" cx="134.54" cy="-155" rx="85.29" ry="18"/>
<text text-anchor="middle" x="134.54" y="-151.3" font-family="Times,serif" font-size="14.00">:core:coroutines</text>
</g>
<!-- :data:database&#45;&gt;:core:coroutines -->
<g id="edge2" class="edge">
<title>:data:database&#45;&gt;:core:coroutines</title>
<path fill="none" stroke="black" stroke-dasharray="1,5" d="M134.54,-273.81C134.54,-273.81 134.54,-183.27 134.54,-183.27"/>
<polygon fill="black" stroke="black" points="138.04,-183.27 134.54,-173.27 131.04,-183.27 138.04,-183.27"/>
</g>
<!-- :data:musicbrainz -->
<g id="node4" class="node">
<title>:data:musicbrainz</title>
<ellipse fill="#b59aff" stroke="black" cx="331.54" cy="-155" rx="93.68" ry="18"/>
<text text-anchor="middle" x="331.54" y="-151.3" font-family="Times,serif" font-size="14.00">:data:musicbrainz</text>
</g>
<!-- :data:database&#45;&gt;:data:musicbrainz -->
<g id="edge3" class="edge">
<title>:data:database&#45;&gt;:data:musicbrainz</title>
<path fill="none" stroke="black" stroke-dasharray="1,5" d="M195.79,-292C253.62,-292 331.54,-292 331.54,-292 331.54,-292 331.54,-183.19 331.54,-183.19"/>
<polygon fill="black" stroke="black" points="335.04,-183.19 331.54,-173.19 328.04,-183.19 335.04,-183.19"/>
</g>
<!-- :data:musicbrainz&#45;&gt;:shared:domain -->
<g id="edge4" class="edge">
<title>:data:musicbrainz&#45;&gt;:shared:domain</title>
<path fill="none" stroke="black" stroke-dasharray="1,5" d="M237.93,-155C232.28,-155 228.82,-155 228.82,-155 228.82,-155 228.82,-18 228.82,-18 228.82,-18 175.51,-18 175.51,-18"/>
<polygon fill="black" stroke="black" points="175.51,-14.5 165.51,-18 175.51,-21.5 175.51,-14.5"/>
</g>
<!-- :core:logging:api -->
<g id="node5" class="node">
<title>:core:logging:api</title>
<ellipse fill="#b59aff" stroke="black" cx="331.54" cy="-18" rx="88.28" ry="18"/>
<text text-anchor="middle" x="331.54" y="-14.3" font-family="Times,serif" font-size="14.00">:core:logging:api</text>
</g>
<!-- :data:musicbrainz&#45;&gt;:core:logging:api -->
<g id="edge5" class="edge">
<title>:data:musicbrainz&#45;&gt;:core:logging:api</title>
<path fill="none" stroke="black" stroke-dasharray="1,5" d="M331.54,-136.81C331.54,-136.81 331.54,-46.27 331.54,-46.27"/>
<polygon fill="black" stroke="black" points="335.04,-46.27 331.54,-36.27 328.04,-46.27 335.04,-46.27"/>
</g>
</g>
</svg>
