<?xml version="1.0" encoding="UTF-8" standalone="no"?>
<!DOCTYPE svg PUBLIC "-//W3C//DTD SVG 1.1//EN"
 "http://www.w3.org/Graphics/SVG/1.1/DTD/svg11.dtd">
<!-- Generated by graphviz version 2.43.0 (0)
 -->
<!-- Title: %3 Pages: 1 -->
<svg width="500pt" height="334pt"
 viewBox="0.00 0.00 500.27 334.00" xmlns="http://www.w3.org/2000/svg" xmlns:xlink="http://www.w3.org/1999/xlink">
<g id="graph0" class="graph" transform="scale(1 1) rotate(0) translate(4 330)">
<title>%3</title>
<polygon fill="white" stroke="transparent" points="-4,4 -4,-330 496.27,-330 496.27,4 -4,4"/>
<text text-anchor="middle" x="246.13" y="-298" font-family="Times,serif" font-size="30.00">Dependents</text>
<text text-anchor="middle" x="246.13" y="-265" font-family="Times,serif" font-size="30.00"> </text>
<!-- :data:database -->
<g id="node1" class="node">
<title>:data:database</title>
<ellipse fill="#b59aff" stroke="black" cx="79.29" cy="-126" rx="79.09" ry="18"/>
<text text-anchor="middle" x="79.29" y="-122.3" font-family="Times,serif" font-size="14.00">:data:database</text>
</g>
<!-- :shared -->
<g id="node2" class="node">
<title>:shared</title>
<ellipse fill="#b59aff" stroke="black" cx="375.93" cy="-234" rx="45.49" ry="18"/>
<text text-anchor="middle" x="375.93" y="-230.3" font-family="Times,serif" font-size="14.00">:shared</text>
</g>
<!-- :shared&#45;&gt;:data:database -->
<g id="edge1" class="edge">
<title>:shared&#45;&gt;:data:database</title>
<path fill="none" stroke="black" stroke-dasharray="1,5" d="M330.18,-234C246.89,-234 79,-234 79,-234 79,-234 79,-154.32 79,-154.32"/>
<polygon fill="black" stroke="black" points="82.5,-154.32 79,-144.32 75.5,-154.32 82.5,-154.32"/>
</g>
<!-- :data:repository -->
<g id="node3" class="node">
<title>:data:repository</title>
<ellipse fill="#b59aff" stroke="black" cx="375.93" cy="-180" rx="85.29" ry="18"/>
<text text-anchor="middle" x="375.93" y="-176.3" font-family="Times,serif" font-size="14.00">:data:repository</text>
</g>
<!-- :data:repository&#45;&gt;:data:database -->
<g id="edge2" class="edge">
<title>:data:repository&#45;&gt;:data:database</title>
<path fill="none" stroke="black" stroke-dasharray="1,5" d="M298,-172.57C298,-159.79 298,-135 298,-135 298,-135 158.19,-135 158.19,-135"/>
<polygon fill="black" stroke="black" points="158.19,-131.5 148.19,-135 158.19,-138.5 158.19,-131.5"/>
</g>
<!-- :android:app -->
<g id="node4" class="node">
<title>:android:app</title>
<ellipse fill="#9affb5" stroke="black" cx="375.93" cy="-126" rx="69.59" ry="18"/>
<text text-anchor="middle" x="375.93" y="-122.3" font-family="Times,serif" font-size="14.00">:android:app</text>
</g>
<!-- :android:app&#45;&gt;:data:database -->
<g id="edge3" class="edge">
<title>:android:app&#45;&gt;:data:database</title>
<path fill="none" stroke="black" stroke-dasharray="1,5" d="M306.38,-126C306.38,-126 168.62,-126 168.62,-126"/>
<polygon fill="black" stroke="black" points="168.62,-122.5 158.62,-126 168.62,-129.5 168.62,-122.5"/>
</g>
<!-- :shared:feature:stats -->
<g id="node5" class="node">
<title>:shared:feature:stats</title>
<ellipse fill="#b59aff" stroke="black" cx="375.93" cy="-72" rx="107.78" ry="18"/>
<text text-anchor="middle" x="375.93" y="-68.3" font-family="Times,serif" font-size="14.00">:shared:feature:stats</text>
</g>
<!-- :shared:feature:stats&#45;&gt;:data:database -->
<g id="edge4" class="edge">
<title>:shared:feature:stats&#45;&gt;:data:database</title>
<path fill="none" stroke="black" stroke-dasharray="1,5" d="M279,-80.25C279,-93.24 279,-117 279,-117 279,-117 158.02,-117 158.02,-117"/>
<polygon fill="black" stroke="black" points="158.02,-113.5 148.02,-117 158.02,-120.5 158.02,-113.5"/>
</g>
<!-- :shared:feature:details -->
<g id="node6" class="node">
<title>:shared:feature:details</title>
<ellipse fill="#b59aff" stroke="black" cx="375.93" cy="-18" rx="116.18" ry="18"/>
<text text-anchor="middle" x="375.93" y="-14.3" font-family="Times,serif" font-size="14.00">:shared:feature:details</text>
</g>
<!-- :shared:feature:details&#45;&gt;:data:database -->
<g id="edge5" class="edge">
<title>:shared:feature:details&#45;&gt;:data:database</title>
<path fill="none" stroke="black" stroke-dasharray="1,5" d="M259.42,-18C176.24,-18 79,-18 79,-18 79,-18 79,-97.68 79,-97.68"/>
<polygon fill="black" stroke="black" points="75.5,-97.68 79,-107.68 82.5,-97.68 75.5,-97.68"/>
</g>
</g>
</svg>
