<?xml version="1.0" encoding="UTF-8" standalone="no"?>
<!DOCTYPE svg PUBLIC "-//W3C//DTD SVG 1.1//EN"
 "http://www.w3.org/Graphics/SVG/1.1/DTD/svg11.dtd">
<!-- Generated by graphviz version 2.43.0 (0)
 -->
<!-- Title: %3 Pages: 1 -->
<svg width="447pt" height="280pt"
 viewBox="0.00 0.00 446.78 280.00" xmlns="http://www.w3.org/2000/svg" xmlns:xlink="http://www.w3.org/1999/xlink">
<g id="graph0" class="graph" transform="scale(1 1) rotate(0) translate(4 276)">
<title>%3</title>
<polygon fill="white" stroke="transparent" points="-4,4 -4,-276 442.78,-276 442.78,4 -4,4"/>
<text text-anchor="middle" x="219.39" y="-244" font-family="Times,serif" font-size="30.00">Dependents</text>
<text text-anchor="middle" x="219.39" y="-211" font-family="Times,serif" font-size="30.00"> </text>
<!-- :data:database -->
<g id="node1" class="node">
<title>:data:database</title>
<polygon fill="#b59aff" stroke="black" points="122,-117 0,-117 0,-81 122,-81 122,-117"/>
<text text-anchor="middle" x="61" y="-95.3" font-family="Times,serif" font-size="14.00">:data:database</text>
</g>
<!-- :shared -->
<g id="node2" class="node">
<title>:shared</title>
<ellipse fill="#b59aff" stroke="black" cx="330.89" cy="-180" rx="45.49" ry="18"/>
<text text-anchor="middle" x="330.89" y="-176.3" font-family="Times,serif" font-size="14.00">:shared</text>
</g>
<!-- :shared&#45;&gt;:data:database -->
<g id="edge1" class="edge">
<title>:shared&#45;&gt;:data:database</title>
<path fill="none" stroke="black" stroke-dasharray="1,5" d="M285.11,-180C208.11,-180 61,-180 61,-180 61,-180 61,-127.38 61,-127.38"/>
<polygon fill="black" stroke="black" points="64.5,-127.38 61,-117.38 57.5,-127.38 64.5,-127.38"/>
</g>
<!-- :data:repository -->
<g id="node3" class="node">
<title>:data:repository</title>
<ellipse fill="#b59aff" stroke="black" cx="330.89" cy="-126" rx="85.29" ry="18"/>
<text text-anchor="middle" x="330.89" y="-122.3" font-family="Times,serif" font-size="14.00">:data:repository</text>
</g>
<!-- :data:repository&#45;&gt;:data:database -->
<g id="edge2" class="edge">
<title>:data:repository&#45;&gt;:data:database</title>
<path fill="none" stroke="black" stroke-dasharray="1,5" d="M274.31,-112.5C274.31,-112.5 132.2,-112.5 132.2,-112.5"/>
<polygon fill="black" stroke="black" points="132.2,-109 122.2,-112.5 132.2,-116 132.2,-109"/>
</g>
<!-- :android:app -->
<g id="node4" class="node">
<title>:android:app</title>
<ellipse fill="#9affb5" stroke="black" cx="330.89" cy="-72" rx="69.59" ry="18"/>
<text text-anchor="middle" x="330.89" y="-68.3" font-family="Times,serif" font-size="14.00">:android:app</text>
</g>
<!-- :android:app&#45;&gt;:data:database -->
<g id="edge3" class="edge">
<title>:android:app&#45;&gt;:data:database</title>
<path fill="none" stroke="black" stroke-dasharray="1,5" d="M292.22,-87C292.22,-87 132.02,-87 132.02,-87"/>
<polygon fill="black" stroke="black" points="132.02,-83.5 122.02,-87 132.02,-90.5 132.02,-83.5"/>
</g>
<!-- :shared:feature:stats -->
<g id="node5" class="node">
<title>:shared:feature:stats</title>
<ellipse fill="#b59aff" stroke="black" cx="330.89" cy="-18" rx="107.78" ry="18"/>
<text text-anchor="middle" x="330.89" y="-14.3" font-family="Times,serif" font-size="14.00">:shared:feature:stats</text>
</g>
<!-- :shared:feature:stats&#45;&gt;:data:database -->
<g id="edge4" class="edge">
<title>:shared:feature:stats&#45;&gt;:data:database</title>
<path fill="none" stroke="black" stroke-dasharray="1,5" d="M234,-26.09C234,-43.72 234,-84 234,-84 234,-84 132.48,-84 132.48,-84"/>
<polygon fill="black" stroke="black" points="132.48,-80.5 122.48,-84 132.48,-87.5 132.48,-80.5"/>
</g>
</g>
</svg>
