<?xml version="1.0" encoding="UTF-8" standalone="no"?>
<!DOCTYPE svg PUBLIC "-//W3C//DTD SVG 1.1//EN"
 "http://www.w3.org/Graphics/SVG/1.1/DTD/svg11.dtd">
<!-- Generated by graphviz version 2.43.0 (0)
 -->
<!-- Title: %3 Pages: 1 -->
<svg width="401pt" height="280pt"
 viewBox="0.00 0.00 401.28 280.00" xmlns="http://www.w3.org/2000/svg" xmlns:xlink="http://www.w3.org/1999/xlink">
<g id="graph0" class="graph" transform="scale(1 1) rotate(0) translate(4 276)">
<title>%3</title>
<polygon fill="white" stroke="transparent" points="-4,4 -4,-276 397.28,-276 397.28,4 -4,4"/>
<text text-anchor="middle" x="196.64" y="-244" font-family="Times,serif" font-size="30.00">Dependents</text>
<text text-anchor="middle" x="196.64" y="-211" font-family="Times,serif" font-size="30.00"> </text>
<!-- :data:database -->
<g id="node1" class="node">
<title>:data:database</title>
<polygon fill="#b59aff" stroke="black" points="122,-117 0,-117 0,-81 122,-81 122,-117"/>
<text text-anchor="middle" x="61" y="-95.3" font-family="Times,serif" font-size="14.00">:data:database</text>
</g>
<!-- :shared -->
<g id="node2" class="node">
<title>:shared</title>
<ellipse fill="#b59aff" stroke="black" cx="308.14" cy="-180" rx="45.49" ry="18"/>
<text text-anchor="middle" x="308.14" y="-176.3" font-family="Times,serif" font-size="14.00">:shared</text>
</g>
<!-- :shared&#45;&gt;:data:database -->
<g id="edge1" class="edge">
<title>:shared&#45;&gt;:data:database</title>
<path fill="none" stroke="black" stroke-dasharray="1,5" d="M262.52,-180C191.11,-180 61,-180 61,-180 61,-180 61,-127.38 61,-127.38"/>
<polygon fill="black" stroke="black" points="64.5,-127.38 61,-117.38 57.5,-127.38 64.5,-127.38"/>
</g>
<!-- :test&#45;data -->
<g id="node3" class="node">
<title>:test&#45;data</title>
<ellipse fill="#b59aff" stroke="black" cx="308.14" cy="-126" rx="55.49" ry="18"/>
<text text-anchor="middle" x="308.14" y="-122.3" font-family="Times,serif" font-size="14.00">:test&#45;data</text>
</g>
<!-- :test&#45;data&#45;&gt;:data:database -->
<g id="edge2" class="edge">
<title>:test&#45;data&#45;&gt;:data:database</title>
<path fill="none" stroke="black" stroke-dasharray="1,5" d="M271.41,-112.5C271.41,-112.5 132.41,-112.5 132.41,-112.5"/>
<polygon fill="black" stroke="black" points="132.41,-109 122.41,-112.5 132.41,-116 132.41,-109"/>
</g>
<!-- :data:coverart -->
<g id="node4" class="node">
<title>:data:coverart</title>
<ellipse fill="#b59aff" stroke="black" cx="308.14" cy="-72" rx="76.09" ry="18"/>
<text text-anchor="middle" x="308.14" y="-68.3" font-family="Times,serif" font-size="14.00">:data:coverart</text>
</g>
<!-- :data:coverart&#45;&gt;:data:database -->
<g id="edge3" class="edge">
<title>:data:coverart&#45;&gt;:data:database</title>
<path fill="none" stroke="#ff9ab1" stroke-dasharray="1,5" d="M265.94,-87C265.94,-87 132.02,-87 132.02,-87"/>
<polygon fill="#ff9ab1" stroke="#ff9ab1" points="132.02,-83.5 122.02,-87 132.02,-90.5 132.02,-83.5"/>
</g>
<!-- :data:repository -->
<g id="node5" class="node">
<title>:data:repository</title>
<ellipse fill="#b59aff" stroke="black" cx="308.14" cy="-18" rx="85.29" ry="18"/>
<text text-anchor="middle" x="308.14" y="-14.3" font-family="Times,serif" font-size="14.00">:data:repository</text>
</g>
<!-- :data:repository&#45;&gt;:data:database -->
<g id="edge4" class="edge">
<title>:data:repository&#45;&gt;:data:database</title>
<path fill="none" stroke="black" stroke-dasharray="1,5" d="M227,-23.63C227,-39.59 227,-84 227,-84 227,-84 132.34,-84 132.34,-84"/>
<polygon fill="black" stroke="black" points="132.34,-80.5 122.34,-84 132.34,-87.5 132.34,-80.5"/>
</g>
</g>
</svg>
