<?xml version="1.0" encoding="UTF-8" standalone="no"?>
<!DOCTYPE svg PUBLIC "-//W3C//DTD SVG 1.1//EN"
 "http://www.w3.org/Graphics/SVG/1.1/DTD/svg11.dtd">
<!-- Generated by graphviz version 2.43.0 (0)
 -->
<!-- Title: %3 Pages: 1 -->
<svg width="368pt" height="392pt"
 viewBox="0.00 0.00 367.93 392.00" xmlns="http://www.w3.org/2000/svg" xmlns:xlink="http://www.w3.org/1999/xlink">
<g id="graph0" class="graph" transform="scale(1 1) rotate(0) translate(4 388)">
<title>%3</title>
<polygon fill="white" stroke="transparent" points="-4,4 -4,-388 363.93,-388 363.93,4 -4,4"/>
<text text-anchor="middle" x="179.97" y="-356" font-family="Times,serif" font-size="30.00">Dependencies</text>
<text text-anchor="middle" x="179.97" y="-323" font-family="Times,serif" font-size="30.00"> </text>
<!-- :data:database -->
<g id="node1" class="node">
<title>:data:database</title>
<polygon fill="#b59aff" stroke="black" points="204.54,-310 82.54,-310 82.54,-274 204.54,-274 204.54,-310"/>
<text text-anchor="middle" x="143.54" y="-288.3" font-family="Times,serif" font-size="14.00">:data:database</text>
</g>
<!-- :shared:domain -->
<g id="node2" class="node">
<title>:shared:domain</title>
<ellipse fill="#b59aff" stroke="black" cx="82.54" cy="-18" rx="82.59" ry="18"/>
<text text-anchor="middle" x="82.54" y="-14.3" font-family="Times,serif" font-size="14.00">:shared:domain</text>
</g>
<!-- :data:database&#45;&gt;:shared:domain -->
<g id="edge1" class="edge">
<title>:data:database&#45;&gt;:shared:domain</title>
<path fill="none" stroke="black" stroke-dasharray="1,5" d="M96.75,-273.6C96.75,-273.6 96.75,-45.97 96.75,-45.97"/>
<polygon fill="black" stroke="black" points="100.25,-45.97 96.75,-35.97 93.25,-45.97 100.25,-45.97"/>
</g>
<!-- :data:musicbrainz -->
<g id="node3" class="node">
<title>:data:musicbrainz</title>
<ellipse fill="#b59aff" stroke="black" cx="204.54" cy="-155" rx="93.68" ry="18"/>
<text text-anchor="middle" x="204.54" y="-151.3" font-family="Times,serif" font-size="14.00">:data:musicbrainz</text>
</g>
<!-- :data:database&#45;&gt;:data:musicbrainz -->
<g id="edge2" class="edge">
<title>:data:database&#45;&gt;:data:musicbrainz</title>
<path fill="none" stroke="black" stroke-dasharray="1,5" d="M157.75,-273.81C157.75,-273.81 157.75,-180.72 157.75,-180.72"/>
<polygon fill="black" stroke="black" points="161.25,-180.72 157.75,-170.72 154.25,-180.72 161.25,-180.72"/>
</g>
<!-- :data:musicbrainz&#45;&gt;:shared:domain -->
<g id="edge3" class="edge">
<title>:data:musicbrainz&#45;&gt;:shared:domain</title>
<path fill="none" stroke="black" stroke-dasharray="1,5" d="M138.02,-142.11C138.02,-142.11 138.02,-41.36 138.02,-41.36"/>
<polygon fill="black" stroke="black" points="141.52,-41.36 138.02,-31.36 134.52,-41.36 141.52,-41.36"/>
</g>
<!-- :core:logging:api -->
<g id="node4" class="node">
<title>:core:logging:api</title>
<ellipse fill="#b59aff" stroke="black" cx="271.54" cy="-18" rx="88.28" ry="18"/>
<text text-anchor="middle" x="271.54" y="-14.3" font-family="Times,serif" font-size="14.00">:core:logging:api</text>
</g>
<!-- :data:musicbrainz&#45;&gt;:core:logging:api -->
<g id="edge4" class="edge">
<title>:data:musicbrainz&#45;&gt;:core:logging:api</title>
<path fill="none" stroke="black" stroke-dasharray="1,5" d="M240.64,-138.2C240.64,-138.2 240.64,-44.94 240.64,-44.94"/>
<polygon fill="black" stroke="black" points="244.14,-44.94 240.64,-34.94 237.14,-44.94 244.14,-44.94"/>
</g>
</g>
</svg>
