<?xml version="1.0" encoding="UTF-8" standalone="no"?>
<!DOCTYPE svg PUBLIC "-//W3C//DTD SVG 1.1//EN"
 "http://www.w3.org/Graphics/SVG/1.1/DTD/svg11.dtd">
<!-- Generated by graphviz version 2.43.0 (0)
 -->
<!-- Title: %3 Pages: 1 -->
<svg width="383pt" height="529pt"
 viewBox="0.00 0.00 383.39 529.00" xmlns="http://www.w3.org/2000/svg" xmlns:xlink="http://www.w3.org/1999/xlink">
<g id="graph0" class="graph" transform="scale(1 1) rotate(0) translate(4 525)">
<title>%3</title>
<polygon fill="white" stroke="transparent" points="-4,4 -4,-525 379.39,-525 379.39,4 -4,4"/>
<text text-anchor="middle" x="187.7" y="-493" font-family="Times,serif" font-size="30.00">Dependencies</text>
<text text-anchor="middle" x="187.7" y="-460" font-family="Times,serif" font-size="30.00"> </text>
<!-- :data:database -->
<g id="node1" class="node">
<title>:data:database</title>
<polygon fill="#b59aff" stroke="black" points="122,-447 0,-447 0,-411 122,-411 122,-447"/>
<text text-anchor="middle" x="61" y="-425.3" font-family="Times,serif" font-size="14.00">:data:database</text>
</g>
<!-- :shared:domain -->
<g id="node2" class="node">
<title>:shared:domain</title>
<ellipse fill="#b59aff" stroke="black" cx="98" cy="-155" rx="82.59" ry="18"/>
<text text-anchor="middle" x="98" y="-151.3" font-family="Times,serif" font-size="14.00">:shared:domain</text>
</g>
<!-- :data:database&#45;&gt;:shared:domain -->
<g id="edge1" class="edge">
<title>:data:database&#45;&gt;:shared:domain</title>
<path fill="none" stroke="black" stroke-dasharray="1,5" d="M52.43,-410.6C52.43,-410.6 52.43,-180.21 52.43,-180.21"/>
<polygon fill="black" stroke="black" points="55.93,-180.21 52.43,-170.21 48.93,-180.21 55.93,-180.21"/>
</g>
<!-- :core:coroutines -->
<g id="node3" class="node">
<title>:core:coroutines</title>
<ellipse fill="#b59aff" stroke="black" cx="137" cy="-18" rx="85.29" ry="18"/>
<text text-anchor="middle" x="137" y="-14.3" font-family="Times,serif" font-size="14.00">:core:coroutines</text>
</g>
<!-- :data:database&#45;&gt;:core:coroutines -->
<g id="edge2" class="edge">
<title>:data:database&#45;&gt;:core:coroutines</title>
<path fill="none" stroke="black" stroke-dasharray="1,5" d="M7.73,-410.81C7.73,-331.27 7.73,-18 7.73,-18 7.73,-18 41.85,-18 41.85,-18"/>
<polygon fill="black" stroke="black" points="41.85,-21.5 51.85,-18 41.85,-14.5 41.85,-21.5"/>
</g>
<!-- :data:musicbrainz -->
<g id="node4" class="node">
<title>:data:musicbrainz</title>
<ellipse fill="#b59aff" stroke="black" cx="183" cy="-292" rx="93.68" ry="18"/>
<text text-anchor="middle" x="183" y="-288.3" font-family="Times,serif" font-size="14.00">:data:musicbrainz</text>
</g>
<!-- :data:database&#45;&gt;:data:musicbrainz -->
<g id="edge3" class="edge">
<title>:data:database&#45;&gt;:data:musicbrainz</title>
<path fill="none" stroke="black" stroke-dasharray="1,5" d="M105.7,-410.81C105.7,-410.81 105.7,-312.39 105.7,-312.39"/>
<polygon fill="black" stroke="black" points="109.2,-312.39 105.7,-302.39 102.2,-312.39 109.2,-312.39"/>
</g>
<!-- :data:musicbrainz&#45;&gt;:shared:domain -->
<g id="edge4" class="edge">
<title>:data:musicbrainz&#45;&gt;:shared:domain</title>
<path fill="none" stroke="black" stroke-dasharray="1,5" d="M134.98,-276.28C134.98,-276.28 134.98,-181.38 134.98,-181.38"/>
<polygon fill="black" stroke="black" points="138.48,-181.38 134.98,-171.38 131.48,-181.38 138.48,-181.38"/>
</g>
<!-- :core:logging:api -->
<g id="node5" class="node">
<title>:core:logging:api</title>
<ellipse fill="#b59aff" stroke="black" cx="287" cy="-155" rx="88.28" ry="18"/>
<text text-anchor="middle" x="287" y="-151.3" font-family="Times,serif" font-size="14.00">:core:logging:api</text>
</g>
<!-- :data:musicbrainz&#45;&gt;:core:logging:api -->
<g id="edge5" class="edge">
<title>:data:musicbrainz&#45;&gt;:core:logging:api</title>
<path fill="none" stroke="black" stroke-dasharray="1,5" d="M237.6,-277.34C237.6,-277.34 237.6,-179.97 237.6,-179.97"/>
<polygon fill="black" stroke="black" points="241.1,-179.97 237.6,-169.97 234.1,-179.97 241.1,-179.97"/>
</g>
<!-- :core:logging:api&#45;&gt;:core:coroutines -->
<g id="edge6" class="edge">
<title>:core:logging:api&#45;&gt;:core:coroutines</title>
<path fill="none" stroke="black" d="M210.38,-146.01C210.38,-146.01 210.38,-37.2 210.38,-37.2"/>
<polygon fill="black" stroke="black" points="213.88,-37.2 210.38,-27.2 206.88,-37.2 213.88,-37.2"/>
</g>
</g>
</svg>
