<?xml version="1.0" encoding="UTF-8" standalone="no"?>
<!DOCTYPE svg PUBLIC "-//W3C//DTD SVG 1.1//EN"
 "http://www.w3.org/Graphics/SVG/1.1/DTD/svg11.dtd">
<!-- Generated by graphviz version 2.43.0 (0)
 -->
<!-- Title: %3 Pages: 1 -->
<svg width="464pt" height="334pt"
 viewBox="0.00 0.00 463.68 334.00" xmlns="http://www.w3.org/2000/svg" xmlns:xlink="http://www.w3.org/1999/xlink">
<g id="graph0" class="graph" transform="scale(1 1) rotate(0) translate(4 330)">
<title>%3</title>
<polygon fill="white" stroke="transparent" points="-4,4 -4,-330 459.68,-330 459.68,4 -4,4"/>
<text text-anchor="middle" x="227.84" y="-298" font-family="Times,serif" font-size="30.00">Dependents</text>
<text text-anchor="middle" x="227.84" y="-265" font-family="Times,serif" font-size="30.00"> </text>
<!-- :data:database -->
<g id="node1" class="node">
<title>:data:database</title>
<polygon fill="#b59aff" stroke="black" points="122,-144 0,-144 0,-108 122,-108 122,-144"/>
<text text-anchor="middle" x="61" y="-122.3" font-family="Times,serif" font-size="14.00">:data:database</text>
</g>
<!-- :shared -->
<g id="node2" class="node">
<title>:shared</title>
<ellipse fill="#b59aff" stroke="black" cx="339.34" cy="-234" rx="45.49" ry="18"/>
<text text-anchor="middle" x="339.34" y="-230.3" font-family="Times,serif" font-size="14.00">:shared</text>
</g>
<!-- :shared&#45;&gt;:data:database -->
<g id="edge1" class="edge">
<title>:shared&#45;&gt;:data:database</title>
<path fill="none" stroke="black" stroke-dasharray="1,5" d="M293.69,-234C214.73,-234 61,-234 61,-234 61,-234 61,-154.32 61,-154.32"/>
<polygon fill="black" stroke="black" points="64.5,-154.32 61,-144.32 57.5,-154.32 64.5,-154.32"/>
</g>
<!-- :data:repository -->
<g id="node3" class="node">
<title>:data:repository</title>
<ellipse fill="#b59aff" stroke="black" cx="339.34" cy="-180" rx="85.29" ry="18"/>
<text text-anchor="middle" x="339.34" y="-176.3" font-family="Times,serif" font-size="14.00">:data:repository</text>
</g>
<!-- :data:repository&#45;&gt;:data:database -->
<g id="edge2" class="edge">
<title>:data:repository&#45;&gt;:data:database</title>
<path fill="none" stroke="black" stroke-dasharray="1,5" d="M261,-172.57C261,-159.79 261,-135 261,-135 261,-135 132.09,-135 132.09,-135"/>
<polygon fill="black" stroke="black" points="132.09,-131.5 122.09,-135 132.09,-138.5 132.09,-131.5"/>
</g>
<!-- :android:app -->
<g id="node4" class="node">
<title>:android:app</title>
<ellipse fill="#9affb5" stroke="black" cx="339.34" cy="-126" rx="69.59" ry="18"/>
<text text-anchor="middle" x="339.34" y="-122.3" font-family="Times,serif" font-size="14.00">:android:app</text>
</g>
<!-- :android:app&#45;&gt;:data:database -->
<g id="edge3" class="edge">
<title>:android:app&#45;&gt;:data:database</title>
<path fill="none" stroke="black" stroke-dasharray="1,5" d="M269.46,-126C269.46,-126 132.38,-126 132.38,-126"/>
<polygon fill="black" stroke="black" points="132.38,-122.5 122.38,-126 132.38,-129.5 132.38,-122.5"/>
</g>
<!-- :shared:feature:stats -->
<g id="node5" class="node">
<title>:shared:feature:stats</title>
<ellipse fill="#b59aff" stroke="black" cx="339.34" cy="-72" rx="107.78" ry="18"/>
<text text-anchor="middle" x="339.34" y="-68.3" font-family="Times,serif" font-size="14.00">:shared:feature:stats</text>
</g>
<!-- :shared:feature:stats&#45;&gt;:data:database -->
<g id="edge4" class="edge">
<title>:shared:feature:stats&#45;&gt;:data:database</title>
<path fill="none" stroke="black" stroke-dasharray="1,5" d="M242,-79.84C242,-92.73 242,-117 242,-117 242,-117 132.03,-117 132.03,-117"/>
<polygon fill="black" stroke="black" points="132.03,-113.5 122.03,-117 132.03,-120.5 132.03,-113.5"/>
</g>
<!-- :shared:feature:details -->
<g id="node6" class="node">
<title>:shared:feature:details</title>
<ellipse fill="#b59aff" stroke="black" cx="339.34" cy="-18" rx="116.18" ry="18"/>
<text text-anchor="middle" x="339.34" y="-14.3" font-family="Times,serif" font-size="14.00">:shared:feature:details</text>
</g>
<!-- :shared:feature:details&#45;&gt;:data:database -->
<g id="edge5" class="edge">
<title>:shared:feature:details&#45;&gt;:data:database</title>
<path fill="none" stroke="black" stroke-dasharray="1,5" d="M222.91,-18C146.64,-18 61,-18 61,-18 61,-18 61,-97.68 61,-97.68"/>
<polygon fill="black" stroke="black" points="57.5,-97.68 61,-107.68 64.5,-97.68 57.5,-97.68"/>
</g>
</g>
</svg>
