<?xml version="1.0" encoding="UTF-8" standalone="no"?>
<!DOCTYPE svg PUBLIC "-//W3C//DTD SVG 1.1//EN"
 "http://www.w3.org/Graphics/SVG/1.1/DTD/svg11.dtd">
<!-- Generated by graphviz version 2.43.0 (0)
 -->
<!-- Title: %3 Pages: 1 -->
<svg width="471pt" height="392pt"
 viewBox="0.00 0.00 470.53 392.00" xmlns="http://www.w3.org/2000/svg" xmlns:xlink="http://www.w3.org/1999/xlink">
<g id="graph0" class="graph" transform="scale(1 1) rotate(0) translate(4 388)">
<title>%3</title>
<polygon fill="white" stroke="transparent" points="-4,4 -4,-388 466.53,-388 466.53,4 -4,4"/>
<text text-anchor="middle" x="231.27" y="-356" font-family="Times,serif" font-size="30.00">Dependencies</text>
<text text-anchor="middle" x="231.27" y="-323" font-family="Times,serif" font-size="30.00"> </text>
<!-- :data:database -->
<g id="node1" class="node">
<title>:data:database</title>
<polygon fill="#b59aff" stroke="black" points="378.14,-310 18.14,-310 18.14,-274 378.14,-274 378.14,-310"/>
<text text-anchor="middle" x="198.14" y="-288.3" font-family="Times,serif" font-size="14.00">:data:database</text>
</g>
<!-- :core:coroutines -->
<g id="node2" class="node">
<title>:core:coroutines</title>
<ellipse fill="#b59aff" stroke="black" cx="85.14" cy="-155" rx="85.29" ry="18"/>
<text text-anchor="middle" x="85.14" y="-151.3" font-family="Times,serif" font-size="14.00">:core:coroutines</text>
</g>
<!-- :data:database&#45;&gt;:core:coroutines -->
<g id="edge1" class="edge">
<title>:data:database&#45;&gt;:core:coroutines</title>
<path fill="none" stroke="black" stroke-dasharray="1,5" d="M94.21,-273.81C94.21,-273.81 94.21,-183.27 94.21,-183.27"/>
<polygon fill="black" stroke="black" points="97.71,-183.27 94.21,-173.27 90.71,-183.27 97.71,-183.27"/>
</g>
<!-- :core:models -->
<g id="node3" class="node">
<title>:core:models</title>
<ellipse fill="#b59aff" stroke="black" cx="198.14" cy="-18" rx="69.59" ry="18"/>
<text text-anchor="middle" x="198.14" y="-14.3" font-family="Times,serif" font-size="14.00">:core:models</text>
</g>
<!-- :data:database&#45;&gt;:core:models -->
<g id="edge2" class="edge">
<title>:data:database&#45;&gt;:core:models</title>
<path fill="none" stroke="black" stroke-dasharray="1,5" d="M198.42,-273.6C198.42,-273.6 198.42,-46.32 198.42,-46.32"/>
<polygon fill="black" stroke="black" points="201.92,-46.32 198.42,-36.32 194.92,-46.32 201.92,-46.32"/>
</g>
<!-- :data:musicbrainz -->
<g id="node4" class="node">
<title>:data:musicbrainz</title>
<ellipse fill="#b59aff" stroke="black" cx="320.14" cy="-155" rx="93.68" ry="18"/>
<text text-anchor="middle" x="320.14" y="-151.3" font-family="Times,serif" font-size="14.00">:data:musicbrainz</text>
</g>
<!-- :data:database&#45;&gt;:data:musicbrainz -->
<g id="edge3" class="edge">
<title>:data:database&#45;&gt;:data:musicbrainz</title>
<path fill="none" stroke="black" stroke-dasharray="1,5" d="M302.35,-273.81C302.35,-273.81 302.35,-182.83 302.35,-182.83"/>
<polygon fill="black" stroke="black" points="305.85,-182.83 302.35,-172.83 298.85,-182.83 305.85,-182.83"/>
</g>
<!-- :data:musicbrainz&#45;&gt;:core:models -->
<g id="edge5" class="edge">
<title>:data:musicbrainz&#45;&gt;:core:models</title>
<path fill="none" stroke="black" stroke-dasharray="1,5" d="M247.12,-143.32C247.12,-143.32 247.12,-40.84 247.12,-40.84"/>
<polygon fill="black" stroke="black" points="250.62,-40.84 247.12,-30.84 243.62,-40.84 250.62,-40.84"/>
</g>
<!-- :core:logging:api -->
<g id="node5" class="node">
<title>:core:logging:api</title>
<ellipse fill="#b59aff" stroke="black" cx="374.14" cy="-18" rx="88.28" ry="18"/>
<text text-anchor="middle" x="374.14" y="-14.3" font-family="Times,serif" font-size="14.00">:core:logging:api</text>
</g>
<!-- :data:musicbrainz&#45;&gt;:core:logging:api -->
<g id="edge4" class="edge">
<title>:data:musicbrainz&#45;&gt;:core:logging:api</title>
<path fill="none" stroke="black" stroke-dasharray="1,5" d="M349.74,-137.65C349.74,-137.65 349.74,-45.64 349.74,-45.64"/>
<polygon fill="black" stroke="black" points="353.24,-45.64 349.74,-35.64 346.24,-45.64 353.24,-45.64"/>
</g>
</g>
</svg>
