<?xml version="1.0" encoding="UTF-8" standalone="no"?>
<!DOCTYPE svg PUBLIC "-//W3C//DTD SVG 1.1//EN"
 "http://www.w3.org/Graphics/SVG/1.1/DTD/svg11.dtd">
<!-- Generated by graphviz version 2.43.0 (0)
 -->
<!-- Title: %3 Pages: 1 -->
<svg width="401pt" height="226pt"
 viewBox="0.00 0.00 401.28 226.00" xmlns="http://www.w3.org/2000/svg" xmlns:xlink="http://www.w3.org/1999/xlink">
<g id="graph0" class="graph" transform="scale(1 1) rotate(0) translate(4 222)">
<title>%3</title>
<polygon fill="white" stroke="transparent" points="-4,4 -4,-222 397.28,-222 397.28,4 -4,4"/>
<text text-anchor="middle" x="196.64" y="-190" font-family="Times,serif" font-size="30.00">Dependents</text>
<text text-anchor="middle" x="196.64" y="-157" font-family="Times,serif" font-size="30.00"> </text>
<!-- :data:database -->
<g id="node1" class="node">
<title>:data:database</title>
<polygon fill="#b59aff" stroke="black" points="122,-90 0,-90 0,-54 122,-54 122,-90"/>
<text text-anchor="middle" x="61" y="-68.3" font-family="Times,serif" font-size="14.00">:data:database</text>
</g>
<!-- :shared -->
<g id="node2" class="node">
<title>:shared</title>
<ellipse fill="#b59aff" stroke="black" cx="308.14" cy="-126" rx="45.49" ry="18"/>
<text text-anchor="middle" x="308.14" y="-122.3" font-family="Times,serif" font-size="14.00">:shared</text>
</g>
<!-- :shared&#45;&gt;:data:database -->
<g id="edge1" class="edge">
<title>:shared&#45;&gt;:data:database</title>
<path fill="none" stroke="black" stroke-dasharray="1,5" d="M262.52,-126C191.11,-126 61,-126 61,-126 61,-126 61,-100.28 61,-100.28"/>
<polygon fill="black" stroke="black" points="64.5,-100.28 61,-90.28 57.5,-100.28 64.5,-100.28"/>
</g>
<!-- :test&#45;data -->
<g id="node3" class="node">
<title>:test&#45;data</title>
<ellipse fill="#b59aff" stroke="black" cx="308.14" cy="-72" rx="55.49" ry="18"/>
<text text-anchor="middle" x="308.14" y="-68.3" font-family="Times,serif" font-size="14.00">:test&#45;data</text>
</g>
<!-- :test&#45;data&#45;&gt;:data:database -->
<g id="edge2" class="edge">
<title>:test&#45;data&#45;&gt;:data:database</title>
<path fill="none" stroke="black" stroke-dasharray="1,5" d="M256.03,-78C256.03,-78 132.2,-78 132.2,-78"/>
<polygon fill="black" stroke="black" points="132.2,-74.5 122.2,-78 132.2,-81.5 132.2,-74.5"/>
</g>
<!-- :data:repository -->
<g id="node4" class="node">
<title>:data:repository</title>
<ellipse fill="#b59aff" stroke="black" cx="308.14" cy="-18" rx="85.29" ry="18"/>
<text text-anchor="middle" x="308.14" y="-14.3" font-family="Times,serif" font-size="14.00">:data:repository</text>
</g>
<!-- :data:repository&#45;&gt;:data:database -->
<g id="edge3" class="edge">
<title>:data:repository&#45;&gt;:data:database</title>
<path fill="none" stroke="black" stroke-dasharray="1,5" d="M237,-28.18C237,-42.27 237,-66 237,-66 237,-66 132.06,-66 132.06,-66"/>
<polygon fill="black" stroke="black" points="132.06,-62.5 122.06,-66 132.06,-69.5 132.06,-62.5"/>
</g>
</g>
</svg>
