<?xml version="1.0" encoding="UTF-8" standalone="no"?>
<!DOCTYPE svg PUBLIC "-//W3C//DTD SVG 1.1//EN"
 "http://www.w3.org/Graphics/SVG/1.1/DTD/svg11.dtd">
<!-- Generated by graphviz version 11.0.0 (20240428.1522)
 -->
<!-- Pages: 1 -->
<svg width="413pt" height="394pt"
 viewBox="0.00 0.00 412.87 393.50" xmlns="http://www.w3.org/2000/svg" xmlns:xlink="http://www.w3.org/1999/xlink">
<g id="graph0" class="graph" transform="scale(1 1) rotate(0) translate(4 389.5)">
<polygon fill="white" stroke="none" points="-4,4 -4,-389.5 408.87,-389.5 408.87,4 -4,4"/>
<text text-anchor="middle" x="202.44" y="-353" font-family="Times,serif" font-size="30.00">database</text>
<text text-anchor="middle" x="202.44" y="-319.25" font-family="Times,serif" font-size="30.00"> </text>
<!-- :data:database -->
<g id="node1" class="node">
<title>:data:database</title>
<polygon fill="#b59aff" stroke="black" points="360,-310 0,-310 0,-274 360,-274 360,-310"/>
<text text-anchor="middle" x="180" y="-286.95" font-family="Times,serif" font-size="14.00">:data:database</text>
</g>
<!-- :core:coroutines -->
<g id="node2" class="node">
<title>:core:coroutines</title>
<ellipse fill="#b59aff" stroke="black" cx="82" cy="-155" rx="70.29" ry="18"/>
<text text-anchor="middle" x="82" y="-149.95" font-family="Times,serif" font-size="14.00">:core:coroutines</text>
</g>
<!-- :data:database&#45;&gt;:core:coroutines -->
<g id="edge1" class="edge">
<title>:data:database&#45;&gt;:core:coroutines</title>
<path fill="none" stroke="black" stroke-dasharray="1,5" d="M82,-273.52C82,-273.52 82,-184.7 82,-184.7"/>
<polygon fill="black" stroke="black" points="85.5,-184.7 82,-174.7 78.5,-184.7 85.5,-184.7"/>
</g>
<!-- :core:models -->
<g id="node3" class="node">
<title>:core:models</title>
<ellipse fill="#b59aff" stroke="black" cx="180" cy="-18" rx="59.03" ry="18"/>
<text text-anchor="middle" x="180" y="-12.95" font-family="Times,serif" font-size="14.00">:core:models</text>
</g>
<!-- :data:database&#45;&gt;:core:models -->
<g id="edge2" class="edge">
<title>:data:database&#45;&gt;:core:models</title>
<path fill="none" stroke="black" stroke-dasharray="1,5" d="M180.17,-273.6C180.17,-273.6 180.17,-47.84 180.17,-47.84"/>
<polygon fill="black" stroke="black" points="183.67,-47.84 180.17,-37.84 176.67,-47.84 183.67,-47.84"/>
</g>
<!-- :data:musicbrainz -->
<g id="node4" class="node">
<title>:data:musicbrainz</title>
<ellipse fill="#b59aff" stroke="black" cx="285" cy="-155" rx="76.94" ry="18"/>
<text text-anchor="middle" x="285" y="-149.95" font-family="Times,serif" font-size="14.00">:data:musicbrainz</text>
</g>
<!-- :data:database&#45;&gt;:data:musicbrainz -->
<g id="edge3" class="edge">
<title>:data:database&#45;&gt;:data:musicbrainz</title>
<path fill="none" stroke="black" stroke-dasharray="1,5" d="M284.03,-273.52C284.03,-273.52 284.03,-184.7 284.03,-184.7"/>
<polygon fill="black" stroke="black" points="287.53,-184.7 284.03,-174.7 280.53,-184.7 287.53,-184.7"/>
</g>
<!-- :data:musicbrainz&#45;&gt;:core:models -->
<g id="edge5" class="edge">
<title>:data:musicbrainz&#45;&gt;:core:models</title>
<path fill="none" stroke="black" stroke-dasharray="1,5" d="M223.54,-143.79C223.54,-143.79 223.54,-42.06 223.54,-42.06"/>
<polygon fill="black" stroke="black" points="227.04,-42.06 223.54,-32.06 220.04,-42.06 227.04,-42.06"/>
</g>
<!-- :core:logging:api -->
<g id="node5" class="node">
<title>:core:logging:api</title>
<ellipse fill="#b59aff" stroke="black" cx="331" cy="-18" rx="73.87" ry="18"/>
<text text-anchor="middle" x="331" y="-12.95" font-family="Times,serif" font-size="14.00">:core:logging:api</text>
</g>
<!-- :data:musicbrainz&#45;&gt;:core:logging:api -->
<g id="edge4" class="edge">
<title>:data:musicbrainz&#45;&gt;:core:logging:api</title>
<path fill="none" stroke="black" stroke-dasharray="1,5" d="M309.54,-137.65C309.54,-137.65 309.54,-47.16 309.54,-47.16"/>
<polygon fill="black" stroke="black" points="313.04,-47.16 309.54,-37.16 306.04,-47.16 313.04,-47.16"/>
</g>
</g>
</svg>
