<?xml version="1.0" encoding="UTF-8" standalone="no"?>
<!DOCTYPE svg PUBLIC "-//W3C//DTD SVG 1.1//EN"
 "http://www.w3.org/Graphics/SVG/1.1/DTD/svg11.dtd">
<!-- Generated by graphviz version 2.43.0 (0)
 -->
<!-- Title: %3 Pages: 1 -->
<svg width="447pt" height="334pt"
 viewBox="0.00 0.00 446.78 334.00" xmlns="http://www.w3.org/2000/svg" xmlns:xlink="http://www.w3.org/1999/xlink">
<g id="graph0" class="graph" transform="scale(1 1) rotate(0) translate(4 330)">
<title>%3</title>
<polygon fill="white" stroke="transparent" points="-4,4 -4,-330 442.78,-330 442.78,4 -4,4"/>
<text text-anchor="middle" x="219.39" y="-298" font-family="Times,serif" font-size="30.00">Dependents</text>
<text text-anchor="middle" x="219.39" y="-265" font-family="Times,serif" font-size="30.00"> </text>
<!-- :data:database -->
<g id="node1" class="node">
<title>:data:database</title>
<polygon fill="#b59aff" stroke="black" points="122,-144 0,-144 0,-108 122,-108 122,-144"/>
<text text-anchor="middle" x="61" y="-122.3" font-family="Times,serif" font-size="14.00">:data:database</text>
</g>
<!-- :shared -->
<g id="node2" class="node">
<title>:shared</title>
<ellipse fill="#b59aff" stroke="black" cx="330.89" cy="-234" rx="45.49" ry="18"/>
<text text-anchor="middle" x="330.89" y="-230.3" font-family="Times,serif" font-size="14.00">:shared</text>
</g>
<!-- :shared&#45;&gt;:data:database -->
<g id="edge1" class="edge">
<title>:shared&#45;&gt;:data:database</title>
<path fill="none" stroke="black" stroke-dasharray="1,5" d="M285.12,-234C203.2,-234 40,-234 40,-234 40,-234 40,-154.32 40,-154.32"/>
<polygon fill="black" stroke="black" points="43.5,-154.32 40,-144.32 36.5,-154.32 43.5,-154.32"/>
</g>
<!-- :test&#45;data -->
<g id="node3" class="node">
<title>:test&#45;data</title>
<ellipse fill="#b59aff" stroke="black" cx="330.89" cy="-180" rx="55.49" ry="18"/>
<text text-anchor="middle" x="330.89" y="-176.3" font-family="Times,serif" font-size="14.00">:test&#45;data</text>
</g>
<!-- :test&#45;data&#45;&gt;:data:database -->
<g id="edge2" class="edge">
<title>:test&#45;data&#45;&gt;:data:database</title>
<path fill="none" stroke="black" stroke-dasharray="1,5" d="M275.43,-180C201.81,-180 81,-180 81,-180 81,-180 81,-154.28 81,-154.28"/>
<polygon fill="black" stroke="black" points="84.5,-154.28 81,-144.28 77.5,-154.28 84.5,-154.28"/>
</g>
<!-- :data:coverart -->
<g id="node4" class="node">
<title>:data:coverart</title>
<ellipse fill="#b59aff" stroke="black" cx="330.89" cy="-126" rx="76.09" ry="18"/>
<text text-anchor="middle" x="330.89" y="-122.3" font-family="Times,serif" font-size="14.00">:data:coverart</text>
</g>
<!-- :data:coverart&#45;&gt;:data:database -->
<g id="edge3" class="edge">
<title>:data:coverart&#45;&gt;:data:database</title>
<path fill="none" stroke="#ff9ab1" stroke-dasharray="1,5" d="M264.87,-135C264.87,-135 132.18,-135 132.18,-135"/>
<polygon fill="#ff9ab1" stroke="#ff9ab1" points="132.18,-131.5 122.18,-135 132.18,-138.5 132.18,-131.5"/>
</g>
<!-- :data:repository -->
<g id="node5" class="node">
<title>:data:repository</title>
<ellipse fill="#b59aff" stroke="black" cx="330.89" cy="-72" rx="85.29" ry="18"/>
<text text-anchor="middle" x="330.89" y="-68.3" font-family="Times,serif" font-size="14.00">:data:repository</text>
</g>
<!-- :data:repository&#45;&gt;:data:database -->
<g id="edge4" class="edge">
<title>:data:repository&#45;&gt;:data:database</title>
<path fill="none" stroke="black" stroke-dasharray="1,5" d="M250,-77.78C250,-91.71 250,-126 250,-126 250,-126 132.1,-126 132.1,-126"/>
<polygon fill="black" stroke="black" points="132.1,-122.5 122.1,-126 132.1,-129.5 132.1,-122.5"/>
</g>
<!-- :shared:feature:stats -->
<g id="node6" class="node">
<title>:shared:feature:stats</title>
<ellipse fill="#b59aff" stroke="black" cx="330.89" cy="-18" rx="107.78" ry="18"/>
<text text-anchor="middle" x="330.89" y="-14.3" font-family="Times,serif" font-size="14.00">:shared:feature:stats</text>
</g>
<!-- :shared:feature:stats&#45;&gt;:data:database -->
<g id="edge5" class="edge">
<title>:shared:feature:stats&#45;&gt;:data:database</title>
<path fill="none" stroke="black" stroke-dasharray="1,5" d="M234,-26.1C234,-49.75 234,-117 234,-117 234,-117 132.48,-117 132.48,-117"/>
<polygon fill="black" stroke="black" points="132.48,-113.5 122.48,-117 132.48,-120.5 132.48,-113.5"/>
</g>
</g>
</svg>
