<?xml version="1.0" encoding="UTF-8" standalone="no"?>
<!DOCTYPE svg PUBLIC "-//W3C//DTD SVG 1.1//EN"
 "http://www.w3.org/Graphics/SVG/1.1/DTD/svg11.dtd">
<!-- Generated by graphviz version 2.43.0 (0)
 -->
<!-- Title: %3 Pages: 1 -->
<svg width="1263pt" height="666pt"
 viewBox="0.00 0.00 1263.48 666.00" xmlns="http://www.w3.org/2000/svg" xmlns:xlink="http://www.w3.org/1999/xlink">
<g id="graph0" class="graph" transform="scale(1 1) rotate(0) translate(4 662)">
<title>%3</title>
<polygon fill="white" stroke="transparent" points="-4,4 -4,-662 1259.48,-662 1259.48,4 -4,4"/>
<text text-anchor="middle" x="627.74" y="-630" font-family="Times,serif" font-size="30.00">Dependencies</text>
<text text-anchor="middle" x="627.74" y="-597" font-family="Times,serif" font-size="30.00"> </text>
<!-- :shared:feature:history -->
<g id="node1" class="node">
<title>:shared:feature:history</title>
<polygon fill="#b59aff" stroke="black" points="405.14,-584 224.14,-584 224.14,-548 405.14,-548 405.14,-584"/>
<text text-anchor="middle" x="314.64" y="-562.3" font-family="Times,serif" font-size="14.00">:shared:feature:history</text>
</g>
<!-- :ui:test:image -->
<g id="node2" class="node">
<title>:ui:test:image</title>
<ellipse fill="#9affb5" stroke="black" cx="314.64" cy="-292" rx="74.99" ry="18"/>
<text text-anchor="middle" x="314.64" y="-288.3" font-family="Times,serif" font-size="14.00">:ui:test:image</text>
</g>
<!-- :shared:feature:history&#45;&gt;:ui:test:image -->
<g id="edge1" class="edge">
<title>:shared:feature:history&#45;&gt;:ui:test:image</title>
<path fill="none" stroke="#ff9ab1" stroke-dasharray="1,5" d="M289.73,-547.6C289.73,-547.6 289.73,-319.26 289.73,-319.26"/>
<polygon fill="#ff9ab1" stroke="#ff9ab1" points="293.23,-319.26 289.73,-309.26 286.23,-319.26 293.23,-319.26"/>
</g>
<!-- :ui:test:screenshot -->
<g id="node3" class="node">
<title>:ui:test:screenshot</title>
<ellipse fill="#9affb5" stroke="black" cx="1158.64" cy="-292" rx="96.68" ry="18"/>
<text text-anchor="middle" x="1158.64" y="-288.3" font-family="Times,serif" font-size="14.00">:ui:test:screenshot</text>
</g>
<!-- :shared:feature:history&#45;&gt;:ui:test:screenshot -->
<g id="edge2" class="edge">
<title>:shared:feature:history&#45;&gt;:ui:test:screenshot</title>
<path fill="none" stroke="#ff9ab1" stroke-dasharray="1,5" d="M405.53,-575C629.69,-575 1190.92,-575 1190.92,-575 1190.92,-575 1190.92,-319.28 1190.92,-319.28"/>
<polygon fill="#ff9ab1" stroke="#ff9ab1" points="1194.42,-319.28 1190.92,-309.28 1187.42,-319.28 1194.42,-319.28"/>
</g>
<!-- :core:models -->
<g id="node4" class="node">
<title>:core:models</title>
<ellipse fill="#b59aff" stroke="black" cx="455.64" cy="-18" rx="69.59" ry="18"/>
<text text-anchor="middle" x="455.64" y="-14.3" font-family="Times,serif" font-size="14.00">:core:models</text>
</g>
<!-- :shared:feature:history&#45;&gt;:core:models -->
<g id="edge3" class="edge">
<title>:shared:feature:history&#45;&gt;:core:models</title>
<path fill="none" stroke="black" stroke-dasharray="1,5" d="M405.15,-557C427.9,-557 445.99,-557 445.99,-557 445.99,-557 445.99,-45.93 445.99,-45.93"/>
<polygon fill="black" stroke="black" points="449.49,-45.93 445.99,-35.93 442.49,-45.93 449.49,-45.93"/>
</g>
<!-- :core:preferences -->
<g id="node5" class="node">
<title>:core:preferences</title>
<ellipse fill="#b59aff" stroke="black" cx="91.64" cy="-292" rx="91.78" ry="18"/>
<text text-anchor="middle" x="91.64" y="-288.3" font-family="Times,serif" font-size="14.00">:core:preferences</text>
</g>
<!-- :shared:feature:history&#45;&gt;:core:preferences -->
<g id="edge4" class="edge">
<title>:shared:feature:history&#45;&gt;:core:preferences</title>
<path fill="none" stroke="black" stroke-dasharray="1,5" d="M234.65,-548C234.65,-487.91 234.65,-298 234.65,-298 234.65,-298 188.13,-298 188.13,-298"/>
<polygon fill="black" stroke="black" points="188.13,-294.5 178.13,-298 188.13,-301.5 188.13,-294.5"/>
</g>
<!-- :shared:domain -->
<g id="node6" class="node">
<title>:shared:domain</title>
<ellipse fill="#b59aff" stroke="black" cx="344.64" cy="-155" rx="82.59" ry="18"/>
<text text-anchor="middle" x="344.64" y="-151.3" font-family="Times,serif" font-size="14.00">:shared:domain</text>
</g>
<!-- :shared:feature:history&#45;&gt;:shared:domain -->
<g id="edge5" class="edge">
<title>:shared:feature:history&#45;&gt;:shared:domain</title>
<path fill="none" stroke="black" stroke-dasharray="1,5" d="M394.64,-547.81C394.64,-547.81 394.64,-179.44 394.64,-179.44"/>
<polygon fill="black" stroke="black" points="398.14,-179.44 394.64,-169.44 391.14,-179.44 398.14,-179.44"/>
</g>
<!-- :ui:common -->
<g id="node7" class="node">
<title>:ui:common</title>
<ellipse fill="#b59aff" stroke="black" cx="559.64" cy="-429" rx="64.19" ry="18"/>
<text text-anchor="middle" x="559.64" y="-425.3" font-family="Times,serif" font-size="14.00">:ui:common</text>
</g>
<!-- :shared:feature:history&#45;&gt;:ui:common -->
<g id="edge6" class="edge">
<title>:shared:feature:history&#45;&gt;:ui:common</title>
<path fill="none" stroke="black" stroke-dasharray="1,5" d="M399.89,-547.82C399.89,-513.16 399.89,-441 399.89,-441 399.89,-441 501.28,-441 501.28,-441"/>
<polygon fill="black" stroke="black" points="501.28,-444.5 511.28,-441 501.28,-437.5 501.28,-444.5"/>
</g>
<!-- :ui:image -->
<g id="node8" class="node">
<title>:ui:image</title>
<ellipse fill="#b59aff" stroke="black" cx="989.64" cy="-292" rx="53.89" ry="18"/>
<text text-anchor="middle" x="989.64" y="-288.3" font-family="Times,serif" font-size="14.00">:ui:image</text>
</g>
<!-- :shared:feature:history&#45;&gt;:ui:image -->
<g id="edge7" class="edge">
<title>:shared:feature:history&#45;&gt;:ui:image</title>
<path fill="none" stroke="black" stroke-dasharray="1,5" d="M405.24,-566C593.08,-566 1007.62,-566 1007.62,-566 1007.62,-566 1007.62,-319.14 1007.62,-319.14"/>
<polygon fill="black" stroke="black" points="1011.12,-319.14 1007.62,-309.14 1004.12,-319.14 1011.12,-319.14"/>
</g>
<!-- :ui:core -->
<g id="node9" class="node">
<title>:ui:core</title>
<ellipse fill="#b59aff" stroke="black" cx="989.64" cy="-155" rx="45.49" ry="18"/>
<text text-anchor="middle" x="989.64" y="-151.3" font-family="Times,serif" font-size="14.00">:ui:core</text>
</g>
<!-- :ui:test:screenshot&#45;&gt;:ui:core -->
<g id="edge8" class="edge">
<title>:ui:test:screenshot&#45;&gt;:ui:core</title>
<path fill="none" stroke="black" stroke-dasharray="1,5" d="M1066.34,-286.46C1066.34,-260.83 1066.34,-155 1066.34,-155 1066.34,-155 1045.15,-155 1045.15,-155"/>
<polygon fill="black" stroke="black" points="1045.15,-151.5 1035.15,-155 1045.15,-158.5 1045.15,-151.5"/>
</g>
<!-- :core:preferences&#45;&gt;:core:models -->
<g id="edge10" class="edge">
<title>:core:preferences&#45;&gt;:core:models</title>
<path fill="none" stroke="black" stroke-dasharray="1,5" d="M178.1,-286C205.78,-286 229.39,-286 229.39,-286 229.39,-286 229.39,-18 229.39,-18 229.39,-18 375.91,-18 375.91,-18"/>
<polygon fill="black" stroke="black" points="375.91,-21.5 385.91,-18 375.91,-14.5 375.91,-21.5"/>
</g>
<!-- :core:coroutines -->
<g id="node10" class="node">
<title>:core:coroutines</title>
<ellipse fill="#b59aff" stroke="black" cx="91.64" cy="-155" rx="85.29" ry="18"/>
<text text-anchor="middle" x="91.64" y="-151.3" font-family="Times,serif" font-size="14.00">:core:coroutines</text>
</g>
<!-- :core:preferences&#45;&gt;:core:coroutines -->
<g id="edge9" class="edge">
<title>:core:preferences&#45;&gt;:core:coroutines</title>
<path fill="none" stroke="black" stroke-dasharray="1,5" d="M91.64,-273.81C91.64,-273.81 91.64,-183.27 91.64,-183.27"/>
<polygon fill="black" stroke="black" points="95.14,-183.27 91.64,-173.27 88.14,-183.27 95.14,-183.27"/>
</g>
<!-- :shared:domain&#45;&gt;:core:models -->
<g id="edge11" class="edge">
<title>:shared:domain&#45;&gt;:core:models</title>
<path fill="none" stroke="black" stroke-dasharray="1,5" d="M406.64,-142.84C406.64,-142.84 406.64,-41.13 406.64,-41.13"/>
<polygon fill="black" stroke="black" points="410.14,-41.13 406.64,-31.13 403.14,-41.13 410.14,-41.13"/>
</g>
<!-- :ui:common&#45;&gt;:ui:test:image -->
<g id="edge12" class="edge">
<title>:ui:common&#45;&gt;:ui:test:image</title>
<path fill="none" stroke="#ff9ab1" stroke-dasharray="1,5" d="M495.1,-429C430.16,-429 339.56,-429 339.56,-429 339.56,-429 339.56,-319.07 339.56,-319.07"/>
<polygon fill="#ff9ab1" stroke="#ff9ab1" points="343.06,-319.07 339.56,-309.07 336.06,-319.07 343.06,-319.07"/>
</g>
<!-- :ui:common&#45;&gt;:ui:test:screenshot -->
<g id="edge13" class="edge">
<title>:ui:common&#45;&gt;:ui:test:screenshot</title>
<path fill="none" stroke="#ff9ab1" stroke-dasharray="1,5" d="M607.96,-441C745.01,-441 1126.36,-441 1126.36,-441 1126.36,-441 1126.36,-319.09 1126.36,-319.09"/>
<polygon fill="#ff9ab1" stroke="#ff9ab1" points="1129.86,-319.09 1126.36,-309.09 1122.86,-319.09 1129.86,-319.09"/>
</g>
<!-- :ui:common&#45;&gt;:core:models -->
<g id="edge14" class="edge">
<title>:ui:common&#45;&gt;:core:models</title>
<path fill="none" stroke="black" d="M511.66,-417C488.14,-417 464.79,-417 464.79,-417 464.79,-417 464.79,-45.92 464.79,-45.92"/>
<polygon fill="black" stroke="black" points="468.29,-45.92 464.79,-35.92 461.29,-45.92 468.29,-45.92"/>
</g>
<!-- :ui:common&#45;&gt;:core:preferences -->
<g id="edge18" class="edge">
<title>:ui:common&#45;&gt;:core:preferences</title>
<path fill="none" stroke="black" stroke-dasharray="1,5" d="M498.94,-435C372.31,-435 91.64,-435 91.64,-435 91.64,-435 91.64,-320.11 91.64,-320.11"/>
<polygon fill="black" stroke="black" points="95.14,-320.11 91.64,-310.11 88.14,-320.11 95.14,-320.11"/>
</g>
<!-- :ui:common&#45;&gt;:shared:domain -->
<g id="edge20" class="edge">
<title>:ui:common&#45;&gt;:shared:domain</title>
<path fill="none" stroke="black" stroke-dasharray="1,5" d="M498.94,-423C458.4,-423 412.49,-423 412.49,-423 412.49,-423 412.49,-175.51 412.49,-175.51"/>
<polygon fill="black" stroke="black" points="415.99,-175.51 412.49,-165.51 408.99,-175.51 415.99,-175.51"/>
</g>
<!-- :ui:common&#45;&gt;:ui:image -->
<g id="edge21" class="edge">
<title>:ui:common&#45;&gt;:ui:image</title>
<path fill="none" stroke="black" stroke-dasharray="1,5" d="M620.44,-435C735.05,-435 971.66,-435 971.66,-435 971.66,-435 971.66,-319.25 971.66,-319.25"/>
<polygon fill="black" stroke="black" points="975.16,-319.25 971.66,-309.25 968.16,-319.25 975.16,-319.25"/>
</g>
<!-- :ui:common&#45;&gt;:ui:core -->
<g id="edge15" class="edge">
<title>:ui:common&#45;&gt;:ui:core</title>
<path fill="none" stroke="black" d="M624.07,-429C721.18,-429 893.82,-429 893.82,-429 893.82,-429 893.82,-155 893.82,-155 893.82,-155 933.97,-155 933.97,-155"/>
<polygon fill="black" stroke="black" points="933.97,-158.5 943.97,-155 933.97,-151.5 933.97,-158.5"/>
</g>
<!-- :data:coverart -->
<g id="node11" class="node">
<title>:data:coverart</title>
<ellipse fill="#b59aff" stroke="black" cx="559.64" cy="-292" rx="76.09" ry="18"/>
<text text-anchor="middle" x="559.64" y="-288.3" font-family="Times,serif" font-size="14.00">:data:coverart</text>
</g>
<!-- :ui:common&#45;&gt;:data:coverart -->
<g id="edge16" class="edge">
<title>:ui:common&#45;&gt;:data:coverart</title>
<path fill="none" stroke="black" stroke-dasharray="1,5" d="M559.64,-410.81C559.64,-410.81 559.64,-320.27 559.64,-320.27"/>
<polygon fill="black" stroke="black" points="563.14,-320.27 559.64,-310.27 556.14,-320.27 563.14,-320.27"/>
</g>
<!-- :data:musicbrainz -->
<g id="node12" class="node">
<title>:data:musicbrainz</title>
<ellipse fill="#b59aff" stroke="black" cx="785.64" cy="-292" rx="93.68" ry="18"/>
<text text-anchor="middle" x="785.64" y="-288.3" font-family="Times,serif" font-size="14.00">:data:musicbrainz</text>
</g>
<!-- :ui:common&#45;&gt;:data:musicbrainz -->
<g id="edge17" class="edge">
<title>:ui:common&#45;&gt;:data:musicbrainz</title>
<path fill="none" stroke="black" stroke-dasharray="1,5" d="M620.5,-423C687.44,-423 785.64,-423 785.64,-423 785.64,-423 785.64,-320.21 785.64,-320.21"/>
<polygon fill="black" stroke="black" points="789.14,-320.21 785.64,-310.21 782.14,-320.22 789.14,-320.21"/>
</g>
<!-- :core:logging:api -->
<g id="node13" class="node">
<title>:core:logging:api</title>
<ellipse fill="#b59aff" stroke="black" cx="663.64" cy="-155" rx="88.28" ry="18"/>
<text text-anchor="middle" x="663.64" y="-151.3" font-family="Times,serif" font-size="14.00">:core:logging:api</text>
</g>
<!-- :ui:common&#45;&gt;:core:logging:api -->
<g id="edge19" class="edge">
<title>:ui:common&#45;&gt;:core:logging:api</title>
<path fill="none" stroke="black" stroke-dasharray="1,5" d="M607.79,-417C635.1,-417 663.87,-417 663.87,-417 663.87,-417 663.87,-183.01 663.87,-183.01"/>
<polygon fill="black" stroke="black" points="667.37,-183.01 663.87,-173.01 660.37,-183.01 667.37,-183.01"/>
</g>
<!-- :ui:image&#45;&gt;:core:models -->
<g id="edge22" class="edge">
<title>:ui:image&#45;&gt;:core:models</title>
<path fill="none" stroke="black" stroke-dasharray="1,5" d="M939.92,-284.88C939.92,-267.25 939.92,-223 939.92,-223 939.92,-223 511.32,-223 511.32,-223 511.32,-223 511.32,-39.02 511.32,-39.02"/>
<polygon fill="black" stroke="black" points="514.82,-39.02 511.32,-29.02 507.82,-39.02 514.82,-39.02"/>
</g>
<!-- :ui:image&#45;&gt;:ui:core -->
<g id="edge23" class="edge">
<title>:ui:image&#45;&gt;:ui:core</title>
<path fill="none" stroke="black" stroke-dasharray="1,5" d="M989.64,-273.81C989.64,-273.81 989.64,-183.27 989.64,-183.27"/>
<polygon fill="black" stroke="black" points="993.14,-183.27 989.64,-173.27 986.14,-183.27 993.14,-183.27"/>
</g>
<!-- :shared:strings -->
<g id="node14" class="node">
<title>:shared:strings</title>
<ellipse fill="#b59aff" stroke="black" cx="989.64" cy="-18" rx="81.49" ry="18"/>
<text text-anchor="middle" x="989.64" y="-14.3" font-family="Times,serif" font-size="14.00">:shared:strings</text>
</g>
<!-- :ui:core&#45;&gt;:shared:strings -->
<g id="edge24" class="edge">
<title>:ui:core&#45;&gt;:shared:strings</title>
<path fill="none" stroke="black" d="M989.64,-136.81C989.64,-136.81 989.64,-46.27 989.64,-46.27"/>
<polygon fill="black" stroke="black" points="993.14,-46.27 989.64,-36.27 986.14,-46.27 993.14,-46.27"/>
</g>
<!-- :data:coverart&#45;&gt;:core:models -->
<g id="edge26" class="edge">
<title>:data:coverart&#45;&gt;:core:models</title>
<path fill="none" stroke="black" stroke-dasharray="1,5" d="M497.46,-281.59C497.46,-281.59 497.46,-42.54 497.46,-42.54"/>
<polygon fill="black" stroke="black" points="500.96,-42.54 497.46,-32.54 493.96,-42.54 500.96,-42.54"/>
</g>
<!-- :data:coverart&#45;&gt;:shared:domain -->
<g id="edge27" class="edge">
<title>:data:coverart&#45;&gt;:shared:domain</title>
<path fill="none" stroke="black" stroke-dasharray="1,5" d="M483.19,-292C450.56,-292 419.84,-292 419.84,-292 419.84,-292 419.84,-172.76 419.84,-172.76"/>
<polygon fill="black" stroke="black" points="423.34,-172.76 419.84,-162.76 416.34,-172.76 423.34,-172.76"/>
</g>
<!-- :data:coverart&#45;&gt;:core:logging:api -->
<g id="edge25" class="edge">
<title>:data:coverart&#45;&gt;:core:logging:api</title>
<path fill="none" stroke="black" stroke-dasharray="1,5" d="M605.47,-277.6C605.47,-277.6 605.47,-178.8 605.47,-178.8"/>
<polygon fill="black" stroke="black" points="608.97,-178.8 605.47,-168.8 601.97,-178.8 608.97,-178.8"/>
</g>
<!-- :data:musicbrainz&#45;&gt;:core:models -->
<g id="edge29" class="edge">
<title>:data:musicbrainz&#45;&gt;:core:models</title>
<path fill="none" stroke="black" stroke-dasharray="1,5" d="M815.63,-274.86C815.63,-214.87 815.63,-18 815.63,-18 815.63,-18 535.48,-18 535.48,-18"/>
<polygon fill="black" stroke="black" points="535.48,-14.5 525.48,-18 535.48,-21.5 535.48,-14.5"/>
</g>
<!-- :data:musicbrainz&#45;&gt;:core:logging:api -->
<g id="edge28" class="edge">
<title>:data:musicbrainz&#45;&gt;:core:logging:api</title>
<path fill="none" stroke="black" stroke-dasharray="1,5" d="M722.04,-278.61C722.04,-278.61 722.04,-178.64 722.04,-178.64"/>
<polygon fill="black" stroke="black" points="725.54,-178.64 722.04,-168.64 718.54,-178.64 725.54,-178.64"/>
</g>
</g>
</svg>
