<?xml version="1.0" encoding="UTF-8" standalone="no"?>
<!DOCTYPE svg PUBLIC "-//W3C//DTD SVG 1.1//EN"
 "http://www.w3.org/Graphics/SVG/1.1/DTD/svg11.dtd">
<!-- Generated by graphviz version 11.0.0 (20240428.1522)
 -->
<!-- Pages: 1 -->
<svg width="1123pt" height="668pt"
 viewBox="0.00 0.00 1122.97 667.50" xmlns="http://www.w3.org/2000/svg" xmlns:xlink="http://www.w3.org/1999/xlink">
<g id="graph0" class="graph" transform="scale(1 1) rotate(0) translate(4 663.5)">
<polygon fill="white" stroke="none" points="-4,4 -4,-663.5 1118.97,-663.5 1118.97,4 -4,4"/>
<text text-anchor="middle" x="557.49" y="-627" font-family="Times,serif" font-size="30.00">history</text>
<text text-anchor="middle" x="557.49" y="-593.25" font-family="Times,serif" font-size="30.00"> </text>
<!-- :shared:feature:history -->
<g id="node1" class="node">
<title>:shared:feature:history</title>
<polygon fill="#b59aff" stroke="black" points="540.59,-584 180.59,-584 180.59,-548 540.59,-548 540.59,-584"/>
<text text-anchor="middle" x="360.59" y="-560.95" font-family="Times,serif" font-size="14.00">:shared:feature:history</text>
</g>
<!-- :ui:test:image -->
<g id="node2" class="node">
<title>:ui:test:image</title>
<ellipse fill="#9affb5" stroke="black" cx="61.59" cy="-292" rx="61.59" ry="18"/>
<text text-anchor="middle" x="61.59" y="-286.95" font-family="Times,serif" font-size="14.00">:ui:test:image</text>
</g>
<!-- :shared:feature:history&#45;&gt;:ui:test:image -->
<g id="edge1" class="edge">
<title>:shared:feature:history&#45;&gt;:ui:test:image</title>
<path fill="none" stroke="#ff9ab1" stroke-dasharray="1,5" d="M180.28,-566C107.8,-566 41.06,-566 41.06,-566 41.06,-566 41.06,-320.65 41.06,-320.65"/>
<polygon fill="#ff9ab1" stroke="#ff9ab1" points="44.56,-320.65 41.06,-310.65 37.56,-320.65 44.56,-320.65"/>
</g>
<!-- :ui:test:screenshot -->
<g id="node3" class="node">
<title>:ui:test:screenshot</title>
<ellipse fill="#9affb5" stroke="black" cx="218.59" cy="-292" rx="77.45" ry="18"/>
<text text-anchor="middle" x="218.59" y="-286.95" font-family="Times,serif" font-size="14.00">:ui:test:screenshot</text>
</g>
<!-- :shared:feature:history&#45;&gt;:ui:test:screenshot -->
<g id="edge2" class="edge">
<title>:shared:feature:history&#45;&gt;:ui:test:screenshot</title>
<path fill="none" stroke="#ff9ab1" stroke-dasharray="1,5" d="M219.07,-547.6C219.07,-547.6 219.07,-321.84 219.07,-321.84"/>
<polygon fill="#ff9ab1" stroke="#ff9ab1" points="222.57,-321.84 219.07,-311.84 215.57,-321.84 222.57,-321.84"/>
</g>
<!-- :core:models -->
<g id="node4" class="node">
<title>:core:models</title>
<ellipse fill="#b59aff" stroke="black" cx="810.59" cy="-18" rx="59.03" ry="18"/>
<text text-anchor="middle" x="810.59" y="-12.95" font-family="Times,serif" font-size="14.00">:core:models</text>
</g>
<!-- :shared:feature:history&#45;&gt;:core:models -->
<g id="edge3" class="edge">
<title>:shared:feature:history&#45;&gt;:core:models</title>
<path fill="none" stroke="black" stroke-dasharray="1,5" d="M425.69,-547.5C425.69,-451.03 425.69,-10 425.69,-10 425.69,-10 745.56,-10 745.56,-10"/>
<polygon fill="black" stroke="black" points="745.56,-13.5 755.56,-10 745.56,-6.5 745.56,-13.5"/>
</g>
<!-- :core:preferences -->
<g id="node5" class="node">
<title>:core:preferences</title>
<ellipse fill="#b59aff" stroke="black" cx="1040.59" cy="-292" rx="74.38" ry="18"/>
<text text-anchor="middle" x="1040.59" y="-286.95" font-family="Times,serif" font-size="14.00">:core:preferences</text>
</g>
<!-- :shared:feature:history&#45;&gt;:core:preferences -->
<g id="edge4" class="edge">
<title>:shared:feature:history&#45;&gt;:core:preferences</title>
<path fill="none" stroke="black" stroke-dasharray="1,5" d="M540.72,-572C749.53,-572 1065.38,-572 1065.38,-572 1065.38,-572 1065.38,-320.61 1065.38,-320.61"/>
<polygon fill="black" stroke="black" points="1068.88,-320.61 1065.38,-310.61 1061.88,-320.61 1068.88,-320.61"/>
</g>
<!-- :domain -->
<g id="node6" class="node">
<title>:domain</title>
<ellipse fill="#b59aff" stroke="black" cx="880.59" cy="-155" rx="41.63" ry="18"/>
<text text-anchor="middle" x="880.59" y="-149.95" font-family="Times,serif" font-size="14.00">:domain</text>
</g>
<!-- :shared:feature:history&#45;&gt;:domain -->
<g id="edge5" class="edge">
<title>:shared:feature:history&#45;&gt;:domain</title>
<path fill="none" stroke="black" stroke-dasharray="1,5" d="M540.91,-560C699.59,-560 905.53,-560 905.53,-560 905.53,-560 905.53,-181.41 905.53,-181.41"/>
<polygon fill="black" stroke="black" points="909.03,-181.41 905.53,-171.41 902.03,-181.41 909.03,-181.41"/>
</g>
<!-- :strings -->
<g id="node7" class="node">
<title>:strings</title>
<ellipse fill="#b59aff" stroke="black" cx="289.59" cy="-18" rx="38.04" ry="18"/>
<text text-anchor="middle" x="289.59" y="-12.95" font-family="Times,serif" font-size="14.00">:strings</text>
</g>
<!-- :shared:feature:history&#45;&gt;:strings -->
<g id="edge6" class="edge">
<title>:shared:feature:history&#45;&gt;:strings</title>
<path fill="none" stroke="black" stroke-dasharray="1,5" d="M416.25,-547.55C416.25,-453.3 416.25,-30 416.25,-30 416.25,-30 330.16,-30 330.16,-30"/>
<polygon fill="black" stroke="black" points="330.16,-26.5 320.16,-30 330.16,-33.5 330.16,-26.5"/>
</g>
<!-- :ui:common -->
<g id="node8" class="node">
<title>:ui:common</title>
<ellipse fill="#b59aff" stroke="black" cx="491.59" cy="-429" rx="56.47" ry="18"/>
<text text-anchor="middle" x="491.59" y="-423.95" font-family="Times,serif" font-size="14.00">:ui:common</text>
</g>
<!-- :shared:feature:history&#45;&gt;:ui:common -->
<g id="edge7" class="edge">
<title>:shared:feature:history&#45;&gt;:ui:common</title>
<path fill="none" stroke="black" stroke-dasharray="1,5" d="M487.85,-547.52C487.85,-547.52 487.85,-458.7 487.85,-458.7"/>
<polygon fill="black" stroke="black" points="491.35,-458.7 487.85,-448.7 484.35,-458.7 491.35,-458.7"/>
</g>
<!-- :ui:core -->
<g id="node9" class="node">
<title>:ui:core</title>
<ellipse fill="#b59aff" stroke="black" cx="289.59" cy="-155" rx="39.07" ry="18"/>
<text text-anchor="middle" x="289.59" y="-149.95" font-family="Times,serif" font-size="14.00">:ui:core</text>
</g>
<!-- :shared:feature:history&#45;&gt;:ui:core -->
<g id="edge8" class="edge">
<title>:shared:feature:history&#45;&gt;:ui:core</title>
<path fill="none" stroke="black" stroke-dasharray="1,5" d="M302.15,-547.54C302.15,-547.54 302.15,-184 302.15,-184"/>
<polygon fill="black" stroke="black" points="305.65,-184 302.15,-174 298.65,-184 305.65,-184"/>
</g>
<!-- :ui:image -->
<g id="node10" class="node">
<title>:ui:image</title>
<ellipse fill="#b59aff" stroke="black" cx="360.59" cy="-292" rx="46.23" ry="18"/>
<text text-anchor="middle" x="360.59" y="-286.95" font-family="Times,serif" font-size="14.00">:ui:image</text>
</g>
<!-- :shared:feature:history&#45;&gt;:ui:image -->
<g id="edge9" class="edge">
<title>:shared:feature:history&#45;&gt;:ui:image</title>
<path fill="none" stroke="black" stroke-dasharray="1,5" d="M345.18,-547.6C345.18,-547.6 345.18,-320.77 345.18,-320.77"/>
<polygon fill="black" stroke="black" points="348.68,-320.77 345.18,-310.77 341.68,-320.77 348.68,-320.77"/>
</g>
<!-- :ui:test:screenshot&#45;&gt;:ui:core -->
<g id="edge10" class="edge">
<title>:ui:test:screenshot&#45;&gt;:ui:core</title>
<path fill="none" stroke="red" d="M273.28,-278.86C273.28,-278.86 273.28,-183.2 273.28,-183.2"/>
<polygon fill="red" stroke="red" points="276.78,-183.2 273.28,-173.2 269.78,-183.2 276.78,-183.2"/>
</g>
<!-- :core:preferences&#45;&gt;:core:models -->
<g id="edge12" class="edge">
<title>:core:preferences&#45;&gt;:core:models</title>
<path fill="none" stroke="black" stroke-dasharray="1,5" d="M1097.92,-280.23C1097.92,-227.78 1097.92,-18 1097.92,-18 1097.92,-18 881.29,-18 881.29,-18"/>
<polygon fill="black" stroke="black" points="881.29,-14.5 871.29,-18 881.29,-21.5 881.29,-14.5"/>
</g>
<!-- :core:coroutines -->
<g id="node11" class="node">
<title>:core:coroutines</title>
<ellipse fill="#b59aff" stroke="black" cx="1010.59" cy="-155" rx="70.29" ry="18"/>
<text text-anchor="middle" x="1010.59" y="-149.95" font-family="Times,serif" font-size="14.00">:core:coroutines</text>
</g>
<!-- :core:preferences&#45;&gt;:core:coroutines -->
<g id="edge11" class="edge">
<title>:core:preferences&#45;&gt;:core:coroutines</title>
<path fill="none" stroke="black" stroke-dasharray="1,5" d="M1023.54,-274.09C1023.54,-274.09 1023.54,-184.43 1023.54,-184.43"/>
<polygon fill="black" stroke="black" points="1027.04,-184.43 1023.54,-174.43 1020.04,-184.43 1027.04,-184.43"/>
</g>
<!-- :domain&#45;&gt;:core:models -->
<g id="edge13" class="edge">
<title>:domain&#45;&gt;:core:models</title>
<path fill="none" stroke="black" stroke-dasharray="1,5" d="M854.29,-140.6C854.29,-140.6 854.29,-41.73 854.29,-41.73"/>
<polygon fill="black" stroke="black" points="857.79,-41.73 854.29,-31.73 850.79,-41.73 857.79,-41.73"/>
</g>
<!-- :ui:common&#45;&gt;:ui:test:image -->
<g id="edge14" class="edge">
<title>:ui:common&#45;&gt;:ui:test:image</title>
<path fill="none" stroke="#ff9ab1" d="M443.81,-439C335.8,-439 82.12,-439 82.12,-439 82.12,-439 82.12,-320.95 82.12,-320.95"/>
<polygon fill="#ff9ab1" stroke="#ff9ab1" points="85.62,-320.95 82.12,-310.95 78.62,-320.95 85.62,-320.95"/>
</g>
<!-- :ui:common&#45;&gt;:ui:test:screenshot -->
<g id="edge15" class="edge">
<title>:ui:common&#45;&gt;:ui:test:screenshot</title>
<path fill="none" stroke="#ff9ab1" d="M435.53,-432C366.3,-432 257.56,-432 257.56,-432 257.56,-432 257.56,-319.3 257.56,-319.3"/>
<polygon fill="#ff9ab1" stroke="#ff9ab1" points="261.06,-319.3 257.56,-309.3 254.06,-319.3 261.06,-319.3"/>
</g>
<!-- :ui:common&#45;&gt;:core:models -->
<g id="edge16" class="edge">
<title>:ui:common&#45;&gt;:core:models</title>
<path fill="none" stroke="black" d="M486.88,-410.68C486.88,-330.56 486.88,-15 486.88,-15 486.88,-15 740.45,-15 740.45,-15"/>
<polygon fill="black" stroke="black" points="740.45,-18.5 750.45,-15 740.45,-11.5 740.45,-18.5"/>
</g>
<!-- :ui:common&#45;&gt;:core:preferences -->
<g id="edge19" class="edge">
<title>:ui:common&#45;&gt;:core:preferences</title>
<path fill="none" stroke="black" stroke-dasharray="1,5" d="M540.9,-438C671.4,-438 1015.79,-438 1015.79,-438 1015.79,-438 1015.79,-320.83 1015.79,-320.83"/>
<polygon fill="black" stroke="black" points="1019.29,-320.83 1015.79,-310.83 1012.29,-320.84 1019.29,-320.83"/>
</g>
<!-- :ui:common&#45;&gt;:domain -->
<g id="edge21" class="edge">
<title>:ui:common&#45;&gt;:domain</title>
<path fill="none" stroke="black" stroke-dasharray="1,5" d="M548.51,-429C658.35,-429 888.85,-429 888.85,-429 888.85,-429 888.85,-184.49 888.85,-184.49"/>
<polygon fill="black" stroke="black" points="892.36,-184.49 888.85,-174.49 885.36,-184.49 892.36,-184.49"/>
</g>
<!-- :ui:common&#45;&gt;:strings -->
<g id="edge22" class="edge">
<title>:ui:common&#45;&gt;:strings</title>
<path fill="none" stroke="black" stroke-dasharray="1,5" d="M461,-413.41C461,-339.16 461,-25 461,-25 461,-25 336.62,-25 336.62,-25"/>
<polygon fill="black" stroke="black" points="336.62,-21.5 326.62,-25 336.62,-28.5 336.62,-21.5"/>
</g>
<!-- :ui:common&#45;&gt;:ui:core -->
<g id="edge23" class="edge">
<title>:ui:common&#45;&gt;:ui:core</title>
<path fill="none" stroke="red" d="M436.08,-425C382.12,-425 308.25,-425 308.25,-425 308.25,-425 308.25,-182.59 308.25,-182.59"/>
<polygon fill="red" stroke="red" points="311.75,-182.59 308.25,-172.59 304.75,-182.59 311.75,-182.59"/>
</g>
<!-- :ui:common&#45;&gt;:ui:image -->
<g id="edge24" class="edge">
<title>:ui:common&#45;&gt;:ui:image</title>
<path fill="none" stroke="red" d="M445.9,-418C413.59,-418 376,-418 376,-418 376,-418 376,-320.77 376,-320.77"/>
<polygon fill="red" stroke="red" points="379.5,-320.77 376,-310.77 372.5,-320.77 379.5,-320.77"/>
</g>
<!-- :data:coverart -->
<g id="node12" class="node">
<title>:data:coverart</title>
<ellipse fill="#b59aff" stroke="black" cx="810.59" cy="-292" rx="61.59" ry="18"/>
<text text-anchor="middle" x="810.59" y="-286.95" font-family="Times,serif" font-size="14.00">:data:coverart</text>
</g>
<!-- :ui:common&#45;&gt;:data:coverart -->
<g id="edge17" class="edge">
<title>:ui:common&#45;&gt;:data:coverart</title>
<path fill="none" stroke="orange" d="M541.08,-420C630.68,-420 810.59,-420 810.59,-420 810.59,-420 810.59,-321.85 810.59,-321.85"/>
<polygon fill="orange" stroke="orange" points="814.09,-321.85 810.59,-311.85 807.09,-321.85 814.09,-321.85"/>
</g>
<!-- :data:musicbrainz -->
<g id="node13" class="node">
<title>:data:musicbrainz</title>
<ellipse fill="#b59aff" stroke="black" cx="615.59" cy="-292" rx="76.94" ry="18"/>
<text text-anchor="middle" x="615.59" y="-286.95" font-family="Times,serif" font-size="14.00">:data:musicbrainz</text>
</g>
<!-- :ui:common&#45;&gt;:data:musicbrainz -->
<g id="edge18" class="edge">
<title>:ui:common&#45;&gt;:data:musicbrainz</title>
<path fill="none" stroke="orange" d="M543.35,-421.63C543.35,-421.63 543.35,-309.94 543.35,-309.94"/>
<polygon fill="orange" stroke="orange" points="546.85,-309.94 543.35,-299.94 539.85,-309.94 546.85,-309.94"/>
</g>
<!-- :core:logging:api -->
<g id="node14" class="node">
<title>:core:logging:api</title>
<ellipse fill="#b59aff" stroke="black" cx="708.59" cy="-155" rx="73.87" ry="18"/>
<text text-anchor="middle" x="708.59" y="-149.95" font-family="Times,serif" font-size="14.00">:core:logging:api</text>
</g>
<!-- :ui:common&#45;&gt;:core:logging:api -->
<g id="edge20" class="edge">
<title>:ui:common&#45;&gt;:core:logging:api</title>
<path fill="none" stroke="black" stroke-dasharray="1,5" d="M512.76,-411.86C512.76,-351.87 512.76,-155 512.76,-155 512.76,-155 622.76,-155 622.76,-155"/>
<polygon fill="black" stroke="black" points="622.76,-158.5 632.76,-155 622.76,-151.5 622.76,-158.5"/>
</g>
<!-- :ui:core&#45;&gt;:strings -->
<g id="edge25" class="edge">
<title>:ui:core&#45;&gt;:strings</title>
<path fill="none" stroke="black" d="M289.59,-136.52C289.59,-136.52 289.59,-47.7 289.59,-47.7"/>
<polygon fill="black" stroke="black" points="293.09,-47.7 289.59,-37.7 286.09,-47.7 293.09,-47.7"/>
</g>
<!-- :ui:image&#45;&gt;:core:models -->
<g id="edge26" class="edge">
<title>:ui:image&#45;&gt;:core:models</title>
<path fill="none" stroke="black" stroke-dasharray="1,5" d="M367.74,-274.05C367.74,-211.22 367.74,-5 367.74,-5 367.74,-5 757.01,-5 757.01,-5"/>
<polygon fill="black" stroke="black" points="757.01,-8.5 767.01,-5 757.01,-1.5 757.01,-8.5"/>
</g>
<!-- :ui:image&#45;&gt;:ui:core -->
<g id="edge27" class="edge">
<title>:ui:image&#45;&gt;:ui:core</title>
<path fill="none" stroke="red" d="M321.5,-282.15C321.5,-282.15 321.5,-177.4 321.5,-177.4"/>
<polygon fill="red" stroke="red" points="325.01,-177.4 321.5,-167.4 318.01,-177.4 325.01,-177.4"/>
</g>
<!-- :data:coverart&#45;&gt;:core:models -->
<g id="edge29" class="edge">
<title>:data:coverart&#45;&gt;:core:models</title>
<path fill="none" stroke="black" stroke-dasharray="1,5" d="M810.71,-273.6C810.71,-273.6 810.71,-47.84 810.71,-47.84"/>
<polygon fill="black" stroke="black" points="814.21,-47.84 810.71,-37.84 807.21,-47.84 814.21,-47.84"/>
</g>
<!-- :data:coverart&#45;&gt;:domain -->
<g id="edge30" class="edge">
<title>:data:coverart&#45;&gt;:domain</title>
<path fill="none" stroke="black" stroke-dasharray="1,5" d="M855.57,-279.36C855.57,-279.36 855.57,-181.17 855.57,-181.17"/>
<polygon fill="black" stroke="black" points="859.07,-181.17 855.57,-171.17 852.07,-181.17 859.07,-181.17"/>
</g>
<!-- :data:coverart&#45;&gt;:core:logging:api -->
<g id="edge28" class="edge">
<title>:data:coverart&#45;&gt;:core:logging:api</title>
<path fill="none" stroke="black" stroke-dasharray="1,5" d="M765.73,-279.36C765.73,-279.36 765.73,-178.34 765.73,-178.34"/>
<polygon fill="black" stroke="black" points="769.23,-178.34 765.73,-168.34 762.23,-178.34 769.23,-178.34"/>
</g>
<!-- :data:musicbrainz&#45;&gt;:core:models -->
<g id="edge32" class="edge">
<title>:data:musicbrainz&#45;&gt;:core:models</title>
<path fill="none" stroke="black" stroke-dasharray="1,5" d="M586.68,-274.99C586.68,-215.44 586.68,-20 586.68,-20 586.68,-20 739.95,-20 739.95,-20"/>
<polygon fill="black" stroke="black" points="739.95,-23.5 749.95,-20 739.95,-16.5 739.95,-23.5"/>
</g>
<!-- :data:musicbrainz&#45;&gt;:core:logging:api -->
<g id="edge31" class="edge">
<title>:data:musicbrainz&#45;&gt;:core:logging:api</title>
<path fill="none" stroke="black" stroke-dasharray="1,5" d="M663.62,-277.6C663.62,-277.6 663.62,-181.14 663.62,-181.14"/>
<polygon fill="black" stroke="black" points="667.12,-181.14 663.62,-171.14 660.12,-181.14 667.12,-181.14"/>
</g>
</g>
</svg>
