<?xml version="1.0" encoding="UTF-8" standalone="no"?>
<!DOCTYPE svg PUBLIC "-//W3C//DTD SVG 1.1//EN"
 "http://www.w3.org/Graphics/SVG/1.1/DTD/svg11.dtd">
<!-- Generated by graphviz version 2.43.0 (0)
 -->
<!-- Title: %3 Pages: 1 -->
<svg width="914pt" height="803pt"
 viewBox="0.00 0.00 913.74 803.00" xmlns="http://www.w3.org/2000/svg" xmlns:xlink="http://www.w3.org/1999/xlink">
<g id="graph0" class="graph" transform="scale(1 1) rotate(0) translate(4 799)">
<title>%3</title>
<polygon fill="white" stroke="transparent" points="-4,4 -4,-799 909.74,-799 909.74,4 -4,4"/>
<text text-anchor="middle" x="452.87" y="-767" font-family="Times,serif" font-size="30.00">Dependencies</text>
<text text-anchor="middle" x="452.87" y="-734" font-family="Times,serif" font-size="30.00"> </text>
<!-- :shared:feature:history -->
<g id="node1" class="node">
<title>:shared:feature:history</title>
<polygon fill="#b59aff" stroke="black" points="312.34,-721 131.34,-721 131.34,-685 312.34,-685 312.34,-721"/>
<text text-anchor="middle" x="221.84" y="-699.3" font-family="Times,serif" font-size="14.00">:shared:feature:history</text>
</g>
<!-- :test:image -->
<g id="node2" class="node">
<title>:test:image</title>
<ellipse fill="#9affb5" stroke="black" cx="96.84" cy="-292" rx="63.09" ry="18"/>
<text text-anchor="middle" x="96.84" y="-288.3" font-family="Times,serif" font-size="14.00">:test:image</text>
</g>
<!-- :shared:feature:history&#45;&gt;:test:image -->
<g id="edge1" class="edge">
<title>:shared:feature:history&#45;&gt;:test:image</title>
<path fill="none" stroke="black" stroke-dasharray="1,5" d="M212.29,-684.81C212.29,-606.01 212.29,-298 212.29,-298 212.29,-298 166.59,-298 166.59,-298"/>
<polygon fill="black" stroke="black" points="166.59,-294.5 156.59,-298 166.59,-301.5 166.59,-294.5"/>
</g>
<!-- :test&#45;data -->
<g id="node3" class="node">
<title>:test&#45;data</title>
<ellipse fill="#b59aff" stroke="black" cx="432.84" cy="-429" rx="55.49" ry="18"/>
<text text-anchor="middle" x="432.84" y="-425.3" font-family="Times,serif" font-size="14.00">:test&#45;data</text>
</g>
<!-- :shared:feature:history&#45;&gt;:test&#45;data -->
<g id="edge2" class="edge">
<title>:shared:feature:history&#45;&gt;:test&#45;data</title>
<path fill="none" stroke="#ff9ab1" stroke-dasharray="1,5" d="M312.37,-703C369.72,-703 433.14,-703 433.14,-703 433.14,-703 433.14,-457.4 433.14,-457.4"/>
<polygon fill="#ff9ab1" stroke="#ff9ab1" points="436.64,-457.4 433.14,-447.4 429.64,-457.4 436.64,-457.4"/>
</g>
<!-- :ui:test:screenshot -->
<g id="node4" class="node">
<title>:ui:test:screenshot</title>
<ellipse fill="#9affb5" stroke="black" cx="96.84" cy="-429" rx="96.68" ry="18"/>
<text text-anchor="middle" x="96.84" y="-425.3" font-family="Times,serif" font-size="14.00">:ui:test:screenshot</text>
</g>
<!-- :shared:feature:history&#45;&gt;:ui:test:screenshot -->
<g id="edge3" class="edge">
<title>:shared:feature:history&#45;&gt;:ui:test:screenshot</title>
<path fill="none" stroke="#ff9ab1" stroke-dasharray="1,5" d="M162.51,-684.6C162.51,-684.6 162.51,-452.28 162.51,-452.28"/>
<polygon fill="#ff9ab1" stroke="#ff9ab1" points="166.01,-452.28 162.51,-442.28 159.01,-452.28 166.01,-452.28"/>
</g>
<!-- :ui:common -->
<g id="node5" class="node">
<title>:ui:common</title>
<ellipse fill="#b59aff" stroke="black" cx="313.84" cy="-566" rx="64.19" ry="18"/>
<text text-anchor="middle" x="313.84" y="-562.3" font-family="Times,serif" font-size="14.00">:ui:common</text>
</g>
<!-- :shared:feature:history&#45;&gt;:ui:common -->
<g id="edge4" class="edge">
<title>:shared:feature:history&#45;&gt;:ui:common</title>
<path fill="none" stroke="black" stroke-dasharray="1,5" d="M280.92,-684.81C280.92,-684.81 280.92,-591.72 280.92,-591.72"/>
<polygon fill="black" stroke="black" points="284.42,-591.72 280.92,-581.72 277.42,-591.72 284.42,-591.72"/>
</g>
<!-- :shared:domain -->
<g id="node6" class="node">
<title>:shared:domain</title>
<ellipse fill="#b59aff" stroke="black" cx="363.84" cy="-18" rx="82.59" ry="18"/>
<text text-anchor="middle" x="363.84" y="-14.3" font-family="Times,serif" font-size="14.00">:shared:domain</text>
</g>
<!-- :shared:feature:history&#45;&gt;:shared:domain -->
<g id="edge5" class="edge">
<title>:shared:feature:history&#45;&gt;:shared:domain</title>
<path fill="none" stroke="black" stroke-dasharray="1,5" d="M230.89,-684.68C230.89,-575.74 230.89,-18 230.89,-18 230.89,-18 271.15,-18 271.15,-18"/>
<polygon fill="black" stroke="black" points="271.15,-21.5 281.15,-18 271.15,-14.5 271.15,-21.5"/>
</g>
<!-- :test&#45;data&#45;&gt;:shared:domain -->
<g id="edge6" class="edge">
<title>:test&#45;data&#45;&gt;:shared:domain</title>
<path fill="none" stroke="black" stroke-dasharray="1,5" d="M384.78,-438C357.79,-438 329.47,-438 329.47,-438 329.47,-438 329.47,-44.46 329.47,-44.46"/>
<polygon fill="black" stroke="black" points="332.97,-44.46 329.47,-34.46 325.97,-44.46 332.97,-44.46"/>
</g>
<!-- :data:database -->
<g id="node7" class="node">
<title>:data:database</title>
<ellipse fill="#b59aff" stroke="black" cx="432.84" cy="-292" rx="79.09" ry="18"/>
<text text-anchor="middle" x="432.84" y="-288.3" font-family="Times,serif" font-size="14.00">:data:database</text>
</g>
<!-- :test&#45;data&#45;&gt;:data:database -->
<g id="edge7" class="edge">
<title>:test&#45;data&#45;&gt;:data:database</title>
<path fill="none" stroke="black" stroke-dasharray="1,5" d="M432.84,-410.81C432.84,-410.81 432.84,-320.27 432.84,-320.27"/>
<polygon fill="black" stroke="black" points="436.34,-320.27 432.84,-310.27 429.34,-320.27 436.34,-320.27"/>
</g>
<!-- :data:musicbrainz -->
<g id="node8" class="node">
<title>:data:musicbrainz</title>
<ellipse fill="#b59aff" stroke="black" cx="485.84" cy="-155" rx="93.68" ry="18"/>
<text text-anchor="middle" x="485.84" y="-151.3" font-family="Times,serif" font-size="14.00">:data:musicbrainz</text>
</g>
<!-- :test&#45;data&#45;&gt;:data:musicbrainz -->
<g id="edge8" class="edge">
<title>:test&#45;data&#45;&gt;:data:musicbrainz</title>
<path fill="none" stroke="black" stroke-dasharray="1,5" d="M480.74,-420C511.52,-420 545.78,-420 545.78,-420 545.78,-420 545.78,-178.87 545.78,-178.87"/>
<polygon fill="black" stroke="black" points="549.28,-178.87 545.78,-168.87 542.28,-178.87 549.28,-178.87"/>
</g>
<!-- :data:coverart -->
<g id="node9" class="node">
<title>:data:coverart</title>
<ellipse fill="#b59aff" stroke="black" cx="673.84" cy="-155" rx="76.09" ry="18"/>
<text text-anchor="middle" x="673.84" y="-151.3" font-family="Times,serif" font-size="14.00">:data:coverart</text>
</g>
<!-- :test&#45;data&#45;&gt;:data:coverart -->
<g id="edge9" class="edge">
<title>:test&#45;data&#45;&gt;:data:coverart</title>
<path fill="none" stroke="black" stroke-dasharray="1,5" d="M488.13,-429C559.28,-429 673.84,-429 673.84,-429 673.84,-429 673.84,-183.4 673.84,-183.4"/>
<polygon fill="black" stroke="black" points="677.34,-183.4 673.84,-173.4 670.34,-183.4 677.34,-183.4"/>
</g>
<!-- :data:spotify -->
<g id="node10" class="node">
<title>:data:spotify</title>
<ellipse fill="#b59aff" stroke="black" cx="836.84" cy="-155" rx="68.79" ry="18"/>
<text text-anchor="middle" x="836.84" y="-151.3" font-family="Times,serif" font-size="14.00">:data:spotify</text>
</g>
<!-- :test&#45;data&#45;&gt;:data:spotify -->
<g id="edge10" class="edge">
<title>:test&#45;data&#45;&gt;:data:spotify</title>
<path fill="none" stroke="black" stroke-dasharray="1,5" d="M480.77,-438C587.79,-438 836.84,-438 836.84,-438 836.84,-438 836.84,-183.13 836.84,-183.13"/>
<polygon fill="black" stroke="black" points="840.34,-183.13 836.84,-173.13 833.34,-183.13 840.34,-183.13"/>
</g>
<!-- :ui:test:screenshot&#45;&gt;:test:image -->
<g id="edge11" class="edge">
<title>:ui:test:screenshot&#45;&gt;:test:image</title>
<path fill="none" stroke="black" stroke-dasharray="1,5" d="M96.84,-410.81C96.84,-410.81 96.84,-320.27 96.84,-320.27"/>
<polygon fill="black" stroke="black" points="100.34,-320.27 96.84,-310.27 93.34,-320.27 100.34,-320.27"/>
</g>
<!-- :ui:common&#45;&gt;:test:image -->
<g id="edge12" class="edge">
<title>:ui:common&#45;&gt;:test:image</title>
<path fill="none" stroke="black" stroke-dasharray="1,5" d="M270.7,-552.5C270.7,-496.56 270.7,-286 270.7,-286 270.7,-286 166.67,-286 166.67,-286"/>
<polygon fill="black" stroke="black" points="166.67,-282.5 156.67,-286 166.67,-289.5 166.67,-282.5"/>
</g>
<!-- :ui:common&#45;&gt;:test&#45;data -->
<g id="edge13" class="edge">
<title>:ui:common&#45;&gt;:test&#45;data</title>
<path fill="none" stroke="#ff9ab1" stroke-dasharray="1,5" d="M365.57,-555.03C365.57,-521.07 365.57,-420 365.57,-420 365.57,-420 374.67,-420 374.67,-420"/>
<polygon fill="#ff9ab1" stroke="#ff9ab1" points="374.67,-423.5 384.67,-420 374.67,-416.5 374.67,-423.5"/>
</g>
<!-- :ui:common&#45;&gt;:ui:test:screenshot -->
<g id="edge14" class="edge">
<title>:ui:common&#45;&gt;:ui:test:screenshot</title>
<path fill="none" stroke="#ff9ab1" stroke-dasharray="1,5" d="M260.1,-555.7C260.1,-523.84 260.1,-429 260.1,-429 260.1,-429 203.7,-429 203.7,-429"/>
<polygon fill="#ff9ab1" stroke="#ff9ab1" points="203.7,-425.5 193.7,-429 203.7,-432.5 203.7,-425.5"/>
</g>
<!-- :ui:common&#45;&gt;:shared:domain -->
<g id="edge15" class="edge">
<title>:ui:common&#45;&gt;:shared:domain</title>
<path fill="none" stroke="black" d="M305.38,-548.08C305.38,-548.08 305.38,-41.14 305.38,-41.14"/>
<polygon fill="black" stroke="black" points="308.88,-41.14 305.38,-31.14 301.88,-41.14 308.88,-41.14"/>
</g>
<!-- :core:logging:api -->
<g id="node11" class="node">
<title>:core:logging:api</title>
<ellipse fill="#b59aff" stroke="black" cx="754.84" cy="-18" rx="88.28" ry="18"/>
<text text-anchor="middle" x="754.84" y="-14.3" font-family="Times,serif" font-size="14.00">:core:logging:api</text>
</g>
<!-- :ui:common&#45;&gt;:core:logging:api -->
<g id="edge16" class="edge">
<title>:ui:common&#45;&gt;:core:logging:api</title>
<path fill="none" stroke="black" stroke-dasharray="1,5" d="M378.56,-566C502,-566 758.92,-566 758.92,-566 758.92,-566 758.92,-46.23 758.92,-46.23"/>
<polygon fill="black" stroke="black" points="762.42,-46.23 758.92,-36.23 755.42,-46.23 762.42,-46.23"/>
</g>
<!-- :data:database&#45;&gt;:shared:domain -->
<g id="edge17" class="edge">
<title>:data:database&#45;&gt;:shared:domain</title>
<path fill="none" stroke="black" stroke-dasharray="1,5" d="M372.9,-279.87C372.9,-279.87 372.9,-46.11 372.9,-46.11"/>
<polygon fill="black" stroke="black" points="376.4,-46.11 372.9,-36.11 369.4,-46.11 376.4,-46.11"/>
</g>
<!-- :data:database&#45;&gt;:data:musicbrainz -->
<g id="edge18" class="edge">
<title>:data:database&#45;&gt;:data:musicbrainz</title>
<path fill="none" stroke="black" stroke-dasharray="1,5" d="M452.19,-274.37C452.19,-274.37 452.19,-182.13 452.19,-182.13"/>
<polygon fill="black" stroke="black" points="455.69,-182.13 452.19,-172.13 448.69,-182.13 455.69,-182.13"/>
</g>
<!-- :data:musicbrainz&#45;&gt;:shared:domain -->
<g id="edge19" class="edge">
<title>:data:musicbrainz&#45;&gt;:shared:domain</title>
<path fill="none" stroke="black" stroke-dasharray="1,5" d="M410.29,-144.25C410.29,-144.25 410.29,-43.18 410.29,-43.18"/>
<polygon fill="black" stroke="black" points="413.79,-43.18 410.29,-33.18 406.79,-43.18 413.79,-43.18"/>
</g>
<!-- :data:musicbrainz&#45;&gt;:core:logging:api -->
<g id="edge20" class="edge">
<title>:data:musicbrainz&#45;&gt;:core:logging:api</title>
<path fill="none" stroke="black" stroke-dasharray="1,5" d="M512.91,-137.75C512.91,-99.72 512.91,-12 512.91,-12 512.91,-12 661.24,-12 661.24,-12"/>
<polygon fill="black" stroke="black" points="661.24,-15.5 671.24,-12 661.24,-8.5 661.24,-15.5"/>
</g>
<!-- :data:coverart&#45;&gt;:shared:domain -->
<g id="edge21" class="edge">
<title>:data:coverart&#45;&gt;:shared:domain</title>
<path fill="none" stroke="black" stroke-dasharray="1,5" d="M632.12,-139.72C632.12,-105.16 632.12,-24 632.12,-24 632.12,-24 451.8,-24 451.8,-24"/>
<polygon fill="black" stroke="black" points="451.8,-20.5 441.8,-24 451.8,-27.5 451.8,-20.5"/>
</g>
<!-- :data:coverart&#45;&gt;:core:logging:api -->
<g id="edge22" class="edge">
<title>:data:coverart&#45;&gt;:core:logging:api</title>
<path fill="none" stroke="black" stroke-dasharray="1,5" d="M708.17,-138.75C708.17,-138.75 708.17,-43.39 708.17,-43.39"/>
<polygon fill="black" stroke="black" points="711.67,-43.39 708.17,-33.39 704.67,-43.39 711.67,-43.39"/>
</g>
<!-- :data:spotify&#45;&gt;:shared:domain -->
<g id="edge23" class="edge">
<title>:data:spotify&#45;&gt;:shared:domain</title>
<path fill="none" stroke="black" stroke-dasharray="1,5" d="M793.04,-141.04C793.04,-120.87 793.04,-86 793.04,-86 793.04,-86 428.34,-86 428.34,-86 428.34,-86 428.34,-39.54 428.34,-39.54"/>
<polygon fill="black" stroke="black" points="431.84,-39.54 428.34,-29.54 424.84,-39.54 431.84,-39.54"/>
</g>
<!-- :data:spotify&#45;&gt;:core:logging:api -->
<g id="edge24" class="edge">
<title>:data:spotify&#45;&gt;:core:logging:api</title>
<path fill="none" stroke="black" stroke-dasharray="1,5" d="M818.14,-137.65C818.14,-137.65 818.14,-40.74 818.14,-40.74"/>
<polygon fill="black" stroke="black" points="821.64,-40.74 818.14,-30.74 814.64,-40.74 821.64,-40.74"/>
</g>
</g>
</svg>
