<?xml version="1.0" encoding="UTF-8" standalone="no"?>
<!DOCTYPE svg PUBLIC "-//W3C//DTD SVG 1.1//EN"
 "http://www.w3.org/Graphics/SVG/1.1/DTD/svg11.dtd">
<!-- Generated by graphviz version 2.43.0 (0)
 -->
<!-- Title: %3 Pages: 1 -->
<svg width="1057pt" height="666pt"
 viewBox="0.00 0.00 1057.48 666.00" xmlns="http://www.w3.org/2000/svg" xmlns:xlink="http://www.w3.org/1999/xlink">
<g id="graph0" class="graph" transform="scale(1 1) rotate(0) translate(4 662)">
<title>%3</title>
<polygon fill="white" stroke="transparent" points="-4,4 -4,-662 1053.48,-662 1053.48,4 -4,4"/>
<text text-anchor="middle" x="524.74" y="-630" font-family="Times,serif" font-size="30.00">Dependencies</text>
<text text-anchor="middle" x="524.74" y="-597" font-family="Times,serif" font-size="30.00"> </text>
<!-- :shared:feature:history -->
<g id="node1" class="node">
<title>:shared:feature:history</title>
<polygon fill="#b59aff" stroke="black" points="528.34,-584 347.34,-584 347.34,-548 528.34,-548 528.34,-584"/>
<text text-anchor="middle" x="437.84" y="-562.3" font-family="Times,serif" font-size="14.00">:shared:feature:history</text>
</g>
<!-- :ui:test:screenshot -->
<g id="node2" class="node">
<title>:ui:test:screenshot</title>
<ellipse fill="#9affb5" stroke="black" cx="96.84" cy="-292" rx="96.68" ry="18"/>
<text text-anchor="middle" x="96.84" y="-288.3" font-family="Times,serif" font-size="14.00">:ui:test:screenshot</text>
</g>
<!-- :shared:feature:history&#45;&gt;:ui:test:screenshot -->
<g id="edge1" class="edge">
<title>:shared:feature:history&#45;&gt;:ui:test:screenshot</title>
<path fill="none" stroke="#ff9ab1" stroke-dasharray="1,5" d="M347,-566C236.51,-566 64.56,-566 64.56,-566 64.56,-566 64.56,-319.14 64.56,-319.14"/>
<polygon fill="#ff9ab1" stroke="#ff9ab1" points="68.06,-319.14 64.56,-309.14 61.06,-319.14 68.06,-319.14"/>
</g>
<!-- :ui:common -->
<g id="node3" class="node">
<title>:ui:common</title>
<ellipse fill="#b59aff" stroke="black" cx="437.84" cy="-429" rx="64.19" ry="18"/>
<text text-anchor="middle" x="437.84" y="-425.3" font-family="Times,serif" font-size="14.00">:ui:common</text>
</g>
<!-- :shared:feature:history&#45;&gt;:ui:common -->
<g id="edge2" class="edge">
<title>:shared:feature:history&#45;&gt;:ui:common</title>
<path fill="none" stroke="black" stroke-dasharray="1,5" d="M437.84,-547.81C437.84,-547.81 437.84,-457.27 437.84,-457.27"/>
<polygon fill="black" stroke="black" points="441.34,-457.27 437.84,-447.27 434.34,-457.27 441.34,-457.27"/>
</g>
<!-- :shared:domain -->
<g id="node4" class="node">
<title>:shared:domain</title>
<ellipse fill="#b59aff" stroke="black" cx="725.84" cy="-155" rx="82.59" ry="18"/>
<text text-anchor="middle" x="725.84" y="-151.3" font-family="Times,serif" font-size="14.00">:shared:domain</text>
</g>
<!-- :shared:feature:history&#45;&gt;:shared:domain -->
<g id="edge3" class="edge">
<title>:shared:feature:history&#45;&gt;:shared:domain</title>
<path fill="none" stroke="black" stroke-dasharray="1,5" d="M528.51,-560C632.82,-560 789.91,-560 789.91,-560 789.91,-560 789.91,-176.68 789.91,-176.68"/>
<polygon fill="black" stroke="black" points="793.41,-176.68 789.91,-166.68 786.41,-176.68 793.41,-176.68"/>
</g>
<!-- :core:preferences -->
<g id="node5" class="node">
<title>:core:preferences</title>
<ellipse fill="#b59aff" stroke="black" cx="957.84" cy="-292" rx="91.78" ry="18"/>
<text text-anchor="middle" x="957.84" y="-288.3" font-family="Times,serif" font-size="14.00">:core:preferences</text>
</g>
<!-- :shared:feature:history&#45;&gt;:core:preferences -->
<g id="edge4" class="edge">
<title>:shared:feature:history&#45;&gt;:core:preferences</title>
<path fill="none" stroke="black" stroke-dasharray="1,5" d="M528.44,-572C684.72,-572 988.39,-572 988.39,-572 988.39,-572 988.39,-319.09 988.39,-319.09"/>
<polygon fill="black" stroke="black" points="991.89,-319.09 988.39,-309.09 984.89,-319.09 991.89,-319.09"/>
</g>
<!-- :ui:image -->
<g id="node6" class="node">
<title>:ui:image</title>
<ellipse fill="#b59aff" stroke="black" cx="265.84" cy="-292" rx="53.89" ry="18"/>
<text text-anchor="middle" x="265.84" y="-288.3" font-family="Times,serif" font-size="14.00">:ui:image</text>
</g>
<!-- :shared:feature:history&#45;&gt;:ui:image -->
<g id="edge5" class="edge">
<title>:shared:feature:history&#45;&gt;:ui:image</title>
<path fill="none" stroke="black" stroke-dasharray="1,5" d="M360.42,-548C360.42,-487.91 360.42,-298 360.42,-298 360.42,-298 326.73,-298 326.73,-298"/>
<polygon fill="black" stroke="black" points="326.73,-294.5 316.73,-298 326.73,-301.5 326.73,-294.5"/>
</g>
<!-- :ui:core -->
<g id="node7" class="node">
<title>:ui:core</title>
<ellipse fill="#b59aff" stroke="black" cx="265.84" cy="-155" rx="45.49" ry="18"/>
<text text-anchor="middle" x="265.84" y="-151.3" font-family="Times,serif" font-size="14.00">:ui:core</text>
</g>
<!-- :ui:test:screenshot&#45;&gt;:ui:core -->
<g id="edge6" class="edge">
<title>:ui:test:screenshot&#45;&gt;:ui:core</title>
<path fill="none" stroke="black" stroke-dasharray="1,5" d="M189.14,-286.46C189.14,-260.83 189.14,-155 189.14,-155 189.14,-155 210.34,-155 210.34,-155"/>
<polygon fill="black" stroke="black" points="210.34,-158.5 220.34,-155 210.34,-151.5 210.34,-158.5"/>
</g>
<!-- :test:image -->
<g id="node8" class="node">
<title>:test:image</title>
<ellipse fill="#9affb5" stroke="black" cx="96.84" cy="-155" rx="63.09" ry="18"/>
<text text-anchor="middle" x="96.84" y="-151.3" font-family="Times,serif" font-size="14.00">:test:image</text>
</g>
<!-- :ui:test:screenshot&#45;&gt;:test:image -->
<g id="edge7" class="edge">
<title>:ui:test:screenshot&#45;&gt;:test:image</title>
<path fill="none" stroke="black" stroke-dasharray="1,5" d="M96.84,-273.81C96.84,-273.81 96.84,-183.27 96.84,-183.27"/>
<polygon fill="black" stroke="black" points="100.34,-183.27 96.84,-173.27 93.34,-183.27 100.34,-183.27"/>
</g>
<!-- :ui:common&#45;&gt;:ui:test:screenshot -->
<g id="edge8" class="edge">
<title>:ui:common&#45;&gt;:ui:test:screenshot</title>
<path fill="none" stroke="#ff9ab1" stroke-dasharray="1,5" d="M373.12,-429C282.6,-429 129.12,-429 129.12,-429 129.12,-429 129.12,-319.07 129.12,-319.07"/>
<polygon fill="#ff9ab1" stroke="#ff9ab1" points="132.62,-319.07 129.12,-309.07 125.62,-319.07 132.62,-319.07"/>
</g>
<!-- :ui:common&#45;&gt;:shared:domain -->
<g id="edge9" class="edge">
<title>:ui:common&#45;&gt;:shared:domain</title>
<path fill="none" stroke="black" d="M502.33,-429C601.63,-429 780.67,-429 780.67,-429 780.67,-429 780.67,-178.59 780.67,-178.59"/>
<polygon fill="black" stroke="black" points="784.17,-178.59 780.67,-168.59 777.17,-178.59 784.17,-178.59"/>
</g>
<!-- :ui:common&#45;&gt;:core:preferences -->
<g id="edge13" class="edge">
<title>:ui:common&#45;&gt;:core:preferences</title>
<path fill="none" stroke="black" stroke-dasharray="1,5" d="M493.99,-438C622.55,-438 927.29,-438 927.29,-438 927.29,-438 927.29,-319.03 927.29,-319.03"/>
<polygon fill="black" stroke="black" points="930.79,-319.03 927.29,-309.03 923.79,-319.03 930.79,-319.03"/>
</g>
<!-- :ui:common&#45;&gt;:ui:image -->
<g id="edge15" class="edge">
<title>:ui:common&#45;&gt;:ui:image</title>
<path fill="none" stroke="black" stroke-dasharray="1,5" d="M382.81,-419.62C382.81,-387.8 382.81,-286 382.81,-286 382.81,-286 326.81,-286 326.81,-286"/>
<polygon fill="black" stroke="black" points="326.81,-282.5 316.81,-286 326.81,-289.5 326.81,-282.5"/>
</g>
<!-- :ui:common&#45;&gt;:ui:core -->
<g id="edge10" class="edge">
<title>:ui:common&#45;&gt;:ui:core</title>
<path fill="none" stroke="black" d="M392.13,-416.15C392.13,-361.98 392.13,-155 392.13,-155 392.13,-155 321.44,-155 321.44,-155"/>
<polygon fill="black" stroke="black" points="321.44,-151.5 311.44,-155 321.44,-158.5 321.44,-151.5"/>
</g>
<!-- :data:coverart -->
<g id="node9" class="node">
<title>:data:coverart</title>
<ellipse fill="#b59aff" stroke="black" cx="489.84" cy="-292" rx="76.09" ry="18"/>
<text text-anchor="middle" x="489.84" y="-288.3" font-family="Times,serif" font-size="14.00">:data:coverart</text>
</g>
<!-- :ui:common&#45;&gt;:data:coverart -->
<g id="edge11" class="edge">
<title>:ui:common&#45;&gt;:data:coverart</title>
<path fill="none" stroke="black" stroke-dasharray="1,5" d="M457.99,-411.65C457.99,-411.65 457.99,-318.36 457.99,-318.36"/>
<polygon fill="black" stroke="black" points="461.49,-318.36 457.99,-308.36 454.49,-318.36 461.49,-318.36"/>
</g>
<!-- :data:musicbrainz -->
<g id="node10" class="node">
<title>:data:musicbrainz</title>
<ellipse fill="#b59aff" stroke="black" cx="677.84" cy="-292" rx="93.68" ry="18"/>
<text text-anchor="middle" x="677.84" y="-288.3" font-family="Times,serif" font-size="14.00">:data:musicbrainz</text>
</g>
<!-- :ui:common&#45;&gt;:data:musicbrainz -->
<g id="edge12" class="edge">
<title>:ui:common&#45;&gt;:data:musicbrainz</title>
<path fill="none" stroke="black" stroke-dasharray="1,5" d="M493.81,-420C564.73,-420 677.84,-420 677.84,-420 677.84,-420 677.84,-320.07 677.84,-320.07"/>
<polygon fill="black" stroke="black" points="681.34,-320.07 677.84,-310.07 674.34,-320.07 681.34,-320.07"/>
</g>
<!-- :core:logging:api -->
<g id="node11" class="node">
<title>:core:logging:api</title>
<ellipse fill="#b59aff" stroke="black" cx="489.84" cy="-155" rx="88.28" ry="18"/>
<text text-anchor="middle" x="489.84" y="-151.3" font-family="Times,serif" font-size="14.00">:core:logging:api</text>
</g>
<!-- :ui:common&#45;&gt;:core:logging:api -->
<g id="edge14" class="edge">
<title>:ui:common&#45;&gt;:core:logging:api</title>
<path fill="none" stroke="black" stroke-dasharray="1,5" d="M407.62,-413.08C407.62,-413.08 407.62,-171.72 407.62,-171.72"/>
<polygon fill="black" stroke="black" points="411.12,-171.72 407.62,-161.72 404.12,-171.72 411.12,-171.72"/>
</g>
<!-- :core:preferences&#45;&gt;:shared:domain -->
<g id="edge16" class="edge">
<title>:core:preferences&#45;&gt;:shared:domain</title>
<path fill="none" stroke="black" stroke-dasharray="1,5" d="M865.99,-292C830.89,-292 799.15,-292 799.15,-292 799.15,-292 799.15,-173.57 799.15,-173.57"/>
<polygon fill="black" stroke="black" points="802.65,-173.57 799.15,-163.57 795.65,-173.57 802.65,-173.57"/>
</g>
<!-- :core:coroutines -->
<g id="node12" class="node">
<title>:core:coroutines</title>
<ellipse fill="#b59aff" stroke="black" cx="957.84" cy="-155" rx="85.29" ry="18"/>
<text text-anchor="middle" x="957.84" y="-151.3" font-family="Times,serif" font-size="14.00">:core:coroutines</text>
</g>
<!-- :core:preferences&#45;&gt;:core:coroutines -->
<g id="edge17" class="edge">
<title>:core:preferences&#45;&gt;:core:coroutines</title>
<path fill="none" stroke="black" stroke-dasharray="1,5" d="M957.84,-273.81C957.84,-273.81 957.84,-183.27 957.84,-183.27"/>
<polygon fill="black" stroke="black" points="961.34,-183.27 957.84,-173.27 954.34,-183.27 961.34,-183.27"/>
</g>
<!-- :ui:image&#45;&gt;:shared:domain -->
<g id="edge18" class="edge">
<title>:ui:image&#45;&gt;:shared:domain</title>
<path fill="none" stroke="black" stroke-dasharray="1,5" d="M315.56,-284.96C315.56,-264.42 315.56,-206 315.56,-206 315.56,-206 675.33,-206 675.33,-206 675.33,-206 675.33,-179.48 675.33,-179.48"/>
<polygon fill="black" stroke="black" points="678.83,-179.48 675.33,-169.48 671.83,-179.48 678.83,-179.48"/>
</g>
<!-- :ui:image&#45;&gt;:ui:core -->
<g id="edge19" class="edge">
<title>:ui:image&#45;&gt;:ui:core</title>
<path fill="none" stroke="black" stroke-dasharray="1,5" d="M265.84,-273.81C265.84,-273.81 265.84,-183.27 265.84,-183.27"/>
<polygon fill="black" stroke="black" points="269.34,-183.27 265.84,-173.27 262.34,-183.27 269.34,-183.27"/>
</g>
<!-- :shared:strings -->
<g id="node13" class="node">
<title>:shared:strings</title>
<ellipse fill="#b59aff" stroke="black" cx="265.84" cy="-18" rx="81.49" ry="18"/>
<text text-anchor="middle" x="265.84" y="-14.3" font-family="Times,serif" font-size="14.00">:shared:strings</text>
</g>
<!-- :ui:core&#45;&gt;:shared:strings -->
<g id="edge20" class="edge">
<title>:ui:core&#45;&gt;:shared:strings</title>
<path fill="none" stroke="black" d="M265.84,-136.81C265.84,-136.81 265.84,-46.27 265.84,-46.27"/>
<polygon fill="black" stroke="black" points="269.34,-46.27 265.84,-36.27 262.34,-46.27 269.34,-46.27"/>
</g>
<!-- :data:coverart&#45;&gt;:shared:domain -->
<g id="edge21" class="edge">
<title>:data:coverart&#45;&gt;:shared:domain</title>
<path fill="none" stroke="black" stroke-dasharray="1,5" d="M515.19,-274.97C515.19,-259.81 515.19,-240 515.19,-240 515.19,-240 707.37,-240 707.37,-240 707.37,-240 707.37,-182.61 707.37,-182.61"/>
<polygon fill="black" stroke="black" points="710.87,-182.61 707.37,-172.61 703.87,-182.61 710.87,-182.61"/>
</g>
<!-- :data:coverart&#45;&gt;:core:logging:api -->
<g id="edge22" class="edge">
<title>:data:coverart&#45;&gt;:core:logging:api</title>
<path fill="none" stroke="black" stroke-dasharray="1,5" d="M464.49,-274.93C464.49,-274.93 464.49,-182.29 464.49,-182.29"/>
<polygon fill="black" stroke="black" points="467.99,-182.29 464.49,-172.29 460.99,-182.29 467.99,-182.29"/>
</g>
<!-- :data:musicbrainz&#45;&gt;:shared:domain -->
<g id="edge23" class="edge">
<title>:data:musicbrainz&#45;&gt;:shared:domain</title>
<path fill="none" stroke="black" stroke-dasharray="1,5" d="M739.4,-278.36C739.4,-278.36 739.4,-182.88 739.4,-182.88"/>
<polygon fill="black" stroke="black" points="742.9,-182.88 739.4,-172.88 735.9,-182.88 742.9,-182.88"/>
</g>
<!-- :data:musicbrainz&#45;&gt;:core:logging:api -->
<g id="edge24" class="edge">
<title>:data:musicbrainz&#45;&gt;:core:logging:api</title>
<path fill="none" stroke="black" stroke-dasharray="1,5" d="M584.19,-292C576.77,-292 572.06,-292 572.06,-292 572.06,-292 572.06,-171.98 572.06,-171.98"/>
<polygon fill="black" stroke="black" points="575.56,-171.98 572.06,-161.98 568.56,-171.98 575.56,-171.98"/>
</g>
</g>
</svg>
