<?xml version="1.0" encoding="UTF-8" standalone="no"?>
<!DOCTYPE svg PUBLIC "-//W3C//DTD SVG 1.1//EN"
 "http://www.w3.org/Graphics/SVG/1.1/DTD/svg11.dtd">
<!-- Generated by graphviz version 2.43.0 (0)
 -->
<!-- Title: %3 Pages: 1 -->
<svg width="998pt" height="1077pt"
 viewBox="0.00 0.00 997.94 1077.00" xmlns="http://www.w3.org/2000/svg" xmlns:xlink="http://www.w3.org/1999/xlink">
<g id="graph0" class="graph" transform="scale(1 1) rotate(0) translate(4 1073)">
<title>%3</title>
<polygon fill="white" stroke="transparent" points="-4,4 -4,-1073 993.94,-1073 993.94,4 -4,4"/>
<text text-anchor="middle" x="494.97" y="-1041" font-family="Times,serif" font-size="30.00">Dependencies</text>
<text text-anchor="middle" x="494.97" y="-1008" font-family="Times,serif" font-size="30.00"> </text>
<!-- :shared:feature:history -->
<g id="node1" class="node">
<title>:shared:feature:history</title>
<polygon fill="#b59aff" stroke="black" points="829.39,-995 648.39,-995 648.39,-959 829.39,-959 829.39,-995"/>
<text text-anchor="middle" x="738.89" y="-973.3" font-family="Times,serif" font-size="14.00">:shared:feature:history</text>
</g>
<!-- :test&#45;data -->
<g id="node2" class="node">
<title>:test&#45;data</title>
<ellipse fill="#b59aff" stroke="black" cx="396.89" cy="-703" rx="55.49" ry="18"/>
<text text-anchor="middle" x="396.89" y="-699.3" font-family="Times,serif" font-size="14.00">:test&#45;data</text>
</g>
<!-- :shared:feature:history&#45;&gt;:test&#45;data -->
<g id="edge1" class="edge">
<title>:shared:feature:history&#45;&gt;:test&#45;data</title>
<path fill="none" stroke="#ff9ab1" stroke-dasharray="1,5" d="M647.95,-983C541.18,-983 378.48,-983 378.48,-983 378.48,-983 378.48,-730.09 378.48,-730.09"/>
<polygon fill="#ff9ab1" stroke="#ff9ab1" points="381.98,-730.09 378.48,-720.09 374.98,-730.09 381.98,-730.09"/>
</g>
<!-- :ui:test:screenshot -->
<g id="node3" class="node">
<title>:ui:test:screenshot</title>
<ellipse fill="#9affb5" stroke="black" cx="892.89" cy="-703" rx="96.68" ry="18"/>
<text text-anchor="middle" x="892.89" y="-699.3" font-family="Times,serif" font-size="14.00">:ui:test:screenshot</text>
</g>
<!-- :shared:feature:history&#45;&gt;:ui:test:screenshot -->
<g id="edge2" class="edge">
<title>:shared:feature:history&#45;&gt;:ui:test:screenshot</title>
<path fill="none" stroke="#ff9ab1" stroke-dasharray="1,5" d="M818.28,-958.6C818.28,-958.6 818.28,-724.77 818.28,-724.77"/>
<polygon fill="#ff9ab1" stroke="#ff9ab1" points="821.78,-724.77 818.28,-714.77 814.78,-724.77 821.78,-724.77"/>
</g>
<!-- :ui:common -->
<g id="node4" class="node">
<title>:ui:common</title>
<ellipse fill="#b59aff" stroke="black" cx="692.89" cy="-840" rx="64.19" ry="18"/>
<text text-anchor="middle" x="692.89" y="-836.3" font-family="Times,serif" font-size="14.00">:ui:common</text>
</g>
<!-- :shared:feature:history&#45;&gt;:ui:common -->
<g id="edge3" class="edge">
<title>:shared:feature:history&#45;&gt;:ui:common</title>
<path fill="none" stroke="black" stroke-dasharray="1,5" d="M702.82,-958.81C702.82,-958.81 702.82,-867.83 702.82,-867.83"/>
<polygon fill="black" stroke="black" points="706.32,-867.83 702.82,-857.83 699.32,-867.83 706.32,-867.83"/>
</g>
<!-- :shared:domain -->
<g id="node5" class="node">
<title>:shared:domain</title>
<ellipse fill="#b59aff" stroke="black" cx="540.89" cy="-155" rx="82.59" ry="18"/>
<text text-anchor="middle" x="540.89" y="-151.3" font-family="Times,serif" font-size="14.00">:shared:domain</text>
</g>
<!-- :shared:feature:history&#45;&gt;:shared:domain -->
<g id="edge4" class="edge">
<title>:shared:feature:history&#45;&gt;:shared:domain</title>
<path fill="none" stroke="black" stroke-dasharray="1,5" d="M648.32,-971C606.65,-971 566.33,-971 566.33,-971 566.33,-971 566.33,-182.42 566.33,-182.42"/>
<polygon fill="black" stroke="black" points="569.83,-182.42 566.33,-172.42 562.83,-182.42 569.83,-182.42"/>
</g>
<!-- :test&#45;data&#45;&gt;:shared:domain -->
<g id="edge5" class="edge">
<title>:test&#45;data&#45;&gt;:shared:domain</title>
<path fill="none" stroke="black" stroke-dasharray="1,5" d="M452.43,-703C494.03,-703 543.79,-703 543.79,-703 543.79,-703 543.79,-183.23 543.79,-183.23"/>
<polygon fill="black" stroke="black" points="547.29,-183.23 543.79,-173.23 540.29,-183.23 547.29,-183.23"/>
</g>
<!-- :core:coroutines -->
<g id="node6" class="node">
<title>:core:coroutines</title>
<ellipse fill="#b59aff" stroke="black" cx="427.89" cy="-18" rx="85.29" ry="18"/>
<text text-anchor="middle" x="427.89" y="-14.3" font-family="Times,serif" font-size="14.00">:core:coroutines</text>
</g>
<!-- :test&#45;data&#45;&gt;:core:coroutines -->
<g id="edge6" class="edge">
<title>:test&#45;data&#45;&gt;:core:coroutines</title>
<path fill="none" stroke="black" stroke-dasharray="1,5" d="M348.91,-694C327.8,-694 307.71,-694 307.71,-694 307.71,-694 307.71,-360 307.71,-360 307.71,-360 423.03,-360 423.03,-360 423.03,-360 423.03,-46.39 423.03,-46.39"/>
<polygon fill="black" stroke="black" points="426.53,-46.39 423.03,-36.39 419.53,-46.39 426.53,-46.39"/>
</g>
<!-- :data:database -->
<g id="node7" class="node">
<title>:data:database</title>
<ellipse fill="#b59aff" stroke="black" cx="396.89" cy="-429" rx="79.09" ry="18"/>
<text text-anchor="middle" x="396.89" y="-425.3" font-family="Times,serif" font-size="14.00">:data:database</text>
</g>
<!-- :test&#45;data&#45;&gt;:data:database -->
<g id="edge7" class="edge">
<title>:test&#45;data&#45;&gt;:data:database</title>
<path fill="none" stroke="black" stroke-dasharray="1,5" d="M424.52,-687.08C424.52,-687.08 424.52,-456 424.52,-456"/>
<polygon fill="black" stroke="black" points="428.02,-456 424.52,-446 421.02,-456 428.02,-456"/>
</g>
<!-- :data:musicbrainz -->
<g id="node8" class="node">
<title>:data:musicbrainz</title>
<ellipse fill="#b59aff" stroke="black" cx="305.89" cy="-292" rx="93.68" ry="18"/>
<text text-anchor="middle" x="305.89" y="-288.3" font-family="Times,serif" font-size="14.00">:data:musicbrainz</text>
</g>
<!-- :test&#45;data&#45;&gt;:data:musicbrainz -->
<g id="edge8" class="edge">
<title>:test&#45;data&#45;&gt;:data:musicbrainz</title>
<path fill="none" stroke="black" stroke-dasharray="1,5" d="M341.57,-703C318.87,-703 297.83,-703 297.83,-703 297.83,-703 297.83,-320.19 297.83,-320.19"/>
<polygon fill="black" stroke="black" points="301.33,-320.19 297.83,-310.19 294.33,-320.19 301.33,-320.19"/>
</g>
<!-- :data:coverart -->
<g id="node9" class="node">
<title>:data:coverart</title>
<ellipse fill="#b59aff" stroke="black" cx="211.89" cy="-566" rx="76.09" ry="18"/>
<text text-anchor="middle" x="211.89" y="-562.3" font-family="Times,serif" font-size="14.00">:data:coverart</text>
</g>
<!-- :test&#45;data&#45;&gt;:data:coverart -->
<g id="edge9" class="edge">
<title>:test&#45;data&#45;&gt;:data:coverart</title>
<path fill="none" stroke="black" stroke-dasharray="1,5" d="M369.27,-687.17C369.27,-653.13 369.27,-576 369.27,-576 369.27,-576 285.45,-576 285.45,-576"/>
<polygon fill="black" stroke="black" points="285.45,-572.5 275.45,-576 285.45,-579.5 285.45,-572.5"/>
</g>
<!-- :data:spotify -->
<g id="node10" class="node">
<title>:data:spotify</title>
<ellipse fill="#b59aff" stroke="black" cx="86.89" cy="-292" rx="68.79" ry="18"/>
<text text-anchor="middle" x="86.89" y="-288.3" font-family="Times,serif" font-size="14.00">:data:spotify</text>
</g>
<!-- :test&#45;data&#45;&gt;:data:spotify -->
<g id="edge10" class="edge">
<title>:test&#45;data&#45;&gt;:data:spotify</title>
<path fill="none" stroke="black" stroke-dasharray="1,5" d="M348.99,-712C259.73,-712 76.93,-712 76.93,-712 76.93,-712 76.93,-320.05 76.93,-320.05"/>
<polygon fill="black" stroke="black" points="80.43,-320.05 76.93,-310.05 73.43,-320.05 80.43,-320.05"/>
</g>
<!-- :test:image -->
<g id="node11" class="node">
<title>:test:image</title>
<ellipse fill="#9affb5" stroke="black" cx="926.89" cy="-566" rx="63.09" ry="18"/>
<text text-anchor="middle" x="926.89" y="-562.3" font-family="Times,serif" font-size="14.00">:test:image</text>
</g>
<!-- :ui:test:screenshot&#45;&gt;:test:image -->
<g id="edge11" class="edge">
<title>:ui:test:screenshot&#45;&gt;:test:image</title>
<path fill="none" stroke="black" stroke-dasharray="1,5" d="M947.77,-688.08C947.77,-688.08 947.77,-593.04 947.77,-593.04"/>
<polygon fill="black" stroke="black" points="951.27,-593.04 947.77,-583.04 944.27,-593.04 951.27,-593.04"/>
</g>
<!-- :ui:common&#45;&gt;:test&#45;data -->
<g id="edge13" class="edge">
<title>:ui:common&#45;&gt;:test&#45;data</title>
<path fill="none" stroke="#ff9ab1" stroke-dasharray="1,5" d="M629.21,-843C547.26,-843 415.31,-843 415.31,-843 415.31,-843 415.31,-730.17 415.31,-730.17"/>
<polygon fill="#ff9ab1" stroke="#ff9ab1" points="418.81,-730.17 415.31,-720.17 411.81,-730.17 418.81,-730.17"/>
</g>
<!-- :ui:common&#45;&gt;:ui:test:screenshot -->
<g id="edge14" class="edge">
<title>:ui:common&#45;&gt;:ui:test:screenshot</title>
<path fill="none" stroke="#ff9ab1" stroke-dasharray="1,5" d="M757.38,-840C783.3,-840 807.17,-840 807.17,-840 807.17,-840 807.17,-721.57 807.17,-721.57"/>
<polygon fill="#ff9ab1" stroke="#ff9ab1" points="810.67,-721.57 807.17,-711.57 803.67,-721.57 810.67,-721.57"/>
</g>
<!-- :ui:common&#45;&gt;:shared:domain -->
<g id="edge16" class="edge">
<title>:ui:common&#45;&gt;:shared:domain</title>
<path fill="none" stroke="black" d="M641.79,-829C615.48,-829 588.86,-829 588.86,-829 588.86,-829 588.86,-179.7 588.86,-179.7"/>
<polygon fill="black" stroke="black" points="592.36,-179.7 588.86,-169.7 585.36,-179.7 592.36,-179.7"/>
</g>
<!-- :ui:common&#45;&gt;:core:coroutines -->
<g id="edge15" class="edge">
<title>:ui:common&#45;&gt;:core:coroutines</title>
<path fill="none" stroke="#ff9ab1" stroke-dasharray="1,5" d="M630.12,-836C573.39,-836 498.72,-836 498.72,-836 498.72,-836 498.72,-385 498.72,-385 498.72,-385 446.58,-385 446.58,-385 446.58,-385 446.58,-45.7 446.58,-45.7"/>
<polygon fill="#ff9ab1" stroke="#ff9ab1" points="450.08,-45.7 446.58,-35.7 443.08,-45.7 450.08,-45.7"/>
</g>
<!-- :ui:common&#45;&gt;:test:image -->
<g id="edge12" class="edge">
<title>:ui:common&#45;&gt;:test:image</title>
<path fill="none" stroke="black" stroke-dasharray="1,5" d="M729.81,-825.18C729.81,-777.95 729.81,-634 729.81,-634 729.81,-634 905.81,-634 905.81,-634 905.81,-634 905.81,-593.16 905.81,-593.16"/>
<polygon fill="black" stroke="black" points="909.31,-593.16 905.81,-583.16 902.31,-593.16 909.31,-593.16"/>
</g>
<!-- :ui:core -->
<g id="node12" class="node">
<title>:ui:core</title>
<ellipse fill="#b59aff" stroke="black" cx="656.89" cy="-703" rx="45.49" ry="18"/>
<text text-anchor="middle" x="656.89" y="-699.3" font-family="Times,serif" font-size="14.00">:ui:core</text>
</g>
<!-- :ui:common&#45;&gt;:ui:core -->
<g id="edge17" class="edge">
<title>:ui:common&#45;&gt;:ui:core</title>
<path fill="none" stroke="black" d="M665.47,-823.47C665.47,-823.47 665.47,-730.89 665.47,-730.89"/>
<polygon fill="black" stroke="black" points="668.97,-730.89 665.47,-720.89 661.97,-730.89 668.97,-730.89"/>
</g>
<!-- :core:logging:api -->
<g id="node13" class="node">
<title>:core:logging:api</title>
<ellipse fill="#b59aff" stroke="black" cx="183.89" cy="-155" rx="88.28" ry="18"/>
<text text-anchor="middle" x="183.89" y="-151.3" font-family="Times,serif" font-size="14.00">:core:logging:api</text>
</g>
<!-- :ui:common&#45;&gt;:core:logging:api -->
<g id="edge18" class="edge">
<title>:ui:common&#45;&gt;:core:logging:api</title>
<path fill="none" stroke="black" stroke-dasharray="1,5" d="M639.39,-850C476.86,-850 0,-850 0,-850 0,-850 0,-155 0,-155 0,-155 85.45,-155 85.45,-155"/>
<polygon fill="black" stroke="black" points="85.45,-158.5 95.45,-155 85.45,-151.5 85.45,-158.5"/>
</g>
<!-- :data:database&#45;&gt;:shared:domain -->
<g id="edge19" class="edge">
<title>:data:database&#45;&gt;:shared:domain</title>
<path fill="none" stroke="black" stroke-dasharray="1,5" d="M471.73,-423.02C471.73,-423.02 471.73,-174.87 471.73,-174.87"/>
<polygon fill="black" stroke="black" points="475.23,-174.87 471.73,-164.87 468.23,-174.87 475.23,-174.87"/>
</g>
<!-- :data:database&#45;&gt;:core:coroutines -->
<g id="edge20" class="edge">
<title>:data:database&#45;&gt;:core:coroutines</title>
<path fill="none" stroke="black" stroke-dasharray="1,5" d="M434.8,-413.14C434.8,-413.14 434.8,-46.33 434.8,-46.33"/>
<polygon fill="black" stroke="black" points="438.31,-46.33 434.8,-36.33 431.31,-46.33 438.31,-46.33"/>
</g>
<!-- :data:database&#45;&gt;:data:musicbrainz -->
<g id="edge21" class="edge">
<title>:data:database&#45;&gt;:data:musicbrainz</title>
<path fill="none" stroke="black" stroke-dasharray="1,5" d="M358.54,-413.02C358.54,-413.02 358.54,-317.05 358.54,-317.05"/>
<polygon fill="black" stroke="black" points="362.04,-317.05 358.54,-307.05 355.04,-317.05 362.04,-317.05"/>
</g>
<!-- :data:musicbrainz&#45;&gt;:shared:domain -->
<g id="edge22" class="edge">
<title>:data:musicbrainz&#45;&gt;:shared:domain</title>
<path fill="none" stroke="black" stroke-dasharray="1,5" d="M399.77,-292C435.27,-292 467.27,-292 467.27,-292 467.27,-292 467.27,-173.16 467.27,-173.16"/>
<polygon fill="black" stroke="black" points="470.77,-173.16 467.27,-163.16 463.77,-173.16 470.77,-173.16"/>
</g>
<!-- :data:musicbrainz&#45;&gt;:core:logging:api -->
<g id="edge23" class="edge">
<title>:data:musicbrainz&#45;&gt;:core:logging:api</title>
<path fill="none" stroke="black" stroke-dasharray="1,5" d="M242.29,-278.61C242.29,-278.61 242.29,-178.64 242.29,-178.64"/>
<polygon fill="black" stroke="black" points="245.79,-178.64 242.29,-168.64 238.79,-178.64 245.79,-178.64"/>
</g>
<!-- :data:coverart&#45;&gt;:test&#45;data -->
<g id="edge27" class="edge">
<title>:data:coverart&#45;&gt;:test&#45;data</title>
<path fill="none" stroke="#ff9ab1" stroke-dasharray="1,5" d="M286.87,-569C338.16,-569 396.89,-569 396.89,-569 396.89,-569 396.89,-674.93 396.89,-674.93"/>
<polygon fill="#ff9ab1" stroke="#ff9ab1" points="393.39,-674.93 396.89,-684.93 400.39,-674.93 393.39,-674.93"/>
</g>
<!-- :data:coverart&#45;&gt;:shared:domain -->
<g id="edge24" class="edge">
<title>:data:coverart&#45;&gt;:shared:domain</title>
<path fill="none" stroke="black" stroke-dasharray="1,5" d="M286.39,-562C377.93,-562 521.26,-562 521.26,-562 521.26,-562 521.26,-182.49 521.26,-182.49"/>
<polygon fill="black" stroke="black" points="524.76,-182.49 521.26,-172.49 517.76,-182.49 524.76,-182.49"/>
</g>
<!-- :data:coverart&#45;&gt;:core:coroutines -->
<g id="edge26" class="edge">
<title>:data:coverart&#45;&gt;:core:coroutines</title>
<path fill="none" stroke="black" stroke-dasharray="1,5" d="M262.73,-552.58C262.73,-503.28 262.73,-335 262.73,-335 262.73,-335 411.26,-335 411.26,-335 411.26,-335 411.26,-45.95 411.26,-45.95"/>
<polygon fill="black" stroke="black" points="414.76,-45.95 411.26,-35.95 407.76,-45.95 414.76,-45.95"/>
</g>
<!-- :data:coverart&#45;&gt;:data:database -->
<g id="edge29" class="edge">
<title>:data:coverart&#45;&gt;:data:database</title>
<path fill="none" stroke="#ff9ab1" stroke-dasharray="1,5" d="M272.14,-555C301.1,-555 329.62,-555 329.62,-555 329.62,-555 329.62,-448.89 329.62,-448.89"/>
<polygon fill="#ff9ab1" stroke="#ff9ab1" points="333.12,-448.89 329.62,-438.89 326.12,-448.89 333.12,-448.89"/>
</g>
<!-- :data:coverart&#45;&gt;:data:musicbrainz -->
<g id="edge28" class="edge">
<title>:data:coverart&#45;&gt;:data:musicbrainz</title>
<path fill="none" stroke="#ff9ab1" stroke-dasharray="1,5" d="M237.51,-548.86C237.51,-548.86 237.51,-314.53 237.51,-314.53"/>
<polygon fill="#ff9ab1" stroke="#ff9ab1" points="241.01,-314.53 237.51,-304.53 234.01,-314.53 241.01,-314.53"/>
</g>
<!-- :data:coverart&#45;&gt;:core:logging:api -->
<g id="edge25" class="edge">
<title>:data:coverart&#45;&gt;:core:logging:api</title>
<path fill="none" stroke="black" stroke-dasharray="1,5" d="M184.04,-549.12C184.04,-549.12 184.04,-183.17 184.04,-183.17"/>
<polygon fill="black" stroke="black" points="187.55,-183.17 184.04,-173.17 180.55,-183.17 187.55,-183.17"/>
</g>
<!-- :data:spotify&#45;&gt;:shared:domain -->
<g id="edge30" class="edge">
<title>:data:spotify&#45;&gt;:shared:domain</title>
<path fill="none" stroke="black" stroke-dasharray="1,5" d="M135.69,-279.02C135.69,-259.03 135.69,-223 135.69,-223 135.69,-223 462.81,-223 462.81,-223 462.81,-223 462.81,-171.28 462.81,-171.28"/>
<polygon fill="black" stroke="black" points="466.31,-171.28 462.81,-161.28 459.31,-171.28 466.31,-171.28"/>
</g>
<!-- :data:spotify&#45;&gt;:core:logging:api -->
<g id="edge31" class="edge">
<title>:data:spotify&#45;&gt;:core:logging:api</title>
<path fill="none" stroke="black" stroke-dasharray="1,5" d="M115.6,-275.47C115.6,-275.47 115.6,-176.78 115.6,-176.78"/>
<polygon fill="black" stroke="black" points="119.1,-176.78 115.6,-166.78 112.1,-176.78 119.1,-176.78"/>
</g>
<!-- :ui:core&#45;&gt;:shared:domain -->
<g id="edge33" class="edge">
<title>:ui:core&#45;&gt;:shared:domain</title>
<path fill="none" stroke="black" stroke-dasharray="1,5" d="M617.42,-693.95C617.42,-693.95 617.42,-172 617.42,-172"/>
<polygon fill="black" stroke="black" points="620.92,-172 617.42,-162 613.92,-172 620.92,-172"/>
</g>
<!-- :shared:strings -->
<g id="node14" class="node">
<title>:shared:strings</title>
<ellipse fill="#b59aff" stroke="black" cx="726.89" cy="-566" rx="81.49" ry="18"/>
<text text-anchor="middle" x="726.89" y="-562.3" font-family="Times,serif" font-size="14.00">:shared:strings</text>
</g>
<!-- :ui:core&#45;&gt;:shared:strings -->
<g id="edge32" class="edge">
<title>:ui:core&#45;&gt;:shared:strings</title>
<path fill="none" stroke="black" d="M674.02,-686.2C674.02,-686.2 674.02,-590.03 674.02,-590.03"/>
<polygon fill="black" stroke="black" points="677.52,-590.03 674.02,-580.03 670.52,-590.03 677.52,-590.03"/>
</g>
<!-- :core:logging:api&#45;&gt;:core:coroutines -->
<g id="edge34" class="edge">
<title>:core:logging:api&#45;&gt;:core:coroutines</title>
<path fill="none" stroke="black" d="M272.3,-155C320.77,-155 371.12,-155 371.12,-155 371.12,-155 371.12,-41.64 371.12,-41.64"/>
<polygon fill="black" stroke="black" points="374.62,-41.64 371.12,-31.64 367.62,-41.64 374.62,-41.64"/>
</g>
</g>
</svg>
