<?xml version="1.0" encoding="UTF-8" standalone="no"?>
<!DOCTYPE svg PUBLIC "-//W3C//DTD SVG 1.1//EN"
 "http://www.w3.org/Graphics/SVG/1.1/DTD/svg11.dtd">
<!-- Generated by graphviz version 2.43.0 (0)
 -->
<!-- Title: %3 Pages: 1 -->
<svg width="920pt" height="803pt"
 viewBox="0.00 0.00 920.38 803.00" xmlns="http://www.w3.org/2000/svg" xmlns:xlink="http://www.w3.org/1999/xlink">
<g id="graph0" class="graph" transform="scale(1 1) rotate(0) translate(4 799)">
<title>%3</title>
<polygon fill="white" stroke="transparent" points="-4,4 -4,-799 916.38,-799 916.38,4 -4,4"/>
<text text-anchor="middle" x="456.19" y="-767" font-family="Times,serif" font-size="30.00">Dependencies</text>
<text text-anchor="middle" x="456.19" y="-734" font-family="Times,serif" font-size="30.00"> </text>
<!-- :shared:feature:history -->
<g id="node1" class="node">
<title>:shared:feature:history</title>
<polygon fill="#b59aff" stroke="black" points="588.04,-721 407.04,-721 407.04,-685 588.04,-685 588.04,-721"/>
<text text-anchor="middle" x="497.54" y="-699.3" font-family="Times,serif" font-size="14.00">:shared:feature:history</text>
</g>
<!-- :test&#45;data -->
<g id="node2" class="node">
<title>:test&#45;data</title>
<ellipse fill="#b59aff" stroke="black" cx="389.54" cy="-429" rx="55.49" ry="18"/>
<text text-anchor="middle" x="389.54" y="-425.3" font-family="Times,serif" font-size="14.00">:test&#45;data</text>
</g>
<!-- :shared:feature:history&#45;&gt;:test&#45;data -->
<g id="edge1" class="edge">
<title>:shared:feature:history&#45;&gt;:test&#45;data</title>
<path fill="none" stroke="#ff9ab1" stroke-dasharray="1,5" d="M419.62,-684.6C419.62,-684.6 419.62,-454.21 419.62,-454.21"/>
<polygon fill="#ff9ab1" stroke="#ff9ab1" points="423.12,-454.21 419.62,-444.21 416.12,-454.21 423.12,-454.21"/>
</g>
<!-- :ui:test:screenshot -->
<g id="node3" class="node">
<title>:ui:test:screenshot</title>
<ellipse fill="#9affb5" stroke="black" cx="815.54" cy="-429" rx="96.68" ry="18"/>
<text text-anchor="middle" x="815.54" y="-425.3" font-family="Times,serif" font-size="14.00">:ui:test:screenshot</text>
</g>
<!-- :shared:feature:history&#45;&gt;:ui:test:screenshot -->
<g id="edge2" class="edge">
<title>:shared:feature:history&#45;&gt;:ui:test:screenshot</title>
<path fill="none" stroke="#ff9ab1" stroke-dasharray="1,5" d="M588.2,-703C691.99,-703 847.82,-703 847.82,-703 847.82,-703 847.82,-456.14 847.82,-456.14"/>
<polygon fill="#ff9ab1" stroke="#ff9ab1" points="851.32,-456.14 847.82,-446.14 844.32,-456.14 851.32,-456.14"/>
</g>
<!-- :ui:common -->
<g id="node4" class="node">
<title>:ui:common</title>
<ellipse fill="#b59aff" stroke="black" cx="543.54" cy="-566" rx="64.19" ry="18"/>
<text text-anchor="middle" x="543.54" y="-562.3" font-family="Times,serif" font-size="14.00">:ui:common</text>
</g>
<!-- :shared:feature:history&#45;&gt;:ui:common -->
<g id="edge3" class="edge">
<title>:shared:feature:history&#45;&gt;:ui:common</title>
<path fill="none" stroke="black" stroke-dasharray="1,5" d="M533.62,-684.81C533.62,-684.81 533.62,-593.83 533.62,-593.83"/>
<polygon fill="black" stroke="black" points="537.12,-593.83 533.62,-583.83 530.12,-593.83 537.12,-593.83"/>
</g>
<!-- :shared:domain -->
<g id="node5" class="node">
<title>:shared:domain</title>
<ellipse fill="#b59aff" stroke="black" cx="82.54" cy="-18" rx="82.59" ry="18"/>
<text text-anchor="middle" x="82.54" y="-14.3" font-family="Times,serif" font-size="14.00">:shared:domain</text>
</g>
<!-- :shared:feature:history&#45;&gt;:shared:domain -->
<g id="edge4" class="edge">
<title>:shared:feature:history&#45;&gt;:shared:domain</title>
<path fill="none" stroke="black" stroke-dasharray="1,5" d="M407.01,-703C269.09,-703 22.19,-703 22.19,-703 22.19,-703 22.19,-40.47 22.19,-40.47"/>
<polygon fill="black" stroke="black" points="25.69,-40.47 22.19,-30.47 18.69,-40.47 25.69,-40.47"/>
</g>
<!-- :test&#45;data&#45;&gt;:shared:domain -->
<g id="edge5" class="edge">
<title>:test&#45;data&#45;&gt;:shared:domain</title>
<path fill="none" stroke="black" stroke-dasharray="1,5" d="M337.29,-435C245.88,-435 66.57,-435 66.57,-435 66.57,-435 66.57,-45.92 66.57,-45.92"/>
<polygon fill="black" stroke="black" points="70.07,-45.92 66.57,-35.92 63.07,-45.92 70.07,-45.92"/>
</g>
<!-- :data:database -->
<g id="node6" class="node">
<title>:data:database</title>
<ellipse fill="#b59aff" stroke="black" cx="204.54" cy="-292" rx="79.09" ry="18"/>
<text text-anchor="middle" x="204.54" y="-288.3" font-family="Times,serif" font-size="14.00">:data:database</text>
</g>
<!-- :test&#45;data&#45;&gt;:data:database -->
<g id="edge6" class="edge">
<title>:test&#45;data&#45;&gt;:data:database</title>
<path fill="none" stroke="black" stroke-dasharray="1,5" d="M389.54,-410.89C389.54,-372.41 389.54,-286 389.54,-286 389.54,-286 289.52,-286 289.52,-286"/>
<polygon fill="black" stroke="black" points="289.52,-282.5 279.52,-286 289.52,-289.5 289.52,-282.5"/>
</g>
<!-- :data:musicbrainz -->
<g id="node7" class="node">
<title>:data:musicbrainz</title>
<ellipse fill="#b59aff" stroke="black" cx="204.54" cy="-155" rx="93.68" ry="18"/>
<text text-anchor="middle" x="204.54" y="-151.3" font-family="Times,serif" font-size="14.00">:data:musicbrainz</text>
</g>
<!-- :test&#45;data&#45;&gt;:data:musicbrainz -->
<g id="edge7" class="edge">
<title>:test&#45;data&#45;&gt;:data:musicbrainz</title>
<path fill="none" stroke="black" stroke-dasharray="1,5" d="M337.38,-423C313.74,-423 290.99,-423 290.99,-423 290.99,-423 290.99,-172.17 290.99,-172.17"/>
<polygon fill="black" stroke="black" points="294.49,-172.17 290.99,-162.17 287.49,-172.17 294.49,-172.17"/>
</g>
<!-- :data:coverart -->
<g id="node8" class="node">
<title>:data:coverart</title>
<ellipse fill="#b59aff" stroke="black" cx="392.54" cy="-155" rx="76.09" ry="18"/>
<text text-anchor="middle" x="392.54" y="-151.3" font-family="Times,serif" font-size="14.00">:data:coverart</text>
</g>
<!-- :test&#45;data&#45;&gt;:data:coverart -->
<g id="edge8" class="edge">
<title>:test&#45;data&#45;&gt;:data:coverart</title>
<path fill="none" stroke="black" stroke-dasharray="1,5" d="M417.17,-413.08C417.17,-413.08 417.17,-182.36 417.17,-182.36"/>
<polygon fill="black" stroke="black" points="420.67,-182.36 417.17,-172.36 413.67,-182.36 420.67,-182.36"/>
</g>
<!-- :data:spotify -->
<g id="node9" class="node">
<title>:data:spotify</title>
<ellipse fill="#b59aff" stroke="black" cx="555.54" cy="-155" rx="68.79" ry="18"/>
<text text-anchor="middle" x="555.54" y="-151.3" font-family="Times,serif" font-size="14.00">:data:spotify</text>
</g>
<!-- :test&#45;data&#45;&gt;:data:spotify -->
<g id="edge9" class="edge">
<title>:test&#45;data&#45;&gt;:data:spotify</title>
<path fill="none" stroke="black" stroke-dasharray="1,5" d="M361.92,-413.34C361.92,-392.98 361.92,-360 361.92,-360 361.92,-360 555.54,-360 555.54,-360 555.54,-360 555.54,-183.19 555.54,-183.19"/>
<polygon fill="black" stroke="black" points="559.04,-183.19 555.54,-173.19 552.04,-183.19 559.04,-183.19"/>
</g>
<!-- :test:image -->
<g id="node10" class="node">
<title>:test:image</title>
<ellipse fill="#9affb5" stroke="black" cx="779.54" cy="-292" rx="63.09" ry="18"/>
<text text-anchor="middle" x="779.54" y="-288.3" font-family="Times,serif" font-size="14.00">:test:image</text>
</g>
<!-- :ui:test:screenshot&#45;&gt;:test:image -->
<g id="edge10" class="edge">
<title>:ui:test:screenshot&#45;&gt;:test:image</title>
<path fill="none" stroke="black" stroke-dasharray="1,5" d="M780.64,-412.2C780.64,-412.2 780.64,-320.25 780.64,-320.25"/>
<polygon fill="black" stroke="black" points="784.14,-320.25 780.64,-310.25 777.14,-320.25 784.14,-320.25"/>
</g>
<!-- :ui:common&#45;&gt;:test&#45;data -->
<g id="edge12" class="edge">
<title>:ui:common&#45;&gt;:test&#45;data</title>
<path fill="none" stroke="#ff9ab1" stroke-dasharray="1,5" d="M482.66,-560C456.67,-560 432.21,-560 432.21,-560 432.21,-560 432.21,-450.63 432.21,-450.63"/>
<polygon fill="#ff9ab1" stroke="#ff9ab1" points="435.71,-450.63 432.21,-440.63 428.71,-450.63 435.71,-450.63"/>
</g>
<!-- :ui:common&#45;&gt;:ui:test:screenshot -->
<g id="edge13" class="edge">
<title>:ui:common&#45;&gt;:ui:test:screenshot</title>
<path fill="none" stroke="#ff9ab1" stroke-dasharray="1,5" d="M599.44,-575C670.28,-575 783.26,-575 783.26,-575 783.26,-575 783.26,-456.03 783.26,-456.03"/>
<polygon fill="#ff9ab1" stroke="#ff9ab1" points="786.76,-456.03 783.26,-446.03 779.76,-456.03 786.76,-456.03"/>
</g>
<!-- :ui:common&#45;&gt;:shared:domain -->
<g id="edge14" class="edge">
<title>:ui:common&#45;&gt;:shared:domain</title>
<path fill="none" stroke="black" d="M482.83,-572C349.81,-572 44.38,-572 44.38,-572 44.38,-572 44.38,-43.98 44.38,-43.98"/>
<polygon fill="black" stroke="black" points="47.88,-43.98 44.38,-33.98 40.88,-43.98 47.88,-43.98"/>
</g>
<!-- :ui:common&#45;&gt;:test:image -->
<g id="edge11" class="edge">
<title>:ui:common&#45;&gt;:test:image</title>
<path fill="none" stroke="black" stroke-dasharray="1,5" d="M608.07,-566C645.74,-566 685.93,-566 685.93,-566 685.93,-566 685.93,-298 685.93,-298 685.93,-298 709.99,-298 709.99,-298"/>
<polygon fill="black" stroke="black" points="709.99,-301.5 719.99,-298 709.99,-294.5 709.99,-301.5"/>
</g>
<!-- :shared:strings -->
<g id="node11" class="node">
<title>:shared:strings</title>
<ellipse fill="#b59aff" stroke="black" cx="543.54" cy="-429" rx="81.49" ry="18"/>
<text text-anchor="middle" x="543.54" y="-425.3" font-family="Times,serif" font-size="14.00">:shared:strings</text>
</g>
<!-- :ui:common&#45;&gt;:shared:strings -->
<g id="edge15" class="edge">
<title>:ui:common&#45;&gt;:shared:strings</title>
<path fill="none" stroke="black" d="M543.54,-547.81C543.54,-547.81 543.54,-457.27 543.54,-457.27"/>
<polygon fill="black" stroke="black" points="547.04,-457.27 543.54,-447.27 540.04,-457.27 547.04,-457.27"/>
</g>
<!-- :core:logging:api -->
<g id="node12" class="node">
<title>:core:logging:api</title>
<ellipse fill="#b59aff" stroke="black" cx="473.54" cy="-18" rx="88.28" ry="18"/>
<text text-anchor="middle" x="473.54" y="-14.3" font-family="Times,serif" font-size="14.00">:core:logging:api</text>
</g>
<!-- :ui:common&#45;&gt;:core:logging:api -->
<g id="edge16" class="edge">
<title>:ui:common&#45;&gt;:core:logging:api</title>
<path fill="none" stroke="black" stroke-dasharray="1,5" d="M599.45,-557C627.4,-557 655.36,-557 655.36,-557 655.36,-557 655.36,-18 655.36,-18 655.36,-18 572.05,-18 572.05,-18"/>
<polygon fill="black" stroke="black" points="572.05,-14.5 562.05,-18 572.05,-21.5 572.05,-14.5"/>
</g>
<!-- :data:database&#45;&gt;:shared:domain -->
<g id="edge17" class="edge">
<title>:data:database&#45;&gt;:shared:domain</title>
<path fill="none" stroke="black" stroke-dasharray="1,5" d="M125.08,-292C104.87,-292 88.76,-292 88.76,-292 88.76,-292 88.76,-45.98 88.76,-45.98"/>
<polygon fill="black" stroke="black" points="92.26,-45.98 88.76,-35.98 85.26,-45.98 92.26,-45.98"/>
</g>
<!-- :data:database&#45;&gt;:data:musicbrainz -->
<g id="edge18" class="edge">
<title>:data:database&#45;&gt;:data:musicbrainz</title>
<path fill="none" stroke="black" stroke-dasharray="1,5" d="M204.54,-273.81C204.54,-273.81 204.54,-183.27 204.54,-183.27"/>
<polygon fill="black" stroke="black" points="208.04,-183.27 204.54,-173.27 201.04,-183.27 208.04,-183.27"/>
</g>
<!-- :data:musicbrainz&#45;&gt;:shared:domain -->
<g id="edge19" class="edge">
<title>:data:musicbrainz&#45;&gt;:shared:domain</title>
<path fill="none" stroke="black" stroke-dasharray="1,5" d="M129,-144.25C129,-144.25 129,-43.18 129,-43.18"/>
<polygon fill="black" stroke="black" points="132.5,-43.18 129,-33.18 125.5,-43.18 132.5,-43.18"/>
</g>
<!-- :data:musicbrainz&#45;&gt;:core:logging:api -->
<g id="edge20" class="edge">
<title>:data:musicbrainz&#45;&gt;:core:logging:api</title>
<path fill="none" stroke="black" stroke-dasharray="1,5" d="M231.61,-137.75C231.61,-99.72 231.61,-12 231.61,-12 231.61,-12 379.94,-12 379.94,-12"/>
<polygon fill="black" stroke="black" points="379.94,-15.5 389.94,-12 379.94,-8.5 379.94,-15.5"/>
</g>
<!-- :data:coverart&#45;&gt;:shared:domain -->
<g id="edge21" class="edge">
<title>:data:coverart&#45;&gt;:shared:domain</title>
<path fill="none" stroke="black" stroke-dasharray="1,5" d="M350.82,-139.72C350.82,-105.16 350.82,-24 350.82,-24 350.82,-24 170.5,-24 170.5,-24"/>
<polygon fill="black" stroke="black" points="170.5,-20.5 160.5,-24 170.5,-27.5 170.5,-20.5"/>
</g>
<!-- :data:coverart&#45;&gt;:core:logging:api -->
<g id="edge22" class="edge">
<title>:data:coverart&#45;&gt;:core:logging:api</title>
<path fill="none" stroke="black" stroke-dasharray="1,5" d="M426.87,-138.75C426.87,-138.75 426.87,-43.39 426.87,-43.39"/>
<polygon fill="black" stroke="black" points="430.37,-43.39 426.87,-33.39 423.37,-43.39 430.37,-43.39"/>
</g>
<!-- :data:spotify&#45;&gt;:shared:domain -->
<g id="edge23" class="edge">
<title>:data:spotify&#45;&gt;:shared:domain</title>
<path fill="none" stroke="black" stroke-dasharray="1,5" d="M511.74,-141.04C511.74,-120.87 511.74,-86 511.74,-86 511.74,-86 147.04,-86 147.04,-86 147.04,-86 147.04,-39.54 147.04,-39.54"/>
<polygon fill="black" stroke="black" points="150.54,-39.54 147.04,-29.54 143.54,-39.54 150.54,-39.54"/>
</g>
<!-- :data:spotify&#45;&gt;:core:logging:api -->
<g id="edge24" class="edge">
<title>:data:spotify&#45;&gt;:core:logging:api</title>
<path fill="none" stroke="black" stroke-dasharray="1,5" d="M536.84,-137.65C536.84,-137.65 536.84,-40.74 536.84,-40.74"/>
<polygon fill="black" stroke="black" points="540.34,-40.74 536.84,-30.74 533.34,-40.74 540.34,-40.74"/>
</g>
</g>
</svg>
