<?xml version="1.0" encoding="UTF-8" standalone="no"?>
<!DOCTYPE svg PUBLIC "-//W3C//DTD SVG 1.1//EN"
 "http://www.w3.org/Graphics/SVG/1.1/DTD/svg11.dtd">
<!-- Generated by graphviz version 2.43.0 (0)
 -->
<!-- Title: %3 Pages: 1 -->
<svg width="786pt" height="1077pt"
 viewBox="0.00 0.00 785.83 1077.00" xmlns="http://www.w3.org/2000/svg" xmlns:xlink="http://www.w3.org/1999/xlink">
<g id="graph0" class="graph" transform="scale(1 1) rotate(0) translate(4 1073)">
<title>%3</title>
<polygon fill="white" stroke="transparent" points="-4,4 -4,-1073 781.83,-1073 781.83,4 -4,4"/>
<text text-anchor="middle" x="388.92" y="-1041" font-family="Times,serif" font-size="30.00">Dependencies</text>
<text text-anchor="middle" x="388.92" y="-1008" font-family="Times,serif" font-size="30.00"> </text>
<!-- :shared:feature:history -->
<g id="node1" class="node">
<title>:shared:feature:history</title>
<polygon fill="#b59aff" stroke="black" points="705.09,-995 524.09,-995 524.09,-959 705.09,-959 705.09,-995"/>
<text text-anchor="middle" x="614.59" y="-973.3" font-family="Times,serif" font-size="14.00">:shared:feature:history</text>
</g>
<!-- :test&#45;data -->
<g id="node2" class="node">
<title>:test&#45;data</title>
<ellipse fill="#b59aff" stroke="black" cx="384.59" cy="-703" rx="55.49" ry="18"/>
<text text-anchor="middle" x="384.59" y="-699.3" font-family="Times,serif" font-size="14.00">:test&#45;data</text>
</g>
<!-- :shared:feature:history&#45;&gt;:test&#45;data -->
<g id="edge1" class="edge">
<title>:shared:feature:history&#45;&gt;:test&#45;data</title>
<path fill="none" stroke="#ff9ab1" stroke-dasharray="1,5" d="M524.02,-983C459.66,-983 384.59,-983 384.59,-983 384.59,-983 384.59,-731.37 384.59,-731.37"/>
<polygon fill="#ff9ab1" stroke="#ff9ab1" points="388.09,-731.37 384.59,-721.37 381.09,-731.37 388.09,-731.37"/>
</g>
<!-- :ui:test:screenshot -->
<g id="node3" class="node">
<title>:ui:test:screenshot</title>
<ellipse fill="#9affb5" stroke="black" cx="677.59" cy="-703" rx="96.68" ry="18"/>
<text text-anchor="middle" x="677.59" y="-699.3" font-family="Times,serif" font-size="14.00">:ui:test:screenshot</text>
</g>
<!-- :shared:feature:history&#45;&gt;:ui:test:screenshot -->
<g id="edge2" class="edge">
<title>:shared:feature:history&#45;&gt;:ui:test:screenshot</title>
<path fill="none" stroke="#ff9ab1" stroke-dasharray="1,5" d="M661.01,-958.6C661.01,-958.6 661.01,-730.97 661.01,-730.97"/>
<polygon fill="#ff9ab1" stroke="#ff9ab1" points="664.51,-730.97 661.01,-720.97 657.51,-730.97 664.51,-730.97"/>
</g>
<!-- :ui:common -->
<g id="node4" class="node">
<title>:ui:common</title>
<ellipse fill="#b59aff" stroke="black" cx="552.59" cy="-840" rx="64.19" ry="18"/>
<text text-anchor="middle" x="552.59" y="-836.3" font-family="Times,serif" font-size="14.00">:ui:common</text>
</g>
<!-- :shared:feature:history&#45;&gt;:ui:common -->
<g id="edge3" class="edge">
<title>:shared:feature:history&#45;&gt;:ui:common</title>
<path fill="none" stroke="black" stroke-dasharray="1,5" d="M570.51,-958.81C570.51,-958.81 570.51,-867.4 570.51,-867.4"/>
<polygon fill="black" stroke="black" points="574.01,-867.4 570.51,-857.4 567.01,-867.4 574.01,-867.4"/>
</g>
<!-- :shared:domain -->
<g id="node5" class="node">
<title>:shared:domain</title>
<ellipse fill="#b59aff" stroke="black" cx="436.59" cy="-155" rx="82.59" ry="18"/>
<text text-anchor="middle" x="436.59" y="-151.3" font-family="Times,serif" font-size="14.00">:shared:domain</text>
</g>
<!-- :shared:feature:history&#45;&gt;:shared:domain -->
<g id="edge4" class="edge">
<title>:shared:feature:history&#45;&gt;:shared:domain</title>
<path fill="none" stroke="black" stroke-dasharray="1,5" d="M523.98,-971C492.09,-971 464.04,-971 464.04,-971 464.04,-971 464.04,-182.04 464.04,-182.04"/>
<polygon fill="black" stroke="black" points="467.54,-182.04 464.04,-172.04 460.54,-182.04 467.54,-182.04"/>
</g>
<!-- :test&#45;data&#45;&gt;:shared:domain -->
<g id="edge5" class="edge">
<title>:test&#45;data&#45;&gt;:shared:domain</title>
<path fill="none" stroke="black" stroke-dasharray="1,5" d="M422.25,-689.73C422.25,-689.73 422.25,-182.82 422.25,-182.82"/>
<polygon fill="black" stroke="black" points="425.75,-182.82 422.25,-172.82 418.75,-182.82 425.75,-182.82"/>
</g>
<!-- :core:coroutines -->
<g id="node6" class="node">
<title>:core:coroutines</title>
<ellipse fill="#b59aff" stroke="black" cx="117.59" cy="-18" rx="85.29" ry="18"/>
<text text-anchor="middle" x="117.59" y="-14.3" font-family="Times,serif" font-size="14.00">:core:coroutines</text>
</g>
<!-- :test&#45;data&#45;&gt;:core:coroutines -->
<g id="edge6" class="edge">
<title>:test&#45;data&#45;&gt;:core:coroutines</title>
<path fill="none" stroke="black" stroke-dasharray="1,5" d="M336.66,-712C233.56,-712 0,-712 0,-712 0,-712 0,-12 0,-12 0,-12 27.21,-12 27.21,-12"/>
<polygon fill="black" stroke="black" points="27.21,-15.5 37.21,-12 27.21,-8.5 27.21,-15.5"/>
</g>
<!-- :data:database -->
<g id="node7" class="node">
<title>:data:database</title>
<ellipse fill="#b59aff" stroke="black" cx="227.59" cy="-429" rx="79.09" ry="18"/>
<text text-anchor="middle" x="227.59" y="-425.3" font-family="Times,serif" font-size="14.00">:data:database</text>
</g>
<!-- :test&#45;data&#45;&gt;:data:database -->
<g id="edge7" class="edge">
<title>:test&#45;data&#45;&gt;:data:database</title>
<path fill="none" stroke="black" stroke-dasharray="1,5" d="M336.52,-694C314.73,-694 293.76,-694 293.76,-694 293.76,-694 293.76,-449.06 293.76,-449.06"/>
<polygon fill="black" stroke="black" points="297.26,-449.06 293.76,-439.06 290.26,-449.06 297.26,-449.06"/>
</g>
<!-- :data:musicbrainz -->
<g id="node8" class="node">
<title>:data:musicbrainz</title>
<ellipse fill="#b59aff" stroke="black" cx="120.59" cy="-292" rx="93.68" ry="18"/>
<text text-anchor="middle" x="120.59" y="-288.3" font-family="Times,serif" font-size="14.00">:data:musicbrainz</text>
</g>
<!-- :test&#45;data&#45;&gt;:data:musicbrainz -->
<g id="edge8" class="edge">
<title>:test&#45;data&#45;&gt;:data:musicbrainz</title>
<path fill="none" stroke="black" stroke-dasharray="1,5" d="M329.03,-703C240.61,-703 77.77,-703 77.77,-703 77.77,-703 77.77,-318.11 77.77,-318.11"/>
<polygon fill="black" stroke="black" points="81.27,-318.11 77.77,-308.11 74.27,-318.11 81.27,-318.11"/>
</g>
<!-- :data:coverart -->
<g id="node9" class="node">
<title>:data:coverart</title>
<ellipse fill="#b59aff" stroke="black" cx="204.59" cy="-566" rx="76.09" ry="18"/>
<text text-anchor="middle" x="204.59" y="-562.3" font-family="Times,serif" font-size="14.00">:data:coverart</text>
</g>
<!-- :test&#45;data&#45;&gt;:data:coverart -->
<g id="edge9" class="edge">
<title>:test&#45;data&#45;&gt;:data:coverart</title>
<path fill="none" stroke="black" stroke-dasharray="1,5" d="M339.38,-692.49C339.38,-660.9 339.38,-569 339.38,-569 339.38,-569 289.87,-569 289.87,-569"/>
<polygon fill="black" stroke="black" points="289.87,-565.5 279.87,-569 289.87,-572.5 289.87,-565.5"/>
</g>
<!-- :data:spotify -->
<g id="node10" class="node">
<title>:data:spotify</title>
<ellipse fill="#b59aff" stroke="black" cx="300.59" cy="-292" rx="68.79" ry="18"/>
<text text-anchor="middle" x="300.59" y="-288.3" font-family="Times,serif" font-size="14.00">:data:spotify</text>
</g>
<!-- :test&#45;data&#45;&gt;:data:spotify -->
<g id="edge10" class="edge">
<title>:test&#45;data&#45;&gt;:data:spotify</title>
<path fill="none" stroke="black" stroke-dasharray="1,5" d="M359.45,-686.89C359.45,-686.89 359.45,-311.63 359.45,-311.63"/>
<polygon fill="black" stroke="black" points="362.95,-311.63 359.45,-301.63 355.95,-311.63 362.95,-311.63"/>
</g>
<!-- :ui:core -->
<g id="node11" class="node">
<title>:ui:core</title>
<ellipse fill="#b59aff" stroke="black" cx="587.59" cy="-566" rx="45.49" ry="18"/>
<text text-anchor="middle" x="587.59" y="-562.3" font-family="Times,serif" font-size="14.00">:ui:core</text>
</g>
<!-- :ui:test:screenshot&#45;&gt;:ui:core -->
<g id="edge11" class="edge">
<title>:ui:test:screenshot&#45;&gt;:ui:core</title>
<path fill="none" stroke="black" stroke-dasharray="1,5" d="M606.92,-690.36C606.92,-690.36 606.92,-592.39 606.92,-592.39"/>
<polygon fill="black" stroke="black" points="610.42,-592.39 606.92,-582.39 603.42,-592.39 610.42,-592.39"/>
</g>
<!-- :test:image -->
<g id="node12" class="node">
<title>:test:image</title>
<ellipse fill="#9affb5" stroke="black" cx="714.59" cy="-566" rx="63.09" ry="18"/>
<text text-anchor="middle" x="714.59" y="-562.3" font-family="Times,serif" font-size="14.00">:test:image</text>
</g>
<!-- :ui:test:screenshot&#45;&gt;:test:image -->
<g id="edge12" class="edge">
<title>:ui:test:screenshot&#45;&gt;:test:image</title>
<path fill="none" stroke="black" stroke-dasharray="1,5" d="M712.99,-686.2C712.99,-686.2 712.99,-594.25 712.99,-594.25"/>
<polygon fill="black" stroke="black" points="716.49,-594.25 712.99,-584.25 709.49,-594.25 716.49,-594.25"/>
</g>
<!-- :ui:common&#45;&gt;:test&#45;data -->
<g id="edge13" class="edge">
<title>:ui:common&#45;&gt;:test&#45;data</title>
<path fill="none" stroke="#ff9ab1" stroke-dasharray="1,5" d="M494.42,-832.24C494.42,-803.26 494.42,-703 494.42,-703 494.42,-703 450.15,-703 450.15,-703"/>
<polygon fill="#ff9ab1" stroke="#ff9ab1" points="450.15,-699.5 440.15,-703 450.15,-706.5 450.15,-699.5"/>
</g>
<!-- :ui:common&#45;&gt;:ui:test:screenshot -->
<g id="edge14" class="edge">
<title>:ui:common&#45;&gt;:ui:test:screenshot</title>
<path fill="none" stroke="#ff9ab1" stroke-dasharray="1,5" d="M598.84,-827.36C598.84,-827.36 598.84,-723.69 598.84,-723.69"/>
<polygon fill="#ff9ab1" stroke="#ff9ab1" points="602.34,-723.69 598.84,-713.69 595.34,-723.69 602.34,-723.69"/>
</g>
<!-- :ui:common&#45;&gt;:shared:domain -->
<g id="edge16" class="edge">
<title>:ui:common&#45;&gt;:shared:domain</title>
<path fill="none" stroke="black" d="M506.78,-827.23C506.78,-827.23 506.78,-174.6 506.78,-174.6"/>
<polygon fill="black" stroke="black" points="510.28,-174.6 506.78,-164.6 503.28,-174.6 510.28,-174.6"/>
</g>
<!-- :ui:common&#45;&gt;:core:coroutines -->
<g id="edge15" class="edge">
<title>:ui:common&#45;&gt;:core:coroutines</title>
<path fill="none" stroke="#ff9ab1" stroke-dasharray="1,5" d="M530.62,-822.71C530.62,-703.8 530.62,-12 530.62,-12 530.62,-12 208.21,-12 208.21,-12"/>
<polygon fill="#ff9ab1" stroke="#ff9ab1" points="208.21,-8.5 198.21,-12 208.21,-15.5 208.21,-8.5"/>
</g>
<!-- :ui:common&#45;&gt;:ui:core -->
<g id="edge17" class="edge">
<title>:ui:common&#45;&gt;:ui:core</title>
<path fill="none" stroke="black" d="M561.42,-822.02C561.42,-822.02 561.42,-590.95 561.42,-590.95"/>
<polygon fill="black" stroke="black" points="564.92,-590.95 561.42,-580.95 557.92,-590.95 564.92,-590.95"/>
</g>
<!-- :core:logging:api -->
<g id="node13" class="node">
<title>:core:logging:api</title>
<ellipse fill="#b59aff" stroke="black" cx="117.59" cy="-155" rx="88.28" ry="18"/>
<text text-anchor="middle" x="117.59" y="-151.3" font-family="Times,serif" font-size="14.00">:core:logging:api</text>
</g>
<!-- :ui:common&#45;&gt;:core:logging:api -->
<g id="edge18" class="edge">
<title>:ui:common&#45;&gt;:core:logging:api</title>
<path fill="none" stroke="black" stroke-dasharray="1,5" d="M500.6,-829.29C500.6,-747.36 500.6,-223 500.6,-223 500.6,-223 147.06,-223 147.06,-223 147.06,-223 147.06,-182.16 147.06,-182.16"/>
<polygon fill="black" stroke="black" points="150.56,-182.16 147.06,-172.16 143.56,-182.16 150.56,-182.16"/>
</g>
<!-- :data:database&#45;&gt;:shared:domain -->
<g id="edge19" class="edge">
<title>:data:database&#45;&gt;:shared:domain</title>
<path fill="none" stroke="black" stroke-dasharray="1,5" d="M307.33,-429C347.2,-429 387.07,-429 387.07,-429 387.07,-429 387.07,-179.73 387.07,-179.73"/>
<polygon fill="black" stroke="black" points="390.57,-179.73 387.07,-169.73 383.57,-179.73 390.57,-179.73"/>
</g>
<!-- :data:database&#45;&gt;:core:coroutines -->
<g id="edge20" class="edge">
<title>:data:database&#45;&gt;:core:coroutines</title>
<path fill="none" stroke="black" stroke-dasharray="1,5" d="M222.94,-410.81C222.94,-332.01 222.94,-24 222.94,-24 222.94,-24 207.97,-24 207.97,-24"/>
<polygon fill="black" stroke="black" points="207.97,-20.5 197.97,-24 207.97,-27.5 207.97,-20.5"/>
</g>
<!-- :data:database&#45;&gt;:data:musicbrainz -->
<g id="edge21" class="edge">
<title>:data:database&#45;&gt;:data:musicbrainz</title>
<path fill="none" stroke="black" stroke-dasharray="1,5" d="M181.24,-414.34C181.24,-414.34 181.24,-315.74 181.24,-315.74"/>
<polygon fill="black" stroke="black" points="184.74,-315.74 181.24,-305.74 177.74,-315.74 184.74,-315.74"/>
</g>
<!-- :data:musicbrainz&#45;&gt;:shared:domain -->
<g id="edge22" class="edge">
<title>:data:musicbrainz&#45;&gt;:shared:domain</title>
<path fill="none" stroke="black" stroke-dasharray="1,5" d="M210.08,-286.7C210.08,-262.19 210.08,-161 210.08,-161 210.08,-161 348.64,-161 348.64,-161"/>
<polygon fill="black" stroke="black" points="348.64,-164.5 358.64,-161 348.64,-157.5 348.64,-164.5"/>
</g>
<!-- :data:musicbrainz&#45;&gt;:core:logging:api -->
<g id="edge23" class="edge">
<title>:data:musicbrainz&#45;&gt;:core:logging:api</title>
<path fill="none" stroke="black" stroke-dasharray="1,5" d="M88.13,-274.93C88.13,-274.93 88.13,-182.29 88.13,-182.29"/>
<polygon fill="black" stroke="black" points="91.63,-182.29 88.13,-172.29 84.63,-182.29 91.63,-182.29"/>
</g>
<!-- :data:coverart&#45;&gt;:test&#45;data -->
<g id="edge27" class="edge">
<title>:data:coverart&#45;&gt;:test&#45;data</title>
<path fill="none" stroke="#ff9ab1" stroke-dasharray="1,5" d="M279.13,-562C314.61,-562 349.42,-562 349.42,-562 349.42,-562 349.42,-678.96 349.42,-678.96"/>
<polygon fill="#ff9ab1" stroke="#ff9ab1" points="345.92,-678.96 349.42,-688.96 352.92,-678.96 345.92,-678.96"/>
</g>
<!-- :data:coverart&#45;&gt;:shared:domain -->
<g id="edge24" class="edge">
<title>:data:coverart&#45;&gt;:shared:domain</title>
<path fill="none" stroke="black" stroke-dasharray="1,5" d="M264.89,-555C323.8,-555 404.66,-555 404.66,-555 404.66,-555 404.66,-181.68 404.66,-181.68"/>
<polygon fill="black" stroke="black" points="408.16,-181.68 404.66,-171.68 401.16,-181.68 408.16,-181.68"/>
</g>
<!-- :data:coverart&#45;&gt;:core:coroutines -->
<g id="edge26" class="edge">
<title>:data:coverart&#45;&gt;:core:coroutines</title>
<path fill="none" stroke="black" stroke-dasharray="1,5" d="M132.87,-572C77.05,-572 9,-572 9,-572 9,-572 9,-24 9,-24 9,-24 27.25,-24 27.25,-24"/>
<polygon fill="black" stroke="black" points="27.25,-27.5 37.25,-24 27.25,-20.5 27.25,-27.5"/>
</g>
<!-- :data:coverart&#45;&gt;:data:database -->
<g id="edge29" class="edge">
<title>:data:coverart&#45;&gt;:data:database</title>
<path fill="none" stroke="#ff9ab1" stroke-dasharray="1,5" d="M214.47,-548.09C214.47,-548.09 214.47,-456.91 214.47,-456.91"/>
<polygon fill="#ff9ab1" stroke="#ff9ab1" points="217.97,-456.91 214.47,-446.91 210.97,-456.91 217.97,-456.91"/>
</g>
<!-- :data:coverart&#45;&gt;:data:musicbrainz -->
<g id="edge28" class="edge">
<title>:data:coverart&#45;&gt;:data:musicbrainz</title>
<path fill="none" stroke="#ff9ab1" stroke-dasharray="1,5" d="M138.42,-556.88C138.42,-556.88 138.42,-320.04 138.42,-320.04"/>
<polygon fill="#ff9ab1" stroke="#ff9ab1" points="141.92,-320.04 138.42,-310.04 134.92,-320.04 141.92,-320.04"/>
</g>
<!-- :data:coverart&#45;&gt;:core:logging:api -->
<g id="edge25" class="edge">
<title>:data:coverart&#45;&gt;:core:logging:api</title>
<path fill="none" stroke="black" stroke-dasharray="1,5" d="M132.72,-560C80.15,-560 18,-560 18,-560 18,-560 18,-155 18,-155 18,-155 19.1,-155 19.1,-155"/>
<polygon fill="black" stroke="black" points="19.04,-158.5 29.04,-155 19.04,-151.5 19.04,-158.5"/>
</g>
<!-- :data:spotify&#45;&gt;:shared:domain -->
<g id="edge30" class="edge">
<title>:data:spotify&#45;&gt;:shared:domain</title>
<path fill="none" stroke="black" stroke-dasharray="1,5" d="M361.77,-283.43C361.77,-283.43 361.77,-172.88 361.77,-172.88"/>
<polygon fill="black" stroke="black" points="365.27,-172.88 361.77,-162.88 358.27,-172.88 365.27,-172.88"/>
</g>
<!-- :data:spotify&#45;&gt;:core:logging:api -->
<g id="edge31" class="edge">
<title>:data:spotify&#45;&gt;:core:logging:api</title>
<path fill="none" stroke="black" stroke-dasharray="1,5" d="M292.87,-273.89C292.87,-235.41 292.87,-149 292.87,-149 292.87,-149 211.13,-149 211.13,-149"/>
<polygon fill="black" stroke="black" points="211.13,-145.5 201.13,-149 211.13,-152.5 211.13,-145.5"/>
</g>
<!-- :ui:core&#45;&gt;:shared:domain -->
<g id="edge33" class="edge">
<title>:ui:core&#45;&gt;:shared:domain</title>
<path fill="none" stroke="black" stroke-dasharray="1,5" d="M549.4,-576C531.04,-576 512.96,-576 512.96,-576 512.96,-576 512.96,-171.96 512.96,-171.96"/>
<polygon fill="black" stroke="black" points="516.46,-171.96 512.96,-161.96 509.46,-171.96 516.46,-171.96"/>
</g>
<!-- :shared:strings -->
<g id="node14" class="node">
<title>:shared:strings</title>
<ellipse fill="#b59aff" stroke="black" cx="696.59" cy="-429" rx="81.49" ry="18"/>
<text text-anchor="middle" x="696.59" y="-425.3" font-family="Times,serif" font-size="14.00">:shared:strings</text>
</g>
<!-- :ui:core&#45;&gt;:shared:strings -->
<g id="edge32" class="edge">
<title>:ui:core&#45;&gt;:shared:strings</title>
<path fill="none" stroke="black" d="M624.22,-555.25C624.22,-555.25 624.22,-447.2 624.22,-447.2"/>
<polygon fill="black" stroke="black" points="627.72,-447.2 624.22,-437.2 620.72,-447.2 627.72,-447.2"/>
</g>
<!-- :core:logging:api&#45;&gt;:core:coroutines -->
<g id="edge34" class="edge">
<title>:core:logging:api&#45;&gt;:core:coroutines</title>
<path fill="none" stroke="black" d="M117.59,-136.81C117.59,-136.81 117.59,-46.27 117.59,-46.27"/>
<polygon fill="black" stroke="black" points="121.09,-46.27 117.59,-36.27 114.09,-46.27 121.09,-46.27"/>
</g>
</g>
</svg>
