<?xml version="1.0" encoding="UTF-8" standalone="no"?>
<!DOCTYPE svg PUBLIC "-//W3C//DTD SVG 1.1//EN"
 "http://www.w3.org/Graphics/SVG/1.1/DTD/svg11.dtd">
<!-- Generated by graphviz version 2.43.0 (0)
 -->
<!-- Title: %3 Pages: 1 -->
<svg width="1301pt" height="666pt"
 viewBox="0.00 0.00 1301.39 666.00" xmlns="http://www.w3.org/2000/svg" xmlns:xlink="http://www.w3.org/1999/xlink">
<g id="graph0" class="graph" transform="scale(1 1) rotate(0) translate(4 662)">
<title>%3</title>
<polygon fill="white" stroke="transparent" points="-4,4 -4,-662 1297.39,-662 1297.39,4 -4,4"/>
<text text-anchor="middle" x="646.69" y="-630" font-family="Times,serif" font-size="30.00">Dependencies</text>
<text text-anchor="middle" x="646.69" y="-597" font-family="Times,serif" font-size="30.00"> </text>
<!-- :shared:feature:history -->
<g id="node1" class="node">
<title>:shared:feature:history</title>
<polygon fill="#b59aff" stroke="black" points="524.24,-584 343.24,-584 343.24,-548 524.24,-548 524.24,-584"/>
<text text-anchor="middle" x="433.74" y="-562.3" font-family="Times,serif" font-size="14.00">:shared:feature:history</text>
</g>
<!-- :ui:test:image -->
<g id="node2" class="node">
<title>:ui:test:image</title>
<ellipse fill="#9affb5" stroke="black" cx="74.74" cy="-292" rx="74.99" ry="18"/>
<text text-anchor="middle" x="74.74" y="-288.3" font-family="Times,serif" font-size="14.00">:ui:test:image</text>
</g>
<!-- :shared:feature:history&#45;&gt;:ui:test:image -->
<g id="edge1" class="edge">
<title>:shared:feature:history&#45;&gt;:ui:test:image</title>
<path fill="none" stroke="#ff9ab1" stroke-dasharray="1,5" d="M342.76,-566C229.23,-566 49.83,-566 49.83,-566 49.83,-566 49.83,-319.14 49.83,-319.14"/>
<polygon fill="#ff9ab1" stroke="#ff9ab1" points="53.33,-319.14 49.83,-309.14 46.33,-319.14 53.33,-319.14"/>
</g>
<!-- :ui:test:screenshot -->
<g id="node3" class="node">
<title>:ui:test:screenshot</title>
<ellipse fill="#9affb5" stroke="black" cx="264.74" cy="-292" rx="96.68" ry="18"/>
<text text-anchor="middle" x="264.74" y="-288.3" font-family="Times,serif" font-size="14.00">:ui:test:screenshot</text>
</g>
<!-- :shared:feature:history&#45;&gt;:ui:test:screenshot -->
<g id="edge2" class="edge">
<title>:shared:feature:history&#45;&gt;:ui:test:screenshot</title>
<path fill="none" stroke="#ff9ab1" stroke-dasharray="1,5" d="M349.36,-547.6C349.36,-547.6 349.36,-310.98 349.36,-310.98"/>
<polygon fill="#ff9ab1" stroke="#ff9ab1" points="352.86,-310.98 349.36,-300.98 345.86,-310.98 352.86,-310.98"/>
</g>
<!-- :core:models -->
<g id="node4" class="node">
<title>:core:models</title>
<ellipse fill="#b59aff" stroke="black" cx="904.74" cy="-18" rx="69.59" ry="18"/>
<text text-anchor="middle" x="904.74" y="-14.3" font-family="Times,serif" font-size="14.00">:core:models</text>
</g>
<!-- :shared:feature:history&#45;&gt;:core:models -->
<g id="edge3" class="edge">
<title>:shared:feature:history&#45;&gt;:core:models</title>
<path fill="none" stroke="black" stroke-dasharray="1,5" d="M501.5,-547.82C501.5,-451.99 501.5,-10 501.5,-10 501.5,-10 832.18,-10 832.18,-10"/>
<polygon fill="black" stroke="black" points="832.18,-13.5 842.18,-10 832.18,-6.5 832.18,-13.5"/>
</g>
<!-- :core:preferences -->
<g id="node5" class="node">
<title>:core:preferences</title>
<ellipse fill="#b59aff" stroke="black" cx="1201.74" cy="-292" rx="91.78" ry="18"/>
<text text-anchor="middle" x="1201.74" y="-288.3" font-family="Times,serif" font-size="14.00">:core:preferences</text>
</g>
<!-- :shared:feature:history&#45;&gt;:core:preferences -->
<g id="edge4" class="edge">
<title>:shared:feature:history&#45;&gt;:core:preferences</title>
<path fill="none" stroke="black" stroke-dasharray="1,5" d="M524.57,-572C733.87,-572 1232.29,-572 1232.29,-572 1232.29,-572 1232.29,-319.09 1232.29,-319.09"/>
<polygon fill="black" stroke="black" points="1235.79,-319.09 1232.29,-309.09 1228.79,-319.09 1235.79,-319.09"/>
</g>
<!-- :shared:domain -->
<g id="node6" class="node">
<title>:shared:domain</title>
<ellipse fill="#b59aff" stroke="black" cx="1015.74" cy="-155" rx="82.59" ry="18"/>
<text text-anchor="middle" x="1015.74" y="-151.3" font-family="Times,serif" font-size="14.00">:shared:domain</text>
</g>
<!-- :shared:feature:history&#45;&gt;:shared:domain -->
<g id="edge5" class="edge">
<title>:shared:feature:history&#45;&gt;:shared:domain</title>
<path fill="none" stroke="black" stroke-dasharray="1,5" d="M524.34,-560C700.22,-560 1070.79,-560 1070.79,-560 1070.79,-560 1070.79,-178.48 1070.79,-178.48"/>
<polygon fill="black" stroke="black" points="1074.29,-178.48 1070.79,-168.48 1067.29,-178.48 1074.29,-178.48"/>
</g>
<!-- :shared:strings -->
<g id="node7" class="node">
<title>:shared:strings</title>
<ellipse fill="#b59aff" stroke="black" cx="349.74" cy="-18" rx="81.49" ry="18"/>
<text text-anchor="middle" x="349.74" y="-14.3" font-family="Times,serif" font-size="14.00">:shared:strings</text>
</g>
<!-- :shared:feature:history&#45;&gt;:shared:strings -->
<g id="edge6" class="edge">
<title>:shared:feature:history&#45;&gt;:shared:strings</title>
<path fill="none" stroke="black" stroke-dasharray="1,5" d="M494.59,-547.86C494.59,-454.23 494.59,-30 494.59,-30 494.59,-30 420.33,-30 420.33,-30"/>
<polygon fill="black" stroke="black" points="420.33,-26.5 410.33,-30 420.33,-33.5 420.33,-26.5"/>
</g>
<!-- :ui:common -->
<g id="node8" class="node">
<title>:ui:common</title>
<ellipse fill="#b59aff" stroke="black" cx="572.74" cy="-429" rx="64.19" ry="18"/>
<text text-anchor="middle" x="572.74" y="-425.3" font-family="Times,serif" font-size="14.00">:ui:common</text>
</g>
<!-- :shared:feature:history&#45;&gt;:ui:common -->
<g id="edge7" class="edge">
<title>:shared:feature:history&#45;&gt;:ui:common</title>
<path fill="none" stroke="black" stroke-dasharray="1,5" d="M516.32,-547.81C516.32,-547.81 516.32,-447.71 516.32,-447.71"/>
<polygon fill="black" stroke="black" points="519.82,-447.71 516.32,-437.71 512.82,-447.71 519.82,-447.71"/>
</g>
<!-- :ui:core -->
<g id="node9" class="node">
<title>:ui:core</title>
<ellipse fill="#b59aff" stroke="black" cx="349.74" cy="-155" rx="45.49" ry="18"/>
<text text-anchor="middle" x="349.74" y="-151.3" font-family="Times,serif" font-size="14.00">:ui:core</text>
</g>
<!-- :shared:feature:history&#45;&gt;:ui:core -->
<g id="edge8" class="edge">
<title>:shared:feature:history&#45;&gt;:ui:core</title>
<path fill="none" stroke="black" stroke-dasharray="1,5" d="M367.66,-547.81C367.66,-547.81 367.66,-181.61 367.66,-181.61"/>
<polygon fill="black" stroke="black" points="371.16,-181.61 367.66,-171.61 364.16,-181.61 371.16,-181.61"/>
</g>
<!-- :ui:image -->
<g id="node10" class="node">
<title>:ui:image</title>
<ellipse fill="#b59aff" stroke="black" cx="433.74" cy="-292" rx="53.89" ry="18"/>
<text text-anchor="middle" x="433.74" y="-288.3" font-family="Times,serif" font-size="14.00">:ui:image</text>
</g>
<!-- :shared:feature:history&#45;&gt;:ui:image -->
<g id="edge9" class="edge">
<title>:shared:feature:history&#45;&gt;:ui:image</title>
<path fill="none" stroke="black" stroke-dasharray="1,5" d="M415.76,-547.6C415.76,-547.6 415.76,-319.26 415.76,-319.26"/>
<polygon fill="black" stroke="black" points="419.26,-319.26 415.76,-309.26 412.26,-319.26 419.26,-319.26"/>
</g>
<!-- :ui:test:screenshot&#45;&gt;:ui:core -->
<g id="edge10" class="edge">
<title>:ui:test:screenshot&#45;&gt;:ui:core</title>
<path fill="none" stroke="black" stroke-dasharray="1,5" d="M332.92,-279.11C332.92,-279.11 332.92,-181.76 332.92,-181.76"/>
<polygon fill="black" stroke="black" points="336.42,-181.76 332.92,-171.76 329.42,-181.76 336.42,-181.76"/>
</g>
<!-- :core:preferences&#45;&gt;:core:models -->
<g id="edge12" class="edge">
<title>:core:preferences&#45;&gt;:core:models</title>
<path fill="none" stroke="black" stroke-dasharray="1,5" d="M1110,-292C1106.34,-292 1104.19,-292 1104.19,-292 1104.19,-292 1104.19,-18 1104.19,-18 1104.19,-18 984.5,-18 984.5,-18"/>
<polygon fill="black" stroke="black" points="984.5,-14.5 974.5,-18 984.5,-21.5 984.5,-14.5"/>
</g>
<!-- :core:coroutines -->
<g id="node11" class="node">
<title>:core:coroutines</title>
<ellipse fill="#b59aff" stroke="black" cx="1201.74" cy="-155" rx="85.29" ry="18"/>
<text text-anchor="middle" x="1201.74" y="-151.3" font-family="Times,serif" font-size="14.00">:core:coroutines</text>
</g>
<!-- :core:preferences&#45;&gt;:core:coroutines -->
<g id="edge11" class="edge">
<title>:core:preferences&#45;&gt;:core:coroutines</title>
<path fill="none" stroke="black" stroke-dasharray="1,5" d="M1201.74,-273.81C1201.74,-273.81 1201.74,-183.27 1201.74,-183.27"/>
<polygon fill="black" stroke="black" points="1205.24,-183.27 1201.74,-173.27 1198.24,-183.27 1205.24,-183.27"/>
</g>
<!-- :shared:domain&#45;&gt;:core:models -->
<g id="edge13" class="edge">
<title>:shared:domain&#45;&gt;:core:models</title>
<path fill="none" stroke="black" stroke-dasharray="1,5" d="M953.74,-142.84C953.74,-142.84 953.74,-41.13 953.74,-41.13"/>
<polygon fill="black" stroke="black" points="957.24,-41.13 953.74,-31.13 950.24,-41.13 957.24,-41.13"/>
</g>
<!-- :ui:common&#45;&gt;:ui:test:image -->
<g id="edge14" class="edge">
<title>:ui:common&#45;&gt;:ui:test:image</title>
<path fill="none" stroke="#ff9ab1" stroke-dasharray="1,5" d="M518.94,-439C394.94,-439 99.66,-439 99.66,-439 99.66,-439 99.66,-319.15 99.66,-319.15"/>
<polygon fill="#ff9ab1" stroke="#ff9ab1" points="103.16,-319.15 99.66,-309.15 96.16,-319.15 103.16,-319.15"/>
</g>
<!-- :ui:common&#45;&gt;:ui:test:screenshot -->
<g id="edge15" class="edge">
<title>:ui:common&#45;&gt;:ui:test:screenshot</title>
<path fill="none" stroke="#ff9ab1" stroke-dasharray="1,5" d="M509.02,-432C444.91,-432 355.47,-432 355.47,-432 355.47,-432 355.47,-308.38 355.47,-308.38"/>
<polygon fill="#ff9ab1" stroke="#ff9ab1" points="358.97,-308.38 355.47,-298.38 351.97,-308.38 358.97,-308.38"/>
</g>
<!-- :ui:common&#45;&gt;:core:models -->
<g id="edge16" class="edge">
<title>:ui:common&#45;&gt;:core:models</title>
<path fill="none" stroke="black" d="M564.28,-410.94C564.28,-331.26 564.28,-15 564.28,-15 564.28,-15 825.84,-15 825.84,-15"/>
<polygon fill="black" stroke="black" points="825.84,-18.5 835.84,-15 825.84,-11.5 825.84,-18.5"/>
</g>
<!-- :ui:common&#45;&gt;:core:preferences -->
<g id="edge19" class="edge">
<title>:ui:common&#45;&gt;:core:preferences</title>
<path fill="none" stroke="black" stroke-dasharray="1,5" d="M628.51,-438C777.07,-438 1171.2,-438 1171.2,-438 1171.2,-438 1171.2,-319.03 1171.2,-319.03"/>
<polygon fill="black" stroke="black" points="1174.7,-319.03 1171.2,-309.03 1167.7,-319.03 1174.7,-319.03"/>
</g>
<!-- :ui:common&#45;&gt;:shared:domain -->
<g id="edge21" class="edge">
<title>:ui:common&#45;&gt;:shared:domain</title>
<path fill="none" stroke="black" stroke-dasharray="1,5" d="M637.18,-429C766.05,-429 1043.29,-429 1043.29,-429 1043.29,-429 1043.29,-182.14 1043.29,-182.14"/>
<polygon fill="black" stroke="black" points="1046.79,-182.14 1043.29,-172.14 1039.79,-182.14 1046.79,-182.14"/>
</g>
<!-- :ui:common&#45;&gt;:shared:strings -->
<g id="edge22" class="edge">
<title>:ui:common&#45;&gt;:shared:strings</title>
<path fill="none" stroke="black" stroke-dasharray="1,5" d="M536.34,-414.14C536.34,-341.26 536.34,-25 536.34,-25 536.34,-25 434.83,-25 434.83,-25"/>
<polygon fill="black" stroke="black" points="434.83,-21.5 424.83,-25 434.83,-28.5 434.83,-21.5"/>
</g>
<!-- :ui:common&#45;&gt;:ui:core -->
<g id="edge23" class="edge">
<title>:ui:common&#45;&gt;:ui:core</title>
<path fill="none" stroke="black" stroke-dasharray="1,5" d="M509.77,-425C451.47,-425 373.73,-425 373.73,-425 373.73,-425 373.73,-180.68 373.73,-180.68"/>
<polygon fill="black" stroke="black" points="377.23,-180.68 373.73,-170.68 370.23,-180.68 377.23,-180.68"/>
</g>
<!-- :ui:common&#45;&gt;:ui:image -->
<g id="edge24" class="edge">
<title>:ui:common&#45;&gt;:ui:image</title>
<path fill="none" stroke="black" stroke-dasharray="1,5" d="M521.77,-418C488.7,-418 451.73,-418 451.73,-418 451.73,-418 451.73,-318.99 451.73,-318.99"/>
<polygon fill="black" stroke="black" points="455.23,-318.99 451.73,-308.99 448.23,-318.99 455.23,-318.99"/>
</g>
<!-- :data:coverart -->
<g id="node12" class="node">
<title>:data:coverart</title>
<ellipse fill="#b59aff" stroke="black" cx="939.74" cy="-292" rx="76.09" ry="18"/>
<text text-anchor="middle" x="939.74" y="-288.3" font-family="Times,serif" font-size="14.00">:data:coverart</text>
</g>
<!-- :ui:common&#45;&gt;:data:coverart -->
<g id="edge17" class="edge">
<title>:ui:common&#45;&gt;:data:coverart</title>
<path fill="none" stroke="black" stroke-dasharray="1,5" d="M628.48,-420C731.15,-420 939.74,-420 939.74,-420 939.74,-420 939.74,-320.07 939.74,-320.07"/>
<polygon fill="black" stroke="black" points="943.24,-320.07 939.74,-310.07 936.24,-320.07 943.24,-320.07"/>
</g>
<!-- :data:musicbrainz -->
<g id="node13" class="node">
<title>:data:musicbrainz</title>
<ellipse fill="#b59aff" stroke="black" cx="713.74" cy="-292" rx="93.68" ry="18"/>
<text text-anchor="middle" x="713.74" y="-288.3" font-family="Times,serif" font-size="14.00">:data:musicbrainz</text>
</g>
<!-- :ui:common&#45;&gt;:data:musicbrainz -->
<g id="edge18" class="edge">
<title>:ui:common&#45;&gt;:data:musicbrainz</title>
<path fill="none" stroke="black" stroke-dasharray="1,5" d="M628.62,-420.01C628.62,-420.01 628.62,-309.81 628.62,-309.81"/>
<polygon fill="black" stroke="black" points="632.12,-309.81 628.62,-299.81 625.12,-309.81 632.12,-309.81"/>
</g>
<!-- :core:logging:api -->
<g id="node14" class="node">
<title>:core:logging:api</title>
<ellipse fill="#b59aff" stroke="black" cx="788.74" cy="-155" rx="88.28" ry="18"/>
<text text-anchor="middle" x="788.74" y="-151.3" font-family="Times,serif" font-size="14.00">:core:logging:api</text>
</g>
<!-- :ui:common&#45;&gt;:core:logging:api -->
<g id="edge20" class="edge">
<title>:ui:common&#45;&gt;:core:logging:api</title>
<path fill="none" stroke="black" stroke-dasharray="1,5" d="M592.21,-411.44C592.21,-350.97 592.21,-155 592.21,-155 592.21,-155 690.25,-155 690.25,-155"/>
<polygon fill="black" stroke="black" points="690.25,-158.5 700.25,-155 690.25,-151.5 690.25,-158.5"/>
</g>
<!-- :ui:core&#45;&gt;:shared:strings -->
<g id="edge25" class="edge">
<title>:ui:core&#45;&gt;:shared:strings</title>
<path fill="none" stroke="black" d="M349.74,-136.81C349.74,-136.81 349.74,-46.27 349.74,-46.27"/>
<polygon fill="black" stroke="black" points="353.24,-46.27 349.74,-36.27 346.24,-46.27 353.24,-46.27"/>
</g>
<!-- :ui:image&#45;&gt;:core:models -->
<g id="edge26" class="edge">
<title>:ui:image&#45;&gt;:core:models</title>
<path fill="none" stroke="black" stroke-dasharray="1,5" d="M459.34,-275.75C459.34,-215.03 459.34,-5 459.34,-5 459.34,-5 846.23,-5 846.23,-5"/>
<polygon fill="black" stroke="black" points="846.23,-8.5 856.23,-5 846.23,-1.5 846.23,-8.5"/>
</g>
<!-- :ui:image&#45;&gt;:ui:core -->
<g id="edge27" class="edge">
<title>:ui:image&#45;&gt;:ui:core</title>
<path fill="none" stroke="black" stroke-dasharray="1,5" d="M387.52,-282.58C387.52,-282.58 387.52,-175.22 387.52,-175.22"/>
<polygon fill="black" stroke="black" points="391.02,-175.22 387.52,-165.22 384.02,-175.22 391.02,-175.22"/>
</g>
<!-- :data:coverart&#45;&gt;:core:models -->
<g id="edge29" class="edge">
<title>:data:coverart&#45;&gt;:core:models</title>
<path fill="none" stroke="black" stroke-dasharray="1,5" d="M905.17,-275.68C905.17,-275.68 905.17,-46.36 905.17,-46.36"/>
<polygon fill="black" stroke="black" points="908.67,-46.36 905.17,-36.36 901.67,-46.36 908.67,-46.36"/>
</g>
<!-- :data:coverart&#45;&gt;:shared:domain -->
<g id="edge30" class="edge">
<title>:data:coverart&#45;&gt;:shared:domain</title>
<path fill="none" stroke="black" stroke-dasharray="1,5" d="M974.49,-275.75C974.49,-275.75 974.49,-180.81 974.49,-180.81"/>
<polygon fill="black" stroke="black" points="977.99,-180.81 974.49,-170.81 970.99,-180.81 977.99,-180.81"/>
</g>
<!-- :data:coverart&#45;&gt;:core:logging:api -->
<g id="edge28" class="edge">
<title>:data:coverart&#45;&gt;:core:logging:api</title>
<path fill="none" stroke="black" stroke-dasharray="1,5" d="M870.42,-284.24C870.42,-284.24 870.42,-172.01 870.42,-172.01"/>
<polygon fill="black" stroke="black" points="873.92,-172.01 870.42,-162.01 866.92,-172.01 873.92,-172.01"/>
</g>
<!-- :data:musicbrainz&#45;&gt;:core:models -->
<g id="edge32" class="edge">
<title>:data:musicbrainz&#45;&gt;:core:models</title>
<path fill="none" stroke="black" stroke-dasharray="1,5" d="M660.25,-276.99C660.25,-219.97 660.25,-20 660.25,-20 660.25,-20 825.34,-20 825.34,-20"/>
<polygon fill="black" stroke="black" points="825.34,-23.5 835.34,-20 825.34,-16.5 825.34,-23.5"/>
</g>
<!-- :data:musicbrainz&#45;&gt;:core:logging:api -->
<g id="edge31" class="edge">
<title>:data:musicbrainz&#45;&gt;:core:logging:api</title>
<path fill="none" stroke="black" stroke-dasharray="1,5" d="M753.84,-275.47C753.84,-275.47 753.84,-181.58 753.84,-181.58"/>
<polygon fill="black" stroke="black" points="757.34,-181.58 753.84,-171.58 750.34,-181.58 757.34,-181.58"/>
</g>
</g>
</svg>
