<?xml version="1.0" encoding="UTF-8" standalone="no"?>
<!DOCTYPE svg PUBLIC "-//W3C//DTD SVG 1.1//EN"
 "http://www.w3.org/Graphics/SVG/1.1/DTD/svg11.dtd">
<!-- Generated by graphviz version 2.43.0 (0)
 -->
<!-- Title: %3 Pages: 1 -->
<svg width="1301pt" height="666pt"
 viewBox="0.00 0.00 1301.39 666.00" xmlns="http://www.w3.org/2000/svg" xmlns:xlink="http://www.w3.org/1999/xlink">
<g id="graph0" class="graph" transform="scale(1 1) rotate(0) translate(4 662)">
<title>%3</title>
<polygon fill="white" stroke="transparent" points="-4,4 -4,-662 1297.39,-662 1297.39,4 -4,4"/>
<text text-anchor="middle" x="646.69" y="-630" font-family="Times,serif" font-size="30.00">Dependencies</text>
<text text-anchor="middle" x="646.69" y="-597" font-family="Times,serif" font-size="30.00"> </text>
<!-- :shared:feature:history -->
<g id="node1" class="node">
<title>:shared:feature:history</title>
<polygon fill="#b59aff" stroke="black" points="613.74,-584 253.74,-584 253.74,-548 613.74,-548 613.74,-584"/>
<text text-anchor="middle" x="433.74" y="-562.3" font-family="Times,serif" font-size="14.00">:shared:feature:history</text>
</g>
<!-- :ui:test:image -->
<g id="node2" class="node">
<title>:ui:test:image</title>
<ellipse fill="#9affb5" stroke="black" cx="74.74" cy="-292" rx="74.99" ry="18"/>
<text text-anchor="middle" x="74.74" y="-288.3" font-family="Times,serif" font-size="14.00">:ui:test:image</text>
</g>
<!-- :shared:feature:history&#45;&gt;:ui:test:image -->
<g id="edge1" class="edge">
<title>:shared:feature:history&#45;&gt;:ui:test:image</title>
<path fill="none" stroke="#ff9ab1" stroke-dasharray="1,5" d="M253.59,-566C153.84,-566 49.83,-566 49.83,-566 49.83,-566 49.83,-319.14 49.83,-319.14"/>
<polygon fill="#ff9ab1" stroke="#ff9ab1" points="53.33,-319.14 49.83,-309.14 46.33,-319.14 53.33,-319.14"/>
</g>
<!-- :ui:test:screenshot -->
<g id="node3" class="node">
<title>:ui:test:screenshot</title>
<ellipse fill="#9affb5" stroke="black" cx="264.74" cy="-292" rx="96.68" ry="18"/>
<text text-anchor="middle" x="264.74" y="-288.3" font-family="Times,serif" font-size="14.00">:ui:test:screenshot</text>
</g>
<!-- :shared:feature:history&#45;&gt;:ui:test:screenshot -->
<g id="edge2" class="edge">
<title>:shared:feature:history&#45;&gt;:ui:test:screenshot</title>
<path fill="none" stroke="#ff9ab1" stroke-dasharray="1,5" d="M289.69,-547.6C289.69,-547.6 289.69,-319.61 289.69,-319.61"/>
<polygon fill="#ff9ab1" stroke="#ff9ab1" points="293.19,-319.61 289.69,-309.61 286.19,-319.61 293.19,-319.61"/>
</g>
<!-- :core:models -->
<g id="node4" class="node">
<title>:core:models</title>
<ellipse fill="#b59aff" stroke="black" cx="943.74" cy="-18" rx="69.59" ry="18"/>
<text text-anchor="middle" x="943.74" y="-14.3" font-family="Times,serif" font-size="14.00">:core:models</text>
</g>
<!-- :shared:feature:history&#45;&gt;:core:models -->
<g id="edge3" class="edge">
<title>:shared:feature:history&#45;&gt;:core:models</title>
<path fill="none" stroke="black" stroke-dasharray="1,5" d="M501.5,-547.82C501.5,-451.99 501.5,-10 501.5,-10 501.5,-10 871.32,-10 871.32,-10"/>
<polygon fill="black" stroke="black" points="871.32,-13.5 881.32,-10 871.32,-6.5 871.32,-13.5"/>
</g>
<!-- :core:preferences -->
<g id="node5" class="node">
<title>:core:preferences</title>
<ellipse fill="#b59aff" stroke="black" cx="1201.74" cy="-292" rx="91.78" ry="18"/>
<text text-anchor="middle" x="1201.74" y="-288.3" font-family="Times,serif" font-size="14.00">:core:preferences</text>
</g>
<!-- :shared:feature:history&#45;&gt;:core:preferences -->
<g id="edge4" class="edge">
<title>:shared:feature:history&#45;&gt;:core:preferences</title>
<path fill="none" stroke="black" stroke-dasharray="1,5" d="M613.95,-572C849.47,-572 1232.29,-572 1232.29,-572 1232.29,-572 1232.29,-319.09 1232.29,-319.09"/>
<polygon fill="black" stroke="black" points="1235.79,-319.09 1232.29,-309.09 1228.79,-319.09 1235.79,-319.09"/>
</g>
<!-- :domain -->
<g id="node6" class="node">
<title>:domain</title>
<ellipse fill="#b59aff" stroke="black" cx="1019.74" cy="-155" rx="48.19" ry="18"/>
<text text-anchor="middle" x="1019.74" y="-151.3" font-family="Times,serif" font-size="14.00">:domain</text>
</g>
<!-- :shared:feature:history&#45;&gt;:domain -->
<g id="edge5" class="edge">
<title>:shared:feature:history&#45;&gt;:domain</title>
<path fill="none" stroke="black" stroke-dasharray="1,5" d="M613.79,-560C795.83,-560 1050.49,-560 1050.49,-560 1050.49,-560 1050.49,-178.94 1050.49,-178.94"/>
<polygon fill="black" stroke="black" points="1053.99,-178.94 1050.49,-168.94 1046.99,-178.94 1053.99,-178.94"/>
</g>
<!-- :strings -->
<g id="node7" class="node">
<title>:strings</title>
<ellipse fill="#b59aff" stroke="black" cx="349.74" cy="-18" rx="46.29" ry="18"/>
<text text-anchor="middle" x="349.74" y="-14.3" font-family="Times,serif" font-size="14.00">:strings</text>
</g>
<!-- :shared:feature:history&#45;&gt;:strings -->
<g id="edge6" class="edge">
<title>:shared:feature:history&#45;&gt;:strings</title>
<path fill="none" stroke="black" stroke-dasharray="1,5" d="M494.59,-547.86C494.59,-454.23 494.59,-30 494.59,-30 494.59,-30 394.44,-30 394.44,-30"/>
<polygon fill="black" stroke="black" points="394.44,-26.5 384.44,-30 394.44,-33.5 394.44,-26.5"/>
</g>
<!-- :ui:common -->
<g id="node8" class="node">
<title>:ui:common</title>
<ellipse fill="#b59aff" stroke="black" cx="572.74" cy="-429" rx="64.19" ry="18"/>
<text text-anchor="middle" x="572.74" y="-425.3" font-family="Times,serif" font-size="14.00">:ui:common</text>
</g>
<!-- :shared:feature:history&#45;&gt;:ui:common -->
<g id="edge7" class="edge">
<title>:shared:feature:history&#45;&gt;:ui:common</title>
<path fill="none" stroke="black" stroke-dasharray="1,5" d="M561.07,-547.81C561.07,-547.81 561.07,-456.83 561.07,-456.83"/>
<polygon fill="black" stroke="black" points="564.57,-456.83 561.07,-446.83 557.57,-456.83 564.57,-456.83"/>
</g>
<!-- :ui:core -->
<g id="node9" class="node">
<title>:ui:core</title>
<ellipse fill="#b59aff" stroke="black" cx="349.74" cy="-155" rx="45.49" ry="18"/>
<text text-anchor="middle" x="349.74" y="-151.3" font-family="Times,serif" font-size="14.00">:ui:core</text>
</g>
<!-- :shared:feature:history&#45;&gt;:ui:core -->
<g id="edge8" class="edge">
<title>:shared:feature:history&#45;&gt;:ui:core</title>
<path fill="none" stroke="black" stroke-dasharray="1,5" d="M367.66,-547.81C367.66,-547.81 367.66,-181.61 367.66,-181.61"/>
<polygon fill="black" stroke="black" points="371.16,-181.61 367.66,-171.61 364.16,-181.61 371.16,-181.61"/>
</g>
<!-- :ui:image -->
<g id="node10" class="node">
<title>:ui:image</title>
<ellipse fill="#b59aff" stroke="black" cx="433.74" cy="-292" rx="53.89" ry="18"/>
<text text-anchor="middle" x="433.74" y="-288.3" font-family="Times,serif" font-size="14.00">:ui:image</text>
</g>
<!-- :shared:feature:history&#45;&gt;:ui:image -->
<g id="edge9" class="edge">
<title>:shared:feature:history&#45;&gt;:ui:image</title>
<path fill="none" stroke="black" stroke-dasharray="1,5" d="M415.76,-547.6C415.76,-547.6 415.76,-319.26 415.76,-319.26"/>
<polygon fill="black" stroke="black" points="419.26,-319.26 415.76,-309.26 412.26,-319.26 419.26,-319.26"/>
</g>
<!-- :ui:test:screenshot&#45;&gt;:ui:core -->
<g id="edge10" class="edge">
<title>:ui:test:screenshot&#45;&gt;:ui:core</title>
<path fill="none" stroke="red" d="M332.92,-279.11C332.92,-279.11 332.92,-181.76 332.92,-181.76"/>
<polygon fill="red" stroke="red" points="336.42,-181.76 332.92,-171.76 329.42,-181.76 336.42,-181.76"/>
</g>
<!-- :core:preferences&#45;&gt;:core:models -->
<g id="edge12" class="edge">
<title>:core:preferences&#45;&gt;:core:models</title>
<path fill="none" stroke="black" stroke-dasharray="1,5" d="M1274.64,-280.92C1274.64,-229.66 1274.64,-18 1274.64,-18 1274.64,-18 1023.51,-18 1023.51,-18"/>
<polygon fill="black" stroke="black" points="1023.51,-14.5 1013.51,-18 1023.51,-21.5 1023.51,-14.5"/>
</g>
<!-- :core:coroutines -->
<g id="node11" class="node">
<title>:core:coroutines</title>
<ellipse fill="#b59aff" stroke="black" cx="1170.74" cy="-155" rx="85.29" ry="18"/>
<text text-anchor="middle" x="1170.74" y="-151.3" font-family="Times,serif" font-size="14.00">:core:coroutines</text>
</g>
<!-- :core:preferences&#45;&gt;:core:coroutines -->
<g id="edge11" class="edge">
<title>:core:preferences&#45;&gt;:core:coroutines</title>
<path fill="none" stroke="black" stroke-dasharray="1,5" d="M1182.99,-274.37C1182.99,-274.37 1182.99,-183 1182.99,-183"/>
<polygon fill="black" stroke="black" points="1186.49,-183 1182.99,-173 1179.49,-183 1186.49,-183"/>
</g>
<!-- :domain&#45;&gt;:core:models -->
<g id="edge13" class="edge">
<title>:domain&#45;&gt;:core:models</title>
<path fill="none" stroke="black" stroke-dasharray="1,5" d="M992.47,-140.08C992.47,-140.08 992.47,-40.88 992.47,-40.88"/>
<polygon fill="black" stroke="black" points="995.97,-40.88 992.47,-30.88 988.97,-40.88 995.97,-40.88"/>
</g>
<!-- :ui:common&#45;&gt;:ui:test:image -->
<g id="edge14" class="edge">
<title>:ui:common&#45;&gt;:ui:test:image</title>
<path fill="none" stroke="#ff9ab1" d="M518.94,-439C394.94,-439 99.66,-439 99.66,-439 99.66,-439 99.66,-319.15 99.66,-319.15"/>
<polygon fill="#ff9ab1" stroke="#ff9ab1" points="103.16,-319.15 99.66,-309.15 96.16,-319.15 103.16,-319.15"/>
</g>
<!-- :ui:common&#45;&gt;:ui:test:screenshot -->
<g id="edge15" class="edge">
<title>:ui:common&#45;&gt;:ui:test:screenshot</title>
<path fill="none" stroke="#ff9ab1" d="M509.11,-432C435.89,-432 325.64,-432 325.64,-432 325.64,-432 325.64,-316.19 325.64,-316.19"/>
<polygon fill="#ff9ab1" stroke="#ff9ab1" points="329.14,-316.19 325.64,-306.19 322.14,-316.19 329.14,-316.19"/>
</g>
<!-- :ui:common&#45;&gt;:core:models -->
<g id="edge16" class="edge">
<title>:ui:common&#45;&gt;:core:models</title>
<path fill="none" stroke="black" d="M564.28,-410.94C564.28,-331.26 564.28,-15 564.28,-15 564.28,-15 865.02,-15 865.02,-15"/>
<polygon fill="black" stroke="black" points="865.02,-18.5 875.02,-15 865.02,-11.5 865.02,-18.5"/>
</g>
<!-- :ui:common&#45;&gt;:core:preferences -->
<g id="edge19" class="edge">
<title>:ui:common&#45;&gt;:core:preferences</title>
<path fill="none" stroke="black" stroke-dasharray="1,5" d="M628.51,-438C777.07,-438 1171.2,-438 1171.2,-438 1171.2,-438 1171.2,-319.03 1171.2,-319.03"/>
<polygon fill="black" stroke="black" points="1174.7,-319.03 1171.2,-309.03 1167.7,-319.03 1174.7,-319.03"/>
</g>
<!-- :ui:common&#45;&gt;:domain -->
<g id="edge21" class="edge">
<title>:ui:common&#45;&gt;:domain</title>
<path fill="none" stroke="black" stroke-dasharray="1,5" d="M637.24,-429C763.95,-429 1033.14,-429 1033.14,-429 1033.14,-429 1033.14,-182.56 1033.14,-182.56"/>
<polygon fill="black" stroke="black" points="1036.64,-182.56 1033.14,-172.56 1029.64,-182.56 1036.64,-182.56"/>
</g>
<!-- :ui:common&#45;&gt;:strings -->
<g id="edge22" class="edge">
<title>:ui:common&#45;&gt;:strings</title>
<path fill="none" stroke="black" stroke-dasharray="1,5" d="M536.34,-414.14C536.34,-341.26 536.34,-25 536.34,-25 536.34,-25 402.55,-25 402.55,-25"/>
<polygon fill="black" stroke="black" points="402.55,-21.5 392.55,-25 402.55,-28.5 402.55,-21.5"/>
</g>
<!-- :ui:common&#45;&gt;:ui:core -->
<g id="edge23" class="edge">
<title>:ui:common&#45;&gt;:ui:core</title>
<path fill="none" stroke="red" d="M509.77,-425C451.47,-425 373.73,-425 373.73,-425 373.73,-425 373.73,-180.68 373.73,-180.68"/>
<polygon fill="red" stroke="red" points="377.23,-180.68 373.73,-170.68 370.23,-180.68 377.23,-180.68"/>
</g>
<!-- :ui:common&#45;&gt;:ui:image -->
<g id="edge24" class="edge">
<title>:ui:common&#45;&gt;:ui:image</title>
<path fill="none" stroke="red" d="M521.77,-418C488.7,-418 451.73,-418 451.73,-418 451.73,-418 451.73,-318.99 451.73,-318.99"/>
<polygon fill="red" stroke="red" points="455.23,-318.99 451.73,-308.99 448.23,-318.99 455.23,-318.99"/>
</g>
<!-- :data:coverart -->
<g id="node12" class="node">
<title>:data:coverart</title>
<ellipse fill="#b59aff" stroke="black" cx="939.74" cy="-292" rx="76.09" ry="18"/>
<text text-anchor="middle" x="939.74" y="-288.3" font-family="Times,serif" font-size="14.00">:data:coverart</text>
</g>
<!-- :ui:common&#45;&gt;:data:coverart -->
<g id="edge17" class="edge">
<title>:ui:common&#45;&gt;:data:coverart</title>
<path fill="none" stroke="orange" d="M628.48,-420C731.15,-420 939.74,-420 939.74,-420 939.74,-420 939.74,-320.07 939.74,-320.07"/>
<polygon fill="orange" stroke="orange" points="943.24,-320.07 939.74,-310.07 936.24,-320.07 943.24,-320.07"/>
</g>
<!-- :data:musicbrainz -->
<g id="node13" class="node">
<title>:data:musicbrainz</title>
<ellipse fill="#b59aff" stroke="black" cx="713.74" cy="-292" rx="93.68" ry="18"/>
<text text-anchor="middle" x="713.74" y="-288.3" font-family="Times,serif" font-size="14.00">:data:musicbrainz</text>
</g>
<!-- :ui:common&#45;&gt;:data:musicbrainz -->
<g id="edge18" class="edge">
<title>:ui:common&#45;&gt;:data:musicbrainz</title>
<path fill="none" stroke="orange" d="M628.62,-420.01C628.62,-420.01 628.62,-309.81 628.62,-309.81"/>
<polygon fill="orange" stroke="orange" points="632.12,-309.81 628.62,-299.81 625.12,-309.81 632.12,-309.81"/>
</g>
<!-- :core:logging:api -->
<g id="node14" class="node">
<title>:core:logging:api</title>
<ellipse fill="#b59aff" stroke="black" cx="827.74" cy="-155" rx="88.28" ry="18"/>
<text text-anchor="middle" x="827.74" y="-151.3" font-family="Times,serif" font-size="14.00">:core:logging:api</text>
</g>
<!-- :ui:common&#45;&gt;:core:logging:api -->
<g id="edge20" class="edge">
<title>:ui:common&#45;&gt;:core:logging:api</title>
<path fill="none" stroke="black" stroke-dasharray="1,5" d="M592.21,-411.44C592.21,-350.97 592.21,-155 592.21,-155 592.21,-155 729.04,-155 729.04,-155"/>
<polygon fill="black" stroke="black" points="729.04,-158.5 739.04,-155 729.04,-151.5 729.04,-158.5"/>
</g>
<!-- :ui:core&#45;&gt;:strings -->
<g id="edge25" class="edge">
<title>:ui:core&#45;&gt;:strings</title>
<path fill="none" stroke="black" d="M349.74,-136.81C349.74,-136.81 349.74,-46.27 349.74,-46.27"/>
<polygon fill="black" stroke="black" points="353.24,-46.27 349.74,-36.27 346.24,-46.27 353.24,-46.27"/>
</g>
<!-- :ui:image&#45;&gt;:core:models -->
<g id="edge26" class="edge">
<title>:ui:image&#45;&gt;:core:models</title>
<path fill="none" stroke="black" stroke-dasharray="1,5" d="M441.79,-274.05C441.79,-211.22 441.79,-5 441.79,-5 441.79,-5 885.61,-5 885.61,-5"/>
<polygon fill="black" stroke="black" points="885.61,-8.5 895.61,-5 885.61,-1.5 885.61,-8.5"/>
</g>
<!-- :ui:image&#45;&gt;:ui:core -->
<g id="edge27" class="edge">
<title>:ui:image&#45;&gt;:ui:core</title>
<path fill="none" stroke="red" d="M387.52,-282.58C387.52,-282.58 387.52,-175.22 387.52,-175.22"/>
<polygon fill="red" stroke="red" points="391.02,-175.22 387.52,-165.22 384.02,-175.22 391.02,-175.22"/>
</g>
<!-- :data:coverart&#45;&gt;:core:models -->
<g id="edge29" class="edge">
<title>:data:coverart&#45;&gt;:core:models</title>
<path fill="none" stroke="black" stroke-dasharray="1,5" d="M943.89,-274.02C943.89,-274.02 943.89,-46.04 943.89,-46.04"/>
<polygon fill="black" stroke="black" points="947.39,-46.04 943.89,-36.04 940.39,-46.04 947.39,-46.04"/>
</g>
<!-- :data:coverart&#45;&gt;:domain -->
<g id="edge30" class="edge">
<title>:data:coverart&#45;&gt;:domain</title>
<path fill="none" stroke="black" stroke-dasharray="1,5" d="M993.72,-279.11C993.72,-279.11 993.72,-180.45 993.72,-180.45"/>
<polygon fill="black" stroke="black" points="997.22,-180.45 993.72,-170.45 990.22,-180.45 997.22,-180.45"/>
</g>
<!-- :data:coverart&#45;&gt;:core:logging:api -->
<g id="edge28" class="edge">
<title>:data:coverart&#45;&gt;:core:logging:api</title>
<path fill="none" stroke="black" stroke-dasharray="1,5" d="M889.92,-278.36C889.92,-278.36 889.92,-178.18 889.92,-178.18"/>
<polygon fill="black" stroke="black" points="893.42,-178.18 889.92,-168.18 886.42,-178.18 893.42,-178.18"/>
</g>
<!-- :data:musicbrainz&#45;&gt;:core:models -->
<g id="edge32" class="edge">
<title>:data:musicbrainz&#45;&gt;:core:models</title>
<path fill="none" stroke="black" stroke-dasharray="1,5" d="M679.75,-274.99C679.75,-215.44 679.75,-20 679.75,-20 679.75,-20 864.38,-20 864.38,-20"/>
<polygon fill="black" stroke="black" points="864.38,-23.5 874.38,-20 864.38,-16.5 864.38,-23.5"/>
</g>
<!-- :data:musicbrainz&#45;&gt;:core:logging:api -->
<g id="edge31" class="edge">
<title>:data:musicbrainz&#45;&gt;:core:logging:api</title>
<path fill="none" stroke="black" stroke-dasharray="1,5" d="M773.34,-278.11C773.34,-278.11 773.34,-179.34 773.34,-179.34"/>
<polygon fill="black" stroke="black" points="776.84,-179.34 773.34,-169.34 769.84,-179.34 776.84,-179.34"/>
</g>
</g>
</svg>
