<?xml version="1.0" encoding="UTF-8" standalone="no"?>
<!DOCTYPE svg PUBLIC "-//W3C//DTD SVG 1.1//EN"
 "http://www.w3.org/Graphics/SVG/1.1/DTD/svg11.dtd">
<!-- Generated by graphviz version 2.43.0 (0)
 -->
<!-- Title: %3 Pages: 1 -->
<svg width="980pt" height="1077pt"
 viewBox="0.00 0.00 980.38 1077.00" xmlns="http://www.w3.org/2000/svg" xmlns:xlink="http://www.w3.org/1999/xlink">
<g id="graph0" class="graph" transform="scale(1 1) rotate(0) translate(4 1073)">
<title>%3</title>
<polygon fill="white" stroke="transparent" points="-4,4 -4,-1073 976.38,-1073 976.38,4 -4,4"/>
<text text-anchor="middle" x="486.19" y="-1041" font-family="Times,serif" font-size="30.00">Dependencies</text>
<text text-anchor="middle" x="486.19" y="-1008" font-family="Times,serif" font-size="30.00"> </text>
<!-- :shared:feature:history -->
<g id="node1" class="node">
<title>:shared:feature:history</title>
<polygon fill="#b59aff" stroke="black" points="573.04,-995 392.04,-995 392.04,-959 573.04,-959 573.04,-995"/>
<text text-anchor="middle" x="482.54" y="-973.3" font-family="Times,serif" font-size="14.00">:shared:feature:history</text>
</g>
<!-- :test&#45;data -->
<g id="node2" class="node">
<title>:test&#45;data</title>
<ellipse fill="#b59aff" stroke="black" cx="411.54" cy="-703" rx="55.49" ry="18"/>
<text text-anchor="middle" x="411.54" y="-699.3" font-family="Times,serif" font-size="14.00">:test&#45;data</text>
</g>
<!-- :shared:feature:history&#45;&gt;:test&#45;data -->
<g id="edge1" class="edge">
<title>:shared:feature:history&#45;&gt;:test&#45;data</title>
<path fill="none" stroke="#ff9ab1" stroke-dasharray="1,5" d="M429.42,-958.6C429.42,-958.6 429.42,-730.26 429.42,-730.26"/>
<polygon fill="#ff9ab1" stroke="#ff9ab1" points="432.92,-730.26 429.42,-720.26 425.92,-730.26 432.92,-730.26"/>
</g>
<!-- :ui:test:screenshot -->
<g id="node3" class="node">
<title>:ui:test:screenshot</title>
<ellipse fill="#9affb5" stroke="black" cx="875.54" cy="-703" rx="96.68" ry="18"/>
<text text-anchor="middle" x="875.54" y="-699.3" font-family="Times,serif" font-size="14.00">:ui:test:screenshot</text>
</g>
<!-- :shared:feature:history&#45;&gt;:ui:test:screenshot -->
<g id="edge2" class="edge">
<title>:shared:feature:history&#45;&gt;:ui:test:screenshot</title>
<path fill="none" stroke="#ff9ab1" stroke-dasharray="1,5" d="M573.25,-977C698.15,-977 907.82,-977 907.82,-977 907.82,-977 907.82,-730.14 907.82,-730.14"/>
<polygon fill="#ff9ab1" stroke="#ff9ab1" points="911.32,-730.14 907.82,-720.14 904.32,-730.14 911.32,-730.14"/>
</g>
<!-- :ui:common -->
<g id="node4" class="node">
<title>:ui:common</title>
<ellipse fill="#b59aff" stroke="black" cx="578.54" cy="-840" rx="64.19" ry="18"/>
<text text-anchor="middle" x="578.54" y="-836.3" font-family="Times,serif" font-size="14.00">:ui:common</text>
</g>
<!-- :shared:feature:history&#45;&gt;:ui:common -->
<g id="edge3" class="edge">
<title>:shared:feature:history&#45;&gt;:ui:common</title>
<path fill="none" stroke="black" stroke-dasharray="1,5" d="M543.62,-958.81C543.62,-958.81 543.62,-865.31 543.62,-865.31"/>
<polygon fill="black" stroke="black" points="547.12,-865.31 543.62,-855.31 540.12,-865.31 547.12,-865.31"/>
</g>
<!-- :shared:domain -->
<g id="node5" class="node">
<title>:shared:domain</title>
<ellipse fill="#b59aff" stroke="black" cx="82.54" cy="-155" rx="82.59" ry="18"/>
<text text-anchor="middle" x="82.54" y="-151.3" font-family="Times,serif" font-size="14.00">:shared:domain</text>
</g>
<!-- :shared:feature:history&#45;&gt;:shared:domain -->
<g id="edge4" class="edge">
<title>:shared:feature:history&#45;&gt;:shared:domain</title>
<path fill="none" stroke="black" stroke-dasharray="1,5" d="M391.96,-977C256.9,-977 18.44,-977 18.44,-977 18.44,-977 18.44,-176.62 18.44,-176.62"/>
<polygon fill="black" stroke="black" points="21.94,-176.62 18.44,-166.62 14.94,-176.62 21.94,-176.62"/>
</g>
<!-- :test&#45;data&#45;&gt;:shared:domain -->
<g id="edge5" class="edge">
<title>:test&#45;data&#45;&gt;:shared:domain</title>
<path fill="none" stroke="black" stroke-dasharray="1,5" d="M359.36,-709C260.42,-709 55.32,-709 55.32,-709 55.32,-709 55.32,-182.19 55.32,-182.19"/>
<polygon fill="black" stroke="black" points="58.82,-182.19 55.32,-172.19 51.82,-182.19 58.82,-182.19"/>
</g>
<!-- :core:coroutines -->
<g id="node6" class="node">
<title>:core:coroutines</title>
<ellipse fill="#b59aff" stroke="black" cx="557.54" cy="-18" rx="85.29" ry="18"/>
<text text-anchor="middle" x="557.54" y="-14.3" font-family="Times,serif" font-size="14.00">:core:coroutines</text>
</g>
<!-- :test&#45;data&#45;&gt;:core:coroutines -->
<g id="edge6" class="edge">
<title>:test&#45;data&#45;&gt;:core:coroutines</title>
<path fill="none" stroke="black" stroke-dasharray="1,5" d="M444.47,-688.41C444.47,-663.88 444.47,-617 444.47,-617 444.47,-617 586.31,-617 586.31,-617 586.31,-617 586.31,-44.96 586.31,-44.96"/>
<polygon fill="black" stroke="black" points="589.81,-44.96 586.31,-34.96 582.81,-44.96 589.81,-44.96"/>
</g>
<!-- :data:database -->
<g id="node7" class="node">
<title>:data:database</title>
<ellipse fill="#b59aff" stroke="black" cx="204.54" cy="-429" rx="79.09" ry="18"/>
<text text-anchor="middle" x="204.54" y="-425.3" font-family="Times,serif" font-size="14.00">:data:database</text>
</g>
<!-- :test&#45;data&#45;&gt;:data:database -->
<g id="edge7" class="edge">
<title>:test&#45;data&#45;&gt;:data:database</title>
<path fill="none" stroke="black" stroke-dasharray="1,5" d="M363.36,-694.08C363.36,-647.58 363.36,-435 363.36,-435 363.36,-435 289.3,-435 289.3,-435"/>
<polygon fill="black" stroke="black" points="289.3,-431.5 279.3,-435 289.3,-438.5 289.3,-431.5"/>
</g>
<!-- :data:musicbrainz -->
<g id="node8" class="node">
<title>:data:musicbrainz</title>
<ellipse fill="#b59aff" stroke="black" cx="359.54" cy="-292" rx="93.68" ry="18"/>
<text text-anchor="middle" x="359.54" y="-288.3" font-family="Times,serif" font-size="14.00">:data:musicbrainz</text>
</g>
<!-- :test&#45;data&#45;&gt;:data:musicbrainz -->
<g id="edge8" class="edge">
<title>:test&#45;data&#45;&gt;:data:musicbrainz</title>
<path fill="none" stroke="black" stroke-dasharray="1,5" d="M370.43,-690.7C370.43,-690.7 370.43,-319.95 370.43,-319.95"/>
<polygon fill="black" stroke="black" points="373.93,-319.95 370.43,-309.95 366.93,-319.95 373.93,-319.95"/>
</g>
<!-- :data:coverart -->
<g id="node9" class="node">
<title>:data:coverart</title>
<ellipse fill="#b59aff" stroke="black" cx="453.54" cy="-566" rx="76.09" ry="18"/>
<text text-anchor="middle" x="453.54" y="-562.3" font-family="Times,serif" font-size="14.00">:data:coverart</text>
</g>
<!-- :test&#45;data&#45;&gt;:data:coverart -->
<g id="edge9" class="edge">
<title>:test&#45;data&#45;&gt;:data:coverart</title>
<path fill="none" stroke="black" stroke-dasharray="1,5" d="M399.82,-685.37C399.82,-685.37 399.82,-589.06 399.82,-589.06"/>
<polygon fill="black" stroke="black" points="403.32,-589.06 399.82,-579.06 396.32,-589.06 403.32,-589.06"/>
</g>
<!-- :data:spotify -->
<g id="node10" class="node">
<title>:data:spotify</title>
<ellipse fill="#b59aff" stroke="black" cx="179.54" cy="-292" rx="68.79" ry="18"/>
<text text-anchor="middle" x="179.54" y="-288.3" font-family="Times,serif" font-size="14.00">:data:spotify</text>
</g>
<!-- :test&#45;data&#45;&gt;:data:spotify -->
<g id="edge10" class="edge">
<title>:test&#45;data&#45;&gt;:data:spotify</title>
<path fill="none" stroke="black" stroke-dasharray="1,5" d="M359.39,-697C275.03,-697 117.95,-697 117.95,-697 117.95,-697 117.95,-310.09 117.95,-310.09"/>
<polygon fill="black" stroke="black" points="121.45,-310.09 117.95,-300.09 114.45,-310.09 121.45,-310.09"/>
</g>
<!-- :test:image -->
<g id="node11" class="node">
<title>:test:image</title>
<ellipse fill="#9affb5" stroke="black" cx="839.54" cy="-566" rx="63.09" ry="18"/>
<text text-anchor="middle" x="839.54" y="-562.3" font-family="Times,serif" font-size="14.00">:test:image</text>
</g>
<!-- :ui:test:screenshot&#45;&gt;:test:image -->
<g id="edge11" class="edge">
<title>:ui:test:screenshot&#45;&gt;:test:image</title>
<path fill="none" stroke="black" stroke-dasharray="1,5" d="M840.64,-686.2C840.64,-686.2 840.64,-594.25 840.64,-594.25"/>
<polygon fill="black" stroke="black" points="844.14,-594.25 840.64,-584.25 837.14,-594.25 844.14,-594.25"/>
</g>
<!-- :ui:common&#45;&gt;:test&#45;data -->
<g id="edge13" class="edge">
<title>:ui:common&#45;&gt;:test&#45;data</title>
<path fill="none" stroke="#ff9ab1" stroke-dasharray="1,5" d="M516.9,-834.8C516.9,-809.77 516.9,-703 516.9,-703 516.9,-703 477,-703 477,-703"/>
<polygon fill="#ff9ab1" stroke="#ff9ab1" points="477,-699.5 467,-703 477,-706.5 477,-699.5"/>
</g>
<!-- :ui:common&#45;&gt;:ui:test:screenshot -->
<g id="edge14" class="edge">
<title>:ui:common&#45;&gt;:ui:test:screenshot</title>
<path fill="none" stroke="#ff9ab1" stroke-dasharray="1,5" d="M634.36,-849C712.03,-849 843.26,-849 843.26,-849 843.26,-849 843.26,-730.03 843.26,-730.03"/>
<polygon fill="#ff9ab1" stroke="#ff9ab1" points="846.76,-730.03 843.26,-720.03 839.76,-730.03 846.76,-730.03"/>
</g>
<!-- :ui:common&#45;&gt;:shared:domain -->
<g id="edge16" class="edge">
<title>:ui:common&#45;&gt;:shared:domain</title>
<path fill="none" stroke="black" d="M514.01,-840C370.38,-840 36.88,-840 36.88,-840 36.88,-840 36.88,-180.27 36.88,-180.27"/>
<polygon fill="black" stroke="black" points="40.38,-180.27 36.88,-170.27 33.38,-180.27 40.38,-180.27"/>
</g>
<!-- :ui:common&#45;&gt;:core:coroutines -->
<g id="edge15" class="edge">
<title>:ui:common&#45;&gt;:core:coroutines</title>
<path fill="none" stroke="#ff9ab1" stroke-dasharray="1,5" d="M519.6,-832.36C519.6,-797 519.6,-651 519.6,-651 519.6,-651 614.5,-651 614.5,-651 614.5,-651 614.5,-41.51 614.5,-41.51"/>
<polygon fill="#ff9ab1" stroke="#ff9ab1" points="618,-41.51 614.5,-31.51 611,-41.51 618,-41.51"/>
</g>
<!-- :ui:common&#45;&gt;:test:image -->
<g id="edge12" class="edge">
<title>:ui:common&#45;&gt;:test:image</title>
<path fill="none" stroke="black" stroke-dasharray="1,5" d="M643.26,-840C690.36,-840 745.93,-840 745.93,-840 745.93,-840 745.93,-560 745.93,-560 745.93,-560 769.99,-560 769.99,-560"/>
<polygon fill="black" stroke="black" points="769.99,-563.5 779.99,-560 769.99,-556.5 769.99,-563.5"/>
</g>
<!-- :shared:strings -->
<g id="node12" class="node">
<title>:shared:strings</title>
<ellipse fill="#b59aff" stroke="black" cx="603.54" cy="-703" rx="81.49" ry="18"/>
<text text-anchor="middle" x="603.54" y="-699.3" font-family="Times,serif" font-size="14.00">:shared:strings</text>
</g>
<!-- :ui:common&#45;&gt;:shared:strings -->
<g id="edge17" class="edge">
<title>:ui:common&#45;&gt;:shared:strings</title>
<path fill="none" stroke="black" d="M582.59,-821.81C582.59,-821.81 582.59,-730.4 582.59,-730.4"/>
<polygon fill="black" stroke="black" points="586.09,-730.4 582.59,-720.4 579.09,-730.4 586.09,-730.4"/>
</g>
<!-- :core:logging:api -->
<g id="node13" class="node">
<title>:core:logging:api</title>
<ellipse fill="#b59aff" stroke="black" cx="441.54" cy="-155" rx="88.28" ry="18"/>
<text text-anchor="middle" x="441.54" y="-151.3" font-family="Times,serif" font-size="14.00">:core:logging:api</text>
</g>
<!-- :ui:common&#45;&gt;:core:logging:api -->
<g id="edge18" class="edge">
<title>:ui:common&#45;&gt;:core:logging:api</title>
<path fill="none" stroke="black" stroke-dasharray="1,5" d="M634.58,-831C672.37,-831 715.36,-831 715.36,-831 715.36,-831 715.36,-155 715.36,-155 715.36,-155 540.06,-155 540.06,-155"/>
<polygon fill="black" stroke="black" points="540.06,-151.5 530.06,-155 540.06,-158.5 540.06,-151.5"/>
</g>
<!-- :data:database&#45;&gt;:shared:domain -->
<g id="edge19" class="edge">
<title>:data:database&#45;&gt;:shared:domain</title>
<path fill="none" stroke="black" stroke-dasharray="1,5" d="M125,-429C106.56,-429 92.21,-429 92.21,-429 92.21,-429 92.21,-182.98 92.21,-182.98"/>
<polygon fill="black" stroke="black" points="95.71,-182.98 92.21,-172.98 88.71,-182.98 95.71,-182.98"/>
</g>
<!-- :data:database&#45;&gt;:core:coroutines -->
<g id="edge20" class="edge">
<title>:data:database&#45;&gt;:core:coroutines</title>
<path fill="none" stroke="black" stroke-dasharray="1,5" d="M257.19,-415.33C257.19,-344.01 257.19,-18 257.19,-18 257.19,-18 462.28,-18 462.28,-18"/>
<polygon fill="black" stroke="black" points="462.28,-21.5 472.28,-18 462.28,-14.5 462.28,-21.5"/>
</g>
<!-- :data:database&#45;&gt;:data:musicbrainz -->
<g id="edge21" class="edge">
<title>:data:database&#45;&gt;:data:musicbrainz</title>
<path fill="none" stroke="black" stroke-dasharray="1,5" d="M274.89,-420.43C274.89,-420.43 274.89,-309.88 274.89,-309.88"/>
<polygon fill="black" stroke="black" points="278.39,-309.88 274.89,-299.88 271.39,-309.88 278.39,-309.88"/>
</g>
<!-- :data:musicbrainz&#45;&gt;:shared:domain -->
<g id="edge22" class="edge">
<title>:data:musicbrainz&#45;&gt;:shared:domain</title>
<path fill="none" stroke="black" stroke-dasharray="1,5" d="M309.55,-276.72C309.55,-242.16 309.55,-161 309.55,-161 309.55,-161 170.67,-161 170.67,-161"/>
<polygon fill="black" stroke="black" points="170.67,-157.5 160.67,-161 170.67,-164.5 170.67,-157.5"/>
</g>
<!-- :data:musicbrainz&#45;&gt;:core:logging:api -->
<g id="edge23" class="edge">
<title>:data:musicbrainz&#45;&gt;:core:logging:api</title>
<path fill="none" stroke="black" stroke-dasharray="1,5" d="M403.14,-276.02C403.14,-276.02 403.14,-181.31 403.14,-181.31"/>
<polygon fill="black" stroke="black" points="406.64,-181.31 403.14,-171.31 399.64,-181.31 406.64,-181.31"/>
</g>
<!-- :data:coverart&#45;&gt;:test&#45;data -->
<g id="edge27" class="edge">
<title>:data:coverart&#45;&gt;:test&#45;data</title>
<path fill="none" stroke="#ff9ab1" stroke-dasharray="1,5" d="M422.14,-582.53C422.14,-582.53 422.14,-675.11 422.14,-675.11"/>
<polygon fill="#ff9ab1" stroke="#ff9ab1" points="418.64,-675.11 422.14,-685.11 425.64,-675.11 418.64,-675.11"/>
</g>
<!-- :data:coverart&#45;&gt;:shared:domain -->
<g id="edge24" class="edge">
<title>:data:coverart&#45;&gt;:shared:domain</title>
<path fill="none" stroke="black" stroke-dasharray="1,5" d="M377.15,-566C266.24,-566 73.77,-566 73.77,-566 73.77,-566 73.77,-182.92 73.77,-182.92"/>
<polygon fill="black" stroke="black" points="77.27,-182.92 73.77,-172.92 70.27,-182.92 77.27,-182.92"/>
</g>
<!-- :data:coverart&#45;&gt;:core:coroutines -->
<g id="edge26" class="edge">
<title>:data:coverart&#45;&gt;:core:coroutines</title>
<path fill="none" stroke="black" stroke-dasharray="1,5" d="M525.32,-572C543.57,-572 558.12,-572 558.12,-572 558.12,-572 558.12,-46.12 558.12,-46.12"/>
<polygon fill="black" stroke="black" points="561.62,-46.12 558.12,-36.12 554.62,-46.12 561.62,-46.12"/>
</g>
<!-- :data:coverart&#45;&gt;:data:database -->
<g id="edge29" class="edge">
<title>:data:coverart&#45;&gt;:data:database</title>
<path fill="none" stroke="#ff9ab1" stroke-dasharray="1,5" d="M402.71,-552.55C402.71,-516.95 402.71,-423 402.71,-423 402.71,-423 289.46,-423 289.46,-423"/>
<polygon fill="#ff9ab1" stroke="#ff9ab1" points="289.46,-419.5 279.46,-423 289.46,-426.5 289.46,-419.5"/>
</g>
<!-- :data:coverart&#45;&gt;:data:musicbrainz -->
<g id="edge28" class="edge">
<title>:data:coverart&#45;&gt;:data:musicbrainz</title>
<path fill="none" stroke="#ff9ab1" stroke-dasharray="1,5" d="M427.92,-548.86C427.92,-548.86 427.92,-314.53 427.92,-314.53"/>
<polygon fill="#ff9ab1" stroke="#ff9ab1" points="431.42,-314.53 427.92,-304.53 424.42,-314.53 431.42,-314.53"/>
</g>
<!-- :data:coverart&#45;&gt;:core:logging:api -->
<g id="edge25" class="edge">
<title>:data:coverart&#45;&gt;:core:logging:api</title>
<path fill="none" stroke="black" stroke-dasharray="1,5" d="M491.36,-550.14C491.36,-550.14 491.36,-180.16 491.36,-180.16"/>
<polygon fill="black" stroke="black" points="494.86,-180.16 491.36,-170.16 487.86,-180.16 494.86,-180.16"/>
</g>
<!-- :data:spotify&#45;&gt;:shared:domain -->
<g id="edge30" class="edge">
<title>:data:spotify&#45;&gt;:shared:domain</title>
<path fill="none" stroke="black" stroke-dasharray="1,5" d="M137.87,-277.6C137.87,-277.6 137.87,-178.4 137.87,-178.4"/>
<polygon fill="black" stroke="black" points="141.37,-178.4 137.87,-168.4 134.37,-178.4 141.37,-178.4"/>
</g>
<!-- :data:spotify&#45;&gt;:core:logging:api -->
<g id="edge31" class="edge">
<title>:data:spotify&#45;&gt;:core:logging:api</title>
<path fill="none" stroke="black" stroke-dasharray="1,5" d="M206.76,-275.32C206.76,-237.59 206.76,-149 206.76,-149 206.76,-149 348.11,-149 348.11,-149"/>
<polygon fill="black" stroke="black" points="348.11,-152.5 358.11,-149 348.11,-145.5 348.11,-152.5"/>
</g>
<!-- :core:logging:api&#45;&gt;:core:coroutines -->
<g id="edge32" class="edge">
<title>:core:logging:api&#45;&gt;:core:coroutines</title>
<path fill="none" stroke="black" d="M501.17,-141.61C501.17,-141.61 501.17,-41.64 501.17,-41.64"/>
<polygon fill="black" stroke="black" points="504.67,-41.64 501.17,-31.64 497.67,-41.64 504.67,-41.64"/>
</g>
</g>
</svg>
