<?xml version="1.0" encoding="UTF-8" standalone="no"?>
<!DOCTYPE svg PUBLIC "-//W3C//DTD SVG 1.1//EN"
 "http://www.w3.org/Graphics/SVG/1.1/DTD/svg11.dtd">
<!-- Generated by graphviz version 2.43.0 (0)
 -->
<!-- Title: %3 Pages: 1 -->
<svg width="830pt" height="666pt"
 viewBox="0.00 0.00 830.23 666.00" xmlns="http://www.w3.org/2000/svg" xmlns:xlink="http://www.w3.org/1999/xlink">
<g id="graph0" class="graph" transform="scale(1 1) rotate(0) translate(4 662)">
<title>%3</title>
<polygon fill="white" stroke="transparent" points="-4,4 -4,-662 826.23,-662 826.23,4 -4,4"/>
<text text-anchor="middle" x="411.12" y="-630" font-family="Times,serif" font-size="30.00">Dependencies</text>
<text text-anchor="middle" x="411.12" y="-597" font-family="Times,serif" font-size="30.00"> </text>
<!-- :shared:feature:history -->
<g id="node1" class="node">
<title>:shared:feature:history</title>
<polygon fill="#b59aff" stroke="black" points="417.34,-584 236.34,-584 236.34,-548 417.34,-548 417.34,-584"/>
<text text-anchor="middle" x="326.84" y="-562.3" font-family="Times,serif" font-size="14.00">:shared:feature:history</text>
</g>
<!-- :ui:test:screenshot -->
<g id="node2" class="node">
<title>:ui:test:screenshot</title>
<ellipse fill="#9affb5" stroke="black" cx="96.84" cy="-292" rx="96.68" ry="18"/>
<text text-anchor="middle" x="96.84" y="-288.3" font-family="Times,serif" font-size="14.00">:ui:test:screenshot</text>
</g>
<!-- :shared:feature:history&#45;&gt;:ui:test:screenshot -->
<g id="edge1" class="edge">
<title>:shared:feature:history&#45;&gt;:ui:test:screenshot</title>
<path fill="none" stroke="#ff9ab1" stroke-dasharray="1,5" d="M236.21,-566C160.4,-566 64.56,-566 64.56,-566 64.56,-566 64.56,-319.14 64.56,-319.14"/>
<polygon fill="#ff9ab1" stroke="#ff9ab1" points="68.06,-319.14 64.56,-309.14 61.06,-319.14 68.06,-319.14"/>
</g>
<!-- :ui:common -->
<g id="node3" class="node">
<title>:ui:common</title>
<ellipse fill="#b59aff" stroke="black" cx="439.84" cy="-429" rx="64.19" ry="18"/>
<text text-anchor="middle" x="439.84" y="-425.3" font-family="Times,serif" font-size="14.00">:ui:common</text>
</g>
<!-- :shared:feature:history&#45;&gt;:ui:common -->
<g id="edge2" class="edge">
<title>:shared:feature:history&#45;&gt;:ui:common</title>
<path fill="none" stroke="black" stroke-dasharray="1,5" d="M396.42,-547.81C396.42,-547.81 396.42,-452.32 396.42,-452.32"/>
<polygon fill="black" stroke="black" points="399.92,-452.32 396.42,-442.32 392.92,-452.32 399.92,-452.32"/>
</g>
<!-- :shared:domain -->
<g id="node4" class="node">
<title>:shared:domain</title>
<ellipse fill="#b59aff" stroke="black" cx="423.84" cy="-155" rx="82.59" ry="18"/>
<text text-anchor="middle" x="423.84" y="-151.3" font-family="Times,serif" font-size="14.00">:shared:domain</text>
</g>
<!-- :shared:feature:history&#45;&gt;:shared:domain -->
<g id="edge3" class="edge">
<title>:shared:feature:history&#45;&gt;:shared:domain</title>
<path fill="none" stroke="black" stroke-dasharray="1,5" d="M358.4,-547.81C358.4,-547.81 358.4,-176.27 358.4,-176.27"/>
<polygon fill="black" stroke="black" points="361.9,-176.26 358.4,-166.27 354.9,-176.27 361.9,-176.26"/>
</g>
<!-- :ui:image -->
<g id="node5" class="node">
<title>:ui:image</title>
<ellipse fill="#b59aff" stroke="black" cx="265.84" cy="-292" rx="53.89" ry="18"/>
<text text-anchor="middle" x="265.84" y="-288.3" font-family="Times,serif" font-size="14.00">:ui:image</text>
</g>
<!-- :shared:feature:history&#45;&gt;:ui:image -->
<g id="edge4" class="edge">
<title>:shared:feature:history&#45;&gt;:ui:image</title>
<path fill="none" stroke="black" stroke-dasharray="1,5" d="M278.06,-547.6C278.06,-547.6 278.06,-319.61 278.06,-319.61"/>
<polygon fill="black" stroke="black" points="281.56,-319.61 278.06,-309.61 274.56,-319.61 281.56,-319.61"/>
</g>
<!-- :ui:core -->
<g id="node6" class="node">
<title>:ui:core</title>
<ellipse fill="#b59aff" stroke="black" cx="265.84" cy="-155" rx="45.49" ry="18"/>
<text text-anchor="middle" x="265.84" y="-151.3" font-family="Times,serif" font-size="14.00">:ui:core</text>
</g>
<!-- :ui:test:screenshot&#45;&gt;:ui:core -->
<g id="edge5" class="edge">
<title>:ui:test:screenshot&#45;&gt;:ui:core</title>
<path fill="none" stroke="black" stroke-dasharray="1,5" d="M189.14,-286.46C189.14,-260.83 189.14,-155 189.14,-155 189.14,-155 210.34,-155 210.34,-155"/>
<polygon fill="black" stroke="black" points="210.34,-158.5 220.34,-155 210.34,-151.5 210.34,-158.5"/>
</g>
<!-- :test:image -->
<g id="node7" class="node">
<title>:test:image</title>
<ellipse fill="#9affb5" stroke="black" cx="96.84" cy="-155" rx="63.09" ry="18"/>
<text text-anchor="middle" x="96.84" y="-151.3" font-family="Times,serif" font-size="14.00">:test:image</text>
</g>
<!-- :ui:test:screenshot&#45;&gt;:test:image -->
<g id="edge6" class="edge">
<title>:ui:test:screenshot&#45;&gt;:test:image</title>
<path fill="none" stroke="black" stroke-dasharray="1,5" d="M96.84,-273.81C96.84,-273.81 96.84,-183.27 96.84,-183.27"/>
<polygon fill="black" stroke="black" points="100.34,-183.27 96.84,-173.27 93.34,-183.27 100.34,-183.27"/>
</g>
<!-- :ui:common&#45;&gt;:ui:test:screenshot -->
<g id="edge7" class="edge">
<title>:ui:common&#45;&gt;:ui:test:screenshot</title>
<path fill="none" stroke="#ff9ab1" stroke-dasharray="1,5" d="M378.82,-435C288.33,-435 129.12,-435 129.12,-435 129.12,-435 129.12,-319.25 129.12,-319.25"/>
<polygon fill="#ff9ab1" stroke="#ff9ab1" points="132.62,-319.25 129.12,-309.25 125.62,-319.25 132.62,-319.25"/>
</g>
<!-- :ui:common&#45;&gt;:shared:domain -->
<g id="edge8" class="edge">
<title>:ui:common&#45;&gt;:shared:domain</title>
<path fill="none" stroke="black" d="M426.67,-411.02C426.67,-411.02 426.67,-183.04 426.67,-183.04"/>
<polygon fill="black" stroke="black" points="430.17,-183.04 426.67,-173.04 423.17,-183.04 430.17,-183.04"/>
</g>
<!-- :ui:common&#45;&gt;:ui:image -->
<g id="edge13" class="edge">
<title>:ui:common&#45;&gt;:ui:image</title>
<path fill="none" stroke="black" stroke-dasharray="1,5" d="M401.08,-414.6C401.08,-379.42 401.08,-292 401.08,-292 401.08,-292 330.07,-292 330.07,-292"/>
<polygon fill="black" stroke="black" points="330.07,-288.5 320.07,-292 330.07,-295.5 330.07,-288.5"/>
</g>
<!-- :ui:common&#45;&gt;:ui:core -->
<g id="edge9" class="edge">
<title>:ui:common&#45;&gt;:ui:core</title>
<path fill="none" stroke="black" d="M379.12,-423C353.96,-423 330.54,-423 330.54,-423 330.54,-423 330.54,-161 330.54,-161 330.54,-161 319,-161 319,-161"/>
<polygon fill="black" stroke="black" points="319,-157.5 309,-161 319,-164.5 319,-157.5"/>
</g>
<!-- :data:coverart -->
<g id="node8" class="node">
<title>:data:coverart</title>
<ellipse fill="#b59aff" stroke="black" cx="733.84" cy="-292" rx="76.09" ry="18"/>
<text text-anchor="middle" x="733.84" y="-288.3" font-family="Times,serif" font-size="14.00">:data:coverart</text>
</g>
<!-- :ui:common&#45;&gt;:data:coverart -->
<g id="edge10" class="edge">
<title>:ui:common&#45;&gt;:data:coverart</title>
<path fill="none" stroke="black" stroke-dasharray="1,5" d="M500.76,-435C586.87,-435 733.84,-435 733.84,-435 733.84,-435 733.84,-320.11 733.84,-320.11"/>
<polygon fill="black" stroke="black" points="737.34,-320.11 733.84,-310.11 730.34,-320.11 737.34,-320.11"/>
</g>
<!-- :data:musicbrainz -->
<g id="node9" class="node">
<title>:data:musicbrainz</title>
<ellipse fill="#b59aff" stroke="black" cx="545.84" cy="-292" rx="93.68" ry="18"/>
<text text-anchor="middle" x="545.84" y="-288.3" font-family="Times,serif" font-size="14.00">:data:musicbrainz</text>
</g>
<!-- :ui:common&#45;&gt;:data:musicbrainz -->
<g id="edge11" class="edge">
<title>:ui:common&#45;&gt;:data:musicbrainz</title>
<path fill="none" stroke="black" stroke-dasharray="1,5" d="M478.22,-414.34C478.22,-414.34 478.22,-314.55 478.22,-314.55"/>
<polygon fill="black" stroke="black" points="481.72,-314.55 478.22,-304.55 474.72,-314.55 481.72,-314.55"/>
</g>
<!-- :core:logging:api -->
<g id="node10" class="node">
<title>:core:logging:api</title>
<ellipse fill="#b59aff" stroke="black" cx="733.84" cy="-155" rx="88.28" ry="18"/>
<text text-anchor="middle" x="733.84" y="-151.3" font-family="Times,serif" font-size="14.00">:core:logging:api</text>
</g>
<!-- :ui:common&#45;&gt;:core:logging:api -->
<g id="edge12" class="edge">
<title>:ui:common&#45;&gt;:core:logging:api</title>
<path fill="none" stroke="black" stroke-dasharray="1,5" d="M500.55,-423C563.77,-423 653.68,-423 653.68,-423 653.68,-423 653.68,-172.73 653.68,-172.73"/>
<polygon fill="black" stroke="black" points="657.18,-172.73 653.68,-162.73 650.18,-172.73 657.18,-172.73"/>
</g>
<!-- :ui:image&#45;&gt;:shared:domain -->
<g id="edge14" class="edge">
<title>:ui:image&#45;&gt;:shared:domain</title>
<path fill="none" stroke="black" stroke-dasharray="1,5" d="M315.56,-284.71C315.56,-255.57 315.56,-149 315.56,-149 315.56,-149 336.01,-149 336.01,-149"/>
<polygon fill="black" stroke="black" points="336.01,-152.5 346.01,-149 336.01,-145.5 336.01,-152.5"/>
</g>
<!-- :ui:image&#45;&gt;:ui:core -->
<g id="edge15" class="edge">
<title>:ui:image&#45;&gt;:ui:core</title>
<path fill="none" stroke="black" stroke-dasharray="1,5" d="M265.84,-273.81C265.84,-273.81 265.84,-183.27 265.84,-183.27"/>
<polygon fill="black" stroke="black" points="269.34,-183.27 265.84,-173.27 262.34,-183.27 269.34,-183.27"/>
</g>
<!-- :shared:strings -->
<g id="node11" class="node">
<title>:shared:strings</title>
<ellipse fill="#b59aff" stroke="black" cx="265.84" cy="-18" rx="81.49" ry="18"/>
<text text-anchor="middle" x="265.84" y="-14.3" font-family="Times,serif" font-size="14.00">:shared:strings</text>
</g>
<!-- :ui:core&#45;&gt;:shared:strings -->
<g id="edge16" class="edge">
<title>:ui:core&#45;&gt;:shared:strings</title>
<path fill="none" stroke="black" d="M265.84,-136.81C265.84,-136.81 265.84,-46.27 265.84,-46.27"/>
<polygon fill="black" stroke="black" points="269.34,-46.27 265.84,-36.27 262.34,-46.27 269.34,-46.27"/>
</g>
<!-- :data:coverart&#45;&gt;:shared:domain -->
<g id="edge17" class="edge">
<title>:data:coverart&#45;&gt;:shared:domain</title>
<path fill="none" stroke="black" stroke-dasharray="1,5" d="M708.49,-274.94C708.49,-254.51 708.49,-223 708.49,-223 708.49,-223 488.34,-223 488.34,-223 488.34,-223 488.34,-176.54 488.34,-176.54"/>
<polygon fill="black" stroke="black" points="491.84,-176.54 488.34,-166.54 484.84,-176.54 491.84,-176.54"/>
</g>
<!-- :data:coverart&#45;&gt;:core:logging:api -->
<g id="edge18" class="edge">
<title>:data:coverart&#45;&gt;:core:logging:api</title>
<path fill="none" stroke="black" stroke-dasharray="1,5" d="M759.19,-274.93C759.19,-274.93 759.19,-182.29 759.19,-182.29"/>
<polygon fill="black" stroke="black" points="762.69,-182.29 759.19,-172.29 755.69,-182.29 762.69,-182.29"/>
</g>
<!-- :data:musicbrainz&#45;&gt;:shared:domain -->
<g id="edge19" class="edge">
<title>:data:musicbrainz&#45;&gt;:shared:domain</title>
<path fill="none" stroke="black" stroke-dasharray="1,5" d="M470.29,-281.25C470.29,-281.25 470.29,-180.18 470.29,-180.18"/>
<polygon fill="black" stroke="black" points="473.79,-180.18 470.29,-170.18 466.79,-180.18 473.79,-180.18"/>
</g>
<!-- :data:musicbrainz&#45;&gt;:core:logging:api -->
<g id="edge20" class="edge">
<title>:data:musicbrainz&#45;&gt;:core:logging:api</title>
<path fill="none" stroke="black" stroke-dasharray="1,5" d="M639.62,-292C645.77,-292 649.57,-292 649.57,-292 649.57,-292 649.57,-170.54 649.57,-170.54"/>
<polygon fill="black" stroke="black" points="653.07,-170.54 649.57,-160.54 646.07,-170.54 653.07,-170.54"/>
</g>
</g>
</svg>
